<?xml version="1.0" encoding="utf-8"?>
<!-- Generator: Adobe Illustrator 24.0.3, SVG Export Plug-In . SVG Version: 6.00 Build 0)  -->
<svg version="1.1" id="Layer_1" xmlns="http://www.w3.org/2000/svg" xmlns:xlink="http://www.w3.org/1999/xlink" x="0px" y="0px"
	 viewBox="0 0 150 9" style="enable-background:new 0 0 150 9;" xml:space="preserve">
<g>
	<polygon points="46.897,1.039 43.371,0.879 43.508,1.593 44.608,1.474 44.507,7.232 44.949,7.333 45.556,1.428 46.753,1.373 	"/>
	<path d="M48.619,6.213c-0.051,0.007-0.103,0.005-0.153,0.013c-0.626,0.034-1.383-0.15-1.59-1.583l2.579-0.174
		c-0.022-0.243-0.032-0.364-0.066-0.557c-0.167-0.958-0.606-1.763-1.702-1.69c-0.041,0.006-0.092,0.003-0.133,0.009
		c-1.08,0.156-1.481,1.309-1.252,2.626c0.182,1.049,0.831,2.221,2.396,1.995c0.374-0.054,0.748-0.165,0.943-0.296L49.329,5.95
		C49.171,6.058,48.942,6.167,48.619,6.213z M47.573,2.701c0.525-0.076,0.92,0.405,1.065,1.244l-1.735,0.204
		C46.833,3.507,46.977,2.788,47.573,2.701z"/>
	<path d="M53.174,3.072l-0.02-0.003c-0.193-0.5-0.568-0.725-0.953-0.78c-0.798-0.116-1.738,0.523-1.988,1.969
		c-0.197,1.133-0.056,2.531,1.226,2.717c0.546,0.079,1.029-0.2,1.238-0.51l0.03,0.005l-0.296,2.299l0.553-0.08l0.868-4.699
		l0.235-1.354l-0.883-0.402L53.174,3.072z M52.838,5.308c-0.095,0.845-0.685,1.081-1.028,1.032c-0.889-0.129-0.95-1.327-0.819-2.082
		c0.15-0.866,0.582-1.502,1.238-1.408c0.535,0.078,0.825,0.676,0.738,1.353L52.838,5.308z"/>
	<path d="M55.489,3.87c-0.15,0-0.27,0.046-0.361,0.137c-0.091,0.092-0.136,0.208-0.136,0.35v0.092c0,0.143,0.045,0.261,0.136,0.352
		c0.091,0.091,0.212,0.136,0.364,0.136c0.154,0,0.275-0.045,0.364-0.135s0.135-0.206,0.135-0.348v-0.09
		c0-0.152-0.047-0.272-0.14-0.361C55.757,3.914,55.637,3.87,55.489,3.87z"/>
	<path d="M58.634,2.118c-0.5,0-0.904,0.195-1.214,0.585l-0.022-0.51h-0.655v4.054h0.693V3.359c0.095-0.195,0.227-0.352,0.397-0.472
		c0.17-0.12,0.367-0.18,0.592-0.18c0.277,0,0.481,0.07,0.612,0.21c0.131,0.14,0.198,0.356,0.2,0.649v2.682h0.693V3.568
		C59.922,2.601,59.49,2.118,58.634,2.118z"/>
	<rect x="60.843" y="2.193" width="0.693" height="4.054"/>
	<path d="M61.195,0.717c-0.135,0-0.237,0.039-0.306,0.117c-0.068,0.078-0.103,0.173-0.103,0.285c0,0.112,0.035,0.206,0.103,0.281
		c0.069,0.075,0.17,0.112,0.306,0.112s0.237-0.037,0.307-0.112c0.07-0.075,0.104-0.168,0.104-0.281c0-0.112-0.035-0.207-0.104-0.285
		C61.432,0.756,61.33,0.717,61.195,0.717z"/>
	<path d="M63.257,3.068c0.193-0.253,0.466-0.38,0.819-0.38c0.262,0,0.483,0.085,0.661,0.253c0.179,0.168,0.278,0.384,0.298,0.646
		h0.655c-0.02-0.434-0.18-0.788-0.482-1.06c-0.301-0.273-0.679-0.408-1.133-0.408c-0.37,0-0.69,0.085-0.961,0.255
		c-0.271,0.17-0.478,0.408-0.623,0.715c-0.145,0.307-0.218,0.658-0.218,1.053v0.116c0,0.64,0.163,1.143,0.489,1.512
		s0.765,0.553,1.317,0.553c0.275,0,0.535-0.062,0.781-0.187c0.246-0.124,0.443-0.292,0.591-0.502c0.148-0.21,0.227-0.431,0.24-0.663
		h-0.655c-0.02,0.225-0.123,0.412-0.307,0.562c-0.185,0.15-0.401,0.225-0.648,0.225c-0.358,0-0.632-0.126-0.824-0.378
		c-0.193-0.252-0.288-0.612-0.288-1.079V4.167C62.967,3.688,63.064,3.321,63.257,3.068z"/>
	<path d="M69.365,3.433c-0.01-0.409-0.148-0.731-0.412-0.965c-0.265-0.233-0.63-0.351-1.098-0.351c-0.294,0-0.566,0.055-0.811,0.165
		c-0.246,0.11-0.44,0.259-0.585,0.447c-0.143,0.188-0.215,0.384-0.215,0.586h0.697c0-0.177,0.084-0.328,0.251-0.453
		c0.168-0.124,0.375-0.187,0.622-0.187c0.282,0,0.496,0.072,0.641,0.215c0.145,0.143,0.218,0.337,0.218,0.579v0.319h-0.674
		c-0.582,0-1.034,0.117-1.354,0.351c-0.321,0.233-0.482,0.561-0.482,0.984c0,0.347,0.128,0.634,0.384,0.86
		c0.256,0.226,0.584,0.339,0.984,0.339c0.447,0,0.832-0.168,1.154-0.503c0.025,0.205,0.058,0.347,0.098,0.428h0.727v-0.06
		c-0.095-0.22-0.142-0.516-0.142-0.888L69.365,3.433z M68.672,5.112c-0.087,0.18-0.229,0.326-0.423,0.439
		c-0.195,0.112-0.401,0.168-0.618,0.168c-0.227,0-0.414-0.061-0.558-0.184c-0.145-0.123-0.217-0.292-0.217-0.509
		c0-0.497,0.425-0.745,1.274-0.745h0.543L68.672,5.112z"/>
	<rect x="70.319" y="0.492" width="0.693" height="5.755"/>
	<path d="M78.305,2.607c-0.28-0.328-0.66-0.493-1.141-0.493c-0.482,0-0.873,0.191-1.171,0.574c-0.298,0.383-0.448,0.889-0.448,1.518
		V4.26c0,0.627,0.15,1.134,0.45,1.524c0.3,0.389,0.687,0.584,1.162,0.584c0.5,0,0.891-0.172,1.171-0.516l0.034,0.44h0.645V0.469
		h-0.702V2.607z M78.305,5.173c-0.205,0.4-0.529,0.6-0.974,0.6c-0.339,0-0.605-0.131-0.796-0.394
		c-0.192-0.263-0.288-0.627-0.288-1.092c0-0.521,0.096-0.914,0.288-1.179c0.191-0.265,0.459-0.398,0.803-0.398
		c0.435,0,0.757,0.193,0.966,0.58V5.173z"/>
	<rect x="79.768" y="2.19" width="0.701" height="4.102"/>
	<path d="M80.124,0.696c-0.137,0-0.24,0.039-0.31,0.117c-0.069,0.078-0.104,0.175-0.104,0.288s0.035,0.209,0.104,0.284
		c0.07,0.076,0.173,0.114,0.31,0.114c0.137,0,0.24-0.038,0.31-0.114c0.071-0.076,0.107-0.171,0.107-0.284s-0.035-0.21-0.107-0.288
		C80.364,0.736,80.261,0.696,80.124,0.696z"/>
	<path d="M82.249,1.756c0-0.248,0.062-0.439,0.185-0.572c0.124-0.133,0.3-0.2,0.527-0.2c0.134,0,0.26,0.011,0.379,0.034l0.038-0.565
		c-0.16-0.043-0.32-0.064-0.481-0.064c-0.43,0-0.762,0.12-0.997,0.36c-0.235,0.24-0.353,0.58-0.353,1.02V2.19h-0.648v0.542h0.648
		v3.56h0.702v-3.56h0.876V2.19h-0.876V1.756z"/>
	<path d="M84.208,0.749c-0.235,0.24-0.353,0.58-0.353,1.02V2.19h-0.648v0.542h0.648v3.56h0.702v-3.56h0.876V2.19h-0.876V1.756
		c0-0.248,0.062-0.439,0.185-0.572c0.124-0.133,0.3-0.2,0.527-0.2c0.134,0,0.26,0.011,0.379,0.034l0.038-0.565
		c-0.16-0.043-0.32-0.064-0.481-0.064C84.775,0.389,84.443,0.509,84.208,0.749z"/>
	<path d="M86.235,0.696c-0.137,0-0.24,0.039-0.31,0.117c-0.069,0.078-0.104,0.175-0.104,0.288s0.035,0.209,0.104,0.284
		c0.07,0.076,0.173,0.114,0.31,0.114c0.137,0,0.24-0.038,0.31-0.114c0.071-0.076,0.107-0.171,0.107-0.284s-0.035-0.21-0.107-0.288
		C86.475,0.736,86.371,0.696,86.235,0.696z"/>
	<rect x="85.879" y="2.19" width="0.701" height="4.102"/>
	<path d="M88.126,3.075c0.196-0.257,0.472-0.385,0.829-0.385c0.265,0,0.488,0.085,0.668,0.256c0.181,0.171,0.281,0.389,0.302,0.654
		h0.664c-0.02-0.44-0.183-0.798-0.488-1.073c-0.304-0.276-0.687-0.413-1.146-0.413c-0.375,0-0.698,0.086-0.973,0.258
		c-0.274,0.172-0.485,0.413-0.631,0.724c-0.146,0.311-0.22,0.666-0.22,1.065v0.118c0,0.647,0.165,1.157,0.495,1.53
		c0.33,0.373,0.773,0.559,1.332,0.559c0.278,0,0.541-0.064,0.79-0.19c0.25-0.126,0.448-0.295,0.598-0.508
		c0.149-0.213,0.229-0.436,0.243-0.671h-0.664c-0.02,0.228-0.123,0.417-0.31,0.569c-0.187,0.152-0.406,0.227-0.656,0.227
		c-0.362,0-0.639-0.128-0.834-0.383c-0.195-0.256-0.292-0.619-0.292-1.092V4.188C87.833,3.703,87.93,3.332,88.126,3.075z"/>
	<path d="M93.503,5.173c-0.177,0.4-0.534,0.6-1.07,0.6c-0.505,0-0.758-0.311-0.758-0.932V2.19h-0.701v2.669
		c0.003,0.497,0.118,0.874,0.347,1.128c0.229,0.254,0.562,0.381,0.999,0.381c0.528,0,0.929-0.16,1.202-0.481l0.015,0.406h0.667V2.19
		h-0.701V5.173z"/>
	<rect x="94.942" y="0.469" width="0.701" height="5.823"/>
	<path d="M97.431,5.649c-0.068-0.082-0.102-0.205-0.102-0.37V2.732h0.766V2.19h-0.766V1.197h-0.701V2.19h-0.747v0.542h0.747v2.543
		c0,0.349,0.079,0.619,0.239,0.809c0.159,0.19,0.395,0.284,0.709,0.284c0.174,0,0.354-0.025,0.538-0.075V5.727
		c-0.141,0.031-0.253,0.046-0.333,0.046C97.615,5.773,97.5,5.731,97.431,5.649z"/>
	<rect x="98.586" y="2.19" width="0.701" height="4.102"/>
	<path d="M98.942,0.696c-0.137,0-0.24,0.039-0.309,0.117c-0.069,0.078-0.104,0.175-0.104,0.288s0.035,0.209,0.104,0.284
		c0.07,0.076,0.173,0.114,0.309,0.114c0.137,0,0.24-0.038,0.31-0.114c0.071-0.076,0.107-0.171,0.107-0.284s-0.035-0.21-0.107-0.288
		C99.182,0.736,99.079,0.696,98.942,0.696z"/>
	<path d="M101.637,2.114c-0.326,0-0.63,0.09-0.908,0.271c-0.28,0.181-0.496,0.431-0.653,0.75c-0.155,0.32-0.233,0.683-0.233,1.09
		v0.129c0,0.612,0.175,1.1,0.523,1.466c0.349,0.365,0.802,0.548,1.357,0.548c0.688,0,1.204-0.264,1.548-0.793l-0.429-0.333
		c-0.129,0.167-0.28,0.301-0.451,0.402c-0.172,0.101-0.382,0.152-0.63,0.152c-0.348,0-0.636-0.124-0.862-0.374
		c-0.226-0.249-0.344-0.575-0.354-0.98h2.779V4.15c0-0.655-0.148-1.158-0.444-1.509C102.584,2.29,102.17,2.114,101.637,2.114z
		 M102.622,3.866h-2.055c0.046-0.372,0.164-0.66,0.356-0.866c0.192-0.206,0.429-0.309,0.713-0.309c0.293,0,0.526,0.098,0.697,0.294
		c0.172,0.196,0.267,0.472,0.287,0.828V3.866z"/>
	<path d="M106.68,4.596c-0.105-0.153-0.266-0.284-0.484-0.392c-0.217-0.108-0.501-0.202-0.851-0.28
		c-0.35-0.078-0.592-0.16-0.726-0.246c-0.134-0.086-0.201-0.214-0.201-0.383c0-0.179,0.072-0.324,0.216-0.436
		c0.144-0.111,0.344-0.167,0.599-0.167c0.248,0,0.453,0.07,0.616,0.209c0.163,0.139,0.244,0.305,0.244,0.496h0.705
		c0-0.374-0.145-0.681-0.434-0.921c-0.29-0.24-0.667-0.36-1.132-0.36c-0.442,0-0.805,0.116-1.09,0.349
		c-0.284,0.232-0.426,0.517-0.426,0.853c0,0.202,0.049,0.377,0.149,0.523c0.101,0.147,0.254,0.273,0.463,0.379
		c0.208,0.106,0.49,0.197,0.846,0.273c0.354,0.076,0.604,0.166,0.747,0.271c0.143,0.105,0.214,0.252,0.214,0.442
		c0,0.179-0.08,0.323-0.241,0.43c-0.16,0.108-0.374,0.161-0.639,0.161c-0.288,0-0.52-0.069-0.696-0.207
		c-0.175-0.138-0.27-0.324-0.282-0.559h-0.702c0,0.242,0.071,0.468,0.214,0.677c0.143,0.208,0.341,0.37,0.593,0.487
		c0.253,0.116,0.543,0.175,0.872,0.175c0.467,0,0.848-0.11,1.141-0.332c0.294-0.221,0.44-0.515,0.44-0.882
		C106.837,4.935,106.785,4.749,106.68,4.596z"/>
</g>
</svg>
