<?xml version="1.0" encoding="utf-8"?>
<!-- Generator: Adobe Illustrator 24.0.3, SVG Export Plug-In . SVG Version: 6.00 Build 0)  -->
<svg version="1.1" id="Layer_1" xmlns="http://www.w3.org/2000/svg" xmlns:xlink="http://www.w3.org/1999/xlink" x="0px" y="0px"
	 viewBox="0 0 750 750" style="enable-background:new 0 0 750 750;" xml:space="preserve">
<style type="text/css">
	.st0{fill:#FFFFFF;}
</style>
<filter  id="shadow">
	<feGaussianBlur  in="SourceAlpha" stdDeviation="6"></feGaussianBlur>
	<feOffset  dx="0" dy="0" result="offsetblur"></feOffset>
	<feFlood  flood-color="rgb(0,0,0)" flood-opacity="0.36"></feFlood>
	<feComposite  in2="offsetblur" operator="in"></feComposite>
	<feMerge>
		<feMergeNode></feMergeNode>
		<feMergeNode  in="SourceGraphic"></feMergeNode>
	</feMerge>
</filter>
<g>
	<path class="st0" d="M51.705,576.095c3.066-2.891,5.133-7.174,6.184-12.851l0.105-0.569c1.104-5.904,0.727-10.713-1.112-14.436
		s-4.897-5.983-9.154-6.771c-2.716-0.508-5.256-0.342-7.612,0.499s-4.389,2.295-6.071,4.371l1.209-6.5l-1.813-0.342l-9.364,50.439
		l1.813,0.342l3.653-19.657c0.85,2.199,2.243,4.065,4.187,5.589c1.945,1.524,4.301,2.54,7.06,3.057
		C44.995,580.028,48.639,578.985,51.705,576.095z M41.132,577.435c-3.057-0.569-5.536-1.743-7.428-3.521s-3.066-4.012-3.548-6.701
		l3.162-17.038c1.489-2.786,3.451-4.774,5.878-5.965c2.426-1.191,5.168-1.498,8.217-0.929c3.749,0.692,6.386,2.716,7.91,6.053
		c1.524,3.338,1.813,7.621,0.832,12.851c-1.06,5.703-2.899,9.846-5.51,12.421C48.034,577.181,44.863,578.127,41.132,577.435z"/>
	<g>
		<path class="st0" d="M68.997,559.127c1.323-3.486,3.215-6.044,5.676-7.665s5.238-2.146,8.339-1.559l2.313,0.639l0.508-1.603
			c-0.604-0.368-1.437-0.657-2.488-0.85c-2.978-0.561-5.606-0.272-7.858,0.841c-2.251,1.112-4.108,2.847-5.562,5.203l1.402-7.577
			l-1.813-0.342l-6.772,36.433l1.813,0.342L68.997,559.127z"/>
	</g>
	<path class="st0" d="M88.68,585.783c2.146,1.98,4.765,3.259,7.84,3.819c3.075,0.569,5.974,0.315,8.699-0.788
		c2.724-1.095,5.002-2.899,6.841-5.414c1.84-2.514,3.083-5.519,3.732-9.023l0.298-1.612c0.622-3.46,0.508-6.693-0.342-9.715
		c-0.85-3.013-2.339-5.492-4.485-7.446s-4.739-3.215-7.796-3.776c-3.075-0.569-5.974-0.315-8.699,0.788
		c-2.724,1.095-5.011,2.908-6.859,5.431c-1.857,2.523-3.101,5.519-3.74,9.005l-0.298,1.612c-0.613,3.434-0.508,6.657,0.333,9.653
		C85.036,581.316,86.525,583.803,88.68,585.783z M85.719,568.789l0.201-1.077c0.894-4.809,2.943-8.541,6.158-11.221
		c3.215-2.68,6.894-3.627,11.055-2.856c2.716,0.508,5.019,1.673,6.894,3.486c1.875,1.822,3.189,4.117,3.933,6.876
		c0.736,2.768,0.832,5.641,0.28,8.62l-0.193,1.042c-0.911,4.914-2.97,8.69-6.158,11.326c-3.189,2.637-6.868,3.565-11.02,2.794
		c-2.759-0.517-5.081-1.673-6.964-3.486c-1.883-1.813-3.189-4.091-3.916-6.841C85.246,574.711,85.158,571.82,85.719,568.789z"/>
	<g>
		<path class="st0" d="M124.201,594.052l6.43-34.61l9.627,1.787l0.342-1.813l-9.627-1.787l0.964-5.186
			c0.534-2.873,1.638-4.958,3.311-6.263s3.705-1.726,6.106-1.288c1.507,0.28,2.812,0.692,3.916,1.253l0.596-1.699
			c-1.148-0.604-2.54-1.06-4.205-1.375c-2.978-0.561-5.484-0.053-7.507,1.515c-2.024,1.559-3.355,4.021-4.003,7.393l-0.99,5.317
			l-6.325-1.174l-0.342,1.813l6.325,1.174l-6.43,34.61L124.201,594.052z"/>
	</g>
	<path class="st0" d="M142.185,577.295l27.304,5.072l0.35-1.918c0.876-4.713,0.289-8.76-1.752-12.132s-5.098-5.44-9.154-6.193
		c-2.786-0.517-5.501-0.21-8.147,0.929c-2.645,1.139-4.906,2.978-6.771,5.527c-1.866,2.558-3.11,5.519-3.74,8.883l-0.28,1.515
		c-0.622,3.364-0.499,6.561,0.377,9.574c0.876,3.022,2.4,5.554,4.564,7.586c2.164,2.041,4.713,3.329,7.656,3.881
		c5.343,0.99,9.732-0.228,13.184-3.644l-1.104-1.148c-1.638,1.445-3.399,2.418-5.265,2.917c-1.866,0.491-4.021,0.517-6.474,0.061
		c-2.558-0.482-4.8-1.638-6.728-3.478s-3.267-4.135-4.047-6.894c-0.771-2.751-0.894-5.606-0.342-8.558L142.185,577.295z
		 M148.842,566.222c2.961-2.181,6.211-2.935,9.758-2.278c2.269,0.42,4.205,1.393,5.817,2.908c1.603,1.524,2.742,3.434,3.39,5.746
		c0.648,2.313,0.745,4.704,0.289,7.174l-0.079,0.438l-25.386-4.722C143.814,571.487,145.881,568.404,148.842,566.222z"/>
	<g>
		<path class="st0" d="M201.839,580.86c0.596-3.189-0.131-5.939-2.155-8.252c-2.032-2.313-5.011-3.837-8.935-4.564
			c-3.609-0.675-6.71-0.35-9.285,0.955c-2.575,1.314-4.108,3.302-4.608,5.974c-0.491,2.646,0.009,4.897,1.498,6.736
			c1.489,1.848,4.415,3.67,8.769,5.475c7.244,2.996,10.459,6.701,9.636,11.125c-0.394,2.155-1.761,3.802-4.065,4.941
			c-2.313,1.139-5.098,1.402-8.357,0.797c-3.548-0.657-6.228-1.892-8.033-3.705c-1.813-1.813-2.567-4.012-2.269-6.605l-1.813-0.342
			c-0.543,2.917,0.272,5.536,2.426,7.858c2.155,2.313,5.273,3.854,9.364,4.608c3.811,0.71,7.06,0.403,9.75-0.902
			c2.689-1.314,4.292-3.399,4.818-6.272c0.35-1.857,0.245-3.513-0.298-4.949s-1.603-2.786-3.189-4.056
			c-1.577-1.27-3.802-2.523-6.684-3.784c-2.882-1.253-5.028-2.4-6.465-3.443s-2.409-2.102-2.935-3.154
			c-0.517-1.06-0.631-2.409-0.324-4.047c0.394-2.085,1.647-3.653,3.767-4.695s4.774-1.27,7.963-0.683
			c3.32,0.613,5.86,1.936,7.621,3.959s2.409,4.257,1.962,6.701L201.839,580.86z"/>
	</g>
	<g>
		<path class="st0" d="M234.426,586.931c0.596-3.189-0.131-5.939-2.155-8.252c-2.032-2.313-5.011-3.837-8.935-4.564
			c-3.609-0.675-6.71-0.35-9.285,0.955c-2.575,1.314-4.108,3.302-4.608,5.974c-0.491,2.646,0.009,4.897,1.498,6.736
			c1.489,1.848,4.415,3.67,8.769,5.475c7.244,2.996,10.459,6.701,9.636,11.125c-0.394,2.155-1.761,3.802-4.065,4.941
			c-2.313,1.139-5.098,1.402-8.357,0.797c-3.548-0.657-6.228-1.892-8.033-3.705c-1.813-1.813-2.567-4.012-2.269-6.605l-1.813-0.342
			c-0.543,2.917,0.272,5.536,2.426,7.858c2.155,2.313,5.273,3.854,9.364,4.608c3.811,0.71,7.06,0.403,9.75-0.902
			s4.292-3.399,4.818-6.272c0.324-1.892,0.228-3.548-0.315-4.976c-0.543-1.437-1.603-2.786-3.189-4.056s-3.802-2.523-6.684-3.784
			c-2.882-1.253-5.028-2.4-6.465-3.443c-1.437-1.042-2.409-2.102-2.935-3.154c-0.517-1.06-0.631-2.409-0.324-4.047
			c0.394-2.085,1.647-3.653,3.767-4.695s4.774-1.27,7.963-0.683c3.32,0.613,5.86,1.936,7.621,3.959
			c1.761,2.023,2.409,4.257,1.962,6.701L234.426,586.931z"/>
	</g>
	<g>
			<rect x="224.081" y="596.277" transform="matrix(0.1827 -0.9832 0.9832 0.1827 -388.8644 726.6223)" class="st0"  width="37.057" height="1.848"/>
	</g>
	<g>
		<path class="st0" d="M249.116,569.157c0.438-0.289,0.701-0.692,0.797-1.209c0.096-0.517-0.009-0.99-0.315-1.437
			c-0.307-0.447-0.71-0.71-1.226-0.806c-0.517-0.096-0.99,0.009-1.419,0.315c-0.429,0.307-0.683,0.718-0.788,1.226
			c-0.096,0.517,0,0.981,0.298,1.41c0.289,0.429,0.692,0.683,1.218,0.78C248.205,569.551,248.687,569.446,249.116,569.157z"/>
	</g>
	<path class="st0"  d="M278.146,586.606c-2.146-1.953-4.739-3.215-7.796-3.776c-3.075-0.569-5.974-0.315-8.699,0.788
		c-2.724,1.095-5.011,2.908-6.859,5.431c-1.857,2.523-3.101,5.519-3.74,9.005l-0.298,1.612c-0.613,3.434-0.508,6.657,0.333,9.653
		c0.832,2.996,2.33,5.484,4.476,7.472c2.146,1.98,4.765,3.259,7.84,3.819c3.075,0.569,5.974,0.315,8.699-0.788
		c2.724-1.095,5.002-2.9,6.841-5.414c1.84-2.514,3.083-5.519,3.732-9.023l0.298-1.612c0.622-3.46,0.508-6.693-0.342-9.715
		C281.781,591.039,280.283,588.56,278.146,586.606z M281.116,603.627l-0.193,1.042c-0.911,4.914-2.97,8.69-6.158,11.326
		c-3.189,2.637-6.868,3.565-11.02,2.794c-2.759-0.517-5.081-1.673-6.964-3.486c-1.883-1.813-3.189-4.091-3.916-6.841
		c-0.727-2.751-0.815-5.641-0.254-8.664l0.201-1.077c0.893-4.809,2.943-8.541,6.158-11.221s6.894-3.627,11.055-2.856
		c2.716,0.508,5.019,1.673,6.894,3.486c1.875,1.822,3.189,4.117,3.933,6.876C281.571,597.775,281.659,600.648,281.116,603.627z"/>
	<g>
		<path class="st0"  d="M311.022,628.759l1.813,0.342l4.415-23.774c0.815-4.476,0.473-7.989-1.025-10.556
			c-1.48-2.558-4.187-4.205-8.085-4.941c-2.812-0.517-5.519-0.175-8.138,1.034c-2.61,1.209-4.783,3.118-6.5,5.729l1.577-8.479
			l-1.813-0.342l-6.771,36.432l1.813,0.342l4.327-23.31c1.463-3.372,3.548-5.957,6.272-7.761c2.716-1.805,5.641-2.409,8.786-1.831
			c3.408,0.639,5.729,2.032,6.955,4.196c1.226,2.164,1.48,5.195,0.78,9.102L311.022,628.759z"/>
	</g>
	<path class="st0"  d="M348.777,627.033l3.232-17.406c0.596-3.583-0.079-6.561-2.023-8.961c-1.945-2.4-4.888-3.951-8.812-4.686
		c-3.767-0.701-7.148-0.263-10.135,1.323c-2.987,1.577-4.757,3.854-5.308,6.815l1.805,0.403c0.473-2.514,1.971-4.415,4.511-5.711
		c2.54-1.296,5.475-1.629,8.795-1.016c3.565,0.666,6.158,2.015,7.761,4.056s2.129,4.59,1.559,7.639l-0.99,5.317l-8.988-1.673
		c-5.019-0.885-9.215-0.604-12.605,0.85c-3.399,1.445-5.396,3.846-6.018,7.183c-0.543,2.935,0.035,5.519,1.752,7.726
		c1.717,2.208,4.257,3.627,7.621,4.257c3.145,0.587,6.079,0.473,8.812-0.35c2.733-0.815,5.028-2.26,6.894-4.327
		c-0.534,2.899-0.727,5.16-0.561,6.789l2.085,0.394l0.061-0.307C347.839,633.804,348.032,631.028,348.777,627.033z M340.481,630.686
		c-2.742,1.069-5.817,1.288-9.233,0.648c-2.716-0.508-4.809-1.691-6.307-3.574c-1.48-1.875-2.024-3.933-1.603-6.149
		c0.473-2.514,1.98-4.397,4.538-5.668c3.145-1.55,7.314-1.848,12.527-0.876l8.418,1.559l-1.603,8.646
		C345.474,627.813,343.232,629.617,340.481,630.686z"/>
	<g>

			<rect x="337.118" y="610.766" transform="matrix(0.1827 -0.9832 0.9832 0.1827 -304.3684 857.2431)" class="st0"  width="52.608" height="1.848"/>
	</g>
	<path class="st0"  d="M71.861,599.694l-3.802,20.472c-0.788-2.505-2.059-4.511-3.793-6.018c-1.743-1.515-3.889-2.505-6.438-2.978
		c-3.977-0.736-7.376,0.201-10.223,2.821c-2.847,2.619-4.774,6.631-5.773,12.045l-0.079,0.438c-1.007,5.44-0.666,9.916,1.034,13.455
		s4.52,5.668,8.436,6.395c2.549,0.473,4.932,0.368,7.13-0.315c2.199-0.683,4.056-1.875,5.562-3.591l-1.007,5.422l1.691,0.315
		l8.944-48.144L71.861,599.694z M64.476,639.446c-1.41,2.225-3.224,3.767-5.44,4.643s-4.73,1.051-7.525,0.526
		c-3.486-0.648-5.93-2.549-7.314-5.685c-1.384-3.145-1.629-7.113-0.736-11.922c0.99-5.326,2.707-9.189,5.142-11.563
		c2.435-2.383,5.396-3.241,8.865-2.602c5.746,1.06,9.066,4.634,9.942,10.696L64.476,639.446z"/>
	<path class="st0"  d="M90.099,617.152c-2.593-0.482-5.116-0.193-7.586,0.858c-2.47,1.06-4.564,2.768-6.307,5.151
		c-1.734,2.383-2.9,5.142-3.478,8.269l-0.263,1.41c-0.578,3.136-0.464,6.106,0.35,8.917c0.815,2.812,2.234,5.168,4.249,7.06
		s4.397,3.101,7.13,3.609c4.976,0.929,9.066-0.21,12.273-3.399l-1.034-1.069c-1.524,1.349-3.154,2.251-4.897,2.716
		c-1.734,0.464-3.749,0.482-6.027,0.061c-2.383-0.438-4.468-1.524-6.263-3.232c-1.787-1.717-3.048-3.854-3.767-6.412
		c-0.727-2.558-0.832-5.221-0.315-7.98l0.342-1.848l25.421,4.73l0.333-1.787c0.815-4.389,0.272-8.155-1.629-11.3
		C96.73,619.78,93.883,617.861,90.099,617.152z M98.622,633.594l-0.07,0.403L74.918,629.6c1.104-3.732,3.031-6.605,5.79-8.637
		c2.759-2.023,5.781-2.733,9.084-2.12c2.111,0.394,3.916,1.296,5.414,2.707c1.498,1.41,2.558,3.197,3.154,5.352
		C98.964,629.074,99.051,631.299,98.622,633.594z"/>
	<g>
		<polygon class="st0"  points="129.317,625.088 111.324,654.048 104.921,620.56 103.107,620.227 109.975,656.589 111.631,656.895
			131.13,625.43 		"/>
	</g>
	<path class="st0"  d="M146.284,627.594c-2.593-0.482-5.116-0.193-7.586,0.858c-2.47,1.051-4.564,2.768-6.307,5.151
		c-1.734,2.383-2.9,5.142-3.478,8.269l-0.263,1.41c-0.578,3.136-0.464,6.106,0.35,8.918c0.815,2.812,2.234,5.168,4.249,7.06
		c2.015,1.892,4.397,3.101,7.13,3.609c4.976,0.929,9.066-0.21,12.273-3.399l-1.034-1.06c-1.524,1.349-3.154,2.251-4.897,2.716
		c-1.734,0.464-3.749,0.482-6.027,0.061c-2.383-0.438-4.468-1.524-6.263-3.232c-1.787-1.717-3.048-3.854-3.767-6.412
		c-0.718-2.558-0.832-5.221-0.315-7.98l0.342-1.848l25.421,4.73l0.333-1.787c0.815-4.389,0.272-8.155-1.629-11.3
		C152.907,630.222,150.069,628.294,146.284,627.594z M154.808,644.027l-0.07,0.403l-23.634-4.397
		c1.104-3.732,3.031-6.605,5.79-8.637c2.759-2.023,5.781-2.733,9.084-2.12c2.111,0.394,3.916,1.296,5.414,2.707
		c1.498,1.41,2.558,3.197,3.154,5.352C155.141,639.507,155.237,641.732,154.808,644.027z"/>
	<g>

			<rect x="138.753" y="640.71" transform="matrix(0.1827 -0.9832 0.9832 0.1827 -497.3562 684.8571)" class="st0"  width="48.981" height="1.726"/>
	</g>
	<path class="st0"  d="M197.88,654.495c0.578-3.224,0.473-6.237-0.315-9.04c-0.788-2.812-2.181-5.116-4.178-6.938
		c-1.997-1.813-4.415-2.996-7.262-3.521c-2.864-0.526-5.562-0.289-8.103,0.727c-2.532,1.025-4.66,2.707-6.386,5.063
		s-2.891,5.142-3.486,8.383l-0.28,1.507c-0.569,3.197-0.473,6.193,0.315,8.988c0.78,2.794,2.172,5.107,4.17,6.955
		c2.006,1.848,4.441,3.031,7.306,3.565c2.864,0.526,5.562,0.289,8.103-0.727c2.532-1.025,4.66-2.698,6.368-5.046
		c1.708-2.339,2.864-5.142,3.478-8.401L197.88,654.495z M196.154,654.372l-0.184,0.972c-0.85,4.573-2.768,8.094-5.738,10.547
		s-6.395,3.32-10.267,2.602c-2.567-0.482-4.73-1.559-6.482-3.25s-2.97-3.811-3.644-6.368c-0.683-2.558-0.762-5.247-0.237-8.068
		l0.184-1.007c0.832-4.476,2.742-7.954,5.729-10.442c2.987-2.488,6.421-3.381,10.284-2.663c2.523,0.473,4.669,1.559,6.421,3.25
		c1.752,1.699,2.97,3.828,3.653,6.403C196.575,648.915,196.662,651.596,196.154,654.372z"/>
	<path class="st0"  d="M219.122,641.128c-2.523-0.473-4.897-0.315-7.095,0.464c-2.199,0.78-4.082,2.137-5.65,4.073l1.121-6.053
		l-1.691-0.315l-8.725,46.961l1.691,0.315l3.399-18.308c0.788,2.05,2.085,3.784,3.898,5.195c1.813,1.419,4.003,2.365,6.57,2.847
		c3.933,0.727,7.314-0.254,10.179-2.935c2.856-2.689,4.774-6.684,5.764-11.966l0.105-0.534c1.025-5.492,0.674-9.977-1.034-13.438
		C225.938,643.966,223.099,641.863,219.122,641.128z M226.989,660.426c-0.981,5.308-2.698,9.163-5.133,11.563
		c-2.435,2.4-5.387,3.276-8.856,2.637c-2.864-0.526-5.177-1.629-6.929-3.276c-1.761-1.656-2.856-3.732-3.302-6.237l2.943-15.855
		c1.393-2.602,3.215-4.441,5.475-5.554c2.26-1.104,4.809-1.393,7.647-0.858c3.486,0.648,5.939,2.523,7.367,5.633
		C227.637,651.569,227.891,655.555,226.989,660.426z"/>
	<g>
		<path class="st0"  d="M274.318,651.385c-2.803-0.517-5.466-0.263-7.989,0.771s-4.52,2.681-5.983,4.941
			c-0.035-2.943-0.841-5.221-2.418-6.806c-1.577-1.594-3.784-2.645-6.622-3.18c-2.593-0.482-5.098-0.166-7.507,0.937
			c-2.409,1.104-4.45,2.935-6.106,5.475l1.489-8.024l-1.726-0.315l-6.307,33.918l1.726,0.315l3.977-21.418
			c0.902-2.295,2.234-4.292,4.003-5.992c2.97-2.838,6.316-3.916,10.03-3.224c3.224,0.604,5.405,1.866,6.57,3.802
			s1.437,4.608,0.832,8.015l-4.231,22.767l1.691,0.315l4.187-22.548c0.447-1.708,1.533-3.364,3.259-4.967
			c3.005-2.768,6.561-3.802,10.687-3.101c3.206,0.552,5.396,1.857,6.552,3.924c1.165,2.059,1.393,4.949,0.71,8.672l-4.082,21.978
			l1.691,0.315l4.108-22.136c0.745-4.143,0.42-7.411-0.981-9.811C280.502,653.602,277.971,652.06,274.318,651.385z"/>
	</g>
	<path class="st0"  d="M303.83,656.86c-2.593-0.482-5.116-0.193-7.586,0.858c-2.47,1.06-4.564,2.768-6.307,5.151
		s-2.9,5.142-3.478,8.269l-0.263,1.41c-0.578,3.136-0.464,6.106,0.35,8.918c0.815,2.812,2.234,5.168,4.249,7.06
		c2.015,1.892,4.397,3.101,7.131,3.609c4.976,0.929,9.066-0.21,12.273-3.399l-1.034-1.069c-1.524,1.349-3.154,2.251-4.897,2.716
		c-1.734,0.464-3.749,0.482-6.027,0.061c-2.383-0.438-4.468-1.524-6.263-3.232c-1.787-1.717-3.048-3.854-3.767-6.412
		c-0.727-2.558-0.832-5.221-0.315-7.98l0.342-1.848l25.421,4.73l0.333-1.787c0.815-4.389,0.272-8.155-1.629-11.3
		C310.452,659.488,307.614,657.57,303.83,656.86z M312.362,673.302l-0.07,0.403l-23.634-4.397c1.104-3.732,3.031-6.605,5.79-8.637
		c2.759-2.023,5.781-2.733,9.084-2.12c2.111,0.394,3.916,1.296,5.414,2.707c1.498,1.41,2.549,3.197,3.154,5.352
		C312.695,668.774,312.782,670.999,312.362,673.302z"/>
	<g>
		<path class="st0"  d="M335.137,662.686c-2.61-0.482-5.142-0.166-7.568,0.964c-2.435,1.13-4.45,2.899-6.053,5.326l1.472-7.893
			l-1.691-0.315l-6.307,33.918l1.691,0.315l4.03-21.698c1.358-3.145,3.311-5.545,5.834-7.227s5.256-2.251,8.182-1.699
			c3.18,0.596,5.335,1.892,6.474,3.907c1.139,2.015,1.384,4.844,0.727,8.479l-4.117,22.171l1.691,0.315l4.108-22.136
			c0.753-4.161,0.438-7.437-0.946-9.82C341.278,664.884,338.773,663.36,335.137,662.686z"/>
	</g>
	<g>
		<path class="st0"  d="M358.71,658.236l-1.726-0.315l-1.699,9.154l-6.272-1.165l-0.315,1.691l6.272,1.165l-4.52,24.317
			c-0.526,2.952-0.385,5.212,0.429,6.78c0.815,1.568,2.444,2.584,4.914,3.04c1.673,0.315,2.873,0.403,3.609,0.28l0.018-1.647
			c-1.358-0.061-2.488-0.175-3.408-0.342c-1.84-0.342-3.04-1.156-3.609-2.453c-0.569-1.296-0.631-3.145-0.184-5.554l4.476-24.098
			l7.709,1.437l0.315-1.691l-7.709-1.437L358.71,658.236z"/>
	</g>
	<g>

			<rect x="70.447" y="304.143" transform="matrix(0.9941 -0.1084 0.1084 0.9941 -36.1549 9.7517)" class="st0"  width="2.34" height="66.56"/>
	</g>
	<path class="st0"  d="M100.19,319.76c-3.56,0.39-6.74,1.75-9.54,4.09c-2.79,2.34-4.86,5.4-6.19,9.17c-1.33,3.78-1.76,7.82-1.3,12.13
		l0.21,1.94c0.47,4.3,1.78,8.13,3.95,11.47c2.16,3.34,4.93,5.85,8.3,7.53c3.36,1.69,6.93,2.32,10.69,1.91
		c6.83-0.74,11.72-3.82,14.64-9.22l-1.76-0.98c-1.46,2.35-3.23,4.17-5.31,5.45c-2.08,1.28-4.69,2.09-7.82,2.43
		c-3.27,0.36-6.41-0.23-9.41-1.76s-5.47-3.82-7.42-6.87c-1.94-3.05-3.12-6.47-3.54-10.25l-0.27-2.54l34.94-3.81L120.1,338
		c-0.66-6.03-2.84-10.72-6.54-14.06C109.84,320.58,105.38,319.19,100.19,319.76z M117.72,337.81l0.06,0.56l-32.48,3.54
		c-0.02-5.29,1.36-9.79,4.15-13.51s6.45-5.83,10.99-6.32c2.9-0.31,5.6,0.15,8.11,1.4c2.5,1.26,4.57,3.16,6.21,5.73
		C116.39,331.79,117.37,334.65,117.72,337.81z"/>
	<path class="st0"  d="M128.17,330.57c-0.35-3.21,0.78-6.07,3.38-8.56c2.6-2.5,6.03-3.97,10.29-4.44c4.57-0.5,8.2,0.2,10.88,2.08
		c2.69,1.88,4.25,4.78,4.68,8.68l0.74,6.81l-11.5,1.26c-6.4,0.75-11.39,2.63-14.97,5.62s-5.14,6.63-4.68,10.91
		c0.41,3.76,2.06,6.67,4.94,8.73s6.48,2.84,10.78,2.38c4.02-0.44,7.54-1.65,10.54-3.64c3-1.99,5.27-4.57,6.78-7.76
		c0.4,3.7,1,6.52,1.79,8.44l2.67-0.29l-0.04-0.39c-1.01-1.75-1.78-5.18-2.35-10.3l-2.43-22.27c-0.59-4.55-2.5-7.93-5.73-10.12
		s-7.36-3.01-12.39-2.46c-4.83,0.53-8.76,2.29-11.8,5.3c-3.04,3.01-4.35,6.4-3.94,10.2L128.17,330.57z M159.6,348.55
		c-1.2,3.7-3.26,6.7-6.19,9s-6.58,3.69-10.95,4.16c-3.48,0.38-6.45-0.3-8.94-2.03c-2.49-1.74-3.88-4.02-4.19-6.87
		c-0.35-3.21,0.79-6.06,3.43-8.53c3.25-3.02,8.2-4.9,14.86-5.63l10.77-1.17L159.6,348.55z"/>
	<g>
		<path class="st0"  d="M188.69,312.46l3.04-0.07l0.03-2.13c-0.87-0.23-1.97-0.27-3.33-0.12c-3.82,0.41-6.89,1.71-9.21,3.88
			s-3.93,4.95-4.84,8.33l-1.06-9.69l-2.33,0.26l5.08,46.61l2.33-0.26l-3.33-30.51c0.33-4.71,1.69-8.49,4.08-11.35
			C181.55,314.54,184.73,312.89,188.69,312.46z"/>
	</g>
	<g>
		<path class="st0"  d="M217.2,309.36c4.36-0.48,7.68,0.37,9.96,2.55c2.27,2.17,3.69,5.76,4.26,10.75l3.32,30.47l2.33-0.26
			l-3.31-30.42c-0.65-5.71-2.35-9.85-5.08-12.41s-6.6-3.58-11.6-3.03c-3.59,0.39-6.75,1.79-9.48,4.21c-2.73,2.42-4.66,5.52-5.78,9.3
			l-1.18-10.86l-2.33,0.26l5.08,46.61l2.33-0.26l-3.25-29.83c0.55-4.62,2.13-8.51,4.76-11.69
			C209.85,311.6,213.18,309.79,217.2,309.36z"/>
	</g>
	<g>

			<rect x="247.474" y="304.574" transform="matrix(0.9941 -0.1084 0.1084 0.9941 -34.0918 28.8861)" class="st0"  width="2.34" height="46.88"/>
	</g>
	<g>
		<path class="st0"  d="M246.04,288.28c-0.53-0.42-1.12-0.59-1.78-0.53c-0.66,0.07-1.2,0.37-1.6,0.89c-0.4,0.52-0.58,1.12-0.5,1.78
			c0.07,0.66,0.36,1.2,0.88,1.6c0.51,0.41,1.09,0.58,1.75,0.5c0.66-0.07,1.21-0.36,1.63-0.88c0.42-0.52,0.6-1.1,0.53-1.76
			C246.86,289.24,246.56,288.7,246.04,288.28z"/>
	</g>
	<g>
		<path class="st0"  d="M263.87,313.77l-1.18-10.86l-2.33,0.26l5.08,46.61l2.33-0.26l-3.25-29.83c0.55-4.62,2.13-8.51,4.76-11.69
			c2.64-3.17,5.96-4.98,9.98-5.42c4.36-0.48,7.68,0.37,9.96,2.55c2.27,2.17,3.69,5.76,4.26,10.75l3.32,30.47l2.33-0.26l-3.31-30.42
			c-0.65-5.71-2.35-9.85-5.08-12.41s-6.6-3.58-11.6-3.03c-3.59,0.39-6.75,1.79-9.48,4.21C266.93,306.88,265,309.98,263.87,313.77z"
			/>
	</g>
	<path class="st0"  d="M306.81,321.82c0.82,7.47,3.02,13.17,6.62,17.1c3.59,3.94,8.1,5.61,13.49,5.02c3.48-0.38,6.5-1.43,9.1-3.15
		c2.59-1.72,4.54-3.99,5.86-6.81l0.78,7.14c0.5,5.31-0.44,9.57-2.79,12.77c-2.35,3.2-5.93,5.07-10.73,5.59
		c-2.9,0.31-5.49-0.02-7.78-1s-4.46-2.52-6.52-4.62l-1.47,1.74c2.12,2.33,4.54,4.03,7.29,5.11c2.74,1.07,5.68,1.44,8.82,1.09
		c5.43-0.59,9.54-2.79,12.31-6.59c2.78-3.81,3.83-8.78,3.16-14.92l-4.98-45.79l-2.37,0.26l0.93,8.53c-1.97-2.89-4.4-4.99-7.27-6.29
		c-2.88-1.3-6.05-1.76-9.52-1.38c-5.45,0.59-9.52,3.15-12.2,7.67c-2.68,4.52-3.61,10.5-2.79,17.94L306.81,321.82z M311.38,304.8
		c2.25-4.05,5.77-6.34,10.56-6.86c8.01-0.88,13.72,2.59,17.13,10.38l2.31,21.15c-0.78,3.43-2.46,6.21-5.02,8.33s-5.81,3.4-9.74,3.83
		c-4.77,0.52-8.68-0.98-11.73-4.49c-3.05-3.51-4.95-8.61-5.68-15.27C308.41,314.54,309.13,308.85,311.38,304.8z"/>
	<g>
		<path class="st0"  d="M96.58,446.1c-4.54,0.5-8.24-0.02-11.09-1.56c-2.86-1.54-4.58-3.92-5.16-7.17L78,437.63
			c0.4,3.73,2.34,6.61,5.8,8.63c3.46,2.02,7.8,2.74,13.03,2.17c4.88-0.53,8.71-2.08,11.48-4.65s3.96-5.69,3.55-9.37
			c-0.26-2.38-0.98-4.35-2.16-5.89c-1.18-1.55-2.97-2.79-5.34-3.76c-2.37-0.96-5.53-1.68-9.48-2.15s-6.97-1.07-9.09-1.82
			s-3.69-1.66-4.7-2.76c-1.02-1.09-1.64-2.69-1.88-4.78c-0.29-2.67,0.66-5.02,2.85-7.06c2.19-2.04,5.32-3.28,9.4-3.73
			c4.25-0.46,7.81,0.21,10.68,2.02s4.48,4.28,4.82,7.41l2.37-0.26c-0.45-4.07-2.32-7.15-5.63-9.21s-7.47-2.83-12.49-2.28
			c-4.63,0.5-8.25,2.02-10.91,4.54c-2.64,2.53-3.78,5.49-3.41,8.92c0.37,3.39,1.79,5.93,4.27,7.62c2.48,1.69,6.68,2.84,12.63,3.44
			c9.87,0.99,15.11,4.31,15.73,9.96c0.3,2.76-0.74,5.25-3.13,7.47C104.02,444.31,100.74,445.65,96.58,446.1z"/>
	</g>
	<path class="st0"  d="M118.57,398.02l7.03,64.53l2.33-0.26l-2.74-25.16c1.83,2.35,4.2,4.11,7.11,5.24c2.92,1.13,6.14,1.51,9.67,1.12
		c5.4-0.59,9.43-3.19,12.1-7.82c2.66-4.62,3.6-10.56,2.81-17.83l-0.08-0.74c-0.83-7.55-3.02-13.25-6.61-17.09
		c-3.59-3.83-8.11-5.46-13.57-4.87c-3.48,0.38-6.49,1.5-9.05,3.38s-4.48,4.38-5.76,7.52l-0.91-8.31L118.57,398.02z M127.29,401.63
		c2.5-2.32,5.72-3.69,9.62-4.12c4.79-0.52,8.73,0.96,11.8,4.45c3.07,3.49,4.97,8.58,5.69,15.27c0.79,7.3,0.07,12.98-2.15,17.06
		c-2.23,4.08-5.73,6.38-10.49,6.9c-3.93,0.43-7.37-0.09-10.3-1.56c-2.93-1.47-5.18-3.74-6.73-6.83l-2.38-21.8
		C123.13,407.07,124.79,403.95,127.29,401.63z"/>
	<path class="st0"  d="M169.77,417.27c-3.59,2.99-5.14,6.63-4.68,10.91c0.41,3.76,2.06,6.67,4.94,8.73s6.48,2.84,10.78,2.38
		c4.02-0.44,7.54-1.65,10.54-3.64c3.01-1.98,5.27-4.57,6.78-7.76c0.4,3.7,1,6.52,1.79,8.44l2.67-0.29l-0.04-0.39
		c-1.01-1.75-1.78-5.18-2.35-10.3l-2.43-22.27c-0.59-4.55-2.5-7.93-5.73-10.12s-7.36-3.01-12.39-2.46c-4.83,0.53-8.76,2.29-11.8,5.3
		c-3.04,3.01-4.35,6.4-3.94,10.2l2.34-0.17c-0.35-3.21,0.78-6.07,3.38-8.56c2.6-2.5,6.03-3.97,10.29-4.44
		c4.57-0.5,8.2,0.2,10.88,2.08c2.69,1.88,4.25,4.78,4.68,8.68l0.74,6.81l-11.5,1.26C178.34,412.4,173.35,414.28,169.77,417.27z
		 M196.49,412.72l1.21,11.07c-1.2,3.7-3.26,6.7-6.19,9s-6.58,3.69-10.95,4.16c-3.48,0.38-6.45-0.3-8.94-2.03
		c-2.49-1.74-3.88-4.02-4.19-6.87c-0.35-3.21,0.79-6.06,3.43-8.53c3.25-3.02,8.2-4.9,14.86-5.63L196.49,412.72z"/>
	<g>
		<path class="st0"  d="M230.09,433.91c4.79-0.52,8.67-2.33,11.62-5.43s4.29-6.91,4.02-11.44l-2.33,0.26
			c0.17,3.99-0.99,7.25-3.49,9.8c-2.5,2.54-5.86,4.04-10.08,4.49c-5.2,0.57-9.49-0.85-12.87-4.24c-3.38-3.4-5.42-8.35-6.13-14.87
			l-0.17-1.5c-0.73-6.66,0.18-12.03,2.71-16.1c2.54-4.07,6.4-6.39,11.6-6.95c4.34-0.47,8.01,0.41,11.03,2.65s4.86,5.45,5.52,9.62
			l2.33-0.26c-0.74-4.89-2.88-8.63-6.41-11.25c-3.54-2.61-7.78-3.64-12.72-3.11c-5.78,0.63-10.15,3.24-13.11,7.84
			c-2.97,4.59-4.07,10.43-3.31,17.49l0.17,1.55c0.78,7.24,3.13,12.78,7.02,16.62C219.39,432.93,224.26,434.54,230.09,433.91z"/>
	</g>
	<path class="st0"  d="M273.59,429.17c6.83-0.74,11.72-3.82,14.64-9.22l-1.76-0.98c-1.46,2.35-3.23,4.17-5.31,5.45
		s-4.69,2.09-7.82,2.43c-3.27,0.36-6.41-0.23-9.41-1.76s-5.47-3.82-7.42-6.87c-1.94-3.05-3.12-6.47-3.54-10.25l-0.27-2.54
		l34.94-3.81l-0.26-2.45c-0.66-6.03-2.84-10.72-6.54-14.06c-3.71-3.35-8.16-4.73-13.36-4.16c-3.56,0.39-6.74,1.75-9.54,4.09
		c-2.79,2.34-4.86,5.4-6.19,9.17c-1.33,3.78-1.76,7.82-1.3,12.13l0.21,1.94c0.47,4.3,1.78,8.13,3.95,11.47
		c2.16,3.34,4.93,5.85,8.3,7.53C266.26,428.93,269.82,429.57,273.59,429.17z M256.72,389.57c2.79-3.72,6.45-5.83,10.99-6.32
		c2.9-0.31,5.6,0.15,8.11,1.4c2.5,1.26,4.57,3.16,6.21,5.73c1.63,2.57,2.62,5.43,2.97,8.59l0.06,0.56l-32.48,3.54
		C252.54,397.79,253.92,393.29,256.72,389.57z"/>
	<g>
		<path class="st0"  d="M328.81,410.76c-0.26-2.38-0.98-4.35-2.16-5.89s-2.97-2.79-5.34-3.76s-5.53-1.68-9.48-2.15
			s-6.97-1.07-9.09-1.82c-2.12-0.74-3.69-1.66-4.7-2.76c-1.02-1.09-1.64-2.69-1.88-4.78c-0.29-2.67,0.66-5.02,2.85-7.06
			s5.32-3.28,9.4-3.73c4.25-0.46,7.81,0.21,10.68,2.02s4.48,4.28,4.82,7.41l2.37-0.26c-0.45-4.07-2.32-7.15-5.63-9.21
			s-7.47-2.83-12.49-2.28c-4.63,0.5-8.25,2.02-10.91,4.54c-2.64,2.53-3.78,5.49-3.41,8.92c0.37,3.39,1.79,5.93,4.27,7.62
			s6.68,2.84,12.63,3.44c9.87,0.99,15.11,4.31,15.73,9.96c0.3,2.76-0.74,5.25-3.13,7.47s-5.67,3.56-9.82,4.02
			c-4.54,0.5-8.24-0.02-11.09-1.56c-2.86-1.54-4.58-3.92-5.16-7.17l-2.33,0.26c0.4,3.73,2.34,6.61,5.8,8.63
			c3.46,2.02,7.8,2.74,13.03,2.17c4.88-0.53,8.71-2.08,11.48-4.65C328.03,417.56,329.21,414.44,328.81,410.76z"/>
	</g>
	<path class="st0"  d="M63.48,285.9c9.27-0.83,17.41-3.46,24.42-7.89c7.02-4.43,12.33-10.28,15.96-17.54
		c0.76,8.54,2.01,15.04,3.74,19.49l6.16-0.55l-0.08-0.89c-2.23-4.07-3.88-12-4.93-23.79l-4.59-51.35
		c-1.13-10.51-5.37-18.36-12.71-23.55c-7.34-5.18-16.8-7.25-28.39-6.22c-11.12,0.99-20.25,4.88-27.39,11.66s-10.31,14.54-9.54,23.28
		l5.38-0.28c-0.66-7.41,2.06-13.93,8.16-19.55c6.11-5.62,14.06-8.87,23.85-9.74c10.53-0.94,18.85,0.82,24.95,5.28
		c6.11,4.46,9.56,11.2,10.37,20.19l1.4,15.69l-26.52,2.37c-14.76,1.45-26.32,5.54-34.7,12.26c-8.38,6.73-12.12,15.01-11.24,24.88
		c0.78,8.68,4.44,15.44,10.97,20.29C45.31,284.8,53.54,286.78,63.48,285.9z M33.18,259.47c-0.66-7.41,2.09-13.91,8.27-19.46
		c7.6-6.82,19.08-10.92,34.44-12.29l24.83-2.22l2.28,25.52c-2.92,8.47-7.79,15.28-14.64,20.43s-15.3,8.18-25.37,9.07
		c-8.01,0.72-14.84-0.98-20.48-5.07C36.88,271.35,33.76,266.03,33.18,259.47z"/>
	<g>
		<path class="st0"  d="M128.33,225.43c1.5,16.68,6.63,29.54,15.41,38.57c8.78,9.02,19.9,12.94,33.34,11.73
			c11.06-0.99,20.05-4.98,26.96-11.97s10.17-15.71,9.77-26.15l-5.36,0.48c0.22,9.19-2.6,16.65-8.46,22.38
			c-5.86,5.73-13.66,9.03-23.39,9.9c-11.99,1.07-21.79-2.37-29.41-10.34s-12.1-19.46-13.44-34.49l-0.31-3.48
			c-1.37-15.36,0.94-27.66,6.97-36.92c6.02-9.25,15.01-14.41,27-15.48c10-0.89,18.42,1.31,25.27,6.6
			c6.85,5.3,10.93,12.76,12.26,22.38l5.36-0.48c-1.48-11.28-6.23-20-14.25-26.16s-17.73-8.73-29.13-7.71
			c-13.31,1.19-23.48,7.01-30.53,17.44c-7.04,10.44-9.83,23.81-8.38,40.1L128.33,225.43z"/>
	</g>
	<g>
		<path class="st0"  d="M216.12,167.33l19.86-1.78l6.89,77.05c0.9,9.34,3.24,16.03,7,20.07c3.77,4.04,9.55,5.71,17.37,5.01
			c5.3-0.47,9.01-1.21,11.11-2.2L277,260.5c-4.11,0.97-7.63,1.59-10.55,1.84c-5.83,0.52-10.15-0.93-12.96-4.35
			s-4.55-8.95-5.24-16.57l-6.83-76.36l24.43-2.18l-0.48-5.36l-24.43,2.18l-2.59-29l-5.46,0.49l2.59,29l-19.86,1.78L216.12,167.33z"
			/>
	</g>
	<g>
		<path class="st0"  d="M289.69,127c1.52-0.13,2.78-0.78,3.78-1.94s1.43-2.5,1.29-4.02c-0.13-1.52-0.8-2.78-1.99-3.78
			c-1.19-0.99-2.54-1.42-4.07-1.29c-1.52,0.13-2.77,0.8-3.73,1.98c-0.96,1.19-1.37,2.54-1.24,4.07c0.15,1.54,0.79,2.78,1.94,3.74
			C286.83,126.73,288.17,127.14,289.69,127z"/>
	</g>
	<g>
			<rect x="294.29" y="154.88" transform="matrix(0.996 -0.0891 0.0891 0.996 -17.4252 27.2925)" class="st0"  width="5.39" height="107.884"/>
	</g>
	<g>
		<polygon class="st0"  points="368.84,256.59 401.04,145.38 395.28,145.9 365.49,248.28 318,152.81 312.24,153.32 363.57,257.06
			"/>
	</g>
	<path class="st0"  d="M495.63,227.03c-3.46,5.35-7.62,9.45-12.47,12.3s-10.88,4.6-18.1,5.25c-7.55,0.68-14.74-0.81-21.57-4.47
		c-6.83-3.65-12.42-9.03-16.77-16.14c-4.34-7.11-6.9-15.02-7.68-23.75l-0.52-5.85l80.55-7.21l-0.5-5.66
		c-1.24-13.91-6.06-24.79-14.44-32.65s-18.56-11.25-30.55-10.19c-8.21,0.74-15.58,3.73-22.12,8.99
		c-6.54,5.26-11.43,12.2-14.66,20.83s-4.4,17.91-3.52,27.85l0.4,4.47c0.88,9.93,3.75,18.79,8.59,26.56
		c4.83,7.78,11.08,13.67,18.76,17.7c7.67,4.02,15.84,5.64,24.52,4.87c15.76-1.41,27.13-8.26,34.1-20.57L495.63,227.03z
		 M428.49,158.1c6.59-8.43,15.11-13.11,25.57-14.05c6.68-0.59,12.88,0.6,18.59,3.59c5.71,2.99,10.38,7.48,14.02,13.46
		c3.64,5.98,5.78,12.62,6.44,19.9l0.12,1.29l-74.89,6.69C418.52,176.83,421.9,166.53,428.49,158.1z"/>
</g>
</svg>
