<svg version="1.1" xmlns="http://www.w3.org/2000/svg" xmlns:xlink="http://www.w3.org/1999/xlink" x="0px" y="0px"
	 viewBox="0 0 300 143.119">
<g>
	<path d="M76.511,58.539v0.724h-0.514v-2.133h0.851c0.163,0,0.307,0.03,0.433,0.09c0.125,0.061,0.223,0.146,0.291,0.257
		c0.069,0.111,0.104,0.236,0.104,0.377c0,0.208-0.075,0.374-0.224,0.499c-0.149,0.124-0.353,0.187-0.613,0.187H76.511z
		 M76.511,58.142h0.337c0.1,0,0.175-0.025,0.228-0.075c0.052-0.05,0.078-0.12,0.078-0.211c0-0.1-0.027-0.179-0.081-0.239
		s-0.127-0.09-0.22-0.091h-0.343V58.142z"/>
	<path d="M78.886,58.124l-0.163-0.012c-0.155,0-0.255,0.049-0.299,0.146v1.003h-0.494v-1.585h0.463l0.016,0.204
		c0.083-0.155,0.199-0.233,0.347-0.233c0.053,0,0.099,0.006,0.138,0.018L78.886,58.124z"/>
	<path d="M78.949,58.455c0-0.158,0.031-0.299,0.092-0.422s0.15-0.219,0.265-0.285s0.25-0.1,0.406-0.1
		c0.237,0,0.424,0.074,0.561,0.221s0.205,0.347,0.205,0.6v0.018c0,0.247-0.069,0.443-0.206,0.588
		c-0.137,0.146-0.323,0.218-0.557,0.218c-0.226,0-0.407-0.067-0.543-0.203c-0.137-0.135-0.21-0.318-0.221-0.55L78.949,58.455z
		 M79.442,58.486c0,0.146,0.023,0.254,0.069,0.322s0.114,0.103,0.204,0.103c0.176,0,0.266-0.135,0.27-0.406v-0.05
		c0-0.284-0.091-0.426-0.272-0.426c-0.165,0-0.254,0.123-0.268,0.368L79.442,58.486z"/>
	<path d="M80.805,59.262V58.02h-0.23v-0.343h0.23v-0.126c0-0.181,0.053-0.321,0.16-0.42s0.256-0.149,0.448-0.149
		c0.07,0,0.147,0.01,0.231,0.031l0.001,0.363c-0.03-0.009-0.071-0.013-0.122-0.013c-0.149,0-0.224,0.064-0.224,0.193v0.122h0.309
		v0.343H81.3v1.242H80.805z"/>
	<path d="M82.549,59.292c-0.243,0-0.44-0.072-0.59-0.218c-0.15-0.145-0.226-0.333-0.226-0.566v-0.041c0-0.162,0.03-0.305,0.09-0.429
		c0.06-0.124,0.147-0.22,0.263-0.288c0.115-0.067,0.252-0.102,0.41-0.102c0.223,0,0.398,0.069,0.527,0.207
		c0.129,0.139,0.193,0.331,0.193,0.578v0.192h-0.981c0.018,0.089,0.056,0.159,0.116,0.209s0.137,0.076,0.231,0.076
		c0.156,0,0.278-0.055,0.366-0.164l0.226,0.267c-0.062,0.085-0.149,0.153-0.261,0.203C82.8,59.266,82.679,59.292,82.549,59.292z
		 M82.494,58.029c-0.145,0-0.23,0.096-0.258,0.287h0.498v-0.038c0.002-0.079-0.018-0.14-0.06-0.184S82.572,58.029,82.494,58.029z"/>
	<path d="M84.246,58.817c0-0.042-0.022-0.076-0.066-0.101s-0.127-0.052-0.25-0.079s-0.225-0.063-0.305-0.108
		c-0.08-0.044-0.141-0.098-0.183-0.162s-0.063-0.136-0.063-0.218c0-0.146,0.06-0.265,0.18-0.359s0.277-0.142,0.472-0.142
		c0.209,0,0.377,0.047,0.504,0.142s0.19,0.219,0.19,0.374h-0.495c0-0.127-0.067-0.19-0.201-0.19c-0.052,0-0.095,0.015-0.13,0.043
		c-0.035,0.029-0.053,0.065-0.053,0.108c0,0.044,0.021,0.08,0.064,0.107s0.111,0.05,0.206,0.067
		c0.094,0.018,0.177,0.039,0.248,0.063c0.238,0.082,0.357,0.229,0.357,0.441c0,0.145-0.064,0.262-0.192,0.353
		c-0.129,0.091-0.295,0.136-0.499,0.136c-0.136,0-0.257-0.024-0.363-0.073s-0.189-0.115-0.249-0.199s-0.089-0.172-0.089-0.265h0.461
		c0.002,0.073,0.026,0.126,0.073,0.161c0.047,0.033,0.107,0.05,0.18,0.05c0.067,0,0.118-0.014,0.152-0.041
		C84.229,58.896,84.246,58.861,84.246,58.817z"/>
	<path d="M85.782,58.817c0-0.042-0.022-0.076-0.066-0.101s-0.127-0.052-0.25-0.079s-0.225-0.063-0.305-0.108
		c-0.08-0.044-0.141-0.098-0.183-0.162s-0.063-0.136-0.063-0.218c0-0.146,0.06-0.265,0.18-0.359s0.277-0.142,0.472-0.142
		c0.209,0,0.377,0.047,0.504,0.142s0.19,0.219,0.19,0.374h-0.495c0-0.127-0.067-0.19-0.201-0.19c-0.052,0-0.095,0.015-0.13,0.043
		c-0.035,0.029-0.053,0.065-0.053,0.108c0,0.044,0.021,0.08,0.064,0.107s0.111,0.05,0.206,0.067
		c0.094,0.018,0.177,0.039,0.248,0.063c0.238,0.082,0.357,0.229,0.357,0.441c0,0.145-0.064,0.262-0.192,0.353
		c-0.129,0.091-0.295,0.136-0.499,0.136c-0.136,0-0.257-0.024-0.363-0.073s-0.189-0.115-0.249-0.199s-0.089-0.172-0.089-0.265h0.461
		c0.002,0.073,0.026,0.126,0.073,0.161c0.047,0.033,0.107,0.05,0.18,0.05c0.067,0,0.118-0.014,0.152-0.041
		C85.765,58.896,85.782,58.861,85.782,58.817z"/>
	<path d="M86.485,57.269c0-0.07,0.025-0.128,0.076-0.173s0.117-0.067,0.198-0.067s0.147,0.022,0.198,0.067s0.076,0.103,0.076,0.173
		s-0.025,0.128-0.076,0.173s-0.117,0.067-0.198,0.067s-0.147-0.022-0.198-0.067S86.485,57.339,86.485,57.269z M87.01,59.262h-0.495
		v-1.585h0.495V59.262z"/>
	<path d="M87.251,58.455c0-0.158,0.031-0.299,0.092-0.422s0.15-0.219,0.265-0.285s0.25-0.1,0.406-0.1
		c0.237,0,0.424,0.074,0.561,0.221s0.205,0.347,0.205,0.6v0.018c0,0.247-0.069,0.443-0.206,0.588
		c-0.137,0.146-0.323,0.218-0.557,0.218c-0.226,0-0.407-0.067-0.543-0.203c-0.137-0.135-0.21-0.318-0.221-0.55L87.251,58.455z
		 M87.745,58.486c0,0.146,0.023,0.254,0.069,0.322s0.114,0.103,0.204,0.103c0.176,0,0.266-0.135,0.27-0.406v-0.05
		c0-0.284-0.091-0.426-0.272-0.426c-0.165,0-0.254,0.123-0.268,0.368L87.745,58.486z"/>
	<path d="M89.452,57.677l0.016,0.186c0.109-0.144,0.26-0.215,0.453-0.215c0.165,0,0.288,0.049,0.37,0.148
		c0.081,0.099,0.124,0.247,0.126,0.445v1.021h-0.495v-1c0-0.08-0.016-0.139-0.048-0.176s-0.091-0.057-0.176-0.057
		c-0.097,0-0.168,0.038-0.215,0.114v1.119h-0.494v-1.585H89.452z"/>
	<path d="M91.583,59.262c-0.018-0.032-0.033-0.08-0.047-0.142c-0.091,0.114-0.218,0.171-0.381,0.171
		c-0.149,0-0.276-0.045-0.381-0.136c-0.104-0.09-0.157-0.204-0.157-0.34c0-0.172,0.063-0.302,0.19-0.39s0.312-0.132,0.554-0.132
		h0.152V58.21c0-0.146-0.063-0.219-0.189-0.219c-0.117,0-0.176,0.058-0.176,0.174h-0.494c0-0.153,0.065-0.278,0.196-0.373
		c0.13-0.096,0.296-0.144,0.499-0.144s0.362,0.049,0.479,0.148s0.177,0.234,0.18,0.406v0.702c0.002,0.146,0.024,0.257,0.067,0.334
		v0.025H91.583z M91.274,58.94c0.062,0,0.112-0.013,0.153-0.04s0.07-0.056,0.087-0.089v-0.253h-0.144
		c-0.172,0-0.258,0.077-0.258,0.231c0,0.045,0.015,0.082,0.045,0.109C91.188,58.926,91.227,58.94,91.274,58.94z"/>
	<path d="M92.803,59.262h-0.495v-2.25h0.495V59.262z"/>
	<path d="M75.997,64.862v-2.133h0.687c0.188,0,0.358,0.043,0.508,0.128c0.15,0.086,0.268,0.207,0.353,0.362
		c0.084,0.156,0.127,0.33,0.128,0.523v0.098c0,0.195-0.042,0.371-0.124,0.525c-0.083,0.155-0.199,0.276-0.349,0.363
		c-0.15,0.088-0.317,0.132-0.501,0.133H75.997z M76.511,63.126v1.34h0.179c0.147,0,0.261-0.052,0.34-0.157s0.119-0.261,0.119-0.468
		v-0.092c0-0.206-0.04-0.361-0.119-0.466s-0.194-0.157-0.346-0.157H76.511z"/>
	<path d="M78.681,64.892c-0.243,0-0.44-0.072-0.59-0.218c-0.15-0.145-0.226-0.333-0.226-0.566v-0.041c0-0.162,0.03-0.305,0.09-0.429
		c0.06-0.124,0.147-0.22,0.263-0.288c0.115-0.067,0.252-0.102,0.41-0.102c0.223,0,0.398,0.069,0.527,0.207
		c0.129,0.139,0.193,0.331,0.193,0.578v0.192h-0.981c0.018,0.089,0.056,0.159,0.116,0.209s0.137,0.076,0.231,0.076
		c0.156,0,0.278-0.055,0.366-0.164l0.226,0.267c-0.062,0.085-0.149,0.153-0.261,0.203C78.932,64.866,78.811,64.892,78.681,64.892z
		 M78.625,63.629c-0.145,0-0.23,0.096-0.258,0.287h0.498v-0.038c0.002-0.079-0.018-0.14-0.06-0.184S78.703,63.629,78.625,63.629z"/>
	<path d="M80.16,64.275l0.25-0.998h0.52l-0.517,1.585H79.91l-0.517-1.585h0.521L80.16,64.275z"/>
	<path d="M81.845,64.892c-0.243,0-0.44-0.072-0.59-0.218c-0.15-0.145-0.226-0.333-0.226-0.566v-0.041c0-0.162,0.03-0.305,0.09-0.429
		c0.06-0.124,0.147-0.22,0.263-0.288c0.115-0.067,0.252-0.102,0.41-0.102c0.223,0,0.398,0.069,0.527,0.207
		c0.129,0.139,0.193,0.331,0.193,0.578v0.192h-0.981c0.018,0.089,0.056,0.159,0.116,0.209s0.137,0.076,0.231,0.076
		c0.156,0,0.278-0.055,0.366-0.164l0.226,0.267c-0.062,0.085-0.149,0.153-0.261,0.203C82.096,64.866,81.975,64.892,81.845,64.892z
		 M81.789,63.629c-0.145,0-0.23,0.096-0.258,0.287h0.498v-0.038c0.002-0.079-0.018-0.14-0.06-0.184S81.867,63.629,81.789,63.629z"/>
	<path d="M83.232,64.862h-0.495v-2.25h0.495V64.862z"/>
	<path d="M83.474,64.055c0-0.158,0.031-0.299,0.092-0.422s0.15-0.219,0.265-0.285s0.25-0.1,0.406-0.1
		c0.237,0,0.424,0.074,0.561,0.221s0.205,0.347,0.205,0.6v0.018c0,0.247-0.069,0.443-0.206,0.588
		c-0.137,0.146-0.323,0.218-0.557,0.218c-0.226,0-0.407-0.067-0.543-0.203c-0.137-0.135-0.21-0.318-0.221-0.55L83.474,64.055z
		 M83.967,64.086c0,0.146,0.023,0.254,0.069,0.322s0.114,0.103,0.204,0.103c0.176,0,0.266-0.135,0.27-0.406v-0.05
		c0-0.284-0.091-0.426-0.272-0.426c-0.165,0-0.254,0.123-0.268,0.368L83.967,64.086z"/>
	<path d="M86.692,64.082c0,0.246-0.056,0.443-0.167,0.589c-0.111,0.147-0.26,0.221-0.449,0.221c-0.146,0-0.265-0.053-0.359-0.16
		v0.74h-0.494v-2.194h0.461l0.015,0.146c0.095-0.117,0.219-0.176,0.374-0.176c0.195,0,0.347,0.072,0.456,0.216
		c0.108,0.145,0.163,0.342,0.163,0.594V64.082z M86.198,64.051c0-0.281-0.082-0.422-0.246-0.422c-0.117,0-0.195,0.042-0.234,0.126
		v0.624c0.043,0.088,0.122,0.132,0.237,0.132c0.157,0,0.238-0.136,0.243-0.407V64.051z"/>
	<path d="M87.376,63.277l0.016,0.186c0.112-0.144,0.263-0.215,0.453-0.215c0.2,0,0.335,0.08,0.406,0.239
		c0.107-0.159,0.263-0.239,0.466-0.239c0.321,0,0.486,0.194,0.495,0.583v1.031h-0.495v-1c0-0.081-0.014-0.14-0.041-0.177
		s-0.077-0.056-0.149-0.056c-0.098,0-0.17,0.043-0.218,0.13l0.001,0.021v1.083h-0.495v-0.998c0-0.083-0.013-0.143-0.04-0.18
		s-0.077-0.056-0.151-0.056c-0.095,0-0.167,0.043-0.217,0.13v1.103h-0.494v-1.585H87.376z"/>
	<path d="M90.26,64.892c-0.243,0-0.44-0.072-0.59-0.218c-0.15-0.145-0.226-0.333-0.226-0.566v-0.041c0-0.162,0.03-0.305,0.09-0.429
		c0.06-0.124,0.147-0.22,0.263-0.288c0.115-0.067,0.252-0.102,0.41-0.102c0.223,0,0.398,0.069,0.527,0.207
		c0.129,0.139,0.193,0.331,0.193,0.578v0.192h-0.981c0.018,0.089,0.056,0.159,0.116,0.209s0.137,0.076,0.231,0.076
		c0.156,0,0.278-0.055,0.366-0.164l0.226,0.267c-0.062,0.085-0.149,0.153-0.261,0.203C90.511,64.866,90.39,64.892,90.26,64.892z
		 M90.205,63.629c-0.145,0-0.23,0.096-0.258,0.287h0.498v-0.038c0.002-0.079-0.018-0.14-0.06-0.184S90.283,63.629,90.205,63.629z"/>
	<path d="M91.58,63.277l0.016,0.186c0.109-0.144,0.26-0.215,0.453-0.215c0.165,0,0.288,0.049,0.37,0.148
		c0.081,0.099,0.124,0.247,0.126,0.445v1.021H92.05v-1c0-0.08-0.016-0.139-0.048-0.176s-0.091-0.057-0.176-0.057
		c-0.097,0-0.168,0.038-0.215,0.114v1.119h-0.494v-1.585H91.58z"/>
	<path d="M93.394,62.883v0.394h0.261v0.343h-0.261v0.725c0,0.06,0.011,0.101,0.032,0.125s0.064,0.035,0.127,0.035
		c0.049,0,0.09-0.003,0.123-0.009v0.353c-0.089,0.028-0.182,0.042-0.278,0.042c-0.17,0-0.295-0.04-0.376-0.12
		S92.9,64.57,92.9,64.407V63.62h-0.202v-0.343H92.9v-0.394H93.394z"/>
</g>
<g>
	<rect x="62.245" y="37.302" fill="#212121;" width="1.182" height="4.411"/>
	<rect x="62.471" y="25.531" fill="#212121;" width="1.036" height="3.867"/>
	<path fill="#212121;" d="M62.836,35.554c-0.204,0-0.365,0.057-0.483,0.171c-0.118,0.114-0.177,0.26-0.177,0.436
		c0,0.179,0.06,0.326,0.181,0.44c0.121,0.114,0.281,0.171,0.479,0.171s0.358-0.057,0.479-0.171c0.121-0.114,0.181-0.261,0.181-0.44
		c0-0.177-0.06-0.322-0.179-0.436C63.198,35.611,63.036,35.554,62.836,35.554z"/>
	<polygon fill="#212121;" points="61.18,33.013 59.456,38.733 57.742,33.013 56.003,33.013 58.641,40.619 60.276,40.619 62.924,33.013
		"/>
	<path fill="#212121;" d="M52.176,18.996c-0.862,0-1.433,0.555-1.433,1.422c0,0.868,0.604,1.384,1.389,1.384
		c0.719,0,1.417-0.45,1.417-1.433C53.549,19.562,53,18.996,52.176,18.996z M52.155,21.204c-0.357,0-0.549-0.346-0.549-0.807
		c0-0.395,0.148-0.807,0.549-0.807c0.379,0,0.533,0.406,0.533,0.807C52.687,20.88,52.478,21.204,52.155,21.204z"/>
	<path fill="#212121;" d="M69.286,29.179c0,0.432,0.123,0.778,0.37,1.036s0.566,0.387,0.96,0.387c0.486,0,0.85-0.187,1.094-0.56
		l-0.303-0.236c-0.091,0.118-0.197,0.213-0.319,0.284c-0.122,0.072-0.27,0.107-0.445,0.107c-0.247,0-0.45-0.088-0.61-0.264
		c-0.16-0.176-0.243-0.407-0.251-0.693h1.965v-0.206c0-0.463-0.105-0.818-0.314-1.067c-0.209-0.248-0.502-0.373-0.879-0.373
		c-0.23,0-0.444,0.064-0.642,0.192c-0.197,0.128-0.351,0.305-0.461,0.531s-0.165,0.483-0.165,0.771V29.179z M70.049,28.221
		c0.136-0.146,0.304-0.218,0.504-0.218c0.207,0,0.372,0.069,0.493,0.208c0.122,0.138,0.189,0.334,0.204,0.586v0.038h-1.453
		C69.83,28.571,69.914,28.367,70.049,28.221z"/>
	<path fill="#212121;" d="M56.783,19.561c0.119,0.124,0.179,0.322,0.179,0.596v3.091h1.26v4.666h4.186v-1.077h-2.845V21.41h-1.309
		v-1.285c-0.006-0.599-0.134-1.048-0.384-1.349c-0.25-0.301-0.631-0.451-1.144-0.451c-0.581,0-1.044,0.216-1.389,0.648l-0.04-0.558
		h-1.215v4.833h1.291V19.84c0.182-0.31,0.454-0.465,0.817-0.465C56.466,19.376,56.664,19.438,56.783,19.561z"/>
	<path fill="#212121;" d="M62.99,23.998c-0.179,0-0.32,0.05-0.423,0.15c-0.104,0.1-0.155,0.228-0.155,0.382
		c0,0.157,0.053,0.286,0.159,0.386s0.246,0.15,0.42,0.15c0.174,0,0.314-0.05,0.42-0.15c0.106-0.1,0.159-0.229,0.159-0.386
		c0-0.155-0.052-0.282-0.157-0.382C63.307,24.048,63.167,23.998,62.99,23.998z"/>
	<path fill="#212121;" d="M93.442,27.185c-0.117,0-0.205,0.034-0.265,0.101s-0.089,0.149-0.089,0.247c0,0.097,0.03,0.179,0.089,0.244
		c0.06,0.065,0.148,0.097,0.265,0.097s0.206-0.032,0.266-0.097c0.061-0.065,0.091-0.146,0.091-0.244c0-0.097-0.03-0.18-0.091-0.247
		C93.646,27.218,93.559,27.185,93.442,27.185z"/>
	<polygon fill="#212121;" points="76.651,42.703 75.836,42.703 75.836,46.29 78.078,46.29 78.078,45.609 76.651,45.609 	"/>
	<path fill="#212121;" d="M90.422,31.475c-0.484-0.146-0.851-0.303-1.1-0.47s-0.373-0.374-0.373-0.622
		c-0.002-0.264,0.105-0.477,0.317-0.639c0.212-0.162,0.51-0.243,0.893-0.243c0.397,0,0.705,0.097,0.925,0.29
		c0.219,0.193,0.329,0.464,0.329,0.812h1.567c0-0.456-0.118-0.864-0.353-1.222c-0.235-0.359-0.565-0.636-0.99-0.833
		c-0.425-0.197-0.909-0.295-1.452-0.295c-0.54,0-1.026,0.091-1.46,0.272c-0.434,0.181-0.766,0.433-0.998,0.755
		c-0.232,0.322-0.347,0.689-0.347,1.1c0,0.791,0.432,1.419,1.295,1.886c0.317,0.171,0.747,0.344,1.29,0.52
		c0.543,0.176,0.919,0.343,1.128,0.501c0.209,0.159,0.313,0.386,0.313,0.682c0,0.272-0.104,0.483-0.313,0.635
		c-0.209,0.151-0.5,0.227-0.872,0.227c-1.003,0-1.504-0.42-1.504-1.259h-0.822c-0.038-0.062-0.079-0.122-0.123-0.176
		c-0.292-0.352-0.738-0.528-1.337-0.528c-0.679,0-1.221,0.253-1.624,0.757l-0.047-0.653h-1.421v2.016
		c-0.048-0.071-0.099-0.139-0.155-0.203c-0.355-0.398-0.819-0.596-1.393-0.596c-0.372,0-0.702,0.09-0.992,0.269
		c-0.29,0.179-0.516,0.434-0.678,0.764c-0.162,0.33-0.244,0.702-0.244,1.115v0.051c0,0.655,0.177,1.181,0.532,1.578
		c0.355,0.398,0.818,0.596,1.389,0.596c0.379,0,0.715-0.091,1.007-0.273c0.214-0.133,0.392-0.306,0.534-0.518v0.852h1.51v-3.985
		c0.212-0.362,0.531-0.543,0.956-0.543c0.324,0,0.555,0.072,0.695,0.217c0.139,0.145,0.209,0.377,0.209,0.697v3.615h1.51v-3.097
		c0.125,0.08,0.257,0.154,0.402,0.219c0.481,0.214,1.013,0.321,1.598,0.321c0.843,0,1.513-0.187,2.011-0.562
		c0.498-0.374,0.747-0.891,0.747-1.549c0-0.592-0.204-1.086-0.611-1.483C91.964,32.076,91.313,31.744,90.422,31.475z M82.674,37.542
		c-0.216,0.287-0.507,0.431-0.873,0.431c-0.364,0-0.654-0.142-0.871-0.425c-0.217-0.283-0.325-0.659-0.325-1.126
		c0-0.527,0.109-0.933,0.327-1.216c0.218-0.283,0.505-0.425,0.861-0.425c0.364,0,0.655,0.144,0.875,0.431
		c0.22,0.287,0.329,0.662,0.329,1.124C82.999,36.853,82.891,37.255,82.674,37.542z"/>
	<rect x="93.135" y="28.464" fill="#212121;" width="0.601" height="3.514"/>
	<path fill="#212121;" d="M100.617,32.093c0-0.698-0.173-1.238-0.52-1.618s-0.821-0.571-1.425-0.571c-0.402,0-0.76,0.094-1.074,0.283
		c-0.314,0.189-0.556,0.458-0.728,0.807c-0.08,0.162-0.139,0.336-0.181,0.518h-2.873v0.631h1.143v3.152h0.779v-3.152h0.877
		c0,0.013-0.002,0.025-0.002,0.038v0.114c0,0.66,0.203,1.189,0.609,1.586c0.406,0.397,0.933,0.595,1.58,0.595
		c0.367,0,0.701-0.07,1.003-0.21c0.302-0.14,0.541-0.335,0.717-0.585l-0.579-0.648c-0.255,0.329-0.61,0.493-1.064,0.493
		c-0.294,0-0.536-0.087-0.728-0.261s-0.306-0.405-0.344-0.693h2.809L100.617,32.093z M99.458,31.771H97.82
		c0.041-0.295,0.134-0.521,0.279-0.68c0.145-0.158,0.335-0.238,0.569-0.238c0.25,0,0.443,0.072,0.579,0.215s0.206,0.346,0.212,0.608
		V31.771z"/>
	<path fill="#212121;" d="M67.786,40.896c-0.08-0.091-0.12-0.24-0.12-0.449v-2.821h0.966v-1.107h-0.966V35.13h-1.51v1.389h-0.825v1.107
		h0.825v3.045c0.021,1.069,0.561,1.604,1.619,1.604c0.313,0,0.618-0.045,0.914-0.136v-1.144c-0.129,0.024-0.277,0.037-0.444,0.037
		C68.02,41.032,67.866,40.987,67.786,40.896z"/>
	<path fill="#212121;" d="M75.289,42.551c0-0.495-0.16-0.878-0.479-1.152c-0.319-0.273-0.751-0.41-1.294-0.41
		c-0.359,0-0.682,0.062-0.97,0.185c-0.288,0.124-0.511,0.294-0.669,0.512c-0.158,0.217-0.236,0.454-0.236,0.709h1.178
		c0-0.166,0.056-0.296,0.169-0.391c0.113-0.095,0.268-0.143,0.467-0.143c0.226,0,0.391,0.061,0.495,0.183
		c0.105,0.122,0.157,0.285,0.157,0.489v0.253h-0.542c-0.655,0.003-1.156,0.129-1.502,0.379c-0.347,0.25-0.52,0.609-0.52,1.076
		c0,0.381,0.142,0.696,0.426,0.946s0.642,0.375,1.074,0.375c0.457,0,0.828-0.159,1.113-0.477c0.024,0.158,0.064,0.289,0.118,0.395
		h1.19v-0.069c-0.114-0.215-0.173-0.531-0.175-0.95L75.289,42.551z M74.107,44.235c-0.071,0.13-0.179,0.234-0.326,0.312
		c-0.147,0.077-0.307,0.116-0.481,0.116c-0.179,0-0.321-0.048-0.424-0.143c-0.103-0.095-0.155-0.216-0.155-0.363l0.004-0.069
		c0.038-0.408,0.352-0.611,0.942-0.611h0.44V44.235z"/>
	<path fill="#212121;" d="M64.783,38.181h-0.021l-0.027-0.479h-0.697c0.011,0.224,0.021,0.474,0.021,0.857v1.746h0.809v-1.32
		c0-0.064,0.005-0.128,0.016-0.181c0.053-0.25,0.255-0.41,0.553-0.41c0.09,0,0.16,0.011,0.218,0.021v-0.761
		c-0.059-0.011-0.096-0.011-0.17-0.011C65.234,37.643,64.916,37.803,64.783,38.181z"/>
	<path fill="#212121;" d="M69.205,30.817c0.054-0.964,0.093-1.926,0.116-2.886c0.024-0.96,0.029-1.922,0.015-2.886
		c0-0.04-0.012-0.084-0.035-0.131c-0.024-0.047-0.049-0.087-0.076-0.121c-0.081-0.121-0.177-0.202-0.288-0.243
		c-0.111-0.04-0.221-0.047-0.329-0.02c-0.108,0.027-0.207,0.084-0.298,0.172s-0.157,0.199-0.197,0.334l-0.01,0.061
		c0,0.613-0.003,1.223-0.01,1.83c-0.007,0.607-0.02,1.217-0.04,1.83c-0.175-0.256-0.356-0.512-0.541-0.768s-0.376-0.512-0.571-0.768
		c-0.196-0.249-0.408-0.514-0.637-0.794c-0.229-0.28-0.431-0.527-0.607-0.743c-0.047-0.061-0.106-0.14-0.177-0.238
		c-0.071-0.098-0.147-0.195-0.227-0.293c-0.081-0.098-0.163-0.189-0.248-0.273c-0.084-0.084-0.167-0.14-0.248-0.167
		c-0.094-0.034-0.192-0.047-0.293-0.04c-0.101,0.007-0.196,0.032-0.283,0.076c-0.088,0.044-0.16,0.106-0.217,0.187
		c-0.057,0.081-0.086,0.179-0.086,0.293c-0.007,0.229-0.007,0.457,0,0.682c0.007,0.226,0.01,0.453,0.01,0.682
		c0,0.169,0.002,0.376,0.005,0.622c0.003,0.246,0.005,0.51,0.005,0.794v2.82c0,0.162,0.047,0.296,0.142,0.404
		c0.094,0.108,0.205,0.175,0.334,0.202c0.128,0.027,0.254,0.013,0.379-0.04c0.125-0.054,0.217-0.162,0.278-0.323
		c0.02-0.054,0.035-0.118,0.046-0.192c0.01-0.074,0.018-0.177,0.025-0.308c0.007-0.131,0.01-0.302,0.01-0.51v-3.063
		c0.526,0.654,1.031,1.313,1.516,1.976c0.485,0.664,0.947,1.356,1.385,2.077v-0.02c0,0.007,0.003,0.013,0.01,0.02
		c0.061,0.121,0.155,0.207,0.283,0.258c0.128,0.051,0.254,0.064,0.379,0.04c0.125-0.024,0.236-0.079,0.334-0.167
		C69.156,31.093,69.205,30.972,69.205,30.817z"/>
	<path fill="#212121;" d="M71.637,39.717h-0.782v2.518c-0.007,0.461-0.23,0.691-0.668,0.691c-0.21,0-0.374-0.057-0.492-0.17
		c-0.119-0.113-0.178-0.294-0.178-0.542v-2.497h-0.779v2.52c0.005,0.409,0.138,0.73,0.398,0.964c0.26,0.234,0.611,0.351,1.052,0.351
		c0.449,0,0.802-0.12,1.061-0.361c0.259-0.241,0.388-0.568,0.388-0.982V39.717z"/>
</g>
<g>
	<path fill="#212121;" d="M125.506,60.788c0,0-0.36-0.093-1.033-0.267c-0.337-0.086-0.752-0.193-1.234-0.33
		c-0.483-0.137-1.043-0.28-1.658-0.478c-0.309-0.095-0.634-0.195-0.975-0.301c-0.339-0.11-0.689-0.24-1.056-0.367
		c-0.368-0.128-0.75-0.26-1.136-0.426c-0.387-0.161-0.793-0.318-1.203-0.499c-1.636-0.735-3.414-1.732-5.125-3.125
		c-0.831-0.716-1.632-1.538-2.381-2.465c-0.74-0.932-1.432-1.954-2.101-3.033c-0.325-0.537-0.679-1.111-1.168-1.584
		c-0.476-0.48-1.084-0.839-1.736-1.059c-0.653-0.226-1.345-0.302-2.032-0.344c-0.688-0.037-1.382-0.028-2.076-0.018
		c-2.777,0.036-5.648,0.023-8.558-0.146c-2.909-0.169-5.858-0.495-8.755-1.098c-2.895-0.602-5.738-1.49-8.363-2.752
		c-2.624-1.257-5.018-2.893-7.013-4.821c-0.964-0.991-1.808-2.072-2.477-3.224c-0.668-1.151-1.147-2.379-1.393-3.625
		c-0.22-1.25-0.219-2.502-0.008-3.676c0.204-1.177,0.588-2.277,1.065-3.277c0.233-0.503,0.509-0.974,0.78-1.428
		c0.301-0.439,0.595-0.868,0.881-1.285c0.31-0.4,0.631-0.774,0.933-1.146c0.147-0.19,0.309-0.361,0.472-0.528
		c0.161-0.168,0.32-0.334,0.475-0.497c0.158-0.162,0.308-0.326,0.463-0.479c0.16-0.148,0.318-0.294,0.473-0.436
		c0.314-0.281,0.601-0.572,0.905-0.816c0.607-0.492,1.165-0.945,1.669-1.353c1.052-0.758,1.894-1.332,2.443-1.759
		c0.278-0.209,0.501-0.356,0.667-0.426c0.079-0.043,0.147-0.056,0.19-0.072c0.044-0.014,0.065-0.021,0.065-0.021
		s-0.021,0.007-0.065,0.021c-0.043,0.016-0.111,0.028-0.19,0.071c-0.166,0.069-0.391,0.216-0.67,0.423
		c-0.55,0.424-1.396,0.995-2.451,1.75c-0.506,0.406-1.065,0.856-1.675,1.345c-0.307,0.244-0.594,0.533-0.909,0.813
		c-0.157,0.143-0.315,0.288-0.476,0.435c-0.157,0.153-0.308,0.316-0.465,0.478c-1.262,1.288-2.599,2.867-3.572,4.882
		c-0.484,1.003-0.875,2.107-1.086,3.292c-0.217,1.185-0.224,2.445-0.007,3.708c0.242,1.258,0.72,2.5,1.389,3.664
		s1.516,2.257,2.484,3.261c1.996,1.947,4.397,3.603,7.03,4.878c2.634,1.28,5.488,2.185,8.393,2.803
		c2.908,0.619,5.867,0.958,8.783,1.14c2.917,0.182,5.795,0.208,8.575,0.184c0.696-0.008,1.381-0.013,2.056,0.026
		c0.672,0.043,1.339,0.121,1.952,0.337c0.613,0.21,1.173,0.543,1.617,0.995c0.453,0.442,0.784,0.977,1.114,1.53
		c0.669,1.089,1.362,2.126,2.11,3.075c0.754,0.943,1.57,1.789,2.421,2.527c1.733,1.424,3.537,2.446,5.191,3.197
		c0.415,0.185,0.825,0.345,1.216,0.51c0.389,0.171,0.775,0.306,1.146,0.436s0.724,0.263,1.065,0.375
		c0.343,0.107,0.67,0.21,0.981,0.308c0.619,0.202,1.182,0.347,1.668,0.488s0.901,0.249,1.237,0.337
		c0.672,0.177,1.03,0.272,1.03,0.272c0.11,0.029,0.223-0.036,0.252-0.146C125.681,60.93,125.616,60.817,125.506,60.788z"/>
</g>
<g>
	<path fill="#212121;" d="M125.65,60.759c0.002-0.096-0.05-0.187-0.147-0.21c-0.002,0-0.004-0.001-0.006-0.001l0-0.001
		c-0.008-0.002-0.016-0.003-0.024-0.005c-0.893-0.214-1.788-0.427-2.685-0.63l-2.716-0.621c-0.905-0.207-1.808-0.422-2.709-0.642
		l-1.348-0.341l-1.341-0.364c-0.89-0.256-1.779-0.515-2.656-0.813c-0.442-0.138-0.877-0.295-1.31-0.457
		c-0.435-0.158-0.87-0.316-1.295-0.499c-0.195-0.077-0.385-0.165-0.578-0.247c-0.127-0.06-0.255-0.119-0.379-0.185l-1.113-0.598
		c-0.363-0.213-0.715-0.444-1.074-0.665c-0.365-0.212-0.693-0.476-1.035-0.72l-0.51-0.373c-0.169-0.124-0.322-0.27-0.484-0.404
		c-0.315-0.278-0.649-0.536-0.949-0.832l-0.89-0.895l-0.111-0.111l-0.028-0.028l-0.021-0.025l-0.051-0.061l-0.204-0.243
		c-0.137-0.162-0.275-0.324-0.397-0.493c-0.125-0.168-0.254-0.331-0.375-0.502l-0.352-0.522c-0.45-0.708-0.842-1.453-1.156-2.23
		c-0.14-0.395-0.292-0.786-0.391-1.194l-0.084-0.303c-0.028-0.087-0.041-0.203-0.063-0.304l-0.118-0.625
		c-0.048-0.209-0.051-0.415-0.075-0.623c-0.019-0.208-0.043-0.415-0.058-0.623l-0.009-0.63c-0.004-0.21-0.01-0.42,0.008-0.63
		l0.036-0.629l0.009-0.158c0.003-0.041,0.014-0.102,0.02-0.151l0.045-0.315l0.09-0.629l0.116-0.622
		c0.079-0.411,0.149-0.835,0.222-1.254c0.072-0.42,0.093-0.851,0.142-1.276v-0.004v-0.005c-0.007-0.304-0.087-0.621-0.266-0.882
		c-0.177-0.262-0.437-0.456-0.714-0.577c-0.56-0.244-1.16-0.291-1.743-0.301c-0.358-0.004-0.713,0.018-1.067,0.048
		c-0.023-0.21-0.052-0.42-0.094-0.628v-0.002l-0.002-0.006c-0.147-0.428-0.346-0.848-0.663-1.183
		c-0.316-0.329-0.698-0.586-1.105-0.777c-0.206-0.086-0.41-0.182-0.623-0.247c-0.108-0.035-0.205-0.071-0.323-0.106l-0.322-0.076
		l-0.644-0.15l-0.654-0.122c-0.435-0.088-0.874-0.137-1.311-0.206c-0.439-0.049-0.876-0.111-1.316-0.151
		c-0.878-0.092-1.756-0.161-2.634-0.239c-0.877-0.076-1.752-0.172-2.629-0.265c-0.878-0.086-1.75-0.208-2.624-0.312
		c-0.874-0.111-1.744-0.247-2.616-0.369c-0.868-0.149-1.739-0.283-2.604-0.447l-1.297-0.255l-0.648-0.128l-0.644-0.148
		c-0.858-0.197-1.719-0.386-2.567-0.625l-1.277-0.341l-1.262-0.39c-0.847-0.244-1.672-0.551-2.502-0.848
		c-0.819-0.324-1.645-0.631-2.445-0.999c-0.813-0.34-1.595-0.749-2.383-1.141c-0.762-0.442-1.551-0.841-2.277-1.341
		c-0.366-0.246-0.749-0.466-1.1-0.732c-0.351-0.265-0.675-0.572-1.071-0.77c0.395,0.201,0.718,0.509,1.067,0.775
		c0.35,0.269,0.732,0.49,1.097,0.738c0.725,0.504,1.512,0.906,2.272,1.352c0.788,0.396,1.567,0.809,2.38,1.154
		c0.799,0.373,1.625,0.684,2.443,1.012c0.828,0.3,1.654,0.612,2.501,0.861l1.262,0.396l1.277,0.347
		c0.848,0.244,1.709,0.437,2.567,0.638l0.644,0.151l0.648,0.131l1.297,0.262c0.865,0.168,1.737,0.306,2.605,0.46
		c0.873,0.127,1.743,0.266,2.618,0.382c0.875,0.107,1.749,0.234,2.626,0.324c0.875,0.098,1.752,0.198,2.63,0.278
		c0.878,0.082,1.756,0.155,2.63,0.251c0.439,0.042,0.874,0.105,1.311,0.157c0.433,0.071,0.872,0.122,1.3,0.211l0.646,0.124
		l0.643,0.153l0.321,0.077c0.093,0.028,0.203,0.068,0.304,0.102c0.209,0.065,0.404,0.159,0.604,0.242
		c0.39,0.186,0.748,0.43,1.041,0.738c0.292,0.311,0.475,0.702,0.613,1.104c0.039,0.2,0.066,0.402,0.087,0.604
		c-0.736,0.071-1.466,0.179-2.19,0.235l-3.458,0.238l-0.865,0.059l-0.865,0.03l-1.73,0.061l-1.73,0.061
		c-0.573,0.009-1.154-0.01-1.731-0.013c-1.157,0.003-2.308-0.072-3.46-0.12c-0.577-0.019-1.151-0.087-1.727-0.127
		c-0.574-0.054-1.152-0.079-1.724-0.156c-1.145-0.145-2.295-0.257-3.431-0.466c-0.569-0.097-1.14-0.18-1.707-0.289l-1.695-0.358
		c-0.282-0.061-0.566-0.116-0.847-0.182l-0.837-0.219l-1.676-0.439l-1.651-0.521l-0.826-0.261c-0.273-0.086-0.54-0.202-0.81-0.301
		c-1.082-0.406-2.139-0.869-3.185-1.359l-0.774-0.39l-0.386-0.195l-0.378-0.211l-0.755-0.423c-0.249-0.147-0.49-0.305-0.735-0.457
		c-0.497-0.295-0.959-0.643-1.432-0.974c-0.241-0.16-0.455-0.355-0.683-0.532c-0.222-0.184-0.456-0.355-0.669-0.549
		c-0.873-0.757-1.64-1.63-2.299-2.579c-0.661-0.948-1.218-1.965-1.737-2.996c0.515,1.034,1.067,2.053,1.724,3.005
		c0.654,0.952,1.422,1.832,2.292,2.593c0.214,0.196,0.446,0.368,0.668,0.553c0.228,0.178,0.442,0.374,0.682,0.535
		c0.473,0.334,0.934,0.684,1.43,0.982c0.245,0.153,0.486,0.313,0.735,0.461l0.755,0.427l0.377,0.213l0.387,0.197l0.773,0.393
		c1.045,0.495,2.104,0.964,3.184,1.375c0.271,0.101,0.534,0.217,0.812,0.306l0.826,0.265l1.652,0.529l1.676,0.447l0.839,0.223
		c0.281,0.068,0.565,0.124,0.847,0.187l1.696,0.366c0.568,0.112,1.14,0.197,1.71,0.297c1.137,0.214,2.289,0.331,3.435,0.482
		c0.573,0.079,1.152,0.107,1.727,0.164c0.577,0.044,1.152,0.114,1.73,0.136c1.155,0.053,2.312,0.133,3.467,0.135
		c0.579,0.006,1.153,0.027,1.735,0.021l1.734-0.053l1.734-0.054l0.867-0.027l0.865-0.055l3.46-0.223
		c0.584-0.033,1.156-0.125,1.728-0.184c0.155-0.017,0.31-0.028,0.465-0.042c0.051,0.635,0.037,1.279,0.006,1.921
		c-0.019,0.466-0.049,0.928-0.047,1.395l-0.003,0.701l0.034,0.7c0.064,0.932,0.174,1.864,0.395,2.774
		c0.218,0.909,0.49,1.809,0.869,2.667c0.376,0.857,0.816,1.687,1.335,2.468c0.525,0.775,1.105,1.513,1.747,2.197
		c0.655,0.675,1.328,1.319,2.076,1.884c0.365,0.291,0.725,0.59,1.116,0.847l0.575,0.401c0.191,0.135,0.382,0.269,0.584,0.386
		c0.4,0.242,0.795,0.49,1.198,0.726l1.234,0.662c0.557,0.274,1.119,0.536,1.686,0.787c0.338,0.175,0.687,0.328,1.03,0.494
		c0.383,0.189,0.778,0.348,1.174,0.506c0.785,0.334,1.594,0.603,2.398,0.883l1.219,0.378c0.407,0.126,0.819,0.23,1.228,0.346
		c0.409,0.117,0.822,0.221,1.234,0.322c0.413,0.102,0.824,0.21,1.239,0.301c0.827,0.194,1.656,0.378,2.487,0.555
		c1.66,0.355,3.318,0.695,4.974,1.064c0.112,0.025,0.223-0.046,0.248-0.157C125.661,60.787,125.65,60.775,125.65,60.759z
		 M104.471,53.677c-0.201-0.115-0.39-0.246-0.58-0.378l-0.57-0.393c-0.388-0.252-0.744-0.546-1.107-0.832
		c-0.739-0.553-1.414-1.193-2.055-1.847c-0.634-0.669-1.208-1.393-1.728-2.152c-0.515-0.764-0.951-1.579-1.325-2.42
		c-0.376-0.842-0.649-1.726-0.867-2.62c-0.223-0.895-0.335-1.814-0.403-2.734L95.8,39.609v-0.693
		c-0.004-0.461,0.024-0.927,0.041-1.389c0.029-0.645,0.04-1.299-0.016-1.95c0.349-0.027,0.698-0.047,1.047-0.043
		c0.567,0.011,1.145,0.065,1.649,0.288c0.25,0.111,0.468,0.279,0.615,0.498c0.148,0.216,0.216,0.482,0.221,0.752
		c-0.05,0.415-0.072,0.831-0.144,1.246c-0.075,0.416-0.144,0.829-0.227,1.249l-0.12,0.629l-0.093,0.629l-0.046,0.315
		c-0.008,0.055-0.016,0.099-0.022,0.164l-0.01,0.16l-0.039,0.64c-0.019,0.214-0.014,0.428-0.011,0.641l0.007,0.642
		c0.014,0.215,0.038,0.429,0.057,0.644c0.025,0.213,0.028,0.433,0.075,0.639l0.115,0.626c0.022,0.107,0.031,0.202,0.064,0.318
		l0.084,0.311c0.1,0.418,0.254,0.819,0.396,1.224c0.318,0.797,0.716,1.56,1.172,2.285l0.356,0.534
		c0.123,0.176,0.256,0.345,0.384,0.518c0.126,0.176,0.263,0.337,0.399,0.5l0.203,0.244l0.051,0.062l0.03,0.036l0.028,0.028
		l0.112,0.114l0.9,0.913c0.303,0.301,0.641,0.564,0.96,0.849c0.164,0.136,0.318,0.285,0.49,0.412l0.487,0.359
		C104.834,53.894,104.653,53.786,104.471,53.677z"/>
	<path fill="#212121;" d="M125.111,60.932c0,0-0.444-0.001-1.278,0c-0.499,0.003-1.155,0.014-1.923,0.041
		c-0.394,0.011-0.809,0.025-1.268,0.045c-1.42,0.07-3.147,0.163-5.114,0.424c-1.965,0.257-4.176,0.657-6.517,1.365
		c-2.334,0.72-4.792,1.772-7.156,3.282c-0.303,0.177-0.58,0.397-0.874,0.597c-0.287,0.21-0.588,0.396-0.87,0.63
		c-0.553,0.454-1.133,0.883-1.672,1.389c-0.274,0.245-0.55,0.492-0.827,0.74c-0.267,0.256-0.536,0.512-0.807,0.771
		c-0.544,0.513-1.074,1.048-1.618,1.579c-0.545,0.522-1.116,1.024-1.719,1.492l-0.366,0.049c-0.185,0.03-0.409,0.019-0.612,0.031
		c-0.833,0.018-1.675,0.076-2.516,0.033c-0.421-0.011-0.844-0.021-1.268-0.032c-0.424-0.015-0.851-0.045-1.279-0.067
		c-1.711-0.092-3.448-0.213-5.196-0.291c-3.5-0.158-7.067-0.207-10.622,0.037l-1.332,0.108c-0.442,0.039-0.887,0.064-1.328,0.125
		l-1.325,0.16l-0.661,0.08l-0.658,0.107c-0.874,0.148-1.754,0.273-2.615,0.457c-0.866,0.183-1.722,0.39-2.568,0.62
		c-3.377,0.933-6.618,2.262-9.377,4.162c-0.688,0.475-1.345,0.984-1.951,1.54c-0.614,0.547-1.174,1.142-1.677,1.771
		c-1.017,1.251-1.759,2.675-2.201,4.145c-0.421,1.478-0.535,2.989-0.415,4.425c0.01,0.074,0.026,0.146,0.037,0.219
		c-0.353,0.87-0.573,1.759-0.714,2.617c-0.035,0.276-0.069,0.548-0.103,0.816c-0.021,0.269-0.016,0.536-0.026,0.799
		c-0.035,0.526,0.039,1.035,0.069,1.528c0.006,0.248,0.078,0.486,0.116,0.72c0.048,0.234,0.084,0.466,0.141,0.69
		c0.06,0.223,0.117,0.443,0.174,0.658c0.055,0.216,0.111,0.427,0.184,0.628c0.257,0.816,0.55,1.547,0.844,2.192
		c0.577,1.3,1.232,2.213,1.662,2.837c0.483,0.586,0.741,0.899,0.741,0.899s-0.257-0.314-0.738-0.902
		c-0.428-0.626-1.078-1.54-1.649-2.842c-0.291-0.646-0.581-1.377-0.834-2.193c-0.072-0.201-0.127-0.412-0.181-0.627
		c-0.056-0.215-0.113-0.434-0.171-0.657c-0.056-0.224-0.09-0.457-0.138-0.691c-0.038-0.236-0.107-0.469-0.112-0.717
		c-0.027-0.492-0.1-0.999-0.062-1.523c0.011-0.262,0.007-0.528,0.029-0.796c0.034-0.267,0.07-0.538,0.106-0.812
		c0.138-0.824,0.347-1.677,0.68-2.512c0.203,1.307,0.543,2.548,0.984,3.698c1.011,2.478,2.405,4.528,3.794,6.188
		c1.386,1.669,2.74,2.994,3.874,4.059c1.134,1.065,2.063,1.861,2.691,2.409c0.633,0.542,0.97,0.832,0.97,0.832
		s-0.336-0.291-0.967-0.836c-0.625-0.551-1.551-1.35-2.682-2.419c-1.129-1.068-2.478-2.398-3.857-4.07
		c-1.382-1.664-2.765-3.714-3.763-6.188c-0.449-1.182-0.791-2.458-0.986-3.8c0.093-0.224,0.189-0.447,0.301-0.667
		c0.535-1.079,1.233-2.159,2.139-3.101c0.417-0.506,0.92-0.943,1.408-1.41l0.184-0.174l0.199-0.16
		c0.132-0.106,0.265-0.213,0.399-0.32c0.272-0.209,0.526-0.444,0.817-0.635c0.574-0.391,1.144-0.808,1.768-1.154
		c0.311-0.176,0.609-0.377,0.934-0.536c0.321-0.165,0.644-0.331,0.969-0.497c1.316-0.631,2.694-1.21,4.138-1.677
		c0.715-0.256,1.455-0.451,2.193-0.675c0.746-0.189,1.493-0.402,2.258-0.563c1.52-0.356,3.078-0.636,4.652-0.885
		c0.787-0.127,1.581-0.235,2.377-0.342c0.797-0.088,1.597-0.176,2.398-0.264c0.803-0.064,1.609-0.128,2.416-0.191
		c0.807-0.054,1.616-0.107,2.425-0.16c3.229-0.209,6.488-0.444,9.617-1.111c1.576-0.29,3.105-0.839,4.474-1.621
		c0.656-0.37,1.277-0.791,1.87-1.242l0.204-0.026c0.415-0.038,0.818-0.155,1.225-0.233c0.204-0.034,0.4-0.114,0.599-0.174
		l0.594-0.193c0.189-0.078,0.369-0.167,0.554-0.249L97,72.565l0.137-0.062c0.03-0.015,0.032-0.012,0.083-0.041l0.063-0.042
		c1.395-0.853,2.518-1.988,3.631-3.027c2.209-2.091,4.572-3.776,6.946-4.955c2.375-1.173,4.718-1.889,6.835-2.294
		c2.115-0.417,3.992-0.601,5.539-0.697c0.693-0.039,1.308-0.063,1.863-0.079c0.741-0.017,1.371-0.022,1.848-0.024
		c0.76-0.001,1.166-0.001,1.166-0.001c0.022,0,0.035-0.017,0.055-0.023c0.032-0.01,0.067-0.015,0.09-0.038c0,0,0,0,0,0
		c0.037-0.037,0.06-0.088,0.061-0.144C125.317,61.024,125.224,60.932,125.111,60.932z M91.547,74.578
		c-1.345,0.775-2.832,1.317-4.393,1.611c-3.117,0.677-6.348,0.922-9.582,1.145c-0.808,0.057-1.617,0.114-2.425,0.17
		c-0.808,0.067-1.614,0.134-2.42,0.201c-0.803,0.092-1.605,0.184-2.405,0.275c-0.796,0.111-1.589,0.222-2.378,0.352
		c-1.577,0.255-3.136,0.542-4.66,0.905c-0.765,0.165-1.514,0.382-2.262,0.574c-0.739,0.227-1.481,0.426-2.197,0.686
		c-1.447,0.474-2.828,1.061-4.146,1.699c-0.326,0.169-0.649,0.336-0.971,0.503c-0.324,0.161-0.623,0.364-0.934,0.542
		c-0.626,0.35-1.196,0.771-1.771,1.166c-0.291,0.193-0.546,0.431-0.818,0.641c-0.134,0.109-0.267,0.217-0.4,0.324l-0.199,0.161
		l-0.185,0.176c-0.489,0.471-0.992,0.912-1.409,1.422c-0.91,0.955-1.6,2.032-2.138,3.126c-0.097,0.192-0.178,0.386-0.26,0.581
		c-0.005-0.033-0.012-0.065-0.016-0.099c-0.113-1.428,0.006-2.927,0.428-4.391c0.445-1.455,1.184-2.864,2.197-4.101
		c0.502-0.622,1.06-1.211,1.671-1.751c0.604-0.549,1.259-1.053,1.944-1.522c2.75-1.878,5.981-3.191,9.347-4.107
		c0.844-0.226,1.698-0.43,2.558-0.608c0.864-0.182,1.736-0.301,2.609-0.447l0.656-0.104l0.659-0.077l1.321-0.154
		c0.44-0.06,0.884-0.083,1.326-0.12l1.328-0.103c3.545-0.231,7.104-0.169,10.596,0.002c1.75,0.085,3.477,0.212,5.194,0.31
		c0.428,0.024,0.854,0.055,1.282,0.072c0.428,0.012,0.855,0.024,1.28,0.036c0.853,0.046,1.69-0.009,2.524-0.024
		c0.167-0.009,0.327-0.008,0.497-0.02C92.529,73.967,92.052,74.29,91.547,74.578z M107.703,64.126
		c-2.402,1.204-4.788,2.918-7.009,5.037c-1.111,1.047-2.217,2.167-3.568,3l-0.061,0.042c-0.013,0.009,0.005-0.003-0.019,0.009
		l-0.034,0.016l-0.137,0.063l-0.275,0.127c-0.184,0.083-0.366,0.173-0.552,0.25l-0.566,0.184c-0.19,0.057-0.374,0.134-0.575,0.168
		c-0.302,0.059-0.602,0.131-0.907,0.183c0.48-0.388,0.946-0.791,1.385-1.208c0.546-0.528,1.078-1.063,1.622-1.571
		c0.27-0.256,0.539-0.511,0.807-0.765c0.274-0.243,0.547-0.485,0.819-0.727c0.531-0.494,1.118-0.925,1.671-1.376
		c0.27-0.222,0.575-0.411,0.858-0.616c0.291-0.195,0.565-0.412,0.865-0.586c2.342-1.482,4.774-2.513,7.086-3.215
		c1.094-0.326,2.156-0.58,3.182-0.788C110.814,62.779,109.27,63.346,107.703,64.126z"/>
</g>
</svg>
