<?xml version="1.0" encoding="utf-8"?>
<!-- Generator: Adobe Illustrator 24.1.0, SVG Export Plug-In . SVG Version: 6.00 Build 0)  -->
<svg version="1.1" id="Layer_1" xmlns="http://www.w3.org/2000/svg" xmlns:xlink="http://www.w3.org/1999/xlink" x="0px" y="0px"
	 viewBox="0 0 130 50" style="enable-background:new 0 0 130 50;" xml:space="preserve">
<style type="text/css">
	.st0{opacity:0.4;}
	.st1{fill:#310E3F;}
	.st2{fill:#E0BDAE;}
	.st3{fill:#91ABB1;}
	.st4{fill:#8A3E6E;}
	.st5{fill:#FCF065;}
	.st6{fill:#EB519B;}
	.st7{fill:#FFFFFF;}
	.st8{fill:#A9DFF6;}
	.st9{fill:#2F141A;}
	.st10{fill:#D28ABB;}
	.st11{fill:#50B748;}
	.st12{fill:#CBAC94;}
	.st13{fill:#443E39;}
	.st14{fill:#E4A2AC;}
	.st15{fill:#E5B829;}
	.st16{opacity:0.25;}
	.st17{fill:#0B8266;}
</style>
<g>
	<g class="st0">
		<path class="st1" d="M56.273,46.268c0-1.016-11.704-1.84-26.141-1.84s-26.141,0.824-26.141,1.84c0,0.606,4.152,1.142,10.561,1.478
			c-0.106,0.056-0.164,0.114-0.164,0.173c0,0.46,3.352,0.833,7.487,0.833c3.553,0,6.526-0.275,7.293-0.645
			c0.32,0.001,0.64,0.002,0.963,0.002c0.96,0,1.907-0.004,2.841-0.011c0.735,0.374,3.729,0.654,7.313,0.654
			c4.135,0,7.487-0.373,7.487-0.833c0-0.094-0.142-0.184-0.398-0.268C52.829,47.314,56.273,46.819,56.273,46.268z"/>
	</g>
	<g>
		<path class="st2" d="M51.081,12.656c0.441,0.192,0.846,0.518,1.326,0.536c0.053,0.002,0.104,0.002,0.153,0.001
			c1.178-0.029,1.114-0.961,1.749-1.694c0.212-0.245,0.493-0.423,0.785-0.564c2.102-1.018,5.5,0.129,5.299,2.803
			c-0.067,0.886-0.456,1.715-0.913,2.477c-1.208,2.014-3.244,2.851-4.744,4.564c-0.354,0.405-0.755,0.765-1.157,1.122
			c-0.421,0.374-0.676,0.711-0.98,1.183c-0.743,1.154-1.619,2.244-2.376,3.401c-0.698,1.066-1.37,2.148-2.015,3.246
			c-0.258,0.44-0.871,1.925-1.588,1.716c-0.802-0.234-0.503-2.566-0.839-3.181c-0.614-1.122-1.143-1.735-1.011-3.112
			c0.073-0.761,0.426-1.377,0.883-1.959c0.289-0.368,0.524-0.795,0.781-1.186c0.147-0.223,0.704-0.812,0.704-1.068
			c0.365-0.553,0.696-1.163,1.138-1.657c0.533-0.595,0.985-1.271,1.433-1.939c0.22-0.328,0.434-0.675,0.495-1.065
			c0.087-0.556-0.179-0.973-0.31-1.485C49.667,13.912,49.601,12.013,51.081,12.656z"/>
	</g>
	<g>
		<path d="M46.907,31.868c0.305-0.498,0.601-1.001,0.894-1.505c0.295-0.503,0.585-1.009,0.873-1.517
			c0.578-1.014,1.146-2.035,1.754-3.036c0.611-0.999,1.258-1.981,1.98-2.914c0.722-0.931,1.517-1.812,2.387-2.615
			c0.434-0.403,0.886-0.786,1.354-1.148c0.456-0.357,0.899-0.721,1.32-1.109c0.42-0.387,0.817-0.796,1.171-1.232
			c0.18-0.215,0.339-0.444,0.492-0.674c0.144-0.234,0.279-0.473,0.384-0.721c0.21-0.496,0.322-1.02,0.293-1.548
			c-0.024-0.528-0.177-1.053-0.385-1.571c-0.104-0.259-0.223-0.517-0.348-0.775c-0.126-0.257-0.256-0.522-0.387-0.776
			c-0.131-0.256-0.264-0.507-0.408-0.738c-0.144-0.231-0.3-0.444-0.473-0.588c-0.173-0.146-0.351-0.217-0.573-0.225
			c-0.22-0.007-0.473,0.047-0.726,0.129c-0.064,0.022-0.127,0.042-0.191,0.068l-0.095,0.036c-0.028,0.012-0.057,0.023-0.085,0.036
			c-0.111,0.051-0.214,0.11-0.308,0.18c-0.187,0.14-0.339,0.326-0.465,0.549c-0.25,0.449-0.404,1.003-0.55,1.556
			c-0.038,0.146-0.066,0.26-0.088,0.394c-0.021,0.131-0.036,0.267-0.047,0.407c-0.026,0.281-0.025,0.571-0.091,0.912
			c-0.036,0.168-0.091,0.369-0.251,0.556c-0.079,0.092-0.183,0.169-0.29,0.218c-0.107,0.049-0.214,0.075-0.313,0.087
			c-0.198,0.023-0.371,0.005-0.534-0.022c-0.082-0.014-0.161-0.03-0.238-0.049l-0.116-0.03c-0.049-0.014-0.096-0.029-0.14-0.047
			c-0.176-0.071-0.317-0.161-0.449-0.252c-0.131-0.092-0.251-0.188-0.367-0.283c-0.231-0.19-0.448-0.382-0.667-0.549
			c-0.215-0.166-0.446-0.315-0.634-0.356c-0.094-0.021-0.159-0.015-0.222,0.014c-0.063,0.028-0.134,0.091-0.199,0.182
			c-0.066,0.09-0.122,0.204-0.165,0.308c-0.039,0.107-0.061,0.216-0.066,0.329c-0.013,0.225,0.057,0.471,0.154,0.728
			c0.098,0.258,0.225,0.528,0.323,0.829c0.048,0.151,0.091,0.308,0.115,0.474c0.024,0.166,0.029,0.337,0.015,0.508
			c-0.035,0.342-0.158,0.667-0.328,0.94c-0.043,0.069-0.085,0.138-0.133,0.201c-0.047,0.066-0.094,0.129-0.136,0.184
			c-0.087,0.115-0.174,0.228-0.26,0.346c-0.689,0.935-1.369,1.885-2.047,2.834l-2.043,2.845c-0.342,0.473-0.687,0.946-1.038,1.413
			c-0.353,0.467-0.701,0.935-1.083,1.388l-0.217-0.179c0.355-0.452,0.689-0.933,1.024-1.409l0.995-1.438l1.972-2.892
			c0.658-0.965,1.308-1.933,1.987-2.889c0.084-0.119,0.173-0.239,0.26-0.358c0.046-0.062,0.084-0.116,0.121-0.17
			c0.04-0.054,0.072-0.11,0.106-0.166c0.134-0.224,0.214-0.461,0.236-0.701c0.017-0.24-0.027-0.486-0.116-0.739
			c-0.086-0.253-0.212-0.511-0.327-0.796c-0.111-0.284-0.222-0.609-0.211-0.971c0.005-0.178,0.037-0.359,0.097-0.527
			c0.065-0.167,0.137-0.317,0.242-0.465c0.104-0.146,0.245-0.297,0.448-0.393c0.1-0.048,0.212-0.077,0.322-0.086
			c0.11-0.009,0.215,0.002,0.312,0.022c0.194,0.042,0.353,0.119,0.498,0.201c0.144,0.083,0.274,0.174,0.397,0.266
			c0.246,0.185,0.469,0.379,0.69,0.557c0.218,0.175,0.446,0.347,0.641,0.423c0.024,0.01,0.046,0.016,0.067,0.022l0.096,0.023
			c0.065,0.015,0.129,0.026,0.191,0.036c0.125,0.019,0.245,0.025,0.337,0.012c0.046-0.006,0.082-0.018,0.107-0.03
			c0.025-0.013,0.04-0.025,0.056-0.045c0.032-0.036,0.068-0.124,0.089-0.24c0.042-0.233,0.047-0.53,0.07-0.83
			c0.011-0.151,0.026-0.306,0.05-0.463c0.023-0.154,0.063-0.325,0.098-0.461c0.073-0.287,0.15-0.576,0.244-0.866
			c0.095-0.29,0.207-0.584,0.366-0.871c0.159-0.286,0.377-0.566,0.658-0.778c0.139-0.106,0.29-0.194,0.444-0.266
			c0.038-0.018,0.077-0.034,0.116-0.051l0.109-0.043c0.072-0.029,0.147-0.054,0.221-0.081c0.299-0.099,0.625-0.182,0.99-0.169
			c0.181,0.006,0.371,0.042,0.549,0.112c0.178,0.07,0.339,0.173,0.476,0.289c0.274,0.234,0.46,0.503,0.625,0.766
			c0.164,0.265,0.303,0.53,0.438,0.794c0.135,0.266,0.263,0.524,0.392,0.791C59.874,11.445,60,11.717,60.112,12
			c0.227,0.563,0.4,1.176,0.423,1.818c0.028,0.641-0.119,1.285-0.371,1.859c-0.126,0.288-0.282,0.557-0.447,0.817
			c-0.172,0.254-0.35,0.504-0.548,0.733c-0.39,0.465-0.82,0.884-1.266,1.278c-0.447,0.393-0.915,0.759-1.385,1.112
			c-0.461,0.344-0.907,0.709-1.34,1.087c-1.739,1.514-3.171,3.355-4.452,5.294c-0.644,0.97-1.264,1.958-1.889,2.945
			c-0.312,0.493-0.626,0.986-0.946,1.475C47.571,30.906,47.242,31.389,46.907,31.868z"/>
	</g>
	<g>
		<path class="st2" d="M14.176,44.062c-0.229,0.364-0.421,0.751-0.647,1.113c-0.171,0.273-0.199,0.567-0.479,0.767
			c-0.54,0.387-0.85,0.258-1.461,0.126c-0.579-0.126-1.148-0.295-1.706-0.49c-0.578-0.202-1.213-0.006-1.806,0.082
			C7.524,45.74,6.992,46.05,6.45,46.193c-0.823,0.217-1.662,0.122-2.459-0.152c-0.527-0.18-2.085-1.491-1.001-1.998
			c0.488-0.228,1.032-0.415,1.537-0.617c0.458-0.183,0.941-0.415,1.398-0.64c0.435-0.215,0.919-0.296,1.291-0.625
			c0.359-0.318,0.757-0.513,1.177-0.755c0.552-0.318,1.088-0.666,1.603-1.04c0.273-0.198,0.575-0.36,0.84-0.568
			c0.213-0.167,0.343-0.377,0.521-0.584c0.511-0.593,1.048-1.177,1.554-1.764c0.548-0.636,0.903-1.622,1.208-2.395
			c0.367-0.93,0.745-1.886,0.871-2.884c0.105-0.83,0.115-1.692,0.394-2.489c0.208-0.595,1.067-1.196,1.714-1.05
			c0.525,0.118,1.014,0.589,1.559,0.757c1.34,0.414,1.842,1.503,1.99,2.807c0.167,1.475-0.588,2.56-1.254,3.809
			c-0.863,1.62-1.307,3.442-2.276,5.008c-0.383,0.619-0.862,1.188-1.449,1.623C15.075,43.076,14.581,43.419,14.176,44.062z"/>
	</g>
	<g>
		<path d="M15.163,27.693c0.089,0.574,0.15,1.155,0.168,1.738c0.015,0.583-0.003,1.169-0.057,1.751
			c-0.107,1.166-0.356,2.324-0.765,3.431c-0.202,0.554-0.439,1.095-0.71,1.62c-0.272,0.525-0.581,1.03-0.919,1.516
			c-0.676,0.971-1.465,1.863-2.352,2.65c-0.891,0.789-1.89,1.453-2.946,1.992c-1.055,0.543-2.177,0.942-3.262,1.332
			c-0.269,0.099-0.536,0.199-0.782,0.312c-0.123,0.056-0.239,0.116-0.341,0.18c-0.098,0.064-0.184,0.135-0.219,0.19
			c-0.038,0.057-0.037,0.077-0.032,0.142C2.959,44.613,3,44.709,3.065,44.806c0.063,0.099,0.149,0.197,0.23,0.291
			c0.086,0.089,0.176,0.174,0.274,0.247c0.195,0.147,0.416,0.256,0.657,0.328c0.242,0.07,0.5,0.105,0.767,0.114
			c0.534,0.018,1.092-0.062,1.654-0.16c0.563-0.099,1.133-0.223,1.721-0.315c0.147-0.023,0.295-0.044,0.445-0.062
			c0.076-0.008,0.143-0.019,0.248-0.023c0.094-0.003,0.181,0.002,0.265,0.01c0.332,0.034,0.622,0.106,0.911,0.18
			c0.572,0.149,1.123,0.32,1.662,0.42c0.265,0.048,0.537,0.078,0.743,0.046c0.103-0.015,0.171-0.049,0.199-0.077
			c0.016-0.016,0.027-0.028,0.04-0.059c0.03-0.07,0.061-0.14,0.093-0.209c0.257-0.55,0.561-1.07,0.92-1.56
			c0.36-0.487,0.776-0.947,1.288-1.319c0.256-0.185,0.541-0.343,0.852-0.455c0.313-0.107,0.651-0.165,0.993-0.139
			c0.177,0.012,0.352,0.053,0.512,0.111c0.159,0.056,0.307,0.133,0.421,0.185c0.053,0.026,0.107,0.04,0.092,0.036
			c-0.004,0.001-0.036,0.002-0.055,0.014c-0.022,0.014-0.026,0.018-0.024,0.017c0.008-0.006,0.033-0.053,0.052-0.103
			c0.021-0.05,0.039-0.112,0.057-0.174c0.035-0.124,0.065-0.268,0.09-0.394c0.011-0.051,0.013-0.096,0.011-0.117
			c-0.005-0.023,0.003-0.001,0.016,0.007c0.011,0.006-0.009-0.01-0.055-0.018c-0.045-0.009-0.106-0.014-0.175-0.017
			c-0.069-0.004-0.145-0.005-0.232-0.013c-0.087-0.009-0.186-0.019-0.31-0.074c-0.061-0.028-0.129-0.072-0.185-0.136
			c-0.056-0.064-0.093-0.142-0.112-0.211c-0.036-0.141-0.021-0.248-0.006-0.342c0.017-0.093,0.045-0.178,0.067-0.245l0.07-0.213
			c0.045-0.144,0.099-0.278,0.149-0.417c0.05-0.138,0.102-0.276,0.155-0.411c0.426-1.089,0.881-2.158,1.343-3.227
			c0.463-1.068,0.935-2.13,1.416-3.189c0.239-0.53,0.486-1.057,0.736-1.582c0.253-0.525,0.501-1.049,0.779-1.568l0.249,0.13
			c-0.504,1.036-0.95,2.112-1.411,3.175c-0.456,1.067-0.902,2.139-1.339,3.213c-0.435,1.075-0.865,2.154-1.261,3.238
			c-0.051,0.135-0.099,0.271-0.146,0.406c-0.046,0.135-0.098,0.271-0.137,0.406l-0.063,0.202c-0.024,0.071-0.037,0.126-0.045,0.176
			c-0.008,0.048-0.003,0.09,0,0.09c0.001,0.001-0.003-0.011-0.01-0.02c-0.008-0.01-0.014-0.013-0.009-0.011
			c0.009,0.004,0.057,0.014,0.114,0.016c0.058,0.003,0.127,0.003,0.204,0.003c0.077,0.001,0.16,0.003,0.259,0.017
			c0.096,0.016,0.22,0.043,0.346,0.14c0.062,0.048,0.115,0.115,0.15,0.184c0.035,0.069,0.054,0.137,0.065,0.199
			c0.018,0.123,0.009,0.225-0.005,0.316c-0.028,0.16-0.057,0.3-0.098,0.457c-0.021,0.078-0.043,0.155-0.076,0.24
			c-0.034,0.085-0.068,0.173-0.152,0.279c-0.046,0.053-0.101,0.111-0.19,0.155c-0.084,0.043-0.19,0.061-0.266,0.055
			c-0.162-0.011-0.244-0.056-0.324-0.087c-0.151-0.067-0.263-0.123-0.378-0.162c-0.114-0.039-0.225-0.063-0.338-0.069
			c-0.238-0.015-0.484,0.029-0.719,0.112c-0.235,0.088-0.462,0.215-0.675,0.373c-0.426,0.316-0.796,0.731-1.12,1.18
			c-0.325,0.45-0.608,0.938-0.839,1.442c-0.029,0.063-0.056,0.126-0.083,0.189c-0.042,0.103-0.114,0.215-0.203,0.299
			c-0.182,0.175-0.401,0.243-0.583,0.274c-0.371,0.055-0.685,0.009-0.99-0.041c-0.605-0.108-1.166-0.28-1.719-0.418
			c-0.274-0.068-0.55-0.134-0.797-0.158c-0.061-0.006-0.119-0.009-0.17-0.007c-0.039,0-0.116,0.011-0.185,0.018
			c-0.138,0.016-0.278,0.036-0.418,0.057c-0.559,0.087-1.126,0.208-1.707,0.311c-0.581,0.101-1.18,0.19-1.809,0.169
			c-0.314-0.011-0.635-0.053-0.952-0.145C3.7,46.29,3.392,46.139,3.123,45.936C2.988,45.836,2.866,45.72,2.751,45.6
			c-0.055-0.062-0.108-0.125-0.16-0.189c-0.05-0.065-0.099-0.133-0.146-0.206C2.353,45.06,2.263,44.89,2.223,44.67
			c-0.017-0.112-0.018-0.237,0.01-0.359c0.027-0.123,0.084-0.235,0.149-0.325c0.132-0.184,0.285-0.29,0.429-0.384
			c0.145-0.09,0.288-0.16,0.43-0.224c0.284-0.127,0.562-0.227,0.838-0.327c0.553-0.196,1.097-0.38,1.632-0.586
			c0.535-0.205,1.058-0.431,1.569-0.68c1.022-0.498,1.983-1.113,2.847-1.85c0.861-0.742,1.653-1.574,2.333-2.489
			c0.68-0.916,1.249-1.916,1.686-2.974c0.434-1.059,0.746-2.174,0.915-3.315C15.229,30.015,15.259,28.851,15.163,27.693z"/>
	</g>
	<g>
		<g>
			<path class="st3" d="M17.431,36.43c0.191,0.976,4.593,8.372,9.565,9.302c-0.295-0.805-0.357-1.152-0.357-1.152
				s3.723,2.124,11.996,0.229c-0.576-0.204-1.118-0.566-1.118-0.566s5.627-1.557,7.55-5.405c2.226-4.456-5.648-2.564-5.648-2.564
				l-18.126-1.329L17.431,36.43z"/>
		</g>
		<g>
			<path d="M17.509,36.473c0.016,0,0.022-0.016,0.021-0.014l0.015,0.048c0.011,0.032,0.022,0.064,0.035,0.096
				c0.025,0.065,0.054,0.129,0.083,0.193c0.059,0.128,0.123,0.254,0.19,0.38c0.133,0.251,0.276,0.498,0.424,0.742
				c0.296,0.488,0.613,0.963,0.945,1.428c0.664,0.929,1.387,1.815,2.173,2.64c0.787,0.822,1.639,1.586,2.576,2.221
				c0.935,0.631,1.966,1.138,3.062,1.337l0,0l-0.215,0.254c-0.054-0.197-0.105-0.394-0.15-0.594c-0.023-0.099-0.045-0.199-0.064-0.3
				c-0.019-0.102-0.037-0.199-0.051-0.308v-0.001l-0.033-0.175l0.164,0.083c0.438,0.22,0.927,0.374,1.411,0.501
				c0.488,0.125,0.983,0.22,1.483,0.289c0.999,0.139,2.011,0.177,3.02,0.154c1.01-0.025,2.017-0.12,3.017-0.262
				c1-0.143,1.993-0.338,2.976-0.572l0,0l-0.022,0.385c-0.202-0.092-0.391-0.198-0.573-0.312c-0.183-0.115-0.356-0.235-0.527-0.368
				l0,0l-0.153-0.102l0.179-0.057c0.7-0.224,1.39-0.502,2.058-0.815c0.669-0.314,1.321-0.662,1.941-1.059
				c0.619-0.398,1.209-0.84,1.745-1.338c0.535-0.498,1.015-1.056,1.395-1.675c0.187-0.31,0.358-0.633,0.481-0.968
				c0.125-0.332,0.205-0.682,0.168-1.011c-0.019-0.163-0.07-0.317-0.154-0.453c-0.084-0.135-0.204-0.25-0.341-0.345
				c-0.277-0.19-0.623-0.295-0.973-0.36c-0.708-0.126-1.449-0.107-2.179-0.046c-0.731,0.067-1.465,0.183-2.179,0.343l-0.026,0.006
				l-0.024-0.002l-9.061-0.687l-9.059-0.715l0,0l0.038-0.006C20.056,35.517,18.788,35.995,17.509,36.473z M17.354,36.387
				c1.296-0.511,2.602-1.022,3.907-1.523l0.018-0.007l0.02,0.002l0,0l9.067,0.614l9.065,0.641l-0.05,0.004
				c0.737-0.168,1.475-0.285,2.225-0.355c0.749-0.065,1.509-0.088,2.269,0.045c0.377,0.071,0.762,0.181,1.103,0.411
				c0.169,0.115,0.325,0.263,0.437,0.443c0.113,0.18,0.18,0.388,0.205,0.593c0.046,0.415-0.051,0.81-0.186,1.171
				c-0.136,0.364-0.317,0.699-0.516,1.025c-0.403,0.647-0.907,1.223-1.462,1.735c-0.555,0.513-1.169,0.957-1.808,1.35
				c-0.64,0.393-1.307,0.739-1.994,1.038c-0.689,0.296-1.388,0.56-2.114,0.758l0.026-0.159l0,0c0.18,0.095,0.371,0.182,0.56,0.258
				c0.19,0.077,0.383,0.143,0.575,0.192l0.701,0.18l-0.724,0.205l0,0c-0.998,0.218-2.005,0.398-3.02,0.523
				c-1.014,0.125-2.036,0.203-3.058,0.209c-1.022,0.005-2.047-0.053-3.059-0.213c-0.506-0.079-1.008-0.185-1.502-0.322
				c-0.494-0.14-0.979-0.3-1.446-0.546l0.131-0.093l0,0c0.027,0.089,0.062,0.185,0.096,0.277c0.035,0.093,0.072,0.185,0.111,0.277
				c0.077,0.184,0.158,0.366,0.243,0.547l0.141,0.302l-0.356-0.048l0,0c-1.166-0.23-2.228-0.778-3.18-1.44
				c-0.953-0.668-1.806-1.458-2.592-2.303c-0.784-0.848-1.5-1.754-2.156-2.701c-0.327-0.474-0.64-0.958-0.932-1.455
				c-0.146-0.249-0.287-0.5-0.418-0.758c-0.066-0.129-0.129-0.259-0.188-0.392c-0.029-0.067-0.058-0.134-0.084-0.204
				c-0.013-0.034-0.025-0.07-0.037-0.106l-0.016-0.055C17.348,36.473,17.346,36.421,17.354,36.387z"/>
		</g>
	</g>
	<g>
		<path class="st4" d="M21.316,33.858c-1.483,2.453,1.18,7.203,4.25,8.338c-0.222-0.739,0.182-1.676,0.182-1.676
			s0.381,3.912,8.102,3.325c-0.473-0.3-0.895-1.118-0.692-1.051c3.012,0.982,6.354-0.955,6.005-1.183
			c-0.894-0.588,1.098-0.314,3.11-2.697c-2.652-1.051-2.001-5.119-2.001-5.119l-3.873-0.399l-11.838-0.069L21.316,33.858z"/>
	</g>
	<g>
		<g>
			<path class="st3" d="M17.484,35.897c-3.612-5.881-3.074-10.806-2.312-14.512c0,0,0.649,0.721,1.424,0.871
				c-0.434-1.341-0.869-2.899-0.144-4.799l0.962,0.809c0,0-0.229-4.732,6.091-7.628l-0.424,2.151c0,0,3.288-5.772,15.657-2.959
				c-1.3,0.797-1.863,1.945-1.863,1.945s6.641-2.109,10.89,6.784c-1.16-0.68-2.151-0.488-2.151-0.488s4.482,4.584,3.136,10.225
				l-0.827-0.916c0,0,0.818,5.309-2.101,9.367c0,0-2.825-2.797-7.15-2.766s-15.243-0.676-15.909-0.553
				C22.098,33.552,17.484,35.897,17.484,35.897z"/>
		</g>
		<g>
			<path d="M17.459,35.985c-0.193-0.271-0.395-0.592-0.538-0.854c-0.16-0.273-0.305-0.554-0.454-0.833
				c-0.288-0.564-0.55-1.14-0.785-1.729c-0.471-1.176-0.816-2.405-1.022-3.659c-0.206-1.254-0.272-2.531-0.207-3.801
				c0.061-1.27,0.249-2.53,0.493-3.771l0.086-0.435l0.312,0.327l0,0c0.073,0.095,0.169,0.2,0.263,0.293
				c0.095,0.094,0.197,0.184,0.303,0.267c0.212,0.165,0.448,0.3,0.705,0.377l-0.104,0.117l0,0c-0.273-0.772-0.518-1.572-0.586-2.411
				c-0.035-0.418-0.026-0.842,0.031-1.261c0.056-0.419,0.159-0.832,0.297-1.231l0.096-0.278l0.239,0.191l0,0l0.883,0.902
				l-0.149,0.074l0,0c-0.008-0.227,0.008-0.441,0.033-0.658c0.025-0.217,0.063-0.432,0.11-0.644
				c0.094-0.426,0.226-0.842,0.394-1.245c0.167-0.403,0.368-0.792,0.596-1.164c0.23-0.371,0.489-0.724,0.769-1.059
				c0.277-0.338,0.588-0.646,0.906-0.945c0.164-0.144,0.324-0.293,0.497-0.427l0.255-0.205l0.264-0.194
				c0.706-0.514,1.463-0.953,2.249-1.329l0.456-0.217l-0.091,0.506l0,0l-0.591,2.118l-0.167-0.063l0,0
				c0.192-0.314,0.424-0.58,0.671-0.838c0.248-0.255,0.516-0.489,0.796-0.707c0.564-0.432,1.176-0.798,1.821-1.093
				c0.644-0.297,1.315-0.532,2-0.713c0.686-0.178,1.384-0.302,2.086-0.391c1.406-0.159,2.827-0.167,4.234-0.049
				c1.408,0.116,2.804,0.342,4.182,0.639l0.562,0.122l-0.489,0.326h-0.001c-0.189,0.106-0.376,0.216-0.552,0.346
				c-0.179,0.126-0.348,0.267-0.51,0.416c-0.163,0.149-0.315,0.31-0.458,0.479c-0.142,0.169-0.278,0.35-0.389,0.535l-0.109-0.127
				h0.001c0.576-0.167,1.161-0.231,1.752-0.244c0.589-0.01,1.18,0.046,1.759,0.162c1.159,0.232,2.264,0.72,3.239,1.391
				c0.976,0.671,1.826,1.514,2.549,2.445c0.727,0.931,1.335,1.948,1.855,3.003l0.356,0.721l-0.726-0.382l0,0
				c-0.145-0.097-0.295-0.193-0.453-0.27c-0.157-0.083-0.323-0.146-0.492-0.204c-0.17-0.055-0.345-0.096-0.523-0.124
				c-0.176-0.027-0.363-0.039-0.533-0.027l0.048-0.152l0,0c0.649,0.681,1.202,1.434,1.694,2.229
				c0.489,0.797,0.904,1.642,1.218,2.528c0.313,0.886,0.523,1.813,0.597,2.757c0.076,0.943,0.007,1.901-0.2,2.83l0,0l-0.167,0.469
				l-0.253-0.361l-0.713-1.019l0,0l0.157-0.075c0.118,0.821,0.147,1.643,0.126,2.468c-0.026,0.823-0.108,1.647-0.264,2.46
				c-0.155,0.812-0.379,1.614-0.689,2.386c-0.304,0.774-0.704,1.513-1.177,2.202l0,0l-0.151,0.218l-0.197-0.189
				c-0.206-0.197-0.446-0.393-0.684-0.573c-0.241-0.182-0.49-0.353-0.746-0.514c-0.512-0.321-1.049-0.605-1.607-0.838
				c-0.556-0.237-1.135-0.421-1.723-0.559c-0.589-0.133-1.19-0.215-1.794-0.242c-0.151-0.006-0.302-0.007-0.454-0.009l-0.465-0.002
				l-0.927-0.015c-0.618-0.014-1.235-0.034-1.852-0.056c-1.233-0.045-2.466-0.102-3.698-0.162c-2.464-0.118-4.927-0.262-7.388-0.369
				c-0.308-0.013-0.615-0.024-0.922-0.031c-0.153-0.003-0.307-0.006-0.456-0.003c-0.078,0.003-0.14,0.001-0.204,0.019
				c-0.066,0.017-0.137,0.042-0.208,0.067c-0.567,0.216-1.127,0.479-1.685,0.737c-0.557,0.261-1.113,0.528-1.666,0.798l-0.832,0.409
				l-0.414,0.205l-0.207,0.103l-0.104,0.052l-0.052,0.026l-0.026,0.013l-0.014,0.007C17.514,35.984,17.483,35.988,17.459,35.985z
				 M17.508,35.81c-0.015-0.008-0.037-0.008-0.051-0.001l0.011-0.006l0.026-0.013l0.051-0.026l0.103-0.053l0.206-0.105l0.413-0.209
				l0.827-0.415c0.552-0.275,1.106-0.548,1.662-0.815c0.559-0.265,1.113-0.532,1.696-0.761c0.074-0.028,0.148-0.055,0.231-0.077
				c0.085-0.025,0.179-0.025,0.254-0.029c0.159-0.005,0.313-0.003,0.468-0.002c0.31,0.005,0.618,0.013,0.927,0.023
				c2.467,0.085,4.93,0.205,7.394,0.299c1.232,0.048,2.463,0.093,3.695,0.127c0.616,0.016,1.231,0.031,1.846,0.039l0.922,0.006
				l0.46-0.003c0.156,0.002,0.314,0.001,0.471,0.005c0.628,0.022,1.255,0.102,1.869,0.234c0.613,0.138,1.216,0.324,1.797,0.565
				c0.582,0.237,1.142,0.526,1.678,0.855c0.268,0.165,0.528,0.341,0.781,0.528c0.255,0.189,0.496,0.381,0.737,0.608l-0.348,0.029
				l0,0c0.47-0.646,0.876-1.343,1.19-2.083c0.32-0.737,0.561-1.512,0.735-2.301c0.175-0.79,0.279-1.596,0.328-2.406
				c0.044-0.809,0.038-1.628-0.054-2.429l-0.034-0.292l0.191,0.217l0,0l0.941,0.813l-0.419,0.107l0,0
				c0.22-0.875,0.312-1.784,0.264-2.69c-0.046-0.906-0.223-1.807-0.503-2.676c-0.281-0.87-0.664-1.708-1.122-2.504
				c-0.46-0.793-0.991-1.556-1.602-2.235l0,0l-0.129-0.112l0.177-0.041c0.199-0.046,0.389-0.059,0.586-0.062
				c0.195,0,0.392,0.014,0.586,0.047c0.193,0.034,0.388,0.076,0.575,0.141c0.19,0.059,0.372,0.139,0.553,0.225l0,0l-0.369,0.339
				c-0.482-1.041-1.049-2.044-1.731-2.963c-0.679-0.92-1.479-1.753-2.404-2.423c-0.923-0.67-1.975-1.167-3.091-1.419
				c-0.557-0.126-1.129-0.194-1.702-0.198c-0.57-0.003-1.153,0.048-1.698,0.192h-0.001l-0.203,0.078l0.093-0.205
				c0.099-0.217,0.216-0.415,0.345-0.61c0.129-0.193,0.269-0.38,0.423-0.557c0.153-0.177,0.316-0.347,0.492-0.504
				c0.173-0.16,0.363-0.304,0.556-0.443h0.001l0.074,0.448c-1.355-0.318-2.727-0.566-4.111-0.706
				c-1.383-0.142-2.778-0.158-4.16-0.028c-0.69,0.074-1.376,0.183-2.05,0.345c-0.673,0.165-1.333,0.383-1.967,0.661
				c-0.635,0.276-1.238,0.623-1.795,1.033c-0.276,0.207-0.541,0.43-0.787,0.673c-0.242,0.242-0.477,0.506-0.655,0.787l0,0
				l-0.232,0.479l0.064-0.542l0.257-2.184l0,0l0.365,0.288c-0.773,0.338-1.518,0.738-2.215,1.212l-0.26,0.178l-0.252,0.189
				c-0.171,0.124-0.329,0.262-0.492,0.395c-0.315,0.278-0.625,0.565-0.902,0.881c-0.28,0.314-0.54,0.645-0.774,0.995
				c-0.232,0.351-0.438,0.72-0.612,1.103c-0.175,0.383-0.316,0.782-0.421,1.191c-0.104,0.406-0.176,0.832-0.179,1.242l0,0
				l0.029,0.196l-0.177-0.122l-1.041-0.715l0,0l0.336-0.087c-0.148,0.367-0.263,0.747-0.335,1.136
				c-0.072,0.389-0.101,0.787-0.088,1.186c0.024,0.8,0.221,1.592,0.455,2.373l0,0l0.056,0.137l-0.16-0.02
				c-0.298-0.037-0.583-0.144-0.845-0.285c-0.131-0.071-0.257-0.15-0.379-0.236c-0.123-0.088-0.236-0.174-0.355-0.286l0,0
				l0.398-0.108c-0.265,1.223-0.471,2.457-0.554,3.701c-0.087,1.243-0.045,2.495,0.134,3.728c0.179,1.234,0.495,2.448,0.939,3.618
				c0.221,0.585,0.47,1.159,0.744,1.722c0.142,0.279,0.28,0.56,0.434,0.833c0.074,0.136,0.153,0.28,0.219,0.396
				C17.382,35.551,17.443,35.677,17.508,35.81z"/>
		</g>
	</g>
	<g>
		
			<ellipse transform="matrix(0.0207 -0.9998 0.9998 0.0207 3.9039 58.1631)" class="st5" cx="31.642" cy="27.089" rx="7.529" ry="3.878"/>
	</g>
	<g>
		<path class="st6" d="M26.731,18.659c-7.284-1.7-8.626,4.121-8.626,4.121s-1.14-0.959-1.034-3.886
			c0.796,2.141,1.481,2.369,1.97,2.505c0.189,0.052,0,0-0.078-0.18c-1.357-3.132,0.979-7.449,3.282-8.916
			c-0.68,2.278-0.366,3.647,0.242,5.251c0.12-0.478-0.368-7.49,13.712-7.198c0,0-1.845,1.861-1.959,3.469
			c2.345-1.319,7.879-0.473,11.879,3.15c0,0-1.932-0.54-2.599,0.455c3.336,2.042,5.041,6.05,4.571,8.841
			c-1.19-1.476-5.161-7.624-6.823-6.051c-2.32-2.621-7.481,0.231-9.451,3.78C31.816,24.001,28.195,19,26.731,18.659z"/>
	</g>
	<g>
		<g>
			<path class="st7" d="M29.476,26.163c0.11,3.826-0.38,7.072-3.44,7.493c-2.378,0.327-4.716-2.599-5.334-5.994
				c-0.69-3.792-0.932-7.066,3.383-8.196C28.4,18.337,29.33,21.06,29.476,26.163z"/>
		</g>
		<g>
			<path d="M29.62,26.158c0.028,0.806,0.033,1.614-0.018,2.423c-0.054,0.808-0.159,1.621-0.403,2.411
				c-0.124,0.393-0.282,0.78-0.497,1.141c-0.214,0.36-0.486,0.695-0.817,0.965c-0.33,0.272-0.715,0.475-1.118,0.606
				c-0.202,0.065-0.408,0.114-0.616,0.148c-0.209,0.035-0.43,0.05-0.645,0.038c-0.433-0.02-0.854-0.144-1.237-0.327
				c-0.384-0.182-0.732-0.425-1.043-0.701c-0.623-0.554-1.122-1.222-1.514-1.94c-0.393-0.717-0.691-1.482-0.897-2.267
				c-0.103-0.392-0.182-0.793-0.245-1.19c-0.065-0.397-0.126-0.795-0.177-1.195c-0.104-0.798-0.177-1.605-0.143-2.416
				c0.034-0.806,0.196-1.631,0.611-2.346c0.208-0.355,0.475-0.675,0.783-0.946c0.308-0.273,0.658-0.492,1.024-0.672
				c0.366-0.181,0.75-0.318,1.14-0.428c0.39-0.109,0.786-0.195,1.188-0.251c0.401-0.052,0.809-0.078,1.215-0.04
				c0.405,0.039,0.81,0.141,1.174,0.333c0.365,0.191,0.679,0.473,0.925,0.801c0.247,0.329,0.433,0.696,0.579,1.076
				c0.291,0.762,0.439,1.565,0.544,2.365C29.535,24.548,29.586,25.354,29.62,26.158z M29.332,26.167
				c-0.014-0.8-0.045-1.6-0.126-2.394c-0.084-0.792-0.21-1.585-0.475-2.333c-0.134-0.372-0.303-0.733-0.536-1.05
				c-0.231-0.317-0.525-0.589-0.87-0.775c-0.344-0.19-0.733-0.291-1.126-0.325c-0.394-0.036-0.793-0.011-1.186,0.051
				c-0.785,0.13-1.559,0.359-2.266,0.71c-0.353,0.178-0.684,0.395-0.98,0.652c-0.296,0.257-0.551,0.56-0.751,0.898
				c-0.405,0.675-0.579,1.471-0.62,2.262c-0.024,0.397-0.011,0.797,0.018,1.195c0.031,0.398,0.074,0.796,0.136,1.191
				c0.062,0.395,0.132,0.79,0.208,1.183c0.072,0.394,0.161,0.78,0.279,1.16c0.233,0.759,0.554,1.49,0.962,2.164
				c0.41,0.671,0.898,1.299,1.492,1.796c0.297,0.246,0.617,0.463,0.96,0.624c0.343,0.16,0.708,0.262,1.077,0.285
				c0.186,0.012,0.368,0.003,0.555-0.028c0.189-0.029,0.375-0.069,0.556-0.124c0.361-0.111,0.702-0.283,0.996-0.517
				c0.596-0.467,0.982-1.169,1.222-1.908c0.242-0.745,0.357-1.534,0.421-2.325C29.342,27.766,29.349,26.966,29.332,26.167z"/>
		</g>
	</g>
	<g>
		<path d="M30.593,25.992c0.193,3.847-0.424,6.757-3.489,7.133c-2.263,0.278-4.667-2.239-5.285-5.634
			c-0.69-3.792-0.932-7.066,3.383-8.196C29.517,18.166,30.314,20.432,30.593,25.992z"/>
		<path d="M26.753,33.222c-2.219,0-4.416-2.466-5.008-5.717c-0.701-3.855-0.927-7.14,3.439-8.283
			c1.692-0.443,2.859-0.371,3.674,0.226c1.282,0.939,1.644,3.199,1.812,6.54l0,0c0.11,2.193-0.057,3.75-0.528,4.9
			c-0.562,1.374-1.552,2.131-3.027,2.312C26.993,33.215,26.873,33.222,26.753,33.222z M27.081,19.089
			c-0.532,0-1.147,0.094-1.86,0.28c-4.24,1.11-4.015,4.329-3.328,8.109c0.61,3.35,2.943,5.848,5.201,5.572
			c2.596-0.318,3.652-2.494,3.423-7.054l0,0c-0.166-3.297-0.516-5.522-1.75-6.425C28.328,19.249,27.776,19.089,27.081,19.089z"/>
	</g>
	<g>
		<g>
			<path class="st7" d="M34.009,26.926c0.453,3.825,2.213,7.259,5.289,6.967c2.391-0.226,3.9-3.521,3.823-7.056
				c-0.08-3.686-0.71-7.092-5.171-7.204C33.489,19.523,33.315,21.072,34.009,26.926z"/>
		</g>
		<g>
			<path d="M34.14,26.91c0.103,0.797,0.262,1.586,0.492,2.353c0.231,0.765,0.531,1.511,0.936,2.191
				c0.404,0.677,0.918,1.295,1.565,1.714c0.644,0.42,1.421,0.597,2.182,0.51c0.372-0.04,0.731-0.168,1.055-0.361
				c0.325-0.193,0.612-0.452,0.867-0.741c0.508-0.585,0.872-1.299,1.135-2.043c0.263-0.747,0.425-1.531,0.507-2.323
				c0.042-0.396,0.064-0.795,0.065-1.193c-0.002-0.399-0.012-0.805-0.031-1.205c-0.041-0.802-0.122-1.602-0.307-2.378
				c-0.185-0.772-0.484-1.524-0.976-2.141c-0.245-0.308-0.538-0.576-0.866-0.793c-0.328-0.219-0.692-0.382-1.07-0.501
				c-0.378-0.12-0.773-0.192-1.17-0.235c-0.397-0.041-0.8-0.048-1.203-0.046c-0.402,0.004-0.804,0.025-1.199,0.083
				c-0.394,0.059-0.786,0.159-1.131,0.346c-0.347,0.184-0.634,0.467-0.816,0.814c-0.185,0.347-0.274,0.74-0.324,1.134
				c-0.095,0.794-0.046,1.603,0.019,2.406C33.938,25.305,34.037,26.108,34.14,26.91z M33.878,26.941
				c-0.087-0.806-0.169-1.613-0.223-2.424c-0.049-0.811-0.082-1.629,0.027-2.445c0.057-0.406,0.159-0.814,0.356-1.184
				c0.193-0.372,0.509-0.681,0.879-0.876c0.369-0.198,0.775-0.3,1.179-0.368c0.405-0.065,0.814-0.091,1.221-0.099
				c0.407-0.007,0.815-0.005,1.224,0.032c0.408,0.039,0.815,0.108,1.211,0.229c0.395,0.118,0.778,0.288,1.13,0.511
				c0.351,0.223,0.669,0.502,0.935,0.823c0.536,0.644,0.863,1.429,1.07,2.223c0.207,0.798,0.305,1.615,0.361,2.428
				c0.027,0.408,0.046,0.812,0.055,1.223c0.007,0.411-0.008,0.822-0.044,1.233c-0.076,0.819-0.236,1.634-0.505,2.419
				c-0.27,0.782-0.644,1.542-1.194,2.19c-0.275,0.322-0.598,0.611-0.971,0.831c-0.371,0.22-0.793,0.37-1.228,0.415
				c-0.426,0.045-0.86,0.024-1.278-0.079c-0.418-0.101-0.815-0.284-1.17-0.519c-0.711-0.476-1.247-1.15-1.655-1.868
				c-0.41-0.721-0.704-1.496-0.925-2.285C34.113,28.56,33.967,27.753,33.878,26.941z"/>
		</g>
	</g>
	<g>
		<g>
			<path d="M35.151,26.456c0.53,3.815,2.404,7.939,5.26,6.758c1.687-0.698,3.749-3.245,3.858-6.694
				c0.153-4.866-0.71-7.092-5.171-7.204S34.365,20.791,35.151,26.456z"/>
		</g>
		<g>
			<path d="M35.295,26.436c0.116,0.788,0.283,1.568,0.508,2.329c0.226,0.761,0.508,1.506,0.877,2.202
				c0.185,0.347,0.392,0.681,0.629,0.989c0.237,0.307,0.507,0.587,0.813,0.808c0.305,0.22,0.65,0.378,1.011,0.429
				c0.36,0.054,0.732-0.001,1.08-0.13c0.35-0.13,0.679-0.332,0.986-0.563c0.309-0.23,0.591-0.499,0.853-0.787
				c0.263-0.288,0.503-0.597,0.719-0.923c0.215-0.327,0.406-0.671,0.577-1.025c0.34-0.709,0.58-1.469,0.712-2.25
				c0.068-0.391,0.103-0.785,0.117-1.184c0.015-0.4,0.025-0.8,0.023-1.2c0-0.4-0.019-0.799-0.054-1.197
				c-0.036-0.397-0.086-0.794-0.176-1.181c-0.088-0.387-0.207-0.768-0.376-1.123c-0.17-0.355-0.389-0.687-0.663-0.965
				c-0.273-0.279-0.596-0.508-0.949-0.679c-0.353-0.172-0.73-0.293-1.115-0.383c-0.773-0.174-1.575-0.223-2.373-0.224
				c-0.399,0.002-0.799,0.018-1.192,0.077c-0.392,0.059-0.782,0.152-1.133,0.33c-0.351,0.175-0.651,0.442-0.849,0.777
				c-0.2,0.335-0.303,0.721-0.358,1.111c-0.055,0.391-0.065,0.789-0.056,1.187c0.009,0.398,0.039,0.796,0.077,1.194
				C35.061,24.85,35.175,25.644,35.295,26.436z M35.009,26.475c-0.099-0.797-0.193-1.597-0.251-2.401
				c-0.028-0.402-0.048-0.806-0.047-1.211c0.002-0.405,0.021-0.811,0.089-1.214c0.068-0.401,0.185-0.803,0.401-1.158
				c0.215-0.355,0.543-0.637,0.913-0.814c0.371-0.177,0.77-0.278,1.17-0.338c0.401-0.058,0.805-0.085,1.208-0.096
				c0.804-0.016,1.618,0.009,2.415,0.182c0.397,0.085,0.79,0.211,1.158,0.394c0.368,0.182,0.71,0.423,0.994,0.722
				c0.285,0.298,0.509,0.65,0.679,1.021c0.17,0.372,0.288,0.764,0.374,1.159c0.172,0.793,0.226,1.601,0.251,2.406
				c0.013,0.403,0.014,0.806,0.009,1.208c-0.006,0.403-0.025,0.811-0.075,1.214c-0.1,0.808-0.312,1.603-0.633,2.358
				c-0.319,0.755-0.757,1.461-1.296,2.087c-0.548,0.614-1.2,1.168-2.01,1.468c-0.404,0.145-0.853,0.204-1.287,0.131
				c-0.435-0.069-0.837-0.265-1.177-0.518c-0.34-0.256-0.628-0.565-0.877-0.896c-0.249-0.331-0.461-0.685-0.649-1.049
				c-0.374-0.729-0.652-1.496-0.873-2.276C35.276,28.073,35.116,27.278,35.009,26.475z"/>
		</g>
	</g>
	<g>
		<g>
			<path class="st8" d="M16.609,26.852c1.483-2.659,6.465-9.616,13.346-5.437c0.4-5.473-7.59-6.761-11.625-1.66
				c1.542,0.146,1.703,0.332,1.703,0.332S17.196,20.712,16.609,26.852z"/>
		</g>
		<g>
			<g>
				<path d="M16.636,26.769c-0.001-0.023-0.009-0.045-0.018-0.058c-0.01-0.014-0.017-0.019-0.016-0.026
					c-0.002-0.002,0.015-0.03,0.024-0.046l0.031-0.056l0.125-0.225c0.084-0.15,0.172-0.296,0.261-0.443
					c0.179-0.292,0.366-0.58,0.561-0.862c0.389-0.566,0.817-1.105,1.276-1.618c0.917-1.024,1.98-1.942,3.211-2.599
					c0.615-0.326,1.271-0.584,1.954-0.743c0.682-0.157,1.39-0.218,2.088-0.163c0.699,0.048,1.385,0.212,2.036,0.455
					c0.651,0.244,1.262,0.574,1.834,0.955l0,0l-0.132,0.068c0.018-0.636-0.062-1.275-0.295-1.855c-0.115-0.29-0.26-0.566-0.437-0.82
					c-0.177-0.254-0.387-0.484-0.617-0.691c-0.461-0.413-1.015-0.718-1.601-0.926c-0.588-0.205-1.21-0.32-1.836-0.345
					c-1.254-0.052-2.52,0.22-3.665,0.75c-1.148,0.529-2.177,1.318-3.017,2.287l-0.06-0.141c0.292,0.011,0.585,0.026,0.88,0.054
					c0.147,0.014,0.295,0.031,0.445,0.057c0.075,0.012,0.15,0.028,0.227,0.047c0.039,0.011,0.078,0.021,0.119,0.036
					c0.021,0.007,0.043,0.016,0.065,0.026c0.013,0.006,0.024,0.011,0.038,0.019c0.018,0.013,0.019,0.006,0.066,0.051l0.001,0.001
					l0.218,0.24l-0.323,0.076c-0.051,0.012-0.132,0.041-0.199,0.069c-0.07,0.029-0.139,0.064-0.207,0.1
					c-0.136,0.074-0.267,0.162-0.392,0.257c-0.252,0.19-0.478,0.419-0.683,0.665c-0.409,0.495-0.731,1.068-0.984,1.669
					c-0.254,0.601-0.447,1.232-0.592,1.873c-0.073,0.321-0.135,0.645-0.188,0.97l-0.073,0.478c-0.01,0.067-0.026,0.126-0.05,0.191
					C16.684,26.614,16.657,26.689,16.636,26.769z M16.584,26.936c-0.003-0.085-0.012-0.175-0.018-0.274
					c-0.006-0.099-0.004-0.205,0.004-0.303l0.007-0.073l0.008-0.063l0.015-0.124l0.031-0.248c0.045-0.331,0.099-0.66,0.165-0.988
					c0.13-0.656,0.309-1.304,0.554-1.932c0.244-0.627,0.563-1.233,0.984-1.773c0.212-0.268,0.448-0.522,0.72-0.739
					c0.135-0.109,0.278-0.211,0.431-0.299c0.077-0.044,0.155-0.086,0.237-0.123c0.085-0.038,0.159-0.07,0.269-0.099l-0.104,0.316
					l0.001,0.001c0.033,0.032,0.019,0.016,0.022,0.019c-0.001-0.002-0.007-0.005-0.01-0.007c-0.01-0.006-0.021-0.012-0.034-0.019
					c-0.026-0.013-0.056-0.026-0.086-0.038c-0.062-0.024-0.127-0.046-0.194-0.066c-0.134-0.041-0.273-0.074-0.413-0.105
					c-0.28-0.062-0.566-0.112-0.852-0.158l-0.146-0.023l0.085-0.118c0.766-1.059,1.793-1.95,2.983-2.536
					c1.186-0.59,2.522-0.898,3.857-0.835c0.666,0.032,1.332,0.153,1.961,0.39c0.628,0.233,1.223,0.578,1.713,1.047
					c0.493,0.461,0.869,1.05,1.08,1.686c0.211,0.638,0.265,1.316,0.188,1.969l-0.016,0.136l-0.116-0.068l0,0
					c-1.186-0.647-2.477-1.103-3.804-1.17c-1.324-0.075-2.653,0.25-3.83,0.873c-0.591,0.308-1.15,0.68-1.674,1.098
					c-0.525,0.417-1.02,0.876-1.482,1.367c-0.464,0.49-0.892,1.014-1.301,1.552c-0.204,0.27-0.399,0.546-0.589,0.827
					c-0.094,0.14-0.187,0.283-0.278,0.425l-0.135,0.215l-0.073,0.119c-0.02,0.03-0.048,0.063-0.079,0.086
					C16.634,26.906,16.605,26.921,16.584,26.936z"/>
			</g>
		</g>
	</g>
	<g>
		<g>
			<path class="st8" d="M47.027,27.25c-1.372-2.719-6.061-9.875-13.109-5.985c-0.172-5.485,7.864-6.44,11.684-1.177
				c-1.546,0.082-1.716,0.261-1.716,0.261S46.696,21.091,47.027,27.25z"/>
		</g>
		<g>
			<g>
				<path d="M47.049,27.334c-0.021-0.015-0.049-0.032-0.079-0.056s-0.057-0.058-0.076-0.089l-0.069-0.122l-0.126-0.22
					c-0.085-0.146-0.172-0.292-0.26-0.436c-0.177-0.289-0.361-0.573-0.554-0.851c-0.387-0.555-0.793-1.096-1.236-1.604
					c-0.441-0.509-0.917-0.988-1.424-1.427c-0.506-0.44-1.05-0.835-1.627-1.167c-1.15-0.671-2.464-1.051-3.79-1.031
					c-1.329,0.011-2.638,0.414-3.849,1.011l0,0l-0.119,0.063l-0.01-0.136c-0.049-0.655,0.033-1.331,0.27-1.959
					c0.237-0.628,0.636-1.2,1.149-1.64c0.508-0.448,1.117-0.768,1.754-0.975c0.638-0.21,1.309-0.304,1.975-0.308
					c1.336-0.008,2.659,0.356,3.819,0.994c1.164,0.635,2.153,1.568,2.875,2.658l0.081,0.121l-0.146,0.017
					c-0.288,0.034-0.575,0.072-0.858,0.122c-0.141,0.025-0.282,0.053-0.417,0.088c-0.068,0.017-0.134,0.036-0.197,0.057
					c-0.03,0.011-0.061,0.022-0.087,0.034c-0.014,0.006-0.025,0.012-0.035,0.017c-0.003,0.003-0.009,0.006-0.01,0.007
					c0.003-0.003-0.012,0.013,0.023-0.018l0.001-0.001l-0.091-0.32c0.108,0.034,0.181,0.069,0.264,0.11
					c0.081,0.041,0.157,0.086,0.232,0.132c0.149,0.095,0.288,0.202,0.418,0.317c0.263,0.228,0.489,0.491,0.689,0.768
					c0.399,0.557,0.692,1.176,0.91,1.812c0.219,0.637,0.371,1.293,0.474,1.953c0.052,0.33,0.092,0.662,0.124,0.994l0.021,0.249
					l0.01,0.125l0.005,0.063l0.004,0.073c0.004,0.098,0.002,0.204-0.008,0.303C47.068,27.16,47.055,27.25,47.049,27.334z
					 M47.004,27.165c-0.018-0.081-0.042-0.157-0.063-0.223c-0.022-0.067-0.035-0.126-0.042-0.193l-0.052-0.48
					c-0.04-0.327-0.089-0.653-0.148-0.977c-0.118-0.647-0.285-1.284-0.514-1.896c-0.228-0.611-0.526-1.196-0.914-1.709
					c-0.195-0.254-0.411-0.492-0.655-0.693c-0.121-0.101-0.248-0.194-0.382-0.273c-0.067-0.039-0.134-0.077-0.203-0.109
					c-0.065-0.032-0.145-0.063-0.196-0.077l-0.319-0.089l0.228-0.231l0.001-0.001c0.049-0.043,0.049-0.036,0.068-0.048
					c0.015-0.008,0.026-0.012,0.038-0.018c0.023-0.009,0.046-0.017,0.066-0.023c0.042-0.013,0.082-0.022,0.121-0.031
					c0.078-0.016,0.154-0.028,0.229-0.037c0.151-0.019,0.298-0.03,0.447-0.038c0.295-0.016,0.589-0.019,0.881-0.017l-0.066,0.138
					c-0.799-1.003-1.795-1.834-2.92-2.41c-1.123-0.576-2.376-0.901-3.631-0.901c-0.627-0.001-1.253,0.088-1.849,0.269
					c-0.595,0.183-1.16,0.466-1.638,0.859c-0.238,0.197-0.457,0.418-0.645,0.665c-0.188,0.246-0.344,0.516-0.471,0.801
					c-0.257,0.57-0.364,1.204-0.372,1.841l-0.129-0.074l0,0c0.587-0.357,1.212-0.662,1.872-0.878
					c0.659-0.215,1.352-0.351,2.053-0.37c0.7-0.026,1.404,0.065,2.08,0.25c0.675,0.188,1.32,0.473,1.921,0.823
					c1.203,0.707,2.227,1.668,3.101,2.729c0.437,0.532,0.843,1.088,1.208,1.67c0.184,0.29,0.358,0.586,0.525,0.885
					c0.083,0.15,0.166,0.3,0.243,0.453l0.115,0.23l0.028,0.058c0.008,0.016,0.024,0.046,0.022,0.047
					c0.001,0.007-0.007,0.011-0.017,0.025C47.014,27.121,47.006,27.143,47.004,27.165z"/>
			</g>
		</g>
	</g>
	<g>
		
			<ellipse transform="matrix(0.0207 -0.9998 0.9998 0.0207 3.7182 50.5065)" class="st7" cx="27.641" cy="23.355" rx="1.891" ry="1.326"/>
		<path d="M27.621,25.351c-0.007,0-0.014,0-0.022,0c-0.788-0.016-1.411-0.925-1.388-2.024c0.023-1.099,0.679-1.981,1.471-1.964
			c0.788,0.016,1.411,0.925,1.388,2.024C29.048,24.476,28.399,25.351,27.621,25.351z M27.661,21.571c-0.666,0-1.22,0.785-1.24,1.761
			c-0.021,0.985,0.511,1.798,1.184,1.812c0.006,0,0.012,0,0.017,0c0.666,0,1.22-0.785,1.24-1.761
			c0.021-0.985-0.511-1.798-1.184-1.812C27.672,21.571,27.666,21.571,27.661,21.571z"/>
	</g>
	<g>
		
			<ellipse transform="matrix(0.0207 -0.9998 0.9998 0.0207 -1.0578 52.2721)" class="st7" cx="26.154" cy="26.676" rx="0.946" ry="0.663"/>
		<path d="M26.144,27.675c-0.004,0-0.007,0-0.011,0c-0.394-0.008-0.705-0.462-0.694-1.012c0.006-0.263,0.083-0.51,0.218-0.694
			c0.139-0.19,0.328-0.291,0.517-0.288c0.394,0.008,0.706,0.462,0.694,1.012C26.858,27.237,26.533,27.675,26.144,27.675z
			 M26.164,25.784c-0.156,0-0.306,0.087-0.423,0.246c-0.123,0.167-0.193,0.393-0.198,0.635c-0.01,0.492,0.255,0.899,0.592,0.906
			c0.003,0,0.006,0,0.009,0c0.333,0,0.61-0.392,0.62-0.88l0,0c0.01-0.492-0.255-0.899-0.592-0.906
			C26.17,25.784,26.167,25.784,26.164,25.784z"/>
	</g>
	<g>
		
			<ellipse transform="matrix(0.0207 -0.9998 0.9998 0.0207 16.4741 63.5281)" class="st7" cx="40.666" cy="23.355" rx="1.891" ry="1.326"/>
		<path d="M40.646,25.351c-0.007,0-0.014,0-0.022,0c-0.788-0.016-1.411-0.925-1.388-2.024c0.011-0.526,0.166-1.019,0.436-1.388
			c0.278-0.38,0.651-0.585,1.035-0.577c0.788,0.016,1.411,0.925,1.388,2.024l0,0C42.073,24.476,41.425,25.351,40.646,25.351z
			 M40.686,21.571c-0.313,0-0.612,0.174-0.845,0.492c-0.245,0.335-0.386,0.786-0.396,1.269c-0.021,0.985,0.511,1.798,1.184,1.812
			c0.006,0,0.012,0,0.017,0c0.666,0,1.22-0.785,1.24-1.761c0.021-0.985-0.511-1.798-1.184-1.812
			C40.698,21.571,40.691,21.571,40.686,21.571z"/>
	</g>
	<g>
		
			<ellipse transform="matrix(0.0207 -0.9998 0.9998 0.0207 11.6977 65.2931)" class="st7" cx="39.178" cy="26.675" rx="0.946" ry="0.663"/>
		<path d="M39.17,27.675c-0.004,0-0.007,0-0.011,0c-0.394-0.008-0.706-0.462-0.694-1.012c0.006-0.263,0.083-0.51,0.218-0.694
			c0.139-0.19,0.328-0.291,0.517-0.288c0.394,0.008,0.706,0.462,0.694,1.012c-0.006,0.263-0.083,0.51-0.218,0.694
			C39.54,27.573,39.36,27.675,39.17,27.675z M39.189,25.784c-0.156,0-0.306,0.087-0.423,0.246c-0.123,0.167-0.193,0.393-0.198,0.635
			c-0.01,0.492,0.255,0.899,0.592,0.906c0.16,0.001,0.313-0.084,0.431-0.246c0.123-0.167,0.193-0.393,0.198-0.635l0,0
			c0.01-0.492-0.255-0.899-0.592-0.906C39.195,25.784,39.192,25.784,39.189,25.784z"/>
	</g>
	<g>
		<path class="st9" d="M31.837,39.045c-0.241,0.007-0.481,0.02-0.715,0.028c-0.604,0.02-0.799,0.21-1.555,0.516
			c-0.371,0.151-0.772,0.31-0.968,0.659c-0.623-0.239-0.959-0.86-1.442-1.296c-0.74-0.668-0.747-1.491-0.913-1.892
			c-0.231-0.555,0.149-0.109,0.231-0.648c0.01-0.065,0.025-0.138,0.082-0.172c0.038-0.023,0.086-0.021,0.131-0.015
			c0.669,0.08,1.141,0.668,1.704,1.039c0.184,0.122,0.461-0.113,0.665-0.031c0.217,0.087,0.423-0.123,0.609-0.008
			c0.408,0.253,1.015,0.256,1.479,0.272c0.576,0.019,1.152,0.008,1.726-0.033c0.478-0.035,0.662,0.094,1.072-0.142l2.257-1.02
			c0.247-0.142,0.574-0.155,0.788,0.032c0.002,0.001,0.003,0.003,0.004,0.004c0.045,0.043,0.053,0.111,0.056,0.174
			c0.034,0.696-0.212,1.401-0.672,1.924c-0.297,0.337-0.496,0.713-0.696,1.111c-0.123,0.246-0.567,0.639-0.839,0.418
			c-0.483-0.391-1.039-0.625-1.643-0.797C32.762,39.045,32.297,39.033,31.837,39.045z"/>
	</g>
	<g>
		<path class="st10" d="M31.863,41.137c-0.458-0.022-0.914-0.08-1.363-0.175c-0.43-0.091-0.829-0.243-1.248-0.367
			c-0.268-0.079-0.877-0.197-0.46-0.554c0.315-0.27,0.696-0.463,1.08-0.614c0.401-0.158,0.761-0.18,1.173-0.272
			c0.543-0.12,0.986-0.169,1.534-0.076c0.521,0.089,0.96,0.28,1.461,0.45c0.292,0.098,0.605,0.205,0.785,0.472
			c0.138,0.205-1.502,1.038-1.654,1.076c-0.142,0.036-0.288,0.048-0.433,0.056C32.447,41.15,32.154,41.151,31.863,41.137z"/>
	</g>
	<g>
		<path d="M26.27,36.531c0.165,0.597,0.419,1.161,0.77,1.657c0.346,0.498,0.781,0.927,1.271,1.279
			c0.492,0.349,1.036,0.626,1.61,0.814c0.573,0.191,1.172,0.305,1.775,0.326c0.602,0.026,1.209-0.036,1.787-0.198
			c0.581-0.154,1.13-0.418,1.617-0.769c0.485-0.355,0.903-0.807,1.223-1.328c0.327-0.519,0.551-1.105,0.715-1.714l0.102,0.017
			c-0.064,0.637-0.235,1.271-0.524,1.859c-0.292,0.586-0.708,1.12-1.222,1.543c-0.511,0.429-1.117,0.736-1.751,0.937
			c-0.637,0.195-1.305,0.278-1.969,0.259c-1.324-0.046-2.642-0.488-3.692-1.307c-0.525-0.407-0.976-0.91-1.316-1.478
			c-0.337-0.569-0.561-1.202-0.647-1.847L26.27,36.531z"/>
	</g>
	<g>
		<path d="M28.587,40.247c0.359-0.465,0.869-0.813,1.418-1.039c0.139-0.052,0.279-0.103,0.421-0.149l0.433-0.109l0.441-0.066
			c0.148-0.01,0.297-0.022,0.446-0.028c0.594-0.009,1.192,0.075,1.753,0.269c0.56,0.191,1.092,0.49,1.5,0.911l-0.052,0.063
			c-0.482-0.307-1.005-0.517-1.544-0.652c-0.54-0.132-1.095-0.193-1.649-0.179c-0.138,0.011-0.276,0.015-0.414,0.023l-0.411,0.053
			l-0.407,0.078c-0.133,0.035-0.265,0.076-0.4,0.11c-0.528,0.167-1.031,0.417-1.484,0.768L28.587,40.247z"/>
	</g>
	<g>
		<g>
			<path class="st11" d="M39.688,30.652c-4.378,0.043-6.735,1.491-8.152,1.505c-1.417,0.014-3.802-1.389-8.18-1.346
				c-4.377,0.043-4.916,3.202-10.371,4.226c6.541,4.184,10.223-0.181,13.159,1.518c2.936,1.699,7.967,1.65,10.869-0.106
				c2.902-1.756,8.383,4.534,13.56-1.198C44.831,34.656,44.066,30.61,39.688,30.652z"/>
		</g>
		<g>
			<path d="M39.69,30.828c-1.156,0.025-2.308,0.163-3.431,0.418c-0.562,0.126-1.118,0.276-1.671,0.444
				c-0.553,0.17-1.1,0.355-1.669,0.525c-0.284,0.085-0.576,0.16-0.885,0.214c-0.155,0.025-0.315,0.045-0.483,0.048
				c-0.167,0.001-0.329-0.014-0.485-0.036c-0.619-0.098-1.176-0.279-1.737-0.436c-1.115-0.327-2.231-0.599-3.37-0.75
				c-0.569-0.077-1.142-0.126-1.716-0.15c-0.287-0.012-0.575-0.016-0.862-0.016l-0.424,0.011c-0.14,0.012-0.282,0.017-0.42,0.034
				c-0.558,0.063-1.109,0.178-1.633,0.383c-0.527,0.196-1.026,0.47-1.515,0.773c-0.489,0.304-0.971,0.634-1.467,0.949
				c-0.496,0.316-1.012,0.609-1.545,0.863c-1.07,0.508-2.214,0.845-3.372,1.031l0,0l0.034-0.174
				c0.702,0.421,1.433,0.793,2.192,1.084c0.759,0.291,1.549,0.495,2.351,0.591c0.801,0.102,1.612,0.095,2.415-0.001
				c0.805-0.092,1.599-0.272,2.405-0.452c0.805-0.173,1.639-0.367,2.526-0.287c0.44,0.04,0.885,0.165,1.281,0.38l0.27,0.146
				c0.086,0.049,0.177,0.089,0.266,0.133c0.088,0.045,0.18,0.083,0.272,0.122c0.091,0.041,0.184,0.077,0.276,0.112
				c0.743,0.288,1.529,0.479,2.325,0.59c0.797,0.114,1.606,0.146,2.411,0.116c0.806-0.032,1.608-0.138,2.389-0.323
				c0.779-0.19,1.542-0.452,2.238-0.832l0.266-0.15c0.101-0.058,0.207-0.108,0.315-0.149c0.217-0.084,0.444-0.134,0.668-0.158
				c0.451-0.048,0.89,0.003,1.308,0.088c0.837,0.174,1.616,0.463,2.396,0.722c0.778,0.263,1.555,0.51,2.348,0.666
				c0.792,0.158,1.6,0.215,2.395,0.121c0.794-0.095,1.568-0.357,2.264-0.764c0.698-0.405,1.325-0.934,1.887-1.526l0,0l0.061,0.158
				c-0.502-0.056-1.002-0.135-1.495-0.25c-0.492-0.119-0.976-0.273-1.445-0.463c-0.943-0.374-1.813-0.91-2.629-1.498
				c-0.818-0.584-1.604-1.211-2.481-1.658c-0.437-0.224-0.896-0.399-1.371-0.508C40.667,30.862,40.179,30.819,39.69,30.828z
				 M39.686,30.477c0.514,0.001,1.03,0.056,1.531,0.181c0.5,0.125,0.981,0.32,1.431,0.562c0.906,0.483,1.679,1.138,2.486,1.723
				c0.802,0.592,1.646,1.128,2.565,1.504c0.459,0.188,0.933,0.339,1.415,0.459c0.484,0.115,0.975,0.194,1.469,0.251l0.189,0.022
				l-0.128,0.137l0,0c-0.545,0.627-1.165,1.201-1.882,1.644c-0.712,0.448-1.522,0.752-2.361,0.88
				c-0.84,0.132-1.697,0.081-2.523-0.066c-0.828-0.146-1.63-0.385-2.417-0.634c-0.787-0.246-1.565-0.515-2.347-0.66
				c-0.389-0.07-0.78-0.109-1.15-0.065c-0.185,0.022-0.363,0.064-0.53,0.13c-0.084,0.033-0.164,0.072-0.242,0.117l-0.27,0.156
				c-0.747,0.418-1.551,0.712-2.371,0.912c-0.821,0.197-1.659,0.311-2.5,0.349c-0.841,0.038-1.685-0.003-2.519-0.125
				c-0.834-0.12-1.66-0.323-2.452-0.636c-0.099-0.039-0.197-0.079-0.294-0.124c-0.097-0.044-0.195-0.086-0.29-0.135
				c-0.095-0.049-0.192-0.093-0.285-0.147l-0.272-0.151c-0.327-0.182-0.69-0.289-1.069-0.329c-0.379-0.041-0.774-0.017-1.17,0.032
				c-0.397,0.049-0.797,0.125-1.199,0.204c-0.805,0.16-1.625,0.328-2.461,0.405c-0.835,0.079-1.683,0.071-2.515-0.057
				c-0.831-0.13-1.64-0.372-2.408-0.699c-0.77-0.325-1.496-0.736-2.183-1.2l-0.196-0.132l0.23-0.042l0,0
				c1.133-0.247,2.236-0.614,3.255-1.151c0.509-0.268,0.997-0.573,1.478-0.895c0.48-0.323,0.952-0.666,1.445-0.991
				c0.493-0.324,1.014-0.629,1.575-0.856c0.558-0.233,1.154-0.382,1.754-0.456c0.15-0.021,0.3-0.028,0.451-0.043l0.451-0.017
				c0.296-0.003,0.591-0.002,0.887,0.008c0.591,0.019,1.182,0.063,1.771,0.136c1.176,0.143,2.337,0.414,3.463,0.732
				c0.562,0.152,1.123,0.323,1.658,0.401c0.269,0.037,0.505,0.033,0.774-0.012c0.266-0.044,0.539-0.116,0.816-0.192
				c1.105-0.32,2.253-0.651,3.418-0.844C37.33,30.566,38.51,30.477,39.686,30.477z"/>
		</g>
	</g>
	<g class="st0">
		<path class="st1" d="M33.825,21.404c0.973-0.265,8.053-2.306,12.686,6.891c0.016-2.077-0.148-2.331-1.087-3.484
			c-0.939-1.153-2.012-2.932-3.974-3.765c-1.962-0.833-3.492-1.067-4.903-0.773C34.598,20.677,33.825,21.404,33.825,21.404z"/>
	</g>
	<g class="st0">
		<path class="st1" d="M29.956,21.415c-1.389-0.825-7.931-2.104-12.982,7.404c-0.055-1.893,0.023-2.781,0.788-3.758
			c0.766-0.977,2.221-2.855,4.506-4.095c1.5-0.815,2.56-1.078,4.279-0.8C28.265,20.443,29.956,21.415,29.956,21.415z"/>
	</g>
	<g class="st0">
		<path class="st1" d="M17.897,37.488c0.069,0.7,2.037,0.203,2.549,0.18c0.846-0.036,1.699-0.104,2.529-0.276
			c1.878-0.389,2.464-0.26,3.501,0.217c-0.233-0.549-0.002-1.197-0.002-1.197s-1.099-0.437-2.343-0.256s-2.527,0.831-3.85,0.751
			c-0.46-0.028-2.045-0.011-2.596-0.054C17.684,36.884,17.895,37.461,17.897,37.488z"/>
	</g>
	<g class="st0">
		<path class="st1" d="M36.945,37.394c1.141-0.31,1.694-0.695,2.559-0.208c1.657,0.933,5.135,1.636,5.562,1.654
			c0.427,0.018,0.361-0.995,0.361-0.995s-1.479-0.152-3.257-0.725c-1.778-0.573-3.498-1.116-4.147-0.978
			c-0.649,0.137-1.011,0.31-1.011,0.31S37.112,37.044,36.945,37.394z"/>
	</g>
	<g class="st0">
		<path class="st1" d="M29.509,40.301c0.371-0.405,4.111-0.506,4.886-0.067c0.506-0.169,0.506-0.169,0.506-0.169
			s-0.472-0.674-1.988-0.809s-2.781-0.082-4.12,0.785C29.037,40.268,29.509,40.301,29.509,40.301z"/>
	</g>
	<g>
		<g>
			<path class="st2" d="M28.956,44.177c1.063,1.365-3.766,4.717-5.979,3.8c-1.865-0.773-6.774-3.79-8.665-6.351
				c-2.325-3.149,7.165-12.062,8.835-8.183C25.259,38.342,26.389,40.881,28.956,44.177z"/>
		</g>
		<g>
			<path d="M29.232,43.962c0.11,0.136,0.188,0.311,0.216,0.487c0.03,0.176,0.015,0.346-0.019,0.497
				c-0.072,0.304-0.211,0.549-0.36,0.772c-0.306,0.441-0.672,0.799-1.06,1.123c-0.389,0.324-0.807,0.605-1.245,0.852
				c-0.438,0.247-0.898,0.46-1.386,0.619c-0.487,0.158-1.001,0.269-1.551,0.265c-0.274-0.004-0.557-0.039-0.838-0.131
				c-0.068-0.021-0.144-0.052-0.204-0.077l-0.173-0.076c-0.113-0.053-0.227-0.105-0.337-0.16c-0.883-0.438-1.714-0.936-2.53-1.461
				c-0.815-0.525-1.607-1.084-2.374-1.679c-0.766-0.596-1.509-1.225-2.197-1.921c-0.343-0.349-0.673-0.715-0.973-1.112l-0.112-0.149
				c-0.038-0.053-0.078-0.114-0.113-0.173c-0.07-0.12-0.128-0.247-0.173-0.377c-0.09-0.261-0.126-0.533-0.126-0.796
				c0.002-0.53,0.136-1.028,0.314-1.493c0.181-0.466,0.413-0.903,0.671-1.32c0.515-0.835,1.134-1.592,1.811-2.289
				c0.677-0.697,1.413-1.337,2.22-1.884c0.405-0.272,0.825-0.523,1.272-0.732c0.446-0.206,0.92-0.376,1.429-0.433
				c0.254-0.027,0.519-0.024,0.78,0.04c0.26,0.063,0.514,0.191,0.713,0.378c0.201,0.185,0.346,0.42,0.449,0.655l0.292,0.657
				c0.39,0.875,0.781,1.75,1.184,2.617c0.407,0.866,0.828,1.722,1.279,2.561c0.452,0.838,0.933,1.656,1.458,2.446
				C28.075,42.456,28.64,43.22,29.232,43.962z M28.679,44.393c-0.585-0.771-1.142-1.565-1.657-2.386
				c-0.517-0.82-0.988-1.668-1.42-2.532c-0.433-0.863-0.833-1.74-1.217-2.621c-0.387-0.88-0.76-1.764-1.132-2.648l-0.278-0.664
				c-0.084-0.206-0.198-0.386-0.348-0.529c-0.299-0.29-0.747-0.378-1.19-0.33c-0.446,0.048-0.889,0.205-1.311,0.4
				c-0.423,0.197-0.828,0.438-1.216,0.707c-0.775,0.537-1.49,1.167-2.14,1.853c-0.646,0.69-1.234,1.438-1.712,2.244
				c-0.235,0.405-0.443,0.825-0.597,1.257c-0.152,0.431-0.255,0.88-0.244,1.313c0.006,0.215,0.042,0.425,0.113,0.615
				c0.036,0.095,0.081,0.186,0.134,0.272c0.027,0.043,0.054,0.082,0.087,0.125l0.108,0.135c0.29,0.36,0.613,0.699,0.953,1.022
				c0.682,0.646,1.425,1.235,2.191,1.792c0.768,0.555,1.561,1.078,2.369,1.574c0.405,0.247,0.814,0.486,1.228,0.715
				c0.413,0.229,0.83,0.452,1.25,0.65c0.105,0.05,0.21,0.097,0.315,0.144l0.157,0.066c0.052,0.02,0.086,0.034,0.133,0.048
				c0.176,0.055,0.374,0.078,0.579,0.077c0.412,0.001,0.847-0.093,1.271-0.226c0.85-0.274,1.678-0.71,2.402-1.255
				c0.359-0.274,0.698-0.58,0.949-0.922c0.124-0.169,0.225-0.349,0.269-0.512c0.023-0.082,0.028-0.155,0.02-0.216
				C28.736,44.497,28.717,44.446,28.679,44.393z"/>
		</g>
	</g>
	<g>
		<g>
			<path class="st2" d="M34.494,44.177c-1.063,1.365,3.766,4.717,5.979,3.8c1.865-0.773,6.774-3.79,8.665-6.351
				c2.325-3.149-7.165-12.062-8.835-8.183C38.192,38.342,37.061,40.881,34.494,44.177z"/>
		</g>
		<g>
			<path d="M34.771,44.393c-0.037,0.053-0.057,0.105-0.065,0.167c-0.008,0.062-0.003,0.135,0.02,0.216
				c0.043,0.163,0.145,0.344,0.269,0.512c0.251,0.341,0.59,0.649,0.949,0.922c0.724,0.546,1.552,0.981,2.402,1.255
				c0.425,0.133,0.859,0.227,1.271,0.226c0.205,0.001,0.403-0.023,0.579-0.077c0.047-0.013,0.082-0.028,0.133-0.048l0.157-0.066
				c0.105-0.047,0.21-0.093,0.315-0.144c0.42-0.198,0.837-0.421,1.25-0.65c0.414-0.229,0.823-0.468,1.228-0.715
				c0.808-0.496,1.601-1.018,2.369-1.574c0.766-0.557,1.509-1.146,2.191-1.792c0.34-0.323,0.664-0.662,0.953-1.022l0.108-0.135
				c0.033-0.043,0.06-0.082,0.087-0.125c0.053-0.085,0.098-0.176,0.134-0.272c0.072-0.191,0.107-0.4,0.113-0.615
				c0.012-0.432-0.091-0.881-0.244-1.313c-0.154-0.433-0.361-0.853-0.597-1.257c-0.478-0.807-1.066-1.555-1.712-2.244
				c-0.651-0.686-1.365-1.316-2.14-1.853c-0.387-0.268-0.793-0.509-1.216-0.707c-0.421-0.195-0.865-0.352-1.311-0.4
				c-0.444-0.048-0.891,0.041-1.19,0.33c-0.151,0.143-0.265,0.324-0.348,0.529l-0.278,0.664c-0.372,0.885-0.746,1.769-1.132,2.648
				c-0.385,0.881-0.784,1.758-1.217,2.621c-0.432,0.863-0.903,1.712-1.42,2.532C35.912,42.828,35.355,43.622,34.771,44.393z
				 M34.218,43.962c0.593-0.743,1.157-1.506,1.681-2.297c0.525-0.79,1.007-1.609,1.458-2.446c0.451-0.838,0.872-1.695,1.279-2.561
				c0.403-0.867,0.794-1.742,1.184-2.617l0.292-0.657c0.103-0.235,0.248-0.47,0.449-0.655c0.199-0.187,0.453-0.315,0.713-0.378
				c0.261-0.064,0.526-0.067,0.78-0.04c0.51,0.057,0.983,0.227,1.429,0.433c0.446,0.209,0.867,0.46,1.272,0.732
				c0.807,0.547,1.543,1.187,2.22,1.884c0.677,0.697,1.296,1.454,1.811,2.289c0.258,0.417,0.49,0.854,0.671,1.32
				c0.178,0.466,0.313,0.963,0.314,1.493c0,0.264-0.036,0.535-0.126,0.796c-0.045,0.13-0.103,0.257-0.173,0.377
				c-0.035,0.059-0.075,0.119-0.113,0.173l-0.112,0.149c-0.299,0.397-0.63,0.762-0.973,1.112c-0.688,0.696-1.432,1.325-2.197,1.921
				c-0.766,0.595-1.558,1.155-2.374,1.679c-0.816,0.525-1.646,1.023-2.53,1.461c-0.11,0.055-0.224,0.108-0.337,0.16l-0.173,0.076
				c-0.059,0.025-0.136,0.056-0.204,0.077c-0.28,0.092-0.565,0.127-0.838,0.131c-0.549,0.005-1.063-0.107-1.551-0.265
				c-0.488-0.158-0.948-0.372-1.386-0.619c-0.438-0.247-0.856-0.529-1.245-0.852c-0.389-0.324-0.755-0.681-1.06-1.123
				c-0.149-0.223-0.288-0.468-0.36-0.772c-0.035-0.151-0.05-0.322-0.019-0.497C34.03,44.273,34.108,44.099,34.218,43.962z"/>
		</g>
	</g>
	<g class="st0">
		<path class="st1" d="M51.143,12.783c0.104,0.104,3.052,3.974,2.867,5.213c-0.26,1.746-4.9,7.272-4.9,7.272l-0.359,3.029
			l-0.788-0.839l0.026,2.685c0,0,2.659-4.639,3.128-5.291c0.469-0.652,6.23-6.282,6.23-6.282L51.143,12.783z"/>
	</g>
	<g class="st0">
		<path class="st1" d="M14.219,41.002c-0.688,1.034-1.378,3.717-2.146,3.894c-1.232,0.284-2.102-1.19-3.763-0.483
			s-4.22,1.34-4.694,1.307c0.711,0.326,1.209,0.331,1.396,0.366c0.187,0.035,2.884-0.508,4.288-0.614
			c0.725-0.055,3.58,0.762,3.58,0.762s0.523-1.122,0.898-1.577c0.376-0.454,1.632-1.856,1.632-1.856L14.219,41.002z"/>
	</g>
	<g class="st0">
		<path class="st1" d="M17.988,44.609c0.756,0.443,3.988,1.711,5.369,1.798c1.642,0.104,4.379-0.965,5.265-2.502
			c0,0,0.599,0.626,0.417,1.069s-1.121,1.773-2.007,2.216c-0.886,0.443-3.258,1.381-4.119,0.965
			C22.054,47.737,17.988,44.609,17.988,44.609z"/>
	</g>
	<g class="st0">
		<path class="st1" d="M45.591,44.504c-0.756,0.443-3.988,1.711-5.369,1.798c-1.642,0.104-4.379-0.965-5.265-2.502
			c0,0-0.599,0.626-0.417,1.069c0.183,0.443,1.121,1.773,2.007,2.216s3.258,1.381,4.119,0.965
			C41.525,47.632,45.591,44.504,45.591,44.504z"/>
	</g>
	<g>
		<g>
			<path class="st12" d="M46.126,8.213c0,0-0.132-3.566-0.217-5.275c-0.07-1.396-0.094-1.37,1.325-1.44
				c1.42-0.07,5.275-0.217,5.275-0.217l4.398,4.145l-6.289,6.879L46.126,8.213z"/>
		</g>
		<g>
			<path d="M46.068,8.239c-0.091-1.072-0.152-2.169-0.205-3.266c-0.029-0.548-0.046-1.099-0.069-1.648L45.76,2.505
				c-0.004-0.138-0.008-0.276,0.004-0.423c0.004-0.037,0.006-0.073,0.012-0.111l0.025-0.115c0.013-0.039,0.031-0.079,0.048-0.119
				c0.025-0.037,0.05-0.077,0.081-0.11c0.067-0.065,0.145-0.108,0.22-0.135c0.037-0.011,0.075-0.024,0.112-0.033l0.109-0.021
				c0.143-0.023,0.282-0.032,0.419-0.041c0.274-0.016,0.545-0.026,0.818-0.034L49.24,1.31c1.089-0.039,2.178-0.062,3.267-0.093l0,0
				l0.027-0.001l0.019,0.018l4.397,4.145l0.046,0.043l-0.042,0.046l-6.289,6.879l-0.043,0.047l-0.047-0.043L46.068,8.239z
				 M46.183,8.186l4.478,4.071l-0.09,0.004l6.289-6.879l0.003,0.089l-4.398-4.145l0.046,0.017l0,0
				c-1.088,0.058-2.175,0.126-3.262,0.176L47.618,1.6l-0.814,0.043c-0.134,0.009-0.267,0.02-0.393,0.041
				c-0.127,0.019-0.241,0.056-0.302,0.118c-0.062,0.058-0.086,0.175-0.094,0.301c-0.009,0.125-0.006,0.259-0.001,0.393l0.038,0.811
				c0.022,0.539,0.05,1.077,0.066,1.617C46.156,6.002,46.185,7.082,46.183,8.186z"/>
		</g>
	</g>
	<g>
		<g>
			<g>
				<path class="st13" d="M46.632,3.668c0.193-0.21-0.037-0.927,0.233-1.225c0.29-0.32,1.014-0.099,1.209-0.311
					c0.087-0.094,0.03-0.394-0.033-0.672c-0.311,0.014-0.588,0.026-0.807,0.037c-1.42,0.07-1.396,0.044-1.325,1.44
					c0.012,0.235,0.025,0.507,0.037,0.799C46.231,3.755,46.542,3.766,46.632,3.668z"/>
			</g>
			<g>
				<path d="M46.585,3.625c0.061-0.073,0.067-0.217,0.07-0.346c0.002-0.132-0.003-0.269,0.007-0.408
					c0.012-0.137,0.028-0.286,0.115-0.417c0.089-0.132,0.238-0.203,0.376-0.231c0.14-0.031,0.278-0.037,0.413-0.043
					c0.134-0.006,0.27-0.009,0.381-0.045C47.974,2.124,48,2.113,48.015,2.097c0.011-0.008,0.015-0.013,0.019-0.021
					c0.005-0.008,0.008-0.019,0.011-0.032c0.011-0.052,0.01-0.117,0.004-0.18c-0.013-0.129-0.042-0.259-0.071-0.39V1.474l0.065,0.05
					c-0.342,0.026-0.684,0.049-1.027,0.07c-0.17,0.013-0.342,0.02-0.507,0.041c-0.163,0.02-0.331,0.052-0.423,0.142
					c-0.089,0.088-0.107,0.257-0.114,0.42c-0.007,0.166,0.004,0.337,0.008,0.508c0.013,0.343,0.021,0.686,0.027,1.029L45.95,3.673
					l0,0c0.116,0.008,0.232,0.014,0.346,0.012c0.056-0.001,0.113-0.005,0.166-0.013C46.514,3.663,46.566,3.646,46.585,3.625z
					 M46.679,3.711c-0.066,0.063-0.134,0.073-0.196,0.086c-0.063,0.01-0.124,0.014-0.185,0.015
					c-0.121,0.003-0.239-0.005-0.357-0.012l0,0l-0.055-0.002l-0.005-0.058c-0.027-0.342-0.05-0.684-0.071-1.027
					c-0.011-0.172-0.019-0.344-0.016-0.521c-0.001-0.044,0.003-0.089,0.007-0.134c0.003-0.045,0.009-0.091,0.02-0.138
					c0.015-0.092,0.061-0.194,0.135-0.272c0.041-0.036,0.082-0.071,0.128-0.09c0.045-0.026,0.091-0.038,0.136-0.052
					c0.091-0.025,0.18-0.039,0.267-0.048c0.176-0.02,0.347-0.028,0.519-0.034c0.343-0.013,0.686-0.021,1.03-0.026l0.054-0.001
					l0.01,0.05v0.001c0.03,0.132,0.059,0.266,0.073,0.406c0.006,0.07,0.01,0.142-0.007,0.223c-0.006,0.021-0.012,0.042-0.024,0.063
					c-0.012,0.022-0.03,0.043-0.047,0.055c-0.033,0.031-0.071,0.047-0.108,0.062c-0.147,0.047-0.285,0.045-0.419,0.053
					c-0.134,0.006-0.267,0.012-0.391,0.039c-0.125,0.025-0.235,0.084-0.299,0.177c-0.065,0.095-0.084,0.227-0.094,0.355
					c-0.009,0.13-0.004,0.264-0.007,0.401c-0.002,0.069-0.003,0.138-0.015,0.211C46.755,3.563,46.739,3.641,46.679,3.711z"/>
			</g>
		</g>
	</g>
	<g>
		<g>
			<path class="st14" d="M60.989,21.832l-3.216-2.961c-0.519-0.478-0.553-1.294-0.075-1.813l4.636-5.035
				c0.478-0.519,1.294-0.553,1.813-0.075l3.216,2.961c0.519,0.478,0.553,1.294,0.075,1.813l-4.636,5.035
				C62.324,22.277,61.509,22.31,60.989,21.832z"/>
		</g>
		<g>
			<path d="M60.918,21.91l-2.787-2.599l-0.348-0.325c-0.117-0.106-0.238-0.236-0.318-0.382c-0.167-0.293-0.217-0.648-0.142-0.975
				c0.037-0.164,0.105-0.32,0.199-0.459c0.097-0.142,0.212-0.251,0.318-0.368l0.648-0.699l2.588-2.797
				c0.434-0.466,0.855-0.933,1.301-1.398c0.244-0.224,0.574-0.349,0.904-0.348c0.33-0.002,0.66,0.125,0.904,0.349l2.806,2.578
				l0.351,0.322c0.118,0.105,0.239,0.23,0.32,0.374c0.171,0.288,0.223,0.64,0.157,0.969c-0.033,0.165-0.097,0.325-0.189,0.467
				c-0.022,0.036-0.046,0.071-0.074,0.104c-0.027,0.033-0.053,0.068-0.079,0.096l-0.157,0.179l-0.63,0.715
				c-0.424,0.473-0.849,0.945-1.28,1.411c-0.429,0.469-0.86,0.935-1.293,1.399l-0.649,0.697l-0.325,0.348l-0.163,0.174l-0.081,0.087
				l-0.092,0.09c-0.257,0.234-0.604,0.364-0.948,0.36C61.512,22.28,61.17,22.145,60.918,21.91z M61.061,21.755
				c0.216,0.196,0.506,0.305,0.796,0.302c0.29-0.001,0.577-0.114,0.788-0.311l0.077-0.077l0.08-0.088l0.16-0.176l0.32-0.353
				l0.641-0.705c0.427-0.47,0.856-0.938,1.288-1.404c0.429-0.468,0.864-0.931,1.3-1.393l0.661-0.687
				c0.109-0.116,0.227-0.226,0.31-0.343c0.086-0.12,0.149-0.257,0.185-0.402c0.074-0.29,0.03-0.609-0.117-0.873
				c-0.074-0.134-0.172-0.245-0.29-0.351l-0.35-0.323l-2.8-2.584c-0.224-0.207-0.527-0.324-0.832-0.323
				c-0.305-0.002-0.608,0.116-0.832,0.323c-0.431,0.454-0.859,0.932-1.288,1.397l-2.574,2.809l-0.643,0.703
				c-0.106,0.119-0.221,0.231-0.303,0.353c-0.084,0.124-0.143,0.264-0.175,0.41c-0.065,0.292-0.018,0.609,0.132,0.867
				c0.075,0.132,0.173,0.237,0.292,0.343l0.352,0.32L61.061,21.755z"/>
		</g>
	</g>
	<g>
		<path class="st15" d="M52.572,1.395c-0.726-0.669,1.27,2.998,0.798,3.51s-2.918-0.656-3.621,0.119
			c-0.656,0.723,0.594,3.096,0.125,3.605c-0.469,0.509-4.117-0.851-3.609-0.384c0.562,0.518,9.107,8.386,9.107,8.386l1.43-1.553
			l0.076-0.083l3.382-3.673l0.069-0.075l1.351-1.467C61.679,9.781,53.374,2.134,52.572,1.395z"/>
	</g>
	<g class="st16">
		<polygon class="st7" points="61.595,9.84 60.207,11.32 53.468,4.973 52.461,1.275 		"/>
	</g>
	<g>
		<rect x="56.775" y="3.411" transform="matrix(0.6774 -0.7356 0.7356 0.6774 12.3491 44.4364)" width="0.127" height="9.455"/>
	</g>
	<g>
		<rect x="53.311" y="7.149" transform="matrix(0.6775 -0.7355 0.7355 0.6775 8.4723 43.0899)" width="0.127" height="9.468"/>
	</g>
	<g>
		<g>
			
				<rect x="55.855" y="12.542" transform="matrix(0.6774 -0.7356 0.7356 0.6774 8.4545 49.4126)" class="st17" width="9.419" height="5.051"/>
		</g>
		<g>
			<path d="M59.234,20.302l-3.799-3.397l-0.089-0.079l0.082-0.089l6.39-6.92l0.073-0.079l0.077,0.073l3.686,3.453l0.046,0.044
				l-0.043,0.046L59.234,20.302z M59.229,20.175l6.336-6.909l0.004,0.09l-3.745-3.389l0.15-0.006l-6.371,6.938l-0.007-0.169
				L59.229,20.175z"/>
		</g>
	</g>
	<g>
		<g>
			<g>
				<polygon class="st17" points="55.628,11.963 56.632,12.888 57.783,12.647 57.929,11.48 56.924,10.555 55.773,10.796 				"/>
			</g>
			<g>
				<path d="M55.678,11.944l0.991,0.904l-0.048-0.013l1.138-0.302l-0.091,0.099l0.207-1.159l0.017,0.047l-1.005-0.925l0.048,0.013
					l-1.137,0.308l0.096-0.104L55.678,11.944z M55.576,11.982l0.076-1.201l0.006-0.091l0.09-0.014l1.165-0.175l0.029-0.005
					l0.019,0.017l1.005,0.925l0.019,0.018l-0.002,0.029l-0.085,1.175l-0.006,0.086l-0.085,0.013l-1.163,0.182l-0.029,0.005
					l-0.019-0.018L55.576,11.982z"/>
			</g>
		</g>
		<g>
			<g>
				<path class="st7" d="M55.967,11.582l0.583-0.633l0.169,0.156l0.11,0.64c0.035,0.165,0.082,0.275,0.142,0.33
					c0.048,0.045,0.093,0.07,0.134,0.076c0.041,0.006,0.076-0.007,0.106-0.039c0.029-0.032,0.036-0.073,0.022-0.124
					c-0.015-0.051-0.048-0.099-0.098-0.146l0.194-0.211c0.069,0.064,0.119,0.136,0.152,0.217s0.043,0.162,0.03,0.242
					c-0.013,0.079-0.047,0.15-0.104,0.211c-0.09,0.098-0.188,0.148-0.292,0.149c-0.105,0.002-0.209-0.046-0.314-0.143
					c-0.044-0.041-0.081-0.087-0.111-0.138c-0.03-0.052-0.054-0.113-0.074-0.183c-0.02-0.07-0.04-0.172-0.059-0.305l-0.059-0.271
					l-0.329,0.357L55.967,11.582z"/>
			</g>
		</g>
	</g>
	<g class="st16">
		
			<rect x="61.914" y="9.992" transform="matrix(0.6834 -0.7301 0.7301 0.6834 10.5604 49.686)" class="st7" width="1.297" height="5.352"/>
	</g>
	<g>
		
			<rect x="54.609" y="13.739" transform="matrix(0.6774 -0.7356 0.7356 0.6774 8.8742 48.1641)" class="st15" width="9.485" height="0.45"/>
		<path d="M56.31,17.649L55.932,17.3l0.022-0.024l6.446-7.001l0.378,0.348l-0.022,0.024L56.31,17.649z M56.022,17.297l0.285,0.262
			l6.382-6.931l-0.285-0.262L56.022,17.297z"/>
	</g>
	<g>
		
			<rect x="57.029" y="15.968" transform="matrix(0.6774 -0.7356 0.7356 0.6774 8.0152 50.6636)" class="st15" width="9.485" height="0.45"/>
		<path d="M58.731,19.878l-0.378-0.348l0.022-0.024l6.446-7.001l0.378,0.348l-0.022,0.024L58.731,19.878z M58.442,19.526
			l0.285,0.262l6.382-6.931l-0.285-0.262L58.442,19.526z"/>
	</g>
	<g>
		<path d="M62.564,11.387c0.158,0.09,0.303,0.194,0.443,0.304c0.141,0.109,0.274,0.226,0.405,0.345
			c0.129,0.122,0.256,0.245,0.376,0.376c0.12,0.131,0.237,0.266,0.34,0.416c-0.157-0.091-0.302-0.195-0.443-0.305
			c-0.141-0.109-0.274-0.225-0.406-0.344c-0.13-0.121-0.257-0.244-0.377-0.375C62.783,11.673,62.667,11.537,62.564,11.387z"/>
	</g>
	<g>
		<path d="M57.032,17.395c0.158,0.09,0.303,0.194,0.443,0.304c0.141,0.109,0.274,0.226,0.405,0.345
			c0.129,0.122,0.256,0.245,0.376,0.376c0.12,0.131,0.237,0.266,0.34,0.416c-0.157-0.091-0.302-0.195-0.443-0.305
			c-0.141-0.109-0.274-0.225-0.406-0.344c-0.13-0.121-0.257-0.244-0.377-0.375C57.251,17.681,57.135,17.546,57.032,17.395z"/>
	</g>
	<g>
		<path d="M61.873,12.138c0.158,0.09,0.303,0.194,0.443,0.304c0.141,0.109,0.274,0.226,0.405,0.345
			c0.129,0.122,0.256,0.245,0.376,0.376c0.12,0.131,0.237,0.266,0.34,0.416c-0.157-0.091-0.302-0.195-0.443-0.305
			c-0.141-0.109-0.274-0.225-0.406-0.344c-0.13-0.12-0.257-0.244-0.377-0.375C62.091,12.424,61.975,12.288,61.873,12.138z"/>
	</g>
	<g>
		<path d="M61.181,12.889c0.158,0.09,0.303,0.194,0.443,0.304c0.141,0.109,0.274,0.226,0.405,0.345
			c0.129,0.122,0.256,0.245,0.376,0.376c0.12,0.131,0.237,0.266,0.34,0.416c-0.157-0.091-0.302-0.195-0.443-0.305
			c-0.141-0.109-0.274-0.225-0.406-0.344c-0.13-0.12-0.257-0.244-0.377-0.375C61.399,13.175,61.284,13.039,61.181,12.889z"/>
	</g>
	<g>
		<path d="M60.49,13.64c0.158,0.09,0.303,0.194,0.443,0.304c0.141,0.109,0.274,0.226,0.405,0.345
			c0.129,0.122,0.256,0.245,0.376,0.376c0.12,0.131,0.237,0.266,0.34,0.416c-0.157-0.091-0.302-0.195-0.443-0.305
			c-0.141-0.109-0.274-0.225-0.406-0.344c-0.13-0.12-0.257-0.244-0.377-0.375C60.708,13.926,60.592,13.79,60.49,13.64z"/>
	</g>
	<g>
		<path d="M59.798,14.391c0.158,0.09,0.303,0.194,0.443,0.304c0.141,0.109,0.274,0.226,0.405,0.345
			c0.129,0.122,0.256,0.245,0.376,0.376c0.12,0.131,0.237,0.266,0.34,0.416c-0.157-0.091-0.302-0.195-0.443-0.305
			c-0.141-0.109-0.274-0.225-0.406-0.344c-0.13-0.12-0.257-0.244-0.377-0.375C60.016,14.677,59.901,14.541,59.798,14.391z"/>
	</g>
	<g>
		<path d="M59.107,15.142c0.158,0.09,0.303,0.194,0.443,0.304c0.141,0.109,0.274,0.226,0.405,0.345
			c0.129,0.122,0.256,0.245,0.376,0.376c0.12,0.131,0.237,0.266,0.34,0.416c-0.157-0.091-0.302-0.195-0.443-0.305
			c-0.141-0.109-0.274-0.225-0.406-0.344c-0.13-0.12-0.257-0.244-0.377-0.375C59.325,15.428,59.209,15.292,59.107,15.142z"/>
	</g>
	<g>
		<path d="M58.415,15.893c0.158,0.09,0.303,0.194,0.443,0.304c0.141,0.109,0.274,0.226,0.405,0.345
			c0.129,0.122,0.256,0.245,0.376,0.376c0.12,0.131,0.237,0.266,0.34,0.416c-0.157-0.091-0.302-0.195-0.443-0.305
			c-0.141-0.109-0.274-0.225-0.406-0.344c-0.13-0.121-0.257-0.244-0.377-0.375C58.634,16.179,58.518,16.044,58.415,15.893z"/>
	</g>
	<g>
		<path d="M57.723,16.644c0.158,0.09,0.303,0.194,0.443,0.304c0.141,0.109,0.274,0.226,0.405,0.345
			c0.129,0.122,0.256,0.245,0.376,0.376c0.121,0.131,0.237,0.266,0.34,0.416c-0.157-0.091-0.302-0.195-0.443-0.305
			c-0.141-0.109-0.274-0.225-0.406-0.344c-0.13-0.121-0.257-0.244-0.377-0.375C57.942,16.93,57.826,16.794,57.723,16.644z"/>
	</g>
	<g>
		<path d="M59.234,20.302l-3.799-3.397l-0.089-0.079l0.082-0.089l6.39-6.92l0.073-0.079l0.077,0.073l3.686,3.453l0.045,0.042
			l-0.041,0.048c-0.516,0.597-1.045,1.189-1.576,1.778c-0.53,0.592-1.071,1.172-1.608,1.758c-0.539,0.583-1.081,1.157-1.622,1.73
			l-0.811,0.85L59.234,20.302z M59.229,20.175l0.788-0.898l0.784-0.882c0.523-0.581,1.044-1.162,1.569-1.735
			c0.527-0.569,1.049-1.144,1.582-1.707c0.532-0.566,1.067-1.129,1.614-1.687l0.004,0.09l-3.745-3.389l0.15-0.006l-6.371,6.938
			l-0.007-0.169L59.229,20.175z"/>
	</g>
	<g>
		<path d="M52.513,1.459c-0.024-0.022-0.051-0.043-0.07-0.054C52.437,1.398,52.42,1.404,52.458,1.4
			c0.022-0.005,0.039-0.027,0.039-0.032c0.003-0.006,0.002-0.005,0.002-0.002c-0.001,0.039,0.019,0.116,0.039,0.179
			c0.04,0.133,0.095,0.265,0.149,0.397c0.107,0.265,0.232,0.526,0.348,0.79c0.117,0.264,0.233,0.53,0.339,0.803
			c0.107,0.273,0.204,0.551,0.26,0.86c0.012,0.078,0.022,0.159,0.023,0.247c-0.001,0.088-0.003,0.185-0.057,0.305
			c-0.066,0.137-0.18,0.204-0.274,0.243c-0.098,0.039-0.188,0.052-0.273,0.06c-0.17,0.014-0.323-0.002-0.473-0.021
			c-0.15-0.019-0.294-0.047-0.437-0.078C51.858,5.09,51.58,5.024,51.302,4.97c-0.277-0.052-0.557-0.102-0.83-0.092
			c-0.269,0.004-0.545,0.076-0.678,0.272c-0.066,0.097-0.099,0.224-0.113,0.354c-0.012,0.132-0.005,0.269,0.011,0.407
			c0.074,0.553,0.263,1.095,0.403,1.664c0.034,0.144,0.063,0.29,0.083,0.444c0.017,0.155,0.03,0.315-0.016,0.507
			c-0.027,0.096-0.068,0.203-0.181,0.296c-0.11,0.082-0.208,0.101-0.296,0.117c-0.176,0.027-0.33,0.017-0.483,0.002
			c-0.303-0.03-0.588-0.103-0.871-0.172c-0.283-0.072-0.561-0.152-0.838-0.234c-0.277-0.079-0.555-0.156-0.832-0.22
			c-0.069-0.016-0.138-0.031-0.207-0.042c-0.065-0.011-0.144-0.022-0.181-0.017c-0.003,0-0.005,0.002,0.006-0.003
			c0.005-0.002,0.014-0.007,0.024-0.019c0.012-0.012,0.02-0.035,0.021-0.051c0-0.033-0.008-0.036-0.007-0.038
			c-0.001-0.001,0.002,0.003,0.005,0.006c0.012,0.013,0.047,0.044,0.071,0.067l0.159,0.146l1.27,1.17l2.541,2.339l2.553,2.327
			c0.855,0.771,1.707,1.545,2.566,2.312l0.001,0.001l-0.23,0.01l6.297-6.859l0.001-0.001l0.01,0.25
			c-0.742-0.717-1.495-1.423-2.242-2.135l-2.259-2.116c-0.751-0.708-1.514-1.402-2.271-2.103L52.513,1.459z M52.63,1.331
			l2.279,2.094c0.761,0.697,1.516,1.4,2.283,2.09l2.295,2.077c0.771,0.686,1.536,1.378,2.312,2.058l0.13,0.114l-0.12,0.136
			l-0.001,0.001l-6.318,6.841l-0.111,0.12l-0.119-0.11l-0.001-0.001c-0.834-0.794-1.676-1.579-2.515-2.367l-2.529-2.352l-2.54-2.34
			l-1.271-1.169l-0.159-0.146c-0.028-0.027-0.049-0.043-0.086-0.082c-0.009-0.01-0.018-0.021-0.028-0.037
			c-0.009-0.017-0.025-0.037-0.024-0.089c0.001-0.025,0.013-0.056,0.031-0.075c0.016-0.018,0.033-0.029,0.046-0.035
			c0.026-0.012,0.042-0.014,0.057-0.016c0.107-0.009,0.171,0.008,0.248,0.018c0.074,0.013,0.145,0.028,0.217,0.042l0.847,0.183
			c0.562,0.109,1.133,0.217,1.679,0.248c0.134,0.006,0.27,0.006,0.379-0.013c0.053-0.009,0.098-0.029,0.103-0.035
			c-0.002,0.002,0.007-0.008,0.014-0.019c0.008-0.011,0.014-0.03,0.021-0.051c0.026-0.088,0.023-0.222,0.013-0.352
			c-0.01-0.132-0.032-0.27-0.055-0.408c-0.089-0.557-0.235-1.125-0.269-1.721c-0.009-0.149-0.01-0.301,0.011-0.455
			c0.019-0.153,0.059-0.315,0.158-0.456c0.099-0.142,0.244-0.242,0.394-0.297c0.151-0.056,0.305-0.082,0.456-0.095
			c0.606-0.041,1.184,0.069,1.75,0.137c0.279,0.032,0.567,0.073,0.806,0.052c0.058-0.006,0.112-0.016,0.147-0.032
			c0.037-0.014,0.051-0.035,0.047-0.03c0.008-0.011,0.019-0.063,0.019-0.117c0.001-0.056-0.004-0.119-0.013-0.183
			c-0.034-0.26-0.11-0.534-0.185-0.807c-0.077-0.273-0.166-0.546-0.256-0.818c-0.092-0.272-0.182-0.546-0.277-0.819
			c-0.047-0.137-0.092-0.275-0.134-0.418c-0.018-0.075-0.042-0.138-0.041-0.244c0.002-0.015,0.004-0.032,0.013-0.054
			c0.008-0.022,0.038-0.059,0.077-0.068c0.037-0.009,0.061-0.001,0.077,0.004c0.017,0.006,0.029,0.012,0.041,0.019
			C52.573,1.279,52.601,1.305,52.63,1.331z"/>
	</g>
	<g class="st0">
		<path class="st1" d="M65.87,13.539l-0.257-0.23l-4.877,5.326c-3.189-2.952-7.45-6.799-10.817-9.971
			c-0.044-0.041-0.91,0.077-0.91,0.077l-1.732-0.394L46.12,8.153l15.111,13.909l1.016,0.104l1.173-1.042
			c0,0-0.974-0.905-2.423-2.246L65.87,13.539z"/>
	</g>
	<g class="st16">
		<path class="st7" d="M47.642,2.235l-1.773-0.434c0,0-0.035-0.156,0.26-0.174c0.295-0.017,1.999,0.191,1.999,0.191l-0.035,0.348
			L47.642,2.235z"/>
	</g>
	<g>
		<g>
			<path d="M46.585,3.625c0.061-0.073,0.067-0.217,0.07-0.346c0.002-0.132-0.003-0.269,0.007-0.408
				c0.012-0.137,0.028-0.286,0.115-0.417c0.089-0.132,0.238-0.203,0.376-0.231c0.14-0.031,0.278-0.037,0.413-0.043
				c0.134-0.006,0.27-0.009,0.381-0.045C47.974,2.124,48,2.113,48.015,2.097c0.011-0.008,0.015-0.013,0.019-0.021
				c0.005-0.008,0.008-0.019,0.011-0.032c0.011-0.052,0.01-0.117,0.004-0.18c-0.013-0.129-0.042-0.259-0.071-0.39V1.474l0.065,0.05
				c-0.342,0.026-0.684,0.049-1.027,0.07c-0.17,0.013-0.342,0.02-0.507,0.041c-0.163,0.02-0.331,0.052-0.423,0.142
				c-0.089,0.088-0.107,0.257-0.114,0.42c-0.007,0.166,0.004,0.337,0.008,0.508c0.013,0.343,0.021,0.686,0.027,1.029L45.95,3.673
				l0,0c0.116,0.008,0.232,0.014,0.346,0.012c0.056-0.001,0.113-0.005,0.166-0.013C46.514,3.663,46.566,3.646,46.585,3.625z
				 M46.679,3.711c-0.066,0.063-0.134,0.073-0.196,0.086c-0.063,0.01-0.124,0.014-0.185,0.015c-0.121,0.003-0.239-0.005-0.357-0.012
				l0,0l-0.055-0.002l-0.005-0.058c-0.027-0.342-0.05-0.684-0.071-1.027c-0.011-0.172-0.019-0.344-0.016-0.521
				c-0.001-0.044,0.003-0.089,0.007-0.134c0.003-0.045,0.009-0.091,0.02-0.138c0.015-0.092,0.061-0.194,0.135-0.272
				c0.041-0.036,0.082-0.071,0.128-0.09c0.045-0.026,0.091-0.038,0.136-0.052c0.091-0.025,0.18-0.039,0.267-0.048
				c0.176-0.02,0.347-0.028,0.519-0.034c0.343-0.013,0.686-0.021,1.03-0.026l0.054-0.001l0.01,0.05v0.001
				c0.03,0.132,0.059,0.266,0.073,0.406c0.006,0.07,0.01,0.142-0.007,0.223c-0.006,0.021-0.012,0.042-0.024,0.063
				c-0.012,0.022-0.03,0.043-0.047,0.055c-0.033,0.031-0.071,0.047-0.108,0.062c-0.147,0.047-0.285,0.045-0.419,0.053
				c-0.134,0.006-0.267,0.012-0.391,0.039c-0.125,0.025-0.235,0.084-0.299,0.177c-0.065,0.095-0.084,0.227-0.094,0.355
				c-0.009,0.13-0.004,0.264-0.007,0.401c-0.002,0.069-0.003,0.138-0.015,0.211C46.755,3.563,46.739,3.641,46.679,3.711z"/>
		</g>
	</g>
	<g>
		<path class="st17" d="M54.029,9.417c0.032-0.018,0.082-0.002,0.124-0.003c0.029-0.001,0.058-0.004,0.088-0.006
			c-0.007-0.029-0.006-0.063-0.022-0.085c-0.033-0.045-0.072-0.086-0.113-0.123c-0.091-0.082-0.185-0.159-0.295-0.254
			c-0.007,0.049-0.018,0.075-0.01,0.086c0.046,0.059,0.007,0.094-0.034,0.124c-0.116,0.084-0.328,0.089-0.445-0.007
			C53.237,9.079,53.236,9,53.323,8.93c0.065-0.052,0.135-0.098,0.208-0.14c0.178-0.102,0.363-0.165,0.575-0.108
			c0.231,0.063,0.326,0.291,0.169,0.506c0.057,0.025,0.109,0.071,0.152,0.063c0.102-0.019,0.2-0.062,0.299-0.096
			c0.052-0.018,0.044-0.051,0.009-0.074c-0.02-0.014-0.054-0.018-0.078-0.013c-0.083,0.017-0.115-0.021-0.121-0.097
			c-0.002-0.022-0.002-0.044-0.009-0.064c-0.104-0.302-0.524-0.558-0.845-0.524c-0.211,0.023-0.392,0.098-0.541,0.254
			c-0.127,0.132-0.168,0.38-0.067,0.527c0.11,0.159,0.272,0.257,0.452,0.307C53.692,9.519,53.867,9.507,54.029,9.417z"/>
		<path class="st17" d="M50.386,5.927c0.2-0.07,0.306-0.239,0.284-0.447c-0.006-0.053-0.023-0.117-0.058-0.152
			c-0.147-0.143-0.3-0.277-0.445-0.408c-0.154,0.04-0.292,0.11-0.374,0.23c-0.059,0.087-0.089,0.198-0.105,0.314
			c0.139-0.065,0.279-0.13,0.418-0.195c0.062-0.029,0.122-0.065,0.187-0.078c0.038-0.008,0.086,0.017,0.125,0.037
			c0.029,0.015,0.047,0.048,0.072,0.072c0.046,0.045,0.046,0.084,0.003,0.136c-0.153,0.188-0.356,0.28-0.588,0.323
			c-0.07-0.014-0.146,0.003-0.217-0.009c0.003,0.054-0.002,0.106,0.004,0.16c0.002,0.016,0.007,0.033,0.009,0.05
			c0.068,0.05,0.17,0.085,0.251,0.077C50.098,6.022,50.245,5.976,50.386,5.927z"/>
		<path class="st17" d="M53.392,7.801c-0.145-0.197-0.34-0.303-0.589-0.299c-0.189,0.002-0.446,0.066-0.579,0.17
			c-0.227,0.176-0.282,0.456-0.086,0.67c0.311,0.34,0.948,0.247,1.199-0.01C53.486,8.177,53.519,7.973,53.392,7.801z M53.265,7.958
			c-0.101,0.153-0.254,0.233-0.418,0.292c-0.107,0.038-0.22,0.058-0.312,0.082c-0.076-0.015-0.132-0.021-0.185-0.037
			c-0.108-0.035-0.136-0.139-0.059-0.231c0.111-0.131,0.258-0.213,0.415-0.274c0.08-0.031,0.168-0.038,0.251-0.063
			c0.104-0.031,0.189,0.01,0.272,0.062C53.309,7.839,53.316,7.88,53.265,7.958z"/>
		<path class="st17" d="M52.499,7.374c0.084-0.043,0.113-0.217,0.046-0.28c-0.171-0.163-0.344-0.323-0.517-0.481
			c-0.029-0.027-0.066-0.045-0.099-0.067c-0.004,0.005-0.009,0.01-0.013,0.015c0.01,0.027,0.019,0.053,0.034,0.095
			c-0.077,0.034-0.149,0.067-0.222,0.099c-0.175,0.079-0.347,0.164-0.525,0.234c-0.092,0.036-0.189,0.111-0.303,0.019
			c0.102,0.165,0.247,0.276,0.372,0.407c0.01-0.003,0.021-0.007,0.031-0.01c-0.003-0.046-0.005-0.093-0.008-0.139
			c-0.006-0.01-0.011-0.019-0.016-0.029c0.125-0.048,0.25-0.097,0.375-0.144c0.07-0.026,0.089,0.008,0.068,0.068
			c-0.025,0.073-0.059,0.143-0.089,0.214c-0.054,0.13-0.107,0.26-0.16,0.393c0.122,0.046,0.227,0.09,0.335,0.124
			c0.035,0.011,0.08-0.008,0.12-0.013c-0.013-0.032-0.018-0.071-0.041-0.095c-0.054-0.057-0.053-0.112-0.022-0.178
			c0.028-0.058,0.046-0.122,0.07-0.182c0.013-0.033,0.03-0.064,0.045-0.095c0.066,0.026,0.122,0.046,0.176,0.069
			C52.278,7.45,52.391,7.428,52.499,7.374z M51.881,7.071c-0.055-0.03-0.039-0.075,0.008-0.099c0.074-0.037,0.15-0.069,0.228-0.099
			c0.109-0.043,0.158,0.04,0.208,0.109c0.019,0.026,0.037,0.087,0.025,0.096c-0.056,0.048-0.123,0.084-0.186,0.125
			C52.058,7.153,51.967,7.117,51.881,7.071z"/>
		<path class="st17" d="M51.029,6.755c-0.11-0.023-0.227,0.067-0.332-0.016c-0.093-0.072-0.185-0.145-0.29-0.226
			c0.045-0.043,0.073-0.08,0.111-0.104c0.066-0.041,0.14-0.066,0.204-0.109c0.066-0.045,0.118-0.032,0.167,0.016
			c0.045,0.045,0.084,0.096,0.13,0.151c-0.027,0.024-0.049,0.04-0.066,0.061c-0.014,0.016-0.021,0.039-0.031,0.058
			c0.022,0.008,0.049,0.028,0.064,0.022c0.112-0.053,0.222-0.112,0.332-0.169c-0.003-0.012-0.005-0.024-0.007-0.035
			c-0.028-0.002-0.059-0.012-0.085-0.005c-0.091,0.03-0.234-0.048-0.252-0.146c-0.003-0.016,0.011-0.045,0.025-0.052
			c0.091-0.047,0.182-0.093,0.276-0.13c0.025-0.01,0.068,0.009,0.095,0.027c0.033,0.022,0.059,0.054,0.088,0.083
			c0.145,0.147,0.145,0.147,0.005,0.297c-0.006,0.007-0.01,0.015-0.024,0.038c0.031,0.015,0.071,0.05,0.089,0.041
			c0.108-0.055,0.21-0.119,0.327-0.189c-0.064-0.023-0.114-0.028-0.145-0.054c-0.148-0.128-0.291-0.261-0.434-0.394
			c-0.088-0.081-0.173-0.165-0.259-0.248c-0.01,0.003-0.02,0.006-0.03,0.009C51.042,5.777,51,5.82,50.922,5.858
			c-0.194,0.095-0.388,0.191-0.574,0.3c-0.107,0.062-0.195,0.076-0.294-0.007C50.038,6.137,50,6.149,49.943,6.149
			c0.05,0.061,0.075,0.101,0.108,0.131c0.111,0.104,0.225,0.205,0.337,0.307c0.104,0.094,0.206,0.189,0.311,0.28
			c0.021,0.018,0.06,0.038,0.081,0.03c0.088-0.033,0.173-0.077,0.259-0.116C51.035,6.773,51.032,6.765,51.029,6.755z"/>
		<path class="st17" d="M55.071,9.433c-0.029,0.023-0.059,0.063-0.096,0.071c-0.126,0.03-0.253,0.052-0.381,0.074
			c-0.173,0.03-0.346,0.065-0.52,0.083c-0.091,0.009-0.186,0.068-0.278-0.003c-0.015-0.011-0.04-0.01-0.06-0.015
			c0.004,0.023-0.002,0.054,0.011,0.067c0.101,0.101,0.205,0.198,0.311,0.294c0.017,0.015,0.048,0.014,0.073,0.02
			c-0.002-0.025-0.004-0.05-0.006-0.075c-0.003-0.039-0.022-0.104-0.007-0.113c0.055-0.033,0.131-0.079,0.183-0.064
			c0.083,0.025,0.154,0.092,0.227,0.147c0.078,0.059,0.082,0.093,0.009,0.155c-0.04,0.034-0.097,0.048-0.149,0.065
			c-0.028,0.009-0.059,0.004-0.103,0.006c0.009,0.029,0.009,0.044,0.017,0.051c0.11,0.109,0.219,0.219,0.333,0.325
			c0.018,0.017,0.061,0.008,0.092,0.011c-0.004-0.028,0.003-0.065-0.013-0.082c-0.065-0.072-0.035-0.13,0.021-0.185
			c0.104-0.102,0.212-0.199,0.312-0.305c0.11-0.116,0.212-0.24,0.309-0.352C55.279,9.561,55.172,9.495,55.071,9.433z M54.844,9.789
			c-0.05,0.046-0.106,0.086-0.162,0.123c-0.011,0.007-0.041-0.003-0.056-0.014c-0.028-0.019-0.055-0.042-0.076-0.068
			c-0.018-0.022-0.045-0.057-0.038-0.075c0.01-0.026,0.044-0.053,0.072-0.061c0.066-0.016,0.135-0.02,0.222-0.032
			c0.014,0.01,0.051,0.022,0.065,0.048C54.878,9.728,54.862,9.772,54.844,9.789z"/>
	</g>
</g>
<g>
	<path d="M63.905,33.262h-2.418l-0.471,1.796h-1.875l2.744-8.78h1.621l2.763,8.78h-1.895L63.905,33.262z M61.873,31.784h1.639
		l-0.82-3.129L61.873,31.784z"/>
	<path d="M69.894,33.31c0-0.145-0.069-0.279-0.208-0.402c-0.139-0.122-0.447-0.288-0.925-0.498
		c-0.703-0.285-1.187-0.581-1.451-0.886c-0.263-0.305-0.394-0.685-0.394-1.14c0-0.571,0.205-1.042,0.617-1.414
		c0.412-0.371,0.957-0.557,1.638-0.557c0.716,0,1.288,0.184,1.718,0.554c0.43,0.37,0.646,0.866,0.646,1.49h-1.707
		c0-0.531-0.22-0.796-0.663-0.796c-0.181,0-0.331,0.056-0.447,0.169c-0.116,0.112-0.175,0.269-0.175,0.469
		c0,0.145,0.065,0.273,0.193,0.383c0.128,0.11,0.432,0.269,0.91,0.472c0.696,0.258,1.187,0.545,1.475,0.86
		c0.287,0.315,0.432,0.725,0.432,1.227c0,0.583-0.22,1.051-0.658,1.404c-0.438,0.355-1.013,0.531-1.724,0.531
		c-0.479,0-0.901-0.094-1.267-0.281c-0.367-0.187-0.652-0.447-0.86-0.78c-0.207-0.334-0.309-0.694-0.309-1.079h1.621
		c0.009,0.297,0.078,0.521,0.208,0.669c0.131,0.149,0.344,0.223,0.643,0.223C69.664,33.93,69.894,33.724,69.894,33.31z"/>
	<path d="M74.779,32.543l-0.459,0.513v2.002h-1.707v-9.263h1.707v5.006l0.211-0.314l1.182-1.953h2.032l-1.893,2.689l2.074,3.836
		h-1.953L74.779,32.543z"/>
	<path d="M84.789,31.458c0,1.177-0.278,2.092-0.835,2.744c-0.557,0.651-1.33,0.977-2.319,0.977c-0.986,0-1.759-0.323-2.322-0.968
		c-0.563-0.646-0.848-1.549-0.856-2.711v-1.502c0-1.206,0.279-2.147,0.838-2.824c0.559-0.678,1.334-1.016,2.328-1.016
		c0.977,0,1.747,0.332,2.31,0.998c0.563,0.666,0.848,1.599,0.856,2.8V31.458z M83.01,29.986c0-0.791-0.113-1.38-0.338-1.766
		c-0.225-0.386-0.575-0.58-1.049-0.58c-0.471,0-0.818,0.187-1.043,0.559c-0.225,0.371-0.343,0.937-0.35,1.697v1.562
		c0,0.768,0.115,1.334,0.344,1.698c0.228,0.364,0.583,0.545,1.061,0.545c0.462,0,0.806-0.178,1.031-0.533
		c0.225-0.356,0.34-0.909,0.344-1.656V29.986z"/>
	<path d="M91.234,27.755h-2.171v7.303h-1.778v-7.303h-2.135v-1.476h6.084V27.755z"/>
	<path d="M94.106,35.058h-1.774v-8.78h1.774V35.058z"/>
	<path d="M99.303,32.754c0-0.358-0.091-0.628-0.275-0.811c-0.183-0.183-0.515-0.373-0.998-0.571
		c-0.88-0.334-1.513-0.725-1.899-1.173c-0.386-0.448-0.58-0.978-0.58-1.588c0-0.74,0.263-1.334,0.788-1.783
		c0.524-0.448,1.191-0.672,1.999-0.672c0.539,0,1.019,0.113,1.442,0.34c0.421,0.228,0.746,0.548,0.974,0.963
		c0.226,0.414,0.341,0.883,0.341,1.41h-1.768c0-0.409-0.088-0.722-0.263-0.937c-0.174-0.214-0.427-0.323-0.756-0.323
		c-0.309,0-0.551,0.092-0.723,0.275c-0.174,0.183-0.26,0.43-0.26,0.74c0,0.24,0.097,0.459,0.29,0.654
		c0.192,0.195,0.534,0.397,1.025,0.605c0.856,0.311,1.478,0.69,1.866,1.14c0.388,0.451,0.583,1.023,0.583,1.719
		c0,0.764-0.245,1.362-0.731,1.79c-0.486,0.43-1.147,0.646-1.984,0.646c-0.568,0-1.084-0.116-1.55-0.35
		c-0.466-0.232-0.83-0.566-1.094-1.001c-0.263-0.435-0.394-0.946-0.394-1.538h1.778c0,0.507,0.098,0.876,0.296,1.103
		c0.196,0.229,0.518,0.344,0.965,0.344C98.994,33.737,99.303,33.41,99.303,32.754z"/>
	<path d="M102.318,34.19c0-0.273,0.092-0.498,0.275-0.676c0.183-0.177,0.421-0.264,0.714-0.264c0.287,0,0.524,0.086,0.713,0.261
		s0.284,0.402,0.284,0.679c0,0.281-0.097,0.507-0.287,0.678c-0.192,0.171-0.427,0.257-0.709,0.257c-0.285,0-0.521-0.086-0.708-0.26
		C102.411,34.693,102.318,34.468,102.318,34.19z"/>
	<path d="M108.131,33.761c0.495,0,0.746-0.322,0.755-0.965h1.603c-0.008,0.711-0.226,1.286-0.657,1.724
		c-0.43,0.439-0.986,0.658-1.665,0.658c-0.839,0-1.481-0.261-1.923-0.783c-0.442-0.524-0.667-1.294-0.675-2.31v-0.519
		c0-1.025,0.217-1.807,0.654-2.346c0.436-0.539,1.081-0.808,1.932-0.808c0.72,0,1.288,0.222,1.701,0.666
		c0.414,0.444,0.625,1.075,0.633,1.891h-1.603c-0.005-0.367-0.065-0.648-0.181-0.845c-0.116-0.196-0.309-0.294-0.58-0.294
		c-0.297,0-0.51,0.104-0.639,0.316c-0.128,0.211-0.198,0.62-0.205,1.227v0.664c0,0.53,0.026,0.901,0.078,1.113
		c0.053,0.21,0.139,0.365,0.26,0.463C107.74,33.713,107.911,33.761,108.131,33.761z"/>
	<path d="M111.256,31.584c0-0.989,0.232-1.765,0.699-2.328c0.466-0.563,1.111-0.844,1.935-0.844c0.833,0,1.482,0.281,1.949,0.844
		c0.466,0.563,0.699,1.344,0.699,2.34v0.417c0,0.992-0.231,1.768-0.693,2.328c-0.463,0.559-1.11,0.838-1.943,0.838
		c-0.836,0-1.485-0.281-1.95-0.841c-0.465-0.562-0.696-1.34-0.696-2.337V31.584z M112.968,32.013c0,1.165,0.312,1.748,0.934,1.748
		c0.575,0,0.885-0.486,0.93-1.46l0.006-0.717c0-0.595-0.083-1.036-0.248-1.324c-0.165-0.287-0.399-0.43-0.7-0.43
		c-0.288,0-0.515,0.143-0.678,0.43c-0.163,0.288-0.245,0.729-0.245,1.324V32.013z"/>
	<path d="M119.204,28.534l0.048,0.602c0.382-0.482,0.886-0.723,1.514-0.723c0.651,0,1.111,0.293,1.381,0.88
		c0.373-0.587,0.906-0.88,1.597-0.88c1.141,0,1.727,0.79,1.756,2.37v4.275h-1.707v-4.166c0-0.379-0.053-0.648-0.157-0.809
		c-0.104-0.16-0.281-0.242-0.53-0.242c-0.319,0-0.556,0.196-0.713,0.586l0.012,0.205v4.426H120.7v-4.154
		c0-0.374-0.051-0.645-0.151-0.812c-0.101-0.166-0.279-0.251-0.537-0.251c-0.293,0-0.527,0.16-0.699,0.477v4.74h-1.707v-6.524
		H119.204z"/>
</g>
</svg>
