<?xml version="1.0" encoding="utf-8"?>
<!-- Generator: Adobe Illustrator 24.1.0, SVG Export Plug-In . SVG Version: 6.00 Build 0)  -->
<svg version="1.1" id="Layer_1" xmlns="http://www.w3.org/2000/svg" xmlns:xlink="http://www.w3.org/1999/xlink" x="0px" y="0px"
	 viewBox="0 0 130 50" style="enable-background:new 0 0 130 50;" xml:space="preserve">
<style type="text/css">
	.st0{fill:#FFA600;}
</style>
<g>
	<path class="st0" d="M89.865,38.491c-0.144,0-0.289-0.035-0.421-0.105l-8.118-4.305l-8.148,4.247
		c-0.303,0.159-0.67,0.131-0.947-0.072c-0.276-0.202-0.413-0.543-0.354-0.88l1.585-9.05l-6.556-6.437
		c-0.244-0.24-0.331-0.597-0.224-0.922c0.107-0.325,0.389-0.561,0.728-0.609l9.098-1.288l4.096-8.225
		c0.152-0.305,0.464-0.498,0.805-0.498c0.001,0,0.002,0,0.003,0c0.342,0.001,0.654,0.197,0.804,0.504l4.037,8.254l9.088,1.354
		c0.338,0.05,0.619,0.289,0.723,0.614c0.104,0.326,0.015,0.683-0.231,0.921l-6.603,6.39l1.521,9.062
		c0.056,0.337-0.083,0.678-0.361,0.878C90.235,38.433,90.05,38.491,89.865,38.491z"/>
</g>
<g>
	<path class="st0" d="M57.046,38.491c-0.144,0-0.289-0.035-0.421-0.105l-8.118-4.305l-8.148,4.247
		c-0.303,0.159-0.67,0.131-0.947-0.072c-0.276-0.202-0.413-0.543-0.354-0.88l1.585-9.05l-6.556-6.437
		c-0.244-0.24-0.331-0.597-0.224-0.922c0.107-0.325,0.389-0.561,0.728-0.609l9.098-1.288l4.096-8.225
		c0.152-0.305,0.464-0.498,0.805-0.498c0.001,0,0.002,0,0.003,0c0.342,0.001,0.654,0.197,0.804,0.504l4.037,8.254l9.088,1.354
		c0.338,0.05,0.619,0.289,0.723,0.614c0.104,0.326,0.015,0.683-0.231,0.921l-6.603,6.39l1.521,9.062
		c0.056,0.337-0.083,0.678-0.361,0.878C57.416,38.433,57.232,38.491,57.046,38.491z"/>
</g>
<g>
	<path class="st0" d="M122.684,38.491c-0.144,0-0.289-0.035-0.421-0.105l-8.118-4.305l-8.148,4.247
		c-0.303,0.159-0.67,0.131-0.947-0.072c-0.276-0.202-0.413-0.543-0.354-0.88l1.585-9.05l-6.556-6.437
		c-0.244-0.24-0.331-0.597-0.224-0.922c0.107-0.325,0.389-0.561,0.728-0.609l9.098-1.288l4.096-8.225
		c0.152-0.305,0.464-0.498,0.805-0.498c0.001,0,0.002,0,0.003,0c0.342,0.001,0.654,0.197,0.804,0.504l4.037,8.254l9.088,1.354
		c0.338,0.05,0.619,0.289,0.723,0.614c0.104,0.326,0.015,0.683-0.231,0.921l-6.603,6.39l1.521,9.062
		c0.056,0.337-0.083,0.678-0.361,0.878C123.054,38.433,122.869,38.491,122.684,38.491z"/>
</g>
<g>
	<path class="st0" d="M24.228,38.491c-0.144,0-0.289-0.035-0.421-0.105l-8.118-4.305l-8.148,4.247
		c-0.303,0.159-0.67,0.131-0.947-0.072c-0.276-0.202-0.413-0.543-0.354-0.88l1.585-9.05l-6.556-6.437
		c-0.244-0.24-0.331-0.597-0.224-0.922c0.107-0.325,0.389-0.561,0.728-0.609l9.098-1.288l4.096-8.225
		c0.152-0.305,0.464-0.498,0.805-0.498c0.001,0,0.002,0,0.003,0c0.342,0.001,0.654,0.197,0.804,0.504l4.037,8.254l9.088,1.354
		c0.338,0.05,0.619,0.289,0.723,0.614c0.104,0.326,0.015,0.683-0.231,0.921l-6.603,6.39l1.521,9.062
		c0.056,0.337-0.083,0.678-0.361,0.878C24.597,38.433,24.413,38.491,24.228,38.491z"/>
</g>
</svg>
