<?xml version="1.0" encoding="utf-8"?>
<!-- Generator: Adobe Illustrator 24.1.0, SVG Export Plug-In . SVG Version: 6.00 Build 0)  -->
<svg version="1.1" id="Layer_1" xmlns="http://www.w3.org/2000/svg" xmlns:xlink="http://www.w3.org/1999/xlink" x="0px" y="0px"
	 viewBox="0 0 420 99" style="enable-background:new 0 0 420 99;" xml:space="preserve">
<style type="text/css">
	.st0{opacity:0.4;fill:#310E3F;enable-background:new    ;}
	.st1{fill:#E0BDAE;}
	.st2{fill:#91ABB1;}
	.st3{fill:#FCF065;}
	.st4{fill:#FFFFFF;}
	.st5{fill:#EB519B;}
	.st6{fill:#8A3E6E;}
	.st7{fill:#2F141A;}
	.st8{fill:#D28ABB;}
	.st9{fill:none;}
	.st10{fill:#D1D2D3;}
	.st11{fill:#929497;}
	.st12{fill:#4E4D50;}
	.st13{fill:#FFFFFF;stroke:#000000;stroke-width:0.6018;stroke-miterlimit:10;}
	.st14{fill:#FFFFFF;stroke:#000000;stroke-width:0.3009;stroke-miterlimit:10;}
	.st15{fill:#FFFFFF;stroke:#000000;stroke-width:0.685;stroke-miterlimit:10;}
	.st16{fill:#FFFFFF;stroke:#000000;stroke-width:0.3425;stroke-miterlimit:10;}
	.st17{fill:#A9DFF6;}
	.st18{fill:#50B748;}
	.st19{fill:#310E3F;}
	.st20{opacity:0.27;enable-background:new    ;}
</style>
<g>
	<g>
		<ellipse class="st0" cx="60.586" cy="94.108" rx="27.414" ry="1.749"/>
		<path class="st1" d="M58.293,94.053c-1.282,0.018-2.587,0.02-3.854,0.002c-0.309-0.005-0.935,0.017-1.247,0.034
			c-0.845,0.046-1.731-0.062-2.59-0.027c-1.083,0.045-2.1-0.173-3.171-0.044c-0.099,0.012-0.203,0.023-0.295-0.015
			c-0.11-0.047-0.178-0.156-0.239-0.258c-0.215-0.363-0.488-0.745-0.549-1.164c-0.068-0.464-0.075-0.945-0.058-1.412
			c0.02-0.525,0.111-0.885,0.307-1.357c0.191-0.459,0.166-0.977,0.409-1.421c0.633-1.152,1.843-1.242,3.018-1.08
			c1.273,0.175,2.475,0.444,3.722,0.73c0.27,0.062,0.55,0.082,0.814,0.166c0.827,0.262,1.821,0.377,2.679,0.296
			c0.233-0.022,0.38,0.076,0.602,0.087c0.157,0.008,0.294-0.1,0.404-0.213c0.384-0.398,0.603-0.916,0.743-1.444
			c0.141-0.529,0.315-1.054,0.437-1.592c0.263-1.16,0.223-2.383-0.064-3.535c-0.138-0.552-0.331-1.09-0.569-1.606
			c-0.38-0.824-0.883-1.751-1.53-2.398c-0.485-0.486-0.871-1.042-1.31-1.579c-0.929-1.137-1.964-2.366-3.216-3.16
			c-1.206-0.765-1.178-1.004-2.627-1.25c-0.221-0.038-0.486-0.041-0.626,0.135c-0.082,0.102-0.098,0.24-0.106,0.37
			c-0.106,1.799,1.42,1.445-0.004,2.483c-1.168,0.852-3.838,3.219-5.126,3.88c-1.168,0.599-2.398,1.508-3.497,2.283
			c-0.995,0.703-1.884,1.119-3.088,0.931c-0.905-0.142-2.336-1.1-3.015-1.717c-0.584-0.531-1.369-1.764-1.611-2.516
			c-0.242-0.752,0.761-1.532,1.493-1.828c0.196-0.079,0.694-0.445,0.857-0.581c0.535-0.446-0.274-1.126-0.021-1.775
			c0.191-0.491,1.292-0.786,1.802-0.657s1.619,0.297,2.112,0.482c1.189,0.446,1.719,0.585,2.834-0.022
			c1.495-0.813,2.826-1.771,4.136-2.844c0.271-0.222,0.81-0.176,0.936-0.503c0.157-0.407,0.044-0.886,0.225-1.283
			c0.258-0.568,0.98-0.728,1.602-0.773c2.632-0.192,4.805,0.545,7.206,1.472c1.705,0.659,4.208-0.483,6.144-0.63
			c3.22-0.246,5.595,0.784,7.953-2.123c0.963-1.187,1.993-2.54,2.778-3.838c0.508-0.84,1.172-2.193,2.493-1.315
			c0.561,0.373,0.827,1.048,1.057,1.681c0.723,1.986,1.734,3.853,2.462,5.837c0.323,0.881,0.718,1.738,0.937,2.654
			c0.106,0.444,0.174,0.901,0.152,1.358c-0.011,0.225-0.097,0.453-0.103,0.673c-0.018,0.618-0.254,0.869-0.725,1.295
			c-0.43,0.388-0.753,0.857-1.285,1.127c-0.172,0.087-0.36,0.146-0.517,0.259c-0.177,0.127-0.301,0.313-0.458,0.463
			c-0.227,0.217-0.517,0.353-0.802,0.487c-0.358,0.167-0.716,0.335-1.075,0.502c-0.52,0.243-0.927,0.306-1.479,0.359
			c-0.314,0.03-0.732,0.529-1.051,0.419c0.091,0.32,0.346,0.564,0.506,0.857c0.121,0.222,0.186,0.469,0.249,0.713
			c0.038,0.148,0.077,0.298,0.072,0.451c-0.007,0.212-0.098,0.412-0.201,0.598c-0.297,0.534-0.633,1.041-1.216,1.244
			c-0.774,0.27-1.602,0.363-2.409,0.489c-0.238,0.037-0.469-0.037-0.703-0.01c-0.043,0.005-0.083,0.011-0.12,0.018
			c-1.011,0.182-0.338,1.594-0.201,2.148c0.098,0.397,0.116,0.62,0.447,0.921c0.61,0.555,1.3,1.222,2.11,1.456
			c0.616,0.178,1.264,0.163,1.785,0.586c0.548,0.446,0.901,1.137,1.087,1.807c0.253,0.91,0.242,1.87,0.229,2.814
			c-0.004,0.318-0.093,0.617-0.229,0.903c-0.212,0.443-0.716,0.506-1.1,0.503c-1.44-0.013-2.715-0.046-4.156-0.059
			c-1.56-0.014-2.672,0.078-4.231,0.059c-0.795-0.01-0.919-0.236-1.7,0c-0.645,0.194-1.298-0.026-1.983-0.059
			C60.292,93.964,58.933,94.044,58.293,94.053z"/>
		<path class="st2" d="M78.236,58.714c-0.097-0.445-0.155-0.901-0.289-1.341c-0.058-0.189-0.125-0.374-0.199-0.557
			c-0.062-0.15-0.066-0.299-0.12-0.452c-0.094-0.265-0.262-0.501-0.365-0.763c-0.052-0.133-0.069-0.386-0.185-0.477
			c0.16,0.126,0.23,0.344,0.398,0.458c0.555,0.378,0.783,1.116,1.332,1.53c0.144,0.108,0.752,0.61,0.676,0.821
			c0.19-0.522,0.196-1.071,0.137-1.616c-0.054-0.496-0.052-0.988-0.139-1.487c-0.185-1.063-0.533-2.091-0.964-3.077
			c-0.359-0.819-0.844-1.576-1.352-2.311c-0.32-0.464-0.65-0.922-1.004-1.36c-0.177-0.218-0.36-0.433-0.551-0.639
			c-0.154-0.166-0.384-0.329-0.495-0.526c0.453,0.203,0.911,0.395,1.375,0.575c0.188,0.073,0.376,0.144,0.567,0.207
			c0.701,0.234,1.347,0.597,2.08,0.756c-0.457-1.276-1.058-2.501-1.786-3.645c-0.419-0.658-0.882-1.253-1.263-1.936
			c-0.177-0.318-0.413-0.51-0.635-0.784c-0.501-0.617-1.003-1.233-1.558-1.802c-0.241-0.247-0.454-0.372-0.737-0.545
			c-0.176-0.107-0.262-0.277-0.39-0.429c-0.137-0.161-0.278-0.242-0.456-0.36c-0.36-0.239-0.697-0.509-1.053-0.752
			C70.96,38,70.62,37.853,70.311,37.657c-0.671-0.424-1.369-0.803-2.068-1.178c-0.245-0.132-0.501-0.248-0.77-0.316
			c-0.486-0.123-0.964-0.158-1.441-0.321c-0.384-0.131-0.802-0.201-1.203-0.26c-0.908-0.14-1.856-0.403-2.758-0.349
			c0.122-0.274,0.397-0.454,0.602-0.665c0.173-0.177,0.358-0.341,0.55-0.496c0-0.113,0.418-0.278,0.51-0.329
			c0.256-0.142,0.498-0.318,0.744-0.476c0.059-0.038,0.122-0.09,0.106-0.153c-0.008-0.034-0.038-0.058-0.067-0.077
			c-0.128-0.081-0.283-0.102-0.433-0.119c-1.313-0.15-2.593-0.178-3.915-0.134c-1.413,0.047-2.847,0.152-4.218,0.522
			c-1.279,0.345-2.573,0.689-3.753,1.319c-0.934,0.498-1.821,1.082-2.649,1.742c-0.414,0.33-0.813,0.678-1.195,1.044
			c-0.335,0.321-0.641,0.754-1.009,1.027c0.106-0.773,0.343-1.502,0.614-2.235c0.128-0.346,0.256-0.72,0.441-1.04
			c0.056-0.097,0.405-0.698,0.459-0.711c-1.066,0.254-2.032,0.814-2.97,1.381c-0.437,0.264-0.875,0.533-1.271,0.855
			c-1.243,1.011-2.008,2.481-2.698,3.926c-0.276,0.578-0.549,1.165-0.694,1.791c-0.066,0.285-0.164,0.55-0.255,0.832
			c-0.046,0.142-0.313,0.778-0.233,0.901c-0.603-0.936-0.304-2.01-0.47-3.067c0.017,0.107-0.177,0.411-0.216,0.525
			c-0.066,0.19-0.11,0.385-0.163,0.578c-0.122,0.445-0.275,0.881-0.397,1.326c-0.13,0.469-0.243,0.944-0.322,1.425
			c-0.036,0.224-0.102,0.482-0.08,0.71c0.02,0.218,0.118,0.521-0.204,0.579c-0.068,0.012-0.232-0.033-0.295-0.068
			c-0.148-0.084-0.264-0.274-0.324-0.429c-0.047-0.124-0.042-0.633-0.137-0.708c-0.154-0.122-0.271,0.146-0.316,0.282
			c-0.174,0.533-0.167,1.108-0.115,1.666c0.123,1.319,0.37,2.646,1.394,3.585c0.049,0.045,0.107,0.092,0.174,0.088
			c0.063-0.004,0.114-0.051,0.16-0.094c0.503-0.468,0.884,0.045,1.321,0.314c0.51,0.314,1.039,0.6,1.515,0.965
			c0.889,0.681,2.075,1.959,1.825,3.193c-0.091,0.448-0.417,0.841-0.589,1.261c-0.28,0.683-0.482,1.359-0.866,1.999
			c-0.421,0.702-0.948,1.336-1.354,2.047c-1.48,2.596-1.023,6.601,0.678,9.058c1.769,2.556,4.379,4.496,7.247,5.66
			c0.446,0.181,1.059,0.502,1.533,0.517c-0.125-0.004-0.464-1.407-0.576-1.569c-0.08-0.116-0.264-0.405-0.156-0.546
			c0.136-0.179,0.1,0,0.222,0.098c0.307,0.248,0.832,0.621,1.208,0.768c0.422,0.165,0.833,0.363,1.249,0.553
			c0.547,0.25,1.107,0.502,1.705,0.558c0.185,0.017,0.376,0.016,0.548,0.085c0.084,0.033,0.161,0.083,0.242,0.122
			c0.603,0.291,1.39,0.218,2.043,0.293c0.807,0.093,1.608,0.103,2.412,0.157c-0.058-0.004-0.639-0.908-0.652-1.021
			c-0.003-0.027-0.003-0.057,0.011-0.08c0.03-0.051,0.104-0.048,0.163-0.039c1.69,0.265,3.382,0.17,5.075,0.279
			c0.843,0.054,1.716,0.104,2.504-0.199c0.169-0.065,0.333-0.146,0.477-0.257c0.105-0.081,0.197-0.178,0.301-0.261
			c0.178-0.144,0.386-0.247,0.592-0.349c1.679-0.831,3.388-1.672,5.235-1.985c-0.1-0.159-0.189-0.338-0.307-0.485
			c-0.075-0.094-0.177-0.146-0.262-0.228c-0.293-0.281-0.482-0.608-0.701-0.941c-0.036-0.055-0.074-0.109-0.095-0.171
			c-0.016-0.046-0.021-0.096-0.025-0.145c-0.021-0.25-0.041-0.543,0.01-0.791c0.042-0.204,0.214-0.396,0.347-0.554
			c0.072-0.086,0.151-0.173,0.254-0.218c0.23-0.102,0.451,0.029,0.67,0.084c0.242,0.06,0.452,0.135,0.675,0.251
			c-0.086-0.045,0-0.678,0.012-0.772c0.023-0.187-0.006-0.432,0.054-0.608c0.213-0.621,1.072-0.549,1.542-0.337
			c0.487,0.219,0.656,0.54,0.93,0.955c-0.051-0.077-0.013-0.355-0.018-0.452c-0.007-0.138-0.005-0.275-0.004-0.411
			c0.001-0.196-0.018-0.386,0.01-0.583c0.053-0.368,0.232-0.762,0.641-0.822c0.17-0.025,0.252,0.056,0.374,0.15
			c0.22,0.17,0.405,0.306,0.595,0.513c0.093,0.101,0.188,0.205,0.242,0.331c-0.148-0.26-0.265-0.535-0.358-0.819
			c-0.066-0.202-0.12-0.467-0.242-0.64c-0.032-0.045-0.069-0.094-0.06-0.148c0.005-0.026,0.02-0.049,0.034-0.07
			c0.114-0.17,0.19-0.27,0.232-0.469c0.042-0.2,0.096-0.397,0.147-0.594c0.193-0.742,0.262-1.511,0.309-2.276
			c0.022-0.365,0.04-0.733,0.047-1.099C78.411,60.098,78.389,59.413,78.236,58.714z"/>
		<path class="st3" d="M54.234,54.841c0,2.001-0.198,4.244-1.144,6.049c-0.258,0.493-0.637,1.088-1.204,1.259
			c-0.361,0.109-0.701-0.065-1.061,0.009c-0.607,0.124-1.102,0.435-1.75,0.43c-0.682-0.005-1.793-0.405-2.248-0.92
			c-0.336-0.38-0.508-0.882-0.572-1.385c-0.033-0.257-0.038-0.522,0.026-0.774c0.225-0.872,1.211-1.358,1.517-2.205
			c0.346-0.956,0.07-1.902,0.099-2.876c0.034-1.168,0.256-2.32,0.476-3.464c0.27-1.405,0.985-3.212,0.09-4.519
			c-0.062-0.09-0.13-0.178-0.16-0.283c-0.03-0.105-0.011-0.233,0.078-0.297c0.043-0.031,0.098-0.044,0.15-0.052
			c0.441-0.067,0.913,0.134,1.169,0.5c0.137,0.196,0.227,0.444,0.437,0.559c0.711,0.391,1.676-0.212,2.158-0.695
			c0.119-0.119,0.27-0.26,0.431-0.21c0.103,0.032,0.166,0.134,0.216,0.23c0.483,0.949,0.449,2.065,0.593,3.12
			c0.127,0.935,0.401,1.84,0.573,2.766C54.279,53.007,54.234,53.907,54.234,54.841z"/>
		<path class="st4" d="M47.732,49.287c-0.04-0.16-0.09-0.319-0.098-0.484c-0.007-0.165,0.038-0.341,0.161-0.451
			c0.158-0.142,0.401-0.138,0.605-0.075c0.327,0.101,0.611,0.337,0.769,0.641c0.202,0.387,0.198,0.846,0.188,1.283
			c-0.009,0.405,0.017,0.809,0.033,1.212c0.007,0.182-0.02,0.357-0.053,0.53c-0.047,0.25-0.107,0.497-0.093,0.761
			c0.031,0.579-0.177,1.101-0.245,1.664c-0.112,0.927-0.358,1.853-0.529,2.775c-0.039,0.212-0.079,0.425-0.154,0.627
			c-0.243,0.649-0.542,1.275-0.839,1.905c-0.084,0.178-0.267,0.325-0.313,0.513c-0.026,0.109-0.031,0.225-0.081,0.325
			c-0.071,0.142-0.235,0.232-0.392,0.214c-0.246-0.027-0.417-0.277-0.659-0.329c-0.049-0.01-0.102-0.014-0.142-0.044
			c-0.058-0.045-0.065-0.129-0.059-0.202c0.09-1.24,0.976-2.276,1.196-3.496c0.078-0.43,0.098-0.869,0.165-1.301
			c0.101-0.647,0.397-1.276,0.457-1.922c0.058-0.621,0.287-1.215,0.238-1.851c-0.031-0.401-0.184-0.823-0.128-1.227
			C47.813,49.979,47.828,49.675,47.732,49.287z"/>
		<path class="st4" d="M61.798,58.625c-0.517,1.247-1.117,2.427-2.068,3.407c-0.058,0.06-0.12,0.121-0.198,0.148
			c-0.177,0.063-0.361-0.059-0.509-0.175c-0.097-0.075-0.194-0.151-0.291-0.226c-0.044-0.034-0.09-0.071-0.109-0.124
			c-0.018-0.05-0.007-0.106,0.005-0.158c0.098-0.444,0.234-0.88,0.403-1.302c0.146-0.365,0.383-0.689,0.47-1.071
			c0.046-0.199,0.022-0.398,0.058-0.597c0.105-0.594,0.489-1.197,0.697-1.767c0.457-1.251,0.796-2.544,1.053-3.851
			c0.085-0.429,0.209-0.882,0.222-1.317c0.014-0.481-0.006-0.951,0.056-1.431c0.018-0.14,0.041-0.284,0.112-0.406
			c0.111-0.191,0.34-0.307,0.56-0.281c0.26,0.03,0.464,0.228,0.646,0.415c0.198,0.203,0.401,0.414,0.504,0.679
			c0.109,0.277,0.097,0.585,0.068,0.882c-0.07,0.728-0.232,1.435-0.286,2.158c-0.064,0.854-0.401,1.64-0.498,2.471
			C62.589,56.959,62.133,57.816,61.798,58.625z"/>
		<path d="M47.368,56.108c-0.008,0.042-0.015,0.083-0.023,0.125c-0.079,0.429-0.19,0.766-0.341,1.163
			c-0.167,0.441-0.216,0.911-0.441,1.334c-0.34,0.644-0.588,1.335-0.932,1.979c-0.063,0.118-0.297,0.678-0.491,0.629
			c-0.193-0.049-0.098-0.5-0.158-0.639c-0.1-0.234-0.403-0.397-0.622-0.501c-0.486-0.231-1.254-0.234-1.781-0.168
			c-0.489,0.06-0.863,0.439-1.395,0.468c-0.107,0.006-0.22,0.002-0.31-0.057c-0.074-0.048-0.122-0.126-0.163-0.205
			c-0.129-0.251-0.203-0.525-0.277-0.797c-0.114-0.422-0.227-0.844-0.341-1.265c-0.09-0.333-0.107-0.616-0.114-0.951
			c-0.006-0.298-0.098-0.599-0.118-0.901c-0.026-0.388,0.006-0.778,0.039-1.166c0.064-0.765,0.016-1.523,0.072-2.292
			c0.035-0.48,0.168-0.943,0.245-1.417c0.033-0.203,0.067-0.408,0.145-0.597c0.056-0.134,0.133-0.258,0.209-0.381
			c0.062-0.099,0.123-0.198,0.185-0.297c0.071-0.114,0.142-0.228,0.232-0.327c0.321-0.353,0.804-0.477,1.158-0.777
			c0.431-0.362,0.753-0.792,1.286-1.026c0.295-0.129,0.616-0.19,0.933-0.25c1.044-0.196,2.131-0.39,3.154-0.108
			c0.33,0.091,0.215,0.46,0.196,0.721c-0.023,0.331,0.107,0.63,0.164,0.954c0.118,0.671,0.131,1.356,0.083,2.035
			c-0.023,0.325-0.093,0.653-0.106,0.978c-0.009,0.228,0.042,0.439,0.015,0.669C47.755,54.071,47.557,55.089,47.368,56.108z"/>
		<path d="M51.833,49.623c0.008-0.05,0.016-0.101,0.024-0.152c0.019-0.121,0.039-0.242,0.079-0.357
			c0.145-0.411,0.505-0.613,0.777-0.915c0.295-0.329,0.505-0.693,0.873-0.959c0.761-0.549,1.608-0.458,2.468-0.612
			c0.555-0.099,1.115-0.193,1.681-0.204c0.431-0.008,1.099-0.033,1.488,0.174c0.643,0.342,1.308,0.66,1.939,1.02
			c0.505,0.289,0.657,1.061,0.683,1.61c0.031,0.665-0.13,1.311-0.112,1.972c0.02,0.75-0.162,1.556-0.254,2.301
			c-0.06,0.489-0.06,0.982-0.199,1.462c-0.088,0.314-0.096,0.614-0.211,0.919c-0.301,0.799-0.349,1.64-0.599,2.456
			c-0.227,0.742-0.543,1.188-0.822,1.905c-0.046,0.118-0.349,0.488-0.42,0.592c-0.336,0.492-0.497,0.942-1.275,0.211
			c-0.212-0.199-0.399-0.43-0.646-0.584c-0.248-0.154-0.543-0.207-0.831-0.257c-0.805-0.141-1.61-0.281-2.414-0.423
			c-0.387-0.068-0.774-0.146-1.161-0.213c-0.295-0.051-0.409,1.132-0.706,1.16c-0.098-0.498-0.196-1.094-0.387-2.597
			c-0.058-0.454-0.093-0.922-0.151-1.381c-0.042-0.325-0.083-0.651-0.103-0.978c-0.022-0.363-0.017-0.727-0.012-1.091
			c0.006-0.43,0.012-0.86,0.018-1.291c0.013-0.948,0.027-1.897,0.139-2.838c0.048-0.402,0.066-0.868,0.232-1.242
			c0.071-0.159,0.141-0.318,0.212-0.476c0.149-0.334,0.309-0.684,0.605-0.898"/>
		<path class="st5" d="M39.266,50.631c-0.697-0.915-1.304-3.105-1.008-3.815c0.375,0.669,1.11,0.469,1.11,0.469
			s0.213-1.124,0.502-3.083c0.458,0.871,0.952,1.437,0.952,1.437s1.791-6.447,5.382-9.197c-0.721,2.315,0,5.256,0,5.256
			s6.688-7.938,14.852-7.641c-2.785,2.095-3.715,2.582-4.362,4.91c9.012-4.605,17.504,2.336,19.807,6.684
			c-6.852-4.349-12.479-2.401-12.479-2.401s3.427,1.956,3.427,3.168c-3.069-1.565-6.128-0.21-6.285,1.199
			c-0.157,1.409-1.46-2.11-1.46-2.11s-5.461-1.425-6.976,0.457c-0.979,1.216-1.937,2.044-2.49,3.816
			c-0.692-2.886-1.625-3.974-2.545-4.18c-1.859-0.417-4.964,2.383-5.078,2.408C42.498,48.036,39.266,50.631,39.266,50.631
			L39.266,50.631z"/>
		<path class="st6" d="M41.826,64.075c-1.124,2.481,3.012,8.521,7.095,9.678c-0.409-1.132-0.605-2.301-0.551-2.597
			c0.43,0.282,6.194,3.928,9.296,3.77c-0.543-0.703-0.884-1.382-0.79-1.556c1.048,0.553,7.407,0.878,8.873,0.811
			c-7.529-3.393-11.065-7.645-9.921-10.344c0.697-1.644-12.146-0.831-12.2-0.844C43.574,62.979,41.826,64.075,41.826,64.075z"/>
		<path class="st7" d="M51.697,69.969c-0.284,0.15-0.615,0.212-0.909,0.35c-0.289,0.136-0.548,0.348-0.862,0.406
			c-0.281,0.052-0.567-0.026-0.842-0.103c-0.426-0.12-0.852-0.24-1.278-0.36c-0.306-0.086-0.616-0.174-0.884-0.345
			c-0.213-0.135-0.39-0.317-0.564-0.499c-0.439-0.46-0.864-0.933-1.275-1.418c-0.454-0.537-0.584-1.184-0.799-1.843
			c-0.043-0.131-0.086-0.265-0.093-0.402c-0.011-0.226,0.074-0.445,0.158-0.655c0.106-0.263,0.214-0.531,0.39-0.753
			c0.183-0.23,0.431-0.398,0.685-0.547c1.321-0.773,3.071-0.515,4.548-0.515c0.431,0,0.982-0.093,1.401,0.005
			c0.868,0.203,1.256,0.959,1.544,1.729c0.361,0.967-0.073,1.779-0.255,2.726c-0.074,0.385-0.104,0.779-0.207,1.158
			c-0.103,0.378-0.292,0.751-0.613,0.977C51.796,69.913,51.747,69.942,51.697,69.969z"/>
		<path class="st8" d="M51.53,70.016c-0.023,0.012-0.047,0.024-0.072,0.034c-0.454,0.192-0.846,0.344-1.354,0.331
			c-0.318-0.008-0.635-0.016-0.953-0.024c-0.377-0.01-0.759-0.02-1.123-0.12c-0.783-0.215-1.878-0.837-2.333-1.526
			c-0.017-0.025-0.034-0.054-0.03-0.084c0.005-0.036,0.037-0.06,0.067-0.081c0.371-0.255,0.86-0.477,1.188-0.749
			c0.181-0.15,0.289-0.316,0.531-0.429c0.255-0.119,0.53-0.193,0.803-0.257c0.293-0.07,0.59-0.13,0.891-0.121
			c0.557,0.017,1.032,0.178,1.584,0.09c0.546-0.088,1.212-0.017,1.726,0.19c0.198,0.08,0.249,0.16,0.238,0.386
			c-0.03,0.656-0.25,1.302-0.625,1.841C51.925,69.704,51.751,69.9,51.53,70.016z"/>
		<line class="st9" x1="47.689" y1="68.196" x2="47.662" y2="68.196"/>
		<g>
			<path d="M44.482,65.974c0.114,0.565,0.323,1.108,0.61,1.605c0.28,0.501,0.633,0.961,1.04,1.361
				c0.804,0.799,1.863,1.398,2.982,1.327c0.562-0.025,1.121-0.144,1.618-0.392c0.494-0.254,0.912-0.637,1.227-1.1
				c0.071-0.121,0.158-0.232,0.217-0.361l0.182-0.384c0.092-0.269,0.194-0.537,0.25-0.82c0.08-0.277,0.11-0.566,0.154-0.853
				c0.036-0.288,0.044-0.58,0.07-0.871h0.208c0.008,0.595-0.007,1.196-0.126,1.789c-0.044,0.3-0.145,0.587-0.234,0.879l-0.183,0.422
				c-0.06,0.141-0.15,0.269-0.225,0.404c-0.325,0.526-0.8,0.969-1.354,1.259c-0.557,0.286-1.175,0.423-1.788,0.457
				c-0.301,0.009-0.628,0.001-0.933-0.078c-0.309-0.062-0.599-0.181-0.877-0.314c-0.553-0.276-1.047-0.652-1.465-1.093
				c-0.832-0.881-1.436-2-1.579-3.206L44.482,65.974z"/>
		</g>
		<ellipse class="st10" cx="70.629" cy="53.493" rx="4.653" ry="6.141"/>
		<path class="st11" d="M74.107,57.271c0.108-0.18,0.252-0.335,0.395-0.489c-0.163,0.543-0.488,0.971-0.859,1.388
			c-0.769,0.864-1.839,1.463-3.015,1.463c-2.57,0-4.653-2.749-4.653-6.141c0-3.392,2.083-6.141,4.653-6.141
			c1.628,0,3.166,1.199,3.839,2.642c0.055,0.118,0.11,0.236,0.165,0.354c-0.306-0.435-0.646-0.839-1.005-1.23
			c-0.225-0.244-0.514-0.416-0.778-0.613c-0.128-0.096-0.22-0.111-0.362-0.163c-0.178-0.064-0.244-0.174-0.445-0.188
			c-0.161-0.011-0.337-0.061-0.504-0.081c-0.28-0.033-0.554-0.037-0.835-0.022c-0.275,0.014-0.554,0.038-0.81,0.138
			c-0.181,0.071-0.346,0.179-0.503,0.294c-0.894,0.659-1.571,1.607-1.905,2.666c-0.15,0.476-0.247,1.004-0.317,1.496
			c-0.082,0.576-0.049,1.164,0.057,1.734c0.092,0.496,0.24,0.979,0.414,1.452c0.148,0.4,0.268,0.916,0.521,1.263
			c0.072,0.098,0.153,0.189,0.234,0.28c0.656,0.733,1.385,1.401,2.404,1.529c0.204,0.026,0.36-0.03,0.55-0.07
			c0.212-0.044,0.435-0.033,0.649-0.081c0.421-0.094,0.823-0.273,1.172-0.525c0.181-0.13,0.347-0.28,0.513-0.429
			c0.105-0.094,0.212-0.19,0.292-0.307C74.026,57.422,74.063,57.345,74.107,57.271z"/>
		<path class="st11" d="M74.385,55.471c-0.169,0.483-0.583,0.834-1.038,1.041c-0.193,0.088-0.295,0.146-0.504,0.161
			c-0.215,0.015-0.432,0.046-0.639,0.01c-0.214-0.036-0.48-0.114-0.672-0.214c-0.315-0.163-0.577-0.537-0.759-0.831
			c-0.4-0.648-0.584-1.421-0.584-2.179c0-1.74,0.903-3.25,2.222-3.25c1.189,0,1.791,0.714,2.137,1.455
			c0.028,0.06,0.057,0.121,0.085,0.182c-0.157-0.223-0.331-0.431-0.516-0.631c-0.115-0.125-0.264-0.214-0.399-0.315
			c-0.066-0.049-0.113-0.058-0.186-0.084c-0.091-0.033-0.125-0.089-0.229-0.097c-0.083-0.006-0.173-0.032-0.258-0.042
			c-0.143-0.017-0.284-0.019-0.429-0.011c-0.141,0.007-0.284,0.02-0.416,0.071c-0.093,0.036-0.178,0.092-0.258,0.151
			c-0.426,0.314-0.759,0.617-0.973,1.119c-0.154,0.361-0.234,0.749-0.284,1.138c-0.027,0.213-0.046,0.428-0.019,0.641
			c0.022,0.169,0.072,0.333,0.126,0.493c0.143,0.428,0.315,0.853,0.585,1.214c0.096,0.128,0.203,0.248,0.321,0.357
			c0.185,0.171,0.397,0.317,0.635,0.398C73.093,56.507,73.907,56.036,74.385,55.471z"/>
		<path class="st12" d="M68.701,35.821c0.024,0.011,0.048,0.022,0.072,0.033c0.364,0.176,0.673,0.45,0.919,0.768
			c0.148,0.19,0.192,0.403,0.281,0.619c0.033,0.08,0.091,0.143,0.123,0.224c0.049,0.124,0.079,0.258,0.116,0.386
			c0.207,0.716,0.355,1.444,0.534,2.165c0.134,0.536,0.248,1.069,0.365,1.613c0.122,0.569,0.215,1.149,0.357,1.716
			c0.036,0.145,0.095,0.289,0.126,0.434c0.029,0.135,0.03,0.283,0.038,0.421c0.02,0.318,0.028,0.638,0.095,0.95
			c0.166,0.776,0.182,1.562,0.173,2.364c0,0.006-0.281-0.116-0.307-0.13c-0.112-0.062-0.187-0.078-0.317-0.088
			c-0.213-0.017-0.425-0.024-0.638-0.03c-0.159-0.004-0.339-0.032-0.495,0.002c-0.33,0.071-0.649,0.19-0.964,0.308
			c-0.242,0.09-0.38,0.324-0.632,0.399c-0.127-0.56,0.14-1.046,0.17-1.599c0.029-0.546,0.013-1.093-0.003-1.639
			c-0.026-0.905-0.012-1.808-0.036-2.713c-0.016-0.598-0.126-1.187-0.205-1.779c-0.038-0.285-0.048-0.566-0.133-0.84
			c-0.091-0.295-0.182-0.591-0.273-0.886c-0.126-0.41-0.254-0.823-0.445-1.209c-0.058-0.118-0.093-0.251-0.166-0.358
			c-0.07-0.102-0.144-0.206-0.219-0.304c-0.138-0.179-0.293-0.349-0.472-0.485c-0.269-0.205-0.573-0.38-0.905-0.461
			c-0.107-0.026-0.215-0.051-0.322-0.074c-0.203-0.043-0.424-0.115-0.63-0.134c0.116-0.134,0.275-0.264,0.457-0.285
			c0.173-0.021,0.331-0.081,0.507-0.102c0.26-0.031,0.491,0.033,0.745,0.068c0.25,0.034,0.554,0.11,0.787,0.208
			c0.224,0.094,0.46,0.15,0.699,0.216C68.303,35.658,68.51,35.737,68.701,35.821z"/>
		<g>
			<path d="M46.991,60.315c0.511-0.749,0.788-1.636,1.054-2.506c0.255-0.878,0.451-1.773,0.63-2.671
				c0.177-0.898,0.309-1.806,0.421-2.714c0.11-0.909,0.202-1.819,0.242-2.733l0.118-0.004c0.082,0.925,0.02,1.852-0.077,2.77
				c-0.101,0.918-0.255,1.829-0.437,2.734c-0.181,0.905-0.405,1.802-0.685,2.684c-0.139,0.441-0.294,0.878-0.485,1.301
				c-0.181,0.426-0.408,0.837-0.688,1.212L46.991,60.315z"/>
		</g>
		<g>
			<path d="M40.585,50.24c-0.273,0.807-0.399,1.654-0.476,2.502c-0.074,0.849-0.086,1.704-0.072,2.558
				c0.021,0.854,0.085,1.708,0.193,2.556c0.122,0.841,0.251,1.703,0.608,2.465l-0.101,0.061c-0.437-0.773-0.608-1.639-0.758-2.489
				c-0.149-0.854-0.218-1.719-0.25-2.584c-0.034-0.866-0.008-1.734,0.087-2.598c0.106-0.86,0.283-1.727,0.66-2.518L40.585,50.24z"/>
		</g>
		<g>
			<path d="M47.832,48.692c0.237,0.955,0.235,1.935,0.214,2.902c-0.039,0.968-0.124,1.935-0.281,2.891
				c-0.151,0.957-0.339,1.909-0.613,2.841c-0.267,0.931-0.609,1.851-1.11,2.686l-0.104-0.057c0.415-0.862,0.697-1.779,0.927-2.706
				c0.221-0.93,0.403-1.87,0.539-2.817c0.129-0.948,0.242-1.899,0.3-2.855c0.063-0.953,0.119-1.915,0.014-2.858L47.832,48.692z"/>
		</g>
		<g>
			<path d="M52.081,49.056c-0.127,0.877-0.235,1.753-0.302,2.633c-0.076,0.879-0.093,1.762-0.097,2.645
				c0.007,1.767,0.173,3.529,0.375,5.295l-0.117,0.017c-0.157-0.874-0.309-1.752-0.405-2.638c-0.106-0.885-0.16-1.777-0.177-2.67
				c-0.041-1.784,0.125-3.582,0.557-5.315L52.081,49.056z"/>
		</g>
		<g>
			<path d="M63.515,51.021c0.04,1.06-0.069,2.118-0.242,3.162c-0.175,1.044-0.437,2.074-0.778,3.079
				c-0.337,1.004-0.751,1.989-1.288,2.908c-0.529,0.919-1.183,1.782-2.001,2.462l-0.079-0.088c0.748-0.731,1.332-1.603,1.822-2.518
				c0.481-0.921,0.873-1.888,1.196-2.878c0.32-0.992,0.562-2.008,0.774-3.03c0.211-1.023,0.378-2.055,0.477-3.097L63.515,51.021z"/>
		</g>
		<g>
			<path d="M61.891,49.777c0.07,0.52,0.066,1.043,0.038,1.561c-0.028,0.518-0.068,1.036-0.139,1.55
				c-0.127,1.029-0.318,2.049-0.558,3.057c-0.239,1.008-0.519,2.01-0.902,2.978c-0.191,0.483-0.4,0.963-0.664,1.415
				c-0.261,0.45-0.57,0.892-1.005,1.206l-0.07-0.096c0.383-0.323,0.664-0.757,0.894-1.209c0.229-0.454,0.426-0.926,0.597-1.408
				c0.338-0.966,0.603-1.959,0.833-2.959c0.112-0.501,0.213-1.004,0.304-1.51c0.096-0.504,0.183-1.011,0.258-1.518
				c0.142-1.014,0.301-2.036,0.294-3.056L61.891,49.777z"/>
		</g>
		<g>
			<path d="M70.113,37.441c1.047,0.598,2.037,1.295,2.953,2.081c0.917,0.785,1.752,1.663,2.51,2.603
				c1.523,1.879,2.687,4.025,3.606,6.256l0.133,0.323l-0.33-0.124h0l-3.962-1.622l0.06-0.1l0,0c0.782,0.7,1.461,1.497,2.073,2.344
				c0.607,0.85,1.133,1.76,1.555,2.719c0.42,0.96,0.734,1.968,0.912,3.004c0.183,1.035,0.219,2.095,0.133,3.145l-0.03,0.37
				l-0.25-0.282l0,0l-2.432-2.945l0.097-0.067v0c0.393,0.793,0.682,1.627,0.909,2.479c0.225,0.852,0.371,1.725,0.44,2.606
				c0.064,0.881,0.046,1.769-0.07,2.648c-0.114,0.879-0.331,1.744-0.633,2.579l-0.29-0.11c0.309-0.807,0.537-1.647,0.663-2.505
				c0.129-0.857,0.164-1.729,0.116-2.597c-0.052-0.868-0.18-1.732-0.387-2.579c-0.208-0.844-0.481-1.681-0.853-2.465v0l-0.231-0.424
				l0.327,0.357l2.586,2.816v0l-0.28,0.088c0.1-1.02,0.082-2.055-0.081-3.07c-0.158-1.016-0.45-2.011-0.848-2.962
				c-0.4-0.95-0.905-1.858-1.492-2.708c-0.59-0.846-1.256-1.652-2.012-2.351l0,0l-0.257-0.214l0.316,0.114l4.029,1.447h0
				L78.9,48.495c-0.881-2.219-2.005-4.357-3.488-6.236c-0.738-0.94-1.554-1.821-2.453-2.61c-0.897-0.791-1.871-1.496-2.903-2.103
				L70.113,37.441z"/>
		</g>
		<g>
			<path d="M39.066,50.727c-0.665-0.81-1.124-1.78-1.38-2.802c-0.125-0.512-0.195-1.041-0.184-1.576
				c0.013-0.533,0.109-1.078,0.341-1.58l0,0l0.301-0.559l0.069,0.612c0.034,0.303,0.086,0.607,0.206,0.873
				c0.064,0.128,0.144,0.249,0.255,0.321c0.107,0.075,0.26,0.087,0.384,0.038h0l-0.029,0.054c-0.025-0.881,0.076-1.755,0.254-2.615
				c0.178-0.86,0.454-1.702,0.818-2.507l0,0l0.315-0.653l-0.02,0.72c-0.014,0.519-0.018,1.038,0.007,1.555
				c0.013,0.258,0.034,0.516,0.072,0.77c0.018,0.127,0.044,0.253,0.075,0.375c0.018,0.06,0.035,0.121,0.059,0.177
				c0.019,0.052,0.06,0.12,0.076,0.136l0,0l-0.085,0.042c0.229-1.101,0.584-2.167,1.025-3.199c0.441-1.032,0.992-2.019,1.656-2.93
				c0.671-0.904,1.466-1.729,2.401-2.376c0.929-0.654,1.999-1.107,3.113-1.348h0l0.382-0.084l-0.183,0.344
				c-0.335,0.629-0.648,1.269-0.927,1.925c-0.14,0.328-0.27,0.659-0.386,0.995c-0.115,0.335-0.223,0.679-0.288,1.022v0l-0.107-0.042
				c0.984-1.268,2.232-2.291,3.574-3.149c1.349-0.851,2.823-1.5,4.356-1.944c1.535-0.436,3.125-0.68,4.721-0.721
				c1.596-0.048,3.194,0.08,4.766,0.352l0.38,0.066l-0.328,0.198c-0.492,0.298-0.981,0.602-1.455,0.926
				c-0.238,0.161-0.469,0.33-0.693,0.507c-0.111,0.089-0.221,0.18-0.322,0.278c-0.052,0.048-0.1,0.099-0.145,0.151
				c-0.023,0.026-0.044,0.053-0.062,0.08c-0.018,0.02-0.034,0.07-0.036,0.058v0l-0.062-0.051c0.721-0.018,1.435,0.043,2.144,0.147
				c0.709,0.105,1.409,0.265,2.094,0.474l-0.035,0.113c-0.679-0.208-1.374-0.366-2.076-0.47c-0.702-0.102-1.415-0.163-2.121-0.146
				l-0.057,0.002l-0.005-0.053v0c0.006-0.084,0.029-0.098,0.048-0.139c0.02-0.034,0.042-0.066,0.066-0.095
				c0.046-0.06,0.095-0.116,0.146-0.169c0.101-0.108,0.209-0.206,0.318-0.303c0.219-0.192,0.446-0.375,0.678-0.549
				c0.462-0.351,0.939-0.681,1.419-1.004l0.052,0.264c-1.552-0.283-3.132-0.424-4.709-0.39c-1.577,0.026-3.15,0.253-4.672,0.671
				c-1.519,0.426-2.983,1.054-4.326,1.885c-1.334,0.836-2.586,1.847-3.563,3.081l-0.135,0.17l0.028-0.212V38.44
				c0.048-0.365,0.137-0.713,0.234-1.061c0.098-0.347,0.211-0.69,0.334-1.029c0.244-0.679,0.523-1.345,0.825-1.999l0.199,0.26h0.001
				c-1.071,0.211-2.104,0.625-3.014,1.24c-0.914,0.608-1.704,1.396-2.379,2.27c-0.667,0.881-1.229,1.845-1.684,2.858
				c-0.454,1.012-0.828,2.068-1.073,3.149l-0.018,0.079l-0.067-0.038l-0.002-0.001c-0.088-0.066-0.103-0.122-0.139-0.186
				c-0.031-0.062-0.054-0.126-0.077-0.189c-0.042-0.128-0.077-0.257-0.103-0.386c-0.056-0.259-0.094-0.521-0.123-0.782
				c-0.059-0.523-0.086-1.048-0.105-1.573l0.295,0.067v0c-0.382,0.769-0.683,1.581-0.889,2.42c-0.206,0.837-0.337,1.702-0.345,2.563
				l0,0.038l-0.029,0.016l-0.001,0c-0.158,0.094-0.36,0.107-0.53,0.026c-0.171-0.078-0.293-0.218-0.391-0.36
				c-0.185-0.293-0.286-0.613-0.37-0.932l0.37,0.053v0c-0.223,0.43-0.336,0.922-0.37,1.421c-0.033,0.5,0.01,1.009,0.109,1.507
				c0.202,0.995,0.607,1.964,1.223,2.784L39.066,50.727z"/>
		</g>
		<g>
			<path d="M75.112,60.091c1.075,2.042,2.092,4.114,3.032,6.224c0.469,1.055,0.914,2.122,1.316,3.208
				c0.389,1.09,0.772,2.189,0.922,3.367c0.033,0.295,0.047,0.598-0.006,0.914c-0.052,0.325-0.206,0.605-0.378,0.857
				c-0.346,0.509-0.804,0.9-1.268,1.264c-0.469,0.36-0.965,0.674-1.474,0.962c-0.507,0.291-1.03,0.551-1.563,0.786
				c-1.062,0.478-2.157,0.876-3.273,1.196c-1.116,0.317-2.258,0.569-3.414,0.65c1.124-0.275,2.212-0.642,3.292-1.029
				c1.078-0.393,2.142-0.817,3.181-1.29c1.032-0.485,2.06-0.989,2.98-1.643c0.896-0.647,1.814-1.477,1.581-2.633
				c-0.115-1.118-0.469-2.226-0.83-3.312c-0.374-1.087-0.793-2.16-1.237-3.223c-0.889-2.126-1.859-4.22-2.886-6.285L75.112,60.091z"
				/>
		</g>
		<g>
			<path d="M69.004,66.789c0.779,0.813,1.493,1.687,2.209,2.555c0.713,0.872,1.414,1.753,2.108,2.642l0.149,0.191l-0.242,0.072
				l-0.001,0c-1.003,0.281-1.999,0.623-2.964,1.021c-0.961,0.403-1.911,0.859-2.735,1.471c-0.407,0.305-0.789,0.66-1.015,1.086
				c-0.061,0.106-0.095,0.214-0.134,0.331c-0.034,0.125-0.067,0.25-0.098,0.376c-0.06,0.253-0.115,0.506-0.16,0.763
				c-0.178,1.022-0.267,2.072-0.15,3.094c0.06,0.508,0.175,1.014,0.405,1.456c0.221,0.445,0.587,0.802,1.048,0.951
				c0.46,0.167,0.97,0.09,1.497,0.043c0.521-0.052,1.04-0.115,1.553-0.206c0.512-0.093,1.019-0.211,1.496-0.395
				c0.469-0.187,0.931-0.442,1.199-0.842c0.133-0.198,0.208-0.428,0.224-0.667c0.016-0.241-0.031-0.486-0.099-0.726
				c-0.143-0.482-0.384-0.943-0.633-1.406l0.097-0.068c0.35,0.401,0.641,0.865,0.813,1.389c0.082,0.263,0.133,0.542,0.117,0.829
				c-0.017,0.286-0.11,0.574-0.27,0.814c-0.327,0.486-0.84,0.759-1.336,0.961c-0.505,0.197-1.028,0.321-1.552,0.417
				c-0.524,0.095-1.051,0.161-1.577,0.216c-0.268,0.023-0.516,0.059-0.8,0.064c-0.277,0.005-0.562-0.021-0.832-0.116
				c-0.27-0.09-0.524-0.238-0.735-0.431c-0.213-0.193-0.373-0.429-0.504-0.674c-0.259-0.495-0.381-1.035-0.447-1.568
				c-0.126-1.073-0.038-2.146,0.14-3.196c0.045-0.263,0.1-0.524,0.161-0.784c0.031-0.13,0.064-0.259,0.099-0.389
				c0.043-0.134,0.09-0.277,0.16-0.4c0.269-0.508,0.686-0.886,1.114-1.212c0.87-0.645,1.841-1.098,2.82-1.505
				c0.984-0.4,1.985-0.739,3.011-1.021l0.001,0l-0.092,0.262c-0.647-0.919-1.303-1.833-1.97-2.738
				C70.409,68.546,69.742,67.639,69.004,66.789z"/>
		</g>
		<g>
			<path d="M71.885,70.44c-0.036-0.291-0.041-0.581-0.007-0.873c0.038-0.288,0.114-0.595,0.333-0.834
				c0.22-0.244,0.583-0.321,0.884-0.273c0.309,0.038,0.59,0.151,0.86,0.273l0.001,0.001l-0.249,0.173
				c0.009-0.387,0-0.774,0.116-1.15l0.11-0.273c0.057-0.082,0.104-0.17,0.172-0.242c0.137-0.146,0.32-0.25,0.517-0.281
				c0.4-0.069,0.779,0.1,1.1,0.301c0.321,0.213,0.592,0.494,0.826,0.806l-0.282,0.086v-0.001c0.009-0.373,0.027-0.748,0.076-1.12
				c0.027-0.186,0.062-0.372,0.12-0.554c0.059-0.179,0.142-0.367,0.309-0.493c0.085-0.059,0.189-0.09,0.291-0.089
				c0.102,0.006,0.196,0.035,0.284,0.075c0.173,0.085,0.319,0.206,0.454,0.335c0.268,0.261,0.5,0.552,0.679,0.89l-0.109,0.046
				c-0.138-0.327-0.369-0.626-0.625-0.88c-0.132-0.124-0.277-0.236-0.437-0.31c-0.081-0.034-0.164-0.058-0.248-0.061
				c-0.083,0.001-0.16,0.032-0.224,0.08c-0.125,0.106-0.194,0.275-0.238,0.445c-0.046,0.171-0.067,0.351-0.074,0.531
				c-0.02,0.361,0.007,0.726,0.047,1.088v0.001l-0.035,0.587l-0.248-0.501c-0.157-0.317-0.383-0.605-0.666-0.821
				c-0.277-0.214-0.634-0.373-0.976-0.313c-0.346,0.054-0.593,0.363-0.655,0.71c-0.069,0.348-0.024,0.713,0.054,1.061l0.063,0.282
				l-0.312-0.11l-0.001,0c-0.234-0.142-0.484-0.266-0.741-0.317c-0.254-0.058-0.521-0.025-0.701,0.155
				c-0.182,0.176-0.276,0.448-0.323,0.718c-0.048,0.273-0.053,0.559-0.026,0.835L71.885,70.44z"/>
		</g>
		<g>
			<path d="M40.881,66.535c0.016,0.569,0.209,1.126,0.459,1.641c0.25,0.518,0.563,1.007,0.911,1.467
				c0.696,0.922,1.522,1.743,2.415,2.474c0.895,0.731,1.867,1.365,2.885,1.908c1.02,0.54,2.091,0.979,3.193,1.316h0l-0.237,0.246
				l-0.703-2.367v0l-0.078-0.213l0.175,0.15c0.642,0.553,1.402,0.976,2.175,1.336c0.778,0.357,1.591,0.63,2.418,0.849
				c0.416,0.101,0.831,0.203,1.254,0.27c0.419,0.086,0.845,0.131,1.269,0.186c0.424,0.055,0.853,0.068,1.279,0.104
				c0.427,0.015,0.856,0.017,1.283,0.026l0,0l-0.129,0.233l-0.648-1.205l-0.054-0.1l0.11,0.01c1.357,0.122,2.721,0.199,4.083,0.216
				c0.681,0.009,1.362,0.001,2.039-0.039c0.676-0.042,1.355-0.101,2.003-0.26l0.068,0.283c-0.685,0.152-1.373,0.196-2.059,0.224
				c-0.686,0.026-1.372,0.02-2.056-0.004c-1.368-0.046-2.731-0.153-4.091-0.303l0.057-0.09L59.708,76l0.17,0.233h-0.298l0,0
				c-0.433-0.017-0.866-0.027-1.299-0.05c-0.431-0.044-0.865-0.065-1.293-0.128c-0.429-0.063-0.859-0.116-1.282-0.211
				c-0.427-0.076-0.846-0.187-1.265-0.297c-0.833-0.237-1.652-0.529-2.433-0.904c-0.778-0.381-1.532-0.816-2.187-1.4l0.097-0.062v0
				l0.951,2.279l0.147,0.351l-0.384-0.105h0c-1.118-0.365-2.202-0.834-3.229-1.403c-1.026-0.571-2-1.234-2.895-1.993
				c-0.893-0.759-1.715-1.607-2.404-2.557c-0.345-0.475-0.654-0.977-0.9-1.512c-0.245-0.532-0.435-1.106-0.441-1.706H40.881
				L40.881,66.535z"/>
		</g>
		<g>
			<path d="M44.286,71.914c-0.522,0.541-1.152,0.961-1.815,1.306c-0.332,0.172-0.675,0.324-1.032,0.447
				c-0.178,0.061-0.361,0.114-0.55,0.151c-0.191,0.03-0.383,0.072-0.618-0.003c-0.673-0.297-1.382-0.489-2.094-0.658
				c-0.356-0.08-0.716-0.144-1.074-0.178c-0.356-0.032-0.723-0.041-1.04,0.047c-0.156,0.045-0.292,0.12-0.361,0.225
				c-0.091,0.138-0.186,0.303-0.203,0.422c-0.007,0.059-0.001,0.086,0.033,0.147c0.034,0.059,0.101,0.142,0.152,0.242
				c0.11,0.207,0.124,0.448,0.099,0.649c-0.012,0.106-0.028,0.197-0.058,0.303c-0.027,0.111-0.081,0.214-0.141,0.308
				c-0.127,0.186-0.297,0.32-0.464,0.429c-0.339,0.212-0.687,0.349-1,0.517c-0.314,0.163-0.593,0.362-0.74,0.63
				c-0.151,0.261-0.162,0.611-0.092,0.926c0.165,0.648,0.618,1.248,1.097,1.771c0.491,0.524,1.054,0.987,1.665,1.364
				c0.61,0.372,1.278,0.669,1.963,0.754c0.341,0.04,0.682,0.02,0.995-0.077c0.081-0.019,0.151-0.061,0.228-0.089l0.24-0.124
				c0.162-0.082,0.321-0.17,0.48-0.262c0.638-0.36,1.266-0.748,1.888-1.144c1.241-0.797,2.478-1.607,3.69-2.451
				c1.197-0.857,2.444-1.676,3.511-2.68l0.089,0.078c-0.498,0.565-1.075,1.035-1.645,1.511c-0.575,0.469-1.16,0.925-1.759,1.364
				c-1.191,0.884-2.4,1.743-3.648,2.548c-0.622,0.405-1.25,0.802-1.897,1.176c-0.161,0.095-0.324,0.187-0.491,0.274
				c-0.084,0.044-0.163,0.09-0.252,0.133c-0.096,0.038-0.188,0.09-0.287,0.116c-0.393,0.13-0.808,0.148-1.2,0.098
				c-0.789-0.105-1.5-0.435-2.148-0.833c-0.646-0.405-1.234-0.893-1.751-1.452c-0.258-0.28-0.498-0.579-0.707-0.903
				c-0.209-0.324-0.389-0.676-0.486-1.076c-0.044-0.205-0.06-0.409-0.043-0.619c0.017-0.209,0.077-0.425,0.185-0.614
				c0.218-0.386,0.582-0.622,0.919-0.796c0.661-0.346,1.464-0.538,1.476-1.227c0.022-0.164,0.011-0.309-0.051-0.434
				c-0.031-0.066-0.081-0.128-0.139-0.229c-0.062-0.098-0.098-0.262-0.072-0.386c0.05-0.247,0.163-0.402,0.273-0.571
				c0.145-0.203,0.363-0.301,0.56-0.354c0.402-0.102,0.789-0.078,1.167-0.04c0.377,0.042,0.747,0.116,1.111,0.203
				c0.725,0.181,1.445,0.405,2.119,0.723c0.118,0.046,0.31,0.031,0.479,0.004c0.175-0.03,0.35-0.075,0.523-0.129
				c0.346-0.109,0.686-0.247,1.015-0.407c0.656-0.321,1.291-0.707,1.817-1.215L44.286,71.914z"/>
		</g>
		<g>
			<path d="M55.552,75.653c0.82,0.883,1.622,1.791,2.309,2.792c0.687,0.997,1.265,2.088,1.602,3.269
				c0.341,1.177,0.412,2.444,0.177,3.657c-0.115,0.607-0.299,1.199-0.534,1.77c-0.243,0.567-0.537,1.109-0.862,1.631l-0.07,0.112
				h-0.138h0c-1.372-0.021-2.678-0.339-3.969-0.643c-1.289-0.307-2.567-0.661-3.858-0.827c-0.64-0.075-1.3-0.108-1.885,0.07
				c-0.289,0.09-0.546,0.244-0.729,0.468c-0.174,0.233-0.348,0.531-0.489,0.813c-0.572,1.146-0.826,2.484-0.593,3.743
				c0.06,0.312,0.156,0.618,0.305,0.884c0.074,0.132,0.165,0.254,0.271,0.337c0.054,0.038,0.108,0.075,0.164,0.089
				c0.028,0.012,0.056,0.012,0.084,0.016c0.028,0.004,0.079,0.002,0.118,0.003l1.987,0.03l3.972,0.058l3.972,0.042
				c1.322,0.002,2.651,0.029,3.967-0.031l0.01,0.118c-1.33,0.079-2.651,0.07-3.977,0.087l-3.973,0.015l-3.973-0.002l-1.985-0.002
				c-0.044-0.001-0.076,0.002-0.13-0.002c-0.055-0.004-0.11-0.009-0.16-0.027c-0.105-0.028-0.192-0.083-0.272-0.141
				c-0.156-0.121-0.266-0.272-0.356-0.426c-0.178-0.311-0.284-0.645-0.353-0.981c-0.263-1.352-0.009-2.755,0.583-3.977
				c0.153-0.311,0.307-0.592,0.526-0.891c0.234-0.295,0.569-0.495,0.909-0.603c0.69-0.214,1.388-0.174,2.056-0.106
				c1.341,0.16,2.627,0.505,3.915,0.798c1.284,0.291,2.58,0.586,3.864,0.592h0l-0.208,0.112c0.324-0.493,0.619-1.004,0.865-1.538
				c0.238-0.537,0.428-1.096,0.552-1.669c0.254-1.147,0.219-2.353-0.08-3.498c-0.295-1.148-0.831-2.23-1.482-3.231
				c-0.651-1.005-1.424-1.929-2.22-2.831L55.552,75.653z"/>
		</g>
		<g>
			<path d="M60.794,77.177c0.235,0.337,0.454,0.688,0.641,1.057c0.19,0.369,0.327,0.762,0.445,1.16
				c0.219,0.802,0.314,1.633,0.358,2.46c0.082,1.657-0.01,3.311-0.121,4.958l-0.537-0.053c0.2-1.628,0.379-3.263,0.388-4.899
				c0.001-0.817-0.046-1.636-0.218-2.434c-0.094-0.396-0.208-0.79-0.375-1.164C61.21,77.888,61.011,77.527,60.794,77.177z"/>
		</g>
		<g>
			<path d="M68.412,83.052c0.018,0.439,0.044,0.88,0.137,1.307c0.092,0.425,0.238,0.838,0.464,1.203
				c0.221,0.368,0.526,0.676,0.857,0.959c0.331,0.283,0.689,0.549,1.027,0.85l-0.217,0.235c-0.314-0.301-0.658-0.579-0.988-0.884
				c-0.33-0.303-0.645-0.646-0.867-1.049c-0.226-0.399-0.362-0.84-0.44-1.282c-0.079-0.444-0.088-0.893-0.089-1.339H68.412
				L68.412,83.052z"/>
		</g>
		<g>
			<path d="M64.239,86.804c-0.786-0.051-1.59-0.045-2.288,0.211c-0.345,0.132-0.65,0.339-0.884,0.62
				c-0.234,0.28-0.406,0.621-0.521,0.988c-0.119,0.366-0.189,0.753-0.239,1.146c-0.05,0.403-0.104,0.804-0.146,1.202
				c-0.041,0.398-0.072,0.795-0.058,1.183c0.014,0.385,0.077,0.768,0.264,1.061c0.18,0.297,0.504,0.467,0.87,0.538
				c0.184,0.035,0.373,0.046,0.568,0.05l0.608,0.004l2.43,0.014l4.86,0.013l2.43,0.006l1.215,0.003l0.304,0.001h0.038
				c0.005-0.001,0.006-0.002,0.009-0.001c0.006-0.002,0.013-0.004,0.023-0.01c0.02-0.012,0.045-0.035,0.068-0.065
				c0.097-0.127,0.164-0.315,0.216-0.498c0.196-0.753,0.217-1.568,0.146-2.354c-0.081-0.781-0.266-1.581-0.703-2.203
				c-0.217-0.308-0.512-0.548-0.856-0.656c-0.368-0.101-0.773-0.19-1.164-0.269c-0.79-0.159-1.587-0.294-2.384-0.419
				C67.449,87.122,65.844,86.919,64.239,86.804z M64.278,86.297c1.626,0.143,3.234,0.375,4.837,0.648
				c0.801,0.138,1.6,0.288,2.395,0.462c0.401,0.09,0.788,0.176,1.199,0.294c0.432,0.139,0.791,0.447,1.035,0.802
				c0.491,0.721,0.665,1.563,0.745,2.381c0.064,0.825,0.038,1.655-0.181,2.471c-0.063,0.203-0.128,0.407-0.278,0.605
				c-0.04,0.049-0.088,0.098-0.156,0.138c-0.034,0.02-0.074,0.035-0.118,0.045c-0.022,0.003-0.046,0.006-0.067,0.006h-0.038
				l-0.304,0.001l-1.215,0.003l-2.43,0.006l-4.86,0.013l-2.43,0.014l-0.608,0.004c-0.21-0.001-0.426-0.011-0.641-0.05
				c-0.215-0.041-0.433-0.109-0.634-0.225c-0.202-0.114-0.378-0.283-0.504-0.478c-0.254-0.396-0.319-0.845-0.342-1.263
				c-0.02-0.423,0.009-0.836,0.046-1.244c0.038-0.408,0.088-0.811,0.133-1.212c0.047-0.411,0.117-0.826,0.243-1.232
				c0.124-0.405,0.309-0.809,0.59-1.156c0.279-0.348,0.661-0.617,1.069-0.781C62.594,86.222,63.458,86.238,64.278,86.297z"/>
		</g>
		<g>
			<path d="M75.383,53.46c-0.002,1.425-0.345,2.873-1.121,4.091c-0.387,0.605-0.887,1.148-1.495,1.547
				c-0.605,0.399-1.324,0.642-2.059,0.648c-0.734,0-1.459-0.236-2.07-0.632c-0.614-0.395-1.122-0.936-1.517-1.541
				c-0.792-1.218-1.154-2.674-1.165-4.113c0.016-1.439,0.375-2.894,1.167-4.112c0.396-0.605,0.903-1.146,1.517-1.541
				c0.611-0.395,1.335-0.632,2.068-0.631c0.734,0.007,1.453,0.249,2.057,0.648c0.608,0.398,1.106,0.941,1.494,1.546
				C75.037,50.587,75.376,52.034,75.383,53.46z M75.263,53.46c-0.014-1.406-0.374-2.824-1.143-3.999
				c-0.384-0.584-0.873-1.101-1.459-1.475c-0.582-0.374-1.264-0.593-1.953-0.592c-0.689,0.007-1.366,0.231-1.942,0.609
				c-0.578,0.377-1.06,0.896-1.436,1.48c-0.753,1.174-1.093,2.585-1.099,3.977c0.009,1.392,0.346,2.802,1.1,3.976
				c0.375,0.583,0.857,1.102,1.435,1.479c0.576,0.377,1.252,0.603,1.941,0.608c0.689,0.001,1.369-0.217,1.951-0.592
				c0.585-0.373,1.074-0.891,1.458-1.474C74.887,56.282,75.244,54.864,75.263,53.46z"/>
		</g>
		<g>
			<path d="M75.339,53.46c-0.004,1.258-0.308,2.535-0.993,3.607c-0.342,0.533-0.783,1.011-1.319,1.361
				c-0.533,0.351-1.167,0.564-1.812,0.569c-0.646,0.001-1.284-0.206-1.822-0.554c-0.541-0.347-0.989-0.824-1.339-1.356
				c-0.7-1.073-1.019-2.357-1.035-3.627c0.016-1.27,0.334-2.554,1.035-3.627c0.349-0.533,0.797-1.01,1.339-1.356
				c0.539-0.347,1.176-0.555,1.822-0.554c0.646,0.005,1.28,0.218,1.812,0.569c0.536,0.35,0.976,0.828,1.319,1.361
				C75.031,50.925,75.335,52.202,75.339,53.46z M75.234,53.46c-0.015-1.24-0.328-2.492-1.006-3.531
				c-0.338-0.516-0.77-0.974-1.287-1.304c-0.514-0.332-1.117-0.526-1.727-0.525c-0.61,0.006-1.208,0.206-1.717,0.541
				c-0.511,0.334-0.936,0.793-1.267,1.309c-0.664,1.038-0.961,2.283-0.965,3.512c0.003,1.228,0.301,2.474,0.965,3.512
				c0.331,0.516,0.756,0.975,1.267,1.309c0.509,0.335,1.107,0.535,1.717,0.541c0.61,0.001,1.212-0.194,1.727-0.525
				c0.517-0.331,0.949-0.789,1.287-1.304C74.906,55.952,75.219,54.7,75.234,53.46z"/>
		</g>
		<g>
			<path d="M74.996,53.46c0.006,0.751-0.168,1.516-0.574,2.165c-0.203,0.322-0.465,0.613-0.788,0.828
				c-0.32,0.216-0.705,0.349-1.1,0.356c-0.395,0.004-0.786-0.121-1.116-0.33c-0.332-0.21-0.608-0.497-0.819-0.822
				c-0.424-0.652-0.62-1.429-0.623-2.196c0.009-0.767,0.2-1.544,0.626-2.194c0.214-0.322,0.489-0.609,0.82-0.819
				c0.33-0.209,0.72-0.333,1.113-0.329c0.393,0.007,0.777,0.14,1.096,0.354c0.321,0.215,0.583,0.505,0.786,0.826
				C74.825,51.945,74.991,52.71,74.996,53.46z M74.932,53.46c-0.006-0.74-0.208-1.485-0.614-2.097
				c-0.398-0.608-1.06-1.074-1.783-1.062c-0.722,0.01-1.359,0.489-1.732,1.095c-0.387,0.609-0.565,1.341-0.567,2.064
				c0.007,0.723,0.18,1.455,0.569,2.062c0.378,0.602,1.009,1.081,1.73,1.09c0.719,0.012,1.38-0.451,1.778-1.059
				C74.721,54.942,74.916,54.199,74.932,53.46z"/>
		</g>
		<g>
			<path d="M74.973,53.46c0.002,0.662-0.154,1.337-0.513,1.906c-0.348,0.563-0.956,1.027-1.659,1.033
				c-0.703,0.005-1.325-0.451-1.686-1.015c-0.372-0.569-0.544-1.25-0.549-1.923c0.009-0.673,0.178-1.353,0.551-1.922
				c0.361-0.563,0.982-1.02,1.684-1.013c0.702,0.007,1.308,0.469,1.656,1.031C74.818,52.124,74.97,52.797,74.973,53.46z
				 M74.917,53.46c-0.006-0.653-0.179-1.311-0.537-1.854c-0.349-0.539-0.935-0.956-1.579-0.948
				c-0.643,0.006-1.214,0.427-1.551,0.966c-0.346,0.542-0.501,1.193-0.502,1.836c0.005,0.642,0.157,1.293,0.504,1.835
				c0.336,0.538,0.907,0.961,1.549,0.964c0.642,0.007,1.227-0.408,1.576-0.947C74.736,54.77,74.905,54.112,74.917,53.46z"/>
		</g>
		<g>
			<path d="M68.353,47.994c0.094-1.066,0.141-2.142,0.156-3.214c0.018-1.073-0.003-2.147-0.086-3.216
				c-0.086-1.067-0.227-2.134-0.519-3.157c-0.15-0.509-0.339-1.008-0.61-1.457c-0.276-0.444-0.64-0.822-1.111-1.053l0.038-0.112
				c0.551,0.142,0.985,0.573,1.275,1.038c0.294,0.472,0.497,0.987,0.659,1.508c0.314,1.048,0.472,2.127,0.575,3.206
				c0.194,2.161,0.165,4.33-0.008,6.49L68.353,47.994z"/>
		</g>
		<g>
			<path d="M64.8,35.468c0.118-0.139,0.272-0.246,0.44-0.313c0.17-0.065,0.347-0.09,0.524-0.103c0.353-0.012,0.701,0.038,1.04,0.111
				c0.338,0.074,0.67,0.166,1,0.26c0.334,0.094,0.664,0.218,0.975,0.383c0.311,0.165,0.603,0.378,0.844,0.645
				c0.237,0.269,0.422,0.584,0.549,0.913c0.132,0.328,0.22,0.665,0.31,0.996l0.258,0.997c0.333,1.332,0.645,2.669,0.911,4.018
				c0.136,0.674,0.253,1.353,0.355,2.036c0.045,0.343,0.09,0.687,0.114,1.036c0.028,0.349,0.036,0.704-0.011,1.084l-0.467-0.089
				c0.042-0.3,0.046-0.633,0.026-0.967c-0.016-0.334-0.054-0.672-0.09-1.008c-0.086-0.674-0.187-1.348-0.308-2.021
				c-0.236-1.345-0.519-2.685-0.822-4.018l-0.236-0.998c-0.082-0.332-0.162-0.661-0.28-0.972c-0.113-0.312-0.276-0.6-0.486-0.85
				c-0.214-0.248-0.478-0.45-0.769-0.612c-0.291-0.162-0.604-0.287-0.926-0.386c-0.327-0.1-0.654-0.199-0.983-0.278
				c-0.329-0.078-0.663-0.136-0.996-0.133c-0.165,0.008-0.33,0.027-0.483,0.081c-0.151,0.057-0.288,0.146-0.396,0.265L64.8,35.468z"
				/>
		</g>
		<ellipse class="st13" cx="41.224" cy="53.786" rx="0.694" ry="2.502"/>
		<ellipse class="st14" cx="42.265" cy="56.888" rx="0.347" ry="1.251"/>
		<ellipse class="st15" cx="53.335" cy="52.861" rx="0.899" ry="2.502"/>
		<ellipse class="st16" cx="54.684" cy="55.963" rx="0.45" ry="1.251"/>
		<g>
			<path class="st17" d="M37.096,55.319c1.454-2.854,5.665-10.569,12.298-5.546c0.513-5.951-6.772-7.386-10.671-1.948
				c1.436,0.205,1.436,0.205,1.436,0.205S37.799,48.646,37.096,55.319z"/>
			<g>
				<path d="M37.119,55.24c0.021-0.085,0.008-0.154,0.024-0.202c0.013-0.042,0.066-0.139,0.098-0.207l0.226-0.448
					c0.155-0.297,0.313-0.592,0.479-0.883c0.329-0.584,0.692-1.15,1.084-1.696c0.782-1.09,1.708-2.108,2.855-2.858
					c0.571-0.373,1.2-0.672,1.868-0.848c0.669-0.173,1.372-0.21,2.054-0.117c0.685,0.087,1.338,0.32,1.948,0.615l0.45,0.238
					c0.146,0.086,0.285,0.183,0.427,0.274c0.29,0.175,0.544,0.399,0.813,0.599l0.001,0.001l-0.132,0.059
					c0.059-1.248-0.213-2.533-0.982-3.491c-0.766-0.948-1.939-1.529-3.161-1.609c-1.221-0.1-2.465,0.201-3.553,0.788
					c-1.104,0.571-2.038,1.439-2.825,2.42l0,0l-0.055-0.13l1.451,0.106l0,0h1.155l-1.135,0.358
					c-0.109,0.034-0.264,0.122-0.385,0.215c-0.129,0.091-0.248,0.203-0.362,0.318c-0.112,0.119-0.222,0.24-0.319,0.374
					c-0.105,0.127-0.192,0.269-0.282,0.409c-0.351,0.566-0.617,1.188-0.84,1.826c-0.102,0.322-0.204,0.645-0.29,0.973
					c-0.075,0.331-0.169,0.657-0.229,0.992c-0.059,0.328-0.134,0.681-0.179,0.989C37.278,54.603,37.185,54.897,37.119,55.24z
					 M37.072,55.398c0.02-0.334,0.014-0.718,0.058-1.094c0.042-0.369,0.106-0.685,0.158-1.031c0.051-0.339,0.139-0.673,0.207-1.009
					c0.079-0.334,0.175-0.666,0.27-0.997c0.212-0.657,0.468-1.304,0.823-1.908c0.091-0.15,0.179-0.301,0.288-0.441
					c0.099-0.146,0.216-0.281,0.335-0.413c0.123-0.129,0.251-0.256,0.398-0.366c0.15-0.113,0.288-0.211,0.504-0.286l0.02,0.358l0,0
					l-1.422-0.305l-0.142-0.031l0.087-0.099l0,0c0.354-0.535,0.766-1.032,1.227-1.485c0.464-0.45,0.988-0.841,1.552-1.165
					c1.131-0.635,2.452-0.992,3.769-0.874c1.307,0.105,2.611,0.734,3.404,1.807c0.398,0.53,0.661,1.15,0.797,1.787
					c0.132,0.64,0.148,1.295,0.07,1.933l-0.018,0.146l-0.114-0.087l-0.001-0.001c-0.554-0.363-1.116-0.711-1.716-0.972
					c-0.599-0.261-1.228-0.443-1.867-0.524c-1.284-0.164-2.586,0.211-3.674,0.917c-1.095,0.707-2.007,1.683-2.806,2.73
					c-0.399,0.526-0.765,1.079-1.116,1.641c-0.176,0.281-0.344,0.568-0.509,0.856l-0.244,0.435l-0.134,0.236
					C37.216,55.256,37.127,55.335,37.072,55.398z"/>
			</g>
		</g>
		<g>
			<path class="st18" d="M47.706,60.67c-1.146-0.38-2.681-1.095-4.31-1.009c-3.07,0.161-4.788,2.319-6.018,4.554
				c-1.184,2.15-4.718,1.732-4.718,1.732s4.437,3.862,7.484,1.226c1.735-1.501,2.603-1.562,4.237-1.184
				c1.633,0.379,1.772,0.829,3.23,1.029c1.548,0.212,5.002-1.866,6.612-1.487c2.435,0.574,5.704,4.278,12.795,1.55
				c-9.163-2.773-6.39-5.095-10.241-6.93C52.299,58.02,49.923,61.406,47.706,60.67z"/>
			<path d="M47.631,60.895c-0.71-0.243-1.384-0.519-2.08-0.716c-0.692-0.198-1.403-0.328-2.108-0.296
				c-0.711,0.03-1.417,0.177-2.068,0.461c-0.652,0.281-1.247,0.689-1.77,1.178c-0.526,0.488-0.983,1.053-1.39,1.655
				c-0.203,0.301-0.396,0.611-0.578,0.927c-0.089,0.153-0.183,0.328-0.302,0.484c-0.113,0.16-0.251,0.3-0.391,0.434
				c-0.583,0.524-1.328,0.791-2.061,0.924c-0.74,0.13-1.488,0.147-2.23,0.062h-0.001l0.047-0.107
				c0.585,0.474,1.228,0.886,1.898,1.231c0.672,0.341,1.38,0.618,2.116,0.748c0.732,0.13,1.492,0.112,2.183-0.136
				c0.343-0.127,0.664-0.309,0.954-0.532c0.142-0.111,0.287-0.234,0.434-0.361c0.147-0.124,0.298-0.246,0.453-0.362
				c0.309-0.234,0.641-0.449,1.007-0.611c0.365-0.164,0.77-0.255,1.172-0.265c0.403-0.012,0.796,0.045,1.175,0.121
				c0.378,0.076,0.756,0.169,1.128,0.291c0.371,0.122,0.73,0.285,1.072,0.432c0.342,0.146,0.687,0.25,1.05,0.314
				c0.698,0.167,1.419-0.067,2.139-0.282c0.718-0.229,1.429-0.501,2.159-0.739c0.365-0.118,0.734-0.232,1.115-0.318
				c0.38-0.085,0.772-0.152,1.185-0.129c0.432,0.032,0.789,0.186,1.152,0.332c0.358,0.154,0.701,0.325,1.04,0.501
				c0.677,0.351,1.348,0.696,2.045,0.981c1.389,0.576,2.89,0.872,4.397,0.821c1.508-0.038,2.999-0.395,4.422-0.914l0.001,0
				l0.004,0.116c-1.763-0.518-3.53-1.092-5.147-2.025c-0.802-0.469-1.551-1.069-2.137-1.809c-0.59-0.736-1.017-1.553-1.695-2.121
				c-0.334-0.288-0.711-0.523-1.107-0.728c-0.397-0.205-0.814-0.378-1.239-0.509c-0.85-0.269-1.749-0.358-2.63-0.236
				c-0.884,0.114-1.73,0.432-2.586,0.767c-0.431,0.164-0.867,0.335-1.341,0.442C48.65,61.033,48.123,61.055,47.631,60.895z
				 M47.78,60.445c0.387,0.126,0.812,0.118,1.236,0.02c0.425-0.093,0.849-0.255,1.277-0.415c0.854-0.33,1.746-0.662,2.693-0.779
				c0.943-0.127,1.916-0.024,2.816,0.267c0.452,0.142,0.886,0.326,1.304,0.545c0.419,0.217,0.82,0.484,1.178,0.802
				c0.357,0.32,0.66,0.696,0.922,1.08c0.265,0.385,0.506,0.769,0.782,1.124c0.545,0.714,1.244,1.297,2.018,1.77
				c1.546,0.958,3.287,1.593,5.026,2.164l0.171,0.056l-0.167,0.059l-0.001,0c-1.418,0.561-2.917,0.964-4.456,1.045
				c-1.539,0.093-3.095-0.201-4.526-0.766c-0.717-0.281-1.407-0.622-2.086-0.961c-0.341-0.168-0.678-0.338-1.021-0.483
				c-0.338-0.138-0.7-0.28-1.032-0.298c-0.349-0.019-0.716,0.042-1.076,0.126c-0.361,0.084-0.721,0.196-1.079,0.314
				c-0.717,0.238-1.427,0.514-2.158,0.752c-0.366,0.118-0.739,0.228-1.127,0.302c-0.194,0.036-0.394,0.062-0.602,0.065
				c-0.102,0.002-0.213-0.007-0.314-0.02c-0.097-0.016-0.194-0.029-0.29-0.048c-0.386-0.07-0.773-0.191-1.131-0.347
				c-0.356-0.156-0.69-0.311-1.041-0.429c-0.351-0.119-0.713-0.21-1.08-0.287c-0.365-0.076-0.731-0.131-1.09-0.122
				c-0.721,0.005-1.397,0.329-1.998,0.771c-0.31,0.217-0.578,0.457-0.897,0.7c-0.317,0.235-0.667,0.428-1.04,0.56
				c-0.752,0.259-1.565,0.262-2.323,0.103c-0.763-0.156-1.48-0.459-2.155-0.823c-0.674-0.369-1.309-0.799-1.894-1.299l-0.153-0.131
				l0.201,0.024h0.001c0.725,0.048,1.465-0.003,2.17-0.163c0.703-0.16,1.38-0.457,1.891-0.934c0.122-0.124,0.242-0.251,0.337-0.395
				c0.101-0.139,0.178-0.293,0.271-0.46c0.18-0.325,0.37-0.646,0.573-0.96c0.405-0.627,0.868-1.225,1.413-1.751
				c0.542-0.528,1.181-0.966,1.881-1.275c0.7-0.31,1.46-0.473,2.22-0.51c0.771-0.039,1.531,0.098,2.253,0.299
				C46.401,59.937,47.094,60.216,47.78,60.445z"/>
		</g>
		<g>
			<path class="st10" d="M69.235,58.89c-0.269,0.269-9.534,10.194-9.534,10.194l-8.559,1.403l-0.348,0.806l9.131-1.483
				c0,0,9.797-10.295,10.014-10.512C70.157,59.079,69.505,58.62,69.235,58.89z"/>
			<path d="M69.309,58.963L59.762,69.14l-0.02,0.021l-0.028,0.005l0,0l-8.566,1.358l0.029-0.023v0l-0.367,0.798l-0.019-0.025h0
				l9.119-1.559l-0.054,0.028l0,0l5.37-5.644l2.685-2.822l1.342-1.411l0.336-0.353l0.168-0.177c0.05-0.055,0.134-0.134,0.121-0.136
				c0.007-0.017-0.018-0.078-0.065-0.123c-0.046-0.047-0.105-0.088-0.167-0.118C69.522,58.899,69.376,58.891,69.309,58.963z
				 M69.162,58.815c0.08-0.082,0.198-0.116,0.297-0.113c0.101,0.003,0.194,0.03,0.277,0.07c0.084,0.04,0.161,0.093,0.228,0.162
				c0.062,0.069,0.139,0.161,0.118,0.309c-0.009,0.071-0.075,0.134-0.094,0.153l-0.084,0.088l-0.168,0.176L69.4,60.013l-1.344,1.409
				l-2.687,2.818l-5.375,5.635l0,0l-0.023,0.024l-0.031,0.005l-9.143,1.406h0l-0.032,0.006l0.013-0.031l0.33-0.814v0l0.008-0.019
				l0.021-0.004l8.551-1.447l0,0l-0.047,0.026L69.162,58.815z"/>
		</g>
		<g>
			
				<ellipse transform="matrix(0.9965 -0.0834 0.0834 0.9965 -5.7014 4.496)" class="st12" cx="50.963" cy="70.49" rx="3.108" ry="2.569"/>
			<path d="M54.178,70.217c0.085,0.79-0.29,1.578-0.867,2.099c-0.577,0.533-1.34,0.835-2.114,0.902
				c-0.775,0.059-1.575-0.113-2.236-0.535c-0.66-0.413-1.161-1.132-1.21-1.927c-0.058-0.796,0.341-1.557,0.922-2.047
				c0.578-0.505,1.324-0.783,2.077-0.843c0.753-0.055,1.529,0.098,2.183,0.493C53.583,68.744,54.102,69.426,54.178,70.217z
				 M53.954,70.236c-0.042-0.712-0.491-1.363-1.1-1.753c-0.61-0.399-1.367-0.557-2.095-0.496c-0.728,0.072-1.44,0.355-1.977,0.844
				c-0.534,0.485-0.868,1.197-0.791,1.904c0.068,0.709,0.535,1.322,1.136,1.685c0.603,0.373,1.335,0.512,2.042,0.454
				c0.706-0.064,1.402-0.324,1.94-0.785C53.645,71.635,54.003,70.948,53.954,70.236z"/>
		</g>
		<g>
			<path class="st17" d="M66.705,54.294c-3.896-3.703-8.464-10.349-14.774-4.94c0-5.609,6.385-10.016,13.271-1.37
				c-1.001-0.2-1.803,0.601-1.803,0.601S65.22,50.155,66.705,54.294z"/>
			<path d="M66.74,54.348c-0.146-0.105-0.35-0.247-0.486-0.389l-0.401-0.387l-0.792-0.784c-0.528-0.522-1.047-1.052-1.58-1.564
				c-1.068-1.02-2.182-2.005-3.447-2.743c-0.632-0.365-1.305-0.66-2.008-0.83c-0.702-0.169-1.432-0.22-2.147-0.119
				c-0.715,0.102-1.409,0.343-2.06,0.673c-0.648,0.336-1.264,0.743-1.846,1.198l0,0l-0.101,0.076l-0.004-0.124
				c-0.055-1.569,0.412-3.198,1.436-4.447c1.002-1.257,2.618-2.045,4.243-1.989c0.809,0.019,1.603,0.206,2.344,0.502
				c0.742,0.295,1.439,0.693,2.07,1.17c1.278,0.936,2.352,2.107,3.292,3.355l0.098,0.13l-0.161-0.028l0,0
				c-0.157-0.016-0.315-0.025-0.469,0.004c-0.154,0.025-0.305,0.065-0.448,0.129c-0.143,0.062-0.28,0.138-0.407,0.227
				c-0.126,0.088-0.252,0.192-0.349,0.295l-0.001,0.001l-0.009-0.242c0.423,0.407,0.754,0.85,1.077,1.312
				c0.318,0.462,0.601,0.944,0.865,1.435c0.265,0.491,0.498,0.998,0.719,1.508c0.111,0.255,0.208,0.516,0.313,0.773
				C66.592,53.764,66.667,54.088,66.74,54.348z M66.67,54.241c-0.124-0.258-0.242-0.454-0.331-0.696
				c-0.112-0.253-0.216-0.508-0.334-0.758c-0.234-0.499-0.48-0.993-0.756-1.47c-0.275-0.477-0.569-0.942-0.893-1.384
				c-0.324-0.437-0.677-0.873-1.065-1.223l-0.138-0.125l0.129-0.117l0.002-0.002c0.142-0.122,0.281-0.213,0.434-0.299
				c0.151-0.084,0.311-0.152,0.476-0.204c0.164-0.054,0.337-0.082,0.509-0.091c0.173-0.013,0.345,0.014,0.511,0.048l0,0
				l-0.062,0.102c-0.517-0.582-1.03-1.167-1.6-1.692c-0.554-0.541-1.155-1.031-1.785-1.472c-1.259-0.868-2.712-1.52-4.227-1.54
				c-1.506-0.034-2.994,0.646-3.96,1.817c-0.501,0.568-0.882,1.242-1.139,1.961c-0.267,0.717-0.409,1.481-0.446,2.255l-0.105-0.048
				l0,0c0.556-0.496,1.147-0.965,1.809-1.329c0.656-0.371,1.379-0.645,2.135-0.755c0.754-0.117,1.534-0.076,2.271,0.112
				c0.739,0.185,1.437,0.497,2.087,0.877c1.303,0.764,2.417,1.781,3.469,2.831c0.527,0.526,1.04,1.064,1.546,1.607l0.765,0.808
				l0.386,0.399C66.486,53.974,66.55,54.088,66.67,54.241z"/>
		</g>
		<g>
			<path d="M45.517,68.575c0.909-0.964,2.177-1.498,3.449-1.662c1.282-0.168,2.582,0.016,3.792,0.411l-0.063,0.198
				c-1.195-0.361-2.462-0.51-3.688-0.322c-1.219,0.183-2.4,0.722-3.215,1.626L45.517,68.575z"/>
		</g>
		<g>
			<path class="st19" d="M77.686,65.466c0,0,1.702-5.992-0.423-9.864c1.546,1.511,2.335,2.452,2.335,2.452s0.881-5.616-4.405-10.981
				c1.622,0.412,3.944,1.382,3.944,1.382s-2.243-7.035-8.947-10.875c-0.212-0.223-0.288-0.529-0.431-0.792
				c-0.142-0.261-0.36-0.425-0.584-0.639c-0.092-0.088-0.185-0.176-0.294-0.242c-0.128-0.079-0.274-0.124-0.418-0.168
				c-0.23-0.071-0.509-0.114-0.717-0.234c1.946,1.119,3.084,7.351,2.882,11.846c0.22,0,0.875,0.625,0.875,0.625l0.489,2.314
				l0.809,0.299c0,0,1.81,2.759,0.283,5.698c-0.881,0.394-0.881,0.394-0.881,0.394l-0.661,2.124l-0.835,0.826l-0.982-0.116
				l-0.417,0.437l0.995,0.269l-7.299,7.85c-0.36-0.07-0.598,0.079-1.428,0c-0.137,0.199-0.301,0.316-0.525,0.551
				c0.465,0.115,0.878,0.115,1.313,0.094l-2.126,2.363l-0.086-0.023c0.002,0.291,0.123,0.494,0.291,0.666l0.216,0.049l10.609-11.119
				c1.543,2.833,5.757,10.678,5.887,12.111c-1.021,1.679-3.402,5.421-7.982,6.728c0,0,0.443,2.785-0.879,3.433
				c-0.456,0.223-1.026-0.007-1.413-0.303c-0.14-0.107-0.246-0.234-0.361-0.365c-0.008-0.009-0.233-0.253-0.235-0.23
				c-0.028,0.268,0.032,4.73,1.594,4.942c1.565,0.214,1.769,0.281,1.769,0.281s1.559,0.424,1.141,6.804
				c2.221,0,3.105,0.079,3.105,0.079s1.496-4.707-0.871-6.106c-1.464-0.865-2.234-0.541-2.234-0.541
				c-0.61-0.324-0.995-0.777-1.431-1.3c-0.312-0.375-0.483-0.801-0.722-1.216c-0.284-0.494-0.285-1.211-0.334-1.765
				c-0.033-0.37,0.907-0.272,1.128-0.301c0.309-0.04,0.603-0.054,0.916-0.059c0.94-0.015,1.72-0.517,2.474-1.04
				c0.458-0.318,0.731-0.653,0.71-1.229c-0.046-1.239-0.667-1.867-0.667-1.867s7.039-2.627,7.292-4.766
				C80.525,70.817,77.686,65.466,77.686,65.466z"/>
			<path class="st19" d="M69.004,66.789c0.545,0.66,1.08,6.417-4.435,6.647c-2.998,0.125-5.762-0.054-8.403-0.565
				c0.134,1.207,0.641,2.015,1.377,2.394c-0.314,0-1.264-0.188-2.986-0.565c-1.988-0.435-3.309-0.969-4.822-1.705
				c0,0,1.585,1.93,6.505,2.784l-0.879-0.087l0.973,0.917c1.41,0.404,2.662,0.567,4.722,0.313c-0.39-0.557-0.39-0.557-0.39-0.557
				s2.931,0.557,5.552-0.284c0.198-0.83-0.068-0.383,1.293-1.539c1.439-0.828,3.953-2.111,5.676-2.457
				C71.803,70.248,69.004,66.789,69.004,66.789z"/>
			<path class="st19" d="M60.839,77.245c0.809,1.626,1.098,6.495,0.228,8.927c-1.958-0.661-2.915,5.136-2.343,7.823
				c1.228,0,2.213,0,2.213,0s-1.187-0.363-0.922-3.039c0.471-4.763,1.833-4.17,1.833-4.17s0.305-3.723,0.223-5.612
				C61.963,78.67,60.839,77.245,60.839,77.245z"/>
			<path class="st19" d="M37.096,81.727l1.856,0.138c4.761-2.218,10.251-6.831,10.251-6.831l-2.764-1.419
				C45.883,74.768,38.855,81.31,37.096,81.727z"/>
			<path class="st19" d="M66.705,54.294c-1.232-1.466-5.045-5.064-5.65-5.442c-0.763-0.477-3.028-2.067-5.357-1.567
				c-2.309,0.495-3.262,1.66-3.766,2.069C53.694,49.04,57.686,47.285,66.705,54.294z"/>
			<path class="st19" d="M49.393,49.773c0,0-0.405-0.292-1.975-1.166c-1.571-0.874-2.783-0.47-4.161-0.153
				c-1.377,0.318-2.929,2.035-2.929,2.035s0,0.141-0.11,0.957C42.368,49.355,48.214,49.455,49.393,49.773z"/>
		</g>
		<path class="st19" d="M63.376,68.7c0.508-0.008,2.725-0.501,3.765-1.016c-0.874,0.079-2.256,0.246-3.114,0.27
			C63.17,67.977,63.376,68.7,63.376,68.7z"/>
		<path class="st19" d="M50.794,73.615c0.843,0.059,2.034,0.186,3.585-1.854c1.318,0,6.281,0.013,6.281,0.013l-0.205-0.93
			l-0.301,0.215l-5.668-0.021c0,0,0.042-0.016-0.042-0.295c-0.4,0.022-0.4,0.022-0.4,0.022s-0.132,0.777-0.493,1.152
			c-0.361,0.375-1.063,0.779-1.063,0.779s-0.798,0.487-2.035,0.339c-1.238-0.148-1.065-0.294-1.065-0.294l0.474,0.461l0.365,0.333
			L50.794,73.615z"/>
		<path class="st19" d="M40.94,67.334c0.707-0.463,1.234-0.791,1.77-0.799c0.744-0.012,1.864,0.254,1.864,0.254l-0.195-0.8
			c0,0-1.128-0.468-1.622-0.186c-0.493,0.282-1.742,0.332-1.936,0.732C40.627,66.936,40.94,67.334,40.94,67.334"/>
		<path class="st19" d="M52.884,66.524c0.454-0.247,1.028-0.353,1.623-0.098c0.595,0.255,3.964,1.858,5.733,2.081
			c0.294-0.314,0.303-0.52,0.303-0.52s-2.81-0.851-4.046-1.463c-1.236-0.612-2.431-1.246-3.223-1.037
			c-0.792,0.209-0.339,0.226-0.339,0.226L52.884,66.524z"/>
	</g>
	<path class="st20" d="M69.313,6.771H25.876C23.194,6.771,21,8.965,21,11.647v19.361c0,2.682,2.194,4.876,4.876,4.876h22.585
		l8.623,7.519c0.812,1.376,2.14,1.376,2.952,0l1.979-7.519h7.298c2.682,0,4.876-2.194,4.876-4.876V11.647
		C74.189,8.965,71.995,6.771,69.313,6.771z"/>
	<path class="st4" d="M69.313,4.258H25.876C23.194,4.258,21,6.452,21,9.134v19.361c0,2.682,2.194,4.876,4.876,4.876h22.585
		l8.623,7.519c0.812,1.376,2.14,1.376,2.952,0l1.979-7.519h7.298c2.682,0,4.876-2.194,4.876-4.876V9.134
		C74.189,6.452,71.995,4.258,69.313,4.258z"/>
	<g>
		<path d="M26.409,14.882l-1.81,8.302h1.266l0.344-1.773h1.695l0.349,1.773h1.266l-1.805-8.302L26.409,14.882z M26.466,20.117
			l0.578-2.937h0.027l0.578,2.937H26.466z"/>
		<path d="M32.292,18.338c-0.386-0.217-0.656-0.413-0.812-0.59c-0.156-0.177-0.234-0.402-0.234-0.676c0-0.296,0.07-0.543,0.21-0.738
			c0.14-0.196,0.334-0.294,0.585-0.294c0.268,0,0.475,0.118,0.622,0.353c0.147,0.236,0.221,0.544,0.221,0.924h1.218l0.009-0.034
			c0.012-0.726-0.174-1.328-0.556-1.805c-0.383-0.477-0.88-0.716-1.492-0.716c-0.603,0-1.099,0.214-1.487,0.642
			c-0.388,0.427-0.582,0.982-0.582,1.662c0,0.688,0.167,1.223,0.501,1.605c0.334,0.382,0.835,0.723,1.503,1.024
			c0.327,0.182,0.555,0.368,0.684,0.556c0.129,0.188,0.194,0.444,0.194,0.767c0,0.312-0.064,0.559-0.192,0.741
			c-0.128,0.183-0.324,0.274-0.589,0.274c-0.338,0-0.591-0.112-0.759-0.336c-0.168-0.224-0.252-0.593-0.252-1.106h-1.223
			l-0.009,0.034c-0.015,0.863,0.202,1.525,0.651,1.987c0.449,0.462,0.979,0.693,1.591,0.693c0.615,0,1.108-0.203,1.478-0.61
			c0.371-0.407,0.556-0.969,0.556-1.688c0-0.696-0.154-1.248-0.461-1.656C33.359,18.942,32.901,18.604,32.292,18.338z"/>
		<polygon points="39.371,14.882 37.83,14.882 36.577,18.258 36.171,18.258 36.171,14.882 34.913,14.882 34.913,23.185 
			36.171,23.185 36.171,19.735 36.718,19.735 37.989,23.185 39.516,23.185 37.619,18.674 		"/>
		<path d="M45.037,10.671c-1.229,0-2.212,0.542-2.95,1.625s-1.106,2.573-1.106,4.471v4.555c0,1.905,0.369,3.394,1.106,4.466
			s1.723,1.608,2.958,1.608s2.223-0.536,2.966-1.608c0.743-1.072,1.114-2.56,1.114-4.466v-4.555c0-1.898-0.374-3.389-1.122-4.471
			C47.255,11.213,46.266,10.671,45.037,10.671z M46.857,21.324c0,1.179-0.155,2.064-0.465,2.654c-0.31,0.59-0.759,0.884-1.347,0.884
			c-0.593,0-1.042-0.295-1.347-0.884c-0.305-0.59-0.457-1.474-0.457-2.654v-4.591c0-1.172,0.15-2.053,0.449-2.642
			c0.299-0.59,0.748-0.885,1.347-0.885c0.593,0,1.045,0.297,1.354,0.89c0.31,0.594,0.465,1.472,0.465,2.637L46.857,21.324
			L46.857,21.324z"/>
		<polygon points="49.743,13.44 52.356,13.44 52.356,27.161 54.632,27.161 54.632,13.44 57.261,13.44 57.261,10.906 49.743,10.906 
					"/>
		<rect x="58.479" y="10.906" width="2.269" height="16.256"/>
		<path d="M69.264,19.653c-0.558-0.8-1.391-1.461-2.497-1.982c-0.7-0.424-1.192-0.809-1.475-1.156
			c-0.283-0.346-0.425-0.787-0.425-1.323c0-0.581,0.127-1.062,0.381-1.446c0.254-0.383,0.608-0.575,1.062-0.575
			c0.486,0,0.863,0.231,1.13,0.692c0.267,0.462,0.401,1.065,0.401,1.809h2.212l0.016-0.067c0.021-1.422-0.315-2.599-1.01-3.534
			c-0.695-0.934-1.598-1.401-2.709-1.401c-1.095,0-1.996,0.419-2.701,1.256c-0.705,0.837-1.058,1.922-1.058,3.254
			c0,1.347,0.303,2.395,0.91,3.143s1.516,1.416,2.729,2.004c0.593,0.357,1.007,0.72,1.242,1.089
			c0.235,0.368,0.353,0.869,0.353,1.502c0,0.61-0.116,1.094-0.349,1.451c-0.232,0.357-0.589,0.536-1.07,0.536
			c-0.615,0-1.074-0.219-1.379-0.659c-0.305-0.439-0.457-1.161-0.457-2.166h-2.22l-0.016,0.067c-0.027,1.69,0.367,2.987,1.182,3.891
			c0.815,0.904,1.778,1.356,2.89,1.356c1.117,0,2.012-0.398,2.685-1.195c0.673-0.796,1.01-1.898,1.01-3.305
			C70.102,21.534,69.823,20.453,69.264,19.653z"/>
	</g>
</g>
</svg>
