<?xml version="1.0" encoding="utf-8"?>
<!-- Generator: Adobe Illustrator 25.0.1, SVG Export Plug-In . SVG Version: 6.00 Build 0)  -->
<svg version="1.1" id="Layer_1" xmlns="http://www.w3.org/2000/svg" xmlns:xlink="http://www.w3.org/1999/xlink" x="0px" y="0px"
	 viewBox="0 0 240 240" style="enable-background:new 0 0 240 240;" xml:space="preserve">
<g>
	<path d="M7750.7,3660.401v-6c0-8.4-15-12-29.101-12s-29.101,3.9-29.101,12v6c0,5.4,2.101,10.8,6,14.7l15,14.7
		c0.899,0.9,1.2,1.8,1.2,3v19.2c0,1.2,0.601,2.1,1.8,2.4l8.7,2.7c1.5,0.3,3-0.6,3-2.4v-21.6c0-1.2,0.601-2.1,1.2-3l15.3-15
		C7748.6,3671.2,7750.7,3665.8,7750.7,3660.401z M7721.6,3660.1c-14.399,0-22.2-3.9-22.5-5.4l0,0c0.3-1.5,8.101-5.4,22.5-5.4
		s21.899,3.9,22.5,5.4C7743.5,3656.2,7736,3660.1,7721.6,3660.1z"/>
	<path d="M7736.6,3691c-1.8,0-3,1.2-3,3s1.2,3,3,3h12.899c1.8,0,3-1.2,3-3s-1.2-3-3-3H7736.6z"/>
	<path d="M7749.5,3701.2h-12.899c-1.8,0-3,1.2-3,3s1.2,3,3,3h12.899c1.8,0,3-1.2,3-3C7752.5,3702.401,7751.299,3701.2,7749.5,3701.2
		z"/>
	<path d="M7749.5,3711.1h-12.899c-1.8,0-3,1.2-3,3s1.2,3,3,3h12.899c1.8,0,3-1.2,3-3C7752.5,3712.6,7751.299,3711.1,7749.5,3711.1z"
		/>
</g>
<g>
	<path d="M-7810.9-3464v-22.5c0-31.5-57.6-45.9-111.3-45.9c-53.7,0-111.3,14.4-111.3,45.9v22.5c0,21,8.4,40.8,23.4,55.5l57,56.1
		c3,3,4.8,7.2,4.8,11.4v73.2c0,3.9,2.7,7.5,6.6,8.7l33.3,9.9c5.7,1.8,11.7-2.7,11.7-8.7v-81.9c0-4.2,1.8-8.4,4.8-11.4l57.9-57.3
		C-7819.3-3422.9-7810.9-3443-7810.9-3464z M-7922.2-3465.5c-55.5,0-84.3-15.3-86.1-20.7l0,0c1.8-5.7,30.6-21,86.1-21
		c54.9,0,83.7,15,86.1,21C-7838.5-3480.5-7867.3-3465.5-7922.2-3465.5z"/>
	<path d="M-7864.9-3347.6c-6.3,0-11.4,5.1-11.4,11.4s5.1,11.4,11.4,11.4h49.8c6.3,0,11.4-5.1,11.4-11.4s-5.1-11.4-11.4-11.4H-7864.9
		z"/>
	<path d="M-7815.1-3308.9h-49.8c-6.3,0-11.4,5.1-11.4,11.4s5.1,11.4,11.4,11.4h49.8c6.3,0,11.4-5.1,11.4-11.4
		S-7808.8-3308.9-7815.1-3308.9z"/>
	<path d="M-7815.1-3270.2h-49.8c-6.3,0-11.4,5.1-11.4,11.4s5.1,11.4,11.4,11.4h49.8c6.3,0,11.4-5.1,11.4-11.4
		S-7808.8-3270.2-7815.1-3270.2z"/>
</g>
<g>
	<path d="M7750.639,3661.448v-6c0-8.4-15-12-29.101-12s-29.101,3.9-29.101,12v6c0,5.4,2.101,10.8,6,14.7l15,14.7
		c0.899,0.9,1.2,1.8,1.2,3v19.2c0,1.2,0.601,2.1,1.8,2.4l8.7,2.7c1.5,0.3,3-0.6,3-2.4v-21.6c0-1.2,0.601-2.1,1.2-3l15.3-15
		C7748.538,3672.248,7750.639,3666.847,7750.639,3661.448z M7721.538,3661.148c-14.399,0-22.2-3.9-22.5-5.4l0,0
		c0.3-1.5,8.101-5.4,22.5-5.4s21.899,3.9,22.5,5.4C7743.439,3657.248,7735.939,3661.148,7721.538,3661.148z"/>
	<path d="M7736.538,3692.048c-1.8,0-3,1.2-3,3s1.2,3,3,3h12.899c1.8,0,3-1.2,3-3s-1.2-3-3-3H7736.538z"/>
	<path d="M7749.439,3702.248h-12.899c-1.8,0-3,1.2-3,3s1.2,3,3,3h12.899c1.8,0,3-1.2,3-3S7751.238,3702.248,7749.439,3702.248z"/>
	<path d="M7749.439,3712.148h-12.899c-1.8,0-3,1.2-3,3s1.2,3,3,3h12.899c1.8,0,3-1.2,3-3
		C7752.439,3713.648,7751.238,3712.148,7749.439,3712.148z"/>
</g>
<g>
	<path d="M-7810.961-3462.952v-22.5c0-31.5-57.6-45.9-111.3-45.9c-53.7,0-111.3,14.4-111.3,45.9v22.5c0,21,8.4,40.8,23.4,55.5
		l57,56.1c3,3,4.8,7.2,4.8,11.4v73.2c0,3.9,2.7,7.5,6.6,8.7l33.3,9.9c5.7,1.8,11.7-2.7,11.7-8.7v-81.9c0-4.2,1.8-8.4,4.8-11.4
		l57.9-57.3C-7819.362-3421.852-7810.961-3441.952-7810.961-3462.952z M-7922.262-3464.452c-55.5,0-84.3-15.3-86.1-20.7l0,0
		c1.8-5.7,30.6-21,86.1-21c54.9,0,83.7,15,86.1,21C-7838.562-3479.452-7867.362-3464.452-7922.262-3464.452z"/>
	<path d="M-7864.961-3346.552c-6.3,0-11.4,5.1-11.4,11.4s5.1,11.4,11.4,11.4h49.8c6.3,0,11.4-5.1,11.4-11.4
		c0-6.3-5.1-11.4-11.4-11.4H-7864.961z"/>
	<path d="M-7815.162-3307.852h-49.8c-6.3,0-11.4,5.1-11.4,11.4c0,6.3,5.1,11.4,11.4,11.4h49.8c6.3,0,11.4-5.1,11.4-11.4
		S-7808.862-3307.852-7815.162-3307.852z"/>
	<path d="M-7815.162-3269.152h-49.8c-6.3,0-11.4,5.1-11.4,11.4s5.1,11.4,11.4,11.4h49.8c6.3,0,11.4-5.1,11.4-11.4
		S-7808.862-3269.152-7815.162-3269.152z"/>
</g>
<g>
	<path d="M7750.639,3661.448v-6c0-8.4-15-12-29.101-12s-29.101,3.9-29.101,12v6c0,5.4,2.101,10.8,6,14.7l15,14.7
		c0.899,0.9,1.2,1.8,1.2,3v19.2c0,1.2,0.601,2.1,1.8,2.4l8.7,2.7c1.5,0.3,3-0.6,3-2.4v-21.6c0-1.2,0.601-2.1,1.2-3l15.3-15
		C7748.538,3672.248,7750.639,3666.847,7750.639,3661.448z M7721.538,3661.148c-14.399,0-22.2-3.9-22.5-5.4l0,0
		c0.3-1.5,8.101-5.4,22.5-5.4s21.899,3.9,22.5,5.4C7743.439,3657.248,7735.939,3661.148,7721.538,3661.148z"/>
	<path d="M7736.538,3692.048c-1.8,0-3,1.2-3,3s1.2,3,3,3h12.899c1.8,0,3-1.2,3-3s-1.2-3-3-3H7736.538z"/>
	<path d="M7749.439,3702.248h-12.899c-1.8,0-3,1.2-3,3s1.2,3,3,3h12.899c1.8,0,3-1.2,3-3S7751.238,3702.248,7749.439,3702.248z"/>
	<path d="M7749.439,3712.148h-12.899c-1.8,0-3,1.2-3,3s1.2,3,3,3h12.899c1.8,0,3-1.2,3-3
		C7752.439,3713.648,7751.238,3712.148,7749.439,3712.148z"/>
</g>
<g>
	<path d="M-7810.961-3462.952v-22.5c0-31.5-57.6-45.9-111.3-45.9c-53.7,0-111.3,14.4-111.3,45.9v22.5c0,21,8.4,40.8,23.4,55.5
		l57,56.1c3,3,4.8,7.2,4.8,11.4v73.2c0,3.9,2.7,7.5,6.6,8.7l33.3,9.9c5.7,1.8,11.7-2.7,11.7-8.7v-81.9c0-4.2,1.8-8.4,4.8-11.4
		l57.9-57.3C-7819.362-3421.852-7810.961-3441.952-7810.961-3462.952z M-7922.262-3464.452c-55.5,0-84.3-15.3-86.1-20.7l0,0
		c1.8-5.7,30.6-21,86.1-21c54.9,0,83.7,15,86.1,21C-7838.562-3479.452-7867.362-3464.452-7922.262-3464.452z"/>
	<path d="M-7864.961-3346.552c-6.3,0-11.4,5.1-11.4,11.4s5.1,11.4,11.4,11.4h49.8c6.3,0,11.4-5.1,11.4-11.4
		c0-6.3-5.1-11.4-11.4-11.4H-7864.961z"/>
	<path d="M-7815.162-3307.852h-49.8c-6.3,0-11.4,5.1-11.4,11.4c0,6.3,5.1,11.4,11.4,11.4h49.8c6.3,0,11.4-5.1,11.4-11.4
		S-7808.862-3307.852-7815.162-3307.852z"/>
	<path d="M-7815.162-3269.152h-49.8c-6.3,0-11.4,5.1-11.4,11.4s5.1,11.4,11.4,11.4h49.8c6.3,0,11.4-5.1,11.4-11.4
		S-7808.862-3269.152-7815.162-3269.152z"/>
</g>
<g>
	<g>
		<path d="M220.966,105.859c0.061-11.041-9.171-21.304-19.978-22.401c-3.743-0.38-7.519-0.424-11.605-0.638v-1.946
			c0-12.514-0.041-25.028,0.018-37.541c0.031-6.543-2.574-12.001-7.001-16.509c-3.131-3.189-7.102-5.262-11.588-6.139
			c-0.217-0.042-0.403-0.249-0.604-0.378H66.74c-2.596,1.088-5.37,1.881-7.753,3.32c-6.134,3.704-10.426,9.114-10.902,16.342
			c-0.629,9.581-0.408,19.219-0.512,28.835c-0.05,4.647-0.009,9.296-0.009,14.229c-2.192,0-4.292,0.025-6.39-0.005
			c-7.387-0.101-13.742,2.268-18.78,7.803c-2.96,3.252-4.977,6.973-5.633,11.372c-0.022,0.15-0.234,0.272-0.357,0.407v55.935
			c1.451,3.14,2.519,6.538,4.432,9.365c4.237,6.257,10.339,9.583,17.98,9.799c2.843,0.081,5.692,0.013,8.748,0.013v7.698
			c0,5.125-0.046,10.25,0.01,15.376c0.104,9.412,4.07,16.593,12.359,21.286c3.254,1.842,6.664,2.811,10.434,2.807
			c32.346-0.038,64.692-0.012,97.038-0.033c4.966-0.003,9.293-1.931,13.115-4.948c4.049-3.196,6.869-7.29,8.082-12.363
			c0.377-1.575,0.731-3.203,0.745-4.809c0.075-8.246,0.034-16.492,0.034-25.014c2.873,0,5.641-0.061,8.406,0.012
			c6.48,0.171,11.987-2.349,16.383-6.781c4.381-4.416,6.87-9.846,6.815-16.372C220.852,138.342,220.876,122.099,220.966,105.859z
			 M63.573,45.027c0.1-4.106,1.947-7.473,5.881-8.456c0.688-0.172,1.415-0.27,2.123-0.271c31.287-0.013,62.572-0.001,93.859-0.023
			c4.283-0.004,7.83,3.044,7.894,7.352c0.195,13.038,0.071,26.081,0.071,39.264H63.544V60.206
			C63.544,55.146,63.451,50.084,63.573,45.027z M164.8,208.949c-30.821-0.122-61.642-0.12-92.463-0.008
			c-5.406,0.02-8.708-3.46-8.738-8.433c-0.123-20.438-0.04-40.877-0.028-61.315c0-0.122,0.067-0.245,0.152-0.539h109.681v2.214
			c0,19.774-0.056,39.546,0.037,59.319C173.465,205.436,169.642,208.968,164.8,208.949z M185.392,122.188
			c-6.447,0.377-11.651-5.517-11.447-11.459c0.231-6.77,5.094-11.481,11.712-11.504c6.767-0.025,11.511,5.79,11.387,11.975
			C196.933,116.743,191.65,122.787,185.392,122.188z M79.232,170.045h78.847v-16.138H79.232V170.045z M79.216,193.566h55.277
			v-16.139H79.216V193.566z"/>
	</g>
</g>
</svg>
