<?xml version="1.0" encoding="utf-8"?>
<!-- Generator: Adobe Illustrator 25.0.1, SVG Export Plug-In . SVG Version: 6.00 Build 0)  -->
<svg version="1.1" id="Layer_1" xmlns="http://www.w3.org/2000/svg" xmlns:xlink="http://www.w3.org/1999/xlink" x="0px" y="0px"
	 viewBox="0 0 630 240" style="enable-background:new 0 0 630 240;" xml:space="preserve">
<style type="text/css">
	.st0{opacity:0.4;}
	.st1{fill:#310E3F;}
	.st2{fill:#E0BDAE;}
	.st3{fill:#91ABB1;}
	.st4{fill:#8A3E6E;}
	.st5{fill:#FCF065;}
	.st6{fill:#EB519B;}
	.st7{fill:#FFFFFF;}
	.st8{fill:#A9DFF6;}
	.st9{fill:#2F141A;}
	.st10{fill:#D28ABB;}
	.st11{fill:#50B748;}
	.st12{fill:#CBAC94;}
	.st13{fill:#443E39;}
	.st14{fill:#E4A2AC;}
	.st15{fill:#E5B829;}
	.st16{opacity:0.25;}
	.st17{fill:#0B8266;}
</style>
<g>
	<g class="st0">
		<path class="st1" d="M422.8,219.7c0-4.8-55.1-8.7-123.1-8.7s-123.1,3.9-123.1,8.7c0,2.9,19.6,5.4,49.7,7c-0.5,0.3-0.8,0.5-0.8,0.8
			c0,2.2,15.8,3.9,35.3,3.9c16.7,0,30.7-1.3,34.3-3c1.5,0,3,0,4.5,0c4.5,0,9,0,13.4-0.1c3.5,1.8,17.6,3.1,34.4,3.1
			c19.5,0,35.3-1.8,35.3-3.9c0-0.4-0.7-0.9-1.9-1.3C406.6,224.6,422.8,222.3,422.8,219.7z"/>
	</g>
	<g>
		<path class="st2" d="M398.3,61.4c2.1,0.9,4,2.4,6.2,2.5c0.3,0,0.5,0,0.7,0c5.5-0.1,5.2-4.5,8.2-8c1-1.2,2.3-2,3.7-2.7
			c9.9-4.8,25.9,0.6,25,13.2c-0.3,4.2-2.1,8.1-4.3,11.7c-5.7,9.5-15.3,13.4-22.3,21.5c-1.7,1.9-3.6,3.6-5.5,5.3
			c-2,1.8-3.2,3.3-4.6,5.6c-3.5,5.4-7.6,10.6-11.2,16c-3.3,5-6.5,10.1-9.5,15.3c-1.2,2.1-4.1,9.1-7.5,8.1c-3.8-1.1-2.4-12.1-4-15
			c-2.9-5.3-5.4-8.2-4.8-14.7c0.3-3.6,2-6.5,4.2-9.2c1.4-1.7,2.5-3.7,3.7-5.6c0.7-1.1,3.3-3.8,3.3-5c1.7-2.6,3.3-5.5,5.4-7.8
			c2.5-2.8,4.6-6,6.7-9.1c1-1.5,2-3.2,2.3-5c0.4-2.6-0.8-4.6-1.5-7C391.7,67.3,391.4,58.4,398.3,61.4z"/>
	</g>
	<g>
		<path d="M378.7,151.9c1.4-2.3,2.8-4.7,4.2-7.1c1.4-2.4,2.8-4.8,4.1-7.1c2.7-4.8,5.4-9.6,8.3-14.3c2.9-4.7,5.9-9.3,9.3-13.7
			c3.4-4.4,7.1-8.5,11.2-12.3c2-1.9,4.2-3.7,6.4-5.4c2.1-1.7,4.2-3.4,6.2-5.2c2-1.8,3.8-3.7,5.5-5.8c0.9-1,1.6-2.1,2.3-3.2
			c0.7-1.1,1.3-2.2,1.8-3.4c1-2.3,1.5-4.8,1.4-7.3c-0.1-2.5-0.8-5-1.8-7.4c-0.5-1.2-1.1-2.4-1.6-3.6c-0.6-1.2-1.2-2.5-1.8-3.7
			c-0.6-1.2-1.2-2.4-1.9-3.5c-0.7-1.1-1.4-2.1-2.2-2.8c-0.8-0.7-1.7-1-2.7-1.1c-1,0-2.2,0.2-3.4,0.6c-0.3,0.1-0.6,0.2-0.9,0.3
			l-0.4,0.2c-0.1,0.1-0.3,0.1-0.4,0.2c-0.5,0.2-1,0.5-1.4,0.9c-0.9,0.7-1.6,1.5-2.2,2.6c-1.2,2.1-1.9,4.7-2.6,7.3
			c-0.2,0.7-0.3,1.2-0.4,1.9c-0.1,0.6-0.2,1.3-0.2,1.9c-0.1,1.3-0.1,2.7-0.4,4.3c-0.2,0.8-0.4,1.7-1.2,2.6c-0.4,0.4-0.9,0.8-1.4,1
			c-0.5,0.2-1,0.4-1.5,0.4c-0.9,0.1-1.7,0-2.5-0.1c-0.4-0.1-0.8-0.1-1.1-0.2l-0.5-0.1c-0.2-0.1-0.5-0.1-0.7-0.2
			c-0.8-0.3-1.5-0.8-2.1-1.2c-0.6-0.4-1.2-0.9-1.7-1.3c-1.1-0.9-2.1-1.8-3.1-2.6c-1-0.8-2.1-1.5-3-1.7c-0.4-0.1-0.8-0.1-1,0.1
			c-0.3,0.1-0.6,0.4-0.9,0.9c-0.3,0.4-0.6,1-0.8,1.4c-0.2,0.5-0.3,1-0.3,1.5c-0.1,1.1,0.3,2.2,0.7,3.4c0.5,1.2,1.1,2.5,1.5,3.9
			c0.2,0.7,0.4,1.5,0.5,2.2c0.1,0.8,0.1,1.6,0.1,2.4c-0.2,1.6-0.7,3.1-1.5,4.4c-0.2,0.3-0.4,0.6-0.6,0.9c-0.2,0.3-0.4,0.6-0.6,0.9
			c-0.4,0.5-0.8,1.1-1.2,1.6c-3.2,4.4-6.4,8.9-9.6,13.3l-9.6,13.4c-1.6,2.2-3.2,4.5-4.9,6.7c-1.7,2.2-3.3,4.4-5.1,6.5l-1-0.8
			c1.7-2.1,3.2-4.4,4.8-6.6l4.7-6.8l9.3-13.6c3.1-4.5,6.2-9.1,9.4-13.6c0.4-0.6,0.8-1.1,1.2-1.7c0.2-0.3,0.4-0.5,0.6-0.8
			c0.2-0.3,0.3-0.5,0.5-0.8c0.6-1.1,1-2.2,1.1-3.3c0.1-1.1-0.1-2.3-0.5-3.5c-0.4-1.2-1-2.4-1.5-3.7c-0.5-1.3-1-2.9-1-4.6
			c0-0.8,0.2-1.7,0.5-2.5c0.3-0.8,0.6-1.5,1.1-2.2c0.5-0.7,1.2-1.4,2.1-1.9c0.5-0.2,1-0.4,1.5-0.4s1,0,1.5,0.1
			c0.9,0.2,1.7,0.6,2.3,0.9c0.7,0.4,1.3,0.8,1.9,1.3c1.2,0.9,2.2,1.8,3.3,2.6c1,0.8,2.1,1.6,3,2c0.1,0,0.2,0.1,0.3,0.1l0.5,0.1
			c0.3,0.1,0.6,0.1,0.9,0.2c0.6,0.1,1.2,0.1,1.6,0.1c0.2,0,0.4-0.1,0.5-0.1c0.1-0.1,0.2-0.1,0.3-0.2c0.1-0.2,0.3-0.6,0.4-1.1
			c0.2-1.1,0.2-2.5,0.3-3.9c0.1-0.7,0.1-1.4,0.2-2.2c0.1-0.7,0.3-1.5,0.5-2.2c0.3-1.4,0.7-2.7,1.1-4.1c0.4-1.4,1-2.7,1.7-4.1
			c0.7-1.3,1.8-2.7,3.1-3.7c0.7-0.5,1.4-0.9,2.1-1.3c0.2-0.1,0.4-0.2,0.5-0.2l0.5-0.2c0.3-0.1,0.7-0.3,1-0.4
			c1.4-0.5,2.9-0.9,4.7-0.8c0.9,0,1.7,0.2,2.6,0.5c0.8,0.3,1.6,0.8,2.2,1.4c1.3,1.1,2.2,2.4,2.9,3.6c0.8,1.2,1.4,2.5,2.1,3.7
			c0.6,1.3,1.2,2.5,1.8,3.7c0.6,1.3,1.2,2.5,1.7,3.9c1.1,2.6,1.9,5.5,2,8.6c0.1,3-0.6,6.1-1.7,8.8c-0.6,1.4-1.3,2.6-2.1,3.8
			c-0.8,1.2-1.6,2.4-2.6,3.5c-1.8,2.2-3.9,4.2-6,6c-2.1,1.9-4.3,3.6-6.5,5.2c-2.2,1.6-4.3,3.3-6.3,5.1c-8.2,7.1-14.9,15.8-21,24.9
			c-3,4.6-6,9.2-8.9,13.9c-1.5,2.3-2.9,4.6-4.5,6.9C381.8,147.4,380.3,149.6,378.7,151.9z"/>
	</g>
	<g>
		<path class="st2" d="M224.5,209.3c-1.1,1.7-2,3.5-3,5.2c-0.8,1.3-0.9,2.7-2.3,3.6c-2.5,1.8-4,1.2-6.9,0.6c-2.7-0.6-5.4-1.4-8-2.3
			c-2.7-1-5.7,0-8.5,0.4c-2.6,0.4-5.1,1.8-7.7,2.5c-3.9,1-7.8,0.6-11.6-0.7c-2.5-0.9-9.8-7-4.7-9.4c2.3-1.1,4.9-2,7.2-2.9
			c2.2-0.9,4.4-2,6.6-3c2.1-1,4.3-1.4,6.1-2.9c1.7-1.5,3.6-2.4,5.5-3.6c2.6-1.5,5.1-3.1,7.5-4.9c1.3-0.9,2.7-1.7,4-2.7
			c1-0.8,1.6-1.8,2.5-2.7c2.4-2.8,4.9-5.5,7.3-8.3c2.6-3,4.3-7.6,5.7-11.3c1.7-4.4,3.5-8.9,4.1-13.6c0.5-3.9,0.5-8,1.9-11.7
			c1-2.8,5-5.6,8.1-4.9c2.5,0.6,4.8,2.8,7.3,3.6c6.3,1.9,8.7,7.1,9.4,13.2c0.8,6.9-2.8,12.1-5.9,17.9c-4.1,7.6-6.2,16.2-10.7,23.6
			c-1.8,2.9-4.1,5.6-6.8,7.6C228.8,204.7,226.5,206.3,224.5,209.3z"/>
	</g>
	<g>
		<path d="M229.2,132.2c0.4,2.7,0.7,5.4,0.8,8.2c0.1,2.7,0,5.5-0.3,8.2c-0.5,5.5-1.7,10.9-3.6,16.2c-1,2.6-2.1,5.2-3.3,7.6
			c-1.3,2.5-2.7,4.8-4.3,7.1c-3.2,4.6-6.9,8.8-11.1,12.5c-4.2,3.7-8.9,6.8-13.9,9.4c-5,2.6-10.3,4.4-15.4,6.3
			c-1.3,0.5-2.5,0.9-3.7,1.5c-0.6,0.3-1.1,0.5-1.6,0.9c-0.5,0.3-0.9,0.6-1,0.9c-0.2,0.3-0.2,0.4-0.1,0.7c0.1,0.3,0.3,0.8,0.6,1.2
			c0.3,0.5,0.7,0.9,1.1,1.4c0.4,0.4,0.8,0.8,1.3,1.2c0.9,0.7,2,1.2,3.1,1.5c1.1,0.3,2.4,0.5,3.6,0.5c2.5,0.1,5.1-0.3,7.8-0.8
			c2.7-0.5,5.3-1.1,8.1-1.5c0.7-0.1,1.4-0.2,2.1-0.3c0.4,0,0.7-0.1,1.2-0.1c0.4,0,0.9,0,1.2,0c1.6,0.2,2.9,0.5,4.3,0.8
			c2.7,0.7,5.3,1.5,7.8,2c1.2,0.2,2.5,0.4,3.5,0.2c0.5-0.1,0.8-0.2,0.9-0.4c0.1-0.1,0.1-0.1,0.2-0.3c0.1-0.3,0.3-0.7,0.4-1
			c1.2-2.6,2.6-5,4.3-7.3c1.7-2.3,3.7-4.5,6.1-6.2c1.2-0.9,2.5-1.6,4-2.1c1.5-0.5,3.1-0.8,4.7-0.7c0.8,0.1,1.7,0.3,2.4,0.5
			c0.7,0.3,1.4,0.6,2,0.9c0.2,0.1,0.5,0.2,0.4,0.2c0,0-0.2,0-0.3,0.1c-0.1,0.1-0.1,0.1-0.1,0.1c0,0,0.2-0.2,0.2-0.5
			c0.1-0.2,0.2-0.5,0.3-0.8c0.2-0.6,0.3-1.3,0.4-1.9c0.1-0.2,0.1-0.5,0.1-0.6c0-0.1,0,0,0.1,0c0.1,0,0,0-0.3-0.1
			c-0.2,0-0.5-0.1-0.8-0.1c-0.3,0-0.7,0-1.1-0.1c-0.4,0-0.9-0.1-1.5-0.3c-0.3-0.1-0.6-0.3-0.9-0.6c-0.3-0.3-0.4-0.7-0.5-1
			c-0.2-0.7-0.1-1.2,0-1.6c0.1-0.4,0.2-0.8,0.3-1.2l0.3-1c0.2-0.7,0.5-1.3,0.7-2c0.2-0.7,0.5-1.3,0.7-1.9c2-5.1,4.2-10.2,6.3-15.2
			c2.2-5,4.4-10,6.7-15c1.1-2.5,2.3-5,3.5-7.5c1.2-2.5,2.4-4.9,3.7-7.4l1.2,0.6c-2.4,4.9-4.5,9.9-6.6,15c-2.1,5-4.2,10.1-6.3,15.1
			c-2.1,5.1-4.1,10.1-5.9,15.2c-0.2,0.6-0.5,1.3-0.7,1.9c-0.2,0.6-0.5,1.3-0.6,1.9l-0.3,0.9c-0.1,0.3-0.2,0.6-0.2,0.8
			c0,0.2,0,0.4,0,0.4c0,0,0-0.1,0-0.1c0,0-0.1-0.1,0-0.1c0,0,0.3,0.1,0.5,0.1c0.3,0,0.6,0,1,0c0.4,0,0.8,0,1.2,0.1
			c0.5,0.1,1,0.2,1.6,0.7c0.3,0.2,0.5,0.5,0.7,0.9c0.2,0.3,0.3,0.6,0.3,0.9c0.1,0.6,0,1.1,0,1.5c-0.1,0.8-0.3,1.4-0.5,2.2
			c-0.1,0.4-0.2,0.7-0.4,1.1c-0.2,0.4-0.3,0.8-0.7,1.3c-0.2,0.2-0.5,0.5-0.9,0.7c-0.4,0.2-0.9,0.3-1.3,0.3c-0.8-0.1-1.1-0.3-1.5-0.4
			c-0.7-0.3-1.2-0.6-1.8-0.8c-0.5-0.2-1.1-0.3-1.6-0.3c-1.1-0.1-2.3,0.1-3.4,0.5c-1.1,0.4-2.2,1-3.2,1.8c-2,1.5-3.8,3.4-5.3,5.6
			c-1.5,2.1-2.9,4.4-4,6.8c-0.1,0.3-0.3,0.6-0.4,0.9c-0.2,0.5-0.5,1-1,1.4c-0.9,0.8-1.9,1.1-2.7,1.3c-1.7,0.3-3.2,0-4.7-0.2
			c-2.8-0.5-5.5-1.3-8.1-2c-1.3-0.3-2.6-0.6-3.8-0.7c-0.3,0-0.6,0-0.8,0c-0.2,0-0.5,0.1-0.9,0.1c-0.7,0.1-1.3,0.2-2,0.3
			c-2.6,0.4-5.3,1-8,1.5c-2.7,0.5-5.6,0.9-8.5,0.8c-1.5-0.1-3-0.2-4.5-0.7c-1.5-0.4-2.9-1.2-4.2-2.1c-0.6-0.5-1.2-1-1.8-1.6
			c-0.3-0.3-0.5-0.6-0.8-0.9c-0.2-0.3-0.5-0.6-0.7-1c-0.4-0.7-0.9-1.5-1-2.5c-0.1-0.5-0.1-1.1,0-1.7c0.1-0.6,0.4-1.1,0.7-1.5
			c0.6-0.9,1.3-1.4,2-1.8c0.7-0.4,1.4-0.8,2-1.1c1.3-0.6,2.6-1.1,3.9-1.5c2.6-0.9,5.2-1.8,7.7-2.8c2.5-1,5-2,7.4-3.2
			c4.8-2.3,9.3-5.2,13.4-8.7c4.1-3.5,7.8-7.4,11-11.7c3.2-4.3,5.9-9,7.9-14c2-5,3.5-10.2,4.3-15.6
			C229.5,143.2,229.6,137.7,229.2,132.2z"/>
	</g>
	<g>
		<g>
			<path class="st3" d="M239.9,173.4c0.9,4.6,21.6,39.4,45,43.8c-1.4-3.8-1.7-5.4-1.7-5.4s17.5,10,56.5,1.1c-2.7-1-5.3-2.7-5.3-2.7
				s26.5-7.3,35.6-25.5c10.5-21-26.6-12.1-26.6-12.1l-85.4-6.3L239.9,173.4z"/>
		</g>
		<g>
			<path d="M240.2,173.6C240.3,173.6,240.3,173.5,240.2,173.6l0.2,0.2c0.1,0.1,0.1,0.3,0.2,0.5c0.1,0.3,0.3,0.6,0.4,0.9
				c0.3,0.6,0.6,1.2,0.9,1.8c0.6,1.2,1.3,2.3,2,3.5c1.4,2.3,2.9,4.5,4.4,6.7c3.1,4.4,6.5,8.5,10.2,12.4c3.7,3.9,7.7,7.5,12.1,10.5
				c4.4,3,9.3,5.4,14.4,6.3l0,0l-1,1.2c-0.3-0.9-0.5-1.9-0.7-2.8c-0.1-0.5-0.2-0.9-0.3-1.4c-0.1-0.5-0.2-0.9-0.2-1.4v0l-0.2-0.8
				l0.8,0.4c2.1,1,4.4,1.8,6.6,2.4c2.3,0.6,4.6,1,7,1.4c4.7,0.7,9.5,0.8,14.2,0.7c4.8-0.1,9.5-0.6,14.2-1.2c4.7-0.7,9.4-1.6,14-2.7
				l0,0l-0.1,1.8c-0.9-0.4-1.8-0.9-2.7-1.5c-0.9-0.5-1.7-1.1-2.5-1.7l0,0l-0.7-0.5l0.8-0.3c3.3-1.1,6.5-2.4,9.7-3.8
				c3.1-1.5,6.2-3.1,9.1-5c2.9-1.9,5.7-4,8.2-6.3c2.5-2.3,4.8-5,6.6-7.9c0.9-1.5,1.7-3,2.3-4.6c0.6-1.6,1-3.2,0.8-4.8
				c-0.1-0.8-0.3-1.5-0.7-2.1c-0.4-0.6-1-1.2-1.6-1.6c-1.3-0.9-2.9-1.4-4.6-1.7c-3.3-0.6-6.8-0.5-10.3-0.2
				c-3.4,0.3-6.9,0.9-10.3,1.6l-0.1,0l-0.1,0l-42.7-3.2l-42.7-3.4l0,0l0.2,0C252.2,169.1,246.3,171.3,240.2,173.6z M239.5,173.2
				c6.1-2.4,12.3-4.8,18.4-7.2l0.1,0l0.1,0l0,0l42.7,2.9l42.7,3l-0.2,0c3.5-0.8,6.9-1.3,10.5-1.7c3.5-0.3,7.1-0.4,10.7,0.2
				c1.8,0.3,3.6,0.9,5.2,1.9c0.8,0.5,1.5,1.2,2.1,2.1s0.9,1.8,1,2.8c0.2,2-0.2,3.8-0.9,5.5c-0.6,1.7-1.5,3.3-2.4,4.8
				c-1.9,3-4.3,5.8-6.9,8.2c-2.6,2.4-5.5,4.5-8.5,6.4c-3,1.8-6.2,3.5-9.4,4.9c-3.2,1.4-6.5,2.6-10,3.6l0.1-0.8l0,0
				c0.9,0.4,1.7,0.9,2.6,1.2c0.9,0.4,1.8,0.7,2.7,0.9l3.3,0.8l-3.4,1l0,0c-4.7,1-9.4,1.9-14.2,2.5c-4.8,0.6-9.6,1-14.4,1
				c-4.8,0-9.6-0.2-14.4-1c-2.4-0.4-4.7-0.9-7.1-1.5c-2.3-0.7-4.6-1.4-6.8-2.6l0.6-0.4l0,0c0.1,0.4,0.3,0.9,0.5,1.3
				c0.2,0.4,0.3,0.9,0.5,1.3c0.4,0.9,0.7,1.7,1.1,2.6l0.7,1.4l-1.7-0.2l0,0c-5.5-1.1-10.5-3.7-15-6.8c-4.5-3.1-8.5-6.9-12.2-10.8
				c-3.7-4-7.1-8.3-10.2-12.7c-1.5-2.2-3-4.5-4.4-6.9c-0.7-1.2-1.3-2.4-2-3.6c-0.3-0.6-0.6-1.2-0.9-1.8c-0.1-0.3-0.3-0.6-0.4-1
				c-0.1-0.2-0.1-0.3-0.2-0.5l-0.1-0.3C239.5,173.6,239.5,173.3,239.5,173.2z"/>
		</g>
	</g>
	<g>
		<path class="st4" d="M258.2,161.3c-7,11.6,5.6,33.9,20,39.3c-1-3.5,0.9-7.9,0.9-7.9s1.8,18.4,38.2,15.7c-2.2-1.4-4.2-5.3-3.3-4.9
			c14.2,4.6,29.9-4.5,28.3-5.6c-4.2-2.8,5.2-1.5,14.6-12.7c-12.5-4.9-9.4-24.1-9.4-24.1l-18.2-1.9l-55.7-0.3L258.2,161.3z"/>
	</g>
	<g>
		<g>
			<path class="st3" d="M240.1,170.9c-17-27.7-14.5-50.9-10.9-68.3c0,0,3.1,3.4,6.7,4.1c-2-6.3-4.1-13.7-0.7-22.6l4.5,3.8
				c0,0-1.1-22.3,28.7-35.9l-2,10.1c0,0,15.5-27.2,73.7-13.9c-6.1,3.8-8.8,9.2-8.8,9.2s31.3-9.9,51.3,32c-5.5-3.2-10.1-2.3-10.1-2.3
				s21.1,21.6,14.8,48.2l-3.9-4.3c0,0,3.9,25-9.9,44.1c0,0-13.3-13.2-33.7-13s-71.8-3.2-74.9-2.6
				C261.9,159.8,240.1,170.9,240.1,170.9z"/>
		</g>
		<g>
			<path d="M240,171.3c-0.9-1.3-1.9-2.8-2.5-4c-0.8-1.3-1.4-2.6-2.1-3.9c-1.4-2.7-2.6-5.4-3.7-8.1c-2.2-5.5-3.8-11.3-4.8-17.2
				c-1-5.9-1.3-11.9-1-17.9c0.3-6,1.2-11.9,2.3-17.8l0.4-2.1l1.5,1.5l0,0c0.3,0.4,0.8,0.9,1.2,1.4c0.4,0.4,0.9,0.9,1.4,1.3
				c1,0.8,2.1,1.4,3.3,1.8l-0.5,0.6l0,0c-1.3-3.6-2.4-7.4-2.8-11.4c-0.2-2-0.1-4,0.1-5.9c0.3-2,0.7-3.9,1.4-5.8l0.5-1.3l1.1,0.9l0,0
				l4.2,4.2l-0.7,0.3l0,0c0-1.1,0-2.1,0.2-3.1c0.1-1,0.3-2,0.5-3c0.4-2,1.1-4,1.9-5.9c0.8-1.9,1.7-3.7,2.8-5.5
				c1.1-1.7,2.3-3.4,3.6-5c1.3-1.6,2.8-3,4.3-4.5c0.8-0.7,1.5-1.4,2.3-2l1.2-1l1.2-0.9c3.3-2.4,6.9-4.5,10.6-6.3l2.1-1l-0.4,2.4l0,0
				l-2.8,10l-0.8-0.3l0,0c0.9-1.5,2-2.7,3.2-3.9c1.2-1.2,2.4-2.3,3.8-3.3c2.7-2,5.5-3.8,8.6-5.1c3-1.4,6.2-2.5,9.4-3.4
				c3.2-0.8,6.5-1.4,9.8-1.8c6.6-0.7,13.3-0.8,19.9-0.2c6.6,0.5,13.2,1.6,19.7,3l2.6,0.6l-2.3,1.5h0c-0.9,0.5-1.8,1-2.6,1.6
				c-0.8,0.6-1.6,1.3-2.4,2c-0.8,0.7-1.5,1.5-2.2,2.3c-0.7,0.8-1.3,1.6-1.8,2.5l-0.5-0.6h0c2.7-0.8,5.5-1.1,8.2-1.1
				c2.8,0,5.6,0.2,8.3,0.8c5.5,1.1,10.7,3.4,15.3,6.6c4.6,3.2,8.6,7.1,12,11.5c3.4,4.4,6.3,9.2,8.7,14.1l1.7,3.4l-3.4-1.8l0,0
				c-0.7-0.5-1.4-0.9-2.1-1.3c-0.7-0.4-1.5-0.7-2.3-1c-0.8-0.3-1.6-0.5-2.5-0.6c-0.8-0.1-1.7-0.2-2.5-0.1l0.2-0.7l0,0
				c3.1,3.2,5.7,6.8,8,10.5c2.3,3.8,4.3,7.7,5.7,11.9c1.5,4.2,2.5,8.5,2.8,13c0.4,4.4,0,9-0.9,13.3l0,0l-0.8,2.2l-1.2-1.7l-3.4-4.8
				l0,0l0.7-0.4c0.6,3.9,0.7,7.7,0.6,11.6c-0.1,3.9-0.5,7.8-1.2,11.6c-0.7,3.8-1.8,7.6-3.2,11.2c-1.4,3.6-3.3,7.1-5.5,10.4l0,0
				l-0.7,1l-0.9-0.9c-1-0.9-2.1-1.9-3.2-2.7c-1.1-0.9-2.3-1.7-3.5-2.4c-2.4-1.5-4.9-2.8-7.6-3.9c-2.6-1.1-5.3-2-8.1-2.6
				c-2.8-0.6-5.6-1-8.5-1.1c-0.7,0-1.4,0-2.1,0l-2.2,0l-4.4-0.1c-2.9-0.1-5.8-0.2-8.7-0.3c-5.8-0.2-11.6-0.5-17.4-0.8
				c-11.6-0.6-23.2-1.2-34.8-1.7c-1.4-0.1-2.9-0.1-4.3-0.1c-0.7,0-1.4,0-2.1,0c-0.4,0-0.7,0-1,0.1c-0.3,0.1-0.6,0.2-1,0.3
				c-2.7,1-5.3,2.3-7.9,3.5c-2.6,1.2-5.2,2.5-7.8,3.8l-3.9,1.9l-2,1l-1,0.5l-0.5,0.2l-0.2,0.1l-0.1,0.1l-0.1,0
				C240.3,171.3,240.1,171.3,240,171.3z M240.2,170.5c-0.1,0-0.2,0-0.2,0l0.1,0L240.2,170.5l0.2-0.2l0.5-0.2l1-0.5l1.9-1l3.9-2
				c2.6-1.3,5.2-2.6,7.8-3.8c2.6-1.2,5.2-2.5,8-3.6c0.3-0.1,0.7-0.3,1.1-0.4c0.4-0.1,0.8-0.1,1.2-0.1c0.7,0,1.5,0,2.2,0
				c1.5,0,2.9,0.1,4.4,0.1c11.6,0.4,23.2,1,34.8,1.4c5.8,0.2,11.6,0.4,17.4,0.6c2.9,0.1,5.8,0.1,8.7,0.2l4.3,0l2.2,0
				c0.7,0,1.5,0,2.2,0c3,0.1,5.9,0.5,8.8,1.1c2.9,0.6,5.7,1.5,8.5,2.7c2.7,1.1,5.4,2.5,7.9,4c1.3,0.8,2.5,1.6,3.7,2.5
				c1.2,0.9,2.3,1.8,3.5,2.9l-1.6,0.1l0,0c2.2-3,4.1-6.3,5.6-9.8c1.5-3.5,2.6-7.1,3.5-10.8c0.8-3.7,1.3-7.5,1.5-11.3
				c0.2-3.8,0.2-7.7-0.3-11.4l-0.2-1.4l0.9,1l0,0l4.4,3.8l-2,0.5l0,0c1-4.1,1.5-8.4,1.2-12.7c-0.2-4.3-1-8.5-2.4-12.6
				c-1.3-4.1-3.1-8-5.3-11.8c-2.2-3.7-4.7-7.3-7.5-10.5l0,0l-0.6-0.5l0.8-0.2c0.9-0.2,1.8-0.3,2.8-0.3c0.9,0,1.8,0.1,2.8,0.2
				c0.9,0.2,1.8,0.4,2.7,0.7c0.9,0.3,1.8,0.7,2.6,1.1l0,0l-1.7,1.6c-2.3-4.9-4.9-9.6-8.2-14c-3.2-4.3-7-8.3-11.3-11.4
				c-4.3-3.2-9.3-5.5-14.6-6.7c-2.6-0.6-5.3-0.9-8-0.9c-2.7,0-5.4,0.2-8,0.9h0l-1,0.4l0.4-1c0.5-1,1-2,1.6-2.9
				c0.6-0.9,1.3-1.8,2-2.6c0.7-0.8,1.5-1.6,2.3-2.4c0.8-0.8,1.7-1.4,2.6-2.1h0l0.3,2.1c-6.4-1.5-12.8-2.7-19.4-3.3
				c-6.5-0.7-13.1-0.7-19.6-0.1c-3.2,0.3-6.5,0.9-9.7,1.6c-3.2,0.8-6.3,1.8-9.3,3.1c-3,1.3-5.8,2.9-8.5,4.9c-1.3,1-2.5,2-3.7,3.2
				c-1.1,1.1-2.2,2.4-3.1,3.7l0,0l-1.1,2.3l0.3-2.6l1.2-10.3l0,0L269,53c-3.6,1.6-7.2,3.5-10.4,5.7l-1.2,0.8l-1.2,0.9
				c-0.8,0.6-1.5,1.2-2.3,1.9c-1.5,1.3-2.9,2.7-4.2,4.1c-1.3,1.5-2.5,3-3.6,4.7c-1.1,1.7-2.1,3.4-2.9,5.2c-0.8,1.8-1.5,3.7-2,5.6
				c-0.5,1.9-0.8,3.9-0.8,5.9l0,0l0.1,0.9l-0.8-0.6l-4.9-3.4l0,0l1.6-0.4c-0.7,1.7-1.2,3.5-1.6,5.4c-0.3,1.8-0.5,3.7-0.4,5.6
				c0.1,3.8,1,7.5,2.1,11.2l0,0l0.3,0.6l-0.8-0.1c-1.4-0.2-2.7-0.7-4-1.3c-0.6-0.3-1.2-0.7-1.8-1.1c-0.6-0.4-1.1-0.8-1.7-1.3l0,0
				l1.9-0.5c-1.2,5.8-2.2,11.6-2.6,17.4c-0.4,5.9-0.2,11.7,0.6,17.6c0.8,5.8,2.3,11.5,4.4,17c1,2.8,2.2,5.5,3.5,8.1
				c0.7,1.3,1.3,2.6,2,3.9c0.3,0.6,0.7,1.3,1,1.9C239.6,169.2,239.9,169.8,240.2,170.5z"/>
		</g>
	</g>
	<g>
		
			<ellipse transform="matrix(2.069970e-02 -0.9998 0.9998 2.069970e-02 171.1138 433.4316)" class="st5" cx="306.8" cy="129.4" rx="35.5" ry="18.3"/>
	</g>
	<g>
		<path class="st6" d="M283.7,89.7c-34.3-8-40.6,19.4-40.6,19.4s-5.4-4.5-4.9-18.3c3.7,10.1,7,11.2,9.3,11.8c0.9,0.2,0,0-0.4-0.8
			c-6.4-14.7,4.6-35.1,15.5-42c-3.2,10.7-1.7,17.2,1.1,24.7c0.6-2.2-1.7-35.3,64.6-33.9c0,0-8.7,8.8-9.2,16.3
			c11-6.2,37.1-2.2,55.9,14.8c0,0-9.1-2.5-12.2,2.1c15.7,9.6,23.7,28.5,21.5,41.6c-5.6-7-24.3-35.9-32.1-28.5
			c-10.9-12.3-35.2,1.1-44.5,17.8C307.6,114.8,290.6,91.3,283.7,89.7z"/>
	</g>
	<g>
		<g>
			<path class="st7" d="M296.6,125c0.5,18-1.8,33.3-16.2,35.3c-11.2,1.5-22.2-12.2-25.1-28.2c-3.2-17.9-4.4-33.3,15.9-38.6
				C291.5,88.2,295.9,101,296.6,125z"/>
		</g>
		<g>
			<path d="M297.3,125c0.1,3.8,0.2,7.6-0.1,11.4c-0.3,3.8-0.8,7.6-1.9,11.4c-0.6,1.9-1.3,3.7-2.3,5.4c-1,1.7-2.3,3.3-3.8,4.5
				c-1.6,1.3-3.4,2.2-5.3,2.9c-1,0.3-1.9,0.5-2.9,0.7c-1,0.2-2,0.2-3,0.2c-2-0.1-4-0.7-5.8-1.5c-1.8-0.9-3.4-2-4.9-3.3
				c-2.9-2.6-5.3-5.8-7.1-9.1c-1.9-3.4-3.3-7-4.2-10.7c-0.5-1.8-0.9-3.7-1.2-5.6c-0.3-1.9-0.6-3.7-0.8-5.6
				c-0.5-3.8-0.8-7.6-0.7-11.4c0.2-3.8,0.9-7.7,2.9-11.1c1-1.7,2.2-3.2,3.7-4.5c1.4-1.3,3.1-2.3,4.8-3.2c1.7-0.9,3.5-1.5,5.4-2
				c1.8-0.5,3.7-0.9,5.6-1.2c1.9-0.2,3.8-0.4,5.7-0.2c1.9,0.2,3.8,0.7,5.5,1.6c1.7,0.9,3.2,2.2,4.4,3.8c1.2,1.5,2,3.3,2.7,5.1
				c1.4,3.6,2.1,7.4,2.6,11.1C296.9,117.4,297.1,121.2,297.3,125z M295.9,125c-0.1-3.8-0.2-7.5-0.6-11.3c-0.4-3.7-1-7.5-2.2-11
				c-0.6-1.8-1.4-3.5-2.5-4.9c-1.1-1.5-2.5-2.8-4.1-3.7c-1.6-0.9-3.5-1.4-5.3-1.5c-1.9-0.2-3.7-0.1-5.6,0.2
				c-3.7,0.6-7.3,1.7-10.7,3.3c-1.7,0.8-3.2,1.9-4.6,3.1c-1.4,1.2-2.6,2.6-3.5,4.2c-1.9,3.2-2.7,6.9-2.9,10.7
				c-0.1,1.9-0.1,3.8,0.1,5.6c0.1,1.9,0.3,3.7,0.6,5.6c0.3,1.9,0.6,3.7,1,5.6c0.3,1.9,0.8,3.7,1.3,5.5c1.1,3.6,2.6,7,4.5,10.2
				c1.9,3.2,4.2,6.1,7,8.5c1.4,1.2,2.9,2.2,4.5,2.9c1.6,0.8,3.3,1.2,5.1,1.3c0.9,0.1,1.7,0,2.6-0.1c0.9-0.1,1.8-0.3,2.6-0.6
				c1.7-0.5,3.3-1.3,4.7-2.4c2.8-2.2,4.6-5.5,5.8-9c1.1-3.5,1.7-7.2,2-11C296,132.6,296,128.8,295.9,125z"/>
		</g>
	</g>
	<g>
		<path d="M301.9,124.2c0.9,18.1-2,31.8-16.4,33.6c-10.7,1.3-22-10.5-24.9-26.5c-3.2-17.9-4.4-33.3,15.9-38.6
			C296.8,87.4,300.5,98,301.9,124.2z"/>
		<path d="M283.8,158.3c-10.5,0-20.8-11.6-23.6-26.9c-3.3-18.2-4.4-33.6,16.2-39c8-2.1,13.5-1.7,17.3,1.1c6,4.4,7.7,15.1,8.5,30.8
			l0,0c0.5,10.3-0.3,17.7-2.5,23.1c-2.6,6.5-7.3,10-14.3,10.9C284.9,158.2,284.3,158.3,283.8,158.3z M285.3,91.7
			c-2.5,0-5.4,0.4-8.8,1.3c-20,5.2-18.9,20.4-15.7,38.2c2.9,15.8,13.9,27.5,24.5,26.2c12.2-1.5,17.2-11.7,16.1-33.2l0,0
			c-0.8-15.5-2.4-26-8.2-30.3C291.2,92.5,288.6,91.7,285.3,91.7z"/>
	</g>
	<g>
		<g>
			<path class="st7" d="M317.9,128.6c2.1,18,10.4,34.2,24.9,32.8c11.3-1.1,18.4-16.6,18-33.2c-0.4-17.4-3.3-33.4-24.4-33.9
				C315.5,93.7,314.7,101,317.9,128.6z"/>
		</g>
		<g>
			<path d="M318.6,128.5c0.5,3.8,1.2,7.5,2.3,11.1c1.1,3.6,2.5,7.1,4.4,10.3c1.9,3.2,4.3,6.1,7.4,8.1c3,2,6.7,2.8,10.3,2.4
				c1.8-0.2,3.4-0.8,5-1.7c1.5-0.9,2.9-2.1,4.1-3.5c2.4-2.8,4.1-6.1,5.3-9.6c1.2-3.5,2-7.2,2.4-10.9c0.2-1.9,0.3-3.7,0.3-5.6
				c0-1.9-0.1-3.8-0.1-5.7c-0.2-3.8-0.6-7.5-1.4-11.2c-0.9-3.6-2.3-7.2-4.6-10.1c-1.2-1.4-2.5-2.7-4.1-3.7c-1.5-1-3.3-1.8-5-2.4
				c-1.8-0.6-3.6-0.9-5.5-1.1c-1.9-0.2-3.8-0.2-5.7-0.2c-1.9,0-3.8,0.1-5.6,0.4c-1.9,0.3-3.7,0.7-5.3,1.6c-1.6,0.9-3,2.2-3.8,3.8
				c-0.9,1.6-1.3,3.5-1.5,5.3c-0.4,3.7-0.2,7.6,0.1,11.3C317.6,121,318.1,124.8,318.6,128.5z M317.3,128.7c-0.4-3.8-0.8-7.6-1-11.4
				c-0.2-3.8-0.4-7.7,0.1-11.5c0.3-1.9,0.8-3.8,1.7-5.6c0.9-1.8,2.4-3.2,4.1-4.1c1.7-0.9,3.7-1.4,5.6-1.7c1.9-0.3,3.8-0.4,5.8-0.5
				c1.9,0,3.8,0,5.8,0.2c1.9,0.2,3.8,0.5,5.7,1.1c1.9,0.6,3.7,1.4,5.3,2.4c1.7,1.1,3.1,2.4,4.4,3.9c2.5,3,4.1,6.7,5,10.5
				c1,3.8,1.4,7.6,1.7,11.4c0.1,1.9,0.2,3.8,0.3,5.8c0,1.9,0,3.9-0.2,5.8c-0.4,3.9-1.1,7.7-2.4,11.4c-1.3,3.7-3,7.3-5.6,10.3
				c-1.3,1.5-2.8,2.9-4.6,3.9c-1.7,1-3.7,1.7-5.8,2c-2,0.2-4,0.1-6-0.4c-2-0.5-3.8-1.3-5.5-2.4c-3.3-2.2-5.9-5.4-7.8-8.8
				c-1.9-3.4-3.3-7-4.4-10.8C318.4,136.3,317.7,132.5,317.3,128.7z"/>
		</g>
	</g>
	<g>
		<g>
			<path d="M323.3,126.4c2.5,18,11.3,37.4,24.8,31.8c7.9-3.3,17.7-15.3,18.2-31.5c0.7-22.9-3.3-33.4-24.4-33.9
				C320.9,92.2,319.6,99.7,323.3,126.4z"/>
		</g>
		<g>
			<path d="M324,126.3c0.5,3.7,1.3,7.4,2.4,11c1.1,3.6,2.4,7.1,4.1,10.4c0.9,1.6,1.8,3.2,3,4.7c1.1,1.4,2.4,2.8,3.8,3.8
				c1.4,1,3.1,1.8,4.8,2c1.7,0.3,3.4,0,5.1-0.6c1.6-0.6,3.2-1.6,4.6-2.7c1.5-1.1,2.8-2.3,4-3.7c1.2-1.4,2.4-2.8,3.4-4.3
				c1-1.5,1.9-3.2,2.7-4.8c1.6-3.3,2.7-6.9,3.4-10.6c0.3-1.8,0.5-3.7,0.6-5.6c0.1-1.9,0.1-3.8,0.1-5.7c0-1.9-0.1-3.8-0.3-5.6
				c-0.2-1.9-0.4-3.7-0.8-5.6c-0.4-1.8-1-3.6-1.8-5.3c-0.8-1.7-1.8-3.2-3.1-4.5c-1.3-1.3-2.8-2.4-4.5-3.2c-1.7-0.8-3.4-1.4-5.3-1.8
				c-3.6-0.8-7.4-1-11.2-1.1c-1.9,0-3.8,0.1-5.6,0.4c-1.8,0.3-3.7,0.7-5.3,1.6c-1.7,0.8-3.1,2.1-4,3.7c-0.9,1.6-1.4,3.4-1.7,5.2
				c-0.3,1.8-0.3,3.7-0.3,5.6c0,1.9,0.2,3.7,0.4,5.6C322.9,118.8,323.4,122.6,324,126.3z M322.7,126.5c-0.5-3.8-0.9-7.5-1.2-11.3
				c-0.1-1.9-0.2-3.8-0.2-5.7c0-1.9,0.1-3.8,0.4-5.7c0.3-1.9,0.9-3.8,1.9-5.5c1-1.7,2.6-3,4.3-3.8c1.7-0.8,3.6-1.3,5.5-1.6
				c1.9-0.3,3.8-0.4,5.7-0.5c3.8-0.1,7.6,0,11.4,0.9c1.9,0.4,3.7,1,5.5,1.9c1.7,0.9,3.3,2,4.7,3.4c1.3,1.4,2.4,3.1,3.2,4.8
				c0.8,1.8,1.4,3.6,1.8,5.5c0.8,3.7,1.1,7.5,1.2,11.3c0.1,1.9,0.1,3.8,0,5.7c0,1.9-0.1,3.8-0.4,5.7c-0.5,3.8-1.5,7.6-3,11.1
				c-1.5,3.6-3.6,6.9-6.1,9.8c-2.6,2.9-5.7,5.5-9.5,6.9c-1.9,0.7-4,1-6.1,0.6c-2-0.3-3.9-1.2-5.5-2.4c-1.6-1.2-3-2.7-4.1-4.2
				c-1.2-1.6-2.2-3.2-3.1-4.9c-1.8-3.4-3.1-7-4.1-10.7C323.9,134,323.2,130.3,322.7,126.5z"/>
		</g>
	</g>
	<g>
		<g>
			<path class="st8" d="M236,128.3c7-12.5,30.4-45.3,62.9-25.6c1.9-25.8-35.7-31.8-54.7-7.8c7.3,0.7,8,1.6,8,1.6
				S238.8,99.3,236,128.3z"/>
		</g>
		<g>
			<g>
				<path d="M236.1,127.9c0-0.1,0-0.2-0.1-0.3c0-0.1-0.1-0.1-0.1-0.1c0,0,0.1-0.1,0.1-0.2l0.1-0.3l0.6-1.1c0.4-0.7,0.8-1.4,1.2-2.1
					c0.8-1.4,1.7-2.7,2.6-4.1c1.8-2.7,3.8-5.2,6-7.6c4.3-4.8,9.3-9.1,15.1-12.2c2.9-1.5,6-2.7,9.2-3.5c3.2-0.7,6.5-1,9.8-0.8
					c3.3,0.2,6.5,1,9.6,2.1c3.1,1.1,5.9,2.7,8.6,4.5l0,0l-0.6,0.3c0.1-3-0.3-6-1.4-8.7c-0.5-1.4-1.2-2.7-2.1-3.9
					c-0.8-1.2-1.8-2.3-2.9-3.3c-2.2-1.9-4.8-3.4-7.5-4.4c-2.8-1-5.7-1.5-8.6-1.6c-5.9-0.2-11.9,1-17.3,3.5
					c-5.4,2.5-10.3,6.2-14.2,10.8l-0.3-0.7c1.4,0.1,2.8,0.1,4.1,0.3c0.7,0.1,1.4,0.1,2.1,0.3c0.4,0.1,0.7,0.1,1.1,0.2
					c0.2,0.1,0.4,0.1,0.6,0.2c0.1,0,0.2,0.1,0.3,0.1c0.1,0,0.1,0.1,0.2,0.1c0.1,0.1,0.1,0,0.3,0.2l0,0l1,1.1l-1.5,0.4
					c-0.2,0.1-0.6,0.2-0.9,0.3c-0.3,0.1-0.7,0.3-1,0.5c-0.6,0.3-1.3,0.8-1.8,1.2c-1.2,0.9-2.2,2-3.2,3.1c-1.9,2.3-3.4,5-4.6,7.9
					c-1.2,2.8-2.1,5.8-2.8,8.8c-0.3,1.5-0.6,3-0.9,4.6l-0.3,2.3c0,0.3-0.1,0.6-0.2,0.9C236.4,127.1,236.2,127.5,236.1,127.9z
					 M235.9,128.7c0-0.4-0.1-0.8-0.1-1.3c0-0.5,0-1,0-1.4l0-0.3l0-0.3l0.1-0.6l0.1-1.2c0.2-1.6,0.5-3.1,0.8-4.7
					c0.6-3.1,1.5-6.1,2.6-9.1c1.1-3,2.6-5.8,4.6-8.4c1-1.3,2.1-2.5,3.4-3.5c0.6-0.5,1.3-1,2-1.4c0.4-0.2,0.7-0.4,1.1-0.6
					c0.4-0.2,0.8-0.3,1.3-0.5l-0.5,1.5l0,0c0.2,0.2,0.1,0.1,0.1,0.1c0,0,0,0,0,0c0,0-0.1-0.1-0.2-0.1c-0.1-0.1-0.3-0.1-0.4-0.2
					c-0.3-0.1-0.6-0.2-0.9-0.3c-0.6-0.2-1.3-0.3-1.9-0.5c-1.3-0.3-2.7-0.5-4-0.7l-0.7-0.1l0.4-0.6c3.6-5,8.4-9.2,14-11.9
					c5.6-2.8,11.9-4.2,18.2-3.9c3.1,0.1,6.3,0.7,9.2,1.8c3,1.1,5.8,2.7,8.1,4.9c2.3,2.2,4.1,4.9,5.1,7.9c1,3,1.2,6.2,0.9,9.3
					l-0.1,0.6l-0.5-0.3l0,0c-5.6-3-11.7-5.2-17.9-5.5c-6.2-0.4-12.5,1.2-18,4.1c-2.8,1.4-5.4,3.2-7.9,5.2c-2.5,2-4.8,4.1-7,6.4
					c-2.2,2.3-4.2,4.8-6.1,7.3c-1,1.3-1.9,2.6-2.8,3.9c-0.4,0.7-0.9,1.3-1.3,2l-0.6,1l-0.3,0.6c-0.1,0.1-0.2,0.3-0.4,0.4
					C236.1,128.5,236,128.6,235.9,128.7z"/>
			</g>
		</g>
	</g>
	<g>
		<g>
			<path class="st8" d="M379.3,130.1c-6.5-12.8-28.5-46.5-61.7-28.2c-0.8-25.8,37-30.3,55-5.5c-7.3,0.4-8.1,1.2-8.1,1.2
				S377.7,101.1,379.3,130.1z"/>
		</g>
		<g>
			<g>
				<path d="M379.4,130.5c-0.1-0.1-0.2-0.1-0.4-0.3c-0.1-0.1-0.3-0.3-0.4-0.4l-0.3-0.6l-0.6-1c-0.4-0.7-0.8-1.4-1.2-2.1
					c-0.8-1.4-1.7-2.7-2.6-4c-1.8-2.6-3.7-5.2-5.8-7.6c-2.1-2.4-4.3-4.7-6.7-6.7c-2.4-2.1-4.9-3.9-7.7-5.5
					c-5.4-3.2-11.6-4.9-17.8-4.9c-6.3,0.1-12.4,1.9-18.1,4.8l0,0l-0.6,0.3l0-0.6c-0.2-3.1,0.2-6.3,1.3-9.2c1.1-3,3-5.7,5.4-7.7
					c2.4-2.1,5.3-3.6,8.3-4.6c3-1,6.2-1.4,9.3-1.4c6.3,0,12.5,1.7,18,4.7c5.5,3,10.1,7.4,13.5,12.5l0.4,0.6l-0.7,0.1
					c-1.4,0.2-2.7,0.3-4,0.6c-0.7,0.1-1.3,0.3-2,0.4c-0.3,0.1-0.6,0.2-0.9,0.3c-0.1,0.1-0.3,0.1-0.4,0.2c-0.1,0-0.1,0.1-0.2,0.1
					c0,0,0,0,0,0c0,0-0.1,0.1,0.1-0.1l0,0l-0.4-1.5c0.5,0.2,0.9,0.3,1.2,0.5c0.4,0.2,0.7,0.4,1.1,0.6c0.7,0.4,1.4,1,2,1.5
					c1.2,1.1,2.3,2.3,3.2,3.6c1.9,2.6,3.3,5.5,4.3,8.5c1,3,1.7,6.1,2.2,9.2c0.2,1.6,0.4,3.1,0.6,4.7l0.1,1.2l0,0.6l0,0.3l0,0.3
					c0,0.5,0,1,0,1.4C379.4,129.7,379.4,130.1,379.4,130.5z M379.1,129.7c-0.1-0.4-0.2-0.7-0.3-1.1c-0.1-0.3-0.2-0.6-0.2-0.9
					l-0.2-2.3c-0.2-1.5-0.4-3.1-0.7-4.6c-0.6-3-1.3-6-2.4-8.9c-1.1-2.9-2.5-5.6-4.3-8c-0.9-1.2-1.9-2.3-3.1-3.3
					c-0.6-0.5-1.2-0.9-1.8-1.3c-0.3-0.2-0.6-0.4-1-0.5c-0.3-0.1-0.7-0.3-0.9-0.4l-1.5-0.4l1.1-1.1l0,0c0.2-0.2,0.2-0.2,0.3-0.2
					c0.1,0,0.1-0.1,0.2-0.1c0.1,0,0.2-0.1,0.3-0.1c0.2-0.1,0.4-0.1,0.6-0.1c0.4-0.1,0.7-0.1,1.1-0.2c0.7-0.1,1.4-0.1,2.1-0.2
					c1.4-0.1,2.8-0.1,4.2-0.1l-0.3,0.7c-3.8-4.7-8.5-8.6-13.8-11.3c-5.3-2.7-11.2-4.2-17.1-4.2c-3,0-5.9,0.4-8.7,1.3
					c-2.8,0.9-5.5,2.2-7.7,4c-1.1,0.9-2.2,2-3,3.1c-0.9,1.2-1.6,2.4-2.2,3.8c-1.2,2.7-1.7,5.7-1.8,8.7l-0.6-0.3l0,0
					c2.8-1.7,5.7-3.1,8.8-4.1c3.1-1,6.4-1.7,9.7-1.7c3.3-0.1,6.6,0.3,9.8,1.2c3.2,0.9,6.2,2.2,9,3.9c5.7,3.3,10.5,7.9,14.6,12.9
					c2.1,2.5,4,5.1,5.7,7.9c0.9,1.4,1.7,2.8,2.5,4.2c0.4,0.7,0.8,1.4,1.1,2.1l0.5,1.1l0.1,0.3c0,0.1,0.1,0.2,0.1,0.2
					c0,0,0,0.1-0.1,0.1C379.2,129.5,379.2,129.6,379.1,129.7z"/>
			</g>
		</g>
	</g>
	<g>
		
			<ellipse transform="matrix(2.069970e-02 -0.9998 0.9998 2.069970e-02 170.2381 397.3733)" class="st7" cx="288" cy="111.8" rx="8.9" ry="6.2"/>
		<path d="M287.9,121.2c0,0-0.1,0-0.1,0c-3.7-0.1-6.6-4.4-6.5-9.5c0.1-5.2,3.2-9.3,6.9-9.3c3.7,0.1,6.6,4.4,6.5,9.5
			C294.6,117.1,291.5,121.2,287.9,121.2z M288,103.4c-3.1,0-5.7,3.7-5.8,8.3c-0.1,4.6,2.4,8.5,5.6,8.5c0,0,0.1,0,0.1,0
			c3.1,0,5.7-3.7,5.8-8.3C293.8,107.3,291.3,103.5,288,103.4C288.1,103.4,288.1,103.4,288,103.4z"/>
	</g>
	<g>
		
			<ellipse transform="matrix(2.069970e-02 -0.9998 0.9998 2.069970e-02 147.7455 405.6923)" class="st7" cx="281" cy="127.4" rx="4.5" ry="3.1"/>
		<path d="M280.9,132.1C280.9,132.1,280.9,132.1,280.9,132.1c-1.9,0-3.4-2.2-3.3-4.8c0-1.2,0.4-2.4,1-3.3c0.7-0.9,1.5-1.4,2.4-1.4
			c1.9,0,3.3,2.2,3.3,4.8C284.3,130.1,282.7,132.1,280.9,132.1z M281,123.2c-0.7,0-1.4,0.4-2,1.2c-0.6,0.8-0.9,1.8-0.9,3
			c0,2.3,1.2,4.2,2.8,4.3c0,0,0,0,0,0c1.6,0,2.9-1.8,2.9-4.1l0,0C283.9,125.2,282.6,123.3,281,123.2C281,123.2,281,123.2,281,123.2z
			"/>
	</g>
	<g>
		
			<ellipse transform="matrix(2.069970e-02 -0.9998 0.9998 2.069970e-02 230.3153 458.6974)" class="st7" cx="349.3" cy="111.8" rx="8.9" ry="6.2"/>
		<path d="M349.2,121.2c0,0-0.1,0-0.1,0c-3.7-0.1-6.6-4.4-6.5-9.5c0.1-2.5,0.8-4.8,2.1-6.5c1.3-1.8,3.1-2.8,4.9-2.7
			c3.7,0.1,6.6,4.4,6.5,9.5l0,0C355.9,117.1,352.9,121.2,349.2,121.2z M349.4,103.4c-1.5,0-2.9,0.8-4,2.3c-1.2,1.6-1.8,3.7-1.9,6
			c-0.1,4.6,2.4,8.5,5.6,8.5c0,0,0.1,0,0.1,0c3.1,0,5.7-3.7,5.8-8.3C355.1,107.3,352.6,103.5,349.4,103.4
			C349.4,103.4,349.4,103.4,349.4,103.4z"/>
	</g>
	<g>
		
			<ellipse transform="matrix(2.069970e-02 -0.9998 0.9998 2.069970e-02 207.8199 467.0094)" class="st7" cx="342.3" cy="127.4" rx="4.5" ry="3.1"/>
		<path d="M342.3,132.1C342.2,132.1,342.2,132.1,342.3,132.1c-1.9,0-3.4-2.2-3.3-4.8c0-1.2,0.4-2.4,1-3.3c0.7-0.9,1.5-1.4,2.4-1.4
			c1.9,0,3.3,2.2,3.3,4.8c0,1.2-0.4,2.4-1,3.3C344,131.7,343.1,132.1,342.3,132.1z M342.3,123.2c-0.7,0-1.4,0.4-2,1.2
			c-0.6,0.8-0.9,1.8-0.9,3c0,2.3,1.2,4.2,2.8,4.3c0.8,0,1.5-0.4,2-1.2c0.6-0.8,0.9-1.8,0.9-3l0,0C345.2,125.2,344,123.3,342.3,123.2
			C342.4,123.2,342.4,123.2,342.3,123.2z"/>
	</g>
	<g>
		<path class="st9" d="M307.7,185.7c-1.1,0-2.3,0.1-3.4,0.1c-2.8,0.1-3.8,1-7.3,2.4c-1.7,0.7-3.6,1.5-4.6,3.1
			c-2.9-1.1-4.5-4-6.8-6.1c-3.5-3.1-3.5-7-4.3-8.9c-1.1-2.6,0.7-0.5,1.1-3.1c0-0.3,0.1-0.7,0.4-0.8c0.2-0.1,0.4-0.1,0.6-0.1
			c3.2,0.4,5.4,3.1,8,4.9c0.9,0.6,2.2-0.5,3.1-0.1c1,0.4,2-0.6,2.9,0c1.9,1.2,4.8,1.2,7,1.3c2.7,0.1,5.4,0,8.1-0.2
			c2.2-0.2,3.1,0.4,5-0.7l10.6-4.8c1.2-0.7,2.7-0.7,3.7,0.2c0,0,0,0,0,0c0.2,0.2,0.3,0.5,0.3,0.8c0.2,3.3-1,6.6-3.2,9.1
			c-1.4,1.6-2.3,3.4-3.3,5.2c-0.6,1.2-2.7,3-4,2c-2.3-1.8-4.9-2.9-7.7-3.8C312.1,185.7,309.9,185.6,307.7,185.7z"/>
	</g>
	<g>
		<path class="st10" d="M307.8,195.5c-2.2-0.1-4.3-0.4-6.4-0.8c-2-0.4-3.9-1.1-5.9-1.7c-1.3-0.4-4.1-0.9-2.2-2.6
			c1.5-1.3,3.3-2.2,5.1-2.9c1.9-0.7,3.6-0.9,5.5-1.3c2.6-0.6,4.6-0.8,7.2-0.4c2.5,0.4,4.5,1.3,6.9,2.1c1.4,0.5,2.8,1,3.7,2.2
			c0.6,1-7.1,4.9-7.8,5.1c-0.7,0.2-1.4,0.2-2,0.3C310.6,195.6,309.2,195.6,307.8,195.5z"/>
	</g>
	<g>
		<path d="M281.5,173.8c0.8,2.8,2,5.5,3.6,7.8c1.6,2.3,3.7,4.4,6,6c2.3,1.6,4.9,2.9,7.6,3.8c2.7,0.9,5.5,1.4,8.4,1.5
			c2.8,0.1,5.7-0.2,8.4-0.9c2.7-0.7,5.3-2,7.6-3.6c2.3-1.7,4.3-3.8,5.8-6.3c1.5-2.4,2.6-5.2,3.4-8.1l0.5,0.1c-0.3,3-1.1,6-2.5,8.8
			c-1.4,2.8-3.3,5.3-5.8,7.3c-2.4,2-5.3,3.5-8.2,4.4c-3,0.9-6.1,1.3-9.3,1.2c-6.2-0.2-12.4-2.3-17.4-6.2c-2.5-1.9-4.6-4.3-6.2-7
			c-1.6-2.7-2.6-5.7-3-8.7L281.5,173.8z"/>
	</g>
	<g>
		<path d="M292.4,191.3c1.7-2.2,4.1-3.8,6.7-4.9c0.7-0.2,1.3-0.5,2-0.7l2-0.5l2.1-0.3c0.7,0,1.4-0.1,2.1-0.1c2.8,0,5.6,0.4,8.3,1.3
			c2.6,0.9,5.1,2.3,7.1,4.3l-0.2,0.3c-2.3-1.4-4.7-2.4-7.3-3.1c-2.5-0.6-5.2-0.9-7.8-0.8c-0.6,0.1-1.3,0.1-2,0.1l-1.9,0.2l-1.9,0.4
			c-0.6,0.2-1.2,0.4-1.9,0.5c-2.5,0.8-4.9,2-7,3.6L292.4,191.3z"/>
	</g>
	<g>
		<g>
			<path class="st11" d="M344.7,146.2c-20.6,0.2-31.7,7-38.4,7.1c-6.7,0.1-17.9-6.5-38.5-6.3c-20.6,0.2-23.2,15.1-48.8,19.9
				c30.8,19.7,48.1-0.9,62,7.2c13.8,8,37.5,7.8,51.2-0.5c13.7-8.3,39.5,21.4,63.9-5.6C368.9,165,365.3,146,344.7,146.2z"/>
		</g>
		<g>
			<path d="M344.7,147c-5.4,0.1-10.9,0.8-16.2,2c-2.6,0.6-5.3,1.3-7.9,2.1c-2.6,0.8-5.2,1.7-7.9,2.5c-1.3,0.4-2.7,0.8-4.2,1
				c-0.7,0.1-1.5,0.2-2.3,0.2c-0.8,0-1.5-0.1-2.3-0.2c-2.9-0.5-5.5-1.3-8.2-2.1c-5.3-1.5-10.5-2.8-15.9-3.5
				c-2.7-0.4-5.4-0.6-8.1-0.7c-1.4-0.1-2.7-0.1-4.1-0.1l-2,0.1c-0.7,0.1-1.3,0.1-2,0.2c-2.6,0.3-5.2,0.8-7.7,1.8
				c-2.5,0.9-4.8,2.2-7.1,3.6c-2.3,1.4-4.6,3-6.9,4.5c-2.3,1.5-4.8,2.9-7.3,4.1c-5,2.4-10.4,4-15.9,4.9l0,0l0.2-0.8
				c3.3,2,6.7,3.7,10.3,5.1c3.6,1.4,7.3,2.3,11.1,2.8c3.8,0.5,7.6,0.4,11.4,0c3.8-0.4,7.5-1.3,11.3-2.1c3.8-0.8,7.7-1.7,11.9-1.4
				c2.1,0.2,4.2,0.8,6,1.8l1.3,0.7c0.4,0.2,0.8,0.4,1.3,0.6c0.4,0.2,0.9,0.4,1.3,0.6c0.4,0.2,0.9,0.4,1.3,0.5
				c3.5,1.4,7.2,2.3,10.9,2.8c3.8,0.5,7.6,0.7,11.4,0.5c3.8-0.2,7.6-0.6,11.3-1.5c3.7-0.9,7.3-2.1,10.5-3.9l1.3-0.7
				c0.5-0.3,1-0.5,1.5-0.7c1-0.4,2.1-0.6,3.1-0.7c2.1-0.2,4.2,0,6.2,0.4c3.9,0.8,7.6,2.2,11.3,3.4c3.7,1.2,7.3,2.4,11.1,3.1
				c3.7,0.7,7.5,1,11.3,0.6c3.7-0.4,7.4-1.7,10.7-3.6c3.3-1.9,6.2-4.4,8.9-7.2l0,0l0.3,0.7c-2.4-0.3-4.7-0.6-7-1.2
				c-2.3-0.6-4.6-1.3-6.8-2.2c-4.4-1.8-8.5-4.3-12.4-7.1c-3.9-2.8-7.6-5.7-11.7-7.8c-2.1-1.1-4.2-1.9-6.5-2.4
				C349.3,147.1,347,146.9,344.7,147z M344.7,145.3c2.4,0,4.9,0.3,7.2,0.9c2.4,0.6,4.6,1.5,6.7,2.6c4.3,2.3,7.9,5.4,11.7,8.1
				c3.8,2.8,7.8,5.3,12.1,7.1c2.2,0.9,4.4,1.6,6.7,2.2c2.3,0.5,4.6,0.9,6.9,1.2l0.9,0.1l-0.6,0.6l0,0c-2.6,3-5.5,5.7-8.9,7.7
				c-3.4,2.1-7.2,3.5-11.1,4.1c-4,0.6-8,0.4-11.9-0.3c-3.9-0.7-7.7-1.8-11.4-3c-3.7-1.2-7.4-2.4-11.1-3.1c-1.8-0.3-3.7-0.5-5.4-0.3
				c-0.9,0.1-1.7,0.3-2.5,0.6c-0.4,0.2-0.8,0.3-1.1,0.6l-1.3,0.7c-3.5,2-7.3,3.4-11.2,4.3c-3.9,0.9-7.8,1.5-11.8,1.6
				c-4,0.2-7.9,0-11.9-0.6c-3.9-0.6-7.8-1.5-11.5-3c-0.5-0.2-0.9-0.4-1.4-0.6c-0.5-0.2-0.9-0.4-1.4-0.6c-0.4-0.2-0.9-0.4-1.3-0.7
				l-1.3-0.7c-1.5-0.9-3.2-1.4-5-1.5c-1.8-0.2-3.6-0.1-5.5,0.2c-1.9,0.2-3.8,0.6-5.6,1c-3.8,0.8-7.7,1.5-11.6,1.9
				c-3.9,0.4-7.9,0.3-11.8-0.3c-3.9-0.6-7.7-1.8-11.3-3.3c-3.6-1.5-7-3.5-10.3-5.7l-0.9-0.6l1.1-0.2l0,0c5.3-1.2,10.5-2.9,15.3-5.4
				c2.4-1.3,4.7-2.7,7-4.2c2.3-1.5,4.5-3.1,6.8-4.7c2.3-1.5,4.8-3,7.4-4c2.6-1.1,5.4-1.8,8.3-2.1c0.7-0.1,1.4-0.1,2.1-0.2l2.1-0.1
				c1.4,0,2.8,0,4.2,0c2.8,0.1,5.6,0.3,8.3,0.6c5.5,0.7,11,2,16.3,3.4c2.6,0.7,5.3,1.5,7.8,1.9c1.3,0.2,2.4,0.2,3.6-0.1
				c1.3-0.2,2.5-0.5,3.8-0.9c5.2-1.5,10.6-3.1,16.1-4C333.6,145.8,339.1,145.3,344.7,145.3z"/>
		</g>
	</g>
	<g class="st0">
		<path class="st1" d="M317.1,102.6c4.6-1.2,37.9-10.9,59.7,32.5c0.1-9.8-0.7-11-5.1-16.4c-4.4-5.4-9.5-13.8-18.7-17.7
			c-9.2-3.9-16.4-5-23.1-3.6C320.7,99.2,317.1,102.6,317.1,102.6z"/>
	</g>
	<g class="st0">
		<path class="st1" d="M298.9,102.7c-6.5-3.9-37.4-9.9-61.1,34.9c-0.3-8.9,0.1-13.1,3.7-17.7c3.6-4.6,10.5-13.4,21.2-19.3
			c7.1-3.8,12.1-5.1,20.2-3.8C290.9,98.1,298.9,102.7,298.9,102.7z"/>
	</g>
	<g class="st0">
		<path class="st1" d="M242.1,178.4c0.3,3.3,9.6,1,12,0.9c4-0.2,8-0.5,11.9-1.3c8.8-1.8,11.6-1.2,16.5,1c-1.1-2.6,0-5.6,0-5.6
			s-5.2-2.1-11-1.2c-5.9,0.9-11.9,3.9-18.1,3.5c-2.2-0.1-9.6-0.1-12.2-0.3C241.1,175.5,242.1,178.2,242.1,178.4z"/>
	</g>
	<g class="st0">
		<path class="st1" d="M331.8,177.9c5.4-1.5,8-3.3,12.1-1c7.8,4.4,24.2,7.7,26.2,7.8c2,0.1,1.7-4.7,1.7-4.7s-7-0.7-15.3-3.4
			c-8.4-2.7-16.5-5.3-19.5-4.6c-3.1,0.6-4.8,1.5-4.8,1.5S332.6,176.3,331.8,177.9z"/>
	</g>
	<g class="st0">
		<path class="st1" d="M296.8,191.6c1.7-1.9,19.4-2.4,23-0.3c2.4-0.8,2.4-0.8,2.4-0.8s-2.2-3.2-9.4-3.8c-7.1-0.6-13.1-0.4-19.4,3.7
			C294.5,191.4,296.8,191.6,296.8,191.6z"/>
	</g>
	<g>
		<g>
			<path class="st2" d="M294.1,209.9c5,6.4-17.7,22.2-28.2,17.9c-8.8-3.6-31.9-17.8-40.8-29.9c-11-14.8,33.7-56.8,41.6-38.5
				C276.7,182.4,282.1,194.3,294.1,209.9z"/>
		</g>
		<g>
			<path d="M295.5,208.8c0.5,0.6,0.9,1.5,1,2.3c0.1,0.8,0.1,1.6-0.1,2.3c-0.3,1.4-1,2.6-1.7,3.6c-1.4,2.1-3.2,3.8-5,5.3
				c-1.8,1.5-3.8,2.8-5.9,4c-2.1,1.2-4.2,2.2-6.5,2.9c-2.3,0.7-4.7,1.3-7.3,1.2c-1.3,0-2.6-0.2-3.9-0.6c-0.3-0.1-0.7-0.2-1-0.4
				l-0.8-0.4c-0.5-0.2-1.1-0.5-1.6-0.8c-4.2-2.1-8.1-4.4-11.9-6.9c-3.8-2.5-7.6-5.1-11.2-7.9c-3.6-2.8-7.1-5.8-10.3-9
				c-1.6-1.6-3.2-3.4-4.6-5.2l-0.5-0.7c-0.2-0.3-0.4-0.5-0.5-0.8c-0.3-0.6-0.6-1.2-0.8-1.8c-0.4-1.2-0.6-2.5-0.6-3.8
				c0-2.5,0.6-4.8,1.5-7c0.9-2.2,1.9-4.3,3.2-6.2c2.4-3.9,5.3-7.5,8.5-10.8c3.2-3.3,6.7-6.3,10.5-8.9c1.9-1.3,3.9-2.5,6-3.4
				c2.1-1,4.3-1.8,6.7-2c1.2-0.1,2.4-0.1,3.7,0.2c1.2,0.3,2.4,0.9,3.4,1.8c0.9,0.9,1.6,2,2.1,3.1l1.4,3.1c1.8,4.1,3.7,8.2,5.6,12.3
				c1.9,4.1,3.9,8.1,6,12.1c2.1,3.9,4.4,7.8,6.9,11.5C290,201.8,292.7,205.3,295.5,208.8z M292.8,210.9c-2.8-3.6-5.4-7.4-7.8-11.2
				c-2.4-3.9-4.7-7.9-6.7-11.9c-2-4.1-3.9-8.2-5.7-12.3c-1.8-4.1-3.6-8.3-5.3-12.5l-1.3-3.1c-0.4-1-0.9-1.8-1.6-2.5
				c-1.4-1.4-3.5-1.8-5.6-1.6c-2.1,0.2-4.2,1-6.2,1.9c-2,0.9-3.9,2.1-5.7,3.3c-3.7,2.5-7,5.5-10.1,8.7c-3,3.2-5.8,6.8-8.1,10.6
				c-1.1,1.9-2.1,3.9-2.8,5.9c-0.7,2-1.2,4.1-1.1,6.2c0,1,0.2,2,0.5,2.9c0.2,0.4,0.4,0.9,0.6,1.3c0.1,0.2,0.3,0.4,0.4,0.6l0.5,0.6
				c1.4,1.7,2.9,3.3,4.5,4.8c3.2,3,6.7,5.8,10.3,8.4c3.6,2.6,7.4,5.1,11.2,7.4c1.9,1.2,3.8,2.3,5.8,3.4c1.9,1.1,3.9,2.1,5.9,3.1
				c0.5,0.2,1,0.5,1.5,0.7l0.7,0.3c0.2,0.1,0.4,0.2,0.6,0.2c0.8,0.3,1.8,0.4,2.7,0.4c1.9,0,4-0.4,6-1.1c4-1.3,7.9-3.3,11.3-5.9
				c1.7-1.3,3.3-2.7,4.5-4.3c0.6-0.8,1.1-1.6,1.3-2.4c0.1-0.4,0.1-0.7,0.1-1C293.1,211.4,293,211.1,292.8,210.9z"/>
		</g>
	</g>
	<g>
		<g>
			<path class="st2" d="M320.2,209.9c-5,6.4,17.7,22.2,28.2,17.9c8.8-3.6,31.9-17.8,40.8-29.9c11-14.8-33.7-56.8-41.6-38.5
				C337.6,182.4,332.3,194.3,320.2,209.9z"/>
		</g>
		<g>
			<path d="M321.5,210.9c-0.2,0.3-0.3,0.5-0.3,0.8c0,0.3,0,0.6,0.1,1c0.2,0.8,0.7,1.6,1.3,2.4c1.2,1.6,2.8,3.1,4.5,4.3
				c3.4,2.6,7.3,4.6,11.3,5.9c2,0.6,4,1.1,6,1.1c1,0,1.9-0.1,2.7-0.4c0.2-0.1,0.4-0.1,0.6-0.2l0.7-0.3c0.5-0.2,1-0.4,1.5-0.7
				c2-0.9,3.9-2,5.9-3.1c1.9-1.1,3.9-2.2,5.8-3.4c3.8-2.3,7.5-4.8,11.2-7.4c3.6-2.6,7.1-5.4,10.3-8.4c1.6-1.5,3.1-3.1,4.5-4.8
				l0.5-0.6c0.2-0.2,0.3-0.4,0.4-0.6c0.3-0.4,0.5-0.8,0.6-1.3c0.3-0.9,0.5-1.9,0.5-2.9c0.1-2-0.4-4.1-1.1-6.2c-0.7-2-1.7-4-2.8-5.9
				c-2.2-3.8-5-7.3-8.1-10.6c-3.1-3.2-6.4-6.2-10.1-8.7c-1.8-1.3-3.7-2.4-5.7-3.3c-2-0.9-4.1-1.7-6.2-1.9c-2.1-0.2-4.2,0.2-5.6,1.6
				c-0.7,0.7-1.2,1.5-1.6,2.5l-1.3,3.1c-1.8,4.2-3.5,8.3-5.3,12.5c-1.8,4.1-3.7,8.3-5.7,12.3c-2,4.1-4.3,8.1-6.7,11.9
				C326.9,203.5,324.3,207.2,321.5,210.9z M318.9,208.8c2.8-3.5,5.4-7.1,7.9-10.8c2.5-3.7,4.7-7.6,6.9-11.5c2.1-3.9,4.1-8,6-12.1
				c1.9-4.1,3.7-8.2,5.6-12.3l1.4-3.1c0.5-1.1,1.2-2.2,2.1-3.1c0.9-0.9,2.1-1.5,3.4-1.8c1.2-0.3,2.5-0.3,3.7-0.2
				c2.4,0.3,4.6,1.1,6.7,2c2.1,1,4.1,2.2,6,3.4c3.8,2.6,7.3,5.6,10.5,8.9c3.2,3.3,6.1,6.8,8.5,10.8c1.2,2,2.3,4,3.2,6.2
				c0.8,2.2,1.5,4.5,1.5,7c0,1.2-0.2,2.5-0.6,3.8c-0.2,0.6-0.5,1.2-0.8,1.8c-0.2,0.3-0.4,0.6-0.5,0.8l-0.5,0.7
				c-1.4,1.9-3,3.6-4.6,5.2c-3.2,3.3-6.7,6.2-10.3,9c-3.6,2.8-7.3,5.4-11.2,7.9c-3.8,2.5-7.8,4.8-11.9,6.9c-0.5,0.3-1.1,0.5-1.6,0.8
				l-0.8,0.4c-0.3,0.1-0.6,0.3-1,0.4c-1.3,0.4-2.7,0.6-3.9,0.6c-2.6,0-5-0.5-7.3-1.2c-2.3-0.7-4.5-1.8-6.5-2.9s-4-2.5-5.9-4
				c-1.8-1.5-3.6-3.2-5-5.3c-0.7-1.1-1.4-2.2-1.7-3.6c-0.2-0.7-0.2-1.5-0.1-2.3C318,210.3,318.4,209.5,318.9,208.8z"/>
		</g>
	</g>
	<g class="st0">
		<path class="st1" d="M398.6,62c0.5,0.5,14.4,18.7,13.5,24.6c-1.2,8.2-23.1,34.2-23.1,34.2l-1.7,14.3l-3.7-4l0.1,12.6
			c0,0,12.5-21.8,14.7-24.9c2.2-3.1,29.3-29.6,29.3-29.6L398.6,62z"/>
	</g>
	<g class="st0">
		<path class="st1" d="M224.7,194.9c-3.2,4.9-6.5,17.5-10.1,18.3c-5.8,1.3-9.9-5.6-17.7-2.3c-7.8,3.3-19.9,6.3-22.1,6.2
			c3.3,1.5,5.7,1.6,6.6,1.7c0.9,0.2,13.6-2.4,20.2-2.9c3.4-0.3,16.9,3.6,16.9,3.6s2.5-5.3,4.2-7.4c1.8-2.1,7.7-8.7,7.7-8.7
			L224.7,194.9z"/>
	</g>
	<g class="st0">
		<path class="st1" d="M242.5,211.9c3.6,2.1,18.8,8.1,25.3,8.5c7.7,0.5,20.6-4.5,24.8-11.8c0,0,2.8,2.9,2,5
			c-0.9,2.1-5.3,8.3-9.5,10.4c-4.2,2.1-15.3,6.5-19.4,4.5C261.6,226.6,242.5,211.9,242.5,211.9z"/>
	</g>
	<g class="st0">
		<path class="st1" d="M372.5,211.4c-3.6,2.1-18.8,8.1-25.3,8.5c-7.7,0.5-20.6-4.5-24.8-11.8c0,0-2.8,2.9-2,5
			c0.9,2.1,5.3,8.3,9.5,10.4c4.2,2.1,15.3,6.5,19.4,4.5C353.3,226.1,372.5,211.4,372.5,211.4z"/>
	</g>
	<g>
		<g>
			<path class="st12" d="M375,40.5c0,0-0.6-16.8-1-24.8c-0.3-6.6-0.4-6.5,6.2-6.8c6.7-0.3,24.8-1,24.8-1l20.7,19.5l-29.6,32.4
				L375,40.5z"/>
		</g>
		<g>
			<path d="M374.7,40.6c-0.4-5-0.7-10.2-1-15.4c-0.1-2.6-0.2-5.2-0.3-7.8l-0.2-3.9c0-0.6,0-1.3,0-2c0-0.2,0-0.3,0.1-0.5l0.1-0.5
				c0.1-0.2,0.1-0.4,0.2-0.6c0.1-0.2,0.2-0.4,0.4-0.5c0.3-0.3,0.7-0.5,1-0.6c0.2-0.1,0.4-0.1,0.5-0.2l0.5-0.1c0.7-0.1,1.3-0.2,2-0.2
				c1.3-0.1,2.6-0.1,3.9-0.2l7.7-0.3c5.1-0.2,10.3-0.3,15.4-0.4l0,0l0.1,0l0.1,0.1L426,27.1l0.2,0.2l-0.2,0.2L396.4,60l-0.2,0.2
				L396,60L374.7,40.6z M375.3,40.4l21.1,19.2l-0.4,0l29.6-32.4l0,0.4L404.9,8l0.2,0.1l0,0C400,8.4,394.8,8.7,389.7,9L382,9.3
				l-3.8,0.2c-0.6,0-1.3,0.1-1.9,0.2c-0.6,0.1-1.1,0.3-1.4,0.6c-0.3,0.3-0.4,0.8-0.4,1.4c0,0.6,0,1.2,0,1.9l0.2,3.8
				c0.1,2.5,0.2,5.1,0.3,7.6C375.2,30.1,375.3,35.2,375.3,40.4z"/>
		</g>
	</g>
	<g>
		<g>
			<g>
				<path class="st13" d="M377.4,19.1c0.9-1-0.2-4.4,1.1-5.8c1.4-1.5,4.8-0.5,5.7-1.5c0.4-0.4,0.1-1.9-0.2-3.2
					c-1.5,0.1-2.8,0.1-3.8,0.2c-6.7,0.3-6.6,0.2-6.2,6.8c0.1,1.1,0.1,2.4,0.2,3.8C375.5,19.5,377,19.5,377.4,19.1z"/>
			</g>
			<g>
				<path d="M377.2,18.9c0.3-0.3,0.3-1,0.3-1.6c0-0.6,0-1.3,0-1.9c0.1-0.6,0.1-1.3,0.5-2c0.4-0.6,1.1-1,1.8-1.1
					c0.7-0.1,1.3-0.2,1.9-0.2c0.6,0,1.3,0,1.8-0.2c0.1-0.1,0.2-0.1,0.3-0.2c0.1,0,0.1-0.1,0.1-0.1c0,0,0-0.1,0.1-0.1
					c0.1-0.2,0-0.6,0-0.9c-0.1-0.6-0.2-1.2-0.3-1.8v0L384,9c-1.6,0.1-3.2,0.2-4.8,0.3c-0.8,0.1-1.6,0.1-2.4,0.2
					c-0.8,0.1-1.6,0.2-2,0.7c-0.4,0.4-0.5,1.2-0.5,2c0,0.8,0,1.6,0,2.4c0.1,1.6,0.1,3.2,0.1,4.8l-0.3-0.3l0,0c0.5,0,1.1,0.1,1.6,0.1
					c0.3,0,0.5,0,0.8-0.1C376.8,19.1,377.1,19,377.2,18.9z M377.6,19.3c-0.3,0.3-0.6,0.3-0.9,0.4c-0.3,0-0.6,0.1-0.9,0.1
					c-0.6,0-1.1,0-1.7-0.1l0,0l-0.3,0l0-0.3c-0.1-1.6-0.2-3.2-0.3-4.8c-0.1-0.8-0.1-1.6-0.1-2.5c0-0.2,0-0.4,0-0.6
					c0-0.2,0-0.4,0.1-0.6c0.1-0.4,0.3-0.9,0.6-1.3c0.2-0.2,0.4-0.3,0.6-0.4c0.2-0.1,0.4-0.2,0.6-0.2c0.4-0.1,0.8-0.2,1.3-0.2
					c0.8-0.1,1.6-0.1,2.4-0.2c1.6-0.1,3.2-0.1,4.8-0.1l0.3,0l0,0.2v0c0.1,0.6,0.3,1.3,0.3,1.9c0,0.3,0,0.7,0,1
					c0,0.1-0.1,0.2-0.1,0.3c-0.1,0.1-0.1,0.2-0.2,0.3c-0.2,0.1-0.3,0.2-0.5,0.3c-0.7,0.2-1.3,0.2-2,0.2c-0.6,0-1.3,0.1-1.8,0.2
					c-0.6,0.1-1.1,0.4-1.4,0.8c-0.3,0.4-0.4,1.1-0.4,1.7c0,0.6,0,1.2,0,1.9c0,0.3,0,0.6-0.1,1C378,18.6,377.9,19,377.6,19.3z"/>
			</g>
		</g>
	</g>
	<g>
		<g>
			<path class="st14" d="M445,104.6l-15.1-13.9c-2.4-2.2-2.6-6.1-0.4-8.5l21.8-23.7c2.2-2.4,6.1-2.6,8.5-0.4L475,72
				c2.4,2.2,2.6,6.1,0.4,8.5l-21.8,23.7C451.3,106.7,447.5,106.9,445,104.6z"/>
		</g>
		<g>
			<path d="M444.7,105l-13.1-12.2l-1.6-1.5c-0.6-0.5-1.1-1.1-1.5-1.8c-0.8-1.4-1-3.1-0.7-4.6c0.2-0.8,0.5-1.5,0.9-2.2
				c0.5-0.7,1-1.2,1.5-1.7l3.1-3.3l12.2-13.2c2-2.2,4-4.4,6.1-6.6c1.1-1.1,2.7-1.6,4.3-1.6c1.6,0,3.1,0.6,4.3,1.6L473.3,70l1.7,1.5
				c0.6,0.5,1.1,1.1,1.5,1.8c0.8,1.4,1.1,3,0.7,4.6c-0.2,0.8-0.5,1.5-0.9,2.2c-0.1,0.2-0.2,0.3-0.3,0.5c-0.1,0.2-0.3,0.3-0.4,0.5
				l-0.7,0.8l-3,3.4c-2,2.2-4,4.4-6,6.6c-2,2.2-4,4.4-6.1,6.6l-3.1,3.3l-1.5,1.6l-0.8,0.8l-0.4,0.4l-0.4,0.4
				c-1.2,1.1-2.8,1.7-4.5,1.7C447.5,106.7,445.9,106.1,444.7,105z M445.4,104.3c1,0.9,2.4,1.4,3.8,1.4c1.4,0,2.7-0.5,3.7-1.5
				l0.4-0.4l0.4-0.4l0.8-0.8l1.5-1.7l3-3.3c2-2.2,4-4.4,6.1-6.6c2-2.2,4.1-4.4,6.1-6.6l3.1-3.2c0.5-0.5,1.1-1.1,1.5-1.6
				c0.4-0.6,0.7-1.2,0.9-1.9c0.3-1.4,0.1-2.9-0.6-4.1c-0.3-0.6-0.8-1.2-1.4-1.7l-1.6-1.5l-13.2-12.2c-1.1-1-2.5-1.5-3.9-1.5
				c-1.4,0-2.9,0.5-3.9,1.5c-2,2.1-4,4.4-6.1,6.6l-12.1,13.2l-3,3.3c-0.5,0.6-1,1.1-1.4,1.7c-0.4,0.6-0.7,1.2-0.8,1.9
				c-0.3,1.4-0.1,2.9,0.6,4.1c0.4,0.6,0.8,1.1,1.4,1.6l1.7,1.5L445.4,104.3z"/>
		</g>
	</g>
	<g>
		<path class="st15" d="M405.4,8.4c-3.4-3.1,6,14.1,3.8,16.5c-2.2,2.4-13.7-3.1-17.1,0.6c-3.1,3.4,2.8,14.6,0.6,17
			c-2.2,2.4-19.4-4-17-1.8c2.6,2.4,42.9,39.5,42.9,39.5l6.7-7.3l0.4-0.4l15.9-17.3l0.3-0.4l6.4-6.9C448.3,47.9,409.1,11.9,405.4,8.4
			z"/>
	</g>
	<g class="st16">
		<polygon class="st7" points="447.9,48.1 441.3,55.1 409.6,25.2 404.8,7.8 		"/>
	</g>
	<g>
		<rect x="425.2" y="17.9" transform="matrix(0.6774 -0.7356 0.7356 0.6774 107.723 325.9166)" width="0.6" height="44.5"/>
	</g>
	<g>
		<rect x="408.8" y="35.5" transform="matrix(0.6775 -0.7355 0.7355 0.6775 89.4459 319.5565)" width="0.6" height="44.6"/>
	</g>
	<g>
		<g>
			
				<rect x="420.8" y="60.9" transform="matrix(0.6774 -0.7356 0.7356 0.6774 89.381 349.3505)" class="st17" width="44.4" height="23.8"/>
		</g>
		<g>
			<path d="M436.7,97.4l-17.9-16l-0.4-0.4l0.4-0.4L448.9,48l0.3-0.4l0.4,0.3L467,64.3l0.2,0.2l-0.2,0.2L436.7,97.4z M436.7,96.8
				l29.8-32.5l0,0.4l-17.6-16l0.7,0l-30,32.7l0-0.8L436.7,96.8z"/>
		</g>
	</g>
	<g>
		<g>
			<g>
				<polygon class="st17" points="419.8,58.1 424.5,62.5 429.9,61.4 430.6,55.9 425.9,51.5 420.4,52.6 				"/>
			</g>
			<g>
				<path d="M420,58.1l4.7,4.3l-0.2-0.1l5.4-1.4l-0.4,0.5l1-5.5l0.1,0.2l-4.7-4.4l0.2,0.1l-5.4,1.4l0.5-0.5L420,58.1z M419.5,58.2
					l0.4-5.7l0-0.4l0.4-0.1l5.5-0.8l0.1,0l0.1,0.1l4.7,4.4l0.1,0.1l0,0.1l-0.4,5.5l0,0.4l-0.4,0.1l-5.5,0.9l-0.1,0l-0.1-0.1
					L419.5,58.2z"/>
			</g>
		</g>
		<g>
			<g>
				<path class="st7" d="M421.4,56.3l2.7-3l0.8,0.7l0.5,3c0.2,0.8,0.4,1.3,0.7,1.6c0.2,0.2,0.4,0.3,0.6,0.4c0.2,0,0.4,0,0.5-0.2
					c0.1-0.1,0.2-0.3,0.1-0.6c-0.1-0.2-0.2-0.5-0.5-0.7l0.9-1c0.3,0.3,0.6,0.6,0.7,1c0.2,0.4,0.2,0.8,0.1,1.1s-0.2,0.7-0.5,1
					c-0.4,0.5-0.9,0.7-1.4,0.7c-0.5,0-1-0.2-1.5-0.7c-0.2-0.2-0.4-0.4-0.5-0.7c-0.1-0.2-0.3-0.5-0.3-0.9c-0.1-0.3-0.2-0.8-0.3-1.4
					l-0.3-1.3l-1.5,1.7L421.4,56.3z"/>
			</g>
		</g>
	</g>
	<g class="st16">
		
			<rect x="449.4" y="48.8" transform="matrix(0.6834 -0.7301 0.7301 0.6834 98.409 349.7805)" class="st7" width="6.1" height="25.2"/>
	</g>
	<g>
		
			<rect x="415" y="66.5" transform="matrix(0.6774 -0.7356 0.7356 0.6774 91.3583 343.4707)" class="st15" width="44.7" height="2.1"/>
		<path d="M423,84.9l-1.8-1.6l0.1-0.1l30.4-33l1.8,1.6l-0.1,0.1L423,84.9z M421.6,83.3l1.3,1.2L453,51.9l-1.3-1.2L421.6,83.3z"/>
	</g>
	<g>
		
			<rect x="426.4" y="77" transform="matrix(0.6774 -0.7356 0.7356 0.6774 87.3122 355.2431)" class="st15" width="44.7" height="2.1"/>
		<path d="M434.4,95.4l-1.8-1.6l0.1-0.1l30.4-33l1.8,1.6l-0.1,0.1L434.4,95.4z M433,93.8l1.3,1.2l30.1-32.6l-1.3-1.2L433,93.8z"/>
	</g>
	<g>
		<path d="M452.4,55.4c0.7,0.4,1.4,0.9,2.1,1.4c0.7,0.5,1.3,1.1,1.9,1.6c0.6,0.6,1.2,1.2,1.8,1.8c0.6,0.6,1.1,1.3,1.6,2
			c-0.7-0.4-1.4-0.9-2.1-1.4c-0.7-0.5-1.3-1.1-1.9-1.6c-0.6-0.6-1.2-1.1-1.8-1.8C453.5,56.8,452.9,56.1,452.4,55.4z"/>
	</g>
	<g>
		<path d="M426.4,83.7c0.7,0.4,1.4,0.9,2.1,1.4c0.7,0.5,1.3,1.1,1.9,1.6c0.6,0.6,1.2,1.2,1.8,1.8c0.6,0.6,1.1,1.3,1.6,2
			c-0.7-0.4-1.4-0.9-2.1-1.4c-0.7-0.5-1.3-1.1-1.9-1.6c-0.6-0.6-1.2-1.1-1.8-1.8C427.4,85.1,426.9,84.4,426.4,83.7z"/>
	</g>
	<g>
		<path d="M449.2,59c0.7,0.4,1.4,0.9,2.1,1.4c0.7,0.5,1.3,1.1,1.9,1.6c0.6,0.6,1.2,1.2,1.8,1.8c0.6,0.6,1.1,1.3,1.6,2
			c-0.7-0.4-1.4-0.9-2.1-1.4c-0.7-0.5-1.3-1.1-1.9-1.6c-0.6-0.6-1.2-1.1-1.8-1.8C450.2,60.3,449.7,59.7,449.2,59z"/>
	</g>
	<g>
		<path d="M445.9,62.5c0.7,0.4,1.4,0.9,2.1,1.4c0.7,0.5,1.3,1.1,1.9,1.6c0.6,0.6,1.2,1.2,1.8,1.8c0.6,0.6,1.1,1.3,1.6,2
			c-0.7-0.4-1.4-0.9-2.1-1.4c-0.7-0.5-1.3-1.1-1.9-1.6c-0.6-0.6-1.2-1.1-1.8-1.8C446.9,63.9,446.4,63.2,445.9,62.5z"/>
	</g>
	<g>
		<path d="M442.7,66c0.7,0.4,1.4,0.9,2.1,1.4c0.7,0.5,1.3,1.1,1.9,1.6c0.6,0.6,1.2,1.2,1.8,1.8c0.6,0.6,1.1,1.3,1.6,2
			c-0.7-0.4-1.4-0.9-2.1-1.4c-0.7-0.5-1.3-1.1-1.9-1.6c-0.6-0.6-1.2-1.1-1.8-1.8C443.7,67.4,443.1,66.7,442.7,66z"/>
	</g>
	<g>
		<path d="M439.4,69.6c0.7,0.4,1.4,0.9,2.1,1.4c0.7,0.5,1.3,1.1,1.9,1.6c0.6,0.6,1.2,1.2,1.8,1.8c0.6,0.6,1.1,1.3,1.6,2
			c-0.7-0.4-1.4-0.9-2.1-1.4c-0.7-0.5-1.3-1.1-1.9-1.6c-0.6-0.6-1.2-1.1-1.8-1.8C440.4,70.9,439.9,70.3,439.4,69.6z"/>
	</g>
	<g>
		<path d="M436.1,73.1c0.7,0.4,1.4,0.9,2.1,1.4c0.7,0.5,1.3,1.1,1.9,1.6c0.6,0.6,1.2,1.2,1.8,1.8c0.6,0.6,1.1,1.3,1.6,2
			c-0.7-0.4-1.4-0.9-2.1-1.4c-0.7-0.5-1.3-1.1-1.9-1.6c-0.6-0.6-1.2-1.1-1.8-1.8C437.2,74.5,436.6,73.8,436.1,73.1z"/>
	</g>
	<g>
		<path d="M432.9,76.7c0.7,0.4,1.4,0.9,2.1,1.4c0.7,0.5,1.3,1.1,1.9,1.6c0.6,0.6,1.2,1.2,1.8,1.8c0.6,0.6,1.1,1.3,1.6,2
			c-0.7-0.4-1.4-0.9-2.1-1.4c-0.7-0.5-1.3-1.1-1.9-1.6c-0.6-0.6-1.2-1.1-1.8-1.8C433.9,78,433.4,77.4,432.9,76.7z"/>
	</g>
	<g>
		<path d="M429.6,80.2c0.7,0.4,1.4,0.9,2.1,1.4c0.7,0.5,1.3,1.1,1.9,1.6c0.6,0.6,1.2,1.2,1.8,1.8c0.6,0.6,1.1,1.3,1.6,2
			c-0.7-0.4-1.4-0.9-2.1-1.4c-0.7-0.5-1.3-1.1-1.9-1.6c-0.6-0.6-1.2-1.1-1.8-1.8C430.7,81.5,430.1,80.9,429.6,80.2z"/>
	</g>
	<g>
		<path d="M436.7,97.4l-17.9-16l-0.4-0.4l0.4-0.4L448.9,48l0.3-0.4l0.4,0.3L467,64.3l0.2,0.2l-0.2,0.2c-2.4,2.8-4.9,5.6-7.4,8.4
			c-2.5,2.8-5,5.5-7.6,8.3c-2.5,2.7-5.1,5.4-7.6,8.1l-3.8,4L436.7,97.4z M436.7,96.8l3.7-4.2l3.7-4.2c2.5-2.7,4.9-5.5,7.4-8.2
			c2.5-2.7,4.9-5.4,7.5-8c2.5-2.7,5-5.3,7.6-7.9l0,0.4l-17.6-16l0.7,0l-30,32.7l0-0.8L436.7,96.8z"/>
	</g>
	<g>
		<path d="M405.1,8.7c-0.1-0.1-0.2-0.2-0.3-0.3c0,0-0.1,0,0.1,0c0.1,0,0.2-0.1,0.2-0.2c0,0,0,0,0,0c0,0.2,0.1,0.5,0.2,0.8
			c0.2,0.6,0.4,1.2,0.7,1.9c0.5,1.2,1.1,2.5,1.6,3.7c0.6,1.2,1.1,2.5,1.6,3.8c0.5,1.3,1,2.6,1.2,4c0.1,0.4,0.1,0.7,0.1,1.2
			c0,0.4,0,0.9-0.3,1.4c-0.3,0.6-0.8,1-1.3,1.1c-0.5,0.2-0.9,0.2-1.3,0.3c-0.8,0.1-1.5,0-2.2-0.1c-0.7-0.1-1.4-0.2-2.1-0.4
			c-1.3-0.3-2.7-0.6-4-0.9c-1.3-0.2-2.6-0.5-3.9-0.4c-1.3,0-2.6,0.4-3.2,1.3c-0.3,0.5-0.5,1.1-0.5,1.7c-0.1,0.6,0,1.3,0.1,1.9
			c0.3,2.6,1.2,5.2,1.9,7.8c0.2,0.7,0.3,1.4,0.4,2.1c0.1,0.7,0.1,1.5-0.1,2.4c-0.1,0.5-0.3,1-0.9,1.4c-0.5,0.4-1,0.5-1.4,0.6
			c-0.8,0.1-1.6,0.1-2.3,0c-1.4-0.1-2.8-0.5-4.1-0.8c-1.3-0.3-2.6-0.7-3.9-1.1c-1.3-0.4-2.6-0.7-3.9-1c-0.3-0.1-0.7-0.1-1-0.2
			c-0.3-0.1-0.7-0.1-0.9-0.1c0,0,0,0,0,0c0,0,0.1,0,0.1-0.1c0.1-0.1,0.1-0.2,0.1-0.2c0-0.2,0-0.2,0-0.2c0,0,0,0,0,0
			c0.1,0.1,0.2,0.2,0.3,0.3l0.7,0.7l6,5.5l12,11l12,11c4,3.6,8,7.3,12.1,10.9l0,0l-1.1,0l29.7-32.3l0,0l0,1.2
			c-3.5-3.4-7-6.7-10.6-10.1l-10.6-10c-3.5-3.3-7.1-6.6-10.7-9.9L405.1,8.7z M405.6,8.1l10.7,9.9c3.6,3.3,7.1,6.6,10.8,9.8l10.8,9.8
			c3.6,3.2,7.2,6.5,10.9,9.7l0.6,0.5l-0.6,0.6l0,0l-29.8,32.2l-0.5,0.6l-0.6-0.5l0,0c-3.9-3.7-7.9-7.4-11.8-11.2l-11.9-11.1l-12-11
			l-6-5.5l-0.7-0.7c-0.1-0.1-0.2-0.2-0.4-0.4c0,0-0.1-0.1-0.1-0.2c0-0.1-0.1-0.2-0.1-0.4c0-0.1,0.1-0.3,0.1-0.4
			c0.1-0.1,0.2-0.1,0.2-0.2c0.1-0.1,0.2-0.1,0.3-0.1c0.5,0,0.8,0,1.2,0.1c0.3,0.1,0.7,0.1,1,0.2l4,0.9c2.6,0.5,5.3,1,7.9,1.2
			c0.6,0,1.3,0,1.8-0.1c0.2,0,0.5-0.1,0.5-0.2c0,0,0,0,0.1-0.1c0-0.1,0.1-0.1,0.1-0.2c0.1-0.4,0.1-1,0.1-1.7c0-0.6-0.1-1.3-0.3-1.9
			c-0.4-2.6-1.1-5.3-1.3-8.1c0-0.7,0-1.4,0.1-2.1c0.1-0.7,0.3-1.5,0.7-2.1c0.5-0.7,1.1-1.1,1.9-1.4c0.7-0.3,1.4-0.4,2.1-0.4
			c2.9-0.2,5.6,0.3,8.2,0.6c1.3,0.1,2.7,0.3,3.8,0.2c0.3,0,0.5-0.1,0.7-0.1c0.2-0.1,0.2-0.2,0.2-0.1c0-0.1,0.1-0.3,0.1-0.6
			c0-0.3,0-0.6-0.1-0.9c-0.2-1.2-0.5-2.5-0.9-3.8c-0.4-1.3-0.8-2.6-1.2-3.9c-0.4-1.3-0.9-2.6-1.3-3.9c-0.2-0.6-0.4-1.3-0.6-2
			c-0.1-0.4-0.2-0.7-0.2-1.1c0-0.1,0-0.1,0.1-0.3c0-0.1,0.2-0.3,0.4-0.3c0.2,0,0.3,0,0.4,0c0.1,0,0.1,0.1,0.2,0.1
			C405.4,7.8,405.5,7.9,405.6,8.1z"/>
	</g>
	<g class="st0">
		<path class="st1" d="M468,65.6l-1.2-1.1l-23,25.1c-15-13.9-35.1-32-50.9-47c-0.2-0.2-4.3,0.4-4.3,0.4l-8.2-1.9l-5.4-0.9l71.2,65.5
			l4.8,0.5l5.5-4.9c0,0-4.6-4.3-11.4-10.6L468,65.6z"/>
	</g>
	<g class="st16">
		<path class="st7" d="M382.2,12.3l-8.3-2c0,0-0.2-0.7,1.2-0.8c1.4-0.1,9.4,0.9,9.4,0.9l-0.2,1.6L382.2,12.3z"/>
	</g>
	<g>
		<g>
			<path d="M377.2,18.9c0.3-0.3,0.3-1,0.3-1.6c0-0.6,0-1.3,0-1.9c0.1-0.6,0.1-1.3,0.5-2c0.4-0.6,1.1-1,1.8-1.1
				c0.7-0.1,1.3-0.2,1.9-0.2c0.6,0,1.3,0,1.8-0.2c0.1-0.1,0.2-0.1,0.3-0.2c0.1,0,0.1-0.1,0.1-0.1c0,0,0-0.1,0.1-0.1
				c0.1-0.2,0-0.6,0-0.9c-0.1-0.6-0.2-1.2-0.3-1.8v0L384,9c-1.6,0.1-3.2,0.2-4.8,0.3c-0.8,0.1-1.6,0.1-2.4,0.2
				c-0.8,0.1-1.6,0.2-2,0.7c-0.4,0.4-0.5,1.2-0.5,2c0,0.8,0,1.6,0,2.4c0.1,1.6,0.1,3.2,0.1,4.8l-0.3-0.3l0,0c0.5,0,1.1,0.1,1.6,0.1
				c0.3,0,0.5,0,0.8-0.1C376.8,19.1,377.1,19,377.2,18.9z M377.6,19.3c-0.3,0.3-0.6,0.3-0.9,0.4c-0.3,0-0.6,0.1-0.9,0.1
				c-0.6,0-1.1,0-1.7-0.1l0,0l-0.3,0l0-0.3c-0.1-1.6-0.2-3.2-0.3-4.8c-0.1-0.8-0.1-1.6-0.1-2.5c0-0.2,0-0.4,0-0.6
				c0-0.2,0-0.4,0.1-0.6c0.1-0.4,0.3-0.9,0.6-1.3c0.2-0.2,0.4-0.3,0.6-0.4c0.2-0.1,0.4-0.2,0.6-0.2c0.4-0.1,0.8-0.2,1.3-0.2
				c0.8-0.1,1.6-0.1,2.4-0.2c1.6-0.1,3.2-0.1,4.8-0.1l0.3,0l0,0.2v0c0.1,0.6,0.3,1.3,0.3,1.9c0,0.3,0,0.7,0,1c0,0.1-0.1,0.2-0.1,0.3
				c-0.1,0.1-0.1,0.2-0.2,0.3c-0.2,0.1-0.3,0.2-0.5,0.3c-0.7,0.2-1.3,0.2-2,0.2c-0.6,0-1.3,0.1-1.8,0.2c-0.6,0.1-1.1,0.4-1.4,0.8
				c-0.3,0.4-0.4,1.1-0.4,1.7c0,0.6,0,1.2,0,1.9c0,0.3,0,0.6-0.1,1C378,18.6,377.9,19,377.6,19.3z"/>
		</g>
	</g>
	<g>
		<path class="st17" d="M412.2,46.2c0.1-0.1,0.4,0,0.6,0c0.1,0,0.3,0,0.4,0c0-0.1,0-0.3-0.1-0.4c-0.2-0.2-0.3-0.4-0.5-0.6
			c-0.4-0.4-0.9-0.8-1.4-1.2c0,0.2-0.1,0.4,0,0.4c0.2,0.3,0,0.4-0.2,0.6c-0.5,0.4-1.5,0.4-2.1,0c-0.4-0.3-0.4-0.7,0-1
			c0.3-0.2,0.6-0.5,1-0.7c0.8-0.5,1.7-0.8,2.7-0.5c1.1,0.3,1.5,1.4,0.8,2.4c0.3,0.1,0.5,0.3,0.7,0.3c0.5-0.1,0.9-0.3,1.4-0.5
			c0.2-0.1,0.2-0.2,0-0.3c-0.1-0.1-0.3-0.1-0.4-0.1c-0.4,0.1-0.5-0.1-0.6-0.5c0-0.1,0-0.2,0-0.3c-0.5-1.4-2.5-2.6-4-2.5
			c-1,0.1-1.8,0.5-2.5,1.2c-0.6,0.6-0.8,1.8-0.3,2.5c0.5,0.8,1.3,1.2,2.1,1.4C410.6,46.6,411.5,46.6,412.2,46.2z"/>
		<path class="st17" d="M395.1,29.7c0.9-0.3,1.4-1.1,1.3-2.1c0-0.2-0.1-0.6-0.3-0.7c-0.7-0.7-1.4-1.3-2.1-1.9
			c-0.7,0.2-1.4,0.5-1.8,1.1c-0.3,0.4-0.4,0.9-0.5,1.5c0.7-0.3,1.3-0.6,2-0.9c0.3-0.1,0.6-0.3,0.9-0.4c0.2,0,0.4,0.1,0.6,0.2
			c0.1,0.1,0.2,0.2,0.3,0.3c0.2,0.2,0.2,0.4,0,0.6c-0.7,0.9-1.7,1.3-2.8,1.5c-0.3-0.1-0.7,0-1,0c0,0.3,0,0.5,0,0.8
			c0,0.1,0,0.2,0,0.2c0.3,0.2,0.8,0.4,1.2,0.4C393.7,30.2,394.4,29.9,395.1,29.7z"/>
		<path class="st17" d="M409.2,38.5c-0.7-0.9-1.6-1.4-2.8-1.4c-0.9,0-2.1,0.3-2.7,0.8c-1.1,0.8-1.3,2.1-0.4,3.2
			c1.5,1.6,4.5,1.2,5.6,0C409.7,40.3,409.8,39.4,409.2,38.5z M408.6,39.3c-0.5,0.7-1.2,1.1-2,1.4c-0.5,0.2-1,0.3-1.5,0.4
			c-0.4-0.1-0.6-0.1-0.9-0.2c-0.5-0.2-0.6-0.7-0.3-1.1c0.5-0.6,1.2-1,2-1.3c0.4-0.1,0.8-0.2,1.2-0.3c0.5-0.1,0.9,0,1.3,0.3
			C408.8,38.7,408.9,38.9,408.6,39.3z"/>
		<path class="st17" d="M405,36.5c0.4-0.2,0.5-1,0.2-1.3c-0.8-0.8-1.6-1.5-2.4-2.3c-0.1-0.1-0.3-0.2-0.5-0.3c0,0,0,0-0.1,0.1
			c0,0.1,0.1,0.3,0.2,0.4c-0.4,0.2-0.7,0.3-1,0.5c-0.8,0.4-1.6,0.8-2.5,1.1c-0.4,0.2-0.9,0.5-1.4,0.1c0.5,0.8,1.2,1.3,1.8,1.9
			c0,0,0.1,0,0.1,0c0-0.2,0-0.4,0-0.7c0,0-0.1-0.1-0.1-0.1c0.6-0.2,1.2-0.5,1.8-0.7c0.3-0.1,0.4,0,0.3,0.3c-0.1,0.3-0.3,0.7-0.4,1
			c-0.3,0.6-0.5,1.2-0.8,1.8c0.6,0.2,1.1,0.4,1.6,0.6c0.2,0.1,0.4,0,0.6-0.1c-0.1-0.1-0.1-0.3-0.2-0.4c-0.3-0.3-0.3-0.5-0.1-0.8
			c0.1-0.3,0.2-0.6,0.3-0.9c0.1-0.2,0.1-0.3,0.2-0.4c0.3,0.1,0.6,0.2,0.8,0.3C404,36.9,404.5,36.8,405,36.5z M402.1,35.1
			c-0.3-0.1-0.2-0.4,0-0.5c0.3-0.2,0.7-0.3,1.1-0.5c0.5-0.2,0.7,0.2,1,0.5c0.1,0.1,0.2,0.4,0.1,0.5c-0.3,0.2-0.6,0.4-0.9,0.6
			C402.9,35.5,402.5,35.3,402.1,35.1z"/>
		<path class="st17" d="M398.1,33.6c-0.5-0.1-1.1,0.3-1.6-0.1c-0.4-0.3-0.9-0.7-1.4-1.1c0.2-0.2,0.3-0.4,0.5-0.5
			c0.3-0.2,0.7-0.3,1-0.5c0.3-0.2,0.6-0.1,0.8,0.1c0.2,0.2,0.4,0.5,0.6,0.7c-0.1,0.1-0.2,0.2-0.3,0.3c-0.1,0.1-0.1,0.2-0.1,0.3
			c0.1,0,0.2,0.1,0.3,0.1c0.5-0.3,1-0.5,1.6-0.8c0-0.1,0-0.1,0-0.2c-0.1,0-0.3-0.1-0.4,0c-0.4,0.1-1.1-0.2-1.2-0.7
			c0-0.1,0.1-0.2,0.1-0.2c0.4-0.2,0.9-0.4,1.3-0.6c0.1,0,0.3,0,0.4,0.1c0.2,0.1,0.3,0.3,0.4,0.4c0.7,0.7,0.7,0.7,0,1.4
			c0,0,0,0.1-0.1,0.2c0.1,0.1,0.3,0.2,0.4,0.2c0.5-0.3,1-0.6,1.5-0.9c-0.3-0.1-0.5-0.1-0.7-0.3c-0.7-0.6-1.4-1.2-2-1.9
			c-0.4-0.4-0.8-0.8-1.2-1.2c0,0-0.1,0-0.1,0c0.3,0.4,0.1,0.6-0.3,0.8c-0.9,0.4-1.8,0.9-2.7,1.4c-0.5,0.3-0.9,0.4-1.4,0
			c-0.1-0.1-0.3,0-0.5,0c0.2,0.3,0.4,0.5,0.5,0.6c0.5,0.5,1.1,1,1.6,1.4c0.5,0.4,1,0.9,1.5,1.3c0.1,0.1,0.3,0.2,0.4,0.1
			c0.4-0.2,0.8-0.4,1.2-0.5C398.1,33.7,398.1,33.7,398.1,33.6z"/>
		<path class="st17" d="M417.1,46.2c-0.1,0.1-0.3,0.3-0.5,0.3c-0.6,0.1-1.2,0.2-1.8,0.3c-0.8,0.1-1.6,0.3-2.5,0.4
			c-0.4,0-0.9,0.3-1.3,0c-0.1-0.1-0.2,0-0.3-0.1c0,0.1,0,0.3,0.1,0.3c0.5,0.5,1,0.9,1.5,1.4c0.1,0.1,0.2,0.1,0.3,0.1
			c0-0.1,0-0.2,0-0.4c0-0.2-0.1-0.5,0-0.5c0.3-0.2,0.6-0.4,0.9-0.3c0.4,0.1,0.7,0.4,1.1,0.7c0.4,0.3,0.4,0.4,0,0.7
			c-0.2,0.2-0.5,0.2-0.7,0.3c-0.1,0-0.3,0-0.5,0c0,0.1,0,0.2,0.1,0.2c0.5,0.5,1,1,1.6,1.5c0.1,0.1,0.3,0,0.4,0.1
			c0-0.1,0-0.3-0.1-0.4c-0.3-0.3-0.2-0.6,0.1-0.9c0.5-0.5,1-0.9,1.5-1.4c0.5-0.5,1-1.1,1.5-1.7C418.1,46.8,417.6,46.5,417.1,46.2z
			 M416.1,47.9c-0.2,0.2-0.5,0.4-0.8,0.6c-0.1,0-0.2,0-0.3-0.1c-0.1-0.1-0.3-0.2-0.4-0.3c-0.1-0.1-0.2-0.3-0.2-0.4
			c0-0.1,0.2-0.3,0.3-0.3c0.3-0.1,0.6-0.1,1-0.1c0.1,0,0.2,0.1,0.3,0.2C416.2,47.6,416.2,47.8,416.1,47.9z"/>
	</g>
</g>
</svg>
