<?xml version="1.0" encoding="utf-8"?>
<!-- Generator: Adobe Illustrator 25.0.1, SVG Export Plug-In . SVG Version: 6.00 Build 0)  -->
<svg version="1.1" id="Layer_1" xmlns="http://www.w3.org/2000/svg" xmlns:xlink="http://www.w3.org/1999/xlink" x="0px" y="0px"
	 viewBox="0 0 240 240" style="enable-background:new 0 0 240 240;" xml:space="preserve">
<path d="M172.198,26.944C123.414,2.672,64.541,22.077,38.7,70.098l-6.267-18.644c-2.217-6.592-9.276-10.106-15.766-7.845
	c-6.494,2.265-9.958,9.445-7.741,16.039l15.904,47.32c1.111,3.3,3.428,5.824,6.282,7.246c2.853,1.417,6.241,1.731,9.486,0.6
	l46.57-16.234c6.493-2.262,9.958-9.443,7.741-16.038c-2.217-6.597-9.276-10.108-15.766-7.845l-17.969,6.26
	c19.846-35.334,63.679-49.437,100.079-31.329c37.862,18.84,53.544,65.495,34.959,104.012
	c-18.585,38.515-64.507,54.524-102.367,35.687c-6.16-3.065-13.6-0.469-16.623,5.792c-3.023,6.263-0.482,13.826,5.676,16.889
	c50.156,24.956,110.992,3.751,135.611-47.271C243.13,113.713,222.352,51.898,172.198,26.944z"/>
</svg>
