<?xml version="1.0" encoding="utf-8"?>
<!-- Generator: Adobe Illustrator 25.0.1, SVG Export Plug-In . SVG Version: 6.00 Build 0)  -->
<svg version="1.1" id="Layer_1" xmlns="http://www.w3.org/2000/svg" xmlns:xlink="http://www.w3.org/1999/xlink" x="0px" y="0px"
	 viewBox="0 0 240 240" style="enable-background:new 0 0 240 240;" xml:space="preserve">
<g>
	<path d="M7750.7,3660.401v-6c0-8.4-15-12-29.101-12s-29.101,3.9-29.101,12v6c0,5.4,2.101,10.8,6,14.7l15,14.7
		c0.899,0.9,1.2,1.8,1.2,3v19.2c0,1.2,0.601,2.1,1.8,2.4l8.7,2.7c1.5,0.3,3-0.6,3-2.4v-21.6c0-1.2,0.601-2.1,1.2-3l15.3-15
		C7748.6,3671.2,7750.7,3665.8,7750.7,3660.401z M7721.6,3660.1c-14.399,0-22.2-3.9-22.5-5.4l0,0c0.3-1.5,8.101-5.4,22.5-5.4
		s21.899,3.9,22.5,5.4C7743.5,3656.2,7736,3660.1,7721.6,3660.1z"/>
	<path d="M7736.6,3691c-1.8,0-3,1.2-3,3s1.2,3,3,3h12.899c1.8,0,3-1.2,3-3s-1.2-3-3-3H7736.6z"/>
	<path d="M7749.5,3701.2h-12.899c-1.8,0-3,1.2-3,3s1.2,3,3,3h12.899c1.8,0,3-1.2,3-3C7752.5,3702.401,7751.299,3701.2,7749.5,3701.2
		z"/>
	<path d="M7749.5,3711.1h-12.899c-1.8,0-3,1.2-3,3s1.2,3,3,3h12.899c1.8,0,3-1.2,3-3C7752.5,3712.6,7751.299,3711.1,7749.5,3711.1z"
		/>
</g>
<g>
	<path d="M-7810.9-3464v-22.5c0-31.5-57.6-45.9-111.3-45.9c-53.7,0-111.3,14.4-111.3,45.9v22.5c0,21,8.4,40.8,23.4,55.5l57,56.1
		c3,3,4.8,7.2,4.8,11.4v73.2c0,3.9,2.7,7.5,6.6,8.7l33.3,9.9c5.7,1.8,11.7-2.7,11.7-8.7v-81.9c0-4.2,1.8-8.4,4.8-11.4l57.9-57.3
		C-7819.3-3422.9-7810.9-3443-7810.9-3464z M-7922.2-3465.5c-55.5,0-84.3-15.3-86.1-20.7l0,0c1.8-5.7,30.6-21,86.1-21
		c54.9,0,83.7,15,86.1,21C-7838.5-3480.5-7867.3-3465.5-7922.2-3465.5z"/>
	<path d="M-7864.9-3347.6c-6.3,0-11.4,5.1-11.4,11.4s5.1,11.4,11.4,11.4h49.8c6.3,0,11.4-5.1,11.4-11.4s-5.1-11.4-11.4-11.4H-7864.9
		z"/>
	<path d="M-7815.1-3308.9h-49.8c-6.3,0-11.4,5.1-11.4,11.4s5.1,11.4,11.4,11.4h49.8c6.3,0,11.4-5.1,11.4-11.4
		S-7808.8-3308.9-7815.1-3308.9z"/>
	<path d="M-7815.1-3270.2h-49.8c-6.3,0-11.4,5.1-11.4,11.4s5.1,11.4,11.4,11.4h49.8c6.3,0,11.4-5.1,11.4-11.4
		S-7808.8-3270.2-7815.1-3270.2z"/>
</g>
<g>
	<path d="M7750.639,3661.448v-6c0-8.4-15-12-29.101-12s-29.101,3.9-29.101,12v6c0,5.4,2.101,10.8,6,14.7l15,14.7
		c0.899,0.9,1.2,1.8,1.2,3v19.2c0,1.2,0.601,2.1,1.8,2.4l8.7,2.7c1.5,0.3,3-0.6,3-2.4v-21.6c0-1.2,0.601-2.1,1.2-3l15.3-15
		C7748.538,3672.248,7750.639,3666.847,7750.639,3661.448z M7721.538,3661.148c-14.399,0-22.2-3.9-22.5-5.4l0,0
		c0.3-1.5,8.101-5.4,22.5-5.4s21.899,3.9,22.5,5.4C7743.439,3657.248,7735.939,3661.148,7721.538,3661.148z"/>
	<path d="M7736.538,3692.048c-1.8,0-3,1.2-3,3s1.2,3,3,3h12.899c1.8,0,3-1.2,3-3s-1.2-3-3-3H7736.538z"/>
	<path d="M7749.439,3702.248h-12.899c-1.8,0-3,1.2-3,3s1.2,3,3,3h12.899c1.8,0,3-1.2,3-3S7751.238,3702.248,7749.439,3702.248z"/>
	<path d="M7749.439,3712.148h-12.899c-1.8,0-3,1.2-3,3s1.2,3,3,3h12.899c1.8,0,3-1.2,3-3
		C7752.439,3713.648,7751.238,3712.148,7749.439,3712.148z"/>
</g>
<g>
	<path d="M-7810.961-3462.952v-22.5c0-31.5-57.6-45.9-111.3-45.9c-53.7,0-111.3,14.4-111.3,45.9v22.5c0,21,8.4,40.8,23.4,55.5
		l57,56.1c3,3,4.8,7.2,4.8,11.4v73.2c0,3.9,2.7,7.5,6.6,8.7l33.3,9.9c5.7,1.8,11.7-2.7,11.7-8.7v-81.9c0-4.2,1.8-8.4,4.8-11.4
		l57.9-57.3C-7819.362-3421.852-7810.961-3441.952-7810.961-3462.952z M-7922.262-3464.452c-55.5,0-84.3-15.3-86.1-20.7l0,0
		c1.8-5.7,30.6-21,86.1-21c54.9,0,83.7,15,86.1,21C-7838.562-3479.452-7867.362-3464.452-7922.262-3464.452z"/>
	<path d="M-7864.961-3346.552c-6.3,0-11.4,5.1-11.4,11.4s5.1,11.4,11.4,11.4h49.8c6.3,0,11.4-5.1,11.4-11.4
		c0-6.3-5.1-11.4-11.4-11.4H-7864.961z"/>
	<path d="M-7815.162-3307.852h-49.8c-6.3,0-11.4,5.1-11.4,11.4c0,6.3,5.1,11.4,11.4,11.4h49.8c6.3,0,11.4-5.1,11.4-11.4
		S-7808.862-3307.852-7815.162-3307.852z"/>
	<path d="M-7815.162-3269.152h-49.8c-6.3,0-11.4,5.1-11.4,11.4s5.1,11.4,11.4,11.4h49.8c6.3,0,11.4-5.1,11.4-11.4
		S-7808.862-3269.152-7815.162-3269.152z"/>
</g>
<g>
	<path d="M7750.639,3661.448v-6c0-8.4-15-12-29.101-12s-29.101,3.9-29.101,12v6c0,5.4,2.101,10.8,6,14.7l15,14.7
		c0.899,0.9,1.2,1.8,1.2,3v19.2c0,1.2,0.601,2.1,1.8,2.4l8.7,2.7c1.5,0.3,3-0.6,3-2.4v-21.6c0-1.2,0.601-2.1,1.2-3l15.3-15
		C7748.538,3672.248,7750.639,3666.847,7750.639,3661.448z M7721.538,3661.148c-14.399,0-22.2-3.9-22.5-5.4l0,0
		c0.3-1.5,8.101-5.4,22.5-5.4s21.899,3.9,22.5,5.4C7743.439,3657.248,7735.939,3661.148,7721.538,3661.148z"/>
	<path d="M7736.538,3692.048c-1.8,0-3,1.2-3,3s1.2,3,3,3h12.899c1.8,0,3-1.2,3-3s-1.2-3-3-3H7736.538z"/>
	<path d="M7749.439,3702.248h-12.899c-1.8,0-3,1.2-3,3s1.2,3,3,3h12.899c1.8,0,3-1.2,3-3S7751.238,3702.248,7749.439,3702.248z"/>
	<path d="M7749.439,3712.148h-12.899c-1.8,0-3,1.2-3,3s1.2,3,3,3h12.899c1.8,0,3-1.2,3-3
		C7752.439,3713.648,7751.238,3712.148,7749.439,3712.148z"/>
</g>
<g>
	<path d="M-7810.961-3462.952v-22.5c0-31.5-57.6-45.9-111.3-45.9c-53.7,0-111.3,14.4-111.3,45.9v22.5c0,21,8.4,40.8,23.4,55.5
		l57,56.1c3,3,4.8,7.2,4.8,11.4v73.2c0,3.9,2.7,7.5,6.6,8.7l33.3,9.9c5.7,1.8,11.7-2.7,11.7-8.7v-81.9c0-4.2,1.8-8.4,4.8-11.4
		l57.9-57.3C-7819.362-3421.852-7810.961-3441.952-7810.961-3462.952z M-7922.262-3464.452c-55.5,0-84.3-15.3-86.1-20.7l0,0
		c1.8-5.7,30.6-21,86.1-21c54.9,0,83.7,15,86.1,21C-7838.562-3479.452-7867.362-3464.452-7922.262-3464.452z"/>
	<path d="M-7864.961-3346.552c-6.3,0-11.4,5.1-11.4,11.4s5.1,11.4,11.4,11.4h49.8c6.3,0,11.4-5.1,11.4-11.4
		c0-6.3-5.1-11.4-11.4-11.4H-7864.961z"/>
	<path d="M-7815.162-3307.852h-49.8c-6.3,0-11.4,5.1-11.4,11.4c0,6.3,5.1,11.4,11.4,11.4h49.8c6.3,0,11.4-5.1,11.4-11.4
		S-7808.862-3307.852-7815.162-3307.852z"/>
	<path d="M-7815.162-3269.152h-49.8c-6.3,0-11.4,5.1-11.4,11.4s5.1,11.4,11.4,11.4h49.8c6.3,0,11.4-5.1,11.4-11.4
		S-7808.862-3269.152-7815.162-3269.152z"/>
</g>
<g>
	<g>
		<path d="M220.935,117.751c-0.019-6.639-2.798-12.067-8.097-16.128c-2.95-2.262-5.942-4.471-8.916-6.701
			c-3.117-2.336-6.237-4.67-9.478-7.097c-0.133,0.451-0.234,0.635-0.234,0.82c-0.012,5.683-0.053,11.368,0.033,17.051
			c0.011,0.685,0.567,1.548,1.132,2.007c2.723,2.208,5.549,4.289,8.311,6.449c2.46,1.924,2.467,3.146,0.074,5.052
			c-13.278,10.58-26.56,21.155-39.84,31.733c-0.741,0.59-1.47,1.197-2.322,1.892c2.179,1.875,4.141,3.569,6.108,5.256
			c6.497,5.572,12.992,11.148,19.499,16.709c1.844,1.577,2.48,3.57,1.88,5.86c-0.564,2.154-2.109,3.447-4.269,3.899
			c-2.119,0.442-3.772-0.521-5.332-1.861c-15.327-13.168-30.682-26.303-46.011-39.467c-8.037-6.902-18.796-6.942-26.887-0.036
			c-3.895,3.326-7.77,6.676-11.659,10.011c-11.505,9.864-23.017,19.72-34.512,29.598c-1.506,1.294-3.127,2.167-5.163,1.762
			c-2.174-0.431-3.703-1.729-4.304-3.865c-0.672-2.389,0.085-4.383,1.987-6.007c7.791-6.65,15.56-13.328,23.335-19.998
			c0.675-0.578,1.331-1.176,2.092-1.85c-0.626-0.538-1.085-0.96-1.57-1.347c-13.387-10.668-26.773-21.335-40.167-31.994
			c-2.919-2.323-2.907-3.342,0.158-5.703c2.612-2.012,5.245-3.996,7.826-6.047c0.502-0.399,1.14-1.045,1.147-1.585
			c0.081-6.008,0.052-12.018,0.052-18.581c-6.953,5.265-13.553,10.029-19.88,15.132c-4.545,3.667-6.81,8.783-6.831,14.595
			c-0.091,24.982-0.128,49.965,0,74.947c0.055,10.927,9.107,19.679,20.062,19.685c53.891,0.03,107.783,0.035,161.674-0.005
			c11.165-0.008,20.086-8.926,20.113-20.082C221.004,167.154,221.004,142.453,220.935,117.751z M57.211,124.178
			c3.023,1.934,5.672,4.454,8.812,6.975v-2.724c0.002-26.872,0.003-53.743,0.009-80.614c0.001-3.059,1.162-4.272,4.123-4.272
			c33.183-0.007,66.368-0.01,99.552-0.006c3.113,0,4.277,1.192,4.279,4.343c0.006,8.98-0.001,17.961-0.002,26.942
			c-0.001,18.59,0,37.181,0,56.35c4.221-3.403,8.049-6.549,11.952-9.598c0.981-0.767,1.374-1.541,1.373-2.798
			c-0.036-24.837-0.005-49.675-0.032-74.512c-0.01-8.292-5.787-14.017-14.052-14.02c-35.218-0.011-70.437-0.015-105.656-0.008
			c-9.422,0.002-14.841,5.461-14.843,14.939c-0.006,23.153,0.13,46.307-0.11,69.457C52.572,118.924,53.564,121.845,57.211,124.178z
			 M105.17,113.749c8.49-5.858,8.45-17.529-0.008-23.414c-2.159-1.503-4.653-2.552-7.059-3.664c-2.599-1.201-5.354-2.08-7.9-3.378
			c-2.986-1.522-4.029-3.532-3.518-6.257c0.507-2.699,2.484-3.974,4.965-4.499c4.39-0.931,8.653-0.408,12.671,1.587
			c1.564,0.776,2.472,0.558,3.025-1.148c0.474-1.464,1.084-2.881,1.611-4.328c0.462-1.267,0.108-2.243-1.198-2.683
			c-1.784-0.603-3.573-1.235-5.407-1.629c-1.945-0.418-3.946-0.572-6.013-0.853c0-1.544-0.002-2.871,0.001-4.197
			c0.002-1.385-0.717-2.059-2.07-2.09c-0.771-0.018-1.542-0.008-2.314-0.011c-1.461-0.005-2.204,0.687-2.183,2.184
			c0.022,1.595,0.005,3.191,0.005,4.645c-1.9,0.694-3.587,1.191-5.172,1.913c-4.854,2.208-8.081,5.788-8.696,11.24
			c-0.655,5.807,2.026,10.106,6.816,12.982c2.912,1.749,6.206,2.858,9.3,4.313c2.142,1.008,4.442,1.844,6.31,3.242
			c3.621,2.71,3.164,8.054-0.835,10.166c-1.614,0.853-3.565,1.307-5.402,1.448c-4.419,0.341-8.642-0.615-12.532-2.788
			c-1.626-0.908-2.604-0.601-3.139,1.222c-0.413,1.407-0.853,2.821-1.443,4.161c-0.68,1.545-0.085,2.487,1.292,2.964
			c2.503,0.866,5.025,1.71,7.594,2.34c1.875,0.459,3.838,0.562,5.918,0.844c0,1.539-0.225,2.987,0.085,4.307
			c0.183,0.775,1.115,1.572,1.904,1.942c0.689,0.324,1.651,0.083,2.492,0.059c1.349-0.038,2.071-0.712,2.066-2.099
			c-0.005-1.537-0.001-3.073-0.001-4.259C99.569,116.481,102.634,115.499,105.17,113.749z M129.493,70.515
			c4.696-0.098,9.395-0.032,14.094-0.033c4.628-0.001,9.256,0.004,13.885-0.004c2.619-0.003,2.85-0.248,2.861-2.917
			c0.003-0.561-0.003-1.122-0.002-1.683c0.005-1.287-0.612-1.951-1.921-1.95c-9.887,0.002-19.775,0.001-29.662,0.002
			c-1.306,0-1.921,0.677-1.913,1.962c0.004,0.631,0.047,1.267-0.011,1.893C126.639,69.768,127.459,70.558,129.493,70.515z
			 M157.488,77.403c-4.627-0.01-9.254-0.003-13.881-0.006c-4.697-0.003-9.395,0.058-14.09-0.031
			c-1.998-0.038-2.885,0.705-2.699,2.71c0.058,0.625,0.016,1.261,0.014,1.892c-0.006,1.276,0.594,1.98,1.901,1.981
			c9.885,0.005,19.769,0.004,29.654,0.005c1.29,0,1.941-0.642,1.946-1.935c0.002-0.561,0.011-1.123,0.009-1.684
			C160.328,77.663,160.092,77.409,157.488,77.403z M160.334,93.611c-0.023-2.466-0.297-2.735-2.828-2.738
			c-4.628-0.004-9.256-0.001-13.885,0c-4.698,0.001-9.396-0.008-14.095,0.004c-2.505,0.007-2.694,0.254-2.694,3.294
			c0,3.03,0.17,3.252,2.722,3.254c8.976,0.008,17.951,0.004,26.927,0.004C160.37,97.429,160.37,97.428,160.334,93.611z
			 M130.7,104.347c-3.904-0.001-3.904-0.006-3.867,3.793c0.025,2.492,0.283,2.762,2.806,2.768c4.629,0.012,9.257,0.004,13.885,0.004
			v-0.008c4.628,0,9.257,0.006,13.885-0.003c2.813-0.005,2.924-0.148,2.927-3.484c0.002-2.852-0.191-3.065-2.918-3.066
			C148.511,104.344,139.605,104.349,130.7,104.347z"/>
	</g>
</g>
</svg>
