<?xml version="1.0" encoding="utf-8"?>
<!-- Generator: Adobe Illustrator 25.0.1, SVG Export Plug-In . SVG Version: 6.00 Build 0)  -->
<svg version="1.1" id="Layer_1" xmlns="http://www.w3.org/2000/svg" xmlns:xlink="http://www.w3.org/1999/xlink" x="0px" y="0px"
	 viewBox="0 0 240 240" style="enable-background:new 0 0 240 240;" xml:space="preserve">
<g>
	<path d="M7750.7,3660.401v-6c0-8.4-15-12-29.101-12s-29.101,3.9-29.101,12v6c0,5.4,2.101,10.8,6,14.7l15,14.7
		c0.899,0.9,1.2,1.8,1.2,3v19.2c0,1.2,0.601,2.1,1.8,2.4l8.7,2.7c1.5,0.3,3-0.6,3-2.4v-21.6c0-1.2,0.601-2.1,1.2-3l15.3-15
		C7748.6,3671.2,7750.7,3665.8,7750.7,3660.401z M7721.6,3660.1c-14.399,0-22.2-3.9-22.5-5.4l0,0c0.3-1.5,8.101-5.4,22.5-5.4
		s21.899,3.9,22.5,5.4C7743.5,3656.2,7736,3660.1,7721.6,3660.1z"/>
	<path d="M7736.6,3691c-1.8,0-3,1.2-3,3s1.2,3,3,3h12.899c1.8,0,3-1.2,3-3s-1.2-3-3-3H7736.6z"/>
	<path d="M7749.5,3701.2h-12.899c-1.8,0-3,1.2-3,3s1.2,3,3,3h12.899c1.8,0,3-1.2,3-3C7752.5,3702.401,7751.299,3701.2,7749.5,3701.2
		z"/>
	<path d="M7749.5,3711.1h-12.899c-1.8,0-3,1.2-3,3s1.2,3,3,3h12.899c1.8,0,3-1.2,3-3C7752.5,3712.6,7751.299,3711.1,7749.5,3711.1z"
		/>
</g>
<g>
	<path d="M-7810.9-3464v-22.5c0-31.5-57.6-45.9-111.3-45.9c-53.7,0-111.3,14.4-111.3,45.9v22.5c0,21,8.4,40.8,23.4,55.5l57,56.1
		c3,3,4.8,7.2,4.8,11.4v73.2c0,3.9,2.7,7.5,6.6,8.7l33.3,9.9c5.7,1.8,11.7-2.7,11.7-8.7v-81.9c0-4.2,1.8-8.4,4.8-11.4l57.9-57.3
		C-7819.3-3422.9-7810.9-3443-7810.9-3464z M-7922.2-3465.5c-55.5,0-84.3-15.3-86.1-20.7l0,0c1.8-5.7,30.6-21,86.1-21
		c54.9,0,83.7,15,86.1,21C-7838.5-3480.5-7867.3-3465.5-7922.2-3465.5z"/>
	<path d="M-7864.9-3347.6c-6.3,0-11.4,5.1-11.4,11.4s5.1,11.4,11.4,11.4h49.8c6.3,0,11.4-5.1,11.4-11.4s-5.1-11.4-11.4-11.4H-7864.9
		z"/>
	<path d="M-7815.1-3308.9h-49.8c-6.3,0-11.4,5.1-11.4,11.4s5.1,11.4,11.4,11.4h49.8c6.3,0,11.4-5.1,11.4-11.4
		S-7808.8-3308.9-7815.1-3308.9z"/>
	<path d="M-7815.1-3270.2h-49.8c-6.3,0-11.4,5.1-11.4,11.4s5.1,11.4,11.4,11.4h49.8c6.3,0,11.4-5.1,11.4-11.4
		S-7808.8-3270.2-7815.1-3270.2z"/>
</g>
<g>
	<path d="M7750.639,3661.448v-6c0-8.4-15-12-29.101-12s-29.101,3.9-29.101,12v6c0,5.4,2.101,10.8,6,14.7l15,14.7
		c0.899,0.9,1.2,1.8,1.2,3v19.2c0,1.2,0.601,2.1,1.8,2.4l8.7,2.7c1.5,0.3,3-0.6,3-2.4v-21.6c0-1.2,0.601-2.1,1.2-3l15.3-15
		C7748.538,3672.248,7750.639,3666.847,7750.639,3661.448z M7721.538,3661.148c-14.399,0-22.2-3.9-22.5-5.4l0,0
		c0.3-1.5,8.101-5.4,22.5-5.4s21.899,3.9,22.5,5.4C7743.439,3657.248,7735.939,3661.148,7721.538,3661.148z"/>
	<path d="M7736.538,3692.048c-1.8,0-3,1.2-3,3s1.2,3,3,3h12.899c1.8,0,3-1.2,3-3s-1.2-3-3-3H7736.538z"/>
	<path d="M7749.439,3702.248h-12.899c-1.8,0-3,1.2-3,3s1.2,3,3,3h12.899c1.8,0,3-1.2,3-3
		C7752.439,3703.448,7751.238,3702.248,7749.439,3702.248z"/>
	<path d="M7749.439,3712.148h-12.899c-1.8,0-3,1.2-3,3s1.2,3,3,3h12.899c1.8,0,3-1.2,3-3
		C7752.439,3713.648,7751.238,3712.148,7749.439,3712.148z"/>
</g>
<g>
	<path d="M-7810.961-3462.952v-22.5c0-31.5-57.6-45.9-111.3-45.9c-53.7,0-111.3,14.4-111.3,45.9v22.5c0,21,8.4,40.8,23.4,55.5
		l57,56.1c3,3,4.8,7.2,4.8,11.4v73.2c0,3.9,2.7,7.5,6.6,8.7l33.3,9.9c5.7,1.8,11.7-2.7,11.7-8.7v-81.9c0-4.2,1.8-8.4,4.8-11.4
		l57.9-57.3C-7819.362-3421.852-7810.961-3441.952-7810.961-3462.952z M-7922.262-3464.452c-55.5,0-84.3-15.3-86.1-20.7l0,0
		c1.8-5.7,30.6-21,86.1-21c54.9,0,83.7,15,86.1,21C-7838.562-3479.452-7867.362-3464.452-7922.262-3464.452z"/>
	<path d="M-7864.961-3346.552c-6.3,0-11.4,5.1-11.4,11.4s5.1,11.4,11.4,11.4h49.8c6.3,0,11.4-5.1,11.4-11.4
		c0-6.3-5.1-11.4-11.4-11.4H-7864.961z"/>
	<path d="M-7815.162-3307.852h-49.8c-6.3,0-11.4,5.1-11.4,11.4c0,6.3,5.1,11.4,11.4,11.4h49.8c6.3,0,11.4-5.1,11.4-11.4
		C-7803.762-3302.752-7808.862-3307.852-7815.162-3307.852z"/>
	<path d="M-7815.162-3269.152h-49.8c-6.3,0-11.4,5.1-11.4,11.4s5.1,11.4,11.4,11.4h49.8c6.3,0,11.4-5.1,11.4-11.4
		S-7808.862-3269.152-7815.162-3269.152z"/>
</g>
<g>
	<path d="M7750.639,3661.448v-6c0-8.4-15-12-29.101-12s-29.101,3.9-29.101,12v6c0,5.4,2.101,10.8,6,14.7l15,14.7
		c0.899,0.9,1.2,1.8,1.2,3v19.2c0,1.2,0.601,2.1,1.8,2.4l8.7,2.7c1.5,0.3,3-0.6,3-2.4v-21.6c0-1.2,0.601-2.1,1.2-3l15.3-15
		C7748.538,3672.248,7750.639,3666.847,7750.639,3661.448z M7721.538,3661.148c-14.399,0-22.2-3.9-22.5-5.4l0,0
		c0.3-1.5,8.101-5.4,22.5-5.4s21.899,3.9,22.5,5.4C7743.439,3657.248,7735.939,3661.148,7721.538,3661.148z"/>
	<path d="M7736.538,3692.048c-1.8,0-3,1.2-3,3s1.2,3,3,3h12.899c1.8,0,3-1.2,3-3s-1.2-3-3-3H7736.538z"/>
	<path d="M7749.439,3702.248h-12.899c-1.8,0-3,1.2-3,3s1.2,3,3,3h12.899c1.8,0,3-1.2,3-3
		C7752.439,3703.448,7751.238,3702.248,7749.439,3702.248z"/>
	<path d="M7749.439,3712.148h-12.899c-1.8,0-3,1.2-3,3s1.2,3,3,3h12.899c1.8,0,3-1.2,3-3
		C7752.439,3713.648,7751.238,3712.148,7749.439,3712.148z"/>
</g>
<g>
	<path d="M-7810.961-3462.952v-22.5c0-31.5-57.6-45.9-111.3-45.9c-53.7,0-111.3,14.4-111.3,45.9v22.5c0,21,8.4,40.8,23.4,55.5
		l57,56.1c3,3,4.8,7.2,4.8,11.4v73.2c0,3.9,2.7,7.5,6.6,8.7l33.3,9.9c5.7,1.8,11.7-2.7,11.7-8.7v-81.9c0-4.2,1.8-8.4,4.8-11.4
		l57.9-57.3C-7819.362-3421.852-7810.961-3441.952-7810.961-3462.952z M-7922.262-3464.452c-55.5,0-84.3-15.3-86.1-20.7l0,0
		c1.8-5.7,30.6-21,86.1-21c54.9,0,83.7,15,86.1,21C-7838.562-3479.452-7867.362-3464.452-7922.262-3464.452z"/>
	<path d="M-7864.961-3346.552c-6.3,0-11.4,5.1-11.4,11.4s5.1,11.4,11.4,11.4h49.8c6.3,0,11.4-5.1,11.4-11.4
		c0-6.3-5.1-11.4-11.4-11.4H-7864.961z"/>
	<path d="M-7815.162-3307.852h-49.8c-6.3,0-11.4,5.1-11.4,11.4c0,6.3,5.1,11.4,11.4,11.4h49.8c6.3,0,11.4-5.1,11.4-11.4
		C-7803.762-3302.752-7808.862-3307.852-7815.162-3307.852z"/>
	<path d="M-7815.162-3269.152h-49.8c-6.3,0-11.4,5.1-11.4,11.4s5.1,11.4,11.4,11.4h49.8c6.3,0,11.4-5.1,11.4-11.4
		S-7808.862-3269.152-7815.162-3269.152z"/>
</g>
<g>
	<path d="M199.664,63.294V46.076c0-24.106-44.079-35.126-85.174-35.126S29.316,21.97,29.316,46.076v17.218
		c0,16.071,6.428,31.223,17.907,42.472l43.62,42.931c2.296,2.296,3.673,5.51,3.673,8.724v56.017c0,2.984,2.066,5.739,5.051,6.658
		l25.483,7.576c4.362,1.377,8.954-2.066,8.954-6.658V158.34c0-3.214,1.377-6.428,3.673-8.724l44.309-43.85
		C193.236,94.746,199.664,79.365,199.664,63.294z M114.49,62.146c-42.472,0-64.512-11.709-65.889-15.841
		c1.377-4.362,23.417-16.071,65.889-16.071c42.013,0,64.052,11.479,65.889,16.071C178.543,50.667,156.503,62.146,114.49,62.146z"/>
	<path d="M158.34,152.371c-4.821,0-8.724,3.903-8.724,8.724c0,4.821,3.903,8.724,8.724,8.724h38.11c4.821,0,8.724-3.903,8.724-8.724
		s-3.903-8.724-8.724-8.724H158.34z"/>
	<path d="M196.45,181.986h-38.11c-4.821,0-8.724,3.903-8.724,8.724c0,4.821,3.903,8.724,8.724,8.724h38.11
		c4.821,0,8.724-3.903,8.724-8.724C205.174,185.889,201.271,181.986,196.45,181.986z"/>
	<path d="M196.45,211.602h-38.11c-4.821,0-8.724,3.903-8.724,8.724c0,4.821,3.903,8.724,8.724,8.724h38.11
		c4.821,0,8.724-3.903,8.724-8.724C205.174,215.505,201.271,211.602,196.45,211.602z"/>
</g>
</svg>
