<?xml version="1.0" encoding="utf-8"?>
<!-- Generator: Adobe Illustrator 25.0.1, SVG Export Plug-In . SVG Version: 6.00 Build 0)  -->
<svg version="1.1" id="Layer_1" xmlns="http://www.w3.org/2000/svg" xmlns:xlink="http://www.w3.org/1999/xlink" x="0px" y="0px"
	 viewBox="0 0 630 240" style="enable-background:new 0 0 630 240;" xml:space="preserve">
<style type="text/css">
	.st0{opacity:0.4;}
	.st1{fill:#310E3F;}
	.st2{fill:#E0BDAE;}
	.st3{fill:#91ABB1;}
	.st4{fill:#8A3E6E;}
	.st5{fill:#FCF065;}
	.st6{fill:#EB519B;}
	.st7{fill:#FFFFFF;}
	.st8{fill:#A9DFF6;}
	.st9{fill:#2F141A;}
	.st10{fill:#D28ABB;}
	.st11{fill:#50B748;}
	.st12{fill:#CBAC94;}
	.st13{fill:#443E39;}
	.st14{fill:#E4A2AC;}
	.st15{fill:#E5B829;}
	.st16{opacity:0.25;}
	.st17{fill:#0B8266;}
</style>
<g>
	<path d="M346,61.9L346,61.9c-2.5-2.2-5.2-3.8-8.2-5c-6-2.3-12.2-2.3-18.1,0c-3,1.1-5.7,2.8-8,5c-2.5,2.3-4.4,5.1-5.9,8.5
		c-1.5,3.4-2.2,7.3-2.2,11.7v55.7c0,4.6,0.7,8.6,2.2,11.9c1.5,3.3,3.5,6.1,5.9,8.2c2.4,2.3,5.1,4,8.1,5.1c3,1.1,6,1.7,9.1,1.7
		s6.1-0.6,9.1-1.7c3-1.1,5.7-2.9,8.2-5.1c2.4-2.2,4.3-4.9,5.8-8.2c1.5-3.3,2.2-7.3,2.2-11.9V82.1c0-4.4-0.7-8.3-2.2-11.7
		C350.2,67,348.3,64.1,346,61.9z M337.3,82.1v55.7c0,3.3-0.9,5.8-2.5,7.3c-1.7,1.6-3.7,2.3-6.1,2.3c-2.4,0-4.4-0.8-6.1-2.3
		c-1.7-1.5-2.5-3.9-2.5-7.3V82.1c0-3.3,0.9-5.8,2.5-7.3c1.7-1.6,3.7-2.3,6.1-2.3c2.4,0,4.4,0.8,6.1,2.3
		C336.5,76.3,337.3,78.7,337.3,82.1z"/>
	<polygon points="353.4,72.5 370.1,72.5 370.1,163.8 386.6,163.8 386.6,72.5 403.3,72.5 403.3,56.1 353.4,56.1 	"/>
	<rect x="405.8" y="56.1" width="16.6" height="107.7"/>
	<path d="M465.9,57.4c-3.1-1.4-6.6-2.2-10.3-2.2c-4.4,0-8.2,0.8-11.4,2.4c-3.2,1.6-5.9,3.8-7.9,6.4c-2.2,2.7-3.8,5.9-4.9,9.6
		c-1.1,3.6-1.6,7.5-1.6,11.6c0,6.8,1.1,12.5,3.3,17c2.2,4.6,6.6,8.4,13,11.1l10.3,4.4c1.7,0.8,3.1,1.5,4.2,2.1
		c0.9,0.6,1.7,1.4,2.2,2.3c0.5,1,0.8,2.3,1,3.9c0.2,1.7,0.3,4,0.3,6.7c0,2.3-0.1,4.5-0.2,6.4c-0.1,1.8-0.5,3.3-1.2,4.5
		c-0.7,1.2-1.6,2.1-2.7,2.8c-1.2,0.7-3,1-5.2,1c-3.3,0-5.6-0.9-7-2.9c-1.4-2.1-2.1-4.3-2.1-6.9v-5.8h-16.6v6.7c0,3.7,0.7,7.1,2,10.3
		c1.3,3.1,3.1,5.9,5.4,8.3c2.3,2.4,5,4.3,8.1,5.6c3.1,1.3,6.6,2,10.2,2c4.8,0,8.9-0.8,12.2-2.5c3.3-1.7,6.1-4,8.2-6.9
		c2-2.8,3.4-6.2,4.3-10.1c0.9-3.9,1.3-8.1,1.3-12.6c0-3.9-0.2-7.4-0.6-10.4c-0.4-3.1-1.1-5.9-2.2-8.4c-1.2-2.4-2.8-4.5-4.9-6.3
		c-2.1-1.8-4.8-3.4-8.1-4.7l-11-4.6c-1.8-0.8-3.2-1.5-4.2-2.3c-0.9-0.7-1.7-1.5-2.1-2.4c-0.5-1-0.8-2.1-0.9-3.3
		c-0.1-1.3-0.2-3.1-0.2-5.1c0-1.7,0.1-3.4,0.4-4.9c0.3-1.5,0.7-2.8,1.4-4c0.7-1.1,1.5-1.9,2.6-2.6c1-0.7,2.5-1,4.2-1
		c3.3,0,5.6,1.1,6.9,3.3c1.4,2.3,2.2,5.2,2.2,8.4v4.5h16.6v-8.5c0-6.4-2.3-12.1-6.8-17.1C471.7,60.7,469,58.8,465.9,57.4z"/>
	<path d="M309.5,182c-1.4,1.5-2.2,3.7-2.2,6.5v3.3h-4.6v2.5h4.6v25.1h3.1v-25.1h6.6v-2.5h-6.6v-3.4c0-1.9,0.5-3.4,1.4-4.5
		c0.9-1,2.2-1.6,3.9-1.6c1,0,1.9,0.1,2.8,0.3l0.2-2.5c-1-0.3-2.1-0.4-3.2-0.4C312.9,179.8,310.9,180.5,309.5,182z"/>
	<path d="M331.7,191.4c-2.4,0-4.5,0.6-6.4,1.8c-1.9,1.2-3.3,2.8-4.4,5c-1,2.1-1.5,4.5-1.5,7.2v0.6c0,4.2,1.1,7.7,3.4,10.2
		c2.3,2.6,5.3,3.9,8.9,3.9c2.4,0,4.5-0.6,6.4-1.7c1.9-1.2,3.3-2.8,4.3-4.9c1-2.1,1.5-4.5,1.5-7.2v-0.6c0-4.2-1.1-7.7-3.4-10.2
		C338.4,192.7,335.4,191.4,331.7,191.4z M341.1,205.9c0,3.5-0.9,6.3-2.6,8.4c-1.7,2.1-3.9,3.2-6.7,3.2c-2.8,0-5-1.1-6.7-3.2
		c-1.7-2.1-2.6-4.8-2.6-8.1v-0.6c0-3.4,0.9-6.2,2.6-8.4c1.7-2.1,3.9-3.2,6.7-3.2c1.8,0,3.4,0.5,4.8,1.4c1.4,1,2.5,2.3,3.3,4.1
		c0.8,1.7,1.2,3.7,1.2,5.8L341.1,205.9L341.1,205.9z"/>
	<path d="M352.1,196.3l-0.1-4.4h-3v27.6h3v-18.9c0.6-2,1.5-3.6,2.8-4.6c1.3-1.1,2.9-1.6,4.8-1.6c0.7,0,1.4,0.1,2.1,0.2l0.1-2.8
		c-0.5-0.2-1.2-0.3-2-0.3C356.3,191.4,353.7,193,352.1,196.3z"/>
	<path d="M386.8,191.4c-2.1,0-4.1,0.6-6,1.8c-1.8,1.2-3.3,2.9-4.3,5c-1,2.1-1.5,4.5-1.5,7.2v1.1c0,2.6,0.5,4.9,1.6,6.9
		c1.1,2.1,2.5,3.7,4.4,4.8c1.9,1.2,4,1.7,6.4,1.7c4.3,0,7.5-1.6,9.8-4.9l-1.9-1.5c-1,1.3-2.2,2.3-3.4,2.9c-1.3,0.6-2.7,0.9-4.3,0.9
		c-2.7,0-5-1-6.8-3.1c-1.8-2.1-2.7-4.7-2.7-7.8v-0.6h19.7v-1.7c0-4-1-7.1-2.9-9.4C392.9,192.5,390.2,191.4,386.8,191.4z
		 M394.7,203.3h-16.5c0.3-2.8,1.3-5.1,2.9-6.8c1.6-1.7,3.5-2.5,5.8-2.5c2.3,0,4.2,0.8,5.6,2.5c1.4,1.7,2.2,3.8,2.3,6.5L394.7,203.3
		L394.7,203.3z"/>
	<path d="M420.3,195.8c-2-2.9-4.8-4.4-8.5-4.4c-3.3,0-5.9,1.3-7.8,3.8c-1.9,2.5-2.9,6-2.9,10.2v0.4c0,4.4,1,7.8,2.9,10.4
		c1.9,2.6,4.5,3.8,7.7,3.8c3.8,0,6.7-1.4,8.6-4.2l0.1,3.7h2.9v-39.2h-3V195.8L420.3,195.8L420.3,195.8z M420.3,212.4
		c-1.6,3.3-4.2,5-8,5c-2.6,0-4.6-1-6-3c-1.4-2-2.1-4.8-2.1-8.3c0-3.9,0.7-6.9,2.1-8.9c1.4-2,3.4-3,6-3c3.7,0,6.4,1.8,8,5.4
		L420.3,212.4L420.3,212.4L420.3,212.4z"/>
	<path d="M447.8,211.8c-1.2,3.7-4,5.5-8.4,5.5c-4.2,0-6.4-2.6-6.4-7.9v-17.6h-3v17.9c0,3.3,0.8,5.9,2.3,7.6c1.5,1.7,3.8,2.6,6.7,2.6
		c4,0,7-1.3,8.8-4l0.1,3.5h3v-27.6h-3.1L447.8,211.8L447.8,211.8L447.8,211.8z"/>
	<path d="M461.2,197c1.5-2,3.7-3,6.4-3c2.2,0,3.9,0.7,5.4,2s2.2,3.1,2.3,5.2h2.9c-0.1-2.9-1.2-5.3-3.1-7.1c-2-1.8-4.5-2.7-7.5-2.7
		c-2.4,0-4.5,0.6-6.2,1.7c-1.8,1.1-3.1,2.8-4.1,4.8c-1,2.1-1.4,4.5-1.4,7.2v0.9c0,4.2,1.1,7.6,3.2,10.1c2.1,2.5,5,3.8,8.6,3.8
		c1.8,0,3.6-0.4,5.2-1.2c1.6-0.8,2.9-1.9,3.9-3.2c1-1.4,1.5-2.9,1.6-4.6h-2.9c-0.1,1.9-0.9,3.5-2.3,4.7c-1.4,1.2-3.2,1.8-5.3,1.8
		c-2.8,0-4.9-1-6.4-3c-1.5-2-2.3-4.7-2.3-8.2v-0.9C459,201.7,459.7,198.9,461.2,197z"/>
	<path d="M502.9,200.1c-0.1-2.8-1-4.9-2.7-6.4s-4.2-2.3-7.3-2.3c-3,0-5.5,0.8-7.5,2.4c-2,1.6-3.1,3.5-3.1,5.7l3.1,0
		c0-1.5,0.7-2.8,2.1-3.9c1.4-1.1,3.2-1.6,5.3-1.6c2.3,0,4.1,0.6,5.3,1.7c1.2,1.1,1.8,2.7,1.8,4.7v3.1h-5.5c-4,0-7.1,0.8-9.3,2.3
		c-2.2,1.6-3.4,3.7-3.4,6.4c0,2.3,0.8,4.1,2.5,5.6c1.6,1.5,3.8,2.2,6.4,2.2c1.9,0,3.6-0.4,5.3-1.1c1.7-0.8,3-1.8,4.1-3.2
		c0.1,1.7,0.3,3,0.6,3.9h3.3v-0.3c-0.6-1.3-0.8-3.3-0.8-6L502.9,200.1L502.9,200.1L502.9,200.1z M499.9,211.8c-0.7,1.6-1.9,3-3.5,4
		c-1.6,1-3.4,1.5-5.5,1.5c-1.8,0-3.3-0.5-4.5-1.5c-1.1-1-1.7-2.3-1.7-3.9c0-1.9,0.9-3.4,2.6-4.4c1.7-1.1,4.1-1.6,7.1-1.7h5.5
		L499.9,211.8L499.9,211.8z"/>
	<path d="M518.1,217.3c-1.3,0-2.2-0.4-2.8-1.1c-0.6-0.7-0.8-1.9-0.8-3.4v-18.4h5.7v-2.5h-5.7v-7.1h-3.1v7.1h-5.1v2.5h5.1v18.4
		c0,2.4,0.5,4.2,1.4,5.4c0.9,1.2,2.5,1.8,4.6,1.8c1.4,0,2.5-0.1,3.3-0.4l-0.1-2.5C519.4,217.2,518.6,217.3,518.1,217.3z"/>
	<path d="M535.3,191.4c-2.4,0-4.5,0.6-6.4,1.8c-1.9,1.2-3.3,2.8-4.4,5c-1,2.1-1.5,4.5-1.5,7.2v0.6c0,4.2,1.1,7.7,3.4,10.2
		c2.3,2.6,5.3,3.9,8.9,3.9c2.4,0,4.5-0.6,6.4-1.7c1.9-1.2,3.3-2.8,4.3-4.9c1-2.1,1.5-4.5,1.5-7.2v-0.6c0-4.2-1.1-7.7-3.4-10.2
		C541.9,192.7,539,191.4,535.3,191.4z M544.6,205.9c0,3.5-0.9,6.3-2.6,8.4c-1.7,2.1-3.9,3.2-6.7,3.2c-2.8,0-5-1.1-6.7-3.2
		c-1.7-2.1-2.6-4.8-2.6-8.1v-0.6c0-3.4,0.9-6.2,2.6-8.4c1.7-2.1,3.9-3.2,6.7-3.2c1.8,0,3.4,0.5,4.8,1.4c1.4,1,2.5,2.3,3.3,4.1
		c0.8,1.7,1.2,3.7,1.2,5.8L544.6,205.9L544.6,205.9z"/>
	<path d="M555.7,196.3l-0.1-4.4h-3v27.6h3v-18.9c0.6-2,1.5-3.6,2.8-4.6c1.3-1.1,2.9-1.6,4.8-1.6c0.7,0,1.4,0.1,2.1,0.2l0.1-2.8
		c-0.5-0.2-1.2-0.3-2-0.3C559.9,191.4,557.3,193,555.7,196.3z"/>
	<path d="M584.5,206.1c-1.3-0.7-3.3-1.4-6-2c-2.7-0.6-4.5-1.3-5.5-2.1c-1-0.8-1.5-1.8-1.5-3.2c0-1.4,0.6-2.6,1.8-3.5
		c1.2-0.9,2.8-1.3,4.8-1.3c2.1,0,3.8,0.5,5.1,1.6c1.4,1.1,2,2.4,2,4h3.1c0-2.4-0.9-4.4-2.8-6c-1.9-1.5-4.3-2.3-7.4-2.3
		c-2.8,0-5.2,0.7-7,2.1c-1.8,1.4-2.7,3.2-2.7,5.4c0,1.4,0.3,2.5,1,3.5c0.7,1,1.7,1.8,3,2.5c1.4,0.7,3.3,1.3,5.7,1.8
		c2.4,0.5,4.3,1.2,5.5,2.2c1.2,0.9,1.8,2.1,1.8,3.6c0,1.4-0.7,2.6-2,3.5c-1.3,0.9-3,1.4-5.1,1.4c-2.3,0-4.1-0.5-5.5-1.5
		c-1.4-1-2.1-2.4-2.3-4.2h-3.1c0,2.4,1,4.3,3,5.9c2,1.6,4.6,2.3,7.8,2.3c3,0,5.5-0.7,7.4-2.1s2.8-3.3,2.8-5.6c0-1.4-0.3-2.6-1-3.6
		C586.9,207.7,585.9,206.8,584.5,206.1z"/>
	<path d="M597.6,216.2c-0.4-0.4-0.9-0.6-1.5-0.6s-1.2,0.2-1.5,0.6c-0.4,0.4-0.6,0.9-0.6,1.5c0,0.6,0.2,1,0.6,1.4
		c0.4,0.4,0.9,0.6,1.5,0.6c0.6,0,1.2-0.2,1.5-0.6c0.4-0.4,0.6-0.9,0.6-1.4C598.1,217.1,598,216.6,597.6,216.2z"/>
	<polygon points="597.3,209.1 597.5,182.3 594.3,182.3 594.5,209.1 	"/>
	<polygon points="603.1,180.5 606.9,180.5 606.9,190.5 608.4,190.5 608.4,180.5 612.1,180.5 612.1,179.2 603.1,179.2 	"/>
	<path d="M619.3,187c-0.3,0.8-0.5,1.4-0.6,1.8c-0.1-0.4-0.3-0.9-0.5-1.7l-2.7-8h-2.3v11.3h1.4v-9.6l3.3,9.6h1.4l3.3-9.5v9.5h1.4
		v-11.3h-2L619.3,187z"/>
	<g>
		<g class="st0">
			<path class="st1" d="M243.1,214.3c0-4.5-51.5-8.1-114.9-8.1s-114.9,3.6-114.9,8.1c0,2.7,18.3,5,46.4,6.5
				c-0.5,0.2-0.7,0.5-0.7,0.8c0,2,14.7,3.7,32.9,3.7c15.6,0,28.7-1.2,32.1-2.8c1.4,0,2.8,0,4.2,0c4.2,0,8.4,0,12.5,0
				c3.2,1.6,16.4,2.9,32.2,2.9c18.2,0,32.9-1.6,32.9-3.7c0-0.4-0.6-0.8-1.8-1.2C228,218.9,243.1,216.7,243.1,214.3z"/>
		</g>
		<g>
			<path class="st2" d="M220.3,66.5c1.9,0.8,3.7,2.3,5.8,2.4c0.2,0,0.5,0,0.7,0c5.2-0.1,4.9-4.2,7.7-7.4c0.9-1.1,2.2-1.9,3.4-2.5
				c9.2-4.5,24.2,0.6,23.3,12.3c-0.3,3.9-2,7.5-4,10.9c-5.3,8.9-14.3,12.5-20.9,20.1c-1.6,1.8-3.3,3.4-5.1,4.9
				c-1.9,1.6-3,3.1-4.3,5.2c-3.3,5.1-7.1,9.9-10.4,15c-3.1,4.7-6,9.4-8.9,14.3c-1.1,1.9-3.8,8.5-7,7.5c-3.5-1-2.2-11.3-3.7-14
				c-2.7-4.9-5-7.6-4.4-13.7c0.3-3.3,1.9-6.1,3.9-8.6c1.3-1.6,2.3-3.5,3.4-5.2c0.6-1,3.1-3.6,3.1-4.7c1.6-2.4,3.1-5.1,5-7.3
				c2.3-2.6,4.3-5.6,6.3-8.5c1-1.4,1.9-3,2.2-4.7c0.4-2.4-0.8-4.3-1.4-6.5C214.1,72,213.8,63.7,220.3,66.5z"/>
		</g>
		<g>
			<path d="M201.9,151c1.3-2.2,2.6-4.4,3.9-6.6c1.3-2.2,2.6-4.4,3.8-6.7c2.5-4.5,5-8.9,7.7-13.3c2.7-4.4,5.5-8.7,8.7-12.8
				c3.2-4.1,6.7-8,10.5-11.5c1.9-1.8,3.9-3.5,6-5c2-1.6,4-3.2,5.8-4.9c1.8-1.7,3.6-3.5,5.1-5.4c0.8-0.9,1.5-2,2.2-3
				c0.6-1,1.2-2.1,1.7-3.2c0.9-2.2,1.4-4.5,1.3-6.8c-0.1-2.3-0.8-4.6-1.7-6.9c-0.5-1.1-1-2.3-1.5-3.4c-0.6-1.1-1.1-2.3-1.7-3.4
				c-0.6-1.1-1.2-2.2-1.8-3.2c-0.6-1-1.3-2-2.1-2.6c-0.8-0.6-1.5-1-2.5-1c-1,0-2.1,0.2-3.2,0.6c-0.3,0.1-0.6,0.2-0.8,0.3l-0.4,0.2
				c-0.1,0.1-0.3,0.1-0.4,0.2c-0.5,0.2-0.9,0.5-1.4,0.8c-0.8,0.6-1.5,1.4-2,2.4c-1.1,2-1.8,4.4-2.4,6.8c-0.2,0.6-0.3,1.1-0.4,1.7
				c-0.1,0.6-0.2,1.2-0.2,1.8c-0.1,1.2-0.1,2.5-0.4,4c-0.2,0.7-0.4,1.6-1.1,2.4c-0.3,0.4-0.8,0.7-1.3,1c-0.5,0.2-0.9,0.3-1.4,0.4
				c-0.9,0.1-1.6,0-2.3-0.1c-0.4-0.1-0.7-0.1-1-0.2l-0.5-0.1c-0.2-0.1-0.4-0.1-0.6-0.2c-0.8-0.3-1.4-0.7-2-1.1
				c-0.6-0.4-1.1-0.8-1.6-1.2c-1-0.8-2-1.7-2.9-2.4c-0.9-0.7-2-1.4-2.8-1.6c-0.4-0.1-0.7-0.1-1,0.1c-0.3,0.1-0.6,0.4-0.9,0.8
				c-0.3,0.4-0.5,0.9-0.7,1.4c-0.2,0.5-0.3,1-0.3,1.4c-0.1,1,0.3,2.1,0.7,3.2c0.4,1.1,1,2.3,1.4,3.6c0.2,0.7,0.4,1.4,0.5,2.1
				c0.1,0.7,0.1,1.5,0.1,2.2c-0.2,1.5-0.7,2.9-1.4,4.1c-0.2,0.3-0.4,0.6-0.6,0.9c-0.2,0.3-0.4,0.6-0.6,0.8c-0.4,0.5-0.8,1-1.1,1.5
				c-3,4.1-6,8.3-9,12.5l-9,12.5c-1.5,2.1-3,4.2-4.6,6.2c-1.6,2.1-3.1,4.1-4.8,6.1l-1-0.8c1.6-2,3-4.1,4.5-6.2l4.4-6.3l8.7-12.7
				c2.9-4.2,5.8-8.5,8.7-12.7c0.4-0.5,0.8-1.1,1.1-1.6c0.2-0.3,0.4-0.5,0.5-0.7c0.2-0.2,0.3-0.5,0.5-0.7c0.6-1,0.9-2,1-3.1
				c0.1-1.1-0.1-2.1-0.5-3.2c-0.4-1.1-0.9-2.2-1.4-3.5c-0.5-1.2-1-2.7-0.9-4.3c0-0.8,0.2-1.6,0.4-2.3c0.3-0.7,0.6-1.4,1.1-2
				c0.5-0.6,1.1-1.3,2-1.7c0.4-0.2,0.9-0.3,1.4-0.4c0.5,0,0.9,0,1.4,0.1c0.9,0.2,1.6,0.5,2.2,0.9c0.6,0.4,1.2,0.8,1.7,1.2
				c1.1,0.8,2.1,1.7,3,2.4c1,0.8,2,1.5,2.8,1.9c0.1,0,0.2,0.1,0.3,0.1l0.4,0.1c0.3,0.1,0.6,0.1,0.8,0.2c0.5,0.1,1.1,0.1,1.5,0.1
				c0.2,0,0.4-0.1,0.5-0.1c0.1-0.1,0.2-0.1,0.2-0.2c0.1-0.2,0.3-0.5,0.4-1.1c0.2-1,0.2-2.3,0.3-3.6c0-0.7,0.1-1.3,0.2-2
				c0.1-0.7,0.3-1.4,0.4-2c0.3-1.3,0.7-2.5,1.1-3.8c0.4-1.3,0.9-2.6,1.6-3.8c0.7-1.3,1.7-2.5,2.9-3.4c0.6-0.5,1.3-0.9,2-1.2
				c0.2-0.1,0.3-0.1,0.5-0.2l0.5-0.2c0.3-0.1,0.6-0.2,1-0.4c1.3-0.4,2.7-0.8,4.4-0.7c0.8,0,1.6,0.2,2.4,0.5c0.8,0.3,1.5,0.8,2.1,1.3
				c1.2,1,2,2.2,2.7,3.4c0.7,1.2,1.3,2.3,1.9,3.5c0.6,1.2,1.2,2.3,1.7,3.5c0.6,1.2,1.1,2.4,1.6,3.6c1,2.5,1.8,5.2,1.9,8
				c0.1,2.8-0.5,5.7-1.6,8.2c-0.6,1.3-1.2,2.5-2,3.6c-0.8,1.1-1.5,2.2-2.4,3.2c-1.7,2-3.6,3.9-5.6,5.6c-2,1.7-4,3.3-6.1,4.9
				c-2,1.5-4,3.1-5.9,4.8c-7.6,6.7-13.9,14.7-19.6,23.3c-2.8,4.3-5.6,8.6-8.3,12.9c-1.4,2.2-2.8,4.3-4.2,6.5
				C204.8,146.8,203.4,148.9,201.9,151z"/>
		</g>
		<g>
			<path class="st2" d="M58,204.6c-1,1.6-1.9,3.3-2.8,4.9c-0.8,1.2-0.9,2.5-2.1,3.4c-2.4,1.7-3.7,1.1-6.4,0.6
				c-2.5-0.6-5-1.3-7.5-2.2c-2.5-0.9-5.3,0-7.9,0.4c-2.4,0.4-4.8,1.7-7.2,2.3c-3.6,1-7.3,0.5-10.8-0.7c-2.3-0.8-9.2-6.6-4.4-8.8
				c2.1-1,4.5-1.8,6.8-2.7c2-0.8,4.1-1.8,6.1-2.8c1.9-0.9,4-1.3,5.7-2.7c1.6-1.4,3.3-2.3,5.2-3.3c2.4-1.4,4.8-2.9,7-4.6
				c1.2-0.9,2.5-1.6,3.7-2.5c0.9-0.7,1.5-1.7,2.3-2.6c2.2-2.6,4.6-5.2,6.8-7.8c2.4-2.8,4-7.1,5.3-10.5c1.6-4.1,3.3-8.3,3.8-12.7
				c0.5-3.6,0.5-7.4,1.7-10.9c0.9-2.6,4.7-5.3,7.5-4.6c2.3,0.5,4.5,2.6,6.9,3.3c5.9,1.8,8.1,6.6,8.7,12.3c0.7,6.5-2.6,11.3-5.5,16.7
				c-3.8,7.1-5.7,15.1-10,22c-1.7,2.7-3.8,5.2-6.4,7.1C62,200.3,59.8,201.8,58,204.6z"/>
		</g>
		<g>
			<path d="M62.3,132.6c0.4,2.5,0.7,5.1,0.7,7.6c0.1,2.6,0,5.1-0.3,7.7c-0.5,5.1-1.6,10.2-3.4,15.1c-0.9,2.4-1.9,4.8-3.1,7.1
				c-1.2,2.3-2.6,4.5-4,6.7c-3,4.3-6.4,8.2-10.3,11.7c-3.9,3.5-8.3,6.4-13,8.8c-4.6,2.4-9.6,4.1-14.3,5.9c-1.2,0.4-2.4,0.9-3.4,1.4
				c-0.5,0.2-1.1,0.5-1.5,0.8c-0.4,0.3-0.8,0.6-1,0.8c-0.2,0.3-0.2,0.3-0.1,0.6c0.1,0.3,0.2,0.7,0.5,1.1c0.3,0.4,0.7,0.9,1,1.3
				c0.4,0.4,0.8,0.8,1.2,1.1c0.9,0.6,1.8,1.1,2.9,1.4c1.1,0.3,2.2,0.5,3.4,0.5c2.3,0.1,4.8-0.3,7.3-0.7c2.5-0.4,5-1,7.6-1.4
				c0.6-0.1,1.3-0.2,2-0.3c0.3,0,0.6-0.1,1.1-0.1c0.4,0,0.8,0,1.2,0c1.5,0.1,2.7,0.5,4,0.8c2.5,0.7,4.9,1.4,7.3,1.8
				c1.2,0.2,2.4,0.3,3.3,0.2c0.5-0.1,0.8-0.2,0.9-0.3c0.1-0.1,0.1-0.1,0.2-0.3c0.1-0.3,0.3-0.6,0.4-0.9c1.1-2.4,2.5-4.7,4-6.9
				c1.6-2.1,3.4-4.2,5.7-5.8c1.1-0.8,2.4-1.5,3.7-2c1.4-0.5,2.9-0.7,4.4-0.6c0.8,0.1,1.5,0.2,2.3,0.5c0.7,0.2,1.4,0.6,1.9,0.8
				c0.2,0.1,0.5,0.2,0.4,0.2c0,0-0.2,0-0.2,0.1c-0.1,0.1-0.1,0.1-0.1,0.1c0,0,0.1-0.2,0.2-0.5c0.1-0.2,0.2-0.5,0.3-0.8
				c0.2-0.5,0.3-1.2,0.4-1.7c0-0.2,0.1-0.4,0-0.5c0-0.1,0,0,0.1,0c0,0,0,0-0.2-0.1c-0.2,0-0.5-0.1-0.8-0.1c-0.3,0-0.6,0-1-0.1
				c-0.4,0-0.8-0.1-1.4-0.3c-0.3-0.1-0.6-0.3-0.8-0.6c-0.2-0.3-0.4-0.6-0.5-0.9c-0.2-0.6-0.1-1.1,0-1.5c0.1-0.4,0.2-0.8,0.3-1.1
				l0.3-0.9c0.2-0.6,0.4-1.2,0.7-1.8c0.2-0.6,0.4-1.2,0.7-1.8c1.9-4.8,3.9-9.5,5.9-14.2c2-4.7,4.1-9.4,6.2-14c1.1-2.3,2.1-4.6,3.2-7
				c1.1-2.3,2.2-4.6,3.4-6.9l1.1,0.6c-2.2,4.6-4.2,9.3-6.2,14c-2,4.7-4,9.4-5.9,14.1c-1.9,4.7-3.8,9.5-5.5,14.2
				c-0.2,0.6-0.4,1.2-0.6,1.8c-0.2,0.6-0.4,1.2-0.6,1.8l-0.3,0.9c-0.1,0.3-0.2,0.6-0.2,0.8c0,0.2,0,0.4,0,0.4c0,0,0,0,0-0.1
				c0,0-0.1-0.1,0,0c0,0,0.3,0.1,0.5,0.1c0.3,0,0.6,0,0.9,0c0.3,0,0.7,0,1.1,0.1c0.4,0.1,1,0.2,1.5,0.6c0.3,0.2,0.5,0.5,0.7,0.8
				c0.2,0.3,0.2,0.6,0.3,0.9c0.1,0.5,0,1,0,1.4c-0.1,0.7-0.3,1.3-0.4,2c-0.1,0.3-0.2,0.7-0.3,1.1c-0.2,0.4-0.3,0.8-0.7,1.2
				c-0.2,0.2-0.4,0.5-0.8,0.7c-0.4,0.2-0.8,0.3-1.2,0.2c-0.7,0-1.1-0.2-1.4-0.4c-0.7-0.3-1.2-0.5-1.7-0.7c-0.5-0.2-1-0.3-1.5-0.3
				c-1-0.1-2.1,0.1-3.2,0.5c-1,0.4-2,0.9-3,1.6c-1.9,1.4-3.5,3.2-4.9,5.2c-1.4,2-2.7,4.1-3.7,6.3c-0.1,0.3-0.2,0.6-0.4,0.8
				c-0.2,0.5-0.5,0.9-0.9,1.3c-0.8,0.8-1.8,1.1-2.6,1.2c-1.6,0.2-3,0-4.4-0.2c-2.7-0.5-5.1-1.2-7.6-1.8c-1.2-0.3-2.4-0.6-3.5-0.7
				c-0.3,0-0.5,0-0.7,0c-0.2,0-0.5,0-0.8,0.1c-0.6,0.1-1.2,0.2-1.8,0.3c-2.5,0.4-4.9,0.9-7.5,1.4c-2.6,0.4-5.2,0.8-8,0.7
				c-1.4,0-2.8-0.2-4.2-0.6c-1.4-0.4-2.7-1.1-3.9-2c-0.6-0.4-1.1-0.9-1.6-1.5c-0.2-0.3-0.5-0.6-0.7-0.8c-0.2-0.3-0.4-0.6-0.6-0.9
				c-0.4-0.6-0.8-1.4-1-2.4c-0.1-0.5-0.1-1,0-1.6c0.1-0.5,0.4-1,0.7-1.4c0.6-0.8,1.3-1.3,1.9-1.7c0.6-0.4,1.3-0.7,1.9-1
				c1.2-0.6,2.5-1,3.7-1.4c2.4-0.9,4.8-1.7,7.2-2.6c2.4-0.9,4.7-1.9,6.9-3c4.5-2.2,8.7-4.9,12.5-8.1c3.8-3.3,7.3-6.9,10.3-10.9
				c3-4,5.5-8.4,7.4-13.1c1.9-4.7,3.3-9.6,4-14.6C62.6,142.8,62.8,137.7,62.3,132.6z"/>
		</g>
		<g>
			<g>
				<path class="st3" d="M72.3,171c0.8,4.3,20.2,36.8,42.1,40.9c-1.3-3.5-1.6-5.1-1.6-5.1s16.4,9.3,52.7,1c-2.5-0.9-4.9-2.5-4.9-2.5
					s24.7-6.8,33.2-23.8c9.8-19.6-24.8-11.3-24.8-11.3l-79.7-5.8L72.3,171z"/>
			</g>
			<g>
				<path d="M72.7,171.2C72.7,171.2,72.8,171.2,72.7,171.2l0.2,0.1c0,0.1,0.1,0.3,0.2,0.4c0.1,0.3,0.2,0.6,0.4,0.8
					c0.3,0.6,0.5,1.1,0.8,1.7c0.6,1.1,1.2,2.2,1.9,3.3c1.3,2.1,2.7,4.2,4.2,6.3c2.9,4.1,6.1,8,9.6,11.6c3.5,3.6,7.2,7,11.3,9.8
					c4.1,2.8,8.6,5,13.5,5.9l0,0l-0.9,1.1c-0.2-0.9-0.5-1.7-0.7-2.6c-0.1-0.4-0.2-0.9-0.3-1.3c-0.1-0.4-0.2-0.9-0.2-1.4v0l-0.1-0.8
					l0.7,0.4c1.9,1,4.1,1.6,6.2,2.2c2.1,0.6,4.3,1,6.5,1.3c4.4,0.6,8.8,0.8,13.3,0.7c4.4-0.1,8.9-0.5,13.3-1.1
					c4.4-0.6,8.8-1.5,13.1-2.5l0,0l-0.1,1.7c-0.9-0.4-1.7-0.9-2.5-1.4c-0.8-0.5-1.6-1-2.3-1.6l0,0l-0.7-0.4l0.8-0.3
					c3.1-1,6.1-2.2,9-3.6c2.9-1.4,5.8-2.9,8.5-4.7c2.7-1.7,5.3-3.7,7.7-5.9c2.4-2.2,4.5-4.6,6.1-7.4c0.8-1.4,1.6-2.8,2.1-4.3
					c0.5-1.5,0.9-3,0.7-4.4c-0.1-0.7-0.3-1.4-0.7-2c-0.4-0.6-0.9-1.1-1.5-1.5c-1.2-0.8-2.7-1.3-4.3-1.6c-3.1-0.6-6.4-0.5-9.6-0.2
					c-3.2,0.3-6.4,0.8-9.6,1.5l-0.1,0l-0.1,0l-39.8-3l-39.8-3.1l0,0l0.2,0C83.9,167,78.3,169.1,72.7,171.2z M72,170.9
					c5.7-2.2,11.4-4.5,17.2-6.7l0.1,0l0.1,0l0,0l39.9,2.7l39.9,2.8l-0.2,0c3.2-0.7,6.5-1.3,9.8-1.6c3.3-0.3,6.6-0.4,10,0.2
					c1.7,0.3,3.4,0.8,4.8,1.8c0.7,0.5,1.4,1.2,1.9,1.9c0.5,0.8,0.8,1.7,0.9,2.6c0.2,1.8-0.2,3.6-0.8,5.1c-0.6,1.6-1.4,3.1-2.3,4.5
					c-1.8,2.8-4,5.4-6.4,7.6c-2.4,2.3-5.1,4.2-7.9,5.9c-2.8,1.7-5.7,3.3-8.8,4.6c-3,1.3-6.1,2.5-9.3,3.3l0.1-0.7l0,0
					c0.8,0.4,1.6,0.8,2.5,1.1c0.8,0.3,1.7,0.6,2.5,0.8l3.1,0.8l-3.2,0.9l0,0c-4.4,1-8.8,1.7-13.3,2.3c-4.5,0.5-9,0.9-13.4,0.9
					c-4.5,0-9-0.2-13.5-0.9c-2.2-0.3-4.4-0.8-6.6-1.4c-2.2-0.6-4.3-1.3-6.4-2.4l0.6-0.4l0,0c0.1,0.4,0.3,0.8,0.4,1.2
					c0.2,0.4,0.3,0.8,0.5,1.2c0.3,0.8,0.7,1.6,1.1,2.4l0.6,1.3l-1.6-0.2l0,0c-5.1-1-9.8-3.4-14-6.3c-4.2-2.9-7.9-6.4-11.4-10.1
					c-3.4-3.7-6.6-7.7-9.5-11.9c-1.4-2.1-2.8-4.2-4.1-6.4c-0.6-1.1-1.3-2.2-1.8-3.3c-0.3-0.6-0.6-1.1-0.8-1.7
					c-0.1-0.3-0.3-0.6-0.4-0.9c-0.1-0.2-0.1-0.3-0.2-0.5l-0.1-0.2C71.9,171.2,71.9,171,72,170.9z"/>
			</g>
		</g>
		<g>
			<path class="st4" d="M89.4,159.7c-6.5,10.8,5.2,31.7,18.7,36.7c-1-3.2,0.8-7.4,0.8-7.4s1.7,17.2,35.6,14.6
				c-2.1-1.3-3.9-4.9-3-4.6c13.2,4.3,27.9-4.2,26.4-5.2c-3.9-2.6,4.8-1.4,13.7-11.9c-11.7-4.6-8.8-22.5-8.8-22.5l-17-1.8l-52-0.3
				L89.4,159.7z"/>
		</g>
		<g>
			<g>
				<path class="st3" d="M72.5,168.7c-15.9-25.9-13.5-47.5-10.2-63.8c0,0,2.9,3.2,6.3,3.8c-1.9-5.9-3.8-12.7-0.6-21.1l4.2,3.6
					c0,0-1-20.8,26.8-33.5l-1.9,9.5c0,0,14.5-25.4,68.8-13c-5.7,3.5-8.2,8.6-8.2,8.6s29.2-9.3,47.9,29.8c-5.1-3-9.5-2.1-9.5-2.1
					s19.7,20.2,13.8,45l-3.6-4c0,0,3.6,23.3-9.2,41.2c0,0-12.4-12.3-31.4-12.2s-67-3-70-2.4C92.8,158.4,72.5,168.7,72.5,168.7z"/>
			</g>
			<g>
				<path d="M72.4,169.1c-0.8-1.2-1.7-2.6-2.4-3.8c-0.7-1.2-1.3-2.4-2-3.7c-1.3-2.5-2.4-5-3.5-7.6c-2.1-5.2-3.6-10.6-4.5-16.1
					c-0.9-5.5-1.2-11.1-0.9-16.7c0.3-5.6,1.1-11.1,2.2-16.6l0.4-1.9l1.4,1.4l0,0c0.3,0.4,0.7,0.9,1.2,1.3c0.4,0.4,0.9,0.8,1.3,1.2
					c0.9,0.7,2,1.3,3.1,1.7l-0.5,0.5l0,0c-1.2-3.4-2.3-6.9-2.6-10.6c-0.2-1.8-0.1-3.7,0.1-5.5c0.2-1.8,0.7-3.7,1.3-5.4l0.4-1.2
					l1.1,0.8l0,0l3.9,4l-0.7,0.3l0,0c0-1,0-1.9,0.1-2.9c0.1-1,0.3-1.9,0.5-2.8c0.4-1.9,1-3.7,1.7-5.5c0.7-1.8,1.6-3.5,2.6-5.1
					c1-1.6,2.2-3.2,3.4-4.7c1.2-1.5,2.6-2.8,4-4.2c0.7-0.6,1.4-1.3,2.2-1.9l1.1-0.9l1.2-0.9c3.1-2.3,6.4-4.2,9.9-5.8l2-1l-0.4,2.2
					l0,0l-2.6,9.3l-0.7-0.3l0,0c0.8-1.4,1.9-2.6,2.9-3.7c1.1-1.1,2.3-2.1,3.5-3.1c2.5-1.9,5.2-3.5,8-4.8c2.8-1.3,5.8-2.3,8.8-3.1
					c3-0.8,6.1-1.3,9.2-1.7c6.2-0.7,12.4-0.7,18.6-0.2c6.2,0.5,12.3,1.5,18.4,2.8l2.5,0.5l-2.1,1.4h0c-0.8,0.5-1.7,1-2.4,1.5
					c-0.8,0.6-1.5,1.2-2.2,1.8c-0.7,0.7-1.4,1.4-2,2.1c-0.6,0.7-1.2,1.5-1.7,2.4l-0.5-0.6h0c2.5-0.7,5.1-1,7.7-1.1
					c2.6,0,5.2,0.2,7.7,0.7c5.1,1,10,3.2,14.2,6.1c4.3,3,8,6.7,11.2,10.8c3.2,4.1,5.9,8.6,8.2,13.2l1.6,3.2l-3.2-1.7l0,0
					c-0.6-0.4-1.3-0.8-2-1.2c-0.7-0.4-1.4-0.6-2.2-0.9c-0.7-0.2-1.5-0.4-2.3-0.5c-0.8-0.1-1.6-0.2-2.3-0.1l0.2-0.7l0,0
					c2.9,3,5.3,6.3,7.4,9.8c2.2,3.5,4,7.2,5.4,11.1c1.4,3.9,2.3,8,2.6,12.1c0.3,4.1,0,8.4-0.9,12.4l0,0l-0.7,2.1l-1.1-1.6l-3.1-4.5
					l0,0l0.7-0.3c0.5,3.6,0.6,7.2,0.6,10.9c-0.1,3.6-0.5,7.2-1.2,10.8c-0.7,3.6-1.7,7.1-3,10.5c-1.3,3.4-3.1,6.7-5.2,9.7l0,0l-0.7,1
					l-0.9-0.8c-0.9-0.9-2-1.7-3-2.5c-1.1-0.8-2.2-1.6-3.3-2.3c-2.3-1.4-4.6-2.7-7.1-3.7c-2.4-1-5-1.9-7.6-2.5
					c-2.6-0.6-5.2-0.9-7.9-1.1c-0.7,0-1.3,0-2,0l-2,0l-4.1-0.1c-2.7-0.1-5.4-0.2-8.1-0.2c-5.4-0.2-10.8-0.4-16.3-0.7
					c-10.8-0.5-21.7-1.1-32.5-1.6c-1.4-0.1-2.7-0.1-4.1-0.1c-0.7,0-1.4,0-2,0c-0.3,0-0.6,0-0.9,0.1c-0.3,0.1-0.6,0.2-0.9,0.3
					c-2.5,0.9-5,2.1-7.4,3.2c-2.5,1.1-4.9,2.3-7.3,3.5l-3.7,1.8l-1.8,0.9l-0.9,0.5l-0.5,0.2l-0.2,0.1l-0.1,0.1l-0.1,0
					C72.7,169.1,72.5,169.1,72.4,169.1z M72.7,168.3c-0.1,0-0.2,0-0.2,0l0,0L72.7,168.3l0.2-0.2l0.5-0.2l0.9-0.5l1.8-0.9l3.6-1.8
					c2.4-1.2,4.9-2.4,7.3-3.6c2.5-1.2,4.9-2.3,7.5-3.3c0.3-0.1,0.6-0.2,1-0.3c0.4-0.1,0.8-0.1,1.1-0.1c0.7,0,1.4,0,2.1,0
					c1.4,0,2.7,0.1,4.1,0.1c10.8,0.4,21.7,0.9,32.5,1.3c5.4,0.2,10.8,0.4,16.2,0.6c2.7,0.1,5.4,0.1,8.1,0.2l4.1,0l2,0
					c0.7,0,1.4,0,2.1,0c2.8,0.1,5.5,0.4,8.2,1c2.7,0.6,5.3,1.4,7.9,2.5c2.6,1,5,2.3,7.4,3.8c1.2,0.7,2.3,1.5,3.4,2.3
					c1.1,0.8,2.2,1.7,3.2,2.7l-1.5,0.1l0,0c2.1-2.8,3.9-5.9,5.2-9.2c1.4-3.2,2.5-6.6,3.2-10.1c0.8-3.5,1.2-7,1.4-10.6
					c0.2-3.6,0.2-7.2-0.2-10.7l-0.1-1.3l0.8,1l0,0l4.1,3.6L209,135l0,0c1-3.8,1.4-7.8,1.2-11.8c-0.2-4-1-7.9-2.2-11.8
					c-1.2-3.8-2.9-7.5-4.9-11c-2-3.5-4.4-6.8-7-9.8l0,0l-0.6-0.5l0.8-0.2c0.9-0.2,1.7-0.3,2.6-0.3c0.9,0,1.7,0.1,2.6,0.2
					c0.8,0.2,1.7,0.3,2.5,0.6c0.8,0.3,1.6,0.6,2.4,1l0,0l-1.6,1.5c-2.1-4.6-4.6-9-7.6-13c-3-4-6.5-7.7-10.6-10.7
					c-4.1-2.9-8.7-5.1-13.6-6.2c-2.5-0.6-5-0.9-7.5-0.9c-2.5,0-5.1,0.2-7.5,0.8h0l-0.9,0.3l0.4-0.9c0.4-1,0.9-1.8,1.5-2.7
					c0.6-0.8,1.2-1.7,1.9-2.5c0.7-0.8,1.4-1.5,2.2-2.2c0.8-0.7,1.6-1.3,2.4-1.9h0l0.3,2c-6-1.4-12-2.5-18.1-3.1
					c-6.1-0.6-12.2-0.7-18.3-0.1c-3,0.3-6,0.8-9,1.5c-3,0.7-5.9,1.7-8.6,2.9c-2.8,1.2-5.4,2.7-7.9,4.5c-1.2,0.9-2.4,1.9-3.5,3
					c-1.1,1.1-2.1,2.2-2.9,3.5l0,0l-1,2.1l0.3-2.4l1.1-9.6l0,0l1.6,1.3c-3.4,1.5-6.7,3.2-9.7,5.3l-1.1,0.8l-1.1,0.8
					c-0.8,0.5-1.4,1.2-2.2,1.7c-1.4,1.2-2.7,2.5-4,3.9c-1.2,1.4-2.4,2.8-3.4,4.4c-1,1.5-1.9,3.2-2.7,4.9c-0.8,1.7-1.4,3.4-1.9,5.2
					c-0.5,1.8-0.8,3.7-0.8,5.5l0,0l0.1,0.9L72,91.5l-4.6-3.1l0,0l1.5-0.4c-0.6,1.6-1.2,3.3-1.5,5S67,96.4,67,98.2
					c0.1,3.5,1,7,2,10.4l0,0l0.2,0.6l-0.7-0.1c-1.3-0.2-2.6-0.6-3.7-1.3c-0.6-0.3-1.1-0.7-1.7-1c-0.5-0.4-1-0.8-1.6-1.3l0,0l1.7-0.5
					c-1.2,5.4-2.1,10.8-2.4,16.3c-0.4,5.5-0.2,11,0.6,16.4c0.8,5.4,2.2,10.8,4.1,15.9c1,2.6,2.1,5.1,3.3,7.6
					c0.6,1.2,1.2,2.5,1.9,3.7c0.3,0.6,0.7,1.2,1,1.7C72.1,167.2,72.4,167.7,72.7,168.3z"/>
			</g>
		</g>
		<g>
			
				<ellipse transform="matrix(2.069975e-02 -0.9998 0.9998 2.069975e-02 2.0571 262.0528)" class="st5" cx="134.8" cy="130" rx="33.1" ry="17"/>
		</g>
		<g>
			<path class="st6" d="M113.2,92.9c-32-7.5-37.9,18.1-37.9,18.1s-5-4.2-4.5-17.1c3.5,9.4,6.5,10.4,8.7,11c0.8,0.2,0,0-0.3-0.8
				c-6-13.8,4.3-32.8,14.4-39.2c-3,10-1.6,16,1.1,23.1c0.5-2.1-1.6-32.9,60.3-31.6c0,0-8.1,8.2-8.6,15.3
				c10.3-5.8,34.6-2.1,52.2,13.8c0,0-8.5-2.4-11.4,2c14.7,9,22.2,26.6,20.1,38.9c-5.2-6.5-22.7-33.5-30-26.6
				c-10.2-11.5-32.9,1-41.6,16.6C135.6,116.4,119.6,94.4,113.2,92.9z"/>
		</g>
		<g>
			<g>
				<path class="st7" d="M125.3,125.9c0.5,16.8-1.7,31.1-15.1,32.9c-10.5,1.4-20.7-11.4-23.5-26.4c-3-16.7-4.1-31.1,14.9-36
					S124.6,103.5,125.3,125.9z"/>
			</g>
			<g>
				<path d="M125.9,125.9c0.1,3.5,0.1,7.1-0.1,10.7c-0.2,3.6-0.7,7.1-1.8,10.6c-0.5,1.7-1.2,3.4-2.2,5c-0.9,1.6-2.1,3.1-3.6,4.2
					c-1.4,1.2-3.1,2.1-4.9,2.7c-0.9,0.3-1.8,0.5-2.7,0.6c-0.9,0.2-1.9,0.2-2.8,0.2c-1.9-0.1-3.8-0.6-5.4-1.4
					c-1.7-0.8-3.2-1.9-4.6-3.1c-2.7-2.4-4.9-5.4-6.7-8.5c-1.7-3.2-3-6.5-3.9-10c-0.5-1.7-0.8-3.5-1.1-5.2c-0.3-1.7-0.6-3.5-0.8-5.3
					c-0.5-3.5-0.8-7.1-0.6-10.6c0.2-3.5,0.9-7.2,2.7-10.3c0.9-1.6,2.1-3,3.4-4.2c1.4-1.2,2.9-2.2,4.5-3c1.6-0.8,3.3-1.4,5-1.9
					c1.7-0.5,3.5-0.9,5.2-1.1c1.8-0.2,3.6-0.3,5.3-0.2c1.8,0.2,3.6,0.6,5.2,1.5c1.6,0.8,3,2.1,4.1,3.5c1.1,1.4,1.9,3.1,2.5,4.7
					c1.3,3.4,1.9,6.9,2.4,10.4C125.5,118.8,125.8,122.3,125.9,125.9z M124.6,125.9c-0.1-3.5-0.2-7-0.6-10.5c-0.4-3.5-0.9-7-2.1-10.3
					c-0.6-1.6-1.3-3.2-2.4-4.6c-1-1.4-2.3-2.6-3.8-3.4c-1.5-0.8-3.2-1.3-5-1.4c-1.7-0.2-3.5,0-5.2,0.2c-3.4,0.6-6.9,1.6-10,3.1
					c-1.6,0.8-3,1.7-4.3,2.9c-1.3,1.1-2.4,2.5-3.3,3.9c-1.8,3-2.5,6.5-2.7,9.9c-0.1,1.7,0,3.5,0.1,5.3c0.1,1.7,0.3,3.5,0.6,5.2
					c0.3,1.7,0.6,3.5,0.9,5.2c0.3,1.7,0.7,3.4,1.2,5.1c1,3.3,2.4,6.5,4.2,9.5c1.8,3,3.9,5.7,6.6,7.9c1.3,1.1,2.7,2,4.2,2.7
					c1.5,0.7,3.1,1.1,4.7,1.3c0.8,0.1,1.6,0,2.4-0.1c0.8-0.1,1.7-0.3,2.4-0.5c1.6-0.5,3.1-1.2,4.4-2.3c2.6-2.1,4.3-5.1,5.4-8.4
					c1.1-3.3,1.6-6.7,1.9-10.2C124.7,133,124.7,129.4,124.6,125.9z"/>
			</g>
		</g>
		<g>
			<path d="M130.2,125.2c0.8,16.9-1.9,29.7-15.3,31.4c-10,1.2-20.5-9.8-23.2-24.8c-3-16.7-4.1-31.1,14.9-36
				C125.5,90.7,129,100.7,130.2,125.2z"/>
			<path d="M113.3,156.9c-9.8,0-19.4-10.8-22-25.1c-3.1-17-4.1-31.4,15.1-36.4c7.4-1.9,12.6-1.6,16.2,1c5.6,4.1,7.2,14.1,8,28.8l0,0
				c0.5,9.6-0.3,16.5-2.3,21.5c-2.5,6-6.8,9.4-13.3,10.2C114.4,156.9,113.8,156.9,113.3,156.9z M114.7,94.8c-2.3,0-5,0.4-8.2,1.2
				c-18.6,4.9-17.7,19-14.6,35.7c2.7,14.7,12.9,25.7,22.9,24.5c11.4-1.4,16.1-11,15-31l0,0c-0.7-14.5-2.3-24.3-7.7-28.3
				C120.2,95.5,117.8,94.8,114.7,94.8z"/>
		</g>
		<g>
			<g>
				<path class="st7" d="M145.2,129.3c2,16.8,9.7,31.9,23.3,30.6c10.5-1,17.1-15.5,16.8-31c-0.4-16.2-3.1-31.2-22.7-31.7
					C142.9,96.7,142.2,103.5,145.2,129.3z"/>
			</g>
			<g>
				<path d="M145.8,129.2c0.5,3.5,1.2,7,2.2,10.3c1,3.4,2.3,6.6,4.1,9.6c1.8,3,4,5.7,6.9,7.5c2.8,1.8,6.2,2.6,9.6,2.2
					c1.6-0.2,3.2-0.7,4.6-1.6c1.4-0.8,2.7-2,3.8-3.3c2.2-2.6,3.8-5.7,5-9c1.2-3.3,1.9-6.7,2.2-10.2c0.2-1.7,0.3-3.5,0.3-5.2
					c0-1.8-0.1-3.5-0.1-5.3c-0.2-3.5-0.5-7-1.3-10.5c-0.8-3.4-2.1-6.7-4.3-9.4c-1.1-1.4-2.4-2.5-3.8-3.5c-1.4-1-3-1.7-4.7-2.2
					c-1.7-0.5-3.4-0.8-5.1-1c-1.7-0.2-3.5-0.2-5.3-0.2c-1.8,0-3.5,0.1-5.3,0.4c-1.7,0.3-3.5,0.7-5,1.5c-1.5,0.8-2.8,2.1-3.6,3.6
					c-0.8,1.5-1.2,3.3-1.4,5c-0.4,3.5-0.2,7.1,0.1,10.6C144.9,122.1,145.3,125.7,145.8,129.2z M144.6,129.3c-0.4-3.5-0.7-7.1-1-10.7
					c-0.2-3.6-0.4-7.2,0.1-10.7c0.3-1.8,0.7-3.6,1.6-5.2c0.8-1.6,2.2-3,3.9-3.9c1.6-0.9,3.4-1.3,5.2-1.6c1.8-0.3,3.6-0.4,5.4-0.4
					c1.8,0,3.6,0,5.4,0.1c1.8,0.2,3.6,0.5,5.3,1c1.7,0.5,3.4,1.3,5,2.2c1.5,1,2.9,2.2,4.1,3.6c2.4,2.8,3.8,6.3,4.7,9.8
					c0.9,3.5,1.3,7.1,1.6,10.7c0.1,1.8,0.2,3.6,0.2,5.4c0,1.8,0,3.6-0.2,5.4c-0.3,3.6-1,7.2-2.2,10.6c-1.2,3.4-2.8,6.8-5.3,9.6
					c-1.2,1.4-2.6,2.7-4.3,3.7c-1.6,1-3.5,1.6-5.4,1.8c-1.9,0.2-3.8,0.1-5.6-0.3c-1.8-0.4-3.6-1.2-5.1-2.3c-3.1-2.1-5.5-5.1-7.3-8.2
					c-1.8-3.2-3.1-6.6-4.1-10C145.7,136.4,145,132.9,144.6,129.3z"/>
			</g>
		</g>
		<g>
			<g>
				<path d="M150.2,127.2c2.3,16.8,10.6,34.9,23.1,29.7c7.4-3.1,16.5-14.3,17-29.4c0.7-21.4-3.1-31.2-22.7-31.7
					S146.8,102.3,150.2,127.2z"/>
			</g>
			<g>
				<path d="M150.9,127.1c0.5,3.5,1.2,6.9,2.2,10.2c1,3.3,2.2,6.6,3.9,9.7c0.8,1.5,1.7,3,2.8,4.3c1,1.4,2.2,2.6,3.6,3.6
					c1.3,1,2.9,1.7,4.4,1.9c1.6,0.2,3.2,0,4.8-0.6c1.5-0.6,3-1.5,4.3-2.5c1.4-1,2.6-2.2,3.7-3.5c1.2-1.3,2.2-2.6,3.2-4.1
					c0.9-1.4,1.8-3,2.5-4.5c1.5-3.1,2.6-6.5,3.1-9.9c0.3-1.7,0.5-3.4,0.5-5.2c0.1-1.8,0.1-3.5,0.1-5.3c0-1.8-0.1-3.5-0.2-5.3
					c-0.2-1.7-0.4-3.5-0.8-5.2c-0.4-1.7-0.9-3.4-1.7-4.9c-0.7-1.6-1.7-3-2.9-4.2c-1.2-1.2-2.6-2.2-4.2-3c-1.6-0.8-3.2-1.3-4.9-1.7
					c-3.4-0.8-6.9-1-10.4-1c-1.8,0-3.5,0.1-5.2,0.3c-1.7,0.3-3.4,0.7-5,1.4c-1.5,0.8-2.9,1.9-3.7,3.4c-0.9,1.5-1.3,3.2-1.6,4.9
					c-0.2,1.7-0.3,3.5-0.2,5.2c0,1.7,0.2,3.5,0.3,5.2C149.8,120.1,150.3,123.6,150.9,127.1z M149.6,127.3c-0.4-3.5-0.8-7-1.1-10.6
					c-0.1-1.8-0.2-3.5-0.2-5.3c0-1.8,0.1-3.6,0.4-5.3c0.3-1.8,0.8-3.5,1.8-5.1c0.9-1.6,2.4-2.8,4-3.6c1.6-0.8,3.4-1.2,5.1-1.5
					c1.8-0.3,3.5-0.4,5.3-0.4c3.5-0.1,7.1,0,10.6,0.8c1.7,0.4,3.5,0.9,5.1,1.7c1.6,0.8,3.1,1.9,4.4,3.2c1.3,1.3,2.2,2.9,3,4.5
					c0.7,1.6,1.3,3.4,1.6,5.1c0.8,3.5,1,7,1.1,10.6c0.1,1.8,0.1,3.5,0,5.3c0,1.8-0.1,3.6-0.3,5.3c-0.4,3.6-1.4,7.1-2.8,10.4
					c-1.4,3.3-3.3,6.4-5.7,9.2c-2.4,2.7-5.3,5.1-8.8,6.5c-1.8,0.6-3.8,0.9-5.7,0.6c-1.9-0.3-3.7-1.2-5.2-2.3
					c-1.5-1.1-2.8-2.5-3.9-3.9c-1.1-1.5-2-3-2.9-4.6c-1.6-3.2-2.9-6.6-3.8-10C150.8,134.3,150.1,130.8,149.6,127.3z"/>
			</g>
		</g>
		<g>
			<g>
				<path class="st8" d="M68.7,128.9c6.5-11.7,28.4-42.3,58.7-23.9C129.1,81,94,75.3,76.3,97.7c6.8,0.6,7.5,1.5,7.5,1.5
					S71.3,101.9,68.7,128.9z"/>
			</g>
			<g>
				<g>
					<path d="M68.8,128.6c0-0.1,0-0.2-0.1-0.3c0-0.1-0.1-0.1-0.1-0.1c0,0,0.1-0.1,0.1-0.2l0.1-0.2l0.5-1c0.4-0.7,0.8-1.3,1.1-1.9
						c0.8-1.3,1.6-2.5,2.5-3.8c1.7-2.5,3.6-4.9,5.6-7.1c4-4.5,8.7-8.5,14.1-11.4c2.7-1.4,5.6-2.6,8.6-3.3c3-0.7,6.1-1,9.2-0.7
						c3.1,0.2,6.1,0.9,9,2c2.9,1.1,5.6,2.5,8.1,4.2l0,0L127,105c0.1-2.8-0.3-5.6-1.3-8.2c-0.5-1.3-1.1-2.5-1.9-3.6s-1.7-2.1-2.7-3
						c-2-1.8-4.5-3.2-7-4.1c-2.6-0.9-5.3-1.4-8.1-1.5c-5.5-0.2-11.1,1-16.1,3.3c-5,2.3-9.6,5.8-13.3,10.1l-0.3-0.6
						c1.3,0,2.6,0.1,3.9,0.2c0.6,0.1,1.3,0.1,2,0.3c0.3,0.1,0.7,0.1,1,0.2c0.2,0,0.3,0.1,0.5,0.2c0.1,0,0.2,0.1,0.3,0.1
						c0.1,0,0.1,0,0.2,0.1c0.1,0.1,0.1,0,0.3,0.2l0,0l1,1.1l-1.4,0.3c-0.2,0.1-0.6,0.2-0.9,0.3c-0.3,0.1-0.6,0.3-0.9,0.4
						c-0.6,0.3-1.2,0.7-1.7,1.1c-1.1,0.8-2.1,1.8-3,2.9c-1.8,2.2-3.2,4.7-4.3,7.3c-1.1,2.6-2,5.4-2.6,8.2c-0.3,1.4-0.6,2.8-0.8,4.3
						l-0.3,2.1c0,0.3-0.1,0.6-0.2,0.8C69,127.9,68.9,128.2,68.8,128.6z M68.6,129.3c0-0.4-0.1-0.8-0.1-1.2c0-0.4,0-0.9,0-1.3l0-0.3
						l0-0.3l0.1-0.5l0.1-1.1c0.2-1.5,0.4-2.9,0.7-4.3c0.6-2.9,1.4-5.7,2.4-8.5c1.1-2.8,2.5-5.4,4.3-7.8c0.9-1.2,2-2.3,3.2-3.2
						c0.6-0.5,1.2-0.9,1.9-1.3c0.3-0.2,0.7-0.4,1-0.5c0.4-0.2,0.7-0.3,1.2-0.4l-0.5,1.4l0,0c0.1,0.1,0.1,0.1,0.1,0.1c0,0,0,0,0,0
						c0,0-0.1-0.1-0.1-0.1c-0.1-0.1-0.2-0.1-0.4-0.2c-0.3-0.1-0.6-0.2-0.9-0.3c-0.6-0.2-1.2-0.3-1.8-0.5c-1.2-0.3-2.5-0.5-3.7-0.7
						L75.6,98l0.4-0.5c3.4-4.7,7.9-8.6,13.1-11.2c5.2-2.6,11.1-3.9,17-3.7c2.9,0.1,5.9,0.7,8.6,1.7c2.8,1,5.4,2.5,7.5,4.6
						c2.2,2,3.8,4.6,4.7,7.4c0.9,2.8,1.2,5.8,0.8,8.7l-0.1,0.6l-0.5-0.3l0,0c-5.2-2.8-10.9-4.8-16.7-5.1c-5.8-0.3-11.7,1.1-16.8,3.8
						c-2.6,1.4-5.1,3-7.4,4.8c-2.3,1.8-4.5,3.9-6.5,6c-2,2.2-3.9,4.5-5.7,6.8c-0.9,1.2-1.8,2.4-2.6,3.6c-0.4,0.6-0.8,1.2-1.2,1.9
						l-0.6,0.9l-0.3,0.5c-0.1,0.1-0.2,0.3-0.3,0.4C68.8,129.2,68.7,129.2,68.6,129.3z"/>
				</g>
			</g>
		</g>
		<g>
			<g>
				<path class="st8" d="M202.4,130.7c-6-12-26.6-43.4-57.6-26.3c-0.8-24.1,34.6-28.3,51.4-5.2c-6.8,0.4-7.5,1.1-7.5,1.1
					S201,103.6,202.4,130.7z"/>
			</g>
			<g>
				<g>
					<path d="M202.5,131.1c-0.1-0.1-0.2-0.1-0.3-0.2c-0.1-0.1-0.3-0.3-0.3-0.4l-0.3-0.5l-0.6-1c-0.4-0.6-0.8-1.3-1.1-1.9
						c-0.8-1.3-1.6-2.5-2.4-3.7c-1.7-2.4-3.5-4.8-5.4-7.1c-1.9-2.2-4-4.3-6.3-6.3c-2.2-1.9-4.6-3.7-7.2-5.1
						c-5.1-3-10.8-4.6-16.7-4.5c-5.8,0-11.6,1.8-16.9,4.4l0,0l-0.5,0.3l0-0.6c-0.2-2.9,0.1-5.9,1.2-8.6c1-2.8,2.8-5.3,5.1-7.2
						c2.2-2,4.9-3.4,7.7-4.3c2.8-0.9,5.8-1.3,8.7-1.4c5.9,0,11.7,1.6,16.8,4.4c5.1,2.8,9.5,6.9,12.6,11.7l0.4,0.5l-0.6,0.1
						c-1.3,0.1-2.5,0.3-3.8,0.5c-0.6,0.1-1.2,0.2-1.8,0.4c-0.3,0.1-0.6,0.2-0.9,0.3c-0.1,0-0.3,0.1-0.4,0.2c-0.1,0-0.1,0.1-0.2,0.1
						c0,0,0,0,0,0c0,0-0.1,0.1,0.1-0.1l0,0l-0.4-1.4c0.5,0.1,0.8,0.3,1.2,0.5c0.4,0.2,0.7,0.4,1,0.6c0.7,0.4,1.3,0.9,1.8,1.4
						c1.2,1,2.1,2.2,3,3.4c1.8,2.4,3,5.2,4,8c1,2.8,1.6,5.7,2.1,8.6c0.2,1.5,0.4,2.9,0.5,4.4l0.1,1.1l0,0.5l0,0.3l0,0.3
						c0,0.4,0,0.9,0,1.3C202.6,130.3,202.6,130.7,202.5,131.1z M202.3,130.3c-0.1-0.4-0.2-0.7-0.3-1c-0.1-0.3-0.2-0.6-0.2-0.8
						l-0.2-2.1c-0.2-1.4-0.4-2.9-0.7-4.3c-0.5-2.8-1.3-5.6-2.3-8.3c-1-2.7-2.3-5.3-4-7.5c-0.9-1.1-1.8-2.2-2.9-3
						c-0.5-0.4-1.1-0.9-1.7-1.2c-0.3-0.2-0.6-0.3-0.9-0.5c-0.3-0.1-0.6-0.3-0.9-0.3l-1.4-0.4l1-1l0,0c0.2-0.2,0.2-0.2,0.3-0.2
						c0.1,0,0.1-0.1,0.2-0.1c0.1,0,0.2-0.1,0.3-0.1c0.2-0.1,0.4-0.1,0.5-0.1c0.3-0.1,0.7-0.1,1-0.2c0.7-0.1,1.3-0.1,2-0.2
						c1.3-0.1,2.6-0.1,3.9-0.1l-0.3,0.6c-3.5-4.4-7.9-8.1-12.8-10.6c-4.9-2.5-10.4-4-16-4c-2.8,0-5.5,0.4-8.1,1.2
						c-2.6,0.8-5.1,2-7.2,3.8c-1,0.9-2,1.8-2.8,2.9c-0.8,1.1-1.5,2.3-2.1,3.5c-1.1,2.5-1.6,5.3-1.6,8.1l-0.6-0.3l0,0
						c2.6-1.6,5.3-2.9,8.2-3.9c2.9-0.9,5.9-1.5,9-1.6c3.1-0.1,6.2,0.3,9.1,1.1c3,0.8,5.8,2.1,8.4,3.6c5.3,3.1,9.8,7.3,13.6,12
						c1.9,2.3,3.7,4.8,5.3,7.3c0.8,1.3,1.6,2.6,2.3,3.9c0.4,0.7,0.7,1.3,1.1,2l0.5,1l0.1,0.3c0,0.1,0.1,0.2,0.1,0.2c0,0,0,0-0.1,0.1
						C202.4,130.1,202.3,130.2,202.3,130.3z"/>
				</g>
			</g>
		</g>
		<g>
			
				<ellipse transform="matrix(2.069970e-02 -0.9998 0.9998 2.069970e-02 1.2409 228.3878)" class="st7" cx="117.2" cy="113.6" rx="8.3" ry="5.8"/>
			<path d="M117.1,122.3C117.1,122.3,117.1,122.3,117.1,122.3c-3.6-0.1-6.3-4.1-6.2-8.9c0.1-4.8,3-8.7,6.5-8.6
				c3.5,0.1,6.2,4.1,6.1,8.9C123.4,118.5,120.5,122.3,117.1,122.3z M117.3,105.7c-2.9,0-5.4,3.4-5.5,7.7c-0.1,4.3,2.2,7.9,5.2,8
				c0,0,0.1,0,0.1,0c2.9,0,5.4-3.4,5.5-7.7C122.7,109.3,120.3,105.8,117.3,105.7C117.3,105.7,117.3,105.7,117.3,105.7z"/>
		</g>
		<g>
			
				<ellipse transform="matrix(2.069970e-02 -0.9998 0.9998 2.069970e-02 -19.7587 236.1507)" class="st7" cx="110.7" cy="128.2" rx="4.2" ry="2.9"/>
			<path d="M110.6,132.6C110.6,132.6,110.6,132.6,110.6,132.6c-1.8,0-3.1-2-3.1-4.5c0-1.2,0.4-2.2,1-3.1c0.6-0.8,1.4-1.3,2.3-1.3
				c1.7,0,3.1,2,3.1,4.4C113.8,130.6,112.3,132.6,110.6,132.6z M110.7,124.2c-0.7,0-1.3,0.4-1.9,1.1c-0.5,0.7-0.8,1.7-0.9,2.8
				c0,2.2,1.1,4,2.6,4c0,0,0,0,0,0c1.5,0,2.7-1.7,2.7-3.9l0,0C113.4,126.1,112.2,124.3,110.7,124.2
				C110.7,124.2,110.7,124.2,110.7,124.2z"/>
		</g>
		<g>
			
				<ellipse transform="matrix(2.069970e-02 -0.9998 0.9998 2.069970e-02 57.3271 285.6421)" class="st7" cx="174.5" cy="113.6" rx="8.3" ry="5.8"/>
			<path d="M174.4,122.3C174.4,122.3,174.3,122.3,174.4,122.3c-3.6-0.1-6.3-4.1-6.2-8.9c0-2.3,0.7-4.5,1.9-6.1
				c1.2-1.7,2.9-2.6,4.5-2.5c3.5,0.1,6.2,4.1,6.1,8.9l0,0C180.7,118.5,177.8,122.3,174.4,122.3z M174.6,105.7
				c-1.4,0-2.7,0.8-3.7,2.2c-1.1,1.5-1.7,3.5-1.7,5.6c-0.1,4.3,2.2,7.9,5.2,8c0,0,0.1,0,0.1,0c2.9,0,5.4-3.4,5.5-7.7
				C179.9,109.3,177.6,105.8,174.6,105.7C174.6,105.7,174.6,105.7,174.6,105.7z"/>
		</g>
		<g>
			
				<ellipse transform="matrix(2.069970e-02 -0.9998 0.9998 2.069970e-02 36.3255 293.4025)" class="st7" cx="167.9" cy="128.2" rx="4.2" ry="2.9"/>
			<path d="M167.9,132.6C167.9,132.6,167.9,132.6,167.9,132.6c-1.8,0-3.1-2-3.1-4.5c0-1.2,0.4-2.2,1-3.1c0.6-0.8,1.4-1.3,2.3-1.3
				c1.7,0,3.1,2,3.1,4.4c0,1.2-0.4,2.2-1,3.1C169.5,132.1,168.7,132.6,167.9,132.6z M168,124.2c-0.7,0-1.3,0.4-1.9,1.1
				c-0.5,0.7-0.8,1.7-0.9,2.8c0,2.2,1.1,4,2.6,4c0.7,0,1.4-0.4,1.9-1.1c0.5-0.7,0.8-1.7,0.9-2.8l0,0
				C170.7,126.1,169.5,124.3,168,124.2C168,124.2,168,124.2,168,124.2z"/>
		</g>
		<g>
			<path class="st9" d="M135.7,182.5c-1.1,0-2.1,0.1-3.1,0.1c-2.7,0.1-3.5,0.9-6.8,2.3c-1.6,0.7-3.4,1.4-4.3,2.9
				c-2.7-1.1-4.2-3.8-6.3-5.7c-3.3-2.9-3.3-6.6-4-8.3c-1-2.4,0.7-0.5,1-2.8c0-0.3,0.1-0.6,0.4-0.8c0.2-0.1,0.4-0.1,0.6-0.1
				c2.9,0.4,5,2.9,7.5,4.6c0.8,0.5,2-0.5,2.9-0.1c1,0.4,1.9-0.5,2.7,0c1.8,1.1,4.5,1.1,6.5,1.2c2.5,0.1,5.1,0,7.6-0.1
				c2.1-0.2,2.9,0.4,4.7-0.6l9.9-4.5c1.1-0.6,2.5-0.7,3.5,0.1c0,0,0,0,0,0c0.2,0.2,0.2,0.5,0.2,0.8c0.2,3.1-0.9,6.2-3,8.5
				c-1.3,1.5-2.2,3.1-3.1,4.9c-0.5,1.1-2.5,2.8-3.7,1.8c-2.1-1.7-4.6-2.7-7.2-3.5C139.7,182.5,137.7,182.5,135.7,182.5z"/>
		</g>
		<g>
			<path class="st10" d="M135.8,191.7c-2-0.1-4-0.4-6-0.8c-1.9-0.4-3.6-1.1-5.5-1.6c-1.2-0.3-3.9-0.9-2-2.4c1.4-1.2,3.1-2,4.7-2.7
				c1.8-0.7,3.3-0.8,5.2-1.2c2.4-0.5,4.3-0.7,6.7-0.3c2.3,0.4,4.2,1.2,6.4,2c1.3,0.4,2.7,0.9,3.5,2.1c0.6,0.9-6.6,4.6-7.3,4.7
				c-0.6,0.2-1.3,0.2-1.9,0.2C138.3,191.8,137,191.8,135.8,191.7z"/>
		</g>
		<g>
			<path d="M111.2,171.5c0.7,2.6,1.8,5.1,3.4,7.3c1.5,2.2,3.4,4.1,5.6,5.6c2.2,1.5,4.6,2.8,7.1,3.6c2.5,0.8,5.2,1.3,7.8,1.4
				c2.6,0.1,5.3-0.2,7.9-0.9c2.6-0.7,5-1.8,7.1-3.4c2.1-1.6,4-3.5,5.4-5.8c1.4-2.3,2.4-4.9,3.1-7.5l0.4,0.1c-0.3,2.8-1,5.6-2.3,8.2
				c-1.3,2.6-3.1,4.9-5.4,6.8c-2.2,1.9-4.9,3.2-7.7,4.1c-2.8,0.9-5.7,1.2-8.7,1.1c-5.8-0.2-11.6-2.1-16.2-5.7
				c-2.3-1.8-4.3-4-5.8-6.5c-1.5-2.5-2.5-5.3-2.8-8.1L111.2,171.5z"/>
		</g>
		<g>
			<path d="M121.4,187.8c1.6-2,3.8-3.6,6.2-4.6c0.6-0.2,1.2-0.5,1.9-0.7l1.9-0.5l1.9-0.3c0.7,0,1.3-0.1,2-0.1c2.6,0,5.2,0.3,7.7,1.2
				c2.5,0.8,4.8,2.2,6.6,4l-0.2,0.3c-2.1-1.4-4.4-2.3-6.8-2.9c-2.4-0.6-4.8-0.8-7.3-0.8c-0.6,0-1.2,0.1-1.8,0.1l-1.8,0.2l-1.8,0.3
				c-0.6,0.2-1.2,0.3-1.8,0.5c-2.3,0.7-4.5,1.8-6.5,3.4L121.4,187.8z"/>
		</g>
		<g>
			<g>
				<path class="st11" d="M170.2,145.6c-19.2,0.2-29.6,6.6-35.8,6.6c-6.2,0.1-16.7-6.1-36-5.9c-19.2,0.2-21.6,14.1-45.6,18.6
					c28.8,18.4,44.9-0.8,57.9,6.7s35,7.3,47.8-0.5c12.8-7.7,36.9,19.9,59.6-5.3C192.8,163.3,189.4,145.5,170.2,145.6z"/>
			</g>
			<g>
				<path d="M170.2,146.4c-5.1,0.1-10.1,0.7-15.1,1.8c-2.5,0.6-4.9,1.2-7.3,2c-2.4,0.7-4.8,1.6-7.3,2.3c-1.2,0.4-2.5,0.7-3.9,0.9
					c-0.7,0.1-1.4,0.2-2.1,0.2c-0.7,0-1.4-0.1-2.1-0.2c-2.7-0.4-5.2-1.2-7.6-1.9c-4.9-1.4-9.8-2.6-14.8-3.3c-2.5-0.3-5-0.6-7.5-0.7
					c-1.3-0.1-2.5-0.1-3.8-0.1l-1.9,0c-0.6,0.1-1.2,0.1-1.8,0.2c-2.5,0.3-4.9,0.8-7.2,1.7c-2.3,0.9-4.5,2.1-6.7,3.4
					c-2.2,1.3-4.3,2.8-6.5,4.2c-2.2,1.4-4.4,2.7-6.8,3.8c-4.7,2.2-9.7,3.7-14.8,4.5l0,0l0.1-0.8c3.1,1.9,6.3,3.5,9.6,4.8
					c3.3,1.3,6.8,2.2,10.3,2.6c3.5,0.4,7.1,0.4,10.6,0c3.5-0.4,7-1.2,10.6-2c3.5-0.8,7.2-1.6,11.1-1.3c1.9,0.2,3.9,0.7,5.6,1.7
					l1.2,0.6c0.4,0.2,0.8,0.4,1.2,0.6c0.4,0.2,0.8,0.4,1.2,0.5c0.4,0.2,0.8,0.3,1.2,0.5c3.3,1.3,6.7,2.1,10.2,2.6
					c3.5,0.5,7.1,0.6,10.6,0.5c3.5-0.1,7.1-0.6,10.5-1.4c3.4-0.8,6.8-2,9.8-3.7l1.2-0.7c0.4-0.3,0.9-0.5,1.4-0.7
					c1-0.4,2-0.6,2.9-0.7c2-0.2,3.9,0,5.7,0.4c3.7,0.8,7.1,2,10.5,3.2c3.4,1.2,6.8,2.2,10.3,2.9c3.5,0.7,7,0.9,10.5,0.5
					c3.5-0.4,6.9-1.6,10-3.4c3.1-1.8,5.8-4.1,8.3-6.7l0,0l0.3,0.7c-2.2-0.2-4.4-0.6-6.6-1.1c-2.2-0.5-4.3-1.2-6.4-2
					c-4.1-1.6-8-4-11.6-6.6c-3.6-2.6-7.1-5.3-10.9-7.3c-1.9-1-3.9-1.8-6-2.2C174.5,146.6,172.3,146.4,170.2,146.4z M170.2,144.9
					c2.3,0,4.5,0.2,6.7,0.8c2.2,0.6,4.3,1.4,6.3,2.5c4,2.1,7.4,5,10.9,7.6c3.5,2.6,7.2,5,11.3,6.6c2,0.8,4.1,1.5,6.2,2
					c2.1,0.5,4.3,0.9,6.5,1.1l0.8,0.1l-0.6,0.6l0,0c-2.4,2.8-5.1,5.3-8.3,7.2c-3.1,2-6.7,3.3-10.4,3.9c-3.7,0.6-7.5,0.4-11.1-0.3
					c-3.6-0.6-7.2-1.7-10.6-2.8c-3.5-1.1-6.9-2.3-10.3-2.9c-1.7-0.3-3.4-0.5-5.1-0.3c-0.8,0.1-1.6,0.3-2.3,0.6
					c-0.4,0.1-0.7,0.3-1.1,0.5l-1.2,0.7c-3.3,1.8-6.8,3.1-10.4,4c-3.6,0.9-7.3,1.4-11,1.5c-3.7,0.2-7.4,0-11.1-0.5
					c-3.7-0.5-7.3-1.4-10.8-2.8c-0.4-0.2-0.9-0.3-1.3-0.5c-0.4-0.2-0.9-0.4-1.3-0.6c-0.4-0.2-0.8-0.4-1.3-0.6l-1.2-0.7
					c-1.4-0.8-3-1.3-4.7-1.4c-1.7-0.2-3.4-0.1-5.1,0.1c-1.7,0.2-3.5,0.5-5.3,0.9c-3.5,0.7-7.1,1.4-10.8,1.8
					c-3.7,0.3-7.4,0.3-11.1-0.3c-3.7-0.6-7.2-1.6-10.6-3.1c-3.4-1.4-6.6-3.2-9.6-5.3l-0.9-0.6l1-0.2l0,0c5-1.1,9.8-2.7,14.3-5.1
					c2.2-1.2,4.4-2.5,6.5-3.9c2.1-1.4,4.2-2.9,6.4-4.4c2.2-1.4,4.5-2.8,6.9-3.8c2.5-1,5.1-1.7,7.7-2c0.7-0.1,1.3-0.1,2-0.2l2-0.1
					c1.3,0,2.6,0,3.9,0c2.6,0.1,5.2,0.3,7.8,0.6c5.2,0.6,10.3,1.8,15.2,3.2c2.5,0.7,4.9,1.4,7.3,1.8c1.2,0.2,2.2,0.1,3.4-0.1
					c1.2-0.2,2.4-0.5,3.6-0.8c4.9-1.4,9.9-2.9,15-3.7C159.8,145.3,165,144.9,170.2,144.9z"/>
			</g>
		</g>
		<g class="st0">
			<path class="st1" d="M144.4,105c4.3-1.2,35.4-10.1,55.8,30.3c0.1-9.1-0.7-10.2-4.8-15.3s-8.8-12.9-17.5-16.6
				c-8.6-3.7-15.4-4.7-21.6-3.4C147.8,101.8,144.4,105,144.4,105z"/>
		</g>
		<g class="st0">
			<path class="st1" d="M127.4,105c-6.1-3.6-34.9-9.3-57.1,32.6c-0.2-8.3,0.1-12.2,3.5-16.5c3.4-4.3,9.8-12.6,19.8-18
				c6.6-3.6,11.3-4.7,18.8-3.5C119.9,100.8,127.4,105,127.4,105z"/>
		</g>
		<g class="st0">
			<path class="st1" d="M74.4,175.7c0.3,3.1,9,0.9,11.2,0.8c3.7-0.2,7.5-0.5,11.1-1.2c8.3-1.7,10.8-1.1,15.4,1c-1-2.4,0-5.3,0-5.3
				s-4.8-1.9-10.3-1.1c-5.5,0.8-11.1,3.7-16.9,3.3c-2-0.1-9,0-11.4-0.2C73.4,173,74.4,175.6,74.4,175.7z"/>
		</g>
		<g class="st0">
			<path class="st1" d="M158.1,175.3c5-1.4,7.4-3.1,11.3-0.9c7.3,4.1,22.6,7.2,24.5,7.3c1.9,0.1,1.6-4.4,1.6-4.4s-6.5-0.7-14.3-3.2
				s-15.4-4.9-18.2-4.3c-2.9,0.6-4.4,1.4-4.4,1.4S158.8,173.8,158.1,175.3z"/>
		</g>
		<g class="st0">
			<path class="st1" d="M125.4,188.1c1.6-1.8,18.1-2.2,21.5-0.3c2.2-0.7,2.2-0.7,2.2-0.7s-2.1-3-8.7-3.6c-6.7-0.6-12.2-0.4-18.1,3.4
				C123.3,187.9,125.4,188.1,125.4,188.1z"/>
		</g>
		<g>
			<g>
				<path class="st2" d="M123,205.1c4.7,6-16.6,20.7-26.3,16.7c-8.2-3.4-29.8-16.7-38.1-27.9c-10.2-13.8,31.5-53,38.8-36
					C106.7,179.5,111.7,190.6,123,205.1z"/>
			</g>
			<g>
				<path d="M124.2,204.2c0.5,0.6,0.8,1.4,1,2.1c0.1,0.8,0.1,1.5-0.1,2.2c-0.3,1.3-0.9,2.4-1.6,3.4c-1.3,1.9-3,3.5-4.7,4.9
					c-1.7,1.4-3.5,2.7-5.5,3.7c-1.9,1.1-3.9,2-6.1,2.7c-2.1,0.7-4.4,1.2-6.8,1.2c-1.2,0-2.5-0.2-3.7-0.6c-0.3-0.1-0.6-0.2-0.9-0.3
					l-0.8-0.3c-0.5-0.2-1-0.5-1.5-0.7c-3.9-1.9-7.5-4.1-11.1-6.4c-3.6-2.3-7.1-4.8-10.4-7.4c-3.4-2.6-6.6-5.4-9.7-8.4
					c-1.5-1.5-3-3.1-4.3-4.9l-0.5-0.7c-0.2-0.2-0.3-0.5-0.5-0.8c-0.3-0.5-0.6-1.1-0.8-1.7c-0.4-1.1-0.6-2.3-0.6-3.5
					c0-2.3,0.6-4.5,1.4-6.6c0.8-2,1.8-4,3-5.8c2.3-3.7,5-7,8-10.1c3-3.1,6.2-5.9,9.8-8.3c1.8-1.2,3.6-2.3,5.6-3.2
					c2-0.9,4-1.7,6.3-1.9c1.1-0.1,2.3-0.1,3.4,0.2c1.1,0.3,2.3,0.8,3.1,1.7c0.9,0.8,1.5,1.8,2,2.9l1.3,2.9c1.7,3.8,3.4,7.7,5.2,11.5
					c1.8,3.8,3.6,7.6,5.6,11.3c2,3.7,4.1,7.3,6.4,10.8C119.1,197.5,121.6,200.9,124.2,204.2z M121.8,206.1c-2.6-3.4-5-6.9-7.3-10.5
					c-2.3-3.6-4.3-7.3-6.2-11.1c-1.9-3.8-3.7-7.7-5.4-11.5c-1.7-3.9-3.3-7.8-5-11.6l-1.2-2.9c-0.4-0.9-0.9-1.7-1.5-2.3
					c-1.3-1.3-3.3-1.7-5.2-1.5c-2,0.2-3.9,0.9-5.8,1.8c-1.9,0.9-3.6,1.9-5.3,3.1c-3.4,2.4-6.5,5.1-9.4,8.1c-2.8,3-5.4,6.3-7.5,9.9
					c-1,1.8-1.9,3.6-2.6,5.5c-0.7,1.9-1.1,3.9-1.1,5.8c0,0.9,0.2,1.9,0.5,2.7c0.2,0.4,0.4,0.8,0.6,1.2c0.1,0.2,0.2,0.4,0.4,0.6
					l0.5,0.6c1.3,1.6,2.7,3.1,4.2,4.5c3,2.8,6.3,5.4,9.6,7.9c3.4,2.4,6.9,4.7,10.4,6.9c1.8,1.1,3.6,2.1,5.4,3.1c1.8,1,3.6,2,5.5,2.9
					c0.5,0.2,0.9,0.4,1.4,0.6l0.7,0.3c0.2,0.1,0.4,0.2,0.6,0.2c0.8,0.2,1.6,0.3,2.5,0.3c1.8,0,3.7-0.4,5.6-1
					c3.7-1.2,7.4-3.1,10.6-5.5c1.6-1.2,3.1-2.6,4.2-4.1c0.5-0.7,1-1.5,1.2-2.3c0.1-0.4,0.1-0.7,0.1-0.9
					C122,206.5,121.9,206.3,121.8,206.1z"/>
			</g>
		</g>
		<g>
			<g>
				<path class="st2" d="M147.3,205.1c-4.7,6,16.6,20.7,26.3,16.7c8.2-3.4,29.8-16.7,38.1-27.9c10.2-13.8-31.5-53-38.8-36
					C163.6,179.5,158.6,190.6,147.3,205.1z"/>
			</g>
			<g>
				<path d="M148.6,206.1c-0.2,0.2-0.3,0.5-0.3,0.7c0,0.3,0,0.6,0.1,0.9c0.2,0.7,0.6,1.5,1.2,2.3c1.1,1.5,2.6,2.9,4.2,4.1
					c3.2,2.4,6.8,4.3,10.6,5.5c1.9,0.6,3.8,1,5.6,1c0.9,0,1.8-0.1,2.5-0.3c0.2-0.1,0.4-0.1,0.6-0.2l0.7-0.3c0.5-0.2,0.9-0.4,1.4-0.6
					c1.8-0.9,3.7-1.9,5.5-2.9c1.8-1,3.6-2.1,5.4-3.1c3.6-2.2,7-4.5,10.4-6.9c3.4-2.4,6.6-5,9.6-7.9c1.5-1.4,2.9-2.9,4.2-4.5l0.5-0.6
					c0.1-0.2,0.3-0.4,0.4-0.6c0.2-0.4,0.4-0.8,0.6-1.2c0.3-0.8,0.5-1.8,0.5-2.7c0.1-1.9-0.4-3.9-1.1-5.8c-0.7-1.9-1.6-3.7-2.6-5.5
					c-2.1-3.5-4.7-6.8-7.5-9.9c-2.9-3-6-5.8-9.4-8.1c-1.7-1.2-3.5-2.2-5.3-3.1c-1.9-0.9-3.8-1.5-5.8-1.8c-2-0.2-3.9,0.2-5.2,1.5
					c-0.7,0.6-1.2,1.4-1.5,2.3l-1.2,2.9c-1.6,3.9-3.3,7.8-5,11.6c-1.7,3.9-3.4,7.7-5.4,11.5c-1.9,3.8-4,7.5-6.2,11.1
					C153.6,199.2,151.1,202.7,148.6,206.1z M146.1,204.2c2.6-3.3,5.1-6.6,7.4-10.1c2.3-3.5,4.4-7.1,6.4-10.8c2-3.7,3.8-7.5,5.6-11.3
					c1.8-3.8,3.5-7.7,5.2-11.5l1.3-2.9c0.5-1,1.1-2.1,2-2.9c0.9-0.8,2-1.4,3.1-1.7c1.1-0.3,2.3-0.3,3.4-0.2c2.2,0.3,4.3,1,6.3,1.9
					c2,0.9,3.8,2,5.6,3.2c3.5,2.4,6.8,5.2,9.8,8.3c3,3.1,5.7,6.4,8,10.1c1.1,1.8,2.2,3.8,3,5.8c0.8,2,1.4,4.2,1.4,6.6
					c0,1.2-0.2,2.4-0.6,3.5c-0.2,0.6-0.5,1.1-0.8,1.7c-0.2,0.3-0.3,0.5-0.5,0.8l-0.5,0.7c-1.3,1.7-2.8,3.4-4.3,4.9
					c-3,3.1-6.3,5.8-9.7,8.4c-3.4,2.6-6.9,5.1-10.4,7.4c-3.6,2.3-7.2,4.5-11.1,6.4c-0.5,0.2-1,0.5-1.5,0.7l-0.8,0.3
					c-0.3,0.1-0.6,0.2-0.9,0.3c-1.2,0.4-2.5,0.6-3.7,0.6c-2.4,0-4.7-0.5-6.8-1.2c-2.1-0.7-4.2-1.6-6.1-2.7c-1.9-1.1-3.8-2.3-5.5-3.7
					c-1.7-1.4-3.3-3-4.7-4.9c-0.7-1-1.3-2.1-1.6-3.4c-0.2-0.7-0.2-1.4-0.1-2.2C145.3,205.5,145.6,204.8,146.1,204.2z"/>
			</g>
		</g>
		<g class="st0">
			<path class="st1" d="M220.5,67.1C221,67.5,234,84.6,233.1,90c-1.1,7.7-21.5,32-21.5,32l-1.6,13.3l-3.5-3.7l0.1,11.8
				c0,0,11.7-20.4,13.8-23.3c2.1-2.9,27.4-27.6,27.4-27.6L220.5,67.1z"/>
		</g>
		<g class="st0">
			<path class="st1" d="M58.2,191.2c-3,4.5-6.1,16.3-9.4,17.1c-5.4,1.2-9.2-5.2-16.5-2.1s-18.6,5.9-20.6,5.7
				c3.1,1.4,5.3,1.5,6.1,1.6c0.8,0.2,12.7-2.2,18.9-2.7c3.2-0.2,15.7,3.4,15.7,3.4s2.3-4.9,3.9-6.9s7.2-8.2,7.2-8.2L58.2,191.2z"/>
		</g>
		<g class="st0">
			<path class="st1" d="M74.8,207c3.3,1.9,17.5,7.5,23.6,7.9c7.2,0.5,19.3-4.2,23.1-11c0,0,2.6,2.8,1.8,4.7
				c-0.8,1.9-4.9,7.8-8.8,9.7s-14.3,6.1-18.1,4.2C92.6,220.8,74.8,207,74.8,207z"/>
		</g>
		<g class="st0">
			<path class="st1" d="M196.1,206.5c-3.3,1.9-17.5,7.5-23.6,7.9c-7.2,0.5-19.3-4.2-23.1-11c0,0-2.6,2.8-1.8,4.7
				c0.8,1.9,4.9,7.8,8.8,9.7s14.3,6.1,18.1,4.2C178.3,220.3,196.1,206.5,196.1,206.5z"/>
		</g>
		<g>
			<g>
				<path class="st12" d="M198.5,47c0,0-0.6-15.7-1-23.2c-0.3-6.1-0.4-6,5.8-6.3c6.2-0.3,23.2-1,23.2-1l19.3,18.2L218.2,65L198.5,47
					z"/>
			</g>
			<g>
				<path d="M198.2,47.1c-0.4-4.7-0.7-9.5-0.9-14.4c-0.1-2.4-0.2-4.8-0.3-7.2l-0.2-3.6c0-0.6,0-1.2,0-1.9c0-0.2,0-0.3,0.1-0.5
					l0.1-0.5c0.1-0.2,0.1-0.3,0.2-0.5c0.1-0.2,0.2-0.3,0.4-0.5c0.3-0.3,0.6-0.5,1-0.6c0.2,0,0.3-0.1,0.5-0.1l0.5-0.1
					c0.6-0.1,1.2-0.1,1.8-0.2c1.2-0.1,2.4-0.1,3.6-0.1l7.2-0.2c4.8-0.2,9.6-0.3,14.4-0.4l0,0l0.1,0l0.1,0.1l19.3,18.2l0.2,0.2
					l-0.2,0.2l-27.6,30.2l-0.2,0.2l-0.2-0.2L198.2,47.1z M198.7,46.9l19.7,17.9l-0.4,0l27.6-30.2l0,0.4l-19.3-18.2l0.2,0.1l0,0
					c-4.8,0.3-9.6,0.6-14.3,0.8l-7.2,0.4l-3.6,0.2c-0.6,0-1.2,0.1-1.7,0.2c-0.6,0.1-1.1,0.2-1.3,0.5c-0.3,0.3-0.4,0.8-0.4,1.3
					c0,0.6,0,1.1,0,1.7l0.2,3.6c0.1,2.4,0.2,4.7,0.3,7.1C198.6,37.3,198.7,42,198.7,46.9z"/>
			</g>
		</g>
		<g>
			<g>
				<g>
					<path class="st13" d="M200.7,27c0.8-0.9-0.2-4.1,1-5.4c1.3-1.4,4.5-0.4,5.3-1.4c0.4-0.4,0.1-1.7-0.1-3
						c-1.4,0.1-2.6,0.1-3.5,0.2c-6.2,0.3-6.1,0.2-5.8,6.3c0.1,1,0.1,2.2,0.2,3.5C198.9,27.4,200.3,27.4,200.7,27z"/>
				</g>
				<g>
					<path d="M200.5,26.8c0.3-0.3,0.3-1,0.3-1.5c0-0.6,0-1.2,0-1.8c0.1-0.6,0.1-1.3,0.5-1.8c0.4-0.6,1-0.9,1.7-1
						c0.6-0.1,1.2-0.2,1.8-0.2c0.6,0,1.2,0,1.7-0.2c0.1,0,0.2-0.1,0.3-0.2c0,0,0.1-0.1,0.1-0.1c0,0,0-0.1,0-0.1c0-0.2,0-0.5,0-0.8
						c-0.1-0.6-0.2-1.1-0.3-1.7v0l0.3,0.2c-1.5,0.1-3,0.2-4.5,0.3c-0.7,0.1-1.5,0.1-2.2,0.2c-0.7,0.1-1.5,0.2-1.9,0.6
						c-0.4,0.4-0.5,1.1-0.5,1.8c0,0.7,0,1.5,0,2.2c0.1,1.5,0.1,3,0.1,4.5l-0.3-0.3l0,0c0.5,0,1,0.1,1.5,0.1c0.2,0,0.5,0,0.7-0.1
						C200.2,27,200.4,26.9,200.5,26.8z M200.9,27.2c-0.3,0.3-0.6,0.3-0.9,0.4c-0.3,0-0.5,0.1-0.8,0.1c-0.5,0-1.1,0-1.6-0.1l0,0
						l-0.2,0l0-0.3c-0.1-1.5-0.2-3-0.3-4.5c0-0.8-0.1-1.5-0.1-2.3c0-0.2,0-0.4,0-0.6c0-0.2,0-0.4,0.1-0.6c0.1-0.4,0.3-0.9,0.6-1.2
						c0.2-0.2,0.4-0.3,0.6-0.4c0.2-0.1,0.4-0.2,0.6-0.2c0.4-0.1,0.8-0.2,1.2-0.2c0.8-0.1,1.5-0.1,2.3-0.1c1.5-0.1,3-0.1,4.5-0.1
						l0.2,0l0,0.2v0c0.1,0.6,0.3,1.2,0.3,1.8c0,0.3,0,0.6,0,1c0,0.1-0.1,0.2-0.1,0.3c-0.1,0.1-0.1,0.2-0.2,0.2
						c-0.1,0.1-0.3,0.2-0.5,0.3c-0.6,0.2-1.3,0.2-1.8,0.2c-0.6,0-1.2,0.1-1.7,0.2c-0.5,0.1-1,0.4-1.3,0.8c-0.3,0.4-0.4,1-0.4,1.6
						c0,0.6,0,1.2,0,1.8c0,0.3,0,0.6-0.1,0.9C201.2,26.5,201.2,26.9,200.9,27.2z"/>
				</g>
			</g>
		</g>
		<g>
			<g>
				<path class="st14" d="M263.8,106.9l-14.1-13c-2.3-2.1-2.4-5.7-0.3-8l20.4-22.1c2.1-2.3,5.7-2.4,8-0.3l14.1,13
					c2.3,2.1,2.4,5.7,0.3,8l-20.4,22.1C269.7,108.8,266.1,109,263.8,106.9z"/>
			</g>
			<g>
				<path d="M263.5,107.2l-12.3-11.4l-1.5-1.4c-0.5-0.5-1-1-1.4-1.7c-0.7-1.3-1-2.8-0.6-4.3c0.2-0.7,0.5-1.4,0.9-2
					c0.4-0.6,0.9-1.1,1.4-1.6l2.8-3.1l11.4-12.3c1.9-2,3.8-4.1,5.7-6.1c1.1-1,2.5-1.5,4-1.5c1.5,0,2.9,0.6,4,1.5l12.3,11.3l1.5,1.4
					c0.5,0.5,1.1,1,1.4,1.6c0.8,1.3,1,2.8,0.7,4.3c-0.1,0.7-0.4,1.4-0.8,2.1c-0.1,0.2-0.2,0.3-0.3,0.5c-0.1,0.1-0.2,0.3-0.3,0.4
					l-0.7,0.8l-2.8,3.1c-1.9,2.1-3.7,4.2-5.6,6.2c-1.9,2.1-3.8,4.1-5.7,6.2l-2.9,3.1l-1.4,1.5l-0.7,0.8l-0.4,0.4l-0.4,0.4
					c-1.1,1-2.7,1.6-4.2,1.6C266.1,108.8,264.6,108.2,263.5,107.2z M264.1,106.5c1,0.9,2.2,1.3,3.5,1.3c1.3,0,2.5-0.5,3.5-1.4
					l0.3-0.3l0.4-0.4l0.7-0.8l1.4-1.6l2.8-3.1c1.9-2.1,3.8-4.1,5.7-6.2c1.9-2.1,3.8-4.1,5.7-6.1l2.9-3c0.5-0.5,1-1,1.4-1.5
					c0.4-0.5,0.7-1.1,0.8-1.8c0.3-1.3,0.1-2.7-0.5-3.8c-0.3-0.6-0.8-1.1-1.3-1.5l-1.5-1.4l-12.3-11.4c-1-0.9-2.3-1.4-3.7-1.4
					c-1.3,0-2.7,0.5-3.7,1.4c-1.9,2-3.8,4.1-5.7,6.1l-11.3,12.4l-2.8,3.1c-0.5,0.5-1,1-1.3,1.6c-0.4,0.5-0.6,1.2-0.8,1.8
					c-0.3,1.3-0.1,2.7,0.6,3.8c0.3,0.6,0.8,1,1.3,1.5l1.5,1.4L264.1,106.5z"/>
			</g>
		</g>
		<g>
			<path class="st15" d="M226.8,17c-3.2-2.9,5.6,13.2,3.5,15.4c-2.1,2.3-12.8-2.9-15.9,0.5c-2.9,3.2,2.6,13.6,0.6,15.8
				c-2.1,2.2-18.1-3.7-15.9-1.7c2.5,2.3,40,36.9,40,36.9l6.3-6.8l0.3-0.4l14.9-16.2l0.3-0.3l5.9-6.4C266.9,53.9,230.4,20.3,226.8,17
				z"/>
		</g>
		<g class="st16">
			<polygon class="st7" points="266.5,54.1 260.4,60.6 230.8,32.7 226.3,16.5 			"/>
		</g>
		<g>
			<rect x="245.3" y="25.9" transform="matrix(0.6774 -0.7356 0.7356 0.6774 44.9048 195.7033)" width="0.6" height="41.6"/>
		</g>
		<g>
			<rect x="230.1" y="42.3" transform="matrix(0.6775 -0.7355 0.7355 0.6775 27.8603 189.782)" width="0.6" height="41.6"/>
		</g>
		<g>
			<g>
				
					<rect x="241.3" y="66" transform="matrix(0.6774 -0.7356 0.7356 0.6774 27.7807 217.5831)" class="st17" width="41.4" height="22.2"/>
			</g>
			<g>
				<path d="M256.1,100.1l-16.7-14.9l-0.4-0.3l0.4-0.4L267.5,54l0.3-0.3l0.3,0.3l16.2,15.2l0.2,0.2l-0.2,0.2L256.1,100.1z
					 M256.1,99.6L284,69.2l0,0.4l-16.5-14.9l0.7,0l-28,30.5l0-0.7L256.1,99.6z"/>
			</g>
		</g>
		<g>
			<g>
				<g>
					<polygon class="st17" points="240.3,63.5 244.7,67.5 249.7,66.5 250.4,61.3 246,57.3 240.9,58.3 					"/>
				</g>
				<g>
					<path d="M240.5,63.4l4.4,4l-0.2-0.1l5-1.3l-0.4,0.4l0.9-5.1l0.1,0.2l-4.4-4.1l0.2,0.1l-5,1.4l0.4-0.5L240.5,63.4z M240,63.6
						l0.3-5.3l0-0.4l0.4-0.1l5.1-0.8l0.1,0l0.1,0.1l4.4,4.1l0.1,0.1l0,0.1l-0.4,5.2l0,0.4l-0.4,0.1l-5.1,0.8l-0.1,0l-0.1-0.1
						L240,63.6z"/>
				</g>
			</g>
			<g>
				<g>
					<path class="st7" d="M241.8,61.8l2.6-2.8l0.7,0.7l0.5,2.8c0.2,0.7,0.4,1.2,0.6,1.4c0.2,0.2,0.4,0.3,0.6,0.3
						c0.2,0,0.3,0,0.5-0.2c0.1-0.1,0.2-0.3,0.1-0.5c-0.1-0.2-0.2-0.4-0.4-0.6l0.9-0.9c0.3,0.3,0.5,0.6,0.7,1
						c0.1,0.4,0.2,0.7,0.1,1.1c-0.1,0.3-0.2,0.7-0.5,0.9c-0.4,0.4-0.8,0.6-1.3,0.7c-0.5,0-0.9-0.2-1.4-0.6c-0.2-0.2-0.4-0.4-0.5-0.6
						c-0.1-0.2-0.2-0.5-0.3-0.8c-0.1-0.3-0.2-0.8-0.3-1.3l-0.3-1.2l-1.4,1.6L241.8,61.8z"/>
				</g>
			</g>
		</g>
		<g class="st16">
			
				<rect x="267.9" y="54.8" transform="matrix(0.6834 -0.7301 0.7301 0.6834 37.1261 218.7444)" class="st7" width="5.7" height="23.5"/>
		</g>
		<g>
			
				<rect x="235.8" y="71.3" transform="matrix(0.6774 -0.7356 0.7356 0.6774 29.6259 212.0936)" class="st15" width="41.7" height="2"/>
			<path d="M243.3,88.5l-1.7-1.5l0.1-0.1L270,56.1l1.7,1.5l-0.1,0.1L243.3,88.5z M242,86.9l1.3,1.2l28.1-30.5l-1.3-1.2L242,86.9z"/>
		</g>
		<g>
			
				<rect x="246.4" y="81.1" transform="matrix(0.6774 -0.7356 0.7356 0.6774 25.849 223.0837)" class="st15" width="41.7" height="2"/>
			<path d="M253.9,98.3l-1.7-1.5l0.1-0.1l28.3-30.8l1.7,1.5l-0.1,0.1L253.9,98.3z M252.6,96.7l1.3,1.2l28.1-30.5l-1.3-1.2
				L252.6,96.7z"/>
		</g>
		<g>
			<path d="M270.8,60.9c0.7,0.4,1.3,0.9,1.9,1.3c0.6,0.5,1.2,1,1.8,1.5c0.6,0.5,1.1,1.1,1.7,1.7c0.5,0.6,1,1.2,1.5,1.8
				c-0.7-0.4-1.3-0.9-1.9-1.3c-0.6-0.5-1.2-1-1.8-1.5c-0.6-0.5-1.1-1.1-1.7-1.7C271.7,62.2,271.2,61.6,270.8,60.9z"/>
		</g>
		<g>
			<path d="M246.4,87.4c0.7,0.4,1.3,0.9,1.9,1.3c0.6,0.5,1.2,1,1.8,1.5c0.6,0.5,1.1,1.1,1.7,1.7c0.5,0.6,1,1.2,1.5,1.8
				c-0.7-0.4-1.3-0.9-1.9-1.3c-0.6-0.5-1.2-1-1.8-1.5c-0.6-0.5-1.1-1.1-1.7-1.7C247.4,88.6,246.9,88,246.4,87.4z"/>
		</g>
		<g>
			<path d="M267.7,64.2c0.7,0.4,1.3,0.9,1.9,1.3c0.6,0.5,1.2,1,1.8,1.5c0.6,0.5,1.1,1.1,1.7,1.7c0.5,0.6,1,1.2,1.5,1.8
				c-0.7-0.4-1.3-0.9-1.9-1.3c-0.6-0.5-1.2-1-1.8-1.5c-0.6-0.5-1.1-1.1-1.7-1.7C268.7,65.5,268.2,64.9,267.7,64.2z"/>
		</g>
		<g>
			<path d="M264.7,67.5c0.7,0.4,1.3,0.9,1.9,1.3c0.6,0.5,1.2,1,1.8,1.5c0.6,0.5,1.1,1.1,1.7,1.7c0.5,0.6,1,1.2,1.5,1.8
				c-0.7-0.4-1.3-0.9-1.9-1.3c-0.6-0.5-1.2-1-1.8-1.5c-0.6-0.5-1.1-1.1-1.7-1.7C265.6,68.8,265.1,68.2,264.7,67.5z"/>
		</g>
		<g>
			<path d="M261.6,70.8c0.7,0.4,1.3,0.9,1.9,1.3c0.6,0.5,1.2,1,1.8,1.5c0.6,0.5,1.1,1.1,1.7,1.7c0.5,0.6,1,1.2,1.5,1.8
				c-0.7-0.4-1.3-0.9-1.9-1.3c-0.6-0.5-1.2-1-1.8-1.5c-0.6-0.5-1.1-1.1-1.7-1.7C262.6,72.1,262.1,71.5,261.6,70.8z"/>
		</g>
		<g>
			<path d="M258.6,74.1c0.7,0.4,1.3,0.9,1.9,1.3c0.6,0.5,1.2,1,1.8,1.5c0.6,0.5,1.1,1.1,1.7,1.7c0.5,0.6,1,1.2,1.5,1.8
				c-0.7-0.4-1.3-0.9-1.9-1.3c-0.6-0.5-1.2-1-1.8-1.5c-0.6-0.5-1.1-1.1-1.7-1.7C259.6,75.4,259,74.8,258.6,74.1z"/>
		</g>
		<g>
			<path d="M255.6,77.4c0.7,0.4,1.3,0.9,1.9,1.3c0.6,0.5,1.2,1,1.8,1.5c0.6,0.5,1.1,1.1,1.7,1.7c0.5,0.6,1,1.2,1.5,1.8
				c-0.7-0.4-1.3-0.9-1.9-1.3c-0.6-0.5-1.2-1-1.8-1.5c-0.6-0.5-1.1-1.1-1.7-1.7C256.5,78.7,256,78.1,255.6,77.4z"/>
		</g>
		<g>
			<path d="M252.5,80.7c0.7,0.4,1.3,0.9,1.9,1.3c0.6,0.5,1.2,1,1.8,1.5c0.6,0.5,1.1,1.1,1.7,1.7c0.5,0.6,1,1.2,1.5,1.8
				c-0.7-0.4-1.3-0.9-1.9-1.3c-0.6-0.5-1.2-1-1.8-1.5c-0.6-0.5-1.1-1.1-1.7-1.7C253.5,82,253,81.4,252.5,80.7z"/>
		</g>
		<g>
			<path d="M249.5,84.1c0.7,0.4,1.3,0.9,1.9,1.3c0.6,0.5,1.2,1,1.8,1.5c0.6,0.5,1.1,1.1,1.7,1.7c0.5,0.6,1,1.2,1.5,1.8
				c-0.7-0.4-1.3-0.9-1.9-1.3c-0.6-0.5-1.2-1-1.8-1.5c-0.6-0.5-1.1-1.1-1.7-1.7C250.4,85.3,249.9,84.7,249.5,84.1z"/>
		</g>
		<g>
			<path d="M256.1,100.1l-16.7-14.9l-0.4-0.3l0.4-0.4L267.5,54l0.3-0.3l0.3,0.3l16.2,15.2l0.2,0.2l-0.2,0.2
				c-2.3,2.6-4.6,5.2-6.9,7.8c-2.3,2.6-4.7,5.2-7.1,7.7c-2.4,2.6-4.8,5.1-7.1,7.6l-3.6,3.7L256.1,100.1z M256.1,99.6l3.5-3.9
				l3.4-3.9c2.3-2.6,4.6-5.1,6.9-7.6c2.3-2.5,4.6-5,7-7.5c2.3-2.5,4.7-5,7.1-7.4l0,0.4l-16.5-14.9l0.7,0l-28,30.5l0-0.7L256.1,99.6z
				"/>
		</g>
		<g>
			<path d="M226.6,17.3c-0.1-0.1-0.2-0.2-0.3-0.2c0,0-0.1,0,0.1,0c0.1,0,0.2-0.1,0.2-0.1c0,0,0,0,0,0c0,0.2,0.1,0.5,0.2,0.8
				c0.2,0.6,0.4,1.2,0.7,1.7c0.5,1.2,1,2.3,1.5,3.5c0.5,1.2,1,2.3,1.5,3.5c0.5,1.2,0.9,2.4,1.1,3.8c0.1,0.3,0.1,0.7,0.1,1.1
				c0,0.4,0,0.8-0.3,1.3c-0.3,0.6-0.8,0.9-1.2,1.1c-0.4,0.2-0.8,0.2-1.2,0.3c-0.7,0.1-1.4,0-2.1-0.1c-0.7-0.1-1.3-0.2-1.9-0.3
				c-1.3-0.3-2.5-0.6-3.7-0.8c-1.2-0.2-2.4-0.4-3.6-0.4c-1.2,0-2.4,0.3-3,1.2c-0.3,0.4-0.4,1-0.5,1.6c-0.1,0.6,0,1.2,0,1.8
				c0.3,2.4,1.2,4.8,1.8,7.3c0.2,0.6,0.3,1.3,0.4,2c0.1,0.7,0.1,1.4-0.1,2.2c-0.1,0.4-0.3,0.9-0.8,1.3c-0.5,0.4-0.9,0.4-1.3,0.5
				c-0.8,0.1-1.5,0.1-2.1,0c-1.3-0.1-2.6-0.5-3.8-0.8c-1.2-0.3-2.5-0.7-3.7-1c-1.2-0.3-2.4-0.7-3.7-1c-0.3-0.1-0.6-0.1-0.9-0.2
				c-0.3,0-0.6-0.1-0.8-0.1c0,0,0,0,0,0c0,0,0.1,0,0.1-0.1c0.1-0.1,0.1-0.2,0.1-0.2c0-0.1,0-0.2,0-0.2c0,0,0,0,0,0
				c0.1,0.1,0.2,0.2,0.3,0.3l0.7,0.6l5.6,5.1l11.2,10.3l11.2,10.2c3.8,3.4,7.5,6.8,11.3,10.2l0,0l-1,0l27.7-30.2l0,0l0,1.1
				c-3.3-3.2-6.6-6.3-9.9-9.4l-9.9-9.3c-3.3-3.1-6.7-6.2-10-9.2L226.6,17.3z M227.1,16.7l10,9.2c3.3,3.1,6.7,6.2,10,9.2l10.1,9.1
				c3.4,3,6.8,6.1,10.2,9l0.6,0.5l-0.5,0.6l0,0l-27.8,30.1l-0.5,0.5l-0.5-0.5l0,0c-3.7-3.5-7.4-6.9-11.1-10.4l-11.1-10.3l-11.2-10.3
				l-5.6-5.1l-0.7-0.6c-0.1-0.1-0.2-0.2-0.4-0.4c0,0-0.1-0.1-0.1-0.2c0-0.1-0.1-0.2-0.1-0.4c0-0.1,0.1-0.2,0.1-0.3
				c0.1-0.1,0.1-0.1,0.2-0.2c0.1-0.1,0.2-0.1,0.3-0.1c0.5,0,0.8,0,1.1,0.1c0.3,0.1,0.6,0.1,1,0.2l3.7,0.8c2.5,0.5,5,1,7.4,1.1
				c0.6,0,1.2,0,1.7-0.1c0.2,0,0.4-0.1,0.5-0.2c0,0,0,0,0.1-0.1c0,0,0.1-0.1,0.1-0.2c0.1-0.4,0.1-1,0.1-1.5c0-0.6-0.1-1.2-0.2-1.8
				c-0.4-2.5-1-4.9-1.2-7.6c0-0.7,0-1.3,0-2c0.1-0.7,0.3-1.4,0.7-2c0.4-0.6,1.1-1.1,1.7-1.3c0.7-0.2,1.3-0.4,2-0.4
				c2.7-0.2,5.2,0.3,7.7,0.6c1.2,0.1,2.5,0.3,3.5,0.2c0.3,0,0.5-0.1,0.6-0.1c0.2-0.1,0.2-0.2,0.2-0.1c0,0,0.1-0.3,0.1-0.5
				c0-0.2,0-0.5-0.1-0.8c-0.1-1.1-0.5-2.3-0.8-3.5c-0.3-1.2-0.7-2.4-1.1-3.6c-0.4-1.2-0.8-2.4-1.2-3.6c-0.2-0.6-0.4-1.2-0.6-1.8
				c-0.1-0.3-0.2-0.6-0.2-1.1c0-0.1,0-0.1,0.1-0.2c0-0.1,0.2-0.3,0.3-0.3c0.2,0,0.3,0,0.3,0c0.1,0,0.1,0.1,0.2,0.1
				C226.8,16.5,227,16.6,227.1,16.7z"/>
		</g>
		<g class="st0">
			<path class="st1" d="M285.3,70.4l-1.1-1l-21.4,23.4c-14-13-32.8-29.9-47.6-43.8c-0.2-0.2-4,0.3-4,0.3l-7.6-1.7l-5.1-0.9
				l66.4,61.2l4.5,0.5l5.2-4.6c0,0-4.3-4-10.7-9.9L285.3,70.4z"/>
		</g>
		<g class="st16">
			<path class="st7" d="M205.1,20.7l-7.8-1.9c0,0-0.2-0.7,1.1-0.8c1.3-0.1,8.8,0.8,8.8,0.8l-0.2,1.5L205.1,20.7z"/>
		</g>
		<g>
			<g>
				<path d="M200.5,26.8c0.3-0.3,0.3-1,0.3-1.5c0-0.6,0-1.2,0-1.8c0.1-0.6,0.1-1.3,0.5-1.8c0.4-0.6,1-0.9,1.7-1
					c0.6-0.1,1.2-0.2,1.8-0.2c0.6,0,1.2,0,1.7-0.2c0.1,0,0.2-0.1,0.3-0.2c0,0,0.1-0.1,0.1-0.1c0,0,0-0.1,0-0.1c0-0.2,0-0.5,0-0.8
					c-0.1-0.6-0.2-1.1-0.3-1.7v0l0.3,0.2c-1.5,0.1-3,0.2-4.5,0.3c-0.7,0.1-1.5,0.1-2.2,0.2c-0.7,0.1-1.5,0.2-1.9,0.6
					c-0.4,0.4-0.5,1.1-0.5,1.8c0,0.7,0,1.5,0,2.2c0.1,1.5,0.1,3,0.1,4.5l-0.3-0.3l0,0c0.5,0,1,0.1,1.5,0.1c0.2,0,0.5,0,0.7-0.1
					C200.2,27,200.4,26.9,200.5,26.8z M200.9,27.2c-0.3,0.3-0.6,0.3-0.9,0.4c-0.3,0-0.5,0.1-0.8,0.1c-0.5,0-1.1,0-1.6-0.1l0,0
					l-0.2,0l0-0.3c-0.1-1.5-0.2-3-0.3-4.5c0-0.8-0.1-1.5-0.1-2.3c0-0.2,0-0.4,0-0.6c0-0.2,0-0.4,0.1-0.6c0.1-0.4,0.3-0.9,0.6-1.2
					c0.2-0.2,0.4-0.3,0.6-0.4c0.2-0.1,0.4-0.2,0.6-0.2c0.4-0.1,0.8-0.2,1.2-0.2c0.8-0.1,1.5-0.1,2.3-0.1c1.5-0.1,3-0.1,4.5-0.1
					l0.2,0l0,0.2v0c0.1,0.6,0.3,1.2,0.3,1.8c0,0.3,0,0.6,0,1c0,0.1-0.1,0.2-0.1,0.3c-0.1,0.1-0.1,0.2-0.2,0.2
					c-0.1,0.1-0.3,0.2-0.5,0.3c-0.6,0.2-1.3,0.2-1.8,0.2c-0.6,0-1.2,0.1-1.7,0.2c-0.5,0.1-1,0.4-1.3,0.8c-0.3,0.4-0.4,1-0.4,1.6
					c0,0.6,0,1.2,0,1.8c0,0.3,0,0.6-0.1,0.9C201.2,26.5,201.2,26.9,200.9,27.2z"/>
			</g>
		</g>
		<g>
			<path class="st17" d="M233.2,52.3c0.1-0.1,0.4,0,0.5,0c0.1,0,0.3,0,0.4,0c0-0.1,0-0.3-0.1-0.4c-0.1-0.2-0.3-0.4-0.5-0.5
				c-0.4-0.4-0.8-0.7-1.3-1.1c0,0.2-0.1,0.3,0,0.4c0.2,0.3,0,0.4-0.1,0.5c-0.5,0.4-1.4,0.4-2,0c-0.4-0.3-0.4-0.7,0-1
				c0.3-0.2,0.6-0.4,0.9-0.6c0.8-0.4,1.6-0.7,2.5-0.5c1,0.3,1.4,1.3,0.7,2.2c0.3,0.1,0.5,0.3,0.7,0.3c0.4-0.1,0.9-0.3,1.3-0.4
				c0.2-0.1,0.2-0.2,0-0.3c-0.1-0.1-0.2-0.1-0.3-0.1c-0.4,0.1-0.5-0.1-0.5-0.4c0-0.1,0-0.2,0-0.3c-0.5-1.3-2.3-2.5-3.7-2.3
				c-0.9,0.1-1.7,0.4-2.4,1.1c-0.6,0.6-0.7,1.7-0.3,2.3c0.5,0.7,1.2,1.1,2,1.4C231.7,52.7,232.5,52.7,233.2,52.3z"/>
			<path class="st17" d="M217.2,36.9c0.9-0.3,1.3-1.1,1.2-2c0-0.2-0.1-0.5-0.3-0.7c-0.6-0.6-1.3-1.2-2-1.8c-0.7,0.2-1.3,0.5-1.6,1
				c-0.3,0.4-0.4,0.9-0.5,1.4c0.6-0.3,1.2-0.6,1.8-0.9c0.3-0.1,0.5-0.3,0.8-0.3c0.2,0,0.4,0.1,0.5,0.2c0.1,0.1,0.2,0.2,0.3,0.3
				c0.2,0.2,0.2,0.4,0,0.6c-0.7,0.8-1.6,1.2-2.6,1.4c-0.3-0.1-0.6,0-1,0c0,0.2,0,0.5,0,0.7c0,0.1,0,0.1,0,0.2
				c0.3,0.2,0.7,0.4,1.1,0.3C215.9,37.3,216.6,37.1,217.2,36.9z"/>
			<path class="st17" d="M230.4,45.2c-0.6-0.9-1.5-1.3-2.6-1.3c-0.8,0-2,0.3-2.5,0.7c-1,0.8-1.2,2-0.4,2.9c1.4,1.5,4.2,1.1,5.3,0
				C230.8,46.8,231,45.9,230.4,45.2z M229.9,45.9c-0.4,0.7-1.1,1-1.8,1.3c-0.5,0.2-1,0.3-1.4,0.4c-0.3-0.1-0.6-0.1-0.8-0.2
				c-0.5-0.2-0.6-0.6-0.3-1c0.5-0.6,1.1-0.9,1.8-1.2c0.4-0.1,0.7-0.2,1.1-0.3c0.5-0.1,0.8,0,1.2,0.3
				C230.1,45.3,230.1,45.5,229.9,45.9z"/>
			<path class="st17" d="M226.5,43.3c0.4-0.2,0.5-1,0.2-1.2c-0.8-0.7-1.5-1.4-2.3-2.1c-0.1-0.1-0.3-0.2-0.4-0.3c0,0,0,0-0.1,0.1
				c0,0.1,0.1,0.2,0.2,0.4c-0.3,0.2-0.7,0.3-1,0.4c-0.8,0.3-1.5,0.7-2.3,1c-0.4,0.2-0.8,0.5-1.3,0.1c0.4,0.7,1.1,1.2,1.6,1.8
				c0,0,0.1,0,0.1,0c0-0.2,0-0.4,0-0.6c0,0,0-0.1-0.1-0.1c0.6-0.2,1.1-0.4,1.7-0.6c0.3-0.1,0.4,0,0.3,0.3c-0.1,0.3-0.3,0.6-0.4,0.9
				c-0.2,0.6-0.5,1.1-0.7,1.7c0.5,0.2,1,0.4,1.5,0.5c0.2,0,0.4,0,0.5-0.1c-0.1-0.1-0.1-0.3-0.2-0.4c-0.2-0.3-0.2-0.5-0.1-0.8
				c0.1-0.3,0.2-0.5,0.3-0.8c0.1-0.1,0.1-0.3,0.2-0.4c0.3,0.1,0.5,0.2,0.8,0.3C225.5,43.6,226,43.5,226.5,43.3z M223.8,42
				c-0.2-0.1-0.2-0.3,0-0.4c0.3-0.2,0.7-0.3,1-0.4c0.5-0.2,0.7,0.2,0.9,0.5c0.1,0.1,0.2,0.4,0.1,0.4c-0.2,0.2-0.5,0.4-0.8,0.5
				C224.6,42.3,224.2,42.2,223.8,42z"/>
			<path class="st17" d="M220,40.6c-0.5-0.1-1,0.3-1.5-0.1c-0.4-0.3-0.8-0.6-1.3-1c0.2-0.2,0.3-0.4,0.5-0.5c0.3-0.2,0.6-0.3,0.9-0.5
				c0.3-0.2,0.5-0.1,0.7,0.1c0.2,0.2,0.4,0.4,0.6,0.7c-0.1,0.1-0.2,0.2-0.3,0.3c-0.1,0.1-0.1,0.2-0.1,0.3c0.1,0,0.2,0.1,0.3,0.1
				c0.5-0.2,1-0.5,1.5-0.7c0-0.1,0-0.1,0-0.2c-0.1,0-0.3-0.1-0.4,0c-0.4,0.1-1-0.2-1.1-0.6c0-0.1,0-0.2,0.1-0.2
				c0.4-0.2,0.8-0.4,1.2-0.6c0.1,0,0.3,0,0.4,0.1c0.1,0.1,0.3,0.2,0.4,0.4c0.6,0.6,0.6,0.6,0,1.3c0,0,0,0.1-0.1,0.2
				c0.1,0.1,0.3,0.2,0.4,0.2c0.5-0.2,0.9-0.5,1.4-0.8c-0.3-0.1-0.5-0.1-0.6-0.2c-0.6-0.6-1.3-1.1-1.9-1.7c-0.4-0.4-0.8-0.7-1.1-1.1
				c0,0-0.1,0-0.1,0c0.2,0.4,0.1,0.6-0.3,0.8c-0.9,0.4-1.7,0.8-2.5,1.3c-0.5,0.3-0.9,0.3-1.3,0c-0.1-0.1-0.2,0-0.5,0
				c0.2,0.3,0.3,0.4,0.5,0.6c0.5,0.5,1,0.9,1.5,1.4c0.5,0.4,0.9,0.8,1.4,1.2c0.1,0.1,0.3,0.2,0.4,0.1c0.4-0.1,0.8-0.3,1.1-0.5
				C220.1,40.7,220.1,40.6,220,40.6z"/>
			<path class="st17" d="M237.8,52.3c-0.1,0.1-0.3,0.3-0.4,0.3c-0.6,0.1-1.1,0.2-1.7,0.3c-0.8,0.1-1.5,0.3-2.3,0.4
				c-0.4,0-0.8,0.3-1.2,0c-0.1,0-0.2,0-0.3-0.1c0,0.1,0,0.2,0,0.3c0.4,0.4,0.9,0.9,1.4,1.3c0.1,0.1,0.2,0.1,0.3,0.1
				c0-0.1,0-0.2,0-0.3c0-0.2-0.1-0.5,0-0.5c0.2-0.1,0.6-0.3,0.8-0.3c0.4,0.1,0.7,0.4,1,0.6c0.3,0.3,0.4,0.4,0,0.7
				c-0.2,0.1-0.4,0.2-0.7,0.3c-0.1,0-0.3,0-0.5,0c0,0.1,0,0.2,0.1,0.2c0.5,0.5,1,1,1.5,1.4c0.1,0.1,0.3,0,0.4,0c0-0.1,0-0.3-0.1-0.4
				c-0.3-0.3-0.2-0.6,0.1-0.8c0.5-0.4,0.9-0.9,1.4-1.3c0.5-0.5,0.9-1.1,1.4-1.5C238.7,52.9,238.3,52.6,237.8,52.3z M236.8,53.9
				c-0.2,0.2-0.5,0.4-0.7,0.5c0,0-0.2,0-0.2-0.1c-0.1-0.1-0.2-0.2-0.3-0.3c-0.1-0.1-0.2-0.3-0.2-0.3c0-0.1,0.2-0.2,0.3-0.3
				c0.3-0.1,0.6-0.1,1-0.1c0.1,0,0.2,0.1,0.3,0.2C237,53.6,236.9,53.8,236.8,53.9z"/>
		</g>
	</g>
</g>
</svg>
