<?xml version="1.0" encoding="utf-8"?>
<!-- Generator: Adobe Illustrator 25.2.0, SVG Export Plug-In . SVG Version: 6.00 Build 0)  -->
<svg version="1.1" id="Layer_1" xmlns="http://www.w3.org/2000/svg" xmlns:xlink="http://www.w3.org/1999/xlink" x="0px" y="0px"
	 viewBox="0 0 240 240" style="enable-background:new 0 0 240 240;" xml:space="preserve">
<style type="text/css">
	.st0{fill:#FFFFFF;}
</style>
<g>
	<path d="M7750.7,3660.4v-6c0-8.4-15-12-29.1-12s-29.1,3.9-29.1,12v6c0,5.4,2.1,10.8,6,14.7l15,14.7c0.9,0.9,1.2,1.8,1.2,3v19.2
		c0,1.2,0.6,2.1,1.8,2.4l8.7,2.7c1.5,0.3,3-0.6,3-2.4v-21.6c0-1.2,0.6-2.1,1.2-3l15.3-15C7748.6,3671.2,7750.7,3665.8,7750.7,3660.4
		z M7721.6,3660.1c-14.4,0-22.2-3.9-22.5-5.4l0,0c0.3-1.5,8.1-5.4,22.5-5.4s21.9,3.9,22.5,5.4
		C7743.5,3656.2,7736,3660.1,7721.6,3660.1z"/>
	<path d="M7736.6,3691c-1.8,0-3,1.2-3,3s1.2,3,3,3h12.9c1.8,0,3-1.2,3-3s-1.2-3-3-3H7736.6z"/>
	<path d="M7749.5,3701.2h-12.9c-1.8,0-3,1.2-3,3s1.2,3,3,3h12.9c1.8,0,3-1.2,3-3C7752.5,3702.4,7751.3,3701.2,7749.5,3701.2z"/>
	<path d="M7749.5,3711.1h-12.9c-1.8,0-3,1.2-3,3s1.2,3,3,3h12.9c1.8,0,3-1.2,3-3C7752.5,3712.6,7751.3,3711.1,7749.5,3711.1z"/>
</g>
<g>
	<path d="M-7810.9-3464v-22.5c0-31.5-57.6-45.9-111.3-45.9c-53.7,0-111.3,14.4-111.3,45.9v22.5c0,21,8.4,40.8,23.4,55.5l57,56.1
		c3,3,4.8,7.2,4.8,11.4v73.2c0,3.9,2.7,7.5,6.6,8.7l33.3,9.9c5.7,1.8,11.7-2.7,11.7-8.7v-81.9c0-4.2,1.8-8.4,4.8-11.4l57.9-57.3
		C-7819.3-3422.9-7810.9-3443-7810.9-3464z M-7922.2-3465.5c-55.5,0-84.3-15.3-86.1-20.7l0,0c1.8-5.7,30.6-21,86.1-21
		c54.9,0,83.7,15,86.1,21C-7838.5-3480.5-7867.3-3465.5-7922.2-3465.5z"/>
	<path d="M-7864.9-3347.6c-6.3,0-11.4,5.1-11.4,11.4s5.1,11.4,11.4,11.4h49.8c6.3,0,11.4-5.1,11.4-11.4s-5.1-11.4-11.4-11.4H-7864.9
		z"/>
	<path d="M-7815.1-3308.9h-49.8c-6.3,0-11.4,5.1-11.4,11.4s5.1,11.4,11.4,11.4h49.8c6.3,0,11.4-5.1,11.4-11.4
		S-7808.8-3308.9-7815.1-3308.9z"/>
	<path d="M-7815.1-3270.2h-49.8c-6.3,0-11.4,5.1-11.4,11.4s5.1,11.4,11.4,11.4h49.8c6.3,0,11.4-5.1,11.4-11.4
		S-7808.8-3270.2-7815.1-3270.2z"/>
</g>
<g>
	<path d="M7750.6,3661.4v-6c0-8.4-15-12-29.1-12s-29.1,3.9-29.1,12v6c0,5.4,2.1,10.8,6,14.7l15,14.7c0.9,0.9,1.2,1.8,1.2,3v19.2
		c0,1.2,0.6,2.1,1.8,2.4l8.7,2.7c1.5,0.3,3-0.6,3-2.4v-21.6c0-1.2,0.6-2.1,1.2-3l15.3-15C7748.5,3672.2,7750.6,3666.8,7750.6,3661.4
		z M7721.5,3661.1c-14.4,0-22.2-3.9-22.5-5.4l0,0c0.3-1.5,8.1-5.4,22.5-5.4s21.9,3.9,22.5,5.4
		C7743.4,3657.2,7735.9,3661.1,7721.5,3661.1z"/>
	<path d="M7736.5,3692c-1.8,0-3,1.2-3,3s1.2,3,3,3h12.9c1.8,0,3-1.2,3-3s-1.2-3-3-3H7736.5z"/>
	<path d="M7749.4,3702.2h-12.9c-1.8,0-3,1.2-3,3s1.2,3,3,3h12.9c1.8,0,3-1.2,3-3S7751.2,3702.2,7749.4,3702.2z"/>
	<path d="M7749.4,3712.1h-12.9c-1.8,0-3,1.2-3,3s1.2,3,3,3h12.9c1.8,0,3-1.2,3-3C7752.4,3713.6,7751.2,3712.1,7749.4,3712.1z"/>
</g>
<g>
	<path d="M-7811-3463v-22.5c0-31.5-57.6-45.9-111.3-45.9c-53.7,0-111.3,14.4-111.3,45.9v22.5c0,21,8.4,40.8,23.4,55.5l57,56.1
		c3,3,4.8,7.2,4.8,11.4v73.2c0,3.9,2.7,7.5,6.6,8.7l33.3,9.9c5.7,1.8,11.7-2.7,11.7-8.7v-81.9c0-4.2,1.8-8.4,4.8-11.4l57.9-57.3
		C-7819.4-3421.9-7811-3442-7811-3463z M-7922.3-3464.5c-55.5,0-84.3-15.3-86.1-20.7l0,0c1.8-5.7,30.6-21,86.1-21
		c54.9,0,83.7,15,86.1,21C-7838.6-3479.5-7867.4-3464.5-7922.3-3464.5z"/>
	<path d="M-7865-3346.6c-6.3,0-11.4,5.1-11.4,11.4s5.1,11.4,11.4,11.4h49.8c6.3,0,11.4-5.1,11.4-11.4c0-6.3-5.1-11.4-11.4-11.4
		H-7865z"/>
	<path d="M-7815.2-3307.9h-49.8c-6.3,0-11.4,5.1-11.4,11.4c0,6.3,5.1,11.4,11.4,11.4h49.8c6.3,0,11.4-5.1,11.4-11.4
		S-7808.9-3307.9-7815.2-3307.9z"/>
	<path d="M-7815.2-3269.2h-49.8c-6.3,0-11.4,5.1-11.4,11.4s5.1,11.4,11.4,11.4h49.8c6.3,0,11.4-5.1,11.4-11.4
		S-7808.9-3269.2-7815.2-3269.2z"/>
</g>
<g>
	<path d="M7750.6,3661.4v-6c0-8.4-15-12-29.1-12s-29.1,3.9-29.1,12v6c0,5.4,2.1,10.8,6,14.7l15,14.7c0.9,0.9,1.2,1.8,1.2,3v19.2
		c0,1.2,0.6,2.1,1.8,2.4l8.7,2.7c1.5,0.3,3-0.6,3-2.4v-21.6c0-1.2,0.6-2.1,1.2-3l15.3-15C7748.5,3672.2,7750.6,3666.8,7750.6,3661.4
		z M7721.5,3661.1c-14.4,0-22.2-3.9-22.5-5.4l0,0c0.3-1.5,8.1-5.4,22.5-5.4s21.9,3.9,22.5,5.4
		C7743.4,3657.2,7735.9,3661.1,7721.5,3661.1z"/>
	<path d="M7736.5,3692c-1.8,0-3,1.2-3,3s1.2,3,3,3h12.9c1.8,0,3-1.2,3-3s-1.2-3-3-3H7736.5z"/>
	<path d="M7749.4,3702.2h-12.9c-1.8,0-3,1.2-3,3s1.2,3,3,3h12.9c1.8,0,3-1.2,3-3S7751.2,3702.2,7749.4,3702.2z"/>
	<path d="M7749.4,3712.1h-12.9c-1.8,0-3,1.2-3,3s1.2,3,3,3h12.9c1.8,0,3-1.2,3-3C7752.4,3713.6,7751.2,3712.1,7749.4,3712.1z"/>
</g>
<g>
	<path d="M-7811-3463v-22.5c0-31.5-57.6-45.9-111.3-45.9c-53.7,0-111.3,14.4-111.3,45.9v22.5c0,21,8.4,40.8,23.4,55.5l57,56.1
		c3,3,4.8,7.2,4.8,11.4v73.2c0,3.9,2.7,7.5,6.6,8.7l33.3,9.9c5.7,1.8,11.7-2.7,11.7-8.7v-81.9c0-4.2,1.8-8.4,4.8-11.4l57.9-57.3
		C-7819.4-3421.9-7811-3442-7811-3463z M-7922.3-3464.5c-55.5,0-84.3-15.3-86.1-20.7l0,0c1.8-5.7,30.6-21,86.1-21
		c54.9,0,83.7,15,86.1,21C-7838.6-3479.5-7867.4-3464.5-7922.3-3464.5z"/>
	<path d="M-7865-3346.6c-6.3,0-11.4,5.1-11.4,11.4s5.1,11.4,11.4,11.4h49.8c6.3,0,11.4-5.1,11.4-11.4c0-6.3-5.1-11.4-11.4-11.4
		H-7865z"/>
	<path d="M-7815.2-3307.9h-49.8c-6.3,0-11.4,5.1-11.4,11.4c0,6.3,5.1,11.4,11.4,11.4h49.8c6.3,0,11.4-5.1,11.4-11.4
		S-7808.9-3307.9-7815.2-3307.9z"/>
	<path d="M-7815.2-3269.2h-49.8c-6.3,0-11.4,5.1-11.4,11.4s5.1,11.4,11.4,11.4h49.8c6.3,0,11.4-5.1,11.4-11.4
		S-7808.9-3269.2-7815.2-3269.2z"/>
</g>
<g>
	<g>
		<path class="st0" d="M220.9,117.8c0-6.6-2.8-12.1-8.1-16.1c-2.9-2.3-5.9-4.5-8.9-6.7c-3.1-2.3-6.2-4.7-9.5-7.1
			c-0.1,0.5-0.2,0.6-0.2,0.8c0,5.7-0.1,11.4,0,17.1c0,0.7,0.6,1.5,1.1,2c2.7,2.2,5.5,4.3,8.3,6.4c2.5,1.9,2.5,3.1,0.1,5.1
			c-13.3,10.6-26.6,21.2-39.8,31.7c-0.7,0.6-1.5,1.2-2.3,1.9c2.2,1.9,4.1,3.6,6.1,5.3c6.5,5.6,13,11.1,19.5,16.7
			c1.8,1.6,2.5,3.6,1.9,5.9c-0.6,2.2-2.1,3.4-4.3,3.9c-2.1,0.4-3.8-0.5-5.3-1.9c-15.3-13.2-30.7-26.3-46-39.5
			c-8-6.9-18.8-6.9-26.9,0c-3.9,3.3-7.8,6.7-11.7,10c-11.5,9.9-23,19.7-34.5,29.6c-1.5,1.3-3.1,2.2-5.2,1.8
			c-2.2-0.4-3.7-1.7-4.3-3.9c-0.7-2.4,0.1-4.4,2-6c7.8-6.6,15.6-13.3,23.3-20c0.7-0.6,1.3-1.2,2.1-1.9c-0.6-0.5-1.1-1-1.6-1.3
			c-13.4-10.7-26.8-21.3-40.2-32c-2.9-2.3-2.9-3.3,0.2-5.7c2.6-2,5.2-4,7.8-6c0.5-0.4,1.1-1,1.1-1.6c0.1-6,0.1-12,0.1-18.6
			c-7,5.3-13.6,10-19.9,15.1c-4.5,3.7-6.8,8.8-6.8,14.6c-0.1,25-0.1,50,0,74.9c0.1,10.9,9.1,19.7,20.1,19.7c53.9,0,107.8,0,161.7,0
			c11.2,0,20.1-8.9,20.1-20.1C221,167.2,221,142.5,220.9,117.8z M57.2,124.2c3,1.9,5.7,4.5,8.8,7v-2.7c0-26.9,0-53.7,0-80.6
			c0-3.1,1.2-4.3,4.1-4.3c33.2,0,66.4,0,99.6,0c3.1,0,4.3,1.2,4.3,4.3c0,9,0,18,0,26.9c0,18.6,0,37.2,0,56.3c4.2-3.4,8-6.5,12-9.6
			c1-0.8,1.4-1.5,1.4-2.8c0-24.8,0-49.7,0-74.5c0-8.3-5.8-14-14.1-14c-35.2,0-70.4,0-105.7,0c-9.4,0-14.8,5.5-14.8,14.9
			c0,23.2,0.1,46.3-0.1,69.5C52.6,118.9,53.6,121.8,57.2,124.2z M105.2,113.7c8.5-5.9,8.4-17.5,0-23.4c-2.2-1.5-4.7-2.6-7.1-3.7
			c-2.6-1.2-5.4-2.1-7.9-3.4c-3-1.5-4-3.5-3.5-6.3c0.5-2.7,2.5-4,5-4.5c4.4-0.9,8.7-0.4,12.7,1.6c1.6,0.8,2.5,0.6,3-1.1
			c0.5-1.5,1.1-2.9,1.6-4.3c0.5-1.3,0.1-2.2-1.2-2.7c-1.8-0.6-3.6-1.2-5.4-1.6c-1.9-0.4-3.9-0.6-6-0.9c0-1.5,0-2.9,0-4.2
			c0-1.4-0.7-2.1-2.1-2.1c-0.8,0-1.5,0-2.3,0c-1.5,0-2.2,0.7-2.2,2.2c0,1.6,0,3.2,0,4.6c-1.9,0.7-3.6,1.2-5.2,1.9
			c-4.9,2.2-8.1,5.8-8.7,11.2c-0.7,5.8,2,10.1,6.8,13c2.9,1.7,6.2,2.9,9.3,4.3c2.1,1,4.4,1.8,6.3,3.2c3.6,2.7,3.2,8.1-0.8,10.2
			c-1.6,0.9-3.6,1.3-5.4,1.4c-4.4,0.3-8.6-0.6-12.5-2.8c-1.6-0.9-2.6-0.6-3.1,1.2c-0.4,1.4-0.9,2.8-1.4,4.2c-0.7,1.5-0.1,2.5,1.3,3
			c2.5,0.9,5,1.7,7.6,2.3c1.9,0.5,3.8,0.6,5.9,0.8c0,1.5-0.2,3,0.1,4.3c0.2,0.8,1.1,1.6,1.9,1.9c0.7,0.3,1.7,0.1,2.5,0.1
			c1.3,0,2.1-0.7,2.1-2.1c0-1.5,0-3.1,0-4.3C99.6,116.5,102.6,115.5,105.2,113.7z M129.5,70.5c4.7-0.1,9.4,0,14.1,0
			c4.6,0,9.3,0,13.9,0c2.6,0,2.9-0.2,2.9-2.9c0-0.6,0-1.1,0-1.7c0-1.3-0.6-2-1.9-2c-9.9,0-19.8,0-29.7,0c-1.3,0-1.9,0.7-1.9,2
			c0,0.6,0,1.3,0,1.9C126.6,69.8,127.5,70.6,129.5,70.5z M157.5,77.4c-4.6,0-9.3,0-13.9,0c-4.7,0-9.4,0.1-14.1,0
			c-2,0-2.9,0.7-2.7,2.7c0.1,0.6,0,1.3,0,1.9c0,1.3,0.6,2,1.9,2c9.9,0,19.8,0,29.7,0c1.3,0,1.9-0.6,1.9-1.9c0-0.6,0-1.1,0-1.7
			C160.3,77.7,160.1,77.4,157.5,77.4z M160.3,93.6c0-2.5-0.3-2.7-2.8-2.7c-4.6,0-9.3,0-13.9,0c-4.7,0-9.4,0-14.1,0
			c-2.5,0-2.7,0.3-2.7,3.3c0,3,0.2,3.3,2.7,3.3c9,0,18,0,26.9,0C160.4,97.4,160.4,97.4,160.3,93.6z M130.7,104.3
			c-3.9,0-3.9,0-3.9,3.8c0,2.5,0.3,2.8,2.8,2.8c4.6,0,9.3,0,13.9,0v0c4.6,0,9.3,0,13.9,0c2.8,0,2.9-0.1,2.9-3.5
			c0-2.9-0.2-3.1-2.9-3.1C148.5,104.3,139.6,104.3,130.7,104.3z"/>
	</g>
</g>
</svg>
