<?xml version="1.0" encoding="utf-8"?>
<!-- Generator: Adobe Illustrator 25.0.1, SVG Export Plug-In . SVG Version: 6.00 Build 0)  -->
<svg version="1.1" id="Layer_1" xmlns="http://www.w3.org/2000/svg" xmlns:xlink="http://www.w3.org/1999/xlink" x="0px" y="0px"
	 viewBox="0 0 630 240" style="enable-background:new 0 0 630 240;" xml:space="preserve">
<g>
	<g>
		<path d="M54.874,188.77c-1.982-0.952-4.28-1.429-6.89-1.429H34.416v34.68h7.165v-12.219h6.282c4.124,0,7.353-0.982,9.686-2.943
			c2.332-1.96,3.499-4.641,3.499-8.038c0-2.239-0.533-4.237-1.6-5.99C58.38,191.077,56.856,189.724,54.874,188.77z M52.318,202.68
			c-0.995,0.89-2.441,1.335-4.335,1.335h-6.402v-10.886h6.569c1.768,0.032,3.152,0.573,4.156,1.619
			c1.003,1.049,1.505,2.423,1.505,4.121C53.811,200.521,53.313,201.791,52.318,202.68z M91.422,203.741
			c1.027-1.58,1.541-3.553,1.541-5.919c0-3.335-1.115-5.915-3.344-7.741c-2.23-1.826-5.398-2.739-9.506-2.739H67.191v34.68h7.165
			v-12.695h5.708l6.521,12.695h7.691v-0.333l-7.524-14.173C88.838,206.578,90.395,205.322,91.422,203.741z M84.316,202.169
			c-0.987,0.913-2.381,1.369-4.18,1.369h-5.78v-10.409h5.756c1.927,0,3.356,0.468,4.288,1.405c0.931,0.938,1.397,2.223,1.397,3.859
			C85.797,199.997,85.303,201.255,84.316,202.169z M121.115,188.949c-2.253-1.39-4.829-2.086-7.726-2.086
			c-2.899,0-5.474,0.696-7.727,2.086c-2.254,1.389-3.997,3.382-5.231,5.978c-1.234,2.597-1.851,5.601-1.851,9.016v1.715
			c0.016,3.334,0.645,6.284,1.887,8.848c1.242,2.566,2.994,4.538,5.255,5.919s4.833,2.073,7.715,2.073
			c2.914,0,5.498-0.698,7.751-2.097c2.253-1.395,3.985-3.382,5.195-5.954c1.21-2.573,1.816-5.567,1.816-8.981v-1.548
			c0-3.398-0.617-6.394-1.851-8.991C125.112,192.332,123.368,190.338,121.115,188.949z M120.936,205.587
			c-0.016,3.604-0.669,6.347-1.958,8.229c-1.29,1.882-3.137,2.822-5.541,2.822c-2.452,0-4.331-0.976-5.636-2.928
			c-1.306-1.954-1.959-4.701-1.959-8.243v-1.691c0.015-3.603,0.676-6.338,1.983-8.204c1.305-1.867,3.161-2.799,5.565-2.799
			c2.42,0,4.283,0.945,5.589,2.834c1.306,1.891,1.958,4.654,1.958,8.29V205.587z M153.531,189.401
			c-2.412-1.374-5.147-2.059-8.204-2.059h-10.7v34.68h10.772c3.041-0.015,5.772-0.715,8.192-2.096
			c2.42-1.382,4.295-3.327,5.625-5.836c1.329-2.509,1.994-5.374,1.994-8.599v-1.595c0-3.223-0.677-6.102-2.03-8.635
			C157.826,192.728,155.944,190.775,153.531,189.401z M153.949,205.706c-0.032,3.398-0.788,6.01-2.269,7.836
			c-1.48,1.827-3.623,2.741-6.425,2.741h-3.463v-23.154h3.535c2.818,0,4.959,0.909,6.425,2.728c1.465,1.818,2.197,4.491,2.197,8.015
			V205.706z M186.772,210.422c-0.064,4.224-2.11,6.336-6.138,6.336c-1.927,0-3.435-0.519-4.526-1.561
			c-1.091-1.039-1.636-2.694-1.636-4.965v-22.889h-7.165v23.103c0.048,3.749,1.266,6.694,3.654,8.838
			c2.388,2.143,5.612,3.215,9.673,3.215c4.124,0,7.376-1.103,9.757-3.31c2.381-2.207,3.571-5.209,3.571-9.004v-22.842h-7.189
			V210.422z M209.097,195.285c1.186-1.707,2.973-2.561,5.362-2.561c2.197,0,3.833,0.505,4.908,1.513
			c1.075,1.008,1.7,2.631,1.875,4.871h7.166c-0.382-3.876-1.8-6.885-4.252-9.027c-2.452-2.144-5.685-3.217-9.697-3.217
			c-2.899,0-5.443,0.68-7.631,2.037c-2.19,1.358-3.873,3.307-5.052,5.847c-1.179,2.542-1.768,5.479-1.768,8.814v2.119
			c0,5.224,1.278,9.333,3.834,12.326c2.555,2.994,6.062,4.49,10.521,4.49c4.076,0,7.36-1.072,9.852-3.215
			c2.492-2.144,3.873-5.081,4.144-8.813h-7.165c-0.159,2.112-0.785,3.672-1.875,4.681c-1.091,1.008-2.743,1.512-4.956,1.512
			c-2.452,0-4.248-0.865-5.386-2.597c-1.139-1.73-1.708-4.47-1.708-8.216v-2.622C207.301,199.64,207.91,196.992,209.097,195.285z
			 M231.445,193.129h10.509v28.893h7.166v-28.893h10.652v-5.787h-28.327V193.129z M278.216,201.562
			c-2.214-0.668-3.889-1.381-5.028-2.145c-1.139-0.761-1.708-1.705-1.708-2.834c0-1.207,0.485-2.18,1.457-2.918
			c0.971-0.738,2.332-1.107,4.084-1.107c1.815,0,3.225,0.441,4.227,1.322c1.003,0.88,1.505,2.117,1.505,3.704h7.166
			c0-2.079-0.538-3.939-1.613-5.573c-1.074-1.636-2.584-2.903-4.526-3.8c-1.943-0.897-4.157-1.347-6.64-1.347
			c-2.469,0-4.693,0.414-6.676,1.24c-1.983,0.825-3.503,1.973-4.562,3.441c-1.059,1.468-1.588,3.14-1.588,5.014
			c0,3.604,1.974,6.47,5.923,8.598c1.449,0.779,3.416,1.57,5.9,2.37c2.484,0.802,4.204,1.564,5.159,2.287
			c0.955,0.723,1.433,1.758,1.433,3.108c0,1.239-0.478,2.204-1.433,2.894c-0.956,0.691-2.285,1.037-3.988,1.037
			c-4.586,0-6.879-1.914-6.879-5.741h-7.189c0,2.239,0.577,4.209,1.732,5.907c1.154,1.701,2.83,3.037,5.028,4.015
			c2.197,0.976,4.634,1.464,7.309,1.464c3.853,0,6.918-0.853,9.195-2.56c2.277-1.708,3.416-4.063,3.416-7.063
			c0-2.699-0.932-4.954-2.795-6.764C285.262,204.3,282.293,202.785,278.216,201.562z M100.107,22.002l2.965-6.774L31,11.993
			l2.798,14.434l22.471-2.394l-2.06,116.55l9.031,2.041L75.663,23.103L100.107,22.002z M159.151,126.926l-6.385-12.272
			c-3.214,2.178-7.91,4.377-14.515,5.326c-1.033,0.145-2.098,0.105-3.128,0.255c-12.793,0.682-28.258-3.031-32.499-32.044
			l52.71-3.525c-0.436-4.905-0.655-7.359-1.341-11.274c-3.401-19.39-12.394-35.684-34.783-34.198
			c-0.821,0.115-1.886,0.075-2.715,0.194C94.407,42.55,86.227,65.885,90.9,92.542c3.731,21.253,16.988,44.967,48.988,40.388
			C147.526,131.839,155.175,129.596,159.151,126.926z M116.894,48.889c10.736-1.537,18.794,8.202,21.767,25.168l-35.464,4.119
			C101.765,65.191,104.711,50.628,116.894,48.889z M221.232,125.056l0.621,0.085l-6.048,46.527l11.293-1.628l17.742-95.116
			l4.806-27.403l-18.041-8.124l-0.232,16.974l-0.408-0.06c-3.943-10.12-11.611-14.658-19.457-15.778
			c-16.307-2.333-35.506,10.595-40.637,39.863c-4.022,22.925-1.156,51.24,25.057,54.992
			C207.081,136.979,216.96,131.323,221.232,125.056z M186.745,80.376c3.071-17.527,11.895-30.405,25.312-28.485
			c10.944,1.563,16.859,13.684,15.091,27.38l-2.65,22.363c-1.946,17.11-13.997,21.889-21.018,20.883
			C185.31,119.917,184.063,95.658,186.745,80.376z M264.547,42.72c0.211,0.205,0.316,0.558,0.316,1.055
			c0,0.815,0.039,1.323,0.118,1.523h0.86v-0.133c-0.05-0.127-0.087-0.287-0.109-0.477c-0.023-0.19-0.034-0.497-0.034-0.919
			c0-0.425-0.079-0.789-0.236-1.092c-0.158-0.305-0.439-0.528-0.844-0.673c0.793-0.357,1.189-0.903,1.189-1.645
			c0-0.695-0.222-1.214-0.666-1.555c-0.444-0.344-1.079-0.513-1.906-0.513h-2.176v7.007h0.826v-2.89h1.586
			C263.978,42.409,264.336,42.512,264.547,42.72z M261.885,41.658v-2.614h1.468c0.596,0.011,1.016,0.117,1.261,0.32
			c0.244,0.204,0.367,0.541,0.367,1.015c0,0.386-0.147,0.692-0.443,0.927c-0.295,0.234-0.67,0.352-1.125,0.352H261.885z
			 M266.31,47.291c0.931-0.576,1.652-1.343,2.163-2.301c0.512-0.958,0.768-1.991,0.768-3.098c0-1.124-0.263-2.17-0.789-3.133
			c-0.526-0.963-1.254-1.722-2.185-2.276c-0.931-0.555-1.935-0.831-3.015-0.831c-1.08,0-2.085,0.276-3.016,0.831
			c-0.931,0.554-1.658,1.313-2.184,2.276c-0.525,0.963-0.789,2.008-0.789,3.133c0,1.108,0.256,2.14,0.767,3.098
			c0.512,0.958,1.233,1.725,2.164,2.301c0.931,0.575,1.949,0.865,3.057,0.865C264.36,48.156,265.379,47.866,266.31,47.291z
			 M258.685,44.669c-0.47-0.858-0.704-1.784-0.704-2.784c0-0.991,0.234-1.912,0.7-2.762c0.466-0.848,1.109-1.521,1.927-2.014
			c0.819-0.494,1.699-0.74,2.644-0.74c0.961,0,1.851,0.251,2.669,0.752c0.818,0.501,1.455,1.176,1.91,2.024
			c0.456,0.845,0.683,1.759,0.683,2.74c0,0.994-0.232,1.919-0.696,2.78c-0.464,0.861-1.106,1.537-1.927,2.033
			c-0.821,0.493-1.701,0.737-2.64,0.737c-0.939,0-1.818-0.244-2.636-0.737C259.798,46.203,259.154,45.528,258.685,44.669z"/>
	</g>
</g>
</svg>
