<?xml version="1.0" encoding="utf-8"?>
<!-- Generator: Adobe Illustrator 25.0.1, SVG Export Plug-In . SVG Version: 6.00 Build 0)  -->
<svg version="1.1" id="Layer_1" xmlns="http://www.w3.org/2000/svg" xmlns:xlink="http://www.w3.org/1999/xlink" x="0px" y="0px"
	 viewBox="0 0 240 240" style="enable-background:new 0 0 240 240;" xml:space="preserve">
<g>
	<g>
		<path d="M73.007,66.475c48.893,0.017,97.786,0.017,146.68-0.007c8.778-0.004,14.998-6.453,14.93-15.33
			c-0.07-9.08-6.071-15.113-15.044-15.114c-24.447-0.004-48.894-0.002-73.341-0.002v-0.014c-24.447,0-48.894,0.032-73.34-0.034
			c-4.17-0.013-7.855,0.982-10.697,4.076c-4.662,5.077-5.616,11.001-3.243,17.364C61.197,63.427,66.027,66.47,73.007,66.475z
			 M233.031,181.754c-2.679-5.798-7.506-8.274-13.856-8.254c-20.369,0.057-40.736,0.019-61.104,0.02
			c-28.387,0.006-56.775,0.033-85.162,0.008c-5.517-0.005-10.03,1.884-12.816,6.766c-3.131,5.483-3.204,11.209-0.144,16.737
			c2.881,5.208,7.591,7.002,13.438,6.976c24.187-0.111,48.374-0.046,72.559-0.043c24.57,0.006,49.139-0.023,73.708,0.032
			c4.776,0.011,8.768-1.467,11.646-5.333C235.219,193.402,235.748,187.635,233.031,181.754z M219.175,104.728
			c-20.363,0.385-40.737,0.108-61.105,0.111c-28.39,0.004-56.781,0.048-85.169-0.016c-5.751-0.015-10.196,2.102-13,7.098
			c-5.631,10.031,0.271,23.747,13.487,23.498c24.18-0.462,48.374-0.131,72.564-0.13c24.571,0.006,49.142-0.024,73.712,0.023
			c6.629,0.014,11.264-3,13.713-9C237.65,115.847,230.719,104.514,219.175,104.728z M24.116,70.471
			c10.847,0.223,19.478-7.97,19.885-18.882c0.391-10.495-8.252-19.438-19.077-19.743C14.323,31.553,5.435,40.211,5.277,50.988
			C5.123,61.596,13.49,70.249,24.116,70.471z M24.846,169.478c-10.783-0.107-19.49,8.444-19.53,19.192
			c-0.04,10.743,8.648,19.526,19.284,19.491c10.667-0.032,19.487-8.852,19.443-19.436C44.001,178.251,35.357,169.586,24.846,169.478
			z M24.85,100.765c-10.742-0.161-19.459,8.396-19.536,19.173c-0.077,10.792,8.471,19.394,19.278,19.398
			c10.723,0.006,19.513-8.732,19.458-19.341C43.996,109.481,35.446,100.922,24.85,100.765z"/>
	</g>
</g>
</svg>
