<?xml version="1.0" encoding="utf-8"?>
<!-- Generator: Adobe Illustrator 24.2.1, SVG Export Plug-In . SVG Version: 6.00 Build 0)  -->
<svg version="1.1" id="Layer_1" xmlns="http://www.w3.org/2000/svg" xmlns:xlink="http://www.w3.org/1999/xlink" x="0px" y="0px"
	 viewBox="0 0 300 300" style="enable-background:new 0 0 300 300;" xml:space="preserve">
<path d="M150.001,5.538c-0.315,0-0.634,0.001-0.949,0.003l0.037,5.682c0.304-0.002,0.608-0.003,0.912-0.003V5.538L150.001,5.538
	L150.001,5.538z M139.593,5.908c-0.005,0-0.014,0.001-0.019,0.001c-0.012,0.001-0.024,0.002-0.036,0.003
	c-0.005,0-0.006,0-0.01,0.001c-0.175,0.013-0.35,0.025-0.525,0.039l-0.001,0c-0.017,0.001-0.034,0.002-0.05,0.004
	c-0.005,0-0.01,0.001-0.015,0.001c-0.011,0.001-0.023,0.002-0.034,0.002c-0.014,0.001-0.019,0.002-0.034,0.003
	c-0.003,0-0.007,0-0.011,0.001c-0.071,0.006-0.139,0.011-0.211,0.016l0.442,5.665c0.302-0.024,0.605-0.046,0.908-0.068
	L139.593,5.908L139.593,5.908z M129.238,7.024c-0.089,0.013-0.177,0.026-0.266,0.039c-0.004,0.001-0.008,0.001-0.012,0.002
	c-0.014,0.002-0.018,0.003-0.032,0.005c-0.011,0.002-0.023,0.003-0.035,0.005c-0.005,0.001-0.009,0.001-0.014,0.002
	c-0.111,0.016-0.222,0.033-0.332,0.049c-0.005,0.001-0.016,0.002-0.02,0.003c-0.007,0.001-0.015,0.002-0.023,0.003
	c-0.07,0.01-0.133,0.02-0.203,0.031l0.849,5.618c0.3-0.045,0.599-0.09,0.9-0.133L129.238,7.024L129.238,7.024z M118.992,8.885
	c-0.133,0.029-0.266,0.059-0.399,0.088c-0.005,0.001-0.004,0.001-0.009,0.002c-0.013,0.003-0.025,0.006-0.038,0.009
	c-0.009,0.002-0.016,0.003-0.025,0.006c-0.006,0.001-0.013,0.003-0.019,0.004c-0.014,0.003-0.027,0.006-0.04,0.009
	c0,0-0.001,0-0.001,0c-0.105,0.023-0.204,0.046-0.309,0.069c-0.008,0.002-0.015,0.003-0.023,0.005
	c-0.005,0.001-0.008,0.002-0.013,0.003c-0.016,0.004-0.032,0.007-0.048,0.011l1.255,5.542c0.296-0.067,0.591-0.133,0.887-0.198
	L118.992,8.885L118.992,8.885z M108.908,11.486c-0.303,0.09-0.605,0.181-0.907,0.273l1.655,5.436c0.29-0.088,0.58-0.175,0.871-0.262
	L108.908,11.486L108.908,11.486z M99.041,14.815c-0.092,0.035-0.184,0.07-0.276,0.105l-0.001,0.001
	c-0.015,0.006-0.031,0.012-0.047,0.018c-0.004,0.002-0.013,0.005-0.017,0.006c-0.01,0.004-0.019,0.008-0.029,0.011
	c-0.013,0.005-0.018,0.007-0.031,0.012c-0.005,0.002-0.009,0.004-0.014,0.005c-0.128,0.049-0.264,0.101-0.393,0.151
	c-0.005,0.002-0.01,0.004-0.015,0.006c-0.009,0.003-0.009,0.003-0.017,0.007c-0.015,0.006-0.03,0.012-0.045,0.017l2.046,5.3
	c0.283-0.109,0.566-0.217,0.85-0.324L99.041,14.815L99.041,14.815z M89.442,18.854c-0.165,0.077-0.324,0.151-0.489,0.228
	c-0.002,0.001-0.004,0.002-0.006,0.003c-0.016,0.008-0.026,0.012-0.043,0.02c-0.107,0.05-0.213,0.1-0.32,0.151l2.426,5.138
	c0.274-0.13,0.549-0.258,0.824-0.386L89.442,18.854L89.442,18.854z M80.161,23.579l-0.003,0.002
	c-0.256,0.142-0.51,0.285-0.765,0.428c-0.008,0.005-0.008,0.005-0.016,0.009c-0.008,0.005-0.017,0.009-0.025,0.014
	c-0.004,0.002-0.013,0.008-0.017,0.01l2.792,4.948c0.264-0.149,0.529-0.297,0.794-0.445L80.161,23.579L80.161,23.579z
	 M71.247,28.963c-0.091,0.059-0.178,0.117-0.269,0.176c-0.001,0.001-0.002,0.001-0.003,0.002c-0.015,0.01-0.024,0.016-0.039,0.026
	c-0.004,0.003-0.009,0.006-0.013,0.009c-0.011,0.008-0.021,0.014-0.033,0.022c-0.005,0.004-0.011,0.007-0.016,0.011
	c-0.011,0.008-0.017,0.012-0.029,0.019c-0.009,0.006-0.019,0.012-0.028,0.019c-0.008,0.005-0.01,0.007-0.017,0.012
	c-0.115,0.076-0.229,0.151-0.343,0.227l3.143,4.734c0.253-0.168,0.506-0.335,0.76-0.501L71.247,28.963L71.247,28.963z
	 M62.744,34.977c-0.251,0.191-0.502,0.384-0.751,0.577l3.475,4.495c0.24-0.185,0.48-0.37,0.722-0.554L62.744,34.977L62.744,34.977z
	 M54.697,41.587c-0.02,0.018-0.039,0.034-0.059,0.052c-0.187,0.165-0.373,0.331-0.559,0.497c-0.003,0.003,0,0-0.004,0.003
	c-0.01,0.009-0.019,0.017-0.029,0.025c-0.01,0.009-0.016,0.014-0.026,0.023c0,0,0,0-0.001,0.001
	c-0.01,0.009-0.021,0.019-0.031,0.028l3.789,4.233c0.226-0.202,0.453-0.404,0.68-0.605L54.697,41.587L54.697,41.587z M47.146,48.759
	c-0.165,0.168-0.329,0.337-0.494,0.506c-0.006,0.006-0.009,0.01-0.016,0.016c-0.005,0.005-0.009,0.01-0.014,0.014
	c-0.047,0.048-0.09,0.093-0.137,0.142l4.084,3.95c0.211-0.218,0.422-0.435,0.635-0.652L47.146,48.759L47.146,48.759z M40.129,56.455
	c-0.058,0.069-0.111,0.131-0.169,0.2c-0.003,0.003-0.005,0.006-0.008,0.009c-0.006,0.007-0.016,0.019-0.022,0.026
	c-0.009,0.01-0.017,0.021-0.026,0.031c-0.003,0.003-0.004,0.004-0.007,0.008c-0.1,0.118-0.199,0.236-0.298,0.355
	c-0.006,0.007-0.006,0.007-0.012,0.014c-0.007,0.008-0.014,0.017-0.021,0.025c-0.009,0.01-0.015,0.018-0.024,0.028
	c-0.002,0.002-0.004,0.004-0.005,0.006c-0.006,0.007-0.013,0.015-0.019,0.022l4.357,3.647c0.195-0.233,0.39-0.465,0.586-0.696
	L40.129,56.455L40.129,56.455z M33.683,64.635c-0.003,0.004-0.003,0.004-0.006,0.008c-0.184,0.252-0.368,0.505-0.551,0.758
	l4.608,3.324c0.177-0.246,0.355-0.492,0.535-0.736L33.683,64.635L33.683,64.635z M27.844,73.258
	c-0.086,0.138-0.171,0.273-0.257,0.412c0,0.001-0.001,0.001-0.001,0.002c-0.01,0.015-0.018,0.029-0.027,0.044
	c-0.004,0.007-0.008,0.013-0.012,0.02c-0.005,0.008-0.011,0.018-0.016,0.026c-0.062,0.1-0.124,0.201-0.186,0.301l4.836,2.982
	c0.159-0.258,0.319-0.516,0.48-0.773L27.844,73.258L27.844,73.258z M22.642,82.28c-0.146,0.277-0.295,0.561-0.44,0.838l5.039,2.624
	c0.14-0.269,0.281-0.537,0.423-0.805L22.642,82.28L22.642,82.28z M18.108,91.656c-0.127,0.289-0.253,0.578-0.378,0.868l5.216,2.252
	c0.12-0.278,0.241-0.556,0.363-0.834L18.108,91.656L18.108,91.656z M14.268,101.337l-0.002,0.006
	c-0.004,0.012-0.009,0.025-0.013,0.038c-0.101,0.286-0.199,0.562-0.298,0.849l5.366,1.866c0.1-0.286,0.2-0.572,0.301-0.857
	L14.268,101.337L14.268,101.337z M11.142,111.271c-0.084,0.304-0.166,0.608-0.248,0.913l5.488,1.47
	c0.078-0.293,0.158-0.585,0.238-0.877L11.142,111.271L11.142,111.271z M8.749,121.407c-0.007,0.036-0.014,0.071-0.021,0.107
	c-0.054,0.275-0.107,0.545-0.159,0.821l5.58,1.067c0.057-0.297,0.115-0.595,0.174-0.892L8.749,121.407L8.749,121.407z M7.097,131.69
	c-0.005,0.038-0.009,0.076-0.014,0.114l-0.001,0.005c-0.002,0.017-0.004,0.035-0.006,0.053l-0.001,0.006
	c-0.002,0.018-0.004,0.036-0.007,0.055l-0.001,0.003c-0.024,0.195-0.047,0.39-0.07,0.585c-0.001,0.005-0.002,0.016-0.002,0.021
	c-0.001,0.01-0.002,0.019-0.003,0.029c-0.003,0.024-0.005,0.046-0.008,0.07l5.643,0.66c0.035-0.301,0.071-0.602,0.109-0.902
	L7.097,131.69L7.097,131.69z M6.192,142.065c-0.012,0.235-0.023,0.471-0.034,0.707c-0.004,0.082-0.007,0.157-0.011,0.238
	l5.676,0.254c0.013-0.303,0.028-0.606,0.043-0.909L6.192,142.065L6.192,142.065z M11.711,152.367l-5.68,0.114
	c0.002,0.087,0.003,0.168,0.005,0.255c0,0.006,0,0.012,0,0.018c0,0.01,0.001,0.023,0.001,0.033c0,0.013,0.001,0.027,0.001,0.04
	c0,0.005,0,0.009,0,0.014c0.003,0.154,0.007,0.308,0.011,0.461l0,0.01c0,0.011,0.001,0.023,0.001,0.034
	c0,0.01,0.001,0.021,0.001,0.03c0,0.003,0,0.007,0,0.01c0,0.01,0.001,0.032,0.001,0.041l5.679-0.15
	C11.724,152.973,11.717,152.67,11.711,152.367L11.711,152.367z M12.268,162.359l-5.658,0.52c0.008,0.085,0.015,0.168,0.024,0.254
	c0,0.001,0,0.001,0,0.002c0.002,0.019,0.003,0.035,0.005,0.054c0,0.002,0,0.003,0,0.005c0.02,0.209,0.04,0.419,0.06,0.627
	l5.654-0.557C12.324,162.962,12.296,162.661,12.268,162.359L12.268,162.359z M13.541,172.282l-5.605,0.927
	c0.006,0.036,0.012,0.073,0.018,0.11c0.033,0.199,0.067,0.401,0.101,0.6c0.013,0.074,0.026,0.149,0.038,0.223l5.599-0.964
	C13.641,172.879,13.591,172.581,13.541,172.282L13.541,172.282z M15.53,182.083l-5.523,1.331c0.013,0.054,0.026,0.108,0.039,0.162
	c0.042,0.174,0.085,0.349,0.128,0.523c0.001,0.004,0.002,0.007,0.003,0.011c0.002,0.01,0.005,0.021,0.007,0.031
	c0.016,0.063,0.032,0.129,0.048,0.192l5.514-1.368C15.673,182.672,15.601,182.378,15.53,182.083L15.53,182.083z M18.226,191.713
	l-5.412,1.73c0.014,0.044,0.03,0.093,0.044,0.137c0,0.001,0.001,0.002,0.001,0.002c0.004,0.013,0.009,0.028,0.013,0.042
	c0.004,0.011,0.007,0.023,0.011,0.034c0.001,0.004,0.003,0.009,0.004,0.013c0.072,0.224,0.144,0.448,0.218,0.671l5.4-1.766
	C18.411,192.29,18.318,192.002,18.226,191.713L18.226,191.713z M21.616,201.121l-5.271,2.12c0.002,0.004,0.005,0.013,0.007,0.017
	c0.003,0.006,0.005,0.012,0.007,0.019c0.003,0.009,0.01,0.024,0.013,0.033c0.003,0.007,0.006,0.014,0.009,0.021
	c0.003,0.009,0.008,0.02,0.012,0.029c0.004,0.009,0.008,0.019,0.011,0.028c0.002,0.004,0.008,0.02,0.01,0.024
	c0.004,0.01,0.008,0.02,0.012,0.03c0.003,0.009,0.005,0.014,0.009,0.022c0.005,0.013,0.01,0.025,0.015,0.038
	c0.002,0.004,0.004,0.011,0.006,0.015c0.014,0.035,0.029,0.071,0.043,0.106c0.003,0.009,0.004,0.01,0.008,0.019
	c0.004,0.011,0.009,0.022,0.014,0.034c0.005,0.013,0.009,0.021,0.014,0.034c0.002,0.005,0.005,0.011,0.007,0.017
	c0.005,0.013,0.011,0.027,0.016,0.039c0.002,0.004,0.003,0.008,0.005,0.012c0.046,0.114,0.092,0.226,0.139,0.34l5.257-2.155
	C21.843,201.683,21.729,201.403,21.616,201.121L21.616,201.121z M25.682,210.259l-5.103,2.497c0.002,0.004,0.001,0.002,0.003,0.007
	c0.001,0.002,0.002,0.004,0.003,0.007c0.032,0.065,0.061,0.124,0.093,0.189c0,0,0,0.001,0,0.001
	c0.006,0.012,0.012,0.025,0.018,0.037c0.003,0.005,0.005,0.011,0.008,0.016c0.004,0.008,0.009,0.017,0.012,0.025
	c0.005,0.01,0.01,0.021,0.015,0.031c0.002,0.004,0.004,0.009,0.006,0.013c0.086,0.174,0.172,0.349,0.259,0.523l5.087-2.531
	C25.949,210.803,25.815,210.531,25.682,210.259L25.682,210.259z M30.401,219.078l-4.909,2.86c0.157,0.27,0.321,0.548,0.48,0.817
	l4.89-2.893C30.707,219.601,30.554,219.34,30.401,219.078L30.401,219.078z M35.746,227.534l-4.69,3.208
	c0.069,0.101,0.137,0.2,0.206,0.301c0.11,0.16,0.22,0.32,0.331,0.479l4.668-3.238C36.089,228.034,35.918,227.784,35.746,227.534
	L35.746,227.534z M41.688,235.583l-4.447,3.537c0.081,0.102,0.162,0.203,0.244,0.305c0.001,0.001,0.001,0.002,0.002,0.002
	c0.011,0.014,0.018,0.022,0.029,0.036c0.003,0.003,0.005,0.006,0.008,0.009c0.011,0.014,0.016,0.02,0.027,0.034
	c0.002,0.003,0.004,0.005,0.007,0.008c0.011,0.014,0.016,0.02,0.027,0.034c0.003,0.003,0.005,0.007,0.008,0.01
	c0.009,0.011,0.019,0.024,0.028,0.035c0.001,0.001,0.002,0.003,0.003,0.004c0.011,0.014,0.02,0.025,0.031,0.039
	c0,0,0.001,0.001,0.001,0.001c0.059,0.074,0.118,0.147,0.177,0.22l4.423-3.566C42.067,236.057,41.877,235.82,41.688,235.583
	L41.688,235.583z M48.194,243.185l-4.181,3.847c0.214,0.232,0.428,0.464,0.643,0.695l4.156-3.874
	C48.606,243.63,48.4,243.408,48.194,243.185L48.194,243.185z M55.23,250.299l-3.894,4.138c0.1,0.094,0.2,0.188,0.3,0.282
	c0.003,0.003,0.01,0.01,0.014,0.013c0.008,0.007,0.016,0.015,0.024,0.022c0.01,0.009,0.02,0.019,0.03,0.028
	c0.003,0.003,0.005,0.005,0.008,0.008c0.013,0.012,0.021,0.02,0.035,0.032c0.001,0.001,0.003,0.002,0.004,0.004
	c0.013,0.012,0.025,0.023,0.038,0.035c0,0,0,0,0,0c0.013,0.012,0.025,0.023,0.038,0.036c0.001,0.001,0.002,0.002,0.003,0.003
	c0.013,0.012,0.022,0.021,0.035,0.033c0.003,0.003,0.007,0.007,0.01,0.01c0.01,0.009,0.017,0.016,0.027,0.025
	c0.012,0.011,0.024,0.022,0.036,0.033l0.003,0.003c0.029,0.027,0.057,0.054,0.086,0.08l3.867-4.163
	C55.672,250.714,55.451,250.507,55.23,250.299L55.23,250.299z M62.758,256.89l-3.586,4.407c0.107,0.087,0.213,0.173,0.32,0.26
	c0.14,0.113,0.276,0.223,0.416,0.336l3.557-4.43C63.229,257.272,62.993,257.082,62.758,256.89L62.758,256.89z M70.74,262.922
	l-3.26,4.654c0.192,0.135,0.382,0.267,0.575,0.401c0.001,0.001,0.002,0.002,0.004,0.002c0.007,0.005,0.018,0.013,0.025,0.018
	c0.007,0.005,0.015,0.01,0.022,0.016c0.007,0.005,0.01,0.007,0.017,0.012c0.011,0.007,0.022,0.015,0.032,0.022
	c0.004,0.003,0.007,0.005,0.01,0.007c0.013,0.009,0.027,0.018,0.04,0.028c0.004,0.002,0.001,0,0.004,0.003
	c0.016,0.011,0.031,0.021,0.046,0.032l3.229-4.675C71.238,263.269,70.989,263.096,70.74,262.922L70.74,262.922z M79.136,268.362
	l-2.915,4.877c0.027,0.016,0.053,0.032,0.08,0.048c0.004,0.002,0.007,0.004,0.011,0.007c0.012,0.007,0.016,0.009,0.027,0.016
	c0.009,0.005,0.018,0.011,0.026,0.016c0.004,0.002,0.012,0.007,0.016,0.01c0.013,0.008,0.026,0.015,0.038,0.023l0.007,0.004
	c0.202,0.12,0.405,0.241,0.608,0.36l2.883-4.896C79.657,268.672,79.396,268.518,79.136,268.362L79.136,268.362z M87.901,273.18
	l-2.554,5.075c0.024,0.012,0.044,0.022,0.068,0.034c0.004,0.002,0.007,0.003,0.011,0.005c0.012,0.006,0.024,0.012,0.036,0.018
	c0.009,0.005,0.019,0.009,0.028,0.014c0.004,0.002,0.015,0.008,0.019,0.009c0.015,0.007,0.029,0.015,0.044,0.022
	c0.004,0.002,0.003,0.002,0.007,0.004c0.035,0.018,0.069,0.035,0.104,0.052c0.004,0.002,0.009,0.004,0.013,0.006
	c0.012,0.006,0.024,0.012,0.036,0.018c0.012,0.006,0.025,0.013,0.037,0.018c0.004,0.002,0.007,0.004,0.011,0.005
	c0.016,0.008,0.027,0.014,0.044,0.022c0.002,0.001,0.003,0.002,0.005,0.002c0.13,0.065,0.256,0.127,0.386,0.192l2.521-5.092
	C88.443,273.452,88.172,273.316,87.901,273.18L87.901,273.18z M96.992,277.349l-2.179,5.247c0.008,0.004,0.017,0.007,0.026,0.011
	c0.01,0.004,0.019,0.008,0.028,0.012l0.002,0.001c0.125,0.052,0.249,0.103,0.374,0.155c0.004,0.002,0.007,0.003,0.011,0.005
	c0.012,0.005,0.023,0.009,0.035,0.014c0.009,0.004,0.014,0.006,0.022,0.009c0.007,0.003,0.014,0.006,0.021,0.009
	c0.013,0.005,0.021,0.008,0.033,0.014c0.001,0.001,0.002,0.001,0.003,0.001c0.097,0.04,0.196,0.08,0.293,0.12
	c0.004,0.002,0.009,0.003,0.013,0.005c0.004,0.002,0.008,0.003,0.013,0.005l2.144-5.262
	C97.552,277.581,97.272,277.466,96.992,277.349L96.992,277.349z M106.361,280.846l-1.791,5.392c0.036,0.012,0.072,0.024,0.108,0.036
	c0.004,0.001,0.005,0.002,0.009,0.003c0.012,0.004,0.024,0.008,0.036,0.012c0.009,0.003,0.02,0.006,0.028,0.009
	c0.005,0.002,0.011,0.004,0.016,0.005c0.136,0.045,0.269,0.089,0.405,0.133c0.003,0.001,0.005,0.002,0.008,0.003
	c0.009,0.003,0.022,0.007,0.031,0.01c0.009,0.003,0.019,0.006,0.028,0.009c0.004,0.001,0.01,0.003,0.014,0.005
	c0.072,0.023,0.144,0.047,0.216,0.07l1.755-5.404C106.936,281.036,106.648,280.941,106.361,280.846L106.361,280.846z
	 M115.959,283.651l-1.394,5.508c0.17,0.043,0.34,0.086,0.51,0.128l0.01,0.002c0.008,0.002,0.017,0.004,0.025,0.006
	c0.126,0.031,0.247,0.061,0.373,0.092l1.357-5.517C116.547,283.798,116.253,283.725,115.959,283.651L115.959,283.651z
	 M125.737,285.75l-0.99,5.595c0.051,0.009,0.096,0.017,0.147,0.026c0.003,0.001,0.007,0.001,0.01,0.002
	c0.009,0.002,0.019,0.003,0.028,0.005c0.248,0.043,0.496,0.086,0.744,0.129l0.003,0l0.953-5.601
	C126.334,285.854,126.036,285.802,125.737,285.75L125.737,285.75z M135.644,287.134l-0.583,5.652
	c0.018,0.002,0.037,0.004,0.055,0.006c0.293,0.03,0.595,0.06,0.888,0.088l0.545-5.656
	C136.247,287.195,135.945,287.165,135.644,287.134L135.644,287.134z M145.628,287.802l-0.176,5.679
	c0.058,0.002,0.117,0.003,0.175,0.005l0.004,0c0.016,0.001,0.032,0.001,0.049,0.001c0.005,0,0.008,0,0.013,0
	c0.014,0.001,0.029,0.001,0.043,0.001c0.005,0,0.012,0,0.017,0c0.014,0,0.028,0.001,0.043,0.001c0.005,0,0.011,0,0.016,0
	c0.015,0.001,0.03,0.001,0.045,0.001c0.005,0,0.009,0,0.013,0c0.017,0,0.034,0.001,0.051,0.001l0.007,0
	c0.158,0.004,0.315,0.008,0.473,0.012l0.139-5.68C146.235,287.82,145.931,287.812,145.628,287.802L145.628,287.802z M156.55,287.718
	c-0.302,0.014-0.605,0.027-0.908,0.039l0.227,5.677c0.315-0.013,0.63-0.026,0.945-0.041L156.55,287.718L156.55,287.718z
	 M166.522,286.894c-0.301,0.036-0.602,0.071-0.903,0.104l0.634,5.646c0.316-0.035,0.625-0.071,0.94-0.109L166.522,286.894
	L166.522,286.894z M176.405,285.353c-0.297,0.058-0.595,0.114-0.893,0.17l1.041,5.586c0.309-0.058,0.622-0.117,0.93-0.177
	L176.405,285.353L176.405,285.353z M186.148,283.1c-0.292,0.079-0.585,0.157-0.878,0.234l1.445,5.495
	c0.099-0.026,0.195-0.051,0.294-0.078c0.011-0.003,0.023-0.006,0.035-0.009c0.009-0.002,0.007-0.002,0.016-0.004
	c0.19-0.051,0.38-0.101,0.57-0.153L186.148,283.1L186.148,283.1z M195.701,280.144c-0.286,0.1-0.572,0.199-0.859,0.297l1.841,5.375
	c0.009-0.003,0.015-0.005,0.023-0.008c0.002-0.001,0.004-0.001,0.005-0.002c0.017-0.006,0.028-0.01,0.046-0.016
	c0.003-0.001,0.007-0.002,0.01-0.003c0.017-0.006,0.024-0.008,0.041-0.014c0.006-0.002,0.011-0.004,0.017-0.006
	c0.013-0.004,0.022-0.008,0.035-0.012c0.007-0.002,0.014-0.005,0.021-0.007c0.013-0.004,0.018-0.006,0.031-0.011
	c0.01-0.003,0.02-0.007,0.029-0.01c0.009-0.003,0.015-0.005,0.024-0.008c0.016-0.005,0.032-0.011,0.049-0.017
	c0.004-0.001,0,0,0.004-0.001c0.037-0.013,0.073-0.025,0.11-0.038c0.004-0.001,0.006-0.002,0.011-0.004
	c0.014-0.005,0.029-0.01,0.043-0.015c0.009-0.003,0.007-0.002,0.016-0.005c0.013-0.004,0.026-0.009,0.038-0.013
	c0.004-0.002,0.015-0.005,0.02-0.007c0.011-0.004,0.022-0.008,0.034-0.012c0.004-0.001,0.018-0.006,0.023-0.008
	c0.01-0.004,0.021-0.007,0.031-0.011c0.009-0.003,0.016-0.006,0.024-0.009c0.01-0.003,0.019-0.007,0.029-0.01
	c0.009-0.003,0.017-0.006,0.026-0.009c0.009-0.003,0.019-0.006,0.028-0.01c0.009-0.003,0.02-0.007,0.028-0.01
	c0.007-0.003,0.015-0.005,0.022-0.008c0.009-0.003,0.024-0.009,0.033-0.012c0.006-0.002,0.012-0.004,0.018-0.006
	c0.009-0.003,0.015-0.005,0.024-0.008L195.701,280.144L195.701,280.144z M205.013,276.499c-0.278,0.12-0.556,0.24-0.835,0.359
	l2.227,5.227c0.046-0.02,0.087-0.037,0.133-0.057c0.009-0.004,0.018-0.008,0.027-0.012l0.01-0.004
	c0.016-0.007,0.031-0.013,0.047-0.02l0.002-0.001c0.018-0.008,0.035-0.015,0.053-0.023l0,0c0.017-0.007,0.034-0.015,0.051-0.022
	l0.006-0.003c0.015-0.006,0.029-0.013,0.044-0.019c0.004-0.002,0.009-0.004,0.014-0.006c0.011-0.005,0.023-0.01,0.034-0.015
	c0.008-0.003,0.015-0.006,0.023-0.01c0.008-0.003,0.015-0.007,0.023-0.01c0.013-0.005,0.021-0.009,0.033-0.014
	c0.003-0.001,0.005-0.002,0.008-0.004c0.071-0.031,0.141-0.061,0.212-0.092c0.049-0.021,0.099-0.043,0.148-0.064L205.013,276.499
	L205.013,276.499z M214.037,272.187c-0.268,0.141-0.538,0.28-0.807,0.419l2.601,5.051c0.214-0.11,0.431-0.223,0.645-0.334
	c0.002-0.001,0.005-0.002,0.007-0.004c0.016-0.008,0.021-0.011,0.037-0.02c0.014-0.007,0.028-0.014,0.041-0.022l0.005-0.003
	c0.035-0.018,0.07-0.036,0.104-0.055L214.037,272.187L214.037,272.187z M222.726,267.231c-0.258,0.16-0.516,0.318-0.775,0.476
	l2.96,4.85c0.008-0.005,0.018-0.011,0.026-0.016c0.006-0.004,0.012-0.008,0.018-0.011c0.004-0.002,0.012-0.007,0.016-0.01
	c0.014-0.008,0.027-0.016,0.04-0.025c0.004-0.002-0.003,0.002,0.001-0.001c0.235-0.144,0.47-0.289,0.705-0.434L222.726,267.231
	L222.726,267.231z M231.035,261.659c-0.246,0.178-0.492,0.355-0.739,0.531l3.302,4.624c0.096-0.068,0.196-0.14,0.291-0.208
	c0.015-0.011,0.03-0.022,0.046-0.033l0.001-0.001c0.144-0.104,0.288-0.207,0.431-0.311L231.035,261.659L231.035,261.659z
	 M238.922,255.503c-0.232,0.195-0.465,0.389-0.699,0.583l3.626,4.374c0.243-0.201,0.486-0.404,0.727-0.607L238.922,255.503
	L238.922,255.503z M246.346,248.795c-0.218,0.211-0.436,0.422-0.655,0.632l3.931,4.102c0.227-0.218,0.456-0.438,0.682-0.657
	L246.346,248.795L246.346,248.795z M253.27,241.571c-0.202,0.226-0.404,0.452-0.608,0.677l4.216,3.809
	c0.072-0.08,0.145-0.161,0.217-0.241c0.003-0.003,0.006-0.006,0.008-0.009c0.009-0.01,0.016-0.018,0.025-0.028
	c0.005-0.006,0.01-0.011,0.015-0.017c0.006-0.007,0.013-0.015,0.019-0.021c0.007-0.008,0.015-0.016,0.022-0.025
	c0.006-0.007,0.009-0.01,0.015-0.016c0.009-0.009,0.017-0.019,0.025-0.028c0.003-0.003,0.009-0.01,0.012-0.013
	c0.01-0.011,0.019-0.022,0.029-0.032c0.003-0.003,0.006-0.007,0.009-0.01c0.078-0.088,0.157-0.175,0.235-0.263L253.27,241.571
	L253.27,241.571z M259.656,233.869c-0.185,0.24-0.371,0.48-0.557,0.719l4.479,3.496c0.012-0.015,0.023-0.03,0.035-0.045l0.003-0.004
	c0.006-0.007,0.012-0.015,0.017-0.022c0.177-0.227,0.349-0.449,0.525-0.678L259.656,233.869L259.656,233.869z M265.471,225.728
	c-0.167,0.253-0.335,0.505-0.504,0.757l4.719,3.165c0.176-0.262,0.35-0.525,0.525-0.788L265.471,225.728L265.471,225.728z
	 M270.682,217.189c-0.148,0.265-0.298,0.528-0.448,0.792l4.935,2.815c0.038-0.067,0.077-0.135,0.115-0.202l0.005-0.009
	c0.006-0.011,0.013-0.023,0.019-0.034c0.005-0.008,0.01-0.018,0.014-0.025c0.003-0.005,0.005-0.01,0.008-0.014
	c0.101-0.177,0.204-0.361,0.304-0.539L270.682,217.189L270.682,217.189z M275.261,208.296c-0.129,0.274-0.259,0.549-0.39,0.822
	l5.126,2.45c0.025-0.052,0.049-0.103,0.074-0.155c0.002-0.004,0.003-0.006,0.004-0.01c0.006-0.012,0.012-0.025,0.018-0.037
	c0.002-0.004,0.007-0.015,0.009-0.019c0.005-0.01,0.009-0.02,0.014-0.029c0.002-0.004,0.009-0.019,0.011-0.023
	c0.005-0.01,0.01-0.02,0.014-0.03c0.004-0.008,0.006-0.013,0.01-0.021c0.007-0.015,0.014-0.03,0.021-0.045
	c0.002-0.004,0-0.001,0.003-0.005c0.058-0.123,0.117-0.247,0.175-0.37l0.004-0.009c0.006-0.013,0.012-0.025,0.018-0.038
	c0.004-0.008,0.007-0.014,0.011-0.023c0.003-0.006,0.005-0.012,0.008-0.018c0.004-0.008,0.007-0.016,0.011-0.024L275.261,208.296
	L275.261,208.296z M279.182,199.096c-0.109,0.283-0.218,0.566-0.329,0.848l5.291,2.071c0.035-0.089,0.068-0.173,0.103-0.263
	c0.072-0.184,0.143-0.369,0.214-0.554c0.003-0.009,0.005-0.014,0.009-0.023c0.001-0.003,0.002-0.006,0.004-0.009
	c0.005-0.013,0.008-0.022,0.013-0.034L279.182,199.096L279.182,199.096z M282.423,189.635c-0.088,0.29-0.177,0.581-0.266,0.87
	l5.427,1.68c0.034-0.109,0.068-0.219,0.101-0.328c0.001-0.004,0.003-0.011,0.005-0.015c0.001-0.005,0.003-0.009,0.004-0.014
	c0.055-0.181,0.112-0.368,0.167-0.549L282.423,189.635L282.423,189.635z M284.966,179.963c-0.067,0.296-0.134,0.592-0.202,0.888
	l5.535,1.28c0.012-0.053,0.024-0.105,0.036-0.158c0.03-0.132,0.061-0.264,0.09-0.396c0,0,0-0.001,0-0.002
	c0.004-0.018,0.007-0.031,0.011-0.049c0.001-0.003,0.001-0.006,0.002-0.009c0.004-0.018,0.006-0.025,0.01-0.044
	c0.001-0.005,0.002-0.009,0.003-0.014c0.002-0.009,0.007-0.031,0.009-0.04c0.001-0.006,0.003-0.012,0.004-0.017
	c0.003-0.014,0.006-0.026,0.009-0.039c0.001-0.005,0.002-0.009,0.003-0.013c0.003-0.014,0.007-0.031,0.01-0.044
	c0-0.002,0.001-0.004,0.002-0.007c0.007-0.032,0.014-0.061,0.021-0.093L284.966,179.963L284.966,179.963z M286.8,170.131
	c-0.045,0.3-0.091,0.601-0.137,0.9l5.614,0.875c0.017-0.107,0.032-0.206,0.048-0.313c0.001-0.006,0.002-0.012,0.003-0.018
	c0.001-0.009,0.003-0.02,0.004-0.03c0.03-0.192,0.059-0.384,0.087-0.577L286.8,170.131L286.8,170.131z M287.917,160.189
	c-0.023,0.303-0.047,0.606-0.072,0.908l5.662,0.468c0.013-0.162,0.026-0.317,0.039-0.478c0.012-0.156,0.024-0.311,0.036-0.467
	L287.917,160.189L287.917,160.189z M288.319,150.188c-0.001,0.304-0.004,0.608-0.007,0.911l5.681,0.062
	c0.002-0.208,0.004-0.415,0.006-0.624c0-0.003,0-0.005,0-0.008c0-0.015,0-0.026,0-0.04c0-0.009,0-0.019,0-0.028
	c0-0.005,0-0.016,0-0.021c0.001-0.076,0.001-0.152,0.001-0.227L288.319,150.188L288.319,150.188z M293.677,139.801l-5.669,0.379
	c0.02,0.302,0.039,0.605,0.058,0.908l5.671-0.342l-0.001-0.01c-0.001-0.015-0.002-0.029-0.003-0.043
	c-0.001-0.014-0.001-0.017-0.002-0.031c-0.001-0.009-0.001-0.017-0.002-0.026c-0.001-0.014-0.001-0.022-0.002-0.036
	c0-0.007-0.001-0.014-0.001-0.021c-0.001-0.014-0.001-0.019-0.002-0.033c0-0.009-0.001-0.018-0.002-0.027
	c0-0.005-0.001-0.023-0.002-0.028c-0.001-0.011-0.001-0.021-0.002-0.032c0-0.005-0.001-0.017-0.001-0.022
	c-0.001-0.013-0.002-0.026-0.002-0.039c0-0.005-0.001-0.01-0.001-0.015c-0.001-0.016-0.002-0.031-0.003-0.047
	c0-0.005,0-0.001,0-0.006c-0.001-0.018-0.002-0.036-0.004-0.055l0-0.002c-0.001-0.019-0.002-0.038-0.004-0.057l0-0.002
	c-0.001-0.018-0.002-0.037-0.003-0.055l0-0.006c-0.001-0.016-0.002-0.033-0.003-0.049c-0.001-0.01,0-0.006-0.001-0.015
	c-0.001-0.012-0.002-0.024-0.002-0.037c-0.001-0.01-0.002-0.024-0.002-0.033c0-0.005,0-0.01-0.001-0.014
	C293.686,139.932,293.682,139.873,293.677,139.801L293.677,139.801z M292.61,129.442l-5.627,0.786c0.042,0.3,0.083,0.6,0.123,0.901
	l5.632-0.749c-0.013-0.098-0.026-0.198-0.04-0.296C292.669,129.869,292.64,129.655,292.61,129.442L292.61,129.442z M290.796,119.187
	l-5.555,1.192c0.064,0.296,0.126,0.593,0.188,0.89l5.563-1.155l-0.001-0.003c-0.003-0.014-0.006-0.028-0.009-0.042
	c-0.002-0.009-0.005-0.024-0.007-0.033c-0.001-0.004-0.002-0.009-0.003-0.013c-0.023-0.11-0.044-0.211-0.067-0.321
	C290.869,119.53,290.833,119.358,290.796,119.187L290.796,119.187z M288.242,109.09l-5.454,1.593
	c0.085,0.291,0.169,0.582,0.252,0.874l5.464-1.557C288.418,109.698,288.33,109.392,288.242,109.09L288.242,109.09z M284.959,99.207
	l-5.323,1.987c0.106,0.284,0.211,0.568,0.315,0.853l5.336-1.951C285.179,99.798,285.07,99.503,284.959,99.207L284.959,99.207z
	 M280.966,89.589l-5.164,2.368c0.126,0.275,0.252,0.551,0.376,0.828l5.18-2.334c-0.124-0.274-0.245-0.541-0.37-0.814
	C280.981,89.62,280.973,89.604,280.966,89.589L280.966,89.589z M276.285,80.286l-4.979,2.737c0.146,0.266,0.291,0.532,0.435,0.798
	l4.997-2.704C276.588,80.84,276.437,80.562,276.285,80.286L276.285,80.286z M270.942,71.347l-4.768,3.09
	c0.165,0.254,0.329,0.509,0.492,0.765l4.789-3.058c-0.017-0.027-0.032-0.049-0.049-0.076c-0.002-0.003-0.003-0.005-0.005-0.008
	c-0.007-0.011-0.01-0.015-0.017-0.027c-0.008-0.013-0.016-0.026-0.025-0.038l-0.001-0.001c-0.054-0.085-0.109-0.169-0.163-0.254
	C271.11,71.606,271.028,71.479,270.942,71.347L270.942,71.347z M264.968,62.816l-4.533,3.425c0.183,0.242,0.365,0.484,0.546,0.727
	l4.556-3.395c-0.175-0.234-0.35-0.468-0.526-0.701C264.997,62.855,264.981,62.834,264.968,62.816L264.968,62.816z M258.395,54.738
	l-4.275,3.742c0.2,0.228,0.399,0.457,0.597,0.687l4.299-3.714c-0.021-0.024-0.036-0.042-0.057-0.065
	c-0.002-0.002-0.004-0.004-0.005-0.006c-0.009-0.01-0.016-0.018-0.024-0.028c-0.008-0.009-0.016-0.018-0.024-0.027
	c-0.003-0.003-0.006-0.007-0.009-0.01C258.73,55.122,258.563,54.93,258.395,54.738L258.395,54.738z M251.258,47.153l-3.995,4.04
	c0.216,0.213,0.43,0.427,0.645,0.642l4.022-4.014C251.707,47.598,251.482,47.375,251.258,47.153L251.258,47.153z M243.596,40.101
	l-3.695,4.316c0.23,0.197,0.46,0.395,0.689,0.594l3.723-4.292c-0.007-0.006-0.012-0.011-0.019-0.017
	c-0.006-0.005-0.012-0.01-0.018-0.015c-0.01-0.009-0.016-0.014-0.026-0.023c-0.005-0.005-0.011-0.009-0.016-0.014
	c-0.007-0.006-0.02-0.018-0.027-0.023c-0.005-0.004-0.01-0.009-0.015-0.013c-0.007-0.006-0.02-0.018-0.027-0.024
	c-0.005-0.005-0.011-0.009-0.016-0.013c-0.007-0.006-0.02-0.017-0.027-0.023c-0.006-0.005-0.011-0.01-0.017-0.014
	c-0.007-0.006-0.017-0.015-0.024-0.021c-0.008-0.007-0.015-0.013-0.023-0.02c-0.007-0.006-0.013-0.011-0.019-0.017
	c-0.01-0.009-0.02-0.018-0.031-0.026c-0.007-0.006-0.004-0.004-0.011-0.01c-0.044-0.038-0.087-0.075-0.131-0.113
	c-0.007-0.006-0.006-0.005-0.013-0.011c-0.01-0.008-0.02-0.017-0.029-0.025c-0.01-0.009-0.012-0.011-0.023-0.02
	c-0.006-0.005-0.011-0.01-0.017-0.015c-0.014-0.012-0.02-0.017-0.033-0.029c-0.002-0.001-0.003-0.003-0.005-0.004
	C243.695,40.186,243.647,40.144,243.596,40.101L243.596,40.101z M235.446,33.617l-3.375,4.571c0.244,0.18,0.487,0.361,0.73,0.543
	l3.404-4.549c-0.216-0.162-0.433-0.323-0.65-0.484c-0.002-0.001-0.003-0.003-0.005-0.004c-0.015-0.011-0.028-0.02-0.042-0.031
	c0,0,0,0-0.001-0.001C235.486,33.647,235.468,33.633,235.446,33.617L235.446,33.617z M226.85,27.737l-3.036,4.803
	c0.256,0.162,0.512,0.325,0.767,0.489l3.068-4.782C227.383,28.075,227.118,27.906,226.85,27.737L226.85,27.737z M217.853,22.494
	l-2.681,5.009c0.267,0.143,0.534,0.287,0.8,0.432l2.714-4.992c-0.05-0.028-0.101-0.055-0.151-0.082
	c-0.004-0.002-0.015-0.008-0.019-0.01c-0.009-0.005-0.019-0.01-0.028-0.015c-0.008-0.004-0.018-0.01-0.026-0.014
	c-0.008-0.004-0.015-0.008-0.022-0.012c-0.008-0.004-0.021-0.011-0.029-0.016c-0.007-0.004-0.013-0.007-0.02-0.011
	c-0.008-0.004-0.021-0.012-0.029-0.016c-0.007-0.004-0.015-0.008-0.022-0.012c-0.008-0.004-0.018-0.01-0.026-0.014
	c-0.009-0.005-0.019-0.01-0.028-0.015c-0.004-0.002-0.016-0.008-0.02-0.011c-0.013-0.007-0.026-0.014-0.039-0.021l-0.01-0.005
	C218.095,22.624,217.974,22.559,217.853,22.494L217.853,22.494z M208.499,17.916l-2.31,5.191c0.277,0.123,0.554,0.247,0.83,0.373
	l2.345-5.175c-0.133-0.06-0.264-0.12-0.397-0.179c-0.002-0.001-0.004-0.002-0.005-0.002c-0.017-0.008-0.025-0.011-0.042-0.019
	c-0.006-0.003-0.013-0.006-0.019-0.009c-0.008-0.004-0.019-0.009-0.028-0.012c-0.015-0.007-0.03-0.014-0.045-0.02l-0.004-0.002
	C208.714,18.012,208.606,17.964,208.499,17.916L208.499,17.916z M198.837,14.03l-1.926,5.345c0.285,0.103,0.57,0.207,0.855,0.311
	l1.962-5.332c-0.159-0.059-0.312-0.114-0.471-0.172c0,0-0.001,0-0.001,0c-0.017-0.006-0.032-0.012-0.049-0.018
	c-0.002-0.001-0.003-0.001-0.005-0.002c-0.017-0.006-0.029-0.011-0.047-0.017c-0.002-0.001-0.004-0.002-0.007-0.002
	c-0.017-0.006-0.028-0.01-0.045-0.016c-0.003-0.001-0.006-0.002-0.009-0.003c-0.013-0.005-0.032-0.012-0.045-0.016
	c-0.001,0-0.001,0-0.002-0.001C198.977,14.081,198.906,14.055,198.837,14.03L198.837,14.03z M188.917,10.858l-1.532,5.471
	c0.292,0.082,0.584,0.164,0.875,0.248l1.568-5.461c-0.15-0.043-0.3-0.086-0.451-0.129c-0.004-0.001-0.001,0-0.006-0.002
	c-0.037-0.01-0.074-0.021-0.111-0.032c-0.004-0.001-0.01-0.003-0.014-0.004c-0.014-0.004-0.029-0.008-0.043-0.012
	c-0.004-0.001-0.004-0.001-0.008-0.002c-0.016-0.005-0.033-0.009-0.049-0.014l-0.003-0.001
	C189.068,10.901,188.993,10.879,188.917,10.858L188.917,10.858z M178.794,8.417l-1.13,5.568c0.297,0.06,0.595,0.122,0.891,0.184
	l1.167-5.561c-0.057-0.012-0.114-0.024-0.171-0.036c-0.004-0.001-0.004-0.001-0.009-0.002c-0.014-0.003-0.029-0.006-0.043-0.009
	c-0.009-0.002-0.012-0.002-0.021-0.004c-0.01-0.002-0.02-0.004-0.031-0.006c-0.009-0.002-0.023-0.005-0.032-0.006
	c-0.006-0.001-0.012-0.002-0.018-0.004c-0.014-0.003-0.028-0.006-0.042-0.009c-0.003,0-0.005-0.001-0.008-0.002
	C179.159,8.491,178.981,8.455,178.794,8.417L178.794,8.417z M168.519,6.718l-0.723,5.636c0.301,0.039,0.602,0.078,0.902,0.119
	l0.76-5.631c-0.084-0.011-0.176-0.024-0.261-0.035c-0.008-0.001-0.016-0.002-0.023-0.003c-0.005-0.001-0.015-0.002-0.02-0.003
	c-0.015-0.002-0.031-0.004-0.046-0.006c-0.005-0.001,0,0-0.004-0.001c-0.056-0.008-0.113-0.015-0.17-0.022l-0.008-0.001
	c-0.014-0.002-0.029-0.004-0.043-0.006c-0.009-0.001-0.015-0.002-0.024-0.003c-0.008-0.001-0.015-0.002-0.023-0.003
	C168.733,6.745,168.622,6.731,168.519,6.718L168.519,6.718z M158.149,5.765l-0.316,5.673c0.303,0.017,0.606,0.035,0.909,0.054
	l0.354-5.671c-0.22-0.014-0.448-0.027-0.668-0.04C158.335,5.775,158.242,5.77,158.149,5.765L158.149,5.765z"/>
</svg>
