<?xml version="1.0" encoding="utf-8"?>
<!-- Generator: Adobe Illustrator 24.0.3, SVG Export Plug-In . SVG Version: 6.00 Build 0)  -->
<svg version="1.1" id="Layer_1" xmlns="http://www.w3.org/2000/svg" xmlns:xlink="http://www.w3.org/1999/xlink" x="0px" y="0px"
	 viewBox="0 0 750 750" style="enable-background:new 0 0 750 750;" xml:space="preserve">
<style type="text/css">
	.st0{fill:#FFFFFF;}
</style>
<filter id="shadow">
    <feGaussianBlur in="SourceAlpha" stdDeviation="6"/>
    <feOffset dx="0" dy="0" result="offsetblur"/>
    <feFlood flood-color="rgb(0,0,0)" flood-opacity="0.36"/>
    <feComposite in2="offsetblur" operator="in"/>
    <feMerge>
        <feMergeNode/>
        <feMergeNode in="SourceGraphic"/>
    </feMerge>
</filter>
<path class="st0" d="M118.49,143.24l-1.58-1.22c-1.77,2.09-3.77,3.6-6,4.55c-2.23,0.95-4.9,1.36-8.01,1.23
	c-3.25-0.13-6.24-1.17-8.94-3.1c-2.71-1.94-4.79-4.54-6.24-7.81c-1.45-3.27-2.1-6.79-1.95-10.55l0.1-2.52l34.73,1.42l0.1-2.44
	c0.24-5.99-1.2-10.9-4.33-14.72c-3.13-3.82-7.28-5.83-12.45-6.04c-3.54-0.14-6.85,0.72-9.93,2.6c-3.08,1.88-5.55,4.56-7.41,8.06
	c-1.86,3.5-2.87,7.39-3.05,11.67l-0.08,1.93c-0.17,4.28,0.55,8.21,2.18,11.8c1.63,3.58,3.96,6.45,7.01,8.59
	c3.04,2.14,6.43,3.29,10.17,3.44C109.6,150.39,114.83,148.1,118.49,143.24L118.49,143.24z M111.54,106.91
	c2.27,1.59,4.01,3.77,5.22,6.52c1.22,2.75,1.76,5.7,1.63,8.84l-0.02,0.56l-32.29-1.32c0.75-5.17,2.77-9.37,6.05-12.6
	c3.28-3.23,7.17-4.75,11.68-4.56C106.7,104.46,109.28,105.32,111.54,106.91z"/>
<path class="st0" d="M126.98,127.16c-0.3,7.42,1.01,13.32,3.95,17.7c2.94,4.38,7.09,6.68,12.46,6.9c3.48,0.14,6.62-0.45,9.42-1.78
	c2.8-1.33,5.04-3.28,6.71-5.84l-0.3,7.41l2.31,0.09l2.68-65.77l-2.31-0.09l-1.14,27.96c-1.53-3.18-3.6-5.61-6.2-7.29
	c-2.61-1.68-5.65-2.59-9.13-2.73c-5.42-0.22-9.78,1.68-13.06,5.71c-3.28,4.03-5.07,9.74-5.37,17.13L126.98,127.16z M134.01,111.19
	c2.79-3.63,6.56-5.35,11.3-5.16c7.85,0.32,12.94,4.43,15.28,12.33l-0.89,21.71c-1.45,3.23-3.56,5.64-6.34,7.23
	c-2.78,1.59-6.08,2.3-9.91,2.15c-4.77-0.19-8.37-2.25-10.81-6.17c-2.44-3.92-3.53-9.16-3.26-15.72
	C129.67,120.28,131.21,114.83,134.01,111.19z"/>
<path class="st0" d="M207.39,153.52l1.89-46.33l-2.36-0.1l-1.33,32.59c-0.91,3.99-2.79,6.98-5.64,8.95
	c-2.85,1.97-6.49,2.87-10.92,2.69c-4.17-0.17-7.29-1.56-9.35-4.18c-2.07-2.61-3.03-6.38-2.88-11.29l1.22-29.93l-2.31-0.09
	l-1.22,29.84c-0.17,5.65,0.94,10.01,3.35,13.07c2.41,3.06,6.13,4.69,11.19,4.9c4.02,0.16,7.38-0.45,10.07-1.84
	c2.69-1.39,4.77-3.34,6.24-5.86l-0.31,7.49L207.39,153.52z"/>
<path class="st0" d="M223.62,147.17c-2.8-3.82-4.07-8.97-3.81-15.45l0.06-1.5c0.27-6.62,1.94-11.74,5.02-15.34
	c3.08-3.61,7.2-5.3,12.37-5.09c4.31,0.18,7.78,1.58,10.4,4.22c2.62,2.64,3.95,6.04,3.98,10.22l2.31,0.09
	c0-4.89-1.54-8.87-4.62-11.94c-3.08-3.07-7.07-4.71-11.98-4.91c-5.74-0.23-10.4,1.68-13.98,5.73c-3.58,4.06-5.52,9.6-5.8,16.62
	l-0.06,1.54c-0.29,7.19,1.18,12.96,4.42,17.29c3.24,4.34,7.76,6.62,13.55,6.86c4.77,0.19,8.82-1.01,12.16-3.6
	c3.34-2.59,5.21-6.13,5.62-10.6l-2.31-0.09c-0.42,3.93-2.04,6.95-4.85,9.07c-2.82,2.12-6.32,3.09-10.52,2.92
	C230.41,153,226.42,150.99,223.62,147.17z"/>
<path class="st0" d="M294.68,157.08l0.02-0.39c-0.72-1.86-0.98-5.33-0.78-10.41l0.9-22.14c0.1-4.54-1.27-8.12-4.11-10.74
	c-2.84-2.62-6.76-4.03-11.75-4.23c-4.8-0.2-8.9,0.95-12.32,3.44c-3.42,2.49-5.2,5.62-5.36,9.39l2.31,0.18
	c0.13-3.2,1.65-5.82,4.57-7.88c2.91-2.05,6.48-3,10.71-2.82c4.54,0.19,7.98,1.4,10.34,3.64c2.35,2.24,3.45,5.3,3.29,9.18l-0.28,6.77
	l-11.43-0.47c-6.37-0.2-11.52,0.9-15.47,3.29c-3.94,2.4-6,5.72-6.18,9.98c-0.15,3.74,1.03,6.83,3.55,9.26
	c2.52,2.43,5.92,3.74,10.2,3.91c4,0.16,7.61-0.5,10.85-2c3.23-1.5,5.83-3.69,7.77-6.59c-0.15,3.68,0.02,6.52,0.51,8.51
	L294.68,157.08z M264.55,151.43c-2.17-2.06-3.2-4.51-3.09-7.33c0.13-3.2,1.67-5.81,4.61-7.83c3.62-2.48,8.74-3.59,15.36-3.32
	l10.7,0.44l-0.45,11c-1.71,3.45-4.17,6.08-7.38,7.89c-3.2,1.81-6.98,2.63-11.32,2.45C269.54,154.6,266.72,153.5,264.55,151.43z"/>
<path class="st0" d="M311.42,98.83l-0.51,12.5l-8.56-0.35l-0.09,2.31l8.56,0.35l-1.36,33.22c-0.14,4.03,0.49,7.01,1.87,8.94
	c1.38,1.93,3.75,2.97,7.12,3.1c2.28,0.09,3.9-0.01,4.86-0.32l-0.3-2.2c-1.81,0.18-3.34,0.25-4.6,0.2c-2.51-0.1-4.27-0.96-5.28-2.58
	c-1.01-1.62-1.44-4.07-1.31-7.35l1.34-32.92l10.53,0.43l0.09-2.31l-10.53-0.43l0.51-12.5L311.42,98.83z"/>
<path class="st0" d="M336.51,112.38l-2.31-0.09l-1.89,46.33l2.31,0.09L336.51,112.38z M334.2,99.46c0.44,0.48,0.98,0.73,1.64,0.75
	c0.66,0.03,1.23-0.18,1.72-0.62c0.49-0.44,0.75-0.98,0.77-1.64c0.03-0.66-0.19-1.23-0.64-1.72c-0.45-0.49-1.01-0.75-1.66-0.78
	c-0.66-0.03-1.22,0.19-1.7,0.64c-0.48,0.45-0.73,1.01-0.75,1.66C333.56,98.42,333.76,98.99,334.2,99.46z"/>
<path class="st0" d="M345.01,137.09c-0.15,4.37,0.56,8.34,2.13,11.9c1.57,3.57,3.86,6.38,6.88,8.45c3.02,2.07,6.48,3.18,10.39,3.34
	c3.91,0.16,7.45-0.68,10.63-2.53c3.18-1.84,5.68-4.49,7.51-7.93c1.83-3.44,2.83-7.39,3.01-11.84l0.08-2.06
	c0.15-4.4-0.57-8.39-2.15-11.97c-1.58-3.58-3.88-6.39-6.88-8.43c-3-2.04-6.45-3.14-10.33-3.3c-3.91-0.16-7.46,0.68-10.63,2.53
	c-3.18,1.84-5.69,4.49-7.53,7.95c-1.84,3.46-2.85,7.4-3.03,11.82L345.01,137.09z M347.39,135.56c0.25-6.11,2.13-11.11,5.63-15
	c3.5-3.89,7.9-5.73,13.18-5.51c3.45,0.14,6.51,1.17,9.16,3.1c2.65,1.92,4.68,4.53,6.09,7.82c1.41,3.29,2.04,6.83,1.88,10.63
	l-0.05,1.33c-0.26,6.25-2.13,11.29-5.61,15.13c-3.49,3.83-7.87,5.64-13.15,5.43c-3.51-0.14-6.59-1.17-9.25-3.08
	c-2.65-1.91-4.68-4.5-6.07-7.78c-1.4-3.27-2.02-6.84-1.86-10.69L347.39,135.56z"/>
<path class="st0" d="M397.89,114.89l-2.31-0.09l-1.89,46.33l2.31,0.09l1.21-29.65c1.21-4.44,3.34-8.01,6.38-10.73
	c3.04-2.72,6.56-4,10.56-3.83c4.34,0.18,7.46,1.5,9.36,3.96c1.9,2.46,2.76,6.18,2.59,11.14l-1.24,30.29l2.31,0.09l1.23-30.23
	c0.2-5.68-0.84-9.98-3.14-12.89c-2.3-2.91-5.93-4.47-10.9-4.67c-3.57-0.15-6.87,0.76-9.89,2.73c-3.03,1.96-5.37,4.71-7.03,8.25
	L397.89,114.89z"/>
<path class="st0" d="M472.08,164.32l0.02-0.39c-0.73-1.86-0.98-5.33-0.78-10.41l0.9-22.14c0.1-4.54-1.27-8.12-4.11-10.74
	c-2.84-2.62-6.76-4.03-11.75-4.23c-4.8-0.2-8.9,0.95-12.32,3.44c-3.42,2.49-5.2,5.62-5.36,9.39l2.31,0.18
	c0.13-3.2,1.65-5.82,4.57-7.88c2.91-2.05,6.48-3,10.71-2.82c4.54,0.19,7.98,1.4,10.34,3.64c2.35,2.24,3.45,5.3,3.29,9.18l-0.28,6.77
	l-11.43-0.47c-6.37-0.2-11.52,0.9-15.47,3.29c-3.94,2.4-6,5.72-6.18,9.98c-0.15,3.74,1.03,6.83,3.55,9.26
	c2.52,2.43,5.92,3.74,10.2,3.91c4,0.16,7.61-0.5,10.85-2c3.23-1.5,5.83-3.69,7.77-6.59c-0.15,3.68,0.02,6.52,0.51,8.51
	L472.08,164.32z M441.95,158.67c-2.17-2.06-3.2-4.51-3.09-7.33c0.13-3.2,1.67-5.81,4.61-7.83c3.62-2.48,8.74-3.59,15.36-3.32
	l10.7,0.44l-0.45,11c-1.71,3.45-4.17,6.08-7.38,7.89c-3.21,1.81-6.98,2.63-11.32,2.45C446.93,161.84,444.12,160.73,441.95,158.67z"
	/>
<path class="st0" d="M489.14,99.14l-2.31-0.09l-2.68,65.77l2.31,0.09L489.14,99.14z"/>
<path class="st0" d="M58.12,164.23l-0.7,17.17l-11.76-0.48l-0.13,3.17l11.76,0.48l-1.86,45.61c-0.19,5.53,0.67,9.63,2.56,12.28
	c1.89,2.65,5.15,4.07,9.78,4.26c3.14,0.13,5.36-0.02,6.67-0.43l-0.41-3.02c-2.48,0.25-4.59,0.34-6.31,0.27
	c-3.45-0.14-5.86-1.32-7.25-3.54c-1.38-2.22-1.98-5.58-1.8-10.1l1.84-45.2l14.46,0.59l0.13-3.17l-14.46-0.59l0.7-17.17L58.12,164.23
	z"/>
<path class="st0" d="M130.38,238.97l-2.17-1.68c-2.43,2.86-5.18,4.95-8.23,6.24c-3.06,1.3-6.72,1.86-10.99,1.69
	c-4.47-0.18-8.56-1.6-12.28-4.26c-3.72-2.66-6.58-6.23-8.57-10.72c-2-4.49-2.89-9.32-2.68-14.48l0.14-3.46l47.68,1.95l0.14-3.35
	c0.34-8.23-1.65-14.97-5.95-20.21c-4.3-5.24-10-8-17.09-8.29c-4.86-0.2-9.4,0.99-13.63,3.57c-4.23,2.58-7.62,6.27-10.17,11.07
	c-2.55,4.8-3.95,10.14-4.19,16.02l-0.11,2.65c-0.24,5.88,0.76,11.28,2.99,16.2c2.23,4.92,5.44,8.85,9.62,11.79
	c4.18,2.94,8.84,4.51,13.97,4.72C118.18,248.78,125.36,245.63,130.38,238.97L130.38,238.97z M120.85,189.08
	c3.11,2.19,5.5,5.17,7.17,8.95c1.67,3.78,2.42,7.82,2.24,12.13l-0.03,0.76l-44.33-1.81c1.04-7.1,3.8-12.87,8.3-17.3
	c4.5-4.43,9.84-6.52,16.04-6.27C114.2,185.72,117.73,186.89,120.85,189.08z"/>
<path class="st0" d="M148.94,239.23c-3.85-5.24-5.59-12.31-5.23-21.21l0.08-2.06c0.37-9.09,2.67-16.12,6.9-21.07
	c4.23-4.95,9.89-7.28,16.98-6.99c5.92,0.24,10.68,2.17,14.28,5.79c3.6,3.62,5.42,8.3,5.46,14.03l3.17,0.13
	c0-6.71-2.11-12.18-6.34-16.39c-4.23-4.22-9.71-6.46-16.45-6.74c-7.88-0.32-14.28,2.3-19.2,7.87c-4.92,5.57-7.57,13.18-7.97,22.82
	l-0.09,2.12c-0.4,9.88,1.62,17.79,6.07,23.74c4.45,5.95,10.65,9.09,18.61,9.42c6.55,0.27,12.11-1.38,16.69-4.94
	c4.58-3.56,7.15-8.41,7.72-14.55l-3.17-0.13c-0.57,5.39-2.79,9.54-6.66,12.45c-3.87,2.9-8.68,4.24-14.44,4
	C158.26,247.23,152.79,244.47,148.94,239.23z"/>
<path class="st0" d="M208.63,160.84l-3.17-0.13l-3.68,90.3l3.17,0.13l1.66-40.7c1.66-6.09,4.58-11,8.76-14.73
	c4.18-3.73,9.01-5.49,14.5-5.26c5.96,0.24,10.24,2.06,12.85,5.44c2.61,3.38,3.8,8.48,3.56,15.29l-1.7,41.58l3.17,0.13l1.69-41.51
	c0.28-7.8-1.16-13.7-4.31-17.7c-3.15-4-8.14-6.13-14.96-6.41c-4.9-0.2-9.43,1.05-13.58,3.74c-4.15,2.7-7.37,6.47-9.65,11.33
	L208.63,160.84z"/>
<path class="st0" d="M270.44,190.09l-3.17-0.13l-2.6,63.61l3.17,0.13l1.66-40.7c1.66-6.09,4.58-11,8.76-14.73
	c4.18-3.73,9.01-5.49,14.5-5.26c5.96,0.24,10.24,2.06,12.85,5.44c2.61,3.38,3.8,8.48,3.56,15.29l-1.7,41.58l3.17,0.13l1.69-41.51
	c0.28-7.8-1.16-13.7-4.31-17.7c-3.16-4-8.14-6.13-14.96-6.41c-4.9-0.2-9.43,1.05-13.58,3.74c-4.15,2.7-7.37,6.47-9.65,11.33
	L270.44,190.09z"/>
<path class="st0" d="M323.97,225.73c-0.21,6,0.77,11.45,2.93,16.34c2.16,4.9,5.3,8.77,9.45,11.6c4.14,2.84,8.9,4.37,14.27,4.59
	c5.37,0.22,10.24-0.94,14.6-3.47c4.36-2.53,7.8-6.16,10.31-10.89c2.51-4.73,3.89-10.15,4.14-16.26l0.12-2.82
	c0.21-6.04-0.78-11.52-2.95-16.43c-2.18-4.92-5.32-8.78-9.45-11.57c-4.13-2.8-8.85-4.31-14.18-4.52c-5.37-0.22-10.24,0.94-14.6,3.47
	c-4.36,2.53-7.81,6.17-10.34,10.91c-2.53,4.75-3.92,10.16-4.17,16.23L323.97,225.73z M327.24,223.62
	c0.34-8.39,2.92-15.25,7.73-20.59c4.81-5.34,10.84-7.86,18.09-7.57c4.74,0.19,8.93,1.61,12.58,4.25c3.64,2.64,6.43,6.22,8.37,10.74
	c1.94,4.52,2.8,9.38,2.58,14.59l-0.07,1.82c-0.35,8.58-2.92,15.51-7.71,20.77c-4.79,5.26-10.81,7.74-18.06,7.45
	c-4.82-0.2-9.05-1.61-12.69-4.23c-3.64-2.62-6.42-6.18-8.34-10.68c-1.92-4.49-2.77-9.39-2.55-14.68L327.24,223.62z"/>
<path class="st0" d="M398.43,168.58l-3.17-0.13l-3.68,90.3l3.17,0.13L398.43,168.58z"/>
<path class="st0" d="M409.02,229.2c-0.21,6,0.77,11.45,2.93,16.34c2.16,4.9,5.3,8.77,9.45,11.6c4.14,2.84,8.9,4.37,14.27,4.59
	c5.37,0.22,10.24-0.94,14.6-3.47c4.36-2.53,7.8-6.16,10.31-10.89c2.51-4.73,3.89-10.15,4.14-16.26l0.12-2.82
	c0.21-6.04-0.78-11.52-2.95-16.43c-2.18-4.92-5.32-8.78-9.45-11.57c-4.13-2.8-8.85-4.31-14.18-4.52c-5.37-0.22-10.24,0.94-14.6,3.47
	c-4.36,2.53-7.81,6.17-10.34,10.91c-2.53,4.75-3.92,10.16-4.17,16.23L409.02,229.2z M412.29,227.09c0.34-8.39,2.92-15.25,7.73-20.59
	c4.81-5.34,10.84-7.86,18.09-7.57c4.74,0.19,8.93,1.61,12.58,4.25c3.64,2.64,6.43,6.22,8.37,10.74c1.94,4.52,2.8,9.38,2.58,14.59
	l-0.07,1.82c-0.35,8.58-2.92,15.51-7.71,20.77c-4.79,5.26-10.81,7.74-18.06,7.45c-4.82-0.2-9.05-1.61-12.69-4.23
	c-3.64-2.62-6.42-6.18-8.34-10.68c-1.92-4.49-2.77-9.39-2.55-14.68L412.29,227.09z"/>
<path class="st0" d="M474.15,230.44c-0.42,10.19,1.39,18.29,5.43,24.31c4.03,6.01,9.73,9.17,17.1,9.47
	c4.74,0.19,9.02-0.6,12.85-2.39c3.82-1.79,6.9-4.44,9.25-7.96l-0.4,9.74c-0.41,7.23-2.52,12.76-6.33,16.58
	c-3.81,3.82-8.98,5.6-15.53,5.33c-3.96-0.16-7.37-1.13-10.25-2.91c-2.87-1.78-5.48-4.29-7.82-7.51l-2.32,2.03
	c2.37,3.56,5.29,6.34,8.76,8.33c3.47,1.99,7.34,3.07,11.62,3.25c7.41,0.3,13.36-1.82,17.87-6.37c4.5-4.55,6.93-11.01,7.27-19.4
	l2.55-62.5l-3.23-0.13l-0.47,11.64c-2.06-4.28-4.89-7.59-8.49-9.92c-3.6-2.33-7.77-3.59-12.51-3.78c-7.45-0.3-13.42,2.31-17.93,7.84
	c-4.51,5.53-6.96,13.37-7.38,23.52L474.15,230.44z M483.73,208.51c3.83-4.99,9.02-7.35,15.57-7.08c10.94,0.45,17.9,6.25,20.9,17.4
	l-1.18,28.87c-1.75,4.44-4.56,7.83-8.42,10.17c-3.86,2.34-8.48,3.39-13.85,3.17c-6.51-0.27-11.46-3.07-14.85-8.41
	c-3.39-5.34-4.91-12.56-4.53-21.65C477.77,220.99,479.89,213.5,483.73,208.51z"/>
<path class="st0" d="M537.35,200.98l-3.47-0.14l22.76,64.29l-4.31,10.34c-1.79,4.31-3.82,7.39-6.09,9.24
	c-2.27,1.85-5.08,2.7-8.41,2.56c-1.61-0.07-3.03-0.3-4.27-0.7l-0.07,3.05c0.84,0.47,2.4,0.76,4.68,0.85
	c7.05,0.29,12.26-3.21,15.62-10.49l1.55-3.47l31.5-73.5l-3.53-0.14l-24.33,56.6l-0.46,1.16L537.35,200.98z"/>
<path class="st0" d="M132.88,696.77c-3.66,2.5-8.32,3.64-14.01,3.4c-6.19-0.25-11.05-1.7-14.57-4.33c-3.52-2.64-5.35-6.2-5.48-10.68
	l-3.17-0.13c-0.21,5.1,1.81,9.35,6.05,12.76c4.24,3.41,9.92,5.26,17.06,5.55c6.66,0.27,12.11-1.04,16.35-3.93
	c4.24-2.89,6.46-6.84,6.67-11.86c0.13-3.25-0.44-6.03-1.72-8.34c-1.28-2.31-3.41-4.35-6.4-6.12c-2.99-1.77-7.09-3.37-12.29-4.8
	c-5.2-1.43-9.15-2.86-11.84-4.28c-2.69-1.42-4.61-2.98-5.76-4.65c-1.15-1.68-1.66-3.94-1.55-6.81c0.15-3.65,1.9-6.62,5.25-8.91
	c3.35-2.3,7.81-3.33,13.38-3.11c5.8,0.24,10.45,1.86,13.93,4.87c3.49,3.01,5.15,6.65,4.97,10.92l3.23,0.13
	c0.23-5.57-1.67-10.07-5.69-13.51c-4.02-3.44-9.46-5.3-16.32-5.58c-6.31-0.26-11.5,1.04-15.56,3.9c-4.06,2.86-6.19,6.62-6.38,11.28
	c-0.19,4.63,1.21,8.32,4.2,11.1c2.99,2.77,8.41,5.16,16.26,7.17c13.06,3.32,19.43,8.84,19.11,16.56
	C138.44,691.14,136.53,694.27,132.88,696.77z"/>
<path class="st0" d="M201.5,705.55l2.6-63.61l-3.23-0.13l-1.83,44.74c-1.25,5.48-3.83,9.58-7.74,12.29
	c-3.92,2.71-8.92,3.94-14.99,3.69c-5.72-0.23-10-2.15-12.84-5.74c-2.84-3.59-4.16-8.76-3.96-15.5l1.68-41.1l-3.17-0.13l-1.67,40.98
	c-0.24,7.76,1.29,13.74,4.6,17.94c3.3,4.2,8.42,6.44,15.36,6.72c5.53,0.23,10.13-0.62,13.82-2.53c3.69-1.91,6.55-4.59,8.57-8.04
	l-0.42,10.29L201.5,705.55z"/>
<path class="st0" d="M268.47,676.01c0.42-10.31-1.39-18.4-5.43-24.28c-4.04-5.88-9.78-8.97-17.23-9.27
	c-4.74-0.19-9.02,0.71-12.83,2.72c-3.81,2-6.9,4.98-9.26,8.93l0.46-11.35l-3.17-0.13l-3.59,88.07l3.17,0.13l1.4-34.33
	c1.98,3.54,4.8,6.36,8.49,8.47c3.68,2.11,7.93,3.27,12.76,3.46c7.37,0.3,13.31-2.38,17.82-8.05c4.51-5.67,6.97-13.46,7.37-23.37
	L268.47,676.01z M258.91,698.12c-3.82,5.03-8.98,7.41-15.48,7.14c-5.37-0.22-9.88-1.61-13.52-4.17c-3.65-2.56-6.2-6.07-7.67-10.53
	l1.21-29.75c1.86-5.11,4.7-8.97,8.54-11.58c3.84-2.61,8.42-3.81,13.75-3.59c6.55,0.27,11.53,3.05,14.94,8.35
	c3.41,5.3,4.94,12.52,4.56,21.65C264.84,685.6,262.73,693.09,258.91,698.12z"/>
<path class="st0" d="M331.36,678.58c0.42-10.31-1.39-18.4-5.43-24.28c-4.04-5.88-9.78-8.97-17.23-9.27
	c-4.74-0.19-9.02,0.71-12.83,2.72c-3.81,2-6.9,4.98-9.26,8.93l0.46-11.35l-3.17-0.13l-3.59,88.07l3.17,0.13l1.4-34.33
	c1.98,3.54,4.8,6.36,8.49,8.47c3.68,2.11,7.93,3.27,12.76,3.46c7.37,0.3,13.31-2.38,17.82-8.05c4.51-5.67,6.97-13.46,7.37-23.37
	L331.36,678.58z M321.8,700.68c-3.82,5.03-8.98,7.41-15.48,7.14c-5.37-0.22-9.88-1.61-13.52-4.17c-3.64-2.56-6.2-6.07-7.67-10.53
	l1.21-29.75c1.86-5.11,4.7-8.97,8.54-11.58c3.84-2.61,8.42-3.81,13.75-3.59c6.55,0.27,11.53,3.05,14.94,8.35
	c3.41,5.3,4.94,12.52,4.56,21.65C327.73,688.17,325.62,695.66,321.8,700.68z"/>
<path class="st0" d="M340.74,680.96c-0.21,6,0.77,11.45,2.93,16.34c2.16,4.9,5.3,8.77,9.45,11.6c4.14,2.84,8.9,4.37,14.27,4.59
	c5.37,0.22,10.24-0.94,14.6-3.47c4.36-2.53,7.8-6.16,10.31-10.89c2.51-4.73,3.89-10.15,4.14-16.26l0.12-2.82
	c0.21-6.04-0.78-11.52-2.95-16.43c-2.18-4.92-5.32-8.78-9.45-11.57c-4.13-2.8-8.85-4.31-14.18-4.52c-5.37-0.22-10.24,0.94-14.6,3.47
	c-4.36,2.53-7.81,6.17-10.34,10.91c-2.53,4.75-3.92,10.16-4.17,16.23L340.74,680.96z M344,678.86c0.34-8.39,2.92-15.25,7.73-20.59
	c4.81-5.34,10.84-7.86,18.09-7.57c4.74,0.19,8.93,1.61,12.58,4.25c3.64,2.64,6.43,6.22,8.37,10.74c1.94,4.52,2.8,9.38,2.58,14.59
	l-0.07,1.82c-0.35,8.58-2.92,15.51-7.71,20.77c-4.79,5.26-10.81,7.74-18.06,7.45c-4.82-0.2-9.05-1.61-12.69-4.23
	c-3.64-2.62-6.42-6.18-8.34-10.68c-1.92-4.49-2.77-9.39-2.55-14.68L344,678.86z"/>
<path class="st0" d="M438.58,650.99c-1.12-0.49-2.6-0.77-4.44-0.84c-5.21-0.21-9.6,0.9-13.15,3.35c-3.55,2.45-6.28,5.85-8.19,10.21
	l0.54-13.23l-3.17-0.13l-2.6,63.61l3.17,0.13l1.7-41.64c1.39-6.26,3.98-11.06,7.77-14.42c3.79-3.36,8.39-4.92,13.8-4.7l4.1,0.52
	L438.58,650.99z"/>
<path class="st0" d="M454.95,634.98l-0.7,17.17l-11.76-0.48l-0.13,3.17l11.76,0.48l-1.86,45.61c-0.19,5.53,0.67,9.63,2.56,12.28
	c1.89,2.65,5.15,4.07,9.78,4.26c3.14,0.13,5.36-0.02,6.67-0.43l-0.41-3.02c-2.48,0.25-4.59,0.34-6.31,0.27
	c-3.45-0.14-5.86-1.32-7.25-3.54c-1.38-2.22-1.98-5.58-1.8-10.1l1.84-45.2l14.46,0.59l0.13-3.17l-14.46-0.59l0.7-17.17
	L454.95,634.98z"/>
<path class="st0" d="M143.71,443.8c-5.37,4.55-12.46,7.22-21.28,8.01c-9.93,0.89-18.19-0.68-24.79-4.7
	c-6.6-4.02-10.27-10.16-11-18.43l-3.74,0.33c0.54,6.1,2.48,11.25,5.82,15.47c3.33,4.22,8.02,7.28,14.05,9.18
	c6.04,1.9,12.7,2.53,20,1.88c6.56-0.59,12.37-2.18,17.45-4.77c5.07-2.59,8.87-5.97,11.38-10.13c2.51-4.16,3.54-8.78,3.09-13.86
	c-0.71-7.99-4.52-14.07-11.41-18.25c-5.42-3.29-13.72-5.86-24.92-7.72c-11.2-1.86-19.34-4.43-24.43-7.7
	c-5.09-3.27-7.9-7.93-8.44-13.98c-0.53-5.96,1.76-11.16,6.88-15.59c5.12-4.44,12.11-7.05,20.98-7.85c8.82-0.79,16.22,1.03,22.2,5.45
	c5.98,4.42,9.31,10.4,9.98,17.93l3.74-0.33c-0.51-5.73-2.38-10.74-5.6-15.04c-3.22-4.3-7.52-7.47-12.9-9.53
	c-5.38-2.06-11.29-2.8-17.76-2.22c-9.93,0.89-17.78,3.88-23.57,8.98c-5.78,5.1-8.34,11.32-7.69,18.67c0.41,4.62,1.78,8.45,4.1,11.5
	c2.32,3.05,5.77,5.61,10.36,7.66c4.58,2.06,11.35,3.9,20.29,5.52c8.94,1.62,15.67,3.38,20.2,5.28c4.52,1.9,7.92,4.25,10.2,7.05
	c2.28,2.8,3.6,6.35,3.99,10.64C151.47,433.74,149.07,439.25,143.71,443.8z"/>
<path class="st0" d="M231.09,342.81l-77.17,6.9l0.33,3.74l36.71-3.28l8.68,97.12l3.74-0.33l-8.68-97.12l36.71-3.28L231.09,342.81z"
	/>
<path class="st0" d="M303.73,383.79l-50.57,4.52l-3.88-43.36l57.63-5.15l-0.33-3.74l-61.38,5.49l9.02,100.86l61.38-5.49l-0.33-3.74
	l-57.63,5.15l-4.14-46.27l50.57-4.52L303.73,383.79z"/>
<path class="st0" d="M322.44,334.64l9.02,100.86l3.74-0.33l-8.48-94.83l50.11,91.11l2.98-0.27l33.32-99.06l8.52,95.32l3.74-0.33
	l-9.02-100.86l-5.47,0.49l-33.1,99.11l-50.02-91.68L322.44,334.64z"/>
<path class="st0" d="M89.43,550.62c-2.69,2.4-6.34,3.81-10.95,4.22c-5.03,0.45-9.1-0.2-12.22-1.96c-3.12-1.76-4.97-4.44-5.55-8.04
	l-2.58,0.23c0.37,4.13,2.44,7.36,6.23,9.66c3.78,2.31,8.56,3.2,14.35,2.68c5.41-0.48,9.67-2.11,12.79-4.89
	c3.12-2.78,4.49-6.2,4.13-10.28c-0.24-2.64-0.99-4.82-2.27-6.55c-1.28-1.73-3.21-3.15-5.82-4.26c-2.6-1.11-6.08-1.97-10.42-2.58
	c-4.35-0.6-7.69-1.34-10.01-2.21c-2.32-0.87-4.03-1.92-5.14-3.15c-1.1-1.23-1.76-3.01-1.97-5.33c-0.26-2.96,0.83-5.54,3.3-7.75
	c2.46-2.21,5.95-3.51,10.47-3.92c4.71-0.42,8.63,0.4,11.76,2.46c3.13,2.06,4.86,4.82,5.17,8.29l2.62-0.23
	c-0.4-4.52-2.41-7.95-6.02-10.31c-3.61-2.35-8.2-3.28-13.76-2.78c-5.12,0.46-9.17,2.05-12.15,4.79c-2.98,2.74-4.3,5.99-3.96,9.78
	c0.34,3.75,1.86,6.59,4.56,8.51c2.7,1.92,7.33,3.28,13.88,4.07c10.89,1.3,16.61,5.09,17.17,11.35
	C93.33,545.49,92.12,548.22,89.43,550.62z"/>
<path class="st0" d="M102.43,529.62c0.47,4.86,1.83,9.16,4.09,12.88c2.26,3.73,5.21,6.52,8.85,8.37c3.64,1.85,7.64,2.59,12,2.2
	c4.36-0.39,8.16-1.84,11.42-4.34c3.25-2.5,5.64-5.79,7.17-9.87c1.53-4.08,2.07-8.6,1.62-13.56l-0.2-2.29
	c-0.47-4.89-1.84-9.21-4.12-12.95c-2.27-3.74-5.22-6.52-8.85-8.35c-3.63-1.82-7.6-2.54-11.93-2.16c-4.36,0.39-8.16,1.84-11.42,4.34
	c-3.25,2.5-5.65,5.8-7.19,9.9c-1.54,4.1-2.09,8.61-1.65,13.54L102.43,529.62z M104.84,527.58c-0.61-6.81,0.75-12.62,4.07-17.43
	c3.32-4.82,7.92-7.49,13.81-8.01c3.85-0.34,7.38,0.36,10.6,2.11c3.22,1.75,5.85,4.34,7.88,7.78c2.04,3.44,3.25,7.28,3.63,11.51
	l0.13,1.48c0.62,6.96-0.72,12.82-4.03,17.58c-3.31,4.75-7.91,7.39-13.79,7.92c-3.91,0.35-7.48-0.34-10.69-2.07
	c-3.22-1.73-5.84-4.31-7.86-7.74c-2.02-3.43-3.22-7.29-3.61-11.58L104.84,527.58z"/>
<path class="st0" d="M156.5,475.65l-2.58,0.23l6.55,73.27l2.58-0.23L156.5,475.65z"/>
<path class="st0" d="M214.75,544.3l-4.62-51.62l-2.62,0.23l3.25,36.3c-0.43,4.56-2.08,8.14-4.95,10.73
	c-2.88,2.6-6.78,4.12-11.71,4.56c-4.64,0.42-8.3-0.68-10.97-3.27c-2.67-2.6-4.28-6.63-4.83-12.09l-2.98-33.35l-2.58,0.23l2.97,33.25
	c0.63,6.29,2.49,10.96,5.6,14c3.11,3.04,7.48,4.31,13.11,3.8c4.48-0.4,8.11-1.57,10.89-3.5c2.78-1.93,4.8-4.4,6.07-7.4l0.75,8.35
	L214.75,544.3z"/>
<path class="st0" d="M225.87,477.23l1.25,13.93l-9.54,0.85l0.23,2.58l9.54-0.85l3.31,37.01c0.43,4.49,1.55,7.7,3.36,9.64
	c1.81,1.94,4.59,2.74,8.34,2.41c2.54-0.23,4.32-0.58,5.34-1.05l-0.65-2.39c-1.98,0.47-3.67,0.76-5.07,0.89
	c-2.8,0.25-4.87-0.45-6.22-2.09c-1.35-1.64-2.19-4.3-2.51-7.96l-3.28-36.67l11.74-1.05l-0.23-2.58l-11.74,1.05L228.49,477
	L225.87,477.23z"/>
<path class="st0" d="M255.63,488.61l-2.58,0.23l4.62,51.62l2.58-0.23L255.63,488.61z M251.2,474.63c0.55,0.46,1.2,0.66,1.93,0.6
	c0.73-0.07,1.34-0.38,1.82-0.93c0.48-0.56,0.69-1.2,0.62-1.93c-0.07-0.73-0.38-1.34-0.96-1.81c-0.57-0.48-1.22-0.68-1.95-0.62
	c-0.73,0.07-1.33,0.38-1.79,0.95c-0.46,0.57-0.66,1.22-0.59,1.95C250.34,473.57,250.65,474.17,251.2,474.63z"/>
<path class="st0" d="M268.63,514.76c0.47,4.86,1.83,9.16,4.09,12.88c2.26,3.73,5.21,6.52,8.85,8.37c3.64,1.85,7.64,2.59,12,2.2
	c4.36-0.39,8.16-1.84,11.42-4.34c3.25-2.5,5.64-5.79,7.17-9.87c1.53-4.08,2.07-8.6,1.62-13.56l-0.2-2.29
	c-0.47-4.89-1.84-9.21-4.12-12.95c-2.27-3.74-5.22-6.52-8.85-8.35c-3.63-1.82-7.6-2.54-11.93-2.16c-4.36,0.39-8.16,1.84-11.42,4.34
	c-3.25,2.5-5.65,5.8-7.19,9.9c-1.54,4.1-2.09,8.61-1.65,13.54L268.63,514.76z M271.05,512.72c-0.61-6.81,0.75-12.62,4.07-17.43
	c3.32-4.82,7.92-7.49,13.81-8.01c3.85-0.34,7.38,0.36,10.6,2.11c3.22,1.75,5.85,4.34,7.88,7.78c2.04,3.44,3.25,7.28,3.63,11.51
	l0.13,1.48c0.62,6.96-0.72,12.82-4.03,17.58c-3.31,4.75-7.91,7.39-13.79,7.92c-3.91,0.35-7.48-0.34-10.69-2.07
	c-3.22-1.73-5.84-4.31-7.86-7.74c-2.02-3.43-3.22-7.29-3.61-11.58L271.05,512.72z"/>
<path class="st0" d="M324.02,482.5l-2.58,0.23l4.62,51.62l2.58-0.23l-2.95-33.03c0.7-5.09,2.54-9.36,5.51-12.82
	c2.98-3.45,6.69-5.38,11.14-5.78c4.83-0.43,8.48,0.58,10.95,3.03c2.46,2.45,3.96,6.44,4.48,11.97l3.02,33.74l2.58-0.23l-3.01-33.68
	c-0.6-6.33-2.38-10.93-5.35-13.83c-2.97-2.89-7.22-4.09-12.75-3.6c-3.98,0.36-7.5,1.84-10.57,4.45c-3.07,2.61-5.27,6-6.59,10.16
	L324.02,482.5z"/>
<path class="st0" d="M404.16,522.48c-2.69,2.4-6.34,3.81-10.95,4.22c-5.03,0.45-9.1-0.2-12.22-1.96c-3.12-1.76-4.97-4.44-5.55-8.04
	l-2.58,0.23c0.37,4.13,2.44,7.36,6.23,9.66c3.78,2.31,8.56,3.2,14.35,2.68c5.41-0.48,9.67-2.11,12.79-4.89
	c3.12-2.78,4.49-6.2,4.13-10.28c-0.24-2.64-0.99-4.82-2.27-6.55c-1.28-1.73-3.21-3.15-5.82-4.26c-2.6-1.11-6.08-1.97-10.42-2.58
	c-4.35-0.6-7.69-1.34-10.01-2.21c-2.32-0.87-4.03-1.92-5.14-3.15c-1.1-1.23-1.76-3.01-1.97-5.33c-0.26-2.96,0.83-5.54,3.3-7.75
	c2.46-2.21,5.95-3.51,10.47-3.92c4.71-0.42,8.63,0.4,11.76,2.46c3.13,2.06,4.86,4.82,5.17,8.29l2.62-0.23
	c-0.4-4.52-2.41-7.95-6.02-10.31c-3.61-2.35-8.2-3.28-13.76-2.78c-5.12,0.46-9.17,2.05-12.15,4.79c-2.98,2.74-4.3,5.99-3.96,9.78
	c0.34,3.75,1.86,6.59,4.56,8.51c2.7,1.92,7.33,3.28,13.88,4.07c10.89,1.3,16.61,5.09,17.17,11.35
	C408.05,517.35,406.85,520.08,404.16,522.48z"/>
</svg>
