<?xml version="1.0" encoding="utf-8"?>
<!-- Generator: Adobe Illustrator 24.2.1, SVG Export Plug-In . SVG Version: 6.00 Build 0)  -->
<svg version="1.1" id="Layer_1" xmlns="http://www.w3.org/2000/svg" xmlns:xlink="http://www.w3.org/1999/xlink" x="0px" y="0px"
	 viewBox="0 0 22.245 300" style="enable-background:new 0 0 22.245 300;" xml:space="preserve">
<style type="text/css">
	.st0{fill:#231F20;}
</style>
<g>
	<g>
		<path class="st0" d="M6.662,5.821v1.521h9.426V5.821H6.662z M6.662,252.692h9.426v-1.521H6.662V252.692z M6.662,48.234h9.426
			v-1.521H6.662V48.234z M6.662,89.126h9.426v-1.521H6.662V89.126z M6.662,130.017h9.426v-1.521H6.662V130.017z M6.662,170.909
			h9.426v-1.521H6.662V170.909z M6.662,211.801h9.426v-1.521H6.662V211.801z M8.268,246.394h6.215v-0.415H8.268V246.394z
			 M8.268,222.389h6.215v-0.415H8.268V222.389z M8.268,234.392h6.215v-0.415H8.268V234.392z M14.483,215.974H8.268v0.415h6.215
			V215.974z M8.268,228.391h6.215v-0.415H8.268V228.391z M8.268,240.393h6.215v-0.415H8.268V240.393z M8.268,165.172h6.215v-0.415
			H8.268V165.172z M8.268,141.168h6.215v-0.415H8.268V141.168z M8.268,153.17h6.215v-0.415H8.268V153.17z M14.483,134.752H8.268
			v0.415h6.215V134.752z M8.268,147.169h6.215v-0.415H8.268V147.169z M8.268,159.171h6.215v-0.415H8.268V159.171z M8.268,207.422
			h6.215v-0.415H8.268V207.422z M8.268,183.418h6.215v-0.414H8.268V183.418z M8.268,195.42h6.215v-0.415H8.268V195.42z
			 M14.483,177.002H8.268v0.415h6.215V177.002z M8.268,189.419h6.215v-0.415H8.268V189.419z M8.268,201.421h6.215v-0.415H8.268
			V201.421z M8.268,123.751h6.215v-0.415H8.268V123.751z M8.268,99.747h6.215v-0.415H8.268V99.747z M8.268,111.749h6.215v-0.415
			H8.268V111.749z M14.483,93.331H8.268v0.415h6.215V93.331z M8.268,105.748h6.215v-0.415H8.268V105.748z M8.268,117.75h6.215
			v-0.415H8.268V117.75z M8.268,83.158h6.215v-0.415H8.268V83.158z M8.268,59.154h6.215v-0.415H8.268V59.154z M8.268,71.156h6.215
			v-0.415H8.268V71.156z M14.483,52.738H8.268v0.415h6.215V52.738z M8.268,65.155h6.215V64.74H8.268V65.155z M8.268,77.157h6.215
			v-0.415H8.268V77.157z M8.268,42.915h6.215V42.5H8.268V42.915z M8.268,18.911h6.215v-0.415H8.268V18.911z M8.268,30.913h6.215
			v-0.415H8.268V30.913z M14.483,12.495H8.268v0.415h6.215V12.495z M8.268,24.912h6.215v-0.415H8.268V24.912z M8.268,36.914h6.215
			V36.5H8.268V36.914z M6.662,293.503h9.426v-1.521H6.662V293.503z M8.268,287.204h6.215v-0.415H8.268V287.204z M8.268,263.2h6.215
			v-0.415H8.268V263.2z M8.268,275.202h6.215v-0.414H8.268V275.202z M14.483,256.784H8.268v0.415h6.215V256.784z M8.268,269.201
			h6.215v-0.415H8.268V269.201z M8.268,281.203h6.215v-0.415H8.268V281.203z"/>
	</g>
</g>
</svg>
