<?xml version="1.0" encoding="utf-8"?>
<!-- Generator: Adobe Illustrator 23.0.1, SVG Export Plug-In . SVG Version: 6.00 Build 0)  -->
<svg version="1.1" id="Layer_4" xmlns="http://www.w3.org/2000/svg" xmlns:xlink="http://www.w3.org/1999/xlink" x="0px" y="0px"
	 viewBox="0 0 50 41.26" style="enable-background:new 0 0 50 41.26;" xml:space="preserve">
<style type="text/css">
	.st0{fill:url(#SVGID_1_);}
	.st1{fill:#FCC690;}
	.st2{fill:#FAAB5D;}
	.st3{fill:#F47C20;}
	.st4{fill:url(#SVGID_2_);}
	.st5{fill:#B8C1E1;}
	.st6{fill:#98A5D4;}
	.st7{fill:#7787C3;}
	.st8{fill:url(#SVGID_3_);}
	.st9{fill:#C4DF9A;}
	.st10{fill:#A6CE64;}
	.st11{fill:#B8D884;}
</style>
<radialGradient id="SVGID_1_" cx="12.2311" cy="17.2778" r="10.8453" fx="12.2247" fy="20.7804" gradientTransform="matrix(1 0 0 0.3984 0 22.2596)" gradientUnits="userSpaceOnUse">
	<stop  offset="0" style="stop-color:#B7B8BB"/>
	<stop  offset="0.0289" style="stop-color:#B9BABD"/>
	<stop  offset="0.1203" style="stop-color:#C1C3C5"/>
	<stop  offset="0.3457" style="stop-color:#D3D5D6"/>
	<stop  offset="0.5697" style="stop-color:#E0E1E2"/>
	<stop  offset="0.7894" style="stop-color:#E7E9EA"/>
	<stop  offset="1" style="stop-color:#ECEEEE"/>
</radialGradient>
<ellipse class="st0" cx="12.231" cy="29.143" rx="10.845" ry="4.321"/>
<g>
	<g>
		<g>
			<polygon class="st1" points="12.231,13.229 1.398,19.026 12.231,24.822 23.064,19.026 			"/>
			<polygon class="st2" points="1.398,19.026 1.398,24.822 12.231,30.619 12.231,24.822 			"/>
			<polygon class="st3" points="23.064,19.026 23.064,24.822 12.231,30.619 12.231,24.822 			"/>
		</g>
		<g>
			<polygon class="st1" points="12.231,6.607 1.398,12.403 12.231,18.2 23.064,12.403 			"/>
			<polygon class="st2" points="1.398,12.403 1.398,18.2 12.231,23.997 12.231,18.2 			"/>
			<polygon class="st3" points="23.064,12.403 23.064,18.2 12.231,23.997 12.231,18.2 			"/>
		</g>
		<g>
			<polygon class="st1" points="12.231,0 1.398,5.797 12.231,11.593 23.064,5.797 			"/>
			<polygon class="st2" points="1.398,5.797 1.398,11.593 12.231,17.39 12.231,11.593 			"/>
			<polygon class="st3" points="23.064,5.797 23.064,11.593 12.231,17.39 12.231,11.593 			"/>
		</g>
	</g>
</g>
<radialGradient id="SVGID_2_" cx="37.8975" cy="15.0707" r="10.8453" fx="37.8911" fy="18.5734" gradientTransform="matrix(1 0 0 0.3984 0 22.2596)" gradientUnits="userSpaceOnUse">
	<stop  offset="0" style="stop-color:#B7B8BB"/>
	<stop  offset="0.0289" style="stop-color:#B9BABD"/>
	<stop  offset="0.1203" style="stop-color:#C1C3C5"/>
	<stop  offset="0.3457" style="stop-color:#D3D5D6"/>
	<stop  offset="0.5697" style="stop-color:#E0E1E2"/>
	<stop  offset="0.7894" style="stop-color:#E7E9EA"/>
	<stop  offset="1" style="stop-color:#ECEEEE"/>
</radialGradient>
<ellipse class="st4" cx="37.898" cy="28.264" rx="10.845" ry="4.321"/>
<g>
	<g>
		<g>
			<polygon class="st5" points="37.898,13.229 27.064,19.026 37.898,24.822 48.731,19.026 			"/>
			<polygon class="st6" points="27.064,19.026 27.064,24.822 37.898,30.619 37.898,24.822 			"/>
			<polygon class="st7" points="48.731,19.026 48.731,24.822 37.898,30.619 37.898,24.822 			"/>
		</g>
		<g>
			<polygon class="st5" points="37.898,6.553 27.064,12.35 37.898,18.146 48.731,12.35 			"/>
			<polygon class="st6" points="27.064,12.35 27.064,18.146 37.898,23.943 37.898,18.146 			"/>
			<polygon class="st7" points="48.731,12.35 48.731,18.146 37.898,23.943 37.898,18.146 			"/>
		</g>
	</g>
</g>
<radialGradient id="SVGID_3_" cx="25.0522" cy="36.8482" r="10.8453" fx="25.0458" fy="40.3508" gradientTransform="matrix(1 0 0 0.3984 0 22.2596)" gradientUnits="userSpaceOnUse">
	<stop  offset="0" style="stop-color:#B7B8BB"/>
	<stop  offset="0.0289" style="stop-color:#B9BABD"/>
	<stop  offset="0.1203" style="stop-color:#C1C3C5"/>
	<stop  offset="0.3457" style="stop-color:#D3D5D6"/>
	<stop  offset="0.5697" style="stop-color:#E0E1E2"/>
	<stop  offset="0.7894" style="stop-color:#E7E9EA"/>
	<stop  offset="1" style="stop-color:#ECEEEE"/>
</radialGradient>
<ellipse class="st8" cx="25.052" cy="36.939" rx="10.845" ry="4.321"/>
<g>
	<g>
		<polygon class="st9" points="25.064,21.026 14.231,26.822 25.064,32.619 35.898,26.822 		"/>
		<polygon class="st10" points="14.231,26.822 14.231,32.619 25.064,38.415 25.064,32.619 		"/>
		<polygon class="st11" points="35.898,26.822 35.898,32.619 25.064,38.415 25.064,32.619 		"/>
	</g>
	<g>
		<polygon class="st9" points="25.064,14.403 14.231,20.2 25.064,25.997 35.898,20.2 		"/>
		<polygon class="st10" points="14.231,20.2 14.231,25.997 25.064,31.793 25.064,25.997 		"/>
		<polygon class="st11" points="35.898,20.2 35.898,25.997 25.064,31.793 25.064,25.997 		"/>
	</g>
</g>
</svg>
