<?xml version="1.0" encoding="utf-8"?>
<!-- Generator: Adobe Illustrator 23.0.1, SVG Export Plug-In . SVG Version: 6.00 Build 0)  -->
<svg version="1.1" xmlns="http://www.w3.org/2000/svg" xmlns:xlink="http://www.w3.org/1999/xlink" x="0px" y="0px"
	 viewBox="0 0 27 75" style="enable-background:new 0 0 27 75;" xml:space="preserve">
<style type="text/css">
	.st0{display:none;}
	.st1{display:inline;fill:url(#SVGID_1_);}
	.st2{display:inline;}
	.st3{fill:#FCC690;}
	.st4{fill:#FAAB5D;}
	.st5{fill:#F47C20;}
	.st6{display:inline;fill:url(#SVGID_2_);}
	.st7{fill:#B8C1E1;}
	.st8{fill:#98A5D4;}
	.st9{fill:#7787C3;}
	.st10{display:inline;fill:url(#SVGID_3_);}
	.st11{fill:#C4DF9A;}
	.st12{fill:#A6CE64;}
	.st13{fill:#B8D884;}
	.st14{display:inline;fill:url(#SVGID_4_);}
	.st15{display:inline;fill:url(#SVGID_5_);}
	.st16{display:inline;fill:url(#SVGID_6_);}
	.st17{fill:#C8C8C8;}
	.st18{fill:#9B9A9A;}
	.st19{fill:#7E7E7E;}
	.st20{fill:url(#SVGID_7_);}
</style>
<g id="Layer_4" class="st0">
	
		<radialGradient id="SVGID_1_" cx="0.7311" cy="34.1477" r="10.8453" fx="0.7247" fy="37.6503" gradientTransform="matrix(1 0 0 0.3984 0 32.4088)" gradientUnits="userSpaceOnUse">
		<stop  offset="0" style="stop-color:#B7B8BB"/>
		<stop  offset="0.0289" style="stop-color:#B9BABD"/>
		<stop  offset="0.1203" style="stop-color:#C1C3C5"/>
		<stop  offset="0.3457" style="stop-color:#D3D5D6"/>
		<stop  offset="0.5697" style="stop-color:#E0E1E2"/>
		<stop  offset="0.7894" style="stop-color:#E7E9EA"/>
		<stop  offset="1" style="stop-color:#ECEEEE"/>
	</radialGradient>
	<ellipse class="st1" cx="0.731" cy="46.013" rx="10.845" ry="4.321"/>
	<g class="st2">
		<g>
			<g>
				<polygon class="st3" points="0.731,30.099 -10.102,35.896 0.731,41.692 11.564,35.896 				"/>
				<polygon class="st4" points="-10.102,35.896 -10.102,41.692 0.731,47.489 0.731,41.692 				"/>
				<polygon class="st5" points="11.564,35.896 11.564,41.692 0.731,47.489 0.731,41.692 				"/>
			</g>
			<g>
				<polygon class="st3" points="0.731,23.477 -10.102,29.273 0.731,35.07 11.564,29.273 				"/>
				<polygon class="st4" points="-10.102,29.273 -10.102,35.07 0.731,40.867 0.731,35.07 				"/>
				<polygon class="st5" points="11.564,29.273 11.564,35.07 0.731,40.867 0.731,35.07 				"/>
			</g>
			<g>
				<polygon class="st3" points="0.731,16.87 -10.102,22.667 0.731,28.463 11.564,22.667 				"/>
				<polygon class="st4" points="-10.102,22.667 -10.102,28.463 0.731,34.26 0.731,28.463 				"/>
				<polygon class="st5" points="11.564,22.667 11.564,28.463 0.731,34.26 0.731,28.463 				"/>
			</g>
		</g>
	</g>
	
		<radialGradient id="SVGID_2_" cx="26.3975" cy="31.9406" r="10.8453" fx="26.3911" fy="35.4433" gradientTransform="matrix(1 0 0 0.3984 0 32.4088)" gradientUnits="userSpaceOnUse">
		<stop  offset="0" style="stop-color:#B7B8BB"/>
		<stop  offset="0.0289" style="stop-color:#B9BABD"/>
		<stop  offset="0.1203" style="stop-color:#C1C3C5"/>
		<stop  offset="0.3457" style="stop-color:#D3D5D6"/>
		<stop  offset="0.5697" style="stop-color:#E0E1E2"/>
		<stop  offset="0.7894" style="stop-color:#E7E9EA"/>
		<stop  offset="1" style="stop-color:#ECEEEE"/>
	</radialGradient>
	<ellipse class="st6" cx="26.398" cy="45.134" rx="10.845" ry="4.321"/>
	<g class="st2">
		<g>
			<g>
				<polygon class="st7" points="26.398,30.099 15.564,35.896 26.398,41.692 37.231,35.896 				"/>
				<polygon class="st8" points="15.564,35.896 15.564,41.692 26.398,47.489 26.398,41.692 				"/>
				<polygon class="st9" points="37.231,35.896 37.231,41.692 26.398,47.489 26.398,41.692 				"/>
			</g>
			<g>
				<polygon class="st7" points="26.398,23.423 15.564,29.22 26.398,35.016 37.231,29.22 				"/>
				<polygon class="st8" points="15.564,29.22 15.564,35.016 26.398,40.813 26.398,35.016 				"/>
				<polygon class="st9" points="37.231,29.22 37.231,35.016 26.398,40.813 26.398,35.016 				"/>
			</g>
		</g>
	</g>
	
		<radialGradient id="SVGID_3_" cx="13.5522" cy="53.7181" r="10.8453" fx="13.5458" fy="57.2207" gradientTransform="matrix(1 0 0 0.3984 0 32.4088)" gradientUnits="userSpaceOnUse">
		<stop  offset="0" style="stop-color:#B7B8BB"/>
		<stop  offset="0.0289" style="stop-color:#B9BABD"/>
		<stop  offset="0.1203" style="stop-color:#C1C3C5"/>
		<stop  offset="0.3457" style="stop-color:#D3D5D6"/>
		<stop  offset="0.5697" style="stop-color:#E0E1E2"/>
		<stop  offset="0.7894" style="stop-color:#E7E9EA"/>
		<stop  offset="1" style="stop-color:#ECEEEE"/>
	</radialGradient>
	<ellipse class="st10" cx="13.552" cy="53.809" rx="10.845" ry="4.321"/>
	<g class="st2">
		<g>
			<polygon class="st11" points="13.564,37.896 2.731,43.692 13.564,49.489 24.398,43.692 			"/>
			<polygon class="st12" points="2.731,43.692 2.731,49.489 13.564,55.285 13.564,49.489 			"/>
			<polygon class="st13" points="24.398,43.692 24.398,49.489 13.564,55.285 13.564,49.489 			"/>
		</g>
		<g>
			<polygon class="st11" points="13.564,31.273 2.731,37.07 13.564,42.867 24.398,37.07 			"/>
			<polygon class="st12" points="2.731,37.07 2.731,42.867 13.564,48.663 13.564,42.867 			"/>
			<polygon class="st13" points="24.398,37.07 24.398,42.867 13.564,48.663 13.564,42.867 			"/>
		</g>
	</g>
</g>
<g id="Layer_3" class="st0">
	
		<radialGradient id="SVGID_4_" cx="25.681" cy="29.7855" r="11.5618" fx="25.6742" fy="33.5195" gradientTransform="matrix(1 0 0 0.3984 0 32.4088)" gradientUnits="userSpaceOnUse">
		<stop  offset="0" style="stop-color:#B7B8BB"/>
		<stop  offset="0.0289" style="stop-color:#B9BABD"/>
		<stop  offset="0.1203" style="stop-color:#C1C3C5"/>
		<stop  offset="0.3457" style="stop-color:#D3D5D6"/>
		<stop  offset="0.5697" style="stop-color:#E0E1E2"/>
		<stop  offset="0.7894" style="stop-color:#E7E9EA"/>
		<stop  offset="1" style="stop-color:#ECEEEE"/>
	</radialGradient>
	<ellipse class="st14" cx="25.681" cy="44.275" rx="11.562" ry="4.606"/>
	<g class="st2">
		<g>
			<g>
				<polygon class="st7" points="25.681,28.247 14.132,34.427 25.681,40.606 37.23,34.427 				"/>
				<polygon class="st8" points="14.132,34.427 14.132,40.606 25.681,46.786 25.681,40.606 				"/>
				<polygon class="st9" points="37.23,34.427 37.23,40.606 25.681,46.786 25.681,40.606 				"/>
			</g>
			<g>
				<polygon class="st7" points="25.681,21.13 14.132,27.31 25.681,33.489 37.23,27.31 				"/>
				<polygon class="st8" points="14.132,27.31 14.132,33.489 25.681,39.669 25.681,33.489 				"/>
				<polygon class="st9" points="37.23,27.31 37.23,33.489 25.681,39.669 25.681,33.489 				"/>
			</g>
		</g>
	</g>
	
		<radialGradient id="SVGID_5_" cx="11.9871" cy="53.0016" r="11.5618" fx="11.9803" fy="56.7357" gradientTransform="matrix(1 0 0 0.3984 0 32.4088)" gradientUnits="userSpaceOnUse">
		<stop  offset="0" style="stop-color:#B7B8BB"/>
		<stop  offset="0.0289" style="stop-color:#B9BABD"/>
		<stop  offset="0.1203" style="stop-color:#C1C3C5"/>
		<stop  offset="0.3457" style="stop-color:#D3D5D6"/>
		<stop  offset="0.5697" style="stop-color:#E0E1E2"/>
		<stop  offset="0.7894" style="stop-color:#E7E9EA"/>
		<stop  offset="1" style="stop-color:#ECEEEE"/>
	</radialGradient>
	<ellipse class="st15" cx="11.987" cy="53.524" rx="11.562" ry="4.606"/>
	<g class="st2">
		<g>
			<polygon class="st11" points="12,36.559 0.451,42.738 12,48.918 23.549,42.738 			"/>
			<polygon class="st12" points="0.451,42.738 0.451,48.918 12,55.097 12,48.918 			"/>
			<polygon class="st13" points="23.549,42.738 23.549,48.918 12,55.097 12,48.918 			"/>
		</g>
		<g>
			<polygon class="st11" points="12,29.499 0.451,35.679 12,41.858 23.549,35.679 			"/>
			<polygon class="st12" points="0.451,35.679 0.451,41.858 12,48.038 12,41.858 			"/>
			<polygon class="st13" points="23.549,35.679 23.549,41.858 12,48.038 12,41.858 			"/>
		</g>
	</g>
</g>
<g id="Layer_1_copy" class="st0">
	
		<radialGradient id="SVGID_6_" cx="13.5522" cy="51.3675" r="13.1959" fx="13.5444" fy="55.6293" gradientTransform="matrix(1 0 0 0.3984 0 32.4088)" gradientUnits="userSpaceOnUse">
		<stop  offset="0" style="stop-color:#B7B8BB"/>
		<stop  offset="0.0289" style="stop-color:#B9BABD"/>
		<stop  offset="0.1203" style="stop-color:#C1C3C5"/>
		<stop  offset="0.3457" style="stop-color:#D3D5D6"/>
		<stop  offset="0.5697" style="stop-color:#E0E1E2"/>
		<stop  offset="0.7894" style="stop-color:#E7E9EA"/>
		<stop  offset="1" style="stop-color:#ECEEEE"/>
	</radialGradient>
	<ellipse class="st16" cx="13.552" cy="52.873" rx="13.196" ry="5.257"/>
	<g class="st2">
		<polygon class="st17" points="13.567,33.51 0.386,40.563 13.567,47.616 26.748,40.563 		"/>
		<polygon class="st18" points="0.386,40.563 0.386,47.616 13.567,54.669 13.567,47.616 		"/>
		<polygon class="st19" points="26.748,40.563 26.748,47.616 13.567,54.669 13.567,47.616 		"/>
	</g>
</g>
<g id="Layer_1">
	
		<radialGradient id="SVGID_7_" cx="13.5522" cy="39.1373" r="11.405" fx="13.5455" fy="42.8207" gradientTransform="matrix(1 0 0 0.3984 0 32.4088)" gradientUnits="userSpaceOnUse">
		<stop  offset="0" style="stop-color:#8E8B8C"/>
		<stop  offset="0.1323" style="stop-color:#A9A6A6"/>
		<stop  offset="0.2812" style="stop-color:#C4C1C1"/>
		<stop  offset="0.4374" style="stop-color:#DBD8D8"/>
		<stop  offset="0.6021" style="stop-color:#EDEBEB"/>
		<stop  offset="0.781" style="stop-color:#F9F8F8"/>
		<stop  offset="1" style="stop-color:#FFFFFF"/>
	</radialGradient>
	<ellipse class="st20" cx="13.552" cy="48.001" rx="11.405" ry="4.544"/>
	<g>
		<g>
			<polygon class="st17" points="13.565,31.265 2.173,37.361 13.565,43.457 24.957,37.361 			"/>
			<polygon class="st18" points="2.173,37.361 2.173,43.457 13.565,49.553 13.565,43.457 			"/>
			<polygon class="st19" points="24.957,37.361 24.957,43.457 13.565,49.553 13.565,43.457 			"/>
		</g>
	</g>
	<g>
		<g>
			<polygon class="st11" points="13.565,23.17 2.173,29.265 13.565,35.361 24.957,29.265 			"/>
			<polygon class="st12" points="2.173,29.265 2.173,35.361 13.565,41.457 13.565,35.361 			"/>
			<polygon class="st13" points="24.957,29.265 24.957,35.361 13.565,41.457 13.565,35.361 			"/>
		</g>
		<g>
			<polygon class="st11" points="13.565,16.206 2.173,22.302 13.565,28.397 24.957,22.302 			"/>
			<polygon class="st12" points="2.173,22.302 2.173,28.397 13.565,34.493 13.565,28.397 			"/>
			<polygon class="st13" points="24.957,22.302 24.957,28.397 13.565,34.493 13.565,28.397 			"/>
		</g>
	</g>
	<g>
		<g>
			<polygon class="st7" points="13.565,8.381 2.173,14.477 13.565,20.573 24.957,14.477 			"/>
			<polygon class="st8" points="2.173,14.477 2.173,20.573 13.565,26.669 13.565,20.573 			"/>
			<polygon class="st9" points="24.957,14.477 24.957,20.573 13.565,26.669 13.565,20.573 			"/>
		</g>
		<g>
			<polygon class="st7" points="13.565,1.418 2.173,7.513 13.565,13.609 24.957,7.513 			"/>
			<polygon class="st8" points="2.173,7.513 2.173,13.609 13.565,19.705 13.565,13.609 			"/>
			<polygon class="st9" points="24.957,7.513 24.957,13.609 13.565,19.705 13.565,13.609 			"/>
		</g>
	</g>
</g>
</svg>
