<?xml version="1.0" encoding="utf-8"?>
<!-- Generator: Adobe Illustrator 23.0.1, SVG Export Plug-In . SVG Version: 6.00 Build 0)  -->
<svg version="1.1" id="Layer_1" xmlns="http://www.w3.org/2000/svg" xmlns:xlink="http://www.w3.org/1999/xlink" x="0px" y="0px"
	 viewBox="0 0 50 50" style="enable-background:new 0 0 50 50;" xml:space="preserve">
<style type="text/css">
	.st0{fill:#3D3D3D;}
	.st1{fill:url(#SVGID_1_);}
	.st2{fill:#FCC690;}
	.st3{fill:#FAAB5D;}
	.st4{fill:#F47C20;}
	.st5{fill:url(#SVGID_2_);}
	.st6{fill:#B8C1E1;}
	.st7{fill:#98A5D4;}
	.st8{fill:#7787C3;}
	.st9{fill:url(#SVGID_3_);}
	.st10{fill:#C4DF9A;}
	.st11{fill:#A6CE64;}
	.st12{fill:#B8D884;}
</style>
<circle class="st0" cx="25" cy="25" r="24"/>
<radialGradient id="SVGID_1_" cx="18.483" cy="38.5836" r="5.4947" fx="18.4798" fy="40.3582" gradientTransform="matrix(6.123234e-17 -1 -0.3984 -2.439496e-17 44.6692 50.1945)" gradientUnits="userSpaceOnUse">
	<stop  offset="0" style="stop-color:#252122"/>
	<stop  offset="0.2152" style="stop-color:#2B2929"/>
	<stop  offset="0.7166" style="stop-color:#383737"/>
	<stop  offset="1" style="stop-color:#3C3C3C"/>
</radialGradient>
<ellipse class="st1" cx="29.298" cy="31.711" rx="2.189" ry="5.495"/>
<g>
	<g>
		<g>
			<polygon class="st2" points="21.236,31.711 24.173,37.201 27.108,31.711 24.173,26.223 			"/>
			<polygon class="st3" points="24.173,37.201 27.108,37.201 30.045,31.711 27.108,31.711 			"/>
			<polygon class="st4" points="24.173,26.223 27.108,26.223 30.045,31.711 27.108,31.711 			"/>
		</g>
		<g>
			<polygon class="st2" points="17.881,31.711 20.816,37.201 23.753,31.711 20.816,26.223 			"/>
			<polygon class="st3" points="20.816,37.201 23.753,37.201 26.691,31.711 23.753,31.711 			"/>
			<polygon class="st4" points="20.816,26.223 23.753,26.223 26.691,31.711 23.753,31.711 			"/>
		</g>
		<g>
			<polygon class="st2" points="14.533,31.711 17.469,37.201 20.406,31.711 17.469,26.223 			"/>
			<polygon class="st3" points="17.469,37.201 20.406,37.201 23.344,31.711 20.406,31.711 			"/>
			<polygon class="st4" points="17.469,26.223 20.406,26.223 23.344,31.711 20.406,31.711 			"/>
		</g>
	</g>
</g>
<radialGradient id="SVGID_2_" cx="31.486" cy="38.5836" r="5.4947" fx="31.4828" fy="40.3582" gradientTransform="matrix(6.123234e-17 -1 -0.3984 -2.439496e-17 44.6692 50.1945)" gradientUnits="userSpaceOnUse">
	<stop  offset="0" style="stop-color:#252122"/>
	<stop  offset="0.2152" style="stop-color:#2B2929"/>
	<stop  offset="0.7166" style="stop-color:#383737"/>
	<stop  offset="1" style="stop-color:#3C3C3C"/>
</radialGradient>
<ellipse class="st5" cx="29.298" cy="18.708" rx="2.189" ry="5.495"/>
<g>
	<g>
		<g>
			<polygon class="st6" points="21.236,18.708 24.173,24.196 27.108,18.708 24.173,13.22 			"/>
			<polygon class="st7" points="24.173,24.196 27.108,24.196 30.045,18.708 27.108,18.708 			"/>
			<polygon class="st8" points="24.173,13.22 27.108,13.22 30.045,18.708 27.108,18.708 			"/>
		</g>
		<g>
			<polygon class="st6" points="17.852,18.708 20.789,24.196 23.726,18.708 20.789,13.22 			"/>
			<polygon class="st7" points="20.789,24.196 23.726,24.196 26.663,18.708 23.726,18.708 			"/>
			<polygon class="st8" points="20.789,13.22 23.726,13.22 26.663,18.708 23.726,18.708 			"/>
		</g>
	</g>
</g>
<radialGradient id="SVGID_3_" cx="24.978" cy="28.6689" r="5.4947" fx="24.9748" fy="30.4434" gradientTransform="matrix(6.123234e-17 -1 -0.3984 -2.439496e-17 44.6692 50.1945)" gradientUnits="userSpaceOnUse">
	<stop  offset="0" style="stop-color:#252122"/>
	<stop  offset="0.2152" style="stop-color:#2B2929"/>
	<stop  offset="0.7166" style="stop-color:#383737"/>
	<stop  offset="1" style="stop-color:#3C3C3C"/>
</radialGradient>
<ellipse class="st9" cx="33.247" cy="25.216" rx="2.189" ry="5.495"/>
<g>
	<g>
		<polygon class="st10" points="25.185,25.209 28.122,30.698 31.059,25.209 28.122,19.722 		"/>
		<polygon class="st11" points="28.122,30.698 31.059,30.698 33.995,25.209 31.059,25.209 		"/>
		<polygon class="st12" points="28.122,19.722 31.059,19.722 33.995,25.209 31.059,25.209 		"/>
	</g>
	<g>
		<polygon class="st10" points="21.83,25.209 24.767,30.698 27.704,25.209 24.767,19.722 		"/>
		<polygon class="st11" points="24.767,30.698 27.704,30.698 30.64,25.209 27.704,25.209 		"/>
		<polygon class="st12" points="24.767,19.722 27.704,19.722 30.64,25.209 27.704,25.209 		"/>
	</g>
</g>
</svg>
