<?xml version="1.0" encoding="utf-8"?>
<!-- Generator: Adobe Illustrator 23.0.1, SVG Export Plug-In . SVG Version: 6.00 Build 0)  -->
<svg version="1.1" id="Layer_1" xmlns="http://www.w3.org/2000/svg" xmlns:xlink="http://www.w3.org/1999/xlink" x="0px" y="0px"
	 viewBox="0 0 50 50" style="enable-background:new 0 0 50 50;" xml:space="preserve">
<style type="text/css">
	.st0{fill:#FAAB5D;}
</style>
<path class="st0" d="M49,25c0,13.255-10.745,24-24,24S1,38.255,1,25S11.745,1,25,1S49,11.745,49,25z M12.505,19.523
	c0,0.543,0.034,1.291,0.17,2.176c0.34,2.787,1.462,5.234,3.264,7.07c2.176,2.176,5.609,3.74,9.961,3.74
	c5.745,0,9.417-3.094,9.417-7.819c0-4.59-3.739-7.343-7.785-7.343c-4.318,0-7.14,2.753-7.14,6.663c0,2.447,1.156,4.283,2.55,5.337
	v0.103c-3.638-0.511-7.071-2.992-7.853-7.684c-0.136-0.85-0.17-1.632-0.136-2.243H12.505z M33.005,24.69
	c0,3.128-2.686,4.794-6.323,4.861c-0.544,0-0.986-0.136-1.326-0.34c-1.598-0.815-2.72-2.481-2.72-4.284
	c0-2.753,1.904-4.555,5.065-4.555C30.863,20.373,33.005,22.106,33.005,24.69z"/>
</svg>
