<?xml version="1.0" encoding="utf-8"?>
<!-- Generator: Adobe Illustrator 23.0.3, SVG Export Plug-In . SVG Version: 6.00 Build 0)  -->
<svg version="1.1" id="Layer_4" xmlns="http://www.w3.org/2000/svg" xmlns:xlink="http://www.w3.org/1999/xlink" x="0px" y="0px"
	 viewBox="0 0 41.4 41.3" style="enable-background:new 0 0 41.4 41.3;" xml:space="preserve">
<style type="text/css">
	.st0{opacity:0.3;}
	.st1{fill:#FFFFFF;}
</style>
<g id="r2QwJK_1_" class="st0">
	<g>
		<path class="st1" d="M37.5,34.9c0,0.2,0,0.4,0,0.7c-0.2,0.5-0.4,1-0.8,1.3c-0.8,0.6-2.2,0.8-3.2-0.2c-2.8-2.8-5.6-5.6-8.3-8.3
			c-0.1-0.1-0.2-0.2-0.3-0.3c-0.2,0.1-0.4,0.3-0.6,0.4c-2.8,1.8-5.8,2.4-9.1,1.9c-2.7-0.4-5.1-1.6-7.1-3.5c-2.1-1.9-3.4-4.3-3.9-7.1
			C4,19.2,4,18.7,3.9,18.1c0-0.6,0-1.2,0-1.8c0-0.2,0.1-0.4,0.1-0.6c0.2-2.1,0.9-4,2.1-5.7C7.3,8,8.9,6.5,11,5.4
			c2.3-1.2,4.8-1.7,7.5-1.5c2.3,0.2,4.4,1,6.3,2.3c2.4,1.7,4.1,3.9,5.1,6.7c1.1,3.2,1,6.4-0.4,9.6c-0.4,0.9-0.9,1.7-1.4,2.6
			c0,0,0.2,0.1,0.2,0.2c2.7,2.7,5.4,5.4,8,8C36.9,33.7,37.3,34.2,37.5,34.9z M17.2,27.4c5.6,0,10.2-4.6,10.2-10.2
			C27.4,11.6,22.9,7,17.2,7C11.6,7,7,11.6,7,17.2C7,22.8,11.6,27.4,17.2,27.4z"/>
	</g>
</g>
</svg>
