<?xml version="1.0" encoding="utf-8"?>
<!-- Generator: Adobe Illustrator 23.0.3, SVG Export Plug-In . SVG Version: 6.00 Build 0)  -->
<svg version="1.1" id="Layer_4" xmlns="http://www.w3.org/2000/svg" xmlns:xlink="http://www.w3.org/1999/xlink" x="0px" y="0px"
	 viewBox="0 0 50 41.26" style="enable-background:new 0 0 50 41.26;" xml:space="preserve">
<style type="text/css">
	.st0{fill:#FCC690;}
	.st1{fill:#FAAB5D;}
	.st2{fill:#F47C20;}
	.st3{fill:#B8C1E1;}
	.st4{fill:#98A5D4;}
	.st5{fill:#7787C3;}
	.st6{fill:#C4DF9A;}
	.st7{fill:#A6CE64;}
	.st8{fill:#B8D884;}
</style>
<g>
	<g>
		<g>
			<polygon class="st0" points="12.231,14.229 1.398,20.026 12.231,25.822 23.064,20.026 			"/>
			<polygon class="st1" points="1.398,20.026 1.398,25.822 12.231,31.619 12.231,25.822 			"/>
			<polygon class="st2" points="23.064,20.026 23.064,25.822 12.231,31.619 12.231,25.822 			"/>
		</g>
		<g>
			<polygon class="st0" points="12.231,7.607 1.398,13.403 12.231,19.2 23.064,13.403 			"/>
			<polygon class="st1" points="1.398,13.403 1.398,19.2 12.231,24.997 12.231,19.2 			"/>
			<polygon class="st2" points="23.064,13.403 23.064,19.2 12.231,24.997 12.231,19.2 			"/>
		</g>
		<g>
			<polygon class="st0" points="12.231,1 1.398,6.797 12.231,12.593 23.064,6.797 			"/>
			<polygon class="st1" points="1.398,6.797 1.398,12.593 12.231,18.39 12.231,12.593 			"/>
			<polygon class="st2" points="23.064,6.797 23.064,12.593 12.231,18.39 12.231,12.593 			"/>
		</g>
	</g>
</g>
<g>
	<g>
		<g>
			<polygon class="st3" points="37.898,14.229 27.064,20.026 37.898,25.822 48.731,20.026 			"/>
			<polygon class="st4" points="27.064,20.026 27.064,25.822 37.898,31.619 37.898,25.822 			"/>
			<polygon class="st5" points="48.731,20.026 48.731,25.822 37.898,31.619 37.898,25.822 			"/>
		</g>
		<g>
			<polygon class="st3" points="37.898,7.553 27.064,13.35 37.898,19.146 48.731,13.35 			"/>
			<polygon class="st4" points="27.064,13.35 27.064,19.146 37.898,24.943 37.898,19.146 			"/>
			<polygon class="st5" points="48.731,13.35 48.731,19.146 37.898,24.943 37.898,19.146 			"/>
		</g>
	</g>
</g>
<g>
	<g>
		<polygon class="st6" points="25.064,22.026 14.231,27.822 25.064,33.619 35.898,27.822 		"/>
		<polygon class="st7" points="14.231,27.822 14.231,33.619 25.064,39.415 25.064,33.619 		"/>
		<polygon class="st8" points="35.898,27.822 35.898,33.619 25.064,39.415 25.064,33.619 		"/>
	</g>
	<g>
		<polygon class="st6" points="25.064,15.403 14.231,21.2 25.064,26.997 35.898,21.2 		"/>
		<polygon class="st7" points="14.231,21.2 14.231,26.997 25.064,32.793 25.064,26.997 		"/>
		<polygon class="st8" points="35.898,21.2 35.898,26.997 25.064,32.793 25.064,26.997 		"/>
	</g>
</g>
</svg>
