<?xml version="1.0" encoding="utf-8"?>
<!-- Generator: Adobe Illustrator 23.0.1, SVG Export Plug-In . SVG Version: 6.00 Build 0)  -->
<svg version="1.1" id="Layer_1" xmlns="http://www.w3.org/2000/svg" xmlns:xlink="http://www.w3.org/1999/xlink" x="0px" y="0px"
	 viewBox="0 0 50 50" style="enable-background:new 0 0 50 50;" xml:space="preserve">
<style type="text/css">
	.st0{fill:#FAAB5D;}
</style>
<path class="st0" d="M49,25c0,13.255-10.745,24-24,24S1,38.255,1,25S11.745,1,25,1S49,11.745,49,25z M12.845,18.945v10.572
	l10.607,1.428c-0.102-0.815-0.238-1.801-0.238-3.059c0-4.42,2.04-6.324,4.896-6.358c2.958,0,4.793,2.414,4.793,5.235
	c0,2.006-0.68,3.809-1.224,4.727l2.278,0.748c0.68-1.055,1.359-3.094,1.359-5.508c0-4.794-3.229-8.228-7.547-8.228
	c-2.788,0-4.692,1.428-5.678,3.162c-0.816,1.359-1.19,3.06-1.19,4.759c0,0.816,0.068,1.293,0.136,1.803l-5.677-0.851v-8.431H12.845z
	"/>
</svg>
