<?xml version="1.0" encoding="utf-8"?>
<!-- Generator: Adobe Illustrator 23.0.1, SVG Export Plug-In . SVG Version: 6.00 Build 0)  -->
<svg version="1.1" id="Layer_1" xmlns="http://www.w3.org/2000/svg" xmlns:xlink="http://www.w3.org/1999/xlink" x="0px" y="0px"
	 viewBox="0 0 50 50" style="enable-background:new 0 0 50 50;" xml:space="preserve">
<style type="text/css">
	.st0{fill:#C4DF9A;}
</style>
<path class="st0" d="M25,1C11.745,1,1,11.745,1,25s10.745,24,24,24s24-10.745,24-24S38.255,1,25,1z M34.942,32.136h-1.836
	l-2.277-2.346c-5.372-5.644-8.228-8.193-11.559-8.228c-2.244,0-4.318,1.088-4.318,4.386c0,2.006,1.02,3.672,1.87,4.691l-2.108,0.952
	c-1.292-1.529-2.244-3.705-2.244-6.255c0-4.759,3.264-6.765,6.425-6.765c4.08,0,7.377,2.957,11.865,7.615l1.632,1.768h0.068v-9.927
	h2.481V32.136z"/>
</svg>
