<?xml version="1.0" encoding="utf-8"?>
<!-- Generator: Adobe Illustrator 23.0.1, SVG Export Plug-In . SVG Version: 6.00 Build 0)  -->
<svg version="1.1" id="Layer_1" xmlns="http://www.w3.org/2000/svg" xmlns:xlink="http://www.w3.org/1999/xlink" x="0px" y="0px"
	 viewBox="0 0 50 50" style="enable-background:new 0 0 50 50;" xml:space="preserve">
<style type="text/css">
	.st0{fill:#98A5D4;}
</style>
<path class="st0" d="M49,25c0,13.255-10.745,24-24,24S1,38.255,1,25S11.745,1,25,1S49,11.745,49,25z M33.82,32.238
	c0.714-1.088,1.496-3.264,1.496-5.746c0-5.304-3.094-8.057-6.629-8.057c-3.094,0-5.134,2.209-5.678,4.929h-0.068
	c-0.986-2.72-2.923-4.08-5.201-4.08c-2.686,0-5.27,1.972-5.27,6.323c0,2.38,0.85,4.624,1.7,5.779l2.176-0.782
	c-0.68-0.951-1.462-2.651-1.462-4.419c0-2.754,1.564-3.876,3.332-3.876c2.618,0,3.74,2.754,3.74,4.93v1.666h2.244V27.24
	c0-2.89,1.326-5.678,4.42-5.712c1.836-0.033,4.283,1.156,4.283,4.998c0,2.073-0.85,4.046-1.394,4.896L33.82,32.238z"/>
</svg>
