<?xml version="1.0" encoding="utf-8"?>
<!-- Generator: Adobe Illustrator 23.0.1, SVG Export Plug-In . SVG Version: 6.00 Build 0)  -->
<svg version="1.1" id="Layer_1" xmlns="http://www.w3.org/2000/svg" xmlns:xlink="http://www.w3.org/1999/xlink" x="0px" y="0px"
	 viewBox="0 0 50 50" style="enable-background:new 0 0 50 50;" xml:space="preserve">
<style type="text/css">
	.st0{fill:#C4DF9A;}
</style>
<path class="st0" d="M49,25c0,13.255-10.745,24-24,24S1,38.255,1,25S11.745,1,25,1S49,11.745,49,25z M12.471,24.758
	c0,4.488,4.08,7.683,11.491,7.683c7.309-0.068,11.355-2.991,11.355-7.309c0-4.895-4.147-7.683-11.661-7.683
	C16.618,17.449,12.471,20.101,12.471,24.758z M14.782,24.928c0-3.093,3.57-4.488,9.009-4.488c5.644,0,9.213,1.462,9.213,4.522
	c0,2.719-3.264,4.488-9.009,4.488C17.978,29.45,14.782,27.546,14.782,24.928z"/>
</svg>
