<svg version="1.1" xmlns="http://www.w3.org/2000/svg" xmlns:xlink="http://www.w3.org/1999/xlink" x="0px" y="0px"
	 viewBox="0 0 300 143.119">
<g>
	<path fill="#212121" d="M60.818,84.008c-0.228,0-0.377,0.154-0.372,0.358c-0.005,0.195,0.144,0.354,0.368,0.354
		c0.233,0,0.382-0.158,0.382-0.354C61.19,84.161,61.046,84.008,60.818,84.008z"/>
	<rect x="60.464" y="84.999" fill="#212121" width="0.708" height="2.276"/>
	<polygon fill="#212121" points="58.041,75.885 58.041,75.333 55.887,75.333 55.887,78.642 56.569,78.642 56.569,77.29 57.878,77.29
		57.878,76.74 56.569,76.74 56.569,75.885 	"/>
	<rect x="58.241" y="76.678" fill="#212121" width="1.386" height="0.429"/>
	<path fill="#212121" d="M88.5,81.468c0.185,0,0.342-0.064,0.471-0.193c0.129-0.129,0.193-0.286,0.193-0.471
		c0-0.185-0.065-0.342-0.193-0.471c-0.129-0.129-0.286-0.193-0.471-0.193c-0.185,0-0.342,0.065-0.471,0.193
		c-0.129,0.129-0.193,0.286-0.193,0.471c0,0.18,0.066,0.336,0.197,0.467C88.164,81.402,88.32,81.468,88.5,81.468z"/>
	<path fill="#212121" d="M94.346,76.953c-0.054-0.083-0.126-0.132-0.216-0.149s-0.183,0.005-0.277,0.066
		c-0.095,0.062-0.153,0.138-0.174,0.227s-0.004,0.175,0.05,0.258c0.055,0.084,0.127,0.134,0.219,0.151
		c0.091,0.017,0.183-0.005,0.276-0.066c0.093-0.06,0.15-0.136,0.172-0.226C94.417,77.124,94.401,77.037,94.346,76.953z"/>
	<path fill="#212121" d="M52.842,73.542v5.597c-0.246-0.201-0.56-0.303-0.942-0.303c-0.293,0-0.565,0.081-0.816,0.244
		c-0.251,0.162-0.447,0.388-0.586,0.675c-0.14,0.288-0.21,0.614-0.21,0.98v0.116c0,0.55,0.157,0.989,0.47,1.318
		c0.314,0.328,0.72,0.493,1.22,0.493c0.618,0,1.082-0.237,1.391-0.712l-0.385-0.3c-0.116,0.15-0.251,0.271-0.406,0.361
		c-0.155,0.091-0.343,0.136-0.566,0.136c-0.314,0-0.572-0.112-0.776-0.336c-0.203-0.224-0.31-0.518-0.319-0.881h2.499v-0.263
		c0-0.169-0.012-0.326-0.034-0.473h3.74v-1.101h-2.91v-5.551H52.842z M52.787,80.412h-1.848c0.041-0.334,0.148-0.594,0.32-0.779
		c0.173-0.185,0.386-0.278,0.641-0.278c0.264,0,0.473,0.088,0.627,0.264c0.155,0.176,0.241,0.424,0.259,0.745V80.412z"/>
	<path fill="#212121" d="M64.243,103.448c0.102-0.116,0.146-0.247,0.133-0.391c-0.013-0.144-0.086-0.274-0.218-0.39
		c-0.134-0.117-0.273-0.172-0.417-0.165c-0.144,0.007-0.266,0.069-0.368,0.185c-0.103,0.118-0.148,0.25-0.134,0.394
		c0.014,0.145,0.086,0.274,0.217,0.388s0.269,0.168,0.414,0.163C64.016,103.628,64.14,103.566,64.243,103.448z"/>
	<rect x="64.605" y="84.134" fill="#212121" width="0.659" height="2.459"/>
	<rect x="76.494" y="83.75" fill="#212121" width="2.007" height="0.831"/>

		<rect x="94.726" y="77.488" transform="matrix(0.838 -0.5456 0.5456 0.838 -27.5545 64.618)" fill="#212121" width="0.659" height="2.459"/>
	<path fill="#212121" d="M95.983,73.817c-0.312,0.015-0.591,0.186-0.837,0.512c-0.279,0.37-0.364,0.769-0.254,1.197l-0.375-0.243
		l-0.583,0.775l3.081,2.321l0.62-0.823l-2.173-1.637c-0.11-0.265-0.078-0.513,0.096-0.744c0.133-0.177,0.268-0.273,0.404-0.29
		c0.136-0.017,0.291,0.041,0.466,0.172l1.971,1.485l0.62-0.823l-1.991-1.5C96.643,73.937,96.295,73.802,95.983,73.817z"/>
	<polygon fill="#212121" points="55.388,103.979 59.034,99.806 60.569,101.146 61.299,100.31 57.219,96.745 56.488,97.581
		58.002,98.904 54.356,103.077 	"/>
	<path fill="#212121" d="M58.935,101.407c-0.056,0.064-0.083,0.135-0.081,0.212s0.041,0.149,0.118,0.217
		c0.077,0.067,0.154,0.097,0.232,0.089c0.077-0.008,0.144-0.044,0.2-0.108c0.056-0.064,0.083-0.136,0.082-0.215
		c-0.001-0.079-0.04-0.152-0.117-0.22c-0.077-0.067-0.154-0.096-0.232-0.086C59.058,101.305,58.991,101.342,58.935,101.407z"/>

		<rect x="56.08" y="103.116" transform="matrix(0.6579 -0.7531 0.7531 0.6579 -58.1428 78.7509)" fill="#212121" width="3.074" height="0.526"/>
	<path fill="#212121" d="M64.541,105.22l1.124,0.982l0.307-0.352l-1.124-0.982l0.657-0.752l-0.27-0.235l-0.841,0.564l-0.795-0.473
		l-0.119,0.136l-0.718-0.627l-2.538,2.905l0.779,0.68l2.446-2.8l0.625,0.546l-1.429,1.635c-0.514,0.589-0.462,1.154,0.158,1.695
		c0.209,0.182,0.448,0.343,0.719,0.483l0.31-0.354c-0.283-0.184-0.504-0.345-0.663-0.484c-0.329-0.287-0.347-0.597-0.055-0.931
		L64.541,105.22z"/>
	<polygon fill="#212121" points="62.07,104.134 61.498,103.634 59.296,105.015 60.372,102.651 59.802,102.153 58.489,105.4
		59.025,105.868 	"/>
	<path fill="#212121" d="M125.266,60.138c-0.034-0.034-0.079-0.057-0.133-0.058c-1.532-0.016-3.067-0.031-4.6-0.006
		c-0.476,0.008-0.952,0.028-1.428,0.045l-0.976-0.036l-2.84-0.106l-0.544-0.026c-0.724-0.054-1.448-0.11-2.168-0.188
		c-0.463-0.058-0.929-0.102-1.389-0.172c-0.461-0.072-0.923-0.137-1.382-0.214l-1.371-0.262l-1.355-0.32
		c-0.449-0.114-0.891-0.254-1.336-0.38c-0.224-0.06-0.441-0.137-0.659-0.215l-0.653-0.229c-0.441-0.141-0.856-0.339-1.283-0.512
		c-0.21-0.093-0.428-0.17-0.633-0.275l-0.616-0.306l-0.616-0.306l-0.593-0.344l-0.592-0.346l-0.148-0.086l-0.037-0.022l-0.031-0.021
		l-0.071-0.049l-0.282-0.195c-0.746-0.522-1.446-1.091-2.087-1.726c-0.637-0.635-1.214-1.325-1.718-2.06
		c-0.502-0.736-0.939-1.515-1.285-2.332c-0.347-0.817-0.614-1.664-0.808-2.528c-0.043-0.217-0.098-0.432-0.132-0.651l-0.104-0.656
		c-0.057-0.44-0.085-0.88-0.111-1.326c-0.051-0.889-0.078-1.789-0.251-2.675c-0.16-0.883-0.509-1.764-1.148-2.446l-0.007-0.007
		c-0.889-0.748-2.053-1.095-3.196-1.263c-1.153-0.171-2.321-0.173-3.478-0.185c-1.16-0.017-2.319-0.015-3.478-0.023l-3.476-0.024
		c-1.159-0.009-2.317-0.037-3.475-0.055c-1.158-0.023-2.314-0.077-3.472-0.115c-1.157-0.049-2.31-0.137-3.465-0.204
		c-1.154-0.086-2.301-0.216-3.452-0.322c-0.288-0.023-0.574-0.066-0.859-0.107l-0.857-0.12l-1.714-0.241
		c-0.287-0.034-0.568-0.097-0.851-0.15l-0.849-0.163l-1.696-0.327c-0.564-0.112-1.121-0.257-1.682-0.385
		c-0.555-0.146-1.112-0.288-1.664-0.443c-1.101-0.321-2.196-0.664-3.262-1.076l-0.799-0.309c-0.265-0.104-0.522-0.228-0.784-0.34
		c-0.26-0.117-0.523-0.227-0.78-0.349l-0.76-0.386c-1.015-0.513-1.977-1.111-2.899-1.762l-0.659-0.525
		c-0.109-0.089-0.224-0.171-0.326-0.266l-0.304-0.29c-0.2-0.195-0.411-0.381-0.602-0.584l-0.544-0.634
		c-0.086-0.109-0.193-0.204-0.261-0.324l-0.218-0.353c-0.157-0.23-0.259-0.487-0.382-0.734c-0.122-0.248-0.219-0.506-0.33-0.758
		l-0.339-0.755l0.336,0.756c0.11,0.253,0.206,0.511,0.327,0.76c0.122,0.248,0.223,0.506,0.38,0.736l0.217,0.354
		c0.069,0.121,0.175,0.216,0.26,0.326l0.542,0.637c0.191,0.204,0.401,0.39,0.601,0.587l0.303,0.291
		c0.103,0.096,0.218,0.178,0.326,0.268l0.659,0.528c0.918,0.654,1.882,1.258,2.895,1.775l0.759,0.389
		c0.258,0.123,0.52,0.234,0.78,0.352c0.262,0.114,0.518,0.239,0.784,0.344l0.799,0.312c1.066,0.416,2.161,0.763,3.263,1.088
		c0.552,0.157,1.11,0.301,1.665,0.449c0.561,0.129,1.116,0.276,1.682,0.391l1.697,0.333l0.849,0.167
		c0.283,0.054,0.564,0.118,0.851,0.153l1.715,0.247l0.858,0.123c0.286,0.042,0.572,0.086,0.86,0.11
		c1.151,0.11,2.301,0.245,3.455,0.334c1.156,0.071,2.31,0.163,3.467,0.216c1.158,0.041,2.315,0.099,3.474,0.127
		c1.159,0.021,2.317,0.053,3.477,0.067l3.477,0.035c1.158,0.012,2.319,0.014,3.476,0.035c1.158,0.016,2.318,0.022,3.451,0.194
		c1.122,0.169,2.246,0.513,3.09,1.227c0.602,0.649,0.935,1.489,1.088,2.353c0.166,0.867,0.19,1.759,0.238,2.651
		c0.024,0.445,0.052,0.896,0.107,1.341l0.103,0.665c0.034,0.222,0.088,0.44,0.131,0.66c0.193,0.876,0.461,1.737,0.81,2.568
		c0.347,0.831,0.788,1.625,1.296,2.375c0.51,0.75,1.094,1.452,1.739,2.1c0.645,0.645,1.363,1.233,2.114,1.762l0.281,0.196
		l0.07,0.049l0.04,0.027l0.038,0.022l0.149,0.088l0.597,0.352l0.598,0.351l0.622,0.311l0.622,0.312
		c0.206,0.106,0.426,0.185,0.639,0.28c0.431,0.176,0.851,0.378,1.296,0.521l0.66,0.234c0.22,0.079,0.439,0.158,0.665,0.219
		c0.45,0.129,0.895,0.271,1.348,0.388l1.367,0.328l0.141,0.028l-0.272-0.035c-0.465-0.075-0.931-0.143-1.394-0.223
		c-0.461-0.091-0.924-0.174-1.383-0.272c-0.456-0.109-0.915-0.209-1.368-0.327c-0.449-0.13-0.903-0.248-1.349-0.387
		c-0.441-0.151-0.889-0.292-1.324-0.45c-0.882-0.323-1.722-0.701-2.541-1.134c-0.816-0.434-1.598-0.924-2.329-1.476
		c-1.455-1.107-2.691-2.487-3.507-4.087c-0.398-0.803-0.687-1.654-0.865-2.532c-0.179-0.873-0.251-1.771-0.252-2.668
		c-0.003-0.899,0.077-1.796,0.167-2.695c0.095-0.893,0.191-1.819-0.032-2.713l-0.001-0.003l-0.001-0.003
		c-0.062-0.125-0.115-0.255-0.185-0.376l-0.128-0.169c-0.041-0.057-0.084-0.114-0.141-0.158c-0.106-0.096-0.21-0.194-0.338-0.261
		c-0.062-0.035-0.12-0.079-0.186-0.107l-0.198-0.084c-0.266-0.108-0.549-0.168-0.83-0.219c-0.144-0.018-0.278-0.044-0.43-0.054
		l-0.426-0.013l-0.853-0.026c-0.284-0.014-0.571,0.015-0.856,0.02l-0.857,0.032l-0.854,0.066c-0.569,0.041-1.137,0.093-1.705,0.144
		c-0.568,0.055-1.135,0.087-1.704,0.131l-3.411,0.248l-1.706,0.124c-0.284,0.018-0.57,0.047-0.852,0.057l-0.854,0.027l-1.708,0.054
		c-0.569,0.024-1.138,0.005-1.707,0.01l-1.708-0.003l-1.704-0.073l-1.704-0.077c-0.566-0.041-1.127-0.16-1.699-0.112
		c0.572-0.046,1.132,0.077,1.698,0.12l1.704,0.085l1.705,0.081l1.708,0.011c0.569-0.002,1.138,0.02,1.708-0.002l1.708-0.047
		l0.854-0.023c0.286-0.009,0.569-0.036,0.854-0.052l1.706-0.116l3.412-0.232c0.568-0.041,1.139-0.071,1.707-0.123
		c0.568-0.048,1.136-0.098,1.704-0.136l0.852-0.062l0.851-0.028c0.284-0.004,0.567-0.031,0.851-0.016l0.853,0.03l0.427,0.015
		c0.13,0.009,0.276,0.037,0.413,0.055c0.275,0.052,0.549,0.112,0.803,0.216l0.188,0.081c0.063,0.027,0.116,0.069,0.175,0.102
		c0.121,0.063,0.217,0.156,0.315,0.245c0.053,0.041,0.093,0.094,0.131,0.148l0.118,0.158c0.064,0.112,0.113,0.234,0.171,0.35
		c0.212,0.865,0.116,1.772,0.015,2.667c-0.094,0.898-0.18,1.803-0.181,2.709c-0.003,0.905,0.064,1.811,0.242,2.703
		c0.176,0.887,0.464,1.756,0.866,2.574c0.82,1.632,2.07,3.04,3.54,4.169c0.738,0.563,1.528,1.063,2.352,1.506
		c0.821,0.441,1.686,0.834,2.561,1.159c0.444,0.164,0.891,0.307,1.337,0.461c0.449,0.142,0.906,0.264,1.359,0.397
		c0.457,0.121,0.918,0.223,1.378,0.336c0.462,0.101,0.928,0.186,1.392,0.28c0.466,0.083,0.935,0.153,1.402,0.231l1.41,0.187
		l1.415,0.149l1.418,0.119l1.42,0.093l0.554,0.029c0.314,0.026,0.626,0.064,0.941,0.085c0.125,0.01,0.251,0.015,0.376,0.023
		c-0.219,0.023-0.436,0.059-0.654,0.087l-0.292,0.004l-1.445,0.039l-1.446,0.067l-1.445,0.1l-1.443,0.142
		c-0.48,0.064-0.96,0.12-1.439,0.19c-0.477,0.082-0.956,0.155-1.432,0.245c-0.474,0.103-0.95,0.195-1.423,0.307
		c-0.469,0.126-0.942,0.238-1.409,0.374c-0.464,0.15-0.928,0.286-1.392,0.446c-0.913,0.317-1.822,0.71-2.69,1.156
		c-0.871,0.449-1.712,0.962-2.507,1.547c-1.583,1.174-2.966,2.663-3.933,4.416c-0.194,0.359-0.357,0.735-0.515,1.112
		c-1.132-0.117-2.264-0.235-3.398-0.344v-0.991h0.845V68.27h-0.845v-1.215h-1.32v1.215h-0.722v0.969h0.722v0.875l-0.771-0.065
		v-3.049h-0.593v2.727c0,0.069,0.002,0.165,0.005,0.275c-0.174-0.011-0.348-0.02-0.521-0.031l-1.426-2.971h-0.726v2.854
		l-0.201-0.007c-0.249-0.208-0.564-0.318-0.953-0.318c-0.293,0-0.565,0.081-0.816,0.244c-0.017,0.011-0.028,0.027-0.044,0.038
		l-0.521-0.001c-0.032-0.501-0.154-0.894-0.379-1.162c-0.262-0.312-0.661-0.468-1.197-0.468c-0.643,0-1.138,0.251-1.485,0.754
		c-0.238-0.503-0.675-0.754-1.311-0.754c-0.597,0-1.071,0.215-1.421,0.644l-0.041-0.553h-1.238v2.168
		c-0.458,0.081-0.917,0.159-1.37,0.26c-0.023-0.001-0.043-0.006-0.067-0.006c-0.283,0-0.545,0.08-0.789,0.231
		c-0.402,0.103-0.809,0.193-1.203,0.316c-0.074,0.021-0.145,0.05-0.218,0.073c-0.371-0.274-0.853-0.419-1.457-0.419
		c-0.588,0-1.064,0.147-1.428,0.441c-0.364,0.294-0.546,0.66-0.546,1.099c0,0.117,0.04,0.216,0.068,0.32
		c-0.158,0.088-0.319,0.172-0.474,0.263c-0.012,0.007-0.022,0.015-0.034,0.022c-0.353-0.135-0.728-0.212-1.13-0.212
		c-0.448,0-0.798,0.088-1.052,0.264s-0.38,0.419-0.38,0.728c0,0.225,0.069,0.42,0.206,0.585c0.058,0.07,0.16,0.144,0.289,0.22
		c-0.283,0.274-0.545,0.564-0.785,0.87v-0.007c0-0.433-0.14-0.768-0.419-1.007s-0.657-0.358-1.132-0.358
		c-0.314,0-0.597,0.054-0.849,0.162c-0.252,0.108-0.447,0.257-0.585,0.447c-0.138,0.19-0.207,0.397-0.207,0.62h1.03
		c0-0.145,0.049-0.259,0.148-0.342c0.099-0.083,0.235-0.125,0.408-0.125c0.197,0,0.342,0.053,0.433,0.16
		c0.091,0.107,0.137,0.25,0.137,0.428v0.221h-0.474c-0.573,0.002-1.011,0.113-1.314,0.332c-0.303,0.219-0.455,0.533-0.455,0.941
		c0,0.333,0.124,0.609,0.373,0.827c0.248,0.219,0.562,0.328,0.94,0.328c0.254,0,0.467-0.077,0.661-0.19
		c-0.03,0.094-0.061,0.188-0.087,0.284c-1.39,0.495-2.756,1.036-4.049,1.692c-1.51,0.764-2.95,1.635-4.23,2.673
		c-1.18,0.955-2.241,2.028-3.098,3.223c-0.359,0.107-0.712,0.233-1.067,0.35c0.402-0.324,0.608-0.759,0.608-1.312
		c0-0.518-0.178-0.95-0.534-1.298c-0.356-0.347-0.924-0.638-1.704-0.873c-0.423-0.128-0.744-0.265-0.962-0.411
		s-0.327-0.327-0.327-0.544c0-0.231,0.093-0.418,0.279-0.56c0.186-0.142,0.446-0.212,0.781-0.212c0.347,0,0.617,0.084,0.809,0.254
		s0.288,0.406,0.288,0.71h1.371c0-0.399-0.103-0.755-0.308-1.069c-0.206-0.314-0.494-0.557-0.866-0.729
		c-0.372-0.172-0.795-0.258-1.27-0.258c-0.472,0-0.898,0.079-1.277,0.238s-0.67,0.378-0.873,0.66
		C45.501,81.03,45.4,81.351,45.4,81.71c0,0.691,0.378,1.241,1.133,1.649c0.277,0.149,0.653,0.301,1.128,0.455
		c0.475,0.154,0.804,0.3,0.987,0.439c0.183,0.139,0.274,0.337,0.274,0.596c0,0.238-0.091,0.423-0.274,0.555
		c-0.183,0.132-0.437,0.199-0.763,0.199c-0.877,0-1.316-0.367-1.316-1.101h-1.375c0,0.429,0.11,0.807,0.331,1.133
		c0.221,0.326,0.541,0.583,0.962,0.77s0.886,0.281,1.398,0.281c0.111,0,0.211-0.011,0.315-0.018l-0.154,0.056
		c-0.278,0.103-0.548,0.228-0.823,0.342c-0.273,0.117-0.548,0.228-0.819,0.351l-0.801,0.393c-1.07,0.521-2.095,1.14-3.08,1.817
		l-0.712,0.55c-0.117,0.094-0.24,0.179-0.352,0.279l-0.331,0.305c-0.219,0.206-0.447,0.402-0.657,0.617l-0.602,0.674
		c-0.095,0.116-0.211,0.216-0.291,0.346l-0.249,0.379c-0.178,0.245-0.302,0.524-0.446,0.79c-0.143,0.267-0.262,0.546-0.395,0.819
		l-0.403,0.814l0.406-0.813c0.133-0.272,0.253-0.551,0.397-0.817c0.145-0.265,0.269-0.543,0.448-0.788l0.25-0.378
		c0.079-0.128,0.195-0.228,0.292-0.343l0.604-0.671c0.211-0.214,0.44-0.408,0.659-0.613l0.332-0.304
		c0.112-0.1,0.235-0.184,0.353-0.277l0.711-0.547c0.988-0.673,2.012-1.287,3.082-1.803l0.802-0.39
		c0.271-0.122,0.546-0.232,0.819-0.348c0.275-0.112,0.545-0.236,0.823-0.338l0.308-0.112c0.465-0.053,0.853-0.19,1.172-0.401
		c0.385-0.128,0.768-0.262,1.156-0.377c-0.052,0.074-0.111,0.143-0.162,0.217c-0.895,1.302-1.529,2.763-1.788,4.252
		c-0.239,1.495-0.115,2.991,0.254,4.36c0.167,0.602,0.381,1.176,0.62,1.731c-0.104,0.188-0.165,0.389-0.136,0.616
		c0.04,0.308,0.197,0.582,0.471,0.821c0.162,0.141,0.341,0.237,0.534,0.294c0.054,0.094,0.105,0.192,0.16,0.284
		c0.201,0.335,0.421,0.64,0.635,0.955c-0.228,0.399-0.349,0.8-0.341,1.203c0.012,0.607,0.284,1.143,0.816,1.608
		c0.284,0.248,0.595,0.417,0.931,0.507c0.336,0.09,0.664,0.089,0.983-0.003c0.069-0.02,0.127-0.058,0.191-0.085
		c0.441,0.476,0.881,0.931,1.316,1.352c1.537,1.484,2.978,2.666,4.191,3.603c1.213,0.937,2.198,1.63,2.873,2.097
		c0.483,0.33,0.797,0.545,0.943,0.645c0.025,0.025,0.044,0.059,0.07,0.083c0.511,0.447,1.091,0.524,1.738,0.233l0.254-0.124
		l5.254-2.993l-1.067-0.932l-2.711,1.714l1.332-2.92l-1.07-0.935l-1.958,4.872l-0.385,0.204c-0.169,0.087-0.325,0.119-0.468,0.095
		c-0.143-0.024-0.309-0.118-0.497-0.282l-0.148-0.136l-0.658,0.753c0.09,0.141,0.199,0.256,0.312,0.366
		c-0.146-0.1-0.458-0.315-0.939-0.646c-0.674-0.469-1.657-1.165-2.867-2.106c-1.21-0.94-2.647-2.126-4.178-3.614
		c-0.431-0.42-0.866-0.872-1.302-1.346c0.218-0.098,0.419-0.226,0.585-0.412l-0.932-0.815c-0.149,0.161-0.323,0.241-0.522,0.244
		c-0.047-0.055-0.094-0.104-0.141-0.159c-0.247-0.295-0.486-0.617-0.728-0.931c0.066-0.242,0.233-0.522,0.515-0.844l0.09-0.103
		c0.331-0.379,0.629-0.601,0.895-0.667c0.266-0.066,0.514,0.003,0.746,0.205c0.188,0.164,0.286,0.357,0.295,0.578
		c0.009,0.221-0.069,0.431-0.234,0.628l0.932,0.815c0.38-0.444,0.546-0.922,0.496-1.432c-0.05-0.51-0.307-0.969-0.773-1.376
		c-0.532-0.465-1.1-0.66-1.704-0.585c-0.604,0.075-1.156,0.4-1.657,0.973l-0.057,0.065c-0.16,0.183-0.286,0.367-0.396,0.551
		c-0.207-0.308-0.421-0.605-0.615-0.932c-0.047-0.079-0.089-0.162-0.135-0.242c0.153,0.036,0.313,0.053,0.486,0.038
		c-0.106,0.155-0.169,0.272-0.189,0.351l0.498,0.435l0.036-0.041c0.066-0.207,0.211-0.439,0.434-0.694l1.117-1.278
		c0.238-0.287,0.337-0.589,0.295-0.908c-0.042-0.319-0.222-0.618-0.542-0.897c-0.202-0.176-0.42-0.301-0.654-0.373
		c-0.234-0.072-0.457-0.086-0.668-0.043c-0.211,0.043-0.378,0.134-0.499,0.273l0.477,0.417c0.106-0.122,0.254-0.175,0.443-0.16
		c0.189,0.015,0.369,0.096,0.538,0.244c0.193,0.169,0.297,0.346,0.31,0.531c0.013,0.185-0.053,0.361-0.198,0.527l-0.191,0.218
		l-0.462-0.404c-0.399-0.348-0.778-0.539-1.138-0.571s-0.666,0.096-0.919,0.386c-0.037,0.042-0.049,0.091-0.078,0.136
		c-0.228-0.54-0.434-1.098-0.594-1.681c-0.363-1.363-0.48-2.848-0.238-4.329c0.263-1.479,0.89-2.915,1.787-4.213
		c0.073-0.107,0.157-0.207,0.233-0.311c0.479-0.14,0.959-0.276,1.44-0.404c0.572-0.145,1.148-0.276,1.722-0.411
		c0.579-0.114,1.155-0.249,1.735-0.347l0.093-0.015c-0.221,0.212-0.361,0.515-0.361,0.905c0,0.67,0.419,1.177,1.233,1.177
		c0.286,0,0.506-0.052,0.604-0.101l-0.08-0.416c-0.105,0.042-0.283,0.077-0.443,0.077c-0.475,0-0.754-0.297-0.754-0.768
		c0-0.524,0.328-0.779,0.751-0.779c0.189,0,0.339,0.042,0.447,0.087l0.108-0.423c-0.002-0.001-0.007-0.002-0.008-0.003l0.156-0.025
		l0.388-0.063v3.611h1.03v-2.524c0.121-0.264,0.377-0.396,0.767-0.396c0.107,0,0.231,0.01,0.371,0.029l0.014-0.991
		c-0.025-0.008-0.055-0.006-0.081-0.012l1.013-0.108l0.878-0.094c0.022-0.002,0.043-0.003,0.065-0.006v2.609
		c0.018,0.935,0.49,1.403,1.416,1.403c0.274,0,0.541-0.04,0.8-0.119V86.73c-0.113,0.021-0.242,0.032-0.388,0.032
		c-0.198,0-0.332-0.039-0.402-0.119c-0.07-0.079-0.105-0.21-0.105-0.393v-2.467h0.845v-0.101c0.176-0.011,0.351-0.02,0.527-0.031
		c0.016,0.029,0.013,0.069,0.038,0.093c0.067,0.064,0.156,0.095,0.267,0.095c0.111,0,0.2-0.032,0.267-0.095
		c0.034-0.032,0.034-0.083,0.051-0.125c0.34-0.019,0.68-0.04,1.02-0.053c0.033-0.001,0.066-0.002,0.098-0.002
		c-0.08,0.06-0.157,0.125-0.225,0.202c-0.316,0.354-0.474,0.828-0.474,1.423v0.068c0,0.618,0.159,1.102,0.478,1.453
		c0.318,0.351,0.753,0.526,1.305,0.526c0.295,0,0.564-0.06,0.808-0.18s0.436-0.289,0.576-0.506c0.14-0.217,0.211-0.457,0.214-0.718
		h-0.966c-0.005,0.174-0.067,0.313-0.185,0.417c-0.119,0.105-0.273,0.157-0.464,0.157c-0.247,0-0.431-0.087-0.553-0.261
		c-0.121-0.174-0.182-0.459-0.182-0.857V85.18c0-0.393,0.061-0.677,0.184-0.852c0.122-0.175,0.304-0.262,0.544-0.262
		c0.195,0,0.352,0.063,0.471,0.188c0.119,0.125,0.181,0.289,0.185,0.489h0.966c-0.005-0.456-0.153-0.822-0.444-1.096
		c-0.06-0.057-0.141-0.082-0.209-0.127c0.354-0.008,0.709-0.013,1.063-0.016c-0.144,0.144-0.237,0.316-0.237,0.477
		c0,0.154,0.112,0.237,0.237,0.237c0.293,0,0.419-0.154,0.419-0.405c0-0.148-0.048-0.245,0.006-0.314
		c0.267,0.002,0.535,0.006,0.802,0.007c0.053,0.09,0.074,0.218,0.085,0.335v0.363c-0.154,0.112-0.419,0.223-0.852,0.433
		c-0.503,0.223-0.642,0.537-0.642,0.859c0,0.391,0.223,0.6,0.482,0.6c0.14,0,0.286,0,0.447-0.049
		c0.272-0.091,0.454-0.209,0.607-0.377h0.028c0.098,0.3,0.321,0.426,0.586,0.426c0.405,0,0.572-0.279,0.642-0.405
		c0.028-0.07,0.014-0.098-0.014-0.112l-0.084-0.056c-0.028-0.014-0.042-0.014-0.07,0.028c-0.028,0.056-0.126,0.112-0.223,0.112
		c-0.126,0-0.182-0.112-0.182-0.489v-0.335l-0.014-1.103c0-0.075-0.008-0.15-0.021-0.224c0.413,0.002,0.826,0.005,1.239,0.011
		c0.007,0.057,0.011,0.12,0.011,0.194v2.023c0,0.331-0.066,0.497-0.197,0.497c-0.039,0-0.096-0.008-0.172-0.026
		c-0.076-0.017-0.133-0.026-0.172-0.026c-0.117,0-0.213,0.045-0.288,0.135c-0.076,0.09-0.113,0.206-0.113,0.347
		c0,0.156,0.047,0.285,0.142,0.387c0.095,0.102,0.218,0.153,0.369,0.153c0.073,0,0.147-0.004,0.223-0.011
		c0.075-0.007,0.157-0.017,0.245-0.029s0.184-0.022,0.288-0.029c0.105-0.007,0.223-0.011,0.354-0.011
		c0.876,0,1.548,0.015,2.015,0.044c0.156,0.01,0.292,0.017,0.409,0.022c0.117,0.005,0.217,0.007,0.299,0.007
		c0.316,0,0.475-0.134,0.475-0.402c0-0.01-0.003-0.043-0.007-0.099c-0.005-0.056-0.012-0.133-0.022-0.23
		c-0.005-0.049-0.009-0.097-0.011-0.146c-0.003-0.049-0.004-0.097-0.004-0.146c0-0.039,0.002-0.09,0.007-0.153
		c0.005-0.063,0.012-0.136,0.022-0.219c0.01-0.083,0.017-0.156,0.022-0.219c0.005-0.063,0.007-0.117,0.007-0.161
		c0-0.385-0.195-0.577-0.584-0.577c-0.175,0-0.321,0.052-0.438,0.157c-0.117,0.105-0.175,0.235-0.175,0.391
		c0,0.068,0.012,0.163,0.036,0.285c0.019,0.083,0.029,0.161,0.029,0.234c0,0.243-0.197,0.365-0.591,0.365h-0.358
		c-0.054,0-0.102-0.001-0.146-0.004c-0.044-0.002-0.08-0.006-0.11-0.011c-0.127-0.019-0.209-0.092-0.248-0.219
		C74.008,85.998,74,85.879,74,85.689V83.63c0-0.036,0.013-0.051,0.016-0.082c0.942,0.024,1.884,0.044,2.827,0.077l2.379,0.088v1.458
		c0.014,0.73,0.383,1.095,1.105,1.095c0.214,0,0.422-0.031,0.624-0.093v-0.781c-0.088,0.017-0.189,0.025-0.303,0.025
		c-0.155,0-0.259-0.031-0.314-0.093c-0.055-0.062-0.082-0.164-0.082-0.307v-1.267l0.111,0.004c0.394,0.014,0.787,0.028,1.181,0.044
		v2.795h1.371V83.85c0.324,0.012,0.647,0.027,0.971,0.036c0.565,0.019,1.133,0.039,1.702,0.041v2.667h1.371v-2.718
		c0.154-0.012,0.309-0.019,0.464-0.037c0.193-0.022,0.387-0.059,0.581-0.093v0.444c0,0.273-0.044,0.409-0.131,0.409
		c-0.015,0-0.032-0.002-0.051-0.007l-0.19-0.044c-0.234,0-0.351,0.139-0.351,0.416c0,0.141,0.041,0.257,0.124,0.347
		c0.083,0.09,0.19,0.135,0.321,0.135c0.083,0,0.209-0.01,0.38-0.029c0.17-0.019,0.299-0.029,0.387-0.029
		c0.175,0,0.331,0.007,0.467,0.022c0.224,0.024,0.36,0.036,0.409,0.036c0.287,0,0.431-0.168,0.431-0.504
		c0-0.253-0.102-0.38-0.307-0.38c-0.034,0-0.077,0.006-0.128,0.018c-0.051,0.012-0.086,0.018-0.106,0.018
		c-0.092,0-0.139-0.124-0.139-0.372v-0.753c0.322-0.108,0.635-0.244,0.934-0.409l0.346,1.161l0.678-0.202l-0.375-1.258
		c-0.012-0.042-0.013-0.08-0.016-0.119c0.024-0.019,0.051-0.03,0.075-0.049l0.008-0.007c0.112-0.114,0.205-0.243,0.303-0.367
		c0.172,0.009,0.291,0.152,0.359,0.38l0.36,1.209l0.678-0.202l-0.34-1.141c0.009,0.004,0.019,0.005,0.031,0.001
		c0.033-0.011,0.25-0.109,0.673-0.255c0.369-0.128,0.601-0.185,0.64-0.199c0.04-0.014,0.046-0.038,0.035-0.071l-0.046-0.132
		c-0.016-0.046-0.034-0.055-0.086-0.037l-0.145,0.05c-0.079,0.027-0.15-0.007-0.187-0.113l-0.338-0.976
		c0.053-0.018,0.15-0.037,0.239,0.006c0.204,0.121,1.08,0.646,1.116,0.707c0.031,0.048,0.019,0.097-0.034,0.115l-0.053,0.018
		c-0.04,0.014-0.048,0.031-0.035,0.071l0.039,0.112c0.018,0.053,0.036,0.061,0.076,0.048c0.053-0.018,0.323-0.134,0.706-0.266
		c0.435-0.151,0.627-0.195,0.68-0.213s0.061-0.036,0.048-0.076l-0.046-0.132c-0.016-0.046-0.034-0.055-0.073-0.041
		c-0.079,0.027-0.247,0.056-0.375,0.026c-0.195-0.051-1.492-0.769-1.768-0.925c0.125-0.235,0.487-0.899,0.605-1.029
		s0.278-0.222,0.37-0.254l0.066-0.023c0.04-0.014,0.048-0.031,0.035-0.071l-0.041-0.119c-0.016-0.046-0.038-0.068-0.071-0.057
		c-0.053,0.018-0.204,0.093-0.567,0.218c-0.383,0.132-0.627,0.195-0.667,0.208c-0.04,0.014-0.044,0.045-0.035,0.071l0.048,0.139
		c0.014,0.04,0.031,0.048,0.064,0.037l0.059-0.021c0.079-0.027,0.141,0.003,0.155,0.042c0.011,0.033,0.008,0.086-0.005,0.135
		c-0.038,0.146-0.268,0.676-0.377,0.876c-0.048,0.076-0.157,0.143-0.237,0.17l-0.347-1.003c-0.012-0.035-0.025-0.072-0.037-0.107
		c0.162-0.787,0.268-1.581,0.37-2.369c0.063-0.488,0.129-0.969,0.224-1.45l0.16-0.715c0.053-0.239,0.127-0.472,0.188-0.709
		c0.084-0.295,0.189-0.583,0.288-0.874c0.195-0.053,0.38-0.123,0.568-0.189c0.194-0.071,0.382-0.131,0.579-0.21l0.566-0.242
		c0.159-0.076,0.315-0.156,0.472-0.235c0.054,0.073,0.113,0.139,0.181,0.19c0.477,0.353,0.912,0.258,1.193,0.136l0.011,0.008
		c-0.046,0.227-0.088,0.682,0.215,0.906c0.18,0.133,0.459,0.131,0.698-0.074l0.034,0.025c-0.087,0.352-0.107,0.824,0.196,1.049
		c0.18,0.133,0.384,0.162,0.651,0.048c0.323-0.143,0.622-0.477,0.822-0.746c0.402-0.519,0.513-1.045,0.5-1.332
		c-0.008-0.388-0.146-0.647-0.393-0.83c-0.168-0.125-0.423-0.226-0.758-0.127c-0.385,0.097-0.626,0.353-0.919,0.796
		c-0.343,0.51-0.501,0.724-0.725,0.557c-0.135-0.1-0.132-0.315-0.102-0.449c0.11-0.101,0.168-0.18,0.259-0.303
		c0.195-0.264,0.327-0.583,0.27-0.904c-0.016-0.089-0.061-0.16-0.096-0.237c0.024-0.018,0.049-0.033,0.073-0.051
		c0.013-0.01,0.025-0.02,0.038-0.03c0.006-0.001,0.012,0,0.018-0.001c0.381-0.057,0.756-0.149,1.114-0.281
		c0.354-0.141,0.683-0.325,0.98-0.546c0.072-0.058,0.141-0.121,0.212-0.181l0.105-0.091l0.091-0.096l0.181-0.194l0.164-0.217
		c0.211-0.281,0.423-0.561,0.625-0.847c0.384-0.53,0.758-1.066,1.147-1.59c0.165-0.143,0.329-0.298,0.494-0.436
		c0.562-0.472,1.147-0.875,1.713-1.297c1.173-0.779,2.35-1.466,3.538-2.012c1.188-0.542,2.357-0.998,3.499-1.335
		c0.286-0.085,0.564-0.178,0.845-0.252c0.281-0.071,0.558-0.141,0.832-0.211c0.137-0.034,0.273-0.069,0.407-0.103
		c0.136-0.028,0.271-0.056,0.405-0.085c0.268-0.055,0.533-0.11,0.793-0.163c0.809-0.156,1.57-0.266,2.302-0.357l1.823,0.007
		l2.887,0.013l1.446-0.009l1.434-0.029c0.002,0,0.003,0,0.005,0c0,0,0,0,0,0l0.005,0c0.024-0.001,0.04-0.018,0.06-0.027
		c0.023-0.01,0.048-0.012,0.066-0.03c0.016-0.016,0.017-0.041,0.026-0.062c0.01-0.023,0.028-0.042,0.029-0.068
		c0-0.001-0.001-0.002-0.001-0.003c0-0.001,0.001-0.001,0.001-0.002c0-0.021-0.016-0.036-0.023-0.055
		c-0.002-0.006-0.004-0.011-0.006-0.016c0.128,0.004,0.212,0.007,0.212,0.007c0.095,0.003,0.175-0.072,0.178-0.168
		C125.417,60.22,125.35,60.152,125.266,60.138z M52.86,101.509c0.036,0.043,0.073,0.08,0.11,0.123
		c-0.182-0.013-0.357-0.083-0.524-0.228c-0.239-0.208-0.343-0.448-0.314-0.717c0.003-0.025,0.013-0.053,0.019-0.078
		C52.387,100.912,52.62,101.224,52.86,101.509z M50.273,96.584c0.297-0.341,0.737-0.257,1.319,0.252l0.372,0.325l-0.498,0.57
		c-0.168,0.071-0.352,0.086-0.552,0.047c-0.201-0.04-0.376-0.124-0.525-0.255c-0.156-0.136-0.247-0.289-0.273-0.46
		C50.091,96.893,50.143,96.733,50.273,96.584z M70.774,85.376c0,0.126-0.251,0.321-0.447,0.335c-0.167,0-0.321-0.14-0.321-0.426
		c0-0.51,0.461-0.628,0.768-0.824V85.376z M98.241,73.387l0.34-0.53c0.376-0.555,0.753-0.641,1.078-0.4
		c0.339,0.234,0.15,0.841-0.066,1.133c-0.241,0.325-0.391,0.458-0.621,0.557c-0.141,0.061-0.38,0.032-0.537-0.085
		C98.212,73.895,98.17,73.577,98.241,73.387z M92.936,69.557c0.96-1.719,2.327-3.177,3.893-4.327
		c0.786-0.572,1.62-1.075,2.482-1.515c0.866-0.439,1.748-0.816,2.668-1.131c0.453-0.154,0.919-0.289,1.378-0.434
		c0.463-0.132,0.932-0.242,1.398-0.364c0.469-0.109,0.942-0.198,1.412-0.297c0.473-0.086,0.949-0.157,1.423-0.236
		c0.476-0.066,0.953-0.121,1.43-0.182l0.278-0.026l-0.145,0.024l-1.411,0.298c-0.468,0.109-0.931,0.245-1.398,0.366
		c-0.234,0.057-0.463,0.134-0.692,0.211l-0.688,0.227c-0.463,0.138-0.905,0.34-1.355,0.514c-0.223,0.094-0.453,0.171-0.67,0.278
		l-0.656,0.314l-0.656,0.314l-0.635,0.358l-0.634,0.359l-0.159,0.09l-0.04,0.023l-0.042,0.028l-0.075,0.051l-0.301,0.203
		c-0.804,0.547-1.581,1.159-2.288,1.838c-0.707,0.682-1.357,1.427-1.937,2.227c-0.458,0.635-0.86,1.31-1.224,2.007
		c-0.355-0.036-0.709-0.068-1.065-0.103c-0.258-0.027-0.517-0.052-0.776-0.079C92.601,70.242,92.754,69.892,92.936,69.557z
		 M86.181,70.132c0.008,0.247,0.02,0.564,0.039,0.972H86.2l-0.481-1.002C85.873,70.113,86.027,70.122,86.181,70.132z M84.055,67.858
		l0.995,2.076c-0.32-0.021-0.64-0.045-0.961-0.058V69.28c0-0.318-0.021-0.792-0.061-1.422H84.055z M83.503,69.972v0.079
		c-0.012-0.016-0.024-0.034-0.037-0.049c-0.011-0.013-0.024-0.021-0.035-0.033L83.503,69.972z M81.707,70.324
		c0.173-0.185,0.386-0.278,0.641-0.278c0.264,0,0.473,0.088,0.627,0.264c0.155,0.176,0.241,0.424,0.259,0.745v0.048h-1.848
		C81.428,70.769,81.535,70.509,81.707,70.324z M81.36,69.919c-0.148,0.131-0.281,0.28-0.38,0.466v-0.329
		c0-0.05-0.006-0.092-0.008-0.14L81.36,69.919z M78.911,69.252c0.277,0,0.471,0.065,0.58,0.194c0.075,0.089,0.115,0.227,0.139,0.388
		c-0.065,0.003-0.131,0.006-0.196,0.008l-1.147,0.045c-0.067,0.005-0.132,0.012-0.199,0.017l0-0.086
		C78.241,69.441,78.515,69.252,78.911,69.252z M76.028,69.252c0.271,0,0.463,0.064,0.576,0.192c0.107,0.122,0.16,0.321,0.165,0.587
		c-0.52,0.053-1.038,0.116-1.554,0.188v-0.5C75.382,69.407,75.653,69.252,76.028,69.252z M73.894,70.516v1.304
		c-0.066-0.26-0.171-0.479-0.318-0.654c-0.207-0.246-0.481-0.393-0.817-0.448C73.134,70.639,73.515,70.582,73.894,70.516z
		 M72.458,71.21c0.264,0,0.473,0.088,0.627,0.264c0.155,0.176,0.241,0.424,0.259,0.745v0.048h-1.848
		c0.041-0.334,0.148-0.594,0.32-0.779C71.989,71.302,72.203,71.21,72.458,71.21z M70.49,71.296c0.343-0.106,0.698-0.18,1.047-0.27
		c-0.197,0.154-0.364,0.342-0.482,0.584c-0.113,0.233-0.178,0.494-0.2,0.778c-0.025-0.418-0.205-0.763-0.541-1.034
		C70.373,71.336,70.43,71.313,70.49,71.296z M68.27,71.985c0.122-0.101,0.294-0.151,0.516-0.151c0.008,0,0.012,0.003,0.02,0.003
		c-0.145,0.057-0.293,0.11-0.434,0.175c-0.068,0.029-0.132,0.064-0.199,0.094C68.201,72.064,68.227,72.021,68.27,71.985z
		 M64.58,74.127c-0.115-0.083-0.172-0.194-0.172-0.332c0-0.302,0.268-0.453,0.805-0.453c0.175,0,0.37,0.032,0.577,0.084
		c-0.363,0.246-0.715,0.506-1.044,0.788C64.686,74.184,64.613,74.151,64.58,74.127z M64.336,74.639
		c0.172,0.098,0.397,0.2,0.685,0.308c0.402,0.146,0.659,0.266,0.77,0.361c0.111,0.095,0.167,0.208,0.167,0.337
		c0,0.368-0.312,0.552-0.937,0.552c-0.402,0-0.823-0.098-1.261-0.293v0.566c0.289,0.157,0.715,0.235,1.278,0.235
		c0.486,0,0.862-0.097,1.128-0.291c0.266-0.194,0.399-0.462,0.399-0.803c0-0.245-0.079-0.453-0.237-0.622s-0.477-0.341-0.956-0.516
		c-0.27-0.096-0.453-0.174-0.596-0.243c0.334-0.283,0.691-0.543,1.06-0.79c0.148,0.039,0.298,0.081,0.463,0.146l0.205-0.508
		c-0.024-0.01-0.051-0.014-0.075-0.023c0.003-0.002,0.005-0.003,0.008-0.005c0.15-0.087,0.306-0.167,0.458-0.252
		c0.171,0.546,0.718,0.93,1.686,1.133c0.353,0.073,0.61,0.156,0.77,0.249s0.24,0.22,0.24,0.381c0,0.155-0.065,0.281-0.194,0.377
		c-0.13,0.096-0.321,0.144-0.573,0.144c-0.271,0-0.487-0.062-0.649-0.187c-0.161-0.125-0.248-0.305-0.26-0.539h-1.252
		c0,0.299,0.091,0.576,0.274,0.834c0.183,0.257,0.435,0.46,0.756,0.608c0.321,0.148,0.689,0.222,1.103,0.222
		c0.612,0,1.112-0.139,1.499-0.418c0.387-0.279,0.58-0.643,0.58-1.094c0-0.63-0.349-1.074-1.046-1.33
		c-0.225-0.082-0.503-0.156-0.832-0.222c-0.329-0.065-0.563-0.143-0.701-0.233c-0.139-0.09-0.208-0.208-0.208-0.354
		c0-0.068,0.017-0.128,0.04-0.185c0.091-0.04,0.178-0.087,0.27-0.126c0.168-0.077,0.343-0.139,0.516-0.206
		c0.189,0.019,0.345,0.068,0.443,0.167c0.122,0.123,0.183,0.279,0.183,0.468h1.31c-0.001,0.034-0.005,0.068-0.005,0.103v0.116
		c0,0.55,0.157,0.989,0.47,1.318c0.314,0.328,0.72,0.493,1.22,0.493c0.618,0,1.082-0.237,1.391-0.712l-0.385-0.3
		c-0.116,0.15-0.251,0.271-0.406,0.361c-0.155,0.091-0.343,0.136-0.566,0.136c-0.314,0-0.572-0.112-0.776-0.336
		c-0.203-0.224-0.31-0.518-0.319-0.881h2.418v0.428h1.32v-2.912c0.518-0.069,1.037-0.13,1.558-0.181v3.093h1.32L78.089,70
		c0.07-0.005,0.141-0.012,0.21-0.017l1.144-0.04c0.066-0.001,0.132-0.005,0.198-0.007c0.003,0.044,0.014,0.077,0.014,0.126v3.152
		h1.325v-0.656c0.063,0.11,0.138,0.212,0.226,0.304c0.314,0.328,0.72,0.493,1.22,0.493c0.618,0,1.082-0.237,1.391-0.712l-0.385-0.3
		c-0.116,0.15-0.251,0.271-0.406,0.361c-0.155,0.091-0.343,0.136-0.566,0.136c-0.314,0-0.572-0.112-0.776-0.336
		c-0.203-0.224-0.31-0.518-0.319-0.881h2.137v0.362h0.586v-1.986c0.341,0.015,0.682,0.042,1.023,0.066l0.92,1.92h0.733V70.18
		l0.771,0.069v1.653c0.018,0.935,0.49,1.403,1.416,1.403c0.274,0,0.541-0.04,0.8-0.119v-1.001c-0.113,0.021-0.242,0.032-0.388,0.032
		c-0.198,0-0.332-0.04-0.402-0.119c-0.07-0.079-0.105-0.21-0.105-0.393V70.37c1.11,0.112,2.219,0.232,3.329,0.352
		c-0.2,0.498-0.374,1.007-0.509,1.525c-0.114,0.433-0.199,0.872-0.272,1.312c-0.95,0.191-1.919,0.335-2.899,0.441
		c-0.838,0.097-1.685,0.169-2.536,0.239c-0.851,0.071-1.707,0.143-2.566,0.216c-0.859,0.072-1.721,0.145-2.586,0.217
		c-0.864,0.073-1.734,0.14-2.601,0.235c-1.736,0.17-3.477,0.394-5.21,0.656c-0.865,0.14-1.731,0.276-2.591,0.448
		c-0.863,0.152-1.715,0.351-2.568,0.537c-1.438,0.344-2.858,0.734-4.254,1.175c-0.039-0.158-0.066-0.339-0.067-0.566v-1.627
		C63.773,75.216,64.043,74.919,64.336,74.639z M61.785,77.332c-0.157,0-0.28-0.042-0.371-0.125c-0.09-0.083-0.135-0.189-0.135-0.317
		l0.004-0.061c0.033-0.357,0.308-0.535,0.824-0.535h0.385v0.663c-0.062,0.114-0.157,0.205-0.285,0.273
		C62.077,77.299,61.937,77.332,61.785,77.332z M62.234,77.921c0.105-0.063,0.212-0.121,0.299-0.217
		c0.02,0.13,0.054,0.236,0.098,0.326c-0.163,0.06-0.324,0.122-0.488,0.181C62.17,78.113,62.204,78.017,62.234,77.921z
		 M58.882,84.542l-0.022-0.362c0.126-0.019,0.252-0.044,0.379-0.055l0.075-0.008C59.146,84.203,59,84.341,58.882,84.542z
		 M70.146,83.37c0.058-0.014,0.117-0.025,0.168-0.025c0.08,0,0.151,0.009,0.212,0.027C70.399,83.372,70.272,83.371,70.146,83.37z
		 M76.85,83.469c-0.935-0.03-1.87-0.046-2.805-0.066c0.037-0.104,0.093-0.175,0.19-0.175c0.053,0,0.13,0.009,0.23,0.026
		c0.1,0.017,0.176,0.026,0.23,0.026c0.112,0,0.204-0.046,0.277-0.139c0.073-0.092,0.11-0.209,0.11-0.351
		c0-0.161-0.047-0.288-0.142-0.383c-0.095-0.095-0.223-0.142-0.383-0.142c-0.102,0-0.27,0.015-0.504,0.044
		c-0.078,0.01-0.156,0.017-0.234,0.022c-0.078,0.005-0.158,0.007-0.241,0.007c-0.097,0-0.198-0.002-0.303-0.007
		c-0.105-0.005-0.215-0.012-0.332-0.022c-0.351-0.029-0.56-0.044-0.628-0.044c-0.36,0-0.54,0.178-0.54,0.533
		c0,0.136,0.038,0.251,0.113,0.343c0.075,0.093,0.169,0.139,0.281,0.139c0.044,0,0.103-0.008,0.179-0.026
		c0.075-0.017,0.133-0.026,0.172-0.026c0.073,0,0.123,0.055,0.156,0.155c-0.42-0.004-0.84-0.006-1.26-0.006
		c-0.025-0.057-0.044-0.117-0.095-0.164c-0.126-0.112-0.251-0.195-0.642-0.195c-0.434,0-0.792,0.151-1.077,0.355
		c-0.467,0.004-0.933,0.014-1.4,0.026c-0.22-0.098-0.464-0.164-0.753-0.164c-0.337,0-0.625,0.074-0.874,0.207
		c-0.101,0.003-0.202,0.006-0.303,0.008c-0.323,0.013-0.646,0.035-0.969,0.054c0-0.002,0.002-0.003,0.002-0.005
		c0-0.098-0.033-0.18-0.1-0.243c-0.067-0.064-0.156-0.095-0.268-0.095c-0.114,0-0.203,0.032-0.269,0.095
		c-0.066,0.064-0.099,0.145-0.099,0.243c0,0.018,0.016,0.028,0.018,0.045c-0.161,0.01-0.321,0.02-0.482,0.031v-0.759h-0.845v-1.215
		h-1.32v1.215h-0.722v0.969h0.287l-0.516,0.057l-1.757,0.194c-0.126,0.011-0.25,0.036-0.375,0.055l0-0.008H57.88v0.161l-0.399,0.066
		l-0.319,0.053c-0.106-0.026-0.235-0.047-0.397-0.047c-0.294,0-0.551,0.094-0.767,0.24l-0.263,0.044
		c-0.582,0.1-1.157,0.237-1.735,0.353c-0.575,0.138-1.151,0.27-1.724,0.418c-0.458,0.123-0.913,0.255-1.368,0.389
		c0.841-1.143,1.872-2.175,3.015-3.094c2.362-1.885,5.202-3.25,8.178-4.304c-0.027,0.112-0.057,0.223-0.077,0.337
		c-0.058,0.338-0.087,0.687-0.024,1.032c-0.061-0.345-0.031-0.693,0.029-1.031c0.021-0.115,0.051-0.228,0.079-0.341
		c0.254-0.09,0.508-0.182,0.764-0.267c0.045-0.015,0.091-0.026,0.136-0.041h0.67v-0.061c-0.018-0.035-0.027-0.088-0.042-0.129
		c1.394-0.435,2.81-0.82,4.245-1.159c0.852-0.182,1.703-0.378,2.564-0.527c0.857-0.169,1.722-0.303,2.586-0.439
		c1.731-0.257,3.466-0.474,5.203-0.639c0.868-0.093,1.734-0.156,2.6-0.227c0.866-0.07,1.728-0.14,2.587-0.209
		c0.859-0.069,1.715-0.139,2.567-0.208c0.851-0.067,1.698-0.137,2.541-0.231c0.956-0.101,1.901-0.236,2.832-0.417
		c-0.07,0.465-0.123,0.932-0.158,1.4c-0.06,0.804-0.06,1.608-0.049,2.41c-0.18,0.145-0.434,0.348-0.55,0.418
		c-0.061,0.036-0.079,0.072-0.07,0.098l0.032,0.092c0.005,0.013,0.036,0.017,0.111,0.021c0.327-0.02,0.411,0.086,0.489,0.291
		c0.019,0.872,0.007,1.747-0.246,2.576c-0.068,0.125-0.128,0.256-0.203,0.377l-0.133,0.168c-0.043,0.057-0.087,0.114-0.145,0.156
		c-0.035,0.031-0.076,0.053-0.111,0.083l-0.008-0.019l-0.589,0.175c0.018,0.051,0.038,0.113,0.058,0.169l-0.073,0.03
		c-0.192,0.075-0.394,0.12-0.597,0.158V82.03c0-0.19-0.068-0.285-0.204-0.285c-0.015,0-0.088,0.01-0.219,0.029
		c-0.131,0.02-0.239,0.029-0.321,0.029c-0.102,0-0.239-0.012-0.409-0.036c-0.102-0.015-0.18-0.022-0.234-0.022
		c-0.136,0-0.246,0.045-0.329,0.135c-0.083,0.09-0.124,0.208-0.124,0.354c0,0.111,0.033,0.184,0.071,0.25l-0.186-0.001
		c-0.07,0.001-0.138-0.006-0.207-0.01v-2.532h-1.371v2.428l-0.142-0.011l-0.857-0.106c-0.559-0.066-1.116-0.144-1.674-0.221v-2.09
		h-1.371v1.92c-0.129-0.015-0.258-0.032-0.386-0.048l-0.905-0.108v-0.319h-1.03v0.197l-1.498-0.178l-1.717-0.204
		c-0.287-0.031-0.571-0.074-0.86-0.096l-0.863-0.064l-1.725-0.128c-0.575-0.049-1.153-0.051-1.729-0.079l-1.73-0.065l-1.732,0.012
		l-1.732,0.016c-0.576,0.022-1.154,0.131-1.729,0.055c0.575,0.079,1.153-0.027,1.729-0.046l1.732-0.008l1.731-0.003l1.729,0.074
		c0.575,0.031,1.153,0.035,1.727,0.088l1.724,0.136l0.862,0.068c0.286,0.023,0.572,0.068,0.858,0.101l1.716,0.213l1.507,0.187v0.673
		h-0.563v0.756h0.563v0.456L76.85,83.469z M91.806,80.34c-0.135,0.437-0.315,0.855-0.543,1.244
		c-0.078,0.002-0.156,0.004-0.237,0.028c-0.361,0.108-0.522,0.384-0.57,0.549l-0.013,0.004l-0.06-0.145
		c0.048-0.039,0.101-0.069,0.147-0.109c0.061-0.046,0.109-0.106,0.156-0.167l0.143-0.18c0.081-0.129,0.146-0.269,0.219-0.404
		l0.002-0.003l0.001-0.003c0.222-0.715,0.269-1.457,0.27-2.192L91.806,80.34z M82.915,82.13c0.552,0.079,1.105,0.159,1.66,0.227
		l0.858,0.11l0.154,0.013v0.157h-2.673V82.13z M80.372,83.587l-0.119-0.004v-0.491h0.66v-0.756h-0.66v-0.545l0.895,0.111
		c0.133,0.017,0.265,0.035,0.397,0.051v1.673C81.154,83.612,80.763,83.6,80.372,83.587z M87.404,83.647
		c-0.148,0.018-0.297,0.025-0.446,0.037v-1.092c0.068,0.004,0.137,0.011,0.205,0.011l0.372,0.004
		c0.035,0.009,0.053,0.037,0.095,0.037c0.029,0,0.068-0.005,0.117-0.015c0.039-0.013,0.047-0.013,0.07-0.019l0.078,0.001
		c0.069,0.022,0.108,0.145,0.108,0.398v0.54C87.804,83.585,87.604,83.624,87.404,83.647z M89.121,83.267v-0.73
		c0.216-0.038,0.431-0.084,0.639-0.164l0.073-0.029c0.04,0.121,0.082,0.252,0.125,0.397l0.037,0.124
		C89.715,83.023,89.424,83.16,89.121,83.267z M92.346,81.956c0.027,0.079,0.015,0.172-0.077,0.204l-0.172,0.059
		c-0.02,0.007-0.032,0.014-0.04,0.022c-0.126-0.362-0.336-0.552-0.576-0.623c0.172-0.302,0.326-0.615,0.443-0.943l0.105,0.298
		C92.12,81.237,92.314,81.82,92.346,81.956z M92.967,74.098c-0.062,0.24-0.136,0.477-0.188,0.718l-0.16,0.725
		c-0.094,0.486-0.16,0.979-0.221,1.467c-0.084,0.667-0.174,1.331-0.289,1.989c-0.222-0.655-0.438-1.321-0.503-1.578
		c-0.021-0.081-0.036-0.106-0.089-0.087c-0.04,0.014-0.096,0.063-0.175,0.134c-0.005,0.004-0.024,0.019-0.033,0.026
		c-0.005-0.761,0-1.521,0.06-2.279c0.038-0.484,0.094-0.967,0.17-1.447c0.563-0.114,1.12-0.246,1.669-0.405
		C93.127,73.607,93.037,73.849,92.967,74.098z M93.295,73.093c-0.557,0.168-1.128,0.306-1.706,0.427
		c0.072-0.411,0.152-0.822,0.259-1.224c0.142-0.531,0.325-1.048,0.533-1.554c0.278,0.03,0.556,0.058,0.833,0.088
		c0.331,0.034,0.663,0.065,0.993,0.101c-0.066,0.129-0.143,0.253-0.205,0.384C93.731,71.893,93.503,72.49,93.295,73.093z
		 M95.089,72.427l-0.553,0.238c-0.18,0.073-0.381,0.138-0.57,0.208c-0.131,0.047-0.263,0.089-0.395,0.133
		c0.193-0.537,0.404-1.068,0.65-1.583c0.076-0.159,0.168-0.309,0.25-0.465c0.347,0.037,0.693,0.078,1.043,0.106
		c0.069,0.005,0.139,0.005,0.208,0.009c-0.275,0.431-0.293,0.827-0.176,1.125C95.393,72.275,95.243,72.354,95.089,72.427z
		 M96.722,71.094c0.037,0.022,0.068,0.029,0.108,0.058c0.063,0.047,0.117,0.098,0.174,0.148c-0.292,0.202-0.592,0.394-0.899,0.577
		c-0.094-0.106-0.168-0.222-0.201-0.342c-0.039-0.159-0.003-0.289,0.084-0.407c0.015-0.02,0.03-0.025,0.045-0.041
		C96.263,71.096,96.492,71.098,96.722,71.094z M97.329,72.12c-0.116,0.157-0.224,0.208-0.36,0.228
		c-0.155,0.033-0.368-0.055-0.547-0.188c-0.045-0.033-0.09-0.07-0.134-0.108c0.307-0.181,0.606-0.37,0.897-0.569
		C97.373,71.701,97.47,71.93,97.329,72.12z M101.109,68.474c-0.2,0.287-0.409,0.566-0.617,0.846l-0.151,0.204l-0.18,0.194
		l-0.09,0.097L99.974,69.9c-0.066,0.056-0.128,0.114-0.195,0.169c-0.28,0.212-0.591,0.386-0.926,0.522
		c-0.222,0.083-0.461,0.126-0.696,0.179c1.115-0.876,2.125-1.831,3.119-2.739c0.131-0.12,0.262-0.228,0.393-0.346
		C101.482,67.948,101.297,68.213,101.109,68.474z M102.393,66.684c-0.435,0.376-0.867,0.755-1.297,1.151
		c-1.109,1.019-2.221,2.094-3.476,3.039c-0.001,0.001-0.002,0.001-0.003,0.002c-0.021,0.002-0.043,0.001-0.064,0.004
		c-0.064-0.077-0.128-0.156-0.207-0.214c-0.18-0.133-0.328-0.191-0.42-0.207c0-0.07,0.041-0.126,0.066-0.16
		c0.033-0.045,0.1-0.065,0.167-0.085c0.059-0.009,0.145-0.032,0.207-0.116c0.091-0.123,0.054-0.307-0.058-0.391
		c-0.138-0.119-0.332-0.115-0.485,0.092c-0.108,0.146-0.152,0.417-0.146,0.631c-0.099,0.01-0.49,0.052-0.836,0.476
		c-0.107-0.006-0.214-0.004-0.322-0.012c-0.321-0.024-0.643-0.062-0.965-0.094c0.349-0.651,0.729-1.284,1.162-1.879
		c0.572-0.784,1.214-1.515,1.912-2.183c0.702-0.668,1.458-1.26,2.257-1.8l0.302-0.202l0.076-0.05l0.033-0.022l0.039-0.022
		l0.157-0.088l0.628-0.353l0.629-0.351l0.65-0.308l0.649-0.308c0.215-0.106,0.443-0.181,0.663-0.273
		c0.447-0.17,0.883-0.369,1.342-0.504l0.681-0.222c0.227-0.075,0.453-0.151,0.685-0.206c0.462-0.118,0.92-0.252,1.385-0.357
		l1.399-0.291l1.41-0.226c0.355-0.048,0.711-0.088,1.068-0.13c-0.076,0.018-0.155,0.029-0.23,0.048
		c-1.465,0.371-2.89,0.871-4.211,1.539c-1.308,0.681-2.55,1.484-3.544,2.523C103.216,65.624,102.794,66.148,102.393,66.684z
		 M114.911,60.798c-0.262,0.055-0.529,0.111-0.8,0.168c-0.135,0.029-0.272,0.058-0.409,0.087c-0.136,0.035-0.273,0.07-0.411,0.105
		c-0.276,0.071-0.556,0.143-0.84,0.216c-0.283,0.075-0.565,0.17-0.853,0.257c-1.153,0.344-2.334,0.808-3.533,1.361
		c-1.199,0.555-2.389,1.254-3.573,2.046c-0.398,0.298-0.808,0.599-1.212,0.911c0.193-0.225,0.388-0.448,0.598-0.66
		c0.974-1.009,2.203-1.797,3.496-2.462c1.306-0.652,2.713-1.139,4.163-1.499c0.87-0.215,1.758-0.373,2.654-0.505
		c0.271-0.017,0.542-0.027,0.814-0.04C114.973,60.788,114.944,60.792,114.911,60.798z"/>
</g>
<g>
	<path d="M68.359,57.484c-0.068-0.111-0.165-0.197-0.29-0.258c-0.125-0.06-0.27-0.091-0.433-0.092l-0.851-0.004l-0.012,2.133
		l0.514,0.002l0.004-0.724l0.328,0.002c0.26,0.001,0.464-0.06,0.614-0.183c0.15-0.125,0.226-0.29,0.227-0.498
		C68.462,57.721,68.428,57.596,68.359,57.484z M67.86,58.073c-0.053,0.049-0.129,0.074-0.229,0.073l-0.337-0.002l0.003-0.615
		l0.343,0.002c0.093,0.001,0.166,0.032,0.219,0.092c0.053,0.06,0.08,0.139,0.079,0.239C67.939,57.953,67.912,58.023,67.86,58.073z"
		/>
	<path d="M69.207,58.272c0.045-0.098,0.145-0.146,0.3-0.145l0.163,0.013l0.011-0.458c-0.039-0.012-0.085-0.018-0.138-0.019
		c-0.148,0-0.265,0.076-0.348,0.231l-0.015-0.204l-0.463-0.002l-0.009,1.585l0.494,0.003L69.207,58.272z"/>
	<path d="M69.949,59.105c0.136,0.137,0.317,0.205,0.542,0.206c0.234,0.001,0.42-0.07,0.558-0.215
		c0.138-0.144,0.208-0.339,0.209-0.586v-0.018c0.001-0.253-0.066-0.453-0.202-0.601c-0.136-0.147-0.323-0.222-0.56-0.224
		c-0.155-0.001-0.291,0.032-0.406,0.098c-0.116,0.065-0.205,0.16-0.267,0.284c-0.062,0.123-0.094,0.264-0.095,0.422l0.001,0.083
		C69.741,58.786,69.814,58.97,69.949,59.105z M70.226,58.415c0.015-0.245,0.105-0.367,0.27-0.366
		c0.182,0.001,0.271,0.144,0.27,0.428v0.05c-0.005,0.271-0.096,0.405-0.272,0.404c-0.09,0-0.157-0.035-0.203-0.104
		c-0.045-0.069-0.068-0.176-0.067-0.323L70.226,58.415z"/>
	<path d="M72.004,59.345l0.009-1.639l-0.495-0.002l-0.009,1.636c-0.001,0.136-0.07,0.203-0.207,0.202
		c-0.036,0-0.083-0.005-0.139-0.014l-0.002,0.374c0.073,0.017,0.151,0.025,0.233,0.026c0.19,0.001,0.339-0.049,0.446-0.15
		S72.001,59.532,72.004,59.345z"/>
	<path d="M71.756,57.536c0.081,0,0.147-0.021,0.198-0.066c0.051-0.044,0.077-0.102,0.077-0.172c0-0.07-0.025-0.128-0.076-0.173
		c-0.05-0.045-0.116-0.068-0.197-0.068s-0.147,0.022-0.198,0.066c-0.051,0.044-0.077,0.102-0.077,0.172
		c0,0.07,0.024,0.128,0.075,0.173C71.609,57.513,71.674,57.535,71.756,57.536z"/>
	<path d="M73.049,59.326c0.13,0,0.251-0.024,0.365-0.073c0.112-0.05,0.2-0.117,0.262-0.202l-0.224-0.268
		c-0.088,0.109-0.211,0.163-0.367,0.162c-0.095,0-0.172-0.026-0.231-0.077c-0.059-0.051-0.098-0.122-0.115-0.21l0.981,0.005
		l0.001-0.192c0.001-0.247-0.062-0.439-0.19-0.579c-0.128-0.138-0.304-0.208-0.526-0.21c-0.158-0.001-0.295,0.033-0.411,0.1
		c-0.116,0.067-0.204,0.163-0.264,0.287c-0.061,0.124-0.092,0.267-0.093,0.429v0.041c-0.001,0.232,0.073,0.422,0.222,0.567
		C72.61,59.251,72.806,59.324,73.049,59.326z M73.001,58.062c0.078,0,0.138,0.023,0.18,0.066c0.042,0.044,0.062,0.105,0.059,0.184
		v0.038l-0.498-0.003C72.77,58.157,72.856,58.062,73.001,58.062z"/>
	<path d="M74.806,58.74c0,0.067-0.019,0.12-0.057,0.157c-0.039,0.038-0.092,0.056-0.162,0.056c-0.083,0-0.144-0.032-0.181-0.093
		s-0.056-0.172-0.055-0.332c0-0.091,0.004-0.162,0.011-0.214c0.022-0.163,0.098-0.244,0.226-0.243c0.067,0,0.121,0.022,0.161,0.067
		c0.04,0.044,0.06,0.107,0.059,0.189l0.463,0.003c0.001-0.195-0.059-0.351-0.179-0.465c-0.12-0.115-0.284-0.173-0.49-0.174
		c-0.152-0.001-0.284,0.032-0.396,0.097c-0.112,0.065-0.198,0.159-0.257,0.282c-0.06,0.122-0.09,0.263-0.091,0.423v0.021
		c-0.001,0.256,0.064,0.457,0.196,0.602c0.132,0.146,0.313,0.219,0.544,0.22c0.196,0.001,0.356-0.054,0.482-0.164
		c0.125-0.111,0.188-0.253,0.189-0.427L74.806,58.74z"/>
	<path d="M75.558,58.854c-0.001,0.163,0.039,0.285,0.12,0.365s0.206,0.122,0.376,0.122c0.097,0.001,0.189-0.013,0.278-0.041
		l0.002-0.353c-0.033,0.005-0.074,0.008-0.123,0.008c-0.063,0-0.106-0.012-0.127-0.036c-0.021-0.023-0.032-0.065-0.032-0.125
		l0.004-0.725l0.261,0.001l0.002-0.343l-0.261-0.001l0.002-0.394l-0.494-0.002l-0.002,0.394l-0.202-0.001l-0.002,0.343l0.202,0.001
		L75.558,58.854z"/>
	<rect x="76.843" y="57.958" transform="matrix(0.0055 -1 1 0.0055 18.2096 135.1067)" width="0.381" height="0.88"/>
	<path d="M79.189,58.241c0.099-0.036,0.174-0.094,0.225-0.171s0.077-0.172,0.078-0.282c0.001-0.191-0.07-0.338-0.212-0.439
		c-0.143-0.101-0.351-0.152-0.625-0.154l-0.766-0.004l-0.012,2.133l0.866,0.005c0.26-0.001,0.456-0.053,0.589-0.157
		c0.132-0.104,0.2-0.261,0.201-0.47c0.001-0.115-0.028-0.213-0.087-0.293C79.385,58.327,79.3,58.271,79.189,58.241z M78.4,57.588
		l0.252,0.001c0.115,0.001,0.198,0.021,0.25,0.061c0.052,0.04,0.077,0.105,0.077,0.195c0,0.078-0.025,0.137-0.073,0.177
		c-0.048,0.04-0.128,0.06-0.241,0.061l-0.268-0.001L78.4,57.588z M78.944,58.87c-0.05,0.042-0.121,0.062-0.214,0.062l-0.337-0.001
		l0.002-0.511l0.36,0.002c0.177,0.002,0.265,0.092,0.264,0.27C79.019,58.768,78.994,58.827,78.944,58.87z"/>
	<path d="M81.113,58.28c-0.002-0.172-0.061-0.308-0.178-0.407s-0.276-0.149-0.479-0.15c-0.202-0.001-0.369,0.046-0.499,0.141
		c-0.131,0.095-0.197,0.219-0.198,0.372l0.493,0.002c0.001-0.116,0.06-0.173,0.177-0.173c0.126,0.001,0.189,0.075,0.188,0.22
		l0,0.084l-0.152,0c-0.242-0.001-0.427,0.042-0.554,0.129c-0.127,0.087-0.192,0.216-0.193,0.388c0,0.137,0.051,0.251,0.155,0.341
		c0.104,0.091,0.231,0.137,0.38,0.138c0.163,0.001,0.291-0.055,0.382-0.169c0.013,0.062,0.029,0.11,0.046,0.142l0.494,0.003v-0.025
		c-0.042-0.078-0.064-0.189-0.065-0.334L81.113,58.28z M80.614,58.887c-0.018,0.033-0.047,0.062-0.088,0.089
		c-0.041,0.026-0.091,0.039-0.153,0.039c-0.047,0-0.085-0.014-0.116-0.042c-0.03-0.028-0.045-0.064-0.045-0.109
		c0.001-0.154,0.087-0.231,0.259-0.23l0.144,0L80.614,58.887z"/>
	<path d="M82.001,58.056c0.134,0,0.2,0.064,0.2,0.191l0.495,0.003c0-0.154-0.062-0.279-0.188-0.375
		c-0.126-0.096-0.294-0.144-0.503-0.145c-0.194-0.001-0.352,0.045-0.472,0.139c-0.121,0.093-0.182,0.213-0.182,0.358
		c0,0.082,0.02,0.155,0.062,0.218c0.042,0.064,0.103,0.119,0.182,0.163c0.08,0.045,0.182,0.082,0.304,0.11
		c0.123,0.028,0.207,0.055,0.25,0.081c0.044,0.025,0.066,0.059,0.065,0.101c0,0.044-0.018,0.08-0.051,0.107
		c-0.034,0.027-0.084,0.041-0.152,0.04c-0.073,0-0.133-0.018-0.18-0.051c-0.047-0.034-0.071-0.088-0.072-0.161l-0.461-0.002
		c0,0.093,0.029,0.181,0.088,0.266s0.142,0.151,0.248,0.201c0.106,0.049,0.227,0.074,0.363,0.075c0.204,0.001,0.37-0.043,0.5-0.133
		c0.128-0.09,0.194-0.208,0.194-0.352c0.001-0.212-0.117-0.36-0.355-0.443c-0.071-0.025-0.154-0.046-0.248-0.064
		c-0.095-0.018-0.163-0.041-0.206-0.068c-0.043-0.028-0.064-0.063-0.064-0.107c0-0.043,0.018-0.079,0.053-0.107
		C81.905,58.07,81.949,58.056,82.001,58.056z"/>
	<path d="M83.64,57.74c-0.158,0-0.295,0.033-0.411,0.1c-0.116,0.067-0.204,0.163-0.264,0.287c-0.061,0.124-0.092,0.267-0.093,0.429
		v0.041c-0.001,0.232,0.073,0.422,0.222,0.567c0.15,0.146,0.346,0.22,0.589,0.221c0.13,0,0.251-0.024,0.365-0.073
		c0.112-0.05,0.2-0.117,0.262-0.202l-0.224-0.268c-0.088,0.109-0.211,0.163-0.367,0.162c-0.095,0-0.172-0.026-0.231-0.077
		c-0.059-0.051-0.098-0.121-0.115-0.21l0.981,0.005l0.001-0.192c0.001-0.247-0.062-0.439-0.19-0.579
		C84.038,57.812,83.862,57.741,83.64,57.74z M83.874,58.409l-0.498-0.003c0.028-0.191,0.115-0.286,0.259-0.286
		c0.078,0,0.138,0.023,0.18,0.066c0.042,0.044,0.062,0.105,0.059,0.184V58.409z"/>
	<path d="M85.474,57.114l-0.004,0.803c-0.096-0.112-0.215-0.168-0.356-0.169c-0.194-0.001-0.346,0.07-0.455,0.214
		c-0.109,0.144-0.165,0.341-0.166,0.592c-0.001,0.267,0.053,0.473,0.162,0.618c0.11,0.145,0.259,0.218,0.447,0.219
		c0.156,0.001,0.286-0.065,0.388-0.197l0.024,0.17l0.444,0.002l0.012-2.25L85.474,57.114z M85.465,58.875
		c-0.047,0.091-0.126,0.137-0.235,0.136c-0.164-0.001-0.245-0.142-0.244-0.423l0.002-0.091c0.014-0.246,0.097-0.368,0.25-0.368
		c0.109,0,0.186,0.048,0.23,0.142L85.465,58.875z"/>
	<polygon points="67.27,62.632 66.756,62.629 66.744,64.762 68.154,64.769 68.155,64.374 67.26,64.369 	"/>
	<path d="M69.07,63.16c-0.158,0-0.295,0.033-0.411,0.1c-0.116,0.068-0.204,0.163-0.265,0.287c-0.061,0.124-0.092,0.267-0.092,0.429
		l0,0.041c-0.001,0.232,0.073,0.422,0.223,0.566c0.149,0.146,0.346,0.22,0.589,0.221c0.13,0.001,0.251-0.024,0.365-0.073
		c0.113-0.05,0.2-0.117,0.262-0.201l-0.224-0.268c-0.088,0.109-0.21,0.163-0.367,0.162c-0.095,0-0.172-0.026-0.231-0.077
		c-0.059-0.051-0.097-0.121-0.114-0.21l0.981,0.005l0.001-0.192c0.001-0.247-0.062-0.44-0.19-0.58
		C69.468,63.232,69.293,63.162,69.07,63.16z M69.304,63.83l-0.498-0.002c0.028-0.191,0.115-0.287,0.259-0.286
		c0.078,0,0.138,0.023,0.18,0.066c0.042,0.044,0.062,0.105,0.059,0.184L69.304,63.83z"/>
	<path d="M71.305,63.727c-0.002-0.172-0.061-0.308-0.178-0.407c-0.117-0.1-0.276-0.15-0.478-0.151s-0.369,0.046-0.5,0.141
		c-0.131,0.094-0.197,0.218-0.198,0.372l0.494,0.003c0-0.116,0.06-0.173,0.177-0.173c0.126,0,0.188,0.074,0.188,0.22l0,0.084
		l-0.152-0.001c-0.242-0.001-0.427,0.042-0.554,0.129c-0.127,0.087-0.191,0.217-0.192,0.389c-0.001,0.137,0.051,0.25,0.155,0.341
		c0.104,0.091,0.23,0.137,0.38,0.138c0.163,0.001,0.291-0.056,0.382-0.169c0.014,0.062,0.029,0.11,0.046,0.143l0.494,0.002v-0.025
		c-0.042-0.077-0.064-0.188-0.065-0.333L71.305,63.727z M70.807,64.333c-0.018,0.033-0.047,0.062-0.088,0.089
		c-0.041,0.026-0.092,0.039-0.153,0.039c-0.047,0-0.085-0.014-0.115-0.042c-0.03-0.027-0.045-0.064-0.045-0.109
		c0.001-0.154,0.087-0.231,0.259-0.23l0.144,0.001L70.807,64.333z"/>
	<path d="M72.063,63.41l-0.015-0.204l-0.463-0.002l-0.008,1.584l0.494,0.002l0.005-1.003c0.044-0.097,0.144-0.146,0.299-0.145
		l0.163,0.012l0.011-0.458c-0.039-0.012-0.084-0.018-0.137-0.018C72.263,63.178,72.147,63.255,72.063,63.41z"/>
	<path d="M73.641,63.186c-0.192-0.001-0.344,0.07-0.454,0.213l-0.015-0.187l-0.463-0.002L72.7,64.794l0.494,0.003l0.006-1.119
		c0.047-0.076,0.119-0.114,0.216-0.113c0.085,0,0.144,0.02,0.176,0.058c0.032,0.038,0.048,0.097,0.047,0.177l-0.005,1l0.495,0.002
		l0.005-1.021c-0.002-0.198-0.043-0.347-0.124-0.446C73.928,63.236,73.806,63.187,73.641,63.186z"/>
	<rect x="73.887" y="63.765" transform="matrix(0.0049 -1 1 0.0049 10.299 138.3753)" width="1.584" height="0.495"/>
	<path d="M74.684,62.571c-0.081,0-0.147,0.022-0.198,0.066c-0.051,0.045-0.077,0.102-0.077,0.172s0.025,0.128,0.075,0.173
		c0.05,0.045,0.116,0.068,0.197,0.068s0.147-0.021,0.198-0.066c0.051-0.045,0.077-0.103,0.077-0.173s-0.025-0.128-0.075-0.173
		C74.831,62.595,74.765,62.572,74.684,62.571z"/>
	<path d="M76.157,63.199c-0.192-0.001-0.344,0.07-0.454,0.213l-0.015-0.186l-0.463-0.003l-0.008,1.584l0.494,0.003l0.006-1.119
		c0.047-0.076,0.119-0.114,0.216-0.113c0.085,0,0.144,0.02,0.176,0.058c0.032,0.038,0.048,0.097,0.047,0.177l-0.005,1l0.495,0.002
		l0.005-1.021c-0.002-0.198-0.043-0.347-0.124-0.446C76.445,63.25,76.322,63.2,76.157,63.199z"/>
	<path d="M77.905,63.375c-0.092-0.112-0.221-0.168-0.386-0.169c-0.131,0-0.246,0.032-0.345,0.099
		c-0.099,0.066-0.175,0.161-0.229,0.284c-0.053,0.123-0.081,0.264-0.081,0.424l0,0.018c-0.001,0.248,0.057,0.446,0.176,0.595
		c0.118,0.148,0.274,0.223,0.467,0.224c0.145,0.001,0.265-0.051,0.36-0.155l0,0.05c-0.001,0.225-0.111,0.336-0.33,0.335
		c-0.15,0-0.271-0.056-0.362-0.165l-0.208,0.289c0.057,0.071,0.14,0.128,0.249,0.173c0.109,0.044,0.222,0.067,0.338,0.068
		c0.162,0,0.305-0.026,0.428-0.081c0.123-0.054,0.217-0.133,0.283-0.235c0.065-0.103,0.099-0.224,0.099-0.363l0.008-1.524
		l-0.448-0.002L77.905,63.375z M77.869,64.364c-0.049,0.071-0.127,0.106-0.233,0.105c-0.088,0-0.156-0.038-0.205-0.114
		c-0.048-0.076-0.072-0.179-0.072-0.309c0.001-0.149,0.026-0.263,0.077-0.341c0.05-0.078,0.119-0.117,0.207-0.117
		c0.105,0,0.182,0.037,0.229,0.109L77.869,64.364z"/>
</g>
</svg>
