<?xml version="1.0" encoding="utf-8"?>
<!-- Generator: Adobe Illustrator 25.2.1, SVG Export Plug-In . SVG Version: 6.00 Build 0)  -->
<svg version="1.1" id="Capa_1" xmlns="http://www.w3.org/2000/svg" xmlns:xlink="http://www.w3.org/1999/xlink" x="0px" y="0px"
	 viewBox="0 0 500 500" style="enable-background:new 0 0 500 500;" xml:space="preserve">
<style type="text/css">
	.st0{fill:#B9B0C4;}
	.st1{fill:#5D50A3;}
	.st2{fill:#3B2D91;}
	.st3{fill:#B7E4EF;}
	.st4{fill:#83B8D7;}
	.st5{fill:#B3B3B3;}
	.st6{fill:#EB6853;}
	.st7{fill:#26218B;}
	.st8{fill:#FFFFFF;}
	.st9{fill:#FB8B78;}
</style>
<ellipse class="st0" cx="160.416" cy="356.38" rx="153.957" ry="27.473"/>
<g>
	<g>
		<g>
			<g>
				<path class="st1" d="M267.691,315.027H39.463c-15.588,0-28.342-12.754-28.342-28.342V117.242
					c0-15.588,12.754-28.342,28.342-28.342H267.69c15.588,0,28.342,12.754,28.342,28.342v169.443
					C296.033,302.273,283.279,315.027,267.691,315.027z"/>
			</g>
			<g>
				<path class="st2" d="M267.691,319.388H39.463c-18.032,0-32.702-14.67-32.702-32.702V117.242
					c0-18.032,14.67-32.702,32.702-32.702H267.69c18.032,0,32.703,14.67,32.703,32.702v169.443
					C300.393,304.717,285.723,319.388,267.691,319.388z M39.463,93.261c-13.224,0-23.982,10.758-23.982,23.982v169.443
					c0,13.224,10.758,23.982,23.982,23.982h228.228c13.224,0,23.982-10.758,23.982-23.982V117.242
					c0-13.224-10.758-23.982-23.982-23.982H39.463z"/>
			</g>
		</g>
		<g>
			<g>
				<rect x="11.12" y="117.968" class="st3" width="284.912" height="162.073"/>
			</g>
			<g>
				<path class="st2" d="M300.393,284.401H6.76V113.607h293.633V284.401z M15.481,275.681h276.192V122.328H15.481V275.681z"/>
			</g>
		</g>
		<g>
			<g>
				<path class="st4" d="M164.39,305.474h-21.628c-4.43,0-8.057-3.625-8.057-8.056l0,0c0-4.43,3.626-8.056,8.057-8.056h21.628
					c4.432,0,8.056,3.626,8.056,8.056l0,0C172.447,301.849,168.822,305.474,164.39,305.474z"/>
			</g>
			<g>
				<path class="st2" d="M164.39,309.834h-21.628c-6.847,0-12.417-5.57-12.417-12.417c0-6.846,5.57-12.417,12.417-12.417h21.628
					c6.847,0,12.417,5.57,12.417,12.417C176.807,304.264,171.237,309.834,164.39,309.834z M142.763,293.721
					c-2.038,0-3.696,1.658-3.696,3.696c0,2.038,1.658,3.696,3.696,3.696h21.628c2.038,0,3.696-1.658,3.696-3.696
					c0-2.038-1.658-3.696-3.696-3.696H142.763z"/>
			</g>
		</g>
	</g>
	<g>
		<g>
			<path class="st1" d="M215.823,366.747H91.33c-6.588,0-11.979-5.391-11.979-11.98l0,0c0-6.589,5.391-11.979,11.979-11.979h124.494
				c6.589,0,11.98,5.39,11.98,11.979l0,0C227.804,361.356,222.413,366.747,215.823,366.747z"/>
		</g>
		<g>
			<path class="st2" d="M215.823,371.107H91.33c-9.009,0-16.339-7.33-16.339-16.34c0-9.009,7.33-16.339,16.339-16.339h124.494
				c9.01,0,16.341,7.33,16.341,16.339C232.164,363.777,224.834,371.107,215.823,371.107z M91.33,347.148
				c-4.201,0-7.619,3.418-7.619,7.619c0,4.202,3.418,7.62,7.619,7.62h124.494c4.202,0,7.62-3.418,7.62-7.62
				c0-4.201-3.418-7.619-7.62-7.619H91.33z"/>
		</g>
	</g>
	<g>
		<g>
			<rect x="105.424" y="315.027" class="st1" width="96.305" height="27.76"/>
		</g>
		<g>
			<path class="st2" d="M206.089,347.148H101.064v-36.481h105.026V347.148z M109.784,338.427h87.585v-19.04h-87.585V338.427z"/>
		</g>
	</g>
</g>
<g>
	<g>
		<g>
			<g>
				<path class="st1" d="M256.983,124.381L223.86,83.856c-2.183-2.67,21.829-38.558,25.129-37.56l33.644,40.05
					c2.602,0.787,4.911,2.331,6.631,4.437l49.578,15.628c2.183,2.67-21.829,38.558-25.129,37.56l-50.098-15.154
					C261.012,128.031,258.703,126.486,256.983,124.381z"/>
			</g>
			<g>
				<path class="st2" d="M313.849,146.856c-0.314,0-0.638-0.044-0.967-0.143l-50.098-15.153c-3.158-0.955-5.931-2.81-8.019-5.365
					l-33.123-40.525c-1.43-1.749-0.535-4.183-0.153-5.222c0.484-1.318,1.288-3.026,2.387-5.078c1.973-3.681,4.853-8.39,8.109-13.258
					c3.258-4.869,6.512-9.329,9.163-12.559c1.477-1.8,2.75-3.194,3.784-4.145c0.815-0.75,2.723-2.506,4.886-1.852l0.816,0.247
					l33.671,40.083c2.531,0.915,4.783,2.422,6.593,4.411l49.619,15.641l0.541,0.662c1.43,1.75,0.535,4.184,0.153,5.224
					c-0.485,1.318-1.288,3.027-2.388,5.08c-1.974,3.683-4.855,8.393-8.113,13.263c-3.257,4.868-6.51,9.326-9.16,12.554
					c-1.477,1.799-2.749,3.193-3.782,4.143C317.077,145.497,315.601,146.855,313.849,146.856z M226.715,82.823l32.486,39.745
					c1.365,1.67,3.177,2.882,5.241,3.507l49.135,14.862c1.75-1.462,6.267-6.836,12.374-15.964c5.374-8.032,8.53-13.816,9.676-16.572
					l-48.042-15.144l-0.541-0.662c-1.364-1.669-3.177-2.882-5.242-3.507l-0.816-0.247l-32.609-38.818
					c-2.109,2.11-6.253,7.236-11.629,15.271C230.642,74.422,227.399,80.648,226.715,82.823z"/>
			</g>
		</g>
		<g>
			<g>
				<path class="st1" d="M281.111,85.975l-43.939-53.756c-2.894-3.542,0.55-8.69,4.928-7.366l66.456,20.101
					c3.451,1.044,6.513,3.093,8.795,5.885l43.939,53.756c2.895,3.542-0.55,8.69-4.928,7.366l-66.456-20.102
					C286.456,90.816,283.393,88.767,281.111,85.975z"/>
			</g>
			<g>
				<path class="st2" d="M357.783,115.041c-0.741,0-1.497-0.11-2.249-0.338l-66.456-20.102c-4.011-1.213-7.533-3.569-10.185-6.814
					l-43.939-53.756c-2.134-2.612-2.301-6.111-0.426-8.914c1.875-2.803,5.173-3.983,8.401-3.007l66.457,20.101
					c4.011,1.214,7.532,3.57,10.184,6.814l43.939,53.756c2.134,2.611,2.302,6.11,0.427,8.913
					C362.497,113.846,360.222,115.041,357.783,115.041z M240.698,27.505c-0.776,0-1.23,0.532-1.408,0.799
					c-0.219,0.327-0.647,1.187,0.1,2.102l43.939,53.756c1.928,2.36,4.49,4.073,7.407,4.955l66.456,20.102
					c1.132,0.342,1.763-0.382,1.981-0.71c0.219-0.327,0.647-1.187-0.101-2.102l-43.939-53.757c-1.929-2.36-4.49-4.074-7.407-4.956
					l-66.456-20.101C241.063,27.531,240.873,27.505,240.698,27.505z"/>
			</g>
		</g>
		<g>
			<g>
				<g>
					<path class="st2" d="M295.847,70.034L295.847,70.034c-2.113-2.585,0.401-6.343,3.597-5.376l0,0
						c1.244,0.376,2.349,1.115,3.172,2.122l0,0c2.113,2.585-0.402,6.343-3.597,5.376l0,0
						C297.774,71.779,296.67,71.041,295.847,70.034z"/>
				</g>
			</g>
		</g>
	</g>
	<g>
		<polygon class="st2" points="333.733,137.03 328.004,137.03 328.004,105.333 297.084,70.303 301.379,66.511 333.733,103.166 		"/>
	</g>
	<g>
		<g>
			<g>
				<path class="st2" d="M331.024,155.006L331.024,155.006c-2.747,0.025-4.889,0.21-4.636-2.833l1.285-15.445l6.362-0.059
					l1.573,15.417C335.917,155.125,333.772,154.98,331.024,155.006z"/>
			</g>
		</g>
	</g>
</g>
<g>
	<ellipse class="st0" cx="330.121" cy="438.228" rx="130.777" ry="26.17"/>
	<g>
		<g>
			<g>
				<g>
					<path class="st5" d="M274.762,306.672c0,0-6.681-3.718-12.656,1.428c-9.107,7.845,4.262,34.125,29.911,53.253
						c11.809,8.817,18.959-3.734,22.319-16.233c0,0,4.611-7.422-9.283-6.059c-2.836,0.274-5.9,2.817-5.199,2.334
						C301.877,340.006,284.685,314.958,274.762,306.672z"/>
				</g>
			</g>
			<g>
				<g>
					<path class="st6" d="M303.523,339.348c0,0,1.029-6.061,7.608-8.82c6.581-2.766,2.97,1.17-6.653,12.876L303.523,339.348z"/>
				</g>
				<g>
					<path class="st6" d="M303.523,339.348c0,0,2.696-2.507,7.895-5.758c5.197-3.249,5.656-3.273,9.275-4.995
						c2.504-1.197,1.321,1.182,1.321,1.346c0.007,0.096,0.247-0.285,0.664,0.347c0.262,0.401,0.426,1.598,0.298,2.225
						c-0.079,0.405,0.14,2.025,0.017,2.641c-0.602,2.91-0.611,7.193-10.867,13.112C312.126,348.266,301.315,345.9,303.523,339.348z"
						/>
				</g>
			</g>
		</g>
		<g>
			<g>
				<path class="st7" d="M322.045,337.198c-0.01,0.011-0.02,0.025-0.033,0.038c-0.016,0.018-0.034,0.038-0.049,0.051
					c-0.016,0.016-0.033,0.033-0.048,0.049c-0.017,0.013-0.032,0.027-0.047,0.047c-0.021,0.018-0.044,0.033-0.067,0.051
					c-0.012,0.009-0.023,0.022-0.036,0.031c-0.038,0.031-0.073,0.062-0.11,0.091l-18.516,13.446
					c-0.667,0.487-1.451,0.549-1.745,0.149l-3.992-5.498c-0.018-0.024-0.033-0.049-0.045-0.073
					c-0.002-0.004-0.002-0.007-0.009-0.016c-0.012-0.022-0.018-0.044-0.027-0.071c-0.004-0.007-0.004-0.009-0.01-0.02
					c-0.002-0.024-0.005-0.047-0.012-0.071c-0.003-0.011-0.003-0.02-0.007-0.022c0-0.02,0-0.044,0-0.064
					c-0.004-0.007-0.004-0.018-0.004-0.029c0-0.027,0-0.042,0.004-0.073c0-0.011,0.003-0.025,0.007-0.04
					c0-0.011,0-0.027,0.007-0.044c0.003-0.027,0.005-0.049,0.015-0.08c0.002-0.007,0.002-0.016,0.009-0.018
					c0.091-0.343,0.358-0.708,0.754-0.992l18.509-13.445c0.675-0.489,1.455-0.556,1.752-0.149l3.99,5.496
					c0.214,0.298,0.109,0.763-0.228,1.184c-0.003,0.005-0.01,0.009-0.01,0.011C322.081,337.156,322.062,337.174,322.045,337.198z"/>
			</g>
			<g>
				<g>
					<g>
						<g>
							<path class="st7" d="M321.292,337.061c0.672-0.487,0.977-1.211,0.685-1.613l-3.998-5.503
								c-0.291-0.403-1.07-0.334-1.745,0.154l-18.509,13.439c-0.675,0.492-0.98,1.215-0.688,1.622l3.997,5.496
								c0.293,0.405,1.074,0.338,1.747-0.149L321.292,337.061z"/>
						</g>
					</g>
				</g>
				<g>
					<path class="st8" d="M318.521,334.604c0.512-0.369,0.74-0.919,0.517-1.226l0,0c-0.223-0.305-0.817-0.256-1.323,0.116l0,0
						c-0.508,0.367-0.74,0.919-0.518,1.222l0,0C317.421,335.022,318.013,334.971,318.521,334.604L318.521,334.604z"/>
				</g>
				<g>
					<path class="st7" d="M318.481,334.546c0.457-0.332,0.668-0.823,0.466-1.101l0,0c-0.201-0.274-0.733-0.231-1.191,0.103l0,0
						c-0.457,0.332-0.668,0.83-0.471,1.101l0,0C317.488,334.927,318.022,334.882,318.481,334.546L318.481,334.546z"/>
				</g>
				<g>
					<path class="st8" d="M318.424,334.468c0.383-0.28,0.559-0.694,0.392-0.928l0,0c-0.167-0.236-0.621-0.194-1.003,0.087l0,0
						c-0.387,0.28-0.563,0.694-0.392,0.928l0,0C317.59,334.784,318.039,334.749,318.424,334.468L318.424,334.468z"/>
				</g>
				<g>
					<g>
						
							<rect x="300.122" y="336.845" transform="matrix(0.8092 -0.5876 0.5876 0.8092 -141.091 246.66)" class="st8" width="18.125" height="7.385"/>
					</g>
					<g>
						<polygon class="st7" points="299.681,342.877 299.857,342.748 304.131,348.626 318.619,338.106 318.686,338.2 
							304.022,348.851 						"/>
					</g>
				</g>
				<g>
					<path class="st8" d="M301.777,348.348c0.164-0.12,0.237-0.296,0.17-0.394l-2.057-2.828c-0.07-0.096-0.262-0.085-0.425,0.038
						l0,0c-0.165,0.118-0.238,0.294-0.169,0.396l2.055,2.824C301.425,348.481,301.612,348.468,301.777,348.348L301.777,348.348z"/>
				</g>
				<g>
					<path class="st7" d="M321.929,336.366c-0.14,0.242-0.354,0.494-0.636,0.694l-18.512,13.445
						c-0.673,0.487-1.454,0.554-1.747,0.149l-3.997-5.496c-0.17-0.247-0.135-0.594,0.064-0.941L321.929,336.366z"/>
				</g>
			</g>
		</g>
		<g>
			<g>
				<path class="st6" d="M289.778,350.335c0,0,3.006-5.36,10.13-5.743c7.129-0.389,2.404,2.1-10.599,9.888L289.778,350.335z"/>
			</g>
			<g>
				<path class="st6" d="M289.778,350.335c0,0,3.38-1.453,9.37-2.761c5.986-1.315,6.428-1.181,10.414-1.586
					c2.766-0.285,0.848,1.555,0.794,1.713c-0.031,0.093,0.327-0.187,0.504,0.552c0.114,0.465-0.133,1.644-0.468,2.201
					c-0.209,0.349-0.545,1.947-0.869,2.488c-1.545,2.538-2.998,6.57-14.647,8.691C294.877,361.631,285.495,355.764,289.778,350.335z
					"/>
			</g>
		</g>
		<g>
			<g>
				<path class="st7" d="M235.169,268.062c0,0-4.155,23.772,4.595,31.584l8.848,3.82c0,0-1.276-12.057-1.796-12.266
					C246.295,290.99,235.169,268.062,235.169,268.062z"/>
			</g>
			<g>
				<path class="st7" d="M266.971,265.67c0,0,3.715,6.397,1.39,16.652l-9.05-14.033L266.971,265.67z"/>
			</g>
			<g>
				<path class="st7" d="M414.757,420.037c0,0-1.348,2.029-1.008,2.672c0.343,0.643,4.223,9.572,5.55,10.751
					c1.332,1.186,28.603-10.822,28.603-10.822s12.608-8.126,12.996-10.58c0.379-2.459-0.93-3.38-1.812-3.146
					c-0.907,0.242-37.4,6.139-37.4,6.139L414.757,420.037z"/>
			</g>
			<g>
				<path class="st9" d="M411.217,415.74l15.219,4.492c0,0,0.858,2.875-4.523,5.453c-5.381,2.581-15.451-0.625-15.451-0.625
					L411.217,415.74z"/>
			</g>
			<g>
				<path class="st7" d="M338.886,417.057l-13.592-14.278l6.801-13.352c0,0,68.251,17.76,85.202,25.191
					c0,0,3.098,11.712-6.979,13.236C408.414,428.144,338.886,417.057,338.886,417.057z"/>
			</g>
			<g>
				<path class="st7" d="M353.032,436.642c0,0-2.051,1.317-1.995,2.04c0.048,0.732-0.006,10.453,0.723,12.08
					c0.746,1.62,30.545,1.66,30.545,1.66s14.815-2.35,16.16-4.437c1.339-2.092,0.514-3.462-0.389-3.607
					c-0.922-0.147-36.69-9.496-36.69-9.496L353.032,436.642z"/>
			</g>
			<g>
				<g>
					<path class="st7" d="M243.615,391.619c0,0,57.474-4.072,88.632-1.871c0,0,1.345,16.469-1.353,22.212
						c-2.686,5.743-35.355,3.796-84.408,20.214c0,0-11.738-10.028-12.753-12.006C232.727,418.188,223.178,394.885,243.615,391.619z"
						/>
				</g>
				<g>
					<g>
						<g>
							<g>
								<path class="st9" d="M356.477,429.755l11.195,11.252c0,0-0.628,2.939-6.586,2.617c-5.957-0.327-13.255-7.965-13.255-7.965
									L356.477,429.755z"/>
							</g>
							<g>
								<path class="st7" d="M327.253,393.719l-27.868-28.386l-11.391,3.206c0,0,2.243,17.684,7.004,26.103
									c3.323,5.883,16.675,16.83,52.424,45.151c0,0,18.729-3.035,11.354-10.947C357.462,427.437,327.253,393.719,327.253,393.719z
									"/>
							</g>
							<g>
								<path class="st8" d="M250.846,303.559c0,0-12.005-1.529-23.665,8.677c0,0,3.449,57.576-2.346,99.053
									c0,0,28.199,7.334,48.414-12.108c0,0,24.615-58.125,1.512-92.51C274.762,306.672,271.014,301.877,250.846,303.559z"/>
							</g>
							<g>
								<path class="st6" d="M233.922,307.517c0,0,19.088,1.593,35.415,16.928c0,0-1.351-14.382-10.669-21.567
									C251.634,297.456,233.922,307.517,233.922,307.517z"/>
							</g>
							<g>
								<path class="st6" d="M264.972,284.687c0,0-7.265,12.809-7.81,21.542c0,0-11.85,4.777-17.81-0.937
									c0,0,2.072-11.02,6.982-21.753C248.829,278.094,264.972,284.687,264.972,284.687z"/>
							</g>
							<g>
								<path class="st9" d="M240.357,262.806c0,0,17.338-12.373,26.679-1.066c0,0,1.658,16.95-0.531,26.646
									c-2.178,9.692-3.03,11.674-7.813,13.205c0,0-15.649,0.594-16.93-13.75C240.615,274.93,235.182,265.523,240.357,262.806z"/>
							</g>
						</g>
					</g>
				</g>
				<g>
					<path class="st7" d="M257.956,264.971c0,0-3.621,6.619-13.299,7.209c0,0-1.727,12.249-0.635,18.036c0,0-2.829-0.928-4.49-2.094
						c-1.658-1.161-3.371-7.767-3.371-7.767l-1.752-1.173c0,0-2.288-16.031,6.535-19.048L257.956,264.971z"/>
				</g>
				<g>
					<path class="st9" d="M243.363,286.509c0.745,3.088-0.08,5.945-1.832,6.363c-1.758,0.425-3.781-1.74-4.53-4.839
						c-0.735-3.095,0.084-5.941,1.838-6.364C240.597,281.249,242.617,283.412,243.363,286.509z"/>
				</g>
			</g>
			<g>
				<path class="st7" d="M252.067,267.908c0,0,4.497,5.518,11.901,6.394c0,0-2.725-3.406-2.459-5.002c0,0,4.363,0.743,5.153,4.753
					c0,0,0.719-3.182-0.182-6.826c0,0,2.909,3.002,1.796,5.36c0,0,2.997-4.619-1.078-11.566c0,0-11.696-11.216-26.253-2.394
					c0,0-0.237-1.402-5.68-1.417c0,0,4.245,1.633,3.803,3.729C239.066,260.94,234.543,273.001,252.067,267.908z"/>
			</g>
			<g>
				<path class="st7" d="M269.267,270.745c0,0,1.69,0.523,2.705,2.988c0,0,2.574-16.939-18.496-14.282L269.267,270.745z"/>
			</g>
		</g>
		<g>
			<g>
				<path class="st8" d="M245.331,318.082c0,0-8.454-9.937-15.814-7.096c-11.214,4.321-3.157,42.809,14.554,69.453
					c8.16,12.277,46.577-10.388,53.947-21.03c0,0,7.133-10.691-6.703-8.829c-15.658,2.105-29.999,9.532-29.177,9.314
					C264.51,359.268,251.886,329.222,245.331,318.082z"/>
			</g>
		</g>
		<g>
			<path class="st7" d="M231.057,397.862c0,0,57.262-30.228,66.687-34.105c0,0,17.297,10.809,9.778,20.499
				c-3.889,5.008-49.17,49.868-67.222,48.941c0,0-6.775,0.258-10.599-3.809C228.178,427.773,208.197,413.649,231.057,397.862z"/>
		</g>
	</g>
</g>
</svg>
