<?xml version="1.0" encoding="utf-8"?>
<!-- Generator: Adobe Illustrator 25.2.1, SVG Export Plug-In . SVG Version: 6.00 Build 0)  -->
<svg version="1.1" id="Capa_1" xmlns="http://www.w3.org/2000/svg" xmlns:xlink="http://www.w3.org/1999/xlink" x="0px" y="0px"
	 viewBox="0 0 500 500" style="enable-background:new 0 0 500 500;" xml:space="preserve">
<style type="text/css">
	.st0{fill:#B9B0C4;}
	.st1{fill:#83B8D7;}
	.st2{fill:#3B2D91;}
	.st3{fill:#F8E49A;}
	.st4{fill:#5D50A3;}
	.st5{fill:#FFFFFF;}
	.st6{fill:#B3B3B3;}
	.st7{fill:#EB6853;}
	.st8{fill:#110B78;}
	.st9{fill:#FB8B78;}
	.st10{fill:#32248D;}
	.st11{fill:#F1A23E;}
	.st12{fill:#F1CC5D;}
	.st13{opacity:0.8;}
</style>
<g>
	<ellipse class="st0" cx="260.019" cy="415.253" rx="232.023" ry="41.403"/>
</g>
<g>
	<g>
		<g>
			<g>
				<g>
					<path class="st1" d="M447.45,410.876H282.412c-12.315,0-22.391-10.076-22.391-22.391V196.719
						c0-12.315,10.076-22.391,22.391-22.391H447.45c6.52,0,11.854,5.335,11.854,11.854v212.839
						C459.305,405.541,453.97,410.876,447.45,410.876z"/>
				</g>
			</g>
			<g>
				<g>
					<path class="st2" d="M447.45,415.563H282.411c-14.931,0-27.078-12.147-27.078-27.078V196.719
						c0-14.931,12.147-27.078,27.078-27.078H447.45c9.121,0,16.541,7.42,16.541,16.541v212.839
						C463.992,408.142,456.571,415.563,447.45,415.563z M282.411,179.015c-9.762,0-17.704,7.942-17.704,17.704v191.765
						c0,9.762,7.942,17.705,17.704,17.705H447.45c3.952,0,7.167-3.215,7.167-7.168V186.182c0-3.952-3.215-7.167-7.167-7.167H282.411
						z"/>
				</g>
			</g>
		</g>
		<g>
			<g>
				<g>
					<g>
						<path class="st1" d="M72.589,410.876h165.04c12.315,0,22.391-10.076,22.391-22.391V196.719
							c0-12.315-10.076-22.392-22.392-22.392H72.589c-6.52,0-11.854,5.335-11.854,11.854v212.839
							C60.734,405.541,66.069,410.876,72.589,410.876z"/>
					</g>
				</g>
				<g>
					<g>
						<path class="st2" d="M237.629,415.563H72.589c-9.121,0-16.541-7.42-16.541-16.542V186.182c0-9.121,7.42-16.541,16.541-16.541
							h165.04c14.931,0,27.079,12.147,27.079,27.079v191.765C264.707,403.416,252.56,415.563,237.629,415.563z M72.589,179.015
							c-3.952,0-7.168,3.215-7.168,7.167v212.839c0,3.952,3.215,7.168,7.168,7.168h165.04c9.762,0,17.705-7.942,17.705-17.705
							V196.72c0-9.762-7.942-17.705-17.705-17.705H72.589z"/>
					</g>
				</g>
			</g>
			<g>
				<g>
					<g>
						<path class="st3" d="M447.45,174.328H290.128h-60.215H72.589c-6.519,0-11.854,5.335-11.854,11.855v212.839
							c0,6.519,5.335,11.854,11.854,11.854h157.669c2.201,12.984,14.639,15.314,29.766,16.006
							c15.127-0.702,27.558-3.024,29.757-16.006H447.45c6.521,0,11.854-5.335,11.854-11.854V186.183
							C459.305,179.663,453.971,174.328,447.45,174.328z"/>
					</g>
				</g>
				<g>
					<g>
						<path class="st2" d="M260.026,431.574l-0.216-0.01c-7.014-0.321-15.04-1.021-21.384-3.777
							c-5.898-2.562-9.851-6.664-11.795-12.224H72.589c-9.121,0-16.541-7.42-16.541-16.542V186.183
							c0-9.121,7.42-16.542,16.541-16.542H447.45c9.121,0,16.541,7.42,16.541,16.542v212.838c0,9.121-7.42,16.542-16.541,16.542
							H293.408c-1.942,5.558-5.894,9.659-11.79,12.22c-6.334,2.751-14.361,3.455-21.377,3.781L260.026,431.574z M72.589,179.015
							c-3.952,0-7.168,3.215-7.168,7.168v212.838c0,3.952,3.215,7.168,7.168,7.168h161.628l0.662,3.903
							c1.375,8.112,7.962,11.287,25.144,12.098c17.181-0.821,23.766-3.996,25.137-12.096l0.661-3.905H447.45
							c3.952,0,7.167-3.215,7.167-7.168V186.183c0-3.952-3.215-7.168-7.167-7.168H72.589z"/>
					</g>
				</g>
			</g>
		</g>
	</g>
	<g>
		<g>
			<g>
				<g>
					<g>
						<g>
							<path class="st4" d="M422.574,388.611H279.962c-10.968,0-19.942-8.974-19.942-19.942V173.987
								c0-10.969,8.974-19.943,19.943-19.943h142.61c5.807,0,10.558,4.751,10.558,10.558v213.452
								C433.131,383.86,428.38,388.611,422.574,388.611z"/>
						</g>
					</g>
					<g>
						<g>
							<path class="st2" d="M422.574,393.298H279.962c-13.58,0-24.629-11.049-24.629-24.629V173.987
								c0-13.581,11.049-24.63,24.63-24.63h142.609c8.406,0,15.245,6.839,15.245,15.245v213.451
								C437.818,386.459,430.979,393.298,422.574,393.298z M279.963,158.73c-8.412,0-15.256,6.844-15.256,15.256v194.682
								c0,8.412,6.843,15.255,15.255,15.255h142.612c3.237,0,5.87-2.633,5.87-5.87V164.602c0-3.238-2.634-5.872-5.871-5.872H279.963
								z"/>
						</g>
					</g>
				</g>
				<g>
					<g>
						<g>
							<path class="st5" d="M422.574,388.611H279.962c-10.968,0-19.942-8.974-19.942-19.942V173.987
								c0-10.969,8.974-19.943,19.943-19.943h142.61c5.807,0,10.558,4.751,10.558,10.558v213.452
								C433.131,383.86,428.38,388.611,422.574,388.611z"/>
						</g>
					</g>
					<g>
						<g>
							<path class="st2" d="M422.574,393.298H279.962c-13.58,0-24.629-11.049-24.629-24.629V173.987
								c0-13.581,11.049-24.63,24.63-24.63h142.609c8.406,0,15.245,6.839,15.245,15.245v213.451
								C437.818,386.459,430.979,393.298,422.574,393.298z M279.963,158.73c-8.412,0-15.256,6.844-15.256,15.256v194.682
								c0,8.412,6.843,15.255,15.255,15.255h142.612c3.237,0,5.87-2.633,5.87-5.87V164.602c0-3.238-2.634-5.872-5.871-5.872H279.963
								z"/>
						</g>
					</g>
				</g>
			</g>
		</g>
		<g>
			<g>
				<g>
					<g>
						<g>
							<path class="st4" d="M97.465,388.611h142.612c10.969,0,19.943-8.974,19.943-19.943V173.987
								c0-10.969-8.974-19.943-19.943-19.943H97.466c-5.807,0-10.558,4.751-10.558,10.558v213.452
								C86.908,383.86,91.658,388.611,97.465,388.611z"/>
						</g>
					</g>
					<g>
						<g>
							<path class="st2" d="M240.077,393.298H97.465c-8.406,0-15.244-6.839-15.244-15.244V164.602
								c0-8.406,6.839-15.245,15.245-15.245h142.611c13.581,0,24.63,11.049,24.63,24.63v194.681
								C264.707,382.249,253.658,393.298,240.077,393.298z M97.466,158.73c-3.238,0-5.871,2.634-5.871,5.872v213.451
								c0,3.237,2.633,5.87,5.87,5.87h142.612c8.412,0,15.256-6.844,15.256-15.256V173.987c0-8.412-6.844-15.256-15.256-15.256
								H97.466z"/>
						</g>
					</g>
				</g>
				<g>
					<g>
						<g>
							<path class="st5" d="M97.465,388.611h142.612c10.969,0,19.943-8.974,19.943-19.943V173.987
								c0-10.969-8.974-19.943-19.943-19.943H97.466c-5.807,0-10.558,4.751-10.558,10.558v213.452
								C86.908,383.86,91.658,388.611,97.465,388.611z"/>
						</g>
					</g>
					<g>
						<g>
							<path class="st2" d="M240.077,393.298H97.465c-8.406,0-15.244-6.839-15.244-15.244V164.602
								c0-8.406,6.839-15.245,15.245-15.245h142.611c13.581,0,24.63,11.049,24.63,24.63v194.681
								C264.707,382.249,253.658,393.298,240.077,393.298z M97.466,158.73c-3.238,0-5.871,2.634-5.871,5.872v213.451
								c0,3.237,2.633,5.87,5.87,5.87h142.612c8.412,0,15.256-6.844,15.256-15.256V173.987c0-8.412-6.844-15.256-15.256-15.256
								H97.466z"/>
						</g>
					</g>
				</g>
			</g>
		</g>
	</g>
	<g>
		<g>
			<path class="st2" d="M231.144,211.192h-115.36c-2.589,0-4.687-2.099-4.687-4.687c0-2.588,2.098-4.687,4.687-4.687h115.36
				c2.589,0,4.687,2.099,4.687,4.687C235.831,209.093,233.733,211.192,231.144,211.192z"/>
		</g>
		<g>
			<path class="st2" d="M231.144,254.407h-115.36c-2.589,0-4.687-2.099-4.687-4.687c0-2.588,2.098-4.687,4.687-4.687h115.36
				c2.589,0,4.687,2.099,4.687,4.687C235.831,252.309,233.733,254.407,231.144,254.407z"/>
		</g>
		<g>
			<path class="st2" d="M231.144,297.622h-115.36c-2.589,0-4.687-2.099-4.687-4.687c0-2.588,2.098-4.687,4.687-4.687h115.36
				c2.589,0,4.687,2.099,4.687,4.687C235.831,295.524,233.733,297.622,231.144,297.622z"/>
		</g>
		<g>
			<path class="st2" d="M231.144,340.838h-115.36c-2.589,0-4.687-2.099-4.687-4.687c0-2.588,2.098-4.687,4.687-4.687h115.36
				c2.589,0,4.687,2.099,4.687,4.687C235.831,338.739,233.733,340.838,231.144,340.838z"/>
		</g>
	</g>
	<g>
		<g>
			<path class="st2" d="M404.256,211.192H288.895c-2.588,0-4.687-2.099-4.687-4.687c0-2.588,2.099-4.687,4.687-4.687h115.362
				c2.588,0,4.687,2.099,4.687,4.687C408.943,209.093,406.845,211.192,404.256,211.192z"/>
		</g>
		<g>
			<path class="st2" d="M404.256,254.407H288.895c-2.588,0-4.687-2.099-4.687-4.687c0-2.588,2.099-4.687,4.687-4.687h115.362
				c2.588,0,4.687,2.099,4.687,4.687C408.943,252.309,406.845,254.407,404.256,254.407z"/>
		</g>
		<g>
			<path class="st2" d="M404.256,297.622H288.895c-2.588,0-4.687-2.099-4.687-4.687c0-2.588,2.099-4.687,4.687-4.687h115.362
				c2.588,0,4.687,2.099,4.687,4.687C408.943,295.524,406.845,297.622,404.256,297.622z"/>
		</g>
		<g>
			<path class="st2" d="M404.256,340.838H288.895c-2.588,0-4.687-2.099-4.687-4.687c0-2.588,2.099-4.687,4.687-4.687h115.362
				c2.588,0,4.687,2.099,4.687,4.687C408.943,338.739,406.845,340.838,404.256,340.838z"/>
		</g>
	</g>
</g>
<g>
	<g>
		<g>
			<g>
				<g>
					<path class="st4" d="M109.719,193.298l-60.684-0.255c-3.998-0.017-18.396-47.966-15.069-50.182l60.642-0.561
						c2.624-1.747,5.707-2.673,8.859-2.66l50.547-32.827c3.998,0.017,18.396,47.966,15.069,50.183l-50.505,33.643
						C115.954,192.384,112.87,193.31,109.719,193.298z"/>
				</g>
			</g>
			<g>
				<g>
					<path class="st2" d="M109.784,196.199c-0.026,0-0.052,0-0.077,0h0l-60.684-0.255c-2.509-0.011-4.321-2.367-7.181-9.337
						c-1.834-4.469-3.918-10.506-5.867-16.998c-1.949-6.492-3.536-12.677-4.467-17.416c-1.452-7.392-1.238-10.356,0.85-11.747
						l0.718-0.479l60.681-0.561c2.681-1.608,5.7-2.515,8.824-2.65l50.579-32.849l0.866,0.004c2.508,0.011,4.32,2.367,7.181,9.336
						c1.834,4.469,3.918,10.505,5.867,16.997c1.949,6.492,3.536,12.678,4.467,17.417c1.452,7.392,1.238,10.357-0.85,11.747
						l-50.505,33.643C117.093,195.111,113.498,196.199,109.784,196.199z M109.731,190.396c2.584,0.019,5.088-0.741,7.239-2.174
						l49.72-33.12c0.062-2.474-1.388-10.586-5.173-23.19c-3.378-11.25-6.337-18.488-7.94-21.358l-49.256,31.989l-0.866-0.003
						c-2.586-0.007-5.088,0.741-7.239,2.174l-0.718,0.478l-59.106,0.547c0.242,3.276,1.76,10.948,5.14,22.203
						c3.785,12.604,7.043,20.173,8.458,22.204L109.731,190.396z"/>
				</g>
			</g>
		</g>
		<g>
			<g>
				<g>
					<path class="st4" d="M93.155,143.386l-80.498-0.338c-5.304-0.022-7.369-6.901-2.955-9.841L76.697,88.58
						c3.479-2.318,7.571-3.546,11.751-3.529l80.499,0.338c5.303,0.022,7.368,6.901,2.955,9.841l-66.997,44.628
						C101.426,142.175,97.335,143.403,93.155,143.386z"/>
				</g>
			</g>
			<g>
				<g>
					<path class="st2" d="M93.245,146.287c-0.034,0-0.068,0-0.103,0l-80.498-0.338c-3.721-0.015-6.818-2.328-7.888-5.893
						c-1.07-3.564,0.239-7.2,3.337-9.264l66.996-44.628c3.974-2.647,8.602-4.034,13.372-4.015l80.499,0.338
						c3.721,0.016,6.817,2.329,7.887,5.893c1.07,3.564-0.239,7.2-3.336,9.263l-66.997,44.628
						C102.569,144.9,97.983,146.287,93.245,146.287z M88.358,87.952c-3.59,0-7.064,1.051-10.053,3.042L11.31,135.622
						c-1.413,0.941-1.12,2.355-0.997,2.766c0.123,0.411,0.658,1.752,2.355,1.759l80.498,0.338c3.621,0.014,7.12-1.037,10.131-3.042
						l66.997-44.628c1.412-0.941,1.119-2.355,0.996-2.765c-0.123-0.411-0.658-1.752-2.355-1.76l-80.499-0.338
						C88.41,87.952,88.384,87.952,88.358,87.952z"/>
				</g>
			</g>
		</g>
		<g>
			<g>
				<g>
					<g>
						<path class="st2" d="M89.761,118.446L89.761,118.446c-3.871-0.016-5.378-5.037-2.157-7.182l0,0
							c1.255-0.836,2.73-1.28,4.238-1.273l0,0c3.871,0.016,5.378,5.037,2.157,7.182l0,0
							C92.744,118.009,91.269,118.452,89.761,118.446z"/>
					</g>
				</g>
			</g>
		</g>
	</g>
	<g>
		<g>
			<polygon class="st2" points="151.844,142.743 144.032,115.326 90.9,117.118 90.704,111.319 148.369,109.374 157.424,141.153 			
				"/>
		</g>
	</g>
	<g>
		<g>
			<g>
				<g>
					<path class="st2" d="M159.297,157.53L159.297,157.53c-2.674,0.803-4.719,1.571-5.228-1.117l-2.58-13.641l6.194-1.86
						l5.362,12.806C164.101,156.241,161.972,156.727,159.297,157.53z"/>
				</g>
			</g>
		</g>
	</g>
</g>
<g>
	<g>
		<g>
			<g>
				<path class="st6" d="M383.908,69.362c0,0-0.165-9.069,6.376-8.685c9.968,0.586,26.618,20.37,19.333,45.932
					c-3.353,11.778-39.484,3.55-48.006-3.009c0,0-8.349-6.657,3.072-8.68c12.925-2.291,26.149-0.042,25.447-0.004
					C388.094,95.02,381.538,79.837,383.908,69.362z"/>
			</g>
			<g>
				<g>
					<path class="st7" d="M363.67,94.681c0,0-3.734-3.484-9.473-1.986c-5.736,1.497-1.366,2.271,10.889,5.147L363.67,94.681z"/>
				</g>
				<g>
					<path class="st7" d="M363.67,94.681c0,0-3.044-0.294-8.114,0.181c-5.07,0.474-5.387,0.691-8.646,1.377
						c-2.256,0.477-0.277,1.447-0.193,1.559c0.049,0.066-0.304-0.068-0.258,0.564c0.027,0.396,0.52,1.269,0.926,1.62
						c0.254,0.224,0.922,1.405,1.317,1.75c1.867,1.618,4.034,4.442,13.786,3.179C362.488,104.91,368.433,97.892,363.67,94.681z"/>
				</g>
			</g>
		</g>
		<g>
			<g>
				<path class="st8" d="M411.348,122.697c0,0-56.923,6.447-83.478,11.434c0,0,1.996,13.009,8.255,14.476
					c6.254,1.469,73.525,14.579,79.578,5.793C421.75,145.61,411.348,122.697,411.348,122.697z"/>
			</g>
			<g>
				<g>
					<path class="st8" d="M340.87,204.692c0,0,1.604-0.226,1.888,0.159c0.289,0.385,4.535,5.243,4.865,6.374
						c0.332,1.135-14.6,14.061-14.6,14.061s-8.439,5.241-10.02,4.771c-1.586-0.467-1.763-1.511-1.366-1.974
						c0.395-0.467,14.281-20.653,14.281-20.653L340.87,204.692z"/>
				</g>
				<g>
					<path class="st9" d="M343.009,198.206c0,0-0.307,9.797-0.391,10.044c-0.513,1.48-4.596,1.568-5.788,0.353l-1.362-9.934
						L343.009,198.206z"/>
				</g>
				<g>
					<path class="st8" d="M347.584,133.224c0,0-0.323,8.715,0.237,10.829c0.558,2.108-2.499,45.56-3.628,60.027
						c0,0-6.752,2.144-8.748-0.681c-3.065-4.347-7.539-69.267-7.539-69.267L347.584,133.224z"/>
				</g>
			</g>
		</g>
		<g>
			<g>
				<path class="st10" d="M415.209,125.191c0,0-59.634,14.311-85.4,22.447c0,0,3.537,12.678,9.928,13.39
					c6.384,0.704,68.807,4.818,75.726-3.298c2.217-2.6,5.029-9.275,7.234-24.377C423.69,126.56,415.209,125.191,415.209,125.191z"/>
			</g>
			<g>
				<g>
					<path class="st8" d="M352.636,224.687c0,0,1.792-0.353,2.135,0.068c0.345,0.421,5.401,5.639,5.839,6.892
						c0.438,1.264-15.638,16.665-15.638,16.665s-9.207,6.376-11.014,5.943c-1.806-0.429-2.068-1.598-1.651-2.148
						c0.421-0.55,14.91-24.065,14.91-24.065L352.636,224.687z"/>
				</g>
				<g>
					<path class="st9" d="M355.81,218.008c0,0,0.977,11.006,0.915,11.294c-0.374,1.719-4.932,2.364-6.429,1.176l-2.865-10.942
						L355.81,218.008z"/>
				</g>
				<g>
					<path class="st10" d="M351.516,144.379c0,0,0.806,9.695,1.706,11.962c0.899,2.262,3.317,50.778,4,66.953
						c0,0-7.19,3.272-9.775,0.41c-3.979-4.412-17.602-75.693-17.602-75.693L351.516,144.379z"/>
				</g>
			</g>
		</g>
		<g>
			<path class="st5" d="M395.831,58.273c0,0,16.762-0.943,19.439,5.926c0,0,6.966,7.093,9.074,28.244
				c1.512,15.155-0.205,30.22-1.714,40.461c0,0-24.733,5.786-34.17-4.936c0,0-16.87-40.387-9.332-57.455
				C379.128,70.515,387.035,58.242,395.831,58.273z"/>
		</g>
		<g>
			<path class="st7" d="M404.97,45.005c0,0-0.953,9.945-0.953,13.96c0,1.298-7.625,3.755-10.737,1.343
				c-0.672-0.521-0.609-11.58-0.609-11.58L404.97,45.005z"/>
		</g>
		<g>
			<path class="st9" d="M397.679,22.049c0,0-13.268-1.02-18.039,8.949c0,0,2.831,13.415,7.234,21.235
				c2.165,3.846,3.837,5.393,8.061,4.589c0,0,15.027-3.185,13.346-13.907C406.765,33.264,401.952,23.092,397.679,22.049z"/>
		</g>
		<g>
			<path class="st10" d="M404.911,40.816c0,0-5.522-11.091-14.357-10.62c-8.833,0.472-9.968,3.884-11.204,3.534
				c-2.97-0.851-2.693-4.625-2.693-4.625s0.08-4.342,5.818-7.809c1.784-1.076,18.386-8.15,26.999,2.701
				c6.771,8.522,1.125,23.542,0.277,25.786C408.904,52.028,404.911,40.816,404.911,40.816z"/>
		</g>
		<g>
			<path class="st9" d="M401.596,37.435c0.493,2.735,2.15,4.728,3.7,4.447c1.552-0.278,2.41-2.723,1.916-5.457
				c-0.49-2.734-2.148-4.725-3.696-4.445c-1.101,0.196-1.852,1.482-2.021,3.19C401.427,35.87,401.453,36.64,401.596,37.435z"/>
		</g>
		<g>
			<g>
				<g>
					<path class="st9" d="M401.471,144.771c0,0-4.446,1.495-6.611,6.699c-2.167,5.201,1.92,0.937,11.069-6.497L401.471,144.771z"/>
				</g>
				<g>
					<path class="st9" d="M401.75,145.584c0,0-1.958,2.102-4.503,6.184c-2.543,4.084-2.563,4.452-3.915,7.304
						c-0.936,1.973,0.917,1.082,1.049,1.087c0.076,0.004-0.224,0.192,0.273,0.541c0.307,0.216,1.241,0.376,1.734,0.288
						c0.315-0.057,1.4-0.269,1.877-0.36c2.275-0.414,6.541-1.135,11.175-9.2C409.44,151.428,406.867,143.963,401.75,145.584z"/>
				</g>
			</g>
			<g>
				<path class="st5" d="M404.04,70.99c0,0,4.505-13.823,9.298-8.402c19.718,22.295,23.898,73.501-4.63,90.364
					c0,0-4.615-0.563-6.727-6.201c-2.133-5.674,8.15-24.631,8.15-24.631C405.27,110.522,401.799,87.777,404.04,70.99z"/>
			</g>
		</g>
	</g>
	<g>
		<g>
			<g>
				<path class="st11" d="M331.096,134.214c0,0-0.956-1.741,0-1.828c0.956-0.083,64.947,0,64.947,0s-0.607,1.915-1.304,1.828
					C394.045,134.127,331.096,134.214,331.096,134.214z"/>
			</g>
		</g>
		<g>
			<g>
				<polygon class="st12" points="374.044,132.994 331.267,132.994 318.397,103.956 365.177,103.956 				"/>
			</g>
		</g>
		<g>
			<g>
				<path class="st11" d="M319.676,104.258c4.186,5.863,8.365,9.856,13.693,14.069c-0.099-0.08-0.197-0.151-0.304-0.23
					c-0.6-0.461-1.195-0.928-1.795-1.389c0.596,0.466,1.195,0.928,1.795,1.389c0.192,0.143,0.378,0.29,0.566,0.433
					c0.712,0.563,1.446,1.13,2.201,1.701c-0.736-0.566-1.467-1.131-2.201-1.701c-0.085-0.067-0.175-0.134-0.262-0.203
					c8.293,6.334,16.805,11.974,27.343,14.045c1.11,0.219,2.218,0.426,3.326,0.622h-32.772l-12.87-29.038h1.076
					C319.54,104.056,319.602,104.163,319.676,104.258z"/>
			</g>
		</g>
		<g class="st13">
			<g>
				<path class="st5" d="M343.873,119.988c0.714,0.829,1.89,0.988,2.63,0.354c0.742-0.633,0.768-1.821,0.059-2.65
					c-0.71-0.829-1.884-0.986-2.63-0.354C343.191,117.973,343.165,119.159,343.873,119.988z"/>
			</g>
		</g>
	</g>
</g>
</svg>
