<?xml version="1.0" encoding="utf-8"?>
<!-- Generator: Adobe Illustrator 25.2.1, SVG Export Plug-In . SVG Version: 6.00 Build 0)  -->
<svg version="1.1" id="Capa_1" xmlns="http://www.w3.org/2000/svg" xmlns:xlink="http://www.w3.org/1999/xlink" x="0px" y="0px"
	 viewBox="0 0 500 500" style="enable-background:new 0 0 500 500;" xml:space="preserve">
<style type="text/css">
	.st0{fill:#B9B0C4;}
	.st1{fill:#5D50A3;}
	.st2{fill:#3B2D91;}
	.st3{fill:#B6E1A0;}
	.st4{fill:#83B8D7;}
	.st5{fill:#F8E49A;}
	.st6{fill:#FFFFFF;}
	.st7{fill:#EB6853;}
	.st8{fill:#B3B3B3;}
	.st9{fill:#32248D;}
	.st10{fill:#110B78;}
	.st11{fill:#FB8B78;}
	.st12{opacity:0.5;}
	.st13{opacity:0.2;}
	.st14{fill:#26218B;}
	.st15{fill:#1D554D;}
	.st16{fill:#349980;}
</style>
<g>
	<g>
		<path class="st0" d="M361.988,417.409c-41.62,0-78.678,4.911-102.517,12.554c-23.62-5.32-60.925-8.755-102.912-8.755
			c-71.409,0-129.297,9.932-129.297,22.184c0,12.252,57.888,22.184,129.297,22.184c31.089,0,59.612-1.883,81.913-5.02
			c17.281,12.99,66.049,22.353,123.515,22.353c71.918,0,130.22-14.663,130.22-32.75
			C492.207,432.072,433.906,417.409,361.988,417.409z"/>
	</g>
	<g>
		<g>
			<g>
				<g>
					<g>
						<g>
							<path class="st1" d="M280.515,390.269H32.603c-12.303,0-22.369-10.066-22.369-22.369V180.37
								c0-12.303,10.066-22.369,22.369-22.369h247.912c12.303,0,22.369,10.066,22.369,22.369V367.9
								C302.884,380.203,292.818,390.269,280.515,390.269z"/>
						</g>
					</g>
					<g>
						<g>
							<path class="st2" d="M280.515,393.711H32.603c-14.232,0-25.811-11.578-25.811-25.81V180.37
								c0-14.232,11.578-25.81,25.81-25.81h247.912c14.232,0,25.81,11.578,25.81,25.81V367.9
								C306.326,382.132,294.747,393.711,280.515,393.711z M32.603,161.442c-10.437,0-18.928,8.491-18.928,18.928V367.9
								c0,10.437,8.491,18.928,18.928,18.928h247.912c10.437,0,18.928-8.491,18.928-18.928V180.37
								c0-10.437-8.491-18.928-18.928-18.928H32.603z"/>
						</g>
					</g>
				</g>
				<g>
					<g>
						<g>
							<rect x="10.234" y="187.859" class="st3" width="292.65" height="166.474"/>
						</g>
					</g>
					<g>
						<g>
							<path class="st2" d="M306.326,357.774H6.793V184.418h299.533V357.774z M13.675,350.892h285.768V191.3H13.675V350.892z"/>
						</g>
					</g>
				</g>
				<g>
					<g>
						<g>
							<path class="st4" d="M168.931,380.456h-24.742c-3.857,0-7.012-3.155-7.012-7.012v-2.526c0-3.857,3.156-7.012,7.012-7.012
								h24.742c3.856,0,7.011,3.155,7.011,7.011v2.528C175.942,377.301,172.787,380.456,168.931,380.456z"/>
						</g>
					</g>
					<g>
						<g>
							<path class="st2" d="M168.931,383.898h-24.742c-5.764,0-10.453-4.689-10.453-10.453v-2.526
								c0-5.764,4.689-10.453,10.454-10.453h24.742c5.763,0,10.452,4.689,10.452,10.452v2.528
								C179.383,379.209,174.694,383.898,168.931,383.898z M144.189,367.347c-1.969,0-3.571,1.602-3.571,3.571v2.526
								c0,1.969,1.602,3.571,3.571,3.571h24.742c1.968,0,3.57-1.601,3.57-3.57v-2.528c0-1.968-1.601-3.57-3.57-3.57H144.189z"/>
						</g>
					</g>
				</g>
			</g>
			<g>
				<g>
					<g>
						<path class="st1" d="M222.375,443.393H90.743c-5.734,0-10.426-4.692-10.426-10.426v-3.757c0-5.734,4.692-10.426,10.426-10.426
							h131.632c5.735,0,10.427,4.692,10.427,10.427v3.755C232.802,438.701,228.11,443.393,222.375,443.393z"/>
					</g>
				</g>
				<g>
					<g>
						<path class="st2" d="M222.375,446.834H90.743c-7.646,0-13.867-6.221-13.867-13.867v-3.758c0-7.646,6.221-13.867,13.867-13.867
							h131.632c7.647,0,13.868,6.221,13.868,13.868v3.755C236.243,440.613,230.022,446.834,222.375,446.834z M90.743,422.225
							c-3.851,0-6.984,3.133-6.984,6.984v3.758c0,3.851,3.133,6.984,6.984,6.984h131.632c3.852,0,6.986-3.134,6.986-6.985v-3.755
							c0-3.852-3.134-6.986-6.986-6.986H90.743z"/>
					</g>
				</g>
			</g>
			<g>
				<g>
					<g>
						<rect x="107.098" y="390.269" class="st1" width="98.922" height="28.514"/>
					</g>
				</g>
				<g>
					<g>
						<path class="st2" d="M209.462,422.225H103.657v-35.397h105.804V422.225z M110.54,415.342h92.039v-21.632H110.54V415.342z"/>
					</g>
				</g>
			</g>
		</g>
		<g>
			<g>
				<g>
					<g>
						<g>
							<path class="st4" d="M255.685,336.248H173c-9.042,0-16.441-7.398-16.441-16.441v-95.11c0-9.042,7.398-16.441,16.441-16.441
								h82.685c4.787,0,8.704,3.917,8.704,8.704v110.584C264.389,332.332,260.473,336.248,255.685,336.248z"/>
						</g>
					</g>
					<g>
						<g>
							<path class="st2" d="M255.685,339.69H173c-10.963,0-19.882-8.919-19.882-19.882v-95.11c0-10.963,8.919-19.882,19.882-19.882
								h82.685c6.697,0,12.145,5.448,12.145,12.145v110.583C267.831,334.241,262.382,339.69,255.685,339.69z M173,211.698
								c-7.168,0-13,5.832-13,13v95.11c0,7.168,5.832,13,13,13h82.685c2.902,0,5.263-2.361,5.263-5.263V216.961
								c0-2.902-2.361-5.263-5.263-5.263H173z"/>
						</g>
					</g>
				</g>
				<g>
					<g>
						<g>
							<g>
								<path class="st4" d="M57.433,336.248h82.685c9.042,0,16.441-7.398,16.441-16.441v-95.11c0-9.042-7.398-16.441-16.441-16.441
									H57.433c-4.787,0-8.704,3.917-8.704,8.704v110.584C48.729,332.332,52.646,336.248,57.433,336.248z"/>
							</g>
						</g>
						<g>
							<g>
								<path class="st2" d="M140.118,339.69H57.433c-6.697,0-12.146-5.448-12.146-12.145V216.961
									c0-6.697,5.449-12.145,12.146-12.145h82.685c10.963,0,19.882,8.919,19.882,19.882v95.11
									C160.001,330.771,151.082,339.69,140.118,339.69z M57.433,211.698c-2.902,0-5.263,2.361-5.263,5.263v110.583
									c0,2.902,2.361,5.263,5.263,5.263h82.685c7.168,0,13-5.832,13-13v-95.11c0-7.168-5.832-13-13-13H57.433z"/>
							</g>
						</g>
					</g>
					<g>
						<g>
							<g>
								<path class="st5" d="M257.976,208.257H172.85h-32.582H55.144c-3.528,0-6.415,2.887-6.415,6.415v115.163
									c0,3.527,2.887,6.414,6.415,6.414h85.312c1.191,7.026,7.921,8.287,16.106,8.662c8.185-0.38,14.911-1.637,16.101-8.662
									h85.312c3.527,0,6.414-2.887,6.414-6.414V214.671C264.389,211.143,261.503,208.257,257.976,208.257z"/>
							</g>
						</g>
						<g>
							<g>
								<path class="st2" d="M156.563,348.355l-0.159-0.007c-3.878-0.178-8.323-0.569-11.89-2.118
									c-3.224-1.401-5.451-3.594-6.65-6.54H55.144c-5.435,0-9.856-4.421-9.856-9.855V214.671c0-5.435,4.421-9.856,9.856-9.856
									h202.832c5.434,0,9.855,4.421,9.855,9.856v115.163c0,5.434-4.421,9.855-9.855,9.855h-82.721
									c-1.198,2.945-3.424,5.137-6.647,6.538c-3.562,1.548-8.007,1.94-11.885,2.121L156.563,348.355z M55.144,211.698
									c-1.64,0-2.974,1.334-2.974,2.974v115.163c0,1.639,1.334,2.973,2.974,2.973h88.219l0.486,2.866
									c0.661,3.902,3.874,5.371,12.712,5.792c8.836-0.426,12.049-1.895,12.709-5.792l0.486-2.866h88.219
									c1.639,0,2.973-1.333,2.973-2.973V214.671c0-1.639-1.333-2.974-2.973-2.974H55.144z"/>
							</g>
						</g>
					</g>
				</g>
			</g>
			<g>
				<g>
					<g>
						<g>
							<g>
								<g>
									<path class="st1" d="M242.476,324.202h-71.273c-8.054,0-14.643-6.589-14.643-14.643v-97.634
										c0-8.054,6.589-14.643,14.643-14.643h71.273c4.263,0,7.752,3.488,7.752,7.752V316.45
										C250.227,320.713,246.739,324.202,242.476,324.202z"/>
								</g>
							</g>
							<g>
								<g>
									<path class="st2" d="M242.476,327.643h-71.273c-9.972,0-18.085-8.113-18.085-18.084v-97.634
										c0-9.972,8.113-18.085,18.085-18.085h71.273c6.172,0,11.193,5.021,11.193,11.193V316.45
										C253.668,322.622,248.647,327.643,242.476,327.643z M171.202,200.722c-6.177,0-11.202,5.025-11.202,11.202v97.634
										c0,6.177,5.025,11.202,11.202,11.202h71.273c2.377,0,4.31-1.934,4.31-4.31V205.033c0-2.377-1.934-4.31-4.31-4.31H171.202z"
										/>
								</g>
							</g>
						</g>
						<g>
							<g>
								<g>
									<path class="st6" d="M242.476,324.202h-71.273c-8.054,0-14.643-6.589-14.643-14.643v-97.634
										c0-8.054,6.589-14.643,14.643-14.643h71.273c4.263,0,7.752,3.488,7.752,7.752V316.45
										C250.227,320.713,246.739,324.202,242.476,324.202z"/>
								</g>
							</g>
							<g>
								<g>
									<path class="st2" d="M242.476,327.643h-71.273c-9.972,0-18.085-8.113-18.085-18.084v-97.634
										c0-9.972,8.113-18.085,18.085-18.085h71.273c6.172,0,11.193,5.021,11.193,11.193V316.45
										C253.668,322.622,248.647,327.643,242.476,327.643z M171.202,200.722c-6.177,0-11.202,5.025-11.202,11.202v97.634
										c0,6.177,5.025,11.202,11.202,11.202h71.273c2.377,0,4.31-1.934,4.31-4.31V205.033c0-2.377-1.934-4.31-4.31-4.31H171.202z"
										/>
								</g>
							</g>
						</g>
					</g>
				</g>
				<g>
					<g>
						<g>
							<g>
								<g>
									<path class="st1" d="M70.644,324.202h71.273c8.053,0,14.642-6.589,14.642-14.642v-97.635
										c0-8.054-6.589-14.643-14.643-14.643H70.644c-4.264,0-7.752,3.489-7.752,7.752v111.416
										C62.891,320.713,66.38,324.202,70.644,324.202z"/>
								</g>
							</g>
							<g>
								<g>
									<path class="st2" d="M141.917,327.643H70.644c-6.172,0-11.194-5.022-11.194-11.194V205.033
										c0-6.172,5.022-11.194,11.194-11.194h71.272c9.972,0,18.085,8.113,18.085,18.085v97.635
										C160.001,319.531,151.888,327.643,141.917,327.643z M70.644,200.722c-2.377,0-4.311,1.934-4.311,4.311v111.416
										c0,2.377,1.934,4.311,4.311,4.311h71.273c6.176,0,11.201-5.025,11.201-11.201v-97.635c0-6.177-5.025-11.202-11.202-11.202
										H70.644z"/>
								</g>
							</g>
						</g>
						<g>
							<g>
								<g>
									<path class="st6" d="M70.644,324.202h71.273c8.053,0,14.642-6.589,14.642-14.642v-97.635
										c0-8.054-6.589-14.643-14.643-14.643H70.644c-4.264,0-7.752,3.489-7.752,7.752v111.416
										C62.891,320.713,66.38,324.202,70.644,324.202z"/>
								</g>
							</g>
							<g>
								<g>
									<path class="st2" d="M141.917,327.643H70.644c-6.172,0-11.194-5.022-11.194-11.194V205.033
										c0-6.172,5.022-11.194,11.194-11.194h71.272c9.972,0,18.085,8.113,18.085,18.085v97.635
										C160.001,319.531,151.888,327.643,141.917,327.643z M70.644,200.722c-2.377,0-4.311,1.934-4.311,4.311v111.416
										c0,2.377,1.934,4.311,4.311,4.311h71.273c6.176,0,11.201-5.025,11.201-11.201v-97.635c0-6.177-5.025-11.202-11.202-11.202
										H70.644z"/>
								</g>
							</g>
						</g>
					</g>
				</g>
			</g>
			<g>
				<g>
					<path class="st2" d="M140.936,229.108h-62.42c-1.901,0-3.441-1.541-3.441-3.441s1.541-3.441,3.441-3.441h62.42
						c1.901,0,3.441,1.541,3.441,3.441S142.836,229.108,140.936,229.108z"/>
				</g>
				<g>
					<path class="st2" d="M140.936,252.491h-62.42c-1.901,0-3.441-1.541-3.441-3.441s1.541-3.441,3.441-3.441h62.42
						c1.901,0,3.441,1.541,3.441,3.441S142.836,252.491,140.936,252.491z"/>
				</g>
				<g>
					<path class="st2" d="M140.936,275.874h-62.42c-1.901,0-3.441-1.541-3.441-3.441c0-1.901,1.541-3.441,3.441-3.441h62.42
						c1.901,0,3.441,1.541,3.441,3.441C144.377,274.333,142.836,275.874,140.936,275.874z"/>
				</g>
				<g>
					<path class="st2" d="M140.936,299.258h-62.42c-1.901,0-3.441-1.541-3.441-3.441c0-1.901,1.541-3.441,3.441-3.441h62.42
						c1.901,0,3.441,1.541,3.441,3.441C144.377,297.717,142.836,299.258,140.936,299.258z"/>
				</g>
			</g>
			<g>
				<g>
					<path class="st2" d="M234.604,229.108h-62.42c-1.901,0-3.441-1.541-3.441-3.441s1.541-3.441,3.441-3.441h62.42
						c1.901,0,3.441,1.541,3.441,3.441S236.504,229.108,234.604,229.108z"/>
				</g>
				<g>
					<path class="st2" d="M234.604,252.491h-62.42c-1.901,0-3.441-1.541-3.441-3.441s1.541-3.441,3.441-3.441h62.42
						c1.901,0,3.441,1.541,3.441,3.441S236.504,252.491,234.604,252.491z"/>
				</g>
				<g>
					<path class="st2" d="M234.604,275.874h-62.42c-1.901,0-3.441-1.541-3.441-3.441c0-1.901,1.541-3.441,3.441-3.441h62.42
						c1.901,0,3.441,1.541,3.441,3.441C238.045,274.333,236.504,275.874,234.604,275.874z"/>
				</g>
				<g>
					<path class="st2" d="M234.604,299.258h-62.42c-1.901,0-3.441-1.541-3.441-3.441c0-1.901,1.541-3.441,3.441-3.441h62.42
						c1.901,0,3.441,1.541,3.441,3.441C238.045,297.717,236.504,299.258,234.604,299.258z"/>
				</g>
			</g>
		</g>
	</g>
	<g>
		<g>
			<path class="st7" d="M281.784,67.759c3.329,4.578,5.604,6.183,28.956,41.427c5.487,8.279,4.586,10.434-1.244,10.262
				c-5.831-0.172-32.64-25.95-33.677-35.783C274.785,73.83,281.784,67.759,281.784,67.759z"/>
		</g>
		<g>
			<path class="st8" d="M281.784,67.759c2.956,4.064,5.092,5.805,21.868,30.797c-2.123,4.181-5.166,7.924-9.067,10.268
				c-8.842-8.332-18.163-19.441-18.766-25.16C274.785,73.83,281.784,67.759,281.784,67.759z"/>
		</g>
		<g>
			<path class="st7" d="M312.8,119.032c0,0,21.051-16.021,23.514-45.196c0,0-1.38-5.508-6.035-0.344
				c-4.652,5.164,0.429,5.334-20.584,30.097C301.215,113.583,312.8,119.032,312.8,119.032z"/>
		</g>
		<g>
			<g>
				<path class="st7" d="M327.876,77.649c0,0-0.565-4.909,3.1-9.003c3.661-4.098,2.561-0.229-0.115,11.528L327.876,77.649z"/>
			</g>
			<g>
				<path class="st7" d="M328.411,74.496c0,0,1.822-2.249,5.485-5.285c3.665-3.036,4.015-3.09,6.614-4.756
					c1.801-1.159,1.121,0.881,1.138,1.015c0.009,0.085,0.159-0.253,0.544,0.246c0.234,0.308,0.469,1.283,0.433,1.812
					c-0.023,0.337-0.123,1.503-0.166,2.017c-0.183,2.44-0.48,7.013-7.752,12.598C334.706,82.142,327.336,80.045,328.411,74.496z"/>
			</g>
		</g>
		<g>
			<g>
				<path class="st9" d="M285.476,34.138c0,0,8.43,10.557,2.695,15.371c-5.74,4.811-9.931,6.02-10.139,7.956
					C277.819,59.397,285.476,34.138,285.476,34.138z"/>
			</g>
			<g>
				<path class="st10" d="M294.798,233.546c0,0-1.459-1.006-1.907-0.781c-0.45,0.229-6.703,2.777-7.523,3.69
					c-0.818,0.922,8.09,20.631,8.09,20.631s5.941,9.173,7.68,9.513c1.743,0.327,2.376-0.582,2.198-1.219
					c-0.183-0.646-4.905-26.776-4.905-26.776L294.798,233.546z"/>
			</g>
			<g>
				<path class="st11" d="M280.028,214.784l-8.98,9.946c0,0-2.461,0.051-2.382-4.276c0.078-4.328,6.192-10.863,6.192-10.863
					L280.028,214.784z"/>
			</g>
			<g>
				<path class="st10" d="M262.551,135.129c0,0,53.937,11.249,72.886,30.712c0,0-2.27,4.357-7.338,6.523
					c-5.068,2.17-32.753,0.115-74.092-17.62c0,0-5.984-7.419-5.497-9.288C248.997,143.588,247.396,125.421,262.551,135.129z"/>
			</g>
			<g>
				<path class="st10" d="M315.373,185.091l21.422-18.979l-9.453-6.858c0,0-13.59,4.65-20.219,9.831
					c-4.625,3.61-15.7,8.578-35.462,42.964c0,0,5.332,9.279,11.192,1.919C283.899,212.657,315.373,185.091,315.373,185.091z"/>
			</g>
			<g>
				<g>
					<path class="st9" d="M240.563,52.976c0.59-0.389,1.098-0.739,1.548-1.058c0.164-0.248,0.342-0.484,0.546-0.684
						c3.143-3.128,1.822-9.394,0.548-14.222c-1.27-4.833,8.805-16.375,17.087-18.798c8.283-2.423,3.472-0.735,3.472-0.735
						l-3.143,8.186c0,0-0.276,4.701-0.552,9.831c1.461,3.478,2.862,7.166,3.503,9.874l10.498,2.535c0,0,6.107,6.527,5.618,8.326
						c-0.484,1.794,2.782,4.438,5.937,6.788c3.155,2.348,1.023,4.818-0.871,7.746c-1.898,2.93-1.242,4.697-1.242,4.697
						s-4.448-4.776-5.37-5.44c-0.924-0.667-6.648,0.815-7.302,1.593c-0.66,0.781-5.073,5.843-7.621,13.39
						c-2.548,7.551-12.49,17.259-14.66,18.826c-2.17,1.567-3.78,8.307-4.495,7.372c-0.713-0.936-2-2.79-0.482-4.913
						c1.52-2.124,3.177-4.187-3.616-9.651c-6.795-5.463-7.035-12.186-4.491-15.176c2.552-2.99-1.219-8.829-3.805-13.679
						C229.08,62.939,236.138,55.896,240.563,52.976z"/>
				</g>
				<g>
					<g>
						<path class="st9" d="M253.129,140.293c0,0,61.021,11.687,69.364,14.66c0,0-2.021,11.555-7.395,12.791
							c-5.37,1.24-23.918,8.154-53.271,7.249c0,0-16.779,0.594-20.947-7.3C239.979,165.985,241.939,135.401,253.129,140.293z"/>
					</g>
				</g>
				<g>
					<path class="st6" d="M245.676,143.452c0,0,1.442-5.984,6.342-27.145c0,0-8.062-23.535-6.342-38.798
						c0.722-6.4,5.557-7.581,5.557-7.581s3.578-3.041,15.199-3.992c0,0,1.234-2.015,11.846,1.128c0,0,16.588,13.073,18.564,20.501
						c1.232,4.633-4.665,18.452-4.665,18.452c-0.552,4.973-11.349,26.206-7.916,33.957
						C285.61,143.015,273.403,151.992,245.676,143.452z"/>
				</g>
				<g>
					<path class="st7" d="M258.926,47.927c0,0,4.998,10.277,3.281,18.452c-0.949,4.523,6.415,4.315,11.26-0.327
						c0,0,0.737-15.568,4.693-18.418C282.109,44.784,258.926,47.927,258.926,47.927z"/>
				</g>
				<g>
					<path class="st11" d="M265.704,22.676c0,0,14.137-5.291,21.321,3.463c0,0,0.333,13.067-1.374,20.554
						c-1.716,7.483-3.019,12.954-8.678,12.713c0,0-15.77-2.278-16.717-13.362C259.401,36.063,261.703,24.759,265.704,22.676z"/>
				</g>
				<g>
					<path class="st9" d="M282.474,24.485c0,0,4.926,2.395,4.633,11.326c0,0,7.958-1.352,6.132-6.998
						c-1.822-5.644-10.549-8.302-10.549-8.302s-8.555-2.2-12.439-1.457C266.368,19.805,282.474,24.485,282.474,24.485z"/>
				</g>
				<g>
					<path class="st7" d="M275.025,66.031c0,0-5.971-3.181-20.924,2.404c0,0,19.883,14.742,33.715,11.74
						C287.816,80.174,280.157,70.579,275.025,66.031z"/>
				</g>
			</g>
			<g>
				<path class="st11" d="M299.845,228.489l-3.295,13.144c0,0-2.287,1.066-4.446-3.079c-2.164-4.141,0.201-12.863,0.201-12.863
					L299.845,228.489z"/>
			</g>
			<g>
				<path class="st9" d="M313.904,191.746l8.924-37.142l-6.308-0.696c0,0-14.154,7.092-18.167,14.485
					c-2.801,5.156-4.72,20.049-9.128,59.458c0,0,10.874,12.409,13.314,3.325C302.971,229.555,313.904,191.746,313.904,191.746z"/>
			</g>
			<g>
				<path class="st11" d="M284.262,116.626c0,0-6.653-8.68-13.466-9.309c-6.812-0.629-1.538,11.504-1.538,11.504
					s26.905,40.769,33.156,42.127c6.251,1.359,4.272-5.224,3.612-7.041C305.366,152.09,284.262,116.626,284.262,116.626z"/>
			</g>
			<g>
				<path class="st6" d="M254.539,71.135c0,0-6.892,1.211-8.863,6.375c-1.968,5.164,22.225,41.04,23.582,41.312
					c1.357,0.272,12.645-1.903,12.572-5.164C281.758,110.396,262.109,76.715,254.539,71.135z"/>
			</g>
			<g>
				<path class="st10" d="M272.87,216.492c0,0-1.083-1.401-1.576-1.325c-0.501,0.081-7.23,0.607-8.29,1.227
					c-1.06,0.628,1.429,22.117,1.429,22.117s2.869,10.54,4.423,11.394c1.561,0.845,2.44,0.17,2.463-0.488
					c0.023-0.675,3.474-27.001,3.474-27.001L272.87,216.492z"/>
			</g>
			<g>
				<g>
					<g>
						<path class="st11" d="M306.487,153.139c0,0,5.145,0.637,9.107,5.58c3.962,4.939-0.221,2.803-12.229-3.019L306.487,153.139z"/>
					</g>
					<g>
						<path class="st11" d="M307.682,153.407c0,0,2.469,2.2,5.892,6.489c3.425,4.285,3.501,4.676,5.429,7.669
							c1.333,2.081-0.839,1.147-0.979,1.151c-0.085,0.004,0.276,0.2-0.212,0.569c-0.308,0.229-1.304,0.395-1.858,0.306
							c-0.35-0.055-1.573-0.28-2.108-0.369c-2.552-0.433-7.332-1.181-13.668-9.653C300.178,159.569,301.828,151.712,307.682,153.407
							z"/>
					</g>
				</g>
			</g>
			<g>
				<path class="st9" d="M253.006,58.768c4.058-8.379,1.397-21.155,0.722-22.355c-0.382-0.679,1.019-2.072,2.663-3.27
					c-0.41-2.085-0.866-3.996-1.27-4.733c-1.058-1.932,2.123-20.165,25.281-6.342l4.385,2.648c0,0-1.151,10.632-13.619,13.035
					c-3.034,3.38-5.336,6.756-4.546,8.608c1.979,4.633,3.385,7.587,0.807,9.712c-2.578,2.119-6.336,8.188-3.427,13.598
					c2.913,5.406,8.994,8.504,5.589,14.171c-3.41,5.665-7.776,5.319-7.776,5.319s-1.123-16.541-11.029-22.128
					C247.22,65.024,248.946,67.147,253.006,58.768z"/>
			</g>
		</g>
		<g>
			<g>
				<path class="st10" d="M335.15,80.31c0.011-0.011,0.017-0.023,0.025-0.032c0.011-0.017,0.017-0.038,0.03-0.051
					c0.008-0.017,0.013-0.034,0.023-0.051c0.009-0.013,0.015-0.028,0.023-0.042c0.011-0.021,0.021-0.042,0.026-0.064
					c0.008-0.013,0.013-0.025,0.019-0.038c0.015-0.034,0.028-0.07,0.038-0.106l5.591-17.448c0.204-0.631-0.007-1.263-0.467-1.412
					l-6.255-2.004c-0.026-0.009-0.051-0.015-0.077-0.021c-0.004,0-0.011,0-0.017-0.002c-0.021-0.002-0.049-0.007-0.072-0.007
					c-0.009-0.002-0.013,0-0.019-0.002c-0.023,0.002-0.051,0-0.074,0.002c-0.006,0-0.013,0-0.021,0.004
					c-0.017,0-0.036,0.004-0.053,0.008c-0.01,0.002-0.019,0.004-0.028,0.004c-0.021,0.004-0.042,0.013-0.061,0.017
					c-0.015,0.004-0.026,0.009-0.038,0.013c-0.013,0.004-0.023,0.008-0.034,0.015c-0.023,0.011-0.045,0.019-0.066,0.032
					c-0.006,0-0.013,0.004-0.019,0.009c-0.266,0.147-0.501,0.433-0.62,0.805l-5.591,17.448c-0.204,0.633,0.004,1.266,0.467,1.414
					l6.255,2.002c0.336,0.108,0.713-0.074,0.973-0.427c0.002-0.004,0.004-0.008,0.006-0.008
					C335.129,80.35,335.139,80.329,335.15,80.31z"/>
			</g>
			<g>
				<g>
					<g>
						<g>
							<path class="st9" d="M334.772,79.745c-0.204,0.631-0.739,1.026-1.2,0.877l-6.258-2.005c-0.458-0.148-0.669-0.779-0.467-1.414
								l5.593-17.445c0.202-0.633,0.739-1.023,1.202-0.879l6.255,2.007c0.459,0.146,0.669,0.779,0.463,1.412L334.772,79.745z"/>
						</g>
					</g>
				</g>
				<g>
					<path class="st6" d="M331.636,78.07c-0.153,0.48-0.558,0.777-0.907,0.664l0,0c-0.35-0.112-0.51-0.592-0.357-1.07l0,0
						c0.155-0.48,0.563-0.775,0.911-0.665l0,0C331.634,77.112,331.789,77.59,331.636,78.07L331.636,78.07z"/>
				</g>
				<g>
					<path class="st10" d="M331.574,78.049c-0.14,0.433-0.505,0.701-0.82,0.599l0,0c-0.314-0.1-0.456-0.531-0.319-0.964l0,0
						c0.136-0.431,0.505-0.701,0.82-0.599l0,0C331.57,77.187,331.714,77.618,331.574,78.049L331.574,78.049z"/>
				</g>
				<g>
					<path class="st6" d="M331.485,78.021c-0.117,0.363-0.427,0.588-0.688,0.505l0,0c-0.266-0.087-0.387-0.452-0.272-0.813l0,0
						c0.119-0.363,0.425-0.59,0.69-0.503l0,0C331.481,77.293,331.6,77.658,331.485,78.021L331.485,78.021z"/>
				</g>
				<g>
					<g>
						
							<rect x="326.448" y="65.877" transform="matrix(0.3053 -0.9523 0.9523 0.3053 165.7092 366.0245)" class="st6" width="14.513" height="7.138"/>
					</g>
					<g class="st12">
						<polygon class="st9" points="332.519,61.446 332.466,61.614 339.159,63.759 334.785,77.412 334.889,77.446 339.316,63.625 
													"/>
					</g>
				</g>
				<g>
					<path class="st6" d="M338.102,61.958c-0.051,0.153-0.18,0.248-0.293,0.212l-3.215-1.03c-0.115-0.036-0.166-0.191-0.115-0.346
						l0,0c0.051-0.153,0.178-0.249,0.293-0.213l3.215,1.03C338.1,61.648,338.15,61.801,338.102,61.958L338.102,61.958z"/>
				</g>
				<g class="st13">
					<path class="st9" d="M334.371,80.393c0.172-0.161,0.316-0.382,0.401-0.648l5.589-17.448c0.206-0.633-0.004-1.266-0.463-1.412
						l-6.255-2.007c-0.274-0.085-0.573,0.017-0.813,0.246L334.371,80.393z"/>
				</g>
			</g>
		</g>
	</g>
	<g>
		<g>
			<g>
				<g>
					<g>
						<path class="st8" d="M415.715,325.636c0,0,6.375-3.548,12.075,1.363c8.684,7.481-4.067,32.549-28.531,50.796
							c-11.266,8.408-18.087-3.566-21.289-15.487c0,0-4.4-7.076,8.854-5.779c2.704,0.263,5.627,2.688,4.959,2.227
							C389.854,357.432,406.25,333.539,415.715,325.636z"/>
					</g>
				</g>
				<g>
					<g>
						<path class="st7" d="M388.282,356.801c0,0-0.978-5.779-7.256-8.411c-6.277-2.637-2.832,1.118,6.345,12.284L388.282,356.801z"
							/>
					</g>
					<g>
						<path class="st7" d="M388.282,356.801c0,0-2.569-2.39-7.528-5.49c-4.956-3.098-5.397-3.121-8.846-4.766
							c-2.39-1.141-1.26,1.127-1.262,1.283c-0.002,0.096-0.233-0.273-0.631,0.333c-0.249,0.382-0.408,1.523-0.284,2.124
							c0.077,0.382-0.135,1.929-0.019,2.516c0.575,2.776,0.585,6.862,10.365,12.508C380.076,365.309,390.39,363.052,388.282,356.801
							z"/>
					</g>
				</g>
			</g>
			<g>
				<g>
					<g>
						<path class="st14" d="M370.617,354.753c0.009,0.009,0.021,0.023,0.033,0.035c0.014,0.016,0.03,0.033,0.047,0.049
							c0.014,0.016,0.03,0.03,0.047,0.047c0.014,0.014,0.028,0.028,0.042,0.042c0.021,0.019,0.042,0.035,0.063,0.051
							c0.012,0.012,0.023,0.023,0.035,0.033c0.037,0.028,0.072,0.056,0.107,0.084l17.658,12.825
							c0.641,0.466,1.386,0.526,1.668,0.144l3.808-5.245c0.016-0.023,0.03-0.047,0.042-0.07c0.002-0.005,0.005-0.009,0.007-0.014
							c0.012-0.021,0.021-0.044,0.028-0.07c0.002-0.005,0.005-0.009,0.007-0.019c0.005-0.023,0.009-0.047,0.014-0.07
							c0.002-0.007,0.002-0.014,0.005-0.019c0-0.019,0.002-0.042,0.002-0.061c0.002-0.009,0.002-0.019,0.002-0.028
							c0-0.023,0-0.044-0.005-0.07c0-0.012-0.002-0.026-0.005-0.04c0-0.012-0.002-0.026-0.004-0.04
							c-0.005-0.026-0.009-0.051-0.017-0.077c-0.002-0.007-0.005-0.016-0.007-0.021c-0.091-0.322-0.345-0.673-0.722-0.946
							l-17.656-12.825c-0.64-0.466-1.388-0.529-1.668-0.142l-3.808,5.243c-0.205,0.284-0.105,0.729,0.217,1.13
							c0.005,0.002,0.007,0.007,0.009,0.012C370.582,354.711,370.598,354.73,370.617,354.753z"/>
					</g>
				</g>
				<g>
					<g>
						<g>
							<g>
								<g>
									<path class="st14" d="M371.334,354.621c-0.64-0.464-0.932-1.153-0.652-1.54l3.81-5.245c0.28-0.387,1.025-0.322,1.665,0.144
										l17.658,12.822c0.641,0.466,0.932,1.155,0.652,1.542l-3.81,5.243c-0.28,0.387-1.025,0.324-1.668-0.14L371.334,354.621z"/>
								</g>
							</g>
						</g>
					</g>
					<g>
						<g>
							<path class="st6" d="M373.978,352.277c-0.487-0.352-0.706-0.876-0.494-1.167l0,0c0.212-0.294,0.778-0.247,1.262,0.107l0,0
								c0.487,0.352,0.706,0.876,0.494,1.167l0,0C375.029,352.678,374.462,352.629,373.978,352.277L373.978,352.277z"/>
						</g>
					</g>
					<g>
						<g>
							<path class="st14" d="M374.015,352.224c-0.436-0.317-0.636-0.787-0.445-1.053l0,0c0.191-0.261,0.701-0.219,1.139,0.098l0,0
								c0.435,0.317,0.636,0.789,0.445,1.053l0,0C374.963,352.585,374.453,352.541,374.015,352.224L374.015,352.224z"/>
						</g>
					</g>
					<g>
						<g>
							<path class="st6" d="M374.071,352.149c-0.368-0.268-0.536-0.664-0.375-0.885l0,0c0.16-0.223,0.591-0.186,0.957,0.082l0,0
								c0.368,0.268,0.536,0.664,0.375,0.885l0,0C374.868,352.452,374.439,352.415,374.071,352.149L374.071,352.149z"/>
						</g>
					</g>
					<g>
						<g>
							<g>
								
									<rect x="379.362" y="349.293" transform="matrix(0.5872 -0.8094 0.8094 0.5872 -131.6793 457.6539)" class="st6" width="7.044" height="17.288"/>
							</g>
						</g>
						<g>
							<g>
								<polygon class="st14" points="391.948,360.166 391.78,360.045 387.704,365.654 373.885,355.62 373.822,355.708 
									387.809,365.866 								"/>
							</g>
						</g>
					</g>
					<g>
						<g>
							<path class="st6" d="M389.949,365.389c-0.156-0.116-0.228-0.284-0.161-0.377l1.959-2.697
								c0.067-0.093,0.249-0.079,0.408,0.037l0,0c0.156,0.112,0.226,0.28,0.158,0.377l-1.959,2.693
								C390.287,365.517,390.106,365.501,389.949,365.389L389.949,365.389z"/>
						</g>
					</g>
					<g>
						<g>
							<path class="st14" d="M370.729,353.957c0.131,0.233,0.335,0.471,0.606,0.664l17.656,12.827
								c0.643,0.463,1.388,0.526,1.668,0.14l3.81-5.243c0.165-0.231,0.13-0.561-0.058-0.897L370.729,353.957z"/>
						</g>
					</g>
				</g>
			</g>
			<g>
				<g>
					<path class="st7" d="M401.393,367.285c0,0-2.865-5.115-9.664-5.481c-6.797-0.37-2.29,2.006,10.111,9.431L401.393,367.285z"/>
				</g>
				<g>
					<path class="st7" d="M401.393,367.285c0,0-3.224-1.388-8.935-2.637c-5.714-1.253-6.133-1.125-9.934-1.514
						c-2.637-0.27-0.81,1.486-0.757,1.635c0.028,0.089-0.312-0.177-0.482,0.526c-0.107,0.443,0.128,1.57,0.447,2.096
						c0.2,0.335,0.52,1.861,0.829,2.373c1.474,2.423,2.858,6.268,13.968,8.292C396.53,378.057,405.481,372.46,401.393,367.285z"/>
				</g>
			</g>
			<g>
				<g>
					<g>
						<path class="st14" d="M453.48,288.808c0,0,3.966,22.673-4.382,30.126l-8.439,3.645c0,0,1.218-11.506,1.714-11.702
							C442.87,310.677,453.48,288.808,453.48,288.808z"/>
					</g>
				</g>
				<g>
					<g>
						<path class="st14" d="M423.148,286.528c0,0-3.54,6.1-1.325,15.883l8.632-13.386L423.148,286.528z"/>
					</g>
				</g>
				<g>
					<g>
						<path class="st14" d="M282.185,433.766c0,0,1.286,1.938,0.959,2.548c-0.326,0.615-4.025,9.131-5.292,10.258
							c-1.272,1.13-27.285-10.323-27.285-10.323s-12.024-7.752-12.396-10.095c-0.359-2.343,0.89-3.219,1.733-2.998
							c0.862,0.231,35.67,5.853,35.67,5.853L282.185,433.766z"/>
					</g>
				</g>
				<g>
					<g>
						<path class="st11" d="M285.562,429.666l-14.516,4.286c0,0-0.82,2.744,4.314,5.203c5.134,2.46,14.739-0.596,14.739-0.596
							L285.562,429.666z"/>
					</g>
				</g>
				<g>
					<g>
						<path class="st15" d="M354.555,430.924l12.964-13.621l-6.489-12.732c0,0-65.098,16.938-81.267,24.028
							c0,0-2.953,11.171,6.657,12.625C288.237,441.499,354.555,430.924,354.555,430.924z"/>
					</g>
				</g>
				<g>
					<g>
						<path class="st14" d="M341.059,449.604c0,0,1.959,1.258,1.905,1.945c-0.049,0.696,0.005,9.974-0.692,11.523
							c-0.711,1.547-29.134,1.584-29.134,1.584s-14.131-2.238-15.413-4.23c-1.277-1.996-0.492-3.305,0.368-3.443
							c0.88-0.137,34.997-9.058,34.997-9.058L341.059,449.604z"/>
					</g>
				</g>
				<g>
					<g>
						<g>
							<path class="st15" d="M445.427,406.66c0,0-54.821-3.883-84.542-1.784c0,0-1.281,15.711,1.29,21.185
								c2.562,5.478,33.723,3.622,80.512,19.284c0,0,11.194-9.568,12.163-11.455C455.811,432.002,464.918,409.779,445.427,406.66z"
								/>
						</g>
					</g>
					<g>
						<g>
							<g>
								<g>
									<g>
										<path class="st11" d="M337.775,443.038l-10.677,10.731c0,0,0.596,2.804,6.282,2.497c5.681-0.312,12.641-7.6,12.641-7.6
											L337.775,443.038z"/>
									</g>
								</g>
								<g>
									<g>
										<path class="st16" d="M365.649,408.661l26.581-27.071l10.866,3.056c0,0-2.14,16.868-6.682,24.9
											c-3.168,5.609-15.904,16.053-50.002,43.065c0,0-17.863-2.895-10.831-10.442
											C336.834,440.823,365.649,408.661,365.649,408.661z"/>
									</g>
								</g>
								<g>
									<g>
										<path class="st6" d="M438.528,322.666c0,0,11.451-1.458,22.575,8.278c0,0-3.293,54.916,2.236,94.478
											c0,0-26.898,6.997-46.179-11.548c0,0-23.479-55.443-1.444-88.238C415.715,325.636,419.293,321.063,438.528,322.666z"/>
									</g>
								</g>
								<g>
									<g>
										<path class="st7" d="M454.67,326.444c0,0-18.205,1.519-33.779,16.141c0,0,1.288-13.715,10.179-20.567
											C437.778,316.847,454.67,326.444,454.67,326.444z"/>
									</g>
								</g>
								<g>
									<g>
										<path class="st7" d="M425.056,304.665c0,0,6.927,12.219,7.449,20.548c0,0,11.304,4.556,16.987-0.895
											c0,0-1.975-10.509-6.662-20.746C440.452,298.377,425.056,304.665,425.056,304.665z"/>
									</g>
								</g>
								<g>
									<g>
										<path class="st11" d="M448.534,283.795c0,0-16.538-11.8-25.445-1.016c0,0-1.584,16.165,0.501,25.414
											c2.08,9.245,2.893,11.136,7.454,12.596c0,0,14.928,0.566,16.149-13.118C448.285,295.358,453.468,286.385,448.534,283.795z
											"/>
									</g>
								</g>
							</g>
						</g>
					</g>
					<g>
						<g>
							<path class="st14" d="M431.748,285.859c0,0,3.452,6.312,12.683,6.876c0,0,1.649,11.684,0.608,17.202
								c0,0,2.699-0.883,4.281-1.994c1.582-1.106,3.214-7.409,3.214-7.409l1.675-1.118c0,0,2.18-15.291-6.233-18.173
								L431.748,285.859z"/>
						</g>
					</g>
					<g>
						<g>
							<path class="st11" d="M445.667,306.403c-0.711,2.949,0.074,5.669,1.747,6.072c1.677,0.403,3.608-1.663,4.318-4.619
								c0.706-2.949-0.077-5.665-1.751-6.065C448.306,301.386,446.378,303.45,445.667,306.403z"/>
						</g>
					</g>
				</g>
				<g>
					<g>
						<path class="st14" d="M437.363,288.661c0,0-4.286,5.266-11.35,6.1c0,0,2.6-3.252,2.343-4.77c0,0-4.16,0.708-4.915,4.53
							c0,0-0.682-3.035,0.172-6.51c0,0-2.774,2.865-1.712,5.112c0,0-2.856-4.402,1.029-11.029c0,0,11.157-10.701,25.044-2.283
							c0,0,0.224-1.34,5.415-1.353c0,0-4.048,1.558-3.626,3.554C449.764,282.014,454.078,293.518,437.363,288.661z"/>
					</g>
				</g>
				<g>
					<g>
						<path class="st14" d="M420.959,291.368c0,0-1.612,0.496-2.581,2.851c0,0-2.455-16.158,17.644-13.626L420.959,291.368z"/>
					</g>
				</g>
			</g>
			<g>
				<g>
					<path class="st6" d="M443.79,336.518c0,0,8.064-9.475,15.084-6.769c10.696,4.123,3.009,40.834-13.885,66.248
						c-7.78,11.711-44.426-9.911-51.453-20.06c0,0-6.806-10.2,6.391-8.422c14.935,2.01,28.615,9.093,27.83,8.886
						C425.498,375.805,437.536,347.146,443.79,336.518z"/>
				</g>
			</g>
			<g>
				<path class="st16" d="M457.406,412.616c0,0-54.621-28.834-63.609-32.53c0,0-16.5,10.309-9.326,19.552
					c3.708,4.777,46.897,47.568,64.119,46.682c0,0,6.461,0.247,10.109-3.633C460.148,441.147,479.211,427.672,457.406,412.616z"/>
			</g>
		</g>
	</g>
</g>
</svg>
