<?xml version="1.0" encoding="utf-8"?>
<!-- Generator: Adobe Illustrator 25.2.1, SVG Export Plug-In . SVG Version: 6.00 Build 0)  -->
<svg version="1.1" id="Capa_1" xmlns="http://www.w3.org/2000/svg" xmlns:xlink="http://www.w3.org/1999/xlink" x="0px" y="0px"
	 viewBox="0 0 500 500" style="enable-background:new 0 0 500 500;" xml:space="preserve">
<style type="text/css">
	.st0{fill:#B9B0C4;}
	.st1{fill:#5D50A3;}
	.st2{fill:#3B2D91;}
	.st3{fill:#F1CC5D;}
	.st4{fill:#83B8D7;}
	.st5{fill:#26218B;}
	.st6{fill:#E2DAEB;}
	.st7{fill:#EB6853;}
	.st8{fill:#FB8B78;}
	.st9{fill:#FFFFFF;}
</style>
<g>
	<g>
		<ellipse class="st0" cx="347.767" cy="432.952" rx="145.055" ry="43.657"/>
		<g>
			<g>
				<g>
					<g>
						<path class="st1" d="M422.275,440.249H273.259c-17.668,0-32.124-14.456-32.124-32.124v-265.08
							c0-17.667,14.455-32.122,32.122-32.122h149.018c17.668,0,32.124,14.456,32.124,32.124v265.078
							C454.399,425.793,439.943,440.249,422.275,440.249z"/>
					</g>
					<g>
						<path class="st2" d="M422.275,445.19H273.259c-20.438,0-37.066-16.628-37.066-37.066V143.045
							c0-20.437,16.627-37.064,37.064-37.064h149.018c20.438,0,37.066,16.628,37.066,37.066v265.078
							C459.341,428.563,442.713,445.19,422.275,445.19z M273.257,115.865c-14.987,0-27.18,12.193-27.18,27.18v265.079
							c0,14.988,12.194,27.182,27.182,27.182h149.016c14.988,0,27.182-12.194,27.182-27.182V143.047
							c0-14.988-12.194-27.182-27.182-27.182H273.257z"/>
					</g>
				</g>
				<g>
					<g>
						<rect x="241.135" y="153.257" class="st3" width="213.264" height="236.038"/>
					</g>
					<g>
						<path class="st2" d="M454.399,394.237H241.135c-2.729,0-4.942-2.213-4.942-4.942V153.257c0-2.729,2.213-4.942,4.942-4.942
							h213.264c2.729,0,4.942,2.213,4.942,4.942v236.038C459.341,392.024,457.128,394.237,454.399,394.237z M246.077,384.353h203.38
							V158.199h-203.38V384.353z"/>
					</g>
				</g>
				<g>
					<g>
						<path class="st4" d="M363.515,427.255h-31.498c-6.452,0-11.733-5.28-11.733-11.733l0,0c0-6.453,5.281-11.733,11.733-11.733
							h31.498c6.453,0,11.733,5.28,11.733,11.733l0,0C375.248,421.976,369.969,427.255,363.515,427.255z"/>
					</g>
					<g>
						<path class="st2" d="M363.516,432.197h-31.498c-9.195,0-16.675-7.48-16.675-16.675c0-9.195,7.48-16.675,16.675-16.675h31.498
							c9.195,0,16.675,7.48,16.675,16.675C380.191,424.717,372.71,432.197,363.516,432.197z M332.017,408.731
							c-3.744,0-6.791,3.047-6.791,6.791c0,3.744,3.047,6.791,6.791,6.791h31.498c3.744,0,6.791-3.047,6.791-6.791
							c0-3.744-3.047-6.791-6.791-6.791H332.017z"/>
					</g>
				</g>
			</g>
			<g>
				<g>
					<g>
						<path class="st4" d="M443.967,84.653c-3.186,0-6.371-1.216-8.801-3.645c-48.192-48.196-126.608-48.193-174.8,0
							c-4.86,4.858-12.741,4.858-17.601,0c-4.861-4.861-4.861-12.742,0-17.604c57.898-57.898,152.104-57.898,210.003,0
							c4.861,4.861,4.861,12.742,0,17.604C450.339,83.437,447.153,84.653,443.967,84.653z"/>
						<path class="st2" d="M443.968,89.595c-4.643,0-9.009-1.808-12.295-5.091c-11.309-11.31-24.506-20.065-39.227-26.025
							c-14.22-5.756-29.252-8.675-44.679-8.675c-15.427,0-30.459,2.919-44.679,8.676c-14.721,5.959-27.918,14.715-39.226,26.023
							c-6.78,6.778-17.811,6.778-24.59,0.001c-3.285-3.285-5.094-7.652-5.094-12.297s1.809-9.012,5.094-12.296
							c59.824-59.824,157.166-59.824,216.992,0c6.78,6.78,6.78,17.813,0,24.593C452.977,87.787,448.611,89.595,443.968,89.595z
							 M347.766,39.92c16.704,0,32.984,3.161,48.388,9.397c15.956,6.459,30.257,15.946,42.507,28.196
							c1.417,1.417,3.302,2.197,5.307,2.197c2.004,0,3.889-0.781,5.308-2.199c2.925-2.925,2.925-7.687-0.001-10.613
							c-55.971-55.97-147.044-55.97-203.014,0c-1.418,1.418-2.199,3.303-2.199,5.307s0.781,3.889,2.199,5.307
							c2.925,2.925,7.686,2.925,10.613,0c12.249-12.249,26.55-21.736,42.506-28.195C314.782,43.082,331.062,39.92,347.766,39.92z"/>
					</g>
				</g>
				<g>
					<g>
						<path class="st4" d="M414.741,113.878c-3.184,0-6.37-1.215-8.8-3.646c-15.539-15.538-36.2-24.095-58.175-24.095
							c-21.974,0-42.636,8.557-58.174,24.095c-4.86,4.863-12.742,4.86-17.602,0.001c-4.861-4.861-4.861-12.741,0-17.601
							c20.241-20.242,47.151-31.389,75.776-31.389s55.537,11.147,75.776,31.389c4.861,4.86,4.861,12.74,0,17.601
							C421.113,112.663,417.927,113.878,414.741,113.878z"/>
						<path class="st2" d="M414.741,118.82c-4.645,0-9.012-1.809-12.295-5.095c-14.605-14.604-34.024-22.647-54.68-22.647
							c-20.656,0-40.075,8.043-54.68,22.648c-3.282,3.284-7.649,5.094-12.295,5.094c-0.001,0-0.001,0-0.001,0
							c-4.644,0-9.011-1.809-12.295-5.092c-3.285-3.285-5.094-7.652-5.094-12.296c0-4.645,1.809-9.011,5.094-12.295
							c21.173-21.175,49.326-32.836,79.27-32.836c29.947,0,58.099,11.662,79.271,32.837c3.284,3.283,5.093,7.65,5.093,12.294
							c0,4.644-1.809,9.011-5.093,12.295C423.754,117.011,419.387,118.82,414.741,118.82z M347.766,81.194
							c23.295,0,45.197,9.071,61.67,25.543c1.418,1.419,3.301,2.199,5.305,2.199c2.005,0,3.889-0.78,5.306-2.197
							c1.418-1.418,2.199-3.302,2.199-5.307c0-2.004-0.781-3.888-2.198-5.305c-19.306-19.309-44.976-29.942-72.282-29.942
							c-27.304,0-52.975,10.634-72.282,29.942c-1.418,1.418-2.199,3.301-2.199,5.305c0,2.004,0.781,3.889,2.199,5.306
							c1.417,1.416,3.302,2.197,5.307,2.197c0,0,0.001,0,0.001,0c2.005,0,3.889-0.78,5.305-2.198
							C302.569,90.265,324.47,81.194,347.766,81.194z"/>
					</g>
				</g>
				<g>
					<g>
						<path class="st4" d="M385.463,143.155c-3.186,0-6.371-1.215-8.801-3.644c-15.934-15.935-41.859-15.932-57.791,0
							c-4.86,4.858-12.741,4.858-17.602,0c-4.86-4.863-4.86-12.742,0-17.604c25.641-25.636,67.357-25.635,92.996,0
							c4.861,4.861,4.861,12.741,0,17.604C391.834,141.939,388.649,143.155,385.463,143.155z"/>
						<path class="st2" d="M385.463,148.097c-4.644,0-9.01-1.808-12.295-5.09c-6.774-6.774-15.795-10.504-25.402-10.504
							c-9.608,0-18.628,3.73-25.401,10.503c-6.779,6.777-17.81,6.777-24.59,0.001c-6.779-6.783-6.778-17.814-0.002-24.593
							c27.567-27.562,72.42-27.562,99.985-0.001c6.78,6.78,6.78,17.812,0.001,24.593
							C394.473,146.289,390.107,148.097,385.463,148.097z M347.766,122.619c12.248,0,23.751,4.758,32.391,13.398
							c1.417,1.416,3.302,2.196,5.307,2.196c2.005,0,3.89-0.78,5.308-2.197c2.925-2.926,2.925-7.687-0.001-10.613
							c-23.712-23.708-62.295-23.708-86.007,0c-2.924,2.926-2.924,7.688,0.001,10.615c2.925,2.923,7.686,2.923,10.613-0.002
							C324.015,127.377,335.518,122.619,347.766,122.619z"/>
					</g>
				</g>
				<g>
					<g>
						<path class="st4" d="M363.239,152.934c-8.544-8.546-22.4-8.546-30.946,0c-8.544,8.544-8.544,22.4,0,30.944
							c8.546,8.546,22.401,8.546,30.946,0C371.785,175.334,371.785,161.478,363.239,152.934z"/>
						<path class="st2" d="M347.767,195.23c-7.165,0-13.901-2.79-18.968-7.857c-10.458-10.458-10.458-27.475,0-37.933
							c5.067-5.067,11.803-7.857,18.968-7.857c7.165,0,13.901,2.791,18.967,7.857l0,0c0.001,0.001,0.001,0.001,0.001,0.001
							c5.066,5.066,7.857,11.802,7.857,18.966c0,7.165-2.79,13.901-7.857,18.967C361.668,192.439,354.932,195.23,347.767,195.23z
							 M347.767,151.467c-4.525,0-8.779,1.762-11.979,4.962c-6.604,6.604-6.604,17.351,0,23.955c3.2,3.2,7.454,4.962,11.979,4.962
							c4.525,0,8.779-1.762,11.978-4.962c3.2-3.2,4.962-7.453,4.962-11.978s-1.762-8.778-4.961-11.977c0,0-0.001,0-0.001-0.001
							C356.545,153.229,352.292,151.467,347.767,151.467z"/>
					</g>
				</g>
			</g>
		</g>
	</g>
	<g>
		<ellipse class="st0" cx="70.78" cy="450.111" rx="61.848" ry="20.953"/>
		<g>
			<g>
				<path class="st5" d="M79.489,177.198c0,0-18.115-11.476-40.742,4.569c-22.627,16.043-16.243,57.187-10.058,77.802
					c0,0,21.72,18.011,49.759,2.852C78.449,262.42,89.056,185.993,79.489,177.198z"/>
			</g>
			<g>
				<g>
					<g>
						<path class="st6" d="M83.736,176.695c0,0-3.227,17.426,3.937,22.066c6.26,4.055,39.976,1.998,54.4-29.479
							c6.647-14.497-32.482-36.572-46.467-37.284c0,0-13.903-0.476-4.303,11.192c10.859,13.205,25.861,22.17,25.187,21.534
							C114.569,162.904,81.868,171.159,83.736,176.695z"/>
					</g>
					<g>
						<g>
							<path class="st7" d="M88.258,137.082c0,0-4.888-4.72-4.161-12.215c0.727-7.492,2.477-1.85,8.228,13.956L88.258,137.082z"/>
						</g>
						<g>
							<path class="st7" d="M88.258,137.082c0,0-0.922-3.928-1.3-10.525c-0.372-6.591-0.177-7.011,0.041-11.261
								c0.148-2.944,1.685-0.411,1.832-0.307c0.091,0.065-0.136-0.39,0.635-0.355c0.476,0.027,1.623,0.635,2.125,1.147
								c0.316,0.325,1.862,1.159,2.347,1.655c2.293,2.364,6.094,5.084,6.396,17.78C100.335,135.217,93.011,143.162,88.258,137.082z"
								/>
						</g>
					</g>
				</g>
				<g>
					<path class="st5" d="M76.22,439.773c0,0-1.416,0.703-1.428,1.17c-0.021,0.473-0.745,6.73-0.381,7.823
						c0.361,1.097,19.527,3.207,19.527,3.207s9.694-0.467,10.708-1.72c1.014-1.253,0.576-2.19,0-2.347
						c-0.58-0.154-22.929-8.683-22.929-8.683L76.22,439.773z"/>
				</g>
				<g>
					<path class="st5" d="M60.695,443.728c0,0-2.187,1.058-3.21,1.141c-1.022,0.077-3.18-0.727-3.18-0.727s3.792-2.199-2.69-0.095
						c0,0-18.023,11.61-17.792,12.295c0.231,0.686,4.292,2.725,15.404,0.597c0,0,9.872-3.561,11.633-5.225
						C61.127,451.46,62.185,444.594,60.695,443.728z"/>
				</g>
				<g>
					<path class="st8" d="M54.429,435.411c0,0-0.236,9.641-0.183,9.812c0.455,1.463,4.596,1.555,5.823,0.443l2.412-9.271
						L54.429,435.411z"/>
				</g>
				<g>
					<path class="st8" d="M75.798,431.794c0,0-0.16,9.57-0.089,9.815c0.429,1.463,4.407,1.738,5.627,0.612l1.791-9.623
						L75.798,431.794z"/>
				</g>
				<g>
					<path class="st5" d="M101.428,259.568c0,0-3.068,69.452-6.419,101.99c0,0-17.494-2.843-19.261-10.324
						c-1.77-7.486,1.569-87.812,1.569-87.812L101.428,259.568z"/>
				</g>
				<g>
					<path class="st5" d="M74.208,262.459c0.242,3.523,25.784-1.596,26.015,2.01c0.869,13.501-20.707,51.237-20.671,51.725
						C71.169,374.385,65.53,427.201,62.418,439.46c-1.297,5.095-10.01,0.183-10.01,0.183c-1.856-66.139-3.109-171.717-3.109-171.717
						C55.866,263.576,65.303,262.364,74.208,262.459z"/>
				</g>
				<g>
					<path class="st9" d="M75.815,175.767c0,0-15.587-1.439-26.759,8.335c0,0-7.194,51.299,0.242,83.565
						c0,0,33.046,16.108,52.413-2.518c0,0,10.708-53.501-0.284-74.149C101.428,191,96.478,176.234,75.815,175.767z"/>
				</g>
				<g>
					<path class="st9" d="M60.246,196.234c0,0,3.003-10.613-5.181-13.043c-12.469-3.7-36.155,17.538-38.573,52.083
						c-1.117,15.901,41.321,17.455,54.66,13.199c0,0,13.181-4.451,0.089-11.994c-14.813-8.536-29.786-9.936-29.112-10.563
						C44.002,224.161,54.648,211.488,60.246,196.234z"/>
				</g>
				<g>
					<path class="st5" d="M59.61,175.69c0,0-10.794,2.365-13.678,6.077c0,0,25.243,16.548,34.795,62.052
						c0,0-13.131,8.961-35.762,15.75l0.378,2.887c0,0,30.253-5.222,41.995-15.827C87.339,246.629,81.233,193.293,59.61,175.69z"/>
				</g>
				<g>
					<path class="st7" d="M87.812,156.068c0,0-3.759,14.574-4.283,22.938c0,0-6.609,5.911-12.313,0.44
						c0,0-2.217-21.897-6.869-25.255C59.693,150.834,87.812,156.068,87.812,156.068z"/>
				</g>
				<g>
					<path class="st8" d="M62.456,135.861c0,0,17.606-10.755,28.48-4.481c0,0,1.191,11.095,2.344,19.515
						c1.153,8.429,1.161,16.681-4.794,18.635c0,0-17.24,3.807-22.554-7.318C61.156,152.202,59.128,139.582,62.456,135.861z"/>
				</g>
				<g>
					<path class="st5" d="M81.041,347.324c0,0-4.611-0.786-5.305,1.717c-0.697,2.503-0.966,70.605-0.966,88.226
						c0,0,6.366,3.233,8.509,0c3.292-4.974,11.731-75.709,11.731-75.709L81.041,347.324z"/>
				</g>
				<g>
					<g>
						<g>
							<path class="st8" d="M75.662,238.844c0,0,5.982,0.124,9.943,5.125c3.966,5.001-0.514,2.539-13.625-3.881L75.662,238.844z"/>
						</g>
						<g>
							<path class="st8" d="M75.662,238.844c0,0,2.929,1.885,7.082,5.707c4.147,3.828,4.268,4.2,6.641,6.919
								c1.649,1.889-0.86,1.203-1.014,1.229c-0.097,0.009,0.319,0.166-0.201,0.576c-0.328,0.257-1.436,0.529-2.063,0.499
								c-0.396-0.024-1.903,0.349-2.506,0.316c-2.902-0.145-6.987,0.34-14.707-7.259C68.894,246.833,68.964,237.818,75.662,238.844z
								"/>
						</g>
					</g>
				</g>
				<g>
					<path class="st5" d="M60.89,144.225c0,0,27.324,3.739,34.027-10.921c0,0,5.728-15.129-5.639-13.962c0,0-4.197,1.939-7.058,2.84
						c-2.864,0.91-6.83-1.076-7.732-1.478c-0.901-0.402-7.318-1.318-11.166,3.665c-3.848,4.977-2.645,7.581-4.099,8.509
						c-1.451,0.925-4.034,0.526-7.276,4.33c-3.245,3.807-0.893,10.823,2.645,14.429c3.538,3.609,4.729,6.851,4.327,8.359
						c-0.399,1.51,1.478,5.84,6.396,4.244c0,0-7.108-11.249,1.761-8.459C67.076,155.782,66.612,147.754,60.89,144.225z"/>
				</g>
				<g>
					<path class="st8" d="M68.362,157.289c1.862,3.222,1.888,6.692,0.065,7.749c-1.829,1.052-4.826-0.698-6.685-3.925
						c-1.865-3.221-1.888-6.691-0.065-7.749C63.509,152.306,66.5,154.061,68.362,157.289z"/>
				</g>
			</g>
			<g>
				<path class="st5" d="M63.828,174.307c0,0-2.489-12.224-11.601-12.283c0,0-8.482,1.129-4.992,9.611
					c2.69,6.552,5.97,4.643,5.97,4.643l1.664-0.966c0,0-6.381-6.348-2.131-8.559c0,0,5.427-2.568,9.576,7.868L63.828,174.307z"/>
			</g>
		</g>
	</g>
</g>
</svg>
