<?xml version="1.0" encoding="utf-8"?>
<!-- Generator: Adobe Illustrator 25.0.0, SVG Export Plug-In . SVG Version: 6.00 Build 0)  -->
<svg version="1.1" id="Layer_1" xmlns="http://www.w3.org/2000/svg" xmlns:xlink="http://www.w3.org/1999/xlink" x="0px" y="0px"
	 viewBox="0 0 630 210" style="enable-background:new 0 0 630 210;" xml:space="preserve">
<style type="text/css">
	.st0{opacity:0.4;}
	.st1{fill:#310E3F;}
	.st2{fill:#E0BDAE;}
	.st3{fill:#91ABB1;}
	.st4{fill:#8A3E6E;}
	.st5{fill:#FCF065;}
	.st6{fill:#EB519B;}
	.st7{fill:#FFFFFF;}
	.st8{fill:#A9DFF6;}
	.st9{fill:#2F141A;}
	.st10{fill:#D28ABB;}
	.st11{fill:#50B748;}
	.st12{fill:#CBAC94;}
	.st13{fill:#443E39;}
	.st14{fill:#E4A2AC;}
	.st15{fill:#E5B829;}
	.st16{opacity:0.25;}
	.st17{fill:#0B8266;}
</style>
<path d="M552.493,150.041H260.722c-19.704,0-35.826-16.122-35.826-35.826l0,0c0-19.704,16.122-35.826,35.826-35.826h291.772
	c19.704,0,35.826,16.122,35.826,35.826l0,0C588.319,133.919,572.197,150.041,552.493,150.041z"/>
<g>
	<g class="st0">
		<path class="st1" d="M228.734,195.487c0-4.21-48.485-7.624-108.291-7.624s-108.291,3.413-108.291,7.624
			c0,2.509,17.202,4.732,43.752,6.122c-0.44,0.232-0.678,0.472-0.678,0.718c0,1.905,13.886,3.449,31.016,3.449
			c14.72,0,27.037-1.141,30.212-2.67c1.325,0.004,2.652,0.007,3.989,0.007c3.976,0,7.902-0.016,11.768-0.044
			c3.044,1.548,15.447,2.711,30.293,2.711c17.13,0,31.016-1.545,31.016-3.449c0-0.389-0.587-0.761-1.65-1.109
			C214.469,199.818,228.734,197.771,228.734,195.487z"/>
	</g>
	<g>
		<path class="st2" d="M207.224,56.245c1.827,0.794,3.503,2.147,5.493,2.223c0.221,0.008,0.431,0.008,0.634,0.004
			c4.879-0.121,4.616-3.983,7.243-7.016c0.88-1.015,2.041-1.75,3.25-2.337c8.709-4.216,22.786,0.533,21.951,11.613
			c-0.276,3.669-1.891,7.105-3.781,10.26c-5.005,8.344-13.439,11.811-19.651,18.907c-1.468,1.678-3.129,3.17-4.795,4.647
			c-1.744,1.548-2.799,2.946-4.062,4.903c-3.078,4.781-6.706,9.296-9.844,14.087c-2.891,4.414-5.674,8.898-8.346,13.449
			c-1.07,1.824-3.606,7.976-6.578,7.11c-3.322-0.968-2.081-10.63-3.476-13.176c-2.545-4.649-4.735-7.186-4.186-12.894
			c0.304-3.153,1.763-5.705,3.66-8.117c1.198-1.523,2.171-3.294,3.237-4.911c0.607-0.924,2.915-3.363,2.915-4.423
			c1.51-2.292,2.885-4.818,4.713-6.864c2.207-2.466,4.081-5.265,5.935-8.031c0.911-1.36,1.797-2.798,2.052-4.412
			c0.361-2.305-0.742-4.03-1.283-6.152C201.371,61.446,201.096,53.582,207.224,56.245z"/>
	</g>
	<g>
		<path d="M189.936,135.831c1.261-2.062,2.49-4.147,3.702-6.237c1.223-2.085,2.423-4.18,3.617-6.283
			c2.394-4.2,4.745-8.431,7.267-12.578c2.532-4.138,5.213-8.208,8.204-12.07c2.993-3.857,6.285-7.505,9.888-10.831
			c1.797-1.667,3.669-3.255,5.608-4.756c1.888-1.479,3.726-2.987,5.47-4.592c1.741-1.601,3.386-3.297,4.85-5.104
			c0.748-0.892,1.407-1.837,2.037-2.794c0.597-0.971,1.156-1.961,1.589-2.988c0.869-2.057,1.334-4.228,1.215-6.412
			c-0.1-2.188-0.733-4.363-1.593-6.509c-0.431-1.073-0.924-2.141-1.44-3.209c-0.521-1.067-1.062-2.163-1.601-3.216
			c-0.541-1.06-1.094-2.099-1.691-3.059c-0.595-0.956-1.245-1.837-1.961-2.436c-0.718-0.604-1.455-0.899-2.373-0.93
			c-0.913-0.03-1.961,0.193-3.008,0.533c-0.264,0.091-0.527,0.174-0.79,0.28l-0.394,0.15c-0.118,0.052-0.238,0.095-0.35,0.15
			c-0.459,0.21-0.886,0.457-1.275,0.748c-0.775,0.58-1.404,1.351-1.926,2.273c-1.037,1.859-1.674,4.155-2.279,6.447
			c-0.159,0.606-0.274,1.077-0.362,1.634c-0.086,0.544-0.149,1.104-0.196,1.684c-0.108,1.164-0.102,2.366-0.376,3.779
			c-0.15,0.697-0.378,1.528-1.039,2.305c-0.328,0.38-0.758,0.699-1.203,0.903c-0.444,0.202-0.888,0.311-1.296,0.359
			c-0.82,0.095-1.537,0.019-2.214-0.09c-0.338-0.058-0.667-0.122-0.985-0.202l-0.482-0.122c-0.204-0.058-0.399-0.121-0.58-0.196
			c-0.728-0.293-1.313-0.667-1.859-1.045c-0.544-0.38-1.041-0.778-1.521-1.17c-0.958-0.788-1.857-1.583-2.762-2.274
			c-0.89-0.686-1.848-1.305-2.628-1.476c-0.389-0.085-0.661-0.062-0.919,0.058c-0.261,0.114-0.557,0.378-0.827,0.752
			c-0.272,0.371-0.505,0.844-0.682,1.275c-0.164,0.444-0.252,0.896-0.274,1.362c-0.053,0.932,0.238,1.95,0.64,3.016
			c0.406,1.07,0.932,2.188,1.338,3.435c0.2,0.624,0.376,1.277,0.476,1.962c0.098,0.686,0.121,1.396,0.062,2.104
			c-0.146,1.417-0.654,2.762-1.36,3.896c-0.176,0.284-0.35,0.571-0.551,0.833c-0.196,0.272-0.389,0.535-0.563,0.763
			c-0.359,0.478-0.721,0.946-1.077,1.434c-2.853,3.873-5.669,7.811-8.482,11.74l-8.465,11.787c-1.417,1.961-2.844,3.917-4.302,5.852
			c-1.463,1.935-2.906,3.873-4.486,5.748l-0.899-0.742c1.472-1.874,2.855-3.864,4.242-5.835l4.123-5.956l8.169-11.98
			c2.728-3.995,5.419-8.006,8.233-11.969c0.348-0.495,0.718-0.99,1.077-1.485c0.191-0.256,0.348-0.482,0.501-0.706
			c0.166-0.223,0.3-0.457,0.438-0.689c0.554-0.929,0.886-1.912,0.977-2.906c0.072-0.996-0.11-2.014-0.48-3.062
			c-0.357-1.048-0.88-2.116-1.353-3.297c-0.461-1.177-0.918-2.523-0.875-4.023c0.019-0.739,0.155-1.489,0.402-2.183
			c0.268-0.692,0.569-1.315,1.002-1.926c0.431-0.604,1.015-1.23,1.857-1.629c0.414-0.197,0.88-0.321,1.334-0.357
			s0.892,0.007,1.291,0.091c0.803,0.174,1.463,0.495,2.062,0.833c0.597,0.343,1.137,0.72,1.647,1.103
			c1.02,0.767,1.942,1.57,2.859,2.307c0.903,0.726,1.846,1.435,2.657,1.753c0.1,0.04,0.191,0.067,0.278,0.091l0.397,0.094
			c0.27,0.062,0.533,0.108,0.792,0.149c0.516,0.079,1.015,0.102,1.398,0.048c0.191-0.025,0.338-0.074,0.444-0.126
			c0.104-0.053,0.166-0.104,0.232-0.185c0.131-0.149,0.283-0.514,0.367-0.994c0.174-0.966,0.193-2.196,0.288-3.437
			c0.047-0.626,0.108-1.269,0.209-1.919c0.094-0.64,0.259-1.344,0.406-1.91c0.302-1.189,0.62-2.385,1.011-3.587
			c0.395-1.203,0.856-2.417,1.517-3.609c0.659-1.186,1.564-2.345,2.725-3.225c0.576-0.44,1.2-0.803,1.837-1.101
			c0.159-0.076,0.321-0.14,0.48-0.21l0.452-0.176c0.297-0.121,0.61-0.224,0.916-0.334c1.241-0.41,2.589-0.752,4.1-0.701
			c0.75,0.025,1.537,0.173,2.274,0.466c0.739,0.288,1.407,0.716,1.971,1.196c1.137,0.968,1.905,2.085,2.589,3.172
			c0.678,1.096,1.255,2.195,1.814,3.288c0.559,1.101,1.087,2.171,1.625,3.278c0.533,1.107,1.054,2.237,1.521,3.407
			c0.941,2.33,1.659,4.873,1.753,7.531c0.117,2.657-0.495,5.325-1.537,7.7c-0.521,1.194-1.167,2.309-1.85,3.386
			c-0.712,1.054-1.451,2.086-2.269,3.038c-1.615,1.926-3.396,3.662-5.245,5.293c-1.85,1.629-3.79,3.146-5.739,4.606
			c-1.912,1.423-3.755,2.936-5.553,4.504c-7.205,6.271-13.136,13.897-18.443,21.93c-2.666,4.017-5.238,8.111-7.823,12.199
			c-1.294,2.044-2.594,4.085-3.917,6.111C192.684,131.848,191.322,133.85,189.936,135.831z"/>
	</g>
	<g>
		<path class="st2" d="M54.343,186.347c-0.949,1.506-1.744,3.112-2.679,4.61c-0.707,1.132-0.825,2.347-1.986,3.177
			c-2.238,1.601-3.522,1.07-6.052,0.523c-2.398-0.521-4.754-1.222-7.07-2.031c-2.394-0.837-5.024-0.024-7.481,0.338
			c-2.292,0.335-4.497,1.62-6.74,2.214c-3.41,0.901-6.884,0.505-10.187-0.629c-2.182-0.748-8.639-6.175-4.149-8.276
			c2.021-0.946,4.276-1.719,6.366-2.555c1.896-0.758,3.898-1.721,5.793-2.652c1.804-0.89,3.809-1.225,5.347-2.589
			c1.487-1.319,3.137-2.124,4.875-3.127c2.288-1.319,4.505-2.758,6.64-4.311c1.13-0.822,2.383-1.493,3.481-2.354
			c0.882-0.69,1.421-1.564,2.159-2.417c2.117-2.458,4.342-4.875,6.436-7.307c2.269-2.637,3.741-6.721,5.005-9.923
			c1.521-3.851,3.087-7.815,3.609-11.946c0.433-3.437,0.476-7.01,1.631-10.311c0.863-2.464,4.418-4.956,7.101-4.351
			c2.175,0.491,4.202,2.439,6.459,3.136c5.553,1.714,7.629,6.226,8.242,11.628c0.692,6.109-2.436,10.606-5.194,15.781
			c-3.578,6.713-5.412,14.258-9.427,20.747c-1.587,2.564-3.573,4.922-6.003,6.725C58.066,182.264,56.022,183.685,54.343,186.347z"/>
	</g>
	<g>
		<path d="M58.433,118.536c0.37,2.38,0.623,4.784,0.695,7.201c0.064,2.416-0.012,4.841-0.238,7.255
			c-0.444,4.828-1.476,9.629-3.167,14.213c-0.837,2.294-1.821,4.537-2.942,6.71c-1.126,2.173-2.409,4.265-3.807,6.279
			c-2.802,4.021-6.069,7.717-9.744,10.98c-3.689,3.267-7.83,6.02-12.206,8.252c-4.37,2.25-9.017,3.904-13.512,5.517
			c-1.115,0.412-2.223,0.827-3.242,1.294c-0.508,0.233-0.992,0.482-1.413,0.748c-0.408,0.264-0.763,0.559-0.907,0.788
			c-0.157,0.236-0.155,0.319-0.131,0.587c0.055,0.272,0.223,0.67,0.493,1.073c0.259,0.412,0.616,0.818,0.952,1.206
			c0.357,0.37,0.728,0.723,1.137,1.024c0.809,0.607,1.726,1.06,2.721,1.357c1.001,0.292,2.073,0.433,3.176,0.473
			c2.211,0.076,4.525-0.257,6.851-0.665c2.333-0.412,4.693-0.924,7.131-1.305c0.61-0.095,1.223-0.182,1.843-0.256
			c0.314-0.031,0.59-0.081,1.028-0.095c0.39-0.012,0.75,0.008,1.096,0.04c1.374,0.14,2.578,0.44,3.774,0.745
			c2.371,0.616,4.654,1.327,6.887,1.74c1.098,0.2,2.224,0.323,3.078,0.191c0.425-0.064,0.707-0.202,0.827-0.321
			c0.066-0.066,0.11-0.114,0.166-0.245c0.126-0.292,0.252-0.582,0.386-0.867c1.065-2.279,2.326-4.433,3.813-6.462
			c1.493-2.016,3.214-3.921,5.336-5.465c1.062-0.765,2.243-1.421,3.531-1.884c1.297-0.442,2.696-0.682,4.114-0.576
			c0.733,0.052,1.457,0.221,2.119,0.461c0.659,0.233,1.272,0.552,1.744,0.767c0.219,0.107,0.444,0.166,0.38,0.149
			c-0.016,0.002-0.149,0.008-0.228,0.058c-0.091,0.058-0.108,0.074-0.098,0.071c0.031-0.025,0.138-0.219,0.217-0.425
			c0.086-0.209,0.164-0.466,0.238-0.721c0.145-0.512,0.27-1.111,0.374-1.631c0.044-0.212,0.053-0.399,0.047-0.486
			c-0.019-0.095,0.011-0.002,0.066,0.028c0.047,0.024-0.038-0.043-0.228-0.074c-0.185-0.038-0.44-0.058-0.725-0.072
			c-0.287-0.016-0.601-0.021-0.96-0.055c-0.359-0.038-0.769-0.079-1.283-0.307c-0.252-0.118-0.535-0.3-0.767-0.564
			c-0.232-0.264-0.386-0.587-0.463-0.873c-0.149-0.585-0.086-1.029-0.024-1.417c0.072-0.385,0.185-0.737,0.278-1.013l0.292-0.883
			c0.187-0.597,0.41-1.153,0.616-1.729c0.209-0.574,0.421-1.143,0.643-1.703c1.765-4.509,3.652-8.941,5.564-13.367
			c1.915-4.423,3.873-8.824,5.867-13.21c0.992-2.195,2.012-4.38,3.048-6.555c1.048-2.175,2.077-4.346,3.228-6.494l1.032,0.54
			c-2.088,4.291-3.936,8.749-5.845,13.154c-1.888,4.421-3.738,8.86-5.546,13.312c-1.804,4.453-3.584,8.922-5.223,13.414
			c-0.21,0.561-0.412,1.122-0.604,1.683c-0.191,0.561-0.406,1.123-0.569,1.68l-0.261,0.835c-0.098,0.295-0.154,0.521-0.185,0.728
			c-0.031,0.2-0.012,0.374,0,0.371c0.004,0.002-0.011-0.047-0.043-0.083c-0.031-0.04-0.058-0.053-0.036-0.047
			c0.038,0.017,0.236,0.058,0.473,0.066c0.24,0.012,0.527,0.011,0.844,0.012c0.319,0.004,0.665,0.011,1.075,0.071
			c0.399,0.066,0.911,0.178,1.432,0.582c0.256,0.2,0.478,0.476,0.623,0.761c0.146,0.284,0.224,0.569,0.268,0.825
			c0.074,0.509,0.036,0.93-0.019,1.308c-0.118,0.663-0.236,1.242-0.406,1.893c-0.086,0.323-0.178,0.643-0.314,0.994
			c-0.142,0.35-0.283,0.716-0.631,1.158c-0.19,0.219-0.416,0.461-0.786,0.642c-0.348,0.178-0.786,0.252-1.101,0.228
			c-0.67-0.047-1.009-0.233-1.341-0.361c-0.626-0.278-1.087-0.508-1.565-0.67c-0.472-0.164-0.93-0.259-1.399-0.287
			c-0.985-0.062-2.005,0.121-2.979,0.463c-0.973,0.366-1.914,0.892-2.795,1.545c-1.763,1.311-3.299,3.029-4.642,4.891
			c-1.344,1.864-2.519,3.887-3.477,5.973c-0.119,0.261-0.232,0.523-0.343,0.784c-0.173,0.426-0.472,0.89-0.839,1.239
			c-0.754,0.725-1.661,1.007-2.416,1.134c-1.536,0.229-2.836,0.036-4.1-0.168c-2.506-0.445-4.831-1.159-7.122-1.731
			c-1.137-0.28-2.278-0.554-3.302-0.656c-0.252-0.024-0.495-0.036-0.706-0.03c-0.164,0-0.482,0.044-0.767,0.076
			c-0.574,0.066-1.151,0.149-1.731,0.238c-2.318,0.359-4.663,0.863-7.071,1.288c-2.407,0.416-4.887,0.788-7.495,0.701
			c-1.3-0.047-2.632-0.219-3.943-0.601c-1.308-0.389-2.585-1.015-3.698-1.855c-0.561-0.416-1.065-0.894-1.54-1.391
			c-0.228-0.257-0.445-0.518-0.665-0.781c-0.209-0.27-0.41-0.552-0.606-0.852c-0.383-0.606-0.752-1.308-0.919-2.223
			c-0.072-0.463-0.074-0.982,0.04-1.487c0.11-0.509,0.348-0.973,0.616-1.347c0.546-0.763,1.181-1.203,1.776-1.591
			c0.601-0.371,1.194-0.665,1.781-0.928c1.175-0.524,2.328-0.941,3.473-1.353c2.29-0.811,4.544-1.574,6.759-2.428
			c2.216-0.85,4.382-1.785,6.5-2.818c4.233-2.064,8.216-4.611,11.794-7.664c3.569-3.074,6.848-6.519,9.665-10.311
			c2.817-3.794,5.175-7.937,6.986-12.32c1.799-4.389,3.09-9.006,3.79-13.733C58.706,128.156,58.83,123.335,58.433,118.536z"/>
	</g>
	<g>
		<g>
			<path class="st3" d="M67.828,154.73c0.792,4.045,19.029,34.683,39.625,38.535c-1.222-3.333-1.481-4.772-1.481-4.772
				s15.424,8.798,49.695,0.949c-2.385-0.846-4.63-2.343-4.63-2.343s23.311-6.449,31.277-22.389
				c9.223-18.462-23.398-10.624-23.398-10.624l-75.09-5.504L67.828,154.73z"/>
		</g>
		<g>
			<path d="M68.151,154.909c0.066,0,0.091-0.066,0.086-0.059l0.062,0.197c0.047,0.131,0.091,0.265,0.146,0.399
				c0.104,0.268,0.223,0.533,0.343,0.799c0.245,0.532,0.509,1.054,0.786,1.574c0.552,1.041,1.143,2.062,1.755,3.074
				c1.225,2.021,2.538,3.989,3.912,5.914c2.749,3.847,5.746,7.519,9.002,10.937c3.26,3.407,6.789,6.57,10.67,9.202
				c3.873,2.615,8.144,4.716,12.684,5.54l0,0l-0.892,1.054c-0.223-0.816-0.433-1.633-0.623-2.459
				c-0.095-0.412-0.185-0.827-0.265-1.242c-0.081-0.421-0.155-0.827-0.21-1.275v-0.002l-0.136-0.726l0.68,0.342
				c1.813,0.911,3.841,1.548,5.845,2.076c2.021,0.518,4.074,0.913,6.144,1.198c4.14,0.576,8.331,0.735,12.512,0.64
				c4.183-0.102,8.354-0.497,12.499-1.084c4.145-0.59,8.255-1.399,12.329-2.371l0,0l-0.091,1.595
				c-0.835-0.383-1.62-0.82-2.375-1.294c-0.756-0.476-1.476-0.975-2.182-1.525l0,0l-0.635-0.423l0.742-0.238
				c2.9-0.929,5.758-2.08,8.527-3.375c2.77-1.3,5.472-2.742,8.04-4.389c2.564-1.648,5.007-3.481,7.231-5.541
				c2.218-2.064,4.205-4.373,5.78-6.937c0.773-1.285,1.485-2.623,1.993-4.009c0.516-1.374,0.85-2.827,0.697-4.186
				c-0.079-0.675-0.292-1.315-0.637-1.878c-0.348-0.561-0.844-1.034-1.413-1.427c-1.147-0.786-2.581-1.222-4.031-1.493
				c-2.932-0.521-6.001-0.444-9.028-0.19c-3.027,0.276-6.069,0.756-9.025,1.421l-0.108,0.024l-0.1-0.008l-37.535-2.846
				l-37.529-2.961l0,0l0.159-0.024C78.7,150.952,73.447,152.931,68.151,154.909z M67.507,154.551
				c5.368-2.117,10.78-4.235,16.187-6.311l0.076-0.03l0.083,0.007l0,0l37.56,2.542l37.552,2.656l-0.205,0.017
				c3.054-0.695,6.111-1.181,9.218-1.472c3.101-0.268,6.252-0.362,9.402,0.185c1.564,0.293,3.156,0.75,4.569,1.703
				c0.699,0.478,1.344,1.087,1.812,1.836s0.748,1.606,0.847,2.458c0.19,1.719-0.212,3.354-0.769,4.85
				c-0.563,1.506-1.315,2.897-2.136,4.244c-1.67,2.68-3.755,5.068-6.058,7.186c-2.301,2.127-4.841,3.964-7.49,5.593
				c-2.652,1.627-5.415,3.063-8.261,4.299c-2.853,1.225-5.749,2.321-8.756,3.142l0.107-0.661l0,0
				c0.748,0.394,1.536,0.754,2.321,1.07c0.788,0.319,1.587,0.59,2.383,0.794l2.904,0.745l-2.997,0.85l0,0
				c-4.133,0.905-8.306,1.648-12.509,2.167c-4.202,0.516-8.433,0.839-12.669,0.864c-4.235,0.019-8.48-0.219-12.674-0.882
				c-2.097-0.328-4.174-0.767-6.222-1.332c-2.048-0.582-4.055-1.242-5.99-2.26l0.544-0.385l0,0c0.11,0.37,0.256,0.767,0.399,1.15
				c0.146,0.385,0.3,0.767,0.459,1.15c0.319,0.763,0.656,1.517,1.007,2.266l0.585,1.251l-1.476-0.197l0,0
				c-4.828-0.954-9.232-3.222-13.172-5.967c-3.947-2.766-7.484-6.039-10.735-9.54c-3.246-3.512-6.216-7.265-8.933-11.188
				c-1.355-1.962-2.651-3.968-3.86-6.028c-0.604-1.03-1.187-2.073-1.731-3.14c-0.272-0.533-0.535-1.073-0.78-1.625
				c-0.121-0.276-0.242-0.554-0.348-0.844c-0.055-0.142-0.104-0.292-0.155-0.44l-0.067-0.229
				C67.485,154.909,67.476,154.696,67.507,154.551z"/>
		</g>
	</g>
	<g>
		<path class="st4" d="M83.92,144.075c-6.144,10.163,4.887,29.841,17.607,34.542c-0.918-3.062,0.754-6.944,0.754-6.944
			s1.578,16.208,33.562,13.776c-1.959-1.245-3.709-4.63-2.868-4.354c12.477,4.07,26.321-3.956,24.879-4.903
			c-3.705-2.436,4.547-1.302,12.884-11.171c-10.986-4.354-8.288-21.205-8.288-21.205l-16.044-1.655l-49.039-0.284L83.92,144.075z"/>
	</g>
	<g>
		<g>
			<path class="st3" d="M68.045,152.523c-14.963-24.362-12.732-44.768-9.578-60.117c0,0,2.689,2.988,5.901,3.609
				c-1.799-5.555-3.598-12.011-0.597-19.88l3.987,3.35c0,0-0.947-19.604,25.233-31.601l-1.757,8.911
				c0,0,13.621-23.912,64.862-12.256c-5.384,3.302-7.717,8.057-7.717,8.057s27.512-8.737,45.114,28.105
				c-4.804-2.818-8.909-2.022-8.909-2.022s18.567,18.99,12.992,42.359l-3.426-3.794c0,0,3.39,21.992-8.705,38.804
				c0,0-11.704-11.585-29.62-11.458s-63.146-2.802-65.906-2.29C87.161,142.812,68.045,152.523,68.045,152.523z"/>
		</g>
		<g>
			<path d="M67.943,152.886c-0.801-1.123-1.638-2.451-2.228-3.539c-0.663-1.13-1.264-2.294-1.879-3.449
				c-1.192-2.334-2.279-4.721-3.252-7.16c-1.952-4.873-3.38-9.965-4.235-15.158c-0.854-5.194-1.126-10.486-0.858-15.745
				c0.252-5.261,1.03-10.481,2.041-15.621l0.355-1.804l1.294,1.355l0,0c0.304,0.395,0.699,0.828,1.087,1.215
				c0.395,0.39,0.816,0.761,1.253,1.104c0.88,0.682,1.855,1.245,2.919,1.564l-0.43,0.485l0,0c-1.13-3.197-2.147-6.513-2.426-9.988
				c-0.145-1.731-0.107-3.488,0.127-5.223c0.232-1.735,0.659-3.446,1.232-5.1l0.399-1.153l0.992,0.792l0,0l3.66,3.736l-0.618,0.306
				l0,0c-0.035-0.939,0.031-1.827,0.136-2.728c0.102-0.899,0.261-1.788,0.454-2.668c0.389-1.763,0.937-3.49,1.634-5.158
				c0.692-1.667,1.523-3.28,2.471-4.822c0.954-1.536,2.026-2.998,3.186-4.387c1.15-1.399,2.436-2.675,3.753-3.915
				c0.68-0.595,1.343-1.213,2.058-1.767l1.058-0.85l1.092-0.803c2.923-2.128,6.061-3.949,9.317-5.504L94.423,46l-0.376,2.094l0,0
				L91.6,56.869l-0.69-0.261l0,0c0.797-1.302,1.755-2.404,2.778-3.473c1.028-1.056,2.14-2.025,3.299-2.928
				c2.334-1.788,4.873-3.308,7.545-4.528c2.668-1.23,5.449-2.205,8.287-2.955c2.841-0.737,5.733-1.251,8.641-1.619
				c5.824-0.659,11.711-0.69,17.54-0.204c5.831,0.482,11.615,1.417,17.324,2.649l2.33,0.504l-2.025,1.351h-0.002
				c-0.781,0.438-1.559,0.896-2.288,1.432c-0.742,0.521-1.44,1.104-2.112,1.722c-0.673,0.616-1.305,1.285-1.896,1.986
				c-0.588,0.699-1.151,1.451-1.612,2.216l-0.45-0.524h0.002c2.388-0.692,4.811-0.956,7.256-1.009c2.44-0.043,4.887,0.19,7.288,0.67
				c4.803,0.96,9.38,2.982,13.416,5.762c4.042,2.781,7.564,6.273,10.561,10.13c3.011,3.855,5.529,8.07,7.685,12.439l1.474,2.988
				l-3.006-1.583l0,0c-0.601-0.403-1.222-0.799-1.878-1.12c-0.65-0.343-1.336-0.606-2.037-0.846
				c-0.703-0.229-1.427-0.399-2.164-0.512c-0.728-0.11-1.501-0.164-2.209-0.113l0.197-0.631l0,0
				c2.687,2.822,4.979,5.942,7.018,9.236c2.026,3.302,3.745,6.804,5.044,10.475c1.297,3.669,2.167,7.512,2.472,11.422
				c0.314,3.909,0.028,7.877-0.828,11.723l0,0l-0.69,1.942l-1.048-1.498l-2.952-4.221l0,0l0.65-0.311
				c0.491,3.401,0.61,6.808,0.523,10.223c-0.107,3.412-0.449,6.823-1.094,10.19c-0.643,3.365-1.57,6.687-2.853,9.883
				c-1.258,3.208-2.916,6.266-4.877,9.122l0,0l-0.626,0.903l-0.818-0.784c-0.852-0.818-1.846-1.629-2.834-2.375
				c-0.999-0.752-2.029-1.463-3.089-2.128c-2.122-1.33-4.346-2.504-6.657-3.471c-2.305-0.982-4.701-1.744-7.137-2.318
				c-2.44-0.552-4.93-0.892-7.433-1.002c-0.626-0.024-1.249-0.028-1.879-0.038l-1.924-0.008l-3.841-0.062
				c-2.56-0.058-5.115-0.142-7.67-0.233c-5.108-0.187-10.216-0.423-15.318-0.671c-10.207-0.491-20.41-1.084-30.607-1.529
				c-1.275-0.053-2.549-0.098-3.819-0.13c-0.634-0.012-1.272-0.025-1.891-0.012c-0.325,0.012-0.58,0.004-0.846,0.081
				c-0.272,0.071-0.569,0.174-0.861,0.278c-2.347,0.894-4.67,1.986-6.98,3.054c-2.309,1.081-4.61,2.188-6.903,3.305l-3.446,1.695
				l-1.716,0.85l-0.856,0.426l-0.43,0.214l-0.214,0.107l-0.107,0.053l-0.059,0.03C68.17,152.884,68.04,152.901,67.943,152.886z
				 M68.147,152.163c-0.062-0.035-0.155-0.035-0.212-0.004l0.047-0.024l0.107-0.055l0.212-0.108l0.426-0.219l0.854-0.435l1.71-0.867
				l3.424-1.721c2.288-1.141,4.58-2.271,6.887-3.377c2.316-1.096,4.61-2.205,7.027-3.153c0.307-0.114,0.611-0.228,0.958-0.319
				c0.35-0.104,0.744-0.104,1.054-0.119c0.659-0.021,1.296-0.012,1.939-0.007c1.283,0.019,2.561,0.053,3.841,0.094
				c10.219,0.35,20.422,0.847,30.629,1.241c5.103,0.2,10.204,0.386,15.307,0.527c2.551,0.067,5.099,0.13,7.65,0.162l3.821,0.025
				l1.907-0.011c0.646,0.007,1.3,0.004,1.95,0.021c2.602,0.091,5.198,0.421,7.743,0.971c2.541,0.571,5.039,1.343,7.443,2.34
				c2.411,0.982,4.73,2.179,6.951,3.541c1.109,0.682,2.188,1.413,3.237,2.188c1.056,0.784,2.054,1.578,3.054,2.519l-1.443,0.121l0,0
				c1.948-2.675,3.628-5.564,4.93-8.629c1.327-3.054,2.325-6.262,3.046-9.532c0.726-3.272,1.158-6.61,1.357-9.966
				c0.182-3.35,0.157-6.744-0.224-10.064l-0.14-1.209l0.79,0.901l0,0l3.9,3.366l-1.738,0.444l0,0
				c0.911-3.624,1.291-7.389,1.094-11.143c-0.19-3.753-0.922-7.486-2.085-11.086c-1.164-3.603-2.749-7.076-4.647-10.373
				c-1.907-3.284-4.103-6.447-6.636-9.26l0,0l-0.535-0.463l0.733-0.168c0.827-0.19,1.612-0.247,2.428-0.256
				c0.809,0,1.623,0.059,2.426,0.193c0.801,0.142,1.606,0.316,2.383,0.584c0.786,0.247,1.542,0.576,2.292,0.93l0,0l-1.529,1.407
				c-1.997-4.312-4.346-8.469-7.172-12.275c-2.813-3.81-6.128-7.26-9.959-10.037c-3.824-2.775-8.18-4.832-12.804-5.878
				c-2.309-0.521-4.678-0.805-7.05-0.822c-2.362-0.011-4.775,0.2-7.034,0.797h-0.002l-0.839,0.325l0.386-0.847
				c0.412-0.901,0.894-1.719,1.429-2.526c0.535-0.801,1.115-1.576,1.752-2.309c0.635-0.733,1.308-1.438,2.039-2.088
				c0.718-0.665,1.501-1.258,2.302-1.833h0.002l0.306,1.855c-5.614-1.319-11.298-2.343-17.029-2.923
				c-5.729-0.587-11.508-0.656-17.233-0.118c-2.858,0.307-5.7,0.758-8.49,1.429c-2.787,0.684-5.521,1.587-8.149,2.739
				c-2.63,1.145-5.131,2.581-7.435,4.28c-1.145,0.858-2.243,1.781-3.258,2.787c-1.002,1.002-1.975,2.097-2.715,3.26l0,0L90.6,58.974
				l0.264-2.245l1.065-9.047l0,0l1.51,1.191c-3.201,1.402-6.29,3.059-9.177,5.02l-1.079,0.739l-1.045,0.784
				c-0.707,0.512-1.362,1.085-2.039,1.636c-1.306,1.151-2.587,2.339-3.738,3.65c-1.159,1.3-2.238,2.672-3.208,4.123
				c-0.963,1.455-1.814,2.982-2.537,4.571c-0.726,1.587-1.31,3.239-1.744,4.933c-0.43,1.683-0.73,3.446-0.742,5.147l0,0l0.119,0.811
				l-0.735-0.505l-4.312-2.961l0,0l1.391-0.361c-0.612,1.521-1.09,3.094-1.389,4.707c-0.3,1.612-0.418,3.26-0.366,4.913
				c0.098,3.314,0.916,6.594,1.884,9.828l0,0l0.233,0.568l-0.663-0.083c-1.234-0.154-2.412-0.597-3.498-1.179
				c-0.541-0.295-1.067-0.62-1.57-0.977c-0.509-0.362-0.977-0.723-1.472-1.183l0,0l1.648-0.449
				c-1.096,5.068-1.95,10.177-2.294,15.331c-0.359,5.149-0.187,10.333,0.554,15.445c0.744,5.111,2.052,10.144,3.89,14.986
				c0.916,2.422,1.947,4.803,3.082,7.133c0.588,1.156,1.162,2.32,1.797,3.452c0.307,0.564,0.635,1.162,0.907,1.639
				C67.623,151.091,67.877,151.612,68.147,152.163z"/>
		</g>
	</g>
	<g>
		
			<ellipse transform="matrix(0.0207 -0.9998 0.9998 0.0207 8.0759 240.3016)" class="st5" cx="126.702" cy="116.028" rx="31.189" ry="16.063"/>
	</g>
	<g>
		<path class="st6" d="M106.355,81.112c-30.176-7.044-35.733,17.07-35.733,17.07s-4.725-3.974-4.283-16.098
			c3.297,8.87,6.136,9.816,8.161,10.379c0.784,0.217,0,0-0.323-0.745c-5.62-12.974,4.055-30.858,13.595-36.936
			c-2.817,9.436-1.515,15.11,1.001,21.754c0.499-1.979-1.525-31.028,56.803-29.817c0,0-7.645,7.711-8.117,14.37
			c9.716-5.465,32.64-1.961,49.21,13.049c0,0-8.004-2.237-10.765,1.887c13.817,8.459,20.885,25.061,18.935,36.623
			c-4.928-6.116-21.38-31.582-28.267-25.065c-9.61-10.859-30.992,0.956-39.153,15.66C127.418,103.241,112.42,82.526,106.355,81.112z
			"/>
	</g>
	<g>
		<g>
			<path class="st7" d="M117.727,112.198c0.454,15.849-1.574,29.297-14.249,31.038c-9.852,1.355-19.538-10.765-22.098-24.83
				c-2.858-15.709-3.86-29.273,14.015-33.951C113.269,79.778,117.121,91.057,117.727,112.198z"/>
		</g>
		<g>
			<path d="M118.323,112.18c0.118,3.338,0.136,6.685-0.076,10.039c-0.223,3.348-0.661,6.716-1.67,9.986
				c-0.512,1.629-1.167,3.233-2.061,4.726c-0.888,1.493-2.014,2.878-3.386,3.998c-1.366,1.128-2.963,1.967-4.633,2.511
				c-0.837,0.27-1.691,0.473-2.551,0.612c-0.864,0.146-1.781,0.205-2.672,0.157c-1.795-0.083-3.539-0.595-5.123-1.353
				c-1.591-0.754-3.032-1.761-4.323-2.904c-2.581-2.294-4.647-5.065-6.273-8.036c-1.629-2.972-2.861-6.139-3.717-9.391
				c-0.425-1.625-0.752-3.286-1.015-4.93c-0.27-1.644-0.521-3.292-0.733-4.949c-0.43-3.308-0.735-6.649-0.592-10.007
				c0.142-3.339,0.813-6.758,2.53-9.721c0.861-1.47,1.967-2.798,3.244-3.919c1.275-1.132,2.728-2.037,4.242-2.783
				c1.515-0.75,3.108-1.317,4.721-1.772c1.617-0.45,3.255-0.809,4.919-1.039c1.663-0.214,3.352-0.323,5.034-0.166
				c1.675,0.162,3.354,0.584,4.864,1.379c1.512,0.79,2.814,1.959,3.83,3.318c1.021,1.362,1.793,2.885,2.4,4.456
				c1.205,3.156,1.818,6.483,2.254,9.797C117.968,105.51,118.18,108.848,118.323,112.18z M117.129,112.214
				c-0.058-3.315-0.185-6.63-0.521-9.918c-0.347-3.282-0.869-6.566-1.967-9.662c-0.557-1.54-1.253-3.038-2.219-4.351
				c-0.956-1.315-2.175-2.439-3.605-3.212c-1.423-0.786-3.035-1.205-4.665-1.347c-1.631-0.149-3.286-0.047-4.913,0.21
				c-3.25,0.537-6.458,1.487-9.389,2.942c-1.462,0.737-2.834,1.638-4.062,2.703c-1.225,1.067-2.281,2.321-3.11,3.719
				c-1.675,2.798-2.398,6.092-2.568,9.372c-0.098,1.647-0.047,3.302,0.076,4.949c0.127,1.648,0.306,3.297,0.564,4.934
				c0.256,1.638,0.548,3.272,0.863,4.903c0.3,1.634,0.667,3.231,1.158,4.804c0.966,3.144,2.297,6.171,3.985,8.966
				c1.699,2.781,3.722,5.38,6.182,7.441c1.232,1.02,2.558,1.915,3.976,2.583c1.419,0.665,2.933,1.084,4.463,1.181
				c0.769,0.048,1.523,0.011,2.301-0.114c0.781-0.119,1.555-0.284,2.305-0.514c1.498-0.461,2.908-1.17,4.127-2.143
				c2.468-1.935,4.067-4.841,5.062-7.904c1.001-3.084,1.479-6.354,1.744-9.633C117.169,118.839,117.199,115.526,117.129,112.214z"/>
		</g>
	</g>
	<g>
		<path d="M122.353,111.492c0.801,15.938-1.755,27.991-14.455,29.549c-9.376,1.151-19.334-9.276-21.892-23.341
			c-2.858-15.709-3.86-29.273,14.015-33.951C117.893,79.072,121.195,88.457,122.353,111.492z"/>
		<path d="M106.444,141.443c-9.193,0-18.296-10.218-20.747-23.685c-2.906-15.972-3.841-29.577,14.246-34.312
			c7.01-1.833,11.845-1.537,15.22,0.935c5.313,3.891,6.81,13.253,7.507,27.093l0,0c0.457,9.085-0.238,15.535-2.188,20.301
			c-2.328,5.693-6.43,8.826-12.541,9.576C107.438,141.413,106.941,141.443,106.444,141.443z M107.804,82.894
			c-2.202,0-4.753,0.389-7.705,1.159c-17.563,4.597-16.634,17.932-13.786,33.592c2.526,13.877,12.192,24.227,21.545,23.084
			c10.755-1.319,15.129-10.332,14.179-29.223l0,0c-0.686-13.659-2.14-22.876-7.25-26.618
			C112.97,83.556,110.682,82.894,107.804,82.894z"/>
	</g>
	<g>
		<g>
			<path class="st7" d="M136.504,115.36c1.878,15.847,9.166,30.07,21.909,28.864c9.905-0.937,16.156-14.585,15.838-29.229
				c-0.331-15.269-2.942-29.38-21.423-29.843C134.35,84.691,133.627,91.111,136.504,115.36z"/>
		</g>
		<g>
			<path d="M137.045,115.295c0.426,3.302,1.085,6.57,2.039,9.745c0.956,3.17,2.2,6.26,3.876,9.077
				c1.672,2.806,3.802,5.366,6.483,7.099c2.668,1.741,5.888,2.475,9.041,2.114c1.54-0.166,3.027-0.695,4.37-1.495
				c1.344-0.799,2.537-1.871,3.592-3.071c2.104-2.423,3.611-5.38,4.703-8.463c1.09-3.093,1.761-6.34,2.099-9.623
				c0.174-1.639,0.264-3.292,0.268-4.942c-0.007-1.655-0.048-3.333-0.127-4.993c-0.169-3.322-0.505-6.638-1.27-9.85
				c-0.767-3.197-2.005-6.315-4.045-8.868c-1.013-1.275-2.228-2.385-3.587-3.286c-1.357-0.907-2.868-1.583-4.433-2.077
				c-1.567-0.497-3.201-0.797-4.847-0.973c-1.644-0.169-3.316-0.197-4.985-0.191c-1.666,0.016-3.33,0.102-4.969,0.343
				c-1.631,0.245-3.255,0.659-4.685,1.434c-1.435,0.763-2.628,1.933-3.38,3.374c-0.764,1.435-1.137,3.065-1.343,4.699
				c-0.395,3.288-0.191,6.642,0.079,9.969C136.209,108.644,136.621,111.97,137.045,115.295z M135.96,115.424
				c-0.359-3.339-0.701-6.682-0.922-10.043c-0.202-3.358-0.338-6.746,0.113-10.128c0.236-1.683,0.661-3.371,1.476-4.906
				c0.801-1.542,2.109-2.823,3.641-3.628c1.529-0.822,3.212-1.242,4.883-1.523c1.678-0.27,3.371-0.376,5.06-0.412
				c1.684-0.028,3.375-0.019,5.071,0.134c1.691,0.162,3.377,0.449,5.015,0.947c1.638,0.491,3.222,1.194,4.679,2.117
				c1.455,0.924,2.77,2.08,3.873,3.41c2.219,2.668,3.578,5.92,4.433,9.209c0.858,3.305,1.261,6.689,1.498,10.061
				c0.113,1.691,0.19,3.365,0.228,5.066c0.028,1.703-0.035,3.407-0.182,5.107c-0.314,3.394-0.979,6.77-2.09,10.02
				c-1.117,3.239-2.668,6.39-4.947,9.071c-1.139,1.334-2.478,2.532-4.023,3.443c-1.537,0.913-3.286,1.531-5.087,1.719
				c-1.763,0.187-3.562,0.098-5.296-0.328c-1.733-0.418-3.375-1.175-4.845-2.15c-2.946-1.974-5.163-4.765-6.854-7.739
				c-1.699-2.988-2.915-6.199-3.832-9.466C136.935,122.128,136.329,118.784,135.96,115.424z"/>
		</g>
	</g>
	<g>
		<g>
			<path d="M141.236,113.412c2.196,15.806,9.96,32.887,21.79,27.995c6.989-2.891,15.53-13.444,15.98-27.732
				c0.635-20.158-2.942-29.38-21.423-29.843C139.103,83.37,137.978,89.946,141.236,113.412z"/>
		</g>
		<g>
			<path d="M141.829,113.329c0.48,3.263,1.172,6.494,2.105,9.648c0.937,3.153,2.105,6.238,3.633,9.122
				c0.765,1.438,1.625,2.823,2.606,4.095c0.982,1.272,2.099,2.432,3.366,3.348c1.264,0.913,2.693,1.565,4.189,1.777
				c1.493,0.224,3.032-0.002,4.476-0.537c1.451-0.537,2.814-1.377,4.085-2.333c1.279-0.954,2.449-2.067,3.532-3.258
				c1.087-1.192,2.085-2.475,2.98-3.826c0.892-1.355,1.683-2.781,2.39-4.246c1.408-2.938,2.404-6.086,2.951-9.32
				c0.283-1.619,0.426-3.25,0.485-4.906c0.064-1.657,0.104-3.314,0.095-4.97c0-1.657-0.081-3.311-0.224-4.958
				c-0.15-1.644-0.357-3.288-0.73-4.892c-0.366-1.603-0.858-3.18-1.557-4.654c-0.703-1.472-1.611-2.844-2.747-3.995
				c-1.132-1.156-2.468-2.105-3.929-2.813c-1.462-0.712-3.025-1.215-4.619-1.584c-3.203-0.72-6.523-0.922-9.831-0.927
				c-1.653,0.008-3.31,0.076-4.939,0.321c-1.623,0.245-3.242,0.631-4.694,1.366c-1.453,0.725-2.698,1.831-3.515,3.22
				c-0.828,1.387-1.253,2.988-1.485,4.603c-0.229,1.619-0.27,3.269-0.233,4.918c0.038,1.648,0.162,3.297,0.321,4.946
				C140.863,106.761,141.332,110.047,141.829,113.329z M140.646,113.493c-0.412-3.303-0.799-6.615-1.039-9.947
				c-0.118-1.666-0.197-3.338-0.193-5.015c0.007-1.675,0.086-3.36,0.367-5.029c0.283-1.661,0.767-3.327,1.663-4.796
				c0.892-1.472,2.25-2.638,3.783-3.374c1.537-0.735,3.189-1.153,4.845-1.402c1.661-0.242,3.333-0.353,5.002-0.397
				c3.33-0.066,6.704,0.036,10.002,0.754c1.647,0.353,3.272,0.873,4.796,1.634c1.523,0.752,2.942,1.753,4.119,2.991
				c1.181,1.236,2.109,2.692,2.814,4.229c0.706,1.54,1.194,3.163,1.548,4.803c0.712,3.286,0.935,6.633,1.039,9.966
				c0.053,1.667,0.058,3.338,0.036,5.002c-0.024,1.667-0.102,3.358-0.312,5.029c-0.414,3.346-1.294,6.642-2.621,9.767
				c-1.321,3.127-3.137,6.052-5.371,8.647c-2.269,2.545-4.97,4.839-8.324,6.08c-1.672,0.599-3.534,0.846-5.332,0.544
				c-1.801-0.284-3.468-1.096-4.875-2.147c-1.41-1.06-2.602-2.34-3.633-3.711c-1.03-1.372-1.912-2.836-2.687-4.343
				c-1.548-3.018-2.703-6.199-3.615-9.43C141.75,120.112,141.09,116.817,140.646,113.493z"/>
		</g>
	</g>
	<g>
		<g>
			<path class="st8" d="M64.423,115.055c6.145-11.016,26.781-39.834,55.286-22.522c1.657-22.672-31.444-28.01-48.157-6.878
				c6.387,0.606,7.057,1.374,7.057,1.374S66.851,89.619,64.423,115.055z"/>
		</g>
		<g>
			<g>
				<path d="M64.532,114.71c-0.004-0.094-0.036-0.185-0.076-0.24c-0.04-0.058-0.072-0.079-0.067-0.107
					c-0.008-0.007,0.062-0.122,0.098-0.191l0.127-0.233l0.516-0.932c0.347-0.62,0.714-1.228,1.081-1.836
					c0.744-1.211,1.517-2.403,2.326-3.57c1.61-2.345,3.384-4.578,5.288-6.702c3.798-4.242,8.202-8.047,13.304-10.765
					c2.549-1.349,5.265-2.417,8.094-3.078c2.827-0.65,5.758-0.903,8.652-0.675c2.897,0.2,5.739,0.88,8.433,1.887
					c2.696,1.011,5.23,2.38,7.596,3.957l0,0l-0.548,0.283c0.074-2.637-0.256-5.281-1.223-7.683c-0.478-1.2-1.077-2.345-1.812-3.396
					c-0.735-1.051-1.601-2.005-2.555-2.861c-1.912-1.71-4.204-2.976-6.633-3.836c-2.436-0.85-5.011-1.327-7.607-1.429
					c-5.196-0.217-10.439,0.913-15.184,3.108c-4.756,2.19-9.019,5.458-12.499,9.474l-0.248-0.584
					c1.211,0.044,2.423,0.107,3.645,0.223c0.61,0.059,1.222,0.13,1.841,0.236c0.311,0.052,0.623,0.118,0.941,0.196
					c0.162,0.044,0.323,0.086,0.495,0.149c0.085,0.028,0.176,0.067,0.27,0.108c0.053,0.025,0.098,0.044,0.157,0.081
					c0.074,0.053,0.081,0.024,0.274,0.21l0.004,0.004l0.903,0.996l-1.336,0.314c-0.212,0.052-0.548,0.168-0.825,0.287
					c-0.288,0.121-0.576,0.265-0.858,0.414c-0.564,0.306-1.107,0.67-1.625,1.065c-1.045,0.786-1.979,1.735-2.83,2.753
					c-1.693,2.052-3.029,4.423-4.076,6.914c-1.054,2.492-1.852,5.103-2.451,7.76c-0.302,1.33-0.559,2.67-0.78,4.017l-0.304,1.981
					c-0.04,0.276-0.107,0.521-0.205,0.792C64.732,114.069,64.619,114.378,64.532,114.71z M64.317,115.401
					c-0.012-0.353-0.052-0.725-0.074-1.137c-0.025-0.41-0.017-0.847,0.017-1.255l0.028-0.304l0.031-0.259l0.064-0.514l0.13-1.028
					c0.187-1.371,0.412-2.734,0.682-4.094c0.537-2.716,1.281-5.403,2.297-8.002c1.011-2.597,2.33-5.107,4.076-7.346
					c0.88-1.111,1.857-2.163,2.984-3.062c0.561-0.452,1.153-0.873,1.786-1.239c0.319-0.181,0.642-0.355,0.984-0.508
					c0.353-0.157,0.661-0.288,1.113-0.41l-0.431,1.311l0.002,0.004c0.138,0.134,0.079,0.066,0.091,0.079
					c-0.004-0.007-0.028-0.019-0.04-0.03c-0.043-0.024-0.085-0.052-0.14-0.079c-0.107-0.055-0.232-0.107-0.355-0.157
					c-0.257-0.098-0.527-0.19-0.805-0.272c-0.554-0.168-1.13-0.307-1.71-0.435c-1.162-0.257-2.343-0.463-3.531-0.654l-0.604-0.095
					l0.353-0.488c3.176-4.385,7.43-8.075,12.358-10.504c4.911-2.443,10.449-3.719,15.978-3.458c2.758,0.131,5.518,0.635,8.123,1.615
					c2.602,0.966,5.068,2.396,7.094,4.335c2.044,1.912,3.6,4.348,4.473,6.987c0.873,2.643,1.096,5.451,0.78,8.155l-0.066,0.563
					l-0.482-0.28l0,0c-4.911-2.679-10.26-4.569-15.757-4.845c-5.485-0.312-10.989,1.037-15.866,3.617
					c-2.447,1.275-4.765,2.818-6.936,4.55c-2.175,1.729-4.225,3.628-6.141,5.661c-1.923,2.029-3.694,4.2-5.391,6.428
					c-0.846,1.117-1.655,2.262-2.439,3.426c-0.39,0.582-0.773,1.17-1.151,1.761l-0.561,0.89l-0.304,0.493
					c-0.083,0.126-0.2,0.259-0.329,0.355C64.525,115.277,64.406,115.341,64.317,115.401z"/>
			</g>
		</g>
	</g>
	<g>
		<g>
			<path class="st8" d="M190.431,116.701c-5.683-11.262-25.107-40.91-54.305-24.796c-0.714-22.72,32.579-26.679,48.402-4.875
				c-6.406,0.34-7.108,1.081-7.108,1.081S189.06,91.187,190.431,116.701z"/>
		</g>
		<g>
			<g>
				<path d="M190.522,117.051c-0.086-0.064-0.204-0.131-0.328-0.233c-0.122-0.102-0.236-0.24-0.314-0.37l-0.284-0.505l-0.523-0.913
					c-0.352-0.606-0.712-1.209-1.077-1.809c-0.733-1.196-1.495-2.373-2.294-3.524c-1.603-2.298-3.284-4.539-5.12-6.647
					c-1.829-2.109-3.798-4.094-5.901-5.909c-2.097-1.822-4.348-3.458-6.74-4.835c-4.765-2.781-10.207-4.354-15.7-4.271
					c-5.504,0.047-10.927,1.714-15.944,4.186l0,0l-0.493,0.261l-0.043-0.564c-0.204-2.715,0.136-5.512,1.117-8.117
					c0.982-2.601,2.637-4.97,4.758-6.795c2.104-1.855,4.629-3.18,7.267-4.038c2.643-0.871,5.421-1.258,8.182-1.275
					c5.534-0.031,11.014,1.474,15.822,4.119c4.823,2.632,8.92,6.494,11.91,11.01l0.334,0.501l-0.606,0.071
					c-1.194,0.14-2.383,0.3-3.556,0.505c-0.585,0.104-1.167,0.221-1.727,0.366c-0.28,0.071-0.554,0.15-0.816,0.238
					c-0.126,0.047-0.252,0.091-0.361,0.142c-0.058,0.024-0.102,0.052-0.145,0.072c-0.012,0.011-0.038,0.024-0.043,0.028
					c0.012-0.012-0.052,0.055,0.094-0.074l0.004-0.004l-0.378-1.327c0.445,0.14,0.75,0.284,1.094,0.457
					c0.334,0.168,0.65,0.355,0.963,0.548c0.618,0.394,1.194,0.837,1.733,1.313c1.09,0.946,2.025,2.034,2.855,3.182
					c1.653,2.307,2.866,4.871,3.769,7.507c0.91,2.638,1.537,5.355,1.962,8.091c0.214,1.368,0.383,2.742,0.512,4.117l0.086,1.032
					l0.043,0.516l0.021,0.261l0.016,0.304c0.017,0.408,0.008,0.846-0.035,1.255C190.602,116.329,190.549,116.701,190.522,117.051z
					 M190.337,116.353c-0.074-0.334-0.173-0.65-0.261-0.924c-0.09-0.276-0.145-0.523-0.174-0.801l-0.217-1.988
					c-0.166-1.355-0.367-2.706-0.614-4.047c-0.488-2.68-1.179-5.32-2.128-7.855c-0.943-2.532-2.177-4.956-3.785-7.077
					c-0.808-1.054-1.702-2.039-2.712-2.87c-0.501-0.418-1.029-0.803-1.581-1.132c-0.276-0.162-0.557-0.319-0.839-0.45
					c-0.27-0.131-0.599-0.261-0.811-0.321l-1.321-0.37l0.943-0.958l0.004-0.004c0.202-0.178,0.204-0.149,0.283-0.2
					c0.062-0.031,0.107-0.048,0.159-0.074c0.095-0.036,0.19-0.072,0.274-0.095c0.174-0.055,0.338-0.091,0.502-0.127
					c0.323-0.066,0.637-0.117,0.949-0.155c0.624-0.081,1.236-0.126,1.85-0.159c1.223-0.066,2.439-0.079,3.652-0.072l-0.274,0.574
					c-3.31-4.155-7.435-7.598-12.095-9.983c-4.652-2.388-9.841-3.735-15.041-3.735c-2.597-0.004-5.189,0.366-7.66,1.113
					c-2.464,0.758-4.804,1.929-6.787,3.558c-0.988,0.816-1.893,1.733-2.67,2.753c-0.78,1.02-1.426,2.14-1.952,3.318
					c-1.067,2.362-1.506,4.989-1.54,7.626l-0.535-0.306l0,0c2.43-1.479,5.02-2.742,7.753-3.639c2.732-0.892,5.601-1.453,8.503-1.534
					c2.9-0.107,5.818,0.268,8.616,1.034c2.798,0.778,5.467,1.959,7.959,3.412c4.985,2.928,9.228,6.91,12.845,11.307
					c1.812,2.202,3.492,4.508,5.005,6.916c0.761,1.2,1.482,2.426,2.175,3.664c0.343,0.623,0.686,1.242,1.005,1.878l0.478,0.952
					l0.118,0.24c0.031,0.067,0.098,0.19,0.09,0.193c0.002,0.028-0.03,0.047-0.072,0.102
					C190.38,116.17,190.344,116.258,190.337,116.353z"/>
			</g>
		</g>
	</g>
	<g>
		
			<ellipse transform="matrix(0.0207 -0.9998 0.9998 0.0207 7.3061 208.5833)" class="st7" cx="110.126" cy="100.562" rx="7.832" ry="5.491"/>
		<path d="M110.04,108.837c-0.03,0-0.059,0-0.09,0c-3.265-0.067-5.844-3.83-5.748-8.384c0.094-4.555,2.813-8.205,6.092-8.138
			c3.265,0.067,5.844,3.83,5.748,8.384C115.95,105.21,113.266,108.837,110.04,108.837z M110.204,93.175
			c-2.758,0-5.056,3.25-5.139,7.295c-0.085,4.081,2.116,7.448,4.905,7.505c0.024,0,0.048,0,0.072,0c2.758,0,5.056-3.25,5.139-7.295
			c0.085-4.081-2.116-7.448-4.905-7.505C110.252,93.175,110.228,93.175,110.204,93.175z"/>
	</g>
	<g>
		
			<ellipse transform="matrix(0.0207 -0.9998 0.9998 0.0207 -12.4799 215.9001)" class="st7" cx="103.968" cy="114.321" rx="3.917" ry="2.744"/>
		<path d="M103.923,118.461c-0.016,0-0.03,0-0.044,0c-1.631-0.035-2.921-1.914-2.873-4.193c0.024-1.09,0.343-2.112,0.903-2.873
			c0.576-0.786,1.357-1.205,2.143-1.194c1.633,0.035,2.923,1.914,2.873,4.191C106.877,116.649,105.534,118.461,103.923,118.461z
			 M104.004,110.63c-0.647,0-1.269,0.361-1.75,1.02c-0.508,0.692-0.799,1.627-0.82,2.63c-0.043,2.039,1.058,3.724,2.454,3.753
			c0.012,0,0.025,0,0.036,0c1.379,0,2.528-1.625,2.57-3.647l0,0c0.043-2.039-1.058-3.724-2.454-3.752
			C104.029,110.63,104.016,110.63,104.004,110.63z"/>
	</g>
	<g>
		
			<ellipse transform="matrix(0.0207 -0.9998 0.9998 0.0207 60.1504 262.5263)" class="st7" cx="164.084" cy="100.559" rx="7.832" ry="5.491"/>
		<path d="M164,108.837c-0.03,0-0.059,0-0.09,0c-3.265-0.067-5.844-3.83-5.749-8.384c0.044-2.179,0.686-4.221,1.805-5.748
			c1.153-1.574,2.698-2.422,4.287-2.39c3.265,0.067,5.844,3.83,5.749,8.384l0,0C169.908,105.21,167.224,108.837,164,108.837z
			 M164.163,93.175c-1.296,0-2.537,0.72-3.501,2.037c-1.015,1.387-1.597,3.255-1.639,5.258c-0.085,4.081,2.116,7.448,4.905,7.505
			c0.024,0,0.048,0,0.072,0c2.758,0,5.056-3.25,5.139-7.295c0.085-4.081-2.116-7.448-4.905-7.505
			C164.212,93.175,164.186,93.175,164.163,93.175z"/>
	</g>
	<g>
		
			<ellipse transform="matrix(0.0207 -0.9998 0.9998 0.0207 40.3631 269.8383)" class="st7" cx="157.923" cy="114.315" rx="3.917" ry="2.744"/>
		<path d="M157.881,118.461c-0.016,0-0.03,0-0.044,0c-1.631-0.035-2.924-1.914-2.873-4.193c0.024-1.09,0.343-2.112,0.903-2.873
			c0.576-0.788,1.36-1.206,2.143-1.194c1.631,0.035,2.924,1.914,2.873,4.191c-0.024,1.09-0.342,2.112-0.903,2.873
			C159.415,118.039,158.67,118.461,157.881,118.461z M157.963,110.63c-0.647,0-1.269,0.361-1.75,1.02
			c-0.508,0.692-0.799,1.627-0.82,2.63c-0.043,2.039,1.058,3.724,2.454,3.753c0.663,0.004,1.296-0.348,1.786-1.018
			c0.508-0.692,0.799-1.627,0.82-2.63l0,0c0.043-2.039-1.058-3.724-2.454-3.752C157.988,110.63,157.975,110.63,157.963,110.63z"/>
	</g>
	<g>
		<path class="st9" d="M127.508,165.566c-0.999,0.028-1.993,0.083-2.961,0.114c-2.502,0.083-3.31,0.869-6.442,2.14
			c-1.537,0.624-3.197,1.283-4.011,2.73c-2.581-0.992-3.972-3.562-5.976-5.371c-3.067-2.768-3.093-6.175-3.783-7.836
			c-0.958-2.298,0.618-0.452,0.958-2.685c0.04-0.27,0.104-0.574,0.338-0.712c0.159-0.095,0.357-0.085,0.541-0.064
			c2.772,0.331,4.729,2.766,7.058,4.304c0.761,0.504,1.912-0.468,2.756-0.13c0.901,0.359,1.75-0.509,2.521-0.031
			c1.689,1.048,4.205,1.062,6.126,1.126c2.385,0.081,4.773,0.035,7.153-0.138c1.979-0.145,2.742,0.389,4.44-0.587l9.352-4.225
			c1.021-0.587,2.376-0.643,3.263,0.134c0.007,0.004,0.011,0.011,0.017,0.016c0.187,0.178,0.221,0.461,0.233,0.72
			c0.142,2.882-0.88,5.805-2.785,7.973c-1.23,1.398-2.057,2.955-2.882,4.603c-0.508,1.018-2.349,2.649-3.477,1.733
			c-1.998-1.62-4.306-2.587-6.808-3.302C131.335,165.566,129.413,165.514,127.508,165.566z"/>
	</g>
	<g>
		<path class="st10" d="M127.615,174.232c-1.896-0.09-3.788-0.331-5.647-0.725c-1.782-0.376-3.435-1.007-5.17-1.518
			c-1.111-0.328-3.634-0.816-1.905-2.297c1.305-1.117,2.885-1.915,4.473-2.542c1.663-0.656,3.153-0.748,4.859-1.128
			c2.247-0.499,4.085-0.701,6.354-0.314c2.159,0.367,3.976,1.162,6.052,1.864c1.209,0.408,2.505,0.847,3.252,1.956
			c0.571,0.847-6.224,4.302-6.853,4.459c-0.587,0.149-1.192,0.197-1.795,0.232C130.031,174.286,128.821,174.29,127.615,174.232z"/>
	</g>
	<g>
		<path d="M104.443,155.15c0.684,2.475,1.738,4.809,3.189,6.864c1.432,2.064,3.237,3.841,5.264,5.3
			c2.037,1.445,4.291,2.594,6.668,3.374c2.373,0.79,4.856,1.264,7.353,1.349c2.495,0.108,5.007-0.149,7.405-0.82
			c2.407-0.637,4.679-1.731,6.698-3.186c2.009-1.47,3.741-3.341,5.068-5.502c1.353-2.152,2.283-4.578,2.961-7.101l0.421,0.072
			c-0.265,2.638-0.973,5.265-2.171,7.702c-1.209,2.428-2.932,4.642-5.065,6.392c-2.116,1.776-4.629,3.048-7.255,3.883
			c-2.64,0.808-5.408,1.151-8.154,1.073c-5.486-0.191-10.944-2.021-15.295-5.415c-2.175-1.684-4.045-3.771-5.451-6.124
			c-1.396-2.357-2.325-4.979-2.68-7.652L104.443,155.15z"/>
	</g>
	<g>
		<path d="M114.04,170.543c1.489-1.926,3.598-3.369,5.876-4.304c0.576-0.217,1.158-0.426,1.744-0.618l1.795-0.452l1.829-0.272
			c0.614-0.043,1.23-0.091,1.846-0.118c2.463-0.038,4.937,0.311,7.263,1.113c2.32,0.792,4.525,2.029,6.216,3.774l-0.214,0.259
			c-1.997-1.272-4.161-2.143-6.396-2.703c-2.237-0.546-4.537-0.801-6.831-0.742c-0.571,0.044-1.145,0.062-1.716,0.094l-1.703,0.219
			l-1.686,0.325c-0.552,0.146-1.098,0.314-1.657,0.454c-2.187,0.692-4.271,1.727-6.147,3.182L114.04,170.543z"/>
	</g>
	<g>
		<g>
			<path class="st11" d="M160.032,130.797c-18.137,0.176-27.901,6.177-33.77,6.235s-15.751-5.752-33.885-5.576
				s-20.365,13.264-42.964,17.508c27.098,17.333,42.35-0.75,54.511,6.29c12.161,7.039,33.005,6.836,45.027-0.44
				s34.728,18.782,56.174-4.965C181.336,147.385,178.165,130.621,160.032,130.797z"/>
		</g>
		<g>
			<path d="M160.037,131.524c-4.79,0.104-9.56,0.675-14.215,1.731c-2.328,0.523-4.633,1.143-6.92,1.84
				c-2.29,0.703-4.559,1.472-6.912,2.173c-1.177,0.35-2.388,0.665-3.667,0.888c-0.643,0.104-1.305,0.187-1.998,0.2
				c-0.692,0.004-1.362-0.059-2.009-0.149c-2.566-0.408-4.871-1.156-7.196-1.805c-4.619-1.353-9.241-2.481-13.963-3.108
				c-2.357-0.319-4.73-0.521-7.11-0.62c-1.189-0.052-2.381-0.067-3.573-0.067l-1.755,0.044c-0.58,0.048-1.167,0.071-1.741,0.142
				c-2.311,0.261-4.594,0.739-6.763,1.584c-2.182,0.813-4.251,1.948-6.277,3.201c-2.026,1.258-4.021,2.628-6.078,3.932
				c-2.054,1.311-4.191,2.523-6.403,3.578c-4.433,2.105-9.17,3.501-13.971,4.269l0,0l0.14-0.72c2.908,1.746,5.935,3.284,9.08,4.492
				c3.146,1.205,6.417,2.052,9.738,2.447c3.318,0.422,6.679,0.394,10.006-0.002c3.333-0.383,6.624-1.128,9.962-1.874
				c3.333-0.716,6.789-1.518,10.466-1.189c1.822,0.166,3.667,0.684,5.306,1.574l1.12,0.604c0.355,0.202,0.733,0.367,1.101,0.551
				c0.366,0.185,0.748,0.342,1.126,0.505c0.376,0.169,0.761,0.319,1.145,0.466c3.078,1.194,6.332,1.986,9.631,2.445
				c3.302,0.472,6.652,0.604,9.988,0.48c3.338-0.134,6.661-0.571,9.899-1.336c3.227-0.788,6.39-1.871,9.272-3.448l1.103-0.62
				c0.418-0.24,0.858-0.445,1.306-0.618c0.899-0.348,1.837-0.557,2.768-0.656c1.869-0.197,3.686,0.011,5.417,0.362
				c3.468,0.72,6.693,1.919,9.924,2.993c3.222,1.09,6.44,2.114,9.726,2.759c3.28,0.654,6.63,0.892,9.923,0.501
				c3.288-0.395,6.494-1.479,9.38-3.163c2.891-1.678,5.491-3.87,7.819-6.321l0,0l0.252,0.656c-2.08-0.232-4.15-0.559-6.192-1.034
				c-2.037-0.495-4.042-1.13-5.986-1.919c-3.907-1.548-7.512-3.771-10.891-6.205c-3.39-2.419-6.644-5.017-10.278-6.87
				c-1.812-0.927-3.713-1.653-5.679-2.104C164.087,131.665,162.061,131.487,160.037,131.524z M160.023,130.073
				c2.128,0.004,4.268,0.233,6.34,0.75c2.073,0.518,4.064,1.327,5.929,2.328c3.752,1.998,6.955,4.713,10.299,7.14
				c3.322,2.454,6.818,4.671,10.627,6.232c1.901,0.78,3.864,1.407,5.86,1.901c2.003,0.476,4.038,0.803,6.086,1.039l0.784,0.091
				l-0.532,0.568l0,0c-2.256,2.597-4.827,4.975-7.795,6.81c-2.951,1.855-6.307,3.117-9.781,3.647
				c-3.479,0.548-7.031,0.334-10.451-0.274c-3.431-0.604-6.751-1.593-10.014-2.625c-3.26-1.018-6.486-2.133-9.722-2.734
				c-1.612-0.292-3.231-0.452-4.762-0.27c-0.764,0.09-1.501,0.265-2.195,0.54c-0.347,0.136-0.68,0.297-1.001,0.486l-1.12,0.647
				c-3.094,1.731-6.423,2.949-9.821,3.779c-3.403,0.818-6.873,1.289-10.357,1.445c-3.484,0.157-6.98-0.011-10.437-0.516
				c-3.454-0.499-6.878-1.336-10.158-2.637c-0.41-0.162-0.818-0.328-1.219-0.514c-0.403-0.181-0.808-0.355-1.203-0.561
				c-0.395-0.202-0.797-0.386-1.181-0.61l-1.126-0.624c-1.355-0.754-2.858-1.198-4.429-1.363c-1.572-0.169-3.205-0.072-4.847,0.134
				c-1.644,0.204-3.302,0.516-4.969,0.846c-3.335,0.665-6.732,1.357-10.194,1.675c-3.458,0.329-6.974,0.293-10.42-0.238
				c-3.443-0.537-6.795-1.542-9.978-2.897c-3.189-1.344-6.199-3.051-9.044-4.97l-0.813-0.548l0.954-0.173l0,0
				c4.693-1.024,9.264-2.545,13.483-4.767c2.109-1.111,4.13-2.375,6.122-3.707c1.99-1.338,3.943-2.759,5.988-4.106
				c2.044-1.343,4.2-2.606,6.525-3.545c2.313-0.966,4.781-1.583,7.265-1.891c0.62-0.085,1.245-0.118,1.867-0.176l1.867-0.072
				c1.225-0.011,2.449-0.007,3.675,0.031c2.449,0.079,4.899,0.261,7.334,0.564c4.871,0.59,9.679,1.717,14.347,3.032
				c2.328,0.631,4.652,1.338,6.87,1.661c1.113,0.154,2.092,0.138,3.208-0.052c1.103-0.182,2.235-0.482,3.38-0.797
				c4.578-1.327,9.334-2.698,14.158-3.496C150.259,130.44,155.15,130.073,160.023,130.073z"/>
		</g>
	</g>
	<g class="st0">
		<path class="st1" d="M135.741,92.485c4.03-1.098,33.363-9.555,52.555,28.547c0.066-8.605-0.614-9.656-4.504-14.432
			c-3.89-4.775-8.335-12.146-16.465-15.596s-14.467-4.418-20.311-3.203C138.944,89.475,135.741,92.485,135.741,92.485z"/>
	</g>
	<g class="st0">
		<path class="st1" d="M119.713,92.531c-5.752-3.418-32.855-8.715-53.778,30.671c-0.229-7.84,0.094-11.522,3.263-15.568
			c3.172-4.047,9.2-11.828,18.665-16.965c6.216-3.375,10.606-4.465,17.726-3.315C112.708,88.502,119.713,92.531,119.713,92.531z"/>
	</g>
	<g class="st0">
		<path class="st1" d="M69.759,159.117c0.287,2.901,8.437,0.839,10.559,0.748c3.505-0.149,7.039-0.431,10.479-1.145
			c7.781-1.612,10.209-1.077,14.501,0.899c-0.966-2.274-0.008-4.96-0.008-4.96s-4.552-1.81-9.706-1.062
			c-5.153,0.748-10.468,3.443-15.951,3.112c-1.907-0.114-8.472-0.047-10.753-0.223C68.873,156.615,69.748,159.002,69.759,159.117z"
			/>
	</g>
	<g class="st0">
		<path class="st1" d="M148.667,158.724c4.729-1.285,7.016-2.88,10.602-0.863c6.865,3.866,21.274,6.776,23.043,6.851
			c1.769,0.076,1.498-4.123,1.498-4.123s-6.128-0.631-13.493-3.004c-7.365-2.373-14.491-4.622-17.181-4.053
			c-2.687,0.568-4.189,1.283-4.189,1.283S149.36,157.278,148.667,158.724z"/>
	</g>
	<g class="st0">
		<path class="st1" d="M117.86,170.77c1.536-1.675,17.029-2.094,20.239-0.278c2.094-0.699,2.094-0.699,2.094-0.699
			s-1.954-2.79-8.235-3.35c-6.282-0.559-11.519-0.338-17.066,3.25C115.906,170.632,117.86,170.77,117.86,170.77z"/>
	</g>
	<g>
		<g>
			<path class="st2" d="M115.57,186.827c4.406,5.656-15.6,19.542-24.769,15.742c-7.725-3.203-28.063-15.7-35.894-26.31
				c-9.633-13.047,29.682-49.967,36.602-33.9C100.254,162.653,104.935,173.173,115.57,186.827z"/>
		</g>
		<g>
			<path d="M116.715,185.935c0.454,0.564,0.78,1.289,0.896,2.016c0.122,0.728,0.064,1.434-0.081,2.058
				c-0.297,1.26-0.873,2.274-1.491,3.2c-1.266,1.827-2.783,3.31-4.394,4.652c-1.612,1.341-3.341,2.505-5.158,3.528
				c-1.816,1.024-3.722,1.907-5.742,2.564c-2.017,0.654-4.149,1.115-6.423,1.096c-1.134-0.017-2.309-0.162-3.471-0.541
				c-0.283-0.085-0.597-0.217-0.846-0.319l-0.718-0.316c-0.469-0.219-0.939-0.435-1.396-0.665c-3.66-1.814-7.101-3.876-10.481-6.052
				c-3.377-2.173-6.657-4.49-9.833-6.956c-3.172-2.468-6.249-5.075-9.1-7.959c-1.421-1.446-2.789-2.961-4.03-4.606l-0.463-0.618
				c-0.159-0.221-0.325-0.472-0.469-0.716c-0.292-0.497-0.532-1.024-0.716-1.564c-0.371-1.081-0.521-2.207-0.521-3.299
				c0.007-2.195,0.564-4.257,1.302-6.183c0.75-1.931,1.712-3.741,2.781-5.467c2.135-3.458,4.699-6.596,7.503-9.482
				c2.804-2.887,5.854-5.538,9.198-7.804c1.675-1.128,3.418-2.167,5.269-3.034c1.848-0.854,3.81-1.56,5.92-1.795
				c1.051-0.113,2.15-0.1,3.231,0.166c1.077,0.259,2.128,0.792,2.955,1.567c0.833,0.767,1.434,1.74,1.86,2.712l1.209,2.721
				c1.614,3.626,3.236,7.25,4.905,10.842c1.684,3.586,3.429,7.135,5.298,10.608c1.871,3.471,3.866,6.861,6.039,10.135
				C111.923,179.696,114.261,182.859,116.715,185.935z M114.425,187.719c-2.422-3.192-4.73-6.483-6.865-9.883
				c-2.141-3.398-4.094-6.91-5.884-10.489c-1.795-3.578-3.449-7.209-5.043-10.859c-1.603-3.645-3.15-7.307-4.69-10.972l-1.151-2.749
				c-0.347-0.852-0.82-1.6-1.443-2.19c-1.239-1.2-3.093-1.567-4.93-1.368c-1.848,0.2-3.683,0.847-5.429,1.657
				c-1.75,0.818-3.431,1.816-5.037,2.927c-3.212,2.224-6.171,4.832-8.867,7.675c-2.676,2.858-5.111,5.956-7.091,9.298
				c-0.975,1.675-1.833,3.416-2.472,5.209c-0.631,1.786-1.058,3.647-1.009,5.438c0.024,0.892,0.173,1.758,0.469,2.549
				c0.149,0.395,0.334,0.772,0.554,1.126c0.113,0.178,0.224,0.34,0.361,0.518l0.445,0.561c1.2,1.491,2.541,2.896,3.949,4.233
				c2.825,2.676,5.904,5.117,9.077,7.424c3.18,2.301,6.466,4.467,9.814,6.522c1.675,1.024,3.371,2.014,5.085,2.961
				c1.71,0.949,3.437,1.874,5.179,2.693c0.435,0.209,0.871,0.402,1.305,0.597l0.65,0.274c0.214,0.083,0.357,0.142,0.552,0.197
				c0.73,0.228,1.551,0.325,2.4,0.321c1.705,0.002,3.509-0.385,5.265-0.935c3.522-1.137,6.951-2.94,9.95-5.2
				c1.487-1.134,2.894-2.404,3.932-3.819c0.512-0.699,0.932-1.446,1.113-2.122c0.094-0.338,0.118-0.642,0.083-0.894
				C114.66,188.152,114.582,187.938,114.425,187.719z"/>
		</g>
	</g>
	<g>
		<g>
			<path class="st2" d="M138.513,186.827c-4.406,5.656,15.6,19.542,24.769,15.742c7.725-3.203,28.063-15.7,35.894-26.31
				c9.633-13.047-29.682-49.967-36.602-33.9C153.831,162.653,149.147,173.173,138.513,186.827z"/>
		</g>
		<g>
			<path d="M139.658,187.719c-0.155,0.221-0.236,0.433-0.27,0.69c-0.035,0.256-0.011,0.559,0.083,0.894
				c0.178,0.675,0.601,1.423,1.113,2.122c1.039,1.415,2.443,2.687,3.932,3.819c2.999,2.26,6.428,4.064,9.95,5.2
				c1.758,0.552,3.56,0.939,5.265,0.935c0.85,0.004,1.67-0.094,2.4-0.321c0.196-0.055,0.338-0.114,0.552-0.197l0.65-0.274
				c0.435-0.193,0.869-0.386,1.305-0.597c1.741-0.82,3.468-1.744,5.179-2.693c1.714-0.947,3.41-1.938,5.085-2.961
				c3.348-2.054,6.633-4.219,9.814-6.522c3.173-2.307,6.252-4.748,9.077-7.424c1.408-1.338,2.749-2.742,3.949-4.233l0.445-0.561
				c0.136-0.176,0.248-0.338,0.361-0.518c0.221-0.353,0.406-0.728,0.554-1.126c0.297-0.79,0.444-1.657,0.469-2.549
				c0.048-1.788-0.376-3.65-1.009-5.438c-0.64-1.793-1.498-3.532-2.472-5.209c-1.979-3.341-4.414-6.44-7.091-9.298
				c-2.696-2.842-5.655-5.451-8.867-7.675c-1.603-1.111-3.284-2.109-5.037-2.927c-1.746-0.809-3.581-1.457-5.429-1.657
				c-1.837-0.2-3.689,0.168-4.93,1.368c-0.624,0.59-1.096,1.341-1.443,2.19l-1.151,2.749c-1.54,3.664-3.089,7.326-4.69,10.972
				c-1.595,3.65-3.248,7.284-5.043,10.859c-1.791,3.578-3.743,7.091-5.884,10.489C144.389,181.235,142.08,184.526,139.658,187.719z
				 M137.368,185.935c2.456-3.078,4.792-6.238,6.963-9.514c2.173-3.274,4.169-6.663,6.039-10.135
				c1.869-3.471,3.614-7.022,5.298-10.608c1.67-3.592,3.291-7.215,4.905-10.842l1.209-2.721c0.426-0.973,1.029-1.948,1.86-2.712
				c0.827-0.775,1.878-1.306,2.955-1.567c1.081-0.265,2.179-0.278,3.231-0.166c2.112,0.236,4.072,0.939,5.92,1.795
				c1.848,0.864,3.592,1.905,5.269,3.034c3.343,2.266,6.394,4.918,9.198,7.804c2.804,2.887,5.368,6.025,7.503,9.482
				c1.068,1.727,2.031,3.537,2.781,5.467c0.737,1.929,1.296,3.992,1.302,6.183c0,1.092-0.149,2.218-0.521,3.299
				c-0.185,0.54-0.425,1.067-0.716,1.564c-0.145,0.247-0.311,0.495-0.469,0.716l-0.463,0.618c-1.241,1.644-2.609,3.159-4.03,4.606
				c-2.85,2.885-5.931,5.491-9.1,7.959c-3.173,2.466-6.456,4.784-9.833,6.956c-3.38,2.175-6.82,4.238-10.481,6.052
				c-0.457,0.228-0.927,0.445-1.396,0.665l-0.718,0.316c-0.247,0.102-0.563,0.233-0.846,0.319c-1.162,0.38-2.339,0.524-3.471,0.541
				c-2.274,0.019-4.406-0.442-6.423-1.096c-2.021-0.656-3.926-1.54-5.742-2.564c-1.816-1.024-3.545-2.19-5.158-3.528
				c-1.611-1.343-3.126-2.823-4.394-4.652c-0.618-0.924-1.194-1.938-1.491-3.2c-0.145-0.626-0.205-1.332-0.081-2.058
				C136.591,187.224,136.914,186.499,137.368,185.935z"/>
		</g>
	</g>
	<g class="st0">
		<path class="st1" d="M207.484,56.771c0.431,0.431,12.642,16.465,11.878,21.595c-1.079,7.236-20.301,30.125-20.301,30.125
			l-1.487,12.548l-3.265-3.477l0.108,11.122c0,0,11.014-19.219,12.958-21.92c1.943-2.699,25.807-26.024,25.807-26.024
			L207.484,56.771z"/>
	</g>
	<g class="st0">
		<path class="st1" d="M54.523,173.674c-2.85,4.283-5.707,15.397-8.892,16.131c-5.104,1.177-8.707-4.928-15.59-2.002
			s-17.48,5.553-19.445,5.412c2.946,1.349,5.009,1.372,5.782,1.515c0.773,0.145,11.949-2.104,17.765-2.542
			c3.004-0.228,14.831,3.156,14.831,3.156s2.164-4.649,3.722-6.532c1.557-1.882,6.759-7.688,6.759-7.688L54.523,173.674z"/>
	</g>
	<g class="st0">
		<path class="st1" d="M70.135,188.613c3.131,1.836,16.522,7.086,22.242,7.449c6.801,0.431,18.14-3.995,21.811-10.366
			c0,0,2.483,2.592,1.727,4.426c-0.756,1.836-4.643,7.343-8.315,9.179c-3.67,1.836-13.497,5.722-17.061,3.995
			C86.98,201.571,70.135,188.613,70.135,188.613z"/>
	</g>
	<g class="st0">
		<path class="st1" d="M184.485,188.18c-3.131,1.836-16.522,7.086-22.242,7.449c-6.801,0.431-18.14-3.995-21.811-10.366
			c0,0-2.483,2.592-1.727,4.426c0.756,1.836,4.643,7.343,8.315,9.179s13.497,5.722,17.061,3.995
			C167.641,201.137,184.485,188.18,184.485,188.18z"/>
	</g>
	<g>
		<g>
			<path class="st12" d="M186.699,37.837c0,0-0.546-14.774-0.901-21.854c-0.288-5.785-0.39-5.676,5.491-5.965
				c5.882-0.288,21.854-0.901,21.854-0.901l18.22,17.171l-26.051,28.496L186.699,37.837z"/>
		</g>
		<g>
			<path d="M186.459,37.948c-0.378-4.442-0.631-8.986-0.847-13.529c-0.121-2.271-0.19-4.552-0.284-6.825l-0.142-3.403
				c-0.017-0.571-0.031-1.145,0.016-1.75c0.017-0.154,0.025-0.304,0.048-0.459l0.104-0.478c0.055-0.164,0.127-0.329,0.197-0.493
				c0.104-0.155,0.209-0.321,0.335-0.454c0.276-0.27,0.599-0.445,0.911-0.559c0.155-0.047,0.311-0.1,0.463-0.138l0.45-0.085
				c0.592-0.094,1.167-0.134,1.735-0.168c1.137-0.067,2.258-0.107,3.388-0.14l6.765-0.224c4.509-0.164,9.022-0.257,13.533-0.386l0,0
				l0.11-0.004l0.081,0.076L231.539,26.1l0.19,0.178l-0.174,0.191l-26.051,28.496l-0.178,0.193l-0.193-0.176L186.459,37.948z
				 M186.937,37.725l18.551,16.863l-0.371,0.017l26.051-28.498l0.012,0.37L212.96,9.306l0.191,0.072l0,0
				c-4.505,0.242-9.008,0.521-13.514,0.728l-6.758,0.334l-3.371,0.178c-0.554,0.038-1.107,0.083-1.629,0.168
				c-0.524,0.079-0.999,0.233-1.249,0.488c-0.256,0.24-0.357,0.725-0.389,1.247c-0.038,0.518-0.024,1.075-0.004,1.629l0.157,3.358
				c0.091,2.235,0.209,4.461,0.272,6.698C186.824,28.68,186.944,33.153,186.937,37.725z"/>
		</g>
	</g>
	<g>
		<g>
			<g>
				<path class="st13" d="M188.797,19.008c0.801-0.869-0.155-3.838,0.965-5.075c1.203-1.325,4.202-0.412,5.009-1.288
					c0.361-0.39,0.126-1.631-0.136-2.783c-1.289,0.058-2.436,0.108-3.343,0.154c-5.882,0.288-5.782,0.181-5.491,5.965
					c0.048,0.975,0.102,2.1,0.155,3.31C187.134,19.372,188.423,19.416,188.797,19.008z"/>
			</g>
			<g>
				<path d="M188.602,18.831c0.251-0.304,0.278-0.901,0.292-1.432c0.008-0.548-0.011-1.113,0.028-1.691
					c0.048-0.569,0.118-1.186,0.478-1.729c0.37-0.546,0.985-0.839,1.56-0.956c0.58-0.127,1.153-0.154,1.712-0.176
					c0.554-0.025,1.12-0.036,1.581-0.187c0.104-0.044,0.212-0.09,0.276-0.155c0.047-0.031,0.062-0.053,0.081-0.085
					c0.019-0.035,0.035-0.081,0.047-0.131c0.047-0.217,0.04-0.485,0.016-0.748c-0.053-0.533-0.173-1.075-0.293-1.617V9.922
					l0.268,0.205c-1.417,0.108-2.834,0.202-4.252,0.288c-0.706,0.053-1.415,0.083-2.099,0.169c-0.675,0.083-1.372,0.217-1.75,0.587
					c-0.37,0.366-0.444,1.067-0.472,1.741c-0.028,0.686,0.017,1.396,0.031,2.104c0.055,1.419,0.086,2.842,0.113,4.263l-0.245-0.251
					l0,0c0.482,0.031,0.963,0.059,1.432,0.052c0.233-0.004,0.468-0.019,0.686-0.055C188.306,18.992,188.524,18.918,188.602,18.831z
					 M188.99,19.187c-0.272,0.261-0.557,0.304-0.811,0.355c-0.261,0.043-0.514,0.058-0.765,0.064
					c-0.502,0.011-0.992-0.019-1.479-0.052l0,0l-0.228-0.008l-0.019-0.242c-0.113-1.417-0.205-2.834-0.293-4.252
					c-0.044-0.714-0.081-1.423-0.066-2.159c-0.002-0.181,0.011-0.367,0.03-0.557c0.011-0.187,0.036-0.376,0.083-0.571
					c0.062-0.383,0.252-0.803,0.559-1.128c0.168-0.149,0.34-0.293,0.532-0.371c0.187-0.108,0.376-0.159,0.564-0.214
					c0.376-0.104,0.745-0.162,1.107-0.2c0.728-0.083,1.438-0.114,2.152-0.14c1.421-0.055,2.842-0.085,4.265-0.108l0.224-0.004
					l0.043,0.209V9.81c0.122,0.548,0.245,1.103,0.304,1.683c0.025,0.292,0.043,0.588-0.028,0.922
					c-0.024,0.085-0.048,0.173-0.098,0.261c-0.048,0.091-0.126,0.178-0.193,0.228c-0.138,0.13-0.295,0.193-0.445,0.257
					c-0.61,0.196-1.179,0.187-1.738,0.219c-0.557,0.024-1.104,0.052-1.619,0.164c-0.516,0.104-0.973,0.347-1.239,0.735
					c-0.27,0.394-0.348,0.939-0.389,1.47c-0.038,0.54-0.017,1.094-0.028,1.663c-0.008,0.287-0.012,0.571-0.062,0.873
					C189.305,18.575,189.241,18.9,188.99,19.187z"/>
			</g>
		</g>
	</g>
	<g>
		<g>
			<path class="st14" d="M248.272,94.259l-13.321-12.264c-2.15-1.979-2.29-5.36-0.311-7.512l19.205-20.857
				c1.979-2.15,5.36-2.29,7.512-0.311l13.321,12.264c2.15,1.979,2.29,5.36,0.311,7.512l-19.205,20.857
				C253.805,96.1,250.424,96.238,248.272,94.259z"/>
		</g>
		<g>
			<path d="M247.977,94.579l-11.545-10.768l-1.443-1.347c-0.485-0.44-0.988-0.977-1.319-1.583c-0.692-1.213-0.901-2.683-0.588-4.038
				c0.154-0.678,0.435-1.325,0.827-1.901c0.402-0.587,0.88-1.039,1.317-1.525l2.683-2.896l10.721-11.588
				c1.799-1.931,3.543-3.866,5.389-5.793c1.011-0.929,2.38-1.445,3.745-1.44c1.368-0.007,2.734,0.518,3.745,1.446l11.626,10.679
				l1.453,1.334c0.488,0.435,0.99,0.952,1.327,1.551c0.707,1.192,0.924,2.651,0.65,4.014c-0.136,0.684-0.403,1.344-0.784,1.935
				c-0.091,0.15-0.191,0.295-0.306,0.43c-0.11,0.138-0.221,0.28-0.328,0.397l-0.652,0.742l-2.609,2.963
				c-1.755,1.961-3.518,3.912-5.305,5.844c-1.776,1.942-3.562,3.873-5.355,5.797l-2.689,2.889l-1.347,1.443l-0.673,0.723
				l-0.335,0.361l-0.383,0.374c-1.067,0.968-2.5,1.506-3.928,1.491C250.439,96.112,249.021,95.552,247.977,94.579z M248.571,93.937
				c0.896,0.811,2.097,1.264,3.299,1.249c1.203-0.004,2.392-0.472,3.263-1.288l0.319-0.321l0.331-0.366l0.663-0.73l1.325-1.462
				l2.657-2.919c1.769-1.947,3.548-3.885,5.336-5.816c1.777-1.939,3.579-3.857,5.387-5.769l2.739-2.844
				c0.452-0.482,0.941-0.935,1.285-1.419c0.355-0.497,0.618-1.067,0.767-1.666c0.306-1.2,0.123-2.523-0.485-3.615
				c-0.306-0.556-0.712-1.013-1.203-1.455l-1.451-1.338l-11.601-10.706c-0.928-0.856-2.182-1.343-3.446-1.338
				c-1.264-0.007-2.519,0.482-3.446,1.336c-1.785,1.882-3.558,3.862-5.336,5.788l-10.663,11.638l-2.664,2.913
				c-0.44,0.493-0.916,0.958-1.253,1.463c-0.347,0.514-0.592,1.094-0.726,1.699c-0.27,1.211-0.076,2.521,0.546,3.592
				c0.312,0.548,0.716,0.984,1.208,1.421l1.459,1.327L248.571,93.937z"/>
		</g>
	</g>
	<g>
		<path class="st15" d="M213.403,9.594c-3.008-2.77,5.26,12.418,3.305,14.542c-1.954,2.124-12.087-2.72-15.001,0.493
			c-2.716,2.996,2.459,12.826,0.518,14.932c-1.942,2.109-17.055-3.526-14.952-1.591c2.33,2.145,37.728,34.738,37.728,34.738
			l5.923-6.432l0.316-0.342l14.011-15.218l0.287-0.311l5.595-6.075C251.13,44.333,216.726,12.656,213.403,9.594z"/>
	</g>
	<g class="st16">
		<polygon class="st7" points="250.781,44.58 245.033,50.708 217.117,24.416 212.945,9.095 		"/>
	</g>
	<g>
		<rect x="230.809" y="17.951" transform="matrix(0.6774 -0.7356 0.7356 0.6774 46.9315 182.0871)" width="0.527" height="39.168"/>
	</g>
	<g>
		<rect x="216.455" y="33.44" transform="matrix(0.6775 -0.7355 0.7355 0.6775 30.8702 176.5072)" width="0.527" height="39.22"/>
	</g>
	<g>
		<g>
			
				<rect x="226.998" y="55.776" transform="matrix(0.6774 -0.7356 0.7356 0.6774 30.7973 202.7006)" class="st17" width="39.02" height="20.922"/>
		</g>
		<g>
			<path d="M241.004,87.92l-15.739-14.071l-0.37-0.329l0.34-0.37l26.472-28.669l0.302-0.328l0.321,0.302l15.271,14.305l0.191,0.181
				l-0.176,0.191L241.004,87.92z M240.982,87.395l26.25-28.621l0.016,0.371l-15.513-14.041l0.623-0.025l-26.393,28.742l-0.03-0.699
				L240.982,87.395z"/>
		</g>
	</g>
	<g>
		<g>
			<g>
				<polygon class="st17" points="226.062,53.373 230.223,57.206 234.992,56.206 235.597,51.372 231.434,47.539 226.665,48.539 				
					"/>
			</g>
			<g>
				<path d="M226.273,53.295l4.103,3.745l-0.2-0.055l4.716-1.251l-0.378,0.412l0.858-4.803l0.071,0.193l-4.163-3.832l0.2,0.055
					l-4.709,1.275l0.397-0.431L226.273,53.295z M225.85,53.451l0.314-4.975l0.024-0.376l0.374-0.058l4.827-0.726l0.121-0.019
					l0.079,0.072l4.163,3.832l0.081,0.074l-0.008,0.121l-0.35,4.867l-0.025,0.357l-0.352,0.055l-4.82,0.752l-0.121,0.019
					l-0.079-0.074L225.85,53.451z"/>
			</g>
		</g>
		<g>
			<g>
				<path class="st7" d="M227.469,51.796l2.416-2.623l0.701,0.646l0.457,2.652c0.145,0.684,0.34,1.139,0.587,1.366
					c0.2,0.185,0.385,0.288,0.554,0.314c0.169,0.025,0.316-0.03,0.44-0.164c0.121-0.131,0.15-0.304,0.09-0.514
					c-0.064-0.21-0.2-0.412-0.408-0.604l0.803-0.873c0.284,0.264,0.495,0.563,0.631,0.901s0.176,0.671,0.122,1.001
					s-0.196,0.623-0.43,0.875c-0.374,0.406-0.778,0.612-1.211,0.618c-0.433,0.007-0.867-0.191-1.302-0.59
					c-0.183-0.168-0.335-0.359-0.459-0.574c-0.123-0.214-0.224-0.468-0.307-0.758c-0.083-0.292-0.166-0.714-0.246-1.264
					l-0.245-1.123l-1.362,1.479L227.469,51.796z"/>
			</g>
		</g>
	</g>
	<g class="st16">
		
			<rect x="252.129" y="45.189" transform="matrix(0.6834 -0.7301 0.7301 0.6834 39.5961 203.8527)" class="st7" width="5.375" height="22.176"/>
	</g>
	<g>
		
			<rect x="221.835" y="60.735" transform="matrix(0.6774 -0.7356 0.7356 0.6774 32.5367 197.5291)" class="st15" width="39.292" height="1.865"/>
		<path d="M228.889,76.928l-1.567-1.443l0.09-0.098l26.706-29.002l1.567,1.443l-0.09,0.098L228.889,76.928z M227.695,75.469
			l1.179,1.085l26.438-28.712l-1.179-1.085L227.695,75.469z"/>
	</g>
	<g>
		
			<rect x="231.862" y="69.971" transform="matrix(0.6774 -0.7356 0.7356 0.6774 28.9775 207.884)" class="st15" width="39.292" height="1.865"/>
		<path d="M238.917,86.162l-1.567-1.443l0.09-0.098l26.706-29.004l1.567,1.443l-0.09,0.098L238.917,86.162z M237.721,84.703
			l1.179,1.085l26.438-28.712l-1.179-1.085L237.721,84.703z"/>
	</g>
	<g>
		<path d="M254.798,50.986c0.656,0.371,1.255,0.803,1.836,1.258c0.583,0.45,1.137,0.935,1.678,1.429
			c0.535,0.504,1.062,1.013,1.56,1.559c0.499,0.541,0.982,1.103,1.408,1.722c-0.652-0.376-1.251-0.809-1.833-1.261
			c-0.583-0.45-1.137-0.932-1.683-1.426c-0.537-0.499-1.065-1.011-1.561-1.555C255.703,52.172,255.223,51.608,254.798,50.986z"/>
	</g>
	<g>
		<path d="M231.88,75.878c0.656,0.371,1.255,0.803,1.836,1.258c0.584,0.45,1.137,0.935,1.678,1.429
			c0.535,0.504,1.062,1.013,1.559,1.559c0.499,0.541,0.982,1.103,1.408,1.722c-0.652-0.376-1.251-0.809-1.833-1.261
			c-0.584-0.45-1.137-0.932-1.683-1.426c-0.537-0.499-1.065-1.011-1.561-1.555C232.785,77.063,232.305,76.5,231.88,75.878z"/>
	</g>
	<g>
		<path d="M251.932,54.098c0.656,0.371,1.255,0.803,1.836,1.258c0.583,0.45,1.137,0.935,1.678,1.429
			c0.535,0.504,1.062,1.013,1.56,1.559c0.499,0.541,0.982,1.103,1.408,1.722c-0.652-0.376-1.251-0.809-1.833-1.261
			c-0.583-0.45-1.137-0.932-1.683-1.426c-0.537-0.499-1.065-1.011-1.561-1.555C252.838,55.284,252.357,54.721,251.932,54.098z"/>
	</g>
	<g>
		<path d="M249.069,57.21c0.656,0.371,1.255,0.803,1.836,1.258c0.583,0.45,1.137,0.935,1.678,1.429
			c0.535,0.504,1.062,1.013,1.56,1.559c0.499,0.541,0.982,1.103,1.408,1.722c-0.652-0.376-1.251-0.809-1.833-1.261
			c-0.585-0.45-1.137-0.932-1.683-1.426c-0.537-0.499-1.065-1.011-1.561-1.555C249.972,58.395,249.494,57.833,249.069,57.21z"/>
	</g>
	<g>
		<path d="M246.203,60.32c0.656,0.371,1.255,0.803,1.835,1.258c0.585,0.45,1.137,0.935,1.678,1.429
			c0.535,0.504,1.062,1.013,1.559,1.559c0.499,0.541,0.982,1.103,1.408,1.722c-0.652-0.376-1.251-0.809-1.833-1.261
			c-0.583-0.45-1.137-0.932-1.683-1.426c-0.537-0.499-1.065-1.011-1.561-1.555C247.109,61.505,246.629,60.943,246.203,60.32z"/>
	</g>
	<g>
		<path d="M243.338,63.432c0.656,0.371,1.255,0.803,1.836,1.258c0.583,0.45,1.137,0.935,1.678,1.429
			c0.535,0.504,1.062,1.013,1.56,1.559c0.499,0.541,0.982,1.103,1.408,1.722c-0.652-0.376-1.251-0.809-1.833-1.261
			c-0.583-0.45-1.137-0.932-1.683-1.426c-0.537-0.499-1.065-1.011-1.561-1.555C244.243,64.618,243.763,64.054,243.338,63.432z"/>
	</g>
	<g>
		<path d="M240.475,66.544c0.656,0.371,1.255,0.803,1.836,1.258c0.585,0.45,1.137,0.935,1.678,1.429
			c0.535,0.504,1.062,1.013,1.559,1.559c0.499,0.541,0.982,1.103,1.408,1.722c-0.652-0.376-1.251-0.809-1.833-1.261
			c-0.585-0.45-1.137-0.932-1.683-1.426c-0.537-0.499-1.065-1.011-1.561-1.555C241.378,67.73,240.899,67.167,240.475,66.544z"/>
	</g>
	<g>
		<path d="M237.609,69.654c0.656,0.371,1.255,0.803,1.836,1.258c0.584,0.45,1.137,0.935,1.678,1.429
			c0.535,0.504,1.062,1.013,1.559,1.559c0.499,0.541,0.982,1.103,1.408,1.722c-0.652-0.376-1.251-0.809-1.833-1.261
			c-0.583-0.45-1.137-0.932-1.683-1.426c-0.537-0.499-1.065-1.011-1.561-1.555C238.515,70.839,238.033,70.279,237.609,69.654z"/>
	</g>
	<g>
		<path d="M234.744,72.765c0.656,0.371,1.255,0.803,1.836,1.258c0.584,0.45,1.137,0.935,1.678,1.429
			c0.535,0.504,1.062,1.013,1.56,1.56c0.499,0.541,0.982,1.103,1.408,1.722c-0.652-0.376-1.251-0.809-1.833-1.261
			c-0.584-0.45-1.137-0.932-1.683-1.426c-0.537-0.499-1.065-1.011-1.561-1.555C235.649,73.951,235.169,73.388,234.744,72.765z"/>
	</g>
	<g>
		<path d="M241.004,87.92l-15.739-14.071l-0.37-0.329l0.34-0.37l26.472-28.669l0.302-0.328l0.321,0.302l15.271,14.305l0.185,0.174
			l-0.169,0.197c-2.14,2.472-4.327,4.924-6.53,7.365c-2.196,2.454-4.437,4.855-6.661,7.282c-2.233,2.412-4.48,4.792-6.718,7.167
			l-3.36,3.52L241.004,87.92z M240.982,87.395l3.263-3.719l3.248-3.656c2.167-2.409,4.325-4.813,6.498-7.186
			c2.182-2.356,4.346-4.741,6.555-7.071c2.202-2.343,4.421-4.675,6.687-6.989l0.016,0.371l-15.513-14.041l0.623-0.025
			l-26.392,28.743l-0.03-0.699L240.982,87.395z"/>
	</g>
	<g>
		<path d="M213.159,9.858c-0.1-0.09-0.21-0.178-0.292-0.223c-0.025-0.03-0.094-0.002,0.064-0.019
			c0.09-0.019,0.162-0.113,0.164-0.134c0.011-0.025,0.007-0.019,0.007-0.008c-0.002,0.162,0.081,0.48,0.162,0.742
			c0.166,0.551,0.395,1.098,0.618,1.647c0.444,1.098,0.963,2.177,1.44,3.274c0.485,1.094,0.965,2.196,1.407,3.327
			c0.444,1.132,0.844,2.281,1.077,3.562c0.052,0.325,0.091,0.659,0.094,1.024c-0.004,0.366-0.012,0.765-0.236,1.261
			c-0.272,0.568-0.745,0.846-1.137,1.007c-0.406,0.164-0.778,0.217-1.13,0.248c-0.703,0.059-1.338-0.008-1.959-0.086
			c-0.62-0.079-1.219-0.193-1.81-0.323c-1.181-0.251-2.334-0.524-3.488-0.75c-1.15-0.214-2.307-0.421-3.437-0.383
			c-1.113,0.016-2.256,0.316-2.811,1.128c-0.274,0.402-0.41,0.927-0.468,1.468c-0.048,0.546-0.019,1.115,0.044,1.684
			c0.306,2.29,1.09,4.535,1.67,6.896c0.142,0.595,0.261,1.2,0.343,1.837c0.072,0.642,0.126,1.305-0.066,2.099
			c-0.113,0.397-0.283,0.839-0.75,1.225c-0.457,0.338-0.863,0.416-1.228,0.485c-0.728,0.113-1.368,0.072-1.998,0.008
			c-1.253-0.126-2.435-0.425-3.607-0.712c-1.17-0.297-2.325-0.631-3.471-0.968c-1.15-0.328-2.298-0.647-3.448-0.911
			c-0.287-0.067-0.574-0.127-0.856-0.174c-0.268-0.047-0.597-0.09-0.75-0.072c-0.011,0-0.019,0.007,0.024-0.011
			c0.019-0.008,0.058-0.03,0.1-0.079c0.052-0.052,0.083-0.146,0.086-0.21c0-0.138-0.031-0.15-0.03-0.159
			c-0.002-0.004,0.007,0.011,0.021,0.025c0.052,0.055,0.193,0.181,0.293,0.276l0.659,0.606l5.261,4.847L204.248,53l10.575,9.64
			c3.541,3.195,7.071,6.403,10.632,9.576l0.002,0.002l-0.954,0.04l26.088-28.415l0.002-0.002l0.043,1.037
			c-3.074-2.972-6.192-5.895-9.288-8.843l-9.359-8.765c-3.11-2.932-6.271-5.81-9.407-8.713L213.159,9.858z M213.644,9.33
			l9.439,8.675c3.153,2.887,6.282,5.799,9.458,8.656l9.505,8.605c3.192,2.841,6.364,5.707,9.578,8.527l0.54,0.473l-0.497,0.563
			l-0.002,0.002L225.494,73.17l-0.459,0.497l-0.495-0.457l-0.002-0.002c-3.456-3.288-6.944-6.541-10.42-9.808l-10.476-9.744
			l-10.523-9.695l-5.265-4.844l-0.659-0.606c-0.114-0.11-0.202-0.176-0.355-0.338c-0.036-0.04-0.074-0.085-0.114-0.154
			c-0.036-0.072-0.102-0.155-0.1-0.367c0.002-0.102,0.055-0.232,0.127-0.312c0.067-0.076,0.138-0.119,0.191-0.145
			c0.108-0.052,0.174-0.058,0.238-0.067c0.442-0.038,0.707,0.031,1.026,0.074c0.306,0.053,0.601,0.114,0.899,0.174l3.509,0.758
			c2.328,0.45,4.693,0.899,6.956,1.028c0.557,0.024,1.12,0.025,1.57-0.053c0.219-0.036,0.406-0.119,0.426-0.146
			c-0.008,0.007,0.028-0.031,0.058-0.079c0.031-0.047,0.059-0.126,0.085-0.212c0.108-0.366,0.094-0.918,0.053-1.457
			c-0.043-0.548-0.131-1.117-0.228-1.691c-0.367-2.309-0.973-4.661-1.115-7.129c-0.038-0.618-0.04-1.247,0.044-1.887
			c0.081-0.635,0.247-1.305,0.656-1.888c0.41-0.587,1.009-1.001,1.634-1.23c0.624-0.232,1.264-0.34,1.891-0.394
			c2.509-0.169,4.906,0.284,7.25,0.569c1.158,0.131,2.347,0.302,3.339,0.214c0.24-0.024,0.463-0.067,0.61-0.131
			c0.154-0.059,0.21-0.145,0.196-0.122c0.031-0.047,0.079-0.259,0.079-0.485c0.004-0.232-0.017-0.493-0.053-0.758
			c-0.14-1.077-0.457-2.214-0.765-3.341c-0.321-1.13-0.686-2.26-1.06-3.388c-0.383-1.128-0.752-2.262-1.15-3.394
			c-0.196-0.569-0.38-1.14-0.554-1.731c-0.076-0.312-0.174-0.574-0.168-1.009c0.007-0.064,0.016-0.131,0.053-0.224
			c0.031-0.091,0.157-0.247,0.321-0.283c0.155-0.036,0.251-0.004,0.319,0.017c0.072,0.024,0.119,0.052,0.168,0.079
			C213.406,9.112,213.523,9.22,213.644,9.33z"/>
	</g>
	<g class="st0">
		<path class="st1" d="M268.493,59.902l-1.067-0.952L247.22,81.015c-13.212-12.228-30.862-28.166-44.81-41.304
			c-0.182-0.169-3.771,0.319-3.771,0.319l-7.176-1.631l-4.79-0.805l62.598,57.619l4.21,0.431l4.858-4.318
			c0,0-4.036-3.747-10.037-9.304L268.493,59.902z"/>
	</g>
	<g class="st16">
		<path class="st7" d="M192.98,13.075l-7.343-1.799c0,0-0.145-0.647,1.079-0.72c1.223-0.072,8.28,0.792,8.28,0.792l-0.145,1.44
			L192.98,13.075z"/>
	</g>
	<g>
		<g>
			<path d="M188.602,18.831c0.251-0.304,0.278-0.901,0.292-1.432c0.008-0.548-0.011-1.113,0.028-1.691
				c0.048-0.569,0.118-1.186,0.478-1.729c0.37-0.546,0.985-0.839,1.56-0.956c0.58-0.127,1.153-0.154,1.712-0.176
				c0.554-0.025,1.12-0.036,1.581-0.187c0.104-0.044,0.212-0.09,0.276-0.155c0.047-0.031,0.062-0.053,0.081-0.085
				c0.019-0.035,0.035-0.081,0.047-0.131c0.047-0.217,0.04-0.485,0.016-0.748c-0.053-0.533-0.173-1.075-0.293-1.617V9.922
				l0.268,0.205c-1.417,0.108-2.834,0.202-4.252,0.288c-0.706,0.053-1.415,0.083-2.099,0.169c-0.675,0.083-1.372,0.217-1.75,0.587
				c-0.37,0.366-0.444,1.067-0.472,1.741c-0.028,0.686,0.017,1.396,0.031,2.104c0.055,1.419,0.086,2.842,0.113,4.263l-0.245-0.251
				l0,0c0.482,0.031,0.963,0.059,1.432,0.052c0.233-0.004,0.468-0.019,0.686-0.055C188.306,18.992,188.524,18.918,188.602,18.831z
				 M188.99,19.187c-0.272,0.261-0.557,0.304-0.811,0.355c-0.261,0.043-0.514,0.058-0.765,0.064
				c-0.502,0.011-0.992-0.019-1.479-0.052l0,0l-0.228-0.008l-0.019-0.242c-0.113-1.417-0.205-2.834-0.293-4.252
				c-0.044-0.714-0.081-1.423-0.066-2.159c-0.002-0.181,0.011-0.367,0.03-0.557c0.011-0.187,0.036-0.376,0.083-0.571
				c0.062-0.383,0.252-0.803,0.559-1.128c0.168-0.149,0.34-0.293,0.532-0.371c0.187-0.108,0.376-0.159,0.564-0.214
				c0.376-0.104,0.745-0.162,1.107-0.2c0.728-0.083,1.438-0.114,2.152-0.14c1.421-0.055,2.842-0.085,4.265-0.108l0.224-0.004
				l0.043,0.209V9.81c0.122,0.548,0.245,1.103,0.304,1.683c0.025,0.292,0.043,0.588-0.028,0.922
				c-0.024,0.085-0.048,0.173-0.098,0.261c-0.048,0.091-0.126,0.178-0.193,0.228c-0.138,0.13-0.295,0.193-0.445,0.257
				c-0.61,0.196-1.179,0.187-1.738,0.219c-0.557,0.024-1.104,0.052-1.619,0.164c-0.516,0.104-0.973,0.347-1.239,0.735
				c-0.27,0.394-0.348,0.939-0.389,1.47c-0.038,0.54-0.017,1.094-0.028,1.663c-0.008,0.287-0.012,0.571-0.062,0.873
				C189.305,18.575,189.241,18.9,188.99,19.187z"/>
		</g>
	</g>
	<g>
		<path class="st17" d="M219.439,42.825c0.131-0.074,0.34-0.008,0.514-0.012c0.121-0.002,0.242-0.016,0.362-0.024
			c-0.028-0.119-0.025-0.259-0.091-0.35c-0.136-0.185-0.297-0.355-0.468-0.508c-0.376-0.338-0.765-0.661-1.222-1.054
			c-0.028,0.202-0.076,0.311-0.043,0.355c0.191,0.245,0.03,0.39-0.14,0.512c-0.482,0.348-1.36,0.37-1.843-0.028
			c-0.352-0.292-0.355-0.616,0.004-0.907c0.268-0.217,0.561-0.408,0.861-0.58c0.739-0.421,1.501-0.684,2.383-0.445
			c0.956,0.259,1.349,1.205,0.699,2.097c0.236,0.104,0.452,0.293,0.629,0.261c0.422-0.079,0.828-0.257,1.239-0.399
			c0.214-0.074,0.181-0.21,0.038-0.306c-0.083-0.058-0.223-0.074-0.325-0.053c-0.343,0.071-0.478-0.086-0.502-0.403
			c-0.007-0.09-0.008-0.181-0.038-0.264c-0.43-1.251-2.171-2.313-3.501-2.169c-0.875,0.095-1.623,0.408-2.243,1.054
			c-0.524,0.546-0.697,1.574-0.278,2.182c0.457,0.661,1.128,1.065,1.871,1.272C218.043,43.25,218.767,43.201,219.439,42.825z"/>
		<path class="st17" d="M204.348,28.368c0.83-0.288,1.266-0.992,1.177-1.852c-0.024-0.219-0.095-0.486-0.242-0.631
			c-0.61-0.592-1.242-1.15-1.841-1.689c-0.64,0.166-1.211,0.454-1.551,0.952c-0.247,0.359-0.367,0.82-0.435,1.3
			c0.578-0.268,1.156-0.537,1.733-0.808c0.256-0.119,0.504-0.268,0.773-0.323c0.157-0.031,0.357,0.071,0.516,0.155
			c0.119,0.064,0.196,0.2,0.297,0.3c0.19,0.187,0.19,0.348,0.011,0.564c-0.635,0.778-1.476,1.162-2.436,1.338
			c-0.292-0.058-0.606,0.011-0.899-0.038c0.011,0.223-0.008,0.44,0.017,0.665c0.008,0.067,0.028,0.138,0.038,0.205
			c0.283,0.205,0.703,0.353,1.039,0.319C203.155,28.763,203.763,28.572,204.348,28.368z"/>
		<path class="st17" d="M216.8,36.132c-0.599-0.816-1.408-1.253-2.439-1.241c-0.784,0.007-1.848,0.272-2.4,0.703
			c-0.939,0.73-1.168,1.888-0.357,2.775c1.288,1.41,3.926,1.021,4.966-0.043C217.192,37.691,217.325,36.845,216.8,36.132z
			 M216.274,36.784c-0.416,0.635-1.054,0.966-1.733,1.211c-0.442,0.159-0.911,0.242-1.294,0.34
			c-0.314-0.062-0.546-0.085-0.765-0.155c-0.449-0.145-0.563-0.578-0.245-0.956c0.459-0.544,1.068-0.883,1.721-1.134
			c0.331-0.127,0.697-0.157,1.041-0.259c0.431-0.127,0.784,0.043,1.128,0.256C216.458,36.291,216.485,36.461,216.274,36.784z"/>
		<path class="st17" d="M213.1,34.363c0.348-0.176,0.468-0.899,0.191-1.162c-0.707-0.673-1.423-1.336-2.141-1.995
			c-0.121-0.11-0.272-0.187-0.41-0.278c-0.017,0.021-0.036,0.043-0.053,0.064c0.04,0.11,0.081,0.221,0.142,0.394
			c-0.319,0.142-0.618,0.276-0.918,0.412c-0.725,0.328-1.438,0.68-2.175,0.968c-0.38,0.149-0.784,0.461-1.253,0.081
			c0.421,0.682,1.021,1.145,1.542,1.686c0.043-0.012,0.086-0.028,0.13-0.04c-0.011-0.191-0.021-0.385-0.035-0.576
			c-0.024-0.04-0.044-0.079-0.067-0.119c0.518-0.2,1.034-0.402,1.555-0.597c0.292-0.108,0.37,0.035,0.283,0.283
			c-0.104,0.302-0.247,0.592-0.367,0.888c-0.223,0.54-0.442,1.079-0.665,1.627c0.504,0.19,0.939,0.374,1.389,0.512
			c0.146,0.044,0.331-0.031,0.499-0.053c-0.055-0.131-0.076-0.295-0.169-0.394c-0.224-0.236-0.221-0.463-0.09-0.739
			c0.118-0.242,0.191-0.504,0.292-0.754c0.055-0.136,0.122-0.264,0.187-0.395c0.274,0.108,0.504,0.19,0.728,0.287
			C212.185,34.679,212.652,34.587,213.1,34.363z M210.543,33.107c-0.229-0.126-0.162-0.312,0.035-0.412
			c0.306-0.155,0.623-0.287,0.943-0.412c0.45-0.176,0.654,0.166,0.861,0.45c0.079,0.108,0.154,0.359,0.104,0.399
			c-0.233,0.197-0.508,0.348-0.769,0.516C211.274,33.449,210.896,33.3,210.543,33.107z"/>
		<path class="st17" d="M207.012,31.801c-0.454-0.094-0.941,0.276-1.377-0.066c-0.385-0.3-0.767-0.599-1.203-0.937
			c0.185-0.176,0.304-0.331,0.459-0.43c0.272-0.168,0.582-0.274,0.846-0.452c0.272-0.187,0.488-0.131,0.69,0.067
			c0.187,0.187,0.348,0.399,0.54,0.624c-0.11,0.098-0.204,0.166-0.274,0.252c-0.058,0.067-0.086,0.162-0.127,0.242
			c0.09,0.031,0.204,0.118,0.265,0.09c0.466-0.221,0.919-0.466,1.377-0.701c-0.011-0.048-0.019-0.098-0.03-0.146
			c-0.118-0.008-0.247-0.052-0.35-0.019c-0.378,0.122-0.968-0.2-1.043-0.604c-0.012-0.066,0.044-0.187,0.104-0.217
			c0.376-0.193,0.752-0.386,1.145-0.54c0.104-0.04,0.283,0.038,0.395,0.113c0.138,0.09,0.247,0.224,0.362,0.343
			c0.601,0.607,0.599,0.607,0.021,1.232c-0.025,0.028-0.04,0.064-0.098,0.159c0.13,0.064,0.295,0.209,0.367,0.169
			c0.445-0.228,0.871-0.495,1.355-0.781c-0.265-0.095-0.472-0.114-0.601-0.224c-0.612-0.529-1.206-1.081-1.799-1.631
			c-0.362-0.335-0.716-0.684-1.073-1.026c-0.04,0.012-0.083,0.025-0.122,0.038c0.223,0.389,0.048,0.564-0.274,0.723
			c-0.803,0.394-1.606,0.792-2.376,1.242c-0.442,0.257-0.809,0.314-1.217-0.028c-0.067-0.058-0.228-0.008-0.461-0.008
			c0.205,0.252,0.311,0.416,0.445,0.544c0.459,0.431,0.93,0.85,1.398,1.272c0.43,0.389,0.852,0.784,1.289,1.162
			c0.086,0.076,0.248,0.157,0.334,0.126c0.366-0.138,0.716-0.319,1.073-0.482C207.038,31.875,207.025,31.839,207.012,31.801z"/>
		<path class="st17" d="M223.757,42.891c-0.121,0.094-0.245,0.259-0.397,0.295c-0.521,0.126-1.049,0.214-1.578,0.306
			c-0.718,0.122-1.434,0.268-2.156,0.342c-0.376,0.038-0.769,0.28-1.151-0.011c-0.062-0.047-0.166-0.043-0.248-0.062
			c0.016,0.094-0.007,0.223,0.047,0.276c0.418,0.416,0.847,0.822,1.288,1.217c0.071,0.062,0.2,0.058,0.304,0.083
			c-0.008-0.104-0.017-0.205-0.025-0.311c-0.012-0.162-0.09-0.43-0.028-0.468c0.229-0.138,0.544-0.329,0.756-0.265
			c0.342,0.104,0.64,0.38,0.939,0.607c0.323,0.245,0.34,0.385,0.036,0.643c-0.166,0.14-0.403,0.2-0.616,0.27
			c-0.114,0.036-0.246,0.017-0.426,0.025c0.038,0.121,0.038,0.182,0.071,0.212c0.454,0.452,0.907,0.91,1.38,1.344
			c0.076,0.071,0.251,0.035,0.38,0.047c-0.016-0.114,0.011-0.268-0.053-0.34c-0.27-0.3-0.146-0.537,0.085-0.765
			c0.43-0.423,0.88-0.825,1.291-1.261c0.454-0.482,0.88-0.996,1.281-1.457C224.616,43.424,224.176,43.151,223.757,42.891z
			 M222.817,44.367c-0.205,0.191-0.438,0.357-0.671,0.509c-0.047,0.03-0.168-0.012-0.232-0.058
			c-0.118-0.079-0.228-0.174-0.316-0.283c-0.076-0.091-0.187-0.236-0.159-0.311c0.04-0.108,0.181-0.221,0.297-0.251
			c0.272-0.066,0.559-0.083,0.918-0.131c0.059,0.04,0.212,0.091,0.268,0.197C222.956,44.117,222.891,44.298,222.817,44.367z"/>
	</g>
</g>
<g>
	<path class="st7" d="M295.615,120.229l6.049-20.074h6.123l-9.294,26.69h-5.737l-9.257-26.69h6.104L295.615,120.229z"/>
	<path class="st7" d="M316.145,126.846h-5.5v-26.69h5.5V126.846z"/>
	<path class="st7" d="M337.3,115.279h-10.558v7.149h12.392v4.418h-17.891v-26.69h17.855v4.454h-12.356v6.361H337.3L337.3,115.279
		C337.3,115.279,337.3,115.279,337.3,115.279z"/>
	<path class="st7" d="M363.147,119.147l3.593-18.991h5.481l-5.921,26.69h-5.537l-4.344-17.855l-4.345,17.855h-5.535l-5.921-26.69
		h5.481l3.611,18.954l4.4-18.954h4.656L363.147,119.147z"/>
	<path class="st7" d="M405.492,117.955c-0.208,2.871-1.268,5.132-3.18,6.781c-1.913,1.65-4.434,2.475-7.563,2.475
		c-3.422,0-6.113-1.152-8.074-3.456c-1.961-2.302-2.943-5.465-2.943-9.486v-1.631c0-2.567,0.452-4.827,1.357-6.783
		c0.905-1.956,2.196-3.455,3.877-4.501c1.68-1.046,3.633-1.568,5.857-1.568c3.079,0,5.56,0.826,7.442,2.475
		c1.882,1.65,2.97,3.966,3.262,6.947h-5.499c-0.135-1.724-0.614-2.973-1.439-3.749c-0.824-0.776-2.08-1.164-3.766-1.164
		c-1.833,0-3.205,0.658-4.116,1.971s-1.378,3.351-1.402,6.114v2.015c0,2.884,0.437,4.993,1.31,6.324
		c0.873,1.333,2.251,1.999,4.133,1.999c1.699,0,2.967-0.388,3.804-1.164c0.838-0.776,1.318-1.976,1.439-3.601L405.492,117.955
		L405.492,117.955z"/>
	<path class="st7" d="M431.028,114.106c0,2.629-0.465,4.931-1.393,6.91c-0.929,1.98-2.258,3.507-3.987,4.583
		s-3.712,1.613-5.948,1.613c-2.212,0-4.187-0.532-5.921-1.595c-1.736-1.064-3.079-2.582-4.034-4.556
		c-0.952-1.973-1.436-4.244-1.448-6.81v-1.321c0-2.627,0.473-4.941,1.42-6.939c0.947-1.998,2.285-3.531,4.014-4.602
		c1.729-1.069,3.706-1.604,5.93-1.604c2.223,0,4.201,0.535,5.93,1.604c1.729,1.069,3.068,2.604,4.014,4.602
		c0.948,1.998,1.422,4.305,1.422,6.92v1.193h0.001V114.106z M425.455,112.896c0-2.799-0.502-4.924-1.504-6.38
		c-1.002-1.454-2.432-2.181-4.288-2.181c-1.846,0-3.27,0.718-4.272,2.154s-1.509,3.541-1.521,6.315v1.301
		c0,2.726,0.501,4.839,1.503,6.343c1.002,1.503,2.443,2.255,4.326,2.255c1.845,0,3.263-0.725,4.253-2.172
		c0.99-1.449,1.491-3.559,1.504-6.334L425.455,112.896L425.455,112.896z"/>
	<path class="st7" d="M455.225,100.156v17.579c0,2.921-0.913,5.231-2.74,6.93s-4.324,2.548-7.488,2.548
		c-3.116,0-5.592-0.826-7.425-2.475c-1.833-1.65-2.768-3.916-2.805-6.801v-17.781h5.5v17.616c0,1.748,0.418,3.021,1.256,3.821
		c0.836,0.801,1.995,1.2,3.474,1.2c3.091,0,4.661-1.625,4.711-4.877v-17.763L455.225,100.156L455.225,100.156z"/>
	<path class="st7" d="M469.616,117.076h-4.382v9.771h-5.499v-26.69h9.917c3.153,0,5.584,0.703,7.295,2.108s2.567,3.391,2.567,5.957
		c0,1.821-0.394,3.339-1.183,4.556s-1.983,2.184-3.583,2.906l5.774,10.907v0.257h-5.903L469.616,117.076z M465.234,112.62h4.437
		c1.38,0,2.45-0.351,3.208-1.054c0.757-0.703,1.137-1.671,1.137-2.906c0-1.258-0.358-2.248-1.073-2.97s-1.812-1.081-3.291-1.081
		h-4.418L465.234,112.62L465.234,112.62z"/>
	<path class="st7" d="M497.534,119.843c0-1.038-0.367-1.835-1.1-2.392c-0.734-0.556-2.053-1.143-3.96-1.761
		c-1.906-0.617-3.415-1.224-4.528-1.823c-3.03-1.637-4.546-3.843-4.546-6.617c0-1.442,0.406-2.728,1.219-3.859
		c0.813-1.13,1.979-2.013,3.501-2.648c1.521-0.635,3.229-0.953,5.124-0.953c1.906,0,3.606,0.346,5.097,1.036
		c1.491,0.69,2.648,1.665,3.474,2.923c0.824,1.259,1.237,2.689,1.237,4.289h-5.499c0-1.222-0.386-2.172-1.156-2.851
		c-0.769-0.678-1.851-1.017-3.245-1.017c-1.345,0-2.389,0.285-3.135,0.853c-0.745,0.568-1.118,1.318-1.118,2.245
		c0,0.868,0.437,1.596,1.31,2.181c0.873,0.587,2.16,1.137,3.859,1.65c3.128,0.942,5.408,2.108,6.837,3.502
		c1.43,1.393,2.145,3.128,2.145,5.206c0,2.31-0.873,4.122-2.621,5.435c-1.748,1.313-4.1,1.971-7.058,1.971
		c-2.053,0-3.923-0.376-5.609-1.128s-2.973-1.78-3.858-3.089c-0.886-1.307-1.329-2.822-1.329-4.546h5.517
		c0,2.946,1.76,4.418,5.279,4.418c1.308,0,2.328-0.265,3.062-0.797C497.166,121.54,497.534,120.797,497.534,119.843z"/>
	<path class="st7" d="M522.831,115.279h-10.558v7.149h12.392v4.418h-17.892v-26.69h17.855v4.454h-12.356v6.361h10.558
		L522.831,115.279C522.83,115.279,522.831,115.279,522.831,115.279z"/>
</g>
</svg>
