<?xml version="1.0" encoding="utf-8"?>
<!-- Generator: Adobe Illustrator 24.2.3, SVG Export Plug-In . SVG Version: 6.00 Build 0)  -->
<svg version="1.1" id="Layer_1" xmlns="http://www.w3.org/2000/svg" xmlns:xlink="http://www.w3.org/1999/xlink" x="0px" y="0px"
	 viewBox="0 0 288.573 209" style="enable-background:new 0 0 288.573 209;" xml:space="preserve">
<style type="text/css">
	.st0{opacity:0.4;}
	.st1{fill:#310E3F;}
	.st2{fill:#E0BDAE;}
	.st3{fill:#91ABB1;}
	.st4{fill:#8A3E6E;}
	.st5{fill:#FCF065;}
	.st6{fill:#EB519B;}
	.st7{fill:#FFFFFF;}
	.st8{fill:#A9DFF6;}
	.st9{fill:#2F141A;}
	.st10{fill:#D28ABB;}
	.st11{fill:#50B748;}
	.st12{fill:#CBAC94;}
	.st13{fill:#443E39;}
	.st14{fill:#E4A2AC;}
	.st15{fill:#E5B829;}
	.st16{opacity:0.25;}
	.st17{fill:#0B8266;}
</style>
<g>
	<g>
		<g class="st0">
			<path class="st1" d="M234.908,195.29c0-4.336-49.925-7.85-111.508-7.85s-111.508,3.515-111.508,7.85
				c0,2.583,17.713,4.873,45.051,6.304c-0.453,0.238-0.698,0.485-0.698,0.739c0,1.962,14.299,3.552,31.937,3.552
				c15.158,0,27.84-1.175,31.11-2.749c1.365,0.004,2.732,0.007,4.108,0.007c4.094,0,8.137-0.016,12.117-0.046
				c3.134,1.594,15.906,2.791,31.193,2.791c17.638,0,31.937-1.59,31.937-3.552c0-0.4-0.604-0.783-1.699-1.142
				C220.218,199.75,234.908,197.642,234.908,195.29z"/>
		</g>
		<g>
			<path class="st2" d="M212.759,51.913c1.881,0.818,3.607,2.211,5.656,2.288c0.227,0.009,0.444,0.009,0.652,0.004
				c5.024-0.125,4.753-4.101,7.458-7.225c0.906-1.045,2.102-1.802,3.346-2.406c8.968-4.341,23.463,0.549,22.603,11.958
				c-0.284,3.778-1.947,7.316-3.893,10.564c-5.153,8.592-13.839,12.161-20.234,19.469c-1.512,1.728-3.222,3.264-4.937,4.786
				c-1.796,1.594-2.883,3.034-4.183,5.048c-3.17,4.924-6.905,9.572-10.136,14.506c-2.977,4.545-5.842,9.162-8.594,13.848
				c-1.102,1.879-3.714,8.213-6.774,7.321c-3.421-0.997-2.143-10.946-3.579-13.567c-2.621-4.788-4.876-7.399-4.311-13.277
				c0.313-3.246,1.816-5.875,3.769-8.357c1.233-1.569,2.235-3.392,3.334-5.057c0.626-0.951,3.001-3.463,3.001-4.554
				c1.555-2.36,2.971-4.961,4.853-7.067c2.273-2.539,4.202-5.422,6.111-8.27c0.938-1.4,1.85-2.881,2.113-4.543
				c0.372-2.374-0.764-4.149-1.321-6.335C206.731,57.268,206.449,49.17,212.759,51.913z"/>
		</g>
		<g>
			<path d="M194.957,133.862c1.299-2.124,2.564-4.27,3.812-6.422c1.26-2.146,2.495-4.304,3.725-6.47
				c2.465-4.325,4.887-8.682,7.483-12.951c2.607-4.261,5.368-8.451,8.448-12.428c3.082-3.972,6.472-7.728,10.182-11.153
				c1.85-1.717,3.778-3.351,5.775-4.897c1.944-1.523,3.836-3.076,5.633-4.729c1.793-1.649,3.486-3.394,4.993-5.256
				c0.77-0.919,1.448-1.892,2.097-2.877c0.615-1,1.19-2.019,1.636-3.078c0.894-2.118,1.374-4.353,1.251-6.603
				c-0.103-2.253-0.755-4.492-1.64-6.702c-0.444-1.105-0.951-2.205-1.483-3.305c-0.536-1.098-1.093-2.227-1.649-3.312
				c-0.558-1.091-1.127-2.161-1.741-3.15c-0.613-0.984-1.281-1.892-2.019-2.509c-0.739-0.622-1.498-0.926-2.443-0.958
				c-0.94-0.03-2.019,0.199-3.097,0.549c-0.272,0.094-0.542,0.179-0.814,0.288l-0.405,0.155c-0.121,0.053-0.245,0.098-0.361,0.155
				c-0.473,0.217-0.912,0.471-1.313,0.77c-0.798,0.597-1.446,1.391-1.983,2.34c-1.068,1.914-1.724,4.279-2.347,6.639
				c-0.164,0.624-0.282,1.109-0.374,1.682c-0.089,0.56-0.153,1.137-0.201,1.734c-0.112,1.199-0.105,2.436-0.387,3.891
				c-0.155,0.718-0.389,1.573-1.07,2.374c-0.337,0.391-0.78,0.72-1.238,0.929c-0.457,0.208-0.915,0.32-1.334,0.37
				c-0.844,0.098-1.583,0.02-2.28-0.092c-0.348-0.059-0.687-0.126-1.015-0.208l-0.496-0.126c-0.21-0.059-0.411-0.125-0.597-0.201
				c-0.75-0.302-1.352-0.687-1.914-1.077c-0.56-0.391-1.072-0.801-1.566-1.205c-0.986-0.812-1.912-1.63-2.843-2.342
				c-0.917-0.707-1.903-1.343-2.706-1.52c-0.4-0.087-0.68-0.064-0.947,0.059c-0.269,0.118-0.574,0.389-0.851,0.775
				c-0.28,0.382-0.521,0.869-0.702,1.313c-0.169,0.457-0.26,0.923-0.282,1.402c-0.055,0.96,0.245,2.008,0.659,3.106
				c0.418,1.102,0.96,2.253,1.378,3.536c0.206,0.643,0.387,1.315,0.49,2.021c0.101,0.707,0.125,1.437,0.064,2.166
				c-0.151,1.459-0.674,2.843-1.4,4.012c-0.181,0.293-0.361,0.588-0.567,0.858c-0.201,0.28-0.4,0.551-0.579,0.785
				c-0.37,0.492-0.743,0.974-1.109,1.477c-2.937,3.987-5.838,8.043-8.734,12.089l-8.716,12.137c-1.459,2.019-2.929,4.034-4.43,6.026
				c-1.507,1.992-2.992,3.987-4.62,5.919l-0.926-0.764c1.516-1.93,2.939-3.979,4.368-6.008l4.245-6.134l8.412-12.336
				c2.809-4.114,5.58-8.244,8.478-12.325c0.359-0.51,0.739-1.02,1.109-1.529c0.197-0.263,0.359-0.496,0.516-0.727
				c0.171-0.229,0.309-0.471,0.451-0.709c0.571-0.956,0.912-1.969,1.006-2.992c0.075-1.026-0.114-2.074-0.494-3.152
				c-0.368-1.078-0.906-2.179-1.393-3.394c-0.475-1.212-0.945-2.598-0.901-4.142c0.02-0.761,0.16-1.533,0.414-2.248
				c0.276-0.713,0.586-1.354,1.032-1.983c0.444-0.622,1.045-1.267,1.912-1.678c0.426-0.203,0.906-0.33,1.374-0.368
				c0.468-0.037,0.919,0.007,1.329,0.094c0.827,0.179,1.507,0.51,2.124,0.858c0.615,0.354,1.171,0.741,1.695,1.135
				c1.05,0.789,1.999,1.617,2.944,2.376c0.929,0.748,1.901,1.479,2.736,1.805c0.103,0.041,0.197,0.07,0.286,0.094l0.409,0.096
				c0.277,0.064,0.549,0.112,0.816,0.153c0.531,0.081,1.045,0.105,1.439,0.05c0.197-0.026,0.348-0.076,0.457-0.129
				c0.107-0.055,0.171-0.107,0.238-0.19c0.135-0.153,0.291-0.529,0.378-1.024c0.179-0.995,0.199-2.262,0.297-3.539
				c0.048-0.645,0.112-1.306,0.215-1.976c0.096-0.659,0.267-1.384,0.418-1.967c0.311-1.225,0.638-2.456,1.041-3.694
				c0.407-1.238,0.881-2.489,1.562-3.716c0.678-1.221,1.61-2.415,2.806-3.321c0.593-0.453,1.235-0.827,1.892-1.133
				c0.164-0.078,0.33-0.144,0.494-0.217l0.466-0.181c0.306-0.125,0.627-0.231,0.943-0.343c1.278-0.423,2.666-0.775,4.222-0.722
				c0.773,0.026,1.583,0.177,2.342,0.479c0.761,0.297,1.448,0.737,2.03,1.231c1.171,0.997,1.962,2.146,2.666,3.266
				c0.698,1.128,1.292,2.26,1.868,3.385c0.576,1.133,1.12,2.235,1.674,3.375c0.549,1.139,1.085,2.303,1.566,3.508
				c0.969,2.399,1.708,5.018,1.805,7.754c0.121,2.736-0.51,5.484-1.583,7.929c-0.536,1.229-1.201,2.378-1.905,3.486
				c-0.732,1.085-1.494,2.148-2.336,3.128c-1.663,1.983-3.497,3.771-5.4,5.45c-1.905,1.678-3.902,3.239-5.91,4.742
				c-1.969,1.466-3.867,3.023-5.718,4.638c-7.419,6.457-13.526,14.31-18.99,22.582c-2.745,4.136-5.393,8.351-8.055,12.561
				c-1.332,2.104-2.671,4.206-4.034,6.293C197.787,129.761,196.385,131.822,194.957,133.862z"/>
		</g>
		<g>
			<path class="st2" d="M55.337,185.879c-0.978,1.551-1.796,3.204-2.758,4.746c-0.728,1.166-0.849,2.417-2.045,3.272
				c-2.305,1.649-3.627,1.102-6.232,0.538c-2.47-0.536-4.895-1.258-7.28-2.091c-2.465-0.862-5.173-0.025-7.703,0.348
				c-2.36,0.345-4.631,1.669-6.941,2.28c-3.511,0.927-7.089,0.521-10.49-0.647c-2.246-0.77-8.896-6.358-4.272-8.522
				c2.081-0.974,4.403-1.77,6.555-2.632c1.953-0.78,4.014-1.772,5.965-2.732c1.857-0.917,3.922-1.262,5.505-2.666
				c1.531-1.358,3.231-2.187,5.02-3.22c2.356-1.358,4.639-2.839,6.838-4.438c1.164-0.846,2.454-1.537,3.585-2.424
				c0.908-0.711,1.463-1.61,2.223-2.489c2.181-2.531,4.471-5.02,6.628-7.524c2.336-2.715,3.852-6.921,5.153-10.217
				c1.566-3.966,3.179-8.047,3.716-12.302c0.446-3.539,0.49-7.218,1.68-10.617c0.888-2.537,4.549-5.103,7.312-4.48
				c2.239,0.505,4.327,2.511,6.651,3.229c5.718,1.765,7.856,6.411,8.487,11.973c0.713,6.291-2.509,10.921-5.348,16.25
				c-3.684,6.912-5.573,14.681-9.707,21.363c-1.633,2.64-3.679,5.068-6.182,6.925C59.169,181.675,57.065,183.138,55.337,185.879z"/>
		</g>
		<g>
			<path d="M59.548,116.054c0.38,2.45,0.641,4.926,0.716,7.415c0.066,2.487-0.013,4.985-0.245,7.47
				c-0.457,4.972-1.52,9.915-3.261,14.635c-0.862,2.362-1.875,4.672-3.03,6.909c-1.159,2.237-2.481,4.392-3.92,6.466
				c-2.885,4.14-6.249,7.947-10.033,11.307c-3.799,3.364-8.062,6.198-12.568,8.498c-4.499,2.317-9.285,4.02-13.914,5.681
				c-1.148,0.425-2.288,0.851-3.337,1.332c-0.523,0.24-1.022,0.496-1.455,0.77c-0.42,0.272-0.785,0.576-0.934,0.812
				c-0.162,0.243-0.16,0.328-0.135,0.604c0.057,0.28,0.229,0.689,0.508,1.105c0.267,0.425,0.634,0.842,0.979,1.242
				c0.368,0.38,0.75,0.744,1.171,1.054c0.833,0.626,1.777,1.091,2.802,1.398c1.03,0.3,2.134,0.446,3.27,0.487
				c2.277,0.078,4.659-0.265,7.054-0.684c2.402-0.425,4.832-0.951,7.343-1.343c0.627-0.098,1.26-0.188,1.898-0.263
				c0.324-0.032,0.608-0.083,1.059-0.098c0.402-0.013,0.773,0.009,1.128,0.041c1.415,0.144,2.655,0.453,3.886,0.768
				c2.441,0.634,4.792,1.367,7.092,1.791c1.13,0.206,2.29,0.332,3.17,0.197c0.437-0.066,0.728-0.208,0.851-0.33
				c0.068-0.068,0.114-0.118,0.171-0.252c0.129-0.3,0.26-0.599,0.398-0.892c1.096-2.347,2.395-4.565,3.927-6.653
				c1.537-2.076,3.309-4.037,5.494-5.628c1.093-0.787,2.31-1.463,3.635-1.94c1.336-0.455,2.776-0.702,4.237-0.593
				c0.755,0.053,1.5,0.227,2.182,0.475c0.678,0.24,1.31,0.569,1.796,0.789c0.226,0.11,0.457,0.171,0.391,0.153
				c-0.016,0.002-0.153,0.009-0.234,0.059c-0.094,0.059-0.112,0.076-0.101,0.073c0.032-0.026,0.142-0.225,0.224-0.437
				c0.089-0.215,0.169-0.479,0.245-0.743c0.149-0.527,0.277-1.144,0.385-1.68c0.046-0.219,0.055-0.411,0.048-0.501
				c-0.02-0.098,0.011-0.002,0.068,0.028c0.048,0.025-0.039-0.044-0.234-0.076c-0.19-0.039-0.453-0.059-0.746-0.075
				c-0.295-0.016-0.619-0.022-0.988-0.057c-0.37-0.039-0.792-0.081-1.321-0.317c-0.26-0.121-0.551-0.309-0.789-0.581
				c-0.238-0.272-0.398-0.604-0.476-0.899c-0.153-0.602-0.089-1.059-0.025-1.459c0.075-0.396,0.19-0.759,0.286-1.043l0.3-0.91
				c0.192-0.615,0.423-1.187,0.634-1.78c0.215-0.59,0.433-1.177,0.663-1.754c1.818-4.643,3.76-9.206,5.729-13.764
				c1.973-4.554,3.987-9.086,6.042-13.603c1.022-2.26,2.072-4.51,3.138-6.75c1.078-2.239,2.139-4.475,3.325-6.687l1.063,0.556
				c-2.15,4.418-4.053,9.009-6.019,13.544c-1.944,4.552-3.849,9.123-5.711,13.708c-1.857,4.585-3.69,9.187-5.379,13.813
				c-0.217,0.577-0.425,1.155-0.622,1.732c-0.197,0.577-0.418,1.157-0.586,1.73l-0.269,0.86c-0.101,0.304-0.158,0.536-0.19,0.75
				c-0.032,0.206-0.013,0.385,0,0.382c0.004,0.002-0.011-0.048-0.044-0.085c-0.032-0.041-0.059-0.055-0.037-0.048
				c0.039,0.018,0.243,0.059,0.487,0.068c0.247,0.013,0.542,0.011,0.869,0.013c0.328,0.004,0.684,0.011,1.107,0.073
				c0.411,0.068,0.938,0.183,1.475,0.599c0.263,0.206,0.492,0.49,0.641,0.783c0.151,0.293,0.231,0.586,0.276,0.849
				c0.076,0.525,0.037,0.958-0.02,1.347c-0.121,0.682-0.243,1.279-0.418,1.949c-0.089,0.332-0.183,0.663-0.324,1.024
				c-0.146,0.361-0.291,0.737-0.65,1.192c-0.195,0.225-0.428,0.475-0.809,0.661c-0.359,0.183-0.809,0.26-1.133,0.234
				c-0.689-0.048-1.039-0.24-1.38-0.372c-0.645-0.286-1.12-0.523-1.612-0.689c-0.485-0.169-0.958-0.267-1.441-0.295
				c-1.015-0.064-2.065,0.125-3.067,0.476c-1.002,0.376-1.971,0.919-2.879,1.59c-1.816,1.349-3.397,3.119-4.78,5.036
				c-1.384,1.919-2.594,4.003-3.581,6.15c-0.123,0.269-0.238,0.538-0.354,0.807c-0.177,0.439-0.485,0.917-0.864,1.276
				c-0.777,0.746-1.711,1.036-2.487,1.168c-1.581,0.236-2.92,0.037-4.222-0.173c-2.581-0.459-4.974-1.194-7.334-1.782
				c-1.171-0.288-2.345-0.571-3.399-0.676c-0.26-0.025-0.51-0.037-0.727-0.03c-0.169,0-0.496,0.046-0.789,0.078
				c-0.59,0.068-1.185,0.153-1.782,0.245c-2.386,0.37-4.801,0.888-7.282,1.326c-2.479,0.428-5.033,0.812-7.717,0.722
				c-1.338-0.048-2.71-0.225-4.06-0.619c-1.347-0.4-2.662-1.045-3.808-1.91c-0.577-0.428-1.096-0.921-1.585-1.432
				c-0.234-0.265-0.459-0.533-0.684-0.805c-0.215-0.277-0.423-0.569-0.624-0.878c-0.394-0.624-0.775-1.347-0.947-2.288
				c-0.075-0.477-0.076-1.011,0.041-1.531c0.114-0.525,0.359-1.002,0.634-1.386c0.562-0.785,1.216-1.238,1.829-1.638
				c0.619-0.382,1.229-0.684,1.833-0.956c1.21-0.54,2.397-0.969,3.577-1.393c2.358-0.835,4.679-1.621,6.96-2.5
				c2.281-0.875,4.512-1.837,6.694-2.902c4.359-2.126,8.46-4.748,12.144-7.892c3.675-3.165,7.051-6.713,9.953-10.617
				c2.9-3.906,5.329-8.172,7.194-12.686c1.853-4.519,3.183-9.274,3.902-14.141C59.828,125.96,59.957,120.995,59.548,116.054z"/>
		</g>
		<g>
			<g>
				<path class="st3" d="M69.222,153.323c0.816,4.165,19.594,35.714,40.802,39.68c-1.258-3.432-1.525-4.913-1.525-4.913
					s15.882,9.059,51.171,0.977c-2.456-0.871-4.768-2.413-4.768-2.413s24.003-6.641,32.206-23.054
					c9.498-19.01-24.093-10.939-24.093-10.939l-77.321-5.667L69.222,153.323z"/>
			</g>
			<g>
				<path d="M69.554,153.507c0.068,0,0.094-0.068,0.089-0.061l0.064,0.203c0.048,0.135,0.094,0.274,0.151,0.411
					c0.107,0.276,0.229,0.549,0.354,0.823c0.252,0.547,0.525,1.085,0.809,1.621c0.569,1.072,1.177,2.124,1.807,3.165
					c1.262,2.08,2.614,4.108,4.029,6.09c2.831,3.961,5.917,7.743,9.27,11.262c3.357,3.508,6.991,6.765,10.987,9.475
					c3.987,2.692,8.386,4.856,13.061,5.704l0,0l-0.919,1.085c-0.229-0.84-0.446-1.682-0.641-2.532
					c-0.098-0.425-0.19-0.851-0.274-1.279c-0.083-0.433-0.16-0.851-0.217-1.313v-0.002l-0.14-0.748l0.7,0.352
					c1.868,0.938,3.955,1.594,6.019,2.137c2.081,0.533,4.195,0.94,6.326,1.233c4.263,0.593,8.579,0.757,12.883,0.659
					c4.307-0.105,8.602-0.512,12.87-1.116c4.268-0.608,8.499-1.441,12.695-2.441l0,0l-0.094,1.642
					c-0.86-0.394-1.669-0.844-2.445-1.332c-0.778-0.49-1.52-1.004-2.246-1.571l0,0l-0.654-0.435l0.764-0.245
					c2.985-0.956,5.93-2.141,8.78-3.476c2.852-1.338,5.635-2.824,8.279-4.519c2.64-1.697,5.155-3.585,7.445-5.706
					c2.283-2.126,4.331-4.503,5.951-7.144c0.796-1.324,1.529-2.701,2.052-4.128c0.531-1.415,0.875-2.911,0.718-4.311
					c-0.081-0.695-0.3-1.354-0.656-1.933c-0.359-0.577-0.869-1.065-1.455-1.47c-1.181-0.809-2.658-1.258-4.151-1.537
					c-3.019-0.536-6.179-0.457-9.296-0.195c-3.117,0.284-6.249,0.778-9.294,1.463l-0.112,0.025l-0.103-0.009l-38.649-2.931
					l-38.643-3.049l0,0l0.164-0.025C80.417,149.432,75.008,151.47,69.554,153.507z M68.892,153.139
					c5.528-2.181,11.101-4.361,16.668-6.498l0.078-0.03l0.085,0.007l0,0l38.676,2.618l38.667,2.734l-0.212,0.018
					c3.145-0.716,6.292-1.216,9.493-1.516c3.193-0.276,6.438-0.374,9.681,0.19c1.61,0.302,3.25,0.773,4.705,1.754
					c0.72,0.492,1.384,1.12,1.866,1.89c0.481,0.771,0.77,1.654,0.873,2.531c0.195,1.77-0.219,3.454-0.792,4.993
					c-0.579,1.551-1.354,2.983-2.2,4.37c-1.72,2.76-3.867,5.219-6.239,7.399c-2.369,2.189-4.985,4.082-7.712,5.759
					c-2.732,1.676-5.576,3.154-8.506,4.427c-2.937,1.262-5.919,2.39-9.016,3.235l0.11-0.68l0,0c0.77,0.405,1.581,0.777,2.39,1.102
					c0.812,0.328,1.634,0.608,2.454,0.818l2.99,0.768l-3.086,0.875l0,0c-4.256,0.931-8.552,1.697-12.881,2.232
					c-4.327,0.531-8.684,0.864-13.045,0.89c-4.361,0.02-8.732-0.225-13.05-0.908c-2.159-0.337-4.298-0.789-6.406-1.372
					c-2.109-0.599-4.176-1.279-6.168-2.328l0.56-0.396l0,0c0.114,0.38,0.263,0.789,0.411,1.183c0.151,0.396,0.309,0.789,0.473,1.183
					c0.328,0.785,0.676,1.562,1.036,2.333l0.602,1.288l-1.52-0.203l0,0c-4.972-0.982-9.506-3.318-13.563-6.144
					c-4.064-2.848-7.706-6.219-11.055-9.823c-3.342-3.616-6.4-7.481-9.198-11.52c-1.395-2.021-2.73-4.086-3.975-6.207
					c-0.622-1.061-1.223-2.134-1.782-3.233c-0.28-0.549-0.551-1.105-0.803-1.674c-0.125-0.284-0.249-0.571-0.359-0.869
					c-0.057-0.146-0.107-0.3-0.16-0.453l-0.07-0.236C68.868,153.507,68.859,153.288,68.892,153.139z"/>
			</g>
		</g>
		<g>
			<path class="st4" d="M85.791,142.351c-6.326,10.464,5.033,30.727,18.13,35.568c-0.945-3.152,0.777-7.15,0.777-7.15
				s1.626,16.689,34.56,14.185c-2.017-1.281-3.819-4.768-2.953-4.484c12.848,4.19,27.102-4.073,25.618-5.048
				c-3.815-2.509,4.683-1.341,13.266-11.503c-11.312-4.484-8.535-21.836-8.535-21.836l-16.521-1.704l-50.496-0.293L85.791,142.351z"
				/>
		</g>
		<g>
			<g>
				<path class="st3" d="M69.445,151.051c-15.408-25.086-13.111-46.098-9.862-61.902c0,0,2.769,3.078,6.077,3.716
					c-1.853-5.72-3.705-12.367-0.615-20.471l4.105,3.449c0,0-0.976-20.186,25.983-32.54l-1.809,9.176
					c0,0,14.025-24.622,66.789-12.62c-5.544,3.399-7.947,8.297-7.947,8.297s28.33-8.997,46.454,28.94
					c-4.947-2.902-9.173-2.082-9.173-2.082s19.119,19.554,13.377,43.617l-3.528-3.906c0,0,3.491,22.645-8.963,39.957
					c0,0-12.052-11.929-30.5-11.799s-65.022-2.885-67.864-2.358C89.129,141.051,69.445,151.051,69.445,151.051z"/>
			</g>
			<g>
				<path d="M69.341,151.424c-0.825-1.157-1.686-2.524-2.294-3.644c-0.682-1.164-1.301-2.362-1.935-3.552
					c-1.228-2.404-2.347-4.862-3.349-7.373c-2.01-5.018-3.48-10.26-4.361-15.609c-0.879-5.348-1.159-10.797-0.883-16.213
					c0.26-5.418,1.061-10.792,2.102-16.085l0.366-1.857l1.332,1.395l0,0c0.313,0.407,0.72,0.853,1.12,1.251
					c0.407,0.402,0.84,0.783,1.29,1.137c0.906,0.702,1.91,1.281,3.005,1.61l-0.442,0.499l0,0c-1.164-3.292-2.211-6.706-2.498-10.285
					c-0.149-1.782-0.11-3.591,0.131-5.379c0.238-1.787,0.678-3.548,1.269-5.251l0.411-1.187l1.022,0.816l0,0l3.769,3.847
					l-0.636,0.315l0,0c-0.035-0.967,0.032-1.881,0.14-2.809c0.105-0.926,0.269-1.841,0.468-2.747c0.4-1.816,0.965-3.593,1.682-5.311
					c0.713-1.717,1.569-3.378,2.544-4.965c0.982-1.581,2.086-3.086,3.281-4.517c1.183-1.441,2.509-2.754,3.865-4.032
					c0.7-0.613,1.382-1.249,2.12-1.82l1.089-0.875l1.125-0.827c3.01-2.191,6.241-4.066,9.594-5.667l1.944-0.928l-0.387,2.157l0,0
					l-2.52,9.036l-0.711-0.269l0,0c0.821-1.341,1.807-2.476,2.861-3.577c1.059-1.087,2.203-2.084,3.397-3.016
					c2.404-1.841,5.018-3.406,7.769-4.663c2.747-1.267,5.61-2.271,8.533-3.042c2.925-0.759,5.903-1.288,8.898-1.667
					c5.997-0.678,12.059-0.711,18.061-0.21c6.004,0.496,11.96,1.459,17.839,2.728l2.399,0.519l-2.084,1.391h-0.002
					c-0.805,0.451-1.605,0.923-2.356,1.475c-0.764,0.536-1.483,1.137-2.175,1.774c-0.693,0.634-1.343,1.324-1.953,2.045
					c-0.606,0.72-1.185,1.494-1.66,2.282l-0.464-0.54h0.002c2.459-0.713,4.954-0.984,7.472-1.039
					c2.513-0.044,5.033,0.195,7.504,0.689c4.945,0.988,9.659,3.071,13.814,5.934c4.162,2.863,7.789,6.459,10.875,10.431
					c3.101,3.97,5.693,8.309,7.913,12.809l1.518,3.078l-3.095-1.63l0,0c-0.619-0.416-1.258-0.823-1.933-1.153
					c-0.67-0.354-1.376-0.624-2.097-0.871c-0.724-0.236-1.47-0.411-2.229-0.527c-0.75-0.114-1.546-0.169-2.275-0.116l0.203-0.65l0,0
					c2.767,2.905,5.127,6.118,7.227,9.51c2.086,3.399,3.856,7.006,5.194,10.786c1.336,3.778,2.231,7.735,2.546,11.761
					c0.324,4.025,0.028,8.11-0.853,12.071l0,0l-0.711,1.999l-1.078-1.542l-3.04-4.346l0,0l0.67-0.32
					c0.505,3.502,0.627,7.01,0.538,10.527c-0.11,3.513-0.462,7.026-1.127,10.493c-0.663,3.465-1.617,6.886-2.937,10.177
					c-1.295,3.303-3.003,6.452-5.022,9.393l0,0l-0.645,0.929l-0.842-0.807c-0.878-0.842-1.901-1.678-2.918-2.445
					c-1.028-0.775-2.089-1.507-3.181-2.191c-2.185-1.37-4.475-2.579-6.855-3.574c-2.374-1.011-4.84-1.796-7.349-2.386
					c-2.513-0.569-5.077-0.919-7.653-1.032c-0.645-0.025-1.286-0.028-1.935-0.039l-1.981-0.009l-3.955-0.064
					c-2.635-0.059-5.267-0.146-7.898-0.24c-5.26-0.192-10.519-0.435-15.772-0.691c-10.51-0.505-21.016-1.116-31.516-1.575
					c-1.313-0.055-2.625-0.101-3.933-0.133c-0.652-0.013-1.31-0.026-1.947-0.013c-0.334,0.013-0.597,0.004-0.871,0.083
					c-0.28,0.073-0.586,0.179-0.886,0.286c-2.417,0.921-4.808,2.045-7.188,3.145c-2.378,1.114-4.746,2.253-7.108,3.403l-3.548,1.745
					l-1.768,0.875l-0.881,0.439l-0.442,0.221l-0.221,0.11l-0.11,0.055l-0.061,0.03C69.574,151.422,69.441,151.44,69.341,151.424z
					 M69.55,150.679c-0.064-0.035-0.16-0.035-0.219-0.004l0.048-0.025l0.11-0.057l0.219-0.112l0.439-0.225l0.879-0.448l1.761-0.892
					l3.526-1.772c2.356-1.175,4.716-2.338,7.092-3.478c2.384-1.128,4.746-2.271,7.236-3.246c0.317-0.118,0.629-0.234,0.986-0.328
					c0.361-0.107,0.766-0.107,1.085-0.123c0.678-0.022,1.334-0.013,1.997-0.007c1.321,0.02,2.637,0.055,3.955,0.096
					c10.523,0.361,21.029,0.873,31.539,1.278c5.254,0.206,10.507,0.398,15.762,0.542c2.627,0.07,5.251,0.133,7.877,0.167
					l3.935,0.026l1.964-0.011c0.665,0.007,1.338,0.004,2.008,0.022c2.68,0.094,5.352,0.433,7.973,1
					c2.616,0.588,5.189,1.382,7.664,2.41c2.482,1.011,4.871,2.244,7.157,3.646c1.142,0.702,2.253,1.455,3.334,2.253
					c1.087,0.807,2.115,1.626,3.145,2.594l-1.485,0.125l0,0c2.006-2.754,3.736-5.729,5.077-8.885
					c1.367-3.145,2.393-6.448,3.136-9.814c0.748-3.369,1.192-6.807,1.398-10.262c0.188-3.449,0.162-6.944-0.231-10.363l-0.144-1.244
					l0.814,0.927l0,0l4.016,3.467l-1.789,0.457l0,0c0.938-3.732,1.329-7.609,1.127-11.474c-0.195-3.865-0.949-7.708-2.146-11.415
					c-1.199-3.71-2.831-7.286-4.786-10.681c-1.964-3.382-4.226-6.639-6.833-9.535l0,0l-0.551-0.477l0.755-0.173
					c0.851-0.195,1.66-0.254,2.5-0.263c0.833,0,1.671,0.061,2.498,0.199c0.825,0.146,1.654,0.326,2.454,0.602
					c0.809,0.254,1.588,0.593,2.36,0.958l0,0l-1.575,1.448c-2.056-4.44-4.475-8.721-7.385-12.64
					c-2.896-3.924-6.31-7.476-10.254-10.335c-3.937-2.857-8.423-4.976-13.185-6.052c-2.378-0.536-4.817-0.829-7.259-0.846
					c-2.432-0.011-4.917,0.206-7.243,0.821h-0.002l-0.864,0.334l0.398-0.873c0.425-0.928,0.921-1.77,1.472-2.601
					c0.551-0.825,1.148-1.623,1.804-2.378c0.654-0.755,1.347-1.48,2.1-2.15c0.739-0.684,1.546-1.295,2.371-1.887h0.002l0.315,1.91
					c-5.781-1.358-11.634-2.413-17.535-3.01c-5.899-0.604-11.851-0.676-17.745-0.121c-2.942,0.317-5.869,0.78-8.743,1.472
					c-2.87,0.704-5.685,1.634-8.391,2.82c-2.708,1.178-5.283,2.658-7.655,4.407c-1.178,0.883-2.31,1.833-3.355,2.87
					c-1.032,1.032-2.034,2.159-2.795,3.357l0,0l-0.992,2.043l0.272-2.312l1.096-9.315l0,0l1.555,1.227
					c-3.296,1.443-6.477,3.15-9.45,5.169l-1.111,0.761L83.96,51.06c-0.728,0.527-1.402,1.118-2.1,1.684
					c-1.345,1.185-2.664,2.408-3.849,3.758c-1.194,1.338-2.305,2.751-3.303,4.245c-0.991,1.498-1.868,3.071-2.612,4.707
					c-0.748,1.633-1.349,3.335-1.796,5.079c-0.442,1.732-0.752,3.548-0.764,5.3l0,0l0.123,0.835l-0.757-0.521l-4.44-3.049l0,0
					l1.432-0.372c-0.63,1.566-1.122,3.186-1.43,4.847c-0.309,1.66-0.43,3.357-0.376,5.059c0.101,3.412,0.943,6.79,1.94,10.12l0,0
					l0.24,0.584l-0.682-0.085c-1.271-0.158-2.484-0.615-3.602-1.214c-0.558-0.304-1.098-0.638-1.617-1.006
					c-0.525-0.374-1.006-0.744-1.516-1.219l0,0l1.697-0.462c-1.128,5.219-2.008,10.479-2.362,15.786
					c-0.37,5.302-0.192,10.641,0.571,15.904c0.766,5.263,2.113,10.445,4.005,15.431c0.943,2.493,2.004,4.945,3.174,7.345
					c0.606,1.19,1.196,2.388,1.85,3.554c0.317,0.581,0.654,1.196,0.934,1.688C69.01,149.576,69.273,150.112,69.55,150.679z"/>
			</g>
		</g>
		<g>
			
				<ellipse transform="matrix(0.0207 -0.9998 0.9998 0.0207 13.7026 240.9407)" class="st5" cx="129.842" cy="113.476" rx="32.115" ry="16.54"/>
		</g>
		<g>
			<path class="st6" d="M108.894,77.518c-31.072-7.253-36.795,17.577-36.795,17.577s-4.865-4.092-4.41-16.575
				c3.394,9.134,6.319,10.107,8.403,10.687c0.807,0.224,0,0-0.332-0.768c-5.788-13.36,4.176-31.775,13.999-38.032
				c-2.9,9.716-1.56,15.559,1.03,22.4c0.514-2.038-1.571-31.95,58.49-30.703c0,0-7.872,7.94-8.357,14.797
				c10.004-5.628,33.61-2.019,50.671,13.437c0,0-8.242-2.303-11.085,1.942c14.228,8.71,21.505,25.805,19.497,37.711
				c-5.075-6.297-22.015-32.52-29.106-25.81c-9.896-11.181-31.913,0.984-40.316,16.124
				C130.582,100.305,115.138,78.974,108.894,77.518z"/>
		</g>
		<g>
			<g>
				<path class="st7" d="M120.602,109.527c0.468,16.32-1.621,30.167-14.672,31.961c-10.145,1.395-20.119-11.085-22.754-25.567
					c-2.942-16.175-3.975-30.143,14.432-34.96C116.013,76.145,119.979,87.759,120.602,109.527z"/>
			</g>
			<g>
				<path d="M121.217,109.509c0.121,3.436,0.14,6.884-0.078,10.337c-0.229,3.447-0.68,6.916-1.72,10.283
					c-0.527,1.678-1.201,3.329-2.122,4.867c-0.915,1.537-2.074,2.964-3.486,4.117c-1.406,1.162-3.051,2.026-4.771,2.585
					c-0.862,0.277-1.741,0.487-2.627,0.63c-0.89,0.151-1.833,0.212-2.751,0.162c-1.848-0.085-3.644-0.613-5.276-1.393
					c-1.638-0.777-3.122-1.813-4.451-2.99c-2.658-2.362-4.786-5.215-6.459-8.275c-1.678-3.06-2.946-6.321-3.828-9.67
					c-0.437-1.674-0.775-3.384-1.045-5.077c-0.277-1.693-0.536-3.39-0.755-5.096c-0.442-3.406-0.757-6.846-0.61-10.304
					c0.146-3.438,0.837-6.958,2.605-10.009c0.886-1.514,2.026-2.881,3.34-4.036c1.313-1.166,2.809-2.097,4.368-2.866
					c1.56-0.773,3.2-1.356,4.862-1.825c1.665-0.464,3.351-0.833,5.066-1.07c1.713-0.221,3.451-0.332,5.184-0.171
					c1.726,0.167,3.454,0.602,5.009,1.42c1.557,0.814,2.898,2.017,3.943,3.417c1.052,1.402,1.846,2.971,2.472,4.588
					c1.24,3.25,1.873,6.676,2.321,10.088C120.851,102.641,121.07,106.078,121.217,109.509z M119.987,109.544
					c-0.059-3.414-0.19-6.827-0.536-10.212c-0.357-3.38-0.894-6.761-2.026-9.95c-0.574-1.585-1.29-3.128-2.285-4.48
					c-0.984-1.354-2.239-2.511-3.712-3.307c-1.466-0.809-3.126-1.24-4.803-1.386c-1.68-0.153-3.384-0.048-5.059,0.217
					c-3.346,0.553-6.649,1.531-9.668,3.03c-1.505,0.759-2.918,1.686-4.183,2.783c-1.262,1.098-2.349,2.39-3.202,3.83
					c-1.726,2.881-2.47,6.273-2.644,9.651c-0.101,1.695-0.048,3.399,0.078,5.096c0.131,1.697,0.315,3.394,0.581,5.081
					c0.263,1.686,0.565,3.369,0.888,5.048c0.309,1.682,0.687,3.327,1.192,4.947c0.995,3.237,2.365,6.354,4.103,9.233
					c1.75,2.863,3.833,5.54,6.365,7.662c1.269,1.05,2.633,1.973,4.094,2.66c1.461,0.684,3.021,1.116,4.595,1.216
					c0.792,0.05,1.569,0.011,2.369-0.118c0.805-0.123,1.601-0.293,2.374-0.529c1.542-0.475,2.994-1.205,4.25-2.207
					c2.541-1.992,4.188-4.985,5.212-8.139c1.03-3.176,1.523-6.543,1.796-9.919C120.029,116.366,120.059,112.954,119.987,109.544z"/>
			</g>
		</g>
		<g>
			<path d="M125.366,108.8c0.825,16.412-1.807,28.822-14.884,30.427c-9.654,1.185-19.909-9.552-22.542-24.034
				c-2.942-16.175-3.975-30.143,14.432-34.96C120.775,75.418,124.174,85.081,125.366,108.8z"/>
			<path d="M108.985,139.641c-9.466,0-18.839-10.521-21.363-24.389c-2.992-16.446-3.955-30.456,14.668-35.331
				c7.218-1.887,12.197-1.583,15.672,0.963c5.471,4.007,7.012,13.647,7.73,27.899l0,0c0.471,9.355-0.245,15.996-2.253,20.904
				c-2.397,5.862-6.621,9.088-12.913,9.86C110.008,139.611,109.497,139.641,108.985,139.641z M110.385,79.353
				c-2.268,0-4.893,0.4-7.934,1.194c-18.084,4.734-17.128,18.465-14.196,34.59c2.601,14.29,12.555,24.946,22.186,23.769
				c11.074-1.358,15.578-10.639,14.6-30.091l0,0c-0.707-14.064-2.203-23.555-7.465-27.409
				C115.705,80.035,113.349,79.353,110.385,79.353z"/>
		</g>
		<g>
			<g>
				<path class="st7" d="M139.938,112.784c1.933,16.318,9.438,30.963,22.56,29.721c10.2-0.965,16.636-15.018,16.309-30.097
					c-0.341-15.722-3.03-30.253-22.059-30.729C137.72,81.204,136.976,87.814,139.938,112.784z"/>
			</g>
			<g>
				<path d="M140.495,112.716c0.439,3.399,1.118,6.765,2.1,10.035c0.984,3.264,2.266,6.446,3.991,9.347
					c1.722,2.889,3.915,5.525,6.676,7.31c2.747,1.793,6.063,2.548,9.309,2.177c1.585-0.171,3.117-0.716,4.499-1.54
					c1.384-0.823,2.612-1.927,3.698-3.163c2.166-2.495,3.719-5.541,4.842-8.714c1.122-3.184,1.813-6.529,2.161-9.908
					c0.179-1.688,0.272-3.39,0.276-5.089c-0.007-1.704-0.05-3.432-0.131-5.14c-0.175-3.421-0.521-6.836-1.308-10.143
					c-0.789-3.292-2.065-6.503-4.165-9.132c-1.043-1.313-2.294-2.456-3.694-3.384c-1.398-0.934-2.953-1.63-4.565-2.139
					c-1.614-0.512-3.296-0.821-4.991-1.002c-1.693-0.175-3.414-0.203-5.134-0.197c-1.715,0.016-3.43,0.105-5.116,0.354
					c-1.68,0.252-3.351,0.678-4.825,1.477c-1.479,0.785-2.706,1.99-3.48,3.474c-0.787,1.479-1.171,3.156-1.382,4.839
					c-0.407,3.385-0.197,6.84,0.081,10.265C139.634,105.868,140.058,109.292,140.495,112.716z M139.378,112.849
					c-0.37-3.438-0.722-6.881-0.949-10.342c-0.208-3.458-0.348-6.946,0.116-10.429c0.243-1.732,0.68-3.471,1.52-5.052
					c0.825-1.588,2.172-2.907,3.749-3.735c1.575-0.846,3.307-1.279,5.029-1.569c1.728-0.277,3.471-0.387,5.21-0.425
					c1.734-0.028,3.476-0.02,5.221,0.138c1.741,0.167,3.478,0.462,5.164,0.976c1.686,0.505,3.318,1.229,4.819,2.181
					c1.498,0.951,2.852,2.141,3.987,3.511c2.285,2.747,3.684,6.096,4.565,9.482c0.883,3.403,1.299,6.888,1.542,10.359
					c0.116,1.741,0.195,3.465,0.234,5.217c0.028,1.754-0.035,3.508-0.188,5.258c-0.324,3.495-1.008,6.971-2.152,10.317
					c-1.15,3.335-2.747,6.58-5.094,9.34c-1.173,1.374-2.552,2.607-4.142,3.545c-1.583,0.94-3.384,1.577-5.239,1.77
					c-1.816,0.192-3.668,0.101-5.453-0.337c-1.784-0.43-3.476-1.21-4.99-2.214c-3.033-2.032-5.317-4.906-7.058-7.968
					c-1.75-3.078-3.001-6.383-3.946-9.747C140.382,119.752,139.758,116.309,139.378,112.849z"/>
			</g>
		</g>
		<g>
			<g>
				<path d="M144.81,110.778c2.262,16.275,10.256,33.864,22.438,28.826c7.196-2.977,15.991-13.843,16.455-28.555
					c0.654-20.757-3.03-30.253-22.059-30.729C142.614,79.843,141.455,86.615,144.81,110.778z"/>
			</g>
			<g>
				<path d="M145.421,110.692c0.494,3.36,1.207,6.687,2.168,9.935c0.965,3.246,2.168,6.424,3.74,9.393
					c0.787,1.48,1.674,2.907,2.683,4.217c1.011,1.31,2.161,2.504,3.467,3.447c1.301,0.94,2.774,1.612,4.313,1.831
					c1.537,0.231,3.122-0.002,4.609-0.553c1.494-0.553,2.898-1.418,4.206-2.402c1.317-0.982,2.522-2.129,3.637-3.355
					c1.12-1.228,2.146-2.548,3.069-3.939c0.919-1.395,1.732-2.863,2.461-4.373c1.45-3.025,2.476-6.267,3.038-9.598
					c0.291-1.667,0.439-3.346,0.499-5.052c0.066-1.706,0.107-3.412,0.098-5.118c0-1.706-0.083-3.41-0.231-5.105
					c-0.155-1.693-0.368-3.385-0.752-5.038c-0.376-1.651-0.883-3.275-1.603-4.792c-0.724-1.516-1.658-2.929-2.829-4.114
					c-1.166-1.19-2.541-2.168-4.046-2.896c-1.505-0.732-3.115-1.251-4.757-1.631c-3.298-0.741-6.717-0.949-10.123-0.954
					c-1.702,0.009-3.408,0.078-5.086,0.33c-1.671,0.252-3.337,0.65-4.834,1.406c-1.496,0.746-2.778,1.885-3.62,3.316
					c-0.853,1.429-1.29,3.078-1.529,4.739c-0.236,1.667-0.277,3.366-0.24,5.064c0.039,1.697,0.167,3.394,0.33,5.092
					C144.426,103.929,144.909,107.313,145.421,110.692z M144.203,110.861c-0.425-3.401-0.823-6.811-1.07-10.243
					c-0.121-1.715-0.203-3.436-0.199-5.164c0.007-1.726,0.089-3.46,0.378-5.178c0.291-1.711,0.789-3.426,1.713-4.939
					c0.919-1.516,2.317-2.717,3.895-3.474c1.583-0.757,3.284-1.187,4.989-1.443c1.711-0.249,3.432-0.363,5.151-0.409
					c3.43-0.068,6.903,0.037,10.3,0.777c1.695,0.363,3.369,0.899,4.939,1.682c1.569,0.775,3.03,1.805,4.241,3.08
					c1.216,1.273,2.172,2.772,2.898,4.355c0.727,1.585,1.229,3.257,1.594,4.945c0.732,3.384,0.963,6.831,1.07,10.262
					c0.055,1.717,0.059,3.436,0.037,5.151c-0.025,1.717-0.105,3.458-0.322,5.178c-0.426,3.445-1.332,6.84-2.699,10.057
					c-1.361,3.22-3.231,6.232-5.53,8.904c-2.336,2.621-5.118,4.983-8.572,6.26c-1.722,0.617-3.639,0.871-5.49,0.56
					c-1.855-0.293-3.572-1.128-5.02-2.211c-1.452-1.091-2.68-2.41-3.74-3.821c-1.061-1.413-1.969-2.92-2.767-4.473
					c-1.594-3.108-2.783-6.383-3.723-9.709C145.34,117.676,144.66,114.284,144.203,110.861z"/>
			</g>
		</g>
		<g>
			<g>
				<path class="st8" d="M65.716,112.469c6.328-11.344,27.577-41.018,56.929-23.191c1.706-23.345-32.378-28.842-49.588-7.083
					c6.577,0.624,7.266,1.415,7.266,1.415S68.216,86.277,65.716,112.469z"/>
			</g>
			<g>
				<g>
					<path d="M65.828,112.114c-0.004-0.096-0.037-0.19-0.078-0.247c-0.041-0.059-0.075-0.081-0.07-0.11
						c-0.009-0.007,0.064-0.126,0.101-0.197l0.131-0.24l0.531-0.96c0.357-0.638,0.735-1.264,1.114-1.89
						c0.766-1.247,1.562-2.474,2.395-3.677c1.658-2.415,3.485-4.714,5.444-6.901c3.911-4.368,8.446-8.286,13.699-11.085
						c2.625-1.389,5.422-2.489,8.334-3.17c2.911-0.67,5.93-0.929,8.909-0.695c2.983,0.206,5.91,0.906,8.684,1.942
						c2.776,1.041,5.386,2.45,7.822,4.075l0,0l-0.565,0.291c0.076-2.715-0.263-5.438-1.26-7.911
						c-0.492-1.235-1.109-2.415-1.866-3.497c-0.757-1.082-1.649-2.065-2.632-2.946c-1.969-1.761-4.329-3.065-6.831-3.95
						c-2.509-0.875-5.16-1.367-7.833-1.472c-5.35-0.224-10.749,0.94-15.635,3.2c-4.897,2.255-9.287,5.621-12.87,9.755l-0.256-0.602
						c1.247,0.046,2.495,0.11,3.753,0.229c0.627,0.061,1.258,0.133,1.896,0.243c0.32,0.053,0.641,0.121,0.969,0.201
						c0.167,0.046,0.332,0.089,0.51,0.153c0.087,0.028,0.181,0.07,0.277,0.112c0.055,0.026,0.101,0.046,0.162,0.083
						c0.076,0.055,0.083,0.025,0.282,0.217l0.004,0.004l0.929,1.026l-1.376,0.324c-0.219,0.053-0.565,0.173-0.849,0.295
						c-0.297,0.125-0.593,0.274-0.883,0.426c-0.581,0.315-1.139,0.689-1.674,1.096c-1.077,0.809-2.038,1.787-2.914,2.834
						c-1.743,2.113-3.119,4.554-4.197,7.12c-1.085,2.566-1.907,5.254-2.524,7.991c-0.311,1.37-0.576,2.749-0.803,4.137l-0.313,2.04
						c-0.041,0.284-0.11,0.536-0.212,0.816C66.034,111.453,65.917,111.773,65.828,112.114z M65.607,112.825
						c-0.013-0.363-0.053-0.746-0.076-1.171c-0.026-0.423-0.018-0.873,0.018-1.292l0.028-0.313l0.032-0.267l0.066-0.529l0.133-1.059
						c0.192-1.411,0.425-2.815,0.702-4.215c0.553-2.797,1.319-5.564,2.365-8.24c1.041-2.675,2.399-5.258,4.197-7.564
						c0.906-1.144,1.912-2.227,3.073-3.152c0.577-0.466,1.187-0.899,1.839-1.276c0.328-0.186,0.661-0.366,1.013-0.523
						c0.363-0.162,0.68-0.297,1.146-0.423l-0.444,1.349l0.002,0.004c0.142,0.138,0.081,0.068,0.094,0.081
						c-0.004-0.007-0.028-0.02-0.041-0.03c-0.044-0.025-0.087-0.053-0.144-0.081c-0.11-0.057-0.238-0.11-0.366-0.162
						c-0.265-0.101-0.542-0.195-0.829-0.28c-0.571-0.173-1.164-0.317-1.761-0.448c-1.196-0.265-2.413-0.476-3.635-0.674
						l-0.622-0.098l0.363-0.503c3.27-4.515,7.65-8.314,12.725-10.816c5.057-2.516,10.759-3.83,16.453-3.561
						c2.839,0.135,5.683,0.654,8.364,1.663c2.68,0.995,5.219,2.467,7.305,4.464c2.104,1.969,3.707,4.478,4.606,7.195
						c0.899,2.721,1.128,5.613,0.803,8.398l-0.068,0.579l-0.496-0.288l0,0c-5.057-2.758-10.564-4.705-16.225-4.989
						c-5.647-0.322-11.315,1.068-16.337,3.725c-2.52,1.313-4.906,2.902-7.142,4.686c-2.239,1.78-4.35,3.735-6.324,5.829
						c-1.98,2.089-3.804,4.325-5.551,6.619c-0.871,1.15-1.704,2.33-2.511,3.528c-0.402,0.599-0.796,1.205-1.185,1.813l-0.577,0.917
						l-0.313,0.508c-0.085,0.129-0.206,0.267-0.339,0.366C65.821,112.698,65.698,112.764,65.607,112.825z"/>
				</g>
			</g>
		</g>
		<g>
			<g>
				<path class="st8" d="M195.466,114.164c-5.851-11.597-25.853-42.125-55.918-25.533c-0.735-23.395,33.547-27.472,49.84-5.02
					c-6.596,0.35-7.319,1.114-7.319,1.114S194.055,87.892,195.466,114.164z"/>
			</g>
			<g>
				<g>
					<path d="M195.56,114.525c-0.089-0.066-0.21-0.135-0.337-0.24c-0.126-0.105-0.243-0.247-0.324-0.38l-0.293-0.521l-0.538-0.94
						c-0.363-0.624-0.732-1.244-1.109-1.862c-0.755-1.231-1.54-2.443-2.362-3.629c-1.651-2.367-3.382-4.674-5.272-6.844
						c-1.883-2.172-3.911-4.215-6.077-6.085c-2.159-1.877-4.478-3.561-6.941-4.979c-4.906-2.863-10.51-4.484-16.167-4.398
						c-5.667,0.048-11.252,1.765-16.418,4.311l0,0l-0.508,0.269l-0.044-0.581c-0.21-2.795,0.14-5.676,1.15-8.357
						c1.011-2.678,2.715-5.118,4.899-6.997c2.166-1.91,4.766-3.275,7.483-4.158c2.721-0.897,5.582-1.295,8.425-1.313
						c5.698-0.032,11.341,1.518,16.291,4.241c4.967,2.71,9.185,6.687,12.264,11.337l0.343,0.516l-0.624,0.073
						c-1.229,0.144-2.454,0.309-3.662,0.521c-0.602,0.107-1.201,0.227-1.779,0.376c-0.288,0.073-0.571,0.155-0.84,0.245
						c-0.129,0.048-0.26,0.094-0.372,0.146c-0.059,0.025-0.105,0.053-0.149,0.075c-0.013,0.011-0.039,0.025-0.044,0.028
						c0.013-0.013-0.053,0.057,0.096-0.076l0.004-0.004l-0.389-1.367c0.459,0.144,0.773,0.293,1.127,0.471
						c0.343,0.173,0.67,0.366,0.991,0.565c0.636,0.405,1.229,0.862,1.784,1.352c1.122,0.974,2.084,2.095,2.939,3.277
						c1.702,2.376,2.951,5.016,3.881,7.73c0.936,2.717,1.583,5.514,2.021,8.332c0.221,1.409,0.394,2.824,0.527,4.239l0.089,1.063
						l0.044,0.531l0.022,0.269l0.016,0.313c0.018,0.42,0.009,0.871-0.035,1.292C195.644,113.781,195.589,114.164,195.56,114.525z
						 M195.37,113.805c-0.076-0.343-0.177-0.67-0.269-0.951c-0.092-0.284-0.149-0.538-0.179-0.825l-0.224-2.047
						c-0.171-1.395-0.378-2.786-0.632-4.167c-0.503-2.76-1.214-5.479-2.191-8.089c-0.972-2.607-2.242-5.103-3.897-7.288
						c-0.831-1.085-1.752-2.1-2.793-2.955c-0.516-0.43-1.059-0.827-1.628-1.166c-0.284-0.167-0.574-0.328-0.864-0.464
						c-0.277-0.135-0.617-0.269-0.835-0.33l-1.361-0.38l0.972-0.986l0.004-0.004c0.208-0.183,0.21-0.153,0.291-0.206
						c0.064-0.032,0.11-0.05,0.164-0.076c0.098-0.037,0.195-0.075,0.282-0.098c0.179-0.057,0.348-0.094,0.517-0.131
						c0.332-0.068,0.656-0.121,0.978-0.16c0.643-0.083,1.273-0.129,1.905-0.164c1.26-0.068,2.511-0.081,3.76-0.075l-0.282,0.59
						c-3.408-4.279-7.655-7.824-12.455-10.28c-4.79-2.459-10.134-3.845-15.488-3.845c-2.675-0.004-5.343,0.376-7.888,1.146
						c-2.537,0.78-4.947,1.986-6.989,3.664c-1.017,0.84-1.949,1.784-2.749,2.834c-0.803,1.05-1.468,2.203-2.01,3.417
						c-1.098,2.432-1.551,5.138-1.585,7.852l-0.551-0.315l0,0c2.502-1.523,5.169-2.824,7.984-3.747
						c2.813-0.919,5.768-1.496,8.755-1.579c2.985-0.11,5.991,0.276,8.872,1.065c2.881,0.801,5.63,2.017,8.196,3.513
						c5.134,3.016,9.501,7.115,13.226,11.643c1.866,2.268,3.596,4.641,5.153,7.122c0.783,1.235,1.527,2.498,2.239,3.773
						c0.354,0.641,0.707,1.279,1.034,1.933l0.492,0.979l0.121,0.247c0.032,0.07,0.101,0.195,0.092,0.199
						c0.002,0.028-0.03,0.048-0.075,0.105C195.414,113.617,195.377,113.708,195.37,113.805z"/>
				</g>
			</g>
		</g>
		<g>
			
				<ellipse transform="matrix(0.0207 -0.9998 0.9998 0.0207 12.9103 208.2796)" class="st7" cx="112.773" cy="97.55" rx="8.065" ry="5.654"/>
			<path d="M112.688,106.067c-0.03,0-0.061,0-0.092,0c-3.362-0.07-6.017-3.943-5.919-8.633c0.096-4.689,2.896-8.449,6.273-8.38
				c3.362,0.07,6.017,3.943,5.919,8.633C118.774,102.332,116.009,106.067,112.688,106.067z M112.857,89.939
				c-2.839,0-5.206,3.346-5.291,7.511c-0.087,4.202,2.179,7.669,5.05,7.728c0.025,0,0.05,0,0.075,0c2.839,0,5.206-3.346,5.291-7.511
				c0.087-4.202-2.179-7.669-5.05-7.728C112.907,89.939,112.881,89.939,112.857,89.939z"/>
		</g>
		<g>
			
				<ellipse transform="matrix(0.0207 -0.9998 0.9998 0.0207 -7.463 215.8118)" class="st7" cx="106.432" cy="111.715" rx="4.034" ry="2.826"/>
			<path d="M106.389,115.977c-0.016,0-0.03,0-0.046,0c-1.679-0.035-3.008-1.971-2.959-4.318c0.025-1.122,0.354-2.175,0.929-2.959
				c0.593-0.809,1.398-1.24,2.207-1.229c1.682,0.035,3.01,1.971,2.959,4.316C109.431,114.111,108.049,115.977,106.389,115.977z
				 M106.472,107.913c-0.667,0-1.306,0.372-1.802,1.05c-0.523,0.713-0.823,1.676-0.844,2.708c-0.044,2.1,1.089,3.835,2.527,3.865
				c0.013,0,0.026,0,0.037,0c1.42,0,2.603-1.674,2.646-3.755l0,0c0.044-2.1-1.089-3.835-2.527-3.863
				C106.499,107.913,106.485,107.913,106.472,107.913z"/>
		</g>
		<g>
			
				<ellipse transform="matrix(0.0207 -0.9998 0.9998 0.0207 67.3238 263.826)" class="st7" cx="168.334" cy="97.547" rx="8.065" ry="5.654"/>
			<path d="M168.25,106.067c-0.03,0-0.061,0-0.092,0c-3.362-0.07-6.017-3.943-5.919-8.633c0.046-2.244,0.707-4.346,1.859-5.919
				c1.187-1.621,2.778-2.493,4.414-2.461c3.362,0.07,6.017,3.943,5.919,8.633l0,0C174.335,102.332,171.571,106.067,168.25,106.067z
				 M168.419,89.939c-1.334,0-2.612,0.741-3.605,2.097c-1.045,1.429-1.645,3.351-1.688,5.414c-0.087,4.202,2.179,7.669,5.05,7.728
				c0.025,0,0.05,0,0.075,0c2.839,0,5.206-3.346,5.291-7.511c0.087-4.202-2.179-7.669-5.05-7.728
				C168.469,89.939,168.442,89.939,168.419,89.939z"/>
		</g>
		<g>
			
				<ellipse transform="matrix(0.0207 -0.9998 0.9998 0.0207 46.9482 271.3547)" class="st7" cx="161.99" cy="111.712" rx="4.034" ry="2.826"/>
			<path d="M161.951,115.977c-0.016,0-0.03,0-0.046,0c-1.68-0.035-3.01-1.971-2.959-4.318c0.025-1.122,0.354-2.175,0.929-2.959
				c0.593-0.812,1.4-1.242,2.207-1.229c1.68,0.035,3.01,1.971,2.959,4.316c-0.025,1.122-0.352,2.175-0.929,2.959
				C163.53,115.542,162.762,115.977,161.951,115.977z M162.034,107.913c-0.667,0-1.306,0.372-1.802,1.05
				c-0.523,0.713-0.823,1.676-0.844,2.708c-0.044,2.1,1.089,3.835,2.527,3.865c0.682,0.004,1.334-0.359,1.839-1.048
				c0.523-0.713,0.823-1.676,0.844-2.708l0,0c0.044-2.1-1.089-3.835-2.527-3.863C162.06,107.913,162.047,107.913,162.034,107.913z"
				/>
		</g>
		<g>
			<path class="st9" d="M130.674,164.481c-1.028,0.028-2.052,0.085-3.049,0.118c-2.577,0.085-3.408,0.894-6.634,2.203
				c-1.583,0.643-3.292,1.321-4.13,2.811c-2.658-1.022-4.09-3.668-6.153-5.53c-3.158-2.85-3.184-6.358-3.895-8.069
				c-0.986-2.367,0.636-0.466,0.986-2.765c0.041-0.277,0.107-0.59,0.348-0.732c0.164-0.098,0.368-0.087,0.558-0.066
				c2.854,0.341,4.869,2.848,7.268,4.432c0.783,0.519,1.969-0.481,2.837-0.133c0.927,0.37,1.802-0.525,2.596-0.032
				c1.739,1.078,4.331,1.093,6.308,1.159c2.456,0.083,4.915,0.035,7.365-0.142c2.038-0.149,2.824,0.4,4.572-0.604l9.629-4.35
				c1.052-0.604,2.447-0.663,3.36,0.138c0.007,0.004,0.011,0.011,0.018,0.016c0.192,0.183,0.227,0.475,0.24,0.741
				c0.146,2.968-0.906,5.978-2.868,8.209c-1.267,1.439-2.118,3.042-2.968,4.739c-0.523,1.048-2.419,2.728-3.581,1.784
				c-2.058-1.669-4.434-2.664-7.01-3.399C134.616,164.481,132.636,164.428,130.674,164.481z"/>
		</g>
		<g>
			<path class="st10" d="M130.784,173.405c-1.953-0.092-3.9-0.341-5.814-0.746c-1.835-0.387-3.536-1.036-5.324-1.564
				c-1.144-0.337-3.742-0.84-1.962-2.365c1.343-1.15,2.971-1.973,4.606-2.618c1.713-0.676,3.246-0.77,5.004-1.162
				c2.314-0.514,4.206-0.722,6.543-0.324c2.223,0.378,4.094,1.196,6.232,1.919c1.244,0.42,2.579,0.873,3.349,2.015
				c0.588,0.873-6.409,4.43-7.056,4.591c-0.604,0.153-1.228,0.203-1.848,0.238C133.273,173.46,132.026,173.464,130.784,173.405z"/>
		</g>
		<g>
			<path d="M106.925,153.756c0.704,2.548,1.789,4.952,3.284,7.067c1.475,2.126,3.334,3.955,5.42,5.457
				c2.097,1.487,4.418,2.671,6.866,3.474c2.443,0.814,5,1.301,7.572,1.389c2.57,0.112,5.155-0.153,7.625-0.844
				c2.479-0.656,4.819-1.782,6.896-3.281c2.069-1.514,3.852-3.44,5.219-5.665c1.393-2.216,2.351-4.714,3.049-7.312l0.433,0.075
				c-0.274,2.717-1.002,5.422-2.235,7.931c-1.244,2.5-3.019,4.78-5.215,6.582c-2.179,1.829-4.766,3.138-7.47,3.998
				c-2.719,0.831-5.569,1.185-8.397,1.105c-5.649-0.197-11.269-2.081-15.749-5.576c-2.239-1.734-4.165-3.883-5.613-6.306
				c-1.437-2.428-2.393-5.127-2.76-7.879L106.925,153.756z"/>
		</g>
		<g>
			<path d="M116.807,169.606c1.533-1.983,3.705-3.469,6.05-4.432c0.593-0.224,1.192-0.439,1.796-0.636l1.848-0.466l1.883-0.28
				c0.632-0.044,1.267-0.094,1.901-0.121c2.535-0.039,5.084,0.32,7.479,1.146c2.388,0.816,4.659,2.089,6.4,3.886l-0.221,0.267
				c-2.056-1.31-4.285-2.207-6.586-2.783c-2.303-0.562-4.672-0.825-7.035-0.764c-0.588,0.046-1.178,0.064-1.768,0.096l-1.754,0.226
				l-1.736,0.334c-0.569,0.151-1.13,0.324-1.706,0.468c-2.251,0.713-4.398,1.779-6.33,3.277L116.807,169.606z"/>
		</g>
		<g>
			<g>
				<path class="st11" d="M164.164,128.679c-18.676,0.181-28.73,6.361-34.773,6.42c-6.043,0.059-16.219-5.923-34.892-5.741
					s-20.97,13.658-44.241,18.027c27.903,17.848,43.608-0.773,56.131,6.477c12.522,7.248,33.986,7.039,46.364-0.453
					c12.378-7.492,35.76,19.34,57.843-5.112C186.101,145.759,182.837,128.497,164.164,128.679z"/>
			</g>
			<g>
				<path d="M164.17,129.427c-4.933,0.107-9.845,0.695-14.637,1.782c-2.397,0.538-4.771,1.177-7.126,1.894
					c-2.358,0.724-4.694,1.516-7.117,2.237c-1.212,0.361-2.459,0.684-3.776,0.915c-0.663,0.107-1.343,0.192-2.058,0.206
					c-0.713,0.004-1.402-0.061-2.069-0.153c-2.642-0.42-5.016-1.19-7.41-1.859c-4.757-1.393-9.515-2.555-14.377-3.2
					c-2.428-0.328-4.871-0.536-7.321-0.638c-1.225-0.053-2.452-0.07-3.679-0.07l-1.807,0.046c-0.597,0.05-1.201,0.073-1.793,0.146
					c-2.38,0.269-4.731,0.761-6.964,1.631c-2.246,0.837-4.377,2.006-6.463,3.296c-2.086,1.295-4.14,2.706-6.258,4.048
					c-2.115,1.349-4.316,2.598-6.593,3.684c-4.565,2.168-9.443,3.605-14.386,4.396l0,0l0.144-0.741
					c2.994,1.798,6.111,3.382,9.351,4.626c3.239,1.24,6.608,2.113,10.027,2.52c3.417,0.435,6.877,0.405,10.303-0.002
					c3.432-0.394,6.82-1.162,10.258-1.93c3.432-0.737,6.991-1.564,10.777-1.225c1.877,0.171,3.776,0.704,5.464,1.621l1.153,0.622
					c0.366,0.208,0.755,0.378,1.133,0.567c0.376,0.19,0.77,0.352,1.159,0.521c0.387,0.175,0.783,0.328,1.178,0.479
					c3.17,1.229,6.52,2.045,9.917,2.518c3.399,0.485,6.85,0.622,10.285,0.494c3.436-0.138,6.859-0.588,10.193-1.376
					c3.323-0.812,6.58-1.927,9.548-3.55l1.135-0.638c0.43-0.247,0.883-0.459,1.345-0.636c0.926-0.359,1.892-0.574,2.85-0.676
					c1.925-0.203,3.795,0.011,5.578,0.374c3.572,0.741,6.893,1.976,10.219,3.082c3.318,1.122,6.632,2.177,10.015,2.841
					c3.378,0.674,6.827,0.919,10.217,0.516c3.385-0.407,6.687-1.523,9.659-3.257c2.977-1.728,5.654-3.986,8.051-6.509l0,0
					l0.26,0.676c-2.141-0.238-4.274-0.576-6.376-1.065c-2.097-0.51-4.162-1.164-6.164-1.976c-4.023-1.594-7.735-3.883-11.214-6.39
					c-3.491-2.491-6.842-5.166-10.584-7.074c-1.866-0.954-3.824-1.702-5.848-2.166C168.34,129.573,166.255,129.39,164.17,129.427z
					 M164.156,127.933c2.191,0.004,4.394,0.24,6.529,0.773c2.134,0.533,4.185,1.367,6.105,2.397
					c3.863,2.058,7.161,4.853,10.604,7.351c3.421,2.527,7.021,4.81,10.943,6.418c1.958,0.803,3.979,1.448,6.035,1.958
					c2.063,0.49,4.158,0.827,6.267,1.07l0.807,0.094l-0.547,0.584l0,0c-2.323,2.675-4.97,5.123-8.027,7.012
					c-3.038,1.91-6.494,3.209-10.072,3.756c-3.583,0.565-7.24,0.343-10.761-0.282c-3.533-0.622-6.951-1.64-10.311-2.703
					c-3.357-1.048-6.678-2.196-10.011-2.815c-1.66-0.3-3.327-0.466-4.904-0.277c-0.787,0.092-1.546,0.274-2.26,0.556
					c-0.357,0.14-0.7,0.306-1.03,0.501l-1.153,0.667c-3.186,1.782-6.614,3.036-10.112,3.891c-3.504,0.842-7.078,1.328-10.665,1.487
					c-3.587,0.162-7.188-0.011-10.747-0.531c-3.556-0.514-7.083-1.376-10.459-2.715c-0.423-0.167-0.842-0.337-1.256-0.529
					c-0.416-0.186-0.831-0.366-1.238-0.577c-0.407-0.208-0.821-0.398-1.216-0.627l-1.159-0.643c-1.395-0.777-2.942-1.233-4.56-1.404
					c-1.619-0.175-3.3-0.075-4.991,0.138c-1.693,0.21-3.399,0.531-5.116,0.871c-3.434,0.684-6.932,1.398-10.497,1.726
					c-3.561,0.339-7.181,0.302-10.729-0.245c-3.545-0.553-6.997-1.588-10.274-2.984c-3.284-1.384-6.383-3.141-9.313-5.118
					l-0.837-0.565l0.982-0.177l0,0c4.832-1.054,9.539-2.621,13.883-4.908c2.172-1.144,4.252-2.445,6.304-3.817
					c2.049-1.378,4.06-2.841,6.166-4.228c2.104-1.382,4.325-2.683,6.719-3.65c2.382-0.995,4.924-1.63,7.481-1.947
					c0.638-0.087,1.281-0.121,1.923-0.181l1.923-0.075c1.262-0.011,2.522-0.007,3.784,0.032c2.522,0.081,5.044,0.269,7.552,0.581
					c5.016,0.608,9.967,1.768,14.773,3.122c2.397,0.65,4.79,1.378,7.074,1.711c1.146,0.158,2.154,0.142,3.303-0.053
					c1.135-0.188,2.301-0.496,3.48-0.821c4.714-1.367,9.611-2.778,14.578-3.6C154.102,128.311,159.138,127.933,164.156,127.933z"/>
			</g>
		</g>
		<g class="st0">
			<path class="st1" d="M139.152,89.229c4.149-1.13,34.354-9.839,54.116,29.395c0.068-8.86-0.632-9.944-4.638-14.861
				c-4.005-4.917-8.583-12.507-16.954-16.059s-14.896-4.549-20.915-3.298C142.45,86.129,139.152,89.229,139.152,89.229z"/>
		</g>
		<g class="st0">
			<path class="st1" d="M122.647,89.277c-5.923-3.52-33.831-8.974-55.376,31.582c-0.236-8.073,0.096-11.864,3.36-16.03
				c3.266-4.167,9.473-12.179,19.22-17.47c6.4-3.476,10.921-4.597,18.253-3.414C115.435,85.127,122.647,89.277,122.647,89.277z"/>
		</g>
		<g class="st0">
			<path class="st1" d="M71.21,157.84c0.295,2.987,8.688,0.864,10.873,0.77c3.609-0.153,7.248-0.444,10.79-1.178
				c8.012-1.66,10.512-1.109,14.932,0.926c-0.995-2.342-0.009-5.107-0.009-5.107s-4.688-1.864-9.994-1.093
				c-5.306,0.77-10.779,3.545-16.424,3.204c-1.964-0.118-8.723-0.048-11.072-0.229C70.298,155.264,71.2,157.722,71.21,157.84z"/>
		</g>
		<g class="st0">
			<path class="st1" d="M152.462,157.435c4.869-1.324,7.225-2.966,10.917-0.888c7.069,3.981,21.906,6.978,23.728,7.054
				c1.822,0.078,1.542-4.245,1.542-4.245s-6.31-0.65-13.894-3.093c-7.584-2.443-14.921-4.759-17.691-4.174
				c-2.767,0.584-4.313,1.321-4.313,1.321S153.176,155.946,152.462,157.435z"/>
		</g>
		<g class="st0">
			<path class="st1" d="M120.739,169.839c1.581-1.726,17.535-2.157,20.84-0.286c2.157-0.72,2.157-0.72,2.157-0.72
				s-2.012-2.874-8.48-3.449c-6.468-0.576-11.861-0.348-17.573,3.346C118.728,169.697,120.739,169.839,120.739,169.839z"/>
		</g>
		<g>
			<g>
				<path class="st2" d="M118.382,186.373c4.537,5.825-16.064,20.123-25.504,16.21c-7.955-3.298-28.897-16.167-36.961-27.092
					c-9.919-13.434,30.563-51.452,37.689-34.907C102.611,161.482,107.432,172.314,118.382,186.373z"/>
			</g>
			<g>
				<path d="M119.561,185.454c0.468,0.581,0.803,1.328,0.923,2.076c0.126,0.75,0.066,1.477-0.083,2.12
					c-0.306,1.297-0.899,2.342-1.535,3.294c-1.304,1.881-2.866,3.408-4.524,4.79c-1.66,1.38-3.44,2.579-5.311,3.634
					c-1.87,1.054-3.833,1.964-5.912,2.64c-2.078,0.674-4.272,1.148-6.614,1.128c-1.168-0.018-2.378-0.167-3.574-0.558
					c-0.291-0.087-0.615-0.224-0.871-0.328l-0.739-0.326c-0.483-0.225-0.967-0.448-1.437-0.684
					c-3.769-1.868-7.312-3.991-10.792-6.232c-3.478-2.237-6.855-4.624-10.125-7.163c-3.266-2.541-6.435-5.226-9.37-8.196
					c-1.463-1.489-2.872-3.049-4.149-4.742l-0.476-0.636c-0.164-0.227-0.334-0.485-0.483-0.737c-0.3-0.512-0.547-1.054-0.737-1.61
					c-0.382-1.114-0.536-2.273-0.536-3.397c0.007-2.26,0.581-4.384,1.341-6.367c0.773-1.988,1.763-3.852,2.863-5.63
					c2.198-3.561,4.838-6.792,7.726-9.764c2.887-2.973,6.028-5.702,9.471-8.036c1.726-1.162,3.52-2.232,5.425-3.124
					c1.903-0.879,3.924-1.606,6.096-1.848c1.082-0.116,2.214-0.103,3.327,0.171c1.109,0.267,2.191,0.816,3.042,1.614
					c0.858,0.789,1.477,1.791,1.916,2.793l1.244,2.802c1.662,3.734,3.332,7.465,5.05,11.164c1.734,3.692,3.531,7.347,5.455,10.923
					c1.927,3.574,3.981,7.065,6.219,10.436C114.626,179.031,117.034,182.288,119.561,185.454z M117.203,187.292
					c-2.493-3.287-4.871-6.676-7.069-10.177c-2.205-3.499-4.215-7.115-6.059-10.801c-1.848-3.684-3.552-7.424-5.192-11.181
					c-1.651-3.753-3.243-7.524-4.83-11.298l-1.185-2.831c-0.357-0.878-0.844-1.647-1.485-2.255
					c-1.276-1.235-3.184-1.614-5.077-1.409c-1.903,0.206-3.792,0.873-5.591,1.706c-1.802,0.842-3.533,1.87-5.187,3.014
					c-3.307,2.29-6.354,4.976-9.13,7.902c-2.756,2.942-5.263,6.134-7.301,9.574c-1.004,1.726-1.887,3.517-2.546,5.363
					c-0.65,1.839-1.089,3.755-1.039,5.599c0.025,0.919,0.177,1.811,0.483,2.625c0.153,0.407,0.343,0.794,0.571,1.159
					c0.116,0.183,0.231,0.35,0.372,0.533l0.459,0.577c1.235,1.535,2.616,2.982,4.066,4.359c2.909,2.756,6.079,5.269,9.347,7.645
					c3.275,2.369,6.658,4.6,10.105,6.715c1.726,1.054,3.471,2.074,5.237,3.049c1.761,0.977,3.539,1.93,5.333,2.774
					c0.448,0.215,0.897,0.414,1.343,0.615l0.67,0.282c0.221,0.085,0.368,0.146,0.569,0.203c0.752,0.234,1.597,0.334,2.472,0.33
					c1.756,0.002,3.613-0.396,5.422-0.963c3.627-1.171,7.157-3.028,10.246-5.354c1.531-1.168,2.98-2.476,4.048-3.933
					c0.527-0.72,0.96-1.489,1.146-2.185c0.096-0.348,0.121-0.661,0.085-0.921C117.445,187.738,117.365,187.517,117.203,187.292z"/>
			</g>
		</g>
		<g>
			<g>
				<path class="st2" d="M142.006,186.373c-4.537,5.825,16.064,20.123,25.504,16.21c7.955-3.298,28.897-16.167,36.961-27.092
					c9.919-13.434-30.563-51.452-37.689-34.907C157.78,161.482,152.956,172.314,142.006,186.373z"/>
			</g>
			<g>
				<path d="M143.186,187.292c-0.16,0.227-0.243,0.446-0.277,0.711c-0.035,0.263-0.011,0.576,0.085,0.921
					c0.183,0.695,0.619,1.466,1.146,2.185c1.07,1.457,2.516,2.767,4.048,3.933c3.088,2.328,6.619,4.185,10.246,5.354
					c1.811,0.569,3.666,0.967,5.422,0.963c0.875,0.004,1.72-0.096,2.472-0.33c0.201-0.057,0.348-0.118,0.569-0.203l0.67-0.282
					c0.448-0.199,0.894-0.398,1.343-0.615c1.793-0.844,3.572-1.796,5.333-2.774c1.765-0.976,3.511-1.995,5.237-3.049
					c3.447-2.115,6.831-4.344,10.105-6.715c3.268-2.376,6.438-4.889,9.347-7.645c1.45-1.378,2.831-2.824,4.066-4.359l0.459-0.577
					c0.14-0.181,0.256-0.348,0.372-0.533c0.227-0.363,0.418-0.75,0.571-1.159c0.306-0.814,0.457-1.706,0.483-2.625
					c0.05-1.841-0.387-3.758-1.039-5.599c-0.659-1.846-1.542-3.637-2.546-5.363c-2.038-3.44-4.545-6.632-7.301-9.574
					c-2.776-2.927-5.823-5.613-9.13-7.902c-1.651-1.144-3.382-2.172-5.187-3.014c-1.798-0.833-3.687-1.5-5.59-1.706
					c-1.892-0.206-3.799,0.173-5.077,1.409c-0.643,0.608-1.128,1.38-1.485,2.255l-1.185,2.831c-1.585,3.773-3.181,7.544-4.83,11.298
					c-1.642,3.758-3.344,7.5-5.192,11.181c-1.844,3.684-3.854,7.301-6.059,10.801C148.057,180.616,145.679,184.004,143.186,187.292z
					 M140.828,185.454c2.529-3.17,4.935-6.424,7.17-9.797c2.237-3.371,4.293-6.861,6.219-10.436
					c1.925-3.574,3.721-7.231,5.455-10.923c1.72-3.698,3.388-7.43,5.05-11.164l1.244-2.802c0.439-1.002,1.059-2.006,1.916-2.793
					c0.851-0.798,1.933-1.345,3.042-1.614c1.114-0.274,2.244-0.286,3.327-0.171c2.175,0.243,4.193,0.967,6.096,1.848
					c1.903,0.89,3.698,1.962,5.425,3.124c3.442,2.333,6.584,5.064,9.471,8.036c2.887,2.973,5.528,6.203,7.726,9.764
					c1.1,1.779,2.091,3.641,2.863,5.63c0.759,1.986,1.334,4.11,1.341,6.367c0,1.125-0.153,2.283-0.536,3.397
					c-0.19,0.556-0.437,1.098-0.737,1.61c-0.149,0.254-0.32,0.51-0.483,0.737l-0.477,0.636c-1.278,1.693-2.686,3.252-4.149,4.742
					c-2.935,2.971-6.107,5.654-9.37,8.196c-3.268,2.539-6.647,4.926-10.125,7.163c-3.48,2.239-7.023,4.364-10.792,6.232
					c-0.471,0.234-0.954,0.459-1.437,0.684l-0.739,0.326c-0.254,0.105-0.579,0.24-0.871,0.328c-1.196,0.391-2.408,0.54-3.574,0.558
					c-2.342,0.02-4.537-0.455-6.614-1.128c-2.081-0.676-4.042-1.585-5.912-2.64c-1.87-1.054-3.65-2.255-5.311-3.634
					c-1.658-1.382-3.22-2.907-4.524-4.79c-0.636-0.951-1.229-1.995-1.535-3.294c-0.149-0.645-0.212-1.372-0.083-2.12
					C140.027,186.782,140.36,186.036,140.828,185.454z"/>
			</g>
		</g>
		<g class="st0">
			<path class="st1" d="M213.026,52.454c0.444,0.444,13.018,16.954,12.231,22.237c-1.111,7.45-20.904,31.02-20.904,31.02
				l-1.531,12.92l-3.362-3.581l0.112,11.453c0,0,11.341-19.79,13.343-22.571c2.001-2.78,26.573-26.797,26.573-26.797L213.026,52.454
				z"/>
		</g>
		<g class="st0">
			<path class="st1" d="M55.521,172.829c-2.935,4.41-5.877,15.854-9.156,16.611c-5.256,1.212-8.966-5.075-16.053-2.061
				c-7.087,3.014-17.999,5.718-20.023,5.573c3.033,1.389,5.158,1.413,5.954,1.56c0.796,0.149,12.304-2.166,18.292-2.618
				c3.093-0.234,15.271,3.25,15.271,3.25s2.229-4.788,3.833-6.726c1.603-1.938,6.96-7.916,6.96-7.916L55.521,172.829z"/>
		</g>
		<g class="st0">
			<path class="st1" d="M71.598,188.212c3.224,1.89,17.013,7.296,22.903,7.671c7.003,0.444,18.679-4.114,22.459-10.674
				c0,0,2.557,2.669,1.779,4.558c-0.778,1.89-4.782,7.561-8.561,9.451c-3.78,1.89-13.898,5.892-17.569,4.114
				C88.943,201.555,71.598,188.212,71.598,188.212z"/>
		</g>
		<g class="st0">
			<path class="st1" d="M189.344,187.766c-3.224,1.89-17.013,7.296-22.903,7.671c-7.003,0.444-18.679-4.114-22.459-10.674
				c0,0-2.557,2.669-1.779,4.558c0.778,1.89,4.782,7.561,8.561,9.451c3.78,1.89,13.898,5.892,17.569,4.114
				C171.999,201.109,189.344,187.766,189.344,187.766z"/>
		</g>
		<g>
			<g>
				<path class="st12" d="M191.624,32.958c0,0-0.562-15.213-0.928-22.503c-0.297-5.956-0.402-5.844,5.654-6.142
					c6.056-0.297,22.503-0.928,22.503-0.928l18.761,17.68L210.79,50.409L191.624,32.958z"/>
			</g>
			<g>
				<path d="M191.377,33.072c-0.389-4.574-0.65-9.252-0.873-13.931c-0.125-2.338-0.195-4.688-0.293-7.028l-0.146-3.504
					c-0.018-0.588-0.032-1.178,0.016-1.802c0.018-0.158,0.026-0.313,0.05-0.473l0.107-0.492c0.057-0.169,0.131-0.339,0.203-0.508
					c0.107-0.16,0.215-0.33,0.345-0.468c0.284-0.277,0.617-0.459,0.938-0.576c0.16-0.048,0.32-0.103,0.476-0.142l0.464-0.087
					c0.61-0.096,1.201-0.138,1.787-0.173c1.171-0.07,2.325-0.11,3.488-0.144l6.966-0.231c4.643-0.169,9.29-0.265,13.935-0.398l0,0
					l0.114-0.004l0.083,0.078l18.758,17.68l0.195,0.183l-0.179,0.197l-26.825,29.343l-0.183,0.199l-0.199-0.181L191.377,33.072z
					 M191.869,32.842l19.102,17.365l-0.382,0.018l26.825-29.345l0.013,0.38L218.665,3.58l0.197,0.075l0,0
					c-4.639,0.249-9.276,0.536-13.915,0.75l-6.958,0.343l-3.471,0.183c-0.571,0.039-1.139,0.085-1.678,0.173
					c-0.54,0.081-1.028,0.24-1.286,0.503c-0.263,0.247-0.368,0.746-0.4,1.284c-0.039,0.533-0.024,1.107-0.004,1.678l0.162,3.458
					c0.094,2.301,0.215,4.593,0.28,6.896C191.752,23.529,191.877,28.135,191.869,32.842z"/>
			</g>
		</g>
		<g>
			<g>
				<g>
					<path class="st13" d="M193.785,13.57c0.825-0.894-0.16-3.952,0.993-5.226c1.238-1.365,4.327-0.425,5.158-1.326
						c0.372-0.402,0.129-1.68-0.14-2.866c-1.328,0.059-2.509,0.112-3.442,0.158c-6.056,0.297-5.954,0.186-5.654,6.142
						c0.05,1.004,0.105,2.163,0.16,3.408C192.072,13.944,193.399,13.99,193.785,13.57z"/>
				</g>
				<g>
					<path d="M193.584,13.386c0.258-0.313,0.286-0.928,0.3-1.475c0.009-0.565-0.011-1.146,0.028-1.741
						c0.05-0.586,0.121-1.221,0.492-1.78c0.38-0.562,1.015-0.864,1.606-0.984c0.597-0.131,1.187-0.158,1.763-0.181
						c0.571-0.026,1.153-0.037,1.628-0.192c0.107-0.046,0.219-0.092,0.284-0.16c0.048-0.032,0.064-0.055,0.083-0.087
						c0.02-0.035,0.035-0.083,0.048-0.135c0.048-0.224,0.041-0.499,0.016-0.77c-0.055-0.549-0.177-1.107-0.302-1.665V4.213
						l0.276,0.212c-1.459,0.112-2.918,0.208-4.379,0.297c-0.727,0.055-1.457,0.085-2.161,0.175
						c-0.695,0.085-1.413,0.224-1.802,0.604c-0.38,0.376-0.457,1.098-0.485,1.793c-0.028,0.707,0.018,1.437,0.032,2.166
						c0.057,1.461,0.089,2.927,0.116,4.389l-0.252-0.258l0,0c0.496,0.032,0.991,0.061,1.475,0.053
						c0.24-0.004,0.481-0.02,0.707-0.057C193.279,13.553,193.502,13.476,193.584,13.386z M193.984,13.754
						c-0.28,0.269-0.574,0.313-0.835,0.366c-0.269,0.044-0.529,0.059-0.787,0.066c-0.517,0.011-1.022-0.02-1.523-0.053l0,0
						l-0.234-0.009l-0.02-0.249c-0.116-1.459-0.212-2.918-0.302-4.379c-0.046-0.735-0.083-1.466-0.068-2.223
						c-0.002-0.186,0.011-0.378,0.03-0.574c0.011-0.192,0.037-0.387,0.085-0.588c0.064-0.394,0.26-0.827,0.576-1.162
						c0.173-0.153,0.35-0.302,0.547-0.382c0.192-0.112,0.387-0.164,0.581-0.221c0.387-0.107,0.768-0.167,1.139-0.206
						c0.75-0.085,1.48-0.118,2.216-0.144c1.463-0.057,2.927-0.087,4.392-0.112l0.231-0.004l0.044,0.215v0.002
						c0.126,0.565,0.252,1.135,0.313,1.732c0.026,0.3,0.044,0.606-0.028,0.949c-0.025,0.087-0.05,0.177-0.101,0.269
						c-0.05,0.094-0.129,0.183-0.199,0.234c-0.142,0.133-0.304,0.199-0.459,0.265c-0.627,0.201-1.214,0.192-1.789,0.226
						c-0.574,0.025-1.137,0.053-1.667,0.169c-0.531,0.107-1.002,0.357-1.276,0.757c-0.277,0.405-0.359,0.967-0.4,1.514
						c-0.039,0.556-0.018,1.127-0.028,1.713c-0.009,0.295-0.013,0.588-0.064,0.899C194.307,13.123,194.242,13.459,193.984,13.754z"
						/>
				</g>
			</g>
		</g>
		<g>
			<g>
				<path class="st14" d="M255.026,91.055L241.31,78.426c-2.214-2.038-2.358-5.519-0.32-7.735l19.776-21.477
					c2.038-2.214,5.519-2.358,7.735-0.32l13.716,12.629c2.214,2.038,2.358,5.519,0.32,7.735l-19.776,21.477
					C260.723,92.951,257.242,93.093,255.026,91.055z"/>
			</g>
			<g>
				<path d="M254.722,91.386l-11.888-11.088l-1.485-1.386c-0.499-0.453-1.017-1.006-1.358-1.63
					c-0.713-1.249-0.927-2.763-0.606-4.158c0.158-0.698,0.448-1.365,0.851-1.958c0.414-0.604,0.906-1.07,1.356-1.571l2.763-2.982
					l11.039-11.932c1.853-1.988,3.648-3.981,5.549-5.965c1.041-0.956,2.45-1.487,3.856-1.483c1.409-0.007,2.815,0.533,3.856,1.489
					l11.971,10.996l1.496,1.374c0.503,0.448,1.02,0.979,1.367,1.597c0.728,1.228,0.951,2.73,0.67,4.134
					c-0.14,0.704-0.416,1.384-0.807,1.992c-0.094,0.155-0.197,0.304-0.315,0.442c-0.114,0.142-0.227,0.288-0.337,0.409l-0.672,0.764
					l-2.686,3.051c-1.807,2.019-3.622,4.029-5.462,6.017c-1.829,1.999-3.668,3.987-5.514,5.969l-2.769,2.975l-1.386,1.485
					l-0.693,0.744l-0.345,0.372l-0.394,0.385c-1.098,0.997-2.575,1.551-4.044,1.535C257.258,92.964,255.797,92.387,254.722,91.386z
					 M255.333,90.725c0.923,0.835,2.159,1.301,3.397,1.286c1.238-0.004,2.463-0.485,3.36-1.326l0.328-0.33l0.341-0.376l0.682-0.752
					l1.365-1.505l2.736-3.005c1.822-2.004,3.653-4,5.494-5.989c1.831-1.997,3.686-3.972,5.547-5.941l2.82-2.929
					c0.466-0.496,0.969-0.963,1.324-1.461c0.366-0.512,0.636-1.098,0.789-1.715c0.315-1.235,0.126-2.598-0.499-3.723
					c-0.315-0.573-0.732-1.043-1.238-1.498l-1.494-1.378l-11.945-11.024c-0.956-0.881-2.246-1.382-3.548-1.378
					c-1.301-0.007-2.594,0.496-3.548,1.376c-1.837,1.938-3.664,3.977-5.494,5.96l-10.98,11.984l-2.743,2.999
					c-0.453,0.508-0.943,0.986-1.29,1.507c-0.357,0.529-0.61,1.127-0.748,1.75c-0.277,1.247-0.078,2.596,0.562,3.698
					c0.322,0.565,0.737,1.013,1.244,1.463l1.503,1.367L255.333,90.725z"/>
			</g>
		</g>
		<g>
			<path class="st15" d="M219.12,3.876c-3.097-2.852,5.416,12.787,3.403,14.974c-2.012,2.187-12.446-2.8-15.447,0.508
				c-2.797,3.084,2.532,13.207,0.533,15.376c-1.999,2.172-17.562-3.631-15.396-1.638c2.399,2.209,38.848,35.771,38.848,35.771
				l6.098-6.623l0.326-0.352l14.427-15.669l0.295-0.32l5.761-6.255C257.969,39.646,222.543,7.028,219.12,3.876z"/>
		</g>
		<g class="st16">
			<polygon class="st7" points="257.61,39.9 251.691,46.211 222.945,19.138 218.65,3.362 			"/>
		</g>
		<g>
			
				<rect x="237.049" y="12.477" transform="matrix(0.6774 -0.7356 0.7356 0.6774 52.5453 185.1048)" width="0.542" height="40.331"/>
		</g>
		<g>
			<rect x="222.27" y="28.425" transform="matrix(0.6775 -0.7355 0.7355 0.6775 36.0076 179.3606)" width="0.542" height="40.387"/>
		</g>
		<g>
			<g>
				
					<rect x="233.125" y="51.425" transform="matrix(0.6774 -0.7356 0.7356 0.6774 35.9324 206.3312)" class="st17" width="40.18" height="21.544"/>
			</g>
			<g>
				<path d="M247.542,84.528l-16.206-14.489l-0.38-0.339l0.35-0.38l27.258-29.52l0.311-0.337l0.33,0.311l15.724,14.729l0.197,0.186
					l-0.181,0.197L247.542,84.528z M247.52,83.988l27.029-29.471l0.016,0.382l-15.973-14.458l0.641-0.026l-27.177,29.596l-0.03-0.72
					L247.52,83.988z"/>
			</g>
		</g>
		<g>
			<g>
				<g>
					<polygon class="st17" points="232.156,48.956 236.441,52.902 241.352,51.872 241.975,46.894 237.688,42.948 232.777,43.978 
											"/>
				</g>
				<g>
					<path d="M232.373,48.875l4.226,3.856l-0.206-0.057l4.856-1.288l-0.389,0.425l0.883-4.945l0.073,0.199l-4.287-3.946l0.206,0.057
						l-4.849,1.313l0.409-0.444L232.373,48.875z M231.938,49.035l0.324-5.123l0.025-0.387l0.385-0.059l4.97-0.748l0.125-0.02
						l0.081,0.075l4.287,3.946l0.083,0.076l-0.009,0.125l-0.361,5.011l-0.026,0.368l-0.363,0.057l-4.963,0.775l-0.125,0.02
						l-0.081-0.076L231.938,49.035z"/>
				</g>
			</g>
			<g>
				<g>
					<path class="st7" d="M233.605,47.331l2.487-2.701l0.722,0.665l0.471,2.732c0.149,0.704,0.35,1.173,0.604,1.406
						c0.206,0.19,0.396,0.297,0.571,0.324c0.175,0.026,0.326-0.03,0.453-0.169c0.125-0.135,0.155-0.313,0.092-0.529
						c-0.066-0.217-0.206-0.425-0.42-0.622l0.827-0.899c0.293,0.272,0.51,0.579,0.65,0.928c0.14,0.348,0.181,0.691,0.126,1.03
						c-0.055,0.339-0.201,0.641-0.442,0.901c-0.385,0.418-0.801,0.63-1.247,0.636c-0.446,0.007-0.892-0.197-1.341-0.608
						c-0.188-0.173-0.345-0.37-0.473-0.59c-0.126-0.221-0.231-0.481-0.317-0.78c-0.085-0.3-0.171-0.735-0.254-1.301l-0.252-1.157
						l-1.402,1.523L233.605,47.331z"/>
				</g>
			</g>
		</g>
		<g class="st16">
			
				<rect x="258.98" y="40.541" transform="matrix(0.6834 -0.7301 0.7301 0.6834 44.9438 207.5447)" class="st7" width="5.534" height="22.833"/>
		</g>
		<g>
			
				<rect x="227.808" y="56.533" transform="matrix(0.6774 -0.7356 0.7356 0.6774 37.7223 201.0056)" class="st15" width="40.46" height="1.921"/>
			<path d="M235.067,73.209l-1.614-1.485l0.092-0.101l27.499-29.863l1.614,1.485l-0.092,0.101L235.067,73.209z M233.838,71.708
				l1.214,1.118l27.223-29.565l-1.214-1.118L233.838,71.708z"/>
		</g>
		<g>
			
				<rect x="238.133" y="66.042" transform="matrix(0.6774 -0.7356 0.7356 0.6774 34.0584 211.6683)" class="st15" width="40.46" height="1.921"/>
			<path d="M245.393,82.717l-1.614-1.485l0.092-0.101l27.499-29.865l1.614,1.485l-0.092,0.101L245.393,82.717z M244.162,81.216
				l1.214,1.118l27.223-29.565l-1.214-1.118L244.162,81.216z"/>
		</g>
		<g>
			<path d="M261.746,46.498c0.676,0.382,1.292,0.827,1.89,1.295c0.601,0.464,1.171,0.963,1.728,1.472
				c0.551,0.519,1.093,1.043,1.606,1.605c0.514,0.558,1.011,1.135,1.45,1.774c-0.672-0.387-1.288-0.833-1.887-1.299
				c-0.601-0.464-1.171-0.96-1.732-1.468c-0.553-0.514-1.096-1.041-1.608-1.601C262.678,47.718,262.184,47.138,261.746,46.498z"/>
		</g>
		<g>
			<path d="M238.147,72.129c0.676,0.382,1.292,0.827,1.89,1.295c0.602,0.464,1.171,0.963,1.728,1.472
				c0.551,0.519,1.093,1.043,1.605,1.605c0.514,0.558,1.011,1.135,1.45,1.774c-0.672-0.387-1.288-0.833-1.887-1.299
				c-0.602-0.464-1.171-0.96-1.732-1.468c-0.553-0.514-1.096-1.041-1.608-1.601C239.079,73.349,238.585,72.769,238.147,72.129z"/>
		</g>
		<g>
			<path d="M258.795,49.702c0.676,0.382,1.292,0.827,1.89,1.295c0.601,0.464,1.171,0.963,1.728,1.472
				c0.551,0.519,1.093,1.043,1.606,1.605c0.514,0.558,1.011,1.135,1.45,1.774c-0.672-0.387-1.288-0.833-1.887-1.299
				c-0.601-0.464-1.171-0.96-1.732-1.468c-0.553-0.514-1.096-1.041-1.608-1.601C259.728,50.923,259.232,50.343,258.795,49.702z"/>
		</g>
		<g>
			<path d="M255.847,52.906c0.676,0.382,1.292,0.827,1.89,1.295c0.601,0.464,1.171,0.963,1.728,1.472
				c0.551,0.519,1.093,1.043,1.606,1.605c0.514,0.558,1.011,1.135,1.45,1.774c-0.672-0.387-1.288-0.833-1.887-1.299
				c-0.602-0.464-1.171-0.96-1.732-1.468c-0.553-0.514-1.096-1.041-1.608-1.601C256.776,54.127,256.284,53.547,255.847,52.906z"/>
		</g>
		<g>
			<path d="M252.896,56.108c0.676,0.382,1.292,0.827,1.889,1.295c0.602,0.464,1.171,0.963,1.728,1.472
				c0.551,0.519,1.093,1.043,1.605,1.605c0.514,0.558,1.011,1.135,1.45,1.774c-0.672-0.387-1.288-0.833-1.887-1.299
				c-0.601-0.464-1.171-0.96-1.732-1.468c-0.553-0.514-1.096-1.041-1.608-1.601C253.828,57.329,253.334,56.749,252.896,56.108z"/>
		</g>
		<g>
			<path d="M249.946,59.313c0.676,0.382,1.292,0.827,1.89,1.295c0.601,0.464,1.171,0.963,1.728,1.472
				c0.551,0.519,1.093,1.043,1.606,1.605c0.514,0.558,1.011,1.135,1.45,1.774c-0.672-0.387-1.288-0.833-1.887-1.299
				c-0.601-0.464-1.171-0.96-1.732-1.468c-0.553-0.514-1.096-1.041-1.608-1.601C250.877,60.534,250.383,59.953,249.946,59.313z"/>
		</g>
		<g>
			<path d="M246.997,62.517c0.676,0.382,1.292,0.827,1.89,1.295c0.602,0.464,1.171,0.963,1.728,1.472
				c0.551,0.519,1.093,1.043,1.605,1.605c0.514,0.558,1.011,1.135,1.45,1.774c-0.672-0.387-1.288-0.833-1.887-1.299
				c-0.602-0.464-1.171-0.96-1.732-1.468c-0.553-0.514-1.096-1.041-1.608-1.601C247.927,63.738,247.435,63.159,246.997,62.517z"/>
		</g>
		<g>
			<path d="M244.046,65.719c0.676,0.382,1.292,0.827,1.89,1.295c0.602,0.464,1.171,0.963,1.728,1.472
				c0.551,0.519,1.093,1.043,1.605,1.605c0.514,0.558,1.011,1.135,1.45,1.774c-0.672-0.387-1.288-0.833-1.887-1.299
				c-0.601-0.464-1.171-0.96-1.732-1.468c-0.553-0.514-1.096-1.041-1.608-1.601C244.979,66.94,244.484,66.363,244.046,65.719z"/>
		</g>
		<g>
			<path d="M241.096,68.924c0.676,0.382,1.292,0.827,1.89,1.295c0.602,0.464,1.171,0.963,1.728,1.472
				c0.551,0.519,1.093,1.043,1.606,1.606c0.514,0.558,1.011,1.135,1.45,1.774c-0.672-0.387-1.288-0.833-1.887-1.299
				c-0.602-0.464-1.171-0.96-1.732-1.468c-0.553-0.514-1.096-1.041-1.608-1.601C242.028,70.144,241.533,69.565,241.096,68.924z"/>
		</g>
		<g>
			<path d="M247.542,84.528l-16.206-14.489l-0.38-0.339l0.35-0.38l27.258-29.52l0.311-0.337l0.33,0.311l15.724,14.729l0.19,0.179
				l-0.175,0.203c-2.203,2.546-4.455,5.07-6.724,7.584c-2.262,2.527-4.569,4.998-6.859,7.498c-2.299,2.484-4.613,4.935-6.918,7.38
				l-3.46,3.625L247.542,84.528z M247.52,83.988l3.36-3.83l3.344-3.764c2.231-2.481,4.453-4.956,6.691-7.399
				c2.246-2.426,4.475-4.882,6.75-7.282c2.268-2.413,4.552-4.814,6.886-7.196l0.016,0.382l-15.973-14.458l0.641-0.026
				l-27.175,29.597l-0.03-0.72L247.52,83.988z"/>
		</g>
		<g>
			<path d="M218.87,4.147c-0.103-0.092-0.217-0.183-0.3-0.229c-0.026-0.03-0.096-0.002,0.066-0.02
				c0.092-0.02,0.167-0.116,0.169-0.138c0.011-0.026,0.007-0.02,0.007-0.009c-0.002,0.167,0.083,0.494,0.167,0.764
				c0.171,0.567,0.407,1.13,0.636,1.695c0.457,1.13,0.991,2.242,1.483,3.371c0.499,1.127,0.993,2.262,1.448,3.426
				c0.457,1.166,0.869,2.349,1.109,3.668c0.053,0.334,0.094,0.678,0.096,1.054c-0.004,0.376-0.013,0.787-0.243,1.299
				c-0.28,0.584-0.768,0.871-1.171,1.036c-0.418,0.169-0.801,0.224-1.164,0.256c-0.724,0.061-1.378-0.009-2.017-0.089
				c-0.638-0.081-1.256-0.199-1.864-0.332c-1.216-0.258-2.404-0.54-3.591-0.773c-1.183-0.221-2.376-0.433-3.539-0.394
				c-1.146,0.016-2.323,0.326-2.894,1.162c-0.282,0.414-0.423,0.954-0.481,1.512c-0.05,0.562-0.02,1.148,0.046,1.734
				c0.315,2.358,1.122,4.67,1.72,7.1c0.146,0.613,0.269,1.235,0.354,1.892c0.075,0.661,0.129,1.343-0.068,2.161
				c-0.116,0.409-0.291,0.864-0.773,1.262c-0.471,0.348-0.888,0.428-1.264,0.499c-0.75,0.116-1.409,0.075-2.058,0.009
				c-1.29-0.129-2.507-0.437-3.714-0.732c-1.205-0.306-2.393-0.65-3.574-0.997c-1.183-0.337-2.367-0.667-3.55-0.938
				c-0.295-0.07-0.59-0.131-0.881-0.179c-0.275-0.048-0.615-0.092-0.773-0.075c-0.011,0-0.02,0.007,0.025-0.011
				c0.02-0.009,0.059-0.03,0.103-0.081c0.053-0.053,0.085-0.151,0.089-0.217c0-0.142-0.032-0.155-0.03-0.164
				c-0.002-0.004,0.007,0.011,0.022,0.026c0.053,0.057,0.199,0.186,0.302,0.284l0.678,0.624l5.418,4.991l10.84,9.976l10.889,9.926
				c3.646,3.289,7.282,6.593,10.948,9.86l0.002,0.002l-0.982,0.041l26.862-29.259l0.002-0.002l0.044,1.068
				c-3.165-3.06-6.376-6.07-9.563-9.105l-9.637-9.025c-3.202-3.019-6.457-5.983-9.686-8.972L218.87,4.147z M219.369,3.604
				l9.72,8.933c3.246,2.973,6.468,5.971,9.74,8.913l9.788,8.86c3.287,2.925,6.553,5.877,9.862,8.78l0.556,0.487l-0.512,0.579
				l-0.002,0.002l-26.95,29.181l-0.473,0.512l-0.51-0.471l-0.002-0.002c-3.559-3.385-7.15-6.735-10.729-10.099l-10.788-10.033
				l-10.836-9.983l-5.422-4.988l-0.678-0.624c-0.118-0.114-0.208-0.181-0.366-0.348c-0.037-0.041-0.076-0.087-0.118-0.158
				c-0.037-0.075-0.105-0.16-0.103-0.378c0.002-0.105,0.057-0.238,0.131-0.322c0.07-0.078,0.142-0.123,0.197-0.149
				c0.112-0.053,0.179-0.059,0.245-0.07c0.455-0.039,0.728,0.032,1.057,0.076c0.315,0.055,0.619,0.118,0.926,0.179l3.613,0.78
				c2.397,0.464,4.832,0.926,7.163,1.059c0.574,0.025,1.153,0.026,1.617-0.055c0.225-0.037,0.418-0.123,0.439-0.151
				c-0.009,0.007,0.028-0.032,0.059-0.081c0.032-0.048,0.061-0.129,0.087-0.219c0.112-0.376,0.096-0.945,0.055-1.5
				c-0.044-0.565-0.135-1.15-0.234-1.741c-0.378-2.378-1.002-4.799-1.148-7.341c-0.039-0.636-0.041-1.284,0.046-1.942
				c0.083-0.654,0.254-1.343,0.676-1.944c0.423-0.604,1.039-1.03,1.682-1.267c0.643-0.238,1.301-0.35,1.947-0.405
				c2.583-0.175,5.052,0.293,7.465,0.586c1.192,0.135,2.417,0.311,3.438,0.221c0.247-0.025,0.476-0.07,0.627-0.135
				c0.158-0.061,0.217-0.149,0.201-0.126c0.032-0.048,0.081-0.267,0.081-0.499c0.004-0.238-0.018-0.508-0.055-0.78
				c-0.144-1.109-0.471-2.28-0.787-3.44c-0.33-1.164-0.707-2.328-1.091-3.488c-0.394-1.162-0.775-2.33-1.183-3.495
				c-0.201-0.586-0.391-1.175-0.571-1.782c-0.078-0.322-0.179-0.59-0.173-1.039c0.007-0.066,0.016-0.135,0.055-0.231
				c0.032-0.094,0.162-0.254,0.33-0.291c0.16-0.037,0.258-0.004,0.328,0.018c0.075,0.025,0.123,0.053,0.173,0.081
				C219.124,3.38,219.245,3.491,219.369,3.604z"/>
		</g>
		<g class="st0">
			<path class="st1" d="M275.848,55.678l-1.098-0.979l-20.806,22.72c-13.605-12.592-31.779-29.004-46.141-42.532
				c-0.188-0.175-3.883,0.328-3.883,0.328l-7.389-1.68l-4.933-0.829l64.457,59.331l4.336,0.444l5.002-4.446
				c0,0-4.156-3.858-10.335-9.58L275.848,55.678z"/>
		</g>
		<g class="st16">
			<path class="st7" d="M198.091,7.46l-7.561-1.853c0,0-0.149-0.667,1.111-0.741c1.26-0.075,8.526,0.816,8.526,0.816l-0.149,1.483
				L198.091,7.46z"/>
		</g>
		<g>
			<g>
				<path d="M193.584,13.386c0.258-0.313,0.286-0.928,0.3-1.475c0.009-0.565-0.011-1.146,0.028-1.741
					c0.05-0.586,0.121-1.221,0.492-1.78c0.38-0.562,1.015-0.864,1.606-0.984c0.597-0.131,1.187-0.158,1.763-0.181
					c0.571-0.026,1.153-0.037,1.628-0.192c0.107-0.046,0.219-0.092,0.284-0.16c0.048-0.032,0.064-0.055,0.083-0.087
					c0.02-0.035,0.035-0.083,0.048-0.135c0.048-0.224,0.041-0.499,0.016-0.77c-0.055-0.549-0.177-1.107-0.302-1.665V4.213
					l0.276,0.212c-1.459,0.112-2.918,0.208-4.379,0.297c-0.727,0.055-1.457,0.085-2.161,0.175c-0.695,0.085-1.413,0.224-1.802,0.604
					c-0.38,0.376-0.457,1.098-0.485,1.793c-0.028,0.707,0.018,1.437,0.032,2.166c0.057,1.461,0.089,2.927,0.116,4.389l-0.252-0.258
					l0,0c0.496,0.032,0.991,0.061,1.475,0.053c0.24-0.004,0.481-0.02,0.707-0.057C193.279,13.553,193.502,13.476,193.584,13.386z
					 M193.984,13.754c-0.28,0.269-0.574,0.313-0.835,0.366c-0.269,0.044-0.529,0.059-0.787,0.066
					c-0.517,0.011-1.022-0.02-1.523-0.053l0,0l-0.234-0.009l-0.02-0.249c-0.116-1.459-0.212-2.918-0.302-4.379
					c-0.046-0.735-0.083-1.466-0.068-2.223c-0.002-0.186,0.011-0.378,0.03-0.574c0.011-0.192,0.037-0.387,0.085-0.588
					c0.064-0.394,0.26-0.827,0.576-1.162c0.173-0.153,0.35-0.302,0.547-0.382c0.192-0.112,0.387-0.164,0.581-0.221
					c0.387-0.107,0.768-0.167,1.139-0.206c0.75-0.085,1.48-0.118,2.216-0.144c1.463-0.057,2.927-0.087,4.392-0.112l0.231-0.004
					l0.044,0.215v0.002c0.126,0.565,0.252,1.135,0.313,1.732c0.026,0.3,0.044,0.606-0.028,0.949
					c-0.025,0.087-0.05,0.177-0.101,0.269c-0.05,0.094-0.129,0.183-0.199,0.234c-0.142,0.133-0.304,0.199-0.459,0.265
					c-0.627,0.201-1.214,0.192-1.789,0.226c-0.574,0.025-1.137,0.053-1.667,0.169c-0.531,0.107-1.002,0.357-1.276,0.757
					c-0.277,0.405-0.359,0.967-0.4,1.514c-0.039,0.556-0.018,1.127-0.028,1.713c-0.009,0.295-0.013,0.588-0.064,0.899
					C194.307,13.123,194.242,13.459,193.984,13.754z"/>
			</g>
		</g>
		<g>
			<path class="st17" d="M225.336,38.094c0.135-0.076,0.35-0.009,0.529-0.013c0.125-0.002,0.249-0.016,0.374-0.025
				c-0.028-0.123-0.026-0.267-0.094-0.361c-0.14-0.19-0.306-0.366-0.481-0.523c-0.387-0.348-0.787-0.68-1.258-1.085
				c-0.028,0.208-0.078,0.32-0.044,0.366c0.197,0.252,0.03,0.402-0.144,0.527c-0.496,0.359-1.4,0.38-1.898-0.028
				c-0.363-0.3-0.366-0.634,0.004-0.934c0.276-0.224,0.577-0.42,0.886-0.597c0.761-0.433,1.546-0.704,2.454-0.459
				c0.984,0.267,1.389,1.24,0.72,2.159c0.243,0.107,0.466,0.302,0.647,0.269c0.435-0.081,0.853-0.265,1.276-0.411
				c0.221-0.076,0.186-0.217,0.039-0.315c-0.085-0.059-0.229-0.076-0.334-0.055c-0.354,0.073-0.492-0.089-0.517-0.416
				c-0.007-0.092-0.009-0.186-0.039-0.272c-0.442-1.288-2.235-2.382-3.605-2.233c-0.901,0.098-1.671,0.42-2.31,1.085
				c-0.54,0.562-0.718,1.621-0.286,2.246c0.471,0.68,1.162,1.096,1.927,1.31C223.899,38.532,224.645,38.481,225.336,38.094z"/>
			<path class="st17" d="M209.797,23.207c0.855-0.297,1.304-1.022,1.212-1.907c-0.025-0.226-0.098-0.501-0.249-0.65
				c-0.627-0.61-1.279-1.183-1.896-1.739c-0.659,0.171-1.247,0.468-1.597,0.979c-0.254,0.37-0.378,0.844-0.448,1.338
				c0.595-0.276,1.19-0.553,1.784-0.831c0.263-0.123,0.519-0.276,0.796-0.332c0.162-0.032,0.368,0.073,0.531,0.16
				c0.123,0.066,0.201,0.206,0.306,0.309c0.195,0.192,0.195,0.359,0.011,0.581c-0.654,0.801-1.52,1.196-2.509,1.378
				c-0.3-0.059-0.624,0.011-0.926-0.039c0.011,0.229-0.009,0.453,0.018,0.684c0.009,0.07,0.028,0.142,0.039,0.212
				c0.291,0.212,0.724,0.363,1.07,0.328C208.569,23.614,209.194,23.417,209.797,23.207z"/>
			<path class="st17" d="M222.62,31.202c-0.617-0.84-1.45-1.29-2.511-1.278c-0.807,0.007-1.903,0.28-2.472,0.724
				c-0.967,0.752-1.203,1.944-0.368,2.857c1.326,1.452,4.042,1.052,5.114-0.044C223.023,32.807,223.16,31.936,222.62,31.202z
				 M222.077,31.873c-0.428,0.654-1.085,0.995-1.784,1.247c-0.455,0.164-0.938,0.249-1.332,0.35
				c-0.324-0.064-0.562-0.087-0.787-0.16c-0.462-0.149-0.579-0.595-0.252-0.984c0.473-0.56,1.1-0.91,1.772-1.168
				c0.341-0.131,0.718-0.162,1.072-0.267c0.444-0.131,0.807,0.044,1.162,0.263C222.268,31.366,222.294,31.541,222.077,31.873z"/>
			<path class="st17" d="M218.81,29.38c0.359-0.181,0.481-0.926,0.197-1.196c-0.728-0.693-1.466-1.376-2.205-2.054
				c-0.125-0.114-0.28-0.192-0.423-0.286c-0.018,0.022-0.037,0.044-0.055,0.066c0.041,0.114,0.083,0.227,0.146,0.405
				c-0.328,0.146-0.636,0.284-0.945,0.425c-0.746,0.337-1.48,0.7-2.239,0.997c-0.391,0.153-0.807,0.475-1.29,0.083
				c0.433,0.702,1.052,1.178,1.588,1.736c0.044-0.013,0.089-0.028,0.133-0.041c-0.011-0.197-0.022-0.396-0.035-0.593
				c-0.025-0.041-0.046-0.081-0.07-0.123c0.533-0.206,1.065-0.414,1.601-0.615c0.3-0.112,0.38,0.035,0.291,0.291
				c-0.107,0.311-0.254,0.61-0.378,0.915c-0.229,0.556-0.455,1.111-0.684,1.676c0.519,0.195,0.967,0.385,1.43,0.527
				c0.151,0.046,0.341-0.032,0.514-0.055c-0.057-0.135-0.078-0.304-0.174-0.405c-0.231-0.243-0.227-0.476-0.092-0.761
				c0.121-0.249,0.197-0.519,0.3-0.777c0.057-0.14,0.126-0.272,0.192-0.407c0.282,0.112,0.519,0.195,0.75,0.295
				C217.866,29.706,218.348,29.612,218.81,29.38z M216.176,28.087c-0.236-0.129-0.167-0.322,0.035-0.425
				c0.315-0.16,0.641-0.295,0.972-0.425c0.464-0.181,0.674,0.171,0.886,0.464c0.081,0.112,0.158,0.37,0.107,0.411
				c-0.24,0.203-0.523,0.359-0.792,0.531C216.928,28.439,216.539,28.286,216.176,28.087z"/>
			<path class="st17" d="M212.541,26.742c-0.468-0.096-0.969,0.284-1.418-0.068c-0.396-0.309-0.789-0.617-1.238-0.965
				c0.19-0.181,0.313-0.341,0.473-0.442c0.28-0.173,0.599-0.282,0.871-0.466c0.28-0.192,0.503-0.135,0.711,0.07
				c0.192,0.192,0.359,0.411,0.556,0.643c-0.114,0.101-0.21,0.171-0.282,0.26c-0.059,0.07-0.089,0.167-0.131,0.249
				c0.092,0.032,0.21,0.121,0.274,0.092c0.479-0.227,0.947-0.479,1.418-0.722c-0.011-0.05-0.02-0.101-0.03-0.151
				c-0.121-0.009-0.254-0.053-0.361-0.02c-0.389,0.126-0.997-0.206-1.074-0.622c-0.013-0.068,0.046-0.192,0.107-0.224
				c0.387-0.199,0.775-0.398,1.178-0.556c0.107-0.041,0.291,0.039,0.407,0.116c0.142,0.092,0.254,0.231,0.374,0.354
				c0.619,0.626,0.617,0.626,0.022,1.269c-0.026,0.028-0.041,0.066-0.101,0.164c0.133,0.066,0.304,0.215,0.378,0.175
				c0.459-0.234,0.897-0.51,1.395-0.805c-0.274-0.098-0.485-0.118-0.619-0.231c-0.63-0.545-1.242-1.114-1.853-1.68
				c-0.374-0.345-0.737-0.704-1.105-1.057c-0.041,0.013-0.085,0.026-0.126,0.039c0.229,0.4,0.05,0.581-0.282,0.744
				c-0.827,0.405-1.654,0.816-2.447,1.279c-0.455,0.265-0.833,0.324-1.253-0.028c-0.07-0.059-0.234-0.009-0.475-0.009
				c0.212,0.26,0.32,0.428,0.459,0.56c0.473,0.444,0.958,0.875,1.439,1.31c0.442,0.4,0.878,0.807,1.328,1.196
				c0.089,0.078,0.256,0.162,0.343,0.129c0.376-0.142,0.737-0.328,1.105-0.496C212.567,26.818,212.553,26.781,212.541,26.742z"/>
			<path class="st17" d="M229.783,38.162c-0.125,0.096-0.252,0.267-0.409,0.304c-0.536,0.129-1.08,0.221-1.626,0.315
				c-0.739,0.126-1.477,0.276-2.22,0.352c-0.387,0.039-0.792,0.288-1.185-0.011c-0.064-0.048-0.171-0.044-0.256-0.064
				c0.016,0.096-0.007,0.229,0.048,0.284c0.43,0.428,0.873,0.846,1.326,1.253c0.073,0.064,0.206,0.059,0.313,0.085
				c-0.009-0.107-0.018-0.212-0.026-0.32c-0.013-0.167-0.092-0.442-0.028-0.481c0.236-0.142,0.56-0.339,0.778-0.274
				c0.352,0.107,0.659,0.391,0.967,0.626c0.332,0.252,0.35,0.396,0.037,0.663c-0.171,0.144-0.416,0.206-0.634,0.277
				c-0.118,0.037-0.254,0.018-0.439,0.026c0.039,0.125,0.039,0.188,0.073,0.219c0.468,0.466,0.934,0.936,1.422,1.384
				c0.078,0.073,0.258,0.035,0.391,0.048c-0.016-0.118,0.011-0.276-0.055-0.35c-0.277-0.309-0.151-0.553,0.087-0.787
				c0.442-0.435,0.906-0.849,1.329-1.299c0.468-0.496,0.906-1.026,1.319-1.5C230.667,38.711,230.214,38.429,229.783,38.162z
				 M228.814,39.682c-0.212,0.197-0.451,0.368-0.691,0.525c-0.048,0.03-0.173-0.013-0.238-0.059
				c-0.121-0.081-0.234-0.179-0.326-0.291c-0.078-0.094-0.192-0.243-0.164-0.32c0.041-0.112,0.186-0.227,0.306-0.258
				c0.28-0.068,0.576-0.085,0.945-0.135c0.061,0.041,0.219,0.094,0.276,0.203C228.958,39.424,228.891,39.61,228.814,39.682z"/>
		</g>
	</g>
</g>
</svg>
