<?xml version="1.0" encoding="utf-8"?>
<!-- Generator: Adobe Illustrator 25.2.1, SVG Export Plug-In . SVG Version: 6.00 Build 0)  -->
<svg version="1.1" id="Layer_1" xmlns="http://www.w3.org/2000/svg" xmlns:xlink="http://www.w3.org/1999/xlink" x="0px" y="0px"
	 viewBox="0 0 630 180" style="enable-background:new 0 0 630 180;" xml:space="preserve">
<style type="text/css">
	.st0{fill:#E94435;}
	.st1{fill:#547DBE;}
	.st2{fill:#34A751;}
	.st3{fill:#F8BB15;}
	.st4{fill:#5F6369;}
	.st5{fill:#FFFFFF;}
	.st6{fill:#652D90;}
	.st7{fill:#2CA9E1;}
	.st8{fill:#F5851F;}
	.st9{fill:#F3E900;}
	.st10{fill:#ADD036;}
	.st11{fill:#464646;}
	.st12{fill:#706D6E;}
	.st13{fill:#EF5323;}
	.st14{fill:#82C341;}
</style>
<g>
	<g>
		<path class="st0" d="M61.414,77.146h2.125l6.056-6.056l0.297-2.571c-11.271-9.948-28.473-8.876-38.421,2.395
			c-2.763,3.131-4.769,6.855-5.863,10.886c0.675-0.277,1.422-0.321,2.125-0.127l12.112-1.997c0,0,0.616-1.02,0.935-0.956
			c5.388-5.917,14.455-6.607,20.676-1.572H61.414z"/>
		<path class="st1" d="M78.222,81.8c-1.392-5.126-4.25-9.734-8.223-13.26l-8.5,8.5c3.589,2.933,5.634,7.35,5.546,11.985v1.509
			c4.178,0,7.565,3.387,7.565,7.565s-3.387,7.565-7.565,7.565H51.915l-1.509,1.53v9.073l1.509,1.509h15.129
			c10.867,0.085,19.745-8.656,19.829-19.523C86.926,91.666,83.678,85.49,78.222,81.8z"/>
		<path class="st2" d="M36.765,117.69h15.129v-12.112H36.765c-1.078,0-2.143-0.232-3.124-0.68l-2.125,0.659l-6.099,6.056
			l-0.531,2.125C28.306,116.32,32.479,117.709,36.765,117.69z"/>
		<path class="st3" d="M36.765,78.4c-10.867,0.065-19.624,8.927-19.559,19.794c0.036,6.068,2.87,11.78,7.681,15.48l8.776-8.776
			c-3.807-1.72-5.499-6.201-3.779-10.008s6.201-5.499,10.008-3.779c1.678,0.758,3.021,2.102,3.779,3.779l8.776-8.776
			C48.713,81.232,42.91,78.378,36.765,78.4z"/>
	</g>
	<g>
		<path class="st4" d="M125.476,90.367c-3.107-0.115-6.221-0.044-9.333-0.053c-0.104,0-0.207,0.016-0.328,0.026
			c0,8.714,0,17.41,0,26.101c1.339,0,2.643,0,3.995,0c0-3.383,0-6.738,0-10.131c1.554,0,3.061,0.009,4.567-0.003
			c1.192-0.01,2.365-0.14,3.505-0.529c4.196-1.434,6.325-5.54,5.131-9.718C132.024,92.599,128.883,90.493,125.476,90.367z
			 M126.097,102.39c-0.365,0.09-0.754,0.113-1.132,0.116c-1.617,0.013-3.234,0.008-4.852,0.007c-0.088,0-0.177-0.013-0.288-0.021
			c0-2.788,0-5.554,0-8.362c0.105-0.012,0.22-0.036,0.335-0.036c1.602-0.002,3.204-0.017,4.806,0.006
			c1.62,0.022,2.949,0.651,3.787,2.071C130.216,98.651,128.905,101.698,126.097,102.39z"/>
		<path class="st4" d="M220.163,98.837c-1.558-1.127-3.32-1.527-5.201-1.576c-3.574-0.093-6.92,2.015-8.417,5.25
			c-0.935,2.021-1.253,4.124-0.949,6.31c0.363,2.611,1.57,4.749,3.672,6.393c3.306,2.586,9.277,2.607,12.596-0.925
			c0.603-0.642,1.097-1.388,1.669-2.122c-1.063-0.516-2.012-0.963-2.947-1.438c-0.28-0.142-0.415-0.087-0.576,0.169
			c-1.99,3.162-6.214,3.408-8.652,1.308c-1.285-1.108-1.84-2.542-2-4.221c4.822,0,9.592,0,14.42,0
			c0.141-1.871-0.008-3.637-0.677-5.341C222.49,101.09,221.523,99.821,220.163,98.837z M209.643,105.018
			c0.306-1.987,2.085-4.397,5.134-4.416c2.773-0.017,4.992,1.858,5.132,4.416C216.486,105.018,213.065,105.018,209.643,105.018z"/>
		<path class="st4" d="M151.556,103.764c-0.21-2.539-1.428-4.485-3.767-5.58c-2.571-1.204-5.255-1.226-7.932-0.386
			c-1.724,0.541-3.157,1.549-4.224,3.085c0.898,0.687,1.784,1.365,2.668,2.042c1.515-1.898,3.474-2.433,5.218-2.347
			c2.866,0.14,4.596,2.138,4.259,4.949c-0.074-0.016-0.149-0.022-0.217-0.048c-1.503-0.594-3.056-0.901-4.678-0.909
			c-1.658-0.009-3.239,0.266-4.722,1.038c-3.26,1.698-3.928,5.337-2.505,8.09c0.937,1.813,2.518,2.799,4.499,3.167
			c2.892,0.538,5.378-0.117,7.27-2.497c0.075-0.094,0.213-0.138,0.41-0.26c0,0.86,0,1.599,0,2.331c1.29,0,2.532,0,3.81,0
			c0-0.196,0-0.361,0-0.525c0-2.71,0.007-5.421-0.004-8.132C151.636,106.441,151.666,105.096,151.556,103.764z M142.444,113.841
			c-1.179-0.022-2.386-0.345-3.138-1.571c-0.83-1.353-0.258-3.357,1.131-4.131c0.698-0.389,1.454-0.534,2.23-0.595
			c1.689-0.134,3.305,0.149,4.831,0.903c0.208,0.103,0.323,0.211,0.307,0.48C147.644,111.691,145.392,113.827,142.444,113.841z"/>
		<path class="st4" d="M201.812,102.515c-0.353-1.833-1.215-3.369-2.865-4.36c-1.071-0.643-2.256-0.876-3.497-0.891
			c-2.497-0.029-4.538,0.865-6.028,2.91c-0.074,0.101-0.202,0.163-0.404,0.32c0-0.965,0-1.793,0-2.629c-1.249,0-2.446,0-3.647,0
			c0,6.211,0,12.394,0,18.574c1.312,0,2.586,0,3.899,0c0-0.208,0-0.388,0-0.567c0-3.045-0.018-6.09,0.013-9.134
			c0.008-0.751,0.088-1.525,0.291-2.245c0.536-1.905,2.024-3.498,4.159-3.614c2.015-0.109,3.73,0.714,4.216,2.756
			c0.142,0.6,0.188,1.235,0.191,1.855c0.018,3.471,0.009,6.942,0.009,10.413c0,0.177,0,0.353,0,0.547c1.308,0,2.554,0,3.856,0
			c0.009-0.167,0.022-0.3,0.022-0.434c0.001-3.73,0.012-7.46-0.009-11.189C202.014,104.055,201.958,103.271,201.812,102.515z"/>
		<path class="st4" d="M180.323,112.926c-1.901,0.453-3.52-0.078-3.515-2.484c0.007-2.954-0.005-5.908-0.019-8.861
			c-0.002-0.307,0.15-0.342,0.397-0.341c1.22,0.007,2.441,0.004,3.661,0.002c0.161,0,0.322-0.016,0.485-0.025
			c0-1.151,0-2.252,0-3.395c-1.526,0-3.016,0-4.556,0c0-1.755,0-3.468,0-5.194c-1.327,0-2.601,0-3.928,0c0,1.742,0,3.454,0,5.223
			c-1.11,0-2.168,0-3.208,0c0,1.161,0,2.263,0,3.392c0.952,0,1.867,0.015,2.781-0.007c0.35-0.008,0.44,0.113,0.435,0.447
			c-0.017,1.188-0.012,2.375-0.005,3.563c0.014,2.223-0.033,4.448,0.073,6.667c0.087,1.826,0.918,3.327,2.612,4.164
			c1.838,0.908,3.759,0.9,5.68,0.222c0.111-0.039,0.258-0.194,0.26-0.296c0.018-1.168,0.012-2.336,0.012-3.547
			C181.051,112.635,180.7,112.836,180.323,112.926z"/>
		<path class="st4" d="M166.112,97.35c-2.382-0.328-5.019,0.868-6.111,2.97c-0.057,0.11-0.172,0.19-0.261,0.284
			c-0.041-0.017-0.082-0.034-0.122-0.052c0-0.899,0-1.799,0-2.687c-1.263,0-2.461,0-3.668,0c0,6.211,0,12.394,0,18.59
			c1.3,0,2.563,0,3.906,0c0-0.217,0-0.397,0-0.577c0-3.013,0.001-6.026,0-9.039c0-0.95,0.104-1.881,0.496-2.76
			c0.772-1.729,2.372-3.263,4.796-2.96c0.789,0.099,1.564,0.311,2.367,0.476c-0.016,0.024,0.014,0,0.014-0.024
			c0.008-0.852,0.015-1.704,0.017-2.555C167.549,97.559,167.549,97.548,166.112,97.35z"/>
		<path class="st4" d="M239.055,97.861c-0.002-0.102-0.187-0.254-0.314-0.293c-2.71-0.818-5.891,0.261-7.227,2.754
			c-0.058,0.109-0.172,0.187-0.261,0.28c-0.037-0.018-0.074-0.036-0.11-0.054c0-0.888,0-1.775,0-2.673c-1.261,0-2.468,0-3.67,0
			c0,6.209,0,12.381,0,18.574c1.304,0,2.578,0,3.908,0c0-0.235,0-0.417,0-0.598c0-2.998-0.005-5.996,0.005-8.995
			c0.002-0.515,0.02-1.039,0.113-1.543c0.415-2.264,2.325-4.846,5.829-4.115c0.573,0.12,1.135,0.295,1.743,0.455
			C239.069,100.379,239.077,99.12,239.055,97.861z"/>
		<path class="st4" d="M121.109,78.052c1.674,0.057,3.293-0.6,4.453-1.808c1.043-1.098,1.591-2.574,1.517-4.087
			c0.012-0.362-0.011-0.723-0.069-1.08h-5.88v1.773h4.156c-0.072,0.802-0.406,1.559-0.949,2.154
			c-1.825,1.735-4.699,1.701-6.483-0.076c-0.865-0.858-1.347-2.03-1.337-3.248c-0.021-1.233,0.461-2.421,1.337-3.29
			c0.843-0.898,2.024-1.4,3.255-1.385c1.174-0.017,2.307,0.431,3.151,1.247l1.233-1.254c-1.166-1.152-2.745-1.788-4.384-1.766
			c-1.721-0.013-3.372,0.678-4.571,1.912c-1.243,1.171-1.939,2.808-1.919,4.516c-0.021,1.708,0.675,3.346,1.919,4.516
			C117.743,77.396,119.394,78.074,121.109,78.052z"/>
		<path class="st4" d="M143.8,76.875c0.794-0.77,1.229-1.838,1.198-2.944c0.03-1.106-0.405-2.173-1.198-2.944
			c-1.64-1.572-4.227-1.572-5.866,0c-0.794,0.771-1.228,1.838-1.198,2.944c-0.03,1.106,0.404,2.174,1.198,2.944
			C139.573,78.446,142.16,78.446,143.8,76.875z M139.214,72.137c0.022-0.023,0.045-0.046,0.068-0.068
			c0.908-0.871,2.351-0.84,3.222,0.068c0.463,0.48,0.713,1.127,0.693,1.794c0.02,0.665-0.23,1.309-0.693,1.787
			c-0.034,0.036-0.068,0.071-0.104,0.104c-0.905,0.847-2.325,0.801-3.172-0.104h-0.007c-0.465-0.477-0.717-1.121-0.7-1.787
			C138.501,73.264,138.751,72.617,139.214,72.137z"/>
		<path class="st4" d="M161.662,78.052c0.737,0.014,1.462-0.188,2.085-0.582c0.524-0.326,0.976-0.755,1.33-1.261l-1.385-0.935
			c-0.429,0.711-1.199,1.145-2.029,1.143c-0.859,0.037-1.652-0.459-1.995-1.247l5.541-2.279l-0.187-0.471
			c-0.111-0.282-0.248-0.553-0.409-0.81c-0.199-0.304-0.431-0.585-0.693-0.838c-0.305-0.298-0.665-0.533-1.06-0.693
			c-0.439-0.183-0.91-0.275-1.385-0.27c-1.045-0.022-2.051,0.398-2.77,1.157c-0.763,0.794-1.17,1.864-1.129,2.964
			c-0.028,1.098,0.395,2.159,1.17,2.937C159.511,77.651,160.568,78.08,161.662,78.052z M160.021,72.061
			c0.39-0.407,0.925-0.643,1.489-0.658c0.332-0.005,0.66,0.079,0.949,0.242c0.258,0.138,0.461,0.36,0.575,0.63l-3.685,1.531
			C159.301,73.154,159.548,72.514,160.021,72.061z"/>
		<path class="st4" d="M135.98,73.931c0.03-1.106-0.405-2.173-1.198-2.944c-1.641-1.568-4.225-1.568-5.866,0
			c-0.794,0.771-1.228,1.838-1.198,2.944c-0.031,1.106,0.404,2.174,1.198,2.944c1.64,1.572,4.227,1.572,5.866,0h-0.007
			C135.572,76.106,136.009,75.038,135.98,73.931z M133.486,75.718c-0.034,0.036-0.068,0.071-0.104,0.104
			c-0.905,0.847-2.325,0.801-3.172-0.104h-0.007c-0.465-0.477-0.717-1.121-0.7-1.787c-0.021-0.667,0.229-1.314,0.693-1.794
			c0.022-0.023,0.045-0.046,0.068-0.068c0.908-0.871,2.351-0.84,3.222,0.068c0.463,0.48,0.713,1.127,0.693,1.794
			C134.199,74.596,133.949,75.24,133.486,75.718z"/>
		<path class="st4" d="M151.931,70.738h-0.062c-0.248-0.283-0.556-0.507-0.9-0.658c-0.399-0.188-0.834-0.285-1.274-0.284
			c-1.053-0.002-2.058,0.437-2.771,1.212c-0.776,0.773-1.204,1.828-1.184,2.923c-0.018,1.089,0.409,2.137,1.184,2.902
			c0.714,0.771,1.719,1.208,2.771,1.205c0.829,0.047,1.633-0.299,2.168-0.935h0.062v0.596c0.048,0.652-0.158,1.297-0.575,1.801
			c-0.422,0.432-1.011,0.66-1.614,0.623c-0.47,0.014-0.929-0.141-1.295-0.436c-0.342-0.274-0.611-0.629-0.783-1.032l-1.579,0.658
			c0.293,0.675,0.756,1.262,1.344,1.704c0.662,0.501,1.476,0.76,2.306,0.734c1.046,0.037,2.063-0.35,2.819-1.074
			c0.794-0.876,1.193-2.041,1.101-3.221V70.08h-1.718V70.738z M151.418,75.739c-0.393,0.452-0.967,0.706-1.565,0.693
			c-0.617,0.008-1.207-0.249-1.621-0.706c-0.458-0.475-0.707-1.113-0.693-1.773c-0.014-0.666,0.234-1.31,0.693-1.794
			c0.415-0.453,1.006-0.705,1.621-0.693c0.599-0.014,1.173,0.24,1.565,0.693c0.431,0.501,0.656,1.147,0.63,1.808
			C152.071,74.615,151.846,75.249,151.418,75.739z"/>
		<rect x="154.895" y="65.696" class="st4" width="1.808" height="12.107"/>
		<path class="st4" d="M174.677,78.052c0.879,0.013,1.75-0.172,2.549-0.54c0.741-0.337,1.396-0.837,1.919-1.461l-0.998-0.997
			c-0.847,1.039-2.122,1.636-3.463,1.621c-1.152,0.026-2.266-0.419-3.082-1.233c-0.849-0.854-1.304-2.024-1.254-3.228
			c-0.05-1.204,0.404-2.373,1.254-3.228c0.817-0.814,1.93-1.259,3.082-1.233c1.202-0.049,2.355,0.478,3.103,1.42l0.997-0.97
			c-1.018-1.204-2.531-1.878-4.107-1.828c-0.077-0.001-0.154-0.001-0.231,0.001c-3.151,0.073-5.646,2.687-5.573,5.838
			c-0.002,0.077-0.002,0.154-0.001,0.231C168.926,75.596,171.525,78.107,174.677,78.052z"/>
		<rect x="180.391" y="66.617" class="st4" width="1.434" height="11.186"/>
		<path class="st4" d="M189.817,76.889c0.742-0.783,1.141-1.831,1.108-2.909c0.033-1.079-0.366-2.126-1.108-2.909
			c-1.564-1.553-4.088-1.553-5.652,0c-0.742,0.783-1.141,1.83-1.108,2.909c-0.033,1.078,0.366,2.126,1.108,2.909
			C185.729,78.442,188.253,78.442,189.817,76.889z M185.232,75.988l0.007-0.007c-0.507-0.54-0.776-1.261-0.748-2.002
			c-0.032-0.742,0.235-1.466,0.741-2.009c0.031-0.032,0.062-0.064,0.094-0.094c0.97-0.918,2.5-0.875,3.417,0.094
			c0.506,0.543,0.773,1.267,0.741,2.009c0.032,0.742-0.235,1.465-0.741,2.009c-0.03,0.032-0.062,0.064-0.094,0.094
			C187.68,77,186.15,76.958,185.232,75.988z"/>
		<path class="st4" d="M195.012,78.08c0.499,0.001,0.989-0.131,1.42-0.381c0.416-0.224,0.765-0.553,1.011-0.956h0.041v1.06h1.385
			v-7.647h-1.434v4.239c0.009,0.6-0.189,1.184-0.561,1.655c-0.344,0.452-0.886,0.71-1.455,0.693c-1.26,0-1.891-0.713-1.891-2.14
			v-4.447h-1.434v4.71c-0.047,0.845,0.216,1.677,0.741,2.341C193.391,77.815,194.192,78.136,195.012,78.08z"/>
		<path class="st4" d="M206.329,76.743h0.062v1.06h1.385V66.617h-1.434v3.539l0.062,1.06h-0.062
			c-0.256-0.399-0.615-0.722-1.039-0.935c-0.482-0.254-1.02-0.383-1.565-0.374c-0.984-0.003-1.921,0.424-2.563,1.171
			c-0.718,0.793-1.103,1.833-1.074,2.902c-0.029,1.069,0.356,2.109,1.074,2.902c0.642,0.746,1.578,1.174,2.563,1.171
			c0.54,0.006,1.074-0.122,1.551-0.374C205.714,77.465,206.073,77.142,206.329,76.743z M203.974,76.743
			c-0.663,0.01-1.297-0.268-1.739-0.762c-0.489-0.551-0.738-1.274-0.693-2.009c-0.045-0.735,0.204-1.458,0.693-2.009
			c0.05-0.054,0.102-0.106,0.156-0.156c0.956-0.87,2.437-0.8,3.307,0.156c0.487,0.555,0.736,1.279,0.693,2.016
			c0.043,0.737-0.206,1.461-0.693,2.015C205.258,76.48,204.63,76.753,203.974,76.743z"/>
	</g>
</g>
<g>
	<path class="st5" d="M353.188,41.33c23.743,0,42.067,9.242,42.067,9.242s0,9.242,0,27.567c0,18.325-2.285,25.199-11.314,37.805
		c-10.357,14.461-30.754,24.34-30.754,24.34s-20.396-9.879-30.754-24.34c-9.029-12.606-11.314-19.48-11.314-37.805
		c0-18.325,0-27.567,0-27.567S329.446,41.33,353.188,41.33"/>
	<path class="st4" d="M353.188,41.33c23.743,0,42.067,9.242,42.067,9.242s0,9.242,0,27.567c0,18.325-2.285,25.199-11.314,37.805
		c-10.357,14.461-30.754,24.34-30.754,24.34s-20.396-9.879-30.754-24.34c-9.029-12.606-11.314-19.48-11.314-37.805
		c0-18.325,0-27.567,0-27.567S329.446,41.33,353.188,41.33 M353.188,37.496c-12.739,0-23.921,2.604-31.059,4.789
		c-7.772,2.379-12.536,4.764-12.735,4.864l-2.107,1.063v2.36v27.567c0,10.055,0.706,16.476,2.437,22.163
		c1.968,6.465,5.258,11.821,9.594,17.874c4.565,6.373,11.376,12.613,20.246,18.547c6.54,4.375,11.735,6.906,11.953,7.011
		l1.671,0.809l1.671-0.809c0.218-0.106,5.414-2.636,11.953-7.011c8.87-5.934,15.681-12.174,20.246-18.547
		c2.514-3.511,4.364-6.382,5.821-9.036c1.635-2.98,2.869-5.871,3.773-8.838c1.731-5.687,2.437-12.108,2.437-22.163V50.572v-2.36
		l-2.107-1.063c-0.199-0.1-4.962-2.485-12.735-4.864C377.109,40.1,365.927,37.496,353.188,37.496L353.188,37.496z"/>
	<path class="st6" d="M346.018,125.464c0,0,0.478-1.647-1.009-2.496c-1.487-0.85-2.337-0.903-3.028-1.593
		c-0.69-0.69-1.328-1.54-1.328-1.54s-0.584,3.824,0.77,5.312c1.354,1.487,3.532,1.328,3.904,1.248
		c0.372-0.08,0.425-0.239,0.425-0.239s-0.691-0.159-1.567-0.77s-2.204-2.523-2.311-2.789c-0.106-0.266-0.106-0.266-0.106-0.266
		S343.229,124.269,346.018,125.464z"/>
	<path class="st7" d="M354.102,111.464c-0.278,0.139-2.746,1.279-3.967,3.245c-1.222,1.965-0.93,3.134-0.717,3.692
		s2.045,2.364,2.045,2.364s-0.212-2.789,0.053-3.612s1.381-3.001,1.381-3.001s-0.876,2.496-0.77,4.17s0.212,2.443,0.212,2.443
		s1.779-1.089,1.939-2.151c0.159-1.062-0.106-4.674,0.239-5.763s0.345-1.726,0.345-1.726S354.38,111.325,354.102,111.464z"/>
	<path class="st8" d="M364.263,116.541c0,0-0.425,1.169-2.098,2.47s-2.496,0.797-3.399,2.47s-0.372,2.55-0.372,2.55
		s2.098-1.354,3.452-2.842s1.434-1.912,1.434-1.912s-0.823,2.523-2.337,3.638s-2.018,1.593-2.018,1.593s1.487,0.505,2.47,0.372
		c0.983-0.133,2.895-1.301,3.16-2.603C364.821,120.976,364.688,117.577,364.263,116.541z"/>
	<path class="st9" d="M365.245,126.442c0,0-1.593,0.563-3.585,0.457s-2.754-0.133-3.422,0.345c-0.668,0.478-1.332,1.567-1.332,1.567
		s0.451,0.239,1.567,0.239s2.576-0.292,3.426-0.611c0.85-0.319,1.009-0.451,1.009-0.451s-1.195,1.142-2.603,1.354s-3.4,0-3.4,0
		s0.433,0.744,1.332,1.301c0.899,0.558,2.253,1.381,4.272,0C364.528,129.262,365.139,126.808,365.245,126.442z"/>
	<path class="st4" d="M357.384,124.296c0,0-1.385,2.018-2.18,3.665c-0.795,1.647-0.901,1.965-0.901,1.965s-1.009-3.091-1.115-3.484
		s-0.85-1.827-0.85-2.624c0-0.797,0-1.54,0-1.54s-1.115,3.399-1.062,5.63c0.053,2.231,0.212,3.493,0.212,3.493
		s-0.543-0.996-2.263-3.015c-1.72-2.018-1.72-2.018-1.72-2.018s1.859,3.081,2.709,4.727c0.85,1.647,1.753,1.912,1.275,4.674
		c-0.19,1.098-0.666,2.146-1.17,3.01c1.788,0.981,2.87,1.505,2.87,1.505s0.959-0.465,2.565-1.339
		c0.095-1.518,0.133-3.295-0.068-4.557c-0.425-2.656-0.81-2.913-0.033-5.467C356.428,126.367,357.384,124.296,357.384,124.296z"/>
	<g>
		<path class="st10" d="M346.212,129.182c-1.523,0.142-2.39-0.106-2.39-0.106c0.496,0.797,1.08,1.735,2.216,2.324
			c1.136,0.589,2.139-0.695,2.21-1.103C348.319,129.891,347.735,129.041,346.212,129.182z"/>
		<path class="st10" d="M347.151,121.25c0,0-0.212,1.664,0.354,2.762c0.567,1.098,1.452,1.231,1.859,0.89
			c0.407-0.341,0.726-1.102,0.336-1.616C349.311,122.773,347.664,121.959,347.151,121.25z"/>
		<path class="st10" d="M345.982,119.976c0.407-0.46,0.814-1.735,0.109-2.974c-0.706-1.239-0.622-2.284-0.622-2.284
			c-1.08,1.151-2.249,3.187-1.381,4.692C344.955,120.914,345.575,120.436,345.982,119.976z"/>
		<path class="st10" d="M355.561,119.94c-0.549,0.496-1.434,1.346-1.275,2.089c0.159,0.744,0.74,1.576,1.662,0.903
			s1.418-2.479-0.034-4.603C355.915,118.329,356.11,119.445,355.561,119.94z"/>
		<path class="st10" d="M359.12,114.151c0,0-0.248,1.31-0.797,1.894c-0.549,0.584-0.85,2.408,0.398,2.656
			C359.969,118.949,360.323,115.904,359.12,114.151z"/>
	</g>
	<g>
		<path class="st11" d="M378.503,75.41c0.542-0.013,1.093-0.046,1.623-0.156c1.454-0.303,2.538-1.111,3.161-2.479
			c0.44-0.967,0.467-1.984,0.358-3.02c-0.194-1.85-1.42-3.157-3.263-3.476c-1.627-0.282-3.266-0.076-4.916-0.162
			c0,3.127,0,6.208,0,9.301C376.492,75.417,377.498,75.434,378.503,75.41z M377.557,67.829c0.833,0.004,1.659-0.074,2.442,0.276
			c0.669,0.299,1.112,0.806,1.33,1.494c0.248,0.783,0.228,1.576-0.04,2.351c-0.342,0.99-1.065,1.57-2.087,1.715
			c-0.531,0.075-1.082,0.013-1.644,0.013C377.557,71.744,377.557,69.801,377.557,67.829z"/>
		<path class="st11" d="M339.271,71.887c0.679-0.11,1.052,0.028,1.441,0.527c0.109,0.14,0.209,0.29,0.302,0.441
			c0.439,0.716,0.894,1.425,1.303,2.158c0.177,0.316,0.374,0.433,0.737,0.413c0.625-0.034,1.253-0.009,1.913-0.009
			c-0.037-0.069-0.054-0.106-0.076-0.14c-0.604-0.944-1.199-1.894-1.818-2.83c-0.32-0.484-0.688-0.932-1.249-1.186
			c0.023-0.025,0.028-0.033,0.035-0.037c0.03-0.015,0.061-0.03,0.092-0.041c1.155-0.402,1.857-1.171,1.926-2.422
			c0.043-0.773-0.16-1.464-0.805-1.965c-0.675-0.524-1.475-0.642-2.29-0.658c-1.151-0.023-2.302-0.007-3.453-0.007
			c-0.049,0-0.097,0.009-0.149,0.015c0,3.096,0,6.176,0,9.255c0.7,0,1.379,0,2.09,0C339.271,74.219,339.271,73.05,339.271,71.887z
			 M339.281,67.707c0.592,0.035,1.187-0.094,1.758,0.141c0.661,0.271,0.853,1.249,0.369,1.872c-0.271,0.35-0.636,0.529-1.075,0.543
			c-0.339,0.011-0.68,0.002-1.052,0.002C339.281,69.409,339.281,68.581,339.281,67.707z"/>
		<path class="st11" d="M373.939,73.731c-1.159,0-2.305,0-3.467,0c0-0.722,0-1.415,0-2.139c1.014,0,2.015,0,3.018,0
			c0-0.579,0-1.126,0-1.7c-1.01,0-2.003,0-3.004,0c0-0.7,0-1.372,0-2.076c1.093,0,2.162,0,3.235,0c0-0.572,0-1.114,0-1.669
			c-1.789,0-3.565,0-5.346,0c0,3.096,0,6.176,0,9.252c1.867,0,3.712,0,5.565,0C373.939,74.84,373.939,74.3,373.939,73.731z"/>
		<path class="st11" d="M335.654,73.719c-1.162,0-2.308,0-3.45,0c0-0.723,0-1.416,0-2.138c1.018,0,2.018,0,3.024,0
			c0-0.569,0-1.11,0-1.682c-1.014,0-2.015,0-3.028,0c0-0.7,0-1.369,0-2.078c1.095,0,2.165,0,3.249,0c0-0.571,0-1.119,0-1.674
			c-1.79,0-3.566,0-5.34,0c0,3.097,0,6.178,0,9.256c1.859,0,3.698,0,5.545,0C335.654,74.843,335.654,74.296,335.654,73.719z"/>
		<path class="st11" d="M326.551,75.547c0.595-0.048,1.184-0.134,1.732-0.388c0.07-0.033,0.166-0.115,0.167-0.177
			c0.013-0.585,0.008-1.171,0.008-1.809c-0.683,0.382-1.367,0.56-2.09,0.593c-1.139,0.053-2.138-0.41-2.649-1.454
			c-0.304-0.623-0.328-1.292-0.279-1.969c0.086-1.185,0.913-2.201,2.038-2.461c0.889-0.205,1.757-0.103,2.594,0.261
			c0.12,0.052,0.239,0.108,0.39,0.177c0-0.615-0.01-1.184,0.006-1.752c0.006-0.201-0.066-0.285-0.25-0.333
			c-0.942-0.245-1.895-0.327-2.861-0.202c-1.501,0.194-2.688,0.908-3.456,2.216c-0.806,1.371-0.887,2.848-0.461,4.355
			c0.358,1.265,1.178,2.143,2.396,2.633C324.708,75.588,325.627,75.623,326.551,75.547z"/>
		<path class="st11" d="M359.659,71.793c1.018,0,2.009,0,2.998,0c0-0.574,0-1.115,0-1.685c-1.004,0-1.996,0-2.99,0
			c0-0.773,0-1.516,0-2.29c1.093,0,2.17,0,3.243,0c0-0.579,0-1.126,0-1.667c-1.796,0-3.573,0-5.356,0c0,3.088,0,6.156,0,9.245
			c0.696,0,1.387,0,2.104,0C359.659,74.197,359.659,73.012,359.659,71.793z"/>
		<path class="st11" d="M344.678,67.834c0.885,0,1.756,0,2.653,0c0,2.548,0,5.06,0,7.57c0.706,0,1.384,0,2.098,0
			c0-2.53,0-5.048,0-7.589c0.9,0,1.766,0,2.641,0c0-0.565,0-1.107,0-1.662c-2.48,0-4.937,0-7.392,0
			C344.678,66.715,344.678,67.256,344.678,67.834z"/>
		<path class="st11" d="M355.578,75.4c0-0.001,0-0.002,0-0.004c0.16,0,0.319,0,0.479,0c0-0.522,0-1.034,0-1.559
			c-0.16,0-0.319,0-0.479,0c0-2.046,0-4.09,0-6.134c0.16,0,0.319,0,0.479,0c0-0.522,0-1.034,0-1.559c-0.16,0-0.319,0-0.479,0
			c0,0,0,0,0,0c-0.693,0-1.373,0-2.07,0c0,0,0,0,0,0c-0.204,0-0.409,0-0.613,0c0,0.53,0,1.041,0,1.559c0.205,0,0.408,0,0.613,0
			c0,2.05,0,4.094,0,6.134c-0.204,0-0.409,0-0.613,0c0,0.53,0,1.041,0,1.559c0.205,0,0.408,0,0.613,0c0,0.001,0,0.002,0,0.004
			C354.211,75.4,354.889,75.4,355.578,75.4z"/>
		<path class="st11" d="M366.385,66.151c-0.693,0-1.373,0-2.07,0c0,0,0,0,0,0c-0.204,0-0.409,0-0.613,0c0,0.53,0,1.041,0,1.559
			c0.205,0,0.408,0,0.613,0c0,2.05,0,4.094,0,6.134c-0.204,0-0.409,0-0.613,0c0,0.53,0,1.041,0,1.559c0.205,0,0.408,0,0.613,0
			c0,0,0,0,0,0.001c0,0.001,0,0.002,0,0.003c0.703,0,1.382,0,2.07,0c0-0.001,0-0.002,0-0.004c0.16,0,0.319,0,0.479,0
			c0-0.522,0-1.034,0-1.559c-0.16,0-0.319,0-0.479,0c0-2.046,0-4.09,0-6.134c0.16,0,0.319,0,0.479,0c0-0.522,0-1.034,0-1.559
			C366.704,66.151,366.545,66.151,366.385,66.151C366.385,66.151,366.385,66.151,366.385,66.151z"/>
		<path class="st11" d="M344.583,77.434c-0.516-0.007-0.731,0.148-0.897,0.636c-1.966,5.761-3.958,11.513-5.907,17.163
			c-0.121-0.524-0.229-1.258-0.462-1.951c-1.734-5.134-3.498-10.257-5.236-15.39c-0.128-0.378-0.326-0.454-0.686-0.452
			c-2.365,0.014-4.731,0.006-7.096,0.01c-0.169,0-0.338,0.037-0.481,0.054c0,8.182,0,16.304,0,24.44c1.661,0,3.273,0,4.876,0
			c0-6.603,0-13.171,0-19.799c0.269,1.142,0.43,2.26,0.795,3.306c1.875,5.368,3.808,10.717,5.702,16.079
			c0.133,0.376,0.321,0.463,0.685,0.456c1.126-0.02,2.253-0.032,3.379,0.004c0.484,0.016,0.7-0.136,0.857-0.602
			c0.966-2.863,1.997-5.704,2.95-8.571c1.101-3.312,2.144-6.643,3.209-9.967c0.068-0.213,0.107-0.435,0.168-0.686
			c0,6.623,0,13.191,0,19.771c1.776,0,3.565,0,5.362,0c0-8.181,0-16.318,0-24.487C349.356,77.448,346.969,77.465,344.583,77.434z"/>
		<path class="st11" d="M374.162,91.863c2.685,0,5.309,0,7.953,0c0-1.51,0-2.956,0-4.474c-2.662,0-5.285,0-7.937,0
			c0-1.85,0-3.628,0-5.486c2.88,0,5.703,0,8.533,0c0-1.527,0-2.972,0-4.423c-4.73,0-9.407,0-14.115,0c0,8.172,0,16.311,0,24.457
			c4.926,0,9.802,0,14.691,0c0-1.486,0-2.931,0-4.425c-3.063,0-6.076,0-9.125,0C374.162,95.616,374.162,93.771,374.162,91.863z"/>
		<path class="st11" d="M355.26,81.644h2.193c0,5.388,0,10.76,0,16.136h-2.193v4.211h9.614v-4.211h-1.958c0-5.397,0-10.772,0-16.136
			h1.958v-4.211h-9.614V81.644z"/>
	</g>
	<g>
		<path class="st12" d="M379.577,53.433l-0.001-0.906l-1.125,0.001l-0.001-1.408l-0.038,0.012l-1.056,0.324l-0.021,0.006
			l0.001,1.067l-1.668,0.001l0-0.594c0-0.277,0.061-0.489,0.183-0.63c0.121-0.14,0.294-0.211,0.515-0.211
			c0.159,0,0.323,0.037,0.489,0.111l0.042,0.019l-0.001-0.954l-0.02-0.007c-0.154-0.055-0.365-0.083-0.625-0.083
			c-0.328,0-0.626,0.072-0.886,0.214c-0.26,0.142-0.465,0.344-0.608,0.602c-0.143,0.257-0.215,0.554-0.215,0.882l0.001,0.654
			l-0.783,0.001l0.001,0.906l0.783-0.001l0.003,3.816l1.125-0.001l-0.003-3.816l1.668-0.001l0.002,2.425
			c0.001,0.999,0.472,1.505,1.402,1.504c0.153,0,0.313-0.018,0.477-0.053c0.167-0.036,0.281-0.072,0.348-0.111l0.015-0.009
			l-0.001-0.914l-0.046,0.03c-0.061,0.041-0.137,0.074-0.226,0.099c-0.089,0.025-0.164,0.038-0.222,0.038
			c-0.218,0-0.379-0.058-0.479-0.174c-0.101-0.117-0.153-0.321-0.153-0.607l-0.002-2.23L379.577,53.433L379.577,53.433z
			 M371.252,56.45c-0.408,0-0.73-0.135-0.957-0.401c-0.228-0.268-0.344-0.65-0.345-1.135c0-0.501,0.115-0.893,0.343-1.166
			c0.227-0.271,0.545-0.409,0.947-0.409c0.39,0,0.7,0.131,0.923,0.39c0.224,0.26,0.337,0.649,0.338,1.156
			c0,0.513-0.106,0.907-0.316,1.17C371.976,56.317,371.662,56.45,371.252,56.45 M371.298,52.42c-0.779,0.001-1.397,0.229-1.838,0.68
			c-0.44,0.45-0.663,1.073-0.663,1.852c0.001,0.739,0.219,1.334,0.65,1.767c0.431,0.433,1.016,0.652,1.741,0.652
			c0.755-0.001,1.361-0.232,1.801-0.689c0.44-0.456,0.663-1.073,0.663-1.834c-0.001-0.751-0.211-1.35-0.624-1.78
			C372.614,52.637,372.032,52.419,371.298,52.42 M366.983,52.423c-0.53,0-0.968,0.136-1.302,0.404
			c-0.337,0.269-0.507,0.622-0.507,1.048c0,0.222,0.037,0.419,0.11,0.586c0.073,0.168,0.186,0.315,0.336,0.439
			c0.149,0.123,0.379,0.251,0.684,0.382c0.256,0.105,0.447,0.194,0.569,0.264c0.119,0.069,0.203,0.138,0.25,0.205
			c0.046,0.066,0.07,0.156,0.07,0.268c0,0.317-0.237,0.472-0.726,0.472c-0.181,0-0.388-0.038-0.615-0.112
			c-0.225-0.073-0.437-0.181-0.63-0.319l-0.047-0.033l0.001,1.083l0.017,0.008c0.159,0.073,0.36,0.135,0.596,0.184
			c0.236,0.049,0.45,0.073,0.637,0.073c0.575,0,1.038-0.137,1.375-0.406c0.34-0.271,0.512-0.632,0.511-1.073
			c0-0.318-0.093-0.591-0.276-0.811c-0.182-0.218-0.497-0.418-0.937-0.595c-0.35-0.14-0.575-0.257-0.667-0.346
			c-0.089-0.086-0.135-0.209-0.135-0.364c0-0.137,0.056-0.247,0.17-0.337c0.116-0.09,0.277-0.135,0.478-0.135
			c0.187,0,0.379,0.029,0.57,0.087c0.191,0.058,0.358,0.135,0.498,0.23l0.046,0.031l-0.001-1.027l-0.018-0.008
			c-0.129-0.055-0.299-0.102-0.505-0.141C367.332,52.442,367.145,52.423,366.983,52.423 M362.245,56.458
			c-0.408,0-0.73-0.135-0.957-0.401c-0.228-0.268-0.344-0.65-0.345-1.135c0-0.501,0.115-0.893,0.343-1.166
			c0.227-0.271,0.545-0.409,0.947-0.409c0.39,0,0.7,0.131,0.923,0.39c0.224,0.26,0.337,0.649,0.338,1.156
			c0,0.513-0.106,0.907-0.316,1.17C362.969,56.324,362.655,56.458,362.245,56.458 M362.291,52.427
			c-0.779,0.001-1.397,0.229-1.838,0.68c-0.44,0.45-0.663,1.073-0.663,1.852c0.001,0.74,0.219,1.334,0.65,1.767
			c0.431,0.433,1.016,0.652,1.741,0.652c0.755-0.001,1.361-0.232,1.801-0.689c0.44-0.456,0.663-1.073,0.663-1.834
			c-0.001-0.751-0.211-1.35-0.625-1.78C363.607,52.645,363.025,52.427,362.291,52.427 M358.083,53.362l-0.001-0.818l-1.111,0.001
			l0.004,4.722l1.111-0.001l-0.002-2.416c0-0.411,0.093-0.748,0.276-1.003c0.181-0.252,0.423-0.38,0.718-0.38
			c0.1,0,0.212,0.016,0.334,0.049c0.12,0.032,0.208,0.067,0.259,0.105l0.047,0.034l-0.001-1.12l-0.018-0.008
			c-0.103-0.044-0.25-0.066-0.435-0.066c-0.279,0-0.529,0.09-0.743,0.267c-0.188,0.155-0.323,0.368-0.427,0.634L358.083,53.362z
			 M354.982,52.433c-0.51,0-0.964,0.11-1.351,0.326c-0.387,0.216-0.687,0.525-0.89,0.917c-0.203,0.391-0.305,0.848-0.305,1.357
			c0,0.446,0.101,0.856,0.298,1.216c0.198,0.361,0.478,0.644,0.832,0.84c0.354,0.196,0.762,0.295,1.215,0.294
			c0.528,0,0.979-0.106,1.34-0.315l0.015-0.008l-0.001-1.018l-0.047,0.034c-0.164,0.119-0.346,0.215-0.543,0.283
			c-0.196,0.069-0.375,0.103-0.532,0.104c-0.436,0-0.786-0.136-1.04-0.404c-0.255-0.269-0.384-0.647-0.385-1.123
			c0-0.479,0.134-0.867,0.399-1.153c0.264-0.285,0.615-0.43,1.042-0.431c0.365,0,0.721,0.123,1.058,0.367l0.047,0.034l-0.001-1.072
			l-0.015-0.008c-0.127-0.071-0.3-0.129-0.514-0.173C355.389,52.455,355.18,52.433,354.982,52.433 M351.669,52.55l-1.111,0.001
			l0.004,4.722l1.111-0.001L351.669,52.55L351.669,52.55z M351.123,50.539c-0.183,0-0.342,0.063-0.473,0.186
			c-0.131,0.124-0.198,0.28-0.198,0.463c0,0.181,0.066,0.334,0.197,0.454c0.13,0.12,0.29,0.181,0.476,0.18
			c0.186,0,0.346-0.061,0.477-0.181c0.132-0.121,0.199-0.274,0.198-0.455c0-0.177-0.065-0.331-0.194-0.458
			C351.478,50.602,351.316,50.538,351.123,50.539 M348.353,52.204l0.004,5.071l1.134-0.001l-0.005-6.589l-1.569,0.001l-1.99,4.896
			l-1.939-4.893l-1.633,0.001l0.005,6.589l1.065-0.001l-0.004-5.071l0.037,0l2.048,5.069l0.804-0.001l2.008-5.072L348.353,52.204
			L348.353,52.204z"/>
		<path class="st13" d="M333.29,53.722l-5.226,0.004L328.06,48.5l5.226-0.004L333.29,53.722z"/>
		<path class="st14" d="M339.06,53.717l-5.226,0.004l-0.004-5.226l5.226-0.004L339.06,53.717L339.06,53.717z"/>
		<path class="st7" d="M333.295,59.493l-5.225,0.004l-0.004-5.226l5.225-0.004L333.295,59.493z"/>
		<path class="st3" d="M339.065,59.489l-5.226,0.004l-0.004-5.226l5.226-0.004L339.065,59.489L339.065,59.489z"/>
	</g>
</g>
</svg>
