<?xml version="1.0" encoding="utf-8"?>
<!-- Generator: Adobe Illustrator 24.0.3, SVG Export Plug-In . SVG Version: 6.00 Build 0)  -->
<svg version="1.1" id="Layer_1" xmlns="http://www.w3.org/2000/svg" xmlns:xlink="http://www.w3.org/1999/xlink" x="0px" y="0px"
	 viewBox="0 0 750 750" style="enable-background:new 0 0 750 750;" xml:space="preserve">
<style type="text/css">
	.st0{fill:#FFFFFF;}
</style>
<filter id="shadow">
    <feGaussianBlur in="SourceAlpha" stdDeviation="6"/>
    <feOffset dx="0" dy="0" result="offsetblur"/>
    <feFlood flood-color="rgb(0,0,0)" flood-opacity="0.36"/>
    <feComposite in2="offsetblur" operator="in"/>
    <feMerge>
        <feMergeNode/>
        <feMergeNode in="SourceGraphic"/>
    </feMerge>
</filter>
<g>
	<path class="st0" d="M39.59,167.37c2.43,4.36,5.92,7.84,10.46,10.44c4.54,2.61,9.78,4.03,15.72,4.27
		c9.08,0.37,16.4-2.93,21.96-9.92c5.56-6.98,8.59-16.59,9.09-28.8l0.05-1.23c0.52-12.71-1.71-22.68-6.69-29.92
		c-4.97-7.24-12.06-11.05-21.23-11.43c-5.84-0.24-11.12,0.88-15.81,3.35c-4.7,2.47-8.5,6.14-11.41,11l0.57-13.98l-3.91-0.16
		l-4.43,108.54l3.91,0.16L39.59,167.37z M41.39,123.39c2.29-6.3,5.8-11.05,10.52-14.27c4.73-3.22,10.38-4.7,16.95-4.43
		c8.06,0.33,14.2,3.76,18.41,10.29c4.21,6.54,6.08,15.43,5.62,26.69c-0.5,12.27-3.11,21.5-7.8,27.7c-4.71,6.2-11.07,9.13-19.09,8.8
		c-6.62-0.27-12.18-1.99-16.66-5.14c-4.49-3.16-7.64-7.48-9.45-12.98L41.39,123.39z"/>

		<rect x="62.32" y="125.06" transform="matrix(0.0408 -0.9992 0.9992 0.0408 -13.7065 239.7614)" class="st0" width="111.39" height="3.92"/>
	<path class="st0" d="M157.98,185.84c6.76,0.28,12.88-0.85,18.36-3.38c5.47-2.53,9.86-6.25,13.16-11.15
		c-0.25,6.23,0.04,11.03,0.86,14.41l4.49,0.18l0.03-0.66c-1.23-3.14-1.66-9.02-1.31-17.62l1.53-37.46
		c0.17-7.68-2.15-13.74-6.95-18.17c-4.8-4.43-11.43-6.82-19.88-7.17c-8.12-0.33-15.06,1.61-20.85,5.83
		c-5.79,4.22-8.8,9.52-9.07,15.89l3.91,0.31c0.22-5.41,2.8-9.86,7.73-13.33s10.98-5.07,18.12-4.78c7.68,0.31,13.51,2.37,17.5,6.16
		s5.84,8.97,5.58,15.54l-0.47,11.45l-19.35-0.79c-10.77-0.34-19.5,1.52-26.18,5.58c-6.68,4.06-10.15,9.69-10.45,16.89
		c-0.26,6.33,1.74,11.55,6,15.66C144.99,183.35,150.74,185.55,157.98,185.84z M138.63,163.94c0.22-5.41,2.82-9.83,7.8-13.25
		c6.12-4.2,14.79-6.08,25.99-5.61l18.12,0.74l-0.76,18.62c-2.9,5.83-7.06,10.28-12.48,13.35c-5.43,3.07-11.81,4.46-19.15,4.15
		c-5.84-0.24-10.61-2.1-14.29-5.59C140.18,172.85,138.43,168.72,138.63,163.94z"/>
	<path class="st0" d="M220.29,136.69c2.05-7.51,5.64-13.56,10.79-18.16c5.15-4.6,11.11-6.76,17.87-6.48
		c7.34,0.3,12.62,2.53,15.84,6.7s4.68,10.45,4.38,18.85l-2.09,51.26l3.91,0.16l2.09-51.16c0.34-9.62-1.42-16.89-5.32-21.81
		s-10.03-7.55-18.44-7.91c-6.04-0.25-11.61,1.29-16.74,4.61c-5.12,3.32-9.08,7.98-11.89,13.95l0.75-18.26l-3.91-0.16l-3.2,78.41
		l3.91,0.16L220.29,136.69z"/>
	<path class="st0" d="M297.81,139.85c2.05-7.51,5.64-13.56,10.79-18.16c5.15-4.6,11.11-6.76,17.87-6.48
		c7.34,0.3,12.62,2.53,15.84,6.7s4.68,10.45,4.38,18.85l-2.09,51.26l3.91,0.16l2.09-51.16c0.34-9.62-1.42-16.89-5.32-21.81
		c-3.89-4.93-10.03-7.55-18.44-7.91c-6.04-0.25-11.61,1.29-16.74,4.61c-5.12,3.32-9.08,7.98-11.89,13.95l0.75-18.26l-3.91-0.16
		l-3.2,78.41l3.91,0.16L297.81,139.85z"/>
	<path class="st0" d="M376.31,94.23c1.11,0.05,2.08-0.31,2.91-1.04c0.83-0.74,1.27-1.66,1.31-2.77c0.05-1.11-0.31-2.08-1.08-2.91
		c-0.77-0.83-1.7-1.27-2.81-1.31c-1.11-0.05-2.07,0.31-2.88,1.08c-0.8,0.77-1.23,1.7-1.28,2.81c-0.05,1.11,0.31,2.07,1.04,2.88
		C374.26,93.76,375.2,94.19,376.31,94.23z"/>

		<rect x="334.65" y="151.96" transform="matrix(0.0408 -0.9992 0.9992 0.0408 204.8342 521.2145)" class="st0" width="78.47" height="3.92"/>
	<path class="st0" d="M431.24,115.57c-6.04-0.25-11.61,1.29-16.74,4.61c-5.12,3.32-9.08,7.98-11.89,13.95l0.75-18.26l-3.91-0.16
		l-3.2,78.41l3.91,0.16l2.04-50.17c2.05-7.51,5.64-13.56,10.79-18.16c5.15-4.6,11.11-6.76,17.87-6.48c7.34,0.3,12.62,2.53,15.84,6.7
		c3.22,4.17,4.68,10.45,4.38,18.85l-2.09,51.26l3.91,0.16l2.09-51.16c0.34-9.62-1.42-16.89-5.32-21.81
		C445.79,118.53,439.64,115.91,431.24,115.57z"/>
	<path class="st0" d="M529.35,121.01l-0.58,14.35c-2.54-5.28-6.03-9.36-10.46-12.22c-4.43-2.87-9.57-4.42-15.42-4.66
		c-9.18-0.37-16.54,2.85-22.1,9.66c-5.55,6.82-8.58,16.48-9.09,28.99l-0.04,1.02c-0.51,12.56,1.72,22.54,6.69,29.96
		c4.97,7.42,11.99,11.3,21.08,11.68c5.84,0.24,11.12-0.74,15.83-2.95c4.71-2.2,8.51-5.47,11.39-9.8l-0.49,12
		c-0.51,8.91-3.11,15.73-7.8,20.44c-4.69,4.71-11.07,6.9-19.14,6.57c-4.88-0.2-9.09-1.4-12.63-3.59c-3.54-2.19-6.75-5.28-9.64-9.26
		l-2.86,2.51c2.91,4.39,6.52,7.8,10.79,10.26c4.28,2.45,9.05,3.79,14.31,4c9.13,0.37,16.47-2.25,22.03-7.85
		c5.55-5.6,8.54-13.57,8.96-23.91l3.14-77.03L529.35,121.01z M526.96,179.42c-2.16,5.47-5.62,9.65-10.38,12.53
		c-4.76,2.88-10.45,4.18-17.07,3.91c-8.02-0.32-14.12-3.78-18.3-10.37c-4.18-6.58-6.05-15.48-5.59-26.69
		c0.5-12.32,3.12-21.55,7.84-27.7c4.73-6.15,11.12-9.05,19.19-8.73c13.48,0.55,22.06,7.7,25.76,21.44L526.96,179.42z"/>
	<path class="st0" d="M41.65,581.26c-3.43-0.14-6.53,0.52-9.28,1.96c-2.76,1.45-4.99,3.61-6.69,6.45l0.33-8.21l-2.29-0.09
		l-2.6,63.71l2.29,0.09l1.02-24.84c1.43,2.56,3.48,4.61,6.14,6.13c2.66,1.53,5.74,2.37,9.23,2.51c5.33,0.22,9.63-1.72,12.89-5.83
		c3.26-4.1,5.04-9.74,5.34-16.91l0.03-0.72c0.31-7.45-1.01-13.32-3.93-17.56C51.19,583.71,47.04,581.48,41.65,581.26z M55.71,605.27
		c-0.3,7.2-1.82,12.62-4.59,16.26c-2.76,3.63-6.5,5.35-11.2,5.17c-3.88-0.16-7.15-1.17-9.78-3.02c-2.64-1.86-4.48-4.39-5.55-7.62
		l0.88-21.52c1.34-3.7,3.4-6.48,6.18-8.38c2.77-1.89,6.09-2.76,9.95-2.6c4.73,0.19,8.34,2.21,10.81,6.05S55.98,598.66,55.71,605.27z
		"/>
	<path class="st0" d="M76.57,588.8c2.74-2.43,6.07-3.56,9.98-3.4l2.97,0.38l0.34-2.06c-0.81-0.35-1.88-0.55-3.21-0.61
		c-3.77-0.16-6.94,0.66-9.52,2.42c-2.57,1.77-4.55,4.24-5.93,7.39l0.39-9.57l-2.29-0.09l-1.89,46.01l2.29,0.09l1.23-30.13
		C71.96,594.7,73.82,591.22,76.57,588.8z"/>
	<path class="st0" d="M131.22,609.71l0.08-2.04c0.15-4.36-0.56-8.33-2.14-11.89c-1.57-3.56-3.86-6.35-6.83-8.38
		c-2.99-2.03-6.41-3.12-10.26-3.27c-3.88-0.16-7.41,0.68-10.56,2.51c-3.15,1.83-5.65,4.47-7.48,7.9c-1.83,3.43-2.84,7.35-3.01,11.74
		l-0.08,2.04c-0.15,4.34,0.55,8.29,2.12,11.83c1.56,3.54,3.84,6.34,6.83,8.4c3,2.05,6.44,3.16,10.32,3.32
		c3.88,0.16,7.41-0.68,10.56-2.51c3.15-1.83,5.64-4.46,7.45-7.88C130.04,618.06,131.04,614.14,131.22,609.71z M123.36,624.18
		c-3.47,3.81-7.82,5.6-13.07,5.39c-3.49-0.14-6.55-1.17-9.18-3.06c-2.64-1.9-4.64-4.48-6.03-7.72c-1.39-3.26-2.01-6.79-1.85-10.62
		l0.06-1.36c0.25-6.07,2.11-11.03,5.59-14.9c3.48-3.87,7.84-5.69,13.09-5.47c3.43,0.14,6.46,1.17,9.1,3.08
		c2.64,1.91,4.65,4.5,6.06,7.77c1.4,3.26,2.03,6.79,1.87,10.56l-0.06,1.32C128.69,615.36,126.83,620.37,123.36,624.18z"/>
	<path class="st0" d="M142.11,570.13c-0.47,0.45-0.72,1-0.75,1.66c-0.03,0.66,0.18,1.21,0.61,1.68s0.98,0.72,1.63,0.75
		c0.66,0.03,1.22-0.18,1.71-0.61s0.74-0.98,0.77-1.63c0.03-0.66-0.18-1.22-0.63-1.71c-0.45-0.49-1-0.74-1.66-0.77
		C143.15,569.46,142.59,569.67,142.11,570.13z"/>
	<path class="st0" d="M138.36,647.41c2.22-2.15,3.41-5.35,3.59-9.61l2.1-51.51l-2.29-0.09l-2.1,51.51
		c-0.14,3.43-1.09,6.06-2.86,7.87s-4.24,2.66-7.41,2.53c-1.33-0.06-2.67-0.36-4.01-0.93l-0.22,2.21c1.37,0.62,2.75,0.96,4.13,1.02
		C133.13,650.56,136.14,649.56,138.36,647.41z"/>
	<path class="st0" d="M188.12,627.58l-1.57-1.21c-1.76,2.07-3.75,3.58-5.96,4.52c-2.21,0.94-4.86,1.35-7.95,1.22
		c-3.24-0.13-6.2-1.16-8.89-3.08c-2.69-1.92-4.76-4.51-6.2-7.76c-1.44-3.25-2.09-6.74-1.93-10.48l0.1-2.51l34.49,1.41l0.1-2.42
		c0.24-5.96-1.19-10.83-4.3-14.62c-3.12-3.79-7.23-5.79-12.36-6c-3.51-0.15-6.81,0.72-9.86,2.58c-3.06,1.87-5.51,4.53-7.36,8.01
		c-1.85,3.48-2.86,7.34-3.03,11.6l-0.07,1.91c-0.18,4.25,0.55,8.16,2.16,11.72c1.62,3.56,3.94,6.4,6.96,8.53s6.39,3.26,10.11,3.41
		C179.29,634.68,184.49,632.41,188.12,627.58z M161.94,593.48c3.26-3.21,7.12-4.72,11.61-4.53c2.87,0.12,5.42,0.97,7.68,2.55
		c2.25,1.58,3.98,3.75,5.19,6.47c1.21,2.74,1.75,5.66,1.62,8.78l-0.02,0.55l-32.07-1.31C156.69,600.85,158.69,596.68,161.94,593.48z
		"/>
	<path class="st0" d="M197.82,610.94c0.27-6.57,1.93-11.66,4.98-15.24c3.06-3.58,7.15-5.27,12.28-5.06
		c4.28,0.18,7.72,1.57,10.33,4.19c2.61,2.62,3.92,6,3.95,10.15l2.29,0.09c0-4.85-1.53-8.81-4.59-11.86
		c-3.06-3.05-7.03-4.68-11.9-4.87c-5.7-0.23-10.33,1.66-13.89,5.7c-3.56,4.03-5.48,9.53-5.76,16.51l-0.06,1.54
		c-0.3,7.15,1.17,12.87,4.39,17.18c3.22,4.31,7.7,6.57,13.46,6.82c4.73,0.19,8.76-1,12.08-3.58c3.31-2.58,5.18-6.08,5.59-10.53
		l-2.29-0.09c-0.42,3.9-2.03,6.91-4.82,9.01c-2.8,2.1-6.28,3.07-10.45,2.89c-5.13-0.21-9.09-2.21-11.87-6
		c-2.78-3.79-4.05-8.91-3.78-15.34L197.82,610.94z"/>
	<path class="st0" d="M256.47,635.14c-1.79,0.18-3.32,0.25-4.57,0.19c-2.5-0.1-4.24-0.95-5.24-2.56c-1-1.61-1.43-4.04-1.3-7.31
		l1.33-32.7l10.47,0.43l0.09-2.29l-10.47-0.43l0.51-12.42l-2.34-0.09l-0.51,12.42l-8.51-0.35l-0.09,2.29l8.51,0.35l-1.35,32.99
		c-0.14,4,0.48,6.96,1.85,8.89c1.37,1.91,3.73,2.95,7.07,3.08c2.27,0.09,3.87-0.01,4.83-0.31L256.47,635.14z"/>

		<rect x="270.45" y="599.22" transform="matrix(0.0408 -0.9992 0.9992 0.0408 -348.1942 855.7451)" class="st0" width="2.3" height="20.01"/>
	<path class="st0" d="M306.66,639.88c5.33,0.22,9.63-1.72,12.89-5.83c3.26-4.1,5.04-9.74,5.34-16.91l0.03-0.72
		c0.31-7.45-1.01-13.32-3.93-17.56c-2.92-4.25-7.07-6.49-12.47-6.7c-3.49-0.14-6.59,0.51-9.3,1.96c-2.72,1.45-4.94,3.66-6.69,6.63
		l1.13-27.69l-2.29-0.09l-2.66,65.33l2.29,0.09l0.3-7.28c1.45,2.62,3.51,4.7,6.18,6.24C300.14,638.89,303.2,639.73,306.66,639.88z
		 M291.47,626.73l0.86-21.09c1.38-3.87,3.45-6.73,6.2-8.61c2.76-1.88,6.07-2.74,9.92-2.58c4.71,0.19,8.29,2.21,10.76,6.04
		c2.47,3.84,3.57,9.05,3.3,15.66c-0.3,7.15-1.8,12.55-4.54,16.22c-2.74,3.66-6.47,5.4-11.21,5.21c-3.91-0.16-7.18-1.18-9.78-3.06
		C294.41,632.64,292.56,630.04,291.47,626.73z"/>
	<path class="st0" d="M366.8,608.75c0.1-4.51-1.26-8.06-4.08-10.67c-2.82-2.6-6.71-4-11.67-4.21c-4.76-0.19-8.84,0.94-12.24,3.42
		c-3.39,2.48-5.17,5.59-5.33,9.33l2.29,0.18c0.13-3.17,1.65-5.78,4.54-7.82c2.89-2.04,6.45-2.98,10.63-2.8
		c4.51,0.18,7.93,1.39,10.27,3.62c2.34,2.23,3.43,5.27,3.27,9.13l-0.28,6.72l-11.36-0.46c-6.33-0.2-11.45,0.89-15.37,3.27
		s-5.96,5.69-6.13,9.91c-0.15,3.72,1.03,6.78,3.52,9.2c2.5,2.41,5.88,3.71,10.13,3.88c3.97,0.17,7.56-0.5,10.77-1.99
		c3.22-1.49,5.79-3.67,7.72-6.55c-0.15,3.66,0.02,6.47,0.51,8.45l2.64,0.11l0.02-0.38c-0.72-1.85-0.98-5.3-0.77-10.34L366.8,608.75z
		 M363.68,628.87c-1.7,3.42-4.14,6.04-7.32,7.84c-3.18,1.8-6.94,2.62-11.24,2.44c-3.43-0.14-6.22-1.23-8.39-3.28
		c-2.16-2.04-3.18-4.48-3.07-7.29c0.13-3.17,1.66-5.77,4.58-7.78c3.6-2.47,8.68-3.57,15.26-3.3l10.63,0.43L363.68,628.87z"/>
	<path class="st0" d="M384.4,600.19c2.42-1.66,5.65-2.41,9.68-2.25c4.2,0.18,7.55,1.35,10.08,3.52c2.52,2.17,3.73,4.81,3.6,7.9
		l2.34,0.09c0.17-4.02-1.21-7.29-4.11-9.77c-2.91-2.49-6.84-3.84-11.81-4.04c-4.57-0.18-8.31,0.76-11.25,2.82
		c-2.94,2.07-4.48,4.79-4.61,8.17c-0.14,3.35,0.88,6.02,3.04,8.03c2.16,2.01,6.08,3.74,11.76,5.19c9.44,2.4,14.06,6.4,13.82,11.98
		c-0.11,2.72-1.49,4.98-4.13,6.8s-6.02,2.63-10.13,2.46c-4.48-0.18-8-1.23-10.54-3.13c-2.55-1.9-3.87-4.48-3.97-7.72l-2.29-0.09
		c-0.15,3.69,1.3,6.76,4.37,9.23s7.18,3.81,12.34,4.02c4.82,0.19,8.77-0.75,11.84-2.84c3.07-2.09,4.68-4.95,4.83-8.58
		c0.09-2.35-0.32-4.36-1.25-6.04c-0.92-1.67-2.47-3.14-4.63-4.43c-2.16-1.29-5.12-2.44-8.89-3.48c-3.76-1.04-6.62-2.06-8.56-3.1
		c-1.94-1.03-3.34-2.15-4.16-3.37c-0.83-1.21-1.2-2.86-1.12-4.92C380.7,604,381.97,601.85,384.4,600.19z"/>
	<path class="st0" d="M436.86,597.39c-3.51-0.15-6.81,0.72-9.86,2.58c-3.06,1.87-5.51,4.53-7.36,8.01
		c-1.85,3.48-2.86,7.34-3.03,11.6l-0.07,1.91c-0.18,4.25,0.55,8.16,2.16,11.72s3.94,6.4,6.96,8.53s6.39,3.26,10.11,3.41
		c6.75,0.28,11.94-2,15.57-6.82l-1.57-1.21c-1.76,2.07-3.75,3.58-5.96,4.52s-4.86,1.35-7.95,1.22c-3.24-0.13-6.2-1.16-8.89-3.08
		c-2.69-1.92-4.76-4.51-6.2-7.76c-1.44-3.25-2.09-6.74-1.93-10.48l0.1-2.51l34.49,1.41l0.1-2.42c0.24-5.96-1.19-10.83-4.3-14.62
		C446.11,599.6,441.99,597.59,436.86,597.39z M451.26,617.48l-0.02,0.55l-32.07-1.31c0.75-5.14,2.76-9.31,6.01-12.51
		c3.25-3.21,7.12-4.72,11.61-4.53c2.87,0.12,5.42,0.97,7.68,2.55c2.25,1.58,3.98,3.75,5.19,6.47
		C450.84,611.44,451.38,614.37,451.26,617.48z"/>
	<path class="st0" d="M493.34,609.02c-1.52-3.15-3.57-5.57-6.16-7.24c-2.59-1.66-5.61-2.57-9.07-2.71
		c-5.39-0.22-9.71,1.67-12.97,5.67c-3.26,4-5.04,9.67-5.34,17.01l-0.03,0.59c-0.31,7.37,1.01,13.23,3.93,17.59
		c2.92,4.36,7.05,6.64,12.37,6.85c3.46,0.14,6.58-0.45,9.36-1.77c2.78-1.32,5-3.26,6.67-5.8l-0.3,7.36l2.29,0.09l2.66-65.33
		l-2.29-0.09L493.34,609.02z M492.28,635.18c-1.43,3.21-3.54,5.6-6.3,7.18c-2.76,1.58-6.05,2.28-9.84,2.14
		c-4.73-0.19-8.31-2.24-10.75-6.12c-2.42-3.89-3.5-9.1-3.24-15.62c0.3-7.23,1.83-12.65,4.61-16.26c2.77-3.61,6.52-5.32,11.23-5.12
		c7.8,0.31,12.85,4.4,15.17,12.25L492.28,635.18z"/>

		<rect x="45.41" y="679.09" transform="matrix(0.0408 -0.9992 0.9992 0.0408 -606.1868 728.9331)" class="st0" width="62.3" height="2.19"/>
	<path class="st0" d="M105.44,667.79c-3.35-0.14-6.48,0.68-9.4,2.46s-5.25,4.32-7.01,7.63s-2.72,6.99-2.89,11.04l-0.07,1.82
		c-0.17,4.05,0.52,7.78,2.06,11.16c1.54,3.39,3.75,6.1,6.63,8.13s6.09,3.11,9.63,3.26c6.43,0.26,11.37-1.9,14.84-6.5l-1.5-1.16
		c-1.67,1.98-3.57,3.41-5.68,4.31c-2.11,0.9-4.63,1.29-7.57,1.17c-3.08-0.13-5.9-1.1-8.46-2.94c-2.56-1.83-4.53-4.3-5.91-7.39
		c-1.38-3.1-1.99-6.43-1.85-9.99l0.1-2.39l32.86,1.34l0.09-2.31c0.23-5.68-1.14-10.32-4.1-13.93
		C114.26,669.9,110.33,667.99,105.44,667.79z M119.15,686.94l-0.02,0.53l-30.55-1.25c0.71-4.89,2.62-8.87,5.72-11.92
		c3.1-3.05,6.79-4.49,11.05-4.32c2.73,0.11,5.17,0.92,7.31,2.43c2.15,1.51,3.79,3.56,4.95,6.17
		C118.76,681.18,119.27,683.97,119.15,686.94z"/>
	<path class="st0" d="M159.39,683.55c0.09-4.3-1.2-7.68-3.88-10.16c-2.69-2.48-6.39-3.81-11.12-4c-4.54-0.18-8.42,0.9-11.66,3.26
		c-3.24,2.36-4.93,5.32-5.07,8.89l2.18,0.17c0.12-3.02,1.56-5.51,4.32-7.45s6.14-2.84,10.13-2.67c4.3,0.18,7.55,1.32,9.78,3.44
		c2.23,2.12,3.26,5.02,3.12,8.69l-0.26,6.4l-10.82-0.44c-6.03-0.19-10.9,0.85-14.64,3.12c-3.74,2.27-5.68,5.42-5.84,9.44
		c-0.15,3.54,0.97,6.46,3.36,8.77c2.39,2.3,5.6,3.53,9.65,3.7c3.78,0.16,7.2-0.48,10.26-1.9c3.06-1.41,5.51-3.5,7.36-6.23
		c-0.14,3.49,0.02,6.17,0.48,8.05l2.52,0.1l0.02-0.36c-0.68-1.76-0.93-5.04-0.73-9.86L159.39,683.55z M156.41,702.71
		c-1.62,3.26-3.95,5.75-6.98,7.47c-3.03,1.72-6.6,2.49-10.71,2.32c-3.27-0.13-5.94-1.17-7.99-3.13c-2.06-1.95-3.03-4.26-2.92-6.94
		c0.12-3.02,1.58-5.49,4.36-7.42c3.42-2.35,8.27-3.39,14.54-3.14l10.13,0.42L156.41,702.71z"/>
	<path class="st0" d="M179.4,673.48c-2.45,1.68-4.33,4.03-5.64,7.04l0.37-9.12l-2.19-0.09l-1.78,43.85l2.19,0.09l1.17-28.7
		c0.96-4.31,2.75-7.63,5.35-9.94c2.61-2.31,5.78-3.39,9.51-3.25l2.83,0.36l0.32-1.97c-0.77-0.33-1.79-0.53-3.06-0.58
		C184.86,671.03,181.85,671.8,179.4,673.48z"/>
	<path class="st0" d="M215.4,672.28c-3.38-0.14-6.5,0.72-9.36,2.58c-2.87,1.86-5.08,4.46-6.65,7.8l0.42-10.21l-2.19-0.09
		l-1.78,43.85l2.19,0.09l1.15-28.06c1.15-4.2,3.15-7.58,6.04-10.15c2.88-2.57,6.2-3.78,10-3.62c4.11,0.17,7.06,1.41,8.86,3.75
		c1.8,2.33,2.62,5.84,2.45,10.54l-1.17,28.67l2.19,0.09l1.17-28.61c0.19-5.37-0.8-9.44-2.97-12.2
		C223.54,673.95,220.11,672.47,215.4,672.28z"/>

		<rect x="219.79" y="695.04" transform="matrix(0.0408 -0.9992 0.9992 0.0408 -463.6905 909.2645)" class="st0" width="43.89" height="2.19"/>
	<path class="st0" d="M243.24,658.23c-0.62-0.03-1.16,0.18-1.61,0.6c-0.45,0.43-0.68,0.95-0.71,1.57s0.17,1.16,0.58,1.61
		c0.42,0.45,0.93,0.68,1.55,0.71c0.62,0.03,1.17-0.17,1.63-0.58s0.71-0.93,0.73-1.55c0.03-0.62-0.18-1.17-0.6-1.63
		C244.39,658.5,243.86,658.25,243.24,658.23z"/>
	<path class="st0" d="M273.79,674.66c-3.38-0.14-6.5,0.72-9.36,2.58c-2.87,1.86-5.08,4.46-6.65,7.8l0.42-10.21l-2.19-0.09
		l-1.79,43.85l2.19,0.09l1.15-28.06c1.15-4.2,3.15-7.58,6.04-10.15c2.88-2.57,6.2-3.78,10-3.62c4.11,0.17,7.06,1.41,8.86,3.75
		c1.8,2.33,2.62,5.84,2.45,10.54l-1.17,28.67l2.19,0.09l1.17-28.61c0.19-5.37-0.8-9.44-2.97-12.2
		C281.92,676.32,278.48,674.85,273.79,674.66z"/>
	<path class="st0" d="M328.32,685.74c-1.42-2.95-3.38-5.23-5.85-6.83c-2.48-1.6-5.35-2.47-8.62-2.61c-5.13-0.21-9.26,1.59-12.35,5.4
		c-3.11,3.81-4.8,9.22-5.09,16.21l-0.03,0.56c-0.29,7.03,0.96,12.61,3.75,16.76s6.71,6.33,11.79,6.53c3.26,0.13,6.22-0.42,8.86-1.65
		c2.64-1.23,4.76-3.06,6.37-5.48l-0.28,6.71c-0.29,4.98-1.74,8.79-4.36,11.43c-2.63,2.64-6.2,3.86-10.71,3.67
		c-2.73-0.11-5.09-0.78-7.06-2.01c-1.98-1.23-3.77-2.95-5.39-5.18l-1.6,1.4c1.63,2.45,3.64,4.36,6.04,5.74
		c2.4,1.37,5.06,2.12,8.01,2.24c5.1,0.21,9.21-1.26,12.32-4.39c3.11-3.13,4.77-7.59,5.01-13.37l1.76-43.07l-2.23-0.09L328.32,685.74
		z M327.32,710.37c-1.21,3.06-3.14,5.4-5.81,7.01c-2.66,1.61-5.84,2.34-9.54,2.19c-4.48-0.18-7.9-2.12-10.24-5.8
		c-2.34-3.68-3.38-8.66-3.13-14.92c0.28-6.89,1.75-12.05,4.38-15.49c2.64-3.44,6.22-5.07,10.74-4.88
		c7.54,0.31,12.34,4.31,14.41,11.99L327.32,710.37z"/>
	<path class="st0" d="M27.78,459.76c3.4,1.73,7.14,2.41,11.21,2.05s7.62-1.71,10.66-4.05c3.04-2.34,5.27-5.41,6.69-9.22
		s1.93-8.04,1.52-12.67l-0.19-2.14c-0.43-4.57-1.72-8.6-3.85-12.1c-2.13-3.5-4.88-6.09-8.27-7.8s-7.1-2.38-11.14-2.02
		c-4.07,0.36-7.63,1.71-10.66,4.05c-3.04,2.34-5.28,5.42-6.72,9.25c-1.44,3.83-1.95,8.05-1.54,12.65l0.19,2.14
		c0.43,4.54,1.71,8.55,3.82,12.03C21.62,455.43,24.37,458.03,27.78,459.76z M18.08,439.43L17.95,438
		c-0.56-6.35,0.69-11.78,3.8-16.28c3.1-4.5,7.4-6.99,12.89-7.49c3.6-0.32,6.89,0.33,9.9,1.97c3.01,1.64,5.46,4.06,7.36,7.27
		c1.9,3.22,3.03,6.8,3.38,10.75l0.12,1.38c0.58,6.5-0.68,11.98-3.76,16.41c-3.09,4.44-7.39,6.91-12.88,7.4
		c-3.65,0.32-6.98-0.31-9.99-1.93s-5.45-4.02-7.34-7.22C19.56,447.05,18.43,443.44,18.08,439.43z"/>
	<path class="st0" d="M72.85,454.14c2.9,2.84,6.98,4.02,12.24,3.55c4.19-0.37,7.58-1.46,10.17-3.26c2.59-1.8,4.48-4.11,5.67-6.91
		l0.69,7.8l2.45-0.22l-4.31-48.21l-2.45,0.22l3.03,33.91c-0.4,4.25-1.94,7.6-4.62,10.02c-2.69,2.42-6.33,3.85-10.94,4.25
		c-4.34,0.39-7.75-0.63-10.25-3.06c-2.5-2.42-3.99-6.2-4.51-11.3l-2.78-31.14l-2.4,0.21l2.77,31.05
		C68.2,446.94,69.95,451.3,72.85,454.14z"/>
	<path class="st0" d="M106.93,408.67l8.91-0.8l3.09,34.57c0.41,4.19,1.45,7.19,3.14,9.01c1.69,1.81,4.28,2.56,7.8,2.25
		c2.38-0.21,4.04-0.54,4.98-0.99l-0.6-2.24c-1.85,0.43-3.42,0.71-4.73,0.82c-2.62,0.23-4.55-0.42-5.81-1.95s-2.04-4.01-2.35-7.43
		l-3.06-34.25l10.96-0.98l-0.21-2.4l-10.96,0.98l-1.17-13.01l-2.45,0.22l1.17,13.01l-8.91,0.8L106.93,408.67z"/>
	<path class="st0" d="M160.02,451c4.96-0.44,8.99-2.24,12.1-5.37c3.11-3.13,4.57-7.05,4.38-11.73l-2.4,0.21
		c0.1,4.12-1.17,7.47-3.79,10.04c-2.63,2.57-6.13,4.05-10.5,4.44c-5.37,0.48-9.77-1.06-13.2-4.63c-3.42-3.57-5.43-8.73-6.03-15.47
		l-0.14-1.56c-0.62-6.89,0.43-12.41,3.13-16.56s6.73-6.46,12.11-6.94c4.48-0.4,8.27,0.58,11.34,2.96c3.07,2.38,4.9,5.72,5.5,10.04
		l2.4-0.21c-0.67-5.06-2.79-8.97-6.39-11.73c-3.6-2.76-7.95-3.91-13.07-3.46c-5.97,0.54-10.53,3.14-13.7,7.82
		c-3.16,4.69-4.41,10.68-3.75,17.99l0.15,1.6c0.67,7.48,2.98,13.25,6.92,17.3C149,449.78,153.99,451.53,160.02,451z"/>
	<path class="st0" d="M205.19,446.96c4.07-0.36,7.62-1.71,10.66-4.05c3.04-2.34,5.27-5.41,6.69-9.22c1.42-3.81,1.93-8.04,1.52-12.67
		l-0.19-2.14c-0.43-4.57-1.72-8.6-3.85-12.1s-4.88-6.09-8.27-7.8c-3.38-1.7-7.1-2.38-11.14-2.02c-4.07,0.36-7.63,1.71-10.66,4.05
		c-3.04,2.34-5.28,5.42-6.72,9.25s-1.95,8.05-1.54,12.65l0.19,2.14c0.43,4.54,1.71,8.55,3.82,12.03c2.11,3.48,4.86,6.08,8.27,7.81
		C197.39,446.63,201.12,447.32,205.19,446.96z M194.99,442.61c-3.01-1.62-5.45-4.02-7.34-7.22c-1.89-3.2-3.01-6.81-3.37-10.82
		l-0.13-1.42c-0.56-6.35,0.69-11.78,3.8-16.28c3.1-4.5,7.4-6.99,12.89-7.49c3.6-0.32,6.9,0.33,9.9,1.97
		c3.01,1.64,5.46,4.06,7.36,7.27c1.9,3.22,3.03,6.8,3.38,10.75l0.12,1.38c0.58,6.5-0.68,11.98-3.76,16.41
		c-3.09,4.44-7.39,6.91-12.88,7.4C201.32,444.88,198,444.23,194.99,442.61z"/>
	<path class="st0" d="M234.77,412.72c0.35-3.44,1.4-6.65,3.13-9.62c2.94-4.96,7.06-7.68,12.34-8.15c4.58-0.41,8.02,0.47,10.32,2.64
		c2.3,2.17,3.69,5.68,4.15,10.51l2.89,32.37l2.4-0.21l-2.87-32.06c-0.05-2.48,0.8-5.12,2.52-7.94c3.01-4.87,7.43-7.62,13.28-8.23
		c4.54-0.46,7.98,0.47,10.34,2.82c2.35,2.35,3.76,6.16,4.24,11.45l2.79,31.25l2.4-0.21l-2.81-31.46
		c-0.55-5.88-2.24-10.17-5.04-12.89c-2.8-2.71-6.81-3.84-12-3.38c-3.98,0.35-7.48,1.71-10.5,4.06c-3.02,2.35-5.1,5.33-6.2,8.93
		c-1.17-3.97-3.11-6.73-5.83-8.29c-2.73-1.55-6.11-2.15-10.15-1.78c-3.68,0.33-6.94,1.7-9.78,4.11s-4.9,5.65-6.19,9.72l-1.02-11.41
		l-2.45,0.22l4.31,48.21l2.45-0.22L234.77,412.72z"/>
	<path class="st0" d="M347.77,426.34l-1.8-1.05c-1.55,2.39-3.41,4.24-5.59,5.52c-2.17,1.28-4.88,2.06-8.12,2.36
		c-3.38,0.31-6.61-0.36-9.68-2.01c-3.07-1.64-5.58-4.05-7.52-7.24c-1.95-3.19-3.1-6.74-3.45-10.65l-0.23-2.63l36.14-3.23l-0.23-2.54
		c-0.55-6.24-2.72-11.12-6.47-14.65s-8.32-5.05-13.7-4.57c-3.68,0.33-6.99,1.67-9.92,4.03c-2.93,2.36-5.12,5.47-6.57,9.35
		c-1.45,3.87-1.98,8.04-1.58,12.49l0.18,2.01c0.4,4.46,1.68,8.42,3.85,11.92c2.16,3.49,4.97,6.13,8.41,7.93
		c3.44,1.8,7.1,2.53,10.99,2.18C339.54,434.94,344.65,431.86,347.77,426.34z M315.85,394.37c2.96-3.78,6.78-5.88,11.48-6.31
		c3-0.27,5.78,0.27,8.34,1.61s4.66,3.36,6.29,6.04c1.64,2.68,2.6,5.66,2.89,8.92l0.06,0.58l-33.59,3.01
		C311.38,402.77,312.9,398.15,315.85,394.37z"/>
	<path class="st0" d="M389.84,417.69c-0.22-2.47-0.92-4.5-2.12-6.12c-1.19-1.62-3.01-2.94-5.43-3.99c-2.43-1.04-5.68-1.84-9.74-2.4
		c-4.06-0.56-7.18-1.25-9.35-2.06c-2.17-0.8-3.77-1.78-4.8-2.94c-1.04-1.15-1.65-2.81-1.84-4.97c-0.25-2.76,0.78-5.18,3.08-7.24
		s5.56-3.28,9.77-3.66c4.39-0.4,8.05,0.37,10.99,2.29c2.92,1.92,4.53,4.5,4.83,7.74l2.45-0.22c-0.38-4.22-2.25-7.43-5.62-9.63
		s-7.66-3.07-12.85-2.6c-4.78,0.43-8.56,1.91-11.35,4.48c-2.78,2.55-4.01,5.59-3.7,9.14c0.31,3.5,1.73,6.16,4.26,7.95
		c2.52,1.79,6.84,3.06,12.96,3.8c10.17,1.22,15.52,4.75,16.03,10.61c0.26,2.85-0.87,5.4-3.38,7.65c-2.51,2.25-5.92,3.56-10.23,3.95
		c-4.7,0.42-8.5-0.19-11.41-1.83c-2.91-1.64-4.64-4.14-5.19-7.51l-2.4,0.21c0.34,3.87,2.28,6.87,5.82,9.03
		c3.53,2.15,8,2.99,13.41,2.51c5.05-0.45,9.03-1.98,11.94-4.57C388.89,424.69,390.18,421.49,389.84,417.69z"/>
	<path class="st0" d="M34.37,345.1c3.4,2.42,9.23,4.13,17.48,5.13c13.71,1.64,20.92,6.41,21.63,14.3c0.34,3.85-1.17,7.28-4.56,10.31
		c-3.38,3.02-7.98,4.8-13.79,5.32c-6.33,0.56-11.46-0.26-15.39-2.47s-6.26-5.59-6.99-10.13l-3.25,0.29
		c0.46,5.21,3.08,9.27,7.84,12.17c4.76,2.9,10.78,4.03,18.08,3.38c6.81-0.61,12.18-2.66,16.1-6.16c3.93-3.5,5.66-7.81,5.2-12.94
		c-0.3-3.32-1.25-6.08-2.86-8.25s-4.05-3.97-7.32-5.37s-7.65-2.49-13.13-3.25c-5.47-0.76-9.68-1.68-12.6-2.78
		c-2.92-1.09-5.08-2.41-6.47-3.97c-1.39-1.55-2.22-3.79-2.48-6.71c-0.33-3.73,1.05-6.97,4.15-9.76c3.1-2.78,7.5-4.42,13.19-4.93
		c5.93-0.53,10.87,0.5,14.81,3.1c3.95,2.6,6.11,6.08,6.5,10.44l3.3-0.3c-0.51-5.69-3.03-10.01-7.58-12.97
		c-4.54-2.97-10.32-4.13-17.33-3.5c-6.45,0.57-11.55,2.59-15.29,6.03c-3.75,3.44-5.41,7.55-4.98,12.32
		C29.04,339.1,30.96,342.68,34.37,345.1z"/>
	<path class="st0" d="M92.85,295.63l-3.3,0.3l1.57,17.54l-12.01,1.07l0.29,3.25l12.01-1.07l4.17,46.61
		c0.55,5.65,1.96,9.69,4.24,12.14c2.27,2.44,5.78,3.45,10.5,3.03c3.2-0.29,5.45-0.73,6.72-1.33l-0.81-3.01
		c-2.49,0.58-4.61,0.96-6.38,1.12c-3.52,0.31-6.14-0.56-7.83-2.64c-1.7-2.07-2.76-5.41-3.16-10.02l-4.13-46.18l14.78-1.32
		l-0.29-3.25l-14.78,1.32L92.85,295.63z"/>
	<path class="st0" d="M133.56,370.14c3.91,3.83,9.41,5.43,16.51,4.79c5.65-0.51,10.22-1.97,13.71-4.4s6.05-5.54,7.65-9.31
		l0.94,10.51l3.3-0.3l-5.81-65l-3.3,0.3l4.09,45.72c-0.54,5.74-2.62,10.25-6.24,13.52s-8.54,5.19-14.75,5.74
		c-5.84,0.53-10.45-0.85-13.82-4.12c-3.36-3.27-5.39-8.35-6.08-15.23l-3.75-41.99l-3.25,0.29l3.75,41.87
		C127.29,360.43,129.64,366.31,133.56,370.14z"/>
	<path class="st0" d="M191.49,312.1c-3.85,6.21-5.3,14.51-4.37,24.88l0.07,0.84c0.93,10.41,3.85,18.41,8.75,23.99
		c4.9,5.58,11.12,8.03,18.64,7.35c4.88-0.43,9.16-1.84,12.83-4.21s6.44-5.49,8.3-9.37l0.92,10.39l3.25-0.29l-8.25-92.28l-3.25,0.29
		l3.5,39.23c-2.71-4.16-6.04-7.17-9.98-9.03c-3.94-1.87-8.36-2.58-13.24-2.15C201.06,302.42,195.32,305.87,191.49,312.1z
		 M208.9,304.99c11.01-0.98,18.87,3.82,23.57,14.43l2.72,30.46c-1.43,4.77-3.94,8.52-7.54,11.24c-3.59,2.73-8.07,4.33-13.44,4.81
		c-6.69,0.6-12.1-1.61-16.22-6.63c-4.12-5.02-6.59-12.13-7.42-21.35c-0.92-10.21,0.25-18.11,3.49-23.68
		C197.3,308.67,202.25,305.59,208.9,304.99z"/>
	<path class="st0" d="M251.34,313.97c-1.95,5.22-2.66,10.84-2.13,16.84l0.24,2.7c0.54,6.01,2.27,11.36,5.19,16.07
		c2.92,4.71,6.7,8.28,11.35,10.7c4.64,2.43,9.58,3.41,14.82,2.94c9.53-0.85,16.4-5,20.63-12.44l-2.43-1.41
		c-2.09,3.24-4.61,5.71-7.54,7.44s-6.58,2.78-10.95,3.17c-4.57,0.41-8.91-0.49-13.05-2.7c-4.13-2.21-7.51-5.47-10.13-9.76
		c-2.63-4.3-4.17-9.09-4.64-14.36l-0.31-3.54l48.72-4.36l-0.31-3.42c-0.75-8.41-3.66-14.99-8.73-19.75
		c-5.07-4.75-11.23-6.81-18.48-6.16c-4.97,0.44-9.42,2.26-13.38,5.44C256.25,304.56,253.3,308.76,251.34,313.97z M273.88,299.19
		c4.04-0.36,7.8,0.36,11.24,2.17c3.45,1.81,6.28,4.52,8.48,8.15c2.2,3.62,3.5,7.63,3.89,12.04l0.07,0.78l-45.29,4.05
		c0.11-7.36,2.15-13.58,6.14-18.69C262.4,302.58,267.55,299.75,273.88,299.19z"/>
	<path class="st0" d="M336.66,290.3c-5,0.44-9.44,2.32-13.31,5.61c-3.87,3.29-6.63,7.55-8.3,12.79l-1.35-15.14l-3.25,0.29l5.81,65
		l3.25-0.29l-3.72-41.59c0.88-6.41,3.19-11.79,6.94-16.14c3.75-4.35,8.42-6.77,14.04-7.28c6.08-0.55,10.68,0.73,13.79,3.82
		c3.1,3.09,4.98,8.12,5.65,15.07l3.8,42.49l3.25-0.29l-3.79-42.42c-0.75-7.96-3-13.77-6.73-17.41
		C348.98,291.19,343.63,289.68,336.66,290.3z"/>
	<path class="st0" d="M378.97,291l4.17,46.61c0.55,5.65,1.96,9.69,4.24,12.14c2.27,2.44,5.78,3.45,10.5,3.03
		c3.2-0.29,5.45-0.73,6.72-1.33l-0.81-3.01c-2.49,0.58-4.61,0.96-6.38,1.12c-3.52,0.31-6.14-0.56-7.83-2.64
		c-1.7-2.07-2.76-5.41-3.16-10.02l-4.13-46.18l14.78-1.32l-0.29-3.25L382,287.47l-1.57-17.54l-3.3,0.3l1.57,17.54l-12.01,1.07
		l0.29,3.25L378.97,291z"/>
</g>
</svg>
