<?xml version="1.0" encoding="utf-8"?>
<!-- Generator: Adobe Illustrator 24.1.0, SVG Export Plug-In . SVG Version: 6.00 Build 0)  -->
<svg version="1.1" id="Layer_1" xmlns="http://www.w3.org/2000/svg" xmlns:xlink="http://www.w3.org/1999/xlink" x="0px" y="0px"
	 viewBox="0 0 630 240" style="enable-background:new 0 0 630 240;" xml:space="preserve">
<style type="text/css">
	.st0{opacity:0.4;}
	.st1{fill:#310E3F;}
	.st2{fill:#E0BDAE;}
	.st3{fill:#91ABB1;}
	.st4{fill:#8A3E6E;}
	.st5{fill:#FCF065;}
	.st6{fill:#EB519B;}
	.st7{fill:#FFFFFF;}
	.st8{fill:#A9DFF6;}
	.st9{fill:#2F141A;}
	.st10{fill:#D28ABB;}
	.st11{fill:#50B748;}
	.st12{fill:#CBAC94;}
	.st13{fill:#443E39;}
	.st14{fill:#E4A2AC;}
	.st15{fill:#E5B829;}
	.st16{opacity:0.25;}
	.st17{fill:#0B8266;}
</style>
<g>
	<path d="M344.877,63.22l-0.033-0.031c-2.412-2.128-5.133-3.772-8.085-4.895c-5.907-2.235-12.045-2.235-17.95,0
		c-2.958,1.12-5.635,2.771-7.962,4.908c-2.427,2.242-4.395,5.078-5.845,8.428c-1.45,3.344-2.184,7.239-2.184,11.574v55.16
		c0,4.531,0.738,8.48,2.191,11.732c1.455,3.255,3.427,5.994,5.825,8.107c2.327,2.244,5.013,3.949,7.978,5.071
		c2.947,1.113,5.97,1.682,8.975,1.682c3.005,0,6.026-0.567,8.977-1.682c2.958-1.12,5.684-2.822,8.103-5.053
		c2.336-2.146,4.254-4.879,5.704-8.125c1.452-3.253,2.191-7.201,2.191-11.732v-55.16c0-4.332-0.736-8.228-2.184-11.574
		C349.12,68.294,347.206,65.462,344.877,63.22z M336.355,83.207v55.16c0,3.286-0.846,5.707-2.512,7.199
		c-1.722,1.544-3.706,2.296-6.064,2.296c-2.358,0-4.341-0.752-6.064-2.298c-1.666-1.488-2.51-3.909-2.51-7.197v-55.16
		c0-3.286,0.846-5.707,2.51-7.197c1.724-1.544,3.706-2.296,6.064-2.296c2.358,0,4.339,0.752,6.064,2.293
		C335.512,77.505,336.355,79.926,336.355,83.207z"/>
	<polygon points="352.246,73.717 368.739,73.717 368.739,164.085 385.134,164.085 385.134,73.717 401.627,73.717 401.627,57.494 
		352.246,57.494 	"/>
	<rect x="404.059" y="57.494" width="16.393" height="106.589"/>
	<path d="M463.607,58.767c-3.065-1.428-6.483-2.153-10.166-2.153c-4.337,0-8.145,0.803-11.311,2.387
		c-3.163,1.584-5.803,3.737-7.828,6.374c-2.135,2.641-3.752,5.827-4.81,9.466c-1.049,3.598-1.579,7.451-1.579,11.449
		c0,6.684,1.093,12.346,3.25,16.821c2.2,4.571,6.546,8.274,12.908,11.005l10.193,4.397c1.716,0.759,3.101,1.475,4.121,2.126
		c0.93,0.593,1.684,1.368,2.211,2.231c0.493,0.953,0.834,2.258,1.008,3.875c0.181,1.722,0.274,3.955,0.274,6.637
		c0,2.291-0.069,4.411-0.207,6.302c-0.129,1.745-0.533,3.253-1.202,4.482c-0.647,1.194-1.535,2.086-2.711,2.724
		c-1.196,0.645-2.927,0.97-5.153,0.97c-3.293,0-5.544-0.933-6.88-2.844c-1.423-2.037-2.113-4.259-2.113-6.795v-5.767h-16.393v6.646
		c0,3.652,0.663,7.074,1.97,10.171c1.303,3.09,3.09,5.841,5.31,8.17c2.24,2.351,4.946,4.212,8.045,5.528
		c3.099,1.321,6.485,1.992,10.064,1.992c4.705,0,8.77-0.828,12.076-2.456c3.313-1.637,6.032-3.922,8.085-6.8
		c1.936-2.737,3.355-6.102,4.225-9.992c0.852-3.833,1.285-8.034,1.285-12.482c0-3.81-0.19-7.284-0.569-10.331
		c-0.388-3.076-1.115-5.863-2.2-8.335c-1.176-2.365-2.813-4.475-4.866-6.271c-2.037-1.783-4.725-3.349-7.978-4.656l-10.9-4.547
		c-1.776-0.745-3.184-1.492-4.185-2.226c-0.933-0.678-1.649-1.492-2.126-2.414c-0.495-0.957-0.81-2.059-0.935-3.286
		c-0.134-1.334-0.205-3.025-0.205-5.026c0-1.693,0.134-3.337,0.406-4.881c0.254-1.481,0.727-2.818,1.381-3.935
		c0.667-1.051,1.524-1.903,2.617-2.61c1.026-0.665,2.432-1.002,4.167-1.002c3.268,0,5.508,1.057,6.847,3.233
		c1.426,2.309,2.151,5.107,2.151,8.312v4.444h16.395v-8.406c0-6.307-2.258-11.98-6.726-16.875
		C469.322,62.092,466.65,60.189,463.607,58.767z"/>
	<path d="M308.809,182.145c-1.423,1.499-2.133,3.641-2.133,6.432v3.306h-4.513v2.472h4.513v24.821h3.027v-24.823h6.51v-2.472h-6.51
		v-3.391c0-1.905,0.464-3.378,1.388-4.413c0.924-1.037,2.218-1.555,3.884-1.555c0.991,0,1.907,0.1,2.748,0.303l0.228-2.501
		c-0.995-0.281-2.064-0.424-3.204-0.424C312.209,179.901,310.23,180.648,308.809,182.145z"/>
	<path d="M330.814,191.379c-2.356,0-4.462,0.585-6.318,1.751c-1.861,1.169-3.295,2.802-4.315,4.908
		c-1.02,2.102-1.526,4.464-1.526,7.09v0.605c0,4.205,1.133,7.581,3.395,10.128c2.26,2.55,5.2,3.824,8.817,3.824
		c2.371,0,4.48-0.571,6.331-1.716c1.852-1.144,3.284-2.769,4.301-4.881c1.017-2.11,1.524-4.486,1.524-7.126v-0.631
		c0-4.203-1.127-7.581-3.38-10.128C337.391,192.655,334.446,191.379,330.814,191.379z M340.021,205.708
		c0,3.429-0.846,6.193-2.534,8.288c-1.691,2.095-3.897,3.141-6.624,3.141c-2.744,0-4.957-1.049-6.646-3.141
		c-1.689-2.093-2.534-4.772-2.534-8.034v-0.553c0-3.413,0.85-6.175,2.548-8.288c1.698-2.113,3.893-3.166,6.583-3.166
		c1.798,0,3.395,0.475,4.794,1.426c1.397,0.95,2.483,2.291,3.255,4.022c0.774,1.731,1.16,3.641,1.16,5.727v0.578H340.021z"/>
	<path d="M350.966,196.223l-0.051-4.337h-2.954v27.291h3.003v-18.744c0.553-2.001,1.484-3.527,2.786-4.578s2.896-1.577,4.781-1.577
		c0.723,0,1.403,0.06,2.041,0.176l0.076-2.748c-0.486-0.216-1.151-0.326-1.992-0.326
		C355.125,191.379,352.564,192.992,350.966,196.223z"/>
	<path d="M385.336,191.379c-2.117,0-4.087,0.6-5.901,1.805c-1.816,1.202-3.233,2.856-4.252,4.957s-1.526,4.466-1.526,7.09v1.084
		c0,2.539,0.52,4.83,1.564,6.873c1.044,2.046,2.503,3.636,4.377,4.781c1.876,1.144,3.973,1.716,6.296,1.716
		c4.221,0,7.44-1.606,9.66-4.819l-1.89-1.439c-1.008,1.294-2.133,2.235-3.371,2.827c-1.238,0.587-2.661,0.883-4.272,0.883
		c-2.693,0-4.924-1.031-6.699-3.09c-1.776-2.059-2.661-4.638-2.661-7.73v-0.58h19.474v-1.691c0-3.917-0.97-7.01-2.914-9.272
		C391.279,192.51,388.651,191.379,385.336,191.379z M393.131,203.158h-16.37c0.337-2.809,1.281-5.046,2.84-6.711
		c1.555-1.664,3.469-2.499,5.738-2.499c2.289,0,4.138,0.823,5.553,2.472c1.412,1.649,2.162,3.784,2.244,6.409v0.328L393.131,203.158
		z"/>
	<path d="M418.481,195.743c-1.934-2.909-4.741-4.364-8.424-4.364c-3.246,0-5.816,1.258-7.708,3.77
		c-1.892,2.516-2.84,5.892-2.84,10.128v0.355c0,4.308,0.964,7.723,2.889,10.256c1.923,2.532,4.462,3.797,7.605,3.797
		c3.748,0,6.592-1.379,8.527-4.138l0.127,3.632h2.827v-38.747h-3.003v15.313l0,0V195.743z M418.481,212.14
		c-1.564,3.279-4.203,4.919-7.922,4.919c-2.537,0-4.506-1.006-5.901-3.016c-1.394-2.008-2.095-4.754-2.095-8.237
		c0-3.884,0.705-6.824,2.117-8.819c1.412-1.992,3.391-2.989,5.928-2.989c3.686,0,6.307,1.776,7.871,5.323v12.814h0.002V212.14z"/>
	<path d="M445.644,211.636c-1.16,3.616-3.926,5.426-8.297,5.426c-4.205,0-6.307-2.599-6.307-7.795v-17.379h-3.003v17.76
		c0.034,3.313,0.808,5.816,2.318,7.503c1.515,1.693,3.723,2.537,6.633,2.537c3.987,0,6.887-1.321,8.701-3.962l0.051,3.456h2.927
		v-27.3h-3.027v19.753h0.004V211.636z"/>
	<path d="M458.947,196.903c1.506-1.968,3.619-2.951,6.345-2.951c2.135,0,3.906,0.656,5.312,1.968
		c1.405,1.312,2.175,3.036,2.309,5.171h2.902c-0.134-2.909-1.173-5.256-3.114-7.036c-1.943-1.783-4.413-2.673-7.404-2.673
		c-2.354,0-4.41,0.564-6.169,1.691c-1.758,1.129-3.105,2.726-4.047,4.794c-0.941,2.068-1.412,4.448-1.412,7.139v0.908
		c0,4.205,1.046,7.552,3.141,10.039c2.095,2.49,4.93,3.735,8.513,3.735c1.816,0,3.518-0.388,5.109-1.162
		c1.593-0.774,2.862-1.843,3.824-3.215c0.959-1.37,1.481-2.889,1.564-4.553h-2.902c-0.116,1.885-0.888,3.42-2.309,4.605
		s-3.181,1.78-5.285,1.78c-2.742,0-4.863-0.975-6.369-2.927c-1.504-1.952-2.258-4.667-2.258-8.147v-0.883
		C456.69,201.628,457.444,198.871,458.947,196.903z"/>
	<path d="M500.173,200.033c-0.051-2.726-0.955-4.848-2.713-6.369s-4.156-2.282-7.204-2.282c-2.943,0-5.423,0.794-7.44,2.385
		c-2.017,1.588-3.025,3.469-3.025,5.638l3.025,0.027c0-1.513,0.692-2.809,2.07-3.884c1.376-1.078,3.119-1.615,5.223-1.615
		c2.305,0,4.056,0.56,5.258,1.678c1.2,1.118,1.8,2.653,1.8,4.605v3.103h-5.475c-3.949,0-7.034,0.774-9.245,2.322
		c-2.211,1.548-3.315,3.65-3.315,6.307c0,2.235,0.81,4.087,2.434,5.553c1.622,1.459,3.746,2.195,6.369,2.195
		c1.832,0,3.572-0.377,5.209-1.124c1.642-0.747,2.989-1.814,4.047-3.19c0.083,1.682,0.277,2.952,0.582,3.81h3.228v-0.303
		c-0.553-1.312-0.83-3.286-0.83-5.928v-12.921h0V200.033z M497.17,211.636c-0.723,1.631-1.878,2.936-3.469,3.911
		c-1.588,0.975-3.395,1.461-5.412,1.461c-1.816,0-3.291-0.504-4.428-1.513c-1.133-1.008-1.7-2.278-1.7-3.81
		c0-1.87,0.85-3.333,2.548-4.402c1.698-1.069,4.051-1.617,7.063-1.651h5.399L497.17,211.636L497.17,211.636z"/>
	<path d="M515.18,217.059c-1.278,0-2.193-0.373-2.737-1.113c-0.549-0.741-0.821-1.87-0.821-3.384v-18.209h5.653v-2.472h-5.653
		v-6.987h-3.025v6.987h-5.02v2.472h5.02v18.213c0,2.338,0.471,4.107,1.412,5.312c0.939,1.202,2.445,1.805,4.513,1.805
		c1.361,0,2.438-0.145,3.23-0.424l-0.127-2.452C516.498,216.975,515.684,217.059,515.18,217.059z"/>
	<path d="M532.229,191.379c-2.356,0-4.462,0.585-6.318,1.751c-1.861,1.169-3.295,2.802-4.315,4.908
		c-1.02,2.102-1.526,4.464-1.526,7.09v0.605c0,4.205,1.133,7.581,3.396,10.128c2.26,2.55,5.2,3.824,8.817,3.824
		c2.371,0,4.48-0.571,6.331-1.716c1.852-1.144,3.284-2.769,4.301-4.881c1.017-2.11,1.524-4.486,1.524-7.126v-0.631
		c0-4.203-1.127-7.581-3.38-10.128S535.858,191.379,532.229,191.379z M541.436,205.708c0,3.429-0.846,6.193-2.534,8.288
		c-1.691,2.095-3.897,3.141-6.624,3.141c-2.744,0-4.957-1.049-6.646-3.141c-1.689-2.093-2.534-4.772-2.534-8.034v-0.553
		c0-3.413,0.85-6.175,2.548-8.288c1.698-2.113,3.893-3.166,6.583-3.166c1.798,0,3.395,0.475,4.794,1.426
		c1.397,0.95,2.483,2.291,3.255,4.022c0.774,1.731,1.16,3.641,1.16,5.727v0.578H541.436z"/>
	<path d="M552.376,196.223l-0.051-4.337h-2.954v27.291h3.003v-18.744c0.553-2.001,1.484-3.527,2.786-4.578s2.896-1.577,4.781-1.577
		c0.723,0,1.403,0.06,2.041,0.176l0.076-2.748c-0.486-0.216-1.151-0.326-1.992-0.326
		C556.539,191.379,553.974,192.992,552.376,196.223z"/>
	<path d="M580.941,205.934c-1.321-0.705-3.302-1.37-5.952-1.992c-2.648-0.62-4.475-1.307-5.475-2.055s-1.501-1.805-1.501-3.166
		c0-1.412,0.6-2.563,1.805-3.445c1.2-0.883,2.795-1.325,4.781-1.325c2.035,0,3.721,0.531,5.057,1.588
		c1.339,1.062,2.003,2.389,2.003,3.987h3.027c0-2.423-0.919-4.384-2.762-5.892c-1.841-1.504-4.283-2.258-7.326-2.258
		c-2.809,0-5.115,0.701-6.914,2.106c-1.798,1.405-2.699,3.181-2.699,5.334c0,1.361,0.323,2.523,0.973,3.48
		c0.647,0.959,1.638,1.771,2.974,2.434c1.339,0.665,3.217,1.254,5.64,1.767c2.423,0.515,4.234,1.225,5.439,2.131
		c1.2,0.908,1.8,2.11,1.8,3.607c0,1.412-0.647,2.583-1.941,3.505c-1.296,0.924-2.994,1.39-5.095,1.39
		c-2.253,0-4.067-0.491-5.439-1.477c-1.37-0.984-2.115-2.358-2.231-4.123h-3.027c0,2.356,0.988,4.301,2.967,5.838
		c1.977,1.539,4.553,2.311,7.73,2.311c2.992,0,5.419-0.692,7.277-2.07c1.858-1.379,2.789-3.219,2.789-5.524
		c0-1.412-0.319-2.615-0.957-3.607C583.241,207.489,582.262,206.639,580.941,205.934z"/>
	<path d="M593.853,215.939c-0.377-0.399-0.888-0.596-1.528-0.596c-0.64,0-1.142,0.199-1.513,0.596
		c-0.373,0.399-0.555,0.886-0.555,1.457c0,0.562,0.183,1.028,0.555,1.41c0.37,0.381,0.872,0.571,1.513,0.571s1.149-0.19,1.528-0.571
		c0.377-0.382,0.569-0.85,0.569-1.41C594.42,216.825,594.23,216.339,593.853,215.939z"/>
	<polygon points="593.561,208.934 593.74,182.447 590.612,182.447 590.764,208.934 	"/>
	<polygon points="599.346,180.611 603.038,180.611 603.038,190.496 604.519,190.496 604.519,180.611 608.225,180.611 
		608.225,179.292 599.346,179.292 	"/>
	<path d="M615.324,187.087c-0.27,0.79-0.469,1.388-0.596,1.796c-0.114-0.368-0.292-0.919-0.535-1.66l-2.653-7.933h-2.231v11.204
		h1.428v-9.537l3.242,9.537h1.339l3.255-9.377v9.377H620V179.29h-1.992L615.324,187.087z"/>
	<g>
		<g class="st0">
			<path class="st1" d="M243.089,214.07c0-4.422-50.921-8.007-113.732-8.007s-113.732,3.585-113.732,8.007
				c0,2.635,18.066,4.97,45.95,6.43c-0.462,0.243-0.712,0.495-0.712,0.754c0,2.001,14.584,3.623,32.574,3.623
				c15.46,0,28.395-1.198,31.73-2.804c1.392,0.004,2.786,0.007,4.19,0.007c4.176,0,8.299-0.016,12.359-0.047
				c3.197,1.626,16.223,2.847,31.815,2.847c17.99,0,32.574-1.622,32.574-3.623c0-0.408-0.616-0.799-1.733-1.165
				C228.107,218.619,243.089,216.469,243.089,214.07z"/>
		</g>
		<g>
			<path class="st2" d="M220.499,67.833c1.919,0.834,3.679,2.255,5.769,2.334c0.232,0.009,0.453,0.009,0.665,0.004
				c5.124-0.127,4.848-4.183,7.607-7.369c0.924-1.066,2.144-1.838,3.413-2.454c9.147-4.428,23.931,0.56,23.054,12.196
				c-0.29,3.853-1.986,7.462-3.971,10.775c-5.256,8.763-14.115,12.404-20.638,19.857c-1.542,1.762-3.286,3.329-5.035,4.881
				c-1.832,1.626-2.94,3.094-4.266,5.149c-3.233,5.022-7.043,9.763-10.338,14.795c-3.036,4.636-5.959,9.345-8.765,14.124
				c-1.124,1.916-3.788,8.377-6.909,7.467c-3.489-1.017-2.186-11.164-3.65-13.838c-2.673-4.883-4.973-7.547-4.397-13.542
				c0.319-3.311,1.852-5.992,3.844-8.524c1.258-1.6,2.28-3.46,3.4-5.158c0.638-0.97,3.061-3.532,3.061-4.645
				c1.586-2.407,3.03-5.06,4.95-7.208c2.318-2.59,4.286-5.53,6.233-8.435c0.957-1.428,1.887-2.938,2.155-4.634
				c0.379-2.421-0.779-4.232-1.347-6.461C214.351,73.295,214.063,65.036,220.499,67.833z"/>
		</g>
		<g>
			<path d="M202.342,151.417c1.325-2.166,2.615-4.355,3.888-6.55c1.285-2.189,2.545-4.39,3.799-6.599
				c2.514-4.411,4.984-8.855,7.632-13.209c2.659-4.346,5.475-8.62,8.616-12.676c3.143-4.051,6.601-7.882,10.385-11.375
				c1.887-1.751,3.853-3.418,5.89-4.995c1.983-1.553,3.913-3.137,5.745-4.823c1.829-1.682,3.556-3.462,5.093-5.361
				c0.785-0.937,1.477-1.93,2.139-2.934c0.627-1.02,1.214-2.059,1.669-3.139c0.912-2.16,1.401-4.44,1.276-6.735
				c-0.105-2.298-0.77-4.582-1.673-6.836c-0.453-1.127-0.97-2.249-1.513-3.371c-0.547-1.12-1.115-2.271-1.682-3.378
				c-0.569-1.113-1.149-2.204-1.776-3.213c-0.625-1.004-1.307-1.93-2.059-2.559c-0.754-0.634-1.528-0.944-2.492-0.977
				c-0.959-0.031-2.059,0.203-3.159,0.56c-0.277,0.096-0.553,0.183-0.83,0.294l-0.413,0.158c-0.123,0.054-0.25,0.1-0.368,0.158
				c-0.482,0.221-0.93,0.48-1.339,0.785c-0.814,0.609-1.475,1.419-2.023,2.387c-1.089,1.952-1.758,4.364-2.394,6.771
				c-0.167,0.636-0.288,1.131-0.381,1.716c-0.091,0.571-0.156,1.16-0.205,1.769c-0.114,1.223-0.107,2.485-0.395,3.969
				c-0.158,0.732-0.397,1.604-1.091,2.421c-0.344,0.399-0.796,0.734-1.263,0.948c-0.466,0.212-0.933,0.326-1.361,0.377
				c-0.861,0.1-1.615,0.02-2.325-0.094c-0.355-0.06-0.701-0.129-1.035-0.212l-0.506-0.129c-0.214-0.06-0.419-0.127-0.609-0.205
				c-0.765-0.308-1.379-0.701-1.952-1.098c-0.571-0.399-1.093-0.817-1.597-1.229c-1.006-0.828-1.95-1.662-2.9-2.389
				c-0.935-0.721-1.941-1.37-2.76-1.55c-0.408-0.089-0.694-0.065-0.966,0.06c-0.274,0.12-0.585,0.397-0.868,0.79
				c-0.286,0.39-0.531,0.886-0.716,1.339c-0.172,0.466-0.265,0.941-0.288,1.43c-0.056,0.979,0.25,2.048,0.672,3.168
				c0.426,1.124,0.979,2.298,1.405,3.607c0.21,0.656,0.395,1.341,0.5,2.061c0.103,0.721,0.127,1.466,0.065,2.209
				c-0.154,1.488-0.687,2.9-1.428,4.092c-0.185,0.299-0.368,0.6-0.578,0.875c-0.205,0.286-0.408,0.562-0.591,0.801
				c-0.377,0.502-0.758,0.993-1.131,1.506c-2.996,4.067-5.954,8.203-8.908,12.33l-8.89,12.379c-1.488,2.059-2.987,4.114-4.518,6.146
				c-1.537,2.032-3.052,4.067-4.712,6.037l-0.944-0.779c1.546-1.968,2.998-4.058,4.455-6.128l4.33-6.256l8.58-12.582
				c2.865-4.196,5.691-8.408,8.647-12.571c0.366-0.52,0.754-1.04,1.131-1.559c0.201-0.268,0.366-0.506,0.526-0.741
				c0.174-0.234,0.315-0.48,0.46-0.723c0.582-0.975,0.93-2.008,1.026-3.052c0.076-1.046-0.116-2.115-0.504-3.215
				c-0.375-1.1-0.924-2.222-1.421-3.462c-0.484-1.236-0.964-2.65-0.919-4.225c0.02-0.776,0.163-1.564,0.422-2.293
				c0.281-0.727,0.598-1.381,1.053-2.023c0.453-0.634,1.066-1.292,1.95-1.711c0.435-0.207,0.924-0.337,1.401-0.375
				c0.477-0.038,0.937,0.007,1.356,0.096c0.843,0.183,1.537,0.52,2.166,0.875c0.627,0.361,1.194,0.756,1.729,1.158
				c1.071,0.805,2.039,1.649,3.003,2.423c0.948,0.763,1.939,1.508,2.791,1.841c0.105,0.042,0.201,0.071,0.292,0.096l0.417,0.098
				c0.283,0.065,0.56,0.114,0.832,0.156c0.542,0.083,1.066,0.107,1.468,0.051c0.201-0.027,0.355-0.078,0.466-0.132
				c0.109-0.056,0.174-0.109,0.243-0.194c0.138-0.156,0.297-0.54,0.386-1.044c0.183-1.015,0.203-2.307,0.303-3.61
				c0.049-0.658,0.114-1.332,0.219-2.015c0.098-0.672,0.272-1.412,0.426-2.006c0.317-1.249,0.651-2.505,1.062-3.768
				c0.415-1.263,0.899-2.539,1.593-3.79c0.692-1.245,1.642-2.463,2.862-3.387c0.605-0.462,1.26-0.843,1.93-1.156
				c0.167-0.08,0.337-0.147,0.504-0.221l0.475-0.185c0.312-0.127,0.64-0.236,0.962-0.35c1.303-0.431,2.719-0.79,4.306-0.736
				c0.788,0.027,1.615,0.181,2.389,0.489c0.776,0.303,1.477,0.752,2.07,1.256c1.194,1.017,2.001,2.189,2.719,3.331
				c0.712,1.151,1.318,2.305,1.905,3.453c0.587,1.156,1.142,2.28,1.707,3.442c0.56,1.162,1.107,2.349,1.597,3.578
				c0.988,2.447,1.742,5.118,1.841,7.909c0.123,2.791-0.52,5.593-1.615,8.087c-0.547,1.254-1.225,2.425-1.943,3.556
				c-0.747,1.107-1.524,2.191-2.383,3.19c-1.696,2.023-3.567,3.846-5.508,5.559c-1.943,1.711-3.98,3.304-6.028,4.837
				c-2.008,1.495-3.944,3.083-5.832,4.73c-7.567,6.586-13.796,14.595-19.369,23.032c-2.8,4.219-5.501,8.518-8.216,12.812
				c-1.359,2.146-2.724,4.29-4.114,6.418C205.228,147.234,203.798,149.336,202.342,151.417z"/>
		</g>
		<g>
			<path class="st2" d="M59.937,204.471c-0.997,1.582-1.832,3.268-2.813,4.841c-0.743,1.189-0.866,2.465-2.086,3.337
				c-2.351,1.682-3.699,1.124-6.356,0.549c-2.519-0.547-4.993-1.283-7.425-2.133c-2.514-0.879-5.276-0.025-7.857,0.355
				c-2.407,0.352-4.723,1.702-7.079,2.325c-3.581,0.946-7.23,0.531-10.699-0.66c-2.291-0.785-9.073-6.485-4.357-8.692
				c2.122-0.993,4.491-1.805,6.686-2.684c1.992-0.796,4.094-1.807,6.084-2.786c1.894-0.935,4-1.287,5.615-2.719
				c1.562-1.385,3.295-2.231,5.12-3.284c2.403-1.385,4.732-2.896,6.974-4.527c1.187-0.863,2.503-1.568,3.656-2.472
				c0.926-0.725,1.492-1.642,2.267-2.539c2.224-2.581,4.56-5.12,6.76-7.674c2.383-2.769,3.929-7.059,5.256-10.421
				c1.597-4.045,3.242-8.208,3.79-12.547c0.455-3.61,0.5-7.362,1.713-10.829c0.906-2.588,4.64-5.205,7.458-4.569
				c2.284,0.515,4.413,2.561,6.784,3.293c5.832,1.8,8.013,6.539,8.656,12.212c0.727,6.416-2.559,11.139-5.455,16.574
				c-3.757,7.05-5.684,14.974-9.901,21.789c-1.666,2.693-3.752,5.169-6.305,7.063C63.846,200.183,61.7,201.675,59.937,204.471z"/>
		</g>
		<g>
			<path d="M64.232,133.253c0.388,2.499,0.654,5.024,0.73,7.563c0.067,2.537-0.013,5.084-0.25,7.619
				c-0.466,5.071-1.55,10.113-3.326,14.927c-0.879,2.409-1.912,4.765-3.09,7.047c-1.182,2.282-2.53,4.48-3.998,6.595
				c-2.943,4.223-6.374,8.105-10.233,11.532c-3.875,3.431-8.223,6.322-12.819,8.667c-4.589,2.363-9.47,4.1-14.191,5.794
				c-1.171,0.433-2.334,0.868-3.404,1.359c-0.533,0.245-1.042,0.506-1.484,0.785c-0.428,0.277-0.801,0.587-0.953,0.828
				c-0.165,0.248-0.163,0.335-0.138,0.616c0.058,0.286,0.234,0.703,0.518,1.127c0.272,0.433,0.647,0.859,0.999,1.267
				c0.375,0.388,0.765,0.759,1.194,1.075c0.85,0.638,1.812,1.113,2.858,1.426c1.051,0.306,2.177,0.455,3.335,0.497
				c2.322,0.08,4.752-0.27,7.195-0.698c2.45-0.433,4.928-0.97,7.489-1.37c0.64-0.1,1.285-0.192,1.936-0.268
				c0.33-0.033,0.62-0.085,1.08-0.1c0.41-0.013,0.788,0.009,1.151,0.042c1.443,0.147,2.708,0.462,3.964,0.783
				c2.49,0.647,4.888,1.394,7.233,1.827c1.153,0.21,2.336,0.339,3.233,0.201c0.446-0.067,0.743-0.212,0.868-0.337
				c0.069-0.069,0.116-0.12,0.174-0.257c0.132-0.306,0.265-0.611,0.406-0.91c1.118-2.394,2.443-4.656,4.005-6.786
				c1.568-2.117,3.375-4.118,5.604-5.74c1.115-0.803,2.356-1.492,3.708-1.979c1.363-0.464,2.831-0.716,4.321-0.605
				c0.77,0.054,1.53,0.232,2.226,0.484c0.692,0.245,1.336,0.58,1.832,0.805c0.23,0.112,0.466,0.174,0.399,0.156
				c-0.016,0.002-0.156,0.009-0.239,0.06c-0.096,0.06-0.114,0.078-0.103,0.074c0.033-0.027,0.145-0.23,0.228-0.446
				c0.091-0.219,0.172-0.489,0.25-0.758c0.152-0.538,0.283-1.167,0.393-1.713c0.047-0.223,0.056-0.419,0.049-0.511
				c-0.02-0.1,0.011-0.002,0.069,0.029c0.049,0.025-0.04-0.045-0.239-0.078c-0.194-0.04-0.462-0.06-0.761-0.076
				c-0.301-0.016-0.631-0.022-1.008-0.058c-0.377-0.04-0.808-0.083-1.347-0.323c-0.265-0.123-0.562-0.315-0.805-0.593
				c-0.243-0.277-0.406-0.616-0.486-0.917c-0.156-0.614-0.091-1.08-0.025-1.488c0.076-0.404,0.194-0.774,0.292-1.064l0.306-0.928
				c0.196-0.627,0.431-1.211,0.647-1.816c0.219-0.602,0.442-1.2,0.676-1.789c1.854-4.736,3.835-9.39,5.843-14.039
				c2.012-4.645,4.067-9.267,6.162-13.874c1.042-2.305,2.113-4.6,3.201-6.885c1.1-2.284,2.182-4.564,3.391-6.82l1.084,0.567
				c-2.193,4.506-4.134,9.189-6.139,13.814c-1.983,4.643-3.926,9.305-5.825,13.981c-1.894,4.676-3.764,9.37-5.486,14.088
				c-0.221,0.589-0.433,1.178-0.634,1.767c-0.201,0.589-0.426,1.18-0.598,1.765l-0.274,0.877c-0.103,0.31-0.161,0.547-0.194,0.765
				c-0.033,0.21-0.013,0.393,0,0.39c0.004,0.002-0.011-0.049-0.045-0.087c-0.033-0.042-0.06-0.056-0.038-0.049
				c0.04,0.018,0.248,0.06,0.497,0.069c0.252,0.013,0.553,0.011,0.886,0.013c0.335,0.004,0.698,0.011,1.129,0.074
				c0.419,0.069,0.957,0.187,1.504,0.611c0.268,0.21,0.502,0.5,0.654,0.799c0.154,0.299,0.236,0.598,0.281,0.866
				c0.078,0.535,0.038,0.977-0.02,1.374c-0.123,0.696-0.248,1.305-0.426,1.988c-0.091,0.339-0.187,0.676-0.33,1.044
				c-0.149,0.368-0.297,0.752-0.663,1.216c-0.199,0.23-0.437,0.484-0.825,0.674c-0.366,0.187-0.825,0.265-1.156,0.239
				c-0.703-0.049-1.06-0.245-1.408-0.379c-0.658-0.292-1.142-0.533-1.644-0.703c-0.495-0.172-0.977-0.272-1.47-0.301
				c-1.035-0.065-2.106,0.127-3.128,0.486c-1.022,0.384-2.01,0.937-2.936,1.622c-1.852,1.376-3.465,3.181-4.875,5.136
				c-1.412,1.957-2.646,4.083-3.652,6.273c-0.125,0.274-0.243,0.549-0.361,0.823c-0.181,0.448-0.495,0.935-0.881,1.301
				c-0.792,0.761-1.745,1.057-2.537,1.191c-1.613,0.241-2.978,0.038-4.306-0.176c-2.632-0.468-5.073-1.218-7.48-1.818
				c-1.194-0.294-2.392-0.582-3.467-0.689c-0.265-0.025-0.52-0.038-0.741-0.031c-0.172,0-0.506,0.047-0.805,0.08
				c-0.602,0.069-1.209,0.156-1.818,0.25c-2.434,0.377-4.897,0.906-7.427,1.352c-2.528,0.437-5.133,0.828-7.871,0.736
				c-1.365-0.049-2.764-0.23-4.141-0.631c-1.374-0.408-2.715-1.066-3.884-1.948c-0.589-0.437-1.118-0.939-1.617-1.461
				c-0.239-0.27-0.468-0.544-0.698-0.821c-0.219-0.283-0.431-0.58-0.636-0.895c-0.402-0.636-0.79-1.374-0.966-2.334
				c-0.076-0.486-0.078-1.031,0.042-1.562c0.116-0.535,0.366-1.022,0.647-1.414c0.573-0.801,1.24-1.263,1.865-1.671
				c0.631-0.39,1.254-0.698,1.87-0.975c1.234-0.551,2.445-0.988,3.648-1.421c2.405-0.852,4.772-1.653,7.099-2.55
				c2.327-0.892,4.602-1.874,6.827-2.96c4.446-2.168,8.629-4.843,12.386-8.049c3.748-3.228,7.192-6.847,10.151-10.829
				c2.958-3.984,5.435-8.335,7.337-12.939c1.89-4.609,3.246-9.459,3.98-14.423C64.518,143.357,64.649,138.293,64.232,133.253z"/>
		</g>
		<g>
			<g>
				<path class="st3" d="M74.099,171.266c0.832,4.248,19.985,36.426,41.616,40.471c-1.283-3.5-1.555-5.011-1.555-5.011
					s16.199,9.24,52.192,0.997c-2.505-0.888-4.863-2.461-4.863-2.461s24.482-6.773,32.848-23.514
					c9.687-19.389-24.574-11.157-24.574-11.157l-78.863-5.78L74.099,171.266z"/>
			</g>
			<g>
				<path d="M74.438,171.453c0.069,0,0.096-0.069,0.091-0.062l0.065,0.207c0.049,0.138,0.096,0.279,0.154,0.419
					c0.109,0.281,0.234,0.56,0.361,0.839c0.257,0.558,0.535,1.107,0.825,1.653c0.58,1.093,1.2,2.166,1.843,3.228
					c1.287,2.122,2.666,4.19,4.109,6.211c2.887,4.04,6.035,7.897,9.455,11.487c3.424,3.578,7.13,6.9,11.206,9.664
					c4.067,2.746,8.553,4.953,13.321,5.818l0,0l-0.937,1.107c-0.234-0.857-0.455-1.716-0.654-2.583
					c-0.1-0.433-0.194-0.868-0.279-1.305c-0.085-0.442-0.163-0.868-0.221-1.339v-0.002l-0.143-0.763l0.714,0.359
					c1.905,0.957,4.034,1.626,6.139,2.18c2.122,0.544,4.279,0.959,6.452,1.258c4.348,0.605,8.75,0.772,13.14,0.672
					c4.393-0.107,8.774-0.522,13.127-1.138c4.353-0.62,8.669-1.47,12.948-2.49l0,0l-0.096,1.675
					c-0.877-0.402-1.702-0.861-2.494-1.359c-0.794-0.5-1.55-1.024-2.291-1.602l0,0l-0.667-0.444l0.779-0.25
					c3.045-0.975,6.048-2.184,8.955-3.545c2.909-1.365,5.747-2.88,8.444-4.609c2.693-1.731,5.258-3.656,7.594-5.82
					c2.329-2.168,4.417-4.593,6.07-7.286c0.812-1.35,1.559-2.755,2.093-4.21c0.542-1.443,0.892-2.969,0.732-4.397
					c-0.083-0.709-0.306-1.381-0.669-1.972c-0.366-0.589-0.886-1.086-1.484-1.499c-1.205-0.825-2.711-1.283-4.234-1.568
					c-3.079-0.547-6.302-0.466-9.481-0.199c-3.179,0.29-6.374,0.794-9.479,1.492l-0.114,0.025l-0.105-0.009l-39.42-2.989
					l-39.414-3.11l0,0l0.167-0.025C85.517,167.297,80,169.376,74.438,171.453z M73.762,171.078c5.638-2.224,11.322-4.448,17-6.628
					l0.08-0.031l0.087,0.007l0,0l39.447,2.67l39.438,2.789l-0.216,0.018c3.208-0.73,6.418-1.24,9.682-1.546
					c3.257-0.281,6.566-0.381,9.874,0.194c1.642,0.308,3.315,0.788,4.799,1.789c0.734,0.502,1.412,1.142,1.903,1.928
					s0.785,1.687,0.89,2.581c0.199,1.805-0.223,3.523-0.808,5.093c-0.591,1.582-1.381,3.043-2.244,4.457
					c-1.754,2.815-3.944,5.323-6.363,7.547c-2.416,2.233-5.084,4.163-7.866,5.874c-2.786,1.709-5.687,3.217-8.676,4.515
					c-2.996,1.287-6.037,2.438-9.196,3.3l0.112-0.694l0,0c0.785,0.413,1.613,0.792,2.438,1.124c0.828,0.335,1.667,0.62,2.503,0.834
					l3.05,0.783l-3.148,0.892l0,0c-4.341,0.95-8.723,1.731-13.138,2.276c-4.413,0.542-8.857,0.881-13.305,0.908
					c-4.448,0.02-8.906-0.23-13.31-0.926c-2.202-0.344-4.384-0.805-6.534-1.399c-2.151-0.611-4.259-1.305-6.291-2.374l0.571-0.404
					l0,0c0.116,0.388,0.268,0.805,0.419,1.207c0.154,0.404,0.315,0.805,0.482,1.207c0.335,0.801,0.689,1.593,1.057,2.38l0.614,1.314
					l-1.55-0.207l0,0c-5.071-1.002-9.696-3.384-13.834-6.267c-4.145-2.905-7.86-6.343-11.275-10.019
					c-3.409-3.688-6.528-7.63-9.381-11.75c-1.423-2.061-2.784-4.167-4.054-6.331c-0.634-1.082-1.247-2.177-1.818-3.297
					c-0.286-0.56-0.562-1.127-0.819-1.707c-0.127-0.29-0.254-0.582-0.366-0.886c-0.058-0.149-0.109-0.306-0.163-0.462l-0.071-0.241
					C73.738,171.453,73.729,171.23,73.762,171.078z"/>
			</g>
		</g>
		<g>
			<path class="st4" d="M90.999,160.075c-6.452,10.673,5.133,31.34,18.492,36.277c-0.964-3.215,0.792-7.293,0.792-7.293
				s1.658,17.022,35.249,14.468c-2.057-1.307-3.895-4.863-3.012-4.573c13.104,4.274,27.643-4.154,26.129-5.149
				c-3.891-2.559,4.776-1.368,13.531-11.732c-11.538-4.573-8.705-22.271-8.705-22.271l-16.85-1.738l-51.503-0.299L90.999,160.075z"
				/>
		</g>
		<g>
			<g>
				<path class="st3" d="M74.327,168.948c-15.715-25.586-13.372-47.017-10.059-63.137c0,0,2.824,3.139,6.198,3.79
					c-1.89-5.834-3.779-12.614-0.627-20.879l4.187,3.518c0,0-0.995-20.589,26.501-33.189l-1.845,9.359
					c0,0,14.305-25.113,68.121-12.872c-5.655,3.467-8.105,8.462-8.105,8.462s28.895-9.176,47.38,29.517
					c-5.046-2.96-9.356-2.124-9.356-2.124s19.5,19.944,13.644,44.487l-3.598-3.984c0,0,3.561,23.097-9.142,40.754
					c0,0-12.292-12.167-31.108-12.034s-66.319-2.943-69.217-2.405S74.327,168.948,74.327,168.948z"/>
			</g>
			<g>
				<path d="M74.22,169.329c-0.841-1.18-1.72-2.574-2.34-3.717c-0.696-1.187-1.327-2.409-1.974-3.623
					c-1.252-2.452-2.394-4.959-3.416-7.52c-2.05-5.118-3.549-10.465-4.448-15.92c-0.897-5.455-1.182-11.012-0.901-16.536
					c0.265-5.526,1.082-11.007,2.144-16.406l0.373-1.894l1.359,1.423l0,0c0.319,0.415,0.734,0.87,1.142,1.276
					c0.415,0.41,0.857,0.799,1.316,1.16c0.924,0.716,1.948,1.307,3.065,1.642l-0.451,0.509l0,0c-1.187-3.358-2.255-6.84-2.548-10.49
					c-0.152-1.818-0.112-3.663,0.134-5.486c0.243-1.823,0.692-3.619,1.294-5.356l0.419-1.211l1.042,0.832l0,0l3.844,3.924
					l-0.649,0.321l0,0c-0.036-0.986,0.033-1.919,0.143-2.865c0.107-0.944,0.274-1.878,0.477-2.802
					c0.408-1.852,0.984-3.665,1.716-5.417c0.727-1.751,1.6-3.445,2.595-5.064c1.002-1.613,2.128-3.148,3.346-4.607
					c1.207-1.47,2.559-2.809,3.942-4.112c0.714-0.625,1.41-1.274,2.162-1.856l1.111-0.892l1.147-0.843
					c3.07-2.235,6.365-4.147,9.785-5.78l1.983-0.946l-0.395,2.2l0,0l-2.57,9.216l-0.725-0.274l0,0
					c0.837-1.368,1.843-2.525,2.918-3.648c1.08-1.109,2.247-2.126,3.465-3.076c2.452-1.878,5.118-3.474,7.924-4.756
					c2.802-1.292,5.722-2.316,8.703-3.103c2.983-0.774,6.021-1.314,9.075-1.7c6.117-0.692,12.299-0.725,18.421-0.214
					c6.124,0.506,12.199,1.488,18.195,2.782l2.447,0.529l-2.126,1.419h-0.002c-0.821,0.46-1.637,0.941-2.403,1.504
					c-0.779,0.547-1.513,1.16-2.218,1.809c-0.707,0.647-1.37,1.35-1.992,2.086c-0.618,0.734-1.209,1.524-1.693,2.327l-0.473-0.551
					h0.002c2.508-0.727,5.053-1.004,7.621-1.06c2.563-0.045,5.133,0.199,7.654,0.703c5.044,1.008,9.852,3.132,14.09,6.052
					c4.245,2.92,7.944,6.588,11.092,10.639c3.163,4.049,5.807,8.475,8.071,13.064l1.548,3.139l-3.157-1.662l0,0
					c-0.631-0.424-1.283-0.839-1.972-1.176c-0.683-0.361-1.403-0.636-2.139-0.888c-0.738-0.241-1.499-0.419-2.273-0.538
					c-0.765-0.116-1.577-0.172-2.32-0.118l0.207-0.663l0,0c2.822,2.963,5.229,6.24,7.371,9.7c2.128,3.467,3.933,7.146,5.298,11.001
					c1.363,3.853,2.276,7.889,2.597,11.996c0.33,4.105,0.029,8.272-0.87,12.312l0,0l-0.725,2.039l-1.1-1.573l-3.101-4.433l0,0
					l0.683-0.326c0.515,3.572,0.64,7.15,0.549,10.737c-0.112,3.583-0.471,7.166-1.149,10.702c-0.676,3.534-1.649,7.023-2.996,10.38
					c-1.321,3.369-3.063,6.581-5.122,9.58l0,0l-0.658,0.948l-0.859-0.823c-0.895-0.859-1.939-1.711-2.976-2.494
					c-1.049-0.79-2.131-1.537-3.244-2.235c-2.229-1.397-4.564-2.63-6.992-3.645c-2.421-1.031-4.937-1.832-7.496-2.434
					c-2.563-0.58-5.178-0.937-7.806-1.053c-0.658-0.025-1.312-0.029-1.974-0.04l-2.021-0.009l-4.034-0.065
					c-2.688-0.06-5.372-0.149-8.056-0.245c-5.365-0.196-10.729-0.444-16.087-0.705c-10.72-0.515-21.435-1.138-32.145-1.606
					c-1.339-0.056-2.677-0.103-4.011-0.136c-0.665-0.013-1.336-0.027-1.986-0.013c-0.341,0.013-0.609,0.004-0.888,0.085
					c-0.286,0.074-0.598,0.183-0.904,0.292c-2.465,0.939-4.904,2.086-7.331,3.208c-2.425,1.136-4.841,2.298-7.25,3.471l-3.619,1.78
					l-1.803,0.892l-0.899,0.448l-0.451,0.225l-0.225,0.112l-0.112,0.056l-0.062,0.031C74.458,169.327,74.322,169.345,74.22,169.329z
					 M74.434,168.569c-0.065-0.036-0.163-0.036-0.223-0.004l0.049-0.025l0.112-0.058l0.223-0.114l0.448-0.23l0.897-0.457l1.796-0.91
					l3.596-1.807c2.403-1.198,4.81-2.385,7.233-3.547c2.432-1.151,4.841-2.316,7.38-3.311c0.323-0.12,0.642-0.239,1.006-0.335
					c0.368-0.109,0.781-0.109,1.107-0.125c0.692-0.022,1.361-0.013,2.037-0.007c1.347,0.02,2.69,0.056,4.034,0.098
					c10.733,0.368,21.448,0.89,32.168,1.303c5.359,0.21,10.717,0.406,16.076,0.553c2.679,0.071,5.356,0.136,8.034,0.17l4.013,0.027
					l2.003-0.011c0.678,0.007,1.365,0.004,2.048,0.022c2.733,0.096,5.459,0.442,8.132,1.02c2.668,0.6,5.292,1.41,7.817,2.458
					c2.532,1.031,4.968,2.289,7.3,3.719c1.165,0.716,2.298,1.484,3.4,2.298c1.109,0.823,2.157,1.658,3.208,2.646l-1.515,0.127l0,0
					c2.046-2.809,3.81-5.843,5.178-9.062c1.394-3.208,2.441-6.577,3.199-10.01c0.763-3.436,1.216-6.943,1.426-10.467
					c0.192-3.518,0.165-7.083-0.236-10.57l-0.147-1.269l0.83,0.946l0,0l4.096,3.536l-1.825,0.466l0,0
					c0.957-3.806,1.356-7.761,1.149-11.703c-0.199-3.942-0.968-7.862-2.189-11.643c-1.223-3.784-2.887-7.431-4.881-10.894
					c-2.003-3.449-4.31-6.771-6.969-9.725l0,0l-0.562-0.486l0.77-0.176c0.868-0.199,1.693-0.259,2.55-0.268
					c0.85,0,1.704,0.062,2.548,0.203c0.841,0.149,1.687,0.332,2.503,0.614c0.825,0.259,1.62,0.605,2.407,0.977l0,0l-1.606,1.477
					c-2.097-4.529-4.564-8.895-7.532-12.892c-2.954-4.002-6.436-7.625-10.459-10.541c-4.016-2.914-8.591-5.075-13.448-6.173
					c-2.425-0.547-4.913-0.846-7.404-0.863c-2.481-0.011-5.015,0.21-7.387,0.837h-0.002l-0.881,0.341l0.406-0.89
					c0.433-0.946,0.939-1.805,1.501-2.653c0.562-0.841,1.171-1.655,1.84-2.425c0.667-0.77,1.374-1.51,2.142-2.193
					c0.754-0.698,1.577-1.321,2.418-1.925h0.002l0.321,1.948c-5.896-1.385-11.866-2.461-17.885-3.07
					c-6.017-0.616-12.087-0.689-18.099-0.123c-3.001,0.323-5.986,0.796-8.917,1.501c-2.927,0.718-5.798,1.667-8.558,2.876
					c-2.762,1.202-5.388,2.711-7.808,4.495c-1.202,0.901-2.356,1.87-3.422,2.927c-1.053,1.053-2.075,2.202-2.851,3.424l0,0
					L98.019,70.7l0.277-2.358l1.118-9.501l0,0L101,60.092c-3.362,1.472-6.606,3.213-9.638,5.272l-1.133,0.776l-1.098,0.823
					c-0.743,0.538-1.43,1.14-2.142,1.718c-1.372,1.209-2.717,2.456-3.926,3.833c-1.218,1.365-2.351,2.806-3.369,4.33
					c-1.011,1.528-1.905,3.132-2.664,4.801c-0.763,1.666-1.376,3.402-1.832,5.18c-0.451,1.767-0.767,3.619-0.779,5.406l0,0
					l0.125,0.852l-0.772-0.531l-4.529-3.11l0,0l1.461-0.379c-0.643,1.597-1.144,3.25-1.459,4.944
					c-0.315,1.693-0.439,3.424-0.384,5.16c0.103,3.48,0.962,6.925,1.979,10.322l0,0l0.245,0.596l-0.696-0.087
					c-1.296-0.161-2.534-0.627-3.674-1.238c-0.569-0.31-1.12-0.651-1.649-1.026c-0.535-0.381-1.026-0.759-1.546-1.243l0,0
					l1.731-0.471c-1.151,5.323-2.048,10.688-2.409,16.101c-0.377,5.408-0.196,10.853,0.582,16.221
					c0.781,5.368,2.155,10.653,4.085,15.739c0.962,2.543,2.044,5.044,3.237,7.491c0.618,1.214,1.22,2.436,1.887,3.625
					c0.323,0.593,0.667,1.22,0.953,1.722C73.883,167.444,74.151,167.991,74.434,168.569z"/>
			</g>
		</g>
		<g>
			
				<ellipse transform="matrix(0.0207 -0.9998 0.9998 0.0207 2.5142 263.8186)" class="st5" cx="135.926" cy="130.626" rx="32.755" ry="16.87"/>
		</g>
		<g>
			<path class="st6" d="M114.562,93.949c-31.692-7.398-37.529,17.928-37.529,17.928s-4.962-4.174-4.498-16.906
				c3.462,9.316,6.445,10.309,8.571,10.9c0.823,0.228,0,0-0.339-0.783c-5.903-13.626,4.259-32.409,14.278-38.791
				c-2.958,9.91-1.591,15.869,1.051,22.847c0.524-2.079-1.602-32.587,59.657-31.315c0,0-8.029,8.098-8.524,15.092
				c10.204-5.74,34.28-2.059,51.682,13.705c0,0-8.406-2.349-11.306,1.981c14.512,8.884,21.934,26.32,19.886,38.463
				c-5.176-6.423-22.454-33.169-29.687-26.325c-10.093-11.404-32.549,1.004-41.12,16.446
				C136.683,117.19,120.931,95.434,114.562,93.949z"/>
		</g>
		<g>
			<g>
				<path class="st7" d="M126.504,126.596c0.477,16.645-1.653,30.769-14.965,32.598c-10.347,1.423-20.52-11.306-23.208-26.077
					c-3.001-16.498-4.054-30.744,14.72-35.657C121.823,92.548,125.868,104.394,126.504,126.596z"/>
			</g>
			<g>
				<path d="M127.131,126.578c0.123,3.505,0.143,7.021-0.08,10.543c-0.234,3.516-0.694,7.054-1.754,10.488
					c-0.538,1.711-1.225,3.395-2.164,4.964c-0.933,1.568-2.115,3.023-3.556,4.199c-1.434,1.185-3.112,2.066-4.866,2.637
					c-0.879,0.283-1.776,0.497-2.679,0.643c-0.908,0.154-1.87,0.216-2.806,0.165c-1.885-0.087-3.717-0.625-5.381-1.421
					c-1.671-0.792-3.184-1.849-4.54-3.05c-2.711-2.409-4.881-5.319-6.588-8.44c-1.711-3.121-3.005-6.447-3.904-9.863
					c-0.446-1.707-0.79-3.451-1.066-5.178c-0.283-1.727-0.547-3.458-0.77-5.198c-0.451-3.474-0.772-6.983-0.622-10.51
					c0.149-3.507,0.854-7.097,2.657-10.209c0.904-1.544,2.066-2.938,3.407-4.116c1.339-1.189,2.865-2.139,4.455-2.923
					c1.591-0.788,3.264-1.383,4.959-1.861c1.698-0.473,3.418-0.85,5.167-1.091c1.747-0.225,3.52-0.339,5.287-0.174
					c1.76,0.17,3.523,0.614,5.109,1.448c1.588,0.83,2.956,2.057,4.022,3.485c1.073,1.43,1.883,3.03,2.521,4.68
					c1.265,3.315,1.91,6.809,2.367,10.289C126.758,119.573,126.981,123.078,127.131,126.578z M125.877,126.614
					c-0.06-3.482-0.194-6.963-0.547-10.416c-0.364-3.447-0.912-6.896-2.066-10.148c-0.585-1.617-1.316-3.19-2.331-4.569
					c-1.004-1.381-2.284-2.561-3.786-3.373c-1.495-0.825-3.188-1.265-4.899-1.414c-1.713-0.156-3.451-0.049-5.16,0.221
					c-3.413,0.564-6.782,1.562-9.861,3.09c-1.535,0.774-2.976,1.72-4.266,2.838c-1.287,1.12-2.396,2.438-3.266,3.906
					c-1.76,2.938-2.519,6.398-2.697,9.843c-0.103,1.729-0.049,3.467,0.08,5.198c0.134,1.731,0.321,3.462,0.593,5.182
					c0.268,1.72,0.576,3.436,0.906,5.149c0.315,1.716,0.701,3.393,1.216,5.046c1.015,3.302,2.412,6.481,4.185,9.417
					c1.785,2.92,3.909,5.651,6.492,7.815c1.294,1.071,2.686,2.012,4.176,2.713c1.49,0.698,3.081,1.138,4.687,1.24
					c0.808,0.051,1.6,0.011,2.416-0.12c0.821-0.125,1.633-0.299,2.421-0.54c1.573-0.484,3.054-1.229,4.335-2.251
					c2.592-2.032,4.272-5.084,5.316-8.301c1.051-3.239,1.553-6.673,1.832-10.117C125.919,133.572,125.95,130.092,125.877,126.614z"
					/>
			</g>
		</g>
		<g>
			<path d="M131.363,125.855c0.841,16.739-1.843,29.397-15.181,31.034c-9.847,1.209-20.306-9.742-22.992-24.513
				c-3.001-16.498-4.054-30.744,14.72-35.657C126.68,91.807,130.147,101.663,131.363,125.855z"/>
			<path d="M114.655,157.311c-9.655,0-19.215-10.731-21.789-24.875c-3.052-16.774-4.034-31.063,14.961-36.036
				c7.362-1.925,12.44-1.615,15.985,0.982c5.58,4.087,7.152,13.919,7.884,28.455l0,0c0.48,9.542-0.25,16.315-2.298,21.321
				c-2.445,5.979-6.753,9.269-13.171,10.057C115.699,157.28,115.177,157.311,114.655,157.311z M116.083,95.82
				c-2.313,0-4.991,0.408-8.092,1.218c-18.445,4.828-17.47,18.833-14.479,35.28c2.653,14.575,12.805,25.444,22.628,24.243
				c11.295-1.385,15.889-10.851,14.891-30.691l0,0c-0.721-14.345-2.247-24.025-7.614-27.956
				C121.509,96.516,119.106,95.82,116.083,95.82z"/>
		</g>
		<g>
			<g>
				<path class="st7" d="M146.225,129.918c1.972,16.643,9.626,31.581,23.01,30.314c10.403-0.984,16.968-15.318,16.634-30.697
					c-0.348-16.036-3.09-30.856-22.499-31.342C143.963,97.708,143.204,104.45,146.225,129.918z"/>
			</g>
			<g>
				<path d="M146.794,129.849c0.448,3.467,1.14,6.9,2.142,10.235c1.004,3.329,2.311,6.575,4.071,9.533
					c1.756,2.947,3.993,5.635,6.809,7.456c2.802,1.829,6.184,2.599,9.495,2.22c1.617-0.174,3.179-0.73,4.589-1.571
					c1.412-0.839,2.664-1.965,3.772-3.226c2.209-2.545,3.793-5.651,4.939-8.888c1.144-3.248,1.849-6.659,2.204-10.106
					c0.183-1.722,0.277-3.458,0.281-5.191c-0.007-1.738-0.051-3.5-0.134-5.243c-0.178-3.489-0.531-6.972-1.334-10.345
					c-0.805-3.358-2.106-6.633-4.248-9.314c-1.064-1.339-2.34-2.505-3.768-3.451c-1.426-0.953-3.012-1.662-4.656-2.182
					c-1.646-0.522-3.362-0.837-5.091-1.022c-1.727-0.178-3.482-0.207-5.236-0.201c-1.749,0.016-3.498,0.107-5.218,0.361
					c-1.713,0.257-3.418,0.692-4.921,1.506c-1.508,0.801-2.76,2.03-3.549,3.543c-0.803,1.508-1.194,3.219-1.41,4.935
					c-0.415,3.453-0.201,6.976,0.083,10.47C145.915,122.864,146.348,126.357,146.794,129.849z M145.654,129.985
					c-0.377-3.507-0.736-7.018-0.968-10.548c-0.212-3.527-0.355-7.085,0.118-10.637c0.248-1.767,0.694-3.54,1.55-5.153
					c0.841-1.62,2.215-2.965,3.824-3.81c1.606-0.863,3.373-1.305,5.129-1.6c1.762-0.283,3.54-0.395,5.314-0.433
					c1.769-0.029,3.545-0.02,5.325,0.141c1.776,0.17,3.547,0.471,5.267,0.995c1.72,0.515,3.384,1.254,4.915,2.224
					c1.528,0.97,2.909,2.184,4.067,3.581c2.331,2.802,3.757,6.218,4.656,9.671c0.901,3.471,1.325,7.025,1.573,10.566
					c0.118,1.776,0.199,3.534,0.239,5.321c0.029,1.789-0.036,3.578-0.192,5.363c-0.33,3.565-1.028,7.11-2.195,10.523
					c-1.173,3.402-2.802,6.711-5.196,9.526c-1.196,1.401-2.603,2.659-4.225,3.616c-1.615,0.959-3.451,1.608-5.343,1.805
					c-1.852,0.196-3.741,0.103-5.562-0.344c-1.82-0.439-3.545-1.234-5.089-2.258c-3.094-2.073-5.423-5.004-7.199-8.127
					c-1.785-3.139-3.061-6.51-4.025-9.941C146.678,137.025,146.042,133.514,145.654,129.985z"/>
			</g>
		</g>
		<g>
			<g>
				<path d="M151.195,127.872c2.307,16.6,10.461,34.539,22.885,29.401c7.34-3.036,16.31-14.119,16.783-29.125
					c0.667-21.171-3.09-30.856-22.499-31.342S147.773,103.227,151.195,127.872z"/>
			</g>
			<g>
				<path d="M151.818,127.785c0.504,3.427,1.231,6.82,2.211,10.133c0.984,3.311,2.211,6.552,3.815,9.58
					c0.803,1.51,1.707,2.965,2.737,4.301c1.031,1.336,2.204,2.554,3.536,3.516c1.327,0.959,2.829,1.644,4.399,1.867
					c1.568,0.236,3.184-0.002,4.701-0.564c1.524-0.564,2.956-1.446,4.29-2.45c1.343-1.002,2.572-2.171,3.71-3.422
					c1.142-1.252,2.189-2.599,3.13-4.018c0.937-1.423,1.767-2.92,2.51-4.46c1.479-3.085,2.525-6.392,3.099-9.789
					c0.297-1.7,0.448-3.413,0.509-5.153c0.067-1.74,0.109-3.48,0.1-5.22c0-1.74-0.085-3.478-0.236-5.207
					c-0.158-1.727-0.375-3.453-0.767-5.138c-0.384-1.684-0.901-3.34-1.635-4.888c-0.738-1.546-1.691-2.987-2.885-4.196
					c-1.189-1.214-2.592-2.211-4.127-2.954c-1.535-0.747-3.177-1.276-4.852-1.664c-3.364-0.756-6.851-0.968-10.325-0.973
					c-1.736,0.009-3.476,0.08-5.187,0.337c-1.704,0.257-3.404,0.663-4.93,1.434c-1.526,0.761-2.833,1.923-3.692,3.382
					c-0.87,1.457-1.316,3.139-1.559,4.834c-0.241,1.7-0.283,3.433-0.245,5.165c0.04,1.731,0.17,3.462,0.337,5.194
					C150.803,120.887,151.296,124.338,151.818,127.785z M150.575,127.957c-0.433-3.469-0.839-6.947-1.091-10.447
					c-0.123-1.749-0.207-3.505-0.203-5.267c0.007-1.76,0.091-3.529,0.386-5.281c0.297-1.745,0.805-3.494,1.747-5.037
					c0.937-1.546,2.363-2.771,3.973-3.543c1.615-0.772,3.349-1.211,5.089-1.472c1.745-0.254,3.5-0.37,5.254-0.417
					c3.498-0.069,7.041,0.038,10.505,0.792c1.729,0.37,3.436,0.917,5.037,1.716c1.6,0.79,3.09,1.841,4.326,3.141
					c1.24,1.298,2.215,2.827,2.956,4.442c0.741,1.617,1.254,3.322,1.626,5.044c0.747,3.451,0.982,6.967,1.091,10.467
					c0.056,1.751,0.06,3.505,0.038,5.254c-0.025,1.751-0.107,3.527-0.328,5.281c-0.435,3.514-1.359,6.976-2.753,10.258
					c-1.388,3.284-3.295,6.356-5.64,9.082c-2.383,2.673-5.22,5.082-8.743,6.385c-1.756,0.629-3.712,0.888-5.6,0.571
					c-1.892-0.299-3.643-1.151-5.12-2.255c-1.481-1.113-2.733-2.458-3.815-3.897c-1.082-1.441-2.008-2.978-2.822-4.562
					c-1.626-3.17-2.838-6.51-3.797-9.903C151.735,134.908,151.042,131.448,150.575,127.957z"/>
			</g>
		</g>
		<g>
			<g>
				<path class="st8" d="M70.523,129.597c6.454-11.57,28.127-41.836,58.064-23.654c1.74-23.811-33.024-29.417-50.577-7.224
					c6.708,0.636,7.411,1.443,7.411,1.443S73.073,102.883,70.523,129.597z"/>
			</g>
			<g>
				<g>
					<path d="M70.637,129.235c-0.004-0.098-0.038-0.194-0.08-0.252c-0.042-0.06-0.076-0.083-0.071-0.112
						c-0.009-0.007,0.065-0.129,0.103-0.201l0.134-0.245l0.542-0.979c0.364-0.651,0.75-1.289,1.136-1.928
						c0.781-1.272,1.593-2.523,2.443-3.75c1.691-2.463,3.554-4.808,5.553-7.039c3.989-4.455,8.614-8.451,13.972-11.306
						c2.677-1.417,5.53-2.539,8.5-3.233c2.969-0.683,6.048-0.948,9.087-0.709c3.043,0.21,6.028,0.924,8.857,1.981
						c2.831,1.062,5.493,2.499,7.978,4.156l0,0l-0.576,0.297c0.078-2.769-0.268-5.546-1.285-8.069
						c-0.502-1.26-1.131-2.463-1.903-3.567c-0.772-1.104-1.682-2.106-2.684-3.005c-2.008-1.796-4.415-3.126-6.967-4.029
						c-2.559-0.892-5.263-1.394-7.989-1.501c-5.457-0.228-10.963,0.959-15.947,3.264c-4.995,2.3-9.472,5.733-13.127,9.95
						l-0.261-0.614c1.272,0.047,2.545,0.112,3.828,0.234c0.64,0.062,1.283,0.136,1.934,0.248c0.326,0.054,0.654,0.123,0.988,0.205
						c0.17,0.047,0.339,0.091,0.52,0.156c0.089,0.029,0.185,0.071,0.283,0.114c0.056,0.027,0.103,0.047,0.165,0.085
						c0.078,0.056,0.085,0.025,0.288,0.221l0.004,0.004l0.948,1.046l-1.403,0.33c-0.223,0.054-0.576,0.176-0.866,0.301
						c-0.303,0.127-0.605,0.279-0.901,0.435c-0.593,0.321-1.162,0.703-1.707,1.118c-1.098,0.825-2.079,1.823-2.972,2.891
						c-1.778,2.155-3.181,4.645-4.281,7.262c-1.107,2.617-1.945,5.359-2.574,8.15c-0.317,1.397-0.587,2.804-0.819,4.219
						l-0.319,2.081c-0.042,0.29-0.112,0.547-0.216,0.832C70.847,128.561,70.728,128.887,70.637,129.235z M70.412,129.96
						c-0.013-0.37-0.054-0.761-0.078-1.194c-0.027-0.431-0.018-0.89,0.018-1.318l0.029-0.319l0.033-0.272l0.067-0.54l0.136-1.08
						c0.196-1.439,0.433-2.871,0.716-4.299c0.564-2.853,1.345-5.675,2.412-8.404c1.062-2.728,2.447-5.363,4.281-7.715
						c0.924-1.167,1.95-2.271,3.134-3.215c0.589-0.475,1.211-0.917,1.876-1.301c0.335-0.19,0.674-0.373,1.033-0.533
						c0.37-0.165,0.694-0.303,1.169-0.431l-0.453,1.376l0.002,0.004c0.145,0.141,0.083,0.069,0.096,0.083
						c-0.004-0.007-0.029-0.02-0.042-0.031c-0.045-0.025-0.089-0.054-0.147-0.083c-0.112-0.058-0.243-0.112-0.373-0.165
						c-0.27-0.103-0.553-0.199-0.846-0.286c-0.582-0.176-1.187-0.323-1.796-0.457c-1.22-0.27-2.461-0.486-3.708-0.687l-0.634-0.1
						l0.37-0.513C81.042,93.875,85.51,90,90.686,87.448c5.158-2.566,10.974-3.906,16.781-3.632c2.896,0.138,5.796,0.667,8.531,1.696
						c2.733,1.015,5.323,2.516,7.451,4.553c2.146,2.008,3.781,4.567,4.698,7.338c0.917,2.775,1.151,5.725,0.819,8.565l-0.069,0.591
						l-0.506-0.294l0,0c-5.158-2.813-10.775-4.799-16.549-5.089c-5.76-0.328-11.541,1.089-16.663,3.799
						c-2.57,1.339-5.004,2.96-7.284,4.779c-2.284,1.816-4.437,3.81-6.45,5.945c-2.019,2.131-3.88,4.411-5.662,6.751
						c-0.888,1.173-1.738,2.376-2.561,3.598c-0.41,0.611-0.812,1.229-1.209,1.849l-0.589,0.935l-0.319,0.518
						c-0.087,0.132-0.21,0.272-0.346,0.373C70.63,129.831,70.505,129.898,70.412,129.96z"/>
				</g>
			</g>
		</g>
		<g>
			<g>
				<path class="st8" d="M202.861,131.326c-5.968-11.828-26.369-42.965-57.033-26.042c-0.75-23.862,34.216-28.02,50.834-5.12
					c-6.728,0.357-7.465,1.136-7.465,1.136S201.422,104.53,202.861,131.326z"/>
			</g>
			<g>
				<g>
					<path d="M202.957,131.694c-0.091-0.067-0.214-0.138-0.344-0.245c-0.129-0.107-0.248-0.252-0.33-0.388l-0.299-0.531
						l-0.549-0.959c-0.37-0.636-0.747-1.269-1.131-1.899c-0.77-1.256-1.571-2.492-2.409-3.701c-1.684-2.414-3.449-4.767-5.377-6.981
						c-1.921-2.215-3.989-4.299-6.198-6.206c-2.202-1.914-4.567-3.632-7.079-5.078c-5.004-2.92-10.72-4.573-16.489-4.486
						c-5.78,0.049-11.476,1.8-16.745,4.397l0,0l-0.518,0.274l-0.045-0.593c-0.214-2.851,0.143-5.789,1.173-8.524
						c1.031-2.731,2.769-5.22,4.997-7.137c2.209-1.948,4.861-3.34,7.632-4.241c2.775-0.915,5.693-1.321,8.593-1.339
						c5.812-0.033,11.567,1.548,16.616,4.326c5.066,2.764,9.368,6.82,12.509,11.563l0.35,0.526l-0.636,0.074
						c-1.254,0.147-2.503,0.315-3.735,0.531c-0.614,0.109-1.225,0.232-1.814,0.384c-0.294,0.074-0.582,0.158-0.857,0.25
						c-0.132,0.049-0.265,0.096-0.379,0.149c-0.06,0.025-0.107,0.054-0.152,0.076c-0.013,0.011-0.04,0.025-0.045,0.029
						c0.013-0.013-0.054,0.058,0.098-0.078l0.004-0.004l-0.397-1.394c0.468,0.147,0.788,0.299,1.149,0.48
						c0.35,0.176,0.683,0.373,1.011,0.576c0.649,0.413,1.254,0.879,1.82,1.379c1.144,0.993,2.126,2.137,2.998,3.342
						c1.736,2.423,3.01,5.116,3.958,7.884c0.955,2.771,1.615,5.624,2.061,8.498c0.225,1.437,0.402,2.88,0.538,4.324l0.091,1.084
						l0.045,0.542l0.022,0.274l0.016,0.319c0.018,0.428,0.009,0.888-0.036,1.318C203.042,130.935,202.986,131.326,202.957,131.694z
						 M202.763,130.96c-0.078-0.35-0.181-0.683-0.274-0.97c-0.094-0.29-0.152-0.549-0.183-0.841l-0.228-2.088
						c-0.174-1.423-0.386-2.842-0.645-4.25c-0.513-2.815-1.238-5.588-2.235-8.25c-0.991-2.659-2.287-5.205-3.975-7.433
						c-0.848-1.107-1.787-2.142-2.849-3.014c-0.526-0.439-1.08-0.843-1.66-1.189c-0.29-0.17-0.585-0.335-0.881-0.473
						c-0.283-0.138-0.629-0.274-0.852-0.337l-1.388-0.388l0.991-1.006l0.004-0.004c0.212-0.187,0.214-0.156,0.297-0.21
						c0.065-0.033,0.112-0.051,0.167-0.078c0.1-0.038,0.199-0.076,0.288-0.1c0.183-0.058,0.355-0.096,0.527-0.134
						c0.339-0.069,0.669-0.123,0.997-0.163c0.656-0.085,1.298-0.132,1.943-0.167c1.285-0.069,2.561-0.083,3.835-0.076l-0.288,0.602
						c-3.476-4.364-7.808-7.98-12.703-10.485c-4.886-2.508-10.336-3.922-15.797-3.922c-2.728-0.004-5.45,0.384-8.045,1.169
						c-2.588,0.796-5.046,2.026-7.128,3.737c-1.037,0.857-1.988,1.82-2.804,2.891c-0.819,1.071-1.497,2.247-2.05,3.485
						c-1.12,2.481-1.582,5.24-1.617,8.009l-0.562-0.321l0,0c2.552-1.553,5.272-2.88,8.143-3.822c2.869-0.937,5.883-1.526,8.93-1.611
						c3.045-0.112,6.11,0.281,9.049,1.086c2.938,0.817,5.742,2.057,8.359,3.583c5.236,3.076,9.691,7.257,13.49,11.875
						c1.903,2.313,3.668,4.734,5.256,7.264c0.799,1.26,1.557,2.548,2.284,3.848c0.361,0.654,0.721,1.305,1.055,1.972l0.502,0.999
						l0.123,0.252c0.033,0.071,0.103,0.199,0.094,0.203c0.002,0.029-0.031,0.049-0.076,0.107
						C202.808,130.768,202.77,130.861,202.763,130.96z"/>
				</g>
			</g>
		</g>
		<g>
			
				<ellipse transform="matrix(0.0207 -0.9998 0.9998 0.0207 1.7066 230.5066)" class="st7" cx="118.518" cy="114.382" rx="8.226" ry="5.767"/>
			<path d="M118.432,123.067c-0.031,0-0.062,0-0.094,0c-3.429-0.071-6.137-4.022-6.037-8.805c0.098-4.783,2.954-8.618,6.398-8.547
				c3.429,0.071,6.137,4.022,6.037,8.805C124.639,119.258,121.819,123.067,118.432,123.067z M118.604,106.618
				c-2.896,0-5.31,3.413-5.397,7.661c-0.089,4.286,2.222,7.822,5.151,7.882c0.025,0,0.051,0,0.076,0c2.896,0,5.31-3.413,5.397-7.661
				c0.089-4.286-2.222-7.822-5.151-7.882C118.655,106.618,118.629,106.618,118.604,106.618z"/>
		</g>
		<g>
			
				<ellipse transform="matrix(0.0207 -0.9998 0.9998 0.0207 -19.0729 238.1882)" class="st7" cx="112.049" cy="128.83" rx="4.114" ry="2.882"/>
			<path d="M112.007,133.175c-0.016,0-0.031,0-0.047,0c-1.713-0.036-3.068-2.01-3.018-4.404c0.025-1.144,0.361-2.218,0.948-3.018
				c0.605-0.825,1.426-1.265,2.251-1.254c1.716,0.036,3.07,2.01,3.018,4.402C115.11,131.272,113.7,133.175,112.007,133.175z
				 M112.092,124.95c-0.68,0-1.332,0.379-1.838,1.071c-0.533,0.727-0.839,1.709-0.861,2.762c-0.045,2.142,1.111,3.911,2.577,3.942
				c0.013,0,0.027,0,0.038,0c1.448,0,2.655-1.707,2.699-3.83l0,0c0.045-2.142-1.111-3.911-2.577-3.94
				C112.119,124.95,112.105,124.95,112.092,124.95z"/>
		</g>
		<g>
			
				<ellipse transform="matrix(0.0207 -0.9998 0.9998 0.0207 57.2046 287.1606)" class="st7" cx="175.186" cy="114.38" rx="8.226" ry="5.767"/>
			<path d="M175.102,123.067c-0.031,0-0.062,0-0.094,0c-3.429-0.071-6.137-4.022-6.037-8.805c0.047-2.289,0.721-4.433,1.896-6.037
				c1.211-1.653,2.833-2.543,4.502-2.51c3.429,0.071,6.137,4.022,6.037,8.805l0,0C181.308,119.258,178.489,123.067,175.102,123.067z
				 M175.274,106.618c-1.361,0-2.664,0.756-3.677,2.139c-1.066,1.457-1.678,3.418-1.722,5.522c-0.089,4.286,2.222,7.822,5.151,7.882
				c0.025,0,0.051,0,0.076,0c2.896,0,5.31-3.413,5.397-7.661c0.089-4.286-2.222-7.822-5.151-7.882
				C175.325,106.618,175.298,106.618,175.274,106.618z"/>
		</g>
		<g>
			
				<ellipse transform="matrix(0.0207 -0.9998 0.9998 0.0207 36.4232 294.8396)" class="st7" cx="168.715" cy="128.827" rx="4.114" ry="2.882"/>
			<path d="M168.677,133.175c-0.016,0-0.031,0-0.047,0c-1.713-0.036-3.07-2.01-3.018-4.404c0.025-1.144,0.361-2.218,0.948-3.018
				c0.605-0.828,1.428-1.267,2.251-1.254c1.713,0.036,3.07,2.01,3.018,4.402c-0.025,1.144-0.359,2.218-0.948,3.018
				C170.288,132.731,169.505,133.175,168.677,133.175z M168.762,124.95c-0.68,0-1.332,0.379-1.838,1.071
				c-0.533,0.727-0.839,1.709-0.861,2.762c-0.045,2.142,1.111,3.911,2.577,3.942c0.696,0.004,1.361-0.366,1.876-1.069
				c0.533-0.727,0.839-1.709,0.861-2.762l0,0c0.045-2.142-1.111-3.911-2.577-3.94C168.789,124.95,168.775,124.95,168.762,124.95z"/>
		</g>
		<g>
			<path class="st9" d="M136.777,182.646c-1.049,0.029-2.093,0.087-3.11,0.12c-2.628,0.087-3.476,0.912-6.766,2.247
				c-1.615,0.656-3.358,1.347-4.212,2.867c-2.711-1.042-4.172-3.741-6.276-5.64c-3.221-2.907-3.248-6.485-3.973-8.23
				c-1.006-2.414,0.649-0.475,1.006-2.82c0.042-0.283,0.109-0.602,0.355-0.747c0.167-0.1,0.375-0.089,0.569-0.067
				c2.911,0.348,4.966,2.905,7.413,4.52c0.799,0.529,2.008-0.491,2.894-0.136c0.946,0.377,1.838-0.535,2.648-0.033
				c1.774,1.1,4.417,1.115,6.434,1.182c2.505,0.085,5.013,0.036,7.512-0.145c2.079-0.152,2.88,0.408,4.663-0.616l9.821-4.437
				c1.073-0.616,2.496-0.676,3.427,0.141c0.007,0.004,0.011,0.011,0.018,0.016c0.196,0.187,0.232,0.484,0.245,0.756
				c0.149,3.027-0.924,6.097-2.925,8.373c-1.292,1.468-2.16,3.103-3.027,4.834c-0.533,1.069-2.467,2.782-3.652,1.82
				c-2.099-1.702-4.522-2.717-7.15-3.467C140.797,182.646,138.778,182.592,136.777,182.646z"/>
		</g>
		<g>
			<path class="st10" d="M136.889,191.748c-1.992-0.094-3.978-0.348-5.93-0.761c-1.872-0.395-3.607-1.057-5.43-1.595
				c-1.167-0.344-3.817-0.857-2.001-2.412c1.37-1.173,3.03-2.012,4.698-2.67c1.747-0.689,3.311-0.785,5.104-1.185
				c2.36-0.524,4.29-0.736,6.673-0.33c2.267,0.386,4.176,1.22,6.356,1.957c1.269,0.428,2.63,0.89,3.416,2.055
				c0.6,0.89-6.537,4.518-7.197,4.683c-0.616,0.156-1.252,0.207-1.885,0.243C139.427,191.804,138.156,191.808,136.889,191.748z"/>
		</g>
		<g>
			<path d="M112.554,171.707c0.718,2.599,1.825,5.051,3.349,7.208c1.504,2.168,3.4,4.034,5.528,5.566
				c2.139,1.517,4.506,2.724,7.003,3.543c2.492,0.83,5.1,1.327,7.723,1.417c2.621,0.114,5.258-0.156,7.777-0.861
				c2.528-0.669,4.915-1.818,7.034-3.346c2.11-1.544,3.929-3.509,5.323-5.778c1.421-2.26,2.398-4.808,3.11-7.458l0.442,0.076
				c-0.279,2.771-1.022,5.53-2.28,8.089c-1.269,2.55-3.079,4.875-5.319,6.713c-2.222,1.865-4.861,3.201-7.619,4.078
				c-2.773,0.848-5.68,1.209-8.564,1.127c-5.762-0.201-11.494-2.122-16.063-5.687c-2.284-1.769-4.248-3.96-5.725-6.432
				c-1.466-2.476-2.441-5.229-2.815-8.036L112.554,171.707z"/>
		</g>
		<g>
			<path d="M122.633,187.873c1.564-2.023,3.779-3.538,6.171-4.52c0.605-0.228,1.216-0.448,1.832-0.649l1.885-0.475l1.921-0.286
				c0.645-0.045,1.292-0.096,1.939-0.123c2.586-0.04,5.185,0.326,7.628,1.169c2.436,0.832,4.752,2.131,6.528,3.964l-0.225,0.272
				c-2.097-1.336-4.37-2.251-6.717-2.838c-2.349-0.573-4.765-0.841-7.175-0.779c-0.6,0.047-1.202,0.065-1.803,0.098l-1.789,0.23
				l-1.771,0.341c-0.58,0.154-1.153,0.33-1.74,0.477c-2.296,0.727-4.486,1.814-6.456,3.342L122.633,187.873z"/>
		</g>
		<g>
			<g>
				<path class="st11" d="M170.935,146.13c-19.048,0.185-29.303,6.488-35.467,6.548c-6.164,0.06-16.542-6.041-35.588-5.856
					s-21.388,13.93-45.123,18.387c28.46,18.204,44.478-0.788,57.25,6.606c12.772,7.393,34.664,7.179,47.289-0.462
					c12.625-7.641,36.473,19.726,58.997-5.214C193.309,163.551,189.98,145.945,170.935,146.13z"/>
			</g>
			<g>
				<path d="M170.941,146.893c-5.031,0.109-10.041,0.709-14.929,1.818c-2.445,0.549-4.866,1.2-7.268,1.932
					c-2.405,0.738-4.788,1.546-7.259,2.282c-1.236,0.368-2.508,0.698-3.851,0.933c-0.676,0.109-1.37,0.196-2.099,0.21
					c-0.727,0.004-1.43-0.062-2.11-0.156c-2.695-0.428-5.116-1.214-7.558-1.896c-4.852-1.421-9.705-2.606-14.664-3.264
					c-2.476-0.335-4.968-0.547-7.467-0.651c-1.249-0.054-2.501-0.071-3.752-0.071l-1.843,0.047
					c-0.609,0.051-1.225,0.074-1.829,0.149c-2.427,0.274-4.825,0.776-7.103,1.664c-2.291,0.854-4.464,2.046-6.592,3.362
					c-2.128,1.321-4.223,2.76-6.383,4.129c-2.157,1.376-4.402,2.65-6.724,3.757c-4.656,2.211-9.631,3.677-14.673,4.484l0,0
					l0.147-0.756c3.054,1.834,6.233,3.449,9.537,4.718c3.304,1.265,6.74,2.155,10.227,2.57c3.485,0.444,7.014,0.413,10.508-0.002
					c3.5-0.402,6.956-1.185,10.463-1.968c3.5-0.752,7.13-1.595,10.992-1.249c1.914,0.174,3.851,0.718,5.573,1.653l1.176,0.634
					c0.373,0.212,0.77,0.386,1.156,0.578c0.384,0.194,0.785,0.359,1.182,0.531c0.395,0.178,0.799,0.335,1.202,0.489
					c3.233,1.254,6.65,2.086,10.115,2.568c3.467,0.495,6.987,0.634,10.49,0.504c3.505-0.141,6.996-0.6,10.396-1.403
					c3.389-0.828,6.711-1.965,9.738-3.621l1.158-0.651c0.439-0.252,0.901-0.468,1.372-0.649c0.944-0.366,1.93-0.585,2.907-0.689
					c1.963-0.207,3.871,0.011,5.689,0.381c3.643,0.756,7.03,2.015,10.423,3.143c3.384,1.144,6.764,2.22,10.215,2.898
					c3.445,0.687,6.963,0.937,10.421,0.526c3.453-0.415,6.82-1.553,9.852-3.322c3.036-1.762,5.767-4.065,8.212-6.639l0,0
					l0.265,0.689c-2.184-0.243-4.359-0.587-6.503-1.086c-2.139-0.52-4.245-1.187-6.287-2.015c-4.103-1.626-7.889-3.96-11.438-6.517
					c-3.561-2.541-6.978-5.269-10.795-7.215c-1.903-0.973-3.9-1.736-5.965-2.209C175.194,147.042,173.067,146.855,170.941,146.893z
					 M170.926,145.369c2.235,0.004,4.482,0.245,6.659,0.788c2.177,0.544,4.268,1.394,6.227,2.445
					c3.94,2.099,7.304,4.95,10.816,7.498c3.489,2.577,7.161,4.906,11.161,6.546c1.997,0.819,4.058,1.477,6.155,1.997
					c2.104,0.5,4.241,0.843,6.392,1.091l0.823,0.096l-0.558,0.596l0,0c-2.369,2.728-5.069,5.225-8.187,7.152
					c-3.099,1.948-6.624,3.273-10.273,3.831c-3.654,0.576-7.384,0.35-10.976-0.288c-3.603-0.634-7.09-1.673-10.517-2.757
					c-3.424-1.069-6.811-2.24-10.211-2.871c-1.693-0.306-3.393-0.475-5.002-0.283c-0.803,0.094-1.577,0.279-2.305,0.567
					c-0.364,0.143-0.714,0.312-1.051,0.511l-1.176,0.68c-3.25,1.818-6.746,3.097-10.314,3.969
					c-3.574,0.859-7.219,1.354-10.878,1.517c-3.659,0.165-7.331-0.011-10.961-0.542c-3.627-0.524-7.224-1.403-10.668-2.769
					c-0.431-0.17-0.859-0.344-1.281-0.54c-0.424-0.19-0.848-0.373-1.263-0.589c-0.415-0.212-0.837-0.406-1.24-0.64l-1.182-0.656
					c-1.423-0.792-3.001-1.258-4.651-1.432c-1.651-0.178-3.366-0.076-5.091,0.141c-1.727,0.214-3.467,0.542-5.218,0.888
					c-3.503,0.698-7.07,1.426-10.706,1.76c-3.632,0.346-7.324,0.308-10.943-0.25c-3.616-0.564-7.137-1.62-10.479-3.043
					c-3.349-1.412-6.51-3.204-9.499-5.22l-0.854-0.576l1.002-0.181l0,0c4.928-1.075,9.729-2.673,14.16-5.006
					c2.215-1.167,4.337-2.494,6.43-3.893c2.09-1.405,4.141-2.898,6.289-4.312c2.146-1.41,4.411-2.737,6.853-3.723
					c2.429-1.015,5.022-1.662,7.63-1.986c0.651-0.089,1.307-0.123,1.961-0.185l1.961-0.076c1.287-0.011,2.572-0.007,3.859,0.033
					c2.572,0.083,5.145,0.274,7.703,0.593c5.116,0.62,10.166,1.803,15.068,3.184c2.445,0.663,4.886,1.405,7.215,1.745
					c1.169,0.161,2.197,0.145,3.369-0.054c1.158-0.192,2.347-0.506,3.549-0.837c4.808-1.394,9.803-2.833,14.869-3.672
					C160.672,145.755,165.808,145.369,170.926,145.369z"/>
			</g>
		</g>
		<g class="st0">
			<path class="st1" d="M145.424,105.893c4.232-1.153,35.039-10.035,55.195,29.981c0.069-9.037-0.645-10.142-4.73-15.157
				c-4.085-5.015-8.754-12.756-17.292-16.379c-8.538-3.623-15.193-4.64-21.332-3.364
				C148.788,102.732,145.424,105.893,145.424,105.893z"/>
		</g>
		<g class="st0">
			<path class="st1" d="M128.59,105.942c-6.041-3.59-34.506-9.153-56.48,32.212c-0.241-8.234,0.098-12.101,3.427-16.35
				c3.331-4.25,9.662-12.422,19.603-17.818c6.528-3.545,11.139-4.689,18.617-3.482C121.234,101.71,128.59,105.942,128.59,105.942z"
				/>
		</g>
		<g class="st0">
			<path class="st1" d="M76.127,175.873c0.301,3.047,8.861,0.881,11.09,0.785c3.681-0.156,7.393-0.453,11.005-1.202
				c8.172-1.693,10.722-1.131,15.23,0.944c-1.015-2.389-0.009-5.209-0.009-5.209s-4.781-1.901-10.193-1.115
				c-5.412,0.785-10.994,3.616-16.752,3.268c-2.003-0.12-8.897-0.049-11.293-0.234C75.197,173.245,76.116,175.752,76.127,175.873z"
				/>
		</g>
		<g class="st0">
			<path class="st1" d="M158.999,175.46c4.966-1.35,7.369-3.025,11.135-0.906c7.21,4.06,22.343,7.117,24.201,7.195
				c1.858,0.08,1.573-4.33,1.573-4.33s-6.436-0.663-14.171-3.155c-7.735-2.492-15.219-4.854-18.044-4.257
				c-2.822,0.596-4.399,1.347-4.399,1.347S159.727,173.941,158.999,175.46z"/>
		</g>
		<g class="st0">
			<path class="st1" d="M126.644,188.111c1.613-1.76,17.885-2.2,21.256-0.292c2.2-0.734,2.2-0.734,2.2-0.734
				s-2.052-2.931-8.649-3.518c-6.597-0.587-12.098-0.355-17.923,3.413C124.592,187.966,126.644,188.111,126.644,188.111z"/>
		</g>
		<g>
			<g>
				<path class="st2" d="M124.239,204.975c4.627,5.941-16.384,20.524-26.013,16.533c-8.114-3.364-29.473-16.489-37.698-27.632
					c-10.117-13.702,31.173-52.478,38.441-35.603C108.154,179.587,113.071,190.635,124.239,204.975z"/>
			</g>
			<g>
				<path d="M125.442,204.038c0.477,0.593,0.819,1.354,0.941,2.117c0.129,0.765,0.067,1.506-0.085,2.162
					c-0.312,1.323-0.917,2.389-1.566,3.36c-1.33,1.919-2.923,3.476-4.614,4.886c-1.693,1.408-3.509,2.63-5.417,3.706
					c-1.907,1.075-3.909,2.003-6.03,2.693c-2.119,0.687-4.357,1.171-6.746,1.151c-1.191-0.018-2.425-0.17-3.645-0.569
					c-0.297-0.089-0.627-0.228-0.888-0.335l-0.754-0.332c-0.493-0.23-0.986-0.457-1.466-0.698
					c-3.844-1.905-7.458-4.071-11.007-6.356c-3.547-2.282-6.992-4.716-10.327-7.306c-3.331-2.592-6.563-5.33-9.557-8.359
					c-1.492-1.519-2.929-3.11-4.232-4.837l-0.486-0.649c-0.167-0.232-0.341-0.495-0.493-0.752c-0.306-0.522-0.558-1.075-0.752-1.642
					c-0.39-1.136-0.547-2.318-0.547-3.465c0.007-2.305,0.593-4.471,1.368-6.494c0.788-2.028,1.798-3.929,2.92-5.742
					c2.242-3.632,4.935-6.927,7.88-9.959c2.945-3.032,6.148-5.816,9.66-8.196c1.76-1.185,3.59-2.276,5.533-3.186
					c1.941-0.897,4.002-1.638,6.218-1.885c1.104-0.118,2.258-0.105,3.393,0.174c1.131,0.272,2.235,0.832,3.103,1.646
					c0.875,0.805,1.506,1.827,1.954,2.849l1.269,2.858c1.695,3.808,3.398,7.614,5.151,11.387c1.769,3.766,3.601,7.494,5.564,11.141
					c1.965,3.645,4.06,7.206,6.343,10.644C120.409,197.486,122.865,200.808,125.442,204.038z M123.037,205.912
					c-2.543-3.353-4.968-6.809-7.21-10.38c-2.249-3.569-4.299-7.257-6.18-11.016c-1.885-3.757-3.623-7.572-5.296-11.404
					c-1.684-3.828-3.308-7.674-4.926-11.523l-1.209-2.887c-0.364-0.895-0.861-1.68-1.515-2.3c-1.301-1.26-3.248-1.646-5.178-1.437
					c-1.941,0.21-3.868,0.89-5.702,1.74c-1.838,0.859-3.603,1.907-5.29,3.074c-3.373,2.336-6.481,5.075-9.312,8.06
					c-2.811,3.001-5.368,6.256-7.447,9.765c-1.024,1.76-1.925,3.587-2.597,5.47c-0.663,1.876-1.111,3.83-1.06,5.711
					c0.025,0.937,0.181,1.847,0.493,2.677c0.156,0.415,0.35,0.81,0.582,1.182c0.118,0.187,0.236,0.357,0.379,0.544l0.468,0.589
					c1.26,1.566,2.668,3.041,4.147,4.446c2.967,2.811,6.2,5.374,9.533,7.797c3.34,2.416,6.791,4.692,10.307,6.849
					c1.76,1.075,3.54,2.115,5.341,3.11c1.796,0.997,3.61,1.968,5.439,2.829c0.457,0.219,0.915,0.422,1.37,0.627l0.683,0.288
					c0.225,0.087,0.375,0.149,0.58,0.207c0.767,0.239,1.629,0.341,2.521,0.337c1.791,0.002,3.685-0.404,5.53-0.982
					c3.699-1.194,7.3-3.088,10.45-5.461c1.562-1.191,3.039-2.525,4.129-4.011c0.538-0.734,0.979-1.519,1.169-2.229
					c0.098-0.355,0.123-0.674,0.087-0.939C123.284,206.367,123.202,206.142,123.037,205.912z"/>
			</g>
		</g>
		<g>
			<g>
				<path class="st2" d="M148.335,204.975c-4.627,5.941,16.384,20.524,26.013,16.533c8.114-3.364,29.473-16.489,37.698-27.632
					c10.117-13.702-31.173-52.478-38.441-35.603C164.423,179.587,159.503,190.635,148.335,204.975z"/>
			</g>
			<g>
				<path d="M149.538,205.912c-0.163,0.232-0.248,0.455-0.283,0.725c-0.036,0.268-0.011,0.587,0.087,0.939
					c0.187,0.709,0.631,1.495,1.169,2.229c1.091,1.486,2.566,2.822,4.129,4.011c3.15,2.374,6.751,4.268,10.45,5.461
					c1.847,0.58,3.739,0.986,5.53,0.982c0.892,0.004,1.754-0.098,2.521-0.337c0.205-0.058,0.355-0.12,0.58-0.207l0.683-0.288
					c0.457-0.203,0.912-0.406,1.37-0.627c1.829-0.861,3.643-1.832,5.439-2.829c1.8-0.995,3.581-2.035,5.341-3.11
					c3.516-2.157,6.967-4.431,10.307-6.849c3.333-2.423,6.566-4.986,9.533-7.797c1.479-1.405,2.887-2.88,4.147-4.446l0.468-0.589
					c0.143-0.185,0.261-0.355,0.379-0.544c0.232-0.37,0.426-0.765,0.582-1.182c0.312-0.83,0.466-1.74,0.493-2.677
					c0.051-1.878-0.395-3.833-1.06-5.711c-0.672-1.883-1.573-3.71-2.597-5.47c-2.079-3.509-4.636-6.764-7.447-9.765
					c-2.831-2.985-5.939-5.725-9.312-8.06c-1.684-1.167-3.449-2.215-5.29-3.074c-1.834-0.85-3.761-1.53-5.702-1.74
					c-1.93-0.21-3.875,0.176-5.178,1.437c-0.656,0.62-1.151,1.408-1.515,2.3l-1.209,2.887c-1.617,3.848-3.244,7.694-4.926,11.523
					c-1.675,3.833-3.411,7.65-5.296,11.404c-1.881,3.757-3.931,7.447-6.18,11.016C154.506,199.103,152.081,202.559,149.538,205.912z
					 M147.133,204.038c2.579-3.233,5.033-6.552,7.313-9.992c2.282-3.438,4.379-6.998,6.343-10.644
					c1.963-3.645,3.795-7.375,5.564-11.141c1.754-3.772,3.456-7.578,5.151-11.387l1.269-2.858c0.448-1.022,1.08-2.046,1.954-2.849
					c0.868-0.814,1.972-1.372,3.103-1.646c1.136-0.279,2.289-0.292,3.393-0.174c2.218,0.248,4.277,0.986,6.218,1.885
					c1.941,0.908,3.772,2.001,5.533,3.186c3.511,2.38,6.715,5.165,9.66,8.196c2.945,3.032,5.638,6.327,7.88,9.959
					c1.122,1.814,2.133,3.714,2.92,5.742c0.774,2.026,1.361,4.192,1.368,6.494c0,1.147-0.156,2.329-0.547,3.465
					c-0.194,0.567-0.446,1.12-0.752,1.642c-0.152,0.259-0.326,0.52-0.493,0.752l-0.486,0.649c-1.303,1.727-2.74,3.317-4.232,4.837
					c-2.994,3.03-6.229,5.767-9.557,8.359c-3.333,2.59-6.78,5.024-10.327,7.306c-3.549,2.284-7.163,4.451-11.007,6.356
					c-0.48,0.239-0.973,0.468-1.466,0.698l-0.754,0.332c-0.259,0.107-0.591,0.245-0.888,0.335c-1.22,0.399-2.456,0.551-3.645,0.569
					c-2.389,0.02-4.627-0.464-6.746-1.151c-2.122-0.689-4.123-1.617-6.03-2.693c-1.907-1.075-3.723-2.3-5.417-3.706
					c-1.691-1.41-3.284-2.965-4.614-4.886c-0.649-0.97-1.254-2.035-1.566-3.36c-0.152-0.658-0.216-1.399-0.085-2.162
					C146.316,205.392,146.656,204.631,147.133,204.038z"/>
			</g>
		</g>
		<g class="st0">
			<path class="st1" d="M220.771,68.385c0.453,0.453,13.278,17.292,12.475,22.68c-1.133,7.599-21.321,31.639-21.321,31.639
				l-1.562,13.178l-3.429-3.652l0.114,11.681c0,0,11.567-20.185,13.609-23.021c2.041-2.835,27.103-27.331,27.103-27.331
				L220.771,68.385z"/>
		</g>
		<g class="st0">
			<path class="st1" d="M60.125,191.161c-2.994,4.498-5.994,16.17-9.339,16.942c-5.361,1.236-9.145-5.176-16.373-2.102
				s-18.358,5.832-20.422,5.684c3.094,1.417,5.261,1.441,6.073,1.591c0.812,0.152,12.549-2.209,18.657-2.67
				c3.155-0.239,15.576,3.315,15.576,3.315s2.273-4.883,3.909-6.86c1.635-1.977,7.099-8.074,7.099-8.074L60.125,191.161z"/>
		</g>
		<g class="st0">
			<path class="st1" d="M76.522,206.851c3.288,1.928,17.352,7.442,23.36,7.824c7.143,0.453,19.052-4.196,22.907-10.887
				c0,0,2.608,2.722,1.814,4.649c-0.794,1.928-4.877,7.712-8.732,9.64c-3.855,1.928-14.175,6.01-17.919,4.196
				C94.213,220.46,76.522,206.851,76.522,206.851z"/>
		</g>
		<g class="st0">
			<path class="st1" d="M196.617,206.396c-3.288,1.928-17.352,7.442-23.36,7.824c-7.143,0.453-19.052-4.196-22.907-10.887
				c0,0-2.608,2.722-1.814,4.649c0.794,1.928,4.877,7.712,8.732,9.64c3.855,1.928,14.175,6.01,17.919,4.196
				C178.926,220.005,196.617,206.396,196.617,206.396z"/>
		</g>
		<g>
			<g>
				<path class="st12" d="M198.942,48.5c0,0-0.573-15.516-0.946-22.952c-0.303-6.075-0.41-5.961,5.767-6.264
					s22.952-0.946,22.952-0.946l19.135,18.033l-27.36,29.928L198.942,48.5z"/>
			</g>
			<g>
				<path d="M198.69,48.616c-0.397-4.665-0.663-9.437-0.89-14.209c-0.127-2.385-0.199-4.781-0.299-7.168l-0.149-3.574
					c-0.018-0.6-0.033-1.202,0.016-1.838c0.018-0.161,0.027-0.319,0.051-0.482l0.109-0.502c0.058-0.172,0.134-0.346,0.207-0.518
					c0.109-0.163,0.219-0.337,0.352-0.477c0.29-0.283,0.629-0.468,0.957-0.587c0.163-0.049,0.326-0.105,0.486-0.145l0.473-0.089
					c0.622-0.098,1.225-0.141,1.823-0.176c1.194-0.071,2.371-0.112,3.558-0.147l7.105-0.236c4.736-0.172,9.475-0.27,14.213-0.406
					l0,0l0.116-0.004l0.085,0.08l19.132,18.033l0.199,0.187l-0.183,0.201l-27.36,29.928l-0.187,0.203l-0.203-0.185L198.69,48.616z
					 M199.192,48.382l19.483,17.711l-0.39,0.018l27.36-29.93l0.013,0.388l-19.135-18.033l0.201,0.076l0,0
					c-4.732,0.254-9.461,0.547-14.193,0.765l-7.097,0.35l-3.54,0.187c-0.582,0.04-1.162,0.087-1.711,0.176
					c-0.551,0.083-1.049,0.245-1.312,0.513c-0.268,0.252-0.375,0.761-0.408,1.31c-0.04,0.544-0.025,1.129-0.004,1.711l0.165,3.527
					c0.096,2.347,0.219,4.685,0.286,7.034C199.073,38.883,199.2,43.581,199.192,48.382z"/>
			</g>
		</g>
		<g>
			<g>
				<g>
					<path class="st13" d="M201.146,28.725c0.841-0.912-0.163-4.031,1.013-5.33c1.263-1.392,4.413-0.433,5.261-1.352
						c0.379-0.41,0.132-1.713-0.143-2.923c-1.354,0.06-2.559,0.114-3.511,0.161c-6.177,0.303-6.073,0.19-5.767,6.264
						c0.051,1.024,0.107,2.206,0.163,3.476C199.399,29.107,200.753,29.154,201.146,28.725z"/>
				</g>
				<g>
					<path d="M200.941,28.538c0.263-0.319,0.292-0.946,0.306-1.504c0.009-0.576-0.011-1.169,0.029-1.776
						c0.051-0.598,0.123-1.245,0.502-1.816c0.388-0.573,1.035-0.881,1.638-1.004c0.609-0.134,1.211-0.161,1.798-0.185
						c0.582-0.027,1.176-0.038,1.66-0.196c0.109-0.047,0.223-0.094,0.29-0.163c0.049-0.033,0.065-0.056,0.085-0.089
						c0.02-0.036,0.036-0.085,0.049-0.138c0.049-0.228,0.042-0.509,0.016-0.785c-0.056-0.56-0.181-1.129-0.308-1.698v-0.002
						l0.281,0.216c-1.488,0.114-2.976,0.212-4.466,0.303c-0.741,0.056-1.486,0.087-2.204,0.178
						c-0.709,0.087-1.441,0.228-1.838,0.616c-0.388,0.384-0.466,1.12-0.495,1.829c-0.029,0.721,0.018,1.466,0.033,2.209
						c0.058,1.49,0.091,2.985,0.118,4.477l-0.257-0.263l0,0c0.506,0.033,1.011,0.062,1.504,0.054
						c0.245-0.004,0.491-0.02,0.721-0.058C200.63,28.708,200.858,28.63,200.941,28.538z M201.349,28.913
						c-0.286,0.274-0.585,0.319-0.852,0.373c-0.274,0.045-0.54,0.06-0.803,0.067c-0.527,0.011-1.042-0.02-1.553-0.054l0,0
						l-0.239-0.009l-0.02-0.254c-0.118-1.488-0.216-2.976-0.308-4.466c-0.047-0.75-0.085-1.495-0.069-2.267
						c-0.002-0.19,0.011-0.386,0.031-0.585c0.011-0.196,0.038-0.395,0.087-0.6c0.065-0.402,0.265-0.843,0.587-1.185
						c0.176-0.156,0.357-0.308,0.558-0.39c0.196-0.114,0.395-0.167,0.593-0.225c0.395-0.109,0.783-0.17,1.162-0.21
						c0.765-0.087,1.51-0.12,2.26-0.147c1.492-0.058,2.985-0.089,4.48-0.114l0.236-0.004l0.045,0.219v0.002
						c0.129,0.576,0.257,1.158,0.319,1.767c0.027,0.306,0.045,0.618-0.029,0.968c-0.025,0.089-0.051,0.181-0.103,0.274
						c-0.051,0.096-0.132,0.187-0.203,0.239c-0.145,0.136-0.31,0.203-0.468,0.27c-0.64,0.205-1.238,0.196-1.825,0.23
						c-0.585,0.025-1.16,0.054-1.7,0.172c-0.542,0.109-1.022,0.364-1.301,0.772c-0.283,0.413-0.366,0.986-0.408,1.544
						c-0.04,0.567-0.018,1.149-0.029,1.747c-0.009,0.301-0.013,0.6-0.065,0.917C201.679,28.27,201.612,28.612,201.349,28.913z"/>
				</g>
			</g>
		</g>
		<g>
			<g>
				<path class="st14" d="M263.609,107.756l-13.99-12.881c-2.258-2.079-2.405-5.629-0.326-7.889l20.17-21.905
					c2.079-2.258,5.629-2.405,7.889-0.326l13.99,12.881c2.258,2.079,2.405,5.629,0.326,7.889l-20.17,21.905
					C269.419,109.69,265.869,109.835,263.609,107.756z"/>
			</g>
			<g>
				<path d="M263.299,108.093l-12.125-11.309l-1.515-1.414c-0.509-0.462-1.037-1.026-1.385-1.662
					c-0.727-1.274-0.946-2.818-0.618-4.241c0.161-0.712,0.457-1.392,0.868-1.997c0.422-0.616,0.924-1.091,1.383-1.602l2.818-3.041
					l11.259-12.17c1.89-2.028,3.721-4.06,5.66-6.084c1.062-0.975,2.499-1.517,3.933-1.513c1.437-0.007,2.871,0.544,3.933,1.519
					l12.21,11.215l1.526,1.401c0.513,0.457,1.04,0.999,1.394,1.629c0.743,1.252,0.97,2.784,0.683,4.216
					c-0.143,0.718-0.424,1.412-0.823,2.032c-0.096,0.158-0.201,0.31-0.321,0.451c-0.116,0.145-0.232,0.294-0.344,0.417l-0.685,0.779
					l-2.74,3.112c-1.843,2.059-3.694,4.109-5.571,6.137c-1.865,2.039-3.741,4.067-5.624,6.088l-2.824,3.034l-1.414,1.515
					l-0.707,0.759l-0.352,0.379l-0.402,0.393c-1.12,1.017-2.626,1.582-4.125,1.566C265.885,109.703,264.395,109.114,263.299,108.093
					z M263.922,107.419c0.941,0.852,2.202,1.327,3.465,1.312c1.263-0.004,2.512-0.495,3.427-1.352l0.335-0.337l0.348-0.384
					l0.696-0.767l1.392-1.535l2.791-3.065c1.858-2.044,3.726-4.08,5.604-6.108c1.867-2.037,3.759-4.051,5.658-6.059l2.876-2.987
					c0.475-0.506,0.988-0.982,1.35-1.49c0.373-0.522,0.649-1.12,0.805-1.749c0.321-1.26,0.129-2.65-0.509-3.797
					c-0.321-0.584-0.747-1.064-1.263-1.528l-1.524-1.405l-12.183-11.244c-0.975-0.899-2.291-1.41-3.619-1.405
					c-1.327-0.007-2.646,0.506-3.619,1.403c-1.874,1.977-3.737,4.056-5.604,6.079l-11.199,12.223l-2.798,3.059
					c-0.462,0.518-0.962,1.006-1.316,1.537c-0.364,0.54-0.622,1.149-0.763,1.785c-0.283,1.272-0.08,2.648,0.573,3.772
					c0.328,0.576,0.752,1.033,1.269,1.492l1.533,1.394L263.922,107.419z"/>
			</g>
		</g>
		<g>
			<path class="st15" d="M226.987,18.838c-3.159-2.909,5.524,13.042,3.471,15.273c-2.052,2.231-12.694-2.856-15.755,0.518
				c-2.853,3.146,2.583,13.47,0.544,15.683c-2.039,2.215-17.912-3.703-15.703-1.671c2.447,2.253,39.623,36.484,39.623,36.484
				l6.22-6.755l0.332-0.359l14.715-15.982l0.301-0.326l5.876-6.38C266.61,55.322,230.478,22.053,226.987,18.838z"/>
		</g>
		<g class="st16">
			<polygon class="st7" points="266.244,55.581 260.207,62.017 230.888,34.405 226.507,18.314 			"/>
		</g>
		<g>
			
				<rect x="245.275" y="27.609" transform="matrix(0.6774 -0.7356 0.7356 0.6774 43.7739 196.1713)" width="0.553" height="41.136"/>
		</g>
		<g>
			
				<rect x="230.203" y="43.874" transform="matrix(0.6775 -0.7355 0.7355 0.6775 26.9081 190.3117)" width="0.553" height="41.193"/>
		</g>
		<g>
			<g>
				
					<rect x="241.273" y="67.334" transform="matrix(0.6774 -0.7356 0.7356 0.6774 26.8295 217.8216)" class="st17" width="40.982" height="21.974"/>
			</g>
			<g>
				<path d="M255.975,101.099l-16.529-14.778l-0.388-0.346l0.357-0.388l27.802-30.109l0.317-0.344l0.337,0.317l16.038,15.023
					l0.201,0.19l-0.185,0.201L255.975,101.099z M255.953,100.548l27.568-30.059l0.016,0.39l-16.292-14.746l0.654-0.027
					L240.18,86.292l-0.031-0.734L255.953,100.548z"/>
			</g>
		</g>
		<g>
			<g>
				<g>
					<polygon class="st17" points="240.283,64.817 244.653,68.842 249.662,67.791 250.297,62.714 245.925,58.689 240.916,59.74 
											"/>
				</g>
				<g>
					<path d="M240.504,64.735l4.31,3.933l-0.21-0.058l4.953-1.314l-0.397,0.433l0.901-5.044l0.074,0.203l-4.373-4.025l0.21,0.058
						l-4.946,1.339l0.417-0.453L240.504,64.735z M240.06,64.898l0.33-5.225l0.025-0.395l0.393-0.06l5.069-0.763l0.127-0.02
						l0.083,0.076l4.373,4.025l0.085,0.078l-0.009,0.127l-0.368,5.111l-0.027,0.375l-0.37,0.058l-5.062,0.79l-0.127,0.02
						l-0.083-0.078L240.06,64.898z"/>
				</g>
			</g>
			<g>
				<g>
					<path class="st7" d="M241.76,63.16l2.537-2.755l0.736,0.678l0.48,2.786c0.152,0.718,0.357,1.196,0.616,1.434
						c0.21,0.194,0.404,0.303,0.582,0.33c0.178,0.027,0.332-0.031,0.462-0.172c0.127-0.138,0.158-0.319,0.094-0.54
						c-0.067-0.221-0.21-0.433-0.428-0.634l0.843-0.917c0.299,0.277,0.52,0.591,0.663,0.946c0.143,0.355,0.185,0.705,0.129,1.051
						c-0.056,0.346-0.205,0.654-0.451,0.919c-0.393,0.426-0.817,0.643-1.272,0.649c-0.455,0.007-0.91-0.201-1.368-0.62
						c-0.192-0.176-0.352-0.377-0.482-0.602c-0.129-0.225-0.236-0.491-0.323-0.796c-0.087-0.306-0.174-0.75-0.259-1.327l-0.257-1.18
						l-1.43,1.553L241.76,63.16z"/>
				</g>
			</g>
		</g>
		<g class="st16">
			
				<rect x="267.632" y="56.241" transform="matrix(0.6834 -0.7301 0.7301 0.6834 36.0728 218.9447)" class="st7" width="5.644" height="23.287"/>
		</g>
		<g>
			
				<rect x="235.85" y="72.544" transform="matrix(0.6774 -0.7356 0.7356 0.6774 28.6553 212.3897)" class="st15" width="41.267" height="1.959"/>
			<path d="M243.252,89.554l-1.646-1.515l0.094-0.103l28.047-30.459l1.646,1.515l-0.094,0.103L243.252,89.554z M241.998,88.023
				l1.238,1.14l27.766-30.155l-1.238-1.14L241.998,88.023z"/>
		</g>
		<g>
			
				<rect x="246.381" y="82.243" transform="matrix(0.6774 -0.7356 0.7356 0.6774 24.918 223.2646)" class="st15" width="41.267" height="1.959"/>
			<path d="M253.784,99.252l-1.646-1.515l0.094-0.103l28.047-30.461l1.646,1.515l-0.094,0.103L253.784,99.252z M252.528,97.721
				l1.238,1.14l27.766-30.155l-1.238-1.14L252.528,97.721z"/>
		</g>
		<g>
			<path d="M270.463,62.31c0.689,0.39,1.318,0.843,1.928,1.321c0.613,0.473,1.194,0.982,1.762,1.501
				c0.562,0.529,1.115,1.064,1.638,1.637c0.524,0.569,1.031,1.158,1.479,1.809c-0.685-0.395-1.314-0.85-1.925-1.325
				c-0.613-0.473-1.194-0.979-1.767-1.497c-0.564-0.524-1.118-1.062-1.64-1.633C271.413,63.555,270.909,62.963,270.463,62.31z"/>
		</g>
		<g>
			<path d="M246.393,88.452c0.689,0.39,1.318,0.843,1.928,1.321c0.614,0.473,1.194,0.982,1.762,1.501
				c0.562,0.529,1.115,1.064,1.637,1.637c0.524,0.569,1.031,1.158,1.479,1.809c-0.685-0.395-1.314-0.85-1.925-1.325
				c-0.614-0.473-1.194-0.979-1.767-1.497c-0.564-0.524-1.118-1.062-1.64-1.633C247.344,89.697,246.84,89.105,246.393,88.452z"/>
		</g>
		<g>
			<path d="M267.453,65.578c0.689,0.39,1.318,0.843,1.928,1.321c0.613,0.473,1.194,0.982,1.762,1.501
				c0.562,0.529,1.115,1.064,1.638,1.637c0.524,0.569,1.031,1.158,1.479,1.809c-0.685-0.395-1.314-0.85-1.925-1.325
				c-0.613-0.473-1.194-0.979-1.767-1.497c-0.564-0.524-1.118-1.062-1.64-1.633C268.404,66.823,267.899,66.232,267.453,65.578z"/>
		</g>
		<g>
			<path d="M264.446,68.846c0.689,0.39,1.318,0.843,1.928,1.321c0.613,0.473,1.194,0.982,1.762,1.501
				c0.562,0.529,1.115,1.064,1.638,1.637c0.524,0.569,1.031,1.158,1.479,1.809c-0.685-0.395-1.314-0.85-1.925-1.325
				c-0.614-0.473-1.194-0.979-1.767-1.497c-0.564-0.524-1.118-1.062-1.64-1.633C265.394,70.091,264.892,69.5,264.446,68.846z"/>
		</g>
		<g>
			<path d="M261.436,72.112c0.689,0.39,1.318,0.843,1.927,1.321c0.614,0.473,1.194,0.982,1.762,1.501
				c0.562,0.529,1.115,1.064,1.637,1.637c0.524,0.569,1.031,1.158,1.479,1.809c-0.685-0.395-1.314-0.85-1.925-1.325
				c-0.613-0.473-1.194-0.979-1.767-1.497c-0.564-0.524-1.118-1.062-1.64-1.633C262.387,73.357,261.883,72.766,261.436,72.112z"/>
		</g>
		<g>
			<path d="M258.427,75.381c0.689,0.39,1.318,0.843,1.928,1.321c0.613,0.473,1.194,0.982,1.762,1.501
				c0.562,0.529,1.115,1.064,1.638,1.637c0.524,0.569,1.031,1.158,1.479,1.809c-0.685-0.395-1.314-0.85-1.925-1.325
				c-0.613-0.473-1.194-0.979-1.767-1.497c-0.564-0.524-1.118-1.062-1.64-1.633C259.377,76.626,258.873,76.034,258.427,75.381z"/>
		</g>
		<g>
			<path d="M255.42,78.649c0.689,0.39,1.318,0.843,1.928,1.321c0.614,0.473,1.194,0.982,1.762,1.501
				c0.562,0.529,1.115,1.064,1.637,1.637c0.524,0.569,1.031,1.158,1.479,1.809c-0.685-0.395-1.314-0.85-1.925-1.325
				c-0.614-0.473-1.194-0.979-1.767-1.497c-0.564-0.524-1.118-1.062-1.64-1.633C256.368,79.894,255.866,79.303,255.42,78.649z"/>
		</g>
		<g>
			<path d="M252.41,81.915c0.689,0.39,1.318,0.843,1.928,1.321c0.614,0.473,1.194,0.982,1.762,1.501
				c0.562,0.529,1.115,1.064,1.637,1.637c0.524,0.569,1.031,1.158,1.479,1.809c-0.685-0.395-1.314-0.85-1.925-1.325
				c-0.613-0.473-1.194-0.979-1.767-1.497c-0.564-0.524-1.118-1.062-1.64-1.633C253.361,83.16,252.856,82.571,252.41,81.915z"/>
		</g>
		<g>
			<path d="M249.401,85.183c0.689,0.39,1.318,0.843,1.928,1.321c0.614,0.473,1.194,0.982,1.762,1.501
				c0.562,0.529,1.115,1.064,1.638,1.638c0.524,0.569,1.031,1.158,1.479,1.809c-0.685-0.395-1.314-0.85-1.925-1.325
				c-0.614-0.473-1.194-0.979-1.767-1.497c-0.564-0.524-1.118-1.062-1.64-1.633C250.351,86.428,249.847,85.837,249.401,85.183z"/>
		</g>
		<g>
			<path d="M255.975,101.099l-16.529-14.778l-0.388-0.346l0.357-0.388l27.802-30.109l0.317-0.344l0.337,0.317l16.038,15.023
				l0.194,0.183l-0.178,0.207c-2.247,2.597-4.544,5.171-6.858,7.735c-2.307,2.577-4.66,5.098-6.996,7.648
				c-2.345,2.534-4.705,5.033-7.056,7.527l-3.529,3.697L255.975,101.099z M255.953,100.548l3.427-3.906l3.411-3.839
				c2.276-2.53,4.542-5.055,6.824-7.547c2.291-2.474,4.564-4.979,6.885-7.427c2.313-2.461,4.643-4.91,7.023-7.34l0.016,0.39
				l-16.292-14.746l0.654-0.027l-27.717,30.187l-0.031-0.734L255.953,100.548z"/>
		</g>
		<g>
			<path d="M226.732,19.115c-0.105-0.094-0.221-0.187-0.306-0.234c-0.027-0.031-0.098-0.002,0.067-0.02
				c0.094-0.02,0.17-0.118,0.172-0.141c0.011-0.027,0.007-0.02,0.007-0.009c-0.002,0.17,0.085,0.504,0.17,0.779
				c0.174,0.578,0.415,1.153,0.649,1.729c0.466,1.153,1.011,2.287,1.513,3.438c0.509,1.149,1.013,2.307,1.477,3.494
				c0.466,1.189,0.886,2.396,1.131,3.741c0.054,0.341,0.096,0.692,0.098,1.075c-0.004,0.384-0.013,0.803-0.248,1.325
				c-0.286,0.596-0.783,0.888-1.194,1.057c-0.426,0.172-0.817,0.228-1.187,0.261c-0.738,0.062-1.405-0.009-2.057-0.091
				c-0.651-0.083-1.281-0.203-1.901-0.339c-1.24-0.263-2.452-0.551-3.663-0.788c-1.207-0.225-2.423-0.442-3.61-0.402
				c-1.169,0.016-2.369,0.332-2.952,1.185c-0.288,0.422-0.431,0.973-0.491,1.542c-0.051,0.573-0.02,1.171,0.047,1.769
				c0.321,2.405,1.144,4.763,1.754,7.242c0.149,0.625,0.274,1.26,0.361,1.93c0.076,0.674,0.132,1.37-0.069,2.204
				c-0.118,0.417-0.297,0.881-0.788,1.287c-0.48,0.355-0.906,0.437-1.289,0.509c-0.765,0.118-1.437,0.076-2.099,0.009
				c-1.316-0.132-2.557-0.446-3.788-0.747c-1.229-0.312-2.441-0.663-3.645-1.017c-1.207-0.344-2.414-0.68-3.621-0.957
				c-0.301-0.071-0.602-0.134-0.899-0.183c-0.281-0.049-0.627-0.094-0.788-0.076c-0.011,0-0.02,0.007,0.025-0.011
				c0.02-0.009,0.06-0.031,0.105-0.083c0.054-0.054,0.087-0.154,0.091-0.221c0-0.145-0.033-0.158-0.031-0.167
				c-0.002-0.004,0.007,0.011,0.022,0.027c0.054,0.058,0.203,0.19,0.308,0.29l0.692,0.636l5.526,5.091l11.056,10.175l11.106,10.124
				c3.719,3.355,7.427,6.724,11.166,10.057l0.002,0.002l-1.002,0.042l27.398-29.843l0.002-0.002l0.045,1.089
				c-3.228-3.121-6.503-6.191-9.754-9.287l-9.829-9.205c-3.266-3.079-6.586-6.102-9.879-9.151L226.732,19.115z M227.241,18.561
				l9.914,9.111c3.311,3.032,6.597,6.09,9.934,9.091l9.983,9.037c3.353,2.983,6.684,5.994,10.059,8.955l0.567,0.497l-0.522,0.591
				l-0.002,0.002l-27.487,29.763l-0.482,0.522l-0.52-0.48l-0.002-0.002c-3.63-3.453-7.293-6.869-10.943-10.3l-11.003-10.233
				l-11.052-10.182l-5.53-5.087l-0.692-0.636c-0.12-0.116-0.212-0.185-0.373-0.355c-0.038-0.042-0.078-0.089-0.12-0.161
				c-0.038-0.076-0.107-0.163-0.105-0.386c0.002-0.107,0.058-0.243,0.134-0.328c0.071-0.08,0.145-0.125,0.201-0.152
				c0.114-0.054,0.183-0.06,0.25-0.071c0.464-0.04,0.743,0.033,1.078,0.078c0.321,0.056,0.631,0.12,0.944,0.183l3.685,0.796
				c2.445,0.473,4.928,0.944,7.306,1.08c0.585,0.025,1.176,0.027,1.649-0.056c0.23-0.038,0.426-0.125,0.448-0.154
				c-0.009,0.007,0.029-0.033,0.06-0.083c0.033-0.049,0.062-0.132,0.089-0.223c0.114-0.384,0.098-0.964,0.056-1.53
				c-0.045-0.576-0.138-1.173-0.239-1.776c-0.386-2.425-1.022-4.895-1.171-7.487c-0.04-0.649-0.042-1.31,0.047-1.981
				c0.085-0.667,0.259-1.37,0.689-1.983c0.431-0.616,1.06-1.051,1.716-1.292c0.656-0.243,1.327-0.357,1.986-0.413
				c2.635-0.178,5.153,0.299,7.614,0.598c1.216,0.138,2.465,0.317,3.507,0.225c0.252-0.025,0.486-0.071,0.64-0.138
				c0.161-0.062,0.221-0.152,0.205-0.129c0.033-0.049,0.083-0.272,0.083-0.509c0.004-0.243-0.018-0.518-0.056-0.796
				c-0.147-1.131-0.48-2.325-0.803-3.509c-0.337-1.187-0.721-2.374-1.113-3.558c-0.402-1.185-0.79-2.376-1.207-3.565
				c-0.205-0.598-0.399-1.198-0.582-1.818c-0.08-0.328-0.183-0.602-0.176-1.06c0.007-0.067,0.016-0.138,0.056-0.236
				c0.033-0.096,0.165-0.259,0.337-0.297c0.163-0.038,0.263-0.004,0.335,0.018c0.076,0.025,0.125,0.054,0.176,0.083
				C226.991,18.332,227.114,18.445,227.241,18.561z"/>
		</g>
		<g class="st0">
			<path class="st1" d="M284.846,71.673l-1.12-0.999l-21.221,23.173c-13.876-12.843-32.413-29.582-47.061-43.38
				c-0.192-0.178-3.96,0.335-3.96,0.335l-7.536-1.713l-5.031-0.846l65.743,60.514l4.422,0.453l5.102-4.535
				c0,0-4.239-3.935-10.541-9.771L284.846,71.673z"/>
		</g>
		<g class="st16">
			<path class="st7" d="M205.538,22.494l-7.712-1.89c0,0-0.152-0.68,1.133-0.756s8.696,0.832,8.696,0.832l-0.152,1.513
				L205.538,22.494z"/>
		</g>
		<g>
			<g>
				<path d="M200.941,28.538c0.263-0.319,0.292-0.946,0.306-1.504c0.009-0.576-0.011-1.169,0.029-1.776
					c0.051-0.598,0.123-1.245,0.502-1.816c0.388-0.573,1.035-0.881,1.638-1.004c0.609-0.134,1.211-0.161,1.798-0.185
					c0.582-0.027,1.176-0.038,1.66-0.196c0.109-0.047,0.223-0.094,0.29-0.163c0.049-0.033,0.065-0.056,0.085-0.089
					c0.02-0.036,0.036-0.085,0.049-0.138c0.049-0.228,0.042-0.509,0.016-0.785c-0.056-0.56-0.181-1.129-0.308-1.698v-0.002
					l0.281,0.216c-1.488,0.114-2.976,0.212-4.466,0.303c-0.741,0.056-1.486,0.087-2.204,0.178c-0.709,0.087-1.441,0.228-1.838,0.616
					c-0.388,0.384-0.466,1.12-0.495,1.829c-0.029,0.721,0.018,1.466,0.033,2.209c0.058,1.49,0.091,2.985,0.118,4.477l-0.257-0.263
					l0,0c0.506,0.033,1.011,0.062,1.504,0.054c0.245-0.004,0.491-0.02,0.721-0.058C200.63,28.708,200.858,28.63,200.941,28.538z
					 M201.349,28.913c-0.286,0.274-0.585,0.319-0.852,0.373c-0.274,0.045-0.54,0.06-0.803,0.067
					c-0.527,0.011-1.042-0.02-1.553-0.054l0,0l-0.239-0.009l-0.02-0.254c-0.118-1.488-0.216-2.976-0.308-4.466
					c-0.047-0.75-0.085-1.495-0.069-2.267c-0.002-0.19,0.011-0.386,0.031-0.585c0.011-0.196,0.038-0.395,0.087-0.6
					c0.065-0.402,0.265-0.843,0.587-1.185c0.176-0.156,0.357-0.308,0.558-0.39c0.196-0.114,0.395-0.167,0.593-0.225
					c0.395-0.109,0.783-0.17,1.162-0.21c0.765-0.087,1.51-0.12,2.26-0.147c1.492-0.058,2.985-0.089,4.48-0.114l0.236-0.004
					l0.045,0.219v0.002c0.129,0.576,0.257,1.158,0.319,1.767c0.027,0.306,0.045,0.618-0.029,0.968
					c-0.025,0.089-0.051,0.181-0.103,0.274c-0.051,0.096-0.132,0.187-0.203,0.239c-0.145,0.136-0.31,0.203-0.468,0.27
					c-0.64,0.205-1.238,0.196-1.825,0.23c-0.585,0.025-1.16,0.054-1.7,0.172c-0.542,0.109-1.022,0.364-1.301,0.772
					c-0.283,0.413-0.366,0.986-0.408,1.544c-0.04,0.567-0.018,1.149-0.029,1.747c-0.009,0.301-0.013,0.6-0.065,0.917
					C201.679,28.27,201.612,28.612,201.349,28.913z"/>
			</g>
		</g>
		<g>
			<path class="st17" d="M233.327,53.739c0.138-0.078,0.357-0.009,0.54-0.013c0.127-0.002,0.254-0.016,0.381-0.025
				c-0.029-0.125-0.027-0.272-0.096-0.368c-0.143-0.194-0.312-0.373-0.491-0.533c-0.395-0.355-0.803-0.694-1.283-1.107
				c-0.029,0.212-0.08,0.326-0.045,0.373c0.201,0.257,0.031,0.41-0.147,0.538c-0.506,0.366-1.428,0.388-1.936-0.029
				c-0.37-0.306-0.373-0.647,0.004-0.953c0.281-0.228,0.589-0.428,0.904-0.609c0.776-0.442,1.577-0.718,2.503-0.468
				c1.004,0.272,1.417,1.265,0.734,2.202c0.248,0.109,0.475,0.308,0.66,0.274c0.444-0.083,0.87-0.27,1.301-0.419
				c0.225-0.078,0.19-0.221,0.04-0.321c-0.087-0.06-0.234-0.078-0.341-0.056c-0.361,0.074-0.502-0.091-0.527-0.424
				c-0.007-0.094-0.009-0.19-0.04-0.277c-0.451-1.314-2.28-2.429-3.677-2.278c-0.919,0.1-1.704,0.428-2.356,1.107
				c-0.551,0.573-0.732,1.653-0.292,2.291c0.48,0.694,1.185,1.118,1.965,1.336C231.861,54.185,232.622,54.133,233.327,53.739z"/>
			<path class="st17" d="M217.478,38.555c0.872-0.303,1.33-1.042,1.236-1.945c-0.025-0.23-0.1-0.511-0.254-0.663
				c-0.64-0.622-1.305-1.207-1.934-1.774c-0.672,0.174-1.272,0.477-1.629,0.999c-0.259,0.377-0.386,0.861-0.457,1.365
				c0.607-0.281,1.214-0.564,1.82-0.848c0.268-0.125,0.529-0.281,0.812-0.339c0.165-0.033,0.375,0.074,0.542,0.163
				c0.125,0.067,0.205,0.21,0.312,0.315c0.199,0.196,0.199,0.366,0.011,0.593c-0.667,0.817-1.55,1.22-2.559,1.405
				c-0.306-0.06-0.636,0.011-0.944-0.04c0.011,0.234-0.009,0.462,0.018,0.698c0.009,0.071,0.029,0.145,0.04,0.216
				c0.297,0.216,0.738,0.37,1.091,0.335C216.225,38.97,216.863,38.769,217.478,38.555z"/>
			<path class="st17" d="M230.556,46.709c-0.629-0.857-1.479-1.316-2.561-1.303c-0.823,0.007-1.941,0.286-2.521,0.738
				c-0.986,0.767-1.227,1.983-0.375,2.914c1.352,1.481,4.123,1.073,5.216-0.045C230.967,48.346,231.107,47.458,230.556,46.709z
				 M230.003,47.394c-0.437,0.667-1.107,1.015-1.82,1.272c-0.464,0.167-0.957,0.254-1.359,0.357
				c-0.33-0.065-0.573-0.089-0.803-0.163c-0.471-0.152-0.591-0.607-0.257-1.004c0.482-0.571,1.122-0.928,1.807-1.191
				c0.348-0.134,0.732-0.165,1.093-0.272c0.453-0.134,0.823,0.045,1.185,0.268C230.197,46.876,230.224,47.055,230.003,47.394z"/>
			<path class="st17" d="M226.67,44.851c0.366-0.185,0.491-0.944,0.201-1.22c-0.743-0.707-1.495-1.403-2.249-2.095
				c-0.127-0.116-0.286-0.196-0.431-0.292c-0.018,0.022-0.038,0.045-0.056,0.067c0.042,0.116,0.085,0.232,0.149,0.413
				c-0.335,0.149-0.649,0.29-0.964,0.433c-0.761,0.344-1.51,0.714-2.284,1.017c-0.399,0.156-0.823,0.484-1.316,0.085
				c0.442,0.716,1.073,1.202,1.62,1.771c0.045-0.013,0.091-0.029,0.136-0.042c-0.011-0.201-0.022-0.404-0.036-0.605
				c-0.025-0.042-0.047-0.083-0.071-0.125c0.544-0.21,1.086-0.422,1.633-0.627c0.306-0.114,0.388,0.036,0.297,0.297
				c-0.109,0.317-0.259,0.622-0.386,0.933c-0.234,0.567-0.464,1.133-0.698,1.709c0.529,0.199,0.986,0.393,1.459,0.538
				c0.154,0.047,0.348-0.033,0.524-0.056c-0.058-0.138-0.08-0.31-0.178-0.413c-0.236-0.248-0.232-0.486-0.094-0.776
				c0.123-0.254,0.201-0.529,0.306-0.792c0.058-0.143,0.129-0.277,0.196-0.415c0.288,0.114,0.529,0.199,0.765,0.301
				C225.708,45.183,226.199,45.087,226.67,44.851z M223.984,43.532c-0.241-0.132-0.17-0.328,0.036-0.433
				c0.321-0.163,0.654-0.301,0.991-0.433c0.473-0.185,0.687,0.174,0.904,0.473c0.083,0.114,0.161,0.377,0.109,0.419
				c-0.245,0.207-0.533,0.366-0.808,0.542C224.751,43.891,224.354,43.735,223.984,43.532z"/>
			<path class="st17" d="M220.276,42.16c-0.477-0.098-0.988,0.29-1.446-0.069c-0.404-0.315-0.805-0.629-1.263-0.984
				c0.194-0.185,0.319-0.348,0.482-0.451c0.286-0.176,0.611-0.288,0.888-0.475c0.286-0.196,0.513-0.138,0.725,0.071
				c0.196,0.196,0.366,0.419,0.567,0.656c-0.116,0.103-0.214,0.174-0.288,0.265c-0.06,0.071-0.091,0.17-0.134,0.254
				c0.094,0.033,0.214,0.123,0.279,0.094c0.489-0.232,0.966-0.489,1.446-0.736c-0.011-0.051-0.02-0.103-0.031-0.154
				c-0.123-0.009-0.259-0.054-0.368-0.02c-0.397,0.129-1.017-0.21-1.095-0.634c-0.013-0.069,0.047-0.196,0.109-0.228
				c0.395-0.203,0.79-0.406,1.202-0.567c0.109-0.042,0.297,0.04,0.415,0.118c0.145,0.094,0.259,0.236,0.381,0.361
				c0.631,0.638,0.629,0.638,0.022,1.294c-0.027,0.029-0.042,0.067-0.103,0.167c0.136,0.067,0.31,0.219,0.386,0.178
				c0.468-0.239,0.915-0.52,1.423-0.821c-0.279-0.1-0.495-0.12-0.631-0.236c-0.643-0.556-1.267-1.136-1.89-1.713
				c-0.381-0.352-0.752-0.718-1.127-1.078c-0.042,0.013-0.087,0.027-0.129,0.04c0.234,0.408,0.051,0.593-0.288,0.759
				c-0.843,0.413-1.687,0.832-2.496,1.305c-0.464,0.27-0.85,0.33-1.278-0.029c-0.071-0.06-0.239-0.009-0.484-0.009
				c0.216,0.265,0.326,0.437,0.468,0.571c0.482,0.453,0.977,0.892,1.468,1.336c0.451,0.408,0.895,0.823,1.354,1.22
				c0.091,0.08,0.261,0.165,0.35,0.132c0.384-0.145,0.752-0.335,1.127-0.506C220.303,42.238,220.289,42.2,220.276,42.16z"/>
			<path class="st17" d="M237.862,53.808c-0.127,0.098-0.257,0.272-0.417,0.31c-0.547,0.132-1.102,0.225-1.658,0.321
				c-0.754,0.129-1.506,0.281-2.264,0.359c-0.395,0.04-0.808,0.294-1.209-0.011c-0.065-0.049-0.174-0.045-0.261-0.065
				c0.016,0.098-0.007,0.234,0.049,0.29c0.439,0.437,0.89,0.863,1.352,1.278c0.074,0.065,0.21,0.06,0.319,0.087
				c-0.009-0.109-0.018-0.216-0.027-0.326c-0.013-0.17-0.094-0.451-0.029-0.491c0.241-0.145,0.571-0.346,0.794-0.279
				c0.359,0.109,0.672,0.399,0.986,0.638c0.339,0.257,0.357,0.404,0.038,0.676c-0.174,0.147-0.424,0.21-0.647,0.283
				c-0.12,0.038-0.259,0.018-0.448,0.027c0.04,0.127,0.04,0.192,0.074,0.223c0.477,0.475,0.953,0.955,1.45,1.412
				c0.08,0.074,0.263,0.036,0.399,0.049c-0.016-0.12,0.011-0.281-0.056-0.357c-0.283-0.315-0.154-0.564,0.089-0.803
				c0.451-0.444,0.924-0.866,1.356-1.325c0.477-0.506,0.924-1.046,1.345-1.53C238.764,54.368,238.302,54.08,237.862,53.808z
				 M236.874,55.358c-0.216,0.201-0.46,0.375-0.705,0.535c-0.049,0.031-0.176-0.013-0.243-0.06
				c-0.123-0.083-0.239-0.183-0.332-0.297c-0.08-0.096-0.196-0.248-0.167-0.326c0.042-0.114,0.19-0.232,0.312-0.263
				c0.286-0.069,0.587-0.087,0.964-0.138c0.062,0.042,0.223,0.096,0.281,0.207C237.021,55.095,236.952,55.285,236.874,55.358z"/>
		</g>
	</g>
</g>
</svg>
