<?xml version="1.0" encoding="utf-8"?>
<!-- Generator: Adobe Illustrator 24.1.0, SVG Export Plug-In . SVG Version: 6.00 Build 0)  -->
<svg version="1.1" id="Layer_1" xmlns="http://www.w3.org/2000/svg" xmlns:xlink="http://www.w3.org/1999/xlink" x="0px" y="0px"
	 viewBox="0 0 630 240" style="enable-background:new 0 0 630 240;" xml:space="preserve">
<style type="text/css">
	.st0{opacity:0.33;enable-background:new    ;}
	.st1{fill:#5C6A75;}
	.st2{fill:url(#SVGID_1_);}
	.st3{fill:url(#SVGID_2_);}
	.st4{fill:url(#SVGID_3_);}
	.st5{fill:url(#SVGID_4_);}
	.st6{fill:url(#SVGID_5_);}
	.st7{fill:#3E4953;}
	.st8{opacity:0.33;fill:#5C6A75;enable-background:new    ;}
	.st9{fill:url(#SVGID_6_);}
	.st10{opacity:0.44;fill:#FFFFFF;enable-background:new    ;}
	.st11{fill:#D9AF28;}
	.st12{fill:#BB6C28;}
	.st13{opacity:0.33;fill:#FFFFFF;enable-background:new    ;}
	.st14{fill:#FFFFFF;}
</style>
<g>
	<g class="st0">
		<path class="st1" d="M187.943,47.202l0.976,11.269c6.622-8.695,15.759-13.04,27.413-13.04c9.994,0,17.461,2.989,22.401,8.962
			c4.938,5.975,7.497,14.961,7.672,26.969v61.832h-29.982V82.601c0-4.849-0.976-8.413-2.927-10.688s-5.501-3.416-10.646-3.416
			c-5.854,0-10.202,2.307-13.04,6.919v67.775h-29.898V47.202H187.943z"/>
		<path class="st1" d="M306.664,116.217c0-2.539-1.331-4.582-3.992-6.118c-2.66-1.539-7.719-3.132-15.166-4.79
			c-7.452-1.655-13.603-3.826-18.452-6.521c-4.851-2.69-8.547-5.955-11.088-9.801c-2.542-3.843-3.814-8.25-3.814-13.218
			c0-8.811,3.638-16.071,10.913-21.781c7.274-5.706,16.797-8.561,28.564-8.561c12.654,0,22.826,2.868,30.518,8.603
			c7.687,5.738,11.533,13.277,11.533,22.621h-29.985c0-7.687-4.051-11.533-12.153-11.533c-3.135,0-5.768,0.874-7.897,2.618
			c-2.129,1.744-3.196,3.92-3.196,6.521c0,2.66,1.302,4.822,3.903,6.477c2.601,1.655,6.756,3.016,12.467,4.081
			c5.706,1.065,10.718,2.337,15.036,3.814c14.428,4.967,21.646,13.867,21.646,26.702c0,8.754-3.89,15.88-11.664,21.379
			c-7.776,5.501-17.847,8.25-30.207,8.25c-8.221,0-15.554-1.477-22.001-4.434s-11.474-6.976-15.082-12.064
			c-3.609-5.086-5.412-10.436-5.412-16.056h27.947c0.116,4.436,1.598,7.672,4.434,9.715c2.838,2.038,6.477,3.06,10.91,3.06
			c4.081,0,7.141-0.827,9.181-2.482C305.641,121.039,306.664,118.877,306.664,116.217z"/>
		<path class="st1" d="M342.702,22.36c0-4.283,1.539-7.793,4.614-10.533c3.075-2.734,7.067-4.105,11.978-4.105
			c4.908,0,8.897,1.371,11.978,4.105c3.075,2.737,4.612,6.247,4.612,10.533c0,4.286-1.541,7.796-4.612,10.533
			c-3.075,2.737-7.069,4.105-11.978,4.105c-4.911,0-8.902-1.368-11.978-4.105C344.241,30.159,342.702,26.646,342.702,22.36z
			 M374.461,143.186h-29.985V47.202h29.985V143.186z"/>
		<path class="st1" d="M421.146,23.339v23.864h15.789v20.756h-15.789v43.914c0,3.609,0.65,6.121,1.951,7.539
			c1.302,1.418,3.873,2.129,7.719,2.129c2.957,0,5.439-0.178,7.452-0.531v21.379c-5.382,1.714-10.999,2.571-16.854,2.571
			c-10.288,0-17.891-2.426-22.797-7.274c-4.911-4.849-7.363-12.21-7.363-22.09V67.959h-12.242V47.202h12.242V23.339L421.146,23.339z
			"/>
		<path class="st1" d="M488.592,144.959c-14.727,0-26.643-4.389-35.75-13.171c-9.107-8.781-13.662-20.21-13.662-34.288v-2.482
			c0-9.819,1.818-18.481,5.457-25.993c3.636-7.509,8.944-13.321,15.922-17.432c6.976-4.11,15.258-6.165,24.839-6.165
			c13.482,0,24.131,4.187,31.936,12.551c7.806,8.366,11.711,20.035,11.711,34.996v11.622h-59.436
			c1.065,5.382,3.399,9.611,7.008,12.684c3.606,3.075,8.277,4.614,14.015,4.614c9.46,0,16.854-3.31,22.179-9.935l13.662,16.147
			c-3.727,5.148-9.003,9.241-15.836,12.286C503.805,143.438,496.454,144.959,488.592,144.959z M485.218,68.49
			c-8.754,0-13.959,5.797-15.614,17.387h30.162v-2.305c0.116-4.79-1.097-8.5-3.638-11.133
			C493.589,69.809,489.95,68.49,485.218,68.49z"/>
	</g>
	<g>
		
			<linearGradient id="SVGID_1_" gradientUnits="userSpaceOnUse" x1="202.0953" y1="94.2263" x2="202.0953" y2="-3.5356" gradientTransform="matrix(1 0 0 -1 0 138)">
			<stop  offset="0" style="stop-color:#E0DFDE"/>
			<stop  offset="0.3079" style="stop-color:#DFDFDD"/>
			<stop  offset="0.656" style="stop-color:#BABABA"/>
			<stop  offset="0.972" style="stop-color:#BABABA"/>
		</linearGradient>
		<path class="st2" d="M186.878,45.545l0.976,11.269c6.622-8.695,15.759-13.04,27.413-13.04c9.994,0,17.461,2.989,22.401,8.962
			c4.938,5.975,7.497,14.961,7.672,26.969v61.832h-29.982V80.939c0-4.849-0.976-8.413-2.927-10.688
			c-1.951-2.275-5.501-3.416-10.646-3.416c-5.854,0-10.202,2.307-13.04,6.919v67.775H158.85V45.545H186.878z"/>
		
			<linearGradient id="SVGID_2_" gradientUnits="userSpaceOnUse" x1="292.3381" y1="94.2287" x2="292.3381" y2="-5.3042" gradientTransform="matrix(1 0 0 -1 0 138)">
			<stop  offset="0" style="stop-color:#E0DFDE"/>
			<stop  offset="0.3079" style="stop-color:#DFDFDD"/>
			<stop  offset="0.656" style="stop-color:#BABABA"/>
			<stop  offset="0.972" style="stop-color:#BABABA"/>
		</linearGradient>
		<path class="st3" d="M305.596,114.562c0-2.539-1.331-4.582-3.992-6.118c-2.66-1.539-7.719-3.132-15.166-4.79
			c-7.452-1.655-13.603-3.826-18.452-6.521c-4.851-2.69-8.547-5.955-11.088-9.801c-2.542-3.843-3.814-8.25-3.814-13.218
			c0-8.811,3.638-16.071,10.913-21.781c7.274-5.706,16.797-8.561,28.564-8.561c12.654,0,22.826,2.868,30.518,8.603
			c7.687,5.738,11.533,13.277,11.533,22.621h-29.987c0-7.687-4.051-11.533-12.153-11.533c-3.135,0-5.768,0.874-7.897,2.618
			c-2.129,1.744-3.196,3.92-3.196,6.521c0,2.66,1.302,4.822,3.903,6.477c2.601,1.655,6.756,3.016,12.467,4.081
			c5.706,1.065,10.718,2.337,15.036,3.814c14.43,4.967,21.646,13.867,21.646,26.702c0,8.754-3.89,15.88-11.664,21.379
			c-7.776,5.501-17.847,8.25-30.207,8.25c-8.221,0-15.554-1.477-22.001-4.434s-11.474-6.976-15.082-12.064
			c-3.609-5.086-5.412-10.436-5.412-16.056h27.947c0.116,4.436,1.596,7.672,4.434,9.715c2.838,2.04,6.477,3.06,10.91,3.06
			c4.081,0,7.141-0.827,9.181-2.482C304.576,119.384,305.596,117.222,305.596,114.562z"/>
		
			<linearGradient id="SVGID_3_" gradientUnits="userSpaceOnUse" x1="358.227" y1="131.9324" x2="358.227" y2="-3.5282" gradientTransform="matrix(1 0 0 -1 0 138)">
			<stop  offset="0" style="stop-color:#E0DFDE"/>
			<stop  offset="0.3079" style="stop-color:#DFDFDD"/>
			<stop  offset="0.656" style="stop-color:#BABABA"/>
			<stop  offset="0.972" style="stop-color:#BABABA"/>
		</linearGradient>
		<path class="st4" d="M341.638,20.705c0-4.283,1.539-7.793,4.614-10.533c3.075-2.734,7.067-4.105,11.975-4.105
			c4.908,0,8.897,1.371,11.978,4.105c3.075,2.737,4.612,6.247,4.612,10.533s-1.541,7.796-4.612,10.533
			c-3.075,2.737-7.069,4.105-11.978,4.105c-4.911,0-8.902-1.368-11.975-4.105C343.174,28.501,341.638,24.991,341.638,20.705z
			 M373.396,141.528h-29.985V45.545h29.985V141.528z"/>
		
			<linearGradient id="SVGID_4_" gradientUnits="userSpaceOnUse" x1="407.5761" y1="116.3189" x2="407.5761" y2="-5.3017" gradientTransform="matrix(1 0 0 -1 0 138)">
			<stop  offset="0" style="stop-color:#E0DFDE"/>
			<stop  offset="0.3079" style="stop-color:#DFDFDD"/>
			<stop  offset="0.656" style="stop-color:#BABABA"/>
			<stop  offset="0.972" style="stop-color:#BABABA"/>
		</linearGradient>
		<path class="st5" d="M420.081,21.681v23.864h15.789v20.756h-15.789v43.914c0,3.609,0.65,6.121,1.951,7.539
			s3.873,2.129,7.719,2.129c2.957,0,5.439-0.178,7.452-0.531v21.379c-5.382,1.714-10.999,2.571-16.854,2.571
			c-10.288,0-17.891-2.426-22.797-7.274c-4.911-4.849-7.363-12.21-7.363-22.09V66.304h-12.242V45.547h12.242V21.681L420.081,21.681z
			"/>
		
			<linearGradient id="SVGID_5_" gradientUnits="userSpaceOnUse" x1="483.0452" y1="94.2263" x2="483.0452" y2="-5.3042" gradientTransform="matrix(1 0 0 -1 0 138)">
			<stop  offset="0" style="stop-color:#E0DFDE"/>
			<stop  offset="0.3079" style="stop-color:#DFDFDD"/>
			<stop  offset="0.656" style="stop-color:#BABABA"/>
			<stop  offset="0.972" style="stop-color:#BABABA"/>
		</linearGradient>
		<path class="st6" d="M487.525,143.304c-14.727,0-26.643-4.389-35.75-13.171c-9.107-8.781-13.662-20.21-13.662-34.288v-2.482
			c0-9.819,1.818-18.481,5.456-25.993c3.636-7.509,8.944-13.321,15.922-17.432c6.976-4.11,15.258-6.165,24.839-6.165
			c13.482,0,24.13,4.187,31.936,12.551c7.806,8.366,11.711,20.035,11.711,34.996v11.622h-59.436
			c1.065,5.385,3.399,9.611,7.008,12.684c3.606,3.075,8.277,4.614,14.015,4.614c9.46,0,16.854-3.31,22.179-9.935l13.662,16.147
			c-3.727,5.148-9.004,9.241-15.836,12.286C502.741,141.783,495.39,143.304,487.525,143.304z M484.153,66.835
			c-8.754,0-13.959,5.797-15.614,17.387h30.162v-2.305c0.116-4.79-1.097-8.5-3.638-11.133
			C492.522,68.151,488.886,66.835,484.153,66.835z"/>
	</g>
	<g>
		<path class="st7" d="M129.293,188.623c0,2.166-0.375,4.066-1.124,5.703c-0.748,1.638-1.818,2.897-3.206,3.782
			c-1.388,0.882-2.996,1.324-4.817,1.324c-2.744,0-4.967-0.983-6.657-2.949s-2.537-4.622-2.537-7.959v-2.426
			c0-2.142,0.38-4.044,1.139-5.696c0.758-1.652,1.835-2.925,3.226-3.811c1.388-0.887,2.991-1.334,4.797-1.334
			s3.404,0.437,4.787,1.309c1.383,0.872,2.453,2.105,3.206,3.698c0.753,1.593,1.146,3.441,1.181,5.543L129.293,188.623
			L129.293,188.623z M127.307,186.069c0-2.833-0.642-5.054-1.924-6.657c-1.282-1.606-3.036-2.406-5.269-2.406
			c-2.189,0-3.927,0.805-5.227,2.416s-1.946,3.858-1.946,6.743v2.455c0,2.791,0.647,5.002,1.939,6.635
			c1.294,1.633,3.048,2.448,5.269,2.448c2.253,0,4.007-0.805,5.269-2.416c1.26-1.611,1.89-3.853,1.89-6.729V186.069L127.307,186.069
			z"/>
		<path class="st7" d="M150.988,199.111h-1.988l-13.524-20.131v20.131h-2.003v-23.528h2.003l13.539,20.149v-20.149h1.971v23.528
			H150.988z"/>
		<path class="st7" d="M169.454,193.326c0-1.304-0.457-2.337-1.376-3.095c-0.914-0.758-2.591-1.48-5.024-2.164
			c-2.436-0.682-4.212-1.43-5.333-2.235c-1.596-1.144-2.391-2.638-2.391-4.491c0-1.801,0.741-3.263,2.221-4.387
			c1.482-1.126,3.374-1.69,5.681-1.69c1.561,0,2.962,0.304,4.192,0.907c1.233,0.605,2.191,1.443,2.868,2.52
			c0.679,1.077,1.018,2.277,1.018,3.601h-2.003c0-1.608-0.548-2.902-1.648-3.883c-1.099-0.978-2.574-1.465-4.426-1.465
			c-1.801,0-3.231,0.4-4.298,1.205c-1.067,0.805-1.601,1.853-1.601,3.149c0,1.198,0.479,2.171,1.438,2.93
			c0.958,0.758,2.495,1.423,4.604,2.001c2.112,0.578,3.71,1.176,4.797,1.793c1.087,0.618,1.907,1.361,2.455,2.221
			c0.548,0.862,0.823,1.88,0.823,3.056c0,1.853-0.741,3.337-2.221,4.459c-1.482,1.119-3.431,1.68-5.857,1.68
			c-1.66,0-3.179-0.296-4.562-0.889c-1.383-0.59-2.436-1.423-3.149-2.49c-0.716-1.067-1.077-2.29-1.077-3.668h1.988
			c0,1.66,0.618,2.967,1.858,3.927c1.24,0.958,2.888,1.438,4.945,1.438c1.833,0,3.3-0.405,4.412-1.21
			C168.898,195.732,169.454,194.66,169.454,193.326z"/>
		<path class="st7" d="M177.334,199.111h-1.986v-23.528h1.986V199.111z"/>
		<path class="st7" d="M198.386,177.266h-8.065v21.846h-1.986v-21.846h-8.048v-1.68h18.098V177.266z"/>
		<path class="st7" d="M214.343,187.833h-11.004v9.596h12.652v1.68h-14.638v-23.525h14.559v1.68h-12.57v8.887h11.004
			L214.343,187.833L214.343,187.833z"/>
		<path class="st7" d="M228.556,189.53v9.584h-1.988v-23.528h8.013c2.443,0,4.375,0.625,5.792,1.875
			c1.418,1.25,2.124,2.967,2.124,5.155c0,2.208-0.682,3.913-2.043,5.116c-1.361,1.2-3.337,1.803-5.921,1.803h-5.978L228.556,189.53
			L228.556,189.53z M228.556,187.848h6.027c1.927,0,3.396-0.457,4.412-1.376c1.01-0.916,1.519-2.196,1.519-3.836
			c0-1.628-0.504-2.925-1.509-3.893c-1.008-0.966-2.436-1.46-4.291-1.48h-6.156C228.556,177.263,228.556,187.848,228.556,187.848z"
			/>
		<path class="st7" d="M254.907,189.303h-6.835v9.809h-2.003v-23.528h7.643c2.51,0,4.468,0.608,5.881,1.823
			c1.41,1.215,2.117,2.915,2.117,5.101c0,1.507-0.442,2.833-1.324,3.987c-0.882,1.154-2.068,1.946-3.557,2.389l5.881,10.016v0.212
			h-2.117L254.907,189.303z M248.07,187.62h6.091c1.67,0,3.009-0.477,4.024-1.425c1.013-0.949,1.519-2.179,1.519-3.69
			c0-1.662-0.529-2.952-1.583-3.866c-1.055-0.916-2.537-1.376-4.444-1.376h-5.607V187.62L248.07,187.62z"/>
		<path class="st7" d="M283.677,188.623c0,2.166-0.375,4.066-1.124,5.703c-0.748,1.638-1.818,2.897-3.206,3.782
			c-1.388,0.884-2.996,1.324-4.817,1.324c-2.744,0-4.967-0.983-6.657-2.949c-1.69-1.966-2.537-4.622-2.537-7.959v-2.426
			c0-2.142,0.38-4.044,1.139-5.696c0.758-1.652,1.835-2.925,3.226-3.811c1.388-0.887,2.991-1.334,4.797-1.334
			c1.808,0,3.404,0.437,4.787,1.309c1.383,0.872,2.453,2.105,3.206,3.698c0.753,1.593,1.146,3.441,1.181,5.543L283.677,188.623
			L283.677,188.623z M281.691,186.069c0-2.833-0.642-5.054-1.924-6.657c-1.282-1.606-3.036-2.406-5.269-2.406
			c-2.189,0-3.927,0.805-5.227,2.416c-1.299,1.611-1.946,3.858-1.946,6.743v2.455c0,2.791,0.647,5.002,1.939,6.635
			c1.294,1.633,3.048,2.448,5.269,2.448c2.253,0,4.007-0.805,5.269-2.416c1.26-1.611,1.89-3.853,1.89-6.729V186.069L281.691,186.069
			z"/>
		<path class="st7" d="M300.819,188.107h-10.972v11.004h-1.988v-23.528h14.574v1.68h-12.588v9.162h10.972L300.819,188.107
			L300.819,188.107z"/>
		<path class="st7" d="M318.636,187.833h-11.004v9.596h12.652v1.68h-14.638v-23.525h14.559v1.68h-12.57v8.887h11.004
			L318.636,187.833L318.636,187.833z"/>
		<path class="st7" d="M336.957,193.326c0-1.304-0.457-2.337-1.373-3.095c-0.914-0.758-2.591-1.48-5.024-2.164
			c-2.436-0.682-4.212-1.43-5.333-2.235c-1.596-1.144-2.391-2.638-2.391-4.491c0-1.801,0.741-3.263,2.221-4.387
			c1.482-1.126,3.374-1.69,5.681-1.69c1.561,0,2.962,0.304,4.192,0.907c1.233,0.605,2.191,1.443,2.868,2.52
			c0.679,1.077,1.018,2.277,1.018,3.601h-2.003c0-1.608-0.548-2.902-1.648-3.883c-1.099-0.978-2.576-1.465-4.426-1.465
			c-1.801,0-3.231,0.4-4.298,1.205c-1.067,0.805-1.601,1.853-1.601,3.149c0,1.198,0.479,2.171,1.438,2.93s2.495,1.423,4.604,2.001
			c2.112,0.578,3.71,1.176,4.797,1.793c1.087,0.618,1.907,1.361,2.455,2.221c0.548,0.862,0.823,1.88,0.823,3.056
			c0,1.853-0.741,3.337-2.221,4.459c-1.482,1.119-3.431,1.68-5.857,1.68c-1.66,0-3.179-0.296-4.562-0.889
			c-1.383-0.59-2.436-1.423-3.149-2.49c-0.716-1.067-1.077-2.29-1.077-3.668h1.988c0,1.66,0.618,2.967,1.858,3.927
			c1.24,0.958,2.888,1.438,4.945,1.438c1.833,0,3.3-0.405,4.412-1.21C336.401,195.732,336.957,194.66,336.957,193.326z"/>
		<path class="st7" d="M355.727,193.326c0-1.304-0.457-2.337-1.376-3.095c-0.914-0.758-2.591-1.48-5.024-2.164
			c-2.435-0.682-4.211-1.43-5.333-2.235c-1.596-1.144-2.391-2.638-2.391-4.491c0-1.801,0.741-3.263,2.221-4.387
			c1.482-1.126,3.374-1.69,5.681-1.69c1.561,0,2.962,0.304,4.192,0.907c1.233,0.605,2.191,1.443,2.865,2.52
			c0.679,1.077,1.018,2.277,1.018,3.601h-2.003c0-1.608-0.548-2.902-1.648-3.883c-1.099-0.978-2.576-1.465-4.426-1.465
			c-1.801,0-3.231,0.4-4.298,1.205c-1.067,0.805-1.601,1.853-1.601,3.149c0,1.198,0.479,2.171,1.438,2.93
			c0.958,0.758,2.495,1.423,4.604,2.001c2.112,0.578,3.71,1.176,4.797,1.793c1.087,0.618,1.907,1.361,2.455,2.221
			c0.548,0.862,0.825,1.88,0.825,3.056c0,1.853-0.741,3.337-2.221,4.459c-1.482,1.119-3.431,1.68-5.857,1.68
			c-1.66,0-3.179-0.296-4.562-0.889c-1.383-0.59-2.436-1.423-3.152-2.49c-0.716-1.067-1.077-2.29-1.077-3.668h1.988
			c0,1.66,0.618,2.967,1.858,3.927c1.24,0.958,2.888,1.438,4.945,1.438c1.833,0,3.3-0.405,4.412-1.21
			C355.171,195.732,355.727,194.66,355.727,193.326z"/>
		<path class="st7" d="M363.607,199.111h-1.986v-23.528h1.986V199.111z"/>
		<path class="st7" d="M386.549,188.623c0,2.166-0.375,4.066-1.124,5.703c-0.748,1.638-1.818,2.897-3.206,3.782
			c-1.388,0.884-2.996,1.324-4.817,1.324c-2.744,0-4.967-0.983-6.657-2.949c-1.692-1.966-2.537-4.622-2.537-7.959v-2.426
			c0-2.142,0.38-4.044,1.139-5.696s1.835-2.925,3.226-3.811c1.388-0.887,2.991-1.334,4.797-1.334c1.808,0,3.404,0.437,4.787,1.309
			c1.383,0.872,2.453,2.105,3.206,3.698s1.146,3.441,1.181,5.543L386.549,188.623L386.549,188.623z M384.561,186.069
			c0-2.833-0.642-5.054-1.924-6.657c-1.282-1.606-3.036-2.406-5.269-2.406c-2.188,0-3.927,0.805-5.227,2.416
			s-1.946,3.858-1.946,6.743v2.455c0,2.791,0.647,5.002,1.939,6.635c1.294,1.633,3.048,2.448,5.269,2.448
			c2.253,0,4.007-0.805,5.269-2.416c1.26-1.611,1.89-3.853,1.89-6.729L384.561,186.069L384.561,186.069z"/>
		<path class="st7" d="M408.244,199.111h-1.988l-13.524-20.131v20.131h-2.003v-23.528h2.003l13.539,20.149v-20.149h1.971
			L408.244,199.111L408.244,199.111z"/>
		<path class="st7" d="M426.385,192.499h-10.681l-2.426,6.61h-2.085l8.902-23.525h1.89l8.902,23.525h-2.07L426.385,192.499z
			 M416.319,190.822h9.436l-4.72-12.812L416.319,190.822z"/>
		<path class="st7" d="M435.526,197.429h11.617v1.68h-13.623v-23.525h2.003L435.526,197.429L435.526,197.429z"/>
		<path class="st7" d="M171.252,232.369v-23.525h6.575c1.927,0,3.658,0.44,5.185,1.317c1.531,0.877,2.725,2.137,3.579,3.772
			c0.855,1.638,1.284,3.5,1.284,5.59v2.166c0,2.102-0.425,3.962-1.275,5.59c-0.852,1.625-2.048,2.883-3.594,3.764
			c-1.544,0.882-3.32,1.324-5.323,1.324L171.252,232.369L171.252,232.369z M173.238,210.526v20.163h4.459
			c2.475,0,4.464-0.823,5.963-2.468c1.497-1.643,2.245-3.866,2.245-6.672v-2.07c0-2.705-0.739-4.874-2.213-6.501
			s-3.421-2.445-5.834-2.458h-4.619V210.526z"/>
		<path class="st7" d="M205.08,221.093h-11.004v9.596h12.652v1.68H192.09v-23.525h14.559v1.68h-12.57v8.887h11.004L205.08,221.093
			L205.08,221.093z"/>
		<path class="st7" d="M217.177,229.462l0.128,0.501l0.148-0.501l7.4-20.618h2.181l-8.757,23.525h-1.907l-8.757-23.525h2.166
			L217.177,229.462z"/>
		<path class="st7" d="M242.656,221.093h-11.004v9.596h12.652v1.68h-14.638v-23.525h14.559v1.68h-12.57v8.887h11.004
			L242.656,221.093L242.656,221.093z"/>
		<path class="st7" d="M249.666,230.689h11.617v1.68H247.66v-23.525h2.003L249.666,230.689L249.666,230.689z"/>
		<path class="st7" d="M280.604,221.883c0,2.166-0.375,4.066-1.124,5.703c-0.748,1.638-1.818,2.897-3.206,3.782
			c-1.388,0.884-2.996,1.324-4.817,1.324c-2.744,0-4.967-0.983-6.657-2.949c-1.69-1.966-2.537-4.622-2.537-7.959v-2.426
			c0-2.142,0.38-4.044,1.139-5.696c0.758-1.652,1.835-2.925,3.226-3.811c1.388-0.887,2.991-1.334,4.797-1.334
			c1.808,0,3.404,0.437,4.787,1.309c1.383,0.872,2.453,2.105,3.206,3.698c0.753,1.593,1.146,3.441,1.181,5.543L280.604,221.883
			L280.604,221.883z M278.615,219.329c0-2.833-0.642-5.051-1.924-6.657c-1.282-1.606-3.036-2.406-5.269-2.406
			c-2.189,0-3.927,0.805-5.227,2.416c-1.299,1.611-1.946,3.858-1.946,6.743v2.455c0,2.791,0.647,5.002,1.939,6.635
			c1.294,1.633,3.048,2.448,5.269,2.448c2.253,0,4.007-0.805,5.269-2.416c1.26-1.611,1.89-3.853,1.89-6.729V219.329L278.615,219.329
			z"/>
		<path class="st7" d="M286.772,222.787v9.584h-1.988v-23.525h8.013c2.443,0,4.375,0.625,5.792,1.875s2.124,2.967,2.124,5.155
			c0,2.208-0.682,3.913-2.043,5.116c-1.361,1.2-3.337,1.803-5.921,1.803h-5.978L286.772,222.787L286.772,222.787z M286.772,221.108
			h6.027c1.927,0,3.396-0.457,4.412-1.376c1.01-0.916,1.519-2.196,1.519-3.836c0-1.628-0.504-2.925-1.509-3.893
			c-1.008-0.966-2.436-1.46-4.291-1.48h-6.156L286.772,221.108L286.772,221.108z"/>
		<path class="st7" d="M306.965,208.844l8.677,20.761l8.707-20.761H327v23.525h-1.988v-10.244l0.161-10.503l-8.757,20.746h-1.536
			l-8.727-20.665l0.161,10.355v10.308h-1.988v-23.525C304.329,208.844,306.965,208.844,306.965,208.844z"/>
		<path class="st7" d="M345.126,221.093h-11.004v9.596h12.652v1.68h-14.638v-23.525h14.559v1.68h-12.57v8.887h11.004
			L345.126,221.093L345.126,221.093z"/>
		<path class="st7" d="M367.646,232.369h-1.988l-13.524-20.131v20.131h-2.003v-23.525h2.003l13.539,20.149v-20.149h1.971
			L367.646,232.369L367.646,232.369z"/>
		<path class="st7" d="M388.291,210.526h-8.065v21.846h-1.986v-21.846h-8.048v-1.68h18.098V210.526L388.291,210.526z"/>
	</g>
	<path class="st8" d="M146.121,60.743c-0.022-0.054-0.054-0.121-0.079-0.178c-0.254-0.62-0.553-1.22-0.82-1.83
		c-0.61-1.376-1.242-2.729-1.929-4.071c-0.388-0.743-0.785-1.475-1.198-2.218c-0.687-1.22-1.408-2.428-2.151-3.604
		c-0.41-0.645-0.798-1.284-1.22-1.917c-1.154-1.697-2.349-3.349-3.638-4.948c-0.346-0.432-0.719-0.832-1.077-1.242
		c-1.02-1.22-2.072-2.406-3.172-3.55c-0.543-0.566-1.087-1.109-1.64-1.653c-1.033-1.01-2.097-1.996-3.184-2.939
		c-0.543-0.467-1.065-0.944-1.606-1.398c-1.596-1.319-3.251-2.596-4.958-3.772c-0.299-0.212-0.632-0.388-0.931-0.598
		c-1.465-0.976-2.972-1.917-4.515-2.784c-0.61-0.346-1.242-0.677-1.862-1.01c-1.351-0.719-2.717-1.386-4.125-2.018
		c-0.61-0.279-1.198-0.566-1.818-0.81c-1.971-0.832-3.982-1.596-6.032-2.238c-0.178-0.054-0.353-0.089-0.531-0.146
		c-1.907-0.588-3.861-1.087-5.822-1.531c-0.655-0.146-1.319-0.267-1.971-0.388c-1.586-0.299-3.196-0.553-4.824-0.744
		c-0.664-0.079-1.319-0.165-1.996-0.232c-2.228-0.212-4.481-0.353-6.766-0.353c-2.305,0-4.589,0.146-6.842,0.353
		c-0.711,0.067-1.398,0.178-2.072,0.254c-1.573,0.188-3.139,0.42-4.681,0.711c-0.743,0.146-1.485,0.287-2.218,0.454
		c-1.586,0.366-3.149,0.778-4.681,1.23c-0.588,0.178-1.186,0.321-1.774,0.521c-2.072,0.664-4.115,1.418-6.099,2.263
		c-0.388,0.165-0.766,0.366-1.144,0.531c-1.606,0.719-3.172,1.485-4.715,2.317c-0.664,0.353-1.309,0.744-1.951,1.109
		c-1.252,0.719-2.485,1.475-3.693,2.272c-0.655,0.432-1.297,0.865-1.939,1.309c-1.275,0.909-2.507,1.85-3.715,2.831
		c-0.467,0.388-0.966,0.743-1.43,1.144c-1.586,1.341-3.117,2.764-4.582,4.236c-0.521,0.511-0.986,1.052-1.485,1.586
		c-0.976,1.033-1.929,2.097-2.838,3.172c-0.566,0.687-1.109,1.376-1.662,2.085c-0.798,1.02-1.564,2.085-2.305,3.149
		c-0.511,0.719-1.02,1.44-1.507,2.196c-0.82,1.265-1.586,2.586-2.329,3.903c-0.41,0.711-0.82,1.418-1.21,2.151
		c-0.865,1.662-1.672,3.384-2.416,5.123c-0.353,0.82-0.664,1.672-0.986,2.52c-0.299,0.778-0.632,1.531-0.909,2.317
		c0.022,0.012,0.032,0.022,0.054,0.032C6.41,72.14,4.856,80.492,4.856,89.241c0,41.246,32.875,74.684,73.409,74.684
		s73.409-33.428,73.409-74.684C151.667,79.153,149.681,69.527,146.121,60.743C146.109,60.753,146.121,60.753,146.121,60.743z"/>
	
		<linearGradient id="SVGID_6_" gradientUnits="userSpaceOnUse" x1="77.077" y1="-132.0132" x2="77.077" y2="-281.3805" gradientTransform="matrix(1 0 0 -1 0 -119.8)">
		<stop  offset="0" style="stop-color:#E0DFDE"/>
		<stop  offset="0.3079" style="stop-color:#DFDFDD"/>
		<stop  offset="0.656" style="stop-color:#BABABA"/>
		<stop  offset="0.972" style="stop-color:#BABABA"/>
	</linearGradient>
	<path class="st9" d="M61.098,46.582c5.368,0,58.613,30.763,58.613,40.505c0,9.725-51.803,40.505-58.613,40.505
		C54.3,127.599,55.743,46.582,61.098,46.582z M77.082,12.213c40.547,0,73.409,33.448,73.409,74.684
		c0,41.246-32.875,74.684-73.409,74.684S3.663,128.133,3.663,86.884S36.535,12.213,77.082,12.213z"/>
	<path class="st10" d="M77.082,12.213c-31.951,0-59.115,20.771-69.205,49.75c12.677,9.162,29.636,15.658,48.787,18.168
		c0.477-17.691,2.072-33.549,4.436-33.549c3.969,0,34.127,16.846,49.563,29.535c13.519-3.992,25.274-10.115,34.27-17.723
		C133.931,31.287,107.704,12.213,77.082,12.213z"/>
	<path class="st11" d="M61.098,46.582c5.368,0,58.613,30.763,58.613,40.505c0,9.725-51.803,40.505-58.613,40.505
		C54.3,127.599,55.743,46.582,61.098,46.582z"/>
	<g>
		<path class="st12" d="M61.098,46.582c-0.677,0-1.297,1.309-1.84,3.604c6.82,0.998,58.27,30.876,58.27,40.458
			c0,0.366-0.099,0.766-0.232,1.198c1.541-1.862,2.428-3.495,2.428-4.748C119.714,77.347,66.456,46.582,61.098,46.582z"/>
	</g>
	<path class="st13" d="M56.662,80.131c5.654,0.743,11.488,1.131,17.469,1.131c13.02,0,25.375-1.84,36.53-5.135
		c-15.438-12.699-45.593-29.52-49.563-29.52C58.737,46.582,57.143,62.453,56.662,80.131z"/>
	<g>
		<g>
			<path class="st14" d="M529.847,23.054h-3.128v8.71h-1.284v-8.71h-3.128v-1.046h7.55L529.847,23.054L529.847,23.054z"/>
			<path class="st14" d="M532.956,21.999l3.185,7.958l3.195-7.958H541v9.756h-1.293V27.96l0.124-4.108l-3.204,7.901h-0.989
				l-3.195-7.882l0.124,4.089v3.794h-1.284v-9.756H532.956z"/>
		</g>
	</g>
</g>
</svg>
