<?xml version="1.0" encoding="utf-8"?>
<!-- Generator: Adobe Illustrator 24.0.3, SVG Export Plug-In . SVG Version: 6.00 Build 0)  -->
<svg version="1.1" id="Layer_1" xmlns="http://www.w3.org/2000/svg" xmlns:xlink="http://www.w3.org/1999/xlink" x="0px" y="0px"
	 viewBox="0 0 90 150" style="enable-background:new 0 0 90 150;" xml:space="preserve">
<style type="text/css">
	.st0{fill:#00B2E3;}
</style>
<g>
	<path class="st0" d="M57.261,34.116c0-5.653-4.583-10.235-10.235-10.235s-10.235,4.583-10.235,10.235s4.582,10.235,10.235,10.235
		S57.261,39.769,57.261,34.116z M43.615,34.116c0-1.881,1.531-3.412,3.412-3.412s3.412,1.531,3.412,3.412s-1.531,3.412-3.412,3.412
		S43.615,35.997,43.615,34.116z"/>
	<path class="st0" d="M47.027,0C23.825,0,4.949,18.875,4.949,42.077v36.959c0,17.052,10.232,32.313,26.067,38.881
		c0.428,0.177,0.871,0.261,1.306,0.261c1.338,0,2.607-0.793,3.153-2.106c0.722-1.74-0.105-3.737-1.845-4.459
		c-13.278-5.507-21.858-18.294-21.858-32.578v-36.96c0-19.439,15.815-35.254,35.254-35.254S82.28,22.638,82.28,42.077v36.959
		c0,13.448-7.563,25.55-19.737,31.581c-1.688,0.837-2.379,2.884-1.542,4.572c0.837,1.689,2.886,2.381,4.572,1.542
		c14.514-7.192,23.531-21.636,23.531-37.696V42.077C89.104,18.875,70.229,0,47.027,0z"/>
	<path class="st0" d="M62.81,128.255l-10.098,10.098V97.559c0-1.885-1.527-3.412-3.412-3.412s-3.412,1.527-3.412,3.412v40.793
		L35.79,128.254c-1.333-1.333-3.492-1.333-4.824,0c-1.333,1.331-1.333,3.492,0,4.824L46.888,149c0.667,0.667,1.539,1,2.412,1
		c0.873,0,1.746-0.333,2.412-1l15.922-15.922c1.333-1.331,1.333-3.492,0-4.824C66.302,126.922,64.143,126.922,62.81,128.255z"/>
</g>
</svg>
