<?xml version="1.0" encoding="utf-8"?>
<!-- Generator: Adobe Illustrator 24.1.0, SVG Export Plug-In . SVG Version: 6.00 Build 0)  -->
<svg version="1.1" id="Layer_1" xmlns="http://www.w3.org/2000/svg" xmlns:xlink="http://www.w3.org/1999/xlink" x="0px" y="0px"
	 viewBox="0 0 150 90" style="enable-background:new 0 0 150 90;" xml:space="preserve">
<g>
	<path d="M37.271,35.555c-5.217,0-9.445,4.229-9.445,9.445s4.229,9.445,9.445,9.445s9.445-4.228,9.445-9.445
		S42.488,35.555,37.271,35.555z M37.271,48.148c-1.736,0-3.149-1.413-3.149-3.149c0-1.736,1.413-3.149,3.149-3.149
		S40.42,43.264,40.42,45C40.42,46.735,39.007,48.148,37.271,48.148z"/>
	<path d="M5.788,45c0,21.412,17.418,38.831,38.83,38.831h34.107c15.736,0,29.819-9.442,35.881-24.055
		c0.163-0.395,0.241-0.804,0.241-1.205c0-1.235-0.732-2.406-1.943-2.91c-1.606-0.666-3.449,0.097-4.115,1.703
		c-5.082,12.253-16.882,20.171-30.064,20.171H44.616c-17.939,0-32.534-14.595-32.534-32.534s14.596-32.534,32.535-32.534h34.107
		c12.41,0,23.578,6.979,29.144,18.214c0.772,1.558,2.661,2.195,4.219,1.423c1.559-0.772,2.197-2.663,1.423-4.219
		C106.874,14.491,93.544,6.17,78.724,6.17H44.618C23.206,6.17,5.788,23.588,5.788,45z"/>
	<path d="M124.145,30.434l9.319,9.319H95.818c-1.74,0-3.149,1.409-3.149,3.149c0,1.74,1.409,3.149,3.149,3.149h37.645l-9.319,9.319
		c-1.23,1.23-1.23,3.223,0,4.452c1.228,1.23,3.223,1.23,4.452,0l14.693-14.693c0.616-0.616,0.923-1.42,0.923-2.226
		c0-0.806-0.307-1.611-0.923-2.226l-14.693-14.693c-1.228-1.23-3.223-1.23-4.452,0C122.915,27.212,122.915,29.204,124.145,30.434z"
		/>
</g>
</svg>
