<?xml version="1.0" encoding="utf-8"?>
<!-- Generator: Adobe Illustrator 24.1.3, SVG Export Plug-In . SVG Version: 6.00 Build 0)  -->
<svg version="1.1" id="Layer_1" xmlns="http://www.w3.org/2000/svg" xmlns:xlink="http://www.w3.org/1999/xlink" x="0px" y="0px"
	 viewBox="0 0 690 153.73" style="enable-background:new 0 0 690 153.73;" xml:space="preserve">
<g>
	<path d="M359.461,25.693c-22.346-7.765-47.82-5.396-68.117,0.872l11.087,72.6l-47.714-77.761l-47.408,94.115
		C194.508,70.609,187.698,22.3,187.698,22.3l-40.653,67.805L101.954,18.4l-7.591,73.136c-0.289-0.777-0.495-1.202-0.495-1.202
		l-0.018-0.218c-0.439-0.931-1.093-2.156-1.452-2.728c-6.519-11.807-28.482-18.782-43.995-24.084
		C9.07,49.835,21.079,35.99,42.397,32.692c14.885-2.321,31.767,0.353,42.368,6.975l5.444-15.883
		C60.473,8.136-5.599,12.507,5.105,53.618c6.186,23.767,56.289,27.159,68.138,41.052c0.984,1.166,2.35,2.822,2.996,4.324
		c0.883,2.05,1.175,4.401,0.241,7.358c-0.139,0.442-0.353,1.879-0.643,2.457c-0.421,0.849-0.895,1.691-1.243,2.133
		c-7.58,9.591-22.812,9.962-36.765,8.259c-15.995-1.95-30.286-9.833-31.113-11.682L0,124.415
		c25.278,13.65,73.248,21.721,91.149-3.429c0.074-0.1,0.118-0.171,0.183-0.271l-1.676,16.16l18.994-0.324l5.868-66.237
		l33.395,52.752l31.172-52.752c0,0,3.311,13.668,9.338,38.76c5.09,21.191,8.283,29.233,8.283,29.233l16.349-1.279l16.172-32.55
		h57.748l21.592,32.538l17.863-0.029l-9.608-56.776c11.877,16.508,44.686,38.312,70.49,47.378l-1.726,9.833l18.676,0.43
		l16.413-96.938l39.508,0.436l6.15-15.871L359.461,25.693z M237.103,88.613l19.017-38.271l20.332,38.271H237.103z M313.473,59.05
		l-3.353-21.481c11.341-6.798,47.932-2.698,43.838,8.637C349.852,57.542,314.228,62.397,313.473,59.05z M390.221,112.267
		c-22.558-7.988-57.211-34-58.502-39.396c12.737-0.966,39.938-8.201,37.021-31.519l32.497,0.213L390.221,112.267z"/>
	<path d="M432.895,116.855c-5.502,0-9.847,4.17-9.847,9.497c0,5.331,4.345,9.558,9.79,9.558c5.441,0,9.729-4.226,9.729-9.558
		C442.567,121.024,438.279,116.855,432.895,116.855z M432.895,133.941c-4.226,0-7.414-3.359-7.414-7.59
		c0-4.165,3.188-7.585,7.301-7.585c4.222,0,7.352,3.42,7.352,7.642C440.134,130.582,437.003,133.998,432.895,133.941z"/>
	<path d="M435.034,126.64v-0.114c1.101-0.351,1.969-1.101,1.969-2.258c0-0.925-0.398-1.622-0.982-2.03
		c-0.636-0.46-1.447-0.749-3.24-0.749c-1.566,0-2.78,0.17-3.653,0.289v9.497h2.201v-3.766h1.044c1.214,0,1.798,0.465,1.969,1.452
		c0.289,1.157,0.46,1.968,0.749,2.315h2.324c-0.18-0.347-0.413-0.868-0.702-2.315C436.424,127.684,435.964,126.935,435.034,126.64z
		 M432.435,125.944h-1.048v-2.718c0.237-0.062,0.64-0.113,1.218-0.113c1.39,0,2.025,0.578,2.025,1.447
		C434.631,125.54,433.65,125.944,432.435,125.944z"/>
</g>
</svg>
