<?xml version="1.0" encoding="utf-8"?>
<!-- Generator: Adobe Illustrator 25.2.3, SVG Export Plug-In . SVG Version: 6.00 Build 0)  -->
<svg version="1.1" id="Layer_1" xmlns="http://www.w3.org/2000/svg" xmlns:xlink="http://www.w3.org/1999/xlink" x="0px" y="0px"
	 viewBox="0 0 396 100" style="enable-background:new 0 0 396 100;" xml:space="preserve">
<a>
	<path d="M30.476,21C15.108,21,2.647,33.461,2.647,48.829c0,15.371,12.461,27.829,27.829,27.829
		c15.369,0,27.829-12.456,27.829-27.829C58.302,33.461,45.845,21,30.476,21z M36.436,48.838h-3.9c0,6.23,0,13.904,0,13.904h-5.779
		c0,0,0-7.595,0-13.904H24.01v-4.912h2.747v-3.18c0-2.276,1.081-5.833,5.831-5.833l4.28,0.018v4.77c0,0-2.602,0-3.106,0
		c-0.506,0-1.226,0.252-1.226,1.339v2.888h4.406L36.436,48.838z"/>
</a>
<a>
	<path d="M113.62,21c-15.368,0-27.829,12.461-27.829,27.829c0,15.371,12.461,27.829,27.829,27.829s27.829-12.456,27.829-27.829
		C141.448,33.461,128.989,21,113.62,21z M124.687,43.155c0.011,0.244,0.018,0.49,0.018,0.737c0,7.544-5.742,16.244-16.244,16.244
		c-3.225,0-6.224-0.945-8.753-2.565c0.449,0.051,0.902,0.078,1.363,0.078c2.677,0,5.137-0.91,7.089-2.442
		c-2.497-0.048-4.607-1.698-5.332-3.964c0.348,0.064,0.706,0.102,1.073,0.102c0.52,0,1.026-0.072,1.504-0.2
		c-2.608-0.527-4.578-2.833-4.578-5.598c0-0.024,0-0.048,0-0.072c0.771,0.428,1.651,0.683,2.586,0.714
		c-1.532-1.022-2.54-2.771-2.54-4.752c0-1.046,0.283-2.027,0.773-2.87c2.814,3.454,7.024,5.728,11.766,5.965
		c-0.096-0.418-0.148-0.852-0.148-1.301c0-3.153,2.556-5.707,5.71-5.707c1.641,0,3.126,0.693,4.166,1.801
		c1.299-0.254,2.522-0.73,3.625-1.386c-0.428,1.335-1.331,2.452-2.509,3.159c1.154-0.136,2.256-0.444,3.277-0.897
		C126.77,41.345,125.803,42.351,124.687,43.155z"/>
</a>
<a>
	<path d="M198.432,46.784v-0.057c-0.01,0.019-0.026,0.042-0.038,0.057H198.432z"/>
	<path d="M196.765,21c-15.369,0-27.829,12.461-27.829,27.829c0,15.371,12.458,27.829,27.829,27.829
		c15.368,0,27.829-12.456,27.829-27.829C224.594,33.461,212.133,21,196.765,21z M189.17,62.129h-5.967V44.186h5.967V62.129z
		 M186.185,41.733h-0.038c-2,0-3.295-1.379-3.295-3.102c0-1.759,1.335-3.102,3.373-3.102c2.042,0,3.3,1.341,3.336,3.102
		C189.559,40.354,188.265,41.733,186.185,41.733z M210.679,62.129h-5.965v-9.6c0-2.412-0.864-4.059-3.023-4.059
		c-1.646,0-2.629,1.114-3.06,2.184c-0.158,0.383-0.196,0.915-0.196,1.454v10.02h-5.964c0,0,0.077-16.262,0-17.943h5.964v2.541
		c0.795-1.226,2.212-2.963,5.378-2.963c3.924,0,6.869,2.562,6.869,8.074L210.679,62.129L210.679,62.129z"/>
</a>
<a>
	<path d="M279.668,44.589c0.215,0,0.386-0.057,0.511-0.177c0.128-0.12,0.192-0.286,0.192-0.492v-4.225
		c0-0.171-0.064-0.305-0.193-0.41c-0.129-0.105-0.3-0.156-0.509-0.156c-0.192,0-0.35,0.051-0.473,0.156
		c-0.118,0.105-0.18,0.241-0.18,0.41v4.225c0,0.214,0.057,0.377,0.171,0.492C279.298,44.536,279.459,44.589,279.668,44.589z"/>
	<path d="M283.166,52.396c-0.219,0-0.434,0.054-0.65,0.166c-0.211,0.112-0.413,0.278-0.603,0.49v-3.074h-1.422v9.549h1.424v-0.54
		c0.184,0.217,0.386,0.374,0.603,0.476c0.214,0.105,0.458,0.153,0.734,0.153c0.415,0,0.737-0.129,0.956-0.397
		c0.223-0.268,0.33-0.648,0.33-1.145v-3.909c0-0.578-0.115-1.015-0.353-1.317C283.953,52.545,283.614,52.396,283.166,52.396z
		 M283.089,57.875c0,0.228-0.042,0.386-0.12,0.485c-0.081,0.102-0.208,0.153-0.382,0.153c-0.118,0-0.231-0.027-0.34-0.078
		c-0.109-0.048-0.22-0.136-0.335-0.247v-4.388c0.096-0.099,0.192-0.171,0.291-0.217c0.099-0.043,0.2-0.067,0.3-0.067
		c0.188,0,0.337,0.062,0.439,0.184c0.101,0.123,0.148,0.302,0.148,0.544L283.089,57.875L283.089,57.875z"/>
	<polygon points="269.923,51.367 271.564,51.367 271.564,59.525 273.15,59.525 273.15,51.367 274.793,51.367 274.793,49.978 
		269.923,49.978 	"/>
	<path d="M278.024,57.832c-0.132,0.153-0.276,0.278-0.436,0.382c-0.158,0.099-0.291,0.147-0.393,0.147
		c-0.131,0-0.228-0.034-0.289-0.112c-0.056-0.075-0.086-0.193-0.086-0.361v-5.404h-1.408v5.89c0,0.421,0.083,0.73,0.246,0.94
		c0.166,0.214,0.41,0.316,0.738,0.316c0.263,0,0.536-0.072,0.817-0.223c0.281-0.148,0.552-0.367,0.811-0.653v0.774h1.408v-7.045
		h-1.408V57.832L278.024,57.832z"/>
	<path d="M279.914,21c-15.368,0-27.829,12.461-27.829,27.829c0,15.371,12.461,27.829,27.829,27.829
		c15.369,0,27.829-12.456,27.829-27.829C307.741,33.461,295.283,21,279.914,21z M283.271,37.978h1.584v5.948
		c0,0.184,0.038,0.316,0.102,0.397c0.064,0.085,0.176,0.125,0.322,0.125c0.115,0,0.265-0.054,0.444-0.163
		c0.176-0.112,0.34-0.247,0.487-0.418v-5.89h1.587v7.758h-1.587v-0.859c-0.291,0.316-0.595,0.56-0.911,0.725
		c-0.316,0.163-0.621,0.252-0.919,0.252c-0.369,0-0.642-0.118-0.828-0.353c-0.185-0.228-0.278-0.573-0.278-1.036L283.271,37.978
		L283.271,37.978z M277.385,39.752c0-0.602,0.214-1.081,0.638-1.433c0.426-0.358,1.003-0.533,1.722-0.533
		c0.656,0,1.192,0.187,1.614,0.56c0.415,0.374,0.624,0.864,0.624,1.451v4.008c0,0.666-0.204,1.183-0.613,1.563
		c-0.413,0.377-0.979,0.567-1.698,0.567c-0.693,0-1.248-0.196-1.665-0.587c-0.415-0.391-0.624-0.915-0.624-1.572L277.385,39.752
		L277.385,39.752z M273.067,35.22l1.159,4.206h0.112l1.106-4.206h1.812l-2.077,6.155v4.363h-1.783V41.57l-2.125-6.349h1.796V35.22z
		 M293.829,57.356c0,2.806-2.278,5.084-5.084,5.084h-17.663c-2.808,0-5.083-2.28-5.083-5.084v-4.087
		c0-2.806,2.275-5.084,5.083-5.084h17.663c2.806,0,5.084,2.28,5.084,5.084V57.356z"/>
	<path d="M287.415,52.307c-0.631,0-1.141,0.19-1.54,0.573s-0.597,0.888-0.597,1.494v3.162c0,0.68,0.184,1.212,0.544,1.596
		c0.362,0.391,0.859,0.581,1.489,0.581c0.701,0,1.231-0.18,1.579-0.544c0.358-0.367,0.532-0.91,0.532-1.635v-0.361h-1.449v0.319
		c0,0.415-0.049,0.683-0.139,0.806c-0.094,0.123-0.257,0.184-0.49,0.184c-0.224,0-0.383-0.072-0.477-0.214
		c-0.091-0.147-0.137-0.404-0.137-0.774V56.17h2.695v-1.797c0-0.669-0.172-1.178-0.52-1.536
		C288.558,52.484,288.061,52.307,287.415,52.307z M287.974,55.076h-1.245v-0.71c0-0.295,0.048-0.509,0.147-0.632
		c0.099-0.132,0.259-0.196,0.482-0.196c0.214,0,0.374,0.064,0.468,0.196c0.096,0.123,0.148,0.337,0.148,0.632V55.076L287.974,55.076
		z"/>
</a>
<a>
	<path d="M370.845,37.191c-3.798-0.005-7.595-0.003-11.393,0.002c-0.908,0.002-1.825-0.04-2.722,0.061
		c-2.492,0.278-4.278,2.302-4.28,4.792c-0.006,4.526-0.008,9.051,0.002,13.577c0.005,2.699,2.157,4.842,4.861,4.845
		c4.505,0.006,9.01,0.006,13.513,0c2.763-0.003,4.89-2.136,4.897-4.901c0.006-2.243,0.002-4.486,0.002-6.728
		c0-2.252,0.003-4.505-0.002-6.757C375.715,39.34,373.579,37.195,370.845,37.191z M363.947,55.63
		c-3.584-0.051-6.649-3.114-6.652-6.765c-0.002-3.786,3.012-6.818,6.789-6.827c3.648-0.032,6.685,2.98,6.792,6.585
		C370.993,52.508,367.748,55.685,363.947,55.63z M371.793,43.008c-1.036-0.005-1.898-0.899-1.89-1.959
		c0.008-1.079,0.891-1.932,1.991-1.92c1.042,0.011,1.895,0.896,1.887,1.959C373.774,42.172,372.901,43.013,371.793,43.008z"/>
	<path d="M364.111,43.979c-2.671-0.013-4.87,2.173-4.877,4.838c-0.005,2.661,2.168,4.85,4.822,4.861
		c2.669,0.011,4.87-2.173,4.877-4.838C368.939,46.182,366.768,43.992,364.111,43.979z"/>
	<path d="M363.05,21c-15.368,0-27.829,12.461-27.829,27.829c0,15.371,12.461,27.829,27.829,27.829
		c15.369,0,27.829-12.456,27.829-27.829C390.878,33.461,378.421,21,363.05,21z M377.659,48.841c0,2.323,0.008,4.647-0.002,6.97
		c-0.014,3.065-2.428,5.964-5.456,6.451c-1.028,0.164-2.091,0.136-3.138,0.14c-3.938,0.014-7.878,0-11.816,0.006
		c-3.17,0.005-6.042-2.34-6.599-5.469c-0.144-0.806-0.132-1.647-0.134-2.473c-0.011-4.162-0.006-8.323-0.003-12.485
		c0.003-3.207,2.345-6.052,5.503-6.594c0.916-0.156,1.869-0.131,2.805-0.132c3.999-0.013,7.999-0.002,11.998-0.006
		c3.36-0.003,6.221,2.38,6.752,5.691c0.113,0.701,0.083,1.429,0.088,2.144C377.667,45.002,377.659,46.923,377.659,48.841
		L377.659,48.841z"/>
</a>
</svg>
