<?xml version="1.0" encoding="utf-8"?>
<!-- Generator: Adobe Illustrator 24.2.1, SVG Export Plug-In . SVG Version: 6.00 Build 0)  -->
<svg version="1.1" id="Layer_1" xmlns="http://www.w3.org/2000/svg" xmlns:xlink="http://www.w3.org/1999/xlink" x="0px" y="0px"
	 viewBox="0 0 31.091 60" style="enable-background:new 0 0 31.091 60;" xml:space="preserve">
<style type="text/css">
	.st0{fill:#00B2E3;}
</style>
<path class="st0" d="M13.838,30.991l4.321-4.397c0.577-0.587,0.573-1.53-0.009-2.112l-1.48-1.48
	c-0.582-0.583-1.525-0.585-2.112-0.009l-4.396,4.322L5.85,23.002c-0.574-0.574-1.498-0.586-2.089-0.032l-1.572,1.48
	c-0.295,0.278-0.465,0.664-0.472,1.07c-0.006,0.405,0.152,0.796,0.439,1.083l4.387,4.388l-4.378,4.304
	c-0.285,0.28-0.446,0.663-0.448,1.062c-0.001,0.4,0.156,0.784,0.439,1.067l1.572,1.572c0.281,0.281,0.663,0.439,1.061,0.439
	c0.002,0,0.004,0,0.006,0c0.4-0.002,0.783-0.163,1.063-0.448l4.304-4.378l4.387,4.387c0.286,0.286,0.658,0.437,1.083,0.439
	c0.406-0.006,0.792-0.177,1.07-0.472l1.479-1.572c0.556-0.591,0.542-1.516-0.031-2.089L13.838,30.991z"/>
</svg>
