<?xml version="1.0" encoding="utf-8"?>
<!-- Generator: Adobe Illustrator 24.0.3, SVG Export Plug-In . SVG Version: 6.00 Build 0)  -->
<svg version="1.1" id="Layer_1" xmlns="http://www.w3.org/2000/svg" xmlns:xlink="http://www.w3.org/1999/xlink" x="0px" y="0px"
	 viewBox="0 0 85 60" style="enable-background:new 0 0 85 60;" xml:space="preserve">
<style type="text/css">
	.st0{fill-rule:evenodd;clip-rule:evenodd;fill:#00B2E3;}
</style>
<path class="st0" d="M71.23,52.337c-1.496,2.171-4.471,2.717-6.636,1.211L44.989,39.942c-1.388-0.96-2.106-2.526-2.053-4.1
	c-2.525,2.716-5.843,4.541-9.558,5.218c-4.564,0.835-9.174-0.163-12.978-2.804c-3.807-2.64-6.361-6.612-7.193-11.187
	c-0.832-4.577,0.161-9.203,2.796-13.022C21.446,6.16,32.273,4.183,40.14,9.64c7.14,4.958,9.421,14.366,5.71,21.959
	c1.45-0.611,3.17-0.492,4.565,0.475l19.61,13.606C72.19,47.187,72.731,50.166,71.23,52.337z M42.166,21.777
	c-0.579-3.19-2.359-5.96-5.013-7.8c-5.482-3.808-13.035-2.431-16.834,3.067c-3.794,5.506-2.42,13.078,3.064,16.88
	c5.483,3.808,13.034,2.432,16.832-3.069C42.052,28.192,42.745,24.968,42.166,21.777z"/>
</svg>
