<?xml version="1.0" encoding="utf-8"?>
<!-- Generator: Adobe Illustrator 24.1.0, SVG Export Plug-In . SVG Version: 6.00 Build 0)  -->
<svg version="1.1" id="Layer_1" xmlns="http://www.w3.org/2000/svg" xmlns:xlink="http://www.w3.org/1999/xlink" x="0px" y="0px"
	 viewBox="0 0 85 60" style="enable-background:new 0 0 85 60;" xml:space="preserve">
<style type="text/css">
	.st0{fill:none;}
</style>
<g>
	<path class="st0" d="M44.771,15.839c-0.557,0.321-0.754,0.95-0.909,1.589c-0.013,0.054,0.116,0.206,0.197,0.229
		c0.261,0.073,0.529,0.106,0.78,0.151c0.166-0.027,0.316-0.037,0.461-0.079c0.594-0.17,0.945-0.843,0.756-1.438
		C45.879,15.732,45.325,15.52,44.771,15.839z"/>
	<path class="st0" d="M49.293,8.398c-0.301,0.339-0.541,0.755-0.785,1.155c-0.033,0.053,0.043,0.284,0.107,0.312
		c0.342,0.149,0.696,0.258,0.873,0.321c0.686,0.013,1.2-0.356,1.306-0.799c0.095-0.399-0.037-0.841-0.321-1.075
		C50.194,8.082,49.575,8.08,49.293,8.398z"/>
	<path class="st0" d="M54.769,12.126c-0.486-0.022-0.796,0.309-0.879,0.942c-0.074,0.561,0.367,1.586,0.793,1.824
		c0.049,0.027,0.152,0.021,0.184-0.019c0.362-0.448,0.704-0.912,0.73-1.487c-0.006-0.14-0.005-0.198-0.011-0.255
		C55.533,12.536,55.217,12.147,54.769,12.126z"/>
	<path class="st0" d="M33.606,15.467c-0.478,0.354-0.561,0.939-0.673,1.514c-0.063,0.326,0.048,0.45,0.311,0.458
		c0.069,0.004,0.139,0.008,0.209,0.012c0.005,0.022,0.011,0.044,0.016,0.065c0.341-0.111,0.703-0.17,1.017-0.346
		c0.521-0.292,0.677-0.968,0.401-1.488C34.617,15.175,34.113,15.09,33.606,15.467z"/>
	<path class="st0" d="M40.306,10.197c-0.606,0.291-0.836,0.916-1.038,1.56c-0.02,0.063,0.077,0.239,0.146,0.264
		c0.274,0.096,0.558,0.153,0.838,0.224c0.475-0.018,0.879-0.203,1.153-0.637c0.218-0.346,0.161-0.858-0.064-1.155
		C41.082,10.111,40.679,10.018,40.306,10.197z"/>
	<path d="M59.51,5.433c-0.415-0.058-0.829-0.121-1.246-0.165c-3.421-0.361-6.842-0.311-10.25,0.218
		c-2.672,0.415-5.296,1.082-7.844,2.124c-1.488,0.608-2.945,1.298-4.333,2.167c-1.495,0.936-2.905,2.018-4.175,3.335
		c-1.497,1.552-2.729,3.323-3.497,5.496c-0.451,1.276,0.037,2.859,1.086,3.522c0.591,0.374,1.218,0.338,1.862,0.334
		c2.825-0.016,5.649,0.003,8.474,0.01c2.057,0.006,4.114,0.017,6.171,0.017c1.977,0,3.954-0.011,5.931-0.016
		c0.768-0.002,1.536,0,2.304,0c0,0.006,0,0.012-0.001,0.018c2.066,0,4.133,0.002,6.199-0.001c0.321,0,0.643-0.002,0.964-0.002
		c-2.156-2.676-3.449-6.076-3.449-9.781C57.706,10.08,58.362,7.607,59.51,5.433z M34.486,17.17
		c-0.314,0.176-0.676,0.235-1.017,0.346c-0.005-0.021-0.011-0.043-0.016-0.065c-0.07-0.004-0.14-0.008-0.209-0.012
		c-0.263-0.008-0.374-0.132-0.311-0.458c0.112-0.575,0.195-1.16,0.673-1.514c0.507-0.377,1.011-0.292,1.281,0.215
		C35.163,16.202,35.007,16.878,34.486,17.17z M41.405,11.608c-0.274,0.434-0.678,0.619-1.153,0.637
		c-0.28-0.071-0.564-0.128-0.838-0.224c-0.069-0.025-0.166-0.201-0.146-0.264c0.202-0.644,0.432-1.269,1.038-1.56
		c0.373-0.179,0.776-0.086,1.035,0.256C41.566,10.75,41.623,11.262,41.405,11.608z M45.3,17.729
		c-0.145,0.042-0.295,0.052-0.461,0.079c-0.251-0.045-0.519-0.078-0.78-0.151c-0.081-0.023-0.21-0.175-0.197-0.229
		c0.155-0.639,0.352-1.268,0.909-1.589c0.554-0.319,1.108-0.107,1.285,0.452C46.245,16.886,45.894,17.559,45.3,17.729z
		 M50.794,9.387c-0.106,0.443-0.62,0.812-1.306,0.799c-0.177-0.063-0.531-0.172-0.873-0.321c-0.064-0.028-0.14-0.259-0.107-0.312
		c0.244-0.4,0.484-0.816,0.785-1.155c0.282-0.318,0.901-0.316,1.18-0.086C50.757,8.546,50.889,8.988,50.794,9.387z M54.867,14.873
		c-0.032,0.04-0.135,0.046-0.184,0.019c-0.426-0.238-0.867-1.263-0.793-1.824c0.083-0.633,0.393-0.964,0.879-0.942
		c0.448,0.021,0.764,0.41,0.817,1.005c0.006,0.057,0.005,0.115,0.011,0.255C55.571,13.961,55.229,14.425,54.867,14.873z"/>
	<path d="M66.645,40.94c-1.808,0.002-3.615,0.012-5.422,0.014c-2.416,0.003-4.833,0.001-7.249,0.001
		c-1.777,0-3.554,0.002-5.332-0.002c-1.627-0.002-3.255-0.014-4.882-0.013c-2.376,0.001-4.753,0.01-7.129,0.013
		c-2.247,0.002-4.494-0.008-6.74,0.005c-1.02,0.006-1.867,0.911-1.868,2.085c-0.001,0.738,0.081,1.509,0.279,2.208
		c0.705,2.488,2.772,4.167,5.035,4.174c1.198,0.004,2.397,0,3.595,0.001c4.464,0.003,8.927,0.007,13.391,0.009
		c4.034,0.001,8.069,0,12.103,0s8.069,0,12.103,0.001c0.935,0,1.824-0.227,2.635-0.776c0,0,0.001-0.001,0.001-0.001
		c-1.3-2.278-2.054-4.909-2.055-7.72C72.289,40.939,69.467,40.937,66.645,40.94z"/>
	<path d="M68.935,30.514c-0.7,0.455-1.404,0.903-2.117,1.33c-1.005,0.601-2.068,0.57-3.077-0.055
		c-1.529-0.947-3.043-1.928-4.572-2.876c-0.191-0.118-0.432-0.178-0.65-0.179c-3.304-0.008-6.609,0.001-9.913,0.002
		c-3.495,0.001-6.99-0.001-10.485-0.001c-2.715,0-5.431-0.002-8.146,0.002c-0.982,0.002-1.786,0.731-1.934,1.825
		c-0.077,0.565-0.075,1.155-0.038,1.727c0.081,1.241,0.895,2.079,1.975,2.089c0.399,0.004,0.799-0.008,1.198-0.008
		c3.614,0.002,7.228,0.008,10.842,0.008c1.937,0,3.873-0.011,5.81-0.013c2.047-0.003,4.094-0.001,6.141-0.001
		c0,0.002,0,0.005,0.002,0.009c1.937,0,3.874-0.001,5.811,0c1.936,0.001,3.873,0.006,5.81,0.005
		c1.507-0.001,3.015-0.012,4.522-0.013c0.701-0.001,1.401-0.001,2.102-0.001C70.924,33.268,69.813,31.972,68.935,30.514z"/>
</g>
</svg>
