<?xml version="1.0" encoding="utf-8"?>
<!-- Generator: Adobe Illustrator 24.1.3, SVG Export Plug-In . SVG Version: 6.00 Build 0)  -->
<svg version="1.1" id="Layer_1" xmlns="http://www.w3.org/2000/svg" xmlns:xlink="http://www.w3.org/1999/xlink" x="0px" y="0px"
	 viewBox="0 0 133.71 60" style="enable-background:new 0 0 133.71 60;" xml:space="preserve">
<g>
	<path d="M132.438,32.618c-0.203-1.656-1.557-2.946-3.213-3.051c-0.324-0.02-0.648-0.02-0.972-0.02c-8.522,0-10.503,0-19.019,0
		c-8.578,0-17.156,0.003-25.732-0.005c-0.94-0.001-1.811,0.147-2.57,0.746c-1.149,0.906-1.613,2.414-1.169,3.826
		c0.436,1.384,1.723,2.359,3.186,2.412c0.223,0.008,0.446,0.007,0.669,0.007c17.114,0,27.695,0.001,44.809-0.007
		c0.522,0,1.064-0.023,1.562-0.162C131.603,35.915,132.641,34.284,132.438,32.618z"/>
	<path d="M83.135,22.546c3.933,0.02,7.867,0.007,11.8,0.007c1.989,0.001,3.976,0.001,5.962,0.001c5.839,0,11.679,0.003,17.518-0.001
		c1.736-0.001,3.065-0.936,3.53-2.443c0.699-2.27-0.948-4.515-3.356-4.527c-3.589-0.02-7.178-0.007-10.767-0.007
		c-8.191,0-16.382-0.003-24.573,0.001c-2.06,0.001-3.601,1.434-3.653,3.369C79.542,20.956,81.068,22.535,83.135,22.546z"/>
	<path d="M111.855,42.957c-0.061-0.001-0.122-0.003-0.182-0.003c-3.668,0-13.888,0-17.556,0c-0.001-0.001-0.001-0.001-0.001,0
		c-3.689,0-7.377-0.028-11.068,0.01c-2.711,0.028-4.337,2.92-2.972,5.234c0.711,1.203,1.803,1.739,3.199,1.738
		c6.548-0.008,19.644-0.003,26.192-0.003c0.79,0,1.582,0.013,2.372-0.005c1.928-0.044,3.411-1.564,3.414-3.478
		C115.255,44.526,113.792,43.023,111.855,42.957z"/>
</g>
<g>
	<polygon points="23.755,8.998 2.789,8.133 3.653,12.348 10.138,11.592 9.597,45.851 12.191,46.5 15.866,11.376 22.891,11.051 	"/>
	<path d="M34.022,39.799c-0.324,0-0.648,0-0.865,0.108c-3.675,0.216-8.214-0.865-9.403-9.403l15.347-1.081
		c-0.108-1.405-0.216-2.161-0.432-3.35c-0.973-5.728-3.566-10.483-10.159-10.051c-0.216,0-0.54,0-0.757,0.108
		c-6.376,0.973-8.754,7.781-7.457,15.563c1.081,6.268,4.971,13.185,14.266,11.888c2.27-0.324,4.431-0.973,5.62-1.729l-1.837-3.566
		C37.265,38.935,35.968,39.583,34.022,39.799z M27.862,18.941c3.134-0.432,5.512,2.378,6.376,7.349l-10.267,1.189
		C23.431,23.696,24.296,19.481,27.862,18.941z"/>
	<path d="M61.149,21.102h-0.108c-1.189-3.026-3.35-4.323-5.62-4.647c-4.755-0.648-10.375,3.134-11.78,11.672
		c-1.297,6.809-0.432,15.131,7.133,16.211c3.242,0.432,6.16-1.189,7.349-3.026h0.216L56.61,54.93l3.242-0.432l5.188-27.991
		l1.405-7.998l-5.296-2.378L61.149,21.102z M59.852,27.803l-0.757,6.593c-0.54,4.971-4.107,6.376-6.16,6.16
		c-5.296-0.757-5.62-7.889-4.863-12.429c0.865-5.188,3.458-8.97,7.349-8.322C58.663,20.238,60.393,23.804,59.852,27.803z"/>
	<path d="M72.406,12.51c-0.216-0.432-0.54-0.648-0.865-0.865c-0.324-0.216-0.757-0.324-1.189-0.324
		c-0.432,0-0.865,0.108-1.189,0.324c-0.324,0.216-0.648,0.54-0.865,0.865c-0.216,0.432-0.324,0.757-0.324,1.297
		c0,0.432,0.108,0.865,0.324,1.297s0.54,0.648,0.865,0.973c0.324,0.216,0.757,0.324,1.189,0.324c0.432,0,0.865-0.108,1.189-0.324
		c0.324-0.216,0.648-0.54,0.865-0.973c0.216-0.432,0.324-0.757,0.324-1.297C72.73,13.375,72.622,12.943,72.406,12.51z
		 M72.189,14.888c-0.216,0.324-0.432,0.648-0.757,0.865c-0.324,0.216-0.648,0.324-1.081,0.324c-0.432,0-0.757-0.108-1.081-0.324
		c-0.324-0.216-0.54-0.432-0.757-0.865c-0.216-0.324-0.324-0.757-0.324-1.081c0-0.432,0.108-0.757,0.324-1.081
		c0.216-0.324,0.432-0.648,0.757-0.865c0.324-0.216,0.648-0.324,1.081-0.324c0.432,0,0.757,0.108,1.081,0.324
		c0.324,0.216,0.54,0.432,0.757,0.865c0.216,0.324,0.324,0.757,0.324,1.081C72.406,14.24,72.297,14.564,72.189,14.888z"/>
	<path d="M71.325,14.564c0-0.216,0-0.324-0.108-0.432c-0.108-0.108-0.216-0.216-0.324-0.324c0.324-0.108,0.432-0.324,0.432-0.648
		s-0.108-0.54-0.216-0.648c-0.216-0.108-0.432-0.216-0.757-0.216h-0.865v2.81h0.324v-1.189h0.648c0.216,0,0.324,0,0.432,0.108
		c0.108,0.108,0.108,0.216,0.108,0.432c0,0.324,0,0.54,0,0.648h0.324l0,0c0,0,0-0.108,0-0.216
		C71.325,14.888,71.325,14.78,71.325,14.564z M70.892,13.591c-0.108,0.108-0.216,0.108-0.432,0.108h-0.648v-1.081h0.54
		c0.216,0,0.432,0,0.54,0.108c0.108,0.108,0.108,0.216,0.108,0.432C71.001,13.375,71.001,13.483,70.892,13.591z"/>
</g>
</svg>
