<?xml version="1.0" encoding="utf-8"?>
<!-- Generator: Adobe Illustrator 24.0.3, SVG Export Plug-In . SVG Version: 6.00 Build 0)  -->
<svg version="1.1" id="Layer_1" xmlns="http://www.w3.org/2000/svg" xmlns:xlink="http://www.w3.org/1999/xlink" x="0px" y="0px"
	 viewBox="0 0 85 60" style="enable-background:new 0 0 85 60;" xml:space="preserve">
<style type="text/css">
	.st0{fill:#00B2E3;}
</style>
<g id="RFifJj.tif">
	<g>
		<path class="st0" d="M54,18.5c-0.8,0-1.5,0-2.3,0c-2,0-4,0-5.9,0c-2.1,0-4.1,0-6.2,0c-2.8,0-5.6,0-8.5,0c-0.6,0-1.3,0-1.9-0.3
			c-1-0.7-1.5-2.2-1.1-3.5c0.8-2.2,2-3.9,3.5-5.5c1.3-1.3,2.7-2.4,4.2-3.3c1.4-0.9,2.8-1.6,4.3-2.2c2.5-1,5.2-1.7,7.8-2.1
			c3.4-0.5,6.8-0.6,10.2-0.2c2.7,0.3,5.3,0.8,7.9,1.7c3,1,5.8,2.4,8.4,4.5c2.1,1.7,3.8,3.7,5,6.3c0.2,0.5,0.4,1,0.5,1.5
			c0.3,1.6-0.8,3.2-2.2,3.2c-1,0-2,0-3,0c-2.5,0-5,0-7.5,0c-2.4,0-4.7,0-7.1,0C58.1,18.5,56.1,18.5,54,18.5C54,18.5,54,18.5,54,18.5
			z M44.8,13.8c0.2,0,0.3,0,0.5-0.1c0.6-0.2,0.9-0.8,0.8-1.4c-0.2-0.6-0.7-0.8-1.3-0.5c-0.6,0.3-0.8,1-0.9,1.6
			c0,0.1,0.1,0.2,0.2,0.2C44.3,13.7,44.6,13.8,44.8,13.8z M40.3,8.2c0.5,0,0.9-0.2,1.2-0.6c0.2-0.3,0.2-0.9-0.1-1.2
			c-0.3-0.3-0.7-0.4-1-0.3c-0.6,0.3-0.8,0.9-1,1.6c0,0.1,0.1,0.2,0.1,0.3C39.7,8.1,40,8.2,40.3,8.2z M60.6,14.2
			c0,0.3,0.3,0.8,0.5,1.2c0,0.1,0.2,0.1,0.2,0.1c0.5-0.4,0.9-0.9,0.9-1.7c0-0.6-0.3-1.1-0.8-1.1C60.9,12.8,60.6,13.3,60.6,14.2z
			 M55.6,9.4c0-0.1,0-0.2,0-0.3c-0.1-0.6-0.4-1-0.8-1c-0.5,0-0.8,0.3-0.9,0.9c-0.1,0.6,0.4,1.6,0.8,1.8c0,0,0.2,0,0.2,0
			C55.2,10.4,55.6,10,55.6,9.4z M69.1,9.7c0-0.5-0.2-0.8-0.6-0.9c-0.6-0.2-1.5,0.3-1.8,1c0,0.1,0,0.2,0,0.3c0.4,0.2,0.8,0.6,1.2,0.7
			C68.6,10.8,69.1,10.3,69.1,9.7z M33.5,13.5C33.5,13.5,33.5,13.5,33.5,13.5c0.4,0,0.7-0.1,1-0.3c0.5-0.3,0.7-1,0.4-1.5
			c-0.3-0.5-0.8-0.6-1.3-0.2c-0.5,0.4-0.6,0.9-0.7,1.5c-0.1,0.3,0,0.5,0.3,0.5C33.3,13.4,33.4,13.4,33.5,13.5z M49.5,6.2
			c0.7,0,1.2-0.4,1.3-0.8c0.1-0.4,0-0.8-0.3-1.1c-0.3-0.2-0.9-0.2-1.2,0.1c-0.3,0.3-0.5,0.8-0.8,1.2c0,0.1,0,0.3,0.1,0.3
			C49,6,49.3,6.1,49.5,6.2z M61.2,6.7c0.7,0,0.8,0,0.6-0.8c0-0.1,0-0.2,0-0.2c-0.1-0.6-0.4-1-0.9-1.2c-0.4-0.1-0.7,0-0.9,0.4
			s-0.2,0.8,0,1.2C60.3,6.6,60.8,6.7,61.2,6.7z M73.3,13c0.1,0.3,0.2,0.7,0.4,1.2c0,0.1,0.2,0.1,0.3,0.1c0.3-0.3,0.6-0.5,0.9-0.8
			c0.4-0.5,0.3-1.3-0.1-1.6c-0.3-0.2-0.6-0.3-0.9-0.1C73.5,12,73.4,12.4,73.3,13z"/>
		<path class="st0" d="M54,45c2.4,0,4.8,0,7.2,0c1.8,0,3.6,0,5.4,0c2.8,0,5.6,0,8.5,0c0.9,0,1.9,0,2.8,0c1.2,0,2.1,1.1,2,2.4
			c-0.1,2.3-1,4.1-2.8,5.3c-0.8,0.5-1.7,0.8-2.6,0.8c-4,0-8.1,0-12.1,0s-8.1,0-12.1,0c-4.5,0-8.9,0-13.4,0c-1.2,0-2.4,0-3.6,0
			c-2.3,0-4.3-1.7-5-4.2C28.1,48.6,28,47.8,28,47c0-1.2,0.8-2.1,1.9-2.1c2.2,0,4.5,0,6.7,0c2.4,0,4.8,0,7.1,0c1.6,0,3.3,0,4.9,0
			C50.4,45,52.2,45,54,45z"/>
		<path class="st0" d="M54,34.4c-2,0-4.1,0-6.1,0c-1.9,0-3.9,0-5.8,0c-3.6,0-7.2,0-10.8,0c-0.4,0-0.8,0-1.2,0c-1.1,0-1.9-0.8-2-2.1
			c0-0.6,0-1.2,0-1.7c0.1-1.1,1-1.8,1.9-1.8c2.7,0,5.4,0,8.1,0c3.5,0,7,0,10.5,0c3.3,0,6.6,0,9.9,0c0.2,0,0.5,0.1,0.7,0.2
			c1.5,0.9,3,1.9,4.6,2.9c1,0.6,2.1,0.7,3.1,0.1c1.5-0.9,2.9-1.8,4.3-2.8c0.3-0.2,0.7-0.4,1.1-0.4c1.9,0,3.8,0,5.7,0
			c1.3,0,2.2,1.1,2.1,2.5c0,0.5,0,1.1-0.1,1.6c-0.2,1-0.9,1.6-1.8,1.6c-2.6,0-5.3,0-7.9,0c-1.5,0-3,0-4.5,0c-1.9,0-3.9,0-5.8,0
			C57.8,34.4,55.9,34.4,54,34.4C54,34.4,54,34.4,54,34.4z"/>
	</g>
</g>
</svg>
