<svg version="1.1" xmlns="http://www.w3.org/2000/svg" xmlns:xlink="http://www.w3.org/1999/xlink" x="0px" y="0px" viewBox="0 0 300 143.119">
<path clip-path="url(#adapt_clipPath1)" class="draw" fill="none" stroke="#212121" stroke-miterlimit="10" stroke-width="1" d="M75.429,13.571c0,0-18.946,10.581-8.637,23.328s33.919,9.865,35.139,9.865s2.66-0.222,5.21,3.215
	c2.549,3.436,4.449,7.326,18.242,10.868"/>
<clipPath id="adapt_clipPath1">
	<path class="st1" d="M125.367,60.921c-1.943-0.345-3.871-0.81-5.75-1.451c-1.878-0.643-3.691-1.501-5.41-2.493l-1.276-0.751
	l-0.634-0.37c-0.217-0.146-0.45-0.281-0.654-0.441c-0.824-0.634-1.511-1.379-2.165-2.137c-1.3-1.517-2.43-3.161-3.68-4.62
	c-0.311-0.357-0.641-0.709-0.967-0.947c-0.313-0.231-0.667-0.345-1.132-0.41c-0.889-0.143-1.881-0.143-2.855-0.152
	c-1.962-0.004-3.947,0.009-5.928-0.045c-1.982-0.051-3.963-0.157-5.939-0.311c-1.972-0.133-3.986-0.403-5.94-0.817
	c-1.963-0.41-3.875-1.031-5.757-1.716c-1.866-0.736-3.688-1.591-5.417-2.629c-1.71-1.066-3.337-2.285-4.759-3.749
	c-1.392-1.487-2.542-3.249-3.174-5.216c-0.642-1.954-0.753-4.108-0.226-6.091c0.497-1.988,1.464-3.805,2.656-5.413
	c2.44-3.193,5.62-5.681,9.032-7.656l0.037,0.065c-3.344,2.056-6.442,4.625-8.748,7.82c-1.138,1.599-2.052,3.378-2.499,5.292
	c-0.478,1.909-0.337,3.948,0.299,5.796c0.631,1.858,1.748,3.523,3.091,4.953c1.379,1.404,2.968,2.583,4.642,3.613
	c1.693,1.004,3.484,1.832,5.318,2.544c1.852,0.662,3.732,1.261,5.663,1.653c1.924,0.415,3.875,0.691,5.841,0.835
	c1.964,0.164,3.931,0.281,5.901,0.342c1.97,0.066,3.941,0.063,5.913,0.079c0.985,0.018,1.977,0.013,2.959,0.181
	c0.487,0.072,0.987,0.234,1.385,0.544c0.399,0.306,0.729,0.679,1.049,1.056c1.262,1.523,2.354,3.169,3.613,4.684
	c0.63,0.754,1.291,1.49,2.06,2.099c0.386,0.298,0.81,0.548,1.234,0.802l1.261,0.772c1.679,1.03,3.442,1.923,5.288,2.612
	c1.846,0.686,3.753,1.201,5.683,1.598L125.367,60.921z"/>
</clipPath>
</svg>
