<svg version="1.1" class="fade-in-text" xmlns="http://www.w3.org/2000/svg" xmlns:xlink="http://www.w3.org/1999/xlink" x="0px" y="0px" viewBox="0 0 300 143.119">
<g>
	<path d="M76.511,58.539v0.724h-0.514V57.13h0.851c0.163,0,0.307,0.03,0.433,0.09c0.125,0.061,0.223,0.146,0.291,0.257
		c0.069,0.111,0.104,0.236,0.104,0.377c0,0.208-0.075,0.374-0.224,0.499c-0.149,0.124-0.353,0.187-0.613,0.187L76.511,58.539
		L76.511,58.539z M76.511,58.142h0.337c0.1,0,0.175-0.025,0.228-0.075c0.052-0.05,0.078-0.12,0.078-0.211
		c0-0.1-0.027-0.179-0.081-0.239s-0.127-0.09-0.22-0.091H76.51v0.616H76.511z"/>
	<path d="M78.886,58.124l-0.163-0.012c-0.155,0-0.255,0.049-0.299,0.146v1.003H77.93v-1.585h0.463l0.016,0.204
		c0.083-0.155,0.199-0.233,0.347-0.233c0.053,0,0.099,0.006,0.138,0.018L78.886,58.124z"/>
	<path d="M78.949,58.455c0-0.158,0.031-0.299,0.092-0.422s0.15-0.219,0.265-0.285s0.25-0.1,0.406-0.1
		c0.237,0,0.424,0.074,0.561,0.221s0.205,0.347,0.205,0.6v0.018c0,0.247-0.069,0.443-0.206,0.588
		c-0.137,0.146-0.323,0.218-0.557,0.218c-0.226,0-0.407-0.067-0.543-0.203c-0.137-0.135-0.21-0.318-0.221-0.55L78.949,58.455z
		 M79.442,58.486c0,0.146,0.023,0.254,0.069,0.322s0.114,0.103,0.204,0.103c0.176,0,0.266-0.135,0.27-0.406v-0.05
		c0-0.284-0.091-0.426-0.272-0.426c-0.165,0-0.254,0.123-0.268,0.368L79.442,58.486z"/>
	<path d="M80.805,59.262V58.02h-0.23v-0.343h0.23v-0.126c0-0.181,0.053-0.321,0.16-0.42s0.256-0.149,0.448-0.149
		c0.07,0,0.147,0.01,0.231,0.031l0.001,0.363c-0.03-0.009-0.071-0.013-0.122-0.013c-0.149,0-0.224,0.064-0.224,0.193v0.122h0.309
		v0.343H81.3v1.242h-0.495V59.262z"/>
	<path d="M82.549,59.292c-0.243,0-0.44-0.072-0.59-0.218c-0.15-0.145-0.226-0.333-0.226-0.566v-0.041c0-0.162,0.03-0.305,0.09-0.429
		s0.147-0.22,0.263-0.288c0.115-0.067,0.252-0.102,0.41-0.102c0.223,0,0.398,0.069,0.527,0.207c0.129,0.139,0.193,0.331,0.193,0.578
		v0.192h-0.981c0.018,0.089,0.056,0.159,0.116,0.209s0.137,0.076,0.231,0.076c0.156,0,0.278-0.055,0.366-0.164l0.226,0.267
		c-0.062,0.085-0.149,0.153-0.261,0.203C82.8,59.266,82.679,59.292,82.549,59.292z M82.494,58.029c-0.145,0-0.23,0.096-0.258,0.287
		h0.498v-0.038c0.002-0.079-0.018-0.14-0.06-0.184S82.572,58.029,82.494,58.029z"/>
	<path d="M84.246,58.817c0-0.042-0.022-0.076-0.066-0.101s-0.127-0.052-0.25-0.079s-0.225-0.063-0.305-0.108
		c-0.08-0.044-0.141-0.098-0.183-0.162s-0.063-0.136-0.063-0.218c0-0.146,0.06-0.265,0.18-0.359s0.277-0.142,0.472-0.142
		c0.209,0,0.377,0.047,0.504,0.142s0.19,0.219,0.19,0.374H84.23c0-0.127-0.067-0.19-0.201-0.19c-0.052,0-0.095,0.015-0.13,0.043
		c-0.035,0.029-0.053,0.065-0.053,0.108c0,0.044,0.021,0.08,0.064,0.107s0.111,0.05,0.206,0.067
		c0.094,0.018,0.177,0.039,0.248,0.063c0.238,0.082,0.357,0.229,0.357,0.441c0,0.145-0.064,0.262-0.192,0.353
		c-0.129,0.091-0.295,0.136-0.499,0.136c-0.136,0-0.257-0.024-0.363-0.073s-0.189-0.115-0.249-0.199s-0.089-0.172-0.089-0.265h0.461
		c0.002,0.073,0.026,0.126,0.073,0.161c0.047,0.033,0.107,0.05,0.18,0.05c0.067,0,0.118-0.014,0.152-0.041
		C84.229,58.896,84.246,58.861,84.246,58.817z"/>
	<path d="M85.782,58.817c0-0.042-0.022-0.076-0.066-0.101s-0.127-0.052-0.25-0.079s-0.225-0.063-0.305-0.108
		c-0.08-0.044-0.141-0.098-0.183-0.162s-0.063-0.136-0.063-0.218c0-0.146,0.06-0.265,0.18-0.359s0.277-0.142,0.472-0.142
		c0.209,0,0.377,0.047,0.504,0.142s0.19,0.219,0.19,0.374h-0.495c0-0.127-0.067-0.19-0.201-0.19c-0.052,0-0.095,0.015-0.13,0.043
		c-0.035,0.029-0.053,0.065-0.053,0.108c0,0.044,0.021,0.08,0.064,0.107s0.111,0.05,0.206,0.067
		c0.094,0.018,0.177,0.039,0.248,0.063c0.238,0.082,0.357,0.229,0.357,0.441c0,0.145-0.064,0.262-0.192,0.353
		c-0.129,0.091-0.295,0.136-0.499,0.136c-0.136,0-0.257-0.024-0.363-0.073s-0.189-0.115-0.249-0.199s-0.089-0.172-0.089-0.265h0.461
		c0.002,0.073,0.026,0.126,0.073,0.161c0.047,0.033,0.107,0.05,0.18,0.05c0.067,0,0.118-0.014,0.152-0.041
		C85.765,58.896,85.782,58.861,85.782,58.817z"/>
	<path d="M86.485,57.269c0-0.07,0.025-0.128,0.076-0.173s0.117-0.067,0.198-0.067s0.147,0.022,0.198,0.067s0.076,0.103,0.076,0.173
		s-0.025,0.128-0.076,0.173s-0.117,0.067-0.198,0.067s-0.147-0.022-0.198-0.067S86.485,57.339,86.485,57.269z M87.01,59.262h-0.495
		v-1.585h0.495V59.262z"/>
	<path d="M87.251,58.455c0-0.158,0.031-0.299,0.092-0.422s0.15-0.219,0.265-0.285s0.25-0.1,0.406-0.1
		c0.237,0,0.424,0.074,0.561,0.221s0.205,0.347,0.205,0.6v0.018c0,0.247-0.069,0.443-0.206,0.588
		c-0.137,0.146-0.323,0.218-0.557,0.218c-0.226,0-0.407-0.067-0.543-0.203c-0.137-0.135-0.21-0.318-0.221-0.55L87.251,58.455z
		 M87.745,58.486c0,0.146,0.023,0.254,0.069,0.322s0.114,0.103,0.204,0.103c0.176,0,0.266-0.135,0.27-0.406v-0.05
		c0-0.284-0.091-0.426-0.272-0.426c-0.165,0-0.254,0.123-0.268,0.368L87.745,58.486z"/>
	<path d="M89.452,57.677l0.016,0.186c0.109-0.144,0.26-0.215,0.453-0.215c0.165,0,0.288,0.049,0.37,0.148
		c0.081,0.099,0.124,0.247,0.126,0.445v1.021h-0.495v-1c0-0.08-0.016-0.139-0.048-0.176s-0.091-0.057-0.176-0.057
		c-0.097,0-0.168,0.038-0.215,0.114v1.119h-0.494v-1.585H89.452z"/>
	<path d="M91.583,59.262c-0.018-0.032-0.033-0.08-0.047-0.142c-0.091,0.114-0.218,0.171-0.381,0.171
		c-0.149,0-0.276-0.045-0.381-0.136c-0.104-0.09-0.157-0.204-0.157-0.34c0-0.172,0.063-0.302,0.19-0.39s0.312-0.132,0.554-0.132
		h0.152V58.21c0-0.146-0.063-0.219-0.189-0.219c-0.117,0-0.176,0.058-0.176,0.174h-0.494c0-0.153,0.065-0.278,0.196-0.373
		c0.13-0.096,0.296-0.144,0.499-0.144s0.362,0.049,0.479,0.148s0.177,0.234,0.18,0.406v0.702c0.002,0.146,0.024,0.257,0.067,0.334
		v0.025L91.583,59.262L91.583,59.262z M91.274,58.94c0.062,0,0.112-0.013,0.153-0.04s0.07-0.056,0.087-0.089v-0.253H91.37
		c-0.172,0-0.258,0.077-0.258,0.231c0,0.045,0.015,0.082,0.045,0.109C91.188,58.926,91.227,58.94,91.274,58.94z"/>
	<path d="M92.803,59.262h-0.495v-2.25h0.495V59.262z"/>
	<path d="M75.997,64.862v-2.133h0.687c0.188,0,0.358,0.043,0.508,0.128c0.15,0.086,0.268,0.207,0.353,0.362
		c0.084,0.156,0.127,0.33,0.128,0.523v0.098c0,0.195-0.042,0.371-0.124,0.525c-0.083,0.155-0.199,0.276-0.349,0.363
		c-0.15,0.088-0.317,0.132-0.501,0.133L75.997,64.862L75.997,64.862z M76.511,63.126v1.34h0.179c0.147,0,0.261-0.052,0.34-0.157
		s0.119-0.261,0.119-0.468v-0.092c0-0.206-0.04-0.361-0.119-0.466s-0.194-0.157-0.346-0.157H76.511z"/>
	<path d="M78.681,64.892c-0.243,0-0.44-0.072-0.59-0.218c-0.15-0.145-0.226-0.333-0.226-0.566v-0.041c0-0.162,0.03-0.305,0.09-0.429
		s0.147-0.22,0.263-0.288c0.115-0.067,0.252-0.102,0.41-0.102c0.223,0,0.398,0.069,0.527,0.207c0.129,0.139,0.193,0.331,0.193,0.578
		v0.192h-0.981c0.018,0.089,0.056,0.159,0.116,0.209s0.137,0.076,0.231,0.076c0.156,0,0.278-0.055,0.366-0.164l0.226,0.267
		c-0.062,0.085-0.149,0.153-0.261,0.203C78.932,64.866,78.811,64.892,78.681,64.892z M78.625,63.629
		c-0.145,0-0.23,0.096-0.258,0.287h0.498v-0.038c0.002-0.079-0.018-0.14-0.06-0.184S78.703,63.629,78.625,63.629z"/>
	<path d="M80.16,64.275l0.25-0.998h0.52l-0.517,1.585H79.91l-0.517-1.585h0.521L80.16,64.275z"/>
	<path d="M81.845,64.892c-0.243,0-0.44-0.072-0.59-0.218c-0.15-0.145-0.226-0.333-0.226-0.566v-0.041c0-0.162,0.03-0.305,0.09-0.429
		s0.147-0.22,0.263-0.288c0.115-0.067,0.252-0.102,0.41-0.102c0.223,0,0.398,0.069,0.527,0.207c0.129,0.139,0.193,0.331,0.193,0.578
		v0.192h-0.981c0.018,0.089,0.056,0.159,0.116,0.209s0.137,0.076,0.231,0.076c0.156,0,0.278-0.055,0.366-0.164l0.226,0.267
		c-0.062,0.085-0.149,0.153-0.261,0.203C82.096,64.866,81.975,64.892,81.845,64.892z M81.789,63.629
		c-0.145,0-0.23,0.096-0.258,0.287h0.498v-0.038c0.002-0.079-0.018-0.14-0.06-0.184S81.867,63.629,81.789,63.629z"/>
	<path d="M83.232,64.862h-0.495v-2.25h0.495V64.862z"/>
	<path d="M83.474,64.055c0-0.158,0.031-0.299,0.092-0.422s0.15-0.219,0.265-0.285s0.25-0.1,0.406-0.1
		c0.237,0,0.424,0.074,0.561,0.221s0.205,0.347,0.205,0.6v0.018c0,0.247-0.069,0.443-0.206,0.588
		c-0.137,0.146-0.323,0.218-0.557,0.218c-0.226,0-0.407-0.067-0.543-0.203c-0.137-0.135-0.21-0.318-0.221-0.55L83.474,64.055z
		 M83.967,64.086c0,0.146,0.023,0.254,0.069,0.322s0.114,0.103,0.204,0.103c0.176,0,0.266-0.135,0.27-0.406v-0.05
		c0-0.284-0.091-0.426-0.272-0.426c-0.165,0-0.254,0.123-0.268,0.368L83.967,64.086z"/>
	<path d="M86.692,64.082c0,0.246-0.056,0.443-0.167,0.589c-0.111,0.147-0.26,0.221-0.449,0.221c-0.146,0-0.265-0.053-0.359-0.16
		v0.74h-0.494v-2.194h0.461l0.015,0.146c0.095-0.117,0.219-0.176,0.374-0.176c0.195,0,0.347,0.072,0.456,0.216
		c0.108,0.145,0.163,0.342,0.163,0.594V64.082z M86.198,64.051c0-0.281-0.082-0.422-0.246-0.422c-0.117,0-0.195,0.042-0.234,0.126
		v0.624c0.043,0.088,0.122,0.132,0.237,0.132c0.157,0,0.238-0.136,0.243-0.407C86.198,64.104,86.198,64.051,86.198,64.051z"/>
	<path d="M87.376,63.277l0.016,0.186c0.112-0.144,0.263-0.215,0.453-0.215c0.2,0,0.335,0.08,0.406,0.239
		c0.107-0.159,0.263-0.239,0.466-0.239c0.321,0,0.486,0.194,0.495,0.583v1.031h-0.495v-1c0-0.081-0.014-0.14-0.041-0.177
		s-0.077-0.056-0.149-0.056c-0.098,0-0.17,0.043-0.218,0.13l0.001,0.021v1.083h-0.495v-0.998c0-0.083-0.013-0.143-0.04-0.18
		s-0.077-0.056-0.151-0.056c-0.095,0-0.167,0.043-0.217,0.13v1.103h-0.494v-1.585H87.376z"/>
	<path d="M90.26,64.892c-0.243,0-0.44-0.072-0.59-0.218c-0.15-0.145-0.226-0.333-0.226-0.566v-0.041c0-0.162,0.03-0.305,0.09-0.429
		s0.147-0.22,0.263-0.288c0.115-0.067,0.252-0.102,0.41-0.102c0.223,0,0.398,0.069,0.527,0.207c0.129,0.139,0.193,0.331,0.193,0.578
		v0.192h-0.981c0.018,0.089,0.056,0.159,0.116,0.209s0.137,0.076,0.231,0.076c0.156,0,0.278-0.055,0.366-0.164l0.226,0.267
		c-0.062,0.085-0.149,0.153-0.261,0.203C90.511,64.866,90.39,64.892,90.26,64.892z M90.205,63.629c-0.145,0-0.23,0.096-0.258,0.287
		h0.498v-0.038c0.002-0.079-0.018-0.14-0.06-0.184S90.283,63.629,90.205,63.629z"/>
	<path d="M91.58,63.277l0.016,0.186c0.109-0.144,0.26-0.215,0.453-0.215c0.165,0,0.288,0.049,0.37,0.148
		c0.081,0.099,0.124,0.247,0.126,0.445v1.021H92.05v-1c0-0.08-0.016-0.139-0.048-0.176s-0.091-0.057-0.176-0.057
		c-0.097,0-0.168,0.038-0.215,0.114v1.119h-0.494v-1.585H91.58z"/>
	<path d="M93.394,62.883v0.394h0.261v0.343h-0.261v0.725c0,0.06,0.011,0.101,0.032,0.125s0.064,0.035,0.127,0.035
		c0.049,0,0.09-0.003,0.123-0.009v0.353c-0.089,0.028-0.182,0.042-0.278,0.042c-0.17,0-0.295-0.04-0.376-0.12
		S92.9,64.57,92.9,64.407V63.62h-0.202v-0.343H92.9v-0.394H93.394z"/>
</g>
<g>
	<rect x="62.245" y="37.302" fill="#212121" width="1.182" height="4.411"/>
	<rect x="62.471" y="25.531" fill="#212121" width="1.036" height="3.867"/>
	<path fill="#212121" d="M62.836,35.554c-0.204,0-0.365,0.057-0.483,0.171c-0.118,0.114-0.177,0.26-0.177,0.436
		c0,0.179,0.06,0.326,0.181,0.44s0.281,0.171,0.479,0.171s0.358-0.057,0.479-0.171c0.121-0.114,0.181-0.261,0.181-0.44
		c0-0.177-0.06-0.322-0.179-0.436C63.198,35.611,63.036,35.554,62.836,35.554z"/>
	<polygon fill="#212121" points="61.18,33.013 59.456,38.733 57.742,33.013 56.003,33.013 58.641,40.619 60.276,40.619 62.924,33.013
		"/>
	<path fill="#212121" d="M52.176,18.996c-0.862,0-1.433,0.555-1.433,1.422c0,0.868,0.604,1.384,1.389,1.384
		c0.719,0,1.417-0.45,1.417-1.433C53.549,19.562,53,18.996,52.176,18.996z M52.155,21.204c-0.357,0-0.549-0.346-0.549-0.807
		c0-0.395,0.148-0.807,0.549-0.807c0.379,0,0.533,0.406,0.533,0.807C52.687,20.88,52.478,21.204,52.155,21.204z"/>
	<path fill="#212121" d="M69.286,29.179c0,0.432,0.123,0.778,0.37,1.036s0.566,0.387,0.96,0.387c0.486,0,0.85-0.187,1.094-0.56
		l-0.303-0.236c-0.091,0.118-0.197,0.213-0.319,0.284c-0.122,0.072-0.27,0.107-0.445,0.107c-0.247,0-0.45-0.088-0.61-0.264
		s-0.243-0.407-0.251-0.693h1.965v-0.206c0-0.463-0.105-0.818-0.314-1.067c-0.209-0.248-0.502-0.373-0.879-0.373
		c-0.23,0-0.444,0.064-0.642,0.192c-0.197,0.128-0.351,0.305-0.461,0.531s-0.165,0.483-0.165,0.771V29.179z M70.049,28.221
		c0.136-0.146,0.304-0.218,0.504-0.218c0.207,0,0.372,0.069,0.493,0.208c0.122,0.138,0.189,0.334,0.204,0.586v0.038h-1.453
		C69.83,28.571,69.914,28.367,70.049,28.221z"/>
	<path fill="#212121" d="M56.783,19.561c0.119,0.124,0.179,0.322,0.179,0.596v3.091h1.26v4.666h4.186v-1.077h-2.845V21.41h-1.309
		v-1.285c-0.006-0.599-0.134-1.048-0.384-1.349c-0.25-0.301-0.631-0.451-1.144-0.451c-0.581,0-1.044,0.216-1.389,0.648l-0.04-0.558
		h-1.215v4.833h1.291V19.84c0.182-0.31,0.454-0.465,0.817-0.465C56.466,19.376,56.664,19.438,56.783,19.561z"/>
	<path fill="#212121" d="M62.99,23.998c-0.179,0-0.32,0.05-0.423,0.15c-0.104,0.1-0.155,0.228-0.155,0.382
		c0,0.157,0.053,0.286,0.159,0.386s0.246,0.15,0.42,0.15s0.314-0.05,0.42-0.15s0.159-0.229,0.159-0.386
		c0-0.155-0.052-0.282-0.157-0.382C63.307,24.048,63.167,23.998,62.99,23.998z"/>
	<path fill="#212121" d="M93.442,27.185c-0.117,0-0.205,0.034-0.265,0.101s-0.089,0.149-0.089,0.247c0,0.097,0.03,0.179,0.089,0.244
		c0.06,0.065,0.148,0.097,0.265,0.097s0.206-0.032,0.266-0.097c0.061-0.065,0.091-0.146,0.091-0.244c0-0.097-0.03-0.18-0.091-0.247
		C93.646,27.218,93.559,27.185,93.442,27.185z"/>
	<polygon fill="#212121" points="76.651,42.703 75.836,42.703 75.836,46.29 78.078,46.29 78.078,45.609 76.651,45.609 	"/>
	<path fill="#212121" d="M90.422,31.475c-0.484-0.146-0.851-0.303-1.1-0.47s-0.373-0.374-0.373-0.622
		c-0.002-0.264,0.105-0.477,0.317-0.639s0.51-0.243,0.893-0.243c0.397,0,0.705,0.097,0.925,0.29
		c0.219,0.193,0.329,0.464,0.329,0.812h1.567c0-0.456-0.118-0.864-0.353-1.222c-0.235-0.359-0.565-0.636-0.99-0.833
		c-0.425-0.197-0.909-0.295-1.452-0.295c-0.54,0-1.026,0.091-1.46,0.272s-0.766,0.433-0.998,0.755
		c-0.232,0.322-0.347,0.689-0.347,1.1c0,0.791,0.432,1.419,1.295,1.886c0.317,0.171,0.747,0.344,1.29,0.52s0.919,0.343,1.128,0.501
		c0.209,0.159,0.313,0.386,0.313,0.682c0,0.272-0.104,0.483-0.313,0.635c-0.209,0.151-0.5,0.227-0.872,0.227
		c-1.003,0-1.504-0.42-1.504-1.259h-0.822c-0.038-0.062-0.079-0.122-0.123-0.176c-0.292-0.352-0.738-0.528-1.337-0.528
		c-0.679,0-1.221,0.253-1.624,0.757l-0.047-0.653h-1.421v2.016c-0.048-0.071-0.099-0.139-0.155-0.203
		c-0.355-0.398-0.819-0.596-1.393-0.596c-0.372,0-0.702,0.09-0.992,0.269c-0.29,0.179-0.516,0.434-0.678,0.764
		s-0.244,0.702-0.244,1.115v0.051c0,0.655,0.177,1.181,0.532,1.578c0.355,0.398,0.818,0.596,1.389,0.596
		c0.379,0,0.715-0.091,1.007-0.273c0.214-0.133,0.392-0.306,0.534-0.518v0.852h1.51v-3.985c0.212-0.362,0.531-0.543,0.956-0.543
		c0.324,0,0.555,0.072,0.695,0.217c0.139,0.145,0.209,0.377,0.209,0.697v3.615h1.51v-3.097c0.125,0.08,0.257,0.154,0.402,0.219
		c0.481,0.214,1.013,0.321,1.598,0.321c0.843,0,1.513-0.187,2.011-0.562c0.498-0.374,0.747-0.891,0.747-1.549
		c0-0.592-0.204-1.086-0.611-1.483C91.964,32.076,91.313,31.744,90.422,31.475z M82.674,37.542
		c-0.216,0.287-0.507,0.431-0.873,0.431c-0.364,0-0.654-0.142-0.871-0.425s-0.325-0.659-0.325-1.126
		c0-0.527,0.109-0.933,0.327-1.216s0.505-0.425,0.861-0.425c0.364,0,0.655,0.144,0.875,0.431s0.329,0.662,0.329,1.124
		C82.999,36.853,82.891,37.255,82.674,37.542z"/>
	<rect x="93.135" y="28.464" fill="#212121" width="0.601" height="3.514"/>
	<path fill="#212121" d="M100.617,32.093c0-0.698-0.173-1.238-0.52-1.618s-0.821-0.571-1.425-0.571c-0.402,0-0.76,0.094-1.074,0.283
		c-0.314,0.189-0.556,0.458-0.728,0.807c-0.08,0.162-0.139,0.336-0.181,0.518h-2.873v0.631h1.143v3.152h0.779v-3.152h0.877
		c0,0.013-0.002,0.025-0.002,0.038v0.114c0,0.66,0.203,1.189,0.609,1.586s0.933,0.595,1.58,0.595c0.367,0,0.701-0.07,1.003-0.21
		s0.541-0.335,0.717-0.585l-0.579-0.648c-0.255,0.329-0.61,0.493-1.064,0.493c-0.294,0-0.536-0.087-0.728-0.261
		s-0.306-0.405-0.344-0.693h2.809L100.617,32.093z M99.458,31.771H97.82c0.041-0.295,0.134-0.521,0.279-0.68
		c0.145-0.158,0.335-0.238,0.569-0.238c0.25,0,0.443,0.072,0.579,0.215s0.206,0.346,0.212,0.608L99.458,31.771L99.458,31.771z"/>
	<path fill="#212121" d="M67.786,40.896c-0.08-0.091-0.12-0.24-0.12-0.449v-2.821h0.966v-1.107h-0.966V35.13h-1.51v1.389h-0.825v1.107
		h0.825v3.045c0.021,1.069,0.561,1.604,1.619,1.604c0.313,0,0.618-0.045,0.914-0.136v-1.144c-0.129,0.024-0.277,0.037-0.444,0.037
		C68.02,41.032,67.866,40.987,67.786,40.896z"/>
	<path fill="#212121" d="M75.289,42.551c0-0.495-0.16-0.878-0.479-1.152c-0.319-0.273-0.751-0.41-1.294-0.41
		c-0.359,0-0.682,0.062-0.97,0.185c-0.288,0.124-0.511,0.294-0.669,0.512c-0.158,0.217-0.236,0.454-0.236,0.709h1.178
		c0-0.166,0.056-0.296,0.169-0.391c0.113-0.095,0.268-0.143,0.467-0.143c0.226,0,0.391,0.061,0.495,0.183
		c0.105,0.122,0.157,0.285,0.157,0.489v0.253h-0.542c-0.655,0.003-1.156,0.129-1.502,0.379c-0.347,0.25-0.52,0.609-0.52,1.076
		c0,0.381,0.142,0.696,0.426,0.946s0.642,0.375,1.074,0.375c0.457,0,0.828-0.159,1.113-0.477c0.024,0.158,0.064,0.289,0.118,0.395
		h1.19v-0.069c-0.114-0.215-0.173-0.531-0.175-0.95L75.289,42.551z M74.107,44.235c-0.071,0.13-0.179,0.234-0.326,0.312
		c-0.147,0.077-0.307,0.116-0.481,0.116c-0.179,0-0.321-0.048-0.424-0.143c-0.103-0.095-0.155-0.216-0.155-0.363l0.004-0.069
		c0.038-0.408,0.352-0.611,0.942-0.611h0.44V44.235z"/>
	<path fill="#212121" d="M64.783,38.181h-0.021l-0.027-0.479h-0.697c0.011,0.224,0.021,0.474,0.021,0.857v1.746h0.809v-1.32
		c0-0.064,0.005-0.128,0.016-0.181c0.053-0.25,0.255-0.41,0.553-0.41c0.09,0,0.16,0.011,0.218,0.021v-0.761
		c-0.059-0.011-0.096-0.011-0.17-0.011C65.234,37.643,64.916,37.803,64.783,38.181z"/>
	<path fill="#212121" d="M69.205,30.817c0.054-0.964,0.093-1.926,0.116-2.886c0.024-0.96,0.029-1.922,0.015-2.886
		c0-0.04-0.012-0.084-0.035-0.131c-0.024-0.047-0.049-0.087-0.076-0.121c-0.081-0.121-0.177-0.202-0.288-0.243
		c-0.111-0.04-0.221-0.047-0.329-0.02s-0.207,0.084-0.298,0.172s-0.157,0.199-0.197,0.334l-0.01,0.061
		c0,0.613-0.003,1.223-0.01,1.83s-0.02,1.217-0.04,1.83c-0.175-0.256-0.356-0.512-0.541-0.768s-0.376-0.512-0.571-0.768
		c-0.196-0.249-0.408-0.514-0.637-0.794c-0.229-0.28-0.431-0.527-0.607-0.743c-0.047-0.061-0.106-0.14-0.177-0.238
		c-0.071-0.098-0.147-0.195-0.227-0.293c-0.081-0.098-0.163-0.189-0.248-0.273c-0.084-0.084-0.167-0.14-0.248-0.167
		c-0.094-0.034-0.192-0.047-0.293-0.04s-0.196,0.032-0.283,0.076c-0.088,0.044-0.16,0.106-0.217,0.187s-0.086,0.179-0.086,0.293
		c-0.007,0.229-0.007,0.457,0,0.682c0.007,0.226,0.01,0.453,0.01,0.682c0,0.169,0.002,0.376,0.005,0.622
		c0.003,0.246,0.005,0.51,0.005,0.794v2.82c0,0.162,0.047,0.296,0.142,0.404c0.094,0.108,0.205,0.175,0.334,0.202
		c0.128,0.027,0.254,0.013,0.379-0.04c0.125-0.054,0.217-0.162,0.278-0.323c0.02-0.054,0.035-0.118,0.046-0.192
		c0.01-0.074,0.018-0.177,0.025-0.308s0.01-0.302,0.01-0.51v-3.063c0.526,0.654,1.031,1.313,1.516,1.976
		c0.485,0.664,0.947,1.356,1.385,2.077v-0.02c0,0.007,0.003,0.013,0.01,0.02c0.061,0.121,0.155,0.207,0.283,0.258
		c0.128,0.051,0.254,0.064,0.379,0.04c0.125-0.024,0.236-0.079,0.334-0.167C69.156,31.093,69.205,30.972,69.205,30.817z"/>
	<path fill="#212121" d="M71.637,39.717h-0.782v2.518c-0.007,0.461-0.23,0.691-0.668,0.691c-0.21,0-0.374-0.057-0.492-0.17
		c-0.119-0.113-0.178-0.294-0.178-0.542v-2.497h-0.779v2.52c0.005,0.409,0.138,0.73,0.398,0.964s0.611,0.351,1.052,0.351
		c0.449,0,0.802-0.12,1.061-0.361c0.259-0.241,0.388-0.568,0.388-0.982C71.637,42.209,71.637,39.717,71.637,39.717z"/>
</g>
</svg>
