<svg version="1.1" xmlns="http://www.w3.org/2000/svg" xmlns:xlink="http://www.w3.org/1999/xlink" x="0px" y="0px" viewBox="0 0 300 143.119">
<path clip-path="url(#adapt_clipPath2)" class="draw" fill="none" stroke="#212121" stroke-miterlimit="10" stroke-width="1" d="M56.039,22.267c0,0,8.397,6.9,23.527,8.563c15.131,1.663,16.045,1.413,16.128,5.404s-0.416,10.808,6.235,15.796
	s12.553,6.152,16.253,7.108s7.181,1.742,7.181,1.742"/>
<clipPath id="adapt_clipPath2">
	<path fill="none" d="M56.063,22.238c2.947,2.103,6.263,3.621,9.634,4.862c3.38,1.238,6.874,2.145,10.422,2.697
	c3.538,0.516,7.165,0.813,10.769,1.211c1.807,0.203,3.611,0.393,5.443,0.752c0.912,0.219,1.866,0.39,2.792,1.065
	c0.48,0.313,0.811,0.889,0.996,1.41c0.151,0.53,0.212,1.037,0.23,1.508c0.052,1.874-0.015,3.631,0.19,5.39
	c0.177,1.751,0.597,3.461,1.325,5.035c0.721,1.576,1.754,3.001,3.021,4.2c1.267,1.18,2.747,2.225,4.241,3.194
	c6.007,3.978,13.316,5.252,20.245,7.28l-0.017,0.073c-3.52-0.863-7.052-1.67-10.556-2.604c-3.501-0.943-6.887-2.348-9.978-4.253
	c-1.538-0.959-3.046-1.982-4.382-3.219c-1.328-1.241-2.426-2.733-3.193-4.383c-0.776-1.648-1.224-3.437-1.418-5.242
	c-0.222-1.806-0.166-3.63-0.228-5.432c-0.017-0.45-0.072-0.896-0.19-1.323c-0.154-0.405-0.364-0.812-0.741-1.057
	c-0.709-0.534-1.62-0.736-2.489-0.942c-1.77-0.359-3.573-0.562-5.371-0.775c-3.596-0.432-7.213-0.711-10.792-1.315
	c-3.573-0.621-7.085-1.592-10.466-2.903c-3.359-1.352-6.64-2.974-9.537-5.173L56.063,22.238z"/>
</clipPath>
</svg>
