<svg version="1.1" xmlns="http://www.w3.org/2000/svg" xmlns:xlink="http://www.w3.org/1999/xlink" x="0px" y="0px" viewBox="0 0 300 143.119">
<path clip-path="url(#adapt_clipPath5)" class="draw" fill="none" stroke="#212121" stroke-miterlimit="10" stroke-width="1" d="M57.148,107.841c0,0-11.75-8.646-11.75-18.622S60.584,73.146,73.11,73.257s20.618,2.106,25.273-1.552
	c4.656-3.658,8.757-8.757,16.073-9.755s10.863-1.108,10.863-1.108"/>
<clipPath id="adapt_clipPath5">
	<path fill="none" d="M57.126,107.871c-1.907-1.403-3.677-2.988-5.311-4.709c-1.63-1.723-3.124-3.595-4.34-5.661
	c-1.196-2.069-2.106-4.353-2.41-6.777c-0.383-2.408,0.155-5.014,1.458-7.107c1.272-2.128,3.134-3.796,5.135-5.142
	c2.011-1.349,4.195-2.4,6.444-3.234c4.505-1.66,9.273-2.547,14.074-2.653c4.773-0.008,9.494,0.38,14.193,0.616
	c2.341,0.092,4.697,0.191,6.958-0.148c1.137-0.139,2.224-0.458,3.232-0.909c0.244-0.128,0.507-0.226,0.737-0.377l0.689-0.455
	c0.458-0.346,0.919-0.712,1.368-1.086c1.809-1.488,3.562-3.097,5.494-4.511c1.922-1.414,4.036-2.649,6.345-3.356
	c1.145-0.373,2.342-0.576,3.522-0.718l3.528-0.367c2.355-0.217,4.712-0.411,7.077-0.472l0.002,0.075
	c-2.356,0.114-4.707,0.361-7.052,0.63c-2.333,0.323-4.721,0.448-6.954,1.227c-2.245,0.728-4.298,1.953-6.174,3.373
	c-1.886,1.418-3.608,3.039-5.413,4.564c-0.902,0.751-1.802,1.557-2.899,2.04c-1.075,0.499-2.231,0.832-3.405,0.984
	c-2.347,0.361-4.726,0.268-7.083,0.188c-4.719-0.215-9.433-0.579-14.153-0.548c-4.712,0.084-9.418,0.935-13.85,2.545
	c-2.212,0.809-4.356,1.83-6.319,3.134c-1.949,1.306-3.759,2.9-4.998,4.909c-1.263,1.988-1.802,4.408-1.466,6.746
	c0.261,2.342,1.121,4.585,2.267,6.637c1.151,2.058,2.588,3.947,4.169,5.695c1.584,1.747,3.314,3.368,5.181,4.807L57.126,107.871z"/>
</clipPath>
</svg>
