<svg version="1.1" xmlns="http://www.w3.org/2000/svg" xmlns:xlink="http://www.w3.org/1999/xlink" x="0px" y="0px" viewBox="0 0 300 143.119">
<path clip-path="url(#adapt_clipPath4)" class="draw" fill="none" stroke="#212121" stroke-miterlimit="10" stroke-width="1" d="M47.947,104.959c0,0-7.094-7.87-0.222-17.514s25.051-9.644,29.596-9.865c4.545-0.222,12.193,0.111,19.066-6.651
	c6.873-6.762,13.523-9.2,19.509-9.422c5.986-0.222,9.644-0.665,9.644-0.665"/>
<clipPath id="adapt_clipPath4">
<path fill="none" d="M47.92,104.984c-2.81-3.285-4.157-7.953-3.091-12.299c0.535-2.16,1.59-4.145,2.896-5.926l1.054-1.297
	l1.216-1.139c0.392-0.4,0.847-0.715,1.299-1.037c0.458-0.31,0.881-0.682,1.369-0.94c1.881-1.176,3.927-2.025,6.005-2.738
	c2.096-0.647,4.222-1.196,6.377-1.56c4.3-0.777,8.682-1.007,12.992-1.172c2.167-0.062,4.288-0.148,6.371-0.508
	c2.081-0.347,4.102-0.981,5.989-1.9c1.887-0.918,3.624-2.139,5.164-3.579c1.558-1.475,3.214-2.964,5.003-4.222
	c3.551-2.561,7.645-4.468,11.991-5.153c2.181-0.346,4.363-0.26,6.51-0.346c2.158-0.072,4.318-0.175,6.47-0.363l0.009,0.074
	c-2.15,0.241-4.307,0.397-6.466,0.522c-2.158,0.139-4.329,0.108-6.456,0.5c-4.263,0.742-8.255,2.663-11.714,5.234
	c-1.748,1.271-3.336,2.736-4.904,4.226c-1.574,1.488-3.36,2.758-5.305,3.717c-1.944,0.96-4.032,1.625-6.167,1.993
	c-2.136,0.381-4.307,0.479-6.466,0.552c-4.319,0.146-8.646,0.35-12.904,1.097c-2.132,0.348-4.229,0.879-6.294,1.504
	c-2.04,0.697-4.053,1.504-5.903,2.62c-0.482,0.245-0.894,0.601-1.344,0.896c-0.443,0.307-0.892,0.607-1.275,0.989l-1.195,1.087
	l-1.035,1.24c-1.295,1.712-2.35,3.639-2.903,5.726c-1.14,4.187,0.053,8.816,2.763,12.149L47.92,104.984z"/>
</clipPath>
</svg>
