<svg version="1.1" xmlns="http://www.w3.org/2000/svg" xmlns:xlink="http://www.w3.org/1999/xlink" x="0px" y="0px" viewBox="0 0 300 143.119">
<path clip-path="url(#adapt_clipPath3)" class="draw" fill="none" stroke="#212121" stroke-miterlimit="10" stroke-width="1" d="M49.555,21.852c0,0,3.034,7.357,12.803,10.683s16.336,3.783,25.356,3.575s10.309-1.58,11.556,0.374
	c1.247,1.954-1.455,3.201-0.166,8.937s6.9,9.893,11.681,11.618c4.78,1.725,14.632,3.887,14.632,3.887"/>
<clipPath id="adapt_clipPath3">
	<path fill="none" d="M49.59,21.838c1.838,3.562,4.901,6.37,8.336,8.286c1.714,0.998,3.56,1.693,5.46,2.286
	c1.904,0.594,3.824,1.135,5.765,1.566c7.742,1.818,15.822,1.78,23.74,1.175l2.991-0.28c0.507-0.045,1.026-0.084,1.587-0.071
	c0.543,0.013,1.298,0.168,1.796,0.667c0.246,0.235,0.417,0.47,0.578,0.729c0.162,0.271,0.289,0.577,0.356,0.908
	c0.121,0.678-0.043,1.276-0.179,1.771c-0.303,0.988-0.55,1.866-0.622,2.813c-0.139,1.87,0.219,3.843,0.93,5.593
	c0.776,1.746,1.909,3.35,3.3,4.715c1.376,1.382,2.994,2.531,4.712,3.48c1.719,0.954,3.599,1.58,5.51,2.18
	c3.809,1.213,7.687,2.251,11.575,3.232l-0.016,0.073c-3.913-0.877-7.815-1.811-11.67-2.927c-1.922-0.564-3.848-1.176-5.626-2.125
	c-1.772-0.943-3.446-2.093-4.889-3.495c-1.459-1.383-2.671-3.036-3.492-4.877c-0.765-1.861-1.149-3.89-1.015-5.905
	c0.068-1.009,0.341-1.992,0.629-2.947c0.132-0.478,0.247-0.972,0.157-1.45c-0.09-0.474-0.383-0.904-0.723-1.242
	c-0.348-0.347-0.851-0.453-1.34-0.471c-0.495-0.009-0.994,0.029-1.491,0.077l-2.993,0.297c-7.983,0.555-16.122,0.591-23.942-1.353
	c-1.952-0.466-3.877-1.041-5.782-1.667c-1.903-0.627-3.787-1.366-5.507-2.412c-3.441-2.045-6.45-4.963-8.204-8.599L49.59,21.838z"/>
</clipPath>
</svg>
