<svg version="1.1" xmlns="http://www.w3.org/2000/svg" xmlns:xlink="http://www.w3.org/1999/xlink" x="0px" y="0px" viewBox="0 0 300 143.119">
<path clip-path="url(#educate_clipPath3)" class="draw" fill="none" stroke="#212121" stroke-miterlimit="10" stroke-width="1" d="M34.646,111.721c0,0,10.309,1.552,15.297,0.887c4.988-0.665,2.66-7.538,2.328-8.757
	c-0.333-1.219-7.094-15.74,0.554-27.601s24.608-13.967,33.032-14.078s19.287,0.111,26.16,0c6.873-0.111,10.53-1.219,10.53-1.219"/>
<clipPath id="educate_clipPath3">
	<path fill="none" d="M34.653,111.671c2.653,0.363,5.319,0.648,7.99,0.827c1.336,0.085,2.673,0.145,4.009,0.149
	c1.324-0.025,2.698-0.02,3.952-0.344c1.275-0.331,2.11-1.534,2.238-2.826c0.194-1.291-0.024-2.627-0.318-3.912
	c-0.155-0.638-0.337-1.297-0.548-1.911l-0.704-1.881c-0.461-1.265-0.843-2.559-1.194-3.86c-1.343-5.197-1.703-10.8-0.15-16.037
	c1.456-5.265,5.053-9.786,9.5-12.87c2.236-1.542,4.659-2.796,7.174-3.806c2.527-0.979,5.136-1.724,7.78-2.287
	c2.648-0.546,5.331-0.906,8.026-1.093c2.704-0.205,5.389-0.134,8.065-0.148l16.082,0.151c5.354,0.083,10.743,0.289,15.977-0.919
	l0.029,0.096c-2.591,0.737-5.27,1.082-7.949,1.305c-2.689,0.199-5.366,0.152-8.046,0.215l-16.079,0.151
	c-2.683,0.011-5.364-0.059-8.009,0.14c-2.653,0.182-5.295,0.535-7.896,1.07c-2.603,0.523-5.171,1.223-7.656,2.152
	c-2.471,0.959-4.848,2.155-7.042,3.629c-4.352,2.963-7.868,7.296-9.332,12.397c-1.56,5.074-1.269,10.581,0.011,15.73
	c0.33,1.29,0.692,2.574,1.133,3.833l0.682,1.893c0.215,0.656,0.382,1.293,0.535,1.958c0.282,1.318,0.495,2.688,0.274,4.057
	c-0.136,1.36-1.11,2.731-2.497,3.059c-1.351,0.329-2.694,0.295-4.04,0.307c-1.344-0.02-2.684-0.097-4.022-0.199
	c-2.675-0.213-5.338-0.531-7.991-0.928L34.653,111.671z"/>
</clipPath>
</svg>
