<?xml version="1.0" encoding="utf-8"?>
<!-- Generator: Adobe Illustrator 24.3.0, SVG Export Plug-In . SVG Version: 6.00 Build 0)  -->
<svg version="1.1" xmlns="http://www.w3.org/2000/svg" xmlns:xlink="http://www.w3.org/1999/xlink" x="0px" y="0px" viewBox="0 0 300 143.119">
<path clip-path="url(#educate_clipPath4)" class="draw" fill="none" stroke="#212121" stroke-miterlimit="10" stroke-width="1" d="M20.347,100.304c0,0,17.403,3.547,23.832,5.764s15.408,4.988,16.738,3.436c1.33-1.552-1.552-6.54-5.099-14.521
	s-2.106-17.957,4.101-24.497c6.207-6.54,17.957-10.752,31.591-10.198c13.634,0.554,21.283,0.804,25.55,0.748s6.18-0.083,6.18-0.083"
	/>
<clipPath id="educate_clipPath4">
	<path fill="none" d="M20.357,100.255c6.117,1.239,12.224,2.533,18.282,4.055c1.515,0.38,3.022,0.79,4.52,1.244l4.451,1.452
	c2.97,0.933,5.964,1.836,9.01,2.402c0.76,0.136,1.527,0.248,2.286,0.278c0.377,0.012,0.758,0.012,1.111-0.051
	c0.362-0.069,0.658-0.172,0.779-0.449c0.323-0.539,0.14-1.364-0.031-2.073c-0.206-0.732-0.473-1.456-0.765-2.173
	c-1.191-2.861-2.598-5.657-3.885-8.502c-2.906-5.607-3.362-12.465-1.224-18.445c0.235-0.76,0.589-1.474,0.893-2.208
	c0.377-0.699,0.704-1.428,1.148-2.089c0.809-1.371,1.825-2.613,2.918-3.767c2.232-2.271,4.872-4.105,7.702-5.514
	c5.679-2.812,11.957-4.2,18.231-4.569c3.147-0.174,6.296,0.018,9.4,0.118l9.347,0.357l9.351,0.395
	c3.117,0.209,6.239,0.158,9.36,0.188l0.001,0.1c-6.238,0.333-12.477,0.099-18.721,0.015l-9.367-0.191
	c-3.133-0.055-6.228-0.198-9.313,0.018c-6.163,0.358-12.321,1.723-17.846,4.456c-2.767,1.342-5.338,3.094-7.505,5.254
	c-1.059,1.097-2.047,2.276-2.837,3.588c-0.435,0.631-0.754,1.33-1.126,1.999c-0.299,0.704-0.649,1.389-0.882,2.12
	c-2.105,5.771-1.745,12.378,1.062,17.907c1.262,2.851,2.641,5.645,3.826,8.556c0.291,0.731,0.559,1.474,0.77,2.246
	c0.092,0.392,0.176,0.788,0.205,1.205c0.015,0.207-0.006,0.427-0.019,0.64c-0.067,0.217-0.082,0.446-0.231,0.644
	c-0.101,0.204-0.305,0.407-0.52,0.502c-0.211,0.105-0.424,0.156-0.632,0.194c-0.417,0.07-0.822,0.064-1.223,0.049
	c-0.801-0.039-1.581-0.16-2.354-0.305c-3.087-0.609-6.073-1.546-9.043-2.513l-4.432-1.499c-1.483-0.466-2.983-0.892-4.491-1.287
	c-6.031-1.584-12.125-2.944-18.226-4.247L20.357,100.255z"/>
</clipPath>
</svg>
