<?xml version="1.0" encoding="utf-8"?>
<!-- Generator: Adobe Illustrator 24.3.0, SVG Export Plug-In . SVG Version: 6.00 Build 0)  -->
<svg version="1.1" id="Layer_1" xmlns="http://www.w3.org/2000/svg" xmlns:xlink="http://www.w3.org/1999/xlink" x="0px" y="0px"
	 viewBox="0 0 300 143.119" style="enable-background:new 0 0 300 143.119;" xml:space="preserve">
<g>
	<g>
		<path d="M55.917,44.25l1.188,0.274l0.657-2.848c0.245-1.124-0.115-1.797-1.079-2.019c-0.477-0.11-0.916-0.012-1.318,0.293
			l0.542-2.35l-1.188-0.274l-1.456,6.312l1.188,0.274l0.729-3.16c0.218-0.232,0.501-0.309,0.849-0.228
			c0.255,0.059,0.423,0.162,0.504,0.309c0.081,0.147,0.093,0.348,0.034,0.603L55.917,44.25z M50.674,39.858
			c-0.239-0.055-0.464-0.048-0.682-0.009l0.112-0.485l-4.873-1.124l-0.23,0.999l1.808,0.417l-1.15,4.984l1.233,0.284l1.15-4.984
			l1.202,0.277c-0.062,0.056-0.128,0.104-0.184,0.173c-0.198,0.244-0.337,0.54-0.418,0.888l-0.021,0.09
			c-0.12,0.519-0.056,0.972,0.192,1.358s0.626,0.637,1.135,0.755c0.289,0.067,0.564,0.072,0.827,0.017s0.486-0.165,0.671-0.33
			l-0.338-0.615c-0.261,0.212-0.569,0.277-0.927,0.195c-0.231-0.053-0.406-0.166-0.525-0.337c-0.119-0.172-0.168-0.374-0.145-0.608
			l2.209,0.51l0.087-0.378c0.127-0.549,0.088-1.005-0.115-1.367S51.148,39.968,50.674,39.858z M50.971,41.396l-0.017,0.074
			l-1.289-0.297c0.086-0.224,0.2-0.386,0.343-0.484c0.143-0.098,0.307-0.126,0.49-0.084c0.197,0.045,0.335,0.137,0.416,0.274
			S51.014,41.188,50.971,41.396z M74.983,42.41l-1.139,2.01l-0.147-2.307l-0.997-0.23l0.11,0.998
			c-0.023-0.009-0.04-0.021-0.066-0.027c-0.163-0.038-0.409,0.025-0.587,0.109c-0.047-0.084-0.231-0.43-0.771-0.555
			c-0.81-0.187-1.277,0.234-1.373,0.649c-0.123,0.534,0.117,0.867,0.324,1.06l-0.003,0.013c-0.209,0.044-0.609,0.177-0.688,0.516
			c-0.046,0.201,0.058,0.437,0.32,0.563l-0.009,0.038c-0.33,0.056-0.737,0.214-0.815,0.553c-0.046,0.201,0.004,0.384,0.2,0.568
			c0.24,0.221,0.633,0.351,0.935,0.421c0.587,0.149,1.073,0.049,1.312-0.068c0.243-0.112,0.398-0.259,0.488-0.441l-0.115,0.5
			c0.13,0.073,0.262,0.125,0.396,0.156c0.477,0.11,0.871-0.038,1.183-0.443l0.119-0.165l2.319-3.687L74.983,42.41z M70.598,43.384
			c0.057-0.245,0.161-0.525,0.339-0.669c0.12-0.091,0.243-0.109,0.375-0.079c0.151,0.035,0.226,0.112,0.266,0.194
			c0.044,0.096,0.082,0.277,0.024,0.528c-0.103,0.446-0.309,0.854-0.636,0.779c-0.176-0.041-0.258-0.113-0.326-0.221
			C70.555,43.797,70.551,43.585,70.598,43.384z M71.541,46.233c-0.073,0.373-0.656,0.437-0.983,0.362
			c-0.364-0.084-0.531-0.162-0.7-0.32c-0.103-0.097-0.167-0.31-0.126-0.485c0.058-0.251,0.311-0.404,0.499-0.414l0.574,0.093
			C71.413,45.582,71.625,45.869,71.541,46.233z M72.938,45.903c-0.078,0.113-0.166,0.186-0.265,0.219
			c-0.099,0.034-0.236,0.03-0.411-0.01l-0.118-0.03c0,0,0,0,0-0.001c0.043-0.188,0.036-0.441-0.172-0.688
			c-0.224-0.29-0.529-0.4-1.012-0.485c-0.558-0.102-0.797-0.157-0.739-0.409c0.035-0.151,0.218-0.227,0.342-0.252
			c0.126,0.056,0.214,0.076,0.352,0.108c0.295,0.068,0.614,0.062,0.864-0.105c0.235-0.157,0.368-0.391,0.424-0.636
			c0.046-0.201,0.041-0.348,0.02-0.432c0.059-0.026,0.122-0.012,0.159-0.003c0.05,0.012,0.092,0.061,0.133,0.11
			c0.029,0.046,0.08,0.111,0.174,0.133c0.062,0.014,0.122-0.005,0.174-0.034l0.247,2.253L72.938,45.903z M66.785,43.266
			c-0.158-0.036-0.3-0.02-0.427,0.05c-0.127,0.07-0.206,0.175-0.239,0.315c-0.014,0.061-0.023,0.149-0.026,0.264
			c0,0.078-0.007,0.151-0.022,0.216c-0.051,0.219-0.253,0.287-0.608,0.206l-0.322-0.074c-0.048-0.011-0.092-0.022-0.131-0.034
			c-0.039-0.011-0.071-0.022-0.096-0.033c-0.11-0.044-0.169-0.127-0.178-0.249c-0.003-0.047,0.015-0.156,0.055-0.326l0.427-1.852
			c0.056-0.241,0.153-0.345,0.293-0.313c0.048,0.011,0.115,0.035,0.202,0.071c0.086,0.036,0.153,0.06,0.202,0.071
			c0.101,0.023,0.193,0.001,0.278-0.067c0.085-0.068,0.142-0.166,0.171-0.293c0.033-0.144,0.017-0.269-0.049-0.374
			c-0.066-0.105-0.171-0.174-0.315-0.208c-0.092-0.021-0.246-0.043-0.462-0.065c-0.072-0.007-0.144-0.017-0.215-0.029
			c-0.071-0.012-0.144-0.026-0.218-0.043c-0.088-0.02-0.178-0.043-0.271-0.069c-0.093-0.026-0.191-0.056-0.294-0.089
			c-0.309-0.099-0.494-0.156-0.556-0.17c-0.324-0.075-0.523,0.048-0.597,0.367c-0.028,0.123-0.018,0.233,0.031,0.332
			c0.049,0.099,0.123,0.16,0.224,0.183c0.039,0.009,0.095,0.014,0.166,0.014c0.071,0,0.125,0.005,0.16,0.013
			c0.118,0.027,0.143,0.188,0.076,0.481l-0.42,1.819c-0.069,0.298-0.162,0.433-0.28,0.406c-0.035-0.008-0.085-0.028-0.149-0.059
			c-0.038-0.018-0.06-0.024-0.088-0.035c-0.039-0.206-0.112-0.395-0.224-0.567c-0.23-0.355-0.579-0.586-1.047-0.694
			c-0.329-0.076-0.635-0.069-0.918,0.021c-0.283,0.09-0.522,0.255-0.717,0.493c-0.082,0.1-0.147,0.215-0.208,0.333l0.067-0.292
			l-0.611-0.141l-0.453,1.962l-0.743-2.238l-0.613-0.141l-0.686,2.976l0.613,0.141l0.452-1.958l0.742,2.233l0.613,0.141l0.346-1.501
			c0.005,0.3,0.069,0.573,0.206,0.812c0.224,0.389,0.586,0.642,1.087,0.757c0.5,0.115,0.936,0.047,1.307-0.207
			c0.371-0.253,0.618-0.646,0.741-1.178l0.002-0.012c0.024,0.004,0.047,0.01,0.071,0.013c0.069,0.009,0.145,0.017,0.226,0.024
			c0.081,0.007,0.17,0.018,0.266,0.034c0.096,0.015,0.203,0.036,0.321,0.064c0.788,0.182,1.389,0.334,1.804,0.457
			c0.138,0.041,0.259,0.076,0.363,0.105c0.104,0.029,0.193,0.051,0.268,0.069c0.285,0.066,0.455-0.022,0.51-0.263
			c0.002-0.009,0.007-0.039,0.014-0.09c0.007-0.051,0.017-0.122,0.028-0.211c0.006-0.045,0.013-0.089,0.02-0.134
			c0.008-0.044,0.017-0.088,0.027-0.132c0.008-0.035,0.021-0.081,0.038-0.136c0.017-0.056,0.039-0.12,0.065-0.193
			c0.026-0.072,0.048-0.137,0.065-0.193c0.017-0.056,0.031-0.104,0.04-0.143C67.27,43.561,67.135,43.347,66.785,43.266z
			 M62.151,44.365c-0.087,0.379-0.214,0.64-0.38,0.783c-0.166,0.143-0.361,0.189-0.586,0.137c-0.231-0.053-0.388-0.181-0.472-0.385
			c-0.084-0.203-0.088-0.47-0.012-0.799c0.085-0.37,0.21-0.63,0.375-0.778c0.165-0.148,0.36-0.196,0.587-0.144
			c0.229,0.053,0.386,0.183,0.471,0.389C62.22,43.776,62.226,44.041,62.151,44.365z M53.454,42.23
			c-0.103,0.016-0.27,0.01-0.415-0.023c-0.427-0.099-0.617-0.423-0.519-0.847c0.109-0.471,0.457-0.632,0.837-0.545
			c0.17,0.039,0.296,0.108,0.384,0.171l0.185-0.358c-0.075-0.064-0.251-0.157-0.5-0.214c-0.641-0.148-1.248,0.135-1.415,0.858
			c-0.139,0.603,0.133,1.145,0.865,1.314c0.258,0.059,0.466,0.058,0.564,0.034L53.454,42.23z M69.505,43.817
			c0.142-0.615-0.177-1.143-0.805-1.288c-0.657-0.152-1.19,0.171-1.343,0.832c-0.153,0.661,0.217,1.161,0.816,1.299
			C68.722,44.787,69.333,44.566,69.505,43.817z M68.843,43.686c-0.085,0.368-0.301,0.579-0.548,0.522
			c-0.272-0.063-0.358-0.36-0.277-0.712c0.07-0.301,0.255-0.589,0.561-0.519C68.868,43.044,68.914,43.38,68.843,43.686z
			 M37.121,23.778c0.145-0.115,0.218-0.273,0.218-0.474c0-0.154-0.043-0.28-0.13-0.378s-0.259-0.193-0.517-0.286
			c-0.215-0.074-0.357-0.144-0.426-0.209c-0.069-0.065-0.103-0.151-0.103-0.258c0-0.219,0.154-0.329,0.461-0.329
			c0.175,0,0.364,0.041,0.566,0.123l0.101-0.258c-0.196-0.082-0.414-0.123-0.654-0.123c-0.235,0-0.42,0.052-0.555,0.155
			c-0.135,0.103-0.202,0.246-0.202,0.429c0,0.17,0.047,0.308,0.142,0.415s0.251,0.198,0.47,0.275
			c0.225,0.081,0.375,0.151,0.449,0.209c0.074,0.059,0.111,0.143,0.111,0.252c0,0.252-0.184,0.378-0.551,0.378
			c-0.213,0-0.43-0.045-0.651-0.135v0.28c0.156,0.072,0.373,0.109,0.651,0.109C36.77,23.95,36.976,23.893,37.121,23.778z
			 M39.655,24.524h-3.732v0.765h1.384v3.817h0.944v-3.817h1.403V24.524z M46.001,34.295c0.052,0,0.052-0.026,0.052-0.064v-0.148
			c0-0.019,0-0.045-0.039-0.045h-0.348c-0.116,0-0.174-0.103-0.18-0.348c0-0.109-0.013-1.05-0.013-1.437v-0.451
			c0-0.167,0-1.456,0.006-1.598c0.006-0.135,0.019-0.251,0.187-0.251h0.284c0.039,0,0.052-0.026,0.052-0.064v-0.135
			c0-0.032-0.013-0.058-0.039-0.058c-0.077,0-0.296,0.026-1.237,0.019c-0.155,0-0.232,0.013-0.251,0.077
			c-0.032,0.129-0.612,1.456-0.728,1.727c-0.168,0.38-0.625,1.443-0.683,1.559c-0.193-0.528-1.095-2.668-1.327-3.273
			c-0.032-0.084-0.077-0.11-0.155-0.11s-0.258,0.019-0.567,0.019c-0.683,0-0.851-0.019-0.915-0.019
			c-0.039,0-0.052,0.026-0.052,0.039v0.174c0,0.019,0.013,0.045,0.052,0.045h0.284c0.17,0,0.244,0.056,0.281,0.146
			c-0.015,0.002-0.03,0.01-0.045,0.037c-0.135,0.206-0.38,0.374-0.78,0.374c-0.367,0-0.838-0.387-0.838-1.044v-0.2h1.559
			c0.116,0,0.18-0.006,0.18-0.103c0-0.264-0.238-1.031-0.973-1.031c-0.561,0-0.851,0.129-1.121,0.477
			c-0.277,0.361-0.316,0.599-0.316,0.954c0,0.399,0.064,0.722,0.361,1.063c0.226,0.258,0.516,0.348,0.928,0.348
			c0.59,0,0.908-0.3,1.079-0.543v0.998c0,0.116-0.039,1.701-0.097,2.152c-0.032,0.226-0.103,0.457-0.322,0.457h-0.296
			c-0.039,0-0.039,0.026-0.039,0.039v0.161c0,0.045,0,0.058,0.052,0.058c0.064,0,0.284-0.019,0.838-0.019
			c0.49,0,0.67,0.019,0.735,0.019c0.052,0,0.064-0.026,0.064-0.052v-0.161c0-0.019-0.013-0.045-0.052-0.045h-0.284
			c-0.206,0-0.284-0.245-0.309-0.541c-0.039-0.419-0.032-1.514-0.032-1.591c0-0.077,0.006-1.701,0.032-1.791
			c0.077,0.077,0.67,1.521,0.786,1.817c0.039,0.103,0.876,2.113,0.902,2.152c0.026,0.077,0.064,0.116,0.103,0.116
			c0.064,0,0.116-0.09,0.142-0.142c0.032-0.064,0.689-1.585,0.786-1.791c0.077-0.168,0.889-2.049,0.941-2.139h0.026
			c0.013,0.026,0.013,1.624,0.013,1.817v0.361c0,0.515-0.013,1.443-0.019,1.508c-0.019,0.187-0.071,0.226-0.187,0.226h-0.399
			c-0.039,0-0.052,0.013-0.052,0.052v0.148c0,0.032,0.013,0.058,0.052,0.058c0.09,0,0.335-0.019,0.966-0.019
			C45.614,34.276,45.924,34.295,46.001,34.295z M39.613,28.37c0.335,0,0.399,0.38,0.399,0.573c0,0.052-0.077,0.09-0.213,0.09h-0.78
			C39.104,28.602,39.297,28.37,39.613,28.37z"/>
	</g>
</g>
<g>
	<polygon points="43.456,58.95 42.501,58.95 42.501,58.44 43.31,58.44 43.31,58.06 42.501,58.06 42.501,57.61 43.459,57.61 
		43.459,57.213 41.987,57.213 41.987,59.346 43.456,59.346 	"/>
	<path d="M44.555,57.898c-0.097-0.111-0.216-0.167-0.357-0.167c-0.194,0-0.346,0.072-0.454,0.217s-0.163,0.342-0.163,0.593
		c0,0.267,0.055,0.472,0.166,0.617s0.26,0.217,0.448,0.217c0.156,0,0.285-0.066,0.387-0.199l0.025,0.17h0.444v-2.25h-0.495V57.898z
		 M44.555,58.856c-0.047,0.092-0.125,0.138-0.234,0.138c-0.164,0-0.246-0.141-0.246-0.422l0.001-0.091
		c0.013-0.246,0.095-0.369,0.248-0.369c0.109,0,0.187,0.047,0.231,0.141V58.856z"/>
	<path d="M46.255,58.873c-0.048,0.081-0.128,0.122-0.242,0.122c-0.132,0-0.198-0.068-0.198-0.204v-1.03h-0.494v1.027
		c0,0.189,0.044,0.334,0.134,0.436c0.089,0.101,0.221,0.151,0.395,0.151c0.178,0,0.319-0.067,0.423-0.201l0.015,0.171h0.463v-1.585
		h-0.497V58.873z"/>
	<path d="M47.704,59.375c0.196,0,0.356-0.056,0.481-0.167c0.124-0.111,0.187-0.254,0.187-0.428h-0.463
		c0.001,0.067-0.018,0.12-0.056,0.157c-0.038,0.038-0.092,0.057-0.161,0.057c-0.083,0-0.144-0.031-0.182-0.092
		s-0.057-0.172-0.057-0.331c0-0.091,0.003-0.162,0.01-0.214c0.021-0.163,0.096-0.245,0.224-0.245c0.067,0,0.121,0.022,0.161,0.066
		s0.06,0.107,0.06,0.189h0.463c0-0.195-0.061-0.35-0.182-0.464s-0.285-0.171-0.491-0.171c-0.152,0-0.284,0.033-0.396,0.099
		c-0.111,0.066-0.197,0.161-0.255,0.283c-0.06,0.123-0.089,0.264-0.089,0.424v0.021c0,0.256,0.066,0.456,0.199,0.601
		S47.474,59.375,47.704,59.375z"/>
	<path d="M49.9,58.285c-0.003-0.172-0.063-0.307-0.18-0.406s-0.277-0.148-0.479-0.148s-0.369,0.048-0.499,0.144
		c-0.131,0.095-0.196,0.22-0.196,0.373h0.494c0-0.116,0.059-0.174,0.176-0.174c0.126,0,0.189,0.073,0.189,0.219v0.084h-0.152
		c-0.242,0-0.427,0.044-0.554,0.132s-0.19,0.218-0.19,0.39c0,0.137,0.052,0.25,0.157,0.34c0.104,0.091,0.231,0.136,0.381,0.136
		c0.163,0,0.29-0.057,0.381-0.171c0.014,0.062,0.029,0.11,0.047,0.142h0.494v-0.025c-0.043-0.077-0.065-0.188-0.067-0.334V58.285z
		 M49.405,58.895c-0.018,0.033-0.047,0.063-0.087,0.089s-0.091,0.04-0.153,0.04c-0.047,0-0.085-0.014-0.116-0.042
		c-0.03-0.027-0.045-0.064-0.045-0.109c0-0.154,0.086-0.231,0.258-0.231h0.144V58.895z"/>
	<path d="M50.78,58.953c-0.021-0.023-0.032-0.065-0.032-0.125v-0.725h0.261v-0.343h-0.261v-0.394h-0.494v0.394h-0.202v0.343h0.202
		v0.787c0,0.163,0.041,0.285,0.122,0.365s0.207,0.12,0.376,0.12c0.097,0,0.189-0.014,0.278-0.042v-0.353
		c-0.033,0.006-0.074,0.009-0.123,0.009C50.844,58.988,50.802,58.977,50.78,58.953z"/>
	<path d="M51.473,57.112c-0.081,0-0.147,0.022-0.198,0.067s-0.076,0.103-0.076,0.173s0.025,0.128,0.076,0.173
		s0.117,0.067,0.198,0.067s0.147-0.022,0.198-0.067s0.076-0.103,0.076-0.173s-0.025-0.128-0.076-0.173S51.554,57.112,51.473,57.112z
		"/>
	<rect x="51.229" y="57.761" width="0.495" height="1.585"/>
	<path d="M52.729,57.731c-0.155,0-0.291,0.033-0.406,0.1s-0.204,0.162-0.265,0.285s-0.092,0.264-0.092,0.422l0.001,0.083
		c0.011,0.231,0.084,0.415,0.221,0.55c0.137,0.136,0.318,0.203,0.543,0.203c0.234,0,0.42-0.072,0.557-0.218
		c0.137-0.145,0.206-0.341,0.206-0.588v-0.018c0-0.253-0.068-0.453-0.205-0.6S52.966,57.731,52.729,57.731z M53.001,58.588
		c-0.004,0.271-0.094,0.406-0.27,0.406c-0.09,0-0.158-0.034-0.204-0.103s-0.069-0.176-0.069-0.322l0.001-0.089
		c0.014-0.245,0.103-0.368,0.268-0.368c0.182,0,0.272,0.142,0.272,0.426V58.588z"/>
	<path d="M54.634,57.731c-0.192,0-0.343,0.072-0.453,0.215l-0.016-0.186h-0.463v1.585h0.494v-1.119
		c0.047-0.076,0.119-0.114,0.215-0.114c0.085,0,0.144,0.019,0.176,0.057s0.048,0.096,0.048,0.176v1h0.495v-1.021
		c-0.003-0.198-0.045-0.347-0.126-0.445C54.922,57.781,54.799,57.731,54.634,57.731z"/>
	<path d="M56.723,58.285c-0.003-0.172-0.063-0.307-0.18-0.406s-0.277-0.148-0.479-0.148s-0.369,0.048-0.499,0.144
		c-0.131,0.095-0.196,0.22-0.196,0.373h0.494c0-0.116,0.059-0.174,0.176-0.174c0.126,0,0.189,0.073,0.189,0.219v0.084h-0.152
		c-0.242,0-0.427,0.044-0.554,0.132s-0.19,0.218-0.19,0.39c0,0.137,0.052,0.25,0.157,0.34c0.104,0.091,0.231,0.136,0.381,0.136
		c0.163,0,0.29-0.057,0.381-0.171c0.014,0.062,0.029,0.11,0.047,0.142h0.494v-0.025c-0.043-0.077-0.065-0.188-0.067-0.334V58.285z
		 M56.228,58.895c-0.018,0.033-0.047,0.063-0.087,0.089s-0.091,0.04-0.153,0.04c-0.047,0-0.085-0.014-0.116-0.042
		c-0.03-0.027-0.045-0.064-0.045-0.109c0-0.154,0.086-0.231,0.258-0.231h0.144V58.895z"/>
	<rect x="57.022" y="57.096" width="0.495" height="2.25"/>
	<polygon points="43.661,62.713 41.878,62.713 41.878,63.11 42.507,63.11 42.507,64.846 43.021,64.846 43.021,63.11 43.661,63.11 	
		"/>
	<path d="M44.251,63.231c-0.155,0-0.291,0.033-0.406,0.1s-0.204,0.162-0.265,0.285s-0.092,0.264-0.092,0.422l0.001,0.083
		c0.011,0.231,0.084,0.415,0.221,0.55c0.137,0.136,0.318,0.203,0.543,0.203c0.234,0,0.42-0.072,0.557-0.218
		c0.137-0.145,0.206-0.341,0.206-0.588v-0.018c0-0.253-0.068-0.453-0.205-0.6S44.489,63.231,44.251,63.231z M44.524,64.088
		c-0.004,0.271-0.094,0.406-0.27,0.406c-0.09,0-0.158-0.034-0.204-0.103s-0.069-0.176-0.069-0.322l0.001-0.089
		c0.014-0.245,0.103-0.368,0.268-0.368c0.182,0,0.272,0.142,0.272,0.426V64.088z"/>
	<path d="M45.936,63.231c-0.155,0-0.291,0.033-0.406,0.1s-0.204,0.162-0.265,0.285s-0.092,0.264-0.092,0.422l0.001,0.083
		c0.011,0.231,0.084,0.415,0.221,0.55c0.137,0.136,0.318,0.203,0.543,0.203c0.234,0,0.42-0.072,0.557-0.218
		c0.137-0.145,0.206-0.341,0.206-0.588v-0.018c0-0.253-0.068-0.453-0.205-0.6S46.173,63.231,45.936,63.231z M46.208,64.088
		c-0.004,0.271-0.094,0.406-0.27,0.406c-0.09,0-0.158-0.034-0.204-0.103s-0.069-0.176-0.069-0.322l0.001-0.089
		c0.014-0.245,0.103-0.368,0.268-0.368c0.182,0,0.272,0.142,0.272,0.426V64.088z"/>
	<rect x="46.945" y="62.596" width="0.495" height="2.25"/>
	<path d="M48.357,63.557c0.134,0,0.201,0.063,0.201,0.19h0.495c0-0.154-0.063-0.279-0.19-0.374s-0.295-0.142-0.504-0.142
		c-0.194,0-0.352,0.047-0.472,0.142s-0.18,0.214-0.18,0.359c0,0.082,0.021,0.155,0.063,0.218s0.103,0.118,0.183,0.162
		c0.08,0.045,0.182,0.081,0.305,0.108s0.207,0.054,0.25,0.079s0.066,0.059,0.066,0.101c0,0.044-0.017,0.08-0.05,0.107
		c-0.034,0.027-0.084,0.041-0.152,0.041c-0.073,0-0.133-0.017-0.18-0.05c-0.047-0.034-0.071-0.087-0.073-0.161h-0.461
		c0,0.093,0.03,0.181,0.089,0.265s0.143,0.15,0.249,0.199s0.228,0.073,0.363,0.073c0.204,0,0.37-0.045,0.499-0.136
		c0.128-0.091,0.192-0.208,0.192-0.353c0-0.212-0.119-0.359-0.357-0.441c-0.071-0.024-0.154-0.045-0.248-0.063
		c-0.095-0.018-0.163-0.04-0.206-0.067s-0.064-0.063-0.064-0.107c0-0.043,0.018-0.079,0.053-0.108
		C48.262,63.571,48.306,63.557,48.357,63.557z"/>
</g>
</svg>
