<svg version="1.1" xmlns="http://www.w3.org/2000/svg" xmlns:xlink="http://www.w3.org/1999/xlink" x="0px" y="0px" viewBox="0 0 300 143.119">
<path clip-path="url(#educate_clipPath1)" class="draw" fill="none" stroke="#212121" stroke-miterlimit="10" stroke-width="1" d="M48.058,7.525c0,0-18.622,14.078-12.858,26.16s22.28,13.191,33.919,13.634c11.639,0.443,17.736-1.219,21.283,0
	c3.547,1.219,8.424,7.981,17.846,11.75c9.422,3.769,15.74,1.774,15.74,1.774"/>
<clipPath id="educate_clipPath1">
	<path fill="none" d="M48.088,7.564c-2.094,1.664-4.048,3.507-5.868,5.465c-1.817,1.961-3.486,4.065-4.874,6.343
	c-1.382,2.272-2.474,4.754-2.889,7.371c-0.385,2.606,0.009,5.345,1.401,7.602c0.349,0.56,0.602,1.182,1.029,1.69
	c0.404,0.522,0.793,1.057,1.208,1.568l1.393,1.407c0.478,0.454,1.025,0.833,1.533,1.253c2.125,1.574,4.529,2.746,7.026,3.636
	c5.033,1.723,10.371,2.413,15.692,2.743c5.339,0.327,10.68,0.42,16.012,0.068c2.672-0.121,5.329-0.412,8.081-0.316
	c0.687,0.028,1.386,0.113,2.081,0.27c0.694,0.162,1.389,0.471,1.982,0.835c1.202,0.731,2.229,1.61,3.267,2.463
	c2.045,1.738,4.067,3.466,6.264,4.959c2.184,1.507,4.513,2.796,6.958,3.826c2.45,1.02,5.02,1.758,7.648,2.165
	c2.62,0.377,5.338,0.483,7.94-0.119l0.03,0.095c-2.605,0.725-5.349,0.739-8.03,0.475c-2.682-0.328-5.32-1.006-7.847-1.97
	c-5.088-1.919-9.52-5.224-13.602-8.664c-1.028-0.847-2.05-1.715-3.141-2.376c-1.063-0.681-2.287-0.916-3.601-0.967
	c-2.609-0.095-5.299,0.19-7.977,0.311c-5.372,0.291-10.766,0.134-16.119-0.259c-5.352-0.383-10.746-1.126-15.856-2.929
	c-2.537-0.931-4.987-2.152-7.155-3.79c-0.52-0.437-1.076-0.832-1.564-1.303l-1.421-1.462c-0.424-0.53-0.819-1.085-1.229-1.626
	c-0.432-0.528-0.69-1.169-1.042-1.748c-1.409-2.347-1.791-5.234-1.356-7.902c0.461-2.685,1.605-5.188,3.028-7.466
	c1.431-2.283,3.136-4.377,4.984-6.322c1.852-1.943,3.831-3.764,5.954-5.408L48.088,7.564z"/>
</clipPath>
</svg>
