<svg version="1.1" xmlns="http://www.w3.org/2000/svg" xmlns:xlink="http://www.w3.org/1999/xlink" x="0px" y="0px" viewBox="0 0 300 143.119">
<path clip-path="url(#educate_clipPath2)" class="draw" fill="none" stroke="#212121" stroke-miterlimit="10" stroke-width="1" d="M56.483,22.378c0,0-9.976,8.646-8.979,18.622s13.412,13.302,19.177,13.967s17.07-0.665,25.495-2.882
	c8.424-2.217,8.217,0.568,11.251,3.062c3.034,2.494,5.861,3.949,12.096,5.196s8.106,0.499,8.106,0.499"/>
<clipPath id="educate_clipPath2">
	<path fill="none" d="M56.515,22.416c-1.631,1.508-3.092,3.202-4.387,5.005c-1.291,1.805-2.407,3.742-3.213,5.803
	c-0.804,2.057-1.286,4.249-1.257,6.447c0.01,2.194,0.583,4.384,1.768,6.225c1.165,1.853,2.834,3.351,4.681,4.529
	c1.854,1.181,3.892,2.067,5.99,2.744c2.1,0.674,4.269,1.147,6.453,1.414c2.179,0.239,4.401,0.188,6.61,0.069
	c4.423-0.274,8.83-0.902,13.179-1.763c2.187-0.412,4.317-0.929,6.495-1.476c1.093-0.278,2.217-0.476,3.364-0.589
	c1.138-0.102,2.373-0.072,3.522,0.432c1.169,0.499,1.952,1.468,2.686,2.261c0.725,0.819,1.535,1.506,2.419,2.176
	c1.738,1.331,3.699,2.317,5.78,3.039c2.081,0.717,4.249,1.233,6.424,1.655c1.087,0.215,2.183,0.393,3.286,0.493
	c1.095,0.085,2.231,0.168,3.294-0.085l0.037,0.093c-1.098,0.324-2.232,0.295-3.349,0.27c-1.121-0.042-2.236-0.163-3.344-0.321
	c-2.213-0.342-4.408-0.785-6.567-1.442c-2.16-0.646-4.239-1.67-6.074-3.007c-0.907-0.654-1.816-1.397-2.587-2.234
	c-0.777-0.815-1.482-1.619-2.405-1.98c-0.902-0.403-1.976-0.452-3.042-0.354c-1.069,0.105-2.146,0.291-3.212,0.562
	c-2.144,0.537-4.346,1.07-6.539,1.48c-4.403,0.806-8.848,1.376-13.324,1.59c-2.237,0.095-4.488,0.124-6.739-0.148
	c-2.235-0.299-4.433-0.805-6.568-1.516c-2.131-0.715-4.205-1.642-6.098-2.879c-1.886-1.233-3.601-2.803-4.794-4.748
	c-1.208-1.936-1.769-4.235-1.744-6.486c0.004-2.26,0.532-4.488,1.378-6.561c0.848-2.077,2.004-4.013,3.33-5.81
	c1.331-1.795,2.82-3.47,4.484-4.963L56.515,22.416z"/>
</clipPath>
</svg>
