<?xml version="1.0" encoding="utf-8"?>
<!-- Generator: Adobe Illustrator 24.2.3, SVG Export Plug-In . SVG Version: 6.00 Build 0)  -->
<svg version="1.1" id="Layer_1" xmlns="http://www.w3.org/2000/svg" xmlns:xlink="http://www.w3.org/1999/xlink" x="0px" y="0px"
	 viewBox="0 0 630 150" style="enable-background:new 0 0 630 150;" xml:space="preserve">
<style type="text/css">
	.st0{opacity:0.4;}
	.st1{fill:#310E3F;}
	.st2{fill:#E0BDAE;}
	.st3{fill:#91ABB1;}
	.st4{fill:#8A3E6E;}
	.st5{fill:#FCF065;}
	.st6{fill:#EB519B;}
	.st7{fill:#FFFFFF;}
	.st8{fill:#A9DFF6;}
	.st9{fill:#2F141A;}
	.st10{fill:#D28ABB;}
	.st11{fill:#50B748;}
	.st12{fill:#CBAC94;}
	.st13{fill:#443E39;}
	.st14{fill:#E4A2AC;}
	.st15{fill:#E5B829;}
	.st16{opacity:0.25;}
	.st17{fill:#0B8266;}
</style>
<g>
	<path d="M150.511,58.794l-0.014-0.013c-1.018-0.898-2.167-1.592-3.413-2.066c-2.493-0.943-5.084-0.943-7.577,0
		c-1.249,0.473-2.379,1.17-3.361,2.072c-1.024,0.946-1.855,2.143-2.467,3.558c-0.612,1.412-0.922,3.056-0.922,4.885v23.284
		c0,1.913,0.312,3.579,0.925,4.952c0.614,1.374,1.447,2.53,2.459,3.422c0.982,0.947,2.116,1.667,3.368,2.141
		c1.244,0.47,2.52,0.71,3.788,0.71s2.544-0.239,3.789-0.71c1.249-0.473,2.399-1.191,3.42-2.133c0.986-0.906,1.796-2.059,2.408-3.43
		c0.613-1.373,0.925-3.04,0.925-4.952V67.23c0-1.829-0.311-3.473-0.922-4.885C152.302,60.936,151.494,59.741,150.511,58.794z
		 M146.914,67.231v23.284c0,1.387-0.357,2.409-1.06,3.039c-0.727,0.652-1.564,0.969-2.56,0.969s-1.832-0.317-2.56-0.97
		c-0.703-0.628-1.059-1.65-1.059-3.038V67.231c0-1.387,0.357-2.409,1.059-3.038c0.728-0.652,1.564-0.969,2.56-0.969
		s1.832,0.317,2.56,0.968C146.558,64.824,146.914,65.846,146.914,67.231z"/>
	<polygon points="153.621,63.225 160.583,63.225 160.583,101.37 167.504,101.37 167.504,63.225 174.466,63.225 174.466,56.377 
		153.621,56.377 	"/>
	<rect x="175.492" y="56.377" width="6.92" height="44.992"/>
	<path d="M200.628,56.915c-1.294-0.603-2.737-0.909-4.291-0.909c-1.831,0-3.438,0.339-4.774,1.008
		c-1.335,0.669-2.449,1.577-3.304,2.691c-0.901,1.115-1.584,2.46-2.03,3.996c-0.443,1.519-0.667,3.145-0.667,4.833
		c0,2.821,0.461,5.211,1.372,7.1c0.929,1.929,2.763,3.493,5.449,4.645l4.303,1.856c0.724,0.32,1.309,0.623,1.74,0.897
		c0.393,0.25,0.711,0.577,0.933,0.942c0.208,0.402,0.352,0.953,0.425,1.636c0.076,0.727,0.116,1.669,0.116,2.802
		c0,0.967-0.029,1.862-0.087,2.66c-0.054,0.737-0.225,1.373-0.507,1.892c-0.273,0.504-0.648,0.881-1.144,1.15
		c-0.505,0.272-1.236,0.409-2.175,0.409c-1.39,0-2.34-0.394-2.904-1.2c-0.601-0.86-0.892-1.798-0.892-2.868v-2.434h-6.92v2.805
		c0,1.542,0.28,2.986,0.832,4.293c0.55,1.304,1.304,2.466,2.241,3.449c0.946,0.992,2.088,1.778,3.396,2.333
		c1.308,0.558,2.737,0.841,4.248,0.841c1.986,0,3.702-0.35,5.097-1.037c1.398-0.691,2.546-1.656,3.413-2.87
		c0.817-1.155,1.416-2.576,1.783-4.218c0.36-1.618,0.542-3.391,0.542-5.269c0-1.608-0.08-3.075-0.24-4.361
		c-0.164-1.298-0.471-2.475-0.929-3.518c-0.496-0.998-1.187-1.889-2.054-2.647c-0.86-0.753-1.994-1.414-3.368-1.965l-4.601-1.919
		c-0.75-0.314-1.344-0.63-1.767-0.94c-0.394-0.286-0.696-0.63-0.897-1.019c-0.209-0.404-0.342-0.869-0.395-1.387
		c-0.057-0.563-0.087-1.277-0.087-2.122c0-0.715,0.057-1.409,0.171-2.06c0.107-0.625,0.307-1.19,0.583-1.661
		c0.282-0.444,0.643-0.803,1.105-1.102c0.433-0.281,1.027-0.423,1.759-0.423c1.379,0,2.325,0.446,2.89,1.365
		c0.602,0.975,0.908,2.156,0.908,3.509v1.876h6.92v-3.548c0-2.662-0.953-5.057-2.839-7.123
		C203.04,58.318,201.912,57.515,200.628,56.915z"/>
	<path d="M135.286,108.994c-0.601,0.633-0.9,1.537-0.9,2.715v1.395h-1.905v1.043h1.905v10.477h1.278v-10.477h2.748v-1.043h-2.748
		v-1.431c0-0.804,0.196-1.426,0.586-1.863c0.39-0.438,0.936-0.656,1.639-0.656c0.418,0,0.805,0.042,1.16,0.128l0.096-1.056
		c-0.42-0.119-0.871-0.179-1.352-0.179C136.722,108.046,135.886,108.362,135.286,108.994z"/>
	<path d="M144.575,112.891c-0.994,0-1.883,0.247-2.667,0.739c-0.786,0.493-1.391,1.183-1.821,2.072
		c-0.431,0.887-0.644,1.884-0.644,2.993v0.255c0,1.775,0.478,3.2,1.433,4.275c0.954,1.076,2.195,1.614,3.722,1.614
		c1.001,0,1.891-0.241,2.672-0.724c0.782-0.483,1.386-1.169,1.815-2.06s0.643-1.894,0.643-3.008v-0.266
		c0-1.774-0.476-3.2-1.427-4.275C147.351,113.43,146.108,112.891,144.575,112.891z M148.461,118.94c0,1.447-0.357,2.614-1.07,3.498
		c-0.714,0.884-1.645,1.326-2.796,1.326c-1.158,0-2.092-0.443-2.805-1.326c-0.713-0.883-1.07-2.014-1.07-3.391v-0.233
		c0-1.441,0.359-2.607,1.076-3.498c0.717-0.892,1.643-1.336,2.779-1.336c0.759,0,1.433,0.201,2.024,0.602
		c0.59,0.401,1.048,0.967,1.374,1.698c0.327,0.731,0.49,1.537,0.49,2.417L148.461,118.94L148.461,118.94L148.461,118.94z"/>
	<path d="M153.081,114.936l-0.022-1.831h-1.247v11.52h1.268v-7.912c0.233-0.845,0.626-1.489,1.176-1.932
		c0.55-0.444,1.222-0.666,2.018-0.666c0.305,0,0.592,0.025,0.862,0.074l0.032-1.16c-0.205-0.091-0.486-0.138-0.841-0.138
		C154.837,112.891,153.756,113.572,153.081,114.936z"/>
	<path d="M167.589,112.891c-0.894,0-1.725,0.253-2.491,0.762c-0.767,0.507-1.365,1.206-1.795,2.092s-0.644,1.885-0.644,2.993v0.458
		c0,1.072,0.219,2.039,0.66,2.901c0.441,0.864,1.057,1.535,1.848,2.018c0.792,0.483,1.677,0.724,2.658,0.724
		c1.782,0,3.14-0.678,4.078-2.034l-0.798-0.607c-0.425,0.546-0.9,0.943-1.423,1.193c-0.523,0.248-1.123,0.373-1.803,0.373
		c-1.137,0-2.078-0.435-2.828-1.304s-1.123-1.958-1.123-3.263v-0.245h8.22v-0.714c0-1.653-0.409-2.959-1.23-3.914
		C170.098,113.369,168.988,112.891,167.589,112.891z M170.879,117.863h-6.91c0.142-1.186,0.541-2.13,1.199-2.833
		c0.656-0.702,1.464-1.055,2.422-1.055c0.966,0,1.747,0.347,2.344,1.043c0.596,0.696,0.913,1.597,0.947,2.705v0.138L170.879,117.863
		z"/>
	<path d="M181.58,114.733c-0.816-1.228-2.001-1.842-3.556-1.842c-1.37,0-2.455,0.531-3.254,1.591
		c-0.799,1.062-1.199,2.487-1.199,4.275v0.15c0,1.818,0.407,3.26,1.219,4.329s1.883,1.603,3.21,1.603
		c1.582,0,2.783-0.582,3.599-1.747l0.054,1.533h1.193v-16.354h-1.268v6.462H181.58L181.58,114.733L181.58,114.733z M181.58,121.655
		c-0.66,1.384-1.774,2.076-3.344,2.076c-1.071,0-1.902-0.425-2.491-1.273c-0.588-0.848-0.884-2.007-0.884-3.477
		c0-1.639,0.298-2.88,0.894-3.723c0.596-0.841,1.431-1.262,2.502-1.262c1.556,0,2.662,0.75,3.322,2.247v5.409h0.001L181.58,121.655
		L181.58,121.655z"/>
	<path d="M193.046,121.442c-0.49,1.526-1.657,2.29-3.502,2.29c-1.775,0-2.662-1.097-2.662-3.29v-7.336h-1.268v7.497
		c0.014,1.398,0.341,2.455,0.978,3.167c0.64,0.715,1.572,1.071,2.8,1.071c1.683,0,2.907-0.558,3.673-1.672l0.022,1.459h1.236
		v-11.524h-1.278v8.338L193.046,121.442L193.046,121.442L193.046,121.442z"/>
	<path d="M198.661,115.223c0.636-0.831,1.528-1.246,2.678-1.246c0.901,0,1.649,0.277,2.242,0.831s0.918,1.282,0.975,2.183h1.225
		c-0.057-1.228-0.495-2.219-1.314-2.97c-0.82-0.753-1.863-1.128-3.125-1.128c-0.994,0-1.862,0.238-2.604,0.714
		c-0.742,0.477-1.311,1.151-1.708,2.024c-0.397,0.873-0.596,1.878-0.596,3.013v0.383c0,1.775,0.442,3.188,1.326,4.238
		c0.884,1.051,2.081,1.577,3.593,1.577c0.767,0,1.485-0.164,2.157-0.49c0.672-0.327,1.208-0.778,1.614-1.357
		c0.405-0.578,0.625-1.219,0.66-1.922h-1.225c-0.049,0.796-0.375,1.444-0.975,1.944s-1.343,0.751-2.231,0.751
		c-1.157,0-2.053-0.412-2.688-1.236c-0.635-0.824-0.953-1.97-0.953-3.439v-0.373C197.708,117.218,198.026,116.054,198.661,115.223z"
		/>
	<path d="M216.063,116.544c-0.022-1.151-0.403-2.046-1.145-2.688c-0.742-0.642-1.754-0.963-3.041-0.963
		c-1.242,0-2.289,0.335-3.14,1.007c-0.851,0.67-1.277,1.464-1.277,2.38l1.277,0.011c0-0.639,0.292-1.186,0.874-1.639
		c0.581-0.455,1.317-0.682,2.205-0.682c0.973,0,1.712,0.236,2.219,0.708c0.507,0.472,0.76,1.12,0.76,1.944v1.31h-2.311
		c-1.667,0-2.969,0.327-3.902,0.98s-1.399,1.541-1.399,2.662c0,0.943,0.342,1.725,1.027,2.344c0.685,0.616,1.581,0.927,2.688,0.927
		c0.773,0,1.508-0.159,2.199-0.474c0.693-0.315,1.262-0.766,1.708-1.347c0.035,0.71,0.117,1.246,0.246,1.608h1.363v-0.128
		c-0.233-0.554-0.35-1.387-0.35-2.502v-5.454l0,0L216.063,116.544L216.063,116.544z M214.795,121.442
		c-0.305,0.688-0.793,1.239-1.464,1.651c-0.67,0.412-1.433,0.617-2.284,0.617c-0.767,0-1.389-0.213-1.869-0.639
		c-0.478-0.425-0.718-0.962-0.718-1.608c0-0.789,0.359-1.407,1.076-1.858c0.717-0.451,1.71-0.683,2.981-0.697h2.279L214.795,121.442
		L214.795,121.442z"/>
	<path d="M222.397,123.731c-0.539,0-0.926-0.157-1.155-0.47c-0.232-0.313-0.347-0.789-0.347-1.428v-7.686h2.386v-1.043h-2.386
		v-2.949h-1.277v2.949H217.5v1.043h2.119v7.688c0,0.987,0.199,1.734,0.596,2.242c0.396,0.507,1.032,0.762,1.905,0.762
		c0.575,0,1.029-0.061,1.363-0.179l-0.054-1.035C222.954,123.696,222.61,123.731,222.397,123.731z"/>
	<path d="M229.594,112.891c-0.994,0-1.883,0.247-2.667,0.739c-0.786,0.493-1.391,1.183-1.821,2.072
		c-0.431,0.887-0.644,1.884-0.644,2.993v0.255c0,1.775,0.478,3.2,1.433,4.275c0.954,1.076,2.195,1.614,3.722,1.614
		c1.001,0,1.891-0.241,2.672-0.724c0.782-0.483,1.386-1.169,1.816-2.06c0.429-0.891,0.643-1.894,0.643-3.008v-0.266
		c0-1.774-0.476-3.2-1.427-4.275C232.37,113.43,231.126,112.891,229.594,112.891z M233.48,118.94c0,1.447-0.357,2.614-1.07,3.498
		c-0.714,0.884-1.645,1.326-2.796,1.326c-1.158,0-2.092-0.443-2.805-1.326c-0.713-0.883-1.07-2.014-1.07-3.391v-0.233
		c0-1.441,0.359-2.607,1.076-3.498c0.717-0.892,1.643-1.336,2.779-1.336c0.759,0,1.433,0.201,2.024,0.602
		c0.59,0.401,1.048,0.967,1.374,1.698c0.327,0.731,0.49,1.537,0.49,2.417L233.48,118.94L233.48,118.94L233.48,118.94z"/>
	<path d="M238.098,114.936l-0.022-1.831h-1.247v11.52h1.268v-7.912c0.233-0.845,0.626-1.489,1.176-1.932s1.222-0.666,2.018-0.666
		c0.305,0,0.592,0.025,0.862,0.074l0.032-1.16c-0.205-0.091-0.486-0.138-0.841-0.138
		C239.855,112.891,238.773,113.572,238.098,114.936z"/>
	<path d="M250.156,119.035c-0.558-0.298-1.394-0.578-2.512-0.841c-1.118-0.262-1.889-0.552-2.311-0.867
		c-0.422-0.316-0.634-0.762-0.634-1.336c0-0.596,0.253-1.082,0.762-1.454c0.507-0.373,1.18-0.559,2.018-0.559
		c0.859,0,1.571,0.224,2.135,0.67c0.565,0.448,0.845,1.008,0.845,1.683h1.278c0-1.023-0.388-1.851-1.166-2.487
		c-0.777-0.635-1.808-0.953-3.092-0.953c-1.186,0-2.159,0.296-2.918,0.889s-1.139,1.343-1.139,2.252
		c0,0.574,0.136,1.065,0.411,1.469c0.273,0.405,0.691,0.748,1.255,1.027c0.565,0.281,1.358,0.529,2.381,0.746s1.787,0.517,2.296,0.9
		c0.507,0.383,0.76,0.891,0.76,1.523c0,0.596-0.273,1.09-0.819,1.479c-0.547,0.39-1.264,0.587-2.151,0.587
		c-0.951,0-1.717-0.207-2.296-0.623c-0.578-0.415-0.893-0.995-0.942-1.74h-1.278c0,0.994,0.417,1.815,1.252,2.464
		c0.835,0.65,1.922,0.975,3.263,0.975c1.263,0,2.287-0.292,3.072-0.874c0.784-0.582,1.177-1.359,1.177-2.332
		c0-0.596-0.135-1.104-0.404-1.523C251.127,119.692,250.713,119.333,250.156,119.035z"/>
	<path d="M255.606,123.258c-0.159-0.168-0.375-0.252-0.645-0.252s-0.482,0.084-0.639,0.252c-0.157,0.168-0.234,0.374-0.234,0.615
		c0,0.237,0.077,0.434,0.234,0.595c0.156,0.161,0.368,0.241,0.639,0.241c0.271,0,0.485-0.08,0.645-0.241
		c0.159-0.161,0.24-0.359,0.24-0.595C255.845,123.632,255.765,123.427,255.606,123.258z"/>
	<polygon points="255.483,120.301 255.558,109.121 254.238,109.121 254.302,120.301 	"/>
	<polygon points="257.925,108.346 259.483,108.346 259.483,112.519 260.108,112.519 260.108,108.346 261.672,108.346 
		261.672,107.789 257.925,107.789 	"/>
	<path d="M264.669,111.08c-0.114,0.333-0.198,0.586-0.252,0.758c-0.048-0.155-0.123-0.388-0.226-0.701l-1.12-3.349h-0.942v4.729
		h0.603v-4.026l1.368,4.026h0.565l1.374-3.958v3.958h0.602v-4.729H265.8L264.669,111.08z"/>
	<g>
		<g class="st0">
			<path class="st1" d="M107.545,122.469c0-1.867-21.494-3.38-48.007-3.38s-48.007,1.513-48.007,3.38
				c0,1.112,7.626,2.098,19.396,2.714c-0.195,0.103-0.301,0.209-0.301,0.318c0,0.845,6.156,1.529,13.75,1.529
				c6.526,0,11.986-0.506,13.394-1.184c0.588,0.002,1.176,0.003,1.769,0.003c1.763,0,3.503-0.007,5.217-0.02
				c1.349,0.686,6.848,1.202,13.429,1.202c7.594,0,13.75-0.685,13.75-1.529c0-0.172-0.26-0.337-0.732-0.492
				C101.221,124.39,107.545,123.482,107.545,122.469z"/>
		</g>
		<g>
			<path class="st2" d="M98.01,60.742c0.81,0.352,1.553,0.952,2.435,0.985c0.098,0.004,0.191,0.004,0.281,0.002
				c2.163-0.054,2.046-1.766,3.211-3.111c0.39-0.45,0.905-0.776,1.441-1.036c3.861-1.869,10.101,0.236,9.731,5.148
				c-0.122,1.626-0.838,3.15-1.676,4.548c-2.219,3.699-5.958,5.236-8.711,8.382c-0.651,0.744-1.387,1.405-2.125,2.06
				c-0.773,0.686-1.241,1.306-1.801,2.173c-1.365,2.12-2.973,4.121-4.364,6.245c-1.282,1.957-2.515,3.945-3.7,5.962
				c-0.474,0.809-1.599,3.536-2.916,3.152c-1.473-0.429-0.923-4.712-1.541-5.841c-1.128-2.061-2.099-3.186-1.856-5.716
				c0.135-1.398,0.782-2.529,1.623-3.598c0.531-0.675,0.962-1.46,1.435-2.177c0.269-0.409,1.292-1.491,1.292-1.961
				c0.669-1.016,1.279-2.136,2.089-3.043c0.978-1.093,1.809-2.334,2.631-3.56c0.404-0.603,0.797-1.24,0.91-1.956
				c0.16-1.022-0.329-1.786-0.569-2.727C95.415,63.047,95.293,59.561,98.01,60.742z"/>
		</g>
		<g>
			<path d="M90.346,96.023c0.559-0.914,1.104-1.838,1.641-2.765c0.542-0.924,1.074-1.853,1.604-2.785
				c1.061-1.862,2.104-3.738,3.222-5.576c1.122-1.834,2.311-3.639,3.637-5.351c1.327-1.71,2.786-3.327,4.384-4.801
				c0.797-0.739,1.626-1.443,2.486-2.108c0.837-0.656,1.652-1.324,2.425-2.036c0.772-0.71,1.501-1.461,2.15-2.263
				c0.331-0.396,0.623-0.815,0.903-1.238c0.265-0.431,0.512-0.869,0.705-1.325c0.385-0.912,0.591-1.874,0.539-2.843
				c-0.044-0.97-0.325-1.934-0.706-2.886c-0.191-0.476-0.409-0.949-0.639-1.423c-0.231-0.473-0.471-0.959-0.71-1.426
				c-0.24-0.47-0.485-0.93-0.75-1.356c-0.264-0.424-0.552-0.815-0.869-1.08c-0.318-0.268-0.645-0.398-1.052-0.412
				c-0.405-0.013-0.869,0.086-1.333,0.236c-0.117,0.041-0.233,0.077-0.35,0.124l-0.174,0.067c-0.052,0.023-0.106,0.042-0.155,0.067
				c-0.203,0.093-0.393,0.203-0.565,0.331c-0.344,0.257-0.623,0.599-0.854,1.008c-0.46,0.824-0.742,1.842-1.011,2.858
				c-0.07,0.268-0.122,0.477-0.161,0.724c-0.038,0.241-0.066,0.49-0.087,0.747c-0.048,0.516-0.045,1.049-0.167,1.675
				c-0.067,0.309-0.168,0.677-0.461,1.022c-0.145,0.168-0.336,0.31-0.533,0.4c-0.197,0.089-0.394,0.138-0.574,0.159
				c-0.363,0.042-0.682,0.008-0.981-0.04c-0.15-0.025-0.296-0.054-0.437-0.089l-0.214-0.054c-0.09-0.025-0.177-0.054-0.257-0.087
				c-0.323-0.13-0.582-0.296-0.824-0.463c-0.241-0.168-0.461-0.345-0.674-0.519c-0.425-0.35-0.823-0.702-1.224-1.008
				c-0.395-0.304-0.819-0.578-1.165-0.654c-0.172-0.038-0.293-0.027-0.408,0.025c-0.116,0.051-0.247,0.168-0.366,0.333
				c-0.121,0.165-0.224,0.374-0.302,0.565c-0.073,0.197-0.112,0.397-0.122,0.604c-0.024,0.413,0.106,0.864,0.284,1.337
				c0.18,0.474,0.413,0.97,0.593,1.523c0.089,0.277,0.167,0.566,0.211,0.87c0.043,0.304,0.054,0.619,0.027,0.932
				c-0.065,0.628-0.29,1.224-0.603,1.727c-0.078,0.126-0.155,0.253-0.244,0.369c-0.087,0.121-0.172,0.237-0.249,0.338
				c-0.159,0.212-0.32,0.419-0.477,0.636c-1.265,1.717-2.513,3.463-3.76,5.205l-3.753,5.225c-0.628,0.869-1.261,1.737-1.907,2.594
				c-0.649,0.858-1.288,1.717-1.989,2.548l-0.398-0.329c0.653-0.831,1.265-1.713,1.88-2.587l1.828-2.641l3.622-5.311
				c1.209-1.771,2.402-3.549,3.65-5.306c0.154-0.219,0.318-0.439,0.477-0.658c0.085-0.113,0.154-0.214,0.222-0.313
				c0.073-0.099,0.133-0.203,0.194-0.305c0.246-0.412,0.393-0.848,0.433-1.288c0.032-0.442-0.049-0.893-0.213-1.357
				c-0.158-0.464-0.39-0.938-0.6-1.461c-0.204-0.522-0.407-1.119-0.388-1.783c0.008-0.328,0.069-0.66,0.178-0.968
				c0.119-0.307,0.252-0.583,0.444-0.854c0.191-0.268,0.45-0.545,0.823-0.722c0.184-0.087,0.39-0.142,0.591-0.158
				c0.201-0.016,0.396,0.003,0.572,0.041c0.356,0.077,0.649,0.219,0.914,0.369c0.265,0.152,0.504,0.319,0.73,0.489
				c0.452,0.34,0.861,0.696,1.268,1.023c0.4,0.322,0.818,0.637,1.178,0.777c0.044,0.018,0.085,0.03,0.123,0.041l0.176,0.041
				c0.119,0.027,0.236,0.048,0.351,0.066c0.229,0.035,0.45,0.045,0.62,0.022c0.085-0.011,0.15-0.033,0.197-0.056
				c0.046-0.024,0.073-0.046,0.103-0.082c0.058-0.066,0.125-0.228,0.163-0.441c0.077-0.428,0.086-0.974,0.128-1.524
				c0.021-0.278,0.048-0.562,0.092-0.851c0.041-0.284,0.115-0.596,0.18-0.847c0.134-0.527,0.275-1.057,0.448-1.591
				c0.175-0.533,0.379-1.072,0.672-1.6c0.292-0.526,0.693-1.04,1.208-1.43c0.255-0.195,0.532-0.356,0.815-0.488
				c0.07-0.034,0.142-0.062,0.213-0.093l0.201-0.078c0.132-0.054,0.27-0.1,0.406-0.148c0.55-0.182,1.148-0.333,1.818-0.311
				c0.333,0.011,0.682,0.076,1.008,0.206c0.328,0.128,0.623,0.317,0.874,0.53c0.504,0.429,0.845,0.924,1.148,1.406
				c0.301,0.486,0.556,0.973,0.804,1.458c0.248,0.488,0.482,0.962,0.721,1.453c0.236,0.49,0.467,0.992,0.674,1.51
				c0.417,1.033,0.735,2.16,0.777,3.338c0.052,1.178-0.219,2.361-0.682,3.414c-0.231,0.529-0.517,1.024-0.82,1.501
				c-0.315,0.467-0.643,0.925-1.006,1.347c-0.716,0.854-1.506,1.623-2.325,2.347c-0.82,0.722-1.68,1.395-2.544,2.042
				c-0.848,0.631-1.665,1.301-2.462,1.997c-3.194,2.78-5.823,6.161-8.176,9.722c-1.182,1.781-2.322,3.596-3.468,5.408
				c-0.574,0.906-1.15,1.811-1.737,2.709C91.564,94.257,90.96,95.145,90.346,96.023z"/>
		</g>
		<g>
			<path class="st2" d="M30.235,118.418c-0.421,0.668-0.773,1.379-1.187,2.043c-0.314,0.502-0.366,1.04-0.881,1.409
				c-0.992,0.71-1.561,0.474-2.683,0.232c-1.063-0.231-2.108-0.542-3.134-0.9c-1.061-0.371-2.227-0.011-3.317,0.15
				c-1.016,0.149-1.994,0.718-2.988,0.981c-1.512,0.399-3.052,0.224-4.516-0.279c-0.967-0.331-3.83-2.737-1.839-3.669
				c0.896-0.419,1.896-0.762,2.822-1.133c0.841-0.336,1.728-0.763,2.568-1.176c0.799-0.395,1.688-0.543,2.37-1.148
				c0.659-0.585,1.391-0.942,2.161-1.386c1.014-0.585,1.997-1.222,2.944-1.911c0.501-0.364,1.057-0.662,1.543-1.043
				c0.391-0.306,0.63-0.693,0.957-1.072c0.939-1.089,1.925-2.161,2.853-3.239c1.006-1.169,1.658-2.98,2.219-4.399
				c0.674-1.707,1.368-3.465,1.6-5.296c0.192-1.524,0.211-3.108,0.723-4.571c0.382-1.092,1.959-2.197,3.148-1.929
				c0.964,0.217,1.863,1.081,2.864,1.39c2.462,0.76,3.382,2.76,3.654,5.155c0.307,2.708-1.08,4.702-2.303,6.996
				c-1.586,2.976-2.399,6.321-4.179,9.197c-0.703,1.137-1.584,2.182-2.661,2.981C31.885,116.608,30.979,117.237,30.235,118.418z"/>
		</g>
		<g>
			<path d="M32.048,88.356c0.164,1.055,0.276,2.121,0.308,3.192c0.028,1.071-0.005,2.146-0.106,3.216
				c-0.197,2.141-0.654,4.269-1.404,6.301c-0.371,1.017-0.807,2.011-1.304,2.975c-0.499,0.963-1.068,1.891-1.688,2.784
				c-1.242,1.783-2.691,3.421-4.319,4.868c-1.636,1.448-3.471,2.669-5.411,3.658c-1.937,0.997-3.997,1.731-5.99,2.446
				c-0.494,0.183-0.985,0.366-1.437,0.574c-0.225,0.103-0.44,0.214-0.626,0.331c-0.181,0.117-0.338,0.248-0.402,0.35
				c-0.07,0.105-0.069,0.141-0.058,0.26c0.024,0.121,0.099,0.297,0.219,0.476c0.115,0.183,0.273,0.363,0.422,0.535
				c0.158,0.164,0.323,0.32,0.504,0.454c0.359,0.269,0.765,0.47,1.206,0.602c0.444,0.129,0.919,0.192,1.408,0.21
				c0.98,0.034,2.006-0.114,3.037-0.295c1.034-0.183,2.08-0.409,3.161-0.578c0.27-0.042,0.542-0.081,0.817-0.113
				c0.139-0.014,0.262-0.036,0.456-0.042c0.173-0.005,0.333,0.004,0.486,0.018c0.609,0.062,1.143,0.195,1.673,0.331
				c1.051,0.273,2.063,0.588,3.053,0.771c0.487,0.089,0.986,0.143,1.365,0.085c0.188-0.028,0.314-0.089,0.366-0.142
				c0.029-0.029,0.049-0.051,0.073-0.108c0.056-0.129,0.112-0.258,0.171-0.384c0.472-1.011,1.031-1.965,1.691-2.864
				c0.662-0.894,1.425-1.738,2.365-2.423c0.471-0.339,0.994-0.63,1.565-0.835c0.575-0.196,1.195-0.302,1.824-0.255
				c0.325,0.023,0.646,0.098,0.94,0.204c0.292,0.103,0.564,0.245,0.773,0.34c0.097,0.047,0.197,0.073,0.168,0.066
				c-0.007,0.001-0.066,0.004-0.101,0.025c-0.041,0.025-0.048,0.033-0.043,0.031c0.014-0.011,0.061-0.097,0.096-0.188
				c0.038-0.092,0.073-0.206,0.106-0.32c0.064-0.227,0.119-0.493,0.166-0.723c0.02-0.094,0.024-0.177,0.021-0.216
				c-0.008-0.042,0.005-0.001,0.029,0.012c0.021,0.011-0.017-0.019-0.101-0.033c-0.082-0.017-0.195-0.025-0.321-0.032
				c-0.127-0.007-0.266-0.009-0.425-0.024c-0.159-0.017-0.341-0.035-0.569-0.136c-0.112-0.052-0.237-0.133-0.34-0.25
				s-0.171-0.26-0.205-0.387c-0.066-0.259-0.038-0.456-0.011-0.628c0.032-0.171,0.082-0.327,0.123-0.449l0.129-0.392
				c0.083-0.265,0.182-0.511,0.273-0.767c0.092-0.254,0.187-0.507,0.285-0.755c0.783-1.999,1.619-3.964,2.466-5.926
				c0.849-1.961,1.717-3.912,2.601-5.856c0.44-0.973,0.892-1.942,1.351-2.906c0.464-0.964,0.921-1.927,1.431-2.879l0.458,0.239
				c-0.926,1.902-1.745,3.879-2.591,5.831c-0.837,1.96-1.657,3.928-2.459,5.902c-0.799,1.974-1.589,3.955-2.316,5.947
				c-0.093,0.249-0.183,0.497-0.268,0.746s-0.18,0.498-0.252,0.745l-0.116,0.37c-0.043,0.131-0.068,0.231-0.082,0.323
				c-0.014,0.089-0.005,0.166,0,0.165c0.002,0.001-0.005-0.021-0.019-0.037c-0.014-0.018-0.025-0.024-0.016-0.021
				c0.017,0.008,0.105,0.025,0.21,0.029c0.106,0.005,0.233,0.005,0.374,0.005c0.141,0.002,0.295,0.005,0.477,0.031
				c0.177,0.029,0.404,0.079,0.635,0.258c0.113,0.089,0.212,0.211,0.276,0.337c0.065,0.126,0.1,0.252,0.119,0.366
				c0.033,0.226,0.016,0.412-0.008,0.58c-0.052,0.294-0.105,0.551-0.18,0.839c-0.038,0.143-0.079,0.285-0.139,0.441
				c-0.063,0.155-0.125,0.317-0.28,0.513c-0.084,0.097-0.184,0.204-0.348,0.285c-0.154,0.079-0.348,0.112-0.488,0.101
				c-0.297-0.021-0.447-0.103-0.594-0.16c-0.278-0.123-0.482-0.225-0.694-0.297c-0.209-0.073-0.412-0.115-0.621-0.127
				c-0.437-0.027-0.889,0.054-1.32,0.205c-0.431,0.162-0.848,0.396-1.239,0.685c-0.782,0.581-1.463,1.343-2.058,2.168
				c-0.596,0.826-1.117,1.723-1.542,2.648c-0.053,0.116-0.103,0.232-0.152,0.347c-0.076,0.189-0.209,0.395-0.372,0.549
				c-0.334,0.321-0.737,0.446-1.071,0.503c-0.681,0.102-1.257,0.016-1.818-0.074c-1.111-0.198-2.141-0.514-3.157-0.767
				c-0.504-0.124-1.01-0.246-1.463-0.291c-0.112-0.011-0.219-0.016-0.313-0.013c-0.073,0-0.214,0.02-0.34,0.034
				c-0.254,0.029-0.51,0.066-0.767,0.106c-1.027,0.159-2.067,0.382-3.135,0.571c-1.067,0.184-2.167,0.35-3.322,0.311
				c-0.576-0.021-1.167-0.097-1.748-0.266c-0.58-0.172-1.146-0.45-1.639-0.822c-0.249-0.184-0.472-0.396-0.683-0.617
				c-0.101-0.114-0.198-0.23-0.295-0.347c-0.092-0.119-0.182-0.245-0.268-0.378c-0.17-0.268-0.333-0.58-0.408-0.985
				c-0.032-0.205-0.033-0.435,0.018-0.659c0.049-0.226,0.154-0.431,0.273-0.597c0.242-0.338,0.523-0.533,0.787-0.705
				c0.266-0.165,0.529-0.295,0.789-0.412c0.521-0.233,1.032-0.417,1.54-0.6c1.015-0.36,2.014-0.698,2.997-1.076
				c0.982-0.377,1.943-0.791,2.882-1.249c1.877-0.915,3.642-2.044,5.228-3.398c1.582-1.363,3.036-2.89,4.285-4.571
				c1.249-1.682,2.294-3.518,3.097-5.462c0.798-1.945,1.37-3.993,1.68-6.088C32.169,92.621,32.224,90.483,32.048,88.356z"/>
		</g>
		<g>
			<g>
				<path class="st3" d="M36.213,104.401c0.351,1.793,8.436,15.376,17.566,17.083c-0.542-1.477-0.656-2.115-0.656-2.115
					s6.838,3.9,22.031,0.421c-1.057-0.375-2.053-1.039-2.053-1.039s10.334-2.859,13.865-9.925
					c4.089-8.184-10.373-4.709-10.373-4.709l-33.289-2.44L36.213,104.401z"/>
			</g>
			<g>
				<path d="M36.356,104.48c0.029,0,0.041-0.029,0.038-0.026l0.027,0.087c0.021,0.058,0.041,0.118,0.065,0.177
					c0.046,0.119,0.099,0.236,0.152,0.354c0.108,0.236,0.226,0.467,0.348,0.698c0.245,0.461,0.507,0.914,0.778,1.363
					c0.543,0.896,1.125,1.769,1.734,2.622c1.219,1.705,2.547,3.333,3.991,4.849c1.445,1.51,3.01,2.913,4.73,4.079
					c1.717,1.159,3.61,2.091,5.623,2.456l0,0l-0.396,0.467c-0.099-0.362-0.192-0.724-0.276-1.09
					c-0.042-0.183-0.082-0.366-0.118-0.551c-0.036-0.187-0.069-0.366-0.093-0.565v-0.001l-0.06-0.322l0.301,0.152
					c0.804,0.404,1.703,0.686,2.591,0.92c0.896,0.23,1.806,0.405,2.723,0.531c1.835,0.255,3.693,0.326,5.547,0.284
					c1.854-0.045,3.704-0.22,5.541-0.48c1.837-0.262,3.659-0.62,5.465-1.051l0,0l-0.041,0.707c-0.37-0.17-0.718-0.363-1.053-0.574
					s-0.654-0.432-0.967-0.676l0,0l-0.282-0.187l0.329-0.106c1.285-0.412,2.553-0.922,3.78-1.496
					c1.228-0.576,2.426-1.216,3.564-1.945c1.137-0.731,2.219-1.543,3.205-2.457c0.983-0.915,1.864-1.939,2.562-3.075
					c0.343-0.57,0.658-1.163,0.883-1.777c0.229-0.609,0.377-1.253,0.309-1.856c-0.035-0.299-0.129-0.583-0.282-0.832
					c-0.154-0.249-0.374-0.458-0.626-0.633c-0.509-0.348-1.144-0.542-1.787-0.662c-1.3-0.231-2.66-0.197-4.002-0.084
					c-1.342,0.122-2.691,0.335-4.001,0.63l-0.048,0.011l-0.044-0.004l-16.64-1.262l-16.632-1.315l0,0l0.07-0.011
					C41.033,102.726,38.704,103.604,36.356,104.48z M36.071,104.322c2.38-0.939,4.779-1.878,7.176-2.798l0.034-0.013l0.037,0.003
					l0,0l16.651,1.127l16.647,1.177l-0.091,0.008c1.354-0.308,2.709-0.523,4.087-0.653c1.375-0.119,2.772-0.161,4.168,0.082
					c0.693,0.13,1.399,0.333,2.026,0.755c0.31,0.212,0.596,0.482,0.803,0.814s0.331,0.712,0.376,1.089
					c0.084,0.762-0.094,1.487-0.341,2.15c-0.249,0.668-0.583,1.284-0.947,1.881c-0.74,1.188-1.665,2.247-2.686,3.186
					c-1.02,0.943-2.146,1.757-3.32,2.479c-1.176,0.721-2.401,1.358-3.662,1.906c-1.265,0.543-2.548,1.029-3.882,1.393l0.047-0.293
					l0,0c0.331,0.174,0.681,0.334,1.029,0.474c0.35,0.141,0.704,0.262,1.057,0.352l1.287,0.331l-1.329,0.377l0,0
					c-1.832,0.401-3.682,0.731-5.546,0.961c-1.863,0.229-3.739,0.372-5.616,0.383c-1.878,0.008-3.759-0.097-5.618-0.391
					c-0.929-0.145-1.851-0.34-2.758-0.591c-0.908-0.258-1.798-0.551-2.655-1.002l0.241-0.171l0,0
					c0.049,0.164,0.113,0.34,0.177,0.509c0.065,0.171,0.133,0.34,0.203,0.509c0.141,0.338,0.291,0.672,0.446,1.005l0.259,0.555
					l-0.654-0.087l0,0c-2.141-0.423-4.093-1.428-5.839-2.645c-1.75-1.226-3.318-2.677-4.759-4.229
					c-1.439-1.557-2.756-3.221-3.96-4.96c-0.601-0.87-1.175-1.759-1.711-2.672c-0.268-0.457-0.526-0.919-0.767-1.392
					c-0.121-0.236-0.237-0.476-0.346-0.721c-0.054-0.122-0.107-0.246-0.154-0.374c-0.024-0.063-0.046-0.129-0.069-0.195l-0.03-0.102
					C36.061,104.48,36.057,104.386,36.071,104.322z"/>
			</g>
		</g>
		<g>
			<path class="st4" d="M43.347,99.678c-2.723,4.505,2.167,13.229,7.806,15.313c-0.407-1.357,0.334-3.078,0.334-3.078
				s0.7,7.185,14.879,6.107c-0.868-0.552-1.644-2.053-1.271-1.93c5.531,1.804,11.668-1.753,11.029-2.173
				c-1.642-1.08,2.016-0.577,5.712-4.952c-4.87-1.93-3.674-9.401-3.674-9.401l-7.113-0.734l-21.74-0.126L43.347,99.678z"/>
		</g>
		<g>
			<g>
				<path class="st3" d="M36.309,103.423c-6.633-10.8-5.644-19.846-4.246-26.651c0,0,1.192,1.325,2.616,1.6
					c-0.798-2.463-1.595-5.324-0.265-8.813l1.767,1.485c0,0-0.42-8.691,11.186-14.009l-0.779,3.951c0,0,6.038-10.6,28.754-5.433
					c-2.387,1.463-3.421,3.572-3.421,3.572s12.197-3.873,20,12.459c-2.13-1.249-3.949-0.897-3.949-0.897s8.231,8.419,5.759,18.778
					l-1.519-1.682c0,0,1.503,9.749-3.859,17.203c0,0-5.189-5.136-13.131-5.08s-27.994-1.242-29.217-1.015
					C44.784,99.118,36.309,103.423,36.309,103.423z"/>
			</g>
			<g>
				<path d="M36.264,103.584c-0.355-0.498-0.726-1.087-0.988-1.569c-0.294-0.501-0.56-1.017-0.833-1.529
					c-0.528-1.035-1.011-2.093-1.442-3.174c-0.865-2.16-1.498-4.417-1.878-6.72c-0.379-2.303-0.499-4.648-0.38-6.98
					c0.112-2.333,0.457-4.646,0.905-6.925l0.157-0.799l0.574,0.601l0,0c0.135,0.175,0.31,0.367,0.482,0.539
					c0.175,0.173,0.362,0.337,0.555,0.49c0.39,0.302,0.822,0.552,1.294,0.693l-0.19,0.215l0,0c-0.501-1.417-0.952-2.887-1.076-4.428
					c-0.064-0.767-0.047-1.546,0.057-2.316c0.103-0.77,0.292-1.528,0.546-2.261l0.177-0.511l0.44,0.351l0,0l1.623,1.656
					l-0.274,0.135l0,0c-0.015-0.416,0.014-0.81,0.06-1.209c0.045-0.398,0.116-0.793,0.201-1.183
					c0.172-0.782,0.415-1.547,0.724-2.287c0.307-0.739,0.675-1.454,1.095-2.138c0.423-0.681,0.898-1.329,1.412-1.945
					c0.509-0.621,1.08-1.186,1.664-1.736c0.301-0.264,0.595-0.538,0.913-0.783l0.469-0.377l0.484-0.356
					c1.296-0.943,2.687-1.75,4.13-2.44l0.837-0.399l-0.167,0.929l0,0l-1.085,3.89l-0.306-0.116l0,0
					c0.353-0.577,0.778-1.066,1.232-1.54c0.456-0.468,0.948-0.897,1.463-1.298c1.035-0.793,2.16-1.466,3.345-2.008
					c1.183-0.545,2.415-0.978,3.674-1.31c1.259-0.327,2.542-0.555,3.831-0.718c2.582-0.292,5.192-0.306,7.776-0.09
					c2.585,0.214,5.149,0.628,7.68,1.174l1.033,0.223l-0.897,0.599H75.58c-0.347,0.194-0.691,0.397-1.014,0.635
					c-0.329,0.231-0.639,0.49-0.936,0.764c-0.298,0.273-0.578,0.57-0.841,0.881c-0.261,0.31-0.51,0.643-0.715,0.982l-0.2-0.233
					h0.001c1.059-0.307,2.133-0.424,3.217-0.447c1.082-0.019,2.167,0.084,3.231,0.297c2.129,0.425,4.159,1.322,5.948,2.555
					c1.792,1.233,3.353,2.781,4.682,4.491c1.335,1.709,2.451,3.577,3.407,5.514l0.653,1.325l-1.333-0.702l0,0
					c-0.266-0.179-0.542-0.354-0.832-0.496c-0.288-0.152-0.592-0.268-0.903-0.375c-0.312-0.102-0.633-0.177-0.959-0.227
					c-0.323-0.049-0.666-0.073-0.979-0.05l0.087-0.28l0,0c1.191,1.251,2.207,2.634,3.111,4.094c0.898,1.463,1.66,3.016,2.236,4.644
					c0.575,1.626,0.961,3.33,1.096,5.064c0.139,1.733,0.012,3.492-0.367,5.197l0,0l-0.306,0.861L93.4,89.764l-1.309-1.871l0,0
					l0.288-0.138c0.217,1.508,0.27,3.018,0.232,4.532c-0.047,1.512-0.199,3.025-0.485,4.517c-0.285,1.492-0.696,2.964-1.265,4.381
					c-0.558,1.422-1.293,2.778-2.162,4.044l0,0l-0.278,0.4l-0.363-0.347c-0.378-0.363-0.818-0.722-1.256-1.053
					c-0.443-0.333-0.9-0.649-1.369-0.943c-0.941-0.59-1.927-1.11-2.951-1.539c-1.022-0.435-2.084-0.773-3.164-1.027
					c-1.082-0.245-2.186-0.396-3.295-0.444c-0.278-0.011-0.554-0.012-0.833-0.017l-0.853-0.004l-1.703-0.027
					c-1.135-0.025-2.268-0.063-3.401-0.103c-2.265-0.083-4.529-0.187-6.79-0.298c-4.525-0.217-9.048-0.48-13.569-0.678
					c-0.565-0.024-1.13-0.043-1.693-0.057c-0.281-0.005-0.564-0.011-0.838-0.005c-0.144,0.005-0.257,0.002-0.375,0.036
					c-0.121,0.031-0.252,0.077-0.382,0.123c-1.04,0.396-2.07,0.881-3.094,1.354c-1.024,0.48-2.043,0.97-3.06,1.465l-1.528,0.751
					l-0.761,0.377l-0.379,0.189l-0.19,0.095l-0.095,0.047l-0.047,0.024l-0.026,0.013C36.365,103.583,36.307,103.591,36.264,103.584z
					 M36.355,103.263c-0.027-0.015-0.069-0.015-0.094-0.002l0.021-0.011l0.047-0.024l0.094-0.048l0.189-0.097l0.379-0.193
					l0.758-0.384l1.518-0.763c1.014-0.506,2.03-1.007,3.053-1.497c1.027-0.486,2.043-0.978,3.115-1.398
					c0.136-0.051,0.271-0.101,0.425-0.141c0.155-0.046,0.33-0.046,0.467-0.053c0.292-0.009,0.574-0.005,0.86-0.003
					c0.569,0.008,1.135,0.024,1.703,0.041c4.53,0.155,9.053,0.376,13.578,0.55c2.262,0.089,4.524,0.171,6.786,0.233
					c1.131,0.03,2.261,0.057,3.391,0.072l1.694,0.011l0.845-0.005c0.286,0.003,0.576,0.002,0.864,0.009
					c1.154,0.041,2.304,0.187,3.433,0.431c1.126,0.253,2.234,0.595,3.3,1.038c1.069,0.435,2.097,0.966,3.081,1.57
					c0.492,0.302,0.97,0.626,1.435,0.97c0.468,0.347,0.91,0.7,1.354,1.117l-0.639,0.054l0,0c0.864-1.186,1.608-2.466,2.186-3.825
					c0.588-1.354,1.03-2.776,1.35-4.225c0.322-1.45,0.513-2.931,0.602-4.418c0.081-1.485,0.07-2.99-0.1-4.462l-0.062-0.536
					l0.35,0.399l0,0l1.729,1.493l-0.77,0.197l0,0c0.404-1.607,0.572-3.276,0.485-4.94c-0.084-1.664-0.409-3.319-0.924-4.915
					c-0.516-1.597-1.219-3.137-2.06-4.598c-0.845-1.456-1.819-2.858-2.942-4.105l0,0L87.619,70.6l0.325-0.074
					c0.366-0.084,0.715-0.109,1.076-0.113c0.359,0,0.719,0.026,1.076,0.086c0.355,0.063,0.712,0.14,1.057,0.259
					c0.348,0.109,0.684,0.255,1.016,0.412l0,0l-0.678,0.623c-0.885-1.912-1.926-3.755-3.179-5.442
					c-1.247-1.689-2.717-3.219-4.415-4.449c-1.695-1.23-3.626-2.142-5.677-2.606c-1.024-0.231-2.074-0.357-3.125-0.364
					c-1.047-0.005-2.117,0.089-3.118,0.353h-0.001l-0.372,0.144l0.171-0.376c0.183-0.399,0.396-0.762,0.634-1.12
					c0.237-0.355,0.494-0.699,0.777-1.024c0.282-0.325,0.58-0.637,0.904-0.926c0.318-0.295,0.666-0.558,1.021-0.813h0.001
					l0.135,0.822c-2.489-0.585-5.009-1.039-7.549-1.296c-2.54-0.26-5.102-0.291-7.64-0.052c-1.267,0.136-2.527,0.336-3.764,0.634
					c-1.236,0.303-2.447,0.704-3.612,1.214c-1.166,0.507-2.274,1.144-3.296,1.897c-0.507,0.38-0.994,0.789-1.444,1.236
					c-0.444,0.444-0.876,0.929-1.203,1.445l0,0l-0.427,0.88l0.117-0.995l0.472-4.01l0,0l0.669,0.528
					c-1.419,0.621-2.788,1.356-4.068,2.225l-0.478,0.328l-0.463,0.347c-0.314,0.227-0.604,0.481-0.904,0.725
					c-0.579,0.51-1.147,1.037-1.657,1.618c-0.514,0.576-0.992,1.184-1.422,1.828c-0.427,0.645-0.804,1.322-1.124,2.027
					c-0.322,0.703-0.581,1.436-0.773,2.187c-0.19,0.746-0.324,1.528-0.329,2.282l0,0l0.053,0.36l-0.326-0.224l-1.912-1.313l0,0
					l0.617-0.16c-0.271,0.674-0.483,1.372-0.616,2.087s-0.185,1.445-0.162,2.178c0.043,1.469,0.406,2.923,0.835,4.357l0,0
					l0.103,0.252L34.65,78.54c-0.547-0.068-1.07-0.265-1.551-0.523c-0.24-0.131-0.473-0.275-0.696-0.433
					c-0.226-0.161-0.433-0.32-0.653-0.525l0,0l0.731-0.199c-0.486,2.247-0.864,4.511-1.017,6.796
					c-0.159,2.283-0.083,4.581,0.246,6.847c0.33,2.266,0.91,4.497,1.724,6.644c0.406,1.073,0.863,2.129,1.366,3.162
					c0.261,0.512,0.515,1.028,0.797,1.53c0.136,0.25,0.282,0.515,0.402,0.727C36.122,102.788,36.235,103.019,36.355,103.263z"/>
			</g>
		</g>
		<g>
			
				<ellipse transform="matrix(0.0207 -0.9998 0.9998 0.0207 -26.2036 147.738)" class="st5" cx="62.312" cy="87.245" rx="13.826" ry="7.121"/>
		</g>
		<g>
			<path class="st6" d="M53.293,71.765c-13.377-3.123-15.841,7.568-15.841,7.568s-2.095-1.762-1.899-7.136
				c1.461,3.932,2.72,4.352,3.618,4.601c0.347,0.096,0,0-0.143-0.331c-2.492-5.752,1.798-13.68,6.027-16.374
				c-1.249,4.183-0.672,6.698,0.444,9.644c0.221-0.878-0.676-13.755,25.182-13.218c0,0-3.389,3.418-3.598,6.37
				c4.307-2.423,14.47-0.869,21.815,5.785c0,0-3.548-0.992-4.772,0.836c6.126,3.75,9.259,11.11,8.394,16.236
				c-2.185-2.711-9.478-14.001-12.531-11.112c-4.26-4.814-13.739,0.424-17.357,6.942C62.63,81.576,55.981,72.392,53.293,71.765z"/>
		</g>
		<g>
			<g>
				<path class="st7" d="M58.334,85.546c0.201,7.026-0.698,12.988-6.317,13.76c-4.368,0.601-8.662-4.772-9.796-11.007
					c-1.267-6.964-1.711-12.977,6.213-15.051C56.358,71.174,58.065,76.174,58.334,85.546z"/>
			</g>
			<g>
				<path d="M58.598,85.538c0.052,1.479,0.06,2.964-0.034,4.45c-0.099,1.484-0.293,2.978-0.74,4.427
					c-0.227,0.722-0.517,1.433-0.913,2.095c-0.394,0.662-0.893,1.276-1.501,1.772c-0.605,0.5-1.314,0.872-2.054,1.113
					c-0.371,0.119-0.75,0.21-1.131,0.271c-0.383,0.065-0.789,0.091-1.184,0.07c-0.796-0.037-1.569-0.264-2.271-0.6
					c-0.705-0.334-1.344-0.78-1.916-1.287c-1.144-1.017-2.06-2.245-2.781-3.563c-0.722-1.317-1.268-2.721-1.648-4.163
					c-0.188-0.721-0.333-1.457-0.45-2.186c-0.119-0.729-0.231-1.46-0.325-2.194c-0.19-1.466-0.326-2.948-0.263-4.436
					c0.063-1.48,0.36-2.996,1.122-4.309c0.382-0.652,0.872-1.24,1.438-1.737c0.565-0.502,1.209-0.903,1.88-1.234
					c0.672-0.333,1.378-0.584,2.093-0.786c0.717-0.2,1.443-0.359,2.181-0.461c0.737-0.095,1.486-0.143,2.232-0.073
					c0.743,0.072,1.487,0.259,2.157,0.611c0.67,0.35,1.248,0.868,1.698,1.471c0.453,0.604,0.795,1.279,1.064,1.975
					c0.534,1.399,0.806,2.874,0.999,4.343C58.441,82.581,58.535,84.061,58.598,85.538z M58.069,85.553
					c-0.025-1.47-0.082-2.939-0.231-4.397c-0.154-1.455-0.385-2.911-0.872-4.284c-0.247-0.683-0.555-1.347-0.984-1.929
					c-0.424-0.583-0.964-1.081-1.598-1.424c-0.631-0.348-1.346-0.534-2.068-0.597c-0.723-0.066-1.457-0.021-2.178,0.093
					c-1.441,0.238-2.863,0.659-4.162,1.304c-0.648,0.327-1.256,0.726-1.801,1.198c-0.543,0.473-1.011,1.029-1.379,1.649
					c-0.743,1.24-1.063,2.701-1.138,4.155c-0.043,0.73-0.021,1.463,0.034,2.194c0.057,0.731,0.135,1.461,0.25,2.187
					c0.113,0.726,0.243,1.45,0.382,2.173c0.133,0.724,0.296,1.432,0.513,2.13c0.428,1.394,1.018,2.736,1.767,3.975
					c0.753,1.233,1.65,2.385,2.74,3.299c0.546,0.452,1.134,0.849,1.763,1.145c0.629,0.295,1.301,0.48,1.978,0.523
					c0.341,0.022,0.675,0.005,1.02-0.051c0.347-0.053,0.689-0.126,1.022-0.228c0.664-0.204,1.289-0.519,1.83-0.95
					c1.094-0.858,1.803-2.146,2.244-3.504c0.444-1.367,0.656-2.817,0.773-4.27C58.087,88.491,58.1,87.022,58.069,85.553z"/>
			</g>
		</g>
		<g>
			<path d="M60.385,85.233c0.355,7.066-0.778,12.409-6.408,13.1c-4.157,0.51-8.571-4.112-9.705-10.347
				c-1.267-6.964-1.711-12.977,6.213-15.051C58.408,70.861,59.872,75.021,60.385,85.233z"/>
			<path d="M53.332,98.511c-4.075,0-8.111-4.53-9.197-10.5c-1.288-7.08-1.703-13.112,6.315-15.211
				c3.108-0.813,5.251-0.682,6.747,0.415c2.355,1.725,3.019,5.875,3.328,12.011l0,0c0.203,4.028-0.106,6.887-0.97,9
				c-1.032,2.524-2.85,3.913-5.56,4.245C53.773,98.498,53.553,98.511,53.332,98.511z M53.935,72.555
				c-0.976,0-2.107,0.172-3.416,0.514c-7.786,2.038-7.374,7.95-6.112,14.892c1.12,6.152,5.405,10.74,9.551,10.233
				c4.768-0.585,6.707-4.58,6.286-12.955l0,0c-0.304-6.055-0.948-10.141-3.214-11.8C56.225,72.849,55.211,72.555,53.935,72.555z"/>
		</g>
		<g>
			<g>
				<path class="st7" d="M66.658,86.948c0.832,7.025,4.063,13.331,9.713,12.796c4.391-0.415,7.162-6.466,7.021-12.957
					c-0.147-6.769-1.304-13.025-9.497-13.23C65.703,73.352,65.383,76.198,66.658,86.948z"/>
			</g>
			<g>
				<path d="M66.898,86.919c0.189,1.463,0.481,2.913,0.904,4.32c0.424,1.405,0.975,2.775,1.718,4.024
					c0.741,1.244,1.685,2.379,2.874,3.147c1.183,0.772,2.61,1.097,4.008,0.937c0.683-0.073,1.342-0.308,1.937-0.663
					c0.596-0.354,1.124-0.829,1.592-1.362c0.932-1.074,1.601-2.385,2.085-3.752c0.483-1.371,0.78-2.811,0.93-4.266
					c0.077-0.727,0.117-1.46,0.119-2.191c-0.003-0.734-0.022-1.477-0.057-2.213c-0.075-1.473-0.224-2.943-0.563-4.367
					c-0.34-1.417-0.889-2.8-1.793-3.932c-0.449-0.565-0.988-1.057-1.591-1.457c-0.602-0.402-1.271-0.702-1.965-0.921
					c-0.695-0.22-1.419-0.353-2.149-0.431c-0.729-0.075-1.47-0.087-2.21-0.085c-0.738,0.007-1.477,0.045-2.203,0.152
					c-0.723,0.108-1.443,0.292-2.077,0.636c-0.637,0.338-1.165,0.857-1.498,1.496c-0.339,0.637-0.504,1.359-0.595,2.083
					c-0.175,1.458-0.085,2.945,0.035,4.419C66.527,83.971,66.71,85.445,66.898,86.919z M66.417,86.976
					c-0.159-1.48-0.311-2.962-0.409-4.452c-0.089-1.489-0.15-2.991,0.05-4.49c0.105-0.746,0.293-1.494,0.654-2.175
					c0.355-0.684,0.935-1.252,1.614-1.608c0.678-0.364,1.424-0.551,2.165-0.675c0.744-0.119,1.494-0.167,2.243-0.183
					c0.747-0.012,1.496-0.008,2.248,0.06c0.75,0.072,1.497,0.199,2.223,0.42c0.726,0.217,1.428,0.529,2.075,0.939
					c0.645,0.409,1.228,0.922,1.717,1.512c0.984,1.183,1.586,2.625,1.965,4.082c0.38,1.465,0.559,2.965,0.664,4.46
					c0.05,0.75,0.084,1.492,0.101,2.246c0.012,0.755-0.015,1.51-0.081,2.264c-0.139,1.505-0.434,3.001-0.927,4.442
					c-0.495,1.436-1.183,2.833-2.193,4.021c-0.505,0.591-1.099,1.122-1.783,1.526c-0.682,0.405-1.457,0.679-2.255,0.762
					c-0.782,0.083-1.579,0.043-2.348-0.145c-0.768-0.185-1.496-0.521-2.148-0.953c-1.306-0.875-2.289-2.112-3.039-3.43
					c-0.753-1.325-1.292-2.748-1.699-4.196C66.849,89.948,66.581,88.466,66.417,86.976z"/>
			</g>
		</g>
		<g>
			<g>
				<path d="M68.756,86.084c0.974,7.007,4.416,14.579,9.66,12.41c3.098-1.282,6.885-5.96,7.084-12.294
					c0.282-8.936-1.304-13.025-9.497-13.23C67.811,72.766,67.312,75.682,68.756,86.084z"/>
			</g>
			<g>
				<path d="M69.019,86.048c0.213,1.447,0.52,2.879,0.933,4.277c0.415,1.398,0.933,2.766,1.61,4.044
					c0.339,0.637,0.721,1.252,1.155,1.815c0.435,0.564,0.93,1.078,1.493,1.484c0.56,0.405,1.194,0.694,1.857,0.788
					c0.662,0.1,1.344-0.001,1.984-0.238c0.643-0.238,1.248-0.61,1.811-1.034c0.567-0.423,1.086-0.916,1.566-1.444
					c0.482-0.528,0.924-1.097,1.321-1.696c0.396-0.601,0.746-1.233,1.059-1.883c0.624-1.302,1.066-2.698,1.308-4.132
					c0.125-0.718,0.189-1.441,0.215-2.175c0.028-0.734,0.046-1.469,0.042-2.203c0-0.734-0.036-1.468-0.1-2.198
					c-0.067-0.729-0.158-1.458-0.324-2.169c-0.162-0.711-0.38-1.41-0.69-2.063c-0.312-0.653-0.714-1.261-1.218-1.771
					c-0.502-0.512-1.094-0.933-1.742-1.247c-0.648-0.315-1.341-0.539-2.048-0.702c-1.42-0.319-2.892-0.409-4.358-0.411
					c-0.733,0.004-1.467,0.034-2.189,0.142c-0.719,0.108-1.437,0.28-2.081,0.605c-0.644,0.321-1.196,0.812-1.558,1.428
					c-0.367,0.615-0.555,1.325-0.658,2.04c-0.102,0.718-0.119,1.449-0.103,2.18c0.017,0.731,0.072,1.461,0.142,2.192
					C68.591,83.136,68.799,84.593,69.019,86.048z M68.494,86.12c-0.183-1.464-0.354-2.932-0.461-4.41
					c-0.052-0.738-0.087-1.479-0.086-2.223c0.003-0.743,0.038-1.49,0.163-2.229c0.125-0.737,0.34-1.475,0.737-2.126
					c0.396-0.653,0.997-1.17,1.677-1.496c0.682-0.326,1.414-0.511,2.148-0.621c0.737-0.107,1.477-0.156,2.218-0.176
					c1.477-0.029,2.972,0.016,4.434,0.334c0.73,0.156,1.45,0.387,2.126,0.724c0.675,0.333,1.304,0.777,1.826,1.326
					c0.523,0.548,0.935,1.193,1.248,1.875c0.313,0.683,0.529,1.402,0.686,2.129c0.315,1.457,0.415,2.941,0.461,4.418
					c0.024,0.739,0.025,1.479,0.016,2.218c-0.011,0.739-0.045,1.489-0.138,2.229c-0.184,1.483-0.574,2.945-1.162,4.33
					c-0.586,1.386-1.391,2.683-2.381,3.834c-1.006,1.128-2.203,2.145-3.69,2.695c-0.741,0.266-1.567,0.375-2.364,0.241
					c-0.799-0.126-1.538-0.486-2.161-0.952c-0.625-0.47-1.154-1.038-1.61-1.645c-0.457-0.608-0.848-1.257-1.191-1.926
					c-0.686-1.338-1.198-2.748-1.603-4.18C68.984,89.054,68.692,87.594,68.494,86.12z"/>
			</g>
		</g>
		<g>
			<g>
				<path class="st8" d="M34.704,86.813c2.724-4.884,11.873-17.659,24.509-9.985c0.734-10.051-13.94-12.417-21.349-3.049
					c2.832,0.268,3.128,0.609,3.128,0.609S35.78,75.536,34.704,86.813z"/>
			</g>
			<g>
				<g>
					<path d="M34.752,86.66c-0.002-0.041-0.016-0.082-0.034-0.106c-0.018-0.025-0.032-0.035-0.03-0.047
						c-0.004-0.003,0.027-0.054,0.043-0.085l0.057-0.103l0.229-0.413c0.154-0.275,0.317-0.544,0.48-0.814
						c0.33-0.537,0.672-1.065,1.031-1.583c0.714-1.04,1.5-2.029,2.344-2.971c1.684-1.88,3.636-3.567,5.898-4.772
						c1.13-0.598,2.334-1.072,3.588-1.365c1.253-0.288,2.553-0.4,3.836-0.299c1.284,0.089,2.544,0.39,3.739,0.836
						c1.195,0.448,2.319,1.055,3.368,1.754l0,0l-0.243,0.125c0.033-1.169-0.113-2.341-0.542-3.406
						c-0.212-0.532-0.477-1.04-0.803-1.506c-0.326-0.466-0.71-0.889-1.133-1.268c-0.848-0.758-1.864-1.32-2.941-1.701
						c-1.08-0.377-2.222-0.588-3.372-0.634c-2.303-0.096-4.628,0.405-6.731,1.378c-2.108,0.971-3.998,2.42-5.541,4.2l-0.11-0.259
						c0.537,0.02,1.074,0.047,1.616,0.099c0.27,0.026,0.542,0.057,0.816,0.105c0.138,0.023,0.276,0.052,0.417,0.087
						c0.072,0.02,0.143,0.038,0.219,0.066c0.038,0.012,0.078,0.03,0.119,0.048c0.024,0.011,0.043,0.02,0.07,0.036
						c0.033,0.024,0.036,0.011,0.122,0.093l0.002,0.002l0.4,0.442l-0.592,0.139c-0.094,0.023-0.243,0.074-0.366,0.127
						c-0.128,0.054-0.255,0.118-0.38,0.184c-0.25,0.135-0.49,0.297-0.721,0.472c-0.463,0.348-0.878,0.77-1.255,1.22
						c-0.751,0.91-1.343,1.961-1.807,3.065c-0.467,1.105-0.821,2.262-1.087,3.44c-0.134,0.59-0.248,1.184-0.346,1.781l-0.135,0.878
						c-0.018,0.122-0.047,0.231-0.091,0.351C34.84,86.375,34.79,86.513,34.752,86.66z M34.657,86.966
						c-0.005-0.156-0.023-0.321-0.033-0.504c-0.011-0.182-0.008-0.376,0.008-0.556l0.012-0.135l0.014-0.115l0.028-0.228l0.057-0.456
						c0.083-0.607,0.183-1.212,0.302-1.815c0.238-1.204,0.568-2.395,1.018-3.547c0.448-1.152,1.033-2.264,1.807-3.257
						c0.39-0.493,0.823-0.959,1.323-1.357c0.249-0.201,0.511-0.387,0.792-0.549c0.141-0.08,0.285-0.157,0.436-0.225
						c0.156-0.07,0.293-0.128,0.493-0.182l-0.191,0.581l0.001,0.002c0.061,0.06,0.035,0.029,0.041,0.035
						c-0.002-0.003-0.012-0.008-0.018-0.013c-0.019-0.011-0.038-0.023-0.062-0.035c-0.047-0.024-0.103-0.047-0.157-0.07
						c-0.114-0.043-0.233-0.084-0.357-0.121c-0.246-0.074-0.501-0.136-0.758-0.193c-0.515-0.114-1.039-0.205-1.565-0.29
						l-0.268-0.042l0.156-0.217c1.408-1.944,3.294-3.579,5.479-4.657c2.177-1.083,4.632-1.649,7.083-1.533
						c1.222,0.058,2.447,0.282,3.601,0.716c1.154,0.428,2.247,1.062,3.145,1.922c0.906,0.848,1.596,1.928,1.983,3.097
						c0.387,1.171,0.486,2.417,0.346,3.615l-0.029,0.249l-0.214-0.124l0,0c-2.177-1.187-4.548-2.026-6.985-2.148
						c-2.431-0.138-4.872,0.46-7.034,1.604c-1.085,0.565-2.112,1.249-3.075,2.017c-0.964,0.767-1.873,1.608-2.723,2.509
						c-0.852,0.9-1.638,1.862-2.39,2.85c-0.375,0.495-0.734,1.003-1.081,1.519c-0.173,0.258-0.343,0.519-0.51,0.78l-0.249,0.395
						l-0.135,0.219c-0.037,0.056-0.089,0.115-0.146,0.157C34.749,86.911,34.696,86.94,34.657,86.966z"/>
				</g>
			</g>
		</g>
		<g>
			<g>
				<path class="st8" d="M90.565,87.542C88.046,82.55,79.434,69.407,66.491,76.55c-0.317-10.072,14.443-11.827,21.457-2.161
					c-2.84,0.151-3.151,0.48-3.151,0.48S89.957,76.232,90.565,87.542z"/>
			</g>
			<g>
				<g>
					<path d="M90.605,87.698c-0.038-0.028-0.09-0.058-0.145-0.103c-0.054-0.045-0.105-0.106-0.139-0.164l-0.126-0.224l-0.232-0.405
						c-0.156-0.268-0.315-0.536-0.477-0.802c-0.325-0.53-0.663-1.052-1.017-1.562c-0.711-1.019-1.456-2.012-2.27-2.947
						c-0.811-0.935-1.684-1.815-2.616-2.62c-0.929-0.808-1.928-1.533-2.988-2.143c-2.112-1.233-4.525-1.93-6.96-1.894
						c-2.44,0.021-4.844,0.76-7.068,1.856l0,0l-0.219,0.116l-0.019-0.25c-0.09-1.203,0.06-2.444,0.495-3.598
						c0.435-1.153,1.169-2.203,2.109-3.013c0.932-0.822,2.052-1.41,3.222-1.79c1.171-0.386,2.403-0.558,3.627-0.565
						c2.453-0.014,4.883,0.653,7.014,1.826c2.138,1.167,3.954,2.879,5.28,4.881l0.148,0.222l-0.268,0.031
						c-0.529,0.062-1.057,0.133-1.577,0.224c-0.259,0.046-0.517,0.098-0.766,0.162c-0.124,0.031-0.246,0.067-0.362,0.106
						c-0.056,0.021-0.112,0.041-0.16,0.063c-0.025,0.011-0.045,0.023-0.064,0.032c-0.005,0.005-0.017,0.011-0.019,0.012
						c0.005-0.005-0.023,0.024,0.041-0.033l0.002-0.002l-0.168-0.588c0.198,0.062,0.333,0.126,0.485,0.203
						c0.148,0.074,0.288,0.157,0.427,0.243c0.274,0.174,0.529,0.371,0.768,0.582c0.483,0.419,0.897,0.902,1.265,1.411
						c0.733,1.023,1.271,2.16,1.671,3.328c0.403,1.17,0.682,2.374,0.87,3.587c0.095,0.607,0.17,1.216,0.227,1.825l0.038,0.458
						l0.019,0.229l0.009,0.116l0.007,0.135c0.008,0.181,0.004,0.375-0.015,0.556C90.641,87.377,90.618,87.542,90.605,87.698z
						 M90.523,87.388c-0.033-0.148-0.076-0.288-0.116-0.409c-0.04-0.122-0.064-0.232-0.077-0.355l-0.096-0.881
						c-0.073-0.601-0.163-1.2-0.272-1.794c-0.217-1.188-0.523-2.359-0.943-3.482c-0.418-1.122-0.965-2.197-1.678-3.138
						c-0.358-0.467-0.754-0.904-1.203-1.272c-0.222-0.185-0.456-0.356-0.701-0.502c-0.122-0.072-0.247-0.141-0.372-0.2
						c-0.119-0.058-0.266-0.116-0.36-0.142l-0.586-0.164l0.418-0.425l0.002-0.002c0.089-0.079,0.09-0.066,0.125-0.089
						c0.027-0.014,0.047-0.022,0.07-0.033c0.042-0.016,0.084-0.032,0.122-0.042c0.077-0.024,0.15-0.041,0.222-0.057
						c0.143-0.029,0.282-0.052,0.421-0.069c0.277-0.036,0.548-0.056,0.82-0.07c0.542-0.029,1.081-0.035,1.619-0.032l-0.122,0.254
						c-1.467-1.842-3.296-3.368-5.362-4.426c-2.062-1.059-4.363-1.656-6.668-1.656c-1.152-0.002-2.3,0.162-3.396,0.493
						c-1.092,0.336-2.13,0.855-3.009,1.577c-0.438,0.362-0.839,0.768-1.184,1.22c-0.346,0.452-0.632,0.948-0.865,1.471
						c-0.473,1.047-0.668,2.212-0.683,3.381l-0.237-0.135l0,0c1.077-0.656,2.225-1.216,3.437-1.613
						c1.211-0.396,2.483-0.644,3.769-0.68c1.285-0.047,2.579,0.119,3.82,0.458c1.24,0.345,2.424,0.868,3.528,1.512
						c2.21,1.298,4.091,3.063,5.694,5.013c0.803,0.976,1.548,1.998,2.219,3.066c0.337,0.532,0.657,1.076,0.964,1.624
						c0.152,0.276,0.304,0.551,0.445,0.832l0.212,0.422l0.052,0.106c0.014,0.03,0.043,0.084,0.04,0.086
						c0.001,0.012-0.013,0.021-0.032,0.045C90.542,87.307,90.526,87.346,90.523,87.388z"/>
				</g>
			</g>
		</g>
		<g>
			
				<ellipse transform="matrix(0.0207 -0.9998 0.9998 0.0207 -26.5459 133.6767)" class="st7" cx="54.964" cy="80.389" rx="3.472" ry="2.434"/>
			<path d="M54.927,84.056c-0.013,0-0.026,0-0.04,0c-1.447-0.03-2.59-1.698-2.548-3.717c0.041-2.019,1.247-3.638,2.701-3.608
				c1.447,0.03,2.59,1.698,2.548,3.717C57.547,82.448,56.356,84.056,54.927,84.056z M54.999,77.113
				c-1.222,0-2.241,1.441-2.278,3.234c-0.038,1.809,0.938,3.302,2.174,3.327c0.011,0,0.022,0,0.032,0
				c1.222,0,2.241-1.441,2.278-3.234c0.038-1.809-0.938-3.302-2.174-3.327C55.021,77.113,55.01,77.113,54.999,77.113z"/>
		</g>
		<g>
			
				<ellipse transform="matrix(0.0207 -0.9998 0.9998 0.0207 -35.3166 136.9195)" class="st7" cx="52.234" cy="86.487" rx="1.737" ry="1.217"/>
			<path d="M52.215,88.323c-0.007,0-0.013,0-0.02,0c-0.723-0.015-1.295-0.848-1.274-1.859c0.011-0.483,0.152-0.936,0.4-1.274
				c0.255-0.348,0.602-0.534,0.95-0.529c0.724,0.015,1.296,0.848,1.274,1.858C53.524,87.52,52.929,88.323,52.215,88.323z
				 M52.25,84.851c-0.287,0-0.562,0.16-0.776,0.452c-0.225,0.307-0.354,0.721-0.363,1.166c-0.019,0.904,0.469,1.651,1.088,1.664
				c0.005,0,0.011,0,0.016,0c0.611,0,1.121-0.721,1.139-1.617l0,0c0.019-0.904-0.469-1.651-1.088-1.663
				C52.262,84.851,52.256,84.851,52.25,84.851z"/>
		</g>
		<g>
			
				<ellipse transform="matrix(0.0207 -0.9998 0.9998 0.0207 -3.1183 157.5902)" class="st7" cx="78.884" cy="80.387" rx="3.472" ry="2.434"/>
			<path d="M78.847,84.056c-0.013,0-0.026,0-0.04,0c-1.447-0.03-2.59-1.698-2.548-3.717c0.02-0.966,0.304-1.871,0.8-2.548
				c0.511-0.698,1.196-1.073,1.9-1.059c1.447,0.03,2.59,1.698,2.548,3.717l0,0C81.467,82.448,80.277,84.056,78.847,84.056z
				 M78.92,77.113c-0.574,0-1.124,0.319-1.552,0.903c-0.45,0.615-0.708,1.443-0.727,2.331c-0.038,1.809,0.938,3.302,2.174,3.327
				c0.011,0,0.022,0,0.032,0c1.222,0,2.241-1.441,2.278-3.234c0.038-1.809-0.938-3.302-2.174-3.327
				C78.942,77.113,78.93,77.113,78.92,77.113z"/>
		</g>
		<g>
			
				<ellipse transform="matrix(0.0207 -0.9998 0.9998 0.0207 -11.8906 160.8325)" class="st7" cx="76.153" cy="86.486" rx="1.737" ry="1.217"/>
			<path d="M76.135,88.323c-0.007,0-0.013,0-0.02,0c-0.723-0.015-1.296-0.848-1.274-1.859c0.011-0.483,0.152-0.936,0.4-1.274
				c0.255-0.35,0.603-0.535,0.95-0.529c0.723,0.015,1.296,0.848,1.274,1.858c-0.011,0.483-0.152,0.936-0.4,1.274
				C76.815,88.136,76.485,88.323,76.135,88.323z M76.171,84.851c-0.287,0-0.562,0.16-0.776,0.452
				c-0.225,0.307-0.354,0.721-0.363,1.166c-0.019,0.904,0.469,1.651,1.088,1.664c0.294,0.002,0.574-0.154,0.792-0.451
				c0.225-0.307,0.354-0.721,0.363-1.166l0,0c0.019-0.904-0.469-1.651-1.088-1.663C76.183,84.851,76.177,84.851,76.171,84.851z"/>
		</g>
		<g>
			<path class="st9" d="M62.67,109.205c-0.443,0.012-0.883,0.037-1.313,0.051c-1.109,0.037-1.467,0.385-2.856,0.948
				c-0.682,0.277-1.417,0.569-1.778,1.21c-1.144-0.44-1.761-1.579-2.649-2.381c-1.36-1.227-1.371-2.737-1.677-3.474
				c-0.425-1.019,0.274-0.201,0.425-1.19c0.018-0.119,0.046-0.254,0.15-0.315c0.07-0.042,0.158-0.038,0.24-0.028
				c1.229,0.147,2.096,1.226,3.129,1.908c0.337,0.223,0.848-0.207,1.222-0.057c0.399,0.159,0.776-0.226,1.118-0.014
				c0.749,0.464,1.864,0.471,2.716,0.499c1.057,0.036,2.116,0.015,3.171-0.061c0.878-0.064,1.216,0.172,1.968-0.26l4.146-1.873
				c0.453-0.26,1.054-0.285,1.447,0.06c0.003,0.002,0.005,0.005,0.008,0.007c0.083,0.079,0.098,0.204,0.103,0.319
				c0.063,1.278-0.39,2.574-1.235,3.534c-0.545,0.62-0.912,1.31-1.278,2.04c-0.225,0.451-1.041,1.174-1.542,0.768
				c-0.886-0.718-1.909-1.147-3.018-1.463C64.367,109.205,63.515,109.182,62.67,109.205z"/>
		</g>
		<g>
			<path class="st10" d="M62.717,113.047c-0.841-0.04-1.679-0.147-2.503-0.321c-0.79-0.167-1.523-0.446-2.292-0.673
				c-0.493-0.145-1.611-0.362-0.845-1.018c0.578-0.495,1.279-0.849,1.983-1.127c0.737-0.291,1.398-0.331,2.154-0.5
				c0.996-0.221,1.811-0.311,2.817-0.139c0.957,0.163,1.763,0.515,2.683,0.826c0.536,0.181,1.11,0.376,1.442,0.867
				c0.253,0.376-2.759,1.907-3.038,1.977c-0.26,0.066-0.528,0.087-0.796,0.103C63.789,113.071,63.252,113.072,62.717,113.047z"/>
		</g>
		<g>
			<path d="M52.445,104.588c0.303,1.097,0.77,2.132,1.414,3.043c0.635,0.915,1.435,1.703,2.333,2.349
				c0.903,0.64,1.902,1.15,2.956,1.496c1.052,0.35,2.153,0.56,3.26,0.598c1.106,0.048,2.219-0.066,3.283-0.363
				c1.067-0.282,2.075-0.767,2.969-1.412c0.891-0.652,1.658-1.481,2.247-2.439c0.6-0.954,1.012-2.03,1.313-3.148l0.187,0.032
				c-0.118,1.17-0.431,2.334-0.962,3.414c-0.536,1.076-1.3,2.058-2.245,2.834c-0.938,0.787-2.052,1.351-3.216,1.721
				c-1.171,0.358-2.398,0.51-3.615,0.476c-2.432-0.085-4.852-0.896-6.78-2.401c-0.964-0.747-1.793-1.672-2.417-2.715
				c-0.619-1.045-1.03-2.207-1.188-3.392L52.445,104.588z"/>
		</g>
		<g>
			<path d="M56.7,111.411c0.66-0.854,1.595-1.493,2.605-1.908c0.255-0.096,0.513-0.189,0.773-0.274l0.796-0.201l0.811-0.121
				c0.272-0.019,0.545-0.041,0.818-0.052c1.092-0.017,2.189,0.138,3.22,0.493c1.028,0.351,2.006,0.9,2.756,1.673l-0.095,0.115
				c-0.885-0.564-1.845-0.95-2.835-1.198c-0.992-0.242-2.011-0.355-3.029-0.329c-0.253,0.02-0.507,0.027-0.761,0.041l-0.755,0.097
				l-0.748,0.144c-0.245,0.065-0.487,0.139-0.734,0.201c-0.969,0.307-1.894,0.766-2.725,1.411L56.7,111.411z"/>
		</g>
		<g>
			<g>
				<path class="st11" d="M77.089,93.791c-8.04,0.078-12.369,2.739-14.971,2.764c-2.602,0.025-6.983-2.55-15.022-2.472
					s-9.028,5.88-19.047,7.761c12.013,7.684,18.775-0.333,24.166,2.788s14.632,3.03,19.961-0.195
					c5.329-3.225,15.396,8.327,24.903-2.201C86.533,101.145,85.128,93.713,77.089,93.791z"/>
			</g>
			<g>
				<path d="M77.091,94.113c-2.124,0.046-4.238,0.299-6.302,0.767c-1.032,0.232-2.054,0.507-3.068,0.816
					c-1.015,0.312-2.021,0.653-3.064,0.963c-0.522,0.155-1.059,0.295-1.626,0.394c-0.285,0.046-0.578,0.083-0.886,0.089
					c-0.307,0.002-0.604-0.026-0.891-0.066c-1.138-0.181-2.16-0.512-3.19-0.8c-2.048-0.6-4.097-1.1-6.19-1.378
					c-1.045-0.141-2.097-0.231-3.152-0.275c-0.527-0.023-1.056-0.03-1.584-0.03l-0.778,0.02c-0.257,0.022-0.517,0.031-0.772,0.063
					c-1.024,0.116-2.037,0.328-2.998,0.702c-0.967,0.36-1.884,0.864-2.783,1.419c-0.898,0.558-1.783,1.165-2.694,1.743
					c-0.91,0.581-1.858,1.119-2.838,1.586c-1.965,0.933-4.065,1.552-6.194,1.893l0,0l0.062-0.319
					c1.289,0.774,2.631,1.456,4.026,1.992c1.395,0.534,2.845,0.91,4.317,1.085c1.471,0.187,2.961,0.174,4.436-0.001
					c1.477-0.17,2.936-0.5,4.417-0.831c1.477-0.317,3.01-0.673,4.64-0.527c0.808,0.073,1.626,0.303,2.352,0.698l0.496,0.268
					c0.157,0.089,0.325,0.163,0.488,0.244c0.162,0.082,0.331,0.152,0.499,0.224c0.167,0.075,0.337,0.141,0.507,0.206
					c1.365,0.529,2.807,0.881,4.27,1.084c1.463,0.209,2.949,0.268,4.428,0.213c1.479-0.06,2.953-0.253,4.388-0.592
					c1.431-0.35,2.833-0.829,4.11-1.528l0.489-0.275c0.185-0.106,0.38-0.198,0.579-0.274c0.398-0.154,0.815-0.247,1.227-0.291
					c0.829-0.087,1.634,0.005,2.401,0.161c1.538,0.319,2.967,0.851,4.4,1.327c1.428,0.483,2.855,0.937,4.312,1.223
					c1.454,0.29,2.939,0.396,4.399,0.222c1.458-0.175,2.879-0.656,4.159-1.402c1.282-0.744,2.434-1.716,3.466-2.802l0,0l0.112,0.291
					c-0.922-0.103-1.84-0.248-2.745-0.458c-0.903-0.219-1.792-0.501-2.654-0.851c-1.732-0.686-3.33-1.672-4.828-2.751
					c-1.503-1.073-2.945-2.224-4.557-3.046c-0.803-0.411-1.646-0.733-2.518-0.932C78.886,94.176,77.988,94.097,77.091,94.113z
					 M77.085,93.47c0.943,0.002,1.892,0.103,2.811,0.333s1.802,0.588,2.628,1.032c1.663,0.886,3.083,2.089,4.566,3.165
					c1.473,1.088,3.023,2.071,4.711,2.763c0.843,0.346,1.713,0.623,2.598,0.843c0.888,0.211,1.79,0.356,2.698,0.461l0.347,0.041
					l-0.236,0.252l0,0c-1,1.152-2.14,2.206-3.456,3.019c-1.308,0.822-2.796,1.382-4.336,1.617c-1.542,0.243-3.117,0.148-4.633-0.122
					c-1.521-0.268-2.993-0.706-4.439-1.164c-1.445-0.451-2.875-0.946-4.31-1.212c-0.715-0.129-1.432-0.201-2.111-0.119
					c-0.339,0.04-0.666,0.118-0.973,0.239c-0.154,0.06-0.301,0.132-0.444,0.216l-0.496,0.286c-1.372,0.767-2.848,1.307-4.354,1.675
					c-1.509,0.363-3.047,0.572-4.592,0.64c-1.544,0.07-3.094-0.005-4.627-0.229c-1.531-0.221-3.049-0.592-4.503-1.169
					c-0.182-0.072-0.363-0.145-0.541-0.228c-0.179-0.08-0.358-0.157-0.533-0.249c-0.175-0.089-0.353-0.171-0.523-0.27l-0.499-0.277
					c-0.601-0.334-1.267-0.531-1.963-0.604c-0.697-0.075-1.421-0.032-2.149,0.06c-0.729,0.09-1.463,0.229-2.203,0.375
					c-1.479,0.295-2.984,0.602-4.519,0.743c-1.533,0.146-3.092,0.13-4.619-0.106c-1.526-0.238-3.013-0.684-4.423-1.284
					c-1.414-0.596-2.748-1.352-4.01-2.203l-0.36-0.243l0.423-0.076l0,0c2.08-0.454,4.107-1.128,5.977-2.113
					c0.935-0.493,1.831-1.053,2.714-1.643c0.882-0.593,1.748-1.223,2.655-1.82c0.906-0.595,1.862-1.155,2.893-1.572
					c1.025-0.428,2.12-0.702,3.221-0.838c0.275-0.038,0.552-0.052,0.828-0.078l0.828-0.032c0.543-0.005,1.086-0.003,1.629,0.014
					c1.086,0.035,2.172,0.116,3.252,0.25c2.16,0.262,4.291,0.761,6.36,1.344c1.032,0.28,2.062,0.593,3.046,0.737
					c0.493,0.068,0.927,0.061,1.422-0.023c0.489-0.081,0.991-0.214,1.498-0.353c2.029-0.588,4.138-1.196,6.276-1.55
					C72.756,93.633,74.924,93.47,77.085,93.47z"/>
			</g>
		</g>
		<g class="st0">
			<path class="st1" d="M66.32,76.807c1.786-0.487,14.79-4.236,23.298,12.655c0.029-3.815-0.272-4.281-1.997-6.398
				c-1.724-2.117-3.695-5.384-7.299-6.914c-3.604-1.529-6.413-1.959-9.004-1.42C67.74,75.473,66.32,76.807,66.32,76.807z"/>
		</g>
		<g class="st0">
			<path class="st1" d="M59.214,76.828c-2.55-1.515-14.565-3.864-23.841,13.597c-0.102-3.476,0.041-5.108,1.447-6.901
				c1.406-1.794,4.078-5.243,8.275-7.521c2.756-1.496,4.702-1.979,7.858-1.47C56.109,75.041,59.214,76.828,59.214,76.828z"/>
		</g>
		<g class="st0">
			<path class="st1" d="M37.069,106.346c0.127,1.286,3.74,0.372,4.681,0.331c1.554-0.066,3.121-0.191,4.645-0.507
				c3.449-0.715,4.526-0.477,6.429,0.398c-0.428-1.008-0.004-2.199-0.004-2.199s-2.018-0.802-4.303-0.471
				c-2.284,0.331-4.641,1.526-7.071,1.379c-0.845-0.051-3.756-0.021-4.767-0.099C36.677,105.237,37.065,106.295,37.069,106.346z"/>
		</g>
		<g class="st0">
			<path class="st1" d="M72.05,106.172c2.096-0.57,3.111-1.277,4.7-0.382c3.043,1.714,9.431,3.004,10.215,3.037
				c0.784,0.034,0.664-1.828,0.664-1.828s-2.717-0.28-5.982-1.332s-6.424-2.049-7.617-1.797c-1.191,0.252-1.857,0.569-1.857,0.569
				S72.358,105.531,72.05,106.172z"/>
		</g>
		<g class="st0">
			<path class="st1" d="M58.393,111.512c0.681-0.743,7.549-0.929,8.972-0.123c0.929-0.31,0.929-0.31,0.929-0.31
				s-0.866-1.237-3.651-1.485s-5.107-0.15-7.565,1.441C57.527,111.451,58.393,111.512,58.393,111.512z"/>
		</g>
		<g>
			<g>
				<path class="st2" d="M57.378,118.63c1.953,2.508-6.916,8.663-10.98,6.979c-3.425-1.42-12.441-6.96-15.913-11.664
					c-4.27-5.784,13.158-22.151,16.226-15.028C50.588,107.914,52.664,112.577,57.378,118.63z"/>
			</g>
			<g>
				<path d="M57.886,118.235c0.201,0.25,0.346,0.572,0.397,0.894c0.054,0.323,0.028,0.636-0.036,0.913
					c-0.132,0.558-0.387,1.008-0.661,1.418c-0.561,0.81-1.234,1.467-1.948,2.062c-0.715,0.594-1.481,1.11-2.287,1.564
					c-0.805,0.454-1.65,0.845-2.545,1.137c-0.894,0.29-1.839,0.494-2.848,0.486c-0.503-0.008-1.024-0.072-1.539-0.24
					c-0.125-0.038-0.265-0.096-0.375-0.141l-0.318-0.14c-0.208-0.097-0.416-0.193-0.619-0.295c-1.623-0.804-3.148-1.718-4.646-2.683
					c-1.497-0.963-2.951-1.991-4.359-3.084c-1.406-1.094-2.77-2.25-4.034-3.528c-0.63-0.641-1.236-1.313-1.786-2.042l-0.205-0.274
					c-0.07-0.098-0.144-0.209-0.208-0.317c-0.129-0.22-0.236-0.454-0.317-0.693c-0.165-0.48-0.231-0.978-0.231-1.463
					c0.003-0.973,0.25-1.887,0.577-2.741c0.333-0.856,0.759-1.658,1.233-2.424c0.946-1.533,2.083-2.924,3.326-4.204
					s2.595-2.455,4.078-3.46c0.743-0.5,1.515-0.961,2.336-1.345c0.819-0.379,1.689-0.691,2.625-0.796
					c0.466-0.05,0.953-0.044,1.432,0.073c0.477,0.115,0.943,0.351,1.31,0.695c0.369,0.34,0.636,0.771,0.825,1.203l0.536,1.206
					c0.715,1.607,1.434,3.214,2.174,4.807c0.747,1.59,1.52,3.163,2.349,4.703c0.829,1.539,1.714,3.042,2.677,4.493
					C55.761,115.469,56.798,116.871,57.886,118.235z M56.87,119.026c-1.073-1.415-2.097-2.874-3.043-4.381
					c-0.949-1.507-1.815-3.063-2.609-4.65c-0.796-1.586-1.529-3.196-2.235-4.814c-0.711-1.616-1.396-3.239-2.079-4.864l-0.51-1.219
					c-0.154-0.378-0.363-0.709-0.639-0.971c-0.549-0.532-1.371-0.695-2.186-0.607c-0.819,0.089-1.633,0.376-2.407,0.734
					c-0.776,0.363-1.521,0.805-2.233,1.298c-1.424,0.986-2.736,2.142-3.931,3.402c-1.187,1.267-2.266,2.641-3.143,4.122
					c-0.432,0.743-0.813,1.514-1.096,2.309c-0.28,0.792-0.469,1.617-0.447,2.411c0.011,0.396,0.076,0.78,0.208,1.13
					c0.066,0.175,0.148,0.342,0.246,0.499c0.05,0.079,0.1,0.151,0.16,0.23l0.198,0.249c0.532,0.661,1.126,1.284,1.75,1.877
					c1.252,1.187,2.617,2.268,4.024,3.291c1.41,1.02,2.867,1.981,4.351,2.891c0.743,0.454,1.494,0.893,2.254,1.313
					c0.758,0.421,1.524,0.831,2.296,1.194c0.193,0.092,0.386,0.178,0.578,0.265l0.288,0.122c0.095,0.037,0.158,0.063,0.245,0.087
					c0.324,0.101,0.688,0.144,1.064,0.142c0.756,0.001,1.555-0.171,2.334-0.415c1.561-0.504,3.081-1.303,4.411-2.305
					c0.659-0.503,1.283-1.066,1.743-1.693c0.227-0.31,0.413-0.641,0.493-0.941c0.041-0.15,0.052-0.285,0.037-0.396
					C56.975,119.218,56.94,119.123,56.87,119.026z"/>
			</g>
		</g>
		<g>
			<g>
				<path class="st2" d="M67.549,118.63c-1.953,2.508,6.916,8.663,10.98,6.979c3.425-1.42,12.441-6.96,15.913-11.664
					c4.27-5.784-13.158-22.151-16.226-15.028C74.34,107.914,72.263,112.577,67.549,118.63z"/>
			</g>
			<g>
				<path d="M68.057,119.026c-0.069,0.098-0.105,0.192-0.119,0.306c-0.015,0.113-0.005,0.248,0.037,0.396
					c0.079,0.299,0.266,0.631,0.493,0.941c0.461,0.627,1.083,1.191,1.743,1.693c1.33,1.002,2.85,1.802,4.411,2.305
					c0.78,0.245,1.578,0.416,2.334,0.415c0.377,0.002,0.74-0.041,1.064-0.142c0.087-0.024,0.15-0.051,0.245-0.087l0.288-0.122
					c0.193-0.086,0.385-0.171,0.578-0.265c0.772-0.363,1.538-0.773,2.296-1.194c0.76-0.42,1.512-0.859,2.254-1.313
					c1.484-0.91,2.941-1.87,4.351-2.891c1.407-1.023,2.772-2.105,4.024-3.291c0.624-0.593,1.219-1.216,1.75-1.877l0.198-0.249
					c0.06-0.078,0.11-0.15,0.16-0.23c0.098-0.156,0.18-0.323,0.246-0.499c0.132-0.35,0.197-0.734,0.208-1.13
					c0.022-0.793-0.167-1.618-0.447-2.411c-0.284-0.795-0.664-1.566-1.096-2.309c-0.878-1.481-1.957-2.855-3.143-4.122
					c-1.195-1.26-2.507-2.417-3.931-3.402c-0.711-0.493-1.456-0.935-2.233-1.298c-0.774-0.359-1.588-0.646-2.407-0.734
					c-0.815-0.089-1.636,0.074-2.186,0.607c-0.277,0.262-0.486,0.594-0.639,0.971l-0.51,1.219c-0.683,1.624-1.369,3.248-2.079,4.864
					c-0.707,1.618-1.44,3.229-2.235,4.814c-0.794,1.586-1.659,3.143-2.609,4.65C70.154,116.152,69.13,117.611,68.057,119.026z
					 M67.041,118.235c1.089-1.365,2.124-2.766,3.087-4.218c0.963-1.451,1.848-2.954,2.677-4.493
					c0.829-1.539,1.602-3.113,2.349-4.703c0.74-1.592,1.459-3.199,2.174-4.807l0.536-1.206c0.189-0.431,0.456-0.864,0.825-1.203
					c0.366-0.344,0.832-0.579,1.31-0.695c0.48-0.118,0.966-0.123,1.432-0.073c0.936,0.105,1.805,0.416,2.625,0.796
					c0.819,0.383,1.592,0.845,2.336,1.345c1.482,1.005,2.834,2.18,4.078,3.46c1.243,1.28,2.38,2.671,3.326,4.204
					c0.474,0.766,0.9,1.568,1.233,2.424c0.327,0.855,0.574,1.769,0.577,2.741c0,0.484-0.066,0.983-0.231,1.463
					c-0.082,0.239-0.188,0.473-0.317,0.693c-0.064,0.109-0.138,0.219-0.208,0.317l-0.205,0.274c-0.55,0.729-1.157,1.4-1.786,2.042
					c-1.264,1.279-2.629,2.434-4.034,3.528c-1.407,1.093-2.862,2.121-4.359,3.084c-1.498,0.964-3.024,1.879-4.646,2.683
					c-0.203,0.101-0.411,0.198-0.619,0.295l-0.318,0.14c-0.109,0.045-0.249,0.103-0.375,0.141c-0.515,0.168-1.037,0.233-1.539,0.24
					c-1.008,0.008-1.953-0.196-2.848-0.486c-0.896-0.291-1.74-0.683-2.545-1.137s-1.572-0.971-2.287-1.564
					c-0.714-0.595-1.386-1.252-1.948-2.062c-0.274-0.409-0.529-0.859-0.661-1.418c-0.064-0.278-0.091-0.591-0.036-0.913
					C66.697,118.806,66.84,118.485,67.041,118.235z"/>
			</g>
		</g>
		<g class="st0">
			<path class="st1" d="M98.125,60.975c0.191,0.191,5.605,7.299,5.266,9.573c-0.478,3.208-9,13.355-9,13.355l-0.659,5.563
				l-1.447-1.542l0.048,4.931c0,0,4.883-8.52,5.744-9.717c0.862-1.197,11.44-11.537,11.44-11.537L98.125,60.975z"/>
		</g>
		<g class="st0">
			<path class="st1" d="M30.315,112.799c-1.264,1.899-2.53,6.825-3.942,7.151c-2.263,0.522-3.86-2.185-6.911-0.887
				s-7.749,2.462-8.62,2.399c1.306,0.598,2.221,0.608,2.563,0.672c0.343,0.064,5.297-0.932,7.875-1.127
				c1.332-0.101,6.575,1.399,6.575,1.399s0.959-2.061,1.65-2.896c0.69-0.835,2.997-3.408,2.997-3.408L30.315,112.799z"/>
		</g>
		<g class="st0">
			<path class="st1" d="M37.236,119.422c1.388,0.814,7.324,3.141,9.86,3.303c3.015,0.191,8.042-1.771,9.669-4.595
				c0,0,1.101,1.149,0.766,1.962c-0.335,0.814-2.059,3.255-3.686,4.069c-1.627,0.814-5.983,2.537-7.564,1.771
				C44.703,125.167,37.236,119.422,37.236,119.422z"/>
		</g>
		<g class="st0">
			<path class="st1" d="M87.929,119.23c-1.388,0.814-7.324,3.141-9.86,3.303c-3.015,0.191-8.042-1.771-9.669-4.595
				c0,0-1.101,1.149-0.766,1.962c0.335,0.814,2.059,3.255,3.686,4.069s5.983,2.537,7.564,1.771
				C80.462,124.975,87.929,119.23,87.929,119.23z"/>
		</g>
		<g>
			<g>
				<path class="st12" d="M88.911,52.581c0,0-0.242-6.549-0.399-9.688c-0.128-2.564-0.173-2.516,2.434-2.644
					c2.607-0.128,9.688-0.399,9.688-0.399l8.077,7.612L97.162,60.094L88.911,52.581z"/>
			</g>
			<g>
				<path d="M88.804,52.63c-0.168-1.969-0.28-3.983-0.376-5.998c-0.054-1.007-0.084-2.018-0.126-3.026l-0.063-1.509
					c-0.008-0.253-0.014-0.507,0.007-0.776c0.008-0.068,0.011-0.135,0.022-0.203l0.046-0.212c0.024-0.073,0.057-0.146,0.087-0.219
					c0.046-0.069,0.092-0.142,0.149-0.201c0.122-0.119,0.266-0.198,0.404-0.248c0.069-0.021,0.138-0.044,0.205-0.061l0.2-0.038
					c0.263-0.041,0.517-0.06,0.77-0.074c0.504-0.03,1.001-0.047,1.502-0.062l2.999-0.1c1.999-0.073,3.999-0.114,5.999-0.171l0,0
					l0.049-0.002l0.036,0.034l8.076,7.612l0.084,0.079l-0.077,0.085l-11.55,12.633l-0.079,0.086l-0.086-0.078L88.804,52.63z
					 M89.016,52.531l8.224,7.476l-0.165,0.008l11.549-12.634l0.005,0.164l-8.077-7.612l0.085,0.032l0,0
					c-1.997,0.107-3.994,0.231-5.991,0.323l-2.996,0.148l-1.494,0.079c-0.246,0.017-0.49,0.037-0.722,0.074
					c-0.233,0.035-0.443,0.103-0.554,0.217c-0.113,0.106-0.158,0.321-0.172,0.553c-0.017,0.23-0.011,0.477-0.002,0.722l0.07,1.489
					c0.041,0.991,0.092,1.978,0.121,2.969C88.966,48.521,89.019,50.505,89.016,52.531z"/>
			</g>
		</g>
		<g>
			<g>
				<g>
					<path class="st13" d="M89.841,44.234c0.355-0.385-0.069-1.702,0.428-2.25c0.533-0.588,1.863-0.183,2.221-0.571
						c0.16-0.173,0.056-0.723-0.06-1.234c-0.572,0.025-1.08,0.048-1.482,0.068c-2.607,0.128-2.563,0.08-2.434,2.644
						c0.022,0.432,0.045,0.931,0.069,1.467C89.103,44.395,89.675,44.415,89.841,44.234z"/>
				</g>
				<g>
					<path d="M89.754,44.155c0.111-0.135,0.123-0.399,0.129-0.635c0.004-0.243-0.005-0.493,0.012-0.75
						c0.022-0.252,0.052-0.526,0.212-0.767c0.164-0.242,0.437-0.372,0.691-0.424c0.257-0.057,0.511-0.068,0.759-0.078
						c0.246-0.011,0.496-0.016,0.701-0.083c0.046-0.02,0.094-0.04,0.122-0.069c0.021-0.014,0.027-0.024,0.036-0.038
						c0.008-0.015,0.015-0.036,0.021-0.058c0.021-0.096,0.018-0.215,0.007-0.331c-0.024-0.236-0.076-0.477-0.13-0.717v0l0.119,0.091
						c-0.628,0.048-1.256,0.089-1.885,0.128c-0.313,0.024-0.627,0.037-0.93,0.075c-0.299,0.037-0.608,0.096-0.776,0.26
						c-0.164,0.162-0.197,0.473-0.209,0.772c-0.012,0.304,0.008,0.619,0.014,0.932c0.024,0.629,0.038,1.26,0.05,1.89l-0.108-0.111
						l0,0c0.214,0.014,0.427,0.026,0.635,0.023c0.103-0.002,0.207-0.008,0.304-0.024C89.623,44.227,89.719,44.194,89.754,44.155z
						 M89.927,44.313c-0.121,0.116-0.247,0.135-0.36,0.157c-0.116,0.019-0.228,0.025-0.339,0.028
						c-0.222,0.005-0.44-0.008-0.656-0.023l0,0l-0.101-0.004l-0.008-0.107c-0.05-0.628-0.091-1.256-0.13-1.885
						c-0.02-0.317-0.036-0.631-0.029-0.957c-0.001-0.08,0.005-0.163,0.013-0.247c0.005-0.083,0.016-0.167,0.037-0.253
						c0.027-0.17,0.112-0.356,0.248-0.5c0.074-0.066,0.151-0.13,0.236-0.165c0.083-0.048,0.167-0.07,0.25-0.095
						c0.167-0.046,0.331-0.072,0.49-0.089c0.323-0.037,0.637-0.051,0.954-0.062c0.63-0.024,1.26-0.038,1.891-0.048l0.1-0.002
						l0.019,0.092v0.001c0.054,0.243,0.108,0.489,0.135,0.746c0.011,0.129,0.019,0.261-0.012,0.409
						c-0.011,0.038-0.022,0.076-0.043,0.116c-0.022,0.041-0.056,0.079-0.086,0.101c-0.061,0.057-0.131,0.086-0.198,0.114
						c-0.27,0.087-0.523,0.083-0.77,0.097c-0.247,0.011-0.49,0.023-0.718,0.073c-0.23,0.046-0.432,0.154-0.55,0.326
						c-0.119,0.174-0.154,0.416-0.172,0.652c-0.017,0.239-0.008,0.485-0.012,0.737c-0.004,0.127-0.005,0.253-0.027,0.387
						C90.066,44.042,90.038,44.186,89.927,44.313z"/>
				</g>
			</g>
		</g>
		<g>
			<g>
				<path class="st14" d="M116.207,77.593l-5.905-5.437c-0.953-0.878-1.015-2.376-0.138-3.33l8.514-9.246
					c0.878-0.953,2.376-1.015,3.33-0.138l5.905,5.437c0.953,0.878,1.015,2.376,0.138,3.33l-8.514,9.246
					C118.659,78.41,117.161,78.471,116.207,77.593z"/>
			</g>
			<g>
				<path d="M116.076,77.736l-5.118-4.774l-0.639-0.597c-0.215-0.195-0.438-0.433-0.585-0.702c-0.307-0.538-0.399-1.19-0.261-1.79
					c0.068-0.301,0.193-0.588,0.366-0.843c0.178-0.26,0.39-0.461,0.584-0.676l1.189-1.284l4.753-5.137
					c0.798-0.856,1.571-1.714,2.389-2.568c0.448-0.412,1.055-0.64,1.66-0.639c0.607-0.003,1.212,0.23,1.66,0.641l5.154,4.734
					l0.644,0.591c0.217,0.193,0.439,0.422,0.588,0.688c0.314,0.528,0.409,1.175,0.288,1.78c-0.06,0.303-0.179,0.596-0.347,0.858
					c-0.041,0.067-0.085,0.131-0.136,0.19c-0.049,0.061-0.098,0.124-0.145,0.176l-0.289,0.329l-1.157,1.314
					c-0.778,0.869-1.559,1.734-2.352,2.59c-0.787,0.861-1.579,1.717-2.374,2.57l-1.192,1.281l-0.597,0.639l-0.298,0.32l-0.149,0.16
					l-0.17,0.166c-0.473,0.429-1.108,0.668-1.741,0.661C117.168,78.415,116.539,78.167,116.076,77.736z M116.339,77.451
					c0.397,0.36,0.929,0.56,1.463,0.554c0.533-0.002,1.06-0.209,1.447-0.571l0.141-0.142l0.147-0.162l0.294-0.324l0.588-0.648
					l1.178-1.294c0.784-0.863,1.573-1.722,2.366-2.578c0.788-0.86,1.587-1.71,2.388-2.558l1.214-1.261
					c0.201-0.214,0.417-0.415,0.57-0.629c0.157-0.22,0.274-0.473,0.34-0.738c0.135-0.532,0.054-1.119-0.215-1.603
					c-0.135-0.247-0.315-0.449-0.533-0.645l-0.643-0.593l-5.143-4.746c-0.412-0.379-0.967-0.595-1.528-0.593
					c-0.56-0.003-1.117,0.214-1.528,0.592c-0.791,0.835-1.577,1.712-2.366,2.566l-4.727,5.159l-1.181,1.291
					c-0.195,0.219-0.406,0.425-0.555,0.649c-0.154,0.228-0.263,0.485-0.322,0.753c-0.119,0.537-0.034,1.118,0.242,1.592
					c0.138,0.243,0.317,0.436,0.536,0.63l0.647,0.588L116.339,77.451z"/>
			</g>
		</g>
		<g>
			<path class="st15" d="M100.749,40.06c-1.333-1.228,2.332,5.505,1.465,6.447c-0.866,0.942-5.358-1.206-6.65,0.219
				c-1.204,1.328,1.09,5.686,0.23,6.62c-0.861,0.935-7.561-1.563-6.628-0.705c1.033,0.951,16.725,15.4,16.725,15.4l2.626-2.851
				l0.14-0.152l6.211-6.746l0.127-0.138l2.48-2.693C117.474,55.461,102.222,41.417,100.749,40.06z"/>
		</g>
		<g class="st16">
			<polygon class="st7" points="117.319,55.57 114.771,58.287 102.395,46.631 100.546,39.839 			"/>
		</g>
		<g>
			<rect x="108.466" y="43.764" transform="matrix(0.6774 -0.7356 0.7356 0.6774 -3.5519 96.7929)" width="0.233" height="17.364"/>
		</g>
		<g>
			<rect x="102.103" y="50.63" transform="matrix(0.6775 -0.7355 0.7355 0.6775 -10.6687 94.3152)" width="0.233" height="17.388"/>
		</g>
		<g>
			<g>
				
					<rect x="106.777" y="60.532" transform="matrix(0.6774 -0.7356 0.7356 0.6774 -10.7037 105.932)" class="st17" width="17.299" height="9.275"/>
			</g>
			<g>
				<path d="M112.985,74.783l-6.977-6.238l-0.164-0.146l0.151-0.164l11.735-12.709l0.134-0.145l0.142,0.134l6.77,6.341l0.085,0.08
					l-0.078,0.085L112.985,74.783z M112.975,74.551l11.637-12.688l0.007,0.165l-6.877-6.224l0.276-0.011l-11.7,12.742l-0.013-0.31
					L112.975,74.551z"/>
			</g>
		</g>
		<g>
			<g>
				<g>
					<polygon class="st17" points="106.361,59.468 108.206,61.167 110.32,60.724 110.588,58.581 108.742,56.882 106.628,57.325 
											"/>
				</g>
				<g>
					<path d="M106.454,59.434l1.819,1.66l-0.089-0.024l2.091-0.555l-0.168,0.183l0.38-2.129l0.031,0.086l-1.846-1.699l0.089,0.024
						l-2.088,0.565l0.176-0.191L106.454,59.434z M106.267,59.503l0.139-2.206l0.011-0.167l0.166-0.025l2.14-0.322l0.054-0.008
						l0.035,0.032l1.846,1.699l0.036,0.033l-0.004,0.054l-0.155,2.157l-0.011,0.158l-0.156,0.024l-2.137,0.333l-0.054,0.008
						l-0.035-0.033L106.267,59.503z"/>
				</g>
			</g>
			<g>
				<g>
					<path class="st7" d="M106.984,58.769l1.071-1.163l0.311,0.286l0.203,1.176c0.064,0.303,0.151,0.505,0.26,0.605
						c0.089,0.082,0.171,0.128,0.246,0.139c0.075,0.011,0.14-0.013,0.195-0.073c0.054-0.058,0.067-0.135,0.04-0.228
						c-0.028-0.093-0.089-0.183-0.181-0.268l0.356-0.387c0.126,0.117,0.219,0.249,0.28,0.399c0.061,0.15,0.078,0.298,0.054,0.444
						c-0.024,0.146-0.087,0.276-0.19,0.388c-0.166,0.18-0.345,0.271-0.537,0.274s-0.384-0.085-0.577-0.262
						c-0.081-0.074-0.149-0.159-0.203-0.254s-0.1-0.207-0.136-0.336c-0.037-0.129-0.073-0.317-0.109-0.56l-0.108-0.498l-0.604,0.656
						L106.984,58.769z"/>
				</g>
			</g>
		</g>
		<g class="st16">
			
				<rect x="117.913" y="55.843" transform="matrix(0.6834 -0.7301 0.7301 0.6834 -6.6461 106.1924)" class="st7" width="2.382" height="9.83"/>
		</g>
		<g>
			
				<rect x="104.488" y="62.731" transform="matrix(0.6774 -0.7356 0.7356 0.6774 -9.9333 103.6391)" class="st15" width="17.419" height="0.827"/>
			<path d="M107.614,69.91l-0.695-0.639l0.04-0.043l11.839-12.857l0.695,0.639l-0.04,0.043L107.614,69.91z M107.085,69.264
				l0.523,0.481l11.72-12.729l-0.523-0.481L107.085,69.264z"/>
		</g>
		<g>
			
				<rect x="108.933" y="66.826" transform="matrix(0.6774 -0.7356 0.7356 0.6774 -11.5109 108.2298)" class="st15" width="17.419" height="0.827"/>
			<path d="M112.06,74.004l-0.695-0.639l0.04-0.043l11.839-12.858l0.695,0.639l-0.04,0.043L112.06,74.004z M111.53,73.357
				l0.523,0.481l11.72-12.729l-0.523-0.481L111.53,73.357z"/>
		</g>
		<g>
			<path d="M119.1,58.41c0.291,0.165,0.556,0.356,0.814,0.558c0.259,0.2,0.504,0.415,0.744,0.634
				c0.237,0.223,0.471,0.449,0.691,0.691c0.221,0.24,0.435,0.489,0.624,0.764c-0.289-0.167-0.555-0.359-0.813-0.559
				c-0.259-0.2-0.504-0.413-0.746-0.632c-0.238-0.221-0.472-0.448-0.692-0.689C119.501,58.936,119.288,58.686,119.1,58.41z"/>
		</g>
		<g>
			<path d="M108.94,69.445c0.291,0.165,0.556,0.356,0.814,0.558c0.259,0.2,0.504,0.415,0.744,0.634
				c0.237,0.223,0.471,0.449,0.691,0.691c0.221,0.24,0.435,0.489,0.624,0.764c-0.289-0.167-0.555-0.359-0.813-0.559
				c-0.259-0.2-0.504-0.413-0.746-0.632c-0.238-0.221-0.472-0.448-0.692-0.689C109.341,69.97,109.129,69.721,108.94,69.445z"/>
		</g>
		<g>
			<path d="M117.83,59.79c0.291,0.165,0.556,0.356,0.814,0.558c0.259,0.2,0.504,0.415,0.744,0.634
				c0.237,0.223,0.471,0.449,0.691,0.691c0.221,0.24,0.435,0.489,0.624,0.764c-0.289-0.167-0.555-0.359-0.813-0.559
				c-0.259-0.2-0.504-0.413-0.746-0.632c-0.238-0.221-0.472-0.448-0.692-0.689C118.231,60.315,118.018,60.066,117.83,59.79z"/>
		</g>
		<g>
			<path d="M116.56,61.169c0.291,0.165,0.556,0.356,0.814,0.558c0.259,0.2,0.504,0.415,0.744,0.634
				c0.237,0.223,0.471,0.449,0.691,0.691c0.221,0.24,0.435,0.489,0.624,0.764c-0.289-0.167-0.555-0.359-0.813-0.559
				c-0.259-0.2-0.504-0.413-0.746-0.632c-0.238-0.221-0.472-0.448-0.692-0.689C116.961,61.695,116.749,61.445,116.56,61.169z"/>
		</g>
		<g>
			<path d="M115.29,62.548c0.291,0.165,0.556,0.356,0.813,0.558c0.259,0.2,0.504,0.415,0.744,0.634
				c0.237,0.223,0.471,0.449,0.691,0.691c0.221,0.24,0.435,0.489,0.624,0.764c-0.289-0.167-0.555-0.359-0.813-0.559
				c-0.259-0.2-0.504-0.413-0.746-0.632c-0.238-0.221-0.472-0.448-0.692-0.689C115.691,63.073,115.478,62.824,115.29,62.548z"/>
		</g>
		<g>
			<path d="M114.02,63.928c0.291,0.165,0.556,0.356,0.814,0.558c0.259,0.2,0.504,0.415,0.744,0.634
				c0.237,0.223,0.471,0.449,0.691,0.691c0.221,0.24,0.435,0.489,0.624,0.764c-0.289-0.167-0.555-0.359-0.813-0.559
				c-0.259-0.2-0.504-0.413-0.746-0.632c-0.238-0.221-0.472-0.448-0.692-0.689C114.421,64.453,114.208,64.203,114.02,63.928z"/>
		</g>
		<g>
			<path d="M112.75,65.307c0.291,0.165,0.556,0.356,0.814,0.558c0.259,0.2,0.504,0.415,0.744,0.634
				c0.237,0.223,0.471,0.449,0.691,0.691c0.221,0.24,0.435,0.489,0.624,0.764c-0.289-0.167-0.555-0.359-0.813-0.559
				c-0.259-0.2-0.504-0.413-0.746-0.632c-0.238-0.221-0.472-0.448-0.692-0.689C113.151,65.833,112.939,65.583,112.75,65.307z"/>
		</g>
		<g>
			<path d="M111.48,66.686c0.291,0.165,0.556,0.356,0.814,0.558c0.259,0.2,0.504,0.415,0.744,0.634
				c0.237,0.223,0.471,0.449,0.691,0.691c0.221,0.24,0.435,0.489,0.624,0.764c-0.289-0.167-0.555-0.359-0.813-0.559
				c-0.259-0.2-0.504-0.413-0.746-0.632c-0.238-0.221-0.472-0.448-0.692-0.689C111.881,67.211,111.668,66.963,111.48,66.686z"/>
		</g>
		<g>
			<path d="M110.21,68.065c0.291,0.165,0.556,0.356,0.814,0.558c0.259,0.2,0.504,0.415,0.744,0.634
				c0.237,0.223,0.471,0.449,0.691,0.691c0.221,0.24,0.435,0.489,0.624,0.764c-0.289-0.167-0.555-0.359-0.813-0.559
				c-0.259-0.2-0.504-0.413-0.746-0.632c-0.238-0.221-0.472-0.448-0.692-0.689C110.611,68.591,110.398,68.341,110.21,68.065z"/>
		</g>
		<g>
			<path d="M112.985,74.783l-6.977-6.238l-0.164-0.146l0.151-0.164l11.735-12.709l0.134-0.145l0.142,0.134l6.77,6.341l0.082,0.077
				l-0.075,0.087c-0.948,1.096-1.918,2.183-2.895,3.265c-0.974,1.088-1.967,2.152-2.953,3.228c-0.99,1.07-1.986,2.124-2.978,3.177
				l-1.49,1.561L112.985,74.783z M112.975,74.551l1.447-1.649l1.44-1.62c0.961-1.068,1.917-2.134,2.88-3.186
				c0.967-1.044,1.927-2.102,2.906-3.135c0.976-1.039,1.96-2.073,2.964-3.098l0.007,0.165l-6.877-6.224l0.276-0.011l-11.7,12.742
				l-0.013-0.31L112.975,74.551z"/>
		</g>
		<g>
			<path d="M100.641,40.177c-0.044-0.04-0.093-0.079-0.129-0.099c-0.011-0.013-0.041-0.001,0.028-0.008
				c0.04-0.008,0.072-0.05,0.073-0.06c0.005-0.011,0.003-0.008,0.003-0.004c-0.001,0.072,0.036,0.213,0.072,0.329
				c0.073,0.244,0.175,0.487,0.274,0.73c0.197,0.487,0.427,0.965,0.639,1.451c0.215,0.485,0.428,0.974,0.623,1.475
				c0.197,0.502,0.374,1.011,0.477,1.579c0.023,0.144,0.041,0.292,0.041,0.454c-0.002,0.162-0.005,0.339-0.105,0.559
				c-0.121,0.252-0.331,0.375-0.504,0.446c-0.18,0.073-0.345,0.096-0.501,0.11c-0.312,0.026-0.593-0.004-0.868-0.038
				c-0.275-0.035-0.541-0.086-0.802-0.143c-0.523-0.111-1.035-0.233-1.546-0.333c-0.509-0.095-1.023-0.187-1.524-0.17
				c-0.493,0.007-1,0.14-1.246,0.5c-0.122,0.178-0.182,0.411-0.207,0.651c-0.022,0.242-0.008,0.494,0.02,0.747
				c0.135,1.015,0.483,2.011,0.74,3.057c0.063,0.264,0.116,0.532,0.152,0.815c0.032,0.285,0.056,0.578-0.029,0.93
				c-0.05,0.176-0.125,0.372-0.333,0.543c-0.203,0.15-0.382,0.184-0.544,0.215c-0.323,0.05-0.607,0.032-0.886,0.004
				c-0.555-0.056-1.079-0.188-1.599-0.315c-0.519-0.132-1.03-0.28-1.539-0.429c-0.509-0.145-1.019-0.287-1.528-0.404
				c-0.127-0.03-0.254-0.057-0.379-0.077c-0.119-0.021-0.265-0.04-0.333-0.032c-0.005,0-0.008,0.003,0.011-0.005
				c0.008-0.004,0.025-0.013,0.044-0.035c0.023-0.023,0.037-0.065,0.038-0.093c0-0.061-0.014-0.067-0.013-0.07
				c-0.001-0.002,0.003,0.005,0.009,0.011c0.023,0.024,0.086,0.08,0.13,0.122l0.292,0.268l2.333,2.149l4.667,4.295l4.688,4.273
				c1.57,1.416,3.135,2.838,4.713,4.245l0.001,0.001l-0.423,0.018l11.565-12.597l0.001-0.001l0.019,0.46
				c-1.363-1.317-2.745-2.613-4.117-3.92l-4.149-3.886c-1.379-1.3-2.78-2.576-4.17-3.863L100.641,40.177z M100.856,39.943
				l4.185,3.846c1.398,1.28,2.785,2.571,4.193,3.837l4.214,3.815c1.415,1.259,2.821,2.53,4.246,3.78l0.239,0.21l-0.22,0.249
				l-0.001,0.001l-11.603,12.563l-0.203,0.22l-0.219-0.203l-0.001-0.001c-1.532-1.458-3.078-2.899-4.619-4.348l-4.644-4.319
				l-4.665-4.298l-2.334-2.147l-0.292-0.268c-0.051-0.049-0.089-0.078-0.157-0.15c-0.016-0.018-0.033-0.038-0.051-0.068
				c-0.016-0.032-0.045-0.069-0.044-0.163c0.001-0.045,0.024-0.103,0.057-0.138c0.03-0.034,0.061-0.053,0.085-0.064
				c0.048-0.023,0.077-0.025,0.106-0.03c0.196-0.017,0.314,0.014,0.455,0.033c0.135,0.024,0.266,0.051,0.398,0.077l1.555,0.336
				c1.032,0.2,2.08,0.398,3.084,0.456c0.247,0.011,0.496,0.011,0.696-0.024c0.097-0.016,0.18-0.053,0.189-0.065
				c-0.004,0.003,0.012-0.014,0.025-0.035c0.014-0.021,0.026-0.056,0.038-0.094c0.048-0.162,0.041-0.407,0.024-0.646
				c-0.019-0.243-0.058-0.495-0.101-0.75c-0.163-1.024-0.431-2.066-0.494-3.16c-0.017-0.274-0.018-0.553,0.02-0.836
				c0.036-0.282,0.109-0.578,0.291-0.837c0.182-0.26,0.447-0.444,0.724-0.545c0.277-0.103,0.56-0.151,0.838-0.174
				c1.112-0.075,2.175,0.126,3.214,0.252c0.513,0.058,1.04,0.134,1.48,0.095c0.106-0.011,0.205-0.03,0.27-0.058
				c0.068-0.026,0.093-0.064,0.087-0.054c0.014-0.021,0.035-0.115,0.035-0.215c0.002-0.103-0.008-0.219-0.024-0.336
				c-0.062-0.477-0.203-0.981-0.339-1.481c-0.142-0.501-0.304-1.002-0.47-1.502c-0.17-0.5-0.333-1.003-0.509-1.505
				c-0.087-0.252-0.168-0.506-0.246-0.767c-0.034-0.138-0.077-0.254-0.074-0.447c0.003-0.028,0.007-0.058,0.024-0.1
				c0.014-0.041,0.07-0.109,0.142-0.125c0.069-0.016,0.111-0.002,0.141,0.008c0.032,0.011,0.053,0.023,0.074,0.035
				C100.75,39.847,100.802,39.894,100.856,39.943z"/>
		</g>
		<g class="st0">
			<path class="st1" d="M125.171,62.362l-0.473-0.422l-8.958,9.782c-5.857-5.421-13.682-12.487-19.865-18.311
				c-0.081-0.075-1.672,0.141-1.672,0.141l-3.181-0.723L88.9,52.472l27.751,25.543l1.867,0.191l2.154-1.914
				c0,0-1.789-1.661-4.449-4.124L125.171,62.362z"/>
		</g>
		<g class="st16">
			<path class="st7" d="M91.695,41.604l-3.255-0.798c0,0-0.064-0.287,0.478-0.319c0.542-0.032,3.671,0.351,3.671,0.351l-0.064,0.639
				L91.695,41.604z"/>
		</g>
		<g>
			<g>
				<path d="M89.754,44.155c0.111-0.135,0.123-0.399,0.129-0.635c0.004-0.243-0.005-0.493,0.012-0.75
					c0.022-0.252,0.052-0.526,0.212-0.767c0.164-0.242,0.437-0.372,0.691-0.424c0.257-0.057,0.511-0.068,0.759-0.078
					c0.246-0.011,0.496-0.016,0.701-0.083c0.046-0.02,0.094-0.04,0.122-0.069c0.021-0.014,0.027-0.024,0.036-0.038
					c0.008-0.015,0.015-0.036,0.021-0.058c0.021-0.096,0.018-0.215,0.007-0.331c-0.024-0.236-0.076-0.477-0.13-0.717v0l0.119,0.091
					c-0.628,0.048-1.256,0.089-1.885,0.128c-0.313,0.024-0.627,0.037-0.93,0.075c-0.299,0.037-0.608,0.096-0.776,0.26
					c-0.164,0.162-0.197,0.473-0.209,0.772c-0.012,0.304,0.008,0.619,0.014,0.932c0.024,0.629,0.038,1.26,0.05,1.89l-0.108-0.111
					l0,0c0.214,0.014,0.427,0.026,0.635,0.023c0.103-0.002,0.207-0.008,0.304-0.024C89.623,44.227,89.719,44.194,89.754,44.155z
					 M89.927,44.313c-0.121,0.116-0.247,0.135-0.36,0.157c-0.116,0.019-0.228,0.025-0.339,0.028
					c-0.222,0.005-0.44-0.008-0.656-0.023l0,0l-0.101-0.004l-0.008-0.107c-0.05-0.628-0.091-1.256-0.13-1.885
					c-0.02-0.317-0.036-0.631-0.029-0.957c-0.001-0.08,0.005-0.163,0.013-0.247c0.005-0.083,0.016-0.167,0.037-0.253
					c0.027-0.17,0.112-0.356,0.248-0.5c0.074-0.066,0.151-0.13,0.236-0.165c0.083-0.048,0.167-0.07,0.25-0.095
					c0.167-0.046,0.331-0.072,0.49-0.089c0.323-0.037,0.637-0.051,0.954-0.062c0.63-0.024,1.26-0.038,1.891-0.048l0.1-0.002
					l0.019,0.092v0.001c0.054,0.243,0.108,0.489,0.135,0.746c0.011,0.129,0.019,0.261-0.012,0.409
					c-0.011,0.038-0.022,0.076-0.043,0.116c-0.022,0.041-0.056,0.079-0.086,0.101c-0.061,0.057-0.131,0.086-0.198,0.114
					c-0.27,0.087-0.523,0.083-0.77,0.097c-0.247,0.011-0.49,0.023-0.718,0.073c-0.23,0.046-0.432,0.154-0.55,0.326
					c-0.119,0.174-0.154,0.416-0.172,0.652c-0.017,0.239-0.008,0.485-0.012,0.737c-0.004,0.127-0.005,0.253-0.027,0.387
					C90.066,44.042,90.038,44.186,89.927,44.313z"/>
			</g>
		</g>
		<g>
			<path class="st17" d="M103.425,54.792c0.058-0.033,0.151-0.004,0.228-0.005c0.054-0.001,0.107-0.007,0.161-0.011
				c-0.012-0.053-0.011-0.115-0.041-0.155c-0.06-0.082-0.132-0.157-0.207-0.225c-0.167-0.15-0.339-0.293-0.542-0.467
				c-0.012,0.089-0.034,0.138-0.019,0.157c0.085,0.108,0.013,0.173-0.062,0.227c-0.214,0.154-0.603,0.164-0.817-0.012
				c-0.156-0.129-0.157-0.273,0.002-0.402c0.119-0.096,0.249-0.181,0.382-0.257c0.328-0.187,0.666-0.303,1.057-0.198
				c0.424,0.115,0.598,0.534,0.31,0.929c0.105,0.046,0.201,0.13,0.279,0.116c0.187-0.035,0.367-0.114,0.549-0.177
				c0.095-0.033,0.08-0.093,0.017-0.135c-0.037-0.025-0.099-0.033-0.144-0.024c-0.152,0.031-0.212-0.038-0.222-0.179
				c-0.003-0.04-0.004-0.08-0.017-0.117c-0.19-0.555-0.962-1.025-1.552-0.962c-0.388,0.042-0.719,0.181-0.994,0.467
				c-0.233,0.242-0.309,0.698-0.123,0.967c0.203,0.293,0.5,0.472,0.829,0.564C102.806,54.981,103.127,54.959,103.425,54.792z"/>
			<path class="st17" d="M96.735,48.383c0.368-0.128,0.561-0.44,0.522-0.821c-0.011-0.097-0.042-0.216-0.107-0.28
				c-0.27-0.263-0.551-0.509-0.816-0.749c-0.284,0.073-0.537,0.201-0.688,0.422c-0.109,0.159-0.163,0.363-0.193,0.576
				c0.256-0.119,0.512-0.238,0.768-0.358c0.113-0.053,0.223-0.119,0.343-0.143c0.07-0.014,0.158,0.031,0.229,0.069
				c0.053,0.028,0.087,0.089,0.132,0.133c0.084,0.083,0.084,0.154,0.005,0.25c-0.282,0.345-0.654,0.515-1.08,0.593
				c-0.129-0.025-0.268,0.005-0.398-0.017c0.005,0.099-0.004,0.195,0.008,0.295c0.004,0.03,0.012,0.061,0.017,0.091
				c0.125,0.091,0.312,0.156,0.461,0.141C96.206,48.558,96.475,48.473,96.735,48.383z"/>
			<path class="st17" d="M102.255,51.825c-0.266-0.362-0.624-0.555-1.081-0.55c-0.347,0.003-0.819,0.121-1.064,0.312
				c-0.416,0.324-0.518,0.837-0.158,1.23c0.571,0.625,1.74,0.453,2.202-0.019C102.429,52.516,102.488,52.141,102.255,51.825z
				 M102.022,52.114c-0.184,0.282-0.467,0.428-0.768,0.537c-0.196,0.07-0.404,0.107-0.574,0.151
				c-0.139-0.027-0.242-0.038-0.339-0.069c-0.199-0.064-0.249-0.256-0.108-0.424c0.203-0.241,0.474-0.392,0.763-0.503
				c0.147-0.057,0.309-0.07,0.461-0.115c0.191-0.057,0.347,0.019,0.5,0.113C102.104,51.895,102.115,51.971,102.022,52.114z"/>
			<path class="st17" d="M100.615,51.041c0.154-0.078,0.207-0.398,0.085-0.515c-0.314-0.298-0.631-0.592-0.949-0.884
				c-0.054-0.049-0.121-0.083-0.182-0.123c-0.008,0.009-0.016,0.019-0.024,0.028c0.018,0.049,0.036,0.098,0.063,0.174
				c-0.141,0.063-0.274,0.122-0.407,0.183c-0.321,0.145-0.637,0.301-0.964,0.429c-0.168,0.066-0.347,0.204-0.555,0.036
				c0.187,0.302,0.453,0.507,0.684,0.748c0.019-0.005,0.038-0.012,0.057-0.018c-0.005-0.085-0.009-0.171-0.015-0.255
				c-0.011-0.018-0.02-0.035-0.03-0.053c0.23-0.089,0.458-0.178,0.689-0.265c0.129-0.048,0.164,0.015,0.125,0.125
				c-0.046,0.134-0.109,0.263-0.163,0.394c-0.099,0.239-0.196,0.478-0.295,0.721c0.223,0.084,0.416,0.166,0.616,0.227
				c0.065,0.02,0.147-0.014,0.221-0.024c-0.024-0.058-0.034-0.131-0.075-0.174c-0.1-0.105-0.098-0.205-0.04-0.328
				c0.052-0.107,0.085-0.223,0.129-0.334c0.024-0.06,0.054-0.117,0.083-0.175c0.122,0.048,0.223,0.084,0.323,0.127
				C100.209,51.181,100.416,51.14,100.615,51.041z M99.481,50.484c-0.102-0.056-0.072-0.138,0.015-0.183
				c0.135-0.069,0.276-0.127,0.418-0.183c0.2-0.078,0.29,0.073,0.382,0.2c0.035,0.048,0.068,0.159,0.046,0.177
				c-0.103,0.087-0.225,0.154-0.341,0.229C99.805,50.635,99.637,50.57,99.481,50.484z"/>
			<path class="st17" d="M97.916,49.905c-0.201-0.041-0.417,0.122-0.61-0.029c-0.171-0.133-0.34-0.266-0.533-0.415
				c0.082-0.078,0.135-0.147,0.203-0.19c0.121-0.074,0.258-0.122,0.375-0.201c0.121-0.083,0.217-0.058,0.306,0.03
				c0.083,0.083,0.154,0.177,0.239,0.277c-0.049,0.043-0.09,0.073-0.122,0.112c-0.025,0.03-0.038,0.072-0.057,0.107
				c0.04,0.014,0.09,0.052,0.118,0.04c0.206-0.098,0.408-0.206,0.61-0.311c-0.005-0.022-0.008-0.043-0.013-0.065
				c-0.052-0.004-0.109-0.023-0.155-0.008c-0.168,0.054-0.429-0.089-0.462-0.268c-0.005-0.029,0.02-0.083,0.046-0.096
				c0.167-0.086,0.333-0.171,0.507-0.239c0.046-0.018,0.125,0.017,0.175,0.05c0.061,0.04,0.109,0.1,0.161,0.152
				c0.266,0.269,0.266,0.269,0.009,0.546c-0.011,0.012-0.018,0.028-0.043,0.07c0.057,0.028,0.131,0.092,0.163,0.075
				c0.198-0.101,0.386-0.219,0.601-0.347c-0.118-0.042-0.209-0.051-0.266-0.1c-0.271-0.235-0.535-0.48-0.798-0.723
				c-0.161-0.149-0.317-0.303-0.476-0.455c-0.018,0.005-0.037,0.011-0.054,0.017c0.099,0.172,0.022,0.25-0.122,0.32
				c-0.356,0.174-0.712,0.351-1.054,0.551c-0.196,0.114-0.359,0.139-0.539-0.012c-0.03-0.025-0.101-0.004-0.204-0.004
				c0.091,0.112,0.138,0.184,0.198,0.241c0.203,0.191,0.412,0.377,0.62,0.564c0.19,0.172,0.378,0.347,0.572,0.515
				c0.038,0.034,0.11,0.07,0.148,0.056c0.162-0.061,0.317-0.141,0.476-0.214C97.927,49.938,97.921,49.922,97.916,49.905z"/>
			<path class="st17" d="M105.339,54.821c-0.054,0.041-0.108,0.115-0.176,0.131c-0.231,0.056-0.465,0.095-0.7,0.135
				c-0.318,0.054-0.636,0.119-0.956,0.152c-0.167,0.017-0.341,0.124-0.51-0.005c-0.027-0.021-0.073-0.019-0.11-0.027
				c0.007,0.041-0.003,0.099,0.021,0.122c0.185,0.184,0.376,0.364,0.571,0.539c0.031,0.027,0.089,0.025,0.135,0.037
				c-0.004-0.046-0.008-0.091-0.011-0.138c-0.005-0.072-0.04-0.19-0.012-0.207c0.102-0.061,0.241-0.146,0.335-0.118
				c0.152,0.046,0.284,0.168,0.416,0.269c0.143,0.108,0.151,0.171,0.016,0.285c-0.073,0.062-0.179,0.089-0.273,0.119
				c-0.051,0.016-0.109,0.008-0.189,0.011c0.017,0.054,0.017,0.081,0.031,0.094c0.201,0.201,0.402,0.403,0.612,0.596
				c0.034,0.031,0.111,0.015,0.168,0.021c-0.007-0.051,0.005-0.119-0.024-0.151c-0.119-0.133-0.065-0.238,0.038-0.339
				c0.19-0.187,0.39-0.366,0.572-0.559c0.201-0.214,0.39-0.442,0.568-0.646C105.72,55.058,105.525,54.936,105.339,54.821z
				 M104.922,55.476c-0.091,0.085-0.194,0.158-0.298,0.226c-0.021,0.013-0.074-0.005-0.103-0.025
				c-0.052-0.035-0.101-0.077-0.14-0.125c-0.034-0.041-0.083-0.105-0.07-0.138c0.018-0.048,0.08-0.098,0.132-0.111
				c0.121-0.029,0.248-0.037,0.407-0.058c0.026,0.018,0.094,0.041,0.119,0.087C104.984,55.365,104.955,55.445,104.922,55.476z"/>
		</g>
	</g>
</g>
</svg>
