<svg version="1.1" id="element" xmlns="http://www.w3.org/2000/svg" xmlns:xlink="http://www.w3.org/1999/xlink" x="0px" y="0px"
	 viewBox="0 0 300 143.119">
	 <defs>
		 <filter id="blur" width="200%" height="200%">
			 <feOffset result="offOut" in="SourceAlpha" dx="5" dy="5" />
			 <feGaussianBlur result="blurOut" in="offOut" stdDeviation="3" />
			 <feBlend in="SourceGraphic" in2="blurOut" mode="normal" />>
		 </filter>
	 </defs>
<g style="filter: url(#blur);">
	<path fill="#ffffff" d="M116.902,34.801c-0.067-0.075-0.1-0.2-0.1-0.374v-2.351h0.806v-0.923h-0.806v-1.158h-1.258v1.158h-0.688v0.923
		h0.688v2.539c0.017,0.891,0.467,1.337,1.35,1.337c0.261,0,0.515-0.038,0.762-0.113v-0.954c-0.107,0.02-0.231,0.03-0.37,0.03
		C117.096,34.914,116.968,34.877,116.902,34.801z"/>
	<path fill="#ffffff" d="M156.241,64.891l-0.68,2.287l-0.683-2.287h-1.057l0.34,0.972c-0.023-0.003-0.046-0.005-0.071-0.005
		c-0.173,0-0.406,0.12-0.566,0.246c-0.067-0.073-0.333-0.379-0.905-0.379c-0.858,0-1.231,0.532-1.231,0.971
		c0,0.566,0.319,0.845,0.572,0.991V67.7c-0.2,0.093-0.572,0.319-0.572,0.679c0,0.213,0.16,0.426,0.452,0.492v0.04
		c-0.319,0.133-0.692,0.386-0.692,0.745c0,0.213,0.093,0.386,0.333,0.526c0.293,0.166,0.719,0.206,1.038,0.206
		c0.625,0.013,1.091-0.2,1.304-0.373c0.218-0.169,0.34-0.352,0.388-0.557v0.529c0.147,0.043,0.292,0.065,0.435,0.065
		c0.505,0,0.868-0.24,1.087-0.72l0.082-0.194l1.478-4.248H156.241z M152.241,66.137c0.1-0.12,0.22-0.166,0.359-0.166
		c0.16,0,0.253,0.06,0.313,0.133c0.067,0.086,0.146,0.259,0.146,0.526c0,0.472-0.113,0.931-0.459,0.931
		c-0.186,0-0.286-0.053-0.379-0.146c-0.113-0.1-0.166-0.313-0.166-0.526C152.055,66.629,152.094,66.323,152.241,66.137z
		 M152.76,70.129c-0.386,0-0.572-0.04-0.778-0.16c-0.126-0.073-0.24-0.273-0.24-0.459c0-0.266,0.22-0.479,0.406-0.532l0.599-0.04
		c0.639-0.027,0.918,0.213,0.918,0.599C153.678,69.929,153.106,70.129,152.76,70.129z M154.994,68.88
		c-0.052,0.131-0.124,0.225-0.216,0.282c-0.092,0.057-0.231,0.085-0.416,0.085l-0.125-0.003c0,0,0,0,0-0.001
		c0-0.2-0.067-0.452-0.333-0.652c-0.293-0.24-0.625-0.279-1.131-0.253c-0.586,0.027-0.838,0.027-0.838-0.24
		c0-0.16,0.166-0.279,0.286-0.333c0.14,0.027,0.233,0.027,0.379,0.027c0.313,0,0.632-0.08,0.845-0.306
		c0.2-0.213,0.279-0.479,0.279-0.739c0-0.213-0.04-0.359-0.08-0.439c0.053-0.04,0.12-0.04,0.16-0.04c0.053,0,0.106,0.04,0.16,0.08
		c0.04,0.04,0.106,0.093,0.206,0.093c0.065,0,0.124-0.027,0.17-0.068l0.769,2.203L154.994,68.88z"/>
	<path fill="#ffffff" d="M59.647,86.327c-0.245,0-0.447-0.073-0.607-0.218c-0.16-0.145-0.255-0.338-0.287-0.578h2.341v-0.401
		c0-0.582-0.144-1.032-0.433-1.349c-0.289-0.317-0.685-0.476-1.188-0.476c-0.335,0-0.634,0.079-0.895,0.236
		c-0.03,0.018-0.056,0.04-0.085,0.06c0.142-0.268,0.217-0.587,0.217-0.963c0-0.61-0.203-1.081-0.61-1.415
		c-0.406-0.334-0.984-0.501-1.733-0.501h-2.356v6.34h1.306v-2.321h1.041l1.189,2.321h1.402v-0.035
		c0.193,0.06,0.403,0.091,0.632,0.091c0.306,0,0.584-0.058,0.836-0.175c0.251-0.117,0.451-0.279,0.598-0.488l-0.483-0.54
		C60.321,86.19,60.025,86.327,59.647,86.327z M58.996,84.296c0.121-0.132,0.279-0.198,0.474-0.198c0.208,0,0.369,0.06,0.483,0.179
		c0.113,0.12,0.172,0.288,0.177,0.507v0.079h-1.366C58.797,84.617,58.875,84.428,58.996,84.296z M57.134,83.433
		c-0.18,0.167-0.434,0.25-0.762,0.25h-1.054v-1.903h1.049c0.351,0,0.612,0.086,0.782,0.257c0.17,0.171,0.255,0.406,0.255,0.705
		C57.404,83.037,57.314,83.267,57.134,83.433z M57.971,84.215c-0.09,0.183-0.148,0.382-0.181,0.596l-0.212-0.4
		c0.159-0.072,0.298-0.156,0.423-0.249C57.992,84.181,57.981,84.197,57.971,84.215z"/>
	<path fill="#ffffff" d="M69.455,87.188c-0.335,0-0.634,0.079-0.895,0.236c-0.262,0.157-0.464,0.382-0.607,0.673
		c-0.116,0.236-0.182,0.498-0.204,0.785v-2.23h0.966v-0.526h-2.569v0.526h0.953v2.304c-0.026-0.065-0.053-0.13-0.083-0.193
		c-0.225-0.475-0.543-0.839-0.954-1.093c-0.411-0.254-0.88-0.381-1.409-0.381c-0.528,0-0.998,0.127-1.409,0.381
		c-0.411,0.254-0.729,0.618-0.954,1.093c-0.225,0.475-0.337,1.024-0.337,1.648v0.314c0.003,0.61,0.118,1.149,0.344,1.618
		c0.226,0.469,0.546,0.83,0.958,1.082c0.412,0.253,0.881,0.379,1.406,0.379c0.531,0,1.002-0.128,1.413-0.383
		c0.411-0.255,0.726-0.618,0.947-1.089c0.221-0.47,0.331-1.017,0.331-1.642v-0.283c0-0.408-0.049-0.783-0.146-1.128h0.536
		c0.019,0.505,0.186,0.914,0.504,1.225c0.339,0.331,0.778,0.496,1.317,0.496c0.306,0,0.585-0.058,0.836-0.175
		s0.451-0.279,0.598-0.488l-0.483-0.54c-0.213,0.274-0.509,0.411-0.887,0.411c-0.245,0-0.447-0.073-0.607-0.218
		c-0.16-0.145-0.255-0.338-0.287-0.578h2.341v-0.401c0-0.582-0.144-1.032-0.433-1.349C70.353,87.346,69.957,87.188,69.455,87.188z
		 M66.029,90.712c-0.003,0.659-0.122,1.16-0.357,1.504c-0.235,0.344-0.572,0.516-1.01,0.516c-0.447,0-0.79-0.179-1.028-0.536
		c-0.238-0.357-0.357-0.859-0.357-1.507v-0.309c0.003-0.659,0.123-1.159,0.361-1.5c0.238-0.341,0.576-0.512,1.015-0.512
		c0.441,0,0.781,0.173,1.019,0.518c0.238,0.346,0.357,0.851,0.357,1.515V90.712z M70.11,88.744h-1.366
		c0.034-0.246,0.112-0.435,0.233-0.567c0.121-0.132,0.279-0.198,0.474-0.198c0.208,0,0.369,0.06,0.483,0.179
		c0.113,0.12,0.172,0.288,0.177,0.507V88.744z"/>
	<path fill="#ffffff" d="M149.947,66.468c-0.696,0-1.158,0.448-1.158,1.149c0,0.701,0.488,1.118,1.122,1.118
		c0.581,0,1.145-0.364,1.145-1.158C151.056,66.925,150.613,66.468,149.947,66.468z M149.929,68.252
		c-0.288,0-0.444-0.279-0.444-0.652c0-0.319,0.12-0.652,0.444-0.652c0.306,0,0.43,0.328,0.43,0.652
		C150.36,67.99,150.191,68.252,149.929,68.252z"/>
	<path fill="#ffffff" d="M110.732,92.197c0.129,0,0.238,0.03,0.329,0.09c0.091,0.06,0.165,0.139,0.223,0.236l0.26-0.286
		c-0.084-0.115-0.194-0.21-0.329-0.283c-0.135-0.073-0.296-0.11-0.482-0.11c-0.129,0-0.247,0.023-0.356,0.07
		c-0.109,0.047-0.205,0.111-0.289,0.193c-0.084,0.082-0.15,0.181-0.196,0.296c-0.047,0.115-0.07,0.242-0.07,0.379
		c0,0.142,0.019,0.263,0.057,0.363c0.038,0.1,0.088,0.185,0.15,0.256c0.062,0.071,0.132,0.129,0.21,0.173
		c0.078,0.044,0.159,0.082,0.243,0.113c0.08,0.031,0.156,0.064,0.23,0.1c0.073,0.036,0.139,0.078,0.196,0.126
		c0.058,0.049,0.104,0.11,0.14,0.183c0.035,0.073,0.053,0.163,0.053,0.269c0,0.186-0.048,0.336-0.143,0.449
		c-0.095,0.113-0.221,0.17-0.376,0.17c-0.142,0-0.265-0.037-0.369-0.11c-0.104-0.073-0.194-0.167-0.269-0.283l-0.266,0.286
		c0.102,0.146,0.231,0.263,0.386,0.349c0.155,0.086,0.326,0.13,0.512,0.13c0.279,0,0.507-0.09,0.682-0.269
		c0.175-0.18,0.263-0.431,0.263-0.755c0-0.146-0.022-0.272-0.067-0.376c-0.044-0.104-0.101-0.194-0.17-0.269
		c-0.069-0.075-0.148-0.139-0.236-0.19c-0.089-0.051-0.177-0.094-0.266-0.13c-0.177-0.067-0.311-0.14-0.399-0.22
		c-0.089-0.08-0.133-0.208-0.133-0.386c0-0.169,0.045-0.305,0.136-0.409C110.473,92.249,110.59,92.197,110.732,92.197z"/>
	<path fill="#ffffff" d="M62.031,86.443v0.912h0.493v-0.952c0-0.04,0.007-0.093,0.02-0.13c0.033-0.097,0.117-0.176,0.233-0.176
		c0.163,0,0.24,0.136,0.24,0.373v0.885h0.493v-0.958c0-0.486-0.236-0.706-0.549-0.706c-0.12,0-0.22,0.027-0.31,0.08
		c-0.077,0.047-0.15,0.113-0.21,0.196h-0.007c-0.07-0.17-0.236-0.276-0.446-0.276c-0.28,0-0.423,0.153-0.493,0.256h-0.01
		l-0.023-0.22h-0.426c0.007,0.143,0.013,0.316,0.013,0.519v1.108h0.493v-0.948c0-0.04,0.003-0.087,0.02-0.126
		c0.03-0.083,0.107-0.183,0.236-0.183C61.958,86.097,62.031,86.237,62.031,86.443z"/>
	<path fill="#ffffff" d="M125.644,31.72v-1.564h1.392v1.564h0.843v-3.019c0.468-0.047,0.833-0.26,1.094-0.639l-0.255-0.194
		c-0.136,0.174-0.287,0.301-0.454,0.381c-0.116,0.055-0.245,0.09-0.385,0.107v-0.373h-0.843v0.192
		c-0.089-0.06-0.173-0.134-0.25-0.223c-0.239-0.278-0.359-0.625-0.359-1.042v-0.078h2.623v-0.228c0-0.528-0.131-0.944-0.392-1.249
		c-0.262-0.305-0.616-0.457-1.062-0.457c-0.285,0-0.551,0.081-0.795,0.243s-0.436,0.385-0.573,0.668
		c-0.137,0.283-0.206,0.602-0.206,0.955v0.146c0,0.342,0.07,0.651,0.211,0.926c0.14,0.275,0.337,0.49,0.59,0.644
		c0.068,0.042,0.14,0.077,0.213,0.107v0.831h-1.392v-1.436h-0.848v0.012c-0.054-0.275-0.178-0.506-0.374-0.691
		c-0.265-0.25-0.618-0.375-1.058-0.375c-0.503,0-0.898,0.161-1.186,0.484c-0.288,0.323-0.432,0.755-0.432,1.296v0.06
		c-0.2-0.233-0.502-0.35-0.908-0.35c-0.219,0-0.438,0.053-0.657,0.16c-0.219,0.106-0.396,0.257-0.532,0.452l0.311,0.364
		c0.1-0.136,0.222-0.248,0.364-0.337c0.142-0.089,0.296-0.133,0.461-0.133c0.242,0,0.435,0.089,0.577,0.266s0.213,0.458,0.213,0.843
		v0.231h-0.346c-0.183,0-0.377,0.019-0.581,0.058c-0.204,0.039-0.392,0.114-0.563,0.226c-0.172,0.112-0.314,0.266-0.426,0.461
		c-0.112,0.195-0.169,0.452-0.169,0.772c0,0.231,0.032,0.427,0.098,0.59c0.065,0.163,0.148,0.297,0.248,0.404
		c0.1,0.106,0.213,0.183,0.337,0.231c0.124,0.047,0.248,0.071,0.373,0.071c0.562,0,0.917-0.313,1.065-0.94h0.018
		c0,0.053,0,0.117,0,0.191c0,0.074,0.001,0.151,0.004,0.231c0.003,0.08,0.006,0.155,0.009,0.226c0.003,0.071,0.007,0.13,0.013,0.177
		h0.506c-0.006-0.047-0.012-0.111-0.018-0.191c-0.006-0.08-0.01-0.166-0.013-0.257c-0.003-0.092-0.006-0.182-0.009-0.271
		c-0.003-0.089-0.004-0.163-0.004-0.222v-1.828c0-0.063-0.002-0.124-0.004-0.184c0.023,0.029,0.045,0.059,0.07,0.086
		c0.29,0.32,0.687,0.479,1.189,0.479c0.269,0,0.514-0.055,0.736-0.164s0.397-0.263,0.525-0.461c0.081-0.126,0.134-0.26,0.164-0.402
		v2.173H125.644z M126.823,25.581c0.21-0.224,0.467-0.336,0.773-0.336c0.308,0,0.557,0.111,0.748,0.333
		c0.19,0.222,0.291,0.51,0.302,0.863v0.044h-2.206C126.486,26.107,126.613,25.806,126.823,25.581z M121.583,31.027
		c0,0.172-0.015,0.349-0.044,0.532c-0.03,0.183-0.078,0.352-0.146,0.506c-0.068,0.154-0.16,0.281-0.275,0.382
		c-0.115,0.101-0.256,0.151-0.421,0.151c-0.16,0-0.308-0.068-0.444-0.204c-0.136-0.136-0.204-0.358-0.204-0.665
		c0-0.207,0.036-0.376,0.107-0.506c0.071-0.13,0.161-0.232,0.271-0.306c0.109-0.074,0.235-0.124,0.377-0.151s0.284-0.04,0.426-0.04
		h0.355V31.027z M123.945,29.294c-0.004,0.158-0.061,0.285-0.169,0.38c-0.108,0.095-0.249,0.143-0.422,0.143
		c-0.225,0-0.393-0.079-0.504-0.238c-0.11-0.158-0.166-0.419-0.166-0.781v-0.098c0-0.358,0.056-0.617,0.167-0.776
		c0.112-0.159,0.277-0.239,0.495-0.239c0.178,0,0.321,0.057,0.429,0.172c0.108,0.114,0.165,0.263,0.169,0.446h0.85v0.991H123.945z"
		/>
	<path fill="#ffffff" d="M118.576,32.291c-0.16,0-0.305,0.027-0.435,0.082c-0.13,0.055-0.242,0.131-0.335,0.228
		c-0.093,0.098-0.165,0.215-0.215,0.353s-0.075,0.291-0.075,0.459c0,0.189,0.031,0.352,0.093,0.488
		c0.062,0.136,0.146,0.248,0.251,0.337c0.105,0.089,0.228,0.155,0.368,0.197c0.14,0.043,0.291,0.064,0.45,0.064
		c0.166,0,0.309-0.014,0.43-0.042c0.121-0.028,0.222-0.061,0.302-0.1l-0.106-0.413c-0.074,0.033-0.156,0.061-0.246,0.084
		c-0.09,0.024-0.194,0.036-0.313,0.036c-0.186,0-0.339-0.041-0.457-0.124c-0.118-0.083-0.177-0.208-0.177-0.377v-0.018h1.406v-0.262
		c0-0.313-0.085-0.557-0.255-0.732S118.863,32.291,118.576,32.291z M118.124,33.151c0.015-0.136,0.061-0.244,0.138-0.324
		s0.174-0.12,0.293-0.12c0.065,0,0.12,0.012,0.164,0.035c0.044,0.024,0.081,0.055,0.111,0.095c0.03,0.04,0.051,0.086,0.064,0.14
		s0.02,0.108,0.02,0.164L118.124,33.151z"/>
	<path fill="#ffffff" d="M103.398,96.501c0-0.528-0.171-0.938-0.512-1.23c-0.341-0.292-0.802-0.438-1.383-0.438
		c-0.383,0-0.729,0.066-1.036,0.198c-0.308,0.132-0.546,0.314-0.714,0.547c-0.168,0.232-0.253,0.485-0.253,0.758h1.258
		c0-0.177,0.06-0.316,0.181-0.418c0.12-0.102,0.287-0.152,0.499-0.152c0.241,0,0.417,0.065,0.529,0.196
		c0.112,0.131,0.168,0.305,0.168,0.523v0.27h-0.579c-0.7,0.003-1.234,0.138-1.605,0.405s-0.555,0.65-0.555,1.15
		c0,0.406,0.152,0.743,0.455,1.01c0.303,0.267,0.686,0.401,1.147,0.401c0.488,0,0.884-0.17,1.189-0.51
		c0.026,0.168,0.068,0.309,0.126,0.422h1.271v-0.074c-0.122-0.229-0.184-0.568-0.187-1.015V96.501z M102.136,98.299
		c-0.076,0.139-0.192,0.25-0.348,0.333c-0.157,0.083-0.328,0.124-0.514,0.124c-0.192,0-0.343-0.051-0.453-0.152
		c-0.11-0.102-0.165-0.231-0.165-0.388l0.004-0.074c0.041-0.435,0.376-0.653,1.006-0.653h0.47V98.299z"/>
	<path fill="#ffffff"  d="M132.504,28.047c-0.193,0-0.347-0.044-0.461-0.133c-0.115-0.089-0.177-0.217-0.185-0.383h-0.89
		c0,0.212,0.065,0.41,0.195,0.593c0.13,0.183,0.309,0.327,0.538,0.432c0.228,0.105,0.49,0.158,0.785,0.158
		c0.435,0,0.791-0.099,1.066-0.297s0.413-0.458,0.413-0.778c0-0.448-0.248-0.764-0.744-0.945c-0.16-0.058-0.357-0.111-0.591-0.158
		c-0.234-0.047-0.4-0.102-0.499-0.166s-0.148-0.148-0.148-0.252c0-0.11,0.043-0.201,0.13-0.273c0.087-0.072,0.209-0.107,0.367-0.107
		c0.184,0,0.319,0.044,0.406,0.132c0.087,0.088,0.13,0.199,0.13,0.333h0.939c0-0.336-0.134-0.609-0.401-0.819
		s-0.624-0.315-1.071-0.315c-0.418,0-0.757,0.105-1.015,0.314c-0.259,0.209-0.388,0.469-0.388,0.781c0,0.535,0.418,0.89,1.254,1.066
		c0.251,0.052,0.434,0.111,0.547,0.177c0.114,0.066,0.171,0.156,0.171,0.271c0,0.11-0.046,0.2-0.138,0.268
		C132.82,28.013,132.684,28.047,132.504,28.047z"/>
	<path fill="#ffffff" d="M87.814,36.464c0.262,0,0.466-0.09,0.613-0.27l0.018,0.23h0.337v-3.047h-0.367v1.119
		c-0.147-0.172-0.346-0.258-0.597-0.258c-0.253,0-0.457,0.1-0.613,0.301c-0.156,0.2-0.234,0.465-0.234,0.795v0.028
		c0,0.328,0.078,0.594,0.235,0.797C87.363,36.362,87.565,36.464,87.814,36.464z M87.489,34.757c0.1-0.139,0.241-0.208,0.421-0.208
		c0.227,0,0.396,0.101,0.506,0.304v0.986c-0.107,0.209-0.277,0.313-0.51,0.313c-0.177,0-0.316-0.069-0.417-0.206
		c-0.101-0.138-0.151-0.328-0.151-0.571C87.338,35.102,87.388,34.896,87.489,34.757z"/>
	<path fill="#ffffff" d="M85.888,32.377c0.11,0.08,0.227,0.114,0.352,0.101c0.125-0.012,0.236-0.065,0.333-0.157
		c0.097-0.092,0.141-0.223,0.131-0.393c-0.005-0.165-0.059-0.292-0.161-0.382c-0.102-0.09-0.213-0.136-0.333-0.138
		c-0.12-0.002-0.233,0.04-0.34,0.127c-0.107,0.087-0.171,0.223-0.191,0.408l0.007,0.052C85.711,32.17,85.779,32.297,85.888,32.377z"
		/>
	<path fill="#ffffff" d="M85.746,36.129c0.005,0.067,0.016,0.132,0.034,0.195c0.017,0.062,0.046,0.118,0.086,0.168
		c0.07,0.09,0.15,0.145,0.239,0.165c0.09,0.02,0.173,0.012,0.251-0.022c0.077-0.035,0.146-0.091,0.206-0.168
		c0.06-0.077,0.095-0.166,0.105-0.266v-0.052c0-0.239,0-0.479,0-0.718s-0.003-0.479-0.008-0.718
		c-0.005-0.165-0.008-0.332-0.008-0.501c0-0.17,0-0.339,0-0.509c0-0.14,0-0.258,0-0.355s-0.04-0.196-0.12-0.296
		c-0.06-0.085-0.131-0.137-0.213-0.157c-0.082-0.02-0.162-0.017-0.239,0.008c-0.077,0.025-0.147,0.07-0.209,0.135
		c-0.062,0.065-0.106,0.142-0.131,0.232c-0.03,0.12-0.037,0.241-0.022,0.363c0.015,0.122,0.022,0.243,0.022,0.363
		c0.005,0.294,0.006,0.586,0.004,0.875c-0.003,0.289-0.001,0.581,0.004,0.875c0,0.055-0.001,0.116-0.004,0.183
		C85.74,35.994,85.741,36.062,85.746,36.129z"/>
	<path fill="#ffffff" d="M129.995,27.7c0.09-0.196,0.279-0.294,0.569-0.294c0.079,0,0.171,0.007,0.275,0.021l0.011-0.735
		c-0.074-0.023-0.153-0.034-0.238-0.034c-0.272,0-0.484,0.131-0.637,0.394l-0.021-0.341h-0.722v2.862h0.764V27.7z"/>
	<path fill="#ffffff" d="M92.265,58.489c-0.097,0-0.171,0.028-0.221,0.084c-0.05,0.056-0.075,0.125-0.075,0.206
		c0,0.081,0.025,0.149,0.075,0.203c0.05,0.054,0.123,0.081,0.221,0.081s0.171-0.027,0.222-0.081
		c0.051-0.054,0.076-0.122,0.076-0.203c0-0.081-0.025-0.15-0.076-0.206C92.436,58.517,92.362,58.489,92.265,58.489z"/>
	<path fill="#ffffff" d="M98.168,63.907l-0.483-0.54c-0.213,0.274-0.509,0.411-0.887,0.411c-0.245,0-0.447-0.072-0.607-0.217
		c-0.16-0.145-0.255-0.338-0.287-0.578h2.341v-0.401c0-0.582-0.144-1.032-0.433-1.349c-0.289-0.317-0.685-0.476-1.188-0.476
		c-0.335,0-0.634,0.079-0.895,0.236s-0.464,0.382-0.607,0.673c-0.066,0.135-0.116,0.28-0.151,0.432h-2.395v0.526h0.953v2.627h0.65
		v-2.627h0.731c0,0.011-0.002,0.021-0.002,0.032v0.095c0,0.55,0.169,0.991,0.508,1.322c0.339,0.331,0.778,0.496,1.317,0.496
		c0.306,0,0.584-0.058,0.836-0.175C97.821,64.278,98.021,64.115,98.168,63.907z M96.148,61.746c0.121-0.132,0.279-0.198,0.474-0.198
		c0.208,0,0.369,0.06,0.483,0.179c0.113,0.119,0.172,0.288,0.177,0.507v0.078h-1.366C95.949,62.067,96.027,61.878,96.148,61.746z"/>
	<path fill="#ffffff" d="M77.504,28.058c-0.114,0-0.232,0.028-0.321,0.077c-0.098,0.053-0.179,0.118-0.244,0.203h-0.008v-1.134h-0.618
		v2.885h0.618v-1.179c0-0.045,0.004-0.098,0.02-0.138c0.045-0.11,0.146-0.215,0.309-0.215c0.232,0,0.321,0.179,0.321,0.439v1.093
		h0.618v-1.162C78.199,28.33,77.898,28.058,77.504,28.058z"/>
	<path fill="#ffffff" d="M134.111,68.305c0.18,0,0.323,0.04,0.426,0.083l0.103-0.403c-0.09-0.047-0.29-0.1-0.552-0.1
		c-0.679,0-1.225,0.426-1.225,1.191c0,0.639,0.399,1.122,1.175,1.122c0.273,0,0.483-0.05,0.576-0.097l-0.077-0.396
		c-0.1,0.04-0.27,0.073-0.423,0.073c-0.453,0-0.719-0.283-0.719-0.732C133.396,68.548,133.709,68.305,134.111,68.305z"/>
	<path fill="#ffffff" d="M98.466,97.538c-0.136,0-0.259,0.024-0.368,0.073c-0.109,0.049-0.207,0.115-0.293,0.197l-0.062-0.235h-0.448
		v3.145h0.586v-1.073c0.05,0.03,0.113,0.054,0.189,0.073c0.075,0.019,0.152,0.029,0.228,0.029c0.145,0,0.282-0.024,0.413-0.073
		c0.13-0.049,0.244-0.122,0.342-0.22s0.174-0.218,0.231-0.362c0.056-0.143,0.084-0.308,0.084-0.495c0-0.331-0.081-0.591-0.242-0.779
		C98.964,97.631,98.744,97.538,98.466,97.538z M98.712,98.939c-0.031,0.089-0.073,0.16-0.124,0.215
		c-0.052,0.055-0.109,0.095-0.173,0.12c-0.064,0.025-0.128,0.038-0.193,0.038c-0.136,0-0.25-0.037-0.342-0.111V98.19
		c0.038-0.047,0.095-0.094,0.169-0.14c0.074-0.046,0.16-0.069,0.257-0.069c0.074,0,0.139,0.016,0.195,0.049
		c0.056,0.033,0.103,0.077,0.142,0.133c0.038,0.056,0.067,0.123,0.087,0.2c0.019,0.077,0.029,0.161,0.029,0.253
		C98.759,98.743,98.743,98.851,98.712,98.939z"/>
	<path fill="#ffffff" d="M131.189,67.965c-0.25,0-0.479,0.044-0.689,0.132V67.6h-5.164v1.058h1.916v5.282h1.306v-5.282h1.255
		c-0.046,0.068-0.089,0.139-0.126,0.216c-0.143,0.291-0.214,0.621-0.214,0.991v0.095c0,0.55,0.169,0.991,0.508,1.322
		c0.339,0.331,0.778,0.496,1.317,0.496c0.306,0,0.585-0.058,0.836-0.175c0.252-0.117,0.451-0.279,0.598-0.488l-0.483-0.54
		c-0.213,0.274-0.509,0.411-0.887,0.411c-0.245,0-0.447-0.072-0.607-0.217c-0.16-0.145-0.255-0.338-0.287-0.578h2.341V69.79
		c0-0.582-0.144-1.032-0.433-1.349C132.088,68.124,131.692,67.965,131.189,67.965z M131.845,69.521h-1.366
		c0.034-0.246,0.112-0.435,0.233-0.567c0.121-0.132,0.279-0.198,0.474-0.198c0.208,0,0.369,0.06,0.483,0.179
		c0.113,0.119,0.172,0.288,0.177,0.507V69.521z"/>
	<path fill="#ffffff" d="M137.189,66.368c-0.505,0-0.925,0.2-1.258,0.601v-2.491h-1.258v6.688h1.258v-3.349
		c0.165-0.284,0.432-0.427,0.801-0.427c0.27,0,0.463,0.065,0.579,0.194c0.116,0.129,0.174,0.329,0.174,0.599v2.983h1.258v-3.018
		C138.729,66.962,138.211,66.368,137.189,66.368z"/>
	<path fill="#ffffff" d="M82.312,34.844c0.547-0.004,0.968-0.126,1.263-0.364c0.177-0.143,0.3-0.327,0.371-0.55v1.372h0.764V33.43
		c0.09-0.196,0.279-0.294,0.569-0.294c0.079,0,0.171,0.007,0.275,0.021l0.011-0.735c-0.074-0.023-0.153-0.034-0.238-0.034
		c-0.272,0-0.484,0.131-0.637,0.394l-0.021-0.341h-0.722v0.566c-0.035-0.096-0.08-0.185-0.141-0.266
		c-0.142-0.187-0.337-0.312-0.584-0.374c0.216-0.084,0.385-0.215,0.506-0.395c0.121-0.18,0.182-0.387,0.182-0.623
		c0-0.432-0.151-0.76-0.453-0.984c-0.302-0.224-0.745-0.336-1.329-0.336H80.88l0.831-2.389h-1.025l-0.661,2.225l-0.665-2.225h-1.028
		l1.253,3.587l-0.112,0.294c-0.051,0.128-0.121,0.219-0.21,0.274c-0.089,0.055-0.224,0.083-0.405,0.083l-0.146-0.003V32.6
		c0.143,0.042,0.284,0.063,0.423,0.063c0.492,0,0.844-0.234,1.058-0.701l0.079-0.188l0.168-0.481v3.551H82.312z M81.433,30.833
		h0.694c0.273,0,0.473,0.048,0.6,0.144c0.127,0.096,0.19,0.253,0.19,0.471c0,0.39-0.25,0.59-0.75,0.598h-0.734V30.833z
		 M81.433,32.748h0.909c0.456,0.007,0.684,0.23,0.684,0.671c0,0.196-0.066,0.35-0.197,0.461c-0.131,0.111-0.314,0.167-0.547,0.167
		h-0.85V32.748z"/>
	<path fill="#ffffff" d="M148.191,67.655c-0.167,0-0.306,0.05-0.418,0.15c-0.111,0.1-0.167,0.224-0.167,0.372
		c0,0.065,0.012,0.155,0.035,0.271c0.018,0.079,0.028,0.153,0.028,0.223c0,0.232-0.188,0.348-0.564,0.348h-0.341
		c-0.051,0-0.097-0.001-0.139-0.003c-0.042-0.002-0.077-0.006-0.104-0.01c-0.121-0.018-0.2-0.088-0.237-0.209
		c-0.014-0.046-0.021-0.16-0.021-0.341v-1.963c0-0.255,0.074-0.383,0.223-0.383c0.051,0,0.124,0.008,0.219,0.024
		c0.095,0.016,0.168,0.024,0.219,0.024c0.107,0,0.195-0.044,0.264-0.132c0.07-0.088,0.104-0.199,0.104-0.334
		c0-0.153-0.045-0.275-0.136-0.365c-0.091-0.091-0.212-0.136-0.365-0.136c-0.097,0-0.258,0.014-0.48,0.042
		c-0.074,0.009-0.149,0.016-0.223,0.021c-0.074,0.005-0.151,0.007-0.23,0.007c-0.093,0-0.189-0.002-0.289-0.007
		c-0.1-0.005-0.205-0.011-0.317-0.021c-0.334-0.028-0.534-0.042-0.599-0.042c-0.343,0-0.515,0.169-0.515,0.508
		c0,0.13,0.036,0.239,0.108,0.327c0.072,0.088,0.161,0.132,0.268,0.132c0.042,0,0.099-0.008,0.171-0.024
		c0.072-0.016,0.126-0.024,0.164-0.024c0.125,0,0.188,0.155,0.188,0.466v1.928c0,0.316-0.063,0.473-0.188,0.473
		c-0.037,0-0.092-0.008-0.164-0.024c-0.037-0.008-0.07-0.014-0.098-0.018c-0.087-0.196-0.205-0.368-0.356-0.514
		c-0.314-0.304-0.719-0.455-1.215-0.455c-0.349,0-0.655,0.078-0.919,0.234c-0.264,0.156-0.466,0.377-0.607,0.663
		c-0.057,0.115-0.099,0.238-0.132,0.366v-0.292h-0.648v2.079l-1.267-2.079h-0.65v3.154h0.65v-2.075l1.265,2.075h0.65v-1.563
		c0.076,0.29,0.207,0.538,0.396,0.741c0.316,0.34,0.739,0.51,1.269,0.51c0.53,0,0.953-0.17,1.268-0.511
		c0.315-0.341,0.472-0.794,0.472-1.358l0-0.012c0.025-0.002,0.049-0.001,0.075-0.004c0.072-0.007,0.15-0.016,0.233-0.028
		c0.083-0.011,0.175-0.021,0.275-0.028c0.1-0.007,0.212-0.01,0.338-0.01c0.835,0,1.475,0.014,1.921,0.042
		c0.148,0.009,0.278,0.016,0.39,0.021c0.111,0.005,0.206,0.007,0.285,0.007c0.302,0,0.452-0.128,0.452-0.383
		c0-0.009-0.002-0.041-0.007-0.094c-0.005-0.053-0.012-0.126-0.021-0.219c-0.005-0.046-0.008-0.093-0.01-0.139
		c-0.002-0.046-0.003-0.093-0.003-0.139c0-0.037,0.002-0.086,0.007-0.146c0.005-0.06,0.012-0.13,0.021-0.209
		c0.009-0.079,0.016-0.148,0.021-0.209c0.005-0.06,0.007-0.111,0.007-0.153C148.748,67.839,148.562,67.655,148.191,67.655z
		 M143.583,70.712c-0.134,0.183-0.319,0.274-0.557,0.274c-0.245,0-0.433-0.092-0.564-0.277c-0.131-0.185-0.197-0.452-0.197-0.802
		c0-0.393,0.066-0.682,0.197-0.87c0.131-0.187,0.317-0.281,0.557-0.281c0.242,0,0.43,0.094,0.564,0.282
		c0.134,0.188,0.201,0.454,0.201,0.796C143.783,70.237,143.717,70.529,143.583,70.712z"/>
	<path fill="#ffffff" d="M109.79,92.992c-0.08,0.015-0.172,0.023-0.276,0.023c-0.141,0-0.236-0.028-0.286-0.084
		c-0.05-0.056-0.075-0.149-0.075-0.279v-1.754h0.601v-0.689h-0.601v-0.864h-0.939v0.864h-0.513v0.689h0.513v1.894
		c0.013,0.665,0.349,0.997,1.007,0.997c0.195,0,0.384-0.028,0.569-0.084V92.992z"/>
	<rect fill="#ffffff" x="92.01" y="59.556" width="0.501" height="2.93"/>
	<path fill="#ffffff" d="M107.187,91.128c0,0.336,0.01,0.639,0.043,0.935h-0.01c-0.1-0.253-0.233-0.532-0.366-0.769l-0.466-0.822
		h-0.592v1.903c-0.063-0.007-0.128-0.012-0.195-0.012c-0.285,0-0.55,0.081-0.795,0.243c-0.155,0.102-0.286,0.232-0.397,0.383
		l0.01-0.681c-0.074-0.023-0.153-0.034-0.238-0.034c-0.272,0-0.484,0.131-0.637,0.394l-0.021-0.341h-0.722v2.862h0.764v-1.873
		c0.09-0.196,0.279-0.294,0.569-0.294c0.069,0,0.15,0.006,0.238,0.017c-0.05,0.073-0.097,0.15-0.138,0.234
		c-0.137,0.283-0.206,0.602-0.206,0.955v0.146c0,0.342,0.07,0.651,0.211,0.926c0.14,0.275,0.337,0.49,0.59,0.644
		c0.253,0.154,0.535,0.231,0.848,0.231c0.569,0,1.003-0.216,1.302-0.649l-0.255-0.194c-0.136,0.174-0.287,0.301-0.454,0.381
		c-0.167,0.079-0.359,0.119-0.576,0.119c-0.362,0-0.663-0.139-0.902-0.416c-0.239-0.277-0.359-0.625-0.359-1.042v-0.078h2.623
		v-0.228c0-0.528-0.131-0.944-0.392-1.249c-0.115-0.134-0.25-0.237-0.401-0.312V92.04c0-0.366-0.007-0.682-0.02-0.978l0.01-0.003
		c0.11,0.263,0.256,0.552,0.389,0.792l0.479,0.865h0.532v-2.243h-0.466V91.128z M106.348,93.043c0.19,0.222,0.291,0.51,0.302,0.863
		v0.044h-2.206c0.045-0.378,0.173-0.68,0.382-0.904c0.21-0.224,0.467-0.336,0.773-0.336
		C105.909,92.71,106.158,92.821,106.348,93.043z"/>
	<path fill="#ffffff" d="M89.53,60.42c0.331,0,0.588,0.081,0.771,0.242c0.183,0.161,0.274,0.387,0.274,0.677h1.306
		c0-0.38-0.098-0.72-0.294-1.019c-0.196-0.299-0.471-0.531-0.825-0.695c-0.354-0.164-0.758-0.246-1.211-0.246
		c-0.45,0-0.856,0.076-1.217,0.226c-0.361,0.151-0.639,0.361-0.832,0.629c-0.193,0.269-0.29,0.574-0.29,0.917
		c0,0.659,0.36,1.183,1.08,1.572c0.264,0.142,0.623,0.287,1.076,0.433s0.766,0.286,0.941,0.418c0.174,0.132,0.261,0.322,0.261,0.568
		c0,0.226-0.087,0.403-0.261,0.529c-0.174,0.126-0.417,0.189-0.727,0.189c-0.836,0-1.254-0.35-1.254-1.049h-0.685
		c-0.032-0.052-0.065-0.102-0.103-0.146c-0.244-0.293-0.615-0.44-1.115-0.44c-0.566,0-1.018,0.211-1.354,0.631l-0.039-0.544h-1.184
		v1.681c-0.04-0.059-0.082-0.116-0.13-0.169c-0.296-0.331-0.683-0.497-1.161-0.497c-0.31,0-0.585,0.075-0.827,0.224
		c-0.242,0.149-0.43,0.362-0.565,0.637s-0.203,0.585-0.203,0.929v0.042c0,0.546,0.148,0.984,0.443,1.316
		c0.296,0.331,0.682,0.497,1.158,0.497c0.316,0,0.596-0.076,0.84-0.227c0.179-0.111,0.327-0.255,0.445-0.432v0.71h1.258v-3.322
		c0.177-0.302,0.443-0.453,0.797-0.453c0.27,0,0.463,0.06,0.579,0.181c0.116,0.12,0.174,0.314,0.174,0.581v3.013h1.258v-2.582
		c0.104,0.066,0.214,0.129,0.336,0.183c0.401,0.179,0.845,0.268,1.332,0.268c0.703,0,1.261-0.156,1.676-0.468
		c0.415-0.312,0.623-0.742,0.623-1.291c0-0.493-0.17-0.906-0.509-1.237c-0.34-0.331-0.881-0.608-1.624-0.832
		c-0.404-0.122-0.709-0.253-0.917-0.392c-0.208-0.139-0.311-0.312-0.311-0.518c0-0.221,0.089-0.398,0.266-0.533
		C88.962,60.488,89.21,60.42,89.53,60.42z M83.29,67.124c-0.18,0.239-0.422,0.359-0.728,0.359c-0.303,0-0.545-0.118-0.726-0.354
		c-0.181-0.236-0.271-0.549-0.271-0.939c0-0.44,0.091-0.778,0.273-1.014s0.421-0.354,0.718-0.354c0.303,0,0.546,0.12,0.729,0.359
		c0.183,0.239,0.275,0.552,0.275,0.937C83.56,66.549,83.47,66.884,83.29,67.124z"/>
</g>
</svg>
