<svg version="1.1" xmlns="http://www.w3.org/2000/svg" xmlns:xlink="http://www.w3.org/1999/xlink" x="0px" y="0px" viewBox="0 0 300 143.119">
<clipPath id="innovate_clipPath2">
	<path d="M65.244,39.565c6.085,0.369,12.182-0.003,18.251-0.505c1.52-0.117,3.039-0.244,4.571-0.317
	c0.772-0.024,1.526-0.072,2.353,0.05l0.339,0.102l0.268,0.122c0.18,0.082,0.372,0.19,0.551,0.33
	c0.374,0.288,0.583,0.738,0.676,1.138c0.325,1.619,0.076,3.147,0.028,4.655c-0.074,1.503,0.005,2.996,0.453,4.388
	c0.928,2.782,3.251,4.938,5.755,6.455c1.262,0.743,2.653,1.303,4.087,1.728c1.421,0.467,2.899,0.78,4.377,1.076
	c5.944,1.119,12.05,1.371,18.141,1.506l0.003,0.1c-6.088,0.435-12.238,0.336-18.322-0.622c-3.014-0.567-6.08-1.294-8.799-2.941
	c-1.356-0.832-2.536-1.832-3.612-2.992c-1.061-1.16-1.915-2.549-2.394-4.07c-0.465-1.53-0.515-3.132-0.414-4.666
	c0.083-1.524,0.326-3.07,0.065-4.462c-0.076-0.338-0.208-0.616-0.443-0.804c-0.12-0.096-0.259-0.182-0.425-0.261l-0.25-0.119
	l-0.207-0.064c-0.682-0.113-1.462-0.09-2.211-0.075c-1.514,0.047-3.036,0.149-4.557,0.241c-6.085,0.37-12.207,0.609-18.295,0.106
	L65.244,39.565z"/>
</clipPath>
<path clip-path="url(#innovate_clipPath2)" class="draw" fill="none" stroke="#212121" stroke-miterlimit="10" stroke-width="1" d="M65.24,39.615c0,0,4.101,0.388,11.14,0.111c7.039-0.277,13.135-1.053,14.244-0.554
	c1.108,0.499,1.663,0.776,1.386,4.6c-0.277,3.824-0.61,7.815,5.432,12.138s19.952,4.656,27.656,4.434"/>
</svg>
