<svg version="1.1" xmlns="http://www.w3.org/2000/svg" xmlns:xlink="http://www.w3.org/1999/xlink" x="0px" y="0px" viewBox="0 0 300 143.119">
<clipPath id="innovate_clipPath1">
	<path fill="none" d="M125.138,60.476c-4.184-0.006-8.377-0.091-12.546-0.57c-4.158-0.471-8.326-1.462-12.085-3.403
	c-1.906-0.956-3.557-2.434-4.751-4.196c-1.228-1.748-2.059-3.739-2.613-5.788c-0.268-1.023-0.47-2.09-0.515-3.157
	c-0.058-1.046-0.078-2.085-0.469-2.95c-0.372-0.873-1.189-1.451-2.113-1.79c-0.909-0.347-1.928-0.398-2.957-0.43
	c-2.066-0.021-4.163,0.09-6.259,0.124c-2.097,0.036-4.199,0.05-6.3-0.027c-4.201-0.147-8.389-0.578-12.544-1.192
	c-4.137-0.662-8.316-1.536-12.198-3.24c-1.926-0.865-3.804-1.895-5.419-3.281c-1.567-1.395-3.015-3.114-3.426-5.225l0.099-0.012
	c0.516,2.022,2.023,3.622,3.617,4.885c1.621,1.281,3.487,2.219,5.4,2.991c3.854,1.531,7.946,2.337,12.074,2.893
	c4.122,0.612,8.272,1.043,12.435,1.192c2.08,0.107,4.164,0.126,6.251,0.121c2.088-0.001,4.173-0.082,6.292-0.028
	c1.052,0.046,2.16,0.105,3.212,0.519c1.015,0.378,2.051,1.113,2.498,2.205c0.459,1.069,0.443,2.184,0.494,3.212
	c0.031,1.026,0.21,2.028,0.458,3.031c0.512,1.989,1.295,3.931,2.457,5.624c1.132,1.712,2.684,3.134,4.506,4.077
	c3.668,1.969,7.76,3.015,11.894,3.55c4.141,0.543,8.329,0.696,12.51,0.768L125.138,60.476z"/>
</clipPath>
<path clip-path="url(#innovate_clipPath1)" class="draw" fill="none" stroke="#212121" stroke-miterlimit="10" stroke-width="1" d="M40.853,25.038c0,0,0.665,7.094,15.74,10.53s29.208,1.718,33.032,2.549c3.824,0.831,3.27,4.6,3.381,6.097
	c0.111,1.496,1.718,10.586,10.143,13.246s12.526,2.66,17.126,2.882s4.6,0.222,4.6,0.222"/>
</svg>
