<svg version="1.1" xmlns="http://www.w3.org/2000/svg" xmlns:xlink="http://www.w3.org/1999/xlink" x="0px" y="0px" viewBox="0 0 300 143.119">
<clipPath id="innovate_clipPath3">
	<path d="M61.92,79.741c0.066-1.513,0.661-2.951,1.511-4.188c0.866-1.236,2.048-2.226,3.346-2.986
	c2.646-1.499,5.659-2.024,8.589-2.528c2.959-0.448,5.963-0.626,8.96-0.502c3.003,0.108,5.961,0.604,8.903,0.857
	c1.468,0.115,2.958,0.202,4.376,0.056c0.722-0.078,1.335-0.227,1.846-0.641c0.526-0.402,0.979-0.959,1.399-1.543
	c0.871-1.167,1.522-2.503,2.657-3.686c0.28-0.295,0.705-0.558,0.979-0.727l0.943-0.601c0.638-0.401,1.293-0.788,1.97-1.138
	c1.362-0.685,2.81-1.221,4.309-1.534c1.493-0.343,3.051-0.361,4.52-0.36c2.978-0.037,5.957-0.037,8.937-0.01l0.004,0.1
	c-2.971,0.233-5.944,0.438-8.918,0.607c-1.501,0.097-2.944,0.127-4.352,0.505c-1.409,0.34-2.76,0.887-4.037,1.579
	c-0.643,0.339-1.267,0.716-1.886,1.113c-0.587,0.406-1.335,0.802-1.742,1.21c-0.945,0.964-1.673,2.318-2.586,3.53
	c-0.462,0.609-0.965,1.219-1.634,1.712c-0.67,0.526-1.567,0.721-2.318,0.775c-1.55,0.124-3.048-0.004-4.541-0.15
	c-2.986-0.308-5.909-0.849-8.861-1.004c-2.952-0.172-5.922-0.047-8.857,0.348c-2.919,0.434-5.908,0.891-8.512,2.295
	c-1.282,0.714-2.457,1.652-3.331,2.842c-0.857,1.187-1.476,2.597-1.573,4.071H61.92z"/>
</clipPath>
<path clip-path="url(#innovate_clipPath3)" class="draw" fill="none" stroke="#212121" stroke-miterlimit="10" stroke-width="1" d="M61.97,79.741c0,0,0-6.429,8.923-8.591s15.629-1.108,17.348-0.942c1.718,0.166,8.591,1.33,10.808,0.388
	c2.217-0.942,3.658-5.044,5.376-6.097s5.154-3.713,10.309-3.88c5.154-0.166,10.433-0.36,10.433-0.36"/>
</svg>
