<svg version="1.1" xmlns="http://www.w3.org/2000/svg" xmlns:xlink="http://www.w3.org/1999/xlink" x="0px" y="0px" viewBox="0 0 300 143.119">
<clipPath id="innovate_clipPath4">
	<path fill="none" d="M64.05,110.877c-3.992-2.482-7.773-5.363-10.958-8.856c-1.57-1.755-3.002-3.685-3.911-5.895
	c-0.925-2.198-1.107-4.734-0.399-7.04c0.692-2.318,2.189-4.315,3.969-5.889c1.782-1.592,3.826-2.85,5.962-3.881
	c2.14-1.028,4.383-1.832,6.686-2.417c2.294-0.57,4.596-1.054,6.918-1.486c2.321-0.428,4.659-0.775,7.011-1.017
	c2.345-0.265,4.733-0.322,7.041-0.5c2.318-0.184,4.632-0.505,6.842-1.146c0.552-0.159,1.094-0.345,1.624-0.555
	c0.484-0.201,0.923-0.491,1.384-0.848c0.907-0.694,1.788-1.478,2.684-2.24c3.587-3.015,7.479-5.983,12.071-7.411
	c2.264-0.741,4.611-1.163,6.961-1.404c2.355-0.221,4.721-0.201,7.066-0.125l0.002,0.1c-4.692,0.056-9.42,0.516-13.804,2.089
	c-4.406,1.523-8.141,4.432-11.646,7.511c-0.896,0.76-1.771,1.541-2.732,2.276c-0.466,0.363-1.014,0.732-1.618,0.978
	c-0.563,0.222-1.135,0.418-1.712,0.584c-2.311,0.668-4.681,0.991-7.045,1.178c-2.381,0.151-4.699,0.172-7.032,0.403
	c-2.329,0.207-4.648,0.52-6.957,0.913c-4.606,0.841-9.257,1.674-13.464,3.702c-2.103,0.988-4.114,2.199-5.858,3.723
	c-1.745,1.509-3.194,3.411-3.874,5.608c-0.703,2.186-0.571,4.603,0.293,6.744c0.851,2.157,2.233,4.084,3.764,5.843
	c3.106,3.506,6.839,6.439,10.785,8.969L64.05,110.877z"/>
</clipPath>
<path clip-path="url(#innovate_clipPath4)" class="draw" fill="none" stroke="#212121" stroke-miterlimit="10" stroke-width="1" d="M64.076,110.834c0,0-14.466-8.646-15.463-17.569s9.588-14.341,17.32-16.128s13.011-2.411,18.29-2.619
	c5.279-0.208,8.688-0.998,10.932-1.912c2.245-0.914,7.191-6.859,13.925-9.81c6.734-2.951,14.258-2.536,15.92-2.577"/>
</svg>
