<svg version="1.1" xmlns="http://www.w3.org/2000/svg" xmlns:xlink="http://www.w3.org/1999/xlink" x="0px" y="0px" viewBox="0 0 300 143.119">
<clipPath id="innovate_clipPath6">
	<path fill="none" d="M37.951,95.162c0.371-1.028,0.97-1.944,1.645-2.789c0.676-0.846,1.452-1.612,2.297-2.288
	c1.676-1.376,3.596-2.432,5.602-3.245c4.044-1.524,8.239-2.675,12.546-3.18c4.31-0.503,8.63-0.412,12.932-0.549
	c2.157-0.042,4.317-0.057,6.482,0.03c1.082,0.043,2.166,0.129,3.232,0.2c1.052,0.063,2.144,0.076,3.204,0.089
	c1.054-0.004,2.107-0.077,3.048-0.412c0.954-0.308,1.707-0.97,2.165-1.823c0.447-0.854,0.567-1.919,0.754-2.979
	c0.17-1.058,0.326-2.131,0.544-3.204c0.435-2.138,1.175-4.297,2.462-6.134c1.252-1.864,2.988-3.32,4.789-4.552
	c1.832-1.216,3.848-2.166,5.952-2.788c2.105-0.627,4.279-0.951,6.436-1.104c4.323-0.349,8.64-0.232,12.946-0.058l-0.002,0.1
	c-2.153,0.025-4.307,0.086-6.455,0.187c-2.151,0.084-4.291,0.21-6.421,0.464c-2.128,0.246-4.236,0.579-6.248,1.234
	c-2.013,0.643-3.917,1.591-5.648,2.793c-1.744,1.192-3.367,2.558-4.528,4.286c-1.194,1.704-1.889,3.704-2.313,5.774
	c-0.226,1.035-0.396,2.092-0.584,3.158c-0.095,0.534-0.197,1.069-0.312,1.604c-0.064,0.272-0.154,0.554-0.232,0.83
	c-0.099,0.273-0.227,0.54-0.348,0.806c-0.562,1.042-1.569,1.872-2.678,2.205c-1.103,0.371-2.236,0.421-3.328,0.411
	c-1.093-0.026-2.156-0.051-3.253-0.128c-1.082-0.085-2.144-0.182-3.214-0.237c-2.139-0.11-4.288-0.121-6.438-0.104
	c-4.306,0.087-8.623-0.052-12.885,0.396c-4.262,0.431-8.459,1.513-12.491,2.962c-1.996,0.774-3.909,1.788-5.587,3.122
	c-0.846,0.655-1.625,1.401-2.306,2.226c-0.679,0.823-1.288,1.728-1.666,2.724L37.951,95.162z"/>
</clipPath>
<path clip-path="url(#innovate_clipPath6)" class="draw" fill="none" stroke="#212121" stroke-miterlimit="10" stroke-width="1" d="M37.999,95.177c0,0,1.746-5.681,11.168-8.785c9.422-3.104,14.244-2.771,22.668-2.937
	c8.424-0.166,9.533,0.277,12.249,0.333c2.716,0.055,6.983,0.554,7.926-3.824s0.776-9.533,6.152-13.911s10.475-4.988,15.075-5.376
	c4.6-0.388,11.75-0.249,11.75-0.249"/>
</svg>
