<svg version="1.1" xmlns="http://www.w3.org/2000/svg" xmlns:xlink="http://www.w3.org/1999/xlink" x="0px" y="0px" viewBox="0 0 300 143.119">
<clipPath id="innovate_clipPath5">
	<path fill="none" d="M69.002,80.745c5.824-0.192,11.557,1.086,17.294,1.531c0.714,0.036,1.431,0.061,2.128-0.005
	c0.683-0.076,1.391-0.229,1.83-0.66c0.431-0.424,0.513-1.128,0.569-1.828c0.052-0.703,0.048-1.429,0.061-2.152
	c0.037-2.873,0.191-5.948,1.714-8.608c0.188-0.327,0.418-0.631,0.626-0.947c0.231-0.3,0.496-0.574,0.744-0.862
	c0.516-0.529,1.048-1.024,1.596-1.518c1.098-0.977,2.299-1.869,3.608-2.587c2.631-1.46,5.592-2.052,8.47-2.439
	c5.792-0.676,11.601-0.875,17.399-0.647l0,0.1c-5.78,0.343-11.566,0.69-17.26,1.537c-2.833,0.421-5.656,1.005-8.142,2.321
	c-1.245,0.649-2.404,1.467-3.489,2.391c-0.538,0.465-1.078,0.945-1.583,1.441c-0.228,0.257-0.475,0.498-0.691,0.766
	c-0.194,0.285-0.411,0.555-0.589,0.851c-1.442,2.407-1.674,5.356-1.753,8.215c-0.026,0.724-0.033,1.448-0.101,2.188
	c-0.077,0.709-0.149,1.57-0.781,2.193c-0.634,0.581-1.449,0.705-2.181,0.781c-0.747,0.057-1.481,0.017-2.211-0.032
	c-5.786-0.586-11.454-1.986-17.245-1.931L69.002,80.745z"/>
</clipPath>
<path clip-path="url(#innovate_clipPath5)" class="draw" fill="none" stroke="#212121" stroke-miterlimit="10" stroke-width="1" d="M69.008,80.794c0,0,2.051-0.277,9.367,0.721s11.694,1.94,12.526-0.388c0.831-2.328-0.831-9.533,3.436-13.69
	c4.268-4.157,7.371-5.598,15.02-6.485s15.685-0.88,15.685-0.88"/>
</svg>
