<?xml version="1.0" encoding="utf-8"?>
<!-- Generator: Adobe Illustrator 24.3.0, SVG Export Plug-In . SVG Version: 6.00 Build 0)  -->
<svg version="1.1" id="Layer_1" xmlns="http://www.w3.org/2000/svg" xmlns:xlink="http://www.w3.org/1999/xlink" x="0px" y="0px"
	 viewBox="0 0 300 143.119" style="enable-background:new 0 0 300 143.119;" xml:space="preserve">
<g>
	<path d="M43.291,58.541l0.328,0.002c0.26,0.001,0.464-0.06,0.614-0.183c0.15-0.125,0.226-0.29,0.227-0.498
		c0.002-0.141-0.032-0.266-0.101-0.378c-0.068-0.111-0.165-0.197-0.29-0.258c-0.125-0.06-0.27-0.091-0.433-0.092l-0.851-0.004
		l-0.012,2.133l0.514,0.002L43.291,58.541z M43.297,57.529l0.343,0.002c0.093,0.001,0.166,0.032,0.219,0.092
		c0.053,0.06,0.08,0.139,0.079,0.239c0.001,0.091-0.026,0.161-0.078,0.211c-0.053,0.049-0.129,0.074-0.229,0.073l-0.337-0.002
		L43.297,57.529z"/>
	<path d="M45.207,58.272c0.045-0.098,0.145-0.146,0.3-0.145l0.163,0.013l0.011-0.458c-0.039-0.012-0.085-0.018-0.138-0.019
		c-0.148,0-0.265,0.076-0.348,0.231L45.18,57.69l-0.463-0.002l-0.009,1.585l0.494,0.003L45.207,58.272z"/>
	<path d="M45.949,59.105c0.136,0.137,0.317,0.205,0.542,0.206c0.234,0.001,0.42-0.07,0.558-0.215
		c0.138-0.144,0.208-0.339,0.209-0.586v-0.018c0.001-0.253-0.066-0.453-0.202-0.601c-0.136-0.147-0.323-0.222-0.56-0.224
		c-0.155-0.001-0.291,0.032-0.406,0.098c-0.116,0.065-0.205,0.16-0.267,0.284c-0.062,0.123-0.094,0.264-0.095,0.422l0.001,0.083
		C45.741,58.786,45.814,58.97,45.949,59.105z M46.226,58.415c0.015-0.245,0.105-0.367,0.27-0.366
		c0.182,0.001,0.271,0.144,0.27,0.428v0.05c-0.005,0.271-0.096,0.405-0.272,0.404c-0.09,0-0.157-0.035-0.203-0.104
		c-0.045-0.069-0.068-0.176-0.067-0.323L46.226,58.415z"/>
	<path d="M47.161,59.902c0.073,0.017,0.151,0.025,0.233,0.026c0.19,0.001,0.339-0.049,0.446-0.15s0.161-0.246,0.164-0.433
		l0.009-1.639l-0.495-0.002l-0.009,1.636c-0.001,0.136-0.07,0.203-0.207,0.202c-0.036,0-0.083-0.005-0.139-0.014L47.161,59.902z"/>
	<path d="M47.756,57.536c0.081,0,0.147-0.021,0.198-0.066c0.051-0.044,0.077-0.102,0.077-0.172s-0.025-0.128-0.076-0.173
		c-0.05-0.045-0.116-0.068-0.197-0.068s-0.147,0.022-0.198,0.066c-0.051,0.044-0.077,0.102-0.077,0.172s0.024,0.128,0.075,0.173
		C47.609,57.513,47.674,57.535,47.756,57.536z"/>
	<path d="M49.049,59.326c0.13,0,0.251-0.024,0.365-0.073c0.112-0.05,0.2-0.117,0.262-0.202l-0.224-0.268
		c-0.088,0.109-0.211,0.163-0.367,0.162c-0.095,0-0.172-0.026-0.231-0.077c-0.059-0.051-0.098-0.122-0.115-0.21l0.981,0.005
		l0.001-0.192c0.001-0.247-0.062-0.439-0.19-0.579c-0.128-0.138-0.304-0.208-0.526-0.21c-0.158-0.001-0.295,0.033-0.411,0.1
		c-0.116,0.067-0.204,0.163-0.264,0.287c-0.061,0.124-0.092,0.267-0.093,0.429v0.041c-0.001,0.232,0.073,0.422,0.222,0.567
		C48.61,59.251,48.806,59.324,49.049,59.326z M49.001,58.062c0.078,0,0.138,0.023,0.18,0.066c0.042,0.044,0.062,0.105,0.059,0.184
		v0.038l-0.498-0.003C48.77,58.157,48.856,58.062,49.001,58.062z"/>
	<path d="M50.598,59.336c0.196,0.001,0.356-0.054,0.482-0.164c0.125-0.111,0.188-0.253,0.189-0.427l-0.463-0.005
		c0,0.067-0.019,0.12-0.057,0.157c-0.039,0.038-0.092,0.056-0.162,0.056c-0.083,0-0.144-0.032-0.181-0.093
		c-0.037-0.061-0.056-0.172-0.055-0.332c0-0.091,0.004-0.162,0.011-0.214c0.022-0.163,0.098-0.244,0.226-0.243
		c0.067,0,0.121,0.022,0.161,0.067c0.04,0.044,0.06,0.107,0.059,0.189l0.463,0.003c0.001-0.195-0.059-0.351-0.179-0.465
		c-0.12-0.115-0.284-0.173-0.49-0.174c-0.152-0.001-0.284,0.032-0.396,0.097s-0.198,0.159-0.257,0.282
		c-0.06,0.122-0.09,0.263-0.091,0.423v0.021c-0.001,0.256,0.064,0.457,0.196,0.602C50.186,59.262,50.367,59.335,50.598,59.336z"/>
	<path d="M51.558,58.854c-0.001,0.163,0.039,0.285,0.12,0.365s0.206,0.122,0.376,0.122c0.097,0.001,0.189-0.013,0.278-0.041
		l0.002-0.353c-0.033,0.005-0.074,0.008-0.123,0.008c-0.063,0-0.106-0.012-0.127-0.036c-0.021-0.023-0.032-0.065-0.032-0.125
		l0.004-0.725l0.261,0.001l0.002-0.343l-0.261-0.001l0.002-0.394l-0.494-0.002l-0.002,0.394l-0.202-0.001l-0.002,0.343l0.202,0.001
		L51.558,58.854z"/>
	<rect x="52.838" y="57.95" transform="matrix(0.0055 -1 1 0.0055 -5.6529 111.0963)" width="0.381" height="0.88"/>
	<path d="M55.332,59.172c0.132-0.104,0.2-0.261,0.201-0.47c0.001-0.115-0.028-0.213-0.087-0.293
		c-0.061-0.082-0.146-0.138-0.257-0.168c0.099-0.036,0.174-0.094,0.225-0.171c0.051-0.077,0.077-0.172,0.078-0.282
		c0.001-0.191-0.07-0.338-0.212-0.439c-0.143-0.101-0.351-0.152-0.625-0.154l-0.766-0.004l-0.012,2.133l0.866,0.005
		C55.003,59.328,55.199,59.276,55.332,59.172z M54.4,57.588l0.252,0.001c0.115,0.001,0.198,0.021,0.25,0.061
		s0.077,0.105,0.077,0.195c0,0.078-0.025,0.137-0.073,0.177c-0.048,0.04-0.128,0.06-0.241,0.061l-0.268-0.001L54.4,57.588z
		 M54.393,58.931l0.002-0.511l0.36,0.002c0.177,0.002,0.265,0.092,0.264,0.27c0,0.076-0.025,0.135-0.075,0.178
		c-0.05,0.042-0.121,0.062-0.214,0.062L54.393,58.931z"/>
	<path d="M56.465,58.369c-0.242-0.001-0.427,0.042-0.554,0.129s-0.192,0.216-0.193,0.388c0,0.137,0.051,0.251,0.155,0.341
		c0.104,0.091,0.231,0.137,0.38,0.138c0.163,0.001,0.291-0.055,0.382-0.169c0.013,0.062,0.029,0.11,0.046,0.142l0.494,0.003v-0.025
		c-0.042-0.078-0.064-0.189-0.065-0.334l0.003-0.702c-0.002-0.172-0.061-0.308-0.178-0.407s-0.276-0.149-0.479-0.15
		c-0.202-0.001-0.369,0.046-0.499,0.141c-0.131,0.095-0.197,0.219-0.198,0.372l0.493,0.002c0.001-0.116,0.06-0.173,0.177-0.173
		c0.126,0.001,0.189,0.075,0.188,0.22v0.084C56.617,58.369,56.465,58.369,56.465,58.369z M56.614,58.887
		c-0.018,0.033-0.047,0.062-0.088,0.089c-0.041,0.026-0.091,0.039-0.153,0.039c-0.047,0-0.085-0.014-0.116-0.042
		c-0.03-0.028-0.045-0.064-0.045-0.109c0.001-0.154,0.087-0.231,0.259-0.23h0.144L56.614,58.887z"/>
	<path d="M58.011,59.047c-0.073,0-0.133-0.018-0.18-0.051c-0.047-0.034-0.071-0.088-0.072-0.161l-0.461-0.002
		c0,0.093,0.029,0.181,0.088,0.266s0.142,0.151,0.248,0.201c0.106,0.049,0.227,0.074,0.363,0.075c0.204,0.001,0.37-0.043,0.5-0.133
		c0.128-0.09,0.194-0.208,0.194-0.352c0.001-0.212-0.117-0.36-0.355-0.443c-0.071-0.025-0.154-0.046-0.248-0.064
		c-0.095-0.018-0.163-0.041-0.206-0.068c-0.043-0.028-0.064-0.063-0.064-0.107c0-0.043,0.018-0.079,0.053-0.107
		c0.034-0.031,0.078-0.045,0.13-0.045c0.134,0,0.2,0.064,0.2,0.191l0.495,0.003c0-0.154-0.062-0.279-0.188-0.375
		c-0.126-0.096-0.294-0.144-0.503-0.145c-0.194-0.001-0.352,0.045-0.472,0.139c-0.121,0.093-0.182,0.213-0.182,0.358
		c0,0.082,0.02,0.155,0.062,0.218c0.042,0.064,0.103,0.119,0.182,0.163c0.08,0.045,0.182,0.082,0.304,0.11
		c0.123,0.028,0.207,0.055,0.25,0.081c0.044,0.025,0.066,0.059,0.065,0.101c0,0.044-0.018,0.08-0.051,0.107
		C58.129,59.034,58.079,59.048,58.011,59.047z"/>
	<path d="M59.683,59.385c0.13,0,0.251-0.024,0.365-0.073c0.112-0.05,0.2-0.117,0.262-0.202l-0.224-0.268
		c-0.088,0.109-0.211,0.163-0.367,0.162c-0.095,0-0.172-0.026-0.231-0.077c-0.059-0.051-0.098-0.121-0.115-0.21l0.981,0.005
		l0.001-0.192c0.001-0.247-0.062-0.439-0.19-0.579c-0.127-0.139-0.303-0.21-0.525-0.211c-0.158,0-0.295,0.033-0.411,0.1
		s-0.204,0.163-0.264,0.287c-0.061,0.124-0.092,0.267-0.093,0.429v0.041c-0.001,0.232,0.073,0.422,0.222,0.567
		C59.244,59.31,59.44,59.384,59.683,59.385z M59.635,58.12c0.078,0,0.138,0.023,0.18,0.066c0.042,0.044,0.062,0.105,0.059,0.184
		v0.039l-0.498-0.003C59.404,58.215,59.491,58.12,59.635,58.12z"/>
	<path d="M61.102,59.391c0.156,0.001,0.286-0.065,0.388-0.197l0.024,0.17l0.444,0.002l0.012-2.25l-0.496-0.002l-0.004,0.803
		c-0.096-0.112-0.215-0.168-0.356-0.169c-0.194-0.001-0.346,0.07-0.455,0.214s-0.165,0.341-0.166,0.592
		c-0.001,0.267,0.053,0.473,0.162,0.618C60.765,59.317,60.914,59.39,61.102,59.391z M60.988,58.497
		c0.014-0.246,0.097-0.368,0.25-0.368c0.109,0,0.186,0.048,0.23,0.142l-0.003,0.604c-0.047,0.091-0.126,0.137-0.235,0.136
		c-0.164-0.001-0.245-0.142-0.244-0.423L60.988,58.497z"/>
	<polygon points="44.155,64.374 43.26,64.369 43.27,62.632 42.756,62.629 42.744,64.762 44.154,64.769 	"/>
	<path d="M44.302,63.976v0.041c-0.001,0.232,0.073,0.422,0.223,0.566c0.149,0.146,0.346,0.22,0.589,0.221
		c0.13,0.001,0.251-0.024,0.365-0.073c0.113-0.05,0.2-0.117,0.262-0.201l-0.224-0.268c-0.088,0.109-0.21,0.163-0.367,0.162
		c-0.095,0-0.172-0.026-0.231-0.077c-0.059-0.051-0.097-0.121-0.114-0.21l0.981,0.005l0.001-0.192c0.001-0.247-0.062-0.44-0.19-0.58
		c-0.129-0.138-0.304-0.208-0.527-0.21c-0.158,0-0.295,0.033-0.411,0.1c-0.116,0.068-0.204,0.163-0.265,0.287
		S44.302,63.814,44.302,63.976z M45.065,63.542c0.078,0,0.138,0.023,0.18,0.066c0.042,0.044,0.062,0.105,0.059,0.184v0.038
		l-0.498-0.002C44.834,63.637,44.921,63.541,45.065,63.542z"/>
	<path d="M46.658,63.815c-0.242-0.001-0.427,0.042-0.554,0.129c-0.127,0.087-0.191,0.217-0.192,0.389
		c-0.001,0.137,0.051,0.25,0.155,0.341s0.23,0.137,0.38,0.138c0.163,0.001,0.291-0.056,0.382-0.169
		c0.014,0.062,0.029,0.11,0.046,0.143l0.494,0.002v-0.025c-0.042-0.077-0.064-0.188-0.065-0.333l0.001-0.703
		c-0.002-0.172-0.061-0.308-0.178-0.407c-0.117-0.1-0.276-0.15-0.478-0.151c-0.202-0.001-0.369,0.046-0.5,0.141
		c-0.131,0.094-0.197,0.218-0.198,0.372l0.494,0.003c0-0.116,0.06-0.173,0.177-0.173c0.126,0,0.188,0.074,0.188,0.22v0.084
		L46.658,63.815z M46.807,64.333c-0.018,0.033-0.047,0.062-0.088,0.089c-0.041,0.026-0.092,0.039-0.153,0.039
		c-0.047,0-0.085-0.014-0.115-0.042c-0.03-0.027-0.045-0.064-0.045-0.109c0.001-0.154,0.087-0.231,0.259-0.23l0.144,0.001
		L46.807,64.333z"/>
	<path d="M47.577,64.788l0.494,0.002l0.005-1.003c0.044-0.097,0.144-0.146,0.299-0.145l0.163,0.012l0.011-0.458
		c-0.039-0.012-0.084-0.018-0.137-0.018c-0.149,0-0.265,0.077-0.349,0.232l-0.015-0.204l-0.463-0.002L47.577,64.788z"/>
	<path d="M50.129,64.802l0.005-1.021c-0.002-0.198-0.043-0.347-0.124-0.446c-0.082-0.099-0.204-0.148-0.369-0.149
		c-0.192-0.001-0.344,0.07-0.454,0.213l-0.015-0.187l-0.463-0.002L48.7,64.794l0.494,0.003l0.006-1.119
		c0.047-0.076,0.119-0.114,0.216-0.113c0.085,0,0.144,0.02,0.176,0.058c0.032,0.038,0.048,0.097,0.047,0.177l-0.005,1L50.129,64.802
		z"/>
	<rect x="49.883" y="63.76" transform="matrix(0.0049 -1 1 0.0049 -13.5797 114.3685)" width="1.584" height="0.495"/>
	<path d="M50.881,62.638c-0.05-0.043-0.116-0.066-0.197-0.067c-0.081,0-0.147,0.022-0.198,0.066
		c-0.051,0.045-0.077,0.102-0.077,0.172s0.025,0.128,0.075,0.173c0.05,0.045,0.116,0.068,0.197,0.068s0.147-0.021,0.198-0.066
		c0.051-0.045,0.077-0.103,0.077-0.173S50.931,62.683,50.881,62.638z"/>
	<path d="M51.703,63.412l-0.015-0.186l-0.463-0.003l-0.008,1.584l0.494,0.003l0.006-1.119c0.047-0.076,0.119-0.114,0.216-0.113
		c0.085,0,0.144,0.02,0.176,0.058c0.032,0.038,0.048,0.097,0.047,0.177l-0.005,1l0.495,0.002l0.005-1.021
		c-0.002-0.198-0.043-0.347-0.124-0.446c-0.082-0.098-0.205-0.148-0.37-0.149C51.965,63.198,51.813,63.269,51.703,63.412z"/>
	<path d="M52.945,63.589c-0.053,0.123-0.081,0.264-0.081,0.424v0.018c-0.001,0.248,0.057,0.446,0.176,0.595
		c0.118,0.148,0.274,0.223,0.467,0.224c0.145,0.001,0.265-0.051,0.36-0.155v0.05c-0.001,0.225-0.111,0.336-0.33,0.335
		c-0.15,0-0.271-0.056-0.362-0.165l-0.208,0.289c0.057,0.071,0.14,0.128,0.249,0.173c0.109,0.044,0.222,0.067,0.338,0.068
		c0.162,0,0.305-0.026,0.428-0.081c0.123-0.054,0.217-0.133,0.283-0.235c0.065-0.103,0.099-0.224,0.099-0.363l0.008-1.524
		l-0.448-0.002l-0.019,0.135c-0.092-0.112-0.221-0.168-0.386-0.169c-0.131,0-0.246,0.032-0.345,0.099
		C53.075,63.371,52.999,63.466,52.945,63.589z M53.436,63.705c0.05-0.078,0.119-0.117,0.207-0.117c0.105,0,0.182,0.037,0.229,0.109
		l-0.003,0.667c-0.049,0.071-0.127,0.106-0.233,0.105c-0.088,0-0.156-0.038-0.205-0.114c-0.048-0.076-0.072-0.179-0.072-0.309
		C53.36,63.897,53.385,63.783,53.436,63.705z"/>
	<path d="M62.031,75.628c-0.576,0.002-1.016,0.114-1.321,0.333c-0.305,0.22-0.457,0.535-0.457,0.946
		c0,0.335,0.125,0.612,0.375,0.831c0.25,0.22,0.564,0.33,0.944,0.33c0.401,0,0.728-0.14,0.978-0.419
		c0.021,0.139,0.056,0.254,0.104,0.348h1.047v-0.061c-0.1-0.189-0.152-0.467-0.154-0.835V75.42c0-0.435-0.14-0.772-0.421-1.013
		c-0.281-0.24-0.66-0.36-1.138-0.36c-0.315,0-0.6,0.054-0.853,0.163c-0.253,0.109-0.449,0.259-0.588,0.45
		c-0.139,0.191-0.208,0.399-0.208,0.624h1.036c0-0.146,0.05-0.26,0.149-0.344s0.236-0.125,0.41-0.125
		c0.198,0,0.344,0.054,0.435,0.161c0.092,0.108,0.138,0.251,0.138,0.43v0.222H62.031z M62.507,76.9
		c-0.062,0.115-0.158,0.206-0.287,0.274c-0.129,0.068-0.27,0.102-0.423,0.102c-0.158,0-0.282-0.042-0.373-0.125
		c-0.091-0.084-0.136-0.19-0.136-0.319l0.004-0.061c0.033-0.358,0.309-0.538,0.828-0.538h0.387V76.9z"/>
	<path d="M60.825,83.986c-0.229,0-0.379,0.154-0.374,0.36c-0.005,0.197,0.145,0.356,0.37,0.356c0.234,0,0.384-0.159,0.384-0.356
		C61.2,84.141,61.055,83.986,60.825,83.986z"/>
	<path d="M56.777,84.738c0.19,0,0.34,0.042,0.449,0.088l0.109-0.425c-0.095-0.049-0.305-0.105-0.583-0.105
		c-0.716,0-1.292,0.449-1.292,1.257c0,0.674,0.421,1.183,1.239,1.183c0.288,0,0.509-0.053,0.607-0.102l-0.081-0.418
		c-0.105,0.042-0.284,0.077-0.446,0.077c-0.477,0-0.758-0.298-0.758-0.772C56.022,84.994,56.352,84.738,56.777,84.738z"/>
	<path d="M51.941,82.634c0.621,0,1.087-0.239,1.398-0.716l-0.387-0.302c-0.117,0.151-0.252,0.272-0.408,0.363
		c-0.155,0.091-0.345,0.137-0.569,0.137c-0.315,0-0.575-0.112-0.78-0.338s-0.311-0.52-0.32-0.886h2.512v-0.264
		c0-0.171-0.014-0.327-0.037-0.475h3.762v-1.107h-2.925v-5.58h-1.378v5.63c-0.248-0.203-0.561-0.309-0.947-0.309
		c-0.295,0-0.568,0.082-0.821,0.245c-0.252,0.163-0.449,0.39-0.589,0.678c-0.14,0.289-0.211,0.617-0.211,0.985v0.117
		c0,0.553,0.158,0.994,0.473,1.324C51.029,82.469,51.438,82.634,51.941,82.634z M51.218,79.589c0.174-0.186,0.388-0.279,0.644-0.279
		c0.265,0,0.475,0.089,0.63,0.266c0.155,0.177,0.242,0.427,0.26,0.749v0.048h-1.857C50.937,80.036,51.044,79.775,51.218,79.589z"/>
	<rect x="60.47" y="84.983" width="0.711" height="2.288"/>
	<polygon points="56.554,77.234 57.87,77.234 57.87,76.681 56.554,76.681 56.554,75.822 58.035,75.822 58.035,75.267 55.869,75.267 
		55.869,78.593 56.554,78.593 	"/>
	<path d="M58.88,84.523l-0.029-0.462h-0.978v3.878h1.036v-2.537c0.122-0.265,0.379-0.398,0.771-0.398
		c0.108,0,0.232,0.01,0.373,0.029l0.014-0.996c-0.1-0.031-0.208-0.047-0.323-0.047C59.376,83.989,59.088,84.167,58.88,84.523z"/>
	<rect x="58.235" y="76.619" width="1.393" height="0.431"/>
	<path d="M87.682,71.818c0.018,0.94,0.493,1.41,1.424,1.41c0.276,0,0.543-0.04,0.804-0.119v-1.006
		c-0.113,0.021-0.243,0.032-0.39,0.032c-0.199,0-0.334-0.04-0.404-0.119c-0.07-0.08-0.106-0.211-0.106-0.395v-2.48h0.85v-0.974
		h-0.85v-1.222h-1.327v1.222h-0.726v0.974h0.726L87.682,71.818L87.682,71.818z"/>
	<path d="M66.202,76.354c0.267-0.195,0.401-0.464,0.401-0.807c0-0.247-0.079-0.455-0.238-0.625s-0.479-0.343-0.961-0.519
		c-0.416-0.148-0.681-0.264-0.797-0.348c-0.115-0.083-0.173-0.195-0.173-0.334c0-0.304,0.27-0.456,0.809-0.456
		c0.313,0,0.677,0.082,1.093,0.247l0.206-0.511c-0.391-0.169-0.812-0.254-1.264-0.254c-0.45,0-0.802,0.089-1.057,0.266
		c-0.255,0.177-0.382,0.421-0.382,0.732c0,0.226,0.069,0.422,0.207,0.588c0.138,0.166,0.473,0.348,1.006,0.547
		c0.404,0.146,0.662,0.267,0.774,0.363s0.168,0.209,0.168,0.339c0,0.37-0.314,0.555-0.942,0.555c-0.404,0-0.827-0.098-1.268-0.295
		v0.569c0.29,0.158,0.718,0.236,1.285,0.236C65.556,76.647,65.935,76.549,66.202,76.354z"/>
	<path d="M88.177,80.292c-0.13,0.13-0.194,0.288-0.194,0.473c0,0.181,0.066,0.338,0.198,0.47c0.132,0.132,0.289,0.198,0.47,0.198
		c0.186,0,0.344-0.065,0.473-0.195c0.13-0.13,0.194-0.287,0.194-0.473s-0.065-0.344-0.194-0.473c-0.13-0.13-0.288-0.195-0.473-0.195
		C88.465,80.098,88.307,80.163,88.177,80.292z"/>
	<path d="M94.127,77.451c0.092,0.017,0.184-0.005,0.277-0.066c0.093-0.061,0.151-0.136,0.173-0.227
		c0.022-0.091,0.005-0.178-0.049-0.262c-0.054-0.083-0.127-0.133-0.218-0.15s-0.184,0.005-0.278,0.067
		c-0.096,0.062-0.154,0.138-0.175,0.228s-0.004,0.176,0.05,0.259C93.962,77.384,94.036,77.434,94.127,77.451z"/>
	<rect x="64.632" y="84.114" width="0.662" height="2.472"/>
	<path d="M63.374,87.848c0.276,0,0.543-0.04,0.804-0.119v-1.006c-0.113,0.021-0.243,0.032-0.39,0.032
		c-0.199,0-0.334-0.04-0.404-0.119c-0.07-0.08-0.106-0.211-0.106-0.395v-2.48h0.85v-0.974h-0.85v-1.222H61.95v1.222h-0.726v0.974
		h0.726v2.677C61.969,87.378,62.443,87.848,63.374,87.848z"/>
	<path d="M63.894,103.714c0.146-0.006,0.271-0.068,0.375-0.187c0.102-0.117,0.147-0.248,0.134-0.393s-0.086-0.275-0.219-0.392
		c-0.135-0.118-0.275-0.173-0.419-0.166c-0.144,0.007-0.268,0.069-0.37,0.186c-0.104,0.119-0.149,0.251-0.135,0.396
		c0.014,0.145,0.087,0.276,0.218,0.39C63.609,103.665,63.748,103.72,63.894,103.714z"/>
	<path d="M66.924,84.308c0.123-0.176,0.305-0.264,0.547-0.264c0.196,0,0.354,0.063,0.473,0.189s0.182,0.29,0.186,0.492h0.971
		c-0.005-0.459-0.154-0.826-0.446-1.102c-0.293-0.276-0.682-0.414-1.167-0.414c-0.554,0-0.99,0.178-1.308,0.534
		c-0.318,0.356-0.477,0.833-0.477,1.43v0.068c0,0.621,0.16,1.108,0.48,1.46s0.757,0.529,1.312,0.529c0.296,0,0.567-0.06,0.812-0.181
		c0.245-0.121,0.438-0.29,0.579-0.509s0.213-0.459,0.215-0.722H68.13c-0.005,0.174-0.067,0.314-0.186,0.419
		c-0.12,0.105-0.275,0.158-0.466,0.158c-0.249,0-0.434-0.087-0.556-0.262s-0.183-0.462-0.183-0.862v-0.108
		C66.74,84.77,66.801,84.484,66.924,84.308z"/>
	<path d="M65.233,83.23c-0.067-0.064-0.157-0.096-0.27-0.096c-0.114,0-0.204,0.032-0.271,0.096
		c-0.066,0.064-0.099,0.145-0.099,0.244c0,0.101,0.034,0.183,0.102,0.247s0.157,0.096,0.268,0.096s0.201-0.032,0.268-0.096
		c0.068-0.064,0.102-0.146,0.102-0.247C65.333,83.375,65.3,83.294,65.233,83.23z"/>
	<path d="M72.138,85.678c0.028-0.07,0.014-0.098-0.014-0.112L72.04,85.51c-0.028-0.014-0.042-0.014-0.07,0.028
		c-0.028,0.056-0.126,0.112-0.225,0.112c-0.126,0-0.182-0.112-0.182-0.491v-0.337l-0.014-1.109c0-0.19-0.014-0.386-0.168-0.526
		c-0.126-0.112-0.253-0.196-0.646-0.196c-0.463,0-0.842,0.168-1.137,0.393c-0.211,0.154-0.323,0.379-0.323,0.575
		c0,0.154,0.112,0.239,0.239,0.239c0.295,0,0.421-0.154,0.421-0.407c0-0.168-0.07-0.274,0.028-0.344
		c0.112-0.084,0.281-0.126,0.407-0.126c0.154,0,0.281,0.028,0.351,0.105c0.084,0.084,0.098,0.253,0.112,0.393v0.365
		c-0.154,0.112-0.421,0.225-0.856,0.435c-0.505,0.225-0.646,0.54-0.646,0.863c0,0.393,0.225,0.603,0.484,0.603
		c0.14,0,0.288,0,0.449-0.049c0.274-0.091,0.456-0.211,0.61-0.379h0.028c0.098,0.302,0.323,0.428,0.589,0.428
		C71.9,86.085,72.068,85.804,72.138,85.678z M70.833,85.362c0,0.126-0.253,0.323-0.449,0.337c-0.168,0-0.323-0.14-0.323-0.428
		c0-0.512,0.463-0.632,0.772-0.828C70.833,84.443,70.833,85.362,70.833,85.362z"/>
	<path d="M83.944,72.56l-0.387-0.302c-0.116,0.151-0.252,0.272-0.408,0.363c-0.155,0.091-0.345,0.137-0.569,0.137
		c-0.315,0-0.575-0.113-0.779-0.338c-0.205-0.225-0.311-0.52-0.32-0.886h2.148V71.9h0.589v-2.717c0-0.32-0.021-0.796-0.062-1.429
		h0.027L86.17,71.9h0.737v-5.01h-0.596v2.741c0,0.231,0.016,0.692,0.048,1.384h-0.021l-1.981-4.126h-0.73v3.074
		c-0.013-0.018-0.023-0.039-0.037-0.056c-0.267-0.318-0.642-0.476-1.124-0.476c-0.295,0-0.568,0.082-0.821,0.245
		c-0.235,0.152-0.416,0.364-0.554,0.625v-0.339c0-0.631-0.132-1.103-0.395-1.417c-0.263-0.314-0.664-0.471-1.203-0.471
		c-0.646,0-1.144,0.253-1.493,0.758c-0.239-0.505-0.678-0.758-1.318-0.758c-0.6,0-1.076,0.216-1.428,0.648l-0.041-0.556H73.97v3.585
		c-0.066-0.267-0.169-0.495-0.32-0.674c-0.267-0.318-0.642-0.476-1.124-0.476c-0.295,0-0.568,0.082-0.821,0.245
		s-0.449,0.39-0.589,0.678c-0.124,0.254-0.183,0.544-0.198,0.859c-0.006-0.464-0.193-0.843-0.565-1.135
		c-0.378-0.297-0.883-0.445-1.513-0.445c-0.591,0-1.069,0.148-1.435,0.443s-0.549,0.664-0.549,1.104
		c0,0.756,0.591,1.258,1.773,1.506c0.355,0.073,0.613,0.157,0.774,0.25s0.241,0.221,0.241,0.383c0,0.156-0.065,0.282-0.195,0.379
		s-0.322,0.145-0.576,0.145c-0.273,0-0.49-0.063-0.652-0.188c-0.162-0.126-0.25-0.306-0.262-0.542h-1.258
		c0,0.3,0.092,0.579,0.276,0.838s0.437,0.462,0.76,0.611c0.323,0.148,0.693,0.223,1.109,0.223c0.615,0,1.117-0.14,1.506-0.42
		s0.583-0.647,0.583-1.1c0-0.634-0.351-1.079-1.052-1.336c-0.227-0.083-0.505-0.157-0.836-0.223s-0.566-0.144-0.705-0.234
		c-0.139-0.09-0.209-0.209-0.209-0.356c0-0.156,0.061-0.285,0.184-0.386c0.122-0.101,0.295-0.152,0.519-0.152
		c0.26,0,0.452,0.062,0.574,0.186s0.184,0.281,0.184,0.471h1.323c-0.001,0.036-0.01,0.067-0.01,0.103v0.117
		c0,0.553,0.158,0.994,0.473,1.324c0.315,0.33,0.724,0.495,1.227,0.495c0.621,0,1.087-0.239,1.398-0.716l-0.387-0.302
		c-0.117,0.151-0.253,0.272-0.408,0.363c-0.155,0.091-0.345,0.137-0.569,0.137c-0.315,0-0.575-0.112-0.78-0.338
		c-0.204-0.225-0.311-0.52-0.32-0.886h2.431v0.43h1.327v-3.513c0.168-0.312,0.441-0.468,0.817-0.468
		c0.272,0,0.465,0.064,0.579,0.193s0.17,0.337,0.17,0.625v3.164h1.327l-0.005-3.412c0.153-0.38,0.429-0.569,0.827-0.569
		c0.279,0,0.473,0.065,0.583,0.195s0.165,0.336,0.165,0.618v3.169h1.332v-0.665c0.064,0.112,0.137,0.217,0.227,0.31
		c0.315,0.33,0.724,0.495,1.227,0.495C83.167,73.277,83.633,73.038,83.944,72.56z M81.823,70.232
		c0.174-0.186,0.388-0.279,0.644-0.279c0.265,0,0.475,0.089,0.63,0.266s0.242,0.427,0.26,0.749v0.048H81.5
		C81.542,70.679,81.649,70.418,81.823,70.232z M73.416,72.185h-1.857c0.041-0.336,0.148-0.597,0.322-0.783
		c0.174-0.186,0.388-0.279,0.644-0.279c0.265,0,0.475,0.089,0.63,0.266s0.242,0.427,0.26,0.749v0.047H73.416z"/>
	<path d="M89.649,84.546c-0.034,0-0.077,0.006-0.128,0.018c-0.051,0.012-0.087,0.018-0.106,0.018c-0.093,0-0.139-0.125-0.139-0.374
		v-2.209c0-0.191-0.069-0.286-0.206-0.286c-0.015,0-0.088,0.01-0.22,0.029c-0.132,0.02-0.24,0.029-0.323,0.029
		c-0.103,0-0.24-0.012-0.411-0.037c-0.103-0.015-0.181-0.022-0.235-0.022c-0.137,0-0.247,0.045-0.33,0.136s-0.125,0.209-0.125,0.356
		c0,0.274,0.117,0.411,0.352,0.411c0.029,0,0.068-0.005,0.117-0.015c0.073-0.024,0.117-0.037,0.132-0.037
		c0.083,0,0.125,0.139,0.125,0.418v1.189c0,0.274-0.044,0.411-0.132,0.411c-0.015,0-0.032-0.002-0.051-0.007l-0.191-0.044
		c-0.235,0-0.352,0.14-0.352,0.418c0,0.142,0.042,0.258,0.125,0.349c0.083,0.091,0.191,0.136,0.323,0.136
		c0.083,0,0.21-0.01,0.382-0.029c0.171-0.02,0.301-0.029,0.389-0.029c0.176,0,0.333,0.007,0.47,0.022
		c0.225,0.024,0.362,0.037,0.411,0.037c0.289,0,0.433-0.169,0.433-0.506C89.957,84.673,89.855,84.546,89.649,84.546z"/>
	<polygon points="85.724,82.61 83.037,82.61 83.037,79.9 81.659,79.9 81.659,86.587 83.037,86.587 83.037,83.721 85.724,83.721 
		85.724,86.587 87.101,86.587 87.101,79.9 85.724,79.9 	"/>
	<rect x="76.583" y="83.727" width="2.018" height="0.835"/>
	<path d="M80.443,85.31c-0.055-0.062-0.082-0.165-0.082-0.308v-1.935h0.663v-0.76h-0.663v-0.953h-1.036v0.953h-0.566v0.76h0.566
		v2.09c0.014,0.734,0.385,1.1,1.111,1.1c0.215,0,0.424-0.031,0.627-0.093v-0.785c-0.088,0.017-0.19,0.025-0.305,0.025
		C80.604,85.403,80.498,85.372,80.443,85.31z"/>
	<path d="M99.979,71.707c-0.169-0.125-0.425-0.228-0.761-0.127c-0.387,0.098-0.629,0.355-0.924,0.8
		c-0.345,0.513-0.504,0.727-0.729,0.56c-0.135-0.1-0.133-0.316-0.102-0.451c0.11-0.102,0.169-0.181,0.261-0.305
		c0.196-0.265,0.329-0.586,0.271-0.908c-0.055-0.303-0.231-0.537-0.451-0.7c-0.18-0.134-0.33-0.192-0.422-0.208
		c0-0.07,0.041-0.127,0.066-0.16c0.033-0.045,0.101-0.065,0.168-0.085c0.059-0.009,0.146-0.032,0.208-0.116
		c0.092-0.124,0.054-0.309-0.059-0.393c-0.138-0.12-0.333-0.116-0.488,0.093c-0.109,0.147-0.153,0.419-0.146,0.634
		c-0.104,0.01-0.53,0.044-0.889,0.529c-0.539,0.727-0.321,1.377,0.051,1.653c0.479,0.355,0.917,0.26,1.199,0.137l0.011,0.008
		c-0.046,0.228-0.088,0.685,0.216,0.911c0.18,0.134,0.461,0.132,0.701-0.075l0.034,0.025c-0.088,0.354-0.107,0.829,0.197,1.054
		c0.18,0.134,0.385,0.163,0.654,0.048c0.325-0.144,0.626-0.48,0.826-0.75c0.404-0.522,0.516-1.05,0.503-1.339
		C100.367,72.151,100.228,71.89,99.979,71.707z M97.163,72.267c-0.156,0.033-0.369-0.055-0.55-0.189
		c-0.22-0.163-0.454-0.389-0.52-0.63c-0.039-0.16-0.003-0.29,0.084-0.409c0.1-0.135,0.209-0.177,0.309-0.182
		c0.115-0.002,0.312,0.039,0.537,0.206c0.4,0.296,0.719,0.68,0.501,0.974C97.409,72.195,97.301,72.247,97.163,72.267z
		 M99.803,73.514c-0.242,0.327-0.393,0.46-0.624,0.56c-0.141,0.061-0.382,0.032-0.539-0.085c-0.226-0.167-0.268-0.487-0.196-0.678
		l0.342-0.533c0.378-0.558,0.757-0.645,1.084-0.402C100.21,72.61,100.02,73.221,99.803,73.514z"/>
	<path d="M96.173,73.743c-0.314,0.015-0.594,0.187-0.841,0.515c-0.28,0.372-0.366,0.773-0.256,1.203l-0.377-0.244l-0.587,0.779
		l3.097,2.333l0.623-0.827l-2.184-1.645c-0.111-0.266-0.078-0.515,0.097-0.748c0.134-0.177,0.269-0.274,0.406-0.291
		s0.293,0.041,0.468,0.173l1.981,1.492l0.623-0.827l-2.001-1.507C96.836,73.863,96.486,73.728,96.173,73.743z"/>
	<path d="M95.63,81.094c-0.016-0.046-0.034-0.055-0.074-0.041c-0.08,0.027-0.248,0.056-0.377,0.026
		c-0.196-0.051-1.5-0.773-1.777-0.93c0.126-0.237,0.489-0.904,0.608-1.034c0.118-0.13,0.279-0.223,0.372-0.255l0.066-0.023
		c0.04-0.014,0.048-0.032,0.035-0.071l-0.041-0.119c-0.016-0.046-0.038-0.068-0.072-0.057c-0.053,0.018-0.205,0.093-0.57,0.219
		c-0.385,0.133-0.63,0.196-0.67,0.209c-0.04,0.014-0.044,0.045-0.035,0.071l0.048,0.139c0.014,0.04,0.032,0.048,0.065,0.037
		l0.06-0.021c0.08-0.028,0.142,0.003,0.156,0.043c0.011,0.033,0.008,0.086-0.005,0.135c-0.038,0.147-0.27,0.68-0.379,0.881
		c-0.048,0.076-0.158,0.144-0.238,0.171l-0.348-1.008c-0.273-0.789-0.599-1.775-0.682-2.103c-0.021-0.082-0.037-0.106-0.09-0.088
		c-0.04,0.014-0.097,0.063-0.176,0.135c-0.084,0.059-0.567,0.463-0.739,0.567c-0.062,0.036-0.079,0.072-0.07,0.098l0.032,0.093
		c0.005,0.013,0.036,0.017,0.111,0.021c0.364-0.022,0.429,0.104,0.516,0.356l0.841,2.39c0.092,0.265,0.287,0.851,0.319,0.988
		c0.027,0.08,0.015,0.173-0.078,0.205l-0.172,0.06c-0.021,0.007-0.031,0.015-0.039,0.024c-0.202-0.583-0.608-0.763-1.038-0.635
		c-0.363,0.108-0.525,0.386-0.573,0.551l-0.013,0.004l-0.121-0.291l-0.592,0.176c0.066,0.19,0.145,0.421,0.226,0.694l0.445,1.493
		l0.682-0.203l-0.377-1.265c-0.019-0.063-0.03-0.133-0.024-0.178c0.007-0.139,0.081-0.302,0.269-0.358
		c0.247-0.073,0.403,0.09,0.487,0.372l0.362,1.215l0.682-0.203l-0.342-1.15c0.01,0.005,0.02,0.009,0.032,0.005
		c0.033-0.011,0.252-0.109,0.676-0.256c0.371-0.128,0.604-0.186,0.643-0.2s0.046-0.038,0.035-0.071l-0.046-0.133
		c-0.016-0.046-0.034-0.055-0.087-0.037l-0.146,0.05c-0.08,0.028-0.151-0.007-0.188-0.113L92.881,80.7
		c0.053-0.018,0.151-0.037,0.24,0.006c0.206,0.122,1.086,0.649,1.122,0.711c0.032,0.048,0.019,0.097-0.034,0.116l-0.053,0.018
		c-0.04,0.014-0.048,0.032-0.035,0.071l0.039,0.113c0.018,0.053,0.036,0.062,0.076,0.048c0.053-0.018,0.325-0.134,0.709-0.267
		c0.438-0.151,0.63-0.196,0.683-0.214s0.062-0.036,0.048-0.076L95.63,81.094z"/>
	<rect x="94.912" y="77.428" transform="matrix(0.838 -0.5457 0.5457 0.838 -27.4954 64.7181)" width="0.662" height="2.472"/>
	<path d="M76.109,84.832c-0.176,0-0.323,0.053-0.44,0.158c-0.117,0.105-0.176,0.236-0.176,0.393c0,0.069,0.012,0.164,0.037,0.286
		c0.019,0.083,0.029,0.161,0.029,0.235c0,0.245-0.198,0.367-0.595,0.367h-0.36c-0.054,0-0.103-0.001-0.147-0.004
		c-0.044-0.002-0.081-0.006-0.11-0.011c-0.127-0.019-0.21-0.093-0.25-0.22c-0.015-0.049-0.022-0.169-0.022-0.36v-2.07
		c0-0.269,0.078-0.404,0.235-0.404c0.054,0,0.131,0.009,0.231,0.026c0.1,0.017,0.177,0.026,0.231,0.026
		c0.112,0,0.206-0.046,0.279-0.139s0.11-0.21,0.11-0.352c0-0.161-0.048-0.29-0.143-0.385s-0.224-0.143-0.385-0.143
		c-0.103,0-0.272,0.015-0.506,0.044c-0.078,0.01-0.157,0.017-0.235,0.022c-0.078,0.005-0.159,0.007-0.242,0.007
		c-0.098,0-0.199-0.002-0.305-0.007c-0.105-0.005-0.217-0.012-0.334-0.022c-0.352-0.029-0.563-0.044-0.631-0.044
		c-0.362,0-0.543,0.179-0.543,0.536c0,0.137,0.038,0.252,0.114,0.345s0.17,0.139,0.283,0.139c0.044,0,0.104-0.008,0.18-0.026
		c0.076-0.017,0.133-0.026,0.172-0.026c0.132,0,0.198,0.164,0.198,0.492v2.033c0,0.333-0.066,0.499-0.198,0.499
		c-0.039,0-0.097-0.008-0.172-0.026c-0.076-0.017-0.133-0.026-0.172-0.026c-0.117,0-0.214,0.045-0.29,0.136
		c-0.076,0.091-0.114,0.207-0.114,0.349c0,0.157,0.048,0.286,0.143,0.389s0.219,0.154,0.371,0.154c0.073,0,0.148-0.004,0.224-0.011
		s0.158-0.017,0.246-0.029c0.088-0.012,0.185-0.022,0.29-0.029c0.105-0.007,0.224-0.011,0.356-0.011
		c0.881,0,1.556,0.015,2.026,0.044c0.157,0.01,0.294,0.017,0.411,0.022c0.117,0.005,0.218,0.007,0.301,0.007
		c0.318,0,0.477-0.135,0.477-0.404c0-0.01-0.003-0.043-0.007-0.099c-0.005-0.056-0.012-0.133-0.022-0.231
		c-0.005-0.049-0.009-0.098-0.011-0.147c-0.003-0.049-0.004-0.098-0.004-0.147c0-0.039,0.002-0.091,0.007-0.154
		c0.005-0.064,0.012-0.137,0.022-0.22s0.017-0.157,0.022-0.22c0.005-0.064,0.007-0.117,0.007-0.161
		C76.697,85.026,76.501,84.832,76.109,84.832z"/>
	<path d="M50.251,84.823c0-0.52-0.179-0.955-0.537-1.304c-0.358-0.349-0.929-0.641-1.713-0.877
		c-0.426-0.129-0.748-0.266-0.967-0.413c-0.219-0.147-0.328-0.329-0.328-0.547c0-0.233,0.093-0.42,0.28-0.563
		c0.187-0.142,0.448-0.214,0.785-0.214c0.349,0,0.62,0.085,0.813,0.255s0.289,0.408,0.289,0.714h1.378
		c0-0.401-0.103-0.759-0.31-1.075c-0.207-0.315-0.497-0.559-0.87-0.732c-0.374-0.173-0.799-0.259-1.277-0.259
		c-0.475,0-0.902,0.08-1.284,0.239c-0.381,0.159-0.674,0.38-0.877,0.664c-0.204,0.283-0.305,0.605-0.305,0.967
		c0,0.695,0.38,1.248,1.139,1.658c0.279,0.15,0.657,0.302,1.134,0.457c0.478,0.155,0.808,0.302,0.992,0.441
		c0.184,0.139,0.276,0.339,0.276,0.599c0,0.239-0.092,0.425-0.276,0.558c-0.184,0.133-0.439,0.2-0.767,0.2
		c-0.882,0-1.323-0.369-1.323-1.107h-1.382c0,0.432,0.111,0.811,0.333,1.139s0.544,0.586,0.967,0.774
		c0.422,0.188,0.891,0.282,1.405,0.282c0.741,0,1.33-0.165,1.768-0.494C50.032,85.856,50.251,85.402,50.251,84.823z"/>
	<polygon points="60.575,101.214 61.309,100.373 57.208,96.79 56.474,97.63 57.995,98.96 54.33,103.155 55.367,104.061 
		59.033,99.866 	"/>
	<path d="M53.526,101.466c-0.152,0.164-0.329,0.247-0.533,0.248c-0.204,0.001-0.398-0.08-0.583-0.241
		c-0.24-0.21-0.345-0.45-0.315-0.721c0.03-0.271,0.213-0.6,0.55-0.985l0.091-0.104c0.333-0.381,0.633-0.605,0.9-0.671
		c0.267-0.066,0.517,0.003,0.75,0.206c0.189,0.165,0.288,0.359,0.297,0.581c0.009,0.222-0.069,0.433-0.235,0.632l0.937,0.819
		c0.382-0.447,0.548-0.927,0.499-1.44c-0.05-0.513-0.309-0.974-0.777-1.383c-0.535-0.467-1.106-0.663-1.713-0.588
		c-0.607,0.076-1.162,0.402-1.666,0.978l-0.057,0.066c-0.524,0.599-0.78,1.204-0.768,1.814s0.285,1.149,0.82,1.616
		c0.286,0.25,0.598,0.42,0.936,0.51c0.338,0.09,0.667,0.089,0.988-0.003c0.32-0.092,0.592-0.264,0.816-0.516L53.526,101.466z"/>
	<path d="M51.318,99.066l0.036-0.041c0.067-0.208,0.212-0.441,0.436-0.697l1.123-1.285c0.24-0.288,0.338-0.592,0.297-0.912
		c-0.042-0.32-0.224-0.621-0.545-0.902c-0.203-0.177-0.422-0.302-0.658-0.375c-0.236-0.072-0.46-0.087-0.672-0.043
		c-0.212,0.043-0.379,0.135-0.501,0.274l0.48,0.419c0.107-0.122,0.255-0.176,0.446-0.161c0.19,0.015,0.371,0.096,0.541,0.245
		c0.194,0.17,0.298,0.348,0.312,0.534c0.013,0.186-0.053,0.363-0.199,0.529l-0.192,0.219l-0.464-0.406
		c-0.401-0.35-0.782-0.541-1.144-0.574s-0.669,0.097-0.923,0.388c-0.209,0.239-0.293,0.514-0.253,0.823
		c0.04,0.31,0.198,0.585,0.473,0.825c0.308,0.269,0.674,0.385,1.097,0.349c-0.106,0.156-0.169,0.274-0.19,0.353L51.318,99.066z
		 M50.87,97.828c-0.202-0.04-0.378-0.125-0.527-0.256c-0.157-0.137-0.248-0.291-0.274-0.462c-0.026-0.171,0.026-0.332,0.157-0.482
		c0.299-0.342,0.741-0.258,1.326,0.253l0.374,0.327l-0.5,0.573C51.257,97.852,51.072,97.868,50.87,97.828z"/>
	<path d="M58.933,101.476c-0.056,0.065-0.084,0.135-0.082,0.213c0.002,0.077,0.041,0.15,0.119,0.218
		c0.077,0.068,0.155,0.097,0.233,0.09s0.145-0.044,0.201-0.109s0.084-0.137,0.083-0.216c-0.001-0.08-0.041-0.153-0.118-0.221
		s-0.155-0.096-0.234-0.086S58.989,101.411,58.933,101.476z"/>
	<path d="M66.768,108.421l1.338-2.935l-1.076-0.94l-1.968,4.898l-0.386,0.205c-0.17,0.087-0.327,0.119-0.47,0.095
		c-0.144-0.024-0.31-0.119-0.499-0.284l-0.149-0.136l-0.662,0.757c0.112,0.175,0.24,0.326,0.385,0.452
		c0.514,0.449,1.097,0.527,1.747,0.234l0.255-0.125l5.281-3.009l-1.072-0.937L66.768,108.421z"/>
	<path d="M63.854,108.375c-0.284-0.185-0.507-0.347-0.667-0.487c-0.33-0.289-0.349-0.601-0.056-0.936l1.436-1.644l1.13,0.987
		l0.309-0.354l-1.13-0.987l0.661-0.756l-0.271-0.237l-0.846,0.567l-0.799-0.476l-0.119,0.136l-0.722-0.63l-2.551,2.92l0.783,0.684
		l2.459-2.814l0.628,0.549l-1.436,1.644c-0.517,0.592-0.464,1.16,0.159,1.704c0.21,0.183,0.451,0.345,0.722,0.486L63.854,108.375z"
		/>
	<rect x="56.065" y="103.187" transform="matrix(0.6579 -0.7531 0.7531 0.6579 -58.201 78.7763)" width="3.09" height="0.528"/>
	<polygon points="61.509,103.715 59.296,105.103 60.377,102.726 59.805,102.225 58.485,105.489 59.023,105.96 62.084,104.217 	"/>
</g>
</svg>
