<?xml version="1.0" encoding="utf-8"?>
<!-- Generator: Adobe Illustrator 25.4.1, SVG Export Plug-In . SVG Version: 6.00 Build 0)  -->
<svg version="1.1" id="Layer_1" xmlns="http://www.w3.org/2000/svg" xmlns:xlink="http://www.w3.org/1999/xlink" x="0px" y="0px"
	 viewBox="0 0 50 50" style="enable-background:new 0 0 50 50;" xml:space="preserve">
<style type="text/css">
	.st0{opacity:0.07;enable-background:new    ;}
	.st1{opacity:0.1;enable-background:new    ;}
	.st2{fill:#008BA8;}
	.st3{fill:#007690;}
	.st4{fill:#F79000;}
	.st5{fill:#2D2D2D;}
	.st6{fill:#004652;}
	.st7{fill:#E9E9E9;}
	.st8{fill:#FFFFFF;}
	.st9{fill:#BABABA;}
	.st10{opacity:0.13;}
	.st11{fill:#EC3200;}
</style>
<g>
	<ellipse class="st0" cx="12.777" cy="30.102" rx="10.004" ry="1.04"/>
	<g>
		
			<ellipse transform="matrix(0.9696 -0.2445 0.2445 0.9696 -8.1818 10.412)" class="st1" cx="37.846" cy="38.16" rx="10.004" ry="1.04"/>
		<g>
			<path class="st2" d="M47.593,26.799c0,0,0.013-0.128-0.008-0.329c-0.017-0.157-0.054-0.358-0.136-0.579
				c-0.04-0.109-0.092-0.224-0.156-0.339c-0.074-0.132-0.165-0.265-0.278-0.397c-0.078-0.091-0.167-0.18-0.268-0.267
				c-0.15-0.129-0.325-0.252-0.532-0.363c-0.162-0.088-0.344-0.169-0.546-0.24c-2.109-0.743-3.915-0.084-4.675,0.287
				c-0.759,0.371-4.877,2.835-7.932,5.35s-4.101,4.033-4.658,5.046s-1.181,2.16-1.198,2.768s-0.017,0.608-0.017,0.608l1.114,1.62
				c0,0,0.692,0.54,0.928,0.54s1.468-0.338,3.24-1.164c1.772-0.827,2.919-1.839,3.24-2.109c0.321-0.27,1.856-2.194,2.261-2.649
				c0.405-0.456,0.591-0.844,1.755-1.569c1.164-0.726,2.987-1.569,3.409-1.721s2.464-1.316,3.223-2.211
				c0.759-0.894,0.962-1.266,1.063-1.569C47.526,27.204,47.593,26.799,47.593,26.799z"/>
			<path class="st3" d="M29.232,40.502c0.236,0,1.468-0.338,3.24-1.164c1.772-0.827,2.919-1.839,3.24-2.109
				c0.321-0.27,1.856-2.194,2.261-2.649c0.405-0.456,0.591-0.844,1.755-1.569c1.164-0.726,2.987-1.569,3.409-1.721
				s2.464-1.316,3.223-2.211c0.759-0.894,0.962-1.266,1.063-1.569c0,0-0.624,0.861-2.877,1.823s-3.202,1.582-4.518,2.557
				c-1.316,0.975-3.506,3.341-4.582,4.43c-1.076,1.088-3.443,2.455-4.227,2.886c-0.785,0.43-1.405,0.709-1.734,0.759
				c-0.329,0.051-0.608-0.152-0.608-0.152l-0.574,0.152C28.304,39.962,28.996,40.502,29.232,40.502"/>
			<g>
				<path class="st4" d="M30.687,34.669c0.562,0.396,2.02,0.141,3.169-1.061c1.149-1.201,1.522-2.73,0.987-3.257
					c-0.652-0.642-2.07,0.119-3.219,1.321C30.475,32.873,29.882,34.102,30.687,34.669z"/>
				
					<ellipse transform="matrix(0.9528 -0.3037 0.3037 0.9528 -6.5407 12.8891)" class="st5" cx="38.169" cy="27.473" rx="0.315" ry="0.174"/>
				<path d="M37.909,27.694c0.03,0.091,0.188,0.122,0.354,0.069s0.276-0.17,0.246-0.261l-0.041-0.126
					c0.03,0.091-0.08,0.208-0.246,0.261c-0.166,0.053-0.324,0.022-0.354-0.069L37.909,27.694z"/>
				<path d="M39.376,30.24l-0.832,0.593c-0.117,0.084-0.291,0.028-0.385-0.124L37.842,30.2c-0.095-0.152-0.076-0.345,0.042-0.428
					l0.832-0.593c0.117-0.084,0.291-0.028,0.385,0.124l0.317,0.509C39.512,29.964,39.494,30.156,39.376,30.24z"/>
				<g>
					<path class="st6" d="M46.731,24.867c-0.142-0.122-0.307-0.239-0.499-0.345c-0.111-0.021-0.225-0.039-0.34-0.053
						c0.101,0.084,0.198,0.176,0.289,0.277c0.197,0.036,0.389,0.084,0.573,0.141C46.746,24.881,46.739,24.874,46.731,24.867z"/>
					<path class="st6" d="M47.277,25.531c-0.07-0.125-0.156-0.252-0.262-0.376c-0.205-0.069-0.419-0.126-0.64-0.169
						c0.09,0.124,0.173,0.257,0.247,0.399c0.236,0.048,0.462,0.111,0.678,0.188C47.292,25.559,47.285,25.545,47.277,25.531z"/>
					<path class="st6" d="M47.569,26.449c-0.014-0.137-0.045-0.308-0.107-0.496c-0.223-0.119-0.464-0.222-0.72-0.306
						c0.031,0.075,0.059,0.152,0.085,0.23c0.037,0.114,0.067,0.228,0.091,0.342c0.23,0.072,0.448,0.16,0.653,0.261
						C47.571,26.47,47.57,26.46,47.569,26.449z"/>
					<path class="st6" d="M39.13,29.007c-0.095-0.152-0.268-0.208-0.385-0.124l-0.911,0.75c-0.116,0.082-0.135,0.271-0.046,0.421
						c-0.019-0.114,0.015-0.225,0.097-0.284l0.832-0.593c0.117-0.084,0.291-0.028,0.385,0.124l0.317,0.509
						c0.052,0.083,0.069,0.178,0.056,0.261c0.053-0.161,0.069-0.387,0.005-0.49L39.13,29.007z"/>
				</g>
			</g>
			<g>
				<path class="st7" d="M27.528,38.181c0,0,0.329-0.152,0.776,0.38s0.7,0.96,0.717,1.148c0.017,0.188,0,0.363,0,0.363
					s-0.456,0.338-0.582,0.363s-0.911,0.11-0.911,0.11s-0.228,0-0.439-0.16c-0.211-0.16-0.397-0.473-0.413-0.633
					c-0.017-0.16,0.042-0.398,0.042-0.398l0.219-0.488l0.076-0.27L27.528,38.181z"/>
				<path class="st8" d="M28.439,40.434c0.127-0.025,0.582-0.363,0.582-0.363s0.017-0.175,0-0.363s-0.27-0.616-0.717-1.148
					c-0.447-0.532-0.776-0.38-0.776-0.38l-0.515,0.413c0,0,0.529-0.057,0.941,0.38c0.411,0.437,0.513,0.842,0.525,0.981
					C28.492,40.094,28.439,40.434,28.439,40.434z"/>
				<path class="st9" d="M26.682,39.572c-0.001,0.001-0.001,0.002-0.002,0.002c-0.006,0.059-0.009,0.122-0.004,0.176
					c0.017,0.16,0.203,0.473,0.413,0.633c0.106,0.081,0.217,0.121,0.301,0.141c0.085-0.073,0.001-0.337-0.19-0.596
					C27.006,39.664,26.774,39.505,26.682,39.572z"/>
				<ellipse transform="matrix(0.8051 -0.5931 0.5931 0.8051 -18.4868 23.8384)" cx="27.032" cy="40.051" rx="0.1" ry="0.288"/>
			</g>
			<g class="st10">
				<path class="st8" d="M33.749,35.869c-0.184,0-0.362-0.099-0.454-0.272c-0.133-0.25-0.038-0.562,0.212-0.695
					c0.352-0.187,0.679-0.438,0.972-0.744c0.471-0.493,0.834-1.093,0.996-1.647c0.08-0.272,0.365-0.429,0.637-0.349
					s0.429,0.365,0.349,0.637c-0.21,0.717-0.65,1.452-1.24,2.068c-0.369,0.386-0.783,0.703-1.232,0.941
					C33.913,35.849,33.83,35.869,33.749,35.869z"/>
			</g>
		</g>
		<g>
			<path class="st11" d="M26.876,39.842c-0.517-0.123-1.091-0.258-1.61-0.073c-0.386,0.137-0.749,0.449-0.818,0.871
				c-0.069,0.42,0.157,0.805,0.301,1.183c0.059,0.155,0.121,0.33,0.097,0.499c-0.031,0.214-0.204,0.343-0.392,0.421
				c-0.41,0.17-0.862,0.275-1.298,0.346c-0.426,0.07-0.863,0.094-1.292,0.047c-0.406-0.044-0.808-0.163-1.157-0.377
				c-0.4-0.244-0.667-0.608-0.931-0.985c-0.268-0.383-0.557-0.744-0.981-0.963c-0.412-0.213-0.878-0.291-1.338-0.309
				c-0.456-0.018-0.916,0.014-1.37,0.061c-0.44,0.045-0.882,0.118-1.291,0.293c-0.201,0.086-0.388,0.198-0.554,0.34
				c-0.178,0.152-0.315,0.34-0.437,0.538c-0.126,0.203-0.239,0.418-0.402,0.594c-0.139,0.15-0.311,0.263-0.506,0.326
				c-0.414,0.134-0.865,0.061-1.272-0.064c-0.422-0.13-0.821-0.327-1.203-0.548c-0.72-0.417-1.503-1.044-1.489-1.958
				c0.016-1.059,0.938-1.798,1.632-2.47c0.183-0.177,0.36-0.359,0.522-0.555c0.093-0.112-0.068-0.275-0.161-0.161
				c-0.663,0.803-1.61,1.383-2.034,2.369c-0.19,0.442-0.252,0.933-0.099,1.396c0.137,0.413,0.417,0.76,0.743,1.041
				c0.339,0.291,0.724,0.523,1.12,0.727c0.407,0.21,0.839,0.392,1.291,0.475c0.42,0.078,0.868,0.071,1.253-0.135
				c0.437-0.234,0.629-0.677,0.895-1.068c0.53-0.776,1.535-0.884,2.397-0.947c0.896-0.065,1.955-0.098,2.644,0.582
				c0.348,0.343,0.57,0.789,0.895,1.152c0.287,0.321,0.655,0.557,1.06,0.703c0.833,0.3,1.769,0.221,2.614,0.016
				c0.215-0.052,0.428-0.114,0.638-0.185c0.219-0.074,0.446-0.162,0.592-0.351c0.258-0.335,0.106-0.747-0.04-1.094
				c-0.152-0.361-0.352-0.776-0.128-1.151c0.252-0.421,0.765-0.544,1.223-0.515c0.28,0.018,0.554,0.084,0.826,0.148
				C26.958,40.096,27.019,39.876,26.876,39.842L26.876,39.842z"/>
		</g>
	</g>
	<g>
		<path class="st2" d="M2.357,29.22c0,0-0.077-0.077-0.172-0.22c-0.073-0.112-0.157-0.264-0.222-0.452
			c-0.032-0.093-0.06-0.196-0.08-0.306c-0.022-0.126-0.034-0.263-0.031-0.409c0.003-0.102,0.013-0.208,0.032-0.319
			c0.029-0.165,0.078-0.34,0.153-0.524c0.059-0.145,0.135-0.295,0.229-0.451c0.983-1.62,2.519-2.158,3.216-2.323
			s4.718-0.763,8.069-0.756c3.352,0.006,4.853,0.439,5.762,0.803c0.909,0.364,1.934,0.78,2.272,1.169
			c0.337,0.389,0.337,0.389,0.337,0.389l0.141,1.66c0,0-0.163,0.725-0.318,0.852s-1.143,0.568-2.748,0.978s-2.901,0.363-3.256,0.359
			c-0.355-0.005-2.395-0.44-2.905-0.521c-0.51-0.081-0.84-0.235-1.993-0.085s-2.8,0.577-3.158,0.704s-2.321,0.461-3.299,0.283
			s-1.31-0.312-1.54-0.457C2.619,29.449,2.357,29.22,2.357,29.22z"/>
		<path class="st3" d="M21.745,28.333c-0.155,0.127-1.143,0.568-2.748,0.978s-2.901,0.363-3.256,0.359
			c-0.355-0.005-2.395-0.44-2.905-0.521c-0.51-0.081-0.84-0.235-1.993-0.085s-2.8,0.577-3.158,0.704s-2.321,0.461-3.299,0.283
			s-1.31-0.312-1.54-0.457c0,0,0.871,0.228,2.864-0.352s2.947-0.684,4.333-0.753s4.092,0.305,5.381,0.441s3.574-0.241,4.319-0.381
			c0.745-0.14,1.301-0.29,1.544-0.434s0.316-0.426,0.316-0.426l0.457-0.209C22.063,27.481,21.9,28.206,21.745,28.333"/>
		<g>
			<path class="st4" d="M17.659,25.294c-0.155,0.561-1.248,1.177-2.646,1.008s-2.464-0.971-2.396-1.603
				c0.082-0.771,1.42-1.034,2.818-0.864S17.882,24.49,17.659,25.294z"/>
			
				<ellipse transform="matrix(0.9293 -0.3693 0.3693 0.9293 -8.4554 5.023)" class="st5" cx="8.893" cy="24.598" rx="0.267" ry="0.147"/>
			<path d="M9.182,24.604c0.029,0.076-0.058,0.181-0.195,0.235S8.715,24.876,8.685,24.8l-0.041-0.105
				c0.029,0.076,0.165,0.093,0.302,0.039s0.224-0.159,0.195-0.235L9.182,24.604z"/>
			<path d="M9.588,27.06l0.863-0.059c0.122-0.008,0.206-0.138,0.186-0.288l-0.066-0.503c-0.02-0.15-0.136-0.266-0.257-0.258
				L9.451,26.01c-0.122,0.008-0.206,0.138-0.186,0.288l0.066,0.503C9.35,26.952,9.466,27.069,9.588,27.06z"/>
			<g>
				<path class="st6" d="M1.884,27.492c0.027-0.156,0.073-0.321,0.141-0.494c0.062-0.074,0.126-0.146,0.194-0.217
					c-0.021,0.109-0.035,0.222-0.04,0.337c-0.11,0.13-0.21,0.264-0.299,0.4C1.882,27.509,1.883,27.5,1.884,27.492z"/>
				<path class="st6" d="M1.883,28.22c-0.021-0.12-0.033-0.249-0.031-0.387c0.097-0.155,0.207-0.307,0.329-0.455
					c0.008,0.13,0.025,0.261,0.053,0.394c-0.129,0.158-0.243,0.321-0.343,0.487C1.888,28.246,1.885,28.233,1.883,28.22z"/>
				<path class="st6" d="M2.185,28.978c-0.064-0.097-0.136-0.226-0.196-0.382c0.082-0.198,0.185-0.395,0.307-0.587
					c0.02,0.066,0.043,0.131,0.068,0.197C2.4,28.3,2.442,28.391,2.487,28.479C2.376,28.65,2.28,28.824,2.2,29
					C2.195,28.993,2.19,28.986,2.185,28.978z"/>
				<path class="st6" d="M9.087,26.12c-0.02-0.15,0.064-0.28,0.186-0.288l1,0.002c0.12-0.008,0.234,0.105,0.256,0.252
					c-0.049-0.085-0.131-0.14-0.216-0.134L9.451,26.01c-0.122,0.008-0.206,0.138-0.186,0.288l0.066,0.503
					c0.011,0.082,0.05,0.154,0.104,0.201c-0.121-0.077-0.253-0.217-0.266-0.318L9.087,26.12z"/>
			</g>
		</g>
		<g>
			<path class="st7" d="M21.615,25.898c0,0-0.297,0.077-0.305,0.666c-0.007,0.588,0.057,1.005,0.147,1.137s0.195,0.238,0.195,0.238
				s0.48-0.024,0.576-0.075c0.097-0.051,0.656-0.418,0.656-0.418s0.149-0.122,0.201-0.341c0.052-0.218,0.006-0.523-0.069-0.637
				s-0.242-0.238-0.242-0.238l-0.406-0.202l-0.195-0.136L21.615,25.898z"/>
			<path class="st8" d="M22.229,27.863c-0.097,0.051-0.576,0.075-0.576,0.075s-0.105-0.105-0.195-0.238
				c-0.09-0.132-0.154-0.549-0.147-1.137s0.305-0.666,0.305-0.666l0.559-0.006c0,0-0.377,0.247-0.412,0.754s0.116,0.827,0.183,0.925
				S22.229,27.863,22.229,27.863z"/>
			<path class="st9" d="M22.917,26.354c0.001,0,0.002,0,0.003,0c0.036,0.036,0.072,0.075,0.097,0.113
				c0.075,0.114,0.121,0.418,0.069,0.637c-0.026,0.11-0.077,0.196-0.121,0.254c-0.095-0.002-0.182-0.22-0.196-0.493
				C22.754,26.588,22.82,26.359,22.917,26.354z"/>
			<ellipse transform="matrix(0.9987 -0.0519 0.0519 0.9987 -1.3629 1.227)" cx="22.945" cy="26.857" rx="0.085" ry="0.244"/>
		</g>
		<g class="st10">
			<path class="st8" d="M16.298,27.724c0.12-0.099,0.184-0.259,0.151-0.422c-0.047-0.236-0.277-0.389-0.512-0.341
				c-0.331,0.066-0.68,0.078-1.037,0.035c-0.573-0.07-1.134-0.268-1.537-0.543c-0.198-0.136-0.469-0.085-0.605,0.114
				c-0.136,0.199-0.085,0.469,0.114,0.605c0.523,0.357,1.206,0.602,1.923,0.689c0.449,0.055,0.891,0.039,1.312-0.045
				C16.18,27.8,16.245,27.768,16.298,27.724z"/>
		</g>
	</g>
</g>
</svg>
