<?xml version="1.0" encoding="utf-8"?>
<!-- Generator: Adobe Illustrator 25.4.1, SVG Export Plug-In . SVG Version: 6.00 Build 0)  -->
<svg version="1.1" id="Layer_1" xmlns="http://www.w3.org/2000/svg" xmlns:xlink="http://www.w3.org/1999/xlink" x="0px" y="0px"
	 viewBox="0 0 50 50" style="enable-background:new 0 0 50 50;" xml:space="preserve">
<style type="text/css">
	.st0{opacity:0.07;enable-background:new    ;}
	.st1{opacity:0.1;enable-background:new    ;}
	.st2{fill:#008BA8;}
	.st3{fill:#007690;}
	.st4{fill:#F79000;}
	.st5{fill:#2D2D2D;}
	.st6{fill:#004652;}
	.st7{fill:#E9E9E9;}
	.st8{fill:#FFFFFF;}
	.st9{fill:#BABABA;}
	.st10{opacity:0.13;}
	.st11{fill:#EC3200;}
</style>
<ellipse transform="matrix(0.9998 -0.0208 0.0208 0.9998 -0.7458 0.7219)" class="st0" cx="34.257" cy="36.14" rx="10.004" ry="1.04"/>
<ellipse transform="matrix(0.1937 -0.9811 0.9811 0.1937 -32.0031 46.1161)" class="st1" cx="12.056" cy="42.529" rx="1.036" ry="9.412"/>
<g>
	<path class="st2" d="M2.027,30.744c0.101,0.303,0.304,0.675,1.063,1.569c0.759,0.895,2.801,2.059,3.223,2.211
		s2.245,0.995,3.409,1.721c1.164,0.725,1.35,1.113,1.755,1.569c0.405,0.455,1.94,2.379,2.261,2.649
		c0.321,0.27,1.468,1.282,3.24,2.109c1.772,0.826,3.004,1.164,3.24,1.164s0.928-0.54,0.928-0.54l1.114-1.62c0,0,0,0-0.017-0.608
		s-0.641-1.755-1.198-2.768s-1.603-2.531-4.658-5.046s-7.173-4.979-7.932-5.35c-0.76-0.371-2.566-1.03-4.675-0.287
		c-0.202,0.071-0.384,0.152-0.546,0.24c-0.207,0.111-0.382,0.234-0.532,0.363c-0.101,0.087-0.19,0.176-0.268,0.267
		c-0.113,0.132-0.204,0.265-0.278,0.397C2.092,28.899,2.04,29.014,2,29.123c-0.082,0.221-0.119,0.422-0.136,0.579
		c-0.021,0.201-0.008,0.329-0.008,0.329S1.923,30.436,2.027,30.744z"/>
	<path class="st3" d="M20.217,43.734c0.236,0,0.928-0.54,0.929-0.537l-0.574-0.152c0,0-0.279,0.203-0.608,0.152
		c-0.329-0.05-0.949-0.329-1.734-0.759c-0.784-0.431-3.151-1.798-4.227-2.886c-1.076-1.089-3.266-3.455-4.582-4.43
		c-1.316-0.975-2.265-1.595-4.518-2.557c-2.253-0.962-2.877-1.823-2.877-1.823c0.101,0.303,0.304,0.675,1.063,1.569
		c0.759,0.895,2.801,2.059,3.223,2.211s2.245,0.995,3.409,1.721c1.164,0.725,1.35,1.113,1.755,1.569
		c0.405,0.455,1.94,2.379,2.261,2.649c0.321,0.27,1.468,1.282,3.24,2.109C18.749,43.396,19.981,43.734,20.217,43.734"/>
	<g>
		<path class="st4" d="M17.825,34.904c-1.149-1.202-2.567-1.963-3.219-1.321c-0.535,0.527-0.162,2.056,0.987,3.257
			c1.149,1.202,2.607,1.457,3.169,1.061C19.567,37.334,18.974,36.105,17.825,34.904z"/>
		
			<ellipse transform="matrix(0.3037 -0.9528 0.9528 0.3037 -21.4019 32.126)" class="st5" cx="11.278" cy="30.705" rx="0.174" ry="0.315"/>
		<path d="M11.581,30.8c-0.03,0.091-0.188,0.122-0.354,0.069c-0.166-0.053-0.276-0.17-0.246-0.261l-0.041,0.126
			c-0.03,0.091,0.08,0.208,0.246,0.261s0.324,0.022,0.354-0.069L11.581,30.8z"/>
		<path d="M10.031,33.044l0.317-0.509c0.094-0.152,0.268-0.208,0.385-0.124l0.832,0.593c0.118,0.083,0.137,0.276,0.042,0.428
			l-0.317,0.509c-0.094,0.152-0.268,0.208-0.385,0.124l-0.832-0.593C9.955,33.388,9.937,33.196,10.031,33.044z"/>
		<g>
			<path class="st6" d="M2.695,28.119c0.184-0.057,0.376-0.105,0.573-0.141c0.091-0.101,0.188-0.193,0.289-0.277
				c-0.115,0.014-0.229,0.032-0.34,0.053c-0.192,0.106-0.357,0.223-0.499,0.345C2.71,28.106,2.703,28.113,2.695,28.119z"/>
			<path class="st6" d="M2.149,28.805c0.216-0.077,0.442-0.14,0.678-0.188c0.074-0.142,0.157-0.275,0.247-0.399
				c-0.221,0.043-0.435,0.1-0.64,0.169c-0.106,0.124-0.192,0.251-0.262,0.376C2.164,28.777,2.157,28.791,2.149,28.805z"/>
			<path class="st6" d="M1.878,29.712c0.205-0.101,0.423-0.189,0.653-0.261c0.024-0.114,0.054-0.228,0.091-0.342
				c0.026-0.078,0.054-0.155,0.085-0.23c-0.256,0.084-0.497,0.187-0.72,0.306c-0.062,0.188-0.093,0.359-0.107,0.496
				C1.879,29.692,1.878,29.702,1.878,29.712z"/>
			<path class="st6" d="M9.969,32.813c-0.064,0.103-0.048,0.329,0.005,0.49c-0.013-0.083,0.004-0.178,0.056-0.261l0.317-0.509
				c0.094-0.152,0.268-0.208,0.385-0.124l0.832,0.593c0.082,0.059,0.116,0.17,0.097,0.284c0.089-0.15,0.07-0.339-0.046-0.421
				l-0.911-0.75c-0.117-0.084-0.29-0.028-0.385,0.124L9.969,32.813z"/>
		</g>
	</g>
	<g>
		<path class="st7" d="M22.436,41.828l0.076,0.27l0.219,0.488c0,0,0.059,0.238,0.042,0.398c-0.016,0.16-0.202,0.473-0.413,0.633
			c-0.211,0.16-0.439,0.16-0.439,0.16s-0.785-0.085-0.911-0.11s-0.582-0.363-0.582-0.363s-0.017-0.175,0-0.363
			c0.017-0.188,0.27-0.616,0.717-1.148s0.776-0.38,0.776-0.38L22.436,41.828z"/>
		<path class="st8" d="M20.97,43.186c0.012-0.139,0.114-0.544,0.525-0.981c0.412-0.437,0.941-0.38,0.941-0.38l-0.515-0.413
			c0,0-0.329-0.152-0.776,0.38c-0.447,0.532-0.7,0.96-0.717,1.148s0,0.363,0,0.363s0.455,0.338,0.582,0.363
			C21.01,43.666,20.957,43.326,20.97,43.186z"/>
		<path class="st9" d="M22.249,43.16c-0.191,0.259-0.275,0.523-0.19,0.596c0.084-0.02,0.195-0.06,0.301-0.141
			c0.21-0.16,0.396-0.473,0.413-0.633c0.005-0.054,0.002-0.117-0.004-0.176c-0.001,0-0.001-0.001-0.002-0.002
			C22.675,42.737,22.443,42.896,22.249,43.16z"/>
		<ellipse transform="matrix(0.5931 -0.8051 0.8051 0.5931 -25.7262 35.6599)" cx="22.418" cy="43.283" rx="0.288" ry="0.1"/>
	</g>
	<g class="st10">
		<path class="st8" d="M15.46,39.04c-0.449-0.238-0.863-0.555-1.232-0.941c-0.59-0.616-1.03-1.351-1.24-2.068
			c-0.08-0.272,0.077-0.557,0.349-0.637s0.557,0.077,0.637,0.349c0.162,0.554,0.525,1.154,0.996,1.647
			c0.293,0.306,0.62,0.557,0.972,0.744c0.25,0.133,0.345,0.445,0.212,0.695c-0.092,0.173-0.27,0.272-0.454,0.272
			C15.619,39.101,15.536,39.081,15.46,39.04z"/>
	</g>
</g>
<g>
	<path class="st11" d="M22.573,43.074c-0.143,0.034-0.082,0.254,0.06,0.219c0.272-0.064,0.546-0.13,0.826-0.148
		c0.458-0.029,0.971,0.094,1.223,0.515c0.224,0.375,0.024,0.79-0.128,1.151c-0.146,0.347-0.298,0.759-0.04,1.094
		c0.146,0.189,0.373,0.277,0.592,0.351c0.21,0.071,0.423,0.133,0.638,0.185c0.845,0.205,1.781,0.284,2.614-0.016
		c0.405-0.146,0.773-0.382,1.06-0.703c0.325-0.363,0.547-0.809,0.895-1.152c0.689-0.68,1.748-0.647,2.644-0.582
		c0.862,0.063,1.867,0.171,2.397,0.947c0.266,0.391,0.458,0.834,0.895,1.068c0.385,0.206,0.833,0.213,1.253,0.135
		c0.452-0.083,0.884-0.265,1.291-0.475c0.396-0.204,0.781-0.436,1.12-0.727c0.326-0.281,0.606-0.628,0.743-1.041
		c0.153-0.463,0.091-0.954-0.099-1.396c-0.424-0.986-1.371-1.566-2.034-2.369c-0.093-0.114-0.254,0.049-0.161,0.161
		c0.162,0.196,0.339,0.378,0.522,0.555c0.694,0.672,1.616,1.411,1.632,2.47c0.014,0.914-0.769,1.541-1.489,1.958
		c-0.382,0.221-0.781,0.418-1.203,0.548c-0.407,0.125-0.858,0.198-1.272,0.064c-0.195-0.063-0.367-0.176-0.506-0.326
		c-0.163-0.176-0.276-0.391-0.402-0.594c-0.122-0.198-0.259-0.386-0.437-0.538c-0.166-0.142-0.353-0.254-0.554-0.34
		c-0.409-0.175-0.851-0.248-1.291-0.293c-0.454-0.047-0.914-0.079-1.37-0.061c-0.46,0.018-0.926,0.096-1.338,0.309
		c-0.424,0.219-0.713,0.58-0.981,0.963c-0.264,0.377-0.531,0.741-0.931,0.985c-0.349,0.214-0.751,0.333-1.157,0.377
		c-0.429,0.047-0.866,0.023-1.292-0.047c-0.436-0.071-0.888-0.176-1.298-0.346c-0.188-0.078-0.361-0.207-0.392-0.421
		c-0.024-0.169,0.038-0.344,0.097-0.499c0.144-0.378,0.37-0.763,0.301-1.183c-0.069-0.422-0.432-0.734-0.818-0.871
		C23.664,42.816,23.09,42.951,22.573,43.074L22.573,43.074z"/>
</g>
<g>
	<path class="st2" d="M43.427,28.55c-0.137,0.235-0.37,0.507-1.155,1.117c-0.785,0.61-2.681,1.22-3.057,1.273
		c-0.376,0.053-2.034,0.435-3.126,0.834s-1.313,0.689-1.728,0.996s-2.023,1.635-2.336,1.804c-0.313,0.168-1.441,0.808-3.054,1.185
		s-2.693,0.443-2.889,0.402c-0.196-0.041-0.676-0.609-0.676-0.609l-0.642-1.537c0,0,0,0,0.119-0.501
		c0.12-0.501,0.837-1.344,1.475-2.086c0.638-0.743,1.769-1.82,4.74-3.374c2.969-1.554,6.812-2.881,7.506-3.056
		c0.694-0.176,2.305-0.408,3.925,0.575c0.155,0.095,0.292,0.193,0.411,0.294c0.152,0.129,0.276,0.261,0.378,0.394
		c0.068,0.09,0.126,0.179,0.176,0.268c0.07,0.128,0.123,0.255,0.161,0.377c0.033,0.107,0.056,0.211,0.07,0.308
		c0.029,0.197,0.025,0.37,0.012,0.503c-0.018,0.171-0.051,0.275-0.051,0.275S43.562,28.316,43.427,28.55z"/>
	<path class="st3" d="M26.083,36.16c-0.196-0.041-0.676-0.609-0.673-0.611l0.502-0.026c0,0,0.195,0.216,0.477,0.232
		s0.844-0.108,1.57-0.328c0.725-0.22,2.926-0.941,4.007-1.657c1.08-0.716,3.308-2.298,4.569-2.876
		c1.261-0.579,2.155-0.927,4.191-1.333c2.036-0.406,2.703-1.011,2.703-1.011c-0.137,0.235-0.37,0.507-1.155,1.117
		c-0.785,0.61-2.681,1.22-3.057,1.273c-0.376,0.053-2.034,0.435-3.126,0.834c-1.092,0.399-1.313,0.689-1.728,0.996
		s-2.023,1.635-2.336,1.804c-0.313,0.168-1.441,0.808-3.054,1.185C27.359,36.136,26.279,36.201,26.083,36.16"/>
	<g>
		<path class="st4" d="M29.602,29.256c1.161-0.796,2.47-1.181,2.898-0.535c0.352,0.529-0.223,1.733-1.385,2.528
			c-1.162,0.796-2.416,0.754-2.812,0.328C27.734,30.967,28.44,30.053,29.602,29.256z"/>
		
			<ellipse transform="matrix(0.9948 -0.1017 0.1017 0.9948 -2.5507 3.7747)" class="st5" cx="35.756" cy="26.911" rx="0.267" ry="0.147"/>
		<path d="M35.491,26.938c0.009,0.081,0.135,0.134,0.281,0.118c0.146-0.015,0.259-0.093,0.25-0.174l0.012,0.112
			c0.008,0.081-0.103,0.159-0.25,0.174s-0.272-0.038-0.281-0.118L35.491,26.938z"/>
		<path d="M36.386,29.068l-0.174-0.477c-0.052-0.142-0.186-0.219-0.298-0.17l-0.792,0.347c-0.111,0.049-0.16,0.205-0.109,0.348
			l0.174,0.477c0.052,0.142,0.186,0.219,0.298,0.17l0.793-0.346C36.39,29.368,36.438,29.21,36.386,29.068z"/>
		<g>
			<path class="st6" d="M43.325,26.262c-0.142-0.08-0.292-0.152-0.45-0.217c-0.058-0.1-0.122-0.193-0.191-0.28
				c0.093,0.032,0.183,0.066,0.272,0.103c0.14,0.122,0.257,0.247,0.353,0.373C43.314,26.248,43.319,26.255,43.325,26.262z"/>
			<path class="st6" d="M43.658,26.925c-0.165-0.101-0.342-0.193-0.529-0.274c-0.037-0.131-0.082-0.255-0.135-0.374
				c0.177,0.075,0.344,0.159,0.502,0.252c0.066,0.121,0.114,0.241,0.151,0.358C43.651,26.899,43.654,26.912,43.658,26.925z"/>
			<path class="st6" d="M43.726,27.725c-0.152-0.119-0.318-0.229-0.495-0.33c-0.001-0.099-0.006-0.199-0.017-0.299
				c-0.008-0.07-0.018-0.138-0.031-0.206c0.197,0.114,0.379,0.241,0.543,0.379c0.019,0.166,0.015,0.314,0.003,0.429
				C43.728,27.708,43.727,27.716,43.726,27.725z"/>
			<path class="st6" d="M36.475,28.889c0.035,0.096-0.017,0.281-0.089,0.405c0.026-0.067,0.028-0.149-0.001-0.226l-0.174-0.477
				c-0.052-0.142-0.186-0.219-0.298-0.17l-0.791,0.347c-0.078,0.034-0.125,0.121-0.13,0.219c-0.048-0.141,0.001-0.293,0.111-0.342
				l0.886-0.464c0.112-0.049,0.246,0.027,0.298,0.17L36.475,28.889z"/>
		</g>
	</g>
	<g>
		<path class="st7" d="M24.576,34.193l-0.11,0.211l-0.267,0.367c0,0-0.091,0.187-0.105,0.323c-0.014,0.136,0.086,0.428,0.233,0.597
			c0.147,0.17,0.336,0.21,0.336,0.21s0.665,0.067,0.775,0.068c0.109,0.001,0.546-0.2,0.546-0.2s0.044-0.143,0.063-0.301
			c0.019-0.159-0.117-0.558-0.395-1.076c-0.279-0.519-0.578-0.45-0.578-0.45L24.576,34.193z"/>
		<path class="st8" d="M25.552,35.576c0.014-0.118,0-0.471-0.265-0.905s-0.714-0.478-0.714-0.478l0.499-0.253
			c0,0,0.3-0.068,0.578,0.45s0.414,0.918,0.395,1.076c-0.018,0.16-0.063,0.301-0.063,0.301s-0.436,0.2-0.546,0.2
			C25.436,35.967,25.538,35.694,25.552,35.576z"/>
		<path class="st9" d="M24.496,35.331c0.114,0.249,0.137,0.482,0.054,0.528c-0.066-0.031-0.151-0.084-0.225-0.169
			c-0.147-0.17-0.247-0.461-0.233-0.597c0.005-0.045,0.019-0.096,0.034-0.145c0.001,0,0.002-0.001,0.003-0.001
			C24.217,34.906,24.382,35.079,24.496,35.331z"/>
		<ellipse transform="matrix(0.9097 -0.4152 0.4152 0.9097 -12.5046 13.3012)" cx="24.336" cy="35.407" rx="0.085" ry="0.244"/>
	</g>
	<g class="st10">
		<path class="st8" d="M30.844,33.098c0.412-0.12,0.812-0.31,1.184-0.566c0.596-0.408,1.088-0.941,1.387-1.499
			c0.114-0.213,0.034-0.476-0.178-0.589s-0.476-0.034-0.589,0.178c-0.23,0.43-0.637,0.865-1.112,1.192
			c-0.297,0.203-0.612,0.354-0.936,0.448c-0.231,0.066-0.364,0.308-0.297,0.539c0.046,0.16,0.177,0.272,0.329,0.305
			C30.7,33.119,30.772,33.117,30.844,33.098z"/>
	</g>
</g>
</svg>
