<?xml version="1.0" encoding="utf-8"?>
<!-- Generator: Adobe Illustrator 26.0.1, SVG Export Plug-In . SVG Version: 6.00 Build 0)  -->
<svg version="1.1" id="Layer_1" xmlns="http://www.w3.org/2000/svg" xmlns:xlink="http://www.w3.org/1999/xlink" x="0px" y="0px"
	 viewBox="0 0 50 50" style="enable-background:new 0 0 50 50;" xml:space="preserve">
<style type="text/css">
	.st0{fill:#3298DC;}
</style>
<g>
	<g>
		<path class="st0" d="M22.23,17.508c0.44,0,0.799-0.174,1.079-0.524l0.054,0.446h1.013v-5.96H23.25v2.142
			c-0.266-0.305-0.604-0.458-1.013-0.458c-0.51,0-0.911,0.194-1.205,0.582c-0.294,0.388-0.44,0.909-0.44,1.564
			c0,0.693,0.149,1.235,0.448,1.624C21.339,17.313,21.735,17.508,22.23,17.508z M22.525,14.066c0.344,0,0.586,0.146,0.726,0.439
			v1.659c-0.142,0.293-0.387,0.439-0.733,0.439c-0.261,0-0.461-0.105-0.598-0.315c-0.137-0.21-0.206-0.512-0.206-0.906
			C21.713,14.505,21.984,14.066,22.525,14.066z M16.84,16.266h2.041l0.392,1.164h1.238l-2.115-5.65h-1.079l-2.103,5.65h1.238
			L16.84,16.266z M17.857,13.208l0.71,2.115h-1.412L17.857,13.208z M37.846,19.887c-2.265-0.791-4.847-0.549-6.905,0.089
			l1.124,7.391l-4.837-7.917l-4.806,9.582c-1.298-4.572-1.988-9.491-1.988-9.491l-4.121,6.903l-4.571-7.3l-0.77,7.446
			c-0.029-0.079-0.05-0.122-0.05-0.122l-0.002-0.022c-0.044-0.095-0.111-0.219-0.147-0.278c-0.661-1.202-2.887-1.912-4.46-2.452
			c-3.987-1.371-2.77-2.781-0.609-3.117c1.509-0.236,3.22,0.036,4.295,0.71l0.552-1.617c-3.014-1.593-9.712-1.148-8.627,3.037
			c0.627,2.42,5.706,2.765,6.907,4.18c0.1,0.119,0.238,0.287,0.304,0.44c0.089,0.209,0.119,0.448,0.024,0.749
			c-0.014,0.045-0.036,0.191-0.065,0.25c-0.043,0.086-0.091,0.172-0.126,0.217c-0.768,0.977-2.312,1.014-3.727,0.841
			c-1.621-0.198-3.07-1.001-3.154-1.189l-0.681,1.72c2.562,1.39,7.425,2.211,9.24-0.349c0.007-0.01,0.012-0.017,0.018-0.028
			l-0.17,1.645l1.925-0.033l0.595-6.744l3.385,5.371l3.16-5.371c0,0,0.336,1.392,0.947,3.946c0.516,2.158,0.84,2.976,0.84,2.976
			l1.657-0.13l1.639-3.314h5.854l2.189,3.313l1.811-0.003l-0.974-5.78c1.204,1.681,4.53,3.901,7.145,4.824l-0.175,1.001l1.893,0.044
			l1.664-9.87l4.005,0.044l0.624-1.616L37.846,19.887z M25.443,26.293l1.928-3.896l2.061,3.896H25.443z M33.185,23.283l-0.34-2.187
			c1.15-0.692,4.859-0.275,4.444,0.879C36.872,23.129,33.261,23.624,33.185,23.283z M40.964,28.701
			c-2.287-0.813-5.799-3.462-5.93-4.011c1.291-0.098,4.048-0.835,3.753-3.209l3.294,0.022L40.964,28.701z M35.313,37.238
			l-0.78-2.612h-1.207l1.471,4.21l-0.132,0.345c-0.06,0.15-0.142,0.257-0.246,0.322c-0.105,0.065-0.263,0.097-0.475,0.097
			l-0.171-0.004v0.85c0.168,0.049,0.334,0.074,0.497,0.074c0.577,0,0.991-0.274,1.242-0.823l0.093-0.221l1.688-4.851h-1.203
			L35.313,37.238z M26.509,17.508c0.44,0,0.799-0.174,1.079-0.524l0.054,0.446h1.013v-5.96h-1.125v2.142
			c-0.266-0.305-0.604-0.458-1.013-0.458c-0.51,0-0.911,0.194-1.205,0.582c-0.294,0.388-0.44,0.909-0.44,1.564
			c0,0.693,0.149,1.235,0.448,1.624C25.618,17.313,26.015,17.508,26.509,17.508z M26.804,14.066c0.344,0,0.586,0.146,0.726,0.439
			v1.659c-0.142,0.293-0.387,0.439-0.733,0.439c-0.261,0-0.46-0.105-0.598-0.315c-0.137-0.21-0.206-0.512-0.206-0.906
			C25.993,14.505,26.263,14.066,26.804,14.066z M32.863,14.865c-0.623,0.003-1.1,0.123-1.43,0.361
			c-0.33,0.238-0.495,0.58-0.495,1.024c0,0.362,0.135,0.662,0.406,0.9c0.27,0.238,0.611,0.357,1.022,0.357
			c0.435,0,0.788-0.151,1.059-0.454c0.023,0.15,0.061,0.275,0.113,0.376h1.133v-0.066c-0.109-0.204-0.164-0.506-0.167-0.904v-1.82
			c0-0.471-0.152-0.836-0.456-1.096c-0.304-0.26-0.715-0.39-1.232-0.39c-0.341,0-0.649,0.059-0.924,0.177
			c-0.274,0.118-0.486,0.28-0.636,0.487c-0.15,0.207-0.225,0.432-0.225,0.675h1.121c0-0.158,0.054-0.282,0.161-0.372
			c0.107-0.091,0.255-0.136,0.444-0.136c0.215,0,0.372,0.058,0.471,0.175c0.1,0.116,0.149,0.272,0.149,0.466v0.241H32.863z
			 M33.38,16.243c-0.067,0.124-0.171,0.223-0.31,0.297c-0.14,0.074-0.292,0.111-0.458,0.111c-0.171,0-0.305-0.045-0.404-0.136
			c-0.098-0.091-0.147-0.206-0.147-0.345l0.004-0.066c0.036-0.388,0.335-0.582,0.896-0.582h0.419V16.243z M27.833,38.825h1.125
			v-5.96h-1.125V38.825z M45.801,29.936v-0.014c0.139-0.044,0.248-0.139,0.248-0.286c0-0.117-0.05-0.205-0.124-0.257
			c-0.08-0.058-0.182-0.095-0.408-0.095c-0.197,0-0.35,0.022-0.46,0.037v1.201h0.277v-0.476h0.131c0.153,0,0.226,0.059,0.248,0.184
			c0.036,0.146,0.058,0.249,0.094,0.293h0.293c-0.023-0.044-0.052-0.11-0.088-0.293C45.976,30.068,45.918,29.973,45.801,29.936z
			 M45.474,29.848h-0.132v-0.344c0.03-0.008,0.081-0.014,0.153-0.014c0.175,0,0.255,0.073,0.255,0.183
			C45.75,29.797,45.627,29.848,45.474,29.848z M25.641,34.549c-0.437,0-0.792,0.163-1.063,0.489l-0.039-0.411h-1.04v5.813h1.121
			V38.46c0.261,0.295,0.604,0.442,1.028,0.442c0.499,0,0.896-0.195,1.189-0.584c0.294-0.389,0.44-0.907,0.44-1.554v-0.058
			c0-0.673-0.144-1.2-0.431-1.583C26.561,34.74,26.158,34.549,25.641,34.549z M25.354,37.998c-0.352,0-0.596-0.138-0.733-0.415
			v-1.719c0.132-0.269,0.374-0.404,0.726-0.404c0.264,0,0.465,0.106,0.603,0.318c0.138,0.212,0.208,0.514,0.208,0.904
			C26.157,37.56,25.889,37.998,25.354,37.998z M33.082,36.035c0-0.471-0.152-0.836-0.456-1.096c-0.304-0.26-0.715-0.39-1.232-0.39
			c-0.342,0-0.649,0.059-0.924,0.177c-0.274,0.118-0.486,0.28-0.636,0.487c-0.15,0.207-0.225,0.432-0.225,0.675h1.121
			c0-0.158,0.054-0.282,0.161-0.372c0.107-0.091,0.255-0.136,0.444-0.136c0.215,0,0.372,0.058,0.471,0.175
			c0.099,0.116,0.149,0.272,0.149,0.466v0.241h-0.516c-0.623,0.003-1.1,0.123-1.43,0.361c-0.33,0.238-0.495,0.58-0.495,1.024
			c0,0.362,0.135,0.662,0.406,0.9c0.27,0.238,0.611,0.357,1.022,0.357c0.435,0,0.788-0.151,1.059-0.454
			c0.023,0.15,0.061,0.276,0.113,0.376h1.133v-0.066c-0.109-0.204-0.164-0.506-0.167-0.904V36.035z M31.957,37.637
			c-0.067,0.124-0.171,0.223-0.31,0.297c-0.14,0.074-0.292,0.111-0.458,0.111c-0.171,0-0.305-0.045-0.404-0.136
			c-0.098-0.091-0.147-0.206-0.147-0.345l0.004-0.066c0.036-0.388,0.335-0.582,0.896-0.582h0.419V37.637z M45.532,28.699
			c-0.693,0-1.24,0.527-1.24,1.201c0,0.674,0.547,1.209,1.233,1.209c0.685,0,1.225-0.534,1.225-1.209
			C46.749,29.226,46.209,28.699,45.532,28.699z M45.532,30.859c-0.532,0-0.933-0.425-0.933-0.96c0-0.527,0.401-0.959,0.919-0.959
			c0.531,0,0.926,0.432,0.926,0.966C46.443,30.434,46.049,30.866,45.532,30.859z M17.761,38.825h1.125v-4.199h-1.125V38.825z
			 M18.324,32.961c-0.194,0-0.347,0.054-0.46,0.163s-0.169,0.247-0.169,0.415c0,0.171,0.057,0.31,0.173,0.419
			c0.115,0.109,0.267,0.163,0.456,0.163c0.189,0,0.341-0.054,0.456-0.163c0.115-0.109,0.173-0.248,0.173-0.419
			c0-0.168-0.057-0.307-0.171-0.415S18.515,32.961,18.324,32.961z M15.907,35.006c-0.266-0.305-0.604-0.458-1.013-0.458
			c-0.51,0-0.911,0.194-1.205,0.582c-0.294,0.388-0.44,0.909-0.44,1.564c0,0.693,0.149,1.235,0.448,1.624
			c0.299,0.389,0.695,0.584,1.189,0.584c0.44,0,0.799-0.175,1.079-0.524l0.054,0.446h1.013v-5.96h-1.125V35.006z M15.907,37.559
			c-0.142,0.293-0.387,0.439-0.733,0.439c-0.261,0-0.461-0.105-0.598-0.315c-0.137-0.21-0.206-0.512-0.206-0.906
			c0-0.878,0.27-1.318,0.811-1.318c0.344,0,0.586,0.146,0.726,0.439V37.559z M22.087,36.489c-0.191-0.07-0.427-0.133-0.706-0.188
			c-0.279-0.056-0.478-0.122-0.596-0.198c-0.118-0.076-0.177-0.177-0.177-0.301c0-0.132,0.052-0.241,0.155-0.326
			c0.103-0.085,0.25-0.128,0.439-0.128c0.22,0,0.382,0.052,0.485,0.157c0.103,0.105,0.155,0.237,0.155,0.398h1.121
			c0-0.401-0.16-0.727-0.479-0.978c-0.32-0.251-0.746-0.376-1.279-0.376c-0.499,0-0.904,0.125-1.213,0.374
			c-0.309,0.25-0.464,0.561-0.464,0.933c0,0.639,0.499,1.063,1.498,1.273c0.3,0.062,0.518,0.133,0.654,0.211
			c0.136,0.079,0.204,0.187,0.204,0.324c0,0.132-0.055,0.239-0.165,0.32c-0.11,0.081-0.272,0.122-0.487,0.122
			c-0.23,0-0.414-0.053-0.551-0.159c-0.137-0.106-0.211-0.259-0.221-0.458h-1.063c0,0.254,0.078,0.49,0.233,0.708
			c0.155,0.219,0.369,0.391,0.642,0.516c0.273,0.125,0.585,0.188,0.937,0.188c0.52,0,0.944-0.118,1.273-0.355
			c0.328-0.237,0.493-0.546,0.493-0.929C22.976,37.082,22.68,36.706,22.087,36.489z"/>
	</g>
</g>
</svg>
