<?xml version="1.0" encoding="utf-8"?>
<!-- Generator: Adobe Illustrator 25.4.1, SVG Export Plug-In . SVG Version: 6.00 Build 0)  -->
<svg version="1.1" id="Layer_1" xmlns="http://www.w3.org/2000/svg" xmlns:xlink="http://www.w3.org/1999/xlink" x="0px" y="0px"
	 viewBox="0 0 50 50" style="enable-background:new 0 0 50 50;" xml:space="preserve">
<style type="text/css">
	.st0{opacity:0.2;fill:#ADAFB2;}
	.st1{fill:#004E5E;}
	.st2{fill:#126679;}
	.st3{fill:#33C3E6;}
	.st4{fill:#231F20;}
	.st5{fill:#FFFFFF;}
	.st6{fill:#686868;}
	.st7{fill:#393839;}
	.st8{fill:#90D5F8;}
	.st9{fill:#EFFE8D;}
	.st10{fill:#F2F6FC;}
	.st11{fill:#FF00DD;}
	.st12{fill:#8D5AF1;}
	.st13{fill:#F1F5FB;}
	.st14{fill:#567E92;}
	.st15{fill:#6593AB;}
	.st16{fill:#3C2B5A;}
	.st17{fill:#63518F;}
	.st18{fill:#862C67;}
	.st19{fill:#9E397B;}
	.st20{fill:#73787D;}
	.st21{fill:#BDC1C7;}
	.st22{fill:#989A5F;}
	.st23{fill:#AAAC6B;}
	.st24{fill:#EBEC8F;}
	.st25{fill:#C84C9A;}
	.st26{fill:#7761A9;}
	.st27{fill:#90D2F3;}
	.st28{opacity:0.14;fill:#686868;}
</style>
<g>
	<g>
		<path class="st0" d="M21.664,39.506L9.755,34.041l-9.002,4.166l0.127,0.287l0.245,0.125c0.009,0.029,0.02,0.058,0.034,0.087
			c0.132,0.27,0.465,0.44,0.742,0.378c0.022-0.005,0.041-0.012,0.061-0.02c0.007,0.021,0.016,0.043,0.026,0.064
			c0.133,0.27,0.465,0.44,0.742,0.378c0.022-0.005,0.041-0.012,0.061-0.02c0.007,0.021,0.016,0.043,0.026,0.064
			c0.133,0.27,0.465,0.44,0.741,0.378c0.022-0.005,0.041-0.012,0.061-0.02c0.007,0.021,0.016,0.043,0.026,0.064
			c0.132,0.27,0.465,0.44,0.742,0.378c0.022-0.005,0.041-0.012,0.061-0.02c0.007,0.021,0.016,0.043,0.026,0.064
			c0.133,0.27,0.465,0.44,0.742,0.378c0.022-0.005,0.041-0.012,0.061-0.02c0.007,0.021,0.016,0.043,0.026,0.064
			c0.133,0.27,0.465,0.44,0.742,0.378c0.022-0.005,0.041-0.012,0.061-0.02c0.007,0.021,0.016,0.043,0.026,0.064
			c0.133,0.27,0.465,0.44,0.742,0.378c0.022-0.005,0.041-0.012,0.061-0.02c0.007,0.021,0.016,0.043,0.026,0.064
			c0.133,0.27,0.465,0.44,0.742,0.378c0.022-0.005,0.041-0.012,0.061-0.02c0.007,0.021,0.016,0.043,0.026,0.064
			c0.132,0.27,0.465,0.44,0.742,0.378c0.022-0.005,0.041-0.012,0.061-0.02c0.007,0.021,0.016,0.043,0.026,0.064
			c0.133,0.27,0.465,0.44,0.742,0.378c0.022-0.005,0.041-0.012,0.061-0.02c0.007,0.021,0.016,0.043,0.026,0.064
			c0.133,0.27,0.465,0.44,0.742,0.378c0.022-0.005,0.041-0.012,0.061-0.02c0.007,0.021,0.016,0.043,0.026,0.064
			c0.132,0.27,0.465,0.44,0.742,0.378c0.022-0.005,0.041-0.012,0.061-0.02c0.007,0.021,0.016,0.043,0.026,0.064
			c0.133,0.27,0.465,0.44,0.742,0.378c0.028-0.006,0.055-0.015,0.08-0.026l0.657,0.335l9.203-4.676l-0.363-0.167L21.664,39.506z"/>
		<polygon class="st1" points="12.443,43.831 21.646,39.155 21.773,39.442 12.569,44.118 		"/>
		<polygon class="st2" points="0.735,37.856 0.862,38.143 12.569,44.118 12.443,43.831 		"/>
		<polygon class="st3" points="0.735,37.856 9.738,33.69 21.646,39.155 12.443,43.831 		"/>
		<path class="st4" d="M11.781,42.895c-0.141-0.073-0.294-0.097-0.429-0.067c-0.164,0.037-0.272,0.147-0.304,0.287
			c-0.033,0.039-0.08,0.067-0.138,0.08c-0.169,0.038-0.372-0.066-0.453-0.231c-0.028-0.057-0.037-0.114-0.031-0.166
			c0.004-0.005,0.008-0.011,0.011-0.016l-0.008-0.004c0.018-0.089,0.085-0.159,0.188-0.182c0.062-0.014,0.131-0.009,0.199,0.014
			l0.007,0.003c0.009,0.003,0.017,0.006,0.034,0.012c0.035,0.009,0.07,0.005,0.099-0.01c0.051-0.026,0.053-0.061,0.049-0.08
			C11,42.51,10.98,42.487,10.952,42.472c-0.141-0.073-0.293-0.097-0.429-0.067c-0.164,0.037-0.272,0.147-0.304,0.287
			c-0.033,0.039-0.08,0.067-0.138,0.079c-0.169,0.038-0.372-0.066-0.453-0.231C9.6,42.484,9.59,42.427,9.597,42.375
			c0.004-0.005,0.008-0.011,0.011-0.016L9.6,42.355c0.018-0.089,0.085-0.159,0.188-0.182c0.062-0.014,0.131-0.009,0.199,0.014
			l0.007,0.002c0.009,0.003,0.017,0.006,0.034,0.012c0.035,0.009,0.07,0.005,0.099-0.01c0.051-0.026,0.053-0.061,0.049-0.08
			c-0.005-0.026-0.025-0.049-0.053-0.063c-0.141-0.073-0.293-0.097-0.429-0.067C9.53,42.019,9.422,42.13,9.39,42.27
			c-0.033,0.039-0.08,0.067-0.138,0.079c-0.169,0.038-0.372-0.066-0.453-0.231c-0.028-0.057-0.037-0.114-0.031-0.166
			c0.004-0.005,0.008-0.011,0.011-0.016L8.77,41.933c0.018-0.089,0.085-0.159,0.188-0.182c0.062-0.014,0.131-0.009,0.199,0.014
			l0.007,0.002c0.009,0.003,0.017,0.006,0.034,0.013c0.035,0.009,0.07,0.005,0.099-0.01c0.051-0.026,0.053-0.061,0.049-0.08
			c-0.005-0.026-0.025-0.049-0.053-0.063C9.152,41.554,9,41.53,8.865,41.56c-0.164,0.037-0.272,0.147-0.304,0.287
			c-0.033,0.039-0.08,0.067-0.138,0.08c-0.169,0.038-0.372-0.066-0.454-0.231c-0.028-0.057-0.037-0.114-0.031-0.166
			c0.004-0.005,0.007-0.011,0.011-0.016L7.941,41.51c0.018-0.089,0.085-0.159,0.188-0.182c0.062-0.014,0.13-0.009,0.199,0.014
			l0.007,0.002c0.009,0.003,0.017,0.006,0.034,0.012c0.035,0.009,0.07,0.005,0.099-0.01c0.051-0.026,0.053-0.061,0.049-0.079
			c-0.005-0.026-0.025-0.049-0.053-0.063c-0.141-0.073-0.293-0.097-0.429-0.067c-0.164,0.037-0.271,0.147-0.304,0.287
			c-0.033,0.039-0.08,0.067-0.138,0.08c-0.169,0.038-0.373-0.066-0.453-0.231c-0.028-0.057-0.037-0.114-0.031-0.166
			c0.004-0.005,0.007-0.011,0.011-0.016l-0.008-0.004c0.018-0.089,0.085-0.159,0.188-0.182c0.062-0.014,0.13-0.009,0.199,0.014
			l0.007,0.003c0.009,0.003,0.017,0.006,0.034,0.012c0.035,0.009,0.07,0.005,0.099-0.01c0.051-0.026,0.053-0.061,0.049-0.08
			c-0.005-0.026-0.025-0.049-0.053-0.063c-0.141-0.073-0.293-0.097-0.429-0.067c-0.164,0.037-0.272,0.147-0.304,0.287
			c-0.033,0.039-0.08,0.067-0.138,0.08c-0.169,0.038-0.372-0.066-0.454-0.231c-0.028-0.057-0.037-0.114-0.031-0.166
			c0.004-0.005,0.007-0.011,0.011-0.016l-0.008-0.004c0.018-0.089,0.085-0.159,0.188-0.182c0.062-0.014,0.13-0.009,0.199,0.014
			l0.007,0.002c0.009,0.003,0.017,0.006,0.034,0.012c0.035,0.009,0.07,0.005,0.099-0.01c0.051-0.026,0.053-0.061,0.049-0.08
			c-0.005-0.025-0.025-0.049-0.053-0.063c-0.141-0.073-0.293-0.097-0.429-0.067c-0.164,0.037-0.272,0.147-0.304,0.287
			c-0.033,0.039-0.08,0.067-0.138,0.079c-0.169,0.038-0.372-0.066-0.454-0.231c-0.028-0.057-0.037-0.114-0.031-0.166
			c0.004-0.005,0.008-0.011,0.011-0.016l-0.008-0.004c0.018-0.089,0.085-0.159,0.188-0.182c0.062-0.014,0.131-0.009,0.199,0.014
			l0.007,0.002c0.009,0.003,0.017,0.006,0.034,0.012c0.035,0.009,0.07,0.005,0.099-0.01c0.051-0.026,0.053-0.061,0.049-0.079
			c-0.005-0.026-0.025-0.049-0.053-0.063c-0.141-0.073-0.293-0.097-0.429-0.066c-0.164,0.037-0.272,0.147-0.304,0.287
			c-0.033,0.039-0.08,0.067-0.138,0.079c-0.169,0.038-0.372-0.066-0.453-0.231c-0.028-0.057-0.037-0.114-0.031-0.166
			c0.004-0.005,0.008-0.011,0.011-0.016l-0.008-0.004c0.018-0.089,0.085-0.159,0.188-0.182c0.062-0.014,0.131-0.009,0.199,0.014
			l0.007,0.003c0.009,0.003,0.017,0.006,0.034,0.012c0.035,0.009,0.07,0.005,0.099-0.01c0.051-0.026,0.053-0.061,0.049-0.079
			c-0.005-0.026-0.025-0.049-0.053-0.063c-0.141-0.073-0.294-0.097-0.429-0.067c-0.164,0.037-0.272,0.147-0.304,0.287
			c-0.033,0.039-0.08,0.067-0.138,0.08c-0.169,0.038-0.372-0.066-0.453-0.231c-0.028-0.057-0.037-0.114-0.031-0.166
			c0.004-0.005,0.008-0.011,0.011-0.016l-0.008-0.004c0.018-0.089,0.085-0.159,0.188-0.182c0.062-0.014,0.131-0.009,0.199,0.014
			l0.007,0.002c0.009,0.003,0.018,0.006,0.034,0.013c0.035,0.009,0.07,0.005,0.099-0.01c0.051-0.026,0.053-0.061,0.049-0.08
			c-0.005-0.025-0.025-0.049-0.053-0.063c-0.141-0.073-0.294-0.097-0.429-0.067c-0.164,0.037-0.272,0.147-0.304,0.287
			c-0.033,0.039-0.08,0.067-0.138,0.08c-0.169,0.038-0.373-0.066-0.454-0.231c-0.028-0.057-0.037-0.114-0.031-0.166
			c0.004-0.005,0.007-0.011,0.011-0.016l-0.008-0.004c0.018-0.089,0.085-0.159,0.188-0.182c0.062-0.014,0.13-0.009,0.199,0.014
			l0.007,0.002c0.009,0.003,0.017,0.006,0.034,0.013c0.035,0.009,0.07,0.005,0.099-0.01c0.051-0.026,0.053-0.061,0.049-0.08
			c-0.005-0.026-0.025-0.049-0.053-0.063c-0.141-0.073-0.293-0.097-0.429-0.067c-0.164,0.037-0.272,0.147-0.304,0.287
			c-0.033,0.039-0.08,0.067-0.138,0.08c-0.169,0.038-0.372-0.066-0.453-0.231c-0.028-0.057-0.037-0.114-0.031-0.166
			c0.004-0.005,0.007-0.011,0.011-0.016l-0.008-0.004c0.018-0.089,0.085-0.159,0.188-0.182c0.062-0.014,0.13-0.009,0.199,0.014
			l0.007,0.003c0.009,0.003,0.017,0.006,0.034,0.012c0.035,0.009,0.07,0.005,0.099-0.01c0.051-0.026,0.053-0.061,0.049-0.08
			c-0.005-0.026-0.025-0.049-0.053-0.063c-0.141-0.073-0.293-0.097-0.429-0.067c-0.164,0.037-0.271,0.147-0.304,0.287
			c-0.033,0.039-0.08,0.067-0.138,0.08c-0.169,0.038-0.372-0.066-0.454-0.231c-0.081-0.165-0.009-0.33,0.16-0.368
			c0.062-0.014,0.13-0.009,0.199,0.014l0.007,0.002c0.009,0.003,0.017,0.006,0.034,0.012c0.035,0.009,0.07,0.005,0.099-0.01
			c0.051-0.026,0.053-0.061,0.049-0.079c-0.005-0.026-0.025-0.049-0.053-0.063c-0.141-0.073-0.293-0.097-0.429-0.067
			c-0.276,0.062-0.393,0.331-0.261,0.601c0.132,0.27,0.465,0.44,0.742,0.378c0.022-0.005,0.042-0.011,0.062-0.019
			c0.007,0.021,0.016,0.042,0.026,0.063c0.133,0.27,0.465,0.44,0.742,0.378c0.022-0.005,0.042-0.011,0.062-0.019
			c0.007,0.021,0.016,0.042,0.026,0.063c0.133,0.27,0.465,0.44,0.741,0.378c0.022-0.005,0.042-0.011,0.062-0.019
			c0.007,0.021,0.016,0.042,0.026,0.063c0.132,0.27,0.465,0.44,0.742,0.378c0.022-0.005,0.042-0.011,0.062-0.019
			c0.007,0.021,0.016,0.042,0.026,0.063c0.133,0.27,0.465,0.44,0.742,0.378c0.022-0.005,0.042-0.011,0.062-0.019
			c0.007,0.021,0.016,0.042,0.026,0.063c0.133,0.27,0.465,0.44,0.742,0.378c0.022-0.005,0.042-0.011,0.062-0.019
			c0.007,0.021,0.016,0.042,0.026,0.063c0.133,0.27,0.465,0.44,0.742,0.378c0.022-0.005,0.042-0.011,0.062-0.019
			c0.007,0.021,0.016,0.042,0.026,0.063c0.132,0.27,0.465,0.44,0.742,0.378c0.022-0.005,0.042-0.011,0.062-0.019
			c0.007,0.021,0.016,0.042,0.026,0.063c0.132,0.27,0.465,0.44,0.742,0.378c0.022-0.005,0.042-0.011,0.062-0.019
			c0.007,0.021,0.016,0.042,0.026,0.063c0.133,0.27,0.465,0.44,0.742,0.378c0.022-0.005,0.042-0.011,0.062-0.019
			c0.007,0.021,0.016,0.042,0.026,0.063c0.133,0.27,0.465,0.44,0.742,0.378c0.022-0.005,0.042-0.011,0.062-0.019
			c0.007,0.021,0.016,0.042,0.026,0.063c0.132,0.27,0.465,0.44,0.742,0.378c0.022-0.005,0.042-0.011,0.062-0.019
			c0.007,0.021,0.016,0.042,0.026,0.063c0.133,0.27,0.465,0.44,0.742,0.378c0.117-0.026,0.208-0.09,0.262-0.181l-0.21-0.098
			c-0.034,0.044-0.083,0.075-0.145,0.089c-0.169,0.038-0.372-0.066-0.454-0.231c-0.028-0.057-0.037-0.114-0.031-0.166
			c0.004-0.005,0.007-0.011,0.011-0.016l-0.008-0.004c0.018-0.089,0.085-0.159,0.188-0.182c0.062-0.014,0.13-0.009,0.199,0.014
			l0.007,0.002c0.009,0.003,0.017,0.006,0.034,0.013c0.035,0.009,0.07,0.005,0.099-0.01c0.051-0.026,0.053-0.061,0.049-0.08
			C11.829,42.933,11.809,42.91,11.781,42.895z"/>
		<g>
			<path class="st5" d="M5.265,37.473c-0.039,0.006-0.076,0.014-0.114,0.021c-0.024,0.012-0.047,0.023-0.071,0.035
				c-0.014,0.012-0.029,0.024-0.043,0.037c-0.158,0.147,0.131,0.311,0.399,0.346c0.13,0.017,0.235,0.009,0.332-0.017
				c0.149-0.039,0.208-0.103,0.174-0.192C5.877,37.533,5.482,37.44,5.265,37.473z M5.617,37.753
				c-0.062,0.029-0.165,0.025-0.239-0.009c-0.09-0.042-0.113-0.086-0.058-0.113c0.061-0.029,0.156-0.025,0.234,0.01
				C5.626,37.674,5.659,37.733,5.617,37.753z"/>
			<path class="st5" d="M4.772,38.069c-0.022,0-0.043,0.001-0.067,0.001c-0.001-0.006-0.001-0.011-0.001-0.015
				c-0.002-0.043-0.05-0.077-0.139-0.101c-0.098-0.026-0.181-0.02-0.246,0.004c-0.086,0.033-0.166,0.069-0.244,0.105
				c-0.02,0.009-0.024,0.025-0.036,0.038c0.225,0.102,0.451,0.203,0.676,0.305c0.018-0.001,0.042,0.001,0.053-0.004
				c0.074-0.034,0.149-0.068,0.214-0.105c0.036-0.021,0.06-0.048,0.075-0.075C5.097,38.149,4.943,38.068,4.772,38.069z M4.503,38.1
				c-0.009,0.01-0.024,0.019-0.039,0.03c-0.027-0.011-0.049-0.019-0.081-0.032c0.027-0.008,0.048-0.016,0.073-0.021
				c0.009-0.002,0.031,0.001,0.04,0.005C4.505,38.085,4.507,38.095,4.503,38.1z M4.753,38.213c-0.008,0.011-0.025,0.019-0.042,0.03
				c-0.03-0.013-0.052-0.023-0.081-0.037c0.02-0.008,0.036-0.018,0.058-0.022c0.014-0.003,0.042-0.001,0.056,0.005
				C4.754,38.192,4.758,38.206,4.753,38.213z"/>
			<path class="st5" d="M7.415,36.802c0.04-0.007,0.081-0.013,0.124-0.017c0.016-0.002,0.039,0.004,0.059,0.006
				c-0.007,0.008-0.01,0.017-0.021,0.022C7.562,36.82,7.54,36.824,7.52,36.828c-0.034,0.008-0.088,0.01-0.1,0.023
				c-0.013,0.016,0.009,0.041,0.018,0.063c0.025,0.058,0.029,0.061,0.141,0.048c0.173-0.02,0.297-0.061,0.304-0.156
				c0.005-0.074-0.207-0.197-0.415-0.161c-0.044,0.008-0.088,0.016-0.134,0.022c-0.021,0.003-0.048,0.001-0.083,0.001
				c0.029-0.031,0.079-0.039,0.131-0.046c0.014-0.002,0.034-0.009,0.032-0.015c-0.011-0.037-0.027-0.074-0.042-0.113
				c-0.019,0-0.028,0.001-0.037,0.001c-0.101,0.004-0.178,0.026-0.255,0.048c-0.024,0.012-0.047,0.023-0.071,0.035
				C7.004,36.583,7,36.588,6.995,36.593c-0.046,0.046-0.014,0.119,0.07,0.161C7.176,36.808,7.289,36.823,7.415,36.802z"/>
			<path class="st5" d="M11.159,37.421c-0.908-0.409-1.816-0.818-2.723-1.228c-0.013-0.006-0.027-0.012-0.04-0.018
				c-0.201-0.084-0.474-0.077-0.562,0.014c-0.065,0.068-0.011,0.152,0.146,0.223c0.286,0.129,0.572,0.258,0.858,0.387
				c0.015,0.007,0.031,0.014,0.052,0.023c-0.696,0.079-0.908,0.379-0.766,0.648c0.152,0.287,0.664,0.543,1.271,0.634
				c0.309,0.046,0.597,0.049,0.859,0.006c0.389-0.065,0.605-0.201,0.669-0.397c0.018,0.002,0.031,0.004,0.044,0.006
				c0.226,0.027,0.401-0.039,0.376-0.143C11.329,37.518,11.261,37.467,11.159,37.421z M10.048,37.716
				c-0.219,0.111-0.639,0.092-0.938-0.042c-0.295-0.132-0.357-0.328-0.14-0.437c0.217-0.109,0.633-0.089,0.931,0.044
				C10.198,37.413,10.263,37.607,10.048,37.716z"/>
			<path class="st5" d="M8.922,38.487c-0.139-0.057-0.309-0.076-0.44-0.048c-0.078,0.017-0.122,0.047-0.146,0.086
				c-0.035,0.057-0.106,0.1-0.211,0.128c-0.281,0.074-0.695,0.012-0.933-0.139c-0.239-0.152-0.217-0.335,0.055-0.415
				c0.128-0.037,0.281-0.045,0.468-0.022c-0.018,0.009-0.029,0.014-0.039,0.019c-0.117,0.058-0.236,0.115-0.352,0.174
				c-0.121,0.061-0.084,0.169,0.079,0.244c0.163,0.075,0.397,0.09,0.521,0.031c0.236-0.114,0.469-0.229,0.699-0.345
				c0.107-0.054,0.092-0.144-0.037-0.217c-0.059-0.033-0.131-0.063-0.204-0.09c-0.707-0.258-1.572-0.242-1.951,0.035
				c-0.435,0.317,0.042,0.841,0.948,1.033c0.56,0.119,1.035,0.099,1.411-0.052c0.143-0.057,0.234-0.134,0.285-0.223
				C9.113,38.621,9.049,38.539,8.922,38.487z"/>
			<path class="st5" d="M12.21,36.196c-0.294-0.14-0.6-0.275-0.905-0.409c-0.21-0.093-0.506-0.077-0.575,0.028
				c-0.044,0.066,0.013,0.142,0.158,0.208c0.28,0.127,0.565,0.252,0.841,0.381c0.277,0.129,0.33,0.313,0.131,0.419
				c-0.209,0.112-0.622,0.099-0.921-0.032c-0.284-0.124-0.561-0.252-0.84-0.378c-0.061-0.027-0.126-0.05-0.202-0.062
				c-0.17-0.029-0.331-0.004-0.395,0.06c-0.063,0.063-0.015,0.15,0.12,0.212c0.148,0.068,0.299,0.135,0.449,0.203c0,0,0,0,0,0
				c0.032,0.014,0.063,0.029,0.095,0.043c0.152,0.066,0.296,0.138,0.457,0.198c0.669,0.248,1.508,0.245,1.907-0.004
				C12.896,36.834,12.763,36.459,12.21,36.196z"/>
			<path class="st5" d="M13.921,36.277c-0.222-0.1-0.445-0.201-0.668-0.301c-0.058-0.026-0.094-0.028-0.137-0.007
				c-0.082,0.04-0.165,0.081-0.247,0.122c-0.082,0.041-0.165,0.081-0.247,0.122c-0.043,0.021-0.037,0.038,0.021,0.064
				c0.222,0.1,0.445,0.201,0.668,0.301c0.058,0.026,0.094,0.028,0.137,0.007c0.165-0.081,0.329-0.162,0.494-0.243
				C13.985,36.32,13.979,36.304,13.921,36.277z M13.526,36.391c-0.089,0.042-0.256,0.04-0.385-0.004
				c-0.04-0.014-0.046-0.024-0.02-0.037c0.052-0.025,0.104-0.051,0.155-0.077c0.05-0.025,0.099-0.049,0.15-0.074
				c0.034-0.016,0.05-0.015,0.088,0.009C13.613,36.27,13.618,36.347,13.526,36.391z"/>
			<path class="st5" d="M6.081,37.715c0.014-0.004,0.024-0.007,0.032-0.01c0.053-0.024,0.103-0.049,0.158-0.073
				c0.023-0.01,0.024-0.021,0.008-0.037c-0.032-0.034-0.06-0.069-0.093-0.107c0.084,0.013,0.159,0.026,0.235,0.036
				c0.022,0.003,0.051,0.001,0.065-0.005c0.055-0.022,0.105-0.047,0.155-0.071c0.012-0.006,0.02-0.013,0.033-0.022
				c-0.022-0.004-0.035-0.006-0.048-0.008c-0.145-0.019-0.29-0.039-0.435-0.057c-0.037-0.005-0.055-0.012-0.067-0.03
				c-0.039-0.054-0.08-0.109-0.122-0.163c-0.008-0.011-0.022-0.021-0.041-0.039c-0.058,0.029-0.106,0.054-0.158,0.077
				c-0.021,0.01-0.026,0.019-0.013,0.035c0.024,0.03,0.045,0.061,0.072,0.098c-0.073-0.012-0.134-0.022-0.196-0.034
				c-0.032-0.006-0.053-0.005-0.072,0.004c-0.045,0.022-0.093,0.043-0.139,0.065c-0.015,0.007-0.028,0.016-0.048,0.027
				c0.037,0.006,0.062,0.011,0.088,0.015c0.12,0.017,0.24,0.034,0.36,0.05c0.04,0.005,0.057,0.014,0.069,0.032
				c0.044,0.065,0.09,0.13,0.136,0.195C6.067,37.699,6.073,37.706,6.081,37.715z"/>
			<path class="st5" d="M6.062,37.118c0.058,0.025,0.114,0.051,0.17,0.077c0.154,0.072,0.307,0.144,0.461,0.216
				c0.018,0.008,0.035,0.02,0.057,0.009c0.112-0.055,0.224-0.11,0.336-0.165c0.019-0.009,0.009-0.017-0.013-0.027
				c-0.043-0.019-0.087-0.037-0.127-0.057c-0.037-0.018-0.055-0.016-0.08-0.002c-0.049,0.028-0.104,0.052-0.156,0.078
				c-0.061-0.021-0.063-0.023-0.027-0.041c0.036-0.019,0.072-0.038,0.11-0.056c0.02-0.01,0.02-0.018-0.01-0.03
				C6.74,37.102,6.7,37.084,6.662,37.065c-0.026-0.012-0.041-0.012-0.059-0.003c-0.046,0.024-0.095,0.047-0.144,0.071
				c-0.021-0.008-0.032-0.012-0.048-0.019c0.051-0.028,0.096-0.056,0.146-0.081c0.025-0.013,0.019-0.022-0.015-0.035
				c-0.044-0.018-0.088-0.037-0.128-0.057c-0.032-0.016-0.048-0.013-0.069-0.002c-0.063,0.033-0.127,0.065-0.192,0.096
				c-0.032,0.015-0.067,0.029-0.1,0.044C6.029,37.091,6.025,37.102,6.062,37.118z"/>
			<path class="st5" d="M6.527,36.915c0.216,0.095,0.43,0.19,0.644,0.286c0.032,0.014,0.051,0.018,0.075,0.005
				c0.095-0.049,0.191-0.096,0.288-0.144c0.016-0.008,0.014-0.015-0.007-0.025c-0.047-0.022-0.095-0.043-0.141-0.065
				c-0.03-0.014-0.049-0.016-0.072-0.004c-0.042,0.022-0.087,0.043-0.134,0.067c-0.022-0.01-0.036-0.016-0.05-0.022
				c-0.142-0.062-0.285-0.124-0.427-0.187c-0.028-0.012-0.047-0.015-0.068-0.004c-0.038,0.021-0.08,0.041-0.121,0.062
				C6.496,36.893,6.496,36.902,6.527,36.915z"/>
			<path class="st5" d="M5.542,37.981c-0.041-0.017-0.08-0.036-0.119-0.054c-0.055-0.025-0.055-0.025-0.099-0.006
				c-0.008,0.004-0.016,0.007-0.025,0.011c-0.036,0.016-0.071,0.032-0.108,0.048c-0.023-0.011-0.04-0.018-0.057-0.026
				c-0.135-0.059-0.271-0.119-0.406-0.178c-0.03-0.013-0.052-0.016-0.074-0.004c-0.041,0.021-0.083,0.042-0.126,0.062
				c-0.018,0.009-0.012,0.016,0.012,0.027c0.216,0.095,0.432,0.189,0.647,0.284c0.036,0.016,0.058,0.017,0.085,0.004
				c0.078-0.039,0.159-0.076,0.239-0.114c0.016-0.008,0.031-0.016,0.046-0.024C5.573,38.003,5.571,37.993,5.542,37.981z"/>
			<path class="st5" d="M14.222,35.982c-0.024,0.036,0.046,0.071,0.047,0.105c-0.072-0.003-0.147-0.028-0.228-0.019
				c0.084,0.038,0.156,0.071,0.229,0.103c0.01,0.004,0.025,0.006,0.038,0.009c-0.007-0.006-0.01-0.014-0.02-0.019
				c-0.052-0.025-0.106-0.048-0.159-0.072c0.002-0.001,0.003-0.003,0.005-0.004c0.06,0.008,0.12,0.016,0.185,0.024
				c-0.02-0.03-0.039-0.058-0.058-0.086c0.062,0.023,0.115,0.047,0.168,0.07c0.011,0.005,0.028,0.007,0.042,0.01
				c0.002-0.002,0.003-0.004,0.005-0.007C14.394,36.059,14.312,36.022,14.222,35.982z"/>
			<path class="st5" d="M14.179,36.206c-0.058-0.026-0.115-0.052-0.17-0.076c0.002-0.018,0.054-0.02,0.034-0.045
				c-0.051,0.025-0.097,0.048-0.142,0.07c0.005,0.003,0.009,0.006,0.014,0.009c0.024-0.008,0.047-0.017,0.071-0.025
				c0.016,0.007,0.027,0.012,0.037,0.017c0.056,0.025,0.111,0.05,0.167,0.075c0.007,0.003,0.019,0.003,0.029,0.004
				c-0.003-0.005-0.004-0.01-0.01-0.013C14.202,36.215,14.19,36.211,14.179,36.206z"/>
			<path class="st5" d="M8.011,36.716c0.02,0.009,0.039,0.018,0.068,0.031c-0.008-0.01-0.011-0.015-0.015-0.02
				c0.016,0,0.029,0,0.046,0C8.04,36.7,8.04,36.7,8.011,36.716z"/>
		</g>
	</g>
	<g>
		<g>
			<polygon class="st6" points="29.912,44.74 11.621,38.579 29.594,27.134 47.885,33.296 			"/>
			<polygon class="st7" points="29.912,44.74 30.099,46.261 48.071,34.816 47.885,33.296 			"/>
			<polygon points="29.912,44.74 30.099,46.261 11.808,40.099 11.621,38.579 			"/>
			<g>
				<polygon points="39.797,34.461 40.558,34.718 41.306,34.241 40.545,33.985 				"/>
				<polygon points="38.709,34.095 39.47,34.351 40.218,33.875 39.457,33.618 				"/>
				<polygon class="st8" points="37.621,33.728 38.382,33.985 39.13,33.508 38.369,33.252 				"/>
				<polygon class="st8" points="36.533,33.362 37.294,33.618 38.042,33.142 37.281,32.885 				"/>
				<polygon points="35.445,32.995 36.206,33.251 36.954,32.775 36.193,32.519 				"/>
				<polygon points="34.357,32.629 35.118,32.885 35.866,32.409 35.105,32.152 				"/>
				<polygon points="33.269,32.262 34.03,32.518 34.778,32.042 34.017,31.786 				"/>
				<polygon class="st8" points="32.181,31.896 32.942,32.152 33.69,31.676 32.929,31.419 				"/>
				<polygon class="st8" points="31.093,31.529 31.854,31.785 32.602,31.309 31.841,31.053 				"/>
				<polygon points="30.005,31.162 30.766,31.419 31.514,30.943 30.753,30.686 				"/>
				<polygon points="28.917,30.796 29.678,31.052 30.426,30.576 29.664,30.32 				"/>
				<polygon points="27.829,30.429 28.59,30.686 29.337,30.21 28.576,29.953 				"/>
				<polygon points="40.885,34.828 41.646,35.084 42.394,34.608 41.633,34.352 				"/>
				<polygon points="38.734,35.138 39.495,35.395 40.243,34.918 39.482,34.662 				"/>
				<polygon points="37.646,34.772 38.407,35.028 39.155,34.552 38.394,34.296 				"/>
				<polygon class="st8" points="36.558,34.405 37.319,34.662 38.067,34.185 37.306,33.929 				"/>
				<polygon class="st8" points="35.47,34.039 36.231,34.295 36.979,33.819 36.218,33.563 				"/>
				<polygon class="st8" points="34.382,33.672 35.143,33.929 35.891,33.452 35.129,33.196 				"/>
				<polygon class="st8" points="33.294,33.306 34.055,33.562 34.802,33.086 34.041,32.829 				"/>
				<polygon class="st8" points="32.206,32.939 32.967,33.195 33.714,32.719 32.953,32.463 				"/>
				<polygon class="st8" points="31.118,32.573 31.879,32.829 32.626,32.353 31.865,32.096 				"/>
				<polygon class="st8" points="30.029,32.206 30.791,32.462 31.538,31.986 30.777,31.73 				"/>
				<polygon points="28.941,31.84 29.702,32.096 30.45,31.62 29.689,31.363 				"/>
				<polygon points="27.853,31.473 28.614,31.729 29.362,31.253 28.601,30.997 				"/>
				<polygon points="26.765,31.106 27.526,31.363 28.274,30.887 27.513,30.63 				"/>
				<polygon points="39.822,35.505 40.583,35.761 41.331,35.285 40.57,35.029 				"/>
				<polygon points="37.671,35.815 38.432,36.072 39.179,35.596 38.418,35.339 				"/>
				<polygon points="36.583,35.449 37.344,35.705 38.091,35.229 37.33,34.973 				"/>
				<polygon class="st9" points="35.494,35.082 36.256,35.339 37.003,34.862 36.242,34.606 				"/>
				<polygon class="st8" points="34.406,34.716 35.167,34.972 35.915,34.496 35.154,34.24 				"/>
				<polygon class="st8" points="33.318,34.349 34.079,34.606 34.827,34.129 34.066,33.873 				"/>
				<polygon class="st8" points="32.23,33.983 32.991,34.239 33.739,33.763 32.978,33.507 				"/>
				<polygon class="st9" points="31.142,33.616 31.903,33.873 32.651,33.396 31.89,33.14 				"/>
				<polygon class="st8" points="30.054,33.25 30.815,33.506 31.563,33.03 30.802,32.773 				"/>
				<polygon class="st8" points="28.966,32.883 29.727,33.139 30.475,32.663 29.714,32.407 				"/>
				<polygon points="27.878,32.517 28.639,32.773 29.387,32.297 28.626,32.04 				"/>
				<polygon points="26.79,32.15 27.551,32.406 28.299,31.93 27.538,31.674 				"/>
				<polygon points="25.702,31.784 26.463,32.04 27.211,31.564 26.45,31.307 				"/>
				<polygon points="38.759,36.182 39.52,36.438 40.267,35.962 39.506,35.706 				"/>
				<polygon points="36.607,36.492 37.368,36.749 38.116,36.273 37.355,36.016 				"/>
				<polygon points="35.519,36.126 36.28,36.382 37.028,35.906 36.267,35.65 				"/>
				<polygon class="st10" points="34.431,35.759 35.192,36.016 35.94,35.54 35.179,35.283 				"/>
				<polygon class="st10" points="33.343,35.393 34.104,35.649 34.852,35.173 34.091,34.917 				"/>
				<polygon class="st11" points="32.255,35.026 33.016,35.283 33.764,34.806 33.003,34.55 				"/>
				<polygon class="st10" points="31.167,34.66 31.928,34.916 32.676,34.44 31.915,34.184 				"/>
				<polygon class="st10" points="30.079,34.293 30.84,34.55 31.588,34.073 30.827,33.817 				"/>
				<polygon class="st8" points="28.991,33.927 29.752,34.183 30.5,33.707 29.739,33.451 				"/>
				<polygon class="st8" points="27.903,33.56 28.664,33.817 29.412,33.34 28.651,33.084 				"/>
				<polygon points="26.815,33.194 27.576,33.45 28.324,32.974 27.563,32.717 				"/>
				<polygon points="25.727,32.827 26.488,33.084 27.236,32.607 26.475,32.351 				"/>
				<polygon points="24.639,32.461 25.4,32.717 26.148,32.241 25.387,31.984 				"/>
				<polygon points="37.695,36.859 38.456,37.115 39.204,36.639 38.443,36.383 				"/>
				<polygon points="35.544,37.169 36.305,37.426 37.053,36.95 36.292,36.693 				"/>
				<polygon points="34.456,36.803 35.217,37.059 35.965,36.583 35.204,36.327 				"/>
				<polygon class="st10" points="33.368,36.436 34.129,36.693 34.877,36.217 34.116,35.96 				"/>
				<polygon class="st10" points="32.28,36.07 33.041,36.326 33.789,35.85 33.028,35.594 				"/>
				<polygon class="st10" points="31.192,35.703 31.953,35.96 32.701,35.484 31.94,35.227 				"/>
				<polygon class="st10" points="30.104,35.337 30.865,35.593 31.613,35.117 30.852,34.861 				"/>
				<polygon class="st10" points="29.016,34.97 29.777,35.227 30.525,34.75 29.764,34.494 				"/>
				<polygon class="st8" points="27.928,34.604 28.689,34.86 29.437,34.384 28.676,34.128 				"/>
				<polygon class="st8" points="26.84,34.237 27.601,34.494 28.349,34.017 27.587,33.761 				"/>
				<polygon points="25.752,33.871 26.513,34.127 27.26,33.651 26.499,33.395 				"/>
				<polygon points="24.664,33.504 25.425,33.761 26.172,33.284 25.411,33.028 				"/>
				<polygon points="23.576,33.138 24.337,33.394 25.084,32.918 24.323,32.661 				"/>
				<polygon points="36.632,37.536 37.393,37.792 38.141,37.316 37.38,37.06 				"/>
				<polygon points="34.481,37.847 35.242,38.103 35.99,37.627 35.229,37.37 				"/>
				<polygon points="33.393,37.48 34.154,37.736 34.902,37.26 34.141,37.004 				"/>
				<polygon points="32.305,37.113 33.066,37.37 33.814,36.894 33.052,36.637 				"/>
				<polygon class="st11" points="31.217,36.747 31.978,37.003 32.725,36.527 31.964,36.271 				"/>
				<polygon class="st11" points="30.129,36.38 30.89,36.637 31.637,36.161 30.876,35.904 				"/>
				<polygon class="st11" points="29.041,36.014 29.802,36.27 30.549,35.794 29.788,35.538 				"/>
				<polygon class="st11" points="27.952,35.647 28.714,35.904 29.461,35.428 28.7,35.171 				"/>
				<polygon class="st11" points="26.864,35.281 27.625,35.537 28.373,35.061 27.612,34.805 				"/>
				<polygon points="25.776,34.914 26.537,35.171 27.285,34.694 26.524,34.438 				"/>
				<polygon points="24.688,34.548 25.449,34.804 26.197,34.328 25.436,34.072 				"/>
				<polygon points="23.6,34.181 24.361,34.438 25.109,33.961 24.348,33.705 				"/>
				<polygon points="22.512,33.815 23.273,34.071 24.021,33.595 23.26,33.339 				"/>
				<polygon points="35.569,38.213 36.33,38.469 37.078,37.993 36.317,37.737 				"/>
				<polygon points="33.417,38.524 34.179,38.78 34.926,38.304 34.165,38.047 				"/>
				<polygon points="32.329,38.157 33.09,38.413 33.838,37.937 33.077,37.681 				"/>
				<polygon points="31.241,37.791 32.002,38.047 32.75,37.571 31.989,37.314 				"/>
				<polygon class="st12" points="30.153,37.424 30.914,37.68 31.662,37.204 30.901,36.948 				"/>
				<polygon class="st12" points="29.065,37.058 29.826,37.314 30.574,36.838 29.813,36.581 				"/>
				<polygon class="st12" points="27.977,36.691 28.738,36.947 29.486,36.471 28.725,36.215 				"/>
				<polygon class="st12" points="26.889,36.324 27.65,36.581 28.398,36.105 27.637,35.848 				"/>
				<polygon class="st12" points="25.801,35.958 26.562,36.214 27.31,35.738 26.549,35.482 				"/>
				<polygon class="st8" points="24.713,35.591 25.474,35.848 26.222,35.372 25.461,35.115 				"/>
				<polygon points="23.625,35.225 24.386,35.481 25.134,35.005 24.373,34.749 				"/>
				<polygon points="22.537,34.858 23.298,35.115 24.046,34.639 23.285,34.382 				"/>
				<polygon points="21.449,34.492 22.21,34.748 22.958,34.272 22.197,34.016 				"/>
				<polygon points="34.505,38.89 35.267,39.147 36.014,38.67 35.253,38.414 				"/>
				<polygon points="32.354,39.201 33.115,39.457 33.863,38.981 33.102,38.724 				"/>
				<polygon points="31.266,38.834 32.027,39.091 32.775,38.614 32.014,38.358 				"/>
				<polygon class="st8" points="30.178,38.468 30.939,38.724 31.687,38.248 30.926,37.991 				"/>
				<polygon class="st11" points="29.09,38.101 29.851,38.357 30.599,37.881 29.838,37.625 				"/>
				<polygon class="st11" points="28.002,37.735 28.763,37.991 29.511,37.515 28.75,37.258 				"/>
				<polygon class="st11" points="26.914,37.368 27.675,37.624 28.423,37.148 27.662,36.892 				"/>
				<polygon class="st11" points="25.826,37.002 26.587,37.258 27.335,36.782 26.574,36.525 				"/>
				<polygon class="st11" points="24.738,36.635 25.499,36.891 26.247,36.415 25.486,36.159 				"/>
				<polygon class="st8" points="23.65,36.268 24.411,36.525 25.159,36.049 24.398,35.792 				"/>
				<polygon points="22.562,35.902 23.323,36.158 24.071,35.682 23.31,35.426 				"/>
				<polygon points="21.474,35.535 22.235,35.792 22.983,35.316 22.222,35.059 				"/>
				<polygon points="20.386,35.169 21.147,35.425 21.895,34.949 21.134,34.693 				"/>
				<polygon points="33.442,39.567 34.203,39.824 34.951,39.347 34.19,39.091 				"/>
				<polygon points="31.291,39.878 32.052,40.134 32.8,39.658 32.039,39.402 				"/>
				<polygon points="30.203,39.511 30.964,39.768 31.712,39.291 30.951,39.035 				"/>
				<polygon points="29.115,39.145 29.876,39.401 30.624,38.925 29.863,38.668 				"/>
				<polygon class="st12" points="28.027,38.778 28.788,39.035 29.536,38.558 28.775,38.302 				"/>
				<polygon class="st12" points="26.939,38.412 27.7,38.668 28.448,38.192 27.687,37.935 				"/>
				<polygon class="st12" points="25.851,38.045 26.612,38.301 27.36,37.825 26.599,37.569 				"/>
				<polygon class="st12" points="24.763,37.679 25.524,37.935 26.272,37.459 25.51,37.202 				"/>
				<polygon class="st12" points="23.675,37.312 24.436,37.568 25.183,37.092 24.422,36.836 				"/>
				<polygon points="22.587,36.946 23.348,37.202 24.095,36.726 23.334,36.469 				"/>
				<polygon points="21.499,36.579 22.26,36.835 23.007,36.359 22.246,36.103 				"/>
				<polygon points="20.41,36.212 21.172,36.469 21.919,35.993 21.158,35.736 				"/>
				<polygon points="19.322,35.846 20.083,36.102 20.831,35.626 20.07,35.37 				"/>
				<polygon points="32.379,40.244 33.14,40.501 33.888,40.024 33.127,39.768 				"/>
				<polygon points="30.228,40.555 30.989,40.811 31.737,40.335 30.975,40.079 				"/>
				<polygon points="29.14,40.188 29.901,40.445 30.648,39.968 29.887,39.712 				"/>
				<polygon points="28.052,39.822 28.813,40.078 29.56,39.602 28.799,39.346 				"/>
				<polygon class="st11" points="26.963,39.455 27.725,39.712 28.472,39.235 27.711,38.979 				"/>
				<polygon class="st11" points="25.875,39.089 26.637,39.345 27.384,38.869 26.623,38.613 				"/>
				<polygon class="st11" points="24.787,38.722 25.548,38.979 26.296,38.502 25.535,38.246 				"/>
				<polygon class="st11" points="23.699,38.356 24.46,38.612 25.208,38.136 24.447,37.879 				"/>
				<polygon class="st11" points="22.611,37.989 23.372,38.245 24.12,37.769 23.359,37.513 				"/>
				<polygon class="st8" points="21.523,37.623 22.284,37.879 23.032,37.403 22.271,37.146 				"/>
				<polygon class="st8" points="20.435,37.256 21.196,37.512 21.944,37.036 21.183,36.78 				"/>
				<polygon class="st8" points="19.347,36.89 20.108,37.146 20.856,36.67 20.095,36.413 				"/>
				<polygon class="st8" points="18.259,36.523 19.02,36.779 19.768,36.303 19.007,36.047 				"/>
				<polygon points="31.316,40.921 32.077,41.178 32.825,40.702 32.063,40.445 				"/>
				<polygon points="29.164,41.232 29.925,41.488 30.673,41.012 29.912,40.756 				"/>
				<polygon points="28.076,40.865 28.837,41.122 29.585,40.646 28.824,40.389 				"/>
				<polygon points="26.988,40.499 27.749,40.755 28.497,40.279 27.736,40.023 				"/>
				<polygon class="st12" points="25.9,40.132 26.661,40.389 27.409,39.912 26.648,39.656 				"/>
				<polygon class="st12" points="24.812,39.766 25.573,40.022 26.321,39.546 25.56,39.29 				"/>
				<polygon class="st12" points="23.724,39.399 24.485,39.656 25.233,39.179 24.472,38.923 				"/>
				<polygon class="st12" points="22.636,39.033 23.397,39.289 24.145,38.813 23.384,38.557 				"/>
				<polygon class="st12" points="21.548,38.666 22.309,38.923 23.057,38.446 22.296,38.19 				"/>
				<polygon points="20.46,38.3 21.221,38.556 21.969,38.08 21.208,37.823 				"/>
				<polygon points="19.372,37.933 20.133,38.189 20.881,37.713 20.12,37.457 				"/>
				<polygon points="18.284,37.567 19.045,37.823 19.793,37.347 19.032,37.09 				"/>
				<polygon points="17.196,37.2 17.957,37.456 18.705,36.98 17.944,36.724 				"/>
				<polygon points="30.252,41.598 31.013,41.855 31.761,41.379 31,41.122 				"/>
				<polygon points="40.86,33.784 41.621,34.041 42.369,33.564 41.608,33.308 				"/>
				<polygon points="39.772,33.418 40.533,33.674 41.281,33.198 40.52,32.941 				"/>
				<polygon class="st8" points="38.684,33.051 39.445,33.307 40.193,32.831 39.432,32.575 				"/>
				<polygon points="37.596,32.685 38.357,32.941 39.105,32.465 38.344,32.208 				"/>
				<polygon points="36.508,32.318 37.269,32.574 38.017,32.098 37.256,31.842 				"/>
				<polygon points="35.42,31.952 36.181,32.208 36.929,31.732 36.168,31.475 				"/>
				<polygon points="34.332,31.585 35.093,31.841 35.841,31.365 35.08,31.109 				"/>
				<polygon points="33.244,31.218 34.005,31.475 34.753,30.999 33.992,30.742 				"/>
				<polygon class="st8" points="32.156,30.852 32.917,31.108 33.665,30.632 32.904,30.376 				"/>
				<polygon points="31.068,30.485 31.829,30.742 32.577,30.266 31.816,30.009 				"/>
				<polygon points="29.98,30.119 30.741,30.375 31.489,29.899 30.728,29.643 				"/>
				<polygon points="28.892,29.752 29.653,30.009 30.401,29.533 29.64,29.276 				"/>
				<polygon points="42.696,33.674 41.948,34.151 42.709,34.407 43.457,33.931 				"/>
				<polygon points="28.101,41.909 28.862,42.165 29.61,41.689 28.849,41.433 				"/>
				<polygon points="27.013,41.542 27.774,41.799 28.522,41.323 27.761,41.066 				"/>
				<polygon class="st8" points="25.925,41.176 26.686,41.432 27.434,40.956 26.673,40.7 				"/>
				<polygon points="24.837,40.809 25.598,41.066 26.346,40.59 25.585,40.333 				"/>
				<polygon points="23.749,40.443 24.51,40.699 25.258,40.223 24.497,39.967 				"/>
				<polygon points="22.661,40.076 23.422,40.333 24.17,39.856 23.409,39.6 				"/>
				<polygon points="21.573,39.71 22.334,39.966 23.082,39.49 22.321,39.234 				"/>
				<polygon points="20.485,39.343 21.246,39.6 21.994,39.123 21.233,38.867 				"/>
				<polygon class="st8" points="19.397,38.977 20.158,39.233 20.906,38.757 20.145,38.501 				"/>
				<polygon points="18.309,38.61 19.07,38.867 19.818,38.39 19.057,38.134 				"/>
				<polygon points="17.221,38.244 17.982,38.5 18.73,38.024 17.968,37.767 				"/>
				<polygon points="16.133,37.877 16.894,38.134 17.641,37.657 16.88,37.401 				"/>
				<polygon points="29.189,42.275 29.95,42.532 30.698,42.056 29.937,41.799 				"/>
			</g>
		</g>
		<g>
			<polygon class="st13" points="34.404,35.542 35.166,35.799 35.913,35.322 35.152,35.066 			"/>
			<polygon class="st13" points="33.316,35.176 34.078,35.432 34.825,34.956 34.064,34.699 			"/>
			<polygon class="st13" points="30.052,34.076 30.813,34.332 31.561,33.856 30.8,33.6 			"/>
			<polygon class="st13" points="33.341,36.219 34.102,36.476 34.85,35.999 34.089,35.743 			"/>
			<polygon class="st13" points="32.253,35.853 33.014,36.109 33.762,35.633 33.001,35.376 			"/>
			<polygon class="st13" points="31.165,35.486 31.926,35.743 32.674,35.266 31.913,35.01 			"/>
			<polygon class="st13" points="30.077,35.12 30.838,35.376 31.586,34.9 30.825,34.643 			"/>
			<polygon class="st13" points="28.989,34.753 29.75,35.009 30.498,34.533 29.737,34.277 			"/>
			<g>
				<polygon class="st14" points="19.37,38.759 19.397,38.977 20.158,39.233 20.131,39.016 				"/>
				<polygon class="st15" points="20.131,39.016 20.158,39.233 20.906,38.757 20.879,38.54 				"/>
			</g>
			<g>
				<polygon class="st16" points="25.874,39.915 25.9,40.132 26.661,40.389 26.635,40.171 				"/>
				<polygon class="st17" points="26.635,40.171 26.661,40.389 27.409,39.912 27.382,39.695 				"/>
			</g>
			<g>
				<polygon class="st18" points="26.937,39.238 26.964,39.455 27.725,39.712 27.698,39.494 				"/>
				<polygon class="st19" points="27.698,39.494 27.725,39.712 28.472,39.235 28.446,39.018 				"/>
			</g>
			<g>
				<polygon class="st20" points="33.341,36.219 33.368,36.436 34.129,36.693 34.102,36.476 				"/>
				<polygon class="st21" points="34.102,36.476 34.129,36.693 34.877,36.217 34.85,35.999 				"/>
			</g>
			<g>
				<polygon class="st22" points="35.468,34.865 35.494,35.082 36.256,35.339 36.229,35.121 				"/>
				<polygon class="st23" points="36.229,35.121 36.256,35.339 37.003,34.862 36.977,34.645 				"/>
			</g>
			<g>
				<polygon class="st14" points="25.898,40.959 25.925,41.176 26.686,41.432 26.659,41.215 				"/>
				<polygon class="st15" points="26.659,41.215 26.686,41.432 27.434,40.956 27.407,40.739 				"/>
			</g>
			<g>
				<polygon class="st14" points="18.232,36.306 18.259,36.523 19.02,36.779 18.994,36.562 				"/>
				<polygon class="st15" points="18.994,36.562 19.02,36.779 19.768,36.303 19.741,36.086 				"/>
			</g>
			<g>
				<polygon class="st14" points="19.321,36.672 19.347,36.89 20.108,37.146 20.082,36.929 				"/>
				<polygon class="st15" points="20.082,36.929 20.108,37.146 20.856,36.67 20.829,36.452 				"/>
			</g>
			<g>
				<polygon class="st14" points="20.409,37.039 20.435,37.256 21.196,37.512 21.17,37.295 				"/>
				<polygon class="st15" points="21.17,37.295 21.196,37.512 21.944,37.036 21.917,36.819 				"/>
			</g>
			<g>
				<polygon class="st14" points="21.497,37.405 21.523,37.623 22.284,37.879 22.258,37.662 				"/>
				<polygon class="st15" points="22.258,37.662 22.284,37.879 23.032,37.403 23.005,37.186 				"/>
			</g>
			<g>
				<polygon class="st14" points="26.813,34.02 26.84,34.237 27.601,34.494 27.574,34.276 				"/>
				<polygon class="st15" points="27.574,34.276 27.601,34.494 28.349,34.017 28.322,33.8 				"/>
			</g>
			<g>
				<polygon class="st14" points="27.901,34.387 27.928,34.604 28.689,34.86 28.662,34.643 				"/>
				<polygon class="st15" points="28.662,34.643 28.689,34.86 29.437,34.384 29.41,34.167 				"/>
			</g>
			<g>
				<polygon class="st14" points="27.876,33.343 27.903,33.56 28.664,33.817 28.637,33.599 				"/>
				<polygon class="st15" points="28.637,33.599 28.664,33.817 29.412,33.34 29.385,33.123 				"/>
			</g>
			<g>
				<polygon class="st14" points="28.964,33.709 28.991,33.927 29.752,34.183 29.725,33.966 				"/>
				<polygon class="st15" points="29.725,33.966 29.752,34.183 30.5,33.707 30.473,33.49 				"/>
			</g>
			<g>
				<polygon class="st14" points="28.94,32.666 28.966,32.883 29.727,33.139 29.701,32.922 				"/>
				<polygon class="st15" points="29.701,32.922 29.727,33.139 30.475,32.663 30.448,32.446 				"/>
			</g>
			<g>
				<polygon class="st14" points="30.028,33.032 30.054,33.25 30.815,33.506 30.789,33.289 				"/>
				<polygon class="st15" points="30.789,33.289 30.815,33.506 31.563,33.03 31.536,32.813 				"/>
			</g>
			<g>
				<polygon class="st14" points="30.003,31.989 30.029,32.206 30.791,32.462 30.764,32.245 				"/>
				<polygon class="st15" points="30.764,32.245 30.791,32.462 31.538,31.986 31.512,31.769 				"/>
			</g>
			<g>
				<polygon class="st14" points="31.091,32.355 31.118,32.573 31.879,32.829 31.852,32.612 				"/>
				<polygon class="st15" points="31.852,32.612 31.879,32.829 32.626,32.353 32.6,32.136 				"/>
			</g>
			<g>
				<polygon class="st14" points="31.072,31.356 31.098,31.574 31.859,31.83 31.833,31.613 				"/>
				<polygon class="st15" points="31.833,31.613 31.859,31.83 32.607,31.354 32.58,31.137 				"/>
			</g>
			<g>
				<polygon class="st14" points="32.16,31.723 32.186,31.94 32.947,32.197 32.921,31.979 				"/>
				<polygon class="st15" points="32.921,31.979 32.947,32.197 33.695,31.72 33.668,31.503 				"/>
			</g>
			<g>
				<polygon class="st14" points="32.135,30.679 32.162,30.897 32.923,31.153 32.896,30.936 				"/>
				<polygon class="st15" points="32.896,30.936 32.923,31.153 33.67,30.677 33.644,30.46 				"/>
			</g>
			<g>
				<polygon class="st14" points="23.623,36.051 23.65,36.268 24.411,36.525 24.384,36.308 				"/>
				<polygon class="st15" points="24.384,36.308 24.411,36.525 25.159,36.049 25.132,35.831 				"/>
			</g>
			<g>
				<polygon class="st14" points="24.686,35.374 24.713,35.591 25.474,35.848 25.447,35.631 				"/>
				<polygon class="st15" points="25.447,35.631 25.474,35.848 26.222,35.372 26.195,35.154 				"/>
			</g>
			<g>
				<polygon class="st14" points="30.151,38.25 30.178,38.468 30.939,38.724 30.912,38.507 				"/>
				<polygon class="st15" points="30.912,38.507 30.939,38.724 31.687,38.248 31.66,38.031 				"/>
			</g>
			<g>
				<polygon class="st14" points="32.179,32.722 32.206,32.939 32.967,33.195 32.94,32.978 				"/>
				<polygon class="st15" points="32.94,32.978 32.967,33.195 33.714,32.719 33.688,32.502 				"/>
			</g>
			<g>
				<polygon class="st14" points="32.204,33.765 32.23,33.983 32.991,34.239 32.965,34.022 				"/>
				<polygon class="st15" points="32.965,34.022 32.991,34.239 33.739,33.763 33.713,33.546 				"/>
			</g>
			<g>
				<polygon class="st14" points="33.292,34.132 33.318,34.349 34.079,34.606 34.053,34.388 				"/>
				<polygon class="st15" points="34.053,34.388 34.079,34.606 34.827,34.129 34.801,33.912 				"/>
			</g>
			<g>
				<polygon class="st14" points="33.267,33.088 33.294,33.306 34.055,33.562 34.028,33.345 				"/>
				<polygon class="st15" points="34.028,33.345 34.055,33.562 34.802,33.086 34.776,32.869 				"/>
			</g>
			<g>
				<polygon class="st14" points="34.355,33.455 34.382,33.672 35.143,33.929 35.116,33.711 				"/>
				<polygon class="st15" points="35.116,33.711 35.143,33.929 35.891,33.452 35.864,33.235 				"/>
			</g>
			<g>
				<polygon class="st14" points="34.38,34.499 34.406,34.716 35.167,34.972 35.141,34.755 				"/>
				<polygon class="st15" points="35.141,34.755 35.167,34.972 35.915,34.496 35.889,34.279 				"/>
			</g>
			<g>
				<polygon class="st14" points="35.443,33.821 35.47,34.039 36.231,34.295 36.204,34.078 				"/>
				<polygon class="st15" points="36.204,34.078 36.231,34.295 36.979,33.819 36.952,33.602 				"/>
			</g>
			<g>
				<polygon class="st14" points="36.531,34.188 36.558,34.405 37.319,34.662 37.292,34.444 				"/>
				<polygon class="st15" points="37.292,34.444 37.319,34.662 38.067,34.185 38.04,33.968 				"/>
			</g>
			<g>
				<polygon class="st14" points="36.506,33.144 36.533,33.362 37.294,33.618 37.267,33.401 				"/>
				<polygon class="st15" points="37.267,33.401 37.294,33.618 38.042,33.142 38.015,32.925 				"/>
			</g>
			<g>
				<polygon class="st14" points="37.594,33.511 37.621,33.728 38.382,33.985 38.355,33.767 				"/>
				<polygon class="st15" points="38.355,33.767 38.382,33.985 39.13,33.508 39.103,33.291 				"/>
			</g>
			<g>
				<polygon class="st14" points="38.658,32.834 38.684,33.051 39.445,33.307 39.419,33.09 				"/>
				<polygon class="st15" points="39.419,33.09 39.445,33.307 40.193,32.831 40.166,32.614 				"/>
			</g>
			<g>
				<polygon class="st22" points="31.116,33.399 31.142,33.616 31.903,33.873 31.877,33.655 				"/>
				<polygon class="st23" points="31.877,33.655 31.903,33.873 32.651,33.396 32.624,33.179 				"/>
			</g>
			<g>
				<polygon class="st20" points="34.405,35.542 34.431,35.759 35.192,36.016 35.166,35.799 				"/>
				<polygon class="st21" points="35.166,35.799 35.192,36.016 35.94,35.54 35.913,35.322 				"/>
			</g>
			<g>
				<polygon class="st20" points="32.253,35.853 32.28,36.07 33.041,36.326 33.014,36.109 				"/>
				<polygon class="st21" points="33.014,36.109 33.041,36.326 33.789,35.85 33.762,35.633 				"/>
			</g>
			<g>
				<polygon class="st20" points="33.316,35.176 33.343,35.393 34.104,35.649 34.078,35.432 				"/>
				<polygon class="st21" points="34.078,35.432 34.104,35.649 34.852,35.173 34.825,34.956 				"/>
			</g>
			<g>
				<polygon class="st20" points="30.077,35.12 30.104,35.337 30.865,35.593 30.838,35.376 				"/>
				<polygon class="st21" points="30.838,35.376 30.865,35.593 31.613,35.117 31.586,34.9 				"/>
			</g>
			<g>
				<polygon class="st20" points="31.14,34.443 31.167,34.66 31.928,34.916 31.901,34.699 				"/>
				<polygon class="st21" points="31.901,34.699 31.928,34.916 32.676,34.44 32.649,34.223 				"/>
			</g>
			<g>
				<polygon class="st20" points="28.989,34.753 29.016,34.97 29.777,35.227 29.75,35.009 				"/>
				<polygon class="st21" points="29.75,35.009 29.777,35.227 30.525,34.75 30.498,34.533 				"/>
			</g>
			<g>
				<polygon class="st20" points="30.052,34.076 30.079,34.293 30.84,34.55 30.813,34.332 				"/>
				<polygon class="st21" points="30.813,34.332 30.84,34.55 31.588,34.073 31.561,33.856 				"/>
			</g>
			<g>
				<polygon class="st20" points="31.165,35.486 31.192,35.703 31.953,35.96 31.926,35.743 				"/>
				<polygon class="st21" points="31.926,35.743 31.953,35.96 32.701,35.484 32.674,35.266 				"/>
			</g>
			<g>
				<polygon class="st16" points="24.79,39.548 24.817,39.765 25.578,40.022 25.551,39.804 				"/>
				<polygon class="st17" points="25.551,39.804 25.578,40.022 26.326,39.545 26.299,39.328 				"/>
			</g>
			<g>
				<polygon class="st16" points="23.702,39.181 23.729,39.399 24.49,39.655 24.463,39.438 				"/>
				<polygon class="st17" points="24.463,39.438 24.49,39.655 25.238,39.179 25.211,38.962 				"/>
			</g>
			<g>
				<polygon class="st16" points="22.614,38.815 22.641,39.032 23.402,39.289 23.375,39.071 				"/>
				<polygon class="st17" points="23.375,39.071 23.402,39.289 24.149,38.812 24.123,38.595 				"/>
			</g>
			<g>
				<polygon class="st16" points="21.526,38.448 21.553,38.666 22.314,38.922 22.287,38.705 				"/>
				<polygon class="st17" points="22.287,38.705 22.314,38.922 23.061,38.446 23.035,38.229 				"/>
			</g>
			<g>
				<polygon class="st16" points="28,38.561 28.027,38.778 28.788,39.035 28.761,38.817 				"/>
				<polygon class="st17" points="28.761,38.817 28.788,39.035 29.536,38.558 29.509,38.341 				"/>
			</g>
			<g>
				<polygon class="st16" points="26.917,38.194 26.943,38.411 27.704,38.667 27.678,38.45 				"/>
				<polygon class="st17" points="27.678,38.45 27.704,38.667 28.452,38.191 28.425,37.974 				"/>
			</g>
			<g>
				<polygon class="st16" points="25.829,37.827 25.855,38.045 26.616,38.301 26.59,38.084 				"/>
				<polygon class="st17" points="26.59,38.084 26.616,38.301 27.364,37.825 27.337,37.608 				"/>
			</g>
			<g>
				<polygon class="st16" points="24.74,37.461 24.767,37.678 25.528,37.934 25.502,37.717 				"/>
				<polygon class="st17" points="25.502,37.717 25.528,37.934 26.276,37.458 26.249,37.241 				"/>
			</g>
			<g>
				<polygon class="st16" points="23.652,37.094 23.679,37.311 24.44,37.568 24.413,37.351 				"/>
				<polygon class="st17" points="24.413,37.351 24.44,37.568 25.188,37.092 25.161,36.874 				"/>
			</g>
			<g>
				<polygon class="st16" points="30.127,37.207 30.153,37.424 30.914,37.68 30.888,37.463 				"/>
				<polygon class="st17" points="30.888,37.463 30.914,37.68 31.662,37.204 31.636,36.987 				"/>
			</g>
			<g>
				<polygon class="st16" points="29.043,36.84 29.07,37.057 29.831,37.313 29.804,37.096 				"/>
				<polygon class="st17" points="29.804,37.096 29.831,37.313 30.579,36.837 30.552,36.62 				"/>
			</g>
			<g>
				<polygon class="st16" points="27.955,36.473 27.982,36.69 28.743,36.947 28.716,36.73 				"/>
				<polygon class="st17" points="28.716,36.73 28.743,36.947 29.491,36.471 29.464,36.253 				"/>
			</g>
			<g>
				<polygon class="st16" points="26.867,36.107 26.894,36.324 27.655,36.58 27.628,36.363 				"/>
				<polygon class="st17" points="27.628,36.363 27.655,36.58 28.403,36.104 28.376,35.887 				"/>
			</g>
			<g>
				<polygon class="st16" points="25.779,35.74 25.806,35.957 26.567,36.214 26.54,35.997 				"/>
				<polygon class="st17" points="26.54,35.997 26.567,36.214 27.315,35.738 27.288,35.52 				"/>
			</g>
			<g>
				<polygon class="st18" points="32.228,34.809 32.255,35.026 33.016,35.283 32.989,35.065 				"/>
				<polygon class="st19" points="32.989,35.065 33.016,35.283 33.764,34.806 33.737,34.589 				"/>
			</g>
			<g>
				<polygon class="st18" points="25.849,38.871 25.875,39.089 26.637,39.345 26.61,39.128 				"/>
				<polygon class="st19" points="26.61,39.128 26.637,39.345 27.384,38.869 27.358,38.652 				"/>
			</g>
			<g>
				<polygon class="st18" points="24.761,38.505 24.787,38.722 25.548,38.979 25.522,38.761 				"/>
				<polygon class="st19" points="25.522,38.761 25.548,38.979 26.296,38.502 26.27,38.285 				"/>
			</g>
			<g>
				<polygon class="st18" points="23.673,38.138 23.699,38.356 24.46,38.612 24.434,38.395 				"/>
				<polygon class="st19" points="24.434,38.395 24.46,38.612 25.208,38.136 25.182,37.919 				"/>
			</g>
			<g>
				<polygon class="st18" points="22.585,37.772 22.611,37.989 23.372,38.245 23.346,38.028 				"/>
				<polygon class="st19" points="23.346,38.028 23.372,38.245 24.12,37.769 24.094,37.552 				"/>
			</g>
			<g>
				<polygon class="st18" points="29.063,37.884 29.09,38.101 29.851,38.357 29.824,38.14 				"/>
				<polygon class="st19" points="29.824,38.14 29.851,38.357 30.599,37.881 30.572,37.664 				"/>
			</g>
			<g>
				<polygon class="st18" points="27.975,37.517 28.002,37.735 28.763,37.991 28.736,37.774 				"/>
				<polygon class="st19" points="28.736,37.774 28.763,37.991 29.511,37.515 29.484,37.298 				"/>
			</g>
			<g>
				<polygon class="st18" points="26.887,37.151 26.914,37.368 27.675,37.624 27.648,37.407 				"/>
				<polygon class="st19" points="27.648,37.407 27.675,37.624 28.423,37.148 28.396,36.931 				"/>
			</g>
			<g>
				<polygon class="st18" points="25.799,36.784 25.826,37.002 26.587,37.258 26.56,37.041 				"/>
				<polygon class="st19" points="26.56,37.041 26.587,37.258 27.335,36.782 27.308,36.564 				"/>
			</g>
			<g>
				<polygon class="st18" points="24.711,36.418 24.738,36.635 25.499,36.891 25.472,36.674 				"/>
				<polygon class="st19" points="25.472,36.674 25.499,36.891 26.247,36.415 26.22,36.198 				"/>
			</g>
			<g>
				<polygon class="st18" points="31.19,36.53 31.217,36.747 31.978,37.003 31.951,36.786 				"/>
				<polygon class="st19" points="31.951,36.786 31.978,37.003 32.725,36.527 32.699,36.31 				"/>
			</g>
			<g>
				<polygon class="st18" points="30.102,36.163 30.129,36.38 30.89,36.637 30.863,36.42 				"/>
				<polygon class="st19" points="30.863,36.42 30.89,36.637 31.637,36.161 31.611,35.943 				"/>
			</g>
			<g>
				<polygon class="st18" points="29.014,35.797 29.041,36.014 29.802,36.27 29.775,36.053 				"/>
				<polygon class="st19" points="29.775,36.053 29.802,36.27 30.549,35.794 30.523,35.577 				"/>
			</g>
			<g>
				<polygon class="st18" points="27.926,35.43 27.952,35.647 28.714,35.904 28.687,35.687 				"/>
				<polygon class="st19" points="28.687,35.687 28.714,35.904 29.461,35.428 29.435,35.21 				"/>
			</g>
			<g>
				<polygon class="st18" points="26.838,35.064 26.864,35.281 27.625,35.537 27.599,35.32 				"/>
				<polygon class="st19" points="27.599,35.32 27.625,35.537 28.373,35.061 28.347,34.844 				"/>
			</g>
			<g>
				<polygon class="st24" points="36.216,34.389 35.468,34.865 36.229,35.121 36.977,34.645 				"/>
				<polygon class="st24" points="31.116,33.399 31.877,33.655 32.624,33.179 31.863,32.923 				"/>
			</g>
			<polygon class="st13" points="31.14,34.443 31.901,34.699 32.649,34.223 31.888,33.966 			"/>
			<g>
				<polygon class="st25" points="32.976,34.333 32.228,34.809 32.989,35.065 33.737,34.589 				"/>
				<polygon class="st25" points="31.19,36.53 31.951,36.786 32.699,36.31 31.938,36.054 				"/>
				<polygon class="st25" points="30.85,35.687 30.102,36.163 30.863,36.42 31.611,35.943 				"/>
				<polygon class="st25" points="29.775,36.053 30.523,35.577 29.762,35.32 29.014,35.797 				"/>
				<polygon class="st25" points="28.687,35.687 29.435,35.21 28.674,34.954 27.926,35.43 				"/>
				<polygon class="st25" points="28.347,34.844 27.586,34.587 26.838,35.064 27.599,35.32 				"/>
				<polygon class="st25" points="29.063,37.884 29.824,38.14 30.572,37.664 29.811,37.408 				"/>
				<polygon class="st25" points="28.723,37.041 27.975,37.517 28.736,37.774 29.484,37.298 				"/>
				<polygon class="st25" points="26.887,37.151 27.648,37.407 28.396,36.931 27.635,36.675 				"/>
				<polygon class="st25" points="26.56,37.041 27.308,36.564 26.547,36.308 25.799,36.784 				"/>
				<polygon class="st25" points="26.22,36.198 25.459,35.942 24.711,36.418 25.472,36.674 				"/>
				<polygon class="st25" points="26.937,39.238 27.698,39.494 28.446,39.018 27.685,38.762 				"/>
				<polygon class="st25" points="26.597,38.395 25.849,38.871 26.61,39.128 27.358,38.652 				"/>
				<polygon class="st25" points="25.509,38.029 24.761,38.505 25.522,38.761 26.27,38.285 				"/>
				<polygon class="st25" points="24.421,37.662 23.673,38.138 24.434,38.395 25.182,37.919 				"/>
				<polygon class="st25" points="23.332,37.296 22.585,37.772 23.346,38.028 24.094,37.552 				"/>
			</g>
			<g>
				<polygon class="st26" points="30.874,36.731 30.127,37.207 30.888,37.463 31.636,36.987 				"/>
				<polygon class="st26" points="29.786,36.364 29.039,36.84 29.8,37.097 30.547,36.62 				"/>
				<polygon class="st26" points="28.712,36.73 29.459,36.254 28.698,35.998 27.951,36.474 				"/>
				<polygon class="st26" points="27.624,36.364 28.371,35.887 27.61,35.631 26.863,36.107 				"/>
				<polygon class="st26" points="27.283,35.521 26.522,35.264 25.774,35.741 26.536,35.997 				"/>
				<polygon class="st26" points="28,38.561 28.761,38.817 29.509,38.341 28.748,38.085 				"/>
				<polygon class="st26" points="27.66,37.718 26.912,38.194 27.673,38.451 28.421,37.975 				"/>
				<polygon class="st26" points="25.824,37.828 26.585,38.084 27.333,37.608 26.572,37.352 				"/>
				<polygon class="st26" points="25.497,37.718 26.245,37.242 25.484,36.985 24.736,37.461 				"/>
				<polygon class="st26" points="25.157,36.875 24.396,36.619 23.648,37.095 24.409,37.351 				"/>
				<polygon class="st26" points="25.874,39.915 26.635,40.171 27.382,39.695 26.621,39.439 				"/>
				<polygon class="st26" points="25.533,39.072 24.785,39.549 25.547,39.805 26.294,39.329 				"/>
				<polygon class="st26" points="24.445,38.706 23.697,39.182 24.458,39.438 25.206,38.962 				"/>
				<polygon class="st26" points="23.357,38.339 22.609,38.815 23.37,39.072 24.118,38.596 				"/>
				<polygon class="st26" points="22.269,37.973 21.521,38.449 22.282,38.705 23.03,38.229 				"/>
			</g>
			<g>
				<polygon class="st27" points="37.594,33.511 38.355,33.767 39.103,33.291 38.342,33.035 				"/>
				<polygon class="st27" points="38.015,32.925 37.254,32.668 36.506,33.144 37.267,33.401 				"/>
				<polygon class="st27" points="32.907,31.247 32.16,31.723 32.921,31.979 33.668,31.503 				"/>
				<polygon class="st27" points="32.58,31.137 31.819,30.88 31.072,31.356 31.833,31.613 				"/>
				<polygon class="st27" points="36.531,34.188 37.292,34.444 38.04,33.968 37.279,33.712 				"/>
				<polygon class="st27" points="36.191,33.345 35.443,33.821 36.204,34.078 36.952,33.602 				"/>
				<polygon class="st27" points="35.116,33.711 35.864,33.235 35.103,32.979 34.355,33.455 				"/>
				<polygon class="st27" points="34.028,33.345 34.776,32.869 34.015,32.612 33.267,33.088 				"/>
				<polygon class="st27" points="32.94,32.978 33.688,32.502 32.927,32.246 32.179,32.722 				"/>
				<polygon class="st27" points="31.839,31.879 31.091,32.355 31.852,32.612 32.6,32.136 				"/>
				<polygon class="st27" points="31.512,31.769 30.751,31.513 30.003,31.989 30.764,32.245 				"/>
				<polygon class="st27" points="34.38,34.499 35.141,34.755 35.889,34.279 35.128,34.022 				"/>
				<polygon class="st27" points="34.04,33.656 33.292,34.132 34.053,34.388 34.801,33.912 				"/>
				<polygon class="st27" points="32.951,33.289 32.204,33.765 32.965,34.022 33.713,33.546 				"/>
				<polygon class="st27" points="30.028,33.032 30.789,33.289 31.536,32.813 30.775,32.556 				"/>
				<polygon class="st27" points="30.448,32.446 29.687,32.19 28.94,32.666 29.701,32.922 				"/>
				<polygon class="st27" points="29.725,33.966 30.473,33.49 29.712,33.233 28.964,33.709 				"/>
				<polygon class="st27" points="29.385,33.123 28.624,32.867 27.876,33.343 28.637,33.599 				"/>
				<polygon class="st27" points="27.901,34.387 28.662,34.643 29.41,34.167 28.649,33.91 				"/>
				<polygon class="st27" points="27.561,33.544 26.813,34.02 27.574,34.276 28.322,33.8 				"/>
				<polygon class="st27" points="26.195,35.154 25.434,34.898 24.686,35.374 25.447,35.631 				"/>
				<polygon class="st27" points="30.151,38.25 30.912,38.507 31.66,38.031 30.899,37.774 				"/>
				<polygon class="st27" points="23.623,36.051 24.384,36.308 25.132,35.831 24.371,35.575 				"/>
				<polygon class="st27" points="21.497,37.405 22.258,37.662 23.005,37.186 22.244,36.929 				"/>
				<polygon class="st27" points="21.156,36.563 20.409,37.039 21.17,37.295 21.917,36.819 				"/>
				<polygon class="st27" points="20.082,36.929 20.829,36.452 20.068,36.196 19.321,36.672 				"/>
				<polygon class="st27" points="18.98,35.83 18.232,36.306 18.994,36.562 19.741,36.086 				"/>
				<polygon class="st27" points="39.405,32.358 38.658,32.834 39.419,33.09 40.166,32.614 				"/>
				<polygon class="st27" points="33.644,30.46 32.883,30.203 32.135,30.679 32.896,30.936 				"/>
				<polygon class="st27" points="25.898,40.959 26.659,41.215 27.407,40.739 26.646,40.482 				"/>
				<polygon class="st27" points="19.37,38.759 20.131,39.016 20.879,38.54 20.118,38.283 				"/>
			</g>
		</g>
	</g>
	<path class="st28" d="M48.086,39.847l-16.567,7.373c-0.672,0.299-2.116,0.239-3.21-0.132l-14.522-4.935
		c-1.094-0.372-1.44-0.92-0.768-1.219l16.567-7.373c0.672-0.299,2.116-0.239,3.21,0.132l14.522,4.935
		C48.412,39,48.757,39.549,48.086,39.847z"/>
</g>
</svg>
