<?xml version="1.0" encoding="utf-8"?>
<!-- Generator: Adobe Illustrator 25.4.1, SVG Export Plug-In . SVG Version: 6.00 Build 0)  -->
<svg version="1.1" id="Layer_1" xmlns="http://www.w3.org/2000/svg" xmlns:xlink="http://www.w3.org/1999/xlink" x="0px" y="0px"
	 viewBox="0 0 50 50" style="enable-background:new 0 0 50 50;" xml:space="preserve">
<style type="text/css">
	.st0{opacity:0.2;fill:#ADAFB2;enable-background:new    ;}
	.st1{fill:#004E5E;}
	.st2{fill:#126679;}
	.st3{fill:#33C3E6;}
	.st4{fill:#231F20;}
	.st5{fill:#FFFFFF;}
	.st6{fill:#686868;}
	.st7{fill:#393839;}
	.st8{fill:#90D5F8;}
	.st9{fill:#EFFE8D;}
	.st10{fill:#F2F6FC;}
	.st11{fill:#FF00DD;}
	.st12{fill:#8D5AF1;}
	.st13{fill:#F1F5FB;}
	.st14{fill:#567E92;}
	.st15{fill:#6593AB;}
	.st16{fill:#3C2B5A;}
	.st17{fill:#63518F;}
	.st18{fill:#862C67;}
	.st19{fill:#9E397B;}
	.st20{fill:#73787D;}
	.st21{fill:#BDC1C7;}
	.st22{fill:#989A5F;}
	.st23{fill:#AAAC6B;}
	.st24{fill:#EBEC8F;}
	.st25{fill:#C84C9A;}
	.st26{fill:#7761A9;}
	.st27{fill:#90D2F3;}
	.st28{opacity:0.14;fill:#686868;enable-background:new    ;}
</style>
<g>
	<path class="st0" d="M49.294,37.04l-11.493-6.293l-9.274,3.52l0.106,0.295l0.236,0.142c0.007,0.03,0.016,0.059,0.028,0.089
		c0.113,0.279,0.433,0.472,0.713,0.429c0.022-0.003,0.042-0.009,0.062-0.016c0.005,0.021,0.013,0.044,0.021,0.066
		c0.114,0.279,0.433,0.472,0.713,0.429c0.022-0.003,0.042-0.009,0.062-0.016c0.005,0.021,0.013,0.044,0.021,0.066
		c0.114,0.279,0.433,0.472,0.712,0.429c0.022-0.003,0.042-0.009,0.062-0.016c0.005,0.021,0.013,0.044,0.021,0.066
		c0.113,0.279,0.433,0.472,0.713,0.429c0.022-0.003,0.042-0.009,0.062-0.016c0.006,0.021,0.013,0.044,0.021,0.066
		c0.114,0.279,0.433,0.472,0.713,0.429c0.022-0.003,0.042-0.009,0.062-0.016c0.005,0.021,0.013,0.044,0.021,0.066
		c0.114,0.279,0.433,0.472,0.713,0.429c0.022-0.003,0.042-0.009,0.062-0.016c0.005,0.021,0.013,0.044,0.021,0.066
		c0.114,0.279,0.433,0.472,0.713,0.429c0.022-0.003,0.042-0.009,0.062-0.016c0.006,0.021,0.013,0.044,0.021,0.066
		c0.114,0.279,0.433,0.472,0.713,0.429c0.022-0.003,0.042-0.009,0.062-0.016c0.006,0.021,0.013,0.044,0.021,0.066
		c0.113,0.279,0.433,0.472,0.713,0.429c0.022-0.003,0.042-0.009,0.062-0.016c0.005,0.021,0.013,0.044,0.021,0.066
		c0.114,0.279,0.433,0.472,0.713,0.429c0.022-0.003,0.042-0.009,0.062-0.016c0.005,0.021,0.013,0.044,0.021,0.066
		c0.114,0.279,0.433,0.472,0.713,0.429c0.022-0.003,0.042-0.009,0.062-0.016c0.006,0.021,0.013,0.044,0.021,0.066
		c0.113,0.279,0.433,0.472,0.713,0.429c0.022-0.003,0.042-0.009,0.062-0.016c0.006,0.021,0.013,0.044,0.021,0.066
		c0.114,0.279,0.433,0.472,0.713,0.429c0.028-0.004,0.056-0.011,0.082-0.02l0.632,0.381l9.51-4.014l-0.35-0.192L49.294,37.04z"/>
	<polygon class="st1" points="39.791,40.703 49.301,36.689 49.407,36.984 39.896,40.998 	"/>
	<polygon class="st2" points="28.534,33.916 28.64,34.211 39.896,40.998 39.791,40.703 	"/>
	<polygon class="st3" points="28.534,33.916 37.809,30.396 49.301,36.689 39.791,40.703 	"/>
	<path class="st4" d="M39.196,39.723c-0.135-0.083-0.286-0.118-0.423-0.097c-0.166,0.025-0.282,0.127-0.324,0.265
		c-0.036,0.037-0.085,0.061-0.143,0.07c-0.171,0.026-0.366-0.092-0.436-0.262c-0.024-0.059-0.029-0.116-0.019-0.168
		c0.004-0.005,0.009-0.01,0.012-0.015l-0.008-0.005c0.024-0.088,0.096-0.153,0.2-0.168c0.063-0.01,0.131,0,0.198,0.028l0.007,0.003
		c0.009,0.004,0.017,0.007,0.033,0.014c0.034,0.011,0.069,0.01,0.099-0.003c0.053-0.022,0.057-0.057,0.055-0.076
		c-0.003-0.025-0.022-0.05-0.048-0.067c-0.135-0.083-0.285-0.117-0.423-0.097c-0.166,0.025-0.282,0.127-0.324,0.265
		c-0.036,0.037-0.085,0.061-0.143,0.069c-0.171,0.026-0.366-0.092-0.436-0.262c-0.024-0.058-0.03-0.115-0.019-0.167
		c0.004-0.005,0.009-0.01,0.012-0.015l-0.008-0.005c0.024-0.088,0.096-0.153,0.2-0.168c0.063-0.01,0.131,0,0.198,0.028l0.007,0.002
		c0.009,0.004,0.017,0.007,0.033,0.014c0.034,0.011,0.069,0.01,0.099-0.003c0.053-0.022,0.057-0.057,0.055-0.076
		c-0.003-0.026-0.021-0.051-0.048-0.067c-0.135-0.083-0.285-0.117-0.423-0.097c-0.166,0.026-0.282,0.129-0.324,0.267
		c-0.036,0.037-0.085,0.061-0.143,0.069c-0.171,0.026-0.366-0.092-0.436-0.262c-0.024-0.059-0.029-0.116-0.019-0.168
		c0.004-0.005,0.009-0.01,0.012-0.015l-0.009-0.004c0.024-0.088,0.096-0.153,0.2-0.168c0.063-0.01,0.131,0,0.198,0.028l0.007,0.002
		c0.009,0.004,0.017,0.007,0.033,0.015c0.034,0.011,0.069,0.01,0.099-0.003c0.053-0.022,0.057-0.057,0.055-0.076
		c-0.003-0.026-0.021-0.051-0.048-0.067c-0.135-0.083-0.285-0.117-0.422-0.097c-0.166,0.025-0.282,0.127-0.324,0.265
		c-0.036,0.037-0.085,0.061-0.143,0.07c-0.171,0.026-0.366-0.092-0.437-0.262c-0.024-0.059-0.029-0.116-0.019-0.168
		c0.004-0.005,0.008-0.01,0.012-0.015l-0.008-0.005c0.024-0.088,0.096-0.153,0.2-0.168c0.063-0.01,0.13,0,0.198,0.028l0.007,0.002
		c0.009,0.004,0.017,0.007,0.033,0.014c0.034,0.011,0.069,0.01,0.099-0.003c0.053-0.022,0.057-0.057,0.054-0.075
		c-0.003-0.026-0.021-0.051-0.048-0.067c-0.135-0.083-0.285-0.117-0.423-0.097c-0.166,0.025-0.281,0.127-0.324,0.265
		c-0.036,0.037-0.085,0.061-0.143,0.07c-0.171,0.026-0.367-0.092-0.436-0.262c-0.024-0.059-0.029-0.116-0.019-0.168
		c0.004-0.005,0.008-0.01,0.012-0.015l-0.008-0.005c0.024-0.088,0.096-0.153,0.2-0.168c0.063-0.01,0.13,0,0.198,0.028l0.007,0.003
		c0.009,0.004,0.017,0.007,0.033,0.014c0.034,0.011,0.069,0.01,0.099-0.003c0.053-0.022,0.057-0.057,0.055-0.076
		c-0.003-0.026-0.021-0.051-0.048-0.067c-0.135-0.083-0.285-0.117-0.423-0.097c-0.166,0.025-0.282,0.127-0.324,0.265
		c-0.036,0.037-0.085,0.061-0.143,0.07c-0.171,0.026-0.366-0.092-0.437-0.262c-0.024-0.059-0.029-0.116-0.019-0.168
		c0.004-0.005,0.008-0.01,0.012-0.015l-0.008-0.005c0.024-0.088,0.096-0.153,0.2-0.168c0.063-0.01,0.13,0,0.198,0.028l0.007,0.002
		c0.009,0.004,0.017,0.007,0.033,0.014c0.034,0.011,0.069,0.01,0.099-0.003c0.053-0.022,0.057-0.057,0.055-0.076
		c-0.003-0.025-0.021-0.051-0.048-0.067c-0.135-0.083-0.285-0.117-0.423-0.097c-0.166,0.025-0.282,0.127-0.324,0.265
		c-0.036,0.037-0.085,0.061-0.143,0.069c-0.171,0.026-0.366-0.092-0.437-0.263c-0.024-0.059-0.029-0.116-0.019-0.168
		c0.004-0.005,0.009-0.01,0.012-0.015l-0.008-0.005c0.024-0.088,0.096-0.153,0.2-0.168c0.063-0.01,0.131,0,0.198,0.028l0.007,0.002
		c0.009,0.004,0.017,0.007,0.033,0.014c0.034,0.011,0.069,0.01,0.099-0.003c0.053-0.022,0.057-0.057,0.054-0.075
		c-0.003-0.026-0.021-0.051-0.048-0.067c-0.135-0.083-0.285-0.117-0.423-0.096c-0.166,0.025-0.282,0.127-0.324,0.265
		c-0.036,0.037-0.085,0.061-0.143,0.069c-0.171,0.026-0.366-0.092-0.436-0.262c-0.024-0.059-0.029-0.116-0.019-0.168
		c0.004-0.005,0.009-0.01,0.012-0.015l-0.008-0.005c0.024-0.088,0.096-0.153,0.2-0.168c0.063-0.01,0.131,0,0.198,0.028l0.007,0.003
		c0.009,0.004,0.017,0.007,0.033,0.014c0.034,0.011,0.069,0.01,0.099-0.003c0.053-0.022,0.057-0.057,0.054-0.075
		c-0.003-0.026-0.021-0.051-0.048-0.067c-0.135-0.083-0.286-0.118-0.423-0.097c-0.166,0.025-0.282,0.127-0.324,0.265
		c-0.036,0.037-0.085,0.061-0.143,0.07c-0.171,0.026-0.366-0.092-0.436-0.262c-0.024-0.059-0.029-0.116-0.019-0.168
		c0.004-0.005,0.009-0.01,0.012-0.015l-0.008-0.005c0.024-0.088,0.096-0.153,0.2-0.168c0.063-0.01,0.131,0,0.198,0.028l0.007,0.002
		c0.009,0.004,0.018,0.007,0.033,0.015c0.034,0.011,0.069,0.01,0.099-0.003c0.053-0.022,0.057-0.057,0.055-0.076
		c-0.003-0.025-0.021-0.051-0.048-0.067c-0.135-0.083-0.286-0.118-0.423-0.097c-0.166,0.025-0.282,0.127-0.324,0.265
		c-0.036,0.037-0.085,0.061-0.143,0.07c-0.171,0.026-0.367-0.092-0.437-0.262c-0.024-0.059-0.029-0.116-0.019-0.168
		c0.004-0.005,0.008-0.01,0.012-0.015l-0.008-0.005c0.024-0.088,0.096-0.153,0.2-0.168c0.063-0.01,0.13,0,0.198,0.028l0.007,0.002
		c0.009,0.004,0.017,0.007,0.033,0.015c0.034,0.011,0.069,0.01,0.099-0.003c0.053-0.022,0.057-0.057,0.055-0.076
		c-0.003-0.026-0.021-0.051-0.048-0.067c-0.135-0.083-0.285-0.117-0.423-0.097c-0.166,0.025-0.282,0.127-0.324,0.265
		c-0.036,0.037-0.085,0.061-0.143,0.07c-0.171,0.026-0.366-0.092-0.436-0.262c-0.024-0.059-0.029-0.116-0.019-0.168
		c0.004-0.005,0.008-0.01,0.012-0.015l-0.008-0.005c0.024-0.088,0.096-0.153,0.2-0.168c0.063-0.01,0.13,0,0.198,0.028l0.007,0.003
		c0.009,0.004,0.017,0.007,0.033,0.014c0.034,0.011,0.069,0.01,0.099-0.003c0.053-0.022,0.057-0.057,0.055-0.076
		c-0.003-0.026-0.021-0.051-0.048-0.067c-0.135-0.083-0.285-0.117-0.423-0.097c-0.166,0.025-0.281,0.127-0.324,0.265
		c-0.036,0.037-0.085,0.061-0.143,0.07c-0.171,0.026-0.366-0.092-0.437-0.262c-0.069-0.17,0.014-0.33,0.186-0.356
		c0.063-0.01,0.13,0,0.198,0.028l0.007,0.002c0.009,0.004,0.017,0.007,0.033,0.014c0.034,0.011,0.069,0.01,0.099-0.003
		c0.053-0.022,0.057-0.057,0.054-0.075c-0.003-0.026-0.021-0.051-0.048-0.067c-0.135-0.083-0.285-0.117-0.423-0.097
		c-0.28,0.042-0.415,0.302-0.303,0.581c0.113,0.279,0.433,0.472,0.713,0.429c0.022-0.003,0.043-0.008,0.063-0.015
		c0.005,0.021,0.013,0.043,0.021,0.065c0.114,0.279,0.433,0.472,0.713,0.429c0.022-0.003,0.043-0.008,0.063-0.015
		c0.005,0.021,0.013,0.043,0.021,0.065c0.114,0.279,0.433,0.472,0.712,0.429c0.022-0.003,0.043-0.008,0.063-0.015
		c0.005,0.021,0.013,0.043,0.021,0.065c0.113,0.279,0.433,0.472,0.713,0.429c0.022-0.003,0.043-0.008,0.063-0.015
		c0.006,0.021,0.013,0.043,0.021,0.065c0.114,0.279,0.433,0.472,0.713,0.429c0.022-0.003,0.043-0.008,0.063-0.015
		c0.006,0.021,0.013,0.043,0.021,0.065c0.114,0.279,0.433,0.472,0.713,0.429c0.022-0.003,0.043-0.008,0.063-0.015
		c0.005,0.021,0.013,0.043,0.021,0.065c0.114,0.279,0.433,0.472,0.713,0.429c0.022-0.003,0.043-0.008,0.063-0.015
		c0.005,0.021,0.013,0.043,0.021,0.065c0.113,0.279,0.433,0.472,0.713,0.429c0.022-0.003,0.043-0.008,0.063-0.015
		c0.006,0.021,0.013,0.043,0.021,0.065c0.113,0.279,0.433,0.472,0.713,0.429c0.022-0.003,0.043-0.008,0.063-0.015
		c0.006,0.021,0.013,0.043,0.021,0.065c0.114,0.279,0.433,0.472,0.713,0.429c0.022-0.003,0.043-0.008,0.063-0.015
		c0.006,0.021,0.013,0.043,0.021,0.065c0.114,0.279,0.433,0.472,0.713,0.429c0.022-0.003,0.043-0.008,0.063-0.015
		c0.005,0.021,0.013,0.043,0.021,0.065c0.113,0.279,0.433,0.472,0.713,0.429c0.022-0.003,0.043-0.008,0.063-0.015
		c0.005,0.021,0.013,0.043,0.021,0.065c0.114,0.279,0.433,0.472,0.713,0.429c0.119-0.018,0.214-0.075,0.274-0.162l-0.203-0.113
		c-0.037,0.041-0.088,0.069-0.151,0.079c-0.171,0.026-0.366-0.092-0.437-0.263c-0.024-0.059-0.029-0.116-0.019-0.168
		c0.004-0.005,0.008-0.01,0.012-0.015l-0.008-0.005c0.024-0.088,0.096-0.153,0.2-0.168c0.063-0.01,0.13,0,0.198,0.028l0.007,0.002
		c0.009,0.004,0.017,0.007,0.033,0.015c0.034,0.011,0.069,0.01,0.099-0.003c0.053-0.022,0.057-0.057,0.055-0.076
		C39.242,39.764,39.223,39.74,39.196,39.723z"/>
	<g>
		<path class="st5" d="M33.08,33.854c-0.039,0.003-0.077,0.009-0.115,0.013c-0.025,0.01-0.049,0.02-0.073,0.03
			c-0.015,0.011-0.031,0.022-0.046,0.034c-0.168,0.135,0.109,0.319,0.374,0.373c0.128,0.026,0.234,0.026,0.332,0.007
			c0.151-0.028,0.215-0.088,0.187-0.179C33.686,33.957,33.299,33.836,33.08,33.854z M33.411,34.158
			c-0.064,0.025-0.166,0.013-0.238-0.026c-0.087-0.048-0.107-0.094-0.05-0.117c0.063-0.025,0.157-0.014,0.233,0.027
			C33.426,34.08,33.454,34.141,33.411,34.158z"/>
		<path class="st5" d="M32.546,34.414c-0.022-0.002-0.043-0.002-0.067-0.004c-0.001-0.006,0-0.011,0-0.015
			c0.001-0.043-0.044-0.08-0.132-0.111c-0.096-0.033-0.179-0.033-0.246-0.013c-0.088,0.027-0.17,0.057-0.251,0.087
			c-0.021,0.008-0.026,0.023-0.039,0.035c0.217,0.118,0.436,0.234,0.653,0.352c0.018,0,0.042,0.004,0.053,0
			c0.076-0.029,0.153-0.057,0.221-0.09c0.037-0.018,0.063-0.044,0.08-0.07C32.864,34.516,32.717,34.425,32.546,34.414z
			 M32.275,34.426c-0.01,0.009-0.025,0.017-0.041,0.027c-0.026-0.013-0.048-0.022-0.079-0.038c0.028-0.006,0.049-0.013,0.074-0.016
			c0.009-0.001,0.031,0.003,0.04,0.008C32.278,34.411,32.28,34.421,32.275,34.426z M32.517,34.556
			c-0.009,0.01-0.026,0.017-0.044,0.027c-0.029-0.015-0.05-0.027-0.078-0.043c0.021-0.007,0.037-0.015,0.059-0.018
			c0.014-0.002,0.042,0.002,0.056,0.009C32.519,34.535,32.522,34.549,32.517,34.556z"/>
		<path class="st5" d="M35.272,33.336c0.04-0.004,0.082-0.007,0.125-0.008c0.016-0.001,0.039,0.007,0.058,0.01
			c-0.008,0.007-0.011,0.016-0.022,0.02c-0.015,0.006-0.038,0.008-0.058,0.011c-0.034,0.006-0.088,0.004-0.101,0.016
			c-0.014,0.015,0.006,0.042,0.014,0.064c0.021,0.06,0.025,0.063,0.137,0.058c0.174-0.008,0.301-0.04,0.314-0.134
			c0.01-0.073-0.193-0.211-0.403-0.19c-0.044,0.005-0.089,0.01-0.135,0.012c-0.021,0.002-0.048-0.002-0.083-0.005
			c0.031-0.029,0.082-0.033,0.134-0.037c0.014-0.001,0.035-0.007,0.033-0.013c-0.008-0.038-0.022-0.076-0.034-0.116
			c-0.019-0.001-0.028-0.001-0.037-0.002c-0.101-0.003-0.179,0.013-0.258,0.03c-0.025,0.01-0.049,0.02-0.073,0.03
			c-0.005,0.005-0.01,0.009-0.015,0.014c-0.049,0.043-0.022,0.118,0.058,0.166C35.033,33.326,35.145,33.349,35.272,33.336z"/>
		<path class="st5" d="M38.963,34.218c-0.877-0.472-1.754-0.944-2.629-1.417c-0.013-0.007-0.026-0.014-0.039-0.021
			c-0.195-0.098-0.467-0.11-0.562-0.026c-0.07,0.063-0.022,0.151,0.13,0.233c0.276,0.149,0.552,0.298,0.829,0.447
			c0.014,0.008,0.03,0.016,0.05,0.027c-0.7,0.03-0.933,0.314-0.81,0.592c0.131,0.297,0.624,0.589,1.223,0.722
			c0.305,0.068,0.592,0.091,0.856,0.067c0.393-0.037,0.618-0.158,0.695-0.349c0.018,0.003,0.031,0.006,0.043,0.009
			c0.224,0.043,0.403-0.011,0.385-0.116C39.125,34.327,39.061,34.272,38.963,34.218z M37.834,34.434
			c-0.226,0.095-0.644,0.047-0.933-0.108c-0.285-0.153-0.333-0.352-0.109-0.446c0.224-0.093,0.638-0.044,0.926,0.11
			C38.005,34.143,38.056,34.341,37.834,34.434z"/>
		<path class="st5" d="M36.656,35.124c-0.135-0.067-0.303-0.098-0.436-0.079c-0.079,0.011-0.125,0.038-0.152,0.075
			c-0.039,0.054-0.113,0.092-0.22,0.113c-0.286,0.054-0.694-0.037-0.921-0.205c-0.228-0.169-0.193-0.349,0.084-0.41
			c0.13-0.028,0.283-0.025,0.468,0.011c-0.019,0.008-0.03,0.012-0.04,0.016c-0.121,0.05-0.244,0.098-0.363,0.149
			c-0.125,0.052-0.096,0.163,0.062,0.249c0.157,0.086,0.39,0.118,0.518,0.068c0.243-0.097,0.484-0.195,0.722-0.295
			c0.111-0.046,0.102-0.137-0.022-0.219c-0.057-0.037-0.126-0.072-0.197-0.104c-0.687-0.307-1.551-0.352-1.949-0.103
			c-0.456,0.285-0.018,0.842,0.873,1.097c0.55,0.158,1.025,0.172,1.411,0.048c0.147-0.047,0.243-0.117,0.3-0.202
			C36.837,35.271,36.779,35.185,36.656,35.124z"/>
		<path class="st5" d="M40.098,33.071c-0.283-0.16-0.579-0.317-0.874-0.472c-0.203-0.108-0.499-0.113-0.576-0.013
			c-0.049,0.063,0.003,0.143,0.143,0.219c0.27,0.146,0.546,0.291,0.812,0.439c0.267,0.148,0.307,0.336,0.101,0.427
			c-0.216,0.097-0.627,0.055-0.916-0.097c-0.275-0.144-0.542-0.291-0.811-0.436c-0.059-0.031-0.122-0.059-0.197-0.076
			c-0.168-0.041-0.33-0.027-0.398,0.032c-0.067,0.058-0.026,0.149,0.105,0.22c0.143,0.078,0.289,0.156,0.434,0.234l0,0
			c0.031,0.016,0.061,0.033,0.092,0.05c0.147,0.077,0.286,0.159,0.442,0.23c0.65,0.295,1.487,0.351,1.903,0.131
			C40.737,33.756,40.631,33.372,40.098,33.071z"/>
		<path class="st5" d="M41.799,33.272c-0.214-0.115-0.43-0.232-0.645-0.347c-0.056-0.03-0.092-0.035-0.136-0.017
			c-0.085,0.034-0.17,0.069-0.255,0.104c-0.085,0.035-0.17,0.069-0.255,0.104c-0.044,0.018-0.04,0.035,0.016,0.065
			c0.214,0.115,0.43,0.232,0.645,0.347c0.056,0.03,0.092,0.035,0.136,0.017c0.17-0.069,0.34-0.138,0.51-0.207
			C41.859,33.32,41.855,33.304,41.799,33.272z M41.397,33.358c-0.092,0.036-0.258,0.022-0.384-0.031
			c-0.039-0.017-0.044-0.027-0.017-0.038c0.054-0.021,0.107-0.044,0.16-0.066c0.052-0.021,0.102-0.042,0.155-0.063
			c0.035-0.014,0.051-0.011,0.087,0.015C41.492,33.244,41.491,33.321,41.397,33.358z"/>
		<path class="st5" d="M33.877,34.153c0.014-0.003,0.024-0.005,0.033-0.008c0.055-0.02,0.106-0.042,0.163-0.062
			c0.024-0.008,0.025-0.019,0.011-0.036c-0.03-0.036-0.055-0.073-0.085-0.113c0.083,0.019,0.157,0.037,0.232,0.053
			c0.022,0.005,0.051,0.005,0.065,0c0.056-0.018,0.108-0.039,0.16-0.06c0.012-0.005,0.021-0.012,0.034-0.02
			c-0.022-0.006-0.034-0.008-0.047-0.011c-0.143-0.029-0.287-0.059-0.43-0.088c-0.037-0.008-0.054-0.016-0.065-0.035
			c-0.035-0.057-0.072-0.114-0.11-0.171c-0.007-0.012-0.02-0.022-0.038-0.042c-0.06,0.025-0.11,0.046-0.163,0.066
			c-0.022,0.008-0.027,0.017-0.015,0.034c0.022,0.032,0.041,0.064,0.065,0.103c-0.072-0.017-0.132-0.031-0.193-0.048
			c-0.031-0.008-0.053-0.009-0.072-0.001c-0.046,0.019-0.096,0.036-0.143,0.055c-0.015,0.006-0.029,0.014-0.05,0.024
			c0.036,0.009,0.061,0.015,0.087,0.021c0.118,0.025,0.237,0.051,0.356,0.075c0.04,0.008,0.056,0.018,0.067,0.037
			c0.039,0.068,0.081,0.136,0.122,0.204C33.864,34.136,33.869,34.143,33.877,34.153z"/>
		<path class="st5" d="M33.9,33.556c0.056,0.029,0.11,0.059,0.164,0.089c0.149,0.083,0.296,0.165,0.445,0.248
			c0.017,0.009,0.033,0.022,0.056,0.013c0.116-0.047,0.231-0.094,0.347-0.141c0.02-0.008,0.01-0.016-0.011-0.028
			c-0.042-0.022-0.084-0.043-0.123-0.066c-0.036-0.021-0.054-0.02-0.08-0.008c-0.051,0.024-0.107,0.045-0.161,0.067
			c-0.059-0.025-0.061-0.027-0.024-0.043c0.037-0.016,0.075-0.033,0.114-0.048c0.021-0.009,0.021-0.017-0.008-0.031
			c-0.042-0.021-0.08-0.042-0.117-0.063c-0.025-0.014-0.04-0.015-0.059-0.007c-0.048,0.021-0.098,0.04-0.149,0.061
			c-0.02-0.009-0.031-0.014-0.047-0.022c0.053-0.024,0.1-0.049,0.151-0.07c0.026-0.011,0.021-0.021-0.012-0.036
			c-0.043-0.021-0.085-0.043-0.124-0.066c-0.031-0.018-0.047-0.016-0.069-0.007c-0.065,0.028-0.131,0.056-0.198,0.082
			c-0.033,0.013-0.069,0.024-0.103,0.037C33.869,33.527,33.864,33.538,33.9,33.556z"/>
		<path class="st5" d="M34.378,33.386c0.209,0.11,0.416,0.22,0.622,0.331c0.031,0.016,0.05,0.022,0.074,0.01
			c0.098-0.042,0.197-0.082,0.297-0.123c0.017-0.007,0.015-0.014-0.005-0.025c-0.045-0.025-0.092-0.05-0.136-0.075
			c-0.029-0.016-0.048-0.019-0.072-0.009c-0.043,0.019-0.09,0.037-0.138,0.057c-0.021-0.012-0.035-0.019-0.048-0.025
			c-0.137-0.072-0.276-0.144-0.413-0.217c-0.027-0.014-0.046-0.018-0.068-0.009c-0.039,0.018-0.083,0.035-0.125,0.053
			C34.349,33.362,34.348,33.371,34.378,33.386z"/>
		<path class="st5" d="M33.32,34.38c-0.04-0.02-0.077-0.042-0.115-0.062c-0.053-0.029-0.053-0.029-0.098-0.013
			c-0.008,0.003-0.016,0.006-0.026,0.009c-0.037,0.013-0.073,0.027-0.111,0.04c-0.022-0.013-0.039-0.021-0.055-0.03
			c-0.13-0.068-0.262-0.138-0.392-0.206c-0.029-0.015-0.051-0.02-0.074-0.009c-0.042,0.018-0.086,0.036-0.13,0.053
			c-0.019,0.008-0.013,0.015,0.01,0.028c0.209,0.11,0.418,0.219,0.625,0.329c0.035,0.019,0.057,0.021,0.085,0.01
			c0.081-0.033,0.164-0.065,0.246-0.097c0.017-0.007,0.032-0.014,0.048-0.021C33.35,34.404,33.348,34.394,33.32,34.38z"/>
		<path class="st5" d="M42.12,32.999c-0.026,0.034,0.041,0.074,0.039,0.108c-0.072-0.008-0.145-0.038-0.226-0.035
			c0.081,0.044,0.151,0.082,0.221,0.119c0.01,0.005,0.025,0.008,0.037,0.012c-0.007-0.006-0.009-0.015-0.019-0.02
			c-0.05-0.029-0.102-0.055-0.154-0.083c0.002-0.001,0.003-0.003,0.005-0.004c0.059,0.012,0.119,0.024,0.183,0.037
			c-0.018-0.031-0.035-0.061-0.052-0.09c0.06,0.027,0.111,0.055,0.163,0.082c0.011,0.006,0.027,0.009,0.041,0.013
			c0.002-0.002,0.003-0.004,0.005-0.007C42.286,33.088,42.207,33.046,42.12,32.999z"/>
		<path class="st5" d="M42.061,33.22c-0.056-0.03-0.111-0.06-0.164-0.088c0.003-0.018,0.055-0.016,0.037-0.042
			c-0.053,0.021-0.1,0.041-0.147,0.06c0.005,0.003,0.009,0.007,0.013,0.01c0.025-0.006,0.048-0.014,0.073-0.02
			c0.015,0.008,0.026,0.014,0.036,0.02c0.054,0.029,0.107,0.058,0.161,0.087c0.007,0.003,0.019,0.004,0.029,0.006
			c-0.003-0.005-0.003-0.01-0.009-0.014C42.083,33.23,42.072,33.226,42.061,33.22z"/>
		<path class="st5" d="M35.872,33.293c0.019,0.01,0.038,0.021,0.066,0.036c-0.007-0.011-0.01-0.016-0.014-0.021
			c0.016,0.001,0.029,0.002,0.046,0.003C35.902,33.279,35.902,33.279,35.872,33.293z"/>
	</g>
</g>
<g>
	<g>
		<polygon class="st6" points="1.279,33.296 19.57,27.134 37.543,38.579 19.252,44.74 		"/>
		<polygon class="st7" points="1.279,33.296 1.093,34.816 19.065,46.261 19.252,44.74 		"/>
		<polygon points="37.543,38.579 37.356,40.099 19.065,46.261 19.252,44.74 		"/>
		<g>
			<polygon points="8.619,33.985 7.858,34.241 8.606,34.718 9.367,34.461 			"/>
			<polygon points="9.707,33.618 8.946,33.875 9.694,34.351 10.455,34.095 			"/>
			<polygon class="st8" points="10.795,33.252 10.034,33.508 10.782,33.985 11.543,33.728 			"/>
			<polygon class="st8" points="11.883,32.885 11.122,33.142 11.87,33.618 12.631,33.362 			"/>
			<polygon points="12.971,32.519 12.21,32.775 12.958,33.251 13.719,32.995 			"/>
			<polygon points="14.059,32.152 13.298,32.409 14.046,32.885 14.807,32.629 			"/>
			<polygon points="15.147,31.786 14.386,32.042 15.134,32.518 15.895,32.262 			"/>
			<polygon class="st8" points="16.235,31.419 15.474,31.676 16.222,32.152 16.983,31.896 			"/>
			<polygon class="st8" points="17.323,31.053 16.562,31.309 17.31,31.785 18.071,31.529 			"/>
			<polygon points="18.411,30.686 17.65,30.943 18.398,31.419 19.159,31.162 			"/>
			<polygon points="19.5,30.32 18.738,30.576 19.486,31.052 20.247,30.796 			"/>
			<polygon points="20.588,29.953 19.827,30.21 20.574,30.686 21.335,30.429 			"/>
			<polygon points="7.531,34.352 6.77,34.608 7.518,35.084 8.279,34.828 			"/>
			<polygon points="9.682,34.662 8.921,34.918 9.669,35.395 10.43,35.138 			"/>
			<polygon points="10.77,34.296 10.009,34.552 10.757,35.028 11.518,34.772 			"/>
			<polygon class="st8" points="11.858,33.929 11.097,34.185 11.845,34.662 12.606,34.405 			"/>
			<polygon class="st8" points="12.946,33.563 12.185,33.819 12.933,34.295 13.694,34.039 			"/>
			<polygon class="st8" points="14.035,33.196 13.273,33.452 14.021,33.929 14.782,33.672 			"/>
			<polygon class="st8" points="15.123,32.829 14.362,33.086 15.109,33.562 15.87,33.306 			"/>
			<polygon class="st8" points="16.211,32.463 15.45,32.719 16.197,33.195 16.958,32.939 			"/>
			<polygon class="st8" points="17.299,32.096 16.538,32.353 17.285,32.829 18.046,32.573 			"/>
			<polygon class="st8" points="18.387,31.73 17.626,31.986 18.373,32.462 19.135,32.206 			"/>
			<polygon points="19.475,31.363 18.714,31.62 19.462,32.096 20.223,31.84 			"/>
			<polygon points="20.563,30.997 19.802,31.253 20.55,31.729 21.311,31.473 			"/>
			<polygon points="21.651,30.63 20.89,30.887 21.638,31.363 22.399,31.106 			"/>
			<polygon points="8.594,35.029 7.833,35.285 8.581,35.761 9.342,35.505 			"/>
			<polygon points="10.746,35.339 9.985,35.596 10.732,36.072 11.493,35.815 			"/>
			<polygon points="11.834,34.973 11.073,35.229 11.82,35.705 12.581,35.449 			"/>
			<polygon class="st9" points="12.922,34.606 12.161,34.862 12.908,35.339 13.67,35.082 			"/>
			<polygon class="st8" points="14.01,34.24 13.249,34.496 13.997,34.972 14.758,34.716 			"/>
			<polygon class="st8" points="15.098,33.873 14.337,34.129 15.085,34.606 15.846,34.349 			"/>
			<polygon class="st8" points="16.186,33.507 15.425,33.763 16.173,34.239 16.934,33.983 			"/>
			<polygon class="st9" points="17.274,33.14 16.513,33.396 17.261,33.873 18.022,33.616 			"/>
			<polygon class="st8" points="18.362,32.773 17.601,33.03 18.349,33.506 19.11,33.25 			"/>
			<polygon class="st8" points="19.45,32.407 18.689,32.663 19.437,33.139 20.198,32.883 			"/>
			<polygon points="20.538,32.04 19.777,32.297 20.525,32.773 21.286,32.517 			"/>
			<polygon points="21.626,31.674 20.865,31.93 21.613,32.406 22.374,32.15 			"/>
			<polygon points="22.714,31.307 21.953,31.564 22.701,32.04 23.462,31.784 			"/>
			<polygon points="9.658,35.706 8.897,35.962 9.644,36.438 10.405,36.182 			"/>
			<polygon points="11.809,36.016 11.048,36.273 11.796,36.749 12.557,36.492 			"/>
			<polygon points="12.897,35.65 12.136,35.906 12.884,36.382 13.645,36.126 			"/>
			<polygon class="st10" points="13.985,35.283 13.224,35.54 13.972,36.016 14.733,35.759 			"/>
			<polygon class="st10" points="15.073,34.917 14.312,35.173 15.06,35.649 15.821,35.393 			"/>
			<polygon class="st11" points="16.161,34.55 15.4,34.806 16.148,35.283 16.909,35.026 			"/>
			<polygon class="st10" points="17.249,34.184 16.488,34.44 17.236,34.916 17.997,34.66 			"/>
			<polygon class="st10" points="18.337,33.817 17.576,34.073 18.324,34.55 19.085,34.293 			"/>
			<polygon class="st8" points="19.425,33.451 18.664,33.707 19.412,34.183 20.173,33.927 			"/>
			<polygon class="st8" points="20.513,33.084 19.752,33.34 20.5,33.817 21.261,33.56 			"/>
			<polygon points="21.601,32.717 20.84,32.974 21.588,33.45 22.349,33.194 			"/>
			<polygon points="22.689,32.351 21.928,32.607 22.676,33.084 23.437,32.827 			"/>
			<polygon points="23.777,31.984 23.016,32.241 23.764,32.717 24.525,32.461 			"/>
			<polygon points="10.721,36.383 9.96,36.639 10.708,37.115 11.469,36.859 			"/>
			<polygon points="12.872,36.693 12.111,36.95 12.859,37.426 13.62,37.169 			"/>
			<polygon points="13.96,36.327 13.199,36.583 13.947,37.059 14.708,36.803 			"/>
			<polygon class="st10" points="15.048,35.96 14.287,36.217 15.035,36.693 15.796,36.436 			"/>
			<polygon class="st10" points="16.136,35.594 15.375,35.85 16.123,36.326 16.884,36.07 			"/>
			<polygon class="st10" points="17.224,35.227 16.463,35.484 17.211,35.96 17.972,35.703 			"/>
			<polygon class="st10" points="18.312,34.861 17.551,35.117 18.299,35.593 19.06,35.337 			"/>
			<polygon class="st10" points="19.4,34.494 18.639,34.75 19.387,35.227 20.148,34.97 			"/>
			<polygon class="st8" points="20.488,34.128 19.727,34.384 20.475,34.86 21.236,34.604 			"/>
			<polygon class="st8" points="21.577,33.761 20.815,34.017 21.563,34.494 22.324,34.237 			"/>
			<polygon points="22.665,33.395 21.904,33.651 22.651,34.127 23.412,33.871 			"/>
			<polygon points="23.753,33.028 22.992,33.284 23.739,33.761 24.5,33.504 			"/>
			<polygon points="24.841,32.661 24.08,32.918 24.827,33.394 25.588,33.138 			"/>
			<polygon points="11.784,37.06 11.023,37.316 11.771,37.792 12.532,37.536 			"/>
			<polygon points="13.935,37.37 13.174,37.627 13.922,38.103 14.683,37.847 			"/>
			<polygon points="15.023,37.004 14.262,37.26 15.01,37.736 15.771,37.48 			"/>
			<polygon points="16.112,36.637 15.35,36.894 16.098,37.37 16.859,37.113 			"/>
			<polygon class="st11" points="17.2,36.271 16.439,36.527 17.186,37.003 17.947,36.747 			"/>
			<polygon class="st11" points="18.288,35.904 17.527,36.161 18.274,36.637 19.035,36.38 			"/>
			<polygon class="st11" points="19.376,35.538 18.615,35.794 19.362,36.27 20.123,36.014 			"/>
			<polygon class="st11" points="20.464,35.171 19.703,35.428 20.45,35.904 21.212,35.647 			"/>
			<polygon class="st11" points="21.552,34.805 20.791,35.061 21.539,35.537 22.3,35.281 			"/>
			<polygon points="22.64,34.438 21.879,34.694 22.627,35.171 23.388,34.914 			"/>
			<polygon points="23.728,34.072 22.967,34.328 23.715,34.804 24.476,34.548 			"/>
			<polygon points="24.816,33.705 24.055,33.961 24.803,34.438 25.564,34.181 			"/>
			<polygon points="25.904,33.339 25.143,33.595 25.891,34.071 26.652,33.815 			"/>
			<polygon points="12.847,37.737 12.086,37.993 12.834,38.469 13.595,38.213 			"/>
			<polygon points="14.999,38.047 14.238,38.304 14.985,38.78 15.747,38.524 			"/>
			<polygon points="16.087,37.681 15.326,37.937 16.074,38.413 16.835,38.157 			"/>
			<polygon points="17.175,37.314 16.414,37.571 17.162,38.047 17.923,37.791 			"/>
			<polygon class="st12" points="18.263,36.948 17.502,37.204 18.25,37.68 19.011,37.424 			"/>
			<polygon class="st12" points="19.351,36.581 18.59,36.838 19.338,37.314 20.099,37.058 			"/>
			<polygon class="st12" points="20.439,36.215 19.678,36.471 20.426,36.947 21.187,36.691 			"/>
			<polygon class="st12" points="21.527,35.848 20.766,36.105 21.514,36.581 22.275,36.324 			"/>
			<polygon class="st12" points="22.615,35.482 21.854,35.738 22.602,36.214 23.363,35.958 			"/>
			<polygon class="st8" points="23.703,35.115 22.942,35.372 23.69,35.848 24.451,35.591 			"/>
			<polygon points="24.791,34.749 24.03,35.005 24.778,35.481 25.539,35.225 			"/>
			<polygon points="25.879,34.382 25.118,34.639 25.866,35.115 26.627,34.858 			"/>
			<polygon points="26.967,34.016 26.206,34.272 26.954,34.748 27.715,34.492 			"/>
			<polygon points="13.911,38.414 13.15,38.67 13.897,39.147 14.659,38.89 			"/>
			<polygon points="16.062,38.724 15.301,38.981 16.049,39.457 16.81,39.201 			"/>
			<polygon points="17.15,38.358 16.389,38.614 17.137,39.091 17.898,38.834 			"/>
			<polygon class="st8" points="18.238,37.991 17.477,38.248 18.225,38.724 18.986,38.468 			"/>
			<polygon class="st11" points="19.326,37.625 18.565,37.881 19.313,38.357 20.074,38.101 			"/>
			<polygon class="st11" points="20.414,37.258 19.653,37.515 20.401,37.991 21.162,37.735 			"/>
			<polygon class="st11" points="21.502,36.892 20.741,37.148 21.489,37.624 22.25,37.368 			"/>
			<polygon class="st11" points="22.59,36.525 21.829,36.782 22.577,37.258 23.338,37.002 			"/>
			<polygon class="st11" points="23.678,36.159 22.917,36.415 23.665,36.891 24.426,36.635 			"/>
			<polygon class="st8" points="24.766,35.792 24.005,36.049 24.753,36.525 25.514,36.268 			"/>
			<polygon points="25.854,35.426 25.093,35.682 25.841,36.158 26.602,35.902 			"/>
			<polygon points="26.942,35.059 26.181,35.316 26.929,35.792 27.69,35.535 			"/>
			<polygon points="28.03,34.693 27.269,34.949 28.017,35.425 28.778,35.169 			"/>
			<polygon points="14.974,39.091 14.213,39.347 14.961,39.824 15.722,39.567 			"/>
			<polygon points="17.125,39.402 16.364,39.658 17.112,40.134 17.873,39.878 			"/>
			<polygon points="18.213,39.035 17.452,39.291 18.2,39.768 18.961,39.511 			"/>
			<polygon points="19.301,38.668 18.54,38.925 19.288,39.401 20.049,39.145 			"/>
			<polygon class="st12" points="20.389,38.302 19.628,38.558 20.376,39.035 21.137,38.778 			"/>
			<polygon class="st12" points="21.477,37.935 20.716,38.192 21.464,38.668 22.225,38.412 			"/>
			<polygon class="st12" points="22.565,37.569 21.804,37.825 22.552,38.301 23.313,38.045 			"/>
			<polygon class="st12" points="23.654,37.202 22.892,37.459 23.64,37.935 24.401,37.679 			"/>
			<polygon class="st12" points="24.742,36.836 23.981,37.092 24.728,37.568 25.489,37.312 			"/>
			<polygon points="25.83,36.469 25.069,36.726 25.816,37.202 26.577,36.946 			"/>
			<polygon points="26.918,36.103 26.157,36.359 26.904,36.835 27.665,36.579 			"/>
			<polygon points="28.006,35.736 27.245,35.993 27.992,36.469 28.754,36.212 			"/>
			<polygon points="29.094,35.37 28.333,35.626 29.081,36.102 29.842,35.846 			"/>
			<polygon points="16.037,39.768 15.276,40.024 16.024,40.501 16.785,40.244 			"/>
			<polygon points="18.189,40.079 17.427,40.335 18.175,40.811 18.936,40.555 			"/>
			<polygon points="19.277,39.712 18.516,39.968 19.263,40.445 20.024,40.188 			"/>
			<polygon points="20.365,39.346 19.604,39.602 20.351,40.078 21.112,39.822 			"/>
			<polygon class="st11" points="21.453,38.979 20.692,39.235 21.439,39.712 22.201,39.455 			"/>
			<polygon class="st11" points="22.541,38.613 21.78,38.869 22.527,39.345 23.289,39.089 			"/>
			<polygon class="st11" points="23.629,38.246 22.868,38.502 23.616,38.979 24.377,38.722 			"/>
			<polygon class="st11" points="24.717,37.879 23.956,38.136 24.704,38.612 25.465,38.356 			"/>
			<polygon class="st11" points="25.805,37.513 25.044,37.769 25.792,38.245 26.553,37.989 			"/>
			<polygon class="st8" points="26.893,37.146 26.132,37.403 26.88,37.879 27.641,37.623 			"/>
			<polygon class="st8" points="27.981,36.78 27.22,37.036 27.968,37.512 28.729,37.256 			"/>
			<polygon class="st8" points="29.069,36.413 28.308,36.67 29.056,37.146 29.817,36.89 			"/>
			<polygon class="st8" points="30.157,36.047 29.396,36.303 30.144,36.779 30.905,36.523 			"/>
			<polygon points="17.101,40.445 16.339,40.702 17.087,41.178 17.848,40.921 			"/>
			<polygon points="19.252,40.756 18.491,41.012 19.239,41.488 20,41.232 			"/>
			<polygon points="20.34,40.389 19.579,40.646 20.327,41.122 21.088,40.865 			"/>
			<polygon points="21.428,40.023 20.667,40.279 21.415,40.755 22.176,40.499 			"/>
			<polygon class="st12" points="22.516,39.656 21.755,39.912 22.503,40.389 23.264,40.132 			"/>
			<polygon class="st12" points="23.604,39.29 22.843,39.546 23.591,40.022 24.352,39.766 			"/>
			<polygon class="st12" points="24.692,38.923 23.931,39.179 24.679,39.656 25.44,39.399 			"/>
			<polygon class="st12" points="25.78,38.557 25.019,38.813 25.767,39.289 26.528,39.033 			"/>
			<polygon class="st12" points="26.868,38.19 26.107,38.446 26.855,38.923 27.616,38.666 			"/>
			<polygon points="27.956,37.823 27.195,38.08 27.943,38.556 28.704,38.3 			"/>
			<polygon points="29.044,37.457 28.283,37.713 29.031,38.189 29.792,37.933 			"/>
			<polygon points="30.132,37.09 29.371,37.347 30.119,37.823 30.88,37.567 			"/>
			<polygon points="31.22,36.724 30.459,36.98 31.207,37.456 31.968,37.2 			"/>
			<polygon points="18.164,41.122 17.403,41.379 18.151,41.855 18.912,41.598 			"/>
			<polygon points="7.556,33.308 6.795,33.564 7.543,34.041 8.304,33.784 			"/>
			<polygon points="8.644,32.941 7.883,33.198 8.631,33.674 9.392,33.418 			"/>
			<polygon class="st8" points="9.732,32.575 8.971,32.831 9.719,33.307 10.48,33.051 			"/>
			<polygon points="10.82,32.208 10.059,32.465 10.807,32.941 11.568,32.685 			"/>
			<polygon points="11.908,31.842 11.147,32.098 11.895,32.574 12.656,32.318 			"/>
			<polygon points="12.996,31.475 12.235,31.732 12.983,32.208 13.744,31.952 			"/>
			<polygon points="14.084,31.109 13.323,31.365 14.071,31.841 14.832,31.585 			"/>
			<polygon points="15.172,30.742 14.411,30.999 15.159,31.475 15.92,31.218 			"/>
			<polygon class="st8" points="16.26,30.376 15.499,30.632 16.247,31.108 17.008,30.852 			"/>
			<polygon points="17.348,30.009 16.587,30.266 17.335,30.742 18.096,30.485 			"/>
			<polygon points="18.436,29.643 17.675,29.899 18.423,30.375 19.184,30.119 			"/>
			<polygon points="19.524,29.276 18.763,29.533 19.511,30.009 20.272,29.752 			"/>
			<polygon points="5.707,33.931 6.455,34.407 7.216,34.151 6.468,33.674 			"/>
			<polygon points="20.315,41.433 19.554,41.689 20.302,42.165 21.063,41.909 			"/>
			<polygon points="21.403,41.066 20.642,41.323 21.39,41.799 22.151,41.542 			"/>
			<polygon class="st8" points="22.491,40.7 21.73,40.956 22.478,41.432 23.239,41.176 			"/>
			<polygon points="23.579,40.333 22.818,40.59 23.566,41.066 24.327,40.809 			"/>
			<polygon points="24.667,39.967 23.906,40.223 24.654,40.699 25.415,40.443 			"/>
			<polygon points="25.755,39.6 24.994,39.856 25.742,40.333 26.503,40.076 			"/>
			<polygon points="26.843,39.234 26.082,39.49 26.83,39.966 27.591,39.71 			"/>
			<polygon points="27.931,38.867 27.17,39.123 27.918,39.6 28.679,39.343 			"/>
			<polygon class="st8" points="29.019,38.501 28.258,38.757 29.006,39.233 29.767,38.977 			"/>
			<polygon points="30.107,38.134 29.346,38.39 30.094,38.867 30.855,38.61 			"/>
			<polygon points="31.196,37.767 30.434,38.024 31.182,38.5 31.943,38.244 			"/>
			<polygon points="32.284,37.401 31.523,37.657 32.27,38.134 33.031,37.877 			"/>
			<polygon points="19.227,41.799 18.466,42.056 19.214,42.532 19.975,42.275 			"/>
		</g>
	</g>
	<g>
		<polygon class="st13" points="14.012,35.066 13.251,35.322 13.998,35.799 14.76,35.542 		"/>
		<polygon class="st13" points="15.1,34.699 14.339,34.956 15.086,35.432 15.848,35.176 		"/>
		<polygon class="st13" points="18.364,33.6 17.603,33.856 18.351,34.332 19.112,34.076 		"/>
		<polygon class="st13" points="15.075,35.743 14.314,35.999 15.062,36.476 15.823,36.219 		"/>
		<polygon class="st13" points="16.163,35.376 15.402,35.633 16.15,36.109 16.911,35.853 		"/>
		<polygon class="st13" points="17.251,35.01 16.49,35.266 17.238,35.743 17.999,35.486 		"/>
		<polygon class="st13" points="18.339,34.643 17.578,34.9 18.326,35.376 19.087,35.12 		"/>
		<polygon class="st13" points="19.427,34.277 18.666,34.533 19.414,35.009 20.175,34.753 		"/>
		<g>
			<polygon class="st14" points="29.033,39.016 29.006,39.233 29.767,38.977 29.794,38.759 			"/>
			<polygon class="st15" points="28.285,38.54 28.258,38.757 29.006,39.233 29.033,39.016 			"/>
		</g>
		<g>
			<polygon class="st16" points="22.529,40.171 22.503,40.389 23.264,40.132 23.29,39.915 			"/>
			<polygon class="st17" points="21.782,39.695 21.755,39.912 22.503,40.389 22.529,40.171 			"/>
		</g>
		<g>
			<polygon class="st18" points="21.466,39.494 21.439,39.712 22.2,39.455 22.227,39.238 			"/>
			<polygon class="st19" points="20.718,39.018 20.692,39.235 21.439,39.712 21.466,39.494 			"/>
		</g>
		<g>
			<polygon class="st20" points="15.062,36.476 15.035,36.693 15.796,36.436 15.823,36.219 			"/>
			<polygon class="st21" points="14.314,35.999 14.287,36.217 15.035,36.693 15.062,36.476 			"/>
		</g>
		<g>
			<polygon class="st22" points="12.935,35.121 12.908,35.339 13.67,35.082 13.696,34.865 			"/>
			<polygon class="st23" points="12.187,34.645 12.161,34.862 12.908,35.339 12.935,35.121 			"/>
		</g>
		<g>
			<polygon class="st14" points="22.505,41.215 22.478,41.432 23.239,41.176 23.266,40.959 			"/>
			<polygon class="st15" points="21.757,40.739 21.73,40.956 22.478,41.432 22.505,41.215 			"/>
		</g>
		<g>
			<polygon class="st14" points="30.17,36.562 30.144,36.779 30.905,36.523 30.932,36.306 			"/>
			<polygon class="st15" points="29.423,36.086 29.396,36.303 30.144,36.779 30.17,36.562 			"/>
		</g>
		<g>
			<polygon class="st14" points="29.082,36.929 29.056,37.146 29.817,36.89 29.843,36.672 			"/>
			<polygon class="st15" points="28.335,36.452 28.308,36.67 29.056,37.146 29.082,36.929 			"/>
		</g>
		<g>
			<polygon class="st14" points="27.994,37.295 27.968,37.512 28.729,37.256 28.755,37.039 			"/>
			<polygon class="st15" points="27.247,36.819 27.22,37.036 27.968,37.512 27.994,37.295 			"/>
		</g>
		<g>
			<polygon class="st14" points="26.906,37.662 26.88,37.879 27.641,37.623 27.667,37.405 			"/>
			<polygon class="st15" points="26.159,37.186 26.132,37.403 26.88,37.879 26.906,37.662 			"/>
		</g>
		<g>
			<polygon class="st14" points="21.59,34.276 21.563,34.494 22.324,34.237 22.351,34.02 			"/>
			<polygon class="st15" points="20.842,33.8 20.815,34.017 21.563,34.494 21.59,34.276 			"/>
		</g>
		<g>
			<polygon class="st14" points="20.502,34.643 20.475,34.86 21.236,34.604 21.263,34.387 			"/>
			<polygon class="st15" points="19.754,34.167 19.727,34.384 20.475,34.86 20.502,34.643 			"/>
		</g>
		<g>
			<polygon class="st14" points="20.527,33.599 20.5,33.817 21.261,33.56 21.288,33.343 			"/>
			<polygon class="st15" points="19.779,33.123 19.752,33.34 20.5,33.817 20.527,33.599 			"/>
		</g>
		<g>
			<polygon class="st14" points="19.439,33.966 19.412,34.183 20.173,33.927 20.2,33.709 			"/>
			<polygon class="st15" points="18.691,33.49 18.664,33.707 19.412,34.183 19.439,33.966 			"/>
		</g>
		<g>
			<polygon class="st14" points="19.463,32.922 19.437,33.139 20.198,32.883 20.224,32.666 			"/>
			<polygon class="st15" points="18.716,32.446 18.689,32.663 19.437,33.139 19.463,32.922 			"/>
		</g>
		<g>
			<polygon class="st14" points="18.375,33.289 18.349,33.506 19.11,33.25 19.136,33.032 			"/>
			<polygon class="st15" points="17.628,32.813 17.601,33.03 18.349,33.506 18.375,33.289 			"/>
		</g>
		<g>
			<polygon class="st14" points="18.4,32.245 18.373,32.462 19.135,32.206 19.161,31.989 			"/>
			<polygon class="st15" points="17.652,31.769 17.626,31.986 18.373,32.462 18.4,32.245 			"/>
		</g>
		<g>
			<polygon class="st14" points="17.312,32.612 17.285,32.829 18.046,32.573 18.073,32.355 			"/>
			<polygon class="st15" points="16.564,32.136 16.538,32.353 17.285,32.829 17.312,32.612 			"/>
		</g>
		<g>
			<polygon class="st14" points="17.331,31.613 17.305,31.83 18.066,31.574 18.092,31.356 			"/>
			<polygon class="st15" points="16.584,31.137 16.557,31.354 17.305,31.83 17.331,31.613 			"/>
		</g>
		<g>
			<polygon class="st14" points="16.243,31.979 16.217,32.197 16.978,31.94 17.004,31.723 			"/>
			<polygon class="st15" points="15.496,31.503 15.469,31.72 16.217,32.197 16.243,31.979 			"/>
		</g>
		<g>
			<polygon class="st14" points="16.268,30.936 16.241,31.153 17.002,30.897 17.029,30.679 			"/>
			<polygon class="st15" points="15.52,30.46 15.494,30.677 16.241,31.153 16.268,30.936 			"/>
		</g>
		<g>
			<polygon class="st14" points="24.78,36.308 24.753,36.525 25.514,36.268 25.541,36.051 			"/>
			<polygon class="st15" points="24.032,35.831 24.005,36.049 24.753,36.525 24.78,36.308 			"/>
		</g>
		<g>
			<polygon class="st14" points="23.717,35.631 23.69,35.848 24.451,35.591 24.478,35.374 			"/>
			<polygon class="st15" points="22.969,35.154 22.942,35.372 23.69,35.848 23.717,35.631 			"/>
		</g>
		<g>
			<polygon class="st14" points="18.252,38.507 18.225,38.724 18.986,38.468 19.013,38.25 			"/>
			<polygon class="st15" points="17.504,38.031 17.477,38.248 18.225,38.724 18.252,38.507 			"/>
		</g>
		<g>
			<polygon class="st14" points="16.224,32.978 16.197,33.195 16.958,32.939 16.985,32.722 			"/>
			<polygon class="st15" points="15.476,32.502 15.45,32.719 16.197,33.195 16.224,32.978 			"/>
		</g>
		<g>
			<polygon class="st14" points="16.199,34.022 16.173,34.239 16.934,33.983 16.96,33.765 			"/>
			<polygon class="st15" points="15.451,33.546 15.425,33.763 16.173,34.239 16.199,34.022 			"/>
		</g>
		<g>
			<polygon class="st14" points="15.111,34.388 15.085,34.606 15.846,34.349 15.872,34.132 			"/>
			<polygon class="st15" points="14.363,33.912 14.337,34.129 15.085,34.606 15.111,34.388 			"/>
		</g>
		<g>
			<polygon class="st14" points="15.136,33.345 15.109,33.562 15.87,33.306 15.897,33.088 			"/>
			<polygon class="st15" points="14.388,32.869 14.362,33.086 15.109,33.562 15.136,33.345 			"/>
		</g>
		<g>
			<polygon class="st14" points="14.048,33.711 14.021,33.929 14.782,33.672 14.809,33.455 			"/>
			<polygon class="st15" points="13.3,33.235 13.273,33.452 14.021,33.929 14.048,33.711 			"/>
		</g>
		<g>
			<polygon class="st14" points="14.023,34.755 13.997,34.972 14.758,34.716 14.784,34.499 			"/>
			<polygon class="st15" points="13.275,34.279 13.249,34.496 13.997,34.972 14.023,34.755 			"/>
		</g>
		<g>
			<polygon class="st14" points="12.96,34.078 12.933,34.295 13.694,34.039 13.721,33.821 			"/>
			<polygon class="st15" points="12.212,33.602 12.185,33.819 12.933,34.295 12.96,34.078 			"/>
		</g>
		<g>
			<polygon class="st14" points="11.872,34.444 11.845,34.662 12.606,34.405 12.633,34.188 			"/>
			<polygon class="st15" points="11.124,33.968 11.097,34.185 11.845,34.662 11.872,34.444 			"/>
		</g>
		<g>
			<polygon class="st14" points="11.897,33.401 11.87,33.618 12.631,33.362 12.658,33.144 			"/>
			<polygon class="st15" points="11.149,32.925 11.122,33.142 11.87,33.618 11.897,33.401 			"/>
		</g>
		<g>
			<polygon class="st14" points="10.809,33.767 10.782,33.985 11.543,33.728 11.57,33.511 			"/>
			<polygon class="st15" points="10.061,33.291 10.034,33.508 10.782,33.985 10.809,33.767 			"/>
		</g>
		<g>
			<polygon class="st14" points="9.745,33.09 9.719,33.307 10.48,33.051 10.506,32.834 			"/>
			<polygon class="st15" points="8.998,32.614 8.971,32.831 9.719,33.307 9.745,33.09 			"/>
		</g>
		<g>
			<polygon class="st22" points="17.287,33.655 17.261,33.873 18.022,33.616 18.048,33.399 			"/>
			<polygon class="st23" points="16.54,33.179 16.513,33.396 17.261,33.873 17.287,33.655 			"/>
		</g>
		<g>
			<polygon class="st20" points="13.998,35.799 13.972,36.016 14.733,35.759 14.759,35.542 			"/>
			<polygon class="st21" points="13.251,35.322 13.224,35.54 13.972,36.016 13.998,35.799 			"/>
		</g>
		<g>
			<polygon class="st20" points="16.15,36.109 16.123,36.326 16.884,36.07 16.911,35.853 			"/>
			<polygon class="st21" points="15.402,35.633 15.375,35.85 16.123,36.326 16.15,36.109 			"/>
		</g>
		<g>
			<polygon class="st20" points="15.086,35.432 15.06,35.649 15.821,35.393 15.848,35.176 			"/>
			<polygon class="st21" points="14.339,34.956 14.312,35.173 15.06,35.649 15.086,35.432 			"/>
		</g>
		<g>
			<polygon class="st20" points="18.326,35.376 18.299,35.593 19.06,35.337 19.087,35.12 			"/>
			<polygon class="st21" points="17.578,34.9 17.551,35.117 18.299,35.593 18.326,35.376 			"/>
		</g>
		<g>
			<polygon class="st20" points="17.263,34.699 17.236,34.916 17.997,34.66 18.024,34.443 			"/>
			<polygon class="st21" points="16.515,34.223 16.488,34.44 17.236,34.916 17.263,34.699 			"/>
		</g>
		<g>
			<polygon class="st20" points="19.414,35.009 19.387,35.227 20.148,34.97 20.175,34.753 			"/>
			<polygon class="st21" points="18.666,34.533 18.639,34.75 19.387,35.227 19.414,35.009 			"/>
		</g>
		<g>
			<polygon class="st20" points="18.351,34.332 18.324,34.55 19.085,34.293 19.112,34.076 			"/>
			<polygon class="st21" points="17.603,33.856 17.576,34.073 18.324,34.55 18.351,34.332 			"/>
		</g>
		<g>
			<polygon class="st20" points="17.238,35.743 17.211,35.96 17.972,35.703 17.999,35.486 			"/>
			<polygon class="st21" points="16.49,35.266 16.463,35.484 17.211,35.96 17.238,35.743 			"/>
		</g>
		<g>
			<polygon class="st16" points="23.613,39.804 23.586,40.022 24.347,39.765 24.374,39.548 			"/>
			<polygon class="st17" points="22.865,39.328 22.838,39.545 23.586,40.022 23.613,39.804 			"/>
		</g>
		<g>
			<polygon class="st16" points="24.701,39.438 24.674,39.655 25.435,39.399 25.462,39.181 			"/>
			<polygon class="st17" points="23.953,38.962 23.926,39.179 24.674,39.655 24.701,39.438 			"/>
		</g>
		<g>
			<polygon class="st16" points="25.789,39.071 25.762,39.289 26.523,39.032 26.55,38.815 			"/>
			<polygon class="st17" points="25.041,38.595 25.015,38.812 25.762,39.289 25.789,39.071 			"/>
		</g>
		<g>
			<polygon class="st16" points="26.877,38.705 26.85,38.922 27.611,38.666 27.638,38.448 			"/>
			<polygon class="st17" points="26.129,38.229 26.103,38.446 26.85,38.922 26.877,38.705 			"/>
		</g>
		<g>
			<polygon class="st16" points="20.403,38.817 20.376,39.035 21.137,38.778 21.164,38.561 			"/>
			<polygon class="st17" points="19.655,38.341 19.628,38.558 20.376,39.035 20.403,38.817 			"/>
		</g>
		<g>
			<polygon class="st16" points="21.486,38.45 21.46,38.667 22.221,38.411 22.247,38.194 			"/>
			<polygon class="st17" points="20.739,37.974 20.712,38.191 21.46,38.667 21.486,38.45 			"/>
		</g>
		<g>
			<polygon class="st16" points="22.574,38.084 22.548,38.301 23.309,38.045 23.335,37.827 			"/>
			<polygon class="st17" points="21.827,37.608 21.8,37.825 22.548,38.301 22.574,38.084 			"/>
		</g>
		<g>
			<polygon class="st16" points="23.662,37.717 23.636,37.934 24.397,37.678 24.424,37.461 			"/>
			<polygon class="st17" points="22.915,37.241 22.888,37.458 23.636,37.934 23.662,37.717 			"/>
		</g>
		<g>
			<polygon class="st16" points="24.751,37.351 24.724,37.568 25.485,37.311 25.512,37.094 			"/>
			<polygon class="st17" points="24.003,36.874 23.976,37.092 24.724,37.568 24.751,37.351 			"/>
		</g>
		<g>
			<polygon class="st16" points="18.276,37.463 18.25,37.68 19.011,37.424 19.037,37.207 			"/>
			<polygon class="st17" points="17.528,36.987 17.502,37.204 18.25,37.68 18.276,37.463 			"/>
		</g>
		<g>
			<polygon class="st16" points="19.36,37.096 19.333,37.313 20.094,37.057 20.121,36.84 			"/>
			<polygon class="st17" points="18.612,36.62 18.585,36.837 19.333,37.313 19.36,37.096 			"/>
		</g>
		<g>
			<polygon class="st16" points="20.448,36.73 20.421,36.947 21.182,36.69 21.209,36.473 			"/>
			<polygon class="st17" points="19.7,36.253 19.673,36.471 20.421,36.947 20.448,36.73 			"/>
		</g>
		<g>
			<polygon class="st16" points="21.536,36.363 21.509,36.58 22.27,36.324 22.297,36.107 			"/>
			<polygon class="st17" points="20.788,35.887 20.761,36.104 21.509,36.58 21.536,36.363 			"/>
		</g>
		<g>
			<polygon class="st16" points="22.624,35.997 22.597,36.214 23.358,35.957 23.385,35.74 			"/>
			<polygon class="st17" points="21.876,35.52 21.849,35.738 22.597,36.214 22.624,35.997 			"/>
		</g>
		<g>
			<polygon class="st18" points="16.175,35.065 16.148,35.283 16.909,35.026 16.936,34.809 			"/>
			<polygon class="st19" points="15.427,34.589 15.4,34.806 16.148,35.283 16.175,35.065 			"/>
		</g>
		<g>
			<polygon class="st18" points="22.554,39.128 22.527,39.345 23.289,39.089 23.315,38.871 			"/>
			<polygon class="st19" points="21.806,38.652 21.78,38.869 22.527,39.345 22.554,39.128 			"/>
		</g>
		<g>
			<polygon class="st18" points="23.642,38.761 23.616,38.979 24.377,38.722 24.403,38.505 			"/>
			<polygon class="st19" points="22.894,38.285 22.868,38.502 23.616,38.979 23.642,38.761 			"/>
		</g>
		<g>
			<polygon class="st18" points="24.73,38.395 24.704,38.612 25.465,38.356 25.491,38.138 			"/>
			<polygon class="st19" points="23.982,37.919 23.956,38.136 24.704,38.612 24.73,38.395 			"/>
		</g>
		<g>
			<polygon class="st18" points="25.818,38.028 25.792,38.245 26.553,37.989 26.579,37.772 			"/>
			<polygon class="st19" points="25.07,37.552 25.044,37.769 25.792,38.245 25.818,38.028 			"/>
		</g>
		<g>
			<polygon class="st18" points="19.34,38.14 19.313,38.357 20.074,38.101 20.101,37.884 			"/>
			<polygon class="st19" points="18.592,37.664 18.565,37.881 19.313,38.357 19.34,38.14 			"/>
		</g>
		<g>
			<polygon class="st18" points="20.428,37.774 20.401,37.991 21.162,37.735 21.189,37.517 			"/>
			<polygon class="st19" points="19.68,37.298 19.653,37.515 20.401,37.991 20.428,37.774 			"/>
		</g>
		<g>
			<polygon class="st18" points="21.516,37.407 21.489,37.624 22.25,37.368 22.277,37.151 			"/>
			<polygon class="st19" points="20.768,36.931 20.741,37.148 21.489,37.624 21.516,37.407 			"/>
		</g>
		<g>
			<polygon class="st18" points="22.604,37.041 22.577,37.258 23.338,37.002 23.365,36.784 			"/>
			<polygon class="st19" points="21.856,36.564 21.829,36.782 22.577,37.258 22.604,37.041 			"/>
		</g>
		<g>
			<polygon class="st18" points="23.692,36.674 23.665,36.891 24.426,36.635 24.453,36.418 			"/>
			<polygon class="st19" points="22.944,36.198 22.917,36.415 23.665,36.891 23.692,36.674 			"/>
		</g>
		<g>
			<polygon class="st18" points="17.213,36.786 17.186,37.003 17.947,36.747 17.974,36.53 			"/>
			<polygon class="st19" points="16.465,36.31 16.439,36.527 17.186,37.003 17.213,36.786 			"/>
		</g>
		<g>
			<polygon class="st18" points="18.301,36.42 18.274,36.637 19.035,36.38 19.062,36.163 			"/>
			<polygon class="st19" points="17.553,35.943 17.527,36.161 18.274,36.637 18.301,36.42 			"/>
		</g>
		<g>
			<polygon class="st18" points="19.389,36.053 19.362,36.27 20.123,36.014 20.15,35.797 			"/>
			<polygon class="st19" points="18.641,35.577 18.615,35.794 19.362,36.27 19.389,36.053 			"/>
		</g>
		<g>
			<polygon class="st18" points="20.477,35.687 20.45,35.904 21.212,35.647 21.238,35.43 			"/>
			<polygon class="st19" points="19.729,35.21 19.703,35.428 20.45,35.904 20.477,35.687 			"/>
		</g>
		<g>
			<polygon class="st18" points="21.565,35.32 21.539,35.537 22.3,35.281 22.326,35.064 			"/>
			<polygon class="st19" points="20.817,34.844 20.791,35.061 21.539,35.537 21.565,35.32 			"/>
		</g>
		<g>
			<polygon class="st24" points="12.187,34.645 12.935,35.121 13.696,34.865 12.948,34.389 			"/>
			<polygon class="st24" points="17.301,32.923 16.54,33.179 17.287,33.655 18.048,33.399 			"/>
		</g>
		<polygon class="st13" points="17.276,33.966 16.515,34.223 17.263,34.699 18.024,34.443 		"/>
		<g>
			<polygon class="st25" points="15.427,34.589 16.175,35.065 16.936,34.809 16.188,34.333 			"/>
			<polygon class="st25" points="17.226,36.054 16.465,36.31 17.213,36.786 17.974,36.53 			"/>
			<polygon class="st25" points="17.553,35.943 18.301,36.42 19.062,36.163 18.314,35.687 			"/>
			<polygon class="st25" points="20.15,35.797 19.402,35.32 18.641,35.577 19.389,36.053 			"/>
			<polygon class="st25" points="21.238,35.43 20.49,34.954 19.729,35.21 20.477,35.687 			"/>
			<polygon class="st25" points="21.565,35.32 22.326,35.064 21.578,34.587 20.817,34.844 			"/>
			<polygon class="st25" points="19.353,37.408 18.592,37.664 19.34,38.14 20.101,37.884 			"/>
			<polygon class="st25" points="19.68,37.298 20.428,37.774 21.189,37.517 20.441,37.041 			"/>
			<polygon class="st25" points="21.529,36.675 20.768,36.931 21.516,37.407 22.277,37.151 			"/>
			<polygon class="st25" points="23.365,36.784 22.617,36.308 21.856,36.564 22.604,37.041 			"/>
			<polygon class="st25" points="23.692,36.674 24.453,36.418 23.705,35.942 22.944,36.198 			"/>
			<polygon class="st25" points="21.479,38.762 20.718,39.018 21.466,39.494 22.227,39.238 			"/>
			<polygon class="st25" points="21.806,38.652 22.554,39.128 23.315,38.871 22.567,38.395 			"/>
			<polygon class="st25" points="22.894,38.285 23.642,38.761 24.403,38.505 23.655,38.029 			"/>
			<polygon class="st25" points="23.982,37.919 24.73,38.395 25.491,38.138 24.743,37.662 			"/>
			<polygon class="st25" points="25.07,37.552 25.818,38.028 26.579,37.772 25.832,37.296 			"/>
		</g>
		<g>
			<polygon class="st26" points="17.528,36.987 18.276,37.463 19.037,37.207 18.29,36.731 			"/>
			<polygon class="st26" points="18.617,36.62 19.364,37.097 20.125,36.84 19.378,36.364 			"/>
			<polygon class="st26" points="21.213,36.474 20.466,35.998 19.705,36.254 20.452,36.73 			"/>
			<polygon class="st26" points="22.301,36.107 21.554,35.631 20.793,35.887 21.54,36.364 			"/>
			<polygon class="st26" points="22.628,35.997 23.39,35.741 22.642,35.264 21.881,35.521 			"/>
			<polygon class="st26" points="20.416,38.085 19.655,38.341 20.403,38.817 21.164,38.561 			"/>
			<polygon class="st26" points="20.743,37.975 21.491,38.451 22.252,38.194 21.504,37.718 			"/>
			<polygon class="st26" points="22.592,37.352 21.831,37.608 22.579,38.084 23.34,37.828 			"/>
			<polygon class="st26" points="24.428,37.461 23.68,36.985 22.919,37.242 23.667,37.718 			"/>
			<polygon class="st26" points="24.755,37.351 25.516,37.095 24.768,36.619 24.007,36.875 			"/>
			<polygon class="st26" points="22.543,39.439 21.782,39.695 22.529,40.171 23.29,39.915 			"/>
			<polygon class="st26" points="22.87,39.329 23.617,39.805 24.379,39.549 23.631,39.072 			"/>
			<polygon class="st26" points="23.958,38.962 24.706,39.438 25.467,39.182 24.719,38.706 			"/>
			<polygon class="st26" points="25.046,38.596 25.794,39.072 26.555,38.815 25.807,38.339 			"/>
			<polygon class="st26" points="26.134,38.229 26.882,38.705 27.643,38.449 26.895,37.973 			"/>
		</g>
		<g>
			<polygon class="st27" points="10.822,33.035 10.061,33.291 10.809,33.767 11.57,33.511 			"/>
			<polygon class="st27" points="11.897,33.401 12.658,33.144 11.91,32.668 11.149,32.925 			"/>
			<polygon class="st27" points="15.496,31.503 16.243,31.979 17.004,31.723 16.257,31.247 			"/>
			<polygon class="st27" points="17.331,31.613 18.092,31.356 17.345,30.88 16.584,31.137 			"/>
			<polygon class="st27" points="11.885,33.712 11.124,33.968 11.872,34.444 12.633,34.188 			"/>
			<polygon class="st27" points="12.212,33.602 12.96,34.078 13.721,33.821 12.973,33.345 			"/>
			<polygon class="st27" points="14.809,33.455 14.061,32.979 13.3,33.235 14.048,33.711 			"/>
			<polygon class="st27" points="15.897,33.088 15.149,32.612 14.388,32.869 15.136,33.345 			"/>
			<polygon class="st27" points="16.985,32.722 16.237,32.246 15.476,32.502 16.224,32.978 			"/>
			<polygon class="st27" points="16.564,32.136 17.312,32.612 18.073,32.355 17.325,31.879 			"/>
			<polygon class="st27" points="18.4,32.245 19.161,31.989 18.413,31.513 17.652,31.769 			"/>
			<polygon class="st27" points="14.036,34.022 13.275,34.279 14.023,34.755 14.784,34.499 			"/>
			<polygon class="st27" points="14.363,33.912 15.111,34.388 15.872,34.132 15.124,33.656 			"/>
			<polygon class="st27" points="15.451,33.546 16.199,34.022 16.96,33.765 16.213,33.289 			"/>
			<polygon class="st27" points="18.389,32.556 17.628,32.813 18.375,33.289 19.136,33.032 			"/>
			<polygon class="st27" points="19.463,32.922 20.224,32.666 19.477,32.19 18.716,32.446 			"/>
			<polygon class="st27" points="20.2,33.709 19.452,33.233 18.691,33.49 19.439,33.966 			"/>
			<polygon class="st27" points="20.527,33.599 21.288,33.343 20.54,32.867 19.779,33.123 			"/>
			<polygon class="st27" points="20.515,33.91 19.754,34.167 20.502,34.643 21.263,34.387 			"/>
			<polygon class="st27" points="20.842,33.8 21.59,34.276 22.351,34.02 21.603,33.544 			"/>
			<polygon class="st27" points="23.717,35.631 24.478,35.374 23.73,34.898 22.969,35.154 			"/>
			<polygon class="st27" points="18.265,37.774 17.504,38.031 18.252,38.507 19.013,38.25 			"/>
			<polygon class="st27" points="24.793,35.575 24.032,35.831 24.78,36.308 25.541,36.051 			"/>
			<polygon class="st27" points="26.92,36.929 26.159,37.186 26.906,37.662 27.667,37.405 			"/>
			<polygon class="st27" points="27.247,36.819 27.994,37.295 28.755,37.039 28.008,36.563 			"/>
			<polygon class="st27" points="29.843,36.672 29.096,36.196 28.335,36.452 29.082,36.929 			"/>
			<polygon class="st27" points="29.423,36.086 30.17,36.562 30.932,36.306 30.184,35.83 			"/>
			<polygon class="st27" points="8.998,32.614 9.745,33.09 10.506,32.834 9.759,32.358 			"/>
			<polygon class="st27" points="16.268,30.936 17.029,30.679 16.281,30.203 15.52,30.46 			"/>
			<polygon class="st27" points="22.518,40.482 21.757,40.739 22.505,41.215 23.266,40.959 			"/>
			<polygon class="st27" points="29.046,38.283 28.285,38.54 29.033,39.016 29.794,38.759 			"/>
		</g>
	</g>
</g>
<path class="st28" d="M1.846,38.628l14.522-4.935c1.094-0.371,2.538-0.431,3.21-0.132l16.567,7.373
	c0.672,0.299,0.326,0.847-0.768,1.219l-14.522,4.935c-1.094,0.371-2.538,0.431-3.21,0.132L1.078,39.847
	C0.407,39.549,0.752,39,1.846,38.628z"/>
</svg>
