<?xml version="1.0" encoding="utf-8"?>
<!-- Generator: Adobe Illustrator 25.4.1, SVG Export Plug-In . SVG Version: 6.00 Build 0)  -->
<svg version="1.1" xmlns="http://www.w3.org/2000/svg" xmlns:xlink="http://www.w3.org/1999/xlink" x="0px" y="0px"
	 viewBox="0 0 50 50" style="enable-background:new 0 0 50 50;" xml:space="preserve">
<style type="text/css">
	.st0{display:none;}
	.st1{display:inline;}
	.st2{fill:#344593;}
	.st3{fill:#3E54A3;}
	.st4{fill:#2E4490;}
	.st5{fill:#122571;}
	.st6{opacity:0.5;fill:#031F60;enable-background:new    ;}
	.st7{fill:#BBDFFF;}
	.st8{fill:#FDB724;}
	.st9{fill:#E7478D;}
	.st10{fill:#BF2878;}
	.st11{fill:#27DEBF;}
	.st12{fill:#1BBC9D;}
	.st13{fill:#A33D64;}
	.st14{fill:#82294D;}
	.st15{fill:#0A4A80;}
	.st16{fill:#F1FCFF;}
	.st17{fill:#D6E6FF;}
	.st18{fill:#CEF3FF;}
	.st19{fill:#606060;}
	.st20{enable-background:new    ;}
	.st21{fill:#F19729;}
	.st22{fill:#FCB040;}
	.st23{fill:#FFCB49;}
	.st24{fill:#2E5677;}
	.st25{fill:#FF51CE;}
	.st26{fill:#EDE6A0;}
	.st27{fill:#FFF7B0;}
	.st28{fill:url(#SVGID_1_);}
	.st29{fill:url(#SVGID_00000073716370690253755110000000835481362292190356_);}
	.st30{fill:#F4F4F4;}
	.st31{fill:#CECECE;}
	.st32{fill:#EA5353;}
	.st33{fill:#FF6464;}
	.st34{fill:#438BE3;stroke:#438BE3;stroke-width:0.1342;stroke-miterlimit:10;}
	.st35{fill:#FFFFFF;}
	.st36{fill:#FFF543;}
	.st37{fill:#232323;}
	.st38{fill:#0C0C0C;}
	.st39{fill:#61BC0A;}
	.st40{fill:none;stroke:#FFFFC0;stroke-width:0.2144;stroke-miterlimit:10;}
	.st41{fill:#0F0F0F;}
	.st42{fill:#1E1E1E;}
</style>
<g id="Example" class="st0">
	<g class="st1">
		<g id="XMLID_4903_">
			<path id="XMLID_4905_" class="st2" d="M45.3,33.2v-4.6l0,0c0-0.9-0.6-1.8-1.7-2.4c-2.3-1.3-6-1.3-8.4,0c-1.2,0.7-1.7,1.6-1.7,2.4
				l0,0v4.5c0,0.9,0.6,1.8,1.7,2.4c2.3,1.3,6,1.3,8.4,0C44.8,34.9,45.3,34.1,45.3,33.2L45.3,33.2L45.3,33.2L45.3,33.2z"/>
			<path id="XMLID_4904_" class="st2" d="M45.3,33.2v-4.6l0,0c0-0.9-0.6-1.8-1.7-2.4c-2.3-1.3-6-1.3-8.4,0c-1.2,0.7-1.7,1.6-1.7,2.4
				l0,0v4.5c0,0.9,0.6,1.8,1.7,2.4c2.3,1.3,6,1.3,8.4,0C44.8,34.9,45.3,34.1,45.3,33.2L45.3,33.2L45.3,33.2L45.3,33.2z"/>
		</g>
		<polygon id="XMLID_4900_" class="st3" points="39.4,23 29.7,28.6 39.4,34.2 49.2,28.6 		"/>
		<path id="XMLID_4899_" class="st4" d="M44.3,31.4l-4.8-2.7c-0.1,0-0.2,0-0.2,0.1s0,0.2,0.1,0.2l4.6,2.6L44.3,31.4z"/>
		<polygon id="XMLID_4896_" class="st5" points="29.7,28.6 29.7,29 39.4,34.6 39.4,34.2 		"/>
		<polygon id="XMLID_4883_" class="st4" points="49.2,28.6 49.2,29 39.4,34.6 39.4,34.2 		"/>
		<polygon id="XMLID_4876_" class="st6" points="33.5,31.2 39.4,35.2 45.3,31.2 39.4,34.6 		"/>
		<g id="XMLID_4823_">
			<path id="XMLID_4835_" class="st7" d="M44.7,36.2c-0.1,0-0.2-0.1-0.2-0.2v-4c0-0.2-0.1-0.4-0.3-0.4l-4.9-2.8
				c-0.1,0-0.1-0.2-0.1-0.2c0-0.1,0.2-0.1,0.2-0.1l4.9,2.8c0.3,0.2,0.4,0.4,0.4,0.7v4C44.8,36.1,44.7,36.2,44.7,36.2z"/>
		</g>
		<path class="st8" d="M45.3,39.3L45,36.6c0.1-0.1,0.1-0.2,0-0.2l0,0l0,0l0,0v-0.1l0,0l0,0l0,0c0-0.2-0.2-0.4-0.4-0.4c0,0,0,0-0.1,0
			l0,0l0,0c0,0,0,0-0.1,0c0,0,0,0-0.1,0c0,0,0,0-0.1,0c0,0,0,0,0,0.1l0,0v0.1c0,0.1,0,0.2,0.1,0.3l0,0c-0.1,0.1,0,0.2,0,0.2L44,39.3
			c0,0.1,0.1,0.2,0.3,0.3l0,0h0.1l0,0c0.1,0,0.2,0.1,0.3,0.1l0,0l0,0l0,0l0,0l0,0c0.1,0,0.2,0,0.3-0.1l0,0h0.1l0,0
			C45.3,39.5,45.3,39.4,45.3,39.3z"/>
	</g>
	<g id="XMLID_3738_" class="st1">
		<path id="XMLID_4404_" class="st9" d="M12.4,36.1c1.1-0.8,1.8-2.7,1.7-4c-0.1-1.4-1.2-2-1.7-2.3l0,0c-1.1-0.6-2.8-0.6-3.9,0l0,0
			C8,30.1,7,30.7,6.8,32.1c-0.1,1.3,0.6,3.2,1.7,4l0,0c0.1,0,0.1,0.1,0.2,0.1c1,0.6,2.6,0.6,3.6,0l0,0
			C12.3,36.2,12.4,36.1,12.4,36.1L12.4,36.1z"/>
		<path id="XMLID_4395_" class="st10" d="M9.9,30.8c-0.3,0.2-0.3,0.4,0,0.6s0.8,0.2,1.1,0s0.3-0.4,0-0.6
			C10.7,30.6,10.2,30.6,9.9,30.8z"/>
		<g id="XMLID_4426_">
			<path id="XMLID_2198_" class="st11" d="M10.5,31.2c0,0-0.9,0-1.4-0.7s0-1.9,0-1.9s1.1,0.1,1.7,1C11.2,30.4,10.5,31.2,10.5,31.2z"
				/>
			<path id="XMLID_4431_" class="st12" d="M9,30.5c0.5,0.7,1.4,0.7,1.4,0.7C10.3,29.6,9,28.6,9,28.6S8.5,29.8,9,30.5z"/>
		</g>
		<path id="XMLID_4403_" class="st13" d="M10.5,31.2c0,0,0-1.3,0.7-1.9s1.2-0.6,1.2-0.6c0.4,0,0.9,0.4,0.7,0.4c0,0-0.9,0-1.5,0.5
			s-0.9,1.5-0.9,1.6c0,0,0,0.1-0.1,0.1C10.5,31.3,10.5,31.2,10.5,31.2z"/>
		<path id="XMLID_4496_" class="st14" d="M12.4,28.7c-0.1,0-0.1,0.1,0.2,0.3c0.2,0.1,0.4,0.2,0.5,0.2l0,0
			C13.3,29,12.8,28.7,12.4,28.7z"/>
	</g>
	<g class="st1">
		<g>
			<path class="st15" d="M26,28.8L26,28.8c-1,0.6-1.9,1-2.8,1.2l0,0c0,0,0,0-0.1,0l-0.5,0.2h-0.1c-0.1,0-0.2,0.1-0.3,0.1h-0.1
				c-0.1,0-0.2,0.1-0.2,0.1h-0.1c-0.5,0.2-0.9,0.4-1.4,0.7c-0.1,0.1-0.2,0.1-0.3,0.2L20,31.4c-0.4,0.3-2,1.5-2.9,2.5l-0.6,0.6
				L16,34.6c-1,0.2-2,0.5-3,1.1c-0.1,0.1-0.2,0.1-0.3,0.2c-0.3,0.2-0.5,0.3-0.8,0.5l0,0l-0.1,0.1c-0.1,0.1-0.2,0.1-0.3,0.2l0,0l0,0
				c-0.4,0.3-0.9,0.7-1.3,1.1c-0.1,0.1-0.2,0.2-0.3,0.3c-0.3,0.3-0.7,0.6-1,0.9H8.8c-0.3,0.3-0.7,0.5-1,0.8
				c-0.2,0.2-0.5,0.3-0.7,0.5H7l13.7,8.3h0.1c0.8-0.5,1.7-1.2,2.5-1.9c0.5-0.5,1.1-0.9,1.7-1.4c1.2-0.9,2.3-1.5,3.2-1.8
				c0.7-0.3,1.4-0.5,2.1-0.6l0.5-0.6c0.7-0.7,1.5-1.3,2.4-1.8c1.5-1,3.2-1.8,4.9-2.5c0.6-0.2,1.2-0.5,1.6-0.7l0.2-0.1L26,28.8z"/>
			<g>
				<g>
					<g>
						<path class="st16" d="M39.1,36.7c-0.5,0.3-0.7,0.4-1.2,0.6c-0.3,0.1-0.5,0.2-0.8,0.3c-0.2,0.1-0.3,0.1-0.5,0.1
							c-0.7,0.2-1.4,0.4-2,0.8c-0.2,0.1-0.4,0.2-0.6,0.3c-1.3,0.8-2.6,2-3.9,3.5l-2.5-1.5l-11-6.7c1.3-1.5,2.6-2.7,3.9-3.5
							c0.2-0.1,0.4-0.2,0.6-0.3c0.7-0.4,1.4-0.6,2-0.8c0.2,0,0.3-0.1,0.5-0.1c0.3-0.1,0.5-0.2,0.8-0.3c0.5-0.2,0.7-0.3,1.2-0.6
							L39.1,36.7z"/>
						<g>
							<path class="st16" d="M30.1,42.3c-1.3,0.1-2.6,0.5-3.9,1.3c-0.2,0.1-0.4,0.2-0.6,0.4c-0.7,0.5-1.4,1-2,1.7
								c-0.2,0.2-0.3,0.3-0.5,0.4c-0.3,0.3-0.6,0.5-0.9,0.7c-0.5,0.4-0.8,0.6-1.3,0.9L7.5,39.5C8,39.2,8.3,39,8.8,38.6
								c0.3-0.2,0.6-0.5,0.9-0.7c0.2-0.1,0.3-0.3,0.5-0.4c0.7-0.6,1.4-1.2,2-1.7c0.2-0.1,0.4-0.3,0.6-0.4c1.3-0.8,2.6-1.2,3.9-1.3
								l11,6.7L30.1,42.3z"/>
						</g>
					</g>
					<polygon class="st17" points="7.5,39.5 7.3,40.3 20.7,48.5 20.9,47.7 					"/>
					<path class="st18" d="M39.4,37.1c-0.9,0.6-1.8,1-2.7,1.2c0,0,0,0-0.1,0s-0.2,0-0.3,0.1c-0.1,0-0.2,0.1-0.3,0.1
						s-0.2,0.1-0.3,0.1c-0.6,0.2-1.2,0.5-1.8,0.9c-0.1,0.1-0.2,0.1-0.3,0.2c-1,0.7-2,1.5-3,2.5L30,42.8l-0.6,0.1c-1,0.2-2,0.5-3,1.1
						c-0.1,0.1-0.2,0.1-0.3,0.2c-0.3,0.2-0.5,0.3-0.8,0.5c-0.6,0.4-1.1,0.9-1.7,1.4c-0.1,0.1-0.2,0.2-0.3,0.3
						c-0.9,0.9-1.8,1.6-2.7,2.2l0.2-0.8c0.5-0.3,0.8-0.5,1.3-0.9c0.3-0.2,0.6-0.5,0.9-0.7c0.2-0.1,0.3-0.3,0.5-0.4
						c0.7-0.6,1.4-1.2,2-1.7c0.2-0.1,0.4-0.3,0.6-0.4c1.3-0.8,2.6-1.2,3.9-1.3c1.3-1.5,2.6-2.7,3.9-3.5c0.2-0.1,0.4-0.2,0.6-0.3
						c0.7-0.4,1.4-0.6,2-0.8c0.2,0,0.3-0.1,0.5-0.1c0.3-0.1,0.5-0.2,0.8-0.3c0.5-0.2,0.7-0.3,1.2-0.6L39.4,37.1z"/>
				</g>
			</g>
			<g>
				<path class="st19" d="M17.8,34.6C17.9,34.6,17.9,34.6,17.8,34.6c1.2-1.4,2.5-2.5,3.7-3.2c0.2-0.1,0.4-0.2,0.5-0.3
					c0.7-0.3,1.3-0.6,2-0.8c0.2,0,0.3-0.1,0.5-0.1c0.3-0.1,0.5-0.2,0.8-0.3c0.4-0.2,0.7-0.3,1.1-0.5c0,0,0,0,0-0.1s0,0-0.1,0
					c-0.4,0.2-0.6,0.3-1,0.5c-0.3,0.1-0.5,0.2-0.8,0.3c-0.2,0.1-0.3,0.1-0.5,0.1c-0.7,0.2-1.3,0.4-2,0.8c-0.2,0.1-0.4,0.2-0.6,0.3
					C20.3,32.1,19,33.2,17.8,34.6C17.8,34.5,17.8,34.6,17.8,34.6L17.8,34.6z"/>
				<path class="st19" d="M25.4,30.6c-0.2,0.1-0.3,0.1-0.5,0.1c-0.7,0.2-1.3,0.4-2,0.8c-0.2,0.1-0.4,0.2-0.6,0.3
					c-1.2,0.7-2.5,1.8-3.7,3.2v0.1l0,0l0,0c1.2-1.4,2.5-2.5,3.7-3.2c0.2-0.1,0.4-0.2,0.6-0.3c0.7-0.4,1.3-0.6,2-0.8
					C25.1,30.8,25.3,30.7,25.4,30.6c0.3,0,0.6-0.1,0.8-0.2c0.4-0.2,0.6-0.3,1-0.5c0,0,0,0,0-0.1c0,0,0,0-0.1,0
					c-0.4,0.2-0.6,0.3-1,0.5C25.9,30.4,25.7,30.5,25.4,30.6z"/>
				<path class="st19" d="M26.2,31.1c-0.2,0.1-0.3,0.1-0.5,0.1c-0.7,0.2-1.3,0.4-2,0.8c-0.2,0.1-0.4,0.2-0.6,0.3
					c-1.2,0.7-2.5,1.8-3.7,3.2v0.1l0,0l0,0c1.2-1.4,2.5-2.5,3.7-3.2c0.2-0.1,0.4-0.2,0.6-0.3c0.7-0.4,1.4-0.6,2-0.8
					C25.9,31.3,26.1,31.2,26.2,31.1c0.3,0,0.6-0.1,0.8-0.2c0.4-0.2,0.6-0.3,1-0.5c0,0,0,0,0-0.1c0,0,0,0-0.1,0
					c-0.4,0.2-0.6,0.3-1,0.5C26.8,30.9,26.5,31,26.2,31.1z"/>
				<path class="st19" d="M27.1,31.5c-0.2,0.1-0.3,0.1-0.5,0.1c-0.7,0.2-1.3,0.4-2,0.8c-0.2,0.1-0.4,0.2-0.6,0.3
					c-1.2,0.7-2.5,1.8-3.7,3.2V36l0,0l0,0c1.2-1.4,2.5-2.5,3.7-3.2c0.2-0.1,0.4-0.2,0.6-0.3c0.7-0.4,1.4-0.6,2-0.8
					C26.7,31.7,26.9,31.7,27.1,31.5c0.3,0,0.6-0.1,0.8-0.2c0.4-0.2,0.6-0.3,1-0.5c0,0,0,0,0-0.1c0,0,0,0-0.1,0
					c-0.4,0.2-0.6,0.3-1,0.5C27.6,31.4,27.3,31.5,27.1,31.5z"/>
				<path class="st19" d="M27.9,32c-0.2,0.1-0.3,0.1-0.5,0.1c-0.7,0.2-1.4,0.4-2,0.8c-0.2,0.1-0.4,0.2-0.6,0.3
					c-1.2,0.7-2.5,1.9-3.7,3.2v0.1l0,0l0,0c1.2-1.4,2.5-2.5,3.7-3.2c0.2-0.1,0.4-0.2,0.6-0.3c0.7-0.4,1.4-0.6,2-0.8
					C27.6,32.2,27.8,32.2,27.9,32c0.3,0,0.6-0.1,0.8-0.2c0.4-0.2,0.6-0.3,1-0.5c0,0,0,0,0-0.1c0,0,0,0-0.1,0c-0.4,0.2-0.6,0.3-1,0.5
					C28.4,31.8,28.1,31.9,27.9,32z"/>
				<path class="st19" d="M28.7,32.5c-0.2,0.1-0.3,0.1-0.5,0.1c-0.7,0.2-1.4,0.4-2,0.8c-0.2,0.1-0.4,0.2-0.6,0.3
					c-1.2,0.7-2.5,1.9-3.7,3.2V37l0,0l0,0c1.2-1.4,2.5-2.5,3.7-3.2c0.2-0.1,0.4-0.2,0.6-0.3c0.7-0.4,1.4-0.6,2-0.8
					C28.4,32.7,28.6,32.6,28.7,32.5c0.3,0,0.6-0.1,0.8-0.2c0.4-0.2,0.6-0.3,1-0.5c0,0,0,0,0-0.1c0,0,0,0-0.1,0
					c-0.3,0.2-0.6,0.3-0.9,0.5C29.2,32.3,29,32.4,28.7,32.5z"/>
				<path class="st19" d="M29.6,33c-0.2,0.1-0.3,0.1-0.5,0.1c-0.7,0.2-1.4,0.4-2.1,0.8c-0.2,0.1-0.4,0.2-0.6,0.3
					c-1.2,0.7-2.5,1.9-3.8,3.3v0.1l0,0l0,0c1.2-1.4,2.5-2.5,3.7-3.2c0.2-0.1,0.4-0.2,0.6-0.3c0.7-0.4,1.4-0.6,2-0.8
					C29.2,33.2,29.4,33.1,29.6,33c0.3,0,0.6-0.1,0.8-0.2c0.4-0.2,0.6-0.3,0.9-0.5c0,0,0,0,0-0.1c0,0,0,0-0.1,0
					c-0.3,0.2-0.5,0.3-0.9,0.4C30.1,32.8,29.8,32.9,29.6,33z"/>
				<path class="st19" d="M30.4,33.5c-0.2,0.1-0.3,0.1-0.5,0.1c-0.7,0.2-1.4,0.4-2.1,0.8c-0.2,0.1-0.4,0.2-0.6,0.3
					c-1.2,0.7-2.5,1.9-3.8,3.3v0.1l0,0l0,0c1.2-1.4,2.5-2.5,3.7-3.2c0.2-0.1,0.4-0.2,0.6-0.3c0.7-0.4,1.4-0.6,2-0.8
					C30.1,33.7,30.2,33.6,30.4,33.5c0.3,0,0.5-0.1,0.8-0.2c0.4-0.2,0.6-0.3,0.9-0.4c0,0,0,0,0-0.1c0,0,0,0-0.1,0
					c-0.3,0.2-0.5,0.3-0.9,0.4C30.9,33.3,30.6,33.4,30.4,33.5z"/>
				<path class="st19" d="M31.2,33.9C31,34,30.9,34,30.7,34.1c-0.7,0.2-1.4,0.4-2.1,0.8c-0.2,0.1-0.4,0.2-0.6,0.3
					c-1.2,0.7-2.5,1.9-3.8,3.3v0.1l0,0l0,0c1.2-1.4,2.5-2.5,3.8-3.3c0.2-0.1,0.4-0.2,0.6-0.3c0.7-0.4,1.4-0.6,2-0.8
					C30.9,34.1,31.1,34.1,31.2,33.9c0.3,0,0.5-0.1,0.8-0.2c0.4-0.2,0.6-0.2,0.9-0.4c0,0,0,0,0-0.1c0,0,0,0-0.1,0
					c-0.3,0.2-0.5,0.3-0.9,0.4C31.7,33.8,31.5,33.9,31.2,33.9z"/>
				<path class="st19" d="M32,34.4c-0.2,0.1-0.3,0.1-0.5,0.1c-0.7,0.2-1.4,0.4-2.1,0.8c-0.2,0.1-0.4,0.2-0.6,0.3
					c-1.2,0.7-2.6,1.9-3.8,3.3V39l0,0l0,0c1.2-1.4,2.5-2.5,3.8-3.3c0.2-0.1,0.4-0.2,0.6-0.3c0.7-0.4,1.4-0.6,2-0.8
					C31.7,34.6,31.9,34.6,32,34.4c0.3,0,0.5-0.1,0.8-0.2c0.4-0.2,0.6-0.2,0.9-0.4c0,0,0,0,0-0.1c0,0,0,0-0.1,0
					c-0.3,0.2-0.5,0.3-0.9,0.4C32.6,34.2,32.3,34.3,32,34.4z"/>
				<path class="st19" d="M32.9,34.9C32.7,35,32.6,35,32.4,35c-0.7,0.2-1.4,0.4-2.1,0.8c-0.2,0.1-0.4,0.2-0.6,0.3
					c-1.2,0.8-2.6,1.9-3.8,3.3v0.1l0,0l0,0c1.2-1.4,2.5-2.5,3.8-3.3c0.2-0.1,0.4-0.2,0.6-0.3c0.7-0.4,1.4-0.6,2.1-0.8
					C32.6,35.1,32.7,35,32.9,34.9c0.3,0,0.5-0.1,0.8-0.2c0.3-0.1,0.6-0.2,0.9-0.4c0,0,0,0,0-0.1c0,0,0,0-0.1,0
					c-0.3,0.2-0.5,0.3-0.8,0.4C33.4,34.7,33.1,34.8,32.9,34.9z"/>
				<path class="st19" d="M33.7,35.4c-0.2,0.1-0.3,0.1-0.5,0.1c-0.7,0.2-1.4,0.4-2.1,0.8c-0.2,0.1-0.4,0.2-0.6,0.3
					c-1.2,0.8-2.6,1.9-3.8,3.3V40l0,0l0,0c1.2-1.4,2.6-2.5,3.8-3.3c0.2-0.1,0.4-0.2,0.6-0.3c0.7-0.4,1.4-0.6,2.1-0.8
					C33.4,35.6,33.6,35.5,33.7,35.4c0.3,0,0.5-0.1,0.8-0.2c0.3-0.1,0.5-0.2,0.8-0.4c0,0,0,0,0-0.1c0,0,0,0-0.1,0
					c-0.3,0.2-0.5,0.3-0.8,0.4C34.2,35.2,34,35.3,33.7,35.4z"/>
				<path class="st19" d="M34.5,35.8c-0.2,0.1-0.3,0.1-0.5,0.1c-0.7,0.2-1.4,0.4-2.1,0.8c-0.2,0.1-0.4,0.2-0.6,0.3
					c-1.3,0.8-2.6,1.9-3.8,3.3v0.1l0,0l0,0c1.2-1.4,2.6-2.6,3.8-3.3c0.2-0.1,0.4-0.2,0.6-0.3c0.7-0.4,1.4-0.6,2.1-0.8
					C34.2,36,34.4,36,34.5,35.8c0.3,0,0.5-0.1,0.8-0.2c0.3-0.1,0.5-0.2,0.8-0.4c0,0,0,0,0-0.1c0,0,0,0-0.1,0
					c-0.3,0.2-0.5,0.2-0.8,0.4C35,35.7,34.8,35.8,34.5,35.8z"/>
				<path class="st19" d="M35.4,36.3c-0.2,0.1-0.3,0.1-0.5,0.1c-0.7,0.2-1.4,0.4-2.1,0.8c-0.2,0.1-0.4,0.2-0.6,0.3
					c-1.3,0.8-2.6,1.9-3.8,3.3v0.1l0,0l0,0c1.3-1.4,2.6-2.6,3.8-3.3c0.2-0.1,0.4-0.2,0.6-0.3c0.7-0.4,1.4-0.6,2.1-0.8
					C35.1,36.5,35.2,36.5,35.4,36.3c0.3,0,0.5-0.1,0.8-0.2c0.3-0.1,0.5-0.2,0.8-0.4c0,0,0,0,0-0.1c0,0,0,0-0.1,0
					c-0.2,0.1-0.4,0.2-0.8,0.4C35.9,36.2,35.6,36.2,35.4,36.3z"/>
				<path class="st19" d="M37.7,36.2c-0.3,0.1-0.5,0.2-0.8,0.4c-0.3,0.1-0.5,0.2-0.8,0.3C35.9,37,35.8,37,35.6,37
					c-0.7,0.2-1.4,0.4-2.1,0.8c-0.2,0.1-0.4,0.2-0.6,0.3c-1.3,0.8-2.6,1.9-3.9,3.3v0.1l0,0l0,0c1.3-1.4,2.6-2.6,3.8-3.3
					c0.2-0.1,0.4-0.2,0.6-0.3c0.7-0.4,1.4-0.6,2.1-0.8c0.2,0,0.3-0.1,0.5-0.1c0.2-0.1,0.5-0.2,0.8-0.3
					C37.3,36.5,37.5,36.4,37.7,36.2C37.8,36.3,37.8,36.2,37.7,36.2C37.8,36.2,37.7,36.2,37.7,36.2z"/>
				<path class="st19" d="M10.6,38.6c0.2-0.1,0.3-0.3,0.5-0.4c0.7-0.6,1.3-1.2,2-1.7c0.2-0.1,0.4-0.2,0.6-0.4
					c1.2-0.7,2.5-1.2,3.7-1.3c0,0,0,0,0-0.1c0,0,0,0-0.1,0c-1.2,0.1-2.5,0.5-3.7,1.3c-0.2,0.1-0.4,0.2-0.6,0.4c-0.7,0.5-1.4,1-2,1.7
					C10.9,38.3,10.7,38.4,10.6,38.6c-0.4,0.2-0.7,0.4-0.9,0.7c-0.4,0.3-0.7,0.5-1,0.7c0,0,0,0,0,0.1l0,0l0,0c0.3-0.2,0.6-0.4,1-0.7
					S10.3,38.9,10.6,38.6z"/>
				<path class="st19" d="M11.5,39.1c0.2-0.1,0.3-0.3,0.5-0.4c0.7-0.6,1.3-1.2,2-1.7c0.2-0.1,0.4-0.2,0.6-0.4
					c1.2-0.7,2.5-1.2,3.7-1.2c0,0,0,0,0-0.1c0,0,0-0.1-0.1,0c-1.2,0.1-2.5,0.5-3.7,1.3c-0.2,0.1-0.4,0.2-0.6,0.4
					c-0.7,0.5-1.4,1-2,1.7C11.7,38.8,11.6,38.9,11.5,39.1c-0.4,0.2-0.7,0.4-0.9,0.7c-0.4,0.3-0.7,0.5-1,0.7c0,0,0,0,0,0.1l0,0l0,0
					c0.3-0.2,0.6-0.4,1-0.7C10.9,39.6,11.2,39.4,11.5,39.1z"/>
				<path class="st19" d="M12.3,39.6c0.2-0.1,0.3-0.3,0.5-0.4c0.7-0.6,1.3-1.2,2-1.7c0.2-0.1,0.4-0.3,0.6-0.4
					c1.2-0.7,2.4-1.2,3.6-1.2c0,0,0,0,0-0.1s0,0-0.1,0c-1.2,0.1-2.5,0.5-3.7,1.3c-0.2,0.1-0.4,0.2-0.6,0.4c-0.7,0.5-1.4,1-2,1.7
					C12.5,39.2,12.4,39.4,12.3,39.6c-0.4,0.2-0.7,0.4-0.9,0.7c-0.4,0.3-0.7,0.5-1,0.7c0,0,0,0,0,0.1l0,0l0,0c0.3-0.2,0.6-0.4,1-0.7
					C11.7,40.1,12,39.9,12.3,39.6z"/>
				<path class="st19" d="M13.1,40.1c0.2-0.1,0.3-0.3,0.5-0.4c0.7-0.6,1.3-1.2,2-1.7c0.2-0.1,0.4-0.3,0.6-0.4
					c1.2-0.7,2.4-1.1,3.6-1.2c0,0,0,0,0-0.1c0,0,0,0-0.1,0c-1.2,0.1-2.4,0.5-3.6,1.3c-0.2,0.1-0.4,0.2-0.6,0.4c-0.7,0.5-1.4,1-2,1.7
					C13.3,39.7,13.2,39.9,13.1,40.1c-0.4,0.2-0.6,0.4-0.9,0.7c-0.4,0.3-0.7,0.5-1,0.7c0,0,0,0,0,0.1l0,0l0,0c0.3-0.2,0.6-0.4,1-0.7
					C12.5,40.6,12.8,40.4,13.1,40.1z"/>
				<path class="st19" d="M13.9,40.6c0.2-0.1,0.3-0.3,0.5-0.4c0.7-0.6,1.3-1.2,2-1.7c0.2-0.1,0.4-0.3,0.6-0.4
					c1.2-0.7,2.4-1.1,3.6-1.2c0,0,0,0,0-0.1c0,0,0,0-0.1,0c-1.2,0.1-2.4,0.5-3.6,1.3c-0.2,0.1-0.4,0.2-0.6,0.4c-0.7,0.5-1.4,1-2,1.7
					C14.2,40.2,14,40.4,13.9,40.6c-0.4,0.2-0.6,0.4-0.9,0.7c-0.4,0.3-0.7,0.5-1,0.7c0,0,0,0,0,0.1l0,0l0,0c0.3-0.2,0.6-0.4,1-0.7
					C13.3,41.1,13.6,40.8,13.9,40.6z"/>
				<path class="st19" d="M14.7,41.1c0.2-0.1,0.3-0.3,0.5-0.4c0.7-0.6,1.3-1.2,2-1.7c0.2-0.1,0.4-0.3,0.6-0.4
					c1.2-0.7,2.4-1.1,3.5-1.2c0,0,0,0,0-0.1c0,0,0,0-0.1,0c-1.2,0.1-2.4,0.6-3.6,1.3c-0.2,0.1-0.4,0.2-0.6,0.4c-0.7,0.5-1.4,1-2,1.7
					C15,40.7,14.8,40.8,14.7,41.1c-0.4,0.2-0.6,0.4-0.9,0.7c-0.4,0.3-0.7,0.5-1,0.7c0,0,0,0,0,0.1l0,0l0,0c0.3-0.2,0.6-0.4,1-0.7
					S14.4,41.3,14.7,41.1z"/>
				<path class="st19" d="M15.6,41.5c0.2-0.1,0.3-0.3,0.5-0.4c0.7-0.6,1.3-1.2,2-1.7c0.2-0.1,0.4-0.3,0.6-0.4
					c1.1-0.7,2.4-1.1,3.5-1.2c0,0,0,0,0-0.1s0,0-0.1,0c-1.2,0.1-2.4,0.6-3.5,1.3c-0.2,0.1-0.4,0.2-0.6,0.4c-0.7,0.5-1.4,1-2,1.7
					C15.8,41.2,15.6,41.3,15.6,41.5c-0.4,0.2-0.6,0.4-0.9,0.7c-0.4,0.3-0.7,0.5-1,0.7c0,0,0,0,0,0.1l0,0l0,0c0.3-0.2,0.6-0.4,1-0.7
					C15,42.1,15.3,41.8,15.6,41.5z"/>
				<path class="st19" d="M16.4,42c0.2-0.1,0.3-0.3,0.5-0.4c0.7-0.6,1.3-1.2,2-1.7c0.2-0.1,0.4-0.3,0.6-0.4c1.1-0.7,2.3-1.1,3.5-1.2
					c0,0,0,0,0-0.1s0,0-0.1,0c-1.2,0.1-2.4,0.6-3.5,1.3c-0.2,0.1-0.4,0.2-0.6,0.4c-0.7,0.5-1.4,1-2.1,1.7
					C16.6,41.7,16.5,41.8,16.4,42c-0.4,0.2-0.6,0.4-0.9,0.7c-0.4,0.3-0.7,0.5-1,0.7c0,0,0,0,0,0.1l0,0l0,0c0.3-0.2,0.6-0.4,1.1-0.7
					C15.8,42.5,16.1,42.3,16.4,42z"/>
				<path class="st19" d="M17.2,42.5c0.2-0.1,0.3-0.3,0.5-0.4c0.7-0.6,1.4-1.2,2-1.7c0.2-0.1,0.4-0.3,0.6-0.4
					c1.1-0.7,2.3-1.1,3.4-1.2c0,0,0,0,0-0.1s0,0-0.1,0c-1.1,0.1-2.3,0.6-3.5,1.3c-0.2,0.1-0.4,0.2-0.6,0.4c-0.7,0.5-1.4,1-2.1,1.7
					C17.4,42.2,17.3,42.3,17.2,42.5c-0.4,0.2-0.6,0.4-0.9,0.6c-0.4,0.3-0.7,0.5-1.1,0.7c0,0,0,0,0,0.1l0,0l0,0
					c0.3-0.2,0.6-0.4,1.1-0.8C16.6,43,16.9,42.8,17.2,42.5z"/>
				<path class="st19" d="M18,43c0.2-0.1,0.3-0.3,0.5-0.4c0.7-0.6,1.4-1.2,2-1.7c0.2-0.1,0.4-0.3,0.6-0.4c1.1-0.7,2.3-1.1,3.4-1.2
					c0,0,0,0,0-0.1s0,0-0.1,0c-1.1,0.1-2.3,0.6-3.5,1.3c-0.2,0.1-0.4,0.2-0.6,0.4c-0.7,0.5-1.4,1.1-2.1,1.7
					C18.3,42.6,18.1,42.8,18,43c-0.4,0.2-0.6,0.4-0.9,0.6c-0.4,0.3-0.7,0.6-1.1,0.8c0,0,0,0,0,0.1l0,0l0,0c0.3-0.2,0.7-0.4,1.1-0.8
					C17.4,43.5,17.7,43.3,18,43z"/>
				<path class="st19" d="M18.8,43.5c0.2-0.1,0.3-0.3,0.5-0.4c0.7-0.6,1.4-1.2,2-1.7c0.2-0.1,0.4-0.3,0.6-0.4
					c1.1-0.7,2.3-1.1,3.4-1.2c0,0,0,0,0-0.1c0,0,0,0-0.1,0c-1.1,0.1-2.3,0.6-3.4,1.3c-0.2,0.1-0.4,0.2-0.6,0.4
					c-0.7,0.5-1.4,1.1-2.1,1.7C19.1,43.1,18.9,43.3,18.8,43.5c-0.4,0.2-0.6,0.4-0.9,0.6c-0.4,0.3-0.7,0.6-1.1,0.8c0,0,0,0,0,0.1l0,0
					l0,0c0.3-0.2,0.7-0.4,1.1-0.8C18.3,44,18.5,43.7,18.8,43.5z"/>
				<path class="st19" d="M19.6,44c0.2-0.1,0.3-0.3,0.5-0.4c0.7-0.6,1.4-1.2,2.1-1.7c0.2-0.1,0.4-0.3,0.6-0.4
					c1.1-0.7,2.3-1.1,3.4-1.2c0,0,0,0,0-0.1c0,0,0,0-0.1,0c-1.1,0.2-2.3,0.6-3.4,1.3c-0.2,0.1-0.4,0.2-0.6,0.4
					c-0.7,0.5-1.4,1.1-2.1,1.7C19.9,43.6,19.7,43.8,19.6,44c-0.4,0.2-0.6,0.4-0.9,0.6c-0.4,0.3-0.8,0.6-1.1,0.8c0,0,0,0,0,0.1l0,0
					l0,0c0.3-0.2,0.7-0.4,1.1-0.8C19.1,44.5,19.4,44.2,19.6,44z"/>
				<path class="st19" d="M20.5,44.5c0.2-0.1,0.3-0.3,0.5-0.4c0.7-0.6,1.4-1.2,2.1-1.7c0.2-0.1,0.4-0.3,0.6-0.4
					c1.1-0.7,2.2-1.1,3.3-1.2c0,0,0,0,0-0.1c0,0,0,0-0.1,0c-1.1,0.2-2.3,0.6-3.4,1.3c-0.2,0.1-0.4,0.2-0.6,0.4
					c-0.7,0.5-1.4,1.1-2.1,1.7C20.7,44.1,20.5,44.2,20.5,44.5c-0.4,0.2-0.6,0.4-0.9,0.6c-0.4,0.3-0.8,0.6-1.1,0.8c0,0,0,0,0,0.1l0,0
					l0,0c0.3-0.2,0.7-0.4,1.1-0.8C19.9,45,20.2,44.7,20.5,44.5z"/>
				<path class="st19" d="M21.3,44.9c0.2-0.1,0.3-0.3,0.5-0.4c0.7-0.7,1.4-1.2,2.1-1.7c0.2-0.1,0.4-0.3,0.6-0.4
					c1.1-0.6,2.2-1.1,3.3-1.2c0,0,0,0,0-0.1c0,0,0,0-0.1,0c-1.1,0.2-2.3,0.6-3.3,1.3c-0.2,0.1-0.4,0.2-0.6,0.4
					c-0.7,0.5-1.4,1.1-2.1,1.7C21.5,44.6,21.4,44.7,21.3,44.9c-0.4,0.2-0.6,0.4-0.9,0.6c-0.4,0.3-0.8,0.6-1.1,0.8c0,0,0,0,0,0.1l0,0
					l0,0c0.4-0.2,0.7-0.4,1.1-0.8C20.7,45.4,21,45.2,21.3,44.9z"/>
				<path class="st19" d="M25.2,42.8c-0.2,0.1-0.4,0.2-0.6,0.4c-0.7,0.5-1.4,1.1-2.1,1.7c-0.2,0.1-0.3,0.3-0.5,0.4
					c-0.3,0.3-0.6,0.5-0.9,0.7c-0.4,0.3-0.8,0.6-1.1,0.8c0,0,0,0,0,0.1l0,0l0,0c0.4-0.2,0.7-0.4,1.1-0.8c0.3-0.2,0.6-0.5,0.9-0.7
					c0.2-0.1,0.3-0.3,0.5-0.4c0.7-0.7,1.4-1.2,2.1-1.7C24.8,43.2,25,43,25.2,42.8c1.1-0.6,2.2-1,3.3-1.2c0,0,0,0,0-0.1
					c0,0,0,0-0.1,0C27.4,41.7,26.2,42.2,25.2,42.8z"/>
			</g>
		</g>
		<g>
			<g>
				<g>
					<g>
						<g class="st20">
							<g>
								<path class="st21" d="M29.1,41.9l-7.9-4.6l-0.1-0.1L29.1,41.9L29.1,41.9z"/>
							</g>
							<g>
								<path class="st22" d="M29.2,41.6c-0.1,0.1-0.1,0.1-0.1,0.2l-7.9-4.6l0.1-0.2L29.2,41.6z"/>
							</g>
							<g>
								<path class="st23" d="M29.4,41.5h-0.1c0,0-0.1,0-0.1,0.1l-8-4.6l0.2-0.1L29.4,41.5z"/>
							</g>
						</g>
					</g>
					<g>
						<polygon class="st24" points="30.3,42.2 30.3,42.3 30.3,42.3 30.3,42.3 30.2,42.3 30.3,42.3 						"/>
					</g>
					<path d="M30.3,42.2L30,42l0,0c0,0,0,0-0.1,0l-0.1,0.1l0,0L30.3,42.2C30.3,42.3,30.3,42.3,30.3,42.2
						C30.3,42.3,30.3,42.3,30.3,42.2z"/>
					<path class="st25" d="M21.7,37h-0.1l-0.1,0.1c0,0.1-0.1,0.1-0.1,0.2v0.1L21,37.1c0,0-0.1,0-0.1-0.1s0-0.1,0.1-0.2
						c0-0.1,0.1-0.1,0.1-0.1h0.1l0,0L21.7,37z"/>
					<path class="st26" d="M29.4,41.5L29.4,41.5L29.4,41.5z"/>
				</g>
				<path class="st27" d="M29.4,41.5L29.4,41.5L29.4,41.5c-0.1,0-0.2,0-0.2,0s0,0,0,0.1l0,0c0,0-0.1,0.1-0.1,0.2l0,0v0.1l0,0
					l0.8,0.3l0,0c0,0,0-0.1,0.1-0.1c0,0,0,0,0.1,0L29.4,41.5z"/>
			</g>
			
				<linearGradient id="SVGID_1_" gradientUnits="userSpaceOnUse" x1="21.7732" y1="2095.1643" x2="21.5925" y2="2095.4897" gradientTransform="matrix(1 0 0 1 0 -2058)">
				<stop  offset="0" style="stop-color:#78ACED"/>
				<stop  offset="1" style="stop-color:#4F7BB3"/>
			</linearGradient>
			<path class="st28" d="M22.1,37.3L22.1,37.3L22.1,37.3L21.7,37l0,0l0,0h-0.1l0,0h-0.1c-0.1,0-0.1,0.1-0.1,0.1
				c0,0.1-0.1,0.1-0.1,0.2c0,0,0,0.1,0.1,0.1h0.1l0,0l0,0l0.3,0.2l0,0l0,0l0.1,0.1l0,0l0,0l0,0c0,0,0,0,0-0.1l0,0v-0.1l0,0l0.1-0.1
				l0,0C22,37.3,22,37.2,22.1,37.3L22.1,37.3L22.1,37.3L22.1,37.3L22.1,37.3z"/>
		</g>
	</g>
</g>
<g id="Layer_2">
	
		<radialGradient id="SVGID_00000109731382593343545590000013127448054359686285_" cx="-610.6739" cy="3582.2295" r="15.9017" gradientTransform="matrix(1.5353 0 0 0.4819 962.5676 -1684.7764)" gradientUnits="userSpaceOnUse">
		<stop  offset="0.4351" style="stop-color:#B4BCC1"/>
		<stop  offset="0.94" style="stop-color:#ECEEEF;stop-opacity:0"/>
	</radialGradient>
	<ellipse style="fill:url(#SVGID_00000109731382593343545590000013127448054359686285_);" cx="25" cy="41.5" rx="24.4" ry="7.7"/>
	<g>
		<g>
			<polygon class="st30" points="38.661,37.197 26.419,44.266 26.419,43.627 38.661,36.56 			"/>
			<polygon class="st31" points="38.661,36.672 26.419,43.74 26.419,43.627 38.661,36.56 			"/>
			<polygon class="st31" points="38.661,36.935 26.419,44.003 26.419,43.89 38.661,36.822 			"/>
			<polygon class="st31" points="38.661,37.197 26.419,44.266 26.419,44.153 38.661,37.085 			"/>
			<polygon class="st32" points="26.419,43.627 26.419,44.266 9.593,34.551 9.593,33.913 			"/>
			<polygon class="st33" points="38.661,36.56 26.419,43.627 9.593,33.913 21.835,26.845 			"/>
			<polygon class="st34" points="21.835,27.692 11.061,33.913 26.419,42.779 37.192,36.56 			"/>
			<g>
				<polygon class="st35" points="19.441,35.414 16.849,36.909 16.712,36.83 19.303,35.334 				"/>
				<polygon class="st35" points="19.383,35.891 17.235,37.132 17.098,37.053 19.246,35.812 				"/>
			</g>
			<g>
				<polygon class="st35" points="28.169,39.02 24.746,40.996 24.565,40.892 27.988,38.916 				"/>
				<polygon class="st35" points="28.678,39.314 25.255,41.29 25.074,41.186 28.497,39.21 				"/>
				<polygon class="st35" points="29.186,39.608 25.764,41.584 25.583,41.479 29.005,39.503 				"/>
				<polygon class="st35" points="29.111,40.239 26.273,41.878 26.092,41.773 28.93,40.135 				"/>
			</g>
			<g>
				<polygon class="st35" points="18.67,34.969 16.079,36.464 15.942,36.385 18.533,34.889 				"/>
				<polygon class="st35" points="19.055,35.191 16.464,36.687 16.327,36.608 18.918,35.112 				"/>
			</g>
			<g>
				<polygon class="st35" points="22.36,28.585 12.65,34.161 12.439,34.038 22.148,28.463 				"/>
				<polygon class="st35" points="22.944,28.979 13.234,34.555 13.022,34.432 22.732,28.857 				"/>
			</g>
			<polygon class="st35" points="23.285,30.566 20.484,32.184 20.346,32.105 23.149,30.487 			"/>
			<polygon class="st35" points="24.987,29.583 23.586,30.392 23.449,30.313 24.85,29.504 			"/>
		</g>
		<polygon class="st36" points="30.764,39.503 29.908,32.958 27.171,34.538 24.668,31.42 21.662,33.156 24.833,37.126 
			27.871,35.372 		"/>
	</g>
	<g>
		<g>
			<g>
				<g>
					<polygon class="st37" points="27.277,25.999 28.205,25.46 28.193,26.994 27.266,27.533 					"/>
				</g>
			</g>
			<g>
				<g>
					<polygon class="st37" points="27.368,24.218 28.296,23.679 28.236,25.142 27.308,25.681 					"/>
				</g>
			</g>
			<g>
				<path class="st38" d="M28.675,24.802c-0.043,0.007-0.093,0.003-0.149-0.013c0,0,0,0,0,0c-0.056-0.016-0.118-0.044-0.186-0.083
					c-0.014-0.008-0.029-0.017-0.044-0.026l-0.927,0.539c0.003,0.002,0.006,0.004,0.009,0.006c0.008,0.005,0.016,0.01,0.024,0.014
					c0.004,0.002,0.007,0.004,0.011,0.006c0.004,0.002,0.008,0.004,0.012,0.007c0.007,0.004,0.014,0.008,0.021,0.012
					c0.007,0.004,0.013,0.007,0.02,0.01c0.006,0.003,0.013,0.006,0.019,0.009c0.006,0.003,0.012,0.006,0.018,0.008
					c0.006,0.003,0.012,0.005,0.017,0.008c0.006,0.002,0.011,0.005,0.016,0.007c0.005,0.002,0.011,0.004,0.016,0.006
					c0.005,0.002,0.01,0.004,0.015,0.006c0.005,0.002,0.01,0.003,0.015,0.005c0.005,0.002,0.01,0.003,0.014,0.004
					c0.001,0,0.002,0,0.002,0.001c0,0,0,0,0,0c0.004,0.001,0.008,0.002,0.011,0.003c0.005,0.001,0.009,0.002,0.014,0.003
					c0.005,0.001,0.009,0.002,0.014,0.003c0.005,0.001,0.009,0.002,0.014,0.002c0.005,0.001,0.009,0.001,0.013,0.002
					c0.005,0.001,0.009,0.001,0.014,0.001c0.005,0,0.009,0.001,0.014,0.001c0.005,0,0.009,0,0.014,0c0.005,0,0.01,0,0.014,0
					c0.005,0,0.023-0.002,0.027-0.003c0.002,0,0.005-0.001,0.007-0.001c0.009-0.002,0.018-0.004,0.027-0.007
					c0.012-0.004,0.024-0.008,0.035-0.013c0.008-0.003,0.015-0.007,0.022-0.011l0.927-0.539
					C28.74,24.785,28.71,24.796,28.675,24.802z"/>
			</g>
			<g>
				<path class="st37" d="M29.493,25.067c0.025-0.126,0.037-0.272,0.033-0.439c-0.003-0.189-0.041-0.391-0.113-0.608
					c-0.036-0.107-0.082-0.215-0.14-0.322c-0.019-0.035-0.045-0.07-0.066-0.105c-0.042-0.07-0.082-0.14-0.133-0.211
					c-0.003-0.003-0.005-0.007-0.008-0.01c-0.014-0.019-0.028-0.037-0.043-0.056c-0.013-0.017-0.027-0.034-0.041-0.051
					c-0.013-0.015-0.025-0.03-0.038-0.044c-0.012-0.014-0.025-0.027-0.037-0.041c-0.012-0.013-0.024-0.026-0.037-0.038
					c-0.012-0.012-0.024-0.025-0.037-0.037c-0.012-0.012-0.025-0.024-0.037-0.036c-0.002-0.002-0.005-0.004-0.007-0.007
					c-0.001-0.001-0.001-0.001-0.002-0.002c-0.01-0.009-0.019-0.018-0.029-0.027c-0.013-0.012-0.026-0.023-0.039-0.035
					c-0.013-0.012-0.027-0.023-0.041-0.035c-0.014-0.012-0.028-0.023-0.042-0.035c-0.015-0.012-0.029-0.024-0.044-0.035
					c-0.015-0.012-0.031-0.024-0.046-0.036c-0.016-0.012-0.033-0.024-0.049-0.036c-0.017-0.012-0.035-0.025-0.052-0.037
					c-0.004-0.003-0.008-0.005-0.012-0.008c-0.01-0.007-0.02-0.014-0.03-0.021c-0.014-0.009-0.027-0.018-0.041-0.027
					c-0.014-0.009-0.029-0.018-0.043-0.027c-0.015-0.009-0.031-0.019-0.046-0.028c-0.008-0.004-0.015-0.009-0.023-0.013
					c-0.009-0.005-0.018-0.01-0.027-0.015c-0.018-0.01-0.035-0.02-0.053-0.029c-0.019-0.01-0.038-0.02-0.058-0.03
					c-0.021-0.011-0.042-0.021-0.063-0.031c-0.022-0.011-0.045-0.022-0.068-0.032c-0.025-0.011-0.05-0.022-0.075-0.033
					c-0.007-0.003-0.014-0.006-0.022-0.009c-0.003-0.001-0.006-0.002-0.009-0.004c-0.018-0.007-0.035-0.015-0.053-0.022
					c-0.03-0.012-0.061-0.024-0.092-0.036c-0.034-0.013-0.069-0.025-0.104-0.038c-0.039-0.013-0.078-0.027-0.118-0.039
					c-0.018-0.006-0.036-0.011-0.054-0.017l-0.927,0.539c0.15,0.046,0.29,0.097,0.422,0.153c0.002,0.001,0.004,0.002,0.007,0.003
					c0.131,0.056,0.254,0.116,0.366,0.181c0.064,0.037,0.126,0.076,0.184,0.116c0.131,0.091,0.25,0.185,0.355,0.284
					c0.001,0.001,0.001,0.001,0.002,0.002c0.105,0.099,0.198,0.202,0.277,0.309c0.053,0.071,0.093,0.143,0.136,0.214
					c0.022,0.037,0.05,0.074,0.07,0.111c0.057,0.107,0.104,0.214,0.14,0.322c0.072,0.217,0.11,0.419,0.113,0.608
					c0.004,0.167-0.008,0.313-0.033,0.439c-0.009,0.042-0.028,0.068-0.04,0.106c-0.024,0.076-0.045,0.157-0.083,0.213
					c-0.055,0.083-0.12,0.147-0.197,0.191l0.927-0.539c0.016-0.009,0.032-0.02,0.047-0.031c0.026-0.019,0.05-0.04,0.073-0.064
					c0.027-0.028,0.053-0.06,0.076-0.096c0.002-0.003,0.004-0.005,0.005-0.008c0.035-0.055,0.054-0.133,0.077-0.205
					C29.465,25.136,29.484,25.11,29.493,25.067z"/>
			</g>
			<g>
				<path class="st39" d="M28.599,25.168c0.007,0.337-0.044,0.59-0.156,0.758c-0.111,0.169-0.267,0.258-0.469,0.267
					c-0.201,0.01-0.433-0.055-0.697-0.194l-0.011,1.534l-0.89-0.511l0.151-4.157c0.303,0.093,0.568,0.205,0.795,0.336
					c0.064,0.037,0.126,0.076,0.184,0.116c0.264,0.182,0.475,0.38,0.634,0.595c0.159,0.215,0.274,0.431,0.346,0.647
					C28.558,24.776,28.595,24.979,28.599,25.168z M27.901,25.174c0.035-0.09,0.039-0.197,0.012-0.321
					c-0.027-0.124-0.086-0.243-0.176-0.36c-0.067-0.086-0.152-0.159-0.255-0.219c-0.035-0.02-0.073-0.039-0.112-0.056l-0.042,0.995
					c0.015,0.009,0.029,0.018,0.044,0.026c0.137,0.079,0.248,0.111,0.335,0.096C27.801,25.318,27.866,25.264,27.901,25.174"/>
			</g>
		</g>
		<g>
			<path class="st40" d="M32.257,28.866"/>
			<g>
				<path class="st38" d="M31.035,27.661l-0.927,0.539c0.002,0.001,0.004,0.001,0.006,0.002c0.003,0.001,0.005,0.002,0.007,0.002
					c0.003,0.001,0.005,0.002,0.008,0.002s0.005,0.001,0.008,0.002c0.003,0.001,0.005,0.001,0.008,0.002
					c0.003,0.001,0.005,0.001,0.008,0.002c0.003,0.001,0.006,0.001,0.008,0.002c0.003,0,0.006,0.001,0.009,0.001
					c0.003,0,0.006,0.001,0.009,0.001c0.003,0,0.006,0,0.01,0.001c0.003,0,0.007,0,0.01,0c0.004,0,0.007,0,0.011,0
					c0.004,0,0.008-0.001,0.013-0.001c0.005-0.001,0.01-0.001,0.014-0.002c0.006-0.001,0.012-0.003,0.019-0.005
					c0.009-0.003,0.019-0.006,0.028-0.01c0.007-0.003,0.014-0.007,0.021-0.011l0.927-0.539
					C31.17,27.682,31.105,27.687,31.035,27.661z"/>
			</g>
			<g>
				<path class="st37" d="M30.999,27.642c-0.045-0.026-0.086-0.062-0.124-0.108c0,0,0,0,0,0c-0.037-0.046-0.07-0.101-0.1-0.166
					c-0.066-0.147-0.111-0.321-0.137-0.52c-0.025-0.2-0.031-0.402-0.017-0.609c0.014-0.206,0.046-0.392,0.097-0.558
					c0.029-0.094,0.064-0.17,0.104-0.236c0.031-0.051,0.064-0.098,0.101-0.133c0.017-0.015,0.034-0.029,0.052-0.039l-0.927,0.539
					c-0.008,0.005-0.016,0.01-0.024,0.016c-0.009,0.007-0.019,0.015-0.028,0.023c-0.007,0.006-0.013,0.012-0.019,0.019
					c-0.026,0.027-0.05,0.058-0.073,0.093c-0.004,0.006-0.006,0.015-0.009,0.021c-0.04,0.066-0.076,0.142-0.104,0.236
					c-0.051,0.166-0.083,0.352-0.097,0.558c-0.013,0.206-0.008,0.409,0.017,0.609c0.025,0.2,0.071,0.373,0.137,0.52
					c0.024,0.054,0.051,0.101,0.081,0.142c0.005,0.006,0.009,0.012,0.014,0.018c0.002,0.002,0.003,0.004,0.005,0.006
					c0,0,0.001,0.001,0.001,0.001c0.002,0.002,0.003,0.004,0.005,0.006c0.003,0.004,0.006,0.007,0.009,0.011
					c0.003,0.003,0.006,0.006,0.008,0.009c0.002,0.003,0.005,0.005,0.007,0.008c0.002,0.002,0.005,0.005,0.007,0.007
					c0.002,0.002,0.005,0.005,0.007,0.007c0.002,0.002,0.004,0.004,0.007,0.006c0.002,0.002,0.004,0.004,0.006,0.006
					c0.002,0.002,0.004,0.004,0.006,0.005c0.002,0.002,0.004,0.004,0.006,0.005c0.002,0.002,0.004,0.003,0.006,0.005
					c0.002,0.002,0.004,0.003,0.006,0.005c0.002,0.002,0.004,0.003,0.006,0.005c0.002,0.002,0.004,0.003,0.006,0.004
					c0.002,0.001,0.004,0.003,0.006,0.004c0.002,0.001,0.004,0.003,0.006,0.004c0.002,0.001,0.004,0.003,0.006,0.004
					c0.002,0.001,0.004,0.003,0.007,0.004c0.001,0.001,0.002,0.001,0.003,0.002c0.001,0.001,0.002,0.001,0.004,0.002
					c0.002,0.001,0.005,0.003,0.007,0.004c0.002,0.001,0.005,0.002,0.007,0.004c0.002,0.001,0.005,0.002,0.007,0.004
					c0.002,0.001,0.005,0.002,0.007,0.004c0.001,0,0.002,0.001,0.003,0.001l0.927-0.539C31.023,27.655,31.011,27.649,30.999,27.642z
					"/>
			</g>
			<g>
				<path class="st37" d="M32.452,25.764c-0.103-0.33-0.251-0.629-0.443-0.895c-0.004-0.005-0.008-0.011-0.011-0.016
					c-0.017-0.023-0.034-0.046-0.052-0.068c-0.014-0.017-0.027-0.034-0.041-0.051c-0.012-0.014-0.024-0.028-0.037-0.042
					c-0.011-0.012-0.022-0.025-0.033-0.037c-0.01-0.011-0.021-0.022-0.032-0.033c-0.01-0.01-0.02-0.021-0.03-0.031
					c-0.01-0.01-0.02-0.019-0.03-0.029c-0.009-0.009-0.019-0.017-0.028-0.026c0,0,0,0,0,0c0,0-0.001-0.001-0.001-0.001
					c-0.01-0.009-0.019-0.017-0.029-0.026c-0.009-0.008-0.019-0.017-0.029-0.025c-0.01-0.008-0.019-0.016-0.029-0.024
					c-0.01-0.008-0.019-0.015-0.029-0.023c-0.01-0.008-0.02-0.015-0.029-0.023c-0.01-0.007-0.02-0.015-0.03-0.022
					c-0.01-0.007-0.02-0.014-0.03-0.022c-0.01-0.007-0.021-0.014-0.031-0.021c-0.011-0.007-0.021-0.014-0.032-0.021
					c-0.011-0.007-0.022-0.014-0.033-0.021c-0.011-0.007-0.023-0.014-0.034-0.02c-0.005-0.003-0.011-0.006-0.016-0.009
					c-0.006-0.004-0.013-0.007-0.019-0.011c-0.012-0.007-0.024-0.014-0.037-0.02c-0.003-0.002-0.006-0.003-0.009-0.005
					c-0.009-0.004-0.017-0.008-0.026-0.013c-0.015-0.007-0.03-0.014-0.045-0.021c-0.015-0.007-0.029-0.013-0.044-0.019
					c-0.014-0.006-0.029-0.012-0.043-0.018c-0.014-0.006-0.028-0.011-0.042-0.016c-0.014-0.005-0.027-0.01-0.041-0.015
					s-0.027-0.009-0.041-0.014c-0.013-0.004-0.027-0.008-0.04-0.012c-0.013-0.004-0.027-0.008-0.04-0.011
					c-0.013-0.003-0.027-0.007-0.04-0.01c-0.008-0.002-0.016-0.003-0.024-0.005c0,0-0.001,0-0.001,0
					c-0.005-0.001-0.01-0.002-0.015-0.003c-0.014-0.003-0.027-0.005-0.04-0.007c-0.014-0.002-0.027-0.004-0.041-0.006
					c-0.014-0.002-0.028-0.003-0.042-0.004c-0.014-0.001-0.029-0.002-0.043-0.003c-0.015-0.001-0.03-0.001-0.045-0.001
					c-0.016,0-0.032,0.001-0.047,0.002c-0.017,0.001-0.034,0.003-0.051,0.005c-0.015,0.002-0.03,0.004-0.045,0.007
					c-0.005,0.001-0.01,0.002-0.016,0.003c-0.029,0.006-0.058,0.013-0.086,0.021c-0.041,0.012-0.08,0.026-0.118,0.043
					c-0.028,0.013-0.056,0.027-0.082,0.042l-0.927,0.539c0.092-0.053,0.193-0.09,0.303-0.11c0.113-0.02,0.236-0.017,0.368,0.011
					c0.001,0,0.001,0,0.002,0c0.132,0.028,0.273,0.079,0.424,0.154c0.022,0.012,0.043,0.023,0.064,0.036
					c0.127,0.073,0.244,0.159,0.352,0.257c0,0,0,0,0,0c0.108,0.098,0.206,0.209,0.294,0.332c0.192,0.267,0.339,0.565,0.443,0.895
					c0.103,0.33,0.164,0.665,0.181,1.002c0.017,0.338-0.008,0.652-0.075,0.943c-0.031,0.134-0.073,0.254-0.121,0.366
					c-0.015,0.035-0.034,0.066-0.05,0.099c-0.046,0.091-0.094,0.181-0.154,0.257c-0.075,0.096-0.161,0.172-0.257,0.228l0.927-0.539
					c0.025-0.015,0.05-0.031,0.074-0.048c0.041-0.03,0.079-0.064,0.116-0.101c0.023-0.024,0.046-0.05,0.068-0.078
					c0.029-0.036,0.056-0.074,0.081-0.114c0.028-0.043,0.048-0.095,0.072-0.142c0.017-0.033,0.035-0.064,0.051-0.099
					c0.048-0.112,0.09-0.232,0.121-0.366c0.067-0.291,0.092-0.606,0.075-0.944C32.616,26.429,32.555,26.095,32.452,25.764z"/>
			</g>
			<g>
				<path class="st39" d="M31.706,27.305c0.017,0.338-0.008,0.652-0.075,0.943c-0.067,0.291-0.175,0.532-0.325,0.721
					c-0.149,0.19-0.339,0.301-0.569,0.334c-0.229,0.033-0.498-0.038-0.806-0.215c-0.284-0.172-0.522-0.395-0.713-0.667
					c-0.191-0.272-0.338-0.57-0.44-0.892c-0.102-0.323-0.16-0.647-0.175-0.973c-0.015-0.326,0.012-0.628,0.081-0.907
					c0.069-0.279,0.178-0.51,0.328-0.695c0.15-0.185,0.338-0.297,0.565-0.338c0.227-0.04,0.491,0.014,0.793,0.165
					c0.022,0.012,0.043,0.023,0.064,0.036c0.254,0.147,0.47,0.343,0.646,0.589c0.192,0.267,0.339,0.565,0.443,0.895
					C31.628,26.634,31.688,26.968,31.706,27.305z M30.67,27.211c0.018-0.201,0.019-0.398,0.001-0.592
					c-0.018-0.194-0.056-0.363-0.116-0.508c-0.057-0.137-0.134-0.234-0.232-0.291c-0.006-0.003-0.011-0.006-0.017-0.009
					c-0.12-0.053-0.223-0.04-0.309,0.04c-0.086,0.08-0.155,0.203-0.206,0.369c-0.051,0.166-0.083,0.352-0.097,0.558
					c-0.013,0.206-0.008,0.409,0.017,0.609c0.025,0.2,0.071,0.373,0.137,0.52c0.058,0.13,0.133,0.222,0.224,0.274
					c0.012,0.007,0.023,0.013,0.035,0.018c0.099,0.037,0.188,0.013,0.266-0.071c0.078-0.084,0.142-0.208,0.193-0.371
					C30.617,27.593,30.651,27.411,30.67,27.211"/>
			</g>
		</g>
		<g>
			<g class="st20">
				<g>
					<g>
						<polygon class="st41" points="33.303,28.97 34.231,28.431 33.485,30.093 32.557,30.632 						"/>
					</g>
				</g>
				<g>
					<g>
						<polygon class="st41" points="32.921,26.496 33.849,25.957 33.703,27.614 32.776,28.153 						"/>
					</g>
				</g>
				<g>
					<g>
						<polygon class="st37" points="31.953,25.934 32.881,25.395 33.849,25.957 32.921,26.496 						"/>
					</g>
				</g>
				<g>
					<g>
						<polygon class="st37" points="33.137,27.39 34.065,26.851 34.606,27.13 33.679,27.669 						"/>
					</g>
				</g>
				<g>
					<g>
						<polygon class="st41" points="33.679,27.669 34.606,27.13 34.83,28.208 33.902,28.747 						"/>
					</g>
				</g>
				<g>
					<g>
						<polygon class="st41" points="34.948,27.663 35.875,27.124 35.605,31.261 34.677,31.8 						"/>
					</g>
				</g>
				<g>
					<g>
						<polygon class="st37" points="33.978,27.106 34.905,26.567 35.875,27.124 34.948,27.663 						"/>
					</g>
				</g>
				<g>
					<polygon class="st39" points="33.978,27.106 34.948,27.663 34.677,31.8 33.784,31.34 33.303,28.97 32.557,30.632 
						31.671,30.064 31.953,25.934 32.921,26.496 32.776,28.153 33.137,27.39 33.679,27.669 33.902,28.747 					"/>
				</g>
			</g>
		</g>
		<g>
			<g>
				<path class="st42" d="M36.085,31.512l0.927-0.539c-0.006-0.009-0.012-0.018-0.019-0.026c-0.009-0.013-0.018-0.025-0.028-0.036
					c-0.007-0.009-0.014-0.017-0.021-0.026c-0.006-0.007-0.012-0.014-0.017-0.02c-0.005-0.006-0.01-0.011-0.015-0.017
					c-0.005-0.005-0.009-0.01-0.014-0.015c-0.004-0.004-0.009-0.009-0.013-0.013c-0.004-0.004-0.008-0.008-0.012-0.012
					c-0.004-0.004-0.008-0.007-0.012-0.011c-0.004-0.003-0.007-0.007-0.011-0.01c-0.004-0.003-0.007-0.006-0.011-0.009
					c-0.004-0.003-0.007-0.006-0.011-0.009c-0.003-0.003-0.007-0.005-0.01-0.008c-0.003-0.003-0.007-0.005-0.01-0.008
					c-0.003-0.003-0.007-0.005-0.01-0.007c-0.003-0.002-0.007-0.005-0.01-0.007c-0.003-0.002-0.007-0.005-0.01-0.007
					c-0.003-0.002-0.007-0.004-0.01-0.006c-0.003-0.002-0.007-0.004-0.01-0.006c-0.003-0.002-0.007-0.004-0.01-0.006
					c-0.002-0.001-0.003-0.002-0.005-0.003c-0.002-0.001-0.004-0.002-0.005-0.003c-0.003-0.002-0.007-0.004-0.01-0.006
					c-0.003-0.002-0.007-0.004-0.01-0.005c-0.003-0.002-0.007-0.004-0.01-0.005c-0.004-0.002-0.007-0.003-0.011-0.005
					c-0.004-0.002-0.007-0.003-0.011-0.005c-0.004-0.002-0.007-0.003-0.011-0.005c-0.004-0.002-0.008-0.003-0.012-0.005
					c-0.004-0.001-0.007-0.003-0.011-0.004c0,0-0.001,0-0.001,0c-0.004-0.001-0.008-0.003-0.011-0.004
					c-0.004-0.001-0.008-0.002-0.012-0.004c-0.004-0.001-0.008-0.002-0.012-0.003c-0.004-0.001-0.008-0.002-0.012-0.003
					c-0.004-0.001-0.008-0.002-0.013-0.003c-0.004-0.001-0.009-0.002-0.013-0.002c-0.004-0.001-0.009-0.001-0.013-0.002
					c-0.005-0.001-0.009-0.001-0.014-0.001c-0.005,0-0.009-0.001-0.014-0.001c-0.005,0-0.01,0-0.015,0c-0.005,0-0.01,0-0.015,0
					c0,0,0,0,0,0c0,0-0.001,0-0.001,0c-0.006,0-0.012,0.001-0.018,0.002c-0.007,0.001-0.014,0.002-0.02,0.003
					c-0.008,0.002-0.017,0.004-0.025,0.006c-0.012,0.004-0.024,0.008-0.036,0.013c-0.009,0.004-0.019,0.009-0.028,0.014
					l-0.927,0.539c0.04-0.023,0.082-0.036,0.127-0.038c0,0,0,0,0,0c0.045-0.003,0.094,0.005,0.145,0.023
					c0.031,0.011,0.062,0.025,0.092,0.042c0.048,0.027,0.094,0.063,0.138,0.106c0,0,0,0,0,0
					C36.001,31.401,36.044,31.453,36.085,31.512z"/>
			</g>
			<g>
				<path class="st41" d="M37.185,31.461c-0.011-0.165-0.068-0.327-0.172-0.487l-0.927,0.539c0.104,0.16,0.161,0.323,0.172,0.487
					c0.008,0.12-0.019,0.214-0.063,0.296c-0.016,0.031-0.027,0.066-0.051,0.091c-0.019,0.018-0.04,0.033-0.061,0.045l0.927-0.539
					c0.01-0.006,0.019-0.012,0.028-0.019c0.011-0.008,0.022-0.017,0.032-0.027c0.016-0.018,0.031-0.036,0.044-0.056
					c0.006-0.009,0.002-0.025,0.007-0.034C37.166,31.675,37.193,31.58,37.185,31.461z"/>
			</g>
			<g>
				<path class="st39" d="M36.085,31.512c0.104,0.16,0.161,0.323,0.172,0.487c0.011,0.164-0.027,0.293-0.114,0.387
					c-0.092,0.086-0.204,0.106-0.334,0.061c-0.032-0.011-0.063-0.025-0.093-0.043c-0.095-0.055-0.183-0.141-0.265-0.26
					c-0.104-0.16-0.162-0.323-0.173-0.488c-0.011-0.165,0.027-0.294,0.115-0.388c0.092-0.086,0.203-0.106,0.333-0.061
					c0.031,0.011,0.062,0.025,0.092,0.042C35.913,31.306,36.002,31.393,36.085,31.512z"/>
			</g>
			<g class="st20">
				<g>
					<g>
						<polygon class="st41" points="36.526,28.524 37.454,27.985 37.119,30.822 36.192,31.361 						"/>
					</g>
				</g>
				<g>
					<g>
						<polygon class="st37" points="35.523,27.988 36.451,27.449 37.454,27.985 36.526,28.524 						"/>
					</g>
				</g>
				<g>
					<polygon class="st39" points="36.526,28.524 36.192,31.361 35.438,30.916 35.523,27.988 					"/>
				</g>
			</g>
		</g>
	</g>
</g>
</svg>
