<?xml version="1.0" encoding="utf-8"?>
<!-- Generator: Adobe Illustrator 25.4.1, SVG Export Plug-In . SVG Version: 6.00 Build 0)  -->
<svg version="1.1" id="Layer_1" xmlns="http://www.w3.org/2000/svg" xmlns:xlink="http://www.w3.org/1999/xlink" x="0px" y="0px"
	 viewBox="0 0 50 50" style="enable-background:new 0 0 50 50;" xml:space="preserve">
<style type="text/css">
	.st0{display:none;}
	.st1{display:inline;}
	.st2{fill:#344593;}
	.st3{fill:#3E54A3;}
	.st4{fill:#2E4490;}
	.st5{fill:#122571;}
	.st6{opacity:0.5;fill:#031F60;enable-background:new    ;}
	.st7{fill:#BBDFFF;}
	.st8{fill:#FDB724;}
	.st9{fill:#E7478D;}
	.st10{fill:#BF2878;}
	.st11{fill:#27DEBF;}
	.st12{fill:#1BBC9D;}
	.st13{fill:#A33D64;}
	.st14{fill:#82294D;}
	.st15{fill:#0A4A80;}
	.st16{fill:#F1FCFF;}
	.st17{fill:#D6E6FF;}
	.st18{fill:#CEF3FF;}
	.st19{fill:#606060;}
	.st20{enable-background:new    ;}
	.st21{fill:#F19729;}
	.st22{fill:#FCB040;}
	.st23{fill:#FFCB49;}
	.st24{fill:#2E5677;}
	.st25{fill:#FF51CE;}
	.st26{fill:#EDE6A0;}
	.st27{fill:#FFF7B0;}
	.st28{fill:url(#SVGID_1_);}
	.st29{fill:url(#SVGID_00000016790360586732678870000005098360371527020969_);}
	.st30{fill:#F4F4F4;}
	.st31{fill:#CECECE;}
	.st32{fill:#EA5353;}
	.st33{fill:#FF6464;}
	.st34{fill:#438BE3;stroke:#438BE3;stroke-width:0.1342;stroke-miterlimit:10;}
	.st35{fill:#FFFFFF;}
	.st36{fill:#FFF543;}
	.st37{fill:#232323;}
	.st38{fill:#0C0C0C;}
	.st39{fill:#61BC0A;}
	.st40{fill:none;stroke:#FFFFC0;stroke-width:0.2144;stroke-miterlimit:10;}
	.st41{fill:#0F0F0F;}
	.st42{fill:#1E1E1E;}
</style>
<g id="Example" class="st0">
	<g class="st1">
		<g id="XMLID_4903_">
			<path id="XMLID_4905_" class="st2" d="M45.3,33.2v-4.6l0,0c0-0.9-0.6-1.8-1.7-2.4c-2.3-1.3-6-1.3-8.4,0c-1.2,0.7-1.7,1.6-1.7,2.4
				l0,0v4.5c0,0.9,0.6,1.8,1.7,2.4c2.3,1.3,6,1.3,8.4,0C44.8,34.9,45.3,34.1,45.3,33.2L45.3,33.2L45.3,33.2L45.3,33.2z"/>
			<path id="XMLID_4904_" class="st2" d="M45.3,33.2v-4.6l0,0c0-0.9-0.6-1.8-1.7-2.4c-2.3-1.3-6-1.3-8.4,0c-1.2,0.7-1.7,1.6-1.7,2.4
				l0,0v4.5c0,0.9,0.6,1.8,1.7,2.4c2.3,1.3,6,1.3,8.4,0C44.8,34.9,45.3,34.1,45.3,33.2L45.3,33.2L45.3,33.2L45.3,33.2z"/>
		</g>
		<polygon id="XMLID_4900_" class="st3" points="39.4,23 29.7,28.6 39.4,34.2 49.2,28.6 		"/>
		<path id="XMLID_4899_" class="st4" d="M44.3,31.4l-4.8-2.7c-0.1,0-0.2,0-0.2,0.1s0,0.2,0.1,0.2l4.6,2.6L44.3,31.4z"/>
		<polygon id="XMLID_4896_" class="st5" points="29.7,28.6 29.7,29 39.4,34.6 39.4,34.2 		"/>
		<polygon id="XMLID_4883_" class="st4" points="49.2,28.6 49.2,29 39.4,34.6 39.4,34.2 		"/>
		<polygon id="XMLID_4876_" class="st6" points="33.5,31.2 39.4,35.2 45.3,31.2 39.4,34.6 		"/>
		<g id="XMLID_4823_">
			<path id="XMLID_4835_" class="st7" d="M44.7,36.2c-0.1,0-0.2-0.1-0.2-0.2v-4c0-0.2-0.1-0.4-0.3-0.4l-4.9-2.8
				c-0.1,0-0.1-0.2-0.1-0.2c0-0.1,0.2-0.1,0.2-0.1l4.9,2.8c0.3,0.2,0.4,0.4,0.4,0.7v4C44.8,36.1,44.7,36.2,44.7,36.2z"/>
		</g>
		<path class="st8" d="M45.3,39.3L45,36.6c0.1-0.1,0.1-0.2,0-0.2l0,0l0,0l0,0v-0.1l0,0l0,0l0,0c0-0.2-0.2-0.4-0.4-0.4c0,0,0,0-0.1,0
			l0,0l0,0c0,0,0,0-0.1,0c0,0,0,0-0.1,0c0,0,0,0-0.1,0c0,0,0,0,0,0.1l0,0v0.1c0,0.1,0,0.2,0.1,0.3l0,0c-0.1,0.1,0,0.2,0,0.2L44,39.3
			c0,0.1,0.1,0.2,0.3,0.3l0,0h0.1l0,0c0.1,0,0.2,0.1,0.3,0.1l0,0l0,0l0,0l0,0l0,0c0.1,0,0.2,0,0.3-0.1l0,0h0.1l0,0
			C45.3,39.5,45.3,39.4,45.3,39.3z"/>
	</g>
	<g id="XMLID_3738_" class="st1">
		<path id="XMLID_4404_" class="st9" d="M12.4,36.1c1.1-0.8,1.8-2.7,1.7-4c-0.1-1.4-1.2-2-1.7-2.3l0,0c-1.1-0.6-2.8-0.6-3.9,0l0,0
			C8,30.1,7,30.7,6.8,32.1c-0.1,1.3,0.6,3.2,1.7,4l0,0c0.1,0,0.1,0.1,0.2,0.1c1,0.6,2.6,0.6,3.6,0l0,0
			C12.3,36.2,12.4,36.1,12.4,36.1L12.4,36.1z"/>
		<path id="XMLID_4395_" class="st10" d="M9.9,30.8c-0.3,0.2-0.3,0.4,0,0.6s0.8,0.2,1.1,0s0.3-0.4,0-0.6
			C10.7,30.6,10.2,30.6,9.9,30.8z"/>
		<g id="XMLID_4426_">
			<path id="XMLID_2198_" class="st11" d="M10.5,31.2c0,0-0.9,0-1.4-0.7s0-1.9,0-1.9s1.1,0.1,1.7,1C11.2,30.4,10.5,31.2,10.5,31.2z"
				/>
			<path id="XMLID_4431_" class="st12" d="M9,30.5c0.5,0.7,1.4,0.7,1.4,0.7C10.3,29.6,9,28.6,9,28.6S8.5,29.8,9,30.5z"/>
		</g>
		<path id="XMLID_4403_" class="st13" d="M10.5,31.2c0,0,0-1.3,0.7-1.9s1.2-0.6,1.2-0.6c0.4,0,0.9,0.4,0.7,0.4c0,0-0.9,0-1.5,0.5
			s-0.9,1.5-0.9,1.6c0,0,0,0.1-0.1,0.1C10.5,31.3,10.5,31.2,10.5,31.2z"/>
		<path id="XMLID_4496_" class="st14" d="M12.4,28.7c-0.1,0-0.1,0.1,0.2,0.3c0.2,0.1,0.4,0.2,0.5,0.2l0,0
			C13.3,29,12.8,28.7,12.4,28.7z"/>
	</g>
	<g class="st1">
		<g>
			<path class="st15" d="M26,28.8L26,28.8c-1,0.6-1.9,1-2.8,1.2l0,0c0,0,0,0-0.1,0l-0.5,0.2h-0.1c-0.1,0-0.2,0.1-0.3,0.1h-0.1
				c-0.1,0-0.2,0.1-0.2,0.1h-0.1c-0.5,0.2-0.9,0.4-1.4,0.7c-0.1,0.1-0.2,0.1-0.3,0.2L20,31.4c-0.4,0.3-2,1.5-2.9,2.5l-0.6,0.6
				L16,34.6c-1,0.2-2,0.5-3,1.1c-0.1,0.1-0.2,0.1-0.3,0.2c-0.3,0.2-0.5,0.3-0.8,0.5l0,0l-0.1,0.1c-0.1,0.1-0.2,0.1-0.3,0.2l0,0l0,0
				c-0.4,0.3-0.9,0.7-1.3,1.1c-0.1,0.1-0.2,0.2-0.3,0.3c-0.3,0.3-0.7,0.6-1,0.9H8.8c-0.3,0.3-0.7,0.5-1,0.8
				c-0.2,0.2-0.5,0.3-0.7,0.5H7l13.7,8.3h0.1c0.8-0.5,1.7-1.2,2.5-1.9c0.5-0.5,1.1-0.9,1.7-1.4c1.2-0.9,2.3-1.5,3.2-1.8
				c0.7-0.3,1.4-0.5,2.1-0.6l0.5-0.6c0.7-0.7,1.5-1.3,2.4-1.8c1.5-1,3.2-1.8,4.9-2.5c0.6-0.2,1.2-0.5,1.6-0.7l0.2-0.1L26,28.8z"/>
			<g>
				<g>
					<g>
						<path class="st16" d="M39.1,36.7c-0.5,0.3-0.7,0.4-1.2,0.6c-0.3,0.1-0.5,0.2-0.8,0.3c-0.2,0.1-0.3,0.1-0.5,0.1
							c-0.7,0.2-1.4,0.4-2,0.8c-0.2,0.1-0.4,0.2-0.6,0.3c-1.3,0.8-2.6,2-3.9,3.5l-2.5-1.5l-11-6.7c1.3-1.5,2.6-2.7,3.9-3.5
							c0.2-0.1,0.4-0.2,0.6-0.3c0.7-0.4,1.4-0.6,2-0.8c0.2,0,0.3-0.1,0.5-0.1c0.3-0.1,0.5-0.2,0.8-0.3c0.5-0.2,0.7-0.3,1.2-0.6
							L39.1,36.7z"/>
						<g>
							<path class="st16" d="M30.1,42.3c-1.3,0.1-2.6,0.5-3.9,1.3c-0.2,0.1-0.4,0.2-0.6,0.4c-0.7,0.5-1.4,1-2,1.7
								c-0.2,0.2-0.3,0.3-0.5,0.4c-0.3,0.3-0.6,0.5-0.9,0.7c-0.5,0.4-0.8,0.6-1.3,0.9L7.5,39.5C8,39.2,8.3,39,8.8,38.6
								c0.3-0.2,0.6-0.5,0.9-0.7c0.2-0.1,0.3-0.3,0.5-0.4c0.7-0.6,1.4-1.2,2-1.7c0.2-0.1,0.4-0.3,0.6-0.4c1.3-0.8,2.6-1.2,3.9-1.3
								l11,6.7L30.1,42.3z"/>
						</g>
					</g>
					<polygon class="st17" points="7.5,39.5 7.3,40.3 20.7,48.5 20.9,47.7 					"/>
					<path class="st18" d="M39.4,37.1c-0.9,0.6-1.8,1-2.7,1.2c0,0,0,0-0.1,0s-0.2,0-0.3,0.1c-0.1,0-0.2,0.1-0.3,0.1
						s-0.2,0.1-0.3,0.1c-0.6,0.2-1.2,0.5-1.8,0.9c-0.1,0.1-0.2,0.1-0.3,0.2c-1,0.7-2,1.5-3,2.5L30,42.8l-0.6,0.1c-1,0.2-2,0.5-3,1.1
						c-0.1,0.1-0.2,0.1-0.3,0.2c-0.3,0.2-0.5,0.3-0.8,0.5c-0.6,0.4-1.1,0.9-1.7,1.4c-0.1,0.1-0.2,0.2-0.3,0.3
						c-0.9,0.9-1.8,1.6-2.7,2.2l0.2-0.8c0.5-0.3,0.8-0.5,1.3-0.9c0.3-0.2,0.6-0.5,0.9-0.7c0.2-0.1,0.3-0.3,0.5-0.4
						c0.7-0.6,1.4-1.2,2-1.7c0.2-0.1,0.4-0.3,0.6-0.4c1.3-0.8,2.6-1.2,3.9-1.3c1.3-1.5,2.6-2.7,3.9-3.5c0.2-0.1,0.4-0.2,0.6-0.3
						c0.7-0.4,1.4-0.6,2-0.8c0.2,0,0.3-0.1,0.5-0.1c0.3-0.1,0.5-0.2,0.8-0.3c0.5-0.2,0.7-0.3,1.2-0.6L39.4,37.1z"/>
				</g>
			</g>
			<g>
				<path class="st19" d="M17.8,34.6C17.9,34.6,17.9,34.6,17.8,34.6c1.2-1.4,2.5-2.5,3.7-3.2c0.2-0.1,0.4-0.2,0.5-0.3
					c0.7-0.3,1.3-0.6,2-0.8c0.2,0,0.3-0.1,0.5-0.1c0.3-0.1,0.5-0.2,0.8-0.3c0.4-0.2,0.7-0.3,1.1-0.5c0,0,0,0,0-0.1s0,0-0.1,0
					c-0.4,0.2-0.6,0.3-1,0.5c-0.3,0.1-0.5,0.2-0.8,0.3c-0.2,0.1-0.3,0.1-0.5,0.1c-0.7,0.2-1.3,0.4-2,0.8c-0.2,0.1-0.4,0.2-0.6,0.3
					C20.3,32.1,19,33.2,17.8,34.6C17.8,34.5,17.8,34.6,17.8,34.6L17.8,34.6z"/>
				<path class="st19" d="M25.4,30.6c-0.2,0.1-0.3,0.1-0.5,0.1c-0.7,0.2-1.3,0.4-2,0.8c-0.2,0.1-0.4,0.2-0.6,0.3
					c-1.2,0.7-2.5,1.8-3.7,3.2v0.1l0,0l0,0c1.2-1.4,2.5-2.5,3.7-3.2c0.2-0.1,0.4-0.2,0.6-0.3c0.7-0.4,1.3-0.6,2-0.8
					C25.1,30.8,25.3,30.7,25.4,30.6c0.3,0,0.6-0.1,0.8-0.2c0.4-0.2,0.6-0.3,1-0.5c0,0,0,0,0-0.1c0,0,0,0-0.1,0
					c-0.4,0.2-0.6,0.3-1,0.5C25.9,30.4,25.7,30.5,25.4,30.6z"/>
				<path class="st19" d="M26.2,31.1c-0.2,0.1-0.3,0.1-0.5,0.1c-0.7,0.2-1.3,0.4-2,0.8c-0.2,0.1-0.4,0.2-0.6,0.3
					c-1.2,0.7-2.5,1.8-3.7,3.2v0.1l0,0l0,0c1.2-1.4,2.5-2.5,3.7-3.2c0.2-0.1,0.4-0.2,0.6-0.3c0.7-0.4,1.4-0.6,2-0.8
					C25.9,31.3,26.1,31.2,26.2,31.1c0.3,0,0.6-0.1,0.8-0.2c0.4-0.2,0.6-0.3,1-0.5c0,0,0,0,0-0.1c0,0,0,0-0.1,0
					c-0.4,0.2-0.6,0.3-1,0.5C26.8,30.9,26.5,31,26.2,31.1z"/>
				<path class="st19" d="M27.1,31.5c-0.2,0.1-0.3,0.1-0.5,0.1c-0.7,0.2-1.3,0.4-2,0.8c-0.2,0.1-0.4,0.2-0.6,0.3
					c-1.2,0.7-2.5,1.8-3.7,3.2V36l0,0l0,0c1.2-1.4,2.5-2.5,3.7-3.2c0.2-0.1,0.4-0.2,0.6-0.3c0.7-0.4,1.4-0.6,2-0.8
					C26.7,31.7,26.9,31.7,27.1,31.5c0.3,0,0.6-0.1,0.8-0.2c0.4-0.2,0.6-0.3,1-0.5c0,0,0,0,0-0.1c0,0,0,0-0.1,0
					c-0.4,0.2-0.6,0.3-1,0.5C27.6,31.4,27.3,31.5,27.1,31.5z"/>
				<path class="st19" d="M27.9,32c-0.2,0.1-0.3,0.1-0.5,0.1c-0.7,0.2-1.4,0.4-2,0.8c-0.2,0.1-0.4,0.2-0.6,0.3
					c-1.2,0.7-2.5,1.9-3.7,3.2v0.1l0,0l0,0c1.2-1.4,2.5-2.5,3.7-3.2c0.2-0.1,0.4-0.2,0.6-0.3c0.7-0.4,1.4-0.6,2-0.8
					C27.6,32.2,27.8,32.2,27.9,32c0.3,0,0.6-0.1,0.8-0.2c0.4-0.2,0.6-0.3,1-0.5c0,0,0,0,0-0.1c0,0,0,0-0.1,0c-0.4,0.2-0.6,0.3-1,0.5
					C28.4,31.8,28.1,31.9,27.9,32z"/>
				<path class="st19" d="M28.7,32.5c-0.2,0.1-0.3,0.1-0.5,0.1c-0.7,0.2-1.4,0.4-2,0.8c-0.2,0.1-0.4,0.2-0.6,0.3
					c-1.2,0.7-2.5,1.9-3.7,3.2V37l0,0l0,0c1.2-1.4,2.5-2.5,3.7-3.2c0.2-0.1,0.4-0.2,0.6-0.3c0.7-0.4,1.4-0.6,2-0.8
					C28.4,32.7,28.6,32.6,28.7,32.5c0.3,0,0.6-0.1,0.8-0.2c0.4-0.2,0.6-0.3,1-0.5c0,0,0,0,0-0.1c0,0,0,0-0.1,0
					c-0.3,0.2-0.6,0.3-0.9,0.5C29.2,32.3,29,32.4,28.7,32.5z"/>
				<path class="st19" d="M29.6,33c-0.2,0.1-0.3,0.1-0.5,0.1c-0.7,0.2-1.4,0.4-2.1,0.8c-0.2,0.1-0.4,0.2-0.6,0.3
					c-1.2,0.7-2.5,1.9-3.8,3.3v0.1l0,0l0,0c1.2-1.4,2.5-2.5,3.7-3.2c0.2-0.1,0.4-0.2,0.6-0.3c0.7-0.4,1.4-0.6,2-0.8
					C29.2,33.2,29.4,33.1,29.6,33c0.3,0,0.6-0.1,0.8-0.2c0.4-0.2,0.6-0.3,0.9-0.5c0,0,0,0,0-0.1c0,0,0,0-0.1,0
					c-0.3,0.2-0.5,0.3-0.9,0.4C30.1,32.8,29.8,32.9,29.6,33z"/>
				<path class="st19" d="M30.4,33.5c-0.2,0.1-0.3,0.1-0.5,0.1c-0.7,0.2-1.4,0.4-2.1,0.8c-0.2,0.1-0.4,0.2-0.6,0.3
					c-1.2,0.7-2.5,1.9-3.8,3.3v0.1l0,0l0,0c1.2-1.4,2.5-2.5,3.7-3.2c0.2-0.1,0.4-0.2,0.6-0.3c0.7-0.4,1.4-0.6,2-0.8
					C30.1,33.7,30.2,33.6,30.4,33.5c0.3,0,0.5-0.1,0.8-0.2c0.4-0.2,0.6-0.3,0.9-0.4c0,0,0,0,0-0.1c0,0,0,0-0.1,0
					c-0.3,0.2-0.5,0.3-0.9,0.4C30.9,33.3,30.6,33.4,30.4,33.5z"/>
				<path class="st19" d="M31.2,33.9C31,34,30.9,34,30.7,34.1c-0.7,0.2-1.4,0.4-2.1,0.8c-0.2,0.1-0.4,0.2-0.6,0.3
					c-1.2,0.7-2.5,1.9-3.8,3.3v0.1l0,0l0,0c1.2-1.4,2.5-2.5,3.8-3.3c0.2-0.1,0.4-0.2,0.6-0.3c0.7-0.4,1.4-0.6,2-0.8
					C30.9,34.1,31.1,34.1,31.2,33.9c0.3,0,0.5-0.1,0.8-0.2c0.4-0.2,0.6-0.2,0.9-0.4c0,0,0,0,0-0.1c0,0,0,0-0.1,0
					c-0.3,0.2-0.5,0.3-0.9,0.4C31.7,33.8,31.5,33.9,31.2,33.9z"/>
				<path class="st19" d="M32,34.4c-0.2,0.1-0.3,0.1-0.5,0.1c-0.7,0.2-1.4,0.4-2.1,0.8c-0.2,0.1-0.4,0.2-0.6,0.3
					c-1.2,0.7-2.6,1.9-3.8,3.3V39l0,0l0,0c1.2-1.4,2.5-2.5,3.8-3.3c0.2-0.1,0.4-0.2,0.6-0.3c0.7-0.4,1.4-0.6,2-0.8
					C31.7,34.6,31.9,34.6,32,34.4c0.3,0,0.5-0.1,0.8-0.2c0.4-0.2,0.6-0.2,0.9-0.4c0,0,0,0,0-0.1c0,0,0,0-0.1,0
					c-0.3,0.2-0.5,0.3-0.9,0.4C32.6,34.2,32.3,34.3,32,34.4z"/>
				<path class="st19" d="M32.9,34.9C32.7,35,32.6,35,32.4,35c-0.7,0.2-1.4,0.4-2.1,0.8c-0.2,0.1-0.4,0.2-0.6,0.3
					c-1.2,0.8-2.6,1.9-3.8,3.3v0.1l0,0l0,0c1.2-1.4,2.5-2.5,3.8-3.3c0.2-0.1,0.4-0.2,0.6-0.3c0.7-0.4,1.4-0.6,2.1-0.8
					C32.6,35.1,32.7,35,32.9,34.9c0.3,0,0.5-0.1,0.8-0.2c0.3-0.1,0.6-0.2,0.9-0.4c0,0,0,0,0-0.1c0,0,0,0-0.1,0
					c-0.3,0.2-0.5,0.3-0.8,0.4C33.4,34.7,33.1,34.8,32.9,34.9z"/>
				<path class="st19" d="M33.7,35.4c-0.2,0.1-0.3,0.1-0.5,0.1c-0.7,0.2-1.4,0.4-2.1,0.8c-0.2,0.1-0.4,0.2-0.6,0.3
					c-1.2,0.8-2.6,1.9-3.8,3.3V40l0,0l0,0c1.2-1.4,2.6-2.5,3.8-3.3c0.2-0.1,0.4-0.2,0.6-0.3c0.7-0.4,1.4-0.6,2.1-0.8
					C33.4,35.6,33.6,35.5,33.7,35.4c0.3,0,0.5-0.1,0.8-0.2c0.3-0.1,0.5-0.2,0.8-0.4c0,0,0,0,0-0.1c0,0,0,0-0.1,0
					c-0.3,0.2-0.5,0.3-0.8,0.4C34.2,35.2,34,35.3,33.7,35.4z"/>
				<path class="st19" d="M34.5,35.8c-0.2,0.1-0.3,0.1-0.5,0.1c-0.7,0.2-1.4,0.4-2.1,0.8c-0.2,0.1-0.4,0.2-0.6,0.3
					c-1.3,0.8-2.6,1.9-3.8,3.3v0.1l0,0l0,0c1.2-1.4,2.6-2.6,3.8-3.3c0.2-0.1,0.4-0.2,0.6-0.3c0.7-0.4,1.4-0.6,2.1-0.8
					C34.2,36,34.4,36,34.5,35.8c0.3,0,0.5-0.1,0.8-0.2c0.3-0.1,0.5-0.2,0.8-0.4c0,0,0,0,0-0.1c0,0,0,0-0.1,0
					c-0.3,0.2-0.5,0.2-0.8,0.4C35,35.7,34.8,35.8,34.5,35.8z"/>
				<path class="st19" d="M35.4,36.3c-0.2,0.1-0.3,0.1-0.5,0.1c-0.7,0.2-1.4,0.4-2.1,0.8c-0.2,0.1-0.4,0.2-0.6,0.3
					c-1.3,0.8-2.6,1.9-3.8,3.3v0.1l0,0l0,0c1.3-1.4,2.6-2.6,3.8-3.3c0.2-0.1,0.4-0.2,0.6-0.3c0.7-0.4,1.4-0.6,2.1-0.8
					C35.1,36.5,35.2,36.5,35.4,36.3c0.3,0,0.5-0.1,0.8-0.2c0.3-0.1,0.5-0.2,0.8-0.4c0,0,0,0,0-0.1c0,0,0,0-0.1,0
					c-0.2,0.1-0.4,0.2-0.8,0.4C35.9,36.2,35.6,36.2,35.4,36.3z"/>
				<path class="st19" d="M37.7,36.2c-0.3,0.1-0.5,0.2-0.8,0.4c-0.3,0.1-0.5,0.2-0.8,0.3C35.9,37,35.8,37,35.6,37
					c-0.7,0.2-1.4,0.4-2.1,0.8c-0.2,0.1-0.4,0.2-0.6,0.3c-1.3,0.8-2.6,1.9-3.9,3.3v0.1l0,0l0,0c1.3-1.4,2.6-2.6,3.8-3.3
					c0.2-0.1,0.4-0.2,0.6-0.3c0.7-0.4,1.4-0.6,2.1-0.8c0.2,0,0.3-0.1,0.5-0.1c0.2-0.1,0.5-0.2,0.8-0.3
					C37.3,36.5,37.5,36.4,37.7,36.2C37.8,36.3,37.8,36.2,37.7,36.2C37.8,36.2,37.7,36.2,37.7,36.2z"/>
				<path class="st19" d="M10.6,38.6c0.2-0.1,0.3-0.3,0.5-0.4c0.7-0.6,1.3-1.2,2-1.7c0.2-0.1,0.4-0.2,0.6-0.4
					c1.2-0.7,2.5-1.2,3.7-1.3c0,0,0,0,0-0.1c0,0,0,0-0.1,0c-1.2,0.1-2.5,0.5-3.7,1.3c-0.2,0.1-0.4,0.2-0.6,0.4c-0.7,0.5-1.4,1-2,1.7
					C10.9,38.3,10.7,38.4,10.6,38.6c-0.4,0.2-0.7,0.4-0.9,0.7c-0.4,0.3-0.7,0.5-1,0.7c0,0,0,0,0,0.1l0,0l0,0c0.3-0.2,0.6-0.4,1-0.7
					S10.3,38.9,10.6,38.6z"/>
				<path class="st19" d="M11.5,39.1c0.2-0.1,0.3-0.3,0.5-0.4c0.7-0.6,1.3-1.2,2-1.7c0.2-0.1,0.4-0.2,0.6-0.4
					c1.2-0.7,2.5-1.2,3.7-1.2c0,0,0,0,0-0.1c0,0,0-0.1-0.1,0c-1.2,0.1-2.5,0.5-3.7,1.3c-0.2,0.1-0.4,0.2-0.6,0.4
					c-0.7,0.5-1.4,1-2,1.7C11.7,38.8,11.6,38.9,11.5,39.1c-0.4,0.2-0.7,0.4-0.9,0.7c-0.4,0.3-0.7,0.5-1,0.7c0,0,0,0,0,0.1l0,0l0,0
					c0.3-0.2,0.6-0.4,1-0.7C10.9,39.6,11.2,39.4,11.5,39.1z"/>
				<path class="st19" d="M12.3,39.6c0.2-0.1,0.3-0.3,0.5-0.4c0.7-0.6,1.3-1.2,2-1.7c0.2-0.1,0.4-0.3,0.6-0.4
					c1.2-0.7,2.4-1.2,3.6-1.2c0,0,0,0,0-0.1s0,0-0.1,0c-1.2,0.1-2.5,0.5-3.7,1.3c-0.2,0.1-0.4,0.2-0.6,0.4c-0.7,0.5-1.4,1-2,1.7
					C12.5,39.2,12.4,39.4,12.3,39.6c-0.4,0.2-0.7,0.4-0.9,0.7c-0.4,0.3-0.7,0.5-1,0.7c0,0,0,0,0,0.1l0,0l0,0c0.3-0.2,0.6-0.4,1-0.7
					C11.7,40.1,12,39.9,12.3,39.6z"/>
				<path class="st19" d="M13.1,40.1c0.2-0.1,0.3-0.3,0.5-0.4c0.7-0.6,1.3-1.2,2-1.7c0.2-0.1,0.4-0.3,0.6-0.4
					c1.2-0.7,2.4-1.1,3.6-1.2c0,0,0,0,0-0.1c0,0,0,0-0.1,0c-1.2,0.1-2.4,0.5-3.6,1.3c-0.2,0.1-0.4,0.2-0.6,0.4c-0.7,0.5-1.4,1-2,1.7
					C13.3,39.7,13.2,39.9,13.1,40.1c-0.4,0.2-0.6,0.4-0.9,0.7c-0.4,0.3-0.7,0.5-1,0.7c0,0,0,0,0,0.1l0,0l0,0c0.3-0.2,0.6-0.4,1-0.7
					C12.5,40.6,12.8,40.4,13.1,40.1z"/>
				<path class="st19" d="M13.9,40.6c0.2-0.1,0.3-0.3,0.5-0.4c0.7-0.6,1.3-1.2,2-1.7c0.2-0.1,0.4-0.3,0.6-0.4
					c1.2-0.7,2.4-1.1,3.6-1.2c0,0,0,0,0-0.1c0,0,0,0-0.1,0c-1.2,0.1-2.4,0.5-3.6,1.3c-0.2,0.1-0.4,0.2-0.6,0.4c-0.7,0.5-1.4,1-2,1.7
					C14.2,40.2,14,40.4,13.9,40.6c-0.4,0.2-0.6,0.4-0.9,0.7c-0.4,0.3-0.7,0.5-1,0.7c0,0,0,0,0,0.1l0,0l0,0c0.3-0.2,0.6-0.4,1-0.7
					C13.3,41.1,13.6,40.8,13.9,40.6z"/>
				<path class="st19" d="M14.7,41.1c0.2-0.1,0.3-0.3,0.5-0.4c0.7-0.6,1.3-1.2,2-1.7c0.2-0.1,0.4-0.3,0.6-0.4
					c1.2-0.7,2.4-1.1,3.5-1.2c0,0,0,0,0-0.1c0,0,0,0-0.1,0c-1.2,0.1-2.4,0.6-3.6,1.3c-0.2,0.1-0.4,0.2-0.6,0.4c-0.7,0.5-1.4,1-2,1.7
					C15,40.7,14.8,40.8,14.7,41.1c-0.4,0.2-0.6,0.4-0.9,0.7c-0.4,0.3-0.7,0.5-1,0.7c0,0,0,0,0,0.1l0,0l0,0c0.3-0.2,0.6-0.4,1-0.7
					S14.4,41.3,14.7,41.1z"/>
				<path class="st19" d="M15.6,41.5c0.2-0.1,0.3-0.3,0.5-0.4c0.7-0.6,1.3-1.2,2-1.7c0.2-0.1,0.4-0.3,0.6-0.4
					c1.1-0.7,2.4-1.1,3.5-1.2c0,0,0,0,0-0.1s0,0-0.1,0c-1.2,0.1-2.4,0.6-3.5,1.3c-0.2,0.1-0.4,0.2-0.6,0.4c-0.7,0.5-1.4,1-2,1.7
					C15.8,41.2,15.6,41.3,15.6,41.5c-0.4,0.2-0.6,0.4-0.9,0.7c-0.4,0.3-0.7,0.5-1,0.7c0,0,0,0,0,0.1l0,0l0,0c0.3-0.2,0.6-0.4,1-0.7
					C15,42.1,15.3,41.8,15.6,41.5z"/>
				<path class="st19" d="M16.4,42c0.2-0.1,0.3-0.3,0.5-0.4c0.7-0.6,1.3-1.2,2-1.7c0.2-0.1,0.4-0.3,0.6-0.4c1.1-0.7,2.3-1.1,3.5-1.2
					c0,0,0,0,0-0.1s0,0-0.1,0c-1.2,0.1-2.4,0.6-3.5,1.3c-0.2,0.1-0.4,0.2-0.6,0.4c-0.7,0.5-1.4,1-2.1,1.7
					C16.6,41.7,16.5,41.8,16.4,42c-0.4,0.2-0.6,0.4-0.9,0.7c-0.4,0.3-0.7,0.5-1,0.7c0,0,0,0,0,0.1l0,0l0,0c0.3-0.2,0.6-0.4,1.1-0.7
					C15.8,42.5,16.1,42.3,16.4,42z"/>
				<path class="st19" d="M17.2,42.5c0.2-0.1,0.3-0.3,0.5-0.4c0.7-0.6,1.4-1.2,2-1.7c0.2-0.1,0.4-0.3,0.6-0.4
					c1.1-0.7,2.3-1.1,3.4-1.2c0,0,0,0,0-0.1s0,0-0.1,0c-1.1,0.1-2.3,0.6-3.5,1.3c-0.2,0.1-0.4,0.2-0.6,0.4c-0.7,0.5-1.4,1-2.1,1.7
					C17.4,42.2,17.3,42.3,17.2,42.5c-0.4,0.2-0.6,0.4-0.9,0.6c-0.4,0.3-0.7,0.5-1.1,0.7c0,0,0,0,0,0.1l0,0l0,0
					c0.3-0.2,0.6-0.4,1.1-0.8C16.6,43,16.9,42.8,17.2,42.5z"/>
				<path class="st19" d="M18,43c0.2-0.1,0.3-0.3,0.5-0.4c0.7-0.6,1.4-1.2,2-1.7c0.2-0.1,0.4-0.3,0.6-0.4c1.1-0.7,2.3-1.1,3.4-1.2
					c0,0,0,0,0-0.1s0,0-0.1,0c-1.1,0.1-2.3,0.6-3.5,1.3c-0.2,0.1-0.4,0.2-0.6,0.4c-0.7,0.5-1.4,1.1-2.1,1.7
					C18.3,42.6,18.1,42.8,18,43c-0.4,0.2-0.6,0.4-0.9,0.6c-0.4,0.3-0.7,0.6-1.1,0.8c0,0,0,0,0,0.1l0,0l0,0c0.3-0.2,0.7-0.4,1.1-0.8
					C17.4,43.5,17.7,43.3,18,43z"/>
				<path class="st19" d="M18.8,43.5c0.2-0.1,0.3-0.3,0.5-0.4c0.7-0.6,1.4-1.2,2-1.7c0.2-0.1,0.4-0.3,0.6-0.4
					c1.1-0.7,2.3-1.1,3.4-1.2c0,0,0,0,0-0.1c0,0,0,0-0.1,0c-1.1,0.1-2.3,0.6-3.4,1.3c-0.2,0.1-0.4,0.2-0.6,0.4
					c-0.7,0.5-1.4,1.1-2.1,1.7C19.1,43.1,18.9,43.3,18.8,43.5c-0.4,0.2-0.6,0.4-0.9,0.6c-0.4,0.3-0.7,0.6-1.1,0.8c0,0,0,0,0,0.1l0,0
					l0,0c0.3-0.2,0.7-0.4,1.1-0.8C18.3,44,18.5,43.7,18.8,43.5z"/>
				<path class="st19" d="M19.6,44c0.2-0.1,0.3-0.3,0.5-0.4c0.7-0.6,1.4-1.2,2.1-1.7c0.2-0.1,0.4-0.3,0.6-0.4
					c1.1-0.7,2.3-1.1,3.4-1.2c0,0,0,0,0-0.1c0,0,0,0-0.1,0c-1.1,0.2-2.3,0.6-3.4,1.3c-0.2,0.1-0.4,0.2-0.6,0.4
					c-0.7,0.5-1.4,1.1-2.1,1.7C19.9,43.6,19.7,43.8,19.6,44c-0.4,0.2-0.6,0.4-0.9,0.6c-0.4,0.3-0.8,0.6-1.1,0.8c0,0,0,0,0,0.1l0,0
					l0,0c0.3-0.2,0.7-0.4,1.1-0.8C19.1,44.5,19.4,44.2,19.6,44z"/>
				<path class="st19" d="M20.5,44.5c0.2-0.1,0.3-0.3,0.5-0.4c0.7-0.6,1.4-1.2,2.1-1.7c0.2-0.1,0.4-0.3,0.6-0.4
					c1.1-0.7,2.2-1.1,3.3-1.2c0,0,0,0,0-0.1c0,0,0,0-0.1,0c-1.1,0.2-2.3,0.6-3.4,1.3c-0.2,0.1-0.4,0.2-0.6,0.4
					c-0.7,0.5-1.4,1.1-2.1,1.7C20.7,44.1,20.5,44.2,20.5,44.5c-0.4,0.2-0.6,0.4-0.9,0.6c-0.4,0.3-0.8,0.6-1.1,0.8c0,0,0,0,0,0.1l0,0
					l0,0c0.3-0.2,0.7-0.4,1.1-0.8C19.9,45,20.2,44.7,20.5,44.5z"/>
				<path class="st19" d="M21.3,44.9c0.2-0.1,0.3-0.3,0.5-0.4c0.7-0.7,1.4-1.2,2.1-1.7c0.2-0.1,0.4-0.3,0.6-0.4
					c1.1-0.6,2.2-1.1,3.3-1.2c0,0,0,0,0-0.1c0,0,0,0-0.1,0c-1.1,0.2-2.3,0.6-3.3,1.3c-0.2,0.1-0.4,0.2-0.6,0.4
					c-0.7,0.5-1.4,1.1-2.1,1.7C21.5,44.6,21.4,44.7,21.3,44.9c-0.4,0.2-0.6,0.4-0.9,0.6c-0.4,0.3-0.8,0.6-1.1,0.8c0,0,0,0,0,0.1l0,0
					l0,0c0.4-0.2,0.7-0.4,1.1-0.8C20.7,45.4,21,45.2,21.3,44.9z"/>
				<path class="st19" d="M25.2,42.8c-0.2,0.1-0.4,0.2-0.6,0.4c-0.7,0.5-1.4,1.1-2.1,1.7c-0.2,0.1-0.3,0.3-0.5,0.4
					c-0.3,0.3-0.6,0.5-0.9,0.7c-0.4,0.3-0.8,0.6-1.1,0.8c0,0,0,0,0,0.1l0,0l0,0c0.4-0.2,0.7-0.4,1.1-0.8c0.3-0.2,0.6-0.5,0.9-0.7
					c0.2-0.1,0.3-0.3,0.5-0.4c0.7-0.7,1.4-1.2,2.1-1.7C24.8,43.2,25,43,25.2,42.8c1.1-0.6,2.2-1,3.3-1.2c0,0,0,0,0-0.1
					c0,0,0,0-0.1,0C27.4,41.7,26.2,42.2,25.2,42.8z"/>
			</g>
		</g>
		<g>
			<g>
				<g>
					<g>
						<g class="st20">
							<g>
								<path class="st21" d="M29.1,41.9l-7.9-4.6l-0.1-0.1L29.1,41.9L29.1,41.9z"/>
							</g>
							<g>
								<path class="st22" d="M29.2,41.6c-0.1,0.1-0.1,0.1-0.1,0.2l-7.9-4.6l0.1-0.2L29.2,41.6z"/>
							</g>
							<g>
								<path class="st23" d="M29.4,41.5h-0.1c0,0-0.1,0-0.1,0.1l-8-4.6l0.2-0.1L29.4,41.5z"/>
							</g>
						</g>
					</g>
					<g>
						<polygon class="st24" points="30.3,42.2 30.3,42.3 30.3,42.3 30.3,42.3 30.2,42.3 30.3,42.3 						"/>
					</g>
					<path d="M30.3,42.2L30,42l0,0c0,0,0,0-0.1,0l-0.1,0.1l0,0L30.3,42.2C30.3,42.3,30.3,42.3,30.3,42.2
						C30.3,42.3,30.3,42.3,30.3,42.2z"/>
					<path class="st25" d="M21.7,37h-0.1l-0.1,0.1c0,0.1-0.1,0.1-0.1,0.2v0.1L21,37.1c0,0-0.1,0-0.1-0.1s0-0.1,0.1-0.2
						c0-0.1,0.1-0.1,0.1-0.1h0.1l0,0L21.7,37z"/>
					<path class="st26" d="M29.4,41.5L29.4,41.5L29.4,41.5z"/>
				</g>
				<path class="st27" d="M29.4,41.5L29.4,41.5L29.4,41.5c-0.1,0-0.2,0-0.2,0s0,0,0,0.1l0,0c0,0-0.1,0.1-0.1,0.2l0,0v0.1l0,0
					l0.8,0.3l0,0c0,0,0-0.1,0.1-0.1c0,0,0,0,0.1,0L29.4,41.5z"/>
			</g>
			
				<linearGradient id="SVGID_1_" gradientUnits="userSpaceOnUse" x1="21.7732" y1="-2043.1643" x2="21.5925" y2="-2043.4897" gradientTransform="matrix(1 0 0 -1 0 -2006)">
				<stop  offset="0" style="stop-color:#78ACED"/>
				<stop  offset="1" style="stop-color:#4F7BB3"/>
			</linearGradient>
			<path class="st28" d="M22.1,37.3L22.1,37.3L22.1,37.3L21.7,37l0,0l0,0h-0.1l0,0h-0.1c-0.1,0-0.1,0.1-0.1,0.1
				c0,0.1-0.1,0.1-0.1,0.2c0,0,0,0.1,0.1,0.1h0.1l0,0l0,0l0.3,0.2l0,0l0,0l0.1,0.1l0,0l0,0l0,0c0,0,0,0,0-0.1l0,0v-0.1l0,0l0.1-0.1
				l0,0C22,37.3,22,37.2,22.1,37.3L22.1,37.3L22.1,37.3L22.1,37.3L22.1,37.3z"/>
		</g>
	</g>
</g>
<radialGradient id="SVGID_00000165226173799058378260000007724933298001627058_" cx="-688.774" cy="-3771.0562" r="15.9016" gradientTransform="matrix(-1.5353 0 0 -0.4819 -1032.4749 -1775.772)" gradientUnits="userSpaceOnUse">
	<stop  offset="0.4351" style="stop-color:#B4BCC1"/>
	<stop  offset="0.94" style="stop-color:#ECEEEF;stop-opacity:0"/>
</radialGradient>
<ellipse style="fill:url(#SVGID_00000165226173799058378260000007724933298001627058_);" cx="25" cy="41.5" rx="24.4" ry="7.7"/>
<g>
	<g>
		<polygon class="st30" points="38.766,28.648 32.709,41.421 32.346,40.895 38.404,28.124 		"/>
		<polygon class="st31" points="38.467,28.216 32.41,40.988 32.346,40.895 38.404,28.124 		"/>
		<polygon class="st31" points="38.617,28.432 32.559,41.204 32.495,41.111 38.553,28.339 		"/>
		<polygon class="st31" points="38.766,28.648 32.709,41.421 32.645,41.328 38.702,28.556 		"/>
		<polygon class="st32" points="32.346,40.895 32.709,41.421 13.343,42.987 12.98,42.462 		"/>
		<polygon class="st33" points="38.404,28.124 32.346,40.895 12.98,42.462 19.038,29.69 		"/>
		<polygon class="st34" points="19.519,30.387 14.188,41.628 31.864,40.197 37.195,28.958 		"/>
		<g>
			<polygon class="st35" points="21.937,38.102 20.653,40.805 20.496,40.818 21.778,38.114 			"/>
			<polygon class="st35" points="22.16,38.527 21.098,40.769 20.94,40.782 22.002,38.54 			"/>
		</g>
		<g>
			<polygon class="st35" points="31.168,36.11 29.474,39.681 29.266,39.698 30.96,36.127 			"/>
			<polygon class="st35" points="31.754,36.062 30.06,39.633 29.852,39.651 31.546,36.08 			"/>
			<polygon class="st35" points="32.339,36.016 30.646,39.586 30.437,39.602 32.13,36.032 			"/>
			<polygon class="st35" points="32.636,36.577 31.232,39.539 31.023,39.555 32.428,36.595 			"/>
		</g>
		<g>
			<polygon class="st35" points="21.05,38.174 19.767,40.876 19.609,40.889 20.891,38.186 			"/>
			<polygon class="st35" points="21.492,38.138 20.21,40.841 20.053,40.854 21.335,38.15 			"/>
		</g>
		<g>
			<polygon class="st35" points="20.458,30.824 15.637,40.929 15.393,40.948 20.215,30.844 			"/>
			<polygon class="st35" points="21.163,30.816 16.341,40.922 16.097,40.941 20.919,30.836 			"/>
		</g>
		<polygon class="st35" points="22.345,31.928 20.96,34.851 20.801,34.865 22.188,31.94 		"/>
		<polygon class="st35" points="23.187,30.152 22.494,31.614 22.336,31.627 23.03,30.165 		"/>
	</g>
	<polygon class="st36" points="33.578,35.033 29.154,30.133 27.8,32.989 23.968,31.845 22.481,34.982 27.347,36.447 28.85,33.277 	
		"/>
</g>
<g>
	<g>
		<g>
			<g>
				<polygon class="st37" points="13.898,24.536 14.972,24.548 14.176,25.859 13.104,25.848 				"/>
			</g>
		</g>
		<g>
			<g>
				<polygon class="st37" points="14.888,23.052 15.961,23.064 15.161,24.29 14.088,24.278 				"/>
			</g>
		</g>
		<g>
			<path class="st38" d="M15.712,24.223c-0.041-0.016-0.081-0.045-0.121-0.087l0,0c-0.04-0.042-0.079-0.098-0.117-0.167
				c-0.008-0.014-0.016-0.029-0.024-0.045l-1.072-0.011c0.002,0.003,0.003,0.007,0.005,0.01c0.004,0.008,0.009,0.017,0.013,0.024
				c0.002,0.004,0.004,0.007,0.006,0.011c0.002,0.004,0.005,0.008,0.007,0.012c0.004,0.007,0.008,0.014,0.012,0.021
				s0.008,0.013,0.012,0.019c0.004,0.006,0.008,0.012,0.012,0.017c0.004,0.006,0.007,0.011,0.011,0.016
				c0.004,0.006,0.008,0.01,0.011,0.016c0.004,0.005,0.007,0.01,0.01,0.014c0.003,0.004,0.007,0.009,0.011,0.013
				c0.003,0.004,0.007,0.009,0.01,0.013c0.003,0.004,0.007,0.008,0.01,0.012s0.007,0.008,0.01,0.011
				c0.001,0.001,0.002,0.001,0.001,0.002l0,0c0.003,0.003,0.006,0.006,0.008,0.008c0.004,0.003,0.007,0.006,0.01,0.01
				c0.004,0.003,0.007,0.006,0.01,0.01c0.004,0.003,0.007,0.006,0.011,0.009c0.004,0.003,0.007,0.005,0.01,0.008
				c0.004,0.003,0.007,0.005,0.012,0.008c0.004,0.003,0.007,0.005,0.012,0.008c0.004,0.003,0.008,0.005,0.012,0.007
				c0.004,0.003,0.009,0.005,0.012,0.007c0.004,0.003,0.021,0.01,0.025,0.011c0.002,0.001,0.005,0.002,0.007,0.003
				c0.009,0.003,0.018,0.006,0.027,0.008c0.012,0.003,0.025,0.005,0.037,0.007c0.008,0.002,0.016,0.002,0.025,0.002l1.072,0.011
				C15.777,24.242,15.745,24.236,15.712,24.223z"/>
		</g>
		<g>
			<path class="st37" d="M16.279,24.869c0.086-0.095,0.171-0.215,0.253-0.36c0.094-0.164,0.165-0.357,0.214-0.58
				c0.024-0.11,0.04-0.227,0.045-0.348c0.002-0.04-0.003-0.083-0.003-0.124c0-0.082,0.001-0.162-0.006-0.249
				c-0.001-0.004-0.001-0.009-0.002-0.013c-0.002-0.023-0.005-0.046-0.008-0.07c-0.002-0.021-0.006-0.043-0.009-0.065
				c-0.003-0.02-0.006-0.039-0.01-0.057c-0.003-0.018-0.008-0.036-0.011-0.054c-0.004-0.017-0.007-0.035-0.012-0.052
				c-0.004-0.016-0.008-0.034-0.013-0.051c-0.004-0.016-0.009-0.033-0.013-0.05c-0.001-0.003-0.002-0.006-0.002-0.01
				c0-0.001,0-0.001-0.001-0.003c-0.004-0.013-0.007-0.025-0.011-0.038c-0.005-0.017-0.011-0.033-0.016-0.05
				c-0.005-0.017-0.011-0.034-0.017-0.051c-0.006-0.017-0.012-0.034-0.018-0.052c-0.007-0.018-0.013-0.035-0.02-0.053
				c-0.007-0.018-0.014-0.036-0.021-0.054c-0.008-0.018-0.016-0.038-0.024-0.056c-0.008-0.019-0.017-0.039-0.026-0.058
				c-0.002-0.005-0.004-0.008-0.006-0.013c-0.005-0.011-0.01-0.022-0.015-0.033c-0.007-0.015-0.014-0.029-0.021-0.044
				c-0.007-0.015-0.016-0.03-0.023-0.045c-0.008-0.015-0.017-0.032-0.025-0.048c-0.005-0.008-0.008-0.015-0.013-0.023
				c-0.005-0.009-0.01-0.018-0.016-0.027c-0.01-0.018-0.02-0.035-0.031-0.052c-0.011-0.018-0.022-0.037-0.034-0.055
				c-0.012-0.02-0.025-0.04-0.038-0.059c-0.013-0.021-0.027-0.042-0.042-0.062c-0.016-0.022-0.032-0.044-0.048-0.067
				c-0.004-0.006-0.009-0.012-0.014-0.019c-0.002-0.002-0.004-0.005-0.006-0.008c-0.012-0.015-0.022-0.031-0.034-0.046
				c-0.02-0.026-0.04-0.052-0.061-0.078c-0.023-0.029-0.046-0.057-0.07-0.086c-0.027-0.031-0.053-0.063-0.081-0.094
				c-0.012-0.014-0.025-0.028-0.038-0.042l-1.072-0.011c0.105,0.116,0.199,0.232,0.284,0.347c0.001,0.002,0.002,0.004,0.004,0.006
				c0.084,0.115,0.159,0.23,0.222,0.343c0.036,0.065,0.069,0.13,0.099,0.194c0.066,0.145,0.12,0.287,0.16,0.426
				c0,0.001,0,0.001,0.001,0.003c0.04,0.139,0.067,0.275,0.08,0.407c0.009,0.088,0.007,0.17,0.007,0.253
				c0,0.043,0.005,0.089,0.003,0.131c-0.006,0.121-0.02,0.237-0.045,0.348c-0.049,0.223-0.12,0.416-0.214,0.58
				c-0.082,0.146-0.167,0.265-0.253,0.36c-0.029,0.031-0.059,0.044-0.089,0.071c-0.06,0.053-0.119,0.112-0.18,0.141
				c-0.09,0.043-0.178,0.065-0.267,0.063l1.072,0.011c0.018,0,0.038-0.001,0.056-0.003c0.032-0.003,0.063-0.009,0.095-0.018
				c0.038-0.01,0.076-0.024,0.114-0.044c0.003-0.002,0.006-0.002,0.008-0.004c0.058-0.029,0.114-0.087,0.171-0.137
				C16.22,24.914,16.249,24.902,16.279,24.869z"/>
		</g>
		<g>
			<path class="st39" d="M15.46,24.499c-0.166,0.293-0.34,0.484-0.522,0.571c-0.182,0.088-0.361,0.085-0.54-0.011
				c-0.178-0.094-0.344-0.269-0.499-0.523l-0.795,1.312l-0.503-0.895l2.257-3.494c0.213,0.235,0.383,0.467,0.511,0.696
				c0.036,0.065,0.069,0.13,0.099,0.194c0.134,0.291,0.214,0.57,0.24,0.836c0.027,0.266,0.015,0.511-0.034,0.733
				C15.625,24.141,15.553,24.334,15.46,24.499z M14.857,24.146c0.076-0.059,0.134-0.149,0.175-0.27
				c0.04-0.12,0.05-0.253,0.033-0.399c-0.014-0.108-0.049-0.214-0.107-0.319c-0.02-0.035-0.043-0.071-0.068-0.105l-0.545,0.833
				c0.008,0.015,0.016,0.03,0.024,0.045c0.077,0.138,0.156,0.222,0.239,0.254C14.697,24.219,14.781,24.206,14.857,24.146"/>
		</g>
	</g>
	<g>
		<path class="st40" d="M16.709,29.548"/>
		<g>
			<path class="st38" d="M16.276,27.887l-1.072-0.011c0.001,0.002,0.003,0.003,0.004,0.005c0.002,0.002,0.003,0.004,0.005,0.005
				c0.002,0.002,0.003,0.004,0.006,0.006s0.004,0.003,0.006,0.006c0.002,0.002,0.004,0.003,0.006,0.006
				c0.002,0.002,0.004,0.003,0.006,0.006c0.002,0.002,0.005,0.004,0.006,0.006c0.003,0.002,0.005,0.004,0.007,0.005
				c0.003,0.002,0.005,0.004,0.007,0.005c0.003,0.002,0.005,0.003,0.008,0.006c0.003,0.002,0.006,0.004,0.009,0.005
				c0.003,0.002,0.006,0.004,0.009,0.006c0.003,0.002,0.007,0.003,0.012,0.006c0.005,0.002,0.009,0.004,0.013,0.005
				c0.006,0.002,0.012,0.004,0.019,0.005c0.009,0.002,0.019,0.005,0.029,0.006c0.008,0.001,0.016,0.001,0.024,0.001l1.072,0.011
				C16.381,27.974,16.323,27.945,16.276,27.887z"/>
		</g>
		<g>
			<path class="st37" d="M16.255,27.852c-0.025-0.045-0.042-0.097-0.051-0.156l0,0c-0.008-0.058-0.008-0.123-0.001-0.194
				c0.019-0.16,0.069-0.333,0.148-0.517c0.081-0.185,0.179-0.361,0.297-0.532c0.117-0.17,0.24-0.313,0.369-0.43
				c0.073-0.066,0.142-0.113,0.21-0.15c0.053-0.028,0.105-0.051,0.155-0.063c0.022-0.004,0.044-0.008,0.065-0.007l-1.072-0.011
				c-0.009,0-0.019,0-0.029,0.001c-0.011,0.001-0.024,0.003-0.036,0.005c-0.009,0.002-0.017,0.004-0.026,0.007
				c-0.036,0.01-0.073,0.024-0.11,0.043c-0.007,0.003-0.013,0.01-0.018,0.013c-0.068,0.036-0.138,0.083-0.21,0.15
				c-0.129,0.117-0.251,0.26-0.369,0.43c-0.117,0.17-0.216,0.347-0.297,0.532c-0.081,0.185-0.13,0.357-0.148,0.517
				c-0.007,0.059-0.008,0.113-0.003,0.163c0.001,0.008,0.002,0.015,0.003,0.023c0.001,0.003,0.001,0.005,0.001,0.008l0,0.001
				c0.001,0.003,0.001,0.005,0.001,0.008c0.001,0.005,0.002,0.009,0.002,0.014c0.001,0.004,0.002,0.008,0.002,0.012
				c0,0.004,0.002,0.007,0.002,0.01c0.001,0.003,0.002,0.007,0.002,0.01c0.001,0.003,0.002,0.007,0.002,0.01
				c0.001,0.003,0.001,0.005,0.003,0.009c0.001,0.003,0.001,0.005,0.002,0.008c0.001,0.003,0.001,0.005,0.003,0.007
				c0.001,0.003,0.001,0.005,0.003,0.007c0.001,0.003,0.002,0.005,0.003,0.007c0.001,0.003,0.002,0.005,0.003,0.007
				c0.001,0.003,0.002,0.005,0.003,0.007c0.001,0.003,0.002,0.005,0.003,0.007s0.002,0.005,0.003,0.007
				c0.001,0.002,0.002,0.005,0.003,0.007s0.002,0.005,0.003,0.007s0.002,0.005,0.004,0.007c0,0.001,0.001,0.002,0.002,0.003
				c0,0.001,0.001,0.002,0.002,0.004c0.001,0.002,0.003,0.005,0.004,0.007s0.003,0.004,0.004,0.007
				c0.001,0.002,0.003,0.004,0.004,0.007c0.001,0.002,0.003,0.004,0.004,0.007c0.001,0.001,0.001,0.002,0.002,0.002l1.072,0.011
				C16.269,27.876,16.262,27.865,16.255,27.852z"/>
		</g>
		<g>
			<path class="st37" d="M18.465,26.983c0.08-0.336,0.106-0.669,0.078-0.996c-0.001-0.006-0.001-0.014-0.001-0.019
				c-0.003-0.028-0.006-0.057-0.01-0.085c-0.003-0.022-0.006-0.043-0.009-0.065c-0.003-0.018-0.006-0.036-0.01-0.055
				c-0.003-0.016-0.006-0.033-0.009-0.049c-0.003-0.015-0.007-0.03-0.011-0.045c-0.003-0.014-0.006-0.028-0.01-0.042
				c-0.003-0.014-0.007-0.027-0.011-0.04c-0.003-0.012-0.008-0.024-0.011-0.037l0,0l0-0.001c-0.004-0.013-0.008-0.024-0.012-0.037
				c-0.004-0.011-0.008-0.024-0.012-0.036c-0.004-0.012-0.008-0.023-0.013-0.035c-0.004-0.012-0.009-0.023-0.013-0.035
				c-0.004-0.012-0.01-0.023-0.013-0.035c-0.005-0.011-0.01-0.023-0.015-0.034c-0.005-0.011-0.01-0.022-0.015-0.034
				c-0.005-0.011-0.011-0.023-0.016-0.034c-0.006-0.012-0.011-0.023-0.017-0.034s-0.012-0.023-0.018-0.035
				c-0.006-0.012-0.013-0.024-0.019-0.035c-0.003-0.005-0.006-0.011-0.009-0.016c-0.003-0.007-0.008-0.013-0.011-0.019
				c-0.007-0.012-0.013-0.024-0.022-0.036c-0.002-0.003-0.004-0.006-0.005-0.009c-0.006-0.008-0.011-0.016-0.016-0.024
				c-0.009-0.014-0.019-0.027-0.028-0.041c-0.009-0.014-0.018-0.026-0.028-0.039c-0.009-0.012-0.019-0.025-0.028-0.037
				c-0.009-0.012-0.018-0.024-0.028-0.035s-0.018-0.022-0.028-0.034c-0.009-0.011-0.019-0.022-0.028-0.033
				c-0.009-0.01-0.019-0.021-0.028-0.031c-0.009-0.01-0.019-0.021-0.029-0.03c-0.01-0.009-0.02-0.02-0.029-0.029
				c-0.006-0.006-0.012-0.011-0.018-0.017l-0.001-0.001c-0.004-0.003-0.008-0.007-0.011-0.01c-0.01-0.01-0.021-0.018-0.031-0.026
				c-0.011-0.009-0.021-0.017-0.032-0.026c-0.011-0.009-0.023-0.017-0.034-0.025c-0.012-0.008-0.024-0.017-0.035-0.025
				c-0.012-0.009-0.025-0.016-0.038-0.024c-0.014-0.008-0.028-0.016-0.041-0.022c-0.015-0.008-0.031-0.015-0.046-0.022
				c-0.014-0.006-0.028-0.012-0.042-0.017c-0.005-0.002-0.01-0.003-0.015-0.006c-0.028-0.01-0.056-0.019-0.085-0.026
				c-0.041-0.011-0.082-0.019-0.123-0.023c-0.031-0.003-0.062-0.005-0.092-0.006l-1.072-0.011c0.106,0.002,0.212,0.021,0.317,0.061
				c0.107,0.041,0.211,0.106,0.311,0.198c0.001,0.001,0.001,0.001,0.002,0.001c0.099,0.092,0.194,0.208,0.285,0.349
				c0.013,0.022,0.025,0.042,0.037,0.064c0.072,0.128,0.128,0.261,0.171,0.401l0,0c0.043,0.139,0.07,0.285,0.083,0.436
				c0.028,0.328,0.002,0.659-0.078,0.996c-0.08,0.336-0.199,0.655-0.357,0.953c-0.158,0.299-0.341,0.556-0.547,0.772
				c-0.095,0.099-0.193,0.181-0.291,0.252c-0.031,0.022-0.063,0.039-0.094,0.059c-0.086,0.055-0.173,0.107-0.264,0.142
				c-0.114,0.044-0.226,0.065-0.337,0.064l1.072,0.011c0.029,0,0.059-0.001,0.088-0.003c0.051-0.005,0.101-0.015,0.151-0.027
				c0.032-0.009,0.065-0.019,0.098-0.032c0.043-0.016,0.086-0.035,0.128-0.056c0.046-0.023,0.09-0.057,0.135-0.085
				c0.031-0.02,0.063-0.037,0.094-0.059c0.099-0.072,0.196-0.153,0.291-0.252c0.207-0.216,0.389-0.474,0.548-0.773
				C18.265,27.638,18.384,27.32,18.465,26.983z"/>
		</g>
		<g>
			<path class="st39" d="M17.035,27.925c-0.158,0.299-0.341,0.556-0.547,0.772c-0.207,0.216-0.423,0.367-0.648,0.453
				c-0.225,0.087-0.445,0.085-0.66-0.004c-0.214-0.089-0.408-0.288-0.582-0.597c-0.156-0.293-0.246-0.607-0.271-0.938
				c-0.025-0.331,0.001-0.663,0.079-0.992c0.078-0.33,0.194-0.638,0.348-0.925s0.332-0.533,0.534-0.738
				c0.202-0.204,0.414-0.347,0.638-0.429s0.442-0.082,0.658-0.001c0.215,0.082,0.415,0.263,0.597,0.548
				c0.013,0.022,0.025,0.042,0.037,0.064c0.143,0.256,0.228,0.535,0.253,0.837c0.028,0.328,0.002,0.659-0.078,0.996
				C17.311,27.308,17.192,27.626,17.035,27.925z M16.193,27.314c0.118-0.163,0.22-0.332,0.304-0.508s0.138-0.341,0.16-0.496
				c0.021-0.147,0.005-0.27-0.05-0.369c-0.004-0.006-0.006-0.011-0.01-0.016c-0.076-0.107-0.171-0.149-0.286-0.124
				c-0.115,0.025-0.237,0.095-0.366,0.212c-0.129,0.117-0.251,0.26-0.369,0.43c-0.117,0.17-0.216,0.347-0.297,0.532
				c-0.081,0.185-0.13,0.357-0.148,0.517c-0.017,0.141,0.001,0.259,0.052,0.35c0.007,0.012,0.013,0.023,0.021,0.033
				c0.066,0.082,0.155,0.107,0.265,0.075c0.11-0.032,0.228-0.106,0.356-0.22C15.952,27.615,16.074,27.476,16.193,27.314"/>
		</g>
	</g>
	<g>
		<g class="st20">
			<g>
				<g>
					<polygon class="st41" points="17.555,30.172 18.628,30.184 17.136,31.23 16.063,31.218 					"/>
				</g>
			</g>
			<g>
				<g>
					<polygon class="st41" points="18.493,27.852 19.566,27.864 18.592,29.212 17.52,29.201 					"/>
				</g>
			</g>
			<g>
				<g>
					<polygon class="st37" points="17.949,26.873 19.022,26.885 19.566,27.864 18.493,27.852 					"/>
				</g>
			</g>
			<g>
				<g>
					<polygon class="st37" points="18.221,28.73 19.294,28.742 19.616,29.259 18.544,29.247 					"/>
				</g>
			</g>
			<g>
				<g>
					<polygon class="st41" points="18.544,29.247 19.616,29.259 19.256,30.299 18.183,30.287 					"/>
				</g>
			</g>
			<g>
				<g>
					<polygon class="st41" points="19.637,29.892 20.709,29.903 18.36,33.319 17.287,33.307 					"/>
				</g>
			</g>
			<g>
				<g>
					<polygon class="st37" points="19.089,28.917 20.161,28.928 20.709,29.903 19.637,29.892 					"/>
				</g>
			</g>
			<g>
				<polygon class="st39" points="19.089,28.917 19.637,29.892 17.287,33.307 16.755,32.455 17.555,30.172 16.063,31.218 
					15.593,30.277 17.949,26.873 18.493,27.852 17.52,29.201 18.221,28.73 18.544,29.247 18.183,30.287 				"/>
			</g>
		</g>
	</g>
	<g>
		<g>
			<path class="st42" d="M18.644,33.78l1.072,0.011c-0.001-0.011-0.001-0.022-0.003-0.032c-0.001-0.016-0.003-0.031-0.006-0.045
				c-0.001-0.011-0.003-0.022-0.005-0.033c-0.002-0.009-0.003-0.018-0.004-0.026c-0.001-0.008-0.003-0.015-0.004-0.022
				c-0.002-0.007-0.003-0.013-0.004-0.02c-0.001-0.005-0.003-0.012-0.005-0.018s-0.003-0.011-0.004-0.016
				c-0.001-0.005-0.003-0.01-0.005-0.016c-0.002-0.005-0.002-0.01-0.004-0.014c-0.002-0.005-0.003-0.009-0.005-0.013
				c-0.002-0.005-0.003-0.009-0.005-0.013c-0.001-0.004-0.003-0.008-0.004-0.012s-0.003-0.008-0.004-0.012
				c-0.001-0.004-0.003-0.008-0.005-0.011c-0.002-0.003-0.003-0.008-0.005-0.011c-0.002-0.003-0.003-0.008-0.005-0.011
				c-0.002-0.003-0.004-0.007-0.006-0.01c-0.002-0.003-0.004-0.007-0.006-0.01c-0.002-0.003-0.004-0.007-0.006-0.01
				c-0.001-0.002-0.002-0.003-0.003-0.005c-0.001-0.002-0.002-0.004-0.003-0.005c-0.002-0.003-0.004-0.007-0.006-0.01
				c-0.002-0.003-0.004-0.007-0.006-0.009c-0.002-0.003-0.004-0.007-0.006-0.009c-0.002-0.004-0.004-0.006-0.007-0.01
				c-0.002-0.004-0.004-0.006-0.007-0.01c-0.002-0.004-0.004-0.006-0.007-0.01c-0.002-0.004-0.005-0.007-0.008-0.01
				c-0.003-0.003-0.004-0.006-0.007-0.009l-0.001-0.001c-0.003-0.003-0.005-0.007-0.007-0.009c-0.003-0.003-0.006-0.006-0.008-0.01
				c-0.003-0.003-0.006-0.006-0.009-0.009s-0.006-0.006-0.009-0.009c-0.003-0.003-0.006-0.006-0.01-0.009
				c-0.003-0.003-0.007-0.006-0.01-0.008c-0.003-0.003-0.007-0.005-0.01-0.008c-0.004-0.003-0.007-0.005-0.012-0.008
				c-0.004-0.003-0.007-0.005-0.012-0.008c-0.004-0.003-0.009-0.005-0.013-0.008c-0.004-0.003-0.009-0.005-0.013-0.008l0,0
				l-0.001-0.001c-0.005-0.003-0.011-0.005-0.016-0.007c-0.007-0.003-0.013-0.005-0.019-0.008c-0.008-0.002-0.017-0.005-0.025-0.008
				c-0.012-0.003-0.025-0.005-0.038-0.007c-0.01-0.001-0.021-0.002-0.031-0.002l-1.072-0.011c0.046,0.001,0.089,0.011,0.129,0.032
				l0,0c0.04,0.02,0.078,0.052,0.113,0.094c0.021,0.025,0.04,0.053,0.058,0.083c0.027,0.048,0.049,0.102,0.064,0.162l0,0
				C18.628,33.642,18.639,33.709,18.644,33.78z"/>
		</g>
		<g>
			<path class="st41" d="M19.615,34.299c0.075-0.147,0.109-0.316,0.102-0.506l-1.072-0.011c0.007,0.191-0.027,0.36-0.102,0.506
				c-0.055,0.107-0.126,0.174-0.206,0.222c-0.03,0.018-0.057,0.043-0.09,0.052c-0.026,0.006-0.051,0.008-0.075,0.007l1.072,0.011
				c0.012,0,0.022-0.001,0.034-0.002c0.014-0.001,0.028-0.003,0.041-0.007c0.023-0.007,0.045-0.015,0.066-0.026
				c0.01-0.005,0.015-0.02,0.023-0.026C19.489,34.474,19.561,34.406,19.615,34.299z"/>
		</g>
		<g>
			<path class="st39" d="M18.644,33.78c0.007,0.191-0.027,0.36-0.102,0.506c-0.074,0.147-0.173,0.238-0.296,0.274
				c-0.123,0.027-0.23-0.013-0.318-0.119c-0.022-0.026-0.041-0.054-0.058-0.085c-0.053-0.096-0.085-0.215-0.095-0.359
				c-0.007-0.191,0.026-0.36,0.101-0.508c0.075-0.147,0.174-0.239,0.297-0.274c0.123-0.027,0.229,0.013,0.317,0.118
				c0.021,0.025,0.04,0.053,0.058,0.083C18.601,33.515,18.633,33.635,18.644,33.78z"/>
		</g>
		<g class="st20">
			<g>
				<g>
					<polygon class="st41" points="20.552,31.439 21.625,31.451 19.885,33.717 18.813,33.705 					"/>
				</g>
			</g>
			<g>
				<g>
					<polygon class="st37" points="19.964,30.465 21.038,30.477 21.625,31.451 20.552,31.439 					"/>
				</g>
			</g>
			<g>
				<polygon class="st39" points="20.552,31.439 18.813,33.705 18.393,32.937 19.964,30.465 				"/>
			</g>
		</g>
	</g>
</g>
</svg>
