<?xml version="1.0" encoding="utf-8"?>
<!-- Generator: Adobe Illustrator 25.4.1, SVG Export Plug-In . SVG Version: 6.00 Build 0)  -->
<svg version="1.1" id="Layer_1" xmlns="http://www.w3.org/2000/svg" xmlns:xlink="http://www.w3.org/1999/xlink" x="0px" y="0px"
	 viewBox="0 0 50 50" style="enable-background:new 0 0 50 50;" xml:space="preserve">
<style type="text/css">
	.st0{display:none;}
	.st1{display:inline;}
	.st2{fill:#344593;}
	.st3{fill:#3E54A3;}
	.st4{fill:#2E4490;}
	.st5{fill:#122571;}
	.st6{opacity:0.5;fill:#031F60;enable-background:new    ;}
	.st7{fill:#BBDFFF;}
	.st8{fill:#FDB724;}
	.st9{fill:#E7478D;}
	.st10{fill:#BF2878;}
	.st11{fill:#27DEBF;}
	.st12{fill:#1BBC9D;}
	.st13{fill:#A33D64;}
	.st14{fill:#82294D;}
	.st15{fill:#0A4A80;}
	.st16{fill:#F1FCFF;}
	.st17{fill:#D6E6FF;}
	.st18{fill:#CEF3FF;}
	.st19{fill:#606060;}
	.st20{enable-background:new    ;}
	.st21{fill:#F19729;}
	.st22{fill:#FCB040;}
	.st23{fill:#FFCB49;}
	.st24{fill:#2E5677;}
	.st25{fill:#FF51CE;}
	.st26{fill:#EDE6A0;}
	.st27{fill:#FFF7B0;}
	.st28{fill:url(#SVGID_1_);}
	.st29{fill:url(#SVGID_00000014605368646642162130000010455800192624836235_);}
	.st30{fill-rule:evenodd;clip-rule:evenodd;fill:#34485C;}
	.st31{fill-rule:evenodd;clip-rule:evenodd;fill:#2C3E50;}
	.st32{fill-rule:evenodd;clip-rule:evenodd;fill:#3D566E;}
	.st33{fill-rule:evenodd;clip-rule:evenodd;fill:#BDBDBD;}
	.st34{fill-rule:evenodd;clip-rule:evenodd;fill:#9C9C9C;}
	.st35{fill-rule:evenodd;clip-rule:evenodd;fill:#E6EAEB;}
</style>
<g id="Example" class="st0">
	<g class="st1">
		<g id="XMLID_4903_">
			<path id="XMLID_4905_" class="st2" d="M45.3,33.2v-4.6l0,0c0-0.9-0.6-1.8-1.7-2.4c-2.3-1.3-6-1.3-8.4,0c-1.2,0.7-1.7,1.6-1.7,2.4
				l0,0v4.5c0,0.9,0.6,1.8,1.7,2.4c2.3,1.3,6,1.3,8.4,0C44.8,34.9,45.3,34.1,45.3,33.2L45.3,33.2L45.3,33.2L45.3,33.2z"/>
			<path id="XMLID_4904_" class="st2" d="M45.3,33.2v-4.6l0,0c0-0.9-0.6-1.8-1.7-2.4c-2.3-1.3-6-1.3-8.4,0c-1.2,0.7-1.7,1.6-1.7,2.4
				l0,0v4.5c0,0.9,0.6,1.8,1.7,2.4c2.3,1.3,6,1.3,8.4,0C44.8,34.9,45.3,34.1,45.3,33.2L45.3,33.2L45.3,33.2L45.3,33.2z"/>
		</g>
		<polygon id="XMLID_4900_" class="st3" points="39.4,23 29.7,28.6 39.4,34.2 49.2,28.6 		"/>
		<path id="XMLID_4899_" class="st4" d="M44.3,31.4l-4.8-2.7c-0.1,0-0.2,0-0.2,0.1s0,0.2,0.1,0.2l4.6,2.6L44.3,31.4z"/>
		<polygon id="XMLID_4896_" class="st5" points="29.7,28.6 29.7,29 39.4,34.6 39.4,34.2 		"/>
		<polygon id="XMLID_4883_" class="st4" points="49.2,28.6 49.2,29 39.4,34.6 39.4,34.2 		"/>
		<polygon id="XMLID_4876_" class="st6" points="33.5,31.2 39.4,35.2 45.3,31.2 39.4,34.6 		"/>
		<g id="XMLID_4823_">
			<path id="XMLID_4835_" class="st7" d="M44.7,36.2c-0.1,0-0.2-0.1-0.2-0.2v-4c0-0.2-0.1-0.4-0.3-0.4l-4.9-2.8
				c-0.1,0-0.1-0.2-0.1-0.2c0-0.1,0.2-0.1,0.2-0.1l4.9,2.8c0.3,0.2,0.4,0.4,0.4,0.7v4C44.8,36.1,44.7,36.2,44.7,36.2z"/>
		</g>
		<path class="st8" d="M45.3,39.3L45,36.6c0.1-0.1,0.1-0.2,0-0.2l0,0l0,0l0,0v-0.1l0,0l0,0l0,0c0-0.2-0.2-0.4-0.4-0.4c0,0,0,0-0.1,0
			l0,0l0,0c0,0,0,0-0.1,0c0,0,0,0-0.1,0c0,0,0,0-0.1,0c0,0,0,0,0,0.1l0,0v0.1c0,0.1,0,0.2,0.1,0.3l0,0c-0.1,0.1,0,0.2,0,0.2L44,39.3
			c0,0.1,0.1,0.2,0.3,0.3l0,0h0.1l0,0c0.1,0,0.2,0.1,0.3,0.1l0,0l0,0l0,0l0,0l0,0c0.1,0,0.2,0,0.3-0.1l0,0h0.1l0,0
			C45.3,39.5,45.3,39.4,45.3,39.3z"/>
	</g>
	<g id="XMLID_3738_" class="st1">
		<path id="XMLID_4404_" class="st9" d="M12.4,36.1c1.1-0.8,1.8-2.7,1.7-4c-0.1-1.4-1.2-2-1.7-2.3l0,0c-1.1-0.6-2.8-0.6-3.9,0l0,0
			C8,30.1,7,30.7,6.8,32.1c-0.1,1.3,0.6,3.2,1.7,4l0,0c0.1,0,0.1,0.1,0.2,0.1c1,0.6,2.6,0.6,3.6,0l0,0
			C12.3,36.2,12.4,36.1,12.4,36.1L12.4,36.1z"/>
		<path id="XMLID_4395_" class="st10" d="M9.9,30.8c-0.3,0.2-0.3,0.4,0,0.6s0.8,0.2,1.1,0s0.3-0.4,0-0.6
			C10.7,30.6,10.2,30.6,9.9,30.8z"/>
		<g id="XMLID_4426_">
			<path id="XMLID_2198_" class="st11" d="M10.5,31.2c0,0-0.9,0-1.4-0.7s0-1.9,0-1.9s1.1,0.1,1.7,1C11.2,30.4,10.5,31.2,10.5,31.2z"
				/>
			<path id="XMLID_4431_" class="st12" d="M9,30.5c0.5,0.7,1.4,0.7,1.4,0.7C10.3,29.6,9,28.6,9,28.6S8.5,29.8,9,30.5z"/>
		</g>
		<path id="XMLID_4403_" class="st13" d="M10.5,31.2c0,0,0-1.3,0.7-1.9s1.2-0.6,1.2-0.6c0.4,0,0.9,0.4,0.7,0.4c0,0-0.9,0-1.5,0.5
			s-0.9,1.5-0.9,1.6c0,0,0,0.1-0.1,0.1C10.5,31.3,10.5,31.2,10.5,31.2z"/>
		<path id="XMLID_4496_" class="st14" d="M12.4,28.7c-0.1,0-0.1,0.1,0.2,0.3c0.2,0.1,0.4,0.2,0.5,0.2l0,0
			C13.3,29,12.8,28.7,12.4,28.7z"/>
	</g>
	<g class="st1">
		<g>
			<path class="st15" d="M26,28.8L26,28.8c-1,0.6-1.9,1-2.8,1.2l0,0c0,0,0,0-0.1,0l-0.5,0.2h-0.1c-0.1,0-0.2,0.1-0.3,0.1h-0.1
				c-0.1,0-0.2,0.1-0.2,0.1h-0.1c-0.5,0.2-0.9,0.4-1.4,0.7c-0.1,0.1-0.2,0.1-0.3,0.2L20,31.4c-0.4,0.3-2,1.5-2.9,2.5l-0.6,0.6
				L16,34.6c-1,0.2-2,0.5-3,1.1c-0.1,0.1-0.2,0.1-0.3,0.2c-0.3,0.2-0.5,0.3-0.8,0.5l0,0l-0.1,0.1c-0.1,0.1-0.2,0.1-0.3,0.2l0,0l0,0
				c-0.4,0.3-0.9,0.7-1.3,1.1c-0.1,0.1-0.2,0.2-0.3,0.3c-0.3,0.3-0.7,0.6-1,0.9H8.8c-0.3,0.3-0.7,0.5-1,0.8
				c-0.2,0.2-0.5,0.3-0.7,0.5H7l13.7,8.3h0.1c0.8-0.5,1.7-1.2,2.5-1.9c0.5-0.5,1.1-0.9,1.7-1.4c1.2-0.9,2.3-1.5,3.2-1.8
				c0.7-0.3,1.4-0.5,2.1-0.6l0.5-0.6c0.7-0.7,1.5-1.3,2.4-1.8c1.5-1,3.2-1.8,4.9-2.5c0.6-0.2,1.2-0.5,1.6-0.7l0.2-0.1L26,28.8z"/>
			<g>
				<g>
					<g>
						<path class="st16" d="M39.1,36.7c-0.5,0.3-0.7,0.4-1.2,0.6c-0.3,0.1-0.5,0.2-0.8,0.3c-0.2,0.1-0.3,0.1-0.5,0.1
							c-0.7,0.2-1.4,0.4-2,0.8c-0.2,0.1-0.4,0.2-0.6,0.3c-1.3,0.8-2.6,2-3.9,3.5l-2.5-1.5l-11-6.7c1.3-1.5,2.6-2.7,3.9-3.5
							c0.2-0.1,0.4-0.2,0.6-0.3c0.7-0.4,1.4-0.6,2-0.8c0.2,0,0.3-0.1,0.5-0.1c0.3-0.1,0.5-0.2,0.8-0.3c0.5-0.2,0.7-0.3,1.2-0.6
							L39.1,36.7z"/>
						<g>
							<path class="st16" d="M30.1,42.3c-1.3,0.1-2.6,0.5-3.9,1.3c-0.2,0.1-0.4,0.2-0.6,0.4c-0.7,0.5-1.4,1-2,1.7
								c-0.2,0.2-0.3,0.3-0.5,0.4c-0.3,0.3-0.6,0.5-0.9,0.7c-0.5,0.4-0.8,0.6-1.3,0.9L7.5,39.5C8,39.2,8.3,39,8.8,38.6
								c0.3-0.2,0.6-0.5,0.9-0.7c0.2-0.1,0.3-0.3,0.5-0.4c0.7-0.6,1.4-1.2,2-1.7c0.2-0.1,0.4-0.3,0.6-0.4c1.3-0.8,2.6-1.2,3.9-1.3
								l11,6.7L30.1,42.3z"/>
						</g>
					</g>
					<polygon class="st17" points="7.5,39.5 7.3,40.3 20.7,48.5 20.9,47.7 					"/>
					<path class="st18" d="M39.4,37.1c-0.9,0.6-1.8,1-2.7,1.2c0,0,0,0-0.1,0s-0.2,0-0.3,0.1c-0.1,0-0.2,0.1-0.3,0.1
						s-0.2,0.1-0.3,0.1c-0.6,0.2-1.2,0.5-1.8,0.9c-0.1,0.1-0.2,0.1-0.3,0.2c-1,0.7-2,1.5-3,2.5L30,42.8l-0.6,0.1c-1,0.2-2,0.5-3,1.1
						c-0.1,0.1-0.2,0.1-0.3,0.2c-0.3,0.2-0.5,0.3-0.8,0.5c-0.6,0.4-1.1,0.9-1.7,1.4c-0.1,0.1-0.2,0.2-0.3,0.3
						c-0.9,0.9-1.8,1.6-2.7,2.2l0.2-0.8c0.5-0.3,0.8-0.5,1.3-0.9c0.3-0.2,0.6-0.5,0.9-0.7c0.2-0.1,0.3-0.3,0.5-0.4
						c0.7-0.6,1.4-1.2,2-1.7c0.2-0.1,0.4-0.3,0.6-0.4c1.3-0.8,2.6-1.2,3.9-1.3c1.3-1.5,2.6-2.7,3.9-3.5c0.2-0.1,0.4-0.2,0.6-0.3
						c0.7-0.4,1.4-0.6,2-0.8c0.2,0,0.3-0.1,0.5-0.1c0.3-0.1,0.5-0.2,0.8-0.3c0.5-0.2,0.7-0.3,1.2-0.6L39.4,37.1z"/>
				</g>
			</g>
			<g>
				<path class="st19" d="M17.8,34.6C17.9,34.6,17.9,34.6,17.8,34.6c1.2-1.4,2.5-2.5,3.7-3.2c0.2-0.1,0.4-0.2,0.5-0.3
					c0.7-0.3,1.3-0.6,2-0.8c0.2,0,0.3-0.1,0.5-0.1c0.3-0.1,0.5-0.2,0.8-0.3c0.4-0.2,0.7-0.3,1.1-0.5c0,0,0,0,0-0.1s0,0-0.1,0
					c-0.4,0.2-0.6,0.3-1,0.5c-0.3,0.1-0.5,0.2-0.8,0.3c-0.2,0.1-0.3,0.1-0.5,0.1c-0.7,0.2-1.3,0.4-2,0.8c-0.2,0.1-0.4,0.2-0.6,0.3
					C20.3,32.1,19,33.2,17.8,34.6C17.8,34.5,17.8,34.6,17.8,34.6L17.8,34.6z"/>
				<path class="st19" d="M25.4,30.6c-0.2,0.1-0.3,0.1-0.5,0.1c-0.7,0.2-1.3,0.4-2,0.8c-0.2,0.1-0.4,0.2-0.6,0.3
					c-1.2,0.7-2.5,1.8-3.7,3.2v0.1l0,0l0,0c1.2-1.4,2.5-2.5,3.7-3.2c0.2-0.1,0.4-0.2,0.6-0.3c0.7-0.4,1.3-0.6,2-0.8
					C25.1,30.8,25.3,30.7,25.4,30.6c0.3,0,0.6-0.1,0.8-0.2c0.4-0.2,0.6-0.3,1-0.5c0,0,0,0,0-0.1c0,0,0,0-0.1,0
					c-0.4,0.2-0.6,0.3-1,0.5C25.9,30.4,25.7,30.5,25.4,30.6z"/>
				<path class="st19" d="M26.2,31.1c-0.2,0.1-0.3,0.1-0.5,0.1c-0.7,0.2-1.3,0.4-2,0.8c-0.2,0.1-0.4,0.2-0.6,0.3
					c-1.2,0.7-2.5,1.8-3.7,3.2v0.1l0,0l0,0c1.2-1.4,2.5-2.5,3.7-3.2c0.2-0.1,0.4-0.2,0.6-0.3c0.7-0.4,1.4-0.6,2-0.8
					C25.9,31.3,26.1,31.2,26.2,31.1c0.3,0,0.6-0.1,0.8-0.2c0.4-0.2,0.6-0.3,1-0.5c0,0,0,0,0-0.1c0,0,0,0-0.1,0
					c-0.4,0.2-0.6,0.3-1,0.5C26.8,30.9,26.5,31,26.2,31.1z"/>
				<path class="st19" d="M27.1,31.5c-0.2,0.1-0.3,0.1-0.5,0.1c-0.7,0.2-1.3,0.4-2,0.8c-0.2,0.1-0.4,0.2-0.6,0.3
					c-1.2,0.7-2.5,1.8-3.7,3.2V36l0,0l0,0c1.2-1.4,2.5-2.5,3.7-3.2c0.2-0.1,0.4-0.2,0.6-0.3c0.7-0.4,1.4-0.6,2-0.8
					C26.7,31.7,26.9,31.7,27.1,31.5c0.3,0,0.6-0.1,0.8-0.2c0.4-0.2,0.6-0.3,1-0.5c0,0,0,0,0-0.1c0,0,0,0-0.1,0
					c-0.4,0.2-0.6,0.3-1,0.5C27.6,31.4,27.3,31.5,27.1,31.5z"/>
				<path class="st19" d="M27.9,32c-0.2,0.1-0.3,0.1-0.5,0.1c-0.7,0.2-1.4,0.4-2,0.8c-0.2,0.1-0.4,0.2-0.6,0.3
					c-1.2,0.7-2.5,1.9-3.7,3.2v0.1l0,0l0,0c1.2-1.4,2.5-2.5,3.7-3.2c0.2-0.1,0.4-0.2,0.6-0.3c0.7-0.4,1.4-0.6,2-0.8
					C27.6,32.2,27.8,32.2,27.9,32c0.3,0,0.6-0.1,0.8-0.2c0.4-0.2,0.6-0.3,1-0.5c0,0,0,0,0-0.1c0,0,0,0-0.1,0c-0.4,0.2-0.6,0.3-1,0.5
					C28.4,31.8,28.1,31.9,27.9,32z"/>
				<path class="st19" d="M28.7,32.5c-0.2,0.1-0.3,0.1-0.5,0.1c-0.7,0.2-1.4,0.4-2,0.8c-0.2,0.1-0.4,0.2-0.6,0.3
					c-1.2,0.7-2.5,1.9-3.7,3.2V37l0,0l0,0c1.2-1.4,2.5-2.5,3.7-3.2c0.2-0.1,0.4-0.2,0.6-0.3c0.7-0.4,1.4-0.6,2-0.8
					C28.4,32.7,28.6,32.6,28.7,32.5c0.3,0,0.6-0.1,0.8-0.2c0.4-0.2,0.6-0.3,1-0.5c0,0,0,0,0-0.1c0,0,0,0-0.1,0
					c-0.3,0.2-0.6,0.3-0.9,0.5C29.2,32.3,29,32.4,28.7,32.5z"/>
				<path class="st19" d="M29.6,33c-0.2,0.1-0.3,0.1-0.5,0.1c-0.7,0.2-1.4,0.4-2.1,0.8c-0.2,0.1-0.4,0.2-0.6,0.3
					c-1.2,0.7-2.5,1.9-3.8,3.3v0.1l0,0l0,0c1.2-1.4,2.5-2.5,3.7-3.2c0.2-0.1,0.4-0.2,0.6-0.3c0.7-0.4,1.4-0.6,2-0.8
					C29.2,33.2,29.4,33.1,29.6,33c0.3,0,0.6-0.1,0.8-0.2c0.4-0.2,0.6-0.3,0.9-0.5c0,0,0,0,0-0.1c0,0,0,0-0.1,0
					c-0.3,0.2-0.5,0.3-0.9,0.4C30.1,32.8,29.8,32.9,29.6,33z"/>
				<path class="st19" d="M30.4,33.5c-0.2,0.1-0.3,0.1-0.5,0.1c-0.7,0.2-1.4,0.4-2.1,0.8c-0.2,0.1-0.4,0.2-0.6,0.3
					c-1.2,0.7-2.5,1.9-3.8,3.3v0.1l0,0l0,0c1.2-1.4,2.5-2.5,3.7-3.2c0.2-0.1,0.4-0.2,0.6-0.3c0.7-0.4,1.4-0.6,2-0.8
					C30.1,33.7,30.2,33.6,30.4,33.5c0.3,0,0.5-0.1,0.8-0.2c0.4-0.2,0.6-0.3,0.9-0.4c0,0,0,0,0-0.1c0,0,0,0-0.1,0
					c-0.3,0.2-0.5,0.3-0.9,0.4C30.9,33.3,30.6,33.4,30.4,33.5z"/>
				<path class="st19" d="M31.2,33.9C31,34,30.9,34,30.7,34.1c-0.7,0.2-1.4,0.4-2.1,0.8c-0.2,0.1-0.4,0.2-0.6,0.3
					c-1.2,0.7-2.5,1.9-3.8,3.3v0.1l0,0l0,0c1.2-1.4,2.5-2.5,3.8-3.3c0.2-0.1,0.4-0.2,0.6-0.3c0.7-0.4,1.4-0.6,2-0.8
					C30.9,34.1,31.1,34.1,31.2,33.9c0.3,0,0.5-0.1,0.8-0.2c0.4-0.2,0.6-0.2,0.9-0.4c0,0,0,0,0-0.1c0,0,0,0-0.1,0
					c-0.3,0.2-0.5,0.3-0.9,0.4C31.7,33.8,31.5,33.9,31.2,33.9z"/>
				<path class="st19" d="M32,34.4c-0.2,0.1-0.3,0.1-0.5,0.1c-0.7,0.2-1.4,0.4-2.1,0.8c-0.2,0.1-0.4,0.2-0.6,0.3
					c-1.2,0.7-2.6,1.9-3.8,3.3V39l0,0l0,0c1.2-1.4,2.5-2.5,3.8-3.3c0.2-0.1,0.4-0.2,0.6-0.3c0.7-0.4,1.4-0.6,2-0.8
					C31.7,34.6,31.9,34.6,32,34.4c0.3,0,0.5-0.1,0.8-0.2c0.4-0.2,0.6-0.2,0.9-0.4c0,0,0,0,0-0.1c0,0,0,0-0.1,0
					c-0.3,0.2-0.5,0.3-0.9,0.4C32.6,34.2,32.3,34.3,32,34.4z"/>
				<path class="st19" d="M32.9,34.9C32.7,35,32.6,35,32.4,35c-0.7,0.2-1.4,0.4-2.1,0.8c-0.2,0.1-0.4,0.2-0.6,0.3
					c-1.2,0.8-2.6,1.9-3.8,3.3v0.1l0,0l0,0c1.2-1.4,2.5-2.5,3.8-3.3c0.2-0.1,0.4-0.2,0.6-0.3c0.7-0.4,1.4-0.6,2.1-0.8
					C32.6,35.1,32.7,35,32.9,34.9c0.3,0,0.5-0.1,0.8-0.2c0.3-0.1,0.6-0.2,0.9-0.4c0,0,0,0,0-0.1c0,0,0,0-0.1,0
					c-0.3,0.2-0.5,0.3-0.8,0.4C33.4,34.7,33.1,34.8,32.9,34.9z"/>
				<path class="st19" d="M33.7,35.4c-0.2,0.1-0.3,0.1-0.5,0.1c-0.7,0.2-1.4,0.4-2.1,0.8c-0.2,0.1-0.4,0.2-0.6,0.3
					c-1.2,0.8-2.6,1.9-3.8,3.3V40l0,0l0,0c1.2-1.4,2.6-2.5,3.8-3.3c0.2-0.1,0.4-0.2,0.6-0.3c0.7-0.4,1.4-0.6,2.1-0.8
					C33.4,35.6,33.6,35.5,33.7,35.4c0.3,0,0.5-0.1,0.8-0.2c0.3-0.1,0.5-0.2,0.8-0.4c0,0,0,0,0-0.1c0,0,0,0-0.1,0
					c-0.3,0.2-0.5,0.3-0.8,0.4C34.2,35.2,34,35.3,33.7,35.4z"/>
				<path class="st19" d="M34.5,35.8c-0.2,0.1-0.3,0.1-0.5,0.1c-0.7,0.2-1.4,0.4-2.1,0.8c-0.2,0.1-0.4,0.2-0.6,0.3
					c-1.3,0.8-2.6,1.9-3.8,3.3v0.1l0,0l0,0c1.2-1.4,2.6-2.6,3.8-3.3c0.2-0.1,0.4-0.2,0.6-0.3c0.7-0.4,1.4-0.6,2.1-0.8
					C34.2,36,34.4,36,34.5,35.8c0.3,0,0.5-0.1,0.8-0.2c0.3-0.1,0.5-0.2,0.8-0.4c0,0,0,0,0-0.1c0,0,0,0-0.1,0
					c-0.3,0.2-0.5,0.2-0.8,0.4C35,35.7,34.8,35.8,34.5,35.8z"/>
				<path class="st19" d="M35.4,36.3c-0.2,0.1-0.3,0.1-0.5,0.1c-0.7,0.2-1.4,0.4-2.1,0.8c-0.2,0.1-0.4,0.2-0.6,0.3
					c-1.3,0.8-2.6,1.9-3.8,3.3v0.1l0,0l0,0c1.3-1.4,2.6-2.6,3.8-3.3c0.2-0.1,0.4-0.2,0.6-0.3c0.7-0.4,1.4-0.6,2.1-0.8
					C35.1,36.5,35.2,36.5,35.4,36.3c0.3,0,0.5-0.1,0.8-0.2c0.3-0.1,0.5-0.2,0.8-0.4c0,0,0,0,0-0.1c0,0,0,0-0.1,0
					c-0.2,0.1-0.4,0.2-0.8,0.4C35.9,36.2,35.6,36.2,35.4,36.3z"/>
				<path class="st19" d="M37.7,36.2c-0.3,0.1-0.5,0.2-0.8,0.4c-0.3,0.1-0.5,0.2-0.8,0.3C35.9,37,35.8,37,35.6,37
					c-0.7,0.2-1.4,0.4-2.1,0.8c-0.2,0.1-0.4,0.2-0.6,0.3c-1.3,0.8-2.6,1.9-3.9,3.3v0.1l0,0l0,0c1.3-1.4,2.6-2.6,3.8-3.3
					c0.2-0.1,0.4-0.2,0.6-0.3c0.7-0.4,1.4-0.6,2.1-0.8c0.2,0,0.3-0.1,0.5-0.1c0.2-0.1,0.5-0.2,0.8-0.3
					C37.3,36.5,37.5,36.4,37.7,36.2C37.8,36.3,37.8,36.2,37.7,36.2C37.8,36.2,37.7,36.2,37.7,36.2z"/>
				<path class="st19" d="M10.6,38.6c0.2-0.1,0.3-0.3,0.5-0.4c0.7-0.6,1.3-1.2,2-1.7c0.2-0.1,0.4-0.2,0.6-0.4
					c1.2-0.7,2.5-1.2,3.7-1.3c0,0,0,0,0-0.1c0,0,0,0-0.1,0c-1.2,0.1-2.5,0.5-3.7,1.3c-0.2,0.1-0.4,0.2-0.6,0.4c-0.7,0.5-1.4,1-2,1.7
					C10.9,38.3,10.7,38.4,10.6,38.6c-0.4,0.2-0.7,0.4-0.9,0.7c-0.4,0.3-0.7,0.5-1,0.7c0,0,0,0,0,0.1l0,0l0,0c0.3-0.2,0.6-0.4,1-0.7
					S10.3,38.9,10.6,38.6z"/>
				<path class="st19" d="M11.5,39.1c0.2-0.1,0.3-0.3,0.5-0.4c0.7-0.6,1.3-1.2,2-1.7c0.2-0.1,0.4-0.2,0.6-0.4
					c1.2-0.7,2.5-1.2,3.7-1.2c0,0,0,0,0-0.1c0,0,0-0.1-0.1,0c-1.2,0.1-2.5,0.5-3.7,1.3c-0.2,0.1-0.4,0.2-0.6,0.4
					c-0.7,0.5-1.4,1-2,1.7C11.7,38.8,11.6,38.9,11.5,39.1c-0.4,0.2-0.7,0.4-0.9,0.7c-0.4,0.3-0.7,0.5-1,0.7c0,0,0,0,0,0.1l0,0l0,0
					c0.3-0.2,0.6-0.4,1-0.7C10.9,39.6,11.2,39.4,11.5,39.1z"/>
				<path class="st19" d="M12.3,39.6c0.2-0.1,0.3-0.3,0.5-0.4c0.7-0.6,1.3-1.2,2-1.7c0.2-0.1,0.4-0.3,0.6-0.4
					c1.2-0.7,2.4-1.2,3.6-1.2c0,0,0,0,0-0.1s0,0-0.1,0c-1.2,0.1-2.5,0.5-3.7,1.3c-0.2,0.1-0.4,0.2-0.6,0.4c-0.7,0.5-1.4,1-2,1.7
					C12.5,39.2,12.4,39.4,12.3,39.6c-0.4,0.2-0.7,0.4-0.9,0.7c-0.4,0.3-0.7,0.5-1,0.7c0,0,0,0,0,0.1l0,0l0,0c0.3-0.2,0.6-0.4,1-0.7
					C11.7,40.1,12,39.9,12.3,39.6z"/>
				<path class="st19" d="M13.1,40.1c0.2-0.1,0.3-0.3,0.5-0.4c0.7-0.6,1.3-1.2,2-1.7c0.2-0.1,0.4-0.3,0.6-0.4
					c1.2-0.7,2.4-1.1,3.6-1.2c0,0,0,0,0-0.1c0,0,0,0-0.1,0c-1.2,0.1-2.4,0.5-3.6,1.3c-0.2,0.1-0.4,0.2-0.6,0.4c-0.7,0.5-1.4,1-2,1.7
					C13.3,39.7,13.2,39.9,13.1,40.1c-0.4,0.2-0.6,0.4-0.9,0.7c-0.4,0.3-0.7,0.5-1,0.7c0,0,0,0,0,0.1l0,0l0,0c0.3-0.2,0.6-0.4,1-0.7
					C12.5,40.6,12.8,40.4,13.1,40.1z"/>
				<path class="st19" d="M13.9,40.6c0.2-0.1,0.3-0.3,0.5-0.4c0.7-0.6,1.3-1.2,2-1.7c0.2-0.1,0.4-0.3,0.6-0.4
					c1.2-0.7,2.4-1.1,3.6-1.2c0,0,0,0,0-0.1c0,0,0,0-0.1,0c-1.2,0.1-2.4,0.5-3.6,1.3c-0.2,0.1-0.4,0.2-0.6,0.4c-0.7,0.5-1.4,1-2,1.7
					C14.2,40.2,14,40.4,13.9,40.6c-0.4,0.2-0.6,0.4-0.9,0.7c-0.4,0.3-0.7,0.5-1,0.7c0,0,0,0,0,0.1l0,0l0,0c0.3-0.2,0.6-0.4,1-0.7
					C13.3,41.1,13.6,40.8,13.9,40.6z"/>
				<path class="st19" d="M14.7,41.1c0.2-0.1,0.3-0.3,0.5-0.4c0.7-0.6,1.3-1.2,2-1.7c0.2-0.1,0.4-0.3,0.6-0.4
					c1.2-0.7,2.4-1.1,3.5-1.2c0,0,0,0,0-0.1c0,0,0,0-0.1,0c-1.2,0.1-2.4,0.6-3.6,1.3c-0.2,0.1-0.4,0.2-0.6,0.4c-0.7,0.5-1.4,1-2,1.7
					C15,40.7,14.8,40.8,14.7,41.1c-0.4,0.2-0.6,0.4-0.9,0.7c-0.4,0.3-0.7,0.5-1,0.7c0,0,0,0,0,0.1l0,0l0,0c0.3-0.2,0.6-0.4,1-0.7
					S14.4,41.3,14.7,41.1z"/>
				<path class="st19" d="M15.6,41.5c0.2-0.1,0.3-0.3,0.5-0.4c0.7-0.6,1.3-1.2,2-1.7c0.2-0.1,0.4-0.3,0.6-0.4
					c1.1-0.7,2.4-1.1,3.5-1.2c0,0,0,0,0-0.1s0,0-0.1,0c-1.2,0.1-2.4,0.6-3.5,1.3c-0.2,0.1-0.4,0.2-0.6,0.4c-0.7,0.5-1.4,1-2,1.7
					C15.8,41.2,15.6,41.3,15.6,41.5c-0.4,0.2-0.6,0.4-0.9,0.7c-0.4,0.3-0.7,0.5-1,0.7c0,0,0,0,0,0.1l0,0l0,0c0.3-0.2,0.6-0.4,1-0.7
					C15,42.1,15.3,41.8,15.6,41.5z"/>
				<path class="st19" d="M16.4,42c0.2-0.1,0.3-0.3,0.5-0.4c0.7-0.6,1.3-1.2,2-1.7c0.2-0.1,0.4-0.3,0.6-0.4c1.1-0.7,2.3-1.1,3.5-1.2
					c0,0,0,0,0-0.1s0,0-0.1,0c-1.2,0.1-2.4,0.6-3.5,1.3c-0.2,0.1-0.4,0.2-0.6,0.4c-0.7,0.5-1.4,1-2.1,1.7
					C16.6,41.7,16.5,41.8,16.4,42c-0.4,0.2-0.6,0.4-0.9,0.7c-0.4,0.3-0.7,0.5-1,0.7c0,0,0,0,0,0.1l0,0l0,0c0.3-0.2,0.6-0.4,1.1-0.7
					C15.8,42.5,16.1,42.3,16.4,42z"/>
				<path class="st19" d="M17.2,42.5c0.2-0.1,0.3-0.3,0.5-0.4c0.7-0.6,1.4-1.2,2-1.7c0.2-0.1,0.4-0.3,0.6-0.4
					c1.1-0.7,2.3-1.1,3.4-1.2c0,0,0,0,0-0.1s0,0-0.1,0c-1.1,0.1-2.3,0.6-3.5,1.3c-0.2,0.1-0.4,0.2-0.6,0.4c-0.7,0.5-1.4,1-2.1,1.7
					C17.4,42.2,17.3,42.3,17.2,42.5c-0.4,0.2-0.6,0.4-0.9,0.6c-0.4,0.3-0.7,0.5-1.1,0.7c0,0,0,0,0,0.1l0,0l0,0
					c0.3-0.2,0.6-0.4,1.1-0.8C16.6,43,16.9,42.8,17.2,42.5z"/>
				<path class="st19" d="M18,43c0.2-0.1,0.3-0.3,0.5-0.4c0.7-0.6,1.4-1.2,2-1.7c0.2-0.1,0.4-0.3,0.6-0.4c1.1-0.7,2.3-1.1,3.4-1.2
					c0,0,0,0,0-0.1s0,0-0.1,0c-1.1,0.1-2.3,0.6-3.5,1.3c-0.2,0.1-0.4,0.2-0.6,0.4c-0.7,0.5-1.4,1.1-2.1,1.7
					C18.3,42.6,18.1,42.8,18,43c-0.4,0.2-0.6,0.4-0.9,0.6c-0.4,0.3-0.7,0.6-1.1,0.8c0,0,0,0,0,0.1l0,0l0,0c0.3-0.2,0.7-0.4,1.1-0.8
					C17.4,43.5,17.7,43.3,18,43z"/>
				<path class="st19" d="M18.8,43.5c0.2-0.1,0.3-0.3,0.5-0.4c0.7-0.6,1.4-1.2,2-1.7c0.2-0.1,0.4-0.3,0.6-0.4
					c1.1-0.7,2.3-1.1,3.4-1.2c0,0,0,0,0-0.1c0,0,0,0-0.1,0c-1.1,0.1-2.3,0.6-3.4,1.3c-0.2,0.1-0.4,0.2-0.6,0.4
					c-0.7,0.5-1.4,1.1-2.1,1.7C19.1,43.1,18.9,43.3,18.8,43.5c-0.4,0.2-0.6,0.4-0.9,0.6c-0.4,0.3-0.7,0.6-1.1,0.8c0,0,0,0,0,0.1l0,0
					l0,0c0.3-0.2,0.7-0.4,1.1-0.8C18.3,44,18.5,43.7,18.8,43.5z"/>
				<path class="st19" d="M19.6,44c0.2-0.1,0.3-0.3,0.5-0.4c0.7-0.6,1.4-1.2,2.1-1.7c0.2-0.1,0.4-0.3,0.6-0.4
					c1.1-0.7,2.3-1.1,3.4-1.2c0,0,0,0,0-0.1c0,0,0,0-0.1,0c-1.1,0.2-2.3,0.6-3.4,1.3c-0.2,0.1-0.4,0.2-0.6,0.4
					c-0.7,0.5-1.4,1.1-2.1,1.7C19.9,43.6,19.7,43.8,19.6,44c-0.4,0.2-0.6,0.4-0.9,0.6c-0.4,0.3-0.8,0.6-1.1,0.8c0,0,0,0,0,0.1l0,0
					l0,0c0.3-0.2,0.7-0.4,1.1-0.8C19.1,44.5,19.4,44.2,19.6,44z"/>
				<path class="st19" d="M20.5,44.5c0.2-0.1,0.3-0.3,0.5-0.4c0.7-0.6,1.4-1.2,2.1-1.7c0.2-0.1,0.4-0.3,0.6-0.4
					c1.1-0.7,2.2-1.1,3.3-1.2c0,0,0,0,0-0.1c0,0,0,0-0.1,0c-1.1,0.2-2.3,0.6-3.4,1.3c-0.2,0.1-0.4,0.2-0.6,0.4
					c-0.7,0.5-1.4,1.1-2.1,1.7C20.7,44.1,20.5,44.2,20.5,44.5c-0.4,0.2-0.6,0.4-0.9,0.6c-0.4,0.3-0.8,0.6-1.1,0.8c0,0,0,0,0,0.1l0,0
					l0,0c0.3-0.2,0.7-0.4,1.1-0.8C19.9,45,20.2,44.7,20.5,44.5z"/>
				<path class="st19" d="M21.3,44.9c0.2-0.1,0.3-0.3,0.5-0.4c0.7-0.7,1.4-1.2,2.1-1.7c0.2-0.1,0.4-0.3,0.6-0.4
					c1.1-0.6,2.2-1.1,3.3-1.2c0,0,0,0,0-0.1c0,0,0,0-0.1,0c-1.1,0.2-2.3,0.6-3.3,1.3c-0.2,0.1-0.4,0.2-0.6,0.4
					c-0.7,0.5-1.4,1.1-2.1,1.7C21.5,44.6,21.4,44.7,21.3,44.9c-0.4,0.2-0.6,0.4-0.9,0.6c-0.4,0.3-0.8,0.6-1.1,0.8c0,0,0,0,0,0.1l0,0
					l0,0c0.4-0.2,0.7-0.4,1.1-0.8C20.7,45.4,21,45.2,21.3,44.9z"/>
				<path class="st19" d="M25.2,42.8c-0.2,0.1-0.4,0.2-0.6,0.4c-0.7,0.5-1.4,1.1-2.1,1.7c-0.2,0.1-0.3,0.3-0.5,0.4
					c-0.3,0.3-0.6,0.5-0.9,0.7c-0.4,0.3-0.8,0.6-1.1,0.8c0,0,0,0,0,0.1l0,0l0,0c0.4-0.2,0.7-0.4,1.1-0.8c0.3-0.2,0.6-0.5,0.9-0.7
					c0.2-0.1,0.3-0.3,0.5-0.4c0.7-0.7,1.4-1.2,2.1-1.7C24.8,43.2,25,43,25.2,42.8c1.1-0.6,2.2-1,3.3-1.2c0,0,0,0,0-0.1
					c0,0,0,0-0.1,0C27.4,41.7,26.2,42.2,25.2,42.8z"/>
			</g>
		</g>
		<g>
			<g>
				<g>
					<g>
						<g class="st20">
							<g>
								<path class="st21" d="M29.1,41.9l-7.9-4.6l-0.1-0.1L29.1,41.9L29.1,41.9z"/>
							</g>
							<g>
								<path class="st22" d="M29.2,41.6c-0.1,0.1-0.1,0.1-0.1,0.2l-7.9-4.6l0.1-0.2L29.2,41.6z"/>
							</g>
							<g>
								<path class="st23" d="M29.4,41.5h-0.1c0,0-0.1,0-0.1,0.1l-8-4.6l0.2-0.1L29.4,41.5z"/>
							</g>
						</g>
					</g>
					<g>
						<polygon class="st24" points="30.3,42.2 30.3,42.3 30.3,42.3 30.3,42.3 30.2,42.3 30.3,42.3 						"/>
					</g>
					<path d="M30.3,42.2L30,42l0,0c0,0,0,0-0.1,0l-0.1,0.1l0,0L30.3,42.2C30.3,42.3,30.3,42.3,30.3,42.2
						C30.3,42.3,30.3,42.3,30.3,42.2z"/>
					<path class="st25" d="M21.7,37h-0.1l-0.1,0.1c0,0.1-0.1,0.1-0.1,0.2v0.1L21,37.1c0,0-0.1,0-0.1-0.1s0-0.1,0.1-0.2
						c0-0.1,0.1-0.1,0.1-0.1h0.1l0,0L21.7,37z"/>
					<path class="st26" d="M29.4,41.5L29.4,41.5L29.4,41.5z"/>
				</g>
				<path class="st27" d="M29.4,41.5L29.4,41.5L29.4,41.5c-0.1,0-0.2,0-0.2,0s0,0,0,0.1l0,0c0,0-0.1,0.1-0.1,0.2l0,0v0.1l0,0
					l0.8,0.3l0,0c0,0,0-0.1,0.1-0.1c0,0,0,0,0.1,0L29.4,41.5z"/>
			</g>
			
				<linearGradient id="SVGID_1_" gradientUnits="userSpaceOnUse" x1="21.7732" y1="2543.1643" x2="21.5925" y2="2543.4897" gradientTransform="matrix(1 0 0 1 0 -2506)">
				<stop  offset="0" style="stop-color:#78ACED"/>
				<stop  offset="1" style="stop-color:#4F7BB3"/>
			</linearGradient>
			<path class="st28" d="M22.1,37.3L22.1,37.3L22.1,37.3L21.7,37l0,0l0,0h-0.1l0,0h-0.1c-0.1,0-0.1,0.1-0.1,0.1
				c0,0.1-0.1,0.1-0.1,0.2c0,0,0,0.1,0.1,0.1h0.1l0,0l0,0l0.3,0.2l0,0l0,0l0.1,0.1l0,0l0,0l0,0c0,0,0,0,0-0.1l0,0v-0.1l0,0l0.1-0.1
				l0,0C22,37.3,22,37.2,22.1,37.3L22.1,37.3L22.1,37.3L22.1,37.3L22.1,37.3z"/>
		</g>
	</g>
</g>
<radialGradient id="SVGID_00000133494506782388134220000017126552293649265073_" cx="-766.8743" cy="4511.8828" r="15.9017" gradientTransform="matrix(1.5353 0 0 0.4819 1202.3821 -2132.7764)" gradientUnits="userSpaceOnUse">
	<stop  offset="0.1208" style="stop-color:#B4BCC1"/>
	<stop  offset="0.94" style="stop-color:#ECEEEF;stop-opacity:0"/>
</radialGradient>
<ellipse style="fill:url(#SVGID_00000133494506782388134220000017126552293649265073_);" cx="25" cy="41.5" rx="24.4" ry="7.7"/>
<g>
	<polygon class="st30" points="16.448,33.224 16.462,33.217 16.479,33.214 16.497,33.216 16.515,33.219 16.536,33.225 
		16.558,33.234 16.578,33.246 16.599,33.261 16.62,33.278 16.638,33.296 16.657,33.315 16.673,33.336 16.687,33.358 16.701,33.381 
		16.712,33.405 16.953,34.006 17.16,34.549 17.334,35.04 17.476,35.481 17.585,35.877 17.662,36.232 17.706,36.548 17.719,36.833 
		17.7,37.088 17.652,37.317 17.572,37.527 17.462,37.718 17.322,37.897 17.152,38.068 16.953,38.234 16.724,38.399 15.654,39.109 
		15.881,38.945 16.081,38.778 16.251,38.61 16.391,38.43 16.501,38.238 16.581,38.03 16.63,37.798 16.649,37.543 16.635,37.259 
		16.591,36.942 16.515,36.587 16.406,36.191 16.264,35.75 16.09,35.26 15.882,34.718 15.641,34.116 15.63,34.092 15.617,34.069 
		15.601,34.048 15.586,34.025 15.568,34.007 15.549,33.989 15.529,33.973 15.508,33.957 15.486,33.944 15.465,33.936 15.445,33.93 
		15.426,33.926 15.408,33.926 15.392,33.928 15.377,33.935 15.363,33.943 16.433,33.232 	"/>
	<g>
		<polygon class="st30" points="11.76,21.804 11.696,21.889 11.638,21.996 11.583,22.124 11.534,22.272 11.489,22.438 
			11.449,22.623 11.413,22.825 11.381,23.045 11.352,23.28 11.328,23.53 11.308,23.794 11.291,24.074 11.278,24.363 11.269,24.667 
			11.263,24.981 11.261,25.305 11.261,25.639 11.265,25.981 11.272,26.333 11.281,26.69 11.293,27.055 11.308,27.425 11.325,27.801 
			11.344,28.18 11.366,28.562 11.39,28.947 11.416,29.333 11.438,29.719 11.462,30.105 11.49,30.488 11.517,30.872 11.548,31.254 
			11.579,31.633 11.614,32.009 11.651,32.38 11.688,32.747 11.73,33.109 11.773,33.463 11.817,33.811 11.864,34.152 11.913,34.483 
			11.964,34.805 12.018,35.118 12.074,35.421 12.132,35.712 12.192,35.99 12.255,36.257 12.32,36.509 12.386,36.748 12.455,36.971 
			12.528,37.179 12.601,37.371 12.678,37.546 12.757,37.702 12.839,37.841 12.922,37.959 13.009,38.059 13.098,38.137 
			13.189,38.194 15.326,39.255 14.255,39.966 12.119,38.905 12.026,38.848 11.939,38.77 11.851,38.67 11.767,38.551 11.686,38.412 
			11.608,38.256 11.531,38.082 11.457,37.89 11.384,37.683 11.315,37.459 11.249,37.22 11.183,36.967 11.121,36.702 11.062,36.423 
			11.003,36.132 10.947,35.829 10.894,35.516 10.843,35.195 10.793,34.862 10.747,34.523 10.701,34.174 10.659,33.819 
			10.619,33.459 10.58,33.092 10.543,32.719 10.509,32.344 10.478,31.965 10.446,31.583 10.418,31.201 10.392,30.815 10.368,30.43 
			10.345,30.045 10.319,29.658 10.296,29.272 10.274,28.891 10.254,28.512 10.238,28.136 10.222,27.767 10.21,27.401 10.201,27.044 
			10.195,26.693 10.191,26.35 10.191,26.016 10.193,25.69 10.199,25.377 10.209,25.075 10.221,24.784 10.238,24.506 10.258,24.241 
			10.282,23.991 10.31,23.756 10.341,23.537 10.378,23.335 10.418,23.149 10.464,22.982 10.513,22.835 10.567,22.707 10.626,22.6 
			10.689,22.515 10.758,22.45 11.829,21.739 		"/>
		<polygon class="st31" points="15.458,39.317 15.634,39.392 15.853,39.479 16.11,39.574 16.402,39.678 16.728,39.785 
			17.083,39.896 17.466,40.007 17.871,40.117 18.299,40.221 18.744,40.321 19.204,40.412 19.677,40.492 20.159,40.56 20.646,40.614 
			21.137,40.648 21.628,40.665 22.116,40.658 22.599,40.629 23.073,40.574 23.534,40.49 23.982,40.375 24.412,40.23 24.821,40.048 
			25.207,39.829 24.137,40.539 23.75,40.759 23.341,40.94 22.91,41.087 22.465,41.201 22.002,41.284 21.527,41.34 21.046,41.37 
			20.558,41.376 20.066,41.36 19.575,41.323 19.088,41.271 18.607,41.204 18.134,41.123 17.674,41.033 17.229,40.933 16.801,40.827 
			16.394,40.718 16.012,40.606 15.657,40.497 15.331,40.387 15.039,40.286 14.781,40.189 14.564,40.102 14.388,40.027 
			14.255,39.966 15.326,39.255 		"/>
		<polygon class="st31" points="23.278,30.825 22.976,30.772 22.686,30.754 22.412,30.772 22.154,30.822 21.914,30.905 
			21.693,31.022 20.623,31.732 20.843,31.616 21.083,31.533 21.341,31.482 21.616,31.465 21.904,31.484 22.208,31.537 
			22.525,31.625 23.595,30.914 		"/>
		<polygon class="st30" points="23.884,38.59 23.683,38.306 23.49,38.018 23.307,37.723 23.135,37.425 22.974,37.12 22.824,36.812 
			22.685,36.5 22.558,36.188 22.443,35.874 22.343,35.559 22.256,35.243 22.184,34.929 22.126,34.617 22.083,34.307 22.056,34.001 
			22.045,33.701 22.05,33.415 22.071,33.144 22.109,32.883 22.16,32.638 22.227,32.405 22.307,32.187 22.401,31.984 22.509,31.795 
			22.629,31.623 22.761,31.464 22.907,31.321 23.062,31.195 21.991,31.906 21.835,32.032 21.692,32.175 21.558,32.333 
			21.438,32.507 21.33,32.695 21.235,32.898 21.156,33.116 21.089,33.348 21.037,33.595 21.001,33.854 20.979,34.127 20.975,34.413 
			20.985,34.712 21.011,35.019 21.055,35.328 21.113,35.64 21.186,35.955 21.273,36.27 21.373,36.584 21.487,36.898 21.613,37.212 
			21.752,37.522 21.903,37.831 22.065,38.135 22.238,38.436 22.42,38.729 22.611,39.018 22.814,39.301 23.023,39.576 24.093,38.864 
					"/>
		<polygon class="st30" points="16.516,30.443 16.524,30.43 16.704,30.038 16.855,29.673 16.977,29.33 17.071,29.006 17.134,28.696 
			17.171,28.397 17.177,28.105 17.154,27.817 17.102,27.525 17.02,27.23 16.908,26.925 16.764,26.609 16.592,26.273 16.389,25.918 
			16.157,25.539 15.892,25.129 15.88,25.112 15.867,25.096 15.853,25.079 15.838,25.065 15.822,25.051 15.807,25.039 15.79,25.028 
			15.774,25.017 15.756,25.009 15.74,25.003 15.725,24.998 15.71,24.996 15.695,24.995 15.682,24.997 15.669,25 15.657,25.004 
			15.425,25.155 14.355,25.865 14.586,25.714 14.598,25.711 14.611,25.708 14.624,25.706 14.639,25.707 14.653,25.71 14.67,25.715 
			14.685,25.721 14.703,25.729 14.72,25.74 14.736,25.75 14.752,25.762 14.767,25.776 14.782,25.791 14.795,25.806 14.81,25.823 
			14.822,25.841 15.086,26.249 15.319,26.63 15.522,26.986 15.694,27.319 15.837,27.636 15.949,27.941 16.031,28.236 16.083,28.526 
			16.106,28.816 16.1,29.108 16.064,29.407 15.999,29.716 15.907,30.041 15.783,30.384 15.633,30.749 15.454,31.14 15.446,31.154 
			15.434,31.167 16.505,30.455 		"/>
		<path class="st32" d="M26.998,37.072c1.221-6.051-11.551-13.715-12.704-14.288l-2.137-1.061c-0.988-0.49-1.028,3.478-0.74,7.611
			c0.229,4.103,0.785,8.369,1.773,8.86l2.137,1.061C16.482,39.828,25.776,43.123,26.998,37.072L26.998,37.072z M23.595,30.914
			c-1.029,0.365-1.642,1.459-1.541,3.086c0.102,1.627,0.896,3.421,2.038,4.864c-1.755-1.152-3.194-3.483-3.32-5.5
			C20.647,31.347,21.876,30.34,23.595,30.914L23.595,30.914z M15.657,25.004c0.031-0.016,0.071-0.011,0.116,0.013
			c0.046,0.024,0.086,0.062,0.119,0.112c1.491,2.264,1.663,3.132,0.633,5.3c-0.021,0.042-0.064,0.055-0.122,0.033
			c-0.057-0.02-0.112-0.068-0.151-0.132C14.981,28.284,14.294,25.689,15.657,25.004L15.657,25.004z M16.49,38.29
			c-1.538-2.126-1.143-4.182-0.056-5.059c0.034-0.028,0.086-0.021,0.144,0.015c0.058,0.036,0.105,0.094,0.132,0.159
			c1.378,3.363,1.306,4.111,0.014,4.992c-0.028,0.02-0.066,0.02-0.112-0.002C16.567,38.374,16.525,38.338,16.49,38.29z"/>
	</g>
	<polygon class="st31" points="12.839,37.841 12.922,37.959 13.009,38.059 13.098,38.137 13.189,38.194 15.326,39.255 
		14.255,39.966 12.119,38.905 12.026,38.848 11.939,38.77 11.851,38.67 11.767,38.551 11.733,38.492 12.803,37.782 	"/>
</g>
<g>
	<g>
		<polygon class="st33" points="31.774,6.889 31.868,6.956 31.966,7.047 32.065,7.16 32.166,7.296 32.269,7.452 32.374,7.629 
			32.481,7.826 32.588,8.041 32.697,8.273 32.806,8.524 32.917,8.789 33.028,9.07 33.141,9.366 33.254,9.675 33.366,9.997 
			33.48,10.33 33.593,10.675 33.705,11.03 33.818,11.393 33.931,11.766 34.041,12.146 34.153,12.533 34.262,12.925 34.372,13.323 
			34.479,13.724 34.585,14.13 34.689,14.537 34.797,14.942 34.903,15.347 35.007,15.752 35.108,16.158 35.207,16.562 35.301,16.963 
			35.394,17.362 35.484,17.759 35.568,18.15 35.649,18.535 35.726,18.916 35.798,19.29 35.866,19.657 35.927,20.016 35.984,20.364 
			36.035,20.706 36.081,21.037 36.12,21.356 36.152,21.664 36.179,21.959 36.198,22.242 36.21,22.511 36.214,22.765 36.211,23.004 
			36.2,23.227 36.18,23.433 36.152,23.621 36.115,23.791 36.069,23.943 36.014,24.075 35.949,24.185 35.875,24.275 34.031,26.097 
			35.376,26.466 37.22,24.644 37.294,24.554 37.359,24.443 37.414,24.312 37.46,24.16 37.497,23.99 37.525,23.802 37.545,23.596 
			37.556,23.373 37.559,23.134 37.555,22.879 37.543,22.612 37.524,22.328 37.499,22.033 37.465,21.725 37.426,21.405 
			37.382,21.074 37.33,20.735 37.273,20.384 37.211,20.025 37.143,19.659 37.071,19.284 36.995,18.904 36.913,18.519 36.829,18.128 
			36.74,17.731 36.648,17.332 36.552,16.93 36.454,16.527 36.352,16.121 36.249,15.717 36.142,15.31 36.036,14.905 35.93,14.499 
			35.824,14.093 35.717,13.692 35.608,13.294 35.498,12.902 35.388,12.515 35.276,12.135 35.163,11.762 35.05,11.399 34.939,11.043 
			34.825,10.699 34.711,10.366 34.598,10.045 34.486,9.735 34.375,9.44 34.263,9.159 34.152,8.892 34.042,8.643 33.933,8.41 
			33.826,8.195 33.72,7.999 33.614,7.821 33.512,7.665 33.41,7.53 33.311,7.415 33.214,7.325 33.12,7.259 33.027,7.215 
			31.681,6.847 		"/>
		<polygon class="st34" points="33.915,26.204 33.76,26.341 33.565,26.505 33.332,26.691 33.066,26.897 32.766,27.12 32.438,27.354 
			32.081,27.599 31.699,27.85 31.295,28.104 30.87,28.357 30.426,28.608 29.966,28.852 29.492,29.084 29.007,29.304 28.513,29.507 
			28.012,29.692 27.507,29.852 27,29.986 26.493,30.09 25.988,30.161 25.488,30.195 24.994,30.19 24.511,30.141 24.038,30.047 
			25.385,30.416 25.856,30.511 26.341,30.559 26.833,30.564 27.333,30.53 27.839,30.458 28.347,30.355 28.854,30.222 29.358,30.061 
			29.86,29.878 30.352,29.673 30.839,29.453 31.311,29.221 31.772,28.977 32.215,28.727 32.64,28.473 33.045,28.218 33.427,27.968 
			33.783,27.723 34.112,27.488 34.411,27.266 34.678,27.061 34.91,26.875 35.105,26.71 35.262,26.573 35.376,26.466 34.031,26.097 
					"/>
		<polygon class="st33" points="24.645,18.893 24.519,19.07 24.399,19.252 24.28,19.439 24.167,19.633 24.059,19.831 23.957,20.034 
			23.858,20.24 23.765,20.449 23.676,20.663 23.594,20.878 23.515,21.099 23.443,21.32 23.376,21.544 23.316,21.769 23.261,21.996 
			23.211,22.223 23.167,22.451 23.13,22.679 23.098,22.908 23.073,23.136 23.053,23.364 23.04,23.589 23.033,23.815 23.033,24.038 
			23.04,24.259 23.053,24.477 23.074,24.694 23.1,24.905 23.135,25.115 23.176,25.32 23.224,25.521 23.341,25.902 23.48,26.246 
			23.64,26.554 23.822,26.828 24.021,27.062 24.236,27.26 24.467,27.421 24.712,27.542 24.968,27.625 26.314,27.994 26.057,27.911 
			25.813,27.789 25.581,27.629 25.366,27.431 25.167,27.196 24.987,26.924 24.825,26.616 24.686,26.271 24.569,25.89 24.522,25.689 
			24.48,25.484 24.447,25.274 24.419,25.063 24.398,24.846 24.386,24.628 24.379,24.407 24.379,24.184 24.386,23.959 24.398,23.732 
			24.418,23.505 24.443,23.277 24.475,23.048 24.513,22.821 24.556,22.592 24.606,22.365 24.662,22.137 24.722,21.912 
			24.789,21.689 24.861,21.467 24.939,21.247 25.023,21.033 25.11,20.818 25.204,20.608 25.302,20.402 25.405,20.199 25.513,20.001 
			25.626,19.809 25.743,19.622 25.865,19.439 25.992,19.262 26.122,19.092 24.777,18.723 		"/>
		<polygon class="st33" points="29.823,17.423 29.809,17.415 29.795,17.404 29.476,17.061 29.197,16.735 28.954,16.424 
			28.747,16.122 28.576,15.824 28.438,15.528 28.331,15.229 28.257,14.923 28.213,14.605 28.197,14.273 28.209,13.921 
			28.248,13.545 28.312,13.142 28.4,12.708 28.511,12.236 28.644,11.724 28.651,11.702 28.659,11.681 28.669,11.66 28.678,11.64 
			28.69,11.62 28.702,11.602 28.715,11.584 28.729,11.569 28.744,11.554 28.758,11.543 28.773,11.533 28.788,11.524 28.802,11.519 
			28.816,11.516 28.83,11.514 28.844,11.515 29.134,11.592 30.481,11.96 30.19,11.884 30.177,11.883 30.162,11.884 30.148,11.888 
			30.134,11.894 30.118,11.902 30.105,11.911 30.089,11.923 30.074,11.938 30.061,11.955 30.047,11.971 30.035,11.989 
			30.024,12.008 30.014,12.029 30.005,12.049 29.997,12.071 29.99,12.094 29.856,12.605 29.745,13.076 29.657,13.511 29.593,13.914 
			29.554,14.289 29.542,14.642 29.558,14.976 29.603,15.291 29.677,15.598 29.783,15.897 29.921,16.193 30.094,16.49 30.301,16.793 
			30.543,17.105 30.823,17.431 31.141,17.773 31.154,17.784 31.169,17.792 31.186,17.798 29.839,17.428 		"/>
		<polygon class="st33" points="30.825,20.257 30.808,20.257 30.789,20.26 30.77,20.266 30.752,20.277 30.734,20.29 30.715,20.306 
			30.697,20.326 30.681,20.349 30.665,20.372 30.651,20.397 30.64,20.425 30.63,20.451 30.622,20.479 30.618,20.507 30.614,20.535 
			30.569,21.236 30.54,21.868 30.526,22.432 30.531,22.934 30.553,23.38 30.595,23.773 30.657,24.114 30.74,24.411 30.846,24.669 
			30.975,24.89 31.129,25.078 31.307,25.239 31.513,25.375 31.746,25.493 32.008,25.595 32.297,25.688 33.644,26.056 33.353,25.964 
			33.091,25.861 32.857,25.745 32.653,25.607 32.473,25.448 32.32,25.259 32.191,25.037 32.086,24.781 32.002,24.484 31.94,24.141 
			31.898,23.749 31.877,23.305 31.873,22.801 31.885,22.236 31.916,21.606 31.96,20.904 31.963,20.876 31.969,20.848 31.977,20.82 
			31.985,20.794 31.996,20.766 32.011,20.741 32.025,20.718 32.042,20.695 32.062,20.675 32.079,20.659 32.098,20.645 
			32.116,20.636 32.134,20.629 32.152,20.627 32.17,20.627 32.186,20.632 30.841,20.263 		"/>
		<path class="st35" d="M21.255,27.813c3.317,5.825,11.78-0.733,12.775-1.717l1.843-1.822c0.852-0.842-0.025-5.429-1.183-9.738
			c-1.108-4.359-2.499-8.438-3.351-7.597l-1.843,1.822C28.501,9.745,17.939,21.989,21.255,27.813L21.255,27.813z M24.777,18.723
			c-0.688,1.876-0.896,3.994-0.448,5.707c0.448,1.712,1.452,2.633,2.637,2.659c-1.578,1.176-3.187,0.555-3.742-1.567
			C22.67,23.401,23.359,20.508,24.777,18.723L24.777,18.723z M28.844,11.515c1.638,0.243,1.813,3.151,1.197,5.694
			c-0.019,0.078-0.059,0.147-0.111,0.188c-0.051,0.041-0.101,0.043-0.136,0.007c-1.799-1.884-1.917-2.838-1.15-5.679
			c0.017-0.062,0.045-0.115,0.084-0.156C28.767,11.527,28.807,11.51,28.844,11.515L28.844,11.515z M32.413,25.645
			c-0.04,0.038-0.078,0.052-0.114,0.041c-1.633-0.468-1.96-1.215-1.684-5.151c0.005-0.075,0.036-0.152,0.083-0.209
			c0.047-0.057,0.099-0.079,0.143-0.064c1.419,0.533,2.525,2.52,1.661,5.234C32.483,25.558,32.453,25.609,32.413,25.645z"/>
	</g>
	<polygon class="st34" points="36.058,23.968 36.014,24.075 35.949,24.185 35.875,24.275 34.031,26.097 35.376,26.466 37.22,24.644 
		37.294,24.554 37.359,24.443 37.403,24.338 	"/>
</g>
</svg>
