<?xml version="1.0" encoding="utf-8"?>
<!-- Generator: Adobe Illustrator 25.4.1, SVG Export Plug-In . SVG Version: 6.00 Build 0)  -->
<svg version="1.1" id="Layer_1" xmlns="http://www.w3.org/2000/svg" xmlns:xlink="http://www.w3.org/1999/xlink" x="0px" y="0px"
	 viewBox="0 0 50 50" style="enable-background:new 0 0 50 50;" xml:space="preserve">
<style type="text/css">
	.st0{display:none;}
	.st1{display:inline;}
	.st2{fill:#344593;}
	.st3{fill:#3E54A3;}
	.st4{fill:#2E4490;}
	.st5{fill:#122571;}
	.st6{opacity:0.5;fill:#031F60;enable-background:new    ;}
	.st7{fill:#BBDFFF;}
	.st8{fill:#FDB724;}
	.st9{fill:#E7478D;}
	.st10{fill:#BF2878;}
	.st11{fill:#27DEBF;}
	.st12{fill:#1BBC9D;}
	.st13{fill:#A33D64;}
	.st14{fill:#82294D;}
	.st15{fill:#0A4A80;}
	.st16{fill:#F1FCFF;}
	.st17{fill:#D6E6FF;}
	.st18{fill:#CEF3FF;}
	.st19{fill:#606060;}
	.st20{enable-background:new    ;}
	.st21{fill:#F19729;}
	.st22{fill:#FCB040;}
	.st23{fill:#FFCB49;}
	.st24{fill:#2E5677;}
	.st25{fill:#FF51CE;}
	.st26{fill:#EDE6A0;}
	.st27{fill:#FFF7B0;}
	.st28{fill:url(#SVGID_1_);}
	.st29{fill:url(#SVGID_00000160159658483116158690000011700415224566640520_);}
	.st30{fill-rule:evenodd;clip-rule:evenodd;fill:#34485C;}
	.st31{fill-rule:evenodd;clip-rule:evenodd;fill:#2C3E50;}
	.st32{fill-rule:evenodd;clip-rule:evenodd;fill:#3D566E;}
	.st33{fill-rule:evenodd;clip-rule:evenodd;fill:#BDBDBD;}
	.st34{fill-rule:evenodd;clip-rule:evenodd;fill:#9C9C9C;}
	.st35{fill-rule:evenodd;clip-rule:evenodd;fill:#E6EAEB;}
</style>
<g id="Example" class="st0">
	<g class="st1">
		<g id="XMLID_4903_">
			<path id="XMLID_4905_" class="st2" d="M45.3,33.2v-4.6l0,0c0-0.9-0.6-1.8-1.7-2.4c-2.3-1.3-6-1.3-8.4,0c-1.2,0.7-1.7,1.6-1.7,2.4
				l0,0v4.5c0,0.9,0.6,1.8,1.7,2.4c2.3,1.3,6,1.3,8.4,0C44.8,34.9,45.3,34.1,45.3,33.2L45.3,33.2L45.3,33.2L45.3,33.2z"/>
			<path id="XMLID_4904_" class="st2" d="M45.3,33.2v-4.6l0,0c0-0.9-0.6-1.8-1.7-2.4c-2.3-1.3-6-1.3-8.4,0c-1.2,0.7-1.7,1.6-1.7,2.4
				l0,0v4.5c0,0.9,0.6,1.8,1.7,2.4c2.3,1.3,6,1.3,8.4,0C44.8,34.9,45.3,34.1,45.3,33.2L45.3,33.2L45.3,33.2L45.3,33.2z"/>
		</g>
		<polygon id="XMLID_4900_" class="st3" points="39.4,23 29.7,28.6 39.4,34.2 49.2,28.6 		"/>
		<path id="XMLID_4899_" class="st4" d="M44.3,31.4l-4.8-2.7c-0.1,0-0.2,0-0.2,0.1s0,0.2,0.1,0.2l4.6,2.6L44.3,31.4z"/>
		<polygon id="XMLID_4896_" class="st5" points="29.7,28.6 29.7,29 39.4,34.6 39.4,34.2 		"/>
		<polygon id="XMLID_4883_" class="st4" points="49.2,28.6 49.2,29 39.4,34.6 39.4,34.2 		"/>
		<polygon id="XMLID_4876_" class="st6" points="33.5,31.2 39.4,35.2 45.3,31.2 39.4,34.6 		"/>
		<g id="XMLID_4823_">
			<path id="XMLID_4835_" class="st7" d="M44.7,36.2c-0.1,0-0.2-0.1-0.2-0.2v-4c0-0.2-0.1-0.4-0.3-0.4l-4.9-2.8
				c-0.1,0-0.1-0.2-0.1-0.2c0-0.1,0.2-0.1,0.2-0.1l4.9,2.8c0.3,0.2,0.4,0.4,0.4,0.7v4C44.8,36.1,44.7,36.2,44.7,36.2z"/>
		</g>
		<path class="st8" d="M45.3,39.3L45,36.6c0.1-0.1,0.1-0.2,0-0.2l0,0l0,0l0,0v-0.1l0,0l0,0l0,0c0-0.2-0.2-0.4-0.4-0.4c0,0,0,0-0.1,0
			l0,0l0,0c0,0,0,0-0.1,0c0,0,0,0-0.1,0c0,0,0,0-0.1,0c0,0,0,0,0,0.1l0,0v0.1c0,0.1,0,0.2,0.1,0.3l0,0c-0.1,0.1,0,0.2,0,0.2L44,39.3
			c0,0.1,0.1,0.2,0.3,0.3l0,0h0.1l0,0c0.1,0,0.2,0.1,0.3,0.1l0,0l0,0l0,0l0,0l0,0c0.1,0,0.2,0,0.3-0.1l0,0h0.1l0,0
			C45.3,39.5,45.3,39.4,45.3,39.3z"/>
	</g>
	<g id="XMLID_3738_" class="st1">
		<path id="XMLID_4404_" class="st9" d="M12.4,36.1c1.1-0.8,1.8-2.7,1.7-4c-0.1-1.4-1.2-2-1.7-2.3l0,0c-1.1-0.6-2.8-0.6-3.9,0l0,0
			C8,30.1,7,30.7,6.8,32.1c-0.1,1.3,0.6,3.2,1.7,4l0,0c0.1,0,0.1,0.1,0.2,0.1c1,0.6,2.6,0.6,3.6,0l0,0
			C12.3,36.2,12.4,36.1,12.4,36.1L12.4,36.1z"/>
		<path id="XMLID_4395_" class="st10" d="M9.9,30.8c-0.3,0.2-0.3,0.4,0,0.6s0.8,0.2,1.1,0s0.3-0.4,0-0.6
			C10.7,30.6,10.2,30.6,9.9,30.8z"/>
		<g id="XMLID_4426_">
			<path id="XMLID_2198_" class="st11" d="M10.5,31.2c0,0-0.9,0-1.4-0.7s0-1.9,0-1.9s1.1,0.1,1.7,1C11.2,30.4,10.5,31.2,10.5,31.2z"
				/>
			<path id="XMLID_4431_" class="st12" d="M9,30.5c0.5,0.7,1.4,0.7,1.4,0.7C10.3,29.6,9,28.6,9,28.6S8.5,29.8,9,30.5z"/>
		</g>
		<path id="XMLID_4403_" class="st13" d="M10.5,31.2c0,0,0-1.3,0.7-1.9s1.2-0.6,1.2-0.6c0.4,0,0.9,0.4,0.7,0.4c0,0-0.9,0-1.5,0.5
			s-0.9,1.5-0.9,1.6c0,0,0,0.1-0.1,0.1C10.5,31.3,10.5,31.2,10.5,31.2z"/>
		<path id="XMLID_4496_" class="st14" d="M12.4,28.7c-0.1,0-0.1,0.1,0.2,0.3c0.2,0.1,0.4,0.2,0.5,0.2l0,0
			C13.3,29,12.8,28.7,12.4,28.7z"/>
	</g>
	<g class="st1">
		<g>
			<path class="st15" d="M26,28.8L26,28.8c-1,0.6-1.9,1-2.8,1.2l0,0c0,0,0,0-0.1,0l-0.5,0.2h-0.1c-0.1,0-0.2,0.1-0.3,0.1h-0.1
				c-0.1,0-0.2,0.1-0.2,0.1h-0.1c-0.5,0.2-0.9,0.4-1.4,0.7c-0.1,0.1-0.2,0.1-0.3,0.2L20,31.4c-0.4,0.3-2,1.5-2.9,2.5l-0.6,0.6
				L16,34.6c-1,0.2-2,0.5-3,1.1c-0.1,0.1-0.2,0.1-0.3,0.2c-0.3,0.2-0.5,0.3-0.8,0.5l0,0l-0.1,0.1c-0.1,0.1-0.2,0.1-0.3,0.2l0,0l0,0
				c-0.4,0.3-0.9,0.7-1.3,1.1c-0.1,0.1-0.2,0.2-0.3,0.3c-0.3,0.3-0.7,0.6-1,0.9H8.8c-0.3,0.3-0.7,0.5-1,0.8
				c-0.2,0.2-0.5,0.3-0.7,0.5H7l13.7,8.3h0.1c0.8-0.5,1.7-1.2,2.5-1.9c0.5-0.5,1.1-0.9,1.7-1.4c1.2-0.9,2.3-1.5,3.2-1.8
				c0.7-0.3,1.4-0.5,2.1-0.6l0.5-0.6c0.7-0.7,1.5-1.3,2.4-1.8c1.5-1,3.2-1.8,4.9-2.5c0.6-0.2,1.2-0.5,1.6-0.7l0.2-0.1L26,28.8z"/>
			<g>
				<g>
					<g>
						<path class="st16" d="M39.1,36.7c-0.5,0.3-0.7,0.4-1.2,0.6c-0.3,0.1-0.5,0.2-0.8,0.3c-0.2,0.1-0.3,0.1-0.5,0.1
							c-0.7,0.2-1.4,0.4-2,0.8c-0.2,0.1-0.4,0.2-0.6,0.3c-1.3,0.8-2.6,2-3.9,3.5l-2.5-1.5l-11-6.7c1.3-1.5,2.6-2.7,3.9-3.5
							c0.2-0.1,0.4-0.2,0.6-0.3c0.7-0.4,1.4-0.6,2-0.8c0.2,0,0.3-0.1,0.5-0.1c0.3-0.1,0.5-0.2,0.8-0.3c0.5-0.2,0.7-0.3,1.2-0.6
							L39.1,36.7z"/>
						<g>
							<path class="st16" d="M30.1,42.3c-1.3,0.1-2.6,0.5-3.9,1.3c-0.2,0.1-0.4,0.2-0.6,0.4c-0.7,0.5-1.4,1-2,1.7
								c-0.2,0.2-0.3,0.3-0.5,0.4c-0.3,0.3-0.6,0.5-0.9,0.7c-0.5,0.4-0.8,0.6-1.3,0.9L7.5,39.5C8,39.2,8.3,39,8.8,38.6
								c0.3-0.2,0.6-0.5,0.9-0.7c0.2-0.1,0.3-0.3,0.5-0.4c0.7-0.6,1.4-1.2,2-1.7c0.2-0.1,0.4-0.3,0.6-0.4c1.3-0.8,2.6-1.2,3.9-1.3
								l11,6.7L30.1,42.3z"/>
						</g>
					</g>
					<polygon class="st17" points="7.5,39.5 7.3,40.3 20.7,48.5 20.9,47.7 					"/>
					<path class="st18" d="M39.4,37.1c-0.9,0.6-1.8,1-2.7,1.2c0,0,0,0-0.1,0s-0.2,0-0.3,0.1c-0.1,0-0.2,0.1-0.3,0.1
						s-0.2,0.1-0.3,0.1c-0.6,0.2-1.2,0.5-1.8,0.9c-0.1,0.1-0.2,0.1-0.3,0.2c-1,0.7-2,1.5-3,2.5L30,42.8l-0.6,0.1c-1,0.2-2,0.5-3,1.1
						c-0.1,0.1-0.2,0.1-0.3,0.2c-0.3,0.2-0.5,0.3-0.8,0.5c-0.6,0.4-1.1,0.9-1.7,1.4c-0.1,0.1-0.2,0.2-0.3,0.3
						c-0.9,0.9-1.8,1.6-2.7,2.2l0.2-0.8c0.5-0.3,0.8-0.5,1.3-0.9c0.3-0.2,0.6-0.5,0.9-0.7c0.2-0.1,0.3-0.3,0.5-0.4
						c0.7-0.6,1.4-1.2,2-1.7c0.2-0.1,0.4-0.3,0.6-0.4c1.3-0.8,2.6-1.2,3.9-1.3c1.3-1.5,2.6-2.7,3.9-3.5c0.2-0.1,0.4-0.2,0.6-0.3
						c0.7-0.4,1.4-0.6,2-0.8c0.2,0,0.3-0.1,0.5-0.1c0.3-0.1,0.5-0.2,0.8-0.3c0.5-0.2,0.7-0.3,1.2-0.6L39.4,37.1z"/>
				</g>
			</g>
			<g>
				<path class="st19" d="M17.8,34.6C17.9,34.6,17.9,34.6,17.8,34.6c1.2-1.4,2.5-2.5,3.7-3.2c0.2-0.1,0.4-0.2,0.5-0.3
					c0.7-0.3,1.3-0.6,2-0.8c0.2,0,0.3-0.1,0.5-0.1c0.3-0.1,0.5-0.2,0.8-0.3c0.4-0.2,0.7-0.3,1.1-0.5c0,0,0,0,0-0.1s0,0-0.1,0
					c-0.4,0.2-0.6,0.3-1,0.5c-0.3,0.1-0.5,0.2-0.8,0.3c-0.2,0.1-0.3,0.1-0.5,0.1c-0.7,0.2-1.3,0.4-2,0.8c-0.2,0.1-0.4,0.2-0.6,0.3
					C20.3,32.1,19,33.2,17.8,34.6C17.8,34.5,17.8,34.6,17.8,34.6L17.8,34.6z"/>
				<path class="st19" d="M25.4,30.6c-0.2,0.1-0.3,0.1-0.5,0.1c-0.7,0.2-1.3,0.4-2,0.8c-0.2,0.1-0.4,0.2-0.6,0.3
					c-1.2,0.7-2.5,1.8-3.7,3.2v0.1l0,0l0,0c1.2-1.4,2.5-2.5,3.7-3.2c0.2-0.1,0.4-0.2,0.6-0.3c0.7-0.4,1.3-0.6,2-0.8
					C25.1,30.8,25.3,30.7,25.4,30.6c0.3,0,0.6-0.1,0.8-0.2c0.4-0.2,0.6-0.3,1-0.5c0,0,0,0,0-0.1c0,0,0,0-0.1,0
					c-0.4,0.2-0.6,0.3-1,0.5C25.9,30.4,25.7,30.5,25.4,30.6z"/>
				<path class="st19" d="M26.2,31.1c-0.2,0.1-0.3,0.1-0.5,0.1c-0.7,0.2-1.3,0.4-2,0.8c-0.2,0.1-0.4,0.2-0.6,0.3
					c-1.2,0.7-2.5,1.8-3.7,3.2v0.1l0,0l0,0c1.2-1.4,2.5-2.5,3.7-3.2c0.2-0.1,0.4-0.2,0.6-0.3c0.7-0.4,1.4-0.6,2-0.8
					C25.9,31.3,26.1,31.2,26.2,31.1c0.3,0,0.6-0.1,0.8-0.2c0.4-0.2,0.6-0.3,1-0.5c0,0,0,0,0-0.1c0,0,0,0-0.1,0
					c-0.4,0.2-0.6,0.3-1,0.5C26.8,30.9,26.5,31,26.2,31.1z"/>
				<path class="st19" d="M27.1,31.5c-0.2,0.1-0.3,0.1-0.5,0.1c-0.7,0.2-1.3,0.4-2,0.8c-0.2,0.1-0.4,0.2-0.6,0.3
					c-1.2,0.7-2.5,1.8-3.7,3.2V36l0,0l0,0c1.2-1.4,2.5-2.5,3.7-3.2c0.2-0.1,0.4-0.2,0.6-0.3c0.7-0.4,1.4-0.6,2-0.8
					C26.7,31.7,26.9,31.7,27.1,31.5c0.3,0,0.6-0.1,0.8-0.2c0.4-0.2,0.6-0.3,1-0.5c0,0,0,0,0-0.1c0,0,0,0-0.1,0
					c-0.4,0.2-0.6,0.3-1,0.5C27.6,31.4,27.3,31.5,27.1,31.5z"/>
				<path class="st19" d="M27.9,32c-0.2,0.1-0.3,0.1-0.5,0.1c-0.7,0.2-1.4,0.4-2,0.8c-0.2,0.1-0.4,0.2-0.6,0.3
					c-1.2,0.7-2.5,1.9-3.7,3.2v0.1l0,0l0,0c1.2-1.4,2.5-2.5,3.7-3.2c0.2-0.1,0.4-0.2,0.6-0.3c0.7-0.4,1.4-0.6,2-0.8
					C27.6,32.2,27.8,32.2,27.9,32c0.3,0,0.6-0.1,0.8-0.2c0.4-0.2,0.6-0.3,1-0.5c0,0,0,0,0-0.1c0,0,0,0-0.1,0c-0.4,0.2-0.6,0.3-1,0.5
					C28.4,31.8,28.1,31.9,27.9,32z"/>
				<path class="st19" d="M28.7,32.5c-0.2,0.1-0.3,0.1-0.5,0.1c-0.7,0.2-1.4,0.4-2,0.8c-0.2,0.1-0.4,0.2-0.6,0.3
					c-1.2,0.7-2.5,1.9-3.7,3.2V37l0,0l0,0c1.2-1.4,2.5-2.5,3.7-3.2c0.2-0.1,0.4-0.2,0.6-0.3c0.7-0.4,1.4-0.6,2-0.8
					C28.4,32.7,28.6,32.6,28.7,32.5c0.3,0,0.6-0.1,0.8-0.2c0.4-0.2,0.6-0.3,1-0.5c0,0,0,0,0-0.1c0,0,0,0-0.1,0
					c-0.3,0.2-0.6,0.3-0.9,0.5C29.2,32.3,29,32.4,28.7,32.5z"/>
				<path class="st19" d="M29.6,33c-0.2,0.1-0.3,0.1-0.5,0.1c-0.7,0.2-1.4,0.4-2.1,0.8c-0.2,0.1-0.4,0.2-0.6,0.3
					c-1.2,0.7-2.5,1.9-3.8,3.3v0.1l0,0l0,0c1.2-1.4,2.5-2.5,3.7-3.2c0.2-0.1,0.4-0.2,0.6-0.3c0.7-0.4,1.4-0.6,2-0.8
					C29.2,33.2,29.4,33.1,29.6,33c0.3,0,0.6-0.1,0.8-0.2c0.4-0.2,0.6-0.3,0.9-0.5c0,0,0,0,0-0.1c0,0,0,0-0.1,0
					c-0.3,0.2-0.5,0.3-0.9,0.4C30.1,32.8,29.8,32.9,29.6,33z"/>
				<path class="st19" d="M30.4,33.5c-0.2,0.1-0.3,0.1-0.5,0.1c-0.7,0.2-1.4,0.4-2.1,0.8c-0.2,0.1-0.4,0.2-0.6,0.3
					c-1.2,0.7-2.5,1.9-3.8,3.3v0.1l0,0l0,0c1.2-1.4,2.5-2.5,3.7-3.2c0.2-0.1,0.4-0.2,0.6-0.3c0.7-0.4,1.4-0.6,2-0.8
					C30.1,33.7,30.2,33.6,30.4,33.5c0.3,0,0.5-0.1,0.8-0.2c0.4-0.2,0.6-0.3,0.9-0.4c0,0,0,0,0-0.1c0,0,0,0-0.1,0
					c-0.3,0.2-0.5,0.3-0.9,0.4C30.9,33.3,30.6,33.4,30.4,33.5z"/>
				<path class="st19" d="M31.2,33.9C31,34,30.9,34,30.7,34.1c-0.7,0.2-1.4,0.4-2.1,0.8c-0.2,0.1-0.4,0.2-0.6,0.3
					c-1.2,0.7-2.5,1.9-3.8,3.3v0.1l0,0l0,0c1.2-1.4,2.5-2.5,3.8-3.3c0.2-0.1,0.4-0.2,0.6-0.3c0.7-0.4,1.4-0.6,2-0.8
					C30.9,34.1,31.1,34.1,31.2,33.9c0.3,0,0.5-0.1,0.8-0.2c0.4-0.2,0.6-0.2,0.9-0.4c0,0,0,0,0-0.1c0,0,0,0-0.1,0
					c-0.3,0.2-0.5,0.3-0.9,0.4C31.7,33.8,31.5,33.9,31.2,33.9z"/>
				<path class="st19" d="M32,34.4c-0.2,0.1-0.3,0.1-0.5,0.1c-0.7,0.2-1.4,0.4-2.1,0.8c-0.2,0.1-0.4,0.2-0.6,0.3
					c-1.2,0.7-2.6,1.9-3.8,3.3V39l0,0l0,0c1.2-1.4,2.5-2.5,3.8-3.3c0.2-0.1,0.4-0.2,0.6-0.3c0.7-0.4,1.4-0.6,2-0.8
					C31.7,34.6,31.9,34.6,32,34.4c0.3,0,0.5-0.1,0.8-0.2c0.4-0.2,0.6-0.2,0.9-0.4c0,0,0,0,0-0.1c0,0,0,0-0.1,0
					c-0.3,0.2-0.5,0.3-0.9,0.4C32.6,34.2,32.3,34.3,32,34.4z"/>
				<path class="st19" d="M32.9,34.9C32.7,35,32.6,35,32.4,35c-0.7,0.2-1.4,0.4-2.1,0.8c-0.2,0.1-0.4,0.2-0.6,0.3
					c-1.2,0.8-2.6,1.9-3.8,3.3v0.1l0,0l0,0c1.2-1.4,2.5-2.5,3.8-3.3c0.2-0.1,0.4-0.2,0.6-0.3c0.7-0.4,1.4-0.6,2.1-0.8
					C32.6,35.1,32.7,35,32.9,34.9c0.3,0,0.5-0.1,0.8-0.2c0.3-0.1,0.6-0.2,0.9-0.4c0,0,0,0,0-0.1c0,0,0,0-0.1,0
					c-0.3,0.2-0.5,0.3-0.8,0.4C33.4,34.7,33.1,34.8,32.9,34.9z"/>
				<path class="st19" d="M33.7,35.4c-0.2,0.1-0.3,0.1-0.5,0.1c-0.7,0.2-1.4,0.4-2.1,0.8c-0.2,0.1-0.4,0.2-0.6,0.3
					c-1.2,0.8-2.6,1.9-3.8,3.3V40l0,0l0,0c1.2-1.4,2.6-2.5,3.8-3.3c0.2-0.1,0.4-0.2,0.6-0.3c0.7-0.4,1.4-0.6,2.1-0.8
					C33.4,35.6,33.6,35.5,33.7,35.4c0.3,0,0.5-0.1,0.8-0.2c0.3-0.1,0.5-0.2,0.8-0.4c0,0,0,0,0-0.1c0,0,0,0-0.1,0
					c-0.3,0.2-0.5,0.3-0.8,0.4C34.2,35.2,34,35.3,33.7,35.4z"/>
				<path class="st19" d="M34.5,35.8c-0.2,0.1-0.3,0.1-0.5,0.1c-0.7,0.2-1.4,0.4-2.1,0.8c-0.2,0.1-0.4,0.2-0.6,0.3
					c-1.3,0.8-2.6,1.9-3.8,3.3v0.1l0,0l0,0c1.2-1.4,2.6-2.6,3.8-3.3c0.2-0.1,0.4-0.2,0.6-0.3c0.7-0.4,1.4-0.6,2.1-0.8
					C34.2,36,34.4,36,34.5,35.8c0.3,0,0.5-0.1,0.8-0.2c0.3-0.1,0.5-0.2,0.8-0.4c0,0,0,0,0-0.1c0,0,0,0-0.1,0
					c-0.3,0.2-0.5,0.2-0.8,0.4C35,35.7,34.8,35.8,34.5,35.8z"/>
				<path class="st19" d="M35.4,36.3c-0.2,0.1-0.3,0.1-0.5,0.1c-0.7,0.2-1.4,0.4-2.1,0.8c-0.2,0.1-0.4,0.2-0.6,0.3
					c-1.3,0.8-2.6,1.9-3.8,3.3v0.1l0,0l0,0c1.3-1.4,2.6-2.6,3.8-3.3c0.2-0.1,0.4-0.2,0.6-0.3c0.7-0.4,1.4-0.6,2.1-0.8
					C35.1,36.5,35.2,36.5,35.4,36.3c0.3,0,0.5-0.1,0.8-0.2c0.3-0.1,0.5-0.2,0.8-0.4c0,0,0,0,0-0.1c0,0,0,0-0.1,0
					c-0.2,0.1-0.4,0.2-0.8,0.4C35.9,36.2,35.6,36.2,35.4,36.3z"/>
				<path class="st19" d="M37.7,36.2c-0.3,0.1-0.5,0.2-0.8,0.4c-0.3,0.1-0.5,0.2-0.8,0.3C35.9,37,35.8,37,35.6,37
					c-0.7,0.2-1.4,0.4-2.1,0.8c-0.2,0.1-0.4,0.2-0.6,0.3c-1.3,0.8-2.6,1.9-3.9,3.3v0.1l0,0l0,0c1.3-1.4,2.6-2.6,3.8-3.3
					c0.2-0.1,0.4-0.2,0.6-0.3c0.7-0.4,1.4-0.6,2.1-0.8c0.2,0,0.3-0.1,0.5-0.1c0.2-0.1,0.5-0.2,0.8-0.3
					C37.3,36.5,37.5,36.4,37.7,36.2C37.8,36.3,37.8,36.2,37.7,36.2C37.8,36.2,37.7,36.2,37.7,36.2z"/>
				<path class="st19" d="M10.6,38.6c0.2-0.1,0.3-0.3,0.5-0.4c0.7-0.6,1.3-1.2,2-1.7c0.2-0.1,0.4-0.2,0.6-0.4
					c1.2-0.7,2.5-1.2,3.7-1.3c0,0,0,0,0-0.1c0,0,0,0-0.1,0c-1.2,0.1-2.5,0.5-3.7,1.3c-0.2,0.1-0.4,0.2-0.6,0.4c-0.7,0.5-1.4,1-2,1.7
					C10.9,38.3,10.7,38.4,10.6,38.6c-0.4,0.2-0.7,0.4-0.9,0.7c-0.4,0.3-0.7,0.5-1,0.7c0,0,0,0,0,0.1l0,0l0,0c0.3-0.2,0.6-0.4,1-0.7
					S10.3,38.9,10.6,38.6z"/>
				<path class="st19" d="M11.5,39.1c0.2-0.1,0.3-0.3,0.5-0.4c0.7-0.6,1.3-1.2,2-1.7c0.2-0.1,0.4-0.2,0.6-0.4
					c1.2-0.7,2.5-1.2,3.7-1.2c0,0,0,0,0-0.1c0,0,0-0.1-0.1,0c-1.2,0.1-2.5,0.5-3.7,1.3c-0.2,0.1-0.4,0.2-0.6,0.4
					c-0.7,0.5-1.4,1-2,1.7C11.7,38.8,11.6,38.9,11.5,39.1c-0.4,0.2-0.7,0.4-0.9,0.7c-0.4,0.3-0.7,0.5-1,0.7c0,0,0,0,0,0.1l0,0l0,0
					c0.3-0.2,0.6-0.4,1-0.7C10.9,39.6,11.2,39.4,11.5,39.1z"/>
				<path class="st19" d="M12.3,39.6c0.2-0.1,0.3-0.3,0.5-0.4c0.7-0.6,1.3-1.2,2-1.7c0.2-0.1,0.4-0.3,0.6-0.4
					c1.2-0.7,2.4-1.2,3.6-1.2c0,0,0,0,0-0.1s0,0-0.1,0c-1.2,0.1-2.5,0.5-3.7,1.3c-0.2,0.1-0.4,0.2-0.6,0.4c-0.7,0.5-1.4,1-2,1.7
					C12.5,39.2,12.4,39.4,12.3,39.6c-0.4,0.2-0.7,0.4-0.9,0.7c-0.4,0.3-0.7,0.5-1,0.7c0,0,0,0,0,0.1l0,0l0,0c0.3-0.2,0.6-0.4,1-0.7
					C11.7,40.1,12,39.9,12.3,39.6z"/>
				<path class="st19" d="M13.1,40.1c0.2-0.1,0.3-0.3,0.5-0.4c0.7-0.6,1.3-1.2,2-1.7c0.2-0.1,0.4-0.3,0.6-0.4
					c1.2-0.7,2.4-1.1,3.6-1.2c0,0,0,0,0-0.1c0,0,0,0-0.1,0c-1.2,0.1-2.4,0.5-3.6,1.3c-0.2,0.1-0.4,0.2-0.6,0.4c-0.7,0.5-1.4,1-2,1.7
					C13.3,39.7,13.2,39.9,13.1,40.1c-0.4,0.2-0.6,0.4-0.9,0.7c-0.4,0.3-0.7,0.5-1,0.7c0,0,0,0,0,0.1l0,0l0,0c0.3-0.2,0.6-0.4,1-0.7
					C12.5,40.6,12.8,40.4,13.1,40.1z"/>
				<path class="st19" d="M13.9,40.6c0.2-0.1,0.3-0.3,0.5-0.4c0.7-0.6,1.3-1.2,2-1.7c0.2-0.1,0.4-0.3,0.6-0.4
					c1.2-0.7,2.4-1.1,3.6-1.2c0,0,0,0,0-0.1c0,0,0,0-0.1,0c-1.2,0.1-2.4,0.5-3.6,1.3c-0.2,0.1-0.4,0.2-0.6,0.4c-0.7,0.5-1.4,1-2,1.7
					C14.2,40.2,14,40.4,13.9,40.6c-0.4,0.2-0.6,0.4-0.9,0.7c-0.4,0.3-0.7,0.5-1,0.7c0,0,0,0,0,0.1l0,0l0,0c0.3-0.2,0.6-0.4,1-0.7
					C13.3,41.1,13.6,40.8,13.9,40.6z"/>
				<path class="st19" d="M14.7,41.1c0.2-0.1,0.3-0.3,0.5-0.4c0.7-0.6,1.3-1.2,2-1.7c0.2-0.1,0.4-0.3,0.6-0.4
					c1.2-0.7,2.4-1.1,3.5-1.2c0,0,0,0,0-0.1c0,0,0,0-0.1,0c-1.2,0.1-2.4,0.6-3.6,1.3c-0.2,0.1-0.4,0.2-0.6,0.4c-0.7,0.5-1.4,1-2,1.7
					C15,40.7,14.8,40.8,14.7,41.1c-0.4,0.2-0.6,0.4-0.9,0.7c-0.4,0.3-0.7,0.5-1,0.7c0,0,0,0,0,0.1l0,0l0,0c0.3-0.2,0.6-0.4,1-0.7
					S14.4,41.3,14.7,41.1z"/>
				<path class="st19" d="M15.6,41.5c0.2-0.1,0.3-0.3,0.5-0.4c0.7-0.6,1.3-1.2,2-1.7c0.2-0.1,0.4-0.3,0.6-0.4
					c1.1-0.7,2.4-1.1,3.5-1.2c0,0,0,0,0-0.1s0,0-0.1,0c-1.2,0.1-2.4,0.6-3.5,1.3c-0.2,0.1-0.4,0.2-0.6,0.4c-0.7,0.5-1.4,1-2,1.7
					C15.8,41.2,15.6,41.3,15.6,41.5c-0.4,0.2-0.6,0.4-0.9,0.7c-0.4,0.3-0.7,0.5-1,0.7c0,0,0,0,0,0.1l0,0l0,0c0.3-0.2,0.6-0.4,1-0.7
					C15,42.1,15.3,41.8,15.6,41.5z"/>
				<path class="st19" d="M16.4,42c0.2-0.1,0.3-0.3,0.5-0.4c0.7-0.6,1.3-1.2,2-1.7c0.2-0.1,0.4-0.3,0.6-0.4c1.1-0.7,2.3-1.1,3.5-1.2
					c0,0,0,0,0-0.1s0,0-0.1,0c-1.2,0.1-2.4,0.6-3.5,1.3c-0.2,0.1-0.4,0.2-0.6,0.4c-0.7,0.5-1.4,1-2.1,1.7
					C16.6,41.7,16.5,41.8,16.4,42c-0.4,0.2-0.6,0.4-0.9,0.7c-0.4,0.3-0.7,0.5-1,0.7c0,0,0,0,0,0.1l0,0l0,0c0.3-0.2,0.6-0.4,1.1-0.7
					C15.8,42.5,16.1,42.3,16.4,42z"/>
				<path class="st19" d="M17.2,42.5c0.2-0.1,0.3-0.3,0.5-0.4c0.7-0.6,1.4-1.2,2-1.7c0.2-0.1,0.4-0.3,0.6-0.4
					c1.1-0.7,2.3-1.1,3.4-1.2c0,0,0,0,0-0.1s0,0-0.1,0c-1.1,0.1-2.3,0.6-3.5,1.3c-0.2,0.1-0.4,0.2-0.6,0.4c-0.7,0.5-1.4,1-2.1,1.7
					C17.4,42.2,17.3,42.3,17.2,42.5c-0.4,0.2-0.6,0.4-0.9,0.6c-0.4,0.3-0.7,0.5-1.1,0.7c0,0,0,0,0,0.1l0,0l0,0
					c0.3-0.2,0.6-0.4,1.1-0.8C16.6,43,16.9,42.8,17.2,42.5z"/>
				<path class="st19" d="M18,43c0.2-0.1,0.3-0.3,0.5-0.4c0.7-0.6,1.4-1.2,2-1.7c0.2-0.1,0.4-0.3,0.6-0.4c1.1-0.7,2.3-1.1,3.4-1.2
					c0,0,0,0,0-0.1s0,0-0.1,0c-1.1,0.1-2.3,0.6-3.5,1.3c-0.2,0.1-0.4,0.2-0.6,0.4c-0.7,0.5-1.4,1.1-2.1,1.7
					C18.3,42.6,18.1,42.8,18,43c-0.4,0.2-0.6,0.4-0.9,0.6c-0.4,0.3-0.7,0.6-1.1,0.8c0,0,0,0,0,0.1l0,0l0,0c0.3-0.2,0.7-0.4,1.1-0.8
					C17.4,43.5,17.7,43.3,18,43z"/>
				<path class="st19" d="M18.8,43.5c0.2-0.1,0.3-0.3,0.5-0.4c0.7-0.6,1.4-1.2,2-1.7c0.2-0.1,0.4-0.3,0.6-0.4
					c1.1-0.7,2.3-1.1,3.4-1.2c0,0,0,0,0-0.1c0,0,0,0-0.1,0c-1.1,0.1-2.3,0.6-3.4,1.3c-0.2,0.1-0.4,0.2-0.6,0.4
					c-0.7,0.5-1.4,1.1-2.1,1.7C19.1,43.1,18.9,43.3,18.8,43.5c-0.4,0.2-0.6,0.4-0.9,0.6c-0.4,0.3-0.7,0.6-1.1,0.8c0,0,0,0,0,0.1l0,0
					l0,0c0.3-0.2,0.7-0.4,1.1-0.8C18.3,44,18.5,43.7,18.8,43.5z"/>
				<path class="st19" d="M19.6,44c0.2-0.1,0.3-0.3,0.5-0.4c0.7-0.6,1.4-1.2,2.1-1.7c0.2-0.1,0.4-0.3,0.6-0.4
					c1.1-0.7,2.3-1.1,3.4-1.2c0,0,0,0,0-0.1c0,0,0,0-0.1,0c-1.1,0.2-2.3,0.6-3.4,1.3c-0.2,0.1-0.4,0.2-0.6,0.4
					c-0.7,0.5-1.4,1.1-2.1,1.7C19.9,43.6,19.7,43.8,19.6,44c-0.4,0.2-0.6,0.4-0.9,0.6c-0.4,0.3-0.8,0.6-1.1,0.8c0,0,0,0,0,0.1l0,0
					l0,0c0.3-0.2,0.7-0.4,1.1-0.8C19.1,44.5,19.4,44.2,19.6,44z"/>
				<path class="st19" d="M20.5,44.5c0.2-0.1,0.3-0.3,0.5-0.4c0.7-0.6,1.4-1.2,2.1-1.7c0.2-0.1,0.4-0.3,0.6-0.4
					c1.1-0.7,2.2-1.1,3.3-1.2c0,0,0,0,0-0.1c0,0,0,0-0.1,0c-1.1,0.2-2.3,0.6-3.4,1.3c-0.2,0.1-0.4,0.2-0.6,0.4
					c-0.7,0.5-1.4,1.1-2.1,1.7C20.7,44.1,20.5,44.2,20.5,44.5c-0.4,0.2-0.6,0.4-0.9,0.6c-0.4,0.3-0.8,0.6-1.1,0.8c0,0,0,0,0,0.1l0,0
					l0,0c0.3-0.2,0.7-0.4,1.1-0.8C19.9,45,20.2,44.7,20.5,44.5z"/>
				<path class="st19" d="M21.3,44.9c0.2-0.1,0.3-0.3,0.5-0.4c0.7-0.7,1.4-1.2,2.1-1.7c0.2-0.1,0.4-0.3,0.6-0.4
					c1.1-0.6,2.2-1.1,3.3-1.2c0,0,0,0,0-0.1c0,0,0,0-0.1,0c-1.1,0.2-2.3,0.6-3.3,1.3c-0.2,0.1-0.4,0.2-0.6,0.4
					c-0.7,0.5-1.4,1.1-2.1,1.7C21.5,44.6,21.4,44.7,21.3,44.9c-0.4,0.2-0.6,0.4-0.9,0.6c-0.4,0.3-0.8,0.6-1.1,0.8c0,0,0,0,0,0.1l0,0
					l0,0c0.4-0.2,0.7-0.4,1.1-0.8C20.7,45.4,21,45.2,21.3,44.9z"/>
				<path class="st19" d="M25.2,42.8c-0.2,0.1-0.4,0.2-0.6,0.4c-0.7,0.5-1.4,1.1-2.1,1.7c-0.2,0.1-0.3,0.3-0.5,0.4
					c-0.3,0.3-0.6,0.5-0.9,0.7c-0.4,0.3-0.8,0.6-1.1,0.8c0,0,0,0,0,0.1l0,0l0,0c0.4-0.2,0.7-0.4,1.1-0.8c0.3-0.2,0.6-0.5,0.9-0.7
					c0.2-0.1,0.3-0.3,0.5-0.4c0.7-0.7,1.4-1.2,2.1-1.7C24.8,43.2,25,43,25.2,42.8c1.1-0.6,2.2-1,3.3-1.2c0,0,0,0,0-0.1
					c0,0,0,0-0.1,0C27.4,41.7,26.2,42.2,25.2,42.8z"/>
			</g>
		</g>
		<g>
			<g>
				<g>
					<g>
						<g class="st20">
							<g>
								<path class="st21" d="M29.1,41.9l-7.9-4.6l-0.1-0.1L29.1,41.9L29.1,41.9z"/>
							</g>
							<g>
								<path class="st22" d="M29.2,41.6c-0.1,0.1-0.1,0.1-0.1,0.2l-7.9-4.6l0.1-0.2L29.2,41.6z"/>
							</g>
							<g>
								<path class="st23" d="M29.4,41.5h-0.1c0,0-0.1,0-0.1,0.1l-8-4.6l0.2-0.1L29.4,41.5z"/>
							</g>
						</g>
					</g>
					<g>
						<polygon class="st24" points="30.3,42.2 30.3,42.3 30.3,42.3 30.3,42.3 30.2,42.3 30.3,42.3 						"/>
					</g>
					<path d="M30.3,42.2L30,42l0,0c0,0,0,0-0.1,0l-0.1,0.1l0,0L30.3,42.2C30.3,42.3,30.3,42.3,30.3,42.2
						C30.3,42.3,30.3,42.3,30.3,42.2z"/>
					<path class="st25" d="M21.7,37h-0.1l-0.1,0.1c0,0.1-0.1,0.1-0.1,0.2v0.1L21,37.1c0,0-0.1,0-0.1-0.1s0-0.1,0.1-0.2
						c0-0.1,0.1-0.1,0.1-0.1h0.1l0,0L21.7,37z"/>
					<path class="st26" d="M29.4,41.5L29.4,41.5L29.4,41.5z"/>
				</g>
				<path class="st27" d="M29.4,41.5L29.4,41.5L29.4,41.5c-0.1,0-0.2,0-0.2,0s0,0,0,0.1l0,0c0,0-0.1,0.1-0.1,0.2l0,0v0.1l0,0
					l0.8,0.3l0,0c0,0,0-0.1,0.1-0.1c0,0,0,0,0.1,0L29.4,41.5z"/>
			</g>
			
				<linearGradient id="SVGID_1_" gradientUnits="userSpaceOnUse" x1="21.7732" y1="-2043.1643" x2="21.5925" y2="-2043.4897" gradientTransform="matrix(1 0 0 -1 0 -2006)">
				<stop  offset="0" style="stop-color:#78ACED"/>
				<stop  offset="1" style="stop-color:#4F7BB3"/>
			</linearGradient>
			<path class="st28" d="M22.1,37.3L22.1,37.3L22.1,37.3L21.7,37l0,0l0,0h-0.1l0,0h-0.1c-0.1,0-0.1,0.1-0.1,0.1
				c0,0.1-0.1,0.1-0.1,0.2c0,0,0,0.1,0.1,0.1h0.1l0,0l0,0l0.3,0.2l0,0l0,0l0.1,0.1l0,0l0,0l0,0c0,0,0,0,0-0.1l0,0v-0.1l0,0l0.1-0.1
				l0,0C22,37.3,22,37.2,22.1,37.3L22.1,37.3L22.1,37.3L22.1,37.3L22.1,37.3z"/>
		</g>
	</g>
</g>
<radialGradient id="SVGID_00000167377440409203558880000017248877828237419910_" cx="-688.774" cy="-3771.0562" r="15.9016" gradientTransform="matrix(1.5353 0 0 -0.4819 1082.4749 -1775.772)" gradientUnits="userSpaceOnUse">
	<stop  offset="0.1208" style="stop-color:#B4BCC1"/>
	<stop  offset="0.94" style="stop-color:#ECEEEF;stop-opacity:0"/>
</radialGradient>
<ellipse style="fill:url(#SVGID_00000167377440409203558880000017248877828237419910_);" cx="25" cy="41.5" rx="24.4" ry="7.7"/>
<g>
	<polygon class="st30" points="31.985,32.929 33.267,33.009 33.251,33.009 33.234,33.011 33.219,33.017 33.204,33.026 
		33.189,33.039 33.175,33.054 33.161,33.072 33.149,33.094 33.138,33.118 33.129,33.142 33.122,33.167 33.115,33.192 33.113,33.219 
		33.11,33.246 33.111,33.272 33.113,33.298 33.205,33.94 33.297,34.513 33.391,35.025 33.489,35.477 33.593,35.875 33.704,36.22 
		33.825,36.517 33.955,36.769 34.099,36.981 34.257,37.157 34.431,37.297 34.622,37.408 34.833,37.494 35.065,37.555 35.321,37.599 
		35.6,37.627 34.318,37.548 34.038,37.52 33.782,37.476 33.55,37.413 33.339,37.328 33.148,37.218 32.974,37.076 32.817,36.902 
		32.673,36.69 32.542,36.437 32.422,36.141 32.311,35.795 32.207,35.398 32.109,34.945 32.014,34.433 31.922,33.859 31.83,33.218 
		31.827,33.192 31.828,33.165 31.829,33.139 31.833,33.113 31.839,33.087 31.846,33.062 31.856,33.037 31.866,33.014 31.878,32.993 
		31.892,32.975 31.907,32.959 31.921,32.947 31.936,32.937 31.952,32.931 31.968,32.929 	"/>
	<g>
		<polygon class="st30" points="30.22,20.675 31.503,20.754 31.595,20.776 31.693,20.818 31.797,20.881 31.908,20.965 
			32.024,21.068 32.147,21.189 32.275,21.33 32.408,21.487 32.545,21.661 32.686,21.85 32.832,22.055 32.982,22.274 33.136,22.506 
			33.292,22.752 33.452,23.009 33.614,23.277 33.779,23.558 33.945,23.847 34.114,24.146 34.284,24.453 34.455,24.767 
			34.628,25.089 34.799,25.417 34.973,25.75 35.145,26.089 35.317,26.43 35.49,26.775 35.661,27.124 35.834,27.468 36.006,27.813 
			36.176,28.161 36.343,28.506 36.507,28.852 36.67,29.196 36.828,29.538 36.982,29.879 37.132,30.216 37.278,30.548 37.419,30.877 
			37.554,31.201 37.683,31.518 37.807,31.831 37.924,32.135 38.034,32.433 38.137,32.723 38.232,33.004 38.32,33.275 38.399,33.536 
			38.469,33.788 38.531,34.028 38.583,34.256 38.624,34.472 38.656,34.675 38.676,34.865 38.687,35.039 38.686,35.2 38.673,35.345 
			38.647,35.475 38.61,35.586 38.559,35.682 37.24,37.67 35.957,37.59 37.276,35.602 37.327,35.507 37.365,35.395 37.39,35.265 
			37.403,35.121 37.404,34.96 37.394,34.785 37.373,34.595 37.341,34.392 37.3,34.176 37.248,33.948 37.186,33.708 37.116,33.457 
			37.037,33.195 36.95,32.924 36.854,32.643 36.751,32.353 36.641,32.055 36.524,31.751 36.401,31.439 36.271,31.121 36.135,30.797 
			35.995,30.469 35.85,30.135 35.699,29.798 35.545,29.459 35.387,29.116 35.225,28.772 35.06,28.426 34.892,28.08 34.724,27.734 
			34.552,27.388 34.378,27.043 34.207,26.696 34.035,26.35 33.863,26.009 33.69,25.671 33.517,25.337 33.344,25.009 33.172,24.687 
			33.001,24.373 32.831,24.065 32.663,23.767 32.496,23.478 32.332,23.198 32.17,22.929 32.01,22.671 31.854,22.427 31.7,22.193 
			31.55,21.974 31.404,21.77 31.262,21.581 31.124,21.407 30.992,21.25 30.864,21.11 30.742,20.988 30.626,20.885 30.514,20.802 
			30.41,20.738 30.312,20.696 		"/>
		<polygon class="st31" points="35.957,37.59 37.24,37.67 37.156,37.789 37.041,37.942 36.896,38.126 36.721,38.339 36.519,38.573 
			36.292,38.831 36.039,39.103 35.764,39.391 35.467,39.689 35.149,39.995 34.814,40.304 34.461,40.612 34.092,40.919 
			33.709,41.218 33.313,41.507 32.906,41.784 32.488,42.044 32.063,42.283 31.631,42.498 31.192,42.687 30.75,42.847 30.307,42.971 
			29.861,43.059 29.416,43.107 28.971,43.11 27.689,43.031 28.133,43.027 28.578,42.98 29.023,42.891 29.468,42.766 29.91,42.608 
			30.348,42.419 30.78,42.202 31.206,41.964 31.623,41.704 32.031,41.428 32.426,41.138 32.809,40.838 33.178,40.532 33.531,40.223 
			33.867,39.914 34.185,39.61 34.481,39.312 34.756,39.024 35.008,38.75 35.237,38.494 35.438,38.258 35.613,38.047 35.759,37.863 
			35.874,37.71 		"/>
		<polygon class="st31" points="24.624,34.506 25.906,34.586 26.136,34.351 26.373,34.153 26.613,33.993 26.86,33.87 27.109,33.785 
			27.358,33.737 27.607,33.727 26.325,33.647 26.075,33.657 25.826,33.705 25.577,33.791 25.331,33.912 25.089,34.073 24.854,34.27 
					"/>
		<polygon class="st30" points="28.171,41.638 29.453,41.719 29.497,41.376 29.531,41.03 29.552,40.684 29.563,40.339 
			29.562,39.992 29.55,39.648 29.526,39.305 29.491,38.967 29.444,38.632 29.385,38.303 29.314,37.981 29.232,37.665 29.138,37.356 
			29.032,37.056 28.915,36.767 28.784,36.488 28.643,36.224 28.497,35.979 28.341,35.753 28.18,35.547 28.011,35.359 27.838,35.192 
			27.66,35.043 27.476,34.914 27.289,34.806 27.098,34.715 26.903,34.645 26.707,34.593 26.509,34.562 25.226,34.482 25.424,34.514 
			25.621,34.565 25.815,34.636 26.005,34.725 26.193,34.835 26.376,34.963 26.555,35.112 26.729,35.28 26.896,35.467 27.059,35.674 
			27.213,35.898 27.361,36.143 27.501,36.408 27.631,36.687 27.749,36.977 27.855,37.276 27.95,37.584 28.032,37.901 28.103,38.224 
			28.161,38.553 28.207,38.887 28.243,39.226 28.267,39.568 28.28,39.913 28.28,40.257 28.27,40.604 28.247,40.95 28.215,41.296 		
			"/>
		<polygon class="st30" points="30.533,30.561 31.816,30.641 31.8,30.636 31.786,30.628 31.435,30.379 31.122,30.138 30.844,29.903 
			30.601,29.668 30.39,29.433 30.21,29.192 30.058,28.942 29.933,28.68 29.833,28.402 29.756,28.106 29.701,27.786 29.666,27.44 
			29.648,27.065 29.646,26.655 29.657,26.209 29.681,25.724 29.683,25.702 29.687,25.68 29.691,25.66 29.696,25.64 29.702,25.62 
			29.71,25.602 29.719,25.585 29.728,25.567 29.74,25.551 29.75,25.538 29.762,25.526 29.773,25.516 29.785,25.508 29.798,25.503 
			29.81,25.499 29.822,25.496 30.098,25.511 28.816,25.432 28.54,25.417 28.527,25.419 28.514,25.423 28.502,25.428 28.49,25.436 
			28.478,25.446 28.467,25.458 28.456,25.471 28.445,25.487 28.436,25.504 28.427,25.522 28.42,25.54 28.413,25.56 28.408,25.58 
			28.404,25.601 28.401,25.622 28.399,25.643 28.374,26.13 28.363,26.575 28.365,26.984 28.384,27.36 28.418,27.706 28.473,28.026 
			28.55,28.323 28.651,28.601 28.775,28.862 28.927,29.112 29.108,29.352 29.318,29.589 29.561,29.823 29.839,30.059 30.152,30.299 
			30.504,30.549 30.518,30.556 		"/>
		<path class="st32" d="M24.759,41.54c4.086,4.628,10.484-2.876,11.197-3.951l1.319-1.988c0.61-0.919-1.043-4.891-2.898-8.558
			c-1.819-3.722-3.839-7.138-4.449-6.219l-1.319,1.988C27.897,23.886,20.674,36.912,24.759,41.54L24.759,41.54z M24.624,34.506
			c1.201-1.357,2.769-1.1,3.669,0.709s0.821,4.547-0.122,6.423c0.267-1.821,0.057-3.771-0.669-5.231
			C26.776,34.948,25.697,34.307,24.624,34.506L24.624,34.506z M28.54,25.417c1.522-0.089,2.226,2.501,2.15,4.908
			c-0.002,0.075-0.026,0.144-0.065,0.19c-0.039,0.047-0.083,0.058-0.122,0.032c-1.977-1.361-2.262-2.199-2.104-4.905
			c0.004-0.059,0.019-0.112,0.047-0.156C28.473,25.443,28.505,25.419,28.54,25.417L28.54,25.417z M34.413,37.489
			c-0.029,0.042-0.062,0.061-0.096,0.058c-1.56-0.116-1.996-0.728-2.486-4.329c-0.009-0.07,0.003-0.144,0.035-0.204
			c0.032-0.06,0.074-0.092,0.117-0.085c1.38,0.215,2.751,1.798,2.483,4.408C34.46,37.396,34.442,37.448,34.413,37.489z"/>
	</g>
	<polygon class="st31" points="37.404,35.052 38.686,35.132 38.686,35.2 38.673,35.345 38.647,35.475 38.61,35.586 38.559,35.682 
		37.24,37.67 35.957,37.59 37.276,35.602 37.327,35.507 37.365,35.395 37.39,35.265 37.403,35.121 	"/>
</g>
<g>
	<g>
		<polygon class="st33" points="22.818,8.179 21.469,7.824 21.367,7.815 21.252,7.825 21.123,7.854 20.98,7.904 20.824,7.97 
			20.657,8.054 20.477,8.155 20.287,8.272 20.086,8.404 19.875,8.551 19.655,8.712 19.426,8.887 19.188,9.074 18.944,9.274 
			18.692,9.486 18.433,9.708 18.168,9.939 17.897,10.18 17.623,10.432 17.343,10.69 17.059,10.956 16.772,11.229 16.483,11.509 
			16.191,11.793 15.898,12.083 15.604,12.377 15.309,12.675 15.014,12.974 14.719,13.271 14.423,13.57 14.131,13.868 13.84,14.168 
			13.553,14.468 13.269,14.768 12.989,15.067 12.714,15.366 12.445,15.662 12.181,15.955 11.925,16.246 11.675,16.534 
			11.433,16.817 11.2,17.097 10.975,17.372 10.76,17.64 10.556,17.904 10.362,18.161 10.178,18.411 10.009,18.654 9.85,18.89 
			9.706,19.115 9.575,19.334 9.458,19.542 9.356,19.741 9.27,19.929 9.2,20.106 9.147,20.272 9.111,20.426 9.093,20.567 
			9.093,20.696 9.113,20.811 9.797,23.311 11.146,23.665 10.462,21.165 10.443,21.05 10.442,20.922 10.46,20.78 10.496,20.626 
			10.549,20.46 10.619,20.283 10.705,20.095 10.807,19.896 10.924,19.688 11.055,19.47 11.2,19.243 11.358,19.008 11.529,18.766 
			11.711,18.515 11.905,18.259 12.11,17.995 12.325,17.725 12.549,17.452 12.782,17.172 13.024,16.888 13.274,16.601 13.531,16.309 
			13.794,16.016 14.063,15.72 14.339,15.422 14.619,15.123 14.902,14.823 15.19,14.523 15.48,14.222 15.773,13.923 16.068,13.626 
			16.364,13.329 16.658,13.029 16.953,12.731 17.247,12.437 17.541,12.148 17.832,11.863 18.122,11.584 18.408,11.31 18.692,11.044 
			18.972,10.786 19.247,10.535 19.517,10.293 19.782,10.062 20.041,9.839 20.293,9.628 20.539,9.429 20.776,9.241 21.005,9.067 
			21.225,8.905 21.435,8.758 21.636,8.626 21.827,8.509 22.006,8.408 22.174,8.325 22.329,8.257 22.472,8.209 22.602,8.18 
			22.717,8.169 		"/>
		<polygon class="st34" points="11.146,23.665 9.797,23.311 9.842,23.461 9.909,23.658 9.995,23.898 10.103,24.176 10.231,24.487 
			10.379,24.829 10.546,25.197 10.732,25.587 10.937,25.995 11.16,26.418 11.401,26.851 11.659,27.289 11.936,27.731 12.228,28.169 
			12.539,28.603 12.863,29.027 13.206,29.436 13.562,29.828 13.934,30.197 14.322,30.541 14.724,30.856 15.14,31.136 15.568,31.378 
			16.012,31.579 16.467,31.733 17.818,32.088 17.361,31.933 16.919,31.733 16.489,31.49 16.073,31.21 15.671,30.896 15.285,30.552 
			14.913,30.182 14.555,29.791 14.214,29.38 13.888,28.957 13.579,28.524 13.285,28.085 13.009,27.644 12.75,27.204 12.509,26.772 
			12.286,26.35 12.081,25.942 11.895,25.551 11.728,25.184 11.58,24.841 11.453,24.529 11.345,24.252 11.258,24.012 11.192,23.816 
					"/>
		<polygon class="st33" points="22.848,21.916 21.499,21.562 21.527,21.774 21.548,21.991 21.562,22.21 21.569,22.431 
			21.571,22.654 21.565,22.879 21.553,23.106 21.535,23.334 21.511,23.563 21.479,23.792 21.444,24.02 21.401,24.249 21.353,24.477 
			21.299,24.704 21.238,24.929 21.173,25.154 21.102,25.375 21.025,25.595 20.944,25.811 20.857,26.025 20.765,26.235 
			20.668,26.441 20.565,26.644 20.458,26.842 20.347,27.035 20.23,27.223 20.11,27.406 19.984,27.583 19.854,27.752 19.72,27.917 
			19.581,28.073 19.439,28.224 19.147,28.495 18.855,28.724 18.56,28.91 18.268,29.055 17.978,29.159 17.693,29.222 17.412,29.245 
			17.14,29.228 16.876,29.171 18.225,29.526 18.489,29.582 18.761,29.6 19.042,29.576 19.327,29.513 19.617,29.41 19.911,29.264 
			20.204,29.077 20.497,28.849 20.788,28.578 20.931,28.428 21.069,28.271 21.204,28.107 21.333,27.937 21.459,27.76 21.58,27.578 
			21.696,27.39 21.808,27.197 21.915,26.998 22.017,26.796 22.114,26.589 22.206,26.379 22.293,26.165 22.375,25.949 22.451,25.729 
			22.522,25.508 22.588,25.284 22.648,25.059 22.702,24.832 22.751,24.604 22.793,24.374 22.83,24.146 22.86,23.917 22.884,23.689 
			22.902,23.461 22.915,23.234 22.92,23.009 22.92,22.785 22.911,22.563 22.898,22.345 22.877,22.129 		"/>
		<polygon class="st33" points="19.115,18.26 17.764,17.906 17.781,17.909 17.798,17.91 17.815,17.907 18.262,17.77 18.667,17.628 
			19.033,17.479 19.364,17.321 19.662,17.15 19.93,16.963 20.171,16.757 20.389,16.529 20.586,16.278 20.767,15.997 20.933,15.686 
			21.087,15.342 21.234,14.961 21.375,14.54 21.515,14.077 21.655,13.568 21.66,13.544 21.664,13.521 21.667,13.499 21.669,13.476 
			21.669,13.454 21.667,13.432 21.663,13.411 21.66,13.39 21.655,13.37 21.647,13.352 21.64,13.337 21.631,13.322 21.621,13.31 
			21.611,13.3 21.599,13.291 21.587,13.286 21.297,13.206 22.647,13.561 22.937,13.64 22.949,13.646 22.96,13.655 22.971,13.664 
			22.981,13.676 22.989,13.691 22.997,13.707 23.004,13.724 23.009,13.744 23.014,13.765 23.016,13.786 23.018,13.808 
			23.018,13.831 23.016,13.853 23.014,13.876 23.01,13.899 23.005,13.921 22.864,14.431 22.724,14.895 22.583,15.315 22.436,15.696 
			22.282,16.041 22.116,16.352 21.936,16.631 21.739,16.884 21.521,17.112 21.279,17.317 21.011,17.504 20.714,17.676 
			20.384,17.834 20.018,17.982 19.613,18.124 19.165,18.262 19.147,18.264 19.131,18.264 		"/>
		<polygon class="st33" points="16.828,20.212 15.479,19.858 15.495,19.862 15.511,19.871 15.526,19.882 15.537,19.897 
			15.549,19.914 15.558,19.936 15.565,19.958 15.572,19.985 15.575,20.013 15.576,20.041 15.576,20.07 15.572,20.099 15.566,20.126 
			15.559,20.154 15.55,20.182 15.539,20.207 15.225,20.837 14.936,21.398 14.664,21.893 14.408,22.327 14.167,22.701 13.935,23.019 
			13.709,23.285 13.488,23.5 13.269,23.669 13.046,23.796 12.819,23.883 12.584,23.931 12.338,23.948 12.077,23.932 11.799,23.89 
			11.501,23.824 12.851,24.179 13.148,24.244 13.426,24.287 13.687,24.301 13.933,24.286 14.168,24.236 14.395,24.151 
			14.618,24.024 14.838,23.854 15.059,23.638 15.284,23.374 15.516,23.055 15.759,22.68 16.014,22.248 16.285,21.753 16.576,21.191 
			16.888,20.562 16.899,20.536 16.909,20.509 16.917,20.481 16.921,20.453 16.925,20.424 16.926,20.395 16.924,20.367 
			16.921,20.339 16.915,20.313 16.907,20.29 16.898,20.269 16.888,20.251 16.875,20.236 16.86,20.224 16.845,20.216 		"/>
		<path class="st35" d="M21.345,31.548c5.787-3.381,2.775-19.268,2.406-20.618l-0.683-2.5c-0.316-1.155-3.562,1.68-6.704,4.898
			c-3.16,3.15-6.216,6.681-5.9,7.837l0.683,2.5C11.515,25.015,15.557,34.929,21.345,31.548L21.345,31.548z M22.848,21.916
			c0.334,2.255-0.518,5.104-2.06,6.662c-1.543,1.559-3.247,1.291-4.024-0.517c1.039,0.571,2.369,0.277,3.614-0.981
			C21.624,25.822,22.504,23.884,22.848,21.916L22.848,21.916z M22.937,13.64c0.034,0.014,0.06,0.049,0.073,0.104
			c0.014,0.055,0.011,0.115-0.005,0.177c-0.759,2.843-1.338,3.61-3.839,4.34c-0.048,0.014-0.09-0.013-0.114-0.074
			c-0.025-0.061-0.025-0.141-0.002-0.218C19.79,15.46,21.398,13.03,22.937,13.64L22.937,13.64z M12.769,23.911
			c0.612-2.782,2.564-3.948,4.059-3.699c0.046,0.009,0.08,0.054,0.092,0.127c0.012,0.073,0,0.155-0.033,0.222
			c-1.732,3.546-2.389,4.029-4.037,3.616c-0.036-0.009-0.063-0.04-0.078-0.093C12.756,24.033,12.755,23.974,12.769,23.911z"/>
	</g>
	<polygon class="st34" points="9.107,20.454 9.093,20.567 9.093,20.696 9.113,20.811 9.797,23.311 11.146,23.665 10.462,21.165 
		10.443,21.05 10.442,20.922 10.457,20.807 	"/>
</g>
</svg>
