<?xml version="1.0" encoding="utf-8"?>
<!-- Generator: Adobe Illustrator 25.0.0, SVG Export Plug-In . SVG Version: 6.00 Build 0)  -->
<svg version="1.1" id="Layer_1" xmlns="http://www.w3.org/2000/svg" xmlns:xlink="http://www.w3.org/1999/xlink" x="0px" y="0px"
	 viewBox="0 0 400 400" style="enable-background:new 0 0 400 400;" xml:space="preserve">
<g>
	<path d="M349.144,91.63L203.905,355.462c0,0,0,0.013-0.013,0.013c-0.793,1.441-1.719,2.83-2.711,4.192
		c-0.251,0.344-0.516,0.674-0.78,1.005c-0.767,0.965-1.587,1.891-2.446,2.79c-0.304,0.317-0.595,0.648-0.912,0.952
		c-0.079,0.079-0.159,0.172-0.238,0.251c-1.045,1.005-2.142,1.904-3.28,2.764c-0.317,0.238-0.648,0.436-0.965,0.661
		c-1.018,0.714-2.05,1.388-3.121,1.984c-0.384,0.225-0.767,0.423-1.151,0.635c-1.203,0.635-2.433,1.203-3.69,1.693
		c-0.212,0.079-0.41,0.172-0.608,0.251c-1.494,0.556-3.015,1.005-4.562,1.362c-0.331,0.079-0.648,0.132-0.979,0.185
		c-1.217,0.251-2.433,0.436-3.663,0.569c-0.463,0.053-0.926,0.106-1.402,0.132c-1.415,0.093-2.817,0.132-4.232,0.066
		c-0.132-0.013-0.265,0.013-0.41,0.013c-0.37-0.026-0.727-0.093-1.098-0.119c-0.873-0.066-1.746-0.146-2.618-0.278
		c-0.529-0.079-1.058-0.212-1.587-0.304c-0.767-0.145-1.521-0.317-2.274-0.516c-0.502-0.132-0.992-0.278-1.481-0.436
		c-0.833-0.251-1.64-0.542-2.46-0.846c-0.41-0.159-0.807-0.304-1.203-0.476c-0.992-0.423-1.957-0.886-2.909-1.388
		c-0.172-0.093-0.37-0.159-0.542-0.265c-0.053-0.04-0.119-0.066-0.172-0.106c-0.82-0.45-1.613-0.952-2.394-1.481
		c-0.278-0.185-0.569-0.357-0.846-0.542c-0.569-0.397-1.111-0.833-1.653-1.269c-0.463-0.357-0.939-0.701-1.388-1.084
		c-0.185-0.159-0.37-0.357-0.556-0.529c-0.754-0.674-1.494-1.362-2.195-2.103l-84.885-89.5
		c-14.361-15.142-13.726-39.064,1.415-53.425c15.155-14.348,39.064-13.726,53.425,1.415l49.286,51.984l120.312-218.54
		c10.063-18.289,33.06-24.94,51.322-14.877C352.556,50.357,359.207,73.341,349.144,91.63z"/>
</g>
</svg>
