<svg version="1.1" xmlns="http://www.w3.org/2000/svg" xmlns:xlink="http://www.w3.org/1999/xlink" viewBox="0 0 400 400">
	<g ng-click="smartSelected()" ng-mouseover="showSmartPopover=true;" ng-mouseleave="showSmartPopover=false;">
		<path class="white-fill" d="M184.894,19.98c-0.276,0-0.552,0.012-0.829,0.037C139.75,23.97,98.697,44.251,68.468,77.122 c-30.416,33.074-47.166,76.052-47.166,121.016c0,26.153,5.531,51.377,16.439,74.97c1.1,2.378,3.149,4.185,5.647,4.977 c0.921,0.292,1.872,0.436,2.819,0.436c1.621,0,3.231-0.423,4.664-1.25l81.62-47.124c3.83-2.211,5.58-6.808,4.192-11.006 c-2.246-6.792-3.386-13.858-3.386-21.003c0-31.663,22.481-59.214,53.456-65.511c4.346-0.884,7.469-4.705,7.469-9.14v-94.18 c0-2.618-1.1-5.115-3.032-6.882C189.463,20.846,187.214,19.98,184.894,19.98L184.894,19.98z"/>
		<path class="grey-fill" d="M114.404,114.794H67.848c-2.718,0-4.934,2.196-4.964,4.908c0,0.011,0,0.023,0,0.032v27.494v0.883v0.772 c0,2.746,2.273,4.954,4.943,4.964h14.451h17.696h14.43c2.809,0,4.961-2.331,4.964-4.958v-0.778v-0.883v-27.469 C119.368,117.021,117.141,114.794,114.404,114.794z M91.51,148.966c0.156-0.13,0.304-0.277,0.431-0.454 c0.029-0.04,0.055-0.082,0.078-0.126l0.897-1.712l1.224,2.292H91.51z M114.404,148.966h-13.993 c0.168-0.707,0.104-1.442-0.218-2.106c-0.009-0.019-0.019-0.038-0.029-0.056l-1.688-3.004h1.826c0.013,0,0.026,0,0.039-0.001 c1.246-0.047,2.315-0.797,2.791-1.959c0.479-1.169,0.241-2.461-0.619-3.374c-0.397-0.421-1.061-0.441-1.483-0.044 c-0.421,0.397-0.441,1.061-0.044,1.483c0.434,0.461,0.266,0.989,0.204,1.14c-0.06,0.147-0.303,0.626-0.912,0.658h-3.596 c-0.373,0-0.717,0.198-0.905,0.519c-0.188,0.321-0.192,0.719-0.009,1.043l2.548,4.535c0.116,0.254,0.128,0.538,0.034,0.803 c-0.049,0.138-0.124,0.26-0.22,0.365h-1.555c-0.075-0.078-0.148-0.159-0.197-0.261c-0.007-0.014-0.013-0.027-0.02-0.04 l-2.525-4.728c-0.182-0.342-0.538-0.555-0.925-0.555c-0.001,0-0.003,0-0.004,0c-0.389,0.002-0.745,0.218-0.925,0.562l-1.77,3.379 c-0.112,0.115-0.336,0.199-0.54,0.199c-0.002,0-0.003,0-0.005,0c-0.499-0.003-1.056-0.478-1.056-1.154v-13.58 c0-0.621,0.465-0.885,0.607-0.951c0.143-0.066,0.644-0.251,1.118,0.15c0.016,0.014,0.033,0.027,0.05,0.04l6.932,5.162 c0.465,0.346,1.122,0.25,1.468-0.215c0.346-0.465,0.25-1.122-0.215-1.468l-6.909-5.145c-0.944-0.78-2.216-0.944-3.328-0.427 c-1.123,0.522-1.821,1.615-1.821,2.854v13.579c0,0.871,0.337,1.69,0.95,2.308c0.108,0.108,0.229,0.199,0.349,0.29h-5.53 l-14.426,0.001c-0.028-0.007-0.078-0.053-0.086-0.083v-0.772v-0.883v-27.476c0.004-0.036,0.041-0.076,0.083-0.076h46.555 c0.042,0,0.083,0.041,0.083,0.083v27.469v0.883l0,0.765C114.481,148.904,114.442,148.955,114.404,148.966z"/>
		<path class="grey-fill" d="M91.927,124.612c-0.549-0.183-1.143,0.114-1.327,0.663l-0.577,1.73c-0.183,0.55,0.114,1.143,0.663,1.327 c0.11,0.037,0.222,0.054,0.332,0.054c0.439,0,0.848-0.278,0.995-0.717l0.577-1.731C92.774,125.389,92.477,124.795,91.927,124.612z"
		/>
		<path class="grey-fill" d="M94.957,127.595l-1.416,1.049c-0.465,0.345-0.563,1.002-0.219,1.467c0.206,0.278,0.523,0.425,0.844,0.425 c0.217,0,0.436-0.067,0.623-0.206l1.416-1.049c0.465-0.345,0.563-1.002,0.219-1.467C96.079,127.349,95.422,127.251,94.957,127.595z"/>
		<path class="grey-fill" d="M84.127,133.652l-1.573,0.629c-0.538,0.215-0.799,0.826-0.584,1.363c0.164,0.41,0.558,0.66,0.974,0.66 c0.13,0,0.262-0.024,0.389-0.075l1.573-0.629c0.538-0.215,0.799-0.826,0.584-1.363C85.275,133.699,84.665,133.437,84.127,133.652z"/>
		<path class="grey-fill" d="M84.937,129.68l-1.678-0.734c-0.531-0.232-1.149,0.01-1.381,0.54c-0.232,0.531,0.01,1.149,0.54,1.381l1.678,0.734 c0.137,0.06,0.279,0.088,0.42,0.088c0.404,0,0.789-0.235,0.961-0.629C85.709,130.53,85.467,129.912,84.937,129.68z"/>
		<path class="grey-fill" ="M87.219,125.627c-0.279-0.508-0.916-0.694-1.424-0.415c-0.508,0.278-0.694,0.916-0.415,1.424l0.892,1.626 c0.191,0.348,0.55,0.545,0.921,0.545c0.17,0,0.343-0.042,0.503-0.129c0.508-0.279,0.694-0.916,0.415-1.424L87.219,125.627z"/>
	</g>
	<g ng-click="activeLearningSpacesSelected()" ng-mouseover="showActiveLearningPopover=true;" ng-mouseleave="showActiveLearningPopover=false;">
		<path class="white-fill" d="M218.798,20.314c-2.286,0-4.506,0.841-6.226,2.382c-1.973,1.769-3.101,4.294-3.101,6.945v94.623 c0,4.275,2.906,8.002,7.051,9.045c29.724,7.48,50.483,34.138,50.483,64.828c0,6.994-1.088,13.91-3.233,20.555 c-1.351,4.185,0.404,8.744,4.212,10.943l81.672,47.153c1.432,0.827,3.043,1.25,4.664,1.25c0.952,0,1.907-0.146,2.833-0.441 c2.501-0.797,4.551-2.612,5.645-4.999C373.549,249.153,379,224.1,379,198.138c0-44.338-16.344-86.869-46.021-119.76 c-29.455-32.644-69.645-53.246-113.166-58.008C219.474,20.333,219.135,20.314,218.798,20.314L218.798,20.314z"/>
		<path class="grey-fill" d="M334.223,118.229c-0.068,0.667-0.1,1.339-0.21,1.999c-0.244,1.467-0.526,2.927-0.791,4.376 c-4.064-0.116-9.489-4.278-10.143-9.87c0.31-0.089,0.627-0.186,0.947-0.27c1.781-0.47,3.584-0.809,5.429-0.891 c0.086-0.004,0.171-0.037,0.257-0.056c0.853,0,1.705,0,2.558,0c0.153,0.021,0.305,0.053,0.459,0.06 c0.876,0.04,1.387,0.554,1.427,1.436c0.009,0.198,0.043,0.394,0.066,0.591C334.223,116.478,334.223,117.354,334.223,118.229z"/>
		<path class="grey-fill" d="M288.244,135.933c0.23-0.324,0.42-0.687,0.696-0.965c1.389-1.402,2.759-2.827,4.216-4.156 c1.465-1.337,3.192-2.231,5.184-2.521c0.688-0.1,1.386-0.135,2.054,0.14c0.059,0.024,0.114,0.059,0.197,0.104 c-0.333,0.451-0.654,0.879-0.968,1.312c-1.615,2.223-3.096,4.533-4.443,6.929c-0.077,0.137-0.13,0.276-0.345,0.238 c-1.308-0.231-2.589-0.011-3.865,0.257c-0.318,0.067-0.633,0.145-0.949,0.22c-0.831,0.198-1.378-0.082-1.717-0.879 c-0.012-0.028-0.04-0.049-0.061-0.073C288.244,136.337,288.244,136.135,288.244,135.933z"/>
		<path class="grey-fill" d="M311.402,159.495c-0.983-0.415-1.193-0.827-1.038-1.919c0.151-1.065,0.286-2.132,0.394-3.202 c0.041-0.409-0.002-0.828-0.029-1.24c-0.012-0.185,0.013-0.301,0.194-0.404c2.831-1.602,5.563-3.358,8.165-5.313 c0.026-0.02,0.059-0.03,0.12-0.059c0.222,0.37,0.256,0.782,0.259,1.188c0.009,1.35-0.379,2.605-0.963,3.809 c-0.549,1.131-1.291,2.123-2.174,3.012c-1.194,1.201-2.383,2.407-3.591,3.593c-0.225,0.221-0.53,0.359-0.798,0.535 C311.761,159.495,311.581,159.495,311.402,159.495z"/>
		<path class="grey-fill" d="M320.39,115.71c1.632,6.237,5.525,10.105,11.815,11.646c-0.108,0.263-0.236,0.591-0.377,0.913 c-1.506,3.44-3.573,6.518-6.044,9.333c-3.882,4.421-8.452,8.013-13.424,11.12c-0.304,0.19-0.607,0.38-0.929,0.582 c-0.076-0.069-0.152-0.131-0.222-0.2c-0.906-0.903-1.807-1.811-2.72-2.705c-0.16-0.156-0.195-0.282-0.114-0.493 c0.359-0.939,0.563-1.909,0.547-2.922c-0.04-2.549-1.872-4.278-4.424-4.181c-0.951,0.036-1.863,0.237-2.754,0.56 c-0.094,0.034-0.266,0.001-0.336-0.068c-0.92-0.904-1.824-1.826-2.745-2.728c-0.182-0.178-0.076-0.288,0.009-0.43 c1.338-2.234,2.811-4.376,4.415-6.427c3.05-3.9,6.501-7.391,10.555-10.259c2.019-1.428,4.164-2.635,6.435-3.617 C320.19,115.784,320.305,115.743,320.39,115.71z M324.569,129.882c0-3.685-3.016-6.724-6.679-6.727 c-3.757-0.004-6.766,2.983-6.779,6.729c-0.013,3.719,2.983,6.733,6.692,6.734C321.565,136.619,324.569,133.628,324.569,129.882z"/>
		<path class="grey-fill" d="M304.429,141.464c1.313,0.006,1.91,0.666,1.825,1.845c-0.1,1.397-0.649,2.612-1.627,3.598 c-2.135,2.151-4.38,4.179-6.919,5.853c-0.681,0.449-1.402,0.839-2.12,1.229c-0.557,0.303-1.149,0.207-1.583-0.207 c-0.409-0.391-0.564-1.011-0.267-1.545c0.576-1.035,1.162-2.072,1.836-3.044c1.569-2.264,3.409-4.306,5.387-6.217 C301.962,142.009,303.218,141.547,304.429,141.464z"/>
		<path class="grey-fill" d="M302.904,152.227c1.315-1.226,2.608-2.432,3.876-3.614c0.685,0.687,1.407,1.411,2.142,2.149 c-0.034,0.021-0.121,0.081-0.214,0.13c-1.188,0.627-2.373,1.26-3.567,1.874c-0.87,0.448-1.345,0.359-2.042-0.335 C303.037,152.369,302.977,152.304,302.904,152.227z"/>
		<path class="grey-fill" d="M299.105,140.967c-1.158,1.242-2.371,2.543-3.584,3.845c-0.673-0.5-0.902-1.106-0.57-1.789 c0.679-1.398,1.401-2.776,2.104-4.161C297.77,139.596,298.454,140.298,299.105,140.967z"/>
		<path class="grey-fill" d="M313.809,129.903c-0.005-2.237,1.801-4.053,4.033-4.054c2.215-0.002,4.019,1.794,4.039,4.02 c0.019,2.213-1.816,4.054-4.04,4.054C315.623,133.922,313.814,132.118,313.809,129.903z"/>
	</g>
	<g ng-click="evospacesSelected()" ng-mouseover="showEvospacesPopover=true;" ng-mouseleave="showEvospacesPopover=false;">
		<path class="white-fill" d="M255.286,241.354c-2.487,0-4.945,0.993-6.754,2.892c-12.755,13.379-29.936,20.747-48.381,20.747 c-18.265,0-35.329-7.245-48.051-20.4c-1.806-1.868-4.243-2.844-6.708-2.844c-1.596,0-3.204,0.409-4.66,1.25l-81.947,47.312 c-2.297,1.326-3.92,3.567-4.465,6.162c-0.545,2.595,0.041,5.3,1.611,7.437c16.277,22.159,37.754,40.536,62.108,53.147 c25.179,13.038,53.573,19.93,82.112,19.93c28.637,0,57.118-6.937,82.363-20.06c24.419-12.694,45.924-31.184,62.188-53.471 c1.56-2.138,2.139-4.838,1.591-7.428c-0.548-2.59-2.17-4.825-4.462-6.148l-81.885-47.276 C258.489,241.763,256.881,241.354,255.286,241.354L255.286,241.354z"/>
		<path class="grey-fill" d="M224.843,307.68c-7.143-0.004-14.285-0.004-21.428-0.004c-7.607,0-15.214,0-22.821,0.003c-1.101,0-1.868,0.7-1.878,1.695 c-0.01,1.016,0.774,1.734,1.895,1.735c0.495,0.001,0.99,0,1.532,0c0,0.263,0,0.473,0,0.683c-0.001,8.751-0.002,17.503-0.003,26.254 c0,1.875-0.007,3.751,0.007,5.626c0.007,0.904,0.669,1.629,1.524,1.722c0.862,0.093,1.678-0.489,1.859-1.35 c0.051-0.241,0.042-0.497,0.042-0.746c0.001-8.233,0-16.467-0.001-24.7c0-0.205,0-0.409,0-0.653c12.615,0,25.143,0,37.712,0 c0-2.283,0-4.527,0-6.837c0.63,0,1.182,0.012,1.733-0.003c0.743-0.019,1.353-0.466,1.594-1.141 C227.026,308.794,226.172,307.681,224.843,307.68z M204.401,314.531c-0.57,0.015-1.142,0.003-1.712,0.003c0,0.001,0,0.002,0,0.003 c-0.553,0-1.106,0.01-1.659-0.002c-0.996-0.021-1.747-0.77-1.742-1.722c0.005-0.956,0.753-1.69,1.76-1.701 c1.106-0.012,2.212-0.011,3.318,0c1.007,0.01,1.765,0.744,1.772,1.691C206.144,313.756,205.4,314.506,204.401,314.531z"/>
		<path class="grey-fill" d="M223.285,331.719c-7.463,0-14.86,0-22.247,0c-0.017,0.073-0.032,0.106-0.032,0.14c-0.002,3.946-0.011,7.892,0,11.837 c0.003,0.96,0.779,1.703,1.708,1.704c0.932,0.001,1.685-0.736,1.713-1.698c0.016-0.551,0.003-1.103,0.003-1.694 c5.175,0,10.287,0,15.427,0c0,0.518-0.002,0.998,0,1.478c0.005,1.132,0.705,1.911,1.718,1.914c1.006,0.003,1.711-0.786,1.711-1.917 c0-3.732,0-7.463-0.001-11.195C223.285,332.099,223.285,331.91,223.285,331.719z M213.054,338.537 c-0.303,0.014-0.606,0.002-0.91,0.002c0-0.002,0-0.005,0-0.007c-0.339,0-0.68,0.026-1.016-0.005 c-0.896-0.082-1.575-0.856-1.555-1.742c0.02-0.892,0.723-1.629,1.631-1.666c0.623-0.025,1.249-0.024,1.873,0.003 c0.928,0.04,1.642,0.806,1.636,1.717C214.705,337.75,213.985,338.493,213.054,338.537z"/>
		<path class="grey-fill" d="M223.248,319.722c-7.437,0-14.833,0-22.22,0c0,3.429,0,6.815,0,10.225c7.414,0,14.798,0,22.22,0 C223.248,326.504,223.248,323.106,223.248,319.722z M213.13,326.527c-0.337,0.026-0.678,0.004-1.016,0.004c0,0.002,0,0.003,0,0.005 c-0.303,0-0.607,0.014-0.91-0.003c-0.921-0.05-1.638-0.814-1.631-1.724c0.007-0.894,0.702-1.647,1.605-1.69 c0.641-0.031,1.285-0.03,1.926,0c0.898,0.042,1.599,0.802,1.605,1.692C214.716,325.706,214.033,326.458,213.13,326.527z"/>
	</g>

	<g ng-show="classroomTransformationSolutions == 'SMART Board/SMART Learning Suite'">
	  <path class="classroom-transformation-color" d="M114.404,114.794H67.848c-2.718,0-4.934,2.196-4.964,4.908c0,0.011,0,0.023,0,0.032v27.494v0.883v0.772 c0,2.746,2.273,4.954,4.943,4.964h14.451h17.696h14.43c2.809,0,4.961-2.331,4.964-4.958v-0.778v-0.883v-27.469 C119.368,117.021,117.141,114.794,114.404,114.794z M91.51,148.966c0.156-0.13,0.304-0.277,0.431-0.454 c0.029-0.04,0.055-0.082,0.078-0.126l0.897-1.712l1.224,2.292H91.51z M114.404,148.966h-13.993 c0.168-0.707,0.104-1.442-0.218-2.106c-0.009-0.019-0.019-0.038-0.029-0.056l-1.688-3.004h1.826c0.013,0,0.026,0,0.039-0.001 c1.246-0.047,2.315-0.797,2.791-1.959c0.479-1.169,0.241-2.461-0.619-3.374c-0.397-0.421-1.061-0.441-1.483-0.044 c-0.421,0.397-0.441,1.061-0.044,1.483c0.434,0.461,0.266,0.989,0.204,1.14c-0.06,0.147-0.303,0.626-0.912,0.658h-3.596 c-0.373,0-0.717,0.198-0.905,0.519c-0.188,0.321-0.192,0.719-0.009,1.043l2.548,4.535c0.116,0.254,0.128,0.538,0.034,0.803 c-0.049,0.138-0.124,0.26-0.22,0.365h-1.555c-0.075-0.078-0.148-0.159-0.197-0.261c-0.007-0.014-0.013-0.027-0.02-0.04 l-2.525-4.728c-0.182-0.342-0.538-0.555-0.925-0.555c-0.001,0-0.003,0-0.004,0c-0.389,0.002-0.745,0.218-0.925,0.562l-1.77,3.379 c-0.112,0.115-0.336,0.199-0.54,0.199c-0.002,0-0.003,0-0.005,0c-0.499-0.003-1.056-0.478-1.056-1.154v-13.58 c0-0.621,0.465-0.885,0.607-0.951c0.143-0.066,0.644-0.251,1.118,0.15c0.016,0.014,0.033,0.027,0.05,0.04l6.932,5.162 c0.465,0.346,1.122,0.25,1.468-0.215c0.346-0.465,0.25-1.122-0.215-1.468l-6.909-5.145c-0.944-0.78-2.216-0.944-3.328-0.427 c-1.123,0.522-1.821,1.615-1.821,2.854v13.579c0,0.871,0.337,1.69,0.95,2.308c0.108,0.108,0.229,0.199,0.349,0.29h-5.53 l-14.426,0.001c-0.028-0.007-0.078-0.053-0.086-0.083v-0.772v-0.883v-27.476c0.004-0.036,0.041-0.076,0.083-0.076h46.555 c0.042,0,0.083,0.041,0.083,0.083v27.469v0.883l0,0.765C114.481,148.904,114.442,148.955,114.404,148.966z"/>
	  <path class="classroom-transformation-color" d="M91.927,124.612c-0.549-0.183-1.143,0.114-1.327,0.663l-0.577,1.73c-0.183,0.55,0.114,1.143,0.663,1.327 c0.11,0.037,0.222,0.054,0.332,0.054c0.439,0,0.848-0.278,0.995-0.717l0.577-1.731C92.774,125.389,92.477,124.795,91.927,124.612z"
	  />
	  <path class="classroom-transformation-color" d="M94.957,127.595l-1.416,1.049c-0.465,0.345-0.563,1.002-0.219,1.467c0.206,0.278,0.523,0.425,0.844,0.425 c0.217,0,0.436-0.067,0.623-0.206l1.416-1.049c0.465-0.345,0.563-1.002,0.219-1.467C96.079,127.349,95.422,127.251,94.957,127.595z"/>
	  <path class="classroom-transformation-color" d="M84.127,133.652l-1.573,0.629c-0.538,0.215-0.799,0.826-0.584,1.363c0.164,0.41,0.558,0.66,0.974,0.66 c0.13,0,0.262-0.024,0.389-0.075l1.573-0.629c0.538-0.215,0.799-0.826,0.584-1.363C85.275,133.699,84.665,133.437,84.127,133.652z"/>
	  <path class="classroom-transformation-color" d="M84.937,129.68l-1.678-0.734c-0.531-0.232-1.149,0.01-1.381,0.54c-0.232,0.531,0.01,1.149,0.54,1.381l1.678,0.734 c0.137,0.06,0.279,0.088,0.42,0.088c0.404,0,0.789-0.235,0.961-0.629C85.709,130.53,85.467,129.912,84.937,129.68z"/>
	  <path class="classroom-transformation-color" ="M87.219,125.627c-0.279-0.508-0.916-0.694-1.424-0.415c-0.508,0.278-0.694,0.916-0.415,1.424l0.892,1.626 c0.191,0.348,0.55,0.545,0.921,0.545c0.17,0,0.343-0.042,0.503-0.129c0.508-0.279,0.694-0.916,0.415-1.424L87.219,125.627z"/>
	</g>
	<g ng-show="classroomTransformationSolutions == 'Active Learning Spaces'">
	  <path class="classroom-transformation-color" d="M334.223,118.229c-0.068,0.667-0.1,1.339-0.21,1.999c-0.244,1.467-0.526,2.927-0.791,4.376 c-4.064-0.116-9.489-4.278-10.143-9.87c0.31-0.089,0.627-0.186,0.947-0.27c1.781-0.47,3.584-0.809,5.429-0.891 c0.086-0.004,0.171-0.037,0.257-0.056c0.853,0,1.705,0,2.558,0c0.153,0.021,0.305,0.053,0.459,0.06 c0.876,0.04,1.387,0.554,1.427,1.436c0.009,0.198,0.043,0.394,0.066,0.591C334.223,116.478,334.223,117.354,334.223,118.229z"/>
	  <path class="classroom-transformation-color" d="M288.244,135.933c0.23-0.324,0.42-0.687,0.696-0.965c1.389-1.402,2.759-2.827,4.216-4.156 c1.465-1.337,3.192-2.231,5.184-2.521c0.688-0.1,1.386-0.135,2.054,0.14c0.059,0.024,0.114,0.059,0.197,0.104 c-0.333,0.451-0.654,0.879-0.968,1.312c-1.615,2.223-3.096,4.533-4.443,6.929c-0.077,0.137-0.13,0.276-0.345,0.238 c-1.308-0.231-2.589-0.011-3.865,0.257c-0.318,0.067-0.633,0.145-0.949,0.22c-0.831,0.198-1.378-0.082-1.717-0.879 c-0.012-0.028-0.04-0.049-0.061-0.073C288.244,136.337,288.244,136.135,288.244,135.933z"/>
	  <path class="classroom-transformation-color" d="M311.402,159.495c-0.983-0.415-1.193-0.827-1.038-1.919c0.151-1.065,0.286-2.132,0.394-3.202 c0.041-0.409-0.002-0.828-0.029-1.24c-0.012-0.185,0.013-0.301,0.194-0.404c2.831-1.602,5.563-3.358,8.165-5.313 c0.026-0.02,0.059-0.03,0.12-0.059c0.222,0.37,0.256,0.782,0.259,1.188c0.009,1.35-0.379,2.605-0.963,3.809 c-0.549,1.131-1.291,2.123-2.174,3.012c-1.194,1.201-2.383,2.407-3.591,3.593c-0.225,0.221-0.53,0.359-0.798,0.535 C311.761,159.495,311.581,159.495,311.402,159.495z"/>
	  <path class="classroom-transformation-color" d="M320.39,115.71c1.632,6.237,5.525,10.105,11.815,11.646c-0.108,0.263-0.236,0.591-0.377,0.913 c-1.506,3.44-3.573,6.518-6.044,9.333c-3.882,4.421-8.452,8.013-13.424,11.12c-0.304,0.19-0.607,0.38-0.929,0.582 c-0.076-0.069-0.152-0.131-0.222-0.2c-0.906-0.903-1.807-1.811-2.72-2.705c-0.16-0.156-0.195-0.282-0.114-0.493 c0.359-0.939,0.563-1.909,0.547-2.922c-0.04-2.549-1.872-4.278-4.424-4.181c-0.951,0.036-1.863,0.237-2.754,0.56 c-0.094,0.034-0.266,0.001-0.336-0.068c-0.92-0.904-1.824-1.826-2.745-2.728c-0.182-0.178-0.076-0.288,0.009-0.43 c1.338-2.234,2.811-4.376,4.415-6.427c3.05-3.9,6.501-7.391,10.555-10.259c2.019-1.428,4.164-2.635,6.435-3.617 C320.19,115.784,320.305,115.743,320.39,115.71z M324.569,129.882c0-3.685-3.016-6.724-6.679-6.727 c-3.757-0.004-6.766,2.983-6.779,6.729c-0.013,3.719,2.983,6.733,6.692,6.734C321.565,136.619,324.569,133.628,324.569,129.882z"/>
	  <path class="classroom-transformation-color" d="M304.429,141.464c1.313,0.006,1.91,0.666,1.825,1.845c-0.1,1.397-0.649,2.612-1.627,3.598 c-2.135,2.151-4.38,4.179-6.919,5.853c-0.681,0.449-1.402,0.839-2.12,1.229c-0.557,0.303-1.149,0.207-1.583-0.207 c-0.409-0.391-0.564-1.011-0.267-1.545c0.576-1.035,1.162-2.072,1.836-3.044c1.569-2.264,3.409-4.306,5.387-6.217 C301.962,142.009,303.218,141.547,304.429,141.464z"/>
	  <path class="classroom-transformation-color" d="M302.904,152.227c1.315-1.226,2.608-2.432,3.876-3.614c0.685,0.687,1.407,1.411,2.142,2.149 c-0.034,0.021-0.121,0.081-0.214,0.13c-1.188,0.627-2.373,1.26-3.567,1.874c-0.87,0.448-1.345,0.359-2.042-0.335 C303.037,152.369,302.977,152.304,302.904,152.227z"/>
	  <path class="classroom-transformation-color" d="M299.105,140.967c-1.158,1.242-2.371,2.543-3.584,3.845c-0.673-0.5-0.902-1.106-0.57-1.789 c0.679-1.398,1.401-2.776,2.104-4.161C297.77,139.596,298.454,140.298,299.105,140.967z"/>
	  <path class="classroom-transformation-color" d="M313.809,129.903c-0.005-2.237,1.801-4.053,4.033-4.054c2.215-0.002,4.019,1.794,4.039,4.02 c0.019,2.213-1.816,4.054-4.04,4.054C315.623,133.922,313.814,132.118,313.809,129.903z"/>
	</g>
	<g ng-show="classroomTransformationSolutions == 'Evospaces (furniture)'">
	  <path class="classroom-transformation-color" d="M224.843,307.68c-7.143-0.004-14.285-0.004-21.428-0.004c-7.607,0-15.214,0-22.821,0.003c-1.101,0-1.868,0.7-1.878,1.695 c-0.01,1.016,0.774,1.734,1.895,1.735c0.495,0.001,0.99,0,1.532,0c0,0.263,0,0.473,0,0.683c-0.001,8.751-0.002,17.503-0.003,26.254 c0,1.875-0.007,3.751,0.007,5.626c0.007,0.904,0.669,1.629,1.524,1.722c0.862,0.093,1.678-0.489,1.859-1.35 c0.051-0.241,0.042-0.497,0.042-0.746c0.001-8.233,0-16.467-0.001-24.7c0-0.205,0-0.409,0-0.653c12.615,0,25.143,0,37.712,0 c0-2.283,0-4.527,0-6.837c0.63,0,1.182,0.012,1.733-0.003c0.743-0.019,1.353-0.466,1.594-1.141 C227.026,308.794,226.172,307.681,224.843,307.68z M204.401,314.531c-0.57,0.015-1.142,0.003-1.712,0.003c0,0.001,0,0.002,0,0.003 c-0.553,0-1.106,0.01-1.659-0.002c-0.996-0.021-1.747-0.77-1.742-1.722c0.005-0.956,0.753-1.69,1.76-1.701 c1.106-0.012,2.212-0.011,3.318,0c1.007,0.01,1.765,0.744,1.772,1.691C206.144,313.756,205.4,314.506,204.401,314.531z"/>
	  <path class="classroom-transformation-color" d="M223.285,331.719c-7.463,0-14.86,0-22.247,0c-0.017,0.073-0.032,0.106-0.032,0.14c-0.002,3.946-0.011,7.892,0,11.837 c0.003,0.96,0.779,1.703,1.708,1.704c0.932,0.001,1.685-0.736,1.713-1.698c0.016-0.551,0.003-1.103,0.003-1.694 c5.175,0,10.287,0,15.427,0c0,0.518-0.002,0.998,0,1.478c0.005,1.132,0.705,1.911,1.718,1.914c1.006,0.003,1.711-0.786,1.711-1.917 c0-3.732,0-7.463-0.001-11.195C223.285,332.099,223.285,331.91,223.285,331.719z M213.054,338.537 c-0.303,0.014-0.606,0.002-0.91,0.002c0-0.002,0-0.005,0-0.007c-0.339,0-0.68,0.026-1.016-0.005 c-0.896-0.082-1.575-0.856-1.555-1.742c0.02-0.892,0.723-1.629,1.631-1.666c0.623-0.025,1.249-0.024,1.873,0.003 c0.928,0.04,1.642,0.806,1.636,1.717C214.705,337.75,213.985,338.493,213.054,338.537z"/>
	  <path class="classroom-transformation-color" d="M223.248,319.722c-7.437,0-14.833,0-22.22,0c0,3.429,0,6.815,0,10.225c7.414,0,14.798,0,22.22,0 C223.248,326.504,223.248,323.106,223.248,319.722z M213.13,326.527c-0.337,0.026-0.678,0.004-1.016,0.004c0,0.002,0,0.003,0,0.005 c-0.303,0-0.607,0.014-0.91-0.003c-0.921-0.05-1.638-0.814-1.631-1.724c0.007-0.894,0.702-1.647,1.605-1.69 c0.641-0.031,1.285-0.03,1.926,0c0.898,0.042,1.599,0.802,1.605,1.692C214.716,325.706,214.033,326.458,213.13,326.527z"/>
	</g>

	<g ng-show="classroomSelected" ng-click="classroomSelectedReset()">
		<path class="white-fill" d="M220.321,179.665l-20.485,37.211c0,0,0,0.001-0.001,0.001c-0.112,0.204-0.242,0.4-0.383,0.591 c-0.036,0.048-0.073,0.095-0.11,0.141c-0.108,0.136-0.223,0.267-0.345,0.393c-0.043,0.045-0.084,0.091-0.128,0.134 c-0.012,0.011-0.022,0.024-0.034,0.036c-0.148,0.141-0.303,0.269-0.463,0.389c-0.044,0.034-0.092,0.062-0.137,0.094
		c-0.143,0.101-0.29,0.195-0.44,0.28c-0.054,0.031-0.108,0.06-0.163,0.089c-0.17,0.089-0.343,0.169-0.52,0.238 c-0.029,0.011-0.057,0.025-0.086,0.036c-0.211,0.078-0.425,0.142-0.643,0.193c-0.046,0.011-0.092,0.018-0.138,0.027 c-0.171,0.035-0.343,0.062-0.516,0.08c-0.066,0.007-0.131,0.014-0.198,0.019c-0.199,0.013-0.398,0.018-0.596,0.01 c-0.019-0.001-0.038,0.002-0.057,0.001c-0.052-0.003-0.103-0.013-0.155-0.017c-0.124-0.01-0.247-0.021-0.37-0.04 c-0.075-0.012-0.149-0.029-0.223-0.043c-0.108-0.021-0.215-0.044-0.321-0.072c-0.07-0.018-0.139-0.04-0.209-0.061 c-0.117-0.036-0.232-0.076-0.347-0.12c-0.057-0.022-0.113-0.043-0.17-0.067c-0.139-0.059-0.276-0.125-0.41-0.196 c-0.025-0.013-0.052-0.023-0.077-0.037c-0.008-0.005-0.016-0.01-0.024-0.015c-0.115-0.064-0.227-0.135-0.338-0.209 c-0.039-0.026-0.081-0.05-0.119-0.076c-0.08-0.056-0.156-0.118-0.233-0.179c-0.065-0.051-0.132-0.099-0.195-0.153 c-0.027-0.023-0.052-0.05-0.079-0.075c-0.107-0.096-0.211-0.193-0.309-0.296l-11.971-12.622c-2.026-2.136-1.936-5.509,0.2-7.535 c2.137-2.024,5.51-1.936,7.535,0.2l6.952,7.331l16.968-30.822c1.42-2.579,4.662-3.518,7.239-2.099 C220.801,173.845,221.74,177.086,220.321,179.665z"/>
		<path class="classroom-transformation-color" d="M200,140.174c-31.28,0-56.637,25.357-56.637,56.637S168.72,253.448,200,253.448s56.637-25.357,56.637-56.637 S231.28,140.174,200,140.174z M220.321,179.665l-20.485,37.211c0,0,0,0.001-0.001,0.001c-0.112,0.204-0.242,0.4-0.383,0.591 c-0.036,0.048-0.073,0.095-0.11,0.141c-0.108,0.136-0.223,0.267-0.345,0.393c-0.043,0.045-0.084,0.091-0.128,0.134 c-0.012,0.011-0.022,0.024-0.034,0.036c-0.148,0.141-0.303,0.269-0.463,0.389c-0.044,0.034-0.092,0.062-0.137,0.094 c-0.143,0.101-0.29,0.195-0.44,0.28c-0.054,0.031-0.108,0.06-0.163,0.089c-0.17,0.089-0.343,0.169-0.52,0.238 c-0.029,0.011-0.057,0.025-0.086,0.036c-0.211,0.078-0.425,0.142-0.643,0.193c-0.046,0.011-0.092,0.018-0.138,0.027 c-0.171,0.035-0.343,0.062-0.516,0.08c-0.066,0.007-0.131,0.014-0.198,0.019c-0.199,0.013-0.398,0.018-0.596,0.01 c-0.019-0.001-0.038,0.002-0.057,0.001c-0.052-0.003-0.103-0.013-0.155-0.017c-0.124-0.01-0.247-0.021-0.37-0.04 c-0.075-0.012-0.149-0.029-0.223-0.043c-0.108-0.021-0.215-0.044-0.321-0.072c-0.07-0.018-0.139-0.04-0.209-0.061 c-0.117-0.036-0.232-0.076-0.347-0.12c-0.057-0.022-0.113-0.043-0.17-0.067c-0.139-0.059-0.276-0.125-0.41-0.196 c-0.025-0.013-0.052-0.023-0.077-0.037c-0.008-0.005-0.016-0.01-0.024-0.015c-0.115-0.064-0.227-0.135-0.338-0.209 c-0.039-0.026-0.081-0.05-0.119-0.076c-0.08-0.056-0.156-0.118-0.233-0.179c-0.065-0.051-0.132-0.099-0.195-0.153 c-0.027-0.023-0.052-0.05-0.079-0.075c-0.107-0.096-0.211-0.193-0.309-0.296l-11.971-12.622c-2.026-2.136-1.936-5.509,0.2-7.535 c2.137-2.024,5.51-1.936,7.535,0.2l6.952,7.331l16.968-30.822c1.42-2.579,4.662-3.518,7.239-2.099 C220.801,173.845,221.74,177.086,220.321,179.665z"/>
	</g>

	<text x="0" y="100" fill="#505051" font-weight="400" font-family="Roboto,Helvetica,Arial,san-serif" font-size="24px" ng-show="showSmartPopover">SMART Technologies</text>
	<text x="115" y="100" fill="#505051" font-weight="400" font-family="Roboto,Helvetica,Arial,san-serif" font-size="24px" ng-show="showActiveLearningPopover">Active Learning Spaces</text>
	<text x="100" y="285" fill="#505051" font-weight="400" font-family="Roboto,Helvetica,Arial,san-serif" font-size="24px" ng-show="showEvospacesPopover">Evospaces (furniture)</text>
</svg>
