<?xml version="1.0" encoding="utf-8"?>
<!-- Generator: Adobe Illustrator 25.4.1, SVG Export Plug-In . SVG Version: 6.00 Build 0)  -->
<svg version="1.1" id="Layer_1" xmlns="http://www.w3.org/2000/svg" xmlns:xlink="http://www.w3.org/1999/xlink" x="0px" y="0px"
	 viewBox="0 0 50 50" style="enable-background:new 0 0 50 50;" xml:space="preserve">
<style type="text/css">
	.st0{fill:url(#SVGID_1_);}
	.st1{fill:#92B0B5;}
	.st2{fill:#A1BEC3;}
	.st3{fill:#AFCCD2;}
	.st4{fill:#CDE8EF;}
	.st5{fill:#BEDBE0;}
	.st6{fill:#C02E59;}
	.st7{fill:#D42C59;}
	.st8{fill:#E6B0C0;}
	.st9{fill:#FFFFFF;}
	.st10{fill:#4B1D23;}
	.st11{fill:#34ADD2;}
	.st12{fill:#B7BCBF;}
	.st13{fill:#130000;}
	.st14{fill:#BCC7CD;}
	.st15{fill:#E72A59;}
	.st16{fill:#83A2A8;}
	.st17{fill:#AC315A;}
	.st18{fill:#BDCED8;}
	.st19{fill:#66C6BA;}
</style>
<radialGradient id="SVGID_1_" cx="-53.5128" cy="707.8137" r="15.8947" gradientTransform="matrix(1.5353 0 0 0.4819 107.1582 -299.5594)" gradientUnits="userSpaceOnUse">
	<stop  offset="0.2598" style="stop-color:#B4BCC1"/>
	<stop  offset="0.4308" style="stop-color:#BCC3C8;stop-opacity:0.7486"/>
	<stop  offset="0.6967" style="stop-color:#D2D7DA;stop-opacity:0.3577"/>
	<stop  offset="0.94" style="stop-color:#ECEEEF;stop-opacity:0"/>
</radialGradient>
<ellipse class="st0" cx="25" cy="41.536" rx="24.402" ry="7.66"/>
<g>
	<g>
		<g>
			<path class="st1" d="M19.924,27.97c0,0,0.421,2.482,1.358,3.887c0.936,1.405,2.575,3.371,3.324,3.371
				c0.749,0,1.994-0.201,2.153-0.749c0.196-0.674-0.796-2.06-1.826-1.967c-1.03,0.095-2.841-3.527-2.841-3.527L19.924,27.97z"/>
			<path class="st2" d="M31.552,30.065c0.162,0.517-1.702,2.637-5.026,2.31c-1.025-0.101-2.579-0.723-4.636-1.78
				c-3.465-1.779-4.886-7.493-1.686-9.646c3.344-2.25,3.883-1.466,5.849-0.997c1.967,0.469,2.205-0.221,2.205-0.221l-1.03,2.528
				C27.228,22.26,30.821,27.728,31.552,30.065z"/>
			<g>
				<path class="st1" d="M30.849,29.885c0,0,0.722,2.835,0.989,3.237c0.267,0.402,1.003,0.936,1.592,1.15
					c0.588,0.214,0.763-0.214,0.763-0.214s0.187,0.04,0.548-0.04c0.361-0.08,0.228-0.267,0.228-0.267s0.294-0.093,0.308-0.187
					c0.014-0.094-0.16-0.348-0.16-0.348l0.16-0.013c0,0,0.014-0.428-0.214-0.736c-0.227-0.308-1.177-0.334-1.177-0.334l-0.308-2.755
					L30.849,29.885z"/>
				<path class="st3" d="M28.304,30.922c0,0,1.44,2.829,1.708,3.23c0.267,0.402,1.003,0.936,1.592,1.15
					c0.588,0.214,0.763-0.214,0.763-0.214s0.187,0.04,0.548-0.04c0.361-0.08,0.228-0.267,0.228-0.267s0.294-0.093,0.308-0.187
					c0.014-0.093-0.16-0.348-0.16-0.348l0.16-0.013c0,0,0.014-0.428-0.214-0.736c-0.227-0.308-1.177-0.334-1.177-0.334l-1.025-2.748
					L28.304,30.922z"/>
			</g>
			<path class="st3" d="M28.914,19.448c0,0-2.154,0.375-3.371,1.873c-1.217,1.499-1.029,3.652,0.094,5.9
				c1.123,2.247,1.56,3.715,3.527,4.089c1.967,0.375,4.496-1.155,5.245-3.121c0.749-1.967-1.186-5.182-1.186-5.182L28.914,19.448z"
				/>
			<path class="st4" d="M31.664,20.728c0,0,1.994,2.738,2.535,3.346c0.54,0.609,0.54,3.347,0.169,4.834
				c-0.372,1.487-2.603,2.467-2.603,2.467s-0.777-1.251-0.879-1.623c-0.101-0.372-0.845-0.744-1.014-0.811
				c-0.169-0.067-0.744-0.575-0.913-1.589c-0.169-1.014-0.372-2.467-0.372-2.467l0.473,0.034l-1.014-2.333l2.501-0.304
				L31.664,20.728z"/>
			<path class="st2" d="M31.069,17.765c0,0-0.047-0.936-0.047-2.201s0.187-3.09,1.358-4.167c1.171-1.078,1.638-1.358,1.732-0.843
				c0.095,0.515,0.422,2.248,0.047,3.606c-0.375,1.358-1.873,4.354-1.873,4.354L31.069,17.765z"/>
			<path class="st5" d="M27.692,20.055c0.117-1.456,1.877-2.291,3.376-2.291c0.853,0,1.617,0.381,2.132,0.982l0.021,0.002
				c0,0,0.906,0.734,1.405,2.856c0.221,0.939,0.901,1.616,0.784,2.658c-0.063,0.567-0.409,0.902-0.784,1.089
				c-0.375,0.187-1.92,0.842-2.622,0.656c-0.643-0.171-2.344-0.696-2.879-1.394c-0.05-0.065-0.089-0.132-0.118-0.199
				c-0.252-0.614-1.322-3.78-1.322-4.203C27.686,20.158,27.687,20.105,27.692,20.055z"/>
			<path class="st2" d="M27.692,20.054c0.787-0.177,2.206,0.05,2.206,0.05s1.78,0.797,2.107,1.78
				c0.327,0.984,0.749,1.686,1.123,2.014c0.375,0.328-0.327,0.796-0.562,1.078c-0.234,0.282-1.405,0.89-2.95,0
				c-0.17-0.099-0.334-0.221-0.491-0.364c-0.05-0.065-0.089-0.132-0.118-0.199c-0.252-0.614-1.322-3.78-1.322-4.203
				C27.686,20.158,27.687,20.105,27.692,20.054z"/>
			<path class="st6" d="M30.79,22.537c-0.395-0.507-0.451-1.184,0.226-1.128c0.387,0.032,0.701,0.434,0.898,0.772
				c0.144,0.247-0.005,0.565-0.289,0.601C31.334,22.82,30.989,22.793,30.79,22.537z"/>
			<path class="st7" d="M34.814,24.601c-0.187,0.093-0.82-0.047-0.82-0.047s0.375,0.328,0.749,0.258
				c0.375-0.07,0.327-0.796,0.327-0.796S35.001,24.507,34.814,24.601z"/>
			<path class="st7" d="M34.849,24.718c0,0,0.099,0.469-0.024,0.544c-0.122,0.077-0.293,0.147-0.293,0.147s0.164-0.106,0.193-0.193
				c0.029-0.088-0.029-0.445-0.029-0.445L34.849,24.718z"/>
			<path class="st2" d="M28.025,17.061c0.609,0.703,1.873,3.044,1.873,3.044l-1.639,0.469c0,0-0.14-0.421-0.327-0.515
				c-0.188-0.094-0.937-0.14-2.248-0.796c-1.311-0.656-1.545-3.746-1.545-3.746C24.559,15.141,27.416,16.359,28.025,17.061z"/>
			<path class="st8" d="M27.837,19.011l1.311,1.062l-1.311-0.734l1.53,1.03c0,0-0.582-0.021-0.749-0.109
				c-0.236-0.124-0.406-0.437-0.827-0.671c-0.421-0.234-2.06-0.656-2.622-1.451c-0.562-0.796-0.609-2.153-0.609-2.153
				s2.81,1.311,3.044,2.014c0.234,0.703,0.968,1.499,0.968,1.499L27.837,19.011z"/>
		</g>
		<path class="st9" d="M31.517,21.92c0.083,0,0.15,0.067,0.15,0.15c0,0.083-0.067,0.15-0.15,0.15c-0.083,0-0.15-0.067-0.15-0.15
			C31.367,21.986,31.434,21.919,31.517,21.92z"/>
	</g>
</g>
<g>
	<g>
		<g>
			<g id="Axo_Extrusion_33_">
				<path id="Axo_panel_xB0__21_" class="st10" d="M12.977,38.486c-0.125-0.071-0.212-0.217-0.237-0.427l-0.405-3.269l12.752,7.362
					l0.405,3.269c0.026,0.209,0.112,0.355,0.237,0.427L12.977,38.486z"/>
				<path id="Axo_panel_8_" class="st11" d="M11.901,34.827c-0.128-0.075-0.209-0.239-0.209-0.477v-0.899l12.752,7.362v0.899
					c0,0.236,0.081,0.403,0.209,0.477L11.901,34.827z"/>
				<polygon id="Axo_panel_x2A__37_" class="st12" points="11.693,33.45 20.388,28.43 33.141,35.792 24.444,40.813 				"/>
				<path id="Axo_base_25_" class="st13" d="M25.492,45.421l-0.405-3.269c-0.167,0.097-0.318,0.103-0.433,0.038
					c-0.128-0.075-0.209-0.239-0.209-0.477v-0.899l8.696-5.021v0.899c0,0.447-0.288,0.975-0.642,1.179l-0.405,3.737
					c-0.055,0.498-0.372,1.028-0.747,1.245l-5.11,2.951c-0.194,0.112-0.373,0.123-0.508,0.045
					C25.603,45.776,25.517,45.629,25.492,45.421z"/>
			</g>
			<g id="Axo_Extrusion_32_">
				<path id="Axo_panel_6_" class="st14" d="M19.747,28.167c0.167-0.097,0.318-0.104,0.433-0.038l12.752,7.362
					c-0.114-0.066-0.267-0.058-0.433,0.038L19.747,28.167z"/>
				<path id="Axo_panel_x2A__35_" class="st7" d="M12.334,32.446l0.405-3.737c0.055-0.498,0.372-1.028,0.747-1.245l5.11-2.951
					c0.194-0.112,0.373-0.123,0.508-0.045l12.752,7.362c-0.133-0.078-0.314-0.067-0.508,0.045l-5.111,2.951
					c-0.375,0.217-0.692,0.747-0.746,1.245l-0.405,3.737L12.334,32.446z"/>
				<path id="Axo_panel_xB0__20_" class="st15" d="M11.692,34.525v-0.899c0-0.447,0.288-0.975,0.642-1.179l12.752,7.362
					c-0.354,0.205-0.642,0.733-0.642,1.179v0.899L11.692,34.525z"/>
				<path id="Axo_base_24_" class="st6" d="M24.444,41.887v-0.899c0-0.447,0.288-0.975,0.642-1.179l0.405-3.737
					c0.054-0.498,0.371-1.028,0.746-1.245l5.11-2.951c0.194-0.112,0.373-0.123,0.508-0.045c0.125,0.071,0.212,0.217,0.237,0.427
					l0.405,3.269c0.167-0.097,0.318-0.104,0.433-0.038c0.128,0.075,0.209,0.239,0.209,0.477v0.899L24.444,41.887L24.444,41.887z"/>
			</g>
		</g>
		<path class="st10" d="M27.576,43.485c-0.401-0.114-0.572-0.343-0.572-0.343l-0.114-6.063l4.92-2.919l0.628,6.636
			C32.437,40.797,27.976,43.6,27.576,43.485z"/>
		<g>
			<g id="Axo_Extrusion_31_">
				<g id="Axo_Inversion_6_">
					<path id="Axo_panel_4_" class="st16" d="M31.596,33.689c0.132,0.077,0.214,0.239,0.214,0.472v5.604
						c0,0.464-0.327,1.029-0.728,1.261l-4.206,2.428c-0.201,0.116-0.382,0.126-0.514,0.05l1.615,0.933
						c0.131,0.077,0.313,0.065,0.514-0.05l4.206-2.428c0.401-0.232,0.728-0.798,0.728-1.261v-5.604c0-0.232-0.082-0.396-0.214-0.472
						L31.596,33.689z"/>
					<path class="st5" d="M31.808,41.342v-6.696c0-0.07,0.057-0.127,0.127-0.127h0.061c0.07,0,0.127,0.057,0.127,0.127v6.696
						c0,0.07-0.057,0.127-0.127,0.127h-0.061C31.865,41.469,31.808,41.412,31.808,41.342z"/>
					<path class="st5" d="M30.842,41.899v-6.695c0-0.07,0.057-0.127,0.127-0.127h0.061c0.07,0,0.127,0.057,0.127,0.127v6.695
						c0,0.07-0.057,0.127-0.127,0.127h-0.061C30.899,42.026,30.842,41.97,30.842,41.899z"/>
					<path class="st5" d="M29.876,42.458v-6.696c0-0.07,0.058-0.127,0.127-0.127h0.061c0.07,0,0.127,0.057,0.127,0.127v6.696
						c0,0.07-0.057,0.127-0.127,0.127h-0.061C29.932,42.585,29.876,42.528,29.876,42.458z"/>
					<path class="st5" d="M28.908,43.015v-6.696c0-0.07,0.057-0.127,0.127-0.127h0.061c0.07,0,0.127,0.057,0.127,0.127v6.696
						c0,0.07-0.058,0.127-0.127,0.127h-0.061C28.966,43.142,28.908,43.086,28.908,43.015z"/>
					<path class="st5" d="M27.942,43.573v-6.696c0-0.07,0.057-0.127,0.127-0.127h0.061c0.07,0,0.127,0.058,0.127,0.127v6.696
						c0,0.07-0.058,0.127-0.127,0.127h-0.061C28,43.7,27.943,43.644,27.942,43.573z"/>
					<path class="st5" d="M32.775,35.211l-5.746,3.318c-0.076,0.043-0.101-0.023-0.058-0.148c0.044-0.125,0.141-0.263,0.215-0.306
						l5.746-3.318c0.076-0.043,0.101,0.023,0.058,0.148C32.949,35.031,32.852,35.167,32.775,35.211z"/>
					<path class="st5" d="M32.775,36.328l-5.746,3.318c-0.076,0.043-0.101-0.023-0.058-0.148c0.044-0.125,0.141-0.263,0.215-0.306
						l5.746-3.318c0.076-0.043,0.101,0.023,0.058,0.148C32.949,36.146,32.852,36.284,32.775,36.328z"/>
					<path class="st5" d="M32.776,37.443l-5.747,3.318c-0.076,0.043-0.101-0.023-0.058-0.148c0.044-0.125,0.141-0.263,0.215-0.306
						l5.746-3.318c0.076-0.043,0.101,0.023,0.058,0.148C32.949,37.263,32.852,37.399,32.776,37.443z"/>
					<path class="st5" d="M32.775,38.559l-5.746,3.318c-0.076,0.043-0.101-0.023-0.058-0.148c0.044-0.125,0.141-0.263,0.215-0.306
						l5.746-3.318c0.076-0.043,0.101,0.023,0.058,0.148C32.949,38.378,32.852,38.515,32.775,38.559z"/>
					<path class="st5" d="M32.775,39.675l-5.746,3.318c-0.076,0.043-0.101-0.023-0.058-0.148c0.044-0.125,0.141-0.263,0.215-0.306
						l5.746-3.318c0.076-0.043,0.101,0.023,0.058,0.148C32.949,39.494,32.852,39.631,32.775,39.675z"/>
				</g>
				<path id="Axo_panel_x2A__34_" class="st4" d="M26.189,43.803c-0.176-0.102-0.286-0.32-0.286-0.629V37.57
					c0-0.619,0.435-1.373,0.97-1.681l4.206-2.428c0.268-0.154,0.51-0.169,0.686-0.068l1.616,0.932
					c-0.175-0.101-0.418-0.086-0.686,0.068L28.49,36.82c-0.535,0.309-0.97,1.063-0.97,1.681v5.604c0,0.311,0.11,0.527,0.286,0.629
					L26.189,43.803z"/>
			</g>
			<path id="Axo_Compound_3_" class="st3" d="M28.49,37.101c-0.401,0.232-0.728,0.798-0.728,1.261v5.604
				c0,0.463,0.327,0.652,0.728,0.42l4.206-2.428c0.401-0.232,0.728-0.798,0.728-1.261v-5.604c0-0.463-0.327-0.652-0.728-0.42
				L28.49,37.101z M27.52,44.106v-5.604c0-0.619,0.435-1.373,0.97-1.681l4.206-2.428c0.535-0.308,0.97-0.058,0.97,0.561v5.605
				c0,0.619-0.435,1.373-0.97,1.681l-4.206,2.428C27.955,44.976,27.52,44.725,27.52,44.106z"/>
		</g>
		<path class="st17" d="M19.444,27.292c0.901-0.522,2.363-0.522,3.267,0l1.974,1.138c0.603,0.349,0.803,0.841,0.599,1.287
			c-0.04,0.092-0.099,0.182-0.175,0.268c-0.108,0.12-0.248,0.233-0.422,0.334c-0.902,0.521-2.365,0.521-3.268,0l-1.973-1.142
			c-0.175-0.1-0.316-0.213-0.422-0.333c-0.077-0.086-0.137-0.175-0.177-0.268c-0.053-0.112-0.079-0.227-0.079-0.342
			C18.766,27.893,18.992,27.552,19.444,27.292z"/>
		<path class="st15" d="M19.393,28.004c0.018-0.008,0.034-0.019,0.051-0.029c0.121-0.069,0.251-0.13,0.39-0.182
			c0.165-0.06,0.34-0.109,0.521-0.143c0.058-0.011,0.117-0.021,0.175-0.028c0.682-0.096,1.425-0.009,1.999,0.258l2.158,1.235
			c0.018,0.011,0.037,0.022,0.055,0.033c0.271,0.161,0.448,0.362,0.543,0.568c-0.04,0.092-0.099,0.182-0.175,0.268
			c-0.097,0.107-0.218,0.209-0.368,0.3c-0.018,0.012-0.037,0.023-0.055,0.034c-0.146,0.084-0.306,0.153-0.477,0.211
			c-0.159,0.054-0.327,0.095-0.498,0.124c-0.787,0.135-1.674,0.023-2.295-0.335l-1.973-1.142c-0.175-0.1-0.316-0.213-0.422-0.333
			c-0.077-0.086-0.137-0.175-0.177-0.268C18.94,28.369,19.124,28.173,19.393,28.004z"/>
		<g id="Axo_Extrusion_30_">
			<path id="Axo_panel_3_" class="st18" d="M20.536,27.22c-0.111,0.065-0.181,0.204-0.181,0.4v0.48l-0.531,0.308v-0.48
				c0-0.197,0.069-0.336,0.181-0.4L20.536,27.22z"/>
			<path class="st4" d="M20.08,26.036c0.096-0.056,0.229-0.047,0.376,0.037l3.755,2.169c0.291,0.167,0.525,0.572,0.531,0.908v1.136
				c-0.018,0.012-0.037,0.023-0.055,0.034c-0.146,0.084-0.306,0.153-0.477,0.211v-1.063c0-0.339-0.238-0.751-0.531-0.92
				l-3.756-2.169c-0.146-0.085-0.279-0.092-0.375-0.037L20.08,26.036z"/>
			<path class="st5" d="M19.55,26.34c0.096-0.056,0.229-0.047,0.375,0.037l3.756,2.169c0.294,0.169,0.531,0.581,0.531,0.92v1.063
				c-0.159,0.054-0.326,0.095-0.517,0.112v-0.479c0-0.393-0.275-0.872-0.616-1.068l-2.637-1.523
				c-0.026-0.016-0.053-0.028-0.079-0.04c-0.138-0.059-0.262-0.057-0.356-0.003c-0.086,0.048-0.146,0.14-0.171,0.268
				c-0.007,0.04-0.012,0.084-0.012,0.131v0.48l-0.431-0.248v-1.473C19.393,26.517,19.453,26.397,19.55,26.34z"/>
		</g>
		<polygon class="st13" points="23.638,36.065 23.962,36.252 23.962,38.634 23.638,38.447 		"/>
		<polygon class="st13" points="16.988,32.227 17.312,32.413 17.312,34.795 16.988,34.608 		"/>
		<polygon class="st13" points="22.809,35.586 23.132,35.773 23.132,38.155 22.809,37.969 		"/>
		<polygon class="st13" points="16.159,31.748 16.483,31.935 16.483,34.316 16.159,34.13 		"/>
		<polygon class="st13" points="21.98,35.108 22.304,35.294 22.304,37.676 21.98,37.49 		"/>
		<polygon class="st13" points="15.33,31.269 15.654,31.456 15.654,33.837 15.33,33.651 		"/>
		<polygon class="st13" points="21.15,34.63 21.474,34.816 21.474,37.198 21.15,37.012 		"/>
		<polygon class="st13" points="20.321,34.151 20.645,34.337 20.645,36.72 20.321,36.533 		"/>
		<path class="st11" d="M19.661,39.784c-0.133-0.418-0.076-0.686-0.076-0.686l1.888,1.068c0,0,0.133,0.61,0.343,0.744
			c0.21,0.134,0.42,0.268,0.42,0.268S19.797,40.206,19.661,39.784z"/>
		<path class="st19" d="M14.056,36.543c-0.134-0.418-0.077-0.686-0.077-0.686l1.888,1.068c0,0,0.133,0.61,0.343,0.744
			c0.21,0.134,0.42,0.268,0.42,0.268S14.191,36.964,14.056,36.543z"/>
		<g>
			<polygon class="st13" points="18.782,24.939 18.969,24.832 19.967,25.408 19.781,25.516 			"/>
			<polygon class="st13" points="18.384,25.169 18.571,25.061 19.57,25.638 19.383,25.745 			"/>
			<polygon class="st13" points="17.987,25.398 18.173,25.291 19.172,25.867 18.986,25.974 			"/>
			<polygon class="st13" points="17.59,25.627 17.776,25.52 18.774,26.097 18.589,26.204 			"/>
			<polygon class="st13" points="17.192,25.857 17.378,25.75 18.377,26.326 18.191,26.434 			"/>
			<polygon class="st13" points="16.795,26.086 16.981,25.979 17.979,26.556 17.793,26.663 			"/>
			<polygon class="st13" points="16.397,26.316 16.583,26.209 17.581,26.785 17.396,26.893 			"/>
			<polygon class="st13" points="15.999,26.545 16.185,26.438 17.184,27.015 16.998,27.122 			"/>
			<polygon class="st13" points="15.602,26.775 15.788,26.668 16.786,27.245 16.6,27.352 			"/>
			<polygon class="st13" points="15.204,27.005 15.39,26.897 16.388,27.473 16.203,27.582 			"/>
			<polygon class="st13" points="14.807,27.234 14.992,27.127 15.991,27.703 15.805,27.811 			"/>
			<polygon class="st13" points="14.409,27.464 14.595,27.357 15.593,27.933 15.407,28.041 			"/>
			<polygon class="st13" points="14.011,27.694 14.197,27.586 15.196,28.162 15.01,28.271 			"/>
		</g>
	</g>
	<g>
		<path class="st4" d="M21.458,27.262c0.057-0.071,0.108-0.145,0.171-0.212c0.053-0.056,0.423,0.051,0.441-0.043l2.14,1.232
			c0.048,0.027,0.09,0.069,0.133,0.107c-0.126,0.153-0.271,0.287-0.424,0.412c-0.072-0.085-0.151-0.162-0.239-0.212l-1.144-0.661
			L21.458,27.262z"/>
		<path class="st5" d="M23.078,29.094l-2.062-1.19c0.132-0.224,0.279-0.436,0.442-0.64l2.222,1.282
			c0.087,0.05,0.166,0.127,0.239,0.212c-0.211,0.171-0.437,0.325-0.664,0.48C23.199,29.184,23.141,29.131,23.078,29.094z"/>
	</g>
</g>
</svg>
