<?xml version="1.0" encoding="utf-8"?>
<!-- Generator: Adobe Illustrator 25.4.1, SVG Export Plug-In . SVG Version: 6.00 Build 0)  -->
<svg version="1.1" id="Layer_1" xmlns="http://www.w3.org/2000/svg" xmlns:xlink="http://www.w3.org/1999/xlink" x="0px" y="0px"
	 viewBox="0 0 50 50" style="enable-background:new 0 0 50 50;" xml:space="preserve">
<style type="text/css">
	.st0{fill:url(#SVGID_1_);}
	.st1{fill:#4B1D23;}
	.st2{fill:#34ADD2;}
	.st3{fill:#B7BCBF;}
	.st4{fill:#130000;}
	.st5{fill:#BCC7CD;}
	.st6{fill:#D42C59;}
	.st7{fill:#E72A59;}
	.st8{fill:#C02E59;}
	.st9{fill:#83A2A8;}
	.st10{fill:#BEDBE0;}
	.st11{fill:#CDE8EF;}
	.st12{fill:#AFCCD2;}
	.st13{fill:#AC315A;}
	.st14{fill:#BDCED8;}
	.st15{fill:#66C6BA;}
	.st16{fill:#92B0B5;}
	.st17{fill:#A1BEC3;}
	.st18{fill:#E6B0C0;}
	.st19{fill:#FFFFFF;}
</style>
<radialGradient id="SVGID_1_" cx="24.5874" cy="33.012" r="15.8947" gradientTransform="matrix(1.5353 0 0 -0.4819 -12.749 57.445)" gradientUnits="userSpaceOnUse">
	<stop  offset="0.2598" style="stop-color:#B4BCC1"/>
	<stop  offset="0.4308" style="stop-color:#BCC3C8;stop-opacity:0.7486"/>
	<stop  offset="0.6967" style="stop-color:#D2D7DA;stop-opacity:0.3577"/>
	<stop  offset="0.94" style="stop-color:#ECEEEF;stop-opacity:0"/>
</radialGradient>
<ellipse class="st0" cx="25" cy="41.536" rx="24.402" ry="7.66"/>
<g>
	<g>
		<g>
			<g id="Axo_Extrusion_33_">
				<path id="Axo_panel_xB0__21_" class="st1" d="M13.731,40.454c0.119-0.069,0.201-0.208,0.226-0.407l0.386-3.113l12.142-7.01
					l-0.386,3.113c-0.024,0.2-0.107,0.339-0.226,0.407L13.731,40.454z"/>
				<path id="Axo_panel_8_" class="st2" d="M14.755,36.97c0.122-0.07,0.199-0.229,0.199-0.454V35.66l12.142-7.01v0.856
					c0,0.226-0.077,0.383-0.199,0.454L14.755,36.97z"/>
				<polygon id="Axo_panel_x2A__37_" class="st3" points="14.954,35.66 6.673,30.879 18.816,23.869 27.095,28.649 				"/>
				<path id="Axo_base_25_" class="st4" d="M13.731,40.454c-0.129,0.074-0.299,0.064-0.484-0.043l-4.866-2.81
					c-0.357-0.206-0.659-0.711-0.711-1.185l-0.386-3.558c-0.337-0.195-0.611-0.697-0.611-1.123v-0.856l8.28,4.781v0.856
					c0,0.226-0.077,0.383-0.199,0.454c-0.109,0.062-0.253,0.056-0.412-0.036l-0.386,3.113C13.932,40.245,13.85,40.385,13.731,40.454
					z"/>
			</g>
			<g id="Axo_Extrusion_32_">
				<path id="Axo_panel_6_" class="st5" d="M7.284,30.628c-0.158-0.091-0.303-0.099-0.412-0.036l12.142-7.01
					c0.109-0.063,0.253-0.056,0.412,0.036L7.284,30.628z"/>
				<path id="Axo_panel_x2A__35_" class="st6" d="M14.343,34.703l-0.386-3.558c-0.051-0.474-0.353-0.978-0.71-1.185L8.38,27.15
					c-0.185-0.107-0.357-0.117-0.484-0.043l12.142-7.01c0.129-0.074,0.299-0.064,0.484,0.043l4.866,2.81
					c0.357,0.206,0.659,0.711,0.711,1.185l0.386,3.558L14.343,34.703z"/>
				<path id="Axo_panel_xB0__20_" class="st7" d="M14.954,36.682v-0.856c0-0.425-0.274-0.928-0.611-1.123l12.142-7.01
					c0.337,0.195,0.611,0.697,0.611,1.123v0.856L14.954,36.682z"/>
				<path id="Axo_base_24_" class="st8" d="M14.954,36.682l-8.28-4.781v-0.856c0-0.226,0.077-0.383,0.199-0.454
					c0.109-0.063,0.253-0.056,0.412,0.036l0.386-3.113c0.024-0.2,0.107-0.339,0.226-0.407c0.129-0.074,0.299-0.064,0.484,0.043
					l4.866,2.81c0.357,0.206,0.659,0.711,0.71,1.185l0.386,3.558c0.337,0.195,0.611,0.697,0.611,1.123V36.682
					C14.954,36.682,14.954,36.682,14.954,36.682z"/>
			</g>
		</g>
		<path class="st1" d="M7.343,35.644l0.598-6.319l4.685,2.779l-0.109,5.773c0,0-0.163,0.218-0.545,0.327
			C11.591,38.313,7.343,35.644,7.343,35.644z"/>
		<g>
			<g id="Axo_Extrusion_31_">
				<g id="Axo_Inversion_6_">
					<path id="Axo_panel_4_" class="st9" d="M6.606,29.764c-0.126,0.072-0.204,0.228-0.204,0.449v5.336
						c0,0.441,0.311,0.98,0.693,1.201l4.005,2.312c0.191,0.11,0.364,0.121,0.489,0.048l1.538-0.888
						c-0.125,0.072-0.298,0.062-0.489-0.048l-4.005-2.312c-0.382-0.221-0.693-0.759-0.693-1.201v-5.336
						c0-0.221,0.078-0.376,0.204-0.449L6.606,29.764z"/>
					<path class="st10" d="M7.821,36.284H7.763c-0.067,0-0.121-0.054-0.121-0.121v-6.376c0-0.067,0.054-0.121,0.121-0.121h0.058
						c0.067,0,0.121,0.054,0.121,0.121v6.376C7.942,36.23,7.888,36.284,7.821,36.284z"/>
					<path class="st10" d="M8.741,36.815H8.683c-0.067,0-0.121-0.054-0.121-0.121v-6.375c0-0.067,0.054-0.121,0.121-0.121h0.058
						c0.067,0,0.121,0.054,0.121,0.121v6.375C8.862,36.761,8.808,36.815,8.741,36.815z"/>
					<path class="st10" d="M9.661,37.347H9.603c-0.067,0-0.121-0.054-0.121-0.121V30.85c0-0.067,0.054-0.121,0.121-0.121h0.058
						c0.066,0,0.121,0.054,0.121,0.121v6.376C9.782,37.293,9.728,37.347,9.661,37.347z"/>
					<path class="st10" d="M10.582,37.877h-0.058c-0.066,0-0.121-0.054-0.121-0.121V31.38c0-0.067,0.054-0.121,0.121-0.121h0.058
						c0.067,0,0.121,0.054,0.121,0.121v6.376C10.703,37.824,10.648,37.877,10.582,37.877z"/>
					<path class="st10" d="M11.502,38.409h-0.058c-0.066,0-0.121-0.054-0.121-0.121v-6.376c0-0.066,0.054-0.121,0.121-0.121h0.058
						c0.067,0,0.121,0.054,0.121,0.121v6.376C11.622,38.355,11.568,38.409,11.502,38.409z"/>
					<path class="st10" d="M6.816,30.035c-0.041-0.119-0.017-0.182,0.055-0.141l5.471,3.159c0.071,0.041,0.163,0.172,0.205,0.291
						c0.041,0.119,0.017,0.182-0.055,0.141l-5.471-3.159C6.948,30.284,6.856,30.154,6.816,30.035z"/>
					<path class="st10" d="M6.816,31.098c-0.041-0.119-0.017-0.182,0.055-0.141l5.471,3.159c0.071,0.041,0.163,0.172,0.205,0.291
						c0.041,0.119,0.017,0.182-0.055,0.141l-5.471-3.159C6.948,31.347,6.856,31.216,6.816,31.098z"/>
					<path class="st10" d="M6.816,32.16c-0.041-0.119-0.017-0.182,0.055-0.141l5.471,3.159c0.071,0.041,0.163,0.172,0.205,0.291
						c0.041,0.119,0.017,0.182-0.055,0.141L7.02,32.451C6.948,32.409,6.856,32.279,6.816,32.16z"/>
					<path class="st10" d="M6.816,33.222c-0.041-0.119-0.017-0.182,0.055-0.141l5.471,3.159c0.071,0.041,0.163,0.172,0.205,0.291
						c0.041,0.119,0.017,0.182-0.055,0.141l-5.471-3.159C6.948,33.472,6.856,33.341,6.816,33.222z"/>
					<path class="st10" d="M6.816,34.285c-0.041-0.119-0.017-0.182,0.055-0.141l5.471,3.159c0.071,0.041,0.163,0.172,0.205,0.291
						c0.041,0.119,0.017,0.182-0.055,0.141l-5.471-3.159C6.948,34.534,6.856,34.404,6.816,34.285z"/>
				</g>
				<path id="Axo_panel_x2A__34_" class="st11" d="M11.753,39.394c0.167-0.097,0.272-0.303,0.272-0.599v-5.336
					c0-0.589-0.415-1.307-0.924-1.601l-4.005-2.312c-0.255-0.147-0.486-0.161-0.653-0.065l1.539-0.887
					c0.167-0.096,0.398-0.082,0.653,0.065l4.005,2.312c0.51,0.294,0.924,1.012,0.924,1.601v5.336c0,0.294-0.104,0.502-0.272,0.599
					L11.753,39.394z"/>
			</g>
			<path id="Axo_Compound_3_" class="st12" d="M7.096,29.813c-0.382-0.221-0.693-0.041-0.693,0.4v5.336
				c0,0.441,0.311,0.98,0.693,1.201l4.005,2.312c0.382,0.221,0.693,0.041,0.693-0.4v-5.336c0-0.441-0.311-0.98-0.693-1.201
				L7.096,29.813z M11.101,39.33l-4.005-2.312c-0.51-0.294-0.924-1.012-0.924-1.601V30.08c0-0.589,0.415-0.827,0.924-0.534
				l4.005,2.312c0.51,0.294,0.924,1.012,0.924,1.601v5.336C12.025,39.385,11.611,39.624,11.101,39.33z"/>
		</g>
		<path class="st13" d="M20.36,23.682c0,0.11-0.025,0.219-0.075,0.326c-0.039,0.088-0.096,0.173-0.169,0.255
			c-0.101,0.114-0.235,0.222-0.402,0.317l-1.879,1.087c-0.86,0.496-2.253,0.496-3.112,0c-0.166-0.096-0.299-0.204-0.402-0.318
			c-0.073-0.082-0.129-0.167-0.167-0.255c-0.195-0.424-0.004-0.893,0.57-1.225l1.88-1.084c0.861-0.497,2.253-0.497,3.111,0
			C20.145,23.033,20.36,23.357,20.36,23.682z"/>
		<path class="st7" d="M20.285,24.007c-0.039,0.088-0.096,0.173-0.169,0.255c-0.101,0.114-0.235,0.222-0.402,0.317l-1.879,1.087
			c-0.591,0.341-1.436,0.448-2.185,0.319c-0.163-0.028-0.323-0.067-0.474-0.118c-0.163-0.055-0.315-0.121-0.454-0.201
			c-0.017-0.01-0.035-0.021-0.052-0.032c-0.142-0.087-0.258-0.184-0.35-0.286c-0.073-0.082-0.129-0.167-0.167-0.255
			c0.09-0.196,0.259-0.388,0.517-0.541c0.017-0.01,0.035-0.021,0.052-0.031l2.055-1.176c0.546-0.255,1.254-0.337,1.903-0.246
			c0.056,0.007,0.112,0.017,0.167,0.027c0.172,0.032,0.339,0.079,0.496,0.136c0.132,0.049,0.256,0.107,0.371,0.173
			c0.017,0.01,0.032,0.02,0.049,0.028C20.02,23.624,20.195,23.811,20.285,24.007z"/>
		<g id="Axo_Extrusion_30_">
			<path id="Axo_panel_3_" class="st14" d="M19.181,23.01c0.106,0.061,0.172,0.193,0.172,0.381v0.457l-0.506-0.293v-0.457
				c0-0.187-0.066-0.319-0.172-0.381L19.181,23.01z"/>
			<path class="st11" d="M19.615,21.881c-0.091-0.053-0.218-0.046-0.357,0.035l-3.576,2.065c-0.279,0.161-0.506,0.553-0.506,0.876
				v1.012c-0.163-0.055-0.315-0.121-0.454-0.201c-0.017-0.01-0.035-0.021-0.052-0.032v-1.082c0.006-0.32,0.229-0.706,0.506-0.865
				l3.575-2.065c0.14-0.08,0.267-0.088,0.358-0.035L19.615,21.881z"/>
			<path class="st10" d="M19.763,22.208v1.403l-0.41,0.236V23.39c0-0.045-0.004-0.087-0.011-0.125
				c-0.024-0.122-0.081-0.209-0.163-0.255c-0.09-0.051-0.208-0.053-0.339,0.003c-0.025,0.011-0.05,0.023-0.075,0.038l-2.511,1.45
				c-0.325,0.187-0.587,0.643-0.587,1.017v0.456c-0.182-0.017-0.341-0.056-0.492-0.107v-1.012c0-0.323,0.226-0.715,0.506-0.876
				l3.576-2.065c0.139-0.08,0.266-0.088,0.357-0.035C19.706,21.933,19.763,22.047,19.763,22.208z"/>
		</g>
		<polygon class="st4" points="15.721,33.407 15.413,33.585 15.413,31.317 15.721,31.139 		"/>
		<polygon class="st4" points="22.053,29.751 21.745,29.929 21.745,27.661 22.053,27.484 		"/>
		<polygon class="st4" points="16.511,32.952 16.203,33.129 16.203,30.861 16.511,30.683 		"/>
		<polygon class="st4" points="22.843,29.296 22.534,29.473 22.534,27.206 22.843,27.028 		"/>
		<polygon class="st4" points="17.3,32.496 16.992,32.673 16.992,30.405 17.3,30.227 		"/>
		<polygon class="st4" points="23.632,28.84 23.324,29.017 23.324,26.75 23.632,26.572 		"/>
		<polygon class="st4" points="18.09,32.04 17.782,32.218 17.782,29.949 18.09,29.772 		"/>
		<polygon class="st4" points="18.88,31.584 18.571,31.762 18.571,29.493 18.88,29.316 		"/>
		<path class="st2" d="M17.055,36.007c0,0,0.2-0.127,0.4-0.255c0.2-0.127,0.327-0.708,0.327-0.708l1.798-1.017
			c0,0,0.055,0.255-0.072,0.653C19.379,35.082,17.055,36.007,17.055,36.007z"/>
		<path class="st15" d="M22.393,32.921c0,0,0.2-0.127,0.4-0.255c0.2-0.127,0.327-0.708,0.327-0.708l1.798-1.017
			c0,0,0.055,0.255-0.073,0.653C24.717,31.995,22.393,32.921,22.393,32.921z"/>
		<g>
			<polygon class="st4" points="19.394,21.094 19.217,20.991 20.167,20.443 20.345,20.545 			"/>
			<polygon class="st4" points="19.773,21.312 19.595,21.21 20.546,20.661 20.724,20.764 			"/>
			<polygon class="st4" points="20.151,21.53 19.974,21.428 20.925,20.88 21.102,20.982 			"/>
			<polygon class="st4" points="20.529,21.749 20.353,21.647 21.303,21.098 21.48,21.2 			"/>
			<polygon class="st4" points="20.908,21.968 20.731,21.865 21.682,21.317 21.859,21.419 			"/>
			<polygon class="st4" points="21.287,22.186 21.11,22.084 22.06,21.535 22.237,21.637 			"/>
			<polygon class="st4" points="21.665,22.405 21.489,22.302 22.439,21.754 22.616,21.856 			"/>
			<polygon class="st4" points="22.044,22.623 21.867,22.521 22.818,21.972 22.995,22.074 			"/>
			<polygon class="st4" points="22.423,22.842 22.246,22.74 23.196,22.191 23.373,22.293 			"/>
			<polygon class="st4" points="22.801,23.061 22.625,22.958 23.575,22.409 23.752,22.512 			"/>
			<polygon class="st4" points="23.18,23.279 23.003,23.177 23.954,22.628 24.13,22.73 			"/>
			<polygon class="st4" points="23.559,23.498 23.382,23.396 24.332,22.847 24.509,22.949 			"/>
			<polygon class="st4" points="23.937,23.717 23.76,23.614 24.711,23.065 24.888,23.168 			"/>
		</g>
	</g>
	<g>
		<path class="st11" d="M16.77,23.35l-1.089,0.629c-0.084,0.048-0.159,0.121-0.228,0.202c-0.146-0.119-0.284-0.246-0.404-0.392
			c0.041-0.036,0.081-0.076,0.127-0.102l2.038-1.173c0.017,0.09,0.37-0.012,0.42,0.041c0.06,0.064,0.109,0.134,0.163,0.202
			L16.77,23.35z"/>
		<path class="st10" d="M16.085,24.639c-0.216-0.148-0.431-0.294-0.632-0.457c0.07-0.081,0.145-0.154,0.228-0.202l2.116-1.221
			c0.155,0.194,0.295,0.396,0.421,0.609l-1.963,1.133C16.195,24.536,16.139,24.587,16.085,24.639z"/>
	</g>
</g>
<g>
	<g>
		<g>
			<path class="st16" d="M36.006,34.981c0,0-2.295,4.591-3.601,4.471c-1.306-0.119-2.564,1.638-2.315,2.493
				c0.202,0.694,1.781,0.949,2.73,0.949c0.95,0,3.027-2.493,4.214-4.274s1.721-4.927,1.721-4.927L36.006,34.981z"/>
			<path class="st17" d="M29.496,26.454l-1.306-3.205c0,0,0.302,0.874,2.795,0.28s3.176-1.588,7.415,1.264
				c4.057,2.729,2.256,9.973-2.137,12.228c-2.608,1.339-4.577,2.128-5.877,2.256c-4.214,0.415-6.577-2.273-6.372-2.928
				C24.941,33.386,29.496,26.454,29.496,26.454z"/>
			<g>
				<path class="st16" d="M21.446,35.476l-0.39,3.493c0,0-1.204,0.034-1.492,0.424c-0.289,0.39-0.271,0.933-0.271,0.933l0.203,0.017
					c0,0-0.221,0.322-0.203,0.441c0.017,0.119,0.39,0.237,0.39,0.237s-0.169,0.237,0.289,0.339s0.695,0.051,0.695,0.051
					s0.221,0.542,0.967,0.271s1.679-0.949,2.018-1.458s1.254-4.103,1.254-4.103L21.446,35.476z"/>
				<path class="st12" d="M24.671,36.791l-1.3,3.484c0,0-1.204,0.034-1.492,0.424c-0.289,0.39-0.271,0.933-0.271,0.933l0.203,0.017
					c0,0-0.221,0.323-0.203,0.441c0.017,0.119,0.39,0.237,0.39,0.237s-0.169,0.237,0.289,0.339s0.695,0.051,0.695,0.051
					s0.221,0.542,0.967,0.271c0.746-0.271,1.679-0.949,2.018-1.458c0.339-0.508,2.165-4.095,2.165-4.095L24.671,36.791z"/>
			</g>
			<path class="st12" d="M21.898,27.403c0,0-2.453,4.076-1.504,6.569c0.949,2.493,4.156,4.432,6.649,3.957s3.047-2.335,4.471-5.184
				c1.424-2.85,1.662-5.58,0.119-7.48c-1.543-1.9-4.274-2.375-4.274-2.375L21.898,27.403z"/>
			<path class="st11" d="M25.285,26.483l3.171,0.386l-1.285,2.957l0.6-0.043c0,0-0.257,1.842-0.471,3.128
				c-0.214,1.285-0.943,1.929-1.157,2.014c-0.214,0.085-1.157,0.557-1.285,1.028c-0.129,0.471-1.114,2.057-1.114,2.057
				s-2.828-1.243-3.3-3.128c-0.471-1.885-0.471-5.356,0.214-6.128c0.686-0.771,3.214-4.242,3.214-4.242L25.285,26.483z"/>
			<path class="st17" d="M23.085,21.705c0,0-1.9-3.799-2.375-5.52s-0.06-3.918,0.06-4.571c0.119-0.653,0.712-0.297,2.196,1.069
				s1.721,3.68,1.721,5.283s-0.06,2.79-0.06,2.79L23.085,21.705z"/>
			<path class="st10" d="M28.916,23.856c0,0.536-1.356,4.549-1.676,5.328c-0.036,0.085-0.085,0.17-0.149,0.252
				c-0.678,0.885-2.835,1.55-3.65,1.767c-0.89,0.237-2.849-0.594-3.324-0.831s-0.914-0.661-0.994-1.38
				c-0.148-1.321,0.714-2.178,0.994-3.369c0.633-2.691,1.781-3.621,1.781-3.621L21.925,22c0.653-0.762,1.622-1.245,2.703-1.245
				c1.9,0,4.132,1.058,4.28,2.904C28.914,23.723,28.916,23.79,28.916,23.856z"/>
			<path class="st17" d="M28.916,23.856c0,0.536-1.356,4.549-1.676,5.328c-0.036,0.085-0.085,0.17-0.149,0.252
				c-0.198,0.181-0.406,0.336-0.622,0.461c-1.959,1.128-3.443,0.357-3.74,0c-0.297-0.357-1.187-0.95-0.712-1.366
				s1.009-1.306,1.424-2.553c0.415-1.246,2.671-2.256,2.671-2.256s1.798-0.289,2.796-0.064
				C28.914,23.723,28.916,23.79,28.916,23.856z"/>
			<path class="st8" d="M23.922,27.116c-0.36-0.046-0.549-0.449-0.366-0.762c0.25-0.429,0.648-0.939,1.139-0.979
				c0.858-0.071,0.787,0.787,0.286,1.43C24.728,27.13,24.291,27.164,23.922,27.116z"/>
			<path class="st6" d="M19.553,28.68c0,0-0.06,0.92,0.415,1.009s0.95-0.327,0.95-0.327s-0.802,0.178-1.039,0.06
				C19.642,29.303,19.553,28.68,19.553,28.68z"/>
			<path class="st6" d="M20.028,29.637c0,0-0.074,0.453-0.037,0.564c0.037,0.111,0.245,0.245,0.245,0.245s-0.216-0.089-0.371-0.186
				c-0.156-0.096-0.03-0.69-0.03-0.69L20.028,29.637z"/>
			<path class="st17" d="M33.413,17.906c0,0-0.297,3.918-1.959,4.749c-1.662,0.831-2.612,0.89-2.85,1.009
				c-0.237,0.119-0.415,0.653-0.415,0.653l-2.078-0.594c0,0,1.603-2.968,2.375-3.859C29.258,18.974,32.879,17.43,33.413,17.906z"/>
			<path class="st18" d="M27.794,22.952c0,0,0.93-1.009,1.227-1.9s3.859-2.553,3.859-2.553s-0.06,1.721-0.772,2.73
				c-0.712,1.009-2.79,1.543-3.324,1.84c-0.534,0.297-0.75,0.694-1.049,0.851c-0.212,0.112-0.95,0.138-0.95,0.138l1.939-1.306
				l-1.662,0.93l1.662-1.346L27.794,22.952z"/>
		</g>
		<path class="st19" d="M24.249,26.213c0,0.105-0.085,0.19-0.19,0.19c-0.105,0-0.19-0.085-0.19-0.19c0-0.105,0.085-0.19,0.19-0.19
			C24.164,26.022,24.249,26.107,24.249,26.213z"/>
	</g>
</g>
</svg>
