<?xml version="1.0" encoding="utf-8"?>
<!-- Generator: Adobe Illustrator 25.4.1, SVG Export Plug-In . SVG Version: 6.00 Build 0)  -->
<svg version="1.1" id="Layer_1" xmlns="http://www.w3.org/2000/svg" xmlns:xlink="http://www.w3.org/1999/xlink" x="0px" y="0px"
	 viewBox="0 0 50 50" style="enable-background:new 0 0 50 50;" xml:space="preserve">
<style type="text/css">
	.st0{fill:url(#SVGID_1_);}
	.st1{opacity:0.3;}
	.st2{fill:#FFFFFF;}
	.st3{fill:#FFA769;}
	.st4{fill:#9DE368;}
	.st5{opacity:0.7;fill:#659EC9;}
	.st6{fill:#4FBEFF;}
	.st7{fill:#8DD5FF;}
	.st8{fill:#517FA2;}
	.st9{fill:#659EC9;}
	.st10{opacity:0.7;}
	.st11{fill:#68CCE3;}
	.st12{fill:#8DEAFF;}
	.st13{opacity:0.3;fill:#659EC9;}
	.st14{fill:#295E87;}
	.st15{opacity:0.3;fill:#295E87;}
</style>
<radialGradient id="SVGID_1_" cx="24.5874" cy="16.9869" r="15.8947" gradientTransform="matrix(1.5353 0 0 0.569 -12.749 30.4849)" gradientUnits="userSpaceOnUse">
	<stop  offset="0.2598" style="stop-color:#B4BCC1"/>
	<stop  offset="0.4308" style="stop-color:#BCC3C8;stop-opacity:0.7486"/>
	<stop  offset="0.6967" style="stop-color:#D2D7DA;stop-opacity:0.3577"/>
	<stop  offset="0.94" style="stop-color:#ECEEEF;stop-opacity:0"/>
</radialGradient>
<ellipse class="st0" cx="25" cy="40.151" rx="24.402" ry="9.045"/>
<g>
	<g>
		<polygon class="st1" points="17.898,45.548 12.821,39.827 14.734,39.261 19.812,44.982 		"/>
		<polygon class="st2" points="17.898,45.433 12.821,39.711 14.734,39.146 19.812,44.867 		"/>
		<polygon class="st3" points="13.906,40.689 13.114,39.796 14.661,39.339 15.452,40.231 		"/>
		<polygon class="st3" points="15.264,42.219 14.472,41.327 16.018,40.869 16.811,41.762 		"/>
		<polygon class="st3" points="16.622,43.749 15.83,42.857 17.376,42.399 18.169,43.292 		"/>
		<polygon class="st4" points="17.98,45.28 17.188,44.387 18.735,43.93 19.526,44.822 		"/>
	</g>
	<g>
		<polygon class="st1" points="17.334,46.363 9.46,41.816 10.98,40.939 18.854,45.485 		"/>
		<polygon class="st2" points="17.334,46.247 9.46,41.701 10.98,40.823 18.854,45.369 		"/>
		<polygon class="st3" points="11.013,42.44 9.785,41.73 11.013,41.021 12.241,41.73 		"/>
		<polygon class="st3" points="13.119,43.655 11.89,42.946 13.119,42.237 14.347,42.946 		"/>
		<polygon class="st4" points="15.192,44.905 13.963,44.195 15.192,43.486 16.42,44.195 		"/>
		<polygon class="st4" points="17.331,46.088 16.103,45.378 17.331,44.669 18.559,45.378 		"/>
	</g>
	<g>
		<polygon class="st1" points="21.003,47.355 10.492,45.231 11.202,44.06 21.713,46.184 		"/>
		<polygon class="st2" points="21.003,47.24 10.492,45.116 11.202,43.944 21.713,46.068 		"/>
		<polygon class="st3" points="12.446,45.392 10.806,45.06 11.38,44.114 13.02,44.446 		"/>
		<polygon class="st4" points="15.223,45.993 13.584,45.662 14.158,44.715 15.798,45.046 		"/>
		<polygon class="st4" points="18.068,46.528 16.428,46.197 17.002,45.25 18.642,45.581 		"/>
		<polygon class="st4" points="20.879,47.096 19.239,46.764 19.813,45.818 21.453,46.149 		"/>
	</g>
</g>
<g>
	<path class="st5" d="M11.936,28.426c-1.188-0.686-3.115-0.686-4.303,0c-0.625,0.361-0.921,0.84-0.888,1.313h0l0.582,7.545
		c0.022,0.345,0.261,0.687,0.719,0.951c0.961,0.555,2.519,0.555,3.48,0c0.457-0.264,0.696-0.605,0.719-0.951h0.002l0.578-7.531
		c0,0,0,0,0-0.001l0.001-0.013h-0.001C12.857,29.267,12.562,28.788,11.936,28.426z"/>
	<g>
		<path class="st6" d="M7.208,32.226l0.395,4.916h0c0.02,0.307,0.232,0.61,0.638,0.844c0.852,0.492,2.235,0.492,3.088,0
			c0.405-0.234,0.618-0.537,0.638-0.844h0.002l0.365-4.903L7.208,32.226z"/>
		<path class="st7" d="M11.583,33.232c-1.001,0.578-2.624,0.578-3.625,0c-1.001-0.578-1.001-1.515,0-2.093
			c1.001-0.578,2.624-0.578,3.625,0C12.584,31.717,12.584,32.654,11.583,33.232z"/>
	</g>
	<path class="st8" d="M9.784,31.55c-0.834,0-1.621-0.189-2.214-0.531c-0.615-0.355-0.954-0.835-0.954-1.35
		c0-0.516,0.339-0.995,0.954-1.35c0.593-0.343,1.379-0.531,2.214-0.531c0.834,0,1.621,0.188,2.214,0.531
		c0.615,0.355,0.954,0.835,0.954,1.35c0,0.516-0.339,0.995-0.954,1.35C11.405,31.362,10.619,31.55,9.784,31.55z M9.784,28.036
		c-0.791,0-1.533,0.177-2.089,0.498c-0.535,0.309-0.829,0.711-0.829,1.134c0,0.423,0.294,0.826,0.829,1.134
		c0.556,0.321,1.298,0.498,2.089,0.498c0.791,0,1.533-0.176,2.089-0.498c0.535-0.309,0.829-0.711,0.829-1.134
		c0-0.423-0.294-0.825-0.829-1.134C11.318,28.213,10.576,28.036,9.784,28.036z"/>
	<path class="st8" d="M9.785,38.774c-0.653,0-1.306-0.143-1.802-0.431c-0.477-0.276-0.755-0.649-0.781-1.051L6.62,29.749
		l0.249-0.019l0.582,7.545c0.021,0.318,0.254,0.62,0.657,0.853c0.925,0.534,2.43,0.534,3.355,0c0.403-0.232,0.636-0.535,0.656-0.851
		l0.011-0.117l0.571-7.43l0.249,0.019l-0.588,7.66h-0.008c-0.067,0.357-0.335,0.685-0.766,0.934
		C11.09,38.63,10.437,38.774,9.785,38.774z"/>
</g>
<g>
	<path class="st9" d="M33.221,33.027c0.001-1.137-0.751-2.276-2.256-3.144c-3.007-1.736-7.885-1.736-10.893,0
		c-1.504,0.868-2.255,2.007-2.255,3.144v0.253c0-1.137,0.751-2.276,2.255-3.144c3.008-1.736,7.886-1.736,10.893,0
		c1.504,0.868,2.257,2.006,2.256,3.144V33.027z"/>
	<path class="st9" d="M33.221,34.194c0.001-1.138-0.751-2.277-2.256-3.145c-3.007-1.736-7.885-1.736-10.893,0
		c-1.504,0.868-2.255,2.007-2.255,3.145v0.253c0-1.137,0.751-2.276,2.255-3.144c3.008-1.736,7.886-1.736,10.893,0
		c1.504,0.868,2.257,2.007,2.256,3.144V34.194z"/>
	<path class="st9" d="M33.221,35.362c0.001-1.138-0.751-2.277-2.256-3.145c-3.007-1.736-7.885-1.736-10.893,0
		c-1.504,0.868-2.255,2.006-2.255,3.145v0.253c0-1.137,0.751-2.276,2.255-3.144c3.008-1.736,7.886-1.736,10.893,0
		c1.504,0.868,2.257,2.007,2.256,3.144V35.362z"/>
	<g class="st10">
		<path class="st11" d="M32.511,37.34V23.734H18.548v13.607l0,0c0,1.032,0.682,2.063,2.045,2.851c2.726,1.574,7.147,1.574,9.873,0
			C31.831,39.404,32.512,38.373,32.511,37.34z"/>
		<path class="st12" d="M30.467,26.584c-2.726,1.574-7.147,1.574-9.873,0c-2.726-1.574-2.726-4.126,0-5.7
			c2.726-1.574,7.147-1.574,9.873,0C33.193,22.458,33.193,25.01,30.467,26.584z"/>
	</g>
	<path class="st13" d="M33.071,23.337c0-3.719-3.376-6.733-7.541-6.733c-4.165,0-7.54,3.015-7.54,6.733c0,0.001,0,0.003,0,0.005
		v14.223c0,1.114,0.736,2.228,2.209,3.078c2.944,1.701,7.719,1.701,10.663,0.001c1.473-0.851,2.209-1.964,2.209-3.079V23.345
		C33.071,23.342,33.071,23.34,33.071,23.337z"/>
	<path class="st9" d="M25.531,42.146L25.531,42.146c-2.054,0-3.989-0.463-5.447-1.306c-1.498-0.865-2.324-2.028-2.324-3.276V23.342
		c0-3.843,3.485-6.966,7.769-6.966c4.284,0,7.77,3.123,7.77,6.962v14.228c0,1.248-0.825,2.411-2.323,3.277
		C29.518,41.683,27.584,42.146,25.531,42.146z M25.53,16.832c-4.032,0-7.312,2.918-7.312,6.505l0.001,14.228
		c0,1.078,0.744,2.101,2.094,2.88c1.389,0.803,3.242,1.245,5.218,1.245h0.001c1.975,0,3.828-0.442,5.217-1.244
		c1.351-0.78,2.095-1.803,2.095-2.881V23.345C32.842,19.75,29.562,16.832,25.53,16.832z"/>
	<g>
		<path class="st9" d="M27.658,15.352h-1.163c-0.604-0.177-1.324-0.177-1.929,0h-1.163v2.403l0,0c0,0.315,0.208,0.629,0.623,0.869
			c0.831,0.48,2.178,0.48,3.01,0c0.415-0.24,0.623-0.555,0.623-0.869l0,0V15.352z"/>
		<path class="st9" d="M27.035,16.221c-0.831,0.48-2.178,0.48-3.01,0c-0.831-0.479-0.831-1.257,0-1.737
			c0.831-0.479,2.178-0.479,3.01,0C27.866,14.963,27.866,15.741,27.035,16.221z"/>
	</g>
	<g>
		<path class="st14" d="M27.888,13.831h-1.288c-0.671-0.197-1.468-0.197-2.139,0h-1.287v1.712l0,0c0,0.348,0.229,0.697,0.69,0.963
			c0.921,0.532,2.414,0.532,3.334,0c0.461-0.266,0.691-0.615,0.691-0.963l0,0V13.831z"/>
		<path class="st8" d="M27.197,14.794c-0.921,0.531-2.414,0.531-3.334,0c-0.921-0.532-0.921-1.394,0-1.926
			c0.921-0.531,2.414-0.531,3.334,0C28.119,13.4,28.119,14.262,27.197,14.794z"/>
	</g>
	<path class="st9" d="M17.818,35.615c0,1.138,0.751,2.277,2.255,3.145c3.007,1.736,7.886,1.736,10.893,0
		c1.504-0.868,2.256-2.007,2.256-3.145v-0.253c0,1.138-0.751,2.276-2.256,3.144c-3.007,1.737-7.885,1.737-10.893,0
		c-1.504-0.868-2.255-2.006-2.255-3.144V35.615z"/>
	<path class="st9" d="M17.818,34.448c0,1.138,0.751,2.277,2.255,3.145c3.007,1.736,7.886,1.736,10.893,0
		c1.504-0.868,2.256-2.007,2.256-3.145v-0.253c0,1.138-0.751,2.276-2.256,3.144c-3.007,1.737-7.885,1.737-10.893,0
		c-1.504-0.868-2.255-2.006-2.255-3.144V34.448z"/>
	<path class="st9" d="M17.818,33.28c0,1.138,0.751,2.277,2.255,3.145c3.007,1.736,7.886,1.736,10.893,0
		c1.504-0.868,2.256-2.007,2.256-3.145v-0.253c0,1.138-0.751,2.276-2.256,3.144c-3.007,1.737-7.885,1.737-10.893,0
		c-1.504-0.868-2.255-2.006-2.255-3.144V33.28z"/>
	<path class="st2" d="M32.008,28.69c-0.295,0.265-0.641,0.517-1.042,0.748c-2.277,1.315-5.625,1.633-8.423,0.957v4.828
		c2.798,0.676,6.146,0.358,8.423-0.957c0.402-0.232,0.747-0.483,1.042-0.748V28.69z"/>
</g>
<g>
	<path class="st9" d="M38.067,35.552c0-0.528-0.349-1.056-1.047-1.459c-1.395-0.805-3.658-0.805-5.053,0
		c-0.698,0.403-1.047,0.931-1.047,1.459v0.118c0-0.528,0.349-1.056,1.047-1.459c1.395-0.805,3.658-0.805,5.053,0
		c0.698,0.403,1.047,0.931,1.047,1.459V35.552z"/>
	<path class="st9" d="M38.067,36.794c0-0.528-0.349-1.056-1.047-1.458c-1.395-0.806-3.658-0.806-5.053,0
		c-0.698,0.402-1.047,0.931-1.047,1.458v0.118c0-0.528,0.349-1.056,1.047-1.459c1.395-0.806,3.658-0.806,5.053,0
		c0.698,0.402,1.047,0.931,1.047,1.459V36.794z"/>
	<path class="st9" d="M38.067,34.151c0-0.528-0.349-1.056-1.047-1.459c-1.395-0.806-3.658-0.806-5.053,0
		c-0.698,0.403-1.047,0.931-1.047,1.459v0.118c0-0.528,0.349-1.056,1.047-1.459c1.395-0.805,3.658-0.805,5.053,0
		c0.698,0.403,1.047,0.931,1.047,1.459V34.151z"/>
	<g class="st10">
		<path class="st11" d="M37.708,40.025V27.247h-6.425v12.779l0,0c0,0,0.415,1.519,0.481,1.699c0.123,0.282,0.728,0.649,1.3-0.239
			c0.062,0.017,0.291,0.033,0.35,0.048c0,0,0.432,1.399,1.08,1.399c0.68,0,1.016-1.393,1.016-1.393l0.432-0.052
			c0.492,0.875,1.148,0.529,1.303,0.221C37.387,41.431,37.708,40.025,37.708,40.025z"/>
		<path class="st12" d="M36.767,28.558c-1.254,0.725-3.288,0.725-4.542,0c-1.254-0.724-1.254-1.898,0-2.622
			c1.254-0.725,3.289-0.725,4.542,0C38.021,26.66,38.021,27.835,36.767,28.558z"/>
	</g>
	<polygon class="st15" points="35.779,41.681 36.425,42.221 36.939,42.206 37.425,41.831 37.87,40.422 37.238,41.027 36.584,41.422 
		35.89,41.64 	"/>
	<polygon class="st15" points="33.204,41.757 32.528,42.221 32.013,42.206 31.527,41.831 31.084,40.422 31.714,41.027 
		32.368,41.422 33.062,41.64 	"/>
	<path class="st13" d="M37.965,27.064c0-1.711-1.552-3.097-3.469-3.097c-1.916,0-3.47,1.386-3.47,3.097c0,0.001,0,0.002,0,0.002
		v12.73c0,0.513,0.338,1.025,1.016,1.416c0.326,0.189,0.787,0.38,1.188,0.478c0.453,1.129,0.79,1.442,1.265,1.439
		c0.444-0.003,0.829-0.35,1.21-1.428c0.403-0.097,0.916-0.298,1.244-0.488c0.677-0.392,1.016-0.904,1.016-1.417V27.068
		C37.965,27.067,37.965,27.066,37.965,27.064z"/>
	<path class="st9" d="M34.495,43.237c-0.336,0-0.741-0.251-0.923-0.571l-0.378-0.799c-0.021,0.02-0.042,0.04-0.064,0.061
		c-0.207,0.198-0.441,0.423-0.688,0.423h-0.158c-0.392,0-0.788-0.288-0.902-0.655c-0.109-0.358-0.463-1.536-0.463-1.679V27.066
		c0-1.77,1.605-3.207,3.577-3.207c1.972,0,3.577,1.437,3.577,3.205v12.953c0,0.151-0.357,1.323-0.467,1.679
		c-0.121,0.374-0.508,0.655-0.903,0.655h-0.159c-0.254,0-0.507-0.25-0.71-0.451c-0.023-0.023-0.045-0.045-0.067-0.066l-0.35,0.831
		C35.236,42.986,34.831,43.237,34.495,43.237z M33.23,41.583h0.069l0.465,0.984c0.141,0.248,0.471,0.455,0.731,0.455
		c0.26,0,0.586-0.204,0.73-0.457l0.409-0.971h0.071c0.038,0,0.067,0.013,0.083,0.02l0.055-0.01l0.036,0.041
		c0.033,0.031,0.069,0.066,0.106,0.103c0.166,0.164,0.392,0.389,0.558,0.389h0.159c0.3,0,0.607-0.221,0.697-0.504
		c0.219-0.708,0.453-1.515,0.457-1.614V27.068c0-1.652-1.508-2.993-3.361-2.993c-1.853,0-3.362,1.341-3.362,2.99v12.953
		c0.005,0.096,0.238,0.904,0.454,1.616c0.085,0.277,0.397,0.502,0.695,0.502h0.158c0.16,0,0.37-0.201,0.539-0.363
		c0.041-0.04,0.081-0.079,0.12-0.114l0.017-0.015C33.153,41.591,33.202,41.583,33.23,41.583z"/>
	<path class="st9" d="M30.92,36.912c0,0.528,0.349,1.056,1.047,1.459c1.395,0.805,3.658,0.805,5.053,0
		c0.698-0.403,1.047-0.931,1.047-1.459v-0.118c0,0.529-0.349,1.056-1.047,1.459c-1.395,0.806-3.658,0.806-5.053,0
		c-0.698-0.403-1.047-0.93-1.047-1.459V36.912z"/>
	<path class="st9" d="M30.92,35.67c0,0.528,0.349,1.056,1.047,1.459c1.395,0.805,3.658,0.805,5.053,0
		c0.698-0.403,1.047-0.931,1.047-1.459v-0.118c0,0.528-0.349,1.056-1.047,1.458c-1.395,0.806-3.658,0.806-5.053,0
		c-0.698-0.403-1.047-0.931-1.047-1.458V35.67z"/>
	<path class="st9" d="M30.92,34.269c0,0.528,0.349,1.056,1.047,1.459c1.395,0.806,3.658,0.806,5.053,0
		c0.698-0.403,1.047-0.931,1.047-1.459v-0.118c0,0.528-0.349,1.056-1.047,1.459c-1.395,0.805-3.658,0.805-5.053,0
		c-0.698-0.403-1.047-0.931-1.047-1.459V34.269z"/>
	<path class="st2" d="M37.583,29.742c-0.152,0.15-0.34,0.293-0.563,0.422c-1.212,0.699-3.077,0.791-4.46,0.276v4.233
		c1.383,0.515,3.248,0.423,4.46-0.276c0.223-0.13,0.411-0.272,0.563-0.423V29.742z"/>
	<g>
		<path class="st9" d="M35.474,23.31H34.94c-0.279-0.082-0.611-0.082-0.888,0h-0.535v1.106l0,0c0,0.145,0.095,0.29,0.286,0.4
			c0.382,0.221,1.002,0.221,1.384,0c0.191-0.11,0.286-0.255,0.286-0.4l0,0V23.31z"/>
		<path class="st9" d="M35.188,23.71c-0.382,0.221-1.002,0.221-1.384,0c-0.382-0.221-0.382-0.578,0-0.799
			c0.382-0.221,1.002-0.221,1.384,0C35.57,23.131,35.57,23.489,35.188,23.71z"/>
	</g>
	<g>
		<path class="st14" d="M35.58,22.611h-0.592c-0.309-0.091-0.675-0.091-0.984,0h-0.592v0.788l0,0c0,0.16,0.106,0.32,0.318,0.443
			c0.423,0.244,1.11,0.244,1.534,0c0.212-0.123,0.317-0.283,0.317-0.443l0,0V22.611z"/>
		<path class="st8" d="M35.263,23.053c-0.424,0.245-1.111,0.245-1.534,0c-0.424-0.245-0.424-0.641,0-0.886
			c0.423-0.245,1.11-0.245,1.534,0C35.687,22.412,35.687,22.809,35.263,23.053z"/>
	</g>
	<path class="st9" d="M35.728,41.807l-0.045-0.211c0.457-0.098,0.863-0.249,1.208-0.449c0.62-0.358,0.962-0.828,0.962-1.323h0.216
		c0,0.575-0.381,1.111-1.071,1.51C36.635,41.545,36.206,41.704,35.728,41.807z"/>
	<path class="st9" d="M33.207,41.796c-0.458-0.103-0.869-0.258-1.221-0.462c-0.65-0.375-1.029-0.88-1.067-1.42l0.215-0.015
		c0.032,0.467,0.373,0.91,0.959,1.248c0.333,0.192,0.724,0.34,1.16,0.438L33.207,41.796z"/>
</g>
</svg>
