<?xml version="1.0" encoding="utf-8"?>
<!-- Generator: Adobe Illustrator 25.4.1, SVG Export Plug-In . SVG Version: 6.00 Build 0)  -->
<svg version="1.1" id="Layer_1" xmlns="http://www.w3.org/2000/svg" xmlns:xlink="http://www.w3.org/1999/xlink" x="0px" y="0px"
	 viewBox="0 0 50 50" style="enable-background:new 0 0 50 50;" xml:space="preserve">
<style type="text/css">
	.st0{fill:#659EC9;}
	.st1{opacity:0.7;}
	.st2{fill:#68CCE3;}
	.st3{fill:#8DEAFF;}
	.st4{opacity:0.3;fill:#295E87;enable-background:new    ;}
	.st5{opacity:0.3;fill:#659EC9;enable-background:new    ;}
	.st6{fill:#FFFFFF;}
	.st7{fill:#295E87;}
	.st8{fill:#517FA2;}
	.st9{fill:url(#SVGID_1_);}
	.st10{opacity:0.3;enable-background:new    ;}
	.st11{fill:#FFA769;}
	.st12{fill:#9DE368;}
	.st13{opacity:0.7;fill:#659EC9;enable-background:new    ;}
	.st14{fill:#4FBEFF;}
	.st15{fill:#8DD5FF;}
</style>
<g>
	<path class="st0" d="M10.347,30.462c0-0.528-0.349-1.056-1.047-1.459c-1.395-0.805-3.658-0.805-5.053,0
		C3.549,29.406,3.2,29.934,3.2,30.462v0.118c0-0.528,0.349-1.056,1.047-1.459c1.395-0.805,3.658-0.805,5.053,0
		c0.698,0.403,1.047,0.931,1.047,1.459V30.462z"/>
	<path class="st0" d="M10.347,31.704c0-0.528-0.349-1.056-1.047-1.458c-1.395-0.806-3.658-0.806-5.053,0
		C3.549,30.648,3.2,31.177,3.2,31.704v0.118c0-0.528,0.349-1.056,1.047-1.459c1.395-0.806,3.658-0.806,5.053,0
		c0.698,0.402,1.047,0.931,1.047,1.459V31.704z"/>
	<path class="st0" d="M10.347,29.061c0-0.528-0.349-1.056-1.047-1.459c-1.395-0.806-3.658-0.806-5.053,0
		C3.549,28.005,3.2,28.533,3.2,29.061v0.118c0-0.528,0.349-1.056,1.047-1.459c1.395-0.805,3.658-0.805,5.053,0
		c0.698,0.403,1.047,0.931,1.047,1.459V29.061z"/>
	<g class="st1">
		<path class="st2" d="M9.988,34.935V22.157H3.563v12.779l0,0c0,0,0.415,1.519,0.481,1.699c0.123,0.282,0.728,0.649,1.3-0.239
			c0.062,0.017,0.291,0.033,0.35,0.048c0,0,0.432,1.399,1.08,1.399c0.68,0,1.016-1.393,1.016-1.393l0.432-0.052
			c0.492,0.875,1.148,0.529,1.303,0.221C9.667,36.341,9.988,34.935,9.988,34.935z"/>
		<path class="st3" d="M9.047,23.468c-1.254,0.725-3.288,0.725-4.542,0c-1.254-0.724-1.254-1.898,0-2.622
			c1.254-0.725,3.289-0.725,4.542,0C10.301,21.57,10.301,22.745,9.047,23.468z"/>
	</g>
	<polygon class="st4" points="8.059,36.591 8.705,37.131 9.219,37.116 9.705,36.741 10.15,35.332 9.518,35.937 8.864,36.332 
		8.17,36.55 	"/>
	<polygon class="st4" points="5.484,36.667 4.808,37.131 4.293,37.116 3.807,36.741 3.364,35.332 3.994,35.937 4.648,36.332 
		5.342,36.55 	"/>
	<path class="st5" d="M10.245,21.974c0-1.711-1.552-3.097-3.469-3.097c-1.916,0-3.47,1.386-3.47,3.097c0,0.001,0,0.002,0,0.002
		v12.73c0,0.513,0.338,1.025,1.016,1.416c0.326,0.189,0.787,0.38,1.188,0.478c0.453,1.129,0.79,1.442,1.265,1.439
		c0.444-0.003,0.829-0.35,1.21-1.428c0.403-0.097,0.916-0.298,1.244-0.488c0.677-0.392,1.016-0.904,1.016-1.417V21.978
		C10.245,21.977,10.245,21.976,10.245,21.974z"/>
	<path class="st0" d="M6.775,38.147c-0.336,0-0.741-0.251-0.923-0.571l-0.378-0.799c-0.021,0.02-0.042,0.04-0.064,0.061
		c-0.207,0.198-0.441,0.423-0.688,0.423H4.564c-0.392,0-0.788-0.288-0.902-0.655c-0.109-0.358-0.463-1.536-0.463-1.679V21.976
		c0-1.77,1.605-3.207,3.577-3.207s3.577,1.437,3.577,3.205v12.953c0,0.151-0.357,1.323-0.467,1.679
		c-0.121,0.374-0.508,0.655-0.903,0.655H8.824c-0.254,0-0.507-0.25-0.71-0.451c-0.023-0.023-0.045-0.045-0.067-0.066l-0.35,0.831
		C7.516,37.896,7.111,38.147,6.775,38.147z M5.51,36.493h0.069l0.465,0.984c0.141,0.248,0.471,0.455,0.731,0.455
		s0.586-0.204,0.73-0.457l0.409-0.971h0.071c0.038,0,0.067,0.013,0.083,0.02l0.055-0.01l0.036,0.041
		c0.033,0.031,0.069,0.066,0.106,0.103c0.166,0.164,0.392,0.389,0.558,0.389h0.159c0.3,0,0.607-0.221,0.697-0.504
		c0.219-0.708,0.453-1.515,0.457-1.614V21.978c0-1.652-1.508-2.993-3.361-2.993s-3.362,1.341-3.362,2.99v12.953
		c0.005,0.096,0.238,0.904,0.454,1.616c0.085,0.277,0.397,0.502,0.695,0.502H4.72c0.16,0,0.37-0.201,0.539-0.363
		c0.041-0.04,0.081-0.079,0.12-0.114l0.017-0.015C5.433,36.501,5.482,36.493,5.51,36.493z"/>
	<path class="st0" d="M3.2,31.822c0,0.528,0.349,1.056,1.047,1.459c1.395,0.805,3.658,0.805,5.053,0
		c0.698-0.403,1.047-0.931,1.047-1.459v-0.118c0,0.529-0.349,1.056-1.047,1.459c-1.395,0.806-3.658,0.806-5.053,0
		C3.549,32.76,3.2,32.233,3.2,31.704V31.822z"/>
	<path class="st0" d="M3.2,30.58c0,0.528,0.349,1.056,1.047,1.459c1.395,0.805,3.658,0.805,5.053,0
		c0.698-0.403,1.047-0.931,1.047-1.459v-0.118c0,0.528-0.349,1.056-1.047,1.458c-1.395,0.806-3.658,0.806-5.053,0
		C3.549,31.517,3.2,30.989,3.2,30.462V30.58z"/>
	<path class="st0" d="M3.2,29.179c0,0.528,0.349,1.056,1.047,1.459c1.395,0.806,3.658,0.806,5.053,0
		c0.698-0.403,1.047-0.931,1.047-1.459v-0.118c0,0.528-0.349,1.056-1.047,1.459c-1.395,0.805-3.658,0.805-5.053,0
		C3.549,30.117,3.2,29.589,3.2,29.061V29.179z"/>
	<path class="st6" d="M9.863,24.652c-0.152,0.15-0.34,0.293-0.563,0.422c-1.212,0.699-3.077,0.791-4.46,0.276v4.233
		c1.383,0.515,3.248,0.423,4.46-0.276c0.223-0.13,0.411-0.272,0.563-0.423V24.652z"/>
	<g>
		<path class="st0" d="M7.754,18.22H7.22c-0.279-0.082-0.611-0.082-0.888,0H5.797v1.106l0,0c0,0.145,0.095,0.29,0.286,0.4
			c0.382,0.221,1.002,0.221,1.384,0c0.191-0.11,0.286-0.255,0.286-0.4l0,0V18.22H7.754z"/>
		<path class="st0" d="M7.468,18.62c-0.382,0.221-1.002,0.221-1.384,0s-0.382-0.578,0-0.799s1.002-0.221,1.384,0
			C7.85,18.041,7.85,18.399,7.468,18.62z"/>
	</g>
	<g>
		<path class="st7" d="M7.86,17.521H7.268c-0.309-0.091-0.675-0.091-0.984,0H5.692v0.788l0,0c0,0.16,0.106,0.32,0.318,0.443
			c0.423,0.244,1.11,0.244,1.534,0c0.212-0.123,0.317-0.283,0.317-0.443l0,0v-0.788H7.86z"/>
		<path class="st8" d="M7.543,17.963c-0.424,0.245-1.111,0.245-1.534,0c-0.424-0.245-0.424-0.641,0-0.886
			c0.423-0.245,1.11-0.245,1.534,0C7.967,17.322,7.967,17.719,7.543,17.963z"/>
	</g>
	<path class="st0" d="M8.008,36.717l-0.045-0.211c0.457-0.098,0.863-0.249,1.208-0.449c0.62-0.358,0.962-0.828,0.962-1.323h0.216
		c0,0.575-0.381,1.111-1.071,1.51C8.915,36.455,8.486,36.614,8.008,36.717z"/>
	<path class="st0" d="M5.487,36.706c-0.458-0.103-0.869-0.258-1.221-0.462c-0.65-0.375-1.029-0.88-1.067-1.42l0.215-0.015
		c0.032,0.467,0.373,0.91,0.959,1.248c0.333,0.192,0.724,0.34,1.16,0.438L5.487,36.706z"/>
</g>
<radialGradient id="SVGID_1_" cx="-53.5128" cy="-134.661" r="15.8951" gradientTransform="matrix(1.5353 0 0 -0.569 107.1582 -36.4711)" gradientUnits="userSpaceOnUse">
	<stop  offset="0.2598" style="stop-color:#B4BCC1"/>
	<stop  offset="0.4308" style="stop-color:#BCC3C8;stop-opacity:0.7486"/>
	<stop  offset="0.6967" style="stop-color:#D2D7DA;stop-opacity:0.3577"/>
	<stop  offset="0.94" style="stop-color:#ECEEEF;stop-opacity:0"/>
</radialGradient>
<ellipse class="st9" cx="25" cy="40.151" rx="24.402" ry="9.045"/>
<g>
	<g>
		<polygon class="st10" points="35.097,42.327 30.02,36.606 31.933,36.04 37.011,41.761 		"/>
		<polygon class="st6" points="35.097,42.212 30.02,36.49 31.933,35.925 37.011,41.646 		"/>
		<polygon class="st11" points="31.105,37.468 30.313,36.575 31.86,36.118 32.651,37.01 		"/>
		<polygon class="st11" points="32.463,38.998 31.671,38.106 33.217,37.648 34.01,38.541 		"/>
		<polygon class="st11" points="33.821,40.528 33.029,39.636 34.575,39.178 35.368,40.071 		"/>
		<polygon class="st12" points="35.179,42.059 34.387,41.166 35.934,40.709 36.725,41.601 		"/>
	</g>
	<g>
		<polygon class="st10" points="34.533,43.142 26.659,38.595 28.179,37.718 36.053,42.264 		"/>
		<polygon class="st6" points="34.533,43.026 26.659,38.48 28.179,37.602 36.053,42.148 		"/>
		<polygon class="st11" points="28.212,39.219 26.984,38.509 28.212,37.8 29.44,38.509 		"/>
		<polygon class="st11" points="30.318,40.434 29.089,39.725 30.318,39.016 31.546,39.725 		"/>
		<polygon class="st12" points="32.391,41.684 31.162,40.974 32.391,40.265 33.619,40.974 		"/>
		<polygon class="st12" points="34.53,42.867 33.302,42.157 34.53,41.448 35.758,42.157 		"/>
	</g>
	<g>
		<polygon class="st10" points="38.202,44.134 27.691,42.01 28.401,40.839 38.912,42.963 		"/>
		<polygon class="st6" points="38.202,44.019 27.691,41.895 28.401,40.723 38.912,42.847 		"/>
		<polygon class="st11" points="29.645,42.171 28.005,41.839 28.579,40.893 30.219,41.225 		"/>
		<polygon class="st12" points="32.422,42.772 30.783,42.441 31.357,41.494 32.997,41.825 		"/>
		<polygon class="st12" points="35.267,43.307 33.627,42.976 34.201,42.029 35.841,42.36 		"/>
		<polygon class="st12" points="38.078,43.875 36.438,43.543 37.012,42.597 38.652,42.928 		"/>
	</g>
</g>
<g>
	<path class="st13" d="M40.804,31.377c-1.188-0.686-3.115-0.686-4.303,0c-0.625,0.361-0.921,0.84-0.888,1.313l0,0l0.582,7.545
		c0.022,0.345,0.261,0.687,0.719,0.951c0.961,0.555,2.519,0.555,3.48,0c0.457-0.264,0.696-0.605,0.719-0.951h0.002l0.578-7.531
		c0,0,0,0,0-0.001l0.001-0.013h-0.001C41.725,32.218,41.43,31.739,40.804,31.377z"/>
	<g>
		<path class="st14" d="M36.076,35.177l0.395,4.916l0,0c0.02,0.307,0.232,0.61,0.638,0.844c0.852,0.492,2.235,0.492,3.088,0
			c0.405-0.234,0.618-0.537,0.638-0.844h0.002l0.365-4.903L36.076,35.177z"/>
		<path class="st15" d="M40.451,36.183c-1.001,0.578-2.624,0.578-3.625,0s-1.001-1.515,0-2.093c1.001-0.578,2.624-0.578,3.625,0
			C41.452,34.668,41.452,35.605,40.451,36.183z"/>
	</g>
	<path class="st8" d="M38.652,34.501c-0.834,0-1.621-0.189-2.214-0.531c-0.615-0.355-0.954-0.835-0.954-1.35
		c0-0.516,0.339-0.995,0.954-1.35c0.593-0.343,1.379-0.531,2.214-0.531c0.834,0,1.621,0.188,2.214,0.531
		c0.615,0.355,0.954,0.835,0.954,1.35c0,0.516-0.339,0.995-0.954,1.35C40.273,34.313,39.487,34.501,38.652,34.501z M38.652,30.987
		c-0.791,0-1.533,0.177-2.089,0.498c-0.535,0.309-0.829,0.711-0.829,1.134s0.294,0.826,0.829,1.134
		c0.556,0.321,1.298,0.498,2.089,0.498c0.791,0,1.533-0.176,2.089-0.498c0.535-0.309,0.829-0.711,0.829-1.134
		s-0.294-0.825-0.829-1.134C40.186,31.164,39.444,30.987,38.652,30.987z"/>
	<path class="st8" d="M38.653,41.725c-0.653,0-1.306-0.143-1.802-0.431c-0.477-0.276-0.755-0.649-0.781-1.051L35.488,32.7
		l0.249-0.019l0.582,7.545c0.021,0.318,0.254,0.62,0.657,0.853c0.925,0.534,2.43,0.534,3.355,0c0.403-0.232,0.636-0.535,0.656-0.851
		l0.011-0.117l0.571-7.43l0.249,0.019l-0.588,7.66h-0.008c-0.067,0.357-0.335,0.685-0.766,0.934
		C39.958,41.581,39.305,41.725,38.653,41.725z"/>
</g>
<g>
	<path class="st0" d="M25.51,34.162c0.001-1.137-0.751-2.276-2.256-3.144c-3.007-1.736-7.885-1.736-10.893,0
		c-1.504,0.868-2.255,2.007-2.255,3.144v0.253c0-1.137,0.751-2.276,2.255-3.144c3.008-1.736,7.886-1.736,10.893,0
		c1.504,0.868,2.257,2.006,2.256,3.144V34.162z"/>
	<path class="st0" d="M25.51,35.329c0.001-1.138-0.751-2.277-2.256-3.145c-3.007-1.736-7.885-1.736-10.893,0
		c-1.504,0.868-2.255,2.007-2.255,3.145v0.253c0-1.137,0.751-2.276,2.255-3.144c3.008-1.736,7.886-1.736,10.893,0
		c1.504,0.868,2.257,2.007,2.256,3.144V35.329z"/>
	<path class="st0" d="M25.51,36.497c0.001-1.138-0.751-2.277-2.256-3.145c-3.007-1.736-7.885-1.736-10.893,0
		c-1.504,0.868-2.255,2.006-2.255,3.145v0.253c0-1.137,0.751-2.276,2.255-3.144c3.008-1.736,7.886-1.736,10.893,0
		c1.504,0.868,2.257,2.007,2.256,3.144V36.497z"/>
	<g class="st1">
		<path class="st2" d="M24.8,38.475V24.869H10.837v13.607l0,0c0,1.032,0.682,2.063,2.045,2.851c2.726,1.574,7.147,1.574,9.873,0
			C24.12,40.539,24.801,39.508,24.8,38.475z"/>
		<path class="st3" d="M22.756,27.719c-2.726,1.574-7.147,1.574-9.873,0s-2.726-4.126,0-5.7c2.726-1.574,7.147-1.574,9.873,0
			C25.482,23.593,25.482,26.145,22.756,27.719z"/>
	</g>
	<path class="st5" d="M25.36,24.472c0-3.719-3.376-6.733-7.541-6.733s-7.54,3.015-7.54,6.733c0,0.001,0,0.003,0,0.005V38.7
		c0,1.114,0.736,2.228,2.209,3.078c2.944,1.701,7.719,1.701,10.663,0.001c1.473-0.851,2.209-1.964,2.209-3.079V24.48
		C25.36,24.477,25.36,24.475,25.36,24.472z"/>
	<path class="st0" d="M17.82,43.281L17.82,43.281c-2.054,0-3.989-0.463-5.447-1.306c-1.498-0.865-2.324-2.028-2.324-3.276V24.477
		c0-3.843,3.485-6.966,7.769-6.966s7.77,3.123,7.77,6.962v14.228c0,1.248-0.825,2.411-2.323,3.277
		C21.807,42.818,19.873,43.281,17.82,43.281z M17.819,17.967c-4.032,0-7.312,2.918-7.312,6.505L10.508,38.7
		c0,1.078,0.744,2.101,2.094,2.88c1.389,0.803,3.242,1.245,5.218,1.245h0.001c1.975,0,3.828-0.442,5.217-1.244
		c1.351-0.78,2.095-1.803,2.095-2.881V24.48C25.131,20.885,21.851,17.967,17.819,17.967z"/>
	<g>
		<path class="st0" d="M19.947,16.487h-1.163c-0.604-0.177-1.324-0.177-1.929,0h-1.163v2.403l0,0c0,0.315,0.208,0.629,0.623,0.869
			c0.831,0.48,2.178,0.48,3.01,0c0.415-0.24,0.623-0.555,0.623-0.869l0,0L19.947,16.487L19.947,16.487z"/>
		<path class="st0" d="M19.324,17.356c-0.831,0.48-2.178,0.48-3.01,0c-0.831-0.479-0.831-1.257,0-1.737
			c0.831-0.479,2.178-0.479,3.01,0C20.155,16.098,20.155,16.876,19.324,17.356z"/>
	</g>
	<g>
		<path class="st7" d="M20.177,14.966h-1.288c-0.671-0.197-1.468-0.197-2.139,0h-1.287v1.712l0,0c0,0.348,0.229,0.697,0.69,0.963
			c0.921,0.532,2.414,0.532,3.334,0c0.461-0.266,0.691-0.615,0.691-0.963l0,0L20.177,14.966L20.177,14.966z"/>
		<path class="st8" d="M19.486,15.929c-0.921,0.531-2.414,0.531-3.334,0c-0.921-0.532-0.921-1.394,0-1.926
			c0.921-0.531,2.414-0.531,3.334,0C20.408,14.535,20.408,15.397,19.486,15.929z"/>
	</g>
	<path class="st0" d="M10.107,36.75c0,1.138,0.751,2.277,2.255,3.145c3.007,1.736,7.886,1.736,10.893,0
		c1.504-0.868,2.256-2.007,2.256-3.145v-0.253c0,1.138-0.751,2.276-2.256,3.144c-3.007,1.737-7.885,1.737-10.893,0
		c-1.504-0.868-2.255-2.006-2.255-3.144V36.75z"/>
	<path class="st0" d="M10.107,35.583c0,1.138,0.751,2.277,2.255,3.145c3.007,1.736,7.886,1.736,10.893,0
		c1.504-0.868,2.256-2.007,2.256-3.145V35.33c0,1.138-0.751,2.276-2.256,3.144c-3.007,1.737-7.885,1.737-10.893,0
		c-1.504-0.868-2.255-2.006-2.255-3.144V35.583z"/>
	<path class="st0" d="M10.107,34.415c0,1.138,0.751,2.277,2.255,3.145c3.007,1.736,7.886,1.736,10.893,0
		c1.504-0.868,2.256-2.007,2.256-3.145v-0.253c0,1.138-0.751,2.276-2.256,3.144c-3.007,1.737-7.885,1.737-10.893,0
		c-1.504-0.868-2.255-2.006-2.255-3.144V34.415z"/>
	<path class="st6" d="M24.297,29.825c-0.295,0.265-0.641,0.517-1.042,0.748c-2.277,1.315-5.625,1.633-8.423,0.957v4.828
		c2.798,0.676,6.146,0.358,8.423-0.957c0.402-0.232,0.747-0.483,1.042-0.748V29.825z"/>
</g>
</svg>
