<?xml version="1.0" encoding="utf-8"?>
<!-- Generator: Adobe Illustrator 25.4.1, SVG Export Plug-In . SVG Version: 6.00 Build 0)  -->
<svg version="1.1" id="Layer_1" xmlns="http://www.w3.org/2000/svg" xmlns:xlink="http://www.w3.org/1999/xlink" x="0px" y="0px"
	 viewBox="0 0 50 50" style="enable-background:new 0 0 50 50;" xml:space="preserve">
<style type="text/css">
	.st0{fill:#666666;}
	.st1{fill:#B4B4B4;}
	.st2{opacity:0.16;fill:#BFB8B6;enable-background:new    ;}
	.st3{fill:url(#SVGID_1_);}
	.st4{fill:#FFE538;}
	.st5{fill:#FF7B00;}
	.st6{opacity:0.6;fill:#FFFFB4;enable-background:new    ;}
	.st7{fill:#4FAEFF;}
	.st8{fill:#00D03F;}
	.st9{fill:#00FF07;}
	.st10{fill:#F2F2F2;}
	.st11{opacity:0.28;fill:#FFFFFF;enable-background:new    ;}
	.st12{opacity:0.38;}
	.st13{fill:#676767;}
	.st14{opacity:0.6;}
	.st15{fill:#F70F00;}
	.st16{fill:#FA655B;}
</style>
<g>
	<circle class="st0" cx="31.91" cy="12.667" r="1.364"/>
	<g>
		<path class="st1" d="M33.113,12.465c0.026-0.092,0.068-0.179,0.031-0.275c-0.033-0.086-0.114-0.145-0.165-0.223
			c-0.051-0.079-0.069-0.175-0.125-0.25c-0.013-0.017-0.031-0.035-0.053-0.036c-0.057-0.003-0.021,0.099-0.105,0.086
			c-0.03-0.004-0.06-0.015-0.086-0.031c-0.029-0.017-0.054-0.04-0.086-0.05c-0.067-0.021-0.146,0.037-0.146,0.107
			c0,0.015,0.003,0.032-0.005,0.045c-0.007,0.011-0.02,0.016-0.032,0.02c-0.051,0.015-0.115,0.012-0.143,0.057
			c-0.023,0.036-0.007,0.084,0.011,0.123c0.007,0.016,0.016,0.032,0.031,0.039c0.016,0.007,0.035,0.001,0.052-0.002
			c0.051-0.007,0.104,0.02,0.128,0.065c0.007,0.014,0.012,0.028,0.022,0.04c0.024,0.028,0.067,0.025,0.103,0.016
			c0.011-0.003,0.023-0.006,0.03-0.015c0.014-0.017,0.002-0.043,0.003-0.065c0.001-0.029,0.027-0.053,0.055-0.059
			s0.058,0.004,0.083,0.019c0.043,0.027,0.076,0.085,0.051,0.13c-0.008,0.013-0.019,0.023-0.028,0.035
			c-0.048,0.06-0.035,0.15,0.007,0.214c0.007,0.01,0.015,0.02,0.026,0.026c0.015,0.007,0.032,0.005,0.048,0.005
			c0.035-0.001,0.069,0.005,0.101,0.018c0.036,0.014,0.074,0.029,0.108,0.03C33.067,12.536,33.099,12.519,33.113,12.465z"/>
		<path class="st1" d="M31.907,12.168c0.002-0.022-0.014-0.042-0.029-0.058c-0.016-0.017-0.032-0.035-0.048-0.052
			c-0.008-0.009-0.017-0.018-0.021-0.03c-0.004-0.013-0.003-0.027-0.002-0.041c0.002-0.034-0.008-0.075-0.039-0.09
			c-0.024-0.011-0.053-0.004-0.077,0.009c-0.024,0.013-0.045,0.03-0.071,0.038c-0.036,0.011-0.075,0.004-0.113,0.004
			s-0.081,0.014-0.095,0.049c-0.009,0.024-0.002,0.052-0.008,0.077c-0.007,0.031-0.033,0.054-0.058,0.075
			c-0.012,0.01-0.025,0.021-0.031,0.036c-0.007,0.016-0.004,0.035-0.001,0.052c0.004,0.022,0.008,0.045,0.019,0.064
			c0.011,0.02,0.031,0.036,0.053,0.037c0.022,0.002,0.047-0.019,0.067-0.015c0.016,0.003,0.038,0.03,0.045,0.044
			c0.008,0.015,0.005,0.028,0.02,0.04c0.024,0.019,0.061,0.012,0.084-0.007c0.023-0.019,0.037-0.048,0.05-0.075
			s0.029-0.055,0.054-0.072c0.049-0.032,0.119-0.011,0.17-0.041C31.892,12.203,31.906,12.187,31.907,12.168z"/>
		<path class="st1" d="M30.637,12.93c0.054,0.137,0.172,0.253,0.315,0.29c0.057,0.015,0.126,0.024,0.153,0.076
			c0.008,0.016,0.011,0.035,0.016,0.052c0.015,0.056,0.056,0.108,0.111,0.125s0.124-0.008,0.146-0.062
			c0.006-0.013,0.008-0.029,0.018-0.04c0.008-0.01,0.02-0.015,0.031-0.019c0.1-0.038,0.214-0.034,0.311,0.01
			c0.019,0.009,0.038,0.024,0.049,0.042c0.006,0.01,0.018,0.037,0.006,0.046c-0.006,0.004-0.014,0.004-0.021,0.004
			c-0.024-0.001-0.051-0.002-0.072,0.012c-0.012,0.008-0.021,0.02-0.03,0.031c-0.027,0.031-0.065,0.056-0.107,0.057
			c-0.022,0.001-0.044-0.006-0.064-0.015c-0.015-0.007-0.029-0.016-0.045-0.023c-0.015-0.006-0.029-0.015-0.045-0.005
			c-0.013,0.008-0.02,0.022-0.021,0.037c0,0.015,0.005,0.029,0.012,0.042c0.022,0.038,0.066,0.06,0.11,0.061
			c0.044,0.001,0.087-0.017,0.122-0.043c0.025-0.019,0.046-0.043,0.072-0.06c0.016-0.011,0.034-0.02,0.053-0.025
			c0.012-0.003,0.026-0.005,0.037,0.001c0.029,0.017-0.012,0.056-0.025,0.069c-0.021,0.022-0.046,0.043-0.053,0.074
			c-0.01,0.045,0.035,0.081,0.075,0.104c0.046,0.026,0.095,0.05,0.147,0.053c0.053,0.003,0.11-0.02,0.132-0.068
			c-0.027-0.022-0.065-0.022-0.1-0.017s-0.07,0.014-0.104,0.004c-0.033-0.01-0.062-0.047-0.049-0.079
			c0.009-0.021,0.033-0.033,0.047-0.052c0.03-0.042,0.003-0.106,0.032-0.149c0.028-0.041,0.087-0.038,0.135-0.051
			c0.032-0.008,0.061-0.025,0.093-0.033c0.032-0.008,0.069-0.006,0.092,0.018c0.013,0.015,0.023,0.034,0.009,0.052
			c-0.007,0.01-0.018,0.016-0.026,0.025c-0.018,0.019-0.023,0.048-0.018,0.074s0.018,0.049,0.033,0.071
			c0.018,0.027,0.04,0.053,0.067,0.071c0.027,0.019,0.06,0.03,0.093,0.026c0.004-0.001,0.008-0.002,0.01-0.004
			c0.003-0.003,0.003-0.007,0.003-0.011c-0.001-0.018-0.012-0.033-0.02-0.048c-0.023-0.043,0.008-0.093,0.056-0.098
			c0.035-0.003,0.069,0.013,0.102,0.027c0.032,0.014,0.07,0.025,0.103,0.012c0.033-0.014,0.051-0.063,0.024-0.086
			c-0.009-0.008-0.021-0.011-0.032-0.013c-0.057-0.01-0.114,0.002-0.171,0.001c-0.057-0.001-0.12-0.018-0.149-0.067
			c-0.044-0.074,0.022-0.174,0.105-0.197c0.083-0.023,0.17,0.005,0.251,0.034c0.006,0.002,0.012,0.004,0.017,0.009
			c0.016,0.016-0.002,0.043-0.023,0.051c-0.021,0.007-0.045,0.007-0.062,0.021c-0.03,0.025-0.007,0.082,0.032,0.085
			c0.039,0.002,0.07-0.041,0.063-0.079c0.045-0.006,0.09-0.017,0.125-0.045s0.057-0.077,0.042-0.119
			c-0.008-0.023-0.026-0.043-0.03-0.067c-0.009-0.049,0.048-0.096,0.093-0.099c0.036-0.002,0.07,0.021,0.105,0.017
			c0.022-0.003,0.043-0.016,0.054-0.036c0.009-0.015,0.011-0.033,0.022-0.047c0.011-0.014,0.03-0.022,0.048-0.025
			c0.009-0.002,0.019-0.003,0.028-0.007c0.007-0.004,0.012-0.009,0.017-0.015c0.023-0.028,0.062-0.118,0.001-0.129
			c-0.025-0.004-0.048,0.021-0.074,0.022c-0.07,0.002-0.142-0.053-0.159-0.121c-0.006-0.024-0.007-0.049-0.018-0.071
			c-0.023-0.045-0.095-0.054-0.129-0.015c-0.015,0.017-0.022,0.04-0.034,0.059c-0.035,0.055-0.109,0.08-0.135,0.14
			c-0.017,0.038-0.01,0.083-0.021,0.124c-0.023,0.087-0.122,0.135-0.212,0.129c-0.014,0-0.028-0.003-0.039-0.011
			c-0.035-0.028-0.001-0.085-0.011-0.128c-0.013-0.055-0.086-0.065-0.127-0.103c-0.033-0.031-0.046-0.09-0.038-0.134
			c0.002-0.015,0.008-0.03,0.011-0.045c0.003-0.015,0.003-0.032-0.005-0.045c-0.021-0.035-0.088-0.015-0.118-0.003
			c-0.043,0.017-0.08,0.052-0.095,0.097c-0.007,0.019-0.01,0.04-0.021,0.057c-0.028,0.043-0.092,0.039-0.138,0.062
			c-0.056,0.028-0.082,0.105-0.054,0.162c0.017,0.034,0.049,0.059,0.063,0.095c0.023,0.062-0.022,0.134-0.082,0.161
			c-0.061,0.027-0.131,0.021-0.196,0.009c-0.043-0.008-0.094-0.027-0.097-0.07c-0.001-0.014,0.003-0.028,0-0.042
			c-0.006-0.026-0.039-0.037-0.065-0.032c-0.026,0.005-0.049,0.022-0.073,0.033c-0.103,0.049-0.225,0.004-0.325-0.05
			c-0.063-0.034-0.124-0.071-0.182-0.112c-0.043-0.03-0.088-0.07-0.085-0.122c0.004-0.056,0.062-0.091,0.084-0.142
			c0.039-0.09-0.041-0.206,0.015-0.287c0.026-0.037,0.073-0.053,0.111-0.078c0.038-0.026,0.07-0.077,0.045-0.115
			c-0.016-0.025-0.049-0.032-0.079-0.033c-0.094-0.002-0.191,0.054-0.22,0.143c-0.008,0.024-0.01,0.05-0.016,0.075
			c-0.008,0.036-0.022,0.07-0.034,0.104C30.587,12.634,30.583,12.792,30.637,12.93z"/>
	</g>
	<circle class="st2" cx="32.242" cy="12.195" r="0.675"/>
</g>
<radialGradient id="SVGID_1_" cx="-53.5128" cy="636.661" r="15.8951" gradientTransform="matrix(1.5353 0 0 0.569 107.1582 -322.1091)" gradientUnits="userSpaceOnUse">
	<stop  offset="0.2598" style="stop-color:#B4BCC1"/>
	<stop  offset="0.4308" style="stop-color:#BCC3C8;stop-opacity:0.7486"/>
	<stop  offset="0.6967" style="stop-color:#D2D7DA;stop-opacity:0.3577"/>
	<stop  offset="0.94" style="stop-color:#ECEEEF;stop-opacity:0"/>
</radialGradient>
<ellipse class="st3" cx="25" cy="40.151" rx="24.402" ry="9.045"/>
<g>
	<circle class="st4" cx="24.744" cy="26.234" r="6.531"/>
	<path class="st5" d="M29.959,23.886c-0.267-0.111-0.196-0.195-0.22-0.474c-0.016-0.18-0.178-0.318-0.35-0.373
		s-0.357-0.048-0.537-0.063c-0.441-0.035-0.904-0.236-1.099-0.633c-0.137-0.279-0.125-0.619-0.288-0.884
		c-0.213-0.346-0.655-0.463-1.058-0.517c-0.409-0.055-0.897-0.043-1.14,0.29c-0.099,0.136-0.143,0.312-0.267,0.427
		c-0.371,0.344-1.089-0.123-1.444,0.238c-0.299,0.304-0.034,0.924-0.372,1.185c-0.235,0.181-0.645,0.073-0.805,0.322
		c-0.12,0.187-0.001,0.426,0.066,0.638c0.133,0.42,0.032,0.907-0.258,1.24c-0.059,0.068-0.129,0.137-0.141,0.226
		c-0.009,0.062,0.013,0.125,0.043,0.181c0.275,0.506,1.157,0.51,1.292,1.069c0.071,0.296-0.119,0.584-0.287,0.837
		s-0.324,0.576-0.188,0.848c0.056,0.111,0.153,0.194,0.232,0.29c0.272,0.331,0.273,0.902-0.087,1.134
		c-0.228,0.147-0.575,0.163-0.674,0.416c-0.059,0.151,0.011,0.329,0.132,0.438s0.282,0.16,0.44,0.196
		c0.708,0.16,1.449,0.058,2.152-0.12c0.054-0.014,0.109-0.028,0.153-0.061c0.076-0.056,0.107-0.153,0.165-0.227
		c0.13-0.166,0.393-0.189,0.573-0.08c0.18,0.11,0.28,0.323,0.294,0.533c0.003,0.048,0.004,0.101,0.037,0.136
		c0.031,0.034,0.081,0.04,0.127,0.042c0.378,0.014,0.757-0.181,0.966-0.496c0.027-0.04,0.053-0.084,0.096-0.106
		c0.041-0.021,0.091-0.018,0.137-0.013c0.173,0.017,0.349,0.04,0.519,0.002c0.17-0.037,0.336-0.148,0.385-0.315
		c0.044-0.148,0.002-0.338,0.122-0.436c0.075-0.061,0.187-0.057,0.264-0.115c0.112-0.084,0.104-0.25,0.099-0.39
		c-0.005-0.14,0.032-0.315,0.168-0.348c0.125-0.03,0.233,0.084,0.32,0.179c0.087,0.094,0.231,0.184,0.334,0.106
		c0.143-0.108-0.01-0.36,0.09-0.509c0.063-0.092,0.205-0.111,0.256-0.21c0.071-0.136-0.083-0.28-0.224-0.34
		c-0.141-0.06-0.316-0.132-0.328-0.285c-0.018-0.233,0.345-0.294,0.443-0.506c0.022-0.047,0.029-0.101,0.057-0.145
		c0.086-0.136,0.307-0.109,0.414-0.229c0.128-0.144,0.006-0.364-0.004-0.556c-0.015-0.305,0.274-0.594,0.176-0.883
		c-0.079-0.233-0.373-0.329-0.48-0.552c-0.095-0.2-0.014-0.434-0.006-0.655C30.261,24.121,30.151,23.964,29.959,23.886z"/>
	<circle class="st6" cx="25.747" cy="24.961" r="4.827"/>
</g>
<g>
	<circle class="st7" cx="5.297" cy="24.3" r="3.403"/>
	<path class="st8" d="M4.777,26.187c-0.031-0.086-0.096-0.154-0.15-0.227c-0.063-0.086-0.112-0.184-0.144-0.286
		c-0.047-0.151-0.054-0.325,0.029-0.461c0.053-0.086,0.137-0.151,0.179-0.243c0.071-0.158,0.008-0.375,0.138-0.489
		c0.037-0.032,0.084-0.049,0.129-0.068c0.167-0.07,0.325-0.172,0.431-0.319s0.154-0.342,0.097-0.514
		c-0.029-0.087-0.092-0.171-0.182-0.188c-0.116-0.022-0.224,0.072-0.342,0.076c-0.158,0.005-0.229-0.145-0.36-0.199
		c-0.161-0.067-0.362-0.025-0.49,0.089c-0.072,0.064-0.13,0.154-0.224,0.178c-0.085,0.022-0.176-0.019-0.261,0
		c-0.098,0.021-0.162,0.112-0.209,0.2c-0.047,0.088-0.09,0.184-0.173,0.239c-0.097,0.064-0.223,0.053-0.339,0.058
		c-0.124,0.005-0.254,0.034-0.346,0.118c-0.092,0.084-0.131,0.234-0.06,0.337c0.062,0.089,0.18,0.116,0.269,0.178
		c0.083,0.057,0.141,0.148,0.159,0.246c0.012,0.066,0.007,0.135,0.021,0.2c0.041,0.194,0.277,0.321,0.462,0.248
		c0.097-0.039,0.182-0.123,0.287-0.119c0.086,0.003,0.162,0.071,0.19,0.152c0.029,0.081,0.015,0.173-0.021,0.251
		c-0.027,0.057-0.064,0.109-0.087,0.168c-0.071,0.184,0.037,0.415,0.223,0.479c0.062,0.021,0.129,0.025,0.193,0.043
		c0.075,0.021,0.144,0.062,0.199,0.118c0.065,0.065,0.131,0.159,0.221,0.141c0.035-0.007,0.065-0.026,0.089-0.052
		C4.787,26.453,4.812,26.281,4.777,26.187z"/>
	<path class="st8" d="M7.579,22.059c-0.01-0.05-0.001-0.131-0.029-0.176s-0.053-0.056-0.104-0.024
		c-0.081,0.051-0.055,0.163-0.029,0.236c0.018,0.049,0.037,0.099,0.036,0.151s-0.028,0.108-0.078,0.124
		c-0.085,0.028-0.157-0.068-0.24-0.103c-0.112-0.047-0.236,0.021-0.356,0.028c-0.176,0.011-0.346-0.128-0.379-0.301
		c-0.021-0.112,0.004-0.244-0.072-0.33c-0.071-0.082-0.203-0.079-0.3-0.031c-0.034,0.016-0.066,0.039-0.085,0.071
		c-0.052,0.09,0.024,0.199,0.092,0.278c0.069,0.08,0.136,0.198,0.071,0.28c-0.046,0.059-0.134,0.06-0.207,0.049
		c-0.192-0.029-0.375-0.109-0.526-0.229c-0.098-0.078-0.183-0.172-0.276-0.256c-0.094-0.084-0.2-0.159-0.322-0.188
		c-0.122-0.029-0.264-0.005-0.349,0.087c-0.085,0.092-0.093,0.255,0.002,0.337c0.08,0.069,0.199,0.064,0.305,0.063
		c0.093,0,0.188,0.006,0.273,0.045c0.084,0.039,0.156,0.116,0.166,0.209c0.002,0.019,0.002,0.041,0.015,0.056
		c0.013,0.016,0.036,0.018,0.056,0.02c0.143,0.014,0.306,0.088,0.331,0.23c0.017,0.097-0.035,0.192-0.049,0.289
		c-0.01,0.074,0.003,0.15,0.036,0.216c0.026,0.05,0.074,0.099,0.13,0.091c0.085-0.013,0.096-0.127,0.125-0.207
		c0.039-0.11,0.157-0.188,0.275-0.181c0.045,0.003,0.091,0.018,0.12,0.052c0.028,0.033,0.036,0.078,0.059,0.114
		c0.046,0.074,0.142,0.099,0.229,0.098c0.087-0.001,0.173-0.022,0.26-0.016c0.215,0.016,0.39,0.22,0.401,0.435
		c0.006,0.114-0.039,0.242-0.143,0.288c-0.098,0.043-0.215,0-0.296-0.071s-0.136-0.166-0.205-0.248
		c-0.023-0.027-0.051-0.055-0.086-0.056c-0.051-0.001-0.087,0.057-0.087,0.108c0,0.052,0.022,0.1,0.031,0.151
		c0.008,0.05-0.003,0.112-0.048,0.136c-0.036,0.019-0.081,0.008-0.12,0.02c-0.054,0.016-0.085,0.074-0.096,0.129
		c-0.012,0.055-0.009,0.113-0.025,0.167c-0.031,0.106-0.123,0.181-0.18,0.276c-0.056,0.095-0.056,0.248,0.048,0.286
		c0.079,0.029,0.163-0.031,0.21-0.101c0.089-0.132,0.105-0.307,0.212-0.426c0.083-0.091,0.214-0.135,0.335-0.112
		c0.119,0.023,0.24,0.105,0.35,0.055c0.107-0.048,0.137-0.197,0.243-0.248c0.075-0.035,0.169-0.012,0.241-0.054
		c0.081-0.047,0.098-0.154,0.111-0.247c0.012-0.093,0.041-0.201,0.129-0.234c0.064-0.024,0.143,0,0.199-0.038
		c0.039-0.026,0.055-0.076,0.065-0.122c0.045-0.218-0.001-0.454-0.124-0.639c-0.075-0.113-0.175-0.206-0.251-0.318
		C7.628,22.211,7.597,22.139,7.579,22.059z"/>
	<path class="st9" d="M7.491,22.417c0.038-0.027,0.086-0.037,0.131-0.029c0.029,0.005,0.057,0.018,0.082,0.033
		c0.078,0.047,0.141,0.118,0.187,0.197c0.046,0.079,0.077,0.166,0.1,0.255c0.018,0.071,0.032,0.143,0.027,0.215
		c-0.007,0.101-0.059,0.22-0.177,0.219c-0.014,0-0.027-0.002-0.04,0c-0.025,0.003-0.047,0.02-0.065,0.038
		c-0.058,0.059-0.084,0.141-0.107,0.22s-0.044,0.162-0.096,0.226c-0.025,0.032-0.057,0.053-0.098,0.055
		c-0.077,0.004-0.141-0.063-0.167-0.136c-0.025-0.073-0.023-0.152-0.034-0.228c-0.011-0.08-0.036-0.159-0.079-0.227
		c-0.086-0.137-0.234-0.221-0.385-0.279c-0.067-0.025-0.136-0.047-0.19-0.093c-0.151-0.129,0.008-0.337,0.152-0.39
		c0.033-0.012,0.068-0.019,0.102-0.028c0.024-0.006,0.055-0.009,0.077-0.02c0.049-0.025,0.066-0.091,0.119-0.113
		c0.015-0.006,0.032-0.008,0.049-0.009c0.077-0.002,0.139,0.042,0.202,0.079c0.033,0.02,0.067,0.036,0.104,0.046
		c0.008,0.002,0.015,0.003,0.021,0.004C7.44,22.455,7.457,22.44,7.491,22.417z"/>
	<g>
		<path class="st10" d="M3.076,26.493c-0.002,0.018-0.003,0.036-0.002,0.054c0.003,0.098,0.034,0.187,0.084,0.267
			c0.136,0.221,0.412,0.377,0.625,0.48c0.307,0.147,0.64,0.235,0.975,0.29c0.273,0.044,0.55,0.074,0.827,0.058
			c0.528-0.03,1.039-0.225,1.48-0.516c0.107-0.071,0.223-0.175,0.205-0.302c-0.007-0.048-0.033-0.092-0.05-0.138
			c-0.091-0.254,0.151-0.454,0.327-0.593c0.188-0.149,0.394-0.275,0.564-0.446c0.043-0.043,0.084-0.091,0.109-0.146
			c0.01-0.022,0.017-0.046,0.021-0.071c0.002-0.017,0.002-0.035-0.005-0.05c-0.012-0.024-0.039-0.035-0.065-0.042
			c-0.162-0.043-0.336,0.022-0.47,0.122c-0.134,0.1-0.239,0.233-0.357,0.352c-0.077,0.077-0.159,0.149-0.246,0.215
			c-0.083,0.062-0.174,0.121-0.277,0.135c-0.071,0.01-0.145-0.002-0.212,0.024c-0.043,0.016-0.079,0.047-0.113,0.079
			C6.349,26.404,6.208,26.58,6.007,26.6c-0.149,0.015-0.299-0.063-0.446-0.033c-0.159,0.033-0.282,0.179-0.433,0.237
			c-0.058,0.022-0.134,0.045-0.175-0.003c-0.064-0.075-0.047-0.181-0.048-0.272c-0.001-0.093-0.063-0.181-0.161-0.189
			c-0.088-0.007-0.166,0.055-0.244,0.097c-0.097,0.052-0.208,0.076-0.318,0.07c-0.083-0.005-0.17-0.031-0.219-0.098
			c-0.022-0.031-0.035-0.068-0.043-0.105c-0.023-0.107-0.016-0.22,0.022-0.322c0.018-0.046,0.073-0.153,0.003-0.184
			c-0.037-0.016-0.078,0.008-0.109,0.034c-0.112,0.094-0.197,0.228-0.333,0.281c-0.095,0.037-0.211,0.031-0.296,0.095
			C3.127,26.268,3.084,26.396,3.076,26.493z"/>
		<path class="st10" d="M3.021,22.256c0.053,0.028,0.134,0.019,0.158,0.074c0.016,0.038-0.008,0.079-0.02,0.118
			c-0.033,0.111,0.048,0.235,0.158,0.27s0.234-0.006,0.321-0.082c0.069-0.061,0.12-0.143,0.201-0.188
			c0.2-0.111,0.415,0.081,0.612-0.013c0.13-0.062,0.146-0.275,0.027-0.356c-0.038-0.026-0.083-0.038-0.122-0.063
			c-0.038-0.025-0.07-0.071-0.057-0.115c0.014-0.048,0.07-0.066,0.118-0.078c0.132-0.032,0.293-0.057,0.388,0.041
			c0.123,0.127,0.039,0.359,0.147,0.498c0.086,0.112,0.255,0.111,0.39,0.07s0.264-0.113,0.405-0.111
			c0.084,0.002,0.181,0.026,0.243-0.03c0.08-0.072,0.029-0.205-0.039-0.289c-0.062-0.076-0.134-0.144-0.213-0.202
			c-0.073-0.053-0.162-0.116-0.156-0.206c0.007-0.111,0.156-0.154,0.265-0.127c0.109,0.027,0.211,0.093,0.323,0.084
			c0.076-0.006,0.144-0.046,0.219-0.059c0.075-0.013,0.17,0.019,0.181,0.094c0.009,0.06-0.039,0.111-0.066,0.165
			c-0.057,0.111-0.021,0.259,0.074,0.341c0.095,0.083,0.237,0.1,0.354,0.055c0.059-0.022,0.112-0.059,0.172-0.078
			c0.102-0.031,0.22-0.003,0.297,0.071c0.058,0.056,0.103,0.142,0.184,0.15c0.094,0.009,0.182-0.11,0.15-0.196
			c-0.016-0.044-0.041-0.087-0.069-0.128c-0.041-0.059-0.09-0.116-0.134-0.165c-0.159-0.177-0.356-0.317-0.563-0.432
			c-1.01-0.558-2.298-0.525-3.325,0c-0.284,0.146-0.569,0.348-0.671,0.651C2.945,22.103,2.943,22.216,3.021,22.256z"/>
	</g>
	<path class="st9" d="M3.272,24.156c-0.015-0.014-0.036-0.022-0.057-0.027c-0.053-0.012-0.114-0.004-0.153,0.034
		C3.037,24.188,3.023,24.222,3,24.249s-0.062,0.047-0.093,0.03c-0.011-0.006-0.02-0.017-0.029-0.027
		c-0.066-0.072-0.191-0.121-0.279-0.06c-0.037,0.026-0.063,0.069-0.067,0.114c-0.005,0.055,0.018,0.119,0.047,0.165
		c0.035,0.057,0.097,0.093,0.159,0.119s0.127,0.047,0.183,0.084c0.053,0.035,0.096,0.086,0.114,0.147
		c0.018,0.057,0.012,0.118,0.016,0.178c0.005,0.061,0.02,0.123,0.053,0.175c0.054,0.087,0.157,0.141,0.259,0.138
		c0.075-0.002,0.152-0.038,0.186-0.105c0.023-0.045,0.025-0.1,0.059-0.137c0.024-0.027,0.06-0.038,0.092-0.054
		c0.046-0.023,0.086-0.06,0.106-0.107c0.02-0.047,0.017-0.105-0.013-0.146c-0.031-0.042-0.085-0.061-0.137-0.069
		c-0.052-0.007-0.105-0.006-0.156-0.019c-0.13-0.033-0.226-0.17-0.212-0.304c0.004-0.037,0.015-0.073,0.017-0.11
		c0.001-0.011,0-0.023-0.001-0.034C3.301,24.201,3.291,24.176,3.272,24.156z"/>
	<circle class="st11" cx="5.864" cy="23.602" r="2.476"/>
</g>
<g class="st12">
	<path class="st13" d="M28.53,31.134l-0.026-0.092c0.313-0.089,0.623-0.183,0.928-0.277l0.028,0.092
		c-0.201,0.061-0.404,0.124-0.61,0.183C28.744,31.073,28.637,31.104,28.53,31.134z M26.653,31.625l-0.023-0.093
		c0.315-0.075,0.63-0.154,0.939-0.235l0.024,0.092C27.284,31.471,26.968,31.55,26.653,31.625z M30.354,30.468
		c0.295-0.099,0.603-0.208,0.914-0.32l0.032,0.09c-0.311,0.113-0.62,0.221-0.916,0.32L30.354,30.468z M24.754,32.034l-0.018-0.095
		c0.314-0.061,0.633-0.126,0.95-0.194l0.02,0.094C25.39,31.907,25.069,31.972,24.754,32.034z M32.173,29.804
		c0.303-0.12,0.605-0.244,0.896-0.368l0.038,0.088c-0.292,0.125-0.594,0.248-0.898,0.369L32.173,29.804z M22.841,32.36l-0.014-0.095
		c0.327-0.048,0.649-0.1,0.957-0.153l0.016,0.096C23.492,32.259,23.168,32.311,22.841,32.36z M33.951,29.038
		c0.289-0.134,0.581-0.278,0.87-0.424l0.044,0.085c-0.289,0.148-0.584,0.291-0.873,0.427L33.951,29.038z M20.915,32.601l-0.01-0.095
		c0.337-0.034,0.651-0.069,0.963-0.108l0.013,0.096C21.567,32.532,21.252,32.568,20.915,32.601z M35.676,28.158
		c0.295-0.164,0.575-0.33,0.833-0.491l0.051,0.081c-0.26,0.163-0.542,0.329-0.837,0.494L35.676,28.158z M18.977,32.744l-0.005-0.097
		c0.328-0.015,0.653-0.034,0.968-0.059l0.007,0.096C19.632,32.709,19.306,32.729,18.977,32.744z M37.315,27.135
		c0.269-0.188,0.529-0.384,0.774-0.58l0.06,0.074c-0.246,0.198-0.508,0.395-0.778,0.584L37.315,27.135z M17.035,32.78l0.001-0.097
		c0.313,0.004,0.638,0.002,0.969-0.002l0.001,0.096C17.676,32.783,17.349,32.784,17.035,32.78z M15.095,32.687l0.009-0.097
		c0.312,0.027,0.637,0.049,0.966,0.066l-0.006,0.095C15.736,32.736,15.41,32.713,15.095,32.687z M38.813,25.918
		c0.243-0.234,0.462-0.473,0.653-0.707l0.074,0.061c-0.193,0.238-0.416,0.479-0.661,0.715L38.813,25.918z M13.17,32.426l0.017-0.095
		c0.298,0.057,0.619,0.108,0.955,0.154L14.13,32.58C13.791,32.534,13.469,32.483,13.17,32.426z M40.004,24.417
		c0.163-0.301,0.277-0.6,0.339-0.887l0.094,0.019c-0.064,0.297-0.181,0.605-0.348,0.913L40.004,24.417z M40.355,22.59l-0.006-0.029
		c-0.011-0.051-0.024-0.102-0.039-0.152c-0.069-0.236-0.181-0.464-0.332-0.68l0.079-0.055c0.157,0.224,0.273,0.461,0.345,0.708
		c0.015,0.052,0.029,0.105,0.041,0.158c0.003,0.01,0.005,0.021,0.007,0.032L40.355,22.59z M8.513,29.601
		c-0.015-0.052-0.029-0.105-0.041-0.16L8.46,29.382l0.095-0.018l0.011,0.058c0.011,0.051,0.024,0.102,0.039,0.152
		c0.072,0.244,0.189,0.481,0.349,0.703l-0.077,0.056C8.711,30.102,8.589,29.857,8.513,29.601z M38.505,20.54l0.044-0.085
		c0.311,0.159,0.589,0.335,0.826,0.519l-0.059,0.076C39.084,20.868,38.811,20.696,38.505,20.54z M36.701,19.872l0.024-0.094
		c0.326,0.088,0.639,0.185,0.93,0.29l-0.033,0.091C37.334,20.054,37.024,19.958,36.701,19.872z M8.486,28.403
		c0.066-0.296,0.187-0.601,0.357-0.91l0.084,0.047c-0.166,0.301-0.283,0.598-0.347,0.885L8.486,28.403z M34.804,19.503l0.013-0.096
		c0.329,0.044,0.652,0.097,0.96,0.156l-0.019,0.095C35.451,19.599,35.131,19.547,34.804,19.503z M9.395,26.689
		c0.193-0.238,0.416-0.478,0.663-0.714l0.067,0.07c-0.244,0.234-0.465,0.471-0.656,0.705L9.395,26.689z M32.878,19.33l0.004-0.096
		c0.319,0.016,0.645,0.037,0.97,0.066l-0.009,0.095C33.519,19.368,33.195,19.346,32.878,19.33z M30.941,19.303l-0.002-0.096
		c0.347-0.005,0.665-0.007,0.972-0.002l-0.001,0.097C31.603,19.296,31.286,19.297,30.941,19.303z M10.79,25.335
		c0.242-0.194,0.504-0.389,0.78-0.582l0.055,0.079c-0.274,0.191-0.534,0.386-0.773,0.578L10.79,25.335z M29.006,19.393l-0.007-0.096
		c0.322-0.024,0.649-0.044,0.969-0.059l0.005,0.097C29.653,19.349,29.328,19.369,29.006,19.393z M12.383,24.218
		c0.265-0.164,0.547-0.33,0.838-0.493l0.046,0.084c-0.288,0.162-0.569,0.326-0.832,0.49L12.383,24.218z M27.079,19.584l-0.012-0.095
		c0.317-0.039,0.641-0.076,0.965-0.108l0.01,0.096C27.719,19.508,27.395,19.544,27.079,19.584z M14.078,23.269
		c0.278-0.142,0.572-0.285,0.872-0.424l0.042,0.087c-0.299,0.139-0.592,0.281-0.869,0.423L14.078,23.269z M15.839,22.449
		c0.296-0.127,0.599-0.251,0.898-0.369l0.036,0.089c-0.3,0.118-0.601,0.242-0.897,0.368L15.839,22.449z M17.645,21.736
		c0.3-0.11,0.608-0.217,0.917-0.321l0.03,0.091c-0.308,0.103-0.616,0.211-0.915,0.32L17.645,21.736z M19.484,21.118
		c0.307-0.095,0.616-0.187,0.93-0.276l0.027,0.091c-0.314,0.089-0.622,0.181-0.929,0.276L19.484,21.118z"/>
</g>
<g class="st14">
	<path class="st13" d="M29.889,33.029l-0.065-0.231c0.177-0.05,0.352-0.101,0.527-0.152l0.391-0.117l0.069,0.23l-0.393,0.117
		C30.243,32.928,30.066,32.979,29.889,33.029z M31.656,32.247c0.306-0.098,0.609-0.197,0.909-0.3l0.078,0.227
		c-0.3,0.102-0.604,0.203-0.913,0.301L31.656,32.247z M28.033,33.523l-0.059-0.233c0.312-0.078,0.621-0.157,0.928-0.238l0.062,0.232
		C28.655,33.365,28.345,33.445,28.033,33.523z M33.468,31.63c0.303-0.109,0.602-0.22,0.897-0.332l0.086,0.225
		c-0.297,0.113-0.597,0.224-0.901,0.334L33.468,31.63z M26.173,33.952l-0.037-0.114l-0.009-0.122
		c0.308-0.066,0.614-0.134,0.917-0.204l0.054,0.235C26.793,33.818,26.486,33.887,26.173,33.952z M26.135,33.84l0.034,0.115
		L26.135,33.84z M24.277,34.33l-0.044-0.236c0.313-0.057,0.626-0.117,0.942-0.179l0.045,0.235
		C24.905,34.213,24.59,34.273,24.277,34.33z M35.254,30.947c0.299-0.121,0.593-0.244,0.882-0.369l0.096,0.22
		c-0.29,0.125-0.587,0.25-0.887,0.371L35.254,30.947z M22.382,34.647l-0.037-0.237c0.314-0.047,0.63-0.097,0.946-0.15l0.04,0.237
		C23.013,34.551,22.696,34.601,22.382,34.647z M37.01,30.191c0.294-0.135,0.583-0.272,0.864-0.409l0.105,0.216
		c-0.284,0.138-0.573,0.276-0.869,0.411L37.01,30.191z M20.476,34.9l-0.027-0.239c0.314-0.036,0.631-0.075,0.95-0.117l0.031,0.237
		C21.111,34.824,20.793,34.864,20.476,34.9z M38.728,29.352c0.288-0.149,0.568-0.3,0.841-0.453l0.117,0.21
		c-0.276,0.153-0.557,0.305-0.847,0.457L38.728,29.352z M18.563,35.085l-0.019-0.239c0.315-0.024,0.632-0.053,0.952-0.084
		l0.024,0.239C19.199,35.033,18.879,35.06,18.563,35.085z M40.396,28.419c0.279-0.167,0.549-0.336,0.808-0.506l0.132,0.2
		c-0.263,0.173-0.535,0.342-0.816,0.512L40.396,28.419z M16.644,35.199l-0.01-0.24c0.315-0.013,0.633-0.029,0.956-0.048l0.014,0.241
		C17.281,35.172,16.962,35.186,16.644,35.199z M41.992,27.374c0.266-0.19,0.522-0.383,0.761-0.574l0.15,0.189
		c-0.242,0.193-0.501,0.388-0.771,0.581L41.992,27.374z M14.722,35.234l0.001-0.241c0.315,0.001,0.633,0,0.957-0.005l0.003,0.239
		C15.357,35.232,15.038,35.235,14.722,35.234z M12.798,35.174l0.013-0.24c0.313,0.018,0.631,0.032,0.955,0.042l-0.008,0.241
		C13.434,35.206,13.113,35.193,12.798,35.174z M43.479,26.189c0.244-0.218,0.473-0.44,0.684-0.659l0.173,0.166
		c-0.214,0.223-0.449,0.45-0.696,0.672L43.479,26.189z M10.88,35.012l0.028-0.239c0.31,0.037,0.626,0.069,0.95,0.097l-0.02,0.238
		C11.513,35.081,11.194,35.048,10.88,35.012z M44.787,24.817c0.202-0.257,0.383-0.517,0.536-0.774l0.206,0.124
		c-0.159,0.266-0.345,0.536-0.554,0.799L44.787,24.817z M8.977,34.711l0.047-0.235c0.315,0.062,0.631,0.118,0.939,0.165
		l-0.036,0.237C9.614,34.831,9.296,34.775,8.977,34.711z M7.107,34.235l0.073-0.229c0.293,0.093,0.601,0.182,0.914,0.261L8.036,34.5
		C7.716,34.419,7.404,34.33,7.107,34.235z M45.732,23.204c0.113-0.303,0.186-0.605,0.219-0.897l0.239,0.026
		c-0.033,0.312-0.111,0.634-0.232,0.956L45.732,23.204z M5.314,33.505l0.112-0.213c0.263,0.137,0.552,0.27,0.86,0.395L6.195,33.91
		C5.882,33.782,5.584,33.646,5.314,33.505z M45.904,21.363c-0.015-0.068-0.031-0.136-0.051-0.202
		c-0.063-0.214-0.152-0.423-0.264-0.621l0.209-0.118c0.122,0.214,0.217,0.439,0.285,0.672c0.021,0.072,0.04,0.144,0.055,0.215
		l0.008,0.037L45.904,21.363z M3.735,32.373l0.172-0.168c0.205,0.21,0.447,0.412,0.714,0.601l-0.138,0.197
		C4.202,32.805,3.951,32.593,3.735,32.373z M44.321,19.196l0.14-0.195c0.281,0.199,0.53,0.413,0.745,0.634l-0.173,0.166
		C44.83,19.591,44.591,19.388,44.321,19.196z M2.835,30.891c-0.021-0.072-0.041-0.145-0.057-0.22l-0.013-0.065l0.236-0.048
		l0.012,0.064c0.014,0.068,0.031,0.136,0.051,0.202c0.065,0.222,0.16,0.441,0.28,0.649l-0.208,0.121
		C3.007,31.368,2.905,31.132,2.835,30.891z M42.661,18.31l0.09-0.222c0.314,0.128,0.61,0.265,0.88,0.407l-0.112,0.213
		C43.256,18.568,42.968,18.435,42.661,18.31z M2.731,29.617c0.036-0.309,0.117-0.63,0.24-0.953l0.225,0.086
		c-0.116,0.305-0.192,0.606-0.226,0.896L2.731,29.617z M40.854,17.725l0.059-0.232c0.323,0.083,0.635,0.172,0.929,0.265
		l-0.073,0.229C41.481,17.894,41.172,17.806,40.854,17.725z M38.985,17.345l0.038-0.237c0.325,0.052,0.641,0.108,0.948,0.17
		l-0.047,0.236C39.62,17.454,39.306,17.397,38.985,17.345z M37.092,17.118l0.021-0.239c0.325,0.028,0.645,0.061,0.957,0.098
		l-0.029,0.239C37.731,17.179,37.414,17.146,37.092,17.118z M35.183,17.009l0.008-0.241c0.324,0.009,0.645,0.023,0.96,0.042
		l-0.014,0.24C35.825,17.032,35.506,17.018,35.183,17.009z M33.27,16.996l-0.004-0.24c0.325-0.005,0.645-0.006,0.961-0.005
		l-0.001,0.24C33.912,16.989,33.594,16.991,33.27,16.996z M31.359,17.07l-0.014-0.241c0.324-0.019,0.645-0.035,0.961-0.046
		l0.009,0.24C31.999,17.035,31.681,17.05,31.359,17.07z M29.451,17.218l-0.023-0.238c0.323-0.032,0.642-0.06,0.958-0.085l0.018,0.24
		C30.09,17.159,29.772,17.187,29.451,17.218z M9.259,22.859c0.276-0.153,0.558-0.305,0.847-0.456l0.112,0.213
		c-0.288,0.15-0.567,0.3-0.842,0.454L9.259,22.859z M27.551,17.436l-0.032-0.238c0.32-0.044,0.638-0.083,0.954-0.119l0.027,0.239
		C28.186,17.354,27.869,17.393,27.551,17.436z M10.968,21.973c0.284-0.139,0.573-0.276,0.87-0.411l0.099,0.218
		c-0.294,0.134-0.582,0.27-0.865,0.408L10.968,21.973z M25.658,17.718l-0.039-0.237c0.318-0.053,0.634-0.103,0.949-0.15l0.036,0.238
		C26.29,17.615,25.976,17.665,25.658,17.718z M12.717,21.17c0.291-0.124,0.586-0.248,0.886-0.37l0.091,0.223
		c-0.299,0.121-0.593,0.244-0.883,0.369L12.717,21.17z M23.776,18.062l-0.047-0.236c0.316-0.062,0.63-0.123,0.944-0.18l0.043,0.237
		C24.403,17.94,24.09,17.999,23.776,18.062z M22.79,18.265c-0.297,0.065-0.592,0.131-0.886,0.199l-0.053-0.235
		c0.294-0.067,0.59-0.133,0.887-0.198l0.052-0.011l0.048,0.235L22.79,18.265z M14.497,20.45c0.298-0.113,0.598-0.224,0.902-0.334
		l0.082,0.227c-0.304,0.108-0.603,0.22-0.899,0.332L14.497,20.45z M20.049,18.923l-0.062-0.232c0.308-0.082,0.618-0.161,0.93-0.239
		l0.059,0.233C20.663,18.763,20.355,18.842,20.049,18.923z M16.306,19.8c0.301-0.103,0.604-0.203,0.913-0.301l0.073,0.229
		c-0.306,0.097-0.609,0.197-0.909,0.299L16.306,19.8z M18.568,19.337l-0.36,0.107l-0.069-0.23l0.362-0.108
		c0.186-0.055,0.372-0.108,0.559-0.161l0.065,0.231C18.938,19.229,18.753,19.282,18.568,19.337z"/>
</g>
<g>
	<circle class="st15" cx="11.079" cy="31.461" r="1.807"/>
	<circle class="st16" cx="11.379" cy="31.09" r="1.315"/>
	<circle class="st11" cx="11.607" cy="30.82" r="0.895"/>
</g>
</svg>
