<?xml version="1.0" encoding="utf-8"?>
<!-- Generator: Adobe Illustrator 25.4.1, SVG Export Plug-In . SVG Version: 6.00 Build 0)  -->
<svg version="1.1" id="Layer_1" xmlns="http://www.w3.org/2000/svg" xmlns:xlink="http://www.w3.org/1999/xlink" x="0px" y="0px"
	 viewBox="0 0 50 50" style="enable-background:new 0 0 50 50;" xml:space="preserve">
<style type="text/css">
	.st0{fill:#666666;}
	.st1{fill:#B4B4B4;}
	.st2{opacity:0.16;fill:#BFB8B6;enable-background:new    ;}
	.st3{fill:url(#SVGID_1_);}
	.st4{fill:#FFE538;}
	.st5{fill:#FF7B00;}
	.st6{opacity:0.6;fill:#FFFFB4;enable-background:new    ;}
	.st7{fill:#4FAEFF;}
	.st8{fill:#00D03F;}
	.st9{fill:#00FF07;}
	.st10{fill:#F2F2F2;}
	.st11{opacity:0.28;fill:#FFFFFF;}
	.st12{opacity:0.38;}
	.st13{fill:#676767;}
	.st14{opacity:0.6;}
	.st15{fill:#F70F00;}
	.st16{fill:#FA655B;}
</style>
<g>
	<circle class="st0" cx="30.538" cy="23.096" r="1.364"/>
	<g>
		<path class="st1" d="M29.419,22.963c0.034-0.001,0.072-0.016,0.108-0.03c0.032-0.013,0.066-0.019,0.101-0.018
			c0.016,0,0.033,0.002,0.048-0.005c0.011-0.006,0.019-0.016,0.026-0.026c0.042-0.064,0.055-0.154,0.007-0.214
			c-0.009-0.012-0.02-0.022-0.028-0.035c-0.025-0.045,0.008-0.103,0.051-0.13c0.025-0.015,0.055-0.025,0.083-0.019
			s0.054,0.03,0.055,0.059c0.001,0.022-0.011,0.048,0.003,0.065c0.007,0.009,0.019,0.012,0.03,0.015
			c0.036,0.009,0.079,0.012,0.103-0.016c0.01-0.012,0.015-0.026,0.022-0.04c0.024-0.045,0.077-0.072,0.128-0.065
			c0.017,0.003,0.036,0.009,0.052,0.002c0.015-0.007,0.024-0.023,0.031-0.039c0.018-0.039,0.034-0.087,0.011-0.123
			c-0.028-0.045-0.092-0.042-0.143-0.057c-0.012-0.004-0.025-0.009-0.032-0.02c-0.008-0.013-0.005-0.03-0.005-0.045
			c0-0.07-0.079-0.128-0.146-0.107c-0.032,0.01-0.057,0.033-0.086,0.05c-0.026,0.016-0.056,0.027-0.086,0.031
			c-0.084,0.013-0.048-0.089-0.105-0.086c-0.022,0.001-0.04,0.019-0.053,0.036c-0.056,0.075-0.074,0.171-0.125,0.25
			c-0.051,0.078-0.132,0.137-0.165,0.223c-0.037,0.096,0.005,0.183,0.031,0.275C29.349,22.948,29.381,22.965,29.419,22.963z"/>
		<path class="st1" d="M30.572,22.641c0.051,0.03,0.121,0.009,0.17,0.041c0.025,0.017,0.041,0.045,0.054,0.072
			s0.027,0.056,0.05,0.075c0.023,0.019,0.06,0.026,0.084,0.007c0.015-0.012,0.012-0.025,0.02-0.04
			c0.007-0.014,0.029-0.041,0.045-0.044c0.02-0.004,0.045,0.017,0.067,0.015c0.022-0.001,0.042-0.017,0.053-0.037
			c0.011-0.019,0.015-0.042,0.019-0.064c0.003-0.017,0.006-0.036-0.001-0.052c-0.006-0.015-0.019-0.026-0.031-0.036
			c-0.025-0.021-0.051-0.044-0.058-0.075c-0.006-0.025,0.001-0.053-0.008-0.077c-0.014-0.035-0.057-0.049-0.095-0.049
			s-0.077,0.007-0.113-0.004c-0.026-0.008-0.047-0.025-0.071-0.038c-0.024-0.013-0.053-0.02-0.077-0.009
			c-0.031,0.015-0.041,0.056-0.039,0.09c0.001,0.014,0.002,0.028-0.002,0.041c-0.004,0.012-0.013,0.021-0.021,0.03
			c-0.016,0.017-0.032,0.035-0.048,0.052c-0.015,0.016-0.031,0.036-0.029,0.058C30.542,22.616,30.556,22.632,30.572,22.641z"/>
		<path class="st1" d="M31.813,22.923c-0.012-0.034-0.026-0.068-0.034-0.104c-0.006-0.025-0.008-0.051-0.016-0.075
			c-0.029-0.089-0.126-0.145-0.22-0.143c-0.03,0.001-0.063,0.008-0.079,0.033c-0.025,0.038,0.007,0.089,0.045,0.115
			c0.038,0.025,0.085,0.041,0.111,0.078c0.056,0.081-0.024,0.197,0.015,0.287c0.022,0.051,0.08,0.086,0.084,0.142
			c0.003,0.052-0.042,0.092-0.085,0.122c-0.058,0.041-0.119,0.078-0.182,0.112c-0.1,0.054-0.222,0.099-0.325,0.05
			c-0.024-0.011-0.047-0.028-0.073-0.033c-0.026-0.005-0.059,0.006-0.065,0.032c-0.003,0.014,0.001,0.028,0,0.042
			c-0.003,0.043-0.054,0.062-0.097,0.07c-0.065,0.012-0.135,0.018-0.196-0.009c-0.06-0.027-0.105-0.099-0.082-0.161
			c0.014-0.036,0.046-0.061,0.063-0.095c0.028-0.057,0.002-0.134-0.054-0.162c-0.046-0.023-0.11-0.019-0.138-0.062
			c-0.011-0.017-0.014-0.038-0.021-0.057c-0.015-0.045-0.052-0.08-0.095-0.097c-0.03-0.012-0.097-0.032-0.118,0.003
			c-0.008,0.013-0.008,0.03-0.005,0.045s0.009,0.03,0.011,0.045c0.008,0.044-0.005,0.103-0.038,0.134
			c-0.041,0.038-0.114,0.048-0.127,0.103c-0.01,0.043,0.024,0.1-0.011,0.128c-0.011,0.008-0.025,0.011-0.039,0.011
			c-0.09,0.006-0.189-0.042-0.212-0.129c-0.011-0.041-0.004-0.086-0.021-0.124c-0.026-0.06-0.1-0.085-0.135-0.14
			c-0.012-0.019-0.019-0.042-0.034-0.059c-0.034-0.039-0.106-0.03-0.129,0.015c-0.011,0.022-0.012,0.047-0.018,0.071
			c-0.017,0.068-0.089,0.123-0.159,0.121c-0.026-0.001-0.049-0.026-0.074-0.022c-0.061,0.011-0.022,0.101,0.001,0.129
			c0.005,0.006,0.01,0.011,0.017,0.015c0.009,0.004,0.019,0.005,0.028,0.007c0.018,0.003,0.037,0.011,0.048,0.025
			s0.013,0.032,0.022,0.047c0.011,0.02,0.032,0.033,0.054,0.036c0.035,0.004,0.069-0.019,0.105-0.017
			c0.045,0.003,0.102,0.05,0.093,0.099c-0.004,0.024-0.022,0.044-0.03,0.067c-0.015,0.042,0.007,0.091,0.042,0.119
			s0.08,0.039,0.125,0.045c-0.007,0.038,0.024,0.081,0.063,0.079c0.039-0.003,0.062-0.06,0.032-0.085
			c-0.017-0.014-0.041-0.014-0.062-0.021c-0.021-0.008-0.039-0.035-0.023-0.051c0.005-0.005,0.011-0.007,0.017-0.009
			c0.081-0.029,0.168-0.057,0.251-0.034c0.083,0.023,0.149,0.123,0.105,0.197c-0.029,0.049-0.092,0.066-0.149,0.067
			c-0.057,0.001-0.114-0.011-0.171-0.001c-0.011,0.002-0.023,0.005-0.032,0.013c-0.027,0.023-0.009,0.072,0.024,0.086
			c0.033,0.013,0.071,0.002,0.103-0.012c0.033-0.014,0.067-0.03,0.102-0.027c0.048,0.005,0.079,0.055,0.056,0.098
			c-0.008,0.015-0.019,0.03-0.02,0.048c0,0.004,0,0.008,0.003,0.011c0.002,0.002,0.006,0.003,0.01,0.004
			c0.033,0.004,0.066-0.007,0.093-0.026c0.027-0.018,0.049-0.044,0.067-0.071c0.015-0.022,0.028-0.045,0.033-0.071
			c0.005-0.026,0-0.055-0.018-0.074c-0.008-0.009-0.019-0.015-0.026-0.025c-0.014-0.018-0.004-0.037,0.009-0.052
			c0.023-0.024,0.06-0.026,0.092-0.018s0.061,0.025,0.093,0.033c0.048,0.013,0.107,0.01,0.135,0.051
			c0.029,0.043,0.002,0.107,0.032,0.149c0.014,0.019,0.038,0.031,0.047,0.052c0.013,0.032-0.016,0.069-0.049,0.079
			c-0.034,0.01-0.069,0.001-0.104-0.004s-0.073-0.005-0.1,0.017c0.022,0.048,0.079,0.071,0.132,0.068
			c0.052-0.003,0.101-0.027,0.147-0.053c0.04-0.023,0.085-0.059,0.075-0.104c-0.007-0.031-0.032-0.052-0.053-0.074
			c-0.013-0.013-0.054-0.052-0.025-0.069c0.011-0.006,0.025-0.004,0.037-0.001c0.019,0.005,0.037,0.014,0.053,0.025
			c0.026,0.017,0.047,0.041,0.072,0.06c0.035,0.026,0.078,0.044,0.122,0.043c0.044-0.001,0.088-0.023,0.11-0.061
			c0.007-0.013,0.012-0.027,0.012-0.042c-0.001-0.015-0.008-0.029-0.021-0.037c-0.016-0.01-0.03-0.001-0.045,0.005
			c-0.016,0.007-0.03,0.016-0.045,0.023c-0.02,0.009-0.042,0.016-0.064,0.015c-0.042-0.001-0.08-0.026-0.107-0.057
			c-0.009-0.011-0.018-0.023-0.03-0.031c-0.021-0.014-0.048-0.013-0.072-0.012c-0.007,0-0.015,0-0.021-0.004
			c-0.012-0.009,0-0.036,0.006-0.046c0.011-0.018,0.03-0.033,0.049-0.042c0.097-0.044,0.211-0.048,0.311-0.01
			c0.011,0.004,0.023,0.009,0.031,0.019c0.01,0.011,0.012,0.027,0.018,0.04c0.022,0.054,0.091,0.079,0.146,0.062
			s0.096-0.069,0.111-0.125c0.005-0.017,0.008-0.036,0.016-0.052c0.027-0.052,0.096-0.061,0.153-0.076
			c0.143-0.037,0.261-0.153,0.315-0.29C31.865,23.221,31.861,23.063,31.813,22.923z"/>
	</g>
	<circle class="st2" cx="30.206" cy="22.624" r="0.675"/>
</g>
<radialGradient id="SVGID_1_" cx="24.5874" cy="33.0121" r="15.8951" gradientTransform="matrix(1.5353 0 0 -0.569 -12.749 58.9349)" gradientUnits="userSpaceOnUse">
	<stop  offset="0.2598" style="stop-color:#B4BCC1"/>
	<stop  offset="0.4308" style="stop-color:#BCC3C8;stop-opacity:0.7486"/>
	<stop  offset="0.6967" style="stop-color:#D2D7DA;stop-opacity:0.3577"/>
	<stop  offset="0.94" style="stop-color:#ECEEEF;stop-opacity:0"/>
</radialGradient>
<ellipse class="st3" cx="25" cy="40.151" rx="24.402" ry="9.045"/>
<g>
	<circle class="st4" cx="24.174" cy="26.234" r="6.531"/>
	<path class="st5" d="M18.664,24.338c0.008,0.221,0.089,0.455-0.006,0.655c-0.107,0.223-0.401,0.319-0.48,0.552
		c-0.098,0.289,0.191,0.578,0.176,0.883c-0.01,0.192-0.132,0.412-0.004,0.556c0.107,0.12,0.328,0.093,0.414,0.229
		c0.028,0.044,0.035,0.098,0.057,0.145c0.098,0.212,0.461,0.273,0.443,0.506c-0.012,0.153-0.187,0.225-0.328,0.285
		c-0.141,0.06-0.295,0.204-0.224,0.34c0.051,0.099,0.193,0.118,0.256,0.21c0.1,0.149-0.053,0.401,0.09,0.509
		c0.103,0.078,0.247-0.012,0.334-0.106c0.087-0.095,0.195-0.209,0.32-0.179c0.136,0.033,0.173,0.208,0.168,0.348
		c-0.005,0.14-0.013,0.306,0.099,0.39c0.077,0.058,0.189,0.054,0.264,0.115c0.12,0.098,0.078,0.288,0.122,0.436
		c0.049,0.167,0.215,0.278,0.385,0.315c0.17,0.038,0.346,0.015,0.519-0.002c0.046-0.005,0.096-0.008,0.137,0.013
		c0.043,0.022,0.069,0.066,0.096,0.106c0.209,0.315,0.588,0.51,0.966,0.496c0.046-0.002,0.096-0.008,0.127-0.042
		c0.033-0.035,0.034-0.088,0.037-0.136c0.014-0.21,0.114-0.423,0.294-0.533c0.18-0.109,0.443-0.086,0.573,0.08
		c0.058,0.074,0.089,0.171,0.165,0.227c0.044,0.033,0.099,0.047,0.153,0.061c0.703,0.178,1.444,0.28,2.152,0.12
		c0.158-0.036,0.319-0.087,0.44-0.196s0.191-0.287,0.132-0.438c-0.099-0.253-0.446-0.269-0.674-0.416
		c-0.36-0.232-0.359-0.803-0.087-1.134c0.079-0.096,0.176-0.179,0.232-0.29c0.136-0.272-0.02-0.595-0.188-0.848
		s-0.358-0.541-0.287-0.837c0.135-0.559,1.017-0.563,1.292-1.069c0.03-0.056,0.052-0.119,0.043-0.181
		c-0.012-0.089-0.082-0.158-0.141-0.226c-0.29-0.333-0.391-0.82-0.258-1.24c0.067-0.212,0.186-0.451,0.066-0.638
		c-0.16-0.249-0.57-0.141-0.805-0.322c-0.338-0.261-0.073-0.881-0.372-1.185c-0.355-0.361-1.073,0.106-1.444-0.238
		c-0.124-0.115-0.168-0.291-0.267-0.427c-0.243-0.333-0.731-0.345-1.14-0.29c-0.403,0.054-0.845,0.171-1.058,0.517
		c-0.163,0.265-0.151,0.605-0.288,0.884c-0.195,0.397-0.658,0.598-1.099,0.633c-0.18,0.015-0.365,0.008-0.537,0.063
		s-0.334,0.193-0.35,0.373c-0.024,0.279,0.047,0.363-0.22,0.474C18.767,23.964,18.657,24.121,18.664,24.338z"/>
	<circle class="st6" cx="23.171" cy="24.961" r="4.827"/>
</g>
<g>
	<circle class="st7" cx="41.999" cy="17.839" r="3.403"/>
	<path class="st8" d="M42.591,20.08c0.024,0.026,0.054,0.045,0.089,0.052c0.09,0.018,0.156-0.076,0.221-0.141
		c0.055-0.056,0.124-0.097,0.199-0.118c0.064-0.018,0.131-0.022,0.193-0.043c0.186-0.064,0.294-0.295,0.223-0.479
		c-0.023-0.059-0.06-0.111-0.087-0.168c-0.036-0.078-0.05-0.17-0.021-0.251c0.028-0.081,0.104-0.149,0.19-0.152
		c0.105-0.004,0.19,0.08,0.287,0.119c0.185,0.073,0.421-0.054,0.462-0.248c0.014-0.065,0.009-0.134,0.021-0.2
		c0.018-0.098,0.076-0.189,0.159-0.246c0.089-0.062,0.207-0.089,0.269-0.178c0.071-0.103,0.032-0.253-0.06-0.337
		c-0.092-0.084-0.222-0.113-0.346-0.118c-0.116-0.005-0.242,0.006-0.339-0.058c-0.083-0.055-0.126-0.151-0.173-0.239
		c-0.047-0.088-0.111-0.179-0.209-0.2c-0.085-0.019-0.176,0.022-0.261,0c-0.094-0.024-0.152-0.114-0.224-0.178
		c-0.128-0.114-0.329-0.156-0.49-0.089c-0.131,0.054-0.202,0.204-0.36,0.199c-0.118-0.004-0.226-0.098-0.342-0.076
		c-0.09,0.017-0.153,0.101-0.182,0.188c-0.057,0.172-0.009,0.367,0.097,0.514s0.264,0.249,0.431,0.319
		c0.045,0.019,0.092,0.036,0.129,0.068c0.13,0.114,0.067,0.331,0.138,0.489c0.042,0.092,0.126,0.157,0.179,0.243
		c0.083,0.136,0.076,0.31,0.029,0.461c-0.032,0.102-0.081,0.2-0.144,0.286c-0.054,0.073-0.119,0.141-0.15,0.227
		C42.484,19.82,42.509,19.992,42.591,20.08z"/>
	<path class="st8" d="M39.623,15.817c-0.076,0.112-0.176,0.205-0.251,0.318c-0.123,0.185-0.169,0.421-0.124,0.639
		c0.01,0.046,0.026,0.096,0.065,0.122c0.056,0.038,0.135,0.014,0.199,0.038c0.088,0.033,0.117,0.141,0.129,0.234
		c0.013,0.093,0.03,0.2,0.111,0.247c0.072,0.042,0.166,0.019,0.241,0.054c0.106,0.051,0.136,0.2,0.243,0.248
		c0.11,0.05,0.231-0.032,0.35-0.055c0.121-0.023,0.252,0.021,0.335,0.112c0.107,0.119,0.123,0.294,0.212,0.426
		c0.047,0.07,0.131,0.13,0.21,0.101c0.104-0.038,0.104-0.191,0.048-0.286c-0.057-0.095-0.149-0.17-0.18-0.276
		c-0.016-0.054-0.013-0.112-0.025-0.167c-0.011-0.055-0.042-0.113-0.096-0.129c-0.039-0.012-0.084-0.001-0.12-0.02
		c-0.045-0.024-0.056-0.086-0.048-0.136c0.009-0.051,0.031-0.099,0.031-0.151c0-0.051-0.036-0.109-0.087-0.108
		c-0.035,0.001-0.063,0.029-0.086,0.056c-0.069,0.082-0.124,0.177-0.205,0.248s-0.198,0.114-0.296,0.071
		c-0.104-0.046-0.149-0.174-0.143-0.288c0.011-0.215,0.186-0.419,0.401-0.435c0.087-0.006,0.173,0.015,0.26,0.016
		c0.087,0.001,0.183-0.024,0.229-0.098c0.023-0.036,0.031-0.081,0.059-0.114c0.029-0.034,0.075-0.049,0.12-0.052
		c0.118-0.007,0.236,0.071,0.275,0.181c0.029,0.08,0.04,0.194,0.125,0.207c0.056,0.008,0.104-0.041,0.13-0.091
		c0.033-0.066,0.046-0.142,0.036-0.216c-0.014-0.097-0.066-0.192-0.049-0.289c0.025-0.142,0.188-0.216,0.331-0.23
		c0.02-0.002,0.043-0.004,0.056-0.02c0.013-0.015,0.013-0.037,0.015-0.056c0.01-0.093,0.082-0.17,0.166-0.209
		c0.085-0.039,0.18-0.045,0.273-0.045c0.106,0.001,0.225,0.006,0.305-0.063c0.095-0.082,0.087-0.245,0.002-0.337
		s-0.227-0.116-0.349-0.087c-0.122,0.029-0.228,0.104-0.322,0.188c-0.093,0.084-0.178,0.178-0.276,0.256
		c-0.151,0.12-0.334,0.2-0.526,0.229c-0.073,0.011-0.161,0.01-0.207-0.049c-0.065-0.082,0.002-0.2,0.071-0.28
		c0.068-0.079,0.144-0.188,0.092-0.278c-0.019-0.032-0.051-0.055-0.085-0.071c-0.097-0.048-0.229-0.051-0.3,0.031
		c-0.076,0.086-0.051,0.218-0.072,0.33c-0.033,0.173-0.203,0.312-0.379,0.301c-0.12-0.007-0.244-0.075-0.356-0.028
		c-0.083,0.035-0.155,0.131-0.24,0.103c-0.05-0.016-0.077-0.072-0.078-0.124s0.018-0.102,0.036-0.151
		c0.026-0.073,0.052-0.185-0.029-0.236c-0.051-0.032-0.076-0.021-0.104,0.024s-0.019,0.126-0.029,0.176
		C39.699,15.678,39.668,15.75,39.623,15.817z"/>
	<path class="st9" d="M39.89,15.991c0.006-0.001,0.013-0.002,0.021-0.004c0.037-0.01,0.071-0.026,0.104-0.046
		c0.063-0.037,0.125-0.081,0.202-0.079c0.017,0.001,0.034,0.003,0.049,0.009c0.053,0.022,0.07,0.088,0.119,0.113
		c0.022,0.011,0.053,0.014,0.077,0.02c0.034,0.009,0.069,0.016,0.102,0.028c0.144,0.053,0.303,0.261,0.152,0.39
		c-0.054,0.046-0.123,0.068-0.19,0.093c-0.151,0.058-0.299,0.142-0.385,0.279c-0.043,0.068-0.068,0.147-0.079,0.227
		c-0.011,0.076-0.009,0.155-0.034,0.228c-0.026,0.073-0.09,0.14-0.167,0.136c-0.041-0.002-0.073-0.023-0.098-0.055
		c-0.052-0.064-0.073-0.147-0.096-0.226s-0.049-0.161-0.107-0.22c-0.018-0.018-0.04-0.035-0.065-0.038c-0.013-0.002-0.026,0-0.04,0
		c-0.118,0.001-0.17-0.118-0.177-0.219c-0.005-0.072,0.009-0.144,0.027-0.215c0.023-0.089,0.054-0.176,0.1-0.255
		c0.046-0.079,0.109-0.15,0.187-0.197c0.025-0.015,0.053-0.028,0.082-0.033c0.045-0.008,0.093,0.002,0.131,0.029
		C39.839,15.979,39.856,15.994,39.89,15.991z"/>
	<g>
		<path class="st10" d="M44.089,19.747c-0.085-0.064-0.201-0.058-0.296-0.095c-0.136-0.053-0.221-0.187-0.333-0.281
			c-0.031-0.026-0.072-0.05-0.109-0.034c-0.07,0.031-0.015,0.138,0.003,0.184c0.038,0.102,0.045,0.215,0.022,0.322
			c-0.008,0.037-0.021,0.074-0.043,0.105c-0.049,0.067-0.136,0.093-0.219,0.098c-0.11,0.006-0.221-0.018-0.318-0.07
			c-0.078-0.042-0.156-0.104-0.244-0.097c-0.098,0.008-0.16,0.096-0.161,0.189c-0.001,0.091,0.016,0.197-0.048,0.272
			c-0.041,0.048-0.117,0.025-0.175,0.003c-0.151-0.058-0.274-0.204-0.433-0.237c-0.147-0.03-0.297,0.048-0.446,0.033
			c-0.201-0.02-0.342-0.196-0.489-0.335c-0.034-0.032-0.07-0.063-0.113-0.079c-0.067-0.026-0.141-0.014-0.212-0.024
			c-0.103-0.014-0.194-0.073-0.277-0.135c-0.087-0.066-0.169-0.138-0.246-0.215c-0.118-0.119-0.223-0.252-0.357-0.352
			c-0.134-0.1-0.308-0.165-0.47-0.122c-0.026,0.007-0.053,0.018-0.065,0.042c-0.007,0.015-0.007,0.033-0.005,0.05
			c0.004,0.025,0.011,0.049,0.021,0.071c0.025,0.055,0.066,0.103,0.109,0.146c0.17,0.171,0.376,0.297,0.564,0.446
			c0.176,0.139,0.418,0.339,0.327,0.593c-0.017,0.046-0.043,0.09-0.05,0.138c-0.018,0.127,0.098,0.231,0.205,0.302
			c0.441,0.291,0.952,0.486,1.48,0.516c0.277,0.016,0.554-0.014,0.827-0.058c0.335-0.055,0.668-0.143,0.975-0.29
			c0.213-0.103,0.489-0.259,0.625-0.48c0.05-0.08,0.081-0.169,0.084-0.267c0.001-0.018,0-0.036-0.002-0.054
			C44.212,19.935,44.169,19.807,44.089,19.747z"/>
		<path class="st10" d="M44.323,15.559c-0.102-0.303-0.387-0.505-0.671-0.651c-1.027-0.525-2.315-0.558-3.325,0
			c-0.207,0.115-0.404,0.255-0.563,0.432c-0.044,0.049-0.093,0.106-0.134,0.165c-0.028,0.041-0.053,0.084-0.069,0.128
			c-0.032,0.086,0.056,0.205,0.15,0.196c0.081-0.008,0.126-0.094,0.184-0.15c0.077-0.074,0.195-0.102,0.297-0.071
			c0.06,0.019,0.113,0.056,0.172,0.078c0.117,0.045,0.259,0.028,0.354-0.055c0.095-0.082,0.131-0.23,0.074-0.341
			c-0.027-0.054-0.075-0.105-0.066-0.165c0.011-0.075,0.106-0.107,0.181-0.094c0.075,0.013,0.143,0.053,0.219,0.059
			c0.112,0.009,0.214-0.057,0.323-0.084c0.109-0.027,0.258,0.016,0.265,0.127c0.006,0.09-0.083,0.153-0.156,0.206
			c-0.079,0.058-0.151,0.126-0.213,0.202c-0.068,0.084-0.119,0.217-0.039,0.289c0.062,0.056,0.159,0.032,0.243,0.03
			c0.141-0.002,0.27,0.07,0.405,0.111s0.304,0.042,0.39-0.07c0.108-0.139,0.024-0.371,0.147-0.498
			c0.095-0.098,0.256-0.073,0.388-0.041c0.048,0.012,0.104,0.03,0.118,0.078c0.013,0.044-0.019,0.09-0.057,0.115
			c-0.039,0.025-0.084,0.037-0.122,0.063c-0.119,0.081-0.103,0.294,0.027,0.356c0.197,0.094,0.412-0.098,0.612,0.013
			c0.081,0.045,0.132,0.127,0.201,0.188c0.087,0.076,0.211,0.117,0.321,0.082s0.191-0.159,0.158-0.27
			c-0.012-0.039-0.036-0.08-0.02-0.118c0.024-0.055,0.105-0.046,0.158-0.074C44.353,15.755,44.351,15.642,44.323,15.559z"/>
	</g>
	<path class="st9" d="M43.992,17.766c-0.001,0.011-0.002,0.023-0.001,0.034c0.002,0.037,0.013,0.073,0.017,0.11
		c0.014,0.134-0.082,0.271-0.212,0.304c-0.051,0.013-0.104,0.012-0.156,0.019c-0.052,0.008-0.106,0.027-0.137,0.069
		c-0.03,0.041-0.033,0.099-0.013,0.146c0.02,0.047,0.06,0.084,0.106,0.107c0.032,0.016,0.068,0.027,0.092,0.054
		c0.034,0.037,0.036,0.092,0.059,0.137c0.034,0.067,0.111,0.103,0.186,0.105c0.102,0.003,0.205-0.051,0.259-0.138
		c0.033-0.052,0.048-0.114,0.053-0.175c0.004-0.06-0.002-0.121,0.016-0.178c0.018-0.061,0.061-0.112,0.114-0.147
		c0.056-0.037,0.121-0.058,0.183-0.084s0.124-0.062,0.159-0.119c0.029-0.046,0.052-0.11,0.047-0.165
		c-0.004-0.045-0.03-0.088-0.067-0.114c-0.088-0.061-0.213-0.012-0.279,0.06c-0.009,0.01-0.018,0.021-0.029,0.027
		c-0.031,0.017-0.07-0.003-0.093-0.03s-0.037-0.061-0.062-0.086c-0.039-0.038-0.1-0.046-0.153-0.034
		c-0.021,0.005-0.042,0.013-0.057,0.027C44.005,17.715,43.995,17.74,43.992,17.766z"/>
	<circle class="st11" cx="41.432" cy="17.141" r="2.476"/>
</g>
<g class="st12">
	<path class="st13" d="M22.147,32.272c-0.213,0.017-0.425,0.031-0.635,0.045l-0.006-0.096c0.319-0.021,0.642-0.043,0.966-0.071
		l0.008,0.095C22.369,32.255,22.258,32.264,22.147,32.272z M23.446,32.151l-0.01-0.095c0.317-0.034,0.64-0.072,0.961-0.114
		l0.012,0.095C24.088,32.079,23.764,32.117,23.446,32.151z M20.542,32.365c-0.312,0.012-0.639,0.021-0.97,0.026l-0.002-0.096
		c0.331-0.005,0.657-0.013,0.968-0.025L20.542,32.365z M25.37,31.901l-0.015-0.095c0.32-0.049,0.642-0.102,0.957-0.156l0.017,0.095
		C26.013,31.799,25.69,31.852,25.37,31.901z M18.601,32.391c-0.328-0.005-0.654-0.013-0.971-0.026l0.004-0.096
		c0.316,0.013,0.642,0.022,0.968,0.026L18.601,32.391z M27.282,31.568l-0.019-0.095c0.307-0.06,0.626-0.126,0.949-0.197l0.021,0.094
		C27.91,31.441,27.589,31.507,27.282,31.568z M16.661,32.308c-0.319-0.024-0.645-0.053-0.968-0.089l0.011-0.095
		c0.322,0.034,0.646,0.064,0.964,0.087L16.661,32.308z M29.178,31.154l-0.022-0.094c0.306-0.074,0.612-0.153,0.939-0.241
		l0.024,0.092C29.793,31,29.485,31.079,29.178,31.154z M14.729,32.097c-0.335-0.05-0.657-0.105-0.958-0.165l0.019-0.094
		c0.298,0.059,0.619,0.114,0.953,0.163L14.729,32.097z M31.054,30.646l-0.028-0.092c0.303-0.089,0.614-0.186,0.926-0.289l0.03,0.092
		C31.669,30.459,31.357,30.557,31.054,30.646z M12.823,31.721c-0.32-0.081-0.635-0.172-0.935-0.27l0.03-0.091
		c0.298,0.096,0.611,0.187,0.929,0.267L12.823,31.721z M32.901,30.043l-0.033-0.09c0.311-0.113,0.616-0.227,0.907-0.342l0.035,0.09
		C33.518,29.816,33.212,29.931,32.901,30.043z M34.707,29.33l-0.039-0.087c0.301-0.133,0.597-0.269,0.879-0.405l0.043,0.087
		C35.305,29.061,35.009,29.198,34.707,29.33z M10.977,31.109c-0.313-0.134-0.607-0.28-0.872-0.434l0.048-0.083
		c0.262,0.151,0.552,0.296,0.862,0.429L10.977,31.109z M36.455,28.482l-0.046-0.085c0.298-0.162,0.58-0.324,0.838-0.483l0.05,0.083
		C37.038,28.156,36.755,28.319,36.455,28.482z M9.305,30.113c-0.266-0.229-0.485-0.475-0.65-0.73l0.081-0.051
		c0.16,0.246,0.373,0.485,0.632,0.709L9.305,30.113z M8.296,28.474c-0.002-0.011-0.004-0.022-0.005-0.032
		c-0.008-0.054-0.014-0.108-0.018-0.162c-0.02-0.256,0.004-0.519,0.071-0.784l0.093,0.023c-0.065,0.256-0.088,0.509-0.069,0.754
		c0.004,0.052,0.01,0.105,0.018,0.156l0.005,0.029L8.296,28.474z M40.567,24.516l-0.092-0.025c0.071-0.264,0.096-0.527,0.077-0.781
		c-0.004-0.052-0.01-0.104-0.018-0.156l-0.01-0.058l0.095-0.017l0.01,0.059c0.008,0.055,0.014,0.11,0.018,0.164
		C40.667,23.968,40.64,24.241,40.567,24.516z M8.815,26.649l-0.082-0.05c0.156-0.257,0.354-0.52,0.588-0.779l0.071,0.064
		C9.162,26.139,8.968,26.396,8.815,26.649z M10.083,25.214l-0.063-0.073c0.234-0.201,0.492-0.403,0.766-0.601l0.056,0.079
		C10.57,24.814,10.314,25.014,10.083,25.214z M40.167,22.627c-0.162-0.246-0.377-0.482-0.639-0.704l0.062-0.074
		c0.269,0.228,0.49,0.471,0.657,0.724L40.167,22.627z M11.647,24.084l-0.051-0.082c0.267-0.165,0.55-0.329,0.842-0.487l0.046,0.085
		C12.194,23.757,11.913,23.92,11.647,24.084z M38.741,21.376c-0.262-0.151-0.553-0.294-0.864-0.426l0.038-0.089
		c0.314,0.133,0.608,0.278,0.873,0.432L38.741,21.376z M13.344,23.158l-0.042-0.086c0.293-0.142,0.59-0.278,0.883-0.406l0.038,0.088
		C13.932,22.882,13.637,23.018,13.344,23.158z M15.118,22.383l-0.035-0.09c0.285-0.113,0.583-0.225,0.909-0.343l0.032,0.091
		C15.699,22.158,15.403,22.27,15.118,22.383z M36.972,20.615c-0.292-0.095-0.604-0.185-0.928-0.266l0.023-0.093
		c0.327,0.082,0.641,0.172,0.936,0.267L36.972,20.615z M16.94,21.727l-0.03-0.092c0.305-0.1,0.617-0.197,0.927-0.289l0.028,0.092
		C17.555,21.53,17.244,21.627,16.94,21.727z M35.099,20.14c-0.304-0.06-0.625-0.114-0.952-0.163l0.013-0.095
		c0.33,0.049,0.652,0.104,0.958,0.163L35.099,20.14z M18.796,21.174l-0.025-0.093c0.314-0.085,0.63-0.166,0.94-0.242l0.023,0.093
		C19.424,21.007,19.109,21.089,18.796,21.174z M33.185,19.856c-0.31-0.034-0.634-0.063-0.963-0.087l0.008-0.096
		c0.33,0.024,0.656,0.053,0.966,0.087L33.185,19.856z M31.255,19.714c-0.321-0.013-0.647-0.022-0.969-0.026l0.002-0.096
		c0.322,0.004,0.649,0.013,0.971,0.026L31.255,19.714z M29.319,19.689c-0.318,0.004-0.644,0.013-0.969,0.026l-0.004-0.096
		c0.326-0.013,0.652-0.022,0.971-0.026L29.319,19.689z M27.384,19.764c-0.32,0.02-0.641,0.044-0.966,0.072l-0.007-0.095
		c0.326-0.028,0.647-0.052,0.968-0.072L27.384,19.764z"/>
</g>
<g class="st14">
	<path class="st13" d="M21.333,34.545l-0.409,0.03l-0.017-0.24l0.407-0.03c0.182-0.014,0.364-0.029,0.547-0.045l0.021,0.239
		C21.699,34.515,21.516,34.53,21.333,34.545z M19.965,34.634c-0.323,0.018-0.643,0.032-0.96,0.043l-0.008-0.24
		c0.317-0.01,0.635-0.025,0.956-0.042L19.965,34.634z M22.838,34.408l-0.025-0.239c0.316-0.033,0.633-0.069,0.952-0.107l0.028,0.239
		C23.473,34.339,23.155,34.375,22.838,34.408z M18.044,34.703c-0.323,0.005-0.643,0.008-0.961,0.008V34.47
		c0.316,0,0.635-0.002,0.957-0.008L18.044,34.703z M24.746,34.179l-0.033-0.239c0.309-0.042,0.619-0.087,0.93-0.135l0.035,0.117
		l0.006,0.12C25.368,34.092,25.057,34.137,24.746,34.179z M25.689,34.043l-0.009-0.12L25.689,34.043z M26.645,33.889l-0.041-0.236
		c0.317-0.054,0.631-0.109,0.944-0.167l0.043,0.236C27.278,33.78,26.962,33.835,26.645,33.889z M16.122,34.698
		c-0.324-0.007-0.645-0.018-0.961-0.032l0.011-0.24c0.315,0.014,0.633,0.025,0.956,0.032L16.122,34.698z M28.535,33.542
		l-0.047-0.236c0.314-0.063,0.627-0.129,0.937-0.196l0.05,0.235C29.165,33.413,28.851,33.479,28.535,33.542z M14.201,34.615
		c-0.324-0.022-0.644-0.048-0.958-0.076l0.022-0.239c0.312,0.028,0.63,0.053,0.953,0.075L14.201,34.615z M30.411,33.133L30.356,32.9
		c0.314-0.074,0.624-0.15,0.93-0.228l0.06,0.233C31.037,32.983,30.726,33.059,30.411,33.133z M12.286,34.44
		c-0.325-0.039-0.642-0.081-0.954-0.126l0.035-0.238c0.309,0.046,0.625,0.088,0.947,0.125L12.286,34.44z M32.276,32.66l-0.063-0.232
		c0.31-0.085,0.617-0.171,0.92-0.26l0.067,0.23C32.896,32.487,32.587,32.575,32.276,32.66z M10.381,34.158
		c-0.323-0.059-0.638-0.121-0.945-0.189l0.052-0.234c0.303,0.067,0.615,0.129,0.935,0.186L10.381,34.158z M34.12,32.12l-0.072-0.23
		c0.309-0.097,0.612-0.195,0.911-0.295l0.076,0.228C34.733,31.924,34.429,32.024,34.12,32.12z M8.499,33.744
		c-0.321-0.084-0.632-0.175-0.927-0.269l0.073-0.23c0.291,0.093,0.599,0.183,0.915,0.266L8.499,33.744z M35.943,31.508l-0.082-0.225
		c0.304-0.11,0.602-0.222,0.896-0.335l0.087,0.225C36.549,31.286,36.249,31.397,35.943,31.508z M37.738,30.815l-0.093-0.223
		c0.299-0.124,0.592-0.25,0.878-0.378l0.098,0.22C38.333,30.563,38.038,30.689,37.738,30.815z M6.662,33.156
		c-0.31-0.12-0.61-0.248-0.889-0.381l0.103-0.217c0.275,0.13,0.568,0.256,0.873,0.373L6.662,33.156z M39.494,30.031l-0.103-0.216
		c0.293-0.141,0.577-0.283,0.854-0.428l0.111,0.214C40.076,29.746,39.789,29.89,39.494,30.031z M4.916,32.32
		c-0.289-0.172-0.559-0.358-0.802-0.55l0.149-0.189c0.234,0.186,0.496,0.364,0.776,0.533L4.916,32.32z M41.2,29.138l-0.118-0.209
		c0.271-0.154,0.547-0.318,0.819-0.488l0.127,0.203C41.753,28.817,41.475,28.982,41.2,29.138z M42.833,28.112l-0.138-0.196
		c0.265-0.186,0.521-0.378,0.762-0.569l0.15,0.188C43.363,27.729,43.103,27.923,42.833,28.112z M3.402,31.1
		c-0.227-0.258-0.414-0.531-0.556-0.811L3.06,30.18c0.134,0.262,0.31,0.518,0.523,0.761L3.402,31.1z M44.344,26.907l-0.164-0.176
		c0.244-0.227,0.467-0.454,0.664-0.675l0.18,0.159C44.822,26.443,44.592,26.676,44.344,26.907z M2.536,29.351L2.53,29.314
		c-0.011-0.072-0.019-0.146-0.025-0.221c-0.019-0.241-0.01-0.486,0.028-0.729L2.77,28.4c-0.034,0.225-0.043,0.452-0.026,0.674
		c0.005,0.069,0.014,0.138,0.024,0.207L2.536,29.351z M45.623,25.45l-0.199-0.135c0.183-0.271,0.337-0.546,0.454-0.815l0.22,0.096
		C45.975,24.879,45.815,25.166,45.623,25.45z M3.028,27.512l-0.221-0.094c0.122-0.283,0.279-0.571,0.471-0.857l0.2,0.133
		C3.294,26.969,3.143,27.243,3.028,27.512z M46.38,23.655l-0.237-0.039c0.038-0.237,0.049-0.475,0.031-0.706
		c-0.005-0.069-0.013-0.138-0.024-0.207l-0.011-0.064l0.238-0.039l0.011,0.065c0.012,0.076,0.019,0.151,0.025,0.226
		C46.433,23.142,46.422,23.398,46.38,23.655z M4.054,25.952l-0.18-0.159c0.202-0.229,0.43-0.462,0.678-0.693l0.163,0.176
		C4.473,25.501,4.251,25.728,4.054,25.952z M45.844,21.775c-0.134-0.259-0.312-0.513-0.529-0.757l0.18-0.16
		c0.23,0.259,0.42,0.53,0.563,0.806L45.844,21.775z M5.435,24.657l-0.15-0.188c0.241-0.192,0.501-0.386,0.774-0.578l0.138,0.196
		C5.928,24.276,5.671,24.468,5.435,24.657z M6.991,23.56l-0.128-0.204c0.265-0.167,0.541-0.332,0.826-0.496l0.12,0.208
		C7.527,23.231,7.254,23.395,6.991,23.56z M8.646,22.612l-0.112-0.213c0.279-0.146,0.566-0.29,0.86-0.432l0.104,0.216
		C9.207,22.324,8.922,22.467,8.646,22.612z M10.366,21.78l-0.098-0.219c0.288-0.129,0.583-0.256,0.883-0.38l0.093,0.222
		C10.945,21.527,10.652,21.653,10.366,21.78z M12.131,21.047l-0.086-0.224c0.295-0.114,0.595-0.226,0.9-0.337l0.082,0.226
		C12.723,20.822,12.425,20.933,12.131,21.047z M13.93,20.398l-0.077-0.228c0.3-0.102,0.605-0.201,0.915-0.298l0.072,0.23
		C14.532,20.198,14.229,20.297,13.93,20.398z M15.755,19.824l-0.068-0.231c0.305-0.089,0.613-0.176,0.926-0.261l0.063,0.231
		C16.365,19.648,16.058,19.735,15.755,19.824z M37.52,17.904c-0.311-0.046-0.626-0.087-0.948-0.125l0.029-0.239
		c0.324,0.038,0.642,0.08,0.954,0.125L37.52,17.904z M17.601,19.319l-0.06-0.233c0.308-0.079,0.619-0.155,0.934-0.228l0.055,0.234
		C18.217,19.165,17.907,19.241,17.601,19.319z M35.622,17.681c-0.313-0.028-0.63-0.053-0.953-0.074l0.015-0.239
		c0.325,0.021,0.644,0.046,0.959,0.075L35.622,17.681z M19.462,18.88l-0.051-0.235c0.311-0.068,0.624-0.134,0.94-0.197l0.048,0.235
		C20.084,18.747,19.772,18.812,19.462,18.88z M33.713,17.555c-0.315-0.014-0.634-0.024-0.956-0.031l0.006-0.241
		c0.324,0.007,0.644,0.018,0.96,0.031L33.713,17.555z M21.339,18.503l-0.044-0.237c0.313-0.058,0.629-0.113,0.946-0.167l0.04,0.237
		C21.965,18.389,21.651,18.445,21.339,18.503z M23.227,18.184l-0.039-0.237l0.053-0.008c0.3-0.045,0.6-0.088,0.899-0.13l0.034,0.238
		c-0.299,0.041-0.598,0.084-0.899,0.129L23.227,18.184z M31.803,17.513c-0.316,0-0.635,0.002-0.958,0.009l-0.004-0.241
		c0.323-0.005,0.643-0.008,0.962-0.008V17.513z M25.121,17.925l-0.028-0.239c0.319-0.038,0.637-0.074,0.954-0.107l0.024,0.239
		C25.756,17.851,25.44,17.886,25.121,17.925z M29.89,17.548c-0.317,0.011-0.635,0.025-0.956,0.043l-0.013-0.24
		c0.323-0.018,0.642-0.032,0.96-0.043L29.89,17.548z M27.024,17.726l-0.021-0.239c0.194-0.017,0.387-0.033,0.58-0.048l0.377-0.028
		l0.017,0.24l-0.375,0.028C27.41,17.693,27.218,17.709,27.024,17.726z"/>
</g>
<g>
	<circle class="st15" cx="39.454" cy="26.907" r="1.807"/>
	<circle class="st16" cx="39.154" cy="26.536" r="1.315"/>
	<circle class="st11" cx="38.926" cy="26.266" r="0.895"/>
</g>
</svg>
