<?xml version="1.0" encoding="utf-8"?>
<!-- Generator: Adobe Illustrator 25.4.1, SVG Export Plug-In . SVG Version: 6.00 Build 0)  -->
<svg version="1.1" id="Layer_1" xmlns="http://www.w3.org/2000/svg" xmlns:xlink="http://www.w3.org/1999/xlink" x="0px" y="0px"
	 viewBox="0 0 50 50" style="enable-background:new 0 0 50 50;" xml:space="preserve">
<style type="text/css">
	.st0{fill:#35BA4D;}
	.st1{fill:#149325;}
	.st2{fill:#46D159;}
	.st3{display:none;}
	.st4{display:inline;}
	.st5{fill:#344593;}
	.st6{fill:#3E54A3;}
	.st7{fill:#2E4490;}
	.st8{fill:#122571;}
	.st9{opacity:0.5;fill:#031F60;enable-background:new    ;}
	.st10{fill:#BBDFFF;}
	.st11{fill:#FDB724;}
	.st12{fill:#E7478D;}
	.st13{fill:#BF2878;}
	.st14{fill:#27DEBF;}
	.st15{fill:#1BBC9D;}
	.st16{fill:#A33D64;}
	.st17{fill:#82294D;}
	.st18{fill:#0A4A80;}
	.st19{fill:#F1FCFF;}
	.st20{fill:#D6E6FF;}
	.st21{fill:#CEF3FF;}
	.st22{fill:#606060;}
	.st23{enable-background:new    ;}
	.st24{fill:#F19729;}
	.st25{fill:#FCB040;}
	.st26{fill:#FFCB49;}
	.st27{fill:#2E5677;}
	.st28{fill:#FF51CE;}
	.st29{fill:#EDE6A0;}
	.st30{fill:#FFF7B0;}
	.st31{fill:url(#SVGID_1_);}
	.st32{fill:url(#Shadow_00000078737277847007105320000001954371932275753116_);}
	.st33{fill:#333333;}
	.st34{fill:#212121;}
	.st35{fill:#00233A;}
	.st36{fill:#003366;}
	.st37{fill:#EF683F;}
	.st38{fill:#FF8650;}
	.st39{fill:#DAB494;}
	.st40{fill:#C1A085;}
	.st41{fill:#DD4C1F;}
	.st42{fill:#0F0F0F;}
	.st43{fill:#303033;}
	.st44{fill:#535359;}
	.st45{fill:#45454A;}
	.st46{opacity:0.3;fill:#121214;enable-background:new    ;}
	.st47{fill:#BA6000;}
	.st48{fill:#FF8400;}
	.st49{fill:#121214;}
</style>
<g id="Bush">
	<g>
		<polygon class="st0" points="13.037,32.119 18.225,35.114 18.225,29.125 13.037,26.13 		"/>
		<polygon class="st1" points="23.412,32.119 18.225,35.114 18.225,29.125 23.412,26.13 		"/>
		<polygon class="st2" points="18.225,29.125 13.037,26.13 18.225,23.134 23.412,26.13 		"/>
	</g>
	<polygon class="st1" points="13.037,27.627 14.334,28.376 14.334,26.879 13.037,26.13 	"/>
	<polygon class="st1" points="13.037,30.622 14.334,31.371 14.334,29.873 13.037,29.125 	"/>
	<polygon class="st1" points="15.632,32.119 16.929,32.868 16.929,31.371 15.632,30.622 	"/>
	<polygon class="st1" points="15.632,29.125 16.929,29.873 16.929,28.376 15.632,27.627 	"/>
	<polygon class="st2" points="14.334,29.873 15.632,30.622 15.632,29.125 14.334,28.376 	"/>
	<polygon class="st2" points="14.334,32.868 15.632,33.617 15.632,32.119 14.334,31.371 	"/>
	<polygon class="st2" points="16.929,34.365 18.225,35.114 18.225,33.617 16.929,32.868 	"/>
	<polygon class="st2" points="16.929,31.371 18.225,32.119 18.225,30.622 16.929,29.873 	"/>
	<polygon class="st1" points="23.412,32.119 18.225,35.114 18.225,29.125 23.412,26.13 	"/>
	<polygon class="st2" points="18.225,29.125 13.037,26.13 18.225,23.134 23.412,26.13 	"/>
	<polygon class="st1" points="19.522,28.376 18.225,27.627 19.522,26.879 20.819,27.627 	"/>
	<polygon class="st1" points="16.929,26.879 15.632,26.13 16.929,25.381 18.225,26.13 	"/>
	<polygon class="st0" points="19.522,26.879 18.225,26.13 19.522,25.381 20.819,26.13 	"/>
	<polygon class="st0" points="16.929,25.381 15.632,24.633 16.929,23.884 18.225,24.633 	"/>
	<polygon class="st0" points="16.929,28.376 15.632,27.627 16.929,26.879 18.225,27.627 	"/>
	<polygon class="st0" points="14.334,26.879 13.037,26.13 14.334,25.381 15.632,26.13 	"/>
	<polygon class="st1" points="22.115,26.879 20.819,26.13 22.115,25.381 23.412,26.13 	"/>
	<polygon class="st1" points="19.522,25.381 18.225,24.633 19.522,23.884 20.819,24.633 	"/>
	<polygon class="st0" points="19.522,34.365 18.225,35.114 18.225,33.617 19.522,32.868 	"/>
	<polygon class="st0" points="19.522,31.371 18.225,32.119 18.225,30.622 19.522,29.873 	"/>
	<polygon class="st0" points="22.115,29.873 20.819,30.622 20.819,29.125 22.115,28.376 	"/>
	<polygon class="st2" points="20.819,32.119 19.522,32.868 19.522,31.371 20.819,30.622 	"/>
	<polygon class="st2" points="20.819,29.125 19.522,29.873 19.522,28.376 20.819,27.627 	"/>
	<polygon class="st2" points="23.412,30.622 22.115,31.371 22.115,29.873 23.412,29.125 	"/>
	<polygon class="st2" points="23.412,27.627 22.115,28.376 22.115,26.879 23.412,26.13 	"/>
	<polygon class="st0" points="22.115,32.868 20.819,33.617 20.819,32.119 22.115,31.371 	"/>
</g>
<g id="Example" class="st3">
	<g class="st4">
		<g id="XMLID_4903_">
			<path id="XMLID_4905_" class="st5" d="M45.3,33.2v-4.6l0,0c0-0.9-0.6-1.8-1.7-2.4c-2.3-1.3-6-1.3-8.4,0c-1.2,0.7-1.7,1.6-1.7,2.4
				l0,0v4.5c0,0.9,0.6,1.8,1.7,2.4c2.3,1.3,6,1.3,8.4,0C44.8,34.9,45.3,34.1,45.3,33.2L45.3,33.2L45.3,33.2L45.3,33.2z"/>
			<path id="XMLID_4904_" class="st5" d="M45.3,33.2v-4.6l0,0c0-0.9-0.6-1.8-1.7-2.4c-2.3-1.3-6-1.3-8.4,0c-1.2,0.7-1.7,1.6-1.7,2.4
				l0,0v4.5c0,0.9,0.6,1.8,1.7,2.4c2.3,1.3,6,1.3,8.4,0C44.8,34.9,45.3,34.1,45.3,33.2L45.3,33.2L45.3,33.2L45.3,33.2z"/>
		</g>
		<polygon id="XMLID_4900_" class="st6" points="39.4,23 29.7,28.6 39.4,34.2 49.2,28.6 		"/>
		<path id="XMLID_4899_" class="st7" d="M44.3,31.4l-4.8-2.7c-0.1,0-0.2,0-0.2,0.1s0,0.2,0.1,0.2l4.6,2.6L44.3,31.4z"/>
		<polygon id="XMLID_4896_" class="st8" points="29.7,28.6 29.7,29 39.4,34.6 39.4,34.2 		"/>
		<polygon id="XMLID_4883_" class="st7" points="49.2,28.6 49.2,29 39.4,34.6 39.4,34.2 		"/>
		<polygon id="XMLID_4876_" class="st9" points="33.5,31.2 39.4,35.2 45.3,31.2 39.4,34.6 		"/>
		<g id="XMLID_4823_">
			<path id="XMLID_4835_" class="st10" d="M44.7,36.2c-0.1,0-0.2-0.1-0.2-0.2v-4c0-0.2-0.1-0.4-0.3-0.4l-4.9-2.8
				c-0.1,0-0.1-0.2-0.1-0.2c0-0.1,0.2-0.1,0.2-0.1l4.9,2.8c0.3,0.2,0.4,0.4,0.4,0.7v4C44.8,36.1,44.7,36.2,44.7,36.2z"/>
		</g>
		<path class="st11" d="M45.3,39.3L45,36.6c0.1-0.1,0.1-0.2,0-0.2l0,0l0,0l0,0v-0.1l0,0l0,0l0,0c0-0.2-0.2-0.4-0.4-0.4
			c0,0,0,0-0.1,0l0,0l0,0c0,0,0,0-0.1,0c0,0,0,0-0.1,0c0,0,0,0-0.1,0c0,0,0,0,0,0.1l0,0v0.1c0,0.1,0,0.2,0.1,0.3l0,0
			c-0.1,0.1,0,0.2,0,0.2L44,39.3c0,0.1,0.1,0.2,0.3,0.3l0,0h0.1l0,0c0.1,0,0.2,0.1,0.3,0.1l0,0l0,0l0,0l0,0l0,0c0.1,0,0.2,0,0.3-0.1
			l0,0h0.1l0,0C45.3,39.5,45.3,39.4,45.3,39.3z"/>
	</g>
	<g id="XMLID_3738_" class="st4">
		<path id="XMLID_4404_" class="st12" d="M12.4,36.1c1.1-0.8,1.8-2.7,1.7-4c-0.1-1.4-1.2-2-1.7-2.3l0,0c-1.1-0.6-2.8-0.6-3.9,0l0,0
			C8,30.1,7,30.7,6.8,32.1c-0.1,1.3,0.6,3.2,1.7,4l0,0c0.1,0,0.1,0.1,0.2,0.1c1,0.6,2.6,0.6,3.6,0l0,0
			C12.3,36.2,12.4,36.1,12.4,36.1L12.4,36.1z"/>
		<path id="XMLID_4395_" class="st13" d="M9.9,30.8c-0.3,0.2-0.3,0.4,0,0.6s0.8,0.2,1.1,0s0.3-0.4,0-0.6
			C10.7,30.6,10.2,30.6,9.9,30.8z"/>
		<g id="XMLID_4426_">
			<path id="XMLID_2198_" class="st14" d="M10.5,31.2c0,0-0.9,0-1.4-0.7s0-1.9,0-1.9s1.1,0.1,1.7,1C11.2,30.4,10.5,31.2,10.5,31.2z"
				/>
			<path id="XMLID_4431_" class="st15" d="M9,30.5c0.5,0.7,1.4,0.7,1.4,0.7C10.3,29.6,9,28.6,9,28.6S8.5,29.8,9,30.5z"/>
		</g>
		<path id="XMLID_4403_" class="st16" d="M10.5,31.2c0,0,0-1.3,0.7-1.9s1.2-0.6,1.2-0.6c0.4,0,0.9,0.4,0.7,0.4c0,0-0.9,0-1.5,0.5
			s-0.9,1.5-0.9,1.6c0,0,0,0.1-0.1,0.1C10.5,31.3,10.5,31.2,10.5,31.2z"/>
		<path id="XMLID_4496_" class="st17" d="M12.4,28.7c-0.1,0-0.1,0.1,0.2,0.3c0.2,0.1,0.4,0.2,0.5,0.2l0,0
			C13.3,29,12.8,28.7,12.4,28.7z"/>
	</g>
	<g class="st4">
		<g>
			<path class="st18" d="M26,28.8L26,28.8c-1,0.6-1.9,1-2.8,1.2l0,0c0,0,0,0-0.1,0l-0.5,0.2h-0.1c-0.1,0-0.2,0.1-0.3,0.1h-0.1
				c-0.1,0-0.2,0.1-0.2,0.1h-0.1c-0.5,0.2-0.9,0.4-1.4,0.7c-0.1,0.1-0.2,0.1-0.3,0.2L20,31.4c-0.4,0.3-2,1.5-2.9,2.5l-0.6,0.6
				L16,34.6c-1,0.2-2,0.5-3,1.1c-0.1,0.1-0.2,0.1-0.3,0.2c-0.3,0.2-0.5,0.3-0.8,0.5l0,0l-0.1,0.1c-0.1,0.1-0.2,0.1-0.3,0.2l0,0l0,0
				c-0.4,0.3-0.9,0.7-1.3,1.1c-0.1,0.1-0.2,0.2-0.3,0.3c-0.3,0.3-0.7,0.6-1,0.9H8.8c-0.3,0.3-0.7,0.5-1,0.8
				c-0.2,0.2-0.5,0.3-0.7,0.5H7l13.7,8.3h0.1c0.8-0.5,1.7-1.2,2.5-1.9c0.5-0.5,1.1-0.9,1.7-1.4c1.2-0.9,2.3-1.5,3.2-1.8
				c0.7-0.3,1.4-0.5,2.1-0.6l0.5-0.6c0.7-0.7,1.5-1.3,2.4-1.8c1.5-1,3.2-1.8,4.9-2.5c0.6-0.2,1.2-0.5,1.6-0.7l0.2-0.1L26,28.8z"/>
			<g>
				<g>
					<g>
						<path class="st19" d="M39.1,36.7c-0.5,0.3-0.7,0.4-1.2,0.6c-0.3,0.1-0.5,0.2-0.8,0.3c-0.2,0.1-0.3,0.1-0.5,0.1
							c-0.7,0.2-1.4,0.4-2,0.8c-0.2,0.1-0.4,0.2-0.6,0.3c-1.3,0.8-2.6,2-3.9,3.5l-2.5-1.5l-11-6.7c1.3-1.5,2.6-2.7,3.9-3.5
							c0.2-0.1,0.4-0.2,0.6-0.3c0.7-0.4,1.4-0.6,2-0.8c0.2,0,0.3-0.1,0.5-0.1c0.3-0.1,0.5-0.2,0.8-0.3c0.5-0.2,0.7-0.3,1.2-0.6
							L39.1,36.7z"/>
						<g>
							<path class="st19" d="M30.1,42.3c-1.3,0.1-2.6,0.5-3.9,1.3c-0.2,0.1-0.4,0.2-0.6,0.4c-0.7,0.5-1.4,1-2,1.7
								c-0.2,0.2-0.3,0.3-0.5,0.4c-0.3,0.3-0.6,0.5-0.9,0.7c-0.5,0.4-0.8,0.6-1.3,0.9L7.5,39.5C8,39.2,8.3,39,8.8,38.6
								c0.3-0.2,0.6-0.5,0.9-0.7c0.2-0.1,0.3-0.3,0.5-0.4c0.7-0.6,1.4-1.2,2-1.7c0.2-0.1,0.4-0.3,0.6-0.4c1.3-0.8,2.6-1.2,3.9-1.3
								l11,6.7L30.1,42.3z"/>
						</g>
					</g>
					<polygon class="st20" points="7.5,39.5 7.3,40.3 20.7,48.5 20.9,47.7 					"/>
					<path class="st21" d="M39.4,37.1c-0.9,0.6-1.8,1-2.7,1.2c0,0,0,0-0.1,0s-0.2,0-0.3,0.1c-0.1,0-0.2,0.1-0.3,0.1
						s-0.2,0.1-0.3,0.1c-0.6,0.2-1.2,0.5-1.8,0.9c-0.1,0.1-0.2,0.1-0.3,0.2c-1,0.7-2,1.5-3,2.5L30,42.8l-0.6,0.1c-1,0.2-2,0.5-3,1.1
						c-0.1,0.1-0.2,0.1-0.3,0.2c-0.3,0.2-0.5,0.3-0.8,0.5c-0.6,0.4-1.1,0.9-1.7,1.4c-0.1,0.1-0.2,0.2-0.3,0.3
						c-0.9,0.9-1.8,1.6-2.7,2.2l0.2-0.8c0.5-0.3,0.8-0.5,1.3-0.9c0.3-0.2,0.6-0.5,0.9-0.7c0.2-0.1,0.3-0.3,0.5-0.4
						c0.7-0.6,1.4-1.2,2-1.7c0.2-0.1,0.4-0.3,0.6-0.4c1.3-0.8,2.6-1.2,3.9-1.3c1.3-1.5,2.6-2.7,3.9-3.5c0.2-0.1,0.4-0.2,0.6-0.3
						c0.7-0.4,1.4-0.6,2-0.8c0.2,0,0.3-0.1,0.5-0.1c0.3-0.1,0.5-0.2,0.8-0.3c0.5-0.2,0.7-0.3,1.2-0.6L39.4,37.1z"/>
				</g>
			</g>
			<g>
				<path class="st22" d="M17.8,34.6C17.9,34.6,17.9,34.6,17.8,34.6c1.2-1.4,2.5-2.5,3.7-3.2c0.2-0.1,0.4-0.2,0.5-0.3
					c0.7-0.3,1.3-0.6,2-0.8c0.2,0,0.3-0.1,0.5-0.1c0.3-0.1,0.5-0.2,0.8-0.3c0.4-0.2,0.7-0.3,1.1-0.5c0,0,0,0,0-0.1s0,0-0.1,0
					c-0.4,0.2-0.6,0.3-1,0.5c-0.3,0.1-0.5,0.2-0.8,0.3c-0.2,0.1-0.3,0.1-0.5,0.1c-0.7,0.2-1.3,0.4-2,0.8c-0.2,0.1-0.4,0.2-0.6,0.3
					C20.3,32.1,19,33.2,17.8,34.6C17.8,34.5,17.8,34.6,17.8,34.6L17.8,34.6z"/>
				<path class="st22" d="M25.4,30.6c-0.2,0.1-0.3,0.1-0.5,0.1c-0.7,0.2-1.3,0.4-2,0.8c-0.2,0.1-0.4,0.2-0.6,0.3
					c-1.2,0.7-2.5,1.8-3.7,3.2v0.1l0,0l0,0c1.2-1.4,2.5-2.5,3.7-3.2c0.2-0.1,0.4-0.2,0.6-0.3c0.7-0.4,1.3-0.6,2-0.8
					C25.1,30.8,25.3,30.7,25.4,30.6c0.3,0,0.6-0.1,0.8-0.2c0.4-0.2,0.6-0.3,1-0.5c0,0,0,0,0-0.1c0,0,0,0-0.1,0
					c-0.4,0.2-0.6,0.3-1,0.5C25.9,30.4,25.7,30.5,25.4,30.6z"/>
				<path class="st22" d="M26.2,31.1c-0.2,0.1-0.3,0.1-0.5,0.1c-0.7,0.2-1.3,0.4-2,0.8c-0.2,0.1-0.4,0.2-0.6,0.3
					c-1.2,0.7-2.5,1.8-3.7,3.2v0.1l0,0l0,0c1.2-1.4,2.5-2.5,3.7-3.2c0.2-0.1,0.4-0.2,0.6-0.3c0.7-0.4,1.4-0.6,2-0.8
					C25.9,31.3,26.1,31.2,26.2,31.1c0.3,0,0.6-0.1,0.8-0.2c0.4-0.2,0.6-0.3,1-0.5c0,0,0,0,0-0.1c0,0,0,0-0.1,0
					c-0.4,0.2-0.6,0.3-1,0.5C26.8,30.9,26.5,31,26.2,31.1z"/>
				<path class="st22" d="M27.1,31.5c-0.2,0.1-0.3,0.1-0.5,0.1c-0.7,0.2-1.3,0.4-2,0.8c-0.2,0.1-0.4,0.2-0.6,0.3
					c-1.2,0.7-2.5,1.8-3.7,3.2V36l0,0l0,0c1.2-1.4,2.5-2.5,3.7-3.2c0.2-0.1,0.4-0.2,0.6-0.3c0.7-0.4,1.4-0.6,2-0.8
					C26.7,31.7,26.9,31.7,27.1,31.5c0.3,0,0.6-0.1,0.8-0.2c0.4-0.2,0.6-0.3,1-0.5c0,0,0,0,0-0.1c0,0,0,0-0.1,0
					c-0.4,0.2-0.6,0.3-1,0.5C27.6,31.4,27.3,31.5,27.1,31.5z"/>
				<path class="st22" d="M27.9,32c-0.2,0.1-0.3,0.1-0.5,0.1c-0.7,0.2-1.4,0.4-2,0.8c-0.2,0.1-0.4,0.2-0.6,0.3
					c-1.2,0.7-2.5,1.9-3.7,3.2v0.1l0,0l0,0c1.2-1.4,2.5-2.5,3.7-3.2c0.2-0.1,0.4-0.2,0.6-0.3c0.7-0.4,1.4-0.6,2-0.8
					C27.6,32.2,27.8,32.2,27.9,32c0.3,0,0.6-0.1,0.8-0.2c0.4-0.2,0.6-0.3,1-0.5c0,0,0,0,0-0.1c0,0,0,0-0.1,0c-0.4,0.2-0.6,0.3-1,0.5
					C28.4,31.8,28.1,31.9,27.9,32z"/>
				<path class="st22" d="M28.7,32.5c-0.2,0.1-0.3,0.1-0.5,0.1c-0.7,0.2-1.4,0.4-2,0.8c-0.2,0.1-0.4,0.2-0.6,0.3
					c-1.2,0.7-2.5,1.9-3.7,3.2V37l0,0l0,0c1.2-1.4,2.5-2.5,3.7-3.2c0.2-0.1,0.4-0.2,0.6-0.3c0.7-0.4,1.4-0.6,2-0.8
					C28.4,32.7,28.6,32.6,28.7,32.5c0.3,0,0.6-0.1,0.8-0.2c0.4-0.2,0.6-0.3,1-0.5c0,0,0,0,0-0.1c0,0,0,0-0.1,0
					c-0.3,0.2-0.6,0.3-0.9,0.5C29.2,32.3,29,32.4,28.7,32.5z"/>
				<path class="st22" d="M29.6,33c-0.2,0.1-0.3,0.1-0.5,0.1c-0.7,0.2-1.4,0.4-2.1,0.8c-0.2,0.1-0.4,0.2-0.6,0.3
					c-1.2,0.7-2.5,1.9-3.8,3.3v0.1l0,0l0,0c1.2-1.4,2.5-2.5,3.7-3.2c0.2-0.1,0.4-0.2,0.6-0.3c0.7-0.4,1.4-0.6,2-0.8
					C29.2,33.2,29.4,33.1,29.6,33c0.3,0,0.6-0.1,0.8-0.2c0.4-0.2,0.6-0.3,0.9-0.5c0,0,0,0,0-0.1c0,0,0,0-0.1,0
					c-0.3,0.2-0.5,0.3-0.9,0.4C30.1,32.8,29.8,32.9,29.6,33z"/>
				<path class="st22" d="M30.4,33.5c-0.2,0.1-0.3,0.1-0.5,0.1c-0.7,0.2-1.4,0.4-2.1,0.8c-0.2,0.1-0.4,0.2-0.6,0.3
					c-1.2,0.7-2.5,1.9-3.8,3.3v0.1l0,0l0,0c1.2-1.4,2.5-2.5,3.7-3.2c0.2-0.1,0.4-0.2,0.6-0.3c0.7-0.4,1.4-0.6,2-0.8
					C30.1,33.7,30.2,33.6,30.4,33.5c0.3,0,0.5-0.1,0.8-0.2c0.4-0.2,0.6-0.3,0.9-0.4c0,0,0,0,0-0.1c0,0,0,0-0.1,0
					c-0.3,0.2-0.5,0.3-0.9,0.4C30.9,33.3,30.6,33.4,30.4,33.5z"/>
				<path class="st22" d="M31.2,33.9C31,34,30.9,34,30.7,34.1c-0.7,0.2-1.4,0.4-2.1,0.8c-0.2,0.1-0.4,0.2-0.6,0.3
					c-1.2,0.7-2.5,1.9-3.8,3.3v0.1l0,0l0,0c1.2-1.4,2.5-2.5,3.8-3.3c0.2-0.1,0.4-0.2,0.6-0.3c0.7-0.4,1.4-0.6,2-0.8
					C30.9,34.1,31.1,34.1,31.2,33.9c0.3,0,0.5-0.1,0.8-0.2c0.4-0.2,0.6-0.2,0.9-0.4c0,0,0,0,0-0.1c0,0,0,0-0.1,0
					c-0.3,0.2-0.5,0.3-0.9,0.4C31.7,33.8,31.5,33.9,31.2,33.9z"/>
				<path class="st22" d="M32,34.4c-0.2,0.1-0.3,0.1-0.5,0.1c-0.7,0.2-1.4,0.4-2.1,0.8c-0.2,0.1-0.4,0.2-0.6,0.3
					c-1.2,0.7-2.6,1.9-3.8,3.3V39l0,0l0,0c1.2-1.4,2.5-2.5,3.8-3.3c0.2-0.1,0.4-0.2,0.6-0.3c0.7-0.4,1.4-0.6,2-0.8
					C31.7,34.6,31.9,34.6,32,34.4c0.3,0,0.5-0.1,0.8-0.2c0.4-0.2,0.6-0.2,0.9-0.4c0,0,0,0,0-0.1c0,0,0,0-0.1,0
					c-0.3,0.2-0.5,0.3-0.9,0.4C32.6,34.2,32.3,34.3,32,34.4z"/>
				<path class="st22" d="M32.9,34.9C32.7,35,32.6,35,32.4,35c-0.7,0.2-1.4,0.4-2.1,0.8c-0.2,0.1-0.4,0.2-0.6,0.3
					c-1.2,0.8-2.6,1.9-3.8,3.3v0.1l0,0l0,0c1.2-1.4,2.5-2.5,3.8-3.3c0.2-0.1,0.4-0.2,0.6-0.3c0.7-0.4,1.4-0.6,2.1-0.8
					C32.6,35.1,32.7,35,32.9,34.9c0.3,0,0.5-0.1,0.8-0.2c0.3-0.1,0.6-0.2,0.9-0.4c0,0,0,0,0-0.1c0,0,0,0-0.1,0
					c-0.3,0.2-0.5,0.3-0.8,0.4C33.4,34.7,33.1,34.8,32.9,34.9z"/>
				<path class="st22" d="M33.7,35.4c-0.2,0.1-0.3,0.1-0.5,0.1c-0.7,0.2-1.4,0.4-2.1,0.8c-0.2,0.1-0.4,0.2-0.6,0.3
					c-1.2,0.8-2.6,1.9-3.8,3.3V40l0,0l0,0c1.2-1.4,2.6-2.5,3.8-3.3c0.2-0.1,0.4-0.2,0.6-0.3c0.7-0.4,1.4-0.6,2.1-0.8
					C33.4,35.6,33.6,35.5,33.7,35.4c0.3,0,0.5-0.1,0.8-0.2c0.3-0.1,0.5-0.2,0.8-0.4c0,0,0,0,0-0.1c0,0,0,0-0.1,0
					c-0.3,0.2-0.5,0.3-0.8,0.4C34.2,35.2,34,35.3,33.7,35.4z"/>
				<path class="st22" d="M34.5,35.8c-0.2,0.1-0.3,0.1-0.5,0.1c-0.7,0.2-1.4,0.4-2.1,0.8c-0.2,0.1-0.4,0.2-0.6,0.3
					c-1.3,0.8-2.6,1.9-3.8,3.3v0.1l0,0l0,0c1.2-1.4,2.6-2.6,3.8-3.3c0.2-0.1,0.4-0.2,0.6-0.3c0.7-0.4,1.4-0.6,2.1-0.8
					C34.2,36,34.4,36,34.5,35.8c0.3,0,0.5-0.1,0.8-0.2c0.3-0.1,0.5-0.2,0.8-0.4c0,0,0,0,0-0.1c0,0,0,0-0.1,0
					c-0.3,0.2-0.5,0.2-0.8,0.4C35,35.7,34.8,35.8,34.5,35.8z"/>
				<path class="st22" d="M35.4,36.3c-0.2,0.1-0.3,0.1-0.5,0.1c-0.7,0.2-1.4,0.4-2.1,0.8c-0.2,0.1-0.4,0.2-0.6,0.3
					c-1.3,0.8-2.6,1.9-3.8,3.3v0.1l0,0l0,0c1.3-1.4,2.6-2.6,3.8-3.3c0.2-0.1,0.4-0.2,0.6-0.3c0.7-0.4,1.4-0.6,2.1-0.8
					C35.1,36.5,35.2,36.5,35.4,36.3c0.3,0,0.5-0.1,0.8-0.2c0.3-0.1,0.5-0.2,0.8-0.4c0,0,0,0,0-0.1c0,0,0,0-0.1,0
					c-0.2,0.1-0.4,0.2-0.8,0.4C35.9,36.2,35.6,36.2,35.4,36.3z"/>
				<path class="st22" d="M37.7,36.2c-0.3,0.1-0.5,0.2-0.8,0.4c-0.3,0.1-0.5,0.2-0.8,0.3C35.9,37,35.8,37,35.6,37
					c-0.7,0.2-1.4,0.4-2.1,0.8c-0.2,0.1-0.4,0.2-0.6,0.3c-1.3,0.8-2.6,1.9-3.9,3.3v0.1l0,0l0,0c1.3-1.4,2.6-2.6,3.8-3.3
					c0.2-0.1,0.4-0.2,0.6-0.3c0.7-0.4,1.4-0.6,2.1-0.8c0.2,0,0.3-0.1,0.5-0.1c0.2-0.1,0.5-0.2,0.8-0.3
					C37.3,36.5,37.5,36.4,37.7,36.2C37.8,36.3,37.8,36.2,37.7,36.2C37.8,36.2,37.7,36.2,37.7,36.2z"/>
				<path class="st22" d="M10.6,38.6c0.2-0.1,0.3-0.3,0.5-0.4c0.7-0.6,1.3-1.2,2-1.7c0.2-0.1,0.4-0.2,0.6-0.4
					c1.2-0.7,2.5-1.2,3.7-1.3c0,0,0,0,0-0.1c0,0,0,0-0.1,0c-1.2,0.1-2.5,0.5-3.7,1.3c-0.2,0.1-0.4,0.2-0.6,0.4c-0.7,0.5-1.4,1-2,1.7
					C10.9,38.3,10.7,38.4,10.6,38.6c-0.4,0.2-0.7,0.4-0.9,0.7c-0.4,0.3-0.7,0.5-1,0.7c0,0,0,0,0,0.1l0,0l0,0c0.3-0.2,0.6-0.4,1-0.7
					S10.3,38.9,10.6,38.6z"/>
				<path class="st22" d="M11.5,39.1c0.2-0.1,0.3-0.3,0.5-0.4c0.7-0.6,1.3-1.2,2-1.7c0.2-0.1,0.4-0.2,0.6-0.4
					c1.2-0.7,2.5-1.2,3.7-1.2c0,0,0,0,0-0.1c0,0,0-0.1-0.1,0c-1.2,0.1-2.5,0.5-3.7,1.3c-0.2,0.1-0.4,0.2-0.6,0.4
					c-0.7,0.5-1.4,1-2,1.7C11.7,38.8,11.6,38.9,11.5,39.1c-0.4,0.2-0.7,0.4-0.9,0.7c-0.4,0.3-0.7,0.5-1,0.7c0,0,0,0,0,0.1l0,0l0,0
					c0.3-0.2,0.6-0.4,1-0.7C10.9,39.6,11.2,39.4,11.5,39.1z"/>
				<path class="st22" d="M12.3,39.6c0.2-0.1,0.3-0.3,0.5-0.4c0.7-0.6,1.3-1.2,2-1.7c0.2-0.1,0.4-0.3,0.6-0.4
					c1.2-0.7,2.4-1.2,3.6-1.2c0,0,0,0,0-0.1s0,0-0.1,0c-1.2,0.1-2.5,0.5-3.7,1.3c-0.2,0.1-0.4,0.2-0.6,0.4c-0.7,0.5-1.4,1-2,1.7
					C12.5,39.2,12.4,39.4,12.3,39.6c-0.4,0.2-0.7,0.4-0.9,0.7c-0.4,0.3-0.7,0.5-1,0.7c0,0,0,0,0,0.1l0,0l0,0c0.3-0.2,0.6-0.4,1-0.7
					C11.7,40.1,12,39.9,12.3,39.6z"/>
				<path class="st22" d="M13.1,40.1c0.2-0.1,0.3-0.3,0.5-0.4c0.7-0.6,1.3-1.2,2-1.7c0.2-0.1,0.4-0.3,0.6-0.4
					c1.2-0.7,2.4-1.1,3.6-1.2c0,0,0,0,0-0.1c0,0,0,0-0.1,0c-1.2,0.1-2.4,0.5-3.6,1.3c-0.2,0.1-0.4,0.2-0.6,0.4c-0.7,0.5-1.4,1-2,1.7
					C13.3,39.7,13.2,39.9,13.1,40.1c-0.4,0.2-0.6,0.4-0.9,0.7c-0.4,0.3-0.7,0.5-1,0.7c0,0,0,0,0,0.1l0,0l0,0c0.3-0.2,0.6-0.4,1-0.7
					C12.5,40.6,12.8,40.4,13.1,40.1z"/>
				<path class="st22" d="M13.9,40.6c0.2-0.1,0.3-0.3,0.5-0.4c0.7-0.6,1.3-1.2,2-1.7c0.2-0.1,0.4-0.3,0.6-0.4
					c1.2-0.7,2.4-1.1,3.6-1.2c0,0,0,0,0-0.1c0,0,0,0-0.1,0c-1.2,0.1-2.4,0.5-3.6,1.3c-0.2,0.1-0.4,0.2-0.6,0.4c-0.7,0.5-1.4,1-2,1.7
					C14.2,40.2,14,40.4,13.9,40.6c-0.4,0.2-0.6,0.4-0.9,0.7c-0.4,0.3-0.7,0.5-1,0.7c0,0,0,0,0,0.1l0,0l0,0c0.3-0.2,0.6-0.4,1-0.7
					C13.3,41.1,13.6,40.8,13.9,40.6z"/>
				<path class="st22" d="M14.7,41.1c0.2-0.1,0.3-0.3,0.5-0.4c0.7-0.6,1.3-1.2,2-1.7c0.2-0.1,0.4-0.3,0.6-0.4
					c1.2-0.7,2.4-1.1,3.5-1.2c0,0,0,0,0-0.1c0,0,0,0-0.1,0c-1.2,0.1-2.4,0.6-3.6,1.3c-0.2,0.1-0.4,0.2-0.6,0.4c-0.7,0.5-1.4,1-2,1.7
					C15,40.7,14.8,40.8,14.7,41.1c-0.4,0.2-0.6,0.4-0.9,0.7c-0.4,0.3-0.7,0.5-1,0.7c0,0,0,0,0,0.1l0,0l0,0c0.3-0.2,0.6-0.4,1-0.7
					S14.4,41.3,14.7,41.1z"/>
				<path class="st22" d="M15.6,41.5c0.2-0.1,0.3-0.3,0.5-0.4c0.7-0.6,1.3-1.2,2-1.7c0.2-0.1,0.4-0.3,0.6-0.4
					c1.1-0.7,2.4-1.1,3.5-1.2c0,0,0,0,0-0.1s0,0-0.1,0c-1.2,0.1-2.4,0.6-3.5,1.3c-0.2,0.1-0.4,0.2-0.6,0.4c-0.7,0.5-1.4,1-2,1.7
					C15.8,41.2,15.6,41.3,15.6,41.5c-0.4,0.2-0.6,0.4-0.9,0.7c-0.4,0.3-0.7,0.5-1,0.7c0,0,0,0,0,0.1l0,0l0,0c0.3-0.2,0.6-0.4,1-0.7
					C15,42.1,15.3,41.8,15.6,41.5z"/>
				<path class="st22" d="M16.4,42c0.2-0.1,0.3-0.3,0.5-0.4c0.7-0.6,1.3-1.2,2-1.7c0.2-0.1,0.4-0.3,0.6-0.4c1.1-0.7,2.3-1.1,3.5-1.2
					c0,0,0,0,0-0.1s0,0-0.1,0c-1.2,0.1-2.4,0.6-3.5,1.3c-0.2,0.1-0.4,0.2-0.6,0.4c-0.7,0.5-1.4,1-2.1,1.7
					C16.6,41.7,16.5,41.8,16.4,42c-0.4,0.2-0.6,0.4-0.9,0.7c-0.4,0.3-0.7,0.5-1,0.7c0,0,0,0,0,0.1l0,0l0,0c0.3-0.2,0.6-0.4,1.1-0.7
					C15.8,42.5,16.1,42.3,16.4,42z"/>
				<path class="st22" d="M17.2,42.5c0.2-0.1,0.3-0.3,0.5-0.4c0.7-0.6,1.4-1.2,2-1.7c0.2-0.1,0.4-0.3,0.6-0.4
					c1.1-0.7,2.3-1.1,3.4-1.2c0,0,0,0,0-0.1s0,0-0.1,0c-1.1,0.1-2.3,0.6-3.5,1.3c-0.2,0.1-0.4,0.2-0.6,0.4c-0.7,0.5-1.4,1-2.1,1.7
					C17.4,42.2,17.3,42.3,17.2,42.5c-0.4,0.2-0.6,0.4-0.9,0.6c-0.4,0.3-0.7,0.5-1.1,0.7c0,0,0,0,0,0.1l0,0l0,0
					c0.3-0.2,0.6-0.4,1.1-0.8C16.6,43,16.9,42.8,17.2,42.5z"/>
				<path class="st22" d="M18,43c0.2-0.1,0.3-0.3,0.5-0.4c0.7-0.6,1.4-1.2,2-1.7c0.2-0.1,0.4-0.3,0.6-0.4c1.1-0.7,2.3-1.1,3.4-1.2
					c0,0,0,0,0-0.1s0,0-0.1,0c-1.1,0.1-2.3,0.6-3.5,1.3c-0.2,0.1-0.4,0.2-0.6,0.4c-0.7,0.5-1.4,1.1-2.1,1.7
					C18.3,42.6,18.1,42.8,18,43c-0.4,0.2-0.6,0.4-0.9,0.6c-0.4,0.3-0.7,0.6-1.1,0.8c0,0,0,0,0,0.1l0,0l0,0c0.3-0.2,0.7-0.4,1.1-0.8
					C17.4,43.5,17.7,43.3,18,43z"/>
				<path class="st22" d="M18.8,43.5c0.2-0.1,0.3-0.3,0.5-0.4c0.7-0.6,1.4-1.2,2-1.7c0.2-0.1,0.4-0.3,0.6-0.4
					c1.1-0.7,2.3-1.1,3.4-1.2c0,0,0,0,0-0.1c0,0,0,0-0.1,0c-1.1,0.1-2.3,0.6-3.4,1.3c-0.2,0.1-0.4,0.2-0.6,0.4
					c-0.7,0.5-1.4,1.1-2.1,1.7C19.1,43.1,18.9,43.3,18.8,43.5c-0.4,0.2-0.6,0.4-0.9,0.6c-0.4,0.3-0.7,0.6-1.1,0.8c0,0,0,0,0,0.1l0,0
					l0,0c0.3-0.2,0.7-0.4,1.1-0.8C18.3,44,18.5,43.7,18.8,43.5z"/>
				<path class="st22" d="M19.6,44c0.2-0.1,0.3-0.3,0.5-0.4c0.7-0.6,1.4-1.2,2.1-1.7c0.2-0.1,0.4-0.3,0.6-0.4
					c1.1-0.7,2.3-1.1,3.4-1.2c0,0,0,0,0-0.1c0,0,0,0-0.1,0c-1.1,0.2-2.3,0.6-3.4,1.3c-0.2,0.1-0.4,0.2-0.6,0.4
					c-0.7,0.5-1.4,1.1-2.1,1.7C19.9,43.6,19.7,43.8,19.6,44c-0.4,0.2-0.6,0.4-0.9,0.6c-0.4,0.3-0.8,0.6-1.1,0.8c0,0,0,0,0,0.1l0,0
					l0,0c0.3-0.2,0.7-0.4,1.1-0.8C19.1,44.5,19.4,44.2,19.6,44z"/>
				<path class="st22" d="M20.5,44.5c0.2-0.1,0.3-0.3,0.5-0.4c0.7-0.6,1.4-1.2,2.1-1.7c0.2-0.1,0.4-0.3,0.6-0.4
					c1.1-0.7,2.2-1.1,3.3-1.2c0,0,0,0,0-0.1c0,0,0,0-0.1,0c-1.1,0.2-2.3,0.6-3.4,1.3c-0.2,0.1-0.4,0.2-0.6,0.4
					c-0.7,0.5-1.4,1.1-2.1,1.7C20.7,44.1,20.5,44.2,20.5,44.5c-0.4,0.2-0.6,0.4-0.9,0.6c-0.4,0.3-0.8,0.6-1.1,0.8c0,0,0,0,0,0.1l0,0
					l0,0c0.3-0.2,0.7-0.4,1.1-0.8C19.9,45,20.2,44.7,20.5,44.5z"/>
				<path class="st22" d="M21.3,44.9c0.2-0.1,0.3-0.3,0.5-0.4c0.7-0.7,1.4-1.2,2.1-1.7c0.2-0.1,0.4-0.3,0.6-0.4
					c1.1-0.6,2.2-1.1,3.3-1.2c0,0,0,0,0-0.1c0,0,0,0-0.1,0c-1.1,0.2-2.3,0.6-3.3,1.3c-0.2,0.1-0.4,0.2-0.6,0.4
					c-0.7,0.5-1.4,1.1-2.1,1.7C21.5,44.6,21.4,44.7,21.3,44.9c-0.4,0.2-0.6,0.4-0.9,0.6c-0.4,0.3-0.8,0.6-1.1,0.8c0,0,0,0,0,0.1l0,0
					l0,0c0.4-0.2,0.7-0.4,1.1-0.8C20.7,45.4,21,45.2,21.3,44.9z"/>
				<path class="st22" d="M25.2,42.8c-0.2,0.1-0.4,0.2-0.6,0.4c-0.7,0.5-1.4,1.1-2.1,1.7c-0.2,0.1-0.3,0.3-0.5,0.4
					c-0.3,0.3-0.6,0.5-0.9,0.7c-0.4,0.3-0.8,0.6-1.1,0.8c0,0,0,0,0,0.1l0,0l0,0c0.4-0.2,0.7-0.4,1.1-0.8c0.3-0.2,0.6-0.5,0.9-0.7
					c0.2-0.1,0.3-0.3,0.5-0.4c0.7-0.7,1.4-1.2,2.1-1.7C24.8,43.2,25,43,25.2,42.8c1.1-0.6,2.2-1,3.3-1.2c0,0,0,0,0-0.1
					c0,0,0,0-0.1,0C27.4,41.7,26.2,42.2,25.2,42.8z"/>
			</g>
		</g>
		<g>
			<g>
				<g>
					<g>
						<g class="st23">
							<g>
								<path class="st24" d="M29.1,41.9l-7.9-4.6l-0.1-0.1L29.1,41.9L29.1,41.9z"/>
							</g>
							<g>
								<path class="st25" d="M29.2,41.6c-0.1,0.1-0.1,0.1-0.1,0.2l-7.9-4.6l0.1-0.2L29.2,41.6z"/>
							</g>
							<g>
								<path class="st26" d="M29.4,41.5h-0.1c0,0-0.1,0-0.1,0.1l-8-4.6l0.2-0.1L29.4,41.5z"/>
							</g>
						</g>
					</g>
					<g>
						<polygon class="st27" points="30.3,42.2 30.3,42.3 30.3,42.3 30.3,42.3 30.2,42.3 30.3,42.3 						"/>
					</g>
					<path d="M30.3,42.2L30,42l0,0c0,0,0,0-0.1,0l-0.1,0.1l0,0L30.3,42.2C30.3,42.3,30.3,42.3,30.3,42.2
						C30.3,42.3,30.3,42.3,30.3,42.2z"/>
					<path class="st28" d="M21.7,37h-0.1l-0.1,0.1c0,0.1-0.1,0.1-0.1,0.2v0.1L21,37.1c0,0-0.1,0-0.1-0.1s0-0.1,0.1-0.2
						c0-0.1,0.1-0.1,0.1-0.1h0.1l0,0L21.7,37z"/>
					<path class="st29" d="M29.4,41.5L29.4,41.5L29.4,41.5z"/>
				</g>
				<path class="st30" d="M29.4,41.5L29.4,41.5L29.4,41.5c-0.1,0-0.2,0-0.2,0s0,0,0,0.1l0,0c0,0-0.1,0.1-0.1,0.2l0,0v0.1l0,0
					l0.8,0.3l0,0c0,0,0-0.1,0.1-0.1c0,0,0,0,0.1,0L29.4,41.5z"/>
			</g>
			
				<linearGradient id="SVGID_1_" gradientUnits="userSpaceOnUse" x1="21.7732" y1="2543.1643" x2="21.5925" y2="2543.4897" gradientTransform="matrix(1 0 0 1 0 -2506)">
				<stop  offset="0" style="stop-color:#78ACED"/>
				<stop  offset="1" style="stop-color:#4F7BB3"/>
			</linearGradient>
			<path class="st31" d="M22.1,37.3L22.1,37.3L22.1,37.3L21.7,37l0,0l0,0h-0.1l0,0h-0.1c-0.1,0-0.1,0.1-0.1,0.1
				c0,0.1-0.1,0.1-0.1,0.2c0,0,0,0.1,0.1,0.1h0.1l0,0l0,0l0.3,0.2l0,0l0,0l0.1,0.1l0,0l0,0l0,0c0,0,0,0,0-0.1l0,0v-0.1l0,0l0.1-0.1
				l0,0C22,37.3,22,37.2,22.1,37.3L22.1,37.3L22.1,37.3L22.1,37.3L22.1,37.3z"/>
		</g>
	</g>
</g>
<g id="Shadow_00000087409942281181826480000002308215225349663910_">
	
		<radialGradient id="Shadow_00000043426601741527743270000003882693988668870573_" cx="-1356.1122" cy="4974.1841" r="15.9018" gradientTransform="matrix(1.5353 0 0 0.4819 2107.0391 -2355.5596)" gradientUnits="userSpaceOnUse">
		<stop  offset="0.4351" style="stop-color:#B4BCC1"/>
		<stop  offset="0.94" style="stop-color:#ECEEEF;stop-opacity:0"/>
	</radialGradient>
	
		<ellipse id="Shadow" style="fill:url(#Shadow_00000043426601741527743270000003882693988668870573_);" cx="25" cy="41.5" rx="24.4" ry="7.7"/>
</g>
<g id="Guy">
	<g id="Shoes_Side_00000057842728640891880890000017929712399910850714_">
		<polygon points="33.037,39.54 34.193,38.923 34.193,40.156 33.037,40.773 		"/>
		<polygon points="34.193,37.613 36.351,36.38 36.351,38.923 34.193,40.156 		"/>
	</g>
	<g id="Shoes_Front_00000047052640445109614900000015321014312808517772_">
		<polygon class="st33" points="33.037,39.54 34.193,38.923 33.037,38.23 31.958,38.923 		"/>
		<polygon class="st33" points="31.958,38.923 33.037,38.23 31.958,37.613 30.879,38.23 		"/>
		<polygon class="st33" points="30.879,38.23 31.958,37.613 30.879,36.996 29.799,37.613 		"/>
		<polygon class="st33" points="29.799,37.613 30.879,36.996 29.799,36.38 28.643,36.996 		"/>
		<polygon class="st34" points="33.037,39.54 31.958,38.923 31.958,40.156 33.037,40.773 		"/>
		<polygon class="st34" points="31.958,38.923 30.879,38.23 30.879,39.54 31.958,40.156 		"/>
		<polygon class="st34" points="30.879,38.23 29.799,37.613 29.799,38.923 30.879,39.54 		"/>
		<polygon class="st34" points="29.799,37.613 28.643,36.996 28.643,38.23 29.799,38.923 		"/>
		<polygon class="st34" points="34.193,37.613 29.799,35.069 29.799,36.38 34.193,38.923 		"/>
	</g>
	<g id="Pants_00000103241426620866756460000013229718362022195342_">
		<polygon class="st35" points="34.193,32.526 36.351,31.216 36.351,33.836 34.193,35.147 		"/>
		<polygon class="st36" points="34.193,32.526 29.799,29.983 29.799,35.069 34.193,37.613 		"/>
		<polygon class="st35" points="34.193,35.069 36.351,33.836 36.351,36.38 34.193,37.613 		"/>
	</g>
	<g id="Right_Arm_00000178163581562621789740000004831146091966655901_">
		<polygon class="st37" points="29.799,22.352 27.564,21.119 27.564,23.662 29.799,24.896 		"/>
		<polygon class="st38" points="29.799,22.352 31.958,21.119 29.799,19.809 27.564,21.119 		"/>
		<polygon class="st39" points="29.799,24.896 27.564,23.662 27.564,26.206 29.799,27.439 		"/>
		<polygon class="st39" points="29.799,27.439 27.564,26.206 27.564,28.749 29.799,29.983 		"/>
	</g>
	<g id="Front_Shirt_00000152264902884442871420000014271370503894969781_">
		<polygon id="Front_Shirt_00000176010441155816617200000005601407803055030189_" class="st37" points="34.193,24.896 
			29.799,22.352 29.799,30.021 34.358,32.627 		"/>
	</g>
	<g id="Left_Arm_00000162328013439836371750000013269174265943611034_">
		<polygon class="st40" points="36.351,28.749 38.586,27.439 38.586,29.983 36.351,31.293 		"/>
		<polygon class="st40" points="36.351,31.293 38.586,29.983 38.586,32.526 36.351,33.836 		"/>
		<polygon class="st39" points="36.351,28.749 34.193,27.439 34.193,29.983 36.351,31.293 		"/>
		<polygon class="st39" points="36.351,31.293 34.193,29.983 34.193,32.526 36.351,33.836 		"/>
		<polygon class="st37" points="36.351,26.206 34.193,24.896 34.193,27.439 36.351,28.749 		"/>
		<polygon class="st41" points="36.351,26.206 38.586,24.896 38.586,27.439 36.351,28.749 		"/>
		<polygon class="st38" points="36.351,26.206 38.586,24.896 36.351,23.662 34.193,24.896 		"/>
	</g>
	<g id="Side_Hairline_00000179638085790578307070000006560413030861220520_">
		<polygon class="st40" points="33.037,20.502 37.507,17.959 37.507,23.046 33.037,25.589 		"/>
		<polygon class="st42" points="35.272,19.192 37.507,17.959 37.507,20.502 35.272,21.735 		"/>
		<polygon class="st42" points="34.193,21.119 35.272,20.502 35.272,21.735 34.193,22.352 		"/>
		<polygon class="st42" points="34.193,22.352 35.272,21.735 35.272,22.969 34.193,23.508 		"/>
		<polygon class="st42" points="36.351,21.119 37.507,20.502 37.507,21.735 36.351,22.352 		"/>
		<polygon class="st42" points="34.193,19.809 35.272,19.192 35.272,20.502 34.193,21.119 		"/>
		<polygon class="st42" points="33.037,20.502 34.193,19.809 34.193,21.119 33.037,21.735 		"/>
	</g>
	<g id="Face_00000012448239136931401750000003951216180455690155_">
		<polygon id="Face_00000043456667622192309670000002378182293295632521_" class="st39" points="33.037,20.502 28.643,17.959 
			28.643,23.046 33.037,25.589 		"/>
	</g>
	<g id="Front_Hairline_00000116956921532306768550000003650255023388067746_">
		<polygon class="st34" points="33.037,21.735 32.497,21.427 32.497,22.044 33.037,22.352 		"/>
		<polygon class="st34" points="29.183,19.45 28.643,19.142 28.643,19.759 29.183,20.067 		"/>
		<polygon class="st34" points="31.958,19.809 30.879,19.192 30.879,20.502 31.958,21.119 		"/>
		<polygon class="st34" points="33.037,20.502 31.958,19.809 31.958,21.119 33.037,21.735 		"/>
		<polygon class="st34" points="29.799,18.575 28.643,17.959 28.643,19.192 29.799,19.809 		"/>
		<polygon class="st34" points="30.879,19.192 29.799,18.575 29.799,19.809 30.879,20.502 		"/>
	</g>
	<polygon id="Hair_00000026125803176249021510000016529639409321634960_" class="st33" points="33.037,20.502 37.507,17.959 
		33.037,15.415 28.643,17.959 	"/>
</g>
<g id="Controller">
	<path class="st43" d="M28.994,37.637c-1.187-1.404-2.631-0.494-7.262-1.365c-4.633-0.871-4.332-1.995-7.264-1.365
		c-2.932,0.629-9.022,5.03-8.772,6.829c0.248,1.799,6.808-0.208,10.867,0.556c4.06,0.764,5.828,4.337,8.668,3.117
		C28.072,44.19,30.181,39.04,28.994,37.637z"/>
	<path class="st43" d="M5.093,38.975c-1.028,2.482,1.047,3.306,1.047,3.306l1.487-2.407l-1.505-0.718
		C6.12,39.156,5.336,38.391,5.093,38.975z"/>
	<path class="st43" d="M27.707,35.062c2.151,1.4,1.567,4.447,1.567,4.447l-2.155-1.593C27.119,37.915,26.252,36.298,27.707,35.062z"
		/>
	<g>
		<g>
			<path d="M26.909,35.169l0.208-0.366l-0.15-0.426c0,0-2.147,0.24-2.651,0.347l-0.171,0.299
				C25.37,35.097,26.24,35.066,26.909,35.169z"/>
		</g>
		<g>
			<path class="st43" d="M26.759,34.742l0.208-0.366c-0.367-0.13-0.802-0.208-1.296-0.222c-0.493-0.014-1.001,0.037-1.505,0.143
				l-0.171,0.299C25.22,34.671,26.09,34.639,26.759,34.742z"/>
		</g>
	</g>
	<g>
		<path d="M18.408,33.949l0.326-0.276l-0.15-0.427c-0.377-0.149-1.532-0.397-1.991-0.422l-0.393,0.333
			C16.829,33.305,17.413,33.61,18.408,33.949z"/>
		<path class="st43" d="M18.258,33.524l0.326-0.276c-0.207-0.239-0.499-0.441-0.876-0.59c-0.376-0.149-0.806-0.234-1.265-0.26
			l-0.393,0.333C16.679,32.879,17.263,33.184,18.258,33.524z"/>
	</g>
	<path class="st44" d="M28.26,35.547c-1.187-1.404-2.631-0.494-7.262-1.365c-4.633-0.871-4.332-1.995-7.264-1.365
		c-1.997,0.429-5.459,2.608-7.386,4.523c-0.901,0.896-1.466,1.734-1.386,2.308c0.248,1.799,6.808-0.208,10.867,0.556
		s5.828,4.337,8.668,3.117C27.337,42.098,29.447,36.95,28.26,35.547z"/>
	<path class="st45" d="M16.432,36.073c-1.032,1.201-3.132,1.94-4.689,1.647c-1.556-0.292-1.982-1.505-0.951-2.706
		c1.032-1.201,3.13-1.94,4.689-1.647C17.039,33.659,17.465,34.87,16.432,36.073z"/>
	<path class="st45" d="M27.491,38.106c-1.031,1.203-3.132,1.94-4.689,1.647c-1.558-0.292-1.982-1.505-0.951-2.706
		c1.031-1.203,3.13-1.94,4.689-1.647C28.097,35.693,28.523,36.905,27.491,38.106z"/>
	<g>
		<path class="st46" d="M22.496,37.964c-0.476-0.09-0.606-0.459-0.291-0.828c0.315-0.365,0.957-0.59,1.432-0.503
			c0.474,0.089,0.604,0.46,0.291,0.828C23.612,37.828,22.972,38.053,22.496,37.964z"/>
		<path class="st47" d="M23.811,36.544l-0.332,0.26c-0.352-0.019-0.769,0.123-1.037,0.357l-0.433,0.004l0.152,0.432l0,0
			c0.05,0.127,0.181,0.228,0.388,0.266c0.422,0.079,0.99-0.12,1.271-0.447c0.136-0.159,0.179-0.319,0.135-0.45l0.001-0.001
			l-0.148-0.421C23.81,36.544,23.811,36.544,23.811,36.544z"/>
		<path class="st48" d="M22.404,37.444c-0.422-0.079-0.537-0.408-0.258-0.733c0.28-0.326,0.848-0.525,1.271-0.447
			c0.422,0.079,0.537,0.408,0.258,0.733C23.395,37.323,22.826,37.523,22.404,37.444z"/>
	</g>
	<g>
		<g>
			<path d="M12.893,37.355l-1.531-0.288l0.967-1.126l-1.459-0.274l1.015-1.182l1.457,0.275l0.967-1.126l1.53,0.288l-0.966,1.126
				l1.457,0.275l-1.013,1.181l-1.459-0.274L12.893,37.355z"/>
		</g>
		<g>
			<polygon class="st49" points="16.202,35.367 16.12,35.133 14.745,35.093 15.711,33.968 15.629,33.735 13.372,34.834 
				10.921,35.388 11.003,35.622 12.46,35.895 11.412,36.787 11.494,37.021 12.869,37.279 13.836,36.153 15.292,36.428 			"/>
			<polygon class="st43" points="16.12,35.133 14.663,34.86 15.629,33.735 14.255,33.476 13.291,34.601 11.832,34.327 
				10.921,35.388 12.378,35.663 11.412,36.787 12.786,37.045 13.754,35.921 15.21,36.194 			"/>
		</g>
		<g>
			<path class="st49" d="M13.843,35.147l-0.065-0.191l-0.66,0.232l0.068,0.19c0.014,0.051,0.064,0.092,0.145,0.106
				c0.155,0.03,0.364-0.044,0.465-0.163C13.85,35.257,13.863,35.195,13.843,35.147z"/>
			<path class="st44" d="M13.727,35.124c-0.103,0.12-0.311,0.193-0.465,0.163c-0.155-0.03-0.197-0.15-0.095-0.27
				c0.103-0.119,0.312-0.192,0.466-0.164C13.787,34.883,13.83,35.005,13.727,35.124z"/>
		</g>
		<g>
			<polygon class="st49" points="15.302,35.603 14.56,35.751 14.491,35.554 15.233,35.407 			"/>
			<polygon class="st44" points="15.233,35.407 14.491,35.554 14.914,35.06 			"/>
		</g>
		<g>
			<polygon class="st49" points="11.755,34.937 11.686,34.741 12.427,34.593 12.496,34.789 12.073,35.282 			"/>
			<polygon class="st44" points="11.686,34.741 12.427,34.593 12.004,35.087 			"/>
		</g>
		<g>
			<polygon class="st49" points="14.704,33.901 14.671,34.369 14.033,34.25 13.964,34.053 14.635,33.705 			"/>
			<polygon class="st44" points="14.635,33.705 14.603,34.174 13.964,34.053 			"/>
		</g>
		<g>
			<polygon class="st49" points="12.352,36.639 12.283,36.442 12.954,36.094 13.023,36.29 			"/>
			<polygon class="st44" points="12.283,36.442 12.315,35.973 12.954,36.094 			"/>
		</g>
	</g>
	<g>
		<path class="st47" d="M19.635,36.941l-0.134-0.382l-2.005-0.072l0.136,0.388l0,0c0.014,0.04,0.056,0.073,0.122,0.085l1.437,0.27
			c0.132,0.025,0.31-0.038,0.399-0.14l0.002-0.003C19.638,37.034,19.65,36.983,19.635,36.941z"/>
		<g>
			<path class="st48" d="M19.056,36.841l-1.437-0.27c-0.133-0.024-0.169-0.127-0.081-0.229l0.002-0.003
				c0.087-0.101,0.267-0.165,0.399-0.14l1.436,0.271c0.133,0.024,0.169,0.127,0.081,0.229l-0.002,0.004
				C19.366,36.803,19.188,36.866,19.056,36.841z"/>
		</g>
	</g>
	<g>
		<path class="st49" d="M14.963,38.577l0.06,0.171c0.057,0.163,0.223,0.289,0.482,0.338c0.521,0.097,1.221-0.149,1.565-0.55
			c0.174-0.201,0.224-0.402,0.167-0.566l-0.06-0.169L14.963,38.577z"/>
		<path class="st43" d="M17.01,38.367c-0.344,0.401-1.045,0.647-1.565,0.55c-0.52-0.099-0.661-0.502-0.318-0.904
			c0.346-0.401,1.046-0.647,1.565-0.55C17.214,37.561,17.355,37.964,17.01,38.367z"/>
		<path class="st48" d="M16.942,37.882L16.942,37.882c-0.169-0.481-0.628-0.542-1.111-0.373c-0.481,0.169-0.802,0.502-0.633,0.985
			l0,0c0.045,0.129,0.175,0.228,0.38,0.267c0.409,0.077,0.963-0.117,1.234-0.433C16.948,38.17,16.988,38.011,16.942,37.882z"/>
	</g>
	<g>
		<path class="st49" d="M17.624,39.083l0.06,0.171c0.057,0.163,0.223,0.289,0.482,0.338c0.519,0.097,1.221-0.149,1.565-0.55
			c0.172-0.2,0.223-0.402,0.165-0.565l-0.06-0.169L17.624,39.083z"/>
		<path class="st43" d="M19.672,38.872c-0.344,0.401-1.045,0.647-1.565,0.55c-0.52-0.099-0.661-0.502-0.318-0.904
			c0.346-0.401,1.046-0.647,1.565-0.55S20.016,38.47,19.672,38.872z"/>
		<path class="st48" d="M19.603,38.387L19.603,38.387c-0.169-0.481-0.628-0.542-1.111-0.373c-0.481,0.169-0.804,0.503-0.634,0.986
			l0,0c0.045,0.129,0.175,0.228,0.38,0.267c0.409,0.077,0.961-0.117,1.234-0.433C19.608,38.675,19.648,38.516,19.603,38.387z"/>
	</g>
	<g>
		<path class="st46" d="M25.174,37.023c-0.476-0.089-0.606-0.459-0.29-0.826c0.315-0.365,0.957-0.59,1.432-0.503
			c0.476,0.089,0.606,0.459,0.29,0.826C26.289,36.888,25.648,37.113,25.174,37.023z"/>
		<path class="st47" d="M26.489,35.603l-0.332,0.26c-0.352-0.019-0.77,0.124-1.037,0.357l-0.433,0.004l0.152,0.432l0,0
			c0.05,0.127,0.183,0.227,0.388,0.266c0.422,0.079,0.992-0.121,1.271-0.447c0.136-0.159,0.179-0.321,0.135-0.45l0.001-0.001
			l-0.148-0.421C26.488,35.604,26.489,35.603,26.489,35.603z"/>
		<path class="st48" d="M25.081,36.504c-0.422-0.079-0.537-0.408-0.258-0.733c0.28-0.326,0.85-0.526,1.271-0.447
			s0.537,0.408,0.258,0.733C26.072,36.383,25.503,36.583,25.081,36.504z"/>
	</g>
	<g>
		<path class="st46" d="M25.719,38.565c-0.476-0.09-0.606-0.459-0.29-0.826c0.314-0.366,0.955-0.591,1.43-0.502
			s0.606,0.459,0.29,0.826C26.836,38.431,26.195,38.656,25.719,38.565z"/>
		<path class="st47" d="M27.034,37.145l-0.332,0.26c-0.352-0.019-0.769,0.123-1.035,0.357l-0.433,0.004l0.152,0.432l0,0
			c0.05,0.127,0.181,0.228,0.388,0.266c0.422,0.079,0.992-0.121,1.27-0.446c0.138-0.16,0.179-0.319,0.137-0.451l0.001-0.001
			L27.034,37.145z"/>
		<path class="st48" d="M25.628,38.047c-0.42-0.08-0.536-0.408-0.258-0.733c0.28-0.326,0.85-0.526,1.27-0.446
			c0.422,0.079,0.537,0.408,0.258,0.733C26.618,37.926,26.048,38.126,25.628,38.047z"/>
	</g>
	<g>
		<path class="st46" d="M23.039,39.51c-0.475-0.091-0.604-0.46-0.29-0.826c0.316-0.367,0.956-0.592,1.43-0.502
			c0.476,0.089,0.606,0.459,0.29,0.826C24.155,39.374,23.515,39.599,23.039,39.51z"/>
		<path class="st47" d="M24.354,38.09l-0.332,0.26c-0.352-0.019-0.769,0.123-1.036,0.359l-0.432,0.003l0.152,0.432l0,0
			c0.05,0.127,0.181,0.228,0.388,0.266c0.422,0.079,0.99-0.12,1.271-0.447c0.136-0.159,0.179-0.319,0.135-0.45l0.001-0.001
			C24.503,38.512,24.354,38.09,24.354,38.09z"/>
		<path class="st48" d="M22.947,38.99c-0.422-0.079-0.537-0.408-0.258-0.733c0.28-0.326,0.848-0.525,1.271-0.447
			c0.422,0.079,0.537,0.408,0.258,0.733C23.937,38.869,23.368,39.069,22.947,38.99z"/>
	</g>
</g>
</svg>
