<?xml version="1.0" encoding="utf-8"?>
<!-- Generator: Adobe Illustrator 25.0.0, SVG Export Plug-In . SVG Version: 6.00 Build 0)  -->
<svg version="1.1" id="Layer_1" xmlns="http://www.w3.org/2000/svg" xmlns:xlink="http://www.w3.org/1999/xlink" x="0px" y="0px"
	 viewBox="0 0 400 400" style="enable-background:new 0 0 400 400;" xml:space="preserve">
<path d="M252.007,201l80.046-80.046c14.645-14.645,14.645-38.389,0-53.033s-38.389-14.645-53.033,0l-80.046,80.046l-80.046-80.046
	c-14.645-14.645-38.389-14.645-53.033,0s-14.645,38.388,0,53.033L145.94,201l-80.046,80.046c-14.645,14.645-14.645,38.389,0,53.033
	c7.322,7.322,16.92,10.983,26.517,10.983s19.194-3.661,26.517-10.983l80.046-80.046l80.046,80.046
	c7.322,7.322,16.92,10.983,26.517,10.983s19.194-3.661,26.517-10.983c14.645-14.645,14.645-38.388,0-53.033L252.007,201z"/>
</svg>
