<?xml version="1.0" encoding="utf-8"?>
<!-- Generator: Adobe Illustrator 25.4.1, SVG Export Plug-In . SVG Version: 6.00 Build 0)  -->
<svg version="1.1" id="Layer_1" xmlns="http://www.w3.org/2000/svg" xmlns:xlink="http://www.w3.org/1999/xlink" x="0px" y="0px"
	 viewBox="0 0 50 50" style="enable-background:new 0 0 50 50;" xml:space="preserve">
<style type="text/css">
	.st0{opacity:0.5;}
	.st1{opacity:0.25;fill:#C0C7CA;}
	.st2{fill:#DD8626;}
	.st3{opacity:0.6;fill:#FFFFFF;}
	.st4{opacity:0.12;fill:#FFFFFF;}
	.st5{opacity:0.25;fill:#FFFFFF;}
	.st6{fill:#EAEAEA;}
	.st7{fill:#FFFFFF;}
	.st8{fill:#A6A6A6;}
	.st9{fill:#1B1618;}
	.st10{fill:#474749;}
	.st11{fill:#CFCFCF;}
	.st12{fill:#C4CBC7;}
	.st13{fill:#7B7B7B;}
	.st14{opacity:0.17;fill:#FFFFFF;}
	.st15{fill:#94E2FF;}
	.st16{fill:#8EC500;}
	.st17{fill:#E81950;}
	.st18{fill:#373B3F;}
	.st19{fill:#C6C9C8;}
	.st20{fill:#2D2D2E;}
	.st21{fill:#285B6E;}
	.st22{fill:#080909;}
	.st23{opacity:0.6;}
</style>
<g>
	<g class="st0">
		<polyline class="st1" points="11.763,38.744 11.784,38.744 18.518,34.83 13.254,31.709 11.467,32.386 6.144,35.507 6.122,35.507 
			11.763,38.744 		"/>
	</g>
	<g class="st0">
		<polyline class="st1" points="39.76,43.905 39.782,43.905 43.881,40.668 37.13,37.547 36.436,37.547 32.6,40.668 32.578,40.668 
			39.76,43.905 		"/>
	</g>
	<g>
		<polygon class="st2" points="39.818,30.886 35.448,33.176 35.155,33.646 35.044,38.539 35.299,39.017 39.48,41.625 40.021,41.644 
			44.301,39.378 44.651,38.817 44.805,33.976 44.55,33.499 40.369,30.89 39.828,30.871 		"/>
		<polygon class="st3" points="39.636,36.068 39.627,36.082 39.849,36.6 40.199,36.039 		"/>
		<polygon class="st4" points="39.849,36.6 35.299,39.017 35.044,38.539 39.627,36.082 		"/>
		<g>
			<polygon class="st5" points="39.828,30.871 39.636,36.068 40.199,36.039 40.369,30.89 			"/>
			
				<rect x="41.919" y="35.085" transform="matrix(0.5293 -0.8484 0.8484 0.5293 -12.106 53.5958)" class="st5" width="0.661" height="5.248"/>
		</g>
		<g>
			<path class="st6" d="M36.177,33.93c-0.343,0.55-0.525,1.129-0.542,1.62l0.331-0.176c0.014-0.395,0.16-0.86,0.436-1.303
				L36.177,33.93z"/>
			<path class="st6" d="M36.695,34.253c-0.189,0.302-0.289,0.62-0.298,0.89l0.211-0.113c0.007-0.208,0.084-0.454,0.23-0.688
				L36.695,34.253z"/>
			<path class="st6" d="M38.571,32.654c-0.318-0.198-0.744-0.155-1.178,0.076l-0.013,0.375c0.349-0.186,0.692-0.221,0.947-0.061
				L38.571,32.654z"/>
			<path class="st6" d="M38.01,33.553c-0.175-0.109-0.409-0.085-0.647,0.042l-0.008,0.239c0.184-0.098,0.365-0.117,0.5-0.032
				L38.01,33.553z"/>
			<path class="st6" d="M38.253,35.225l0.225,0.14c0.343-0.55,0.525-1.129,0.542-1.62l-0.331,0.176
				C38.676,34.317,38.529,34.782,38.253,35.225z"/>
			<path class="st6" d="M38.046,34.265c-0.007,0.208-0.084,0.454-0.23,0.688l0.144,0.09c0.189-0.302,0.289-0.62,0.298-0.89
				L38.046,34.265z"/>
			<path class="st6" d="M36.327,36.251l-0.243,0.39c0.318,0.198,0.744,0.155,1.178-0.076l0.013-0.375
				C36.926,36.375,36.582,36.41,36.327,36.251L36.327,36.251z"/>
			<path class="st6" d="M37.299,35.461c-0.184,0.098-0.365,0.117-0.5,0.032h0l-0.155,0.249v0c0.175,0.109,0.409,0.085,0.647-0.042
				L37.299,35.461z"/>
			
				<ellipse transform="matrix(0.5293 -0.8484 0.8484 0.5293 -13.7192 47.4155)" class="st7" cx="35.873" cy="36.072" rx="0.221" ry="0.128"/>
			
				<ellipse transform="matrix(0.5293 -0.8484 0.8484 0.5293 -9.9103 48.5425)" class="st7" cx="38.793" cy="33.203" rx="0.221" ry="0.128"/>
			
				<ellipse transform="matrix(0.5293 -0.8484 0.8484 0.5293 -10.9529 46.907)" class="st7" cx="36.798" cy="33.325" rx="0.221" ry="0.128"/>
			
				<ellipse transform="matrix(0.5293 -0.8484 0.8484 0.5293 -12.6767 49.0507)" class="st7" cx="37.868" cy="35.95" rx="0.221" ry="0.128"/>
		</g>
		<g>
			<path class="st8" d="M38.023,38.227c-0.471,0.211-0.71,0.518-0.718,0.844l0.466,0.038c0.006-0.262,0.199-0.509,0.578-0.679
				L38.023,38.227z"/>
			<path class="st8" d="M38.773,38.695c-0.259,0.116-0.39,0.285-0.394,0.464l0.297,0.024c0.003-0.138,0.105-0.269,0.305-0.358
				L38.773,38.695z"/>
			<path class="st8" d="M41.391,38.501c-0.459-0.287-1.066-0.461-1.676-0.51L39.71,38.24c0.49,0.04,0.978,0.18,1.348,0.41
				L41.391,38.501z"/>
			<path class="st8" d="M40.623,38.845c-0.252-0.157-0.586-0.253-0.92-0.28l-0.004,0.159c0.259,0.021,0.516,0.095,0.711,0.217
				L40.623,38.845z"/>
			<path class="st8" d="M41.025,40.1l0.325,0.203c0.471-0.211,0.71-0.518,0.718-0.844l-0.466-0.038
				C41.597,39.683,41.404,39.93,41.025,40.1z"/>
			<path class="st8" d="M40.698,39.347c-0.003,0.138-0.105,0.269-0.305,0.358l0.208,0.13c0.259-0.116,0.39-0.285,0.394-0.464
				L40.698,39.347z"/>
			<path class="st8" d="M38.316,39.879l-0.333,0.149c0.459,0.287,1.066,0.461,1.676,0.51l0.006-0.249
				C39.173,40.25,38.685,40.11,38.316,39.879L38.316,39.879z"/>
			<path class="st8" d="M39.675,39.805c-0.259-0.021-0.516-0.095-0.711-0.217h0l-0.213,0.095l0,0c0.252,0.157,0.586,0.253,0.92,0.28
				L39.675,39.805z"/>
			
				<ellipse transform="matrix(0.1042 -0.9946 0.9946 0.1042 -5.5864 72.8795)" class="st7" cx="37.663" cy="39.541" rx="0.12" ry="0.225"/>
			
				<ellipse transform="matrix(0.1042 -0.9946 0.9946 0.1042 -1.3888 76.4196)" class="st7" cx="41.727" cy="38.981" rx="0.12" ry="0.225"/>
			
				<ellipse transform="matrix(0.1042 -0.9946 0.9946 0.1042 -3.0674 72.8176)" class="st7" cx="38.889" cy="38.112" rx="0.12" ry="0.225"/>
			
				<ellipse transform="matrix(0.1042 -0.9946 0.9946 0.1042 -3.9078 76.4815)" class="st7" cx="40.502" cy="40.41" rx="0.12" ry="0.225"/>
		</g>
		<g>
			<g>
				<path class="st9" d="M43.912,36.696c-0.128,0.217-0.305,0.356-0.527,0.409c-0.291,0.07-0.643-0.014-0.992-0.236l-0.094,0.147
					c0.39,0.248,0.79,0.34,1.127,0.258c0.256-0.062,0.469-0.221,0.619-0.461c0.006-0.01,0.012-0.019,0.018-0.029
					c0.172-0.294,0.246-0.685,0.212-1.132l-0.174,0.013C44.132,36.077,44.067,36.433,43.912,36.696z"/>
				<path class="st9" d="M41.207,32.651c-0.154,0.076-0.282,0.197-0.378,0.362c-0.102,0.175-0.164,0.388-0.184,0.633l0.116,0.009
					c0.018-0.228,0.075-0.424,0.168-0.583c0.085-0.144,0.195-0.251,0.329-0.316c0.365-0.18,0.869-0.033,1.332,0.364
					c-0.411-0.265-0.828-0.336-1.16-0.173c-0.149,0.073-0.272,0.191-0.365,0.35c-0.406,0.692-0.122,1.983,0.633,2.878l0.044-0.037
					c-0.74-0.877-1.021-2.139-0.627-2.811c0.087-0.149,0.202-0.259,0.341-0.328c0.466-0.229,1.146,0.053,1.693,0.701l0.044-0.037
					c-0.076-0.09-0.154-0.173-0.234-0.249l0.046-0.038C42.423,32.684,41.717,32.4,41.207,32.651z"/>
			</g>
			<g>
				<path class="st10" d="M44.705,32.78c0.697,0.833,0.956,2.032,0.576,2.678s-1.252,0.495-1.949-0.338s-0.956-2.032-0.576-2.678
					c0.087-0.149,0.201-0.256,0.333-0.321C43.528,31.902,44.168,32.139,44.705,32.78z"/>
				<path class="st9" d="M45.281,35.458c-0.379,0.646-1.252,0.495-1.949-0.338s-0.956-2.032-0.576-2.678
					c0.087-0.149,0.201-0.256,0.333-0.321l-1.647,1.045c0,0-0.71,0.48-0.03,2.021c0.68,1.541,1.674,1.592,1.674,1.592l1.779-0.896
					L45.281,35.458z"/>
				<polygon class="st11" points="42.792,32.664 43.015,32.929 43.024,32.604 				"/>
			</g>
		</g>
	</g>
	<g>
		<ellipse transform="matrix(0.6628 -0.7488 0.7488 0.6628 -24.5821 33.1135)" cx="24.478" cy="43.853" rx="0.862" ry="0.675"/>
		<ellipse transform="matrix(0.6628 -0.7488 0.7488 0.6628 -23.0214 34.258)" cx="26.529" cy="42.692" rx="0.862" ry="0.675"/>
		<polygon class="st12" points="27.815,36.107 23.465,33.555 22.898,33.555 18.595,36.107 18.319,36.586 18.319,41.623 
			18.595,42.103 22.876,44.589 23.552,44.589 27.833,42.103 28.109,41.623 28.109,36.586 27.833,36.107 		"/>
		<polygon class="st3" points="23.223,38.752 23.205,38.752 22.876,39.225 23.552,39.225 		"/>
		<polygon class="st4" points="22.876,39.225 18.319,36.586 18.595,36.107 23.205,38.752 		"/>
		<g>
			<polygon class="st5" points="27.833,36.107 23.223,38.752 23.552,39.225 28.109,36.586 			"/>
			<rect x="22.876" y="39.225" class="st5" width="0.676" height="5.364"/>
		</g>
		<g>
			<path class="st8" d="M23.205,34.595c-0.663,0-1.263,0.155-1.698,0.406l0.332,0.192c0.35-0.202,0.833-0.327,1.366-0.327V34.595z"
				/>
			<path class="st8" d="M23.205,35.22c-0.364,0-0.694,0.085-0.933,0.223l0.212,0.122c0.184-0.106,0.439-0.172,0.721-0.172V35.22z"/>
			<path class="st8" d="M25.606,35.981c0-0.383-0.269-0.729-0.703-0.98l-0.332,0.192c0.35,0.202,0.566,0.481,0.566,0.789H25.606z"/>
			<path class="st8" d="M24.524,35.981c0-0.21-0.148-0.401-0.386-0.538l-0.212,0.122c0.184,0.106,0.299,0.254,0.299,0.416H24.524z"
				/>
			<path class="st8" d="M23.205,37.096v0.271c0.663,0,1.263-0.155,1.698-0.406l-0.332-0.192
				C24.221,36.971,23.738,37.096,23.205,37.096z"/>
			<path class="st8" d="M23.926,36.397c-0.184,0.106-0.439,0.172-0.721,0.172v0.173c0.364,0,0.694-0.085,0.933-0.223L23.926,36.397z
				"/>
			<path class="st8" d="M21.273,35.981h-0.469c0,0.383,0.269,0.729,0.703,0.98l0.332-0.192
				C21.489,36.568,21.273,36.289,21.273,35.981L21.273,35.981z"/>
			<path class="st8" d="M22.484,36.397c-0.184-0.106-0.299-0.254-0.299-0.416l0,0h-0.3l0,0c0,0.21,0.148,0.401,0.386,0.538
				L22.484,36.397z"/>
			<ellipse class="st7" cx="21.183" cy="35.491" rx="0.226" ry="0.13"/>
			<ellipse class="st7" cx="25.251" cy="36.471" rx="0.226" ry="0.13"/>
			<ellipse class="st7" cx="24.066" cy="34.807" rx="0.226" ry="0.13"/>
			<ellipse class="st7" cx="22.368" cy="37.155" rx="0.226" ry="0.13"/>
		</g>
		<g>
			<path class="st8" d="M20.477,38.521c-0.438-0.294-0.834-0.336-1.12-0.166l0.219,0.424c0.231-0.137,0.549-0.103,0.901,0.133
				V38.521z"/>
			<path class="st8" d="M20.477,39.425c-0.24-0.162-0.458-0.185-0.615-0.091l0.14,0.271c0.122-0.072,0.29-0.054,0.476,0.07V39.425z"
				/>
			<path class="st8" d="M22.062,41.59c0-0.553-0.177-1.174-0.464-1.729l-0.219,0.13c0.231,0.447,0.373,0.946,0.373,1.391
				L22.062,41.59z"/>
			<path class="st8" d="M21.348,41.111c0-0.304-0.097-0.645-0.255-0.95l-0.14,0.083c0.122,0.236,0.197,0.499,0.197,0.734
				L21.348,41.111z"/>
			<path class="st8" d="M20.477,42.138v0.392c0.438,0.294,0.834,0.336,1.12,0.166l-0.219-0.424
				C21.148,42.408,20.829,42.375,20.477,42.138z"/>
			<path class="st8" d="M20.953,41.447c-0.122,0.072-0.29,0.054-0.476-0.07v0.25c0.24,0.162,0.458,0.185,0.615,0.091L20.953,41.447z
				"/>
			<path class="st8" d="M19.202,39.669l-0.31-0.208c0,0.553,0.177,1.174,0.464,1.729l0.219-0.13
				C19.345,40.613,19.202,40.114,19.202,39.669L19.202,39.669z"/>
			<path class="st8" d="M20.002,40.808c-0.122-0.236-0.197-0.499-0.197-0.734l0,0l-0.198-0.133v0c0,0.304,0.097,0.645,0.255,0.95
				L20.002,40.808z"/>
			
				<ellipse transform="matrix(0.899 -0.438 0.438 0.899 -15.1138 12.3173)" class="st7" cx="19.143" cy="38.92" rx="0.122" ry="0.23"/>
			
				<ellipse transform="matrix(0.899 -0.438 0.438 0.899 -16.2537 13.8188)" class="st7" cx="21.827" cy="42.142" rx="0.122" ry="0.23"/>
			
				<ellipse transform="matrix(0.899 -0.438 0.438 0.899 -15.0482 13.1798)" class="st7" cx="21.045" cy="39.21" rx="0.122" ry="0.23"/>
			
				<ellipse transform="matrix(0.899 -0.438 0.438 0.899 -16.3192 12.9562)" class="st7" cx="19.925" cy="41.852" rx="0.122" ry="0.23"/>
		</g>
		<g>
			<path class="st8" d="M25.914,38.521c0.438-0.294,0.834-0.336,1.12-0.166l-0.219,0.424c-0.231-0.137-0.549-0.103-0.901,0.133
				V38.521z"/>
			<path class="st8" d="M25.914,39.425c0.24-0.162,0.458-0.185,0.615-0.091l-0.14,0.271c-0.122-0.072-0.29-0.054-0.476,0.07V39.425z
				"/>
			<path class="st8" d="M24.33,41.59c0-0.553,0.177-1.174,0.464-1.729l0.219,0.13c-0.231,0.447-0.373,0.946-0.373,1.391L24.33,41.59
				z"/>
			<path class="st8" d="M25.044,41.111c0-0.304,0.097-0.645,0.255-0.95l0.14,0.083c-0.122,0.236-0.197,0.499-0.197,0.734
				L25.044,41.111z"/>
			<path class="st8" d="M25.914,42.138v0.392c-0.438,0.294-0.834,0.336-1.12,0.166l0.219-0.424
				C25.243,42.408,25.562,42.375,25.914,42.138z"/>
			<path class="st8" d="M25.438,41.447c0.122,0.072,0.29,0.054,0.476-0.07v0.25c-0.24,0.162-0.458,0.185-0.615,0.091L25.438,41.447z
				"/>
			<path class="st8" d="M27.189,39.669l0.31-0.208c0,0.553-0.177,1.174-0.464,1.729l-0.219-0.13
				C27.046,40.613,27.189,40.114,27.189,39.669L27.189,39.669z"/>
			<path class="st8" d="M26.39,40.808c0.122-0.236,0.197-0.499,0.197-0.734l0,0l0.198-0.133v0c0,0.304-0.097,0.645-0.255,0.95
				L26.39,40.808z"/>
			
				<ellipse transform="matrix(0.438 -0.899 0.899 0.438 -19.675 46.3678)" class="st7" cx="27.248" cy="38.92" rx="0.23" ry="0.122"/>
			
				<ellipse transform="matrix(0.438 -0.899 0.899 0.438 -24.0795 45.7646)" class="st7" cx="24.564" cy="42.142" rx="0.23" ry="0.122"/>
			
				<ellipse transform="matrix(0.438 -0.899 0.899 0.438 -21.0041 44.82)" class="st7" cx="25.346" cy="39.21" rx="0.23" ry="0.122"/>
			
				<ellipse transform="matrix(0.438 -0.899 0.899 0.438 -22.7504 47.3123)" class="st7" cx="26.466" cy="41.852" rx="0.23" ry="0.122"/>
		</g>
	</g>
	<g>
		<polygon class="st12" points="6.718,29.66 10.918,27.197 11.465,27.197 15.619,29.66 15.886,30.123 15.886,34.986 15.619,35.449 
			11.487,37.848 10.834,37.848 6.701,35.449 6.435,34.986 6.435,30.123 6.701,29.66 		"/>
		<polygon class="st3" points="11.152,32.214 11.169,32.214 11.487,32.67 10.834,32.67 		"/>
		<polygon class="st4" points="11.487,32.67 15.886,30.123 15.619,29.66 11.169,32.214 		"/>
		<g>
			<polygon class="st5" points="6.701,29.66 11.152,32.214 10.834,32.67 6.435,30.123 			"/>
			<rect x="10.834" y="32.67" class="st5" width="0.653" height="5.178"/>
		</g>
		<g>
			<path class="st8" d="M11.169,28.201c0.64,0,1.22,0.15,1.639,0.392l-0.32,0.185c-0.338-0.195-0.804-0.315-1.319-0.315V28.201z"/>
			<path class="st8" d="M11.169,28.804c0.352,0,0.67,0.082,0.9,0.215l-0.205,0.118c-0.178-0.103-0.424-0.166-0.696-0.166V28.804z"/>
			<path class="st8" d="M8.851,29.539c0-0.369,0.259-0.704,0.679-0.946l0.32,0.185c-0.338,0.195-0.546,0.464-0.546,0.761H8.851z"/>
			<path class="st8" d="M9.895,29.539c0-0.203,0.143-0.387,0.373-0.52l0.205,0.118c-0.178,0.103-0.288,0.245-0.288,0.402H9.895z"/>
			<path class="st8" d="M11.169,30.616v0.262c-0.64,0-1.22-0.15-1.639-0.392L9.85,30.3C10.188,30.495,10.654,30.616,11.169,30.616z"
				/>
			<path class="st8" d="M10.473,29.941c0.178,0.103,0.424,0.166,0.696,0.166v0.167c-0.352,0-0.67-0.082-0.9-0.215L10.473,29.941z"/>
			<path class="st8" d="M13.034,29.539h0.453c0,0.369-0.259,0.704-0.679,0.946l-0.32-0.185
				C12.825,30.105,13.034,29.836,13.034,29.539L13.034,29.539z"/>
			<path class="st8" d="M11.865,29.941c0.178-0.103,0.288-0.245,0.288-0.402v0h0.289v0c0,0.203-0.143,0.387-0.373,0.52
				L11.865,29.941z"/>
			<ellipse class="st7" cx="13.121" cy="29.066" rx="0.218" ry="0.126"/>
			<ellipse class="st7" cx="9.193" cy="30.012" rx="0.218" ry="0.126"/>
			<ellipse class="st7" cx="10.338" cy="28.406" rx="0.218" ry="0.126"/>
			<ellipse class="st7" cx="11.977" cy="30.672" rx="0.218" ry="0.126"/>
		</g>
		<g>
			<path class="st8" d="M13.802,31.991c0.422-0.284,0.805-0.324,1.082-0.16l-0.211,0.41c-0.223-0.132-0.53-0.1-0.87,0.129V31.991z"
				/>
			<path class="st8" d="M13.802,32.863c0.232-0.156,0.442-0.178,0.594-0.088l-0.135,0.261c-0.118-0.07-0.28-0.053-0.459,0.068
				V32.863z"/>
			<path class="st8" d="M12.272,34.954c0-0.534,0.171-1.133,0.448-1.669l0.211,0.125c-0.223,0.431-0.36,0.913-0.36,1.343
				L12.272,34.954z"/>
			<path class="st8" d="M12.962,34.491c0-0.293,0.094-0.622,0.246-0.917l0.135,0.08c-0.118,0.228-0.19,0.482-0.19,0.709
				L12.962,34.491z"/>
			<path class="st8" d="M13.802,35.483v0.378c-0.422,0.284-0.805,0.324-1.082,0.16l0.211-0.41
				C13.155,35.744,13.462,35.711,13.802,35.483z"/>
			<path class="st8" d="M13.343,34.815c0.118,0.07,0.28,0.053,0.459-0.068v0.241c-0.232,0.156-0.442,0.178-0.594,0.088
				L13.343,34.815z"/>
			<path class="st8" d="M15.033,33.099l0.299-0.201c0,0.534-0.171,1.133-0.448,1.669l-0.211-0.125
				C14.895,34.011,15.033,33.529,15.033,33.099L15.033,33.099z"/>
			<path class="st8" d="M14.261,34.198c0.118-0.228,0.19-0.482,0.19-0.709v0l0.191-0.128v0c0,0.293-0.094,0.622-0.246,0.917
				L14.261,34.198z"/>
			
				<ellipse transform="matrix(0.438 -0.899 0.899 0.438 -20.6249 31.7604)" class="st7" cx="15.09" cy="32.376" rx="0.222" ry="0.118"/>
			
				<ellipse transform="matrix(0.438 -0.899 0.899 0.438 -24.8768 31.1781)" class="st7" cx="12.499" cy="35.486" rx="0.222" ry="0.118"/>
			
				<ellipse transform="matrix(0.438 -0.899 0.899 0.438 -21.908 30.2662)" class="st7" cx="13.254" cy="32.656" rx="0.222" ry="0.118"/>
			
				<ellipse transform="matrix(0.438 -0.899 0.899 0.438 -23.5937 32.6722)" class="st7" cx="14.335" cy="35.207" rx="0.222" ry="0.118"/>
		</g>
		<g>
			<g>
				<path class="st13" d="M9.283,36.245c-0.878-0.053-1.894-1.098-2.265-2.33l0,0c-0.224-0.743-0.171-1.423,0.141-1.818
					c0.192-0.243,0.466-0.36,0.793-0.341c0.878,0.053,1.894,1.098,2.265,2.33c0.224,0.743,0.171,1.423-0.141,1.818
					c-0.178,0.225-0.427,0.343-0.724,0.343C9.33,36.247,9.306,36.246,9.283,36.245z"/>
			</g>
			<g>
				<path class="st12" d="M9.182,35.91c-0.747-0.045-1.611-0.934-1.927-1.982c-0.191-0.633-0.146-1.211,0.121-1.548
					c0.164-0.207,0.398-0.308,0.678-0.291c0.747,0.045,1.611,0.934,1.927,1.982c0.191,0.633,0.146,1.211-0.121,1.548
					c-0.152,0.192-0.365,0.293-0.618,0.293C9.222,35.912,9.202,35.912,9.182,35.91z M7.425,32.42
					c-0.253,0.321-0.295,0.878-0.11,1.49l0,0c0.309,1.024,1.148,1.893,1.871,1.937c0.258,0.015,0.474-0.077,0.624-0.267
					c0.253-0.321,0.295-0.878,0.11-1.491c-0.309-1.024-1.148-1.893-1.871-1.937c-0.019-0.001-0.037-0.002-0.055-0.002
					C7.761,32.151,7.565,32.244,7.425,32.42z"/>
			</g>
			<g>
				<path class="st7" d="M9.084,35.605c-0.627-0.038-1.353-0.781-1.617-1.658l0,0c-0.16-0.531-0.121-1.018,0.104-1.303
					c0.14-0.178,0.341-0.263,0.58-0.249c0.627,0.038,1.353,0.781,1.617,1.658c0.16,0.531,0.121,1.018-0.104,1.303
					c-0.13,0.165-0.312,0.251-0.529,0.251C9.118,35.606,9.101,35.606,9.084,35.605z M7.646,32.704
					c-0.206,0.26-0.238,0.715-0.087,1.216l0,0c0.254,0.841,0.941,1.555,1.532,1.59c0.206,0.013,0.379-0.061,0.499-0.213
					c0.206-0.26,0.239-0.715,0.087-1.216c-0.254-0.841-0.941-1.555-1.531-1.59c-0.015-0.001-0.03-0.001-0.044-0.001
					C7.914,32.489,7.757,32.562,7.646,32.704z"/>
			</g>
			<g>
				
					<ellipse transform="matrix(0.8728 -0.488 0.488 0.8728 -15.4972 8.5296)" class="st8" cx="8.618" cy="34" rx="0.678" ry="1.156"/>
			</g>
			<g>
				
					<ellipse transform="matrix(0.8728 -0.488 0.488 0.8728 -15.4972 8.5296)" class="st7" cx="8.618" cy="34" rx="0.328" ry="0.559"/>
			</g>
			<polygon class="st14" points="8.48,33.832 1.607,32.934 7.666,37.228 			"/>
		</g>
	</g>
	<g>
		<polygon class="st15" points="39.047,8.741 35.816,4.856 35.285,4.665 30.411,5.638 29.993,6 28.327,10.78 28.427,11.328 
			31.615,15.127 32.248,15.355 37.08,14.437 37.497,14.075 39.163,9.295 39.063,8.747 		"/>
		<polygon class="st3" points="33.87,9.706 33.854,9.7 33.389,10.037 34.022,10.265 		"/>
		<polygon class="st4" points="33.389,10.037 29.993,6 30.411,5.638 33.854,9.7 		"/>
		<g>
			<polygon class="st5" points="39.063,8.747 33.87,9.706 34.022,10.265 39.163,9.295 			"/>
			<polygon class="st5" points="31.615,15.127 32.248,15.355 34.022,10.265 33.389,10.037 			"/>
		</g>
		<g>
			<path class="st6" d="M35.229,5.755c-0.621-0.223-1.235-0.278-1.725-0.186l0.247,0.293c0.394-0.074,0.888-0.03,1.388,0.15
				L35.229,5.755z"/>
			<path class="st6" d="M35.022,6.348c-0.341-0.123-0.678-0.153-0.947-0.102l0.158,0.187c0.208-0.039,0.468-0.016,0.732,0.079
				L35.022,6.348z"/>
			<path class="st6" d="M37.019,7.878c0.127-0.363-0.011-0.782-0.335-1.167l-0.374,0.07c0.261,0.309,0.371,0.646,0.269,0.939
				L37.019,7.878z"/>
			<path class="st6" d="M36.006,7.514c0.07-0.2-0.006-0.43-0.184-0.641l-0.239,0.045c0.138,0.163,0.196,0.341,0.142,0.495
				L36.006,7.514z"/>
			<path class="st6" d="M34.401,8.128l-0.09,0.257c0.621,0.223,1.235,0.278,1.725,0.186l-0.247-0.293
				C35.395,8.352,34.901,8.308,34.401,8.128z"/>
			<path class="st6" d="M35.308,7.708c-0.208,0.039-0.468,0.016-0.732-0.079l-0.057,0.164c0.341,0.123,0.678,0.153,0.947,0.102
				L35.308,7.708z"/>
			<path class="st6" d="M32.961,6.42l-0.44-0.158c-0.127,0.363,0.011,0.782,0.335,1.167l0.374-0.07
				C32.969,7.05,32.859,6.712,32.961,6.42L32.961,6.42z"/>
			<path class="st6" d="M33.957,7.222c-0.138-0.163-0.196-0.341-0.142-0.495v0l-0.281-0.101v0c-0.07,0.2,0.006,0.43,0.184,0.641
				L33.957,7.222z"/>
			
				<ellipse transform="matrix(0.3428 -0.9394 0.9394 0.3428 16.1477 34.9305)" class="st7" cx="33.038" cy="5.925" rx="0.131" ry="0.225"/>
			
				<ellipse transform="matrix(0.3428 -0.9394 0.9394 0.3428 16.279 39.7168)" class="st7" cx="36.525" cy="8.224" rx="0.131" ry="0.225"/>
			
				<ellipse transform="matrix(0.3428 -0.9394 0.9394 0.3428 17.7693 37.891)" class="st7" cx="35.965" cy="6.246" rx="0.131" ry="0.225"/>
			
				<ellipse transform="matrix(0.3428 -0.9394 0.9394 0.3428 14.6572 36.7562)" class="st7" cx="33.598" cy="7.903" rx="0.131" ry="0.225"/>
		</g>
		<g>
			<path class="st8" d="M31.375,8.563c-0.313-0.426-0.67-0.599-0.995-0.534l0.065,0.476c0.261-0.052,0.549,0.087,0.8,0.43
				L31.375,8.563z"/>
			<path class="st8" d="M31.076,9.42c-0.172-0.234-0.368-0.329-0.546-0.294l0.041,0.304c0.138-0.028,0.29,0.046,0.422,0.227
				L31.076,9.42z"/>
			<path class="st8" d="M31.844,12.008c0.183-0.525,0.222-1.173,0.137-1.797l-0.248,0.05c0.068,0.502,0.037,1.023-0.11,1.446
				L31.844,12.008z"/>
			<path class="st8" d="M31.334,11.313c0.101-0.288,0.122-0.645,0.075-0.987l-0.158,0.032c0.036,0.265,0.019,0.54-0.058,0.763
				L31.334,11.313z"/>
			<path class="st8" d="M30.179,11.995l-0.13,0.372c0.313,0.426,0.67,0.599,0.995,0.534l-0.065-0.476
				C30.718,12.477,30.43,12.338,30.179,11.995z"/>
			<path class="st8" d="M30.853,11.499c-0.138,0.028-0.29-0.046-0.422-0.227l-0.083,0.237c0.172,0.234,0.368,0.329,0.546,0.294
				L30.853,11.499z"/>
			<path class="st8" d="M29.802,9.223L29.58,8.921c-0.183,0.525-0.222,1.173-0.137,1.797l0.248-0.05
				C29.623,10.167,29.654,9.645,29.802,9.223L29.802,9.223z"/>
			<path class="st8" d="M30.173,10.572c-0.036-0.265-0.019-0.54,0.058-0.763l0,0L30.09,9.617v0
				c-0.101,0.288-0.122,0.645-0.075,0.987L30.173,10.572z"/>
			
				<ellipse transform="matrix(0.9938 -0.1115 0.1115 0.9938 -0.7597 3.3961)" class="st7" cx="29.993" cy="8.492" rx="0.121" ry="0.231"/>
			
				<ellipse transform="matrix(0.9938 -0.1115 0.1115 0.9938 -1.1921 3.5824)" class="st7" cx="31.442" cy="12.452" rx="0.121" ry="0.231"/>
			
				<ellipse transform="matrix(0.9938 -0.1115 0.1115 0.9938 -0.8511 3.5897)" class="st7" cx="31.68" cy="9.407" rx="0.121" ry="0.231"/>
			
				<ellipse transform="matrix(0.9938 -0.1115 0.1115 0.9938 -1.1006 3.3887)" class="st7" cx="29.756" cy="11.538" rx="0.121" ry="0.231"/>
		</g>
		<g>
			<path class="st8" d="M36.467,10.392c0.507-0.132,0.892-0.038,1.104,0.22l-0.345,0.329c-0.171-0.207-0.48-0.283-0.888-0.177
				L36.467,10.392z"/>
			<path class="st8" d="M36.168,11.25c0.279-0.072,0.49-0.021,0.607,0.121l-0.221,0.21c-0.09-0.109-0.254-0.149-0.469-0.093
				L36.168,11.25z"/>
			<path class="st8" d="M33.968,12.771c0.183-0.525,0.554-1.054,1.007-1.485l0.162,0.197c-0.364,0.346-0.663,0.772-0.81,1.194
				L33.968,12.771z"/>
			<path class="st8" d="M34.796,12.556c0.101-0.288,0.305-0.579,0.553-0.815l0.104,0.126c-0.192,0.183-0.35,0.407-0.427,0.63
				L34.796,12.556z"/>
			<path class="st8" d="M35.271,13.825l-0.13,0.372c-0.507,0.132-0.892,0.038-1.104-0.22l0.345-0.329
				C34.553,13.855,34.863,13.931,35.271,13.825z"/>
			<path class="st8" d="M35.054,13.009c0.09,0.109,0.254,0.149,0.469,0.093l-0.083,0.237c-0.279,0.072-0.49,0.021-0.607-0.121
				L35.054,13.009z"/>
			<path class="st8" d="M37.282,11.911l0.359-0.093c-0.183,0.525-0.554,1.054-1.007,1.485l-0.162-0.197
				C36.836,12.759,37.134,12.333,37.282,11.911L37.282,11.911z"/>
			<path class="st8" d="M36.156,12.722c0.192-0.183,0.35-0.407,0.427-0.63v0l0.229-0.06v0c-0.101,0.288-0.305,0.579-0.553,0.815
				L36.156,12.722z"/>
			
				<ellipse transform="matrix(0.7043 -0.7099 0.7099 0.7043 3.148 29.9983)" class="st7" cx="37.585" cy="11.22" rx="0.23" ry="0.122"/>
			
				<ellipse transform="matrix(0.7043 -0.7099 0.7099 0.7043 0.5609 28.0935)" class="st7" cx="34.005" cy="13.373" rx="0.23" ry="0.122"/>
			
				<ellipse transform="matrix(0.7043 -0.7099 0.7099 0.7043 2.8526 28.5573)" class="st7" cx="35.708" cy="10.854" rx="0.23" ry="0.122"/>
			
				<ellipse transform="matrix(0.7043 -0.7099 0.7099 0.7043 0.8563 29.5345)" class="st7" cx="35.883" cy="13.739" rx="0.23" ry="0.122"/>
		</g>
	</g>
	<g>
		<polygon class="st16" points="20.941,38.91 16.741,36.447 16.194,36.447 12.04,38.91 11.774,39.373 11.774,44.235 12.04,44.699 
			16.173,47.098 16.825,47.098 20.958,44.699 21.225,44.235 21.225,39.373 20.958,38.91 		"/>
		<polygon class="st3" points="16.508,41.464 16.491,41.464 16.173,41.92 16.825,41.92 		"/>
		<polygon class="st4" points="16.173,41.92 11.774,39.373 12.04,38.91 16.491,41.464 		"/>
		<g>
			<polygon class="st5" points="20.958,38.91 16.508,41.464 16.825,41.92 21.225,39.373 			"/>
			<rect x="16.173" y="41.92" class="st5" width="0.653" height="5.178"/>
		</g>
		<g>
			<path class="st6" d="M16.491,37.451c-0.64,0-1.22,0.15-1.639,0.392l0.32,0.185c0.338-0.195,0.804-0.315,1.319-0.315V37.451z"/>
			<path class="st6" d="M16.491,38.054c-0.352,0-0.67,0.082-0.9,0.215l0.205,0.118c0.178-0.103,0.424-0.166,0.696-0.166V38.054z"/>
			<path class="st6" d="M18.809,38.789c0-0.369-0.259-0.704-0.679-0.946l-0.32,0.185c0.338,0.195,0.546,0.464,0.546,0.761H18.809z"
				/>
			<path class="st6" d="M17.764,38.789c0-0.203-0.143-0.387-0.373-0.52l-0.205,0.118c0.178,0.103,0.288,0.245,0.288,0.402H17.764z"
				/>
			<path class="st6" d="M16.491,39.865v0.262c0.64,0,1.22-0.15,1.639-0.392l-0.32-0.185C17.472,39.745,17.006,39.865,16.491,39.865z
				"/>
			<path class="st6" d="M17.186,39.19c-0.178,0.103-0.424,0.166-0.696,0.166v0.167c0.352,0,0.67-0.082,0.9-0.215L17.186,39.19z"/>
			<path class="st6" d="M14.626,38.789h-0.453c0,0.369,0.259,0.704,0.679,0.946l0.32-0.185
				C14.834,39.355,14.626,39.086,14.626,38.789L14.626,38.789z"/>
			<path class="st6" d="M15.795,39.19c-0.178-0.103-0.288-0.245-0.288-0.402l0,0h-0.289l0,0c0,0.203,0.143,0.387,0.373,0.52
				L15.795,39.19z"/>
			<ellipse class="st7" cx="14.539" cy="38.316" rx="0.218" ry="0.126"/>
			<ellipse class="st7" cx="18.466" cy="39.262" rx="0.218" ry="0.126"/>
			<ellipse class="st7" cx="17.322" cy="37.655" rx="0.218" ry="0.126"/>
			<ellipse class="st7" cx="15.683" cy="39.922" rx="0.218" ry="0.126"/>
		</g>
		<g>
			<path class="st8" d="M13.857,41.241c-0.422-0.284-0.805-0.324-1.082-0.16l0.211,0.41c0.223-0.132,0.53-0.1,0.87,0.129V41.241z"/>
			<path class="st8" d="M13.857,42.113c-0.232-0.156-0.442-0.178-0.594-0.088l0.135,0.261c0.118-0.07,0.28-0.053,0.459,0.068V42.113
				z"/>
			<path class="st8" d="M15.387,44.204c0-0.534-0.171-1.133-0.448-1.669l-0.211,0.125c0.223,0.431,0.36,0.913,0.36,1.343
				L15.387,44.204z"/>
			<path class="st8" d="M14.698,43.74c0-0.293-0.094-0.622-0.246-0.917l-0.135,0.08c0.118,0.228,0.19,0.482,0.19,0.709L14.698,43.74
				z"/>
			<path class="st8" d="M13.857,44.733v0.378c0.422,0.284,0.805,0.324,1.082,0.16l-0.211-0.41
				C14.505,44.993,14.197,44.961,13.857,44.733z"/>
			<path class="st8" d="M14.317,44.065c-0.118,0.07-0.28,0.053-0.459-0.068v0.241c0.232,0.156,0.442,0.178,0.594,0.088
				L14.317,44.065z"/>
			<path class="st8" d="M12.627,42.349l-0.299-0.201c0,0.534,0.171,1.133,0.448,1.669l0.211-0.125
				C12.765,43.26,12.627,42.779,12.627,42.349L12.627,42.349z"/>
			<path class="st8" d="M13.398,43.448c-0.118-0.228-0.19-0.482-0.19-0.709v0l-0.191-0.128l0,0c0,0.293,0.094,0.622,0.246,0.917
				L13.398,43.448z"/>
			
				<ellipse transform="matrix(0.899 -0.438 0.438 0.899 -16.9631 9.7113)" class="st7" cx="12.569" cy="41.626" rx="0.118" ry="0.222"/>
			
				<ellipse transform="matrix(0.899 -0.438 0.438 0.899 -18.0636 11.1608)" class="st7" cx="15.161" cy="44.736" rx="0.118" ry="0.222"/>
			
				<ellipse transform="matrix(0.899 -0.438 0.438 0.899 -16.8999 10.544)" class="st7" cx="14.406" cy="41.905" rx="0.118" ry="0.222"/>
			
				<ellipse transform="matrix(0.899 -0.438 0.438 0.899 -18.1268 10.3281)" class="st7" cx="13.324" cy="44.457" rx="0.118" ry="0.222"/>
		</g>
		<g>
			<path class="st8" d="M19.106,41.241c0.422-0.284,0.805-0.324,1.082-0.16l-0.211,0.41c-0.223-0.132-0.53-0.1-0.87,0.129V41.241z"
				/>
			<path class="st8" d="M19.106,42.113c0.232-0.156,0.442-0.178,0.594-0.088l-0.135,0.261c-0.118-0.07-0.28-0.053-0.459,0.068
				V42.113z"/>
			<path class="st8" d="M17.576,44.204c0-0.534,0.171-1.133,0.448-1.669l0.211,0.125c-0.223,0.431-0.36,0.913-0.36,1.343
				L17.576,44.204z"/>
			<path class="st8" d="M18.266,43.74c0-0.293,0.094-0.622,0.246-0.917l0.135,0.08c-0.118,0.228-0.19,0.482-0.19,0.709L18.266,43.74
				z"/>
			<path class="st8" d="M19.106,44.733v0.378c-0.422,0.284-0.805,0.324-1.082,0.16l0.211-0.41
				C18.458,44.993,18.766,44.961,19.106,44.733z"/>
			<path class="st8" d="M18.647,44.065c0.118,0.07,0.28,0.053,0.459-0.068v0.241c-0.232,0.156-0.442,0.178-0.594,0.088
				L18.647,44.065z"/>
			<path class="st8" d="M20.336,42.349l0.299-0.201c0,0.534-0.171,1.133-0.448,1.669l-0.211-0.125
				C20.199,43.26,20.336,42.779,20.336,42.349L20.336,42.349z"/>
			<path class="st8" d="M19.565,43.448c0.118-0.228,0.19-0.482,0.19-0.709v0l0.191-0.128l0,0c0,0.293-0.094,0.622-0.246,0.917
				L19.565,43.448z"/>
			
				<ellipse transform="matrix(0.438 -0.899 0.899 0.438 -25.9595 41.7265)" class="st7" cx="20.394" cy="41.626" rx="0.222" ry="0.118"/>
			
				<ellipse transform="matrix(0.438 -0.899 0.899 0.438 -30.2114 41.1442)" class="st7" cx="17.802" cy="44.736" rx="0.222" ry="0.118"/>
			
				<ellipse transform="matrix(0.438 -0.899 0.899 0.438 -27.2426 40.2324)" class="st7" cx="18.557" cy="41.905" rx="0.222" ry="0.118"/>
			
				<ellipse transform="matrix(0.438 -0.899 0.899 0.438 -28.9283 42.6383)" class="st7" cx="19.639" cy="44.457" rx="0.222" ry="0.118"/>
		</g>
	</g>
	<g>
		<polygon class="st17" points="30.664,30.957 26.464,28.494 25.917,28.494 21.763,30.957 21.496,31.42 21.496,36.283 
			21.763,36.746 25.895,39.145 26.548,39.145 30.681,36.746 30.947,36.283 30.947,31.42 30.681,30.957 		"/>
		<polygon class="st3" points="26.23,33.511 26.213,33.511 25.895,33.967 26.548,33.967 		"/>
		<polygon class="st4" points="25.895,33.967 21.496,31.42 21.763,30.957 26.213,33.511 		"/>
		<g>
			<polygon class="st5" points="30.681,30.957 26.23,33.511 26.548,33.967 30.947,31.42 			"/>
			<rect x="25.895" y="33.967" class="st5" width="0.653" height="5.178"/>
		</g>
		<g>
			<path class="st6" d="M26.213,29.498c-0.64,0-1.22,0.15-1.639,0.392l0.32,0.185c0.337-0.195,0.804-0.315,1.319-0.315V29.498z"/>
			<path class="st6" d="M26.213,30.101c-0.352,0-0.67,0.082-0.9,0.215l0.205,0.118c0.178-0.103,0.424-0.166,0.696-0.166V30.101z"/>
			<path class="st6" d="M28.531,30.836c0-0.369-0.259-0.704-0.679-0.946l-0.32,0.185c0.337,0.195,0.546,0.464,0.546,0.761H28.531z"
				/>
			<path class="st6" d="M27.487,30.836c0-0.203-0.143-0.387-0.373-0.52l-0.205,0.118c0.178,0.103,0.288,0.245,0.288,0.402H27.487z"
				/>
			<path class="st6" d="M26.213,31.913v0.262c0.64,0,1.22-0.15,1.639-0.392l-0.32-0.185C27.194,31.792,26.728,31.913,26.213,31.913z
				"/>
			<path class="st6" d="M26.909,31.238c-0.178,0.103-0.424,0.166-0.696,0.166v0.167c0.352,0,0.67-0.082,0.9-0.215L26.909,31.238z"/>
			<path class="st6" d="M24.348,30.836h-0.453c0,0.369,0.259,0.704,0.679,0.946l0.32-0.185
				C24.557,31.402,24.348,31.133,24.348,30.836L24.348,30.836z"/>
			<path class="st6" d="M25.517,31.238c-0.178-0.103-0.288-0.245-0.288-0.402v0H24.94v0c0,0.203,0.143,0.387,0.373,0.52
				L25.517,31.238z"/>
			<ellipse class="st7" cx="24.261" cy="30.363" rx="0.218" ry="0.126"/>
			<ellipse class="st7" cx="28.189" cy="31.309" rx="0.218" ry="0.126"/>
			<ellipse class="st7" cx="27.044" cy="29.703" rx="0.218" ry="0.126"/>
			<ellipse class="st7" cx="25.405" cy="31.97" rx="0.218" ry="0.126"/>
		</g>
		<g>
			<path class="st8" d="M23.58,33.288c-0.422-0.284-0.805-0.324-1.082-0.16l0.211,0.41c0.223-0.132,0.53-0.1,0.87,0.129V33.288z"/>
			<path class="st8" d="M23.58,34.16c-0.232-0.156-0.442-0.178-0.594-0.088l0.135,0.261c0.118-0.07,0.28-0.053,0.459,0.068V34.16z"
				/>
			<path class="st8" d="M25.11,36.251c0-0.534-0.171-1.133-0.448-1.669l-0.211,0.125c0.223,0.431,0.36,0.913,0.36,1.343
				L25.11,36.251z"/>
			<path class="st8" d="M24.42,35.788c0-0.293-0.094-0.622-0.246-0.917l-0.135,0.08c0.118,0.228,0.19,0.482,0.19,0.709L24.42,35.788
				z"/>
			<path class="st8" d="M23.58,36.78v0.378c0.422,0.284,0.805,0.324,1.082,0.16l-0.211-0.41C24.227,37.041,23.92,37.008,23.58,36.78
				z"/>
			<path class="st8" d="M24.039,36.112c-0.118,0.07-0.28,0.053-0.459-0.068v0.241c0.232,0.156,0.442,0.178,0.594,0.088
				L24.039,36.112z"/>
			<path class="st8" d="M22.349,34.396l-0.299-0.201c0,0.534,0.171,1.133,0.448,1.669l0.211-0.125
				C22.487,35.308,22.349,34.826,22.349,34.396L22.349,34.396z"/>
			<path class="st8" d="M23.121,35.495c-0.118-0.228-0.19-0.482-0.19-0.709v0l-0.191-0.128v0c0,0.293,0.094,0.622,0.246,0.917
				L23.121,35.495z"/>
			
				<ellipse transform="matrix(0.899 -0.438 0.438 0.899 -12.4974 13.1665)" class="st7" cx="22.292" cy="33.673" rx="0.118" ry="0.222"/>
			
				<ellipse transform="matrix(0.899 -0.438 0.438 0.899 -13.5978 14.616)" class="st7" cx="24.883" cy="36.783" rx="0.118" ry="0.222"/>
			
				<ellipse transform="matrix(0.899 -0.438 0.438 0.899 -12.4341 13.9992)" class="st7" cx="24.128" cy="33.953" rx="0.118" ry="0.222"/>
			
				<ellipse transform="matrix(0.899 -0.438 0.438 0.899 -13.661 13.7833)" class="st7" cx="23.047" cy="36.504" rx="0.118" ry="0.222"/>
		</g>
		<g>
			<path class="st8" d="M28.828,33.288c0.422-0.284,0.805-0.324,1.082-0.16l-0.211,0.41c-0.223-0.132-0.53-0.1-0.87,0.129V33.288z"
				/>
			<path class="st8" d="M28.828,34.16c0.232-0.156,0.442-0.178,0.594-0.088l-0.135,0.261c-0.118-0.07-0.28-0.053-0.459,0.068V34.16z
				"/>
			<path class="st8" d="M27.299,36.251c0-0.534,0.171-1.133,0.448-1.669l0.211,0.125c-0.223,0.431-0.36,0.913-0.36,1.343
				L27.299,36.251z"/>
			<path class="st8" d="M27.988,35.788c0-0.293,0.094-0.622,0.246-0.917l0.135,0.08c-0.118,0.228-0.19,0.482-0.19,0.709
				L27.988,35.788z"/>
			<path class="st8" d="M28.828,36.78v0.378c-0.422,0.284-0.805,0.324-1.082,0.16l0.211-0.41
				C28.181,37.041,28.489,37.008,28.828,36.78z"/>
			<path class="st8" d="M28.369,36.112c0.118,0.07,0.28,0.053,0.459-0.068v0.241c-0.232,0.156-0.442,0.178-0.594,0.088
				L28.369,36.112z"/>
			<path class="st8" d="M30.059,34.396l0.299-0.201c0,0.534-0.171,1.133-0.448,1.669l-0.211-0.125
				C29.921,35.308,30.059,34.826,30.059,34.396L30.059,34.396z"/>
			<path class="st8" d="M29.288,35.495c0.118-0.228,0.19-0.482,0.19-0.709v0l0.191-0.128v0c0,0.293-0.094,0.622-0.246,0.917
				L29.288,35.495z"/>
			
				<ellipse transform="matrix(0.438 -0.899 0.899 0.438 -13.3464 45.9975)" class="st7" cx="30.116" cy="33.673" rx="0.222" ry="0.118"/>
			
				<ellipse transform="matrix(0.438 -0.899 0.899 0.438 -17.5983 45.4152)" class="st7" cx="27.525" cy="36.783" rx="0.222" ry="0.118"/>
			
				<ellipse transform="matrix(0.438 -0.899 0.899 0.438 -14.6295 44.5034)" class="st7" cx="28.28" cy="33.953" rx="0.222" ry="0.118"/>
			
				<ellipse transform="matrix(0.438 -0.899 0.899 0.438 -16.3153 46.9093)" class="st7" cx="29.362" cy="36.504" rx="0.222" ry="0.118"/>
		</g>
	</g>
	<g>
		<polygon class="st18" points="33.27,23.081 29.07,20.619 28.523,20.619 24.369,23.081 24.103,23.545 24.103,28.407 24.369,28.87 
			28.502,31.27 29.155,31.27 33.287,28.87 33.554,28.407 33.554,23.545 33.287,23.081 		"/>
		<polygon class="st3" points="28.837,25.635 28.82,25.635 28.502,26.092 29.155,26.092 		"/>
		<polygon class="st4" points="28.502,26.092 24.103,23.545 24.369,23.081 28.82,25.635 		"/>
		<g>
			<polygon class="st5" points="33.287,23.081 28.837,25.635 29.155,26.092 33.554,23.545 			"/>
			<rect x="28.502" y="26.092" class="st5" width="0.653" height="5.178"/>
		</g>
		<g>
			<path class="st6" d="M28.82,21.622c-0.64,0-1.22,0.15-1.639,0.392l0.32,0.185c0.338-0.195,0.804-0.315,1.319-0.315V21.622z"/>
			<path class="st6" d="M28.82,22.225c-0.352,0-0.67,0.082-0.9,0.215l0.205,0.118c0.178-0.103,0.424-0.166,0.696-0.166V22.225z"/>
			<path class="st6" d="M31.138,22.96c0-0.369-0.259-0.704-0.679-0.946l-0.32,0.185c0.338,0.195,0.546,0.464,0.546,0.761H31.138z"/>
			<path class="st6" d="M30.093,22.96c0-0.203-0.143-0.387-0.373-0.52l-0.205,0.118c0.178,0.103,0.288,0.245,0.288,0.402H30.093z"/>
			<path class="st6" d="M28.82,24.037v0.262c0.64,0,1.22-0.15,1.639-0.392l-0.32-0.185C29.801,23.916,29.335,24.037,28.82,24.037z"
				/>
			<path class="st6" d="M29.516,23.362c-0.178,0.103-0.424,0.166-0.696,0.166v0.167c0.352,0,0.67-0.082,0.9-0.215L29.516,23.362z"/>
			<path class="st6" d="M26.955,22.96h-0.453c0,0.369,0.259,0.704,0.679,0.946l0.32-0.185C27.164,23.527,26.955,23.258,26.955,22.96
				L26.955,22.96z"/>
			<path class="st6" d="M28.124,23.362c-0.178-0.103-0.288-0.245-0.288-0.402v0h-0.289v0c0,0.203,0.143,0.387,0.373,0.52
				L28.124,23.362z"/>
			<ellipse class="st7" cx="26.868" cy="22.487" rx="0.218" ry="0.126"/>
			<ellipse class="st7" cx="30.795" cy="23.433" rx="0.218" ry="0.126"/>
			<ellipse class="st7" cx="29.651" cy="21.827" rx="0.218" ry="0.126"/>
			<ellipse class="st7" cx="28.012" cy="24.094" rx="0.218" ry="0.126"/>
		</g>
		<g>
			<path class="st8" d="M26.187,25.413c-0.422-0.284-0.805-0.324-1.082-0.16l0.211,0.41c0.223-0.132,0.53-0.1,0.87,0.129V25.413z"/>
			<path class="st8" d="M26.187,26.285c-0.232-0.156-0.442-0.178-0.594-0.088l0.135,0.261c0.118-0.07,0.28-0.053,0.459,0.068V26.285
				z"/>
			<path class="st8" d="M27.716,28.375c0-0.534-0.171-1.133-0.448-1.669l-0.211,0.125c0.223,0.431,0.36,0.913,0.36,1.343
				L27.716,28.375z"/>
			<path class="st8" d="M27.027,27.912c0-0.293-0.094-0.622-0.246-0.917l-0.135,0.08c0.118,0.228,0.19,0.482,0.19,0.709
				L27.027,27.912z"/>
			<path class="st8" d="M26.187,28.904v0.378c0.422,0.284,0.805,0.324,1.082,0.16l-0.211-0.41
				C26.834,29.165,26.526,29.132,26.187,28.904z"/>
			<path class="st8" d="M26.646,28.237c-0.118,0.07-0.28,0.053-0.459-0.068v0.241c0.232,0.156,0.442,0.178,0.594,0.088
				L26.646,28.237z"/>
			<path class="st8" d="M24.956,26.52l-0.299-0.201c0,0.534,0.171,1.133,0.448,1.669l0.211-0.125
				C25.094,27.432,24.956,26.95,24.956,26.52L24.956,26.52z"/>
			<path class="st8" d="M25.728,27.62c-0.118-0.228-0.19-0.482-0.19-0.709v0l-0.191-0.128v0c0,0.293,0.094,0.622,0.246,0.917
				L25.728,27.62z"/>
			
				<ellipse transform="matrix(0.899 -0.438 0.438 0.899 -8.7843 13.5125)" class="st7" cx="24.899" cy="25.798" rx="0.118" ry="0.222"/>
			
				<ellipse transform="matrix(0.899 -0.438 0.438 0.899 -9.8846 14.962)" class="st7" cx="27.49" cy="28.907" rx="0.118" ry="0.222"/>
			
				<ellipse transform="matrix(0.899 -0.438 0.438 0.899 -8.721 14.3452)" class="st7" cx="26.735" cy="26.077" rx="0.118" ry="0.222"/>
			
				<ellipse transform="matrix(0.899 -0.438 0.438 0.899 -9.9479 14.1293)" class="st7" cx="25.654" cy="28.628" rx="0.118" ry="0.222"/>
		</g>
		<g>
			<path class="st19" d="M33.001,27.284c-0.386,1.18-1.392,2.155-2.248,2.178c-0.856,0.023-1.237-0.914-0.852-2.094
				c0.386-1.18,1.392-2.155,2.248-2.178c0.197-0.005,0.369,0.04,0.513,0.128C33.14,25.611,33.298,26.376,33.001,27.284z"/>
			<path class="st20" d="M32.92,27.286c-0.365,1.118-1.319,2.043-2.131,2.065c-0.811,0.022-1.173-0.867-0.807-1.985
				c0.365-1.118,1.319-2.043,2.131-2.065c0.187-0.005,0.35,0.038,0.486,0.122C33.052,25.701,33.201,26.425,32.92,27.286z"/>
			<g>
				<path class="st19" d="M33.26,26.587c-0.114,0.349-0.411,0.637-0.664,0.644s-0.366-0.27-0.252-0.619
					c0.114-0.349,0.411-0.637,0.664-0.644c0.058-0.002,0.109,0.012,0.152,0.038C33.301,26.093,33.348,26.319,33.26,26.587z"/>
				<path d="M33.236,26.588c-0.108,0.33-0.39,0.604-0.63,0.61c-0.24,0.007-0.347-0.256-0.239-0.587c0.108-0.33,0.39-0.604,0.63-0.61
					c0.055-0.002,0.103,0.011,0.144,0.036C33.275,26.119,33.319,26.333,33.236,26.588z"/>
				<path class="st19" d="M30.572,28.063c-0.114,0.349-0.411,0.637-0.664,0.644c-0.253,0.007-0.366-0.27-0.252-0.619
					c0.114-0.349,0.411-0.637,0.664-0.644c0.058-0.002,0.109,0.012,0.152,0.038C30.613,27.569,30.66,27.795,30.572,28.063z"/>
				<path d="M30.548,28.064c-0.108,0.33-0.39,0.604-0.63,0.61c-0.24,0.007-0.347-0.256-0.239-0.587c0.108-0.33,0.39-0.604,0.63-0.61
					c0.055-0.002,0.103,0.011,0.144,0.036C30.587,27.595,30.631,27.809,30.548,28.064z"/>
			</g>
		</g>
	</g>
	<g>
		<polygon class="st21" points="7.627,23.008 11.827,20.545 12.374,20.545 16.528,23.008 16.795,23.471 16.795,28.334 
			16.528,28.797 12.395,31.196 11.743,31.196 7.61,28.797 7.344,28.334 7.344,23.471 7.61,23.008 		"/>
		<polygon class="st3" points="12.061,25.562 12.078,25.562 12.395,26.018 11.743,26.018 		"/>
		<polygon class="st4" points="12.395,26.018 16.795,23.471 16.528,23.008 12.078,25.562 		"/>
		<g>
			<polygon class="st5" points="7.61,23.008 12.061,25.562 11.743,26.018 7.344,23.471 			"/>
			<rect x="11.743" y="26.018" class="st5" width="0.653" height="5.178"/>
		</g>
		<g>
			<path class="st6" d="M12.078,21.549c0.64,0,1.22,0.15,1.639,0.392l-0.32,0.185c-0.338-0.195-0.804-0.315-1.319-0.315V21.549z"/>
			<path class="st6" d="M12.078,22.152c0.352,0,0.67,0.082,0.9,0.215l-0.205,0.118c-0.178-0.103-0.424-0.166-0.696-0.166V22.152z"/>
			<path class="st6" d="M9.76,22.887c0-0.369,0.259-0.704,0.679-0.946l0.32,0.185c-0.338,0.195-0.546,0.464-0.546,0.761H9.76z"/>
			<path class="st6" d="M10.804,22.887c0-0.203,0.143-0.387,0.373-0.52l0.205,0.118c-0.178,0.103-0.288,0.245-0.288,0.402H10.804z"
				/>
			<path class="st6" d="M12.078,23.963v0.262c-0.64,0-1.22-0.15-1.639-0.392l0.32-0.185C11.097,23.843,11.563,23.963,12.078,23.963z
				"/>
			<path class="st6" d="M11.382,23.289c0.178,0.103,0.424,0.166,0.696,0.166v0.167c-0.352,0-0.67-0.082-0.9-0.215L11.382,23.289z"/>
			<path class="st6" d="M13.943,22.887h0.453c0,0.369-0.259,0.704-0.679,0.946l-0.32-0.185
				C13.734,23.453,13.943,23.184,13.943,22.887L13.943,22.887z"/>
			<path class="st6" d="M12.774,23.289c0.178-0.103,0.288-0.245,0.288-0.402v0h0.289v0c0,0.203-0.143,0.387-0.373,0.52
				L12.774,23.289z"/>
			<ellipse class="st7" cx="14.03" cy="22.414" rx="0.218" ry="0.126"/>
			<ellipse class="st7" cx="10.102" cy="23.36" rx="0.218" ry="0.126"/>
			<ellipse class="st7" cx="11.247" cy="21.753" rx="0.218" ry="0.126"/>
			<ellipse class="st7" cx="12.886" cy="24.02" rx="0.218" ry="0.126"/>
		</g>
		<g>
			<path class="st8" d="M14.711,25.339c0.422-0.284,0.805-0.324,1.082-0.16l-0.211,0.41c-0.223-0.132-0.53-0.1-0.87,0.129V25.339z"
				/>
			<path class="st8" d="M14.711,26.211c0.232-0.156,0.442-0.178,0.594-0.088l-0.135,0.261c-0.118-0.07-0.28-0.053-0.459,0.068
				V26.211z"/>
			<path class="st8" d="M13.181,28.302c0-0.534,0.171-1.133,0.448-1.669l0.211,0.125c-0.223,0.431-0.36,0.913-0.36,1.343
				L13.181,28.302z"/>
			<path class="st8" d="M13.871,27.839c0-0.293,0.094-0.622,0.246-0.917l0.135,0.08c-0.118,0.228-0.19,0.482-0.19,0.709
				L13.871,27.839z"/>
			<path class="st8" d="M14.711,28.831v0.378c-0.422,0.284-0.805,0.324-1.082,0.16l0.211-0.41
				C14.063,29.092,14.371,29.059,14.711,28.831z"/>
			<path class="st8" d="M14.252,28.163c0.118,0.07,0.28,0.053,0.459-0.068v0.241c-0.232,0.156-0.442,0.178-0.594,0.088
				L14.252,28.163z"/>
			<path class="st8" d="M15.942,26.447l0.299-0.201c0,0.534-0.171,1.133-0.448,1.669l-0.211-0.125
				C15.804,27.359,15.942,26.877,15.942,26.447L15.942,26.447z"/>
			<path class="st8" d="M15.17,27.546c0.118-0.228,0.19-0.482,0.19-0.709v0l0.191-0.128v0c0,0.293-0.094,0.622-0.246,0.917
				L15.17,27.546z"/>
			
				<ellipse transform="matrix(0.438 -0.899 0.899 0.438 -14.1341 28.8391)" class="st7" cx="15.999" cy="25.724" rx="0.222" ry="0.118"/>
			
				<ellipse transform="matrix(0.438 -0.899 0.899 0.438 -18.386 28.2569)" class="st7" cx="13.408" cy="28.834" rx="0.222" ry="0.118"/>
			
				<ellipse transform="matrix(0.438 -0.899 0.899 0.438 -15.4172 27.345)" class="st7" cx="14.162" cy="26.003" rx="0.222" ry="0.118"/>
			
				<ellipse transform="matrix(0.438 -0.899 0.899 0.438 -17.1029 29.751)" class="st7" cx="15.244" cy="28.555" rx="0.222" ry="0.118"/>
		</g>
		<g>
			<g>
				<polygon class="st22" points="11.255,29.278 11.255,30.141 11.416,30.241 11.536,30.161 11.536,29.572 11.456,29.385 				"/>
				<g>
					<polygon class="st11" points="11.335,29.984 11.396,30.017 11.396,29.596 11.335,29.562 					"/>
				</g>
				<path class="st22" d="M11.335,27.21c0.002,0.025,0,0.482,0,0.482l0.243,0.06v-0.311L11.335,27.21z"/>
				<g>
					<polygon class="st11" points="11.526,27.545 11.526,27.485 11.388,27.417 11.388,27.478 					"/>
				</g>
				<g>
					<polygon class="st11" points="11.526,27.635 11.526,27.575 11.388,27.508 11.388,27.568 					"/>
				</g>
			</g>
			<g class="st23">
				<path class="st11" d="M10.88,30.663h0.06v-0.349l-0.881-1.65l-2.045-1.209c-0.034-0.015-0.191-0.079-0.266-0.041
					c-0.085,0.043-0.114,0.209-0.114,0.278v1.104h0.06v-1.104c0-0.073,0.032-0.2,0.08-0.224c0.037-0.019,0.147,0.013,0.212,0.041
					l2.027,1.198l0.866,1.622V30.663z"/>
			</g>
		</g>
		<g>
			<polygon class="st11" points="8.53,28.592 8.514,28.619 7.883,28.253 7.899,28.226 			"/>
			<polygon class="st11" points="8.53,28.69 8.514,28.718 7.883,28.352 7.899,28.324 			"/>
			<polygon class="st11" points="8.53,28.789 8.514,28.816 7.883,28.45 7.899,28.423 			"/>
			<polygon class="st11" points="8.53,28.887 8.514,28.914 7.883,28.548 7.899,28.521 			"/>
			<polygon class="st11" points="7.883,28.155 7.899,28.127 8.53,28.494 8.514,28.521 			"/>
		</g>
	</g>
	<g class="st0">
		<polyline class="st1" points="16.815,48.893 16.836,48.893 22.477,45.656 17.212,42.535 16.519,42.535 11.196,45.656 
			11.174,45.656 16.815,48.893 		"/>
	</g>
	<g class="st0">
		<polyline class="st1" points="23.272,45.714 23.294,45.714 28.934,42.477 23.67,39.355 22.976,39.355 17.653,42.477 
			17.632,42.477 23.272,45.714 		"/>
	</g>
</g>
</svg>
