<?xml version="1.0" encoding="utf-8"?>
<!-- Generator: Adobe Illustrator 25.4.1, SVG Export Plug-In . SVG Version: 6.00 Build 0)  -->
<svg version="1.1" id="Layer_1" xmlns="http://www.w3.org/2000/svg" xmlns:xlink="http://www.w3.org/1999/xlink" x="0px" y="0px"
	 viewBox="0 0 50 50" style="enable-background:new 0 0 50 50;" xml:space="preserve">
<style type="text/css">
	.st0{opacity:0.5;}
	.st1{opacity:0.25;fill:#C0C7CA;enable-background:new    ;}
	.st2{fill:#C4CBC7;}
	.st3{opacity:0.6;fill:#FFFFFF;enable-background:new    ;}
	.st4{opacity:0.12;fill:#FFFFFF;enable-background:new    ;}
	.st5{opacity:0.25;fill:#FFFFFF;enable-background:new    ;}
	.st6{fill:#A6A6A6;}
	.st7{fill:#FFFFFF;}
	.st8{fill:#7B7B7B;}
	.st9{opacity:0.17;fill:#FFFFFF;enable-background:new    ;}
	.st10{fill:#94E2FF;}
	.st11{fill:#EAEAEA;}
	.st12{fill:#8EC500;}
	.st13{fill:#E81950;}
	.st14{fill:#373B3F;}
	.st15{fill:#C6C9C8;}
	.st16{fill:#2D2D2E;}
	.st17{fill:#285B6E;}
	.st18{fill:#080909;}
	.st19{fill:#CFCFCF;}
	.st20{opacity:0.6;}
	.st21{fill:#DD8626;}
	.st22{fill:#1B1618;}
	.st23{fill:#474749;}
</style>
<g class="st0">
	<polyline class="st1" points="29.68,33.686 35.321,30.449 35.299,30.449 29.976,27.328 28.189,26.651 22.925,29.772 29.659,33.686 
		29.68,33.686 	"/>
</g>
<g class="st0">
	<polyline class="st1" points="8.746,45.474 15.928,42.237 15.906,42.237 12.07,39.116 11.376,39.116 4.625,42.237 8.724,45.474 
		8.746,45.474 	"/>
</g>
<g>
	<ellipse transform="matrix(0.7488 -0.6628 0.6628 0.7488 -23.3906 25.984)" cx="22.584" cy="43.85" rx="0.675" ry="0.862"/>
	<ellipse transform="matrix(0.7488 -0.6628 0.6628 0.7488 -23.1364 24.3331)" cx="20.533" cy="42.689" rx="0.675" ry="0.862"/>
	<polygon class="st2" points="19.23,36.107 18.954,36.586 18.954,41.623 19.23,42.103 23.511,44.589 24.187,44.589 28.468,42.103 
		28.744,41.623 28.744,36.586 28.468,36.107 24.165,33.555 23.598,33.555 19.248,36.107 	"/>
	<polygon class="st3" points="23.511,39.225 24.187,39.225 23.858,38.752 23.84,38.752 	"/>
	<polygon class="st4" points="23.858,38.752 28.468,36.107 28.744,36.586 24.187,39.225 	"/>
	<g>
		<polygon class="st5" points="18.954,36.586 23.511,39.225 23.84,38.752 19.23,36.107 		"/>
		<rect x="23.511" y="39.225" class="st5" width="0.676" height="5.364"/>
	</g>
	<g>
		<path class="st6" d="M23.858,34.866c0.533,0,1.016,0.125,1.366,0.327l0.332-0.192c-0.435-0.251-1.035-0.406-1.698-0.406V34.866z"
			/>
		<path class="st6" d="M23.858,35.393c0.282,0,0.537,0.066,0.721,0.172l0.212-0.122c-0.239-0.138-0.569-0.223-0.933-0.223V35.393z"
			/>
		<path class="st6" d="M21.457,35.982h0.469c0-0.308,0.216-0.587,0.566-0.789l-0.332-0.192c-0.434,0.251-0.703,0.597-0.703,0.98
			V35.982z"/>
		<path class="st6" d="M22.838,35.981c0-0.162,0.115-0.31,0.299-0.416l-0.212-0.122c-0.238,0.137-0.386,0.328-0.386,0.538
			C22.539,35.981,22.838,35.981,22.838,35.981z"/>
		<path class="st6" d="M22.492,36.769l-0.332,0.192c0.435,0.251,1.035,0.406,1.698,0.406v-0.271
			C23.325,37.096,22.842,36.971,22.492,36.769z"/>
		<path class="st6" d="M22.925,36.519c0.239,0.138,0.569,0.223,0.933,0.223v-0.173c-0.282,0-0.537-0.066-0.721-0.172L22.925,36.519z
			"/>
		<path class="st6" d="M25.79,35.981c0,0.308-0.216,0.587-0.566,0.788l0.332,0.192c0.434-0.251,0.703-0.597,0.703-0.98H25.79
			L25.79,35.981z"/>
		<path class="st6" d="M24.792,36.519c0.238-0.137,0.386-0.328,0.386-0.538l0,0h-0.3l0,0c0,0.162-0.115,0.31-0.299,0.416
			L24.792,36.519z"/>
		<ellipse class="st7" cx="25.88" cy="35.491" rx="0.226" ry="0.13"/>
		<ellipse class="st7" cx="21.812" cy="36.471" rx="0.226" ry="0.13"/>
		<ellipse class="st7" cx="22.997" cy="34.807" rx="0.226" ry="0.13"/>
		<ellipse class="st7" cx="24.695" cy="37.155" rx="0.226" ry="0.13"/>
	</g>
	<g>
		<path class="st6" d="M26.586,38.912c0.352-0.236,0.67-0.27,0.901-0.133l0.219-0.424c-0.286-0.17-0.682-0.128-1.12,0.166
			C26.586,38.521,26.586,38.912,26.586,38.912z"/>
		<path class="st6" d="M26.585,39.425v0.25c0.186-0.124,0.354-0.142,0.476-0.07l0.14-0.271
			C27.044,39.24,26.826,39.263,26.585,39.425L26.585,39.425z"/>
		<path class="st6" d="M25.311,41.382c0-0.445,0.142-0.944,0.373-1.391l-0.219-0.13c-0.287,0.555-0.464,1.176-0.464,1.729
			L25.311,41.382z"/>
		<path class="st6" d="M25.913,40.978c0-0.235,0.075-0.498,0.197-0.734l-0.14-0.083c-0.158,0.305-0.255,0.646-0.255,0.95
			L25.913,40.978z"/>
		<path class="st6" d="M25.685,42.272l-0.219,0.424c0.286,0.17,0.682,0.128,1.12-0.166v-0.392
			C26.234,42.375,25.915,42.408,25.685,42.272z"/>
		<path class="st6" d="M25.971,41.718c0.157,0.094,0.375,0.071,0.615-0.091v-0.25c-0.186,0.124-0.354,0.142-0.476,0.07
			L25.971,41.718z"/>
		<path class="st6" d="M27.861,39.669c0,0.445-0.143,0.944-0.373,1.391l0.219,0.13c0.287-0.555,0.464-1.176,0.464-1.729
			L27.861,39.669L27.861,39.669z"/>
		<path class="st6" d="M27.201,40.891c0.158-0.305,0.255-0.646,0.255-0.95l0,0l-0.198,0.133l0,0c0,0.235-0.075,0.498-0.197,0.734
			L27.201,40.891z"/>
		
			<ellipse transform="matrix(0.438 -0.899 0.899 0.438 -19.2983 46.9743)" class="st7" cx="27.92" cy="38.922" rx="0.23" ry="0.122"/>
		
			<ellipse transform="matrix(0.438 -0.899 0.899 0.438 -23.7038 46.3723)" class="st7" cx="25.236" cy="42.144" rx="0.23" ry="0.122"/>
		
			<ellipse transform="matrix(0.438 -0.899 0.899 0.438 -20.6283 45.4271)" class="st7" cx="26.018" cy="39.212" rx="0.23" ry="0.122"/>
		
			<ellipse transform="matrix(0.438 -0.899 0.899 0.438 -22.3737 47.9194)" class="st7" cx="27.139" cy="41.854" rx="0.23" ry="0.122"/>
	</g>
	<g>
		<path class="st6" d="M21.149,38.912c-0.352-0.236-0.67-0.27-0.901-0.133l-0.219-0.424c0.286-0.17,0.682-0.128,1.12,0.166
			C21.149,38.521,21.149,38.912,21.149,38.912z"/>
		<path class="st6" d="M21.15,39.425v0.25c-0.186-0.124-0.354-0.142-0.476-0.07l-0.14-0.271
			C20.691,39.24,20.909,39.263,21.15,39.425L21.15,39.425z"/>
		<path class="st6" d="M22.423,41.382c0-0.445-0.142-0.944-0.373-1.391l0.219-0.13c0.287,0.555,0.464,1.176,0.464,1.729
			L22.423,41.382z"/>
		<path class="st6" d="M21.821,40.978c0-0.235-0.075-0.498-0.197-0.734l0.14-0.083c0.158,0.305,0.255,0.646,0.255,0.95
			L21.821,40.978z"/>
		<path class="st6" d="M22.05,42.272l0.219,0.424c-0.286,0.17-0.682,0.128-1.12-0.166v-0.392
			C21.501,42.375,21.82,42.408,22.05,42.272z"/>
		<path class="st6" d="M21.764,41.718c-0.157,0.094-0.375,0.071-0.615-0.091v-0.25c0.186,0.124,0.354,0.142,0.476,0.07
			L21.764,41.718z"/>
		<path class="st6" d="M19.874,39.669c0,0.445,0.143,0.944,0.373,1.391l-0.219,0.13c-0.287-0.555-0.464-1.176-0.464-1.729
			L19.874,39.669L19.874,39.669z"/>
		<path class="st6" d="M20.533,40.891c-0.158-0.305-0.255-0.646-0.255-0.95l0,0l0.198,0.133l0,0c0,0.235,0.075,0.498,0.197,0.734
			L20.533,40.891z"/>
		
			<ellipse transform="matrix(0.899 -0.438 0.438 0.899 -15.0444 12.6101)" class="st7" cx="19.814" cy="38.919" rx="0.122" ry="0.23"/>
		
			<ellipse transform="matrix(0.899 -0.438 0.438 0.899 -16.184 14.1109)" class="st7" cx="22.498" cy="42.14" rx="0.122" ry="0.23"/>
		
			<ellipse transform="matrix(0.899 -0.438 0.438 0.899 -14.9789 13.4722)" class="st7" cx="21.716" cy="39.208" rx="0.122" ry="0.23"/>
		
			<ellipse transform="matrix(0.899 -0.438 0.438 0.899 -16.2495 13.2488)" class="st7" cx="20.597" cy="41.851" rx="0.122" ry="0.23"/>
	</g>
</g>
<g>
	<polygon class="st2" points="34.742,24.602 35.008,25.065 35.008,29.928 34.742,30.391 30.609,32.79 29.956,32.79 25.824,30.391 
		25.557,29.928 25.557,25.065 25.824,24.602 29.978,22.139 30.525,22.139 34.725,24.602 	"/>
	<polygon class="st3" points="30.609,27.612 29.956,27.612 30.274,27.156 30.291,27.156 	"/>
	<polygon class="st4" points="30.274,27.156 25.824,24.602 25.557,25.065 29.956,27.612 	"/>
	<g>
		<polygon class="st5" points="35.008,25.065 30.609,27.612 30.291,27.156 34.742,24.602 		"/>
		<rect x="29.956" y="27.612" class="st5" width="0.653" height="5.178"/>
	</g>
	<g>
		<path class="st6" d="M30.274,23.405c-0.515,0-0.981,0.12-1.319,0.315l-0.32-0.185c0.419-0.242,0.999-0.392,1.639-0.392V23.405z"/>
		<path class="st6" d="M30.275,23.746v0.167c-0.272,0-0.518,0.063-0.696,0.166l-0.205-0.118c0.23-0.133,0.548-0.215,0.9-0.215
			H30.275z"/>
		<path class="st6" d="M32.139,24.481c0-0.297-0.208-0.566-0.546-0.761l0.32-0.185c0.42,0.242,0.679,0.577,0.679,0.946H32.139z"/>
		<path class="st6" d="M31.258,24.481c0-0.157-0.11-0.299-0.288-0.402l0.205-0.118c0.23,0.133,0.373,0.317,0.373,0.52H31.258z"/>
		<path class="st6" d="M31.593,25.242l0.32,0.186c-0.419,0.242-0.999,0.392-1.639,0.392v-0.262
			C30.789,25.558,31.255,25.437,31.593,25.242z"/>
		<path class="st6" d="M31.174,25.001c-0.23,0.133-0.548,0.215-0.9,0.215v-0.167c0.272,0,0.518-0.063,0.696-0.166L31.174,25.001z"/>
		<path class="st6" d="M28.409,24.481c0,0.297,0.209,0.566,0.546,0.761l-0.32,0.185c-0.42-0.242-0.679-0.577-0.679-0.946H28.409
			L28.409,24.481z"/>
		<path class="st6" d="M29.374,25.001c-0.23-0.133-0.373-0.317-0.373-0.52l0,0h0.289l0,0c0,0.157,0.11,0.299,0.288,0.402
			L29.374,25.001z"/>
		<ellipse class="st7" cx="28.322" cy="24.008" rx="0.218" ry="0.126"/>
		<ellipse class="st7" cx="32.25" cy="24.954" rx="0.218" ry="0.126"/>
		<ellipse class="st7" cx="31.105" cy="23.348" rx="0.218" ry="0.126"/>
		<ellipse class="st7" cx="29.466" cy="25.614" rx="0.218" ry="0.126"/>
	</g>
	<g>
		<path class="st6" d="M27.64,26.933v0.379c-0.34-0.229-0.647-0.261-0.87-0.129l-0.211-0.41
			C26.836,26.609,27.219,26.649,27.64,26.933L27.64,26.933z"/>
		<path class="st6" d="M27.641,28.046c-0.179-0.121-0.341-0.138-0.459-0.068l-0.135-0.261c0.152-0.09,0.362-0.068,0.594,0.088
			V28.046z"/>
		<path class="st6" d="M28.872,29.695c0-0.43-0.137-0.912-0.36-1.343l0.211-0.125c0.277,0.536,0.448,1.135,0.448,1.669
			L28.872,29.695z"/>
		<path class="st6" d="M28.29,29.305c0-0.227-0.072-0.481-0.19-0.709l0.135-0.08c0.152,0.295,0.246,0.624,0.246,0.917L28.29,29.305z
			"/>
		<path class="st6" d="M28.512,30.553l0.211,0.41c-0.277,0.164-0.66,0.124-1.082-0.16v-0.378
			C27.981,30.653,28.288,30.686,28.512,30.553z"/>
		<path class="st6" d="M28.235,30.018c-0.152,0.09-0.362,0.068-0.594-0.088v-0.241c0.179,0.121,0.341,0.138,0.459,0.068
			L28.235,30.018z"/>
		<path class="st6" d="M26.41,28.041c0,0.43,0.138,0.912,0.36,1.343l-0.211,0.125c-0.277-0.536-0.448-1.135-0.448-1.669
			L26.41,28.041L26.41,28.041z"/>
		<path class="st6" d="M27.047,29.22c-0.152-0.295-0.246-0.624-0.246-0.917l0,0l0.191,0.128l0,0c0,0.227,0.072,0.481,0.19,0.709
			L27.047,29.22z"/>
		
			<ellipse transform="matrix(0.899 -0.438 0.438 0.899 -9.3026 14.3016)" class="st7" cx="26.352" cy="27.317" rx="0.118" ry="0.222"/>
		
			<ellipse transform="matrix(0.899 -0.438 0.438 0.899 -10.4026 15.7504)" class="st7" cx="28.943" cy="30.426" rx="0.118" ry="0.222"/>
		
			<ellipse transform="matrix(0.899 -0.438 0.438 0.899 -9.2393 15.1337)" class="st7" cx="28.188" cy="27.596" rx="0.118" ry="0.222"/>
		
			<ellipse transform="matrix(0.899 -0.438 0.438 0.899 -10.4661 14.9179)" class="st7" cx="27.107" cy="30.148" rx="0.118" ry="0.222"/>
	</g>
	<g>
		<g>
			<path class="st8" d="M32.091,31.189c-0.297,0-0.546-0.118-0.724-0.343c-0.312-0.395-0.365-1.075-0.141-1.818
				c0.371-1.232,1.387-2.277,2.265-2.33c0.327-0.019,0.601,0.098,0.793,0.341c0.312,0.395,0.365,1.075,0.141,1.818l0,0
				c-0.371,1.232-1.387,2.277-2.265,2.33C32.137,31.188,32.113,31.189,32.091,31.189z"/>
		</g>
		<g>
			<path class="st2" d="M32.201,30.854c-0.253,0-0.466-0.101-0.618-0.293c-0.267-0.337-0.312-0.915-0.121-1.548
				c0.316-1.048,1.18-1.937,1.927-1.982c0.28-0.017,0.514,0.084,0.678,0.291c0.267,0.337,0.312,0.915,0.121,1.548
				c-0.316,1.048-1.18,1.937-1.927,1.982C32.241,30.854,32.221,30.854,32.201,30.854z M33.449,27.092
				c-0.018,0-0.036,0.001-0.055,0.002c-0.723,0.044-1.562,0.913-1.871,1.937c-0.185,0.613-0.143,1.17,0.11,1.491
				c0.15,0.19,0.366,0.282,0.624,0.267c0.723-0.044,1.562-0.913,1.871-1.937l0,0c0.185-0.612,0.143-1.169-0.11-1.49
				C33.878,27.186,33.682,27.093,33.449,27.092z"/>
		</g>
		<g>
			<path class="st7" d="M32.308,30.549c-0.217,0-0.399-0.086-0.529-0.251c-0.225-0.285-0.264-0.772-0.104-1.303
				c0.264-0.877,0.99-1.62,1.617-1.658c0.239-0.014,0.44,0.071,0.58,0.249c0.225,0.285,0.264,0.772,0.104,1.303l0,0
				c-0.264,0.877-0.99,1.62-1.617,1.658C32.342,30.548,32.325,30.548,32.308,30.549z M33.341,27.432c-0.014,0-0.029,0-0.044,0.001
				c-0.59,0.035-1.277,0.749-1.531,1.59c-0.152,0.501-0.119,0.956,0.087,1.216c0.12,0.152,0.293,0.226,0.499,0.213
				c0.591-0.035,1.278-0.749,1.532-1.59l0,0c0.151-0.501,0.119-0.956-0.087-1.216C33.686,27.504,33.529,27.431,33.341,27.432z"/>
		</g>
		<g>
			
				<ellipse transform="matrix(0.488 -0.8728 0.8728 0.488 -8.4545 43.4691)" class="st6" cx="32.826" cy="28.941" rx="1.156" ry="0.678"/>
		</g>
		<g>
			
				<ellipse transform="matrix(0.488 -0.8728 0.8728 0.488 -8.4545 43.4691)" class="st7" cx="32.826" cy="28.941" rx="0.559" ry="0.328"/>
		</g>
		<polygon class="st9" points="33.777,32.17 39.836,27.876 32.963,28.774 		"/>
	</g>
</g>
<g>
	<polygon class="st10" points="2.016,37.489 1.916,38.037 3.582,42.817 3.999,43.179 8.831,44.097 9.464,43.869 12.652,40.07 
		12.752,39.522 11.086,34.742 10.668,34.38 5.794,33.407 5.263,33.598 2.032,37.483 	"/>
	<polygon class="st3" points="7.057,39.007 7.69,38.779 7.225,38.442 7.209,38.448 	"/>
	<polygon class="st4" points="7.225,38.442 10.668,34.38 11.086,34.742 7.69,38.779 	"/>
	<g>
		<polygon class="st5" points="1.916,38.037 7.057,39.007 7.209,38.448 2.016,37.489 		"/>
		<polygon class="st5" points="7.69,38.779 7.057,39.007 8.831,44.097 9.464,43.869 		"/>
	</g>
	<g>
		<path class="st11" d="M5.94,34.754c0.5-0.18,0.994-0.224,1.388-0.15l0.247-0.293c-0.49-0.092-1.104-0.037-1.725,0.186L5.94,34.754
			z"/>
		<path class="st11" d="M6.114,35.254c0.264-0.095,0.524-0.118,0.732-0.079l0.158-0.187c-0.269-0.051-0.606-0.021-0.947,0.102
			L6.114,35.254z"/>
		<path class="st11" d="M4.5,36.462c-0.102-0.293,0.008-0.63,0.269-0.939l-0.374-0.07c-0.324,0.385-0.462,0.804-0.335,1.167
			L4.5,36.462z"/>
		<path class="st11" d="M5.354,36.155C5.3,36.001,5.358,35.823,5.496,35.66l-0.239-0.045c-0.178,0.211-0.254,0.441-0.184,0.641
			L5.354,36.155z"/>
		<path class="st11" d="M5.29,37.02l-0.247,0.293c0.49,0.092,1.104,0.037,1.725-0.186l-0.09-0.257
			C6.178,37.05,5.684,37.094,5.29,37.02z"/>
		<path class="st11" d="M5.613,36.637c0.269,0.051,0.606,0.021,0.947-0.102l-0.057-0.164c-0.264,0.095-0.524,0.118-0.732,0.079
			L5.613,36.637z"/>
		<path class="st11" d="M8.118,35.162c0.102,0.292-0.008,0.63-0.269,0.939l0.374,0.07c0.324-0.385,0.462-0.804,0.335-1.167
			L8.118,35.162L8.118,35.162z"/>
		<path class="st11" d="M7.361,36.009c0.178-0.211,0.254-0.441,0.184-0.641l0,0l-0.281,0.101l0,0
			c0.054,0.154-0.004,0.332-0.142,0.495L7.361,36.009z"/>
		
			<ellipse transform="matrix(0.9394 -0.3428 0.3428 0.9394 -11.397 4.8568)" class="st7" cx="8.04" cy="34.668" rx="0.225" ry="0.131"/>
		
			<ellipse transform="matrix(0.9394 -0.3428 0.3428 0.9394 -12.3962 3.8009)" class="st7" cx="4.554" cy="36.966" rx="0.225" ry="0.131"/>
		
			<ellipse transform="matrix(0.9394 -0.3428 0.3428 0.9394 -11.6843 3.873)" class="st7" cx="5.114" cy="34.989" rx="0.225" ry="0.131"/>
		
			<ellipse transform="matrix(0.9394 -0.3428 0.3428 0.9394 -12.1089 4.7848)" class="st7" cx="7.481" cy="36.645" rx="0.225" ry="0.131"/>
	</g>
	<g>
		<path class="st6" d="M9.834,37.677c0.251-0.343,0.539-0.482,0.8-0.43l0.065-0.476c-0.325-0.065-0.682,0.108-0.995,0.534
			L9.834,37.677z"/>
		<path class="st6" d="M10.086,38.399c0.132-0.181,0.284-0.255,0.422-0.227l0.041-0.304c-0.178-0.035-0.374,0.06-0.546,0.294
			L10.086,38.399z"/>
		<path class="st6" d="M9.456,40.449c-0.147-0.423-0.178-0.944-0.11-1.446l-0.248-0.05c-0.085,0.624-0.046,1.272,0.137,1.797
			L9.456,40.449z"/>
		<path class="st6" d="M9.886,39.863C9.809,39.64,9.792,39.365,9.828,39.1L9.67,39.068c-0.047,0.342-0.026,0.699,0.075,0.987
			L9.886,39.863z"/>
		<path class="st6" d="M10.1,41.167l-0.065,0.476c0.325,0.065,0.682-0.108,0.995-0.534l-0.13-0.372
			C10.649,41.08,10.361,41.219,10.1,41.167z"/>
		<path class="st6" d="M10.185,40.545c0.178,0.035,0.374-0.06,0.546-0.294l-0.083-0.237c-0.132,0.181-0.284,0.255-0.422,0.227
			L10.185,40.545z"/>
		<path class="st6" d="M11.277,37.965c0.148,0.422,0.179,0.944,0.111,1.445l0.248,0.05c0.085-0.624,0.046-1.272-0.137-1.797
			L11.277,37.965L11.277,37.965z"/>
		<path class="st6" d="M11.064,39.346c0.047-0.342,0.026-0.699-0.075-0.987l0,0l-0.141,0.192l0,0
			c0.077,0.223,0.094,0.498,0.058,0.763L11.064,39.346z"/>
		
			<ellipse transform="matrix(0.1115 -0.9938 0.9938 0.1115 -27.152 44.0977)" class="st7" cx="11.085" cy="37.233" rx="0.231" ry="0.121"/>
		
			<ellipse transform="matrix(0.1115 -0.9938 0.9938 0.1115 -32.3751 46.1763)" class="st7" cx="9.636" cy="41.193" rx="0.231" ry="0.121"/>
		
			<ellipse transform="matrix(0.1115 -0.9938 0.9938 0.1115 -29.5602 43.2339)" class="st7" cx="9.398" cy="38.148" rx="0.231" ry="0.121"/>
		
			<ellipse transform="matrix(0.1115 -0.9938 0.9938 0.1115 -29.9688 47.0396)" class="st7" cx="11.322" cy="40.279" rx="0.231" ry="0.121"/>
	</g>
	<g>
		<path class="st6" d="M4.741,39.506c-0.408-0.106-0.717-0.03-0.888,0.177l-0.345-0.329c0.212-0.258,0.597-0.352,1.104-0.22
			L4.741,39.506z"/>
		<path class="st6" d="M4.994,40.23c-0.215-0.056-0.379-0.016-0.469,0.093l-0.221-0.21c0.117-0.142,0.328-0.193,0.607-0.121
			L4.994,40.23z"/>
		<path class="st6" d="M6.752,41.419c-0.147-0.422-0.446-0.848-0.81-1.194l0.162-0.197c0.453,0.431,0.824,0.96,1.007,1.485
			L6.752,41.419z"/>
		<path class="st6" d="M6.053,41.239c-0.077-0.223-0.235-0.447-0.427-0.63l0.104-0.126c0.248,0.236,0.452,0.527,0.553,0.815
			L6.053,41.239z"/>
		<path class="st6" d="M6.697,42.39l0.345,0.329c-0.212,0.258-0.597,0.352-1.104,0.22l-0.13-0.372
			C6.216,42.673,6.526,42.597,6.697,42.39z"/>
		<path class="st6" d="M6.246,41.96c-0.117,0.142-0.328,0.193-0.607,0.121l-0.083-0.237c0.215,0.056,0.379,0.016,0.469-0.093
			L6.246,41.96z"/>
		<path class="st6" d="M3.797,40.653c0.148,0.422,0.446,0.848,0.81,1.195l-0.162,0.197c-0.453-0.431-0.824-0.96-1.007-1.485
			L3.797,40.653L3.797,40.653z"/>
		<path class="st6" d="M4.82,41.589c-0.248-0.236-0.452-0.527-0.553-0.815l0,0l0.229,0.06l0,0c0.077,0.223,0.235,0.447,0.427,0.63
			L4.82,41.589z"/>
		
			<ellipse transform="matrix(0.7099 -0.7043 0.7043 0.7099 -27.1307 14.0541)" class="st7" cx="3.495" cy="39.961" rx="0.122" ry="0.23"/>
		
			<ellipse transform="matrix(0.7099 -0.7043 0.7043 0.7099 -27.6084 17.2002)" class="st7" cx="7.075" cy="42.114" rx="0.122" ry="0.23"/>
		
			<ellipse transform="matrix(0.7099 -0.7043 0.7043 0.7099 -26.3281 15.27)" class="st7" cx="5.372" cy="39.595" rx="0.122" ry="0.23"/>
		
			<ellipse transform="matrix(0.7099 -0.7043 0.7043 0.7099 -28.4107 15.9836)" class="st7" cx="5.197" cy="42.48" rx="0.122" ry="0.23"/>
	</g>
</g>
<g>
	<polygon class="st12" points="26.105,38.91 25.838,39.373 25.838,44.235 26.105,44.699 30.238,47.098 30.89,47.098 35.023,44.699 
		35.289,44.235 35.289,39.373 35.023,38.91 30.869,36.447 30.322,36.447 26.122,38.91 	"/>
	<polygon class="st3" points="30.238,41.92 30.89,41.92 30.572,41.464 30.555,41.464 	"/>
	<polygon class="st4" points="30.572,41.464 35.023,38.91 35.289,39.373 30.89,41.92 	"/>
	<g>
		<polygon class="st5" points="25.838,39.373 30.238,41.92 30.555,41.464 26.105,38.91 		"/>
		<rect x="30.237" y="41.92" class="st5" width="0.653" height="5.178"/>
	</g>
	<g>
		<path class="st11" d="M30.572,37.713c0.515,0,0.981,0.12,1.319,0.315l0.32-0.185c-0.419-0.242-0.999-0.392-1.639-0.392V37.713z"/>
		<path class="st11" d="M30.571,38.054v0.167c0.272,0,0.518,0.063,0.696,0.166l0.205-0.118
			C31.242,38.136,30.924,38.054,30.571,38.054L30.571,38.054z"/>
		<path class="st11" d="M28.707,38.789c0-0.297,0.208-0.566,0.546-0.761l-0.32-0.185c-0.42,0.242-0.679,0.577-0.679,0.946
			C28.254,38.789,28.707,38.789,28.707,38.789z"/>
		<path class="st11" d="M29.589,38.789c0-0.157,0.11-0.299,0.288-0.402l-0.205-0.118c-0.23,0.133-0.373,0.317-0.373,0.52H29.589z"/>
		<path class="st11" d="M29.253,39.55l-0.32,0.185c0.419,0.242,0.999,0.392,1.639,0.392v-0.262
			C30.057,39.865,29.591,39.745,29.253,39.55z"/>
		<path class="st11" d="M29.673,39.308c0.23,0.133,0.548,0.215,0.9,0.215v-0.167c-0.272,0-0.518-0.063-0.696-0.166L29.673,39.308z"
			/>
		<path class="st11" d="M32.437,38.789c0,0.297-0.208,0.566-0.546,0.761l0.32,0.185c0.42-0.242,0.679-0.577,0.679-0.946H32.437
			L32.437,38.789z"/>
		<path class="st11" d="M31.472,39.308c0.23-0.133,0.373-0.317,0.373-0.52l0,0h-0.289l0,0c0,0.157-0.11,0.299-0.288,0.402
			L31.472,39.308z"/>
		<ellipse class="st7" cx="32.524" cy="38.316" rx="0.218" ry="0.126"/>
		<ellipse class="st7" cx="28.597" cy="39.262" rx="0.218" ry="0.126"/>
		<ellipse class="st7" cx="29.741" cy="37.655" rx="0.218" ry="0.126"/>
		<ellipse class="st7" cx="31.38" cy="39.922" rx="0.218" ry="0.126"/>
	</g>
	<g>
		<path class="st6" d="M33.207,41.241v0.379c0.34-0.229,0.647-0.261,0.87-0.129l0.211-0.41
			C34.011,40.917,33.628,40.957,33.207,41.241L33.207,41.241z"/>
		<path class="st6" d="M33.206,42.354c0.179-0.121,0.341-0.138,0.459-0.068l0.135-0.261c-0.152-0.09-0.362-0.068-0.594,0.088V42.354
			z"/>
		<path class="st6" d="M31.975,44.003c0-0.43,0.137-0.912,0.36-1.343l-0.211-0.125c-0.277,0.536-0.448,1.135-0.448,1.669
			L31.975,44.003z"/>
		<path class="st6" d="M32.556,43.612c0-0.227,0.072-0.481,0.19-0.709l-0.135-0.08c-0.152,0.295-0.246,0.624-0.246,0.917
			L32.556,43.612z"/>
		<path class="st6" d="M32.335,44.861l-0.211,0.41c0.277,0.164,0.66,0.124,1.082-0.16v-0.378
			C32.866,44.961,32.558,44.993,32.335,44.861z"/>
		<path class="st6" d="M32.611,44.326c0.152,0.09,0.362,0.068,0.594-0.088v-0.241c-0.179,0.121-0.341,0.138-0.459,0.068
			L32.611,44.326z"/>
		<path class="st6" d="M34.436,42.349c0,0.43-0.138,0.911-0.36,1.343l0.211,0.125c0.277-0.536,0.448-1.135,0.448-1.669
			L34.436,42.349L34.436,42.349z"/>
		<path class="st6" d="M33.8,43.528c0.152-0.295,0.246-0.624,0.246-0.917l0,0l-0.191,0.128l0,0c0,0.227-0.072,0.481-0.19,0.709
			L33.8,43.528z"/>
		
			<ellipse transform="matrix(0.438 -0.899 0.899 0.438 -18.0363 54.4052)" class="st7" cx="34.495" cy="41.628" rx="0.222" ry="0.118"/>
		
			<ellipse transform="matrix(0.438 -0.899 0.899 0.438 -22.2889 53.823)" class="st7" cx="31.903" cy="44.738" rx="0.222" ry="0.118"/>
		
			<ellipse transform="matrix(0.438 -0.899 0.899 0.438 -19.3194 52.9106)" class="st7" cx="32.658" cy="41.907" rx="0.222" ry="0.118"/>
		
			<ellipse transform="matrix(0.438 -0.899 0.899 0.438 -21.0058 55.3176)" class="st7" cx="33.74" cy="44.459" rx="0.222" ry="0.118"/>
	</g>
	<g>
		<path class="st6" d="M27.956,41.241v0.379c-0.34-0.229-0.647-0.261-0.87-0.129l-0.211-0.41
			C27.152,40.917,27.535,40.957,27.956,41.241L27.956,41.241z"/>
		<path class="st6" d="M27.957,42.354c-0.179-0.121-0.341-0.138-0.459-0.068l-0.135-0.261c0.152-0.09,0.362-0.068,0.594,0.088
			V42.354z"/>
		<path class="st6" d="M29.188,44.003c0-0.43-0.137-0.912-0.36-1.343l0.211-0.125c0.277,0.536,0.448,1.135,0.448,1.669
			L29.188,44.003z"/>
		<path class="st6" d="M28.606,43.612c0-0.227-0.072-0.481-0.19-0.709l0.135-0.08c0.152,0.295,0.246,0.624,0.246,0.917
			L28.606,43.612z"/>
		<path class="st6" d="M28.828,44.861l0.211,0.41c-0.277,0.164-0.66,0.124-1.082-0.16v-0.378
			C28.297,44.961,28.605,44.993,28.828,44.861z"/>
		<path class="st6" d="M28.551,44.326c-0.152,0.09-0.362,0.068-0.594-0.088v-0.241c0.179,0.121,0.341,0.138,0.459,0.068
			L28.551,44.326z"/>
		<path class="st6" d="M26.727,42.349c0,0.43,0.137,0.911,0.36,1.343l-0.211,0.125c-0.277-0.536-0.448-1.135-0.448-1.669
			L26.727,42.349L26.727,42.349z"/>
		<path class="st6" d="M27.363,43.528c-0.152-0.295-0.246-0.624-0.246-0.917l0,0l0.191,0.128l0,0c0,0.227,0.072,0.481,0.19,0.709
			L27.363,43.528z"/>
		
			<ellipse transform="matrix(0.899 -0.438 0.438 0.899 -15.5371 15.8854)" class="st7" cx="26.668" cy="41.624" rx="0.118" ry="0.222"/>
		
			<ellipse transform="matrix(0.899 -0.438 0.438 0.899 -16.6375 17.3345)" class="st7" cx="29.26" cy="44.735" rx="0.118" ry="0.222"/>
		
			<ellipse transform="matrix(0.899 -0.438 0.438 0.899 -15.474 16.7182)" class="st7" cx="28.505" cy="41.904" rx="0.118" ry="0.222"/>
		
			<ellipse transform="matrix(0.899 -0.438 0.438 0.899 -16.7006 16.5018)" class="st7" cx="27.423" cy="44.455" rx="0.118" ry="0.222"/>
	</g>
</g>
<g>
	<polygon class="st13" points="16.382,30.957 16.116,31.42 16.116,36.283 16.382,36.746 20.515,39.145 21.168,39.145 25.3,36.746 
		25.567,36.283 25.567,31.42 25.3,30.957 21.146,28.494 20.599,28.494 16.399,30.957 	"/>
	<polygon class="st3" points="20.515,33.967 21.168,33.967 20.85,33.511 20.833,33.511 	"/>
	<polygon class="st4" points="20.85,33.511 25.3,30.957 25.567,31.42 21.168,33.967 	"/>
	<g>
		<polygon class="st5" points="16.116,31.42 20.515,33.967 20.833,33.511 16.382,30.957 		"/>
		<rect x="20.515" y="33.967" class="st5" width="0.653" height="5.178"/>
	</g>
	<g>
		<path class="st11" d="M20.85,29.76c0.515,0,0.982,0.12,1.319,0.315l0.32-0.185c-0.419-0.242-0.999-0.392-1.639-0.392V29.76z"/>
		<path class="st11" d="M20.849,30.101v0.167c0.272,0,0.518,0.063,0.696,0.166l0.205-0.118
			C21.52,30.183,21.202,30.101,20.849,30.101L20.849,30.101z"/>
		<path class="st11" d="M18.985,30.836c0-0.297,0.209-0.566,0.546-0.761l-0.32-0.185c-0.42,0.242-0.679,0.577-0.679,0.946H18.985z"
			/>
		<path class="st11" d="M19.866,30.836c0-0.157,0.11-0.299,0.288-0.402l-0.205-0.118c-0.23,0.133-0.373,0.317-0.373,0.52H19.866z"/>
		<path class="st11" d="M19.531,31.598l-0.32,0.185c0.419,0.242,0.999,0.392,1.639,0.392v-0.262
			C20.335,31.913,19.869,31.792,19.531,31.598z"/>
		<path class="st11" d="M19.95,31.356c0.23,0.133,0.548,0.215,0.9,0.215v-0.167c-0.272,0-0.518-0.063-0.696-0.166L19.95,31.356z"/>
		<path class="st11" d="M22.715,30.836c0,0.297-0.209,0.566-0.546,0.761l0.32,0.185c0.42-0.242,0.679-0.577,0.679-0.946H22.715
			L22.715,30.836z"/>
		<path class="st11" d="M21.75,31.356c0.23-0.133,0.373-0.317,0.373-0.52l0,0h-0.289l0,0c0,0.157-0.11,0.299-0.288,0.402
			L21.75,31.356z"/>
		<ellipse class="st7" cx="22.802" cy="30.363" rx="0.218" ry="0.126"/>
		<ellipse class="st7" cx="18.874" cy="31.309" rx="0.218" ry="0.126"/>
		<ellipse class="st7" cx="20.019" cy="29.703" rx="0.218" ry="0.126"/>
		<path class="st7" d="M21.876,31.97c0,0.07-0.098,0.126-0.218,0.126S21.44,32.04,21.44,31.97c0-0.07,0.098-0.126,0.218-0.126
			S21.876,31.9,21.876,31.97z"/>
	</g>
	<g>
		<path class="st6" d="M23.484,33.288v0.379c0.34-0.229,0.647-0.261,0.87-0.129l0.211-0.41
			C24.288,32.964,23.905,33.004,23.484,33.288L23.484,33.288z"/>
		<path class="st6" d="M23.483,34.401c0.179-0.121,0.341-0.138,0.459-0.068l0.135-0.261c-0.152-0.09-0.362-0.068-0.594,0.088V34.401
			z"/>
		<path class="st6" d="M22.252,36.05c0-0.43,0.137-0.912,0.36-1.343l-0.211-0.125c-0.277,0.536-0.448,1.135-0.448,1.669
			L22.252,36.05z"/>
		<path class="st6" d="M22.834,35.66c0-0.227,0.072-0.481,0.19-0.709l-0.135-0.08c-0.152,0.295-0.246,0.624-0.246,0.917
			L22.834,35.66z"/>
		<path class="st6" d="M22.612,36.908l-0.211,0.41c0.277,0.164,0.66,0.124,1.082-0.16V36.78
			C23.143,37.008,22.836,37.041,22.612,36.908z"/>
		<path class="st6" d="M22.889,36.373c0.152,0.09,0.362,0.068,0.594-0.088v-0.241c-0.179,0.121-0.341,0.138-0.459,0.068
			L22.889,36.373z"/>
		<path class="st6" d="M24.714,34.396c0,0.43-0.138,0.912-0.36,1.343l0.211,0.125c0.277-0.536,0.448-1.135,0.448-1.669
			L24.714,34.396L24.714,34.396z"/>
		<path class="st6" d="M24.077,35.575c0.152-0.295,0.246-0.624,0.246-0.917l0,0l-0.191,0.128l0,0c0,0.227-0.072,0.481-0.19,0.709
			L24.077,35.575z"/>
		
			<ellipse transform="matrix(0.438 -0.899 0.899 0.438 -16.3511 41.1944)" class="st7" cx="24.771" cy="33.675" rx="0.222" ry="0.118"/>
		
			<ellipse transform="matrix(0.438 -0.899 0.899 0.438 -20.6036 40.6132)" class="st7" cx="22.18" cy="36.785" rx="0.222" ry="0.118"/>
		
			<ellipse transform="matrix(0.438 -0.899 0.899 0.438 -17.6352 39.7009)" class="st7" cx="22.935" cy="33.955" rx="0.222" ry="0.118"/>
		
			<ellipse transform="matrix(0.438 -0.899 0.899 0.438 -19.3207 42.1067)" class="st7" cx="24.016" cy="36.506" rx="0.222" ry="0.118"/>
	</g>
	<g>
		<path class="st6" d="M18.234,33.288v0.379c-0.34-0.229-0.647-0.261-0.87-0.129l-0.211-0.41
			C17.43,32.964,17.813,33.004,18.234,33.288L18.234,33.288z"/>
		<path class="st6" d="M18.235,34.401c-0.179-0.121-0.341-0.138-0.459-0.068l-0.135-0.261c0.152-0.09,0.362-0.068,0.594,0.088
			V34.401z"/>
		<path class="st6" d="M19.465,36.05c0-0.43-0.137-0.912-0.36-1.343l0.211-0.125c0.277,0.536,0.448,1.135,0.448,1.669L19.465,36.05z
			"/>
		<path class="st6" d="M18.884,35.66c0-0.227-0.072-0.481-0.19-0.709l0.135-0.08c0.152,0.295,0.246,0.624,0.246,0.917L18.884,35.66z
			"/>
		<path class="st6" d="M19.106,36.908l0.211,0.41c-0.277,0.164-0.66,0.124-1.082-0.16V36.78
			C18.574,37.008,18.882,37.041,19.106,36.908z"/>
		<path class="st6" d="M18.829,36.373c-0.152,0.09-0.362,0.068-0.594-0.088v-0.241c0.179,0.121,0.341,0.138,0.459,0.068
			L18.829,36.373z"/>
		<path class="st6" d="M17.004,34.396c0,0.43,0.138,0.912,0.36,1.343l-0.211,0.125c-0.277-0.536-0.448-1.135-0.448-1.669
			L17.004,34.396L17.004,34.396z"/>
		<path class="st6" d="M17.64,35.575c-0.152-0.295-0.246-0.624-0.246-0.917l0,0l0.191,0.128l0,0c0,0.227,0.072,0.481,0.19,0.709
			L17.64,35.575z"/>
		
			<ellipse transform="matrix(0.899 -0.438 0.438 0.899 -13.036 10.8241)" class="st7" cx="16.947" cy="33.672" rx="0.118" ry="0.222"/>
		
			<ellipse transform="matrix(0.899 -0.438 0.438 0.899 -14.1361 12.2729)" class="st7" cx="19.538" cy="36.781" rx="0.118" ry="0.222"/>
		
			<ellipse transform="matrix(0.899 -0.438 0.438 0.899 -12.9729 11.6562)" class="st7" cx="18.782" cy="33.951" rx="0.118" ry="0.222"/>
		
			<ellipse transform="matrix(0.899 -0.438 0.438 0.899 -14.1992 11.4402)" class="st7" cx="17.701" cy="36.502" rx="0.118" ry="0.222"/>
	</g>
</g>
<g>
	<polygon class="st14" points="13.776,23.081 13.509,23.545 13.509,28.407 13.776,28.87 17.908,31.27 18.561,31.27 22.694,28.87 
		22.96,28.407 22.96,23.545 22.694,23.081 18.54,20.619 17.993,20.619 13.793,23.081 	"/>
	<polygon class="st3" points="17.908,26.092 18.561,26.092 18.243,25.635 18.226,25.635 	"/>
	<polygon class="st4" points="18.243,25.635 22.694,23.081 22.96,23.545 18.561,26.092 	"/>
	<g>
		<polygon class="st5" points="13.509,23.545 17.908,26.092 18.226,25.635 13.776,23.081 		"/>
		<rect x="17.908" y="26.092" class="st5" width="0.653" height="5.178"/>
	</g>
	<g>
		<path class="st11" d="M18.243,21.884c0.515,0,0.981,0.12,1.319,0.315l0.32-0.185c-0.419-0.242-0.999-0.392-1.639-0.392V21.884z"/>
		<path class="st11" d="M18.242,22.225v0.167c0.272,0,0.518,0.063,0.696,0.166l0.205-0.118
			C18.913,22.307,18.595,22.225,18.242,22.225L18.242,22.225z"/>
		<path class="st11" d="M16.378,22.96c0-0.297,0.208-0.566,0.546-0.761l-0.32-0.185c-0.42,0.242-0.679,0.577-0.679,0.946H16.378z"/>
		<path class="st11" d="M17.26,22.96c0-0.157,0.11-0.299,0.288-0.402l-0.205-0.118c-0.23,0.133-0.373,0.317-0.373,0.52H17.26z"/>
		<path class="st11" d="M16.924,23.722l-0.32,0.185c0.419,0.242,0.999,0.392,1.639,0.392v-0.262
			C17.728,24.037,17.262,23.916,16.924,23.722z"/>
		<path class="st11" d="M17.343,23.48c0.23,0.133,0.548,0.215,0.9,0.215v-0.167c-0.272,0-0.518-0.063-0.696-0.166L17.343,23.48z"/>
		<path class="st11" d="M20.108,22.96c0,0.298-0.209,0.567-0.546,0.761l0.32,0.185c0.42-0.242,0.679-0.577,0.679-0.946H20.108
			L20.108,22.96z"/>
		<path class="st11" d="M19.143,23.48c0.23-0.133,0.373-0.317,0.373-0.52l0,0h-0.289l0,0c0,0.157-0.11,0.299-0.288,0.402
			L19.143,23.48z"/>
		<ellipse class="st7" cx="20.195" cy="22.487" rx="0.218" ry="0.126"/>
		<ellipse class="st7" cx="16.268" cy="23.433" rx="0.218" ry="0.126"/>
		<ellipse class="st7" cx="17.412" cy="21.827" rx="0.218" ry="0.126"/>
		<ellipse class="st7" cx="19.051" cy="24.094" rx="0.218" ry="0.126"/>
	</g>
	<g>
		<path class="st6" d="M20.877,25.413v0.379c0.34-0.229,0.647-0.261,0.87-0.129l0.211-0.41
			C21.681,25.089,21.298,25.129,20.877,25.413L20.877,25.413z"/>
		<path class="st6" d="M20.876,26.526c0.179-0.121,0.341-0.138,0.459-0.068l0.135-0.261c-0.152-0.09-0.362-0.068-0.594,0.088V26.526
			z"/>
		<path class="st6" d="M19.646,28.174c0-0.43,0.137-0.912,0.36-1.343l-0.211-0.125c-0.277,0.536-0.448,1.135-0.448,1.669
			L19.646,28.174z"/>
		<path class="st6" d="M20.227,27.784c0-0.227,0.072-0.481,0.19-0.709l-0.135-0.08c-0.152,0.295-0.246,0.624-0.246,0.917
			L20.227,27.784z"/>
		<path class="st6" d="M20.005,29.032l-0.211,0.41c0.277,0.164,0.66,0.124,1.082-0.16v-0.378
			C20.537,29.132,20.229,29.165,20.005,29.032z"/>
		<path class="st6" d="M20.282,28.498c0.152,0.09,0.362,0.068,0.594-0.088v-0.241c-0.179,0.121-0.341,0.138-0.459,0.068
			L20.282,28.498z"/>
		<path class="st6" d="M22.107,26.52c0,0.43-0.138,0.912-0.36,1.343l0.211,0.125c0.277-0.536,0.448-1.135,0.448-1.669L22.107,26.52
			L22.107,26.52z"/>
		<path class="st6" d="M21.47,27.7c0.152-0.295,0.246-0.624,0.246-0.917l0,0l-0.191,0.128l0,0c0,0.227-0.072,0.481-0.19,0.709
			L21.47,27.7z"/>
		
			<ellipse transform="matrix(0.438 -0.899 0.899 0.438 -10.7367 34.4241)" class="st7" cx="22.164" cy="25.799" rx="0.222" ry="0.118"/>
		
			<ellipse transform="matrix(0.438 -0.899 0.899 0.438 -14.9882 33.8428)" class="st7" cx="19.573" cy="28.909" rx="0.222" ry="0.118"/>
		
			<ellipse transform="matrix(0.438 -0.899 0.899 0.438 -12.0197 32.9305)" class="st7" cx="20.328" cy="26.078" rx="0.222" ry="0.118"/>
		
			<ellipse transform="matrix(0.438 -0.899 0.899 0.438 -13.7052 35.3363)" class="st7" cx="21.409" cy="28.629" rx="0.222" ry="0.118"/>
	</g>
	<g>
		<path class="st15" d="M14.401,25.318c0.144-0.088,0.316-0.133,0.513-0.128c0.856,0.023,1.862,0.998,2.248,2.178
			c0.385,1.18,0.004,2.117-0.852,2.094c-0.856-0.023-1.862-0.998-2.248-2.178C13.765,26.376,13.923,25.611,14.401,25.318z"/>
		<path class="st16" d="M14.464,25.423c0.136-0.084,0.299-0.127,0.486-0.122c0.812,0.022,1.766,0.947,2.131,2.065
			c0.366,1.118,0.004,2.007-0.807,1.985c-0.812-0.022-1.766-0.947-2.131-2.065C13.862,26.425,14.011,25.701,14.464,25.423z"/>
		<g>
			<path class="st15" d="M13.903,26.006c0.043-0.026,0.094-0.04,0.152-0.038c0.253,0.007,0.55,0.295,0.664,0.644
				c0.114,0.349,0.001,0.626-0.252,0.619s-0.55-0.295-0.664-0.644C13.715,26.319,13.762,26.093,13.903,26.006z"/>
			<path d="M13.922,26.037c0.041-0.025,0.089-0.038,0.144-0.036c0.24,0.006,0.522,0.28,0.63,0.61
				c0.108,0.331,0.001,0.594-0.239,0.587c-0.24-0.006-0.522-0.28-0.63-0.61C13.744,26.333,13.788,26.119,13.922,26.037z"/>
			<path class="st15" d="M16.591,27.482c0.043-0.026,0.094-0.04,0.152-0.038c0.253,0.007,0.55,0.295,0.664,0.644
				c0.114,0.349,0.001,0.626-0.252,0.619s-0.55-0.295-0.664-0.644C16.403,27.795,16.45,27.569,16.591,27.482z"/>
			<path d="M16.61,27.513c0.041-0.025,0.089-0.038,0.144-0.036c0.24,0.006,0.522,0.28,0.63,0.61
				c0.108,0.331,0.001,0.594-0.239,0.587c-0.24-0.006-0.522-0.28-0.63-0.61C16.432,27.809,16.476,27.595,16.61,27.513z"/>
		</g>
	</g>
</g>
<g>
	<polygon class="st17" points="33.833,17.95 34.099,18.413 34.099,23.276 33.833,23.739 29.7,26.138 29.048,26.138 24.915,23.739 
		24.648,23.276 24.648,18.413 24.915,17.95 29.069,15.487 29.616,15.487 33.816,17.95 	"/>
	<polygon class="st3" points="29.7,20.96 29.048,20.96 29.365,20.504 29.382,20.504 	"/>
	<polygon class="st4" points="29.365,20.504 24.915,17.95 24.648,18.413 29.048,20.96 	"/>
	<g>
		<polygon class="st5" points="34.099,18.413 29.7,20.96 29.382,20.504 33.833,17.95 		"/>
		<rect x="29.047" y="20.96" class="st5" width="0.653" height="5.178"/>
	</g>
	<g>
		<path class="st11" d="M29.365,16.753c-0.515,0-0.981,0.12-1.319,0.315l-0.32-0.185c0.419-0.242,0.999-0.392,1.639-0.392V16.753z"
			/>
		<path class="st11" d="M29.366,17.094v0.167c-0.272,0-0.518,0.063-0.696,0.166l-0.205-0.118c0.23-0.133,0.548-0.215,0.9-0.215
			H29.366z"/>
		<path class="st11" d="M31.23,17.829c0-0.297-0.208-0.566-0.546-0.761l0.32-0.185c0.42,0.242,0.679,0.577,0.679,0.946H31.23z"/>
		<path class="st11" d="M30.349,17.829c0-0.157-0.11-0.299-0.288-0.402l0.205-0.118c0.23,0.133,0.373,0.317,0.373,0.52H30.349z"/>
		<path class="st11" d="M30.684,18.59l0.32,0.185c-0.419,0.242-0.999,0.392-1.639,0.392v-0.262
			C29.88,18.905,30.346,18.785,30.684,18.59z"/>
		<path class="st11" d="M30.265,18.349c-0.23,0.133-0.548,0.215-0.9,0.215v-0.167c0.272,0,0.518-0.063,0.696-0.166L30.265,18.349z"
			/>
		<path class="st11" d="M27.5,17.829c0,0.297,0.209,0.566,0.546,0.761l-0.32,0.185c-0.42-0.242-0.679-0.577-0.679-0.946H27.5
			L27.5,17.829z"/>
		<path class="st11" d="M28.465,18.349c-0.23-0.133-0.373-0.317-0.373-0.52l0,0h0.289l0,0c0,0.157,0.11,0.299,0.288,0.402
			L28.465,18.349z"/>
		<ellipse class="st7" cx="27.413" cy="17.356" rx="0.218" ry="0.126"/>
		<ellipse class="st7" cx="31.341" cy="18.302" rx="0.218" ry="0.126"/>
		<ellipse class="st7" cx="30.196" cy="16.695" rx="0.218" ry="0.126"/>
		<ellipse class="st7" cx="28.557" cy="18.962" rx="0.218" ry="0.126"/>
	</g>
	<g>
		<path class="st6" d="M26.731,20.281v0.379c-0.34-0.229-0.647-0.261-0.87-0.129l-0.211-0.41
			C25.927,19.957,26.31,19.997,26.731,20.281L26.731,20.281z"/>
		<path class="st6" d="M26.732,21.394c-0.179-0.121-0.341-0.138-0.459-0.068l-0.135-0.261c0.152-0.09,0.362-0.068,0.594,0.088
			V21.394z"/>
		<path class="st6" d="M27.963,23.043c0-0.43-0.137-0.912-0.36-1.343l0.211-0.125c0.277,0.536,0.448,1.135,0.448,1.669
			L27.963,23.043z"/>
		<path class="st6" d="M27.381,22.653c0-0.227-0.072-0.481-0.19-0.709l0.135-0.08c0.152,0.295,0.246,0.624,0.246,0.917
			L27.381,22.653z"/>
		<path class="st6" d="M27.603,23.901l0.211,0.41c-0.277,0.164-0.66,0.124-1.082-0.16v-0.378
			C27.072,24.001,27.38,24.034,27.603,23.901z"/>
		<path class="st6" d="M27.326,23.366c-0.152,0.09-0.362,0.068-0.594-0.088v-0.241c0.179,0.121,0.341,0.138,0.459,0.068
			L27.326,23.366z"/>
		<path class="st6" d="M25.501,21.389c0,0.43,0.138,0.912,0.36,1.343l-0.211,0.125c-0.277-0.536-0.448-1.135-0.448-1.669
			L25.501,21.389L25.501,21.389z"/>
		<path class="st6" d="M26.138,22.568c-0.152-0.295-0.246-0.624-0.246-0.917l0,0l0.191,0.128l0,0c0,0.227,0.072,0.481,0.19,0.709
			L26.138,22.568z"/>
		
			<ellipse transform="matrix(0.899 -0.438 0.438 0.899 -6.4808 13.2315)" class="st7" cx="25.443" cy="20.665" rx="0.118" ry="0.222"/>
		
			<ellipse transform="matrix(0.899 -0.438 0.438 0.899 -7.5809 14.6804)" class="st7" cx="28.034" cy="23.774" rx="0.118" ry="0.222"/>
		
			<ellipse transform="matrix(0.899 -0.438 0.438 0.899 -6.4177 14.0643)" class="st7" cx="27.28" cy="20.945" rx="0.118" ry="0.222"/>
		
			<ellipse transform="matrix(0.899 -0.438 0.438 0.899 -7.6444 13.8479)" class="st7" cx="26.198" cy="23.496" rx="0.118" ry="0.222"/>
	</g>
	<g>
		<g>
			<polygon class="st18" points="29.987,24.327 29.907,24.514 29.907,25.103 30.027,25.183 30.188,25.083 30.188,24.22 			"/>
			<g>
				<polygon class="st19" points="30.108,24.504 30.047,24.538 30.047,24.959 30.108,24.926 				"/>
			</g>
			<path class="st18" d="M29.865,22.383v0.311l0.243-0.06c0,0-0.002-0.457,0-0.482L29.865,22.383z"/>
			<g>
				<polygon class="st19" points="30.055,22.42 30.055,22.359 29.917,22.427 29.917,22.487 				"/>
			</g>
			<g>
				<polygon class="st19" points="30.055,22.51 30.055,22.45 29.917,22.517 29.917,22.577 				"/>
			</g>
		</g>
		<g class="st20">
			<path class="st19" d="M30.564,25.605v-0.334l0.866-1.622l2.027-1.198c0.065-0.028,0.175-0.06,0.212-0.041
				c0.048,0.024,0.08,0.151,0.08,0.224v1.104h0.06v-1.104c0-0.069-0.029-0.235-0.114-0.278c-0.075-0.038-0.232,0.026-0.266,0.041
				l-2.045,1.209l-0.881,1.65v0.349H30.564L30.564,25.605z"/>
		</g>
	</g>
	<g>
		<polygon class="st19" points="33.544,23.168 33.56,23.195 32.929,23.561 32.913,23.534 		"/>
		<polygon class="st19" points="33.544,23.266 33.56,23.294 32.929,23.66 32.913,23.632 		"/>
		<polygon class="st19" points="33.544,23.365 33.56,23.392 32.929,23.758 32.913,23.731 		"/>
		<polygon class="st19" points="33.544,23.463 33.56,23.49 32.929,23.856 32.913,23.829 		"/>
		<polygon class="st19" points="32.929,23.463 32.913,23.436 33.544,23.069 33.56,23.097 		"/>
	</g>
</g>
<g class="st0">
	<polyline class="st1" points="30.248,48.893 35.889,45.656 35.867,45.656 30.544,42.535 29.851,42.535 24.586,45.656 
		30.227,48.893 30.248,48.893 	"/>
</g>
<g class="st0">
	<polyline class="st1" points="23.791,45.714 29.431,42.477 29.41,42.477 24.087,39.355 23.393,39.355 18.129,42.477 23.769,45.714 
		23.791,45.714 	"/>
</g>
<g>
	<polygon class="st21" points="39.334,27.418 38.793,27.437 34.612,30.046 34.357,30.523 34.511,35.364 34.861,35.925 
		39.141,38.191 39.682,38.172 43.863,35.564 44.118,35.086 44.007,30.193 43.714,29.723 39.344,27.433 	"/>
	<polygon class="st3" points="38.963,32.586 39.313,33.147 39.535,32.629 39.526,32.615 	"/>
	<polygon class="st4" points="39.535,32.629 44.118,35.086 43.863,35.564 39.313,33.147 	"/>
	<g>
		<polygon class="st5" points="38.793,27.437 38.963,32.586 39.526,32.615 39.334,27.418 		"/>
		
			<rect x="34.289" y="33.927" transform="matrix(0.8484 -0.5293 0.5293 0.8484 -12.5381 24.7312)" class="st5" width="5.248" height="0.661"/>
	</g>
	<g>
		<path class="st11" d="M42.76,30.618c0.276,0.443,0.422,0.908,0.436,1.303l0.331,0.176c-0.017-0.491-0.199-1.07-0.542-1.62
			L42.76,30.618z"/>
		<path class="st11" d="M42.324,30.889c0.146,0.234,0.223,0.48,0.23,0.688l0.211,0.113c-0.009-0.27-0.109-0.588-0.298-0.89
			L42.324,30.889z"/>
		<path class="st11" d="M40.835,29.591c0.255-0.16,0.598-0.125,0.947,0.061l-0.013-0.375c-0.434-0.231-0.86-0.274-1.178-0.076
			L40.835,29.591z"/>
		<path class="st11" d="M41.307,30.349c0.135-0.085,0.316-0.066,0.5,0.032l-0.008-0.239c-0.238-0.127-0.472-0.151-0.647-0.042
			L41.307,30.349z"/>
		<path class="st11" d="M40.473,30.468l-0.331-0.176c0.017,0.491,0.199,1.07,0.542,1.62l0.225-0.14
			C40.633,31.329,40.486,30.864,40.473,30.468z"/>
		<path class="st11" d="M40.904,30.7c0.009,0.27,0.109,0.588,0.298,0.89l0.144-0.09c-0.146-0.234-0.223-0.48-0.23-0.688L40.904,30.7
			z"/>
		<path class="st11" d="M42.835,32.798c-0.255,0.159-0.599,0.124-0.948-0.061l0.013,0.375c0.434,0.231,0.86,0.274,1.178,0.076
			L42.835,32.798L42.835,32.798z"/>
		<path class="st11" d="M41.871,32.247c0.238,0.127,0.472,0.151,0.647,0.042l0,0l-0.155-0.249l0,0
			c-0.135,0.085-0.316,0.066-0.5-0.032L41.871,32.247z"/>
		
			<ellipse transform="matrix(0.8484 -0.5293 0.5293 0.8484 -10.705 27.8586)" class="st7" cx="43.29" cy="32.621" rx="0.128" ry="0.221"/>
		
			<ellipse transform="matrix(0.8484 -0.5293 0.5293 0.8484 -9.6292 25.8779)" class="st7" cx="40.37" cy="29.752" rx="0.128" ry="0.221"/>
		
			<ellipse transform="matrix(0.8484 -0.5293 0.5293 0.8484 -9.3911 26.9524)" class="st7" cx="42.365" cy="29.874" rx="0.128" ry="0.221"/>
		
			<ellipse transform="matrix(0.8484 -0.5293 0.5293 0.8484 -10.9429 26.7841)" class="st7" cx="41.295" cy="32.499" rx="0.128" ry="0.221"/>
	</g>
	<g>
		<path class="st6" d="M40.813,34.977c0.379,0.17,0.572,0.417,0.578,0.679l0.466-0.038c-0.008-0.326-0.247-0.633-0.718-0.844
			L40.813,34.977z"/>
		<path class="st6" d="M40.181,35.372c0.2,0.089,0.302,0.22,0.305,0.358l0.297-0.024c-0.004-0.179-0.135-0.348-0.394-0.464
			L40.181,35.372z"/>
		<path class="st6" d="M38.104,35.197c0.37-0.23,0.858-0.37,1.348-0.41l-0.005-0.249c-0.61,0.049-1.217,0.223-1.676,0.51
			L38.104,35.197z"/>
		<path class="st6" d="M38.752,35.488c0.195-0.122,0.452-0.196,0.711-0.217l-0.004-0.159c-0.334,0.027-0.668,0.123-0.92,0.28
			L38.752,35.488z"/>
		<path class="st6" d="M37.56,35.968l-0.466,0.038c0.008,0.326,0.247,0.633,0.718,0.844l0.325-0.203
			C37.758,36.477,37.565,36.23,37.56,35.968z"/>
		<path class="st6" d="M38.167,35.918c0.004,0.179,0.135,0.348,0.394,0.464l0.208-0.13c-0.2-0.089-0.302-0.22-0.305-0.358
			L38.167,35.918z"/>
		<path class="st6" d="M40.846,36.426c-0.369,0.231-0.857,0.371-1.349,0.41l0.006,0.249c0.61-0.049,1.217-0.223,1.676-0.51
			L40.846,36.426L40.846,36.426z"/>
		<path class="st6" d="M39.491,36.51c0.334-0.027,0.668-0.123,0.92-0.28l0,0l-0.213-0.095l0,0c-0.195,0.122-0.452,0.196-0.711,0.217
			L39.491,36.51z"/>
		
			<ellipse transform="matrix(0.9946 -0.1042 0.1042 0.9946 -3.5342 4.5202)" class="st7" cx="41.496" cy="36.087" rx="0.225" ry="0.12"/>
		
			<ellipse transform="matrix(0.9946 -0.1042 0.1042 0.9946 -3.498 4.0936)" class="st7" cx="37.432" cy="35.527" rx="0.225" ry="0.12"/>
		
			<ellipse transform="matrix(0.9946 -0.1042 0.1042 0.9946 -3.3919 4.3847)" class="st7" cx="40.271" cy="34.657" rx="0.225" ry="0.12"/>
		
			<ellipse transform="matrix(0.9946 -0.1042 0.1042 0.9946 -3.6402 4.2291)" class="st7" cx="38.658" cy="36.956" rx="0.225" ry="0.12"/>
	</g>
	<g>
		<g>
			<path class="st22" d="M35.061,32.212l-0.174-0.013c-0.034,0.447,0.04,0.838,0.212,1.132c0.006,0.01,0.012,0.019,0.018,0.029
				c0.15,0.24,0.363,0.399,0.619,0.461c0.337,0.082,0.737-0.01,1.127-0.258l-0.094-0.147c-0.349,0.222-0.701,0.306-0.992,0.236
				c-0.222-0.053-0.399-0.192-0.527-0.409C35.095,32.98,35.03,32.624,35.061,32.212z"/>
			<path class="st22" d="M36.157,29.923l0.046,0.038c-0.08,0.076-0.158,0.159-0.234,0.249l0.044,0.037
				c0.547-0.648,1.227-0.93,1.693-0.701c0.139,0.069,0.254,0.179,0.341,0.328c0.394,0.672,0.113,1.934-0.627,2.811l0.044,0.037
				c0.755-0.895,1.039-2.186,0.633-2.878c-0.093-0.159-0.216-0.277-0.365-0.35c-0.332-0.163-0.749-0.092-1.16,0.173
				c0.463-0.397,0.967-0.544,1.332-0.364c0.134,0.065,0.244,0.172,0.329,0.316c0.093,0.159,0.15,0.355,0.168,0.583l0.116-0.009
				c-0.02-0.245-0.082-0.458-0.184-0.633c-0.096-0.165-0.224-0.286-0.378-0.362C37.445,28.947,36.739,29.231,36.157,29.923z"/>
		</g>
		<g>
			<path class="st23" d="M36.073,28.668c0.132,0.065,0.246,0.172,0.333,0.321c0.38,0.646,0.121,1.845-0.576,2.678
				c-0.697,0.833-1.569,0.984-1.949,0.338c-0.38-0.646-0.121-1.845,0.576-2.678C34.994,28.686,35.634,28.449,36.073,28.668z"/>
			<path class="st22" d="M34.297,32.43l1.779,0.896c0,0,0.994-0.051,1.674-1.592c0.68-1.541-0.03-2.021-0.03-2.021l-1.647-1.045
				c0.132,0.065,0.246,0.172,0.333,0.321c0.38,0.646,0.121,1.845-0.576,2.678c-0.697,0.833-1.57,0.984-1.949,0.338L34.297,32.43z"/>
			<polygon class="st19" points="36.138,29.151 36.147,29.476 36.37,29.211 			"/>
		</g>
	</g>
</g>
</svg>
