<?xml version="1.0" encoding="utf-8"?>
<!-- Generator: Adobe Illustrator 25.4.1, SVG Export Plug-In . SVG Version: 6.00 Build 0)  -->
<svg version="1.1" id="Layer_1" xmlns="http://www.w3.org/2000/svg" xmlns:xlink="http://www.w3.org/1999/xlink" x="0px" y="0px"
	 viewBox="0 0 50 50" style="enable-background:new 0 0 50 50;" xml:space="preserve">
<style type="text/css">
	.st0{fill:url(#SVGID_1_);}
	.st1{fill:#344593;}
	.st2{fill:#3E54A3;}
	.st3{fill:#2E4490;}
	.st4{fill:#122571;}
	.st5{opacity:0.5;fill:#031F60;enable-background:new    ;}
	.st6{fill:#BBDFFF;}
	.st7{fill:#FDB724;}
	.st8{fill:#E7478D;}
	.st9{fill:#BF2878;}
	.st10{fill:#27DEBF;}
	.st11{fill:#1BBC9D;}
	.st12{fill:#A33D64;}
	.st13{fill:#82294D;}
	.st14{fill:#0A4A80;}
	.st15{fill:#F1FCFF;}
	.st16{fill:#D6E6FF;}
	.st17{fill:#CEF3FF;}
	.st18{fill:#606060;}
	.st19{enable-background:new    ;}
	.st20{fill:#F19729;}
	.st21{fill:#FCB040;}
	.st22{fill:#FFCB49;}
	.st23{fill:#2E5677;}
	.st24{fill:#FF51CE;}
	.st25{fill:#EDE6A0;}
	.st26{fill:#FFF7B0;}
	.st27{fill:url(#SVGID_00000031167505951345087530000015178335661019454109_);}
</style>
<radialGradient id="SVGID_1_" cx="24.5952" cy="33.094" r="15.8947" gradientTransform="matrix(1.5353 0 0 -0.4819 -12.749 57.445)" gradientUnits="userSpaceOnUse">
	<stop  offset="0.4351" style="stop-color:#B4BCC1"/>
	<stop  offset="0.94" style="stop-color:#ECEEEF;stop-opacity:0"/>
</radialGradient>
<ellipse class="st0" cx="25.012" cy="41.497" rx="24.402" ry="7.66"/>
<g>
	<g id="XMLID_4903_">
		<path id="XMLID_4905_" class="st1" d="M45.34,33.2v-4.566h-0.001c0.014-0.884-0.562-1.769-1.73-2.444
			c-2.308-1.333-6.05-1.333-8.358,0c-1.168,0.674-1.743,1.56-1.73,2.444l0,0v4.548c-0.009,0.88,0.567,1.762,1.73,2.433
			c2.308,1.333,6.05,1.333,8.358,0c1.151-0.665,1.728-1.536,1.731-2.407l0,0v-0.003C45.34,33.204,45.34,33.202,45.34,33.2z"/>
		<path id="XMLID_4904_" class="st1" d="M45.34,33.2v-4.566h-0.001c0.014-0.884-0.562-1.769-1.73-2.444
			c-2.308-1.333-6.05-1.333-8.358,0c-1.168,0.674-1.743,1.56-1.73,2.444l0,0v4.548c-0.009,0.88,0.567,1.762,1.73,2.433
			c2.308,1.333,6.05,1.333,8.358,0c1.151-0.665,1.728-1.536,1.731-2.407l0,0v-0.003C45.34,33.204,45.34,33.202,45.34,33.2z"/>
	</g>
	<polygon id="XMLID_4900_" class="st2" points="39.43,22.974 29.679,28.603 39.43,34.233 49.181,28.604 	"/>
	<path id="XMLID_4899_" class="st3" d="M44.31,31.416l-4.803-2.74c-0.082-0.047-0.187-0.018-0.234,0.064
		c-0.047,0.082-0.018,0.187,0.064,0.234l4.629,2.641L44.31,31.416z"/>
	<polygon id="XMLID_4896_" class="st4" points="29.679,28.603 29.679,29.006 39.43,34.635 39.43,34.233 	"/>
	<polygon id="XMLID_4883_" class="st3" points="49.181,28.604 49.181,29.006 39.43,34.635 39.43,34.233 	"/>
	<polygon id="XMLID_4876_" class="st5" points="33.51,31.217 39.43,35.238 45.334,31.226 39.43,34.635 	"/>
	<g id="XMLID_4823_">
		<path id="XMLID_4835_" class="st6" d="M44.654,36.214c-0.095,0-0.171-0.077-0.171-0.171v-4.026c0-0.184-0.099-0.354-0.259-0.446
			l-4.886-2.788c-0.082-0.047-0.111-0.152-0.064-0.234c0.047-0.082,0.152-0.111,0.234-0.064l4.886,2.788
			c0.266,0.152,0.432,0.437,0.432,0.743v4.026C44.825,36.137,44.748,36.214,44.654,36.214z"/>
	</g>
	<path class="st7" d="M45.35,39.259l-0.399-2.708c0.072-0.057,0.087-0.161,0.032-0.235c-0.012-0.016-0.033-0.019-0.049-0.029
		c0.013-0.015,0.022-0.032,0.032-0.048c0.009-0.014,0.02-0.025,0.027-0.041c0.013-0.029,0.018-0.061,0.023-0.093
		c0.003-0.015,0.01-0.027,0.011-0.043c0,0.002-0.003,0.004-0.003,0.006c0.001-0.009,0.005-0.017,0.005-0.027
		c0-0.208-0.169-0.376-0.376-0.376c-0.02,0-0.038,0.009-0.058,0.012c0.002-0.002,0.003-0.005,0.006-0.006
		c-0.015,0.002-0.027,0.01-0.041,0.014c-0.025,0.007-0.05,0.012-0.073,0.024c-0.02,0.01-0.036,0.023-0.054,0.036
		c-0.019,0.014-0.039,0.026-0.055,0.043c-0.019,0.02-0.032,0.044-0.046,0.068c-0.009,0.016-0.021,0.029-0.028,0.046
		c-0.018,0.043-0.028,0.09-0.028,0.14c0,0.099,0.04,0.187,0.102,0.254c-0.012,0.01-0.029,0.011-0.039,0.025
		c-0.051,0.073-0.032,0.17,0.035,0.226l-0.419,2.712c0,0.144,0.104,0.246,0.251,0.313v0.004c0.028,0.013,0.058,0.024,0.089,0.034
		l0.001-0.008c0.097,0.031,0.201,0.051,0.312,0.055v0.003c0.011,0,0.022,0,0.033,0c0.007,0,0.014,0,0.021,0c0.011,0,0.022,0,0.033,0
		v-0.003c0.124-0.004,0.241-0.028,0.345-0.066v0.008c0.03-0.011,0.058-0.023,0.085-0.036v-0.001
		C45.261,39.496,45.35,39.395,45.35,39.259z"/>
</g>
<g id="XMLID_3738_">
	<path id="XMLID_4404_" class="st8" d="M12.447,36.097c1.149-0.808,1.837-2.66,1.696-3.991c-0.148-1.402-1.187-2.034-1.717-2.3
		v0.002c-1.116-0.565-2.788-0.565-3.903,0v-0.002c-0.529,0.265-1.569,0.898-1.717,2.3c-0.141,1.334,0.551,3.191,1.704,3.996
		c0.005,0.004,0.011,0.007,0.016,0.011c0.054,0.037,0.108,0.072,0.163,0.104c0.986,0.569,2.584,0.569,3.57,0
		c0.009-0.005,0.017-0.011,0.026-0.017c0.043-0.025,0.084-0.052,0.126-0.08C12.424,36.113,12.436,36.105,12.447,36.097z"/>
	<path id="XMLID_4395_" class="st9" d="M9.947,30.789c-0.292,0.169-0.292,0.442,0,0.611s0.766,0.169,1.059,0
		c0.292-0.169,0.292-0.442,0-0.611C10.713,30.62,10.239,30.62,9.947,30.789z"/>
	<g id="XMLID_4426_">
		<path id="XMLID_2198_" class="st10" d="M10.476,31.198c0,0-0.923-0.014-1.438-0.703c-0.514-0.689-0.032-1.852-0.032-1.852
			s1.148,0.108,1.675,0.953C11.197,30.426,10.476,31.198,10.476,31.198z"/>
		<path id="XMLID_4431_" class="st11" d="M9.038,30.496c0.514,0.689,1.438,0.703,1.438,0.703c-0.127-1.577-1.47-2.555-1.47-2.555
			S8.524,29.807,9.038,30.496z"/>
	</g>
	<path id="XMLID_4403_" class="st12" d="M10.476,31.198c0,0-0.028-1.334,0.671-1.926c0.699-0.592,1.205-0.622,1.205-0.622
		c0.412,0,0.937,0.378,0.744,0.429c0,0-0.881,0.039-1.488,0.53c-0.607,0.492-0.883,1.483-0.883,1.629c0,0-0.017,0.091-0.131,0.076
		C10.463,31.299,10.476,31.198,10.476,31.198z"/>
	<path id="XMLID_4496_" class="st13" d="M12.353,28.651c-0.088,0.014-0.069,0.147,0.174,0.272c0.248,0.128,0.37,0.17,0.531,0.16
		c0.025-0.002,0.039-0.003,0.039-0.003C13.29,29.029,12.765,28.651,12.353,28.651z"/>
</g>
<g>
	<g>
		<path class="st14" d="M26.006,28.826l-0.063,0.038c-0.914,0.552-1.823,0.939-2.703,1.151c-0.01,0.002-0.021,0.004-0.032,0.006
			c-0.018,0.003-0.035,0.007-0.056,0.012l-0.521,0.154l-0.063,0.02c-0.095,0.03-0.184,0.06-0.28,0.094l-0.065,0.025
			c-0.083,0.031-0.165,0.064-0.25,0.099c-0.038,0.015-0.075,0.031-0.115,0.048c-0.462,0.197-0.933,0.439-1.4,0.721
			c-0.097,0.058-0.193,0.119-0.29,0.18l-0.11,0.071c-0.415,0.259-1.985,1.491-2.913,2.463l-0.571,0.598l-0.561,0.09
			c-0.984,0.158-2.008,0.537-3.044,1.124c-0.097,0.055-0.193,0.112-0.29,0.17c-0.252,0.152-0.506,0.318-0.758,0.494
			c-0.001,0.001-0.013-0.007-0.013-0.007l-0.093,0.066c-0.096,0.07-0.193,0.142-0.29,0.216l-0.026,0.02l0.005,0.013
			c-0.425,0.325-0.854,0.686-1.276,1.075c-0.098,0.09-0.196,0.18-0.31,0.282c-0.321,0.31-0.654,0.609-0.988,0.888l-0.05,0.041
			c-0.322,0.266-0.654,0.52-0.986,0.753c-0.228,0.161-0.461,0.314-0.69,0.457L7.02,40.302l13.674,8.312l0.064-0.04
			c0.845-0.525,1.673-1.162,2.463-1.895c0.526-0.488,1.08-0.943,1.656-1.364c1.247-0.912,2.33-1.478,3.183-1.83
			c0.661-0.273,1.351-0.459,2.054-0.572c0.005-0.001,0.549-0.572,0.549-0.572c0.687-0.662,1.53-1.291,2.364-1.842
			c1.529-1.01,3.163-1.833,4.856-2.5c0.556-0.219,1.183-0.49,1.61-0.748l0.188-0.114L26.006,28.826z"/>
		<g>
			<g>
				<g>
					<path class="st15" d="M39.053,36.716c-0.478,0.289-0.696,0.389-1.169,0.586c-0.26,0.108-0.518,0.203-0.774,0.283
						c-0.169,0.053-0.338,0.1-0.506,0.14c-0.667,0.161-1.356,0.424-2.047,0.782c-0.187,0.097-0.376,0.203-0.565,0.318
						c-1.294,0.781-2.64,1.963-3.933,3.455l-2.452-1.491l-10.972-6.67c1.294-1.492,2.64-2.674,3.933-3.455
						c0.19-0.115,0.378-0.221,0.565-0.317c0.691-0.358,1.38-0.622,2.047-0.783c0.168-0.04,0.336-0.087,0.506-0.14
						c0.256-0.08,0.515-0.175,0.774-0.283c0.473-0.197,0.691-0.297,1.169-0.586L39.053,36.716z"/>
					<g>
						<path class="st15" d="M30.059,42.281c-1.282,0.068-2.628,0.515-3.925,1.298c-0.192,0.116-0.384,0.24-0.574,0.37
							c-0.691,0.476-1.378,1.044-2.044,1.689c-0.154,0.15-0.31,0.295-0.466,0.435c-0.286,0.258-0.575,0.501-0.866,0.729
							c-0.454,0.356-0.84,0.63-1.3,0.892L7.459,39.533c0.46-0.262,0.845-0.536,1.3-0.892c0.291-0.228,0.58-0.471,0.866-0.729
							c0.156-0.141,0.312-0.286,0.466-0.435c0.666-0.644,1.354-1.213,2.045-1.689c0.19-0.131,0.381-0.254,0.574-0.371
							c1.297-0.783,2.642-1.23,3.925-1.298l10.972,6.67L30.059,42.281z"/>
					</g>
				</g>
				<polygon class="st16" points="7.459,39.533 7.269,40.302 20.694,48.463 20.884,47.694 				"/>
				<path class="st17" d="M39.43,37.139c-0.925,0.559-1.846,0.951-2.738,1.166c-0.021,0.005-0.042,0.01-0.063,0.015
					c-0.079,0.024-0.175,0.048-0.251,0.071c-0.104,0.028-0.209,0.059-0.313,0.091s-0.208,0.067-0.312,0.104
					c-0.597,0.22-1.202,0.515-1.809,0.882c-0.096,0.058-0.192,0.117-0.287,0.179c-1.023,0.655-2.032,1.501-2.999,2.515l-0.6,0.629
					l-0.602,0.097c-0.97,0.156-1.98,0.53-3.003,1.11c-0.096,0.054-0.191,0.11-0.287,0.168c-0.251,0.151-0.501,0.315-0.75,0.489
					c-0.557,0.397-1.119,0.855-1.681,1.373c-0.098,0.09-0.197,0.18-0.307,0.28c-0.89,0.861-1.81,1.581-2.735,2.156l0.19-0.768
					c0.46-0.262,0.845-0.536,1.3-0.892c0.291-0.228,0.58-0.471,0.866-0.729c0.156-0.141,0.312-0.286,0.466-0.435
					c0.666-0.644,1.354-1.213,2.044-1.689c0.19-0.131,0.381-0.254,0.574-0.37c1.297-0.783,2.642-1.23,3.925-1.298
					c1.294-1.492,2.64-2.674,3.933-3.455c0.19-0.115,0.378-0.22,0.565-0.318c0.691-0.358,1.38-0.622,2.047-0.782
					c0.168-0.04,0.336-0.087,0.506-0.14c0.256-0.08,0.515-0.175,0.774-0.283c0.473-0.197,0.691-0.297,1.169-0.586L39.43,37.139z"/>
			</g>
		</g>
		<g>
			<path class="st18" d="M17.842,34.601c0.014,0,0.028-0.006,0.038-0.017c1.204-1.351,2.47-2.446,3.662-3.166
				c0.186-0.112,0.371-0.216,0.55-0.309c0.672-0.349,1.34-0.604,1.987-0.76c0.172-0.042,0.348-0.09,0.523-0.145
				c0.262-0.082,0.531-0.18,0.797-0.291c0.429-0.179,0.659-0.282,1.061-0.519c0.024-0.014,0.032-0.046,0.018-0.07
				s-0.046-0.032-0.07-0.018c-0.397,0.233-0.624,0.335-1.048,0.513c-0.264,0.11-0.529,0.207-0.788,0.288
				c-0.172,0.054-0.346,0.102-0.516,0.143c-0.655,0.158-1.331,0.416-2.01,0.769c-0.181,0.094-0.368,0.199-0.556,0.312
				c-1.201,0.725-2.475,1.827-3.686,3.185c-0.019,0.021-0.017,0.053,0.004,0.072C17.818,34.597,17.83,34.601,17.842,34.601z"/>
			<path class="st18" d="M25.402,30.585c-0.171,0.053-0.344,0.101-0.514,0.142c-0.656,0.158-1.335,0.418-2.017,0.771
				c-0.181,0.094-0.369,0.199-0.558,0.313c-1.205,0.728-2.484,1.833-3.698,3.197c-0.019,0.021-0.017,0.053,0.004,0.072
				c0.01,0.009,0.022,0.013,0.034,0.013c0.014,0,0.028-0.006,0.038-0.017c1.207-1.356,2.478-2.455,3.674-3.178
				c0.187-0.113,0.373-0.217,0.552-0.31c0.675-0.35,1.346-0.606,1.994-0.763c0.173-0.042,0.348-0.09,0.521-0.144
				c0.261-0.082,0.529-0.179,0.794-0.29c0.423-0.176,0.649-0.278,1.041-0.507c0.024-0.014,0.032-0.045,0.018-0.07
				c-0.014-0.024-0.046-0.032-0.07-0.018c-0.387,0.227-0.61,0.327-1.028,0.501C25.925,30.408,25.66,30.504,25.402,30.585z"/>
			<path class="st18" d="M26.232,31.064c-0.17,0.053-0.342,0.101-0.512,0.142c-0.659,0.159-1.34,0.419-2.024,0.774
				c-0.182,0.095-0.371,0.2-0.559,0.314c-1.21,0.731-2.493,1.84-3.71,3.209c-0.019,0.021-0.017,0.053,0.004,0.072
				c0.01,0.009,0.022,0.013,0.034,0.013c0.014,0,0.028-0.006,0.038-0.017c1.211-1.361,2.485-2.464,3.687-3.189
				c0.187-0.113,0.373-0.217,0.554-0.311c0.677-0.351,1.35-0.608,2.001-0.765c0.173-0.042,0.347-0.09,0.519-0.144
				c0.261-0.082,0.527-0.179,0.792-0.289c0.416-0.174,0.639-0.273,1.02-0.496c0.024-0.014,0.033-0.045,0.018-0.07
				c-0.014-0.024-0.046-0.033-0.07-0.018c-0.376,0.22-0.596,0.318-1.008,0.49C26.753,30.887,26.49,30.983,26.232,31.064z"/>
			<path class="st18" d="M27.062,31.542c-0.17,0.053-0.342,0.101-0.51,0.141c-0.662,0.159-1.345,0.421-2.031,0.777
				c-0.182,0.094-0.371,0.2-0.561,0.315c-1.214,0.733-2.501,1.846-3.722,3.22c-0.019,0.021-0.017,0.053,0.004,0.072
				c0.01,0.009,0.022,0.013,0.034,0.013c0.014,0,0.028-0.006,0.038-0.017c1.214-1.366,2.493-2.473,3.699-3.201
				c0.188-0.114,0.375-0.218,0.555-0.312c0.679-0.352,1.354-0.611,2.008-0.768c0.17-0.041,0.344-0.089,0.517-0.143
				c0.259-0.081,0.525-0.178,0.789-0.288c0.41-0.171,0.629-0.269,1-0.485c0.024-0.014,0.033-0.045,0.018-0.07
				c-0.014-0.024-0.046-0.033-0.07-0.018c-0.366,0.213-0.582,0.31-0.988,0.479C27.581,31.366,27.319,31.462,27.062,31.542z"/>
			<path class="st18" d="M27.892,32.021c-0.169,0.053-0.34,0.1-0.508,0.141c-0.664,0.16-1.35,0.422-2.038,0.779
				c-0.184,0.095-0.373,0.202-0.563,0.316c-1.218,0.736-2.51,1.853-3.734,3.232c-0.019,0.021-0.017,0.053,0.004,0.072
				c0.01,0.009,0.022,0.013,0.034,0.013c0.014,0,0.028-0.006,0.038-0.017c1.218-1.371,2.501-2.482,3.711-3.212
				c0.188-0.113,0.375-0.219,0.557-0.313c0.681-0.353,1.359-0.612,2.015-0.77c0.17-0.041,0.343-0.089,0.515-0.143
				c0.26-0.081,0.524-0.178,0.786-0.287c0.405-0.169,0.62-0.265,0.98-0.474c0.024-0.014,0.033-0.045,0.019-0.07
				c-0.014-0.024-0.046-0.033-0.07-0.019c-0.355,0.206-0.567,0.301-0.968,0.468C28.41,31.845,28.149,31.941,27.892,32.021z"/>
			<path class="st18" d="M28.722,32.499c-0.168,0.053-0.339,0.1-0.506,0.14c-0.666,0.161-1.354,0.424-2.045,0.782
				c-0.185,0.096-0.375,0.202-0.565,0.317c-1.223,0.738-2.518,1.86-3.746,3.243c-0.019,0.021-0.017,0.053,0.004,0.072
				c0.01,0.009,0.022,0.013,0.034,0.013c0.014,0,0.028-0.006,0.038-0.017c1.222-1.376,2.509-2.491,3.723-3.224
				c0.188-0.114,0.376-0.219,0.559-0.314c0.683-0.354,1.363-0.614,2.022-0.773c0.17-0.041,0.342-0.089,0.513-0.142
				c0.259-0.081,0.522-0.177,0.784-0.287c0.389-0.162,0.611-0.261,0.96-0.462c0.024-0.014,0.033-0.045,0.019-0.07
				c-0.014-0.025-0.045-0.033-0.07-0.019c-0.345,0.199-0.554,0.292-0.948,0.457C29.239,32.324,28.978,32.42,28.722,32.499z"/>
			<path class="st18" d="M29.552,32.978c-0.169,0.053-0.338,0.1-0.504,0.14c-0.669,0.161-1.359,0.425-2.052,0.784
				c-0.185,0.096-0.376,0.203-0.566,0.318c-1.227,0.741-2.527,1.866-3.759,3.255c-0.019,0.021-0.017,0.053,0.004,0.072
				c0.01,0.009,0.022,0.013,0.034,0.013c0.014,0,0.028-0.006,0.038-0.017c1.225-1.381,2.517-2.499,3.735-3.235
				c0.189-0.114,0.377-0.22,0.561-0.315c0.685-0.355,1.367-0.616,2.028-0.775c0.168-0.041,0.34-0.088,0.511-0.142
				c0.257-0.081,0.52-0.177,0.781-0.286c0.384-0.16,0.601-0.257,0.939-0.451c0.024-0.014,0.033-0.045,0.019-0.07
				c-0.014-0.024-0.046-0.033-0.07-0.019c-0.333,0.192-0.548,0.287-0.928,0.446C30.067,32.803,29.807,32.898,29.552,32.978z"/>
			<path class="st18" d="M30.382,33.457c-0.168,0.053-0.337,0.099-0.502,0.139c-0.671,0.162-1.364,0.426-2.058,0.787
				c-0.186,0.096-0.377,0.204-0.568,0.319c-1.231,0.744-2.535,1.873-3.771,3.266c-0.019,0.021-0.017,0.053,0.004,0.072
				c0.01,0.009,0.022,0.013,0.034,0.013c0.014,0,0.028-0.006,0.038-0.017c1.229-1.386,2.524-2.508,3.747-3.247
				c0.189-0.114,0.378-0.221,0.562-0.316c0.687-0.357,1.372-0.618,2.035-0.778c0.167-0.04,0.338-0.088,0.509-0.141
				c0.257-0.08,0.519-0.176,0.779-0.285c0.377-0.157,0.591-0.252,0.919-0.44c0.024-0.014,0.033-0.045,0.019-0.069
				c-0.014-0.025-0.045-0.033-0.069-0.019c-0.323,0.185-0.535,0.279-0.908,0.434C30.895,33.283,30.636,33.377,30.382,33.457z"/>
			<path class="st18" d="M31.212,33.935c-0.167,0.052-0.336,0.099-0.501,0.139c-0.673,0.162-1.368,0.428-2.065,0.789
				c-0.186,0.096-0.378,0.204-0.57,0.32c-1.236,0.746-2.544,1.88-3.783,3.278c-0.019,0.021-0.017,0.053,0.004,0.072
				c0.01,0.009,0.022,0.013,0.034,0.013c0.014,0,0.028-0.006,0.038-0.017c1.232-1.391,2.532-2.517,3.759-3.258
				c0.19-0.115,0.38-0.222,0.564-0.317c0.69-0.358,1.377-0.62,2.042-0.781c0.167-0.04,0.338-0.088,0.507-0.141
				c0.255-0.08,0.516-0.175,0.776-0.284c0.372-0.155,0.582-0.248,0.899-0.429c0.024-0.014,0.033-0.045,0.019-0.069
				c-0.014-0.025-0.045-0.033-0.069-0.019c-0.312,0.178-0.52,0.269-0.888,0.423C31.723,33.762,31.465,33.856,31.212,33.935z"/>
			<path class="st18" d="M32.042,34.414c-0.167,0.052-0.335,0.099-0.499,0.138c-0.676,0.163-1.373,0.429-2.072,0.792
				c-0.187,0.097-0.38,0.205-0.572,0.321c-1.24,0.749-2.552,1.886-3.795,3.289c-0.019,0.021-0.017,0.053,0.004,0.072
				c0.01,0.009,0.022,0.013,0.034,0.013c0.014,0,0.028-0.006,0.038-0.017c1.236-1.396,2.54-2.526,3.772-3.27
				c0.19-0.115,0.38-0.222,0.566-0.318c0.692-0.359,1.381-0.622,2.049-0.783c0.166-0.04,0.336-0.087,0.505-0.14
				c0.255-0.08,0.515-0.175,0.773-0.283c0.365-0.153,0.571-0.243,0.878-0.417c0.024-0.014,0.033-0.045,0.019-0.069
				c-0.014-0.025-0.045-0.034-0.069-0.019c-0.302,0.171-0.506,0.261-0.868,0.412C32.551,34.241,32.294,34.335,32.042,34.414z"/>
			<path class="st18" d="M32.872,34.892c-0.166,0.052-0.333,0.098-0.497,0.138c-0.678,0.164-1.378,0.431-2.079,0.794
				c-0.188,0.097-0.381,0.206-0.573,0.322c-1.244,0.751-2.561,1.893-3.807,3.301c-0.019,0.021-0.017,0.053,0.004,0.072
				c0.01,0.009,0.022,0.013,0.034,0.013c0.014,0,0.028-0.006,0.038-0.017c1.24-1.401,2.548-2.535,3.784-3.281
				c0.191-0.115,0.382-0.222,0.568-0.319c0.694-0.36,1.385-0.624,2.056-0.786c0.166-0.04,0.335-0.087,0.503-0.139
				c0.255-0.08,0.514-0.174,0.771-0.282c0.329-0.137,0.551-0.233,0.858-0.406c0.025-0.014,0.033-0.045,0.019-0.069
				c-0.014-0.025-0.045-0.033-0.069-0.019c-0.292,0.164-0.492,0.252-0.847,0.401C33.38,34.72,33.124,34.813,32.872,34.892z"/>
			<path class="st18" d="M33.702,35.371c-0.167,0.052-0.333,0.098-0.495,0.137c-0.681,0.164-1.383,0.432-2.086,0.797
				c-0.189,0.098-0.382,0.207-0.575,0.323c-1.249,0.754-2.57,1.9-3.819,3.312c-0.019,0.021-0.017,0.053,0.004,0.072
				c0.01,0.009,0.022,0.013,0.034,0.013c0.014,0,0.028-0.006,0.038-0.017c1.243-1.405,2.556-2.544,3.796-3.293
				c0.191-0.115,0.383-0.223,0.569-0.32c0.696-0.361,1.39-0.626,2.063-0.788c0.164-0.04,0.332-0.086,0.501-0.139
				c0.253-0.079,0.512-0.174,0.768-0.281c0.324-0.135,0.542-0.229,0.838-0.395c0.025-0.014,0.033-0.045,0.02-0.069
				c-0.014-0.025-0.045-0.033-0.069-0.02c-0.291,0.163-0.507,0.256-0.827,0.39C34.208,35.199,33.953,35.293,33.702,35.371z"/>
			<path class="st18" d="M34.532,35.849c-0.165,0.052-0.331,0.098-0.493,0.137c-0.683,0.165-1.387,0.434-2.093,0.8
				c-0.19,0.099-0.384,0.208-0.577,0.324c-1.253,0.757-2.578,1.906-3.832,3.324c-0.019,0.021-0.017,0.053,0.004,0.072
				c0.01,0.009,0.022,0.013,0.034,0.013c0.014,0,0.028-0.006,0.038-0.017c1.247-1.411,2.563-2.553,3.808-3.304
				c0.191-0.115,0.383-0.223,0.571-0.321c0.699-0.362,1.395-0.628,2.07-0.791c0.164-0.04,0.332-0.086,0.499-0.138
				c0.252-0.079,0.51-0.173,0.766-0.28c0.319-0.133,0.532-0.225,0.818-0.384c0.025-0.014,0.033-0.045,0.02-0.069
				c-0.014-0.025-0.045-0.033-0.069-0.02c-0.28,0.156-0.492,0.247-0.807,0.379C35.036,35.678,34.782,35.771,34.532,35.849z"/>
			<path class="st18" d="M35.362,36.328c-0.165,0.051-0.33,0.097-0.491,0.136c-0.686,0.165-1.392,0.435-2.1,0.802
				c-0.189,0.098-0.384,0.208-0.579,0.325c-1.257,0.759-2.586,1.912-3.844,3.335c-0.019,0.021-0.017,0.053,0.004,0.072
				c0.01,0.009,0.022,0.013,0.034,0.013c0.014,0,0.028-0.006,0.038-0.017c1.251-1.416,2.572-2.562,3.82-3.316
				c0.193-0.116,0.385-0.225,0.573-0.322c0.7-0.363,1.399-0.63,2.077-0.794c0.163-0.039,0.33-0.086,0.497-0.138
				c0.252-0.079,0.508-0.173,0.763-0.279c0.313-0.13,0.522-0.221,0.797-0.372c0.025-0.014,0.034-0.045,0.02-0.069
				c-0.014-0.025-0.045-0.034-0.069-0.02c-0.25,0.138-0.437,0.221-0.787,0.367C35.865,36.157,35.611,36.25,35.362,36.328z"/>
			<path class="st18" d="M37.711,36.175c-0.259,0.142-0.462,0.229-0.767,0.356c-0.251,0.105-0.504,0.197-0.751,0.275
				c-0.165,0.051-0.329,0.097-0.489,0.135c-0.688,0.166-1.396,0.436-2.107,0.805c-0.191,0.099-0.386,0.209-0.581,0.326
				c-1.262,0.762-2.595,1.919-3.856,3.347c-0.019,0.021-0.017,0.053,0.004,0.072c0.01,0.009,0.022,0.013,0.034,0.013
				c0.014,0,0.028-0.006,0.038-0.017c1.254-1.42,2.579-2.571,3.832-3.327c0.192-0.116,0.386-0.225,0.575-0.323
				c0.703-0.365,1.404-0.632,2.084-0.796c0.161-0.039,0.328-0.085,0.495-0.137c0.25-0.078,0.506-0.172,0.76-0.278
				c0.308-0.129,0.514-0.217,0.777-0.361c0.025-0.014,0.034-0.045,0.02-0.069C37.767,36.171,37.736,36.162,37.711,36.175z"/>
			<path class="st18" d="M10.642,38.635c0.156-0.141,0.315-0.289,0.473-0.442c0.655-0.634,1.331-1.192,2.01-1.66
				c0.184-0.127,0.373-0.249,0.56-0.362c1.215-0.734,2.49-1.166,3.685-1.251c0.028-0.002,0.049-0.026,0.047-0.054
				c-0.002-0.028-0.028-0.049-0.054-0.047c-1.212,0.086-2.502,0.523-3.731,1.266c-0.189,0.114-0.379,0.237-0.565,0.365
				c-0.683,0.471-1.364,1.033-2.023,1.671c-0.157,0.152-0.315,0.3-0.471,0.44c-0.292,0.263-0.586,0.51-0.875,0.737
				c-0.37,0.29-0.665,0.502-0.956,0.686c-0.024,0.015-0.031,0.047-0.016,0.07c0.01,0.015,0.026,0.024,0.043,0.024
				c0.009,0,0.019-0.003,0.027-0.008c0.295-0.187,0.592-0.4,0.965-0.692C10.052,39.149,10.349,38.899,10.642,38.635z"/>
			<path class="st18" d="M11.461,39.12c0.159-0.144,0.318-0.292,0.472-0.441c0.656-0.635,1.334-1.195,2.014-1.663
				c0.185-0.127,0.374-0.249,0.562-0.363c1.204-0.727,2.468-1.16,3.655-1.25c0.028-0.002,0.049-0.027,0.047-0.055
				c-0.002-0.028-0.031-0.051-0.055-0.047c-1.203,0.092-2.482,0.529-3.7,1.265c-0.19,0.114-0.38,0.238-0.567,0.366
				c-0.684,0.472-1.366,1.035-2.027,1.674c-0.153,0.148-0.311,0.296-0.47,0.439c-0.29,0.261-0.584,0.508-0.873,0.735
				c-0.374,0.293-0.673,0.507-0.969,0.694c-0.024,0.015-0.031,0.046-0.016,0.07c0.01,0.015,0.026,0.024,0.043,0.024
				c0.009,0,0.019-0.003,0.027-0.008c0.299-0.188,0.6-0.404,0.977-0.7C10.873,39.632,11.169,39.383,11.461,39.12z"/>
			<path class="st18" d="M12.279,39.605c0.154-0.139,0.312-0.287,0.471-0.44c0.658-0.637,1.337-1.197,2.018-1.667
				c0.186-0.128,0.375-0.251,0.563-0.364c1.193-0.721,2.447-1.153,3.626-1.25c0.028-0.002,0.049-0.027,0.047-0.055
				s-0.028-0.048-0.055-0.047c-1.194,0.098-2.463,0.535-3.67,1.264c-0.189,0.114-0.381,0.238-0.568,0.367
				c-0.686,0.473-1.369,1.037-2.031,1.677c-0.158,0.153-0.316,0.3-0.469,0.438c-0.288,0.26-0.582,0.507-0.872,0.734
				c-0.379,0.297-0.681,0.513-0.981,0.701c-0.024,0.015-0.031,0.046-0.016,0.07c0.01,0.016,0.026,0.024,0.043,0.024
				c0.009,0,0.019-0.003,0.027-0.008c0.303-0.19,0.608-0.408,0.99-0.707C11.694,40.115,11.989,39.867,12.279,39.605z"/>
			<path class="st18" d="M13.098,40.091c0.158-0.142,0.316-0.29,0.471-0.44c0.659-0.638,1.339-1.199,2.022-1.67
				c0.186-0.128,0.376-0.251,0.565-0.365c1.182-0.714,2.426-1.146,3.596-1.249c0.028-0.003,0.049-0.027,0.046-0.055
				c-0.002-0.028-0.028-0.049-0.055-0.046c-1.186,0.104-2.444,0.541-3.64,1.263c-0.191,0.115-0.382,0.239-0.57,0.368
				c-0.687,0.474-1.372,1.039-2.035,1.681c-0.154,0.149-0.311,0.296-0.468,0.437c-0.289,0.26-0.581,0.506-0.87,0.732
				c-0.384,0.301-0.69,0.519-0.993,0.708c-0.024,0.015-0.031,0.046-0.016,0.07c0.01,0.015,0.026,0.024,0.043,0.024
				c0.009,0,0.019-0.003,0.027-0.008c0.306-0.191,0.615-0.412,1.002-0.714C12.513,40.6,12.807,40.352,13.098,40.091z"/>
			<path class="st18" d="M13.916,40.576c0.155-0.14,0.313-0.287,0.47-0.439c0.66-0.639,1.342-1.202,2.026-1.673
				c0.187-0.129,0.377-0.252,0.566-0.366c1.172-0.707,2.405-1.139,3.566-1.248c0.028-0.003,0.049-0.027,0.046-0.056
				c-0.003-0.028-0.028-0.047-0.056-0.046c-1.177,0.111-2.425,0.547-3.61,1.263c-0.191,0.115-0.383,0.239-0.571,0.369
				c-0.688,0.475-1.374,1.041-2.039,1.684c-0.156,0.151-0.313,0.298-0.467,0.436c-0.287,0.259-0.58,0.505-0.868,0.731
				c-0.388,0.304-0.698,0.524-1.006,0.716c-0.024,0.015-0.031,0.046-0.016,0.07c0.01,0.016,0.026,0.024,0.043,0.024
				c0.009,0,0.018-0.002,0.027-0.008c0.311-0.193,0.624-0.416,1.015-0.722C13.333,41.084,13.627,40.836,13.916,40.576z"/>
			<path class="st18" d="M14.735,41.061c0.159-0.144,0.317-0.291,0.469-0.438c0.662-0.64,1.345-1.204,2.03-1.676
				c0.187-0.129,0.378-0.252,0.568-0.367c1.161-0.701,2.384-1.132,3.537-1.248c0.028-0.003,0.048-0.028,0.046-0.056
				c-0.003-0.028-0.029-0.049-0.056-0.046c-1.168,0.117-2.406,0.553-3.579,1.262c-0.191,0.115-0.384,0.24-0.573,0.37
				c-0.69,0.476-1.377,1.043-2.043,1.687c-0.151,0.146-0.308,0.293-0.466,0.436c-0.286,0.258-0.578,0.503-0.867,0.73
				c-0.393,0.308-0.707,0.531-1.018,0.723c-0.024,0.015-0.031,0.046-0.017,0.07c0.01,0.016,0.026,0.024,0.043,0.024
				c0.009,0,0.018-0.002,0.027-0.008c0.314-0.194,0.631-0.419,1.027-0.729C14.153,41.567,14.447,41.32,14.735,41.061z"/>
			<path class="st18" d="M15.553,41.546c0.156-0.141,0.314-0.288,0.468-0.437c0.663-0.641,1.347-1.207,2.034-1.68
				c0.188-0.13,0.379-0.253,0.569-0.368c1.15-0.694,2.363-1.126,3.507-1.247c0.028-0.003,0.048-0.028,0.045-0.056
				s-0.028-0.048-0.056-0.045c-1.159,0.123-2.386,0.559-3.549,1.261c-0.192,0.116-0.385,0.24-0.574,0.371
				c-0.691,0.476-1.38,1.045-2.047,1.691c-0.154,0.149-0.31,0.295-0.466,0.435c-0.286,0.258-0.577,0.502-0.865,0.728
				c-0.396,0.311-0.714,0.536-1.03,0.73c-0.024,0.015-0.031,0.046-0.017,0.07c0.01,0.016,0.026,0.024,0.043,0.024
				c0.009,0,0.018-0.002,0.027-0.008c0.32-0.197,0.64-0.424,1.04-0.737C14.973,42.052,15.265,41.805,15.553,41.546z"/>
			<path class="st18" d="M16.372,42.031c0.156-0.141,0.313-0.288,0.467-0.437c0.664-0.642,1.349-1.209,2.038-1.683
				c0.19-0.131,0.382-0.255,0.571-0.369c1.139-0.688,2.341-1.119,3.477-1.246c0.028-0.003,0.048-0.028,0.045-0.056
				s-0.029-0.048-0.056-0.045c-1.151,0.129-2.367,0.565-3.519,1.26c-0.191,0.115-0.385,0.241-0.576,0.372
				c-0.693,0.478-1.383,1.048-2.051,1.694c-0.153,0.148-0.31,0.294-0.465,0.434c-0.286,0.257-0.576,0.502-0.863,0.727
				c-0.408,0.32-0.72,0.54-1.042,0.738c-0.024,0.015-0.032,0.046-0.017,0.07c0.01,0.016,0.026,0.024,0.043,0.024
				c0.009,0,0.018-0.002,0.027-0.008c0.326-0.2,0.641-0.422,1.052-0.744C15.792,42.536,16.084,42.29,16.372,42.031z"/>
			<path class="st18" d="M17.19,42.516c0.155-0.14,0.312-0.287,0.467-0.436c0.666-0.644,1.353-1.211,2.042-1.686
				c0.189-0.13,0.381-0.254,0.573-0.37c1.128-0.681,2.32-1.112,3.448-1.246c0.028-0.003,0.048-0.029,0.045-0.057
				s-0.029-0.048-0.057-0.045c-1.142,0.135-2.348,0.571-3.489,1.26c-0.193,0.116-0.387,0.242-0.578,0.373
				c-0.694,0.478-1.385,1.05-2.055,1.697c-0.153,0.148-0.309,0.294-0.464,0.434c-0.284,0.256-0.574,0.5-0.862,0.725
				c-0.411,0.322-0.727,0.545-1.055,0.745c-0.024,0.015-0.032,0.046-0.017,0.07c0.01,0.016,0.026,0.024,0.044,0.024
				c0.009,0,0.018-0.002,0.026-0.007c0.331-0.202,0.65-0.427,1.064-0.752C16.613,43.019,16.905,42.773,17.19,42.516z"/>
			<path class="st18" d="M18.009,43.001c0.157-0.142,0.314-0.288,0.466-0.435c0.667-0.645,1.355-1.214,2.046-1.69
				c0.19-0.131,0.383-0.256,0.574-0.371c1.117-0.675,2.299-1.105,3.418-1.245c0.028-0.003,0.048-0.029,0.044-0.057
				s-0.03-0.047-0.057-0.044c-1.133,0.141-2.329,0.577-3.458,1.259c-0.193,0.116-0.387,0.242-0.579,0.374
				c-0.695,0.479-1.388,1.052-2.059,1.701c-0.151,0.146-0.307,0.292-0.463,0.433c-0.284,0.256-0.573,0.5-0.86,0.724
				c-0.417,0.327-0.736,0.552-1.067,0.752c-0.024,0.015-0.032,0.046-0.017,0.07c0.01,0.016,0.026,0.024,0.044,0.024
				c0.009,0,0.018-0.002,0.026-0.007c0.334-0.203,0.656-0.43,1.077-0.759C17.432,43.504,17.723,43.259,18.009,43.001z"/>
			<path class="st18" d="M18.827,43.486c0.155-0.139,0.311-0.285,0.465-0.434c0.668-0.646,1.357-1.216,2.05-1.693
				c0.191-0.132,0.385-0.257,0.576-0.372c1.106-0.668,2.278-1.098,3.388-1.244c0.028-0.004,0.047-0.029,0.044-0.057
				c-0.004-0.028-0.03-0.046-0.057-0.044c-1.124,0.148-2.31,0.583-3.428,1.258c-0.193,0.116-0.388,0.242-0.581,0.375
				c-0.697,0.481-1.392,1.054-2.063,1.704c-0.153,0.148-0.308,0.293-0.462,0.432c-0.284,0.256-0.573,0.499-0.858,0.723
				c-0.421,0.33-0.744,0.557-1.079,0.759c-0.024,0.015-0.032,0.046-0.017,0.07c0.01,0.016,0.026,0.025,0.044,0.025
				c0.009,0,0.018-0.002,0.026-0.007c0.339-0.204,0.665-0.434,1.089-0.766C18.251,43.988,18.541,43.744,18.827,43.486z"/>
			<path class="st18" d="M19.646,43.971c0.158-0.143,0.315-0.289,0.464-0.434c0.669-0.648,1.361-1.218,2.054-1.696
				c0.19-0.131,0.384-0.256,0.577-0.373c1.096-0.662,2.257-1.092,3.359-1.243c0.028-0.004,0.047-0.03,0.043-0.058
				c-0.004-0.028-0.031-0.046-0.057-0.044c-1.115,0.154-2.29,0.588-3.398,1.257c-0.195,0.118-0.391,0.244-0.582,0.376
				c-0.698,0.481-1.394,1.056-2.067,1.707c-0.149,0.144-0.304,0.289-0.462,0.431c-0.282,0.254-0.571,0.497-0.857,0.721
				c-0.426,0.333-0.752,0.563-1.091,0.767c-0.024,0.014-0.032,0.046-0.017,0.07c0.01,0.016,0.026,0.025,0.044,0.025
				c0.009,0,0.018-0.002,0.026-0.007c0.343-0.206,0.672-0.438,1.102-0.774C19.071,44.472,19.362,44.228,19.646,43.971z"/>
			<path class="st18" d="M20.464,44.457c0.154-0.139,0.31-0.284,0.463-0.433c0.67-0.648,1.363-1.22,2.058-1.7
				c0.191-0.132,0.386-0.258,0.579-0.374c1.085-0.655,2.236-1.085,3.329-1.243c0.028-0.004,0.047-0.03,0.043-0.058
				c-0.004-0.028-0.031-0.048-0.058-0.043c-1.107,0.16-2.271,0.594-3.367,1.256c-0.194,0.117-0.391,0.244-0.584,0.377
				c-0.7,0.483-1.397,1.058-2.071,1.711c-0.153,0.148-0.308,0.293-0.461,0.43c-0.281,0.253-0.569,0.496-0.855,0.72
				c-0.43,0.337-0.76,0.569-1.104,0.774c-0.024,0.015-0.032,0.046-0.018,0.07c0.01,0.016,0.026,0.025,0.044,0.025
				c0.009,0,0.018-0.002,0.026-0.007c0.347-0.208,0.68-0.442,1.114-0.781C19.892,44.955,20.181,44.711,20.464,44.457z"/>
			<path class="st18" d="M21.283,44.942c0.156-0.141,0.312-0.286,0.462-0.432c0.671-0.65,1.365-1.223,2.062-1.703
				c0.192-0.132,0.387-0.258,0.58-0.375c1.074-0.649,2.215-1.078,3.3-1.242c0.028-0.004,0.047-0.03,0.043-0.058
				c-0.004-0.028-0.03-0.047-0.058-0.043c-1.097,0.166-2.251,0.6-3.337,1.256c-0.195,0.118-0.392,0.245-0.586,0.378
				c-0.702,0.484-1.4,1.06-2.075,1.714c-0.15,0.145-0.305,0.29-0.46,0.429c-0.282,0.254-0.569,0.496-0.853,0.719
				c-0.436,0.341-0.769,0.575-1.116,0.781c-0.024,0.014-0.032,0.046-0.018,0.07c0.01,0.016,0.027,0.025,0.044,0.025
				c0.009,0,0.018-0.002,0.026-0.007c0.351-0.209,0.688-0.445,1.127-0.788C20.71,45.44,20.999,45.197,21.283,44.942z"/>
			<path class="st18" d="M25.158,42.826c-0.198,0.119-0.395,0.247-0.587,0.379c-0.702,0.484-1.402,1.062-2.079,1.717
				c-0.152,0.147-0.306,0.291-0.459,0.429c-0.28,0.252-0.567,0.494-0.852,0.717c-0.44,0.345-0.778,0.581-1.128,0.789
				c-0.024,0.014-0.032,0.046-0.018,0.07c0.009,0.016,0.026,0.025,0.044,0.025c0.009,0,0.018-0.002,0.026-0.007
				c0.355-0.21,0.695-0.448,1.139-0.796c0.287-0.225,0.575-0.468,0.857-0.722c0.154-0.139,0.309-0.284,0.462-0.431
				c0.673-0.651,1.369-1.226,2.066-1.706c0.19-0.131,0.386-0.258,0.582-0.376c1.063-0.642,2.194-1.071,3.27-1.241
				c0.028-0.004,0.047-0.03,0.042-0.058c-0.004-0.028-0.031-0.047-0.058-0.042C27.376,41.743,26.233,42.177,25.158,42.826z"/>
		</g>
	</g>
	<g>
		<g>
			<g>
				<g>
					<g class="st19">
						<g>
							<path class="st20" d="M29.126,41.899l-7.894-4.581l-0.09-0.125l7.946,4.61C29.088,41.852,29.103,41.882,29.126,41.899z"/>
						</g>
						<g>
							<path class="st21" d="M29.192,41.585c-0.06,0.063-0.102,0.147-0.103,0.218l-7.946-4.61l0.089-0.228L29.192,41.585z"/>
						</g>
						<g>
							<path class="st22" d="M29.398,41.499c-0.033-0.013-0.077-0.006-0.126,0.022c-0.029,0.017-0.055,0.038-0.079,0.064l-7.96-4.62
								l0.177-0.103L29.398,41.499z"/>
						</g>
					</g>
				</g>
				<g>
					<polygon class="st23" points="30.287,42.243 30.304,42.267 30.287,42.311 30.253,42.33 30.235,42.306 30.252,42.262 					"/>
				</g>
				<path d="M30.286,42.243c0-0.001-0.251-0.214-0.251-0.214l-0.01-0.009c-0.015-0.009-0.038-0.007-0.063,0.008
					c-0.046,0.027-0.084,0.086-0.084,0.132c0,0.023,0.009,0.039,0.024,0.045l0.34,0.121c0.047,0.005,0.068-0.017,0.068-0.043
					C30.31,42.266,30.3,42.252,30.286,42.243z"/>
				<path class="st24" d="M21.656,37.007c-0.033-0.014-0.078-0.008-0.129,0.021c-0.05,0.029-0.096,0.076-0.13,0.129
					c-0.033,0.052-0.054,0.11-0.054,0.161c0,0.043,0.014,0.074,0.039,0.091l-0.446-0.257c-0.033-0.014-0.054-0.048-0.054-0.098
					c0-0.051,0.021-0.108,0.054-0.161c0.033-0.052,0.079-0.099,0.13-0.128c0.05-0.029,0.096-0.036,0.13-0.021l0.015,0.009
					L21.656,37.007z"/>
				<path class="st25" d="M29.417,41.51l-0.019-0.011C29.405,41.502,29.411,41.505,29.417,41.51z"/>
			</g>
			<path class="st26" d="M29.434,41.52l-0.01-0.006c-0.004-0.003-0.008-0.006-0.013-0.009c-0.051-0.03-0.135-0.03-0.186,0
				c-0.034,0.02-0.045,0.048-0.034,0.073c-0.01,0.002-0.021,0.007-0.033,0.015c-0.049,0.034-0.087,0.105-0.08,0.174
				c0.002,0.015,0.011,0.035,0.011,0.037c0,0.049,0.014,0.079,0.038,0.096c0.005,0.004,0.01,0.007,0.016,0.009l0.76,0.297
				c-0.015-0.006-0.024-0.022-0.024-0.045c0-0.046,0.037-0.105,0.084-0.132c0.025-0.014,0.048-0.016,0.063-0.008L29.434,41.52z"/>
		</g>
		
			<linearGradient id="SVGID_00000016074693887051681080000012373515332893490861_" gradientUnits="userSpaceOnUse" x1="21.7451" y1="12.8513" x2="21.5644" y2="12.526" gradientTransform="matrix(1 0 0 -1 0 50)">
			<stop  offset="0" style="stop-color:#78ACED"/>
			<stop  offset="1" style="stop-color:#4F7BB3"/>
		</linearGradient>
		<path style="fill:url(#SVGID_00000016074693887051681080000012373515332893490861_);" d="M22.08,37.252L22.08,37.252
			c0-0.001-0.002-0.001-0.002-0.001l-0.374-0.217v-0.001L21.7,37.032l-0.065-0.038l-0.015-0.009
			c-0.033-0.014-0.079-0.007-0.129,0.022c-0.051,0.029-0.097,0.076-0.13,0.128c-0.033,0.053-0.054,0.11-0.054,0.161
			c0,0.05,0.021,0.085,0.054,0.099l0.063,0.037l0,0l0,0l0.27,0.157l0.002,0.002l-0.001-0.001l0.111,0.065v-0.001l0.001,0.001
			l-0.001-0.001c-0.023-0.016-0.035-0.046-0.037-0.085c0-0.006,0.003-0.014,0.003-0.021c0.003-0.04,0.018-0.083,0.041-0.124
			c0.005-0.01,0.009-0.02,0.016-0.029c0.029-0.042,0.066-0.079,0.107-0.106c0.009-0.006,0.018-0.011,0.027-0.016
			c0.044-0.022,0.086-0.031,0.115-0.019C22.079,37.253,22.08,37.253,22.08,37.252L22.08,37.252L22.08,37.252L22.08,37.252z"/>
	</g>
</g>
</svg>
