<?xml version="1.0" encoding="utf-8"?>
<!-- Generator: Adobe Illustrator 25.4.1, SVG Export Plug-In . SVG Version: 6.00 Build 0)  -->
<svg version="1.1" id="Layer_1" xmlns="http://www.w3.org/2000/svg" xmlns:xlink="http://www.w3.org/1999/xlink" x="0px" y="0px"
	 viewBox="0 0 50 50" style="enable-background:new 0 0 50 50;" xml:space="preserve">
<style type="text/css">
	.st0{fill:url(#SVGID_1_);}
	.st1{enable-background:new    ;}
	.st2{fill:#727272;}
	.st3{fill:#DEDEDE;}
	.st4{fill:#ABABAB;}
	.st5{clip-path:url(#SVGID_00000020398841892554140990000000706994306098334903_);enable-background:new    ;}
	.st6{clip-path:url(#SVGID_00000078744442888444314720000015004832240946581393_);enable-background:new    ;}
	.st7{clip-path:url(#SVGID_00000174589871962873470970000002195150919389591230_);enable-background:new    ;}
	.st8{clip-path:url(#SVGID_00000176030092603648471200000010147688230794602136_);enable-background:new    ;}
	.st9{fill:#FFFFE3;}
	.st10{fill:#FFEA99;}
	.st11{opacity:0.9;}
	.st12{fill:#FFFFFF;}
	.st13{opacity:0.2;fill:#D8D8AA;}
</style>
<radialGradient id="SVGID_1_" cx="16.2273" cy="16.906" r="15.8947" gradientTransform="matrix(1.5353 0 0 0.4819 0.0982 33.35)" gradientUnits="userSpaceOnUse">
	<stop  offset="0" style="stop-color:#B4BCC1"/>
	<stop  offset="0.94" style="stop-color:#ECEEEF;stop-opacity:0"/>
</radialGradient>
<ellipse class="st0" cx="25.012" cy="41.497" rx="24.402" ry="7.66"/>
<g id="light_bulb_1_">
	<g>
		<g>
			<g class="st1">
				<path class="st2" d="M28.566,39.103l-0.591,0.344v0.509h-3.18v-0.488l-0.632-0.365h-0.565c0.344,0.651,0.755,1.425,0.992,1.857
					c0.034,0.061,0.077,0.141,0.136,0.22c0.045,0.077,0.119,0.15,0.226,0.212l0.74,0.427c0.045,0.026,0.094,0.049,0.146,0.069
					c0.018,0.007,0.037,0.011,0.056,0.017c0.035,0.011,0.069,0.023,0.106,0.032c0.022,0.005,0.045,0.008,0.068,0.012
					c0.035,0.006,0.069,0.014,0.104,0.018c0.024,0.003,0.049,0.003,0.073,0.005c0.032,0.002,0.064,0.006,0.096,0.006
					c0.003,0,0.006,0,0.009,0c0.034,0,0.067-0.003,0.101-0.005c0.027-0.002,0.054-0.002,0.081-0.004
					c0.036-0.004,0.071-0.011,0.107-0.017c0.023-0.004,0.047-0.007,0.069-0.012c0.04-0.009,0.078-0.022,0.116-0.035
					c0.016-0.005,0.034-0.009,0.049-0.015c0.053-0.02,0.103-0.043,0.149-0.07l0.735-0.427c0.028-0.016,0.053-0.033,0.076-0.051
					c0.007-0.005,0.013-0.01,0.019-0.015c0.017-0.014,0.033-0.028,0.048-0.043c0.005-0.005,0.01-0.01,0.015-0.014
					c0.018-0.019,0.034-0.038,0.047-0.058c0.002-0.004,0.004-0.007,0.007-0.011c0.011-0.017,0.02-0.033,0.027-0.05
					c0.001-0.003,0.004-0.006,0.005-0.009l1.166-2.036H28.566z"/>
				<g>
					<g>
						<path class="st3" d="M29.155,37.217c0.732,0.423,0.736,1.115,0.009,1.538l-1.471,0.855c-0.727,0.423-1.922,0.423-2.655,0
							l-1.48-0.854c-0.732-0.423-0.736-1.115-0.009-1.538l1.471-0.855c0.727-0.423,1.922-0.423,2.655,0L29.155,37.217z"/>
					</g>
				</g>
			</g>
		</g>
		<g>
			<g class="st1">
				<g>
					<path class="st3" d="M31.477,36.16l-0.521,2.1c-0.195,0.415-0.561,0.809-1.097,1.144l0.399-1.973
						C30.854,37.058,31.26,36.621,31.477,36.16z"/>
				</g>
				<g>
					<path class="st3" d="M30.258,37.431l-0.399,1.973c-0.04,0.025-0.081,0.049-0.122,0.074c-0.839,0.488-1.916,0.755-3.017,0.803
						l0.05-1.875c1.223-0.053,2.42-0.35,3.353-0.892C30.168,37.486,30.214,37.459,30.258,37.431z"/>
				</g>
				<g>
					<path class="st3" d="M26.769,38.405l-0.05,1.875c-0.757,0.032-1.526-0.039-2.236-0.215l-0.198-1.899
						C25.074,38.361,25.928,38.441,26.769,38.405z"/>
				</g>
				<g>
					<path class="st3" d="M24.284,38.166l0.198,1.899c-0.545-0.135-1.055-0.331-1.5-0.588c-0.942-0.544-1.328-1.262-1.41-1.97
						c-0.065-0.557-0.522-2.183-0.522-2.183c-0.002,0.792,0.52,1.585,1.567,2.189C23.112,37.798,23.679,38.016,24.284,38.166z"/>
				</g>
				<g>
					<path class="st3" d="M30.097,33.166c2.079,1.2,2.09,3.147,0.024,4.347c-2.065,1.2-5.426,1.2-7.505,0
						c-2.079-1.2-2.09-3.147-0.024-4.347C24.658,31.965,28.018,31.965,30.097,33.166z"/>
				</g>
			</g>
		</g>
		<g>
			<g>
				<g>
					<g>
						<defs>
							<path id="SVGID_00000160888184256969381220000007312280132418972044_" d="M31.95,34.695l-0.002,0.774
								c-0.002,0.823-0.543,1.646-1.625,2.274c-2.176,1.265-5.716,1.264-7.906-0.001c-1.103-0.637-1.654-1.472-1.652-2.306
								l0.002-0.774c-0.002,0.834,0.548,1.67,1.652,2.306c2.19,1.265,5.73,1.265,7.906,0.001
								C31.406,36.34,31.947,35.518,31.95,34.695z"/>
						</defs>
						<use xlink:href="#SVGID_00000160888184256969381220000007312280132418972044_"  style="overflow:visible;fill:#ABABAB;"/>
						<clipPath id="SVGID_00000116225460193273376460000015078756343492968579_">
							<use xlink:href="#SVGID_00000160888184256969381220000007312280132418972044_"  style="overflow:visible;"/>
						</clipPath>
					</g>
				</g>
				<g>
					<g class="st1">
						<g class="st1">
							<g class="st1">
								<g>
									<path class="st3" d="M31.95,34.695l-0.002,0.774c-0.001,0.257-0.054,0.513-0.159,0.763l0.002-0.774
										C31.896,35.208,31.949,34.951,31.95,34.695z"/>
								</g>
							</g>
						</g>
						<g>
							<g>
								<path class="st3" d="M30.299,32.389c2.19,1.265,2.203,3.315,0.026,4.58c-2.176,1.265-5.716,1.264-7.906-0.001
									c-2.192-1.265-2.203-3.315-0.027-4.58C24.569,31.123,28.107,31.123,30.299,32.389z"/>
							</g>
						</g>
					</g>
				</g>
			</g>
			<g>
				<g>
					<g>
						<defs>
							<path id="SVGID_00000150074970155060554730000011815467040243067572_" d="M31.95,33.655l-0.002,0.774
								c-0.002,0.823-0.543,1.646-1.625,2.274c-2.176,1.264-5.716,1.264-7.906-0.001c-1.103-0.637-1.654-1.472-1.652-2.307
								l0.002-0.774c-0.002,0.834,0.548,1.67,1.652,2.307c2.19,1.264,5.73,1.265,7.906,0.001
								C31.406,35.3,31.947,34.478,31.95,33.655z"/>
						</defs>
						<use xlink:href="#SVGID_00000150074970155060554730000011815467040243067572_"  style="overflow:visible;fill:#ABABAB;"/>
						<clipPath id="SVGID_00000172400842119638840030000010724203822088538506_">
							<use xlink:href="#SVGID_00000150074970155060554730000011815467040243067572_"  style="overflow:visible;"/>
						</clipPath>
					</g>
				</g>
				<g>
					<g class="st1">
						<g class="st1">
							<g class="st1">
								<g>
									<path class="st3" d="M31.95,33.655l-0.002,0.774c-0.001,0.256-0.054,0.513-0.159,0.763l0.002-0.774
										C31.896,34.168,31.949,33.911,31.95,33.655z"/>
								</g>
							</g>
						</g>
						<g>
							<g>
								<path class="st4" d="M30.299,31.348c2.19,1.265,2.203,3.315,0.026,4.58c-2.176,1.265-5.716,1.264-7.906-0.001
									c-2.192-1.265-2.203-3.315-0.027-4.58C24.569,30.083,28.107,30.083,30.299,31.348z"/>
							</g>
						</g>
					</g>
				</g>
			</g>
			<g>
				<g>
					<g>
						<defs>
							<path id="SVGID_00000163039526697596195780000007267542321833890734_" d="M31.95,32.615l-0.002,0.774
								c-0.002,0.823-0.543,1.646-1.625,2.274c-2.176,1.265-5.716,1.264-7.906-0.001c-1.103-0.637-1.654-1.472-1.652-2.306
								l0.002-0.774c-0.002,0.834,0.548,1.67,1.652,2.306c2.19,1.265,5.73,1.265,7.906,0.001
								C31.406,34.26,31.947,33.438,31.95,32.615z"/>
						</defs>
						<use xlink:href="#SVGID_00000163039526697596195780000007267542321833890734_"  style="overflow:visible;fill:#DEDEDE;"/>
						<clipPath id="SVGID_00000081648073795799529340000005221021674216610697_">
							<use xlink:href="#SVGID_00000163039526697596195780000007267542321833890734_"  style="overflow:visible;"/>
						</clipPath>
					</g>
				</g>
				<g>
					<g class="st1">
						<g class="st1">
							<g class="st1">
								<g>
									<path class="st3" d="M31.95,32.615l-0.002,0.774c-0.001,0.257-0.054,0.513-0.159,0.764l0.002-0.774
										C31.896,33.128,31.949,32.871,31.95,32.615z"/>
								</g>
							</g>
						</g>
						<g>
							<g>
								<path class="st4" d="M30.299,30.308c2.19,1.265,2.203,3.315,0.026,4.58c-2.176,1.265-5.716,1.264-7.906-0.001
									c-2.192-1.265-2.203-3.315-0.027-4.579C24.569,29.043,28.107,29.043,30.299,30.308z"/>
							</g>
						</g>
					</g>
				</g>
			</g>
			<g>
				<g>
					<g>
						<defs>
							<path id="SVGID_00000167395816641706290860000018386590648147964344_" d="M31.95,31.575l-0.002,0.774
								c-0.002,0.823-0.543,1.646-1.625,2.274c-2.176,1.265-5.716,1.264-7.906-0.001c-1.103-0.637-1.654-1.472-1.652-2.306
								l0.002-0.774c-0.002,0.834,0.548,1.67,1.652,2.306c2.19,1.265,5.73,1.265,7.906,0.001
								C31.406,33.22,31.947,32.398,31.95,31.575z"/>
						</defs>
						<use xlink:href="#SVGID_00000167395816641706290860000018386590648147964344_"  style="overflow:visible;fill:#DEDEDE;"/>
						<clipPath id="SVGID_00000042707656579692759660000003344720387163036600_">
							<use xlink:href="#SVGID_00000167395816641706290860000018386590648147964344_"  style="overflow:visible;"/>
						</clipPath>
					</g>
				</g>
				<g>
					<g class="st1">
						<g class="st1">
							<g class="st1">
								<g>
									<path class="st3" d="M31.95,31.575l-0.002,0.774c-0.001,0.257-0.054,0.513-0.159,0.764l0.002-0.774
										C31.896,32.088,31.949,31.831,31.95,31.575z"/>
								</g>
							</g>
						</g>
						<g>
							<g>
								<path class="st3" d="M30.299,29.268c2.19,1.265,2.203,3.315,0.026,4.58c-2.176,1.265-5.716,1.264-7.906-0.001
									c-2.192-1.265-2.203-3.315-0.027-4.579C24.569,28.003,28.107,28.003,30.299,29.268z"/>
							</g>
						</g>
					</g>
				</g>
			</g>
			<g>
				<g>
					<g>
						<defs>
							<path id="SVGID_00000117668271033720762020000002512487216476256143_" d="M31.95,30.535l-0.002,0.774
								c-0.002,0.823-0.543,1.646-1.625,2.274c-2.176,1.265-5.716,1.264-7.906-0.001c-1.103-0.637-1.654-1.472-1.652-2.306
								l0.002-0.774c-0.002,0.834,0.548,1.67,1.652,2.306c2.19,1.264,5.73,1.265,7.906,0.001
								C31.406,32.18,31.947,31.358,31.95,30.535z"/>
						</defs>
						<use xlink:href="#SVGID_00000117668271033720762020000002512487216476256143_"  style="overflow:visible;fill:#DEDEDE;"/>
						<clipPath id="SVGID_00000094576945290504021820000018395265286410472344_">
							<use xlink:href="#SVGID_00000117668271033720762020000002512487216476256143_"  style="overflow:visible;"/>
						</clipPath>
					</g>
				</g>
				<g>
					<g class="st1">
						<g class="st1">
							<defs>
								<path id="SVGID_00000080208872891889419070000008668560140310871189_" class="st1" d="M31.95,30.535l-0.002,0.774
									c-0.002,0.823-0.543,1.646-1.625,2.274c-2.176,1.265-5.716,1.264-7.906-0.001c-1.103-0.637-1.654-1.472-1.652-2.306
									l0.002-0.774c-0.002,0.834,0.548,1.67,1.652,2.306c2.19,1.264,5.73,1.265,7.906,0.001
									C31.406,32.18,31.947,31.358,31.95,30.535z"/>
							</defs>
							<use xlink:href="#SVGID_00000080208872891889419070000008668560140310871189_"  style="overflow:visible;fill:#DEDEDE;"/>
							<clipPath id="SVGID_00000024685957038723358300000002678542710039421073_">
								<use xlink:href="#SVGID_00000080208872891889419070000008668560140310871189_"  style="overflow:visible;"/>
							</clipPath>
							<g style="clip-path:url(#SVGID_00000024685957038723358300000002678542710039421073_);enable-background:new    ;">
								<g>
									<path class="st3" d="M31.95,30.535l-0.002,0.774c-0.001,0.257-0.054,0.513-0.159,0.763l0.002-0.774
										C31.896,31.048,31.949,30.791,31.95,30.535z"/>
								</g>
								<g>
									<path class="st3" d="M31.791,31.298l-0.002,0.774c-0.233,0.554-0.721,1.078-1.466,1.511
										c-1.113,0.647-2.584,0.963-4.048,0.947l0.002-0.774c1.464,0.015,2.934-0.3,4.048-0.947
										C31.069,32.376,31.558,31.852,31.791,31.298z"/>
								</g>
								<g>
									<path class="st3" d="M26.277,33.756l-0.002,0.774c-1.397-0.015-2.789-0.331-3.858-0.948
										c-1.103-0.637-1.654-1.472-1.652-2.306l0.002-0.774c-0.002,0.834,0.548,1.67,1.652,2.306
										C23.488,33.425,24.88,33.742,26.277,33.756z"/>
								</g>
							</g>
						</g>
						<g>
							<g>
								<path class="st3" d="M30.299,28.228c2.19,1.264,2.203,3.315,0.026,4.58c-2.176,1.265-5.716,1.264-7.906-0.001
									c-2.192-1.265-2.203-3.315-0.027-4.58C24.569,26.963,28.107,26.963,30.299,28.228z"/>
							</g>
						</g>
					</g>
				</g>
				<g>
					<g>
						<defs>
							<path id="SVGID_00000175317305198087454680000011341823686825346448_" d="M31.95,30.535l-0.002,0.774
								c-0.002,0.823-0.543,1.646-1.625,2.274c-2.176,1.265-5.716,1.264-7.906-0.001c-1.103-0.637-1.654-1.472-1.652-2.306
								l0.002-0.774c-0.002,0.834,0.548,1.67,1.652,2.306c2.19,1.264,5.73,1.265,7.906,0.001
								C31.406,32.18,31.947,31.358,31.95,30.535z"/>
						</defs>
						<use xlink:href="#SVGID_00000175317305198087454680000011341823686825346448_"  style="overflow:visible;fill:#DEDEDE;"/>
						<clipPath id="SVGID_00000070817122471433395550000009155827881384824720_">
							<use xlink:href="#SVGID_00000175317305198087454680000011341823686825346448_"  style="overflow:visible;"/>
						</clipPath>
					</g>
				</g>
			</g>
			<g>
				<g>
					<g>
						<defs>
							<path id="SVGID_00000062164931082518775330000000188690198206855065_" d="M31.95,29.495l-0.002,0.774
								c-0.002,0.823-0.543,1.646-1.625,2.274c-2.176,1.265-5.716,1.264-7.906-0.001c-1.103-0.637-1.654-1.472-1.652-2.307
								l0.002-0.774c-0.002,0.834,0.548,1.669,1.652,2.306c2.19,1.265,5.73,1.265,7.906,0.001
								C31.406,31.14,31.947,30.318,31.95,29.495z"/>
						</defs>
						<use xlink:href="#SVGID_00000062164931082518775330000000188690198206855065_"  style="overflow:visible;fill:#DEDEDE;"/>
						<clipPath id="SVGID_00000136410079467732348170000007208375708030210692_">
							<use xlink:href="#SVGID_00000062164931082518775330000000188690198206855065_"  style="overflow:visible;"/>
						</clipPath>
					</g>
				</g>
				<g>
					<g class="st1">
						<g class="st1">
							<defs>
								<path id="SVGID_00000119099890658124190690000004241388522680070299_" class="st1" d="M31.95,29.495l-0.002,0.774
									c-0.002,0.823-0.543,1.646-1.625,2.274c-2.176,1.265-5.716,1.264-7.906-0.001c-1.103-0.637-1.654-1.472-1.652-2.307
									l0.002-0.774c-0.002,0.834,0.548,1.669,1.652,2.306c2.19,1.265,5.73,1.265,7.906,0.001
									C31.406,31.14,31.947,30.318,31.95,29.495z"/>
							</defs>
							<use xlink:href="#SVGID_00000119099890658124190690000004241388522680070299_"  style="overflow:visible;fill:#DEDEDE;"/>
							<clipPath id="SVGID_00000113311077982876187490000015738431838632160421_">
								<use xlink:href="#SVGID_00000119099890658124190690000004241388522680070299_"  style="overflow:visible;"/>
							</clipPath>
							<g style="clip-path:url(#SVGID_00000113311077982876187490000015738431838632160421_);enable-background:new    ;">
								<g>
									<path class="st3" d="M31.95,29.495l-0.002,0.774c-0.001,0.257-0.054,0.513-0.159,0.763l0.002-0.774
										C31.896,30.008,31.949,29.751,31.95,29.495z"/>
								</g>
								<g>
									<path class="st3" d="M31.791,30.258l-0.002,0.774c-0.233,0.553-0.721,1.078-1.466,1.511
										c-1.113,0.647-2.584,0.963-4.048,0.947l0.002-0.774c1.464,0.015,2.934-0.301,4.048-0.948
										C31.069,31.336,31.558,30.811,31.791,30.258z"/>
								</g>
								<g>
									<path class="st3" d="M26.277,32.716l-0.002,0.774c-1.397-0.015-2.789-0.331-3.858-0.948
										c-1.103-0.637-1.654-1.472-1.652-2.307l0.002-0.774c-0.002,0.834,0.548,1.669,1.652,2.306
										C23.488,32.385,24.88,32.702,26.277,32.716z"/>
								</g>
							</g>
						</g>
						<g>
							<g>
								<path class="st3" d="M30.299,27.188c2.19,1.265,2.203,3.315,0.026,4.58c-2.176,1.265-5.716,1.264-7.906-0.001
									c-2.192-1.265-2.203-3.315-0.027-4.579C24.569,25.923,28.107,25.923,30.299,27.188z"/>
							</g>
						</g>
					</g>
				</g>
				<g>
					<g>
						<defs>
							<path id="SVGID_00000018935584541006244520000006153154310338233216_" d="M31.95,29.495l-0.002,0.774
								c-0.002,0.823-0.543,1.646-1.625,2.274c-2.176,1.265-5.716,1.264-7.906-0.001c-1.103-0.637-1.654-1.472-1.652-2.307
								l0.002-0.774c-0.002,0.834,0.548,1.669,1.652,2.306c2.19,1.265,5.73,1.265,7.906,0.001
								C31.406,31.14,31.947,30.318,31.95,29.495z"/>
						</defs>
						<use xlink:href="#SVGID_00000018935584541006244520000006153154310338233216_"  style="overflow:visible;fill:#DEDEDE;"/>
						<clipPath id="SVGID_00000170260147916371574960000009270744435998285702_">
							<use xlink:href="#SVGID_00000018935584541006244520000006153154310338233216_"  style="overflow:visible;"/>
						</clipPath>
					</g>
				</g>
			</g>
			<g>
				<g>
					<g>
						<defs>
							<path id="SVGID_00000093179300241629191290000016887079245106613690_" d="M31.95,28.455l-0.002,0.774
								c-0.002,0.823-0.543,1.646-1.625,2.274c-2.176,1.265-5.716,1.264-7.906-0.001c-1.103-0.637-1.654-1.472-1.652-2.306
								l0.002-0.774c-0.002,0.834,0.548,1.67,1.652,2.306c2.19,1.264,5.73,1.265,7.906,0.001
								C31.406,30.1,31.947,29.278,31.95,28.455z"/>
						</defs>
						<use xlink:href="#SVGID_00000093179300241629191290000016887079245106613690_"  style="overflow:visible;fill:#DEDEDE;"/>
						<clipPath id="SVGID_00000075151037799402050470000010901262922037813674_">
							<use xlink:href="#SVGID_00000093179300241629191290000016887079245106613690_"  style="overflow:visible;"/>
						</clipPath>
					</g>
				</g>
				<g>
					<g class="st1">
						<g class="st1">
							<defs>
								<path id="SVGID_00000109715429389895188370000012972410684152688800_" class="st1" d="M31.95,28.455l-0.002,0.774
									c-0.002,0.823-0.543,1.646-1.625,2.274c-2.176,1.265-5.716,1.264-7.906-0.001c-1.103-0.637-1.654-1.472-1.652-2.306
									l0.002-0.774c-0.002,0.834,0.548,1.67,1.652,2.306c2.19,1.264,5.73,1.265,7.906,0.001
									C31.406,30.1,31.947,29.278,31.95,28.455z"/>
							</defs>
							<use xlink:href="#SVGID_00000109715429389895188370000012972410684152688800_"  style="overflow:visible;fill:#DEDEDE;"/>
							<clipPath id="SVGID_00000005947266431863194240000017485654539456134020_">
								<use xlink:href="#SVGID_00000109715429389895188370000012972410684152688800_"  style="overflow:visible;"/>
							</clipPath>
							<g style="clip-path:url(#SVGID_00000005947266431863194240000017485654539456134020_);enable-background:new    ;">
								<g>
									<path class="st3" d="M31.95,28.455l-0.002,0.774c-0.001,0.257-0.054,0.513-0.159,0.763l0.002-0.774
										C31.896,28.968,31.949,28.711,31.95,28.455z"/>
								</g>
								<g>
									<path class="st3" d="M31.791,29.218l-0.002,0.774c-0.233,0.554-0.721,1.078-1.466,1.511
										c-1.113,0.647-2.584,0.963-4.048,0.947l0.002-0.774c1.464,0.015,2.934-0.3,4.048-0.947
										C31.069,30.296,31.558,29.772,31.791,29.218z"/>
								</g>
								<g>
									<path class="st3" d="M26.277,31.676l-0.002,0.774c-1.397-0.015-2.789-0.331-3.858-0.948
										c-1.103-0.637-1.654-1.472-1.652-2.306l0.002-0.774c-0.002,0.834,0.548,1.67,1.652,2.306
										C23.488,31.345,24.88,31.662,26.277,31.676z"/>
								</g>
							</g>
						</g>
						<g>
							<g>
								<path class="st3" d="M30.299,26.148c2.19,1.265,2.203,3.315,0.026,4.58c-2.176,1.265-5.716,1.264-7.906-0.001
									c-2.192-1.265-2.203-3.315-0.027-4.579C24.569,24.883,28.107,24.883,30.299,26.148z"/>
							</g>
						</g>
					</g>
				</g>
				<g>
					<g>
						<defs>
							<path id="SVGID_00000032627274896010739240000009138216694607108024_" d="M31.95,28.455l-0.002,0.774
								c-0.002,0.823-0.543,1.646-1.625,2.274c-2.176,1.265-5.716,1.264-7.906-0.001c-1.103-0.637-1.654-1.472-1.652-2.306
								l0.002-0.774c-0.002,0.834,0.548,1.67,1.652,2.306c2.19,1.264,5.73,1.265,7.906,0.001
								C31.406,30.1,31.947,29.278,31.95,28.455z"/>
						</defs>
						<use xlink:href="#SVGID_00000032627274896010739240000009138216694607108024_"  style="overflow:visible;fill:#DEDEDE;"/>
						<clipPath id="SVGID_00000089574509595220151820000003265306430002656433_">
							<use xlink:href="#SVGID_00000032627274896010739240000009138216694607108024_"  style="overflow:visible;"/>
						</clipPath>
					</g>
				</g>
			</g>
			<g>
				<g>
					<g>
						<defs>
							<path id="SVGID_00000018922619170814498970000000539465375996346800_" d="M31.95,27.415l-0.002,0.774
								c-0.002,0.823-0.543,1.646-1.625,2.274c-2.176,1.265-5.716,1.264-7.906-0.001c-1.103-0.637-1.654-1.472-1.652-2.306
								l0.002-0.774c-0.002,0.834,0.548,1.67,1.652,2.307c2.19,1.264,5.73,1.265,7.906,0.001
								C31.406,29.06,31.947,28.238,31.95,27.415z"/>
						</defs>
						<use xlink:href="#SVGID_00000018922619170814498970000000539465375996346800_"  style="overflow:visible;fill:#DEDEDE;"/>
						<clipPath id="SVGID_00000165922455685144443940000013354131382148308629_">
							<use xlink:href="#SVGID_00000018922619170814498970000000539465375996346800_"  style="overflow:visible;"/>
						</clipPath>
					</g>
				</g>
				<g>
					<g class="st1">
						<g class="st1">
							<defs>
								<path id="SVGID_00000070829954737144386530000004334823474412291989_" class="st1" d="M31.95,27.415l-0.002,0.774
									c-0.002,0.823-0.543,1.646-1.625,2.274c-2.176,1.265-5.716,1.264-7.906-0.001c-1.103-0.637-1.654-1.472-1.652-2.306
									l0.002-0.774c-0.002,0.834,0.548,1.67,1.652,2.307c2.19,1.264,5.73,1.265,7.906,0.001
									C31.406,29.06,31.947,28.238,31.95,27.415z"/>
							</defs>
							<use xlink:href="#SVGID_00000070829954737144386530000004334823474412291989_"  style="overflow:visible;fill:#DEDEDE;"/>
							<clipPath id="SVGID_00000155135487482483080900000012923449478076563359_">
								<use xlink:href="#SVGID_00000070829954737144386530000004334823474412291989_"  style="overflow:visible;"/>
							</clipPath>
							<g style="clip-path:url(#SVGID_00000155135487482483080900000012923449478076563359_);enable-background:new    ;">
								<g>
									<path class="st3" d="M31.95,27.415l-0.002,0.774c-0.001,0.257-0.054,0.513-0.159,0.763l0.002-0.774
										C31.896,27.927,31.949,27.671,31.95,27.415z"/>
								</g>
								<g>
									<path class="st3" d="M31.791,28.178l-0.002,0.774c-0.233,0.554-0.721,1.078-1.466,1.511
										c-1.113,0.647-2.584,0.963-4.048,0.948l0.002-0.774c1.464,0.015,2.934-0.3,4.048-0.947
										C31.069,29.256,31.558,28.731,31.791,28.178z"/>
								</g>
								<g>
									<path class="st3" d="M26.277,30.636l-0.002,0.774c-1.397-0.015-2.789-0.331-3.858-0.948
										c-1.103-0.637-1.654-1.472-1.652-2.306l0.002-0.774c-0.002,0.834,0.548,1.67,1.652,2.307
										C23.488,30.305,24.88,30.621,26.277,30.636z"/>
								</g>
							</g>
						</g>
						<g>
							<g>
								<path class="st3" d="M30.299,25.108c2.19,1.264,2.203,3.315,0.026,4.58c-2.176,1.264-5.716,1.264-7.906-0.001
									c-2.192-1.265-2.203-3.315-0.027-4.58C24.569,23.843,28.107,23.843,30.299,25.108z"/>
							</g>
						</g>
					</g>
				</g>
				<g>
					<g>
						<defs>
							<path id="SVGID_00000175282135741647377930000004873640915266470844_" d="M31.95,27.415l-0.002,0.774
								c-0.002,0.823-0.543,1.646-1.625,2.274c-2.176,1.265-5.716,1.264-7.906-0.001c-1.103-0.637-1.654-1.472-1.652-2.306
								l0.002-0.774c-0.002,0.834,0.548,1.67,1.652,2.307c2.19,1.264,5.73,1.265,7.906,0.001
								C31.406,29.06,31.947,28.238,31.95,27.415z"/>
						</defs>
						<use xlink:href="#SVGID_00000175282135741647377930000004873640915266470844_"  style="overflow:visible;fill:#DEDEDE;"/>
						<clipPath id="SVGID_00000135677697928778101160000001237139548242739101_">
							<use xlink:href="#SVGID_00000175282135741647377930000004873640915266470844_"  style="overflow:visible;"/>
						</clipPath>
					</g>
				</g>
			</g>
		</g>
	</g>
	<g>
		<g>
			<path class="st9" d="M35.653,23.764c-0.075,0.213-2.578,5.05-3.33,7.675c-0.044,0.154-0.144,0.586-0.159,0.66
				c-0.149,0.698-0.595,1.384-1.397,1.868c-2.503,1.502-6.285,1.497-8.791,0c-0.746-0.446-1.188-1.063-1.375-1.703
				c-0.038-0.129-0.138-0.597-0.167-0.706c-0.741-2.766-3.293-7.598-3.361-7.782C23.401,23.773,29.325,23.767,35.653,23.764z"/>
		</g>
	</g>
	<g>
		<path class="st9" d="M36.972,18.639c0,1.838-0.468,3.568-1.291,5.074c-0.296,0.547-0.64,1.066-1.026,1.547
			c-0.403,0.403-0.899,0.778-1.486,1.119c-1.804,1.049-4.214,1.624-6.784,1.624c-2.568,0-4.983-0.575-6.799-1.624
			c-0.662-0.38-1.215-0.809-1.646-1.271c-0.321-0.417-0.614-0.863-0.868-1.325c-0.848-1.522-1.33-3.278-1.33-5.144
			c0-5.86,4.752-10.615,10.615-10.615C32.22,8.024,36.972,12.779,36.972,18.639z"/>
	</g>
	<g>
		<g>
			<path class="st10" d="M30.416,29.546c2.255,1.302,2.269,3.414,0.027,4.717c-2.241,1.302-5.886,1.301-8.141-0.001
				c-2.257-1.303-2.269-3.414-0.028-4.716C24.516,28.243,28.159,28.243,30.416,29.546z"/>
		</g>
	</g>
	<g class="st11">
		<g>
			<path class="st12" d="M21.921,10.298c2.265-0.75,3.923,0.558,3.701,2.925c-0.222,2.365-2.239,4.89-4.504,5.64
				c-2.267,0.751-3.923-0.558-3.701-2.923C17.638,13.573,19.654,11.049,21.921,10.298z"/>
		</g>
	</g>
	<g>
		<g>
			<g>
				<path class="st3" d="M26.858,32.412c-0.167,0-0.346-0.053-0.527-0.157l-0.971-0.56c-0.415-0.24-0.787-0.734-0.949-1.259
					l-2.91-9.463c-0.039-0.126,0.032-0.259,0.158-0.298c0.126-0.04,0.259,0.032,0.297,0.158l2.91,9.463
					c0.126,0.411,0.42,0.807,0.732,0.987l0.971,0.56c0.14,0.081,0.275,0.111,0.368,0.082c0.06-0.019,0.105-0.062,0.138-0.131
					l2.91-6.103c0.057-0.119,0.198-0.169,0.317-0.112c0.119,0.056,0.169,0.198,0.112,0.317l-2.91,6.103
					c-0.091,0.191-0.239,0.323-0.427,0.381C27.008,32.401,26.934,32.412,26.858,32.412z"/>
			</g>
		</g>
		<g>
			<g>
				<path class="st3" d="M24.731,24.071c-0.347,0-0.727-0.113-1.115-0.338c-1.296-0.748-2.35-2.574-2.35-4.07
					c0-0.777,0.274-1.363,0.773-1.65c0.498-0.288,1.143-0.232,1.815,0.156c1.296,0.748,2.35,2.573,2.35,4.069
					c0,0.777-0.274,1.363-0.773,1.65C25.22,24.011,24.984,24.071,24.731,24.071z M22.739,18.309c-0.171,0-0.327,0.039-0.463,0.117
					c-0.345,0.199-0.535,0.638-0.535,1.238c0,1.344,0.947,2.985,2.112,3.657c0.519,0.3,0.994,0.355,1.339,0.156
					c0.345-0.199,0.535-0.639,0.535-1.238c0-1.345-0.947-2.985-2.111-3.657C23.301,18.401,23.002,18.309,22.739,18.309z"/>
			</g>
			<g>
				<path class="st3" d="M29.192,26.647c-0.348,0-0.727-0.113-1.116-0.338c-1.295-0.748-2.349-2.573-2.349-4.07
					c0-0.777,0.274-1.362,0.772-1.65c0.499-0.288,1.144-0.232,1.816,0.156c1.295,0.748,2.349,2.574,2.349,4.07
					c0,0.776-0.274,1.362-0.772,1.65C29.682,26.586,29.446,26.647,29.192,26.647z M27.201,20.884c-0.172,0-0.328,0.039-0.463,0.117
					c-0.345,0.199-0.534,0.639-0.534,1.238c0,1.345,0.947,2.985,2.111,3.657c0.52,0.3,0.996,0.356,1.34,0.156
					c0.345-0.199,0.534-0.638,0.534-1.238c0-1.344-0.947-2.985-2.111-3.657C27.762,20.976,27.464,20.884,27.201,20.884z"/>
			</g>
			<g>
				<path class="st3" d="M26.962,25.359c-0.347,0-0.727-0.113-1.116-0.338c-1.295-0.748-2.349-2.574-2.349-4.069
					c0-0.776,0.274-1.363,0.772-1.65c0.498-0.288,1.142-0.232,1.815,0.156c1.295,0.748,2.35,2.574,2.35,4.069
					c0,0.777-0.274,1.363-0.773,1.65C27.452,25.299,27.215,25.359,26.962,25.359z M24.97,19.596c-0.171,0-0.327,0.039-0.463,0.117
					c-0.345,0.199-0.534,0.638-0.534,1.238c0,1.344,0.947,2.985,2.112,3.657c0.52,0.3,0.995,0.355,1.339,0.156
					c0.345-0.199,0.535-0.638,0.535-1.238c0-1.344-0.947-2.985-2.112-3.657C25.531,19.689,25.233,19.596,24.97,19.596z"/>
			</g>
		</g>
	</g>
	<path class="st13" d="M36.972,18.639c0-5.273-3.848-9.649-8.89-10.473c4.062,2.353,6.659,7.446,5.612,11.98
		c-0.868,4.196-2.46,8.682-6.222,10.708c-2.611,1.278-5.03,0.912-7.322-0.21c0.11,0.322,0.207,0.63,0.283,0.915
		c0.029,0.11,0.13,0.578,0.167,0.706c0.187,0.64,0.628,1.258,1.375,1.703c2.506,1.497,6.288,1.502,8.791,0
		c0.802-0.484,1.248-1.171,1.397-1.868c0.016-0.074,0.115-0.506,0.159-0.66c0.752-2.625,3.255-7.462,3.33-7.675c0,0-0.001,0-0.001,0
		c0.01-0.018,0.02-0.035,0.03-0.052C36.504,22.207,36.972,20.477,36.972,18.639z"/>
</g>
</svg>
