<svg version="1.1" xmlns="http://www.w3.org/2000/svg" xmlns:xlink="http://www.w3.org/1999/xlink" x="0px" y="0px" viewBox="0 0 400 400">
<style type="text/css">
	.st0{fill:#FFFFFF;}
</style>
	<g>
		<path class="st0" d="M245.894,269c-2.224,0.181-4.636,0.546-7.037,0.488c-0.931-0.023-2.024-0.83-2.722-1.579
			c-2.05-2.201-4.083-4.447-5.85-6.874c-1.936-2.66-4.211-4.465-7.629-4.24c-3.483,0.229-5.662,2.223-7.298,5.234
			c-1.605,2.953-3.572,5.713-5.443,8.517c-0.785,1.177-1.968,1.792-3.409,1.918c-6.821,0.593-13.641,1.207-20.462,1.806
			c-2.1,0.184-4.202,0.344-6.224,0.509c-0.455-2.401-0.772-4.621-1.311-6.785c-0.707-2.84-2.298-5.102-4.679-6.891
			c-7.532-5.659-14.868-11.569-21.462-18.318c-1.935-1.98-3.581-4.285-5.124-6.599c-6.251-9.374-13.581-17.827-21.454-25.857
			c-2.349-2.395-4.57-5.022-6.326-7.866c-2.271-3.678-2.011-7.675,0.565-11.166c2.675-3.625,6.471-5.014,10.874-3.898
			c5.187,1.315,9.558,4.245,13.325,7.922c3.572,3.486,6.818,7.307,10.205,10.984c0.579,0.629,1.104,1.315,1.722,1.901
			c1.553,1.473,3.39,1.761,5.08,0.858c1.627-0.869,2.514-2.697,1.999-4.746c-2.64-10.516-4.989-21.102-8.585-31.369
			c-3.225-9.208-6.231-18.5-9.069-27.835c-1.722-5.663-2.579-11.515-1.893-17.487c0.306-2.662,1.227-4.886,4.021-5.844
			c3.042-1.043,6.023-1.18,8.436,1.268c1.66,1.684,3.169,3.574,4.453,5.561c4.044,6.264,6.554,13.191,8.426,20.37
			c2.566,9.843,5.147,19.682,7.711,29.526c0.25,0.958,0.407,1.94,0.636,2.905c0.491,2.063,2.182,3.255,4.297,3.05
			c2.079-0.202,3.693-1.781,3.557-3.867c-0.229-3.501-0.702-6.985-1.027-10.48c-0.15-1.611-0.299-3.235-0.26-4.848
			c0.072-2.972,2.043-5.538,4.87-6.446c3.013-0.968,6.047-1.385,9.121-0.173c2.108,0.831,3.668,2.161,4.599,4.287
			c1.842,4.208,2.755,8.649,3.498,13.142c0.147,0.889,0.262,1.784,0.453,2.663c0.426,1.961,2.027,3.237,3.958,3.201
			c2.045-0.038,3.72-1.332,3.912-3.394c0.267-2.865,0.258-5.754,0.404-8.631c0.089-1.752,0.209-3.505,0.387-5.25
			c0.33-3.228,2.54-4.959,5.31-5.803c2.078-0.633,4.348-0.66,6.54-0.883c2.98-0.302,7.126,2.484,7.877,5.318
			c1.139,4.302,2.421,8.568,3.467,12.891c0.708,2.925,2.183,4.357,4.736,4.086c1.837-0.195,3.04-1.344,3.53-3.384
			c0.451-1.878,0.765-3.8,1.369-5.627c1.033-3.119,4.13-5.128,7.404-5.015c3.375,0.117,5.791,2.318,6.227,6.29
			c0.765,6.982,1.483,13.984,1.797,20.996c0.248,5.521,0.025,11.08-0.287,16.605c-0.467,8.284-3.329,15.763-8.067,22.582
			c-2.104,3.028-3.907,6.267-5.842,9.412c-3.49,5.672-4.52,11.879-3.994,18.422C245.429,263.326,245.657,266.096,245.894,269z
			 M231.886,223.651c0.49,6.018,0.977,12.037,1.477,18.054c0.044,0.533,0.1,1.087,0.284,1.581c0.726,1.945,2.637,2.936,4.68,2.483
			c2.034-0.45,3.265-2.227,3.075-4.601c-0.967-12.083-1.951-24.164-2.949-36.245c-0.216-2.618-2.07-4.237-4.473-3.996
			c-2.371,0.238-3.774,2.065-3.564,4.667C230.902,211.615,231.396,217.633,231.886,223.651z M218.366,224.865
			c-0.074,0.006-0.148,0.012-0.222,0.018c-0.504-6.192-0.981-12.387-1.527-18.576c-0.209-2.371-2.241-3.979-4.457-3.682
			c-2.238,0.3-3.748,2.322-3.54,4.663c0.827,9.328,1.636,18.657,2.451,27.986c0.255,2.916,0.49,5.833,0.765,8.747
			c0.179,1.892,1.367,3.257,3.091,3.64c2.787,0.619,5.148-1.492,4.92-4.486C219.383,237.069,218.863,230.968,218.366,224.865z
			 M188.991,227.38c0.088-0.007,0.176-0.014,0.264-0.021c0.497,6.104,0.976,12.209,1.5,18.311c0.211,2.459,2.345,4.022,4.756,3.575
			c2.165-0.402,3.398-2.255,3.173-4.905c-0.653-7.675-1.328-15.348-2.008-23.02c-0.378-4.262-0.778-8.521-1.177-12.781
			c-0.179-1.909-1.205-3.22-2.855-3.69c-2.804-0.8-5.349,1.312-5.123,4.347C187.975,215.26,188.497,221.319,188.991,227.38z"/>
		</g>
		<g>
			<path d="M270.919,183.695c-0.436-4.616-0.816-9.261-1.671-13.809c-1.22-6.487-5.891-10.78-12.137-11.553
				c-4.717-0.584-8.888,0.855-12.553,3.835c-0.361,0.293-0.722,0.585-1.142,0.926c-0.371-1.004-0.659-1.855-0.996-2.686
				c-2.457-6.054-7.061-9.435-13.411-10.355c-2.062-0.299-4.23-0.033-6.333,0.157c-4.234,0.382-8.091,1.752-11.188,4.809
				c-0.876,0.865-1.671,1.812-2.492,2.708c-3.429-5.209-8.355-7.715-14.382-7.807c-5.814-0.089-11.313,1.087-15.439,6.07
				c-0.179-0.588-0.316-0.993-0.426-1.405c-1.168-4.349-2.24-8.725-3.516-13.042c-2.251-7.616-5.632-14.71-10.429-21.064
				c-4.129-5.468-9.427-8.345-16.519-7.182c-6.77,1.11-11.174,5.197-12.342,11.977c-0.417,2.422-0.534,4.931-0.475,7.392
				c0.189,7.922,2.29,15.488,4.72,22.952c3.121,9.583,6.425,19.107,9.605,28.671c0.707,2.127,1.227,4.316,1.834,6.478
				c-2.667-2.065-5.139-4.16-7.793-5.993c-4.295-2.967-8.859-5.355-14.233-5.734c-10.819-0.763-22.496,8.521-18.936,23.398
				c1.037,4.335,3.857,7.728,6.855,10.86c8.733,9.123,17.269,18.392,24.188,29.031c1.441,2.215,3.107,4.34,4.962,6.218
				c6.82,6.906,14.374,12.97,22.042,18.902c0.925,0.715,1.842,1.892,2.051,2.991c0.475,2.498,0.691,5.081,0.676,7.627
				c-0.02,3.418,1.606,5.16,5.008,4.907c0.719-0.053,1.439-0.102,2.158-0.159c9.253-0.73,18.504-1.505,27.761-2.174
				c4.939-0.357,8.588-2.753,11.257-6.763c1.892-2.843,3.653-5.773,5.401-8.552c2.269,2.597,4.487,5.377,6.965,7.902
				c2.427,2.474,5.245,4.639,8.961,4.353c4.525-0.348,9.049-0.89,13.523-1.645c2.437-0.411,3.576-2.867,2.677-5.297
				c-1.561-4.221-1.94-8.606-2-13.028c-0.049-3.547,0.493-7.017,2.362-10.14c2.012-3.362,3.86-6.842,6.113-10.035
				c5.072-7.188,8.257-15.119,9.264-23.79C272.048,203.69,271.861,193.676,270.919,183.695z M263.397,193.535
				c0.248,5.521,0.025,11.08-0.287,16.605c-0.467,8.284-3.329,15.763-8.067,22.582c-2.104,3.028-3.907,6.267-5.842,9.412
				c-3.49,5.672-4.52,11.879-3.994,18.422c0.223,2.77,0.451,5.539,0.687,8.443c-2.224,0.181-4.636,0.546-7.037,0.488
				c-0.931-0.023-2.024-0.83-2.722-1.579c-2.05-2.201-4.083-4.447-5.85-6.874c-1.936-2.66-4.211-4.465-7.629-4.24
				c-3.483,0.229-5.662,2.223-7.298,5.234c-1.605,2.953-3.572,5.713-5.443,8.517c-0.785,1.177-1.968,1.792-3.409,1.918
				c-6.821,0.593-13.641,1.207-20.462,1.806c-2.1,0.184-4.202,0.344-6.224,0.509c-0.455-2.401-0.772-4.621-1.311-6.785
				c-0.707-2.84-2.298-5.102-4.679-6.891c-7.532-5.659-14.868-11.569-21.462-18.318c-1.935-1.98-3.581-4.285-5.124-6.599
				c-6.251-9.374-13.581-17.827-21.454-25.857c-2.349-2.395-4.57-5.022-6.326-7.866c-2.271-3.678-2.011-7.675,0.565-11.166
				c2.675-3.625,6.471-5.014,10.874-3.898c5.187,1.315,9.558,4.245,13.325,7.922c3.572,3.486,6.818,7.307,10.205,10.984
				c0.579,0.629,1.104,1.315,1.722,1.901c1.553,1.473,3.39,1.761,5.08,0.858c1.627-0.869,2.514-2.697,1.999-4.746
				c-2.64-10.516-4.989-21.102-8.585-31.369c-3.225-9.208-6.231-18.5-9.069-27.835c-1.722-5.663-2.579-11.515-1.893-17.487
				c0.306-2.662,1.227-4.886,4.021-5.844c3.042-1.043,6.023-1.18,8.436,1.268c1.66,1.684,3.169,3.574,4.453,5.561
				c4.044,6.264,6.555,13.191,8.426,20.37c2.566,9.843,5.147,19.682,7.711,29.526c0.25,0.958,0.407,1.94,0.636,2.905
				c0.491,2.063,2.182,3.255,4.297,3.05c2.079-0.202,3.693-1.781,3.557-3.867c-0.229-3.501-0.702-6.985-1.027-10.48
				c-0.15-1.611-0.299-3.235-0.26-4.848c0.072-2.972,2.043-5.538,4.87-6.446c3.013-0.968,6.047-1.385,9.121-0.173
				c2.108,0.831,3.668,2.161,4.599,4.287c1.842,4.208,2.755,8.649,3.498,13.142c0.147,0.889,0.262,1.784,0.453,2.663
				c0.426,1.961,2.027,3.237,3.958,3.201c2.045-0.038,3.72-1.332,3.912-3.394c0.267-2.865,0.257-5.754,0.404-8.631
				c0.089-1.752,0.209-3.505,0.387-5.25c0.33-3.228,2.54-4.959,5.31-5.803c2.078-0.633,4.348-0.66,6.54-0.883
				c2.98-0.302,7.126,2.484,7.877,5.318c1.139,4.302,2.421,8.568,3.467,12.891c0.708,2.925,2.183,4.357,4.736,4.086
				c1.837-0.195,3.04-1.344,3.53-3.384c0.451-1.878,0.765-3.8,1.369-5.627c1.033-3.119,4.13-5.128,7.404-5.015
				c3.375,0.117,5.791,2.318,6.227,6.29C262.364,179.521,263.082,186.522,263.397,193.535z"/>
			<path d="M233.981,200.929c-2.371,0.238-3.774,2.065-3.564,4.667c0.486,6.019,0.979,12.037,1.469,18.055
				c0.49,6.018,0.977,12.037,1.477,18.054c0.044,0.533,0.1,1.087,0.284,1.581c0.726,1.945,2.637,2.936,4.68,2.483
				c2.034-0.45,3.265-2.227,3.075-4.601c-0.967-12.083-1.951-24.164-2.949-36.245C238.237,202.307,236.383,200.688,233.981,200.929z
				"/>
			<path d="M218.144,224.883c-0.504-6.192-0.981-12.387-1.527-18.576c-0.209-2.372-2.241-3.979-4.457-3.682
				c-2.238,0.3-3.748,2.322-3.54,4.663c0.827,9.328,1.636,18.657,2.451,27.986c0.255,2.916,0.49,5.833,0.765,8.747
				c0.179,1.892,1.367,3.257,3.091,3.64c2.787,0.619,5.148-1.492,4.92-4.486c-0.465-6.105-0.985-12.207-1.482-18.31
				C218.292,224.871,218.218,224.877,218.144,224.883z"/>
			<path d="M195.499,208.539c-0.179-1.909-1.205-3.22-2.855-3.69c-2.804-0.8-5.349,1.312-5.123,4.347
				c0.454,6.064,0.975,12.124,1.469,18.185c0.088-0.007,0.176-0.014,0.264-0.021c0.497,6.104,0.976,12.209,1.5,18.311
				c0.211,2.459,2.345,4.022,4.756,3.575c2.165-0.402,3.398-2.255,3.173-4.905c-0.653-7.675-1.328-15.348-2.009-23.02
				C196.298,217.058,195.898,212.799,195.499,208.539z"/>
		</g>
</svg>
