<?xml version="1.0" encoding="utf-8"?>
<!-- Generator: Adobe Illustrator 25.4.1, SVG Export Plug-In . SVG Version: 6.00 Build 0)  -->
<svg version="1.1" id="Layer_1" xmlns="http://www.w3.org/2000/svg" xmlns:xlink="http://www.w3.org/1999/xlink" x="0px" y="0px"
	 viewBox="0 0 50 50" style="enable-background:new 0 0 50 50;" xml:space="preserve">
<style type="text/css">
	.st0{display:none;}
	.st1{display:inline;}
	.st2{fill:#344593;}
	.st3{fill:#3E54A3;}
	.st4{fill:#2E4490;}
	.st5{fill:#122571;}
	.st6{opacity:0.5;fill:#031F60;enable-background:new    ;}
	.st7{fill:#BBDFFF;}
	.st8{fill:#FDB724;}
	.st9{fill:#E7478D;}
	.st10{fill:#BF2878;}
	.st11{fill:#27DEBF;}
	.st12{fill:#1BBC9D;}
	.st13{fill:#A33D64;}
	.st14{fill:#82294D;}
	.st15{fill:#0A4A80;}
	.st16{fill:#F1FCFF;}
	.st17{fill:#D6E6FF;}
	.st18{fill:#CEF3FF;}
	.st19{fill:#606060;}
	.st20{enable-background:new    ;}
	.st21{fill:#F19729;}
	.st22{fill:#FCB040;}
	.st23{fill:#FFCB49;}
	.st24{fill:#2E5677;}
	.st25{fill:#FF51CE;}
	.st26{fill:#EDE6A0;}
	.st27{fill:#FFF7B0;}
	.st28{fill:url(#SVGID_1_);}
	.st29{fill:url(#Shadow_00000145019451062834836620000016147868166770270616_);}
	.st30{fill:#73B3DD;}
	.st31{fill:#95C7EF;}
	.st32{fill:#B6DBFF;}
	.st33{fill:#A3BF2E;}
	.st34{fill:#96AA22;}
	.st35{fill:#38BBFC;}
	.st36{fill:#5E3C36;}
	.st37{fill:#FFFFFF;}
	.st38{fill:#FF4D4D;}
	.st39{fill:#FFC81A;}
	.st40{fill:#2478FF;}
	.st41{fill:#E53333;}
	.st42{fill:#FF6969;}
	.st43{fill:#B4D845;}
	.st44{fill:#72B2DD;}
</style>
<g id="Example" class="st0">
	<g class="st1">
		<g id="XMLID_4903_">
			<path id="XMLID_4905_" class="st2" d="M45.3,33.2v-4.6l0,0c0-0.9-0.6-1.8-1.7-2.4c-2.3-1.3-6-1.3-8.4,0c-1.2,0.7-1.7,1.6-1.7,2.4
				l0,0v4.5c0,0.9,0.6,1.8,1.7,2.4c2.3,1.3,6,1.3,8.4,0C44.8,34.9,45.3,34.1,45.3,33.2L45.3,33.2L45.3,33.2L45.3,33.2z"/>
			<path id="XMLID_4904_" class="st2" d="M45.3,33.2v-4.6l0,0c0-0.9-0.6-1.8-1.7-2.4c-2.3-1.3-6-1.3-8.4,0c-1.2,0.7-1.7,1.6-1.7,2.4
				l0,0v4.5c0,0.9,0.6,1.8,1.7,2.4c2.3,1.3,6,1.3,8.4,0C44.8,34.9,45.3,34.1,45.3,33.2L45.3,33.2L45.3,33.2L45.3,33.2z"/>
		</g>
		<polygon id="XMLID_4900_" class="st3" points="39.4,23 29.7,28.6 39.4,34.2 49.2,28.6 		"/>
		<path id="XMLID_4899_" class="st4" d="M44.3,31.4l-4.8-2.7c-0.1,0-0.2,0-0.2,0.1s0,0.2,0.1,0.2l4.6,2.6L44.3,31.4z"/>
		<polygon id="XMLID_4896_" class="st5" points="29.7,28.6 29.7,29 39.4,34.6 39.4,34.2 		"/>
		<polygon id="XMLID_4883_" class="st4" points="49.2,28.6 49.2,29 39.4,34.6 39.4,34.2 		"/>
		<polygon id="XMLID_4876_" class="st6" points="33.5,31.2 39.4,35.2 45.3,31.2 39.4,34.6 		"/>
		<g id="XMLID_4823_">
			<path id="XMLID_4835_" class="st7" d="M44.7,36.2c-0.1,0-0.2-0.1-0.2-0.2v-4c0-0.2-0.1-0.4-0.3-0.4l-4.9-2.8
				c-0.1,0-0.1-0.2-0.1-0.2c0-0.1,0.2-0.1,0.2-0.1l4.9,2.8c0.3,0.2,0.4,0.4,0.4,0.7v4C44.8,36.1,44.7,36.2,44.7,36.2z"/>
		</g>
		<path class="st8" d="M45.3,39.3L45,36.6c0.1-0.1,0.1-0.2,0-0.2l0,0l0,0l0,0v-0.1l0,0l0,0l0,0c0-0.2-0.2-0.4-0.4-0.4c0,0,0,0-0.1,0
			l0,0l0,0c0,0,0,0-0.1,0c0,0,0,0-0.1,0c0,0,0,0-0.1,0c0,0,0,0,0,0.1l0,0v0.1c0,0.1,0,0.2,0.1,0.3l0,0c-0.1,0.1,0,0.2,0,0.2L44,39.3
			c0,0.1,0.1,0.2,0.3,0.3l0,0h0.1l0,0c0.1,0,0.2,0.1,0.3,0.1l0,0l0,0l0,0l0,0l0,0c0.1,0,0.2,0,0.3-0.1l0,0h0.1l0,0
			C45.3,39.5,45.3,39.4,45.3,39.3z"/>
	</g>
	<g id="XMLID_3738_" class="st1">
		<path id="XMLID_4404_" class="st9" d="M12.4,36.1c1.1-0.8,1.8-2.7,1.7-4c-0.1-1.4-1.2-2-1.7-2.3l0,0c-1.1-0.6-2.8-0.6-3.9,0l0,0
			C8,30.1,7,30.7,6.8,32.1c-0.1,1.3,0.6,3.2,1.7,4l0,0c0.1,0,0.1,0.1,0.2,0.1c1,0.6,2.6,0.6,3.6,0l0,0
			C12.3,36.2,12.4,36.1,12.4,36.1L12.4,36.1z"/>
		<path id="XMLID_4395_" class="st10" d="M9.9,30.8c-0.3,0.2-0.3,0.4,0,0.6s0.8,0.2,1.1,0s0.3-0.4,0-0.6
			C10.7,30.6,10.2,30.6,9.9,30.8z"/>
		<g id="XMLID_4426_">
			<path id="XMLID_2198_" class="st11" d="M10.5,31.2c0,0-0.9,0-1.4-0.7s0-1.9,0-1.9s1.1,0.1,1.7,1C11.2,30.4,10.5,31.2,10.5,31.2z"
				/>
			<path id="XMLID_4431_" class="st12" d="M9,30.5c0.5,0.7,1.4,0.7,1.4,0.7C10.3,29.6,9,28.6,9,28.6S8.5,29.8,9,30.5z"/>
		</g>
		<path id="XMLID_4403_" class="st13" d="M10.5,31.2c0,0,0-1.3,0.7-1.9s1.2-0.6,1.2-0.6c0.4,0,0.9,0.4,0.7,0.4c0,0-0.9,0-1.5,0.5
			s-0.9,1.5-0.9,1.6c0,0,0,0.1-0.1,0.1C10.5,31.3,10.5,31.2,10.5,31.2z"/>
		<path id="XMLID_4496_" class="st14" d="M12.4,28.7c-0.1,0-0.1,0.1,0.2,0.3c0.2,0.1,0.4,0.2,0.5,0.2l0,0
			C13.3,29,12.8,28.7,12.4,28.7z"/>
	</g>
	<g class="st1">
		<g>
			<path class="st15" d="M26,28.8L26,28.8c-1,0.6-1.9,1-2.8,1.2l0,0c0,0,0,0-0.1,0l-0.5,0.2h-0.1c-0.1,0-0.2,0.1-0.3,0.1h-0.1
				c-0.1,0-0.2,0.1-0.2,0.1h-0.1c-0.5,0.2-0.9,0.4-1.4,0.7c-0.1,0.1-0.2,0.1-0.3,0.2L20,31.4c-0.4,0.3-2,1.5-2.9,2.5l-0.6,0.6
				L16,34.6c-1,0.2-2,0.5-3,1.1c-0.1,0.1-0.2,0.1-0.3,0.2c-0.3,0.2-0.5,0.3-0.8,0.5l0,0l-0.1,0.1c-0.1,0.1-0.2,0.1-0.3,0.2l0,0l0,0
				c-0.4,0.3-0.9,0.7-1.3,1.1c-0.1,0.1-0.2,0.2-0.3,0.3c-0.3,0.3-0.7,0.6-1,0.9H8.8c-0.3,0.3-0.7,0.5-1,0.8
				c-0.2,0.2-0.5,0.3-0.7,0.5H7l13.7,8.3h0.1c0.8-0.5,1.7-1.2,2.5-1.9c0.5-0.5,1.1-0.9,1.7-1.4c1.2-0.9,2.3-1.5,3.2-1.8
				c0.7-0.3,1.4-0.5,2.1-0.6l0.5-0.6c0.7-0.7,1.5-1.3,2.4-1.8c1.5-1,3.2-1.8,4.9-2.5c0.6-0.2,1.2-0.5,1.6-0.7l0.2-0.1L26,28.8z"/>
			<g>
				<g>
					<g>
						<path class="st16" d="M39.1,36.7c-0.5,0.3-0.7,0.4-1.2,0.6c-0.3,0.1-0.5,0.2-0.8,0.3c-0.2,0.1-0.3,0.1-0.5,0.1
							c-0.7,0.2-1.4,0.4-2,0.8c-0.2,0.1-0.4,0.2-0.6,0.3c-1.3,0.8-2.6,2-3.9,3.5l-2.5-1.5l-11-6.7c1.3-1.5,2.6-2.7,3.9-3.5
							c0.2-0.1,0.4-0.2,0.6-0.3c0.7-0.4,1.4-0.6,2-0.8c0.2,0,0.3-0.1,0.5-0.1c0.3-0.1,0.5-0.2,0.8-0.3c0.5-0.2,0.7-0.3,1.2-0.6
							L39.1,36.7z"/>
						<g>
							<path class="st16" d="M30.1,42.3c-1.3,0.1-2.6,0.5-3.9,1.3c-0.2,0.1-0.4,0.2-0.6,0.4c-0.7,0.5-1.4,1-2,1.7
								c-0.2,0.2-0.3,0.3-0.5,0.4c-0.3,0.3-0.6,0.5-0.9,0.7c-0.5,0.4-0.8,0.6-1.3,0.9L7.5,39.5C8,39.2,8.3,39,8.8,38.6
								c0.3-0.2,0.6-0.5,0.9-0.7c0.2-0.1,0.3-0.3,0.5-0.4c0.7-0.6,1.4-1.2,2-1.7c0.2-0.1,0.4-0.3,0.6-0.4c1.3-0.8,2.6-1.2,3.9-1.3
								l11,6.7L30.1,42.3z"/>
						</g>
					</g>
					<polygon class="st17" points="7.5,39.5 7.3,40.3 20.7,48.5 20.9,47.7 					"/>
					<path class="st18" d="M39.4,37.1c-0.9,0.6-1.8,1-2.7,1.2c0,0,0,0-0.1,0s-0.2,0-0.3,0.1c-0.1,0-0.2,0.1-0.3,0.1
						s-0.2,0.1-0.3,0.1c-0.6,0.2-1.2,0.5-1.8,0.9c-0.1,0.1-0.2,0.1-0.3,0.2c-1,0.7-2,1.5-3,2.5L30,42.8l-0.6,0.1c-1,0.2-2,0.5-3,1.1
						c-0.1,0.1-0.2,0.1-0.3,0.2c-0.3,0.2-0.5,0.3-0.8,0.5c-0.6,0.4-1.1,0.9-1.7,1.4c-0.1,0.1-0.2,0.2-0.3,0.3
						c-0.9,0.9-1.8,1.6-2.7,2.2l0.2-0.8c0.5-0.3,0.8-0.5,1.3-0.9c0.3-0.2,0.6-0.5,0.9-0.7c0.2-0.1,0.3-0.3,0.5-0.4
						c0.7-0.6,1.4-1.2,2-1.7c0.2-0.1,0.4-0.3,0.6-0.4c1.3-0.8,2.6-1.2,3.9-1.3c1.3-1.5,2.6-2.7,3.9-3.5c0.2-0.1,0.4-0.2,0.6-0.3
						c0.7-0.4,1.4-0.6,2-0.8c0.2,0,0.3-0.1,0.5-0.1c0.3-0.1,0.5-0.2,0.8-0.3c0.5-0.2,0.7-0.3,1.2-0.6L39.4,37.1z"/>
				</g>
			</g>
			<g>
				<path class="st19" d="M17.8,34.6C17.9,34.6,17.9,34.6,17.8,34.6c1.2-1.4,2.5-2.5,3.7-3.2c0.2-0.1,0.4-0.2,0.5-0.3
					c0.7-0.3,1.3-0.6,2-0.8c0.2,0,0.3-0.1,0.5-0.1c0.3-0.1,0.5-0.2,0.8-0.3c0.4-0.2,0.7-0.3,1.1-0.5c0,0,0,0,0-0.1s0,0-0.1,0
					c-0.4,0.2-0.6,0.3-1,0.5c-0.3,0.1-0.5,0.2-0.8,0.3c-0.2,0.1-0.3,0.1-0.5,0.1c-0.7,0.2-1.3,0.4-2,0.8c-0.2,0.1-0.4,0.2-0.6,0.3
					C20.3,32.1,19,33.2,17.8,34.6C17.8,34.5,17.8,34.6,17.8,34.6L17.8,34.6z"/>
				<path class="st19" d="M25.4,30.6c-0.2,0.1-0.3,0.1-0.5,0.1c-0.7,0.2-1.3,0.4-2,0.8c-0.2,0.1-0.4,0.2-0.6,0.3
					c-1.2,0.7-2.5,1.8-3.7,3.2v0.1l0,0l0,0c1.2-1.4,2.5-2.5,3.7-3.2c0.2-0.1,0.4-0.2,0.6-0.3c0.7-0.4,1.3-0.6,2-0.8
					C25.1,30.8,25.3,30.7,25.4,30.6c0.3,0,0.6-0.1,0.8-0.2c0.4-0.2,0.6-0.3,1-0.5c0,0,0,0,0-0.1c0,0,0,0-0.1,0
					c-0.4,0.2-0.6,0.3-1,0.5C25.9,30.4,25.7,30.5,25.4,30.6z"/>
				<path class="st19" d="M26.2,31.1c-0.2,0.1-0.3,0.1-0.5,0.1c-0.7,0.2-1.3,0.4-2,0.8c-0.2,0.1-0.4,0.2-0.6,0.3
					c-1.2,0.7-2.5,1.8-3.7,3.2v0.1l0,0l0,0c1.2-1.4,2.5-2.5,3.7-3.2c0.2-0.1,0.4-0.2,0.6-0.3c0.7-0.4,1.4-0.6,2-0.8
					C25.9,31.3,26.1,31.2,26.2,31.1c0.3,0,0.6-0.1,0.8-0.2c0.4-0.2,0.6-0.3,1-0.5c0,0,0,0,0-0.1c0,0,0,0-0.1,0
					c-0.4,0.2-0.6,0.3-1,0.5C26.8,30.9,26.5,31,26.2,31.1z"/>
				<path class="st19" d="M27.1,31.5c-0.2,0.1-0.3,0.1-0.5,0.1c-0.7,0.2-1.3,0.4-2,0.8c-0.2,0.1-0.4,0.2-0.6,0.3
					c-1.2,0.7-2.5,1.8-3.7,3.2V36l0,0l0,0c1.2-1.4,2.5-2.5,3.7-3.2c0.2-0.1,0.4-0.2,0.6-0.3c0.7-0.4,1.4-0.6,2-0.8
					C26.7,31.7,26.9,31.7,27.1,31.5c0.3,0,0.6-0.1,0.8-0.2c0.4-0.2,0.6-0.3,1-0.5c0,0,0,0,0-0.1c0,0,0,0-0.1,0
					c-0.4,0.2-0.6,0.3-1,0.5C27.6,31.4,27.3,31.5,27.1,31.5z"/>
				<path class="st19" d="M27.9,32c-0.2,0.1-0.3,0.1-0.5,0.1c-0.7,0.2-1.4,0.4-2,0.8c-0.2,0.1-0.4,0.2-0.6,0.3
					c-1.2,0.7-2.5,1.9-3.7,3.2v0.1l0,0l0,0c1.2-1.4,2.5-2.5,3.7-3.2c0.2-0.1,0.4-0.2,0.6-0.3c0.7-0.4,1.4-0.6,2-0.8
					C27.6,32.2,27.8,32.2,27.9,32c0.3,0,0.6-0.1,0.8-0.2c0.4-0.2,0.6-0.3,1-0.5c0,0,0,0,0-0.1c0,0,0,0-0.1,0c-0.4,0.2-0.6,0.3-1,0.5
					C28.4,31.8,28.1,31.9,27.9,32z"/>
				<path class="st19" d="M28.7,32.5c-0.2,0.1-0.3,0.1-0.5,0.1c-0.7,0.2-1.4,0.4-2,0.8c-0.2,0.1-0.4,0.2-0.6,0.3
					c-1.2,0.7-2.5,1.9-3.7,3.2V37l0,0l0,0c1.2-1.4,2.5-2.5,3.7-3.2c0.2-0.1,0.4-0.2,0.6-0.3c0.7-0.4,1.4-0.6,2-0.8
					C28.4,32.7,28.6,32.6,28.7,32.5c0.3,0,0.6-0.1,0.8-0.2c0.4-0.2,0.6-0.3,1-0.5c0,0,0,0,0-0.1c0,0,0,0-0.1,0
					c-0.3,0.2-0.6,0.3-0.9,0.5C29.2,32.3,29,32.4,28.7,32.5z"/>
				<path class="st19" d="M29.6,33c-0.2,0.1-0.3,0.1-0.5,0.1c-0.7,0.2-1.4,0.4-2.1,0.8c-0.2,0.1-0.4,0.2-0.6,0.3
					c-1.2,0.7-2.5,1.9-3.8,3.3v0.1l0,0l0,0c1.2-1.4,2.5-2.5,3.7-3.2c0.2-0.1,0.4-0.2,0.6-0.3c0.7-0.4,1.4-0.6,2-0.8
					C29.2,33.2,29.4,33.1,29.6,33c0.3,0,0.6-0.1,0.8-0.2c0.4-0.2,0.6-0.3,0.9-0.5c0,0,0,0,0-0.1c0,0,0,0-0.1,0
					c-0.3,0.2-0.5,0.3-0.9,0.4C30.1,32.8,29.8,32.9,29.6,33z"/>
				<path class="st19" d="M30.4,33.5c-0.2,0.1-0.3,0.1-0.5,0.1c-0.7,0.2-1.4,0.4-2.1,0.8c-0.2,0.1-0.4,0.2-0.6,0.3
					c-1.2,0.7-2.5,1.9-3.8,3.3v0.1l0,0l0,0c1.2-1.4,2.5-2.5,3.7-3.2c0.2-0.1,0.4-0.2,0.6-0.3c0.7-0.4,1.4-0.6,2-0.8
					C30.1,33.7,30.2,33.6,30.4,33.5c0.3,0,0.5-0.1,0.8-0.2c0.4-0.2,0.6-0.3,0.9-0.4c0,0,0,0,0-0.1c0,0,0,0-0.1,0
					c-0.3,0.2-0.5,0.3-0.9,0.4C30.9,33.3,30.6,33.4,30.4,33.5z"/>
				<path class="st19" d="M31.2,33.9C31,34,30.9,34,30.7,34.1c-0.7,0.2-1.4,0.4-2.1,0.8c-0.2,0.1-0.4,0.2-0.6,0.3
					c-1.2,0.7-2.5,1.9-3.8,3.3v0.1l0,0l0,0c1.2-1.4,2.5-2.5,3.8-3.3c0.2-0.1,0.4-0.2,0.6-0.3c0.7-0.4,1.4-0.6,2-0.8
					C30.9,34.1,31.1,34.1,31.2,33.9c0.3,0,0.5-0.1,0.8-0.2c0.4-0.2,0.6-0.2,0.9-0.4c0,0,0,0,0-0.1c0,0,0,0-0.1,0
					c-0.3,0.2-0.5,0.3-0.9,0.4C31.7,33.8,31.5,33.9,31.2,33.9z"/>
				<path class="st19" d="M32,34.4c-0.2,0.1-0.3,0.1-0.5,0.1c-0.7,0.2-1.4,0.4-2.1,0.8c-0.2,0.1-0.4,0.2-0.6,0.3
					c-1.2,0.7-2.6,1.9-3.8,3.3V39l0,0l0,0c1.2-1.4,2.5-2.5,3.8-3.3c0.2-0.1,0.4-0.2,0.6-0.3c0.7-0.4,1.4-0.6,2-0.8
					C31.7,34.6,31.9,34.6,32,34.4c0.3,0,0.5-0.1,0.8-0.2c0.4-0.2,0.6-0.2,0.9-0.4c0,0,0,0,0-0.1c0,0,0,0-0.1,0
					c-0.3,0.2-0.5,0.3-0.9,0.4C32.6,34.2,32.3,34.3,32,34.4z"/>
				<path class="st19" d="M32.9,34.9C32.7,35,32.6,35,32.4,35c-0.7,0.2-1.4,0.4-2.1,0.8c-0.2,0.1-0.4,0.2-0.6,0.3
					c-1.2,0.8-2.6,1.9-3.8,3.3v0.1l0,0l0,0c1.2-1.4,2.5-2.5,3.8-3.3c0.2-0.1,0.4-0.2,0.6-0.3c0.7-0.4,1.4-0.6,2.1-0.8
					C32.6,35.1,32.7,35,32.9,34.9c0.3,0,0.5-0.1,0.8-0.2c0.3-0.1,0.6-0.2,0.9-0.4c0,0,0,0,0-0.1c0,0,0,0-0.1,0
					c-0.3,0.2-0.5,0.3-0.8,0.4C33.4,34.7,33.1,34.8,32.9,34.9z"/>
				<path class="st19" d="M33.7,35.4c-0.2,0.1-0.3,0.1-0.5,0.1c-0.7,0.2-1.4,0.4-2.1,0.8c-0.2,0.1-0.4,0.2-0.6,0.3
					c-1.2,0.8-2.6,1.9-3.8,3.3V40l0,0l0,0c1.2-1.4,2.6-2.5,3.8-3.3c0.2-0.1,0.4-0.2,0.6-0.3c0.7-0.4,1.4-0.6,2.1-0.8
					C33.4,35.6,33.6,35.5,33.7,35.4c0.3,0,0.5-0.1,0.8-0.2c0.3-0.1,0.5-0.2,0.8-0.4c0,0,0,0,0-0.1c0,0,0,0-0.1,0
					c-0.3,0.2-0.5,0.3-0.8,0.4C34.2,35.2,34,35.3,33.7,35.4z"/>
				<path class="st19" d="M34.5,35.8c-0.2,0.1-0.3,0.1-0.5,0.1c-0.7,0.2-1.4,0.4-2.1,0.8c-0.2,0.1-0.4,0.2-0.6,0.3
					c-1.3,0.8-2.6,1.9-3.8,3.3v0.1l0,0l0,0c1.2-1.4,2.6-2.6,3.8-3.3c0.2-0.1,0.4-0.2,0.6-0.3c0.7-0.4,1.4-0.6,2.1-0.8
					C34.2,36,34.4,36,34.5,35.8c0.3,0,0.5-0.1,0.8-0.2c0.3-0.1,0.5-0.2,0.8-0.4c0,0,0,0,0-0.1c0,0,0,0-0.1,0
					c-0.3,0.2-0.5,0.2-0.8,0.4C35,35.7,34.8,35.8,34.5,35.8z"/>
				<path class="st19" d="M35.4,36.3c-0.2,0.1-0.3,0.1-0.5,0.1c-0.7,0.2-1.4,0.4-2.1,0.8c-0.2,0.1-0.4,0.2-0.6,0.3
					c-1.3,0.8-2.6,1.9-3.8,3.3v0.1l0,0l0,0c1.3-1.4,2.6-2.6,3.8-3.3c0.2-0.1,0.4-0.2,0.6-0.3c0.7-0.4,1.4-0.6,2.1-0.8
					C35.1,36.5,35.2,36.5,35.4,36.3c0.3,0,0.5-0.1,0.8-0.2c0.3-0.1,0.5-0.2,0.8-0.4c0,0,0,0,0-0.1c0,0,0,0-0.1,0
					c-0.2,0.1-0.4,0.2-0.8,0.4C35.9,36.2,35.6,36.2,35.4,36.3z"/>
				<path class="st19" d="M37.7,36.2c-0.3,0.1-0.5,0.2-0.8,0.4c-0.3,0.1-0.5,0.2-0.8,0.3C35.9,37,35.8,37,35.6,37
					c-0.7,0.2-1.4,0.4-2.1,0.8c-0.2,0.1-0.4,0.2-0.6,0.3c-1.3,0.8-2.6,1.9-3.9,3.3v0.1l0,0l0,0c1.3-1.4,2.6-2.6,3.8-3.3
					c0.2-0.1,0.4-0.2,0.6-0.3c0.7-0.4,1.4-0.6,2.1-0.8c0.2,0,0.3-0.1,0.5-0.1c0.2-0.1,0.5-0.2,0.8-0.3
					C37.3,36.5,37.5,36.4,37.7,36.2C37.8,36.3,37.8,36.2,37.7,36.2C37.8,36.2,37.7,36.2,37.7,36.2z"/>
				<path class="st19" d="M10.6,38.6c0.2-0.1,0.3-0.3,0.5-0.4c0.7-0.6,1.3-1.2,2-1.7c0.2-0.1,0.4-0.2,0.6-0.4
					c1.2-0.7,2.5-1.2,3.7-1.3c0,0,0,0,0-0.1c0,0,0,0-0.1,0c-1.2,0.1-2.5,0.5-3.7,1.3c-0.2,0.1-0.4,0.2-0.6,0.4c-0.7,0.5-1.4,1-2,1.7
					C10.9,38.3,10.7,38.4,10.6,38.6c-0.4,0.2-0.7,0.4-0.9,0.7c-0.4,0.3-0.7,0.5-1,0.7c0,0,0,0,0,0.1l0,0l0,0c0.3-0.2,0.6-0.4,1-0.7
					S10.3,38.9,10.6,38.6z"/>
				<path class="st19" d="M11.5,39.1c0.2-0.1,0.3-0.3,0.5-0.4c0.7-0.6,1.3-1.2,2-1.7c0.2-0.1,0.4-0.2,0.6-0.4
					c1.2-0.7,2.5-1.2,3.7-1.2c0,0,0,0,0-0.1c0,0,0-0.1-0.1,0c-1.2,0.1-2.5,0.5-3.7,1.3c-0.2,0.1-0.4,0.2-0.6,0.4
					c-0.7,0.5-1.4,1-2,1.7C11.7,38.8,11.6,38.9,11.5,39.1c-0.4,0.2-0.7,0.4-0.9,0.7c-0.4,0.3-0.7,0.5-1,0.7c0,0,0,0,0,0.1l0,0l0,0
					c0.3-0.2,0.6-0.4,1-0.7C10.9,39.6,11.2,39.4,11.5,39.1z"/>
				<path class="st19" d="M12.3,39.6c0.2-0.1,0.3-0.3,0.5-0.4c0.7-0.6,1.3-1.2,2-1.7c0.2-0.1,0.4-0.3,0.6-0.4
					c1.2-0.7,2.4-1.2,3.6-1.2c0,0,0,0,0-0.1s0,0-0.1,0c-1.2,0.1-2.5,0.5-3.7,1.3c-0.2,0.1-0.4,0.2-0.6,0.4c-0.7,0.5-1.4,1-2,1.7
					C12.5,39.2,12.4,39.4,12.3,39.6c-0.4,0.2-0.7,0.4-0.9,0.7c-0.4,0.3-0.7,0.5-1,0.7c0,0,0,0,0,0.1l0,0l0,0c0.3-0.2,0.6-0.4,1-0.7
					C11.7,40.1,12,39.9,12.3,39.6z"/>
				<path class="st19" d="M13.1,40.1c0.2-0.1,0.3-0.3,0.5-0.4c0.7-0.6,1.3-1.2,2-1.7c0.2-0.1,0.4-0.3,0.6-0.4
					c1.2-0.7,2.4-1.1,3.6-1.2c0,0,0,0,0-0.1c0,0,0,0-0.1,0c-1.2,0.1-2.4,0.5-3.6,1.3c-0.2,0.1-0.4,0.2-0.6,0.4c-0.7,0.5-1.4,1-2,1.7
					C13.3,39.7,13.2,39.9,13.1,40.1c-0.4,0.2-0.6,0.4-0.9,0.7c-0.4,0.3-0.7,0.5-1,0.7c0,0,0,0,0,0.1l0,0l0,0c0.3-0.2,0.6-0.4,1-0.7
					C12.5,40.6,12.8,40.4,13.1,40.1z"/>
				<path class="st19" d="M13.9,40.6c0.2-0.1,0.3-0.3,0.5-0.4c0.7-0.6,1.3-1.2,2-1.7c0.2-0.1,0.4-0.3,0.6-0.4
					c1.2-0.7,2.4-1.1,3.6-1.2c0,0,0,0,0-0.1c0,0,0,0-0.1,0c-1.2,0.1-2.4,0.5-3.6,1.3c-0.2,0.1-0.4,0.2-0.6,0.4c-0.7,0.5-1.4,1-2,1.7
					C14.2,40.2,14,40.4,13.9,40.6c-0.4,0.2-0.6,0.4-0.9,0.7c-0.4,0.3-0.7,0.5-1,0.7c0,0,0,0,0,0.1l0,0l0,0c0.3-0.2,0.6-0.4,1-0.7
					C13.3,41.1,13.6,40.8,13.9,40.6z"/>
				<path class="st19" d="M14.7,41.1c0.2-0.1,0.3-0.3,0.5-0.4c0.7-0.6,1.3-1.2,2-1.7c0.2-0.1,0.4-0.3,0.6-0.4
					c1.2-0.7,2.4-1.1,3.5-1.2c0,0,0,0,0-0.1c0,0,0,0-0.1,0c-1.2,0.1-2.4,0.6-3.6,1.3c-0.2,0.1-0.4,0.2-0.6,0.4c-0.7,0.5-1.4,1-2,1.7
					C15,40.7,14.8,40.8,14.7,41.1c-0.4,0.2-0.6,0.4-0.9,0.7c-0.4,0.3-0.7,0.5-1,0.7c0,0,0,0,0,0.1l0,0l0,0c0.3-0.2,0.6-0.4,1-0.7
					S14.4,41.3,14.7,41.1z"/>
				<path class="st19" d="M15.6,41.5c0.2-0.1,0.3-0.3,0.5-0.4c0.7-0.6,1.3-1.2,2-1.7c0.2-0.1,0.4-0.3,0.6-0.4
					c1.1-0.7,2.4-1.1,3.5-1.2c0,0,0,0,0-0.1s0,0-0.1,0c-1.2,0.1-2.4,0.6-3.5,1.3c-0.2,0.1-0.4,0.2-0.6,0.4c-0.7,0.5-1.4,1-2,1.7
					C15.8,41.2,15.6,41.3,15.6,41.5c-0.4,0.2-0.6,0.4-0.9,0.7c-0.4,0.3-0.7,0.5-1,0.7c0,0,0,0,0,0.1l0,0l0,0c0.3-0.2,0.6-0.4,1-0.7
					C15,42.1,15.3,41.8,15.6,41.5z"/>
				<path class="st19" d="M16.4,42c0.2-0.1,0.3-0.3,0.5-0.4c0.7-0.6,1.3-1.2,2-1.7c0.2-0.1,0.4-0.3,0.6-0.4c1.1-0.7,2.3-1.1,3.5-1.2
					c0,0,0,0,0-0.1s0,0-0.1,0c-1.2,0.1-2.4,0.6-3.5,1.3c-0.2,0.1-0.4,0.2-0.6,0.4c-0.7,0.5-1.4,1-2.1,1.7
					C16.6,41.7,16.5,41.8,16.4,42c-0.4,0.2-0.6,0.4-0.9,0.7c-0.4,0.3-0.7,0.5-1,0.7c0,0,0,0,0,0.1l0,0l0,0c0.3-0.2,0.6-0.4,1.1-0.7
					C15.8,42.5,16.1,42.3,16.4,42z"/>
				<path class="st19" d="M17.2,42.5c0.2-0.1,0.3-0.3,0.5-0.4c0.7-0.6,1.4-1.2,2-1.7c0.2-0.1,0.4-0.3,0.6-0.4
					c1.1-0.7,2.3-1.1,3.4-1.2c0,0,0,0,0-0.1s0,0-0.1,0c-1.1,0.1-2.3,0.6-3.5,1.3c-0.2,0.1-0.4,0.2-0.6,0.4c-0.7,0.5-1.4,1-2.1,1.7
					C17.4,42.2,17.3,42.3,17.2,42.5c-0.4,0.2-0.6,0.4-0.9,0.6c-0.4,0.3-0.7,0.5-1.1,0.7c0,0,0,0,0,0.1l0,0l0,0
					c0.3-0.2,0.6-0.4,1.1-0.8C16.6,43,16.9,42.8,17.2,42.5z"/>
				<path class="st19" d="M18,43c0.2-0.1,0.3-0.3,0.5-0.4c0.7-0.6,1.4-1.2,2-1.7c0.2-0.1,0.4-0.3,0.6-0.4c1.1-0.7,2.3-1.1,3.4-1.2
					c0,0,0,0,0-0.1s0,0-0.1,0c-1.1,0.1-2.3,0.6-3.5,1.3c-0.2,0.1-0.4,0.2-0.6,0.4c-0.7,0.5-1.4,1.1-2.1,1.7
					C18.3,42.6,18.1,42.8,18,43c-0.4,0.2-0.6,0.4-0.9,0.6c-0.4,0.3-0.7,0.6-1.1,0.8c0,0,0,0,0,0.1l0,0l0,0c0.3-0.2,0.7-0.4,1.1-0.8
					C17.4,43.5,17.7,43.3,18,43z"/>
				<path class="st19" d="M18.8,43.5c0.2-0.1,0.3-0.3,0.5-0.4c0.7-0.6,1.4-1.2,2-1.7c0.2-0.1,0.4-0.3,0.6-0.4
					c1.1-0.7,2.3-1.1,3.4-1.2c0,0,0,0,0-0.1c0,0,0,0-0.1,0c-1.1,0.1-2.3,0.6-3.4,1.3c-0.2,0.1-0.4,0.2-0.6,0.4
					c-0.7,0.5-1.4,1.1-2.1,1.7C19.1,43.1,18.9,43.3,18.8,43.5c-0.4,0.2-0.6,0.4-0.9,0.6c-0.4,0.3-0.7,0.6-1.1,0.8c0,0,0,0,0,0.1l0,0
					l0,0c0.3-0.2,0.7-0.4,1.1-0.8C18.3,44,18.5,43.7,18.8,43.5z"/>
				<path class="st19" d="M19.6,44c0.2-0.1,0.3-0.3,0.5-0.4c0.7-0.6,1.4-1.2,2.1-1.7c0.2-0.1,0.4-0.3,0.6-0.4
					c1.1-0.7,2.3-1.1,3.4-1.2c0,0,0,0,0-0.1c0,0,0,0-0.1,0c-1.1,0.2-2.3,0.6-3.4,1.3c-0.2,0.1-0.4,0.2-0.6,0.4
					c-0.7,0.5-1.4,1.1-2.1,1.7C19.9,43.6,19.7,43.8,19.6,44c-0.4,0.2-0.6,0.4-0.9,0.6c-0.4,0.3-0.8,0.6-1.1,0.8c0,0,0,0,0,0.1l0,0
					l0,0c0.3-0.2,0.7-0.4,1.1-0.8C19.1,44.5,19.4,44.2,19.6,44z"/>
				<path class="st19" d="M20.5,44.5c0.2-0.1,0.3-0.3,0.5-0.4c0.7-0.6,1.4-1.2,2.1-1.7c0.2-0.1,0.4-0.3,0.6-0.4
					c1.1-0.7,2.2-1.1,3.3-1.2c0,0,0,0,0-0.1c0,0,0,0-0.1,0c-1.1,0.2-2.3,0.6-3.4,1.3c-0.2,0.1-0.4,0.2-0.6,0.4
					c-0.7,0.5-1.4,1.1-2.1,1.7C20.7,44.1,20.5,44.2,20.5,44.5c-0.4,0.2-0.6,0.4-0.9,0.6c-0.4,0.3-0.8,0.6-1.1,0.8c0,0,0,0,0,0.1l0,0
					l0,0c0.3-0.2,0.7-0.4,1.1-0.8C19.9,45,20.2,44.7,20.5,44.5z"/>
				<path class="st19" d="M21.3,44.9c0.2-0.1,0.3-0.3,0.5-0.4c0.7-0.7,1.4-1.2,2.1-1.7c0.2-0.1,0.4-0.3,0.6-0.4
					c1.1-0.6,2.2-1.1,3.3-1.2c0,0,0,0,0-0.1c0,0,0,0-0.1,0c-1.1,0.2-2.3,0.6-3.3,1.3c-0.2,0.1-0.4,0.2-0.6,0.4
					c-0.7,0.5-1.4,1.1-2.1,1.7C21.5,44.6,21.4,44.7,21.3,44.9c-0.4,0.2-0.6,0.4-0.9,0.6c-0.4,0.3-0.8,0.6-1.1,0.8c0,0,0,0,0,0.1l0,0
					l0,0c0.4-0.2,0.7-0.4,1.1-0.8C20.7,45.4,21,45.2,21.3,44.9z"/>
				<path class="st19" d="M25.2,42.8c-0.2,0.1-0.4,0.2-0.6,0.4c-0.7,0.5-1.4,1.1-2.1,1.7c-0.2,0.1-0.3,0.3-0.5,0.4
					c-0.3,0.3-0.6,0.5-0.9,0.7c-0.4,0.3-0.8,0.6-1.1,0.8c0,0,0,0,0,0.1l0,0l0,0c0.4-0.2,0.7-0.4,1.1-0.8c0.3-0.2,0.6-0.5,0.9-0.7
					c0.2-0.1,0.3-0.3,0.5-0.4c0.7-0.7,1.4-1.2,2.1-1.7C24.8,43.2,25,43,25.2,42.8c1.1-0.6,2.2-1,3.3-1.2c0,0,0,0,0-0.1
					c0,0,0,0-0.1,0C27.4,41.7,26.2,42.2,25.2,42.8z"/>
			</g>
		</g>
		<g>
			<g>
				<g>
					<g>
						<g class="st20">
							<g>
								<path class="st21" d="M29.1,41.9l-7.9-4.6l-0.1-0.1L29.1,41.9L29.1,41.9z"/>
							</g>
							<g>
								<path class="st22" d="M29.2,41.6c-0.1,0.1-0.1,0.1-0.1,0.2l-7.9-4.6l0.1-0.2L29.2,41.6z"/>
							</g>
							<g>
								<path class="st23" d="M29.4,41.5h-0.1c0,0-0.1,0-0.1,0.1l-8-4.6l0.2-0.1L29.4,41.5z"/>
							</g>
						</g>
					</g>
					<g>
						<polygon class="st24" points="30.3,42.2 30.3,42.3 30.3,42.3 30.3,42.3 30.2,42.3 30.3,42.3 						"/>
					</g>
					<path d="M30.3,42.2L30,42l0,0c0,0,0,0-0.1,0l-0.1,0.1l0,0L30.3,42.2C30.3,42.3,30.3,42.3,30.3,42.2
						C30.3,42.3,30.3,42.3,30.3,42.2z"/>
					<path class="st25" d="M21.7,37h-0.1l-0.1,0.1c0,0.1-0.1,0.1-0.1,0.2v0.1L21,37.1c0,0-0.1,0-0.1-0.1s0-0.1,0.1-0.2
						c0-0.1,0.1-0.1,0.1-0.1h0.1l0,0L21.7,37z"/>
					<path class="st26" d="M29.4,41.5L29.4,41.5L29.4,41.5z"/>
				</g>
				<path class="st27" d="M29.4,41.5L29.4,41.5L29.4,41.5c-0.1,0-0.2,0-0.2,0s0,0,0,0.1l0,0c0,0-0.1,0.1-0.1,0.2l0,0v0.1l0,0
					l0.8,0.3l0,0c0,0,0-0.1,0.1-0.1c0,0,0,0,0.1,0L29.4,41.5z"/>
			</g>
			
				<linearGradient id="SVGID_1_" gradientUnits="userSpaceOnUse" x1="21.7732" y1="-3071.1643" x2="21.5925" y2="-3071.4897" gradientTransform="matrix(1 0 0 -1 0 -3034)">
				<stop  offset="0" style="stop-color:#78ACED"/>
				<stop  offset="1" style="stop-color:#4F7BB3"/>
			</linearGradient>
			<path class="st28" d="M22.1,37.3L22.1,37.3L22.1,37.3L21.7,37l0,0l0,0h-0.1l0,0h-0.1c-0.1,0-0.1,0.1-0.1,0.1
				c0,0.1-0.1,0.1-0.1,0.2c0,0,0,0.1,0.1,0.1h0.1l0,0l0,0l0.3,0.2l0,0l0,0l0.1,0.1l0,0l0,0l0,0c0,0,0,0,0-0.1l0,0v-0.1l0,0l0.1-0.1
				l0,0C22,37.3,22,37.2,22.1,37.3L22.1,37.3L22.1,37.3L22.1,37.3L22.1,37.3z"/>
		</g>
	</g>
</g>
<radialGradient id="Shadow_00000174582117810247283580000005493368219943800728_" cx="-1681.762" cy="-6054.7959" r="15.902" gradientTransform="matrix(1.5353 0 0 -0.4819 2607.0093 -2876.3062)" gradientUnits="userSpaceOnUse">
	<stop  offset="0.4351" style="stop-color:#B4BCC1"/>
	<stop  offset="0.94" style="stop-color:#ECEEEF;stop-opacity:0"/>
</radialGradient>
<ellipse id="Shadow" style="fill:url(#Shadow_00000174582117810247283580000005493368219943800728_);" cx="25" cy="41.5" rx="24.4" ry="7.7"/>
<polygon class="st30" points="19.011,45.305 19.094,44.913 5.701,32.873 5.618,33.264 "/>
<polygon class="st31" points="19.011,45.305 19.094,44.913 43.899,36.885 43.816,37.277 "/>
<g>
	<polygon class="st32" points="5.718,32.791 30.518,24.721 43.922,36.78 19.122,44.85 	"/>
	<polygon class="st33" points="6.456,32.982 30.482,25.164 43.183,36.589 19.157,44.408 	"/>
	<path class="st34" d="M21.487,28.095c0,0,0.419,0.807,0.111,1.206c-0.378,0.489-2.602,0.979-3.102,2.279
		c-0.334,0.869-0.254,2.659-0.919,3.259c-0.664,0.6-2.551,0.562-3.909,1.03c-1.358,0.468-2.284,1.545-2.284,1.545l2.764,2.487
		c0.365-0.483,0.657-1.263,1.481-1.679c1.017-0.514,2.71-0.272,4.706-1.641s1.214-3.087,1.77-4.239
		c0.556-1.152,2.096-1.347,2.741-2.457c0.645-1.109-0.675-2.665-0.675-2.665L21.487,28.095z"/>
	<path class="st34" d="M39.679,33.443c0,0-2.759,0.1-3.546,0.851c-0.579,0.553-0.245,1.543-1.253,2.068s-2.879,0.637-3.606,1.427
		c-0.727,0.79,0.908,2.38,0.908,2.38l-2.864,0.932c0,0-1.889-2.53-1.385-3.982s3.13-2.255,3.912-2.519s0.492-0.956,1.039-2.184
		c0.547-1.229,4.062-1.436,4.094-1.408L39.679,33.443z"/>
	<path class="st35" d="M31.665,40.338c0,0-1.806-1.482-0.798-2.674c1.008-1.192,3.438-1.081,3.93-2.067
		c0.493-0.986,0.249-1.897,1.516-2.309c0.84-0.274,2.264-0.348,2.769-0.383l-1.308-1.183c-0.724,0.04-3.283,0.255-3.971,1.043
		c-0.811,0.929,0.104,2.029-1.985,2.593s-3.542,1.641-3.088,3.001c0.454,1.36,1.466,2.456,1.466,2.456L31.665,40.338z"/>
	<path class="st35" d="M22.166,27.872c0,0,0.639,0.909,0.533,1.311c-0.22,0.831-2.014,1-2.825,1.827
		c-0.662,0.672-0.615,1.948-0.613,2.729c0.004,0.956-0.485,1.883-1.916,2.271c-1.16,0.314-2.399,0.284-3.574,0.625
		c-0.818,0.237-1.818,1.327-1.818,1.327l1.22,1.059c0,0,0.286-0.53,1.176-1.056c0.844-0.499,2.315-0.662,3.901-0.971
		c1.587-0.309,2.78-1.57,2.601-3.509s1.906-2.423,2.883-3.372c0.698-0.678,0.049-2.767,0.049-2.767L22.166,27.872z"/>
	<g>
		<path class="st36" d="M25.894,34.984l2.1,0.913c0.367-0.341,0.699-0.709,0.991-1.09l-2.079-0.769
			C26.648,34.342,26.317,34.66,25.894,34.984z"/>
		<path class="st36" d="M23.568,36.36c0.441,0.299,1.339,0.914,1.767,1.208c0.501-0.225,0.991-0.458,1.416-0.715l-2.016-1.102
			C24.359,35.965,23.966,36.167,23.568,36.36z"/>
		<path class="st36" d="M20.976,37.579l1.932,1.177c0.305-0.202,0.669-0.392,1.062-0.577l-1.671-1.229
			C21.825,37.169,21.374,37.376,20.976,37.579z"/>
		<path class="st36" d="M28.092,30.761l2.351,0.666c0.129-0.407,0.283-0.78,0.452-1.113l-2.512-0.797
			C28.224,29.931,28.15,30.343,28.092,30.761z"/>
		<path class="st36" d="M27.59,32.992l2.085,0.756c0.198-0.368,0.35-0.732,0.452-1.081l-2.231-0.617
			c-0.003,0.016-0.007,0.031-0.01,0.048C27.837,32.309,27.762,32.619,27.59,32.992z"/>
		<path class="st36" d="M29.284,28.13l2.24,1.161c0.266-0.361,0.528-0.643,0.75-0.85l-1.927-1.286
			C29.951,27.456,29.585,27.798,29.284,28.13z"/>
		<path class="st36" d="M23.68,42.967c-0.231-0.248-0.746-0.833-1.139-1.493l-2.301,0.081c0.49,0.858,1.074,1.653,1.401,2.075
			L23.68,42.967z"/>
		<path class="st36" d="M19.515,39.92l2.558,0.437c-0.043-0.216-0.052-0.425-0.007-0.617c0.013-0.055,0.032-0.109,0.055-0.161
			l-2.419-1.144c-0.1,0.108-0.174,0.218-0.216,0.329C19.365,39.081,19.393,39.482,19.515,39.92z"/>
		<path class="st37" d="M30.345,27.156l1.927,1.286c0.023-0.022,0.046-0.044,0.069-0.064c0.182-0.163,0.671-0.376,1.102-0.544
			l-1.65-1.485C31.308,26.507,30.807,26.804,30.345,27.156z"/>
		<path class="st37" d="M28.382,29.518l2.512,0.797c0.199-0.391,0.415-0.732,0.629-1.023l-2.24-1.161
			c-0.176,0.194-0.332,0.384-0.457,0.559C28.628,28.968,28.486,29.243,28.382,29.518z"/>
		<path class="st37" d="M27.894,32.048l2.231,0.617c0.036-0.122,0.068-0.243,0.091-0.361c0.061-0.31,0.138-0.601,0.226-0.877
			l-2.351-0.666C28.033,31.181,27.99,31.609,27.894,32.048z"/>
		<path class="st37" d="M26.907,34.038l2.079,0.769c0.267-0.347,0.498-0.704,0.689-1.059l-2.085-0.756
			C27.446,33.303,27.231,33.658,26.907,34.038z"/>
		<path class="st37" d="M24.735,35.749l2.016,1.102c0.119-0.072,0.235-0.145,0.343-0.222c0.317-0.223,0.619-0.47,0.901-0.733
			l-2.1-0.913c-0.182,0.141-0.378,0.282-0.596,0.424C25.118,35.526,24.928,35.64,24.735,35.749z"/>
		<path class="st37" d="M22.298,36.953l1.671,1.229c0.435-0.205,0.904-0.406,1.365-0.614c-0.428-0.294-1.326-0.91-1.767-1.208
			C23.141,36.566,22.712,36.763,22.298,36.953z"/>
		<path class="st37" d="M19.7,38.434l2.419,1.144c0.13-0.303,0.412-0.572,0.789-0.821l-1.932-1.177
			C20.419,37.866,19.967,38.145,19.7,38.434z"/>
		<path class="st37" d="M20.239,41.556l2.301-0.081c-0.217-0.365-0.395-0.75-0.469-1.117l-2.558-0.437
			C19.657,40.44,19.929,41.011,20.239,41.556z"/>
	</g>
	<g>
		<path class="st36" d="M18.541,33.691l0.833,1.529c0.582-0.085,1.155-0.201,1.72-0.309l-1.026-1.454
			C19.564,33.547,19.052,33.635,18.541,33.691z"/>
		<path class="st36" d="M33.725,36.012l0.75,1.381c0.414-0.036,0.865-0.083,1.363-0.141l-0.628-1.436
			c-0.194,0.006-0.372,0.021-0.525,0.048C34.353,35.922,34.038,35.977,33.725,36.012z"/>
		<path class="st36" d="M22.076,33.155c0.073,0.324,0.463,1.179,0.615,1.506c0.505-0.047,1.009-0.033,1.508,0.027l0.336-1.327
			c-0.832-0.168-1.638-0.258-2.348-0.215C22.15,33.15,22.114,33.153,22.076,33.155z"/>
		<path class="st36" d="M26.929,34.016l-1.097,1.027c0.752,0.229,1.479,0.529,2.168,0.848l1.004-1.106
			C28.376,34.53,27.668,34.262,26.929,34.016z"/>
		<path class="st36" d="M30.856,35.581l-0.959,1.232c0.787,0.355,1.491,0.547,2.292,0.62L32.29,36
			C31.859,35.935,31.391,35.804,30.856,35.581z"/>
		<path class="st36" d="M15.411,33.267l-0.635,1.425c0.942,0.434,1.842,0.612,2.71,0.646l-0.501-1.623
			c-0.399-0.04-0.788-0.124-1.161-0.27C15.691,33.394,15.552,33.334,15.411,33.267z"/>
		<path class="st36" d="M37.922,36.248l-0.555,1.24c0.496,0.177,0.928,0.393,1.313,0.567l1.892-0.616
			C39.662,36.886,38.778,36.512,37.922,36.248z"/>
		<path class="st36" d="M12.622,33.455l1.436-0.938c-0.703-0.439-1.394-0.941-1.927-1.38l-1.796,0.569
			C10.865,32.174,11.644,32.808,12.622,33.455z"/>
		<path class="st37" d="M29.006,34.786l-1.004,1.106c0.509,0.236,0.998,0.482,1.459,0.713c0.149,0.074,0.294,0.144,0.436,0.208
			l0.959-1.232c-0.076-0.031-0.152-0.063-0.231-0.099C30.201,35.291,29.644,35.046,29.006,34.786z"/>
		<path class="st37" d="M32.289,36l-0.101,1.432c0.661,0.059,1.389,0.038,2.287-0.039l-0.75-1.381
			C33.264,36.066,32.802,36.078,32.289,36z"/>
		<path class="st37" d="M35.211,35.815l0.628,1.436c0.008-0.001,0.018-0.002,0.027-0.003c0.484-0.056,1.005,0.063,1.501,0.24
			l0.555-1.24C36.867,35.923,35.914,35.796,35.211,35.815z"/>
		<path class="st37" d="M24.535,33.362l-0.336,1.327c0.553,0.068,1.099,0.191,1.633,0.354l1.097-1.027
			C26.145,33.756,25.328,33.523,24.535,33.362z"/>
		<path class="st37" d="M20.069,33.456l1.026,1.454c0.479-0.092,0.953-0.177,1.426-0.234c0.057-0.006,0.113-0.009,0.171-0.014
			c-0.152-0.328-0.542-1.182-0.615-1.506C21.444,33.203,20.765,33.331,20.069,33.456z"/>
		<path class="st37" d="M16.985,33.714l0.501,1.623c0.645,0.025,1.273-0.03,1.889-0.119l-0.833-1.529
			C18.015,33.746,17.492,33.767,16.985,33.714z"/>
		<path class="st37" d="M14.447,34.533c0.111,0.057,0.22,0.11,0.329,0.16l0.635-1.425c-0.429-0.2-0.894-0.461-1.353-0.749
			l-1.436,0.938C13.171,33.819,13.781,34.187,14.447,34.533z"/>
	</g>
</g>
<polygon class="st31" points="19.032,45.243 19.116,44.846 43.922,36.78 43.837,37.177 "/>
<polygon class="st30" points="19.032,45.243 19.116,44.846 5.718,32.791 5.634,33.189 "/>
<g>
	<path class="st37" d="M29.276,30.878c-0.43-0.091-0.745-0.352-0.697-0.581c0.049-0.229,0.442-0.34,0.873-0.248
		c0.43,0.091,0.735,0.35,0.687,0.579C30.091,30.856,29.708,30.969,29.276,30.878z"/>
	<path class="st38" d="M29.316,30.682c-0.228-0.048-0.394-0.186-0.368-0.307c0.026-0.121,0.234-0.179,0.461-0.131
		c0.227,0.048,0.388,0.185,0.362,0.306C29.746,30.67,29.544,30.73,29.316,30.682z"/>
</g>
<g>
	<path class="st37" d="M16.116,34.748c-0.43-0.091-0.745-0.352-0.697-0.581c0.049-0.229,0.442-0.34,0.873-0.248
		s0.735,0.35,0.687,0.579S16.546,34.84,16.116,34.748z"/>
	<path class="st38" d="M16.156,34.552c-0.228-0.048-0.394-0.186-0.368-0.307c0.026-0.121,0.233-0.179,0.461-0.131
		c0.227,0.048,0.388,0.185,0.362,0.306C16.585,34.541,16.382,34.601,16.156,34.552z"/>
</g>
<g>
	<path class="st37" d="M24.998,37.045c-0.43-0.091-0.745-0.352-0.697-0.581c0.049-0.229,0.442-0.34,0.873-0.248
		s0.735,0.35,0.687,0.579S25.429,37.137,24.998,37.045z"/>
	<path class="st38" d="M25.038,36.849c-0.228-0.048-0.394-0.186-0.368-0.307c0.026-0.121,0.234-0.179,0.461-0.131
		s0.388,0.185,0.362,0.306C25.468,36.838,25.266,36.898,25.038,36.849z"/>
</g>
<g>
	<path class="st37" d="M31.167,36.89c-0.43-0.091-0.745-0.352-0.697-0.581s0.442-0.34,0.873-0.248s0.735,0.35,0.687,0.579
		C31.981,36.868,31.598,36.981,31.167,36.89z"/>
	<path class="st38" d="M31.207,36.694c-0.228-0.048-0.394-0.186-0.368-0.307c0.026-0.121,0.234-0.179,0.461-0.131
		c0.227,0.048,0.388,0.185,0.362,0.306C31.636,36.683,31.434,36.742,31.207,36.694z"/>
</g>
<path id="Yellow_Cone" class="st39" d="M31.463,25.15l-1.565,3.041c-0.021,0.098,0.35,0.279,0.839,0.382
	c0.489,0.104,0.901,0.089,0.922-0.009L31.463,25.15z"/>
<path id="Red_Cone" class="st38" d="M22.686,39.542l-1.565,3.041c-0.021,0.098,0.35,0.279,0.839,0.382
	c0.489,0.104,0.901,0.089,0.922-0.009C22.882,42.957,22.707,39.444,22.686,39.542z"/>
<path id="Blue_Cone" class="st40" d="M14.789,30.507l-1.565,3.041c-0.021,0.098,0.35,0.279,0.839,0.382s0.901,0.089,0.922-0.009
	L14.789,30.507z"/>
<g>
	<polygon class="st41" points="8.245,40.165 9.597,40.63 9.913,42.25 8.561,41.786 	"/>
	<polygon class="st38" points="10.675,39.691 9.597,40.63 9.913,42.25 10.991,41.312 	"/>
	<polygon class="st42" points="9.597,40.63 10.675,39.691 9.323,39.228 8.245,40.165 	"/>
	
		<ellipse transform="matrix(0.9815 -0.1915 0.1915 0.9815 -7.4582 2.5465)" class="st36" cx="9.448" cy="39.867" rx="0.233" ry="0.124"/>
	<path class="st36" d="M9.257,40.798c0.08,0.028,0.159,0.128,0.178,0.223c0.019,0.095-0.031,0.151-0.11,0.123
		c-0.08-0.028-0.159-0.128-0.178-0.223C9.128,40.826,9.177,40.77,9.257,40.798z"/>
	<path class="st36" d="M8.618,40.581c0.08,0.028,0.159,0.128,0.178,0.223c0.019,0.095-0.031,0.151-0.11,0.123
		c-0.08-0.028-0.159-0.128-0.178-0.223C8.489,40.609,8.539,40.553,8.618,40.581z"/>
	<path class="st36" d="M9.395,41.504c0.08,0.028,0.159,0.128,0.178,0.223c0.019,0.095-0.031,0.151-0.11,0.123
		c-0.08-0.028-0.159-0.128-0.178-0.223S9.315,41.477,9.395,41.504z"/>
	<path class="st36" d="M8.756,41.287c0.08,0.028,0.159,0.128,0.178,0.223c0.019,0.095-0.031,0.151-0.11,0.123
		c-0.08-0.028-0.159-0.128-0.178-0.223C8.627,41.314,8.677,41.26,8.756,41.287z"/>
	<path class="st36" d="M10.447,40.224c-0.063,0.056-0.1,0.178-0.081,0.274c0.019,0.095,0.085,0.128,0.149,0.073
		c0.063-0.056,0.1-0.178,0.081-0.274C10.577,40.202,10.51,40.169,10.447,40.224z"/>
	<path class="st36" d="M10.074,41.372c-0.063,0.056-0.1,0.178-0.081,0.274c0.019,0.095,0.085,0.128,0.149,0.073
		c0.063-0.056,0.1-0.178,0.081-0.274C10.204,41.349,10.137,41.316,10.074,41.372z"/>
</g>
<g>
	<polygon class="st34" points="25.789,21.703 26.425,22.982 25.514,24.357 24.878,23.078 	"/>
	<polygon class="st33" points="27.852,23.07 26.425,22.982 25.514,24.357 26.941,24.445 	"/>
	<polygon class="st43" points="26.425,22.982 27.852,23.07 27.215,21.79 25.789,21.703 	"/>
	
		<ellipse transform="matrix(0.5524 -0.8336 0.8336 0.5524 -6.5974 32.3821)" class="st36" cx="26.855" cy="22.334" rx="0.124" ry="0.233"/>
	<path class="st36" d="M25.7,22.851c0.037,0.076,0.024,0.203-0.03,0.284c-0.054,0.081-0.128,0.086-0.165,0.01
		c-0.037-0.076-0.024-0.203,0.03-0.284C25.588,22.781,25.662,22.776,25.7,22.851z"/>
	<path class="st36" d="M25.763,22.26c0.037,0.076,0.024,0.203-0.03,0.284c-0.054,0.081-0.128,0.086-0.165,0.01
		c-0.037-0.076-0.024-0.203,0.03-0.284C25.652,22.189,25.727,22.184,25.763,22.26z"/>
	<path class="st36" d="M25.669,23.463c0.037,0.076,0.024,0.203-0.03,0.284c-0.054,0.081-0.128,0.086-0.165,0.01
		c-0.037-0.076-0.024-0.203,0.03-0.284C25.557,23.393,25.631,23.388,25.669,23.463z"/>
	<path class="st36" d="M27.369,23.209c-0.085-0.004-0.196,0.057-0.25,0.138s-0.029,0.151,0.055,0.156
		c0.085,0.004,0.196-0.057,0.25-0.138C27.478,23.284,27.454,23.214,27.369,23.209z"/>
	<path class="st36" d="M27.104,23.609c-0.085-0.004-0.196,0.057-0.25,0.138s-0.029,0.151,0.055,0.156
		c0.085,0.004,0.196-0.057,0.25-0.138S27.188,23.615,27.104,23.609z"/>
	<path class="st36" d="M26.839,24.008c-0.085-0.004-0.196,0.057-0.25,0.138c-0.054,0.081-0.029,0.151,0.055,0.156
		c0.085,0.004,0.196-0.057,0.25-0.138C26.948,24.083,26.923,24.014,26.839,24.008z"/>
	<path class="st36" d="M26.694,23.165c-0.085-0.004-0.196,0.057-0.25,0.138s-0.029,0.151,0.055,0.156
		c0.085,0.004,0.196-0.057,0.25-0.138C26.803,23.239,26.778,23.17,26.694,23.165z"/>
	<path class="st36" d="M26.429,23.565c-0.085-0.004-0.196,0.057-0.25,0.138s-0.029,0.151,0.055,0.156
		c0.085,0.004,0.196-0.057,0.25-0.138C26.537,23.64,26.513,23.57,26.429,23.565z"/>
	<path class="st36" d="M26.164,23.964c-0.085-0.004-0.196,0.057-0.25,0.138s-0.029,0.151,0.055,0.156
		c0.085,0.004,0.196-0.057,0.25-0.138C26.273,24.04,26.248,23.97,26.164,23.964z"/>
</g>
<g>
	<polygon class="st44" points="16.871,24.293 18.17,24.89 18.322,26.533 17.023,25.936 	"/>
	<polygon class="st31" points="19.336,24.064 18.17,24.89 18.322,26.533 19.488,25.707 	"/>
	<polygon class="st32" points="18.17,24.89 19.336,24.064 18.038,23.467 16.871,24.293 	"/>
	<path class="st36" d="M18.624,24.255c-0.128,0.012-0.237-0.033-0.243-0.102c-0.006-0.068,0.092-0.133,0.221-0.145
		c0.128-0.012,0.237,0.033,0.243,0.102C18.851,24.178,18.753,24.243,18.624,24.255z"/>
	<path class="st36" d="M17.579,24.352c-0.128,0.012-0.237-0.033-0.243-0.102c-0.006-0.068,0.092-0.133,0.221-0.145
		c0.128-0.012,0.237,0.033,0.243,0.102C17.805,24.274,17.707,24.34,17.579,24.352z"/>
	<path class="st36" d="M17.814,25.023c0.077,0.036,0.146,0.143,0.155,0.24s-0.046,0.147-0.122,0.112
		c-0.077-0.036-0.146-0.143-0.155-0.24S17.738,24.988,17.814,25.023z"/>
	<path class="st36" d="M17.201,24.742c0.077,0.036,0.146,0.143,0.155,0.24c0.009,0.097-0.046,0.147-0.122,0.112
		c-0.077-0.036-0.146-0.143-0.155-0.24C17.07,24.757,17.124,24.707,17.201,24.742z"/>
	<path class="st36" d="M17.881,25.74c0.077,0.036,0.146,0.143,0.155,0.24c0.009,0.097-0.046,0.147-0.122,0.112
		c-0.077-0.036-0.146-0.143-0.155-0.24C17.75,25.754,17.804,25.705,17.881,25.74z"/>
	<path class="st36" d="M17.527,25.242c0.077,0.036,0.146,0.143,0.155,0.24c0.009,0.097-0.046,0.147-0.122,0.112
		c-0.077-0.036-0.146-0.143-0.155-0.24C17.396,25.257,17.451,25.207,17.527,25.242z"/>
	<path class="st36" d="M17.267,25.459c0.077,0.036,0.146,0.143,0.155,0.24c0.009,0.097-0.046,0.147-0.122,0.112
		c-0.077-0.036-0.146-0.143-0.155-0.24C17.136,25.474,17.191,25.424,17.267,25.459z"/>
	<path class="st36" d="M19.055,24.57c-0.069,0.05-0.117,0.168-0.108,0.264c0.009,0.097,0.072,0.136,0.141,0.087
		c0.069-0.05,0.117-0.168,0.108-0.264C19.187,24.561,19.124,24.522,19.055,24.57z"/>
	<path class="st36" d="M18.57,25.676c-0.069,0.05-0.117,0.168-0.108,0.264c0.009,0.097,0.072,0.136,0.141,0.087
		c0.069-0.05,0.117-0.168,0.108-0.264C18.702,25.666,18.639,25.627,18.57,25.676z"/>
	<path class="st36" d="M18.841,25.121c-0.069,0.05-0.117,0.168-0.108,0.264s0.072,0.136,0.141,0.087
		c0.069-0.05,0.117-0.168,0.108-0.264S18.91,25.072,18.841,25.121z"/>
</g>
</svg>
