<?xml version="1.0" encoding="utf-8"?>
<!-- Generator: Adobe Illustrator 25.4.1, SVG Export Plug-In . SVG Version: 6.00 Build 0)  -->
<svg version="1.1" id="Layer_1" xmlns="http://www.w3.org/2000/svg" xmlns:xlink="http://www.w3.org/1999/xlink" x="0px" y="0px"
	 viewBox="0 0 50 50" style="enable-background:new 0 0 50 50;" xml:space="preserve">
<style type="text/css">
	.st0{display:none;}
	.st1{display:inline;}
	.st2{fill:#344593;}
	.st3{fill:#3E54A3;}
	.st4{fill:#2E4490;}
	.st5{fill:#122571;}
	.st6{opacity:0.5;fill:#031F60;enable-background:new    ;}
	.st7{fill:#BBDFFF;}
	.st8{fill:#FDB724;}
	.st9{fill:#E7478D;}
	.st10{fill:#BF2878;}
	.st11{fill:#27DEBF;}
	.st12{fill:#1BBC9D;}
	.st13{fill:#A33D64;}
	.st14{fill:#82294D;}
	.st15{fill:#0A4A80;}
	.st16{fill:#F1FCFF;}
	.st17{fill:#D6E6FF;}
	.st18{fill:#CEF3FF;}
	.st19{fill:#606060;}
	.st20{enable-background:new    ;}
	.st21{fill:#F19729;}
	.st22{fill:#FCB040;}
	.st23{fill:#FFCB49;}
	.st24{fill:#2E5677;}
	.st25{fill:#FF51CE;}
	.st26{fill:#EDE6A0;}
	.st27{fill:#FFF7B0;}
	.st28{fill:url(#SVGID_1_);}
	.st29{fill:url(#Shadow_00000136399739892411084080000004626881544081290377_);}
	.st30{fill:#73B3DD;}
	.st31{fill:#95C7EF;}
	.st32{fill:#B6DBFF;}
	.st33{fill:#A3BF2E;}
	.st34{fill:#96AA22;}
	.st35{fill:#38BBFC;}
	.st36{fill:#5E3C36;}
	.st37{fill:#FFFFFF;}
	.st38{fill:#FF4D4D;}
	.st39{fill:#FFC81A;}
	.st40{fill:#2478FF;}
	.st41{fill:#E53333;}
	.st42{fill:#FF6969;}
	.st43{fill:#B4D845;}
	.st44{fill:#72B2DD;}
</style>
<g id="Example" class="st0">
	<g class="st1">
		<g id="XMLID_4903_">
			<path id="XMLID_4905_" class="st2" d="M45.3,33.2v-4.6l0,0c0-0.9-0.6-1.8-1.7-2.4c-2.3-1.3-6-1.3-8.4,0c-1.2,0.7-1.7,1.6-1.7,2.4
				l0,0v4.5c0,0.9,0.6,1.8,1.7,2.4c2.3,1.3,6,1.3,8.4,0C44.8,34.9,45.3,34.1,45.3,33.2L45.3,33.2L45.3,33.2L45.3,33.2z"/>
			<path id="XMLID_4904_" class="st2" d="M45.3,33.2v-4.6l0,0c0-0.9-0.6-1.8-1.7-2.4c-2.3-1.3-6-1.3-8.4,0c-1.2,0.7-1.7,1.6-1.7,2.4
				l0,0v4.5c0,0.9,0.6,1.8,1.7,2.4c2.3,1.3,6,1.3,8.4,0C44.8,34.9,45.3,34.1,45.3,33.2L45.3,33.2L45.3,33.2L45.3,33.2z"/>
		</g>
		<polygon id="XMLID_4900_" class="st3" points="39.4,23 29.7,28.6 39.4,34.2 49.2,28.6 		"/>
		<path id="XMLID_4899_" class="st4" d="M44.3,31.4l-4.8-2.7c-0.1,0-0.2,0-0.2,0.1s0,0.2,0.1,0.2l4.6,2.6L44.3,31.4z"/>
		<polygon id="XMLID_4896_" class="st5" points="29.7,28.6 29.7,29 39.4,34.6 39.4,34.2 		"/>
		<polygon id="XMLID_4883_" class="st4" points="49.2,28.6 49.2,29 39.4,34.6 39.4,34.2 		"/>
		<polygon id="XMLID_4876_" class="st6" points="33.5,31.2 39.4,35.2 45.3,31.2 39.4,34.6 		"/>
		<g id="XMLID_4823_">
			<path id="XMLID_4835_" class="st7" d="M44.7,36.2c-0.1,0-0.2-0.1-0.2-0.2v-4c0-0.2-0.1-0.4-0.3-0.4l-4.9-2.8
				c-0.1,0-0.1-0.2-0.1-0.2c0-0.1,0.2-0.1,0.2-0.1l4.9,2.8c0.3,0.2,0.4,0.4,0.4,0.7v4C44.8,36.1,44.7,36.2,44.7,36.2z"/>
		</g>
		<path class="st8" d="M45.3,39.3L45,36.6c0.1-0.1,0.1-0.2,0-0.2l0,0l0,0l0,0v-0.1l0,0l0,0l0,0c0-0.2-0.2-0.4-0.4-0.4c0,0,0,0-0.1,0
			l0,0l0,0c0,0,0,0-0.1,0c0,0,0,0-0.1,0c0,0,0,0-0.1,0c0,0,0,0,0,0.1l0,0v0.1c0,0.1,0,0.2,0.1,0.3l0,0c-0.1,0.1,0,0.2,0,0.2L44,39.3
			c0,0.1,0.1,0.2,0.3,0.3l0,0h0.1l0,0c0.1,0,0.2,0.1,0.3,0.1l0,0l0,0l0,0l0,0l0,0c0.1,0,0.2,0,0.3-0.1l0,0h0.1l0,0
			C45.3,39.5,45.3,39.4,45.3,39.3z"/>
	</g>
	<g id="XMLID_3738_" class="st1">
		<path id="XMLID_4404_" class="st9" d="M12.4,36.1c1.1-0.8,1.8-2.7,1.7-4c-0.1-1.4-1.2-2-1.7-2.3l0,0c-1.1-0.6-2.8-0.6-3.9,0l0,0
			C8,30.1,7,30.7,6.8,32.1c-0.1,1.3,0.6,3.2,1.7,4l0,0c0.1,0,0.1,0.1,0.2,0.1c1,0.6,2.6,0.6,3.6,0l0,0
			C12.3,36.2,12.4,36.1,12.4,36.1L12.4,36.1z"/>
		<path id="XMLID_4395_" class="st10" d="M9.9,30.8c-0.3,0.2-0.3,0.4,0,0.6s0.8,0.2,1.1,0s0.3-0.4,0-0.6
			C10.7,30.6,10.2,30.6,9.9,30.8z"/>
		<g id="XMLID_4426_">
			<path id="XMLID_2198_" class="st11" d="M10.5,31.2c0,0-0.9,0-1.4-0.7s0-1.9,0-1.9s1.1,0.1,1.7,1C11.2,30.4,10.5,31.2,10.5,31.2z"
				/>
			<path id="XMLID_4431_" class="st12" d="M9,30.5c0.5,0.7,1.4,0.7,1.4,0.7C10.3,29.6,9,28.6,9,28.6S8.5,29.8,9,30.5z"/>
		</g>
		<path id="XMLID_4403_" class="st13" d="M10.5,31.2c0,0,0-1.3,0.7-1.9s1.2-0.6,1.2-0.6c0.4,0,0.9,0.4,0.7,0.4c0,0-0.9,0-1.5,0.5
			s-0.9,1.5-0.9,1.6c0,0,0,0.1-0.1,0.1C10.5,31.3,10.5,31.2,10.5,31.2z"/>
		<path id="XMLID_4496_" class="st14" d="M12.4,28.7c-0.1,0-0.1,0.1,0.2,0.3c0.2,0.1,0.4,0.2,0.5,0.2l0,0
			C13.3,29,12.8,28.7,12.4,28.7z"/>
	</g>
	<g class="st1">
		<g>
			<path class="st15" d="M26,28.8L26,28.8c-1,0.6-1.9,1-2.8,1.2l0,0c0,0,0,0-0.1,0l-0.5,0.2h-0.1c-0.1,0-0.2,0.1-0.3,0.1h-0.1
				c-0.1,0-0.2,0.1-0.2,0.1h-0.1c-0.5,0.2-0.9,0.4-1.4,0.7c-0.1,0.1-0.2,0.1-0.3,0.2L20,31.4c-0.4,0.3-2,1.5-2.9,2.5l-0.6,0.6
				L16,34.6c-1,0.2-2,0.5-3,1.1c-0.1,0.1-0.2,0.1-0.3,0.2c-0.3,0.2-0.5,0.3-0.8,0.5l0,0l-0.1,0.1c-0.1,0.1-0.2,0.1-0.3,0.2l0,0l0,0
				c-0.4,0.3-0.9,0.7-1.3,1.1c-0.1,0.1-0.2,0.2-0.3,0.3c-0.3,0.3-0.7,0.6-1,0.9H8.8c-0.3,0.3-0.7,0.5-1,0.8
				c-0.2,0.2-0.5,0.3-0.7,0.5H7l13.7,8.3h0.1c0.8-0.5,1.7-1.2,2.5-1.9c0.5-0.5,1.1-0.9,1.7-1.4c1.2-0.9,2.3-1.5,3.2-1.8
				c0.7-0.3,1.4-0.5,2.1-0.6l0.5-0.6c0.7-0.7,1.5-1.3,2.4-1.8c1.5-1,3.2-1.8,4.9-2.5c0.6-0.2,1.2-0.5,1.6-0.7l0.2-0.1L26,28.8z"/>
			<g>
				<g>
					<g>
						<path class="st16" d="M39.1,36.7c-0.5,0.3-0.7,0.4-1.2,0.6c-0.3,0.1-0.5,0.2-0.8,0.3c-0.2,0.1-0.3,0.1-0.5,0.1
							c-0.7,0.2-1.4,0.4-2,0.8c-0.2,0.1-0.4,0.2-0.6,0.3c-1.3,0.8-2.6,2-3.9,3.5l-2.5-1.5l-11-6.7c1.3-1.5,2.6-2.7,3.9-3.5
							c0.2-0.1,0.4-0.2,0.6-0.3c0.7-0.4,1.4-0.6,2-0.8c0.2,0,0.3-0.1,0.5-0.1c0.3-0.1,0.5-0.2,0.8-0.3c0.5-0.2,0.7-0.3,1.2-0.6
							L39.1,36.7z"/>
						<g>
							<path class="st16" d="M30.1,42.3c-1.3,0.1-2.6,0.5-3.9,1.3c-0.2,0.1-0.4,0.2-0.6,0.4c-0.7,0.5-1.4,1-2,1.7
								c-0.2,0.2-0.3,0.3-0.5,0.4c-0.3,0.3-0.6,0.5-0.9,0.7c-0.5,0.4-0.8,0.6-1.3,0.9L7.5,39.5C8,39.2,8.3,39,8.8,38.6
								c0.3-0.2,0.6-0.5,0.9-0.7c0.2-0.1,0.3-0.3,0.5-0.4c0.7-0.6,1.4-1.2,2-1.7c0.2-0.1,0.4-0.3,0.6-0.4c1.3-0.8,2.6-1.2,3.9-1.3
								l11,6.7L30.1,42.3z"/>
						</g>
					</g>
					<polygon class="st17" points="7.5,39.5 7.3,40.3 20.7,48.5 20.9,47.7 					"/>
					<path class="st18" d="M39.4,37.1c-0.9,0.6-1.8,1-2.7,1.2c0,0,0,0-0.1,0s-0.2,0-0.3,0.1c-0.1,0-0.2,0.1-0.3,0.1
						s-0.2,0.1-0.3,0.1c-0.6,0.2-1.2,0.5-1.8,0.9c-0.1,0.1-0.2,0.1-0.3,0.2c-1,0.7-2,1.5-3,2.5L30,42.8l-0.6,0.1c-1,0.2-2,0.5-3,1.1
						c-0.1,0.1-0.2,0.1-0.3,0.2c-0.3,0.2-0.5,0.3-0.8,0.5c-0.6,0.4-1.1,0.9-1.7,1.4c-0.1,0.1-0.2,0.2-0.3,0.3
						c-0.9,0.9-1.8,1.6-2.7,2.2l0.2-0.8c0.5-0.3,0.8-0.5,1.3-0.9c0.3-0.2,0.6-0.5,0.9-0.7c0.2-0.1,0.3-0.3,0.5-0.4
						c0.7-0.6,1.4-1.2,2-1.7c0.2-0.1,0.4-0.3,0.6-0.4c1.3-0.8,2.6-1.2,3.9-1.3c1.3-1.5,2.6-2.7,3.9-3.5c0.2-0.1,0.4-0.2,0.6-0.3
						c0.7-0.4,1.4-0.6,2-0.8c0.2,0,0.3-0.1,0.5-0.1c0.3-0.1,0.5-0.2,0.8-0.3c0.5-0.2,0.7-0.3,1.2-0.6L39.4,37.1z"/>
				</g>
			</g>
			<g>
				<path class="st19" d="M17.8,34.6C17.9,34.6,17.9,34.6,17.8,34.6c1.2-1.4,2.5-2.5,3.7-3.2c0.2-0.1,0.4-0.2,0.5-0.3
					c0.7-0.3,1.3-0.6,2-0.8c0.2,0,0.3-0.1,0.5-0.1c0.3-0.1,0.5-0.2,0.8-0.3c0.4-0.2,0.7-0.3,1.1-0.5c0,0,0,0,0-0.1s0,0-0.1,0
					c-0.4,0.2-0.6,0.3-1,0.5c-0.3,0.1-0.5,0.2-0.8,0.3c-0.2,0.1-0.3,0.1-0.5,0.1c-0.7,0.2-1.3,0.4-2,0.8c-0.2,0.1-0.4,0.2-0.6,0.3
					C20.3,32.1,19,33.2,17.8,34.6C17.8,34.5,17.8,34.6,17.8,34.6L17.8,34.6z"/>
				<path class="st19" d="M25.4,30.6c-0.2,0.1-0.3,0.1-0.5,0.1c-0.7,0.2-1.3,0.4-2,0.8c-0.2,0.1-0.4,0.2-0.6,0.3
					c-1.2,0.7-2.5,1.8-3.7,3.2v0.1l0,0l0,0c1.2-1.4,2.5-2.5,3.7-3.2c0.2-0.1,0.4-0.2,0.6-0.3c0.7-0.4,1.3-0.6,2-0.8
					C25.1,30.8,25.3,30.7,25.4,30.6c0.3,0,0.6-0.1,0.8-0.2c0.4-0.2,0.6-0.3,1-0.5c0,0,0,0,0-0.1c0,0,0,0-0.1,0
					c-0.4,0.2-0.6,0.3-1,0.5C25.9,30.4,25.7,30.5,25.4,30.6z"/>
				<path class="st19" d="M26.2,31.1c-0.2,0.1-0.3,0.1-0.5,0.1c-0.7,0.2-1.3,0.4-2,0.8c-0.2,0.1-0.4,0.2-0.6,0.3
					c-1.2,0.7-2.5,1.8-3.7,3.2v0.1l0,0l0,0c1.2-1.4,2.5-2.5,3.7-3.2c0.2-0.1,0.4-0.2,0.6-0.3c0.7-0.4,1.4-0.6,2-0.8
					C25.9,31.3,26.1,31.2,26.2,31.1c0.3,0,0.6-0.1,0.8-0.2c0.4-0.2,0.6-0.3,1-0.5c0,0,0,0,0-0.1c0,0,0,0-0.1,0
					c-0.4,0.2-0.6,0.3-1,0.5C26.8,30.9,26.5,31,26.2,31.1z"/>
				<path class="st19" d="M27.1,31.5c-0.2,0.1-0.3,0.1-0.5,0.1c-0.7,0.2-1.3,0.4-2,0.8c-0.2,0.1-0.4,0.2-0.6,0.3
					c-1.2,0.7-2.5,1.8-3.7,3.2V36l0,0l0,0c1.2-1.4,2.5-2.5,3.7-3.2c0.2-0.1,0.4-0.2,0.6-0.3c0.7-0.4,1.4-0.6,2-0.8
					C26.7,31.7,26.9,31.7,27.1,31.5c0.3,0,0.6-0.1,0.8-0.2c0.4-0.2,0.6-0.3,1-0.5c0,0,0,0,0-0.1c0,0,0,0-0.1,0
					c-0.4,0.2-0.6,0.3-1,0.5C27.6,31.4,27.3,31.5,27.1,31.5z"/>
				<path class="st19" d="M27.9,32c-0.2,0.1-0.3,0.1-0.5,0.1c-0.7,0.2-1.4,0.4-2,0.8c-0.2,0.1-0.4,0.2-0.6,0.3
					c-1.2,0.7-2.5,1.9-3.7,3.2v0.1l0,0l0,0c1.2-1.4,2.5-2.5,3.7-3.2c0.2-0.1,0.4-0.2,0.6-0.3c0.7-0.4,1.4-0.6,2-0.8
					C27.6,32.2,27.8,32.2,27.9,32c0.3,0,0.6-0.1,0.8-0.2c0.4-0.2,0.6-0.3,1-0.5c0,0,0,0,0-0.1c0,0,0,0-0.1,0c-0.4,0.2-0.6,0.3-1,0.5
					C28.4,31.8,28.1,31.9,27.9,32z"/>
				<path class="st19" d="M28.7,32.5c-0.2,0.1-0.3,0.1-0.5,0.1c-0.7,0.2-1.4,0.4-2,0.8c-0.2,0.1-0.4,0.2-0.6,0.3
					c-1.2,0.7-2.5,1.9-3.7,3.2V37l0,0l0,0c1.2-1.4,2.5-2.5,3.7-3.2c0.2-0.1,0.4-0.2,0.6-0.3c0.7-0.4,1.4-0.6,2-0.8
					C28.4,32.7,28.6,32.6,28.7,32.5c0.3,0,0.6-0.1,0.8-0.2c0.4-0.2,0.6-0.3,1-0.5c0,0,0,0,0-0.1c0,0,0,0-0.1,0
					c-0.3,0.2-0.6,0.3-0.9,0.5C29.2,32.3,29,32.4,28.7,32.5z"/>
				<path class="st19" d="M29.6,33c-0.2,0.1-0.3,0.1-0.5,0.1c-0.7,0.2-1.4,0.4-2.1,0.8c-0.2,0.1-0.4,0.2-0.6,0.3
					c-1.2,0.7-2.5,1.9-3.8,3.3v0.1l0,0l0,0c1.2-1.4,2.5-2.5,3.7-3.2c0.2-0.1,0.4-0.2,0.6-0.3c0.7-0.4,1.4-0.6,2-0.8
					C29.2,33.2,29.4,33.1,29.6,33c0.3,0,0.6-0.1,0.8-0.2c0.4-0.2,0.6-0.3,0.9-0.5c0,0,0,0,0-0.1c0,0,0,0-0.1,0
					c-0.3,0.2-0.5,0.3-0.9,0.4C30.1,32.8,29.8,32.9,29.6,33z"/>
				<path class="st19" d="M30.4,33.5c-0.2,0.1-0.3,0.1-0.5,0.1c-0.7,0.2-1.4,0.4-2.1,0.8c-0.2,0.1-0.4,0.2-0.6,0.3
					c-1.2,0.7-2.5,1.9-3.8,3.3v0.1l0,0l0,0c1.2-1.4,2.5-2.5,3.7-3.2c0.2-0.1,0.4-0.2,0.6-0.3c0.7-0.4,1.4-0.6,2-0.8
					C30.1,33.7,30.2,33.6,30.4,33.5c0.3,0,0.5-0.1,0.8-0.2c0.4-0.2,0.6-0.3,0.9-0.4c0,0,0,0,0-0.1c0,0,0,0-0.1,0
					c-0.3,0.2-0.5,0.3-0.9,0.4C30.9,33.3,30.6,33.4,30.4,33.5z"/>
				<path class="st19" d="M31.2,33.9C31,34,30.9,34,30.7,34.1c-0.7,0.2-1.4,0.4-2.1,0.8c-0.2,0.1-0.4,0.2-0.6,0.3
					c-1.2,0.7-2.5,1.9-3.8,3.3v0.1l0,0l0,0c1.2-1.4,2.5-2.5,3.8-3.3c0.2-0.1,0.4-0.2,0.6-0.3c0.7-0.4,1.4-0.6,2-0.8
					C30.9,34.1,31.1,34.1,31.2,33.9c0.3,0,0.5-0.1,0.8-0.2c0.4-0.2,0.6-0.2,0.9-0.4c0,0,0,0,0-0.1c0,0,0,0-0.1,0
					c-0.3,0.2-0.5,0.3-0.9,0.4C31.7,33.8,31.5,33.9,31.2,33.9z"/>
				<path class="st19" d="M32,34.4c-0.2,0.1-0.3,0.1-0.5,0.1c-0.7,0.2-1.4,0.4-2.1,0.8c-0.2,0.1-0.4,0.2-0.6,0.3
					c-1.2,0.7-2.6,1.9-3.8,3.3V39l0,0l0,0c1.2-1.4,2.5-2.5,3.8-3.3c0.2-0.1,0.4-0.2,0.6-0.3c0.7-0.4,1.4-0.6,2-0.8
					C31.7,34.6,31.9,34.6,32,34.4c0.3,0,0.5-0.1,0.8-0.2c0.4-0.2,0.6-0.2,0.9-0.4c0,0,0,0,0-0.1c0,0,0,0-0.1,0
					c-0.3,0.2-0.5,0.3-0.9,0.4C32.6,34.2,32.3,34.3,32,34.4z"/>
				<path class="st19" d="M32.9,34.9C32.7,35,32.6,35,32.4,35c-0.7,0.2-1.4,0.4-2.1,0.8c-0.2,0.1-0.4,0.2-0.6,0.3
					c-1.2,0.8-2.6,1.9-3.8,3.3v0.1l0,0l0,0c1.2-1.4,2.5-2.5,3.8-3.3c0.2-0.1,0.4-0.2,0.6-0.3c0.7-0.4,1.4-0.6,2.1-0.8
					C32.6,35.1,32.7,35,32.9,34.9c0.3,0,0.5-0.1,0.8-0.2c0.3-0.1,0.6-0.2,0.9-0.4c0,0,0,0,0-0.1c0,0,0,0-0.1,0
					c-0.3,0.2-0.5,0.3-0.8,0.4C33.4,34.7,33.1,34.8,32.9,34.9z"/>
				<path class="st19" d="M33.7,35.4c-0.2,0.1-0.3,0.1-0.5,0.1c-0.7,0.2-1.4,0.4-2.1,0.8c-0.2,0.1-0.4,0.2-0.6,0.3
					c-1.2,0.8-2.6,1.9-3.8,3.3V40l0,0l0,0c1.2-1.4,2.6-2.5,3.8-3.3c0.2-0.1,0.4-0.2,0.6-0.3c0.7-0.4,1.4-0.6,2.1-0.8
					C33.4,35.6,33.6,35.5,33.7,35.4c0.3,0,0.5-0.1,0.8-0.2c0.3-0.1,0.5-0.2,0.8-0.4c0,0,0,0,0-0.1c0,0,0,0-0.1,0
					c-0.3,0.2-0.5,0.3-0.8,0.4C34.2,35.2,34,35.3,33.7,35.4z"/>
				<path class="st19" d="M34.5,35.8c-0.2,0.1-0.3,0.1-0.5,0.1c-0.7,0.2-1.4,0.4-2.1,0.8c-0.2,0.1-0.4,0.2-0.6,0.3
					c-1.3,0.8-2.6,1.9-3.8,3.3v0.1l0,0l0,0c1.2-1.4,2.6-2.6,3.8-3.3c0.2-0.1,0.4-0.2,0.6-0.3c0.7-0.4,1.4-0.6,2.1-0.8
					C34.2,36,34.4,36,34.5,35.8c0.3,0,0.5-0.1,0.8-0.2c0.3-0.1,0.5-0.2,0.8-0.4c0,0,0,0,0-0.1c0,0,0,0-0.1,0
					c-0.3,0.2-0.5,0.2-0.8,0.4C35,35.7,34.8,35.8,34.5,35.8z"/>
				<path class="st19" d="M35.4,36.3c-0.2,0.1-0.3,0.1-0.5,0.1c-0.7,0.2-1.4,0.4-2.1,0.8c-0.2,0.1-0.4,0.2-0.6,0.3
					c-1.3,0.8-2.6,1.9-3.8,3.3v0.1l0,0l0,0c1.3-1.4,2.6-2.6,3.8-3.3c0.2-0.1,0.4-0.2,0.6-0.3c0.7-0.4,1.4-0.6,2.1-0.8
					C35.1,36.5,35.2,36.5,35.4,36.3c0.3,0,0.5-0.1,0.8-0.2c0.3-0.1,0.5-0.2,0.8-0.4c0,0,0,0,0-0.1c0,0,0,0-0.1,0
					c-0.2,0.1-0.4,0.2-0.8,0.4C35.9,36.2,35.6,36.2,35.4,36.3z"/>
				<path class="st19" d="M37.7,36.2c-0.3,0.1-0.5,0.2-0.8,0.4c-0.3,0.1-0.5,0.2-0.8,0.3C35.9,37,35.8,37,35.6,37
					c-0.7,0.2-1.4,0.4-2.1,0.8c-0.2,0.1-0.4,0.2-0.6,0.3c-1.3,0.8-2.6,1.9-3.9,3.3v0.1l0,0l0,0c1.3-1.4,2.6-2.6,3.8-3.3
					c0.2-0.1,0.4-0.2,0.6-0.3c0.7-0.4,1.4-0.6,2.1-0.8c0.2,0,0.3-0.1,0.5-0.1c0.2-0.1,0.5-0.2,0.8-0.3
					C37.3,36.5,37.5,36.4,37.7,36.2C37.8,36.3,37.8,36.2,37.7,36.2C37.8,36.2,37.7,36.2,37.7,36.2z"/>
				<path class="st19" d="M10.6,38.6c0.2-0.1,0.3-0.3,0.5-0.4c0.7-0.6,1.3-1.2,2-1.7c0.2-0.1,0.4-0.2,0.6-0.4
					c1.2-0.7,2.5-1.2,3.7-1.3c0,0,0,0,0-0.1c0,0,0,0-0.1,0c-1.2,0.1-2.5,0.5-3.7,1.3c-0.2,0.1-0.4,0.2-0.6,0.4c-0.7,0.5-1.4,1-2,1.7
					C10.9,38.3,10.7,38.4,10.6,38.6c-0.4,0.2-0.7,0.4-0.9,0.7c-0.4,0.3-0.7,0.5-1,0.7c0,0,0,0,0,0.1l0,0l0,0c0.3-0.2,0.6-0.4,1-0.7
					S10.3,38.9,10.6,38.6z"/>
				<path class="st19" d="M11.5,39.1c0.2-0.1,0.3-0.3,0.5-0.4c0.7-0.6,1.3-1.2,2-1.7c0.2-0.1,0.4-0.2,0.6-0.4
					c1.2-0.7,2.5-1.2,3.7-1.2c0,0,0,0,0-0.1c0,0,0-0.1-0.1,0c-1.2,0.1-2.5,0.5-3.7,1.3c-0.2,0.1-0.4,0.2-0.6,0.4
					c-0.7,0.5-1.4,1-2,1.7C11.7,38.8,11.6,38.9,11.5,39.1c-0.4,0.2-0.7,0.4-0.9,0.7c-0.4,0.3-0.7,0.5-1,0.7c0,0,0,0,0,0.1l0,0l0,0
					c0.3-0.2,0.6-0.4,1-0.7C10.9,39.6,11.2,39.4,11.5,39.1z"/>
				<path class="st19" d="M12.3,39.6c0.2-0.1,0.3-0.3,0.5-0.4c0.7-0.6,1.3-1.2,2-1.7c0.2-0.1,0.4-0.3,0.6-0.4
					c1.2-0.7,2.4-1.2,3.6-1.2c0,0,0,0,0-0.1s0,0-0.1,0c-1.2,0.1-2.5,0.5-3.7,1.3c-0.2,0.1-0.4,0.2-0.6,0.4c-0.7,0.5-1.4,1-2,1.7
					C12.5,39.2,12.4,39.4,12.3,39.6c-0.4,0.2-0.7,0.4-0.9,0.7c-0.4,0.3-0.7,0.5-1,0.7c0,0,0,0,0,0.1l0,0l0,0c0.3-0.2,0.6-0.4,1-0.7
					C11.7,40.1,12,39.9,12.3,39.6z"/>
				<path class="st19" d="M13.1,40.1c0.2-0.1,0.3-0.3,0.5-0.4c0.7-0.6,1.3-1.2,2-1.7c0.2-0.1,0.4-0.3,0.6-0.4
					c1.2-0.7,2.4-1.1,3.6-1.2c0,0,0,0,0-0.1c0,0,0,0-0.1,0c-1.2,0.1-2.4,0.5-3.6,1.3c-0.2,0.1-0.4,0.2-0.6,0.4c-0.7,0.5-1.4,1-2,1.7
					C13.3,39.7,13.2,39.9,13.1,40.1c-0.4,0.2-0.6,0.4-0.9,0.7c-0.4,0.3-0.7,0.5-1,0.7c0,0,0,0,0,0.1l0,0l0,0c0.3-0.2,0.6-0.4,1-0.7
					C12.5,40.6,12.8,40.4,13.1,40.1z"/>
				<path class="st19" d="M13.9,40.6c0.2-0.1,0.3-0.3,0.5-0.4c0.7-0.6,1.3-1.2,2-1.7c0.2-0.1,0.4-0.3,0.6-0.4
					c1.2-0.7,2.4-1.1,3.6-1.2c0,0,0,0,0-0.1c0,0,0,0-0.1,0c-1.2,0.1-2.4,0.5-3.6,1.3c-0.2,0.1-0.4,0.2-0.6,0.4c-0.7,0.5-1.4,1-2,1.7
					C14.2,40.2,14,40.4,13.9,40.6c-0.4,0.2-0.6,0.4-0.9,0.7c-0.4,0.3-0.7,0.5-1,0.7c0,0,0,0,0,0.1l0,0l0,0c0.3-0.2,0.6-0.4,1-0.7
					C13.3,41.1,13.6,40.8,13.9,40.6z"/>
				<path class="st19" d="M14.7,41.1c0.2-0.1,0.3-0.3,0.5-0.4c0.7-0.6,1.3-1.2,2-1.7c0.2-0.1,0.4-0.3,0.6-0.4
					c1.2-0.7,2.4-1.1,3.5-1.2c0,0,0,0,0-0.1c0,0,0,0-0.1,0c-1.2,0.1-2.4,0.6-3.6,1.3c-0.2,0.1-0.4,0.2-0.6,0.4c-0.7,0.5-1.4,1-2,1.7
					C15,40.7,14.8,40.8,14.7,41.1c-0.4,0.2-0.6,0.4-0.9,0.7c-0.4,0.3-0.7,0.5-1,0.7c0,0,0,0,0,0.1l0,0l0,0c0.3-0.2,0.6-0.4,1-0.7
					S14.4,41.3,14.7,41.1z"/>
				<path class="st19" d="M15.6,41.5c0.2-0.1,0.3-0.3,0.5-0.4c0.7-0.6,1.3-1.2,2-1.7c0.2-0.1,0.4-0.3,0.6-0.4
					c1.1-0.7,2.4-1.1,3.5-1.2c0,0,0,0,0-0.1s0,0-0.1,0c-1.2,0.1-2.4,0.6-3.5,1.3c-0.2,0.1-0.4,0.2-0.6,0.4c-0.7,0.5-1.4,1-2,1.7
					C15.8,41.2,15.6,41.3,15.6,41.5c-0.4,0.2-0.6,0.4-0.9,0.7c-0.4,0.3-0.7,0.5-1,0.7c0,0,0,0,0,0.1l0,0l0,0c0.3-0.2,0.6-0.4,1-0.7
					C15,42.1,15.3,41.8,15.6,41.5z"/>
				<path class="st19" d="M16.4,42c0.2-0.1,0.3-0.3,0.5-0.4c0.7-0.6,1.3-1.2,2-1.7c0.2-0.1,0.4-0.3,0.6-0.4c1.1-0.7,2.3-1.1,3.5-1.2
					c0,0,0,0,0-0.1s0,0-0.1,0c-1.2,0.1-2.4,0.6-3.5,1.3c-0.2,0.1-0.4,0.2-0.6,0.4c-0.7,0.5-1.4,1-2.1,1.7
					C16.6,41.7,16.5,41.8,16.4,42c-0.4,0.2-0.6,0.4-0.9,0.7c-0.4,0.3-0.7,0.5-1,0.7c0,0,0,0,0,0.1l0,0l0,0c0.3-0.2,0.6-0.4,1.1-0.7
					C15.8,42.5,16.1,42.3,16.4,42z"/>
				<path class="st19" d="M17.2,42.5c0.2-0.1,0.3-0.3,0.5-0.4c0.7-0.6,1.4-1.2,2-1.7c0.2-0.1,0.4-0.3,0.6-0.4
					c1.1-0.7,2.3-1.1,3.4-1.2c0,0,0,0,0-0.1s0,0-0.1,0c-1.1,0.1-2.3,0.6-3.5,1.3c-0.2,0.1-0.4,0.2-0.6,0.4c-0.7,0.5-1.4,1-2.1,1.7
					C17.4,42.2,17.3,42.3,17.2,42.5c-0.4,0.2-0.6,0.4-0.9,0.6c-0.4,0.3-0.7,0.5-1.1,0.7c0,0,0,0,0,0.1l0,0l0,0
					c0.3-0.2,0.6-0.4,1.1-0.8C16.6,43,16.9,42.8,17.2,42.5z"/>
				<path class="st19" d="M18,43c0.2-0.1,0.3-0.3,0.5-0.4c0.7-0.6,1.4-1.2,2-1.7c0.2-0.1,0.4-0.3,0.6-0.4c1.1-0.7,2.3-1.1,3.4-1.2
					c0,0,0,0,0-0.1s0,0-0.1,0c-1.1,0.1-2.3,0.6-3.5,1.3c-0.2,0.1-0.4,0.2-0.6,0.4c-0.7,0.5-1.4,1.1-2.1,1.7
					C18.3,42.6,18.1,42.8,18,43c-0.4,0.2-0.6,0.4-0.9,0.6c-0.4,0.3-0.7,0.6-1.1,0.8c0,0,0,0,0,0.1l0,0l0,0c0.3-0.2,0.7-0.4,1.1-0.8
					C17.4,43.5,17.7,43.3,18,43z"/>
				<path class="st19" d="M18.8,43.5c0.2-0.1,0.3-0.3,0.5-0.4c0.7-0.6,1.4-1.2,2-1.7c0.2-0.1,0.4-0.3,0.6-0.4
					c1.1-0.7,2.3-1.1,3.4-1.2c0,0,0,0,0-0.1c0,0,0,0-0.1,0c-1.1,0.1-2.3,0.6-3.4,1.3c-0.2,0.1-0.4,0.2-0.6,0.4
					c-0.7,0.5-1.4,1.1-2.1,1.7C19.1,43.1,18.9,43.3,18.8,43.5c-0.4,0.2-0.6,0.4-0.9,0.6c-0.4,0.3-0.7,0.6-1.1,0.8c0,0,0,0,0,0.1l0,0
					l0,0c0.3-0.2,0.7-0.4,1.1-0.8C18.3,44,18.5,43.7,18.8,43.5z"/>
				<path class="st19" d="M19.6,44c0.2-0.1,0.3-0.3,0.5-0.4c0.7-0.6,1.4-1.2,2.1-1.7c0.2-0.1,0.4-0.3,0.6-0.4
					c1.1-0.7,2.3-1.1,3.4-1.2c0,0,0,0,0-0.1c0,0,0,0-0.1,0c-1.1,0.2-2.3,0.6-3.4,1.3c-0.2,0.1-0.4,0.2-0.6,0.4
					c-0.7,0.5-1.4,1.1-2.1,1.7C19.9,43.6,19.7,43.8,19.6,44c-0.4,0.2-0.6,0.4-0.9,0.6c-0.4,0.3-0.8,0.6-1.1,0.8c0,0,0,0,0,0.1l0,0
					l0,0c0.3-0.2,0.7-0.4,1.1-0.8C19.1,44.5,19.4,44.2,19.6,44z"/>
				<path class="st19" d="M20.5,44.5c0.2-0.1,0.3-0.3,0.5-0.4c0.7-0.6,1.4-1.2,2.1-1.7c0.2-0.1,0.4-0.3,0.6-0.4
					c1.1-0.7,2.2-1.1,3.3-1.2c0,0,0,0,0-0.1c0,0,0,0-0.1,0c-1.1,0.2-2.3,0.6-3.4,1.3c-0.2,0.1-0.4,0.2-0.6,0.4
					c-0.7,0.5-1.4,1.1-2.1,1.7C20.7,44.1,20.5,44.2,20.5,44.5c-0.4,0.2-0.6,0.4-0.9,0.6c-0.4,0.3-0.8,0.6-1.1,0.8c0,0,0,0,0,0.1l0,0
					l0,0c0.3-0.2,0.7-0.4,1.1-0.8C19.9,45,20.2,44.7,20.5,44.5z"/>
				<path class="st19" d="M21.3,44.9c0.2-0.1,0.3-0.3,0.5-0.4c0.7-0.7,1.4-1.2,2.1-1.7c0.2-0.1,0.4-0.3,0.6-0.4
					c1.1-0.6,2.2-1.1,3.3-1.2c0,0,0,0,0-0.1c0,0,0,0-0.1,0c-1.1,0.2-2.3,0.6-3.3,1.3c-0.2,0.1-0.4,0.2-0.6,0.4
					c-0.7,0.5-1.4,1.1-2.1,1.7C21.5,44.6,21.4,44.7,21.3,44.9c-0.4,0.2-0.6,0.4-0.9,0.6c-0.4,0.3-0.8,0.6-1.1,0.8c0,0,0,0,0,0.1l0,0
					l0,0c0.4-0.2,0.7-0.4,1.1-0.8C20.7,45.4,21,45.2,21.3,44.9z"/>
				<path class="st19" d="M25.2,42.8c-0.2,0.1-0.4,0.2-0.6,0.4c-0.7,0.5-1.4,1.1-2.1,1.7c-0.2,0.1-0.3,0.3-0.5,0.4
					c-0.3,0.3-0.6,0.5-0.9,0.7c-0.4,0.3-0.8,0.6-1.1,0.8c0,0,0,0,0,0.1l0,0l0,0c0.4-0.2,0.7-0.4,1.1-0.8c0.3-0.2,0.6-0.5,0.9-0.7
					c0.2-0.1,0.3-0.3,0.5-0.4c0.7-0.7,1.4-1.2,2.1-1.7C24.8,43.2,25,43,25.2,42.8c1.1-0.6,2.2-1,3.3-1.2c0,0,0,0,0-0.1
					c0,0,0,0-0.1,0C27.4,41.7,26.2,42.2,25.2,42.8z"/>
			</g>
		</g>
		<g>
			<g>
				<g>
					<g>
						<g class="st20">
							<g>
								<path class="st21" d="M29.1,41.9l-7.9-4.6l-0.1-0.1L29.1,41.9L29.1,41.9z"/>
							</g>
							<g>
								<path class="st22" d="M29.2,41.6c-0.1,0.1-0.1,0.1-0.1,0.2l-7.9-4.6l0.1-0.2L29.2,41.6z"/>
							</g>
							<g>
								<path class="st23" d="M29.4,41.5h-0.1c0,0-0.1,0-0.1,0.1l-8-4.6l0.2-0.1L29.4,41.5z"/>
							</g>
						</g>
					</g>
					<g>
						<polygon class="st24" points="30.3,42.2 30.3,42.3 30.3,42.3 30.3,42.3 30.2,42.3 30.3,42.3 						"/>
					</g>
					<path d="M30.3,42.2L30,42l0,0c0,0,0,0-0.1,0l-0.1,0.1l0,0L30.3,42.2C30.3,42.3,30.3,42.3,30.3,42.2
						C30.3,42.3,30.3,42.3,30.3,42.2z"/>
					<path class="st25" d="M21.7,37h-0.1l-0.1,0.1c0,0.1-0.1,0.1-0.1,0.2v0.1L21,37.1c0,0-0.1,0-0.1-0.1s0-0.1,0.1-0.2
						c0-0.1,0.1-0.1,0.1-0.1h0.1l0,0L21.7,37z"/>
					<path class="st26" d="M29.4,41.5L29.4,41.5L29.4,41.5z"/>
				</g>
				<path class="st27" d="M29.4,41.5L29.4,41.5L29.4,41.5c-0.1,0-0.2,0-0.2,0s0,0,0,0.1l0,0c0,0-0.1,0.1-0.1,0.2l0,0v0.1l0,0
					l0.8,0.3l0,0c0,0,0-0.1,0.1-0.1c0,0,0,0,0.1,0L29.4,41.5z"/>
			</g>
			
				<linearGradient id="SVGID_1_" gradientUnits="userSpaceOnUse" x1="21.7732" y1="3123.1643" x2="21.5925" y2="3123.4897" gradientTransform="matrix(1 0 0 1 0 -3086)">
				<stop  offset="0" style="stop-color:#78ACED"/>
				<stop  offset="1" style="stop-color:#4F7BB3"/>
			</linearGradient>
			<path class="st28" d="M22.1,37.3L22.1,37.3L22.1,37.3L21.7,37l0,0l0,0h-0.1l0,0h-0.1c-0.1,0-0.1,0.1-0.1,0.1
				c0,0.1-0.1,0.1-0.1,0.2c0,0,0,0.1,0.1,0.1h0.1l0,0l0,0l0.3,0.2l0,0l0,0l0.1,0.1l0,0l0,0l0,0c0,0,0,0,0-0.1l0,0v-0.1l0,0l0.1-0.1
				l0,0C22,37.3,22,37.2,22.1,37.3L22.1,37.3L22.1,37.3L22.1,37.3L22.1,37.3z"/>
		</g>
	</g>
</g>
<radialGradient id="Shadow_00000139261595991108608170000004779935630066727553_" cx="-1603.6619" cy="5865.9688" r="15.9018" gradientTransform="matrix(1.5353 0 0 0.4819 2487.1021 -2785.3105)" gradientUnits="userSpaceOnUse">
	<stop  offset="0.4351" style="stop-color:#B4BCC1"/>
	<stop  offset="0.94" style="stop-color:#ECEEEF;stop-opacity:0"/>
</radialGradient>
<ellipse id="Shadow" style="fill:url(#Shadow_00000139261595991108608170000004779935630066727553_);" cx="25" cy="41.5" rx="24.4" ry="7.7"/>
<g id="Board">
	<polygon class="st30" points="44.1,37.3 44.1,36.9 28.5,45.9 28.5,46.3 	"/>
	<polygon class="st31" points="5.9,33.3 5.9,32.9 28.5,45.9 28.5,46.3 	"/>
	<g>
		<polygon class="st32" points="28.486,45.832 5.9,32.792 21.514,23.777 44.1,36.817 		"/>
		<polygon class="st33" points="28.543,45.392 6.662,32.759 21.457,24.217 43.338,36.85 		"/>
		<path class="st34" d="M27.204,27.538c0,0-1.614,1.248-1.213,2.467s1.867,1.73,2.172,2.972s-0.816,2.76,0.852,4.514
			s3.375,1.868,4.263,2.582c0.719,0.578,0.843,1.402,1.1,1.95l3.22-1.859c0,0-0.683-1.245-1.914-1.985
			c-1.231-0.74-3.085-1.094-3.61-1.819c-0.526-0.725-0.076-2.46-0.223-3.379c-0.22-1.376-2.294-2.316-2.562-2.873
			c-0.218-0.454,0.359-1.157,0.359-1.157L27.204,27.538z"/>
		<path class="st34" d="M13.89,28.586c0.037-0.021,3.433,0.911,3.713,2.227c0.28,1.315-0.147,1.931,0.563,2.352
			s3.112,1.751,3.304,3.276s-2.181,3.608-2.181,3.608l-2.608-1.506c0,0,1.929-1.216,1.382-2.14s-2.354-1.421-3.231-2.144
			s-0.345-1.622-0.797-2.283c-0.614-0.898-3.292-1.568-3.292-1.568L13.89,28.586z"/>
		<path class="st35" d="M18.489,39.587c0,0,1.218-0.862,1.944-2.098c0.727-1.236-0.471-2.591-2.398-3.576s-0.803-1.871-1.404-2.948
			c-0.509-0.913-2.968-1.655-3.668-1.844l-1.525,0.886c0.486,0.139,1.864,0.507,2.629,0.949c1.154,0.666,0.726,1.506,1.004,2.573
			c0.277,1.066,2.677,1.462,3.416,2.837c0.739,1.375-1.335,2.45-1.335,2.45L18.489,39.587z"/>
		<path class="st35" d="M27.558,27.742c0,0-1.068,1.909-0.526,2.717c0.759,1.131,2.699,2.038,2.121,3.897
			c-0.578,1.859,0.328,3.341,1.816,3.972c1.488,0.631,2.893,1.096,3.615,1.759c0.761,0.699,0.931,1.277,0.931,1.277l1.413-0.783
			c0,0-0.752-1.273-1.503-1.675c-1.079-0.577-2.297-0.805-3.367-1.353c-1.319-0.676-1.605-1.685-1.403-2.619
			c0.165-0.764,0.475-2.002-0.033-2.797C30,31.16,28.28,30.623,28.237,29.764c-0.021-0.415,0.793-1.172,0.793-1.172L27.558,27.742z"
			/>
		<g>
			<path class="st36" d="M23.114,33.64l-2.193,0.321c0.206,0.433,0.455,0.862,0.743,1.272l2.244-0.457
				C23.561,34.371,23.304,33.991,23.114,33.64z"/>
			<path class="st36" d="M24.883,35.766l-2.201,0.66c0.363,0.339,0.794,0.669,1.237,0.993c0.48-0.199,1.486-0.614,1.979-0.815
				C25.549,36.333,25.206,36.054,24.883,35.766z"/>
			<path class="st36" d="M27.017,37.446l-1.89,0.855c0.346,0.263,0.663,0.524,0.919,0.785l2.134-0.751
				C27.833,38.053,27.435,37.757,27.017,37.446z"/>
			<path class="st36" d="M22.608,28.912l-2.623,0.258c0.096,0.361,0.169,0.758,0.211,1.183l2.438-0.164
				C22.664,29.768,22.677,29.349,22.608,28.912z"/>
			<path class="st36" d="M22.559,31.539c0-0.017,0-0.033,0-0.049l-2.311,0.141c0.028,0.362,0.101,0.75,0.218,1.151l2.196-0.307
				C22.571,32.075,22.562,31.756,22.559,31.539z"/>
			<path class="st36" d="M21.177,26.194l-2.152,0.858c0.174,0.248,0.372,0.579,0.557,0.987l2.432-0.671
				C21.788,26.98,21.501,26.57,21.177,26.194z"/>
			<path class="st36" d="M26.275,44.116c0.407-0.345,1.144-1.001,1.801-1.739l-2.234-0.557c-0.521,0.564-1.147,1.029-1.424,1.224
				L26.275,44.116z"/>
			<path class="st36" d="M29.393,39.804c-0.018-0.118-0.068-0.241-0.143-0.367l-2.604,0.617c0.011,0.056,0.019,0.113,0.02,0.169
				c0.004,0.197-0.048,0.4-0.135,0.602l2.593,0.103C29.334,40.525,29.445,40.138,29.393,39.804z"/>
			<path class="st37" d="M19.929,25.105l-1.922,1.11c0.387,0.254,0.821,0.564,0.965,0.761c0.018,0.024,0.036,0.051,0.054,0.077
				l2.152-0.858C20.799,25.754,20.37,25.36,19.929,25.105z"/>
			<path class="st37" d="M22.345,28.01c-0.086-0.198-0.199-0.416-0.331-0.642l-2.432,0.671c0.149,0.329,0.29,0.707,0.403,1.131
				l2.623-0.258C22.563,28.622,22.482,28.323,22.345,28.01z"/>
			<path class="st37" d="M22.634,30.189l-2.438,0.164c0.029,0.288,0.044,0.589,0.039,0.905c-0.002,0.12,0.004,0.245,0.014,0.372
				l2.311-0.141C22.558,31.039,22.604,30.612,22.634,30.189z"/>
			<path class="st37" d="M22.662,32.475l-2.196,0.307c0.113,0.387,0.265,0.784,0.454,1.179l2.193-0.321
				C22.875,33.201,22.739,32.809,22.662,32.475z"/>
			<path class="st37" d="M24.402,35.314c-0.184-0.184-0.346-0.362-0.495-0.538l-2.244,0.457c0.221,0.316,0.465,0.62,0.729,0.904
				c0.09,0.097,0.188,0.193,0.29,0.288l2.201-0.66C24.717,35.618,24.555,35.467,24.402,35.314z"/>
			<path class="st37" d="M25.898,36.604c-0.493,0.2-1.499,0.616-1.979,0.815c0.408,0.299,0.825,0.593,1.208,0.884l1.89-0.855
				C26.652,37.176,26.273,36.895,25.898,36.604z"/>
			<path class="st37" d="M28.18,38.335l-2.134,0.751c0.317,0.322,0.537,0.644,0.601,0.967l2.604-0.617
				C29.05,39.098,28.666,38.731,28.18,38.335z"/>
			<path class="st37" d="M29.125,40.929l-2.593-0.103c-0.148,0.343-0.402,0.683-0.69,0.995l2.234,0.557
				C28.493,41.909,28.877,41.407,29.125,40.929z"/>
		</g>
		<g>
			<path class="st36" d="M29.923,34.49l-1.305,1.21c0.531,0.223,1.067,0.455,1.619,0.659l1.132-1.323
				C30.881,34.876,30.398,34.683,29.923,34.49z"/>
			<path class="st36" d="M15.126,33.812c-0.144-0.058-0.315-0.11-0.504-0.156l-0.912,1.275c0.475,0.16,0.906,0.3,1.304,0.421
				l1.02-1.195C15.735,34.057,15.438,33.938,15.126,33.812z"/>
			<path class="st36" d="M27.915,33.748c-0.685-0.19-1.492-0.269-2.341-0.277l0.053,1.368c0.501,0.044,0.997,0.135,1.481,0.286
				c0.217-0.289,0.775-1.044,0.914-1.346C27.986,33.769,27.951,33.758,27.915,33.748z"/>
			<path class="st36" d="M20.906,33.936l0.753,1.29c0.74-0.169,1.514-0.312,2.297-0.38l-0.86-1.232
				C22.322,33.701,21.574,33.817,20.906,33.936z"/>
			<path class="st36" d="M17.44,34.443l-0.198,1.422c0.799,0.095,1.527,0.053,2.371-0.131L18.93,34.33
				C18.36,34.437,17.875,34.468,17.44,34.443z"/>
			<path class="st36" d="M34.078,35.36c-0.395,0.065-0.793,0.067-1.192,0.023l-0.827,1.484c0.856,0.147,1.773,0.159,2.785-0.07
				l-0.325-1.526C34.367,35.307,34.219,35.337,34.078,35.36z"/>
			<path class="st36" d="M9.04,34.132l1.723,0.995c0.413-0.09,0.88-0.212,1.402-0.282l-0.286-1.328
				C10.987,33.597,10.045,33.78,9.04,34.132z"/>
			<path class="st36" d="M39.808,34.797l-1.639-0.929c-0.612,0.319-1.392,0.666-2.171,0.95l1.21,1.216
				C38.299,35.604,39.193,35.145,39.808,34.797z"/>
			<path class="st37" d="M19.177,34.281c-0.085,0.019-0.166,0.034-0.247,0.049l0.683,1.404c0.153-0.033,0.309-0.071,0.47-0.113
				c0.499-0.131,1.028-0.27,1.575-0.395l-0.753-1.29C20.227,34.058,19.631,34.182,19.177,34.281z"/>
			<path class="st37" d="M16.034,34.157l-1.02,1.195c0.862,0.262,1.57,0.434,2.229,0.513l0.198-1.422
				C16.923,34.413,16.474,34.305,16.034,34.157z"/>
			<path class="st37" d="M11.879,33.516l0.286,1.328c0.522-0.07,1.056-0.078,1.518,0.077c0.009,0.003,0.018,0.006,0.026,0.009
				l0.912-1.275C13.938,33.491,12.979,33.418,11.879,33.516z"/>
			<path class="st37" d="M23.096,33.614l0.86,1.232c0.556-0.048,1.116-0.055,1.671-0.007l-0.053-1.368
				C24.765,33.464,23.917,33.522,23.096,33.614z"/>
			<path class="st37" d="M28.022,33.779c-0.139,0.302-0.697,1.057-0.914,1.346c0.055,0.017,0.11,0.031,0.164,0.049
				c0.45,0.154,0.896,0.336,1.346,0.525l1.305-1.21C29.268,34.223,28.631,33.957,28.022,33.779z"/>
			<path class="st37" d="M31.369,35.035l-1.132,1.323c0.584,0.215,1.187,0.399,1.823,0.508l0.827-1.484
				C32.38,35.328,31.872,35.199,31.369,35.035z"/>
			<path class="st37" d="M37.208,36.035l-1.21-1.216c-0.509,0.186-1.018,0.345-1.479,0.452l0.325,1.526
				c0.117-0.026,0.235-0.055,0.355-0.088C35.923,36.509,36.596,36.276,37.208,36.035z"/>
		</g>
	</g>
	<polygon class="st31" points="5.9,33.198 5.9,32.792 28.492,45.829 28.492,46.235 	"/>
	<polygon class="st30" points="44.1,37.223 44.1,36.817 28.492,45.829 28.492,46.235 	"/>
	<g>
		<path class="st37" d="M20.659,29.633c0-0.234,0.352-0.424,0.792-0.424s0.802,0.19,0.802,0.424s-0.362,0.424-0.802,0.424
			C21.01,30.057,20.659,29.867,20.659,29.633z"/>
		<path class="st38" d="M21.035,29.633c0-0.124,0.186-0.224,0.418-0.224c0.232,0,0.424,0.1,0.424,0.224s-0.191,0.224-0.424,0.224
			S21.035,29.756,21.035,29.633z"/>
	</g>
	<g>
		<path class="st37" d="M32.73,36.15c0-0.234,0.352-0.424,0.792-0.424s0.802,0.19,0.802,0.424s-0.362,0.424-0.802,0.424
			S32.73,36.384,32.73,36.15z"/>
		<path class="st38" d="M33.106,36.15c0-0.124,0.186-0.224,0.418-0.224c0.233,0,0.424,0.1,0.424,0.224s-0.191,0.224-0.424,0.224
			C33.292,36.374,33.106,36.274,33.106,36.15z"/>
	</g>
	<g>
		<path class="st37" d="M23.565,36.554c0-0.234,0.352-0.424,0.792-0.424s0.802,0.19,0.802,0.424s-0.362,0.424-0.802,0.424
			C23.916,36.978,23.565,36.788,23.565,36.554z"/>
		<path class="st38" d="M23.94,36.554c0-0.124,0.186-0.224,0.418-0.224s0.424,0.1,0.424,0.224s-0.191,0.224-0.424,0.224
			S23.94,36.678,23.94,36.554z"/>
	</g>
	<g>
		<path class="st37" d="M17.562,35.122c0-0.234,0.352-0.424,0.792-0.424s0.802,0.19,0.802,0.424s-0.362,0.424-0.802,0.424
			S17.562,35.356,17.562,35.122z"/>
		<path class="st38" d="M17.938,35.122c0-0.124,0.186-0.224,0.418-0.224c0.232,0,0.424,0.1,0.424,0.224s-0.191,0.224-0.424,0.224
			C18.124,35.346,17.938,35.246,17.938,35.122z"/>
	</g>
	<path id="Yellow_Cone" class="st39" d="M19.6,27.3c0,0.1,0.4,0.2,0.9,0.2s0.9-0.1,0.9-0.2L20.5,24L19.6,27.3z"/>
	<path id="Red_Cone" class="st38" d="M25.2,43.2c0,0.1,0.4,0.2,0.9,0.2s0.9-0.1,0.9-0.2l-0.9-3.3C26.1,39.8,25.2,43.2,25.2,43.2z"/>
	<path id="Blue_Cone" class="st40" d="M34.8,36c0,0.1,0.4,0.2,0.9,0.2s0.9-0.1,0.9-0.2l-0.9-3.3L34.8,36z"/>
	<g>
		<polygon class="st41" points="38.987,30.872 37.749,31.586 37.749,29.936 38.987,29.221 		"/>
		<polygon class="st38" points="36.511,30.872 37.749,31.586 37.749,29.936 36.511,29.221 		"/>
		<polygon class="st42" points="38.987,29.221 37.749,28.507 36.511,29.221 37.749,29.936 		"/>
		<ellipse class="st36" cx="37.749" cy="29.159" rx="0.233" ry="0.124"/>
		<path class="st36" d="M38.247,30.136c0,0.097-0.059,0.21-0.132,0.253c-0.073,0.042-0.132-0.003-0.132-0.1s0.059-0.21,0.132-0.253
			C38.188,29.993,38.247,30.038,38.247,30.136z"/>
		<path class="st36" d="M38.832,29.8c0,0.097-0.059,0.21-0.132,0.253c-0.073,0.042-0.132-0.003-0.132-0.1s0.059-0.21,0.132-0.253
			C38.773,29.658,38.832,29.703,38.832,29.8z"/>
		<path class="st36" d="M38.247,30.855c0,0.097-0.059,0.21-0.132,0.253c-0.073,0.042-0.132-0.003-0.132-0.1s0.059-0.21,0.132-0.253
			C38.188,30.713,38.247,30.758,38.247,30.855z"/>
		<path class="st36" d="M38.832,30.52c0,0.097-0.059,0.21-0.132,0.253c-0.073,0.042-0.132-0.003-0.132-0.1s0.059-0.21,0.132-0.253
			C38.773,30.378,38.832,30.422,38.832,30.52z"/>
		<path class="st36" d="M36.705,29.8c0,0.097,0.059,0.21,0.132,0.253c0.073,0.042,0.132-0.003,0.132-0.1s-0.059-0.21-0.132-0.253
			C36.765,29.658,36.705,29.703,36.705,29.8z"/>
		<path class="st36" d="M37.291,30.855c0,0.097,0.059,0.21,0.132,0.253c0.073,0.042,0.132-0.003,0.132-0.1s-0.059-0.21-0.132-0.253
			C37.35,30.713,37.291,30.758,37.291,30.855z"/>
	</g>
	<g>
		<polygon class="st34" points="14.479,26.817 13.242,27.532 13.242,25.882 14.479,25.167 		"/>
		<polygon class="st33" points="12.004,26.817 13.242,27.532 13.242,25.882 12.004,25.167 		"/>
		<polygon class="st43" points="14.479,25.167 13.242,24.452 12.004,25.167 13.242,25.882 		"/>
		<ellipse class="st36" cx="13.242" cy="25.105" rx="0.233" ry="0.124"/>
		<path class="st36" d="M14.051,26.274c0,0.097-0.059,0.21-0.132,0.253c-0.073,0.042-0.132-0.003-0.132-0.1s0.059-0.21,0.132-0.253
			C13.992,26.132,14.051,26.177,14.051,26.274z"/>
		<path class="st36" d="M14.325,25.746c0,0.097-0.059,0.21-0.132,0.253c-0.073,0.042-0.132-0.003-0.132-0.1s0.059-0.21,0.132-0.253
			C14.265,25.603,14.325,25.648,14.325,25.746z"/>
		<path class="st36" d="M13.739,26.801c0,0.097-0.059,0.21-0.132,0.253c-0.073,0.042-0.132-0.003-0.132-0.1s0.059-0.21,0.132-0.253
			C13.68,26.659,13.739,26.704,13.739,26.801z"/>
		<path class="st36" d="M12.198,25.65c0,0.097,0.059,0.21,0.132,0.253c0.073,0.042,0.132-0.003,0.132-0.1s-0.059-0.21-0.132-0.253
			C12.257,25.507,12.198,25.552,12.198,25.65z"/>
		<path class="st36" d="M12.198,26.13c0,0.097,0.059,0.21,0.132,0.253c0.073,0.042,0.132-0.003,0.132-0.1s-0.059-0.21-0.132-0.253
			C12.257,25.988,12.198,26.033,12.198,26.13z"/>
		<path class="st36" d="M12.198,26.609c0,0.097,0.059,0.21,0.132,0.253c0.073,0.042,0.132-0.003,0.132-0.1s-0.059-0.21-0.132-0.253
			C12.257,26.467,12.198,26.511,12.198,26.609z"/>
		<path class="st36" d="M12.785,25.986c0,0.097,0.059,0.21,0.132,0.253c0.073,0.042,0.132-0.003,0.132-0.1s-0.059-0.21-0.132-0.253
			C12.844,25.844,12.785,25.888,12.785,25.986z"/>
		<path class="st36" d="M12.785,26.466c0,0.097,0.059,0.21,0.132,0.253c0.073,0.042,0.132-0.003,0.132-0.1s-0.059-0.21-0.132-0.253
			C12.844,26.324,12.785,26.369,12.785,26.466z"/>
		<path class="st36" d="M12.785,26.945c0,0.097,0.059,0.21,0.132,0.253c0.073,0.042,0.132-0.003,0.132-0.1s-0.059-0.21-0.132-0.253
			C12.844,26.803,12.785,26.848,12.785,26.945z"/>
	</g>
	<g>
		<polygon class="st44" points="29.972,23.936 28.734,24.651 28.734,23.001 29.972,22.286 		"/>
		<polygon class="st31" points="27.497,23.936 28.734,24.651 28.734,23.001 27.497,22.286 		"/>
		<polygon class="st32" points="29.972,22.286 28.734,21.571 27.497,22.286 28.734,23.001 		"/>
		<path class="st36" d="M27.99,22.286c0-0.069,0.104-0.124,0.233-0.124s0.233,0.056,0.233,0.124c0,0.069-0.104,0.124-0.233,0.124
			S27.99,22.354,27.99,22.286z"/>
		<path class="st36" d="M29.04,22.286c0-0.069,0.104-0.124,0.233-0.124s0.233,0.056,0.233,0.124c0,0.069-0.104,0.124-0.233,0.124
			S29.04,22.354,29.04,22.286z"/>
		<path class="st36" d="M29.232,23.2c0,0.097-0.059,0.21-0.132,0.253c-0.073,0.042-0.132-0.003-0.132-0.1s0.059-0.21,0.132-0.253
			C29.173,23.058,29.232,23.103,29.232,23.2z"/>
		<path class="st36" d="M29.817,22.864c0,0.097-0.059,0.21-0.132,0.253c-0.073,0.042-0.132-0.003-0.132-0.1s0.059-0.21,0.132-0.253
			C29.758,22.722,29.817,22.767,29.817,22.864z"/>
		<path class="st36" d="M29.232,23.92c0,0.097-0.059,0.21-0.132,0.253c-0.073,0.042-0.132-0.003-0.132-0.1s0.059-0.21,0.132-0.253
			C29.173,23.778,29.232,23.822,29.232,23.92z"/>
		<path class="st36" d="M29.538,23.392c0,0.097-0.059,0.21-0.132,0.253c-0.073,0.042-0.132-0.003-0.132-0.1s0.059-0.21,0.132-0.253
			C29.479,23.25,29.538,23.295,29.538,23.392z"/>
		<path class="st36" d="M29.817,23.584c0,0.097-0.059,0.21-0.132,0.253c-0.073,0.042-0.132-0.003-0.132-0.1s0.059-0.21,0.132-0.253
			C29.758,23.442,29.817,23.487,29.817,23.584z"/>
		<path class="st36" d="M27.691,22.864c0,0.097,0.059,0.21,0.132,0.253c0.073,0.042,0.132-0.003,0.132-0.1s-0.059-0.21-0.132-0.253
			C27.75,22.722,27.691,22.767,27.691,22.864z"/>
		<path class="st36" d="M28.276,23.92c0,0.097,0.059,0.21,0.132,0.253c0.073,0.042,0.132-0.003,0.132-0.1s-0.059-0.21-0.132-0.253
			C28.335,23.778,28.276,23.822,28.276,23.92z"/>
		<path class="st36" d="M27.955,23.392c0,0.097,0.059,0.21,0.132,0.253c0.073,0.042,0.132-0.003,0.132-0.1s-0.059-0.21-0.132-0.253
			C28.014,23.25,27.955,23.295,27.955,23.392z"/>
	</g>
</g>
</svg>
