<svg xmlns="http://www.w3.org/2000/svg" xmlns:xlink="http://www.w3.org/1999/xlink" viewBox="0 0 300 300">

<circle class="offwhite-fill" filter="url(#dropshadow)" cx="150" cy="150" r="150"/>
<path class="offwhite-fill" filter="url(#dropshadow)" d="M149.984,109.767c-22.247,0-40.281,18.035-40.281,40.281s18.035,40.281,40.281,40.281s40.281-18.035,40.281-40.281 S172.232,109.767,149.984,109.767z"/>

<g title="home" class="refine-filter">
	<path class="filter-option"  filter="url(#dropshadow)" d="M142.951,13.768c-1.345-1.227-3.097-1.9-4.904-1.9c-0.215,0-0.43,0.009-0.646,0.029
		C102.878,14.97,70.896,30.73,47.347,56.275c-23.695,25.703-36.744,59.102-36.744,94.045c0,20.324,4.309,39.926,12.806,58.261
		c0.857,1.848,2.453,3.252,4.399,3.867c0.718,0.227,1.458,0.339,2.196,0.339c1.263,0,2.517-0.328,3.633-0.971l63.585-36.621
		c2.983-1.719,4.347-5.291,3.265-8.554c-1.75-5.278-2.638-10.769-2.638-16.322c0-24.606,17.514-46.017,41.644-50.91
		c3.386-0.687,5.819-3.656,5.819-7.103v-73.19C145.312,17.082,144.455,15.141,142.951,13.768z"/>
		<path class="filter-title" d="M43.933,100.808c0.939,0.951,2.106,0.954,3.041,0.007c4.903-4.965,9.806-9.931,14.708-14.898
			c0.112-0.113,0.203-0.247,0.371-0.455c0.157,0.193,0.24,0.315,0.342,0.418c4.939,5.005,9.879,10.008,14.821,15.011
			c0.8,0.81,1.991,0.816,2.764,0.021c0.371-0.382,0.742-0.764,1.112-1.147c0.794-0.823,0.795-2.064-0.012-2.882
			c-5.874-5.953-11.75-11.904-17.628-17.854c-0.808-0.818-2.042-0.821-2.842-0.008c-5.887,5.978-11.772,11.958-17.654,17.941
			c-0.789,0.802-0.784,2.046-0.005,2.85C43.275,100.148,43.605,100.477,43.933,100.808z M61.314,119.459
			c0.034,0.398,0.349,0.698,0.739,0.704c0.39,0.006,0.72-0.29,0.759-0.684c0.091-0.916,0.307-1.12,1.2-1.121
			c2.731-0.001,5.462,0,8.193-0.001c1.232,0,2.018-0.793,2.019-2.038c0.001-4.742,0.001-9.483,0-14.225
			c0-1.242-0.789-2.033-2.024-2.034c-2.622-0.002-5.244,0.016-7.865-0.01c-0.852-0.008-1.608,0.16-2.261,0.813
			c-0.556-0.485-1.126-0.812-1.839-0.81c-2.762,0.006-5.524,0.005-8.287,0.008c-1.264,0.001-2.045,0.786-2.045,2.061
			c-0.001,4.726-0.001,9.452,0,14.177c0,1.277,0.778,2.059,2.045,2.059c2.731,0,5.462-0.001,8.193,0
			C60.997,118.359,61.239,118.59,61.314,119.459z M71.008,114.46c-2.135,0.005-4.269,0.005-6.404,0
			c-0.56-0.001-0.877-0.286-0.878-0.758c-0.002-0.475,0.31-0.75,0.874-0.753c1.075-0.004,2.15-0.001,3.225-0.001
			c1.059,0,2.119-0.003,3.178,0.001c0.553,0.002,0.887,0.289,0.888,0.747C71.893,114.151,71.551,114.459,71.008,114.46z
			 M63.726,110.678c0.001-0.47,0.321-0.753,0.879-0.754c2.135-0.003,4.27-0.004,6.404,0c0.544,0.001,0.885,0.304,0.883,0.76
			c-0.002,0.458-0.339,0.749-0.888,0.751c-1.075,0.004-2.15,0.001-3.225,0.001c-1.06,0-2.119,0.003-3.179-0.001
			C64.043,111.434,63.725,111.152,63.726,110.678z M64.635,103.827c1.059-0.004,2.118-0.001,3.178-0.001
			c1.059,0,2.118-0.003,3.178,0.002c0.561,0.003,0.893,0.279,0.902,0.733c0.009,0.463-0.346,0.775-0.92,0.776
			c-2.118,0.005-4.237,0.006-6.355,0c-0.572-0.002-0.884-0.276-0.892-0.746C63.717,104.103,64.038,103.829,64.635,103.827z
			 M64.626,106.903c2.119-0.005,4.237-0.005,6.356,0c0.565,0.001,0.925,0.322,0.91,0.786c-0.015,0.454-0.347,0.723-0.91,0.725
			c-1.059,0.003-2.119,0.001-3.178,0.001c-1.059,0-2.119,0.002-3.178-0.001c-0.575-0.002-0.889-0.26-0.901-0.726
			C63.713,107.2,64.042,106.904,64.626,106.903z M53.301,104.039c1.06-0.003,2.119-0.001,3.179-0.001
			c1.044,0,2.088-0.001,3.132,0.001c0.594,0.001,0.937,0.273,0.946,0.742s-0.342,0.771-0.919,0.772c-2.119,0.003-4.238,0.003-6.357,0
			c-0.561-0.001-0.883-0.278-0.891-0.744C52.383,104.326,52.714,104.041,53.301,104.039z M59.671,114.669
			c-1.059,0.005-2.119,0.001-3.178,0.001c-1.075,0-2.15,0.003-3.225-0.001c-0.564-0.002-0.878-0.277-0.876-0.75
			c0.002-0.47,0.321-0.759,0.877-0.76c2.134-0.005,4.269-0.005,6.403,0c0.542,0.001,0.887,0.309,0.886,0.761
			C60.557,114.379,60.225,114.666,59.671,114.669z M59.678,111.587c-2.134,0.007-4.268,0.007-6.401,0.001
			c-0.567-0.001-0.88-0.281-0.886-0.75c-0.005-0.486,0.312-0.753,0.917-0.756c1.059-0.004,2.118-0.001,3.177-0.001
			s2.118-0.003,3.177,0.002c0.556,0.003,0.891,0.286,0.896,0.739C60.564,111.27,60.221,111.585,59.678,111.587z M59.647,108.575
			c-2.119,0.004-4.237,0.004-6.356-0.001c-0.584-0.001-0.912-0.298-0.9-0.785c0.012-0.465,0.327-0.723,0.902-0.725
			c1.059-0.003,2.119-0.001,3.178-0.001c1.059,0,2.119-0.003,3.178,0.001c0.563,0.002,0.895,0.272,0.91,0.726
			C60.574,108.252,60.212,108.574,59.647,108.575z M47.61,129.248h-4.039v-4.516h-2.742v11.375h2.742v-4.75h4.039v4.75h2.727v-11.375
			H47.61V129.248z M55.288,127.498c-0.828,0-1.549,0.177-2.164,0.531c-0.615,0.354-1.086,0.861-1.414,1.519
			c-0.328,0.659-0.492,1.41-0.492,2.254l0.008,0.445c0.057,1.234,0.451,2.212,1.18,2.934c0.729,0.721,1.695,1.082,2.898,1.082
			c1.25,0,2.241-0.387,2.973-1.16c0.732-0.773,1.098-1.819,1.098-3.137v-0.094c0-1.349-0.365-2.415-1.094-3.199
			C57.551,127.89,56.554,127.498,55.288,127.498z M56.741,132.068c-0.021,1.443-0.5,2.164-1.438,2.164
			c-0.479,0-0.841-0.182-1.086-0.547c-0.245-0.365-0.367-0.938-0.367-1.719l0.008-0.477c0.073-1.307,0.549-1.961,1.43-1.961
			c0.969,0,1.453,0.758,1.453,2.273V132.068z M69.771,127.498c-1.083,0-1.911,0.424-2.484,1.273
			c-0.375-0.849-1.096-1.273-2.164-1.273c-1.01,0-1.815,0.383-2.414,1.148l-0.086-0.992h-2.469v8.453h2.633v-5.883
			c0.266-0.464,0.651-0.695,1.156-0.695c0.396,0,0.664,0.099,0.805,0.297s0.211,0.518,0.211,0.961v5.32H67.6v-5.773l-0.008-0.109
			c0.255-0.464,0.643-0.695,1.164-0.695c0.385,0,0.651,0.099,0.797,0.297s0.219,0.513,0.219,0.945v5.336h2.641v-5.5
			C72.364,128.534,71.484,127.498,69.771,127.498z M77.324,127.498c-0.844,0-1.573,0.181-2.188,0.543
			c-0.615,0.362-1.082,0.874-1.402,1.535c-0.32,0.661-0.481,1.424-0.481,2.289v0.219c0,1.24,0.401,2.246,1.203,3.019
			c0.802,0.773,1.852,1.16,3.148,1.16c0.693,0,1.34-0.134,1.941-0.402c0.602-0.268,1.066-0.629,1.395-1.082l-1.203-1.422
			c-0.469,0.583-1.12,0.875-1.953,0.875c-0.505,0-0.917-0.135-1.234-0.406c-0.318-0.271-0.523-0.643-0.617-1.117h5.234v-1.023
			c0-1.318-0.344-2.345-1.031-3.082C79.449,127.866,78.511,127.498,77.324,127.498z M78.589,131.06h-2.656
			c0.146-1.021,0.604-1.531,1.375-1.531c0.417,0,0.737,0.116,0.961,0.348c0.224,0.232,0.331,0.559,0.32,0.98V131.06z"/>
</g>

<g title="hybrid" class="refine-filter">
		<path class="filter-option"  filter="url(#dropshadow)" d="M253.409,57.251c-22.947-25.369-54.256-41.378-88.16-45.08c-0.264-0.029-0.528-0.043-0.791-0.043
			c-1.781,0-3.51,0.653-4.85,1.852c-1.537,1.375-2.416,3.337-2.416,5.397v73.534c0,3.322,2.263,6.218,5.493,7.029
			c23.156,5.813,39.328,26.53,39.328,50.38c0,5.435-0.847,10.81-2.519,15.974c-1.052,3.252,0.315,6.795,3.282,8.504l63.625,36.644
			c1.116,0.643,2.371,0.971,3.634,0.971c0.742,0,1.486-0.113,2.207-0.343c1.949-0.62,3.545-2.03,4.398-3.885
			c8.375-18.221,12.622-37.69,12.622-57.866C289.261,115.864,276.529,82.811,253.409,57.251z"/>
		<path class="filter-title" d="M228.318,120.31l2.019-4.093h15.591c4.996,0,8.604-1.19,10.724-3.535c2.125-2.351,1.89-4.988,1.879-5.099
			c-0.062-0.627-0.588-1.104-1.217-1.104h-2.663V83.817c0-0.677-0.548-1.225-1.223-1.225h-6.501l1.361-2.759
			c0.299-0.607,0.051-1.342-0.554-1.642c-0.605-0.3-1.339-0.051-1.638,0.555l-1.897,3.845h-24.841c-0.675,0-1.223,0.549-1.223,1.225
			v5.795c0,0.677,0.548,1.225,1.223,1.225s1.223-0.549,1.223-1.225v-4.57h22.409l-0.935,1.896h-13.84
			c-0.675,0-1.223,0.549-1.223,1.225c0,0.677,0.548,1.225,1.223,1.225h12.63l-0.876,1.775h-9.947c-0.675,0-1.223,0.549-1.223,1.225
			c0,0.677,0.548,1.225,1.223,1.225h8.738l-0.876,1.775h-7.41c-0.675,0-1.223,0.549-1.223,1.225s0.548,1.226,1.223,1.226h6.201
			l-0.876,1.775h-4.6c-0.675,0-1.223,0.549-1.223,1.225s0.548,1.225,1.223,1.225h3.391l-3.028,6.136
			c-0.604-1.142-1.573-2.044-2.93-2.678c-0.879-0.41-1.819-0.458-2.766-0.458c-0.075,0-0.151,0-0.226,0.001
			c-0.341,0.002-0.638,0.067-0.94,0.236c-1.358,0.759-2.728,1.497-4.099,2.245c-1.397-0.763-2.794-1.527-4.193-2.289
			c-0.128-0.07-0.264-0.173-0.398-0.176c-0.296-0.007-0.593-0.015-0.89-0.015c-0.869,0-1.73,0.071-2.544,0.454
			c-2.384,1.125-3.585,3.042-3.676,5.66c-0.038,1.081-0.008,2.164-0.007,3.246c0,0.108,0.014,3.518,0.021,3.621h17.788l-0.579,1.174
			c-0.299,0.607-0.051,1.342,0.554,1.642c0.174,0.086,0.359,0.127,0.541,0.127C227.671,120.992,228.104,120.742,228.318,120.31z
			 M245.719,85.043h6.487v21.436h-2.073V88.617c0-0.677-0.548-1.226-1.223-1.226h-4.35L245.719,85.043z M232.673,111.482h1.606
			c0.324,0,0.635-0.129,0.865-0.359l2.189-2.193h18.64c-0.151,0.612-0.477,1.397-1.172,2.149c-1.623,1.758-4.691,2.688-8.873,2.688
			h-14.382L232.673,111.482z M220.597,104.155h0.015c3.393-0.008,6.152-2.777,6.157-6.177c0.005-3.404-2.748-6.18-6.138-6.189
			h-0.018c-3.411,0-6.165,2.754-6.168,6.171C214.442,101.38,217.2,104.155,220.597,104.155z M224.337,128.494h-4.039v-4.516h-2.742
			v11.375h2.742v-4.75h4.039v4.75h2.727v-11.375h-2.727V128.494z M231.655,131.666l-1.336-4.766h-2.812l2.937,8.538l-0.211,0.563
			c-0.094,0.276-0.238,0.468-0.434,0.575c-0.195,0.107-0.478,0.16-0.848,0.16h-0.344v1.876c0.38,0.104,0.742,0.156,1.086,0.156
			c1.24,0,2.104-0.547,2.594-1.641l0.148-0.359l3.445-9.867h-2.82L231.655,131.666z M240.716,126.744
			c-0.776,0-1.409,0.279-1.898,0.836v-4.227h-2.633v12h2.359l0.109-0.867c0.526,0.682,1.219,1.023,2.078,1.023
			c1.042,0,1.849-0.372,2.422-1.117c0.573-0.745,0.859-1.81,0.859-3.195v-0.133c0-1.37-0.286-2.432-0.859-3.188
			C242.58,127.122,241.768,126.744,240.716,126.744z M241.247,132.574c-0.167,0.603-0.56,0.905-1.18,0.905
			c-0.609,0-1.026-0.224-1.25-0.671v-3.354c0.229-0.452,0.641-0.679,1.234-0.679c0.448,0,0.78,0.173,0.996,0.519
			s0.324,0.924,0.324,1.735C241.372,131.763,241.33,132.278,241.247,132.574z M247.347,127.987l-0.086-1.086h-2.469v8.453h2.633
			v-5.352c0.234-0.521,0.766-0.781,1.594-0.781l0.867,0.062l0.047-2.445c-0.208-0.062-0.453-0.094-0.734-0.094
			C248.407,126.744,247.79,127.158,247.347,127.987z M251.877,123.44c-0.432,0-0.784,0.12-1.055,0.359
			c-0.271,0.24-0.406,0.547-0.406,0.922s0.135,0.682,0.406,0.922c0.271,0.24,0.622,0.359,1.055,0.359s0.784-0.12,1.055-0.359
			c0.271-0.24,0.406-0.547,0.406-0.922s-0.135-0.682-0.406-0.922C252.66,123.56,252.309,123.44,251.877,123.44z M250.572,135.354
			h2.641v-8.453h-2.641V135.354z M259.297,123.354v4.281c-0.516-0.594-1.151-0.891-1.906-0.891c-1.036,0-1.844,0.386-2.422,1.156
			c-0.578,0.771-0.867,1.826-0.867,3.164c0,1.422,0.294,2.518,0.883,3.289s1.385,1.156,2.391,1.156c0.833,0,1.521-0.354,2.062-1.062
			l0.133,0.906h2.367v-12L259.297,123.354L259.297,123.354z M259.297,132.744c-0.25,0.49-0.667,0.734-1.25,0.734
			c-0.875,0-1.312-0.75-1.312-2.25l0.008-0.484c0.068-1.312,0.508-1.969,1.32-1.969c0.583,0,0.995,0.25,1.234,0.75V132.744z"/>
</g>

<g title="classroom" class="refine-filter">
		<path class="filter-option"  filter="url(#dropshadow)" d="M263.781,226.393c-0.427-2.013-1.69-3.749-3.476-4.778l-63.791-36.74c-1.135-0.653-2.388-0.971-3.63-0.971
			c-1.938,0-3.852,0.772-5.262,2.247c-9.936,10.397-23.322,16.123-37.69,16.123c-14.229,0-27.523-5.63-37.433-15.854
			c-1.407-1.451-3.305-2.21-5.226-2.21c-1.244,0-2.496,0.318-3.631,0.971l-63.84,36.768c-1.789,1.03-3.054,2.772-3.478,4.789
			s0.032,4.119,1.255,5.779c12.681,17.22,29.411,31.502,48.384,41.302c19.615,10.132,41.735,15.488,63.968,15.488
			c22.309,0,44.497-5.391,64.163-15.589c19.023-9.865,35.776-24.234,48.446-41.554C263.757,230.504,264.208,228.406,263.781,226.393
			z"/>
		<path class="filter-title" d="M156.314,256.669v-12.874h2.399v-3.2h-37.256v3.221h2.425v12.853H156.314z M126.249,242.945h27.698v11.374
			h-27.698V242.945z M157.933,245.421v6.421h8.104v-12.866h2.402v-3.206h-18.79v3.216h10.682v6.435L157.933,245.421L157.933,245.421
			z M162.699,247.772v-9.651h0.972v11.37h-3.37v-1.719H162.699z M175.761,234.152h2.415v-3.204H159.37v3.205h10.687v6.431h-2.394
			v6.425h8.098V234.152z M173.394,244.658h-3.364v-1.725h2.394v-9.636h0.97V244.658z M132.153,238.96h15.884
			c0-0.843,0.039-1.671-0.008-2.494c-0.099-1.709-0.909-2.976-2.494-3.709c-0.597-0.276-1.234-0.308-1.877-0.308
			c-0.051,0-0.102,0-0.153,0c-0.231,0.001-0.433,0.045-0.638,0.159c-0.922,0.51-1.851,1.007-2.782,1.51
			c-0.949-0.514-1.896-1.027-2.846-1.54c-0.087-0.047-0.179-0.116-0.27-0.118c-0.201-0.005-0.403-0.01-0.604-0.01
			c-0.59,0-1.174,0.048-1.727,0.306c-1.618,0.756-2.433,2.046-2.495,3.806c-0.026,0.727-0.005,1.456-0.005,2.183
			C132.139,238.818,132.149,238.891,132.153,238.96z M143.592,230.822c0.039,0.015,0.053,0.024,0.068,0.025
			c0.029,0.002,0.058,0.002,0.088,0.002c0.012,0,0.025,0,0.037,0c0.024,0,0.048,0,0.072,0c2.362,0,4.068,1.083,5.173,3.145
			c0.073,0.136,0.162,0.157,0.296,0.157h0.001c2.731-0.003,5.462-0.002,8.193-0.002c0.073,0,0.146-0.007,0.21-0.011
			c0-0.973,0.006-1.929-0.005-2.886c-0.002-0.187-0.054-0.376-0.104-0.559c-0.439-1.612-1.731-3.092-4.121-3.092
			c-0.178,0-0.362,0.008-0.553,0.025c-0.07,0.006-0.14,0.045-0.205,0.079c-0.906,0.488-1.813,0.973-2.714,1.471
			c-0.079,0.044-0.147,0.065-0.216,0.065c-0.068,0-0.137-0.022-0.215-0.065c-0.718-0.399-1.457-0.761-2.16-1.184
			c-0.409-0.246-0.821-0.385-1.282-0.385c-0.066,0-0.132,0.003-0.2,0.008c-0.178,0.015-0.255,0.057-0.307,0.233
			c-0.339,1.132-0.973,2.074-1.891,2.827C143.703,230.721,143.653,230.769,143.592,230.822z M153.284,226.024
			c0.111,0,0.201-0.001,0.283-0.001c0.047,0,0.092,0,0.136,0.001c2.288,0.031,3.934,1.102,5.016,3.071
			c0.096,0.175,0.194,0.222,0.38,0.222h0.002c1.655-0.004,3.311-0.004,4.966-0.004c1.043,0,2.087,0,3.13,0h0.278
			c0.009-0.062,0.02-0.102,0.02-0.141c0-0.778,0.032-1.557-0.009-2.332c-0.095-1.763-0.931-3.051-2.579-3.777
			c-0.508-0.224-1.043-0.268-1.581-0.268c-0.169,0-0.338,0.004-0.507,0.009c-0.134,0.003-0.28,0.039-0.398,0.102
			c-0.902,0.478-1.8,0.964-2.694,1.456c-0.069,0.038-0.127,0.058-0.187,0.058c-0.054,0-0.109-0.017-0.174-0.052
			c-0.725-0.403-1.47-0.773-2.183-1.197c-0.409-0.242-0.82-0.388-1.282-0.388c-0.066,0-0.133,0.003-0.201,0.009
			c-0.183,0.016-0.273,0.049-0.329,0.239c-0.342,1.151-0.994,2.101-1.933,2.856C153.395,225.919,153.358,225.956,153.284,226.024z
			 M140.082,230.387h0.01c2.302-0.005,4.175-1.868,4.179-4.155c0.003-2.289-1.865-4.156-4.166-4.163h-0.012
			c-2.315,0-4.185,1.852-4.186,4.151C135.904,228.521,137.776,230.387,140.082,230.387z M159.518,220.722h0.012
			c2.32,0,4.186-1.845,4.191-4.146c0.005-2.297-1.85-4.153-4.159-4.163h-0.018c-2.312,0-4.182,1.849-4.189,4.145
			C155.348,218.846,157.218,220.716,159.518,220.722z M149.809,225.546h0.003c2.31,0,4.18-1.844,4.189-4.133
			c0.009-2.296-1.869-4.169-4.183-4.172h-0.006c-2.314,0-4.189,1.866-4.182,4.163C145.636,223.702,147.494,225.544,149.809,225.546z
			 M117.615,265.989c0.318-0.51,0.818-0.766,1.5-0.766c0.672,0,1.172,0.151,1.5,0.453s0.503,0.799,0.523,1.492h2.734
			c-0.115-1.276-0.591-2.277-1.43-3.004s-1.948-1.09-3.328-1.09c-0.958,0-1.802,0.228-2.531,0.684
			c-0.729,0.456-1.288,1.102-1.676,1.938s-0.582,1.811-0.582,2.926v0.562c0,1.776,0.43,3.151,1.289,4.125s2.036,1.461,3.531,1.461
			c0.906,0,1.712-0.167,2.418-0.5s1.254-0.803,1.644-1.41c0.391-0.607,0.604-1.306,0.641-2.098h-2.727
			c-0.021,0.646-0.198,1.117-0.531,1.414s-0.815,0.445-1.445,0.445c-0.745,0-1.27-0.26-1.574-0.781
			c-0.305-0.521-0.457-1.388-0.457-2.602v-0.805C117.13,267.315,117.297,266.5,117.615,265.989z M124.761,274.614h2.641v-12h-2.641
			V274.614z M135.658,268.958c-0.016-0.917-0.336-1.638-0.961-2.164s-1.477-0.789-2.555-0.789s-1.965,0.255-2.66,0.765
			s-1.043,1.173-1.043,1.99h2.633c0-0.617,0.312-0.926,0.938-0.926c0.672,0,1.008,0.39,1.008,1.17v0.448h-0.812
			c-1.292,0-2.276,0.234-2.953,0.703s-1.016,1.161-1.016,2.078c0,0.729,0.279,1.335,0.836,1.816
			c0.557,0.482,1.234,0.723,2.031,0.723c0.87,0,1.547-0.305,2.031-0.914c0.073,0.333,0.156,0.586,0.25,0.758h2.633v-0.133
			c-0.229-0.411-0.349-1.005-0.359-1.781L135.658,268.958L135.658,268.958z M133.017,272.208c-0.094,0.177-0.249,0.336-0.465,0.477
			s-0.488,0.211-0.816,0.211c-0.25,0-0.456-0.074-0.617-0.223c-0.161-0.148-0.242-0.342-0.242-0.582
			c0-0.823,0.458-1.234,1.375-1.234h0.766L133.017,272.208L133.017,272.208z M139.984,267.739c0.713,0,1.07,0.339,1.07,1.016h2.641
			c0-0.823-0.339-1.487-1.016-1.992s-1.573-0.758-2.687-0.758c-1.036,0-1.875,0.251-2.516,0.754s-0.961,1.142-0.961,1.918
			c0,0.438,0.112,0.826,0.336,1.164c0.224,0.339,0.549,0.626,0.977,0.863c0.427,0.237,0.969,0.428,1.625,0.574
			s1.102,0.286,1.336,0.422c0.234,0.135,0.352,0.315,0.352,0.539c0,0.234-0.09,0.424-0.27,0.57s-0.449,0.219-0.809,0.219
			c-0.391,0-0.711-0.09-0.961-0.27s-0.38-0.465-0.391-0.855h-2.461c0,0.495,0.159,0.966,0.477,1.414s0.76,0.802,1.328,1.062
			s1.214,0.391,1.938,0.391c1.088,0,1.975-0.242,2.66-0.727c0.685-0.484,1.027-1.112,1.027-1.883c0-1.13-0.635-1.914-1.906-2.352
			c-0.38-0.13-0.822-0.242-1.324-0.336c-0.503-0.094-0.868-0.214-1.098-0.359c-0.229-0.146-0.344-0.336-0.344-0.57
			c0-0.229,0.094-0.421,0.281-0.574C139.475,267.816,139.708,267.739,139.984,267.739z M147.779,267.739
			c0.714,0,1.07,0.339,1.07,1.016h2.641c0-0.823-0.339-1.487-1.016-1.992s-1.573-0.758-2.687-0.758
			c-1.036,0-1.875,0.251-2.516,0.754s-0.961,1.142-0.961,1.918c0,0.438,0.112,0.826,0.336,1.164
			c0.224,0.339,0.549,0.626,0.977,0.863c0.427,0.237,0.969,0.428,1.625,0.574s1.102,0.286,1.336,0.422
			c0.234,0.135,0.352,0.315,0.352,0.539c0,0.234-0.09,0.424-0.27,0.57s-0.449,0.219-0.809,0.219c-0.391,0-0.711-0.09-0.961-0.27
			s-0.38-0.465-0.391-0.855h-2.461c0,0.495,0.159,0.966,0.477,1.414s0.76,0.802,1.328,1.062s1.214,0.391,1.938,0.391
			c1.088,0,1.975-0.242,2.66-0.727c0.685-0.484,1.027-1.112,1.027-1.883c0-1.13-0.635-1.914-1.906-2.352
			c-0.38-0.13-0.822-0.242-1.324-0.336c-0.503-0.094-0.869-0.214-1.098-0.359c-0.229-0.146-0.344-0.336-0.344-0.57
			c0-0.229,0.094-0.421,0.281-0.574C147.272,267.816,147.503,267.739,147.779,267.739z M157.465,266.099
			c-0.208-0.062-0.453-0.094-0.734-0.094c-0.792,0-1.409,0.414-1.852,1.242l-0.086-1.086h-2.468v8.453h2.633v-5.352
			c0.234-0.521,0.766-0.781,1.594-0.781l0.867,0.062L157.465,266.099z M161.424,266.005c-0.828,0-1.549,0.177-2.164,0.531
			s-1.086,0.861-1.414,1.519c-0.328,0.659-0.492,1.41-0.492,2.254l0.008,0.445c0.057,1.234,0.45,2.212,1.18,2.934
			c0.729,0.721,1.695,1.082,2.898,1.082c1.25,0,2.241-0.387,2.973-1.16s1.098-1.819,1.098-3.137v-0.094
			c0-1.349-0.365-2.415-1.094-3.199C163.687,266.397,162.69,266.005,161.424,266.005z M162.877,270.575
			c-0.021,1.443-0.5,2.164-1.438,2.164c-0.479,0-0.841-0.182-1.086-0.547s-0.367-0.938-0.367-1.719l0.008-0.477
			c0.073-1.307,0.549-1.961,1.43-1.961c0.969,0,1.453,0.758,1.453,2.273V270.575z M170.009,266.005
			c-0.828,0-1.549,0.177-2.164,0.531s-1.086,0.861-1.414,1.519c-0.328,0.659-0.492,1.41-0.492,2.254l0.008,0.445
			c0.057,1.234,0.451,2.212,1.18,2.934c0.729,0.721,1.695,1.082,2.898,1.082c1.25,0,2.241-0.387,2.973-1.16s1.098-1.819,1.098-3.137
			v-0.094c0-1.349-0.365-2.415-1.094-3.199C172.271,266.397,171.274,266.005,170.009,266.005z M171.462,270.575
			c-0.021,1.443-0.5,2.164-1.438,2.164c-0.479,0-0.841-0.182-1.086-0.547s-0.367-0.938-0.367-1.719l0.008-0.477
			c0.073-1.307,0.549-1.961,1.43-1.961c0.969,0,1.453,0.758,1.453,2.273V270.575z M184.491,266.005
			c-1.083,0-1.911,0.425-2.484,1.273c-0.375-0.849-1.096-1.273-2.164-1.273c-1.01,0-1.815,0.383-2.414,1.148l-0.086-0.992h-2.469
			v8.453h2.633v-5.883c0.266-0.464,0.651-0.695,1.156-0.695c0.396,0,0.664,0.099,0.805,0.297s0.211,0.518,0.211,0.961v5.32h2.641
			v-5.773l-0.008-0.109c0.255-0.464,0.643-0.695,1.164-0.695c0.385,0,0.651,0.099,0.797,0.297s0.219,0.513,0.219,0.945v5.336h2.641
			v-5.5C187.085,267.041,186.204,266.005,184.491,266.005z"/>
</g>

</svg>
