<svg version="1.1" xmlns="http://www.w3.org/2000/svg" xmlns:xlink="http://www.w3.org/1999/xlink" viewBox="0 0 60 60">
  <path class="grey-fill" d="M18.811,35.342c0-1.188,0-2.376,0-3.564c0.002-0.027,0.005-0.054,0.005-0.081c0.002-0.482,0.004-0.964,0.004-1.447
			c-0.001-1.638-0.002-3.276-0.004-4.914c0-0.03-0.004-0.06-0.006-0.09c0-0.362,0-0.724,0-1.085c0.01-0.073,0.017-0.146,0.03-0.218
			c0.098-0.558,0.36-1.023,0.791-1.391c0.319-0.272,0.687-0.446,1.101-0.517c0.08-0.014,0.16-0.024,0.24-0.036
			c5.805,0,11.61,0,17.415,0c0.013,0.003,0.026,0.006,0.039,0.008c0.11,0.017,0.222,0.023,0.33,0.051
			c0.841,0.215,1.405,0.735,1.69,1.554c0.053,0.152,0.078,0.309,0.078,0.474c-0.003,1.981-0.002,3.962-0.002,5.943
			c0,1.716,0.001,3.431-0.002,5.147c0,0.147-0.013,0.296-0.04,0.44c-0.108,0.561-0.387,1.024-0.833,1.381
			c-0.409,0.327-0.879,0.505-1.405,0.505c-2.425,0.001-4.849-0.001-7.274-0.003c-0.867-0.001-1.734-0.002-2.601-0.003
			c-0.868-0.001-1.737-0.002-2.605-0.002c-1.562-0.001-3.124,0-4.686-0.002c-0.09,0-0.181-0.006-0.27-0.019
			c-0.603-0.092-1.102-0.372-1.487-0.846c-0.249-0.306-0.407-0.656-0.473-1.045C18.834,35.503,18.823,35.422,18.811,35.342z
			 M21.108,23.226c0.016,0.017,0.026,0.028,0.036,0.039c0.227,0.227,0.455,0.454,0.682,0.68c2.362,2.358,4.724,4.716,7.086,7.074
			c0.173,0.173,0.346,0.345,0.519,0.518c0.093,0.093,0.205,0.133,0.337,0.115c0.099-0.014,0.174-0.068,0.243-0.136
			c1.517-1.517,3.034-3.034,4.551-4.55c1.227-1.227,2.454-2.454,3.682-3.68c0.017-0.017,0.035-0.035,0.059-0.059
			C32.567,23.226,26.843,23.226,21.108,23.226z M22.249,36.336c4.929,0,9.862,0,14.789,0c-1.698-1.698-3.398-3.398-5.102-5.102
			c-0.009,0.01-0.019,0.026-0.032,0.038c-0.632,0.632-1.264,1.264-1.897,1.896c-0.185,0.185-0.409,0.185-0.593,0
			c-0.656-0.66-1.312-1.319-1.968-1.978c-0.01-0.01-0.021-0.02-0.029-0.026C25.693,32.89,23.971,34.614,22.249,36.336z
			 M32.774,30.412c0.011,0.01,0.024,0.021,0.036,0.033c0.659,0.66,1.319,1.321,1.978,1.981c1.272,1.274,2.544,2.548,3.815,3.822
			c0.023,0.023,0.043,0.029,0.075,0.018c0.3-0.096,0.499-0.293,0.599-0.591c0.069-0.202,0.083-0.412,0.083-0.624
			c-0.001-2.849,0-5.698,0-8.547c0-0.874,0-1.749,0-2.623c0-0.017,0-0.034,0-0.057C37.161,26.024,34.97,28.216,32.774,30.412z
			 M26.586,30.362c-2.164-2.165-4.32-4.321-6.477-6.479c0,0.018,0,0.037,0,0.056c0,3.788,0,7.577,0.001,11.365
			c0,0.118,0.011,0.238,0.033,0.355c0.052,0.279,0.203,0.485,0.474,0.592c0.037,0.015,0.057,0.01,0.085-0.018
			c1.949-1.95,3.9-3.9,5.85-5.849C26.564,30.372,26.58,30.365,26.586,30.362z"/>
</svg>
