<?xml version="1.0" encoding="utf-8"?>
<!-- Generator: Adobe Illustrator 25.4.1, SVG Export Plug-In . SVG Version: 6.00 Build 0)  -->
<svg version="1.1" id="Layer_1" xmlns="http://www.w3.org/2000/svg" xmlns:xlink="http://www.w3.org/1999/xlink" x="0px" y="0px"
	 viewBox="0 0 50 50" style="enable-background:new 0 0 50 50;" xml:space="preserve">
<style type="text/css">
	.st0{display:none;}
	.st1{display:inline;}
	.st2{fill:#E7478D;}
	.st3{fill:#BF2878;}
	.st4{fill:#27DEBF;}
	.st5{fill:#1BBC9D;}
	.st6{fill:#A33D64;}
	.st7{fill:#82294D;}
	.st8{fill:#344593;}
	.st9{fill:#3E54A3;}
	.st10{fill:#2E4490;}
	.st11{fill:#122571;}
	.st12{opacity:0.5;fill:#031F60;enable-background:new    ;}
	.st13{fill:#BBDFFF;}
	.st14{fill:#FDB724;}
	.st15{fill:#0A4A80;}
	.st16{fill:#F1FCFF;}
	.st17{fill:#D6E6FF;}
	.st18{fill:#CEF3FF;}
	.st19{fill:#606060;}
	.st20{enable-background:new    ;}
	.st21{fill:#F19729;}
	.st22{fill:#FCB040;}
	.st23{fill:#FFCB49;}
	.st24{fill:#2E5677;}
	.st25{fill:#FF51CE;}
	.st26{fill:#EDE6A0;}
	.st27{fill:#FFF7B0;}
	.st28{fill:url(#SVGID_1_);}
	.st29{fill:url(#Shadow_00000175288802799295696190000018203126023439874998_);}
	.st30{fill:#4D4D4D;}
	.st31{fill:#333333;}
	.st32{fill:#666666;}
	.st33{fill:#1A1A1A;}
	.st34{fill:#D7DAE9;}
	.st35{fill:#A2A8C1;}
	.st36{fill:#EFF0F5;}
	.st37{fill:#525252;}
	.st38{fill:#808080;}
	.st39{fill:#99E1EE;}
	.st40{fill:#FFFFFF;}
	.st41{fill:#FFB78C;}
	.st42{fill:#FFE5CC;}
</style>
<g id="Examples" class="st0">
	<g id="XMLID_00000095305909405757464760000011999065532292582312_" class="st1">
		<path id="XMLID_00000085971219491002120440000005821071841959880880_" class="st2" d="M12.4,36.1c1.1-0.8,1.8-2.7,1.7-4
			c-0.1-1.4-1.2-2-1.7-2.3l0,0c-1.1-0.6-2.8-0.6-3.9,0l0,0C8,30.1,7,30.7,6.8,32.1c-0.1,1.3,0.6,3.2,1.7,4l0,0
			c0.1,0,0.1,0.1,0.2,0.1c1,0.6,2.6,0.6,3.6,0l0,0C12.3,36.2,12.4,36.1,12.4,36.1L12.4,36.1z"/>
		<path id="XMLID_00000163786728381868301940000002159649584101974663_" class="st3" d="M9.9,30.8c-0.3,0.2-0.3,0.4,0,0.6
			s0.8,0.2,1.1,0s0.3-0.4,0-0.6C10.7,30.6,10.2,30.6,9.9,30.8z"/>
		<g id="XMLID_00000065037496580323266530000014425071794249141136_">
			<path id="XMLID_00000090274153724153544200000012157199088345105086_" class="st4" d="M10.5,31.2c0,0-0.9,0-1.4-0.7s0-1.9,0-1.9
				s1.1,0.1,1.7,1C11.2,30.4,10.5,31.2,10.5,31.2z"/>
			<path id="XMLID_00000036941294699681266620000012814196278958535834_" class="st5" d="M9,30.5c0.5,0.7,1.4,0.7,1.4,0.7
				C10.3,29.6,9,28.6,9,28.6S8.5,29.8,9,30.5z"/>
		</g>
		<path id="XMLID_00000132081473817469337940000002047110052283216818_" class="st6" d="M10.5,31.2c0,0,0-1.3,0.7-1.9
			s1.2-0.6,1.2-0.6c0.4,0,0.9,0.4,0.7,0.4c0,0-0.9,0-1.5,0.5s-0.9,1.5-0.9,1.6c0,0,0,0.1-0.1,0.1C10.5,31.3,10.5,31.2,10.5,31.2z"/>
		<path id="XMLID_00000181049770300388131540000017373587466471974298_" class="st7" d="M12.4,28.7c-0.1,0-0.1,0.1,0.2,0.3
			c0.2,0.1,0.4,0.2,0.5,0.2l0,0C13.3,29,12.8,28.7,12.4,28.7z"/>
	</g>
	<g class="st1">
		<g id="XMLID_00000175318191651491366990000003593326785309375922_">
			<path id="XMLID_00000165924761696125779080000017908350819627401617_" class="st8" d="M45.3,33.2v-4.6l0,0c0-0.9-0.6-1.8-1.7-2.4
				c-2.3-1.3-6-1.3-8.4,0c-1.2,0.7-1.7,1.6-1.7,2.4l0,0v4.5c0,0.9,0.6,1.8,1.7,2.4c2.3,1.3,6,1.3,8.4,0
				C44.8,34.9,45.3,34.1,45.3,33.2L45.3,33.2L45.3,33.2L45.3,33.2z"/>
			<path id="XMLID_00000078021412665340228200000000696485778703687324_" class="st8" d="M45.3,33.2v-4.6l0,0c0-0.9-0.6-1.8-1.7-2.4
				c-2.3-1.3-6-1.3-8.4,0c-1.2,0.7-1.7,1.6-1.7,2.4l0,0v4.5c0,0.9,0.6,1.8,1.7,2.4c2.3,1.3,6,1.3,8.4,0
				C44.8,34.9,45.3,34.1,45.3,33.2L45.3,33.2L45.3,33.2L45.3,33.2z"/>
		</g>
		<polygon id="XMLID_00000060010272051433115720000008425392920258306237_" class="st9" points="39.4,23 29.7,28.6 39.4,34.2 
			49.2,28.6 		"/>
		<path id="XMLID_00000180355881877501702720000004648502827384561835_" class="st10" d="M44.3,31.4l-4.8-2.7c-0.1,0-0.2,0-0.2,0.1
			s0,0.2,0.1,0.2l4.6,2.6L44.3,31.4z"/>
		<polygon id="XMLID_00000142135950515584755510000012976722388421673145_" class="st11" points="29.7,28.6 29.7,29 39.4,34.6 
			39.4,34.2 		"/>
		<polygon id="XMLID_00000033336252494225749340000013082611193976852614_" class="st10" points="49.2,28.6 49.2,29 39.4,34.6 
			39.4,34.2 		"/>
		<polygon id="XMLID_00000089535858472345429640000013947805709643745712_" class="st12" points="33.5,31.2 39.4,35.2 45.3,31.2 
			39.4,34.6 		"/>
		<g id="XMLID_00000157285768750038000270000004875202148109304742_">
			<path id="XMLID_00000031919562757721725510000011146091710997871503_" class="st13" d="M44.7,36.2c-0.1,0-0.2-0.1-0.2-0.2v-4
				c0-0.2-0.1-0.4-0.3-0.4l-4.9-2.8c-0.1,0-0.1-0.2-0.1-0.2c0-0.1,0.2-0.1,0.2-0.1l4.9,2.8c0.3,0.2,0.4,0.4,0.4,0.7v4
				C44.8,36.1,44.7,36.2,44.7,36.2z"/>
		</g>
		<path class="st14" d="M45.3,39.3L45,36.6c0.1-0.1,0.1-0.2,0-0.2l0,0l0,0l0,0v-0.1l0,0l0,0l0,0c0-0.2-0.2-0.4-0.4-0.4
			c0,0,0,0-0.1,0l0,0l0,0c0,0,0,0-0.1,0c0,0,0,0-0.1,0c0,0,0,0-0.1,0c0,0,0,0,0,0.1l0,0v0.1c0,0.1,0,0.2,0.1,0.3l0,0
			c-0.1,0.1,0,0.2,0,0.2L44,39.3c0,0.1,0.1,0.2,0.3,0.3l0,0h0.1l0,0c0.1,0,0.2,0.1,0.3,0.1l0,0l0,0l0,0l0,0l0,0c0.1,0,0.2,0,0.3-0.1
			l0,0h0.1l0,0C45.3,39.5,45.3,39.4,45.3,39.3z"/>
	</g>
	<g class="st1">
		<g>
			<path class="st15" d="M26,28.8L26,28.8c-1,0.6-1.9,1-2.8,1.2l0,0c0,0,0,0-0.1,0l-0.5,0.2h-0.1c-0.1,0-0.2,0.1-0.3,0.1h-0.1
				c-0.1,0-0.2,0.1-0.2,0.1h-0.1c-0.5,0.2-0.9,0.4-1.4,0.7c-0.1,0.1-0.2,0.1-0.3,0.2L20,31.4c-0.4,0.3-2,1.5-2.9,2.5l-0.6,0.6
				L16,34.6c-1,0.2-2,0.5-3,1.1c-0.1,0.1-0.2,0.1-0.3,0.2c-0.3,0.2-0.5,0.3-0.8,0.5l0,0l-0.1,0.1c-0.1,0.1-0.2,0.1-0.3,0.2l0,0l0,0
				c-0.4,0.3-0.9,0.7-1.3,1.1c-0.1,0.1-0.2,0.2-0.3,0.3c-0.3,0.3-0.7,0.6-1,0.9H8.8c-0.3,0.3-0.7,0.5-1,0.8
				c-0.2,0.2-0.5,0.3-0.7,0.5H7l13.7,8.3h0.1c0.8-0.5,1.7-1.2,2.5-1.9c0.5-0.5,1.1-0.9,1.7-1.4c1.2-0.9,2.3-1.5,3.2-1.8
				c0.7-0.3,1.4-0.5,2.1-0.6l0.5-0.6c0.7-0.7,1.5-1.3,2.4-1.8c1.5-1,3.2-1.8,4.9-2.5c0.6-0.2,1.2-0.5,1.6-0.7l0.2-0.1L26,28.8z"/>
			<g>
				<g>
					<g>
						<path class="st16" d="M39.1,36.7c-0.5,0.3-0.7,0.4-1.2,0.6c-0.3,0.1-0.5,0.2-0.8,0.3c-0.2,0.1-0.3,0.1-0.5,0.1
							c-0.7,0.2-1.4,0.4-2,0.8c-0.2,0.1-0.4,0.2-0.6,0.3c-1.3,0.8-2.6,2-3.9,3.5l-2.5-1.5l-11-6.7c1.3-1.5,2.6-2.7,3.9-3.5
							c0.2-0.1,0.4-0.2,0.6-0.3c0.7-0.4,1.4-0.6,2-0.8c0.2,0,0.3-0.1,0.5-0.1c0.3-0.1,0.5-0.2,0.8-0.3c0.5-0.2,0.7-0.3,1.2-0.6
							L39.1,36.7z"/>
						<g>
							<path class="st16" d="M30.1,42.3c-1.3,0.1-2.6,0.5-3.9,1.3c-0.2,0.1-0.4,0.2-0.6,0.4c-0.7,0.5-1.4,1-2,1.7
								c-0.2,0.2-0.3,0.3-0.5,0.4c-0.3,0.3-0.6,0.5-0.9,0.7c-0.5,0.4-0.8,0.6-1.3,0.9L7.5,39.5C8,39.2,8.3,39,8.8,38.6
								c0.3-0.2,0.6-0.5,0.9-0.7c0.2-0.1,0.3-0.3,0.5-0.4c0.7-0.6,1.4-1.2,2-1.7c0.2-0.1,0.4-0.3,0.6-0.4c1.3-0.8,2.6-1.2,3.9-1.3
								l11,6.7L30.1,42.3z"/>
						</g>
					</g>
					<polygon class="st17" points="7.5,39.5 7.3,40.3 20.7,48.5 20.9,47.7 					"/>
					<path class="st18" d="M39.4,37.1c-0.9,0.6-1.8,1-2.7,1.2c0,0,0,0-0.1,0s-0.2,0-0.3,0.1c-0.1,0-0.2,0.1-0.3,0.1
						s-0.2,0.1-0.3,0.1c-0.6,0.2-1.2,0.5-1.8,0.9c-0.1,0.1-0.2,0.1-0.3,0.2c-1,0.7-2,1.5-3,2.5L30,42.8l-0.6,0.1c-1,0.2-2,0.5-3,1.1
						c-0.1,0.1-0.2,0.1-0.3,0.2c-0.3,0.2-0.5,0.3-0.8,0.5c-0.6,0.4-1.1,0.9-1.7,1.4c-0.1,0.1-0.2,0.2-0.3,0.3
						c-0.9,0.9-1.8,1.6-2.7,2.2l0.2-0.8c0.5-0.3,0.8-0.5,1.3-0.9c0.3-0.2,0.6-0.5,0.9-0.7c0.2-0.1,0.3-0.3,0.5-0.4
						c0.7-0.6,1.4-1.2,2-1.7c0.2-0.1,0.4-0.3,0.6-0.4c1.3-0.8,2.6-1.2,3.9-1.3c1.3-1.5,2.6-2.7,3.9-3.5c0.2-0.1,0.4-0.2,0.6-0.3
						c0.7-0.4,1.4-0.6,2-0.8c0.2,0,0.3-0.1,0.5-0.1c0.3-0.1,0.5-0.2,0.8-0.3c0.5-0.2,0.7-0.3,1.2-0.6L39.4,37.1z"/>
				</g>
			</g>
			<g>
				<path class="st19" d="M17.8,34.6C17.9,34.6,17.9,34.6,17.8,34.6c1.2-1.4,2.5-2.5,3.7-3.2c0.2-0.1,0.4-0.2,0.5-0.3
					c0.7-0.3,1.3-0.6,2-0.8c0.2,0,0.3-0.1,0.5-0.1c0.3-0.1,0.5-0.2,0.8-0.3c0.4-0.2,0.7-0.3,1.1-0.5c0,0,0,0,0-0.1s0,0-0.1,0
					c-0.4,0.2-0.6,0.3-1,0.5c-0.3,0.1-0.5,0.2-0.8,0.3c-0.2,0.1-0.3,0.1-0.5,0.1c-0.7,0.2-1.3,0.4-2,0.8c-0.2,0.1-0.4,0.2-0.6,0.3
					C20.3,32.1,19,33.2,17.8,34.6C17.8,34.5,17.8,34.6,17.8,34.6L17.8,34.6z"/>
				<path class="st19" d="M25.4,30.6c-0.2,0.1-0.3,0.1-0.5,0.1c-0.7,0.2-1.3,0.4-2,0.8c-0.2,0.1-0.4,0.2-0.6,0.3
					c-1.2,0.7-2.5,1.8-3.7,3.2v0.1l0,0l0,0c1.2-1.4,2.5-2.5,3.7-3.2c0.2-0.1,0.4-0.2,0.6-0.3c0.7-0.4,1.3-0.6,2-0.8
					C25.1,30.8,25.3,30.7,25.4,30.6c0.3,0,0.6-0.1,0.8-0.2c0.4-0.2,0.6-0.3,1-0.5c0,0,0,0,0-0.1c0,0,0,0-0.1,0
					c-0.4,0.2-0.6,0.3-1,0.5C25.9,30.4,25.7,30.5,25.4,30.6z"/>
				<path class="st19" d="M26.2,31.1c-0.2,0.1-0.3,0.1-0.5,0.1c-0.7,0.2-1.3,0.4-2,0.8c-0.2,0.1-0.4,0.2-0.6,0.3
					c-1.2,0.7-2.5,1.8-3.7,3.2v0.1l0,0l0,0c1.2-1.4,2.5-2.5,3.7-3.2c0.2-0.1,0.4-0.2,0.6-0.3c0.7-0.4,1.4-0.6,2-0.8
					C25.9,31.3,26.1,31.2,26.2,31.1c0.3,0,0.6-0.1,0.8-0.2c0.4-0.2,0.6-0.3,1-0.5c0,0,0,0,0-0.1c0,0,0,0-0.1,0
					c-0.4,0.2-0.6,0.3-1,0.5C26.8,30.9,26.5,31,26.2,31.1z"/>
				<path class="st19" d="M27.1,31.5c-0.2,0.1-0.3,0.1-0.5,0.1c-0.7,0.2-1.3,0.4-2,0.8c-0.2,0.1-0.4,0.2-0.6,0.3
					c-1.2,0.7-2.5,1.8-3.7,3.2V36l0,0l0,0c1.2-1.4,2.5-2.5,3.7-3.2c0.2-0.1,0.4-0.2,0.6-0.3c0.7-0.4,1.4-0.6,2-0.8
					C26.7,31.7,26.9,31.7,27.1,31.5c0.3,0,0.6-0.1,0.8-0.2c0.4-0.2,0.6-0.3,1-0.5c0,0,0,0,0-0.1c0,0,0,0-0.1,0
					c-0.4,0.2-0.6,0.3-1,0.5C27.6,31.4,27.3,31.5,27.1,31.5z"/>
				<path class="st19" d="M27.9,32c-0.2,0.1-0.3,0.1-0.5,0.1c-0.7,0.2-1.4,0.4-2,0.8c-0.2,0.1-0.4,0.2-0.6,0.3
					c-1.2,0.7-2.5,1.9-3.7,3.2v0.1l0,0l0,0c1.2-1.4,2.5-2.5,3.7-3.2c0.2-0.1,0.4-0.2,0.6-0.3c0.7-0.4,1.4-0.6,2-0.8
					C27.6,32.2,27.8,32.2,27.9,32c0.3,0,0.6-0.1,0.8-0.2c0.4-0.2,0.6-0.3,1-0.5c0,0,0,0,0-0.1c0,0,0,0-0.1,0c-0.4,0.2-0.6,0.3-1,0.5
					C28.4,31.8,28.1,31.9,27.9,32z"/>
				<path class="st19" d="M28.7,32.5c-0.2,0.1-0.3,0.1-0.5,0.1c-0.7,0.2-1.4,0.4-2,0.8c-0.2,0.1-0.4,0.2-0.6,0.3
					c-1.2,0.7-2.5,1.9-3.7,3.2V37l0,0l0,0c1.2-1.4,2.5-2.5,3.7-3.2c0.2-0.1,0.4-0.2,0.6-0.3c0.7-0.4,1.4-0.6,2-0.8
					C28.4,32.7,28.6,32.6,28.7,32.5c0.3,0,0.6-0.1,0.8-0.2c0.4-0.2,0.6-0.3,1-0.5c0,0,0,0,0-0.1c0,0,0,0-0.1,0
					c-0.3,0.2-0.6,0.3-0.9,0.5C29.2,32.3,29,32.4,28.7,32.5z"/>
				<path class="st19" d="M29.6,33c-0.2,0.1-0.3,0.1-0.5,0.1c-0.7,0.2-1.4,0.4-2.1,0.8c-0.2,0.1-0.4,0.2-0.6,0.3
					c-1.2,0.7-2.5,1.9-3.8,3.3v0.1l0,0l0,0c1.2-1.4,2.5-2.5,3.7-3.2c0.2-0.1,0.4-0.2,0.6-0.3c0.7-0.4,1.4-0.6,2-0.8
					C29.2,33.2,29.4,33.1,29.6,33c0.3,0,0.6-0.1,0.8-0.2c0.4-0.2,0.6-0.3,0.9-0.5c0,0,0,0,0-0.1c0,0,0,0-0.1,0
					c-0.3,0.2-0.5,0.3-0.9,0.4C30.1,32.8,29.8,32.9,29.6,33z"/>
				<path class="st19" d="M30.4,33.5c-0.2,0.1-0.3,0.1-0.5,0.1c-0.7,0.2-1.4,0.4-2.1,0.8c-0.2,0.1-0.4,0.2-0.6,0.3
					c-1.2,0.7-2.5,1.9-3.8,3.3v0.1l0,0l0,0c1.2-1.4,2.5-2.5,3.7-3.2c0.2-0.1,0.4-0.2,0.6-0.3c0.7-0.4,1.4-0.6,2-0.8
					C30.1,33.7,30.2,33.6,30.4,33.5c0.3,0,0.5-0.1,0.8-0.2c0.4-0.2,0.6-0.3,0.9-0.4c0,0,0,0,0-0.1c0,0,0,0-0.1,0
					c-0.3,0.2-0.5,0.3-0.9,0.4C30.9,33.3,30.6,33.4,30.4,33.5z"/>
				<path class="st19" d="M31.2,33.9C31,34,30.9,34,30.7,34.1c-0.7,0.2-1.4,0.4-2.1,0.8c-0.2,0.1-0.4,0.2-0.6,0.3
					c-1.2,0.7-2.5,1.9-3.8,3.3v0.1l0,0l0,0c1.2-1.4,2.5-2.5,3.8-3.3c0.2-0.1,0.4-0.2,0.6-0.3c0.7-0.4,1.4-0.6,2-0.8
					C30.9,34.1,31.1,34.1,31.2,33.9c0.3,0,0.5-0.1,0.8-0.2c0.4-0.2,0.6-0.2,0.9-0.4c0,0,0,0,0-0.1c0,0,0,0-0.1,0
					c-0.3,0.2-0.5,0.3-0.9,0.4C31.7,33.8,31.5,33.9,31.2,33.9z"/>
				<path class="st19" d="M32,34.4c-0.2,0.1-0.3,0.1-0.5,0.1c-0.7,0.2-1.4,0.4-2.1,0.8c-0.2,0.1-0.4,0.2-0.6,0.3
					c-1.2,0.7-2.6,1.9-3.8,3.3V39l0,0l0,0c1.2-1.4,2.5-2.5,3.8-3.3c0.2-0.1,0.4-0.2,0.6-0.3c0.7-0.4,1.4-0.6,2-0.8
					C31.7,34.6,31.9,34.6,32,34.4c0.3,0,0.5-0.1,0.8-0.2c0.4-0.2,0.6-0.2,0.9-0.4c0,0,0,0,0-0.1c0,0,0,0-0.1,0
					c-0.3,0.2-0.5,0.3-0.9,0.4C32.6,34.2,32.3,34.3,32,34.4z"/>
				<path class="st19" d="M32.9,34.9C32.7,35,32.6,35,32.4,35c-0.7,0.2-1.4,0.4-2.1,0.8c-0.2,0.1-0.4,0.2-0.6,0.3
					c-1.2,0.8-2.6,1.9-3.8,3.3v0.1l0,0l0,0c1.2-1.4,2.5-2.5,3.8-3.3c0.2-0.1,0.4-0.2,0.6-0.3c0.7-0.4,1.4-0.6,2.1-0.8
					C32.6,35.1,32.7,35,32.9,34.9c0.3,0,0.5-0.1,0.8-0.2c0.3-0.1,0.6-0.2,0.9-0.4c0,0,0,0,0-0.1c0,0,0,0-0.1,0
					c-0.3,0.2-0.5,0.3-0.8,0.4C33.4,34.7,33.1,34.8,32.9,34.9z"/>
				<path class="st19" d="M33.7,35.4c-0.2,0.1-0.3,0.1-0.5,0.1c-0.7,0.2-1.4,0.4-2.1,0.8c-0.2,0.1-0.4,0.2-0.6,0.3
					c-1.2,0.8-2.6,1.9-3.8,3.3V40l0,0l0,0c1.2-1.4,2.6-2.5,3.8-3.3c0.2-0.1,0.4-0.2,0.6-0.3c0.7-0.4,1.4-0.6,2.1-0.8
					C33.4,35.6,33.6,35.5,33.7,35.4c0.3,0,0.5-0.1,0.8-0.2c0.3-0.1,0.5-0.2,0.8-0.4c0,0,0,0,0-0.1c0,0,0,0-0.1,0
					c-0.3,0.2-0.5,0.3-0.8,0.4C34.2,35.2,34,35.3,33.7,35.4z"/>
				<path class="st19" d="M34.5,35.8c-0.2,0.1-0.3,0.1-0.5,0.1c-0.7,0.2-1.4,0.4-2.1,0.8c-0.2,0.1-0.4,0.2-0.6,0.3
					c-1.3,0.8-2.6,1.9-3.8,3.3v0.1l0,0l0,0c1.2-1.4,2.6-2.6,3.8-3.3c0.2-0.1,0.4-0.2,0.6-0.3c0.7-0.4,1.4-0.6,2.1-0.8
					C34.2,36,34.4,36,34.5,35.8c0.3,0,0.5-0.1,0.8-0.2c0.3-0.1,0.5-0.2,0.8-0.4c0,0,0,0,0-0.1c0,0,0,0-0.1,0
					c-0.3,0.2-0.5,0.2-0.8,0.4C35,35.7,34.8,35.8,34.5,35.8z"/>
				<path class="st19" d="M35.4,36.3c-0.2,0.1-0.3,0.1-0.5,0.1c-0.7,0.2-1.4,0.4-2.1,0.8c-0.2,0.1-0.4,0.2-0.6,0.3
					c-1.3,0.8-2.6,1.9-3.8,3.3v0.1l0,0l0,0c1.3-1.4,2.6-2.6,3.8-3.3c0.2-0.1,0.4-0.2,0.6-0.3c0.7-0.4,1.4-0.6,2.1-0.8
					C35.1,36.5,35.2,36.5,35.4,36.3c0.3,0,0.5-0.1,0.8-0.2c0.3-0.1,0.5-0.2,0.8-0.4c0,0,0,0,0-0.1c0,0,0,0-0.1,0
					c-0.2,0.1-0.4,0.2-0.8,0.4C35.9,36.2,35.6,36.2,35.4,36.3z"/>
				<path class="st19" d="M37.7,36.2c-0.3,0.1-0.5,0.2-0.8,0.4c-0.3,0.1-0.5,0.2-0.8,0.3C35.9,37,35.8,37,35.6,37
					c-0.7,0.2-1.4,0.4-2.1,0.8c-0.2,0.1-0.4,0.2-0.6,0.3c-1.3,0.8-2.6,1.9-3.9,3.3v0.1l0,0l0,0c1.3-1.4,2.6-2.6,3.8-3.3
					c0.2-0.1,0.4-0.2,0.6-0.3c0.7-0.4,1.4-0.6,2.1-0.8c0.2,0,0.3-0.1,0.5-0.1c0.2-0.1,0.5-0.2,0.8-0.3
					C37.3,36.5,37.5,36.4,37.7,36.2C37.8,36.3,37.8,36.2,37.7,36.2C37.8,36.2,37.7,36.2,37.7,36.2z"/>
				<path class="st19" d="M10.6,38.6c0.2-0.1,0.3-0.3,0.5-0.4c0.7-0.6,1.3-1.2,2-1.7c0.2-0.1,0.4-0.2,0.6-0.4
					c1.2-0.7,2.5-1.2,3.7-1.3c0,0,0,0,0-0.1c0,0,0,0-0.1,0c-1.2,0.1-2.5,0.5-3.7,1.3c-0.2,0.1-0.4,0.2-0.6,0.4c-0.7,0.5-1.4,1-2,1.7
					C10.9,38.3,10.7,38.4,10.6,38.6c-0.4,0.2-0.7,0.4-0.9,0.7c-0.4,0.3-0.7,0.5-1,0.7c0,0,0,0,0,0.1l0,0l0,0c0.3-0.2,0.6-0.4,1-0.7
					S10.3,38.9,10.6,38.6z"/>
				<path class="st19" d="M11.5,39.1c0.2-0.1,0.3-0.3,0.5-0.4c0.7-0.6,1.3-1.2,2-1.7c0.2-0.1,0.4-0.2,0.6-0.4
					c1.2-0.7,2.5-1.2,3.7-1.2c0,0,0,0,0-0.1c0,0,0-0.1-0.1,0c-1.2,0.1-2.5,0.5-3.7,1.3c-0.2,0.1-0.4,0.2-0.6,0.4
					c-0.7,0.5-1.4,1-2,1.7C11.7,38.8,11.6,38.9,11.5,39.1c-0.4,0.2-0.7,0.4-0.9,0.7c-0.4,0.3-0.7,0.5-1,0.7c0,0,0,0,0,0.1l0,0l0,0
					c0.3-0.2,0.6-0.4,1-0.7C10.9,39.6,11.2,39.4,11.5,39.1z"/>
				<path class="st19" d="M12.3,39.6c0.2-0.1,0.3-0.3,0.5-0.4c0.7-0.6,1.3-1.2,2-1.7c0.2-0.1,0.4-0.3,0.6-0.4
					c1.2-0.7,2.4-1.2,3.6-1.2c0,0,0,0,0-0.1s0,0-0.1,0c-1.2,0.1-2.5,0.5-3.7,1.3c-0.2,0.1-0.4,0.2-0.6,0.4c-0.7,0.5-1.4,1-2,1.7
					C12.5,39.2,12.4,39.4,12.3,39.6c-0.4,0.2-0.7,0.4-0.9,0.7c-0.4,0.3-0.7,0.5-1,0.7c0,0,0,0,0,0.1l0,0l0,0c0.3-0.2,0.6-0.4,1-0.7
					C11.7,40.1,12,39.9,12.3,39.6z"/>
				<path class="st19" d="M13.1,40.1c0.2-0.1,0.3-0.3,0.5-0.4c0.7-0.6,1.3-1.2,2-1.7c0.2-0.1,0.4-0.3,0.6-0.4
					c1.2-0.7,2.4-1.1,3.6-1.2c0,0,0,0,0-0.1c0,0,0,0-0.1,0c-1.2,0.1-2.4,0.5-3.6,1.3c-0.2,0.1-0.4,0.2-0.6,0.4c-0.7,0.5-1.4,1-2,1.7
					C13.3,39.7,13.2,39.9,13.1,40.1c-0.4,0.2-0.6,0.4-0.9,0.7c-0.4,0.3-0.7,0.5-1,0.7c0,0,0,0,0,0.1l0,0l0,0c0.3-0.2,0.6-0.4,1-0.7
					C12.5,40.6,12.8,40.4,13.1,40.1z"/>
				<path class="st19" d="M13.9,40.6c0.2-0.1,0.3-0.3,0.5-0.4c0.7-0.6,1.3-1.2,2-1.7c0.2-0.1,0.4-0.3,0.6-0.4
					c1.2-0.7,2.4-1.1,3.6-1.2c0,0,0,0,0-0.1c0,0,0,0-0.1,0c-1.2,0.1-2.4,0.5-3.6,1.3c-0.2,0.1-0.4,0.2-0.6,0.4c-0.7,0.5-1.4,1-2,1.7
					C14.2,40.2,14,40.4,13.9,40.6c-0.4,0.2-0.6,0.4-0.9,0.7c-0.4,0.3-0.7,0.5-1,0.7c0,0,0,0,0,0.1l0,0l0,0c0.3-0.2,0.6-0.4,1-0.7
					C13.3,41.1,13.6,40.8,13.9,40.6z"/>
				<path class="st19" d="M14.7,41.1c0.2-0.1,0.3-0.3,0.5-0.4c0.7-0.6,1.3-1.2,2-1.7c0.2-0.1,0.4-0.3,0.6-0.4
					c1.2-0.7,2.4-1.1,3.5-1.2c0,0,0,0,0-0.1c0,0,0,0-0.1,0c-1.2,0.1-2.4,0.6-3.6,1.3c-0.2,0.1-0.4,0.2-0.6,0.4c-0.7,0.5-1.4,1-2,1.7
					C15,40.7,14.8,40.8,14.7,41.1c-0.4,0.2-0.6,0.4-0.9,0.7c-0.4,0.3-0.7,0.5-1,0.7c0,0,0,0,0,0.1l0,0l0,0c0.3-0.2,0.6-0.4,1-0.7
					S14.4,41.3,14.7,41.1z"/>
				<path class="st19" d="M15.6,41.5c0.2-0.1,0.3-0.3,0.5-0.4c0.7-0.6,1.3-1.2,2-1.7c0.2-0.1,0.4-0.3,0.6-0.4
					c1.1-0.7,2.4-1.1,3.5-1.2c0,0,0,0,0-0.1s0,0-0.1,0c-1.2,0.1-2.4,0.6-3.5,1.3c-0.2,0.1-0.4,0.2-0.6,0.4c-0.7,0.5-1.4,1-2,1.7
					C15.8,41.2,15.6,41.3,15.6,41.5c-0.4,0.2-0.6,0.4-0.9,0.7c-0.4,0.3-0.7,0.5-1,0.7c0,0,0,0,0,0.1l0,0l0,0c0.3-0.2,0.6-0.4,1-0.7
					C15,42.1,15.3,41.8,15.6,41.5z"/>
				<path class="st19" d="M16.4,42c0.2-0.1,0.3-0.3,0.5-0.4c0.7-0.6,1.3-1.2,2-1.7c0.2-0.1,0.4-0.3,0.6-0.4c1.1-0.7,2.3-1.1,3.5-1.2
					c0,0,0,0,0-0.1s0,0-0.1,0c-1.2,0.1-2.4,0.6-3.5,1.3c-0.2,0.1-0.4,0.2-0.6,0.4c-0.7,0.5-1.4,1-2.1,1.7
					C16.6,41.7,16.5,41.8,16.4,42c-0.4,0.2-0.6,0.4-0.9,0.7c-0.4,0.3-0.7,0.5-1,0.7c0,0,0,0,0,0.1l0,0l0,0c0.3-0.2,0.6-0.4,1.1-0.7
					C15.8,42.5,16.1,42.3,16.4,42z"/>
				<path class="st19" d="M17.2,42.5c0.2-0.1,0.3-0.3,0.5-0.4c0.7-0.6,1.4-1.2,2-1.7c0.2-0.1,0.4-0.3,0.6-0.4
					c1.1-0.7,2.3-1.1,3.4-1.2c0,0,0,0,0-0.1s0,0-0.1,0c-1.1,0.1-2.3,0.6-3.5,1.3c-0.2,0.1-0.4,0.2-0.6,0.4c-0.7,0.5-1.4,1-2.1,1.7
					C17.4,42.2,17.3,42.3,17.2,42.5c-0.4,0.2-0.6,0.4-0.9,0.6c-0.4,0.3-0.7,0.5-1.1,0.7c0,0,0,0,0,0.1l0,0l0,0
					c0.3-0.2,0.6-0.4,1.1-0.8C16.6,43,16.9,42.8,17.2,42.5z"/>
				<path class="st19" d="M18,43c0.2-0.1,0.3-0.3,0.5-0.4c0.7-0.6,1.4-1.2,2-1.7c0.2-0.1,0.4-0.3,0.6-0.4c1.1-0.7,2.3-1.1,3.4-1.2
					c0,0,0,0,0-0.1s0,0-0.1,0c-1.1,0.1-2.3,0.6-3.5,1.3c-0.2,0.1-0.4,0.2-0.6,0.4c-0.7,0.5-1.4,1.1-2.1,1.7
					C18.3,42.6,18.1,42.8,18,43c-0.4,0.2-0.6,0.4-0.9,0.6c-0.4,0.3-0.7,0.6-1.1,0.8c0,0,0,0,0,0.1l0,0l0,0c0.3-0.2,0.7-0.4,1.1-0.8
					C17.4,43.5,17.7,43.3,18,43z"/>
				<path class="st19" d="M18.8,43.5c0.2-0.1,0.3-0.3,0.5-0.4c0.7-0.6,1.4-1.2,2-1.7c0.2-0.1,0.4-0.3,0.6-0.4
					c1.1-0.7,2.3-1.1,3.4-1.2c0,0,0,0,0-0.1c0,0,0,0-0.1,0c-1.1,0.1-2.3,0.6-3.4,1.3c-0.2,0.1-0.4,0.2-0.6,0.4
					c-0.7,0.5-1.4,1.1-2.1,1.7C19.1,43.1,18.9,43.3,18.8,43.5c-0.4,0.2-0.6,0.4-0.9,0.6c-0.4,0.3-0.7,0.6-1.1,0.8c0,0,0,0,0,0.1l0,0
					l0,0c0.3-0.2,0.7-0.4,1.1-0.8C18.3,44,18.5,43.7,18.8,43.5z"/>
				<path class="st19" d="M19.6,44c0.2-0.1,0.3-0.3,0.5-0.4c0.7-0.6,1.4-1.2,2.1-1.7c0.2-0.1,0.4-0.3,0.6-0.4
					c1.1-0.7,2.3-1.1,3.4-1.2c0,0,0,0,0-0.1c0,0,0,0-0.1,0c-1.1,0.2-2.3,0.6-3.4,1.3c-0.2,0.1-0.4,0.2-0.6,0.4
					c-0.7,0.5-1.4,1.1-2.1,1.7C19.9,43.6,19.7,43.8,19.6,44c-0.4,0.2-0.6,0.4-0.9,0.6c-0.4,0.3-0.8,0.6-1.1,0.8c0,0,0,0,0,0.1l0,0
					l0,0c0.3-0.2,0.7-0.4,1.1-0.8C19.1,44.5,19.4,44.2,19.6,44z"/>
				<path class="st19" d="M20.5,44.5c0.2-0.1,0.3-0.3,0.5-0.4c0.7-0.6,1.4-1.2,2.1-1.7c0.2-0.1,0.4-0.3,0.6-0.4
					c1.1-0.7,2.2-1.1,3.3-1.2c0,0,0,0,0-0.1c0,0,0,0-0.1,0c-1.1,0.2-2.3,0.6-3.4,1.3c-0.2,0.1-0.4,0.2-0.6,0.4
					c-0.7,0.5-1.4,1.1-2.1,1.7C20.7,44.1,20.5,44.2,20.5,44.5c-0.4,0.2-0.6,0.4-0.9,0.6c-0.4,0.3-0.8,0.6-1.1,0.8c0,0,0,0,0,0.1l0,0
					l0,0c0.3-0.2,0.7-0.4,1.1-0.8C19.9,45,20.2,44.7,20.5,44.5z"/>
				<path class="st19" d="M21.3,44.9c0.2-0.1,0.3-0.3,0.5-0.4c0.7-0.7,1.4-1.2,2.1-1.7c0.2-0.1,0.4-0.3,0.6-0.4
					c1.1-0.6,2.2-1.1,3.3-1.2c0,0,0,0,0-0.1c0,0,0,0-0.1,0c-1.1,0.2-2.3,0.6-3.3,1.3c-0.2,0.1-0.4,0.2-0.6,0.4
					c-0.7,0.5-1.4,1.1-2.1,1.7C21.5,44.6,21.4,44.7,21.3,44.9c-0.4,0.2-0.6,0.4-0.9,0.6c-0.4,0.3-0.8,0.6-1.1,0.8c0,0,0,0,0,0.1l0,0
					l0,0c0.4-0.2,0.7-0.4,1.1-0.8C20.7,45.4,21,45.2,21.3,44.9z"/>
				<path class="st19" d="M25.2,42.8c-0.2,0.1-0.4,0.2-0.6,0.4c-0.7,0.5-1.4,1.1-2.1,1.7c-0.2,0.1-0.3,0.3-0.5,0.4
					c-0.3,0.3-0.6,0.5-0.9,0.7c-0.4,0.3-0.8,0.6-1.1,0.8c0,0,0,0,0,0.1l0,0l0,0c0.4-0.2,0.7-0.4,1.1-0.8c0.3-0.2,0.6-0.5,0.9-0.7
					c0.2-0.1,0.3-0.3,0.5-0.4c0.7-0.7,1.4-1.2,2.1-1.7C24.8,43.2,25,43,25.2,42.8c1.1-0.6,2.2-1,3.3-1.2c0,0,0,0,0-0.1
					c0,0,0,0-0.1,0C27.4,41.7,26.2,42.2,25.2,42.8z"/>
			</g>
		</g>
		<g>
			<g>
				<g>
					<g>
						<g class="st20">
							<g>
								<path class="st21" d="M29.1,41.9l-7.9-4.6l-0.1-0.1L29.1,41.9L29.1,41.9z"/>
							</g>
							<g>
								<path class="st22" d="M29.2,41.6c-0.1,0.1-0.1,0.1-0.1,0.2l-7.9-4.6l0.1-0.2L29.2,41.6z"/>
							</g>
							<g>
								<path class="st23" d="M29.4,41.5h-0.1c0,0-0.1,0-0.1,0.1l-8-4.6l0.2-0.1L29.4,41.5z"/>
							</g>
						</g>
					</g>
					<g>
						<polygon class="st24" points="30.3,42.2 30.3,42.3 30.3,42.3 30.3,42.3 30.2,42.3 30.3,42.3 						"/>
					</g>
					<path d="M30.3,42.2L30,42l0,0c0,0,0,0-0.1,0l-0.1,0.1l0,0L30.3,42.2C30.3,42.3,30.3,42.3,30.3,42.2
						C30.3,42.3,30.3,42.3,30.3,42.2z"/>
					<path class="st25" d="M21.7,37h-0.1l-0.1,0.1c0,0.1-0.1,0.1-0.1,0.2v0.1L21,37.1c0,0-0.1,0-0.1-0.1s0-0.1,0.1-0.2
						c0-0.1,0.1-0.1,0.1-0.1h0.1l0,0L21.7,37z"/>
					<path class="st26" d="M29.4,41.5L29.4,41.5L29.4,41.5z"/>
				</g>
				<path class="st27" d="M29.4,41.5L29.4,41.5L29.4,41.5c-0.1,0-0.2,0-0.2,0s0,0,0,0.1l0,0c0,0-0.1,0.1-0.1,0.2l0,0v0.1l0,0
					l0.8,0.3l0,0c0,0,0-0.1,0.1-0.1c0,0,0,0,0.1,0L29.4,41.5z"/>
			</g>
			
				<linearGradient id="SVGID_1_" gradientUnits="userSpaceOnUse" x1="21.7732" y1="-3519.1643" x2="21.5925" y2="-3519.4897" gradientTransform="matrix(1 0 0 -1 0 -3482)">
				<stop  offset="0" style="stop-color:#78ACED"/>
				<stop  offset="1" style="stop-color:#4F7BB3"/>
			</linearGradient>
			<path class="st28" d="M22.1,37.3L22.1,37.3L22.1,37.3L21.7,37l0,0l0,0h-0.1l0,0h-0.1c-0.1,0-0.1,0.1-0.1,0.1
				c0,0.1-0.1,0.1-0.1,0.2c0,0,0,0.1,0.1,0.1h0.1l0,0l0,0l0.3,0.2l0,0l0,0l0.1,0.1l0,0l0,0l0,0c0,0,0,0,0-0.1l0,0v-0.1l0,0l0.1-0.1
				l0,0C22,37.3,22,37.2,22.1,37.3L22.1,37.3L22.1,37.3L22.1,37.3L22.1,37.3z"/>
		</g>
	</g>
</g>
<radialGradient id="Shadow_00000070821320250032021630000005273391437129706634_" cx="-2085.512" cy="-7296.2339" r="15.9021" gradientTransform="matrix(1.5353 0 0 -0.4819 3226.8867 -3474.5552)" gradientUnits="userSpaceOnUse">
	<stop  offset="0" style="stop-color:#B4BCC1"/>
	<stop  offset="0.1096" style="stop-color:#B6BEC3;stop-opacity:0.9647"/>
	<stop  offset="0.94" style="stop-color:#ECEEEF;stop-opacity:0"/>
</radialGradient>
<ellipse id="Shadow_00000124883909830958886210000001682785288415821703_" style="fill:url(#Shadow_00000070821320250032021630000005273391437129706634_);" cx="25" cy="41.5" rx="24.4" ry="7.7"/>
<g>
	<g>
		<g>
			<g>
				<g>
					<g>
						<g class="st20">
							<g>
								<path class="st30" d="M19.849,28.507l-0.405,0.281c0.007-0.007,0.015-0.013,0.023-0.019l0.405-0.281
									C19.864,28.494,19.856,28.5,19.849,28.507z"/>
							</g>
							<g>
								<path class="st31" d="M19.461,29.141c-0.096-0.111-0.104-0.269-0.017-0.353l0.405-0.281
									c-0.087,0.084-0.079,0.242,0.017,0.353c0.088,0.102,0.22,0.129,0.308,0.068l-0.405,0.281
									C19.681,29.27,19.549,29.243,19.461,29.141z"/>
							</g>
							<path class="st32" d="M19.393,28.874l0.405-0.282c-0.01,0.033-0.012,0.069-0.007,0.106l-0.405,0.282
								C19.381,28.943,19.383,28.907,19.393,28.874z"/>
							<path class="st33" d="M19.834,28.813c0.009,0.016,0.02,0.032,0.033,0.046c0.024,0.028,0.052,0.051,0.081,0.067l-0.405,0.282
								c-0.03-0.016-0.058-0.039-0.082-0.067c-0.012-0.014-0.023-0.029-0.033-0.045L19.834,28.813z"/>
							<g>
								<path class="st30" d="M20.18,28.556c0.096,0.111,0.104,0.269,0.017,0.353c-0.086,0.084-0.235,0.062-0.331-0.049
									s-0.104-0.269-0.017-0.353C19.935,28.423,20.084,28.445,20.18,28.556z"/>
							</g>
						</g>
					</g>
				</g>
				<g>
					<g>
						<g class="st20">
							<path class="st34" d="M19.845,28.897c0.105,0.121,0.26,0.156,0.368,0.091l0,0l1.168-0.666l-0.488-0.704l-1.036,0.818l0,0
								c-0.012,0.007-0.024,0.016-0.034,0.026C19.717,28.565,19.726,28.76,19.845,28.897z"/>
							<path class="st35" d="M20.84,28.132l0.184,0.18l-1.081,0.665c-0.035-0.02-0.069-0.047-0.098-0.081
								c-0.016-0.018-0.029-0.037-0.041-0.056L20.84,28.132z"/>
							<path class="st36" d="M19.759,28.574l0.003-0.003l1.021-0.797l0.048,0.054l-0.059,0.117L19.753,28.7l0,0
								C19.746,28.656,19.748,28.613,19.759,28.574z"/>
							<g>
								<path class="st30" d="M21.397,27.718c0.155,0.178,0.167,0.432,0.028,0.567c-0.14,0.135-0.378,0.1-0.533-0.078
									s-0.167-0.432-0.028-0.567C21.004,27.505,21.242,27.54,21.397,27.718z"/>
							</g>
						</g>
					</g>
				</g>
				<g>
					<g>
						<g class="st20">
							<g>
								<path class="st30" d="M20.959,27.526l-0.27,0.187c0.013-0.012,0.026-0.023,0.04-0.033l0.27-0.187
									C20.985,27.503,20.972,27.514,20.959,27.526z"/>
							</g>
							<g>
								<path class="st31" d="M20.72,28.331c-0.169-0.194-0.183-0.471-0.031-0.618l0.27-0.187c-0.151,0.147-0.138,0.424,0.031,0.618
									c0.155,0.178,0.386,0.225,0.54,0.118l-0.27,0.187C21.105,28.556,20.874,28.509,20.72,28.331z"/>
							</g>
							<path class="st32" d="M20.6,27.862l0.27-0.188c-0.017,0.058-0.021,0.122-0.012,0.186l-0.27,0.188
								C20.579,27.984,20.583,27.92,20.6,27.862z"/>
							<path class="st33" d="M20.933,28.063c0.017,0.028,0.036,0.055,0.058,0.08c0.042,0.049,0.091,0.088,0.142,0.117l-0.27,0.188
								c-0.052-0.028-0.1-0.068-0.143-0.117c-0.022-0.025-0.041-0.051-0.058-0.079L20.933,28.063z"/>
							<g>
								<path class="st30" d="M21.539,27.611c0.169,0.194,0.183,0.471,0.031,0.618c-0.152,0.147-0.411,0.109-0.58-0.085
									s-0.183-0.471-0.031-0.618C21.111,27.379,21.371,27.417,21.539,27.611z"/>
							</g>
						</g>
					</g>
				</g>
				<g>
					<g>
						<g class="st20">
							<path class="st34" d="M21.039,28.095c0.126,0.145,0.313,0.187,0.443,0.109l0,0l1.406-0.802l-0.587-0.848l-1.248,0.985l0,0
								c-0.014,0.01-0.027,0.02-0.04,0.032C20.884,27.695,20.896,27.929,21.039,28.095z"/>
							<path class="st35" d="M22.236,27.174l0.222,0.217l-1.302,0.8c-0.042-0.024-0.082-0.056-0.117-0.097
								c-0.019-0.021-0.035-0.044-0.049-0.067L22.236,27.174z"/>
							<path class="st36" d="M20.935,27.705l0.003-0.003l1.23-0.96l0.058,0.065l-0.071,0.141l-1.227,0.909l0,0
								C20.92,27.805,20.922,27.753,20.935,27.705z"/>
							<g>
								<path class="st30" d="M22.907,26.675c0.187,0.215,0.202,0.52,0.034,0.683c-0.168,0.163-0.455,0.121-0.641-0.094
									c-0.187-0.215-0.202-0.52-0.034-0.683C22.434,26.419,22.721,26.461,22.907,26.675z"/>
							</g>
						</g>
					</g>
				</g>
				<g>
					<g>
						<g class="st20">
							<g>
								<path class="st30" d="M22.949,26.019l-0.706,0.49c0.017-0.016,0.034-0.03,0.052-0.043l0.706-0.49
									C22.983,25.988,22.965,26.002,22.949,26.019z"/>
							</g>
							<g>
								<path class="st31" d="M22.282,27.305c-0.218-0.251-0.236-0.608-0.04-0.798l0.706-0.49c-0.195,0.19-0.178,0.547,0.04,0.798
									c0.199,0.23,0.498,0.291,0.697,0.153l-0.706,0.49C22.78,27.596,22.482,27.535,22.282,27.305z"/>
							</g>
							<path class="st32" d="M22.129,26.702l0.706-0.491c-0.022,0.074-0.028,0.157-0.016,0.24l-0.706,0.49
								C22.101,26.857,22.106,26.775,22.129,26.702z"/>
							<path class="st33" d="M22.913,26.712c0.022,0.036,0.047,0.07,0.075,0.103c0.055,0.064,0.118,0.114,0.184,0.151l-0.705,0.49
								c-0.066-0.037-0.129-0.087-0.184-0.151c-0.029-0.032-0.053-0.066-0.075-0.102L22.913,26.712z"/>
							<g>
								<path class="st30" d="M23.698,26.128c0.218,0.251,0.236,0.608,0.04,0.798c-0.196,0.19-0.531,0.141-0.749-0.11
									s-0.236-0.608-0.04-0.798S23.48,25.878,23.698,26.128z"/>
							</g>
							<g>
								<path class="st31" d="M23.68,26.146c0.207,0.238,0.224,0.578,0.038,0.758s-0.504,0.133-0.711-0.105
									c-0.207-0.238-0.224-0.578-0.038-0.758C23.155,25.861,23.473,25.907,23.68,26.146z"/>
							</g>
						</g>
					</g>
					<path class="st32" d="M23.828,26.428c0.024,0.098,0.025,0.197,0,0.285l-0.423,0.299c-0.09-0.007-0.182-0.039-0.267-0.096
						L23.828,26.428z"/>
					<path class="st33" d="M22.842,26.32l0.527-0.373c0.034,0.008,0.068,0.021,0.102,0.037l-0.629,0.445
						C22.839,26.392,22.838,26.355,22.842,26.32z"/>
				</g>
			</g>
			<g>
				<g class="st20">
					<g>
						<polygon class="st33" points="21.782,29.781 21.651,29.889 21.003,28.457 21.134,28.35 						"/>
					</g>
					<g>
						<polygon class="st37" points="22.035,29.777 21.904,29.884 21.651,29.889 21.782,29.781 						"/>
					</g>
					<g>
						<polygon class="st30" points="21.387,28.345 22.035,29.777 21.782,29.781 21.134,28.35 						"/>
					</g>
				</g>
			</g>
		</g>
		<g>
			<g>
				<polygon class="st34" points="16.297,32.741 17.586,31.445 18.534,33.116 17.244,34.412 				"/>
				<polygon class="st36" points="14.641,33.067 15.931,31.772 17.586,31.449 16.297,32.745 				"/>
				<polygon class="st35" points="14.641,33.067 16.297,32.745 17.244,34.412 				"/>
			</g>
			<g>
				<g>
					<g class="st20">
						<g>
							<path class="st30" d="M19.605,30.928l-2.399,1.329c0.021-0.016,0.043-0.031,0.065-0.043l2.399-1.329
								C19.647,30.897,19.625,30.912,19.605,30.928z"/>
						</g>
						<g>
							<path class="st31" d="M17.157,33.185c-0.223-0.316-0.201-0.732,0.049-0.929l2.399-1.329c-0.25,0.197-0.271,0.613-0.049,0.929
								c0.203,0.29,0.542,0.396,0.789,0.26l-2.399,1.329C17.699,33.581,17.361,33.475,17.157,33.185z"/>
						</g>
						<path class="st32" d="M17.05,32.466l2.399-1.33c-0.035,0.084-0.051,0.179-0.047,0.277l-2.398,1.329
							C17,32.645,17.016,32.55,17.05,32.466z"/>
						<path class="st33" d="M19.481,31.729c0.021,0.044,0.046,0.087,0.075,0.128c0.056,0.08,0.123,0.146,0.195,0.197l-2.398,1.329
							c-0.073-0.05-0.139-0.117-0.196-0.197c-0.028-0.042-0.053-0.084-0.074-0.128L19.481,31.729z"/>
						<g>
							<path class="st30" d="M20.46,31.145c0.222,0.316,0.2,0.732-0.049,0.929c-0.25,0.196-0.633,0.099-0.855-0.217
								c-0.223-0.316-0.201-0.732,0.049-0.929C19.854,30.731,20.237,30.828,20.46,31.145z"/>
						</g>
					</g>
				</g>
			</g>
			<g>
				<g>
					<g class="st20">
						<g>
							<path class="st30" d="M19.809,30.006L19.6,30.122c0.042-0.033,0.086-0.062,0.131-0.087l0.209-0.116
								C19.895,29.944,19.851,29.973,19.809,30.006z"/>
						</g>
						<g>
							<path class="st31" d="M19.501,31.997c-0.449-0.639-0.405-1.479,0.099-1.876l0.209-0.116
								c-0.504,0.398-0.548,1.237-0.099,1.876c0.411,0.586,1.095,0.799,1.594,0.525l-0.209,0.116
								C20.596,32.797,19.912,32.583,19.501,31.997z"/>
						</g>
						<path class="st32" d="M19.286,30.545l0.21-0.119c-0.07,0.17-0.102,0.361-0.095,0.559l-0.209,0.118
							C19.184,30.906,19.216,30.715,19.286,30.545z"/>
						<path class="st33" d="M19.559,31.623c0.042,0.089,0.092,0.176,0.151,0.259c0.114,0.161,0.248,0.295,0.394,0.397l-0.208,0.117
							c-0.146-0.102-0.281-0.236-0.395-0.398c-0.058-0.082-0.108-0.169-0.15-0.257L19.559,31.623z"/>
						<g>
							<path class="st30" d="M21.535,30.443c0.449,0.639,0.405,1.479-0.099,1.876c-0.504,0.398-1.277,0.202-1.726-0.437
								c-0.449-0.639-0.405-1.479,0.099-1.876C20.313,29.609,21.085,29.804,21.535,30.443z"/>
						</g>
					</g>
				</g>
			</g>
			<g>
				<g>
					<g class="st20">
						<path class="st34" d="M19.713,31.883c0.403,0.573,1.063,0.795,1.564,0.56l0.001,0.001l11.358-5.636l-1.813-3.292l-10.851,6.36
							v0.001c-0.055,0.028-0.108,0.061-0.158,0.1C19.302,30.38,19.257,31.233,19.713,31.883z"/>
						<path class="st35" d="M30.359,25.74l0.723,0.87l-10.979,5.67c-0.144-0.104-0.277-0.237-0.39-0.397
							c-0.059-0.084-0.11-0.171-0.152-0.261L30.359,25.74z"/>
						<path class="st36" d="M19.483,30.437l0.012-0.01l10.777-6.275l0.186,0.256l-0.31,0.485L19.4,30.985l0,0
							C19.391,30.792,19.419,30.605,19.483,30.437z"/>
						<g>
							
								<ellipse transform="matrix(0.8764 -0.4817 0.4817 0.8764 -8.1806 18.4055)" class="st30" cx="31.759" cy="25.136" rx="1.535" ry="1.882"/>
						</g>
					</g>
				</g>
			</g>
			<g>
				<g>
					<g class="st20">
						<g>
							<path class="st30" d="M33.038,22.295l-2.348,1.296c0.055-0.044,0.114-0.083,0.174-0.116l2.348-1.296
								C33.151,22.213,33.093,22.251,33.038,22.295z"/>
						</g>
						<g>
							<path class="st30" d="M30.557,26.08c-0.597-0.848-0.538-1.963,0.131-2.49l2.348-1.296c-0.668,0.528-0.727,1.642-0.131,2.49
								c0.546,0.777,1.453,1.06,2.116,0.696l-2.348,1.296C32.011,27.14,31.104,26.857,30.557,26.08z"/>
						</g>
						<path class="st32" d="M30.273,24.151l2.349-1.298c-0.093,0.226-0.136,0.48-0.126,0.742l-2.348,1.298
							C30.138,24.63,30.18,24.377,30.273,24.151z"/>
						<path class="st33" d="M32.705,24.441c0.056,0.118,0.122,0.233,0.2,0.344c0.151,0.214,0.33,0.391,0.523,0.527l-2.346,1.297
							c-0.194-0.135-0.373-0.313-0.524-0.528c-0.077-0.11-0.143-0.225-0.199-0.342L32.705,24.441z"/>
						<g>
							
								<ellipse transform="matrix(0.8764 -0.4817 0.4817 0.8764 -7.2607 19.376)" class="st30" cx="34.109" cy="23.83" rx="1.535" ry="1.882"/>
						</g>
					</g>
				</g>
			</g>
			<g>
				<g>
					<g class="st20">
						<g>
							<path class="st30" d="M34.725,20.784l-3.035,1.674c0.072-0.056,0.147-0.106,0.225-0.149l3.035-1.674
								C34.872,20.678,34.797,20.727,34.725,20.784z"/>
						</g>
						<g>
							<path class="st30" d="M31.521,25.675c-0.77-1.096-0.694-2.536,0.17-3.217l3.035-1.674c-0.865,0.681-0.941,2.121-0.17,3.217
								c0.706,1.004,1.878,1.371,2.734,0.9l-3.035,1.674C33.399,27.046,32.226,26.68,31.521,25.675z"/>
						</g>
						<path class="st38" d="M31.152,23.184l3.036-1.678c-0.121,0.291-0.176,0.619-0.163,0.958l-3.034,1.677
							C30.978,23.802,31.032,23.475,31.152,23.184z"/>
						<path class="st33" d="M34.297,23.558c0.072,0.152,0.158,0.301,0.258,0.444c0.195,0.277,0.425,0.505,0.675,0.681l-3.032,1.676
							c-0.251-0.176-0.482-0.405-0.678-0.683c-0.099-0.143-0.185-0.29-0.257-0.442L34.297,23.558z"/>
						<g>
							
								<ellipse transform="matrix(0.8764 -0.4817 0.4817 0.8764 -6.5013 20.2094)" class="st32" cx="36.112" cy="22.768" rx="1.984" ry="2.432"/>
						</g>
						<g>
							
								<ellipse transform="matrix(0.8764 -0.4817 0.4817 0.8764 -6.5014 20.2095)" class="st39" cx="36.112" cy="22.768" rx="1.65" ry="2.024"/>
						</g>
						<path class="st38" d="M36.417,24.71c0.31,0.001,0.61-0.092,0.863-0.291c0.719-0.567,0.782-1.766,0.141-2.677
							c-0.522-0.743-1.35-1.065-2.028-0.853c0.573,0.001,1.183,0.324,1.599,0.915c0.641,0.912,0.578,2.11-0.141,2.677
							C36.718,24.586,36.571,24.661,36.417,24.71z"/>
					</g>
				</g>
			</g>
			<g>
				<g>
					<path class="st31" d="M15.324,30.601c0.242,0.07,0.586-0.017,0.767-0.193c0.092-0.089,0.125-0.183,0.104-0.264l0.478,1.897
						c0.02,0.081-0.013,0.175-0.104,0.264c-0.182,0.176-0.525,0.263-0.767,0.193c-0.12-0.035-0.193-0.101-0.213-0.181l-0.478-1.897
						C15.131,30.5,15.204,30.566,15.324,30.601z"/>
					<path class="st38" d="M15.982,29.963c0.242,0.07,0.291,0.269,0.109,0.445s-0.525,0.263-0.767,0.193
						c-0.241-0.07-0.29-0.269-0.109-0.445S15.74,29.893,15.982,29.963z"/>
					<path class="st33" d="M15.652,30.611l0.478,1.897c-0.104,0.018-0.207,0.018-0.299-0.004l-0.478-1.896
						C15.445,30.629,15.549,30.63,15.652,30.611z"/>
					<path class="st32" d="M16.059,30.435l0.478,1.897c-0.04,0.034-0.086,0.064-0.136,0.089l-0.478-1.897
						C15.973,30.499,16.02,30.469,16.059,30.435z"/>
				</g>
				<g>
					<path class="st31" d="M15.194,29.83c0.204,0.058,0.493-0.015,0.646-0.163c0.077-0.074,0.104-0.154,0.087-0.222l0.169,0.668
						c0.018,0.068-0.01,0.147-0.087,0.222c-0.153,0.149-0.442,0.222-0.646,0.163c-0.101-0.029-0.162-0.085-0.179-0.152l-0.169-0.669
						C15.032,29.744,15.093,29.8,15.194,29.83z"/>
					<path class="st38" d="M15.748,29.291c0.204,0.059,0.245,0.227,0.092,0.375c-0.153,0.149-0.442,0.222-0.646,0.163
						s-0.245-0.227-0.092-0.375C15.255,29.306,15.544,29.233,15.748,29.291z"/>
					<path class="st33" d="M15.471,29.838l0.168,0.669c-0.087,0.014-0.175,0.014-0.252-0.004l-0.168-0.668
						C15.296,29.853,15.384,29.854,15.471,29.838z"/>
					<path class="st32" d="M15.814,29.69l0.168,0.669c-0.034,0.029-0.073,0.054-0.115,0.075l-0.168-0.669
						C15.741,29.744,15.78,29.719,15.814,29.69z"/>
				</g>
				<g>
					<path class="st31" d="M15.161,29.817c0.221,0.064,0.536-0.016,0.702-0.177c0.084-0.081,0.114-0.168,0.095-0.242l0.024,0.095
						c0.019,0.074-0.011,0.161-0.095,0.242c-0.166,0.161-0.48,0.241-0.702,0.177c-0.11-0.032-0.176-0.093-0.195-0.166l-0.024-0.095
						C14.984,29.724,15.051,29.785,15.161,29.817z"/>
					<path class="st38" d="M15.763,29.232c0.222,0.063,0.266,0.246,0.1,0.407s-0.48,0.241-0.702,0.177
						c-0.221-0.063-0.266-0.246-0.1-0.407C15.227,29.248,15.542,29.169,15.763,29.232z"/>
					<path class="st31" d="M15.678,29.315c0.159,0.046,0.191,0.176,0.072,0.292c-0.119,0.116-0.344,0.173-0.503,0.127
						s-0.191-0.176-0.072-0.292S15.519,29.269,15.678,29.315z"/>
					<path class="st33" d="M15.461,29.826l0.024,0.095c-0.095,0.016-0.19,0.016-0.274-0.004l-0.024-0.094
						C15.271,29.843,15.367,29.843,15.461,29.826z"/>
					<path class="st32" d="M15.835,29.666l0.024,0.095c-0.037,0.031-0.079,0.058-0.125,0.081l-0.024-0.095
						C15.756,29.724,15.798,29.696,15.835,29.666z"/>
				</g>
			</g>
		</g>
		<g>
			<g>
				<g>
					<path class="st31" d="M24.124,43.339L24.124,43.339c-0.147-0.002-0.265-0.124-0.263-0.271l0.12-8.933l0.534,0.008l-0.12,8.933
						C24.392,43.223,24.271,43.341,24.124,43.339z"/>
				</g>
				<g>
					<path class="st31" d="M28.713,39.273l-3.545-5.859l0.457-0.277l3.545,5.859c0.077,0.126,0.036,0.291-0.09,0.367l0,0
						C28.954,39.439,28.79,39.398,28.713,39.273z"/>
				</g>
				<g>
					<path class="st31" d="M18.747,39.612L18.747,39.612c-0.117-0.089-0.14-0.257-0.05-0.374l4.883-6.381l0.424,0.325l-4.882,6.381
						C19.032,39.68,18.864,39.702,18.747,39.612z"/>
				</g>
			</g>
			<g>
				<g class="st20">
					<path class="st33" d="M23.213,32.602l0.002,0.53c0,0.012,0.008,0.024,0.024,0.033l0.479,0.278l-0.002-0.53l-0.479-0.279
						C23.222,32.625,23.214,32.613,23.213,32.602z"/>
					<path class="st33" d="M25.335,33.165l0.002,0.53l0.657-0.102c0.015-0.002,0.027-0.006,0.037-0.012
						c0.015-0.009,0.024-0.021,0.024-0.034l-0.002-0.53c0,0.013-0.009,0.025-0.024,0.034c-0.01,0.005-0.023,0.01-0.037,0.012
						L25.335,33.165z"/>
					<g>
						<path class="st31" d="M23.902,33.439c0.023,0.013,0.047,0.025,0.072,0.037l0.001,0.53c-0.024-0.011-0.049-0.024-0.072-0.037
							c-0.163-0.095-0.245-0.22-0.245-0.344l-0.002-0.53C23.656,33.22,23.738,33.344,23.902,33.439z"/>
					</g>
					<g>
						<path class="st31" d="M25.096,33.439c0.134-0.077,0.214-0.174,0.24-0.274l0.002,0.53c-0.026,0.1-0.106,0.197-0.24,0.274
							s-0.301,0.123-0.475,0.138l-0.002-0.53C24.795,33.562,24.962,33.516,25.096,33.439z"/>
					</g>
					<g>
						<polygon class="st30" points="24.621,33.577 24.622,34.107 24.444,34.487 24.443,33.957 						"/>
					</g>
					<g>
						<path class="st32" d="M23.597,32.361c0.032-0.018,0.083-0.018,0.115,0l0.479,0.278c0.304-0.07,0.663-0.033,0.908,0.109
							c0.024,0.013,0.045,0.027,0.065,0.042l0.657-0.102c0.044-0.007,0.089,0.008,0.1,0.033l0.129,0.284
							c0.008,0.017-0.001,0.034-0.021,0.046c-0.01,0.005-0.023,0.01-0.037,0.012l-0.657,0.102c-0.026,0.1-0.106,0.197-0.24,0.274
							s-0.301,0.123-0.475,0.138l-0.178,0.38c-0.004,0.008-0.011,0.015-0.021,0.021c-0.02,0.011-0.05,0.017-0.079,0.012l-0.49-0.076
							c-0.043-0.007-0.069-0.033-0.057-0.058l0.178-0.38c-0.024-0.011-0.049-0.024-0.072-0.037c-0.245-0.142-0.306-0.35-0.185-0.526
							l-0.478-0.278c-0.032-0.019-0.032-0.049,0-0.067L23.597,32.361z"/>
					</g>
					<path class="st33" d="M23.793,33.869l0.002,0.53c0,0.02,0.024,0.039,0.06,0.045l0.49,0.076c0.029,0.005,0.059,0,0.079-0.012
						c0.01-0.005,0.017-0.013,0.021-0.021l-0.002-0.53c-0.004,0.008-0.011,0.015-0.021,0.021c-0.02,0.011-0.05,0.017-0.079,0.012
						l-0.49-0.076C23.817,33.909,23.793,33.89,23.793,33.869z"/>
				</g>
			</g>
			<g>
				<path class="st31" d="M24.061,32.832c0.222,0.127,0.58,0.124,0.801-0.006c0.112-0.066,0.167-0.151,0.166-0.235l0.007,0.442
					c0,0.085-0.055,0.17-0.166,0.235c-0.221,0.13-0.579,0.133-0.801,0.006c-0.11-0.063-0.165-0.146-0.166-0.229l-0.007-0.442
					C23.896,32.686,23.952,32.769,24.061,32.832z"/>
				<path class="st38" d="M24.862,32.362c0.222,0.127,0.222,0.334,0.001,0.464s-0.579,0.133-0.801,0.006
					c-0.221-0.126-0.222-0.334-0.001-0.464S24.64,32.236,24.862,32.362z"/>
				<path class="st33" d="M24.381,32.922l0.006,0.442c-0.106-0.008-0.208-0.033-0.293-0.076l-0.006-0.442
					C24.173,32.889,24.276,32.915,24.381,32.922z"/>
				<path class="st32" d="M24.825,32.847l0.006,0.442c-0.047,0.023-0.1,0.041-0.155,0.054l-0.006-0.442
					C24.725,32.888,24.777,32.87,24.825,32.847z"/>
			</g>
			<g>
				<g class="st20">
					<g>
						<polygon class="st33" points="23.912,31.452 23.389,31.88 23.021,31.068 23.543,30.64 						"/>
					</g>
					<g>
						<polygon class="st30" points="24.92,31.432 24.397,31.86 23.389,31.88 23.912,31.452 						"/>
					</g>
					<g>
						<polygon class="st32" points="24.551,30.62 24.92,31.432 23.912,31.452 23.543,30.64 						"/>
					</g>
				</g>
			</g>
			<g>
				<g class="st20">
					<g>
						<polygon class="st33" points="24.392,32.482 24.116,32.708 23.703,31.764 23.978,31.539 						"/>
					</g>
					<g>
						<polygon class="st33" points="24.922,32.472 24.544,32.824 24.116,32.708 24.392,32.482 						"/>
					</g>
					<polygon class="st32" points="24.544,32.824 24.922,32.472 24.392,32.482 					"/>
					<g>
						<polygon class="st32" points="24.509,31.529 24.922,32.472 24.392,32.482 23.978,31.539 						"/>
					</g>
				</g>
			</g>
		</g>
	</g>
	<g>
		<g>
			<path class="st40" d="M36.868,22.012c0.094,0.133,0.084,0.309-0.021,0.392c-0.106,0.083-0.267,0.043-0.361-0.091
				c-0.094-0.133-0.084-0.309,0.021-0.392C36.612,21.838,36.773,21.879,36.868,22.012z"/>
		</g>
		<g>
			<path class="st40" d="M36.969,22.572c0.043,0.062,0.039,0.143-0.01,0.182s-0.123,0.02-0.167-0.042
				c-0.043-0.062-0.039-0.143,0.01-0.182C36.851,22.492,36.926,22.511,36.969,22.572z"/>
		</g>
	</g>
</g>
<g>
	<g>
		<g>
			<ellipse class="st41" cx="14.311" cy="21.607" rx="1.759" ry="1.759"/>
			<path class="st42" d="M13.554,20.075c0.087-0.1,0.262-0.162,0.391-0.138c0.13,0.025,0.165,0.126,0.078,0.227
				c-0.087,0.1-0.262,0.163-0.391,0.138C13.503,20.278,13.468,20.176,13.554,20.075z"/>
			<g>
				<path class="st42" d="M12.768,20.761c0.078,0.121,0.227,0.213,0.438,0.252c0.518,0.098,1.218-0.15,1.564-0.553
					c0.147-0.17,0.207-0.341,0.187-0.489c0.003,0.001,0.006,0.002,0.009,0.003c0.073,0.168,0.025,0.382-0.157,0.595
					c-0.345,0.403-1.046,0.65-1.564,0.553c-0.264-0.049-0.43-0.18-0.483-0.349C12.763,20.77,12.765,20.766,12.768,20.761z"/>
				<path class="st42" d="M12.828,20.659c0.078,0.068,0.189,0.119,0.33,0.146c0.483,0.091,1.134-0.139,1.456-0.514
					c0.111-0.128,0.168-0.257,0.176-0.376c0.01,0.003,0.021,0.006,0.031,0.01c0.024,0.141-0.03,0.305-0.171,0.468
					c-0.321,0.374-0.973,0.604-1.455,0.514c-0.182-0.034-0.314-0.11-0.39-0.21C12.813,20.684,12.821,20.671,12.828,20.659z"/>
				<path class="st42" d="M13.04,20.39c0.052,0.08,0.15,0.141,0.291,0.167c0.344,0.065,0.809-0.1,1.039-0.367
					c0.1-0.116,0.139-0.232,0.122-0.332c0.001,0,0.002,0.001,0.003,0.001c0.055,0.113,0.025,0.259-0.1,0.404
					c-0.23,0.268-0.696,0.432-1.039,0.367c-0.177-0.033-0.288-0.12-0.322-0.234C13.037,20.393,13.038,20.392,13.04,20.39z"/>
				<path class="st42" d="M12.655,21.014c0.097,0.113,0.254,0.198,0.467,0.238c0.6,0.113,1.412-0.174,1.811-0.64
					c0.165-0.192,0.235-0.383,0.217-0.551c0.007,0.003,0.013,0.005,0.017,0.01c0.073,0.192,0.016,0.43-0.189,0.669
					c-0.4,0.466-1.211,0.752-1.811,0.64c-0.262-0.049-0.441-0.168-0.525-0.323C12.644,21.042,12.649,21.028,12.655,21.014z"/>
				<path class="st42" d="M12.592,21.234c0.108,0.118,0.279,0.207,0.505,0.249c0.665,0.125,1.565-0.192,2.008-0.709
					c0.174-0.203,0.253-0.406,0.243-0.586c0.01,0.006,0.02,0.014,0.029,0.021c0.061,0.206-0.008,0.456-0.222,0.705
					c-0.444,0.517-1.343,0.834-2.008,0.709c-0.275-0.051-0.466-0.171-0.566-0.329C12.583,21.274,12.587,21.254,12.592,21.234z"/>
				<path class="st42" d="M12.566,21.381c0.106,0.159,0.303,0.277,0.581,0.329c0.695,0.131,1.633-0.2,2.097-0.74
					c0.2-0.232,0.279-0.464,0.248-0.665c0.005,0.003,0.009,0.008,0.012,0.012c0.1,0.226,0.038,0.514-0.209,0.801
					c-0.463,0.54-1.402,0.871-2.096,0.741c-0.339-0.065-0.557-0.227-0.637-0.439C12.563,21.406,12.565,21.393,12.566,21.381z"/>
				<path class="st42" d="M12.551,21.634c0.118,0.149,0.318,0.261,0.591,0.312c0.741,0.139,1.74-0.214,2.235-0.79
					c0.209-0.242,0.294-0.486,0.266-0.698c0.008,0.008,0.014,0.016,0.021,0.025c0.093,0.237,0.023,0.534-0.231,0.83
					c-0.494,0.575-1.495,0.928-2.235,0.79c-0.319-0.06-0.538-0.202-0.643-0.391C12.553,21.685,12.552,21.66,12.551,21.634z"/>
				<path class="st42" d="M12.563,21.822c0.119,0.162,0.33,0.283,0.621,0.338c0.763,0.143,1.793-0.22,2.303-0.814
					c0.222-0.258,0.308-0.518,0.27-0.74c0.005,0.008,0.011,0.016,0.016,0.023c0.001,0,0.001,0.001,0.001,0.001
					c0.108,0.248,0.04,0.563-0.229,0.877c-0.509,0.593-1.54,0.957-2.303,0.814c-0.328-0.061-0.553-0.207-0.662-0.401
					C12.574,21.889,12.569,21.856,12.563,21.822z"/>
				<path class="st42" d="M12.618,22.089c0.127,0.147,0.334,0.258,0.612,0.31c0.788,0.148,1.854-0.228,2.381-0.841
					c0.211-0.246,0.303-0.493,0.286-0.709c0.02,0.041,0.038,0.082,0.054,0.126c0.033,0.226-0.057,0.489-0.281,0.75
					c-0.527,0.613-1.592,0.989-2.381,0.841c-0.281-0.054-0.49-0.166-0.617-0.317c-0.008-0.02-0.015-0.04-0.022-0.06
					C12.639,22.155,12.628,22.122,12.618,22.089z"/>
			</g>
			
				<ellipse transform="matrix(0.9417 -0.3364 0.3364 0.9417 -5.9644 5.8118)" class="st41" cx="13.791" cy="20.119" rx="0.211" ry="0.122"/>
			
				<ellipse transform="matrix(0.9417 -0.3364 0.3364 0.9417 -5.9607 5.8097)" class="st42" cx="13.786" cy="20.107" rx="0.137" ry="0.08"/>
			<path class="st41" d="M13.736,20.091c0.017-0.019,0.051-0.032,0.076-0.027c0.025,0.005,0.032,0.025,0.015,0.044
				c-0.017,0.019-0.051,0.032-0.076,0.027C13.726,20.131,13.72,20.111,13.736,20.091z"/>
		</g>
	</g>
	<g>
		<path class="st42" d="M12.43,23.43c0.441,0.034,0.939-0.01,1.447-0.117c0.63-0.133,1.274-0.361,1.845-0.656
			c0.452-0.231,0.859-0.505,1.177-0.803c1.046-0.981,0.743-1.866-0.679-1.977c-0.395-0.031-0.837,0.002-1.289,0.086
			c0.067,0.025,0.132,0.054,0.195,0.087c0.041,0.021,0.081,0.044,0.12,0.069c0.041,0.025,0.08,0.052,0.118,0.081
			c0.178-0.012,0.35-0.012,0.513,0c1.162,0.091,1.411,0.815,0.555,1.618c-0.135,0.127-0.289,0.248-0.457,0.361
			c-0.728,0.49-1.725,0.844-2.597,0.922c-0.21,0.019-0.413,0.022-0.603,0.007c-1.163-0.091-1.412-0.815-0.555-1.618
			c0.115-0.108,0.244-0.212,0.384-0.311c0.012-0.046,0.025-0.092,0.041-0.137c0,0,0,0,0-0.001c0.015-0.044,0.032-0.087,0.05-0.13
			c0.028-0.065,0.06-0.128,0.096-0.19c-0.396,0.216-0.752,0.463-1.038,0.731C10.706,22.432,11.01,23.317,12.43,23.43z"/>
		<path class="st41" d="M12.573,23.294c0.332,0.026,0.698,0.004,1.075-0.058c0.749-0.124,1.543-0.405,2.203-0.782
			c0.324-0.185,0.617-0.393,0.855-0.617c0.969-0.908,0.687-1.727-0.628-1.83c-0.296-0.023-0.619-0.008-0.953,0.041
			c0.041,0.021,0.081,0.044,0.12,0.069c0.256-0.027,0.504-0.034,0.735-0.016c0.116,0.009,0.223,0.024,0.322,0.045
			c0.067,0.014,0.128,0.03,0.186,0.047c0.029,0.01,0.057,0.02,0.084,0.03c0.027,0.011,0.053,0.021,0.078,0.032
			c0.001,0,0.001,0,0,0.001c0.025,0.012,0.049,0.023,0.072,0.035c0.558,0.298,0.537,0.895-0.15,1.538
			c-0.086,0.081-0.179,0.16-0.279,0.235c-0.066,0.051-0.135,0.1-0.207,0.149c-0.055,0.037-0.111,0.073-0.168,0.108
			c-0.056,0.034-0.112,0.067-0.17,0.1c-0.671,0.38-1.487,0.656-2.238,0.755c-0.294,0.038-0.578,0.05-0.84,0.03
			c-0.212-0.016-0.397-0.053-0.551-0.106c-0.028-0.009-0.056-0.019-0.081-0.03c-0.027-0.011-0.051-0.022-0.076-0.034
			c-0.363-0.179-0.501-0.474-0.394-0.828c0.018-0.059,0.043-0.12,0.075-0.183c0.006-0.012,0.013-0.025,0.02-0.037
			c0.014-0.025,0.029-0.051,0.045-0.076c0.089-0.14,0.211-0.285,0.368-0.433c0.164-0.154,0.356-0.3,0.566-0.436c0,0,0,0,0-0.001
			c0.015-0.044,0.032-0.087,0.05-0.13c-0.282,0.169-0.538,0.356-0.75,0.555C10.977,22.374,11.259,23.193,12.573,23.294z"/>
	</g>
</g>
<g>
	<g class="st20">
		<g>
			<polygon class="st36" points="28.02,19.082 27.879,18.942 28.257,18.62 28.398,18.76 			"/>
		</g>
		<g>
			<polygon class="st36" points="27.98,19.023 27.839,18.883 28.145,18.621 28.286,18.762 			"/>
		</g>
		<g>
			<path class="st36" d="M28.351,18.514c-0.002,0-0.003,0.001-0.005,0.001l-0.141-0.14c0.002,0,0.003-0.001,0.005-0.001
				c0.082-0.022,0.148-0.009,0.187,0.03l0.141,0.14C28.499,18.505,28.433,18.492,28.351,18.514z"/>
		</g>
		<g>
			<polygon class="st36" points="28.398,18.76 28.257,18.62 28.205,18.375 28.346,18.516 			"/>
		</g>
		<g>
			<path class="st35" d="M28.352,18.515c0.162-0.044,0.26,0.052,0.218,0.214c-0.042,0.163-0.208,0.33-0.371,0.375
				c-0.076,0.02-0.138,0.011-0.178-0.022l0.377-0.322l-0.052-0.244C28.348,18.515,28.35,18.515,28.352,18.515z"/>
		</g>
		<g>
			<polygon class="st36" points="28.286,18.762 28.145,18.621 28.103,18.42 28.244,18.561 			"/>
		</g>
		<g>
			<path class="st35" d="M28.286,18.763l-0.306,0.261c-0.013-0.036-0.014-0.082,0-0.134c0.033-0.127,0.141-0.257,0.264-0.329
				L28.286,18.763z"/>
		</g>
		<g>
			<path class="st36" d="M27.98,18.89c-0.014,0.053-0.013,0.098,0,0.134l-0.141-0.14c-0.013-0.036-0.014-0.082,0-0.134
				c0.033-0.127,0.141-0.257,0.264-0.329l0.141,0.14C28.12,18.633,28.012,18.763,27.98,18.89z"/>
		</g>
		<g>
			<polygon class="st36" points="24.097,22.43 23.956,22.289 24.199,22.082 24.34,22.223 			"/>
		</g>
		<g>
			<polygon class="st36" points="24.326,22.141 24.184,22.001 27.839,18.883 27.98,19.023 			"/>
		</g>
		<g>
			<polygon class="st36" points="24.145,22.296 24.003,22.155 24.184,22.001 24.326,22.141 			"/>
		</g>
		<g>
			<path class="st36" d="M24.111,22.072c-0.037,0.011-0.075,0.027-0.111,0.049l-0.141-0.14c0.036-0.022,0.074-0.039,0.111-0.049
				c0.082-0.022,0.148-0.009,0.187,0.03l0.141,0.14C24.259,22.062,24.194,22.049,24.111,22.072z"/>
		</g>
		<g>
			<polygon class="st36" points="24.145,22.296 24.003,22.155 23.86,21.98 24.001,22.12 			"/>
		</g>
		<g>
			<polygon class="st36" points="28.047,17.104 27.906,16.963 27.879,16.834 28.02,16.975 			"/>
		</g>
		<g>
			<polygon class="st36" points="28.02,16.975 27.879,16.834 28.133,16.531 28.274,16.671 			"/>
		</g>
		<g>
			<polygon class="st36" points="27.947,17.159 27.806,17.019 27.771,16.852 27.912,16.992 			"/>
		</g>
		<g>
			<polygon class="st36" points="27.912,16.992 27.771,16.852 28.092,16.468 28.233,16.609 			"/>
		</g>
		<g>
			<polygon class="st36" points="35.69,9.181 35.549,9.041 35.533,8.964 35.674,9.104 			"/>
		</g>
		<g>
			<polygon class="st36" points="35.394,9.372 35.253,9.231 35.549,9.041 35.69,9.181 			"/>
		</g>
		<g>
			<polygon class="st36" points="28.244,18.561 28.103,18.42 27.806,17.019 27.947,17.159 			"/>
		</g>
		<g>
			<polygon class="st36" points="27.675,17.064 27.534,16.923 27.775,16.763 27.917,16.903 			"/>
		</g>
		<g>
			<path class="st36" d="M27.534,16.923l0.141,0.14c0.005,0.034,0.018,0.061,0.039,0.082l-0.141-0.14
				C27.553,16.984,27.539,16.957,27.534,16.923z"/>
		</g>
		<g>
			<polygon class="st36" points="27.917,16.903 27.775,16.763 27.757,16.687 27.898,16.827 			"/>
		</g>
		<g>
			<polygon class="st36" points="30.211,14.354 30.069,14.214 30.309,13.927 30.451,14.067 			"/>
		</g>
		<g>
			<polygon class="st36" points="30.541,13.752 30.4,13.611 31.399,11.827 31.54,11.968 			"/>
		</g>
		<g>
			<polygon class="st36" points="30.451,14.067 30.309,13.927 30.482,13.619 30.623,13.759 			"/>
		</g>
		<g>
			<path class="st36" d="M30.623,13.759l-0.141-0.14c0.021,0.007,0.039,0.018,0.054,0.032l0.141,0.14
				C30.662,13.777,30.644,13.766,30.623,13.759z"/>
		</g>
		<g>
			<polygon class="st36" points="31.779,11.696 31.638,11.555 31.912,11.379 32.053,11.519 			"/>
		</g>
		<g>
			<polygon class="st36" points="31.622,11.975 31.481,11.835 31.638,11.555 31.779,11.696 			"/>
		</g>
		<g>
			<polygon class="st36" points="22.618,20.431 22.477,20.291 22.649,20.176 22.79,20.317 			"/>
		</g>
		<g>
			<polygon class="st36" points="22.73,20.567 22.589,20.427 22.477,20.291 22.618,20.431 			"/>
		</g>
		<g>
			<polygon class="st35" points="35.69,9.181 35.394,9.372 32.053,11.519 31.779,11.696 31.622,11.975 30.623,13.759 30.451,14.067 
				30.211,14.354 28.274,16.671 28.02,16.975 28.047,17.104 28.346,18.516 28.398,18.76 28.02,19.082 24.34,22.223 24.097,22.43 
				23.904,22.193 22.652,20.665 22.469,20.442 22.753,20.253 27.68,16.972 27.898,16.827 27.916,16.903 27.675,17.064 22.79,20.317 
				22.618,20.431 22.73,20.567 24.001,22.12 24.145,22.296 24.326,22.141 27.98,19.023 28.286,18.762 28.244,18.561 27.947,17.159 
				27.912,16.992 28.233,16.609 30.148,14.318 30.377,14.044 30.541,13.752 31.54,11.968 31.72,11.646 32.037,11.442 35.377,9.294 
				35.674,9.104 			"/>
		</g>
		<g>
			<path class="st35" d="M24.112,22.071c0.105-0.028,0.183,0.001,0.214,0.07l-0.181,0.155l-0.144-0.176
				C24.037,22.099,24.074,22.082,24.112,22.071z"/>
		</g>
		<g>
			<polygon class="st36" points="24.097,22.43 23.956,22.289 23.763,22.053 23.904,22.193 			"/>
		</g>
		<g>
			<polygon class="st36" points="23.904,22.193 23.763,22.053 22.511,20.525 22.652,20.665 			"/>
		</g>
		<g>
			<path class="st36" d="M23.599,22.306c0.023-0.091,0.085-0.182,0.163-0.254l0.141,0.14c-0.078,0.072-0.14,0.164-0.163,0.254
				c-0.021,0.081-0.007,0.145,0.032,0.184l-0.141-0.14C23.592,22.452,23.579,22.387,23.599,22.306z"/>
		</g>
		<g>
			<path class="st35" d="M24.098,22.43l0.242-0.207c-0.001,0.02-0.004,0.041-0.01,0.063c-0.042,0.163-0.208,0.33-0.371,0.375
				c-0.162,0.045-0.26-0.051-0.218-0.214c0.023-0.091,0.085-0.182,0.163-0.254L24.098,22.43z"/>
		</g>
		<g>
			<path class="st35" d="M28.046,17.104l-0.027-0.129l0.254-0.304c0.012,0.035,0.012,0.079-0.001,0.129
				C28.243,16.913,28.154,17.029,28.046,17.104z"/>
		</g>
		<g>
			<path class="st35" d="M35.253,9.231l0.141,0.14c0.006,0.013,0.015,0.025,0.025,0.035l-0.141-0.14
				C35.268,9.256,35.259,9.245,35.253,9.231z"/>
		</g>
		<g>
			<polygon class="st36" points="35.377,9.294 35.236,9.154 35.533,8.964 35.674,9.104 			"/>
		</g>
		<g>
			<polygon class="st36" points="27.68,16.972 27.539,16.831 27.757,16.687 27.898,16.827 			"/>
		</g>
		<g>
			<path class="st36" d="M35.758,8.848l-0.141-0.14c0.082-0.022,0.148-0.009,0.187,0.03l0.141,0.14
				C35.906,8.839,35.84,8.826,35.758,8.848z"/>
		</g>
		<g>
			<path class="st35" d="M35.977,9.062c-0.042,0.163-0.208,0.33-0.371,0.375c-0.103,0.028-0.18,0-0.212-0.065l0.296-0.191
				l-0.017-0.077l-0.296,0.19c0-0.022,0.003-0.046,0.01-0.071c0.042-0.163,0.208-0.33,0.371-0.375
				C35.921,8.804,36.019,8.9,35.977,9.062z"/>
		</g>
		<g>
			<path class="st36" d="M35.387,9.223c-0.007,0.025-0.01,0.049-0.01,0.071l-0.141-0.14c0-0.022,0.003-0.046,0.01-0.071
				c0.042-0.163,0.208-0.33,0.371-0.375l0.141,0.14C35.596,8.893,35.429,9.061,35.387,9.223z"/>
		</g>
		<g>
			<path class="st36" d="M28.054,16.587c-0.163,0.044-0.329,0.212-0.371,0.375c0,0.003-0.001,0.007-0.002,0.01l-0.141-0.14
				c0-0.003,0.001-0.007,0.002-0.01c0.042-0.164,0.208-0.331,0.371-0.376c0.077-0.021,0.139-0.011,0.179,0.023l0.141,0.14
				C28.193,16.575,28.131,16.565,28.054,16.587z"/>
		</g>
		<g>
			<polygon class="st36" points="28.233,16.609 28.092,16.468 30.007,14.177 30.148,14.318 			"/>
		</g>
		<g>
			<path class="st35" d="M27.683,16.961c0.042-0.163,0.208-0.33,0.371-0.375c0.077-0.021,0.139-0.011,0.179,0.023l-0.321,0.384
				l0.035,0.167c-0.015,0.006-0.031,0.012-0.046,0.016c-0.125,0.034-0.211-0.014-0.226-0.112l0.241-0.161l-0.018-0.076l-0.218,0.145
				C27.681,16.969,27.682,16.965,27.683,16.961z"/>
		</g>
		<g>
			<polygon class="st36" points="30.148,14.318 30.007,14.177 30.236,13.904 30.377,14.044 			"/>
		</g>
		<g>
			<path class="st35" d="M30.708,13.975c-0.042,0.163-0.208,0.33-0.371,0.375c-0.049,0.013-0.092,0.014-0.127,0.004l0.24-0.287
				l0.173-0.308C30.701,13.784,30.737,13.864,30.708,13.975z"/>
		</g>
		<g>
			<polygon class="st36" points="30.377,14.044 30.236,13.904 30.4,13.611 30.541,13.752 			"/>
		</g>
		<g>
			<path class="st36" d="M30.49,13.762l-0.141-0.14c0.018-0.005,0.035-0.008,0.051-0.01l0.141,0.14
				C30.525,13.753,30.508,13.757,30.49,13.762z"/>
		</g>
		<g>
			<path class="st35" d="M30.541,13.751l-0.164,0.293l-0.229,0.273c-0.037-0.039-0.05-0.102-0.029-0.181
				c0.042-0.163,0.208-0.33,0.371-0.375C30.508,13.757,30.525,13.753,30.541,13.751z"/>
		</g>
		<g>
			<path class="st36" d="M30.119,14.136c-0.021,0.079-0.008,0.142,0.029,0.181l-0.141-0.14c-0.037-0.039-0.05-0.102-0.029-0.181
				c0.042-0.163,0.208-0.33,0.371-0.375l0.141,0.14C30.327,13.806,30.161,13.974,30.119,14.136z"/>
		</g>
		<g>
			<polygon class="st36" points="31.72,11.646 31.579,11.505 31.896,11.301 32.037,11.442 			"/>
		</g>
		<g>
			<polygon class="st36" points="31.54,11.968 31.399,11.827 31.579,11.505 31.72,11.646 			"/>
		</g>
		<g>
			<path class="st35" d="M32.036,11.442l-0.317,0.204l-0.012,0.022l-0.168,0.3c-0.077-0.025-0.114-0.105-0.085-0.216
				c0.042-0.163,0.208-0.33,0.371-0.375C31.928,11.349,32.005,11.377,32.036,11.442z"/>
		</g>
		<g>
			<polygon class="st36" points="32.037,11.442 31.896,11.301 35.236,9.154 35.377,9.294 			"/>
		</g>
		<g>
			<path class="st35" d="M32.043,11.59c-0.042,0.163-0.208,0.33-0.371,0.375c-0.017,0.005-0.034,0.008-0.05,0.01l0.156-0.279
				l0.275-0.177C32.053,11.541,32.05,11.565,32.043,11.59z"/>
		</g>
		<g>
			<path class="st36" d="M31.825,11.377l-0.141-0.14c0.082-0.022,0.148-0.009,0.187,0.03l0.141,0.14
				C31.973,11.368,31.907,11.354,31.825,11.377z"/>
		</g>
		<g>
			<path class="st36" d="M31.313,11.611c0.042-0.163,0.208-0.33,0.371-0.375l0.141,0.14c-0.163,0.045-0.329,0.213-0.371,0.375
				c-0.021,0.081-0.007,0.145,0.032,0.184l-0.141-0.14C31.306,11.756,31.292,11.692,31.313,11.611z"/>
		</g>
		<g>
			<path class="st35" d="M22.787,20.439c-0.011,0.043-0.031,0.087-0.057,0.128l-0.112-0.136l0.172-0.114
				C22.799,20.351,22.799,20.392,22.787,20.439z"/>
		</g>
		<g>
			<polygon class="st36" points="22.753,20.253 22.612,20.113 27.539,16.831 27.68,16.972 			"/>
		</g>
		<g>
			<polygon class="st36" points="22.652,20.665 22.511,20.525 22.328,20.302 22.469,20.442 			"/>
		</g>
		<g>
			<polygon class="st36" points="22.469,20.442 22.328,20.302 22.612,20.113 22.753,20.253 			"/>
		</g>
		<g>
			<path class="st36" d="M22.569,20.225l-0.141-0.14c0.08-0.021,0.144-0.009,0.184,0.028l0.141,0.14
				C22.713,20.216,22.649,20.204,22.569,20.225z"/>
		</g>
		<g>
			<path class="st35" d="M22.751,20.254l-0.283,0.189l0.183,0.223c-0.068,0.071-0.152,0.126-0.236,0.149
				c-0.162,0.044-0.26-0.052-0.218-0.214c0.042-0.163,0.208-0.33,0.371-0.375C22.649,20.204,22.713,20.216,22.751,20.254z"/>
		</g>
		<g>
			<path class="st36" d="M22.056,20.46c0.042-0.163,0.208-0.33,0.371-0.375l0.141,0.14c-0.163,0.045-0.329,0.213-0.371,0.375
				c-0.021,0.081-0.007,0.145,0.032,0.184l-0.141-0.14C22.049,20.605,22.035,20.541,22.056,20.46z"/>
		</g>
	</g>
</g>
</svg>
