<?xml version="1.0" encoding="utf-8"?>
<!-- Generator: Adobe Illustrator 25.4.1, SVG Export Plug-In . SVG Version: 6.00 Build 0)  -->
<svg version="1.1" id="Layer_1" xmlns="http://www.w3.org/2000/svg" xmlns:xlink="http://www.w3.org/1999/xlink" x="0px" y="0px"
	 viewBox="0 0 50 50" style="enable-background:new 0 0 50 50;" xml:space="preserve">
<style type="text/css">
	.st0{display:none;}
	.st1{display:inline;}
	.st2{fill:#344593;}
	.st3{fill:#3E54A3;}
	.st4{fill:#2E4490;}
	.st5{fill:#122571;}
	.st6{opacity:0.5;fill:#031F60;enable-background:new    ;}
	.st7{fill:#BBDFFF;}
	.st8{fill:#FDB724;}
	.st9{fill:#E7478D;}
	.st10{fill:#BF2878;}
	.st11{fill:#27DEBF;}
	.st12{fill:#1BBC9D;}
	.st13{fill:#A33D64;}
	.st14{fill:#82294D;}
	.st15{fill:#0A4A80;}
	.st16{fill:#F1FCFF;}
	.st17{fill:#D6E6FF;}
	.st18{fill:#CEF3FF;}
	.st19{fill:#606060;}
	.st20{enable-background:new    ;}
	.st21{fill:#F19729;}
	.st22{fill:#FCB040;}
	.st23{fill:#FFCB49;}
	.st24{fill:#2E5677;}
	.st25{fill:#FF51CE;}
	.st26{fill:#EDE6A0;}
	.st27{fill:#FFF7B0;}
	.st28{fill:url(#SVGID_1_);}
	.st29{fill:url(#SVGID_00000096756499039494606700000011224541377073955518_);}
	.st30{fill:#87491F;}
	.st31{fill:#FBB47B;}
	.st32{fill-rule:evenodd;clip-rule:evenodd;fill:#2DA4B9;}
	.st33{fill:#2DA4B9;}
	.st34{fill:#C67B46;}
	.st35{fill:#3FC1C8;}
	.st36{fill:url(#XMLID_00000158742867536336555080000002668152391289223552_);}
	.st37{fill:url(#XMLID_00000088094291828659118610000013953676767273054138_);}
	.st38{fill:#94D4CA;}
	.st39{opacity:0.62;}
	.st40{fill:#E8DEDC;}
	.st41{fill-rule:evenodd;clip-rule:evenodd;fill:#1E7A92;}
	.st42{fill:#EBE7E6;}
	.st43{fill:#694F43;}
	.st44{fill-rule:evenodd;clip-rule:evenodd;fill:#282249;}
	.st45{fill:#5D463A;}
	.st46{fill:#523D33;}
	.st47{fill:#8F6D5D;}
	.st48{fill:#9E8C8E;}
	.st49{fill:#463E47;}
	.st50{fill:#F7F4F6;}
	.st51{fill:#B09C9E;}
	.st52{fill-rule:evenodd;clip-rule:evenodd;fill:#463E47;}
	.st53{fill:#140615;}
	.st54{fill-rule:evenodd;clip-rule:evenodd;fill:#A7BBCD;}
	.st55{fill:#847881;}
	.st56{fill-rule:evenodd;clip-rule:evenodd;fill:#B09C9E;}
	.st57{fill-rule:evenodd;clip-rule:evenodd;fill:#E8DEDC;}
	.st58{fill-rule:evenodd;clip-rule:evenodd;fill:#F7F4F6;}
	.st59{fill-rule:evenodd;clip-rule:evenodd;fill:#9E8C8E;}
	.st60{fill:#5C4033;}
	.st61{fill:#35231A;}
	.st62{fill:#4A3429;}
</style>
<g id="Example" class="st0">
	<g class="st1">
		<g id="XMLID_4903_">
			<path id="XMLID_4905_" class="st2" d="M45.3,33.2v-4.6l0,0c0-0.9-0.6-1.8-1.7-2.4c-2.3-1.3-6-1.3-8.4,0c-1.2,0.7-1.7,1.6-1.7,2.4
				l0,0v4.5c0,0.9,0.6,1.8,1.7,2.4c2.3,1.3,6,1.3,8.4,0C44.8,34.9,45.3,34.1,45.3,33.2L45.3,33.2L45.3,33.2L45.3,33.2z"/>
			<path id="XMLID_4904_" class="st2" d="M45.3,33.2v-4.6l0,0c0-0.9-0.6-1.8-1.7-2.4c-2.3-1.3-6-1.3-8.4,0c-1.2,0.7-1.7,1.6-1.7,2.4
				l0,0v4.5c0,0.9,0.6,1.8,1.7,2.4c2.3,1.3,6,1.3,8.4,0C44.8,34.9,45.3,34.1,45.3,33.2L45.3,33.2L45.3,33.2L45.3,33.2z"/>
		</g>
		<polygon id="XMLID_4900_" class="st3" points="39.4,23 29.7,28.6 39.4,34.2 49.2,28.6 		"/>
		<path id="XMLID_4899_" class="st4" d="M44.3,31.4l-4.8-2.7c-0.1,0-0.2,0-0.2,0.1s0,0.2,0.1,0.2l4.6,2.6L44.3,31.4z"/>
		<polygon id="XMLID_4896_" class="st5" points="29.7,28.6 29.7,29 39.4,34.6 39.4,34.2 		"/>
		<polygon id="XMLID_4883_" class="st4" points="49.2,28.6 49.2,29 39.4,34.6 39.4,34.2 		"/>
		<polygon id="XMLID_4876_" class="st6" points="33.5,31.2 39.4,35.2 45.3,31.2 39.4,34.6 		"/>
		<g id="XMLID_4823_">
			<path id="XMLID_4835_" class="st7" d="M44.7,36.2c-0.1,0-0.2-0.1-0.2-0.2v-4c0-0.2-0.1-0.4-0.3-0.4l-4.9-2.8
				c-0.1,0-0.1-0.2-0.1-0.2c0-0.1,0.2-0.1,0.2-0.1l4.9,2.8c0.3,0.2,0.4,0.4,0.4,0.7v4C44.8,36.1,44.7,36.2,44.7,36.2z"/>
		</g>
		<path class="st8" d="M45.3,39.3L45,36.6c0.1-0.1,0.1-0.2,0-0.2l0,0l0,0l0,0v-0.1l0,0l0,0l0,0c0-0.2-0.2-0.4-0.4-0.4c0,0,0,0-0.1,0
			l0,0l0,0c0,0,0,0-0.1,0c0,0,0,0-0.1,0c0,0,0,0-0.1,0c0,0,0,0,0,0.1l0,0v0.1c0,0.1,0,0.2,0.1,0.3l0,0c-0.1,0.1,0,0.2,0,0.2L44,39.3
			c0,0.1,0.1,0.2,0.3,0.3l0,0h0.1l0,0c0.1,0,0.2,0.1,0.3,0.1l0,0l0,0l0,0l0,0l0,0c0.1,0,0.2,0,0.3-0.1l0,0h0.1l0,0
			C45.3,39.5,45.3,39.4,45.3,39.3z"/>
	</g>
	<g id="XMLID_3738_" class="st1">
		<path id="XMLID_4404_" class="st9" d="M12.4,36.1c1.1-0.8,1.8-2.7,1.7-4c-0.1-1.4-1.2-2-1.7-2.3l0,0c-1.1-0.6-2.8-0.6-3.9,0l0,0
			C8,30.1,7,30.7,6.8,32.1c-0.1,1.3,0.6,3.2,1.7,4l0,0c0.1,0,0.1,0.1,0.2,0.1c1,0.6,2.6,0.6,3.6,0l0,0
			C12.3,36.2,12.4,36.1,12.4,36.1L12.4,36.1z"/>
		<path id="XMLID_4395_" class="st10" d="M9.9,30.8c-0.3,0.2-0.3,0.4,0,0.6s0.8,0.2,1.1,0s0.3-0.4,0-0.6
			C10.7,30.6,10.2,30.6,9.9,30.8z"/>
		<g id="XMLID_4426_">
			<path id="XMLID_2198_" class="st11" d="M10.5,31.2c0,0-0.9,0-1.4-0.7s0-1.9,0-1.9s1.1,0.1,1.7,1C11.2,30.4,10.5,31.2,10.5,31.2z"
				/>
			<path id="XMLID_4431_" class="st12" d="M9,30.5c0.5,0.7,1.4,0.7,1.4,0.7C10.3,29.6,9,28.6,9,28.6S8.5,29.8,9,30.5z"/>
		</g>
		<path id="XMLID_4403_" class="st13" d="M10.5,31.2c0,0,0-1.3,0.7-1.9s1.2-0.6,1.2-0.6c0.4,0,0.9,0.4,0.7,0.4c0,0-0.9,0-1.5,0.5
			s-0.9,1.5-0.9,1.6c0,0,0,0.1-0.1,0.1C10.5,31.3,10.5,31.2,10.5,31.2z"/>
		<path id="XMLID_4496_" class="st14" d="M12.4,28.7c-0.1,0-0.1,0.1,0.2,0.3c0.2,0.1,0.4,0.2,0.5,0.2l0,0
			C13.3,29,12.8,28.7,12.4,28.7z"/>
	</g>
	<g class="st1">
		<g>
			<path class="st15" d="M26,28.8L26,28.8c-1,0.6-1.9,1-2.8,1.2l0,0c0,0,0,0-0.1,0l-0.5,0.2h-0.1c-0.1,0-0.2,0.1-0.3,0.1h-0.1
				c-0.1,0-0.2,0.1-0.2,0.1h-0.1c-0.5,0.2-0.9,0.4-1.4,0.7c-0.1,0.1-0.2,0.1-0.3,0.2L20,31.4c-0.4,0.3-2,1.5-2.9,2.5l-0.6,0.6
				L16,34.6c-1,0.2-2,0.5-3,1.1c-0.1,0.1-0.2,0.1-0.3,0.2c-0.3,0.2-0.5,0.3-0.8,0.5l0,0l-0.1,0.1c-0.1,0.1-0.2,0.1-0.3,0.2l0,0l0,0
				c-0.4,0.3-0.9,0.7-1.3,1.1c-0.1,0.1-0.2,0.2-0.3,0.3c-0.3,0.3-0.7,0.6-1,0.9H8.8c-0.3,0.3-0.7,0.5-1,0.8
				c-0.2,0.2-0.5,0.3-0.7,0.5H7l13.7,8.3h0.1c0.8-0.5,1.7-1.2,2.5-1.9c0.5-0.5,1.1-0.9,1.7-1.4c1.2-0.9,2.3-1.5,3.2-1.8
				c0.7-0.3,1.4-0.5,2.1-0.6l0.5-0.6c0.7-0.7,1.5-1.3,2.4-1.8c1.5-1,3.2-1.8,4.9-2.5c0.6-0.2,1.2-0.5,1.6-0.7l0.2-0.1L26,28.8z"/>
			<g>
				<g>
					<g>
						<path class="st16" d="M39.1,36.7c-0.5,0.3-0.7,0.4-1.2,0.6c-0.3,0.1-0.5,0.2-0.8,0.3c-0.2,0.1-0.3,0.1-0.5,0.1
							c-0.7,0.2-1.4,0.4-2,0.8c-0.2,0.1-0.4,0.2-0.6,0.3c-1.3,0.8-2.6,2-3.9,3.5l-2.5-1.5l-11-6.7c1.3-1.5,2.6-2.7,3.9-3.5
							c0.2-0.1,0.4-0.2,0.6-0.3c0.7-0.4,1.4-0.6,2-0.8c0.2,0,0.3-0.1,0.5-0.1c0.3-0.1,0.5-0.2,0.8-0.3c0.5-0.2,0.7-0.3,1.2-0.6
							L39.1,36.7z"/>
						<g>
							<path class="st16" d="M30.1,42.3c-1.3,0.1-2.6,0.5-3.9,1.3c-0.2,0.1-0.4,0.2-0.6,0.4c-0.7,0.5-1.4,1-2,1.7
								c-0.2,0.2-0.3,0.3-0.5,0.4c-0.3,0.3-0.6,0.5-0.9,0.7c-0.5,0.4-0.8,0.6-1.3,0.9L7.5,39.5C8,39.2,8.3,39,8.8,38.6
								c0.3-0.2,0.6-0.5,0.9-0.7c0.2-0.1,0.3-0.3,0.5-0.4c0.7-0.6,1.4-1.2,2-1.7c0.2-0.1,0.4-0.3,0.6-0.4c1.3-0.8,2.6-1.2,3.9-1.3
								l11,6.7L30.1,42.3z"/>
						</g>
					</g>
					<polygon class="st17" points="7.5,39.5 7.3,40.3 20.7,48.5 20.9,47.7 					"/>
					<path class="st18" d="M39.4,37.1c-0.9,0.6-1.8,1-2.7,1.2c0,0,0,0-0.1,0s-0.2,0-0.3,0.1c-0.1,0-0.2,0.1-0.3,0.1
						s-0.2,0.1-0.3,0.1c-0.6,0.2-1.2,0.5-1.8,0.9c-0.1,0.1-0.2,0.1-0.3,0.2c-1,0.7-2,1.5-3,2.5L30,42.8l-0.6,0.1c-1,0.2-2,0.5-3,1.1
						c-0.1,0.1-0.2,0.1-0.3,0.2c-0.3,0.2-0.5,0.3-0.8,0.5c-0.6,0.4-1.1,0.9-1.7,1.4c-0.1,0.1-0.2,0.2-0.3,0.3
						c-0.9,0.9-1.8,1.6-2.7,2.2l0.2-0.8c0.5-0.3,0.8-0.5,1.3-0.9c0.3-0.2,0.6-0.5,0.9-0.7c0.2-0.1,0.3-0.3,0.5-0.4
						c0.7-0.6,1.4-1.2,2-1.7c0.2-0.1,0.4-0.3,0.6-0.4c1.3-0.8,2.6-1.2,3.9-1.3c1.3-1.5,2.6-2.7,3.9-3.5c0.2-0.1,0.4-0.2,0.6-0.3
						c0.7-0.4,1.4-0.6,2-0.8c0.2,0,0.3-0.1,0.5-0.1c0.3-0.1,0.5-0.2,0.8-0.3c0.5-0.2,0.7-0.3,1.2-0.6L39.4,37.1z"/>
				</g>
			</g>
			<g>
				<path class="st19" d="M17.8,34.6C17.9,34.6,17.9,34.6,17.8,34.6c1.2-1.4,2.5-2.5,3.7-3.2c0.2-0.1,0.4-0.2,0.5-0.3
					c0.7-0.3,1.3-0.6,2-0.8c0.2,0,0.3-0.1,0.5-0.1c0.3-0.1,0.5-0.2,0.8-0.3c0.4-0.2,0.7-0.3,1.1-0.5c0,0,0,0,0-0.1s0,0-0.1,0
					c-0.4,0.2-0.6,0.3-1,0.5c-0.3,0.1-0.5,0.2-0.8,0.3c-0.2,0.1-0.3,0.1-0.5,0.1c-0.7,0.2-1.3,0.4-2,0.8c-0.2,0.1-0.4,0.2-0.6,0.3
					C20.3,32.1,19,33.2,17.8,34.6C17.8,34.5,17.8,34.6,17.8,34.6L17.8,34.6z"/>
				<path class="st19" d="M25.4,30.6c-0.2,0.1-0.3,0.1-0.5,0.1c-0.7,0.2-1.3,0.4-2,0.8c-0.2,0.1-0.4,0.2-0.6,0.3
					c-1.2,0.7-2.5,1.8-3.7,3.2v0.1l0,0l0,0c1.2-1.4,2.5-2.5,3.7-3.2c0.2-0.1,0.4-0.2,0.6-0.3c0.7-0.4,1.3-0.6,2-0.8
					C25.1,30.8,25.3,30.7,25.4,30.6c0.3,0,0.6-0.1,0.8-0.2c0.4-0.2,0.6-0.3,1-0.5c0,0,0,0,0-0.1c0,0,0,0-0.1,0
					c-0.4,0.2-0.6,0.3-1,0.5C25.9,30.4,25.7,30.5,25.4,30.6z"/>
				<path class="st19" d="M26.2,31.1c-0.2,0.1-0.3,0.1-0.5,0.1c-0.7,0.2-1.3,0.4-2,0.8c-0.2,0.1-0.4,0.2-0.6,0.3
					c-1.2,0.7-2.5,1.8-3.7,3.2v0.1l0,0l0,0c1.2-1.4,2.5-2.5,3.7-3.2c0.2-0.1,0.4-0.2,0.6-0.3c0.7-0.4,1.4-0.6,2-0.8
					C25.9,31.3,26.1,31.2,26.2,31.1c0.3,0,0.6-0.1,0.8-0.2c0.4-0.2,0.6-0.3,1-0.5c0,0,0,0,0-0.1c0,0,0,0-0.1,0
					c-0.4,0.2-0.6,0.3-1,0.5C26.8,30.9,26.5,31,26.2,31.1z"/>
				<path class="st19" d="M27.1,31.5c-0.2,0.1-0.3,0.1-0.5,0.1c-0.7,0.2-1.3,0.4-2,0.8c-0.2,0.1-0.4,0.2-0.6,0.3
					c-1.2,0.7-2.5,1.8-3.7,3.2V36l0,0l0,0c1.2-1.4,2.5-2.5,3.7-3.2c0.2-0.1,0.4-0.2,0.6-0.3c0.7-0.4,1.4-0.6,2-0.8
					C26.7,31.7,26.9,31.7,27.1,31.5c0.3,0,0.6-0.1,0.8-0.2c0.4-0.2,0.6-0.3,1-0.5c0,0,0,0,0-0.1c0,0,0,0-0.1,0
					c-0.4,0.2-0.6,0.3-1,0.5C27.6,31.4,27.3,31.5,27.1,31.5z"/>
				<path class="st19" d="M27.9,32c-0.2,0.1-0.3,0.1-0.5,0.1c-0.7,0.2-1.4,0.4-2,0.8c-0.2,0.1-0.4,0.2-0.6,0.3
					c-1.2,0.7-2.5,1.9-3.7,3.2v0.1l0,0l0,0c1.2-1.4,2.5-2.5,3.7-3.2c0.2-0.1,0.4-0.2,0.6-0.3c0.7-0.4,1.4-0.6,2-0.8
					C27.6,32.2,27.8,32.2,27.9,32c0.3,0,0.6-0.1,0.8-0.2c0.4-0.2,0.6-0.3,1-0.5c0,0,0,0,0-0.1c0,0,0,0-0.1,0c-0.4,0.2-0.6,0.3-1,0.5
					C28.4,31.8,28.1,31.9,27.9,32z"/>
				<path class="st19" d="M28.7,32.5c-0.2,0.1-0.3,0.1-0.5,0.1c-0.7,0.2-1.4,0.4-2,0.8c-0.2,0.1-0.4,0.2-0.6,0.3
					c-1.2,0.7-2.5,1.9-3.7,3.2V37l0,0l0,0c1.2-1.4,2.5-2.5,3.7-3.2c0.2-0.1,0.4-0.2,0.6-0.3c0.7-0.4,1.4-0.6,2-0.8
					C28.4,32.7,28.6,32.6,28.7,32.5c0.3,0,0.6-0.1,0.8-0.2c0.4-0.2,0.6-0.3,1-0.5c0,0,0,0,0-0.1c0,0,0,0-0.1,0
					c-0.3,0.2-0.6,0.3-0.9,0.5C29.2,32.3,29,32.4,28.7,32.5z"/>
				<path class="st19" d="M29.6,33c-0.2,0.1-0.3,0.1-0.5,0.1c-0.7,0.2-1.4,0.4-2.1,0.8c-0.2,0.1-0.4,0.2-0.6,0.3
					c-1.2,0.7-2.5,1.9-3.8,3.3v0.1l0,0l0,0c1.2-1.4,2.5-2.5,3.7-3.2c0.2-0.1,0.4-0.2,0.6-0.3c0.7-0.4,1.4-0.6,2-0.8
					C29.2,33.2,29.4,33.1,29.6,33c0.3,0,0.6-0.1,0.8-0.2c0.4-0.2,0.6-0.3,0.9-0.5c0,0,0,0,0-0.1c0,0,0,0-0.1,0
					c-0.3,0.2-0.5,0.3-0.9,0.4C30.1,32.8,29.8,32.9,29.6,33z"/>
				<path class="st19" d="M30.4,33.5c-0.2,0.1-0.3,0.1-0.5,0.1c-0.7,0.2-1.4,0.4-2.1,0.8c-0.2,0.1-0.4,0.2-0.6,0.3
					c-1.2,0.7-2.5,1.9-3.8,3.3v0.1l0,0l0,0c1.2-1.4,2.5-2.5,3.7-3.2c0.2-0.1,0.4-0.2,0.6-0.3c0.7-0.4,1.4-0.6,2-0.8
					C30.1,33.7,30.2,33.6,30.4,33.5c0.3,0,0.5-0.1,0.8-0.2c0.4-0.2,0.6-0.3,0.9-0.4c0,0,0,0,0-0.1c0,0,0,0-0.1,0
					c-0.3,0.2-0.5,0.3-0.9,0.4C30.9,33.3,30.6,33.4,30.4,33.5z"/>
				<path class="st19" d="M31.2,33.9C31,34,30.9,34,30.7,34.1c-0.7,0.2-1.4,0.4-2.1,0.8c-0.2,0.1-0.4,0.2-0.6,0.3
					c-1.2,0.7-2.5,1.9-3.8,3.3v0.1l0,0l0,0c1.2-1.4,2.5-2.5,3.8-3.3c0.2-0.1,0.4-0.2,0.6-0.3c0.7-0.4,1.4-0.6,2-0.8
					C30.9,34.1,31.1,34.1,31.2,33.9c0.3,0,0.5-0.1,0.8-0.2c0.4-0.2,0.6-0.2,0.9-0.4c0,0,0,0,0-0.1c0,0,0,0-0.1,0
					c-0.3,0.2-0.5,0.3-0.9,0.4C31.7,33.8,31.5,33.9,31.2,33.9z"/>
				<path class="st19" d="M32,34.4c-0.2,0.1-0.3,0.1-0.5,0.1c-0.7,0.2-1.4,0.4-2.1,0.8c-0.2,0.1-0.4,0.2-0.6,0.3
					c-1.2,0.7-2.6,1.9-3.8,3.3V39l0,0l0,0c1.2-1.4,2.5-2.5,3.8-3.3c0.2-0.1,0.4-0.2,0.6-0.3c0.7-0.4,1.4-0.6,2-0.8
					C31.7,34.6,31.9,34.6,32,34.4c0.3,0,0.5-0.1,0.8-0.2c0.4-0.2,0.6-0.2,0.9-0.4c0,0,0,0,0-0.1c0,0,0,0-0.1,0
					c-0.3,0.2-0.5,0.3-0.9,0.4C32.6,34.2,32.3,34.3,32,34.4z"/>
				<path class="st19" d="M32.9,34.9C32.7,35,32.6,35,32.4,35c-0.7,0.2-1.4,0.4-2.1,0.8c-0.2,0.1-0.4,0.2-0.6,0.3
					c-1.2,0.8-2.6,1.9-3.8,3.3v0.1l0,0l0,0c1.2-1.4,2.5-2.5,3.8-3.3c0.2-0.1,0.4-0.2,0.6-0.3c0.7-0.4,1.4-0.6,2.1-0.8
					C32.6,35.1,32.7,35,32.9,34.9c0.3,0,0.5-0.1,0.8-0.2c0.3-0.1,0.6-0.2,0.9-0.4c0,0,0,0,0-0.1c0,0,0,0-0.1,0
					c-0.3,0.2-0.5,0.3-0.8,0.4C33.4,34.7,33.1,34.8,32.9,34.9z"/>
				<path class="st19" d="M33.7,35.4c-0.2,0.1-0.3,0.1-0.5,0.1c-0.7,0.2-1.4,0.4-2.1,0.8c-0.2,0.1-0.4,0.2-0.6,0.3
					c-1.2,0.8-2.6,1.9-3.8,3.3V40l0,0l0,0c1.2-1.4,2.6-2.5,3.8-3.3c0.2-0.1,0.4-0.2,0.6-0.3c0.7-0.4,1.4-0.6,2.1-0.8
					C33.4,35.6,33.6,35.5,33.7,35.4c0.3,0,0.5-0.1,0.8-0.2c0.3-0.1,0.5-0.2,0.8-0.4c0,0,0,0,0-0.1c0,0,0,0-0.1,0
					c-0.3,0.2-0.5,0.3-0.8,0.4C34.2,35.2,34,35.3,33.7,35.4z"/>
				<path class="st19" d="M34.5,35.8c-0.2,0.1-0.3,0.1-0.5,0.1c-0.7,0.2-1.4,0.4-2.1,0.8c-0.2,0.1-0.4,0.2-0.6,0.3
					c-1.3,0.8-2.6,1.9-3.8,3.3v0.1l0,0l0,0c1.2-1.4,2.6-2.6,3.8-3.3c0.2-0.1,0.4-0.2,0.6-0.3c0.7-0.4,1.4-0.6,2.1-0.8
					C34.2,36,34.4,36,34.5,35.8c0.3,0,0.5-0.1,0.8-0.2c0.3-0.1,0.5-0.2,0.8-0.4c0,0,0,0,0-0.1c0,0,0,0-0.1,0
					c-0.3,0.2-0.5,0.2-0.8,0.4C35,35.7,34.8,35.8,34.5,35.8z"/>
				<path class="st19" d="M35.4,36.3c-0.2,0.1-0.3,0.1-0.5,0.1c-0.7,0.2-1.4,0.4-2.1,0.8c-0.2,0.1-0.4,0.2-0.6,0.3
					c-1.3,0.8-2.6,1.9-3.8,3.3v0.1l0,0l0,0c1.3-1.4,2.6-2.6,3.8-3.3c0.2-0.1,0.4-0.2,0.6-0.3c0.7-0.4,1.4-0.6,2.1-0.8
					C35.1,36.5,35.2,36.5,35.4,36.3c0.3,0,0.5-0.1,0.8-0.2c0.3-0.1,0.5-0.2,0.8-0.4c0,0,0,0,0-0.1c0,0,0,0-0.1,0
					c-0.2,0.1-0.4,0.2-0.8,0.4C35.9,36.2,35.6,36.2,35.4,36.3z"/>
				<path class="st19" d="M37.7,36.2c-0.3,0.1-0.5,0.2-0.8,0.4c-0.3,0.1-0.5,0.2-0.8,0.3C35.9,37,35.8,37,35.6,37
					c-0.7,0.2-1.4,0.4-2.1,0.8c-0.2,0.1-0.4,0.2-0.6,0.3c-1.3,0.8-2.6,1.9-3.9,3.3v0.1l0,0l0,0c1.3-1.4,2.6-2.6,3.8-3.3
					c0.2-0.1,0.4-0.2,0.6-0.3c0.7-0.4,1.4-0.6,2.1-0.8c0.2,0,0.3-0.1,0.5-0.1c0.2-0.1,0.5-0.2,0.8-0.3
					C37.3,36.5,37.5,36.4,37.7,36.2C37.8,36.3,37.8,36.2,37.7,36.2C37.8,36.2,37.7,36.2,37.7,36.2z"/>
				<path class="st19" d="M10.6,38.6c0.2-0.1,0.3-0.3,0.5-0.4c0.7-0.6,1.3-1.2,2-1.7c0.2-0.1,0.4-0.2,0.6-0.4
					c1.2-0.7,2.5-1.2,3.7-1.3c0,0,0,0,0-0.1c0,0,0,0-0.1,0c-1.2,0.1-2.5,0.5-3.7,1.3c-0.2,0.1-0.4,0.2-0.6,0.4c-0.7,0.5-1.4,1-2,1.7
					C10.9,38.3,10.7,38.4,10.6,38.6c-0.4,0.2-0.7,0.4-0.9,0.7c-0.4,0.3-0.7,0.5-1,0.7c0,0,0,0,0,0.1l0,0l0,0c0.3-0.2,0.6-0.4,1-0.7
					S10.3,38.9,10.6,38.6z"/>
				<path class="st19" d="M11.5,39.1c0.2-0.1,0.3-0.3,0.5-0.4c0.7-0.6,1.3-1.2,2-1.7c0.2-0.1,0.4-0.2,0.6-0.4
					c1.2-0.7,2.5-1.2,3.7-1.2c0,0,0,0,0-0.1c0,0,0-0.1-0.1,0c-1.2,0.1-2.5,0.5-3.7,1.3c-0.2,0.1-0.4,0.2-0.6,0.4
					c-0.7,0.5-1.4,1-2,1.7C11.7,38.8,11.6,38.9,11.5,39.1c-0.4,0.2-0.7,0.4-0.9,0.7c-0.4,0.3-0.7,0.5-1,0.7c0,0,0,0,0,0.1l0,0l0,0
					c0.3-0.2,0.6-0.4,1-0.7C10.9,39.6,11.2,39.4,11.5,39.1z"/>
				<path class="st19" d="M12.3,39.6c0.2-0.1,0.3-0.3,0.5-0.4c0.7-0.6,1.3-1.2,2-1.7c0.2-0.1,0.4-0.3,0.6-0.4
					c1.2-0.7,2.4-1.2,3.6-1.2c0,0,0,0,0-0.1s0,0-0.1,0c-1.2,0.1-2.5,0.5-3.7,1.3c-0.2,0.1-0.4,0.2-0.6,0.4c-0.7,0.5-1.4,1-2,1.7
					C12.5,39.2,12.4,39.4,12.3,39.6c-0.4,0.2-0.7,0.4-0.9,0.7c-0.4,0.3-0.7,0.5-1,0.7c0,0,0,0,0,0.1l0,0l0,0c0.3-0.2,0.6-0.4,1-0.7
					C11.7,40.1,12,39.9,12.3,39.6z"/>
				<path class="st19" d="M13.1,40.1c0.2-0.1,0.3-0.3,0.5-0.4c0.7-0.6,1.3-1.2,2-1.7c0.2-0.1,0.4-0.3,0.6-0.4
					c1.2-0.7,2.4-1.1,3.6-1.2c0,0,0,0,0-0.1c0,0,0,0-0.1,0c-1.2,0.1-2.4,0.5-3.6,1.3c-0.2,0.1-0.4,0.2-0.6,0.4c-0.7,0.5-1.4,1-2,1.7
					C13.3,39.7,13.2,39.9,13.1,40.1c-0.4,0.2-0.6,0.4-0.9,0.7c-0.4,0.3-0.7,0.5-1,0.7c0,0,0,0,0,0.1l0,0l0,0c0.3-0.2,0.6-0.4,1-0.7
					C12.5,40.6,12.8,40.4,13.1,40.1z"/>
				<path class="st19" d="M13.9,40.6c0.2-0.1,0.3-0.3,0.5-0.4c0.7-0.6,1.3-1.2,2-1.7c0.2-0.1,0.4-0.3,0.6-0.4
					c1.2-0.7,2.4-1.1,3.6-1.2c0,0,0,0,0-0.1c0,0,0,0-0.1,0c-1.2,0.1-2.4,0.5-3.6,1.3c-0.2,0.1-0.4,0.2-0.6,0.4c-0.7,0.5-1.4,1-2,1.7
					C14.2,40.2,14,40.4,13.9,40.6c-0.4,0.2-0.6,0.4-0.9,0.7c-0.4,0.3-0.7,0.5-1,0.7c0,0,0,0,0,0.1l0,0l0,0c0.3-0.2,0.6-0.4,1-0.7
					C13.3,41.1,13.6,40.8,13.9,40.6z"/>
				<path class="st19" d="M14.7,41.1c0.2-0.1,0.3-0.3,0.5-0.4c0.7-0.6,1.3-1.2,2-1.7c0.2-0.1,0.4-0.3,0.6-0.4
					c1.2-0.7,2.4-1.1,3.5-1.2c0,0,0,0,0-0.1c0,0,0,0-0.1,0c-1.2,0.1-2.4,0.6-3.6,1.3c-0.2,0.1-0.4,0.2-0.6,0.4c-0.7,0.5-1.4,1-2,1.7
					C15,40.7,14.8,40.8,14.7,41.1c-0.4,0.2-0.6,0.4-0.9,0.7c-0.4,0.3-0.7,0.5-1,0.7c0,0,0,0,0,0.1l0,0l0,0c0.3-0.2,0.6-0.4,1-0.7
					S14.4,41.3,14.7,41.1z"/>
				<path class="st19" d="M15.6,41.5c0.2-0.1,0.3-0.3,0.5-0.4c0.7-0.6,1.3-1.2,2-1.7c0.2-0.1,0.4-0.3,0.6-0.4
					c1.1-0.7,2.4-1.1,3.5-1.2c0,0,0,0,0-0.1s0,0-0.1,0c-1.2,0.1-2.4,0.6-3.5,1.3c-0.2,0.1-0.4,0.2-0.6,0.4c-0.7,0.5-1.4,1-2,1.7
					C15.8,41.2,15.6,41.3,15.6,41.5c-0.4,0.2-0.6,0.4-0.9,0.7c-0.4,0.3-0.7,0.5-1,0.7c0,0,0,0,0,0.1l0,0l0,0c0.3-0.2,0.6-0.4,1-0.7
					C15,42.1,15.3,41.8,15.6,41.5z"/>
				<path class="st19" d="M16.4,42c0.2-0.1,0.3-0.3,0.5-0.4c0.7-0.6,1.3-1.2,2-1.7c0.2-0.1,0.4-0.3,0.6-0.4c1.1-0.7,2.3-1.1,3.5-1.2
					c0,0,0,0,0-0.1s0,0-0.1,0c-1.2,0.1-2.4,0.6-3.5,1.3c-0.2,0.1-0.4,0.2-0.6,0.4c-0.7,0.5-1.4,1-2.1,1.7
					C16.6,41.7,16.5,41.8,16.4,42c-0.4,0.2-0.6,0.4-0.9,0.7c-0.4,0.3-0.7,0.5-1,0.7c0,0,0,0,0,0.1l0,0l0,0c0.3-0.2,0.6-0.4,1.1-0.7
					C15.8,42.5,16.1,42.3,16.4,42z"/>
				<path class="st19" d="M17.2,42.5c0.2-0.1,0.3-0.3,0.5-0.4c0.7-0.6,1.4-1.2,2-1.7c0.2-0.1,0.4-0.3,0.6-0.4
					c1.1-0.7,2.3-1.1,3.4-1.2c0,0,0,0,0-0.1s0,0-0.1,0c-1.1,0.1-2.3,0.6-3.5,1.3c-0.2,0.1-0.4,0.2-0.6,0.4c-0.7,0.5-1.4,1-2.1,1.7
					C17.4,42.2,17.3,42.3,17.2,42.5c-0.4,0.2-0.6,0.4-0.9,0.6c-0.4,0.3-0.7,0.5-1.1,0.7c0,0,0,0,0,0.1l0,0l0,0
					c0.3-0.2,0.6-0.4,1.1-0.8C16.6,43,16.9,42.8,17.2,42.5z"/>
				<path class="st19" d="M18,43c0.2-0.1,0.3-0.3,0.5-0.4c0.7-0.6,1.4-1.2,2-1.7c0.2-0.1,0.4-0.3,0.6-0.4c1.1-0.7,2.3-1.1,3.4-1.2
					c0,0,0,0,0-0.1s0,0-0.1,0c-1.1,0.1-2.3,0.6-3.5,1.3c-0.2,0.1-0.4,0.2-0.6,0.4c-0.7,0.5-1.4,1.1-2.1,1.7
					C18.3,42.6,18.1,42.8,18,43c-0.4,0.2-0.6,0.4-0.9,0.6c-0.4,0.3-0.7,0.6-1.1,0.8c0,0,0,0,0,0.1l0,0l0,0c0.3-0.2,0.7-0.4,1.1-0.8
					C17.4,43.5,17.7,43.3,18,43z"/>
				<path class="st19" d="M18.8,43.5c0.2-0.1,0.3-0.3,0.5-0.4c0.7-0.6,1.4-1.2,2-1.7c0.2-0.1,0.4-0.3,0.6-0.4
					c1.1-0.7,2.3-1.1,3.4-1.2c0,0,0,0,0-0.1c0,0,0,0-0.1,0c-1.1,0.1-2.3,0.6-3.4,1.3c-0.2,0.1-0.4,0.2-0.6,0.4
					c-0.7,0.5-1.4,1.1-2.1,1.7C19.1,43.1,18.9,43.3,18.8,43.5c-0.4,0.2-0.6,0.4-0.9,0.6c-0.4,0.3-0.7,0.6-1.1,0.8c0,0,0,0,0,0.1l0,0
					l0,0c0.3-0.2,0.7-0.4,1.1-0.8C18.3,44,18.5,43.7,18.8,43.5z"/>
				<path class="st19" d="M19.6,44c0.2-0.1,0.3-0.3,0.5-0.4c0.7-0.6,1.4-1.2,2.1-1.7c0.2-0.1,0.4-0.3,0.6-0.4
					c1.1-0.7,2.3-1.1,3.4-1.2c0,0,0,0,0-0.1c0,0,0,0-0.1,0c-1.1,0.2-2.3,0.6-3.4,1.3c-0.2,0.1-0.4,0.2-0.6,0.4
					c-0.7,0.5-1.4,1.1-2.1,1.7C19.9,43.6,19.7,43.8,19.6,44c-0.4,0.2-0.6,0.4-0.9,0.6c-0.4,0.3-0.8,0.6-1.1,0.8c0,0,0,0,0,0.1l0,0
					l0,0c0.3-0.2,0.7-0.4,1.1-0.8C19.1,44.5,19.4,44.2,19.6,44z"/>
				<path class="st19" d="M20.5,44.5c0.2-0.1,0.3-0.3,0.5-0.4c0.7-0.6,1.4-1.2,2.1-1.7c0.2-0.1,0.4-0.3,0.6-0.4
					c1.1-0.7,2.2-1.1,3.3-1.2c0,0,0,0,0-0.1c0,0,0,0-0.1,0c-1.1,0.2-2.3,0.6-3.4,1.3c-0.2,0.1-0.4,0.2-0.6,0.4
					c-0.7,0.5-1.4,1.1-2.1,1.7C20.7,44.1,20.5,44.2,20.5,44.5c-0.4,0.2-0.6,0.4-0.9,0.6c-0.4,0.3-0.8,0.6-1.1,0.8c0,0,0,0,0,0.1l0,0
					l0,0c0.3-0.2,0.7-0.4,1.1-0.8C19.9,45,20.2,44.7,20.5,44.5z"/>
				<path class="st19" d="M21.3,44.9c0.2-0.1,0.3-0.3,0.5-0.4c0.7-0.7,1.4-1.2,2.1-1.7c0.2-0.1,0.4-0.3,0.6-0.4
					c1.1-0.6,2.2-1.1,3.3-1.2c0,0,0,0,0-0.1c0,0,0,0-0.1,0c-1.1,0.2-2.3,0.6-3.3,1.3c-0.2,0.1-0.4,0.2-0.6,0.4
					c-0.7,0.5-1.4,1.1-2.1,1.7C21.5,44.6,21.4,44.7,21.3,44.9c-0.4,0.2-0.6,0.4-0.9,0.6c-0.4,0.3-0.8,0.6-1.1,0.8c0,0,0,0,0,0.1l0,0
					l0,0c0.4-0.2,0.7-0.4,1.1-0.8C20.7,45.4,21,45.2,21.3,44.9z"/>
				<path class="st19" d="M25.2,42.8c-0.2,0.1-0.4,0.2-0.6,0.4c-0.7,0.5-1.4,1.1-2.1,1.7c-0.2,0.1-0.3,0.3-0.5,0.4
					c-0.3,0.3-0.6,0.5-0.9,0.7c-0.4,0.3-0.8,0.6-1.1,0.8c0,0,0,0,0,0.1l0,0l0,0c0.4-0.2,0.7-0.4,1.1-0.8c0.3-0.2,0.6-0.5,0.9-0.7
					c0.2-0.1,0.3-0.3,0.5-0.4c0.7-0.7,1.4-1.2,2.1-1.7C24.8,43.2,25,43,25.2,42.8c1.1-0.6,2.2-1,3.3-1.2c0,0,0,0,0-0.1
					c0,0,0,0-0.1,0C27.4,41.7,26.2,42.2,25.2,42.8z"/>
			</g>
		</g>
		<g>
			<g>
				<g>
					<g>
						<g class="st20">
							<g>
								<path class="st21" d="M29.1,41.9l-7.9-4.6l-0.1-0.1L29.1,41.9L29.1,41.9z"/>
							</g>
							<g>
								<path class="st22" d="M29.2,41.6c-0.1,0.1-0.1,0.1-0.1,0.2l-7.9-4.6l0.1-0.2L29.2,41.6z"/>
							</g>
							<g>
								<path class="st23" d="M29.4,41.5h-0.1c0,0-0.1,0-0.1,0.1l-8-4.6l0.2-0.1L29.4,41.5z"/>
							</g>
						</g>
					</g>
					<g>
						<polygon class="st24" points="30.3,42.2 30.3,42.3 30.3,42.3 30.3,42.3 30.2,42.3 30.3,42.3 						"/>
					</g>
					<path d="M30.3,42.2L30,42l0,0c0,0,0,0-0.1,0l-0.1,0.1l0,0L30.3,42.2C30.3,42.3,30.3,42.3,30.3,42.2
						C30.3,42.3,30.3,42.3,30.3,42.2z"/>
					<path class="st25" d="M21.7,37h-0.1l-0.1,0.1c0,0.1-0.1,0.1-0.1,0.2v0.1L21,37.1c0,0-0.1,0-0.1-0.1s0-0.1,0.1-0.2
						c0-0.1,0.1-0.1,0.1-0.1h0.1l0,0L21.7,37z"/>
					<path class="st26" d="M29.4,41.5L29.4,41.5L29.4,41.5z"/>
				</g>
				<path class="st27" d="M29.4,41.5L29.4,41.5L29.4,41.5c-0.1,0-0.2,0-0.2,0s0,0,0,0.1l0,0c0,0-0.1,0.1-0.1,0.2l0,0v0.1l0,0
					l0.8,0.3l0,0c0,0,0-0.1,0.1-0.1c0,0,0,0,0.1,0L29.4,41.5z"/>
			</g>
			
				<linearGradient id="SVGID_1_" gradientUnits="userSpaceOnUse" x1="21.7732" y1="2543.1643" x2="21.5925" y2="2543.4897" gradientTransform="matrix(1 0 0 1 0 -2506)">
				<stop  offset="0" style="stop-color:#78ACED"/>
				<stop  offset="1" style="stop-color:#4F7BB3"/>
			</linearGradient>
			<path class="st28" d="M22.1,37.3L22.1,37.3L22.1,37.3L21.7,37l0,0l0,0h-0.1l0,0h-0.1c-0.1,0-0.1,0.1-0.1,0.1
				c0,0.1-0.1,0.1-0.1,0.2c0,0,0,0.1,0.1,0.1h0.1l0,0l0,0l0.3,0.2l0,0l0,0l0.1,0.1l0,0l0,0l0,0c0,0,0,0,0-0.1l0,0v-0.1l0,0l0.1-0.1
				l0,0C22,37.3,22,37.2,22.1,37.3L22.1,37.3L22.1,37.3L22.1,37.3L22.1,37.3z"/>
		</g>
	</g>
</g>
<radialGradient id="SVGID_00000168819027521821217980000017459154842495419815_" cx="-766.8743" cy="4511.8828" r="15.9017" gradientTransform="matrix(1.5353 0 0 0.4819 1202.3821 -2132.7764)" gradientUnits="userSpaceOnUse">
	<stop  offset="0.4351" style="stop-color:#B4BCC1"/>
	<stop  offset="0.94" style="stop-color:#ECEEEF;stop-opacity:0"/>
</radialGradient>
<ellipse style="fill:url(#SVGID_00000168819027521821217980000017459154842495419815_);" cx="25" cy="41.5" rx="24.4" ry="7.7"/>
<g>
	<g>
		<polygon id="XMLID_21720_" class="st30" points="3.751,35.065 3.751,34.162 23.913,45.802 23.913,46.704 		"/>
		<polygon id="XMLID_21719_" class="st31" points="23.913,43.929 23.913,46.145 46.391,33.176 46.391,30.958 		"/>
		<path id="XMLID_8213_" class="st32" d="M17.234,40.073l22.473-12.974c0,0,1.309,0.721,2.406,1.083
			c0.485,0.161,1.506,1.209,1.846,1.435c0.452,0.3,1.197,0.34,1.612,0.624c0.326,0.223,0.82,0.718,0.82,0.718l-22.478,12.97
			L17.234,40.073z"/>
		<path id="XMLID_1629_" class="st32" d="M9.172,35.433l22.473-12.974c0,0,1.309,0.721,2.406,1.083
			c0.485,0.161,1.506,1.209,1.846,1.435c0.452,0.3,1.197,0.34,1.612,0.624c0.326,0.223,0.82,0.718,0.82,0.718L15.852,39.288
			L9.172,35.433z"/>
		<path id="XMLID_1630_" class="st32" d="M3.746,32.292l22.473-12.974c0,0,1.309,0.721,2.406,1.083
			c0.485,0.161,1.506,1.209,1.846,1.435c0.452,0.3,1.197,0.34,1.612,0.624c0.326,0.223,0.82,0.718,0.82,0.718l-22.478,12.97
			L3.746,32.292z"/>
		<polygon id="XMLID_21717_" class="st33" points="3.751,32.288 26.227,19.318 39.705,27.099 17.232,40.071 		"/>
		<g id="XMLID_22_">
			<polygon id="XMLID_2644_" class="st34" points="46.391,33.743 46.391,32.842 23.913,45.802 23.913,46.704 			"/>
		</g>
		<path id="XMLID_21713_" class="st35" d="M43.538,32.287c-0.815,0.47-2.395,1.698-3.211,2.169
			c-1.296,0.748-3.718,1.593-4.986,2.388c-1.89,1.185-3.365,2.372-7.73,4.28c-1.131,0.493-3.698,2.803-3.698,2.803v2.218
			l22.478-12.969v-2.218C46.391,30.958,44.235,31.886,43.538,32.287z"/>
		
			<linearGradient id="XMLID_00000008860054698243150700000001641710601088672675_" gradientUnits="userSpaceOnUse" x1="13.3448" y1="489.7022" x2="15.4358" y2="485.6707" gradientTransform="matrix(-1 0 0 1 50.131 -448)">
			<stop  offset="0.0101" style="stop-color:#1E7A92"/>
			<stop  offset="1" style="stop-color:#FFFFFF;stop-opacity:0"/>
		</linearGradient>
		<path id="XMLID_8229_" style="fill:url(#XMLID_00000008860054698243150700000001641710601088672675_);" d="M43.538,32.287
			c-0.815,0.47-2.395,1.698-3.211,2.169c-1.296,0.748-3.718,1.593-4.986,2.388c-1.89,1.185-3.365,2.372-7.73,4.28
			c-1.131,0.493-3.698,2.803-3.698,2.803v2.218l22.478-12.969v-2.218C46.391,30.958,44.235,31.886,43.538,32.287z"/>
		
			<linearGradient id="XMLID_00000105393673792505558410000002957789316993895854_" gradientUnits="userSpaceOnUse" x1="16.3543" y1="484.1674" x2="15.3519" y2="485.9051" gradientTransform="matrix(-1 0 0 1 50.131 -448)">
			<stop  offset="0.0101" style="stop-color:#FFFFFF"/>
			<stop  offset="1" style="stop-color:#FFFFFF;stop-opacity:0"/>
		</linearGradient>
		<path id="XMLID_8230_" style="fill:url(#XMLID_00000105393673792505558410000002957789316993895854_);" d="M43.538,32.287
			c-0.815,0.47-2.395,1.698-3.211,2.169c-1.296,0.748-3.718,1.593-4.986,2.388c-1.89,1.185-3.365,2.372-7.73,4.28
			c-1.131,0.493-3.698,2.803-3.698,2.803v2.218l22.478-12.969v-2.218C46.391,30.958,44.235,31.886,43.538,32.287z"/>
		<g id="XMLID_8270_">
			<path id="XMLID_8271_" class="st38" d="M44.775,31.679c-0.034,0.017-0.084,0.042-0.151,0.075
				c-0.133,0.065-0.329,0.163-0.582,0.287c-0.253,0.125-0.556,0.285-0.887,0.511c-0.332,0.22-0.705,0.485-1.114,0.779
				c-0.411,0.292-0.857,0.617-1.354,0.944c-0.498,0.33-1.074,0.605-1.68,0.881c-0.609,0.271-1.248,0.553-1.912,0.847
				c-0.659,0.302-1.342,0.613-1.98,1.039c-0.647,0.414-1.271,0.833-1.89,1.222c-0.615,0.386-1.221,0.741-1.806,1.06
				c-1.172,0.639-2.261,1.149-3.183,1.558c-0.231,0.102-0.45,0.198-0.658,0.29c-0.204,0.093-0.388,0.204-0.556,0.31
				c-0.337,0.214-0.616,0.418-0.842,0.585c-0.224,0.17-0.399,0.302-0.517,0.392c-0.059,0.044-0.103,0.078-0.134,0.102
				c-0.029,0.023-0.046,0.034-0.047,0.033c-0.002-0.002,0.013-0.015,0.041-0.04c0.029-0.025,0.073-0.062,0.129-0.109
				c0.114-0.096,0.284-0.234,0.507-0.406s0.5-0.381,0.835-0.601c0.168-0.11,0.352-0.223,0.56-0.321
				c0.207-0.094,0.427-0.193,0.656-0.296c0.916-0.417,2.001-0.933,3.168-1.574c0.584-0.323,1.186-0.676,1.799-1.063
				c0.614-0.388,1.237-0.807,1.886-1.221c0.645-0.428,1.335-0.743,1.994-1.043c0.665-0.291,1.305-0.574,1.915-0.841
				c0.607-0.273,1.18-0.542,1.674-0.866c0.496-0.324,0.944-0.646,1.358-0.934c0.413-0.289,0.788-0.551,1.125-0.768
				c0.335-0.223,0.646-0.381,0.9-0.501c0.255-0.123,0.454-0.211,0.59-0.272c0.068-0.03,0.12-0.052,0.155-0.067
				c0.036-0.015,0.055-0.02,0.055-0.019C44.83,31.654,44.812,31.663,44.775,31.679z"/>
		</g>
		<g id="XMLID_958_" class="st39">
			<path id="XMLID_959_" class="st40" d="M16.463,27.797c0.211-0.089,0.471-0.163,0.755-0.241c0.283-0.08,0.592-0.165,0.882-0.319
				c0.289-0.155,0.537-0.361,0.768-0.544c0.231-0.185,0.445-0.352,0.643-0.467c0.396-0.24,0.696-0.254,0.696-0.233
				c0.008,0.033-0.266,0.092-0.622,0.349c-0.18,0.124-0.378,0.295-0.603,0.489c-0.226,0.192-0.479,0.41-0.792,0.578
				c-0.316,0.166-0.641,0.25-0.928,0.321c-0.288,0.07-0.546,0.128-0.754,0.197c-0.422,0.13-0.637,0.304-0.658,0.279
				C15.834,28.193,16.032,27.971,16.463,27.797z"/>
		</g>
		<g id="XMLID_955_" class="st39">
			<path id="XMLID_956_" class="st40" d="M32.873,28.335c0.211-0.089,0.471-0.163,0.755-0.241c0.283-0.08,0.592-0.165,0.882-0.319
				c0.289-0.155,0.537-0.361,0.768-0.544c0.229-0.185,0.443-0.352,0.641-0.467c0.396-0.24,0.696-0.254,0.696-0.233
				c0.008,0.033-0.266,0.092-0.622,0.349c-0.18,0.124-0.378,0.295-0.603,0.489c-0.226,0.192-0.479,0.41-0.792,0.578
				c-0.316,0.166-0.641,0.25-0.928,0.321c-0.288,0.07-0.546,0.128-0.754,0.197c-0.422,0.13-0.637,0.304-0.658,0.279
				C32.241,28.731,32.439,28.507,32.873,28.335z"/>
		</g>
		<g id="XMLID_935_" class="st39">
			<path id="XMLID_946_" class="st40" d="M23.637,32.99c0.211-0.089,0.471-0.163,0.755-0.241c0.283-0.08,0.592-0.165,0.882-0.319
				c0.289-0.155,0.537-0.361,0.768-0.544c0.229-0.185,0.443-0.352,0.641-0.467c0.396-0.24,0.696-0.254,0.696-0.233
				c0.008,0.033-0.266,0.092-0.622,0.349c-0.18,0.124-0.378,0.295-0.603,0.489c-0.226,0.192-0.479,0.41-0.792,0.578
				c-0.316,0.166-0.641,0.25-0.928,0.321c-0.288,0.07-0.546,0.128-0.754,0.197c-0.422,0.13-0.637,0.304-0.658,0.279
				C23.006,33.386,23.204,33.163,23.637,32.99z"/>
		</g>
		<path id="XMLID_1638_" class="st41" d="M3.74,32.29v2.217l6.681,3.857l6.807,3.924l6.681,3.857v-2.218
			c0,0-0.747-0.628-1.051-0.804c-0.497-0.287-1.269-0.535-1.766-0.822c-0.233-0.135-0.804-0.722-1.321-0.93
			c-0.344-0.139-1.098-0.378-1.553-0.91c-0.334-0.39-0.989-0.39-0.989-0.39V40.07c0,0-0.747-0.628-1.051-0.804
			c-0.497-0.287-1.269-0.535-1.766-0.822c-0.233-0.135-0.804-0.722-1.321-0.93c-0.344-0.139-1.098-0.378-1.553-0.91
			c-0.226-0.263-0.997-0.577-1.473-0.751c-0.235-0.188-0.528-0.415-0.692-0.51c-0.497-0.287-1.269-0.535-1.766-0.822
			c-0.233-0.135-0.804-0.722-1.321-0.93c-0.344-0.139-1.098-0.378-1.553-0.91C4.399,32.291,3.744,32.291,3.74,32.29z"/>
		<g id="XMLID_00000133519598358949058960000017189744407572908982_" class="st39">
			<path id="XMLID_00000088832092132774976860000015243384996807087751_" class="st40" d="M25.015,23.091
				c-0.288,0.07-0.546,0.128-0.754,0.197c-0.422,0.13-0.637,0.304-0.658,0.279c-0.017-0.013,0.181-0.237,0.61-0.408
				c0.211-0.089,0.471-0.163,0.755-0.241c0.283-0.08,0.592-0.165,0.882-0.319c0.289-0.155,0.537-0.361,0.768-0.544
				c0.229-0.185,0.443-0.352,0.641-0.467c0.396-0.24,0.696-0.254,0.696-0.233c0.008,0.033-0.266,0.092-0.622,0.349
				c-0.18,0.124-0.378,0.295-0.603,0.489c-0.226,0.192-0.479,0.41-0.792,0.578"/>
		</g>
	</g>
	<g>
		<g id="XMLID_28_">
			<g id="XMLID_581_">
				<polygon id="XMLID_2271_" class="st42" points="30.216,37.785 35.196,34.927 35.196,27.677 30.216,30.534 				"/>
				<g id="XMLID_1525_">
					<polygon id="XMLID_2270_" class="st43" points="32.13,31.942 34.095,30.807 34.095,35.248 32.13,36.383 					"/>
					<polygon id="XMLID_1565_" class="st43" points="32.13,31.942 32.13,36.12 33.869,35.115 33.869,30.937 					"/>
					<g id="XMLID_1534_">
						<path id="XMLID_1558_" class="st44" d="M33.689,31.04v1.234l-0.619,0.358v-1.234L33.689,31.04L33.689,31.04z M32.885,35.474
							l-0.625,0.361v-1.218l0.625-0.361V35.474L32.885,35.474z M32.885,34.107V32.89l-0.625,0.362v1.216L32.885,34.107
							L32.885,34.107z M32.885,31.504v1.233l-0.625,0.361v-1.233L32.885,31.504L32.885,31.504z M33.07,34.151l0.619-0.358v1.216
							l-0.619,0.358V34.151L33.07,34.151z M33.07,33.999l0.619-0.358v-1.216l-0.619,0.358V33.999z"/>
					</g>
					<polygon id="XMLID_1533_" class="st45" points="34.095,30.807 33.869,30.937 33.869,35.115 34.095,35.248 					"/>
					<polygon id="XMLID_1532_" class="st46" points="32.13,36.383 32.13,36.12 33.869,35.115 34.095,35.248 					"/>
					<polygon id="XMLID_1531_" class="st47" points="33.07,32.632 33.07,32.685 33.689,32.328 33.689,32.274 					"/>
					<polygon id="XMLID_1530_" class="st47" points="33.07,33.996 33.07,34.049 33.689,33.692 33.689,33.638 					"/>
					<polygon id="XMLID_1529_" class="st47" points="33.07,35.366 33.07,35.419 33.689,35.06 33.689,35.008 					"/>
					<polygon id="XMLID_1528_" class="st47" points="32.26,33.099 32.26,33.152 32.885,32.79 32.885,32.738 					"/>
					<polygon id="XMLID_1527_" class="st47" points="32.26,34.463 32.26,34.516 32.885,34.154 32.885,34.102 					"/>
					<polygon id="XMLID_1526_" class="st47" points="32.26,35.832 32.26,35.886 32.885,35.524 32.885,35.472 					"/>
				</g>
				<polygon id="XMLID_1523_" class="st42" points="22.456,34.11 27.025,31.49 27.025,37.366 22.456,39.966 				"/>
				<polygon id="XMLID_1522_" class="st43" points="23.434,34.463 26.08,32.939 26.08,37.903 23.434,39.411 				"/>
				<polygon id="XMLID_1521_" class="st45" points="25.561,33.91 25.434,33.839 25.434,37.485 25.561,37.556 				"/>
				<polygon id="XMLID_00000035508311855348427150000016457909322607232650_" class="st46" points="23.999,34.738 24.126,34.667 
					24.126,38.313 23.999,38.384 				"/>
				<polygon id="XMLID_1519_" class="st46" points="23.999,38.459 23.999,38.314 25.434,37.485 25.561,37.556 				"/>
				<polygon id="XMLID_1515_" class="st46" points="26.015,37.94 26.08,37.903 26.08,32.939 26.015,32.976 				"/>
				<polygon id="XMLID_1445_" class="st48" points="30.216,37.785 27.025,36.712 27.025,28.691 30.216,30.534 				"/>
				<g id="XMLID_1436_">
					<polygon id="XMLID_1441_" class="st49" points="30.73,36.31 31.819,35.684 31.819,32.013 30.73,32.639 					"/>
					<polygon id="XMLID_1437_" points="30.73,36.318 30.216,36.033 30.216,32.95 30.73,32.639 					"/>
				</g>
				<g id="XMLID_1426_">
					<polygon id="XMLID_1432_" class="st50" points="21.99,33.692 34.375,26.542 37.706,28.476 25.32,35.628 					"/>
					<polygon id="XMLID_1430_" class="st48" points="25.32,35.628 25.32,36.016 21.99,34.08 21.99,33.692 					"/>
					<polygon id="XMLID_1428_" class="st40" points="25.32,36.016 25.32,35.628 37.706,28.476 37.706,28.865 					"/>
				</g>
				<polyline id="XMLID_00000152975973625613586920000005314342022277715860_" class="st51" points="12.847,35.257 22.456,39.966 
					22.456,34.349 21.99,34.08 21.99,33.692 23.108,33.046 25.338,34.349 25.338,34.039 25.592,33.891 16.412,23.638 12.847,26.186 
					12.847,35.257 				"/>
				<polygon id="XMLID_1421_" class="st52" points="16.768,23.595 26.813,17.796 35.835,27.971 25.79,33.777 				"/>
				<polygon id="XMLID_1326_" class="st53" points="12.193,26.214 16.45,23.241 25.802,33.77 25.551,33.916 16.412,23.799 
					12.405,26.598 				"/>
				<polygon id="XMLID_1325_" class="st54" points="16.447,23.26 16.412,23.195 26.458,17.394 26.493,17.461 				"/>
				<polygon id="XMLID_1323_" class="st55" points="12.21,26.26 12.156,26.168 16.412,23.195 16.487,23.279 				"/>
				<polygon id="XMLID_1322_" class="st56" points="16.469,23.258 26.514,17.458 26.873,17.864 16.83,23.666 				"/>
				<polygon id="XMLID_1320_" class="st57" points="16.412,23.195 26.458,17.394 26.533,17.48 16.487,23.279 				"/>
				<polygon id="XMLID_1319_" class="st58" points="36.222,28.038 25.592,34.187 25.336,34.039 35.832,27.967 35.552,27.652 				"/>
				<polygon id="XMLID_1317_" class="st57" points="36.222,28.509 25.592,34.66 25.592,34.187 36.222,28.038 				"/>
				<polygon id="XMLID_1316_" class="st59" points="25.338,34.039 25.592,34.187 25.592,34.66 25.338,34.512 				"/>
				<g id="XMLID_583_">
					<g id="XMLID_679_">
						<polygon id="XMLID_1308_" class="st43" points="20.276,32.957 18.263,31.796 18.263,36.236 20.276,37.398 						"/>
						<polygon id="XMLID_1307_" class="st60" points="20.276,32.957 20.276,37.133 18.489,36.103 18.489,31.926 						"/>
						<g id="XMLID_688_">
							<path id="XMLID_1289_" class="st44" d="M18.67,32.031l0.619,0.358v1.234l-0.619-0.358V32.031L18.67,32.031z M19.474,36.463
								v-1.216l0.625,0.361v1.216L19.474,36.463L19.474,36.463z M19.474,35.096l0.625,0.36V34.24l-0.625-0.362V35.096L19.474,35.096
								z M19.474,32.495l0.625,0.361v1.232l-0.625-0.361V32.495z M19.289,35.14v1.216l-0.619-0.358v-1.216L19.289,35.14
								L19.289,35.14z M19.289,33.773l-0.619-0.358v1.216l0.619,0.358V33.773z"/>
						</g>
						<polygon id="XMLID_687_" class="st61" points="18.263,31.796 18.489,31.926 18.489,36.103 18.263,36.236 						"/>
						<polygon id="XMLID_686_" class="st62" points="20.276,37.398 20.276,37.133 18.489,36.103 18.263,36.236 						"/>
						<polygon id="XMLID_685_" class="st47" points="19.289,33.621 19.289,33.674 18.67,33.315 18.67,33.263 						"/>
						<polygon id="XMLID_684_" class="st47" points="19.289,34.985 19.289,35.038 18.67,34.679 18.67,34.627 						"/>
						<polygon id="XMLID_683_" class="st47" points="19.289,36.353 19.289,36.408 18.67,36.049 18.67,35.997 						"/>
						<polygon id="XMLID_682_" class="st47" points="20.099,34.088 20.099,34.141 19.474,33.779 19.474,33.727 						"/>
						<polygon id="XMLID_681_" class="st47" points="20.099,35.452 20.099,35.505 19.474,35.143 19.474,35.091 						"/>
						<polygon id="XMLID_680_" class="st47" points="20.099,36.82 20.099,36.873 19.474,36.513 19.474,36.46 						"/>
					</g>
					<g id="XMLID_584_">
						<polygon id="XMLID_678_" class="st43" points="17.128,31.141 15.117,29.979 15.117,34.42 17.128,35.582 						"/>
						<polygon id="XMLID_676_" class="st60" points="17.128,31.141 17.128,35.319 15.343,34.289 15.343,30.111 						"/>
						<g id="XMLID_637_">
							<path id="XMLID_669_" class="st44" d="M15.524,30.214l0.619,0.358v1.234l-0.619-0.358V30.214L15.524,30.214z M16.327,34.648
								v-1.216l0.625,0.361v1.216L16.327,34.648L16.327,34.648z M16.327,33.279l0.625,0.362v-1.216l-0.625-0.362V33.279
								L16.327,33.279z M16.327,30.679l0.625,0.361v1.233l-0.625-0.361V30.679z M16.143,33.325v1.216l-0.619-0.358v-1.216
								L16.143,33.325L16.143,33.325z M16.143,31.957l-0.619-0.358v1.216l0.619,0.358V31.957z"/>
						</g>
						<polygon id="XMLID_636_" class="st61" points="15.117,29.979 15.343,30.111 15.343,34.289 15.117,34.42 						"/>
						<polygon id="XMLID_635_" class="st62" points="17.128,35.582 17.128,35.319 15.343,34.289 15.117,34.42 						"/>
						<polygon id="XMLID_634_" class="st47" points="16.143,31.806 16.143,31.859 15.524,31.5 15.524,31.448 						"/>
						<polygon id="XMLID_614_" class="st47" points="16.143,33.169 16.143,33.223 15.524,32.864 15.524,32.812 						"/>
						<polygon id="XMLID_611_" class="st47" points="16.143,34.538 16.143,34.592 15.524,34.234 15.524,34.181 						"/>
						<polygon id="XMLID_594_" class="st47" points="16.953,32.273 16.953,32.326 16.327,31.964 16.327,31.911 						"/>
						<polygon id="XMLID_589_" class="st47" points="16.953,33.637 16.953,33.69 16.327,33.328 16.327,33.275 						"/>
						<polygon id="XMLID_586_" class="st47" points="16.953,35.005 16.953,35.059 16.327,34.697 16.327,34.645 						"/>
					</g>
				</g>
			</g>
			<g id="XMLID_572_">
				<polygon id="XMLID_578_" class="st33" points="38.143,34.68 25.695,41.453 12.006,35.419 12.788,29.705 25.32,37.003 
					37.951,29.489 				"/>
			</g>
		</g>
	</g>
	<g id="XMLID_948_" class="st39">
		<path id="XMLID_949_" class="st40" d="M12.265,34.737c0.211-0.089,0.471-0.163,0.755-0.241c0.283-0.08,0.592-0.165,0.882-0.319
			c0.289-0.155,0.537-0.361,0.768-0.544c0.231-0.185,0.445-0.352,0.643-0.467c0.396-0.24,0.696-0.254,0.696-0.233
			c0.008,0.033-0.266,0.092-0.622,0.349c-0.18,0.124-0.378,0.295-0.603,0.489c-0.226,0.192-0.479,0.41-0.792,0.578
			c-0.316,0.166-0.641,0.25-0.928,0.321c-0.288,0.07-0.546,0.128-0.754,0.197c-0.422,0.13-0.637,0.304-0.658,0.279
			C11.635,35.133,11.833,34.909,12.265,34.737z"/>
	</g>
	<g id="XMLID_00000152227592043903350350000009843130095102991770_" class="st39">
		<path id="XMLID_00000088103231407473845640000015425354969236654999_" class="st40" d="M22.771,40.394
			c-0.288,0.07-0.546,0.128-0.754,0.197c-0.422,0.13-0.637,0.304-0.658,0.279c-0.017-0.013,0.181-0.237,0.61-0.408
			c0.211-0.089,0.471-0.163,0.755-0.241c0.283-0.08,0.592-0.165,0.882-0.319c0.289-0.155,0.537-0.361,0.768-0.544
			c0.229-0.185,0.443-0.352,0.641-0.467c0.396-0.24,0.696-0.254,0.696-0.233c0.008,0.033-0.266,0.092-0.622,0.349
			c-0.18,0.124-0.378,0.295-0.603,0.489c-0.226,0.192-0.479,0.41-0.792,0.578"/>
	</g>
	<g id="XMLID_8792_" class="st39">
		<path id="XMLID_8854_" class="st40" d="M37.602,33.728c0.267-0.159,0.662-0.317,1.083-0.497c0.421-0.18,0.777-0.387,1.003-0.576
			c0.229-0.186,0.34-0.338,0.365-0.322c0.02,0.011-0.053,0.197-0.273,0.423c-0.217,0.228-0.586,0.467-1.018,0.652
			c-0.431,0.185-0.824,0.319-1.099,0.442c-0.275,0.118-0.439,0.21-0.455,0.186C37.193,34.017,37.333,33.882,37.602,33.728z"/>
	</g>
</g>
<ellipse transform="matrix(0.9842 -0.1769 0.1769 0.9842 -5.432 5.0137)" cx="25.402" cy="32.971" rx="0.338" ry="0.241"/>
</svg>
