<?xml version="1.0" encoding="utf-8"?>
<!-- Generator: Adobe Illustrator 25.4.1, SVG Export Plug-In . SVG Version: 6.00 Build 0)  -->
<svg version="1.1" id="Layer_1" xmlns="http://www.w3.org/2000/svg" xmlns:xlink="http://www.w3.org/1999/xlink" x="0px" y="0px"
	 viewBox="0 0 50 50" style="enable-background:new 0 0 50 50;" xml:space="preserve">
<style type="text/css">
	.st0{display:none;}
	.st1{display:inline;}
	.st2{fill:#344593;}
	.st3{fill:#3E54A3;}
	.st4{fill:#2E4490;}
	.st5{fill:#122571;}
	.st6{opacity:0.5;fill:#031F60;enable-background:new    ;}
	.st7{fill:#BBDFFF;}
	.st8{fill:#FDB724;}
	.st9{fill:#E7478D;}
	.st10{fill:#BF2878;}
	.st11{fill:#27DEBF;}
	.st12{fill:#1BBC9D;}
	.st13{fill:#A33D64;}
	.st14{fill:#82294D;}
	.st15{fill:#0A4A80;}
	.st16{fill:#F1FCFF;}
	.st17{fill:#D6E6FF;}
	.st18{fill:#CEF3FF;}
	.st19{fill:#606060;}
	.st20{enable-background:new    ;}
	.st21{fill:#F19729;}
	.st22{fill:#FCB040;}
	.st23{fill:#FFCB49;}
	.st24{fill:#2E5677;}
	.st25{fill:#FF51CE;}
	.st26{fill:#EDE6A0;}
	.st27{fill:#FFF7B0;}
	.st28{fill:url(#SVGID_1_);}
	.st29{fill:url(#SVGID_00000078763509015923968210000007239305801143282841_);}
	.st30{fill:#DCB146;}
	.st31{fill:url(#SVGID_00000170958165260697936400000004910149623896338093_);}
	.st32{fill:#EABC4B;}
	.st33{fill:#937325;}
	.st34{fill:#FACB58;}
	.st35{fill:url(#Cylinder_body_00000013882014435628031720000000358910105394076064_);}
	.st36{fill:url(#Cylinder_body_00000121252603062302123260000001918090481365713563_);}
	.st37{fill:url(#Cylinder_body_00000032650700142540285490000001500830899710817667_);}
	.st38{fill:url(#Cylinder_body_00000042013939706801445620000003450773983054009020_);}
	.st39{fill:url(#Cylinder_body_00000168830473801669941900000011653139904685847706_);}
	.st40{fill:url(#Cylinder_body_00000174590118674009116930000008269356502054196126_);}
	.st41{fill:url(#Cylinder_body_00000130609762254069503760000007479048170342864303_);}
	.st42{fill:url(#Cylinder_body_00000021814356608426174450000007841528267036216964_);}
	.st43{fill:url(#Cylinder_body_00000099646116710018683060000001444599606777729429_);}
	.st44{fill:#FF6C6C;}
	.st45{fill:#FF5252;}
	.st46{fill:#FF9797;}
	.st47{fill:#5E96EA;}
	.st48{fill:#3D7CE2;}
	.st49{fill:#97BBEF;}
</style>
<g id="Example" class="st0">
	<g class="st1">
		<g id="XMLID_4903_">
			<path id="XMLID_4905_" class="st2" d="M45.3,33.2v-4.6l0,0c0-0.9-0.6-1.8-1.7-2.4c-2.3-1.3-6-1.3-8.4,0c-1.2,0.7-1.7,1.6-1.7,2.4
				l0,0v4.5c0,0.9,0.6,1.8,1.7,2.4c2.3,1.3,6,1.3,8.4,0C44.8,34.9,45.3,34.1,45.3,33.2L45.3,33.2L45.3,33.2L45.3,33.2z"/>
			<path id="XMLID_4904_" class="st2" d="M45.3,33.2v-4.6l0,0c0-0.9-0.6-1.8-1.7-2.4c-2.3-1.3-6-1.3-8.4,0c-1.2,0.7-1.7,1.6-1.7,2.4
				l0,0v4.5c0,0.9,0.6,1.8,1.7,2.4c2.3,1.3,6,1.3,8.4,0C44.8,34.9,45.3,34.1,45.3,33.2L45.3,33.2L45.3,33.2L45.3,33.2z"/>
		</g>
		<polygon id="XMLID_4900_" class="st3" points="39.4,23 29.7,28.6 39.4,34.2 49.2,28.6 		"/>
		<path id="XMLID_4899_" class="st4" d="M44.3,31.4l-4.8-2.7c-0.1,0-0.2,0-0.2,0.1s0,0.2,0.1,0.2l4.6,2.6L44.3,31.4z"/>
		<polygon id="XMLID_4896_" class="st5" points="29.7,28.6 29.7,29 39.4,34.6 39.4,34.2 		"/>
		<polygon id="XMLID_4883_" class="st4" points="49.2,28.6 49.2,29 39.4,34.6 39.4,34.2 		"/>
		<polygon id="XMLID_4876_" class="st6" points="33.5,31.2 39.4,35.2 45.3,31.2 39.4,34.6 		"/>
		<g id="XMLID_4823_">
			<path id="XMLID_4835_" class="st7" d="M44.7,36.2c-0.1,0-0.2-0.1-0.2-0.2v-4c0-0.2-0.1-0.4-0.3-0.4l-4.9-2.8
				c-0.1,0-0.1-0.2-0.1-0.2c0-0.1,0.2-0.1,0.2-0.1l4.9,2.8c0.3,0.2,0.4,0.4,0.4,0.7v4C44.8,36.1,44.7,36.2,44.7,36.2z"/>
		</g>
		<path class="st8" d="M45.3,39.3L45,36.6c0.1-0.1,0.1-0.2,0-0.2l0,0l0,0l0,0v-0.1l0,0l0,0l0,0c0-0.2-0.2-0.4-0.4-0.4c0,0,0,0-0.1,0
			l0,0l0,0c0,0,0,0-0.1,0c0,0,0,0-0.1,0c0,0,0,0-0.1,0c0,0,0,0,0,0.1l0,0v0.1c0,0.1,0,0.2,0.1,0.3l0,0c-0.1,0.1,0,0.2,0,0.2L44,39.3
			c0,0.1,0.1,0.2,0.3,0.3l0,0h0.1l0,0c0.1,0,0.2,0.1,0.3,0.1l0,0l0,0l0,0l0,0l0,0c0.1,0,0.2,0,0.3-0.1l0,0h0.1l0,0
			C45.3,39.5,45.3,39.4,45.3,39.3z"/>
	</g>
	<g id="XMLID_3738_" class="st1">
		<path id="XMLID_4404_" class="st9" d="M12.4,36.1c1.1-0.8,1.8-2.7,1.7-4c-0.1-1.4-1.2-2-1.7-2.3l0,0c-1.1-0.6-2.8-0.6-3.9,0l0,0
			C8,30.1,7,30.7,6.8,32.1c-0.1,1.3,0.6,3.2,1.7,4l0,0c0.1,0,0.1,0.1,0.2,0.1c1,0.6,2.6,0.6,3.6,0l0,0
			C12.3,36.2,12.4,36.1,12.4,36.1L12.4,36.1z"/>
		<path id="XMLID_4395_" class="st10" d="M9.9,30.8c-0.3,0.2-0.3,0.4,0,0.6s0.8,0.2,1.1,0s0.3-0.4,0-0.6
			C10.7,30.6,10.2,30.6,9.9,30.8z"/>
		<g id="XMLID_4426_">
			<path id="XMLID_2198_" class="st11" d="M10.5,31.2c0,0-0.9,0-1.4-0.7s0-1.9,0-1.9s1.1,0.1,1.7,1C11.2,30.4,10.5,31.2,10.5,31.2z"
				/>
			<path id="XMLID_4431_" class="st12" d="M9,30.5c0.5,0.7,1.4,0.7,1.4,0.7C10.3,29.6,9,28.6,9,28.6S8.5,29.8,9,30.5z"/>
		</g>
		<path id="XMLID_4403_" class="st13" d="M10.5,31.2c0,0,0-1.3,0.7-1.9s1.2-0.6,1.2-0.6c0.4,0,0.9,0.4,0.7,0.4c0,0-0.9,0-1.5,0.5
			s-0.9,1.5-0.9,1.6c0,0,0,0.1-0.1,0.1C10.5,31.3,10.5,31.2,10.5,31.2z"/>
		<path id="XMLID_4496_" class="st14" d="M12.4,28.7c-0.1,0-0.1,0.1,0.2,0.3c0.2,0.1,0.4,0.2,0.5,0.2l0,0
			C13.3,29,12.8,28.7,12.4,28.7z"/>
	</g>
	<g class="st1">
		<g>
			<path class="st15" d="M26,28.8L26,28.8c-1,0.6-1.9,1-2.8,1.2l0,0c0,0,0,0-0.1,0l-0.5,0.2h-0.1c-0.1,0-0.2,0.1-0.3,0.1h-0.1
				c-0.1,0-0.2,0.1-0.2,0.1h-0.1c-0.5,0.2-0.9,0.4-1.4,0.7c-0.1,0.1-0.2,0.1-0.3,0.2L20,31.4c-0.4,0.3-2,1.5-2.9,2.5l-0.6,0.6
				L16,34.6c-1,0.2-2,0.5-3,1.1c-0.1,0.1-0.2,0.1-0.3,0.2c-0.3,0.2-0.5,0.3-0.8,0.5l0,0l-0.1,0.1c-0.1,0.1-0.2,0.1-0.3,0.2l0,0l0,0
				c-0.4,0.3-0.9,0.7-1.3,1.1c-0.1,0.1-0.2,0.2-0.3,0.3c-0.3,0.3-0.7,0.6-1,0.9H8.8c-0.3,0.3-0.7,0.5-1,0.8
				c-0.2,0.2-0.5,0.3-0.7,0.5H7l13.7,8.3h0.1c0.8-0.5,1.7-1.2,2.5-1.9c0.5-0.5,1.1-0.9,1.7-1.4c1.2-0.9,2.3-1.5,3.2-1.8
				c0.7-0.3,1.4-0.5,2.1-0.6l0.5-0.6c0.7-0.7,1.5-1.3,2.4-1.8c1.5-1,3.2-1.8,4.9-2.5c0.6-0.2,1.2-0.5,1.6-0.7l0.2-0.1L26,28.8z"/>
			<g>
				<g>
					<g>
						<path class="st16" d="M39.1,36.7c-0.5,0.3-0.7,0.4-1.2,0.6c-0.3,0.1-0.5,0.2-0.8,0.3c-0.2,0.1-0.3,0.1-0.5,0.1
							c-0.7,0.2-1.4,0.4-2,0.8c-0.2,0.1-0.4,0.2-0.6,0.3c-1.3,0.8-2.6,2-3.9,3.5l-2.5-1.5l-11-6.7c1.3-1.5,2.6-2.7,3.9-3.5
							c0.2-0.1,0.4-0.2,0.6-0.3c0.7-0.4,1.4-0.6,2-0.8c0.2,0,0.3-0.1,0.5-0.1c0.3-0.1,0.5-0.2,0.8-0.3c0.5-0.2,0.7-0.3,1.2-0.6
							L39.1,36.7z"/>
						<g>
							<path class="st16" d="M30.1,42.3c-1.3,0.1-2.6,0.5-3.9,1.3c-0.2,0.1-0.4,0.2-0.6,0.4c-0.7,0.5-1.4,1-2,1.7
								c-0.2,0.2-0.3,0.3-0.5,0.4c-0.3,0.3-0.6,0.5-0.9,0.7c-0.5,0.4-0.8,0.6-1.3,0.9L7.5,39.5C8,39.2,8.3,39,8.8,38.6
								c0.3-0.2,0.6-0.5,0.9-0.7c0.2-0.1,0.3-0.3,0.5-0.4c0.7-0.6,1.4-1.2,2-1.7c0.2-0.1,0.4-0.3,0.6-0.4c1.3-0.8,2.6-1.2,3.9-1.3
								l11,6.7L30.1,42.3z"/>
						</g>
					</g>
					<polygon class="st17" points="7.5,39.5 7.3,40.3 20.7,48.5 20.9,47.7 					"/>
					<path class="st18" d="M39.4,37.1c-0.9,0.6-1.8,1-2.7,1.2c0,0,0,0-0.1,0s-0.2,0-0.3,0.1c-0.1,0-0.2,0.1-0.3,0.1
						s-0.2,0.1-0.3,0.1c-0.6,0.2-1.2,0.5-1.8,0.9c-0.1,0.1-0.2,0.1-0.3,0.2c-1,0.7-2,1.5-3,2.5L30,42.8l-0.6,0.1c-1,0.2-2,0.5-3,1.1
						c-0.1,0.1-0.2,0.1-0.3,0.2c-0.3,0.2-0.5,0.3-0.8,0.5c-0.6,0.4-1.1,0.9-1.7,1.4c-0.1,0.1-0.2,0.2-0.3,0.3
						c-0.9,0.9-1.8,1.6-2.7,2.2l0.2-0.8c0.5-0.3,0.8-0.5,1.3-0.9c0.3-0.2,0.6-0.5,0.9-0.7c0.2-0.1,0.3-0.3,0.5-0.4
						c0.7-0.6,1.4-1.2,2-1.7c0.2-0.1,0.4-0.3,0.6-0.4c1.3-0.8,2.6-1.2,3.9-1.3c1.3-1.5,2.6-2.7,3.9-3.5c0.2-0.1,0.4-0.2,0.6-0.3
						c0.7-0.4,1.4-0.6,2-0.8c0.2,0,0.3-0.1,0.5-0.1c0.3-0.1,0.5-0.2,0.8-0.3c0.5-0.2,0.7-0.3,1.2-0.6L39.4,37.1z"/>
				</g>
			</g>
			<g>
				<path class="st19" d="M17.8,34.6C17.9,34.6,17.9,34.6,17.8,34.6c1.2-1.4,2.5-2.5,3.7-3.2c0.2-0.1,0.4-0.2,0.5-0.3
					c0.7-0.3,1.3-0.6,2-0.8c0.2,0,0.3-0.1,0.5-0.1c0.3-0.1,0.5-0.2,0.8-0.3c0.4-0.2,0.7-0.3,1.1-0.5c0,0,0,0,0-0.1s0,0-0.1,0
					c-0.4,0.2-0.6,0.3-1,0.5c-0.3,0.1-0.5,0.2-0.8,0.3c-0.2,0.1-0.3,0.1-0.5,0.1c-0.7,0.2-1.3,0.4-2,0.8c-0.2,0.1-0.4,0.2-0.6,0.3
					C20.3,32.1,19,33.2,17.8,34.6C17.8,34.5,17.8,34.6,17.8,34.6L17.8,34.6z"/>
				<path class="st19" d="M25.4,30.6c-0.2,0.1-0.3,0.1-0.5,0.1c-0.7,0.2-1.3,0.4-2,0.8c-0.2,0.1-0.4,0.2-0.6,0.3
					c-1.2,0.7-2.5,1.8-3.7,3.2v0.1l0,0l0,0c1.2-1.4,2.5-2.5,3.7-3.2c0.2-0.1,0.4-0.2,0.6-0.3c0.7-0.4,1.3-0.6,2-0.8
					C25.1,30.8,25.3,30.7,25.4,30.6c0.3,0,0.6-0.1,0.8-0.2c0.4-0.2,0.6-0.3,1-0.5c0,0,0,0,0-0.1c0,0,0,0-0.1,0
					c-0.4,0.2-0.6,0.3-1,0.5C25.9,30.4,25.7,30.5,25.4,30.6z"/>
				<path class="st19" d="M26.2,31.1c-0.2,0.1-0.3,0.1-0.5,0.1c-0.7,0.2-1.3,0.4-2,0.8c-0.2,0.1-0.4,0.2-0.6,0.3
					c-1.2,0.7-2.5,1.8-3.7,3.2v0.1l0,0l0,0c1.2-1.4,2.5-2.5,3.7-3.2c0.2-0.1,0.4-0.2,0.6-0.3c0.7-0.4,1.4-0.6,2-0.8
					C25.9,31.3,26.1,31.2,26.2,31.1c0.3,0,0.6-0.1,0.8-0.2c0.4-0.2,0.6-0.3,1-0.5c0,0,0,0,0-0.1c0,0,0,0-0.1,0
					c-0.4,0.2-0.6,0.3-1,0.5C26.8,30.9,26.5,31,26.2,31.1z"/>
				<path class="st19" d="M27.1,31.5c-0.2,0.1-0.3,0.1-0.5,0.1c-0.7,0.2-1.3,0.4-2,0.8c-0.2,0.1-0.4,0.2-0.6,0.3
					c-1.2,0.7-2.5,1.8-3.7,3.2V36l0,0l0,0c1.2-1.4,2.5-2.5,3.7-3.2c0.2-0.1,0.4-0.2,0.6-0.3c0.7-0.4,1.4-0.6,2-0.8
					C26.7,31.7,26.9,31.7,27.1,31.5c0.3,0,0.6-0.1,0.8-0.2c0.4-0.2,0.6-0.3,1-0.5c0,0,0,0,0-0.1c0,0,0,0-0.1,0
					c-0.4,0.2-0.6,0.3-1,0.5C27.6,31.4,27.3,31.5,27.1,31.5z"/>
				<path class="st19" d="M27.9,32c-0.2,0.1-0.3,0.1-0.5,0.1c-0.7,0.2-1.4,0.4-2,0.8c-0.2,0.1-0.4,0.2-0.6,0.3
					c-1.2,0.7-2.5,1.9-3.7,3.2v0.1l0,0l0,0c1.2-1.4,2.5-2.5,3.7-3.2c0.2-0.1,0.4-0.2,0.6-0.3c0.7-0.4,1.4-0.6,2-0.8
					C27.6,32.2,27.8,32.2,27.9,32c0.3,0,0.6-0.1,0.8-0.2c0.4-0.2,0.6-0.3,1-0.5c0,0,0,0,0-0.1c0,0,0,0-0.1,0c-0.4,0.2-0.6,0.3-1,0.5
					C28.4,31.8,28.1,31.9,27.9,32z"/>
				<path class="st19" d="M28.7,32.5c-0.2,0.1-0.3,0.1-0.5,0.1c-0.7,0.2-1.4,0.4-2,0.8c-0.2,0.1-0.4,0.2-0.6,0.3
					c-1.2,0.7-2.5,1.9-3.7,3.2V37l0,0l0,0c1.2-1.4,2.5-2.5,3.7-3.2c0.2-0.1,0.4-0.2,0.6-0.3c0.7-0.4,1.4-0.6,2-0.8
					C28.4,32.7,28.6,32.6,28.7,32.5c0.3,0,0.6-0.1,0.8-0.2c0.4-0.2,0.6-0.3,1-0.5c0,0,0,0,0-0.1c0,0,0,0-0.1,0
					c-0.3,0.2-0.6,0.3-0.9,0.5C29.2,32.3,29,32.4,28.7,32.5z"/>
				<path class="st19" d="M29.6,33c-0.2,0.1-0.3,0.1-0.5,0.1c-0.7,0.2-1.4,0.4-2.1,0.8c-0.2,0.1-0.4,0.2-0.6,0.3
					c-1.2,0.7-2.5,1.9-3.8,3.3v0.1l0,0l0,0c1.2-1.4,2.5-2.5,3.7-3.2c0.2-0.1,0.4-0.2,0.6-0.3c0.7-0.4,1.4-0.6,2-0.8
					C29.2,33.2,29.4,33.1,29.6,33c0.3,0,0.6-0.1,0.8-0.2c0.4-0.2,0.6-0.3,0.9-0.5c0,0,0,0,0-0.1c0,0,0,0-0.1,0
					c-0.3,0.2-0.5,0.3-0.9,0.4C30.1,32.8,29.8,32.9,29.6,33z"/>
				<path class="st19" d="M30.4,33.5c-0.2,0.1-0.3,0.1-0.5,0.1c-0.7,0.2-1.4,0.4-2.1,0.8c-0.2,0.1-0.4,0.2-0.6,0.3
					c-1.2,0.7-2.5,1.9-3.8,3.3v0.1l0,0l0,0c1.2-1.4,2.5-2.5,3.7-3.2c0.2-0.1,0.4-0.2,0.6-0.3c0.7-0.4,1.4-0.6,2-0.8
					C30.1,33.7,30.2,33.6,30.4,33.5c0.3,0,0.5-0.1,0.8-0.2c0.4-0.2,0.6-0.3,0.9-0.4c0,0,0,0,0-0.1c0,0,0,0-0.1,0
					c-0.3,0.2-0.5,0.3-0.9,0.4C30.9,33.3,30.6,33.4,30.4,33.5z"/>
				<path class="st19" d="M31.2,33.9C31,34,30.9,34,30.7,34.1c-0.7,0.2-1.4,0.4-2.1,0.8c-0.2,0.1-0.4,0.2-0.6,0.3
					c-1.2,0.7-2.5,1.9-3.8,3.3v0.1l0,0l0,0c1.2-1.4,2.5-2.5,3.8-3.3c0.2-0.1,0.4-0.2,0.6-0.3c0.7-0.4,1.4-0.6,2-0.8
					C30.9,34.1,31.1,34.1,31.2,33.9c0.3,0,0.5-0.1,0.8-0.2c0.4-0.2,0.6-0.2,0.9-0.4c0,0,0,0,0-0.1c0,0,0,0-0.1,0
					c-0.3,0.2-0.5,0.3-0.9,0.4C31.7,33.8,31.5,33.9,31.2,33.9z"/>
				<path class="st19" d="M32,34.4c-0.2,0.1-0.3,0.1-0.5,0.1c-0.7,0.2-1.4,0.4-2.1,0.8c-0.2,0.1-0.4,0.2-0.6,0.3
					c-1.2,0.7-2.6,1.9-3.8,3.3V39l0,0l0,0c1.2-1.4,2.5-2.5,3.8-3.3c0.2-0.1,0.4-0.2,0.6-0.3c0.7-0.4,1.4-0.6,2-0.8
					C31.7,34.6,31.9,34.6,32,34.4c0.3,0,0.5-0.1,0.8-0.2c0.4-0.2,0.6-0.2,0.9-0.4c0,0,0,0,0-0.1c0,0,0,0-0.1,0
					c-0.3,0.2-0.5,0.3-0.9,0.4C32.6,34.2,32.3,34.3,32,34.4z"/>
				<path class="st19" d="M32.9,34.9C32.7,35,32.6,35,32.4,35c-0.7,0.2-1.4,0.4-2.1,0.8c-0.2,0.1-0.4,0.2-0.6,0.3
					c-1.2,0.8-2.6,1.9-3.8,3.3v0.1l0,0l0,0c1.2-1.4,2.5-2.5,3.8-3.3c0.2-0.1,0.4-0.2,0.6-0.3c0.7-0.4,1.4-0.6,2.1-0.8
					C32.6,35.1,32.7,35,32.9,34.9c0.3,0,0.5-0.1,0.8-0.2c0.3-0.1,0.6-0.2,0.9-0.4c0,0,0,0,0-0.1c0,0,0,0-0.1,0
					c-0.3,0.2-0.5,0.3-0.8,0.4C33.4,34.7,33.1,34.8,32.9,34.9z"/>
				<path class="st19" d="M33.7,35.4c-0.2,0.1-0.3,0.1-0.5,0.1c-0.7,0.2-1.4,0.4-2.1,0.8c-0.2,0.1-0.4,0.2-0.6,0.3
					c-1.2,0.8-2.6,1.9-3.8,3.3V40l0,0l0,0c1.2-1.4,2.6-2.5,3.8-3.3c0.2-0.1,0.4-0.2,0.6-0.3c0.7-0.4,1.4-0.6,2.1-0.8
					C33.4,35.6,33.6,35.5,33.7,35.4c0.3,0,0.5-0.1,0.8-0.2c0.3-0.1,0.5-0.2,0.8-0.4c0,0,0,0,0-0.1c0,0,0,0-0.1,0
					c-0.3,0.2-0.5,0.3-0.8,0.4C34.2,35.2,34,35.3,33.7,35.4z"/>
				<path class="st19" d="M34.5,35.8c-0.2,0.1-0.3,0.1-0.5,0.1c-0.7,0.2-1.4,0.4-2.1,0.8c-0.2,0.1-0.4,0.2-0.6,0.3
					c-1.3,0.8-2.6,1.9-3.8,3.3v0.1l0,0l0,0c1.2-1.4,2.6-2.6,3.8-3.3c0.2-0.1,0.4-0.2,0.6-0.3c0.7-0.4,1.4-0.6,2.1-0.8
					C34.2,36,34.4,36,34.5,35.8c0.3,0,0.5-0.1,0.8-0.2c0.3-0.1,0.5-0.2,0.8-0.4c0,0,0,0,0-0.1c0,0,0,0-0.1,0
					c-0.3,0.2-0.5,0.2-0.8,0.4C35,35.7,34.8,35.8,34.5,35.8z"/>
				<path class="st19" d="M35.4,36.3c-0.2,0.1-0.3,0.1-0.5,0.1c-0.7,0.2-1.4,0.4-2.1,0.8c-0.2,0.1-0.4,0.2-0.6,0.3
					c-1.3,0.8-2.6,1.9-3.8,3.3v0.1l0,0l0,0c1.3-1.4,2.6-2.6,3.8-3.3c0.2-0.1,0.4-0.2,0.6-0.3c0.7-0.4,1.4-0.6,2.1-0.8
					C35.1,36.5,35.2,36.5,35.4,36.3c0.3,0,0.5-0.1,0.8-0.2c0.3-0.1,0.5-0.2,0.8-0.4c0,0,0,0,0-0.1c0,0,0,0-0.1,0
					c-0.2,0.1-0.4,0.2-0.8,0.4C35.9,36.2,35.6,36.2,35.4,36.3z"/>
				<path class="st19" d="M37.7,36.2c-0.3,0.1-0.5,0.2-0.8,0.4c-0.3,0.1-0.5,0.2-0.8,0.3C35.9,37,35.8,37,35.6,37
					c-0.7,0.2-1.4,0.4-2.1,0.8c-0.2,0.1-0.4,0.2-0.6,0.3c-1.3,0.8-2.6,1.9-3.9,3.3v0.1l0,0l0,0c1.3-1.4,2.6-2.6,3.8-3.3
					c0.2-0.1,0.4-0.2,0.6-0.3c0.7-0.4,1.4-0.6,2.1-0.8c0.2,0,0.3-0.1,0.5-0.1c0.2-0.1,0.5-0.2,0.8-0.3
					C37.3,36.5,37.5,36.4,37.7,36.2C37.8,36.3,37.8,36.2,37.7,36.2C37.8,36.2,37.7,36.2,37.7,36.2z"/>
				<path class="st19" d="M10.6,38.6c0.2-0.1,0.3-0.3,0.5-0.4c0.7-0.6,1.3-1.2,2-1.7c0.2-0.1,0.4-0.2,0.6-0.4
					c1.2-0.7,2.5-1.2,3.7-1.3c0,0,0,0,0-0.1c0,0,0,0-0.1,0c-1.2,0.1-2.5,0.5-3.7,1.3c-0.2,0.1-0.4,0.2-0.6,0.4c-0.7,0.5-1.4,1-2,1.7
					C10.9,38.3,10.7,38.4,10.6,38.6c-0.4,0.2-0.7,0.4-0.9,0.7c-0.4,0.3-0.7,0.5-1,0.7c0,0,0,0,0,0.1l0,0l0,0c0.3-0.2,0.6-0.4,1-0.7
					S10.3,38.9,10.6,38.6z"/>
				<path class="st19" d="M11.5,39.1c0.2-0.1,0.3-0.3,0.5-0.4c0.7-0.6,1.3-1.2,2-1.7c0.2-0.1,0.4-0.2,0.6-0.4
					c1.2-0.7,2.5-1.2,3.7-1.2c0,0,0,0,0-0.1c0,0,0-0.1-0.1,0c-1.2,0.1-2.5,0.5-3.7,1.3c-0.2,0.1-0.4,0.2-0.6,0.4
					c-0.7,0.5-1.4,1-2,1.7C11.7,38.8,11.6,38.9,11.5,39.1c-0.4,0.2-0.7,0.4-0.9,0.7c-0.4,0.3-0.7,0.5-1,0.7c0,0,0,0,0,0.1l0,0l0,0
					c0.3-0.2,0.6-0.4,1-0.7C10.9,39.6,11.2,39.4,11.5,39.1z"/>
				<path class="st19" d="M12.3,39.6c0.2-0.1,0.3-0.3,0.5-0.4c0.7-0.6,1.3-1.2,2-1.7c0.2-0.1,0.4-0.3,0.6-0.4
					c1.2-0.7,2.4-1.2,3.6-1.2c0,0,0,0,0-0.1s0,0-0.1,0c-1.2,0.1-2.5,0.5-3.7,1.3c-0.2,0.1-0.4,0.2-0.6,0.4c-0.7,0.5-1.4,1-2,1.7
					C12.5,39.2,12.4,39.4,12.3,39.6c-0.4,0.2-0.7,0.4-0.9,0.7c-0.4,0.3-0.7,0.5-1,0.7c0,0,0,0,0,0.1l0,0l0,0c0.3-0.2,0.6-0.4,1-0.7
					C11.7,40.1,12,39.9,12.3,39.6z"/>
				<path class="st19" d="M13.1,40.1c0.2-0.1,0.3-0.3,0.5-0.4c0.7-0.6,1.3-1.2,2-1.7c0.2-0.1,0.4-0.3,0.6-0.4
					c1.2-0.7,2.4-1.1,3.6-1.2c0,0,0,0,0-0.1c0,0,0,0-0.1,0c-1.2,0.1-2.4,0.5-3.6,1.3c-0.2,0.1-0.4,0.2-0.6,0.4c-0.7,0.5-1.4,1-2,1.7
					C13.3,39.7,13.2,39.9,13.1,40.1c-0.4,0.2-0.6,0.4-0.9,0.7c-0.4,0.3-0.7,0.5-1,0.7c0,0,0,0,0,0.1l0,0l0,0c0.3-0.2,0.6-0.4,1-0.7
					C12.5,40.6,12.8,40.4,13.1,40.1z"/>
				<path class="st19" d="M13.9,40.6c0.2-0.1,0.3-0.3,0.5-0.4c0.7-0.6,1.3-1.2,2-1.7c0.2-0.1,0.4-0.3,0.6-0.4
					c1.2-0.7,2.4-1.1,3.6-1.2c0,0,0,0,0-0.1c0,0,0,0-0.1,0c-1.2,0.1-2.4,0.5-3.6,1.3c-0.2,0.1-0.4,0.2-0.6,0.4c-0.7,0.5-1.4,1-2,1.7
					C14.2,40.2,14,40.4,13.9,40.6c-0.4,0.2-0.6,0.4-0.9,0.7c-0.4,0.3-0.7,0.5-1,0.7c0,0,0,0,0,0.1l0,0l0,0c0.3-0.2,0.6-0.4,1-0.7
					C13.3,41.1,13.6,40.8,13.9,40.6z"/>
				<path class="st19" d="M14.7,41.1c0.2-0.1,0.3-0.3,0.5-0.4c0.7-0.6,1.3-1.2,2-1.7c0.2-0.1,0.4-0.3,0.6-0.4
					c1.2-0.7,2.4-1.1,3.5-1.2c0,0,0,0,0-0.1c0,0,0,0-0.1,0c-1.2,0.1-2.4,0.6-3.6,1.3c-0.2,0.1-0.4,0.2-0.6,0.4c-0.7,0.5-1.4,1-2,1.7
					C15,40.7,14.8,40.8,14.7,41.1c-0.4,0.2-0.6,0.4-0.9,0.7c-0.4,0.3-0.7,0.5-1,0.7c0,0,0,0,0,0.1l0,0l0,0c0.3-0.2,0.6-0.4,1-0.7
					S14.4,41.3,14.7,41.1z"/>
				<path class="st19" d="M15.6,41.5c0.2-0.1,0.3-0.3,0.5-0.4c0.7-0.6,1.3-1.2,2-1.7c0.2-0.1,0.4-0.3,0.6-0.4
					c1.1-0.7,2.4-1.1,3.5-1.2c0,0,0,0,0-0.1s0,0-0.1,0c-1.2,0.1-2.4,0.6-3.5,1.3c-0.2,0.1-0.4,0.2-0.6,0.4c-0.7,0.5-1.4,1-2,1.7
					C15.8,41.2,15.6,41.3,15.6,41.5c-0.4,0.2-0.6,0.4-0.9,0.7c-0.4,0.3-0.7,0.5-1,0.7c0,0,0,0,0,0.1l0,0l0,0c0.3-0.2,0.6-0.4,1-0.7
					C15,42.1,15.3,41.8,15.6,41.5z"/>
				<path class="st19" d="M16.4,42c0.2-0.1,0.3-0.3,0.5-0.4c0.7-0.6,1.3-1.2,2-1.7c0.2-0.1,0.4-0.3,0.6-0.4c1.1-0.7,2.3-1.1,3.5-1.2
					c0,0,0,0,0-0.1s0,0-0.1,0c-1.2,0.1-2.4,0.6-3.5,1.3c-0.2,0.1-0.4,0.2-0.6,0.4c-0.7,0.5-1.4,1-2.1,1.7
					C16.6,41.7,16.5,41.8,16.4,42c-0.4,0.2-0.6,0.4-0.9,0.7c-0.4,0.3-0.7,0.5-1,0.7c0,0,0,0,0,0.1l0,0l0,0c0.3-0.2,0.6-0.4,1.1-0.7
					C15.8,42.5,16.1,42.3,16.4,42z"/>
				<path class="st19" d="M17.2,42.5c0.2-0.1,0.3-0.3,0.5-0.4c0.7-0.6,1.4-1.2,2-1.7c0.2-0.1,0.4-0.3,0.6-0.4
					c1.1-0.7,2.3-1.1,3.4-1.2c0,0,0,0,0-0.1s0,0-0.1,0c-1.1,0.1-2.3,0.6-3.5,1.3c-0.2,0.1-0.4,0.2-0.6,0.4c-0.7,0.5-1.4,1-2.1,1.7
					C17.4,42.2,17.3,42.3,17.2,42.5c-0.4,0.2-0.6,0.4-0.9,0.6c-0.4,0.3-0.7,0.5-1.1,0.7c0,0,0,0,0,0.1l0,0l0,0
					c0.3-0.2,0.6-0.4,1.1-0.8C16.6,43,16.9,42.8,17.2,42.5z"/>
				<path class="st19" d="M18,43c0.2-0.1,0.3-0.3,0.5-0.4c0.7-0.6,1.4-1.2,2-1.7c0.2-0.1,0.4-0.3,0.6-0.4c1.1-0.7,2.3-1.1,3.4-1.2
					c0,0,0,0,0-0.1s0,0-0.1,0c-1.1,0.1-2.3,0.6-3.5,1.3c-0.2,0.1-0.4,0.2-0.6,0.4c-0.7,0.5-1.4,1.1-2.1,1.7
					C18.3,42.6,18.1,42.8,18,43c-0.4,0.2-0.6,0.4-0.9,0.6c-0.4,0.3-0.7,0.6-1.1,0.8c0,0,0,0,0,0.1l0,0l0,0c0.3-0.2,0.7-0.4,1.1-0.8
					C17.4,43.5,17.7,43.3,18,43z"/>
				<path class="st19" d="M18.8,43.5c0.2-0.1,0.3-0.3,0.5-0.4c0.7-0.6,1.4-1.2,2-1.7c0.2-0.1,0.4-0.3,0.6-0.4
					c1.1-0.7,2.3-1.1,3.4-1.2c0,0,0,0,0-0.1c0,0,0,0-0.1,0c-1.1,0.1-2.3,0.6-3.4,1.3c-0.2,0.1-0.4,0.2-0.6,0.4
					c-0.7,0.5-1.4,1.1-2.1,1.7C19.1,43.1,18.9,43.3,18.8,43.5c-0.4,0.2-0.6,0.4-0.9,0.6c-0.4,0.3-0.7,0.6-1.1,0.8c0,0,0,0,0,0.1l0,0
					l0,0c0.3-0.2,0.7-0.4,1.1-0.8C18.3,44,18.5,43.7,18.8,43.5z"/>
				<path class="st19" d="M19.6,44c0.2-0.1,0.3-0.3,0.5-0.4c0.7-0.6,1.4-1.2,2.1-1.7c0.2-0.1,0.4-0.3,0.6-0.4
					c1.1-0.7,2.3-1.1,3.4-1.2c0,0,0,0,0-0.1c0,0,0,0-0.1,0c-1.1,0.2-2.3,0.6-3.4,1.3c-0.2,0.1-0.4,0.2-0.6,0.4
					c-0.7,0.5-1.4,1.1-2.1,1.7C19.9,43.6,19.7,43.8,19.6,44c-0.4,0.2-0.6,0.4-0.9,0.6c-0.4,0.3-0.8,0.6-1.1,0.8c0,0,0,0,0,0.1l0,0
					l0,0c0.3-0.2,0.7-0.4,1.1-0.8C19.1,44.5,19.4,44.2,19.6,44z"/>
				<path class="st19" d="M20.5,44.5c0.2-0.1,0.3-0.3,0.5-0.4c0.7-0.6,1.4-1.2,2.1-1.7c0.2-0.1,0.4-0.3,0.6-0.4
					c1.1-0.7,2.2-1.1,3.3-1.2c0,0,0,0,0-0.1c0,0,0,0-0.1,0c-1.1,0.2-2.3,0.6-3.4,1.3c-0.2,0.1-0.4,0.2-0.6,0.4
					c-0.7,0.5-1.4,1.1-2.1,1.7C20.7,44.1,20.5,44.2,20.5,44.5c-0.4,0.2-0.6,0.4-0.9,0.6c-0.4,0.3-0.8,0.6-1.1,0.8c0,0,0,0,0,0.1l0,0
					l0,0c0.3-0.2,0.7-0.4,1.1-0.8C19.9,45,20.2,44.7,20.5,44.5z"/>
				<path class="st19" d="M21.3,44.9c0.2-0.1,0.3-0.3,0.5-0.4c0.7-0.7,1.4-1.2,2.1-1.7c0.2-0.1,0.4-0.3,0.6-0.4
					c1.1-0.6,2.2-1.1,3.3-1.2c0,0,0,0,0-0.1c0,0,0,0-0.1,0c-1.1,0.2-2.3,0.6-3.3,1.3c-0.2,0.1-0.4,0.2-0.6,0.4
					c-0.7,0.5-1.4,1.1-2.1,1.7C21.5,44.6,21.4,44.7,21.3,44.9c-0.4,0.2-0.6,0.4-0.9,0.6c-0.4,0.3-0.8,0.6-1.1,0.8c0,0,0,0,0,0.1l0,0
					l0,0c0.4-0.2,0.7-0.4,1.1-0.8C20.7,45.4,21,45.2,21.3,44.9z"/>
				<path class="st19" d="M25.2,42.8c-0.2,0.1-0.4,0.2-0.6,0.4c-0.7,0.5-1.4,1.1-2.1,1.7c-0.2,0.1-0.3,0.3-0.5,0.4
					c-0.3,0.3-0.6,0.5-0.9,0.7c-0.4,0.3-0.8,0.6-1.1,0.8c0,0,0,0,0,0.1l0,0l0,0c0.4-0.2,0.7-0.4,1.1-0.8c0.3-0.2,0.6-0.5,0.9-0.7
					c0.2-0.1,0.3-0.3,0.5-0.4c0.7-0.7,1.4-1.2,2.1-1.7C24.8,43.2,25,43,25.2,42.8c1.1-0.6,2.2-1,3.3-1.2c0,0,0,0,0-0.1
					c0,0,0,0-0.1,0C27.4,41.7,26.2,42.2,25.2,42.8z"/>
			</g>
		</g>
		<g>
			<g>
				<g>
					<g>
						<g class="st20">
							<g>
								<path class="st21" d="M29.1,41.9l-7.9-4.6l-0.1-0.1L29.1,41.9L29.1,41.9z"/>
							</g>
							<g>
								<path class="st22" d="M29.2,41.6c-0.1,0.1-0.1,0.1-0.1,0.2l-7.9-4.6l0.1-0.2L29.2,41.6z"/>
							</g>
							<g>
								<path class="st23" d="M29.4,41.5h-0.1c0,0-0.1,0-0.1,0.1l-8-4.6l0.2-0.1L29.4,41.5z"/>
							</g>
						</g>
					</g>
					<g>
						<polygon class="st24" points="30.3,42.2 30.3,42.3 30.3,42.3 30.3,42.3 30.2,42.3 30.3,42.3 						"/>
					</g>
					<path d="M30.3,42.2L30,42l0,0c0,0,0,0-0.1,0l-0.1,0.1l0,0L30.3,42.2C30.3,42.3,30.3,42.3,30.3,42.2
						C30.3,42.3,30.3,42.3,30.3,42.2z"/>
					<path class="st25" d="M21.7,37h-0.1l-0.1,0.1c0,0.1-0.1,0.1-0.1,0.2v0.1L21,37.1c0,0-0.1,0-0.1-0.1s0-0.1,0.1-0.2
						c0-0.1,0.1-0.1,0.1-0.1h0.1l0,0L21.7,37z"/>
					<path class="st26" d="M29.4,41.5L29.4,41.5L29.4,41.5z"/>
				</g>
				<path class="st27" d="M29.4,41.5L29.4,41.5L29.4,41.5c-0.1,0-0.2,0-0.2,0s0,0,0,0.1l0,0c0,0-0.1,0.1-0.1,0.2l0,0v0.1l0,0
					l0.8,0.3l0,0c0,0,0-0.1,0.1-0.1c0,0,0,0,0.1,0L29.4,41.5z"/>
			</g>
			
				<linearGradient id="SVGID_1_" gradientUnits="userSpaceOnUse" x1="21.7732" y1="-2043.1643" x2="21.5925" y2="-2043.4897" gradientTransform="matrix(1 0 0 -1 0 -2006)">
				<stop  offset="0" style="stop-color:#78ACED"/>
				<stop  offset="1" style="stop-color:#4F7BB3"/>
			</linearGradient>
			<path class="st28" d="M22.1,37.3L22.1,37.3L22.1,37.3L21.7,37l0,0l0,0h-0.1l0,0h-0.1c-0.1,0-0.1,0.1-0.1,0.1
				c0,0.1-0.1,0.1-0.1,0.2c0,0,0,0.1,0.1,0.1h0.1l0,0l0,0l0.3,0.2l0,0l0,0l0.1,0.1l0,0l0,0l0,0c0,0,0,0,0-0.1l0,0v-0.1l0,0l0.1-0.1
				l0,0C22,37.3,22,37.2,22.1,37.3L22.1,37.3L22.1,37.3L22.1,37.3L22.1,37.3z"/>
		</g>
	</g>
</g>
<radialGradient id="SVGID_00000163767718976323912900000002441038990907148703_" cx="-789.8859" cy="-4082.8408" r="15.9016" gradientTransform="matrix(1.5353 0 0 -0.4819 1237.7118 -1926.021)" gradientUnits="userSpaceOnUse">
	<stop  offset="0.4351" style="stop-color:#B4BCC1"/>
	<stop  offset="0.94" style="stop-color:#ECEEEF;stop-opacity:0"/>
</radialGradient>
<ellipse style="fill:url(#SVGID_00000163767718976323912900000002441038990907148703_);" cx="25" cy="41.5" rx="24.4" ry="7.7"/>
<g id="Trumpet">
	<g>
		<path class="st30" d="M34.877,27.849c-0.22,0.162-0.205,0.559,0.034,0.886c0.241,0.327,0.613,0.463,0.835,0.303
			c0.222-0.162,0.205-0.559-0.034-0.886C35.471,27.823,35.097,27.687,34.877,27.849z"/>
	</g>
	
		<linearGradient id="SVGID_00000091695544766848771710000017975864081335517623_" gradientUnits="userSpaceOnUse" x1="-972.0216" y1="12.1324" x2="-969.9023" y2="22.4255" gradientTransform="matrix(-1 0 0 -1 -945.5666 52)">
		<stop  offset="0" style="stop-color:#C9A339"/>
		<stop  offset="1" style="stop-color:#EABC4B"/>
	</linearGradient>
	<path style="fill:url(#SVGID_00000091695544766848771710000017975864081335517623_);" d="M26.539,36.934
		c0.055,0,0.107-0.015,0.156-0.043l2.227-1.367c0.081-0.045,2.05-1.155,2.586-1.614c0.487-0.416,0.907-0.929,1.245-1.527
		c0.378-0.7,0.559-1.317,0.568-1.939c0-0.423-0.092-0.771-0.28-1.065c-0.203-0.337-0.598-0.589-1.004-0.641
		c-0.094-0.013-0.188-0.021-0.278-0.021c-0.643,0-1.185,0.318-1.621,0.574l-4.825,2.72c-3.83,2.21-6.267,2.541-7.381,2.541
		c-0.818,0-1.23-0.179-1.307-0.297c-0.019-0.028-0.049-0.041-0.079-0.041c-0.017,0-0.034,0.004-0.049,0.013
		c-0.043,0.026-0.056,0.083-0.032,0.126l2.818,4.855c0.017,0.03,0.049,0.047,0.081,0.047c0.008,0,0.015,0,0.024-0.002
		c0.039-0.009,0.07-0.047,0.07-0.088c0.009-0.476,1.691-3.645,6.333-6.326l4.759-2.814c0.403-0.246,0.828-0.474,1.221-0.474
		c0.049,0,0.098,0.002,0.147,0.009c0.438,0.045,0.589,0.485,0.585,0.88c-0.002,0.461-0.158,0.978-0.466,1.54
		c-0.288,0.502-0.655,0.95-1.063,1.294c-0.38,0.34-2.468,1.467-2.488,1.478l-2.295,1.243c-0.132,0.075-0.179,0.245-0.122,0.453
		C26.125,36.682,26.313,36.934,26.539,36.934L26.539,36.934z"/>
	<path class="st32" d="M17.036,33.793c-1.646-0.918-2.961-0.115-2.938,1.793c0.023,1.907,1.377,4.196,3.023,5.114
		c1.646,0.918,2.961,0.115,2.938-1.793C20.034,37,18.68,34.711,17.036,33.793z"/>
	<path class="st33" d="M17.053,35.179c-0.986-0.549-1.774-0.068-1.759,1.074c0.013,1.142,0.824,2.513,1.809,3.062
		s1.774,0.068,1.759-1.074C18.847,37.1,18.037,35.728,17.053,35.179z"/>
	<path class="st34" d="M29.392,35.034c0.286-0.166,0.34-0.361,0.348-0.438c0.009-0.081-0.021-0.118-0.066-0.1l-2.095,1.209
		c-0.137,0.079-0.307,0.032-0.386-0.103c-0.077-0.135-0.032-0.307,0.103-0.386l2.095-1.209c0.314-0.181,0.653-0.107,0.822,0.184
		c0.213,0.367,0.066,0.98-0.54,1.33l-2.095,1.209c-0.045,0.026-0.094,0.038-0.141,0.038c-0.098,0-0.192-0.051-0.245-0.141
		c-0.077-0.135-0.032-0.307,0.103-0.386L29.392,35.034z"/>
	<g>
		<g id="Axonometric_Cylinder_00000094576856590804593120000009909439506919229865_">
			<path id="Cylinder_face_00000152979988428579478750000015241699023839334535_" class="st34" d="M27.216,31.987
				c0.241,0.139,0.63,0.139,0.871,0c0.241-0.139,0.241-0.365,0-0.504c-0.241-0.139-0.63-0.139-0.871,0
				C26.975,31.622,26.975,31.848,27.216,31.987z"/>
			
				<ellipse id="Cylinder_face_00000038373185375784248130000003529482391561370778_" class="st33" cx="27.652" cy="31.735" rx="0.423" ry="0.245"/>
			
				<linearGradient id="Cylinder_body_00000129165064480593657210000008537198046402908549_" gradientUnits="userSpaceOnUse" x1="-974.1539" y1="17.4007" x2="-972.5064" y2="17.4007" gradientTransform="matrix(-1 0 0 -1 -945.5666 52)">
				<stop  offset="0" style="stop-color:#C9A339"/>
				<stop  offset="1" style="stop-color:#EABC4B"/>
			</linearGradient>
			
				<path id="Cylinder_body_00000054956562333473250940000011739705083533771449_" style="fill:url(#Cylinder_body_00000129165064480593657210000008537198046402908549_);" d="
				M27.035,31.731v5.376c-0.002,0.092,0.058,0.184,0.181,0.256c0.241,0.139,0.63,0.139,0.871,0c0.118-0.07,0.179-0.158,0.181-0.248
				v-5.376c-0.002,0.09-0.062,0.181-0.181,0.248c-0.241,0.139-0.63,0.139-0.871,0C27.095,31.918,27.035,31.824,27.035,31.731z"/>
		</g>
		<g>
			
				<linearGradient id="Cylinder_body_00000060027348410183007090000005629962057270404235_" gradientUnits="userSpaceOnUse" x1="-973.5142" y1="20.4605" x2="-972.9896" y2="20.4605" gradientTransform="matrix(-1 0 0 -1 -945.5666 52)">
				<stop  offset="0" style="stop-color:#C9A339"/>
				<stop  offset="1" style="stop-color:#EABC4B"/>
			</linearGradient>
			
				<path id="Cylinder_body_00000180331232481138748730000009612179164001102218_" style="fill:url(#Cylinder_body_00000060027348410183007090000005629962057270404235_);" d="
				M27.453,31.254v0.457c0,0.03,0.019,0.058,0.058,0.081c0.077,0.045,0.201,0.045,0.278,0c0.038-0.023,0.056-0.051,0.058-0.079
				v-0.457c0,0.028-0.019,0.056-0.058,0.079c-0.077,0.045-0.201,0.045-0.278,0C27.472,31.312,27.453,31.282,27.453,31.254z"/>
			<g id="Axonometric_Cylinder_00000107557690806163005070000016854193763664953221_">
				<path id="Cylinder_face_00000054267705557480501150000003795413551103359875_" class="st34" d="M27.387,31.212
					c0.145,0.085,0.38,0.085,0.525,0s0.145-0.22,0-0.303c-0.145-0.085-0.38-0.085-0.525,0
					C27.242,30.992,27.242,31.129,27.387,31.212z"/>
				
					<linearGradient id="Cylinder_body_00000165234764289777931090000014876988431181556612_" gradientUnits="userSpaceOnUse" x1="-973.7796" y1="20.725" x2="-972.7874" y2="20.725" gradientTransform="matrix(-1 0 0 -1 -945.5666 52)">
					<stop  offset="0" style="stop-color:#C9A339"/>
					<stop  offset="1" style="stop-color:#EABC4B"/>
				</linearGradient>
				
					<path id="Cylinder_body_00000054977574827021037770000006363369524673113738_" style="fill:url(#Cylinder_body_00000165234764289777931090000014876988431181556612_);" d="
					M27.278,31.058v0.216c0,0.056,0.036,0.111,0.109,0.154c0.145,0.085,0.38,0.085,0.525,0c0.071-0.041,0.107-0.096,0.109-0.15
					v-0.216c0,0.055-0.038,0.109-0.109,0.15c-0.145,0.085-0.38,0.085-0.525,0C27.314,31.171,27.278,31.114,27.278,31.058z"/>
			</g>
		</g>
	</g>
	<g>
		<g id="Axonometric_Cylinder_00000167383471175854614630000005999672264087673752_">
			<path id="Cylinder_face_00000176732923765616549900000007447471334476300674_" class="st34" d="M26.223,32.561
				c0.241,0.139,0.63,0.139,0.871,0c0.241-0.139,0.241-0.365,0-0.504c-0.241-0.139-0.63-0.139-0.871,0
				C25.982,32.196,25.982,32.422,26.223,32.561z"/>
			
				<ellipse id="Cylinder_face_00000016033258828328525700000007598890364736686725_" class="st33" cx="26.657" cy="32.309" rx="0.423" ry="0.245"/>
			
				<linearGradient id="Cylinder_body_00000052782989578979685380000007788665676398170012_" gradientUnits="userSpaceOnUse" x1="-973.1595" y1="16.8251" x2="-971.512" y2="16.8251" gradientTransform="matrix(-1 0 0 -1 -945.5666 52)">
				<stop  offset="0" style="stop-color:#C9A339"/>
				<stop  offset="1" style="stop-color:#EABC4B"/>
			</linearGradient>
			
				<path id="Cylinder_body_00000180366647909987770790000000315748995602835369_" style="fill:url(#Cylinder_body_00000052782989578979685380000007788665676398170012_);" d="
				M26.042,32.307v5.376c-0.002,0.092,0.058,0.184,0.181,0.256c0.241,0.139,0.63,0.139,0.871,0c0.118-0.07,0.179-0.158,0.181-0.248
				v-5.376c-0.002,0.09-0.062,0.181-0.181,0.248c-0.241,0.139-0.63,0.139-0.871,0C26.1,32.491,26.04,32.399,26.042,32.307z"/>
		</g>
		<g>
			
				<linearGradient id="Cylinder_body_00000160191086689944161940000016375997966256833964_" gradientUnits="userSpaceOnUse" x1="-972.5196" y1="19.8868" x2="-971.9952" y2="19.8868" gradientTransform="matrix(-1 0 0 -1 -945.5666 52)">
				<stop  offset="0" style="stop-color:#C9A339"/>
				<stop  offset="1" style="stop-color:#EABC4B"/>
			</linearGradient>
			
				<path id="Cylinder_body_00000140709217857907676500000016721529498706875264_" style="fill:url(#Cylinder_body_00000160191086689944161940000016375997966256833964_);" d="
				M26.46,31.827v0.457c0,0.03,0.019,0.058,0.058,0.081c0.077,0.045,0.201,0.045,0.278,0c0.038-0.023,0.056-0.051,0.058-0.079
				v-0.457c0,0.028-0.019,0.056-0.058,0.079c-0.077,0.045-0.201,0.045-0.278,0C26.478,31.886,26.46,31.857,26.46,31.827z"/>
			<g id="Axonometric_Cylinder_00000111912966772190789210000011353502087156889507_">
				<path id="Cylinder_face_00000050621370630635996920000012489361985687064466_" class="st34" d="M26.394,31.786
					c0.145,0.085,0.38,0.085,0.525,0c0.145-0.083,0.145-0.22,0-0.303c-0.145-0.085-0.38-0.085-0.525,0
					C26.247,31.568,26.247,31.703,26.394,31.786z"/>
				
					<linearGradient id="Cylinder_body_00000077292810087314678170000018422546366138663605_" gradientUnits="userSpaceOnUse" x1="-972.7852" y1="20.1502" x2="-971.7928" y2="20.1502" gradientTransform="matrix(-1 0 0 -1 -945.5666 52)">
					<stop  offset="0" style="stop-color:#C9A339"/>
					<stop  offset="1" style="stop-color:#EABC4B"/>
				</linearGradient>
				
					<path id="Cylinder_body_00000121250244508042639870000009083386687991471520_" style="fill:url(#Cylinder_body_00000077292810087314678170000018422546366138663605_);" d="
					M26.285,31.634v0.216c0,0.056,0.036,0.111,0.109,0.154c0.145,0.083,0.38,0.083,0.525,0c0.071-0.041,0.107-0.096,0.109-0.15
					v-0.216c0,0.055-0.038,0.109-0.109,0.15c-0.145,0.085-0.38,0.085-0.525,0C26.32,31.745,26.283,31.688,26.285,31.634z"/>
			</g>
		</g>
	</g>
	<g>
		<g id="Axonometric_Cylinder_00000062889048777609779530000007490351521460006570_">
			
				<ellipse id="Cylinder_face_00000134247016546068766510000008979059535520139172_" class="st34" cx="25.664" cy="32.884" rx="0.617" ry="0.355"/>
			<path id="Cylinder_face_00000130638850234829103650000009408177731794515637_" class="st33" d="M25.365,33.056
				c0.166,0.096,0.433,0.096,0.598,0c0.166-0.096,0.166-0.25,0-0.344c-0.166-0.096-0.433-0.096-0.598,0
				C25.199,32.807,25.199,32.961,25.365,33.056z"/>
			
				<linearGradient id="Cylinder_body_00000031175684643893927940000000768951094303730862_" gradientUnits="userSpaceOnUse" x1="-972.165" y1="16.2514" x2="-970.5175" y2="16.2514" gradientTransform="matrix(-1 0 0 -1 -945.5666 52)">
				<stop  offset="0" style="stop-color:#C9A339"/>
				<stop  offset="1" style="stop-color:#EABC4B"/>
			</linearGradient>
			
				<path id="Cylinder_body_00000007427469979144765320000012547132124858286000_" style="fill:url(#Cylinder_body_00000031175684643893927940000000768951094303730862_);" d="
				M25.047,32.881v5.376c-0.002,0.092,0.058,0.184,0.181,0.256c0.241,0.139,0.63,0.139,0.871,0c0.118-0.07,0.179-0.158,0.181-0.248
				v-5.378c-0.002,0.09-0.062,0.181-0.181,0.248c-0.241,0.139-0.63,0.139-0.871,0C25.105,33.065,25.045,32.973,25.047,32.881z"/>
		</g>
		<g>
			
				<linearGradient id="Cylinder_body_00000025410906190630956580000010322183098489084319_" gradientUnits="userSpaceOnUse" x1="-971.5251" y1="19.3131" x2="-971.0005" y2="19.3131" gradientTransform="matrix(-1 0 0 -1 -945.5666 52)">
				<stop  offset="0" style="stop-color:#C9A339"/>
				<stop  offset="1" style="stop-color:#EABC4B"/>
			</linearGradient>
			
				<path id="Cylinder_body_00000004546132695263846780000001007431735318329760_" style="fill:url(#Cylinder_body_00000025410906190630956580000010322183098489084319_);" d="
				M25.465,32.401v0.457c0,0.03,0.019,0.058,0.058,0.081c0.077,0.045,0.201,0.045,0.278,0c0.038-0.023,0.056-0.051,0.058-0.079
				v-0.457c0,0.028-0.019,0.056-0.058,0.079c-0.077,0.045-0.201,0.045-0.278,0C25.483,32.461,25.465,32.431,25.465,32.401z"/>
			<g id="Axonometric_Cylinder_00000176037498790921101660000010441399222346851970_">
				<path id="Cylinder_face_00000013874694932767537100000014868656512546149776_" class="st34" d="M25.399,32.361
					c0.145,0.085,0.38,0.085,0.525,0c0.145-0.085,0.145-0.22,0-0.303c-0.145-0.085-0.38-0.085-0.525,0
					C25.254,32.141,25.254,32.277,25.399,32.361z"/>
				
					<linearGradient id="Cylinder_body_00000008114137951267858900000007159725902717319072_" gradientUnits="userSpaceOnUse" x1="-971.7905" y1="19.5758" x2="-970.7983" y2="19.5758" gradientTransform="matrix(-1 0 0 -1 -945.5666 52)">
					<stop  offset="0" style="stop-color:#C9A339"/>
					<stop  offset="1" style="stop-color:#EABC4B"/>
				</linearGradient>
				
					<path id="Cylinder_body_00000177455128129017029090000005527045599481810349_" style="fill:url(#Cylinder_body_00000008114137951267858900000007159725902717319072_);" d="
					M25.29,32.207v0.216c0,0.056,0.036,0.111,0.109,0.154c0.145,0.085,0.38,0.085,0.525,0c0.071-0.041,0.107-0.096,0.109-0.15
					v-0.216c0,0.055-0.038,0.109-0.109,0.15c-0.145,0.085-0.38,0.085-0.525,0C25.325,32.318,25.288,32.262,25.29,32.207z"/>
			</g>
		</g>
	</g>
	<path class="st34" d="M22.316,39.445c0.316,0,0.664-0.103,1.018-0.305l2.088-1.206c0.275-0.158-0.062-0.779-0.352-0.611
		l-2.088,1.206c-0.371,0.214-0.711,0.273-0.918,0.152c-0.192-0.111-0.233-0.363-0.233-0.557c0-0.801,0.688-1.873,1.503-2.344
		l12.055-6.959c0.282-0.164-0.064-0.779-0.352-0.611L22.982,35.17c-1.04,0.602-1.856,1.9-1.856,2.955
		c0,0.534,0.209,0.95,0.585,1.168C21.887,39.394,22.094,39.445,22.316,39.445z"/>
</g>
<g id="Eighths">
	<polygon class="st44" points="20.681,28.447 20.681,23.028 20.392,22.92 20.392,28.613 	"/>
	<path class="st44" d="M20.707,28.109c-0.043-0.333-0.491-0.299-1.001,0.076c-0.509,0.375-0.887,0.949-0.844,1.282
		c0.007,0.054,0.025,0.099,0.052,0.134l0.259,0.255L20.707,28.109z"/>
	<polygon class="st44" points="23.698,26.387 23.698,20.969 23.409,20.861 23.409,26.554 	"/>
	<path class="st44" d="M23.724,26.049c-0.043-0.333-0.491-0.299-1.001,0.076c-0.509,0.375-0.887,0.949-0.844,1.282
		c0.007,0.054,0.025,0.099,0.052,0.134l0.259,0.255L23.724,26.049z"/>
	
		<ellipse transform="matrix(0.7168 -0.6972 0.6972 0.7168 -14.5785 22.2041)" class="st45" cx="20.048" cy="29.051" rx="1.192" ry="0.511"/>
	<polygon class="st45" points="20.97,28.447 20.97,22.861 20.681,23.028 20.681,28.613 	"/>
	
		<ellipse transform="matrix(0.7168 -0.6972 0.6972 0.7168 -12.2716 23.6958)" class="st45" cx="23.038" cy="26.956" rx="1.192" ry="0.511"/>
	<polygon class="st45" points="23.96,26.352 23.96,20.767 23.671,20.933 23.671,26.519 	"/>
	<polygon class="st45" points="20.681,23.812 23.96,21.514 23.96,20.73 20.681,23.028 	"/>
	<polygon class="st46" points="23.96,20.73 20.679,23.025 20.392,22.92 23.671,20.624 	"/>
</g>
<g id="Quarter">
	<polygon class="st47" points="14.436,27.637 14.436,22.218 14.147,22.111 14.147,27.804 	"/>
	<path class="st47" d="M14.462,27.299c-0.043-0.333-0.491-0.299-1.001,0.076s-0.887,0.949-0.844,1.282
		c0.007,0.054,0.025,0.099,0.052,0.134l0.259,0.255L14.462,27.299z"/>
	
		<ellipse transform="matrix(0.7168 -0.6972 0.6972 0.7168 -15.7824 17.6207)" class="st48" cx="13.803" cy="28.241" rx="1.192" ry="0.511"/>
	<polygon class="st48" points="14.725,27.637 14.725,22.016 14.436,22.218 14.436,27.804 	"/>
	<polygon class="st49" points="14.725,22.016 14.434,22.215 14.147,22.111 14.436,21.911 	"/>
</g>
</svg>
