<?xml version="1.0" encoding="utf-8"?>
<!-- Generator: Adobe Illustrator 25.4.1, SVG Export Plug-In . SVG Version: 6.00 Build 0)  -->
<svg version="1.1" id="Layer_1" xmlns="http://www.w3.org/2000/svg" xmlns:xlink="http://www.w3.org/1999/xlink" x="0px" y="0px"
	 viewBox="0 0 50 50" style="enable-background:new 0 0 50 50;" xml:space="preserve">
<style type="text/css">
	.st0{display:none;}
	.st1{display:inline;}
	.st2{fill:#E7478D;}
	.st3{fill:#BF2878;}
	.st4{fill:#27DEBF;}
	.st5{fill:#1BBC9D;}
	.st6{fill:#A33D64;}
	.st7{fill:#82294D;}
	.st8{fill:#344593;}
	.st9{fill:#3E54A3;}
	.st10{fill:#2E4490;}
	.st11{fill:#122571;}
	.st12{opacity:0.5;fill:#031F60;enable-background:new    ;}
	.st13{fill:#BBDFFF;}
	.st14{fill:#FDB724;}
	.st15{fill:#0A4A80;}
	.st16{fill:#F1FCFF;}
	.st17{fill:#D6E6FF;}
	.st18{fill:#CEF3FF;}
	.st19{fill:#606060;}
	.st20{enable-background:new    ;}
	.st21{fill:#F19729;}
	.st22{fill:#FCB040;}
	.st23{fill:#FFCB49;}
	.st24{fill:#2E5677;}
	.st25{fill:#FF51CE;}
	.st26{fill:#EDE6A0;}
	.st27{fill:#FFF7B0;}
	.st28{fill:url(#SVGID_1_);}
	.st29{fill:url(#Shadow_00000054229281598958443090000007890852943643263617_);}
	.st30{fill:#4D4D4D;}
	.st31{fill:#333333;}
	.st32{fill:#666666;}
	.st33{fill:#1A1A1A;}
	.st34{fill:#D7DAE9;}
	.st35{fill:#A2A8C1;}
	.st36{fill:#EFF0F5;}
	.st37{fill:#525252;}
	.st38{fill:#808080;}
	.st39{fill:#99E1EE;}
	.st40{fill:#FFFFFF;}
	.st41{fill:#FFB78C;}
	.st42{fill:#FFE5CC;}
</style>
<g id="Examples" class="st0">
	<g id="XMLID_00000095305909405757464760000011999065532292582312_" class="st1">
		<path id="XMLID_00000085971219491002120440000005821071841959880880_" class="st2" d="M12.4,36.1c1.1-0.8,1.8-2.7,1.7-4
			c-0.1-1.4-1.2-2-1.7-2.3l0,0c-1.1-0.6-2.8-0.6-3.9,0l0,0C8,30.1,7,30.7,6.8,32.1c-0.1,1.3,0.6,3.2,1.7,4l0,0
			c0.1,0,0.1,0.1,0.2,0.1c1,0.6,2.6,0.6,3.6,0l0,0C12.3,36.2,12.4,36.1,12.4,36.1L12.4,36.1z"/>
		<path id="XMLID_00000163786728381868301940000002159649584101974663_" class="st3" d="M9.9,30.8c-0.3,0.2-0.3,0.4,0,0.6
			s0.8,0.2,1.1,0s0.3-0.4,0-0.6C10.7,30.6,10.2,30.6,9.9,30.8z"/>
		<g id="XMLID_00000065037496580323266530000014425071794249141136_">
			<path id="XMLID_00000090274153724153544200000012157199088345105086_" class="st4" d="M10.5,31.2c0,0-0.9,0-1.4-0.7s0-1.9,0-1.9
				s1.1,0.1,1.7,1C11.2,30.4,10.5,31.2,10.5,31.2z"/>
			<path id="XMLID_00000036941294699681266620000012814196278958535834_" class="st5" d="M9,30.5c0.5,0.7,1.4,0.7,1.4,0.7
				C10.3,29.6,9,28.6,9,28.6S8.5,29.8,9,30.5z"/>
		</g>
		<path id="XMLID_00000132081473817469337940000002047110052283216818_" class="st6" d="M10.5,31.2c0,0,0-1.3,0.7-1.9
			s1.2-0.6,1.2-0.6c0.4,0,0.9,0.4,0.7,0.4c0,0-0.9,0-1.5,0.5s-0.9,1.5-0.9,1.6c0,0,0,0.1-0.1,0.1C10.5,31.3,10.5,31.2,10.5,31.2z"/>
		<path id="XMLID_00000181049770300388131540000017373587466471974298_" class="st7" d="M12.4,28.7c-0.1,0-0.1,0.1,0.2,0.3
			c0.2,0.1,0.4,0.2,0.5,0.2l0,0C13.3,29,12.8,28.7,12.4,28.7z"/>
	</g>
	<g class="st1">
		<g id="XMLID_00000175318191651491366990000003593326785309375922_">
			<path id="XMLID_00000165924761696125779080000017908350819627401617_" class="st8" d="M45.3,33.2v-4.6l0,0c0-0.9-0.6-1.8-1.7-2.4
				c-2.3-1.3-6-1.3-8.4,0c-1.2,0.7-1.7,1.6-1.7,2.4l0,0v4.5c0,0.9,0.6,1.8,1.7,2.4c2.3,1.3,6,1.3,8.4,0
				C44.8,34.9,45.3,34.1,45.3,33.2L45.3,33.2L45.3,33.2L45.3,33.2z"/>
			<path id="XMLID_00000078021412665340228200000000696485778703687324_" class="st8" d="M45.3,33.2v-4.6l0,0c0-0.9-0.6-1.8-1.7-2.4
				c-2.3-1.3-6-1.3-8.4,0c-1.2,0.7-1.7,1.6-1.7,2.4l0,0v4.5c0,0.9,0.6,1.8,1.7,2.4c2.3,1.3,6,1.3,8.4,0
				C44.8,34.9,45.3,34.1,45.3,33.2L45.3,33.2L45.3,33.2L45.3,33.2z"/>
		</g>
		<polygon id="XMLID_00000060010272051433115720000008425392920258306237_" class="st9" points="39.4,23 29.7,28.6 39.4,34.2 
			49.2,28.6 		"/>
		<path id="XMLID_00000180355881877501702720000004648502827384561835_" class="st10" d="M44.3,31.4l-4.8-2.7c-0.1,0-0.2,0-0.2,0.1
			s0,0.2,0.1,0.2l4.6,2.6L44.3,31.4z"/>
		<polygon id="XMLID_00000142135950515584755510000012976722388421673145_" class="st11" points="29.7,28.6 29.7,29 39.4,34.6 
			39.4,34.2 		"/>
		<polygon id="XMLID_00000033336252494225749340000013082611193976852614_" class="st10" points="49.2,28.6 49.2,29 39.4,34.6 
			39.4,34.2 		"/>
		<polygon id="XMLID_00000089535858472345429640000013947805709643745712_" class="st12" points="33.5,31.2 39.4,35.2 45.3,31.2 
			39.4,34.6 		"/>
		<g id="XMLID_00000157285768750038000270000004875202148109304742_">
			<path id="XMLID_00000031919562757721725510000011146091710997871503_" class="st13" d="M44.7,36.2c-0.1,0-0.2-0.1-0.2-0.2v-4
				c0-0.2-0.1-0.4-0.3-0.4l-4.9-2.8c-0.1,0-0.1-0.2-0.1-0.2c0-0.1,0.2-0.1,0.2-0.1l4.9,2.8c0.3,0.2,0.4,0.4,0.4,0.7v4
				C44.8,36.1,44.7,36.2,44.7,36.2z"/>
		</g>
		<path class="st14" d="M45.3,39.3L45,36.6c0.1-0.1,0.1-0.2,0-0.2l0,0l0,0l0,0v-0.1l0,0l0,0l0,0c0-0.2-0.2-0.4-0.4-0.4
			c0,0,0,0-0.1,0l0,0l0,0c0,0,0,0-0.1,0c0,0,0,0-0.1,0c0,0,0,0-0.1,0c0,0,0,0,0,0.1l0,0v0.1c0,0.1,0,0.2,0.1,0.3l0,0
			c-0.1,0.1,0,0.2,0,0.2L44,39.3c0,0.1,0.1,0.2,0.3,0.3l0,0h0.1l0,0c0.1,0,0.2,0.1,0.3,0.1l0,0l0,0l0,0l0,0l0,0c0.1,0,0.2,0,0.3-0.1
			l0,0h0.1l0,0C45.3,39.5,45.3,39.4,45.3,39.3z"/>
	</g>
	<g class="st1">
		<g>
			<path class="st15" d="M26,28.8L26,28.8c-1,0.6-1.9,1-2.8,1.2l0,0c0,0,0,0-0.1,0l-0.5,0.2h-0.1c-0.1,0-0.2,0.1-0.3,0.1h-0.1
				c-0.1,0-0.2,0.1-0.2,0.1h-0.1c-0.5,0.2-0.9,0.4-1.4,0.7c-0.1,0.1-0.2,0.1-0.3,0.2L20,31.4c-0.4,0.3-2,1.5-2.9,2.5l-0.6,0.6
				L16,34.6c-1,0.2-2,0.5-3,1.1c-0.1,0.1-0.2,0.1-0.3,0.2c-0.3,0.2-0.5,0.3-0.8,0.5l0,0l-0.1,0.1c-0.1,0.1-0.2,0.1-0.3,0.2l0,0l0,0
				c-0.4,0.3-0.9,0.7-1.3,1.1c-0.1,0.1-0.2,0.2-0.3,0.3c-0.3,0.3-0.7,0.6-1,0.9H8.8c-0.3,0.3-0.7,0.5-1,0.8
				c-0.2,0.2-0.5,0.3-0.7,0.5H7l13.7,8.3h0.1c0.8-0.5,1.7-1.2,2.5-1.9c0.5-0.5,1.1-0.9,1.7-1.4c1.2-0.9,2.3-1.5,3.2-1.8
				c0.7-0.3,1.4-0.5,2.1-0.6l0.5-0.6c0.7-0.7,1.5-1.3,2.4-1.8c1.5-1,3.2-1.8,4.9-2.5c0.6-0.2,1.2-0.5,1.6-0.7l0.2-0.1L26,28.8z"/>
			<g>
				<g>
					<g>
						<path class="st16" d="M39.1,36.7c-0.5,0.3-0.7,0.4-1.2,0.6c-0.3,0.1-0.5,0.2-0.8,0.3c-0.2,0.1-0.3,0.1-0.5,0.1
							c-0.7,0.2-1.4,0.4-2,0.8c-0.2,0.1-0.4,0.2-0.6,0.3c-1.3,0.8-2.6,2-3.9,3.5l-2.5-1.5l-11-6.7c1.3-1.5,2.6-2.7,3.9-3.5
							c0.2-0.1,0.4-0.2,0.6-0.3c0.7-0.4,1.4-0.6,2-0.8c0.2,0,0.3-0.1,0.5-0.1c0.3-0.1,0.5-0.2,0.8-0.3c0.5-0.2,0.7-0.3,1.2-0.6
							L39.1,36.7z"/>
						<g>
							<path class="st16" d="M30.1,42.3c-1.3,0.1-2.6,0.5-3.9,1.3c-0.2,0.1-0.4,0.2-0.6,0.4c-0.7,0.5-1.4,1-2,1.7
								c-0.2,0.2-0.3,0.3-0.5,0.4c-0.3,0.3-0.6,0.5-0.9,0.7c-0.5,0.4-0.8,0.6-1.3,0.9L7.5,39.5C8,39.2,8.3,39,8.8,38.6
								c0.3-0.2,0.6-0.5,0.9-0.7c0.2-0.1,0.3-0.3,0.5-0.4c0.7-0.6,1.4-1.2,2-1.7c0.2-0.1,0.4-0.3,0.6-0.4c1.3-0.8,2.6-1.2,3.9-1.3
								l11,6.7L30.1,42.3z"/>
						</g>
					</g>
					<polygon class="st17" points="7.5,39.5 7.3,40.3 20.7,48.5 20.9,47.7 					"/>
					<path class="st18" d="M39.4,37.1c-0.9,0.6-1.8,1-2.7,1.2c0,0,0,0-0.1,0s-0.2,0-0.3,0.1c-0.1,0-0.2,0.1-0.3,0.1
						s-0.2,0.1-0.3,0.1c-0.6,0.2-1.2,0.5-1.8,0.9c-0.1,0.1-0.2,0.1-0.3,0.2c-1,0.7-2,1.5-3,2.5L30,42.8l-0.6,0.1c-1,0.2-2,0.5-3,1.1
						c-0.1,0.1-0.2,0.1-0.3,0.2c-0.3,0.2-0.5,0.3-0.8,0.5c-0.6,0.4-1.1,0.9-1.7,1.4c-0.1,0.1-0.2,0.2-0.3,0.3
						c-0.9,0.9-1.8,1.6-2.7,2.2l0.2-0.8c0.5-0.3,0.8-0.5,1.3-0.9c0.3-0.2,0.6-0.5,0.9-0.7c0.2-0.1,0.3-0.3,0.5-0.4
						c0.7-0.6,1.4-1.2,2-1.7c0.2-0.1,0.4-0.3,0.6-0.4c1.3-0.8,2.6-1.2,3.9-1.3c1.3-1.5,2.6-2.7,3.9-3.5c0.2-0.1,0.4-0.2,0.6-0.3
						c0.7-0.4,1.4-0.6,2-0.8c0.2,0,0.3-0.1,0.5-0.1c0.3-0.1,0.5-0.2,0.8-0.3c0.5-0.2,0.7-0.3,1.2-0.6L39.4,37.1z"/>
				</g>
			</g>
			<g>
				<path class="st19" d="M17.8,34.6C17.9,34.6,17.9,34.6,17.8,34.6c1.2-1.4,2.5-2.5,3.7-3.2c0.2-0.1,0.4-0.2,0.5-0.3
					c0.7-0.3,1.3-0.6,2-0.8c0.2,0,0.3-0.1,0.5-0.1c0.3-0.1,0.5-0.2,0.8-0.3c0.4-0.2,0.7-0.3,1.1-0.5c0,0,0,0,0-0.1s0,0-0.1,0
					c-0.4,0.2-0.6,0.3-1,0.5c-0.3,0.1-0.5,0.2-0.8,0.3c-0.2,0.1-0.3,0.1-0.5,0.1c-0.7,0.2-1.3,0.4-2,0.8c-0.2,0.1-0.4,0.2-0.6,0.3
					C20.3,32.1,19,33.2,17.8,34.6C17.8,34.5,17.8,34.6,17.8,34.6L17.8,34.6z"/>
				<path class="st19" d="M25.4,30.6c-0.2,0.1-0.3,0.1-0.5,0.1c-0.7,0.2-1.3,0.4-2,0.8c-0.2,0.1-0.4,0.2-0.6,0.3
					c-1.2,0.7-2.5,1.8-3.7,3.2v0.1l0,0l0,0c1.2-1.4,2.5-2.5,3.7-3.2c0.2-0.1,0.4-0.2,0.6-0.3c0.7-0.4,1.3-0.6,2-0.8
					C25.1,30.8,25.3,30.7,25.4,30.6c0.3,0,0.6-0.1,0.8-0.2c0.4-0.2,0.6-0.3,1-0.5c0,0,0,0,0-0.1c0,0,0,0-0.1,0
					c-0.4,0.2-0.6,0.3-1,0.5C25.9,30.4,25.7,30.5,25.4,30.6z"/>
				<path class="st19" d="M26.2,31.1c-0.2,0.1-0.3,0.1-0.5,0.1c-0.7,0.2-1.3,0.4-2,0.8c-0.2,0.1-0.4,0.2-0.6,0.3
					c-1.2,0.7-2.5,1.8-3.7,3.2v0.1l0,0l0,0c1.2-1.4,2.5-2.5,3.7-3.2c0.2-0.1,0.4-0.2,0.6-0.3c0.7-0.4,1.4-0.6,2-0.8
					C25.9,31.3,26.1,31.2,26.2,31.1c0.3,0,0.6-0.1,0.8-0.2c0.4-0.2,0.6-0.3,1-0.5c0,0,0,0,0-0.1c0,0,0,0-0.1,0
					c-0.4,0.2-0.6,0.3-1,0.5C26.8,30.9,26.5,31,26.2,31.1z"/>
				<path class="st19" d="M27.1,31.5c-0.2,0.1-0.3,0.1-0.5,0.1c-0.7,0.2-1.3,0.4-2,0.8c-0.2,0.1-0.4,0.2-0.6,0.3
					c-1.2,0.7-2.5,1.8-3.7,3.2V36l0,0l0,0c1.2-1.4,2.5-2.5,3.7-3.2c0.2-0.1,0.4-0.2,0.6-0.3c0.7-0.4,1.4-0.6,2-0.8
					C26.7,31.7,26.9,31.7,27.1,31.5c0.3,0,0.6-0.1,0.8-0.2c0.4-0.2,0.6-0.3,1-0.5c0,0,0,0,0-0.1c0,0,0,0-0.1,0
					c-0.4,0.2-0.6,0.3-1,0.5C27.6,31.4,27.3,31.5,27.1,31.5z"/>
				<path class="st19" d="M27.9,32c-0.2,0.1-0.3,0.1-0.5,0.1c-0.7,0.2-1.4,0.4-2,0.8c-0.2,0.1-0.4,0.2-0.6,0.3
					c-1.2,0.7-2.5,1.9-3.7,3.2v0.1l0,0l0,0c1.2-1.4,2.5-2.5,3.7-3.2c0.2-0.1,0.4-0.2,0.6-0.3c0.7-0.4,1.4-0.6,2-0.8
					C27.6,32.2,27.8,32.2,27.9,32c0.3,0,0.6-0.1,0.8-0.2c0.4-0.2,0.6-0.3,1-0.5c0,0,0,0,0-0.1c0,0,0,0-0.1,0c-0.4,0.2-0.6,0.3-1,0.5
					C28.4,31.8,28.1,31.9,27.9,32z"/>
				<path class="st19" d="M28.7,32.5c-0.2,0.1-0.3,0.1-0.5,0.1c-0.7,0.2-1.4,0.4-2,0.8c-0.2,0.1-0.4,0.2-0.6,0.3
					c-1.2,0.7-2.5,1.9-3.7,3.2V37l0,0l0,0c1.2-1.4,2.5-2.5,3.7-3.2c0.2-0.1,0.4-0.2,0.6-0.3c0.7-0.4,1.4-0.6,2-0.8
					C28.4,32.7,28.6,32.6,28.7,32.5c0.3,0,0.6-0.1,0.8-0.2c0.4-0.2,0.6-0.3,1-0.5c0,0,0,0,0-0.1c0,0,0,0-0.1,0
					c-0.3,0.2-0.6,0.3-0.9,0.5C29.2,32.3,29,32.4,28.7,32.5z"/>
				<path class="st19" d="M29.6,33c-0.2,0.1-0.3,0.1-0.5,0.1c-0.7,0.2-1.4,0.4-2.1,0.8c-0.2,0.1-0.4,0.2-0.6,0.3
					c-1.2,0.7-2.5,1.9-3.8,3.3v0.1l0,0l0,0c1.2-1.4,2.5-2.5,3.7-3.2c0.2-0.1,0.4-0.2,0.6-0.3c0.7-0.4,1.4-0.6,2-0.8
					C29.2,33.2,29.4,33.1,29.6,33c0.3,0,0.6-0.1,0.8-0.2c0.4-0.2,0.6-0.3,0.9-0.5c0,0,0,0,0-0.1c0,0,0,0-0.1,0
					c-0.3,0.2-0.5,0.3-0.9,0.4C30.1,32.8,29.8,32.9,29.6,33z"/>
				<path class="st19" d="M30.4,33.5c-0.2,0.1-0.3,0.1-0.5,0.1c-0.7,0.2-1.4,0.4-2.1,0.8c-0.2,0.1-0.4,0.2-0.6,0.3
					c-1.2,0.7-2.5,1.9-3.8,3.3v0.1l0,0l0,0c1.2-1.4,2.5-2.5,3.7-3.2c0.2-0.1,0.4-0.2,0.6-0.3c0.7-0.4,1.4-0.6,2-0.8
					C30.1,33.7,30.2,33.6,30.4,33.5c0.3,0,0.5-0.1,0.8-0.2c0.4-0.2,0.6-0.3,0.9-0.4c0,0,0,0,0-0.1c0,0,0,0-0.1,0
					c-0.3,0.2-0.5,0.3-0.9,0.4C30.9,33.3,30.6,33.4,30.4,33.5z"/>
				<path class="st19" d="M31.2,33.9C31,34,30.9,34,30.7,34.1c-0.7,0.2-1.4,0.4-2.1,0.8c-0.2,0.1-0.4,0.2-0.6,0.3
					c-1.2,0.7-2.5,1.9-3.8,3.3v0.1l0,0l0,0c1.2-1.4,2.5-2.5,3.8-3.3c0.2-0.1,0.4-0.2,0.6-0.3c0.7-0.4,1.4-0.6,2-0.8
					C30.9,34.1,31.1,34.1,31.2,33.9c0.3,0,0.5-0.1,0.8-0.2c0.4-0.2,0.6-0.2,0.9-0.4c0,0,0,0,0-0.1c0,0,0,0-0.1,0
					c-0.3,0.2-0.5,0.3-0.9,0.4C31.7,33.8,31.5,33.9,31.2,33.9z"/>
				<path class="st19" d="M32,34.4c-0.2,0.1-0.3,0.1-0.5,0.1c-0.7,0.2-1.4,0.4-2.1,0.8c-0.2,0.1-0.4,0.2-0.6,0.3
					c-1.2,0.7-2.6,1.9-3.8,3.3V39l0,0l0,0c1.2-1.4,2.5-2.5,3.8-3.3c0.2-0.1,0.4-0.2,0.6-0.3c0.7-0.4,1.4-0.6,2-0.8
					C31.7,34.6,31.9,34.6,32,34.4c0.3,0,0.5-0.1,0.8-0.2c0.4-0.2,0.6-0.2,0.9-0.4c0,0,0,0,0-0.1c0,0,0,0-0.1,0
					c-0.3,0.2-0.5,0.3-0.9,0.4C32.6,34.2,32.3,34.3,32,34.4z"/>
				<path class="st19" d="M32.9,34.9C32.7,35,32.6,35,32.4,35c-0.7,0.2-1.4,0.4-2.1,0.8c-0.2,0.1-0.4,0.2-0.6,0.3
					c-1.2,0.8-2.6,1.9-3.8,3.3v0.1l0,0l0,0c1.2-1.4,2.5-2.5,3.8-3.3c0.2-0.1,0.4-0.2,0.6-0.3c0.7-0.4,1.4-0.6,2.1-0.8
					C32.6,35.1,32.7,35,32.9,34.9c0.3,0,0.5-0.1,0.8-0.2c0.3-0.1,0.6-0.2,0.9-0.4c0,0,0,0,0-0.1c0,0,0,0-0.1,0
					c-0.3,0.2-0.5,0.3-0.8,0.4C33.4,34.7,33.1,34.8,32.9,34.9z"/>
				<path class="st19" d="M33.7,35.4c-0.2,0.1-0.3,0.1-0.5,0.1c-0.7,0.2-1.4,0.4-2.1,0.8c-0.2,0.1-0.4,0.2-0.6,0.3
					c-1.2,0.8-2.6,1.9-3.8,3.3V40l0,0l0,0c1.2-1.4,2.6-2.5,3.8-3.3c0.2-0.1,0.4-0.2,0.6-0.3c0.7-0.4,1.4-0.6,2.1-0.8
					C33.4,35.6,33.6,35.5,33.7,35.4c0.3,0,0.5-0.1,0.8-0.2c0.3-0.1,0.5-0.2,0.8-0.4c0,0,0,0,0-0.1c0,0,0,0-0.1,0
					c-0.3,0.2-0.5,0.3-0.8,0.4C34.2,35.2,34,35.3,33.7,35.4z"/>
				<path class="st19" d="M34.5,35.8c-0.2,0.1-0.3,0.1-0.5,0.1c-0.7,0.2-1.4,0.4-2.1,0.8c-0.2,0.1-0.4,0.2-0.6,0.3
					c-1.3,0.8-2.6,1.9-3.8,3.3v0.1l0,0l0,0c1.2-1.4,2.6-2.6,3.8-3.3c0.2-0.1,0.4-0.2,0.6-0.3c0.7-0.4,1.4-0.6,2.1-0.8
					C34.2,36,34.4,36,34.5,35.8c0.3,0,0.5-0.1,0.8-0.2c0.3-0.1,0.5-0.2,0.8-0.4c0,0,0,0,0-0.1c0,0,0,0-0.1,0
					c-0.3,0.2-0.5,0.2-0.8,0.4C35,35.7,34.8,35.8,34.5,35.8z"/>
				<path class="st19" d="M35.4,36.3c-0.2,0.1-0.3,0.1-0.5,0.1c-0.7,0.2-1.4,0.4-2.1,0.8c-0.2,0.1-0.4,0.2-0.6,0.3
					c-1.3,0.8-2.6,1.9-3.8,3.3v0.1l0,0l0,0c1.3-1.4,2.6-2.6,3.8-3.3c0.2-0.1,0.4-0.2,0.6-0.3c0.7-0.4,1.4-0.6,2.1-0.8
					C35.1,36.5,35.2,36.5,35.4,36.3c0.3,0,0.5-0.1,0.8-0.2c0.3-0.1,0.5-0.2,0.8-0.4c0,0,0,0,0-0.1c0,0,0,0-0.1,0
					c-0.2,0.1-0.4,0.2-0.8,0.4C35.9,36.2,35.6,36.2,35.4,36.3z"/>
				<path class="st19" d="M37.7,36.2c-0.3,0.1-0.5,0.2-0.8,0.4c-0.3,0.1-0.5,0.2-0.8,0.3C35.9,37,35.8,37,35.6,37
					c-0.7,0.2-1.4,0.4-2.1,0.8c-0.2,0.1-0.4,0.2-0.6,0.3c-1.3,0.8-2.6,1.9-3.9,3.3v0.1l0,0l0,0c1.3-1.4,2.6-2.6,3.8-3.3
					c0.2-0.1,0.4-0.2,0.6-0.3c0.7-0.4,1.4-0.6,2.1-0.8c0.2,0,0.3-0.1,0.5-0.1c0.2-0.1,0.5-0.2,0.8-0.3
					C37.3,36.5,37.5,36.4,37.7,36.2C37.8,36.3,37.8,36.2,37.7,36.2C37.8,36.2,37.7,36.2,37.7,36.2z"/>
				<path class="st19" d="M10.6,38.6c0.2-0.1,0.3-0.3,0.5-0.4c0.7-0.6,1.3-1.2,2-1.7c0.2-0.1,0.4-0.2,0.6-0.4
					c1.2-0.7,2.5-1.2,3.7-1.3c0,0,0,0,0-0.1c0,0,0,0-0.1,0c-1.2,0.1-2.5,0.5-3.7,1.3c-0.2,0.1-0.4,0.2-0.6,0.4c-0.7,0.5-1.4,1-2,1.7
					C10.9,38.3,10.7,38.4,10.6,38.6c-0.4,0.2-0.7,0.4-0.9,0.7c-0.4,0.3-0.7,0.5-1,0.7c0,0,0,0,0,0.1l0,0l0,0c0.3-0.2,0.6-0.4,1-0.7
					S10.3,38.9,10.6,38.6z"/>
				<path class="st19" d="M11.5,39.1c0.2-0.1,0.3-0.3,0.5-0.4c0.7-0.6,1.3-1.2,2-1.7c0.2-0.1,0.4-0.2,0.6-0.4
					c1.2-0.7,2.5-1.2,3.7-1.2c0,0,0,0,0-0.1c0,0,0-0.1-0.1,0c-1.2,0.1-2.5,0.5-3.7,1.3c-0.2,0.1-0.4,0.2-0.6,0.4
					c-0.7,0.5-1.4,1-2,1.7C11.7,38.8,11.6,38.9,11.5,39.1c-0.4,0.2-0.7,0.4-0.9,0.7c-0.4,0.3-0.7,0.5-1,0.7c0,0,0,0,0,0.1l0,0l0,0
					c0.3-0.2,0.6-0.4,1-0.7C10.9,39.6,11.2,39.4,11.5,39.1z"/>
				<path class="st19" d="M12.3,39.6c0.2-0.1,0.3-0.3,0.5-0.4c0.7-0.6,1.3-1.2,2-1.7c0.2-0.1,0.4-0.3,0.6-0.4
					c1.2-0.7,2.4-1.2,3.6-1.2c0,0,0,0,0-0.1s0,0-0.1,0c-1.2,0.1-2.5,0.5-3.7,1.3c-0.2,0.1-0.4,0.2-0.6,0.4c-0.7,0.5-1.4,1-2,1.7
					C12.5,39.2,12.4,39.4,12.3,39.6c-0.4,0.2-0.7,0.4-0.9,0.7c-0.4,0.3-0.7,0.5-1,0.7c0,0,0,0,0,0.1l0,0l0,0c0.3-0.2,0.6-0.4,1-0.7
					C11.7,40.1,12,39.9,12.3,39.6z"/>
				<path class="st19" d="M13.1,40.1c0.2-0.1,0.3-0.3,0.5-0.4c0.7-0.6,1.3-1.2,2-1.7c0.2-0.1,0.4-0.3,0.6-0.4
					c1.2-0.7,2.4-1.1,3.6-1.2c0,0,0,0,0-0.1c0,0,0,0-0.1,0c-1.2,0.1-2.4,0.5-3.6,1.3c-0.2,0.1-0.4,0.2-0.6,0.4c-0.7,0.5-1.4,1-2,1.7
					C13.3,39.7,13.2,39.9,13.1,40.1c-0.4,0.2-0.6,0.4-0.9,0.7c-0.4,0.3-0.7,0.5-1,0.7c0,0,0,0,0,0.1l0,0l0,0c0.3-0.2,0.6-0.4,1-0.7
					C12.5,40.6,12.8,40.4,13.1,40.1z"/>
				<path class="st19" d="M13.9,40.6c0.2-0.1,0.3-0.3,0.5-0.4c0.7-0.6,1.3-1.2,2-1.7c0.2-0.1,0.4-0.3,0.6-0.4
					c1.2-0.7,2.4-1.1,3.6-1.2c0,0,0,0,0-0.1c0,0,0,0-0.1,0c-1.2,0.1-2.4,0.5-3.6,1.3c-0.2,0.1-0.4,0.2-0.6,0.4c-0.7,0.5-1.4,1-2,1.7
					C14.2,40.2,14,40.4,13.9,40.6c-0.4,0.2-0.6,0.4-0.9,0.7c-0.4,0.3-0.7,0.5-1,0.7c0,0,0,0,0,0.1l0,0l0,0c0.3-0.2,0.6-0.4,1-0.7
					C13.3,41.1,13.6,40.8,13.9,40.6z"/>
				<path class="st19" d="M14.7,41.1c0.2-0.1,0.3-0.3,0.5-0.4c0.7-0.6,1.3-1.2,2-1.7c0.2-0.1,0.4-0.3,0.6-0.4
					c1.2-0.7,2.4-1.1,3.5-1.2c0,0,0,0,0-0.1c0,0,0,0-0.1,0c-1.2,0.1-2.4,0.6-3.6,1.3c-0.2,0.1-0.4,0.2-0.6,0.4c-0.7,0.5-1.4,1-2,1.7
					C15,40.7,14.8,40.8,14.7,41.1c-0.4,0.2-0.6,0.4-0.9,0.7c-0.4,0.3-0.7,0.5-1,0.7c0,0,0,0,0,0.1l0,0l0,0c0.3-0.2,0.6-0.4,1-0.7
					S14.4,41.3,14.7,41.1z"/>
				<path class="st19" d="M15.6,41.5c0.2-0.1,0.3-0.3,0.5-0.4c0.7-0.6,1.3-1.2,2-1.7c0.2-0.1,0.4-0.3,0.6-0.4
					c1.1-0.7,2.4-1.1,3.5-1.2c0,0,0,0,0-0.1s0,0-0.1,0c-1.2,0.1-2.4,0.6-3.5,1.3c-0.2,0.1-0.4,0.2-0.6,0.4c-0.7,0.5-1.4,1-2,1.7
					C15.8,41.2,15.6,41.3,15.6,41.5c-0.4,0.2-0.6,0.4-0.9,0.7c-0.4,0.3-0.7,0.5-1,0.7c0,0,0,0,0,0.1l0,0l0,0c0.3-0.2,0.6-0.4,1-0.7
					C15,42.1,15.3,41.8,15.6,41.5z"/>
				<path class="st19" d="M16.4,42c0.2-0.1,0.3-0.3,0.5-0.4c0.7-0.6,1.3-1.2,2-1.7c0.2-0.1,0.4-0.3,0.6-0.4c1.1-0.7,2.3-1.1,3.5-1.2
					c0,0,0,0,0-0.1s0,0-0.1,0c-1.2,0.1-2.4,0.6-3.5,1.3c-0.2,0.1-0.4,0.2-0.6,0.4c-0.7,0.5-1.4,1-2.1,1.7
					C16.6,41.7,16.5,41.8,16.4,42c-0.4,0.2-0.6,0.4-0.9,0.7c-0.4,0.3-0.7,0.5-1,0.7c0,0,0,0,0,0.1l0,0l0,0c0.3-0.2,0.6-0.4,1.1-0.7
					C15.8,42.5,16.1,42.3,16.4,42z"/>
				<path class="st19" d="M17.2,42.5c0.2-0.1,0.3-0.3,0.5-0.4c0.7-0.6,1.4-1.2,2-1.7c0.2-0.1,0.4-0.3,0.6-0.4
					c1.1-0.7,2.3-1.1,3.4-1.2c0,0,0,0,0-0.1s0,0-0.1,0c-1.1,0.1-2.3,0.6-3.5,1.3c-0.2,0.1-0.4,0.2-0.6,0.4c-0.7,0.5-1.4,1-2.1,1.7
					C17.4,42.2,17.3,42.3,17.2,42.5c-0.4,0.2-0.6,0.4-0.9,0.6c-0.4,0.3-0.7,0.5-1.1,0.7c0,0,0,0,0,0.1l0,0l0,0
					c0.3-0.2,0.6-0.4,1.1-0.8C16.6,43,16.9,42.8,17.2,42.5z"/>
				<path class="st19" d="M18,43c0.2-0.1,0.3-0.3,0.5-0.4c0.7-0.6,1.4-1.2,2-1.7c0.2-0.1,0.4-0.3,0.6-0.4c1.1-0.7,2.3-1.1,3.4-1.2
					c0,0,0,0,0-0.1s0,0-0.1,0c-1.1,0.1-2.3,0.6-3.5,1.3c-0.2,0.1-0.4,0.2-0.6,0.4c-0.7,0.5-1.4,1.1-2.1,1.7
					C18.3,42.6,18.1,42.8,18,43c-0.4,0.2-0.6,0.4-0.9,0.6c-0.4,0.3-0.7,0.6-1.1,0.8c0,0,0,0,0,0.1l0,0l0,0c0.3-0.2,0.7-0.4,1.1-0.8
					C17.4,43.5,17.7,43.3,18,43z"/>
				<path class="st19" d="M18.8,43.5c0.2-0.1,0.3-0.3,0.5-0.4c0.7-0.6,1.4-1.2,2-1.7c0.2-0.1,0.4-0.3,0.6-0.4
					c1.1-0.7,2.3-1.1,3.4-1.2c0,0,0,0,0-0.1c0,0,0,0-0.1,0c-1.1,0.1-2.3,0.6-3.4,1.3c-0.2,0.1-0.4,0.2-0.6,0.4
					c-0.7,0.5-1.4,1.1-2.1,1.7C19.1,43.1,18.9,43.3,18.8,43.5c-0.4,0.2-0.6,0.4-0.9,0.6c-0.4,0.3-0.7,0.6-1.1,0.8c0,0,0,0,0,0.1l0,0
					l0,0c0.3-0.2,0.7-0.4,1.1-0.8C18.3,44,18.5,43.7,18.8,43.5z"/>
				<path class="st19" d="M19.6,44c0.2-0.1,0.3-0.3,0.5-0.4c0.7-0.6,1.4-1.2,2.1-1.7c0.2-0.1,0.4-0.3,0.6-0.4
					c1.1-0.7,2.3-1.1,3.4-1.2c0,0,0,0,0-0.1c0,0,0,0-0.1,0c-1.1,0.2-2.3,0.6-3.4,1.3c-0.2,0.1-0.4,0.2-0.6,0.4
					c-0.7,0.5-1.4,1.1-2.1,1.7C19.9,43.6,19.7,43.8,19.6,44c-0.4,0.2-0.6,0.4-0.9,0.6c-0.4,0.3-0.8,0.6-1.1,0.8c0,0,0,0,0,0.1l0,0
					l0,0c0.3-0.2,0.7-0.4,1.1-0.8C19.1,44.5,19.4,44.2,19.6,44z"/>
				<path class="st19" d="M20.5,44.5c0.2-0.1,0.3-0.3,0.5-0.4c0.7-0.6,1.4-1.2,2.1-1.7c0.2-0.1,0.4-0.3,0.6-0.4
					c1.1-0.7,2.2-1.1,3.3-1.2c0,0,0,0,0-0.1c0,0,0,0-0.1,0c-1.1,0.2-2.3,0.6-3.4,1.3c-0.2,0.1-0.4,0.2-0.6,0.4
					c-0.7,0.5-1.4,1.1-2.1,1.7C20.7,44.1,20.5,44.2,20.5,44.5c-0.4,0.2-0.6,0.4-0.9,0.6c-0.4,0.3-0.8,0.6-1.1,0.8c0,0,0,0,0,0.1l0,0
					l0,0c0.3-0.2,0.7-0.4,1.1-0.8C19.9,45,20.2,44.7,20.5,44.5z"/>
				<path class="st19" d="M21.3,44.9c0.2-0.1,0.3-0.3,0.5-0.4c0.7-0.7,1.4-1.2,2.1-1.7c0.2-0.1,0.4-0.3,0.6-0.4
					c1.1-0.6,2.2-1.1,3.3-1.2c0,0,0,0,0-0.1c0,0,0,0-0.1,0c-1.1,0.2-2.3,0.6-3.3,1.3c-0.2,0.1-0.4,0.2-0.6,0.4
					c-0.7,0.5-1.4,1.1-2.1,1.7C21.5,44.6,21.4,44.7,21.3,44.9c-0.4,0.2-0.6,0.4-0.9,0.6c-0.4,0.3-0.8,0.6-1.1,0.8c0,0,0,0,0,0.1l0,0
					l0,0c0.4-0.2,0.7-0.4,1.1-0.8C20.7,45.4,21,45.2,21.3,44.9z"/>
				<path class="st19" d="M25.2,42.8c-0.2,0.1-0.4,0.2-0.6,0.4c-0.7,0.5-1.4,1.1-2.1,1.7c-0.2,0.1-0.3,0.3-0.5,0.4
					c-0.3,0.3-0.6,0.5-0.9,0.7c-0.4,0.3-0.8,0.6-1.1,0.8c0,0,0,0,0,0.1l0,0l0,0c0.4-0.2,0.7-0.4,1.1-0.8c0.3-0.2,0.6-0.5,0.9-0.7
					c0.2-0.1,0.3-0.3,0.5-0.4c0.7-0.7,1.4-1.2,2.1-1.7C24.8,43.2,25,43,25.2,42.8c1.1-0.6,2.2-1,3.3-1.2c0,0,0,0,0-0.1
					c0,0,0,0-0.1,0C27.4,41.7,26.2,42.2,25.2,42.8z"/>
			</g>
		</g>
		<g>
			<g>
				<g>
					<g>
						<g class="st20">
							<g>
								<path class="st21" d="M29.1,41.9l-7.9-4.6l-0.1-0.1L29.1,41.9L29.1,41.9z"/>
							</g>
							<g>
								<path class="st22" d="M29.2,41.6c-0.1,0.1-0.1,0.1-0.1,0.2l-7.9-4.6l0.1-0.2L29.2,41.6z"/>
							</g>
							<g>
								<path class="st23" d="M29.4,41.5h-0.1c0,0-0.1,0-0.1,0.1l-8-4.6l0.2-0.1L29.4,41.5z"/>
							</g>
						</g>
					</g>
					<g>
						<polygon class="st24" points="30.3,42.2 30.3,42.3 30.3,42.3 30.3,42.3 30.2,42.3 30.3,42.3 						"/>
					</g>
					<path d="M30.3,42.2L30,42l0,0c0,0,0,0-0.1,0l-0.1,0.1l0,0L30.3,42.2C30.3,42.3,30.3,42.3,30.3,42.2
						C30.3,42.3,30.3,42.3,30.3,42.2z"/>
					<path class="st25" d="M21.7,37h-0.1l-0.1,0.1c0,0.1-0.1,0.1-0.1,0.2v0.1L21,37.1c0,0-0.1,0-0.1-0.1s0-0.1,0.1-0.2
						c0-0.1,0.1-0.1,0.1-0.1h0.1l0,0L21.7,37z"/>
					<path class="st26" d="M29.4,41.5L29.4,41.5L29.4,41.5z"/>
				</g>
				<path class="st27" d="M29.4,41.5L29.4,41.5L29.4,41.5c-0.1,0-0.2,0-0.2,0s0,0,0,0.1l0,0c0,0-0.1,0.1-0.1,0.2l0,0v0.1l0,0
					l0.8,0.3l0,0c0,0,0-0.1,0.1-0.1c0,0,0,0,0.1,0L29.4,41.5z"/>
			</g>
			
				<linearGradient id="SVGID_1_" gradientUnits="userSpaceOnUse" x1="21.7732" y1="3571.1643" x2="21.5925" y2="3571.4897" gradientTransform="matrix(1 0 0 1 0 -3534)">
				<stop  offset="0" style="stop-color:#78ACED"/>
				<stop  offset="1" style="stop-color:#4F7BB3"/>
			</linearGradient>
			<path class="st28" d="M22.1,37.3L22.1,37.3L22.1,37.3L21.7,37l0,0l0,0h-0.1l0,0h-0.1c-0.1,0-0.1,0.1-0.1,0.1
				c0,0.1-0.1,0.1-0.1,0.2c0,0,0,0.1,0.1,0.1h0.1l0,0l0,0l0.3,0.2l0,0l0,0l0.1,0.1l0,0l0,0l0,0c0,0,0,0,0-0.1l0,0v-0.1l0,0l0.1-0.1
				l0,0C22,37.3,22,37.2,22.1,37.3L22.1,37.3L22.1,37.3L22.1,37.3L22.1,37.3z"/>
		</g>
	</g>
</g>
<radialGradient id="Shadow_00000099634351145024424700000004934366356393369998_" cx="-2007.4119" cy="7107.4072" r="15.9021" gradientTransform="matrix(1.5353 0 0 0.4819 3106.9795 -3383.5596)" gradientUnits="userSpaceOnUse">
	<stop  offset="0" style="stop-color:#B4BCC1"/>
	<stop  offset="0.1096" style="stop-color:#B6BEC3;stop-opacity:0.9647"/>
	<stop  offset="0.94" style="stop-color:#ECEEEF;stop-opacity:0"/>
</radialGradient>
<ellipse id="Shadow_00000124883909830958886210000001682785288415821703_" style="fill:url(#Shadow_00000099634351145024424700000004934366356393369998_);" cx="25" cy="41.5" rx="24.4" ry="7.7"/>
<g>
	<g>
		<g>
			<g>
				<g>
					<g>
						<g class="st20">
							<g>
								<path class="st30" d="M30.095,28.945l0.405,0.281c0.008,0.006,0.016,0.012,0.023,0.019l-0.405-0.281
									C30.111,28.957,30.103,28.951,30.095,28.945z"/>
							</g>
							<g>
								<path class="st31" d="M30.198,29.666l-0.405-0.281c0.088,0.061,0.22,0.034,0.308-0.068c0.096-0.111,0.104-0.269,0.017-0.353
									l0.405,0.281c0.087,0.084,0.079,0.242-0.017,0.353C30.418,29.7,30.286,29.727,30.198,29.666z"/>
							</g>
							<path class="st32" d="M30.581,29.437l-0.405-0.282c0.005-0.037,0.003-0.073-0.007-0.106l0.405,0.282
								C30.584,29.364,30.586,29.4,30.581,29.437z"/>
							<path class="st33" d="M30.539,29.553c-0.01,0.016-0.021,0.031-0.033,0.045c-0.024,0.028-0.052,0.051-0.082,0.067
								l-0.405-0.282c0.029-0.016,0.057-0.039,0.081-0.067c0.013-0.014,0.024-0.03,0.033-0.046L30.539,29.553z"/>
							<g>
								<path class="st30" d="M30.118,28.964c0.087,0.084,0.079,0.242-0.017,0.353c-0.096,0.111-0.245,0.133-0.331,0.049
									c-0.087-0.084-0.079-0.242,0.017-0.353C29.883,28.902,30.032,28.88,30.118,28.964z"/>
							</g>
						</g>
					</g>
				</g>
				<g>
					<g>
						<g class="st20">
							<path class="st34" d="M30.144,28.919c-0.01-0.01-0.022-0.019-0.034-0.026l0,0l-1.036-0.818l-0.488,0.704l1.168,0.666l0,0
								c0.108,0.065,0.263,0.03,0.368-0.091C30.241,29.217,30.25,29.022,30.144,28.919z"/>
							<path class="st35" d="M30.163,29.297c-0.012,0.019-0.025,0.038-0.041,0.056c-0.029,0.034-0.063,0.061-0.098,0.081
								l-1.081-0.665l0.184-0.18L30.163,29.297z"/>
							<path class="st36" d="M30.214,29.157L30.214,29.157l-1.019-0.755l-0.059-0.117l0.048-0.054l1.021,0.797l0.003,0.003
								C30.219,29.07,30.221,29.113,30.214,29.157z"/>
							<g>
								<path class="st30" d="M29.103,28.097c0.139,0.135,0.127,0.389-0.028,0.567c-0.155,0.178-0.393,0.213-0.533,0.078
									c-0.139-0.135-0.127-0.389,0.028-0.567S28.963,27.962,29.103,28.097z"/>
							</g>
						</g>
					</g>
				</g>
				<g>
					<g>
						<g class="st20">
							<g>
								<path class="st30" d="M28.968,27.95l0.27,0.187c0.014,0.01,0.027,0.021,0.04,0.033l-0.27-0.187
									C28.995,27.971,28.982,27.96,28.968,27.95z"/>
							</g>
							<g>
								<path class="st31" d="M28.707,28.906l-0.27-0.187c0.154,0.107,0.385,0.06,0.54-0.118c0.169-0.194,0.182-0.471,0.031-0.618
									l0.27,0.187c0.152,0.147,0.138,0.424-0.031,0.618C29.093,28.966,28.862,29.013,28.707,28.906z"/>
							</g>
							<path class="st32" d="M29.379,28.505l-0.27-0.188c0.009-0.064,0.005-0.128-0.012-0.186l0.27,0.188
								C29.384,28.377,29.388,28.441,29.379,28.505z"/>
							<path class="st33" d="M29.305,28.709c-0.017,0.028-0.036,0.054-0.058,0.079c-0.043,0.049-0.091,0.089-0.143,0.117
								l-0.27-0.188c0.051-0.029,0.1-0.068,0.142-0.117c0.022-0.025,0.041-0.052,0.058-0.08L29.305,28.709z"/>
							<g>
								<path class="st30" d="M29.008,27.983c0.152,0.147,0.138,0.424-0.031,0.618s-0.428,0.232-0.58,0.085
									c-0.152-0.147-0.138-0.424,0.031-0.618C28.596,27.874,28.856,27.836,29.008,27.983z"/>
							</g>
						</g>
					</g>
				</g>
				<g>
					<g>
						<g class="st20">
							<path class="st34" d="M28.954,28.028c-0.013-0.012-0.026-0.022-0.04-0.032l0,0l-1.248-0.985l-0.587,0.848l1.406,0.802l0,0
								c0.13,0.078,0.317,0.036,0.443-0.109C29.071,28.386,29.083,28.152,28.954,28.028z"/>
							<path class="st35" d="M28.977,28.484c-0.014,0.023-0.03,0.046-0.049,0.067c-0.035,0.041-0.075,0.073-0.117,0.097l-1.302-0.8
								l0.222-0.217L28.977,28.484z"/>
							<path class="st36" d="M29.039,28.314L29.039,28.314l-1.227-0.909l-0.071-0.141l0.058-0.065l1.23,0.96l0.003,0.003
								C29.045,28.21,29.047,28.262,29.039,28.314z"/>
							<g>
								<path class="st30" d="M27.701,27.038c0.168,0.163,0.153,0.468-0.034,0.683c-0.186,0.215-0.473,0.257-0.641,0.094
									c-0.168-0.163-0.153-0.468,0.034-0.683C27.246,26.918,27.533,26.876,27.701,27.038z"/>
							</g>
						</g>
					</g>
				</g>
				<g>
					<g>
						<g class="st20">
							<g>
								<path class="st30" d="M26.966,26.433l0.706,0.49c0.018,0.013,0.035,0.027,0.052,0.043l-0.706-0.49
									C27.002,26.459,26.984,26.445,26.966,26.433z"/>
							</g>
							<g>
								<path class="st31" d="M26.988,27.915l-0.706-0.49c0.199,0.138,0.498,0.077,0.697-0.153c0.218-0.251,0.235-0.608,0.04-0.798
									l0.706,0.49c0.196,0.19,0.178,0.547-0.04,0.798C27.485,27.992,27.187,28.053,26.988,27.915z"/>
							</g>
							<path class="st32" d="M27.854,27.398l-0.706-0.49c0.012-0.083,0.006-0.166-0.016-0.24l0.706,0.491
								C27.861,27.232,27.866,27.314,27.854,27.398z"/>
							<path class="st33" d="M27.759,27.66c-0.022,0.036-0.046,0.07-0.075,0.102c-0.055,0.064-0.118,0.114-0.184,0.151l-0.705-0.49
								c0.066-0.037,0.129-0.087,0.184-0.151c0.028-0.033,0.053-0.067,0.075-0.103L27.759,27.66z"/>
							<g>
								<path class="st30" d="M27.018,26.475c0.196,0.19,0.178,0.547-0.04,0.798s-0.553,0.3-0.749,0.11
									c-0.196-0.19-0.178-0.547,0.04-0.798C26.487,26.335,26.822,26.285,27.018,26.475z"/>
							</g>
							<g>
								<path class="st31" d="M26.998,26.498c0.186,0.18,0.169,0.52-0.038,0.758c-0.207,0.238-0.525,0.285-0.711,0.105
									s-0.169-0.52,0.038-0.758C26.494,26.364,26.812,26.318,26.998,26.498z"/>
							</g>
						</g>
					</g>
					<path class="st32" d="M26.829,27.373c-0.085,0.057-0.177,0.089-0.267,0.096l-0.423-0.299c-0.025-0.088-0.024-0.187,0-0.285
						L26.829,27.373z"/>
					<path class="st33" d="M27.125,26.886l-0.629-0.445c0.034-0.016,0.068-0.029,0.102-0.037l0.527,0.373
						C27.129,26.812,27.128,26.849,27.125,26.886z"/>
				</g>
			</g>
			<g>
				<g class="st20">
					<g>
						<polygon class="st33" points="28.833,28.807 28.964,28.914 28.316,30.346 28.185,30.238 						"/>
					</g>
					<g>
						<polygon class="st37" points="28.185,30.238 28.316,30.346 28.063,30.341 27.932,30.234 						"/>
					</g>
					<g>
						<polygon class="st30" points="28.833,28.807 28.185,30.238 27.932,30.234 28.58,28.802 						"/>
					</g>
				</g>
			</g>
		</g>
		<g>
			<g>
				<polygon class="st34" points="32.723,34.869 31.433,33.573 32.381,31.902 33.67,33.198 				"/>
				<polygon class="st36" points="33.67,33.202 32.381,31.906 34.036,32.229 35.326,33.524 				"/>
				<polygon class="st35" points="32.723,34.869 33.67,33.202 35.326,33.524 				"/>
			</g>
			<g>
				<g>
					<g class="st20">
						<g>
							<path class="st30" d="M30.297,31.342l2.399,1.329c0.022,0.012,0.044,0.027,0.065,0.043l-2.399-1.329
								C30.342,31.369,30.32,31.354,30.297,31.342z"/>
						</g>
						<g>
							<path class="st31" d="M32.021,33.902l-2.399-1.329c0.247,0.136,0.586,0.03,0.789-0.26c0.222-0.316,0.201-0.732-0.049-0.929
								l2.399,1.329c0.25,0.197,0.272,0.613,0.049,0.929C32.606,33.932,32.268,34.038,32.021,33.902z"/>
						</g>
						<path class="st32" d="M32.963,33.199l-2.398-1.329c0.004-0.098-0.012-0.193-0.047-0.277l2.399,1.33
							C32.951,33.007,32.967,33.102,32.963,33.199z"/>
						<path class="st33" d="M32.884,33.515c-0.021,0.044-0.046,0.086-0.074,0.128c-0.057,0.08-0.123,0.147-0.196,0.197l-2.398-1.329
							c0.072-0.051,0.139-0.117,0.195-0.197c0.029-0.041,0.054-0.084,0.075-0.128L32.884,33.515z"/>
						<g>
							<path class="st30" d="M30.362,31.385c0.25,0.197,0.272,0.613,0.049,0.929c-0.222,0.316-0.605,0.413-0.855,0.217
								c-0.249-0.197-0.271-0.613-0.049-0.929C29.73,31.285,30.113,31.188,30.362,31.385z"/>
						</g>
					</g>
				</g>
			</g>
			<g>
				<g>
					<g class="st20">
						<g>
							<path class="st30" d="M30.027,30.376l0.209,0.116c0.045,0.025,0.089,0.054,0.131,0.087l-0.209-0.116
								C30.116,30.43,30.072,30.401,30.027,30.376z"/>
						</g>
						<g>
							<path class="st31" d="M28.872,32.979l-0.209-0.116c0.499,0.274,1.183,0.061,1.594-0.525c0.449-0.639,0.405-1.478-0.099-1.876
								l0.209,0.116c0.504,0.397,0.548,1.237,0.099,1.876C30.055,33.04,29.371,33.254,28.872,32.979z"/>
						</g>
						<path class="st32" d="M30.775,31.56l-0.209-0.118c0.007-0.198-0.025-0.389-0.095-0.559l0.21,0.119
							C30.751,31.172,30.783,31.363,30.775,31.56z"/>
						<path class="st33" d="M30.616,32.198c-0.042,0.088-0.092,0.175-0.15,0.257c-0.114,0.162-0.249,0.296-0.395,0.398l-0.208-0.117
							c0.146-0.102,0.28-0.236,0.394-0.397c0.059-0.083,0.109-0.17,0.151-0.259L30.616,32.198z"/>
						<g>
							<path class="st30" d="M30.158,30.463c0.504,0.397,0.548,1.237,0.099,1.876c-0.449,0.639-1.222,0.835-1.726,0.437
								c-0.504-0.397-0.548-1.237-0.099-1.876C28.882,30.261,29.654,30.066,30.158,30.463z"/>
						</g>
					</g>
				</g>
			</g>
			<g>
				<g>
					<g class="st20">
						<path class="st34" d="M30.153,30.434c-0.05-0.039-0.103-0.072-0.158-0.1v-0.001l-10.851-6.36l-1.813,3.292l11.358,5.636
							L28.69,32.9c0.501,0.235,1.161,0.013,1.564-0.56C30.71,31.69,30.665,30.837,30.153,30.434z"/>
						<path class="st35" d="M30.406,32.079c-0.042,0.09-0.093,0.177-0.152,0.261c-0.113,0.16-0.246,0.293-0.39,0.397l-10.979-5.67
							l0.723-0.87L30.406,32.079z"/>
						<path class="st36" d="M30.567,31.442L30.567,31.442L19.819,25.35l-0.31-0.485l0.186-0.256l10.777,6.275l0.012,0.01
							C30.548,31.062,30.576,31.249,30.567,31.442z"/>
						<g>
							
								<ellipse transform="matrix(0.4817 -0.8764 0.8764 0.4817 -12.9922 29.2208)" class="st30" cx="18.206" cy="25.594" rx="1.882" ry="1.535"/>
						</g>
					</g>
				</g>
			</g>
			<g>
				<g>
					<g class="st20">
						<g>
							<path class="st30" d="M16.755,22.636l2.348,1.296c0.06,0.033,0.119,0.072,0.174,0.116l-2.348-1.296
								C16.874,22.708,16.816,22.67,16.755,22.636z"/>
						</g>
						<g>
							<path class="st30" d="M17.294,27.233l-2.348-1.296c0.663,0.364,1.57,0.081,2.116-0.696c0.596-0.848,0.537-1.962-0.131-2.49
								l2.348,1.296c0.669,0.527,0.728,1.642,0.131,2.49C18.863,27.314,17.956,27.597,17.294,27.233z"/>
						</g>
						<path class="st32" d="M19.819,25.35l-2.348-1.298c0.01-0.262-0.033-0.516-0.126-0.742l2.349,1.298
							C19.787,24.834,19.829,25.087,19.819,25.35z"/>
						<path class="st33" d="M19.608,26.196c-0.056,0.117-0.122,0.232-0.199,0.342c-0.151,0.215-0.33,0.393-0.524,0.528l-2.346-1.297
							c0.193-0.136,0.372-0.313,0.523-0.527c0.078-0.111,0.144-0.226,0.2-0.344L19.608,26.196z"/>
						<g>
							
								<ellipse transform="matrix(0.4817 -0.8764 0.8764 0.4817 -13.065 26.4844)" class="st30" cx="15.856" cy="24.287" rx="1.882" ry="1.535"/>
						</g>
					</g>
				</g>
			</g>
			<g>
				<g>
					<g class="st20">
						<g>
							<path class="st30" d="M15.017,21.092l3.035,1.674c0.078,0.043,0.153,0.093,0.225,0.149l-3.035-1.674
								C15.17,21.184,15.095,21.135,15.017,21.092z"/>
						</g>
						<g>
							<path class="st30" d="M15.712,27.032l-3.035-1.674c0.856,0.471,2.028,0.104,2.734-0.9c0.771-1.096,0.695-2.536-0.17-3.217
								l3.035,1.674c0.864,0.681,0.94,2.121,0.17,3.217C17.741,27.137,16.568,27.503,15.712,27.032z"/>
						</g>
						<path class="st38" d="M18.976,24.598l-3.034-1.677c0.013-0.339-0.042-0.667-0.163-0.958l3.036,1.678
							C18.935,23.932,18.989,24.259,18.976,24.598z"/>
						<path class="st33" d="M18.704,25.691c-0.072,0.152-0.158,0.299-0.257,0.442c-0.196,0.278-0.427,0.507-0.678,0.683
							l-3.032-1.676c0.25-0.176,0.48-0.404,0.675-0.681c0.1-0.143,0.186-0.292,0.258-0.444L18.704,25.691z"/>
						<g>
							
								<ellipse transform="matrix(0.4817 -0.8764 0.8764 0.4817 -13.1723 24.1782)" class="st32" cx="13.853" cy="23.225" rx="2.432" ry="1.984"/>
						</g>
						<g>
							
								<ellipse transform="matrix(0.4817 -0.8764 0.8764 0.4817 -13.1725 24.1784)" class="st39" cx="13.853" cy="23.225" rx="2.024" ry="1.65"/>
						</g>
						<path class="st38" d="M13.116,24.938c-0.719-0.567-0.782-1.765-0.141-2.677c0.416-0.591,1.026-0.914,1.599-0.915
							c-0.678-0.212-1.506,0.11-2.028,0.853c-0.641,0.911-0.578,2.11,0.141,2.677c0.253,0.199,0.553,0.292,0.863,0.291
							C13.396,25.118,13.249,25.043,13.116,24.938z"/>
					</g>
				</g>
			</g>
			<g>
				<g>
					<path class="st31" d="M34.856,30.877l-0.478,1.897c-0.02,0.08-0.093,0.146-0.213,0.181c-0.242,0.07-0.585-0.017-0.767-0.193
						c-0.091-0.089-0.124-0.183-0.104-0.264l0.478-1.897c-0.021,0.081,0.012,0.175,0.104,0.264c0.181,0.176,0.525,0.263,0.767,0.193
						C34.763,31.023,34.836,30.957,34.856,30.877z"/>
					<path class="st38" d="M34.752,30.613c0.181,0.176,0.132,0.375-0.109,0.445c-0.242,0.07-0.585-0.017-0.767-0.193
						s-0.133-0.375,0.109-0.445C34.227,30.35,34.571,30.437,34.752,30.613z"/>
					<path class="st33" d="M34.614,31.065l-0.478,1.896c-0.092,0.022-0.195,0.022-0.299,0.004l0.478-1.897
						C34.418,31.087,34.522,31.086,34.614,31.065z"/>
					<path class="st32" d="M34.044,30.981l-0.478,1.897c-0.05-0.025-0.096-0.055-0.136-0.089l0.478-1.897
						C33.947,30.926,33.994,30.956,34.044,30.981z"/>
				</g>
				<g>
					<path class="st31" d="M34.952,30.134l-0.169,0.669c-0.017,0.067-0.078,0.123-0.179,0.152c-0.204,0.059-0.493-0.014-0.646-0.163
						c-0.077-0.075-0.105-0.154-0.087-0.222l0.169-0.668c-0.017,0.068,0.01,0.148,0.087,0.222c0.153,0.148,0.442,0.221,0.646,0.163
						C34.874,30.257,34.935,30.201,34.952,30.134z"/>
					<path class="st38" d="M34.865,29.911c0.153,0.148,0.112,0.316-0.092,0.375s-0.493-0.014-0.646-0.163
						c-0.153-0.148-0.112-0.316,0.092-0.375C34.423,29.69,34.712,29.763,34.865,29.911z"/>
					<path class="st33" d="M34.748,30.292L34.58,30.96c-0.077,0.018-0.165,0.018-0.252,0.004l0.168-0.669
						C34.583,30.311,34.671,30.31,34.748,30.292z"/>
					<path class="st32" d="M34.268,30.222L34.1,30.891c-0.042-0.021-0.081-0.046-0.115-0.075l0.168-0.669
						C34.187,30.176,34.226,30.201,34.268,30.222z"/>
				</g>
				<g>
					<path class="st31" d="M35.001,30.108l-0.024,0.095c-0.019,0.073-0.085,0.134-0.195,0.166c-0.222,0.064-0.536-0.016-0.702-0.177
						c-0.084-0.081-0.114-0.168-0.095-0.242l0.024-0.095c-0.019,0.074,0.011,0.161,0.095,0.242c0.166,0.161,0.481,0.241,0.702,0.177
						C34.916,30.242,34.983,30.181,35.001,30.108z"/>
					<path class="st38" d="M34.906,29.866c0.166,0.161,0.121,0.344-0.1,0.407c-0.222,0.064-0.536-0.016-0.702-0.177
						s-0.122-0.344,0.1-0.407C34.425,29.626,34.74,29.705,34.906,29.866z"/>
					<path class="st31" d="M34.792,29.899c0.119,0.116,0.087,0.246-0.072,0.292s-0.384-0.011-0.503-0.127
						c-0.119-0.116-0.087-0.246,0.072-0.292S34.673,29.783,34.792,29.899z"/>
					<path class="st33" d="M34.78,30.28l-0.024,0.094c-0.084,0.02-0.179,0.02-0.274,0.004l0.024-0.095
						C34.6,30.3,34.696,30.3,34.78,30.28z"/>
					<path class="st32" d="M34.257,30.204l-0.024,0.095c-0.046-0.023-0.088-0.05-0.125-0.081l0.024-0.095
						C34.169,30.153,34.211,30.181,34.257,30.204z"/>
				</g>
			</g>
		</g>
		<g>
			<g>
				<g>
					<path class="st31" d="M25.572,43.533l-0.12-8.933l0.534-0.008l0.12,8.933c0.002,0.147-0.116,0.269-0.263,0.271l0,0
						C25.696,43.798,25.575,43.68,25.572,43.533z"/>
				</g>
				<g>
					<path class="st31" d="M20.887,39.82L20.887,39.82c-0.126-0.076-0.167-0.241-0.09-0.367l3.545-5.859l0.457,0.277l-3.545,5.859
						C21.177,39.855,21.013,39.896,20.887,39.82z"/>
				</g>
				<g>
					<path class="st31" d="M30.845,40.02l-4.882-6.381l0.424-0.325l4.883,6.381c0.09,0.117,0.067,0.285-0.05,0.374l0,0
						C31.103,40.159,30.935,40.137,30.845,40.02z"/>
				</g>
			</g>
			<g>
				<g class="st20">
					<path class="st33" d="M26.73,33.091l-0.479,0.279l-0.002,0.53l0.479-0.278c0.016-0.009,0.024-0.021,0.024-0.033l0.002-0.53
						C26.753,33.07,26.745,33.082,26.73,33.091z"/>
					<path class="st33" d="M23.975,33.52c-0.014-0.002-0.027-0.007-0.037-0.012c-0.015-0.009-0.024-0.021-0.024-0.034l-0.002,0.53
						c0,0.013,0.009,0.025,0.024,0.034c0.01,0.006,0.022,0.01,0.037,0.012l0.657,0.102l0.002-0.53L23.975,33.52z"/>
					<g>
						<path class="st31" d="M26.311,33.552l-0.002,0.53c0,0.124-0.082,0.249-0.245,0.344c-0.023,0.013-0.048,0.026-0.072,0.037
							l0.001-0.53c0.025-0.012,0.049-0.024,0.072-0.037C26.229,33.801,26.311,33.677,26.311,33.552z"/>
					</g>
					<g>
						<path class="st31" d="M25.346,34.034l-0.002,0.53c-0.174-0.015-0.341-0.061-0.475-0.138s-0.214-0.174-0.24-0.274l0.002-0.53
							c0.026,0.1,0.106,0.197,0.24,0.274C25.005,33.973,25.172,34.019,25.346,34.034z"/>
					</g>
					<g>
						<polygon class="st30" points="25.524,34.414 25.523,34.944 25.345,34.564 25.346,34.034 						"/>
					</g>
					<g>
						<path class="st32" d="M26.729,33.025c0.032,0.018,0.032,0.048,0,0.067l-0.478,0.278c0.121,0.176,0.06,0.384-0.185,0.526
							c-0.023,0.013-0.048,0.026-0.072,0.037l0.178,0.38c0.012,0.025-0.014,0.051-0.057,0.058l-0.49,0.076
							c-0.029,0.005-0.059-0.001-0.079-0.012c-0.01-0.006-0.017-0.013-0.021-0.021l-0.178-0.38
							c-0.174-0.015-0.341-0.061-0.475-0.138s-0.214-0.174-0.24-0.274l-0.657-0.102c-0.014-0.002-0.027-0.007-0.037-0.012
							c-0.02-0.012-0.029-0.029-0.021-0.046l0.129-0.284c0.011-0.025,0.056-0.04,0.1-0.033l0.657,0.102
							c0.02-0.015,0.041-0.029,0.065-0.042c0.245-0.142,0.604-0.179,0.908-0.109l0.479-0.278c0.032-0.018,0.083-0.018,0.115,0
							L26.729,33.025z"/>
					</g>
					<path class="st33" d="M26.114,34.371l-0.49,0.076c-0.029,0.005-0.059-0.001-0.079-0.012c-0.01-0.006-0.017-0.013-0.021-0.021
						l-0.002,0.53c0.004,0.008,0.011,0.016,0.021,0.021c0.02,0.012,0.05,0.017,0.079,0.012l0.49-0.076
						c0.036-0.006,0.06-0.025,0.06-0.045l0.002-0.53C26.174,34.347,26.15,34.366,26.114,34.371z"/>
				</g>
			</g>
			<g>
				<path class="st31" d="M26.072,33.06l-0.007,0.442c-0.001,0.083-0.056,0.166-0.166,0.229c-0.222,0.127-0.58,0.124-0.801-0.006
					c-0.111-0.065-0.166-0.15-0.166-0.235l0.007-0.442c-0.001,0.084,0.054,0.169,0.166,0.235c0.221,0.13,0.579,0.133,0.801,0.006
					C26.015,33.226,26.071,33.143,26.072,33.06z"/>
				<path class="st38" d="M25.906,32.825c0.221,0.13,0.22,0.338-0.001,0.464c-0.222,0.127-0.58,0.124-0.801-0.006
					s-0.221-0.337,0.001-0.464C25.327,32.693,25.685,32.695,25.906,32.825z"/>
				<path class="st33" d="M25.879,33.303l-0.006,0.442c-0.085,0.043-0.187,0.068-0.293,0.076l0.006-0.442
					C25.691,33.372,25.794,33.346,25.879,33.303z"/>
				<path class="st32" d="M25.297,33.358L25.291,33.8c-0.055-0.013-0.108-0.031-0.155-0.054l0.006-0.442
					C25.19,33.327,25.242,33.345,25.297,33.358z"/>
			</g>
			<g>
				<g class="st20">
					<g>
						<polygon class="st33" points="26.424,31.097 26.946,31.525 26.578,32.337 26.055,31.909 						"/>
					</g>
					<g>
						<polygon class="st30" points="26.055,31.909 26.578,32.337 25.57,32.317 25.047,31.889 						"/>
					</g>
					<g>
						<polygon class="st32" points="26.424,31.097 26.055,31.909 25.047,31.889 25.416,31.077 						"/>
					</g>
				</g>
			</g>
			<g>
				<g class="st20">
					<g>
						<polygon class="st33" points="25.989,31.996 26.264,32.221 25.851,33.165 25.575,32.939 						"/>
					</g>
					<g>
						<polygon class="st33" points="25.575,32.939 25.851,33.165 25.423,33.281 25.045,32.929 						"/>
					</g>
					<polygon class="st32" points="25.575,32.939 25.045,32.929 25.423,33.281 					"/>
					<g>
						<polygon class="st32" points="25.989,31.996 25.575,32.939 25.045,32.929 25.458,31.986 						"/>
					</g>
				</g>
			</g>
		</g>
	</g>
	<g>
		<g>
			<path class="st40" d="M13.46,22.378c0.105,0.083,0.115,0.259,0.021,0.392c-0.094,0.134-0.255,0.174-0.361,0.091
				c-0.105-0.083-0.115-0.259-0.021-0.392C13.194,22.336,13.355,22.295,13.46,22.378z"/>
		</g>
		<g>
			<path class="st40" d="M13.165,22.987c0.049,0.039,0.053,0.12,0.01,0.182c-0.044,0.062-0.118,0.081-0.167,0.042
				s-0.053-0.12-0.01-0.182C13.041,22.968,13.116,22.949,13.165,22.987z"/>
		</g>
	</g>
</g>
<g>
	<g>
		<g>
			<ellipse class="st41" cx="11.157" cy="32.841" rx="2.562" ry="2.562"/>
			<path class="st42" d="M12.145,30.939c-0.189,0.036-0.444-0.055-0.57-0.201c-0.126-0.147-0.075-0.294,0.114-0.33
				c0.189-0.035,0.444,0.055,0.57,0.201C12.385,30.756,12.334,30.904,12.145,30.939z"/>
			<g>
				<path class="st42" d="M13.414,31.627c-0.077,0.246-0.319,0.436-0.704,0.508c-0.754,0.142-1.775-0.218-2.278-0.805
					c-0.266-0.31-0.335-0.622-0.229-0.867c0.004-0.002,0.008-0.004,0.013-0.005c-0.029,0.215,0.058,0.464,0.272,0.712
					c0.504,0.587,1.524,0.948,2.278,0.805c0.308-0.057,0.524-0.191,0.638-0.367C13.408,31.615,13.411,31.621,13.414,31.627z"/>
				<path class="st42" d="M13.35,31.515c-0.111,0.146-0.303,0.256-0.568,0.306c-0.702,0.131-1.652-0.204-2.119-0.749
					c-0.205-0.238-0.284-0.477-0.249-0.682c0.015-0.005,0.03-0.009,0.045-0.014c0.011,0.172,0.094,0.36,0.256,0.547
					c0.468,0.546,1.417,0.881,2.12,0.749c0.206-0.039,0.367-0.113,0.481-0.212C13.327,31.477,13.339,31.496,13.35,31.515z"/>
				<path class="st42" d="M13.015,31.075c-0.049,0.166-0.211,0.293-0.469,0.341c-0.501,0.094-1.179-0.145-1.514-0.535
					c-0.182-0.211-0.225-0.424-0.145-0.588c0.002,0,0.003-0.001,0.005-0.001c-0.024,0.146,0.033,0.315,0.178,0.484
					c0.335,0.39,1.013,0.63,1.514,0.535c0.205-0.038,0.348-0.127,0.424-0.243C13.01,31.07,13.012,31.072,13.015,31.075z"/>
				<path class="st42" d="M13.589,32.038c-0.122,0.227-0.383,0.399-0.765,0.471c-0.874,0.164-2.056-0.253-2.638-0.932
					c-0.299-0.347-0.383-0.695-0.276-0.974c0.006-0.006,0.015-0.01,0.025-0.014c-0.026,0.245,0.076,0.524,0.316,0.803
					c0.582,0.679,1.764,1.096,2.638,0.932c0.31-0.058,0.539-0.182,0.68-0.347C13.577,31.997,13.584,32.018,13.589,32.038z"/>
				<path class="st42" d="M13.677,32.385c-0.145,0.23-0.424,0.404-0.824,0.479c-0.969,0.182-2.278-0.28-2.925-1.033
					c-0.312-0.363-0.413-0.727-0.324-1.027c0.013-0.01,0.027-0.021,0.042-0.03c-0.014,0.262,0.1,0.558,0.354,0.853
					c0.646,0.753,1.956,1.215,2.925,1.033c0.329-0.062,0.577-0.191,0.735-0.363C13.667,32.326,13.673,32.355,13.677,32.385z"/>
				<path class="st42" d="M13.704,32.566c-0.117,0.309-0.434,0.545-0.928,0.639c-1.011,0.19-2.379-0.293-3.053-1.079
					c-0.359-0.417-0.45-0.837-0.304-1.166c0.005-0.006,0.011-0.012,0.018-0.017c-0.045,0.293,0.07,0.631,0.361,0.969
					c0.675,0.786,2.042,1.269,3.054,1.078c0.405-0.076,0.692-0.248,0.846-0.479C13.7,32.529,13.702,32.548,13.704,32.566z"/>
				<path class="st42" d="M13.715,32.993c-0.154,0.275-0.472,0.482-0.937,0.569c-1.078,0.202-2.535-0.312-3.255-1.15
					c-0.37-0.431-0.472-0.864-0.337-1.209c0.01-0.012,0.02-0.024,0.031-0.036C9.176,31.475,9.3,31.83,9.604,32.183
					c0.72,0.839,2.176,1.353,3.255,1.15c0.398-0.074,0.689-0.237,0.861-0.454C13.719,32.917,13.717,32.954,13.715,32.993z"/>
				<path class="st42" d="M13.678,33.297c-0.158,0.282-0.486,0.495-0.964,0.584c-1.111,0.209-2.612-0.321-3.354-1.185
					c-0.392-0.457-0.492-0.916-0.334-1.277c0-0.001,0-0.002,0.001-0.002c0.007-0.011,0.015-0.023,0.023-0.034
					c-0.056,0.323,0.07,0.702,0.393,1.078c0.742,0.864,2.243,1.394,3.354,1.185c0.425-0.08,0.731-0.256,0.905-0.492
					C13.694,33.203,13.687,33.251,13.678,33.297z"/>
				<path class="st42" d="M13.575,33.689c-0.01,0.029-0.021,0.058-0.032,0.087c-0.185,0.219-0.488,0.383-0.898,0.461
					c-1.149,0.216-2.701-0.332-3.468-1.225c-0.327-0.381-0.458-0.764-0.41-1.093c0.024-0.063,0.05-0.124,0.079-0.183
					c-0.025,0.315,0.109,0.675,0.417,1.033c0.767,0.893,2.32,1.441,3.468,1.225c0.405-0.076,0.706-0.238,0.891-0.452
					C13.608,33.59,13.592,33.639,13.575,33.689z"/>
			</g>
			
				<ellipse transform="matrix(0.3364 -0.9417 0.9417 0.3364 -20.9783 31.5752)" class="st41" cx="11.915" cy="30.673" rx="0.178" ry="0.308"/>
			
				<ellipse transform="matrix(0.3364 -0.9417 0.9417 0.3364 -20.9583 31.5695)" class="st42" cx="11.921" cy="30.656" rx="0.116" ry="0.2"/>
			<path class="st41" d="M11.972,30.697c-0.037,0.007-0.086-0.011-0.111-0.039c-0.024-0.028-0.015-0.057,0.022-0.064
				c0.037-0.007,0.086,0.011,0.111,0.039C12.018,30.661,12.008,30.69,11.972,30.697z"/>
		</g>
	</g>
	<g>
		<path class="st42" d="M14.883,32.613c-0.416-0.39-0.935-0.75-1.512-1.064c0.053,0.09,0.099,0.182,0.14,0.277
			c0.027,0.062,0.051,0.125,0.073,0.189c0,0.001,0,0.001,0,0.001c0.023,0.065,0.042,0.132,0.059,0.199
			c0.204,0.144,0.392,0.295,0.56,0.453c1.247,1.169,0.885,2.224-0.809,2.356c-0.277,0.022-0.572,0.018-0.878-0.01
			c-1.27-0.114-2.722-0.629-3.782-1.343c-0.245-0.165-0.469-0.341-0.666-0.526c-1.247-1.169-0.885-2.224,0.808-2.356
			c0.237-0.018,0.488-0.018,0.747,0c0.056-0.042,0.113-0.081,0.172-0.118c0.057-0.036,0.115-0.069,0.175-0.1
			c0.092-0.049,0.187-0.091,0.284-0.127c-0.659-0.122-1.302-0.17-1.878-0.125c-2.071,0.162-2.513,1.451-0.989,2.88
			c0.464,0.435,1.056,0.833,1.715,1.17c0.832,0.429,1.77,0.762,2.687,0.955c0.739,0.156,1.464,0.221,2.107,0.171
			C15.965,35.331,16.407,34.042,14.883,32.613z"/>
		<path class="st41" d="M14.602,32.635c-0.309-0.29-0.681-0.563-1.092-0.809c0.027,0.062,0.051,0.125,0.073,0.189
			c0,0.001,0,0.001,0,0.001c0.307,0.198,0.586,0.41,0.825,0.635c0.229,0.215,0.407,0.426,0.536,0.63
			c0.024,0.037,0.046,0.074,0.066,0.111c0.01,0.018,0.02,0.036,0.029,0.054c0.046,0.091,0.083,0.18,0.109,0.266
			c0.156,0.515-0.046,0.946-0.574,1.206c-0.035,0.018-0.071,0.034-0.11,0.05c-0.037,0.016-0.077,0.031-0.118,0.044
			c-0.224,0.078-0.493,0.131-0.802,0.155c-0.381,0.03-0.795,0.013-1.223-0.043c-1.093-0.143-2.281-0.546-3.259-1.099
			c-0.084-0.048-0.166-0.096-0.247-0.146c-0.084-0.052-0.165-0.104-0.245-0.158c-0.104-0.071-0.205-0.143-0.301-0.217
			c-0.146-0.11-0.282-0.225-0.407-0.343c-1-0.937-1.031-1.806-0.218-2.24c0.034-0.018,0.069-0.034,0.105-0.051
			c-0.001-0.001-0.001-0.001,0-0.001c0.037-0.016,0.074-0.031,0.114-0.047c0.04-0.014,0.081-0.029,0.123-0.043
			c0.085-0.025,0.174-0.049,0.271-0.069c0.144-0.03,0.3-0.052,0.469-0.065c0.336-0.026,0.697-0.016,1.07,0.024
			c0.057-0.036,0.115-0.069,0.175-0.1c-0.487-0.07-0.957-0.092-1.388-0.059c-1.915,0.15-2.325,1.343-0.914,2.665
			c0.347,0.326,0.773,0.629,1.245,0.898c0.961,0.549,2.117,0.959,3.208,1.139c0.55,0.091,1.083,0.123,1.566,0.085
			C15.602,35.15,16.012,33.957,14.602,32.635z"/>
	</g>
</g>
<g>
	<g class="st20">
		<g>
			<polygon class="st36" points="30.924,22.358 31.065,22.218 31.443,22.54 31.302,22.68 			"/>
		</g>
		<g>
			<polygon class="st36" points="31.036,22.36 31.177,22.219 31.483,22.481 31.342,22.621 			"/>
		</g>
		<g>
			<path class="st36" d="M30.784,22.142l0.141-0.14c0.039-0.039,0.105-0.052,0.187-0.03c0.002,0,0.003,0.001,0.005,0.001
				l-0.141,0.14c-0.002,0-0.003-0.001-0.005-0.001C30.889,22.09,30.823,22.103,30.784,22.142z"/>
		</g>
		<g>
			<polygon class="st36" points="30.976,22.114 31.117,21.973 31.065,22.218 30.924,22.358 			"/>
		</g>
		<g>
			<path class="st35" d="M30.976,22.114l-0.052,0.244l0.377,0.322c-0.04,0.033-0.102,0.042-0.178,0.022
				c-0.163-0.045-0.329-0.212-0.371-0.375c-0.042-0.162,0.056-0.258,0.218-0.214C30.972,22.113,30.974,22.113,30.976,22.114z"/>
		</g>
		<g>
			<polygon class="st36" points="31.078,22.159 31.219,22.018 31.177,22.219 31.036,22.36 			"/>
		</g>
		<g>
			<path class="st35" d="M31.078,22.159c0.123,0.072,0.231,0.202,0.264,0.329c0.014,0.052,0.013,0.098,0,0.134l-0.306-0.261
				L31.078,22.159z"/>
		</g>
		<g>
			<path class="st36" d="M31.078,22.159l0.141-0.14c0.123,0.072,0.231,0.202,0.264,0.329c0.014,0.052,0.013,0.098,0,0.134
				l-0.141,0.14c0.013-0.036,0.014-0.081,0-0.134C31.31,22.361,31.202,22.231,31.078,22.159z"/>
		</g>
		<g>
			<polygon class="st36" points="34.982,25.821 35.123,25.68 35.366,25.887 35.225,26.028 			"/>
		</g>
		<g>
			<polygon class="st36" points="31.342,22.621 31.483,22.481 35.138,25.599 34.996,25.739 			"/>
		</g>
		<g>
			<polygon class="st36" points="34.996,25.739 35.138,25.599 35.319,25.753 35.177,25.894 			"/>
		</g>
		<g>
			<path class="st36" d="M35.024,25.7l0.141-0.14c0.039-0.039,0.105-0.052,0.187-0.03c0.037,0.01,0.075,0.027,0.111,0.049
				l-0.141,0.14c-0.036-0.022-0.074-0.038-0.111-0.049C35.128,25.647,35.063,25.66,35.024,25.7z"/>
		</g>
		<g>
			<polygon class="st36" points="35.321,25.718 35.462,25.578 35.319,25.753 35.177,25.894 			"/>
		</g>
		<g>
			<polygon class="st36" points="31.302,20.573 31.443,20.432 31.416,20.561 31.275,20.702 			"/>
		</g>
		<g>
			<polygon class="st36" points="31.048,20.269 31.189,20.129 31.443,20.432 31.302,20.573 			"/>
		</g>
		<g>
			<polygon class="st36" points="31.41,20.59 31.551,20.45 31.516,20.617 31.375,20.757 			"/>
		</g>
		<g>
			<polygon class="st36" points="31.089,20.207 31.23,20.066 31.551,20.45 31.41,20.59 			"/>
		</g>
		<g>
			<polygon class="st36" points="23.648,12.702 23.789,12.562 23.773,12.639 23.632,12.779 			"/>
		</g>
		<g>
			<polygon class="st36" points="23.632,12.779 23.773,12.639 24.069,12.829 23.928,12.97 			"/>
		</g>
		<g>
			<polygon class="st36" points="31.375,20.757 31.516,20.617 31.219,22.018 31.078,22.159 			"/>
		</g>
		<g>
			<polygon class="st36" points="31.405,20.501 31.547,20.361 31.788,20.521 31.647,20.662 			"/>
		</g>
		<g>
			<path class="st36" d="M31.749,20.603l-0.141,0.14c0.021-0.021,0.034-0.048,0.039-0.082l0.141-0.14
				C31.783,20.555,31.769,20.582,31.749,20.603z"/>
		</g>
		<g>
			<polygon class="st36" points="31.424,20.425 31.565,20.285 31.547,20.361 31.405,20.501 			"/>
		</g>
		<g>
			<polygon class="st36" points="28.871,17.665 29.013,17.525 29.253,17.812 29.111,17.952 			"/>
		</g>
		<g>
			<polygon class="st36" points="27.782,15.566 27.923,15.425 28.922,17.209 28.781,17.35 			"/>
		</g>
		<g>
			<polygon class="st36" points="28.699,17.357 28.84,17.217 29.013,17.525 28.871,17.665 			"/>
		</g>
		<g>
			<path class="st36" d="M28.645,17.389l0.141-0.14c0.015-0.014,0.033-0.025,0.054-0.032l-0.141,0.14
				C28.678,17.364,28.66,17.375,28.645,17.389z"/>
		</g>
		<g>
			<polygon class="st36" points="27.269,15.117 27.41,14.977 27.684,15.153 27.543,15.294 			"/>
		</g>
		<g>
			<polygon class="st36" points="27.543,15.294 27.684,15.153 27.841,15.433 27.7,15.573 			"/>
		</g>
		<g>
			<polygon class="st36" points="36.532,23.915 36.673,23.774 36.845,23.889 36.704,24.029 			"/>
		</g>
		<g>
			<polygon class="st36" points="36.704,24.029 36.845,23.889 36.733,24.025 36.592,24.165 			"/>
		</g>
		<g>
			<polygon class="st35" points="23.648,12.702 23.945,12.892 27.285,15.04 27.602,15.244 27.782,15.566 28.781,17.35 
				28.945,17.642 29.174,17.916 31.089,20.207 31.41,20.59 31.375,20.757 31.078,22.159 31.036,22.36 31.342,22.621 34.996,25.739 
				35.177,25.894 35.321,25.718 36.592,24.165 36.704,24.029 36.532,23.915 31.647,20.662 31.406,20.501 31.424,20.425 
				31.642,20.57 36.569,23.851 36.853,24.04 36.67,24.263 35.418,25.791 35.225,26.028 34.982,25.821 31.302,22.68 30.924,22.358 
				30.976,22.114 31.275,20.702 31.302,20.573 31.048,20.269 29.111,17.952 28.871,17.665 28.699,17.357 27.7,15.573 27.543,15.294 
				27.269,15.117 23.928,12.97 23.632,12.779 			"/>
		</g>
		<g>
			<path class="st35" d="M35.321,25.718l-0.144,0.176l-0.181-0.155c0.031-0.069,0.109-0.098,0.214-0.07
				C35.248,25.68,35.285,25.697,35.321,25.718z"/>
		</g>
		<g>
			<polygon class="st36" points="35.418,25.791 35.559,25.651 35.366,25.887 35.225,26.028 			"/>
		</g>
		<g>
			<polygon class="st36" points="36.67,24.263 36.811,24.123 35.559,25.651 35.418,25.791 			"/>
		</g>
		<g>
			<path class="st36" d="M35.691,26.088l-0.141,0.14c0.039-0.039,0.053-0.103,0.032-0.184c-0.023-0.09-0.085-0.182-0.163-0.254
				l0.141-0.14c0.078,0.072,0.14,0.163,0.163,0.254C35.743,25.985,35.73,26.05,35.691,26.088z"/>
		</g>
		<g>
			<path class="st35" d="M35.418,25.791c0.078,0.072,0.14,0.163,0.163,0.254c0.042,0.163-0.056,0.259-0.218,0.214
				c-0.163-0.045-0.329-0.212-0.371-0.375c-0.006-0.022-0.009-0.043-0.01-0.063l0.242,0.207L35.418,25.791z"/>
		</g>
		<g>
			<path class="st35" d="M31.05,20.398c-0.013-0.05-0.013-0.094-0.001-0.129l0.254,0.304l-0.027,0.129
				C31.168,20.627,31.079,20.511,31.05,20.398z"/>
		</g>
		<g>
			<path class="st35" d="M24.044,12.864l-0.141,0.14c0.01-0.01,0.019-0.022,0.025-0.035l0.141-0.14
				C24.063,12.843,24.054,12.854,24.044,12.864z"/>
		</g>
		<g>
			<polygon class="st36" points="23.648,12.702 23.789,12.562 24.086,12.752 23.945,12.892 			"/>
		</g>
		<g>
			<polygon class="st36" points="31.424,20.425 31.565,20.285 31.783,20.429 31.642,20.57 			"/>
		</g>
		<g>
			<path class="st36" d="M23.377,12.476l0.141-0.14c0.039-0.039,0.105-0.052,0.187-0.03l-0.141,0.14
				C23.482,12.424,23.416,12.437,23.377,12.476z"/>
		</g>
		<g>
			<path class="st35" d="M23.564,12.446c0.163,0.045,0.329,0.212,0.371,0.375c0.007,0.025,0.01,0.049,0.01,0.071l-0.296-0.19
				l-0.017,0.077l0.296,0.191c-0.032,0.065-0.109,0.093-0.212,0.065c-0.163-0.045-0.329-0.212-0.371-0.375
				C23.303,12.498,23.401,12.402,23.564,12.446z"/>
		</g>
		<g>
			<path class="st36" d="M23.564,12.446l0.141-0.14c0.163,0.045,0.329,0.212,0.371,0.375c0.007,0.025,0.01,0.049,0.01,0.071
				l-0.141,0.14c0-0.022-0.003-0.046-0.01-0.071C23.893,12.659,23.726,12.491,23.564,12.446z"/>
		</g>
		<g>
			<path class="st36" d="M31.089,20.207l0.141-0.14c0.04-0.034,0.102-0.044,0.179-0.023c0.163,0.045,0.329,0.212,0.371,0.376
				c0.001,0.003,0.002,0.007,0.002,0.01l-0.141,0.14c-0.001-0.003-0.002-0.007-0.002-0.01c-0.042-0.163-0.208-0.331-0.371-0.375
				C31.191,20.163,31.129,20.173,31.089,20.207z"/>
		</g>
		<g>
			<polygon class="st36" points="29.174,17.916 29.315,17.775 31.23,20.066 31.089,20.207 			"/>
		</g>
		<g>
			<path class="st35" d="M31.642,20.57l-0.218-0.145l-0.018,0.076l0.241,0.161c-0.015,0.098-0.101,0.146-0.226,0.112
				c-0.015-0.004-0.031-0.01-0.046-0.016l0.035-0.167l-0.321-0.384c0.04-0.034,0.102-0.044,0.179-0.023
				c0.163,0.045,0.329,0.212,0.371,0.375C31.64,20.563,31.641,20.567,31.642,20.57z"/>
		</g>
		<g>
			<polygon class="st36" points="28.945,17.642 29.086,17.502 29.315,17.775 29.174,17.916 			"/>
		</g>
		<g>
			<path class="st35" d="M28.699,17.357l0.173,0.308l0.24,0.287c-0.035,0.01-0.078,0.009-0.127-0.004
				c-0.163-0.045-0.329-0.212-0.371-0.375C28.585,17.462,28.621,17.382,28.699,17.357z"/>
		</g>
		<g>
			<polygon class="st36" points="28.781,17.35 28.922,17.209 29.086,17.502 28.945,17.642 			"/>
		</g>
		<g>
			<path class="st36" d="M28.781,17.35l0.141-0.14c0.016,0.002,0.033,0.005,0.051,0.01l-0.141,0.14
				C28.814,17.355,28.797,17.351,28.781,17.35z"/>
		</g>
		<g>
			<path class="st35" d="M28.832,17.359c0.163,0.045,0.329,0.212,0.371,0.375c0.021,0.079,0.008,0.142-0.029,0.181l-0.229-0.273
				l-0.164-0.293C28.797,17.351,28.814,17.355,28.832,17.359z"/>
		</g>
		<g>
			<path class="st36" d="M28.832,17.359l0.141-0.14c0.163,0.045,0.329,0.212,0.371,0.375c0.021,0.079,0.008,0.142-0.029,0.181
				l-0.141,0.14c0.037-0.039,0.05-0.102,0.029-0.181C29.161,17.572,28.995,17.404,28.832,17.359z"/>
		</g>
		<g>
			<polygon class="st36" points="27.285,15.04 27.426,14.899 27.743,15.103 27.602,15.244 			"/>
		</g>
		<g>
			<polygon class="st36" points="27.602,15.244 27.743,15.103 27.923,15.425 27.782,15.566 			"/>
		</g>
		<g>
			<path class="st35" d="M27.497,14.975c0.163,0.045,0.329,0.212,0.371,0.375c0.029,0.111-0.008,0.191-0.085,0.216l-0.168-0.3
				l-0.012-0.022l-0.317-0.204C27.317,14.975,27.394,14.947,27.497,14.975z"/>
		</g>
		<g>
			<polygon class="st36" points="23.945,12.892 24.086,12.752 27.426,14.899 27.285,15.04 			"/>
		</g>
		<g>
			<path class="st35" d="M27.269,15.117l0.275,0.177l0.156,0.279c-0.016-0.002-0.033-0.005-0.05-0.01
				c-0.163-0.045-0.329-0.212-0.371-0.375C27.272,15.163,27.269,15.139,27.269,15.117z"/>
		</g>
		<g>
			<path class="st36" d="M27.31,15.005l0.141-0.14c0.039-0.039,0.105-0.052,0.187-0.03l-0.141,0.14
				C27.415,14.952,27.349,14.966,27.31,15.005z"/>
		</g>
		<g>
			<path class="st36" d="M27.977,15.393l-0.141,0.14c0.039-0.039,0.053-0.103,0.032-0.184c-0.042-0.162-0.208-0.33-0.371-0.375
				l0.141-0.14c0.163,0.045,0.329,0.212,0.371,0.375C28.03,15.29,28.016,15.354,27.977,15.393z"/>
		</g>
		<g>
			<path class="st35" d="M36.532,23.915l0.172,0.114l-0.112,0.136c-0.026-0.041-0.046-0.085-0.057-0.128
				C36.523,23.99,36.523,23.949,36.532,23.915z"/>
		</g>
		<g>
			<polygon class="st36" points="31.642,20.57 31.783,20.429 36.71,23.711 36.569,23.851 			"/>
		</g>
		<g>
			<polygon class="st36" points="36.853,24.04 36.994,23.9 36.811,24.123 36.67,24.263 			"/>
		</g>
		<g>
			<polygon class="st36" points="36.569,23.851 36.71,23.711 36.994,23.9 36.853,24.04 			"/>
		</g>
		<g>
			<path class="st36" d="M36.569,23.851l0.141-0.14c0.04-0.037,0.104-0.049,0.184-0.028l-0.141,0.14
				C36.673,23.802,36.609,23.814,36.569,23.851z"/>
		</g>
		<g>
			<path class="st35" d="M36.754,23.824c0.163,0.045,0.329,0.212,0.371,0.375c0.042,0.162-0.056,0.258-0.218,0.214
				c-0.084-0.023-0.168-0.078-0.236-0.149l0.183-0.223l-0.283-0.189C36.609,23.814,36.673,23.802,36.754,23.824z"/>
		</g>
		<g>
			<path class="st36" d="M37.234,24.242l-0.141,0.14c0.039-0.039,0.053-0.103,0.032-0.184c-0.042-0.162-0.208-0.33-0.371-0.375
				l0.141-0.14c0.163,0.045,0.329,0.212,0.371,0.375C37.287,24.139,37.273,24.203,37.234,24.242z"/>
		</g>
	</g>
</g>
</svg>
