<?xml version="1.0" encoding="utf-8"?>
<!-- Generator: Adobe Illustrator 25.4.1, SVG Export Plug-In . SVG Version: 6.00 Build 0)  -->
<svg version="1.1" id="Layer_1" xmlns="http://www.w3.org/2000/svg" xmlns:xlink="http://www.w3.org/1999/xlink" x="0px" y="0px"
	 viewBox="0 0 50 50" style="enable-background:new 0 0 50 50;" xml:space="preserve">
<style type="text/css">
	.st0{display:none;}
	.st1{display:inline;}
	.st2{fill:#344593;}
	.st3{fill:#3E54A3;}
	.st4{fill:#2E4490;}
	.st5{fill:#122571;}
	.st6{opacity:0.5;fill:#031F60;enable-background:new    ;}
	.st7{fill:#BBDFFF;}
	.st8{fill:#FDB724;}
	.st9{fill:#E7478D;}
	.st10{fill:#BF2878;}
	.st11{fill:#27DEBF;}
	.st12{fill:#1BBC9D;}
	.st13{fill:#A33D64;}
	.st14{fill:#82294D;}
	.st15{fill:#0A4A80;}
	.st16{fill:#F1FCFF;}
	.st17{fill:#D6E6FF;}
	.st18{fill:#CEF3FF;}
	.st19{fill:#606060;}
	.st20{enable-background:new    ;}
	.st21{fill:#F19729;}
	.st22{fill:#FCB040;}
	.st23{fill:#FFCB49;}
	.st24{fill:#2E5677;}
	.st25{fill:#FF51CE;}
	.st26{fill:#EDE6A0;}
	.st27{fill:#FFF7B0;}
	.st28{fill:url(#SVGID_1_);}
	.st29{fill:url(#SVGID_00000129922784193604894880000011359080835084382652_);}
	.st30{fill:#87491F;}
	.st31{fill:#FBB47B;}
	.st32{fill-rule:evenodd;clip-rule:evenodd;fill:#2DA4B9;}
	.st33{fill:#2DA4B9;}
	.st34{fill:#C67B46;}
	.st35{fill:#3FC1C8;}
	.st36{fill:url(#XMLID_00000018924299413770201190000000890131468671941520_);}
	.st37{fill:url(#XMLID_00000033342465037251562290000015565007694374785950_);}
	.st38{fill:#94D4CA;}
	.st39{opacity:0.62;}
	.st40{fill:#E8DEDC;}
	.st41{fill-rule:evenodd;clip-rule:evenodd;fill:#1E7A92;}
	.st42{fill:#EBE7E6;}
	.st43{fill:#694F43;}
	.st44{fill-rule:evenodd;clip-rule:evenodd;fill:#282249;}
	.st45{fill:#5D463A;}
	.st46{fill:#523D33;}
	.st47{fill:#8F6D5D;}
	.st48{fill:#9E8C8E;}
	.st49{fill:#463E47;}
	.st50{fill:#F7F4F6;}
	.st51{fill:#B09C9E;}
	.st52{fill-rule:evenodd;clip-rule:evenodd;fill:#463E47;}
	.st53{fill:#140615;}
	.st54{fill-rule:evenodd;clip-rule:evenodd;fill:#A7BBCD;}
	.st55{fill:#847881;}
	.st56{fill-rule:evenodd;clip-rule:evenodd;fill:#B09C9E;}
	.st57{fill-rule:evenodd;clip-rule:evenodd;fill:#E8DEDC;}
	.st58{fill-rule:evenodd;clip-rule:evenodd;fill:#F7F4F6;}
	.st59{fill-rule:evenodd;clip-rule:evenodd;fill:#9E8C8E;}
	.st60{fill:#5C4033;}
	.st61{fill:#35231A;}
	.st62{fill:#4A3429;}
</style>
<g id="Example" class="st0">
	<g class="st1">
		<g id="XMLID_4903_">
			<path id="XMLID_4905_" class="st2" d="M45.3,33.2v-4.6l0,0c0-0.9-0.6-1.8-1.7-2.4c-2.3-1.3-6-1.3-8.4,0c-1.2,0.7-1.7,1.6-1.7,2.4
				l0,0v4.5c0,0.9,0.6,1.8,1.7,2.4c2.3,1.3,6,1.3,8.4,0C44.8,34.9,45.3,34.1,45.3,33.2L45.3,33.2L45.3,33.2L45.3,33.2z"/>
			<path id="XMLID_4904_" class="st2" d="M45.3,33.2v-4.6l0,0c0-0.9-0.6-1.8-1.7-2.4c-2.3-1.3-6-1.3-8.4,0c-1.2,0.7-1.7,1.6-1.7,2.4
				l0,0v4.5c0,0.9,0.6,1.8,1.7,2.4c2.3,1.3,6,1.3,8.4,0C44.8,34.9,45.3,34.1,45.3,33.2L45.3,33.2L45.3,33.2L45.3,33.2z"/>
		</g>
		<polygon id="XMLID_4900_" class="st3" points="39.4,23 29.7,28.6 39.4,34.2 49.2,28.6 		"/>
		<path id="XMLID_4899_" class="st4" d="M44.3,31.4l-4.8-2.7c-0.1,0-0.2,0-0.2,0.1s0,0.2,0.1,0.2l4.6,2.6L44.3,31.4z"/>
		<polygon id="XMLID_4896_" class="st5" points="29.7,28.6 29.7,29 39.4,34.6 39.4,34.2 		"/>
		<polygon id="XMLID_4883_" class="st4" points="49.2,28.6 49.2,29 39.4,34.6 39.4,34.2 		"/>
		<polygon id="XMLID_4876_" class="st6" points="33.5,31.2 39.4,35.2 45.3,31.2 39.4,34.6 		"/>
		<g id="XMLID_4823_">
			<path id="XMLID_4835_" class="st7" d="M44.7,36.2c-0.1,0-0.2-0.1-0.2-0.2v-4c0-0.2-0.1-0.4-0.3-0.4l-4.9-2.8
				c-0.1,0-0.1-0.2-0.1-0.2c0-0.1,0.2-0.1,0.2-0.1l4.9,2.8c0.3,0.2,0.4,0.4,0.4,0.7v4C44.8,36.1,44.7,36.2,44.7,36.2z"/>
		</g>
		<path class="st8" d="M45.3,39.3L45,36.6c0.1-0.1,0.1-0.2,0-0.2l0,0l0,0l0,0v-0.1l0,0l0,0l0,0c0-0.2-0.2-0.4-0.4-0.4c0,0,0,0-0.1,0
			l0,0l0,0c0,0,0,0-0.1,0c0,0,0,0-0.1,0c0,0,0,0-0.1,0c0,0,0,0,0,0.1l0,0v0.1c0,0.1,0,0.2,0.1,0.3l0,0c-0.1,0.1,0,0.2,0,0.2L44,39.3
			c0,0.1,0.1,0.2,0.3,0.3l0,0h0.1l0,0c0.1,0,0.2,0.1,0.3,0.1l0,0l0,0l0,0l0,0l0,0c0.1,0,0.2,0,0.3-0.1l0,0h0.1l0,0
			C45.3,39.5,45.3,39.4,45.3,39.3z"/>
	</g>
	<g id="XMLID_3738_" class="st1">
		<path id="XMLID_4404_" class="st9" d="M12.4,36.1c1.1-0.8,1.8-2.7,1.7-4c-0.1-1.4-1.2-2-1.7-2.3l0,0c-1.1-0.6-2.8-0.6-3.9,0l0,0
			C8,30.1,7,30.7,6.8,32.1c-0.1,1.3,0.6,3.2,1.7,4l0,0c0.1,0,0.1,0.1,0.2,0.1c1,0.6,2.6,0.6,3.6,0l0,0
			C12.3,36.2,12.4,36.1,12.4,36.1L12.4,36.1z"/>
		<path id="XMLID_4395_" class="st10" d="M9.9,30.8c-0.3,0.2-0.3,0.4,0,0.6s0.8,0.2,1.1,0s0.3-0.4,0-0.6
			C10.7,30.6,10.2,30.6,9.9,30.8z"/>
		<g id="XMLID_4426_">
			<path id="XMLID_2198_" class="st11" d="M10.5,31.2c0,0-0.9,0-1.4-0.7s0-1.9,0-1.9s1.1,0.1,1.7,1C11.2,30.4,10.5,31.2,10.5,31.2z"
				/>
			<path id="XMLID_4431_" class="st12" d="M9,30.5c0.5,0.7,1.4,0.7,1.4,0.7C10.3,29.6,9,28.6,9,28.6S8.5,29.8,9,30.5z"/>
		</g>
		<path id="XMLID_4403_" class="st13" d="M10.5,31.2c0,0,0-1.3,0.7-1.9s1.2-0.6,1.2-0.6c0.4,0,0.9,0.4,0.7,0.4c0,0-0.9,0-1.5,0.5
			s-0.9,1.5-0.9,1.6c0,0,0,0.1-0.1,0.1C10.5,31.3,10.5,31.2,10.5,31.2z"/>
		<path id="XMLID_4496_" class="st14" d="M12.4,28.7c-0.1,0-0.1,0.1,0.2,0.3c0.2,0.1,0.4,0.2,0.5,0.2l0,0
			C13.3,29,12.8,28.7,12.4,28.7z"/>
	</g>
	<g class="st1">
		<g>
			<path class="st15" d="M26,28.8L26,28.8c-1,0.6-1.9,1-2.8,1.2l0,0c0,0,0,0-0.1,0l-0.5,0.2h-0.1c-0.1,0-0.2,0.1-0.3,0.1h-0.1
				c-0.1,0-0.2,0.1-0.2,0.1h-0.1c-0.5,0.2-0.9,0.4-1.4,0.7c-0.1,0.1-0.2,0.1-0.3,0.2L20,31.4c-0.4,0.3-2,1.5-2.9,2.5l-0.6,0.6
				L16,34.6c-1,0.2-2,0.5-3,1.1c-0.1,0.1-0.2,0.1-0.3,0.2c-0.3,0.2-0.5,0.3-0.8,0.5l0,0l-0.1,0.1c-0.1,0.1-0.2,0.1-0.3,0.2l0,0l0,0
				c-0.4,0.3-0.9,0.7-1.3,1.1c-0.1,0.1-0.2,0.2-0.3,0.3c-0.3,0.3-0.7,0.6-1,0.9H8.8c-0.3,0.3-0.7,0.5-1,0.8
				c-0.2,0.2-0.5,0.3-0.7,0.5H7l13.7,8.3h0.1c0.8-0.5,1.7-1.2,2.5-1.9c0.5-0.5,1.1-0.9,1.7-1.4c1.2-0.9,2.3-1.5,3.2-1.8
				c0.7-0.3,1.4-0.5,2.1-0.6l0.5-0.6c0.7-0.7,1.5-1.3,2.4-1.8c1.5-1,3.2-1.8,4.9-2.5c0.6-0.2,1.2-0.5,1.6-0.7l0.2-0.1L26,28.8z"/>
			<g>
				<g>
					<g>
						<path class="st16" d="M39.1,36.7c-0.5,0.3-0.7,0.4-1.2,0.6c-0.3,0.1-0.5,0.2-0.8,0.3c-0.2,0.1-0.3,0.1-0.5,0.1
							c-0.7,0.2-1.4,0.4-2,0.8c-0.2,0.1-0.4,0.2-0.6,0.3c-1.3,0.8-2.6,2-3.9,3.5l-2.5-1.5l-11-6.7c1.3-1.5,2.6-2.7,3.9-3.5
							c0.2-0.1,0.4-0.2,0.6-0.3c0.7-0.4,1.4-0.6,2-0.8c0.2,0,0.3-0.1,0.5-0.1c0.3-0.1,0.5-0.2,0.8-0.3c0.5-0.2,0.7-0.3,1.2-0.6
							L39.1,36.7z"/>
						<g>
							<path class="st16" d="M30.1,42.3c-1.3,0.1-2.6,0.5-3.9,1.3c-0.2,0.1-0.4,0.2-0.6,0.4c-0.7,0.5-1.4,1-2,1.7
								c-0.2,0.2-0.3,0.3-0.5,0.4c-0.3,0.3-0.6,0.5-0.9,0.7c-0.5,0.4-0.8,0.6-1.3,0.9L7.5,39.5C8,39.2,8.3,39,8.8,38.6
								c0.3-0.2,0.6-0.5,0.9-0.7c0.2-0.1,0.3-0.3,0.5-0.4c0.7-0.6,1.4-1.2,2-1.7c0.2-0.1,0.4-0.3,0.6-0.4c1.3-0.8,2.6-1.2,3.9-1.3
								l11,6.7L30.1,42.3z"/>
						</g>
					</g>
					<polygon class="st17" points="7.5,39.5 7.3,40.3 20.7,48.5 20.9,47.7 					"/>
					<path class="st18" d="M39.4,37.1c-0.9,0.6-1.8,1-2.7,1.2c0,0,0,0-0.1,0s-0.2,0-0.3,0.1c-0.1,0-0.2,0.1-0.3,0.1
						s-0.2,0.1-0.3,0.1c-0.6,0.2-1.2,0.5-1.8,0.9c-0.1,0.1-0.2,0.1-0.3,0.2c-1,0.7-2,1.5-3,2.5L30,42.8l-0.6,0.1c-1,0.2-2,0.5-3,1.1
						c-0.1,0.1-0.2,0.1-0.3,0.2c-0.3,0.2-0.5,0.3-0.8,0.5c-0.6,0.4-1.1,0.9-1.7,1.4c-0.1,0.1-0.2,0.2-0.3,0.3
						c-0.9,0.9-1.8,1.6-2.7,2.2l0.2-0.8c0.5-0.3,0.8-0.5,1.3-0.9c0.3-0.2,0.6-0.5,0.9-0.7c0.2-0.1,0.3-0.3,0.5-0.4
						c0.7-0.6,1.4-1.2,2-1.7c0.2-0.1,0.4-0.3,0.6-0.4c1.3-0.8,2.6-1.2,3.9-1.3c1.3-1.5,2.6-2.7,3.9-3.5c0.2-0.1,0.4-0.2,0.6-0.3
						c0.7-0.4,1.4-0.6,2-0.8c0.2,0,0.3-0.1,0.5-0.1c0.3-0.1,0.5-0.2,0.8-0.3c0.5-0.2,0.7-0.3,1.2-0.6L39.4,37.1z"/>
				</g>
			</g>
			<g>
				<path class="st19" d="M17.8,34.6C17.9,34.6,17.9,34.6,17.8,34.6c1.2-1.4,2.5-2.5,3.7-3.2c0.2-0.1,0.4-0.2,0.5-0.3
					c0.7-0.3,1.3-0.6,2-0.8c0.2,0,0.3-0.1,0.5-0.1c0.3-0.1,0.5-0.2,0.8-0.3c0.4-0.2,0.7-0.3,1.1-0.5c0,0,0,0,0-0.1s0,0-0.1,0
					c-0.4,0.2-0.6,0.3-1,0.5c-0.3,0.1-0.5,0.2-0.8,0.3c-0.2,0.1-0.3,0.1-0.5,0.1c-0.7,0.2-1.3,0.4-2,0.8c-0.2,0.1-0.4,0.2-0.6,0.3
					C20.3,32.1,19,33.2,17.8,34.6C17.8,34.5,17.8,34.6,17.8,34.6L17.8,34.6z"/>
				<path class="st19" d="M25.4,30.6c-0.2,0.1-0.3,0.1-0.5,0.1c-0.7,0.2-1.3,0.4-2,0.8c-0.2,0.1-0.4,0.2-0.6,0.3
					c-1.2,0.7-2.5,1.8-3.7,3.2v0.1l0,0l0,0c1.2-1.4,2.5-2.5,3.7-3.2c0.2-0.1,0.4-0.2,0.6-0.3c0.7-0.4,1.3-0.6,2-0.8
					C25.1,30.8,25.3,30.7,25.4,30.6c0.3,0,0.6-0.1,0.8-0.2c0.4-0.2,0.6-0.3,1-0.5c0,0,0,0,0-0.1c0,0,0,0-0.1,0
					c-0.4,0.2-0.6,0.3-1,0.5C25.9,30.4,25.7,30.5,25.4,30.6z"/>
				<path class="st19" d="M26.2,31.1c-0.2,0.1-0.3,0.1-0.5,0.1c-0.7,0.2-1.3,0.4-2,0.8c-0.2,0.1-0.4,0.2-0.6,0.3
					c-1.2,0.7-2.5,1.8-3.7,3.2v0.1l0,0l0,0c1.2-1.4,2.5-2.5,3.7-3.2c0.2-0.1,0.4-0.2,0.6-0.3c0.7-0.4,1.4-0.6,2-0.8
					C25.9,31.3,26.1,31.2,26.2,31.1c0.3,0,0.6-0.1,0.8-0.2c0.4-0.2,0.6-0.3,1-0.5c0,0,0,0,0-0.1c0,0,0,0-0.1,0
					c-0.4,0.2-0.6,0.3-1,0.5C26.8,30.9,26.5,31,26.2,31.1z"/>
				<path class="st19" d="M27.1,31.5c-0.2,0.1-0.3,0.1-0.5,0.1c-0.7,0.2-1.3,0.4-2,0.8c-0.2,0.1-0.4,0.2-0.6,0.3
					c-1.2,0.7-2.5,1.8-3.7,3.2V36l0,0l0,0c1.2-1.4,2.5-2.5,3.7-3.2c0.2-0.1,0.4-0.2,0.6-0.3c0.7-0.4,1.4-0.6,2-0.8
					C26.7,31.7,26.9,31.7,27.1,31.5c0.3,0,0.6-0.1,0.8-0.2c0.4-0.2,0.6-0.3,1-0.5c0,0,0,0,0-0.1c0,0,0,0-0.1,0
					c-0.4,0.2-0.6,0.3-1,0.5C27.6,31.4,27.3,31.5,27.1,31.5z"/>
				<path class="st19" d="M27.9,32c-0.2,0.1-0.3,0.1-0.5,0.1c-0.7,0.2-1.4,0.4-2,0.8c-0.2,0.1-0.4,0.2-0.6,0.3
					c-1.2,0.7-2.5,1.9-3.7,3.2v0.1l0,0l0,0c1.2-1.4,2.5-2.5,3.7-3.2c0.2-0.1,0.4-0.2,0.6-0.3c0.7-0.4,1.4-0.6,2-0.8
					C27.6,32.2,27.8,32.2,27.9,32c0.3,0,0.6-0.1,0.8-0.2c0.4-0.2,0.6-0.3,1-0.5c0,0,0,0,0-0.1c0,0,0,0-0.1,0c-0.4,0.2-0.6,0.3-1,0.5
					C28.4,31.8,28.1,31.9,27.9,32z"/>
				<path class="st19" d="M28.7,32.5c-0.2,0.1-0.3,0.1-0.5,0.1c-0.7,0.2-1.4,0.4-2,0.8c-0.2,0.1-0.4,0.2-0.6,0.3
					c-1.2,0.7-2.5,1.9-3.7,3.2V37l0,0l0,0c1.2-1.4,2.5-2.5,3.7-3.2c0.2-0.1,0.4-0.2,0.6-0.3c0.7-0.4,1.4-0.6,2-0.8
					C28.4,32.7,28.6,32.6,28.7,32.5c0.3,0,0.6-0.1,0.8-0.2c0.4-0.2,0.6-0.3,1-0.5c0,0,0,0,0-0.1c0,0,0,0-0.1,0
					c-0.3,0.2-0.6,0.3-0.9,0.5C29.2,32.3,29,32.4,28.7,32.5z"/>
				<path class="st19" d="M29.6,33c-0.2,0.1-0.3,0.1-0.5,0.1c-0.7,0.2-1.4,0.4-2.1,0.8c-0.2,0.1-0.4,0.2-0.6,0.3
					c-1.2,0.7-2.5,1.9-3.8,3.3v0.1l0,0l0,0c1.2-1.4,2.5-2.5,3.7-3.2c0.2-0.1,0.4-0.2,0.6-0.3c0.7-0.4,1.4-0.6,2-0.8
					C29.2,33.2,29.4,33.1,29.6,33c0.3,0,0.6-0.1,0.8-0.2c0.4-0.2,0.6-0.3,0.9-0.5c0,0,0,0,0-0.1c0,0,0,0-0.1,0
					c-0.3,0.2-0.5,0.3-0.9,0.4C30.1,32.8,29.8,32.9,29.6,33z"/>
				<path class="st19" d="M30.4,33.5c-0.2,0.1-0.3,0.1-0.5,0.1c-0.7,0.2-1.4,0.4-2.1,0.8c-0.2,0.1-0.4,0.2-0.6,0.3
					c-1.2,0.7-2.5,1.9-3.8,3.3v0.1l0,0l0,0c1.2-1.4,2.5-2.5,3.7-3.2c0.2-0.1,0.4-0.2,0.6-0.3c0.7-0.4,1.4-0.6,2-0.8
					C30.1,33.7,30.2,33.6,30.4,33.5c0.3,0,0.5-0.1,0.8-0.2c0.4-0.2,0.6-0.3,0.9-0.4c0,0,0,0,0-0.1c0,0,0,0-0.1,0
					c-0.3,0.2-0.5,0.3-0.9,0.4C30.9,33.3,30.6,33.4,30.4,33.5z"/>
				<path class="st19" d="M31.2,33.9C31,34,30.9,34,30.7,34.1c-0.7,0.2-1.4,0.4-2.1,0.8c-0.2,0.1-0.4,0.2-0.6,0.3
					c-1.2,0.7-2.5,1.9-3.8,3.3v0.1l0,0l0,0c1.2-1.4,2.5-2.5,3.8-3.3c0.2-0.1,0.4-0.2,0.6-0.3c0.7-0.4,1.4-0.6,2-0.8
					C30.9,34.1,31.1,34.1,31.2,33.9c0.3,0,0.5-0.1,0.8-0.2c0.4-0.2,0.6-0.2,0.9-0.4c0,0,0,0,0-0.1c0,0,0,0-0.1,0
					c-0.3,0.2-0.5,0.3-0.9,0.4C31.7,33.8,31.5,33.9,31.2,33.9z"/>
				<path class="st19" d="M32,34.4c-0.2,0.1-0.3,0.1-0.5,0.1c-0.7,0.2-1.4,0.4-2.1,0.8c-0.2,0.1-0.4,0.2-0.6,0.3
					c-1.2,0.7-2.6,1.9-3.8,3.3V39l0,0l0,0c1.2-1.4,2.5-2.5,3.8-3.3c0.2-0.1,0.4-0.2,0.6-0.3c0.7-0.4,1.4-0.6,2-0.8
					C31.7,34.6,31.9,34.6,32,34.4c0.3,0,0.5-0.1,0.8-0.2c0.4-0.2,0.6-0.2,0.9-0.4c0,0,0,0,0-0.1c0,0,0,0-0.1,0
					c-0.3,0.2-0.5,0.3-0.9,0.4C32.6,34.2,32.3,34.3,32,34.4z"/>
				<path class="st19" d="M32.9,34.9C32.7,35,32.6,35,32.4,35c-0.7,0.2-1.4,0.4-2.1,0.8c-0.2,0.1-0.4,0.2-0.6,0.3
					c-1.2,0.8-2.6,1.9-3.8,3.3v0.1l0,0l0,0c1.2-1.4,2.5-2.5,3.8-3.3c0.2-0.1,0.4-0.2,0.6-0.3c0.7-0.4,1.4-0.6,2.1-0.8
					C32.6,35.1,32.7,35,32.9,34.9c0.3,0,0.5-0.1,0.8-0.2c0.3-0.1,0.6-0.2,0.9-0.4c0,0,0,0,0-0.1c0,0,0,0-0.1,0
					c-0.3,0.2-0.5,0.3-0.8,0.4C33.4,34.7,33.1,34.8,32.9,34.9z"/>
				<path class="st19" d="M33.7,35.4c-0.2,0.1-0.3,0.1-0.5,0.1c-0.7,0.2-1.4,0.4-2.1,0.8c-0.2,0.1-0.4,0.2-0.6,0.3
					c-1.2,0.8-2.6,1.9-3.8,3.3V40l0,0l0,0c1.2-1.4,2.6-2.5,3.8-3.3c0.2-0.1,0.4-0.2,0.6-0.3c0.7-0.4,1.4-0.6,2.1-0.8
					C33.4,35.6,33.6,35.5,33.7,35.4c0.3,0,0.5-0.1,0.8-0.2c0.3-0.1,0.5-0.2,0.8-0.4c0,0,0,0,0-0.1c0,0,0,0-0.1,0
					c-0.3,0.2-0.5,0.3-0.8,0.4C34.2,35.2,34,35.3,33.7,35.4z"/>
				<path class="st19" d="M34.5,35.8c-0.2,0.1-0.3,0.1-0.5,0.1c-0.7,0.2-1.4,0.4-2.1,0.8c-0.2,0.1-0.4,0.2-0.6,0.3
					c-1.3,0.8-2.6,1.9-3.8,3.3v0.1l0,0l0,0c1.2-1.4,2.6-2.6,3.8-3.3c0.2-0.1,0.4-0.2,0.6-0.3c0.7-0.4,1.4-0.6,2.1-0.8
					C34.2,36,34.4,36,34.5,35.8c0.3,0,0.5-0.1,0.8-0.2c0.3-0.1,0.5-0.2,0.8-0.4c0,0,0,0,0-0.1c0,0,0,0-0.1,0
					c-0.3,0.2-0.5,0.2-0.8,0.4C35,35.7,34.8,35.8,34.5,35.8z"/>
				<path class="st19" d="M35.4,36.3c-0.2,0.1-0.3,0.1-0.5,0.1c-0.7,0.2-1.4,0.4-2.1,0.8c-0.2,0.1-0.4,0.2-0.6,0.3
					c-1.3,0.8-2.6,1.9-3.8,3.3v0.1l0,0l0,0c1.3-1.4,2.6-2.6,3.8-3.3c0.2-0.1,0.4-0.2,0.6-0.3c0.7-0.4,1.4-0.6,2.1-0.8
					C35.1,36.5,35.2,36.5,35.4,36.3c0.3,0,0.5-0.1,0.8-0.2c0.3-0.1,0.5-0.2,0.8-0.4c0,0,0,0,0-0.1c0,0,0,0-0.1,0
					c-0.2,0.1-0.4,0.2-0.8,0.4C35.9,36.2,35.6,36.2,35.4,36.3z"/>
				<path class="st19" d="M37.7,36.2c-0.3,0.1-0.5,0.2-0.8,0.4c-0.3,0.1-0.5,0.2-0.8,0.3C35.9,37,35.8,37,35.6,37
					c-0.7,0.2-1.4,0.4-2.1,0.8c-0.2,0.1-0.4,0.2-0.6,0.3c-1.3,0.8-2.6,1.9-3.9,3.3v0.1l0,0l0,0c1.3-1.4,2.6-2.6,3.8-3.3
					c0.2-0.1,0.4-0.2,0.6-0.3c0.7-0.4,1.4-0.6,2.1-0.8c0.2,0,0.3-0.1,0.5-0.1c0.2-0.1,0.5-0.2,0.8-0.3
					C37.3,36.5,37.5,36.4,37.7,36.2C37.8,36.3,37.8,36.2,37.7,36.2C37.8,36.2,37.7,36.2,37.7,36.2z"/>
				<path class="st19" d="M10.6,38.6c0.2-0.1,0.3-0.3,0.5-0.4c0.7-0.6,1.3-1.2,2-1.7c0.2-0.1,0.4-0.2,0.6-0.4
					c1.2-0.7,2.5-1.2,3.7-1.3c0,0,0,0,0-0.1c0,0,0,0-0.1,0c-1.2,0.1-2.5,0.5-3.7,1.3c-0.2,0.1-0.4,0.2-0.6,0.4c-0.7,0.5-1.4,1-2,1.7
					C10.9,38.3,10.7,38.4,10.6,38.6c-0.4,0.2-0.7,0.4-0.9,0.7c-0.4,0.3-0.7,0.5-1,0.7c0,0,0,0,0,0.1l0,0l0,0c0.3-0.2,0.6-0.4,1-0.7
					S10.3,38.9,10.6,38.6z"/>
				<path class="st19" d="M11.5,39.1c0.2-0.1,0.3-0.3,0.5-0.4c0.7-0.6,1.3-1.2,2-1.7c0.2-0.1,0.4-0.2,0.6-0.4
					c1.2-0.7,2.5-1.2,3.7-1.2c0,0,0,0,0-0.1c0,0,0-0.1-0.1,0c-1.2,0.1-2.5,0.5-3.7,1.3c-0.2,0.1-0.4,0.2-0.6,0.4
					c-0.7,0.5-1.4,1-2,1.7C11.7,38.8,11.6,38.9,11.5,39.1c-0.4,0.2-0.7,0.4-0.9,0.7c-0.4,0.3-0.7,0.5-1,0.7c0,0,0,0,0,0.1l0,0l0,0
					c0.3-0.2,0.6-0.4,1-0.7C10.9,39.6,11.2,39.4,11.5,39.1z"/>
				<path class="st19" d="M12.3,39.6c0.2-0.1,0.3-0.3,0.5-0.4c0.7-0.6,1.3-1.2,2-1.7c0.2-0.1,0.4-0.3,0.6-0.4
					c1.2-0.7,2.4-1.2,3.6-1.2c0,0,0,0,0-0.1s0,0-0.1,0c-1.2,0.1-2.5,0.5-3.7,1.3c-0.2,0.1-0.4,0.2-0.6,0.4c-0.7,0.5-1.4,1-2,1.7
					C12.5,39.2,12.4,39.4,12.3,39.6c-0.4,0.2-0.7,0.4-0.9,0.7c-0.4,0.3-0.7,0.5-1,0.7c0,0,0,0,0,0.1l0,0l0,0c0.3-0.2,0.6-0.4,1-0.7
					C11.7,40.1,12,39.9,12.3,39.6z"/>
				<path class="st19" d="M13.1,40.1c0.2-0.1,0.3-0.3,0.5-0.4c0.7-0.6,1.3-1.2,2-1.7c0.2-0.1,0.4-0.3,0.6-0.4
					c1.2-0.7,2.4-1.1,3.6-1.2c0,0,0,0,0-0.1c0,0,0,0-0.1,0c-1.2,0.1-2.4,0.5-3.6,1.3c-0.2,0.1-0.4,0.2-0.6,0.4c-0.7,0.5-1.4,1-2,1.7
					C13.3,39.7,13.2,39.9,13.1,40.1c-0.4,0.2-0.6,0.4-0.9,0.7c-0.4,0.3-0.7,0.5-1,0.7c0,0,0,0,0,0.1l0,0l0,0c0.3-0.2,0.6-0.4,1-0.7
					C12.5,40.6,12.8,40.4,13.1,40.1z"/>
				<path class="st19" d="M13.9,40.6c0.2-0.1,0.3-0.3,0.5-0.4c0.7-0.6,1.3-1.2,2-1.7c0.2-0.1,0.4-0.3,0.6-0.4
					c1.2-0.7,2.4-1.1,3.6-1.2c0,0,0,0,0-0.1c0,0,0,0-0.1,0c-1.2,0.1-2.4,0.5-3.6,1.3c-0.2,0.1-0.4,0.2-0.6,0.4c-0.7,0.5-1.4,1-2,1.7
					C14.2,40.2,14,40.4,13.9,40.6c-0.4,0.2-0.6,0.4-0.9,0.7c-0.4,0.3-0.7,0.5-1,0.7c0,0,0,0,0,0.1l0,0l0,0c0.3-0.2,0.6-0.4,1-0.7
					C13.3,41.1,13.6,40.8,13.9,40.6z"/>
				<path class="st19" d="M14.7,41.1c0.2-0.1,0.3-0.3,0.5-0.4c0.7-0.6,1.3-1.2,2-1.7c0.2-0.1,0.4-0.3,0.6-0.4
					c1.2-0.7,2.4-1.1,3.5-1.2c0,0,0,0,0-0.1c0,0,0,0-0.1,0c-1.2,0.1-2.4,0.6-3.6,1.3c-0.2,0.1-0.4,0.2-0.6,0.4c-0.7,0.5-1.4,1-2,1.7
					C15,40.7,14.8,40.8,14.7,41.1c-0.4,0.2-0.6,0.4-0.9,0.7c-0.4,0.3-0.7,0.5-1,0.7c0,0,0,0,0,0.1l0,0l0,0c0.3-0.2,0.6-0.4,1-0.7
					S14.4,41.3,14.7,41.1z"/>
				<path class="st19" d="M15.6,41.5c0.2-0.1,0.3-0.3,0.5-0.4c0.7-0.6,1.3-1.2,2-1.7c0.2-0.1,0.4-0.3,0.6-0.4
					c1.1-0.7,2.4-1.1,3.5-1.2c0,0,0,0,0-0.1s0,0-0.1,0c-1.2,0.1-2.4,0.6-3.5,1.3c-0.2,0.1-0.4,0.2-0.6,0.4c-0.7,0.5-1.4,1-2,1.7
					C15.8,41.2,15.6,41.3,15.6,41.5c-0.4,0.2-0.6,0.4-0.9,0.7c-0.4,0.3-0.7,0.5-1,0.7c0,0,0,0,0,0.1l0,0l0,0c0.3-0.2,0.6-0.4,1-0.7
					C15,42.1,15.3,41.8,15.6,41.5z"/>
				<path class="st19" d="M16.4,42c0.2-0.1,0.3-0.3,0.5-0.4c0.7-0.6,1.3-1.2,2-1.7c0.2-0.1,0.4-0.3,0.6-0.4c1.1-0.7,2.3-1.1,3.5-1.2
					c0,0,0,0,0-0.1s0,0-0.1,0c-1.2,0.1-2.4,0.6-3.5,1.3c-0.2,0.1-0.4,0.2-0.6,0.4c-0.7,0.5-1.4,1-2.1,1.7
					C16.6,41.7,16.5,41.8,16.4,42c-0.4,0.2-0.6,0.4-0.9,0.7c-0.4,0.3-0.7,0.5-1,0.7c0,0,0,0,0,0.1l0,0l0,0c0.3-0.2,0.6-0.4,1.1-0.7
					C15.8,42.5,16.1,42.3,16.4,42z"/>
				<path class="st19" d="M17.2,42.5c0.2-0.1,0.3-0.3,0.5-0.4c0.7-0.6,1.4-1.2,2-1.7c0.2-0.1,0.4-0.3,0.6-0.4
					c1.1-0.7,2.3-1.1,3.4-1.2c0,0,0,0,0-0.1s0,0-0.1,0c-1.1,0.1-2.3,0.6-3.5,1.3c-0.2,0.1-0.4,0.2-0.6,0.4c-0.7,0.5-1.4,1-2.1,1.7
					C17.4,42.2,17.3,42.3,17.2,42.5c-0.4,0.2-0.6,0.4-0.9,0.6c-0.4,0.3-0.7,0.5-1.1,0.7c0,0,0,0,0,0.1l0,0l0,0
					c0.3-0.2,0.6-0.4,1.1-0.8C16.6,43,16.9,42.8,17.2,42.5z"/>
				<path class="st19" d="M18,43c0.2-0.1,0.3-0.3,0.5-0.4c0.7-0.6,1.4-1.2,2-1.7c0.2-0.1,0.4-0.3,0.6-0.4c1.1-0.7,2.3-1.1,3.4-1.2
					c0,0,0,0,0-0.1s0,0-0.1,0c-1.1,0.1-2.3,0.6-3.5,1.3c-0.2,0.1-0.4,0.2-0.6,0.4c-0.7,0.5-1.4,1.1-2.1,1.7
					C18.3,42.6,18.1,42.8,18,43c-0.4,0.2-0.6,0.4-0.9,0.6c-0.4,0.3-0.7,0.6-1.1,0.8c0,0,0,0,0,0.1l0,0l0,0c0.3-0.2,0.7-0.4,1.1-0.8
					C17.4,43.5,17.7,43.3,18,43z"/>
				<path class="st19" d="M18.8,43.5c0.2-0.1,0.3-0.3,0.5-0.4c0.7-0.6,1.4-1.2,2-1.7c0.2-0.1,0.4-0.3,0.6-0.4
					c1.1-0.7,2.3-1.1,3.4-1.2c0,0,0,0,0-0.1c0,0,0,0-0.1,0c-1.1,0.1-2.3,0.6-3.4,1.3c-0.2,0.1-0.4,0.2-0.6,0.4
					c-0.7,0.5-1.4,1.1-2.1,1.7C19.1,43.1,18.9,43.3,18.8,43.5c-0.4,0.2-0.6,0.4-0.9,0.6c-0.4,0.3-0.7,0.6-1.1,0.8c0,0,0,0,0,0.1l0,0
					l0,0c0.3-0.2,0.7-0.4,1.1-0.8C18.3,44,18.5,43.7,18.8,43.5z"/>
				<path class="st19" d="M19.6,44c0.2-0.1,0.3-0.3,0.5-0.4c0.7-0.6,1.4-1.2,2.1-1.7c0.2-0.1,0.4-0.3,0.6-0.4
					c1.1-0.7,2.3-1.1,3.4-1.2c0,0,0,0,0-0.1c0,0,0,0-0.1,0c-1.1,0.2-2.3,0.6-3.4,1.3c-0.2,0.1-0.4,0.2-0.6,0.4
					c-0.7,0.5-1.4,1.1-2.1,1.7C19.9,43.6,19.7,43.8,19.6,44c-0.4,0.2-0.6,0.4-0.9,0.6c-0.4,0.3-0.8,0.6-1.1,0.8c0,0,0,0,0,0.1l0,0
					l0,0c0.3-0.2,0.7-0.4,1.1-0.8C19.1,44.5,19.4,44.2,19.6,44z"/>
				<path class="st19" d="M20.5,44.5c0.2-0.1,0.3-0.3,0.5-0.4c0.7-0.6,1.4-1.2,2.1-1.7c0.2-0.1,0.4-0.3,0.6-0.4
					c1.1-0.7,2.2-1.1,3.3-1.2c0,0,0,0,0-0.1c0,0,0,0-0.1,0c-1.1,0.2-2.3,0.6-3.4,1.3c-0.2,0.1-0.4,0.2-0.6,0.4
					c-0.7,0.5-1.4,1.1-2.1,1.7C20.7,44.1,20.5,44.2,20.5,44.5c-0.4,0.2-0.6,0.4-0.9,0.6c-0.4,0.3-0.8,0.6-1.1,0.8c0,0,0,0,0,0.1l0,0
					l0,0c0.3-0.2,0.7-0.4,1.1-0.8C19.9,45,20.2,44.7,20.5,44.5z"/>
				<path class="st19" d="M21.3,44.9c0.2-0.1,0.3-0.3,0.5-0.4c0.7-0.7,1.4-1.2,2.1-1.7c0.2-0.1,0.4-0.3,0.6-0.4
					c1.1-0.6,2.2-1.1,3.3-1.2c0,0,0,0,0-0.1c0,0,0,0-0.1,0c-1.1,0.2-2.3,0.6-3.3,1.3c-0.2,0.1-0.4,0.2-0.6,0.4
					c-0.7,0.5-1.4,1.1-2.1,1.7C21.5,44.6,21.4,44.7,21.3,44.9c-0.4,0.2-0.6,0.4-0.9,0.6c-0.4,0.3-0.8,0.6-1.1,0.8c0,0,0,0,0,0.1l0,0
					l0,0c0.4-0.2,0.7-0.4,1.1-0.8C20.7,45.4,21,45.2,21.3,44.9z"/>
				<path class="st19" d="M25.2,42.8c-0.2,0.1-0.4,0.2-0.6,0.4c-0.7,0.5-1.4,1.1-2.1,1.7c-0.2,0.1-0.3,0.3-0.5,0.4
					c-0.3,0.3-0.6,0.5-0.9,0.7c-0.4,0.3-0.8,0.6-1.1,0.8c0,0,0,0,0,0.1l0,0l0,0c0.4-0.2,0.7-0.4,1.1-0.8c0.3-0.2,0.6-0.5,0.9-0.7
					c0.2-0.1,0.3-0.3,0.5-0.4c0.7-0.7,1.4-1.2,2.1-1.7C24.8,43.2,25,43,25.2,42.8c1.1-0.6,2.2-1,3.3-1.2c0,0,0,0,0-0.1
					c0,0,0,0-0.1,0C27.4,41.7,26.2,42.2,25.2,42.8z"/>
			</g>
		</g>
		<g>
			<g>
				<g>
					<g>
						<g class="st20">
							<g>
								<path class="st21" d="M29.1,41.9l-7.9-4.6l-0.1-0.1L29.1,41.9L29.1,41.9z"/>
							</g>
							<g>
								<path class="st22" d="M29.2,41.6c-0.1,0.1-0.1,0.1-0.1,0.2l-7.9-4.6l0.1-0.2L29.2,41.6z"/>
							</g>
							<g>
								<path class="st23" d="M29.4,41.5h-0.1c0,0-0.1,0-0.1,0.1l-8-4.6l0.2-0.1L29.4,41.5z"/>
							</g>
						</g>
					</g>
					<g>
						<polygon class="st24" points="30.3,42.2 30.3,42.3 30.3,42.3 30.3,42.3 30.2,42.3 30.3,42.3 						"/>
					</g>
					<path d="M30.3,42.2L30,42l0,0c0,0,0,0-0.1,0l-0.1,0.1l0,0L30.3,42.2C30.3,42.3,30.3,42.3,30.3,42.2
						C30.3,42.3,30.3,42.3,30.3,42.2z"/>
					<path class="st25" d="M21.7,37h-0.1l-0.1,0.1c0,0.1-0.1,0.1-0.1,0.2v0.1L21,37.1c0,0-0.1,0-0.1-0.1s0-0.1,0.1-0.2
						c0-0.1,0.1-0.1,0.1-0.1h0.1l0,0L21.7,37z"/>
					<path class="st26" d="M29.4,41.5L29.4,41.5L29.4,41.5z"/>
				</g>
				<path class="st27" d="M29.4,41.5L29.4,41.5L29.4,41.5c-0.1,0-0.2,0-0.2,0s0,0,0,0.1l0,0c0,0-0.1,0.1-0.1,0.2l0,0v0.1l0,0
					l0.8,0.3l0,0c0,0,0-0.1,0.1-0.1c0,0,0,0,0.1,0L29.4,41.5z"/>
			</g>
			
				<linearGradient id="SVGID_1_" gradientUnits="userSpaceOnUse" x1="21.7732" y1="-2043.1643" x2="21.5925" y2="-2043.4897" gradientTransform="matrix(1 0 0 -1 0 -2006)">
				<stop  offset="0" style="stop-color:#78ACED"/>
				<stop  offset="1" style="stop-color:#4F7BB3"/>
			</linearGradient>
			<path class="st28" d="M22.1,37.3L22.1,37.3L22.1,37.3L21.7,37l0,0l0,0h-0.1l0,0h-0.1c-0.1,0-0.1,0.1-0.1,0.1
				c0,0.1-0.1,0.1-0.1,0.2c0,0,0,0.1,0.1,0.1h0.1l0,0l0,0l0.3,0.2l0,0l0,0l0.1,0.1l0,0l0,0l0,0c0,0,0,0,0-0.1l0,0v-0.1l0,0l0.1-0.1
				l0,0C22,37.3,22,37.2,22.1,37.3L22.1,37.3L22.1,37.3L22.1,37.3L22.1,37.3z"/>
		</g>
	</g>
</g>
<radialGradient id="SVGID_00000066485473290051482310000003907569761331159940_" cx="-688.774" cy="-3771.0562" r="15.9016" gradientTransform="matrix(1.5353 0 0 -0.4819 1082.4749 -1775.772)" gradientUnits="userSpaceOnUse">
	<stop  offset="0.4351" style="stop-color:#B4BCC1"/>
	<stop  offset="0.94" style="stop-color:#ECEEEF;stop-opacity:0"/>
</radialGradient>
<ellipse style="fill:url(#SVGID_00000066485473290051482310000003907569761331159940_);" cx="25" cy="41.5" rx="24.4" ry="7.7"/>
<g>
	<g>
		<polygon id="XMLID_21720_" class="st30" points="26.218,46.704 26.218,45.802 46.38,34.162 46.38,35.065 		"/>
		<polygon id="XMLID_21719_" class="st31" points="3.74,30.958 3.74,33.176 26.218,46.145 26.218,43.929 		"/>
		<path id="XMLID_8213_" class="st32" d="M26.218,43.929L3.74,30.959c0,0,0.494-0.495,0.82-0.718
			c0.415-0.284,1.16-0.324,1.612-0.624c0.34-0.226,1.361-1.274,1.846-1.435c1.097-0.362,2.406-1.083,2.406-1.083l22.473,12.974
			L26.218,43.929z"/>
		<path id="XMLID_1629_" class="st32" d="M34.279,39.288L11.802,26.319c0,0,0.494-0.495,0.82-0.718
			c0.415-0.284,1.16-0.324,1.612-0.624c0.34-0.226,1.361-1.274,1.846-1.435c1.097-0.362,2.406-1.083,2.406-1.083l22.473,12.974
			L34.279,39.288z"/>
		<path id="XMLID_1630_" class="st32" d="M39.706,36.148L17.228,23.178c0,0,0.494-0.495,0.82-0.718
			c0.415-0.284,1.16-0.324,1.612-0.624c0.34-0.226,1.361-1.274,1.846-1.435c1.097-0.362,2.406-1.083,2.406-1.083l22.473,12.974
			L39.706,36.148z"/>
		<polygon id="XMLID_21717_" class="st33" points="32.899,40.071 10.426,27.099 23.904,19.318 46.38,32.288 		"/>
		<g id="XMLID_22_">
			<polygon id="XMLID_2644_" class="st34" points="26.218,46.704 26.218,45.802 3.74,32.842 3.74,33.743 			"/>
		</g>
		<path id="XMLID_21713_" class="st35" d="M3.74,30.958v2.218l22.478,12.969v-2.218c0,0-2.567-2.31-3.698-2.803
			c-4.365-1.908-5.84-3.095-7.73-4.28c-1.268-0.795-3.69-1.64-4.986-2.388c-0.816-0.471-2.396-1.699-3.211-2.169
			C5.896,31.886,3.74,30.958,3.74,30.958z"/>
		
			<linearGradient id="XMLID_00000183933423544145630780000007006568666162546850_" gradientUnits="userSpaceOnUse" x1="13.3449" y1="10.2977" x2="15.4359" y2="14.3292" gradientTransform="matrix(1 0 0 -1 0 52)">
			<stop  offset="0.0101" style="stop-color:#1E7A92"/>
			<stop  offset="1" style="stop-color:#FFFFFF;stop-opacity:0"/>
		</linearGradient>
		<path id="XMLID_8229_" style="fill:url(#XMLID_00000183933423544145630780000007006568666162546850_);" d="M3.74,30.958v2.218
			l22.478,12.969v-2.218c0,0-2.567-2.31-3.698-2.803c-4.365-1.908-5.84-3.095-7.73-4.28c-1.268-0.795-3.69-1.64-4.986-2.388
			c-0.816-0.471-2.396-1.699-3.211-2.169C5.896,31.886,3.74,30.958,3.74,30.958z"/>
		
			<linearGradient id="XMLID_00000050634723157510739350000014556710171667237773_" gradientUnits="userSpaceOnUse" x1="16.3544" y1="15.8325" x2="15.352" y2="14.0949" gradientTransform="matrix(1 0 0 -1 0 52)">
			<stop  offset="0.0101" style="stop-color:#FFFFFF"/>
			<stop  offset="1" style="stop-color:#FFFFFF;stop-opacity:0"/>
		</linearGradient>
		<path id="XMLID_8230_" style="fill:url(#XMLID_00000050634723157510739350000014556710171667237773_);" d="M3.74,30.958v2.218
			l22.478,12.969v-2.218c0,0-2.567-2.31-3.698-2.803c-4.365-1.908-5.84-3.095-7.73-4.28c-1.268-0.795-3.69-1.64-4.986-2.388
			c-0.816-0.471-2.396-1.699-3.211-2.169C5.896,31.886,3.74,30.958,3.74,30.958z"/>
		<g id="XMLID_8270_">
			<path id="XMLID_8271_" class="st38" d="M5.302,31.652c0-0.001,0.019,0.004,0.055,0.019c0.035,0.015,0.087,0.037,0.155,0.067
				c0.136,0.061,0.335,0.149,0.59,0.272c0.254,0.12,0.565,0.278,0.9,0.501c0.337,0.217,0.712,0.479,1.125,0.768
				c0.414,0.288,0.862,0.61,1.358,0.934c0.494,0.324,1.067,0.593,1.674,0.866c0.61,0.267,1.25,0.55,1.915,0.841
				c0.659,0.3,1.349,0.615,1.994,1.043c0.649,0.414,1.272,0.833,1.886,1.221c0.613,0.387,1.215,0.74,1.799,1.063
				c1.167,0.641,2.252,1.157,3.168,1.574c0.229,0.103,0.449,0.202,0.656,0.296c0.208,0.098,0.392,0.211,0.56,0.321
				c0.335,0.22,0.612,0.429,0.835,0.601s0.393,0.31,0.507,0.406c0.056,0.047,0.1,0.084,0.129,0.109
				c0.028,0.025,0.043,0.038,0.041,0.04c-0.001,0.001-0.018-0.01-0.047-0.033c-0.031-0.024-0.075-0.058-0.134-0.102
				c-0.118-0.09-0.293-0.222-0.517-0.392c-0.226-0.167-0.505-0.371-0.842-0.585c-0.168-0.106-0.352-0.217-0.556-0.31
				c-0.208-0.092-0.427-0.188-0.658-0.29c-0.922-0.409-2.011-0.919-3.183-1.558c-0.585-0.319-1.191-0.674-1.806-1.06
				c-0.619-0.389-1.243-0.808-1.89-1.222c-0.638-0.426-1.321-0.737-1.98-1.039c-0.664-0.294-1.303-0.576-1.912-0.847
				c-0.606-0.276-1.182-0.551-1.68-0.881c-0.497-0.327-0.943-0.652-1.354-0.944c-0.409-0.294-0.782-0.559-1.114-0.779
				c-0.331-0.226-0.634-0.386-0.887-0.511c-0.253-0.124-0.449-0.222-0.582-0.287c-0.067-0.033-0.117-0.058-0.151-0.075
				C5.319,31.663,5.301,31.654,5.302,31.652z"/>
		</g>
		<g id="XMLID_958_" class="st39">
			<path id="XMLID_959_" class="st40" d="M34.281,28.206c-0.021,0.025-0.236-0.149-0.658-0.279
				c-0.208-0.069-0.466-0.127-0.754-0.197c-0.287-0.071-0.612-0.155-0.928-0.321c-0.313-0.168-0.566-0.386-0.792-0.578
				c-0.225-0.194-0.423-0.365-0.603-0.489c-0.356-0.257-0.63-0.316-0.622-0.349c0-0.021,0.3-0.007,0.696,0.233
				c0.198,0.115,0.412,0.282,0.643,0.467c0.231,0.183,0.479,0.389,0.768,0.544c0.29,0.154,0.599,0.239,0.882,0.319
				c0.284,0.078,0.544,0.152,0.755,0.241C34.099,27.971,34.297,28.193,34.281,28.206z"/>
		</g>
		<g id="XMLID_955_" class="st39">
			<path id="XMLID_956_" class="st40" d="M17.873,28.744c-0.021,0.025-0.236-0.149-0.658-0.279
				c-0.208-0.069-0.466-0.127-0.754-0.197c-0.287-0.071-0.612-0.155-0.928-0.321c-0.313-0.168-0.566-0.386-0.792-0.578
				c-0.225-0.194-0.423-0.365-0.603-0.489c-0.356-0.257-0.63-0.316-0.622-0.349c0-0.021,0.3-0.007,0.696,0.233
				c0.198,0.115,0.412,0.282,0.641,0.467c0.231,0.183,0.479,0.389,0.768,0.544c0.29,0.154,0.599,0.239,0.882,0.319
				c0.284,0.078,0.544,0.152,0.755,0.241C17.692,28.507,17.89,28.731,17.873,28.744z"/>
		</g>
		<g id="XMLID_935_" class="st39">
			<path id="XMLID_946_" class="st40" d="M27.109,33.399c-0.021,0.025-0.236-0.149-0.658-0.279
				c-0.208-0.069-0.466-0.127-0.754-0.197c-0.287-0.071-0.612-0.155-0.928-0.321c-0.313-0.168-0.566-0.386-0.792-0.578
				c-0.225-0.194-0.423-0.365-0.603-0.489c-0.356-0.257-0.63-0.316-0.622-0.349c0-0.021,0.3-0.007,0.696,0.233
				c0.198,0.115,0.412,0.282,0.641,0.467c0.231,0.183,0.479,0.389,0.768,0.544c0.29,0.154,0.599,0.239,0.882,0.319
				c0.284,0.078,0.544,0.152,0.755,0.241C26.927,33.163,27.125,33.386,27.109,33.399z"/>
		</g>
		<path id="XMLID_1638_" class="st41" d="M45.398,32.681c-0.455,0.532-1.209,0.771-1.553,0.91c-0.517,0.208-1.088,0.795-1.321,0.93
			c-0.497,0.287-1.269,0.535-1.766,0.822c-0.164,0.095-0.457,0.322-0.692,0.51c-0.476,0.174-1.247,0.488-1.473,0.751
			c-0.455,0.532-1.209,0.771-1.553,0.91c-0.517,0.208-1.088,0.795-1.321,0.93c-0.497,0.287-1.269,0.535-1.766,0.822
			c-0.304,0.176-1.051,0.804-1.051,0.804v0.001c0,0-0.655,0-0.989,0.39c-0.455,0.532-1.209,0.771-1.553,0.91
			c-0.517,0.208-1.088,0.795-1.321,0.93c-0.497,0.287-1.269,0.535-1.766,0.822c-0.304,0.176-1.051,0.804-1.051,0.804v2.218
			l6.681-3.857l6.807-3.924l6.681-3.857v-2.217C46.387,32.291,45.732,32.291,45.398,32.681z"/>
		<g id="XMLID_00000133519598358949058960000017189744407572908982_" class="st39">
			<path id="XMLID_00000088832092132774976860000015243384996807087751_" class="st40" d="M24.193,22.771
				c-0.313-0.168-0.566-0.386-0.792-0.578c-0.225-0.194-0.423-0.365-0.603-0.489c-0.356-0.257-0.63-0.316-0.622-0.349
				c0-0.021,0.3-0.007,0.696,0.233c0.198,0.115,0.412,0.282,0.641,0.467c0.231,0.183,0.479,0.389,0.768,0.544
				c0.29,0.154,0.599,0.239,0.882,0.319c0.284,0.078,0.544,0.152,0.755,0.241c0.429,0.171,0.627,0.395,0.61,0.408
				c-0.021,0.025-0.236-0.149-0.658-0.279c-0.208-0.069-0.466-0.127-0.754-0.197"/>
		</g>
	</g>
	<g>
		<g id="XMLID_28_">
			<g id="XMLID_581_">
				<polygon id="XMLID_2271_" class="st42" points="19.915,30.534 14.935,27.677 14.935,34.927 19.915,37.785 				"/>
				<g id="XMLID_1525_">
					<polygon id="XMLID_2270_" class="st43" points="18.001,36.383 16.036,35.248 16.036,30.807 18.001,31.942 					"/>
					<polygon id="XMLID_1565_" class="st43" points="16.262,30.937 16.262,35.115 18.001,36.12 18.001,31.942 					"/>
					<g id="XMLID_1534_">
						<path id="XMLID_1558_" class="st44" d="M16.442,31.04l0.619,0.358v1.234l-0.619-0.358V31.04L16.442,31.04z M17.246,35.474
							v-1.218l0.625,0.361v1.218L17.246,35.474L17.246,35.474z M17.246,34.107l0.625,0.361v-1.216l-0.625-0.362V34.107
							L17.246,34.107z M17.246,31.504l0.625,0.361v1.233l-0.625-0.361V31.504L17.246,31.504z M17.061,34.151v1.216l-0.619-0.358
							v-1.216L17.061,34.151L17.061,34.151z M17.061,32.783l-0.619-0.358v1.216l0.619,0.358V32.783z"/>
					</g>
					<polygon id="XMLID_1533_" class="st45" points="16.036,35.248 16.262,35.115 16.262,30.937 16.036,30.807 					"/>
					<polygon id="XMLID_1532_" class="st46" points="16.036,35.248 16.262,35.115 18.001,36.12 18.001,36.383 					"/>
					<polygon id="XMLID_1531_" class="st47" points="16.442,32.274 16.442,32.328 17.061,32.685 17.061,32.632 					"/>
					<polygon id="XMLID_1530_" class="st47" points="16.442,33.638 16.442,33.692 17.061,34.049 17.061,33.996 					"/>
					<polygon id="XMLID_1529_" class="st47" points="16.442,35.008 16.442,35.06 17.061,35.419 17.061,35.366 					"/>
					<polygon id="XMLID_1528_" class="st47" points="17.246,32.738 17.246,32.79 17.871,33.152 17.871,33.099 					"/>
					<polygon id="XMLID_1527_" class="st47" points="17.246,34.102 17.246,34.154 17.871,34.516 17.871,34.463 					"/>
					<polygon id="XMLID_1526_" class="st47" points="17.246,35.472 17.246,35.524 17.871,35.886 17.871,35.832 					"/>
				</g>
				<polygon id="XMLID_1523_" class="st42" points="27.675,39.966 23.106,37.366 23.106,31.49 27.675,34.11 				"/>
				<polygon id="XMLID_1522_" class="st43" points="26.697,39.411 24.051,37.903 24.051,32.939 26.697,34.463 				"/>
				<polygon id="XMLID_1521_" class="st45" points="24.57,37.556 24.697,37.485 24.697,33.839 24.57,33.91 				"/>
				<polygon id="XMLID_00000035508311855348427150000016457909322607232650_" class="st46" points="26.132,38.384 26.005,38.313 
					26.005,34.667 26.132,34.738 				"/>
				<polygon id="XMLID_1519_" class="st46" points="24.57,37.556 24.697,37.485 26.132,38.314 26.132,38.459 				"/>
				<polygon id="XMLID_1515_" class="st46" points="24.116,32.976 24.051,32.939 24.051,37.903 24.116,37.94 				"/>
				<polygon id="XMLID_1445_" class="st48" points="19.915,30.534 23.106,28.691 23.106,36.712 19.915,37.785 				"/>
				<g id="XMLID_1436_">
					<polygon id="XMLID_1441_" class="st49" points="19.401,32.639 18.312,32.013 18.312,35.684 19.401,36.31 					"/>
					<polygon id="XMLID_1437_" points="19.401,32.639 19.915,32.95 19.915,36.033 19.401,36.318 					"/>
				</g>
				<g id="XMLID_1426_">
					<polygon id="XMLID_1432_" class="st50" points="24.811,35.628 12.425,28.476 15.756,26.542 28.141,33.692 					"/>
					<polygon id="XMLID_1430_" class="st48" points="28.141,33.692 28.141,34.08 24.811,36.016 24.811,35.628 					"/>
					<polygon id="XMLID_1428_" class="st40" points="12.425,28.865 12.425,28.476 24.811,35.628 24.811,36.016 					"/>
				</g>
				<polyline id="XMLID_00000152975973625613586920000005314342022277715860_" class="st51" points="37.284,35.257 37.284,26.186 
					33.719,23.638 24.539,33.891 24.793,34.039 24.793,34.349 27.023,33.046 28.141,33.692 28.141,34.08 27.675,34.349 
					27.675,39.966 37.284,35.257 				"/>
				<polygon id="XMLID_1421_" class="st52" points="24.341,33.777 14.296,27.971 23.318,17.796 33.363,23.595 				"/>
				<polygon id="XMLID_1326_" class="st53" points="37.726,26.598 33.719,23.799 24.58,33.916 24.329,33.77 33.681,23.241 
					37.938,26.214 				"/>
				<polygon id="XMLID_1325_" class="st54" points="23.638,17.461 23.673,17.394 33.719,23.195 33.684,23.26 				"/>
				<polygon id="XMLID_1323_" class="st55" points="33.644,23.279 33.719,23.195 37.975,26.168 37.921,26.26 				"/>
				<polygon id="XMLID_1322_" class="st56" points="33.301,23.666 23.258,17.864 23.617,17.458 33.662,23.258 				"/>
				<polygon id="XMLID_1320_" class="st57" points="33.644,23.279 23.598,17.48 23.673,17.394 33.719,23.195 				"/>
				<polygon id="XMLID_1319_" class="st58" points="14.579,27.652 14.299,27.967 24.795,34.039 24.539,34.187 13.909,28.038 				"/>
				<polygon id="XMLID_1317_" class="st57" points="13.909,28.038 24.539,34.187 24.539,34.66 13.909,28.509 				"/>
				<polygon id="XMLID_1316_" class="st59" points="24.793,34.512 24.539,34.66 24.539,34.187 24.793,34.039 				"/>
				<g id="XMLID_583_">
					<g id="XMLID_679_">
						<polygon id="XMLID_1308_" class="st43" points="29.855,37.398 31.868,36.236 31.868,31.796 29.855,32.957 						"/>
						<polygon id="XMLID_1307_" class="st60" points="31.642,31.926 31.642,36.103 29.855,37.133 29.855,32.957 						"/>
						<g id="XMLID_688_">
							<path id="XMLID_1289_" class="st44" d="M31.461,32.031v1.234l-0.619,0.358v-1.234L31.461,32.031L31.461,32.031z
								 M30.657,36.463l-0.625,0.361v-1.216l0.625-0.361V36.463L30.657,36.463z M30.657,35.096v-1.218l-0.625,0.362v1.216
								L30.657,35.096L30.657,35.096z M30.657,33.727l-0.625,0.361v-1.232l0.625-0.361V33.727z M30.842,35.14l0.619-0.358v1.216
								l-0.619,0.358V35.14L30.842,35.14z M30.842,34.989l0.619-0.358v-1.216l-0.619,0.358V34.989z"/>
						</g>
						<polygon id="XMLID_687_" class="st61" points="31.868,36.236 31.642,36.103 31.642,31.926 31.868,31.796 						"/>
						<polygon id="XMLID_686_" class="st62" points="31.868,36.236 31.642,36.103 29.855,37.133 29.855,37.398 						"/>
						<polygon id="XMLID_685_" class="st47" points="31.461,33.263 31.461,33.315 30.842,33.674 30.842,33.621 						"/>
						<polygon id="XMLID_684_" class="st47" points="31.461,34.627 31.461,34.679 30.842,35.038 30.842,34.985 						"/>
						<polygon id="XMLID_683_" class="st47" points="31.461,35.997 31.461,36.049 30.842,36.408 30.842,36.353 						"/>
						<polygon id="XMLID_682_" class="st47" points="30.657,33.727 30.657,33.779 30.032,34.141 30.032,34.088 						"/>
						<polygon id="XMLID_681_" class="st47" points="30.657,35.091 30.657,35.143 30.032,35.505 30.032,35.452 						"/>
						<polygon id="XMLID_680_" class="st47" points="30.657,36.46 30.657,36.513 30.032,36.873 30.032,36.82 						"/>
					</g>
					<g id="XMLID_584_">
						<polygon id="XMLID_678_" class="st43" points="33.003,35.582 35.014,34.42 35.014,29.979 33.003,31.141 						"/>
						<polygon id="XMLID_676_" class="st60" points="34.788,30.111 34.788,34.289 33.003,35.319 33.003,31.141 						"/>
						<g id="XMLID_637_">
							<path id="XMLID_669_" class="st44" d="M34.607,30.214v1.234l-0.619,0.358v-1.234L34.607,30.214L34.607,30.214z
								 M33.804,34.648l-0.625,0.361v-1.216l0.625-0.361V34.648L33.804,34.648z M33.804,33.279v-1.216l-0.625,0.362v1.216
								L33.804,33.279L33.804,33.279z M33.804,31.912l-0.625,0.361V31.04l0.625-0.361V31.912z M33.988,33.325l0.619-0.358v1.216
								l-0.619,0.358V33.325L33.988,33.325z M33.988,33.173l0.619-0.358v-1.216l-0.619,0.358V33.173z"/>
						</g>
						<polygon id="XMLID_636_" class="st61" points="35.014,34.42 34.788,34.289 34.788,30.111 35.014,29.979 						"/>
						<polygon id="XMLID_635_" class="st62" points="35.014,34.42 34.788,34.289 33.003,35.319 33.003,35.582 						"/>
						<polygon id="XMLID_634_" class="st47" points="34.607,31.448 34.607,31.5 33.988,31.859 33.988,31.806 						"/>
						<polygon id="XMLID_614_" class="st47" points="34.607,32.812 34.607,32.864 33.988,33.223 33.988,33.169 						"/>
						<polygon id="XMLID_611_" class="st47" points="34.607,34.181 34.607,34.234 33.988,34.592 33.988,34.538 						"/>
						<polygon id="XMLID_594_" class="st47" points="33.804,31.911 33.804,31.964 33.178,32.326 33.178,32.273 						"/>
						<polygon id="XMLID_589_" class="st47" points="33.804,33.275 33.804,33.328 33.178,33.69 33.178,33.637 						"/>
						<polygon id="XMLID_586_" class="st47" points="33.804,34.645 33.804,34.697 33.178,35.059 33.178,35.005 						"/>
					</g>
				</g>
			</g>
			<g id="XMLID_572_">
				<polygon id="XMLID_578_" class="st33" points="12.18,29.489 24.811,37.003 37.343,29.705 38.125,35.419 24.436,41.453 
					11.988,34.68 				"/>
			</g>
		</g>
	</g>
	<g id="XMLID_948_" class="st39">
		<path id="XMLID_949_" class="st40" d="M38.479,35.146c-0.021,0.025-0.236-0.149-0.658-0.279c-0.208-0.069-0.466-0.127-0.754-0.197
			c-0.287-0.071-0.612-0.155-0.928-0.321c-0.313-0.168-0.566-0.386-0.792-0.578c-0.225-0.194-0.423-0.365-0.603-0.489
			c-0.356-0.257-0.63-0.316-0.622-0.349c0-0.021,0.3-0.007,0.696,0.233c0.198,0.115,0.412,0.282,0.643,0.467
			c0.231,0.183,0.479,0.389,0.768,0.544c0.29,0.154,0.599,0.239,0.882,0.319c0.284,0.078,0.544,0.152,0.755,0.241
			C38.298,34.909,38.496,35.133,38.479,35.146z"/>
	</g>
	<g id="XMLID_00000152227592043903350350000009843130095102991770_" class="st39">
		<path id="XMLID_00000088103231407473845640000015425354969236654999_" class="st40" d="M26.437,40.074
			c-0.313-0.168-0.566-0.386-0.792-0.578c-0.225-0.194-0.423-0.365-0.603-0.489c-0.356-0.257-0.63-0.316-0.622-0.349
			c0-0.021,0.3-0.007,0.696,0.233c0.198,0.115,0.412,0.282,0.641,0.467c0.231,0.183,0.479,0.389,0.768,0.544
			c0.29,0.154,0.599,0.239,0.882,0.319c0.284,0.078,0.544,0.152,0.755,0.241c0.429,0.171,0.627,0.395,0.61,0.408
			c-0.021,0.025-0.236-0.149-0.658-0.279c-0.208-0.069-0.466-0.127-0.754-0.197"/>
	</g>
	<g id="XMLID_8792_" class="st39">
		<path id="XMLID_8854_" class="st40" d="M12.923,34.036c-0.016,0.024-0.18-0.068-0.455-0.186c-0.275-0.123-0.668-0.257-1.099-0.442
			c-0.432-0.185-0.801-0.424-1.018-0.652c-0.22-0.226-0.293-0.412-0.273-0.423c0.025-0.016,0.136,0.136,0.365,0.322
			c0.226,0.189,0.582,0.396,1.003,0.576c0.421,0.18,0.816,0.338,1.083,0.497C12.798,33.882,12.938,34.017,12.923,34.036z"/>
	</g>
</g>
<ellipse transform="matrix(0.9842 -0.1769 0.1769 0.9842 -5.431 5.012)" cx="25.401" cy="32.973" rx="0.338" ry="0.241"/>
</svg>
