<?xml version="1.0" encoding="utf-8"?>
<!-- Generator: Adobe Illustrator 25.4.1, SVG Export Plug-In . SVG Version: 6.00 Build 0)  -->
<svg version="1.1" id="Layer_1" xmlns="http://www.w3.org/2000/svg" xmlns:xlink="http://www.w3.org/1999/xlink" x="0px" y="0px"
	 viewBox="0 0 50 50" style="enable-background:new 0 0 50 50;" xml:space="preserve">
<style type="text/css">
	.st0{display:none;}
	.st1{display:inline;}
	.st2{fill:#344593;}
	.st3{fill:#3E54A3;}
	.st4{fill:#2E4490;}
	.st5{fill:#122571;}
	.st6{opacity:0.5;fill:#031F60;enable-background:new    ;}
	.st7{fill:#BBDFFF;}
	.st8{fill:#FDB724;}
	.st9{fill:#E7478D;}
	.st10{fill:#BF2878;}
	.st11{fill:#27DEBF;}
	.st12{fill:#1BBC9D;}
	.st13{fill:#A33D64;}
	.st14{fill:#82294D;}
	.st15{fill:#0A4A80;}
	.st16{fill:#F1FCFF;}
	.st17{fill:#D6E6FF;}
	.st18{fill:#CEF3FF;}
	.st19{fill:#606060;}
	.st20{enable-background:new    ;}
	.st21{fill:#F19729;}
	.st22{fill:#FCB040;}
	.st23{fill:#FFCB49;}
	.st24{fill:#2E5677;}
	.st25{fill:#FF51CE;}
	.st26{fill:#EDE6A0;}
	.st27{fill:#FFF7B0;}
	.st28{fill:url(#SVGID_1_);}
	.st29{fill:url(#SVGID_00000077316460452287685580000007602815810806262697_);}
	.st30{fill:#DCB146;}
	.st31{fill:url(#SVGID_00000106858291855052795340000008324248808560757131_);}
	.st32{fill:#EABC4B;}
	.st33{fill:#937325;}
	.st34{fill:#FACB58;}
	.st35{fill:url(#Cylinder_body_00000106115964420376355710000017147161250829656218_);}
	.st36{fill:url(#Cylinder_body_00000100361697331515621670000017468550721649887895_);}
	.st37{fill:url(#Cylinder_body_00000111876377614508517350000006206705596512688018_);}
	.st38{fill:url(#Cylinder_body_00000028317994012717910810000017250064289580982934_);}
	.st39{fill:url(#Cylinder_body_00000143588301773946193340000009677252008830168204_);}
	.st40{fill:url(#Cylinder_body_00000100378807217052842030000012698774240551018660_);}
	.st41{fill:url(#Cylinder_body_00000042002789150592711660000017435649860453745816_);}
	.st42{fill:url(#Cylinder_body_00000170961247442761574510000018092197289573108652_);}
	.st43{fill:url(#Cylinder_body_00000044863399100533005420000008483262668357604232_);}
	.st44{fill:#FF6C6C;}
	.st45{fill:#FF5252;}
	.st46{fill:#FF9797;}
	.st47{fill:#5E96EA;}
	.st48{fill:#3D7CE2;}
	.st49{fill:#97BBEF;}
</style>
<g id="Example" class="st0">
	<g class="st1">
		<g id="XMLID_4903_">
			<path id="XMLID_4905_" class="st2" d="M45.3,33.2v-4.6l0,0c0-0.9-0.6-1.8-1.7-2.4c-2.3-1.3-6-1.3-8.4,0c-1.2,0.7-1.7,1.6-1.7,2.4
				l0,0v4.5c0,0.9,0.6,1.8,1.7,2.4c2.3,1.3,6,1.3,8.4,0C44.8,34.9,45.3,34.1,45.3,33.2L45.3,33.2L45.3,33.2L45.3,33.2z"/>
			<path id="XMLID_4904_" class="st2" d="M45.3,33.2v-4.6l0,0c0-0.9-0.6-1.8-1.7-2.4c-2.3-1.3-6-1.3-8.4,0c-1.2,0.7-1.7,1.6-1.7,2.4
				l0,0v4.5c0,0.9,0.6,1.8,1.7,2.4c2.3,1.3,6,1.3,8.4,0C44.8,34.9,45.3,34.1,45.3,33.2L45.3,33.2L45.3,33.2L45.3,33.2z"/>
		</g>
		<polygon id="XMLID_4900_" class="st3" points="39.4,23 29.7,28.6 39.4,34.2 49.2,28.6 		"/>
		<path id="XMLID_4899_" class="st4" d="M44.3,31.4l-4.8-2.7c-0.1,0-0.2,0-0.2,0.1s0,0.2,0.1,0.2l4.6,2.6L44.3,31.4z"/>
		<polygon id="XMLID_4896_" class="st5" points="29.7,28.6 29.7,29 39.4,34.6 39.4,34.2 		"/>
		<polygon id="XMLID_4883_" class="st4" points="49.2,28.6 49.2,29 39.4,34.6 39.4,34.2 		"/>
		<polygon id="XMLID_4876_" class="st6" points="33.5,31.2 39.4,35.2 45.3,31.2 39.4,34.6 		"/>
		<g id="XMLID_4823_">
			<path id="XMLID_4835_" class="st7" d="M44.7,36.2c-0.1,0-0.2-0.1-0.2-0.2v-4c0-0.2-0.1-0.4-0.3-0.4l-4.9-2.8
				c-0.1,0-0.1-0.2-0.1-0.2c0-0.1,0.2-0.1,0.2-0.1l4.9,2.8c0.3,0.2,0.4,0.4,0.4,0.7v4C44.8,36.1,44.7,36.2,44.7,36.2z"/>
		</g>
		<path class="st8" d="M45.3,39.3L45,36.6c0.1-0.1,0.1-0.2,0-0.2l0,0l0,0l0,0v-0.1l0,0l0,0l0,0c0-0.2-0.2-0.4-0.4-0.4c0,0,0,0-0.1,0
			l0,0l0,0c0,0,0,0-0.1,0c0,0,0,0-0.1,0c0,0,0,0-0.1,0c0,0,0,0,0,0.1l0,0v0.1c0,0.1,0,0.2,0.1,0.3l0,0c-0.1,0.1,0,0.2,0,0.2L44,39.3
			c0,0.1,0.1,0.2,0.3,0.3l0,0h0.1l0,0c0.1,0,0.2,0.1,0.3,0.1l0,0l0,0l0,0l0,0l0,0c0.1,0,0.2,0,0.3-0.1l0,0h0.1l0,0
			C45.3,39.5,45.3,39.4,45.3,39.3z"/>
	</g>
	<g id="XMLID_3738_" class="st1">
		<path id="XMLID_4404_" class="st9" d="M12.4,36.1c1.1-0.8,1.8-2.7,1.7-4c-0.1-1.4-1.2-2-1.7-2.3l0,0c-1.1-0.6-2.8-0.6-3.9,0l0,0
			C8,30.1,7,30.7,6.8,32.1c-0.1,1.3,0.6,3.2,1.7,4l0,0c0.1,0,0.1,0.1,0.2,0.1c1,0.6,2.6,0.6,3.6,0l0,0
			C12.3,36.2,12.4,36.1,12.4,36.1L12.4,36.1z"/>
		<path id="XMLID_4395_" class="st10" d="M9.9,30.8c-0.3,0.2-0.3,0.4,0,0.6s0.8,0.2,1.1,0s0.3-0.4,0-0.6
			C10.7,30.6,10.2,30.6,9.9,30.8z"/>
		<g id="XMLID_4426_">
			<path id="XMLID_2198_" class="st11" d="M10.5,31.2c0,0-0.9,0-1.4-0.7s0-1.9,0-1.9s1.1,0.1,1.7,1C11.2,30.4,10.5,31.2,10.5,31.2z"
				/>
			<path id="XMLID_4431_" class="st12" d="M9,30.5c0.5,0.7,1.4,0.7,1.4,0.7C10.3,29.6,9,28.6,9,28.6S8.5,29.8,9,30.5z"/>
		</g>
		<path id="XMLID_4403_" class="st13" d="M10.5,31.2c0,0,0-1.3,0.7-1.9s1.2-0.6,1.2-0.6c0.4,0,0.9,0.4,0.7,0.4c0,0-0.9,0-1.5,0.5
			s-0.9,1.5-0.9,1.6c0,0,0,0.1-0.1,0.1C10.5,31.3,10.5,31.2,10.5,31.2z"/>
		<path id="XMLID_4496_" class="st14" d="M12.4,28.7c-0.1,0-0.1,0.1,0.2,0.3c0.2,0.1,0.4,0.2,0.5,0.2l0,0
			C13.3,29,12.8,28.7,12.4,28.7z"/>
	</g>
	<g class="st1">
		<g>
			<path class="st15" d="M26,28.8L26,28.8c-1,0.6-1.9,1-2.8,1.2l0,0c0,0,0,0-0.1,0l-0.5,0.2h-0.1c-0.1,0-0.2,0.1-0.3,0.1h-0.1
				c-0.1,0-0.2,0.1-0.2,0.1h-0.1c-0.5,0.2-0.9,0.4-1.4,0.7c-0.1,0.1-0.2,0.1-0.3,0.2L20,31.4c-0.4,0.3-2,1.5-2.9,2.5l-0.6,0.6
				L16,34.6c-1,0.2-2,0.5-3,1.1c-0.1,0.1-0.2,0.1-0.3,0.2c-0.3,0.2-0.5,0.3-0.8,0.5l0,0l-0.1,0.1c-0.1,0.1-0.2,0.1-0.3,0.2l0,0l0,0
				c-0.4,0.3-0.9,0.7-1.3,1.1c-0.1,0.1-0.2,0.2-0.3,0.3c-0.3,0.3-0.7,0.6-1,0.9H8.8c-0.3,0.3-0.7,0.5-1,0.8
				c-0.2,0.2-0.5,0.3-0.7,0.5H7l13.7,8.3h0.1c0.8-0.5,1.7-1.2,2.5-1.9c0.5-0.5,1.1-0.9,1.7-1.4c1.2-0.9,2.3-1.5,3.2-1.8
				c0.7-0.3,1.4-0.5,2.1-0.6l0.5-0.6c0.7-0.7,1.5-1.3,2.4-1.8c1.5-1,3.2-1.8,4.9-2.5c0.6-0.2,1.2-0.5,1.6-0.7l0.2-0.1L26,28.8z"/>
			<g>
				<g>
					<g>
						<path class="st16" d="M39.1,36.7c-0.5,0.3-0.7,0.4-1.2,0.6c-0.3,0.1-0.5,0.2-0.8,0.3c-0.2,0.1-0.3,0.1-0.5,0.1
							c-0.7,0.2-1.4,0.4-2,0.8c-0.2,0.1-0.4,0.2-0.6,0.3c-1.3,0.8-2.6,2-3.9,3.5l-2.5-1.5l-11-6.7c1.3-1.5,2.6-2.7,3.9-3.5
							c0.2-0.1,0.4-0.2,0.6-0.3c0.7-0.4,1.4-0.6,2-0.8c0.2,0,0.3-0.1,0.5-0.1c0.3-0.1,0.5-0.2,0.8-0.3c0.5-0.2,0.7-0.3,1.2-0.6
							L39.1,36.7z"/>
						<g>
							<path class="st16" d="M30.1,42.3c-1.3,0.1-2.6,0.5-3.9,1.3c-0.2,0.1-0.4,0.2-0.6,0.4c-0.7,0.5-1.4,1-2,1.7
								c-0.2,0.2-0.3,0.3-0.5,0.4c-0.3,0.3-0.6,0.5-0.9,0.7c-0.5,0.4-0.8,0.6-1.3,0.9L7.5,39.5C8,39.2,8.3,39,8.8,38.6
								c0.3-0.2,0.6-0.5,0.9-0.7c0.2-0.1,0.3-0.3,0.5-0.4c0.7-0.6,1.4-1.2,2-1.7c0.2-0.1,0.4-0.3,0.6-0.4c1.3-0.8,2.6-1.2,3.9-1.3
								l11,6.7L30.1,42.3z"/>
						</g>
					</g>
					<polygon class="st17" points="7.5,39.5 7.3,40.3 20.7,48.5 20.9,47.7 					"/>
					<path class="st18" d="M39.4,37.1c-0.9,0.6-1.8,1-2.7,1.2c0,0,0,0-0.1,0s-0.2,0-0.3,0.1c-0.1,0-0.2,0.1-0.3,0.1
						s-0.2,0.1-0.3,0.1c-0.6,0.2-1.2,0.5-1.8,0.9c-0.1,0.1-0.2,0.1-0.3,0.2c-1,0.7-2,1.5-3,2.5L30,42.8l-0.6,0.1c-1,0.2-2,0.5-3,1.1
						c-0.1,0.1-0.2,0.1-0.3,0.2c-0.3,0.2-0.5,0.3-0.8,0.5c-0.6,0.4-1.1,0.9-1.7,1.4c-0.1,0.1-0.2,0.2-0.3,0.3
						c-0.9,0.9-1.8,1.6-2.7,2.2l0.2-0.8c0.5-0.3,0.8-0.5,1.3-0.9c0.3-0.2,0.6-0.5,0.9-0.7c0.2-0.1,0.3-0.3,0.5-0.4
						c0.7-0.6,1.4-1.2,2-1.7c0.2-0.1,0.4-0.3,0.6-0.4c1.3-0.8,2.6-1.2,3.9-1.3c1.3-1.5,2.6-2.7,3.9-3.5c0.2-0.1,0.4-0.2,0.6-0.3
						c0.7-0.4,1.4-0.6,2-0.8c0.2,0,0.3-0.1,0.5-0.1c0.3-0.1,0.5-0.2,0.8-0.3c0.5-0.2,0.7-0.3,1.2-0.6L39.4,37.1z"/>
				</g>
			</g>
			<g>
				<path class="st19" d="M17.8,34.6C17.9,34.6,17.9,34.6,17.8,34.6c1.2-1.4,2.5-2.5,3.7-3.2c0.2-0.1,0.4-0.2,0.5-0.3
					c0.7-0.3,1.3-0.6,2-0.8c0.2,0,0.3-0.1,0.5-0.1c0.3-0.1,0.5-0.2,0.8-0.3c0.4-0.2,0.7-0.3,1.1-0.5c0,0,0,0,0-0.1s0,0-0.1,0
					c-0.4,0.2-0.6,0.3-1,0.5c-0.3,0.1-0.5,0.2-0.8,0.3c-0.2,0.1-0.3,0.1-0.5,0.1c-0.7,0.2-1.3,0.4-2,0.8c-0.2,0.1-0.4,0.2-0.6,0.3
					C20.3,32.1,19,33.2,17.8,34.6C17.8,34.5,17.8,34.6,17.8,34.6L17.8,34.6z"/>
				<path class="st19" d="M25.4,30.6c-0.2,0.1-0.3,0.1-0.5,0.1c-0.7,0.2-1.3,0.4-2,0.8c-0.2,0.1-0.4,0.2-0.6,0.3
					c-1.2,0.7-2.5,1.8-3.7,3.2v0.1l0,0l0,0c1.2-1.4,2.5-2.5,3.7-3.2c0.2-0.1,0.4-0.2,0.6-0.3c0.7-0.4,1.3-0.6,2-0.8
					C25.1,30.8,25.3,30.7,25.4,30.6c0.3,0,0.6-0.1,0.8-0.2c0.4-0.2,0.6-0.3,1-0.5c0,0,0,0,0-0.1c0,0,0,0-0.1,0
					c-0.4,0.2-0.6,0.3-1,0.5C25.9,30.4,25.7,30.5,25.4,30.6z"/>
				<path class="st19" d="M26.2,31.1c-0.2,0.1-0.3,0.1-0.5,0.1c-0.7,0.2-1.3,0.4-2,0.8c-0.2,0.1-0.4,0.2-0.6,0.3
					c-1.2,0.7-2.5,1.8-3.7,3.2v0.1l0,0l0,0c1.2-1.4,2.5-2.5,3.7-3.2c0.2-0.1,0.4-0.2,0.6-0.3c0.7-0.4,1.4-0.6,2-0.8
					C25.9,31.3,26.1,31.2,26.2,31.1c0.3,0,0.6-0.1,0.8-0.2c0.4-0.2,0.6-0.3,1-0.5c0,0,0,0,0-0.1c0,0,0,0-0.1,0
					c-0.4,0.2-0.6,0.3-1,0.5C26.8,30.9,26.5,31,26.2,31.1z"/>
				<path class="st19" d="M27.1,31.5c-0.2,0.1-0.3,0.1-0.5,0.1c-0.7,0.2-1.3,0.4-2,0.8c-0.2,0.1-0.4,0.2-0.6,0.3
					c-1.2,0.7-2.5,1.8-3.7,3.2V36l0,0l0,0c1.2-1.4,2.5-2.5,3.7-3.2c0.2-0.1,0.4-0.2,0.6-0.3c0.7-0.4,1.4-0.6,2-0.8
					C26.7,31.7,26.9,31.7,27.1,31.5c0.3,0,0.6-0.1,0.8-0.2c0.4-0.2,0.6-0.3,1-0.5c0,0,0,0,0-0.1c0,0,0,0-0.1,0
					c-0.4,0.2-0.6,0.3-1,0.5C27.6,31.4,27.3,31.5,27.1,31.5z"/>
				<path class="st19" d="M27.9,32c-0.2,0.1-0.3,0.1-0.5,0.1c-0.7,0.2-1.4,0.4-2,0.8c-0.2,0.1-0.4,0.2-0.6,0.3
					c-1.2,0.7-2.5,1.9-3.7,3.2v0.1l0,0l0,0c1.2-1.4,2.5-2.5,3.7-3.2c0.2-0.1,0.4-0.2,0.6-0.3c0.7-0.4,1.4-0.6,2-0.8
					C27.6,32.2,27.8,32.2,27.9,32c0.3,0,0.6-0.1,0.8-0.2c0.4-0.2,0.6-0.3,1-0.5c0,0,0,0,0-0.1c0,0,0,0-0.1,0c-0.4,0.2-0.6,0.3-1,0.5
					C28.4,31.8,28.1,31.9,27.9,32z"/>
				<path class="st19" d="M28.7,32.5c-0.2,0.1-0.3,0.1-0.5,0.1c-0.7,0.2-1.4,0.4-2,0.8c-0.2,0.1-0.4,0.2-0.6,0.3
					c-1.2,0.7-2.5,1.9-3.7,3.2V37l0,0l0,0c1.2-1.4,2.5-2.5,3.7-3.2c0.2-0.1,0.4-0.2,0.6-0.3c0.7-0.4,1.4-0.6,2-0.8
					C28.4,32.7,28.6,32.6,28.7,32.5c0.3,0,0.6-0.1,0.8-0.2c0.4-0.2,0.6-0.3,1-0.5c0,0,0,0,0-0.1c0,0,0,0-0.1,0
					c-0.3,0.2-0.6,0.3-0.9,0.5C29.2,32.3,29,32.4,28.7,32.5z"/>
				<path class="st19" d="M29.6,33c-0.2,0.1-0.3,0.1-0.5,0.1c-0.7,0.2-1.4,0.4-2.1,0.8c-0.2,0.1-0.4,0.2-0.6,0.3
					c-1.2,0.7-2.5,1.9-3.8,3.3v0.1l0,0l0,0c1.2-1.4,2.5-2.5,3.7-3.2c0.2-0.1,0.4-0.2,0.6-0.3c0.7-0.4,1.4-0.6,2-0.8
					C29.2,33.2,29.4,33.1,29.6,33c0.3,0,0.6-0.1,0.8-0.2c0.4-0.2,0.6-0.3,0.9-0.5c0,0,0,0,0-0.1c0,0,0,0-0.1,0
					c-0.3,0.2-0.5,0.3-0.9,0.4C30.1,32.8,29.8,32.9,29.6,33z"/>
				<path class="st19" d="M30.4,33.5c-0.2,0.1-0.3,0.1-0.5,0.1c-0.7,0.2-1.4,0.4-2.1,0.8c-0.2,0.1-0.4,0.2-0.6,0.3
					c-1.2,0.7-2.5,1.9-3.8,3.3v0.1l0,0l0,0c1.2-1.4,2.5-2.5,3.7-3.2c0.2-0.1,0.4-0.2,0.6-0.3c0.7-0.4,1.4-0.6,2-0.8
					C30.1,33.7,30.2,33.6,30.4,33.5c0.3,0,0.5-0.1,0.8-0.2c0.4-0.2,0.6-0.3,0.9-0.4c0,0,0,0,0-0.1c0,0,0,0-0.1,0
					c-0.3,0.2-0.5,0.3-0.9,0.4C30.9,33.3,30.6,33.4,30.4,33.5z"/>
				<path class="st19" d="M31.2,33.9C31,34,30.9,34,30.7,34.1c-0.7,0.2-1.4,0.4-2.1,0.8c-0.2,0.1-0.4,0.2-0.6,0.3
					c-1.2,0.7-2.5,1.9-3.8,3.3v0.1l0,0l0,0c1.2-1.4,2.5-2.5,3.8-3.3c0.2-0.1,0.4-0.2,0.6-0.3c0.7-0.4,1.4-0.6,2-0.8
					C30.9,34.1,31.1,34.1,31.2,33.9c0.3,0,0.5-0.1,0.8-0.2c0.4-0.2,0.6-0.2,0.9-0.4c0,0,0,0,0-0.1c0,0,0,0-0.1,0
					c-0.3,0.2-0.5,0.3-0.9,0.4C31.7,33.8,31.5,33.9,31.2,33.9z"/>
				<path class="st19" d="M32,34.4c-0.2,0.1-0.3,0.1-0.5,0.1c-0.7,0.2-1.4,0.4-2.1,0.8c-0.2,0.1-0.4,0.2-0.6,0.3
					c-1.2,0.7-2.6,1.9-3.8,3.3V39l0,0l0,0c1.2-1.4,2.5-2.5,3.8-3.3c0.2-0.1,0.4-0.2,0.6-0.3c0.7-0.4,1.4-0.6,2-0.8
					C31.7,34.6,31.9,34.6,32,34.4c0.3,0,0.5-0.1,0.8-0.2c0.4-0.2,0.6-0.2,0.9-0.4c0,0,0,0,0-0.1c0,0,0,0-0.1,0
					c-0.3,0.2-0.5,0.3-0.9,0.4C32.6,34.2,32.3,34.3,32,34.4z"/>
				<path class="st19" d="M32.9,34.9C32.7,35,32.6,35,32.4,35c-0.7,0.2-1.4,0.4-2.1,0.8c-0.2,0.1-0.4,0.2-0.6,0.3
					c-1.2,0.8-2.6,1.9-3.8,3.3v0.1l0,0l0,0c1.2-1.4,2.5-2.5,3.8-3.3c0.2-0.1,0.4-0.2,0.6-0.3c0.7-0.4,1.4-0.6,2.1-0.8
					C32.6,35.1,32.7,35,32.9,34.9c0.3,0,0.5-0.1,0.8-0.2c0.3-0.1,0.6-0.2,0.9-0.4c0,0,0,0,0-0.1c0,0,0,0-0.1,0
					c-0.3,0.2-0.5,0.3-0.8,0.4C33.4,34.7,33.1,34.8,32.9,34.9z"/>
				<path class="st19" d="M33.7,35.4c-0.2,0.1-0.3,0.1-0.5,0.1c-0.7,0.2-1.4,0.4-2.1,0.8c-0.2,0.1-0.4,0.2-0.6,0.3
					c-1.2,0.8-2.6,1.9-3.8,3.3V40l0,0l0,0c1.2-1.4,2.6-2.5,3.8-3.3c0.2-0.1,0.4-0.2,0.6-0.3c0.7-0.4,1.4-0.6,2.1-0.8
					C33.4,35.6,33.6,35.5,33.7,35.4c0.3,0,0.5-0.1,0.8-0.2c0.3-0.1,0.5-0.2,0.8-0.4c0,0,0,0,0-0.1c0,0,0,0-0.1,0
					c-0.3,0.2-0.5,0.3-0.8,0.4C34.2,35.2,34,35.3,33.7,35.4z"/>
				<path class="st19" d="M34.5,35.8c-0.2,0.1-0.3,0.1-0.5,0.1c-0.7,0.2-1.4,0.4-2.1,0.8c-0.2,0.1-0.4,0.2-0.6,0.3
					c-1.3,0.8-2.6,1.9-3.8,3.3v0.1l0,0l0,0c1.2-1.4,2.6-2.6,3.8-3.3c0.2-0.1,0.4-0.2,0.6-0.3c0.7-0.4,1.4-0.6,2.1-0.8
					C34.2,36,34.4,36,34.5,35.8c0.3,0,0.5-0.1,0.8-0.2c0.3-0.1,0.5-0.2,0.8-0.4c0,0,0,0,0-0.1c0,0,0,0-0.1,0
					c-0.3,0.2-0.5,0.2-0.8,0.4C35,35.7,34.8,35.8,34.5,35.8z"/>
				<path class="st19" d="M35.4,36.3c-0.2,0.1-0.3,0.1-0.5,0.1c-0.7,0.2-1.4,0.4-2.1,0.8c-0.2,0.1-0.4,0.2-0.6,0.3
					c-1.3,0.8-2.6,1.9-3.8,3.3v0.1l0,0l0,0c1.3-1.4,2.6-2.6,3.8-3.3c0.2-0.1,0.4-0.2,0.6-0.3c0.7-0.4,1.4-0.6,2.1-0.8
					C35.1,36.5,35.2,36.5,35.4,36.3c0.3,0,0.5-0.1,0.8-0.2c0.3-0.1,0.5-0.2,0.8-0.4c0,0,0,0,0-0.1c0,0,0,0-0.1,0
					c-0.2,0.1-0.4,0.2-0.8,0.4C35.9,36.2,35.6,36.2,35.4,36.3z"/>
				<path class="st19" d="M37.7,36.2c-0.3,0.1-0.5,0.2-0.8,0.4c-0.3,0.1-0.5,0.2-0.8,0.3C35.9,37,35.8,37,35.6,37
					c-0.7,0.2-1.4,0.4-2.1,0.8c-0.2,0.1-0.4,0.2-0.6,0.3c-1.3,0.8-2.6,1.9-3.9,3.3v0.1l0,0l0,0c1.3-1.4,2.6-2.6,3.8-3.3
					c0.2-0.1,0.4-0.2,0.6-0.3c0.7-0.4,1.4-0.6,2.1-0.8c0.2,0,0.3-0.1,0.5-0.1c0.2-0.1,0.5-0.2,0.8-0.3
					C37.3,36.5,37.5,36.4,37.7,36.2C37.8,36.3,37.8,36.2,37.7,36.2C37.8,36.2,37.7,36.2,37.7,36.2z"/>
				<path class="st19" d="M10.6,38.6c0.2-0.1,0.3-0.3,0.5-0.4c0.7-0.6,1.3-1.2,2-1.7c0.2-0.1,0.4-0.2,0.6-0.4
					c1.2-0.7,2.5-1.2,3.7-1.3c0,0,0,0,0-0.1c0,0,0,0-0.1,0c-1.2,0.1-2.5,0.5-3.7,1.3c-0.2,0.1-0.4,0.2-0.6,0.4c-0.7,0.5-1.4,1-2,1.7
					C10.9,38.3,10.7,38.4,10.6,38.6c-0.4,0.2-0.7,0.4-0.9,0.7c-0.4,0.3-0.7,0.5-1,0.7c0,0,0,0,0,0.1l0,0l0,0c0.3-0.2,0.6-0.4,1-0.7
					S10.3,38.9,10.6,38.6z"/>
				<path class="st19" d="M11.5,39.1c0.2-0.1,0.3-0.3,0.5-0.4c0.7-0.6,1.3-1.2,2-1.7c0.2-0.1,0.4-0.2,0.6-0.4
					c1.2-0.7,2.5-1.2,3.7-1.2c0,0,0,0,0-0.1c0,0,0-0.1-0.1,0c-1.2,0.1-2.5,0.5-3.7,1.3c-0.2,0.1-0.4,0.2-0.6,0.4
					c-0.7,0.5-1.4,1-2,1.7C11.7,38.8,11.6,38.9,11.5,39.1c-0.4,0.2-0.7,0.4-0.9,0.7c-0.4,0.3-0.7,0.5-1,0.7c0,0,0,0,0,0.1l0,0l0,0
					c0.3-0.2,0.6-0.4,1-0.7C10.9,39.6,11.2,39.4,11.5,39.1z"/>
				<path class="st19" d="M12.3,39.6c0.2-0.1,0.3-0.3,0.5-0.4c0.7-0.6,1.3-1.2,2-1.7c0.2-0.1,0.4-0.3,0.6-0.4
					c1.2-0.7,2.4-1.2,3.6-1.2c0,0,0,0,0-0.1s0,0-0.1,0c-1.2,0.1-2.5,0.5-3.7,1.3c-0.2,0.1-0.4,0.2-0.6,0.4c-0.7,0.5-1.4,1-2,1.7
					C12.5,39.2,12.4,39.4,12.3,39.6c-0.4,0.2-0.7,0.4-0.9,0.7c-0.4,0.3-0.7,0.5-1,0.7c0,0,0,0,0,0.1l0,0l0,0c0.3-0.2,0.6-0.4,1-0.7
					C11.7,40.1,12,39.9,12.3,39.6z"/>
				<path class="st19" d="M13.1,40.1c0.2-0.1,0.3-0.3,0.5-0.4c0.7-0.6,1.3-1.2,2-1.7c0.2-0.1,0.4-0.3,0.6-0.4
					c1.2-0.7,2.4-1.1,3.6-1.2c0,0,0,0,0-0.1c0,0,0,0-0.1,0c-1.2,0.1-2.4,0.5-3.6,1.3c-0.2,0.1-0.4,0.2-0.6,0.4c-0.7,0.5-1.4,1-2,1.7
					C13.3,39.7,13.2,39.9,13.1,40.1c-0.4,0.2-0.6,0.4-0.9,0.7c-0.4,0.3-0.7,0.5-1,0.7c0,0,0,0,0,0.1l0,0l0,0c0.3-0.2,0.6-0.4,1-0.7
					C12.5,40.6,12.8,40.4,13.1,40.1z"/>
				<path class="st19" d="M13.9,40.6c0.2-0.1,0.3-0.3,0.5-0.4c0.7-0.6,1.3-1.2,2-1.7c0.2-0.1,0.4-0.3,0.6-0.4
					c1.2-0.7,2.4-1.1,3.6-1.2c0,0,0,0,0-0.1c0,0,0,0-0.1,0c-1.2,0.1-2.4,0.5-3.6,1.3c-0.2,0.1-0.4,0.2-0.6,0.4c-0.7,0.5-1.4,1-2,1.7
					C14.2,40.2,14,40.4,13.9,40.6c-0.4,0.2-0.6,0.4-0.9,0.7c-0.4,0.3-0.7,0.5-1,0.7c0,0,0,0,0,0.1l0,0l0,0c0.3-0.2,0.6-0.4,1-0.7
					C13.3,41.1,13.6,40.8,13.9,40.6z"/>
				<path class="st19" d="M14.7,41.1c0.2-0.1,0.3-0.3,0.5-0.4c0.7-0.6,1.3-1.2,2-1.7c0.2-0.1,0.4-0.3,0.6-0.4
					c1.2-0.7,2.4-1.1,3.5-1.2c0,0,0,0,0-0.1c0,0,0,0-0.1,0c-1.2,0.1-2.4,0.6-3.6,1.3c-0.2,0.1-0.4,0.2-0.6,0.4c-0.7,0.5-1.4,1-2,1.7
					C15,40.7,14.8,40.8,14.7,41.1c-0.4,0.2-0.6,0.4-0.9,0.7c-0.4,0.3-0.7,0.5-1,0.7c0,0,0,0,0,0.1l0,0l0,0c0.3-0.2,0.6-0.4,1-0.7
					S14.4,41.3,14.7,41.1z"/>
				<path class="st19" d="M15.6,41.5c0.2-0.1,0.3-0.3,0.5-0.4c0.7-0.6,1.3-1.2,2-1.7c0.2-0.1,0.4-0.3,0.6-0.4
					c1.1-0.7,2.4-1.1,3.5-1.2c0,0,0,0,0-0.1s0,0-0.1,0c-1.2,0.1-2.4,0.6-3.5,1.3c-0.2,0.1-0.4,0.2-0.6,0.4c-0.7,0.5-1.4,1-2,1.7
					C15.8,41.2,15.6,41.3,15.6,41.5c-0.4,0.2-0.6,0.4-0.9,0.7c-0.4,0.3-0.7,0.5-1,0.7c0,0,0,0,0,0.1l0,0l0,0c0.3-0.2,0.6-0.4,1-0.7
					C15,42.1,15.3,41.8,15.6,41.5z"/>
				<path class="st19" d="M16.4,42c0.2-0.1,0.3-0.3,0.5-0.4c0.7-0.6,1.3-1.2,2-1.7c0.2-0.1,0.4-0.3,0.6-0.4c1.1-0.7,2.3-1.1,3.5-1.2
					c0,0,0,0,0-0.1s0,0-0.1,0c-1.2,0.1-2.4,0.6-3.5,1.3c-0.2,0.1-0.4,0.2-0.6,0.4c-0.7,0.5-1.4,1-2.1,1.7
					C16.6,41.7,16.5,41.8,16.4,42c-0.4,0.2-0.6,0.4-0.9,0.7c-0.4,0.3-0.7,0.5-1,0.7c0,0,0,0,0,0.1l0,0l0,0c0.3-0.2,0.6-0.4,1.1-0.7
					C15.8,42.5,16.1,42.3,16.4,42z"/>
				<path class="st19" d="M17.2,42.5c0.2-0.1,0.3-0.3,0.5-0.4c0.7-0.6,1.4-1.2,2-1.7c0.2-0.1,0.4-0.3,0.6-0.4
					c1.1-0.7,2.3-1.1,3.4-1.2c0,0,0,0,0-0.1s0,0-0.1,0c-1.1,0.1-2.3,0.6-3.5,1.3c-0.2,0.1-0.4,0.2-0.6,0.4c-0.7,0.5-1.4,1-2.1,1.7
					C17.4,42.2,17.3,42.3,17.2,42.5c-0.4,0.2-0.6,0.4-0.9,0.6c-0.4,0.3-0.7,0.5-1.1,0.7c0,0,0,0,0,0.1l0,0l0,0
					c0.3-0.2,0.6-0.4,1.1-0.8C16.6,43,16.9,42.8,17.2,42.5z"/>
				<path class="st19" d="M18,43c0.2-0.1,0.3-0.3,0.5-0.4c0.7-0.6,1.4-1.2,2-1.7c0.2-0.1,0.4-0.3,0.6-0.4c1.1-0.7,2.3-1.1,3.4-1.2
					c0,0,0,0,0-0.1s0,0-0.1,0c-1.1,0.1-2.3,0.6-3.5,1.3c-0.2,0.1-0.4,0.2-0.6,0.4c-0.7,0.5-1.4,1.1-2.1,1.7
					C18.3,42.6,18.1,42.8,18,43c-0.4,0.2-0.6,0.4-0.9,0.6c-0.4,0.3-0.7,0.6-1.1,0.8c0,0,0,0,0,0.1l0,0l0,0c0.3-0.2,0.7-0.4,1.1-0.8
					C17.4,43.5,17.7,43.3,18,43z"/>
				<path class="st19" d="M18.8,43.5c0.2-0.1,0.3-0.3,0.5-0.4c0.7-0.6,1.4-1.2,2-1.7c0.2-0.1,0.4-0.3,0.6-0.4
					c1.1-0.7,2.3-1.1,3.4-1.2c0,0,0,0,0-0.1c0,0,0,0-0.1,0c-1.1,0.1-2.3,0.6-3.4,1.3c-0.2,0.1-0.4,0.2-0.6,0.4
					c-0.7,0.5-1.4,1.1-2.1,1.7C19.1,43.1,18.9,43.3,18.8,43.5c-0.4,0.2-0.6,0.4-0.9,0.6c-0.4,0.3-0.7,0.6-1.1,0.8c0,0,0,0,0,0.1l0,0
					l0,0c0.3-0.2,0.7-0.4,1.1-0.8C18.3,44,18.5,43.7,18.8,43.5z"/>
				<path class="st19" d="M19.6,44c0.2-0.1,0.3-0.3,0.5-0.4c0.7-0.6,1.4-1.2,2.1-1.7c0.2-0.1,0.4-0.3,0.6-0.4
					c1.1-0.7,2.3-1.1,3.4-1.2c0,0,0,0,0-0.1c0,0,0,0-0.1,0c-1.1,0.2-2.3,0.6-3.4,1.3c-0.2,0.1-0.4,0.2-0.6,0.4
					c-0.7,0.5-1.4,1.1-2.1,1.7C19.9,43.6,19.7,43.8,19.6,44c-0.4,0.2-0.6,0.4-0.9,0.6c-0.4,0.3-0.8,0.6-1.1,0.8c0,0,0,0,0,0.1l0,0
					l0,0c0.3-0.2,0.7-0.4,1.1-0.8C19.1,44.5,19.4,44.2,19.6,44z"/>
				<path class="st19" d="M20.5,44.5c0.2-0.1,0.3-0.3,0.5-0.4c0.7-0.6,1.4-1.2,2.1-1.7c0.2-0.1,0.4-0.3,0.6-0.4
					c1.1-0.7,2.2-1.1,3.3-1.2c0,0,0,0,0-0.1c0,0,0,0-0.1,0c-1.1,0.2-2.3,0.6-3.4,1.3c-0.2,0.1-0.4,0.2-0.6,0.4
					c-0.7,0.5-1.4,1.1-2.1,1.7C20.7,44.1,20.5,44.2,20.5,44.5c-0.4,0.2-0.6,0.4-0.9,0.6c-0.4,0.3-0.8,0.6-1.1,0.8c0,0,0,0,0,0.1l0,0
					l0,0c0.3-0.2,0.7-0.4,1.1-0.8C19.9,45,20.2,44.7,20.5,44.5z"/>
				<path class="st19" d="M21.3,44.9c0.2-0.1,0.3-0.3,0.5-0.4c0.7-0.7,1.4-1.2,2.1-1.7c0.2-0.1,0.4-0.3,0.6-0.4
					c1.1-0.6,2.2-1.1,3.3-1.2c0,0,0,0,0-0.1c0,0,0,0-0.1,0c-1.1,0.2-2.3,0.6-3.3,1.3c-0.2,0.1-0.4,0.2-0.6,0.4
					c-0.7,0.5-1.4,1.1-2.1,1.7C21.5,44.6,21.4,44.7,21.3,44.9c-0.4,0.2-0.6,0.4-0.9,0.6c-0.4,0.3-0.8,0.6-1.1,0.8c0,0,0,0,0,0.1l0,0
					l0,0c0.4-0.2,0.7-0.4,1.1-0.8C20.7,45.4,21,45.2,21.3,44.9z"/>
				<path class="st19" d="M25.2,42.8c-0.2,0.1-0.4,0.2-0.6,0.4c-0.7,0.5-1.4,1.1-2.1,1.7c-0.2,0.1-0.3,0.3-0.5,0.4
					c-0.3,0.3-0.6,0.5-0.9,0.7c-0.4,0.3-0.8,0.6-1.1,0.8c0,0,0,0,0,0.1l0,0l0,0c0.4-0.2,0.7-0.4,1.1-0.8c0.3-0.2,0.6-0.5,0.9-0.7
					c0.2-0.1,0.3-0.3,0.5-0.4c0.7-0.7,1.4-1.2,2.1-1.7C24.8,43.2,25,43,25.2,42.8c1.1-0.6,2.2-1,3.3-1.2c0,0,0,0,0-0.1
					c0,0,0,0-0.1,0C27.4,41.7,26.2,42.2,25.2,42.8z"/>
			</g>
		</g>
		<g>
			<g>
				<g>
					<g>
						<g class="st20">
							<g>
								<path class="st21" d="M29.1,41.9l-7.9-4.6l-0.1-0.1L29.1,41.9L29.1,41.9z"/>
							</g>
							<g>
								<path class="st22" d="M29.2,41.6c-0.1,0.1-0.1,0.1-0.1,0.2l-7.9-4.6l0.1-0.2L29.2,41.6z"/>
							</g>
							<g>
								<path class="st23" d="M29.4,41.5h-0.1c0,0-0.1,0-0.1,0.1l-8-4.6l0.2-0.1L29.4,41.5z"/>
							</g>
						</g>
					</g>
					<g>
						<polygon class="st24" points="30.3,42.2 30.3,42.3 30.3,42.3 30.3,42.3 30.2,42.3 30.3,42.3 						"/>
					</g>
					<path d="M30.3,42.2L30,42l0,0c0,0,0,0-0.1,0l-0.1,0.1l0,0L30.3,42.2C30.3,42.3,30.3,42.3,30.3,42.2
						C30.3,42.3,30.3,42.3,30.3,42.2z"/>
					<path class="st25" d="M21.7,37h-0.1l-0.1,0.1c0,0.1-0.1,0.1-0.1,0.2v0.1L21,37.1c0,0-0.1,0-0.1-0.1s0-0.1,0.1-0.2
						c0-0.1,0.1-0.1,0.1-0.1h0.1l0,0L21.7,37z"/>
					<path class="st26" d="M29.4,41.5L29.4,41.5L29.4,41.5z"/>
				</g>
				<path class="st27" d="M29.4,41.5L29.4,41.5L29.4,41.5c-0.1,0-0.2,0-0.2,0s0,0,0,0.1l0,0c0,0-0.1,0.1-0.1,0.2l0,0v0.1l0,0
					l0.8,0.3l0,0c0,0,0-0.1,0.1-0.1c0,0,0,0,0.1,0L29.4,41.5z"/>
			</g>
			
				<linearGradient id="SVGID_1_" gradientUnits="userSpaceOnUse" x1="21.7732" y1="2543.1643" x2="21.5925" y2="2543.4897" gradientTransform="matrix(1 0 0 1 0 -2506)">
				<stop  offset="0" style="stop-color:#78ACED"/>
				<stop  offset="1" style="stop-color:#4F7BB3"/>
			</linearGradient>
			<path class="st28" d="M22.1,37.3L22.1,37.3L22.1,37.3L21.7,37l0,0l0,0h-0.1l0,0h-0.1c-0.1,0-0.1,0.1-0.1,0.1
				c0,0.1-0.1,0.1-0.1,0.2c0,0,0,0.1,0.1,0.1h0.1l0,0l0,0l0.3,0.2l0,0l0,0l0.1,0.1l0,0l0,0l0,0c0,0,0,0,0-0.1l0,0v-0.1l0,0l0.1-0.1
				l0,0C22,37.3,22,37.2,22.1,37.3L22.1,37.3L22.1,37.3L22.1,37.3L22.1,37.3z"/>
		</g>
	</g>
</g>
<radialGradient id="SVGID_00000044148988866749888950000010718237460646396863_" cx="-867.986" cy="4823.6675" r="15.9016" gradientTransform="matrix(1.5353 0 0 0.4819 1357.619 -2283.0254)" gradientUnits="userSpaceOnUse">
	<stop  offset="0.1206" style="stop-color:#B4BCC1"/>
	<stop  offset="0.94" style="stop-color:#ECEEEF;stop-opacity:0"/>
</radialGradient>
<ellipse style="fill:url(#SVGID_00000044148988866749888950000010718237460646396863_);" cx="25" cy="41.5" rx="24.4" ry="7.7"/>
<g id="Trumpet">
	<g>
		<path class="st30" d="M14.288,28.152c-0.239,0.327-0.256,0.724-0.034,0.886c0.222,0.16,0.594,0.024,0.835-0.303
			c0.239-0.327,0.254-0.724,0.034-0.886S14.529,27.823,14.288,28.152z"/>
	</g>
	
		<linearGradient id="SVGID_00000031183586521439753390000000197454994959000487_" gradientUnits="userSpaceOnUse" x1="-1420.0217" y1="487.8676" x2="-1417.9023" y2="477.5745" gradientTransform="matrix(1 0 0 1 1443.5667 -448)">
		<stop  offset="0" style="stop-color:#C9A339"/>
		<stop  offset="1" style="stop-color:#EABC4B"/>
	</linearGradient>
	<path style="fill:url(#SVGID_00000031183586521439753390000000197454994959000487_);" d="M23.461,36.934
		c0.226,0,0.414-0.252,0.47-0.486c0.057-0.208,0.01-0.378-0.122-0.453l-2.295-1.243c-0.02-0.011-2.108-1.138-2.488-1.478
		c-0.408-0.344-0.775-0.792-1.063-1.294c-0.308-0.562-0.464-1.079-0.466-1.54c-0.004-0.395,0.147-0.835,0.585-0.88
		c0.049-0.007,0.098-0.009,0.147-0.009c0.393,0,0.818,0.228,1.221,0.474l4.759,2.814c4.642,2.681,6.324,5.85,6.333,6.326
		c0,0.041,0.031,0.079,0.07,0.088c0.009,0.002,0.016,0.002,0.024,0.002c0.032,0,0.064-0.017,0.081-0.047l2.818-4.855
		c0.024-0.043,0.011-0.1-0.032-0.126c-0.015-0.009-0.032-0.013-0.049-0.013c-0.03,0-0.06,0.013-0.079,0.041
		c-0.077,0.118-0.489,0.297-1.307,0.297c-1.114,0-3.551-0.331-7.381-2.541l-4.825-2.72c-0.436-0.256-0.978-0.574-1.621-0.574
		c-0.09,0-0.184,0.008-0.278,0.021c-0.406,0.052-0.801,0.304-1.004,0.641c-0.188,0.294-0.28,0.642-0.28,1.065
		c0.009,0.622,0.19,1.239,0.568,1.939c0.338,0.598,0.758,1.111,1.245,1.527c0.536,0.459,2.505,1.569,2.586,1.614l2.227,1.367
		C23.354,36.919,23.406,36.934,23.461,36.934L23.461,36.934z"/>
	<path class="st32" d="M29.941,38.907c-0.023,1.908,1.292,2.711,2.938,1.793s3-3.207,3.023-5.114
		c0.023-1.908-1.292-2.711-2.938-1.793C31.32,34.711,29.966,37,29.941,38.907z"/>
	<path class="st33" d="M31.138,38.241c-0.015,1.142,0.774,1.623,1.759,1.074c0.985-0.549,1.796-1.92,1.809-3.062
		c0.015-1.142-0.773-1.623-1.759-1.074C31.963,35.728,31.153,37.1,31.138,38.241z"/>
	<path class="st34" d="M22.705,36.241c0.135,0.079,0.18,0.251,0.103,0.386c-0.053,0.09-0.147,0.141-0.245,0.141
		c-0.047,0-0.096-0.012-0.141-0.038l-2.095-1.209c-0.606-0.35-0.753-0.963-0.54-1.33c0.169-0.291,0.508-0.365,0.822-0.184
		l2.095,1.209c0.135,0.079,0.18,0.251,0.103,0.386c-0.079,0.135-0.249,0.182-0.386,0.103l-2.095-1.209
		c-0.045-0.018-0.075,0.019-0.066,0.1c0.008,0.077,0.062,0.272,0.348,0.438L22.705,36.241z"/>
	<g>
		<g id="Axonometric_Cylinder_00000094576856590804593120000009909439506919229865_">
			<path id="Cylinder_face_00000152979988428579478750000015241699023839334535_" class="st34" d="M22.784,31.483
				c-0.241-0.139-0.63-0.139-0.871,0s-0.241,0.365,0,0.504c0.241,0.139,0.63,0.139,0.871,0S23.025,31.622,22.784,31.483z"/>
			
				<ellipse id="Cylinder_face_00000038373185375784248130000003529482391561370778_" class="st33" cx="22.348" cy="31.735" rx="0.423" ry="0.245"/>
			
				<linearGradient id="Cylinder_body_00000087375423257056507920000017128410442822496144_" gradientUnits="userSpaceOnUse" x1="-1422.1539" y1="482.5991" x2="-1420.5065" y2="482.5991" gradientTransform="matrix(1 0 0 1 1443.5667 -448)">
				<stop  offset="0" style="stop-color:#C9A339"/>
				<stop  offset="1" style="stop-color:#EABC4B"/>
			</linearGradient>
			
				<path id="Cylinder_body_00000054956562333473250940000011739705083533771449_" style="fill:url(#Cylinder_body_00000087375423257056507920000017128410442822496144_);" d="
				M22.784,31.987c-0.241,0.139-0.63,0.139-0.871,0c-0.119-0.067-0.179-0.158-0.181-0.248v5.376c0.002,0.09,0.063,0.178,0.181,0.248
				c0.241,0.139,0.63,0.139,0.871,0c0.123-0.072,0.183-0.164,0.181-0.256v-5.376C22.965,31.824,22.905,31.918,22.784,31.987z"/>
		</g>
		<g>
			
				<linearGradient id="Cylinder_body_00000177444382853084409060000012809597441136246966_" gradientUnits="userSpaceOnUse" x1="-1421.5143" y1="479.5399" x2="-1420.9896" y2="479.5399" gradientTransform="matrix(1 0 0 1 1443.5667 -448)">
				<stop  offset="0" style="stop-color:#C9A339"/>
				<stop  offset="1" style="stop-color:#EABC4B"/>
			</linearGradient>
			
				<path id="Cylinder_body_00000180331232481138748730000009612179164001102218_" style="fill:url(#Cylinder_body_00000177444382853084409060000012809597441136246966_);" d="
				M22.489,31.335c-0.077,0.045-0.201,0.045-0.278,0c-0.039-0.023-0.058-0.051-0.058-0.079v0.457
				c0.002,0.028,0.02,0.056,0.058,0.079c0.077,0.045,0.201,0.045,0.278,0c0.039-0.023,0.058-0.051,0.058-0.081v-0.457
				C22.547,31.282,22.528,31.312,22.489,31.335z"/>
			<g id="Axonometric_Cylinder_00000107557690806163005070000016854193763664953221_">
				<path id="Cylinder_face_00000054267705557480501150000003795413551103359875_" class="st34" d="M22.613,30.909
					c-0.145-0.085-0.38-0.085-0.525,0c-0.145,0.083-0.145,0.218,0,0.303s0.38,0.085,0.525,0
					C22.758,31.129,22.758,30.992,22.613,30.909z"/>
				
					<linearGradient id="Cylinder_body_00000150070241870781734760000012762724049453207454_" gradientUnits="userSpaceOnUse" x1="-1421.7797" y1="479.2749" x2="-1420.7875" y2="479.2749" gradientTransform="matrix(1 0 0 1 1443.5667 -448)">
					<stop  offset="0" style="stop-color:#C9A339"/>
					<stop  offset="1" style="stop-color:#EABC4B"/>
				</linearGradient>
				
					<path id="Cylinder_body_00000054977574827021037770000006363369524673113738_" style="fill:url(#Cylinder_body_00000150070241870781734760000012762724049453207454_);" d="
					M22.613,31.212c-0.145,0.085-0.38,0.085-0.525,0c-0.071-0.041-0.109-0.095-0.109-0.15v0.216c0.002,0.054,0.038,0.109,0.109,0.15
					c0.145,0.085,0.38,0.085,0.525,0c0.073-0.043,0.109-0.098,0.109-0.154v-0.216C22.722,31.114,22.686,31.171,22.613,31.212z"/>
			</g>
		</g>
	</g>
	<g>
		<g id="Axonometric_Cylinder_00000167383471175854614630000005999672264087673752_">
			<path id="Cylinder_face_00000176732923765616549900000007447471334476300674_" class="st34" d="M23.777,32.057
				c-0.241-0.139-0.63-0.139-0.871,0s-0.241,0.365,0,0.504c0.241,0.139,0.63,0.139,0.871,0S24.018,32.196,23.777,32.057z"/>
			
				<ellipse id="Cylinder_face_00000016033258828328525700000007598890364736686725_" class="st33" cx="23.343" cy="32.309" rx="0.423" ry="0.245"/>
			
				<linearGradient id="Cylinder_body_00000176039429792764607070000011552057939755604617_" gradientUnits="userSpaceOnUse" x1="-1421.1595" y1="483.1751" x2="-1419.5121" y2="483.1751" gradientTransform="matrix(1 0 0 1 1443.5667 -448)">
				<stop  offset="0" style="stop-color:#C9A339"/>
				<stop  offset="1" style="stop-color:#EABC4B"/>
			</linearGradient>
			
				<path id="Cylinder_body_00000180366647909987770790000000315748995602835369_" style="fill:url(#Cylinder_body_00000176039429792764607070000011552057939755604617_);" d="
				M23.777,32.563c-0.241,0.139-0.63,0.139-0.871,0c-0.119-0.067-0.179-0.158-0.181-0.248v5.376c0.002,0.09,0.063,0.178,0.181,0.248
				c0.241,0.139,0.63,0.139,0.871,0c0.123-0.072,0.183-0.164,0.181-0.256v-5.376C23.96,32.399,23.9,32.491,23.777,32.563z"/>
		</g>
		<g>
			
				<linearGradient id="Cylinder_body_00000155830450966119807160000017740448593638574720_" gradientUnits="userSpaceOnUse" x1="-1420.5197" y1="480.1129" x2="-1419.9952" y2="480.1129" gradientTransform="matrix(1 0 0 1 1443.5667 -448)">
				<stop  offset="0" style="stop-color:#C9A339"/>
				<stop  offset="1" style="stop-color:#EABC4B"/>
			</linearGradient>
			
				<path id="Cylinder_body_00000140709217857907676500000016721529498706875264_" style="fill:url(#Cylinder_body_00000155830450966119807160000017740448593638574720_);" d="
				M23.482,31.908c-0.077,0.045-0.201,0.045-0.278,0c-0.039-0.023-0.058-0.051-0.058-0.079v0.457
				c0.002,0.028,0.02,0.056,0.058,0.079c0.077,0.045,0.201,0.045,0.278,0c0.039-0.023,0.058-0.051,0.058-0.081v-0.457
				C23.54,31.857,23.522,31.886,23.482,31.908z"/>
			<g id="Axonometric_Cylinder_00000111912966772190789210000011353502087156889507_">
				<path id="Cylinder_face_00000050621370630635996920000012489361985687064466_" class="st34" d="M23.606,31.483
					c-0.145-0.085-0.38-0.085-0.525,0c-0.145,0.083-0.145,0.22,0,0.303c0.145,0.085,0.38,0.085,0.525,0
					C23.753,31.703,23.753,31.568,23.606,31.483z"/>
				
					<linearGradient id="Cylinder_body_00000005983656204935700600000010712885046868820865_" gradientUnits="userSpaceOnUse" x1="-1420.7853" y1="479.8501" x2="-1419.7928" y2="479.8501" gradientTransform="matrix(1 0 0 1 1443.5667 -448)">
					<stop  offset="0" style="stop-color:#C9A339"/>
					<stop  offset="1" style="stop-color:#EABC4B"/>
				</linearGradient>
				
					<path id="Cylinder_body_00000121250244508042639870000009083386687991471520_" style="fill:url(#Cylinder_body_00000005983656204935700600000010712885046868820865_);" d="
					M23.606,31.788c-0.145,0.085-0.38,0.085-0.525,0c-0.071-0.041-0.109-0.095-0.109-0.15v0.216c0.002,0.054,0.038,0.109,0.109,0.15
					c0.145,0.083,0.38,0.083,0.525,0c0.073-0.043,0.109-0.098,0.109-0.154v-0.216C23.717,31.688,23.68,31.745,23.606,31.788z"/>
			</g>
		</g>
	</g>
	<g>
		<g id="Axonometric_Cylinder_00000062889048777609779530000007490351521460006570_">
			
				<ellipse id="Cylinder_face_00000134247016546068766510000008979059535520139172_" class="st34" cx="24.336" cy="32.884" rx="0.617" ry="0.355"/>
			<path id="Cylinder_face_00000130638850234829103650000009408177731794515637_" class="st33" d="M24.635,32.712
				c-0.165-0.096-0.432-0.096-0.598,0c-0.166,0.094-0.166,0.248,0,0.344c0.165,0.096,0.432,0.096,0.598,0
				C24.801,32.961,24.801,32.807,24.635,32.712z"/>
			
				<linearGradient id="Cylinder_body_00000179634999339677486940000006492199478198546350_" gradientUnits="userSpaceOnUse" x1="-1420.165" y1="483.7491" x2="-1418.5176" y2="483.7491" gradientTransform="matrix(1 0 0 1 1443.5667 -448)">
				<stop  offset="0" style="stop-color:#C9A339"/>
				<stop  offset="1" style="stop-color:#EABC4B"/>
			</linearGradient>
			
				<path id="Cylinder_body_00000007427469979144765320000012547132124858286000_" style="fill:url(#Cylinder_body_00000179634999339677486940000006492199478198546350_);" d="
				M24.772,33.135c-0.241,0.139-0.63,0.139-0.871,0c-0.119-0.067-0.179-0.158-0.181-0.248v5.378c0.002,0.09,0.063,0.178,0.181,0.248
				c0.241,0.139,0.63,0.139,0.871,0c0.123-0.072,0.183-0.164,0.181-0.256v-5.376C24.955,32.973,24.895,33.065,24.772,33.135z"/>
		</g>
		<g>
			
				<linearGradient id="Cylinder_body_00000141416569050037583320000017539025835486583429_" gradientUnits="userSpaceOnUse" x1="-1419.5251" y1="480.6869" x2="-1419.0005" y2="480.6869" gradientTransform="matrix(1 0 0 1 1443.5667 -448)">
				<stop  offset="0" style="stop-color:#C9A339"/>
				<stop  offset="1" style="stop-color:#EABC4B"/>
			</linearGradient>
			
				<path id="Cylinder_body_00000004546132695263846780000001007431735318329760_" style="fill:url(#Cylinder_body_00000141416569050037583320000017539025835486583429_);" d="
				M24.477,32.482c-0.077,0.045-0.201,0.045-0.278,0c-0.039-0.023-0.058-0.051-0.058-0.079v0.457
				c0.002,0.028,0.02,0.056,0.058,0.079c0.077,0.045,0.201,0.045,0.278,0c0.039-0.023,0.058-0.051,0.058-0.081v-0.457
				C24.535,32.431,24.517,32.461,24.477,32.482z"/>
			<g id="Axonometric_Cylinder_00000176037498790921101660000010441399222346851970_">
				<path id="Cylinder_face_00000013874694932767537100000014868656512546149776_" class="st34" d="M24.601,32.058
					c-0.145-0.085-0.38-0.085-0.525,0c-0.145,0.083-0.145,0.218,0,0.303s0.38,0.085,0.525,0
					C24.746,32.277,24.746,32.141,24.601,32.058z"/>
				
					<linearGradient id="Cylinder_body_00000008115144363887665000000011941769222358379656_" gradientUnits="userSpaceOnUse" x1="-1419.7905" y1="480.4239" x2="-1418.7983" y2="480.4239" gradientTransform="matrix(1 0 0 1 1443.5667 -448)">
					<stop  offset="0" style="stop-color:#C9A339"/>
					<stop  offset="1" style="stop-color:#EABC4B"/>
				</linearGradient>
				
					<path id="Cylinder_body_00000177455128129017029090000005527045599481810349_" style="fill:url(#Cylinder_body_00000008115144363887665000000011941769222358379656_);" d="
					M24.601,32.361c-0.145,0.085-0.38,0.085-0.525,0c-0.071-0.041-0.109-0.095-0.109-0.15v0.216c0.002,0.054,0.038,0.109,0.109,0.15
					c0.145,0.085,0.38,0.085,0.525,0c0.073-0.043,0.109-0.098,0.109-0.154v-0.216C24.712,32.262,24.675,32.318,24.601,32.361z"/>
			</g>
		</g>
	</g>
	<path class="st34" d="M28.289,39.293c0.376-0.218,0.585-0.634,0.585-1.168c0-1.055-0.816-2.353-1.856-2.955l-12.055-6.96
		c-0.288-0.168-0.634,0.447-0.352,0.611l12.055,6.959c0.815,0.471,1.503,1.543,1.503,2.344c0,0.194-0.041,0.446-0.233,0.557
		c-0.207,0.121-0.547,0.062-0.918-0.152l-2.088-1.206c-0.29-0.168-0.627,0.453-0.352,0.611l2.088,1.206
		c0.354,0.202,0.702,0.305,1.018,0.305C27.906,39.445,28.113,39.394,28.289,39.293z"/>
</g>
<g id="Eighths">
	<polygon class="st44" points="33.847,28.371 33.847,19.501 33.374,19.324 33.374,28.642 	"/>
	<path class="st44" d="M33.889,27.817c-0.07-0.545-0.804-0.489-1.638,0.124c-0.833,0.614-1.452,1.553-1.381,2.098
		c0.011,0.088,0.041,0.162,0.085,0.219l0.424,0.417L33.889,27.817z"/>
	<polygon class="st44" points="38.785,24.999 38.785,16.13 38.312,15.954 38.312,25.272 	"/>
	<path class="st44" d="M38.828,24.446c-0.07-0.545-0.804-0.489-1.638,0.124c-0.833,0.614-1.452,1.553-1.381,2.098
		c0.011,0.088,0.041,0.162,0.085,0.219l0.424,0.417L38.828,24.446z"/>
	
		<ellipse transform="matrix(0.7168 -0.6972 0.6972 0.7168 -11.1798 31.1881)" class="st45" cx="32.808" cy="29.358" rx="1.951" ry="0.836"/>
	<polygon class="st45" points="34.32,28.371 34.32,19.227 33.847,19.501 33.847,28.642 	"/>
	
		<ellipse transform="matrix(0.7168 -0.6972 0.6972 0.7168 -7.4037 33.6291)" class="st45" cx="37.701" cy="25.93" rx="1.951" ry="0.836"/>
	<polygon class="st45" points="39.214,24.942 39.214,15.8 38.741,16.072 38.741,25.215 	"/>
	<polygon class="st45" points="33.847,20.784 39.214,17.023 39.214,15.739 33.847,19.501 	"/>
	<polygon class="st46" points="39.214,15.739 33.844,19.496 33.374,19.324 38.741,15.566 	"/>
</g>
<g id="Quarter">
	<polygon class="st47" points="13.562,38.681 13.562,28.183 13.002,27.976 13.002,39.005 	"/>
	<path class="st47" d="M13.612,38.026c-0.083-0.645-0.951-0.579-1.939,0.147c-0.988,0.727-1.718,1.839-1.635,2.484
		c0.014,0.105,0.048,0.192,0.101,0.26l0.502,0.494L13.612,38.026z"/>
	
		<ellipse transform="matrix(0.7168 -0.6972 0.6972 0.7168 -24.2931 19.8824)" class="st48" cx="12.332" cy="39.85" rx="2.309" ry="0.99"/>
	<polygon class="st48" points="14.122,38.681 14.122,27.792 13.562,28.183 13.562,39.005 	"/>
	<polygon class="st49" points="14.122,27.792 13.558,28.177 13.002,27.976 13.562,27.588 	"/>
</g>
</svg>
