<svg version="1.1" xmlns="http://www.w3.org/2000/svg" xmlns:xlink="http://www.w3.org/1999/xlink" viewBox="0 0 60 60">
  <path class="grey-fill" d="M20.597,26.649c0.628,0.389,1.323,0.354,1.812-0.126c1.911-1.874,3.792-3.778,5.684-5.671
   c0.709-0.709,1.416-1.419,2.147-2.152c0.047,0.057,0.077,0.098,0.113,0.134c2.499,2.5,5,4.999,7.497,7.5
   c0.406,0.406,0.894,0.615,1.451,0.503c0.572-0.114,1.019-0.456,1.189-1.04c0.176-0.602,0.045-1.148-0.414-1.604
   c-2.94-2.924-5.877-5.85-8.815-8.775c-0.567-0.564-1.543-0.558-2.115,0.017c-2.395,2.408-4.788,4.817-7.182,7.225
   c-0.534,0.537-1.057,1.086-1.61,1.603C19.691,24.885,19.752,26.125,20.597,26.649z"/>
 <path class="grey-fill" d="M39.872,33.266c-0.628-0.389-1.323-0.354-1.812,0.126c-1.911,1.874-3.792,3.778-5.684,5.671
   c-0.709,0.709-1.416,1.419-2.147,2.152c-0.047-0.057-0.077-0.098-0.113-0.134c-2.499-2.5-5-4.999-7.497-7.5
   c-0.406-0.406-0.894-0.615-1.451-0.503c-0.572,0.114-1.018,0.456-1.189,1.04c-0.176,0.602-0.045,1.148,0.414,1.604
   c2.94,2.924,5.877,5.85,8.815,8.775c0.567,0.564,1.543,0.558,2.115-0.017c2.395-2.408,4.788-4.817,7.182-7.225
   c0.534-0.537,1.057-1.086,1.61-1.603C40.778,35.03,40.717,33.789,39.872,33.266z"/>
</svg>
