<?xml version="1.0" encoding="utf-8"?>
<!-- Generator: Adobe Illustrator 24.2.1, SVG Export Plug-In . SVG Version: 6.00 Build 0)  -->
<svg version="1.1" id="Layer_1" xmlns="http://www.w3.org/2000/svg" xmlns:xlink="http://www.w3.org/1999/xlink" x="0px" y="0px"
	 viewBox="0 0 60 15" style="enable-background:new 0 0 60 15;" xml:space="preserve">
<path d="M38.805,2.438c-0.559-0.346-1.177-0.315-1.611,0.112c-1.7,1.667-3.372,3.36-5.055,5.043
	c-0.631,0.631-1.259,1.262-1.909,1.914c-0.042-0.051-0.068-0.087-0.1-0.119c-2.222-2.223-4.447-4.446-6.667-6.67
	c-0.361-0.361-0.795-0.547-1.29-0.447c-0.509,0.101-0.905,0.406-1.057,0.925c-0.157,0.535-0.04,1.021,0.368,1.426
	c2.615,2.6,5.227,5.203,7.839,7.804c0.504,0.502,1.372,0.496,1.881-0.015c2.13-2.142,4.258-4.284,6.387-6.425
	c0.475-0.478,0.94-0.966,1.432-1.426C39.611,4.007,39.557,2.903,38.805,2.438z"/>
</svg>
