<?xml version="1.0" encoding="utf-8"?>
<!-- Generator: Adobe Illustrator 25.4.1, SVG Export Plug-In . SVG Version: 6.00 Build 0)  -->
<svg version="1.1" id="Layer_1" xmlns="http://www.w3.org/2000/svg" xmlns:xlink="http://www.w3.org/1999/xlink" x="0px" y="0px"
	 viewBox="0 0 50 50" style="enable-background:new 0 0 50 50;" xml:space="preserve">
<style type="text/css">
	.st0{fill:#F7F7F7;}
	.st1{fill:#D8D1C7;}
	.st2{fill:#A39C95;}
	.st3{opacity:0.3;}
	.st4{fill:#B4CED6;}
	.st5{fill:#E8F3FF;}
	.st6{opacity:0.5;}
	.st7{fill:#377691;}
	.st8{fill:#65C6E5;}
	.st9{fill:#493226;}
	.st10{fill:#593E2C;}
	.st11{fill:#5A882B;}
	.st12{fill:#8AC641;}
	.st13{fill:#372312;}
</style>
<g>
	<polygon class="st0" points="42.913,39.665 27.504,48.565 6.23,36.276 21.637,27.383 	"/>
	<polygon class="st1" points="37.784,39.291 27.192,45.41 24.272,43.724 34.866,37.602 	"/>
	<polygon class="st1" points="31.946,35.918 21.352,42.037 18.432,40.351 29.026,34.234 	"/>
	<polygon class="st1" points="26.106,32.545 15.513,38.664 12.593,36.98 23.186,30.861 	"/>
</g>
<g>
	<polygon class="st0" points="46.661,34.974 31.255,43.871 9.98,31.585 25.388,22.691 	"/>
	<path class="st2" d="M27.339,29.617c-1.389,0.801-3.631,0.801-5.018,0c-1.388-0.801-1.39-2.098-0.001-2.899
		c1.385-0.799,3.63-0.799,5.016,0C28.723,27.519,28.723,28.821,27.339,29.617z"/>
	<polygon class="st1" points="34.394,30.639 23.8,36.761 20.88,35.072 31.474,28.953 	"/>
	<polygon class="st1" points="40.234,34.012 29.64,40.134 26.72,38.445 37.314,32.326 	"/>
	<polygon class="st1" points="17.316,33.854 13.416,31.604 17.378,29.314 21.281,31.567 	"/>
</g>
<g>
	<path class="st3" d="M10.275,42.923c-1.315-0.762-3.449-0.762-4.77,0c-1.318,0.762-1.318,1.991,0,2.751
		c1.322,0.77,3.455,0.77,4.77,0C11.594,44.914,11.594,43.685,10.275,42.923z"/>
	<g>
		<path class="st4" d="M4.733,44.265v-6.683h6.317v6.683c0,0.468-0.309,0.93-0.926,1.289c-1.231,0.711-3.231,0.711-4.467,0
			C5.039,45.195,4.733,44.733,4.733,44.265z"/>
		<path class="st5" d="M5.657,38.867c1.236,0.722,3.236,0.722,4.467,0c1.235-0.708,1.235-1.863,0-2.574
			c-1.231-0.719-3.231-0.719-4.467,0C4.422,37.004,4.422,38.159,5.657,38.867z"/>
		<path class="st4" d="M9.963,36.384c-1.144-0.663-2.998-0.663-4.145,0c-1.144,0.663-1.144,1.732,0,2.392
			c1.147,0.666,3.001,0.666,4.145,0C11.108,38.116,11.108,37.047,9.963,36.384z"/>
	</g>
	<g class="st6">
		<path class="st7" d="M5.033,43.503v-3.155h5.721v3.155c0,0.422-0.282,0.845-0.839,1.165c-1.116,0.644-2.926,0.644-4.046,0
			C5.31,44.348,5.033,43.925,5.033,43.503z"/>
		<path class="st8" d="M5.868,41.514c1.12,0.65,2.93,0.65,4.046,0c1.116-0.642,1.116-1.687,0-2.331c-1.116-0.65-2.926-0.65-4.046,0
			C4.75,39.827,4.75,40.872,5.868,41.514z"/>
	</g>
</g>
<g>
	<path class="st9" d="M33.16,23.126l0.798,4.832c0.473,2.866,5.688,3.118,6.268,0.112l0.925-4.792L33.16,23.126z"/>
	<path id="Cylinder_face_112_" class="st10" d="M40.212,24.888c1.712-0.958,1.734-2.548,0.048-3.552
		c-1.685-1.004-4.44-1.041-6.152-0.083c-1.712,0.958-1.734,2.548-0.048,3.552C35.746,25.808,38.501,25.846,40.212,24.888z"/>
	<g>
		<g>
			<path class="st11" d="M35.772,15.399c-0.455-0.352-1.675-1.171-3.139-0.767c2.884,0.041,4.526,2.367,3.813,8.66
				c0.327-0.412,0.769-3.633,0.788-4.207C37.284,17.577,37.111,16.435,35.772,15.399z"/>
			<path class="st11" d="M36.421,14.63c0.057,0.011,0.08-0.046,0.117-0.074c0.576-0.431,0.283-0.413,0.614-1.655
				c0.577-2.165,3.026-2.723,2.886-5.466c-0.076,2.463-2.464,3.279-3.228,5.062C36.699,12.752,36.156,14.581,36.421,14.63z"/>
			<path class="st11" d="M43.108,14.033c-0.32-0.184-3.023-0.351-3.147-0.259c-0.234,0.175-0.833,0.436-0.721,0.688
				c0.102,0.229,0.326,0.449,0.479,0.649c0.154,0.201,0.296,0.431,0.476,0.609c0.137,0.136,0.469-0.536,0.655-0.483
				c0.243,0.069,1.927-0.354,3.604,1.802C44.492,16.433,44.304,14.723,43.108,14.033z"/>
		</g>
		<path class="st12" d="M40.208,13.309c-0.583,0.104-1.04,0.538-1.239,1.096c-0.507,1.426-0.875,3.289-1.033,4.162
			c-0.233-2.066-0.58-3.367-1.628-6.379c-0.711-2.044,0.251-4.258,1.243-5.968c0.937-1.616,1.27-2.966,0.564-4.015
			c0.614,1.544-0.427,3.132-1.295,4.477c-0.588,0.911-1.149,2.133-1.3,3.507c-0.042-0.081-0.083-0.161-0.131-0.246
			c-0.576-1.019-1.135-1.513-2.022-3.58c-1.311,2.21-0.376,4.037,0.004,4.611c0.602,0.908,1.848,1.34,2.451,1.949
			c0.009,0.025,0.015,0.051,0.024,0.076c1.472,4.069,0.716,9.14,0.537,10.222c-0.072,0.938,1.965,1.008,1.943-0.005
			c-0.126-1.601-0.211-2.799-0.304-3.795c0.008,0.002,0.014,0.005,0.023,0.008c0.262,0.064,0.129,0.076,0.245-0.09
			c0.376-0.543,2.891-5.357,5.274-4.963C42.787,13.697,41.366,13.102,40.208,13.309z"/>
	</g>
	<path class="st13" d="M41.507,23.07c0.018,0.663-0.412,1.324-1.294,1.817c-1.712,0.958-4.466,0.921-6.152-0.083
		c-0.817-0.487-1.229-1.111-1.246-1.734v1.117c0.017,0.623,0.429,1.248,1.246,1.734c1.685,1.004,4.44,1.041,6.152,0.083
		c0.882-0.493,1.312-1.155,1.294-1.817V23.07z"/>
</g>
</svg>
