<?xml version="1.0" encoding="utf-8"?>
<!-- Generator: Adobe Illustrator 25.4.1, SVG Export Plug-In . SVG Version: 6.00 Build 0)  -->
<svg version="1.1" id="Layer_1" xmlns="http://www.w3.org/2000/svg" xmlns:xlink="http://www.w3.org/1999/xlink" x="0px" y="0px"
	 viewBox="0 0 50 50" style="enable-background:new 0 0 50 50;" xml:space="preserve">
<style type="text/css">
	.st0{opacity:0.12;fill:#292929;enable-background:new    ;}
	.st1{fill:#686868;}
	.st2{fill:#444444;}
	.st3{fill:#2D2D2D;}
	.st4{opacity:0.16;fill:#B7FFFF;enable-background:new    ;}
	.st5{opacity:0.4;}
	.st6{fill:#FFFFFF;}
	.st7{fill:#323232;}
	.st8{fill:#8C8C8C;}
	.st9{fill:#442E3A;}
	.st10{fill:#72BEF7;}
	.st11{fill:#537F14;}
	.st12{fill:#94C144;}
	.st13{fill:#A8D150;}
	.st14{fill:#6B4832;}
	.st15{fill:#7DAF35;}
	.st16{fill:#ADA193;}
	.st17{opacity:0.16;}
	.st18{fill:#B7FFFF;}
</style>
<g>
	<polygon class="st0" points="7.175,45.588 16.368,49.697 41.805,40.267 32.613,36.157 	"/>
	<g>
		<polygon class="st1" points="30.93,1.142 35.043,2.955 35.454,2.789 31.34,0.975 		"/>
		<polygon class="st2" points="35.043,38.596 35.043,2.955 35.454,2.789 35.454,38.407 		"/>
		<polygon class="st3" points="35.043,38.596 35.043,2.955 30.93,1.142 30.93,36.782 		"/>
	</g>
	<g>
		<polygon class="st4" points="35.043,2.955 35.043,28.465 38.615,30.064 39.026,29.875 39.026,4.388 35.454,2.789 		"/>
		<g class="st5">
			<polygon class="st6" points="35.043,2.955 38.615,4.555 39.026,4.388 35.454,2.789 			"/>
			<polygon class="st6" points="38.615,30.064 38.615,4.555 39.026,4.388 39.026,29.875 			"/>
		</g>
	</g>
	<g>
		<polygon class="st1" points="9.664,34.512 17.349,37.948 38.615,30.064 30.93,26.628 		"/>
		<polygon class="st7" points="16.939,48.222 16.939,38.114 39.026,29.875 39.026,39.982 		"/>
	</g>
	<g>
		<polygon class="st1" points="9.664,32.794 17.349,36.23 38.615,28.346 30.93,24.91 		"/>
		<polygon class="st8" points="17.349,36.968 17.349,36.23 38.615,28.346 38.615,29.084 		"/>
		<polygon class="st3" points="17.349,36.968 17.349,36.23 9.664,32.794 9.664,33.532 		"/>
	</g>
	<g>
		<polygon class="st9" points="38.144,31.016 35.925,31.841 35.925,33.434 38.144,32.609 		"/>
		<polygon class="st10" points="36.117,31.943 36.117,33.15 37.223,32.739 37.223,31.532 		"/>
		<path class="st6" d="M37.777,32.157c0.074,0.05,0.094,0.167,0.045,0.261s-0.148,0.131-0.222,0.081
			c-0.074-0.05-0.094-0.167-0.045-0.261C37.604,32.144,37.703,32.107,37.777,32.157z"/>
		<path class="st6" d="M37.777,31.522c0.074,0.05,0.094,0.167,0.045,0.261s-0.148,0.131-0.222,0.081
			c-0.074-0.05-0.094-0.167-0.045-0.261S37.703,31.472,37.777,31.522z"/>
	</g>
	<g>
		<polygon class="st1" points="9.664,24.872 17.349,28.307 38.615,20.423 30.93,16.987 		"/>
		<polygon class="st8" points="17.349,29.045 17.349,28.307 38.615,20.423 38.615,21.161 		"/>
		<polygon class="st3" points="17.349,29.045 17.349,28.307 9.664,24.872 9.664,25.609 		"/>
	</g>
	<g>
		<polygon class="st1" points="9.664,16.949 17.349,20.384 38.615,12.5 30.93,9.064 		"/>
		<polygon class="st8" points="17.349,21.122 17.349,20.384 38.615,12.5 38.615,13.238 		"/>
		<polygon class="st3" points="17.349,21.122 17.349,20.384 9.664,16.949 9.664,17.687 		"/>
	</g>
	<polygon class="st1" points="13.367,36.515 16.939,38.114 17.349,37.948 13.777,36.349 	"/>
	<path class="st11" d="M14.985,31.97c0.031,0.028,0.07,0.046,0.106,0.066c-0.073,0.079-0.17,0.211-0.185,0.402
		c-0.024,0.306,0.32,0.358,0.569,0.476c0.249,0.117,0.357,0.054,0.597-0.053c0.24-0.107,0.47,0,0.512-0.285
		c0.013-0.086,0.001-0.172-0.021-0.251c0.018-0.019,0.036-0.038,0.055-0.054c0.002-0.002,0.003-0.004,0.005-0.006
		c0.074-0.001,0.149-0.023,0.221-0.078c0.08-0.062,0.135-0.15,0.172-0.244c0.028,0.021,0.059,0.04,0.092,0.058
		c-0.006,0.008-0.011,0.017-0.017,0.024c-0.039,0.048-0.064,0.1-0.082,0.154c-0.063-0.01-0.127-0.001-0.17,0.055
		c-0.037,0.05-0.031,0.1-0.035,0.157c-0.008,0.107-0.001,0.188-0.045,0.284c-0.017,0.037-0.048,0.066-0.064,0.104
		c-0.052,0.121-0.033,0.232,0.066,0.322c0.031,0.028,0.07,0.046,0.106,0.066c-0.073,0.079-0.17,0.211-0.185,0.402
		c-0.024,0.306,0.321,0.358,0.569,0.476c0.249,0.117,0.357,0.054,0.597-0.053c0.24-0.108,0.47,0,0.512-0.285
		c0.013-0.086,0.001-0.172-0.021-0.251c0.018-0.019,0.036-0.038,0.055-0.054c0.002-0.002,0.003-0.004,0.005-0.006
		c0.074-0.001,0.149-0.023,0.221-0.078c0.08-0.062,0.135-0.15,0.172-0.244c0.085,0.067,0.203,0.111,0.318,0.156
		c-0.012,0.016-0.024,0.032-0.032,0.051c-0.052,0.121-0.033,0.232,0.066,0.322c0.031,0.028,0.07,0.046,0.106,0.066
		c-0.073,0.079-0.17,0.211-0.185,0.402c-0.024,0.306,0.32,0.358,0.569,0.476c0.249,0.117,0.357,0.054,0.597-0.053
		s0.47,0,0.512-0.285c0.013-0.086,0.001-0.172-0.021-0.251c0.018-0.019,0.036-0.038,0.055-0.054
		c0.002-0.002,0.003-0.004,0.005-0.006c0.074-0.001,0.149-0.023,0.221-0.078c0.08-0.062,0.135-0.15,0.172-0.244
		c0.118,0.092,0.3,0.141,0.449,0.211c0.249,0.117,0.357,0.054,0.597-0.053s0.47,0,0.512-0.285c0.013-0.086,0.001-0.172-0.021-0.251
		c0.018-0.019,0.036-0.038,0.055-0.054c0.002-0.002,0.003-0.004,0.005-0.006c0.074-0.001,0.149-0.023,0.221-0.078
		c0.105-0.08,0.18-0.2,0.207-0.329c0.002-0.011,0.002-0.019,0.004-0.029c0.052,0.218,0.344,0.272,0.562,0.375
		c0.249,0.117,0.357,0.054,0.597-0.053s0.47,0,0.512-0.285c0.013-0.086,0.001-0.172-0.021-0.251
		c0.018-0.019,0.036-0.038,0.055-0.054c0.002-0.002,0.003-0.004,0.005-0.006c0.074-0.001,0.149-0.023,0.221-0.078
		c0.08-0.062,0.135-0.15,0.172-0.244c0.118,0.092,0.3,0.141,0.449,0.211c0.249,0.117,0.357,0.054,0.597-0.053
		c0.24-0.107,0.47,0,0.512-0.285c0.013-0.086,0.001-0.172-0.021-0.251c0.018-0.019,0.036-0.038,0.055-0.054
		c0.002-0.002,0.003-0.004,0.005-0.006c0.074-0.001,0.149-0.023,0.221-0.078c0.096-0.073,0.162-0.181,0.194-0.298
		c0.118,0.081,0.284,0.127,0.423,0.193c0.249,0.117,0.357,0.054,0.597-0.053s0.47,0,0.512-0.285
		c0.013-0.086,0.001-0.172-0.021-0.251c0.018-0.019,0.036-0.038,0.055-0.054c0.002-0.002,0.003-0.004,0.005-0.006
		c0.074-0.001,0.149-0.023,0.221-0.078c0.08-0.062,0.135-0.15,0.172-0.244c0.118,0.092,0.3,0.141,0.449,0.211
		c0.249,0.117,0.357,0.054,0.597-0.053s0.47,0,0.512-0.285c0.013-0.086,0.001-0.172-0.021-0.251
		c0.018-0.019,0.036-0.038,0.055-0.054c0.002-0.002,0.003-0.004,0.005-0.006c0.074-0.001,0.149-0.023,0.221-0.078
		c0.105-0.08,0.18-0.2,0.207-0.329c0.002-0.011,0.002-0.019,0.004-0.029c0.052,0.218,0.344,0.272,0.562,0.375
		c0.249,0.117,0.357,0.054,0.597-0.053c0.24-0.107,0.47,0,0.512-0.285c0.013-0.086,0.001-0.172-0.021-0.251
		c0.018-0.019,0.036-0.038,0.055-0.054c0.002-0.002,0.003-0.004,0.005-0.006c0.074-0.001,0.149-0.023,0.221-0.078
		c0.08-0.062,0.135-0.15,0.172-0.244c0.118,0.092,0.3,0.141,0.449,0.211c0.249,0.117,0.357,0.054,0.597-0.053
		c0.24-0.107,0.47,0,0.512-0.285c0.013-0.086,0.001-0.172-0.021-0.251c0.018-0.019,0.036-0.038,0.055-0.054
		c0.002-0.002,0.003-0.004,0.005-0.006c0.074-0.001,0.149-0.023,0.221-0.078c0.105-0.08,0.18-0.2,0.207-0.329
		c0.025-0.12,0.018-0.197,0.056-0.323c0.019-0.062,0.052-0.104,0.05-0.173c-0.003-0.071-0.032-0.106-0.061-0.166
		c-0.052-0.107-0.119-0.211-0.167-0.322c-0.044-0.099-0.085-0.17-0.197-0.2c-0.088-0.024-0.168-0.007-0.232,0.034
		c-0.063-0.144-0.23-0.257-0.375-0.256c-0.101,0.001-0.191,0.034-0.295,0.031c-0.073-0.002-0.123-0.009-0.192,0.025
		c-0.15,0.074-0.221,0.262-0.322,0.385c-0.039,0.048-0.064,0.1-0.082,0.154c-0.063-0.01-0.127-0.001-0.17,0.055
		c-0.037,0.05-0.031,0.1-0.035,0.157c-0.008,0.107-0.001,0.188-0.045,0.284c-0.012,0.027-0.032,0.052-0.048,0.078
		c-0.041-0.093-0.084-0.16-0.191-0.189c-0.037-0.01-0.072-0.011-0.105-0.008c0.009-0.024,0.024-0.046,0.029-0.071
		c0.025-0.12,0.017-0.197,0.056-0.323c0.019-0.062,0.052-0.104,0.05-0.173c-0.003-0.071-0.032-0.106-0.061-0.166
		c-0.052-0.107-0.119-0.211-0.167-0.322c-0.044-0.099-0.085-0.17-0.197-0.2c-0.088-0.024-0.168-0.007-0.232,0.034
		c-0.063-0.144-0.23-0.257-0.375-0.256c-0.101,0.001-0.191,0.034-0.295,0.031c-0.073-0.002-0.123-0.009-0.192,0.025
		c-0.15,0.074-0.221,0.262-0.322,0.385c-0.039,0.047-0.064,0.1-0.082,0.154c-0.063-0.01-0.127-0.001-0.17,0.055
		c-0.037,0.05-0.031,0.1-0.035,0.157c-0.008,0.107-0.001,0.188-0.045,0.284c-0.012,0.027-0.032,0.052-0.048,0.078
		c-0.032-0.072-0.067-0.128-0.13-0.163c0.001-0.005,0.003-0.008,0.004-0.014c0.013-0.086,0.001-0.172-0.021-0.251
		c0.018-0.019,0.036-0.038,0.055-0.054c0.002-0.002,0.003-0.004,0.005-0.006c0.074-0.001,0.149-0.023,0.221-0.078
		c0.105-0.08,0.18-0.2,0.207-0.329c0.025-0.121,0.018-0.197,0.056-0.323c0.019-0.062,0.052-0.104,0.05-0.173
		c-0.003-0.071-0.032-0.106-0.061-0.166c-0.052-0.107-0.119-0.211-0.167-0.322c-0.044-0.099-0.085-0.17-0.197-0.2
		c-0.088-0.024-0.168-0.007-0.232,0.034c-0.063-0.144-0.23-0.257-0.375-0.256c-0.101,0.001-0.191,0.034-0.295,0.031
		c-0.073-0.002-0.123-0.009-0.192,0.025c-0.15,0.074-0.221,0.262-0.322,0.385c-0.039,0.048-0.064,0.1-0.082,0.154
		c-0.063-0.01-0.127-0.001-0.17,0.055c-0.037,0.05-0.031,0.1-0.035,0.157c-0.008,0.107-0.001,0.188-0.045,0.284
		c-0.012,0.027-0.032,0.052-0.048,0.078c-0.041-0.093-0.084-0.16-0.191-0.189c-0.088-0.024-0.168-0.007-0.232,0.034
		c-0.063-0.144-0.23-0.257-0.375-0.256c-0.101,0.001-0.191,0.034-0.295,0.031c-0.073-0.002-0.123-0.009-0.192,0.025
		c-0.15,0.074-0.221,0.262-0.322,0.385c-0.039,0.047-0.064,0.1-0.082,0.154c-0.063-0.01-0.127-0.001-0.17,0.055
		c-0.037,0.05-0.031,0.1-0.035,0.157c-0.008,0.107-0.001,0.188-0.045,0.284c-0.017,0.037-0.048,0.066-0.064,0.104
		c-0.021,0.05-0.027,0.097-0.024,0.143c-0.037-0.069-0.075-0.137-0.106-0.208c-0.044-0.099-0.085-0.17-0.197-0.2
		c-0.088-0.024-0.168-0.007-0.232,0.034c-0.063-0.144-0.23-0.257-0.375-0.256c-0.101,0.001-0.191,0.034-0.295,0.031
		c-0.073-0.002-0.123-0.009-0.192,0.025c-0.15,0.074-0.221,0.262-0.322,0.385c-0.039,0.048-0.064,0.1-0.082,0.154
		c-0.063-0.01-0.127-0.001-0.17,0.055c-0.037,0.05-0.031,0.1-0.035,0.157c-0.008,0.107-0.001,0.188-0.045,0.284
		c-0.012,0.027-0.032,0.052-0.048,0.078c-0.041-0.093-0.084-0.16-0.191-0.189c-0.088-0.024-0.168-0.007-0.232,0.034
		c-0.063-0.144-0.23-0.257-0.375-0.256c-0.101,0.001-0.191,0.034-0.295,0.031c-0.073-0.002-0.123-0.009-0.192,0.025
		c-0.15,0.074-0.221,0.262-0.322,0.385c-0.039,0.047-0.064,0.1-0.082,0.154c-0.063-0.01-0.127-0.001-0.17,0.055
		c-0.037,0.05-0.031,0.1-0.035,0.157c-0.008,0.107-0.001,0.188-0.045,0.284c-0.017,0.037-0.048,0.066-0.064,0.104
		c0,0.001,0,0.003-0.001,0.004c-0.036-0.071-0.08-0.122-0.17-0.146c-0.088-0.024-0.168-0.007-0.232,0.034
		c-0.063-0.144-0.23-0.257-0.375-0.256c-0.101,0.001-0.191,0.034-0.295,0.031c-0.073-0.002-0.123-0.009-0.192,0.025
		c-0.15,0.074-0.221,0.262-0.322,0.385c-0.039,0.047-0.064,0.1-0.082,0.154c-0.063-0.01-0.127-0.001-0.17,0.055
		c-0.037,0.05-0.031,0.1-0.035,0.157c-0.008,0.107-0.001,0.188-0.045,0.284c-0.012,0.027-0.032,0.052-0.048,0.078
		c-0.041-0.093-0.084-0.16-0.191-0.189c-0.088-0.024-0.168-0.007-0.232,0.034c-0.063-0.144-0.23-0.257-0.375-0.256
		C20.174,28.97,20.084,29.003,19.98,29c-0.073-0.002-0.123-0.009-0.198,0.025c-0.15,0.074-0.221,0.262-0.322,0.385
		c-0.039,0.047-0.064,0.1-0.082,0.154c-0.063-0.01-0.127-0.001-0.17,0.055c-0.037,0.05-0.031,0.1-0.035,0.157
		c-0.008,0.107-0.001,0.188-0.045,0.284c-0.017,0.037-0.048,0.066-0.064,0.104c-0.021,0.05-0.027,0.097-0.024,0.143
		c-0.037-0.069-0.075-0.137-0.106-0.208c-0.044-0.099-0.085-0.17-0.197-0.2c-0.088-0.024-0.168-0.007-0.232,0.034
		c-0.063-0.144-0.23-0.257-0.375-0.256c-0.101,0.001-0.191,0.034-0.295,0.031c-0.073-0.002-0.123-0.009-0.192,0.025
		c-0.15,0.074-0.221,0.262-0.322,0.385c-0.039,0.047-0.064,0.1-0.082,0.154c-0.063-0.01-0.127-0.001-0.17,0.055
		c-0.037,0.05-0.031,0.1-0.035,0.157c-0.008,0.107-0.001,0.188-0.045,0.284c-0.012,0.027-0.032,0.052-0.048,0.078
		c-0.041-0.093-0.084-0.16-0.191-0.189c-0.088-0.024-0.168-0.007-0.232,0.034c-0.063-0.144-0.23-0.257-0.375-0.256
		c-0.101,0.001-0.191,0.034-0.295,0.031c-0.073-0.002-0.123-0.009-0.192,0.025c-0.15,0.074-0.221,0.262-0.322,0.385
		c-0.039,0.047-0.064,0.1-0.082,0.154c-0.063-0.01-0.127-0.001-0.17,0.055c-0.037,0.05-0.031,0.1-0.035,0.157
		c-0.008,0.107-0.001,0.188-0.045,0.284c-0.017,0.037-0.048,0.066-0.064,0.104C14.886,31.752,14.905,31.863,14.985,31.97z
		 M34.547,27.378c0.059-0.008,0.136,0,0.205-0.007c0,0.005-0.001,0.01,0,0.015c-0.037,0.064-0.03,0.148-0.037,0.226
		c-0.017,0.2-0.113,0.34-0.188,0.518c-0.013,0.03-0.001,0.053,0.019,0.066c-0.008,0.016-0.009,0.034,0,0.053
		c0.008,0.015,0.017,0.029,0.026,0.043c-0.096,0.016-0.189,0.022-0.265,0.022l-0.065-0.002c-0.029-0.05-0.076-0.09-0.115-0.13
		c-0.144-0.146-0.249-0.314-0.227-0.522C34.029,27.491,34.375,27.402,34.547,27.378z M17.747,32.195
		c0.048-0.003,0.096-0.013,0.145-0.031c0.014-0.002,0.03-0.005,0.043-0.007c0.059-0.008,0.136,0,0.205-0.007
		c0,0.005-0.001,0.01,0,0.015c-0.037,0.064-0.03,0.148-0.037,0.226c-0.017,0.2-0.113,0.34-0.188,0.518
		c-0.013,0.03-0.001,0.053,0.019,0.066c-0.008,0.016-0.009,0.034,0,0.053c0.008,0.015,0.017,0.029,0.026,0.043
		c-0.095,0.016-0.188,0.022-0.264,0.022l-0.066-0.002c-0.029-0.05-0.076-0.09-0.115-0.13c-0.144-0.146-0.249-0.314-0.227-0.522
		C17.378,32.32,17.577,32.24,17.747,32.195z M18.148,30.267c0.059-0.008,0.136,0,0.205-0.007c0,0.005-0.001,0.01,0,0.015
		c-0.037,0.064-0.03,0.148-0.037,0.226c-0.017,0.2-0.113,0.34-0.188,0.518c-0.013,0.03-0.001,0.053,0.019,0.066
		c-0.008,0.016-0.009,0.034,0,0.053c0.008,0.015,0.017,0.029,0.026,0.043c-0.095,0.016-0.187,0.022-0.263,0.022l-0.067-0.002
		c-0.029-0.05-0.076-0.09-0.115-0.13c-0.144-0.146-0.249-0.314-0.227-0.522C17.63,30.38,17.976,30.29,18.148,30.267z M19.241,30.552
		c-0.033,0.035-0.065,0.081-0.098,0.139c0.013-0.032,0.024-0.064,0.023-0.104c-0.001-0.04-0.012-0.069-0.026-0.098
		C19.171,30.514,19.207,30.532,19.241,30.552z M32.318,29.074l-0.065-0.002c-0.029-0.05-0.076-0.09-0.115-0.13
		c-0.061-0.062-0.112-0.129-0.153-0.199c0.036-0.015,0.07-0.03,0.112-0.049c0.24-0.107,0.47,0,0.512-0.285
		c0.013-0.086,0.001-0.172-0.021-0.251c0.007-0.008,0.015-0.015,0.022-0.022c0.049-0.001,0.101,0,0.152-0.005
		c0,0.005-0.001,0.01,0,0.015c-0.037,0.064-0.03,0.148-0.037,0.226c-0.017,0.2-0.113,0.34-0.188,0.518
		c-0.013,0.03-0.001,0.053,0.019,0.066c-0.008,0.016-0.009,0.034,0,0.053c0.008,0.015,0.017,0.029,0.026,0.043
		C32.486,29.067,32.393,29.073,32.318,29.074z M19.278,31.68c0.082-0.108,0.252-0.183,0.41-0.229
		c0.169,0.064,0.282,0.037,0.437-0.031c-0.03,0.062-0.027,0.139-0.033,0.213c-0.015,0.181-0.096,0.314-0.166,0.469
		c-0.035,0.001-0.069,0.006-0.109,0.026c-0.085,0.042-0.144,0.12-0.198,0.203c-0.029-0.05-0.075-0.09-0.114-0.129
		C19.36,32.057,19.256,31.888,19.278,31.68z M21.877,30.729c0.048-0.003,0.096-0.013,0.145-0.031
		c0.015-0.002,0.03-0.005,0.043-0.007c0.059-0.008,0.136,0,0.205-0.007c0,0.005-0.001,0.01,0,0.015
		c-0.037,0.064-0.03,0.148-0.037,0.226c-0.013,0.158-0.076,0.279-0.139,0.41c-0.031,0.004-0.062,0.01-0.095,0.009
		c-0.073-0.002-0.123-0.009-0.192,0.025c-0.061,0.03-0.107,0.081-0.149,0.136c-0.004-0.004-0.008-0.007-0.012-0.011
		c-0.144-0.146-0.249-0.314-0.227-0.522C21.51,30.853,21.708,30.773,21.877,30.729z M22.493,31.984
		c-0.001-0.004-0.002-0.007-0.003-0.011c0.003-0.003,0.005-0.005,0.008-0.008C22.496,31.972,22.494,31.977,22.493,31.984z
		 M20.893,32.291c-0.03-0.006-0.058-0.007-0.086-0.005c0.009-0.024,0.024-0.046,0.029-0.071c0.002-0.011,0.002-0.019,0.004-0.029
		C20.85,32.227,20.869,32.26,20.893,32.291z M20.943,31.719c-0.001-0.041-0.012-0.07-0.026-0.099
		c0.03,0.026,0.067,0.044,0.101,0.063c-0.032,0.034-0.065,0.081-0.098,0.139C20.933,31.791,20.944,31.759,20.943,31.719z
		 M24.055,29.932c0.059-0.008,0.136,0,0.205-0.007c0,0.005-0.001,0.01,0,0.015c-0.037,0.064-0.03,0.148-0.037,0.226
		c-0.015,0.181-0.096,0.314-0.166,0.469c-0.035,0.001-0.069,0.006-0.109,0.026c-0.085,0.042-0.144,0.12-0.198,0.203
		c-0.029-0.05-0.075-0.09-0.114-0.129c-0.144-0.146-0.249-0.314-0.227-0.522C23.538,30.044,23.883,29.955,24.055,29.932z
		 M25.856,29.139c0.047-0.003,0.095-0.013,0.144-0.031c0.014-0.002,0.03-0.005,0.043-0.007c0.059-0.008,0.136,0,0.205-0.007
		c0,0.005-0.001,0.01,0,0.015c-0.037,0.064-0.03,0.148-0.037,0.226c-0.018,0.2-0.114,0.34-0.189,0.518
		c-0.004,0.01-0.003,0.019-0.002,0.027c-0.026,0.003-0.051,0.007-0.081,0.022c-0.061,0.03-0.106,0.079-0.148,0.134l-0.054-0.002
		c-0.029-0.05-0.076-0.09-0.115-0.13c-0.144-0.146-0.249-0.314-0.227-0.522C25.486,29.263,25.684,29.184,25.856,29.139z
		 M27.385,28.624c0.082-0.108,0.252-0.183,0.41-0.229c0.169,0.064,0.282,0.037,0.437-0.031c-0.03,0.062-0.027,0.139-0.033,0.213
		c-0.015,0.181-0.096,0.314-0.166,0.469c-0.035,0.001-0.069,0.006-0.109,0.026c-0.085,0.042-0.144,0.12-0.198,0.203
		c-0.029-0.05-0.075-0.09-0.114-0.129C27.467,29,27.363,28.831,27.385,28.624z M29.985,27.672c0.047-0.003,0.095-0.013,0.144-0.031
		c0.015-0.002,0.03-0.005,0.043-0.007c0.059-0.008,0.136,0,0.205-0.007c0,0.005-0.001,0.01,0,0.015
		c-0.037,0.064-0.03,0.148-0.037,0.226c-0.013,0.158-0.076,0.279-0.139,0.41c-0.031,0.004-0.062,0.01-0.095,0.009
		c-0.073-0.002-0.123-0.009-0.192,0.025c-0.061,0.03-0.107,0.081-0.149,0.136c-0.004-0.004-0.008-0.007-0.012-0.011
		c-0.144-0.146-0.249-0.314-0.227-0.522C29.617,27.796,29.815,27.716,29.985,27.672z M30.6,28.927
		c-0.001-0.004-0.002-0.007-0.003-0.011c0.003-0.003,0.005-0.005,0.008-0.008C30.603,28.915,30.601,28.921,30.6,28.927z
		 M29.001,29.234c-0.03-0.006-0.058-0.007-0.086-0.005c0.009-0.024,0.024-0.046,0.029-0.071c0.002-0.01,0.002-0.018,0.004-0.028
		C28.957,29.17,28.977,29.203,29.001,29.234z M29.05,28.663c-0.001-0.041-0.012-0.07-0.026-0.099
		c0.03,0.026,0.067,0.044,0.101,0.063c-0.033,0.034-0.065,0.081-0.098,0.139C29.04,28.734,29.052,28.702,29.05,28.663z
		 M30.176,29.782l-0.065-0.002c-0.029-0.05-0.076-0.09-0.115-0.13c-0.036-0.036-0.069-0.074-0.099-0.113
		c0.062-0.021,0.127-0.048,0.209-0.085c0.156-0.07,0.306-0.051,0.405-0.105c-0.036,0.082-0.079,0.162-0.116,0.251
		c-0.013,0.03-0.001,0.053,0.019,0.066c-0.008,0.016-0.009,0.034,0,0.053c0.008,0.015,0.017,0.029,0.026,0.043
		C30.345,29.776,30.252,29.782,30.176,29.782z M29.183,29.368c0.016,0.008,0.032,0.016,0.049,0.023
		c-0.008,0.011-0.014,0.022-0.021,0.034C29.202,29.405,29.193,29.385,29.183,29.368z M28.186,30.541l-0.065-0.002
		c-0.029-0.05-0.076-0.09-0.115-0.13c-0.061-0.062-0.112-0.129-0.153-0.199c0.036-0.015,0.07-0.03,0.112-0.049
		c0.24-0.107,0.47,0,0.512-0.285c0.013-0.086,0.001-0.172-0.021-0.251c0.007-0.008,0.015-0.015,0.022-0.022
		c0.049-0.001,0.101,0,0.152-0.005c0,0.005-0.001,0.01,0,0.015c-0.037,0.064-0.03,0.148-0.037,0.226
		c-0.017,0.2-0.113,0.34-0.188,0.518c-0.013,0.03-0.001,0.053,0.019,0.066c-0.008,0.016-0.009,0.034,0,0.053
		c0.008,0.015,0.017,0.029,0.026,0.043C28.355,30.534,28.262,30.54,28.186,30.541z M27.021,30.065c-0.045-0.01-0.088-0.009-0.128,0
		c0.011-0.02,0.018-0.042,0.026-0.063C26.949,30.026,26.984,30.047,27.021,30.065z M26.201,31.371l-0.065-0.002
		c-0.029-0.05-0.076-0.09-0.115-0.13c-0.078-0.078-0.145-0.163-0.188-0.257c0.044-0.018,0.089-0.039,0.143-0.063
		c0.24-0.108,0.47,0,0.512-0.285c0.01-0.068,0.004-0.135-0.009-0.2c0.053-0.001,0.111,0.001,0.166-0.005c0,0.005-0.001,0.01,0,0.015
		c-0.037,0.064-0.03,0.148-0.037,0.226c-0.018,0.2-0.114,0.34-0.189,0.518c-0.013,0.03-0.001,0.053,0.019,0.066
		c-0.008,0.016-0.009,0.034,0,0.053c0.008,0.015,0.017,0.029,0.026,0.043C26.369,31.365,26.276,31.371,26.201,31.371z
		 M25.032,30.825c-0.032-0.007-0.063-0.009-0.093-0.006c0.005-0.014,0.012-0.026,0.016-0.04
		C24.979,30.795,25.004,30.811,25.032,30.825z M24.212,32.13l-0.067-0.002c-0.029-0.05-0.076-0.09-0.115-0.13
		c-0.061-0.062-0.112-0.129-0.153-0.199c0.036-0.015,0.07-0.03,0.112-0.049c0.24-0.107,0.47,0,0.512-0.285
		c0.013-0.086,0.001-0.172-0.021-0.251c0.007-0.008,0.015-0.015,0.022-0.022c0.049-0.001,0.101,0,0.152-0.005
		c0,0.005-0.001,0.01,0,0.015c-0.037,0.064-0.03,0.148-0.037,0.226c-0.017,0.2-0.113,0.34-0.188,0.518
		c-0.013,0.03-0.001,0.053,0.019,0.066c-0.008,0.016-0.009,0.034,0,0.053c0.008,0.015,0.017,0.029,0.026,0.043
		C24.38,32.124,24.287,32.13,24.212,32.13z M22.069,32.839l-0.065-0.002c-0.029-0.05-0.076-0.09-0.115-0.13
		c-0.036-0.036-0.069-0.074-0.099-0.113c0.062-0.021,0.127-0.048,0.209-0.085c0.156-0.07,0.306-0.051,0.405-0.105
		c-0.036,0.082-0.079,0.162-0.116,0.251c-0.013,0.03-0.001,0.053,0.019,0.066c-0.008,0.016-0.009,0.034,0,0.053
		c0.008,0.015,0.017,0.029,0.026,0.043C22.238,32.832,22.144,32.839,22.069,32.839z M21.075,32.425
		c0.016,0.008,0.032,0.016,0.049,0.023c-0.008,0.011-0.014,0.022-0.021,0.034C21.094,32.461,21.085,32.442,21.075,32.425z
		 M20.08,33.597l-0.066-0.002c-0.029-0.05-0.076-0.09-0.115-0.13c-0.061-0.062-0.112-0.129-0.153-0.199
		c0.036-0.015,0.07-0.03,0.112-0.049c0.24-0.107,0.47,0,0.512-0.285c0.013-0.086,0.001-0.172-0.021-0.251
		c0.007-0.008,0.015-0.015,0.022-0.022c0.049-0.001,0.101,0,0.152-0.005c0,0.005-0.001,0.01,0,0.015
		c-0.037,0.064-0.03,0.148-0.037,0.226c-0.017,0.2-0.113,0.34-0.188,0.518c-0.013,0.03-0.001,0.053,0.019,0.066
		c-0.008,0.016-0.009,0.034,0,0.053c0.008,0.015,0.017,0.029,0.026,0.043C20.248,33.591,20.156,33.597,20.08,33.597z M20.29,29.558
		c0.059-0.008,0.136,0,0.205-0.007c0,0.005-0.001,0.01,0,0.015c-0.037,0.064-0.03,0.148-0.037,0.226
		c-0.017,0.2-0.113,0.34-0.188,0.518c-0.013,0.03-0.001,0.053,0.019,0.066c-0.008,0.016-0.009,0.034,0,0.053
		c0.008,0.015,0.017,0.029,0.026,0.043c-0.095,0.016-0.187,0.022-0.263,0.022l-0.067-0.002c-0.029-0.05-0.076-0.09-0.115-0.13
		c-0.144-0.146-0.249-0.314-0.227-0.522C19.772,29.671,20.117,29.582,20.29,29.558z M21.166,30.46
		c0.028,0.021,0.059,0.04,0.092,0.058c-0.006,0.008-0.011,0.017-0.017,0.024c-0.039,0.048-0.064,0.1-0.082,0.154
		c-0.063-0.01-0.127-0.001-0.17,0.055c-0.037,0.05-0.031,0.1-0.035,0.157c-0.008,0.107-0.001,0.188-0.045,0.284
		c-0.017,0.037-0.048,0.066-0.064,0.104c-0.021,0.05-0.027,0.097-0.024,0.143c-0.037-0.069-0.075-0.137-0.106-0.208
		c-0.005-0.012-0.01-0.021-0.015-0.032c0.015-0.028,0.028-0.061,0.035-0.106c0.013-0.086,0.001-0.172-0.021-0.251
		c0.018-0.019,0.036-0.038,0.055-0.054c0.002-0.002,0.003-0.004,0.005-0.006c0.074-0.001,0.149-0.023,0.221-0.078
		C21.075,30.642,21.13,30.555,21.166,30.46z M22.281,28.799c0.059-0.008,0.136,0,0.205-0.007c0,0.005-0.001,0.01,0,0.015
		c-0.037,0.064-0.03,0.148-0.037,0.226c-0.018,0.2-0.114,0.34-0.189,0.518c-0.013,0.03-0.001,0.053,0.019,0.066
		c-0.008,0.016-0.009,0.034,0,0.053c0.008,0.015,0.017,0.029,0.026,0.043c-0.095,0.016-0.187,0.022-0.263,0.022l-0.067-0.002
		c-0.029-0.05-0.076-0.09-0.115-0.13c-0.144-0.146-0.249-0.314-0.227-0.522C21.762,28.913,22.107,28.823,22.281,28.799z
		 M23.178,29.646c0.033,0.023,0.068,0.043,0.107,0.061c-0.018,0.027-0.035,0.053-0.054,0.076c-0.039,0.047-0.064,0.1-0.082,0.154
		c-0.063-0.01-0.127-0.001-0.17,0.055c-0.037,0.05-0.031,0.1-0.035,0.157c-0.008,0.107-0.001,0.188-0.045,0.284
		c-0.012,0.027-0.032,0.052-0.048,0.078c-0.032-0.072-0.067-0.128-0.13-0.163c0.001-0.005,0.003-0.008,0.004-0.014
		c0.013-0.086,0.001-0.172-0.021-0.251c0.018-0.019,0.036-0.038,0.055-0.054c0.002-0.002,0.003-0.004,0.005-0.006
		c0.074-0.001,0.149-0.023,0.221-0.078C23.081,29.872,23.147,29.764,23.178,29.646z M24.266,27.968c0.059-0.008,0.136,0,0.205-0.007
		c0,0.005-0.001,0.01,0,0.015c-0.037,0.064-0.03,0.148-0.037,0.226c-0.017,0.2-0.113,0.34-0.188,0.518
		c-0.013,0.03-0.001,0.053,0.019,0.066c-0.008,0.016-0.009,0.034,0,0.053c0.007,0.015,0.017,0.029,0.026,0.043
		c-0.095,0.016-0.187,0.022-0.263,0.022l-0.067-0.002c-0.029-0.05-0.076-0.09-0.115-0.13c-0.144-0.146-0.249-0.314-0.227-0.522
		C23.748,28.082,24.093,27.992,24.266,27.968z M25.142,28.87c0.028,0.021,0.059,0.041,0.092,0.058
		c-0.006,0.008-0.011,0.017-0.017,0.024c-0.039,0.047-0.064,0.1-0.082,0.154c-0.063-0.01-0.127-0.001-0.17,0.055
		c-0.037,0.05-0.031,0.1-0.035,0.157c-0.008,0.107-0.001,0.188-0.045,0.284c-0.017,0.037-0.048,0.066-0.064,0.104
		c0,0.001,0,0.003-0.001,0.004c-0.03-0.058-0.068-0.102-0.13-0.129c0.009-0.023,0.016-0.047,0.021-0.078
		c0.013-0.086,0.001-0.172-0.021-0.251c0.018-0.019,0.036-0.038,0.055-0.054c0.002-0.002,0.003-0.004,0.005-0.006
		c0.074-0.001,0.149-0.023,0.221-0.078C25.051,29.053,25.106,28.965,25.142,28.87z M26.257,27.21c0.059-0.008,0.136,0,0.205-0.007
		c0,0.005-0.001,0.01,0,0.015c-0.037,0.064-0.03,0.148-0.037,0.226c-0.018,0.2-0.114,0.34-0.189,0.518
		c-0.013,0.03-0.001,0.053,0.019,0.066c-0.008,0.016-0.009,0.034,0,0.053c0.008,0.015,0.017,0.029,0.026,0.043
		c-0.095,0.016-0.187,0.022-0.263,0.022l-0.067-0.002c-0.029-0.05-0.076-0.09-0.115-0.13c-0.144-0.146-0.249-0.314-0.227-0.522
		C25.738,27.323,26.083,27.233,26.257,27.21z M27.167,28.027c0.002-0.011,0.002-0.019,0.004-0.029
		c0.013,0.054,0.042,0.097,0.08,0.134c-0.015,0.021-0.029,0.043-0.044,0.062c-0.039,0.047-0.064,0.1-0.082,0.154
		c-0.063-0.01-0.127-0.001-0.17,0.055c-0.037,0.05-0.031,0.1-0.035,0.157c-0.008,0.107-0.001,0.188-0.045,0.284
		c-0.012,0.027-0.032,0.052-0.048,0.078c-0.032-0.072-0.067-0.128-0.13-0.163c0.001-0.005,0.003-0.008,0.004-0.014
		c0.013-0.086,0.001-0.172-0.021-0.251c0.018-0.019,0.036-0.038,0.055-0.054c0.002-0.002,0.003-0.004,0.005-0.006
		c0.074-0.001,0.149-0.023,0.221-0.078C27.066,28.275,27.14,28.156,27.167,28.027z M27.349,27.495
		c-0.033,0.035-0.065,0.081-0.098,0.139c0.013-0.032,0.024-0.064,0.023-0.104c-0.001-0.04-0.012-0.069-0.026-0.098
		C27.278,27.458,27.315,27.475,27.349,27.495z M28.397,26.501c0.059-0.008,0.136,0,0.205-0.007c0,0.005-0.001,0.01,0,0.015
		c-0.037,0.064-0.03,0.148-0.037,0.226c-0.017,0.2-0.113,0.34-0.188,0.518c-0.013,0.03-0.001,0.053,0.019,0.066
		c-0.008,0.016-0.009,0.034,0,0.053c0.008,0.015,0.017,0.029,0.026,0.043c-0.095,0.016-0.187,0.022-0.263,0.022l-0.067-0.002
		c-0.029-0.05-0.076-0.09-0.115-0.13c-0.144-0.146-0.249-0.314-0.227-0.522C27.879,26.615,28.225,26.525,28.397,26.501z
		 M29.273,27.403c0.028,0.021,0.059,0.041,0.092,0.058c-0.006,0.008-0.011,0.017-0.017,0.024c-0.039,0.047-0.064,0.1-0.082,0.154
		c-0.063-0.01-0.127-0.001-0.17,0.055c-0.037,0.05-0.031,0.1-0.035,0.157c-0.008,0.107-0.001,0.188-0.045,0.284
		c-0.017,0.037-0.048,0.066-0.064,0.104c-0.021,0.05-0.027,0.097-0.024,0.143c-0.037-0.069-0.075-0.137-0.106-0.208
		c-0.005-0.012-0.01-0.021-0.015-0.032c0.015-0.028,0.028-0.061,0.035-0.106c0.013-0.086,0.001-0.172-0.021-0.251
		c0.018-0.019,0.036-0.038,0.055-0.054c0.002-0.002,0.003-0.004,0.005-0.006c0.074-0.001,0.149-0.023,0.221-0.078
		C29.183,27.586,29.237,27.498,29.273,27.403z M30.388,25.743c0.059-0.008,0.136,0,0.205-0.007c0,0.005-0.001,0.01,0,0.015
		c-0.037,0.064-0.03,0.148-0.037,0.226c-0.018,0.2-0.114,0.34-0.189,0.518c-0.013,0.03-0.001,0.053,0.019,0.066
		c-0.008,0.016-0.009,0.034,0,0.053c0.008,0.015,0.017,0.029,0.026,0.043c-0.095,0.016-0.187,0.022-0.263,0.022l-0.067-0.002
		c-0.029-0.05-0.076-0.09-0.115-0.13c-0.144-0.146-0.249-0.314-0.227-0.522C29.869,25.856,30.214,25.766,30.388,25.743z
		 M32.162,26.875c0.059-0.008,0.136,0,0.205-0.007c0,0.005-0.001,0.01,0,0.015c-0.037,0.064-0.03,0.148-0.037,0.226
		c-0.015,0.181-0.096,0.314-0.166,0.469c-0.035,0.001-0.069,0.006-0.109,0.026c-0.085,0.042-0.144,0.12-0.198,0.203
		c-0.029-0.05-0.075-0.09-0.114-0.129c-0.144-0.146-0.249-0.314-0.227-0.522C31.645,26.987,31.991,26.898,32.162,26.875z
		 M31.411,29.269c0.013-0.032,0.024-0.064,0.023-0.104c-0.001-0.04-0.012-0.069-0.026-0.098c0.03,0.026,0.067,0.044,0.101,0.063
		C31.477,29.165,31.444,29.211,31.411,29.269z M31.206,28.678c-0.011-0.025-0.021-0.048-0.033-0.069
		c0.062,0.03,0.128,0.056,0.195,0.082c-0.012,0.016-0.024,0.032-0.032,0.051c-0.021,0.05-0.027,0.097-0.024,0.143
		C31.275,28.817,31.237,28.749,31.206,28.678z M27.123,30.112c0.038,0.016,0.076,0.031,0.114,0.046
		c-0.012,0.016-0.024,0.032-0.032,0.051c0,0.001,0,0.003-0.001,0.004C27.183,30.172,27.157,30.138,27.123,30.112z M25.132,30.872
		c0.05,0.02,0.101,0.04,0.151,0.06c0,0.002,0,0.003-0.001,0.005c-0.012,0.027-0.032,0.052-0.048,0.078
		C25.208,30.954,25.178,30.906,25.132,30.872z M23.304,32.326c0.013-0.032,0.024-0.064,0.023-0.104s-0.012-0.069-0.026-0.098
		c0.03,0.026,0.067,0.044,0.101,0.063C23.369,32.222,23.337,32.268,23.304,32.326z M23.099,31.735
		c-0.011-0.025-0.021-0.048-0.033-0.069c0.062,0.03,0.128,0.056,0.195,0.082c-0.012,0.016-0.024,0.032-0.032,0.051
		c-0.021,0.05-0.027,0.097-0.024,0.143C23.167,31.874,23.129,31.805,23.099,31.735z M18.588,31.815
		c0.001-0.005,0.003-0.008,0.004-0.014c0.013-0.086,0.001-0.172-0.021-0.251c0.018-0.019,0.036-0.038,0.055-0.054
		c0.002-0.002,0.003-0.004,0.005-0.006c0.074-0.001,0.149-0.023,0.221-0.078c0.105-0.08,0.18-0.2,0.207-0.329
		c0.002-0.011,0.002-0.019,0.004-0.029c0.013,0.054,0.042,0.097,0.08,0.134c-0.015,0.021-0.029,0.043-0.044,0.062
		c-0.039,0.047-0.064,0.1-0.082,0.154c-0.063-0.01-0.127-0.001-0.17,0.055c-0.037,0.05-0.031,0.1-0.035,0.157
		c-0.008,0.107-0.001,0.188-0.045,0.284c-0.012,0.027-0.032,0.052-0.048,0.078C18.687,31.905,18.653,31.85,18.588,31.815z
		 M16.158,31.025c0.059-0.008,0.136,0,0.205-0.007c0,0.005-0.001,0.01,0,0.015c-0.037,0.064-0.03,0.148-0.037,0.226
		c-0.017,0.2-0.113,0.34-0.188,0.518c-0.013,0.03-0.001,0.053,0.019,0.066c-0.008,0.016-0.009,0.034,0,0.053
		c0.008,0.015,0.017,0.029,0.026,0.043c-0.095,0.016-0.187,0.022-0.263,0.022l-0.067-0.002c-0.029-0.05-0.076-0.09-0.115-0.13
		c-0.144-0.146-0.249-0.314-0.227-0.522C15.64,31.138,15.986,31.049,16.158,31.025z"/>
	<path class="st12" d="M30.934,26.073c-0.06-0.129-0.158-0.243-0.285-0.321c-0.223-0.137-0.518-0.222-0.738-0.132
		c-0.142,0.058-0.254,0.164-0.33,0.293c-0.154,0.261-0.16,0.615,0.044,0.857c0.312,0.369,0.984,0.375,1.263-0.031
		C31.031,26.532,31.032,26.282,30.934,26.073z"/>
	<path class="st12" d="M31.163,26.509c0.195-0.307,0.036-0.671-0.194-0.898c-0.01-0.011-0.033,0-0.027,0.016
		c0.059,0.146,0.182,0.279,0.198,0.437c0.015,0.145-0.01,0.292-0.013,0.436C31.127,26.521,31.154,26.526,31.163,26.509z"/>
	<path class="st12" d="M28.898,27.498c0.142-0.207,0.144-0.457,0.046-0.666c-0.06-0.129-0.158-0.243-0.285-0.321
		c-0.223-0.137-0.518-0.222-0.738-0.132c-0.142,0.058-0.254,0.164-0.33,0.293c-0.154,0.261-0.16,0.615,0.044,0.857
		C27.947,27.898,28.619,27.904,28.898,27.498z"/>
	<path class="st12" d="M28.953,26.386c0.059,0.146,0.182,0.279,0.198,0.437c0.015,0.145-0.01,0.292-0.013,0.436
		c0,0.02,0.027,0.026,0.037,0.01c0.195-0.307,0.036-0.671-0.194-0.898C28.97,26.36,28.947,26.371,28.953,26.386z"/>
	<path class="st12" d="M26.756,28.206c0.143-0.207,0.145-0.457,0.047-0.666c-0.06-0.129-0.158-0.243-0.285-0.321
		c-0.223-0.137-0.518-0.222-0.738-0.132c-0.142,0.058-0.254,0.164-0.33,0.293c-0.154,0.261-0.16,0.615,0.044,0.857
		C25.806,28.607,26.478,28.612,26.756,28.206z"/>
	<path class="st12" d="M27.032,27.976c0.195-0.307,0.036-0.671-0.194-0.898c-0.01-0.011-0.033,0-0.027,0.016
		c0.059,0.146,0.182,0.279,0.198,0.437c0.015,0.145-0.01,0.292-0.013,0.436C26.996,27.988,27.023,27.993,27.032,27.976z"/>
	<path class="st12" d="M23.79,27.846c-0.142,0.058-0.254,0.164-0.33,0.293c-0.154,0.261-0.16,0.615,0.044,0.857
		c0.312,0.369,0.984,0.375,1.263-0.031c0.142-0.207,0.144-0.457,0.046-0.666c-0.06-0.129-0.158-0.243-0.285-0.321
		C24.305,27.841,24.01,27.756,23.79,27.846z"/>
	<path class="st12" d="M24.821,27.853c0.059,0.146,0.182,0.279,0.198,0.437c0.015,0.145-0.01,0.292-0.013,0.436
		c0,0.02,0.027,0.026,0.037,0.01c0.195-0.307,0.036-0.671-0.194-0.898C24.839,27.827,24.815,27.838,24.821,27.853z"/>
	<path class="st12" d="M22.827,29.13c-0.06-0.129-0.158-0.243-0.285-0.321c-0.223-0.137-0.518-0.222-0.738-0.132
		c-0.142,0.058-0.254,0.164-0.33,0.293c-0.154,0.261-0.16,0.615,0.044,0.857c0.312,0.369,0.984,0.375,1.263-0.031
		C22.923,29.589,22.925,29.339,22.827,29.13z"/>
	<path class="st12" d="M23.056,29.566c0.195-0.307,0.036-0.671-0.194-0.898c-0.01-0.011-0.033,0-0.027,0.016
		c0.059,0.146,0.182,0.279,0.198,0.437c0.015,0.145-0.01,0.292-0.013,0.436C23.02,29.577,23.047,29.583,23.056,29.566z"/>
	<path class="st12" d="M20.837,29.889c-0.06-0.129-0.158-0.243-0.285-0.321c-0.223-0.137-0.518-0.222-0.738-0.132
		c-0.142,0.058-0.254,0.164-0.33,0.293c-0.154,0.261-0.16,0.615,0.044,0.857c0.312,0.369,0.984,0.375,1.263-0.031
		C20.933,30.348,20.935,30.098,20.837,29.889z"/>
	<path class="st12" d="M21.067,30.325c0.195-0.307,0.036-0.671-0.194-0.898c-0.011-0.011-0.034,0-0.028,0.016
		c0.059,0.146,0.182,0.279,0.198,0.437c0.015,0.145-0.01,0.292-0.013,0.436C21.03,30.336,21.057,30.342,21.067,30.325z"/>
	<path class="st12" d="M18.695,30.597c-0.06-0.129-0.158-0.243-0.285-0.321c-0.223-0.137-0.518-0.222-0.738-0.132
		c-0.142,0.058-0.254,0.164-0.33,0.293c-0.154,0.261-0.16,0.615,0.044,0.857c0.312,0.369,0.984,0.375,1.263-0.031
		C18.792,31.056,18.793,30.806,18.695,30.597z"/>
	<path class="st12" d="M18.902,30.588c0.015,0.145-0.01,0.292-0.013,0.436c0,0.02,0.027,0.026,0.037,0.01
		c0.195-0.307,0.036-0.671-0.194-0.898c-0.011-0.011-0.034,0-0.028,0.016C18.763,30.297,18.886,30.431,18.902,30.588z"/>
	<path class="st12" d="M15.352,31.196c-0.154,0.261-0.16,0.615,0.044,0.857c0.312,0.369,0.984,0.375,1.263-0.031
		c0.142-0.207,0.144-0.457,0.046-0.666c-0.06-0.129-0.158-0.243-0.285-0.321c-0.223-0.137-0.518-0.222-0.738-0.132
		C15.541,30.961,15.429,31.067,15.352,31.196z"/>
	<path class="st12" d="M16.912,31.346c0.015,0.145-0.01,0.292-0.013,0.436c0,0.02,0.027,0.026,0.037,0.01
		c0.195-0.307,0.036-0.671-0.194-0.898c-0.011-0.011-0.034,0-0.028,0.016C16.773,31.056,16.896,31.189,16.912,31.346z"/>
	<path class="st12" d="M31.402,27.902c0.119,0.14,0.289,0.227,0.469,0.26c-0.044,0.045-0.086,0.092-0.118,0.146
		c-0.154,0.261-0.16,0.615,0.044,0.857c0.312,0.369,0.984,0.375,1.263-0.031c0.142-0.207,0.144-0.457,0.046-0.666
		c-0.06-0.13-0.158-0.243-0.285-0.321c-0.091-0.056-0.194-0.099-0.299-0.129c0.053-0.042,0.103-0.089,0.143-0.147
		c0.142-0.207,0.144-0.457,0.046-0.666c-0.06-0.129-0.158-0.243-0.285-0.321c-0.223-0.137-0.518-0.222-0.738-0.132
		c-0.142,0.058-0.254,0.164-0.33,0.293C31.203,27.306,31.197,27.66,31.402,27.902z"/>
	<path class="st12" d="M32.719,26.758c0.059,0.146,0.182,0.279,0.198,0.437c0.015,0.145-0.01,0.292-0.013,0.436
		c0,0.02,0.027,0.026,0.037,0.01c0.195-0.307,0.036-0.671-0.194-0.898C32.736,26.733,32.713,26.743,32.719,26.758z"/>
	<path class="st12" d="M29.41,28.662c0.083,0.099,0.193,0.169,0.313,0.215c-0.042,0.043-0.083,0.088-0.114,0.14
		c-0.154,0.261-0.16,0.615,0.044,0.857c0.312,0.369,0.984,0.375,1.263-0.031c0.143-0.207,0.145-0.457,0.047-0.666
		c-0.06-0.129-0.158-0.243-0.285-0.321c-0.047-0.029-0.098-0.054-0.15-0.077c0.055-0.042,0.105-0.09,0.146-0.149
		c0.143-0.207,0.145-0.457,0.047-0.666c-0.06-0.129-0.158-0.243-0.285-0.321c-0.223-0.137-0.518-0.222-0.738-0.132
		c-0.142,0.058-0.254,0.164-0.33,0.293C29.213,28.064,29.207,28.419,29.41,28.662z"/>
	<path class="st12" d="M30.729,27.517c0.059,0.146,0.182,0.279,0.198,0.437c0.015,0.145-0.01,0.292-0.013,0.436
		c0,0.02,0.027,0.026,0.037,0.01c0.195-0.307,0.036-0.671-0.194-0.898C30.746,27.491,30.723,27.502,30.729,27.517z"/>
	<path class="st12" d="M28.587,28.225c0.059,0.146,0.182,0.279,0.198,0.437c0.015,0.145-0.01,0.292-0.013,0.436
		c0,0.02,0.027,0.026,0.037,0.01c0.195-0.307,0.036-0.671-0.194-0.898C28.605,28.2,28.582,28.21,28.587,28.225z"/>
	<path class="st12" d="M26.598,28.984c0.059,0.146,0.182,0.279,0.198,0.437c0.015,0.145-0.01,0.292-0.013,0.436
		c0,0.02,0.027,0.026,0.037,0.01c0.195-0.307,0.036-0.671-0.194-0.898C26.615,28.958,26.592,28.969,26.598,28.984z"/>
	<path class="st12" d="M23.294,30.959c0.119,0.14,0.289,0.227,0.469,0.26c-0.044,0.045-0.086,0.092-0.118,0.146
		c-0.154,0.261-0.16,0.615,0.044,0.857c0.312,0.369,0.984,0.375,1.263-0.031c0.142-0.207,0.144-0.457,0.046-0.666
		c-0.06-0.129-0.158-0.243-0.285-0.321c-0.091-0.056-0.194-0.099-0.299-0.129c0.053-0.042,0.103-0.089,0.143-0.147
		c0.142-0.207,0.144-0.457,0.046-0.666c-0.06-0.129-0.158-0.243-0.285-0.321c-0.223-0.137-0.518-0.222-0.738-0.132
		c-0.142,0.058-0.254,0.164-0.33,0.293C23.096,30.362,23.089,30.717,23.294,30.959z"/>
	<path class="st12" d="M24.611,29.815c0.059,0.146,0.182,0.279,0.198,0.437c0.015,0.145-0.01,0.292-0.013,0.436
		c0,0.02,0.027,0.026,0.037,0.01c0.195-0.307,0.036-0.671-0.194-0.898C24.629,29.789,24.605,29.8,24.611,29.815z"/>
	<path class="st12" d="M21.302,31.718c0.083,0.099,0.193,0.169,0.313,0.215c-0.042,0.043-0.083,0.088-0.114,0.14
		c-0.154,0.261-0.16,0.615,0.044,0.857c0.312,0.369,0.984,0.375,1.263-0.031c0.143-0.207,0.145-0.457,0.047-0.666
		c-0.06-0.13-0.158-0.243-0.285-0.321c-0.047-0.029-0.098-0.054-0.15-0.077c0.055-0.042,0.105-0.09,0.146-0.149
		c0.143-0.207,0.145-0.457,0.047-0.666c-0.06-0.129-0.158-0.243-0.285-0.321c-0.223-0.137-0.518-0.222-0.738-0.132
		c-0.142,0.058-0.254,0.164-0.33,0.293C21.106,31.121,21.099,31.476,21.302,31.718z"/>
	<path class="st12" d="M22.621,30.574c0.059,0.146,0.182,0.279,0.198,0.437c0.015,0.145-0.01,0.292-0.013,0.436
		c0,0.02,0.027,0.026,0.037,0.01c0.195-0.307,0.036-0.671-0.194-0.898C22.639,30.548,22.616,30.559,22.621,30.574z"/>
	<path class="st12" d="M19.119,31.569c-0.154,0.261-0.16,0.615,0.044,0.857c0.119,0.14,0.289,0.227,0.469,0.26
		c-0.044,0.045-0.086,0.092-0.118,0.146c-0.154,0.261-0.16,0.615,0.044,0.857c0.312,0.369,0.984,0.375,1.263-0.031
		c0.142-0.207,0.144-0.457,0.046-0.666c-0.06-0.13-0.158-0.243-0.285-0.321c-0.091-0.056-0.194-0.099-0.299-0.129
		c0.053-0.042,0.103-0.089,0.143-0.147c0.142-0.207,0.144-0.457,0.046-0.666c-0.06-0.129-0.158-0.243-0.285-0.321
		c-0.223-0.137-0.518-0.222-0.738-0.132C19.307,31.334,19.195,31.44,19.119,31.569z"/>
	<path class="st12" d="M20.48,31.282c0.059,0.146,0.182,0.279,0.198,0.437c0.015,0.145-0.01,0.292-0.013,0.436
		c0,0.02,0.027,0.026,0.037,0.01c0.195-0.307,0.036-0.671-0.194-0.898C20.497,31.257,20.474,31.267,20.48,31.282z"/>
	<path class="st12" d="M17.129,32.328c-0.154,0.261-0.16,0.615,0.044,0.857c0.312,0.369,0.984,0.375,1.263-0.031
		c0.142-0.207,0.144-0.457,0.046-0.666c-0.06-0.129-0.158-0.243-0.285-0.321c-0.223-0.137-0.518-0.222-0.738-0.132
		C17.317,32.093,17.205,32.199,17.129,32.328z"/>
	<path class="st12" d="M18.689,32.478c0.015,0.145-0.01,0.292-0.013,0.436c0,0.02,0.027,0.026,0.037,0.01
		c0.195-0.307,0.036-0.671-0.194-0.898c-0.011-0.011-0.034,0-0.028,0.016C18.549,32.187,18.672,32.321,18.689,32.478z"/>
	<path class="st12" d="M33.741,27.549c-0.154,0.261-0.16,0.615,0.044,0.857c0.312,0.369,0.984,0.375,1.263-0.031
		c0.142-0.207,0.144-0.457,0.046-0.666c-0.06-0.13-0.158-0.243-0.285-0.321c-0.223-0.137-0.518-0.222-0.738-0.132
		C33.93,27.314,33.818,27.42,33.741,27.549z"/>
	<path class="st12" d="M35.301,27.699c0.015,0.145-0.01,0.292-0.013,0.436c0,0.02,0.027,0.026,0.037,0.01
		c0.195-0.307,0.036-0.671-0.194-0.898c-0.011-0.011-0.034,0-0.028,0.016C35.162,27.409,35.285,27.542,35.301,27.699z"/>
	<path class="st12" d="M33.311,28.458c0.015,0.145-0.01,0.292-0.013,0.436c0,0.02,0.027,0.026,0.037,0.01
		c0.195-0.307,0.036-0.671-0.194-0.898c-0.011-0.011-0.034,0-0.028,0.016C33.172,28.167,33.295,28.301,33.311,28.458z"/>
	<path class="st12" d="M31.169,29.166c0.015,0.145-0.01,0.292-0.013,0.436c0,0.02,0.027,0.026,0.037,0.01
		c0.195-0.307,0.036-0.671-0.194-0.898c-0.01-0.011-0.033,0-0.027,0.016C31.031,28.876,31.153,29.009,31.169,29.166z"/>
	<path class="st12" d="M27.62,29.775c-0.154,0.261-0.16,0.615,0.044,0.857c0.312,0.369,0.984,0.375,1.263-0.031
		c0.142-0.207,0.144-0.457,0.046-0.666c-0.06-0.13-0.158-0.243-0.285-0.321c-0.091-0.056-0.194-0.099-0.299-0.129
		c0.053-0.042,0.103-0.089,0.143-0.147c0.142-0.207,0.144-0.457,0.046-0.666c-0.06-0.129-0.158-0.243-0.285-0.321
		c-0.223-0.137-0.518-0.222-0.738-0.132c-0.142,0.058-0.254,0.164-0.33,0.293c-0.154,0.261-0.16,0.615,0.044,0.857
		c0.119,0.14,0.289,0.227,0.469,0.26C27.694,29.673,27.652,29.72,27.62,29.775z"/>
	<path class="st12" d="M29.18,29.925c0.015,0.145-0.01,0.292-0.013,0.436c0,0.02,0.027,0.026,0.037,0.01
		c0.195-0.307,0.036-0.671-0.194-0.898c-0.011-0.011-0.034,0-0.028,0.016C29.041,29.635,29.164,29.768,29.18,29.925z"/>
	<path class="st12" d="M25.632,30.606c-0.154,0.261-0.16,0.615,0.044,0.857c0.312,0.369,0.984,0.375,1.263-0.031
		c0.143-0.207,0.145-0.457,0.047-0.666c-0.06-0.13-0.158-0.243-0.285-0.321c-0.114-0.07-0.248-0.126-0.38-0.152
		c0.086-0.049,0.163-0.112,0.221-0.196c0.143-0.207,0.145-0.457,0.047-0.666c-0.06-0.129-0.158-0.243-0.285-0.321
		c-0.223-0.137-0.518-0.222-0.738-0.132c-0.142,0.058-0.254,0.164-0.33,0.293c-0.154,0.261-0.16,0.615,0.044,0.857
		c0.137,0.161,0.343,0.249,0.554,0.267C25.755,30.453,25.684,30.521,25.632,30.606z"/>
	<path class="st12" d="M27.193,30.756c0.015,0.145-0.01,0.292-0.013,0.436c0,0.02,0.027,0.026,0.037,0.01
		c0.195-0.307,0.036-0.671-0.194-0.898c-0.01-0.011-0.033,0-0.027,0.016C27.055,30.465,27.177,30.599,27.193,30.756z"/>
	<path class="st12" d="M25.204,31.515c0.015,0.145-0.01,0.292-0.013,0.436c0,0.02,0.027,0.026,0.037,0.01
		c0.195-0.307,0.036-0.671-0.194-0.898c-0.011-0.011-0.034,0-0.028,0.016C25.065,31.224,25.187,31.358,25.204,31.515z"/>
	<path class="st12" d="M23.062,32.223c0.015,0.145-0.01,0.292-0.013,0.436c0,0.02,0.027,0.026,0.037,0.01
		c0.195-0.307,0.036-0.671-0.194-0.898c-0.011-0.011-0.034,0-0.028,0.016C22.923,31.933,23.046,32.066,23.062,32.223z"/>
	<path class="st12" d="M21.073,32.982c0.015,0.145-0.01,0.292-0.013,0.436c0,0.02,0.027,0.026,0.037,0.01
		c0.195-0.307,0.036-0.671-0.194-0.898c-0.011-0.011-0.034,0-0.028,0.016C20.933,32.691,21.056,32.825,21.073,32.982z"/>
	<g>
		<path class="st13" d="M30.597,26.399c0.072-0.137-0.135-0.508-0.403-0.478c-0.235,0.026-0.359,0.293-0.186,0.473
			C30.162,26.555,30.473,26.634,30.597,26.399z"/>
		<path class="st13" d="M28.607,27.158c0.072-0.137-0.135-0.508-0.403-0.478c-0.235,0.026-0.359,0.293-0.186,0.473
			C28.172,27.313,28.483,27.392,28.607,27.158z"/>
		<path class="st13" d="M26.466,27.866c0.072-0.137-0.135-0.508-0.403-0.478c-0.235,0.026-0.359,0.293-0.186,0.473
			C26.031,28.022,26.342,28.101,26.466,27.866z"/>
		<path class="st13" d="M24.476,28.625c0.072-0.137-0.135-0.508-0.403-0.478c-0.235,0.026-0.359,0.293-0.186,0.473
			C24.041,28.78,24.352,28.86,24.476,28.625z"/>
		<path class="st13" d="M22.49,29.456c0.072-0.137-0.135-0.508-0.403-0.478c-0.235,0.026-0.359,0.293-0.186,0.473
			C22.055,29.611,22.366,29.691,22.49,29.456z"/>
		<path class="st13" d="M20.5,30.215c0.072-0.137-0.135-0.508-0.403-0.478c-0.235,0.026-0.359,0.293-0.186,0.473
			C20.065,30.37,20.376,30.449,20.5,30.215z"/>
		<path class="st13" d="M18.358,30.923c0.072-0.137-0.135-0.508-0.403-0.478c-0.235,0.026-0.359,0.293-0.186,0.473
			C17.923,31.078,18.234,31.158,18.358,30.923z"/>
		<path class="st13" d="M15.779,31.677c0.154,0.16,0.465,0.239,0.589,0.004c0.072-0.137-0.135-0.508-0.403-0.478
			C15.73,31.229,15.607,31.497,15.779,31.677z"/>
		<path class="st13" d="M31.784,27.526c0.154,0.16,0.465,0.239,0.589,0.004c0.072-0.137-0.135-0.508-0.403-0.478
			C31.735,27.078,31.612,27.346,31.784,27.526z"/>
		<path class="st13" d="M29.794,28.285c0.154,0.16,0.465,0.239,0.589,0.004c0.072-0.137-0.135-0.508-0.403-0.478
			C29.745,27.837,29.622,28.105,29.794,28.285z"/>
		<path class="st13" d="M27.652,28.993c0.154,0.16,0.465,0.239,0.589,0.004c0.072-0.137-0.135-0.508-0.403-0.478
			C27.603,28.545,27.48,28.813,27.652,28.993z"/>
		<path class="st13" d="M25.663,29.752c0.154,0.16,0.465,0.239,0.589,0.004c0.072-0.137-0.135-0.508-0.403-0.478
			C25.613,29.304,25.49,29.572,25.663,29.752z"/>
		<path class="st13" d="M23.676,30.583c0.154,0.16,0.465,0.239,0.589,0.004c0.072-0.137-0.135-0.508-0.403-0.478
			C23.627,30.135,23.504,30.403,23.676,30.583z"/>
		<path class="st13" d="M21.687,31.342c0.154,0.16,0.465,0.239,0.589,0.004c0.072-0.137-0.135-0.508-0.403-0.478
			C21.637,30.894,21.514,31.161,21.687,31.342z"/>
		<path class="st13" d="M19.545,32.05c0.154,0.16,0.465,0.239,0.589,0.004c0.072-0.137-0.135-0.508-0.403-0.478
			C19.496,31.602,19.373,31.87,19.545,32.05z"/>
		<path class="st13" d="M17.555,32.809c0.154,0.16,0.465,0.239,0.589,0.004c0.072-0.137-0.135-0.508-0.403-0.478
			C17.506,32.361,17.383,32.628,17.555,32.809z"/>
		<path class="st13" d="M34.158,28.11c0.154,0.16,0.465,0.239,0.589,0.004c0.072-0.137-0.135-0.508-0.403-0.478
			C34.108,27.662,33.985,27.93,34.158,28.11z"/>
		<path class="st13" d="M32.168,28.869c0.154,0.16,0.465,0.239,0.589,0.004c0.072-0.137-0.135-0.508-0.403-0.478
			C32.118,28.421,31.995,28.689,32.168,28.869z"/>
		<path class="st13" d="M30.026,29.577c0.154,0.16,0.465,0.239,0.589,0.004c0.072-0.137-0.135-0.508-0.403-0.478
			C29.977,29.13,29.854,29.397,30.026,29.577z"/>
		<path class="st13" d="M28.036,30.336c0.154,0.16,0.465,0.239,0.589,0.004c0.072-0.137-0.135-0.508-0.403-0.478
			C27.987,29.888,27.864,30.156,28.036,30.336z"/>
		<path class="st13" d="M26.05,31.167c0.154,0.16,0.465,0.239,0.589,0.004c0.072-0.137-0.135-0.508-0.403-0.478
			C26.001,30.719,25.878,30.987,26.05,31.167z"/>
		<path class="st13" d="M24.06,31.926c0.154,0.16,0.465,0.239,0.589,0.004c0.072-0.137-0.135-0.508-0.403-0.478
			C24.011,31.478,23.888,31.745,24.06,31.926z"/>
		<path class="st13" d="M21.919,32.634c0.154,0.16,0.465,0.239,0.589,0.004c0.072-0.137-0.135-0.508-0.403-0.478
			C21.87,32.186,21.747,32.454,21.919,32.634z"/>
		<path class="st13" d="M19.929,33.393c0.154,0.16,0.465,0.239,0.589,0.004c0.072-0.137-0.135-0.508-0.403-0.478
			C19.88,32.945,19.757,33.213,19.929,33.393z"/>
	</g>
	<g>
		<g>
			<g>
				<path class="st14" d="M34.324,21.122c-0.875,0-0.837-0.471-0.837-0.471s0.158-0.275,0.837-0.273
					c0.58,0.002,0.837,0.273,0.837,0.273S35.198,21.122,34.324,21.122z"/>
				<path class="st15" d="M34.666,19.397c-0.259,0.127-0.333,0.453-0.333,0.453s-0.069-0.36-0.442-0.422
					c-0.202-0.034-0.631,0.062-0.631,0.062s0.386,0.328,0.577,0.514c0.192,0.186,0.415,0.101,0.415,0.101s-0.083,0.25-0.069,0.573
					c0.009,0.224,0.4,0.155,0.355,0.028c-0.125-0.351-0.113-0.624-0.113-0.624s0.313-0.112,0.472-0.232
					c0.158-0.119,0.491-0.453,0.491-0.453S34.925,19.269,34.666,19.397z"/>
			</g>
			<g>
				<path class="st14" d="M32.429,20.231c-0.875,0-0.837-0.471-0.837-0.471s0.158-0.275,0.837-0.273
					c0.58,0.002,0.837,0.273,0.837,0.273S33.303,20.231,32.429,20.231z"/>
				<path class="st15" d="M32.771,18.506c-0.259,0.127-0.333,0.453-0.333,0.453s-0.069-0.36-0.442-0.422
					c-0.202-0.034-0.631,0.062-0.631,0.062s0.386,0.328,0.577,0.514c0.192,0.186,0.415,0.101,0.415,0.101s-0.083,0.25-0.069,0.573
					c0.009,0.224,0.4,0.155,0.355,0.028c-0.125-0.351-0.113-0.624-0.113-0.624s0.313-0.112,0.472-0.232
					c0.158-0.119,0.491-0.453,0.491-0.453S33.03,18.378,32.771,18.506z"/>
			</g>
			<g>
				<path class="st14" d="M30.591,19.191c-0.875,0-0.837-0.471-0.837-0.471s0.158-0.275,0.837-0.273
					c0.58,0.002,0.837,0.273,0.837,0.273S31.465,19.191,30.591,19.191z"/>
				<path class="st15" d="M30.933,17.466c-0.259,0.127-0.333,0.453-0.333,0.453s-0.069-0.36-0.442-0.422
					c-0.202-0.034-0.631,0.062-0.631,0.062s0.386,0.328,0.577,0.514c0.192,0.186,0.415,0.101,0.415,0.101s-0.083,0.25-0.069,0.573
					c0.009,0.224,0.4,0.155,0.355,0.028c-0.125-0.351-0.113-0.624-0.113-0.624s0.313-0.112,0.472-0.232
					c0.158-0.119,0.491-0.453,0.491-0.453S31.192,17.338,30.933,17.466z"/>
			</g>
			<g>
				<path class="st14" d="M31.621,22.235c-0.875,0-0.837-0.471-0.837-0.471s0.158-0.275,0.837-0.273
					c0.58,0.002,0.837,0.273,0.837,0.273S32.495,22.235,31.621,22.235z"/>
				<path class="st15" d="M31.962,20.51c-0.259,0.127-0.333,0.453-0.333,0.453s-0.069-0.36-0.442-0.422
					c-0.202-0.034-0.631,0.062-0.631,0.062s0.386,0.328,0.577,0.514c0.192,0.186,0.415,0.101,0.415,0.101s-0.083,0.25-0.069,0.573
					c0.009,0.224,0.4,0.155,0.355,0.028c-0.125-0.351-0.113-0.624-0.113-0.624s0.313-0.112,0.472-0.232
					c0.158-0.119,0.491-0.453,0.491-0.453S32.222,20.382,31.962,20.51z"/>
			</g>
			<g>
				<path class="st14" d="M29.725,21.344c-0.875,0-0.837-0.471-0.837-0.471s0.158-0.275,0.837-0.273
					c0.58,0.002,0.837,0.273,0.837,0.273S30.6,21.344,29.725,21.344z"/>
				<path class="st15" d="M30.067,19.619c-0.259,0.127-0.333,0.453-0.333,0.453s-0.069-0.36-0.442-0.422
					c-0.202-0.034-0.631,0.062-0.631,0.062s0.386,0.328,0.577,0.514c0.192,0.186,0.415,0.101,0.415,0.101s-0.083,0.25-0.069,0.573
					c0.009,0.224,0.4,0.155,0.355,0.028c-0.125-0.351-0.113-0.624-0.113-0.624s0.313-0.112,0.472-0.232
					c0.158-0.119,0.491-0.453,0.491-0.453S30.327,19.491,30.067,19.619z"/>
			</g>
			<g>
				<path class="st14" d="M27.888,20.304c-0.875,0-0.837-0.471-0.837-0.471s0.158-0.275,0.837-0.273
					c0.58,0.002,0.837,0.273,0.837,0.273S28.762,20.304,27.888,20.304z"/>
				<path class="st15" d="M28.229,18.579c-0.259,0.127-0.333,0.453-0.333,0.453s-0.069-0.36-0.442-0.422
					c-0.202-0.034-0.631,0.062-0.631,0.062S27.209,19,27.4,19.186c0.192,0.186,0.415,0.101,0.415,0.101s-0.083,0.25-0.069,0.573
					c0.009,0.224,0.4,0.155,0.355,0.028c-0.125-0.351-0.113-0.624-0.113-0.624s0.313-0.112,0.472-0.232
					c0.158-0.119,0.491-0.453,0.491-0.453S28.489,18.451,28.229,18.579z"/>
			</g>
		</g>
		<g>
			<g>
				<path class="st14" d="M28.824,23.146c-0.875,0-0.837-0.471-0.837-0.471s0.158-0.275,0.837-0.273
					c0.58,0.002,0.837,0.273,0.837,0.273S29.698,23.146,28.824,23.146z"/>
				<path class="st15" d="M29.166,21.421c-0.259,0.127-0.333,0.453-0.333,0.453s-0.069-0.36-0.442-0.422
					c-0.202-0.034-0.631,0.062-0.631,0.062s0.386,0.328,0.577,0.514c0.192,0.186,0.415,0.101,0.415,0.101s-0.083,0.25-0.069,0.573
					c0.009,0.224,0.4,0.155,0.355,0.028c-0.125-0.351-0.113-0.624-0.113-0.624s0.313-0.112,0.472-0.232
					c0.158-0.119,0.491-0.453,0.491-0.453S29.425,21.293,29.166,21.421z"/>
			</g>
			<g>
				<path class="st14" d="M26.929,22.255c-0.875,0-0.837-0.471-0.837-0.471s0.158-0.275,0.837-0.273
					c0.58,0.002,0.837,0.273,0.837,0.273S27.803,22.255,26.929,22.255z"/>
				<path class="st15" d="M27.27,20.53c-0.259,0.127-0.333,0.453-0.333,0.453s-0.069-0.36-0.442-0.422
					c-0.202-0.034-0.631,0.062-0.631,0.062s0.386,0.328,0.577,0.514c0.192,0.186,0.415,0.101,0.415,0.101s-0.083,0.25-0.069,0.573
					c0.009,0.224,0.4,0.155,0.355,0.028c-0.125-0.351-0.113-0.624-0.113-0.624s0.313-0.112,0.472-0.232
					c0.158-0.119,0.491-0.453,0.491-0.453S27.53,20.402,27.27,20.53z"/>
			</g>
			<g>
				<path class="st14" d="M25.091,21.215c-0.875,0-0.837-0.471-0.837-0.471s0.158-0.275,0.837-0.273
					c0.58,0.002,0.837,0.273,0.837,0.273S25.965,21.215,25.091,21.215z"/>
				<path class="st15" d="M25.433,19.49c-0.259,0.127-0.333,0.453-0.333,0.453s-0.069-0.36-0.442-0.422
					c-0.202-0.034-0.631,0.062-0.631,0.062s0.386,0.328,0.577,0.514c0.192,0.186,0.415,0.101,0.415,0.101s-0.083,0.25-0.069,0.573
					c0.009,0.224,0.4,0.155,0.355,0.028c-0.125-0.351-0.113-0.624-0.113-0.624s0.313-0.112,0.472-0.232
					c0.158-0.119,0.491-0.453,0.491-0.453S25.692,19.362,25.433,19.49z"/>
			</g>
			<g>
				<path class="st14" d="M26.12,24.259c-0.875,0-0.837-0.471-0.837-0.471s0.158-0.275,0.837-0.273
					c0.58,0.002,0.837,0.273,0.837,0.273S26.995,24.259,26.12,24.259z"/>
				<path class="st15" d="M26.462,22.534c-0.259,0.127-0.333,0.453-0.333,0.453s-0.069-0.36-0.442-0.422
					c-0.202-0.034-0.631,0.062-0.631,0.062s0.386,0.328,0.577,0.514c0.192,0.186,0.415,0.101,0.415,0.101s-0.083,0.25-0.069,0.573
					c0.009,0.224,0.4,0.155,0.355,0.028c-0.125-0.351-0.113-0.624-0.113-0.624s0.313-0.112,0.472-0.232
					c0.158-0.119,0.491-0.453,0.491-0.453S26.722,22.406,26.462,22.534z"/>
			</g>
			<g>
				<path class="st14" d="M24.225,23.368c-0.875,0-0.837-0.471-0.837-0.471s0.158-0.275,0.837-0.273
					c0.58,0.002,0.837,0.273,0.837,0.273S25.1,23.368,24.225,23.368z"/>
				<path class="st15" d="M24.567,21.643c-0.259,0.127-0.333,0.453-0.333,0.453s-0.069-0.36-0.442-0.422
					c-0.202-0.034-0.631,0.062-0.631,0.062s0.386,0.328,0.577,0.514c0.192,0.186,0.415,0.101,0.415,0.101s-0.083,0.25-0.069,0.573
					c0.009,0.224,0.4,0.155,0.355,0.028c-0.125-0.351-0.113-0.624-0.113-0.624s0.313-0.112,0.472-0.232
					c0.158-0.119,0.491-0.453,0.491-0.453S24.827,21.515,24.567,21.643z"/>
			</g>
			<g>
				<path class="st14" d="M22.387,22.328c-0.875,0-0.837-0.471-0.837-0.471s0.158-0.275,0.837-0.273
					c0.58,0.002,0.837,0.273,0.837,0.273S23.262,22.328,22.387,22.328z"/>
				<path class="st15" d="M22.729,20.603c-0.259,0.127-0.333,0.453-0.333,0.453s-0.069-0.36-0.442-0.422
					c-0.202-0.034-0.631,0.062-0.631,0.062s0.386,0.328,0.577,0.514c0.192,0.186,0.415,0.101,0.415,0.101s-0.083,0.25-0.069,0.573
					c0.009,0.224,0.4,0.155,0.355,0.028c-0.125-0.351-0.113-0.624-0.113-0.624s0.313-0.112,0.472-0.232
					c0.158-0.119,0.491-0.453,0.491-0.453S22.989,20.475,22.729,20.603z"/>
			</g>
		</g>
		<g>
			<g>
				<path class="st14" d="M23.59,25.261c-0.875,0-0.837-0.471-0.837-0.471s0.158-0.275,0.837-0.273
					c0.58,0.002,0.837,0.273,0.837,0.273S24.465,25.261,23.59,25.261z"/>
				<path class="st15" d="M23.932,23.535c-0.259,0.127-0.333,0.453-0.333,0.453s-0.069-0.36-0.442-0.422
					c-0.202-0.034-0.631,0.062-0.631,0.062s0.386,0.328,0.577,0.514c0.192,0.186,0.415,0.101,0.415,0.101s-0.083,0.25-0.069,0.573
					c0.009,0.224,0.4,0.155,0.355,0.028c-0.125-0.351-0.113-0.624-0.113-0.624s0.313-0.112,0.472-0.232
					c0.158-0.119,0.491-0.453,0.491-0.453S24.192,23.408,23.932,23.535z"/>
			</g>
			<g>
				<path class="st14" d="M21.695,24.37c-0.875,0-0.837-0.471-0.837-0.471s0.158-0.275,0.837-0.273
					c0.58,0.002,0.837,0.273,0.837,0.273S22.57,24.37,21.695,24.37z"/>
				<path class="st15" d="M22.037,22.644c-0.259,0.127-0.333,0.453-0.333,0.453s-0.069-0.36-0.442-0.422
					c-0.202-0.034-0.631,0.062-0.631,0.062s0.386,0.328,0.577,0.514c0.192,0.186,0.415,0.101,0.415,0.101s-0.083,0.25-0.069,0.573
					c0.009,0.224,0.4,0.155,0.355,0.028c-0.125-0.351-0.113-0.624-0.113-0.624s0.313-0.112,0.472-0.232
					c0.158-0.119,0.491-0.453,0.491-0.453S22.297,22.517,22.037,22.644z"/>
			</g>
			<g>
				<path class="st14" d="M19.857,23.33c-0.875,0-0.837-0.471-0.837-0.471s0.158-0.275,0.837-0.273
					c0.58,0.002,0.837,0.273,0.837,0.273S20.732,23.329,19.857,23.33z"/>
				<path class="st15" d="M20.199,21.604c-0.259,0.127-0.333,0.453-0.333,0.453s-0.069-0.36-0.442-0.422
					c-0.202-0.034-0.631,0.062-0.631,0.062s0.386,0.328,0.577,0.514c0.192,0.186,0.415,0.101,0.415,0.101s-0.083,0.25-0.069,0.573
					c0.009,0.224,0.4,0.155,0.355,0.028c-0.125-0.351-0.113-0.624-0.113-0.624s0.313-0.112,0.472-0.232
					c0.158-0.119,0.491-0.453,0.491-0.453S20.459,21.477,20.199,21.604z"/>
			</g>
			<g>
				<path class="st14" d="M20.887,26.374c-0.875,0-0.837-0.471-0.837-0.471s0.158-0.275,0.837-0.273
					c0.58,0.002,0.837,0.273,0.837,0.273S21.761,26.374,20.887,26.374z"/>
				<path class="st15" d="M21.229,24.648c-0.259,0.127-0.333,0.453-0.333,0.453s-0.069-0.36-0.442-0.422
					c-0.202-0.034-0.631,0.062-0.631,0.062s0.386,0.328,0.577,0.514c0.192,0.186,0.415,0.101,0.415,0.101s-0.083,0.25-0.069,0.573
					c0.009,0.224,0.4,0.155,0.355,0.028c-0.125-0.351-0.113-0.624-0.113-0.624s0.313-0.112,0.472-0.232
					c0.158-0.119,0.491-0.453,0.491-0.453S21.488,24.521,21.229,24.648z"/>
			</g>
			<g>
				<path class="st14" d="M18.992,25.483c-0.875,0-0.837-0.471-0.837-0.471s0.158-0.275,0.837-0.273
					c0.58,0.002,0.837,0.273,0.837,0.273S19.867,25.483,18.992,25.483z"/>
				<path class="st15" d="M19.333,23.757C19.074,23.884,19,24.21,19,24.21s-0.069-0.36-0.442-0.422
					c-0.202-0.034-0.631,0.062-0.631,0.062s0.386,0.328,0.577,0.514c0.192,0.186,0.415,0.101,0.415,0.101s-0.083,0.25-0.069,0.573
					c0.009,0.224,0.4,0.155,0.355,0.028c-0.125-0.351-0.113-0.624-0.113-0.624s0.313-0.112,0.472-0.232
					c0.158-0.119,0.491-0.453,0.491-0.453S19.593,23.63,19.333,23.757z"/>
			</g>
			<g>
				<path class="st14" d="M17.154,24.443c-0.875,0-0.837-0.471-0.837-0.471s0.158-0.275,0.837-0.273
					c0.58,0.002,0.837,0.273,0.837,0.273S18.028,24.442,17.154,24.443z"/>
				<path class="st15" d="M17.496,22.717c-0.259,0.127-0.333,0.453-0.333,0.453s-0.069-0.36-0.442-0.422
					c-0.202-0.034-0.631,0.062-0.631,0.062s0.386,0.328,0.577,0.514c0.192,0.186,0.415,0.101,0.415,0.101s-0.083,0.25-0.069,0.573
					c0.009,0.224,0.4,0.155,0.355,0.028c-0.125-0.351-0.113-0.624-0.113-0.624s0.313-0.112,0.472-0.232
					c0.158-0.119,0.491-0.453,0.491-0.453S17.755,22.59,17.496,22.717z"/>
			</g>
		</g>
	</g>
	<g>
		<g>
			<path class="st16" d="M31,10.307c0.395,0,0.715,0.181,0.715,0.403c0,0.223-0.32,0.403-0.715,0.403s-0.715-0.181-0.715-0.403
				S30.605,10.308,31,10.307z"/>
			<path class="st14" d="M31,11.113c-0.543,0-0.654-0.24-0.654-0.24s0.226-0.261,0.694-0.249s0.646,0.199,0.646,0.199
				S31.543,11.113,31,11.113z"/>
			<path class="st12" d="M30.332,10.135c0.012,0.134,0.129,0.297,0.242,0.372c0.124,0.082,0.193,0.009,0.196,0.01
				c0.097,0.04,0.174,0.097,0.241,0.158c-0.014,0.078-0.026,0.111-0.04,0.187c0.043,0.002,0.085,0.015,0.12,0.037
				c0.068-0.271,0.12-0.477,0.106-0.76c-0.002-0.041-0.009-0.081-0.018-0.12c0.097-0.102,0.166-0.268,0.214-0.44
				c0.204-0.156,0.167-0.429,0.104-0.659c-0.137,0.07-0.258,0.217-0.274,0.375c-0.01,0.096,0.021,0.247,0.119,0.286
				c-0.069,0.102-0.117,0.265-0.18,0.371c-0.087-0.208-0.283-0.455-0.32-0.669c-0.007-0.044-0.024-0.225-0.018-0.263
				c0.128,0.006,0.293-0.002,0.356-0.093c0.092-0.133,0.111-0.288,0.076-0.439c-0.182,0.18-0.307,0.276-0.4,0.365
				c0.015-0.229-0.05-0.643-0.234-0.7c-0.002,0-0.004,0.001-0.006,0.002c-0.004-0.007-0.006-0.014-0.01-0.021
				c-0.001-0.001-0.003-0.001-0.003,0.001c0.021,0.197-0.083,0.39-0.029,0.584c0.027,0.096,0.098,0.193,0.194,0.213
				c-0.089,0.301,0.103,0.678,0.159,0.783c0.022,0.042,0.071,0.135,0.086,0.176c-0.118,0.019-0.267-0.053-0.311-0.097
				c0.06-0.222-0.303-0.401-0.458-0.448c0.002,0.235,0.031,0.327,0.12,0.434c0.063,0.076,0.22,0.126,0.298,0.063
				c0.103,0.069,0.271,0.115,0.393,0.118c0.121,0.203,0.027,0.448-0.014,0.663c-0.047-0.06-0.162-0.123-0.229-0.159
				c0.033-0.119,0.041-0.282-0.103-0.331C30.627,10.106,30.39,10.104,30.332,10.135z"/>
		</g>
		<g>
			<path class="st16" d="M32.826,11.034c0.395,0,0.715,0.181,0.715,0.403c0,0.223-0.32,0.403-0.715,0.403s-0.715-0.181-0.715-0.403
				S32.431,11.035,32.826,11.034z"/>
			<path class="st14" d="M32.826,11.84c-0.543,0-0.654-0.24-0.654-0.24s0.226-0.261,0.694-0.249
				c0.468,0.012,0.646,0.199,0.646,0.199S33.369,11.84,32.826,11.84z"/>
			<path class="st12" d="M32.158,10.863c0.012,0.134,0.129,0.297,0.242,0.372c0.124,0.082,0.193,0.009,0.196,0.01
				c0.097,0.04,0.174,0.097,0.241,0.158c-0.014,0.078-0.026,0.111-0.04,0.187c0.043,0.002,0.085,0.015,0.12,0.037
				c0.068-0.271,0.12-0.477,0.106-0.76c-0.002-0.041-0.009-0.081-0.018-0.12c0.097-0.102,0.166-0.268,0.214-0.44
				c0.204-0.156,0.167-0.429,0.104-0.659c-0.136,0.07-0.257,0.217-0.274,0.374c-0.01,0.096,0.021,0.247,0.119,0.286
				c-0.069,0.102-0.117,0.265-0.18,0.371c-0.087-0.208-0.283-0.455-0.32-0.669c-0.007-0.044-0.024-0.225-0.018-0.263
				c0.128,0.006,0.293-0.002,0.356-0.093c0.092-0.133,0.112-0.288,0.076-0.439c-0.182,0.18-0.307,0.276-0.4,0.365
				c0.015-0.229-0.05-0.643-0.234-0.7c-0.002,0-0.004,0.001-0.006,0.002c-0.004-0.007-0.006-0.014-0.01-0.021
				c-0.001-0.001-0.003-0.001-0.003,0.001c0.021,0.197-0.083,0.39-0.029,0.584c0.027,0.096,0.098,0.193,0.194,0.213
				c-0.089,0.301,0.103,0.678,0.159,0.783c0.022,0.042,0.071,0.135,0.086,0.176c-0.118,0.019-0.267-0.053-0.311-0.097
				c0.06-0.222-0.303-0.401-0.458-0.448c0.002,0.235,0.031,0.327,0.12,0.434c0.063,0.076,0.22,0.126,0.298,0.063
				c0.103,0.069,0.271,0.115,0.393,0.118c0.121,0.203,0.027,0.448-0.014,0.663c-0.047-0.06-0.162-0.123-0.229-0.159
				c0.033-0.119,0.041-0.282-0.103-0.331C32.453,10.833,32.216,10.831,32.158,10.863z"/>
		</g>
		<g>
			<path class="st16" d="M34.677,12.034c0.395,0,0.715,0.181,0.715,0.403c0,0.223-0.32,0.403-0.715,0.403s-0.715-0.181-0.715-0.403
				S34.283,12.035,34.677,12.034z"/>
			<path class="st14" d="M34.678,12.84c-0.543,0-0.654-0.24-0.654-0.24s0.226-0.261,0.694-0.249
				c0.468,0.012,0.646,0.199,0.646,0.199S35.221,12.84,34.678,12.84z"/>
			<path class="st12" d="M34.01,11.863c0.012,0.134,0.129,0.297,0.242,0.372c0.124,0.082,0.193,0.009,0.196,0.01
				c0.097,0.04,0.174,0.097,0.241,0.158c-0.014,0.078-0.026,0.111-0.04,0.187c0.043,0.002,0.085,0.015,0.12,0.037
				c0.068-0.271,0.12-0.477,0.106-0.76c-0.002-0.041-0.009-0.081-0.018-0.12c0.097-0.102,0.166-0.268,0.214-0.44
				c0.204-0.156,0.167-0.429,0.104-0.659c-0.136,0.07-0.257,0.217-0.274,0.374c-0.01,0.096,0.021,0.247,0.119,0.286
				c-0.069,0.102-0.117,0.265-0.18,0.371c-0.087-0.208-0.283-0.455-0.32-0.669c-0.007-0.044-0.024-0.225-0.018-0.263
				c0.128,0.006,0.293-0.002,0.356-0.093c0.092-0.133,0.112-0.288,0.076-0.439c-0.182,0.18-0.307,0.276-0.4,0.365
				c0.015-0.229-0.05-0.643-0.234-0.7c-0.002,0-0.004,0.001-0.006,0.002c-0.004-0.007-0.006-0.014-0.01-0.021
				c-0.001-0.001-0.003-0.001-0.003,0.001c0.021,0.197-0.083,0.39-0.029,0.584c0.027,0.096,0.098,0.193,0.194,0.213
				c-0.089,0.301,0.103,0.678,0.159,0.783c0.022,0.042,0.071,0.135,0.086,0.176c-0.118,0.019-0.267-0.053-0.311-0.097
				c0.06-0.222-0.303-0.401-0.458-0.448c0.002,0.235,0.031,0.327,0.12,0.434c0.063,0.076,0.22,0.126,0.298,0.063
				c0.103,0.069,0.271,0.115,0.393,0.118c0.121,0.203,0.027,0.448-0.014,0.663c-0.047-0.06-0.162-0.123-0.229-0.159
				c0.033-0.119,0.041-0.282-0.103-0.331C34.305,11.833,34.067,11.831,34.01,11.863z"/>
		</g>
	</g>
	<g>
		<g>
			<path class="st16" d="M28.036,11.394c0.395,0,0.715,0.181,0.715,0.403c0,0.223-0.32,0.403-0.715,0.403s-0.715-0.181-0.715-0.403
				S27.641,11.394,28.036,11.394z"/>
			<path class="st14" d="M28.037,12.2c-0.543,0-0.654-0.24-0.654-0.24s0.226-0.261,0.694-0.249s0.646,0.199,0.646,0.199
				S28.579,12.2,28.037,12.2z"/>
			<path class="st12" d="M27.368,11.223c0.012,0.134,0.129,0.297,0.242,0.372c0.124,0.082,0.193,0.009,0.196,0.01
				c0.097,0.04,0.174,0.097,0.241,0.158c-0.014,0.078-0.026,0.111-0.04,0.187c0.043,0.002,0.085,0.015,0.12,0.037
				c0.068-0.271,0.12-0.477,0.106-0.76c-0.002-0.041-0.009-0.081-0.018-0.12c0.097-0.102,0.166-0.268,0.214-0.44
				c0.204-0.156,0.167-0.429,0.104-0.659c-0.136,0.07-0.257,0.217-0.274,0.374c-0.01,0.096,0.021,0.247,0.119,0.286
				c-0.069,0.102-0.117,0.265-0.18,0.371c-0.087-0.208-0.283-0.455-0.32-0.669c-0.007-0.044-0.024-0.225-0.018-0.263
				c0.128,0.006,0.293-0.002,0.356-0.093c0.092-0.133,0.112-0.288,0.076-0.439c-0.182,0.18-0.307,0.276-0.4,0.365
				c0.015-0.229-0.05-0.643-0.234-0.7c-0.002,0-0.004,0.001-0.006,0.002c-0.004-0.007-0.006-0.014-0.01-0.021
				c-0.001-0.001-0.003-0.001-0.003,0.001c0.021,0.197-0.083,0.39-0.029,0.584c0.027,0.096,0.098,0.193,0.194,0.213
				c-0.089,0.301,0.103,0.678,0.159,0.783c0.022,0.042,0.071,0.135,0.086,0.176c-0.118,0.019-0.267-0.053-0.311-0.097
				c0.06-0.222-0.303-0.401-0.458-0.448c0.002,0.235,0.031,0.327,0.12,0.434c0.063,0.076,0.22,0.126,0.298,0.063
				c0.103,0.069,0.271,0.115,0.393,0.118c0.121,0.203,0.027,0.448-0.014,0.663c-0.047-0.06-0.162-0.123-0.229-0.159
				c0.033-0.119,0.041-0.282-0.103-0.331C27.664,11.193,27.426,11.19,27.368,11.223z"/>
		</g>
		<g>
			<path class="st16" d="M29.862,12.121c0.395,0,0.715,0.181,0.715,0.403c0,0.223-0.32,0.403-0.715,0.403s-0.715-0.181-0.715-0.403
				S29.467,12.121,29.862,12.121z"/>
			<path class="st14" d="M29.863,12.927c-0.543,0-0.654-0.24-0.654-0.24s0.226-0.261,0.694-0.249s0.646,0.199,0.646,0.199
				S30.405,12.927,29.863,12.927z"/>
			<path class="st12" d="M29.195,11.95c0.012,0.134,0.129,0.297,0.242,0.372c0.124,0.082,0.193,0.009,0.196,0.01
				c0.097,0.04,0.174,0.097,0.241,0.158c-0.014,0.078-0.026,0.111-0.04,0.187c0.043,0.002,0.085,0.015,0.12,0.037
				c0.068-0.271,0.12-0.477,0.106-0.76c-0.002-0.041-0.009-0.081-0.018-0.12c0.097-0.102,0.166-0.268,0.214-0.44
				c0.204-0.156,0.167-0.429,0.104-0.659c-0.136,0.07-0.257,0.217-0.274,0.374c-0.01,0.096,0.021,0.247,0.119,0.286
				c-0.069,0.102-0.117,0.265-0.18,0.371c-0.087-0.208-0.283-0.455-0.32-0.669c-0.007-0.044-0.024-0.225-0.018-0.263
				c0.128,0.006,0.293-0.002,0.356-0.093c0.092-0.133,0.112-0.288,0.076-0.439c-0.182,0.18-0.307,0.276-0.4,0.365
				c0.015-0.229-0.05-0.643-0.234-0.7c-0.002,0-0.004,0.001-0.006,0.002c-0.004-0.007-0.006-0.014-0.01-0.021
				c-0.001-0.001-0.003-0.001-0.003,0.001c0.021,0.197-0.083,0.39-0.029,0.584c0.027,0.096,0.098,0.193,0.194,0.213
				c-0.089,0.301,0.103,0.678,0.159,0.783c0.022,0.042,0.071,0.135,0.086,0.176c-0.118,0.019-0.267-0.053-0.311-0.097
				c0.06-0.222-0.303-0.401-0.458-0.448c0.002,0.235,0.031,0.327,0.12,0.434c0.063,0.076,0.22,0.126,0.298,0.063
				c0.103,0.069,0.271,0.115,0.393,0.118c0.121,0.203,0.027,0.448-0.014,0.663c-0.047-0.06-0.162-0.123-0.229-0.159
				c0.033-0.119,0.041-0.282-0.103-0.331C29.49,11.92,29.252,11.918,29.195,11.95z"/>
		</g>
		<g>
			<path class="st16" d="M31.714,13.121c0.395,0,0.715,0.181,0.715,0.403c0,0.223-0.32,0.403-0.715,0.403s-0.715-0.181-0.715-0.403
				S31.319,13.121,31.714,13.121z"/>
			<path class="st14" d="M31.714,13.927c-0.543,0-0.654-0.24-0.654-0.24s0.226-0.261,0.694-0.249
				c0.468,0.012,0.646,0.199,0.646,0.199S32.257,13.927,31.714,13.927z"/>
			<path class="st12" d="M31.046,12.95c0.012,0.134,0.129,0.297,0.242,0.372c0.124,0.082,0.193,0.009,0.196,0.01
				c0.097,0.04,0.174,0.097,0.241,0.158c-0.014,0.078-0.026,0.111-0.04,0.187c0.043,0.002,0.085,0.015,0.12,0.037
				c0.068-0.271,0.12-0.477,0.106-0.76c-0.002-0.041-0.009-0.081-0.018-0.12c0.097-0.102,0.166-0.268,0.214-0.44
				c0.204-0.156,0.167-0.429,0.104-0.659c-0.136,0.07-0.257,0.217-0.274,0.374c-0.01,0.096,0.021,0.247,0.119,0.286
				c-0.069,0.102-0.117,0.265-0.18,0.371c-0.087-0.208-0.283-0.455-0.32-0.669c-0.007-0.044-0.024-0.225-0.018-0.263
				c0.128,0.006,0.293-0.002,0.356-0.093c0.092-0.133,0.112-0.288,0.076-0.439c-0.182,0.18-0.307,0.276-0.4,0.365
				c0.015-0.229-0.05-0.643-0.234-0.7c-0.002,0-0.004,0.001-0.006,0.002c-0.004-0.007-0.006-0.014-0.01-0.021
				c-0.001-0.001-0.003-0.001-0.003,0.001c0.021,0.197-0.083,0.39-0.029,0.584c0.027,0.096,0.098,0.193,0.194,0.213
				c-0.089,0.301,0.103,0.678,0.159,0.783c0.022,0.042,0.071,0.135,0.086,0.176c-0.118,0.019-0.267-0.053-0.311-0.097
				c0.06-0.222-0.303-0.401-0.458-0.448c0.002,0.235,0.031,0.327,0.12,0.434c0.063,0.076,0.22,0.126,0.298,0.063
				c0.103,0.069,0.271,0.115,0.393,0.118c0.121,0.203,0.027,0.448-0.014,0.663c-0.047-0.06-0.162-0.123-0.229-0.159
				c0.033-0.119,0.041-0.282-0.103-0.331C31.341,12.92,31.104,12.918,31.046,12.95z"/>
		</g>
	</g>
	<g>
		<g>
			<path class="st16" d="M24.952,12.547c0.395,0,0.715,0.181,0.715,0.403c0,0.223-0.32,0.403-0.715,0.403s-0.715-0.181-0.715-0.403
				S24.557,12.548,24.952,12.547z"/>
			<path class="st14" d="M24.953,13.353c-0.543,0-0.654-0.24-0.654-0.24s0.226-0.261,0.694-0.249s0.646,0.199,0.646,0.199
				S25.495,13.353,24.953,13.353z"/>
			<path class="st12" d="M24.285,12.376c0.012,0.134,0.129,0.297,0.242,0.372c0.124,0.082,0.193,0.009,0.196,0.01
				c0.097,0.04,0.174,0.097,0.241,0.158c-0.014,0.078-0.026,0.111-0.04,0.187c0.043,0.002,0.085,0.015,0.12,0.037
				c0.068-0.271,0.12-0.477,0.106-0.76c-0.002-0.041-0.009-0.081-0.018-0.12c0.097-0.102,0.166-0.268,0.214-0.44
				c0.204-0.156,0.167-0.429,0.104-0.659c-0.136,0.07-0.257,0.217-0.274,0.374c-0.01,0.096,0.021,0.247,0.119,0.286
				c-0.069,0.102-0.117,0.265-0.18,0.371c-0.087-0.208-0.283-0.455-0.32-0.669c-0.007-0.044-0.024-0.225-0.018-0.263
				c0.128,0.006,0.293-0.002,0.356-0.093c0.092-0.133,0.112-0.288,0.076-0.439c-0.182,0.18-0.307,0.276-0.4,0.365
				c0.015-0.229-0.05-0.643-0.234-0.7c-0.002,0-0.004,0.001-0.006,0.002c-0.004-0.007-0.006-0.014-0.01-0.021
				c-0.001-0.001-0.003-0.001-0.003,0.001c0.021,0.197-0.083,0.39-0.029,0.584c0.027,0.096,0.098,0.193,0.194,0.213
				c-0.089,0.301,0.103,0.678,0.159,0.783c0.022,0.042,0.071,0.135,0.086,0.176c-0.118,0.019-0.267-0.053-0.311-0.097
				c0.06-0.222-0.303-0.401-0.458-0.448c0.002,0.235,0.031,0.327,0.12,0.434c0.063,0.076,0.22,0.126,0.298,0.063
				c0.103,0.069,0.271,0.115,0.393,0.118c0.121,0.203,0.027,0.448-0.014,0.663c-0.047-0.06-0.162-0.123-0.229-0.159
				c0.033-0.119,0.041-0.282-0.103-0.331C24.58,12.346,24.342,12.344,24.285,12.376z"/>
		</g>
		<g>
			<path class="st16" d="M26.778,13.274c0.395,0,0.715,0.181,0.715,0.403c0,0.223-0.32,0.403-0.715,0.403s-0.715-0.181-0.715-0.403
				S26.384,13.275,26.778,13.274z"/>
			<path class="st14" d="M26.779,14.08c-0.543,0-0.654-0.24-0.654-0.24s0.226-0.261,0.694-0.249s0.646,0.199,0.646,0.199
				S27.321,14.08,26.779,14.08z"/>
			<path class="st12" d="M26.111,13.104c0.012,0.134,0.129,0.297,0.242,0.372c0.124,0.082,0.193,0.009,0.196,0.01
				c0.097,0.04,0.174,0.097,0.241,0.158c-0.014,0.078-0.026,0.111-0.04,0.187c0.043,0.002,0.085,0.015,0.12,0.037
				c0.068-0.271,0.12-0.477,0.106-0.76c-0.002-0.041-0.009-0.081-0.018-0.12c0.097-0.102,0.166-0.268,0.214-0.44
				c0.204-0.156,0.167-0.429,0.104-0.659c-0.136,0.07-0.257,0.217-0.274,0.374c-0.01,0.096,0.021,0.247,0.119,0.286
				c-0.069,0.102-0.117,0.265-0.18,0.371c-0.087-0.208-0.283-0.455-0.32-0.669c-0.007-0.044-0.024-0.225-0.018-0.263
				c0.128,0.006,0.293-0.002,0.356-0.093c0.092-0.133,0.112-0.288,0.076-0.439c-0.182,0.18-0.307,0.276-0.4,0.365
				c0.015-0.229-0.05-0.643-0.234-0.7c-0.002,0-0.004,0.001-0.006,0.002c-0.004-0.007-0.006-0.014-0.01-0.021
				c-0.001-0.001-0.003-0.001-0.003,0.001c0.021,0.197-0.083,0.39-0.029,0.584c0.027,0.096,0.098,0.193,0.194,0.213
				c-0.089,0.301,0.103,0.678,0.159,0.783c0.022,0.042,0.071,0.135,0.086,0.176c-0.118,0.019-0.267-0.053-0.311-0.097
				c0.06-0.222-0.303-0.401-0.458-0.448c0.002,0.235,0.031,0.327,0.12,0.434c0.063,0.076,0.22,0.126,0.298,0.063
				c0.103,0.069,0.271,0.115,0.393,0.118c0.121,0.203,0.027,0.448-0.014,0.663c-0.047-0.06-0.162-0.123-0.229-0.159
				c0.033-0.119,0.041-0.282-0.103-0.331C26.406,13.073,26.168,13.071,26.111,13.104z"/>
		</g>
		<g>
			<path class="st16" d="M28.63,14.275c0.395,0,0.715,0.181,0.715,0.403c0,0.223-0.32,0.403-0.715,0.403s-0.715-0.181-0.715-0.403
				C27.915,14.455,28.235,14.275,28.63,14.275z"/>
			<path class="st14" d="M28.63,15.08c-0.543,0-0.654-0.24-0.654-0.24s0.226-0.261,0.694-0.249s0.646,0.199,0.646,0.199
				S29.173,15.08,28.63,15.08z"/>
			<path class="st12" d="M27.962,14.104c0.012,0.134,0.129,0.297,0.242,0.372c0.124,0.082,0.193,0.009,0.196,0.01
				c0.097,0.04,0.174,0.097,0.241,0.158c-0.014,0.078-0.026,0.111-0.04,0.187c0.043,0.002,0.085,0.015,0.12,0.037
				c0.068-0.271,0.12-0.477,0.106-0.76c-0.002-0.041-0.009-0.081-0.018-0.12c0.097-0.102,0.166-0.268,0.214-0.44
				c0.204-0.156,0.167-0.429,0.104-0.659c-0.136,0.07-0.257,0.217-0.274,0.374c-0.01,0.096,0.021,0.247,0.119,0.286
				c-0.069,0.102-0.117,0.265-0.18,0.371c-0.087-0.208-0.283-0.455-0.32-0.669c-0.007-0.044-0.024-0.225-0.018-0.263
				c0.128,0.006,0.293-0.002,0.356-0.093c0.092-0.133,0.112-0.288,0.076-0.439c-0.182,0.18-0.307,0.276-0.4,0.365
				c0.015-0.229-0.05-0.643-0.234-0.7c-0.002,0-0.004,0.001-0.006,0.002c-0.004-0.007-0.006-0.014-0.01-0.021
				c-0.001-0.001-0.003-0.001-0.003,0.001c0.021,0.197-0.083,0.39-0.029,0.584c0.027,0.096,0.098,0.193,0.194,0.213
				c-0.089,0.301,0.103,0.678,0.159,0.783c0.022,0.042,0.071,0.135,0.086,0.176c-0.118,0.019-0.267-0.053-0.311-0.097
				c0.06-0.222-0.303-0.401-0.458-0.448c0.002,0.235,0.031,0.327,0.12,0.434c0.063,0.076,0.22,0.126,0.298,0.063
				c0.103,0.069,0.271,0.115,0.393,0.118c0.121,0.203,0.027,0.448-0.014,0.663c-0.047-0.06-0.162-0.123-0.229-0.159
				c0.033-0.119,0.041-0.282-0.103-0.331C28.257,14.074,28.02,14.071,27.962,14.104z"/>
		</g>
	</g>
	<g>
		<g>
			<path class="st16" d="M21.988,13.634c0.395,0,0.715,0.181,0.715,0.403c0,0.223-0.32,0.403-0.715,0.403s-0.715-0.181-0.715-0.403
				S21.594,13.635,21.988,13.634z"/>
			<path class="st14" d="M21.989,14.44c-0.543,0-0.654-0.24-0.654-0.24s0.226-0.261,0.694-0.249s0.646,0.199,0.646,0.199
				S22.532,14.44,21.989,14.44z"/>
			<path class="st12" d="M21.321,13.463c0.012,0.134,0.129,0.297,0.242,0.372c0.124,0.082,0.193,0.009,0.196,0.01
				c0.097,0.04,0.174,0.097,0.241,0.158c-0.014,0.078-0.026,0.111-0.04,0.187c0.043,0.002,0.085,0.015,0.12,0.037
				c0.068-0.271,0.12-0.477,0.106-0.76c-0.002-0.041-0.009-0.081-0.018-0.12c0.097-0.102,0.166-0.268,0.214-0.44
				c0.204-0.156,0.167-0.429,0.104-0.659c-0.136,0.07-0.257,0.217-0.274,0.374c-0.01,0.096,0.021,0.247,0.119,0.286
				c-0.069,0.102-0.117,0.265-0.18,0.371c-0.087-0.208-0.283-0.455-0.32-0.669c-0.007-0.044-0.024-0.225-0.018-0.263
				c0.128,0.006,0.293-0.002,0.356-0.093c0.092-0.133,0.111-0.288,0.076-0.439c-0.182,0.18-0.307,0.276-0.4,0.365
				c0.015-0.229-0.05-0.643-0.234-0.7c-0.002,0-0.004,0.001-0.006,0.002c-0.004-0.007-0.006-0.014-0.01-0.021
				c-0.001-0.001-0.003-0.001-0.003,0.001c0.021,0.197-0.083,0.39-0.029,0.584c0.027,0.096,0.098,0.193,0.194,0.213
				c-0.089,0.301,0.103,0.678,0.159,0.783c0.022,0.042,0.071,0.135,0.086,0.176c-0.118,0.019-0.267-0.053-0.311-0.097
				c0.06-0.222-0.303-0.401-0.458-0.448c0.002,0.235,0.031,0.327,0.12,0.434c0.063,0.076,0.22,0.126,0.298,0.063
				c0.103,0.069,0.271,0.115,0.393,0.118c0.121,0.203,0.027,0.448-0.014,0.663c-0.047-0.06-0.162-0.123-0.229-0.159
				c0.033-0.119,0.041-0.282-0.103-0.331C21.616,13.433,21.378,13.431,21.321,13.463z"/>
		</g>
		<g>
			<path class="st16" d="M23.815,14.361c0.395,0,0.715,0.181,0.715,0.403c0,0.223-0.32,0.403-0.715,0.403S23.1,14.986,23.1,14.764
				S23.42,14.362,23.815,14.361z"/>
			<path class="st14" d="M23.815,15.167c-0.543,0-0.654-0.24-0.654-0.24s0.226-0.261,0.694-0.249s0.646,0.199,0.646,0.199
				S24.358,15.167,23.815,15.167z"/>
			<path class="st12" d="M23.147,14.19c0.012,0.134,0.129,0.297,0.242,0.372c0.124,0.082,0.193,0.009,0.196,0.01
				c0.097,0.04,0.174,0.097,0.241,0.158c-0.014,0.078-0.026,0.111-0.04,0.187c0.043,0.002,0.085,0.015,0.12,0.037
				c0.068-0.271,0.12-0.477,0.106-0.76c-0.002-0.041-0.009-0.081-0.018-0.12c0.097-0.102,0.166-0.268,0.214-0.44
				c0.204-0.156,0.167-0.429,0.104-0.659c-0.136,0.07-0.257,0.217-0.274,0.374c-0.01,0.096,0.021,0.247,0.119,0.286
				c-0.069,0.102-0.117,0.265-0.18,0.371c-0.087-0.208-0.283-0.455-0.32-0.669c-0.007-0.044-0.024-0.225-0.018-0.263
				c0.128,0.006,0.293-0.002,0.356-0.093c0.092-0.133,0.111-0.288,0.076-0.439c-0.182,0.18-0.307,0.276-0.4,0.365
				c0.015-0.229-0.05-0.643-0.234-0.7c-0.002,0-0.004,0.001-0.006,0.002c-0.004-0.007-0.006-0.014-0.01-0.021
				c-0.001-0.001-0.003-0.001-0.003,0.001c0.021,0.197-0.083,0.39-0.029,0.584c0.027,0.096,0.098,0.193,0.194,0.213
				c-0.089,0.301,0.103,0.678,0.159,0.783c0.022,0.042,0.071,0.135,0.086,0.176c-0.118,0.019-0.267-0.053-0.311-0.097
				c0.06-0.222-0.303-0.401-0.458-0.448c0.002,0.235,0.031,0.327,0.12,0.434c0.063,0.076,0.22,0.126,0.298,0.063
				c0.103,0.069,0.271,0.115,0.393,0.118c0.121,0.203,0.027,0.448-0.014,0.663c-0.047-0.06-0.162-0.123-0.229-0.159
				c0.033-0.119,0.041-0.282-0.103-0.331C23.442,14.16,23.205,14.158,23.147,14.19z"/>
		</g>
		<g>
			<path class="st16" d="M25.666,15.361c0.395,0,0.715,0.181,0.715,0.403c0,0.223-0.32,0.403-0.715,0.403s-0.715-0.181-0.715-0.403
				S25.271,15.362,25.666,15.361z"/>
			<path class="st14" d="M25.667,16.167c-0.543,0-0.654-0.24-0.654-0.24s0.226-0.261,0.694-0.249s0.646,0.199,0.646,0.199
				S26.209,16.167,25.667,16.167z"/>
			<path class="st12" d="M24.999,15.19c0.012,0.134,0.129,0.297,0.242,0.372c0.124,0.082,0.193,0.009,0.196,0.01
				c0.097,0.04,0.174,0.097,0.241,0.158c-0.014,0.078-0.026,0.111-0.04,0.187c0.043,0.002,0.085,0.015,0.12,0.037
				c0.068-0.271,0.12-0.477,0.106-0.76c-0.002-0.041-0.009-0.081-0.018-0.12c0.097-0.102,0.166-0.268,0.214-0.44
				c0.204-0.156,0.167-0.429,0.104-0.659c-0.136,0.07-0.257,0.217-0.274,0.374c-0.01,0.096,0.021,0.247,0.119,0.286
				c-0.069,0.102-0.117,0.265-0.18,0.371c-0.087-0.208-0.283-0.455-0.32-0.669c-0.007-0.044-0.024-0.225-0.018-0.263
				c0.128,0.006,0.293-0.002,0.356-0.093c0.092-0.133,0.111-0.288,0.076-0.439c-0.182,0.18-0.307,0.276-0.4,0.365
				c0.015-0.229-0.05-0.643-0.234-0.7c-0.002,0-0.004,0.001-0.006,0.002c-0.004-0.007-0.006-0.014-0.01-0.021
				c-0.001-0.001-0.003-0.001-0.003,0.001c0.021,0.197-0.083,0.39-0.029,0.584c0.027,0.096,0.098,0.193,0.194,0.213
				c-0.089,0.301,0.103,0.678,0.159,0.783c0.022,0.042,0.071,0.135,0.086,0.176c-0.118,0.019-0.267-0.053-0.311-0.097
				c0.06-0.222-0.303-0.401-0.458-0.448c0.002,0.235,0.031,0.327,0.12,0.434c0.063,0.076,0.22,0.126,0.298,0.063
				c0.103,0.069,0.271,0.115,0.393,0.118c0.121,0.203,0.027,0.448-0.014,0.663c-0.047-0.06-0.162-0.123-0.229-0.159
				c0.033-0.119,0.041-0.282-0.103-0.331C25.294,15.16,25.056,15.158,24.999,15.19z"/>
		</g>
	</g>
	<g>
		<g>
			<path class="st16" d="M18.573,14.959c0.395,0,0.715,0.181,0.715,0.403c0,0.223-0.32,0.403-0.715,0.403s-0.715-0.181-0.715-0.403
				C17.858,15.139,18.178,14.959,18.573,14.959z"/>
			<path class="st14" d="M18.573,15.764c-0.543,0-0.654-0.24-0.654-0.24s0.226-0.261,0.694-0.249s0.646,0.199,0.646,0.199
				S19.116,15.764,18.573,15.764z"/>
			<path class="st12" d="M17.905,14.788c0.012,0.134,0.129,0.297,0.242,0.372c0.124,0.082,0.193,0.009,0.196,0.01
				c0.097,0.04,0.174,0.097,0.241,0.158c-0.014,0.078-0.026,0.111-0.04,0.187c0.043,0.002,0.085,0.015,0.12,0.037
				c0.068-0.271,0.12-0.477,0.106-0.76c-0.002-0.041-0.009-0.081-0.018-0.12c0.097-0.102,0.166-0.268,0.214-0.44
				c0.204-0.156,0.167-0.429,0.104-0.659c-0.136,0.07-0.257,0.217-0.274,0.374c-0.01,0.096,0.021,0.247,0.119,0.286
				c-0.069,0.102-0.117,0.265-0.18,0.371c-0.087-0.208-0.283-0.455-0.32-0.669c-0.007-0.044-0.024-0.225-0.018-0.263
				c0.128,0.006,0.293-0.002,0.356-0.093c0.092-0.133,0.111-0.288,0.076-0.439c-0.182,0.18-0.307,0.276-0.4,0.365
				c0.015-0.229-0.05-0.643-0.234-0.7c-0.002,0-0.004,0.001-0.006,0.002c-0.004-0.007-0.006-0.014-0.01-0.021
				c-0.001-0.001-0.003-0.001-0.003,0.001c0.021,0.197-0.083,0.39-0.029,0.584c0.027,0.096,0.098,0.193,0.194,0.213
				c-0.089,0.301,0.103,0.678,0.159,0.783c0.022,0.042,0.071,0.135,0.086,0.176c-0.118,0.019-0.267-0.053-0.311-0.097
				c0.06-0.222-0.303-0.401-0.458-0.448c0.002,0.235,0.031,0.327,0.12,0.434c0.063,0.076,0.22,0.126,0.298,0.063
				c0.103,0.069,0.271,0.115,0.393,0.118c0.121,0.203,0.027,0.448-0.014,0.663c-0.047-0.06-0.162-0.123-0.229-0.159
				c0.033-0.119,0.041-0.282-0.103-0.331C18.2,14.758,17.963,14.755,17.905,14.788z"/>
		</g>
		<g>
			<path class="st16" d="M20.399,15.686c0.395,0,0.715,0.181,0.715,0.403c0,0.223-0.32,0.403-0.715,0.403s-0.715-0.181-0.715-0.403
				C19.684,15.866,20.004,15.686,20.399,15.686z"/>
			<path class="st14" d="M20.399,16.491c-0.543,0-0.654-0.24-0.654-0.24s0.226-0.261,0.694-0.249
				c0.468,0.012,0.646,0.199,0.646,0.199S20.942,16.491,20.399,16.491z"/>
			<path class="st12" d="M19.731,15.515c0.012,0.134,0.129,0.297,0.242,0.372c0.124,0.082,0.193,0.009,0.196,0.01
				c0.097,0.04,0.174,0.097,0.241,0.158c-0.014,0.078-0.026,0.111-0.04,0.187c0.043,0.002,0.085,0.015,0.12,0.037
				c0.068-0.271,0.12-0.477,0.106-0.76c-0.002-0.041-0.009-0.081-0.018-0.12c0.097-0.102,0.166-0.268,0.214-0.44
				c0.204-0.156,0.167-0.429,0.104-0.659c-0.136,0.07-0.257,0.217-0.274,0.374c-0.01,0.096,0.021,0.247,0.119,0.286
				c-0.069,0.102-0.117,0.265-0.18,0.371c-0.087-0.208-0.283-0.455-0.32-0.669c-0.007-0.044-0.024-0.225-0.018-0.263
				c0.128,0.006,0.293-0.002,0.356-0.093c0.092-0.133,0.111-0.288,0.076-0.439c-0.182,0.18-0.307,0.276-0.4,0.365
				c0.015-0.229-0.05-0.643-0.234-0.7c-0.002,0-0.004,0.001-0.006,0.002c-0.004-0.007-0.006-0.014-0.01-0.021
				c-0.001-0.001-0.003-0.001-0.003,0.001c0.021,0.197-0.083,0.39-0.029,0.584c0.027,0.096,0.098,0.193,0.194,0.213
				c-0.089,0.301,0.103,0.678,0.159,0.783c0.022,0.042,0.071,0.135,0.086,0.176c-0.118,0.019-0.267-0.053-0.311-0.097
				c0.06-0.222-0.303-0.401-0.458-0.448c0.002,0.235,0.031,0.327,0.12,0.434c0.063,0.076,0.22,0.126,0.298,0.063
				c0.103,0.069,0.271,0.115,0.393,0.118c0.121,0.203,0.027,0.448-0.014,0.663c-0.047-0.06-0.162-0.123-0.229-0.159
				c0.033-0.119,0.041-0.282-0.103-0.331C20.027,15.485,19.789,15.482,19.731,15.515z"/>
		</g>
		<g>
			<path class="st16" d="M22.251,16.686c0.395,0,0.715,0.181,0.715,0.403c0,0.223-0.32,0.403-0.715,0.403s-0.715-0.181-0.715-0.403
				S21.856,16.686,22.251,16.686z"/>
			<path class="st14" d="M22.251,17.491c-0.543,0-0.654-0.24-0.654-0.24s0.226-0.261,0.694-0.249s0.646,0.199,0.646,0.199
				S22.794,17.491,22.251,17.491z"/>
			<path class="st12" d="M21.583,16.515c0.012,0.134,0.129,0.297,0.242,0.372c0.124,0.082,0.193,0.009,0.196,0.01
				c0.097,0.04,0.174,0.097,0.241,0.158c-0.014,0.078-0.026,0.111-0.04,0.187c0.043,0.002,0.085,0.015,0.12,0.037
				c0.068-0.271,0.12-0.477,0.106-0.76c-0.002-0.041-0.009-0.081-0.018-0.12c0.097-0.102,0.166-0.268,0.214-0.44
				c0.204-0.156,0.167-0.429,0.104-0.659c-0.136,0.07-0.257,0.217-0.274,0.374c-0.01,0.096,0.021,0.247,0.119,0.286
				c-0.069,0.102-0.117,0.265-0.18,0.371c-0.087-0.208-0.283-0.455-0.32-0.669c-0.007-0.044-0.024-0.225-0.018-0.263
				c0.128,0.006,0.293-0.002,0.356-0.093c0.092-0.133,0.111-0.288,0.076-0.439c-0.182,0.18-0.307,0.276-0.4,0.365
				c0.015-0.229-0.05-0.643-0.234-0.7c-0.002,0-0.004,0.001-0.006,0.002c-0.004-0.007-0.006-0.014-0.01-0.021
				c-0.001-0.001-0.003-0.001-0.003,0.001c0.021,0.197-0.083,0.39-0.029,0.584c0.027,0.096,0.098,0.193,0.194,0.213
				c-0.089,0.301,0.103,0.678,0.159,0.783c0.022,0.042,0.071,0.135,0.086,0.176c-0.118,0.019-0.267-0.053-0.311-0.097
				c0.06-0.222-0.303-0.401-0.458-0.448c0.002,0.235,0.031,0.327,0.12,0.434c0.063,0.076,0.22,0.126,0.298,0.063
				c0.103,0.069,0.271,0.115,0.393,0.118c0.121,0.203,0.027,0.448-0.014,0.663c-0.047-0.06-0.162-0.123-0.229-0.159
				c0.033-0.119,0.041-0.282-0.103-0.331C21.878,16.485,21.641,16.482,21.583,16.515z"/>
		</g>
	</g>
	<g>
		<g>
			<path class="st16" d="M15.609,16.045c0.395,0,0.715,0.181,0.715,0.403c0,0.223-0.32,0.403-0.715,0.403
				c-0.395,0-0.715-0.181-0.715-0.403S15.214,16.046,15.609,16.045z"/>
			<path class="st14" d="M15.61,16.851c-0.543,0-0.654-0.24-0.654-0.24s0.226-0.261,0.694-0.249
				c0.468,0.012,0.646,0.199,0.646,0.199S16.152,16.851,15.61,16.851z"/>
			<path class="st12" d="M14.942,15.875c0.012,0.134,0.129,0.297,0.242,0.372c0.124,0.082,0.193,0.009,0.196,0.01
				c0.097,0.04,0.174,0.097,0.241,0.158c-0.014,0.078-0.026,0.111-0.04,0.187c0.043,0.002,0.085,0.015,0.12,0.037
				c0.068-0.271,0.12-0.477,0.106-0.76c-0.002-0.041-0.009-0.081-0.018-0.12c0.097-0.102,0.166-0.268,0.214-0.44
				c0.204-0.156,0.167-0.429,0.104-0.659c-0.136,0.07-0.257,0.217-0.274,0.374c-0.01,0.096,0.021,0.247,0.119,0.286
				c-0.069,0.102-0.117,0.265-0.18,0.371c-0.087-0.208-0.283-0.455-0.32-0.669c-0.007-0.044-0.024-0.225-0.018-0.263
				c0.128,0.006,0.293-0.002,0.356-0.093c0.092-0.133,0.112-0.288,0.076-0.439c-0.182,0.18-0.307,0.276-0.4,0.365
				c0.015-0.229-0.05-0.643-0.234-0.7c-0.002,0-0.004,0.001-0.006,0.002c-0.004-0.007-0.006-0.014-0.01-0.021
				c-0.001-0.001-0.003-0.001-0.003,0.001c0.021,0.197-0.083,0.39-0.029,0.584c0.027,0.096,0.098,0.193,0.194,0.213
				c-0.089,0.301,0.103,0.678,0.159,0.783c0.022,0.042,0.071,0.135,0.086,0.176c-0.118,0.019-0.267-0.053-0.311-0.097
				c0.06-0.222-0.303-0.401-0.458-0.448c0.002,0.235,0.031,0.327,0.12,0.434c0.063,0.076,0.22,0.126,0.298,0.063
				c0.103,0.069,0.271,0.115,0.393,0.118c0.121,0.203,0.027,0.448-0.014,0.663c-0.047-0.06-0.162-0.123-0.229-0.159
				c0.033-0.119,0.041-0.282-0.103-0.331C15.237,15.844,14.999,15.842,14.942,15.875z"/>
		</g>
		<g>
			<path class="st16" d="M17.435,16.773c0.395,0,0.715,0.181,0.715,0.403c0,0.223-0.32,0.403-0.715,0.403s-0.715-0.181-0.715-0.403
				C16.72,16.953,17.04,16.773,17.435,16.773z"/>
			<path class="st14" d="M17.436,17.578c-0.543,0-0.654-0.24-0.654-0.24s0.226-0.261,0.694-0.249s0.646,0.199,0.646,0.199
				S17.979,17.578,17.436,17.578z"/>
			<path class="st12" d="M16.768,16.602c0.012,0.134,0.129,0.297,0.242,0.372c0.124,0.082,0.193,0.009,0.196,0.01
				c0.097,0.04,0.174,0.097,0.241,0.158c-0.014,0.078-0.026,0.111-0.04,0.187c0.043,0.002,0.085,0.015,0.12,0.037
				c0.068-0.271,0.12-0.477,0.106-0.76c-0.002-0.041-0.009-0.081-0.018-0.12c0.097-0.102,0.166-0.268,0.214-0.44
				c0.204-0.156,0.167-0.429,0.104-0.659c-0.136,0.07-0.257,0.217-0.274,0.374c-0.01,0.096,0.021,0.247,0.119,0.286
				c-0.069,0.102-0.117,0.265-0.18,0.371c-0.087-0.208-0.283-0.455-0.32-0.669c-0.007-0.044-0.024-0.225-0.018-0.263
				c0.128,0.006,0.293-0.002,0.356-0.093c0.092-0.133,0.112-0.288,0.076-0.439c-0.182,0.18-0.307,0.276-0.4,0.365
				c0.015-0.229-0.05-0.643-0.234-0.7c-0.002,0-0.004,0.001-0.006,0.002c-0.004-0.007-0.006-0.014-0.01-0.021
				c-0.001-0.001-0.003-0.001-0.003,0.001c0.021,0.197-0.083,0.39-0.029,0.584c0.027,0.096,0.098,0.193,0.194,0.213
				c-0.089,0.301,0.103,0.678,0.159,0.783c0.022,0.042,0.071,0.135,0.086,0.176c-0.118,0.019-0.267-0.053-0.311-0.097
				c0.06-0.222-0.303-0.401-0.458-0.448c0.002,0.235,0.031,0.327,0.12,0.434c0.063,0.076,0.22,0.126,0.298,0.063
				c0.103,0.069,0.271,0.115,0.393,0.118c0.121,0.203,0.027,0.448-0.014,0.663c-0.047-0.06-0.162-0.123-0.229-0.159
				c0.033-0.119,0.041-0.282-0.103-0.331C17.063,16.572,16.825,16.569,16.768,16.602z"/>
		</g>
		<g>
			<path class="st16" d="M19.287,17.773c0.395,0,0.715,0.181,0.715,0.403c0,0.223-0.32,0.403-0.715,0.403s-0.715-0.181-0.715-0.403
				C18.572,17.953,18.892,17.773,19.287,17.773z"/>
			<path class="st14" d="M19.287,18.578c-0.543,0-0.654-0.24-0.654-0.24s0.226-0.261,0.694-0.249s0.646,0.199,0.646,0.199
				S19.83,18.578,19.287,18.578z"/>
			<path class="st12" d="M18.619,17.602c0.012,0.134,0.129,0.297,0.242,0.372c0.124,0.082,0.193,0.009,0.196,0.01
				c0.097,0.04,0.174,0.097,0.241,0.158c-0.014,0.078-0.026,0.111-0.04,0.187c0.043,0.002,0.085,0.015,0.12,0.037
				c0.068-0.271,0.12-0.477,0.106-0.76c-0.002-0.041-0.009-0.081-0.018-0.12c0.097-0.102,0.166-0.268,0.214-0.44
				c0.204-0.156,0.167-0.429,0.104-0.659c-0.136,0.07-0.257,0.217-0.274,0.374c-0.01,0.096,0.021,0.247,0.119,0.286
				c-0.069,0.102-0.117,0.265-0.18,0.371c-0.087-0.208-0.283-0.455-0.32-0.669c-0.007-0.044-0.024-0.225-0.018-0.263
				c0.128,0.006,0.293-0.002,0.356-0.093c0.092-0.133,0.112-0.288,0.076-0.439c-0.182,0.18-0.307,0.276-0.4,0.365
				c0.015-0.229-0.05-0.643-0.234-0.7c-0.002,0-0.004,0.001-0.006,0.002c-0.004-0.007-0.006-0.014-0.01-0.021
				c-0.001-0.001-0.003-0.001-0.003,0.001c0.021,0.197-0.083,0.39-0.029,0.584c0.027,0.096,0.098,0.193,0.194,0.213
				c-0.089,0.301,0.103,0.678,0.159,0.783c0.022,0.042,0.071,0.135,0.086,0.176c-0.118,0.019-0.267-0.053-0.311-0.097
				c0.06-0.222-0.303-0.401-0.458-0.448c0.002,0.235,0.031,0.327,0.12,0.434c0.063,0.076,0.22,0.126,0.298,0.063
				c0.103,0.069,0.271,0.115,0.393,0.118c0.121,0.203,0.027,0.448-0.014,0.663c-0.047-0.06-0.162-0.123-0.229-0.159
				c0.033-0.119,0.041-0.282-0.103-0.331C18.914,17.572,18.677,17.569,18.619,17.602z"/>
		</g>
	</g>
	<g>
		<polygon class="st1" points="9.664,9.026 17.349,12.462 38.615,4.577 30.93,1.142 		"/>
		<polygon class="st8" points="17.349,13.199 17.349,12.462 38.615,4.577 38.615,5.315 		"/>
		<polygon class="st3" points="17.349,13.199 17.349,12.462 9.664,9.026 9.664,9.764 		"/>
	</g>
	<g>
		<polygon class="st1" points="9.254,9.193 13.367,11.006 13.777,10.84 9.664,9.026 		"/>
		<polygon class="st2" points="13.367,46.646 13.367,11.006 13.777,10.84 13.777,46.458 		"/>
	</g>
	<g>
		<polygon class="st4" points="13.367,11.006 13.367,36.515 16.939,38.114 17.349,37.926 17.349,12.439 13.777,10.84 		"/>
		<g class="st5">
			<polygon class="st6" points="13.367,11.006 16.939,12.605 17.349,12.439 13.777,10.84 			"/>
			<polygon class="st6" points="16.939,38.114 16.939,12.605 17.349,12.439 17.349,37.926 			"/>
		</g>
	</g>
	<g>
		<g class="st17">
			<polygon class="st18" points="27.982,34.006 38.615,30.053 38.615,4.555 27.982,8.497 			"/>
		</g>
		<g>
			<g class="st17">
				<polygon class="st18" points="17.349,37.948 27.982,33.995 27.982,8.497 17.349,12.439 				"/>
			</g>
			<g>
				<path class="st3" d="M27.778,8.813l0,25.063l-10.225,3.801l0-25.073L27.778,8.813 M27.982,8.519l-10.633,3.943l0,25.508
					l10.633-3.953L27.982,8.519L27.982,8.519z"/>
			</g>
			<g>
				<path class="st3" d="M38.411,4.871v25.063l-10.225,3.801l0-25.073L38.411,4.871 M38.615,4.577L27.982,8.52l0,25.508
					l10.633-3.953V4.577L38.615,4.577z"/>
			</g>
		</g>
	</g>
	<polygon class="st3" points="9.254,9.193 9.254,44.833 13.367,46.646 16.939,48.245 16.939,38.114 13.367,36.515 13.367,11.006 	
		"/>
</g>
</svg>
