<?xml version="1.0" encoding="utf-8"?>
<!-- Generator: Adobe Illustrator 25.4.1, SVG Export Plug-In . SVG Version: 6.00 Build 0)  -->
<svg version="1.1" id="Layer_1" xmlns="http://www.w3.org/2000/svg" xmlns:xlink="http://www.w3.org/1999/xlink" x="0px" y="0px"
	 viewBox="0 0 50 50" style="enable-background:new 0 0 50 50;" xml:space="preserve">
<style type="text/css">
	.st0{opacity:0.12;fill:#292929;}
	.st1{fill:#686868;}
	.st2{fill:#444444;}
	.st3{fill:#2D2D2D;}
	.st4{opacity:0.16;fill:#B7FFFF;}
	.st5{opacity:0.4;}
	.st6{fill:#FFFFFF;}
	.st7{fill:#323232;}
	.st8{fill:#8C8C8C;}
	.st9{fill:#442E3A;}
	.st10{fill:#72BEF7;}
	.st11{fill:#537F14;}
	.st12{fill:#94C144;}
	.st13{fill:#A8D150;}
	.st14{fill:#6B4832;}
	.st15{fill:#7DAF35;}
	.st16{fill:#ADA193;}
	.st17{opacity:0.16;}
	.st18{fill:#B7FFFF;}
</style>
<g>
	<polygon class="st0" points="16.367,36.157 7.175,40.267 32.612,49.697 41.805,45.588 	"/>
	<g>
		<polygon class="st1" points="17.64,0.975 13.526,2.789 13.937,2.955 18.05,1.142 		"/>
		<polygon class="st2" points="13.526,38.407 13.526,2.789 13.937,2.955 13.937,38.596 		"/>
		<polygon class="st3" points="18.05,36.782 18.05,1.142 13.937,2.955 13.937,38.596 		"/>
	</g>
	<g>
		<polygon class="st4" points="13.526,2.789 9.954,4.388 9.954,29.875 10.365,30.064 13.937,28.465 13.937,2.955 		"/>
		<g class="st5">
			<polygon class="st6" points="13.526,2.789 9.954,4.388 10.365,4.555 13.937,2.955 			"/>
			<polygon class="st6" points="9.954,29.875 9.954,4.388 10.365,4.555 10.365,30.064 			"/>
		</g>
	</g>
	<g>
		<polygon class="st1" points="18.05,26.628 10.365,30.064 31.631,37.948 39.316,34.512 		"/>
		<polygon class="st7" points="9.954,39.982 9.954,29.875 32.041,38.114 32.041,48.222 		"/>
	</g>
	<g>
		<polygon class="st1" points="18.05,24.91 10.365,28.346 31.631,36.23 39.316,32.794 		"/>
		<polygon class="st8" points="10.365,29.084 10.365,28.346 31.631,36.23 31.631,36.968 		"/>
		<polygon class="st3" points="39.316,33.532 39.316,32.794 31.631,36.23 31.631,36.968 		"/>
	</g>
	<g>
		<polygon class="st9" points="10.836,32.609 13.055,33.434 13.055,31.841 10.836,31.016 		"/>
		<polygon class="st10" points="11.757,31.532 11.757,32.739 12.863,33.15 12.863,31.943 		"/>
		<path class="st6" d="M11.425,32.238c0.049,0.094,0.029,0.211-0.045,0.261c-0.074,0.05-0.173,0.013-0.222-0.081
			c-0.049-0.094-0.029-0.211,0.045-0.261C11.277,32.107,11.376,32.144,11.425,32.238z"/>
		<path class="st6" d="M11.425,31.603c0.049,0.094,0.029,0.211-0.045,0.261c-0.074,0.05-0.173,0.013-0.222-0.081
			c-0.049-0.094-0.029-0.211,0.045-0.261C11.277,31.472,11.376,31.509,11.425,31.603z"/>
	</g>
	<g>
		<polygon class="st1" points="18.05,16.987 10.365,20.423 31.631,28.307 39.316,24.872 		"/>
		<polygon class="st8" points="10.365,21.161 10.365,20.423 31.631,28.307 31.631,29.045 		"/>
		<polygon class="st3" points="39.316,25.609 39.316,24.872 31.631,28.307 31.631,29.045 		"/>
	</g>
	<g>
		<polygon class="st1" points="18.05,9.064 10.365,12.5 31.631,20.384 39.316,16.949 		"/>
		<polygon class="st8" points="10.365,13.238 10.365,12.5 31.631,20.384 31.631,21.122 		"/>
		<polygon class="st3" points="39.316,17.687 39.316,16.949 31.631,20.384 31.631,21.122 		"/>
	</g>
	<polygon class="st1" points="35.203,36.349 31.631,37.948 32.041,38.114 35.613,36.515 	"/>
	<path class="st11" d="M34.042,31.63c-0.016-0.038-0.047-0.067-0.064-0.104c-0.044-0.096-0.037-0.177-0.045-0.284
		c-0.004-0.057,0.002-0.107-0.035-0.157c-0.043-0.056-0.107-0.065-0.17-0.055c-0.018-0.054-0.043-0.107-0.082-0.154
		c-0.101-0.123-0.172-0.311-0.322-0.385c-0.069-0.034-0.119-0.027-0.192-0.025c-0.104,0.003-0.194-0.03-0.295-0.031
		c-0.145-0.001-0.312,0.112-0.375,0.256c-0.064-0.041-0.144-0.058-0.232-0.034c-0.107,0.029-0.15,0.096-0.191,0.189
		c-0.016-0.026-0.036-0.051-0.048-0.078c-0.044-0.096-0.037-0.177-0.045-0.284c-0.004-0.057,0.002-0.107-0.035-0.157
		c-0.043-0.056-0.107-0.065-0.17-0.055c-0.018-0.054-0.043-0.107-0.082-0.154c-0.101-0.123-0.172-0.311-0.322-0.385
		c-0.069-0.034-0.119-0.027-0.192-0.025c-0.104,0.003-0.194-0.03-0.295-0.031c-0.145-0.001-0.312,0.112-0.375,0.256
		c-0.064-0.041-0.144-0.058-0.232-0.034c-0.112,0.03-0.153,0.101-0.197,0.2c-0.031,0.071-0.069,0.139-0.106,0.208
		c0.003-0.046-0.003-0.093-0.024-0.143c-0.016-0.038-0.047-0.067-0.064-0.104c-0.044-0.096-0.037-0.177-0.045-0.284
		c-0.004-0.057,0.002-0.107-0.035-0.157c-0.043-0.056-0.107-0.065-0.17-0.055c-0.018-0.054-0.043-0.107-0.082-0.154
		c-0.101-0.123-0.172-0.311-0.322-0.385C29.123,28.991,29.073,28.998,29,29c-0.104,0.003-0.194-0.03-0.295-0.031
		c-0.145-0.001-0.312,0.112-0.375,0.256c-0.064-0.041-0.144-0.058-0.232-0.034c-0.107,0.029-0.15,0.096-0.191,0.189
		c-0.016-0.026-0.036-0.051-0.048-0.078c-0.044-0.096-0.037-0.177-0.045-0.284c-0.004-0.057,0.002-0.107-0.035-0.157
		c-0.043-0.056-0.107-0.065-0.17-0.055c-0.018-0.054-0.043-0.107-0.082-0.154c-0.101-0.123-0.172-0.311-0.322-0.385
		c-0.069-0.034-0.119-0.027-0.192-0.025c-0.104,0.003-0.194-0.03-0.295-0.031c-0.145-0.001-0.312,0.112-0.375,0.256
		c-0.064-0.041-0.144-0.058-0.232-0.034c-0.09,0.024-0.134,0.075-0.17,0.146c-0.001-0.001-0.001-0.003-0.001-0.004
		c-0.016-0.038-0.047-0.067-0.064-0.104c-0.044-0.096-0.037-0.177-0.045-0.284c-0.004-0.057,0.002-0.107-0.035-0.157
		c-0.043-0.056-0.107-0.065-0.17-0.055c-0.018-0.054-0.043-0.107-0.082-0.154c-0.101-0.123-0.172-0.311-0.322-0.385
		c-0.069-0.034-0.119-0.027-0.192-0.025c-0.104,0.003-0.194-0.03-0.295-0.031c-0.145-0.001-0.312,0.112-0.375,0.256
		c-0.064-0.041-0.144-0.058-0.232-0.034c-0.107,0.029-0.15,0.096-0.191,0.189c-0.016-0.026-0.036-0.051-0.048-0.078
		c-0.044-0.096-0.037-0.177-0.045-0.284c-0.004-0.057,0.002-0.107-0.035-0.157c-0.043-0.056-0.107-0.065-0.17-0.055
		c-0.018-0.054-0.043-0.106-0.082-0.154c-0.101-0.123-0.172-0.311-0.322-0.385c-0.069-0.034-0.119-0.027-0.192-0.025
		c-0.104,0.003-0.194-0.03-0.295-0.031c-0.145-0.001-0.312,0.112-0.375,0.256c-0.064-0.041-0.144-0.058-0.232-0.034
		c-0.112,0.03-0.153,0.101-0.197,0.2c-0.031,0.071-0.069,0.139-0.106,0.208c0.003-0.046-0.003-0.093-0.024-0.143
		c-0.016-0.038-0.047-0.067-0.064-0.104c-0.044-0.096-0.037-0.177-0.045-0.284c-0.004-0.057,0.002-0.107-0.035-0.157
		c-0.043-0.056-0.107-0.065-0.17-0.055c-0.018-0.054-0.043-0.107-0.082-0.154c-0.101-0.123-0.172-0.311-0.322-0.385
		c-0.069-0.034-0.119-0.027-0.192-0.025c-0.104,0.003-0.194-0.03-0.295-0.031c-0.145-0.001-0.312,0.112-0.375,0.256
		c-0.064-0.041-0.144-0.058-0.232-0.034c-0.107,0.029-0.15,0.096-0.191,0.189c-0.016-0.026-0.036-0.051-0.048-0.078
		c-0.044-0.096-0.037-0.177-0.045-0.284c-0.004-0.057,0.002-0.107-0.035-0.157c-0.043-0.056-0.107-0.065-0.17-0.055
		c-0.018-0.054-0.043-0.106-0.082-0.154c-0.101-0.123-0.172-0.311-0.322-0.385c-0.069-0.034-0.119-0.027-0.192-0.025
		c-0.104,0.003-0.194-0.03-0.295-0.031c-0.145-0.001-0.312,0.112-0.375,0.256c-0.064-0.041-0.144-0.058-0.232-0.034
		c-0.112,0.03-0.153,0.101-0.197,0.2c-0.048,0.111-0.115,0.215-0.167,0.322c-0.029,0.06-0.058,0.095-0.061,0.166
		c-0.002,0.069,0.031,0.111,0.05,0.173c0.038,0.126,0.031,0.202,0.056,0.323c0.027,0.129,0.102,0.249,0.207,0.329
		c0.072,0.055,0.147,0.077,0.221,0.078c0.002,0.002,0.003,0.004,0.005,0.006c0.019,0.016,0.037,0.035,0.055,0.054
		c-0.022,0.079-0.034,0.165-0.021,0.251c0.001,0.006,0.003,0.009,0.004,0.014c-0.063,0.035-0.098,0.091-0.13,0.163
		c-0.016-0.026-0.036-0.051-0.048-0.078c-0.044-0.096-0.037-0.177-0.045-0.284c-0.004-0.057,0.002-0.107-0.035-0.157
		c-0.043-0.056-0.107-0.065-0.17-0.055c-0.018-0.054-0.043-0.107-0.082-0.154c-0.101-0.123-0.172-0.311-0.322-0.385
		c-0.069-0.034-0.119-0.027-0.192-0.025c-0.104,0.003-0.194-0.03-0.295-0.031c-0.145-0.001-0.312,0.112-0.375,0.256
		c-0.064-0.041-0.144-0.058-0.232-0.034c-0.112,0.03-0.153,0.101-0.197,0.2c-0.048,0.111-0.115,0.215-0.167,0.322
		c-0.029,0.06-0.058,0.095-0.061,0.166c-0.002,0.069,0.031,0.111,0.05,0.173c0.039,0.126,0.031,0.203,0.056,0.323
		c0.005,0.025,0.02,0.047,0.029,0.071c-0.033-0.003-0.068-0.002-0.105,0.008c-0.107,0.029-0.15,0.096-0.191,0.189
		c-0.016-0.026-0.036-0.051-0.048-0.078c-0.044-0.096-0.037-0.177-0.045-0.284c-0.004-0.057,0.002-0.107-0.035-0.157
		c-0.043-0.056-0.107-0.065-0.17-0.055c-0.018-0.054-0.043-0.106-0.082-0.154c-0.101-0.123-0.172-0.311-0.322-0.385
		c-0.069-0.034-0.119-0.027-0.192-0.025c-0.104,0.003-0.194-0.03-0.295-0.031c-0.145-0.001-0.312,0.112-0.375,0.256
		c-0.064-0.041-0.144-0.058-0.232-0.034c-0.112,0.03-0.153,0.101-0.197,0.2c-0.048,0.111-0.115,0.215-0.167,0.322
		c-0.029,0.06-0.058,0.095-0.061,0.166c-0.002,0.069,0.031,0.111,0.05,0.173c0.038,0.126,0.031,0.203,0.056,0.323
		c0.027,0.129,0.102,0.249,0.207,0.329c0.072,0.055,0.147,0.077,0.221,0.078c0.002,0.002,0.003,0.004,0.005,0.006
		c0.019,0.016,0.037,0.035,0.055,0.054c-0.022,0.079-0.034,0.165-0.021,0.251c0.042,0.285,0.272,0.178,0.512,0.285
		c0.24,0.107,0.348,0.17,0.597,0.053c0.149-0.07,0.331-0.119,0.449-0.211c0.037,0.094,0.092,0.182,0.172,0.244
		c0.072,0.055,0.147,0.077,0.221,0.078c0.002,0.002,0.003,0.004,0.005,0.006c0.019,0.016,0.037,0.035,0.055,0.054
		c-0.022,0.079-0.034,0.165-0.021,0.251c0.042,0.285,0.272,0.178,0.512,0.285c0.24,0.107,0.348,0.17,0.597,0.053
		c0.218-0.103,0.51-0.157,0.562-0.375c0.002,0.01,0.002,0.018,0.004,0.029c0.027,0.129,0.102,0.249,0.207,0.329
		c0.072,0.055,0.147,0.077,0.221,0.078c0.002,0.002,0.003,0.004,0.005,0.006c0.019,0.016,0.037,0.035,0.055,0.054
		c-0.022,0.079-0.034,0.165-0.021,0.251c0.042,0.285,0.272,0.178,0.512,0.285c0.24,0.107,0.348,0.17,0.597,0.053
		c0.149-0.07,0.331-0.119,0.449-0.211c0.037,0.094,0.092,0.182,0.172,0.244c0.072,0.055,0.147,0.077,0.221,0.078
		c0.002,0.002,0.003,0.004,0.005,0.006c0.019,0.016,0.037,0.035,0.055,0.054c-0.022,0.079-0.034,0.165-0.021,0.251
		c0.042,0.285,0.272,0.178,0.512,0.285c0.24,0.107,0.348,0.17,0.597,0.053c0.139-0.066,0.305-0.112,0.423-0.193
		c0.032,0.117,0.098,0.225,0.194,0.298c0.072,0.055,0.147,0.077,0.221,0.078c0.002,0.002,0.003,0.004,0.005,0.006
		c0.019,0.016,0.037,0.035,0.055,0.054c-0.022,0.079-0.034,0.165-0.021,0.251c0.042,0.285,0.272,0.178,0.512,0.285
		c0.24,0.107,0.348,0.17,0.597,0.053c0.149-0.07,0.331-0.119,0.449-0.211c0.037,0.094,0.092,0.182,0.172,0.244
		c0.072,0.055,0.147,0.077,0.221,0.078c0.002,0.002,0.003,0.004,0.005,0.006c0.019,0.016,0.037,0.035,0.055,0.054
		c-0.022,0.079-0.034,0.165-0.021,0.251c0.042,0.285,0.272,0.178,0.512,0.285c0.24,0.107,0.348,0.17,0.597,0.053
		c0.218-0.103,0.51-0.157,0.562-0.375c0.002,0.01,0.002,0.018,0.004,0.029c0.027,0.129,0.102,0.249,0.207,0.329
		c0.072,0.055,0.147,0.077,0.221,0.078c0.002,0.002,0.003,0.004,0.005,0.006c0.019,0.016,0.037,0.035,0.055,0.054
		c-0.022,0.079-0.034,0.165-0.021,0.251c0.042,0.285,0.272,0.178,0.512,0.285c0.24,0.107,0.348,0.17,0.597,0.053
		c0.149-0.07,0.331-0.119,0.449-0.211c0.037,0.094,0.092,0.182,0.172,0.244c0.072,0.055,0.147,0.077,0.221,0.078
		c0.002,0.002,0.003,0.004,0.005,0.006c0.019,0.016,0.037,0.035,0.055,0.054c-0.022,0.079-0.034,0.165-0.021,0.251
		c0.042,0.285,0.272,0.178,0.512,0.285c0.24,0.107,0.348,0.17,0.597,0.053c0.249-0.118,0.593-0.17,0.569-0.476
		c-0.015-0.191-0.112-0.323-0.185-0.402c0.036-0.02,0.075-0.038,0.106-0.066c0.099-0.09,0.118-0.201,0.066-0.322
		c-0.008-0.019-0.02-0.035-0.032-0.051c0.115-0.045,0.233-0.089,0.318-0.156c0.037,0.094,0.092,0.182,0.172,0.244
		c0.072,0.055,0.147,0.077,0.221,0.078c0.002,0.002,0.003,0.004,0.005,0.006c0.019,0.016,0.037,0.035,0.055,0.054
		c-0.022,0.079-0.034,0.165-0.021,0.251c0.042,0.285,0.272,0.177,0.512,0.285c0.24,0.107,0.348,0.17,0.597,0.053
		c0.248-0.118,0.593-0.17,0.569-0.476c-0.015-0.191-0.112-0.323-0.185-0.402c0.036-0.02,0.075-0.038,0.106-0.066
		c0.099-0.09,0.118-0.201,0.066-0.322c-0.016-0.038-0.047-0.067-0.064-0.104c-0.044-0.096-0.037-0.177-0.045-0.284
		c-0.004-0.057,0.002-0.107-0.035-0.157c-0.043-0.056-0.107-0.065-0.17-0.055c-0.018-0.054-0.043-0.106-0.082-0.154
		c-0.006-0.007-0.011-0.016-0.017-0.024c0.033-0.018,0.064-0.037,0.092-0.058c0.037,0.094,0.092,0.182,0.172,0.244
		c0.072,0.055,0.147,0.077,0.221,0.078c0.002,0.002,0.003,0.004,0.005,0.006c0.019,0.016,0.037,0.035,0.055,0.054
		c-0.022,0.079-0.034,0.165-0.021,0.251c0.042,0.285,0.272,0.178,0.512,0.285c0.24,0.107,0.348,0.17,0.597,0.053
		c0.249-0.118,0.593-0.17,0.569-0.476c-0.015-0.191-0.112-0.323-0.185-0.402c0.036-0.02,0.075-0.038,0.106-0.066
		C34.075,31.863,34.094,31.752,34.042,31.63z M15.08,27.66c0.022,0.208-0.083,0.376-0.227,0.522c-0.039,0.04-0.086,0.08-0.115,0.13
		l-0.065,0.002c-0.076,0-0.169-0.006-0.265-0.022c0.009-0.014,0.018-0.028,0.026-0.043c0.009-0.019,0.008-0.037,0-0.053
		c0.02-0.013,0.032-0.036,0.019-0.066c-0.075-0.178-0.171-0.318-0.188-0.518c-0.007-0.078,0-0.162-0.037-0.226
		c0.001-0.005,0-0.01,0-0.015c0.069,0.007,0.146-0.001,0.205,0.007C14.605,27.402,14.951,27.491,15.08,27.66z M31.692,32.439
		c0.022,0.208-0.083,0.376-0.227,0.522c-0.039,0.04-0.086,0.08-0.115,0.13l-0.066,0.002c-0.076,0-0.169-0.006-0.264-0.022
		c0.009-0.014,0.018-0.028,0.026-0.043c0.009-0.019,0.008-0.037,0-0.053c0.02-0.013,0.032-0.036,0.019-0.066
		c-0.075-0.178-0.171-0.318-0.188-0.518c-0.007-0.078,0-0.162-0.037-0.226c0.001-0.005,0-0.01,0-0.015
		c0.069,0.007,0.146-0.001,0.205,0.007c0.013,0.002,0.029,0.005,0.043,0.007c0.049,0.018,0.097,0.028,0.145,0.031
		C31.403,32.24,31.602,32.32,31.692,32.439z M31.479,30.549c0.022,0.208-0.083,0.376-0.227,0.522c-0.039,0.04-0.086,0.08-0.115,0.13
		l-0.067,0.002c-0.076,0-0.168-0.006-0.263-0.022c0.009-0.014,0.018-0.028,0.026-0.043c0.009-0.019,0.008-0.037,0-0.053
		c0.02-0.013,0.032-0.036,0.019-0.066c-0.075-0.178-0.171-0.318-0.188-0.518c-0.007-0.078,0-0.162-0.037-0.226
		c0.001-0.005,0-0.01,0-0.015c0.069,0.007,0.146-0.001,0.205,0.007C31.004,30.29,31.35,30.38,31.479,30.549z M29.84,30.489
		c-0.014,0.029-0.025,0.058-0.026,0.098c-0.001,0.04,0.01,0.072,0.023,0.104c-0.033-0.058-0.065-0.104-0.098-0.139
		C29.773,30.532,29.809,30.514,29.84,30.489z M16.398,29.052c0.009-0.014,0.018-0.028,0.026-0.043c0.009-0.019,0.008-0.037,0-0.053
		c0.02-0.013,0.032-0.036,0.019-0.066c-0.075-0.178-0.171-0.318-0.188-0.518c-0.007-0.078,0-0.162-0.037-0.226
		c0.001-0.005,0-0.01,0-0.015c0.051,0.005,0.103,0.004,0.152,0.005c0.007,0.007,0.015,0.014,0.022,0.022
		c-0.022,0.079-0.034,0.165-0.021,0.251c0.042,0.285,0.272,0.178,0.512,0.285c0.042,0.019,0.076,0.034,0.112,0.049
		c-0.041,0.07-0.092,0.137-0.153,0.199c-0.039,0.04-0.086,0.08-0.115,0.13l-0.065,0.002C16.587,29.073,16.494,29.067,16.398,29.052z
		 M29.475,32.202c-0.039,0.039-0.085,0.079-0.114,0.129c-0.054-0.083-0.113-0.161-0.198-0.203c-0.04-0.02-0.074-0.025-0.109-0.026
		c-0.07-0.155-0.151-0.288-0.166-0.469c-0.006-0.074-0.003-0.151-0.033-0.213c0.155,0.068,0.268,0.095,0.437,0.031
		c0.158,0.046,0.328,0.121,0.41,0.229C29.724,31.888,29.62,32.057,29.475,32.202z M27.561,30.972
		c0.022,0.208-0.083,0.376-0.227,0.522c-0.004,0.004-0.008,0.007-0.012,0.011c-0.042-0.055-0.088-0.106-0.149-0.136
		c-0.069-0.034-0.119-0.027-0.192-0.025c-0.033,0.001-0.064-0.005-0.095-0.009c-0.063-0.131-0.126-0.252-0.139-0.41
		c-0.007-0.078,0-0.162-0.037-0.226c0.001-0.005,0-0.01,0-0.015c0.069,0.007,0.146-0.001,0.205,0.007
		c0.013,0.002,0.028,0.005,0.043,0.007c0.049,0.018,0.097,0.028,0.145,0.031C27.272,30.773,27.47,30.853,27.561,30.972z
		 M26.482,31.965c0.003,0.003,0.005,0.005,0.008,0.008c-0.001,0.004-0.002,0.007-0.003,0.011
		C26.486,31.977,26.484,31.972,26.482,31.965z M28.14,32.186c0.002,0.01,0.002,0.018,0.004,0.029
		c0.005,0.025,0.02,0.047,0.029,0.071c-0.028-0.002-0.056-0.001-0.086,0.005C28.111,32.26,28.13,32.227,28.14,32.186z M28.06,31.822
		c-0.033-0.058-0.066-0.105-0.098-0.139c0.034-0.019,0.071-0.037,0.101-0.063c-0.014,0.029-0.025,0.058-0.026,0.099
		C28.036,31.759,28.047,31.791,28.06,31.822z M25.571,30.213c0.022,0.208-0.083,0.376-0.227,0.522
		c-0.039,0.039-0.085,0.079-0.114,0.129c-0.054-0.083-0.113-0.161-0.198-0.203c-0.04-0.02-0.074-0.025-0.109-0.026
		c-0.07-0.155-0.151-0.288-0.166-0.469c-0.007-0.078,0-0.162-0.037-0.226c0.001-0.005,0-0.01,0-0.015
		c0.069,0.007,0.146-0.001,0.205,0.007C25.097,29.955,25.442,30.044,25.571,30.213z M23.585,29.382
		c0.022,0.208-0.083,0.376-0.227,0.522c-0.039,0.04-0.086,0.08-0.115,0.13l-0.054,0.002c-0.042-0.055-0.087-0.104-0.148-0.134
		c-0.03-0.015-0.055-0.019-0.081-0.022c0.001-0.008,0.002-0.017-0.002-0.027c-0.075-0.178-0.171-0.318-0.189-0.518
		c-0.007-0.078,0-0.162-0.037-0.226c0.001-0.005,0-0.01,0-0.015c0.069,0.007,0.146-0.001,0.205,0.007
		c0.013,0.002,0.029,0.005,0.043,0.007c0.049,0.018,0.097,0.028,0.144,0.031C23.296,29.184,23.494,29.263,23.585,29.382z
		 M21.368,29.146c-0.039,0.039-0.085,0.079-0.114,0.129c-0.054-0.083-0.113-0.161-0.198-0.203c-0.04-0.02-0.074-0.025-0.109-0.026
		c-0.07-0.155-0.151-0.288-0.166-0.469c-0.006-0.074-0.003-0.151-0.033-0.213c0.155,0.068,0.268,0.095,0.437,0.031
		c0.158,0.046,0.328,0.121,0.41,0.229C21.617,28.831,21.513,29,21.368,29.146z M19.454,27.915c0.022,0.208-0.083,0.376-0.227,0.522
		c-0.004,0.004-0.008,0.007-0.012,0.011c-0.042-0.055-0.088-0.106-0.149-0.136c-0.069-0.034-0.119-0.027-0.192-0.025
		c-0.033,0.001-0.064-0.005-0.095-0.009c-0.063-0.131-0.126-0.252-0.139-0.41c-0.007-0.078,0-0.162-0.037-0.226
		c0.001-0.005,0-0.01,0-0.015c0.069,0.007,0.146-0.001,0.205,0.007c0.013,0.002,0.028,0.005,0.043,0.007
		c0.049,0.018,0.097,0.028,0.144,0.031C19.165,27.716,19.363,27.796,19.454,27.915z M18.375,28.908
		c0.003,0.003,0.005,0.005,0.008,0.008c-0.001,0.004-0.002,0.007-0.003,0.011C18.379,28.921,18.377,28.915,18.375,28.908z
		 M20.032,29.13c0.002,0.01,0.002,0.018,0.004,0.028c0.005,0.025,0.02,0.047,0.029,0.071c-0.028-0.002-0.056-0.001-0.086,0.005
		C20.003,29.203,20.023,29.17,20.032,29.13z M19.953,28.766c-0.033-0.058-0.065-0.105-0.098-0.139
		c0.034-0.019,0.071-0.037,0.101-0.063c-0.014,0.029-0.025,0.058-0.026,0.099C19.928,28.702,19.94,28.734,19.953,28.766z
		 M18.54,29.76c0.009-0.014,0.018-0.028,0.026-0.043c0.009-0.019,0.008-0.037,0-0.053c0.02-0.013,0.032-0.036,0.019-0.066
		c-0.037-0.089-0.08-0.169-0.116-0.251c0.099,0.054,0.249,0.035,0.405,0.105c0.082,0.037,0.147,0.064,0.209,0.085
		c-0.03,0.039-0.063,0.077-0.099,0.113c-0.039,0.04-0.086,0.08-0.115,0.13l-0.065,0.002C18.728,29.782,18.635,29.776,18.54,29.76z
		 M19.769,29.425c-0.007-0.012-0.013-0.023-0.021-0.034c0.017-0.007,0.033-0.015,0.049-0.023
		C19.787,29.385,19.778,29.405,19.769,29.425z M20.53,30.519c0.009-0.014,0.018-0.028,0.026-0.043c0.009-0.019,0.008-0.037,0-0.053
		c0.02-0.013,0.032-0.036,0.019-0.066c-0.075-0.178-0.171-0.318-0.188-0.518c-0.007-0.078,0-0.162-0.037-0.226
		c0.001-0.005,0-0.01,0-0.015c0.051,0.005,0.103,0.004,0.152,0.005c0.007,0.007,0.015,0.014,0.022,0.022
		c-0.022,0.079-0.034,0.165-0.021,0.251c0.042,0.285,0.272,0.178,0.512,0.285c0.042,0.019,0.076,0.034,0.112,0.049
		c-0.041,0.07-0.092,0.137-0.153,0.199c-0.039,0.04-0.086,0.08-0.115,0.13l-0.065,0.002C20.718,30.54,20.625,30.534,20.53,30.519z
		 M22.061,30.002c0.008,0.021,0.015,0.043,0.026,0.063c-0.04-0.009-0.083-0.01-0.128,0C21.996,30.047,22.031,30.026,22.061,30.002z
		 M22.516,31.35c0.009-0.014,0.018-0.028,0.026-0.043c0.009-0.019,0.008-0.037,0-0.053c0.02-0.013,0.032-0.036,0.019-0.066
		c-0.075-0.178-0.171-0.318-0.189-0.518c-0.007-0.078,0-0.162-0.037-0.226c0.001-0.005,0-0.01,0-0.015
		c0.055,0.006,0.113,0.004,0.166,0.005c-0.013,0.065-0.019,0.132-0.009,0.2c0.042,0.285,0.272,0.177,0.512,0.285
		c0.054,0.024,0.099,0.045,0.143,0.063c-0.043,0.094-0.11,0.179-0.188,0.257c-0.039,0.04-0.086,0.08-0.115,0.13l-0.065,0.002
		C22.704,31.371,22.611,31.365,22.516,31.35z M24.025,30.779c0.004,0.014,0.011,0.026,0.016,0.04
		c-0.03-0.003-0.061-0.001-0.093,0.006C23.976,30.811,24.001,30.795,24.025,30.779z M24.506,32.108
		c0.009-0.014,0.018-0.028,0.026-0.043c0.009-0.019,0.008-0.037,0-0.053c0.02-0.013,0.032-0.036,0.019-0.066
		c-0.075-0.178-0.171-0.318-0.188-0.518c-0.007-0.078,0-0.162-0.037-0.226c0.001-0.005,0-0.01,0-0.015
		c0.051,0.005,0.103,0.004,0.152,0.005c0.007,0.007,0.015,0.014,0.022,0.022c-0.022,0.079-0.034,0.165-0.021,0.251
		c0.042,0.285,0.272,0.178,0.512,0.285c0.042,0.019,0.076,0.034,0.112,0.049c-0.041,0.07-0.092,0.137-0.153,0.199
		c-0.039,0.04-0.086,0.08-0.115,0.13l-0.067,0.002C24.693,32.13,24.6,32.124,24.506,32.108z M26.647,32.817
		c0.009-0.014,0.018-0.028,0.026-0.043c0.009-0.019,0.008-0.037,0-0.053c0.02-0.013,0.032-0.036,0.019-0.066
		c-0.037-0.089-0.08-0.169-0.116-0.251c0.099,0.054,0.249,0.035,0.405,0.105c0.082,0.037,0.147,0.064,0.209,0.085
		c-0.03,0.039-0.063,0.077-0.099,0.113c-0.039,0.04-0.086,0.08-0.115,0.13l-0.065,0.002C26.836,32.839,26.742,32.832,26.647,32.817z
		 M27.877,32.482c-0.007-0.012-0.013-0.023-0.021-0.034c0.017-0.007,0.033-0.015,0.049-0.023
		C27.895,32.442,27.886,32.461,27.877,32.482z M28.637,33.575c0.009-0.014,0.018-0.028,0.026-0.043c0.009-0.019,0.008-0.037,0-0.053
		c0.02-0.013,0.032-0.036,0.019-0.066c-0.075-0.178-0.171-0.318-0.188-0.518c-0.007-0.078,0-0.162-0.037-0.226
		c0.001-0.005,0-0.01,0-0.015c0.051,0.005,0.103,0.004,0.152,0.005c0.007,0.007,0.015,0.014,0.022,0.022
		c-0.022,0.079-0.034,0.165-0.021,0.251c0.042,0.285,0.272,0.178,0.512,0.285c0.042,0.019,0.076,0.034,0.112,0.049
		c-0.041,0.07-0.092,0.137-0.153,0.199c-0.039,0.04-0.086,0.08-0.115,0.13L28.9,33.597C28.824,33.597,28.732,33.591,28.637,33.575z
		 M29.337,29.84c0.022,0.208-0.083,0.376-0.227,0.522c-0.039,0.04-0.086,0.08-0.115,0.13l-0.067,0.002
		c-0.076,0-0.168-0.006-0.263-0.022c0.009-0.014,0.018-0.028,0.026-0.043c0.009-0.019,0.008-0.037,0-0.053
		c0.02-0.013,0.032-0.036,0.019-0.066c-0.075-0.178-0.171-0.318-0.188-0.518c-0.007-0.078,0-0.162-0.037-0.226
		c0.001-0.005,0-0.01,0-0.015c0.069,0.007,0.146-0.001,0.205,0.007C28.863,29.582,29.208,29.671,29.337,29.84z M27.985,30.704
		c0.072,0.055,0.147,0.077,0.221,0.078c0.002,0.002,0.003,0.004,0.005,0.006c0.019,0.016,0.037,0.035,0.055,0.054
		c-0.022,0.079-0.034,0.165-0.021,0.251c0.007,0.045,0.02,0.078,0.035,0.106c-0.005,0.011-0.01,0.02-0.015,0.032
		c-0.031,0.071-0.069,0.139-0.106,0.208c0.003-0.046-0.003-0.093-0.024-0.143c-0.016-0.038-0.047-0.067-0.064-0.104
		c-0.044-0.096-0.037-0.177-0.045-0.284c-0.004-0.057,0.002-0.107-0.035-0.157c-0.043-0.056-0.107-0.065-0.17-0.055
		c-0.018-0.054-0.043-0.106-0.082-0.154c-0.006-0.007-0.011-0.016-0.017-0.024c0.033-0.018,0.064-0.037,0.092-0.058
		C27.85,30.555,27.905,30.642,27.985,30.704z M27.347,29.081c0.022,0.208-0.083,0.376-0.227,0.522
		c-0.039,0.04-0.086,0.08-0.115,0.13l-0.067,0.002c-0.076,0-0.168-0.006-0.263-0.022c0.009-0.014,0.018-0.028,0.026-0.043
		c0.009-0.019,0.008-0.037,0-0.053c0.02-0.013,0.032-0.036,0.019-0.066c-0.075-0.178-0.171-0.318-0.189-0.518
		c-0.007-0.078,0-0.162-0.037-0.226c0.001-0.005,0-0.01,0-0.015c0.069,0.007,0.146-0.001,0.205,0.007
		C26.873,28.823,27.218,28.913,27.347,29.081z M25.995,29.945c0.072,0.055,0.147,0.077,0.221,0.078
		c0.002,0.002,0.003,0.004,0.005,0.006c0.019,0.016,0.037,0.035,0.055,0.054c-0.022,0.079-0.034,0.165-0.021,0.251
		c0.001,0.006,0.003,0.009,0.004,0.014c-0.063,0.035-0.098,0.091-0.13,0.163c-0.016-0.026-0.036-0.051-0.048-0.078
		c-0.044-0.096-0.037-0.177-0.045-0.284c-0.004-0.057,0.002-0.107-0.035-0.157c-0.043-0.056-0.107-0.065-0.17-0.055
		c-0.018-0.054-0.043-0.107-0.082-0.154c-0.019-0.023-0.036-0.049-0.054-0.076c0.039-0.018,0.074-0.038,0.107-0.061
		C25.833,29.764,25.899,29.872,25.995,29.945z M25.361,28.25c0.022,0.208-0.083,0.376-0.227,0.522
		c-0.039,0.04-0.086,0.08-0.115,0.13l-0.067,0.002c-0.076,0-0.168-0.006-0.263-0.022c0.009-0.014,0.019-0.028,0.026-0.043
		c0.009-0.019,0.008-0.037,0-0.053c0.02-0.013,0.032-0.036,0.019-0.066c-0.075-0.178-0.171-0.318-0.188-0.518
		c-0.007-0.078,0-0.162-0.037-0.226c0.001-0.005,0-0.01,0-0.015c0.069,0.007,0.146-0.001,0.205,0.007
		C24.887,27.992,25.232,28.082,25.361,28.25z M24.009,29.114c0.072,0.055,0.147,0.077,0.221,0.078
		c0.002,0.002,0.003,0.004,0.005,0.006c0.019,0.016,0.037,0.035,0.055,0.054c-0.022,0.079-0.034,0.165-0.021,0.251
		c0.005,0.031,0.012,0.055,0.021,0.078c-0.062,0.027-0.1,0.071-0.13,0.129c-0.001-0.001-0.001-0.003-0.001-0.004
		c-0.016-0.038-0.047-0.067-0.064-0.104c-0.044-0.096-0.037-0.177-0.045-0.284c-0.004-0.057,0.002-0.107-0.035-0.157
		c-0.043-0.056-0.107-0.065-0.17-0.055c-0.018-0.054-0.043-0.107-0.082-0.154c-0.006-0.007-0.011-0.016-0.017-0.024
		c0.033-0.017,0.064-0.037,0.092-0.058C23.874,28.965,23.929,29.053,24.009,29.114z M23.371,27.492
		c0.022,0.208-0.083,0.376-0.227,0.522c-0.039,0.04-0.086,0.08-0.115,0.13l-0.067,0.002c-0.076,0-0.168-0.006-0.263-0.022
		c0.009-0.014,0.018-0.028,0.026-0.043c0.009-0.019,0.008-0.037,0-0.053c0.02-0.013,0.032-0.036,0.019-0.066
		c-0.075-0.178-0.171-0.318-0.189-0.518c-0.007-0.078,0-0.162-0.037-0.226c0.001-0.005,0-0.01,0-0.015
		c0.069,0.007,0.146-0.001,0.205,0.007C22.897,27.233,23.242,27.323,23.371,27.492z M22.019,28.356
		c0.072,0.055,0.147,0.077,0.221,0.078c0.002,0.002,0.003,0.004,0.005,0.006c0.019,0.016,0.037,0.035,0.055,0.054
		c-0.022,0.079-0.034,0.165-0.021,0.251c0.001,0.006,0.003,0.009,0.004,0.014c-0.063,0.035-0.098,0.091-0.13,0.163
		c-0.016-0.026-0.036-0.051-0.048-0.078c-0.044-0.096-0.037-0.177-0.045-0.284c-0.004-0.057,0.002-0.107-0.035-0.157
		c-0.043-0.056-0.107-0.065-0.17-0.055c-0.018-0.054-0.043-0.107-0.082-0.154c-0.015-0.019-0.029-0.041-0.044-0.062
		c0.038-0.037,0.067-0.08,0.08-0.134c0.002,0.01,0.002,0.018,0.004,0.029C21.84,28.156,21.914,28.275,22.019,28.356z M21.732,27.432
		c-0.014,0.029-0.025,0.058-0.026,0.098c-0.001,0.04,0.01,0.072,0.023,0.104c-0.033-0.058-0.065-0.104-0.098-0.139
		C21.665,27.475,21.702,27.458,21.732,27.432z M21.23,26.783c0.022,0.208-0.083,0.376-0.227,0.522
		c-0.039,0.04-0.086,0.08-0.115,0.13l-0.067,0.002c-0.076,0-0.168-0.006-0.263-0.022c0.009-0.014,0.018-0.028,0.026-0.043
		c0.009-0.019,0.008-0.037,0-0.053c0.02-0.013,0.032-0.036,0.019-0.066c-0.075-0.178-0.171-0.318-0.188-0.518
		c-0.007-0.078,0-0.162-0.037-0.226c0.001-0.005,0-0.01,0-0.015c0.069,0.007,0.146-0.001,0.205,0.007
		C20.755,26.525,21.101,26.615,21.23,26.783z M19.878,27.647c0.072,0.055,0.147,0.077,0.221,0.078
		c0.002,0.002,0.003,0.004,0.005,0.006c0.019,0.016,0.037,0.035,0.055,0.054c-0.022,0.079-0.034,0.165-0.021,0.251
		c0.007,0.045,0.02,0.078,0.035,0.106c-0.005,0.011-0.01,0.02-0.015,0.032c-0.031,0.071-0.069,0.139-0.106,0.208
		c0.003-0.046-0.003-0.093-0.024-0.143c-0.016-0.038-0.047-0.067-0.064-0.104c-0.044-0.096-0.037-0.177-0.045-0.284
		c-0.004-0.057,0.002-0.107-0.035-0.157c-0.043-0.056-0.107-0.065-0.17-0.055c-0.018-0.054-0.043-0.107-0.082-0.154
		c-0.006-0.007-0.011-0.016-0.017-0.024c0.033-0.017,0.064-0.037,0.092-0.058C19.743,27.498,19.797,27.586,19.878,27.647z
		 M19.24,26.025c0.022,0.208-0.083,0.376-0.227,0.522c-0.039,0.04-0.086,0.08-0.115,0.13l-0.067,0.002
		c-0.076,0-0.168-0.006-0.263-0.022c0.009-0.014,0.018-0.028,0.026-0.043c0.009-0.019,0.008-0.037,0-0.053
		c0.02-0.013,0.032-0.036,0.019-0.066c-0.075-0.178-0.171-0.318-0.189-0.518c-0.007-0.078,0-0.162-0.037-0.226
		c0.001-0.005,0-0.01,0-0.015c0.069,0.007,0.146-0.001,0.205,0.007C18.766,25.766,19.111,25.856,19.24,26.025z M17.464,27.156
		c0.022,0.208-0.083,0.376-0.227,0.522c-0.039,0.039-0.085,0.079-0.114,0.129c-0.054-0.083-0.113-0.161-0.198-0.203
		c-0.04-0.02-0.074-0.025-0.109-0.026c-0.07-0.155-0.151-0.288-0.166-0.469c-0.007-0.078,0-0.162-0.037-0.226
		c0.001-0.005,0-0.01,0-0.015c0.069,0.007,0.146-0.001,0.205,0.007C16.989,26.898,17.335,26.987,17.464,27.156z M17.471,29.13
		c0.034-0.019,0.071-0.037,0.101-0.063c-0.014,0.029-0.025,0.058-0.026,0.098c-0.001,0.04,0.01,0.072,0.023,0.104
		C17.536,29.211,17.503,29.165,17.471,29.13z M17.668,28.885c0.003-0.046-0.003-0.093-0.024-0.143
		c-0.008-0.019-0.02-0.035-0.032-0.051c0.067-0.026,0.133-0.052,0.195-0.082c-0.012,0.021-0.022,0.044-0.033,0.069
		C17.743,28.749,17.705,28.817,17.668,28.885z M21.776,30.213c-0.001-0.001-0.001-0.003-0.001-0.004
		c-0.008-0.019-0.02-0.035-0.032-0.051c0.038-0.015,0.076-0.03,0.114-0.046C21.823,30.138,21.797,30.172,21.776,30.213z
		 M23.746,31.015c-0.016-0.026-0.036-0.051-0.048-0.078c-0.001-0.002-0.001-0.003-0.001-0.005c0.05-0.02,0.101-0.04,0.151-0.06
		C23.802,30.906,23.772,30.954,23.746,31.015z M25.578,32.187c0.034-0.019,0.071-0.037,0.101-0.063
		c-0.014,0.029-0.025,0.058-0.026,0.098c-0.001,0.04,0.01,0.072,0.023,0.104C25.643,32.268,25.611,32.222,25.578,32.187z
		 M25.775,31.942c0.003-0.046-0.003-0.093-0.024-0.143c-0.008-0.019-0.02-0.035-0.032-0.051c0.067-0.026,0.133-0.052,0.195-0.082
		c-0.012,0.021-0.022,0.044-0.033,0.069C25.851,31.805,25.813,31.874,25.775,31.942z M30.261,31.978
		c-0.016-0.026-0.036-0.051-0.048-0.078c-0.044-0.096-0.037-0.177-0.045-0.284c-0.004-0.057,0.002-0.107-0.035-0.157
		c-0.043-0.056-0.107-0.065-0.17-0.055c-0.018-0.054-0.043-0.107-0.082-0.154c-0.015-0.019-0.029-0.041-0.044-0.062
		c0.038-0.037,0.067-0.08,0.08-0.134c0.002,0.01,0.002,0.018,0.004,0.029c0.027,0.129,0.102,0.249,0.207,0.329
		c0.072,0.055,0.147,0.077,0.221,0.078c0.002,0.002,0.003,0.004,0.005,0.006c0.019,0.016,0.037,0.035,0.055,0.054
		c-0.022,0.079-0.034,0.165-0.021,0.251c0.001,0.006,0.003,0.009,0.004,0.014C30.327,31.85,30.293,31.905,30.261,31.978z
		 M33.469,31.307c0.022,0.208-0.083,0.376-0.227,0.522c-0.039,0.04-0.086,0.08-0.115,0.13l-0.067,0.002
		c-0.076,0-0.168-0.006-0.263-0.022c0.009-0.014,0.018-0.028,0.026-0.043c0.009-0.019,0.008-0.037,0-0.053
		c0.02-0.013,0.032-0.036,0.019-0.066c-0.075-0.178-0.171-0.318-0.188-0.518c-0.007-0.078,0-0.162-0.037-0.226
		c0.001-0.005,0-0.01,0-0.015c0.069,0.007,0.146-0.001,0.205,0.007C32.994,31.049,33.34,31.138,33.469,31.307z"/>
	<path class="st12" d="M18.092,26.739c0.279,0.406,0.951,0.4,1.263,0.031c0.204-0.242,0.198-0.596,0.044-0.857
		c-0.076-0.129-0.188-0.235-0.33-0.293c-0.22-0.09-0.515-0.005-0.738,0.132c-0.127,0.078-0.225,0.192-0.285,0.321
		C17.948,26.282,17.949,26.532,18.092,26.739z"/>
	<path class="st12" d="M17.853,26.5c-0.003-0.144-0.028-0.291-0.013-0.436c0.016-0.158,0.139-0.291,0.198-0.437
		c0.006-0.016-0.017-0.027-0.027-0.016c-0.23,0.227-0.389,0.591-0.194,0.898C17.826,26.526,17.853,26.521,17.853,26.5z"/>
	<path class="st12" d="M21.345,27.529c0.204-0.242,0.198-0.596,0.044-0.857c-0.076-0.129-0.188-0.235-0.33-0.293
		c-0.22-0.09-0.515-0.005-0.738,0.132c-0.127,0.078-0.225,0.192-0.285,0.321c-0.098,0.209-0.096,0.459,0.046,0.666
		C20.361,27.904,21.033,27.898,21.345,27.529z"/>
	<path class="st12" d="M19.999,26.371c-0.23,0.227-0.389,0.591-0.194,0.898c0.01,0.016,0.037,0.01,0.037-0.01
		c-0.003-0.144-0.028-0.291-0.013-0.436c0.016-0.158,0.139-0.291,0.198-0.437C20.033,26.371,20.01,26.36,19.999,26.371z"/>
	<path class="st12" d="M23.486,28.237c0.204-0.242,0.198-0.596,0.044-0.857c-0.076-0.129-0.188-0.235-0.33-0.293
		c-0.22-0.09-0.515-0.005-0.738,0.132c-0.127,0.078-0.225,0.192-0.285,0.321c-0.098,0.209-0.096,0.459,0.047,0.666
		C22.502,28.612,23.174,28.607,23.486,28.237z"/>
	<path class="st12" d="M21.984,27.967c-0.003-0.144-0.028-0.291-0.013-0.436c0.016-0.158,0.139-0.291,0.198-0.437
		c0.006-0.016-0.017-0.027-0.027-0.016c-0.23,0.227-0.389,0.591-0.194,0.898C21.957,27.993,21.984,27.988,21.984,27.967z"/>
	<path class="st12" d="M24.452,27.978c-0.127,0.078-0.225,0.192-0.285,0.321c-0.098,0.209-0.096,0.459,0.046,0.666
		c0.279,0.406,0.951,0.4,1.263,0.031c0.204-0.242,0.198-0.596,0.044-0.857c-0.076-0.129-0.188-0.235-0.33-0.293
		C24.97,27.756,24.675,27.841,24.452,27.978z"/>
	<path class="st12" d="M24.131,27.838c-0.23,0.227-0.389,0.591-0.194,0.898c0.01,0.016,0.037,0.01,0.037-0.01
		c-0.003-0.144-0.028-0.291-0.013-0.436c0.016-0.158,0.139-0.291,0.198-0.437C24.165,27.838,24.141,27.827,24.131,27.838z"/>
	<path class="st12" d="M26.199,29.796c0.279,0.406,0.951,0.4,1.263,0.031c0.204-0.242,0.198-0.596,0.044-0.857
		c-0.076-0.129-0.188-0.235-0.33-0.293c-0.22-0.09-0.515-0.005-0.738,0.132c-0.127,0.078-0.225,0.192-0.285,0.321
		C26.055,29.339,26.057,29.589,26.199,29.796z"/>
	<path class="st12" d="M25.96,29.557c-0.003-0.144-0.028-0.291-0.013-0.436c0.016-0.158,0.139-0.291,0.198-0.437
		c0.006-0.016-0.017-0.027-0.027-0.016c-0.23,0.227-0.389,0.591-0.194,0.898C25.933,29.583,25.96,29.577,25.96,29.557z"/>
	<path class="st12" d="M28.189,30.555c0.279,0.406,0.951,0.4,1.263,0.031c0.204-0.242,0.198-0.596,0.044-0.857
		c-0.076-0.129-0.188-0.235-0.33-0.293c-0.22-0.09-0.515-0.005-0.738,0.132c-0.127,0.078-0.225,0.192-0.285,0.321
		C28.045,30.098,28.047,30.348,28.189,30.555z"/>
	<path class="st12" d="M27.95,30.316c-0.003-0.144-0.028-0.291-0.013-0.436c0.016-0.158,0.139-0.291,0.198-0.437
		c0.006-0.016-0.017-0.027-0.028-0.016c-0.23,0.227-0.389,0.591-0.194,0.898C27.923,30.342,27.95,30.336,27.95,30.316z"/>
	<path class="st12" d="M30.331,31.263c0.279,0.406,0.951,0.4,1.263,0.031c0.204-0.242,0.198-0.596,0.044-0.857
		c-0.076-0.129-0.188-0.235-0.33-0.293c-0.22-0.09-0.515-0.005-0.738,0.132c-0.127,0.078-0.225,0.192-0.285,0.321
		C30.187,30.806,30.188,31.056,30.331,31.263z"/>
	<path class="st12" d="M30.276,30.152c0.006-0.016-0.017-0.027-0.028-0.016c-0.23,0.227-0.389,0.591-0.194,0.898
		c0.01,0.016,0.037,0.01,0.037-0.01c-0.003-0.144-0.028-0.291-0.013-0.436C30.094,30.431,30.217,30.297,30.276,30.152z"/>
	<path class="st12" d="M33.298,30.903c-0.22-0.09-0.515-0.005-0.738,0.132c-0.127,0.078-0.225,0.192-0.285,0.321
		c-0.098,0.209-0.096,0.459,0.046,0.666c0.279,0.406,0.951,0.4,1.263,0.031c0.204-0.242,0.198-0.596,0.044-0.857
		C33.551,31.067,33.439,30.961,33.298,30.903z"/>
	<path class="st12" d="M32.266,30.91c0.006-0.016-0.017-0.027-0.028-0.016c-0.23,0.227-0.389,0.591-0.194,0.898
		c0.01,0.016,0.037,0.01,0.037-0.01c-0.003-0.144-0.028-0.291-0.013-0.436C32.084,31.189,32.207,31.056,32.266,30.91z"/>
	<path class="st12" d="M17.622,27.045c-0.076-0.129-0.188-0.235-0.33-0.293c-0.22-0.09-0.515-0.005-0.738,0.132
		c-0.127,0.078-0.225,0.192-0.285,0.321c-0.098,0.209-0.096,0.459,0.046,0.666c0.04,0.058,0.09,0.105,0.143,0.147
		c-0.105,0.03-0.208,0.073-0.299,0.129c-0.127,0.078-0.225,0.191-0.285,0.321c-0.098,0.209-0.096,0.459,0.046,0.666
		c0.279,0.406,0.951,0.4,1.263,0.031c0.204-0.242,0.198-0.596,0.044-0.857c-0.032-0.054-0.074-0.101-0.118-0.146
		c0.18-0.033,0.35-0.12,0.469-0.26C17.783,27.66,17.777,27.306,17.622,27.045z"/>
	<path class="st12" d="M16.233,26.743c-0.23,0.227-0.389,0.591-0.194,0.898c0.01,0.016,0.037,0.01,0.037-0.01
		c-0.003-0.144-0.028-0.291-0.013-0.436c0.016-0.158,0.139-0.291,0.198-0.437C16.267,26.743,16.244,26.733,16.233,26.743z"/>
	<path class="st12" d="M19.612,27.804c-0.076-0.129-0.188-0.235-0.33-0.293c-0.22-0.09-0.515-0.005-0.738,0.132
		c-0.127,0.078-0.225,0.192-0.285,0.321c-0.098,0.209-0.096,0.459,0.047,0.666c0.041,0.059,0.091,0.107,0.146,0.149
		c-0.052,0.023-0.103,0.048-0.15,0.077c-0.127,0.078-0.225,0.192-0.285,0.321c-0.098,0.209-0.096,0.459,0.047,0.666
		c0.279,0.406,0.951,0.4,1.263,0.031c0.204-0.242,0.198-0.596,0.044-0.857c-0.031-0.052-0.072-0.097-0.114-0.14
		c0.12-0.046,0.23-0.116,0.313-0.215C19.773,28.419,19.767,28.064,19.612,27.804z"/>
	<path class="st12" d="M18.223,27.502c-0.23,0.227-0.389,0.591-0.194,0.898c0.01,0.016,0.037,0.01,0.037-0.01
		c-0.003-0.144-0.028-0.291-0.013-0.436c0.016-0.158,0.139-0.291,0.198-0.437C18.257,27.502,18.234,27.491,18.223,27.502z"/>
	<path class="st12" d="M20.365,28.21c-0.23,0.227-0.389,0.591-0.194,0.898c0.01,0.016,0.037,0.01,0.037-0.01
		c-0.003-0.144-0.028-0.291-0.013-0.436c0.016-0.158,0.139-0.291,0.198-0.437C20.398,28.21,20.375,28.2,20.365,28.21z"/>
	<path class="st12" d="M22.354,28.969c-0.23,0.227-0.389,0.591-0.194,0.898c0.01,0.016,0.037,0.01,0.037-0.01
		c-0.003-0.144-0.028-0.291-0.013-0.436c0.016-0.158,0.139-0.291,0.198-0.437C22.388,28.969,22.365,28.958,22.354,28.969z"/>
	<path class="st12" d="M25.73,30.102c-0.076-0.129-0.188-0.235-0.33-0.293c-0.22-0.09-0.515-0.005-0.738,0.132
		c-0.127,0.078-0.225,0.192-0.285,0.321c-0.098,0.209-0.096,0.459,0.046,0.666c0.04,0.058,0.09,0.105,0.143,0.147
		c-0.105,0.03-0.208,0.073-0.299,0.129c-0.127,0.078-0.225,0.192-0.285,0.321c-0.098,0.209-0.096,0.459,0.046,0.666
		c0.279,0.406,0.951,0.4,1.263,0.031c0.204-0.242,0.198-0.596,0.044-0.857c-0.032-0.054-0.074-0.101-0.118-0.146
		c0.18-0.033,0.35-0.12,0.469-0.26C25.891,30.717,25.884,30.362,25.73,30.102z"/>
	<path class="st12" d="M24.341,29.8c-0.23,0.227-0.389,0.591-0.194,0.898c0.01,0.016,0.037,0.01,0.037-0.01
		c-0.003-0.144-0.028-0.291-0.013-0.436c0.016-0.158,0.139-0.291,0.198-0.437C24.375,29.8,24.351,29.789,24.341,29.8z"/>
	<path class="st12" d="M27.72,30.86c-0.076-0.129-0.188-0.235-0.33-0.293c-0.22-0.09-0.515-0.005-0.738,0.132
		c-0.127,0.078-0.225,0.192-0.285,0.321c-0.098,0.209-0.096,0.459,0.047,0.666c0.041,0.059,0.091,0.107,0.146,0.149
		c-0.052,0.023-0.103,0.048-0.15,0.077c-0.127,0.078-0.225,0.191-0.285,0.321c-0.098,0.209-0.096,0.459,0.047,0.666
		c0.279,0.406,0.951,0.4,1.263,0.031c0.204-0.242,0.198-0.596,0.044-0.857c-0.031-0.052-0.072-0.097-0.114-0.14
		c0.12-0.046,0.23-0.116,0.313-0.215C27.881,31.476,27.874,31.121,27.72,30.86z"/>
	<path class="st12" d="M26.331,30.559c-0.23,0.227-0.389,0.591-0.194,0.898c0.01,0.016,0.037,0.01,0.037-0.01
		c-0.003-0.144-0.028-0.291-0.013-0.436c0.016-0.158,0.139-0.291,0.198-0.437C26.364,30.559,26.341,30.548,26.331,30.559z"/>
	<path class="st12" d="M29.531,31.276c-0.22-0.09-0.515-0.005-0.738,0.132c-0.127,0.078-0.225,0.192-0.285,0.321
		c-0.098,0.209-0.096,0.459,0.046,0.666c0.04,0.058,0.09,0.105,0.143,0.147c-0.105,0.03-0.208,0.073-0.299,0.129
		c-0.127,0.078-0.225,0.191-0.285,0.321c-0.098,0.209-0.096,0.459,0.046,0.666c0.279,0.406,0.951,0.4,1.263,0.031
		c0.204-0.242,0.198-0.596,0.044-0.857c-0.032-0.054-0.074-0.101-0.118-0.146c0.18-0.033,0.35-0.12,0.469-0.26
		c0.204-0.242,0.198-0.596,0.044-0.857C29.785,31.44,29.673,31.334,29.531,31.276z"/>
	<path class="st12" d="M28.472,31.267c-0.23,0.227-0.389,0.591-0.194,0.898c0.01,0.016,0.037,0.01,0.037-0.01
		c-0.003-0.144-0.028-0.291-0.013-0.436c0.016-0.158,0.139-0.291,0.198-0.437C28.506,31.267,28.483,31.257,28.472,31.267z"/>
	<path class="st12" d="M31.521,32.035c-0.22-0.09-0.515-0.005-0.738,0.132c-0.127,0.078-0.225,0.192-0.285,0.321
		c-0.098,0.209-0.096,0.459,0.046,0.666c0.279,0.406,0.951,0.4,1.263,0.031c0.204-0.242,0.198-0.596,0.044-0.857
		C31.775,32.199,31.663,32.093,31.521,32.035z"/>
	<path class="st12" d="M30.489,32.042c0.006-0.016-0.017-0.027-0.028-0.016c-0.23,0.227-0.389,0.591-0.194,0.898
		c0.01,0.016,0.037,0.01,0.037-0.01c-0.003-0.144-0.028-0.291-0.013-0.436C30.308,32.321,30.431,32.187,30.489,32.042z"/>
	<path class="st12" d="M14.909,27.256c-0.22-0.09-0.515-0.005-0.738,0.132c-0.127,0.078-0.225,0.191-0.285,0.321
		c-0.098,0.209-0.096,0.459,0.046,0.666c0.279,0.406,0.951,0.4,1.263,0.031c0.204-0.242,0.198-0.596,0.044-0.857
		C15.162,27.42,15.05,27.314,14.909,27.256z"/>
	<path class="st12" d="M13.877,27.263c0.006-0.016-0.017-0.027-0.028-0.016c-0.23,0.227-0.389,0.591-0.194,0.898
		c0.01,0.016,0.037,0.01,0.037-0.01c-0.003-0.144-0.028-0.291-0.013-0.436C13.695,27.542,13.818,27.409,13.877,27.263z"/>
	<path class="st12" d="M15.867,28.022c0.006-0.016-0.017-0.027-0.028-0.016c-0.23,0.227-0.389,0.591-0.194,0.898
		c0.01,0.016,0.037,0.01,0.037-0.01c-0.003-0.144-0.028-0.291-0.013-0.436C15.685,28.301,15.808,28.167,15.867,28.022z"/>
	<path class="st12" d="M18.008,28.73c0.006-0.016-0.017-0.027-0.027-0.016c-0.23,0.227-0.389,0.591-0.194,0.898
		c0.01,0.016,0.037,0.01,0.037-0.01c-0.003-0.144-0.028-0.291-0.013-0.436C17.827,29.009,17.949,28.876,18.008,28.73z"/>
	<path class="st12" d="M21.242,29.629c0.18-0.033,0.35-0.12,0.469-0.26c0.204-0.242,0.198-0.596,0.044-0.857
		c-0.076-0.129-0.188-0.235-0.33-0.293c-0.22-0.09-0.515-0.005-0.738,0.132c-0.127,0.078-0.225,0.192-0.285,0.321
		c-0.098,0.209-0.096,0.459,0.046,0.666c0.04,0.058,0.09,0.105,0.143,0.147c-0.105,0.03-0.208,0.073-0.299,0.129
		c-0.127,0.078-0.225,0.191-0.285,0.321c-0.098,0.209-0.096,0.459,0.046,0.666c0.279,0.406,0.951,0.4,1.263,0.031
		c0.204-0.242,0.198-0.596,0.044-0.857C21.328,29.72,21.286,29.673,21.242,29.629z"/>
	<path class="st12" d="M19.998,29.489c0.006-0.016-0.017-0.027-0.028-0.016c-0.23,0.227-0.389,0.591-0.194,0.898
		c0.01,0.016,0.037,0.01,0.037-0.01c-0.003-0.144-0.028-0.291-0.013-0.436C19.816,29.768,19.939,29.635,19.998,29.489z"/>
	<path class="st12" d="M23.146,30.395c0.211-0.018,0.417-0.106,0.554-0.267c0.204-0.242,0.198-0.596,0.044-0.857
		c-0.076-0.129-0.188-0.235-0.33-0.293c-0.22-0.09-0.515-0.005-0.738,0.132c-0.127,0.078-0.225,0.192-0.285,0.321
		c-0.098,0.209-0.096,0.459,0.047,0.666c0.058,0.084,0.135,0.147,0.221,0.196c-0.132,0.026-0.266,0.082-0.38,0.152
		c-0.127,0.078-0.225,0.191-0.285,0.321c-0.098,0.209-0.096,0.459,0.047,0.666c0.279,0.406,0.951,0.4,1.263,0.031
		c0.204-0.242,0.198-0.596,0.044-0.857C23.296,30.521,23.225,30.453,23.146,30.395z"/>
	<path class="st12" d="M21.984,30.32c0.006-0.016-0.017-0.027-0.027-0.016c-0.23,0.227-0.389,0.591-0.194,0.898
		c0.01,0.016,0.037,0.01,0.037-0.01c-0.003-0.144-0.028-0.291-0.013-0.436C21.803,30.599,21.925,30.465,21.984,30.32z"/>
	<path class="st12" d="M23.974,31.079c0.006-0.016-0.017-0.027-0.028-0.016c-0.23,0.227-0.389,0.591-0.194,0.898
		c0.01,0.016,0.037,0.01,0.037-0.01c-0.003-0.144-0.028-0.291-0.013-0.436C23.793,31.358,23.915,31.224,23.974,31.079z"/>
	<path class="st12" d="M26.116,31.787c0.006-0.016-0.017-0.027-0.028-0.016c-0.23,0.227-0.389,0.591-0.194,0.898
		c0.01,0.016,0.037,0.01,0.037-0.01c-0.003-0.144-0.028-0.291-0.013-0.436C25.934,32.066,26.057,31.933,26.116,31.787z"/>
	<path class="st12" d="M28.105,32.546c0.006-0.016-0.017-0.027-0.028-0.016c-0.23,0.227-0.389,0.591-0.194,0.898
		c0.01,0.016,0.037,0.01,0.037-0.01c-0.003-0.144-0.028-0.291-0.013-0.436C27.924,32.825,28.047,32.691,28.105,32.546z"/>
	<g>
		<path class="st13" d="M18.972,26.394c0.173-0.18,0.049-0.447-0.186-0.473c-0.268-0.03-0.475,0.341-0.403,0.478
			C18.507,26.634,18.818,26.555,18.972,26.394z"/>
		<path class="st13" d="M20.962,27.153c0.173-0.18,0.049-0.447-0.186-0.473c-0.268-0.03-0.475,0.341-0.403,0.478
			C20.497,27.392,20.808,27.313,20.962,27.153z"/>
		<path class="st13" d="M23.103,27.861c0.173-0.18,0.049-0.447-0.186-0.473c-0.268-0.03-0.475,0.341-0.403,0.478
			C22.638,28.101,22.949,28.022,23.103,27.861z"/>
		<path class="st13" d="M25.093,28.62c0.173-0.18,0.049-0.447-0.186-0.473c-0.268-0.03-0.475,0.341-0.403,0.478
			C24.628,28.86,24.939,28.78,25.093,28.62z"/>
		<path class="st13" d="M27.079,29.451c0.173-0.18,0.049-0.447-0.186-0.473c-0.268-0.03-0.475,0.341-0.403,0.478
			C26.614,29.691,26.925,29.611,27.079,29.451z"/>
		<path class="st13" d="M29.069,30.21c0.173-0.18,0.049-0.447-0.186-0.473c-0.268-0.03-0.475,0.341-0.403,0.478
			C28.604,30.449,28.915,30.37,29.069,30.21z"/>
		<path class="st13" d="M31.211,30.918c0.173-0.18,0.049-0.447-0.186-0.473c-0.268-0.03-0.475,0.341-0.403,0.478
			C30.746,31.158,31.057,31.078,31.211,30.918z"/>
		<path class="st13" d="M33.015,31.203c-0.268-0.03-0.475,0.341-0.403,0.478c0.124,0.235,0.435,0.156,0.589-0.004
			C33.373,31.497,33.25,31.229,33.015,31.203z"/>
		<path class="st13" d="M17.01,27.052c-0.268-0.03-0.475,0.341-0.403,0.478c0.124,0.235,0.435,0.156,0.589-0.004
			C17.368,27.346,17.245,27.078,17.01,27.052z"/>
		<path class="st13" d="M19,27.811c-0.268-0.03-0.475,0.341-0.403,0.478c0.124,0.235,0.435,0.156,0.589-0.004
			C19.358,28.105,19.235,27.837,19,27.811z"/>
		<path class="st13" d="M21.142,28.519c-0.268-0.03-0.475,0.341-0.403,0.478c0.124,0.235,0.435,0.156,0.589-0.004
			C21.5,28.813,21.377,28.545,21.142,28.519z"/>
		<path class="st13" d="M23.131,29.278c-0.268-0.03-0.475,0.341-0.403,0.478c0.124,0.235,0.435,0.156,0.589-0.004
			C23.49,29.572,23.367,29.304,23.131,29.278z"/>
		<path class="st13" d="M25.118,30.109c-0.268-0.03-0.475,0.341-0.403,0.478c0.124,0.235,0.435,0.156,0.589-0.004
			C25.476,30.403,25.353,30.135,25.118,30.109z"/>
		<path class="st13" d="M27.107,30.868c-0.268-0.03-0.475,0.341-0.403,0.478c0.124,0.235,0.435,0.156,0.589-0.004
			C27.466,31.161,27.343,30.894,27.107,30.868z"/>
		<path class="st13" d="M29.249,31.576c-0.268-0.03-0.475,0.341-0.403,0.478c0.124,0.235,0.435,0.156,0.589-0.004
			C29.607,31.87,29.484,31.602,29.249,31.576z"/>
		<path class="st13" d="M31.239,32.335c-0.268-0.03-0.475,0.341-0.403,0.478c0.124,0.235,0.435,0.156,0.589-0.004
			C31.597,32.628,31.474,32.361,31.239,32.335z"/>
		<path class="st13" d="M14.636,27.636c-0.268-0.03-0.475,0.341-0.403,0.478c0.124,0.235,0.435,0.156,0.589-0.004
			C14.995,27.93,14.872,27.662,14.636,27.636z"/>
		<path class="st13" d="M16.626,28.395c-0.268-0.03-0.475,0.341-0.403,0.478c0.124,0.235,0.435,0.156,0.589-0.004
			C16.985,28.689,16.862,28.421,16.626,28.395z"/>
		<path class="st13" d="M18.768,29.103c-0.268-0.03-0.475,0.341-0.403,0.478c0.124,0.235,0.435,0.156,0.589-0.004
			C19.126,29.397,19.003,29.13,18.768,29.103z"/>
		<path class="st13" d="M20.758,29.862c-0.268-0.03-0.475,0.341-0.403,0.478c0.124,0.235,0.435,0.156,0.589-0.004
			C21.116,30.156,20.993,29.888,20.758,29.862z"/>
		<path class="st13" d="M22.744,30.693c-0.268-0.03-0.475,0.341-0.403,0.478c0.124,0.235,0.435,0.156,0.589-0.004
			C23.102,30.987,22.979,30.719,22.744,30.693z"/>
		<path class="st13" d="M24.734,31.452c-0.268-0.03-0.475,0.341-0.403,0.478c0.124,0.235,0.435,0.156,0.589-0.004
			C25.092,31.745,24.969,31.478,24.734,31.452z"/>
		<path class="st13" d="M26.875,32.16c-0.268-0.03-0.475,0.341-0.403,0.478c0.124,0.235,0.435,0.156,0.589-0.004
			C27.233,32.454,27.11,32.186,26.875,32.16z"/>
		<path class="st13" d="M28.865,32.919c-0.268-0.03-0.475,0.341-0.403,0.478c0.124,0.235,0.435,0.156,0.589-0.004
			C29.223,33.213,29.1,32.945,28.865,32.919z"/>
	</g>
	<g>
		<g>
			<g>
				<path class="st14" d="M13.819,20.651c0,0,0.257-0.271,0.837-0.273c0.679-0.002,0.837,0.273,0.837,0.273s0.038,0.471-0.837,0.471
					C13.782,21.122,13.819,20.651,13.819,20.651z"/>
				<path class="st15" d="M13.592,19.397c0,0,0.333,0.334,0.491,0.453c0.159,0.12,0.472,0.232,0.472,0.232s0.012,0.273-0.113,0.624
					c-0.045,0.127,0.346,0.196,0.355-0.028c0.014-0.323-0.069-0.573-0.069-0.573s0.223,0.085,0.415-0.101
					c0.191-0.186,0.577-0.514,0.577-0.514s-0.429-0.096-0.631-0.062c-0.373,0.062-0.442,0.422-0.442,0.422s-0.074-0.326-0.333-0.453
					C14.055,19.269,13.592,19.397,13.592,19.397z"/>
			</g>
			<g>
				<path class="st14" d="M15.714,19.76c0,0,0.257-0.271,0.837-0.273c0.679-0.002,0.837,0.273,0.837,0.273s0.038,0.471-0.837,0.471
					C15.677,20.231,15.714,19.76,15.714,19.76z"/>
				<path class="st15" d="M15.487,18.506c0,0,0.333,0.334,0.491,0.453c0.159,0.12,0.472,0.232,0.472,0.232s0.012,0.273-0.113,0.624
					c-0.045,0.127,0.346,0.196,0.355-0.028c0.014-0.323-0.069-0.573-0.069-0.573s0.223,0.085,0.415-0.101
					c0.191-0.186,0.577-0.514,0.577-0.514s-0.429-0.096-0.631-0.062c-0.373,0.062-0.442,0.422-0.442,0.422s-0.074-0.326-0.333-0.453
					C15.95,18.378,15.487,18.506,15.487,18.506z"/>
			</g>
			<g>
				<path class="st14" d="M17.552,18.72c0,0,0.257-0.271,0.837-0.273c0.679-0.002,0.837,0.273,0.837,0.273s0.038,0.471-0.837,0.471
					C17.515,19.191,17.552,18.72,17.552,18.72z"/>
				<path class="st15" d="M17.325,17.466c0,0,0.333,0.334,0.491,0.453c0.159,0.12,0.472,0.232,0.472,0.232s0.012,0.273-0.113,0.624
					c-0.045,0.127,0.346,0.196,0.355-0.028c0.014-0.323-0.069-0.573-0.069-0.573s0.223,0.085,0.415-0.101
					c0.191-0.186,0.577-0.514,0.577-0.514s-0.429-0.096-0.631-0.062c-0.373,0.062-0.442,0.422-0.442,0.422s-0.074-0.326-0.333-0.453
					C17.788,17.338,17.325,17.466,17.325,17.466z"/>
			</g>
			<g>
				<path class="st14" d="M16.522,21.764c0,0,0.257-0.271,0.837-0.273c0.679-0.002,0.837,0.273,0.837,0.273s0.038,0.471-0.837,0.471
					C16.485,22.235,16.522,21.764,16.522,21.764z"/>
				<path class="st15" d="M16.296,20.51c0,0,0.333,0.334,0.491,0.453c0.159,0.12,0.472,0.232,0.472,0.232s0.012,0.273-0.113,0.624
					c-0.045,0.127,0.346,0.196,0.355-0.028c0.014-0.323-0.069-0.573-0.069-0.573s0.223,0.085,0.415-0.101
					c0.191-0.186,0.577-0.514,0.577-0.514s-0.429-0.096-0.631-0.062c-0.373,0.062-0.442,0.422-0.442,0.422s-0.074-0.326-0.333-0.453
					C16.758,20.382,16.296,20.51,16.296,20.51z"/>
			</g>
			<g>
				<path class="st14" d="M18.418,20.873c0,0,0.257-0.271,0.837-0.273c0.679-0.002,0.837,0.273,0.837,0.273s0.038,0.471-0.837,0.471
					C18.38,21.344,18.418,20.873,18.418,20.873z"/>
				<path class="st15" d="M18.191,19.619c0,0,0.333,0.334,0.491,0.453c0.159,0.12,0.472,0.232,0.472,0.232s0.012,0.273-0.113,0.624
					c-0.045,0.127,0.346,0.196,0.355-0.028c0.014-0.323-0.069-0.573-0.069-0.573s0.223,0.085,0.415-0.101
					c0.191-0.186,0.577-0.514,0.577-0.514s-0.429-0.096-0.631-0.062c-0.373,0.062-0.442,0.422-0.442,0.422s-0.074-0.326-0.333-0.453
					C18.653,19.491,18.191,19.619,18.191,19.619z"/>
			</g>
			<g>
				<path class="st14" d="M20.255,19.833c0,0,0.257-0.271,0.837-0.273c0.679-0.002,0.837,0.273,0.837,0.273s0.038,0.471-0.837,0.471
					C20.218,20.304,20.255,19.833,20.255,19.833z"/>
				<path class="st15" d="M20.029,18.579c0,0,0.333,0.334,0.491,0.453c0.159,0.12,0.472,0.232,0.472,0.232s0.012,0.273-0.113,0.624
					c-0.045,0.127,0.346,0.196,0.355-0.028c0.014-0.323-0.069-0.573-0.069-0.573s0.223,0.085,0.415-0.101
					c0.191-0.186,0.577-0.514,0.577-0.514s-0.429-0.096-0.631-0.062c-0.373,0.062-0.442,0.422-0.442,0.422s-0.074-0.326-0.333-0.453
					C20.491,18.451,20.029,18.579,20.029,18.579z"/>
			</g>
		</g>
		<g>
			<g>
				<path class="st14" d="M19.319,22.675c0,0,0.257-0.271,0.837-0.273c0.679-0.002,0.837,0.273,0.837,0.273s0.038,0.471-0.837,0.471
					C19.282,23.146,19.319,22.675,19.319,22.675z"/>
				<path class="st15" d="M19.092,21.421c0,0,0.333,0.334,0.491,0.453c0.159,0.12,0.472,0.232,0.472,0.232s0.012,0.273-0.113,0.624
					c-0.045,0.127,0.346,0.196,0.355-0.028c0.014-0.323-0.069-0.573-0.069-0.573s0.223,0.085,0.415-0.101
					c0.191-0.186,0.577-0.514,0.577-0.514s-0.429-0.096-0.631-0.062c-0.373,0.062-0.442,0.422-0.442,0.422s-0.074-0.326-0.333-0.453
					C19.555,21.293,19.092,21.421,19.092,21.421z"/>
			</g>
			<g>
				<path class="st14" d="M21.214,21.784c0,0,0.257-0.271,0.837-0.273c0.679-0.002,0.837,0.273,0.837,0.273s0.038,0.471-0.837,0.471
					C21.177,22.255,21.214,21.784,21.214,21.784z"/>
				<path class="st15" d="M20.988,20.53c0,0,0.333,0.334,0.491,0.453c0.159,0.12,0.472,0.232,0.472,0.232s0.012,0.273-0.113,0.624
					c-0.045,0.127,0.346,0.196,0.355-0.028c0.014-0.323-0.069-0.573-0.069-0.573s0.223,0.085,0.415-0.101
					c0.191-0.186,0.577-0.514,0.577-0.514s-0.429-0.096-0.631-0.062c-0.373,0.062-0.442,0.422-0.442,0.422s-0.074-0.326-0.333-0.453
					C21.45,20.402,20.988,20.53,20.988,20.53z"/>
			</g>
			<g>
				<path class="st14" d="M23.052,20.744c0,0,0.257-0.271,0.837-0.273c0.679-0.002,0.837,0.273,0.837,0.273s0.038,0.471-0.837,0.471
					C23.015,21.215,23.052,20.744,23.052,20.744z"/>
				<path class="st15" d="M22.825,19.49c0,0,0.333,0.334,0.491,0.453c0.159,0.12,0.472,0.232,0.472,0.232s0.012,0.273-0.113,0.624
					c-0.045,0.127,0.346,0.196,0.355-0.028c0.014-0.323-0.069-0.573-0.069-0.573s0.223,0.085,0.415-0.101
					c0.191-0.186,0.577-0.514,0.577-0.514s-0.429-0.096-0.631-0.062c-0.373,0.062-0.442,0.422-0.442,0.422s-0.074-0.326-0.333-0.453
					C23.288,19.362,22.825,19.49,22.825,19.49z"/>
			</g>
			<g>
				<path class="st14" d="M22.023,23.788c0,0,0.257-0.271,0.837-0.273c0.679-0.002,0.837,0.273,0.837,0.273s0.038,0.471-0.837,0.471
					S22.023,23.788,22.023,23.788z"/>
				<path class="st15" d="M21.796,22.534c0,0,0.333,0.334,0.491,0.453c0.159,0.12,0.472,0.232,0.472,0.232s0.012,0.273-0.113,0.624
					c-0.045,0.127,0.346,0.196,0.355-0.028c0.014-0.323-0.069-0.573-0.069-0.573s0.223,0.085,0.415-0.101
					c0.191-0.186,0.577-0.514,0.577-0.514s-0.429-0.096-0.631-0.062c-0.373,0.062-0.442,0.422-0.442,0.422s-0.074-0.326-0.333-0.453
					C22.258,22.406,21.796,22.534,21.796,22.534z"/>
			</g>
			<g>
				<path class="st14" d="M23.918,22.897c0,0,0.257-0.271,0.837-0.273c0.679-0.002,0.837,0.273,0.837,0.273s0.038,0.471-0.837,0.471
					C23.88,23.368,23.918,22.897,23.918,22.897z"/>
				<path class="st15" d="M23.691,21.643c0,0,0.333,0.334,0.491,0.453c0.159,0.12,0.472,0.232,0.472,0.232s0.012,0.273-0.113,0.624
					c-0.045,0.127,0.346,0.196,0.355-0.028c0.014-0.323-0.069-0.573-0.069-0.573s0.223,0.085,0.415-0.101
					c0.191-0.186,0.577-0.514,0.577-0.514s-0.429-0.096-0.631-0.062c-0.373,0.062-0.442,0.422-0.442,0.422s-0.074-0.326-0.333-0.453
					C24.153,21.515,23.691,21.643,23.691,21.643z"/>
			</g>
			<g>
				<path class="st14" d="M25.756,21.857c0,0,0.257-0.271,0.837-0.273c0.679-0.002,0.837,0.273,0.837,0.273s0.038,0.471-0.837,0.471
					C25.718,22.328,25.756,21.857,25.756,21.857z"/>
				<path class="st15" d="M25.529,20.603c0,0,0.333,0.334,0.491,0.453c0.159,0.12,0.472,0.232,0.472,0.232s0.012,0.273-0.113,0.624
					c-0.045,0.127,0.346,0.196,0.355-0.028c0.014-0.323-0.069-0.573-0.069-0.573s0.223,0.085,0.415-0.101
					c0.191-0.186,0.577-0.514,0.577-0.514s-0.429-0.096-0.631-0.062c-0.373,0.062-0.442,0.422-0.442,0.422s-0.074-0.326-0.333-0.453
					C25.991,20.475,25.529,20.603,25.529,20.603z"/>
			</g>
		</g>
		<g>
			<g>
				<path class="st14" d="M24.553,24.79c0,0,0.257-0.271,0.837-0.273c0.679-0.002,0.837,0.273,0.837,0.273s0.038,0.471-0.837,0.471
					C24.515,25.261,24.553,24.79,24.553,24.79z"/>
				<path class="st15" d="M24.326,23.535c0,0,0.333,0.334,0.491,0.453c0.159,0.12,0.472,0.232,0.472,0.232s0.012,0.273-0.113,0.624
					c-0.045,0.127,0.346,0.196,0.355-0.028c0.014-0.323-0.069-0.573-0.069-0.573s0.223,0.085,0.415-0.101
					c0.191-0.186,0.577-0.514,0.577-0.514s-0.429-0.096-0.631-0.062c-0.373,0.062-0.442,0.422-0.442,0.422s-0.074-0.326-0.333-0.453
					C24.788,23.408,24.326,23.535,24.326,23.535z"/>
			</g>
			<g>
				<path class="st14" d="M26.448,23.899c0,0,0.257-0.271,0.837-0.273c0.679-0.002,0.837,0.273,0.837,0.273s0.038,0.471-0.837,0.471
					C26.41,24.37,26.448,23.899,26.448,23.899z"/>
				<path class="st15" d="M26.221,22.644c0,0,0.333,0.334,0.491,0.453c0.159,0.12,0.472,0.232,0.472,0.232s0.012,0.273-0.113,0.624
					c-0.045,0.127,0.346,0.196,0.355-0.028c0.014-0.323-0.069-0.573-0.069-0.573s0.223,0.085,0.415-0.101
					c0.191-0.186,0.577-0.514,0.577-0.514s-0.429-0.096-0.631-0.062c-0.373,0.062-0.442,0.422-0.442,0.422s-0.074-0.326-0.333-0.453
					C26.683,22.517,26.221,22.644,26.221,22.644z"/>
			</g>
			<g>
				<path class="st14" d="M28.286,22.859c0,0,0.257-0.271,0.837-0.273c0.679-0.002,0.837,0.273,0.837,0.273s0.038,0.471-0.837,0.471
					C28.248,23.329,28.286,22.859,28.286,22.859z"/>
				<path class="st15" d="M28.059,21.604c0,0,0.333,0.334,0.491,0.453c0.159,0.12,0.472,0.232,0.472,0.232s0.012,0.273-0.113,0.624
					c-0.045,0.127,0.346,0.196,0.355-0.028c0.014-0.323-0.069-0.573-0.069-0.573s0.223,0.085,0.415-0.101
					c0.191-0.186,0.577-0.514,0.577-0.514s-0.429-0.096-0.631-0.062c-0.373,0.062-0.442,0.422-0.442,0.422s-0.074-0.326-0.333-0.453
					C28.521,21.477,28.059,21.604,28.059,21.604z"/>
			</g>
			<g>
				<path class="st14" d="M27.256,25.903c0,0,0.257-0.271,0.837-0.273c0.679-0.002,0.837,0.273,0.837,0.273s0.038,0.471-0.837,0.471
					C27.219,26.374,27.256,25.903,27.256,25.903z"/>
				<path class="st15" d="M27.029,24.648c0,0,0.333,0.334,0.491,0.453c0.159,0.12,0.472,0.232,0.472,0.232s0.012,0.273-0.113,0.624
					c-0.045,0.127,0.346,0.196,0.355-0.028c0.014-0.323-0.069-0.573-0.069-0.573s0.223,0.085,0.415-0.101
					c0.191-0.186,0.577-0.514,0.577-0.514s-0.429-0.096-0.631-0.062c-0.373,0.062-0.442,0.422-0.442,0.422s-0.074-0.326-0.333-0.453
					C27.492,24.521,27.029,24.648,27.029,24.648z"/>
			</g>
			<g>
				<path class="st14" d="M29.151,25.012c0,0,0.257-0.271,0.837-0.273c0.679-0.002,0.837,0.273,0.837,0.273s0.038,0.471-0.837,0.471
					S29.151,25.012,29.151,25.012z"/>
				<path class="st15" d="M28.925,23.757c0,0,0.333,0.334,0.491,0.453c0.159,0.12,0.472,0.232,0.472,0.232s0.012,0.273-0.113,0.624
					c-0.045,0.127,0.346,0.196,0.355-0.028c0.014-0.323-0.069-0.573-0.069-0.573s0.223,0.085,0.415-0.101
					c0.191-0.186,0.577-0.514,0.577-0.514s-0.429-0.096-0.631-0.062c-0.373,0.062-0.442,0.422-0.442,0.422s-0.074-0.326-0.333-0.453
					C29.387,23.63,28.925,23.757,28.925,23.757z"/>
			</g>
			<g>
				<path class="st14" d="M30.989,23.972c0,0,0.257-0.271,0.837-0.273c0.679-0.002,0.837,0.273,0.837,0.273s0.038,0.471-0.837,0.471
					C30.952,24.442,30.989,23.972,30.989,23.972z"/>
				<path class="st15" d="M30.762,22.717c0,0,0.333,0.334,0.491,0.453c0.159,0.12,0.472,0.232,0.472,0.232s0.012,0.273-0.113,0.624
					c-0.045,0.127,0.346,0.196,0.355-0.028c0.014-0.323-0.069-0.573-0.069-0.573s0.223,0.085,0.415-0.101
					c0.191-0.186,0.577-0.514,0.577-0.514s-0.429-0.096-0.631-0.062c-0.373,0.062-0.442,0.422-0.442,0.422s-0.074-0.326-0.333-0.453
					C31.225,22.59,30.762,22.717,30.762,22.717z"/>
			</g>
		</g>
	</g>
	<g>
		<g>
			<path class="st16" d="M18.695,10.71c0,0.222-0.32,0.403-0.715,0.403c-0.395,0-0.715-0.18-0.715-0.403
				c0-0.222,0.32-0.403,0.715-0.403C18.375,10.308,18.695,10.488,18.695,10.71z"/>
			<path class="st14" d="M17.294,10.823c0,0,0.178-0.187,0.646-0.199c0.468-0.012,0.694,0.249,0.694,0.249s-0.111,0.24-0.654,0.24
				C17.437,11.113,17.294,10.823,17.294,10.823z"/>
			<path class="st12" d="M18.271,10.134c-0.144,0.049-0.136,0.212-0.103,0.331c-0.067,0.036-0.182,0.099-0.229,0.159
				c-0.041-0.215-0.135-0.46-0.014-0.663c0.122-0.003,0.29-0.049,0.393-0.118c0.078,0.063,0.235,0.013,0.298-0.063
				c0.089-0.107,0.118-0.199,0.12-0.434c-0.155,0.047-0.518,0.226-0.458,0.448c-0.044,0.044-0.193,0.116-0.311,0.097
				c0.015-0.041,0.064-0.134,0.086-0.176c0.056-0.105,0.248-0.482,0.159-0.783c0.096-0.02,0.167-0.117,0.194-0.213
				c0.054-0.194-0.05-0.387-0.029-0.584c0-0.002-0.002-0.002-0.003-0.001c-0.004,0.007-0.006,0.014-0.01,0.021
				c-0.002-0.001-0.004-0.002-0.006-0.002c-0.184,0.057-0.249,0.471-0.234,0.7c-0.093-0.089-0.218-0.185-0.4-0.365
				c-0.035,0.151-0.016,0.306,0.076,0.439c0.063,0.091,0.228,0.099,0.356,0.093c0.006,0.038-0.011,0.219-0.018,0.263
				c-0.037,0.214-0.233,0.461-0.32,0.669c-0.063-0.106-0.111-0.269-0.18-0.371c0.098-0.039,0.129-0.19,0.119-0.286
				C17.741,9.137,17.62,8.99,17.483,8.92c-0.063,0.23-0.1,0.503,0.104,0.659c0.048,0.172,0.117,0.338,0.214,0.44
				c-0.009,0.039-0.016,0.079-0.018,0.12c-0.014,0.283,0.038,0.489,0.106,0.76c0.035-0.022,0.077-0.035,0.12-0.037
				c-0.014-0.076-0.026-0.109-0.04-0.187c0.067-0.061,0.144-0.118,0.241-0.158c0.003-0.001,0.072,0.072,0.196-0.01
				c0.113-0.075,0.23-0.238,0.242-0.372C18.59,10.104,18.353,10.106,18.271,10.134z"/>
		</g>
		<g>
			<path class="st16" d="M16.869,11.437c0,0.222-0.32,0.403-0.715,0.403c-0.395,0-0.715-0.18-0.715-0.403
				c0-0.222,0.32-0.403,0.715-0.403C16.549,11.035,16.869,11.215,16.869,11.437z"/>
			<path class="st14" d="M15.468,11.55c0,0,0.178-0.187,0.646-0.199c0.468-0.012,0.694,0.249,0.694,0.249s-0.111,0.24-0.654,0.24
				C15.611,11.84,15.468,11.55,15.468,11.55z"/>
			<path class="st12" d="M16.445,10.861c-0.144,0.049-0.136,0.212-0.103,0.331c-0.067,0.036-0.182,0.099-0.229,0.159
				c-0.041-0.215-0.135-0.46-0.014-0.663c0.122-0.003,0.29-0.049,0.393-0.118c0.078,0.063,0.235,0.013,0.298-0.063
				c0.089-0.107,0.118-0.199,0.12-0.434c-0.155,0.047-0.518,0.226-0.458,0.448c-0.044,0.044-0.193,0.116-0.311,0.097
				c0.015-0.041,0.064-0.134,0.086-0.176c0.056-0.105,0.248-0.482,0.159-0.783c0.096-0.02,0.167-0.117,0.194-0.213
				c0.054-0.194-0.05-0.387-0.029-0.584c0-0.002-0.002-0.002-0.003-0.001c-0.004,0.007-0.006,0.014-0.01,0.021
				c-0.002-0.001-0.004-0.002-0.006-0.002c-0.184,0.057-0.249,0.471-0.234,0.7c-0.093-0.089-0.218-0.185-0.4-0.365
				c-0.036,0.151-0.016,0.306,0.076,0.439c0.063,0.091,0.228,0.099,0.356,0.093c0.006,0.038-0.011,0.219-0.018,0.263
				c-0.037,0.214-0.233,0.461-0.32,0.669c-0.063-0.106-0.111-0.269-0.18-0.371c0.098-0.039,0.129-0.19,0.119-0.286
				c-0.017-0.157-0.138-0.304-0.274-0.374c-0.063,0.23-0.1,0.503,0.104,0.659c0.048,0.172,0.117,0.338,0.214,0.44
				c-0.009,0.039-0.016,0.079-0.018,0.12c-0.014,0.283,0.038,0.489,0.106,0.76c0.035-0.022,0.077-0.035,0.12-0.037
				c-0.014-0.076-0.026-0.109-0.04-0.187c0.067-0.061,0.144-0.118,0.241-0.158c0.003-0.001,0.072,0.072,0.196-0.01
				c0.113-0.075,0.23-0.238,0.242-0.372C16.764,10.831,16.527,10.833,16.445,10.861z"/>
		</g>
		<g>
			<path class="st16" d="M15.018,12.437c0,0.222-0.32,0.403-0.715,0.403c-0.395,0-0.715-0.18-0.715-0.403
				c0-0.222,0.32-0.403,0.715-0.403C14.697,12.035,15.018,12.215,15.018,12.437z"/>
			<path class="st14" d="M13.616,12.55c0,0,0.178-0.187,0.646-0.199c0.468-0.012,0.694,0.249,0.694,0.249s-0.111,0.24-0.654,0.24
				C13.759,12.84,13.616,12.55,13.616,12.55z"/>
			<path class="st12" d="M14.593,11.861c-0.144,0.049-0.136,0.212-0.103,0.331c-0.067,0.036-0.182,0.099-0.229,0.159
				c-0.041-0.215-0.135-0.46-0.014-0.663c0.122-0.003,0.29-0.049,0.393-0.118c0.078,0.063,0.235,0.013,0.298-0.063
				c0.089-0.107,0.118-0.199,0.12-0.434c-0.155,0.047-0.518,0.226-0.458,0.448c-0.044,0.044-0.193,0.116-0.311,0.097
				c0.015-0.041,0.064-0.134,0.086-0.176c0.056-0.105,0.248-0.482,0.159-0.783c0.096-0.02,0.167-0.117,0.194-0.213
				c0.054-0.194-0.05-0.387-0.029-0.584c0-0.002-0.002-0.002-0.003-0.001c-0.004,0.007-0.006,0.014-0.01,0.021
				c-0.002-0.001-0.004-0.002-0.006-0.002c-0.184,0.057-0.249,0.471-0.234,0.7c-0.093-0.089-0.218-0.185-0.4-0.365
				c-0.036,0.151-0.016,0.306,0.076,0.439c0.063,0.091,0.228,0.099,0.356,0.093c0.006,0.038-0.011,0.219-0.018,0.263
				c-0.037,0.214-0.233,0.461-0.32,0.669c-0.063-0.106-0.111-0.269-0.18-0.371c0.098-0.039,0.129-0.19,0.119-0.286
				c-0.017-0.157-0.138-0.304-0.274-0.374c-0.063,0.23-0.1,0.503,0.104,0.659c0.048,0.172,0.117,0.338,0.214,0.44
				c-0.009,0.039-0.016,0.079-0.018,0.12c-0.014,0.283,0.038,0.489,0.106,0.76c0.035-0.022,0.077-0.035,0.12-0.037
				c-0.014-0.076-0.026-0.109-0.04-0.187c0.067-0.061,0.144-0.118,0.241-0.158c0.003-0.001,0.072,0.072,0.196-0.01
				c0.113-0.075,0.23-0.238,0.242-0.372C14.913,11.831,14.675,11.833,14.593,11.861z"/>
		</g>
	</g>
	<g>
		<g>
			<path class="st16" d="M21.659,11.797c0,0.222-0.32,0.403-0.715,0.403s-0.715-0.18-0.715-0.403c0-0.222,0.32-0.403,0.715-0.403
				S21.659,11.575,21.659,11.797z"/>
			<path class="st14" d="M20.257,11.91c0,0,0.178-0.187,0.646-0.199c0.468-0.012,0.694,0.249,0.694,0.249s-0.111,0.24-0.654,0.24
				C20.401,12.2,20.257,11.91,20.257,11.91z"/>
			<path class="st12" d="M21.235,11.221c-0.144,0.049-0.136,0.212-0.103,0.331c-0.067,0.036-0.182,0.099-0.229,0.159
				c-0.041-0.215-0.135-0.46-0.014-0.663c0.122-0.003,0.29-0.049,0.393-0.118c0.078,0.063,0.235,0.013,0.298-0.063
				c0.089-0.107,0.118-0.199,0.12-0.434c-0.155,0.047-0.518,0.226-0.458,0.448c-0.044,0.044-0.193,0.116-0.311,0.097
				c0.015-0.041,0.064-0.134,0.086-0.176c0.056-0.105,0.248-0.482,0.159-0.783c0.096-0.02,0.167-0.117,0.194-0.213
				c0.054-0.194-0.05-0.387-0.029-0.584c0-0.002-0.002-0.002-0.003-0.001c-0.004,0.007-0.006,0.014-0.01,0.021
				c-0.002-0.001-0.004-0.002-0.006-0.002c-0.184,0.057-0.249,0.471-0.234,0.7c-0.093-0.089-0.218-0.185-0.4-0.365
				c-0.036,0.151-0.016,0.306,0.076,0.439c0.063,0.091,0.228,0.099,0.356,0.093c0.006,0.038-0.011,0.219-0.018,0.263
				c-0.037,0.214-0.233,0.461-0.32,0.669c-0.063-0.106-0.111-0.269-0.18-0.371c0.098-0.039,0.129-0.19,0.119-0.286
				c-0.017-0.157-0.138-0.304-0.274-0.374c-0.063,0.23-0.1,0.503,0.104,0.659c0.048,0.172,0.117,0.338,0.214,0.44
				c-0.009,0.039-0.016,0.079-0.018,0.12c-0.014,0.283,0.038,0.489,0.106,0.76c0.035-0.022,0.077-0.035,0.12-0.037
				c-0.014-0.076-0.026-0.109-0.04-0.187c0.067-0.061,0.144-0.118,0.241-0.158c0.003-0.001,0.072,0.072,0.196-0.01
				c0.113-0.075,0.23-0.238,0.242-0.372C21.554,11.19,21.316,11.193,21.235,11.221z"/>
		</g>
		<g>
			<path class="st16" d="M19.833,12.524c0,0.222-0.32,0.403-0.715,0.403s-0.715-0.18-0.715-0.403c0-0.222,0.32-0.403,0.715-0.403
				S19.833,12.302,19.833,12.524z"/>
			<path class="st14" d="M18.431,12.637c0,0,0.178-0.187,0.646-0.199c0.468-0.012,0.694,0.249,0.694,0.249s-0.111,0.24-0.654,0.24
				C18.575,12.927,18.431,12.637,18.431,12.637z"/>
			<path class="st12" d="M19.408,11.948c-0.144,0.049-0.136,0.212-0.103,0.331c-0.067,0.036-0.182,0.099-0.229,0.159
				c-0.041-0.215-0.135-0.46-0.014-0.663c0.122-0.003,0.29-0.049,0.393-0.118c0.078,0.063,0.235,0.013,0.298-0.063
				c0.089-0.107,0.118-0.199,0.12-0.434c-0.155,0.047-0.518,0.226-0.458,0.448c-0.044,0.044-0.193,0.116-0.311,0.097
				c0.015-0.041,0.064-0.134,0.086-0.176c0.056-0.105,0.248-0.482,0.159-0.783c0.096-0.02,0.167-0.117,0.194-0.213
				c0.054-0.194-0.05-0.387-0.029-0.584c0-0.002-0.002-0.002-0.003-0.001c-0.004,0.007-0.006,0.014-0.01,0.021
				c-0.002-0.001-0.004-0.002-0.006-0.002c-0.184,0.057-0.249,0.471-0.234,0.7c-0.093-0.089-0.218-0.185-0.4-0.365
				c-0.036,0.151-0.016,0.306,0.076,0.439c0.063,0.091,0.228,0.099,0.356,0.093c0.006,0.038-0.011,0.219-0.018,0.263
				c-0.037,0.214-0.233,0.461-0.32,0.669c-0.063-0.106-0.111-0.269-0.18-0.371c0.098-0.039,0.129-0.19,0.119-0.286
				c-0.017-0.157-0.138-0.304-0.274-0.374c-0.063,0.23-0.1,0.503,0.104,0.659c0.048,0.172,0.117,0.338,0.214,0.44
				c-0.009,0.039-0.016,0.079-0.018,0.12c-0.014,0.283,0.038,0.489,0.106,0.76c0.035-0.022,0.077-0.035,0.12-0.037
				c-0.014-0.076-0.026-0.109-0.04-0.187c0.067-0.061,0.144-0.118,0.241-0.158c0.003-0.001,0.072,0.072,0.196-0.01
				c0.113-0.075,0.23-0.238,0.242-0.372C19.728,11.918,19.49,11.92,19.408,11.948z"/>
		</g>
		<g>
			<path class="st16" d="M17.981,13.524c0,0.222-0.32,0.403-0.715,0.403s-0.715-0.18-0.715-0.403c0-0.222,0.32-0.403,0.715-0.403
				S17.981,13.302,17.981,13.524z"/>
			<path class="st14" d="M16.58,13.637c0,0,0.178-0.187,0.646-0.199c0.468-0.012,0.694,0.249,0.694,0.249s-0.111,0.24-0.654,0.24
				C16.723,13.927,16.58,13.637,16.58,13.637z"/>
			<path class="st12" d="M17.557,12.948c-0.144,0.049-0.136,0.212-0.103,0.331c-0.067,0.036-0.182,0.099-0.229,0.159
				c-0.041-0.215-0.135-0.46-0.014-0.663c0.122-0.003,0.29-0.049,0.393-0.118c0.078,0.063,0.235,0.013,0.298-0.063
				c0.089-0.107,0.118-0.199,0.12-0.434c-0.155,0.047-0.518,0.226-0.458,0.448c-0.044,0.044-0.193,0.116-0.311,0.097
				c0.015-0.041,0.064-0.134,0.086-0.176c0.056-0.105,0.248-0.482,0.159-0.783c0.096-0.02,0.167-0.117,0.194-0.213
				c0.054-0.194-0.05-0.387-0.029-0.584c0-0.002-0.002-0.002-0.003-0.001c-0.004,0.007-0.006,0.014-0.01,0.021
				c-0.002-0.001-0.004-0.002-0.006-0.002c-0.184,0.057-0.249,0.471-0.234,0.7c-0.093-0.089-0.218-0.185-0.4-0.365
				c-0.036,0.151-0.016,0.306,0.076,0.439c0.063,0.091,0.228,0.099,0.356,0.093c0.006,0.038-0.011,0.219-0.018,0.263
				c-0.037,0.214-0.233,0.461-0.32,0.669c-0.063-0.106-0.111-0.269-0.18-0.371c0.098-0.039,0.129-0.19,0.119-0.286
				c-0.017-0.157-0.138-0.304-0.274-0.374c-0.063,0.23-0.1,0.503,0.104,0.659c0.048,0.172,0.117,0.338,0.214,0.44
				c-0.009,0.039-0.016,0.079-0.018,0.12c-0.014,0.283,0.038,0.489,0.106,0.76c0.035-0.022,0.077-0.035,0.12-0.037
				c-0.014-0.076-0.026-0.109-0.04-0.187c0.067-0.061,0.144-0.118,0.241-0.158c0.003-0.001,0.072,0.072,0.196-0.01
				c0.113-0.075,0.23-0.238,0.242-0.372C17.876,12.918,17.639,12.92,17.557,12.948z"/>
		</g>
	</g>
	<g>
		<g>
			<path class="st16" d="M24.743,12.95c0,0.222-0.32,0.403-0.715,0.403c-0.395,0-0.715-0.18-0.715-0.403
				c0-0.222,0.32-0.403,0.715-0.403C24.423,12.548,24.743,12.728,24.743,12.95z"/>
			<path class="st14" d="M23.341,13.063c0,0,0.178-0.187,0.646-0.199c0.468-0.012,0.694,0.249,0.694,0.249s-0.111,0.24-0.654,0.24
				C23.485,13.353,23.341,13.063,23.341,13.063z"/>
			<path class="st12" d="M24.318,12.374c-0.144,0.049-0.136,0.212-0.103,0.331c-0.067,0.036-0.182,0.099-0.229,0.159
				c-0.041-0.215-0.135-0.46-0.014-0.663c0.122-0.003,0.29-0.049,0.393-0.118c0.078,0.063,0.235,0.013,0.298-0.063
				c0.089-0.107,0.118-0.199,0.12-0.434c-0.155,0.047-0.518,0.226-0.458,0.448c-0.044,0.044-0.193,0.116-0.311,0.097
				c0.015-0.041,0.064-0.134,0.086-0.176c0.056-0.105,0.248-0.482,0.159-0.783c0.096-0.02,0.167-0.117,0.194-0.213
				c0.054-0.194-0.05-0.387-0.029-0.584c0-0.002-0.002-0.002-0.003-0.001c-0.004,0.007-0.006,0.014-0.01,0.021
				c-0.002-0.001-0.004-0.002-0.006-0.002c-0.184,0.057-0.249,0.471-0.234,0.7c-0.093-0.089-0.218-0.185-0.4-0.365
				c-0.036,0.151-0.016,0.306,0.076,0.439c0.063,0.091,0.228,0.099,0.356,0.093c0.006,0.038-0.011,0.219-0.018,0.263
				c-0.037,0.214-0.233,0.461-0.32,0.669c-0.063-0.106-0.111-0.269-0.18-0.371c0.098-0.039,0.129-0.19,0.119-0.286
				c-0.017-0.157-0.138-0.304-0.274-0.374c-0.063,0.23-0.1,0.503,0.104,0.659c0.048,0.172,0.117,0.338,0.214,0.44
				c-0.009,0.039-0.016,0.079-0.018,0.12c-0.014,0.283,0.038,0.489,0.106,0.76c0.035-0.022,0.077-0.035,0.12-0.037
				c-0.014-0.076-0.026-0.109-0.04-0.187c0.067-0.061,0.144-0.118,0.241-0.158c0.003-0.001,0.072,0.072,0.196-0.01
				c0.113-0.075,0.23-0.238,0.242-0.372C24.638,12.344,24.4,12.346,24.318,12.374z"/>
		</g>
		<g>
			<path class="st16" d="M22.917,13.677c0,0.222-0.32,0.403-0.715,0.403c-0.395,0-0.715-0.18-0.715-0.403
				c0-0.222,0.32-0.403,0.715-0.403C22.596,13.275,22.917,13.455,22.917,13.677z"/>
			<path class="st14" d="M21.515,13.79c0,0,0.178-0.187,0.646-0.199c0.468-0.012,0.694,0.249,0.694,0.249s-0.111,0.24-0.654,0.24
				C21.659,14.08,21.515,13.79,21.515,13.79z"/>
			<path class="st12" d="M22.492,13.102c-0.144,0.049-0.136,0.212-0.103,0.331c-0.067,0.036-0.182,0.099-0.229,0.159
				c-0.041-0.215-0.135-0.46-0.014-0.663c0.122-0.003,0.29-0.049,0.393-0.118c0.078,0.063,0.235,0.013,0.298-0.063
				c0.089-0.107,0.118-0.199,0.12-0.434c-0.155,0.047-0.518,0.226-0.458,0.448c-0.044,0.044-0.193,0.116-0.311,0.097
				c0.015-0.041,0.064-0.134,0.086-0.176c0.056-0.105,0.248-0.482,0.159-0.783c0.096-0.02,0.167-0.117,0.194-0.213
				c0.054-0.194-0.05-0.387-0.029-0.584c0-0.002-0.002-0.002-0.003-0.001c-0.004,0.007-0.006,0.014-0.01,0.021
				c-0.002-0.001-0.004-0.002-0.006-0.002c-0.184,0.057-0.249,0.471-0.234,0.7c-0.093-0.089-0.218-0.185-0.4-0.365
				c-0.036,0.151-0.016,0.306,0.076,0.439c0.063,0.091,0.228,0.099,0.356,0.093c0.006,0.038-0.011,0.219-0.018,0.263
				c-0.037,0.214-0.233,0.461-0.32,0.669c-0.063-0.106-0.111-0.269-0.18-0.371c0.098-0.039,0.129-0.19,0.119-0.286
				c-0.017-0.157-0.138-0.304-0.274-0.374c-0.063,0.23-0.1,0.503,0.104,0.659c0.048,0.172,0.117,0.338,0.214,0.44
				c-0.009,0.039-0.016,0.079-0.018,0.12c-0.014,0.283,0.038,0.489,0.106,0.76c0.035-0.022,0.077-0.035,0.12-0.037
				c-0.014-0.076-0.026-0.109-0.04-0.187c0.067-0.061,0.144-0.118,0.241-0.158c0.003-0.001,0.072,0.072,0.196-0.01
				c0.113-0.075,0.23-0.238,0.242-0.372C22.812,13.071,22.574,13.073,22.492,13.102z"/>
		</g>
		<g>
			<path class="st16" d="M21.065,14.678c0,0.222-0.32,0.403-0.715,0.403c-0.395,0-0.715-0.18-0.715-0.403
				c0-0.222,0.32-0.403,0.715-0.403C20.745,14.275,21.065,14.455,21.065,14.678z"/>
			<path class="st14" d="M19.664,14.79c0,0,0.178-0.187,0.646-0.199c0.468-0.012,0.694,0.249,0.694,0.249s-0.111,0.24-0.654,0.24
				C19.807,15.08,19.664,14.79,19.664,14.79z"/>
			<path class="st12" d="M20.641,14.102c-0.144,0.049-0.136,0.212-0.103,0.331c-0.067,0.036-0.182,0.099-0.229,0.159
				c-0.041-0.215-0.135-0.46-0.014-0.663c0.122-0.003,0.29-0.049,0.393-0.118c0.078,0.063,0.235,0.013,0.298-0.063
				c0.089-0.107,0.118-0.199,0.12-0.434c-0.155,0.047-0.518,0.226-0.458,0.448c-0.044,0.044-0.193,0.116-0.311,0.097
				c0.015-0.041,0.064-0.134,0.086-0.176c0.056-0.105,0.248-0.482,0.159-0.783c0.096-0.02,0.167-0.117,0.194-0.213
				c0.054-0.194-0.05-0.387-0.029-0.584c0-0.002-0.002-0.002-0.003-0.001c-0.004,0.007-0.006,0.014-0.01,0.021
				c-0.002-0.001-0.004-0.002-0.006-0.002c-0.184,0.057-0.249,0.471-0.234,0.7c-0.093-0.089-0.218-0.185-0.4-0.365
				c-0.036,0.151-0.016,0.306,0.076,0.439c0.063,0.091,0.228,0.099,0.356,0.093c0.006,0.038-0.011,0.219-0.018,0.263
				c-0.037,0.214-0.233,0.461-0.32,0.669c-0.063-0.106-0.111-0.269-0.18-0.371c0.098-0.039,0.129-0.19,0.119-0.286
				c-0.017-0.157-0.138-0.304-0.274-0.374c-0.063,0.23-0.1,0.503,0.104,0.659c0.048,0.172,0.117,0.338,0.214,0.44
				c-0.009,0.039-0.016,0.079-0.018,0.12c-0.014,0.283,0.038,0.489,0.106,0.76c0.035-0.022,0.077-0.035,0.12-0.037
				c-0.014-0.076-0.026-0.109-0.04-0.187c0.067-0.061,0.144-0.118,0.241-0.158c0.003-0.001,0.072,0.072,0.196-0.01
				c0.113-0.075,0.23-0.238,0.242-0.372C20.96,14.071,20.723,14.074,20.641,14.102z"/>
		</g>
	</g>
	<g>
		<g>
			<path class="st16" d="M27.707,14.037c0,0.222-0.32,0.403-0.715,0.403c-0.395,0-0.715-0.18-0.715-0.403
				c0-0.222,0.32-0.403,0.715-0.403C27.386,13.635,27.707,13.815,27.707,14.037z"/>
			<path class="st14" d="M26.305,14.15c0,0,0.178-0.187,0.646-0.199c0.468-0.012,0.694,0.249,0.694,0.249s-0.111,0.24-0.654,0.24
				C26.448,14.44,26.305,14.15,26.305,14.15z"/>
			<path class="st12" d="M27.282,13.461c-0.144,0.049-0.136,0.212-0.103,0.331c-0.067,0.036-0.182,0.099-0.229,0.159
				c-0.041-0.215-0.135-0.46-0.014-0.663c0.122-0.003,0.29-0.049,0.393-0.118c0.078,0.063,0.235,0.013,0.298-0.063
				c0.089-0.107,0.118-0.199,0.12-0.434c-0.155,0.047-0.518,0.226-0.458,0.448c-0.044,0.044-0.193,0.116-0.311,0.097
				c0.015-0.041,0.064-0.134,0.086-0.176c0.056-0.105,0.248-0.482,0.159-0.783c0.096-0.02,0.167-0.117,0.194-0.213
				c0.054-0.194-0.05-0.387-0.029-0.584c0-0.002-0.002-0.002-0.003-0.001c-0.004,0.007-0.006,0.014-0.01,0.021
				c-0.002-0.001-0.004-0.002-0.006-0.002c-0.184,0.057-0.249,0.471-0.234,0.7c-0.093-0.089-0.218-0.185-0.4-0.365
				c-0.035,0.151-0.016,0.306,0.076,0.439c0.063,0.091,0.228,0.099,0.356,0.093c0.006,0.038-0.011,0.219-0.018,0.263
				c-0.037,0.214-0.233,0.461-0.32,0.669c-0.063-0.106-0.111-0.269-0.18-0.371c0.098-0.039,0.129-0.19,0.119-0.286
				c-0.017-0.157-0.138-0.304-0.274-0.374c-0.063,0.23-0.1,0.503,0.104,0.659c0.048,0.172,0.117,0.338,0.214,0.44
				c-0.009,0.039-0.016,0.079-0.018,0.12c-0.014,0.283,0.038,0.489,0.106,0.76c0.035-0.022,0.077-0.035,0.12-0.037
				c-0.014-0.076-0.026-0.109-0.04-0.187c0.067-0.061,0.144-0.118,0.241-0.158c0.003-0.001,0.072,0.072,0.196-0.01
				c0.113-0.075,0.23-0.238,0.242-0.372C27.602,13.431,27.364,13.433,27.282,13.461z"/>
		</g>
		<g>
			<path class="st16" d="M25.88,14.764c0,0.222-0.32,0.403-0.715,0.403c-0.395,0-0.715-0.18-0.715-0.403
				c0-0.222,0.32-0.403,0.715-0.403C25.56,14.362,25.88,14.542,25.88,14.764z"/>
			<path class="st14" d="M24.479,14.877c0,0,0.178-0.187,0.646-0.199c0.468-0.012,0.694,0.249,0.694,0.249s-0.111,0.24-0.654,0.24
				C24.622,15.167,24.479,14.877,24.479,14.877z"/>
			<path class="st12" d="M25.456,14.188c-0.144,0.049-0.136,0.212-0.103,0.331c-0.067,0.036-0.182,0.099-0.229,0.159
				c-0.041-0.215-0.135-0.46-0.014-0.663c0.122-0.003,0.29-0.049,0.393-0.118c0.078,0.063,0.235,0.013,0.298-0.063
				c0.089-0.107,0.118-0.199,0.12-0.434c-0.155,0.047-0.518,0.226-0.458,0.448c-0.044,0.044-0.193,0.116-0.311,0.097
				c0.015-0.041,0.064-0.134,0.086-0.176c0.056-0.105,0.248-0.482,0.159-0.783c0.096-0.02,0.167-0.117,0.194-0.213
				c0.054-0.194-0.05-0.387-0.029-0.584c0-0.002-0.002-0.002-0.003-0.001c-0.004,0.007-0.006,0.014-0.01,0.021
				c-0.002-0.001-0.004-0.002-0.006-0.002c-0.184,0.057-0.249,0.471-0.234,0.7c-0.093-0.089-0.218-0.185-0.4-0.365
				c-0.035,0.151-0.016,0.306,0.076,0.439c0.063,0.091,0.228,0.099,0.356,0.093c0.006,0.038-0.011,0.219-0.018,0.263
				c-0.037,0.214-0.233,0.461-0.32,0.669c-0.063-0.106-0.111-0.269-0.18-0.371c0.098-0.039,0.129-0.19,0.119-0.286
				c-0.017-0.157-0.138-0.304-0.274-0.374c-0.063,0.23-0.1,0.503,0.104,0.659c0.048,0.172,0.117,0.338,0.214,0.44
				c-0.009,0.039-0.016,0.079-0.018,0.12c-0.014,0.283,0.038,0.489,0.106,0.76c0.035-0.022,0.077-0.035,0.12-0.037
				c-0.014-0.076-0.026-0.109-0.04-0.187c0.067-0.061,0.144-0.118,0.241-0.158c0.003-0.001,0.072,0.072,0.196-0.01
				c0.113-0.075,0.23-0.238,0.242-0.372C25.775,14.158,25.538,14.16,25.456,14.188z"/>
		</g>
		<g>
			<path class="st16" d="M24.029,15.764c0,0.222-0.32,0.403-0.715,0.403c-0.395,0-0.715-0.18-0.715-0.403
				c0-0.222,0.32-0.403,0.715-0.403C23.709,15.362,24.029,15.542,24.029,15.764z"/>
			<path class="st14" d="M22.627,15.877c0,0,0.178-0.187,0.646-0.199c0.468-0.012,0.694,0.249,0.694,0.249s-0.111,0.24-0.654,0.24
				C22.771,16.167,22.627,15.877,22.627,15.877z"/>
			<path class="st12" d="M23.604,15.188c-0.144,0.049-0.136,0.212-0.103,0.331c-0.067,0.036-0.182,0.099-0.229,0.159
				c-0.041-0.215-0.135-0.46-0.014-0.663c0.122-0.003,0.29-0.049,0.393-0.118c0.078,0.063,0.235,0.013,0.298-0.063
				c0.089-0.107,0.118-0.199,0.12-0.434c-0.155,0.047-0.518,0.226-0.458,0.448c-0.044,0.044-0.193,0.116-0.311,0.097
				c0.015-0.041,0.064-0.134,0.086-0.176c0.056-0.105,0.248-0.482,0.159-0.783c0.096-0.02,0.167-0.117,0.194-0.213
				c0.054-0.194-0.05-0.387-0.029-0.584c0-0.002-0.002-0.002-0.003-0.001c-0.004,0.007-0.006,0.014-0.01,0.021
				c-0.002-0.001-0.004-0.002-0.006-0.002c-0.184,0.057-0.249,0.471-0.234,0.7c-0.093-0.089-0.218-0.185-0.4-0.365
				c-0.035,0.151-0.016,0.306,0.076,0.439c0.063,0.091,0.228,0.099,0.356,0.093c0.006,0.038-0.011,0.219-0.018,0.263
				c-0.037,0.214-0.233,0.461-0.32,0.669c-0.063-0.106-0.111-0.269-0.18-0.371c0.098-0.039,0.129-0.19,0.119-0.286
				c-0.017-0.157-0.138-0.304-0.274-0.374c-0.063,0.23-0.1,0.503,0.104,0.659c0.048,0.172,0.117,0.338,0.214,0.44
				c-0.009,0.039-0.016,0.079-0.018,0.12c-0.014,0.283,0.038,0.489,0.106,0.76c0.035-0.022,0.077-0.035,0.12-0.037
				c-0.014-0.076-0.026-0.109-0.04-0.187c0.067-0.061,0.144-0.118,0.241-0.158c0.003-0.001,0.072,0.072,0.196-0.01
				c0.113-0.075,0.23-0.238,0.242-0.372C23.924,15.158,23.686,15.16,23.604,15.188z"/>
		</g>
	</g>
	<g>
		<g>
			<path class="st16" d="M31.122,15.362c0,0.222-0.32,0.403-0.715,0.403c-0.395,0-0.715-0.18-0.715-0.403
				c0-0.222,0.32-0.403,0.715-0.403C30.802,14.959,31.122,15.139,31.122,15.362z"/>
			<path class="st14" d="M29.721,15.474c0,0,0.178-0.187,0.646-0.199c0.468-0.012,0.694,0.249,0.694,0.249s-0.111,0.24-0.654,0.24
				C29.864,15.764,29.721,15.474,29.721,15.474z"/>
			<path class="st12" d="M30.698,14.786c-0.144,0.049-0.136,0.212-0.103,0.331c-0.067,0.036-0.182,0.099-0.229,0.159
				c-0.041-0.215-0.135-0.46-0.014-0.663c0.122-0.003,0.29-0.049,0.393-0.118c0.078,0.063,0.235,0.013,0.298-0.063
				c0.089-0.107,0.118-0.199,0.12-0.434c-0.155,0.047-0.518,0.226-0.458,0.448c-0.044,0.044-0.193,0.116-0.311,0.097
				c0.015-0.041,0.064-0.134,0.086-0.176c0.056-0.105,0.248-0.482,0.159-0.783c0.096-0.02,0.167-0.117,0.194-0.213
				c0.054-0.194-0.05-0.387-0.029-0.584c0-0.002-0.002-0.002-0.003-0.001c-0.004,0.007-0.006,0.014-0.01,0.021
				c-0.002-0.001-0.004-0.002-0.006-0.002c-0.184,0.057-0.249,0.471-0.234,0.7c-0.093-0.089-0.218-0.185-0.4-0.365
				c-0.035,0.151-0.016,0.306,0.076,0.439c0.063,0.091,0.228,0.099,0.356,0.093c0.006,0.038-0.011,0.219-0.018,0.263
				c-0.037,0.214-0.233,0.461-0.32,0.669c-0.063-0.106-0.111-0.269-0.18-0.371c0.098-0.039,0.129-0.19,0.119-0.286
				c-0.017-0.157-0.138-0.304-0.274-0.374c-0.063,0.23-0.1,0.503,0.104,0.659c0.048,0.172,0.117,0.338,0.214,0.44
				c-0.009,0.039-0.016,0.079-0.018,0.12c-0.014,0.283,0.038,0.489,0.106,0.76c0.035-0.022,0.077-0.035,0.12-0.037
				c-0.014-0.076-0.026-0.109-0.04-0.187c0.067-0.061,0.144-0.118,0.241-0.158c0.003-0.001,0.072,0.072,0.196-0.01
				c0.113-0.075,0.23-0.238,0.242-0.372C31.017,14.755,30.78,14.758,30.698,14.786z"/>
		</g>
		<g>
			<path class="st16" d="M29.296,16.089c0,0.222-0.32,0.403-0.715,0.403c-0.395,0-0.715-0.18-0.715-0.403
				c0-0.222,0.32-0.403,0.715-0.403C28.976,15.686,29.296,15.866,29.296,16.089z"/>
			<path class="st14" d="M27.895,16.201c0,0,0.178-0.187,0.646-0.199c0.468-0.012,0.694,0.249,0.694,0.249s-0.111,0.24-0.654,0.24
				C28.038,16.491,27.895,16.201,27.895,16.201z"/>
			<path class="st12" d="M28.872,15.513c-0.144,0.049-0.136,0.212-0.103,0.331c-0.067,0.036-0.182,0.099-0.229,0.159
				c-0.041-0.215-0.135-0.46-0.014-0.663c0.122-0.003,0.29-0.049,0.393-0.118c0.078,0.063,0.235,0.013,0.298-0.063
				c0.089-0.107,0.118-0.199,0.12-0.434c-0.155,0.047-0.518,0.226-0.458,0.448c-0.044,0.044-0.193,0.116-0.311,0.097
				c0.015-0.041,0.064-0.134,0.086-0.176c0.056-0.105,0.248-0.482,0.159-0.783c0.096-0.02,0.167-0.117,0.194-0.213
				c0.054-0.194-0.05-0.387-0.029-0.584c0-0.002-0.002-0.002-0.003-0.001c-0.004,0.007-0.006,0.014-0.01,0.021
				c-0.002-0.001-0.004-0.002-0.006-0.002c-0.184,0.057-0.249,0.471-0.234,0.7c-0.093-0.089-0.218-0.185-0.4-0.365
				c-0.035,0.151-0.016,0.306,0.076,0.439c0.063,0.091,0.228,0.099,0.356,0.093c0.006,0.038-0.011,0.219-0.018,0.263
				c-0.037,0.214-0.233,0.461-0.32,0.669c-0.063-0.106-0.111-0.269-0.18-0.371c0.098-0.039,0.129-0.19,0.119-0.286
				c-0.017-0.157-0.138-0.304-0.274-0.374c-0.063,0.23-0.1,0.503,0.104,0.659c0.048,0.172,0.117,0.338,0.214,0.44
				c-0.009,0.039-0.016,0.079-0.018,0.12c-0.014,0.283,0.038,0.489,0.106,0.76c0.035-0.022,0.077-0.035,0.12-0.037
				c-0.014-0.076-0.026-0.109-0.04-0.187c0.067-0.061,0.144-0.118,0.241-0.158c0.003-0.001,0.072,0.072,0.196-0.01
				c0.113-0.075,0.23-0.238,0.242-0.372C29.191,15.482,28.953,15.485,28.872,15.513z"/>
		</g>
		<g>
			<path class="st16" d="M27.444,17.089c0,0.222-0.32,0.403-0.715,0.403c-0.395,0-0.715-0.18-0.715-0.403
				c0-0.222,0.32-0.403,0.715-0.403C27.124,16.686,27.444,16.867,27.444,17.089z"/>
			<path class="st14" d="M26.043,17.201c0,0,0.178-0.187,0.646-0.199c0.468-0.012,0.694,0.249,0.694,0.249s-0.111,0.24-0.654,0.24
				C26.186,17.491,26.043,17.201,26.043,17.201z"/>
			<path class="st12" d="M27.02,16.513c-0.144,0.049-0.136,0.212-0.103,0.331c-0.067,0.036-0.182,0.099-0.229,0.159
				c-0.041-0.215-0.135-0.46-0.014-0.663c0.122-0.003,0.29-0.049,0.393-0.118c0.078,0.063,0.235,0.013,0.298-0.063
				c0.089-0.107,0.118-0.199,0.12-0.434c-0.155,0.047-0.518,0.226-0.458,0.448c-0.044,0.044-0.193,0.116-0.311,0.097
				c0.015-0.041,0.064-0.134,0.086-0.176c0.056-0.105,0.248-0.482,0.159-0.783c0.096-0.02,0.167-0.117,0.194-0.213
				c0.054-0.194-0.05-0.387-0.029-0.584c0-0.002-0.002-0.002-0.003-0.001c-0.004,0.007-0.006,0.014-0.01,0.021
				c-0.002-0.001-0.004-0.002-0.006-0.002c-0.184,0.057-0.249,0.471-0.234,0.7c-0.093-0.089-0.218-0.185-0.4-0.365
				c-0.035,0.151-0.016,0.306,0.076,0.439c0.063,0.091,0.228,0.099,0.356,0.093c0.006,0.038-0.011,0.219-0.018,0.263
				c-0.037,0.214-0.233,0.461-0.32,0.669c-0.063-0.106-0.111-0.269-0.18-0.371c0.098-0.039,0.129-0.19,0.119-0.286
				c-0.017-0.157-0.138-0.304-0.274-0.374c-0.063,0.23-0.1,0.503,0.104,0.659c0.048,0.172,0.117,0.338,0.214,0.44
				c-0.009,0.039-0.016,0.079-0.018,0.12c-0.014,0.283,0.038,0.489,0.106,0.76c0.035-0.022,0.077-0.035,0.12-0.037
				c-0.014-0.076-0.026-0.109-0.04-0.187c0.067-0.061,0.144-0.118,0.241-0.158c0.003-0.001,0.072,0.072,0.196-0.01
				c0.113-0.075,0.23-0.238,0.242-0.372C27.339,16.482,27.102,16.485,27.02,16.513z"/>
		</g>
	</g>
	<g>
		<g>
			<path class="st16" d="M34.086,16.448c0,0.222-0.32,0.403-0.715,0.403c-0.395,0-0.715-0.18-0.715-0.403
				c0-0.222,0.32-0.403,0.715-0.403C33.766,16.046,34.086,16.226,34.086,16.448z"/>
			<path class="st14" d="M32.684,16.561c0,0,0.178-0.187,0.646-0.199c0.468-0.012,0.694,0.249,0.694,0.249s-0.111,0.24-0.654,0.24
				C32.828,16.851,32.684,16.561,32.684,16.561z"/>
			<path class="st12" d="M33.661,15.873c-0.144,0.049-0.136,0.212-0.103,0.331c-0.067,0.036-0.182,0.099-0.229,0.159
				c-0.041-0.215-0.135-0.46-0.014-0.663c0.122-0.003,0.29-0.049,0.393-0.118c0.078,0.063,0.235,0.013,0.298-0.063
				c0.089-0.107,0.118-0.199,0.12-0.434c-0.155,0.047-0.518,0.226-0.458,0.448c-0.044,0.044-0.193,0.116-0.311,0.097
				c0.015-0.041,0.064-0.134,0.086-0.176c0.056-0.105,0.248-0.482,0.159-0.783c0.096-0.02,0.167-0.117,0.194-0.213
				c0.054-0.194-0.05-0.387-0.029-0.584c0-0.002-0.002-0.002-0.003-0.001c-0.004,0.007-0.006,0.014-0.01,0.021
				c-0.002-0.001-0.004-0.002-0.006-0.002c-0.184,0.057-0.249,0.471-0.234,0.7c-0.093-0.089-0.218-0.185-0.4-0.365
				c-0.036,0.151-0.016,0.306,0.076,0.439c0.063,0.091,0.228,0.099,0.356,0.093c0.006,0.038-0.011,0.219-0.018,0.263
				c-0.037,0.214-0.233,0.461-0.32,0.669c-0.063-0.106-0.111-0.269-0.18-0.371c0.098-0.039,0.129-0.19,0.119-0.286
				c-0.017-0.157-0.138-0.304-0.274-0.374c-0.063,0.23-0.1,0.503,0.104,0.659c0.048,0.172,0.117,0.338,0.214,0.44
				c-0.009,0.039-0.016,0.079-0.018,0.12c-0.014,0.283,0.038,0.489,0.106,0.76c0.035-0.022,0.077-0.035,0.12-0.037
				c-0.014-0.076-0.026-0.109-0.04-0.187c0.067-0.061,0.144-0.118,0.241-0.158c0.003-0.001,0.072,0.072,0.196-0.01
				c0.113-0.075,0.23-0.238,0.242-0.372C33.981,15.842,33.743,15.844,33.661,15.873z"/>
		</g>
		<g>
			<path class="st16" d="M32.26,17.176c0,0.222-0.32,0.403-0.715,0.403s-0.715-0.18-0.715-0.403c0-0.222,0.32-0.403,0.715-0.403
				S32.26,16.953,32.26,17.176z"/>
			<path class="st14" d="M30.858,17.288c0,0,0.178-0.187,0.646-0.199c0.468-0.012,0.694,0.249,0.694,0.249s-0.111,0.24-0.654,0.24
				C31.001,17.578,30.858,17.288,30.858,17.288z"/>
			<path class="st12" d="M31.835,16.6c-0.144,0.049-0.136,0.212-0.103,0.331c-0.067,0.036-0.182,0.099-0.229,0.159
				c-0.041-0.215-0.135-0.46-0.014-0.663c0.122-0.003,0.29-0.049,0.393-0.118c0.078,0.063,0.235,0.013,0.298-0.063
				c0.089-0.107,0.118-0.199,0.12-0.434c-0.155,0.047-0.518,0.226-0.458,0.448c-0.044,0.044-0.193,0.116-0.311,0.097
				c0.015-0.041,0.064-0.134,0.086-0.176c0.056-0.105,0.248-0.482,0.159-0.783c0.096-0.02,0.167-0.117,0.194-0.213
				c0.054-0.194-0.05-0.387-0.029-0.584c0-0.002-0.002-0.002-0.003-0.001c-0.004,0.007-0.006,0.014-0.01,0.021
				c-0.002-0.001-0.004-0.002-0.006-0.002c-0.184,0.057-0.249,0.471-0.234,0.7c-0.093-0.089-0.218-0.185-0.4-0.365
				c-0.036,0.151-0.016,0.306,0.076,0.439c0.063,0.091,0.228,0.099,0.356,0.093c0.006,0.038-0.011,0.219-0.018,0.263
				c-0.037,0.214-0.233,0.461-0.32,0.669c-0.063-0.106-0.111-0.269-0.18-0.371c0.098-0.039,0.129-0.19,0.119-0.286
				c-0.017-0.157-0.138-0.304-0.274-0.374c-0.063,0.23-0.1,0.503,0.104,0.659c0.048,0.172,0.117,0.338,0.214,0.44
				c-0.009,0.039-0.016,0.079-0.018,0.12c-0.014,0.283,0.038,0.489,0.106,0.76c0.035-0.022,0.077-0.035,0.12-0.037
				c-0.014-0.076-0.026-0.109-0.04-0.187c0.067-0.061,0.144-0.118,0.241-0.158c0.003-0.001,0.072,0.072,0.196-0.01
				c0.113-0.075,0.23-0.238,0.242-0.372C32.155,16.569,31.917,16.572,31.835,16.6z"/>
		</g>
		<g>
			<path class="st16" d="M30.408,18.176c0,0.222-0.32,0.403-0.715,0.403s-0.715-0.18-0.715-0.403c0-0.222,0.32-0.403,0.715-0.403
				S30.408,17.953,30.408,18.176z"/>
			<path class="st14" d="M29.007,18.288c0,0,0.178-0.187,0.646-0.199c0.468-0.012,0.694,0.249,0.694,0.249s-0.111,0.24-0.654,0.24
				C29.15,18.578,29.007,18.288,29.007,18.288z"/>
			<path class="st12" d="M29.984,17.6c-0.144,0.049-0.136,0.212-0.103,0.331c-0.067,0.036-0.182,0.099-0.229,0.159
				c-0.041-0.215-0.135-0.46-0.014-0.663c0.122-0.003,0.29-0.049,0.393-0.118c0.078,0.063,0.235,0.013,0.298-0.063
				c0.089-0.107,0.118-0.199,0.12-0.434c-0.155,0.047-0.518,0.226-0.458,0.448c-0.044,0.044-0.193,0.116-0.311,0.097
				c0.015-0.041,0.064-0.134,0.086-0.176c0.056-0.105,0.248-0.482,0.159-0.783c0.096-0.02,0.167-0.117,0.194-0.213
				c0.054-0.194-0.05-0.387-0.029-0.584c0-0.002-0.002-0.002-0.003-0.001c-0.004,0.007-0.006,0.014-0.01,0.021
				c-0.002-0.001-0.004-0.002-0.006-0.002c-0.184,0.057-0.249,0.471-0.234,0.7c-0.093-0.089-0.218-0.185-0.4-0.365
				c-0.036,0.151-0.016,0.306,0.076,0.439c0.063,0.091,0.228,0.099,0.356,0.093c0.006,0.038-0.011,0.219-0.018,0.263
				c-0.037,0.214-0.233,0.461-0.32,0.669c-0.063-0.106-0.111-0.269-0.18-0.371c0.098-0.039,0.129-0.19,0.119-0.286
				c-0.017-0.157-0.138-0.304-0.274-0.374c-0.063,0.23-0.1,0.503,0.104,0.659c0.048,0.172,0.117,0.338,0.214,0.44
				c-0.009,0.039-0.016,0.079-0.018,0.12c-0.014,0.283,0.038,0.489,0.106,0.76c0.035-0.022,0.077-0.035,0.12-0.037
				c-0.014-0.076-0.026-0.109-0.04-0.187c0.067-0.061,0.144-0.118,0.241-0.158c0.003-0.001,0.072,0.072,0.196-0.01
				c0.113-0.075,0.23-0.238,0.242-0.372C30.303,17.569,30.066,17.572,29.984,17.6z"/>
		</g>
	</g>
	<g>
		<polygon class="st1" points="18.05,1.142 10.365,4.577 31.631,12.462 39.316,9.026 		"/>
		<polygon class="st8" points="10.365,5.315 10.365,4.577 31.631,12.462 31.631,13.199 		"/>
		<polygon class="st3" points="39.316,9.764 39.316,9.026 31.631,12.462 31.631,13.199 		"/>
	</g>
	<g>
		<polygon class="st1" points="39.316,9.026 35.203,10.84 35.613,11.006 39.726,9.193 		"/>
		<polygon class="st2" points="35.203,46.458 35.203,10.84 35.613,11.006 35.613,46.646 		"/>
	</g>
	<g>
		<polygon class="st4" points="35.203,10.84 31.631,12.439 31.631,37.926 32.041,38.114 35.613,36.515 35.613,11.006 		"/>
		<g class="st5">
			<polygon class="st6" points="35.203,10.84 31.631,12.439 32.041,12.605 35.613,11.006 			"/>
			<polygon class="st6" points="31.631,37.926 31.631,12.439 32.041,12.605 32.041,38.114 			"/>
		</g>
	</g>
	<g>
		<g class="st17">
			<polygon class="st18" points="20.998,8.497 10.365,4.555 10.365,30.053 20.998,34.006 			"/>
		</g>
		<g>
			<g class="st17">
				<polygon class="st18" points="31.631,12.439 20.998,8.497 20.998,33.995 31.631,37.948 				"/>
			</g>
			<g>
				<path class="st3" d="M21.202,8.813l10.225,3.791v25.073l-10.225-3.801V8.813 M20.998,8.519v25.498l10.633,3.953V12.462
					L20.998,8.519L20.998,8.519z"/>
			</g>
			<g>
				<path class="st3" d="M10.569,4.871l10.225,3.791v25.073l-10.225-3.801V4.871 M10.365,4.577v25.498l10.633,3.953V8.52
					L10.365,4.577L10.365,4.577z"/>
			</g>
		</g>
	</g>
	<polygon class="st3" points="35.613,11.006 35.613,36.515 32.041,38.114 32.041,48.245 35.613,46.646 39.726,44.833 39.726,9.193 	
		"/>
</g>
</svg>
