<?xml version="1.0" encoding="utf-8"?>
<!-- Generator: Adobe Illustrator 25.4.1, SVG Export Plug-In . SVG Version: 6.00 Build 0)  -->
<svg version="1.1" id="Layer_1" xmlns="http://www.w3.org/2000/svg" xmlns:xlink="http://www.w3.org/1999/xlink" x="0px" y="0px"
	 viewBox="0 0 50 50" style="enable-background:new 0 0 50 50;" xml:space="preserve">
<style type="text/css">
	.st0{fill:#F7F7F7;}
	.st1{fill:#D8D1C7;}
	.st2{fill:#BAF3FF;}
	.st3{fill:#B5AFA7;}
	.st4{opacity:0.3;enable-background:new    ;}
	.st5{fill:#B4CED6;}
	.st6{fill:#E8F3FF;}
	.st7{opacity:0.5;}
	.st8{fill:#377691;}
	.st9{fill:#65C6E5;}
	.st10{fill:#493226;}
	.st11{fill:#593E2C;}
	.st12{fill:#5A882B;}
	.st13{fill:#8AC641;}
	.st14{fill:#372312;}
</style>
<g>
	<polygon class="st0" points="44.842,40.382 30.013,48.942 9.538,37.12 24.367,28.561 	"/>
	<polygon class="st1" points="38.655,39.457 28.459,45.345 25.648,43.722 35.845,37.834 	"/>
	<polygon class="st1" points="24.355,42.895 14.329,37.113 24.515,31.232 34.544,37.022 	"/>
</g>
<g>
	<polygon class="st0" points="49.006,31.505 28.711,43.226 13.275,34.314 33.57,22.593 	"/>
	<polygon class="st1" points="43.703,30.182 35.703,34.8 31.098,32.14 39.095,27.523 	"/>
	<path class="st2" d="M35.681,27.582c-1.154,0.665-3.032,0.665-4.187,0c-1.158-0.669-1.157-1.754-0.002-2.419
		c1.157-0.667,3.035-0.667,4.191,0C36.84,25.833,36.839,26.913,35.681,27.582z"/>
	<path class="st3" d="M30.399,30.662c-1.155,0.665-3.031,0.665-4.187,0c-1.159-0.669-1.157-1.752-0.003-2.419
		c1.158-0.667,3.035-0.667,4.191,0C31.557,28.913,31.556,29.993,30.399,30.662z"/>
	<polygon class="st1" points="36.171,36.499 28.483,40.937 26.365,39.716 34.052,35.276 	"/>
	<polygon class="st1" points="24.106,31.855 19.059,34.769 17.668,33.966 22.714,31.05 	"/>
	<polygon class="st1" points="25.456,38.752 20.394,35.827 25.537,32.859 30.6,35.78 	"/>
</g>
<g>
	<path class="st4" d="M40.426,21.434c-1.315-0.762-3.449-0.762-4.77,0c-1.318,0.762-1.318,1.991,0,2.751
		c1.322,0.77,3.455,0.77,4.77,0C41.746,23.426,41.746,22.196,40.426,21.434z"/>
	<g>
		<path class="st5" d="M34.885,22.776v-6.683h6.317v6.683c0,0.468-0.309,0.93-0.926,1.289c-1.231,0.711-3.231,0.711-4.467,0
			C35.191,23.706,34.885,23.244,34.885,22.776z"/>
		<path class="st6" d="M35.808,17.379c1.236,0.722,3.236,0.722,4.467,0c1.235-0.708,1.235-1.863,0-2.574
			c-1.231-0.719-3.231-0.719-4.467,0C34.573,15.516,34.573,16.67,35.808,17.379z"/>
		<path class="st5" d="M40.115,14.895c-1.144-0.663-2.998-0.663-4.145,0c-1.144,0.663-1.144,1.732,0,2.392
			c1.147,0.666,3.001,0.666,4.145,0C41.259,16.628,41.259,15.559,40.115,14.895z"/>
	</g>
	<g class="st7">
		<path class="st8" d="M35.184,22.014V18.86h5.721v3.155c0,0.422-0.282,0.845-0.839,1.165c-1.116,0.644-2.926,0.644-4.046,0
			C35.462,22.859,35.184,22.437,35.184,22.014z"/>
		<path class="st9" d="M36.019,20.025c1.12,0.65,2.93,0.65,4.046,0c1.116-0.642,1.116-1.687,0-2.331c-1.116-0.65-2.926-0.65-4.046,0
			C34.902,18.339,34.902,19.384,36.019,20.025z"/>
	</g>
</g>
<g>
	<path class="st10" d="M12.204,37.68l0.798,4.832c0.473,2.866,5.688,3.118,6.268,0.112l0.925-4.792L12.204,37.68z"/>
	<path id="Cylinder_face_112_" class="st11" d="M19.256,39.442c1.712-0.958,1.734-2.548,0.048-3.552
		c-1.685-1.004-4.44-1.041-6.152-0.083c-1.711,0.958-1.733,2.548-0.047,3.552C14.79,40.363,17.544,40.4,19.256,39.442z"/>
	<g>
		<g>
			<path class="st12" d="M14.816,29.954c-0.455-0.352-1.675-1.171-3.139-0.767c2.884,0.041,4.526,2.367,3.813,8.66
				c0.327-0.412,0.769-3.633,0.788-4.207C16.328,32.132,16.155,30.99,14.816,29.954z"/>
			<path class="st12" d="M15.465,29.185c0.057,0.011,0.08-0.046,0.117-0.074c0.576-0.431,0.283-0.413,0.614-1.655
				c0.577-2.165,3.026-2.723,2.886-5.466c-0.076,2.463-2.464,3.279-3.228,5.062C15.743,27.307,15.2,29.136,15.465,29.185z"/>
			<path class="st12" d="M22.152,28.588c-0.32-0.184-3.023-0.351-3.147-0.259c-0.234,0.175-0.833,0.436-0.721,0.688
				c0.102,0.229,0.326,0.449,0.479,0.649c0.154,0.201,0.296,0.431,0.476,0.609c0.137,0.136,0.469-0.536,0.655-0.483
				c0.243,0.069,1.927-0.354,3.604,1.802C23.536,30.988,23.348,29.278,22.152,28.588z"/>
		</g>
		<path class="st13" d="M19.251,27.863c-0.583,0.104-1.04,0.538-1.239,1.096c-0.507,1.426-0.875,3.289-1.033,4.162
			c-0.233-2.066-0.58-3.367-1.628-6.379c-0.711-2.044,0.251-4.258,1.243-5.968c0.937-1.616,1.27-2.966,0.564-4.015
			c0.614,1.544-0.427,3.132-1.295,4.477c-0.588,0.911-1.149,2.133-1.3,3.507c-0.042-0.081-0.083-0.161-0.131-0.246
			c-0.576-1.019-1.135-1.513-2.022-3.58c-1.311,2.21-0.376,4.037,0.004,4.611c0.602,0.908,1.848,1.34,2.451,1.949
			c0.009,0.025,0.015,0.051,0.024,0.076c1.472,4.069,0.716,9.14,0.537,10.222c-0.072,0.938,1.965,1.008,1.943-0.005
			c-0.126-1.601-0.211-2.799-0.304-3.795c0.008,0.002,0.014,0.005,0.023,0.008c0.262,0.064,0.129,0.076,0.245-0.09
			c0.376-0.543,2.891-5.357,5.274-4.963C21.831,28.251,20.41,27.657,19.251,27.863z"/>
	</g>
	<path class="st14" d="M20.55,37.625c0.018,0.663-0.412,1.324-1.294,1.817c-1.712,0.958-4.466,0.921-6.152-0.083
		c-0.817-0.487-1.229-1.111-1.246-1.734v1.117c0.017,0.623,0.429,1.248,1.246,1.734c1.685,1.004,4.44,1.041,6.152,0.083
		c0.882-0.493,1.312-1.155,1.294-1.817V37.625z"/>
</g>
</svg>
