<?xml version="1.0" encoding="utf-8"?>
<!-- Generator: Adobe Illustrator 25.4.1, SVG Export Plug-In . SVG Version: 6.00 Build 0)  -->
<svg version="1.1" id="Layer_1" xmlns="http://www.w3.org/2000/svg" xmlns:xlink="http://www.w3.org/1999/xlink" x="0px" y="0px"
	 viewBox="0 0 50 50" style="enable-background:new 0 0 50 50;" xml:space="preserve">
<style type="text/css">
	.st0{fill:url(#SVGID_1_);}
	.st1{fill:#C4BFB5;}
	.st2{fill:#D7D2CB;}
	.st3{fill:#EFEBE5;}
	.st4{fill:#B9383F;}
	.st5{fill:#CC484A;}
	.st6{enable-background:new    ;}
	.st7{fill:#D55056;}
	.st8{fill:#9F2D33;}
	.st9{fill:#B5373E;}
	.st10{fill:#D34B4D;}
	.st11{opacity:0.5;fill:#9F2D33;}
	.st12{fill:#3534B6;}
	.st13{fill:#849EFF;}
	.st14{fill:url(#SVGID_00000011738944794614080990000003826240868612667832_);}
	.st15{fill:#030074;}
	.st16{fill:#8C8C8C;}
	.st17{fill:#C1C1C1;}
	.st18{fill:#A6A6A6;}
	.st19{fill:#684300;}
	.st20{fill:#8F5A0A;}
	.st21{fill:url(#SVGID_00000119093320784223376050000001038487002625541300_);}
	.st22{fill:#9AC800;}
	.st23{fill:#81AB31;}
	.st24{fill:#A6E21E;}
	.st25{fill:#B7F230;}
	.st26{fill:#7FB010;}
	.st27{fill:#6A8824;}
</style>
<radialGradient id="SVGID_1_" cx="24.7923" cy="7.5105" r="14.4043" gradientTransform="matrix(1.5353 0 0 0.7654 -12.749 32.1967)" gradientUnits="userSpaceOnUse">
	<stop  offset="0.4351" style="stop-color:#B4BCC1"/>
	<stop  offset="0.94" style="stop-color:#ECEEEF;stop-opacity:0"/>
</radialGradient>
<ellipse class="st0" cx="25.315" cy="37.946" rx="22.114" ry="11.026"/>
<g id="_x34_">
	<g>
		<g>
			<g id="Axonometric_Cube_32_">
				<polygon id="Cube_face_-_left_278_" class="st1" points="14.365,33.096 11.313,31.334 11.313,27.436 14.365,29.199 				"/>
				<polygon id="Cube_face_-_right_278_" class="st2" points="16.215,32.028 14.365,33.096 14.365,29.199 16.215,28.131 				"/>
				<polygon id="Cube_face_-_top_278_" class="st3" points="14.365,29.199 11.313,27.436 13.162,26.368 16.215,28.131 				"/>
			</g>
			<g>
				<g>
					<path class="st2" d="M12.117,32.02l-0.003,0.945c0,0.116-0.039,0.21-0.112,0.251l1.963-1.144
						c0.072-0.041,0.111-0.135,0.112-0.251l0.003-0.945L12.117,32.02z"/>
					<path class="st3" d="M14.011,30.579c-0.012-0.027-0.026-0.055-0.041-0.082l-1.963,1.144c0.015,0.027,0.029,0.055,0.041,0.082
						c0.046,0.103,0.069,0.205,0.069,0.297l1.963-1.144C14.08,30.784,14.057,30.682,14.011,30.579z"/>
				</g>
				<g>
					<g id="Axonometric_Cube_33_">
						<polygon id="Cube_face_-_left_227_" class="st4" points="12.264,31.493 13.972,30.501 13.972,30.399 12.264,31.392 						"/>
						<polygon id="Cube_face_-_right_227_" class="st4" points="9.909,30.134 12.264,31.493 12.264,31.392 9.909,30.032 						"/>
						<polygon id="Cube_face_-_top_227_" class="st5" points="12.264,31.392 13.972,30.399 11.617,29.039 9.909,30.032 						"/>
					</g>
					<g>
						<g class="st6">
							<g class="st6">
								<g class="st6">
									<path class="st7" d="M10.199,29.328l1.579-0.936c-0.046-0.026-0.087-0.029-0.117-0.012l-1.579,0.936
										C10.111,29.298,10.153,29.301,10.199,29.328L10.199,29.328z"/>
								</g>
							</g>
							<g>
								<polygon class="st4" points="12.248,31.315 13.827,30.379 13.827,29.763 12.248,30.699 								"/>
							</g>
							<g>
								<polygon class="st5" points="12.084,30.416 13.663,29.48 11.778,28.391 10.199,29.328 								"/>
							</g>
							<path class="st8" d="M10.034,29.421c0-0.104,0.073-0.146,0.164-0.095l1.887,1.089c0.09,0.052,0.164,0.179,0.164,0.283v0.616
								l-2.213-1.277L10.034,29.421z"/>
							<g>
								<g class="st6">
									<path class="st9" d="M12.248,30.699l1.579-0.936c0-0.105-0.073-0.231-0.164-0.283l-1.579,0.936
										C12.174,30.468,12.248,30.595,12.248,30.699L12.248,30.699z"/>
								</g>
							</g>
						</g>
					</g>
				</g>
				<g>
					<path class="st8" d="M11.722,31.832l-0.591-1.029c-0.074-0.128-0.177-0.233-0.281-0.293l-0.845-0.488
						c-0.104-0.06-0.208-0.074-0.282-0.032l-0.595,0.345c-0.074,0.042-0.119,0.13-0.119,0.255l-0.003,0.965
						c0,0.125,0.044,0.264,0.118,0.392l0.591,1.029c0.074,0.128,0.178,0.233,0.281,0.293l0.845,0.488
						c0.104,0.06,0.208,0.074,0.282,0.032l0.595-0.345c0.079-0.04,0.119-0.13,0.12-0.255l0.003-0.965
						C11.84,32.099,11.801,31.963,11.722,31.832z"/>
					<path class="st10" d="M11.581,30.331c0.038,0.043,0.072,0.091,0.102,0.142l0.591,1.029l-0.552,0.33l-0.591-1.029
						c-0.03-0.052-0.064-0.1-0.102-0.142L11.581,30.331z"/>
					<path class="st4" d="M11.837,33.189l0.003-0.965c0-0.076-0.014-0.156-0.043-0.236l0.546-0.347
						c0.033,0.086,0.05,0.173,0.05,0.254l-0.003,0.965c0,0.119-0.037,0.208-0.109,0.25l-0.552,0.33
						C11.8,33.397,11.837,33.308,11.837,33.189z"/>
					<path class="st5" d="M10.281,29.663c0.074-0.042,0.172-0.031,0.276,0.028l0.845,0.488c0.062,0.036,0.124,0.088,0.179,0.151
						l-0.552,0.33c-0.055-0.063-0.117-0.115-0.179-0.151l-0.839-0.484c-0.104-0.06-0.208-0.074-0.282-0.032l-0.043,0.015
						L10.281,29.663z"/>
					<path class="st4" d="M12.327,31.603c-0.015-0.034-0.033-0.068-0.053-0.101l-0.552,0.33c0.02,0.033,0.038,0.067,0.053,0.101
						c0.044,0.099,0.065,0.198,0.065,0.291l0.552-0.33C12.392,31.801,12.371,31.702,12.327,31.603z"/>
					<path class="st9" d="M11.683,30.473l-0.552,0.33c-0.03-0.052-0.064-0.1-0.102-0.142c-0.055-0.063-0.117-0.115-0.179-0.151
						l0.552-0.33c0.062,0.036,0.124,0.088,0.179,0.151C11.619,30.373,11.653,30.421,11.683,30.473z"/>
					<path class="st11" d="M10.526,30.765l0.42,0.243c0.014,0.019,0.03,0.036,0.043,0.057l0.077,0.134l-0.54-0.312V30.765z
						 M10.335,30.883l-0.626-0.361l-0.105,0.061l0.731,0.422V30.883z M10.526,31.573l1.018,0.588
						c-0.002-0.044-0.008-0.089-0.022-0.134l-0.996-0.575V31.573z M10.526,31.116l0.736,0.425l-0.104-0.182l-0.632-0.365V31.116z
						 M10.526,31.344l0.931,0.538c-0.003-0.006-0.103-0.181-0.103-0.181l-0.828-0.478V31.344z M10.335,30.655l-0.413-0.239
						c-0.014,0.003-0.031,0-0.043,0.007l-0.077,0.045l0.534,0.308V30.655z M10.335,31.112l-0.824-0.476L9.41,30.695
						c-0.003,0.003,0.925,0.539,0.925,0.539V31.112z M10.335,31.798l-1.02-0.589l0,0.121l1.021,0.589V31.798z M10.335,32.027
						l-1.021-0.589l0,0.121l1.021,0.59V32.027z M10.335,31.341l-0.992-0.572c-0.015,0.029-0.021,0.067-0.024,0.108l1.015,0.586
						V31.341z M10.335,31.569l-1.02-0.589l0,0.121l1.02,0.589V31.569z M10.526,33.173l0.433,0.25
						c0.023-0.004,0.113-0.056,0.113-0.056l-0.546-0.315V33.173z M10.526,31.801l1.021,0.59l0-0.121l-1.021-0.59V31.801z
						 M10.335,32.713l-0.749-0.432l0.104,0.182l0.644,0.372V32.713z M10.335,32.484l-0.94-0.543
						c0.011,0.025,0.099,0.179,0.099,0.179l0.841,0.485V32.484z M10.335,32.255l-1.02-0.589c0.001,0.043,0.008,0.088,0.021,0.134
						l0.999,0.577V32.255z M10.335,32.941l-0.552-0.319l0.089,0.156c0.007,0.012,0.016,0.02,0.023,0.031l0.44,0.254V32.941z
						 M10.526,32.03l1.02,0.589l0-0.121l-1.021-0.589V32.03z M10.526,32.259l1.02,0.589l0-0.121l-1.02-0.589V32.259z M10.526,32.716
						l0.836,0.483l0.089-0.052c0.011-0.012-0.925-0.553-0.925-0.553V32.716z M10.526,32.945l0.639,0.369l0.105-0.061l-0.744-0.429
						V32.945z M10.526,32.487l0.997,0.576c0.013-0.031,0.02-0.067,0.021-0.11l-1.018-0.588V32.487z"/>
				</g>
			</g>
		</g>
		<path class="st12" d="M19.338,33.217l-3.567-2.059c-0.426-0.246-0.933,0.637-0.509,0.881l3.567,2.059
			c0.08,0.046,0.168,0.068,0.254,0.068c0.176,0,0.347-0.091,0.441-0.254C19.665,33.669,19.582,33.358,19.338,33.217z"/>
	</g>
	<g>
		<path class="st13" d="M14.231,12.852l0,14.782c0,0.492-1.018,0.49-1.018,0l0-14.782c0-0.093,0.025-0.179,0.068-0.254
			c0.088-0.152,0.252-0.255,0.441-0.255C14.003,12.343,14.231,12.57,14.231,12.852z"/>
		<g id="Axonometric_Cylinder_87_">
			
				<linearGradient id="SVGID_00000010282067122127999290000000034686841360434837_" gradientUnits="userSpaceOnUse" x1="7.8071" y1="14.6224" x2="19.5194" y2="14.6224">
				<stop  offset="0" style="stop-color:#C4BFB5"/>
				<stop  offset="1" style="stop-color:#D7D2CB"/>
			</linearGradient>
			<path style="fill:url(#SVGID_00000010282067122127999290000000034686841360434837_);" d="M7.807,9.543v6.871
				c0.014,0.855,0.585,1.707,1.715,2.36c2.287,1.32,5.995,1.32,8.282,0c1.157-0.668,1.729-1.546,1.715-2.422V9.481L7.807,9.543z"/>
			<path id="Cylinder_face_235_" class="st3" d="M17.804,11.903c-2.287,1.32-5.995,1.32-8.282,0c-2.287-1.32-2.287-3.461,0-4.782
				s5.995-1.32,8.282,0S20.091,10.582,17.804,11.903z"/>
			<ellipse id="Cylinder_face_237_" class="st13" cx="13.663" cy="9.512" rx="3.283" ry="1.896"/>
			<path class="st15" d="M11.341,8.341c1.282-0.74,3.361-0.74,4.643,0c0.604,0.349,0.919,0.799,0.955,1.256
				c0.04-0.513-0.276-1.033-0.955-1.425c-1.282-0.74-3.361-0.74-4.643,0c-0.679,0.392-0.994,0.912-0.955,1.425
				C10.422,9.14,10.738,8.69,11.341,8.341z"/>
		</g>
	</g>
</g>
<g>
	<g>
		<g>
			<path class="st16" d="M34.085,25.017l-17.183-0.05c0,0,2.253,12.323,2.255,12.374v0.077l0.007,0
				c0.067,0.92,0.704,1.831,1.924,2.535c2.572,1.485,6.728,1.492,9.284,0.017c1.321-0.763,1.95-1.773,1.9-2.775h0.004L34.085,25.017
				z"/>
			<g>
				<path class="st17" d="M30.506,38.448c-2.627,1.516-6.851,1.423-9.542-0.017c-0.601-0.322-1.808-1.089-2.195-3.23
					c0.049,0.271,0.387,2.135,0.387,2.141v0.077l0.007,0c0.067,0.92,0.704,1.831,1.924,2.535c2.572,1.485,6.728,1.492,9.283,0.017
					c1.31-0.756,1.937-1.755,1.899-2.749c-0.05,0.121,0.258-1.589,0.218-1.458C32.055,37.208,31.247,38.02,30.506,38.448z"/>
			</g>
			<path d="M20.964,38.767c2.691,1.441,6.915,1.534,9.542,0.017c0.693-0.4,1.44-1.144,1.888-2.418
				c0.058-0.351,0.111-0.662,0.093-0.603c-0.432,1.444-1.24,2.257-1.981,2.684c-2.627,1.516-6.851,1.423-9.542-0.017
				c-0.601-0.322-1.808-1.089-2.195-3.23c0.024,0.135,0.12,0.663,0.21,1.161C19.486,37.883,20.448,38.491,20.964,38.767z"/>
			<path class="st17" d="M35.342,23.443l-1.701,0.017c-0.334-0.282-0.712-0.551-1.145-0.801c-3.768-2.175-9.857-2.186-13.601-0.025
				c-0.528,0.305-0.973,0.639-1.351,0.99l-1.435,0.015c0,0-0.003,2.295,0,2.37v0.112l0.01,0c0.098,1.348,1.031,2.682,2.819,3.715
				c3.768,2.175,9.857,2.186,13.602,0.025c1.936-1.118,2.857-2.597,2.783-4.066h0.007L35.342,23.443z"/>
			<path class="st18" d="M35.288,22.928c-0.121-0.708-0.477-1.406-1.068-2.052c-0.443-0.484-1.017-0.939-1.724-1.347
				c-0.222-0.128-0.454-0.248-0.691-0.361c-0.079-0.038-0.161-0.071-0.242-0.107c-0.162-0.072-0.324-0.144-0.492-0.209
				c-0.099-0.039-0.2-0.074-0.301-0.11c-0.155-0.056-0.311-0.111-0.47-0.161c-0.11-0.035-0.221-0.067-0.332-0.1
				c-0.155-0.045-0.312-0.087-0.471-0.127c-0.116-0.029-0.233-0.057-0.35-0.084c-0.16-0.036-0.322-0.068-0.484-0.099
				c-0.118-0.022-0.236-0.045-0.355-0.065c-0.17-0.028-0.342-0.051-0.514-0.073c-0.113-0.015-0.226-0.032-0.34-0.044
				c-0.212-0.023-0.426-0.04-0.64-0.054c-2.823-0.196-5.76,0.324-7.919,1.57c-1.653,0.954-2.57,2.173-2.757,3.423
				c-0.022,0.147-0.032,0.295-0.034,0.443c0,0.027-0.002,0.055-0.002,0.082c0.002,0.15,0.017,0.301,0.04,0.451
				c0.005,0.033,0.01,0.067,0.016,0.1c0.028,0.149,0.065,0.297,0.113,0.444c0.01,0.031,0.022,0.062,0.033,0.093
				c0.054,0.151,0.117,0.302,0.193,0.45c0.01,0.019,0.021,0.038,0.032,0.057c0.078,0.147,0.167,0.293,0.267,0.436
				c0.01,0.015,0.019,0.03,0.029,0.044c0.105,0.148,0.224,0.293,0.352,0.436c0.022,0.025,0.044,0.05,0.067,0.075
				c0.129,0.139,0.269,0.275,0.42,0.409c0.028,0.025,0.057,0.05,0.086,0.074c0.157,0.134,0.323,0.266,0.501,0.393
				c0.025,0.018,0.052,0.036,0.078,0.054c0.192,0.133,0.393,0.264,0.609,0.389c0.942,0.544,2.029,0.952,3.188,1.226
				c1.159,0.273,2.391,0.411,3.621,0.413c2.461,0.004,4.92-0.533,6.792-1.614c1.638-0.946,2.556-2.151,2.755-3.389
				C35.351,23.638,35.349,23.282,35.288,22.928z M16.133,22.988c-0.01,0.076-0.013,0.152-0.018,0.228
				C16.118,23.14,16.125,23.064,16.133,22.988z"/>
			<path class="st19" d="M31.303,20.217c-3.104-1.792-8.122-1.802-11.207-0.02c-3.085,1.781-3.069,4.678,0.035,6.471
				c3.105,1.792,8.122,1.801,11.207,0.02C34.423,24.907,34.408,22.01,31.303,20.217z"/>
			<path class="st20" d="M32.19,25.648c0.414-0.379,0.703-0.842,0.666-1.411c-0.018-0.277-0.306-0.007-0.487,0.068
				c-0.296,0.122-0.611,0.214-0.933,0.231c-0.296,0.016-0.596-0.043-0.889,0.003c-0.21,0.033-0.408,0.118-0.603,0.203
				c-0.658,0.285-1.316,0.57-1.974,0.856c-0.427,0.185-0.863,0.372-1.326,0.421c-0.321,0.034-0.645-0.001-0.968,0.013
				c-0.322,0.014-0.658,0.084-0.904,0.293c-0.069,0.059-0.136,0.131-0.226,0.141c-0.166,0.02-0.269-0.17-0.339-0.322
				c-0.071-0.152-0.232-0.319-0.377-0.235c-0.052,0.249-0.291,0.407-0.51,0.538c-0.348,0.208-0.722,0.377-1.055,0.61
				c0.587,0.044,1.164,0.175,1.746,0.266c2.155,0.339,4.454,0.345,6.445-0.619C30.976,26.455,31.679,26.116,32.19,25.648z"/>
			
				<linearGradient id="SVGID_00000102511974580489293880000003434899159324322218_" gradientUnits="userSpaceOnUse" x1="17.7954" y1="21.4373" x2="33.638" y2="21.4373">
				<stop  offset="0" style="stop-color:#868686"/>
				<stop  offset="0.0851" style="stop-color:#868686"/>
				<stop  offset="0.5811" style="stop-color:#868686"/>
				<stop  offset="1" style="stop-color:#424242"/>
			</linearGradient>
			<path style="fill:url(#SVGID_00000102511974580489293880000003434899159324322218_);" d="M20.096,21.276
				c3.085-1.781,8.103-1.772,11.207,0.02c1.319,0.761,2.077,1.722,2.28,2.712c0.274-1.347-0.484-2.753-2.28-3.79
				c-3.104-1.792-8.122-1.801-11.207-0.02c-1.773,1.024-2.519,2.416-2.246,3.755C18.051,22.973,18.798,22.025,20.096,21.276z"/>
		</g>
		<g>
			<g>
				<g>
					<path class="st22" d="M35.836,14.262c0.062-0.746-2.354-2.674-3.115-3.194c-0.778-0.532-4.562,1.035-4.562,1.035
						s-2.518,11.852-2.44,12.095c0.036,0.112,0.034,0.677,0.022,1.235c0.046-0.009,0.093-0.025,0.139-0.036
						c-0.001,0.144-0.004,0.296-0.007,0.449c0.341-0.069,0.683-0.181,1.039-0.308c0.007-0.003,0.015-0.005,0.023-0.008
						c0.072-0.026,0.143-0.051,0.216-0.078c0.006-0.002,0.011-0.002,0.016-0.003c0.125-0.143-0.093-0.397-0.101-0.574
						c-0.001-0.003,0-0.006-0.001-0.009c0-0.058,0.024-0.107,0.093-0.141l0.974-0.564l1.565-0.792c0,0,1.584-1.707,2.272-2.104
						c0.7-0.404,1.93-0.981,1.93-0.981l0.823-3.066c0,0,1.165-1.812,1.245-2.532C35.981,14.57,35.928,14.424,35.836,14.262z"/>
					<path class="st23" d="M27.927,22.12c-0.28-1.312-0.386-2.679-0.553-4.009c-0.116-0.923-0.229-1.847-0.341-2.771
						c-0.093-0.769-0.181-1.36-0.574-2.034c-0.041-0.07-0.086-0.138-0.134-0.204c-0.244-0.333-0.577-0.601-0.932-0.821
						c-0.008-0.032-0.012-0.065-0.022-0.097c-0.045-0.156-0.114-0.315-0.247-0.408c-0.079-0.054-0.173-0.08-0.266-0.101
						c-0.397-0.09-0.809-0.098-1.211-0.037c0.001-0.001,0.001-0.001,0.002-0.002c-0.01,0.001-0.019,0.004-0.029,0.006
						c-0.078,0.013-0.156,0.028-0.234,0.046c-0.022,0.005-0.045,0.011-0.067,0.016c-0.083,0.021-0.165,0.045-0.247,0.073
						c-0.01,0.003-0.019,0.007-0.029,0.01c-0.27,0.094-0.53,0.219-0.767,0.381c-0.031,0.021-0.059,0.046-0.089,0.068
						c-0.257-0.17-0.419-0.487-0.704-0.622c-0.298-0.142-0.668-0.056-1.005,0.039c-0.617,0.174-1.257,0.389-1.73,0.85
						c-0.084,0.082-0.158,0.174-0.234,0.265c-0.011,0.012-0.025,0.02-0.036,0.032c-0.038,0.04-0.069,0.086-0.105,0.128
						c-0.09,0.109-0.179,0.219-0.281,0.318c-0.332,0.325-0.753,0.534-1.118,0.818c-0.507,0.394-0.89,0.942-1.115,1.537
						c-0.287,0.572-0.406,1.203-0.336,1.838c0.023,0.209,0.07,0.415,0.176,0.582c0.116,0.181,0.281,0.325,0.468,0.425
						c0.665,0.358,0.651,1.075,0.731,1.519c0.05,0.278-0.012,0.585,0.033,0.865c0.093,0.579,0.547,0.533,1.024,0.804
						c0.569,0.324,1.138,0.647,1.707,0.971c0.154,0.088,0.312,0.179,0.415,0.325c0.147,0.21,0.16,0.506,0.276,0.739
						c0.242,0.489,0.847,0.59,1.426,0.595c0.022,0.01,0.045,0.018,0.067,0.028c0.007,0.003,0.013,0.006,0.02,0.008
						c0.093,0.04,0.188,0.075,0.285,0.107c0.009,0.003,0.018,0.006,0.027,0.009c0.096,0.031,0.194,0.058,0.292,0.082
						c0.009,0.002,0.018,0.005,0.028,0.007c0.026,0.006,0.052,0.014,0.078,0.019c0.143,0.114,0.264,0.257,0.365,0.421
						c0.185,0.301,0.309,0.681,0.631,0.868c0.116,0.068,0.248,0.102,0.379,0.135c0.085,0.022,0.169,0.041,0.248,0.046
						c0.218,0.084,0.479,0.155,0.63,0.175c0.344,0.046,0.67,0.033,0.987-0.027c-0.06-0.384-0.113-0.767-0.133-1.019
						C26.448,25.088,28.153,23.18,27.927,22.12z"/>
					<path class="st24" d="M30.787,20.212c-0.168,0.561-1.721,1.674-1.721,1.674s-1.027,2.14-1.648,2.575
						c-0.306,0.211-0.591,0.755-0.798,1.242c-0.604,0.19-1.182,0.315-1.807,0.25c-0.108-0.013-0.216-0.03-0.324-0.052
						c-0.164-0.164,0.453-0.345,0.306-0.47c-0.216-0.181-0.362-0.384-0.362-0.677c0-0.224-0.69-0.405-0.677-0.626
						c0.017-0.263-0.207-0.513-0.401-0.729c-0.056-0.065-0.112-0.125-0.16-0.181c-0.306-0.384-0.608-0.768-0.915-1.152
						c-0.147-0.181-0.293-0.362-0.393-0.569c-0.211-0.427-0.207-0.945,0.009-1.367c0.224-0.449,0.682-0.832,0.651-1.329
						c-0.017-0.28-0.194-0.531-0.367-0.764c-0.349-0.483-0.703-0.975-0.936-1.523c-0.237-0.544-0.354-1.152-0.22-1.73
						c0.125-0.518,0.453-0.992,0.91-1.307c0.246-0.168,0.535-0.302,0.686-0.552c0.203-0.332,0.078-0.751,0.078-1.139
						c0.004-0.72,0.543-1.398,1.251-1.648c0.617-0.22,1.316-0.129,1.954-0.026c0,0,0.673-0.242,1.889-0.302
						c1.216-0.06,3.188,3.101,3.218,3.425c0.03,0.319-0.095,1.51,0.647,2.502C32.37,16.692,30.964,19.638,30.787,20.212z"/>
					<path class="st25" d="M24.601,10.194c0,0,0.295-0.04,0.344-0.036c0.024,0.002,0.074,1.003,0.08,1.174
						c0.041,1.187-0.4-0.917-0.409-0.893c-0.115,0.283-0.386,1-0.355,1.411c0.054,0.722-0.063,0.811,0.261,1.715
						c0.323,0.903,0.55,0.91,0.571,1.931c0.021,1.021,0,1.095,0,1.095s-0.693-0.722-1.138-1.281
						c-0.445-0.559-1.685-1.472-1.685-1.472s0.169,0.765,0.368,1.048c0.199,0.283,1.174,1.526,1.174,1.526s-0.692-0.286-1.083-0.488
						c-0.391-0.202-0.391-0.202-0.391-0.202s0.121,0.494,0.647,0.881c0.526,0.387,1.401,0.589,1.401,0.589l0.966,0.856
						c0,0,0.366,1.112,0.374,1.543c0.008,0.431-0.167,1.243-0.167,1.243s-0.538-0.077-1.037-0.518
						c-0.499-0.441-1.429-1.705-1.429-1.705s-0.061,0.828,0.185,1.214c0.246,0.386,0.408,0.845,1.075,1.397
						c0.667,0.553,1.141,0.638,1.141,0.638s-0.676,0.238-0.906,0.508s-0.59,1.779-0.59,1.779s0.007-0.644-0.515-0.934
						s-1.604-1.772-1.604-2.192c0-0.42,0.125-1.054,0.667-1.546c0.542-0.492-0.033-1.326-0.546-1.901
						c-0.513-0.575-0.944-1.434-0.876-2.513c0.067-1.078,1.113-1.752,1.513-1.928c0.401-0.175,0.214-1.037,0.252-1.592
						C22.927,10.986,23.725,10.194,24.601,10.194z"/>
				</g>
			</g>
			<path class="st26" d="M33.19,23.749c-0.289,0.345-0.789,0.664-1.54,0.815c-1.562,0.311-3.46-0.242-3.891-0.172
				c-0.531-0.263-2.04-0.992-2.04-0.992s-0.772-0.078-1.13,2.364c-0.035,0.22-0.069,0.177-0.095-0.017
				c0.091-0.617,0.483-2.036,0.453-2.071c-0.164-0.19-0.384,0.44-0.362,0.242c0-0.013,0.004-0.022,0.004-0.034
				c0.017-0.177,0.065-0.703,0.306-1.333c0.151-0.388,1.195-1.1,1.402-1.221c0.871-0.522,0.958-0.164,1.984-0.971
				c1.027-0.811,2.627-0.996,2.627-0.996s2.226,0.833,2.416,1.656c0.185,0.824-0.246,1.147,0.082,1.631
				C33.578,22.912,33.526,23.348,33.19,23.749z"/>
			<path class="st27" d="M30.546,24.444c-1.333-0.043-2.873-0.582-3.291-0.703c-0.414-0.121-2.04-2.101-2.614-0.065
				c-0.017,0.065-0.035,0.134-0.052,0.207c0,0.013-0.004,0.022-0.004,0.035c-0.138,0.66-0.134,1.484-0.091,1.829
				c0.007,0.049,0.014,0.088,0.021,0.116c-0.007-0.028-0.014-0.067-0.021-0.116c-0.017,0.129-0.022,0.224-0.009,0.263
				c0.242,0.712,1.609-0.25,1.773-0.086c0.22,0.216,1.122-1.398,1.458-1.523c0.013-0.004,0.026-0.009,0.043-0.009h0
				c0.052,0.022,0.095,0.043,0.125,0.06c0.336,0.168,2.243,0.436,3.24,0.341c1.001-0.095,1.924-0.673,2.066-1.044
				C31.84,24.349,31.878,24.482,30.546,24.444z M24.588,25.764c-0.017,0.11-0.035,0.154-0.051,0.147
				C24.554,25.918,24.571,25.873,24.588,25.764c0.358-2.441,1.13-2.364,1.13-2.364s0.098,0.047,0.252,0.122
				c-0.154-0.074-0.252-0.122-0.252-0.122S24.947,23.322,24.588,25.764z M26.372,23.716c0.005,0.002,0.01,0.005,0.015,0.007
				C26.382,23.721,26.377,23.718,26.372,23.716z"/>
		</g>
	</g>
</g>
</svg>
