<?xml version="1.0" encoding="utf-8"?>
<!-- Generator: Adobe Illustrator 26.0.1, SVG Export Plug-In . SVG Version: 6.00 Build 0)  -->
<svg version="1.1" id="Layer_1" xmlns="http://www.w3.org/2000/svg" xmlns:xlink="http://www.w3.org/1999/xlink" x="0px" y="0px"
	 viewBox="0 0 50 50" style="enable-background:new 0 0 50 50;" xml:space="preserve">
<style type="text/css">
	.st0{fill:url(#SVGID_1_);}
	.st1{fill:#C4BFB5;}
	.st2{fill:#D7D2CB;}
	.st3{fill:#EFEBE5;}
	.st4{fill:#B9383F;}
	.st5{fill:#CC484A;}
	.st6{enable-background:new    ;}
	.st7{fill:#D55056;}
	.st8{fill:#9F2D33;}
	.st9{fill:#B5373E;}
	.st10{fill:#D34B4D;}
	.st11{opacity:0.5;fill:#9F2D33;enable-background:new    ;}
	.st12{fill:#3534B6;}
	.st13{fill:#849EFF;}
	.st14{fill:url(#SVGID_00000102518256186250610250000003998699688282470326_);}
	.st15{fill:#030074;}
	.st16{fill:#8C8C8C;}
	.st17{fill:#C1C1C1;}
	.st18{fill:#A6A6A6;}
	.st19{fill:#684300;}
	.st20{fill:#8F5A0A;}
	.st21{fill:url(#SVGID_00000127035064169820149710000006268073711336518333_);}
	.st22{fill:#9AC800;}
	.st23{fill:#81AB31;}
	.st24{fill:#A6E21E;}
	.st25{fill:#B7F230;}
	.st26{fill:#7FB010;}
	.st27{fill:#6A8824;}
</style>
<radialGradient id="SVGID_1_" cx="-53.3076" cy="-24.1689" r="14.4046" gradientTransform="matrix(-1.5353 0 0 -0.7654 -56.5282 19.4471)" gradientUnits="userSpaceOnUse">
	<stop  offset="0.4351" style="stop-color:#B4BCC1"/>
	<stop  offset="0.94" style="stop-color:#ECEEEF;stop-opacity:0"/>
</radialGradient>
<ellipse class="st0" cx="25.315" cy="37.946" rx="22.114" ry="11.026"/>
<g id="_x34_">
	<g>
		<g>
			<g id="Axonometric_Cube_32_">
				<polygon id="Cube_face_-_left_278_" class="st1" points="36.265,29.199 39.317,27.436 39.317,31.334 36.265,33.096 				"/>
				<polygon id="Cube_face_-_right_278_" class="st2" points="34.415,28.131 36.265,29.199 36.265,33.096 34.415,32.028 				"/>
				<polygon id="Cube_face_-_top_278_" class="st3" points="34.415,28.131 37.468,26.368 39.317,27.436 36.265,29.199 				"/>
			</g>
			<g>
				<g>
					<path class="st2" d="M36.55,30.876l0.003,0.945c0.001,0.116,0.04,0.21,0.112,0.251l1.963,1.144
						c-0.073-0.041-0.112-0.135-0.112-0.251l-0.003-0.945L36.55,30.876z"/>
					<path class="st3" d="M36.55,30.876l1.963,1.144c0-0.092,0.023-0.194,0.069-0.297c0.012-0.027,0.026-0.055,0.041-0.082
						l-1.963-1.144c-0.015,0.027-0.029,0.055-0.041,0.082C36.573,30.682,36.55,30.784,36.55,30.876z"/>
				</g>
				<g>
					<g id="Axonometric_Cube_33_">
						<polygon id="Cube_face_-_left_227_" class="st4" points="38.366,31.392 36.658,30.399 36.658,30.501 38.366,31.493 						"/>
						<polygon id="Cube_face_-_right_227_" class="st4" points="40.721,30.032 38.366,31.392 38.366,31.493 40.721,30.134 						"/>
						<polygon id="Cube_face_-_top_227_" class="st5" points="40.721,30.032 39.013,29.039 36.658,30.399 38.366,31.392 						"/>
					</g>
					<g>
						<g class="st6">
							<g class="st6">
								<g class="st6">
									<path class="st7" d="M40.431,29.328c0.046-0.027,0.088-0.03,0.117-0.012l-1.579-0.936c-0.03-0.017-0.071-0.014-0.117,0.012
										L40.431,29.328L40.431,29.328z"/>
								</g>
							</g>
							<g>
								<polygon class="st4" points="38.382,30.699 36.803,29.763 36.803,30.379 38.382,31.315 								"/>
							</g>
							<g>
								<polygon class="st5" points="40.431,29.328 38.852,28.391 36.967,29.48 38.546,30.416 								"/>
							</g>
							<path class="st8" d="M40.594,30.037l-2.213,1.277v-0.616c0-0.104,0.074-0.231,0.164-0.283l1.887-1.089
								c0.091-0.051,0.164-0.009,0.164,0.095L40.594,30.037z"/>
							<g>
								<g class="st6">
									<path class="st9" d="M38.382,30.699c0-0.104,0.074-0.231,0.164-0.283l-1.579-0.936c-0.091,0.052-0.164,0.178-0.164,0.283
										L38.382,30.699L38.382,30.699z"/>
								</g>
							</g>
						</g>
					</g>
				</g>
				<g>
					<path class="st8" d="M38.789,32.224l0.003,0.965c0.001,0.125,0.041,0.215,0.12,0.255l0.595,0.345
						c0.074,0.042,0.178,0.028,0.282-0.032l0.845-0.488c0.103-0.06,0.207-0.165,0.281-0.293l0.591-1.029
						c0.074-0.128,0.118-0.267,0.118-0.392l-0.003-0.965c0-0.125-0.045-0.213-0.119-0.255l-0.595-0.345
						c-0.074-0.042-0.178-0.028-0.282,0.032L39.78,30.51c-0.104,0.06-0.207,0.165-0.281,0.293l-0.591,1.029
						C38.829,31.963,38.79,32.099,38.789,32.224z"/>
					<path class="st10" d="M39.601,30.661c-0.038,0.042-0.072,0.09-0.102,0.142l-0.591,1.029l-0.552-0.33l0.591-1.029
						c0.03-0.051,0.064-0.099,0.102-0.142L39.601,30.661z"/>
					<path class="st4" d="M38.901,33.44l-0.552-0.33c-0.072-0.042-0.109-0.131-0.109-0.25l-0.003-0.965
						c0-0.081,0.017-0.168,0.05-0.254l0.546,0.347c-0.029,0.08-0.043,0.16-0.043,0.236l0.003,0.965
						C38.793,33.308,38.83,33.397,38.901,33.44z"/>
					<path class="st5" d="M40.944,30.008l-0.043-0.015c-0.074-0.042-0.178-0.028-0.282,0.032l-0.839,0.484
						c-0.062,0.036-0.124,0.088-0.179,0.151l-0.552-0.33c0.055-0.063,0.117-0.115,0.179-0.151l0.845-0.488
						c0.104-0.059,0.202-0.07,0.276-0.028L40.944,30.008z"/>
					<path class="st4" d="M38.238,31.894l0.552,0.33c0-0.093,0.021-0.192,0.065-0.291c0.015-0.034,0.033-0.068,0.053-0.101
						l-0.552-0.33c-0.02,0.033-0.038,0.067-0.053,0.101C38.259,31.702,38.238,31.801,38.238,31.894z"/>
					<path class="st9" d="M39.049,30.331c0.055-0.063,0.117-0.115,0.179-0.151l0.552,0.33c-0.062,0.036-0.124,0.088-0.179,0.151
						c-0.038,0.042-0.072,0.09-0.102,0.142l-0.552-0.33C38.977,30.421,39.011,30.373,39.049,30.331z"/>
					<path class="st11" d="M40.104,30.887l-0.54,0.312l0.077-0.134c0.013-0.021,0.029-0.038,0.043-0.057l0.42-0.243V30.887z
						 M40.295,31.005l0.731-0.422l-0.105-0.061l-0.626,0.361V31.005z M40.104,31.452l-0.996,0.575
						c-0.014,0.045-0.02,0.09-0.022,0.134l1.018-0.588C40.104,31.573,40.104,31.452,40.104,31.452z M40.104,30.994l-0.632,0.365
						l-0.104,0.182l0.736-0.425V30.994z M40.104,31.223l-0.828,0.478c0,0-0.1,0.175-0.103,0.181l0.931-0.538V31.223z M40.294,30.655
						v0.121l0.534-0.308l-0.077-0.045c-0.012-0.007-0.029-0.004-0.043-0.007l-0.413,0.239H40.294z M40.295,31.234
						c0,0,0.928-0.536,0.925-0.539l-0.101-0.059l-0.824,0.476V31.234z M40.294,31.798v0.121l1.021-0.589v-0.121l-1.02,0.589H40.294z
						 M40.295,32.149l1.021-0.59v-0.121l-1.021,0.589V32.149z M40.296,31.341v0.122l1.015-0.586
						c-0.003-0.041-0.009-0.079-0.024-0.108L40.296,31.341L40.296,31.341z M40.295,31.69l1.02-0.589V30.98l-1.02,0.589
						C40.295,31.569,40.295,31.69,40.295,31.69z M40.104,33.052l-0.546,0.315c0,0,0.09,0.052,0.113,0.056l0.433-0.25
						C40.104,33.173,40.104,33.052,40.104,33.052z M40.104,31.68l-1.021,0.59v0.121l1.021-0.59V31.68z M40.296,32.713v0.122
						l0.644-0.372l0.104-0.182L40.296,32.713L40.296,32.713z M40.295,32.605l0.841-0.485c0,0,0.088-0.154,0.099-0.179l-0.94,0.543
						V32.605z M40.295,32.377l0.999-0.577c0.013-0.046,0.02-0.091,0.021-0.134l-1.02,0.589V32.377z M40.295,33.063l0.44-0.254
						c0.007-0.011,0.016-0.019,0.023-0.031l0.089-0.156l-0.552,0.319C40.295,32.941,40.295,33.063,40.295,33.063z M40.105,32.03
						v-0.121l-1.021,0.589v0.121L40.105,32.03L40.105,32.03z M40.104,32.138l-1.02,0.589v0.121l1.02-0.589
						C40.104,32.259,40.104,32.138,40.104,32.138z M40.104,32.594c0,0-0.936,0.541-0.925,0.553l0.089,0.052l0.836-0.483V32.594z
						 M40.104,32.824l-0.744,0.429l0.105,0.061l0.639-0.369C40.104,32.945,40.104,32.824,40.104,32.824z M40.104,32.365
						l-1.018,0.588c0.001,0.043,0.008,0.079,0.021,0.11l0.997-0.576V32.365z"/>
				</g>
			</g>
		</g>
		<path class="st12" d="M31.106,33.912c0.094,0.163,0.265,0.254,0.441,0.254c0.086,0,0.174-0.022,0.254-0.068l3.567-2.059
			c0.424-0.244-0.083-1.127-0.509-0.881l-3.567,2.059C31.048,33.358,30.965,33.669,31.106,33.912z"/>
	</g>
	<g>
		<path class="st13" d="M36.908,12.343c0.189,0,0.353,0.103,0.441,0.255c0.043,0.075,0.068,0.161,0.068,0.254v14.782
			c0,0.49-1.018,0.492-1.018,0V12.852C36.399,12.57,36.627,12.343,36.908,12.343z"/>
		<g id="Axonometric_Cylinder_87_">
			
				<linearGradient id="SVGID_00000123423885023096978970000000155744865969972880_" gradientUnits="userSpaceOnUse" x1="7.807" y1="37.3775" x2="19.5193" y2="37.3775" gradientTransform="matrix(-1 0 0 -1 50.63 52)">
				<stop  offset="0" style="stop-color:#C4BFB5"/>
				<stop  offset="1" style="stop-color:#D7D2CB"/>
			</linearGradient>
			<path style="fill:url(#SVGID_00000123423885023096978970000000155744865969972880_);" d="M31.111,9.481v6.871
				c-0.014,0.876,0.558,1.754,1.715,2.422c2.287,1.32,5.995,1.32,8.282,0c1.13-0.653,1.701-1.505,1.715-2.36V9.543L31.111,9.481z"/>
			<path id="Cylinder_face_235_" class="st3" d="M32.826,7.121c2.287-1.32,5.995-1.321,8.282,0c2.287,1.321,2.287,3.462,0,4.782
				c-2.287,1.32-5.995,1.32-8.282,0C30.539,10.582,30.539,8.441,32.826,7.121z"/>
			<ellipse id="Cylinder_face_237_" class="st13" cx="36.967" cy="9.512" rx="3.283" ry="1.896"/>
			<path class="st15" d="M40.244,9.597c0.039-0.513-0.276-1.033-0.955-1.425c-1.282-0.74-3.361-0.74-4.643,0
				c-0.679,0.392-0.995,0.912-0.955,1.425c0.036-0.457,0.351-0.907,0.955-1.256c1.282-0.74,3.361-0.74,4.643,0
				C39.892,8.69,40.208,9.14,40.244,9.597z"/>
		</g>
	</g>
</g>
<g>
	<g>
		<g>
			<path class="st16" d="M18.354,37.195h0.004c-0.05,1.002,0.579,2.012,1.9,2.775c2.556,1.475,6.712,1.468,9.284-0.017
				c1.22-0.704,1.857-1.615,1.924-2.535h0.007v-0.077c0.002-0.051,2.255-12.374,2.255-12.374l-17.183,0.05L18.354,37.195z"/>
			<g>
				<path class="st17" d="M18.143,35.764c-0.04-0.131,0.268,1.579,0.218,1.458c-0.038,0.994,0.589,1.993,1.899,2.749
					c2.555,1.475,6.711,1.468,9.283-0.017c1.22-0.704,1.857-1.615,1.924-2.535h0.007v-0.077c0-0.006,0.338-1.87,0.387-2.141
					c-0.387,2.141-1.594,2.908-2.195,3.23c-2.691,1.44-6.915,1.533-9.542,0.017C19.383,38.02,18.575,37.208,18.143,35.764z"/>
			</g>
			<path d="M31.651,36.361c0.09-0.498,0.186-1.026,0.21-1.161c-0.387,2.141-1.594,2.908-2.195,3.23
				c-2.691,1.44-6.915,1.533-9.542,0.017c-0.741-0.427-1.549-1.24-1.981-2.684c-0.018-0.059,0.035,0.252,0.093,0.603
				c0.448,1.274,1.195,2.018,1.888,2.418c2.627,1.517,6.851,1.424,9.542-0.017C30.182,38.491,31.144,37.883,31.651,36.361z"/>
			<path class="st17" d="M15.3,25.795h0.007c-0.074,1.469,0.847,2.948,2.783,4.066c3.745,2.161,9.834,2.15,13.602-0.025
				c1.788-1.033,2.721-2.367,2.819-3.715h0.01v-0.112c0.003-0.075,0-2.37,0-2.37l-1.435-0.015c-0.378-0.351-0.823-0.685-1.351-0.99
				c-3.744-2.161-9.833-2.15-13.601,0.025c-0.433,0.25-0.811,0.519-1.145,0.801l-1.701-0.017L15.3,25.795z"/>
			<path class="st18" d="M15.336,23.994c0.199,1.238,1.117,2.443,2.755,3.389c1.872,1.081,4.331,1.618,6.792,1.614
				c1.23-0.002,2.462-0.14,3.621-0.413c1.159-0.274,2.246-0.682,3.188-1.226c0.216-0.125,0.417-0.256,0.609-0.389
				c0.026-0.018,0.053-0.036,0.078-0.054c0.178-0.127,0.344-0.259,0.501-0.393c0.029-0.024,0.058-0.049,0.086-0.074
				c0.151-0.134,0.291-0.27,0.42-0.409c0.023-0.025,0.045-0.05,0.067-0.075c0.128-0.143,0.247-0.288,0.352-0.436
				c0.01-0.014,0.019-0.029,0.029-0.044c0.1-0.143,0.189-0.289,0.267-0.436c0.011-0.019,0.022-0.038,0.032-0.057
				c0.076-0.148,0.139-0.299,0.193-0.45c0.011-0.031,0.023-0.062,0.033-0.093c0.048-0.147,0.085-0.295,0.113-0.444
				c0.006-0.033,0.011-0.067,0.016-0.1c0.023-0.15,0.038-0.301,0.04-0.451c0-0.027-0.002-0.055-0.002-0.082
				c-0.002-0.148-0.012-0.296-0.034-0.443c-0.187-1.25-1.104-2.469-2.757-3.423c-2.159-1.246-5.096-1.766-7.919-1.57
				c-0.214,0.014-0.428,0.031-0.64,0.054c-0.114,0.012-0.227,0.029-0.34,0.044c-0.172,0.022-0.344,0.045-0.514,0.073
				c-0.119,0.02-0.237,0.043-0.355,0.065c-0.162,0.031-0.324,0.063-0.484,0.099c-0.117,0.027-0.234,0.055-0.35,0.084
				c-0.159,0.04-0.316,0.082-0.471,0.127c-0.111,0.033-0.222,0.065-0.332,0.1c-0.159,0.05-0.315,0.105-0.47,0.161
				c-0.101,0.036-0.202,0.071-0.301,0.11c-0.168,0.065-0.33,0.137-0.492,0.209c-0.081,0.036-0.163,0.069-0.242,0.107
				c-0.237,0.113-0.469,0.233-0.691,0.361c-0.707,0.408-1.281,0.863-1.724,1.347c-0.591,0.646-0.947,1.344-1.068,2.052
				C15.281,23.282,15.279,23.638,15.336,23.994z M34.515,23.216c-0.005-0.076-0.008-0.152-0.018-0.228
				C34.505,23.064,34.512,23.14,34.515,23.216z"/>
			<path class="st19" d="M19.292,26.688c3.085,1.781,8.102,1.772,11.207-0.02c3.104-1.793,3.12-4.69,0.035-6.471
				c-3.085-1.782-8.103-1.772-11.207,0.02C16.222,22.01,16.207,24.907,19.292,26.688z"/>
			<path class="st20" d="M20.174,26.704c1.991,0.964,4.29,0.958,6.445,0.619c0.582-0.091,1.159-0.222,1.746-0.266
				c-0.333-0.233-0.707-0.402-1.055-0.61c-0.219-0.131-0.458-0.289-0.51-0.538c-0.145-0.084-0.306,0.083-0.377,0.235
				c-0.07,0.152-0.173,0.342-0.339,0.322c-0.09-0.01-0.157-0.082-0.226-0.141c-0.246-0.209-0.582-0.279-0.904-0.293
				c-0.323-0.014-0.647,0.021-0.968-0.013c-0.463-0.049-0.899-0.236-1.326-0.421c-0.658-0.286-1.316-0.571-1.974-0.856
				c-0.195-0.085-0.393-0.17-0.603-0.203c-0.293-0.046-0.593,0.013-0.889-0.003c-0.322-0.017-0.637-0.109-0.933-0.231
				c-0.181-0.075-0.469-0.345-0.487-0.068c-0.037,0.569,0.252,1.032,0.666,1.411C18.951,26.116,19.654,26.455,20.174,26.704z"/>
			
				<linearGradient id="SVGID_00000139997054067574236400000014643599983405369497_" gradientUnits="userSpaceOnUse" x1="17.7952" y1="30.562" x2="33.6375" y2="30.562" gradientTransform="matrix(-1 0 0 -1 50.63 52)">
				<stop  offset="0" style="stop-color:#868686"/>
				<stop  offset="0.0851" style="stop-color:#868686"/>
				<stop  offset="0.5811" style="stop-color:#868686"/>
				<stop  offset="1" style="stop-color:#424242"/>
			</linearGradient>
			<path style="fill:url(#SVGID_00000139997054067574236400000014643599983405369497_);" d="M32.78,23.953
				c0.273-1.339-0.473-2.731-2.246-3.755c-3.085-1.781-8.103-1.772-11.207,0.02c-1.796,1.037-2.554,2.443-2.28,3.79
				c0.203-0.99,0.961-1.951,2.28-2.712c3.104-1.792,8.122-1.801,11.207-0.02C31.832,22.025,32.579,22.973,32.78,23.953z"/>
		</g>
		<g>
			<g>
				<g>
					<path class="st22" d="M14.663,14.686c0.08,0.72,1.245,2.532,1.245,2.532l0.823,3.066c0,0,1.23,0.577,1.93,0.981
						c0.688,0.397,2.272,2.104,2.272,2.104l1.565,0.792l0.974,0.564c0.069,0.034,0.093,0.083,0.093,0.141
						c-0.001,0.003,0,0.006-0.001,0.009c-0.008,0.177-0.226,0.431-0.101,0.574c0.005,0.001,0.01,0.001,0.016,0.003
						c0.073,0.027,0.144,0.052,0.216,0.078c0.008,0.003,0.016,0.005,0.023,0.008c0.356,0.127,0.698,0.239,1.039,0.308
						c-0.003-0.153-0.006-0.305-0.007-0.449c0.046,0.011,0.093,0.027,0.139,0.036c-0.012-0.558-0.014-1.123,0.022-1.235
						c0.078-0.243-2.44-12.095-2.44-12.095s-3.784-1.567-4.562-1.035c-0.761,0.52-3.177,2.448-3.115,3.194
						C14.702,14.424,14.649,14.57,14.663,14.686z"/>
					<path class="st23" d="M24.947,25.123c-0.02,0.252-0.073,0.635-0.133,1.019c0.317,0.06,0.643,0.073,0.987,0.027
						c0.151-0.02,0.412-0.091,0.63-0.175c0.079-0.005,0.163-0.024,0.248-0.046c0.131-0.033,0.263-0.067,0.379-0.135
						c0.322-0.187,0.446-0.567,0.631-0.868c0.101-0.164,0.222-0.307,0.365-0.421c0.026-0.005,0.052-0.013,0.078-0.019
						c0.01-0.002,0.019-0.005,0.028-0.007c0.098-0.024,0.196-0.051,0.292-0.082c0.009-0.003,0.018-0.006,0.027-0.009
						c0.097-0.032,0.192-0.067,0.285-0.107c0.007-0.002,0.013-0.005,0.02-0.008c0.022-0.01,0.045-0.018,0.067-0.028
						c0.579-0.005,1.184-0.106,1.426-0.595c0.116-0.233,0.129-0.529,0.276-0.739c0.103-0.146,0.261-0.237,0.415-0.325
						c0.569-0.324,1.138-0.647,1.707-0.971c0.477-0.271,0.931-0.225,1.024-0.804c0.045-0.28-0.017-0.587,0.033-0.865
						c0.08-0.444,0.066-1.161,0.731-1.519c0.187-0.1,0.352-0.244,0.468-0.425c0.106-0.167,0.153-0.373,0.176-0.582
						c0.07-0.635-0.049-1.266-0.336-1.838c-0.225-0.595-0.608-1.143-1.115-1.537c-0.365-0.284-0.786-0.493-1.118-0.818
						c-0.102-0.099-0.191-0.209-0.281-0.318c-0.036-0.042-0.067-0.088-0.105-0.128c-0.011-0.012-0.025-0.02-0.036-0.032
						c-0.076-0.091-0.15-0.183-0.234-0.265c-0.473-0.461-1.113-0.676-1.73-0.85c-0.337-0.095-0.707-0.181-1.005-0.039
						c-0.285,0.135-0.447,0.452-0.704,0.622c-0.03-0.022-0.058-0.047-0.089-0.068c-0.237-0.162-0.497-0.287-0.767-0.381
						c-0.01-0.003-0.019-0.007-0.029-0.01c-0.082-0.028-0.164-0.052-0.247-0.073c-0.022-0.005-0.045-0.011-0.067-0.016
						c-0.078-0.018-0.156-0.033-0.234-0.046c-0.01-0.002-0.019-0.005-0.029-0.006c0.001,0.001,0.001,0.001,0.002,0.002
						c-0.402-0.061-0.814-0.053-1.211,0.037c-0.093,0.021-0.187,0.047-0.266,0.101c-0.133,0.093-0.202,0.252-0.247,0.408
						c-0.01,0.032-0.014,0.065-0.022,0.097c-0.355,0.22-0.688,0.488-0.932,0.821c-0.048,0.066-0.093,0.134-0.134,0.204
						c-0.393,0.674-0.481,1.265-0.574,2.034c-0.112,0.924-0.225,1.848-0.341,2.771c-0.167,1.33-0.273,2.697-0.553,4.009
						C22.477,23.18,24.182,25.088,24.947,25.123z"/>
					<path class="st24" d="M18.973,15.737c0.742-0.992,0.617-2.183,0.647-2.502c0.03-0.324,2.002-3.485,3.218-3.425
						s1.889,0.302,1.889,0.302c0.638-0.103,1.337-0.194,1.954,0.026c0.708,0.25,1.247,0.928,1.251,1.648
						c0,0.388-0.125,0.807,0.078,1.139c0.151,0.25,0.44,0.384,0.686,0.552c0.457,0.315,0.785,0.789,0.91,1.307
						c0.134,0.578,0.017,1.186-0.22,1.73c-0.233,0.548-0.587,1.04-0.936,1.523c-0.173,0.233-0.35,0.484-0.367,0.764
						c-0.031,0.497,0.427,0.88,0.651,1.329c0.216,0.422,0.22,0.94,0.009,1.367c-0.1,0.207-0.246,0.388-0.393,0.569
						c-0.307,0.384-0.609,0.768-0.915,1.152c-0.048,0.056-0.104,0.116-0.16,0.181c-0.194,0.216-0.418,0.466-0.401,0.729
						c0.013,0.221-0.677,0.402-0.677,0.626c0,0.293-0.146,0.496-0.362,0.677c-0.147,0.125,0.47,0.306,0.306,0.47
						c-0.108,0.022-0.216,0.039-0.324,0.052c-0.625,0.065-1.203-0.06-1.807-0.25c-0.207-0.487-0.492-1.031-0.798-1.242
						c-0.621-0.435-1.648-2.575-1.648-2.575s-1.553-1.113-1.721-1.674C19.666,19.638,18.26,16.692,18.973,15.737z"/>
					<path class="st25" d="M27.741,11.541c0.038,0.555-0.149,1.417,0.252,1.592c0.4,0.176,1.446,0.85,1.513,1.928
						c0.068,1.079-0.363,1.938-0.876,2.513c-0.513,0.575-1.088,1.409-0.546,1.901c0.542,0.492,0.667,1.126,0.667,1.546
						s-1.082,1.902-1.604,2.192s-0.515,0.934-0.515,0.934s-0.36-1.509-0.59-1.779s-0.906-0.508-0.906-0.508s0.474-0.085,1.141-0.638
						c0.667-0.552,0.829-1.011,1.075-1.397c0.246-0.386,0.185-1.214,0.185-1.214s-0.93,1.264-1.429,1.705s-1.037,0.518-1.037,0.518
						s-0.175-0.812-0.167-1.243c0.008-0.431,0.374-1.543,0.374-1.543l0.966-0.856c0,0,0.875-0.202,1.401-0.589
						c0.526-0.387,0.647-0.881,0.647-0.881s0,0-0.391,0.202c-0.391,0.202-1.083,0.488-1.083,0.488s0.975-1.243,1.174-1.526
						s0.368-1.048,0.368-1.048s-1.24,0.913-1.685,1.472s-1.138,1.281-1.138,1.281s-0.021-0.074,0-1.095s0.248-1.028,0.571-1.931
						c0.324-0.904,0.207-0.993,0.261-1.715c0.031-0.411-0.24-1.128-0.355-1.411c-0.009-0.024-0.45,2.08-0.409,0.893
						c0.006-0.171,0.056-1.172,0.08-1.174c0.049-0.004,0.344,0.036,0.344,0.036C26.905,10.194,27.703,10.986,27.741,11.541z"/>
				</g>
			</g>
			<path class="st26" d="M17.224,22.65c0.328-0.484-0.103-0.807,0.082-1.631c0.19-0.823,2.416-1.656,2.416-1.656
				s1.6,0.185,2.627,0.996c1.026,0.807,1.113,0.449,1.984,0.971c0.207,0.121,1.251,0.833,1.402,1.221
				c0.241,0.63,0.289,1.156,0.306,1.333c0,0.012,0.004,0.021,0.004,0.034c0.022,0.198-0.198-0.432-0.362-0.242
				c-0.03,0.035,0.362,1.454,0.453,2.071c-0.026,0.194-0.06,0.237-0.095,0.017c-0.358-2.442-1.13-2.364-1.13-2.364
				s-1.509,0.729-2.04,0.992c-0.431-0.07-2.329,0.483-3.891,0.172c-0.751-0.151-1.251-0.47-1.54-0.815
				C17.104,23.348,17.052,22.912,17.224,22.65z"/>
			<path class="st27" d="M17.44,23.749c0.142,0.371,1.065,0.949,2.066,1.044c0.997,0.095,2.904-0.173,3.24-0.341
				c0.03-0.017,0.073-0.038,0.125-0.06l0,0c0.017,0,0.03,0.005,0.043,0.009c0.336,0.125,1.238,1.739,1.458,1.523
				c0.164-0.164,1.531,0.798,1.773,0.086c0.013-0.039,0.008-0.134-0.009-0.263c-0.007,0.049-0.014,0.088-0.021,0.116
				c0.007-0.028,0.014-0.067,0.021-0.116c0.043-0.345,0.047-1.169-0.091-1.829c0-0.013-0.004-0.022-0.004-0.035
				c-0.017-0.073-0.035-0.142-0.052-0.207c-0.574-2.036-2.2-0.056-2.614,0.065c-0.418,0.121-1.958,0.66-3.291,0.703
				C18.752,24.482,18.79,24.349,17.44,23.749z M24.912,23.4c0,0-0.098,0.048-0.252,0.122C24.814,23.447,24.912,23.4,24.912,23.4
				s0.772-0.077,1.13,2.364c0.017,0.109,0.034,0.154,0.051,0.147c-0.016,0.007-0.034-0.037-0.051-0.147
				C25.683,23.322,24.912,23.4,24.912,23.4z M24.243,23.723c0.005-0.002,0.01-0.005,0.015-0.007
				C24.253,23.718,24.248,23.721,24.243,23.723z"/>
		</g>
	</g>
</g>
</svg>
