<?xml version="1.0" encoding="utf-8"?>
<!-- Generator: Adobe Illustrator 25.4.1, SVG Export Plug-In . SVG Version: 6.00 Build 0)  -->
<svg version="1.1" id="Layer_1" xmlns="http://www.w3.org/2000/svg" xmlns:xlink="http://www.w3.org/1999/xlink" x="0px" y="0px"
	 viewBox="0 0 50 50" style="enable-background:new 0 0 50 50;" xml:space="preserve">
<style type="text/css">
	.st0{opacity:0.43;}
	.st1{fill:#A6A8AB;}
	.st2{fill:#151515;}
	.st3{fill:#DDDDDD;}
	.st4{fill:#464648;}
	.st5{fill:#959698;}
	.st6{fill:#AFA68F;}
	.st7{fill:#746F5F;}
	.st8{fill:#4F4D41;}
	.st9{fill:#E0E0E0;}
	.st10{fill:#2C2C2C;}
	.st11{fill:#FFFFFF;}
	.st12{fill:#F2E3C0;}
	.st13{fill:#404040;}
	.st14{fill:#231F20;}
	.st15{fill:#5E5758;}
	.st16{fill:#525252;}
	.st17{fill:#A0A0A0;}
	.st18{opacity:0.4;}
	.st19{fill:#C7EAFB;}
	.st20{opacity:0.82;}
</style>
<g>
	<g class="st0">
		<path class="st1" d="M12.023,35.876l-3.497-2.249c-1.415-0.773-1.257-2.155,0.353-3.089l8.4-4.869
			c1.61-0.933,4.063-1.064,5.478-0.291l6.245,3.41l9.481,5.177l6.728,3.673c1.415,0.773,1.257,2.156-0.353,3.089l-8.4,4.869
			c-0.842,0.488-1.911,0.74-2.947,0.791c-1.929,0.095-3.033,0.403-4.855-0.538s-5.194-2.613-5.194-2.613l-3.885,1.781
			c-0.82,0.376-2.022,0.349-2.684-0.06L6.379,38.464L12.023,35.876z"/>
	</g>
	<g>
		<path class="st2" d="M8.065,30.267l13.147-7.544l22.158,12c1.415,0.773,2.233,3.697,0.623,4.631l-8.4,4.869
			c-1.61,0.933-4.063,1.064-5.478,0.291L7.66,32.254C6.245,31.482,8.065,30.267,8.065,30.267z"/>
		<g>
			<polygon class="st3" points="21.211,22.724 6.699,31.073 6.609,23.994 21.122,15.645 			"/>
		</g>
		<g>
			<polygon class="st4" points="21.211,22.724 40.318,33.069 40.229,25.99 21.122,15.645 			"/>
		</g>
		<g>
			<line class="st5" x1="39.563" y1="26.394" x2="40.229" y2="25.99"/>
		</g>
		<g>
			<g>
				<polygon class="st6" points="38.548,32.041 27.972,37.991 14.295,30.524 24.871,24.574 				"/>
			</g>
			<g>
				<polygon class="st7" points="27.979,38.6 27.972,37.991 14.295,30.524 14.303,31.133 				"/>
			</g>
			<g>
				<polygon class="st8" points="27.979,38.6 27.972,37.991 38.548,32.041 38.556,32.65 				"/>
			</g>
		</g>
		<path id="XMLID_793_" class="st9" d="M11.399,30.971l14.518,7.966c0.336,0.183,0.613,0.683,0.618,1.116l0.018,1.376l-15.125-8.23
			L11.399,30.971z"/>
		<polygon id="XMLID_13_" points="11.399,30.971 11.16,31.038 11.152,33.831 11.428,33.199 		"/>
		<g id="XMLID_864_">
			<path id="XMLID_778_" class="st10" d="M11.152,33.831l0.266-1.422l15.158,8.23l0.022,1.719L11.152,33.831z"/>
		</g>
		<g id="XMLID_10_">
			<path id="XMLID_11_" d="M11.152,33.831l-0.404,0.109l16.282,8.89l-0.432-0.472L11.152,33.831z"/>
		</g>
		<g>
			<path class="st3" d="M35.502,37.144l8.4-4.869c0.89-0.516,1.334-1.169,1.316-1.781c0.008,0.536,0.098,6.637,0.093,7.127
				c-0.006,0.598-0.452,1.23-1.319,1.733l-8.4,4.869L35.502,37.144z"/>
		</g>
		<path class="st11" d="M35.592,44.223c-1.61,0.933-4.063,1.064-5.478,0.291L27.03,42.83c-0.461-0.251-0.469-0.766-0.469-0.766
			l-0.026-2.011c-0.006-0.433-0.282-0.933-0.618-1.116l-14.144-7.722c-0.336-0.183-0.603,0.019-0.598,0.452l0.026,2.009
			c0,0,0.007,0.516-0.454,0.264L7.66,32.254c-0.663-0.362-0.98-0.857-0.965-1.378c0.017-0.591-0.095-7.21-0.095-7.21l0.017,0.003
			c-0.075,0.567,0.237,1.115,0.953,1.506l22.454,12.259c1.415,0.773,3.868,0.642,5.478-0.291L35.592,44.223z"/>
		<g>
			<g>
				<polygon class="st12" points="26.535,40.026 15.598,46.014 1.921,38.547 12.859,32.559 				"/>
			</g>
			<g>
				<polygon class="st7" points="15.605,46.623 15.598,46.014 1.921,38.547 1.929,39.156 				"/>
			</g>
			<g>
				<polygon class="st8" points="15.605,46.623 15.598,46.014 26.535,40.026 26.543,40.635 				"/>
			</g>
		</g>
		<polyline class="st13" points="40.229,25.99 24.745,17.536 24.08,17.941 39.563,26.394 		"/>
		<polyline class="st14" points="39.575,27.266 24.091,18.812 24.08,17.941 39.563,26.394 		"/>
		<g>
			<polyline class="st14" points="34.011,31.961 16.113,22.189 16.1,21.182 33.998,30.953 			"/>
			<polygon class="st13" points="16.1,21.182 16.869,20.714 34.767,30.485 33.998,30.953 26.121,26.653 24.756,27.395 
				21.817,25.793 23.184,25.05 			"/>
			<polygon class="st14" points="24.769,28.408 21.83,26.807 21.817,25.793 24.756,27.395 			"/>
			<polygon class="st15" points="24.769,28.408 26.134,27.666 26.121,26.653 24.756,27.395 			"/>
		</g>
		<g>
			<path class="st13" d="M44.242,28.181c1.415,0.773,1.257,2.155-0.353,3.089l-8.4,4.869c-1.61,0.933-4.063,1.064-5.478,0.291
				l-4.069-2.221l14.286-8.219L44.242,28.181z"/>
			<path class="st10" d="M45.156,30.93c-0.153,0.475-0.574,0.95-1.254,1.344l-8.4,4.869l-0.013-1.005l8.4-4.869
				c0.805-0.467,1.247-1.046,1.311-1.605L45.156,30.93z"/>
			<path class="st16" d="M35.502,37.144c-1.61,0.933-4.063,1.064-5.478,0.291l-4.069-2.221l-0.013-1.005l4.069,2.221
				c1.415,0.773,3.868,0.642,5.478-0.291L35.502,37.144z"/>
		</g>
		<g>
			<path class="st13" d="M7.91,21.082l8.4-4.869c1.61-0.933,4.063-1.064,5.478-0.291l2.957,1.614l-14.287,8.218L7.557,24.17
				c-0.683-0.373-1-0.888-0.963-1.426C6.633,22.167,7.078,21.564,7.91,21.082z"/>
			<polygon class="st10" points="24.758,18.541 10.472,26.759 10.458,25.754 24.745,17.536 			"/>
			<path class="st16" d="M10.472,26.759L7.57,25.175c-0.683-0.373-1-0.888-0.963-1.426l-0.013-1.005
				c-0.037,0.538,0.28,1.053,0.963,1.426l2.901,1.584L10.472,26.759z"/>
			<g>
				
					<ellipse transform="matrix(0.9999 -0.0125 0.0125 0.9999 -0.2895 0.1187)" class="st11" cx="9.364" cy="23.245" rx="0.853" ry="0.536"/>
				<path class="st17" d="M10.219,23.387c0.004,0.296-0.375,0.541-0.846,0.547c-0.471,0.006-0.856-0.229-0.86-0.525l-0.002-0.153
					c0.004,0.296,0.389,0.531,0.86,0.525s0.85-0.251,0.846-0.547L10.219,23.387z"/>
			</g>
		</g>
		<g>
			<g class="st18">
				<polygon class="st19" points="40.228,25.842 25.941,34.06 10.722,25.751 25.009,17.533 				"/>
			</g>
			<g class="st20">
				<polygon class="st19" points="25.953,34.99 25.941,34.06 10.722,25.751 10.734,26.681 				"/>
			</g>
		</g>
	</g>
</g>
</svg>
