<?xml version="1.0" encoding="utf-8"?>
<!-- Generator: Adobe Illustrator 26.0.1, SVG Export Plug-In . SVG Version: 6.00 Build 0)  -->
<svg version="1.1" id="Layer_1" xmlns="http://www.w3.org/2000/svg" xmlns:xlink="http://www.w3.org/1999/xlink" x="0px" y="0px"
	 viewBox="0 0 50 50" style="enable-background:new 0 0 50 50;" xml:space="preserve">
<style type="text/css">
	.st0{opacity:0.43;}
	.st1{fill:#A6A8AB;}
	.st2{fill:#151515;}
	.st3{fill:#DDDDDD;}
	.st4{fill:#464648;}
	.st5{fill:none;}
	.st6{fill:#AFA68F;}
	.st7{fill:#746F5F;}
	.st8{fill:#4F4D41;}
	.st9{fill:#E0E0E0;}
	.st10{fill:#2C2C2C;}
	.st11{fill:#FFFFFF;}
	.st12{fill:#F2E3C0;}
	.st13{fill:#404040;}
	.st14{fill:#231F20;}
	.st15{fill:#5E5758;}
	.st16{fill:#525252;}
	.st17{fill:#A0A0A0;}
	.st18{opacity:0.4;}
	.st19{fill:#C7EAFB;}
	.st20{opacity:0.82;}
</style>
<g>
	<g class="st0">
		<path class="st1" d="M41.719,38.464l-10.514,6.493c-0.662,0.409-1.864,0.436-2.684,0.06l-3.885-1.781c0,0-3.372,1.672-5.194,2.613
			s-2.926,0.633-4.855,0.538c-1.036-0.051-2.105-0.303-2.947-0.791l-8.4-4.869c-1.61-0.933-1.768-2.316-0.353-3.089l6.728-3.673
			l9.481-5.177l6.245-3.41c1.415-0.773,3.868-0.642,5.478,0.291l8.4,4.869c1.61,0.934,1.768,2.316,0.353,3.089l-3.497,2.249
			L41.719,38.464z"/>
	</g>
	<g>
		<path class="st2" d="M40.438,32.254l-22.455,12.26c-1.415,0.773-3.868,0.642-5.478-0.291l-8.4-4.869
			c-1.61-0.934-0.792-3.858,0.623-4.631l22.158-12l13.147,7.544C40.033,30.267,41.853,31.482,40.438,32.254z"/>
		<g>
			<polygon class="st3" points="26.976,15.645 41.489,23.994 41.399,31.073 26.887,22.724 			"/>
		</g>
		<g>
			<polygon class="st4" points="26.976,15.645 7.869,25.99 7.78,33.069 26.887,22.724 			"/>
		</g>
		<g>
			<line class="st5" x1="7.869" y1="25.99" x2="8.535" y2="26.394"/>
		</g>
		<g>
			<g>
				<polygon class="st6" points="23.227,24.574 33.803,30.524 20.126,37.991 9.55,32.041 				"/>
			</g>
			<g>
				<polygon class="st7" points="33.795,31.133 33.803,30.524 20.126,37.991 20.119,38.6 				"/>
			</g>
			<g>
				<polygon class="st8" points="9.542,32.65 9.55,32.041 20.126,37.991 20.119,38.6 				"/>
			</g>
		</g>
		<path id="XMLID_793_" class="st9" d="M36.67,33.199l-15.125,8.23l0.018-1.376c0.005-0.433,0.282-0.933,0.618-1.116l14.518-7.966
			L36.67,33.199z"/>
		<polygon id="XMLID_13_" points="36.67,33.199 36.946,33.831 36.938,31.038 36.699,30.971 		"/>
		<g id="XMLID_864_">
			<path id="XMLID_778_" class="st10" d="M21.5,42.358l0.022-1.719l15.158-8.23l0.266,1.422L21.5,42.358z"/>
		</g>
		<g id="XMLID_10_">
			<path id="XMLID_11_" d="M21.5,42.358l-0.432,0.472l16.282-8.89l-0.404-0.109L21.5,42.358z"/>
		</g>
		<g>
			<path class="st3" d="M12.506,44.223l-8.4-4.869c-0.867-0.503-1.313-1.135-1.319-1.733c-0.005-0.49,0.085-6.591,0.093-7.127
				c-0.018,0.612,0.426,1.265,1.316,1.781l8.4,4.869L12.506,44.223z"/>
		</g>
		<path class="st11" d="M12.596,37.143c1.61,0.933,4.063,1.064,5.478,0.291l22.454-12.259c0.716-0.391,1.028-0.939,0.953-1.506
			l0.017-0.003c0,0-0.112,6.619-0.095,7.21c0.015,0.521-0.302,1.016-0.965,1.378l-3.087,1.686c-0.461,0.252-0.454-0.264-0.454-0.264
			l0.026-2.009c0.005-0.433-0.262-0.635-0.598-0.452l-14.144,7.722c-0.336,0.183-0.612,0.683-0.618,1.116l-0.026,2.011
			c0,0-0.008,0.515-0.469,0.766l-3.084,1.684c-1.415,0.773-3.868,0.642-5.478-0.291L12.596,37.143z"/>
		<g>
			<g>
				<polygon class="st12" points="35.239,32.559 46.177,38.547 32.5,46.014 21.563,40.026 				"/>
			</g>
			<g>
				<polygon class="st7" points="46.169,39.156 46.177,38.547 32.5,46.014 32.493,46.623 				"/>
			</g>
			<g>
				<polygon class="st8" points="21.555,40.635 21.563,40.026 32.5,46.014 32.493,46.623 				"/>
			</g>
		</g>
		<polyline class="st13" points="8.535,26.394 24.018,17.941 23.353,17.536 7.869,25.99 		"/>
		<polyline class="st14" points="8.535,26.394 24.018,17.941 24.007,18.812 8.523,27.266 		"/>
		<g>
			<polyline class="st14" points="14.1,30.953 31.998,21.182 31.985,22.189 14.087,31.961 			"/>
			<polygon class="st13" points="24.914,25.05 26.281,25.793 23.342,27.395 21.977,26.653 14.1,30.953 13.331,30.485 31.229,20.714 
				31.998,21.182 			"/>
			<polygon class="st14" points="23.342,27.395 26.281,25.793 26.268,26.807 23.329,28.408 			"/>
			<polygon class="st15" points="23.342,27.395 21.977,26.653 21.964,27.666 23.329,28.408 			"/>
		</g>
		<g>
			<path class="st13" d="M7.87,25.99l14.286,8.219l-4.069,2.221c-1.415,0.773-3.868,0.642-5.478-0.291l-8.4-4.869
				c-1.61-0.934-1.768-2.316-0.353-3.089L7.87,25.99z"/>
			<path class="st10" d="M2.898,29.664c0.064,0.559,0.506,1.138,1.311,1.605l8.4,4.869l-0.013,1.005l-8.4-4.869
				c-0.68-0.394-1.101-0.869-1.254-1.344L2.898,29.664z"/>
			<path class="st16" d="M12.609,36.139c1.61,0.933,4.063,1.064,5.478,0.291l4.069-2.221l-0.013,1.005l-4.069,2.221
				c-1.415,0.773-3.868,0.642-5.478-0.291L12.609,36.139z"/>
		</g>
		<g>
			<path class="st13" d="M41.504,22.744c0.037,0.538-0.28,1.053-0.963,1.426l-2.901,1.584l-14.287-8.218l2.957-1.614
				c1.415-0.773,3.868-0.642,5.478,0.291l8.4,4.869C41.02,21.564,41.465,22.167,41.504,22.744z"/>
			<polygon class="st10" points="23.353,17.536 37.64,25.754 37.626,26.759 23.34,18.541 			"/>
			<path class="st16" d="M37.64,25.754l2.901-1.584c0.683-0.373,1-0.888,0.963-1.426l-0.013,1.005
				c0.037,0.538-0.28,1.053-0.963,1.426l-2.902,1.584L37.64,25.754z"/>
			<g>
				
					<ellipse transform="matrix(0.0125 -0.9999 0.9999 0.0125 15.0071 61.6846)" class="st11" cx="38.734" cy="23.244" rx="0.536" ry="0.853"/>
				<path class="st17" d="M37.881,23.234c-0.004,0.296,0.375,0.541,0.846,0.547c0.471,0.006,0.856-0.229,0.86-0.525l-0.002,0.153
					c-0.004,0.296-0.389,0.531-0.86,0.525s-0.85-0.251-0.846-0.547L37.881,23.234z"/>
			</g>
		</g>
		<g>
			<g class="st18">
				<polygon class="st19" points="23.089,17.533 37.376,25.751 22.157,34.06 7.87,25.842 				"/>
			</g>
			<g class="st20">
				<polygon class="st19" points="37.364,26.681 37.376,25.751 22.157,34.06 22.145,34.99 				"/>
			</g>
		</g>
	</g>
</g>
</svg>
