<svg version="1.1" viewBox="0 0 400 400" style="position:absolute;top:0;z-index:5;display:none;">
<path class="grade-level-selected" d="M184.111,12.597c-0.329,0-0.661,0.015-0.99,0.044C137.396,16.72,94.612,37.24,62.651,70.418
	c-32.05,33.271-50.949,76.956-53.217,123.01c-0.15,3.045,0.955,6.019,3.059,8.229c2.102,2.209,5.019,3.459,8.068,3.459h99.38
	c5.677,0,10.447-4.27,11.072-9.914c1.636-14.766,7.829-28.378,17.914-39.368c10.03-10.932,22.964-18.261,37.403-21.196
	c5.191-1.055,8.921-5.62,8.921-10.916V23.736c0-3.127-1.314-6.109-3.621-8.219C189.568,13.631,186.882,12.597,184.111,12.597
	L184.111,12.597z"/>
<g>
	<path class="grey-fill" d="M171.468,169.226c-1.379-1.379-3.615-1.379-4.994,0s-1.379,3.615,0,4.994s3.615,1.379,4.994,0
		S172.848,170.605,171.468,169.226z"/>
</g>
<g>
	<path class="white-fill" d="M107.126,133.789c0.979-0.401,1.293-1.139,1.291-2.179c-0.024-10.505-0.022-21.012-0.001-31.518
		c0.002-0.893-0.27-1.56-0.906-2.187c-3.218-3.176-6.408-6.38-9.588-9.594c-0.205-0.207-0.335-0.568-0.353-0.867
		c-0.05-0.78-0.017-1.565-0.017-2.409c0.258,0,0.46,0,0.661,0c2.74,0.002,5.479,0.006,8.218,0.003
		c1.334-0.002,1.971-0.631,1.975-1.957c0.007-1.595-0.038-3.19,0.011-4.784c0.032-1.039-0.307-1.78-1.29-2.181
		c-3.906,0-7.81,0-11.716,0c-0.943,0.439-1.271,1.174-1.26,2.208c0.045,3.057,0.025,6.116-0.001,9.174
		c-0.002,0.276-0.152,0.617-0.348,0.814c-3.209,3.237-6.428,6.465-9.669,9.672c-0.575,0.571-0.827,1.183-0.827,1.993
		c0.017,10.544,0.02,21.087-0.003,31.631c-0.002,1.039,0.312,1.778,1.291,2.181c1.99,0,3.98,0,5.97,0
		c-0.002-3.566-0.01-7.131-0.004-10.698c0.001-1.01,0.686-1.71,1.694-1.715c2.402-0.015,4.805-0.013,7.207,0.004
		c1.012,0.008,1.695,0.699,1.696,1.711c0.008,3.566-0.001,7.131-0.004,10.698C103.146,133.789,105.136,133.789,107.126,133.789z
		 M93.926,115.877c-0.053,0.956-0.819,1.639-1.746,1.611c-0.905-0.029-1.59-0.733-1.619-1.674c-0.008-0.299-0.001-0.598-0.001-0.898
		s-0.007-0.599,0.001-0.896c0.026-0.957,0.741-1.691,1.658-1.71c0.876-0.018,1.651,0.685,1.706,1.604
		C93.963,114.566,93.962,115.224,93.926,115.877z M90.561,103.125c0.008-2.92,2.382-5.282,5.305-5.281
		c2.927,0.003,5.293,2.365,5.297,5.289c0.004,2.926-2.356,5.304-5.276,5.312C92.94,108.456,90.554,106.072,90.561,103.125z
		 M99.503,117.487c-0.929,0.011-1.67-0.685-1.71-1.646c-0.027-0.634-0.029-1.272,0.006-1.907c0.051-0.923,0.806-1.625,1.69-1.621
		c0.918,0.005,1.642,0.733,1.673,1.69c0.01,0.318,0.002,0.636,0.002,0.954c0.001,0.281,0.008,0.561-0.001,0.84
		C101.134,116.766,100.436,117.475,99.503,117.487z"/>
	<path class="white-fill" d="M97.776,124.78c-1.293,0-2.536,0-3.83,0c0,3.025,0,6.018,0,9.011c1.277,0,2.554,0,3.83,0
		C97.776,130.798,97.776,127.806,97.776,124.78z"/>
	<path class="white-fill" d="M95.866,101.225c-1.076-0.002-1.923,0.843-1.924,1.917c-0.001,1.067,0.858,1.929,1.92,1.929
		c1.067,0,1.923-0.856,1.924-1.924C97.787,102.076,96.937,101.227,95.866,101.225z"/>
	<polygon class="white-fill" points="94.832,139.739 91.057,139.739 88.214,144.752 87.239,146.399 87.239,139.739 84.155,139.739
		84.155,155.01 87.239,155.01 87.239,150.647 88.455,149.116 91.245,155.01 94.906,155.01 90.459,146.451 	"/>
	<rect x="94.381" y="147.228" class="white-fill" width="5.128" height="2.475"/>
	<path class="white-fill" d="M105.698,152.545l1.961-2.8c1.09-1.294,1.844-2.383,2.26-3.267c0.416-0.885,0.624-1.757,0.624-2.617
		c0-1.385-0.375-2.452-1.127-3.204s-1.809-1.128-3.173-1.128c-0.888,0-1.683,0.215-2.386,0.645s-1.249,1.033-1.637,1.809
		c-0.387,0.776-0.582,1.632-0.582,2.569h2.979c0-0.811,0.142-1.44,0.424-1.888c0.284-0.447,0.666-0.671,1.148-0.671
		c0.441,0,0.779,0.192,1.012,0.577c0.234,0.386,0.351,0.917,0.351,1.595c0,0.503-0.124,1.029-0.372,1.578s-0.635,1.186-1.16,1.914
		l-4.132,5.254v2.097h8.999v-2.465h-5.189V152.545z"/>
</g>
<path class="white-fill" d="M212.178,196.705l-10.983,19.951c0,0,0,0.001-0.001,0.001c-0.06,0.109-0.13,0.214-0.205,0.317
	c-0.019,0.026-0.039,0.051-0.059,0.076c-0.058,0.073-0.12,0.143-0.185,0.211c-0.023,0.024-0.045,0.049-0.069,0.072
	c-0.006,0.006-0.012,0.013-0.018,0.019c-0.079,0.076-0.162,0.144-0.248,0.209c-0.024,0.018-0.049,0.033-0.073,0.05
	c-0.077,0.054-0.155,0.105-0.236,0.15c-0.029,0.017-0.058,0.032-0.087,0.048c-0.091,0.048-0.184,0.091-0.279,0.128
	c-0.016,0.006-0.031,0.013-0.046,0.019c-0.113,0.042-0.228,0.076-0.345,0.103c-0.025,0.006-0.049,0.01-0.074,0.014
	c-0.092,0.019-0.184,0.033-0.277,0.043c-0.035,0.004-0.07,0.008-0.106,0.01c-0.107,0.007-0.213,0.01-0.32,0.005
	c-0.01-0.001-0.02,0.001-0.031,0.001c-0.028-0.002-0.055-0.007-0.083-0.009c-0.066-0.005-0.132-0.011-0.198-0.021
	c-0.04-0.006-0.08-0.016-0.12-0.023c-0.058-0.011-0.115-0.024-0.172-0.039c-0.038-0.01-0.075-0.021-0.112-0.033
	c-0.063-0.019-0.124-0.041-0.186-0.064c-0.031-0.012-0.061-0.023-0.091-0.036c-0.075-0.032-0.148-0.067-0.22-0.105
	c-0.013-0.007-0.028-0.012-0.041-0.02c-0.004-0.003-0.009-0.005-0.013-0.008c-0.062-0.034-0.122-0.072-0.181-0.112
	c-0.021-0.014-0.043-0.027-0.064-0.041c-0.043-0.03-0.084-0.063-0.125-0.096c-0.035-0.027-0.071-0.053-0.105-0.082
	c-0.014-0.012-0.028-0.027-0.042-0.04c-0.057-0.051-0.113-0.103-0.166-0.159l-6.419-6.768c-1.086-1.145-1.038-2.954,0.107-4.04
	c1.146-1.085,2.954-1.038,4.04,0.107l3.727,3.931l9.098-16.526c0.761-1.383,2.5-1.886,3.881-1.125
	C212.436,193.584,212.939,195.322,212.178,196.705z"/>
</svg>
