<svg version="1.1" xmlns="http://www.w3.org/2000/svg" xmlns:xlink="http://www.w3.org/1999/xlink" viewBox="0 0 400 400">
	<g ng-click="gradesk2Selected()" ng-mouseover="showk2Popover=true;" ng-mouseleave="showk2Popover=false;">
		<path class="white-fill" d="M185.146,19.76c-0.308,0-0.618,0.014-0.927,0.041c-42.804,3.819-82.854,23.027-112.773,54.086 c-30.002,31.145-47.694,72.04-49.817,115.151c-0.14,2.851,0.894,5.635,2.863,7.703c1.968,2.068,4.698,3.238,7.553,3.238h93.031 c5.315,0,9.78-3.997,10.365-9.28c1.531-13.822,7.329-26.565,16.769-36.853c9.389-10.233,21.497-17.094,35.014-19.842 c4.859-0.988,8.351-5.261,8.351-10.219V30.188c0-2.927-1.23-5.719-3.39-7.694C190.254,20.728,187.74,19.76,185.146,19.76 L185.146,19.76z"/>
		<path class="grey-fill" d="M104.792,77.108c3.948,0,7.896,0,11.844,0c0.994,0.405,1.337,1.155,1.304,2.205
			c-0.05,1.611-0.005,3.224-0.011,4.836c-0.005,1.341-0.648,1.977-1.997,1.979c-2.769,0.003-5.539-0.001-8.308-0.003
			c-0.203,0-0.407,0-0.668,0c0,0.853-0.033,1.646,0.017,2.435c0.019,0.302,0.15,0.667,0.357,0.877c3.216,3.249,6.44,6.489,9.694,9.7
			c0.643,0.635,0.918,1.309,0.916,2.211c-0.021,10.622-0.023,21.244,0.001,31.865c0.002,1.051-0.315,1.797-1.305,2.203
			c-2.012,0-4.024,0-6.036,0c0.003-3.605,0.011-7.21,0.004-10.815c-0.002-1.023-0.692-1.722-1.715-1.73
			c-2.429-0.017-4.857-0.019-7.286-0.004c-1.019,0.006-1.711,0.713-1.712,1.734c-0.007,3.605,0.002,7.21,0.004,10.815
			c-2.012,0-4.024,0-6.036,0c-0.99-0.407-1.307-1.155-1.305-2.205c0.023-10.66,0.02-21.319,0.003-31.979
			c-0.001-0.819,0.254-1.438,0.836-2.015c3.276-3.242,6.531-6.506,9.775-9.779c0.198-0.199,0.35-0.544,0.352-0.823
			c0.026-3.091,0.047-6.184,0.001-9.275C103.507,78.295,103.838,77.552,104.792,77.108z M110.606,104.423
			c-0.004-2.957-2.395-5.344-5.355-5.347c-2.956-0.002-5.356,2.387-5.363,5.339c-0.007,2.979,2.406,5.39,5.384,5.379
			C108.224,109.785,110.61,107.381,110.606,104.423z M99.887,116.335c0,0.303-0.008,0.606,0.001,0.908
			c0.03,0.951,0.722,1.663,1.637,1.692c0.938,0.029,1.712-0.662,1.766-1.628c0.036-0.66,0.037-1.325-0.002-1.985
			c-0.055-0.929-0.838-1.64-1.725-1.622c-0.927,0.019-1.649,0.761-1.676,1.728C99.88,115.729,99.887,116.032,99.887,116.335z
			 M110.607,116.376c0-0.321,0.009-0.643-0.002-0.964c-0.031-0.967-0.763-1.704-1.691-1.708c-0.894-0.004-1.657,0.706-1.708,1.639
			c-0.035,0.641-0.033,1.286-0.006,1.928c0.04,0.972,0.789,1.676,1.728,1.665c0.943-0.011,1.649-0.728,1.678-1.709
			C110.615,116.943,110.608,116.66,110.607,116.376z"/>
		<path class="grey-fill" d="M103.311,135.418c0-3.026,0-6.051,0-9.11c1.308,0,2.565,0,3.872,0c0,3.059,0,6.084,0,9.11
			C105.893,135.418,104.602,135.418,103.311,135.418z"/>
		<path class="grey-fill" d="M107.193,104.437c-0.002,1.08-0.867,1.945-1.946,1.945c-1.074,0-1.942-0.872-1.941-1.95
			c0.001-1.086,0.857-1.94,1.945-1.938C106.335,102.495,107.194,103.354,107.193,104.437z"/>
	</g>
	<g ng-click="grades35Selected()" ng-mouseover="show35Popover=true;" ng-mouseleave="show35Popover=false;">
		<path class="white-fill" d="M218.84,20.092c-2.556,0-5.038,0.94-6.961,2.664c-2.206,1.978-3.467,4.801-3.467,7.765v94.038 c0,4.779,3.249,8.947,7.883,10.113c26.257,6.608,45.901,29.124,48.881,56.028c0.585,5.283,5.05,9.28,10.365,9.28h93.031 c2.855,0,5.585-1.17,7.553-3.238c1.968-2.068,3.003-4.852,2.863-7.703c-2.093-42.492-19.367-82.95-48.642-113.922 c-29.155-30.845-68.352-50.364-110.37-54.963C219.596,20.113,219.217,20.092,218.84,20.092L218.84,20.092z"/>
		<path class="grey-fill" d="M285.192,79.22c3.662,0,7.324,0,10.986,0c0.922,0.375,1.24,1.071,1.21,2.045
			c-0.046,1.494-0.005,2.99-0.01,4.486c-0.005,1.244-0.601,1.834-1.853,1.835c-2.569,0.002-5.137-0.001-7.706-0.002
			c-0.189,0-0.377,0-0.62,0c0,0.791-0.03,1.527,0.015,2.258c0.018,0.28,0.139,0.619,0.331,0.814
			c2.983,3.013,5.974,6.019,8.992,8.997c0.597,0.589,0.852,1.214,0.85,2.051c-0.019,9.852-0.021,19.704,0.001,29.556
			c0.002,0.975-0.292,1.667-1.211,2.044c-1.866,0-3.732,0-5.599,0c0.002-3.344,0.011-6.688,0.004-10.031
			c-0.002-0.948-0.641-1.598-1.591-1.604c-2.253-0.016-4.505-0.018-6.758-0.004c-0.946,0.006-1.587,0.661-1.588,1.608
			c-0.006,3.344,0.002,6.688,0.004,10.031c-1.866,0-3.732,0-5.599,0c-0.918-0.378-1.212-1.072-1.21-2.045
			c0.021-9.887,0.018-19.774,0.003-29.662c-0.001-0.76,0.235-1.334,0.776-1.869c3.039-3.007,6.057-6.034,9.067-9.07
			c0.183-0.185,0.324-0.505,0.326-0.763c0.024-2.867,0.044-5.736,0.001-8.603C284.001,80.321,284.308,79.632,285.192,79.22z
			 M290.585,104.556c-0.004-2.743-2.221-4.957-4.967-4.959c-2.742-0.002-4.968,2.214-4.974,4.952
			c-0.006,2.763,2.232,4.999,4.994,4.99C288.376,109.529,290.589,107.299,290.585,104.556z M280.643,115.604
			c0,0.281-0.007,0.562,0.001,0.842c0.028,0.882,0.67,1.543,1.518,1.569c0.87,0.027,1.588-0.614,1.638-1.51
			c0.034-0.612,0.034-1.229-0.002-1.841c-0.051-0.862-0.777-1.521-1.6-1.505c-0.86,0.018-1.53,0.706-1.554,1.602
			C280.637,115.042,280.643,115.323,280.643,115.604z M290.586,115.642c0-0.298,0.008-0.597-0.001-0.895
			c-0.028-0.897-0.708-1.58-1.568-1.584c-0.829-0.004-1.537,0.655-1.585,1.52c-0.033,0.595-0.03,1.193-0.006,1.789
			c0.037,0.901,0.732,1.555,1.603,1.544c0.874-0.011,1.53-0.675,1.556-1.585C290.593,116.169,290.587,115.905,290.586,115.642z"/>
		<path class="grey-fill" d="M300.298,133.304c0.082-0.695,0.233-1.389,0.236-2.084c0.019-5.928,0.011-11.856,0.011-17.783
			c0-0.225,0-0.449,0-0.701c3.485,0,6.909,0,10.419,0c0,0.197,0,0.399,0,0.601c0,5.945-0.015,11.891,0.015,17.836
			c0.005,0.98-0.269,1.702-1.173,2.131C306.636,133.304,303.467,133.304,300.298,133.304z M304.188,118.734
			c0,0.333-0.018,0.668,0.004,0.999c0.052,0.775,0.658,1.383,1.417,1.445c0.788,0.065,1.546-0.39,1.643-1.158
			c0.104-0.824,0.1-1.681,0.002-2.507c-0.087-0.736-0.866-1.235-1.585-1.183c-0.791,0.058-1.421,0.67-1.476,1.456
			C304.17,118.101,304.189,118.418,304.188,118.734z M304.188,127.237c-0.002,0-0.003,0-0.005,0c0,0.298-0.011,0.597,0.002,0.894
			c0.037,0.855,0.657,1.498,1.489,1.555c0.776,0.054,1.54-0.519,1.623-1.342c0.074-0.744,0.075-1.51-0.017-2.251
			c-0.103-0.83-0.839-1.32-1.675-1.252c-0.776,0.063-1.374,0.692-1.415,1.501C304.176,126.64,304.188,126.939,304.188,127.237z"/>
		<path class="grey-fill" d="M261.425,133.304c-0.903-0.428-1.18-1.148-1.175-2.13c0.03-5.929,0.015-11.857,0.015-17.786
			c0-0.207,0-0.415,0-0.651c3.486,0,6.923,0,10.421,0c0,0.231,0,0.437,0,0.644c0.001,5.964-0.005,11.928,0.015,17.892
			c0.002,0.677,0.151,1.354,0.232,2.031C267.763,133.304,264.594,133.304,261.425,133.304z M267.042,118.777
			c-0.001,0-0.001,0-0.002,0c0-0.334,0.021-0.67-0.004-1.003c-0.06-0.789-0.704-1.397-1.498-1.44
			c-0.73-0.039-1.484,0.47-1.569,1.212c-0.091,0.796-0.101,1.619-0.008,2.414c0.094,0.8,0.85,1.284,1.659,1.218
			c0.767-0.063,1.365-0.666,1.419-1.451C267.06,119.412,267.042,119.094,267.042,118.777z M267.041,127.273
			c0-0.333,0.02-0.668-0.004-0.999c-0.056-0.772-0.672-1.381-1.427-1.437c-0.786-0.058-1.543,0.403-1.635,1.169
			c-0.1,0.825-0.093,1.681,0.007,2.506c0.088,0.731,0.88,1.233,1.591,1.174c0.795-0.067,1.41-0.673,1.465-1.466
			C267.06,127.905,267.042,127.588,267.041,127.273z"/>
		<path class="grey-fill" d="M312.657,108.375c-0.404,0.895-1.095,1.197-2.069,1.184c-3.131-0.041-6.263-0.015-9.395-0.015
			c-0.192,0-0.384,0-0.625,0c-0.096-3.312,0.094-6.597-0.123-9.92c0.016-0.002,0.145-0.028,0.274-0.028
			c1.144-0.003,2.287,0.007,3.431-0.005c0.525-0.006,0.962,0.164,1.329,0.531c2.214,2.215,4.432,4.426,6.639,6.649
			c0.216,0.217,0.361,0.505,0.539,0.759C312.657,107.811,312.657,108.093,312.657,108.375z"/>
		<path class="grey-fill" d="M258.573,107.53c0.328-0.404,0.624-0.839,0.989-1.207c1.992-2.014,4.008-4.003,5.998-6.019
			c0.49-0.497,1.028-0.739,1.732-0.719c1.193,0.033,2.388,0.009,3.51,0.009c-0.241,3.311-0.04,6.593-0.137,9.921
			c-0.203,0.009-0.389,0.025-0.574,0.025c-3.149,0.002-6.298-0.025-9.447,0.016c-0.973,0.013-1.666-0.284-2.07-1.181
			C258.573,108.093,258.573,107.811,258.573,107.53z"/>
		<path class="grey-fill" d="M283.819,133.304c0-2.806,0-5.613,0-8.45c1.213,0,2.379,0,3.592,0c0,2.837,0,5.643,0,8.45
			C286.214,133.304,285.016,133.304,283.819,133.304z"/>
		<path class="grey-fill" d="M287.419,104.568c-0.001,1.002-0.804,1.804-1.805,1.804c-0.996,0-1.801-0.808-1.801-1.808
			c0.001-1.008,0.795-1.799,1.804-1.798C286.623,102.767,287.421,103.564,287.419,104.568z"/>
	</g>
	<g ng-click="grades68Selected()" ng-mouseover="show68Popover=true;" ng-mouseleave="show68Popover=false;">
		<path class="white-fill" d="M366.895,223.246h0.006 M366.9,212.818h-0.006h-95.213c-4.417,0-8.355,2.783-9.83,6.947 c-7.314,20.657-24.345,36.176-45.556,41.514c-4.635,1.166-7.883,5.334-7.883,10.113v94.038c0,2.963,1.261,5.786,3.467,7.764 c1.922,1.724,4.405,2.664,6.961,2.664c0.377,0,0.756-0.021,1.135-0.062c80.424-8.801,145.017-70.74,157.184-150.684 c0.109-0.605,0.167-1.229,0.167-1.866C377.326,217.487,372.66,212.818,366.9,212.818L366.9,212.818z M366.895,233.674h0.006 H366.895L366.895,233.674z"/>
		<path class="grey-fill" d="M279.7,304.241c-5.954,0-11.908,0-17.862,0c-0.545-0.174-0.912-0.526-1.078-1.078c0-6.695,0-13.391,0-20.086
			c0.122,0.011,0.244,0.032,0.366,0.032c3.471,0.002,6.942-0.004,10.413,0.008c0.527,0.002,0.92-0.187,1.266-0.572
			c3.12-3.478,6.246-6.951,9.376-10.42c0.178-0.197,0.253-0.393,0.253-0.66c-0.007-3.842,0.009-7.684-0.016-11.525
			c-0.006-0.839,0.251-1.432,1.058-1.734c2.674,0,5.347,0,8.021,0c0.733,0.42,0.844,0.845,0.409,1.574
			c-0.316,0.53-0.628,1.063-0.955,1.585c-0.098,0.156-0.095,0.27,0.001,0.424c0.338,0.543,0.656,1.098,0.992,1.642
			c0.216,0.349,0.307,0.698,0.084,1.074c-0.215,0.363-0.554,0.446-0.951,0.445c-1.853-0.008-3.706-0.003-5.559-0.003
			c-0.12,0-0.241,0-0.355,0c-0.017,0.071-0.031,0.103-0.031,0.135c-0.002,2.201-0.006,4.402,0.002,6.603
			c0,0.118,0.075,0.258,0.157,0.35c3.117,3.508,6.241,7.011,9.359,10.519c0.345,0.388,0.745,0.566,1.269,0.564
			c3.492-0.012,6.985-0.006,10.477-0.007c0.133,0,0.266-0.021,0.399-0.032c0,6.695,0,13.391,0,20.086
			c-0.173,0.546-0.54,0.898-1.078,1.078c-5.977,0-11.953,0-17.93,0c-0.003-0.135-0.009-0.269-0.009-0.404
			c-0.001-2.74,0.001-5.481-0.002-8.221c-0.001-0.994-0.555-1.542-1.545-1.542c-1.685,0-3.369-0.001-5.054,0
			c-0.943,0.001-1.491,0.543-1.492,1.475c-0.001,1.482-0.002,2.965,0,4.447C279.689,301.411,279.695,302.826,279.7,304.241z
			 M279.733,279.797c0.051,2.316,1.87,4.066,4.174,4.017c2.144-0.046,3.955-1.92,3.911-4.047c-0.048-2.315-1.869-4.081-4.161-4.036
			C281.492,275.774,279.686,277.646,279.733,279.797z M298.237,296.308c0.001,0,0.002,0,0.004,0c0,0.336-0.016,0.674,0.003,1.009
			c0.039,0.698,0.604,1.239,1.294,1.261c0.698,0.022,1.344-0.51,1.382-1.202c0.037-0.682,0.037-1.369-0.001-2.051
			c-0.04-0.73-0.678-1.281-1.374-1.251c-0.739,0.033-1.298,0.612-1.307,1.359C298.234,295.725,298.237,296.017,298.237,296.308z
			 M292.844,296.326c0.001,0,0.001,0,0.002,0c0,0.325-0.012,0.651,0.003,0.976c0.032,0.709,0.61,1.264,1.312,1.277
			c0.7,0.012,1.331-0.523,1.367-1.22c0.035-0.671,0.034-1.347-0.001-2.018c-0.039-0.735-0.66-1.286-1.361-1.267
			c-0.75,0.021-1.315,0.608-1.322,1.377C292.842,295.743,292.844,296.034,292.844,296.326z M266.285,296.313
			c0,0.314-0.007,0.628,0.001,0.942c0.018,0.724,0.558,1.284,1.267,1.323c0.707,0.039,1.367-0.492,1.411-1.207
			c0.042-0.681,0.042-1.37-0.002-2.051c-0.048-0.74-0.684-1.28-1.378-1.246c-0.756,0.037-1.295,0.617-1.299,1.398
			C266.283,295.753,266.284,296.033,266.285,296.313z M271.679,296.325c0,0.314-0.008,0.628,0.002,0.942
			c0.022,0.718,0.573,1.279,1.279,1.311c0.71,0.032,1.362-0.507,1.401-1.219c0.037-0.671,0.036-1.347,0-2.018
			c-0.04-0.738-0.66-1.287-1.36-1.268c-0.751,0.02-1.315,0.606-1.322,1.376C271.676,295.742,271.679,296.034,271.679,296.325z
			 M298.237,289.116c0.001,0,0.003,0,0.004,0c0,0.336-0.016,0.673,0.003,1.009c0.04,0.7,0.606,1.236,1.297,1.252
			c0.712,0.016,1.341-0.502,1.379-1.199c0.037-0.682,0.036-1.369-0.001-2.05c-0.04-0.732-0.669-1.271-1.377-1.242
			c-0.74,0.03-1.296,0.607-1.304,1.356C298.234,288.533,298.237,288.825,298.237,289.116z M295.539,289.144
			c-0.001,0-0.003,0-0.004,0c0-0.325,0.018-0.651-0.004-0.975c-0.05-0.754-0.654-1.308-1.376-1.284
			c-0.753,0.025-1.308,0.608-1.311,1.381c-0.003,0.594-0.009,1.188,0.002,1.782c0.014,0.756,0.587,1.322,1.324,1.328
			c0.754,0.006,1.346-0.564,1.367-1.325C295.546,289.75,295.539,289.447,295.539,289.144z M271.678,289.107c0,0,0.001,0,0.001,0
			c0,0.325-0.009,0.65,0.002,0.975c0.024,0.719,0.582,1.274,1.289,1.295c0.725,0.021,1.356-0.507,1.392-1.223
			c0.034-0.671,0.037-1.346-0.003-2.017c-0.045-0.756-0.685-1.296-1.402-1.25c-0.743,0.047-1.272,0.617-1.278,1.38
			C271.677,288.547,271.678,288.827,271.678,289.107z M266.285,289.117c0,0.314-0.006,0.628,0.001,0.942
			c0.018,0.726,0.559,1.286,1.265,1.318c0.724,0.033,1.367-0.481,1.412-1.2c0.043-0.681,0.043-1.369-0.002-2.05
			c-0.049-0.746-0.668-1.27-1.377-1.241c-0.754,0.031-1.295,0.609-1.301,1.391C266.283,288.557,266.284,288.837,266.285,289.117z
			 M282.342,289.168c-0.002,0-0.004,0-0.006,0c0-0.369,0.029-0.742-0.006-1.108c-0.065-0.676-0.621-1.161-1.296-1.175
			c-0.68-0.014-1.3,0.479-1.344,1.157c-0.047,0.725-0.042,1.457,0.005,2.182c0.044,0.676,0.628,1.151,1.306,1.152
			c0.69,0.001,1.271-0.492,1.335-1.168C282.369,289.865,282.342,289.515,282.342,289.168z M287.871,289.176
			c-0.003,0-0.006,0-0.009,0c0-0.38,0.033-0.764-0.007-1.141c-0.073-0.682-0.673-1.173-1.35-1.15
			c-0.688,0.024-1.266,0.536-1.297,1.214c-0.031,0.693-0.031,1.391,0.008,2.083c0.039,0.693,0.616,1.19,1.305,1.194
			c0.693,0.004,1.27-0.477,1.342-1.16C287.901,289.874,287.871,289.523,287.871,289.176z"/>
		<path class="grey-fill" d="M282.396,304.241c-0.003-2.444-0.006-4.888-0.008-7.332c0-0.032,0.015-0.064,0.029-0.116
			c0.868,0,1.737,0,2.676,0c0,2.482,0,4.965,0,7.449C284.193,304.241,283.295,304.241,282.396,304.241z"/>
		<path class="grey-fill" d="M279.723,270.808c-1.253,1.393-2.446,2.721-3.64,4.048c-1.593,1.77-3.183,3.542-4.785,5.304
			c-0.113,0.124-0.311,0.242-0.47,0.243c-3.168,0.014-6.336,0.011-9.503,0.01c-0.086,0-0.172-0.014-0.288-0.025
			c0.231-1.118,0.455-2.214,0.684-3.309c0.351-1.68,0.706-3.359,1.055-5.039c0.175-0.842,0.644-1.232,1.504-1.232
			c5.021-0.001,10.043,0,15.064,0C279.443,270.808,279.541,270.808,279.723,270.808z"/>
		<path class="grey-fill" d="M306.514,280.414c-0.163,0-0.285,0-0.408,0c-3.123,0-6.246-0.003-9.368,0.005
			c-0.259,0.001-0.432-0.076-0.605-0.27c-2.694-3.03-5.396-6.053-8.096-9.078c-0.058-0.065-0.11-0.137-0.193-0.241
			c0.128-0.009,0.222-0.022,0.315-0.022c5.044-0.001,10.087-0.001,15.131,0c0.802,0,1.313,0.391,1.473,1.152
			c0.578,2.755,1.147,5.512,1.72,8.269C306.492,280.271,306.497,280.314,306.514,280.414z"/>
		<path class="grey-fill" d="M283.783,281.121c-0.747,0.002-1.348-0.591-1.353-1.337c-0.005-0.733,0.608-1.354,1.341-1.358
			c0.731-0.004,1.351,0.612,1.354,1.346C285.128,280.514,284.526,281.119,283.783,281.121z"/>
	</g>
	<g ng-click="grades912Selected()" ng-mouseover="show912Popover=true;" ng-mouseleave="show912Popover=false;">
		<path class="white-fill" d="M128.934,212.818H33.721c-3.037,0-5.922,1.324-7.903,3.625s-2.861,5.352-2.409,8.355 c5.9,39.217,25.106,75.886,54.08,103.25c14.343,13.546,30.681,24.555,48.56,32.722c18.396,8.403,37.967,13.577,58.169,15.38 c0.31,0.028,0.619,0.041,0.927,0.041c2.594,0,5.108-0.968,7.038-2.734c2.16-1.976,3.39-4.768,3.39-7.694v-93.598 c0-4.958-3.492-9.231-8.351-10.219c-22.281-4.53-40.85-20.692-48.459-42.18C137.29,215.601,133.352,212.818,128.934,212.818 L128.934,212.818z"/>
		<path class="grey-fill" d="M132.172,286.683c-0.525,0.002-0.925-0.176-1.269-0.564c-3.117-3.508-6.242-7.011-9.359-10.519 c-0.082-0.092-0.156-0.232-0.157-0.35c-0.008-2.201-0.004-4.402-0.002-6.603c0-0.032,0.014-0.064,0.031-0.135 c0.114,0,0.234,0,0.355,0c1.853,0,3.706-0.004,5.559,0.003c0.397,0.002,0.736-0.081,0.951-0.445 c0.223-0.376,0.131-0.726-0.084-1.074c-0.336-0.544-0.654-1.099-0.992-1.642c-0.096-0.154-0.099-0.268-0.001-0.424 c0.327-0.523,0.639-1.056,0.955-1.585c0.435-0.728,0.324-1.154-0.409-1.574c-2.674,0-5.347,0-8.021,0
	c-0.807,0.302-1.064,0.894-1.058,1.734c0.026,3.842,0.009,7.684,0.016,11.525c0.001,0.266-0.075,0.462-0.253,0.66
	c-3.13,3.469-6.256,6.942-9.376,10.42c-0.345,0.385-0.739,0.574-1.266,0.572c-3.471-0.012-6.942-0.006-10.413-0.008
	c-0.122,0-0.244-0.021-0.366-0.032c0,6.695,0,13.391,0,20.086c0.166,0.553,0.533,0.905,1.078,1.078c5.954,0,11.908,0,17.862,0
	c-0.004-1.415-0.011-2.83-0.013-4.244c-0.002-1.482-0.001-2.965,0-4.447c0.001-0.932,0.549-1.474,1.492-1.475
	c1.685-0.001,3.369-0.001,5.054,0c0.99,0,1.544,0.548,1.545,1.542c0.003,2.74,0.001,5.481,0.002,8.221
	c0,0.135,0.006,0.269,0.009,0.404c5.977,0,11.953,0,17.93,0c0.538-0.181,0.906-0.532,1.078-1.078c0-6.695,0-13.391,0-20.086
	c-0.133,0.011-0.266,0.032-0.399,0.032C139.157,286.678,135.665,286.672,132.172,286.683z M105.217,300.94
	c-0.044,0.715-0.704,1.246-1.411,1.207c-0.709-0.039-1.248-0.598-1.267-1.323c-0.008-0.314-0.001-0.628-0.001-0.942
	c-0.001-0.28-0.002-0.561-0.001-0.841c0.004-0.781,0.544-1.361,1.299-1.398c0.694-0.034,1.33,0.506,1.378,1.246
	C105.259,299.57,105.259,300.258,105.217,300.94z M105.216,293.745c-0.045,0.719-0.688,1.233-1.412,1.2
	c-0.706-0.032-1.247-0.592-1.265-1.318c-0.008-0.314-0.001-0.628-0.001-0.942c-0.001-0.28-0.003-0.56-0.001-0.841
	c0.005-0.782,0.547-1.36,1.301-1.391c0.709-0.029,1.328,0.495,1.377,1.241C105.259,292.376,105.259,293.064,105.216,293.745z
	 M110.613,300.928c-0.039,0.712-0.691,1.25-1.401,1.219c-0.705-0.031-1.257-0.592-1.279-1.311c-0.01-0.314-0.002-0.628-0.002-0.942
	c-0.001-0.292-0.003-0.583,0-0.875c0.007-0.77,0.57-1.356,1.322-1.376c0.7-0.019,1.32,0.53,1.36,1.268
	C110.649,299.581,110.65,300.257,110.613,300.928z M110.615,293.722c-0.036,0.717-0.668,1.245-1.392,1.223
	c-0.707-0.021-1.265-0.576-1.289-1.295c-0.011-0.325-0.002-0.65-0.002-0.975c0,0-0.001,0-0.001,0c0-0.28-0.002-0.561,0-0.841
	c0.006-0.762,0.534-1.332,1.278-1.38c0.718-0.046,1.357,0.494,1.402,1.25C110.652,292.375,110.649,293.051,110.615,293.722z
	 M118.588,293.777c-0.064,0.677-0.645,1.169-1.335,1.168c-0.678-0.001-1.262-0.476-1.306-1.152
	c-0.048-0.725-0.052-1.458-0.005-2.182c0.044-0.678,0.665-1.171,1.344-1.157c0.675,0.014,1.231,0.499,1.296,1.175
	c0.035,0.366,0.006,0.738,0.006,1.108c0.002,0,0.004,0,0.006,0C118.594,293.083,118.621,293.433,118.588,293.777z M115.986,283.366
	c-0.047-2.151,1.759-4.023,3.923-4.066c2.292-0.045,4.113,1.721,4.161,4.036c0.044,2.127-1.767,4.001-3.911,4.047
	C117.856,287.432,116.037,285.681,115.986,283.366z M124.117,293.785c-0.073,0.683-0.649,1.164-1.342,1.16
	c-0.689-0.004-1.266-0.501-1.305-1.194c-0.039-0.693-0.039-1.39-0.008-2.083c0.031-0.678,0.609-1.19,1.297-1.214
	c0.677-0.023,1.277,0.467,1.35,1.15c0.04,0.376,0.007,0.76,0.007,1.141c0.003,0,0.006,0,0.009,0
	C124.123,293.092,124.153,293.442,124.117,293.785z M129.097,291.835c0.004-0.774,0.559-1.356,1.311-1.381
	c0.723-0.024,1.326,0.53,1.376,1.284c0.022,0.324,0.004,0.65,0.004,0.975c0.001,0,0.003,0,0.004,0c0,0.303,0.007,0.605-0.001,0.908
	c-0.021,0.761-0.613,1.331-1.367,1.325c-0.738-0.006-1.31-0.572-1.324-1.328C129.088,293.024,129.094,292.429,129.097,291.835z
	 M131.78,300.927c-0.036,0.697-0.667,1.232-1.367,1.22c-0.702-0.012-1.28-0.568-1.312-1.277c-0.015-0.325-0.003-0.65-0.003-0.976
	c-0.001,0-0.001,0-0.002,0c0-0.292-0.002-0.583,0-0.875c0.007-0.769,0.571-1.357,1.322-1.377c0.7-0.019,1.322,0.532,1.361,1.267
	C131.814,299.58,131.814,300.256,131.78,300.927z M134.489,292.685c0-0.291-0.003-0.583,0.001-0.874
	c0.009-0.75,0.565-1.326,1.304-1.356c0.708-0.029,1.337,0.509,1.377,1.242c0.037,0.682,0.038,1.368,0.001,2.05
	c-0.037,0.698-0.667,1.216-1.379,1.199c-0.691-0.016-1.257-0.552-1.297-1.252c-0.019-0.335-0.003-0.672-0.003-1.009
	C134.492,292.685,134.49,292.685,134.489,292.685z M137.172,300.945c-0.038,0.692-0.684,1.224-1.382,1.202
	c-0.69-0.022-1.255-0.563-1.294-1.261c-0.019-0.335-0.003-0.673-0.003-1.009c-0.001,0-0.002,0-0.004,0
	c0-0.292-0.003-0.583,0.001-0.875c0.01-0.747,0.569-1.326,1.307-1.359c0.696-0.031,1.334,0.521,1.374,1.251
	C137.208,299.575,137.209,300.263,137.172,300.945z"/>
		<path class="grey-fill" d="M118.64,300.477c0.002,2.444,0.005,4.888,0.008,7.332c0.899,0,1.797,0,2.696,0c0-2.483,0-4.966,0-7.449
	c-0.938,0-1.808,0-2.676,0C118.656,300.413,118.64,300.445,118.64,300.477z"/>
		<path class="grey-fill" d="M107.081,283.971c0.159-0.001,0.357-0.119,0.47-0.243c1.602-1.762,3.192-3.534,4.785-5.304
	c1.194-1.327,2.387-2.655,3.64-4.048c-0.183,0-0.281,0-0.379,0c-5.021,0-10.043,0-15.064,0c-0.86,0-1.329,0.39-1.504,1.232
	c-0.35,1.68-0.705,3.359-1.055,5.039c-0.228,1.095-0.453,2.191-0.684,3.309c0.116,0.01,0.202,0.025,0.288,0.025
	C100.746,283.982,103.914,283.985,107.081,283.971z"/>
		<path class="grey-fill" d="M124.097,274.399c0.083,0.104,0.135,0.175,0.193,0.241c2.7,3.025,5.402,6.048,8.096,9.078
	c0.173,0.194,0.346,0.27,0.605,0.27c3.123-0.008,6.246-0.005,9.368-0.005c0.122,0,0.244,0,0.408,0
	c-0.017-0.1-0.031-0.184-0.031-0.184c0.089-0.088-3.305-8.355-3.328-8.269c-0.16-0.761-0.67-1.152-1.473-1.152
	c-5.044-0.001-8.479-0.001-13.523,0C124.319,274.377,124.225,274.39,124.097,274.399z"/>
		<path class="grey-fill" d="M120.024,281.994c-0.733,0.004-1.347,0.625-1.341,1.358c0.005,0.746,0.606,1.339,1.353,1.337
	c0.743-0.002,1.344-0.607,1.342-1.349C121.375,282.607,120.755,281.99,120.024,281.994z"/>
		<path class="grey-fill" d="M153.99,287.141c0-0.169,0-0.339,0-0.504c-2.943,0-5.814,0-8.735,0c0,0.211,0,0.4,0,0.588
	c0,4.97,0.007,13.928-0.009,18.898c-0.002,0.583-0.129,1.165-0.197,1.747c2.657,0,5.314,0,7.971,0
	c0.758-0.359,0.987-0.965,0.983-1.787C153.977,301.099,153.99,292.126,153.99,287.141z M148.313,291.644
	c0.046-0.659,0.575-1.172,1.238-1.221c0.603-0.044,1.256,0.374,1.329,0.992c0.082,0.692,0.086,1.41-0.002,2.102
	c-0.081,0.643-0.717,1.025-1.377,0.971c-0.637-0.052-1.145-0.562-1.188-1.211c-0.019-0.278-0.003-0.559-0.003-0.838
	C148.31,292.173,148.294,291.907,148.313,291.644z M150.916,300.495c-0.069,0.69-0.71,1.17-1.36,1.125
	c-0.698-0.048-1.217-0.587-1.248-1.304c-0.011-0.25-0.002-0.5-0.002-0.75c0.001,0,0.003,0,0.004,0c0-0.25-0.01-0.5,0.002-0.75
	c0.034-0.679,0.535-1.206,1.186-1.259c0.701-0.057,1.318,0.354,1.404,1.049C150.979,299.229,150.978,299.871,150.916,300.495z"/>
		<path class="grey-fill" d="M154.958,282.821c-1.85-0.918-3.709-2.425-5.566-3.34c-0.308-0.152-0.675-0.222-1.115-0.219
	c-0.959,0.005-4.826,0.002-5.631,0.002c0.201,0.111,0.402,0.408,0.402,0.408l2.225,4.295c0,0,0.363,0,0.524,0
	c2.626,0,5.252-0.011,7.877,0.006c0.817,0.005,1.396-0.12,1.735-0.489c0-0.116,0-0.233,0-0.349
	C155.261,283.03,155.139,282.911,154.958,282.821z"/>
		<path class="grey-fill" d="M94.502,287.225c0-0.188,0-0.377,0-0.588c-2.922,0-5.793,0-8.735,0c0,0.165,0,0.335,0,0.504
	c0,4.985,0.012,13.958-0.012,18.943c-0.004,0.822,0.225,1.427,0.983,1.787c2.657,0,5.314,0,7.971,0
	c-0.069-0.582-0.196-1.164-0.197-1.747C94.495,301.153,94.502,292.195,94.502,287.225z M88.877,291.415
	c0.073-0.617,0.726-1.036,1.329-0.992c0.663,0.048,1.191,0.562,1.238,1.221c0.019,0.263,0.003,0.529,0.003,0.794
	c0,0.279,0.015,0.56-0.003,0.838c-0.043,0.649-0.552,1.159-1.188,1.211c-0.661,0.054-1.296-0.327-1.377-0.971
	C88.791,292.825,88.794,292.107,88.877,291.415z M91.449,300.316c-0.031,0.717-0.551,1.256-1.248,1.304
	c-0.651,0.045-1.291-0.435-1.36-1.125c-0.062-0.624-0.063-1.266,0.014-1.888c0.086-0.696,0.703-1.107,1.404-1.049
	c0.651,0.053,1.152,0.58,1.186,1.259c0.012,0.249,0.002,0.5,0.002,0.75c0.001,0,0.003,0,0.004,0
	C91.451,299.816,91.46,300.067,91.449,300.316z"/>
		<path class="grey-fill" d="M91.479,279.262c-0.44-0.002-0.807,0.068-1.115,0.219c-1.857,0.915-3.716,2.422-5.566,3.34
	c-0.181,0.09-0.303,0.208-0.452,0.314c0,0.116,0,0.233,0,0.349c0.339,0.369,0.918,0.494,1.735,0.489
	c2.625-0.017,5.251-0.006,7.877-0.006c0.161,0,0.524,0,0.524,0l1.622-4.295c0,0,0.201-0.297,0.402-0.408
	C95.703,279.264,92.438,279.267,91.479,279.262z"/>
	</g>

	<path ng-show="gradeSelected" class="grade-band-color" d="M200,140.174c-31.28,0-56.637,25.357-56.637,56.637S168.72,253.448,200,253.448s56.637-25.357,56.637-56.637 S231.28,140.174,200,140.174z M220.321,179.665l-20.485,37.211c0,0,0,0.001-0.001,0.001c-0.112,0.204-0.242,0.4-0.383,0.591 c-0.036,0.048-0.073,0.095-0.11,0.141c-0.108,0.136-0.223,0.267-0.345,0.393c-0.043,0.045-0.084,0.091-0.128,0.134 c-0.012,0.011-0.022,0.024-0.034,0.036c-0.148,0.141-0.303,0.269-0.463,0.389c-0.044,0.034-0.092,0.062-0.137,0.094 c-0.143,0.101-0.29,0.195-0.44,0.28c-0.054,0.031-0.108,0.06-0.163,0.089c-0.17,0.089-0.343,0.169-0.52,0.238 c-0.029,0.011-0.057,0.025-0.086,0.036c-0.211,0.078-0.425,0.142-0.643,0.193c-0.046,0.011-0.092,0.018-0.138,0.027 c-0.171,0.035-0.343,0.062-0.516,0.08c-0.066,0.007-0.131,0.014-0.198,0.019c-0.199,0.013-0.398,0.018-0.596,0.01 c-0.019-0.001-0.038,0.002-0.057,0.001c-0.052-0.003-0.103-0.013-0.155-0.017c-0.124-0.01-0.247-0.021-0.37-0.04 c-0.075-0.012-0.149-0.029-0.223-0.043c-0.108-0.021-0.215-0.044-0.321-0.072c-0.07-0.018-0.139-0.04-0.209-0.061 c-0.117-0.036-0.232-0.076-0.347-0.12c-0.057-0.022-0.113-0.043-0.17-0.067c-0.139-0.059-0.276-0.125-0.41-0.196 c-0.025-0.013-0.052-0.023-0.077-0.037c-0.008-0.005-0.016-0.01-0.024-0.015c-0.115-0.064-0.227-0.135-0.338-0.209 c-0.039-0.026-0.081-0.05-0.119-0.076c-0.08-0.056-0.156-0.118-0.233-0.179c-0.065-0.051-0.132-0.099-0.195-0.153 c-0.027-0.023-0.052-0.05-0.079-0.075c-0.107-0.096-0.211-0.193-0.309-0.296l-11.971-12.622c-2.026-2.136-1.936-5.509,0.2-7.535 c2.137-2.024,5.51-1.936,7.535,0.2l6.952,7.331l16.968-30.822c1.42-2.579,4.662-3.518,7.239-2.099 C220.801,173.845,221.74,177.086,220.321,179.665z"/>

	<text x="25" y="60" fill="#505051" font-weight="400" font-family="Roboto,Helvetica,Arial,san-serif" font-size="24px" ng-show="showk2Popover">Grades K-2</text>
	<text x="250" y="60" fill="#505051" font-weight="400" font-family="Roboto,Helvetica,Arial,san-serif" font-size="24px" ng-show="show35Popover">Grades 3-5</text>
	<text x="250" y="350" fill="#505051" font-weight="400" font-family="Roboto,Helvetica,Arial,san-serif" font-size="24px" ng-show="show68Popover">Grades 6-8</text>
	<text x="0" y="350" fill="#505051" font-weight="400" font-family="Roboto,Helvetica,Arial,san-serif" font-size="24px" ng-show="show912Popover">Grades 9-12</text>
</svg>
