<svg version="1.1" viewBox="0 0 400 400" style="position:absolute;top:0;z-index:5;display:none;">
<path class="grade-level-selected" d="M124.063,218.831H22.352c-3.244,0-6.326,1.415-8.442,3.873c-2.116,2.458-3.057,5.717-2.573,8.925
	c6.302,41.894,26.82,81.065,57.771,110.297c15.321,14.471,32.775,26.231,51.874,34.955c19.651,8.976,40.559,14.503,62.139,16.43
	c0.331,0.03,0.662,0.044,0.99,0.044c2.771,0,5.457-1.034,7.519-2.92c2.307-2.111,3.621-5.093,3.621-8.219v-99.987
	c0-5.297-3.73-9.861-8.921-10.916c-23.802-4.839-43.638-22.104-51.766-45.059C132.989,221.804,128.782,218.831,124.063,218.831
	L124.063,218.831z"/>
<g>
	<path class="grey-fill" d="M171.468,231.242c-1.379-1.379-3.615-1.379-4.994,0s-1.379,3.615,0,4.994s3.615,1.379,4.994,0
		C172.847,234.857,172.848,232.621,171.468,231.242z"/>
</g>
<g>
	<path class="white-fill" d="M124.859,286.761c-0.659,0.002-1.162-0.221-1.594-0.708c-3.914-4.406-7.839-8.805-11.754-13.211
		c-0.103-0.116-0.196-0.291-0.197-0.439c-0.01-2.764-0.005-5.528-0.002-8.293c0-0.041,0.018-0.08,0.039-0.17
		c0.144,0,0.294,0,0.446,0c2.327,0,4.655-0.005,6.981,0.004c0.499,0.002,0.924-0.102,1.194-0.559
		c0.28-0.473,0.164-0.912-0.105-1.349c-0.422-0.683-0.821-1.38-1.246-2.062c-0.121-0.194-0.124-0.336-0.001-0.533
		c0.41-0.657,0.803-1.326,1.199-1.99c0.547-0.914,0.407-1.449-0.513-1.977c-3.358,0-6.715,0-10.073,0
		c-1.014,0.379-1.337,1.122-1.328,2.178c0.032,4.825,0.011,9.651,0.02,14.474c0.001,0.334-0.095,0.58-0.318,0.829
		c-3.931,4.357-7.857,8.719-11.775,13.086c-0.433,0.483-0.929,0.72-1.59,0.718c-4.359-0.016-8.719-0.007-13.078-0.01
		c-0.153,0-0.306-0.026-0.46-0.041c0,8.409,0,16.817,0,25.226c0.208,0.694,0.669,1.137,1.353,1.353c7.478,0,14.955,0,22.433,0
		c-0.005-1.777-0.014-3.554-0.017-5.33c-0.002-1.861-0.001-3.724,0-5.585c0.001-1.17,0.689-1.851,1.874-1.852
		c2.116-0.001,4.231-0.001,6.347,0c1.243,0,1.939,0.688,1.941,1.936c0.004,3.441,0.001,6.883,0.002,10.324
		c0,0.17,0.007,0.337,0.011,0.507c7.506,0,15.012,0,22.518,0c0.676-0.227,1.138-0.668,1.353-1.353c0-8.409,0-16.817,0-25.226
		c-0.168,0.014-0.334,0.041-0.501,0.041C133.632,286.755,129.246,286.747,124.859,286.761z M89.274,291.495
		c0.89-0.036,1.668,0.622,1.729,1.558c0.056,0.858,0.056,1.722,0.002,2.578c-0.056,0.904-0.864,1.548-1.773,1.507
		c-0.887-0.041-1.566-0.743-1.589-1.655c-0.01-0.395-0.001-0.789-0.001-1.184c-0.001-0.352-0.004-0.704-0.001-1.057
		C87.647,292.26,88.328,291.535,89.274,291.495z M91.007,304.667c-0.055,0.897-0.884,1.565-1.772,1.516
		c-0.89-0.049-1.568-0.751-1.591-1.662c-0.01-0.395-0.001-0.789-0.001-1.183c-0.001-0.352-0.002-0.705-0.001-1.057
		c0.005-0.981,0.683-1.709,1.631-1.755c0.871-0.043,1.67,0.635,1.73,1.565C91.06,302.946,91.06,303.81,91.007,304.667z
		 M122.644,291.498c0.908-0.03,1.666,0.665,1.728,1.613c0.028,0.407,0.005,0.816,0.005,1.224c0.001,0,0.004,0,0.005,0
		c0,0.381,0.008,0.76-0.001,1.14c-0.026,0.956-0.769,1.672-1.717,1.664c-0.927-0.007-1.645-0.718-1.663-1.668
		c-0.014-0.747-0.006-1.495-0.002-2.24C121.003,292.26,121.7,291.529,122.644,291.498z M97.783,304.651
		c-0.049,0.894-0.868,1.57-1.759,1.53c-0.885-0.039-1.578-0.743-1.606-1.647c-0.012-0.395-0.002-0.789-0.002-1.183
		c-0.001-0.366-0.004-0.732,0-1.099c0.008-0.967,0.716-1.703,1.66-1.728c0.88-0.024,1.657,0.665,1.708,1.593
		C97.829,302.96,97.83,303.809,97.783,304.651z M97.786,295.602c-0.045,0.901-0.839,1.564-1.748,1.536
		c-0.888-0.026-1.589-0.724-1.619-1.626c-0.014-0.408-0.002-0.816-0.002-1.224h-0.001c0-0.352-0.002-0.705,0-1.057
		c0.007-0.957,0.67-1.673,1.605-1.733c0.902-0.057,1.704,0.62,1.76,1.57C97.832,293.91,97.829,294.758,97.786,295.602z
		 M107.799,295.67c-0.08,0.851-0.81,1.468-1.677,1.467c-0.852-0.001-1.586-0.598-1.641-1.447c-0.06-0.911-0.066-1.831-0.006-2.74
		c0.055-0.852,0.835-1.471,1.688-1.453c0.847,0.018,1.546,0.627,1.627,1.475c0.044,0.46,0.007,0.927,0.007,1.392
		c0.002,0,0.005,0,0.007,0C107.806,294.799,107.841,295.238,107.799,295.67z M104.531,282.596c-0.059-2.702,2.209-5.052,4.927-5.106
		c2.879-0.056,5.166,2.161,5.226,5.069c0.055,2.671-2.22,5.025-4.912,5.082C106.88,287.702,104.596,285.503,104.531,282.596z
		 M114.743,295.681c-0.092,0.858-0.815,1.462-1.685,1.456c-0.865-0.005-1.59-0.629-1.639-1.499s-0.049-1.746-0.01-2.616
		c0.039-0.852,0.765-1.495,1.629-1.525c0.851-0.029,1.603,0.586,1.696,1.444c0.05,0.473,0.008,0.955,0.008,1.434
		c0.004,0,0.007,0,0.011,0C114.75,294.81,114.789,295.25,114.743,295.681z M124.368,304.65c-0.045,0.876-0.838,1.547-1.717,1.532
		c-0.882-0.016-1.607-0.713-1.648-1.603c-0.019-0.408-0.004-0.816-0.004-1.225c-0.001,0-0.001,0-0.002,0
		c0-0.366-0.002-0.732,0-1.099c0.008-0.966,0.717-1.704,1.66-1.729c0.88-0.024,1.66,0.668,1.709,1.591
		C124.409,302.959,124.409,303.807,124.368,304.65z M131.139,304.673c-0.048,0.869-0.859,1.538-1.735,1.51
		c-0.866-0.028-1.576-0.707-1.625-1.583c-0.024-0.421-0.004-0.845-0.004-1.267c-0.001,0-0.002,0-0.005,0
		c0-0.366-0.004-0.732,0.001-1.099c0.012-0.938,0.714-1.666,1.642-1.706c0.873-0.039,1.675,0.655,1.726,1.571
		C131.184,302.952,131.186,303.817,131.139,304.673z M131.139,295.634c-0.047,0.877-0.838,1.527-1.732,1.505
		c-0.868-0.02-1.578-0.693-1.629-1.572c-0.024-0.421-0.004-0.844-0.004-1.267c-0.002-0.001-0.005-0.001-0.006-0.001
		c0-0.365-0.004-0.732,0.001-1.097c0.011-0.942,0.71-1.666,1.638-1.703c0.889-0.036,1.679,0.639,1.729,1.56
		C131.185,293.916,131.186,294.778,131.139,295.634z"/>
	<path class="white-fill" d="M111.261,303.938c-1.177,0-2.271,0-3.361,0c-0.014,0.067-0.035,0.108-0.035,0.147
		c0.002,3.069,0.006,6.139,0.01,9.208c1.13,0,2.257,0,3.386,0C111.261,310.175,111.261,307.056,111.261,303.938z"/>
	<path class="white-fill" d="M93.347,283.356c0.2-0.001,0.449-0.15,0.59-0.305c2.012-2.213,4.009-4.438,6.009-6.662
		c1.499-1.667,2.998-3.334,4.571-5.084c-0.23,0-0.353,0-0.476,0c-6.306,0-12.612,0-18.919,0c-1.081,0-1.669,0.489-1.888,1.547
		c-0.439,2.11-0.885,4.218-1.325,6.329c-0.286,1.375-0.568,2.752-0.859,4.156c0.146,0.012,0.254,0.031,0.361,0.031
		C85.391,283.369,89.37,283.373,93.347,283.356z"/>
	<path class="white-fill" d="M114.718,271.333c0.104,0.13,0.17,0.22,0.243,0.303c3.391,3.799,6.785,7.596,10.168,11.401
		c0.218,0.244,0.434,0.339,0.76,0.339c3.923-0.01,7.844-0.006,11.765-0.006c0.153,0,0.306,0,0.512,0
		c-0.022-0.126-0.039-0.231-0.039-0.231c0.111-0.11-4.151-10.493-4.18-10.385c-0.201-0.956-0.841-1.447-1.85-1.447
		c-6.335-0.001-10.649-0.001-16.984,0C114.997,271.306,114.878,271.323,114.718,271.333z"/>
	<path class="white-fill" d="M109.602,280.873c-0.92,0.005-1.692,0.785-1.684,1.705c0.006,0.937,0.761,1.681,1.699,1.679
		c0.933-0.002,1.688-0.762,1.685-1.694C111.299,281.642,110.521,280.867,109.602,280.873z"/>
	<path class="white-fill" d="M152.261,287.337c0-0.212,0-0.426,0-0.633c-3.696,0-7.302,0-10.971,0c0,0.264,0,0.503,0,0.738
		c0,6.242,0.008,17.492-0.011,23.734c-0.002,0.732-0.162,1.463-0.248,2.195c3.337,0,6.674,0,10.011,0
		c0.953-0.451,1.24-1.212,1.235-2.244C152.244,304.866,152.261,293.597,152.261,287.337z M145.132,292.992
		c0.057-0.828,0.722-1.472,1.554-1.533c0.757-0.055,1.577,0.47,1.669,1.246c0.103,0.869,0.108,1.771-0.002,2.64
		c-0.102,0.808-0.901,1.288-1.729,1.219c-0.801-0.066-1.438-0.706-1.492-1.521c-0.024-0.349-0.004-0.702-0.004-1.053
		C145.127,293.656,145.108,293.323,145.132,292.992z M148.399,304.108c-0.086,0.866-0.891,1.469-1.708,1.413
		c-0.877-0.06-1.528-0.737-1.568-1.638c-0.014-0.313-0.002-0.628-0.002-0.942c0.001,0,0.004,0,0.005,0
		c0-0.314-0.012-0.628,0.002-0.942c0.043-0.853,0.672-1.515,1.49-1.581c0.881-0.072,1.655,0.445,1.764,1.318
		C148.48,302.517,148.478,303.324,148.399,304.108z"/>
	<path class="white-fill" d="M153.477,281.911c-2.324-1.152-4.659-3.045-6.991-4.194c-0.386-0.191-0.847-0.279-1.4-0.275
		c-1.205,0.006-6.061,0.002-7.072,0.002c0.253,0.139,0.505,0.512,0.505,0.512l2.794,5.394c0,0,0.456,0,0.658,0
		c3.298,0,6.596-0.014,9.893,0.007c1.026,0.006,1.753-0.151,2.179-0.614c0-0.146,0-0.293,0-0.438
		C153.857,282.174,153.704,282.024,153.477,281.911z"/>
	<path class="white-fill" d="M77.55,287.442c0-0.236,0-0.474,0-0.738c-3.67,0-7.276,0-10.971,0c0,0.207,0,0.421,0,0.633
		c0,6.261,0.016,17.529-0.016,23.79c-0.005,1.033,0.282,1.793,1.235,2.245c3.337,0,6.674,0,10.011,0
		c-0.086-0.731-0.246-1.462-0.248-2.195C77.541,304.935,77.55,293.684,77.55,287.442z M73.716,303.883
		c-0.039,0.901-0.692,1.577-1.568,1.638c-0.817,0.056-1.621-0.547-1.708-1.413c-0.078-0.784-0.079-1.59,0.018-2.372
		c0.108-0.874,0.883-1.391,1.764-1.318c0.817,0.067,1.447,0.729,1.49,1.581c0.016,0.312,0.002,0.628,0.002,0.942
		c0.001,0,0.004,0,0.005,0C73.718,303.255,73.729,303.57,73.716,303.883z M73.71,295.041c-0.054,0.815-0.693,1.455-1.492,1.521
		c-0.83,0.068-1.627-0.41-1.729-1.219c-0.111-0.868-0.108-1.769-0.002-2.639c0.092-0.775,0.912-1.301,1.669-1.246
		c0.833,0.06,1.496,0.706,1.554,1.533c0.024,0.33,0.004,0.664,0.004,0.997C73.713,294.339,73.732,294.692,73.71,295.041z"/>
	<path class="white-fill" d="M73.753,277.441c-0.553-0.002-1.014,0.085-1.4,0.275c-2.332,1.149-4.667,3.042-6.991,4.194
		c-0.227,0.112-0.381,0.261-0.567,0.395c0,0.146,0,0.293,0,0.438c0.426,0.463,1.152,0.62,2.179,0.614
		c3.297-0.022,6.595-0.007,9.893-0.007c0.202,0,0.658,0,0.658,0l2.037-5.394c0,0,0.253-0.373,0.505-0.512
		C79.059,277.443,74.958,277.448,73.753,277.441z"/>
	<path class="white-fill" d="M96.961,320.138c-0.671-0.511-1.437-0.766-2.297-0.766c-0.832,0-1.586,0.231-2.261,0.692
		c-0.675,0.462-1.2,1.11-1.578,1.945c-0.377,0.835-0.566,1.756-0.566,2.764c0,1.559,0.335,2.806,1.002,3.739s1.582,1.4,2.743,1.4
		c0.748,0,1.437-0.322,2.066-0.965c-0.119,1.14-0.47,2.007-1.054,2.602c-0.584,0.594-1.456,0.894-2.617,0.902H92.2v2.559h0.304
		c2.098-0.028,3.718-0.775,4.861-2.239c1.143-1.464,1.715-3.498,1.715-6.099v-1.081c0-1.216-0.185-2.302-0.556-3.256
		C98.153,321.381,97.632,320.648,96.961,320.138z M96.112,326.41c-0.329,0.783-0.78,1.174-1.353,1.174
		c-0.483,0-0.86-0.253-1.133-0.76c-0.273-0.507-0.41-1.201-0.41-2.082c0-0.811,0.132-1.499,0.394-2.061
		c0.262-0.563,0.606-0.844,1.033-0.844c0.434,0,0.787,0.286,1.059,0.855c0.273,0.57,0.41,1.355,0.41,2.355
		C96.112,325.047,96.112,326.41,96.112,326.41z"/>
	<rect x="101.471" y="327.071" class="white-fill" width="5.128" height="2.475"/>
	<polygon class="white-fill" points="109.632,321.837 109.632,324.312 112.536,323.19 112.536,334.853 115.515,334.853 115.515,319.561
		115.2,319.561 	"/>
	<path class="white-fill" d="M125.616,329.588c1.09-1.294,1.844-2.383,2.26-3.267c0.416-0.885,0.624-1.757,0.624-2.617
		c0-1.384-0.375-2.453-1.127-3.204s-1.809-1.127-3.173-1.127c-0.888,0-1.683,0.215-2.386,0.645s-1.248,1.033-1.637,1.809
		c-0.387,0.776-0.582,1.632-0.582,2.569h2.979c0-0.811,0.142-1.44,0.425-1.888c0.284-0.447,0.666-0.671,1.148-0.671
		c0.441,0,0.779,0.193,1.012,0.577c0.234,0.385,0.351,0.916,0.351,1.594c0,0.503-0.124,1.029-0.372,1.578s-0.635,1.186-1.16,1.914
		l-4.132,5.254v2.098h8.999v-2.465h-5.191L125.616,329.588z"/>
</g>
<path class="white-fill" d="M212.178,196.705l-10.983,19.951c0,0,0,0.001-0.001,0.001c-0.06,0.109-0.13,0.214-0.205,0.317
	c-0.019,0.026-0.039,0.051-0.059,0.076c-0.058,0.073-0.12,0.143-0.185,0.211c-0.023,0.024-0.045,0.049-0.069,0.072
	c-0.006,0.006-0.012,0.013-0.018,0.019c-0.079,0.076-0.162,0.144-0.248,0.209c-0.024,0.018-0.049,0.033-0.073,0.05
	c-0.077,0.054-0.155,0.105-0.236,0.15c-0.029,0.017-0.058,0.032-0.087,0.048c-0.091,0.048-0.184,0.091-0.279,0.128
	c-0.016,0.006-0.031,0.013-0.046,0.019c-0.113,0.042-0.228,0.076-0.345,0.103c-0.025,0.006-0.049,0.01-0.074,0.014
	c-0.092,0.019-0.184,0.033-0.277,0.043c-0.035,0.004-0.07,0.008-0.106,0.01c-0.107,0.007-0.213,0.01-0.32,0.005
	c-0.01-0.001-0.02,0.001-0.031,0.001c-0.028-0.002-0.055-0.007-0.083-0.009c-0.066-0.005-0.132-0.011-0.198-0.021
	c-0.04-0.006-0.08-0.016-0.12-0.023c-0.058-0.011-0.115-0.024-0.172-0.039c-0.038-0.01-0.075-0.021-0.112-0.033
	c-0.063-0.019-0.124-0.041-0.186-0.064c-0.031-0.012-0.061-0.023-0.091-0.036c-0.075-0.032-0.148-0.067-0.22-0.105
	c-0.013-0.007-0.028-0.012-0.041-0.02c-0.004-0.003-0.009-0.005-0.013-0.008c-0.062-0.034-0.122-0.072-0.181-0.112
	c-0.021-0.014-0.043-0.027-0.064-0.041c-0.043-0.03-0.084-0.063-0.125-0.096c-0.035-0.027-0.071-0.053-0.105-0.082
	c-0.014-0.012-0.028-0.027-0.042-0.04c-0.057-0.051-0.113-0.103-0.166-0.159l-6.419-6.768c-1.086-1.145-1.038-2.954,0.107-4.04
	c1.146-1.085,2.954-1.038,4.04,0.107l3.727,3.931l9.098-16.526c0.761-1.383,2.5-1.886,3.881-1.125
	C212.436,193.584,212.939,195.322,212.178,196.705z"/>
</svg>
