<svg version="1.1" viewBox="0 0 400 400" style="position:absolute;top:0;z-index:5;display:none;">
<path class="grade-level-selected" d="M378.264,229.971h0.006 M378.27,218.831h-0.006H276.553c-4.719,0-8.925,2.973-10.501,7.421
	c-7.813,22.067-26.007,38.645-48.665,44.347c-4.952,1.246-8.421,5.698-8.421,10.803v100.456c0,3.165,1.347,6.181,3.704,8.294
	c2.053,1.841,4.705,2.846,7.436,2.846c0.403,0,0.807-0.022,1.212-0.066c85.913-9.402,154.914-75.568,167.912-160.968
	c0.116-0.646,0.178-1.313,0.178-1.993C389.407,223.818,384.423,218.831,378.27,218.831L378.27,218.831z M378.264,241.11h0.006
	H378.264L378.264,241.11z"/>
<g>
	<path class="grey-fill" d="M233.484,231.242c-1.379-1.379-3.615-1.379-4.994,0s-1.379,3.615,0,4.994s3.615,1.379,4.994,0
		C234.863,234.857,234.863,232.621,233.484,231.242z"/>
</g>
<g>
	<path class="white-fill" d="M302.525,304.687c-1.095,0-2.108,0-3.12,0c-0.016,0.061-0.033,0.098-0.033,0.135
		c0.002,2.849,0.006,5.698,0.009,8.547c1.049,0,2.095,0,3.144,0.001C302.525,310.475,302.525,307.581,302.525,304.687z"/>
	<path class="white-fill" d="M285.896,285.582c0.186-0.001,0.415-0.139,0.548-0.283c1.867-2.055,3.721-4.12,5.578-6.183
		c1.392-1.547,2.782-3.096,4.243-4.719c-0.212,0-0.327,0-0.441,0c-5.853,0-11.707-0.001-17.56,0c-1.003,0-1.549,0.454-1.754,1.436
		c-0.407,1.959-0.821,3.916-1.23,5.875c-0.267,1.276-0.529,2.555-0.797,3.858c0.134,0.012,0.235,0.029,0.335,0.029
		C278.51,285.595,282.203,285.598,285.896,285.582z"/>
	<path class="white-fill" d="M305.732,274.42c0.098,0.121,0.158,0.206,0.225,0.281c3.148,3.527,6.298,7.051,9.438,10.583
		c0.202,0.225,0.403,0.315,0.705,0.314c3.64-0.009,7.28-0.006,10.921-0.006c0.143,0,0.285,0,0.475,0
		c-0.02-0.117-0.026-0.167-0.037-0.215c-0.668-3.214-1.331-6.429-2.005-9.64c-0.187-0.887-0.782-1.343-1.717-1.343
		c-5.879-0.001-11.758-0.001-17.638,0C305.99,274.394,305.88,274.41,305.732,274.42z"/>
	<path class="white-fill" d="M300.983,283.276c-0.854,0.004-1.568,0.729-1.563,1.583c0.006,0.87,0.706,1.561,1.577,1.558
		c0.865-0.002,1.567-0.708,1.564-1.572C302.558,283.989,301.835,283.271,300.983,283.276z"/>
	<path class="white-fill" d="M327.357,288.738c-4.071,0.001-8.143-0.007-12.214,0.008c-0.611,0.002-1.077-0.206-1.479-0.658
		c-3.635-4.09-7.277-8.173-10.911-12.262c-0.096-0.107-0.183-0.27-0.183-0.408c-0.009-2.566-0.004-5.132-0.002-7.697
		c0-0.038,0.017-0.074,0.037-0.158c0.133,0,0.274,0,0.414,0c2.159,0,4.32-0.006,6.48,0.003c0.463,0.001,0.857-0.096,1.108-0.519
		c0.26-0.438,0.154-0.845-0.098-1.252c-0.391-0.634-0.762-1.281-1.156-1.914c-0.112-0.18-0.115-0.312-0.001-0.494
		c0.381-0.609,0.744-1.231,1.113-1.848c0.508-0.85,0.378-1.345-0.477-1.835c-3.117,0-6.233,0-9.35,0
		c-0.941,0.352-1.24,1.043-1.233,2.021c0.029,4.477,0.011,8.957,0.019,13.435c0,0.312-0.088,0.54-0.295,0.77
		c-3.649,4.044-7.292,8.093-10.929,12.147c-0.403,0.449-0.862,0.669-1.476,0.666c-4.046-0.013-8.093-0.007-12.139-0.009
		c-0.142,0-0.284-0.024-0.427-0.038c0,7.805,0,15.61,0,23.415c0.193,0.643,0.621,1.053,1.256,1.256c6.941,0,13.882,0,20.823,0
		c-0.005-1.651-0.012-3.3-0.017-4.946c-0.002-1.727-0.001-3.457,0-5.184c0.001-1.086,0.64-1.718,1.739-1.719
		c1.964-0.001,3.927,0,5.891,0c1.155,0,1.801,0.639,1.802,1.797c0.003,3.194,0.001,6.389,0.002,9.583
		c0,0.158,0.007,0.313,0.01,0.471c6.968,0,13.934,0,20.902,0c0.627-0.21,1.054-0.62,1.256-1.256c0-7.805,0-15.61,0-23.415
		C327.667,288.714,327.513,288.738,327.357,288.738z M282.114,293.138c0.826-0.034,1.548,0.576,1.605,1.446
		c0.052,0.794,0.052,1.596,0.002,2.39c-0.052,0.837-0.802,1.437-1.646,1.398c-0.823-0.037-1.454-0.69-1.475-1.536
		c-0.008-0.367-0.001-0.732-0.001-1.099c-0.001-0.325-0.002-0.652-0.001-0.979C280.605,293.848,281.236,293.175,282.114,293.138z
		 M283.723,305.361c-0.051,0.834-0.821,1.453-1.645,1.407c-0.826-0.046-1.456-0.699-1.477-1.543
		c-0.009-0.367-0.001-0.732-0.001-1.099c-0.001-0.327-0.002-0.653,0.001-0.981c0.004-0.91,0.633-1.586,1.514-1.629
		c0.809-0.039,1.551,0.59,1.606,1.453C283.771,303.764,283.771,304.567,283.723,305.361z M313.089,293.137
		c0.842-0.028,1.546,0.619,1.604,1.497c0.026,0.378,0.004,0.758,0.004,1.136c0.001,0,0.003,0,0.004,0
		c0,0.353,0.008,0.706-0.001,1.056c-0.024,0.887-0.715,1.552-1.594,1.545c-0.86-0.008-1.527-0.668-1.544-1.548
		c-0.012-0.692-0.006-1.385-0.002-2.077C311.564,293.845,312.212,293.166,313.089,293.137z M290.013,305.348
		c-0.046,0.83-0.805,1.458-1.633,1.421c-0.823-0.038-1.465-0.691-1.491-1.528c-0.011-0.367-0.002-0.732-0.002-1.099
		c0-0.34-0.003-0.68,0-1.021c0.008-0.897,0.665-1.581,1.541-1.604c0.815-0.022,1.538,0.618,1.585,1.478
		C290.055,303.778,290.056,304.566,290.013,305.348z M290.015,296.947c-0.042,0.835-0.778,1.451-1.623,1.426
		c-0.824-0.024-1.475-0.671-1.503-1.509c-0.012-0.379-0.002-0.758-0.002-1.136h-0.001c0-0.327-0.001-0.653,0.002-0.981
		c0.007-0.889,0.623-1.554,1.49-1.608c0.835-0.053,1.582,0.576,1.634,1.457C290.058,295.377,290.055,296.165,290.015,296.947z
		 M299.31,297.01c-0.074,0.789-0.752,1.363-1.556,1.362c-0.791-0.001-1.472-0.554-1.523-1.343c-0.054-0.845-0.06-1.698-0.006-2.544
		c0.052-0.79,0.774-1.365,1.567-1.348c0.786,0.016,1.435,0.582,1.511,1.37c0.04,0.427,0.007,0.862,0.007,1.292
		c0.002,0,0.004,0,0.007,0C299.317,296.202,299.349,296.611,299.31,297.01z M296.276,284.874c-0.054-2.508,2.05-4.69,4.575-4.739
		c2.671-0.052,4.795,2.006,4.851,4.705c0.051,2.479-2.06,4.664-4.56,4.717C298.456,289.614,296.336,287.574,296.276,284.874z
		 M305.755,297.019c-0.084,0.795-0.758,1.356-1.565,1.352c-0.803-0.004-1.476-0.584-1.522-1.392
		c-0.046-0.806-0.046-1.621-0.009-2.428c0.036-0.79,0.71-1.387,1.512-1.415c0.79-0.027,1.488,0.545,1.574,1.341
		c0.047,0.44,0.008,0.888,0.008,1.331c0.003,0,0.007,0,0.01,0C305.763,296.212,305.798,296.621,305.755,297.019z M314.688,305.347
		c-0.042,0.812-0.777,1.436-1.594,1.422c-0.819-0.014-1.492-0.662-1.529-1.488c-0.018-0.379-0.003-0.759-0.003-1.137
		c-0.001,0-0.001,0-0.002,0c0-0.341-0.002-0.68,0.001-1.021c0.008-0.896,0.667-1.581,1.541-1.605
		c0.816-0.022,1.541,0.621,1.586,1.477C314.729,303.776,314.73,304.565,314.688,305.347z M317.847,295.737
		c0-0.339-0.003-0.679,0-1.019c0.01-0.873,0.658-1.546,1.521-1.581c0.825-0.034,1.558,0.594,1.605,1.447
		c0.043,0.794,0.044,1.595,0.001,2.39c-0.044,0.812-0.777,1.416-1.607,1.397c-0.805-0.019-1.465-0.643-1.512-1.459
		c-0.022-0.392-0.003-0.784-0.003-1.176C317.851,295.737,317.849,295.737,317.847,295.737z M320.974,305.366
		c-0.043,0.807-0.796,1.427-1.611,1.402c-0.804-0.026-1.463-0.655-1.508-1.47c-0.022-0.391-0.003-0.784-0.003-1.176
		c-0.002,0-0.003,0-0.004,0c0-0.34-0.003-0.68,0-1.022c0.011-0.871,0.662-1.545,1.524-1.584c0.811-0.034,1.555,0.608,1.602,1.458
		C321.017,303.77,321.017,304.57,320.974,305.366z"/>
	<path class="white-fill" d="M293.153,324.626c-0.957,0-1.755,0.363-2.39,1.091c0.139-1.188,0.536-2.113,1.19-2.774
		c0.653-0.661,1.537-0.995,2.648-1.002h0.168v-2.516h-0.462c-1.328,0.006-2.491,0.351-3.487,1.033
		c-0.996,0.682-1.759,1.655-2.287,2.922c-0.528,1.265-0.792,2.741-0.792,4.426v1.101c0,1.881,0.417,3.378,1.253,4.489
		c0.835,1.112,1.945,1.667,3.33,1.667c0.859,0,1.63-0.222,2.313-0.666c0.681-0.444,1.211-1.068,1.589-1.872
		c0.377-0.805,0.566-1.706,0.566-2.706c0-1.573-0.33-2.832-0.991-3.775C295.141,325.098,294.258,324.626,293.153,324.626z
		 M293.405,331.826c-0.286,0.514-0.667,0.772-1.143,0.772c-0.469,0-0.846-0.266-1.133-0.798c-0.287-0.533-0.43-1.338-0.43-2.417
		v-1.072c0.125-0.349,0.316-0.644,0.571-0.882c0.256-0.238,0.572-0.357,0.949-0.357c0.483,0,0.872,0.257,1.17,0.772
		s0.446,1.183,0.446,2.002C293.835,330.65,293.692,331.31,293.405,331.826z"/>
	<rect x="298.849" y="327.071" class="white-fill" width="5.128" height="2.475"/>
	<path class="white-fill" d="M313.144,326.986c0.552-0.342,0.986-0.801,1.3-1.374c0.315-0.574,0.473-1.231,0.473-1.972
		c0-1.321-0.371-2.363-1.112-3.125s-1.748-1.143-3.021-1.143c-1.259,0-2.262,0.377-3.01,1.133c-0.749,0.755-1.122,1.801-1.122,3.136
		c0,0.742,0.158,1.399,0.472,1.972c0.315,0.573,0.752,1.032,1.312,1.374c-0.637,0.35-1.136,0.839-1.501,1.468
		c-0.363,0.629-0.545,1.367-0.545,2.213c0,1.357,0.399,2.428,1.196,3.214c0.797,0.787,1.87,1.18,3.22,1.18
		c1.349,0,2.415-0.393,3.199-1.18c0.783-0.786,1.175-1.857,1.175-3.214c0-0.846-0.183-1.582-0.546-2.208
		C314.27,327.834,313.773,327.343,313.144,326.986z M309.924,322.356c0.196-0.346,0.483-0.519,0.86-0.519
		c0.399,0,0.694,0.179,0.886,0.535c0.193,0.357,0.289,0.832,0.289,1.426c0,0.602-0.095,1.085-0.284,1.452s-0.479,0.552-0.87,0.552
		c-0.392,0-0.686-0.184-0.881-0.552s-0.293-0.851-0.293-1.452C309.631,323.182,309.728,322.702,309.924,322.356z M311.838,332.026
		c-0.241,0.382-0.585,0.572-1.033,0.572c-0.455,0-0.809-0.19-1.065-0.572c-0.255-0.381-0.383-0.91-0.383-1.589
		s0.128-1.21,0.383-1.594c0.256-0.385,0.603-0.576,1.044-0.576c0.44,0,0.787,0.192,1.038,0.576c0.252,0.385,0.378,0.916,0.378,1.594
		S312.08,331.645,311.838,332.026z"/>
</g>
<path class="white-fill" d="M212.178,196.705l-10.983,19.951c0,0,0,0.001-0.001,0.001c-0.06,0.109-0.13,0.214-0.205,0.317
	c-0.019,0.026-0.039,0.051-0.059,0.076c-0.058,0.073-0.12,0.143-0.185,0.211c-0.023,0.024-0.045,0.049-0.069,0.072
	c-0.006,0.006-0.012,0.013-0.018,0.019c-0.079,0.076-0.162,0.144-0.248,0.209c-0.024,0.018-0.049,0.033-0.073,0.05
	c-0.077,0.054-0.155,0.105-0.236,0.15c-0.029,0.017-0.058,0.032-0.087,0.048c-0.091,0.048-0.184,0.091-0.279,0.128
	c-0.016,0.006-0.031,0.013-0.046,0.019c-0.113,0.042-0.228,0.076-0.345,0.103c-0.025,0.006-0.049,0.01-0.074,0.014
	c-0.092,0.019-0.184,0.033-0.277,0.043c-0.035,0.004-0.07,0.008-0.106,0.01c-0.107,0.007-0.213,0.01-0.32,0.005
	c-0.01-0.001-0.02,0.001-0.031,0.001c-0.028-0.002-0.055-0.007-0.083-0.009c-0.066-0.005-0.132-0.011-0.198-0.021
	c-0.04-0.006-0.08-0.016-0.12-0.023c-0.058-0.011-0.115-0.024-0.172-0.039c-0.038-0.01-0.075-0.021-0.112-0.033
	c-0.063-0.019-0.124-0.041-0.186-0.064c-0.031-0.012-0.061-0.023-0.091-0.036c-0.075-0.032-0.148-0.067-0.22-0.105
	c-0.013-0.007-0.028-0.012-0.041-0.02c-0.004-0.003-0.009-0.005-0.013-0.008c-0.062-0.034-0.122-0.072-0.181-0.112
	c-0.021-0.014-0.043-0.027-0.064-0.041c-0.043-0.03-0.084-0.063-0.125-0.096c-0.035-0.027-0.071-0.053-0.105-0.082
	c-0.014-0.012-0.028-0.027-0.042-0.04c-0.057-0.051-0.113-0.103-0.166-0.159l-6.419-6.768c-1.086-1.145-1.038-2.954,0.107-4.04
	c1.146-1.085,2.954-1.038,4.04,0.107l3.727,3.931l9.098-16.526c0.761-1.383,2.5-1.886,3.881-1.125
	C212.436,193.584,212.939,195.322,212.178,196.705z"/>
</svg>
