<svg version="1.1" viewBox="0 0 400 400" style="position:absolute;top:0;z-index:5;display:none;">
<g>
	<path class="grade-level-selected" filter="url(#highlightshadow)" d="M220.105,12.951c-2.731,0-5.382,1.005-7.436,2.846c-2.356,2.113-3.704,5.129-3.704,8.295v100.456
	c0,5.105,3.471,9.557,8.421,10.803c28.049,7.059,49.034,31.112,52.217,59.852c0.625,5.644,5.395,9.914,11.072,9.914h99.38
	c3.049,0,5.967-1.25,8.068-3.459c2.102-2.209,3.208-5.183,3.059-8.229c-2.236-45.392-20.688-88.612-51.961-121.697
	c-31.145-32.95-73.017-53.802-117.903-58.714C220.912,12.974,220.508,12.951,220.105,12.951L220.105,12.951z"/>
</g>
<g>
	<path class="grey-fill" d="M233.484,169.226c-1.379-1.379-3.615-1.379-4.994,0s-1.379,3.615,0,4.994s3.615,1.379,4.994,0
		C234.863,172.841,234.863,170.605,233.484,169.226z"/>
</g>
<g>
	<path class="white-fill" d="M302.755,133.891c1.994,0,3.988,0,5.981,0c0.982-0.402,1.296-1.142,1.294-2.183
		c-0.023-10.524-0.021-21.049-0.001-31.573c0.002-0.895-0.27-1.562-0.908-2.191c-3.224-3.182-6.418-6.393-9.605-9.611
		c-0.205-0.208-0.334-0.57-0.353-0.869c-0.048-0.781-0.016-1.567-0.016-2.412c0.26,0,0.461,0,0.663,0
		c2.745,0.001,5.488,0.004,8.232,0.002c1.337-0.001,1.975-0.631,1.98-1.96c0.005-1.598-0.039-3.196,0.01-4.792
		c0.032-1.04-0.307-1.783-1.293-2.184c-3.911,0-7.824,0-11.736,0c-0.944,0.44-1.272,1.176-1.262,2.215
		c0.046,3.063,0.024,6.127-0.001,9.19c-0.002,0.276-0.153,0.618-0.348,0.815c-3.215,3.243-6.439,6.477-9.686,9.689
		c-0.577,0.572-0.83,1.185-0.829,1.997c0.016,10.563,0.019,21.124-0.003,31.686c-0.002,1.039,0.312,1.78,1.293,2.184
		c1.994,0,3.988,0,5.981,0c-0.002-3.572-0.01-7.143-0.004-10.716c0.001-1.012,0.686-1.712,1.697-1.718
		c2.407-0.015,4.812-0.013,7.219,0.004c1.015,0.006,1.698,0.7,1.7,1.713C302.768,126.746,302.757,130.318,302.755,133.891z
		 M295.516,115.945c-0.053,0.958-0.82,1.642-1.75,1.613c-0.906-0.029-1.592-0.734-1.621-1.676c-0.008-0.299-0.001-0.6-0.001-0.9
		s-0.006-0.601,0.001-0.901c0.025-0.957,0.741-1.692,1.66-1.711c0.879-0.016,1.654,0.687,1.709,1.608
		C295.552,114.632,295.552,115.292,295.516,115.945z M292.146,103.172c0.006-2.924,2.384-5.292,5.313-5.29
		c2.933,0.002,5.302,2.367,5.306,5.298c0.004,2.93-2.36,5.312-5.285,5.322C294.53,108.513,292.139,106.124,292.146,103.172z
		 M301.101,117.559c-0.93,0.012-1.672-0.686-1.712-1.649c-0.025-0.637-0.03-1.276,0.006-1.911c0.052-0.924,0.808-1.628,1.694-1.623
		c0.919,0.004,1.646,0.734,1.675,1.692c0.009,0.318,0.001,0.637,0.001,0.956c0.001,0.281,0.007,0.563-0.002,0.843
		C302.736,116.839,302.035,117.547,301.101,117.559z"/>
	<path class="white-fill" d="M324.535,112.561c0-0.216,0-0.432,0-0.642c-3.75,0-7.407,0-11.13,0c0,0.27,0,0.509,0,0.749
		c0,6.332,0.008,12.664-0.012,18.997c-0.003,0.742-0.165,1.484-0.252,2.226c3.385,0,6.771,0,10.158,0
		c0.966-0.459,1.258-1.23,1.253-2.277C324.519,125.263,324.535,118.911,324.535,112.561z M317.299,117.313
		c0.059-0.84,0.732-1.493,1.577-1.555c0.768-0.055,1.601,0.478,1.694,1.264c0.105,0.882,0.109,1.797-0.002,2.678
		c-0.103,0.82-0.913,1.306-1.755,1.237c-0.81-0.066-1.458-0.717-1.514-1.544c-0.023-0.353-0.004-0.711-0.004-1.067
		C317.296,117.988,317.277,117.65,317.299,117.313z M320.616,128.592c-0.089,0.878-0.905,1.491-1.733,1.433
		c-0.889-0.061-1.551-0.748-1.591-1.661c-0.014-0.317-0.002-0.636-0.002-0.955c0.002,0,0.003,0,0.005,0
		c0-0.319-0.012-0.637,0.002-0.956c0.044-0.864,0.683-1.536,1.511-1.603c0.893-0.072,1.679,0.451,1.789,1.337
		C320.697,126.978,320.696,127.797,320.616,128.592z"/>
	<path class="white-fill" d="M281.507,112.608c0-0.221,0-0.442,0-0.688c-3.736,0-7.408,0-11.132,0c0,0.251,0,0.474,0,0.695
		c0,6.334,0.015,12.666-0.016,19c-0.005,1.049,0.29,1.819,1.255,2.276c3.385,0,6.771,0,10.157,0
		c-0.087-0.724-0.245-1.446-0.247-2.17C281.502,125.35,281.508,118.978,281.507,112.608z M277.61,128.459
		c-0.059,0.848-0.717,1.495-1.565,1.566c-0.759,0.063-1.606-0.473-1.7-1.254c-0.107-0.881-0.114-1.795-0.007-2.677
		c0.099-0.818,0.907-1.311,1.747-1.249c0.807,0.06,1.465,0.71,1.525,1.535c0.025,0.353,0.004,0.711,0.004,1.067
		C277.614,127.784,277.633,128.122,277.61,128.459z M277.611,119.386c-0.057,0.839-0.696,1.483-1.516,1.55
		c-0.864,0.071-1.671-0.446-1.772-1.301c-0.1-0.85-0.09-1.729,0.008-2.579c0.092-0.793,0.897-1.336,1.676-1.295
		c0.848,0.046,1.536,0.695,1.6,1.538c0.026,0.356,0.004,0.714,0.004,1.072c0.001,0,0.001,0,0.002,0
		C277.614,118.711,277.633,119.05,277.611,119.386z"/>
	<path class="white-fill" d="M325.769,105.547c-2.357-2.375-4.727-4.736-7.092-7.102c-0.392-0.392-0.859-0.573-1.42-0.567
		c-1.222,0.012-2.443,0.002-3.665,0.005c-0.138,0-0.276,0.027-0.293,0.029c0.232,3.549,0.029,7.059,0.131,10.597
		c0.258,0,0.463,0,0.668,0c3.346,0,6.691-0.027,10.036,0.016c1.04,0.013,1.778-0.309,2.21-1.265c0-0.301,0-0.603,0.002-0.902
		C326.154,106.086,326,105.779,325.769,105.547z"/>
	<path class="white-fill" d="M280.872,108.503c0.197,0,0.396-0.017,0.613-0.026c0.104-3.554-0.111-7.061,0.147-10.598
		c-1.199,0-2.475,0.026-3.75-0.009c-0.752-0.021-1.327,0.237-1.85,0.768c-2.125,2.154-4.279,4.278-6.407,6.43
		c-0.39,0.393-0.706,0.858-1.057,1.29c0,0.3,0,0.602,0.001,0.902c0.432,0.958,1.173,1.275,2.212,1.261
		C274.144,108.476,277.508,108.505,280.872,108.503z"/>
	<path class="white-fill" d="M295.536,124.863c0,3.031,0,6.03,0,9.027c1.279,0,2.559,0,3.837,0c0-2.999,0-5.996,0-9.027
		C298.077,124.863,296.832,124.863,295.536,124.863z"/>
	<path class="white-fill" d="M297.458,101.267c-1.078-0.001-1.926,0.844-1.927,1.921c0,1.069,0.86,1.932,1.924,1.932
		c1.069,0,1.927-0.856,1.928-1.927C299.384,102.121,298.531,101.269,297.458,101.267z"/>
	<path class="white-fill" d="M290.481,147.164c0.587-0.315,1.06-0.767,1.421-1.359c0.361-0.59,0.54-1.232,0.54-1.924
		c0-1.35-0.399-2.413-1.196-3.188c-0.797-0.776-1.898-1.164-3.304-1.164c-0.804,0-1.536,0.178-2.197,0.535
		c-0.661,0.357-1.175,0.852-1.542,1.484c-0.367,0.633-0.551,1.348-0.551,2.145h2.969c0-0.489,0.131-0.894,0.393-1.216
		s0.6-0.483,1.012-0.483c0.44,0,0.792,0.17,1.054,0.509s0.393,0.813,0.393,1.421c0,0.637-0.127,1.146-0.383,1.527
		c-0.255,0.381-0.655,0.571-1.2,0.571h-1.437v2.391h1.457c1.168,0.007,1.752,0.763,1.752,2.266c0,0.629-0.148,1.133-0.446,1.51
		c-0.297,0.377-0.701,0.566-1.211,0.566c-0.44,0-0.804-0.185-1.091-0.556c-0.286-0.37-0.429-0.829-0.429-1.374h-2.969
		c0,1.314,0.408,2.376,1.222,3.183c0.815,0.808,1.876,1.211,3.184,1.211c1.405,0,2.54-0.409,3.404-1.227
		c0.863-0.818,1.295-1.905,1.295-3.262c0-0.839-0.176-1.566-0.529-2.181C291.738,147.934,291.201,147.472,290.481,147.164z"/>
	<rect x="294.97" y="147.228" class="white-fill" width="5.128" height="2.475"/>
	<path class="white-fill" d="M307.471,144.972c-0.608,0-1.199,0.192-1.772,0.577l0.273-3.272h4.961v-2.539h-7.394l-0.755,7.762l2.36,0.608
		l0.189-0.262c0.308-0.384,0.741-0.577,1.3-0.577c0.574,0,1.019,0.224,1.337,0.671c0.318,0.448,0.477,1.112,0.477,1.993
		c0,0.937-0.133,1.641-0.398,2.113c-0.266,0.473-0.644,0.708-1.133,0.708c-0.42,0-0.763-0.174-1.028-0.525
		c-0.266-0.349-0.424-0.843-0.473-1.478h-2.936c0.006,0.86,0.208,1.629,0.603,2.307c0.395,0.678,0.935,1.209,1.62,1.59
		s1.43,0.571,2.234,0.571c1.357,0,2.44-0.468,3.252-1.405c0.811-0.937,1.217-2.171,1.217-3.702c0-1.637-0.341-2.902-1.023-3.797
		C309.701,145.42,308.73,144.972,307.471,144.972z"/>
</g>
<path class="white-fill" d="M212.178,196.705l-10.983,19.951c0,0,0,0.001-0.001,0.001c-0.06,0.109-0.13,0.214-0.205,0.317
	c-0.019,0.026-0.039,0.051-0.059,0.076c-0.058,0.073-0.12,0.143-0.185,0.211c-0.023,0.024-0.045,0.049-0.069,0.072
	c-0.006,0.006-0.012,0.013-0.018,0.019c-0.079,0.076-0.162,0.144-0.248,0.209c-0.024,0.018-0.049,0.033-0.073,0.05
	c-0.077,0.054-0.155,0.105-0.236,0.15c-0.029,0.017-0.058,0.032-0.087,0.048c-0.091,0.048-0.184,0.091-0.279,0.128
	c-0.016,0.006-0.031,0.013-0.046,0.019c-0.113,0.042-0.228,0.076-0.345,0.103c-0.025,0.006-0.049,0.01-0.074,0.014
	c-0.092,0.019-0.184,0.033-0.277,0.043c-0.035,0.004-0.07,0.008-0.106,0.01c-0.107,0.007-0.213,0.01-0.32,0.005
	c-0.01-0.001-0.02,0.001-0.031,0.001c-0.028-0.002-0.055-0.007-0.083-0.009c-0.066-0.005-0.132-0.011-0.198-0.021
	c-0.04-0.006-0.08-0.016-0.12-0.023c-0.058-0.011-0.115-0.024-0.172-0.039c-0.038-0.01-0.075-0.021-0.112-0.033
	c-0.063-0.019-0.124-0.041-0.186-0.064c-0.031-0.012-0.061-0.023-0.091-0.036c-0.075-0.032-0.148-0.067-0.22-0.105
	c-0.013-0.007-0.028-0.012-0.041-0.02c-0.004-0.003-0.009-0.005-0.013-0.008c-0.062-0.034-0.122-0.072-0.181-0.112
	c-0.021-0.014-0.043-0.027-0.064-0.041c-0.043-0.03-0.084-0.063-0.125-0.096c-0.035-0.027-0.071-0.053-0.105-0.082
	c-0.014-0.012-0.028-0.027-0.042-0.04c-0.057-0.051-0.113-0.103-0.166-0.159l-6.419-6.768c-1.086-1.145-1.038-2.954,0.107-4.04
	c1.146-1.085,2.954-1.038,4.04,0.107l3.727,3.931l9.098-16.526c0.761-1.383,2.5-1.886,3.881-1.125
	C212.436,193.584,212.939,195.322,212.178,196.705z"/>
</svg>
