<svg xmlns="http://www.w3.org/2000/svg" xmlns:xlink="http://www.w3.org/1999/xlink" viewBox="0 0 300 300">


<circle class="offwhite-fill" filter="url(#dropshadow)" cx="150" cy="150" r="150"/>
<path class="offwhite-fill" filter="url(#innershadow)" d="M149.984,109.767c-22.247,0-40.281,18.035-40.281,40.281s18.035,40.281,40.281,40.281s40.281-18.035,40.281-40.281 S172.232,109.767,149.984,109.767z"/>

<circle class="offwhite-fill" filter="url(#dropshadow)" cx="150" cy="150" r="25"/>

<g title="grade-k-2">
	<path class="offwhite-fill" filter="url(#innershadow)" d="M138.083,7.448c-0.247,0-0.496,0.011-0.743,0.033C103.047,10.54,70.959,25.93,46.988,50.813
		C22.951,75.767,8.776,108.53,7.076,143.071c-0.112,2.284,0.716,4.514,2.294,6.172c1.577,1.657,3.764,2.594,6.051,2.594h74.535
		c4.258,0,7.835-3.202,8.304-7.436c1.227-11.075,5.872-21.284,13.436-29.526c7.522-8.199,17.223-13.696,28.052-15.897
		c3.893-0.791,6.691-4.215,6.691-8.187v-74.99c0-2.345-0.986-4.582-2.716-6.164C142.176,8.223,140.161,7.448,138.083,7.448
		L138.083,7.448z"/>
	<path d="M80.344,98.342c0.734-0.301,0.97-0.854,0.968-1.634c-0.018-7.879-0.017-15.759-0.001-23.639
		c0.002-0.67-0.202-1.17-0.679-1.64c-2.413-2.382-4.806-4.785-7.191-7.196c-0.154-0.155-0.251-0.426-0.265-0.65
		c-0.038-0.585-0.013-1.174-0.013-1.807c0.194,0,0.345,0,0.496,0c2.055,0.001,4.109,0.004,6.163,0.002
		c1.001-0.001,1.478-0.473,1.481-1.468c0.005-1.196-0.029-2.393,0.008-3.588c0.024-0.779-0.23-1.335-0.967-1.636
		c-2.929,0-5.857,0-8.787,0c-0.707,0.329-0.953,0.881-0.945,1.656c0.034,2.293,0.019,4.587-0.001,6.881
		c-0.001,0.207-0.114,0.463-0.261,0.611c-2.407,2.428-4.821,4.849-7.252,7.254c-0.431,0.428-0.62,0.887-0.62,1.495
		c0.013,7.908,0.015,15.815-0.002,23.723c-0.001,0.779,0.234,1.334,0.968,1.636c1.492,0,2.985,0,4.477,0
		c-0.001-2.674-0.007-5.348-0.003-8.023c0.001-0.758,0.514-1.283,1.27-1.286c1.802-0.011,3.604-0.01,5.405,0.003
		c0.759,0.006,1.271,0.524,1.272,1.283c0.006,2.674-0.001,5.348-0.003,8.023C77.36,98.342,78.852,98.342,80.344,98.342z
		 M70.445,84.908c-0.04,0.717-0.614,1.229-1.31,1.208c-0.679-0.022-1.192-0.55-1.214-1.256c-0.006-0.224-0.001-0.449-0.001-0.674
		c0-0.225-0.005-0.449,0.001-0.672c0.02-0.718,0.556-1.268,1.243-1.283c0.657-0.013,1.238,0.514,1.28,1.203
		C70.472,83.924,70.471,84.418,70.445,84.908z M67.921,75.344c0.006-2.19,1.786-3.962,3.979-3.961
		c2.195,0.002,3.97,1.774,3.973,3.967c0.003,2.194-1.767,3.978-3.957,3.984C69.705,79.342,67.915,77.554,67.921,75.344z
		 M74.627,86.115c-0.697,0.008-1.253-0.514-1.283-1.235c-0.02-0.476-0.022-0.954,0.004-1.43c0.038-0.692,0.605-1.219,1.268-1.216
		c0.689,0.004,1.232,0.55,1.255,1.268c0.007,0.239,0.001,0.477,0.001,0.715c0.001,0.211,0.006,0.421-0.001,0.63
		C75.851,85.575,75.327,86.106,74.627,86.115z"/>
	<path d="M73.332,91.585c-0.97,0-1.902,0-2.872,0c0,2.269,0,4.514,0,6.758c0.958,0,1.915,0,2.872,0
		C73.332,96.099,73.332,93.854,73.332,91.585z"/>
	<path d="M71.899,73.919c-0.807-0.001-1.442,0.632-1.443,1.438c-0.001,0.8,0.644,1.447,1.44,1.447c0.8,0,1.442-0.642,1.443-1.443
		C73.34,74.557,72.703,73.92,71.899,73.919z"/>
	<polygon points="71.124,102.804 68.293,102.804 66.16,106.564 65.429,107.799 65.429,102.804 63.116,102.804 63.116,114.257
		65.429,114.257 65.429,110.985 66.341,109.837 68.434,114.257 71.179,114.257 67.844,107.838 	"/>
	<rect x="70.786" y="108.421" width="3.846" height="1.856"/>
	<path d="M79.273,112.409l1.471-2.1c0.817-0.971,1.383-1.787,1.695-2.45c0.312-0.664,0.468-1.318,0.468-1.963
		c0-1.039-0.281-1.839-0.845-2.403c-0.564-0.564-1.357-0.846-2.38-0.846c-0.666,0-1.262,0.161-1.789,0.484
		c-0.527,0.323-0.937,0.775-1.228,1.357c-0.29,0.582-0.437,1.224-0.437,1.927h2.234c0-0.608,0.106-1.08,0.318-1.416
		c0.213-0.335,0.5-0.503,0.861-0.503c0.331,0,0.584,0.144,0.759,0.433c0.176,0.29,0.263,0.688,0.263,1.196
		c0,0.377-0.093,0.772-0.279,1.184c-0.186,0.412-0.476,0.889-0.87,1.436l-3.099,3.94v1.573h6.749v-1.849h-3.892V112.409z"/>
</g>
<g title="grades-3-5">
	<path class="offwhite-fill" filter="url(#innershadow)" d="M165.079,7.713c-2.048,0-4.037,0.754-5.577,2.134c-1.767,1.585-2.778,3.847-2.778,6.221v75.342
		c0,3.829,2.603,7.168,6.316,8.102c21.037,5.294,36.775,23.334,39.163,44.889c0.469,4.233,4.046,7.436,8.304,7.436h74.535
		c2.287,0,4.475-0.938,6.051-2.594c1.577-1.657,2.406-3.887,2.294-6.172c-1.677-34.044-15.516-66.459-38.971-91.273
		c-23.359-24.713-54.763-40.352-88.427-44.036C165.684,7.731,165.381,7.713,165.079,7.713L165.079,7.713z"/>
	<path d="M227.066,98.418c1.495,0,2.991,0,4.486,0c0.736-0.301,0.972-0.857,0.97-1.637c-0.017-7.893-0.016-15.787-0.001-23.68
		c0.002-0.671-0.202-1.171-0.681-1.643c-2.418-2.387-4.814-4.795-7.204-7.208c-0.154-0.156-0.251-0.427-0.265-0.652
		c-0.036-0.586-0.012-1.175-0.012-1.809c0.195,0,0.346,0,0.497,0c2.059,0.001,4.116,0.003,6.174,0.001
		c1.003-0.001,1.481-0.473,1.485-1.47c0.004-1.199-0.029-2.397,0.008-3.594c0.024-0.78-0.23-1.337-0.97-1.638
		c-2.933,0-5.868,0-8.802,0c-0.708,0.33-0.954,0.882-0.946,1.661c0.035,2.297,0.018,4.595-0.001,6.893
		c-0.002,0.207-0.115,0.464-0.261,0.611c-2.411,2.432-4.829,4.858-7.265,7.267c-0.433,0.429-0.622,0.889-0.622,1.498
		c0.012,7.922,0.014,15.843-0.002,23.764c-0.002,0.779,0.234,1.335,0.97,1.638c1.495,0,2.991,0,4.486,0
		c-0.002-2.679-0.008-5.357-0.003-8.037c0.001-0.759,0.515-1.284,1.273-1.289c1.805-0.011,3.609-0.01,5.414,0.003
		c0.761,0.004,1.273,0.525,1.275,1.285C227.076,93.06,227.068,95.738,227.066,98.418z M221.637,84.959
		c-0.04,0.718-0.615,1.231-1.312,1.21c-0.68-0.022-1.194-0.551-1.216-1.257c-0.006-0.224-0.001-0.45-0.001-0.675
		s-0.005-0.451,0.001-0.676c0.019-0.718,0.556-1.269,1.245-1.283c0.659-0.012,1.24,0.515,1.282,1.206
		C221.664,83.974,221.664,84.469,221.637,84.959z M219.109,75.379c0.005-2.193,1.788-3.969,3.985-3.967
		c2.2,0.001,3.977,1.775,3.979,3.973c0.003,2.198-1.77,3.984-3.964,3.992C220.897,79.385,219.104,77.593,219.109,75.379z
		 M225.826,86.169c-0.697,0.009-1.254-0.514-1.284-1.237c-0.019-0.478-0.022-0.957,0.005-1.433c0.039-0.693,0.606-1.221,1.271-1.217
		c0.689,0.003,1.234,0.55,1.256,1.269c0.007,0.239,0.001,0.478,0.001,0.717c0.001,0.211,0.005,0.422-0.002,0.632
		C227.052,85.629,226.526,86.16,225.826,86.169z"/>
	<path d="M243.401,82.421c0-0.162,0-0.324,0-0.481c-2.812,0-5.555,0-8.348,0c0,0.202,0,0.382,0,0.562
		c0,4.749,0.006,9.498-0.009,14.248c-0.002,0.557-0.124,1.113-0.189,1.669c2.539,0,5.078,0,7.618,0
		c0.724-0.344,0.943-0.923,0.94-1.708C243.389,91.947,243.401,87.183,243.401,82.421z M237.974,85.985
		c0.044-0.63,0.549-1.12,1.183-1.166c0.576-0.041,1.201,0.358,1.27,0.948c0.079,0.662,0.082,1.348-0.002,2.008
		c-0.077,0.615-0.685,0.979-1.316,0.928c-0.607-0.049-1.094-0.538-1.135-1.158c-0.017-0.265-0.003-0.533-0.003-0.8
		C237.972,86.491,237.958,86.238,237.974,85.985z M240.462,94.444c-0.067,0.659-0.679,1.118-1.3,1.075
		c-0.667-0.046-1.163-0.561-1.193-1.246c-0.01-0.238-0.002-0.477-0.002-0.716c0.002,0,0.002,0,0.004,0
		c0-0.239-0.009-0.478,0.002-0.717c0.033-0.648,0.512-1.152,1.133-1.202c0.67-0.054,1.259,0.338,1.342,1.003
		C240.523,93.233,240.522,93.848,240.462,94.444z"/>
	<path d="M211.13,82.456c0-0.166,0-0.332,0-0.516c-2.802,0-5.556,0-8.349,0c0,0.188,0,0.355,0,0.521c0,4.75,0.011,9.499-0.012,14.25
		c-0.004,0.787,0.217,1.364,0.941,1.707c2.539,0,5.078,0,7.618,0c-0.065-0.543-0.184-1.085-0.185-1.628
		C211.127,92.012,211.131,87.233,211.13,82.456z M208.207,94.344c-0.044,0.636-0.538,1.121-1.174,1.174
		c-0.569,0.047-1.204-0.355-1.275-0.94c-0.08-0.661-0.086-1.346-0.005-2.008c0.074-0.614,0.68-0.983,1.31-0.937
		c0.605,0.045,1.099,0.533,1.144,1.151c0.019,0.265,0.003,0.533,0.003,0.8C208.211,93.838,208.225,94.091,208.207,94.344z
		 M208.208,87.54c-0.043,0.629-0.522,1.112-1.137,1.162c-0.648,0.053-1.253-0.334-1.329-0.976c-0.075-0.637-0.068-1.297,0.006-1.934
		c0.069-0.595,0.673-1.002,1.257-0.971c0.636,0.034,1.152,0.521,1.2,1.153c0.02,0.267,0.003,0.535,0.003,0.804
		c0.001,0,0.001,0,0.001,0C208.211,87.033,208.225,87.288,208.208,87.54z"/>
	<path d="M244.327,77.16c-1.768-1.781-3.545-3.552-5.319-5.326c-0.294-0.294-0.644-0.43-1.065-0.425
		c-0.917,0.009-1.832,0.001-2.749,0.004c-0.104,0-0.207,0.02-0.22,0.022c0.174,2.662,0.022,5.294,0.098,7.948
		c0.193,0,0.347,0,0.501,0c2.51,0,5.018-0.02,7.527,0.012c0.78,0.01,1.334-0.232,1.658-0.949c0-0.226,0-0.452,0.002-0.676
		C244.615,77.564,244.5,77.334,244.327,77.16z"/>
	<path d="M210.654,79.377c0.148,0,0.297-0.013,0.46-0.02c0.078-2.666-0.083-5.296,0.11-7.949c-0.899,0-1.856,0.02-2.812-0.007
		c-0.564-0.016-0.995,0.178-1.387,0.576c-1.594,1.616-3.209,3.209-4.805,4.823c-0.293,0.295-0.529,0.644-0.793,0.967
		c0,0.225,0,0.451,0.001,0.676c0.324,0.719,0.88,0.956,1.659,0.946C205.608,79.357,208.131,79.379,210.654,79.377z"/>
	<path d="M221.652,91.647c0,2.273,0,4.523,0,6.77c0.959,0,1.919,0,2.878,0c0-2.249,0-4.497,0-6.77
		C223.558,91.647,222.624,91.647,221.652,91.647z"/>
	<path d="M223.094,73.95c-0.809-0.001-1.444,0.633-1.445,1.441c0,0.802,0.645,1.449,1.443,1.449c0.802,0,1.445-0.642,1.446-1.445
		C224.538,74.591,223.898,73.952,223.094,73.95z"/>
	<path d="M217.861,108.373c0.44-0.236,0.795-0.575,1.066-1.019c0.271-0.443,0.405-0.924,0.405-1.443c0-1.013-0.299-1.81-0.897-2.391
		c-0.598-0.582-1.424-0.873-2.478-0.873c-0.603,0-1.152,0.133-1.648,0.401c-0.496,0.268-0.881,0.639-1.156,1.113
		c-0.275,0.475-0.413,1.011-0.413,1.609h2.227c0-0.367,0.098-0.671,0.295-0.912c0.197-0.242,0.45-0.362,0.759-0.362
		c0.33,0,0.594,0.128,0.79,0.382c0.196,0.254,0.295,0.61,0.295,1.066c0,0.478-0.095,0.859-0.287,1.145
		c-0.191,0.286-0.491,0.428-0.9,0.428h-1.078v1.793h1.093c0.876,0.005,1.314,0.572,1.314,1.7c0,0.472-0.111,0.85-0.335,1.132
		c-0.223,0.283-0.526,0.424-0.908,0.424c-0.33,0-0.603-0.139-0.818-0.417c-0.215-0.277-0.322-0.622-0.322-1.03h-2.227
		c0,0.985,0.306,1.782,0.916,2.387c0.611,0.606,1.407,0.908,2.388,0.908c1.054,0,1.905-0.307,2.553-0.92
		c0.647-0.613,0.971-1.429,0.971-2.446c0-0.629-0.132-1.174-0.397-1.636C218.803,108.951,218.401,108.604,217.861,108.373z"/>
	<rect x="221.228" y="108.421" width="3.846" height="1.856"/>
	<path d="M230.603,106.729c-0.456,0-0.899,0.144-1.329,0.433l0.205-2.454h3.721v-1.904h-5.546l-0.566,5.821l1.77,0.456l0.142-0.197
		c0.231-0.288,0.556-0.433,0.975-0.433c0.43,0,0.764,0.168,1.003,0.503c0.238,0.336,0.358,0.834,0.358,1.495
		c0,0.703-0.1,1.231-0.299,1.585c-0.199,0.355-0.483,0.531-0.85,0.531c-0.315,0-0.572-0.131-0.771-0.394
		c-0.199-0.262-0.318-0.632-0.355-1.108h-2.202c0.005,0.645,0.156,1.222,0.452,1.73c0.296,0.508,0.701,0.907,1.215,1.192
		c0.514,0.286,1.072,0.428,1.676,0.428c1.018,0,1.83-0.351,2.439-1.054c0.608-0.703,0.913-1.628,0.913-2.776
		c0-1.228-0.256-2.176-0.767-2.848C232.276,107.065,231.548,106.729,230.603,106.729z"/>
</g>
<g title="grades-6-8">
	<path class="offwhite-fill" filter="url(#innershadow)" d="M93.047,162.123H16.764c-2.433,0-4.745,1.061-6.332,2.905c-1.587,1.843-2.293,4.288-1.93,6.694
		c4.727,31.421,20.115,60.799,43.328,82.723c11.491,10.853,24.581,19.673,38.906,26.216c14.738,6.732,30.419,10.877,46.604,12.322
		c0.248,0.023,0.496,0.033,0.742,0.033c2.078,0,4.093-0.776,5.639-2.19c1.73-1.583,2.716-3.82,2.716-6.164v-74.99
		c0-3.973-2.798-7.396-6.691-8.187c-17.852-3.629-32.729-16.578-38.825-33.794C99.742,164.353,96.587,162.123,93.047,162.123
		L93.047,162.123z"/>
	<path d="M93.644,213.071c-0.494,0.002-0.871-0.166-1.196-0.531c-2.936-3.305-5.879-6.604-8.815-9.908
		c-0.077-0.087-0.147-0.218-0.148-0.329c-0.008-2.073-0.004-4.146-0.002-6.22c0-0.031,0.013-0.06,0.029-0.128
		c0.108,0,0.22,0,0.335,0c1.745,0,3.491-0.004,5.236,0.003c0.374,0.002,0.693-0.076,0.896-0.419c0.21-0.355,0.123-0.684-0.079-1.012
		c-0.316-0.512-0.616-1.035-0.935-1.547c-0.091-0.145-0.093-0.252-0.001-0.4c0.308-0.493,0.602-0.994,0.899-1.492
		c0.41-0.686,0.305-1.087-0.385-1.483c-2.519,0-5.036,0-7.555,0c-0.76,0.284-1.003,0.842-0.996,1.633
		c0.024,3.619,0.008,7.238,0.015,10.855c0.001,0.251-0.071,0.435-0.239,0.622c-2.948,3.268-5.893,6.539-8.831,9.814
		c-0.325,0.362-0.697,0.54-1.192,0.538c-3.269-0.012-6.539-0.005-9.809-0.008c-0.115,0-0.229-0.02-0.345-0.031
		c0,6.307,0,12.613,0,18.92c0.156,0.52,0.502,0.853,1.015,1.015c5.609,0,11.216,0,16.825,0c-0.004-1.333-0.01-2.665-0.013-3.997
		c-0.002-1.396-0.001-2.793,0-4.189c0.001-0.878,0.517-1.388,1.406-1.389c1.587-0.001,3.173-0.001,4.76,0
		c0.932,0,1.454,0.516,1.456,1.452c0.003,2.581,0.001,5.162,0.002,7.743c0,0.128,0.005,0.253,0.008,0.38c5.63,0,11.259,0,16.889,0
		c0.507-0.17,0.854-0.501,1.015-1.015c0-6.307,0-12.613,0-18.92c-0.126,0.01-0.251,0.031-0.376,0.031
		C100.224,213.066,96.935,213.06,93.644,213.071z M66.956,216.621c0.667-0.027,1.251,0.467,1.297,1.169
		c0.042,0.643,0.042,1.291,0.001,1.934c-0.042,0.678-0.648,1.161-1.33,1.13c-0.665-0.031-1.174-0.557-1.192-1.241
		c-0.007-0.296-0.001-0.592-0.001-0.888c-0.001-0.264-0.003-0.528-0.001-0.793C65.735,217.195,66.246,216.651,66.956,216.621z
		 M68.255,226.5c-0.041,0.673-0.663,1.174-1.329,1.137c-0.668-0.037-1.176-0.563-1.193-1.246c-0.008-0.296-0.001-0.592-0.001-0.887
		c-0.001-0.264-0.001-0.529-0.001-0.793c0.004-0.736,0.512-1.282,1.223-1.316c0.653-0.032,1.253,0.476,1.298,1.174
		C68.295,225.21,68.295,225.857,68.255,226.5z M91.983,216.623c0.681-0.023,1.249,0.499,1.296,1.21
		c0.021,0.305,0.004,0.612,0.004,0.918c0.001,0,0.003,0,0.004,0c0,0.286,0.006,0.57-0.001,0.855
		c-0.02,0.717-0.577,1.254-1.288,1.248c-0.695-0.005-1.234-0.538-1.247-1.251c-0.011-0.56-0.005-1.121-0.002-1.68
		C90.752,217.195,91.275,216.647,91.983,216.623z M73.337,226.488c-0.037,0.671-0.651,1.178-1.319,1.147
		c-0.664-0.029-1.184-0.557-1.205-1.235c-0.009-0.296-0.001-0.592-0.001-0.887c-0.001-0.275-0.003-0.549,0-0.824
		c0.006-0.725,0.537-1.277,1.245-1.296c0.66-0.018,1.243,0.499,1.281,1.195C73.372,225.22,73.372,225.857,73.337,226.488z
		 M73.34,219.701c-0.034,0.676-0.629,1.173-1.311,1.152c-0.666-0.02-1.192-0.543-1.214-1.219c-0.01-0.306-0.001-0.612-0.001-0.918
		h-0.001c0-0.264-0.001-0.529,0-0.793c0.005-0.718,0.503-1.255,1.204-1.3c0.676-0.043,1.278,0.465,1.32,1.178
		C73.374,218.432,73.372,219.068,73.34,219.701z M80.849,219.753c-0.06,0.638-0.607,1.101-1.258,1.1
		c-0.639-0.001-1.189-0.449-1.231-1.085c-0.045-0.683-0.049-1.373-0.004-2.055c0.041-0.639,0.626-1.103,1.266-1.09
		c0.635,0.014,1.16,0.47,1.22,1.106c0.033,0.345,0.005,0.695,0.005,1.044c0.001,0,0.004,0,0.005,0
		C80.854,219.099,80.881,219.428,80.849,219.753z M78.398,209.947c-0.044-2.027,1.657-3.789,3.695-3.829
		c2.159-0.042,3.875,1.621,3.92,3.802c0.041,2.003-1.665,3.769-3.684,3.812C80.16,213.776,78.447,212.127,78.398,209.947z
		 M86.057,219.761c-0.069,0.644-0.611,1.097-1.264,1.092c-0.649-0.004-1.193-0.472-1.229-1.124s-0.037-1.309-0.007-1.962
		c0.029-0.639,0.574-1.121,1.222-1.144c0.638-0.022,1.202,0.439,1.272,1.083c0.038,0.355,0.006,0.716,0.006,1.076
		c0.003,0,0.005,0,0.008,0C86.062,219.107,86.092,219.438,86.057,219.761z M93.276,226.487c-0.034,0.657-0.629,1.16-1.288,1.149
		c-0.661-0.012-1.205-0.535-1.236-1.202c-0.014-0.306-0.003-0.612-0.003-0.919c-0.001,0-0.001,0-0.002,0
		c0-0.275-0.001-0.549,0-0.824c0.006-0.725,0.538-1.278,1.245-1.297c0.66-0.018,1.245,0.501,1.282,1.193
		C93.307,225.219,93.307,225.855,93.276,226.487z M98.354,226.505c-0.036,0.652-0.644,1.153-1.301,1.133
		c-0.65-0.021-1.182-0.53-1.219-1.187c-0.018-0.316-0.003-0.634-0.003-0.95c-0.001,0-0.001,0-0.004,0
		c0-0.275-0.003-0.549,0.001-0.824c0.009-0.703,0.535-1.249,1.231-1.279c0.655-0.029,1.256,0.491,1.295,1.178
		C98.388,225.214,98.39,225.863,98.354,226.505z M98.354,219.725c-0.035,0.658-0.629,1.145-1.299,1.129
		c-0.651-0.015-1.184-0.52-1.222-1.179c-0.018-0.316-0.003-0.633-0.003-0.95c-0.002-0.001-0.004-0.001-0.004-0.001
		c0-0.274-0.003-0.549,0.001-0.823c0.008-0.706,0.533-1.249,1.228-1.277c0.667-0.027,1.259,0.479,1.297,1.17
		C98.389,218.437,98.39,219.084,98.354,219.725z"/>
	<path d="M83.446,225.953c-0.883,0-1.703,0-2.521,0c-0.01,0.05-0.026,0.081-0.026,0.11c0.001,2.302,0.004,4.604,0.007,6.906
		c0.847,0,1.693,0,2.54,0C83.446,230.631,83.446,228.292,83.446,225.953z"/>
	<path d="M70.01,210.517c0.15-0.001,0.337-0.113,0.442-0.229c1.509-1.66,3.007-3.328,4.507-4.996
		c1.124-1.25,2.248-2.501,3.428-3.813c-0.173,0-0.265,0-0.357,0c-4.729,0-9.459,0-14.189,0c-0.811,0-1.252,0.367-1.416,1.16
		c-0.329,1.582-0.664,3.163-0.994,4.747c-0.215,1.031-0.426,2.064-0.644,3.117c0.11,0.009,0.19,0.023,0.271,0.023
		C64.043,210.527,67.028,210.53,70.01,210.517z"/>
	<path d="M86.038,201.5c0.078,0.098,0.128,0.165,0.182,0.227c2.543,2.849,5.089,5.697,7.626,8.551
		c0.164,0.183,0.326,0.254,0.57,0.254c2.942-0.008,5.883-0.005,8.824-0.005c0.115,0,0.229,0,0.384,0
		c-0.016-0.095-0.029-0.173-0.029-0.173c0.083-0.082-3.113-7.87-3.135-7.789c-0.151-0.717-0.631-1.085-1.387-1.085
		c-4.751-0.001-7.987-0.001-12.738,0C86.248,201.479,86.159,201.492,86.038,201.5z"/>
	<path d="M82.201,208.655c-0.69,0.004-1.269,0.589-1.263,1.279c0.004,0.703,0.571,1.261,1.274,1.259
		c0.7-0.002,1.266-0.572,1.264-1.271C83.474,209.232,82.891,208.65,82.201,208.655z"/>
	<path d="M114.196,213.503c0-0.159,0-0.319,0-0.475c-2.772,0-5.477,0-8.228,0c0,0.198,0,0.377,0,0.553
		c0,4.682,0.006,13.119-0.008,17.801c-0.002,0.549-0.122,1.097-0.186,1.646c2.503,0,5.005,0,7.508,0
		c0.715-0.338,0.93-0.909,0.926-1.683C114.183,226.65,114.196,218.198,114.196,213.503z M108.849,217.744
		c0.043-0.621,0.542-1.104,1.166-1.15c0.568-0.041,1.183,0.352,1.252,0.934c0.077,0.652,0.081,1.328-0.002,1.98
		c-0.076,0.606-0.676,0.966-1.297,0.914c-0.601-0.05-1.078-0.529-1.119-1.141c-0.018-0.262-0.003-0.527-0.003-0.79
		C108.845,218.242,108.831,217.992,108.849,217.744z M111.299,226.081c-0.064,0.65-0.668,1.102-1.281,1.06
		c-0.658-0.045-1.146-0.553-1.176-1.229c-0.011-0.235-0.002-0.471-0.002-0.706c0.001,0,0.003,0,0.004,0
		c0-0.235-0.009-0.471,0.002-0.706c0.032-0.64,0.504-1.136,1.118-1.186c0.661-0.054,1.241,0.334,1.323,0.988
		C111.36,224.888,111.358,225.493,111.299,226.081z"/>
	<path d="M115.108,209.433c-1.743-0.864-3.494-2.284-5.243-3.146c-0.289-0.143-0.635-0.209-1.05-0.206
		c-0.904,0.005-4.546,0.002-5.304,0.002c0.19,0.104,0.379,0.384,0.379,0.384l2.096,4.046c0,0,0.342,0,0.494,0
		c2.473,0,4.947-0.011,7.42,0.005c0.77,0.005,1.315-0.113,1.634-0.461c0-0.109,0-0.22,0-0.328
		C115.393,209.631,115.278,209.518,115.108,209.433z"/>
	<path d="M58.163,213.581c0-0.177,0-0.355,0-0.553c-2.752,0-5.457,0-8.228,0c0,0.155,0,0.316,0,0.475
		c0,4.696,0.012,13.147-0.012,17.843c-0.004,0.775,0.211,1.345,0.926,1.684c2.503,0,5.005,0,7.508,0
		c-0.064-0.548-0.185-1.097-0.186-1.646C58.156,226.701,58.163,218.263,58.163,213.581z M55.287,225.912
		c-0.029,0.676-0.519,1.183-1.176,1.229c-0.613,0.042-1.216-0.41-1.281-1.06c-0.059-0.588-0.059-1.192,0.013-1.779
		c0.081-0.656,0.662-1.043,1.323-0.988c0.613,0.05,1.085,0.547,1.117,1.186c0.012,0.234,0.002,0.471,0.002,0.706
		c0.001,0,0.003,0,0.004,0C55.289,225.441,55.297,225.678,55.287,225.912z M55.283,219.281c-0.041,0.611-0.52,1.091-1.119,1.141
		c-0.623,0.051-1.22-0.307-1.297-0.914c-0.083-0.651-0.081-1.327-0.001-1.979c0.069-0.581,0.684-0.976,1.252-0.935
		c0.625,0.045,1.122,0.53,1.166,1.15c0.018,0.247,0.003,0.498,0.003,0.748C55.285,218.754,55.299,219.019,55.283,219.281z"/>
	<path d="M55.315,206.081c-0.415-0.001-0.761,0.064-1.05,0.206c-1.749,0.862-3.5,2.281-5.243,3.145
		c-0.17,0.084-0.286,0.196-0.425,0.296c0,0.109,0,0.22,0,0.328c0.319,0.347,0.864,0.465,1.634,0.461
		c2.473-0.016,4.946-0.005,7.42-0.005c0.152,0,0.493,0,0.493,0l1.528-4.046c0,0,0.19-0.28,0.379-0.384
		C59.294,206.082,56.218,206.086,55.315,206.081z"/>
	<path d="M72.721,238.104c-0.503-0.383-1.078-0.574-1.723-0.574c-0.624,0-1.189,0.173-1.696,0.519
		c-0.506,0.346-0.9,0.832-1.184,1.459c-0.283,0.626-0.424,1.317-0.424,2.073c0,1.169,0.251,2.105,0.752,2.804s1.187,1.05,2.057,1.05
		c0.561,0,1.078-0.242,1.549-0.724c-0.089,0.855-0.353,1.505-0.79,1.951c-0.438,0.445-1.092,0.671-1.963,0.676H69.15v1.919h0.228
		c1.574-0.021,2.789-0.581,3.646-1.679c0.857-1.098,1.286-2.623,1.286-4.574v-0.811c0-0.912-0.139-1.727-0.417-2.442
		C73.615,239.036,73.224,238.486,72.721,238.104z M72.084,242.807c-0.247,0.587-0.585,0.881-1.015,0.881
		c-0.362,0-0.645-0.19-0.85-0.57c-0.205-0.38-0.308-0.901-0.308-1.562c0-0.608,0.099-1.124,0.296-1.546
		c0.196-0.422,0.454-0.633,0.775-0.633c0.326,0,0.59,0.215,0.794,0.641c0.205,0.428,0.308,1.016,0.308,1.766
		C72.084,241.785,72.084,242.807,72.084,242.807z"/>
	<rect x="76.103" y="243.303" width="3.846" height="1.856"/>
	<polygon points="82.224,239.378 82.224,241.234 84.402,240.393 84.402,249.14 86.636,249.14 86.636,237.671 86.4,237.671 	"/>
	<path d="M94.212,245.191c0.817-0.971,1.383-1.787,1.695-2.45c0.312-0.664,0.468-1.318,0.468-1.963c0-1.038-0.281-1.84-0.845-2.403
		c-0.564-0.563-1.357-0.845-2.38-0.845c-0.666,0-1.262,0.161-1.789,0.484c-0.527,0.322-0.936,0.775-1.228,1.357
		c-0.29,0.582-0.437,1.224-0.437,1.927h2.234c0-0.608,0.106-1.08,0.319-1.416c0.213-0.335,0.5-0.503,0.861-0.503
		c0.331,0,0.584,0.145,0.759,0.433c0.175,0.289,0.263,0.687,0.263,1.195c0,0.377-0.093,0.772-0.279,1.184
		c-0.186,0.412-0.476,0.889-0.87,1.435l-3.099,3.941v1.574h6.749v-1.849h-3.893L94.212,245.191z"/>
</g>
<g title="grades-9-12">
	<path class="offwhite-fill" filter="url(#innershadow)" d="M283.698,170.478h0.005 M283.702,162.123h-0.004h-76.283c-3.539,0-6.694,2.23-7.876,5.566
		c-5.86,16.55-19.505,28.984-36.499,33.26c-3.714,0.935-6.316,4.273-6.316,8.102v75.342c0,2.374,1.01,4.636,2.778,6.221
		c1.54,1.381,3.529,2.134,5.577,2.134c0.302,0,0.605-0.017,0.909-0.049c64.435-7.052,116.186-56.676,125.934-120.726
		c0.087-0.484,0.134-0.985,0.134-1.495C292.055,165.863,288.317,162.123,283.702,162.123L283.702,162.123z M283.698,178.833h0.005
		H283.698L283.698,178.833z"/>
	<path d="M226.894,226.515c-0.821,0-1.581,0-2.34,0c-0.012,0.046-0.025,0.073-0.025,0.101c0.002,2.137,0.005,4.273,0.007,6.41
		c0.787,0,1.571,0,2.358,0.001C226.894,230.856,226.894,228.686,226.894,226.515z"/>
	<path d="M214.422,212.186c0.139-0.001,0.311-0.104,0.411-0.212c1.4-1.541,2.791-3.09,4.184-4.637
		c1.044-1.16,2.087-2.322,3.182-3.539c-0.159,0-0.245,0-0.331,0c-4.39,0-8.78-0.001-13.17,0c-0.752,0-1.162,0.34-1.315,1.077
		c-0.305,1.469-0.616,2.937-0.923,4.406c-0.2,0.957-0.397,1.916-0.598,2.893c0.101,0.009,0.176,0.022,0.251,0.022
		C208.883,212.196,211.652,212.198,214.422,212.186z"/>
	<path d="M229.299,203.815c0.074,0.091,0.118,0.155,0.169,0.211c2.361,2.645,4.724,5.288,7.078,7.937
		c0.152,0.169,0.302,0.236,0.529,0.236c2.73-0.007,5.46-0.005,8.191-0.005c0.107,0,0.214,0,0.356,0
		c-0.015-0.088-0.02-0.125-0.028-0.161c-0.501-2.41-0.998-4.822-1.504-7.23c-0.14-0.665-0.587-1.007-1.288-1.007
		c-4.409-0.001-8.819-0.001-13.229,0C229.492,203.796,229.41,203.807,229.299,203.815z"/>
	<path d="M225.737,210.457c-0.641,0.003-1.176,0.547-1.172,1.187c0.005,0.652,0.53,1.171,1.183,1.169
		c0.649-0.002,1.175-0.531,1.173-1.179C226.919,210.992,226.376,210.453,225.737,210.457z"/>
	<path d="M245.518,214.553c-3.053,0.001-6.107-0.005-9.16,0.006c-0.458,0.001-0.808-0.155-1.109-0.493
		c-2.726-3.068-5.458-6.13-8.183-9.197c-0.072-0.08-0.137-0.202-0.137-0.306c-0.007-1.925-0.003-3.849-0.002-5.773
		c0-0.028,0.013-0.055,0.028-0.118c0.1,0,0.206,0,0.311,0c1.619,0,3.24-0.005,4.86,0.002c0.347,0.001,0.643-0.072,0.831-0.389
		c0.195-0.328,0.115-0.634-0.074-0.939c-0.293-0.475-0.571-0.961-0.867-1.435c-0.084-0.135-0.086-0.234-0.001-0.37
		c0.286-0.457,0.558-0.923,0.835-1.386c0.381-0.637,0.283-1.009-0.358-1.376c-2.338,0-4.675,0-7.012,0
		c-0.706,0.264-0.93,0.782-0.925,1.516c0.022,3.358,0.008,6.718,0.014,10.076c0,0.234-0.066,0.405-0.221,0.577
		c-2.737,3.033-5.469,6.07-8.197,9.11c-0.302,0.337-0.647,0.502-1.107,0.499c-3.034-0.01-6.07-0.005-9.104-0.007
		c-0.107,0-0.213-0.018-0.32-0.029c0,5.854,0,11.707,0,17.561c0.145,0.482,0.466,0.79,0.942,0.942c5.206,0,10.411,0,15.617,0
		c-0.004-1.238-0.009-2.475-0.013-3.71c-0.002-1.295-0.001-2.593,0-3.888c0.001-0.814,0.48-1.288,1.304-1.289
		c1.473-0.001,2.945,0,4.418,0c0.866,0,1.351,0.479,1.352,1.348c0.002,2.396,0.001,4.792,0.002,7.187
		c0,0.118,0.005,0.235,0.008,0.353c5.226,0,10.45,0,15.676,0c0.47-0.158,0.79-0.465,0.942-0.942c0-5.854,0-11.707,0-17.561
		C245.75,214.535,245.635,214.553,245.518,214.553z M211.586,217.854c0.619-0.025,1.161,0.432,1.204,1.085
		c0.039,0.595,0.039,1.197,0.001,1.793c-0.039,0.628-0.602,1.078-1.234,1.048c-0.617-0.028-1.09-0.517-1.106-1.152
		c-0.006-0.275-0.001-0.549-0.001-0.824c-0.001-0.244-0.002-0.489-0.001-0.734C210.454,218.386,210.927,217.881,211.586,217.854z
		 M212.792,227.021c-0.038,0.626-0.616,1.09-1.234,1.055c-0.619-0.035-1.092-0.524-1.108-1.157
		c-0.007-0.275-0.001-0.549-0.001-0.824c-0.001-0.245-0.002-0.49,0.001-0.736c0.003-0.682,0.475-1.189,1.136-1.222
		c0.607-0.029,1.163,0.442,1.204,1.09C212.828,225.823,212.828,226.425,212.792,227.021z M234.817,217.853
		c0.632-0.021,1.159,0.464,1.203,1.123c0.02,0.284,0.003,0.569,0.003,0.852c0.001,0,0.002,0,0.003,0c0,0.265,0.006,0.53-0.001,0.792
		c-0.018,0.665-0.536,1.164-1.195,1.159c-0.645-0.006-1.145-0.501-1.158-1.161c-0.009-0.519-0.005-1.039-0.001-1.558
		C233.673,218.384,234.159,217.874,234.817,217.853z M217.51,227.011c-0.035,0.622-0.604,1.094-1.225,1.066
		c-0.617-0.028-1.099-0.518-1.118-1.146c-0.008-0.275-0.001-0.549-0.001-0.824c0-0.255-0.002-0.51,0-0.766
		c0.006-0.673,0.499-1.186,1.156-1.203c0.611-0.017,1.154,0.464,1.189,1.108C217.541,225.834,217.542,226.424,217.51,227.011z
		 M217.511,220.71c-0.031,0.626-0.584,1.088-1.217,1.07c-0.618-0.018-1.106-0.503-1.127-1.132c-0.009-0.284-0.002-0.568-0.002-0.852
		h-0.001c0-0.245-0.001-0.49,0.001-0.736c0.005-0.667,0.467-1.165,1.117-1.206c0.626-0.04,1.187,0.432,1.226,1.093
		C217.544,219.533,217.541,220.124,217.511,220.71z M224.482,220.758c-0.055,0.592-0.564,1.022-1.167,1.021
		c-0.593-0.001-1.104-0.415-1.142-1.007c-0.04-0.634-0.045-1.273-0.005-1.908c0.039-0.593,0.58-1.024,1.175-1.011
		c0.59,0.012,1.076,0.437,1.133,1.027c0.03,0.32,0.005,0.646,0.005,0.969c0.002,0,0.003,0,0.005,0
		C224.488,220.151,224.512,220.458,224.482,220.758z M222.207,211.655c-0.04-1.881,1.537-3.517,3.431-3.554
		c2.003-0.039,3.596,1.505,3.638,3.529c0.038,1.859-1.545,3.498-3.42,3.538C223.842,215.211,222.252,213.681,222.207,211.655z
		 M229.316,220.764c-0.063,0.596-0.568,1.017-1.174,1.014c-0.602-0.003-1.107-0.438-1.141-1.044
		c-0.035-0.604-0.035-1.216-0.007-1.821c0.027-0.592,0.532-1.04,1.134-1.061c0.593-0.02,1.116,0.409,1.181,1.006
		c0.035,0.33,0.006,0.666,0.006,0.998c0.002,0,0.005,0,0.008,0C229.322,220.159,229.349,220.466,229.316,220.764z M236.016,227.01
		c-0.031,0.609-0.583,1.077-1.195,1.066c-0.614-0.011-1.119-0.496-1.147-1.116c-0.014-0.284-0.002-0.569-0.002-0.853
		c-0.001,0-0.001,0-0.002,0c0-0.256-0.002-0.51,0.001-0.766c0.006-0.672,0.5-1.186,1.156-1.204c0.612-0.017,1.156,0.466,1.189,1.108
		C236.047,225.832,236.048,226.424,236.016,227.01z M238.385,219.803c0-0.254-0.002-0.509,0-0.764
		c0.008-0.655,0.493-1.159,1.141-1.186c0.619-0.026,1.169,0.445,1.204,1.085c0.032,0.596,0.033,1.196,0.001,1.793
		c-0.033,0.609-0.583,1.062-1.205,1.048c-0.604-0.014-1.099-0.482-1.134-1.094c-0.017-0.294-0.002-0.588-0.002-0.882
		C238.388,219.803,238.387,219.803,238.385,219.803z M240.73,227.025c-0.032,0.605-0.597,1.07-1.208,1.051
		c-0.603-0.02-1.097-0.491-1.131-1.102c-0.017-0.293-0.002-0.588-0.002-0.882c-0.001,0-0.002,0-0.003,0c0-0.255-0.002-0.51,0-0.766
		c0.008-0.653,0.496-1.159,1.143-1.188c0.608-0.025,1.166,0.456,1.201,1.094C240.763,225.827,240.763,226.428,240.73,227.025z"/>
	<path d="M219.865,241.47c-0.718,0-1.316,0.272-1.793,0.818c0.104-0.891,0.402-1.585,0.893-2.08c0.49-0.496,1.153-0.746,1.986-0.752
		h0.126v-1.887h-0.346c-0.996,0.005-1.868,0.263-2.615,0.775c-0.747,0.512-1.319,1.241-1.715,2.191
		c-0.396,0.949-0.594,2.056-0.594,3.319v0.826c0,1.411,0.313,2.533,0.94,3.367c0.626,0.834,1.459,1.25,2.497,1.25
		c0.644,0,1.223-0.167,1.735-0.499c0.511-0.333,0.908-0.801,1.192-1.404c0.283-0.604,0.424-1.279,0.424-2.029
		c0-1.18-0.247-2.124-0.743-2.831C221.356,241.823,220.693,241.47,219.865,241.47z M220.054,246.869
		c-0.215,0.386-0.5,0.579-0.857,0.579c-0.352,0-0.635-0.199-0.85-0.598c-0.215-0.4-0.322-1.004-0.322-1.813v-0.804
		c0.094-0.262,0.237-0.483,0.428-0.661c0.192-0.179,0.429-0.268,0.712-0.268c0.362,0,0.654,0.193,0.878,0.579
		s0.335,0.887,0.335,1.501C220.376,245.987,220.269,246.482,220.054,246.869z"/>
	<rect x="224.137" y="243.303" width="3.846" height="1.856"/>
	<path d="M234.858,243.24c0.414-0.257,0.74-0.601,0.975-1.031c0.236-0.43,0.355-0.923,0.355-1.479c0-0.991-0.278-1.772-0.834-2.344
		s-1.311-0.857-2.266-0.857c-0.944,0-1.696,0.283-2.258,0.85c-0.562,0.566-0.842,1.351-0.842,2.352c0,0.557,0.118,1.049,0.354,1.479
		c0.236,0.43,0.564,0.774,0.984,1.031c-0.478,0.262-0.852,0.629-1.126,1.101c-0.272,0.472-0.409,1.025-0.409,1.66
		c0,1.018,0.299,1.821,0.897,2.41c0.598,0.59,1.402,0.885,2.415,0.885c1.012,0,1.811-0.295,2.399-0.885
		c0.587-0.59,0.881-1.393,0.881-2.41c0-0.635-0.137-1.186-0.41-1.656C235.702,243.876,235.33,243.507,234.858,243.24z
		 M232.443,239.767c0.147-0.26,0.362-0.389,0.645-0.389c0.299,0,0.52,0.134,0.664,0.401c0.145,0.268,0.217,0.624,0.217,1.069
		c0,0.451-0.071,0.814-0.213,1.089c-0.142,0.275-0.359,0.414-0.652,0.414c-0.294,0-0.515-0.138-0.661-0.414
		c-0.146-0.276-0.22-0.638-0.22-1.089C232.223,240.387,232.296,240.026,232.443,239.767z M233.879,247.02
		c-0.181,0.286-0.439,0.429-0.775,0.429c-0.341,0-0.607-0.142-0.799-0.429c-0.191-0.286-0.287-0.682-0.287-1.192
		s0.096-0.908,0.287-1.195c0.192-0.289,0.452-0.432,0.783-0.432c0.33,0,0.59,0.144,0.779,0.432c0.189,0.289,0.283,0.687,0.283,1.195
		S234.06,246.734,233.879,247.02z"/>
</g>


<g title="grades-k-2-selected" class="grade-select" ng-class="{'radio-selected' : gradek2Select==true}" ng-model="gradek2Select" ng-click="gradesk2Selected()">
	<path class="grade-level-selected" filter="url(#highlightshadow)" d="M138.083,7.448c-0.247,0-0.496,0.011-0.743,0.033C103.047,10.54,70.959,25.93,46.988,50.813
		C22.951,75.767,8.776,108.53,7.076,143.071c-0.112,2.284,0.716,4.514,2.294,6.172c1.577,1.657,3.764,2.594,6.051,2.594h74.535
		c4.258,0,7.835-3.202,8.304-7.436c1.227-11.075,5.872-21.284,13.436-29.526c7.522-8.199,17.223-13.696,28.052-15.897
		c3.893-0.791,6.691-4.215,6.691-8.187v-74.99c0-2.345-0.986-4.582-2.716-6.164C142.176,8.223,140.161,7.448,138.083,7.448
		L138.083,7.448z"/>
	<circle cx="150" cy="150" r="25"/>
	<path d="M128.601,124.919c-1.034-1.034-2.711-1.034-3.745,0c-1.034,1.034-1.034,2.711,0,3.746c1.034,1.034,2.711,1.034,3.745,0
		C129.635,127.631,129.636,125.954,128.601,124.919z"/>
	<path class="white-fill" d="M80.344,98.342c0.734-0.301,0.97-0.854,0.968-1.634c-0.018-7.879-0.017-15.759-0.001-23.639
		c0.002-0.67-0.202-1.17-0.679-1.64c-2.413-2.382-4.806-4.785-7.191-7.196c-0.154-0.155-0.251-0.426-0.265-0.65
		c-0.038-0.585-0.013-1.174-0.013-1.807c0.194,0,0.345,0,0.496,0c2.055,0.001,4.109,0.004,6.163,0.002
		c1.001-0.001,1.478-0.473,1.481-1.468c0.005-1.196-0.029-2.393,0.008-3.588c0.024-0.779-0.23-1.335-0.967-1.636
		c-2.929,0-5.857,0-8.787,0c-0.707,0.329-0.953,0.881-0.945,1.656c0.034,2.293,0.019,4.587-0.001,6.881
		c-0.001,0.207-0.114,0.463-0.261,0.611c-2.407,2.428-4.821,4.849-7.252,7.254c-0.431,0.428-0.62,0.887-0.62,1.495
		c0.013,7.908,0.015,15.815-0.002,23.723c-0.001,0.779,0.234,1.334,0.968,1.636c1.492,0,2.985,0,4.477,0
		c-0.001-2.674-0.007-5.348-0.003-8.023c0.001-0.758,0.514-1.283,1.27-1.286c1.802-0.011,3.604-0.01,5.405,0.003
		c0.759,0.006,1.271,0.524,1.272,1.283c0.006,2.674-0.001,5.348-0.003,8.023C77.36,98.342,78.852,98.342,80.344,98.342z
		 M70.445,84.908c-0.04,0.717-0.614,1.229-1.31,1.208c-0.679-0.022-1.192-0.55-1.214-1.256c-0.006-0.224-0.001-0.449-0.001-0.674
		c0-0.225-0.005-0.449,0.001-0.672c0.02-0.718,0.556-1.268,1.243-1.283c0.657-0.013,1.238,0.514,1.28,1.203
		C70.472,83.924,70.471,84.418,70.445,84.908z M67.921,75.344c0.006-2.19,1.786-3.962,3.979-3.961
		c2.195,0.002,3.97,1.774,3.973,3.967c0.003,2.194-1.767,3.978-3.957,3.984C69.705,79.342,67.915,77.554,67.921,75.344z
		 M74.627,86.115c-0.697,0.008-1.253-0.514-1.283-1.235c-0.02-0.476-0.022-0.954,0.004-1.43c0.038-0.692,0.605-1.219,1.268-1.216
		c0.689,0.004,1.232,0.55,1.255,1.268c0.007,0.239,0.001,0.477,0.001,0.715c0.001,0.211,0.006,0.421-0.001,0.63
		C75.851,85.575,75.327,86.106,74.627,86.115z"/>
	<path class="white-fill" d="M73.332,91.585c-0.97,0-1.902,0-2.872,0c0,2.269,0,4.514,0,6.758c0.958,0,1.915,0,2.872,0
		C73.332,96.099,73.332,93.854,73.332,91.585z"/>
	<path class="white-fill" d="M71.899,73.919c-0.807-0.001-1.442,0.632-1.443,1.438c-0.001,0.8,0.644,1.447,1.44,1.447c0.8,0,1.442-0.642,1.443-1.443
		C73.34,74.557,72.703,73.92,71.899,73.919z"/>
	<polygon class="white-fill" points="71.124,102.804 68.293,102.804 66.16,106.564 65.429,107.799 65.429,102.804 63.116,102.804 63.116,114.257
		65.429,114.257 65.429,110.985 66.341,109.837 68.434,114.257 71.179,114.257 67.844,107.838 	"/>
	<rect class="white-fill" x="70.786" y="108.421" width="3.846" height="1.856"/>
	<path class="white-fill" d="M79.273,112.409l1.471-2.1c0.817-0.971,1.383-1.787,1.695-2.45c0.312-0.664,0.468-1.318,0.468-1.963
		c0-1.039-0.281-1.839-0.845-2.403c-0.564-0.564-1.357-0.846-2.38-0.846c-0.666,0-1.262,0.161-1.789,0.484
		c-0.527,0.323-0.937,0.775-1.228,1.357c-0.29,0.582-0.437,1.224-0.437,1.927h2.234c0-0.608,0.106-1.08,0.318-1.416
		c0.213-0.335,0.5-0.503,0.861-0.503c0.331,0,0.584,0.144,0.759,0.433c0.176,0.29,0.263,0.688,0.263,1.196
		c0,0.377-0.093,0.772-0.279,1.184c-0.186,0.412-0.476,0.889-0.87,1.436l-3.099,3.94v1.573h6.749v-1.849h-3.892V112.409z"/>
	<path class="white-fill" d="M159.133,145.529l-8.237,14.963c0,0,0,0.001-0.001,0.001c-0.045,0.082-0.098,0.16-0.154,0.238 c-0.014,0.02-0.029,0.038-0.044,0.057c-0.043,0.055-0.09,0.107-0.139,0.158c-0.017,0.018-0.034,0.037-0.052,0.054 c-0.005,0.005-0.009,0.01-0.014,0.014c-0.059,0.057-0.122,0.108-0.186,0.157c-0.018,0.014-0.037,0.025-0.055,0.038 c-0.058,0.04-0.116,0.079-0.177,0.113c-0.022,0.013-0.044,0.024-0.065,0.036c-0.068,0.036-0.138,0.068-0.209,0.096 c-0.012,0.005-0.023,0.01-0.035,0.014c-0.085,0.032-0.171,0.057-0.259,0.077c-0.019,0.005-0.037,0.007-0.055,0.011 c-0.069,0.014-0.138,0.025-0.208,0.032c-0.026,0.003-0.053,0.006-0.079,0.007c-0.08,0.005-0.16,0.008-0.24,0.004 c-0.007-0.001-0.015,0.001-0.023,0.001c-0.021-0.001-0.041-0.005-0.062-0.007c-0.049-0.004-0.099-0.008-0.148-0.016 c-0.03-0.005-0.06-0.012-0.09-0.017c-0.044-0.008-0.086-0.018-0.129-0.029c-0.029-0.007-0.056-0.016-0.084-0.025 c-0.047-0.014-0.093-0.031-0.14-0.048c-0.023-0.009-0.046-0.017-0.068-0.027c-0.056-0.024-0.111-0.05-0.165-0.079 c-0.01-0.005-0.021-0.009-0.031-0.015c-0.003-0.002-0.007-0.004-0.01-0.006c-0.047-0.025-0.092-0.054-0.136-0.084 c-0.016-0.011-0.032-0.02-0.048-0.031c-0.032-0.023-0.063-0.047-0.094-0.072c-0.026-0.02-0.053-0.04-0.079-0.062 c-0.011-0.009-0.021-0.02-0.032-0.03c-0.043-0.038-0.085-0.077-0.124-0.119l-4.814-5.076c-0.814-0.859-0.779-2.215,0.08-3.03 c0.859-0.814,2.215-0.779,3.03,0.08l2.795,2.948l6.824-12.395c0.571-1.037,1.875-1.415,2.911-0.844 C159.327,143.188,159.704,144.492,159.133,145.529z"/>
</g>
<g title="grades-3-5-selected" class="grade-select" ng-class="{'radio-selected' : grade35Select==true}" ng-model="grade35Select" ng-click="grades35Selected()">
	<path class="grade-level-selected" filter="url(#highlightshadow)" d="M165.079,7.713c-2.048,0-4.037,0.754-5.577,2.134c-1.767,1.585-2.778,3.847-2.778,6.221v75.342
		c0,3.829,2.603,7.168,6.316,8.102c21.037,5.294,36.775,23.334,39.163,44.889c0.469,4.233,4.046,7.436,8.304,7.436h74.535
		c2.287,0,4.475-0.938,6.051-2.594c1.577-1.657,2.406-3.887,2.294-6.172c-1.677-34.044-15.516-66.459-38.971-91.273
		c-23.359-24.713-54.763-40.352-88.427-44.036C165.684,7.731,165.381,7.713,165.079,7.713L165.079,7.713z"/>
	<circle cx="150" cy="150" r="25"/>
	<path d="M175.113,124.919c-1.034-1.034-2.711-1.034-3.745,0c-1.034,1.034-1.034,2.711,0,3.746c1.034,1.034,2.711,1.034,3.745,0
		C176.147,127.631,176.147,125.954,175.113,124.919z"/>
	<path class="white-fill" d="M227.066,98.418c1.495,0,2.991,0,4.486,0c0.736-0.301,0.972-0.857,0.97-1.637c-0.017-7.893-0.016-15.787-0.001-23.68
		c0.002-0.671-0.202-1.171-0.681-1.643c-2.418-2.387-4.814-4.795-7.204-7.208c-0.154-0.156-0.251-0.427-0.265-0.652
		c-0.036-0.586-0.012-1.175-0.012-1.809c0.195,0,0.346,0,0.497,0c2.059,0.001,4.116,0.003,6.174,0.001
		c1.003-0.001,1.481-0.473,1.485-1.47c0.004-1.199-0.029-2.397,0.008-3.594c0.024-0.78-0.23-1.337-0.97-1.638
		c-2.933,0-5.868,0-8.802,0c-0.708,0.33-0.954,0.882-0.946,1.661c0.035,2.297,0.018,4.595-0.001,6.893
		c-0.002,0.207-0.115,0.464-0.261,0.611c-2.411,2.432-4.829,4.858-7.265,7.267c-0.433,0.429-0.622,0.889-0.622,1.498
		c0.012,7.922,0.014,15.843-0.002,23.764c-0.002,0.779,0.234,1.335,0.97,1.638c1.495,0,2.991,0,4.486,0
		c-0.002-2.679-0.008-5.357-0.003-8.037c0.001-0.759,0.515-1.284,1.273-1.289c1.805-0.011,3.609-0.01,5.414,0.003
		c0.761,0.004,1.273,0.525,1.275,1.285C227.076,93.06,227.068,95.738,227.066,98.418z M221.637,84.959
		c-0.04,0.718-0.615,1.231-1.312,1.21c-0.68-0.022-1.194-0.551-1.216-1.257c-0.006-0.224-0.001-0.45-0.001-0.675
		s-0.005-0.451,0.001-0.676c0.019-0.718,0.556-1.269,1.245-1.283c0.659-0.012,1.24,0.515,1.282,1.206
		C221.664,83.974,221.664,84.469,221.637,84.959z M219.109,75.379c0.005-2.193,1.788-3.969,3.985-3.967
		c2.2,0.001,3.977,1.775,3.979,3.973c0.003,2.198-1.77,3.984-3.964,3.992C220.897,79.385,219.104,77.593,219.109,75.379z
		 M225.826,86.169c-0.697,0.009-1.254-0.514-1.284-1.237c-0.019-0.478-0.022-0.957,0.005-1.433c0.039-0.693,0.606-1.221,1.271-1.217
		c0.689,0.003,1.234,0.55,1.256,1.269c0.007,0.239,0.001,0.478,0.001,0.717c0.001,0.211,0.005,0.422-0.002,0.632
		C227.052,85.629,226.526,86.16,225.826,86.169z"/>
	<path class="white-fill" d="M243.401,82.421c0-0.162,0-0.324,0-0.481c-2.812,0-5.555,0-8.348,0c0,0.202,0,0.382,0,0.562
		c0,4.749,0.006,9.498-0.009,14.248c-0.002,0.557-0.124,1.113-0.189,1.669c2.539,0,5.078,0,7.618,0
		c0.724-0.344,0.943-0.923,0.94-1.708C243.389,91.947,243.401,87.183,243.401,82.421z M237.974,85.985
		c0.044-0.63,0.549-1.12,1.183-1.166c0.576-0.041,1.201,0.358,1.27,0.948c0.079,0.662,0.082,1.348-0.002,2.008
		c-0.077,0.615-0.685,0.979-1.316,0.928c-0.607-0.049-1.094-0.538-1.135-1.158c-0.017-0.265-0.003-0.533-0.003-0.8
		C237.972,86.491,237.958,86.238,237.974,85.985z M240.462,94.444c-0.067,0.659-0.679,1.118-1.3,1.075
		c-0.667-0.046-1.163-0.561-1.193-1.246c-0.01-0.238-0.002-0.477-0.002-0.716c0.002,0,0.002,0,0.004,0
		c0-0.239-0.009-0.478,0.002-0.717c0.033-0.648,0.512-1.152,1.133-1.202c0.67-0.054,1.259,0.338,1.342,1.003
		C240.523,93.233,240.522,93.848,240.462,94.444z"/>
	<path class="white-fill" d="M211.13,82.456c0-0.166,0-0.332,0-0.516c-2.802,0-5.556,0-8.349,0c0,0.188,0,0.355,0,0.521c0,4.75,0.011,9.499-0.012,14.25
		c-0.004,0.787,0.217,1.364,0.941,1.707c2.539,0,5.078,0,7.618,0c-0.065-0.543-0.184-1.085-0.185-1.628
		C211.127,92.012,211.131,87.233,211.13,82.456z M208.207,94.344c-0.044,0.636-0.538,1.121-1.174,1.174
		c-0.569,0.047-1.204-0.355-1.275-0.94c-0.08-0.661-0.086-1.346-0.005-2.008c0.074-0.614,0.68-0.983,1.31-0.937
		c0.605,0.045,1.099,0.533,1.144,1.151c0.019,0.265,0.003,0.533,0.003,0.8C208.211,93.838,208.225,94.091,208.207,94.344z
		 M208.208,87.54c-0.043,0.629-0.522,1.112-1.137,1.162c-0.648,0.053-1.253-0.334-1.329-0.976c-0.075-0.637-0.068-1.297,0.006-1.934
		c0.069-0.595,0.673-1.002,1.257-0.971c0.636,0.034,1.152,0.521,1.2,1.153c0.02,0.267,0.003,0.535,0.003,0.804
		c0.001,0,0.001,0,0.001,0C208.211,87.033,208.225,87.288,208.208,87.54z"/>
	<path class="white-fill" d="M244.327,77.16c-1.768-1.781-3.545-3.552-5.319-5.326c-0.294-0.294-0.644-0.43-1.065-0.425
		c-0.917,0.009-1.832,0.001-2.749,0.004c-0.104,0-0.207,0.02-0.22,0.022c0.174,2.662,0.022,5.294,0.098,7.948
		c0.193,0,0.347,0,0.501,0c2.51,0,5.018-0.02,7.527,0.012c0.78,0.01,1.334-0.232,1.658-0.949c0-0.226,0-0.452,0.002-0.676
		C244.615,77.564,244.5,77.334,244.327,77.16z"/>
	<path class="white-fill" d="M210.654,79.377c0.148,0,0.297-0.013,0.46-0.02c0.078-2.666-0.083-5.296,0.11-7.949c-0.899,0-1.856,0.02-2.812-0.007
		c-0.564-0.016-0.995,0.178-1.387,0.576c-1.594,1.616-3.209,3.209-4.805,4.823c-0.293,0.295-0.529,0.644-0.793,0.967
		c0,0.225,0,0.451,0.001,0.676c0.324,0.719,0.88,0.956,1.659,0.946C205.608,79.357,208.131,79.379,210.654,79.377z"/>
	<path class="white-fill" d="M221.652,91.647c0,2.273,0,4.523,0,6.77c0.959,0,1.919,0,2.878,0c0-2.249,0-4.497,0-6.77
		C223.558,91.647,222.624,91.647,221.652,91.647z"/>
	<path class="white-fill" d="M223.094,73.95c-0.809-0.001-1.444,0.633-1.445,1.441c0,0.802,0.645,1.449,1.443,1.449c0.802,0,1.445-0.642,1.446-1.445
		C224.538,74.591,223.898,73.952,223.094,73.95z"/>
	<path class="white-fill" d="M217.861,108.373c0.44-0.236,0.795-0.575,1.066-1.019c0.271-0.443,0.405-0.924,0.405-1.443c0-1.013-0.299-1.81-0.897-2.391
		c-0.598-0.582-1.424-0.873-2.478-0.873c-0.603,0-1.152,0.133-1.648,0.401c-0.496,0.268-0.881,0.639-1.156,1.113
		c-0.275,0.475-0.413,1.011-0.413,1.609h2.227c0-0.367,0.098-0.671,0.295-0.912c0.197-0.242,0.45-0.362,0.759-0.362
		c0.33,0,0.594,0.128,0.79,0.382c0.196,0.254,0.295,0.61,0.295,1.066c0,0.478-0.095,0.859-0.287,1.145
		c-0.191,0.286-0.491,0.428-0.9,0.428h-1.078v1.793h1.093c0.876,0.005,1.314,0.572,1.314,1.7c0,0.472-0.111,0.85-0.335,1.132
		c-0.223,0.283-0.526,0.424-0.908,0.424c-0.33,0-0.603-0.139-0.818-0.417c-0.215-0.277-0.322-0.622-0.322-1.03h-2.227
		c0,0.985,0.306,1.782,0.916,2.387c0.611,0.606,1.407,0.908,2.388,0.908c1.054,0,1.905-0.307,2.553-0.92
		c0.647-0.613,0.971-1.429,0.971-2.446c0-0.629-0.132-1.174-0.397-1.636C218.803,108.951,218.401,108.604,217.861,108.373z"/>
	<rect class="white-fill" x="221.228" y="108.421" width="3.846" height="1.856"/>
	<path class="white-fill" d="M230.603,106.729c-0.456,0-0.899,0.144-1.329,0.433l0.205-2.454h3.721v-1.904h-5.546l-0.566,5.821l1.77,0.456l0.142-0.197
		c0.231-0.288,0.556-0.433,0.975-0.433c0.43,0,0.764,0.168,1.003,0.503c0.238,0.336,0.358,0.834,0.358,1.495
		c0,0.703-0.1,1.231-0.299,1.585c-0.199,0.355-0.483,0.531-0.85,0.531c-0.315,0-0.572-0.131-0.771-0.394
		c-0.199-0.262-0.318-0.632-0.355-1.108h-2.202c0.005,0.645,0.156,1.222,0.452,1.73c0.296,0.508,0.701,0.907,1.215,1.192
		c0.514,0.286,1.072,0.428,1.676,0.428c1.018,0,1.83-0.351,2.439-1.054c0.608-0.703,0.913-1.628,0.913-2.776
		c0-1.228-0.256-2.176-0.767-2.848C232.276,107.065,231.548,106.729,230.603,106.729z"/>
	<path class="white-fill" d="M159.133,145.529l-8.237,14.963c0,0,0,0.001-0.001,0.001c-0.045,0.082-0.098,0.16-0.154,0.238
		c-0.014,0.02-0.029,0.038-0.044,0.057c-0.043,0.055-0.09,0.107-0.139,0.158c-0.017,0.018-0.034,0.037-0.052,0.054
		c-0.005,0.005-0.009,0.01-0.014,0.014c-0.059,0.057-0.122,0.108-0.186,0.157c-0.018,0.014-0.037,0.025-0.055,0.038
		c-0.058,0.04-0.116,0.079-0.177,0.113c-0.022,0.013-0.044,0.024-0.065,0.036c-0.068,0.036-0.138,0.068-0.209,0.096
		c-0.012,0.005-0.023,0.01-0.035,0.014c-0.085,0.032-0.171,0.057-0.259,0.077c-0.019,0.005-0.037,0.007-0.055,0.011
		c-0.069,0.014-0.138,0.025-0.208,0.032c-0.026,0.003-0.053,0.006-0.079,0.007c-0.08,0.005-0.16,0.008-0.24,0.004
		c-0.007-0.001-0.015,0.001-0.023,0.001c-0.021-0.001-0.041-0.005-0.062-0.007c-0.049-0.004-0.099-0.008-0.148-0.016
		c-0.03-0.005-0.06-0.012-0.09-0.017c-0.044-0.008-0.086-0.018-0.129-0.029c-0.029-0.007-0.056-0.016-0.084-0.025
		c-0.047-0.014-0.093-0.031-0.14-0.048c-0.023-0.009-0.046-0.017-0.068-0.027c-0.056-0.024-0.111-0.05-0.165-0.079
		c-0.01-0.005-0.021-0.009-0.031-0.015c-0.003-0.002-0.007-0.004-0.01-0.006c-0.047-0.025-0.092-0.054-0.136-0.084
		c-0.016-0.011-0.032-0.02-0.048-0.031c-0.032-0.023-0.063-0.047-0.094-0.072c-0.026-0.02-0.053-0.04-0.079-0.062
		c-0.011-0.009-0.021-0.02-0.032-0.03c-0.043-0.038-0.085-0.077-0.124-0.119l-4.814-5.076c-0.814-0.859-0.779-2.215,0.08-3.03
		c0.859-0.814,2.215-0.779,3.03,0.08l2.795,2.948l6.824-12.395c0.571-1.037,1.875-1.415,2.911-0.844
		C159.327,143.188,159.704,144.492,159.133,145.529z"/>
</g>
<g title="grades-6-8-selected" class="grade-select" ng-class="{'radio-selected' : grade68Select==true}" ng-model="grade68Select" ng-click="grades68Selected()">
	<path class="grade-level-selected" filter="url(#highlightshadow)" d="M283.698,170.478h0.005 M283.702,162.123h-0.004h-76.283c-3.539,0-6.694,2.23-7.876,5.566
		c-5.86,16.55-19.505,28.984-36.499,33.26c-3.714,0.935-6.316,4.273-6.316,8.102v75.342c0,2.374,1.01,4.636,2.778,6.221
		c1.54,1.381,3.529,2.134,5.577,2.134c0.302,0,0.605-0.017,0.909-0.049c64.435-7.052,116.186-56.676,125.934-120.726
		c0.087-0.484,0.134-0.985,0.134-1.495C292.055,165.863,288.317,162.123,283.702,162.123L283.702,162.123z M283.698,178.833h0.005
		H283.698L283.698,178.833z"/>
	<circle cx="150" cy="150" r="25"/>
	<path d="M175.113,171.432c-1.034-1.034-2.711-1.034-3.745,0s-1.034,2.711,0,3.745c1.034,1.034,2.711,1.034,3.745,0
		C176.147,174.143,176.147,172.466,175.113,171.432z"/>
	<path class="white-fill" d="M226.894,226.515c-0.821,0-1.581,0-2.34,0c-0.012,0.046-0.025,0.073-0.025,0.101c0.002,2.137,0.005,4.273,0.007,6.41
		c0.787,0,1.571,0,2.358,0.001C226.894,230.856,226.894,228.686,226.894,226.515z"/>
	<path class="white-fill" d="M214.422,212.186c0.139-0.001,0.311-0.104,0.411-0.212c1.4-1.541,2.791-3.09,4.184-4.637
		c1.044-1.16,2.087-2.322,3.182-3.539c-0.159,0-0.245,0-0.331,0c-4.39,0-8.78-0.001-13.17,0c-0.752,0-1.162,0.34-1.315,1.077
		c-0.305,1.469-0.616,2.937-0.923,4.406c-0.2,0.957-0.397,1.916-0.598,2.893c0.101,0.009,0.176,0.022,0.251,0.022
		C208.883,212.196,211.652,212.198,214.422,212.186z"/>
	<path class="white-fill" d="M229.299,203.815c0.074,0.091,0.118,0.155,0.169,0.211c2.361,2.645,4.724,5.288,7.078,7.937
		c0.152,0.169,0.302,0.236,0.529,0.236c2.73-0.007,5.46-0.005,8.191-0.005c0.107,0,0.214,0,0.356,0
		c-0.015-0.088-0.02-0.125-0.028-0.161c-0.501-2.41-0.998-4.822-1.504-7.23c-0.14-0.665-0.587-1.007-1.288-1.007
		c-4.409-0.001-8.819-0.001-13.229,0C229.492,203.796,229.41,203.807,229.299,203.815z"/>
	<path class="white-fill" d="M225.737,210.457c-0.641,0.003-1.176,0.547-1.172,1.187c0.005,0.652,0.53,1.171,1.183,1.169
		c0.649-0.002,1.175-0.531,1.173-1.179C226.919,210.992,226.376,210.453,225.737,210.457z"/>
	<path class="white-fill" d="M245.518,214.553c-3.053,0.001-6.107-0.005-9.16,0.006c-0.458,0.001-0.808-0.155-1.109-0.493
		c-2.726-3.068-5.458-6.13-8.183-9.197c-0.072-0.08-0.137-0.202-0.137-0.306c-0.007-1.925-0.003-3.849-0.002-5.773
		c0-0.028,0.013-0.055,0.028-0.118c0.1,0,0.206,0,0.311,0c1.619,0,3.24-0.005,4.86,0.002c0.347,0.001,0.643-0.072,0.831-0.389
		c0.195-0.328,0.115-0.634-0.074-0.939c-0.293-0.475-0.571-0.961-0.867-1.435c-0.084-0.135-0.086-0.234-0.001-0.37
		c0.286-0.457,0.558-0.923,0.835-1.386c0.381-0.637,0.283-1.009-0.358-1.376c-2.338,0-4.675,0-7.012,0
		c-0.706,0.264-0.93,0.782-0.925,1.516c0.022,3.358,0.008,6.718,0.014,10.076c0,0.234-0.066,0.405-0.221,0.577
		c-2.737,3.033-5.469,6.07-8.197,9.11c-0.302,0.337-0.647,0.502-1.107,0.499c-3.034-0.01-6.07-0.005-9.104-0.007
		c-0.107,0-0.213-0.018-0.32-0.029c0,5.854,0,11.707,0,17.561c0.145,0.482,0.466,0.79,0.942,0.942c5.206,0,10.411,0,15.617,0
		c-0.004-1.238-0.009-2.475-0.013-3.71c-0.002-1.295-0.001-2.593,0-3.888c0.001-0.814,0.48-1.288,1.304-1.289
		c1.473-0.001,2.945,0,4.418,0c0.866,0,1.351,0.479,1.352,1.348c0.002,2.396,0.001,4.792,0.002,7.187
		c0,0.118,0.005,0.235,0.008,0.353c5.226,0,10.45,0,15.676,0c0.47-0.158,0.79-0.465,0.942-0.942c0-5.854,0-11.707,0-17.561
		C245.75,214.535,245.635,214.553,245.518,214.553z M211.586,217.854c0.619-0.025,1.161,0.432,1.204,1.085
		c0.039,0.595,0.039,1.197,0.001,1.793c-0.039,0.628-0.602,1.078-1.234,1.048c-0.617-0.028-1.09-0.517-1.106-1.152
		c-0.006-0.275-0.001-0.549-0.001-0.824c-0.001-0.244-0.002-0.489-0.001-0.734C210.454,218.386,210.927,217.881,211.586,217.854z
		 M212.792,227.021c-0.038,0.626-0.616,1.09-1.234,1.055c-0.619-0.035-1.092-0.524-1.108-1.157
		c-0.007-0.275-0.001-0.549-0.001-0.824c-0.001-0.245-0.002-0.49,0.001-0.736c0.003-0.682,0.475-1.189,1.136-1.222
		c0.607-0.029,1.163,0.442,1.204,1.09C212.828,225.823,212.828,226.425,212.792,227.021z M234.817,217.853
		c0.632-0.021,1.159,0.464,1.203,1.123c0.02,0.284,0.003,0.569,0.003,0.852c0.001,0,0.002,0,0.003,0c0,0.265,0.006,0.53-0.001,0.792
		c-0.018,0.665-0.536,1.164-1.195,1.159c-0.645-0.006-1.145-0.501-1.158-1.161c-0.009-0.519-0.005-1.039-0.001-1.558
		C233.673,218.384,234.159,217.874,234.817,217.853z M217.51,227.011c-0.035,0.622-0.604,1.094-1.225,1.066
		c-0.617-0.028-1.099-0.518-1.118-1.146c-0.008-0.275-0.001-0.549-0.001-0.824c0-0.255-0.002-0.51,0-0.766
		c0.006-0.673,0.499-1.186,1.156-1.203c0.611-0.017,1.154,0.464,1.189,1.108C217.541,225.834,217.542,226.424,217.51,227.011z
		 M217.511,220.71c-0.031,0.626-0.584,1.088-1.217,1.07c-0.618-0.018-1.106-0.503-1.127-1.132c-0.009-0.284-0.002-0.568-0.002-0.852
		h-0.001c0-0.245-0.001-0.49,0.001-0.736c0.005-0.667,0.467-1.165,1.117-1.206c0.626-0.04,1.187,0.432,1.226,1.093
		C217.544,219.533,217.541,220.124,217.511,220.71z M224.482,220.758c-0.055,0.592-0.564,1.022-1.167,1.021
		c-0.593-0.001-1.104-0.415-1.142-1.007c-0.04-0.634-0.045-1.273-0.005-1.908c0.039-0.593,0.58-1.024,1.175-1.011
		c0.59,0.012,1.076,0.437,1.133,1.027c0.03,0.32,0.005,0.646,0.005,0.969c0.002,0,0.003,0,0.005,0
		C224.488,220.151,224.512,220.458,224.482,220.758z M222.207,211.655c-0.04-1.881,1.537-3.517,3.431-3.554
		c2.003-0.039,3.596,1.505,3.638,3.529c0.038,1.859-1.545,3.498-3.42,3.538C223.842,215.211,222.252,213.681,222.207,211.655z
		 M229.316,220.764c-0.063,0.596-0.568,1.017-1.174,1.014c-0.602-0.003-1.107-0.438-1.141-1.044
		c-0.035-0.604-0.035-1.216-0.007-1.821c0.027-0.592,0.532-1.04,1.134-1.061c0.593-0.02,1.116,0.409,1.181,1.006
		c0.035,0.33,0.006,0.666,0.006,0.998c0.002,0,0.005,0,0.008,0C229.322,220.159,229.349,220.466,229.316,220.764z M236.016,227.01
		c-0.031,0.609-0.583,1.077-1.195,1.066c-0.614-0.011-1.119-0.496-1.147-1.116c-0.014-0.284-0.002-0.569-0.002-0.853
		c-0.001,0-0.001,0-0.002,0c0-0.256-0.002-0.51,0.001-0.766c0.006-0.672,0.5-1.186,1.156-1.204c0.612-0.017,1.156,0.466,1.189,1.108
		C236.047,225.832,236.048,226.424,236.016,227.01z M238.385,219.803c0-0.254-0.002-0.509,0-0.764
		c0.008-0.655,0.493-1.159,1.141-1.186c0.619-0.026,1.169,0.445,1.204,1.085c0.032,0.596,0.033,1.196,0.001,1.793
		c-0.033,0.609-0.583,1.062-1.205,1.048c-0.604-0.014-1.099-0.482-1.134-1.094c-0.017-0.294-0.002-0.588-0.002-0.882
		C238.388,219.803,238.387,219.803,238.385,219.803z M240.73,227.025c-0.032,0.605-0.597,1.07-1.208,1.051
		c-0.603-0.02-1.097-0.491-1.131-1.102c-0.017-0.293-0.002-0.588-0.002-0.882c-0.001,0-0.002,0-0.003,0c0-0.255-0.002-0.51,0-0.766
		c0.008-0.653,0.496-1.159,1.143-1.188c0.608-0.025,1.166,0.456,1.201,1.094C240.763,225.827,240.763,226.428,240.73,227.025z"/>
	<path class="white-fill" d="M219.865,241.47c-0.718,0-1.316,0.272-1.793,0.818c0.104-0.891,0.402-1.585,0.893-2.08c0.49-0.496,1.153-0.746,1.986-0.752
		h0.126v-1.887h-0.346c-0.996,0.005-1.868,0.263-2.615,0.775c-0.747,0.512-1.319,1.241-1.715,2.191
		c-0.396,0.949-0.594,2.056-0.594,3.319v0.826c0,1.411,0.313,2.533,0.94,3.367c0.626,0.834,1.459,1.25,2.497,1.25
		c0.644,0,1.223-0.167,1.735-0.499c0.511-0.333,0.908-0.801,1.192-1.404c0.283-0.604,0.424-1.279,0.424-2.029
		c0-1.18-0.247-2.124-0.743-2.831C221.356,241.823,220.693,241.47,219.865,241.47z M220.054,246.869
		c-0.215,0.386-0.5,0.579-0.857,0.579c-0.352,0-0.635-0.199-0.85-0.598c-0.215-0.4-0.322-1.004-0.322-1.813v-0.804
		c0.094-0.262,0.237-0.483,0.428-0.661c0.192-0.179,0.429-0.268,0.712-0.268c0.362,0,0.654,0.193,0.878,0.579
		s0.335,0.887,0.335,1.501C220.376,245.987,220.269,246.482,220.054,246.869z"/>
	<rect class="white-fill" x="224.137" y="243.303" width="3.846" height="1.856"/>
	<path class="white-fill" d="M234.858,243.24c0.414-0.257,0.74-0.601,0.975-1.031c0.236-0.43,0.355-0.923,0.355-1.479c0-0.991-0.278-1.772-0.834-2.344
		s-1.311-0.857-2.266-0.857c-0.944,0-1.696,0.283-2.258,0.85c-0.562,0.566-0.842,1.351-0.842,2.352c0,0.557,0.118,1.049,0.354,1.479
		c0.236,0.43,0.564,0.774,0.984,1.031c-0.478,0.262-0.852,0.629-1.126,1.101c-0.272,0.472-0.409,1.025-0.409,1.66
		c0,1.018,0.299,1.821,0.897,2.41c0.598,0.59,1.402,0.885,2.415,0.885c1.012,0,1.811-0.295,2.399-0.885
		c0.587-0.59,0.881-1.393,0.881-2.41c0-0.635-0.137-1.186-0.41-1.656C235.702,243.876,235.33,243.507,234.858,243.24z
		 M232.443,239.767c0.147-0.26,0.362-0.389,0.645-0.389c0.299,0,0.52,0.134,0.664,0.401c0.145,0.268,0.217,0.624,0.217,1.069
		c0,0.451-0.071,0.814-0.213,1.089c-0.142,0.275-0.359,0.414-0.652,0.414c-0.294,0-0.515-0.138-0.661-0.414
		c-0.146-0.276-0.22-0.638-0.22-1.089C232.223,240.387,232.296,240.026,232.443,239.767z M233.879,247.02
		c-0.181,0.286-0.439,0.429-0.775,0.429c-0.341,0-0.607-0.142-0.799-0.429c-0.191-0.286-0.287-0.682-0.287-1.192
		s0.096-0.908,0.287-1.195c0.192-0.289,0.452-0.432,0.783-0.432c0.33,0,0.59,0.144,0.779,0.432c0.189,0.289,0.283,0.687,0.283,1.195
		S234.06,246.734,233.879,247.02z"/>
	<path class="white-fill" d="M159.133,145.529l-8.237,14.963c0,0,0,0.001-0.001,0.001c-0.045,0.082-0.098,0.16-0.154,0.238
		c-0.014,0.02-0.029,0.038-0.044,0.057c-0.043,0.055-0.09,0.107-0.139,0.158c-0.017,0.018-0.034,0.037-0.052,0.054
		c-0.005,0.005-0.009,0.01-0.014,0.014c-0.059,0.057-0.122,0.108-0.186,0.157c-0.018,0.014-0.037,0.025-0.055,0.038
		c-0.058,0.04-0.116,0.079-0.177,0.113c-0.022,0.013-0.044,0.024-0.065,0.036c-0.068,0.036-0.138,0.068-0.209,0.096
		c-0.012,0.005-0.023,0.01-0.035,0.014c-0.085,0.032-0.171,0.057-0.259,0.077c-0.019,0.005-0.037,0.007-0.055,0.011
		c-0.069,0.014-0.138,0.025-0.208,0.032c-0.026,0.003-0.053,0.006-0.079,0.007c-0.08,0.005-0.16,0.008-0.24,0.004
		c-0.007-0.001-0.015,0.001-0.023,0.001c-0.021-0.001-0.041-0.005-0.062-0.007c-0.049-0.004-0.099-0.008-0.148-0.016
		c-0.03-0.005-0.06-0.012-0.09-0.017c-0.044-0.008-0.086-0.018-0.129-0.029c-0.029-0.007-0.056-0.016-0.084-0.025
		c-0.047-0.014-0.093-0.031-0.14-0.048c-0.023-0.009-0.046-0.017-0.068-0.027c-0.056-0.024-0.111-0.05-0.165-0.079
		c-0.01-0.005-0.021-0.009-0.031-0.015c-0.003-0.002-0.007-0.004-0.01-0.006c-0.047-0.025-0.092-0.054-0.136-0.084
		c-0.016-0.011-0.032-0.02-0.048-0.031c-0.032-0.023-0.063-0.047-0.094-0.072c-0.026-0.02-0.053-0.04-0.079-0.062
		c-0.011-0.009-0.021-0.02-0.032-0.03c-0.043-0.038-0.085-0.077-0.124-0.119l-4.814-5.076c-0.814-0.859-0.779-2.215,0.08-3.03
		c0.859-0.814,2.215-0.779,3.03,0.08l2.795,2.948l6.824-12.395c0.571-1.037,1.875-1.415,2.911-0.844
		C159.327,143.188,159.704,144.492,159.133,145.529z"/>
</g>
<g title="grades-9-12-selected" class="grade-select" ng-class="{'radio-selected' : grade912Select==true}" ng-model="grade912Select" ng-click="grades912Selected()">
	<path class="grade-level-selected" filter="url(#highlightshadow)" d="M93.047,162.123H16.764c-2.433,0-4.745,1.061-6.332,2.905c-1.587,1.843-2.293,4.288-1.93,6.694
		c4.727,31.421,20.115,60.799,43.328,82.723c11.491,10.853,24.581,19.673,38.906,26.216c14.738,6.732,30.419,10.877,46.604,12.322
		c0.248,0.023,0.496,0.033,0.742,0.033c2.078,0,4.093-0.776,5.639-2.19c1.73-1.583,2.716-3.82,2.716-6.164v-74.99
		c0-3.973-2.798-7.396-6.691-8.187c-17.852-3.629-32.729-16.578-38.825-33.794C99.742,164.353,96.587,162.123,93.047,162.123
		L93.047,162.123z"/>
	<circle cx="150" cy="150" r="25"/>
	<path d="M128.601,171.432c-1.034-1.034-2.711-1.034-3.745,0s-1.034,2.711,0,3.745c1.034,1.034,2.711,1.034,3.745,0
		C129.635,174.143,129.636,172.466,128.601,171.432z"/>
	<path class="white-fill" d="M93.644,213.071c-0.494,0.002-0.871-0.166-1.196-0.531c-2.936-3.305-5.879-6.604-8.815-9.908
		c-0.077-0.087-0.147-0.218-0.148-0.329c-0.008-2.073-0.004-4.146-0.002-6.22c0-0.031,0.013-0.06,0.029-0.128
		c0.108,0,0.22,0,0.335,0c1.745,0,3.491-0.004,5.236,0.003c0.374,0.002,0.693-0.076,0.896-0.419c0.21-0.355,0.123-0.684-0.079-1.012
		c-0.316-0.512-0.616-1.035-0.935-1.547c-0.091-0.145-0.093-0.252-0.001-0.4c0.308-0.493,0.602-0.994,0.899-1.492
		c0.41-0.686,0.305-1.087-0.385-1.483c-2.519,0-5.036,0-7.555,0c-0.76,0.284-1.003,0.842-0.996,1.633
		c0.024,3.619,0.008,7.238,0.015,10.855c0.001,0.251-0.071,0.435-0.239,0.622c-2.948,3.268-5.893,6.539-8.831,9.814
		c-0.325,0.362-0.697,0.54-1.192,0.538c-3.269-0.012-6.539-0.005-9.809-0.008c-0.115,0-0.229-0.02-0.345-0.031
		c0,6.307,0,12.613,0,18.92c0.156,0.52,0.502,0.853,1.015,1.015c5.609,0,11.216,0,16.825,0c-0.004-1.333-0.01-2.665-0.013-3.997
		c-0.002-1.396-0.001-2.793,0-4.189c0.001-0.878,0.517-1.388,1.406-1.389c1.587-0.001,3.173-0.001,4.76,0
		c0.932,0,1.454,0.516,1.456,1.452c0.003,2.581,0.001,5.162,0.002,7.743c0,0.128,0.005,0.253,0.008,0.38c5.63,0,11.259,0,16.889,0
		c0.507-0.17,0.854-0.501,1.015-1.015c0-6.307,0-12.613,0-18.92c-0.126,0.01-0.251,0.031-0.376,0.031
		C100.224,213.066,96.935,213.06,93.644,213.071z M66.956,216.621c0.667-0.027,1.251,0.467,1.297,1.169
		c0.042,0.643,0.042,1.291,0.001,1.934c-0.042,0.678-0.648,1.161-1.33,1.13c-0.665-0.031-1.174-0.557-1.192-1.241
		c-0.007-0.296-0.001-0.592-0.001-0.888c-0.001-0.264-0.003-0.528-0.001-0.793C65.735,217.195,66.246,216.651,66.956,216.621z
		 M68.255,226.5c-0.041,0.673-0.663,1.174-1.329,1.137c-0.668-0.037-1.176-0.563-1.193-1.246c-0.008-0.296-0.001-0.592-0.001-0.887
		c-0.001-0.264-0.001-0.529-0.001-0.793c0.004-0.736,0.512-1.282,1.223-1.316c0.653-0.032,1.253,0.476,1.298,1.174
		C68.295,225.21,68.295,225.857,68.255,226.5z M91.983,216.623c0.681-0.023,1.249,0.499,1.296,1.21
		c0.021,0.305,0.004,0.612,0.004,0.918c0.001,0,0.003,0,0.004,0c0,0.286,0.006,0.57-0.001,0.855
		c-0.02,0.717-0.577,1.254-1.288,1.248c-0.695-0.005-1.234-0.538-1.247-1.251c-0.011-0.56-0.005-1.121-0.002-1.68
		C90.752,217.195,91.275,216.647,91.983,216.623z M73.337,226.488c-0.037,0.671-0.651,1.178-1.319,1.147
		c-0.664-0.029-1.184-0.557-1.205-1.235c-0.009-0.296-0.001-0.592-0.001-0.887c-0.001-0.275-0.003-0.549,0-0.824
		c0.006-0.725,0.537-1.277,1.245-1.296c0.66-0.018,1.243,0.499,1.281,1.195C73.372,225.22,73.372,225.857,73.337,226.488z
		 M73.34,219.701c-0.034,0.676-0.629,1.173-1.311,1.152c-0.666-0.02-1.192-0.543-1.214-1.219c-0.01-0.306-0.001-0.612-0.001-0.918
		h-0.001c0-0.264-0.001-0.529,0-0.793c0.005-0.718,0.503-1.255,1.204-1.3c0.676-0.043,1.278,0.465,1.32,1.178
		C73.374,218.432,73.372,219.068,73.34,219.701z M80.849,219.753c-0.06,0.638-0.607,1.101-1.258,1.1
		c-0.639-0.001-1.189-0.449-1.231-1.085c-0.045-0.683-0.049-1.373-0.004-2.055c0.041-0.639,0.626-1.103,1.266-1.09
		c0.635,0.014,1.16,0.47,1.22,1.106c0.033,0.345,0.005,0.695,0.005,1.044c0.001,0,0.004,0,0.005,0
		C80.854,219.099,80.881,219.428,80.849,219.753z M78.398,209.947c-0.044-2.027,1.657-3.789,3.695-3.829
		c2.159-0.042,3.875,1.621,3.92,3.802c0.041,2.003-1.665,3.769-3.684,3.812C80.16,213.776,78.447,212.127,78.398,209.947z
		 M86.057,219.761c-0.069,0.644-0.611,1.097-1.264,1.092c-0.649-0.004-1.193-0.472-1.229-1.124s-0.037-1.309-0.007-1.962
		c0.029-0.639,0.574-1.121,1.222-1.144c0.638-0.022,1.202,0.439,1.272,1.083c0.038,0.355,0.006,0.716,0.006,1.076
		c0.003,0,0.005,0,0.008,0C86.062,219.107,86.092,219.438,86.057,219.761z M93.276,226.487c-0.034,0.657-0.629,1.16-1.288,1.149
		c-0.661-0.012-1.205-0.535-1.236-1.202c-0.014-0.306-0.003-0.612-0.003-0.919c-0.001,0-0.001,0-0.002,0
		c0-0.275-0.001-0.549,0-0.824c0.006-0.725,0.538-1.278,1.245-1.297c0.66-0.018,1.245,0.501,1.282,1.193
		C93.307,225.219,93.307,225.855,93.276,226.487z M98.354,226.505c-0.036,0.652-0.644,1.153-1.301,1.133
		c-0.65-0.021-1.182-0.53-1.219-1.187c-0.018-0.316-0.003-0.634-0.003-0.95c-0.001,0-0.001,0-0.004,0
		c0-0.275-0.003-0.549,0.001-0.824c0.009-0.703,0.535-1.249,1.231-1.279c0.655-0.029,1.256,0.491,1.295,1.178
		C98.388,225.214,98.39,225.863,98.354,226.505z M98.354,219.725c-0.035,0.658-0.629,1.145-1.299,1.129
		c-0.651-0.015-1.184-0.52-1.222-1.179c-0.018-0.316-0.003-0.633-0.003-0.95c-0.002-0.001-0.004-0.001-0.004-0.001
		c0-0.274-0.003-0.549,0.001-0.823c0.008-0.706,0.533-1.249,1.228-1.277c0.667-0.027,1.259,0.479,1.297,1.17
		C98.389,218.437,98.39,219.084,98.354,219.725z"/>
	<path class="white-fill" d="M83.446,225.953c-0.883,0-1.703,0-2.521,0c-0.01,0.05-0.026,0.081-0.026,0.11c0.001,2.302,0.004,4.604,0.007,6.906
		c0.847,0,1.693,0,2.54,0C83.446,230.631,83.446,228.292,83.446,225.953z"/>
	<path class="white-fill" d="M70.01,210.517c0.15-0.001,0.337-0.113,0.442-0.229c1.509-1.66,3.007-3.328,4.507-4.996
		c1.124-1.25,2.248-2.501,3.428-3.813c-0.173,0-0.265,0-0.357,0c-4.729,0-9.459,0-14.189,0c-0.811,0-1.252,0.367-1.416,1.16
		c-0.329,1.582-0.664,3.163-0.994,4.747c-0.215,1.031-0.426,2.064-0.644,3.117c0.11,0.009,0.19,0.023,0.271,0.023
		C64.043,210.527,67.028,210.53,70.01,210.517z"/>
	<path class="white-fill" d="M86.038,201.5c0.078,0.098,0.128,0.165,0.182,0.227c2.543,2.849,5.089,5.697,7.626,8.551
		c0.164,0.183,0.326,0.254,0.57,0.254c2.942-0.008,5.883-0.005,8.824-0.005c0.115,0,0.229,0,0.384,0
		c-0.016-0.095-0.029-0.173-0.029-0.173c0.083-0.082-3.113-7.87-3.135-7.789c-0.151-0.717-0.631-1.085-1.387-1.085
		c-4.751-0.001-7.987-0.001-12.738,0C86.248,201.479,86.159,201.492,86.038,201.5z"/>
	<path class="white-fill" d="M82.201,208.655c-0.69,0.004-1.269,0.589-1.263,1.279c0.004,0.703,0.571,1.261,1.274,1.259
		c0.7-0.002,1.266-0.572,1.264-1.271C83.474,209.232,82.891,208.65,82.201,208.655z"/>
	<path class="white-fill" d="M114.196,213.503c0-0.159,0-0.319,0-0.475c-2.772,0-5.477,0-8.228,0c0,0.198,0,0.377,0,0.553
		c0,4.682,0.006,13.119-0.008,17.801c-0.002,0.549-0.122,1.097-0.186,1.646c2.503,0,5.005,0,7.508,0
		c0.715-0.338,0.93-0.909,0.926-1.683C114.183,226.65,114.196,218.198,114.196,213.503z M108.849,217.744
		c0.043-0.621,0.542-1.104,1.166-1.15c0.568-0.041,1.183,0.352,1.252,0.934c0.077,0.652,0.081,1.328-0.002,1.98
		c-0.076,0.606-0.676,0.966-1.297,0.914c-0.601-0.05-1.078-0.529-1.119-1.141c-0.018-0.262-0.003-0.527-0.003-0.79
		C108.845,218.242,108.831,217.992,108.849,217.744z M111.299,226.081c-0.064,0.65-0.668,1.102-1.281,1.06
		c-0.658-0.045-1.146-0.553-1.176-1.229c-0.011-0.235-0.002-0.471-0.002-0.706c0.001,0,0.003,0,0.004,0
		c0-0.235-0.009-0.471,0.002-0.706c0.032-0.64,0.504-1.136,1.118-1.186c0.661-0.054,1.241,0.334,1.323,0.988
		C111.36,224.888,111.358,225.493,111.299,226.081z"/>
	<path class="white-fill" d="M115.108,209.433c-1.743-0.864-3.494-2.284-5.243-3.146c-0.289-0.143-0.635-0.209-1.05-0.206
		c-0.904,0.005-4.546,0.002-5.304,0.002c0.19,0.104,0.379,0.384,0.379,0.384l2.096,4.046c0,0,0.342,0,0.494,0
		c2.473,0,4.947-0.011,7.42,0.005c0.77,0.005,1.315-0.113,1.634-0.461c0-0.109,0-0.22,0-0.328
		C115.393,209.631,115.278,209.518,115.108,209.433z"/>
	<path class="white-fill" d="M58.163,213.581c0-0.177,0-0.355,0-0.553c-2.752,0-5.457,0-8.228,0c0,0.155,0,0.316,0,0.475
		c0,4.696,0.012,13.147-0.012,17.843c-0.004,0.775,0.211,1.345,0.926,1.684c2.503,0,5.005,0,7.508,0
		c-0.064-0.548-0.185-1.097-0.186-1.646C58.156,226.701,58.163,218.263,58.163,213.581z M55.287,225.912
		c-0.029,0.676-0.519,1.183-1.176,1.229c-0.613,0.042-1.216-0.41-1.281-1.06c-0.059-0.588-0.059-1.192,0.013-1.779
		c0.081-0.656,0.662-1.043,1.323-0.988c0.613,0.05,1.085,0.547,1.117,1.186c0.012,0.234,0.002,0.471,0.002,0.706
		c0.001,0,0.003,0,0.004,0C55.289,225.441,55.297,225.678,55.287,225.912z M55.283,219.281c-0.041,0.611-0.52,1.091-1.119,1.141
		c-0.623,0.051-1.22-0.307-1.297-0.914c-0.083-0.651-0.081-1.327-0.001-1.979c0.069-0.581,0.684-0.976,1.252-0.935
		c0.625,0.045,1.122,0.53,1.166,1.15c0.018,0.247,0.003,0.498,0.003,0.748C55.285,218.754,55.299,219.019,55.283,219.281z"/>
	<path class="white-fill" d="M55.315,206.081c-0.415-0.001-0.761,0.064-1.05,0.206c-1.749,0.862-3.5,2.281-5.243,3.145
		c-0.17,0.084-0.286,0.196-0.425,0.296c0,0.109,0,0.22,0,0.328c0.319,0.347,0.864,0.465,1.634,0.461
		c2.473-0.016,4.946-0.005,7.42-0.005c0.152,0,0.493,0,0.493,0l1.528-4.046c0,0,0.19-0.28,0.379-0.384
		C59.294,206.082,56.218,206.086,55.315,206.081z"/>
	<path class="white-fill" d="M72.721,238.104c-0.503-0.383-1.078-0.574-1.723-0.574c-0.624,0-1.189,0.173-1.696,0.519
		c-0.506,0.346-0.9,0.832-1.184,1.459c-0.283,0.626-0.424,1.317-0.424,2.073c0,1.169,0.251,2.105,0.752,2.804s1.187,1.05,2.057,1.05
		c0.561,0,1.078-0.242,1.549-0.724c-0.089,0.855-0.353,1.505-0.79,1.951c-0.438,0.445-1.092,0.671-1.963,0.676H69.15v1.919h0.228
		c1.574-0.021,2.789-0.581,3.646-1.679c0.857-1.098,1.286-2.623,1.286-4.574v-0.811c0-0.912-0.139-1.727-0.417-2.442
		C73.615,239.036,73.224,238.486,72.721,238.104z M72.084,242.807c-0.247,0.587-0.585,0.881-1.015,0.881
		c-0.362,0-0.645-0.19-0.85-0.57c-0.205-0.38-0.308-0.901-0.308-1.562c0-0.608,0.099-1.124,0.296-1.546
		c0.196-0.422,0.454-0.633,0.775-0.633c0.326,0,0.59,0.215,0.794,0.641c0.205,0.428,0.308,1.016,0.308,1.766
		C72.084,241.785,72.084,242.807,72.084,242.807z"/>
	<rect class="white-fill" x="76.103" y="243.303" width="3.846" height="1.856"/>
	<polygon class="white-fill" points="82.224,239.378 82.224,241.234 84.402,240.393 84.402,249.14 86.636,249.14 86.636,237.671 86.4,237.671 	"/>
	<path class="white-fill" d="M94.212,245.191c0.817-0.971,1.383-1.787,1.695-2.45c0.312-0.664,0.468-1.318,0.468-1.963c0-1.038-0.281-1.84-0.845-2.403
		c-0.564-0.563-1.357-0.845-2.38-0.845c-0.666,0-1.262,0.161-1.789,0.484c-0.527,0.322-0.936,0.775-1.228,1.357
		c-0.29,0.582-0.437,1.224-0.437,1.927h2.234c0-0.608,0.106-1.08,0.319-1.416c0.213-0.335,0.5-0.503,0.861-0.503
		c0.331,0,0.584,0.145,0.759,0.433c0.175,0.289,0.263,0.687,0.263,1.195c0,0.377-0.093,0.772-0.279,1.184
		c-0.186,0.412-0.476,0.889-0.87,1.435l-3.099,3.941v1.574h6.749v-1.849h-3.893L94.212,245.191z"/>
	<path class="white-fill" d="M159.133,145.529l-8.237,14.963c0,0,0,0.001-0.001,0.001c-0.045,0.082-0.098,0.16-0.154,0.238
		c-0.014,0.02-0.029,0.038-0.044,0.057c-0.043,0.055-0.09,0.107-0.139,0.158c-0.017,0.018-0.034,0.037-0.052,0.054
		c-0.005,0.005-0.009,0.01-0.014,0.014c-0.059,0.057-0.122,0.108-0.186,0.157c-0.018,0.014-0.037,0.025-0.055,0.038
		c-0.058,0.04-0.116,0.079-0.177,0.113c-0.022,0.013-0.044,0.024-0.065,0.036c-0.068,0.036-0.138,0.068-0.209,0.096
		c-0.012,0.005-0.023,0.01-0.035,0.014c-0.085,0.032-0.171,0.057-0.259,0.077c-0.019,0.005-0.037,0.007-0.055,0.011
		c-0.069,0.014-0.138,0.025-0.208,0.032c-0.026,0.003-0.053,0.006-0.079,0.007c-0.08,0.005-0.16,0.008-0.24,0.004
		c-0.007-0.001-0.015,0.001-0.023,0.001c-0.021-0.001-0.041-0.005-0.062-0.007c-0.049-0.004-0.099-0.008-0.148-0.016
		c-0.03-0.005-0.06-0.012-0.09-0.017c-0.044-0.008-0.086-0.018-0.129-0.029c-0.029-0.007-0.056-0.016-0.084-0.025
		c-0.047-0.014-0.093-0.031-0.14-0.048c-0.023-0.009-0.046-0.017-0.068-0.027c-0.056-0.024-0.111-0.05-0.165-0.079
		c-0.01-0.005-0.021-0.009-0.031-0.015c-0.003-0.002-0.007-0.004-0.01-0.006c-0.047-0.025-0.092-0.054-0.136-0.084
		c-0.016-0.011-0.032-0.02-0.048-0.031c-0.032-0.023-0.063-0.047-0.094-0.072c-0.026-0.02-0.053-0.04-0.079-0.062
		c-0.011-0.009-0.021-0.02-0.032-0.03c-0.043-0.038-0.085-0.077-0.124-0.119l-4.814-5.076c-0.814-0.859-0.779-2.215,0.08-3.03
		c0.859-0.814,2.215-0.779,3.03,0.08l2.795,2.948l6.824-12.395c0.571-1.037,1.875-1.415,2.911-0.844
		C159.327,143.188,159.704,144.492,159.133,145.529z"/>
</g>

</svg>
