<?xml version="1.0" encoding="utf-8"?>
<!-- Generator: Adobe Illustrator 25.4.1, SVG Export Plug-In . SVG Version: 6.00 Build 0)  -->
<svg version="1.1" id="Layer_1" xmlns="http://www.w3.org/2000/svg" xmlns:xlink="http://www.w3.org/1999/xlink" x="0px" y="0px"
	 viewBox="0 0 50 50" style="enable-background:new 0 0 50 50;" xml:space="preserve">
<style type="text/css">
	.st0{opacity:0.24;fill:#C0C7CA;}
	.st1{fill:#515254;}
	.st2{fill:#231F20;}
	.st3{fill:#5F6062;}
	.st4{fill:#00BFC1;}
	.st5{fill:#91D6D0;}
	.st6{fill:#0A8B8D;}
	.st7{fill:#19ACAF;}
	.st8{fill:#CA96C4;}
	.st9{fill:#D44A9B;}
	.st10{fill:#A13995;}
	.st11{opacity:0.36;fill:#C0C7CA;}
	.st12{fill:#656668;}
	.st13{fill:#393839;}
	.st14{fill:#797A7D;}
	.st15{fill:#00491E;}
	.st16{fill:#1B6533;}
	.st17{fill:#2BB34B;}
	.st18{fill:#007F40;}
	.st19{fill:#8C1818;}
	.st20{fill:#AD2A22;}
	.st21{fill:#C03121;}
	.st22{fill:#D9502E;}
	.st23{fill:#FF852B;}
	.st24{fill:#A3311D;}
	.st25{fill:#79909C;}
	.st26{fill:#CDAD66;}
	.st27{fill:#E09200;}
	.st28{fill:#FFE66B;}
	.st29{fill:#1C1A1A;}
	.st30{fill:#484246;}
	.st31{fill:#005B95;}
	.st32{fill:#29357D;}
	.st33{fill:#457CBF;}
	.st34{fill:#7699CF;}
	.st35{fill:#C9CDCC;}
	.st36{fill:#888E87;}
	.st37{fill:#B9BBBC;}
	.st38{fill:#002834;}
	.st39{fill:#FFFFFF;}
	.st40{fill:#009EB2;}
	.st41{fill:#C9CAC7;}
	.st42{fill:#9B9DA0;}
	.st43{fill:#E6E7E8;}
	.st44{fill:#75787A;}
	.st45{fill:#E0E1E2;}
	.st46{fill:#BFC1C3;}
	.st47{fill:#F6F6F6;}
	.st48{fill:#DCDDDE;}
</style>
<g>
	<ellipse class="st0" cx="12.758" cy="44.386" rx="8.679" ry="3.756"/>
	<g>
		<path class="st0" d="M30.971,46.443L3.128,34.94c-0.748-0.287-0.901-0.811-0.34-1.163l15.324-9.2
			c0.561-0.352,1.632-0.405,2.38-0.118l26.752,10.255c0.748,0.287,0.901,0.811,0.34,1.163L33.351,46.325
			C32.79,46.678,31.719,46.731,30.971,46.443z"/>
		<g>
			<g>
				<path class="st1" d="M30.285,38.394L3.451,27.738c-0.721-0.266-0.868-0.751-0.328-1.078l14.769-8.523
					c0.541-0.326,1.573-0.376,2.294-0.109l25.782,9.5c0.721,0.266,0.868,0.751,0.328,1.078l-13.717,9.679
					C32.038,38.611,31.006,38.661,30.285,38.394z"/>
				<g>
					<path class="st1" d="M46.617,33.798v0.111C46.623,33.873,46.623,33.835,46.617,33.798z"/>
					<path class="st1" d="M3.451,27.738"/>
					<path class="st2" d="M32.579,43.984l13.717-9.679c0.194-0.117,0.299-0.255,0.321-0.396V28.21
						c-0.022,0.141-0.127,0.279-0.321,0.396l-13.717,9.679V43.984z"/>
					<path class="st1" d="M3.451,33.437"/>
				</g>
				<path class="st3" d="M30.285,38.394L3.451,27.738c-0.394-0.145-0.616-0.356-0.649-0.571v5.699
					c0.033,0.214,0.255,0.425,0.649,0.571l26.834,10.657c0.721,0.266,1.753,0.217,2.294-0.109v-5.699
					C32.038,38.611,31.006,38.661,30.285,38.394z"/>
			</g>
			<path class="st4" d="M30.423,38.201L2.926,27.281c-0.739-0.273-0.89-0.77-0.336-1.104l15.134-8.733
				c0.554-0.335,1.612-0.385,2.35-0.112l26.42,9.735c0.739,0.273,0.89,0.77,0.336,1.104l-14.056,9.918
				C32.219,38.423,31.162,38.474,30.423,38.201z"/>
			<path class="st5" d="M29.855,37.164L5.091,27.329c-0.665-0.246-0.801-0.693-0.303-0.995l13.629-7.865
				c0.499-0.301,1.451-0.347,2.117-0.101l23.794,8.768c0.665,0.246,0.801,0.693,0.303,0.995l-12.659,8.932
				C31.473,37.364,30.52,37.409,29.855,37.164z"/>
			<g>
				<path class="st6" d="M47.159,29.412v0.114C47.164,29.488,47.164,29.45,47.159,29.412z"/>
				<path class="st6" d="M2.926,27.281"/>
				<path class="st6" d="M32.773,39.85l14.056-9.918c0.199-0.12,0.307-0.261,0.329-0.406v-1.761
					c-0.022,0.144-0.13,0.286-0.329,0.406l-14.056,9.918V39.85z"/>
				<path class="st6" d="M2.926,29.042"/>
			</g>
			<path class="st7" d="M30.423,38.201L2.926,27.281c-0.403-0.149-0.631-0.365-0.665-0.585v1.761
				c0.034,0.22,0.262,0.436,0.665,0.585l27.497,10.92c0.739,0.273,1.796,0.222,2.35-0.112v-1.761
				C32.219,38.423,31.162,38.474,30.423,38.201z"/>
			<g>
				<path class="st8" d="M10.479,31.168v1.479c-0.027,0.237-0.154,0.413-0.347,0.51c-0.239,0.121-0.578,0.123-0.952-0.023
					l-2.911-1.138c-0.69-0.27-1.258-0.948-1.301-1.536v-1.479L10.479,31.168z"/>
				<polygon class="st9" points="10.657,30.983 5.146,28.797 4.968,28.982 10.479,31.168 				"/>
				<g>
					<path class="st10" d="M10.482,31.169l-0.003-0.001l0.178-0.185v1.479c-0.023,0.203-0.12,0.361-0.268,0.463
						c0.048-0.08,0.081-0.172,0.093-0.277V31.169z"/>
				</g>
			</g>
			<g>
				<path class="st8" d="M29.454,38.523v1.479c-0.027,0.237-0.154,0.413-0.347,0.51c-0.239,0.121-0.578,0.123-0.952-0.023
					l-2.911-1.138c-0.69-0.27-1.258-0.948-1.301-1.536v-1.479L29.454,38.523z"/>
				<polygon class="st9" points="29.633,38.338 24.122,36.152 23.943,36.337 29.454,38.523 				"/>
				<g>
					<path class="st10" d="M29.457,38.524l-0.003-0.001l0.178-0.185v1.479c-0.023,0.203-0.12,0.361-0.268,0.463
						c0.048-0.08,0.081-0.172,0.093-0.277V38.524z"/>
				</g>
			</g>
		</g>
		<path class="st11" d="M24.072,29.242l-8.281-4.039c-0.223-0.102-0.26-0.265-0.082-0.362l4.852-2.518
			c0.178-0.097,0.506-0.093,0.729,0.009l7.971,3.638c0.223,0.102,0.26,0.265,0.082,0.362l-4.543,2.919
			C24.623,29.348,24.295,29.344,24.072,29.242z"/>
		<g>
			<polygon class="st12" points="25.272,17.349 15.265,17.9 15.119,18.195 21.056,26.765 31.21,25.918 			"/>
			<polygon class="st13" points="25.419,17.054 15.265,17.9 21.203,26.47 31.356,25.623 			"/>
			<polygon class="st2" points="21.203,26.47 21.056,26.765 31.21,25.918 31.356,25.623 			"/>
			<path class="st14" d="M29.955,25.444l0.164-0.014l-1.696-2.443l-0.628-0.159l1.621,2.424l-3.165,0.265l-0.261-0.354l-0.36,0.044
				l-0.132-0.18l0.529-0.06l0.191,0.279l1.666-0.191l-0.016-0.142l-1.58,0.181l-0.1-0.146l1.071-0.121l-0.347-0.535l-1.116,0.083
				l-0.169-0.247l-1.806,0.126l-0.107-0.153l0.482-0.045l-0.892-1.189l3.534-0.369l1.191,1.652l0.54-0.054l-2.756-3.956
				l-0.584,0.031l0.007,0.142l0.505-0.026l2.572,3.691l-0.216,0.022l-1.192-1.652l-3.866,0.404l0.89,1.187l-0.309,0.029l-0.898-1.28
				l4.363-0.419l-1.278-1.817l-0.475,0.021l-0.383-0.535l-2.365,0.238l-1.607-2.199l1.071-0.087l-0.407-0.445l-1.25,0.139
				l-0.082-0.115l-0.166,0.013l0.085,0.12l-1.246,0.139l-0.815,0.022l2.399,3.372l0.436-0.085l-2.014-2.817l-0.116,0.083
				l1.885,2.637l-0.128,0.025l-2.191-3.079l0.551-0.015l1.334-0.149l2.047,2.868l2.433-0.208l1.172,1.655l-3.473,0.324l-0.932-1.328
				l0.857-0.043l-1.93-2.818l-0.461,0.036l0.011,0.142l0.378-0.03l1.739,2.539l-0.861,0.044l1.033,1.473l-1.134,0.106l1.368,1.991
				l1.179-0.083l0.242,0.344l-1.268,0.106l0.347,0.481l1.866-0.174l-0.369-0.551l1.157-0.086l0.212,0.309l-0.698,0.079l0.23,0.314
				L23.21,25.5l0.276,0.407l2.492-0.225l-0.252-0.343l0.198-0.024l0.259,0.351l3.486-0.292l-1.549-2.316l0.217,0.055L29.955,25.444z
				 M23.454,23.984l-0.621,0.058l-0.905-1.277l0.628-0.06L23.454,23.984z M26.231,22.17l-1.362-1.923l-2.434,0.208l-1.954-2.737
				l1.099-0.122l0.162,0.177l-1.035,0.084l1.805,2.471l2.364-0.238l0.38,0.53l0.475-0.021l1.092,1.553l-4.199,0.403l-0.032-0.045
				L26.231,22.17z M22.641,24.339l-1.184-1.724l0.973-0.091l0.032,0.046l-0.792,0.076l1.094,1.545l0.784-0.073l0.105,0.15
				L22.641,24.339z M24.312,24.487l0.372,0.555l-1.546,0.144l-0.152-0.21l1.264-0.106l-0.335-0.477l1.639-0.115l0.076,0.111
				L24.312,24.487z M25.888,24.513l0.949-0.071l0.176,0.27l-0.917,0.103L25.888,24.513z M25.714,25.563l-2.157,0.195l-0.098-0.144
				l2.105-0.255L25.714,25.563z"/>
			<g>
				<polygon class="st15" points="25.575,17.697 25.615,17.754 25.411,18.188 25.371,18.131 				"/>
				<polygon class="st15" points="30.343,24.565 29.797,24.61 29.4,25.453 29.945,25.407 				"/>
				<polygon class="st16" points="30.655,24.599 30.382,24.622 29.985,25.464 30.258,25.442 				"/>
				<polygon class="st15" points="30.343,24.565 30.382,24.622 29.985,25.464 29.945,25.407 				"/>
				<polygon class="st17" points="24.758,17.765 29.565,24.69 29.168,25.533 24.361,18.608 				"/>
				<polygon class="st18" points="25.615,17.754 25.07,17.8 25.03,17.742 24.758,17.765 29.565,24.69 29.837,24.667 29.797,24.61 
					30.343,24.565 30.382,24.622 30.655,24.599 25.848,17.674 25.575,17.697 				"/>
				<polygon class="st15" points="26.471,19.602 26.621,19.818 29.894,24.533 30.156,24.511 26.733,19.58 				"/>
				<polygon class="st15" points="25.245,17.836 25.395,18.052 26.274,19.318 26.536,19.296 25.507,17.814 				"/>
				<g>
					<polygon class="st15" points="30.437,24.411 30.487,24.484 30.258,24.503 30.208,24.43 					"/>
					<polygon class="st15" points="30.316,24.237 30.366,24.309 30.137,24.328 30.087,24.256 					"/>
					<polygon class="st15" points="30.195,24.062 30.245,24.135 30.016,24.154 29.966,24.082 					"/>
					<polygon class="st15" points="30.074,23.888 30.124,23.961 29.895,23.98 29.845,23.907 					"/>
					<polygon class="st15" points="29.953,23.714 30.003,23.786 29.774,23.805 29.724,23.733 					"/>
					<polygon class="st15" points="29.832,23.54 29.882,23.612 29.653,23.631 29.603,23.559 					"/>
					<polygon class="st15" points="29.711,23.365 29.761,23.438 29.532,23.457 29.482,23.384 					"/>
					<polygon class="st15" points="29.59,23.191 29.64,23.263 29.411,23.282 29.361,23.21 					"/>
					<polygon class="st15" points="29.469,23.017 29.519,23.089 29.29,23.108 29.24,23.036 					"/>
					<polygon class="st15" points="29.348,22.842 29.398,22.915 29.169,22.934 29.119,22.861 					"/>
					<polygon class="st15" points="29.227,22.668 29.277,22.74 29.048,22.759 28.998,22.687 					"/>
					<polygon class="st15" points="29.106,22.494 29.156,22.566 28.927,22.585 28.877,22.513 					"/>
					<polygon class="st15" points="28.985,22.319 29.035,22.392 28.806,22.411 28.756,22.338 					"/>
					<polygon class="st15" points="28.864,22.145 28.914,22.217 28.685,22.237 28.635,22.164 					"/>
					<polygon class="st15" points="28.743,21.971 28.793,22.043 28.564,22.062 28.514,21.99 					"/>
					<polygon class="st15" points="28.622,21.796 28.672,21.869 28.443,21.888 28.393,21.815 					"/>
					<polygon class="st15" points="28.501,21.622 28.551,21.694 28.322,21.714 28.272,21.641 					"/>
					<polygon class="st15" points="28.38,21.448 28.43,21.52 28.201,21.539 28.151,21.467 					"/>
					<polygon class="st15" points="28.259,21.273 28.309,21.346 28.08,21.365 28.03,21.292 					"/>
					<polygon class="st15" points="28.138,21.099 28.188,21.171 27.959,21.191 27.909,21.118 					"/>
					<polygon class="st15" points="28.017,20.925 28.067,20.997 27.838,21.016 27.788,20.944 					"/>
					<polygon class="st15" points="27.896,20.75 27.946,20.823 27.717,20.842 27.667,20.769 					"/>
					<polygon class="st15" points="27.775,20.576 27.825,20.648 27.596,20.668 27.546,20.595 					"/>
					<polygon class="st15" points="27.654,20.402 27.704,20.474 27.475,20.493 27.425,20.421 					"/>
					<polygon class="st15" points="27.533,20.227 27.583,20.3 27.354,20.319 27.304,20.246 					"/>
					<polygon class="st15" points="27.412,20.053 27.462,20.125 27.233,20.145 27.183,20.072 					"/>
					<polygon class="st15" points="27.291,19.879 27.341,19.951 27.112,19.97 27.062,19.898 					"/>
					<polygon class="st15" points="27.17,19.704 27.22,19.777 26.991,19.796 26.941,19.723 					"/>
					<polygon class="st15" points="27.049,19.53 27.099,19.602 26.87,19.622 26.819,19.549 					"/>
					<polygon class="st15" points="26.928,19.356 26.978,19.428 26.749,19.447 26.698,19.375 					"/>
					<polygon class="st15" points="26.806,19.181 26.857,19.254 26.628,19.273 26.577,19.2 					"/>
					<polygon class="st15" points="26.685,19.007 26.736,19.079 26.507,19.099 26.456,19.026 					"/>
					<polygon class="st15" points="26.564,18.833 26.615,18.905 26.386,18.924 26.335,18.852 					"/>
					<polygon class="st15" points="26.443,18.658 26.494,18.731 26.265,18.75 26.214,18.677 					"/>
					<polygon class="st15" points="26.322,18.484 26.373,18.556 26.144,18.576 26.093,18.503 					"/>
					<polygon class="st15" points="26.201,18.31 26.252,18.382 26.023,18.401 25.972,18.329 					"/>
					<polygon class="st15" points="26.08,18.135 26.131,18.208 25.902,18.227 25.851,18.154 					"/>
					<polygon class="st15" points="25.959,17.961 26.01,18.033 25.781,18.053 25.73,17.98 					"/>
					<polygon class="st15" points="25.838,17.787 25.889,17.859 25.66,17.878 25.609,17.806 					"/>
				</g>
				<g>
					<polygon class="st15" points="29.718,24.471 29.769,24.544 29.54,24.563 29.489,24.49 					"/>
					<polygon class="st15" points="29.597,24.297 29.648,24.369 29.419,24.388 29.368,24.316 					"/>
					<polygon class="st15" points="29.476,24.122 29.527,24.195 29.298,24.214 29.247,24.141 					"/>
					<polygon class="st15" points="29.355,23.948 29.406,24.021 29.177,24.04 29.126,23.967 					"/>
					<polygon class="st15" points="29.234,23.774 29.285,23.846 29.056,23.865 29.005,23.793 					"/>
					<polygon class="st15" points="29.113,23.599 29.164,23.672 28.935,23.691 28.884,23.619 					"/>
					<polygon class="st15" points="28.992,23.425 29.043,23.498 28.814,23.517 28.763,23.444 					"/>
					<polygon class="st15" points="28.871,23.251 28.922,23.323 28.692,23.342 28.642,23.27 					"/>
					<polygon class="st15" points="28.75,23.076 28.801,23.149 28.571,23.168 28.521,23.096 					"/>
					<polygon class="st15" points="28.629,22.902 28.68,22.975 28.45,22.994 28.4,22.921 					"/>
					<polygon class="st15" points="28.508,22.728 28.559,22.8 28.329,22.819 28.279,22.747 					"/>
					<polygon class="st15" points="28.387,22.553 28.437,22.626 28.208,22.645 28.158,22.573 					"/>
					<polygon class="st15" points="28.266,22.379 28.316,22.452 28.087,22.471 28.037,22.398 					"/>
					<polygon class="st15" points="28.145,22.205 28.195,22.277 27.966,22.296 27.916,22.224 					"/>
					<polygon class="st15" points="28.024,22.03 28.074,22.103 27.845,22.122 27.795,22.05 					"/>
					<polygon class="st15" points="27.903,21.856 27.953,21.929 27.724,21.948 27.674,21.875 					"/>
					<polygon class="st15" points="27.782,21.682 27.832,21.754 27.603,21.773 27.553,21.701 					"/>
					<polygon class="st15" points="27.661,21.507 27.711,21.58 27.482,21.599 27.432,21.527 					"/>
					<polygon class="st15" points="27.54,21.333 27.59,21.406 27.361,21.425 27.311,21.352 					"/>
					<polygon class="st15" points="27.419,21.159 27.469,21.231 27.24,21.25 27.19,21.178 					"/>
					<polygon class="st15" points="27.298,20.984 27.348,21.057 27.119,21.076 27.069,21.004 					"/>
					<polygon class="st15" points="27.177,20.81 27.227,20.883 26.998,20.902 26.948,20.829 					"/>
					<polygon class="st15" points="27.056,20.636 27.106,20.708 26.877,20.727 26.827,20.655 					"/>
					<polygon class="st15" points="26.935,20.461 26.985,20.534 26.756,20.553 26.706,20.481 					"/>
					<polygon class="st15" points="26.814,20.287 26.864,20.36 26.635,20.379 26.585,20.306 					"/>
					<polygon class="st15" points="26.693,20.113 26.743,20.185 26.514,20.204 26.464,20.132 					"/>
					<polygon class="st15" points="26.572,19.938 26.622,20.011 26.393,20.03 26.343,19.958 					"/>
					<polygon class="st15" points="26.451,19.764 26.501,19.837 26.272,19.856 26.222,19.783 					"/>
					<polygon class="st15" points="26.33,19.59 26.38,19.662 26.151,19.681 26.101,19.609 					"/>
					<polygon class="st15" points="26.209,19.416 26.259,19.488 26.03,19.507 25.98,19.435 					"/>
					<polygon class="st15" points="26.088,19.241 26.138,19.314 25.909,19.333 25.859,19.26 					"/>
					<polygon class="st15" points="25.967,19.067 26.017,19.139 25.788,19.158 25.738,19.086 					"/>
					<polygon class="st15" points="25.846,18.893 25.896,18.965 25.667,18.984 25.617,18.912 					"/>
					<polygon class="st15" points="25.725,18.718 25.775,18.791 25.546,18.81 25.496,18.737 					"/>
					<polygon class="st15" points="25.604,18.544 25.654,18.616 25.425,18.635 25.375,18.563 					"/>
					<polygon class="st15" points="25.483,18.37 25.533,18.442 25.304,18.461 25.254,18.389 					"/>
					<polygon class="st15" points="25.362,18.195 25.412,18.268 25.183,18.287 25.133,18.214 					"/>
					<polygon class="st15" points="25.241,18.021 25.291,18.093 25.062,18.112 25.012,18.04 					"/>
					<polygon class="st15" points="25.12,17.847 25.17,17.919 24.941,17.938 24.891,17.866 					"/>
				</g>
				<polygon class="st16" points="29.44,25.51 29.837,24.667 29.565,24.69 29.168,25.533 				"/>
				<polygon class="st15" points="26.471,19.602 26.621,19.818 26.733,19.58 				"/>
				<polygon class="st15" points="25.245,17.836 25.395,18.052 25.507,17.814 				"/>
			</g>
			<g>
				<polygon class="st19" points="23.778,17.439 23.72,17.444 23.548,17.809 23.606,17.804 				"/>
				<polygon class="st20" points="16.778,18.023 17.04,18.4 16.707,19.108 16.445,18.731 				"/>
				<polygon class="st21" points="16.589,17.839 16.72,18.028 16.386,18.736 16.255,18.547 				"/>
				<polygon class="st19" points="16.778,18.023 16.72,18.028 16.386,18.736 16.445,18.731 				"/>
				<polygon class="st22" points="24.171,18.005 17.113,18.594 16.779,19.302 23.838,18.713 				"/>
				<polygon class="st23" points="23.72,17.444 23.982,17.822 24.04,17.817 24.171,18.005 17.113,18.594 16.982,18.405 17.04,18.4 
					16.778,18.023 16.72,18.028 16.589,17.839 23.647,17.25 23.778,17.439 				"/>
				<polygon class="st20" points="22.064,17.878 21.844,17.896 17.039,18.297 16.913,18.115 21.938,17.696 				"/>
				<polygon class="st20" points="23.865,17.728 23.644,17.746 22.354,17.854 22.228,17.672 23.739,17.546 				"/>
				<g>
					<polygon class="st20" points="16.827,17.88 16.753,17.886 16.863,18.044 16.937,18.038 					"/>
					<polygon class="st20" points="17.005,17.865 16.931,17.871 17.041,18.03 17.115,18.023 					"/>
					<polygon class="st20" points="17.183,17.85 17.109,17.856 17.219,18.015 17.293,18.009 					"/>
					<polygon class="st20" points="17.36,17.835 17.286,17.841 17.396,18 17.47,17.994 					"/>
					<polygon class="st20" points="17.538,17.82 17.464,17.827 17.574,17.985 17.648,17.979 					"/>
					<polygon class="st20" points="17.716,17.806 17.642,17.812 17.752,17.97 17.826,17.964 					"/>
					<polygon class="st20" points="17.893,17.791 17.819,17.797 17.93,17.956 18.003,17.949 					"/>
					<polygon class="st20" points="18.071,17.776 17.997,17.782 18.107,17.941 18.181,17.935 					"/>
					<polygon class="st20" points="18.249,17.761 18.175,17.767 18.285,17.926 18.359,17.92 					"/>
					<polygon class="st20" points="18.426,17.746 18.352,17.752 18.463,17.911 18.537,17.905 					"/>
					<polygon class="st20" points="18.604,17.731 18.53,17.738 18.64,17.896 18.714,17.89 					"/>
					<polygon class="st20" points="18.782,17.717 18.708,17.723 18.818,17.881 18.892,17.875 					"/>
					<polygon class="st20" points="18.959,17.702 18.886,17.708 18.996,17.867 19.07,17.86 					"/>
					<polygon class="st20" points="19.137,17.687 19.063,17.693 19.173,17.852 19.247,17.846 					"/>
					<polygon class="st20" points="19.315,17.672 19.241,17.678 19.351,17.837 19.425,17.831 					"/>
					<polygon class="st20" points="19.493,17.657 19.419,17.664 19.529,17.822 19.603,17.816 					"/>
					<polygon class="st20" points="19.67,17.643 19.596,17.649 19.706,17.807 19.78,17.801 					"/>
					<polygon class="st20" points="19.848,17.628 19.774,17.634 19.884,17.793 19.958,17.786 					"/>
					<polygon class="st20" points="20.026,17.613 19.952,17.619 20.062,17.778 20.136,17.772 					"/>
					<polygon class="st20" points="20.203,17.598 20.129,17.604 20.239,17.763 20.313,17.757 					"/>
					<polygon class="st20" points="20.381,17.583 20.307,17.59 20.417,17.748 20.491,17.742 					"/>
					<polygon class="st20" points="20.559,17.569 20.485,17.575 20.595,17.733 20.669,17.727 					"/>
					<polygon class="st20" points="20.736,17.554 20.662,17.56 20.773,17.718 20.846,17.712 					"/>
					<polygon class="st20" points="20.914,17.539 20.84,17.545 20.95,17.704 21.024,17.698 					"/>
					<polygon class="st20" points="21.092,17.524 21.018,17.53 21.128,17.689 21.202,17.683 					"/>
					<polygon class="st20" points="21.269,17.509 21.196,17.515 21.306,17.674 21.38,17.668 					"/>
					<polygon class="st20" points="21.447,17.494 21.373,17.501 21.483,17.659 21.557,17.653 					"/>
					<polygon class="st20" points="21.625,17.48 21.551,17.486 21.661,17.644 21.735,17.638 					"/>
					<polygon class="st20" points="21.803,17.465 21.729,17.471 21.839,17.63 21.913,17.623 					"/>
					<polygon class="st20" points="21.98,17.45 21.906,17.456 22.016,17.615 22.09,17.609 					"/>
					<polygon class="st20" points="22.158,17.435 22.084,17.441 22.194,17.6 22.268,17.594 					"/>
					<polygon class="st20" points="22.336,17.42 22.262,17.427 22.372,17.585 22.446,17.579 					"/>
					<polygon class="st20" points="22.513,17.406 22.439,17.412 22.549,17.57 22.623,17.564 					"/>
					<polygon class="st20" points="22.691,17.391 22.617,17.397 22.727,17.556 22.801,17.549 					"/>
					<polygon class="st20" points="22.869,17.376 22.795,17.382 22.905,17.541 22.979,17.535 					"/>
					<polygon class="st20" points="23.046,17.361 22.972,17.367 23.083,17.526 23.156,17.52 					"/>
					<polygon class="st20" points="23.224,17.346 23.15,17.352 23.26,17.511 23.334,17.505 					"/>
					<polygon class="st20" points="23.402,17.331 23.328,17.338 23.438,17.496 23.512,17.49 					"/>
					<polygon class="st20" points="23.579,17.317 23.505,17.323 23.616,17.481 23.69,17.475 					"/>
				</g>
				<g>
					<polygon class="st20" points="17.173,18.377 17.099,18.383 17.209,18.542 17.283,18.536 					"/>
					<polygon class="st20" points="17.35,18.363 17.276,18.369 17.387,18.527 17.461,18.521 					"/>
					<polygon class="st20" points="17.528,18.348 17.454,18.354 17.564,18.512 17.638,18.506 					"/>
					<polygon class="st20" points="17.706,18.333 17.632,18.339 17.742,18.498 17.816,18.492 					"/>
					<polygon class="st20" points="17.883,18.318 17.81,18.324 17.92,18.483 17.994,18.477 					"/>
					<polygon class="st20" points="18.061,18.303 17.987,18.309 18.097,18.468 18.171,18.462 					"/>
					<polygon class="st20" points="18.239,18.288 18.165,18.295 18.275,18.453 18.349,18.447 					"/>
					<polygon class="st20" points="18.417,18.274 18.343,18.28 18.453,18.438 18.527,18.432 					"/>
					<polygon class="st20" points="18.594,18.259 18.52,18.265 18.63,18.424 18.704,18.417 					"/>
					<polygon class="st20" points="18.772,18.244 18.698,18.25 18.808,18.409 18.882,18.403 					"/>
					<polygon class="st20" points="18.95,18.229 18.876,18.235 18.986,18.394 19.06,18.388 					"/>
					<polygon class="st20" points="19.127,18.214 19.053,18.221 19.163,18.379 19.237,18.373 					"/>
					<polygon class="st20" points="19.305,18.2 19.231,18.206 19.341,18.364 19.415,18.358 					"/>
					<polygon class="st20" points="19.483,18.185 19.409,18.191 19.519,18.35 19.593,18.343 					"/>
					<polygon class="st20" points="19.66,18.17 19.586,18.176 19.697,18.335 19.77,18.329 					"/>
					<polygon class="st20" points="19.838,18.155 19.764,18.161 19.874,18.32 19.948,18.314 					"/>
					<polygon class="st20" points="20.016,18.14 19.942,18.146 20.052,18.305 20.126,18.299 					"/>
					<polygon class="st20" points="20.193,18.125 20.119,18.132 20.23,18.29 20.304,18.284 					"/>
					<polygon class="st20" points="20.371,18.111 20.297,18.117 20.407,18.275 20.481,18.269 					"/>
					<polygon class="st20" points="20.549,18.096 20.475,18.102 20.585,18.261 20.659,18.254 					"/>
					<polygon class="st20" points="20.726,18.081 20.653,18.087 20.763,18.246 20.837,18.24 					"/>
					<polygon class="st20" points="20.904,18.066 20.83,18.072 20.94,18.231 21.014,18.225 					"/>
					<polygon class="st20" points="21.082,18.051 21.008,18.058 21.118,18.216 21.192,18.21 					"/>
					<polygon class="st20" points="21.26,18.037 21.186,18.043 21.296,18.201 21.37,18.195 					"/>
					<polygon class="st20" points="21.437,18.022 21.363,18.028 21.473,18.187 21.547,18.18 					"/>
					<polygon class="st20" points="21.615,18.007 21.541,18.013 21.651,18.172 21.725,18.166 					"/>
					<polygon class="st20" points="21.793,17.992 21.719,17.998 21.829,18.157 21.903,18.151 					"/>
					<polygon class="st20" points="21.97,17.977 21.896,17.983 22.006,18.142 22.08,18.136 					"/>
					<polygon class="st20" points="22.148,17.962 22.074,17.969 22.184,18.127 22.258,18.121 					"/>
					<polygon class="st20" points="22.326,17.948 22.252,17.954 22.362,18.112 22.436,18.106 					"/>
					<polygon class="st20" points="22.503,17.933 22.429,17.939 22.54,18.098 22.613,18.091 					"/>
					<polygon class="st20" points="22.681,17.918 22.607,17.924 22.717,18.083 22.791,18.077 					"/>
					<polygon class="st20" points="22.859,17.903 22.785,17.909 22.895,18.068 22.969,18.062 					"/>
					<polygon class="st20" points="23.036,17.888 22.962,17.895 23.073,18.053 23.147,18.047 					"/>
					<polygon class="st20" points="23.214,17.874 23.14,17.88 23.25,18.038 23.324,18.032 					"/>
					<polygon class="st20" points="23.392,17.859 23.318,17.865 23.428,18.024 23.502,18.017 					"/>
					<polygon class="st20" points="23.569,17.844 23.496,17.85 23.606,18.009 23.68,18.003 					"/>
					<polygon class="st20" points="23.747,17.829 23.673,17.835 23.783,17.994 23.857,17.988 					"/>
					<polygon class="st20" points="23.925,17.814 23.851,17.821 23.961,17.979 24.035,17.973 					"/>
				</g>
				<polygon class="st21" points="16.648,19.113 16.982,18.405 17.113,18.594 16.779,19.302 				"/>
				<polygon class="st24" points="22.064,17.878 21.844,17.896 21.938,17.696 				"/>
			</g>
			<g>
				<polygon class="st25" points="27.051,25.509 25.914,23.871 26.739,23.802 27.876,25.44 				"/>
				<g>
					<g>
						<polygon class="st26" points="27.081,23.928 27.112,23.861 27.089,23.827 27.057,23.895 						"/>
						<polygon class="st27" points="27.112,23.861 27.156,23.809 27.114,23.747 27.089,23.827 						"/>
						<polygon class="st27" points="27.081,23.928 27.112,23.861 27.089,23.827 27.069,23.929 						"/>
						<polygon class="st27" points="27.156,23.809 27.191,23.746 27.148,23.684 27.114,23.747 						"/>
						<polygon class="st26" points="27.069,23.929 27.1,23.861 27.077,23.828 27.046,23.895 						"/>
						<polygon class="st26" points="27.1,23.861 27.144,23.809 27.102,23.748 27.077,23.828 						"/>
						<polygon class="st26" points="27.144,23.809 27.179,23.746 27.136,23.685 27.102,23.748 						"/>
						<polygon class="st27" points="27.032,23.778 27.175,23.766 27.184,23.743 27.139,23.704 26.999,23.697 26.989,23.717 						
							"/>
						<polygon class="st28" points="27.041,23.758 27.191,23.746 27.148,23.684 26.999,23.697 						"/>
					</g>
					<g>
						<polygon class="st26" points="27.237,24.153 27.268,24.085 27.245,24.052 27.213,24.119 						"/>
						<polygon class="st27" points="27.268,24.085 27.312,24.033 27.27,23.972 27.245,24.052 						"/>
						<polygon class="st27" points="27.237,24.153 27.268,24.085 27.245,24.052 27.225,24.154 						"/>
						<polygon class="st27" points="27.312,24.033 27.347,23.97 27.304,23.909 27.27,23.972 						"/>
						<polygon class="st26" points="27.225,24.154 27.256,24.086 27.233,24.053 27.201,24.12 						"/>
						<polygon class="st26" points="27.256,24.086 27.3,24.034 27.258,23.973 27.233,24.053 						"/>
						<polygon class="st26" points="27.3,24.034 27.335,23.971 27.292,23.91 27.258,23.973 						"/>
						<polygon class="st27" points="27.188,24.003 27.331,23.991 27.34,23.968 27.295,23.929 27.155,23.922 27.145,23.942 						"/>
						<polygon class="st28" points="27.197,23.983 27.347,23.97 27.304,23.909 27.155,23.922 						"/>
					</g>
					<g>
						<polygon class="st26" points="27.392,24.378 27.424,24.31 27.401,24.277 27.369,24.344 						"/>
						<polygon class="st27" points="27.424,24.31 27.468,24.258 27.426,24.197 27.401,24.277 						"/>
						<polygon class="st27" points="27.392,24.378 27.424,24.31 27.401,24.277 27.381,24.378 						"/>
						<polygon class="st27" points="27.468,24.258 27.503,24.195 27.46,24.134 27.426,24.197 						"/>
						<polygon class="st26" points="27.381,24.378 27.412,24.311 27.389,24.277 27.357,24.345 						"/>
						<polygon class="st26" points="27.412,24.311 27.456,24.259 27.414,24.197 27.389,24.277 						"/>
						<polygon class="st26" points="27.456,24.259 27.491,24.196 27.448,24.134 27.414,24.197 						"/>
						<polygon class="st27" points="27.344,24.228 27.487,24.216 27.496,24.192 27.451,24.154 27.311,24.146 27.301,24.166 						
							"/>
						<polygon class="st28" points="27.353,24.207 27.503,24.195 27.46,24.134 27.311,24.146 						"/>
					</g>
					<g>
						<polygon class="st26" points="27.548,24.602 27.58,24.535 27.557,24.501 27.525,24.569 						"/>
						<polygon class="st27" points="27.58,24.535 27.624,24.483 27.582,24.421 27.557,24.501 						"/>
						<polygon class="st27" points="27.548,24.602 27.58,24.535 27.557,24.501 27.536,24.603 						"/>
						<polygon class="st27" points="27.624,24.483 27.659,24.42 27.616,24.358 27.582,24.421 						"/>
						<polygon class="st26" points="27.536,24.603 27.568,24.535 27.545,24.502 27.513,24.569 						"/>
						<polygon class="st26" points="27.568,24.535 27.612,24.483 27.57,24.422 27.545,24.502 						"/>
						<polygon class="st26" points="27.612,24.483 27.647,24.42 27.604,24.359 27.57,24.422 						"/>
						<polygon class="st27" points="27.5,24.452 27.643,24.44 27.652,24.417 27.607,24.378 27.467,24.371 27.457,24.391 						"/>
						<polygon class="st28" points="27.509,24.432 27.659,24.42 27.616,24.358 27.467,24.371 						"/>
					</g>
					<g>
						<polygon class="st26" points="27.704,24.827 27.736,24.759 27.713,24.726 27.681,24.793 						"/>
						<polygon class="st27" points="27.736,24.759 27.78,24.707 27.738,24.646 27.713,24.726 						"/>
						<polygon class="st27" points="27.704,24.827 27.736,24.759 27.713,24.726 27.692,24.827 						"/>
						<polygon class="st27" points="27.78,24.707 27.815,24.644 27.772,24.583 27.738,24.646 						"/>
						<polygon class="st26" points="27.692,24.827 27.724,24.76 27.701,24.727 27.669,24.794 						"/>
						<polygon class="st26" points="27.724,24.76 27.768,24.708 27.726,24.647 27.701,24.727 						"/>
						<polygon class="st26" points="27.768,24.708 27.803,24.645 27.76,24.584 27.726,24.647 						"/>
						<polygon class="st27" points="27.656,24.677 27.799,24.665 27.808,24.642 27.763,24.603 27.622,24.595 27.613,24.616 						
							"/>
						<polygon class="st28" points="27.665,24.657 27.815,24.644 27.772,24.583 27.622,24.595 						"/>
					</g>
					<g>
						<polygon class="st26" points="27.86,25.051 27.892,24.984 27.869,24.951 27.837,25.018 						"/>
						<polygon class="st27" points="27.892,24.984 27.936,24.932 27.894,24.871 27.869,24.951 						"/>
						<polygon class="st27" points="27.86,25.051 27.892,24.984 27.869,24.951 27.848,25.052 						"/>
						<polygon class="st27" points="27.936,24.932 27.97,24.869 27.928,24.808 27.894,24.871 						"/>
						<polygon class="st26" points="27.848,25.052 27.88,24.985 27.857,24.951 27.825,25.019 						"/>
						<polygon class="st26" points="27.88,24.985 27.924,24.933 27.882,24.871 27.857,24.951 						"/>
						<polygon class="st26" points="27.924,24.933 27.959,24.87 27.916,24.808 27.882,24.871 						"/>
						<polygon class="st27" points="27.812,24.901 27.955,24.89 27.964,24.866 27.918,24.828 27.778,24.82 27.769,24.84 						"/>
						<polygon class="st28" points="27.821,24.881 27.97,24.869 27.928,24.808 27.778,24.82 						"/>
					</g>
					<g>
						<polygon class="st26" points="28.016,25.276 28.048,25.209 28.025,25.175 27.993,25.243 						"/>
						<polygon class="st27" points="28.048,25.209 28.092,25.157 28.049,25.095 28.025,25.175 						"/>
						<polygon class="st27" points="28.016,25.276 28.048,25.209 28.025,25.175 28.004,25.277 						"/>
						<polygon class="st27" points="28.092,25.157 28.126,25.094 28.084,25.032 28.049,25.095 						"/>
						<polygon class="st26" points="28.004,25.277 28.036,25.209 28.013,25.176 27.981,25.243 						"/>
						<polygon class="st26" points="28.036,25.209 28.08,25.157 28.038,25.096 28.013,25.176 						"/>
						<polygon class="st26" points="28.08,25.157 28.114,25.094 28.072,25.033 28.038,25.096 						"/>
						<polygon class="st27" points="27.967,25.126 28.111,25.114 28.12,25.091 28.074,25.052 27.934,25.045 27.925,25.065 						"/>
						<polygon class="st28" points="27.977,25.106 28.126,25.094 28.084,25.032 27.934,25.045 						"/>
					</g>
				</g>
				<polygon class="st29" points="27.113,25.377 25.976,23.739 26.057,23.567 28.019,25.136 27.938,25.308 				"/>
				<polygon class="st30" points="27.194,25.205 26.057,23.567 26.882,23.498 28.019,25.136 				"/>
				<g>
					<g>
						<polygon class="st27" points="25.98,23.912 26.014,23.849 25.96,23.777 25.926,23.84 						"/>
						<polygon class="st27" points="25.892,24.021 25.924,23.953 25.901,23.92 25.88,24.022 						"/>
						<polygon class="st27" points="25.924,23.953 25.98,23.912 25.926,23.84 25.901,23.92 						"/>
						<polygon class="st27" points="25.981,23.859 26.131,23.847 26.14,23.827 25.939,23.798 						"/>
						<polygon class="st28" points="25.991,23.839 26.14,23.827 26.098,23.765 25.948,23.778 						"/>
						<polygon class="st26" points="25.956,23.902 25.991,23.839 25.948,23.778 25.914,23.841 						"/>
						<polygon class="st26" points="25.88,24.022 25.912,23.954 25.889,23.921 25.857,23.988 						"/>
						<polygon class="st26" points="25.912,23.954 25.956,23.902 25.914,23.841 25.889,23.921 						"/>
					</g>
					<g>
						<polygon class="st27" points="26.167,24.181 26.201,24.118 26.147,24.047 26.113,24.11 						"/>
						<polygon class="st27" points="26.08,24.29 26.111,24.223 26.088,24.19 26.068,24.291 						"/>
						<polygon class="st27" points="26.111,24.223 26.167,24.181 26.113,24.11 26.088,24.19 						"/>
						<polygon class="st27" points="26.168,24.129 26.318,24.116 26.327,24.096 26.126,24.067 						"/>
						<polygon class="st28" points="26.178,24.109 26.327,24.096 26.285,24.035 26.135,24.047 						"/>
						<polygon class="st26" points="26.143,24.172 26.178,24.109 26.135,24.047 26.101,24.11 						"/>
						<polygon class="st26" points="26.068,24.291 26.099,24.224 26.076,24.19 26.044,24.258 						"/>
						<polygon class="st26" points="26.099,24.224 26.143,24.172 26.101,24.11 26.076,24.19 						"/>
					</g>
					<g>
						<polygon class="st27" points="26.354,24.451 26.388,24.388 26.334,24.316 26.3,24.379 						"/>
						<polygon class="st27" points="26.267,24.56 26.298,24.492 26.275,24.459 26.255,24.561 						"/>
						<polygon class="st27" points="26.298,24.492 26.354,24.451 26.3,24.379 26.275,24.459 						"/>
						<polygon class="st27" points="26.355,24.398 26.505,24.386 26.514,24.366 26.313,24.337 						"/>
						<polygon class="st28" points="26.365,24.378 26.514,24.366 26.472,24.304 26.322,24.317 						"/>
						<polygon class="st26" points="26.33,24.441 26.365,24.378 26.322,24.317 26.288,24.38 						"/>
						<polygon class="st26" points="26.255,24.561 26.286,24.493 26.263,24.46 26.232,24.527 						"/>
						<polygon class="st26" points="26.286,24.493 26.33,24.441 26.288,24.38 26.263,24.46 						"/>
					</g>
					<g>
						<polygon class="st27" points="26.541,24.72 26.576,24.657 26.521,24.586 26.487,24.649 						"/>
						<polygon class="st27" points="26.454,24.83 26.485,24.762 26.462,24.729 26.442,24.83 						"/>
						<polygon class="st27" points="26.485,24.762 26.541,24.72 26.487,24.649 26.462,24.729 						"/>
						<polygon class="st27" points="26.543,24.668 26.692,24.655 26.701,24.635 26.5,24.607 						"/>
						<polygon class="st28" points="26.552,24.648 26.701,24.635 26.659,24.574 26.509,24.586 						"/>
						<polygon class="st26" points="26.518,24.711 26.552,24.648 26.509,24.586 26.475,24.65 						"/>
						<polygon class="st26" points="26.442,24.83 26.473,24.763 26.45,24.729 26.419,24.797 						"/>
						<polygon class="st26" points="26.473,24.763 26.518,24.711 26.475,24.65 26.45,24.729 						"/>
					</g>
					<g>
						<polygon class="st27" points="26.728,24.99 26.763,24.927 26.709,24.855 26.674,24.918 						"/>
						<polygon class="st27" points="26.641,25.099 26.672,25.032 26.649,24.998 26.629,25.1 						"/>
						<polygon class="st27" points="26.672,25.032 26.728,24.99 26.674,24.918 26.649,24.998 						"/>
						<polygon class="st27" points="26.73,24.937 26.879,24.925 26.889,24.905 26.687,24.876 						"/>
						<polygon class="st28" points="26.739,24.917 26.889,24.905 26.846,24.844 26.697,24.856 						"/>
						<polygon class="st26" points="26.705,24.98 26.739,24.917 26.697,24.856 26.662,24.919 						"/>
						<polygon class="st26" points="26.629,25.1 26.66,25.032 26.637,24.999 26.606,25.067 						"/>
						<polygon class="st26" points="26.66,25.032 26.705,24.98 26.662,24.919 26.637,24.999 						"/>
					</g>
					<g>
						<polygon class="st27" points="26.915,25.26 26.95,25.196 26.896,25.125 26.861,25.188 						"/>
						<polygon class="st27" points="26.828,25.369 26.86,25.301 26.836,25.268 26.816,25.369 						"/>
						<polygon class="st27" points="26.86,25.301 26.915,25.26 26.861,25.188 26.836,25.268 						"/>
						<polygon class="st27" points="26.917,25.207 27.066,25.195 27.076,25.174 26.874,25.146 						"/>
						<polygon class="st28" points="26.926,25.187 27.076,25.174 27.033,25.113 26.884,25.126 						"/>
						<polygon class="st26" points="26.892,25.25 26.926,25.187 26.884,25.126 26.849,25.189 						"/>
						<polygon class="st26" points="26.816,25.369 26.848,25.302 26.824,25.269 26.793,25.336 						"/>
						<polygon class="st26" points="26.848,25.302 26.892,25.25 26.849,25.189 26.824,25.269 						"/>
					</g>
				</g>
			</g>
			<g>
				<polygon class="st31" points="18.502,19.172 18.538,19.224 18.352,19.617 18.316,19.565 				"/>
				<polygon class="st31" points="22.823,25.397 22.329,25.439 21.969,26.203 22.463,26.161 				"/>
				<polygon class="st32" points="23.106,25.429 22.859,25.449 22.499,26.213 22.746,26.193 				"/>
				<polygon class="st31" points="22.823,25.397 22.859,25.449 22.499,26.213 22.463,26.161 				"/>
				<polygon class="st33" points="17.76,19.234 22.118,25.511 21.758,26.275 17.4,19.997 				"/>
				<polygon class="st34" points="18.538,19.224 18.044,19.265 18.008,19.213 17.76,19.234 22.118,25.511 22.365,25.491 
					22.329,25.439 22.823,25.397 22.859,25.449 23.106,25.429 18.749,19.151 18.502,19.172 				"/>
				<polygon class="st31" points="19.314,20.899 19.45,21.095 22.416,25.369 22.654,25.349 19.551,20.879 				"/>
				<polygon class="st31" points="18.202,19.298 18.338,19.494 19.135,20.641 19.372,20.621 18.44,19.278 				"/>
				<g>
					<polygon class="st31" points="22.909,25.258 22.954,25.324 22.747,25.342 22.701,25.276 					"/>
					<polygon class="st31" points="22.799,25.1 22.845,25.166 22.637,25.183 22.591,25.118 					"/>
					<polygon class="st31" points="22.689,24.942 22.735,25.008 22.527,25.025 22.482,24.96 					"/>
					<polygon class="st31" points="22.58,24.784 22.625,24.85 22.418,24.867 22.372,24.802 					"/>
					<polygon class="st31" points="22.47,24.626 22.515,24.692 22.308,24.709 22.262,24.644 					"/>
					<polygon class="st31" points="22.36,24.468 22.406,24.534 22.198,24.551 22.153,24.486 					"/>
					<polygon class="st31" points="22.25,24.31 22.296,24.376 22.088,24.393 22.043,24.328 					"/>
					<polygon class="st31" points="22.141,24.152 22.186,24.218 21.979,24.235 21.933,24.17 					"/>
					<polygon class="st31" points="22.031,23.994 22.077,24.06 21.869,24.077 21.823,24.011 					"/>
					<polygon class="st31" points="21.921,23.836 21.967,23.902 21.759,23.919 21.714,23.853 					"/>
					<polygon class="st31" points="21.812,23.678 21.857,23.744 21.65,23.761 21.604,23.695 					"/>
					<polygon class="st31" points="21.702,23.52 21.748,23.586 21.54,23.603 21.494,23.537 					"/>
					<polygon class="st31" points="21.592,23.362 21.638,23.428 21.43,23.445 21.385,23.379 					"/>
					<polygon class="st31" points="21.483,23.204 21.528,23.27 21.321,23.287 21.275,23.221 					"/>
					<polygon class="st31" points="21.373,23.046 21.418,23.112 21.211,23.129 21.165,23.063 					"/>
					<polygon class="st31" points="21.263,22.888 21.309,22.954 21.101,22.971 21.056,22.905 					"/>
					<polygon class="st31" points="21.153,22.73 21.199,22.796 20.991,22.813 20.946,22.747 					"/>
					<polygon class="st31" points="21.044,22.572 21.089,22.638 20.882,22.655 20.836,22.589 					"/>
					<polygon class="st31" points="20.934,22.414 20.98,22.48 20.772,22.497 20.726,22.431 					"/>
					<polygon class="st31" points="20.824,22.256 20.87,22.322 20.662,22.339 20.617,22.273 					"/>
					<polygon class="st31" points="20.715,22.098 20.76,22.164 20.553,22.181 20.507,22.115 					"/>
					<polygon class="st31" points="20.605,21.94 20.651,22.006 20.443,22.023 20.397,21.957 					"/>
					<polygon class="st31" points="20.495,21.782 20.541,21.847 20.333,21.865 20.288,21.799 					"/>
					<polygon class="st31" points="20.386,21.624 20.431,21.689 20.224,21.707 20.178,21.641 					"/>
					<polygon class="st31" points="20.276,21.466 20.321,21.531 20.114,21.549 20.068,21.483 					"/>
					<polygon class="st31" points="20.166,21.308 20.212,21.373 20.004,21.391 19.959,21.325 					"/>
					<polygon class="st31" points="20.056,21.15 20.102,21.215 19.894,21.233 19.849,21.167 					"/>
					<polygon class="st31" points="19.947,20.992 19.992,21.057 19.785,21.075 19.739,21.009 					"/>
					<polygon class="st31" points="19.837,20.834 19.883,20.899 19.675,20.917 19.629,20.851 					"/>
					<polygon class="st31" points="19.727,20.675 19.773,20.741 19.565,20.759 19.52,20.693 					"/>
					<polygon class="st31" points="19.618,20.517 19.663,20.583 19.456,20.601 19.41,20.535 					"/>
					<polygon class="st31" points="19.508,20.359 19.554,20.425 19.346,20.442 19.3,20.377 					"/>
					<polygon class="st31" points="19.398,20.201 19.444,20.267 19.236,20.284 19.191,20.219 					"/>
					<polygon class="st31" points="19.289,20.043 19.334,20.109 19.127,20.126 19.081,20.061 					"/>
					<polygon class="st31" points="19.179,19.885 19.225,19.951 19.017,19.968 18.971,19.903 					"/>
					<polygon class="st31" points="19.069,19.727 19.115,19.793 18.907,19.81 18.862,19.745 					"/>
					<polygon class="st31" points="18.959,19.569 19.005,19.635 18.798,19.652 18.752,19.587 					"/>
					<polygon class="st31" points="18.85,19.411 18.895,19.477 18.688,19.494 18.642,19.429 					"/>
					<polygon class="st31" points="18.74,19.253 18.786,19.319 18.578,19.336 18.532,19.27 					"/>
				</g>
				<g>
					<polygon class="st31" points="22.257,25.313 22.303,25.379 22.095,25.396 22.05,25.33 					"/>
					<polygon class="st31" points="22.148,25.155 22.193,25.22 21.986,25.238 21.94,25.172 					"/>
					<polygon class="st31" points="22.038,24.997 22.083,25.062 21.876,25.08 21.83,25.014 					"/>
					<polygon class="st31" points="21.928,24.839 21.974,24.904 21.766,24.922 21.721,24.856 					"/>
					<polygon class="st31" points="21.818,24.681 21.864,24.746 21.656,24.764 21.611,24.698 					"/>
					<polygon class="st31" points="21.709,24.523 21.754,24.588 21.547,24.606 21.501,24.54 					"/>
					<polygon class="st31" points="21.599,24.365 21.645,24.43 21.437,24.448 21.391,24.382 					"/>
					<polygon class="st31" points="21.489,24.207 21.535,24.272 21.327,24.29 21.282,24.224 					"/>
					<polygon class="st31" points="21.38,24.049 21.425,24.114 21.218,24.132 21.172,24.066 					"/>
					<polygon class="st31" points="21.27,23.89 21.316,23.956 21.108,23.974 21.062,23.908 					"/>
					<polygon class="st31" points="21.16,23.732 21.206,23.798 20.998,23.815 20.953,23.75 					"/>
					<polygon class="st31" points="21.051,23.574 21.096,23.64 20.889,23.657 20.843,23.592 					"/>
					<polygon class="st31" points="20.941,23.416 20.986,23.482 20.779,23.499 20.733,23.434 					"/>
					<polygon class="st31" points="20.831,23.258 20.877,23.324 20.669,23.341 20.624,23.276 					"/>
					<polygon class="st31" points="20.721,23.1 20.767,23.166 20.559,23.183 20.514,23.118 					"/>
					<polygon class="st31" points="20.612,22.942 20.657,23.008 20.45,23.025 20.404,22.96 					"/>
					<polygon class="st31" points="20.502,22.784 20.548,22.85 20.34,22.867 20.294,22.802 					"/>
					<polygon class="st31" points="20.392,22.626 20.438,22.692 20.23,22.709 20.185,22.644 					"/>
					<polygon class="st31" points="20.283,22.468 20.328,22.534 20.121,22.551 20.075,22.485 					"/>
					<polygon class="st31" points="20.173,22.31 20.219,22.376 20.011,22.393 19.965,22.327 					"/>
					<polygon class="st31" points="20.063,22.152 20.109,22.218 19.901,22.235 19.856,22.169 					"/>
					<polygon class="st31" points="19.954,21.994 19.999,22.06 19.792,22.077 19.746,22.011 					"/>
					<polygon class="st31" points="19.844,21.836 19.89,21.902 19.682,21.919 19.636,21.853 					"/>
					<polygon class="st31" points="19.734,21.678 19.78,21.744 19.572,21.761 19.527,21.695 					"/>
					<polygon class="st31" points="19.624,21.52 19.67,21.586 19.462,21.603 19.417,21.537 					"/>
					<polygon class="st31" points="19.515,21.362 19.56,21.428 19.353,21.445 19.307,21.379 					"/>
					<polygon class="st31" points="19.405,21.204 19.451,21.27 19.243,21.287 19.197,21.221 					"/>
					<polygon class="st31" points="19.295,21.046 19.341,21.112 19.133,21.129 19.088,21.063 					"/>
					<polygon class="st31" points="19.186,20.888 19.231,20.954 19.024,20.971 18.978,20.905 					"/>
					<polygon class="st31" points="19.076,20.73 19.122,20.796 18.914,20.813 18.868,20.747 					"/>
					<polygon class="st31" points="18.966,20.572 19.012,20.638 18.804,20.655 18.759,20.589 					"/>
					<polygon class="st31" points="18.857,20.414 18.902,20.479 18.695,20.497 18.649,20.431 					"/>
					<polygon class="st31" points="18.747,20.256 18.793,20.321 18.585,20.339 18.539,20.273 					"/>
					<polygon class="st31" points="18.637,20.098 18.683,20.163 18.475,20.181 18.43,20.115 					"/>
					<polygon class="st31" points="18.527,19.94 18.573,20.005 18.366,20.023 18.32,19.957 					"/>
					<polygon class="st31" points="18.418,19.782 18.463,19.847 18.256,19.865 18.21,19.799 					"/>
					<polygon class="st31" points="18.308,19.624 18.354,19.689 18.146,19.707 18.1,19.641 					"/>
					<polygon class="st31" points="18.198,19.466 18.244,19.531 18.036,19.549 17.991,19.483 					"/>
					<polygon class="st31" points="18.089,19.307 18.134,19.373 17.927,19.391 17.881,19.325 					"/>
				</g>
				<polygon class="st32" points="22.005,26.254 22.365,25.491 22.118,25.511 21.758,26.275 				"/>
				<polygon class="st31" points="19.314,20.899 19.45,21.095 19.551,20.879 				"/>
				<polygon class="st31" points="18.202,19.298 18.338,19.494 18.44,19.278 				"/>
			</g>
		</g>
	</g>
	<g>
		<g>
			<g>
				<path class="st35" d="M4.873,38.576c-0.175-0.417-0.817-1.034-0.817-1.034S2.88,36.6,2.48,36.258
					c-0.298-0.255-0.314-0.435-0.303-0.511c0,0,0,0,0,0c0.001-0.005,0.003-0.01,0.004-0.014c0-0.001,0.001-0.002,0.001-0.003
					c0.004-0.014,0.006-0.023,0.006-0.023s0.213-0.288,0.588-0.45c0.375-0.163,1.025-0.5,1.025-0.5l0.175-0.038l0.125,0.075
					l3.852-0.838l0.125,0.05V33.87l0.375-0.063c0,0,1.175,0.013,1.401,0.063c0.225,0.05,0.488,0.075,0.55,0.363
					c0.063,0.288,0.45,1.426,0.525,1.601c0.075,0.175,0.35,0.488,0.35,0.488s2.113-0.138,3.101,0
					c0.988,0.138,2.313,0.388,3.201,0.975c0.888,0.588,0.9,0.675,0.9,0.675s1.163,1.242,1.738,2.441
					c0.575,1.198,0.625,1.348,0.563,1.536c-0.063,0.188-0.213,0.763-0.213,0.763s-0.388,0.531-0.556,0.757
					c-0.169,0.225-0.563,1.313-0.544,1.338c0.013,0.018-0.199,0.177-0.326,0.271c-0.204,0.052-0.424-0.039-0.424-0.039
					s-0.738,0.013-1.888,0.076c-1.15,0.064-2.138,0.336-4.839,0.274c-2.701-0.063-4.652-1.276-5.115-1.576
					c-0.463-0.3-0.966-0.769-0.966-0.769l0,0c-0.057-0.136-0.109-0.257-0.109-0.257L5.39,41.761l-0.175-1.676
					c0,0-0.125-0.875-0.188-0.988c-0.002-0.004-0.006-0.011-0.009-0.016c0.003,0.006,0.007,0.012,0.009,0.016
					C5.027,39.097,5.048,38.993,4.873,38.576z"/>
			</g>
			<path class="st35" d="M8.078,33.87l0.375-0.063c0,0,1.175,0.013,1.401,0.063c0.225,0.05,0.488,0.075,0.55,0.363
				c0.063,0.288,0.45,1.426,0.525,1.601c0.075,0.175,0.35,0.488,0.35,0.488s2.113-0.138,3.101,0s2.313,0.388,3.201,0.975
				c0.888,0.588,0.9,0.675,0.9,0.675s1.163,1.242,1.738,2.441c0.575,1.198,0.625,1.348,0.563,1.536
				c-0.063,0.188-0.213,0.763-0.213,0.763l-0.288,0.775l-0.813,1.426l-0.213,0.338c0,0-0.213,0.45-0.375,0.525
				c-0.163,0.075-0.525,0.1-0.525,0.1s-0.425,0.5-0.488,0.6s-0.125,0.15-0.125,0.15s-0.5,0.175-0.738,0.2s-0.463,0-0.463,0
				l-0.15,0.113c0,0-0.35,0-0.425,0c-0.022,0-0.204,0.017-0.464,0.042c-0.639,0.061-1.747,0.169-2.112,0.196
				c-0.513,0.038-1.606-0.063-1.606-0.063l-0.907-0.238c0,0-0.263,0.513-0.75,0.6c-0.488,0.088-1.213,0.075-1.901-0.75
				s-1.2-1.901-1.263-2.101c-0.063-0.2-0.088-0.388-0.088-0.388l-0.413-0.3c0,0-0.388-0.488-0.4-0.525s-0.263-0.625-0.263-0.625
				L5.39,41.761l-0.175-1.676c0,0-0.125-0.875-0.188-0.988c-0.063-0.113-0.513-0.925-1.426-1.638
				c-0.913-0.713-1.501-1.376-1.488-1.451c0.013-0.075,0.075-0.3,0.075-0.3s0.213-0.288,0.588-0.45c0.375-0.163,1.025-0.5,1.025-0.5
				l0.175-0.038l0.125,0.075l3.852-0.838l0.125,0.05V33.87z"/>
			<g>
				<g>
					<path class="st36" d="M6.878,44.236c0,0,0.025,0.188,0.088,0.388c0.063,0.2,0.575,1.276,1.263,2.101s1.413,0.838,1.901,0.75
						c0.488-0.088,0.75-0.6,0.75-0.6s0.194-0.363,0.213-0.456c0.019-0.094-0.732-0.844-0.732-0.844l-0.525-0.219L7.003,44.13
						L6.878,44.236z"/>
					<path class="st37" d="M9.885,45.487c0,0,0.088,1.013,0,1.338s-0.419,0.625-0.957,0.294c-0.538-0.331-1.019-0.869-1.319-1.432
						c-0.3-0.563-0.625-1.432-0.625-1.432L9.885,45.487z"/>
				</g>
				<g>
					<path class="st38" d="M20.571,42.711l-0.288,0.775l-0.813,1.426l-0.213,0.338c0,0-0.213,0.45-0.375,0.525
						c-0.163,0.075-0.525,0.1-0.525,0.1s-0.425,0.5-0.488,0.6s-0.125,0.15-0.125,0.15s-0.5,0.175-0.738,0.2s-0.463,0-0.463,0
						l-0.15,0.113c0,0-0.35,0-0.425,0c-0.022,0-0.204,0.017-0.464,0.042c-0.639,0.061-1.747,0.169-2.112,0.196
						c-0.513,0.038-1.606-0.063-1.606-0.063l-0.907-0.238l0.263-0.638c0,0,2.413-0.363,3.639-0.625s3.739-0.413,3.739-0.413
						l0.531-0.056c0,0,0.438-0.313,0.419-0.338c-0.019-0.025,0.375-1.113,0.544-1.338C20.183,43.242,20.571,42.711,20.571,42.711z"
						/>
					<g>
						<g>
							
								<ellipse transform="matrix(0.4394 -0.8983 0.8983 0.4394 -32.1389 40.5064)" class="st39" cx="16.385" cy="46.004" rx="1.022" ry="0.718"/>
							
								<ellipse transform="matrix(0.333 -0.9429 0.9429 0.333 -32.3754 46.1727)" class="st2" cx="16.448" cy="45.97" rx="0.828" ry="0.529"/>
						</g>
						<g>
							
								<ellipse transform="matrix(0.4394 -0.8983 0.8983 0.4394 -30.0904 42.1547)" class="st39" cx="18.73" cy="45.187" rx="0.724" ry="0.508"/>
							
								<ellipse transform="matrix(0.333 -0.9429 0.9429 0.333 -30.0622 47.8281)" class="st2" cx="18.774" cy="45.162" rx="0.586" ry="0.374"/>
						</g>
					</g>
				</g>
			</g>
			<g>
				<g>
					<path class="st40" d="M11.992,45.387c2.701,0.063,3.689-0.21,4.839-0.274c1.15-0.064,1.888-0.076,1.888-0.076
						s0.3,0.125,0.525,0c0.225-0.125,0.225-0.125,0.225-0.125l-0.213,0.338c0,0-0.088,0.1-0.463,0.125
						c-0.375,0.025-1.588,0.05-1.638,0.05c-0.05,0-0.625,0.088-0.95,0.35c-0.325,0.263-0.675,0.763-0.738,0.875
						s0.036,0.329,0.036,0.329c-0.639,0.061-1.747,0.169-2.112,0.196c-0.513,0.038-1.606-0.063-1.606-0.063s-0.557-0.575-0.72-0.75
						c-0.163-0.175-0.475-0.7-0.988-0.8c0,0-0.625-0.188-1.426-0.45s-1.776-0.875-1.776-0.875l-0.413-0.3c0,0-0.388-0.488-0.4-0.525
						l-0.154-0.368c0,0,0.504,0.468,0.966,0.769C7.34,44.111,9.291,45.324,11.992,45.387z"/>
					<path class="st40" d="M2.177,35.748c0.004-0.026,0.011-0.04,0.011-0.04S2.184,35.724,2.177,35.748z"/>
					<path class="st40" d="M2.177,35.748c-0.011,0.076,0.005,0.256,0.303,0.511c0.4,0.342,1.576,1.284,1.576,1.284
						s0.642,0.617,0.817,1.034c0.175,0.417,0.154,0.521,0.154,0.521c-0.063-0.113-0.513-0.925-1.426-1.638
						c-0.913-0.713-1.501-1.376-1.488-1.451C2.123,35.953,2.159,35.816,2.177,35.748z"/>
				</g>
				<path class="st35" d="M2.179,35.743c0.006-0.022,0.01-0.035,0.01-0.035s0.213-0.288,0.588-0.45s1.025-0.5,1.025-0.5l0.175-0.038
					l0.125,0.075l3.852-0.838l0.125,0.05V33.87l0.375-0.063c0,0,1.175,0.013,1.401,0.063s0.488,0.075,0.55,0.363
					c0.063,0.288,0.45,1.426,0.525,1.601c0.075,0.175,0.35,0.488,0.35,0.488s2.113-0.138,3.101,0
					c0.988,0.138,2.313,0.388,3.201,0.975c0.888,0.588,0.9,0.675,0.9,0.675s1.163,1.242,1.738,2.441
					c0.575,1.198,0.625,1.348,0.563,1.536c-0.063,0.188-0.213,0.763-0.213,0.763s-0.388,0.531-0.556,0.757
					c-0.169,0.225-0.563,1.419-0.544,1.444c0.013,0.018-0.223,0.156-0.326,0.164c-0.204,0.052-0.424-0.039-0.424-0.039
					s-0.738,0.013-1.888,0.076c-1.15,0.064-2.138,0.336-4.839,0.274c-2.701-0.063-4.652-1.276-5.115-1.576
					c-0.463-0.3-0.966-0.768-0.966-0.769c-0.057-0.136-0.109-0.257-0.109-0.257L5.39,41.761l-0.175-1.676
					c0,0-0.125-0.875-0.188-0.988l0,0c0,0,0.021-0.104-0.154-0.521c-0.175-0.417-0.817-1.034-0.817-1.034S2.88,36.6,2.48,36.258
					c-0.298-0.254-0.314-0.435-0.303-0.51c0-0.001,0.001-0.002,0.001-0.003C2.178,35.744,2.178,35.744,2.179,35.743z"/>
			</g>
			<g>
				<g>
					<ellipse class="st41" cx="12.754" cy="38.013" rx="2.993" ry="1.055"/>
					<g>
						<path class="st42" d="M12.758,37.088c-1.59,0-2.889,0.438-2.984,0.991c-0.004-0.021-0.006-0.043-0.006-0.065
							c0-0.583,1.339-1.055,2.99-1.055c1.651,0,2.99,0.472,2.99,1.055c0,0.022-0.002,0.043-0.006,0.065
							C15.646,37.525,14.347,37.088,12.758,37.088z"/>
					</g>
				</g>
				<g>
					<g>
						<g>
							<ellipse class="st43" cx="14.758" cy="37.258" rx="0.265" ry="0.123"/>
							<g>
								<path class="st44" d="M14.758,37.366c0.141,0,0.256-0.051,0.264-0.115c0,0.002,0.001,0.337,0.001,0.339
									c0,0.068-0.119,0.123-0.265,0.123c-0.146,0-0.265-0.055-0.265-0.123c0-0.003,0-0.337,0.001-0.339
									C14.502,37.315,14.617,37.366,14.758,37.366z"/>
							</g>
						</g>
						<g>
							<ellipse class="st43" cx="14.118" cy="37.062" rx="0.265" ry="0.123"/>
							<g>
								<path class="st44" d="M14.118,37.17c0.141,0,0.256-0.051,0.264-0.115c0,0.002,0.001,0.337,0.001,0.339
									c0,0.068-0.119,0.123-0.265,0.123c-0.146,0-0.265-0.055-0.265-0.123c0-0.003,0-0.337,0.001-0.339
									C13.862,37.119,13.977,37.17,14.118,37.17z"/>
							</g>
						</g>
						<g>
							<ellipse class="st43" cx="14.005" cy="37.459" rx="0.265" ry="0.123"/>
							<g>
								<path class="st44" d="M14.005,37.567c0.141,0,0.256-0.051,0.264-0.115c0,0.002,0.001,0.337,0.001,0.339
									c0,0.068-0.119,0.123-0.265,0.123c-0.146,0-0.265-0.055-0.265-0.123c0-0.003,0-0.337,0.001-0.339
									C13.75,37.516,13.865,37.567,14.005,37.567z"/>
							</g>
						</g>
						<g>
							<ellipse class="st43" cx="13.449" cy="37.258" rx="0.265" ry="0.123"/>
							<g>
								<path class="st44" d="M13.449,37.366c0.141,0,0.256-0.051,0.264-0.115c0,0.002,0.001,0.337,0.001,0.339
									c0,0.068-0.119,0.123-0.265,0.123c-0.146,0-0.265-0.055-0.265-0.123c0-0.003,0-0.337,0.001-0.339
									C13.193,37.315,13.308,37.366,13.449,37.366z"/>
							</g>
						</g>
					</g>
					<g>
						<g>
							<ellipse class="st43" cx="12.013" cy="37.124" rx="0.238" ry="0.118"/>
							<g>
								<path class="st44" d="M12.013,37.228c0.127,0,0.23-0.049,0.238-0.111c0,0.002,0,0.324,0,0.326
									c0,0.065-0.107,0.118-0.238,0.118s-0.238-0.053-0.238-0.118c0-0.002,0-0.324,0-0.326
									C11.783,37.179,11.887,37.228,12.013,37.228z"/>
							</g>
						</g>
						<g>
							<ellipse class="st43" cx="11.438" cy="36.935" rx="0.238" ry="0.118"/>
							<g>
								<path class="st44" d="M11.438,37.039c0.127,0,0.23-0.049,0.238-0.111c0,0.002,0,0.324,0,0.326
									c0,0.065-0.107,0.118-0.238,0.118S11.2,37.319,11.2,37.254c0-0.002,0-0.324,0-0.326
									C11.208,36.99,11.311,37.039,11.438,37.039z"/>
							</g>
						</g>
						<g>
							<ellipse class="st43" cx="11.336" cy="37.317" rx="0.238" ry="0.118"/>
							<g>
								<path class="st44" d="M11.336,37.42c0.127,0,0.23-0.049,0.238-0.111c0,0.002,0,0.324,0,0.326
									c0,0.065-0.107,0.118-0.238,0.118s-0.238-0.053-0.238-0.118c0-0.002,0-0.324,0-0.326
									C11.106,37.371,11.21,37.42,11.336,37.42z"/>
							</g>
						</g>
						<g>
							<ellipse class="st43" cx="10.836" cy="37.124" rx="0.238" ry="0.118"/>
							<g>
								<path class="st44" d="M10.836,37.228c0.127,0,0.23-0.049,0.238-0.111c0,0.002,0,0.324,0,0.326
									c0,0.065-0.107,0.118-0.238,0.118c-0.132,0-0.238-0.053-0.238-0.118c0-0.002,0-0.324,0-0.326
									C10.606,37.179,10.709,37.228,10.836,37.228z"/>
							</g>
						</g>
					</g>
					<g>
						<ellipse class="st41" cx="12.62" cy="37.759" rx="1.124" ry="0.401"/>
						<g>
							<path class="st42" d="M12.62,38.11c0.597,0,1.086-0.166,1.121-0.376c0.001,0.008,0.002,0.258,0.002,0.266
								c0,0.221-0.503,0.401-1.124,0.401c-0.621,0-1.124-0.179-1.124-0.401c0-0.008,0.001-0.258,0.002-0.266
								C11.534,37.944,12.022,38.11,12.62,38.11z"/>
						</g>
					</g>
					<g>
						<g>
							<ellipse class="st43" cx="14.573" cy="38.22" rx="0.278" ry="0.138"/>
							<g>
								<path class="st44" d="M14.573,38.341c0.148,0,0.269-0.057,0.278-0.13c0,0.003,0.001,0.378,0.001,0.381
									c0,0.076-0.125,0.138-0.278,0.138c-0.154,0-0.278-0.062-0.278-0.138c0-0.003,0-0.378,0.001-0.381
									C14.304,38.284,14.425,38.341,14.573,38.341z"/>
							</g>
						</g>
						<g>
							<ellipse class="st43" cx="13.901" cy="37.999" rx="0.278" ry="0.138"/>
							<g>
								<path class="st44" d="M13.901,38.12c0.148,0,0.269-0.057,0.278-0.13c0,0.003,0.001,0.378,0.001,0.381
									c0,0.076-0.125,0.138-0.278,0.138s-0.278-0.062-0.278-0.138c0-0.003,0-0.378,0.001-0.381
									C13.632,38.063,13.753,38.12,13.901,38.12z"/>
							</g>
						</g>
						<g>
							<ellipse class="st43" cx="13.782" cy="38.445" rx="0.278" ry="0.138"/>
							<g>
								<path class="st44" d="M13.782,38.566c0.148,0,0.269-0.057,0.278-0.13c0,0.003,0.001,0.378,0.001,0.381
									c0,0.076-0.125,0.138-0.278,0.138c-0.154,0-0.278-0.062-0.278-0.138c0-0.003,0-0.378,0.001-0.381
									C13.514,38.508,13.635,38.566,13.782,38.566z"/>
							</g>
						</g>
						<g>
							<ellipse class="st43" cx="13.198" cy="38.22" rx="0.278" ry="0.138"/>
							<g>
								<path class="st44" d="M13.198,38.341c0.148,0,0.269-0.057,0.278-0.13c0,0.003,0.001,0.378,0.001,0.381
									c0,0.076-0.125,0.138-0.278,0.138c-0.154,0-0.278-0.062-0.278-0.138c0-0.003,0-0.378,0.001-0.381
									C12.929,38.284,13.05,38.341,13.198,38.341z"/>
							</g>
						</g>
					</g>
					<g>
						<g>
							<ellipse class="st43" cx="11.83" cy="38.096" rx="0.278" ry="0.138"/>
							<g>
								<path class="st44" d="M11.83,38.217c0.148,0,0.269-0.057,0.278-0.13c0,0.003,0.001,0.378,0.001,0.381
									c0,0.076-0.125,0.138-0.278,0.138c-0.154,0-0.278-0.062-0.278-0.138c0-0.003,0-0.378,0.001-0.381
									C11.561,38.16,11.682,38.217,11.83,38.217z"/>
							</g>
						</g>
						<g>
							<ellipse class="st43" cx="11.158" cy="37.875" rx="0.278" ry="0.138"/>
							<g>
								<path class="st44" d="M11.158,37.996c0.148,0,0.269-0.057,0.278-0.13c0,0.003,0.001,0.378,0.001,0.381
									c0,0.076-0.125,0.138-0.278,0.138c-0.154,0-0.278-0.062-0.278-0.138c0-0.003,0-0.378,0.001-0.381
									C10.889,37.939,11.01,37.996,11.158,37.996z"/>
							</g>
						</g>
						<g>
							<ellipse class="st43" cx="11.039" cy="38.321" rx="0.278" ry="0.138"/>
							<g>
								<path class="st44" d="M11.039,38.442c0.148,0,0.269-0.057,0.278-0.13c0,0.003,0.001,0.378,0.001,0.381
									c0,0.076-0.125,0.138-0.278,0.138c-0.154,0-0.278-0.062-0.278-0.138c0-0.003,0-0.378,0.001-0.381
									C10.771,38.385,10.891,38.442,11.039,38.442z"/>
							</g>
						</g>
						<g>
							<ellipse class="st43" cx="10.455" cy="38.096" rx="0.278" ry="0.138"/>
							<g>
								<path class="st44" d="M10.455,38.217c0.148,0,0.269-0.057,0.278-0.13c0,0.003,0.001,0.378,0.001,0.381
									c0,0.076-0.125,0.138-0.278,0.138c-0.154,0-0.278-0.062-0.278-0.138c0-0.003,0-0.378,0.001-0.381
									C10.186,38.16,10.307,38.217,10.455,38.217z"/>
							</g>
						</g>
					</g>
				</g>
			</g>
			<path class="st45" d="M5.027,39.097L5.027,39.097c0.063,0.113,0.188,0.988,0.188,0.988l0.175,1.676l0.413,1.025
				c0,0,0.052,0.121,0.109,0.257c0,0,0.504,0.468,0.966,0.769c0.463,0.3,2.413,1.513,5.115,1.576
				c2.701,0.063,3.689-0.21,4.839-0.274c1.15-0.064,2.108,0.015,2.312-0.037c0.103-0.008,0.34-0.147,0.326-0.164
				c-0.019-0.025,0.375-1.219,0.544-1.444c0.169-0.225,0.556-0.757,0.556-0.757s0.15-0.575,0.213-0.763
				c0.063-0.188,0.013-0.338-0.563-1.536c-0.575-1.198-1.738-2.441-1.738-2.441s0.23,0.962-0.395,1.421
				c-0.625,0.459-4.277,1.826-7.678,1.676c-3.401-0.15-4.477-2.351-4.477-2.351L5.027,39.097z"/>
			<path class="st46" d="M19.144,45.076c0.103-0.008,0.34-0.147,0.326-0.164l-0.858-1.919L19.144,45.076z"/>
			<path class="st47" d="M5.027,39.097c0,0,0.021-0.104-0.154-0.521c-0.175-0.417-0.817-1.034-0.817-1.034S2.88,36.6,2.48,36.258
				c-0.298-0.254-0.314-0.435-0.303-0.51c0-0.001,0.001-0.002,0.001-0.003c0,0,0-0.001,0-0.001c0.006-0.022,0.01-0.035,0.01-0.035
				s0.213-0.288,0.588-0.45c0.375-0.163,1.025-0.5,1.025-0.5l0.175-0.038l0.125,0.075l3.852-0.838l0.125,0.05V33.87l0.375-0.063
				c0,0,1.175,0.013,1.401,0.063c0.225,0.05,0.488,0.075,0.55,0.363c0.063,0.288,0.45,1.426,0.525,1.601
				c0.075,0.175,0.35,0.488,0.35,0.488v0.131c0,0-2.308,0.515-3.233,0.765c-0.925,0.25-2.113,0.563-2.176,0.65
				c-0.063,0.088-0.063,0.088-0.063,0.088l0.125,0.763L5.027,39.097z"/>
		</g>
		<path class="st48" d="M8.271,33.838L8.078,33.87v0.138l1.645,2.326c0,0,0.133-0.022,0.165-0.094s0.022-0.144,0.022-0.144
			L8.271,33.838z"/>
		<path class="st2" d="M9.723,36.333l-1.645-2.326l-0.125-0.05l-3.852,0.838l1.341,1.982c0,0,0.213,0.369,0.531,0.394
			c0.319,0.025,0.413,0.006,0.606-0.044C6.774,37.077,9.723,36.333,9.723,36.333z"/>
	</g>
</g>
</svg>
