<?xml version="1.0" encoding="utf-8"?>
<!-- Generator: Adobe Illustrator 26.0.1, SVG Export Plug-In . SVG Version: 6.00 Build 0)  -->
<svg version="1.1" id="Layer_1" xmlns="http://www.w3.org/2000/svg" xmlns:xlink="http://www.w3.org/1999/xlink" x="0px" y="0px"
	 viewBox="0 0 50 50" style="enable-background:new 0 0 50 50;" xml:space="preserve">
<style type="text/css">
	.st0{opacity:0.24;fill:#C0C7CA;enable-background:new    ;}
	.st1{fill:#515254;}
	.st2{fill:#231F20;}
	.st3{fill:#5F6062;}
	.st4{fill:#00BFC1;}
	.st5{fill:#91D6D0;}
	.st6{fill:#0A8B8D;}
	.st7{fill:#19ACAF;}
	.st8{fill:#CA96C4;}
	.st9{fill:#D44A9B;}
	.st10{fill:#A13995;}
	.st11{opacity:0.36;fill:#C0C7CA;enable-background:new    ;}
	.st12{fill:#656668;}
	.st13{fill:#393839;}
	.st14{fill:#797A7D;}
	.st15{fill:#00491E;}
	.st16{fill:#1B6533;}
	.st17{fill:#2BB34B;}
	.st18{fill:#007F40;}
	.st19{fill:#8C1818;}
	.st20{fill:#AD2A22;}
	.st21{fill:#C03121;}
	.st22{fill:#D9502E;}
	.st23{fill:#FF852B;}
	.st24{fill:#A3311D;}
	.st25{fill:#79909C;}
	.st26{fill:#CDAD66;}
	.st27{fill:#E09200;}
	.st28{fill:#FFE66B;}
	.st29{fill:#1C1A1A;}
	.st30{fill:#484246;}
	.st31{fill:#005B95;}
	.st32{fill:#29357D;}
	.st33{fill:#457CBF;}
	.st34{fill:#7699CF;}
	.st35{fill:#C9CDCC;}
	.st36{fill:#888E87;}
	.st37{fill:#B9BBBC;}
	.st38{fill:#002834;}
	.st39{fill:#FFFFFF;}
	.st40{fill:#009EB2;}
	.st41{fill:#C9CAC7;}
	.st42{fill:#9B9DA0;}
	.st43{fill:#E6E7E8;}
	.st44{fill:#75787A;}
	.st45{fill:#E0E1E2;}
	.st46{fill:#BFC1C3;}
	.st47{fill:#F6F6F6;}
	.st48{fill:#DCDDDE;}
</style>
<g>
	<ellipse class="st0" cx="37.277" cy="44.386" rx="8.679" ry="3.756"/>
	<g>
		<path class="st0" d="M16.684,46.325L2.451,35.877c-0.561-0.352-0.408-0.876,0.34-1.163l26.752-10.255
			c0.748-0.287,1.819-0.234,2.38,0.118l15.324,9.2c0.561,0.352,0.408,0.876-0.34,1.163L19.064,46.443
			C18.316,46.731,17.245,46.678,16.684,46.325z"/>
		<g>
			<g>
				<path class="st1" d="M17.456,38.285L3.739,28.606c-0.54-0.327-0.393-0.812,0.328-1.078l25.782-9.5
					c0.721-0.267,1.753-0.217,2.294,0.109l14.769,8.523c0.54,0.327,0.393,0.812-0.328,1.078L19.75,38.394
					C19.029,38.661,17.997,38.611,17.456,38.285z"/>
				<g>
					<path class="st1" d="M3.418,33.909v-0.111C3.412,33.835,3.412,33.873,3.418,33.909z"/>
					<path class="st1" d="M46.584,27.738"/>
					<path class="st2" d="M17.456,38.285L3.739,28.606c-0.194-0.117-0.299-0.255-0.321-0.396v5.699
						c0.022,0.141,0.127,0.279,0.321,0.396l13.717,9.679V38.285z"/>
					<path class="st1" d="M46.584,33.437"/>
				</g>
				<path class="st3" d="M17.456,38.286v5.699c0.541,0.326,1.573,0.375,2.294,0.109l26.834-10.657
					c0.394-0.146,0.616-0.357,0.649-0.571v-5.699c-0.033,0.215-0.255,0.426-0.649,0.571L19.75,38.394
					C19.029,38.661,17.997,38.611,17.456,38.286z"/>
			</g>
			<path class="st4" d="M17.261,38.089L3.205,28.171c-0.554-0.334-0.403-0.831,0.336-1.104l26.42-9.735
				c0.738-0.273,1.796-0.223,2.35,0.112l15.134,8.733c0.554,0.334,0.403,0.831-0.336,1.104l-27.497,10.92
				C18.873,38.474,17.816,38.423,17.261,38.089z"/>
			<path class="st5" d="M18.063,37.063L5.404,28.131c-0.498-0.302-0.362-0.749,0.303-0.995l23.794-8.768
				c0.666-0.246,1.618-0.2,2.117,0.101l13.629,7.865c0.498,0.302,0.362,0.749-0.303,0.995L20.18,37.164
				C19.515,37.409,18.562,37.364,18.063,37.063z"/>
			<g>
				<path class="st6" d="M2.876,29.526v-0.114C2.871,29.45,2.871,29.488,2.876,29.526z"/>
				<path class="st6" d="M47.109,27.281"/>
				<path class="st6" d="M17.262,38.089L3.206,28.171c-0.199-0.12-0.307-0.262-0.329-0.406v1.761
					c0.022,0.145,0.13,0.286,0.329,0.406l14.056,9.918V38.089z"/>
				<path class="st6" d="M47.109,29.042"/>
			</g>
			<path class="st7" d="M17.262,38.089v1.761c0.554,0.334,1.611,0.385,2.35,0.112l27.497-10.92c0.403-0.149,0.631-0.365,0.665-0.585
				v-1.761c-0.034,0.22-0.262,0.436-0.665,0.585l-27.497,10.92C18.873,38.474,17.816,38.423,17.262,38.089z"/>
			<g>
				<path class="st8" d="M45.067,28.981v1.479c-0.043,0.588-0.611,1.266-1.301,1.536l-2.911,1.138
					c-0.374,0.146-0.713,0.144-0.952,0.023c-0.193-0.097-0.32-0.273-0.347-0.51v-1.479L45.067,28.981z"/>
				<polygon class="st9" points="39.556,31.168 45.067,28.982 44.889,28.797 39.378,30.983 				"/>
				<g>
					<path class="st10" d="M39.553,32.648c0.012,0.105,0.045,0.197,0.093,0.277c-0.148-0.102-0.245-0.26-0.268-0.463v-1.479
						l0.178,0.185l-0.003,0.001C39.553,31.169,39.553,32.648,39.553,32.648z"/>
				</g>
			</g>
			<g>
				<path class="st8" d="M26.092,36.336v1.479c-0.043,0.588-0.611,1.266-1.301,1.536l-2.911,1.138
					c-0.374,0.146-0.713,0.144-0.952,0.023c-0.193-0.097-0.32-0.273-0.347-0.51v-1.479L26.092,36.336z"/>
				<polygon class="st9" points="20.581,38.523 26.092,36.337 25.913,36.152 20.402,38.338 				"/>
				<g>
					<path class="st10" d="M20.578,40.003c0.012,0.105,0.045,0.197,0.093,0.277c-0.148-0.102-0.245-0.26-0.268-0.463v-1.479
						l0.178,0.185l-0.003,0.001V40.003z"/>
				</g>
			</g>
		</g>
		<path class="st11" d="M25.235,29.251l-4.543-2.919c-0.178-0.097-0.141-0.26,0.082-0.362l7.971-3.638
			c0.223-0.102,0.551-0.106,0.729-0.009l4.852,2.518c0.178,0.097,0.141,0.26-0.082,0.362l-8.281,4.039
			C25.74,29.344,25.412,29.348,25.235,29.251z"/>
		<g>
			<polygon class="st12" points="18.825,25.918 28.979,26.765 34.916,18.195 34.77,17.9 24.763,17.349 			"/>
			<polygon class="st13" points="18.679,25.623 28.832,26.47 34.77,17.9 24.616,17.054 			"/>
			<polygon class="st2" points="18.679,25.623 18.825,25.918 28.979,26.765 28.832,26.47 			"/>
			<path class="st14" d="M21.698,23.113l0.217-0.055l-1.549,2.316l3.486,0.292l0.259-0.351l0.198,0.024l-0.252,0.343l2.492,0.225
				l0.276-0.407l-2.258-0.275l0.23-0.314l-0.698-0.079l0.212-0.309l1.157,0.086l-0.369,0.551l1.866,0.174l0.347-0.481l-1.268-0.106
				l0.242-0.344l1.179,0.083l1.368-1.991l-1.134-0.106l1.033-1.473l-0.861-0.044l1.739-2.539l0.378,0.03l0.011-0.142l-0.461-0.036
				l-1.93,2.818l0.857,0.043l-0.932,1.328L24.06,22.05l1.172-1.655l2.433,0.208l2.047-2.868l1.334,0.149l0.551,0.015l-2.191,3.079
				l-0.128-0.025l1.885-2.637l-0.116-0.083l-2.014,2.817l0.436,0.085l2.399-3.372l-0.815-0.022l-1.246-0.139l0.085-0.12
				l-0.166-0.013l-0.082,0.115l-1.25-0.139l-0.407,0.445l1.071,0.087l-1.607,2.199l-2.365-0.238l-0.383,0.535l-0.475-0.021
				l-1.278,1.817l4.363,0.419l-0.898,1.28l-0.309-0.029l0.89-1.187l-3.866-0.404L21.938,24l-0.216-0.022l2.572-3.691l0.505,0.026
				l0.007-0.142l-0.584-0.031l-2.756,3.956l0.54,0.054l1.191-1.652l3.534,0.369l-0.892,1.189l0.482,0.045l-0.107,0.153l-1.806-0.126
				l-0.169,0.247l-1.116-0.083l-0.347,0.535l1.071,0.121l-0.1,0.146l-1.58-0.181l-0.016,0.142l1.666,0.191l0.191-0.279l0.529,0.06
				l-0.132,0.18l-0.36-0.044l-0.261,0.354l-3.165-0.265l1.621-2.424l-0.628,0.159l-1.696,2.443l0.164,0.014L21.698,23.113z
				 M27.479,22.705l0.628,0.06l-0.905,1.277l-0.621-0.058L27.479,22.705z M27.443,22.51l-0.032,0.045l-4.199-0.403l1.092-1.553
				l0.475,0.021l0.38-0.53l2.364,0.238l1.805-2.471l-1.035-0.084l0.162-0.177l1.099,0.122L27.6,20.455l-2.434-0.208l-1.362,1.923
				L27.443,22.51z M26.382,24.268l0.105-0.15l0.784,0.073l1.094-1.545l-0.792-0.076l0.032-0.046l0.973,0.091l-1.184,1.724
				L26.382,24.268z M24.405,24.389l0.076-0.111l1.639,0.115l-0.335,0.477l1.264,0.106l-0.152,0.21l-1.546-0.144l0.372-0.555
				L24.405,24.389z M23.939,24.815l-0.917-0.103l0.176-0.27l0.949,0.071L23.939,24.815z M24.471,25.359l2.105,0.255l-0.098,0.144
				l-2.157-0.195L24.471,25.359z"/>
			<g>
				<polygon class="st15" points="24.664,18.131 24.624,18.188 24.42,17.754 24.46,17.697 				"/>
				<polygon class="st15" points="20.09,25.407 20.635,25.453 20.238,24.61 19.692,24.565 				"/>
				<polygon class="st16" points="19.777,25.442 20.05,25.464 19.653,24.622 19.38,24.599 				"/>
				<polygon class="st15" points="20.09,25.407 20.05,25.464 19.653,24.622 19.692,24.565 				"/>
				<polygon class="st17" points="25.674,18.608 20.867,25.533 20.47,24.69 25.277,17.765 				"/>
				<polygon class="st18" points="24.46,17.697 24.187,17.674 19.38,24.599 19.653,24.622 19.692,24.565 20.238,24.61 
					20.198,24.667 20.47,24.69 25.277,17.765 25.005,17.742 24.965,17.8 24.42,17.754 				"/>
				<polygon class="st15" points="23.302,19.58 19.879,24.511 20.141,24.533 23.414,19.818 23.564,19.602 				"/>
				<polygon class="st15" points="24.528,17.814 23.499,19.296 23.761,19.318 24.64,18.052 24.79,17.836 				"/>
				<g>
					<polygon class="st15" points="19.827,24.43 19.777,24.503 19.548,24.484 19.598,24.411 					"/>
					<polygon class="st15" points="19.948,24.256 19.898,24.328 19.669,24.309 19.719,24.237 					"/>
					<polygon class="st15" points="20.069,24.082 20.019,24.154 19.79,24.135 19.84,24.062 					"/>
					<polygon class="st15" points="20.19,23.907 20.14,23.98 19.911,23.961 19.961,23.888 					"/>
					<polygon class="st15" points="20.311,23.733 20.261,23.805 20.032,23.786 20.082,23.714 					"/>
					<polygon class="st15" points="20.432,23.559 20.382,23.631 20.153,23.612 20.203,23.54 					"/>
					<polygon class="st15" points="20.553,23.384 20.503,23.457 20.274,23.438 20.324,23.365 					"/>
					<polygon class="st15" points="20.674,23.21 20.624,23.282 20.395,23.263 20.445,23.191 					"/>
					<polygon class="st15" points="20.795,23.036 20.745,23.108 20.516,23.089 20.566,23.017 					"/>
					<polygon class="st15" points="20.916,22.861 20.866,22.934 20.637,22.915 20.687,22.842 					"/>
					<polygon class="st15" points="21.037,22.687 20.987,22.759 20.758,22.74 20.808,22.668 					"/>
					<polygon class="st15" points="21.158,22.513 21.108,22.585 20.879,22.566 20.929,22.494 					"/>
					<polygon class="st15" points="21.279,22.338 21.229,22.411 21,22.392 21.05,22.319 					"/>
					<polygon class="st15" points="21.4,22.164 21.35,22.237 21.121,22.217 21.171,22.145 					"/>
					<polygon class="st15" points="21.521,21.99 21.471,22.062 21.242,22.043 21.292,21.971 					"/>
					<polygon class="st15" points="21.642,21.815 21.592,21.888 21.363,21.869 21.413,21.796 					"/>
					<polygon class="st15" points="21.763,21.641 21.713,21.714 21.484,21.694 21.534,21.622 					"/>
					<polygon class="st15" points="21.884,21.467 21.834,21.539 21.605,21.52 21.655,21.448 					"/>
					<polygon class="st15" points="22.005,21.292 21.955,21.365 21.726,21.346 21.776,21.273 					"/>
					<polygon class="st15" points="22.126,21.118 22.076,21.191 21.847,21.171 21.897,21.099 					"/>
					<polygon class="st15" points="22.247,20.944 22.197,21.016 21.968,20.997 22.018,20.925 					"/>
					<polygon class="st15" points="22.368,20.769 22.318,20.842 22.089,20.823 22.139,20.75 					"/>
					<polygon class="st15" points="22.489,20.595 22.439,20.668 22.21,20.648 22.26,20.576 					"/>
					<polygon class="st15" points="22.61,20.421 22.56,20.493 22.331,20.474 22.381,20.402 					"/>
					<polygon class="st15" points="22.731,20.246 22.681,20.319 22.452,20.3 22.502,20.227 					"/>
					<polygon class="st15" points="22.852,20.072 22.802,20.145 22.573,20.125 22.623,20.053 					"/>
					<polygon class="st15" points="22.973,19.898 22.923,19.97 22.694,19.951 22.744,19.879 					"/>
					<polygon class="st15" points="23.094,19.723 23.044,19.796 22.815,19.777 22.865,19.704 					"/>
					<polygon class="st15" points="23.216,19.549 23.165,19.622 22.936,19.602 22.986,19.53 					"/>
					<polygon class="st15" points="23.337,19.375 23.286,19.447 23.057,19.428 23.107,19.356 					"/>
					<polygon class="st15" points="23.458,19.2 23.407,19.273 23.178,19.254 23.229,19.181 					"/>
					<polygon class="st15" points="23.579,19.026 23.528,19.099 23.299,19.079 23.35,19.007 					"/>
					<polygon class="st15" points="23.7,18.852 23.649,18.924 23.42,18.905 23.471,18.833 					"/>
					<polygon class="st15" points="23.821,18.677 23.77,18.75 23.541,18.731 23.592,18.658 					"/>
					<polygon class="st15" points="23.942,18.503 23.891,18.576 23.662,18.556 23.713,18.484 					"/>
					<polygon class="st15" points="24.063,18.329 24.012,18.401 23.783,18.382 23.834,18.31 					"/>
					<polygon class="st15" points="24.184,18.154 24.133,18.227 23.904,18.208 23.955,18.135 					"/>
					<polygon class="st15" points="24.305,17.98 24.254,18.053 24.025,18.033 24.076,17.961 					"/>
					<polygon class="st15" points="24.426,17.806 24.375,17.878 24.146,17.859 24.197,17.787 					"/>
				</g>
				<g>
					<polygon class="st15" points="20.546,24.49 20.495,24.563 20.266,24.544 20.317,24.471 					"/>
					<polygon class="st15" points="20.667,24.316 20.616,24.388 20.387,24.369 20.438,24.297 					"/>
					<polygon class="st15" points="20.788,24.141 20.737,24.214 20.508,24.195 20.559,24.122 					"/>
					<polygon class="st15" points="20.909,23.967 20.858,24.04 20.629,24.021 20.68,23.948 					"/>
					<polygon class="st15" points="21.03,23.793 20.979,23.865 20.75,23.846 20.801,23.774 					"/>
					<polygon class="st15" points="21.151,23.619 21.1,23.691 20.871,23.672 20.922,23.599 					"/>
					<polygon class="st15" points="21.272,23.444 21.221,23.517 20.992,23.498 21.043,23.425 					"/>
					<polygon class="st15" points="21.393,23.27 21.343,23.342 21.113,23.323 21.164,23.251 					"/>
					<polygon class="st15" points="21.514,23.096 21.464,23.168 21.234,23.149 21.285,23.076 					"/>
					<polygon class="st15" points="21.635,22.921 21.585,22.994 21.355,22.975 21.406,22.902 					"/>
					<polygon class="st15" points="21.756,22.747 21.706,22.819 21.476,22.8 21.527,22.728 					"/>
					<polygon class="st15" points="21.877,22.573 21.827,22.645 21.598,22.626 21.648,22.553 					"/>
					<polygon class="st15" points="21.998,22.398 21.948,22.471 21.719,22.452 21.769,22.379 					"/>
					<polygon class="st15" points="22.119,22.224 22.069,22.296 21.84,22.277 21.89,22.205 					"/>
					<polygon class="st15" points="22.24,22.05 22.19,22.122 21.961,22.103 22.011,22.03 					"/>
					<polygon class="st15" points="22.361,21.875 22.311,21.948 22.082,21.929 22.132,21.856 					"/>
					<polygon class="st15" points="22.482,21.701 22.432,21.773 22.203,21.754 22.253,21.682 					"/>
					<polygon class="st15" points="22.603,21.527 22.553,21.599 22.324,21.58 22.374,21.507 					"/>
					<polygon class="st15" points="22.724,21.352 22.674,21.425 22.445,21.406 22.495,21.333 					"/>
					<polygon class="st15" points="22.845,21.178 22.795,21.25 22.566,21.231 22.616,21.159 					"/>
					<polygon class="st15" points="22.966,21.004 22.916,21.076 22.687,21.057 22.737,20.984 					"/>
					<polygon class="st15" points="23.087,20.829 23.037,20.902 22.808,20.883 22.858,20.81 					"/>
					<polygon class="st15" points="23.208,20.655 23.158,20.727 22.929,20.708 22.979,20.636 					"/>
					<polygon class="st15" points="23.329,20.481 23.279,20.553 23.05,20.534 23.1,20.461 					"/>
					<polygon class="st15" points="23.45,20.306 23.4,20.379 23.171,20.36 23.221,20.287 					"/>
					<polygon class="st15" points="23.571,20.132 23.521,20.204 23.292,20.185 23.342,20.113 					"/>
					<polygon class="st15" points="23.692,19.958 23.642,20.03 23.413,20.011 23.463,19.938 					"/>
					<polygon class="st15" points="23.813,19.783 23.763,19.856 23.534,19.837 23.584,19.764 					"/>
					<polygon class="st15" points="23.934,19.609 23.884,19.681 23.655,19.662 23.705,19.59 					"/>
					<polygon class="st15" points="24.055,19.435 24.005,19.507 23.776,19.488 23.826,19.416 					"/>
					<polygon class="st15" points="24.176,19.26 24.126,19.333 23.897,19.314 23.947,19.241 					"/>
					<polygon class="st15" points="24.297,19.086 24.247,19.158 24.018,19.139 24.068,19.067 					"/>
					<polygon class="st15" points="24.418,18.912 24.368,18.984 24.139,18.965 24.189,18.893 					"/>
					<polygon class="st15" points="24.539,18.737 24.489,18.81 24.26,18.791 24.31,18.718 					"/>
					<polygon class="st15" points="24.66,18.563 24.61,18.635 24.381,18.616 24.431,18.544 					"/>
					<polygon class="st15" points="24.781,18.389 24.731,18.461 24.502,18.442 24.552,18.37 					"/>
					<polygon class="st15" points="24.902,18.214 24.852,18.287 24.623,18.268 24.673,18.195 					"/>
					<polygon class="st15" points="25.023,18.04 24.973,18.112 24.744,18.093 24.794,18.021 					"/>
					<polygon class="st15" points="25.144,17.866 25.094,17.938 24.865,17.919 24.915,17.847 					"/>
				</g>
				<polygon class="st16" points="20.867,25.533 20.47,24.69 20.198,24.667 20.595,25.51 				"/>
				<polygon class="st15" points="23.302,19.58 23.414,19.818 23.564,19.602 				"/>
				<polygon class="st15" points="24.528,17.814 24.64,18.052 24.79,17.836 				"/>
			</g>
			<g>
				<polygon class="st19" points="26.429,17.804 26.487,17.809 26.315,17.444 26.257,17.439 				"/>
				<polygon class="st20" points="33.59,18.731 33.328,19.108 32.995,18.4 33.257,18.023 				"/>
				<polygon class="st21" points="33.78,18.547 33.649,18.736 33.315,18.028 33.446,17.839 				"/>
				<polygon class="st19" points="33.59,18.731 33.649,18.736 33.315,18.028 33.257,18.023 				"/>
				<polygon class="st22" points="26.197,18.713 33.256,19.302 32.922,18.594 25.864,18.005 				"/>
				<polygon class="st23" points="26.257,17.439 26.388,17.25 33.446,17.839 33.315,18.028 33.257,18.023 32.995,18.4 
					33.053,18.405 32.922,18.594 25.864,18.005 25.995,17.817 26.053,17.822 26.315,17.444 				"/>
				<polygon class="st20" points="28.097,17.696 33.122,18.115 32.996,18.297 28.191,17.896 27.971,17.878 				"/>
				<polygon class="st20" points="26.296,17.546 27.807,17.672 27.681,17.854 26.391,17.746 26.17,17.728 				"/>
				<g>
					<polygon class="st20" points="33.098,18.038 33.172,18.044 33.282,17.886 33.208,17.88 					"/>
					<polygon class="st20" points="32.92,18.023 32.994,18.03 33.104,17.871 33.03,17.865 					"/>
					<polygon class="st20" points="32.742,18.009 32.816,18.015 32.926,17.856 32.852,17.85 					"/>
					<polygon class="st20" points="32.565,17.994 32.639,18 32.749,17.841 32.675,17.835 					"/>
					<polygon class="st20" points="32.387,17.979 32.461,17.985 32.571,17.827 32.497,17.82 					"/>
					<polygon class="st20" points="32.209,17.964 32.283,17.97 32.393,17.812 32.319,17.806 					"/>
					<polygon class="st20" points="32.032,17.949 32.105,17.956 32.216,17.797 32.142,17.791 					"/>
					<polygon class="st20" points="31.854,17.935 31.928,17.941 32.038,17.782 31.964,17.776 					"/>
					<polygon class="st20" points="31.676,17.92 31.75,17.926 31.86,17.767 31.786,17.761 					"/>
					<polygon class="st20" points="31.498,17.905 31.572,17.911 31.683,17.752 31.609,17.746 					"/>
					<polygon class="st20" points="31.321,17.89 31.395,17.896 31.505,17.738 31.431,17.731 					"/>
					<polygon class="st20" points="31.143,17.875 31.217,17.881 31.327,17.723 31.253,17.717 					"/>
					<polygon class="st20" points="30.965,17.86 31.039,17.867 31.149,17.708 31.076,17.702 					"/>
					<polygon class="st20" points="30.788,17.846 30.862,17.852 30.972,17.693 30.898,17.687 					"/>
					<polygon class="st20" points="30.61,17.831 30.684,17.837 30.794,17.678 30.72,17.672 					"/>
					<polygon class="st20" points="30.432,17.816 30.506,17.822 30.616,17.664 30.542,17.657 					"/>
					<polygon class="st20" points="30.255,17.801 30.329,17.807 30.439,17.649 30.365,17.643 					"/>
					<polygon class="st20" points="30.077,17.786 30.151,17.793 30.261,17.634 30.187,17.628 					"/>
					<polygon class="st20" points="29.899,17.772 29.973,17.778 30.083,17.619 30.009,17.613 					"/>
					<polygon class="st20" points="29.722,17.757 29.796,17.763 29.906,17.604 29.832,17.598 					"/>
					<polygon class="st20" points="29.544,17.742 29.618,17.748 29.728,17.59 29.654,17.583 					"/>
					<polygon class="st20" points="29.366,17.727 29.44,17.733 29.55,17.575 29.476,17.569 					"/>
					<polygon class="st20" points="29.189,17.712 29.262,17.718 29.373,17.56 29.299,17.554 					"/>
					<polygon class="st20" points="29.011,17.698 29.085,17.704 29.195,17.545 29.121,17.539 					"/>
					<polygon class="st20" points="28.833,17.683 28.907,17.689 29.017,17.53 28.943,17.524 					"/>
					<polygon class="st20" points="28.655,17.668 28.729,17.674 28.839,17.515 28.766,17.509 					"/>
					<polygon class="st20" points="28.478,17.653 28.552,17.659 28.662,17.501 28.588,17.494 					"/>
					<polygon class="st20" points="28.3,17.638 28.374,17.644 28.484,17.486 28.41,17.48 					"/>
					<polygon class="st20" points="28.122,17.623 28.196,17.63 28.306,17.471 28.232,17.465 					"/>
					<polygon class="st20" points="27.945,17.609 28.019,17.615 28.129,17.456 28.055,17.45 					"/>
					<polygon class="st20" points="27.767,17.594 27.841,17.6 27.951,17.441 27.877,17.435 					"/>
					<polygon class="st20" points="27.589,17.579 27.663,17.585 27.773,17.427 27.699,17.42 					"/>
					<polygon class="st20" points="27.412,17.564 27.486,17.57 27.596,17.412 27.522,17.406 					"/>
					<polygon class="st20" points="27.234,17.549 27.308,17.556 27.418,17.397 27.344,17.391 					"/>
					<polygon class="st20" points="27.056,17.535 27.13,17.541 27.24,17.382 27.166,17.376 					"/>
					<polygon class="st20" points="26.879,17.52 26.952,17.526 27.063,17.367 26.989,17.361 					"/>
					<polygon class="st20" points="26.701,17.505 26.775,17.511 26.885,17.352 26.811,17.346 					"/>
					<polygon class="st20" points="26.523,17.49 26.597,17.496 26.707,17.338 26.633,17.331 					"/>
					<polygon class="st20" points="26.345,17.475 26.419,17.481 26.53,17.323 26.456,17.317 					"/>
				</g>
				<g>
					<polygon class="st20" points="32.752,18.536 32.826,18.542 32.936,18.383 32.862,18.377 					"/>
					<polygon class="st20" points="32.574,18.521 32.648,18.527 32.759,18.369 32.685,18.363 					"/>
					<polygon class="st20" points="32.397,18.506 32.471,18.512 32.581,18.354 32.507,18.348 					"/>
					<polygon class="st20" points="32.219,18.492 32.293,18.498 32.403,18.339 32.329,18.333 					"/>
					<polygon class="st20" points="32.041,18.477 32.115,18.483 32.225,18.324 32.152,18.318 					"/>
					<polygon class="st20" points="31.864,18.462 31.938,18.468 32.048,18.309 31.974,18.303 					"/>
					<polygon class="st20" points="31.686,18.447 31.76,18.453 31.87,18.295 31.796,18.288 					"/>
					<polygon class="st20" points="31.508,18.432 31.582,18.438 31.692,18.28 31.618,18.274 					"/>
					<polygon class="st20" points="31.331,18.417 31.405,18.424 31.515,18.265 31.441,18.259 					"/>
					<polygon class="st20" points="31.153,18.403 31.227,18.409 31.337,18.25 31.263,18.244 					"/>
					<polygon class="st20" points="30.975,18.388 31.049,18.394 31.159,18.235 31.085,18.229 					"/>
					<polygon class="st20" points="30.798,18.373 30.872,18.379 30.982,18.221 30.908,18.214 					"/>
					<polygon class="st20" points="30.62,18.358 30.694,18.364 30.804,18.206 30.73,18.2 					"/>
					<polygon class="st20" points="30.442,18.343 30.516,18.35 30.626,18.191 30.552,18.185 					"/>
					<polygon class="st20" points="30.265,18.329 30.338,18.335 30.449,18.176 30.375,18.17 					"/>
					<polygon class="st20" points="30.087,18.314 30.161,18.32 30.271,18.161 30.197,18.155 					"/>
					<polygon class="st20" points="29.909,18.299 29.983,18.305 30.093,18.146 30.019,18.14 					"/>
					<polygon class="st20" points="29.731,18.284 29.805,18.29 29.916,18.132 29.842,18.125 					"/>
					<polygon class="st20" points="29.554,18.269 29.628,18.275 29.738,18.117 29.664,18.111 					"/>
					<polygon class="st20" points="29.376,18.254 29.45,18.261 29.56,18.102 29.486,18.096 					"/>
					<polygon class="st20" points="29.198,18.24 29.272,18.246 29.382,18.087 29.309,18.081 					"/>
					<polygon class="st20" points="29.021,18.225 29.095,18.231 29.205,18.072 29.131,18.066 					"/>
					<polygon class="st20" points="28.843,18.21 28.917,18.216 29.027,18.058 28.953,18.051 					"/>
					<polygon class="st20" points="28.665,18.195 28.739,18.201 28.849,18.043 28.775,18.037 					"/>
					<polygon class="st20" points="28.488,18.18 28.562,18.187 28.672,18.028 28.598,18.022 					"/>
					<polygon class="st20" points="28.31,18.166 28.384,18.172 28.494,18.013 28.42,18.007 					"/>
					<polygon class="st20" points="28.132,18.151 28.206,18.157 28.316,17.998 28.242,17.992 					"/>
					<polygon class="st20" points="27.955,18.136 28.029,18.142 28.139,17.983 28.065,17.977 					"/>
					<polygon class="st20" points="27.777,18.121 27.851,18.127 27.961,17.969 27.887,17.962 					"/>
					<polygon class="st20" points="27.599,18.106 27.673,18.112 27.783,17.954 27.709,17.948 					"/>
					<polygon class="st20" points="27.422,18.091 27.495,18.098 27.606,17.939 27.532,17.933 					"/>
					<polygon class="st20" points="27.244,18.077 27.318,18.083 27.428,17.924 27.354,17.918 					"/>
					<polygon class="st20" points="27.066,18.062 27.14,18.068 27.25,17.909 27.176,17.903 					"/>
					<polygon class="st20" points="26.888,18.047 26.962,18.053 27.073,17.895 26.999,17.888 					"/>
					<polygon class="st20" points="26.711,18.032 26.785,18.038 26.895,17.88 26.821,17.874 					"/>
					<polygon class="st20" points="26.533,18.017 26.607,18.024 26.717,17.865 26.643,17.859 					"/>
					<polygon class="st20" points="26.355,18.003 26.429,18.009 26.539,17.85 26.466,17.844 					"/>
					<polygon class="st20" points="26.178,17.988 26.252,17.994 26.362,17.835 26.288,17.829 					"/>
					<polygon class="st20" points="26,17.973 26.074,17.979 26.184,17.821 26.11,17.814 					"/>
				</g>
				<polygon class="st21" points="33.256,19.302 32.922,18.594 33.053,18.405 33.387,19.113 				"/>
				<polygon class="st24" points="28.097,17.696 28.191,17.896 27.971,17.878 				"/>
			</g>
			<g>
				<polygon class="st25" points="22.159,25.44 23.296,23.802 24.121,23.871 22.984,25.509 				"/>
				<g>
					<g>
						<polygon class="st26" points="22.978,23.895 22.946,23.827 22.923,23.861 22.954,23.928 						"/>
						<polygon class="st27" points="22.946,23.827 22.921,23.747 22.879,23.809 22.923,23.861 						"/>
						<polygon class="st27" points="22.966,23.929 22.946,23.827 22.923,23.861 22.954,23.928 						"/>
						<polygon class="st27" points="22.921,23.747 22.887,23.684 22.844,23.746 22.879,23.809 						"/>
						<polygon class="st26" points="22.989,23.895 22.958,23.828 22.935,23.861 22.966,23.929 						"/>
						<polygon class="st26" points="22.958,23.828 22.933,23.748 22.891,23.809 22.935,23.861 						"/>
						<polygon class="st26" points="22.933,23.748 22.899,23.685 22.856,23.746 22.891,23.809 						"/>
						<polygon class="st27" points="23.046,23.717 23.036,23.697 22.896,23.704 22.851,23.743 22.86,23.766 23.003,23.778 						"/>
						<polygon class="st28" points="23.036,23.697 22.887,23.684 22.844,23.746 22.994,23.758 						"/>
					</g>
					<g>
						<polygon class="st26" points="22.822,24.119 22.79,24.052 22.767,24.085 22.798,24.153 						"/>
						<polygon class="st27" points="22.79,24.052 22.765,23.972 22.723,24.033 22.767,24.085 						"/>
						<polygon class="st27" points="22.81,24.154 22.79,24.052 22.767,24.085 22.798,24.153 						"/>
						<polygon class="st27" points="22.765,23.972 22.731,23.909 22.688,23.97 22.723,24.033 						"/>
						<polygon class="st26" points="22.834,24.12 22.802,24.053 22.779,24.086 22.81,24.154 						"/>
						<polygon class="st26" points="22.802,24.053 22.777,23.973 22.735,24.034 22.779,24.086 						"/>
						<polygon class="st26" points="22.777,23.973 22.743,23.91 22.7,23.971 22.735,24.034 						"/>
						<polygon class="st27" points="22.89,23.942 22.88,23.922 22.74,23.929 22.695,23.968 22.704,23.991 22.847,24.003 						"/>
						<polygon class="st28" points="22.88,23.922 22.731,23.909 22.688,23.97 22.838,23.983 						"/>
					</g>
					<g>
						<polygon class="st26" points="22.666,24.344 22.634,24.277 22.611,24.31 22.643,24.378 						"/>
						<polygon class="st27" points="22.634,24.277 22.609,24.197 22.567,24.258 22.611,24.31 						"/>
						<polygon class="st27" points="22.654,24.378 22.634,24.277 22.611,24.31 22.643,24.378 						"/>
						<polygon class="st27" points="22.609,24.197 22.575,24.134 22.532,24.195 22.567,24.258 						"/>
						<polygon class="st26" points="22.678,24.345 22.646,24.277 22.623,24.311 22.654,24.378 						"/>
						<polygon class="st26" points="22.646,24.277 22.621,24.197 22.579,24.259 22.623,24.311 						"/>
						<polygon class="st26" points="22.621,24.197 22.587,24.134 22.544,24.196 22.579,24.259 						"/>
						<polygon class="st27" points="22.734,24.166 22.724,24.146 22.584,24.154 22.539,24.192 22.548,24.216 22.691,24.228 						
							"/>
						<polygon class="st28" points="22.724,24.146 22.575,24.134 22.532,24.195 22.682,24.207 						"/>
					</g>
					<g>
						<polygon class="st26" points="22.51,24.569 22.478,24.501 22.455,24.535 22.487,24.602 						"/>
						<polygon class="st27" points="22.478,24.501 22.453,24.421 22.411,24.483 22.455,24.535 						"/>
						<polygon class="st27" points="22.499,24.603 22.478,24.501 22.455,24.535 22.487,24.602 						"/>
						<polygon class="st27" points="22.453,24.421 22.419,24.358 22.376,24.42 22.411,24.483 						"/>
						<polygon class="st26" points="22.522,24.569 22.49,24.502 22.467,24.535 22.499,24.603 						"/>
						<polygon class="st26" points="22.49,24.502 22.465,24.422 22.423,24.483 22.467,24.535 						"/>
						<polygon class="st26" points="22.465,24.422 22.431,24.359 22.388,24.42 22.423,24.483 						"/>
						<polygon class="st27" points="22.578,24.391 22.568,24.371 22.428,24.378 22.383,24.417 22.392,24.44 22.535,24.452 						"/>
						<polygon class="st28" points="22.568,24.371 22.419,24.358 22.376,24.42 22.526,24.432 						"/>
					</g>
					<g>
						<polygon class="st26" points="22.354,24.793 22.322,24.726 22.299,24.759 22.331,24.827 						"/>
						<polygon class="st27" points="22.322,24.726 22.297,24.646 22.255,24.707 22.299,24.759 						"/>
						<polygon class="st27" points="22.343,24.827 22.322,24.726 22.299,24.759 22.331,24.827 						"/>
						<polygon class="st27" points="22.297,24.646 22.263,24.583 22.22,24.644 22.255,24.707 						"/>
						<polygon class="st26" points="22.366,24.794 22.334,24.727 22.311,24.76 22.343,24.827 						"/>
						<polygon class="st26" points="22.334,24.727 22.309,24.647 22.267,24.708 22.311,24.76 						"/>
						<polygon class="st26" points="22.309,24.647 22.275,24.584 22.232,24.645 22.267,24.708 						"/>
						<polygon class="st27" points="22.422,24.616 22.413,24.595 22.272,24.603 22.227,24.642 22.236,24.665 22.379,24.677 						
							"/>
						<polygon class="st28" points="22.413,24.595 22.263,24.583 22.22,24.644 22.37,24.657 						"/>
					</g>
					<g>
						<polygon class="st26" points="22.198,25.018 22.166,24.951 22.143,24.984 22.175,25.051 						"/>
						<polygon class="st27" points="22.166,24.951 22.141,24.871 22.099,24.932 22.143,24.984 						"/>
						<polygon class="st27" points="22.187,25.052 22.166,24.951 22.143,24.984 22.175,25.051 						"/>
						<polygon class="st27" points="22.141,24.871 22.107,24.808 22.065,24.869 22.099,24.932 						"/>
						<polygon class="st26" points="22.21,25.019 22.178,24.951 22.155,24.985 22.187,25.052 						"/>
						<polygon class="st26" points="22.178,24.951 22.153,24.871 22.111,24.933 22.155,24.985 						"/>
						<polygon class="st26" points="22.153,24.871 22.119,24.808 22.076,24.87 22.111,24.933 						"/>
						<polygon class="st27" points="22.266,24.84 22.257,24.82 22.117,24.828 22.071,24.866 22.08,24.89 22.223,24.901 						"/>
						<polygon class="st28" points="22.257,24.82 22.107,24.808 22.065,24.869 22.214,24.881 						"/>
					</g>
					<g>
						<polygon class="st26" points="22.042,25.243 22.01,25.175 21.987,25.209 22.019,25.276 						"/>
						<polygon class="st27" points="22.01,25.175 21.986,25.095 21.943,25.157 21.987,25.209 						"/>
						<polygon class="st27" points="22.031,25.277 22.01,25.175 21.987,25.209 22.019,25.276 						"/>
						<polygon class="st27" points="21.986,25.095 21.951,25.032 21.909,25.094 21.943,25.157 						"/>
						<polygon class="st26" points="22.054,25.243 22.022,25.176 21.999,25.209 22.031,25.277 						"/>
						<polygon class="st26" points="22.022,25.176 21.997,25.096 21.955,25.157 21.999,25.209 						"/>
						<polygon class="st26" points="21.997,25.096 21.963,25.033 21.921,25.094 21.955,25.157 						"/>
						<polygon class="st27" points="22.11,25.065 22.101,25.045 21.961,25.052 21.915,25.091 21.924,25.114 22.068,25.126 						"/>
						<polygon class="st28" points="22.101,25.045 21.951,25.032 21.909,25.094 22.058,25.106 						"/>
					</g>
				</g>
				<polygon class="st29" points="22.097,25.308 22.016,25.136 23.978,23.567 24.059,23.739 22.922,25.377 				"/>
				<polygon class="st30" points="22.016,25.136 23.153,23.498 23.978,23.567 22.841,25.205 				"/>
				<g>
					<g>
						<polygon class="st27" points="24.109,23.84 24.075,23.777 24.021,23.849 24.055,23.912 						"/>
						<polygon class="st27" points="24.155,24.022 24.134,23.92 24.111,23.953 24.143,24.021 						"/>
						<polygon class="st27" points="24.134,23.92 24.109,23.84 24.055,23.912 24.111,23.953 						"/>
						<polygon class="st27" points="24.096,23.798 23.895,23.827 23.904,23.847 24.054,23.859 						"/>
						<polygon class="st28" points="24.087,23.778 23.937,23.765 23.895,23.827 24.044,23.839 						"/>
						<polygon class="st26" points="24.121,23.841 24.087,23.778 24.044,23.839 24.079,23.902 						"/>
						<polygon class="st26" points="24.178,23.988 24.146,23.921 24.123,23.954 24.155,24.022 						"/>
						<polygon class="st26" points="24.146,23.921 24.121,23.841 24.079,23.902 24.123,23.954 						"/>
					</g>
					<g>
						<polygon class="st27" points="23.922,24.11 23.888,24.047 23.834,24.118 23.868,24.181 						"/>
						<polygon class="st27" points="23.967,24.291 23.947,24.19 23.924,24.223 23.955,24.29 						"/>
						<polygon class="st27" points="23.947,24.19 23.922,24.11 23.868,24.181 23.924,24.223 						"/>
						<polygon class="st27" points="23.909,24.067 23.708,24.096 23.717,24.116 23.867,24.129 						"/>
						<polygon class="st28" points="23.9,24.047 23.75,24.035 23.708,24.096 23.857,24.109 						"/>
						<polygon class="st26" points="23.934,24.11 23.9,24.047 23.857,24.109 23.892,24.172 						"/>
						<polygon class="st26" points="23.991,24.258 23.959,24.19 23.936,24.224 23.967,24.291 						"/>
						<polygon class="st26" points="23.959,24.19 23.934,24.11 23.892,24.172 23.936,24.224 						"/>
					</g>
					<g>
						<polygon class="st27" points="23.735,24.379 23.701,24.316 23.647,24.388 23.681,24.451 						"/>
						<polygon class="st27" points="23.78,24.561 23.76,24.459 23.737,24.492 23.768,24.56 						"/>
						<polygon class="st27" points="23.76,24.459 23.735,24.379 23.681,24.451 23.737,24.492 						"/>
						<polygon class="st27" points="23.722,24.337 23.521,24.366 23.53,24.386 23.68,24.398 						"/>
						<polygon class="st28" points="23.713,24.317 23.563,24.304 23.521,24.366 23.67,24.378 						"/>
						<polygon class="st26" points="23.747,24.38 23.713,24.317 23.67,24.378 23.705,24.441 						"/>
						<polygon class="st26" points="23.803,24.527 23.772,24.46 23.749,24.493 23.78,24.561 						"/>
						<polygon class="st26" points="23.772,24.46 23.747,24.38 23.705,24.441 23.749,24.493 						"/>
					</g>
					<g>
						<polygon class="st27" points="23.548,24.649 23.514,24.586 23.459,24.657 23.494,24.72 						"/>
						<polygon class="st27" points="23.593,24.83 23.573,24.729 23.55,24.762 23.581,24.83 						"/>
						<polygon class="st27" points="23.573,24.729 23.548,24.649 23.494,24.72 23.55,24.762 						"/>
						<polygon class="st27" points="23.535,24.607 23.334,24.635 23.343,24.655 23.492,24.668 						"/>
						<polygon class="st28" points="23.526,24.586 23.376,24.574 23.334,24.635 23.483,24.648 						"/>
						<polygon class="st26" points="23.56,24.65 23.526,24.586 23.483,24.648 23.517,24.711 						"/>
						<polygon class="st26" points="23.616,24.797 23.585,24.729 23.562,24.763 23.593,24.83 						"/>
						<polygon class="st26" points="23.585,24.729 23.56,24.65 23.517,24.711 23.562,24.763 						"/>
					</g>
					<g>
						<polygon class="st27" points="23.361,24.918 23.326,24.855 23.272,24.927 23.307,24.99 						"/>
						<polygon class="st27" points="23.406,25.1 23.386,24.998 23.363,25.032 23.394,25.099 						"/>
						<polygon class="st27" points="23.386,24.998 23.361,24.918 23.307,24.99 23.363,25.032 						"/>
						<polygon class="st27" points="23.348,24.876 23.146,24.905 23.156,24.925 23.305,24.937 						"/>
						<polygon class="st28" points="23.338,24.856 23.189,24.844 23.146,24.905 23.296,24.917 						"/>
						<polygon class="st26" points="23.373,24.919 23.338,24.856 23.296,24.917 23.33,24.98 						"/>
						<polygon class="st26" points="23.429,25.067 23.398,24.999 23.375,25.032 23.406,25.1 						"/>
						<polygon class="st26" points="23.398,24.999 23.373,24.919 23.33,24.98 23.375,25.032 						"/>
					</g>
					<g>
						<polygon class="st27" points="23.174,25.188 23.139,25.125 23.085,25.196 23.12,25.26 						"/>
						<polygon class="st27" points="23.219,25.369 23.199,25.268 23.175,25.301 23.207,25.369 						"/>
						<polygon class="st27" points="23.199,25.268 23.174,25.188 23.12,25.26 23.175,25.301 						"/>
						<polygon class="st27" points="23.161,25.146 22.959,25.174 22.969,25.195 23.118,25.207 						"/>
						<polygon class="st28" points="23.151,25.126 23.002,25.113 22.959,25.174 23.109,25.187 						"/>
						<polygon class="st26" points="23.186,25.189 23.151,25.126 23.109,25.187 23.143,25.25 						"/>
						<polygon class="st26" points="23.242,25.336 23.211,25.269 23.187,25.302 23.219,25.369 						"/>
						<polygon class="st26" points="23.211,25.269 23.186,25.189 23.143,25.25 23.187,25.302 						"/>
					</g>
				</g>
			</g>
			<g>
				<polygon class="st31" points="31.719,19.565 31.683,19.617 31.497,19.224 31.533,19.172 				"/>
				<polygon class="st31" points="27.572,26.161 28.066,26.203 27.706,25.439 27.212,25.397 				"/>
				<polygon class="st32" points="27.289,26.193 27.536,26.213 27.176,25.449 26.929,25.429 				"/>
				<polygon class="st31" points="27.572,26.161 27.536,26.213 27.176,25.449 27.212,25.397 				"/>
				<polygon class="st33" points="32.635,19.997 28.277,26.275 27.917,25.511 32.275,19.234 				"/>
				<polygon class="st34" points="31.533,19.172 31.286,19.151 26.929,25.429 27.176,25.449 27.212,25.397 27.706,25.439 
					27.67,25.491 27.917,25.511 32.275,19.234 32.027,19.213 31.991,19.265 31.497,19.224 				"/>
				<polygon class="st31" points="30.484,20.879 27.381,25.349 27.619,25.369 30.585,21.095 30.721,20.899 				"/>
				<polygon class="st31" points="31.595,19.278 30.663,20.621 30.9,20.641 31.697,19.494 31.833,19.298 				"/>
				<g>
					<polygon class="st31" points="27.334,25.276 27.288,25.342 27.081,25.324 27.126,25.258 					"/>
					<polygon class="st31" points="27.444,25.118 27.398,25.183 27.19,25.166 27.236,25.1 					"/>
					<polygon class="st31" points="27.553,24.96 27.508,25.025 27.3,25.008 27.346,24.942 					"/>
					<polygon class="st31" points="27.663,24.802 27.617,24.867 27.41,24.85 27.455,24.784 					"/>
					<polygon class="st31" points="27.773,24.644 27.727,24.709 27.52,24.692 27.565,24.626 					"/>
					<polygon class="st31" points="27.882,24.486 27.837,24.551 27.629,24.534 27.675,24.468 					"/>
					<polygon class="st31" points="27.992,24.328 27.947,24.393 27.739,24.376 27.785,24.31 					"/>
					<polygon class="st31" points="28.102,24.17 28.056,24.235 27.849,24.218 27.894,24.152 					"/>
					<polygon class="st31" points="28.212,24.011 28.166,24.077 27.958,24.06 28.004,23.994 					"/>
					<polygon class="st31" points="28.321,23.853 28.276,23.919 28.068,23.902 28.114,23.836 					"/>
					<polygon class="st31" points="28.431,23.695 28.385,23.761 28.178,23.744 28.223,23.678 					"/>
					<polygon class="st31" points="28.541,23.537 28.495,23.603 28.287,23.586 28.333,23.52 					"/>
					<polygon class="st31" points="28.65,23.379 28.605,23.445 28.397,23.428 28.443,23.362 					"/>
					<polygon class="st31" points="28.76,23.221 28.714,23.287 28.507,23.27 28.552,23.204 					"/>
					<polygon class="st31" points="28.87,23.063 28.824,23.129 28.617,23.112 28.662,23.046 					"/>
					<polygon class="st31" points="28.979,22.905 28.934,22.971 28.726,22.954 28.772,22.888 					"/>
					<polygon class="st31" points="29.089,22.747 29.044,22.813 28.836,22.796 28.882,22.73 					"/>
					<polygon class="st31" points="29.199,22.589 29.153,22.655 28.946,22.638 28.991,22.572 					"/>
					<polygon class="st31" points="29.309,22.431 29.263,22.497 29.055,22.48 29.101,22.414 					"/>
					<polygon class="st31" points="29.418,22.273 29.373,22.339 29.165,22.322 29.211,22.256 					"/>
					<polygon class="st31" points="29.528,22.115 29.482,22.181 29.275,22.164 29.32,22.098 					"/>
					<polygon class="st31" points="29.638,21.957 29.592,22.023 29.384,22.006 29.43,21.94 					"/>
					<polygon class="st31" points="29.747,21.799 29.702,21.865 29.494,21.847 29.54,21.782 					"/>
					<polygon class="st31" points="29.857,21.641 29.811,21.707 29.604,21.689 29.649,21.624 					"/>
					<polygon class="st31" points="29.967,21.483 29.921,21.549 29.714,21.531 29.759,21.466 					"/>
					<polygon class="st31" points="30.076,21.325 30.031,21.391 29.823,21.373 29.869,21.308 					"/>
					<polygon class="st31" points="30.186,21.167 30.141,21.233 29.933,21.215 29.979,21.15 					"/>
					<polygon class="st31" points="30.296,21.009 30.25,21.075 30.043,21.057 30.088,20.992 					"/>
					<polygon class="st31" points="30.406,20.851 30.36,20.917 30.152,20.899 30.198,20.834 					"/>
					<polygon class="st31" points="30.515,20.693 30.47,20.759 30.262,20.741 30.308,20.675 					"/>
					<polygon class="st31" points="30.625,20.535 30.579,20.601 30.372,20.583 30.417,20.517 					"/>
					<polygon class="st31" points="30.735,20.377 30.689,20.442 30.481,20.425 30.527,20.359 					"/>
					<polygon class="st31" points="30.844,20.219 30.799,20.284 30.591,20.267 30.637,20.201 					"/>
					<polygon class="st31" points="30.954,20.061 30.908,20.126 30.701,20.109 30.746,20.043 					"/>
					<polygon class="st31" points="31.064,19.903 31.018,19.968 30.81,19.951 30.856,19.885 					"/>
					<polygon class="st31" points="31.173,19.745 31.128,19.81 30.92,19.793 30.966,19.727 					"/>
					<polygon class="st31" points="31.283,19.587 31.237,19.652 31.03,19.635 31.076,19.569 					"/>
					<polygon class="st31" points="31.393,19.429 31.347,19.494 31.14,19.477 31.185,19.411 					"/>
					<polygon class="st31" points="31.503,19.27 31.457,19.336 31.249,19.319 31.295,19.253 					"/>
				</g>
				<g>
					<polygon class="st31" points="27.985,25.33 27.94,25.396 27.732,25.379 27.778,25.313 					"/>
					<polygon class="st31" points="28.095,25.172 28.049,25.238 27.842,25.22 27.887,25.155 					"/>
					<polygon class="st31" points="28.205,25.014 28.159,25.08 27.952,25.062 27.997,24.997 					"/>
					<polygon class="st31" points="28.314,24.856 28.269,24.922 28.061,24.904 28.107,24.839 					"/>
					<polygon class="st31" points="28.424,24.698 28.379,24.764 28.171,24.746 28.217,24.681 					"/>
					<polygon class="st31" points="28.534,24.54 28.488,24.606 28.281,24.588 28.326,24.523 					"/>
					<polygon class="st31" points="28.644,24.382 28.598,24.448 28.39,24.43 28.436,24.365 					"/>
					<polygon class="st31" points="28.753,24.224 28.708,24.29 28.5,24.272 28.546,24.207 					"/>
					<polygon class="st31" points="28.863,24.066 28.817,24.132 28.61,24.114 28.655,24.049 					"/>
					<polygon class="st31" points="28.973,23.908 28.927,23.974 28.719,23.956 28.765,23.89 					"/>
					<polygon class="st31" points="29.082,23.75 29.037,23.815 28.829,23.798 28.875,23.732 					"/>
					<polygon class="st31" points="29.192,23.592 29.146,23.657 28.939,23.64 28.984,23.574 					"/>
					<polygon class="st31" points="29.302,23.434 29.256,23.499 29.049,23.482 29.094,23.416 					"/>
					<polygon class="st31" points="29.411,23.276 29.366,23.341 29.158,23.324 29.204,23.258 					"/>
					<polygon class="st31" points="29.521,23.118 29.476,23.183 29.268,23.166 29.314,23.1 					"/>
					<polygon class="st31" points="29.631,22.96 29.585,23.025 29.378,23.008 29.423,22.942 					"/>
					<polygon class="st31" points="29.741,22.802 29.695,22.867 29.487,22.85 29.533,22.784 					"/>
					<polygon class="st31" points="29.85,22.644 29.805,22.709 29.597,22.692 29.643,22.626 					"/>
					<polygon class="st31" points="29.96,22.485 29.914,22.551 29.707,22.534 29.752,22.468 					"/>
					<polygon class="st31" points="30.07,22.327 30.024,22.393 29.816,22.376 29.862,22.31 					"/>
					<polygon class="st31" points="30.179,22.169 30.134,22.235 29.926,22.218 29.972,22.152 					"/>
					<polygon class="st31" points="30.289,22.011 30.243,22.077 30.036,22.06 30.081,21.994 					"/>
					<polygon class="st31" points="30.399,21.853 30.353,21.919 30.145,21.902 30.191,21.836 					"/>
					<polygon class="st31" points="30.508,21.695 30.463,21.761 30.255,21.744 30.301,21.678 					"/>
					<polygon class="st31" points="30.618,21.537 30.573,21.603 30.365,21.586 30.411,21.52 					"/>
					<polygon class="st31" points="30.728,21.379 30.682,21.445 30.475,21.428 30.52,21.362 					"/>
					<polygon class="st31" points="30.838,21.221 30.792,21.287 30.584,21.27 30.63,21.204 					"/>
					<polygon class="st31" points="30.947,21.063 30.902,21.129 30.694,21.112 30.74,21.046 					"/>
					<polygon class="st31" points="31.057,20.905 31.011,20.971 30.804,20.954 30.849,20.888 					"/>
					<polygon class="st31" points="31.167,20.747 31.121,20.813 30.913,20.796 30.959,20.73 					"/>
					<polygon class="st31" points="31.276,20.589 31.231,20.655 31.023,20.638 31.069,20.572 					"/>
					<polygon class="st31" points="31.386,20.431 31.34,20.497 31.133,20.479 31.178,20.414 					"/>
					<polygon class="st31" points="31.496,20.273 31.45,20.339 31.242,20.321 31.288,20.256 					"/>
					<polygon class="st31" points="31.605,20.115 31.56,20.181 31.352,20.163 31.398,20.098 					"/>
					<polygon class="st31" points="31.715,19.957 31.669,20.023 31.462,20.005 31.508,19.94 					"/>
					<polygon class="st31" points="31.825,19.799 31.779,19.865 31.572,19.847 31.617,19.782 					"/>
					<polygon class="st31" points="31.935,19.641 31.889,19.707 31.681,19.689 31.727,19.624 					"/>
					<polygon class="st31" points="32.044,19.483 31.999,19.549 31.791,19.531 31.837,19.466 					"/>
					<polygon class="st31" points="32.154,19.325 32.108,19.391 31.901,19.373 31.946,19.307 					"/>
				</g>
				<polygon class="st32" points="28.277,26.275 27.917,25.511 27.67,25.491 28.03,26.254 				"/>
				<polygon class="st31" points="30.484,20.879 30.585,21.095 30.721,20.899 				"/>
				<polygon class="st31" points="31.595,19.278 31.697,19.494 31.833,19.298 				"/>
			</g>
		</g>
	</g>
	<g>
		<g>
			<g>
				<path class="st35" d="M45.008,39.097c0.002-0.004,0.006-0.01,0.009-0.016C45.014,39.086,45.01,39.093,45.008,39.097
					c-0.063,0.113-0.188,0.988-0.188,0.988l-0.175,1.676l-0.412,1.026c0,0-0.052,0.121-0.109,0.257l0,0c0,0-0.503,0.469-0.966,0.769
					c-0.463,0.3-2.414,1.513-5.115,1.576c-2.701,0.062-3.689-0.21-4.839-0.274c-1.15-0.063-1.888-0.076-1.888-0.076
					s-0.22,0.091-0.424,0.039c-0.127-0.094-0.339-0.253-0.326-0.271c0.019-0.025-0.375-1.113-0.544-1.338
					c-0.168-0.226-0.556-0.757-0.556-0.757s-0.15-0.575-0.213-0.763c-0.062-0.188-0.012-0.338,0.563-1.536
					c0.575-1.199,1.738-2.441,1.738-2.441s0.012-0.087,0.9-0.675c0.888-0.587,2.213-0.837,3.201-0.975s3.101,0,3.101,0
					s0.275-0.313,0.35-0.488c0.075-0.175,0.462-1.313,0.525-1.601c0.062-0.288,0.325-0.313,0.55-0.363
					c0.226-0.05,1.401-0.063,1.401-0.063l0.375,0.063v0.136l0.125-0.05l3.852,0.838l0.125-0.075l0.175,0.038
					c0,0,0.65,0.337,1.025,0.5c0.375,0.162,0.588,0.45,0.588,0.45s0.002,0.009,0.006,0.023c0,0.001,0.001,0.002,0.001,0.003
					c0.001,0.004,0.003,0.009,0.004,0.014l0,0c0.011,0.076-0.005,0.256-0.303,0.511c-0.4,0.342-1.576,1.284-1.576,1.284
					s-0.642,0.617-0.817,1.034S45.008,39.097,45.008,39.097z"/>
			</g>
			<path class="st35" d="M41.957,34.007l0.125-0.05l3.852,0.838l0.125-0.075l0.175,0.038c0,0,0.65,0.337,1.025,0.5
				c0.375,0.162,0.588,0.45,0.588,0.45s0.062,0.225,0.075,0.3s-0.575,0.738-1.488,1.451c-0.913,0.713-1.363,1.525-1.426,1.638
				s-0.188,0.988-0.188,0.988l-0.175,1.676l-0.409,1.026c0,0-0.251,0.588-0.263,0.625c-0.012,0.037-0.4,0.525-0.4,0.525l-0.413,0.3
				c0,0-0.025,0.188-0.088,0.388s-0.575,1.276-1.263,2.101s-1.413,0.838-1.901,0.75c-0.487-0.087-0.75-0.6-0.75-0.6l-0.907,0.238
				c0,0-1.093,0.101-1.606,0.063c-0.365-0.027-1.473-0.135-2.112-0.196c-0.26-0.025-0.442-0.042-0.464-0.042
				c-0.075,0-0.425,0-0.425,0l-0.15-0.113c0,0-0.225,0.025-0.463,0c-0.238-0.025-0.738-0.2-0.738-0.2s-0.062-0.05-0.125-0.15
				c-0.063-0.1-0.488-0.6-0.488-0.6s-0.362-0.025-0.525-0.1c-0.162-0.075-0.375-0.525-0.375-0.525l-0.213-0.338l-0.813-1.426
				l-0.288-0.775c0,0-0.15-0.575-0.213-0.763c-0.062-0.188-0.012-0.338,0.563-1.536c0.575-1.199,1.738-2.441,1.738-2.441
				s0.012-0.087,0.9-0.675c0.888-0.587,2.213-0.837,3.201-0.975s3.101,0,3.101,0s0.275-0.313,0.35-0.488
				c0.075-0.175,0.462-1.313,0.525-1.601c0.062-0.288,0.325-0.313,0.55-0.363c0.226-0.05,1.401-0.063,1.401-0.063l0.375,0.063
				V34.007z"/>
			<g>
				<g>
					<path class="st36" d="M43.032,44.13l-2.833,1.226l-0.525,0.219c0,0-0.751,0.75-0.732,0.844
						c0.019,0.093,0.213,0.456,0.213,0.456s0.262,0.512,0.75,0.6s1.213,0.075,1.901-0.75s1.2-1.901,1.263-2.101
						s0.088-0.388,0.088-0.388L43.032,44.13z"/>
					<path class="st37" d="M43.051,44.255c0,0-0.325,0.869-0.625,1.432s-0.781,1.101-1.319,1.432
						c-0.538,0.331-0.869,0.031-0.957-0.294c-0.088-0.325,0-1.338,0-1.338L43.051,44.255z"/>
				</g>
				<g>
					<path class="st38" d="M30.021,43.467c0.169,0.225,0.563,1.313,0.544,1.338s0.419,0.338,0.419,0.338l0.531,0.056
						c0,0,2.513,0.151,3.739,0.413c1.226,0.262,3.639,0.625,3.639,0.625l0.263,0.638l-0.907,0.238c0,0-1.093,0.101-1.606,0.063
						c-0.365-0.027-1.473-0.135-2.112-0.196c-0.26-0.025-0.442-0.042-0.464-0.042c-0.075,0-0.425,0-0.425,0l-0.15-0.113
						c0,0-0.225,0.025-0.463,0c-0.238-0.025-0.738-0.2-0.738-0.2s-0.062-0.05-0.125-0.15c-0.063-0.1-0.488-0.6-0.488-0.6
						s-0.362-0.025-0.525-0.1c-0.162-0.075-0.375-0.525-0.375-0.525l-0.213-0.338l-0.813-1.426l-0.288-0.775
						C29.464,42.711,29.852,43.242,30.021,43.467z"/>
					<g>
						<g>
							
								<ellipse transform="matrix(0.8983 -0.4394 0.4394 0.8983 -16.7908 19.4639)" class="st39" cx="33.649" cy="46.002" rx="0.718" ry="1.022"/>
							
								<ellipse transform="matrix(0.9429 -0.333 0.333 0.9429 -13.3919 13.809)" class="st2" cx="33.588" cy="45.972" rx="0.529" ry="0.828"/>
						</g>
						<g>
							
								<ellipse transform="matrix(0.8983 -0.4394 0.4394 0.8983 -16.6702 18.3504)" class="st39" cx="31.304" cy="45.185" rx="0.508" ry="0.724"/>
							
								<ellipse transform="matrix(0.9429 -0.333 0.333 0.9429 -13.256 12.9884)" class="st2" cx="31.262" cy="45.165" rx="0.374" ry="0.586"/>
						</g>
					</g>
				</g>
			</g>
			<g>
				<g>
					<path class="st40" d="M43.161,43.813c0.462-0.301,0.966-0.769,0.966-0.769l-0.154,0.368c-0.012,0.037-0.4,0.525-0.4,0.525
						l-0.413,0.3c0,0-0.975,0.613-1.776,0.875s-1.426,0.45-1.426,0.45c-0.513,0.1-0.825,0.625-0.988,0.8
						c-0.163,0.175-0.72,0.75-0.72,0.75s-1.093,0.101-1.606,0.063c-0.365-0.027-1.473-0.135-2.112-0.196
						c0,0,0.099-0.217,0.036-0.329s-0.413-0.612-0.738-0.875c-0.325-0.262-0.9-0.35-0.95-0.35s-1.263-0.025-1.638-0.05
						s-0.463-0.125-0.463-0.125l-0.213-0.338c0,0,0,0,0.225,0.125s0.525,0,0.525,0s0.738,0.012,1.888,0.076
						c1.15,0.064,2.138,0.337,4.839,0.274S42.695,44.111,43.161,43.813z"/>
					<path class="st40" d="M47.847,35.708c0,0,0.007,0.014,0.011,0.04C47.851,35.724,47.847,35.708,47.847,35.708z"/>
					<path class="st40" d="M47.922,36.009c0.013,0.075-0.575,0.738-1.488,1.451c-0.913,0.713-1.363,1.525-1.426,1.638
						c0,0-0.021-0.104,0.154-0.521s0.817-1.034,0.817-1.034s1.176-0.942,1.576-1.284c0.298-0.255,0.314-0.435,0.303-0.511
						C47.876,35.816,47.912,35.953,47.922,36.009z"/>
				</g>
				<path class="st35" d="M47.857,35.745c0,0.001,0.001,0.002,0.001,0.003c0.011,0.075-0.005,0.256-0.303,0.51
					c-0.4,0.342-1.576,1.284-1.576,1.284s-0.642,0.617-0.817,1.034s-0.154,0.521-0.154,0.521l0,0
					c-0.063,0.113-0.188,0.988-0.188,0.988l-0.175,1.676l-0.413,1.025c0,0-0.052,0.121-0.109,0.257c0,0.001-0.503,0.469-0.966,0.769
					c-0.463,0.3-2.414,1.513-5.115,1.576c-2.701,0.062-3.689-0.21-4.839-0.274c-1.15-0.063-1.888-0.076-1.888-0.076
					s-0.22,0.091-0.424,0.039c-0.103-0.008-0.339-0.146-0.326-0.164c0.019-0.025-0.375-1.219-0.544-1.444
					c-0.168-0.226-0.556-0.757-0.556-0.757s-0.15-0.575-0.213-0.763c-0.062-0.188-0.012-0.338,0.563-1.536
					c0.575-1.199,1.738-2.441,1.738-2.441s0.012-0.087,0.9-0.675c0.888-0.587,2.213-0.837,3.201-0.975s3.101,0,3.101,0
					s0.275-0.313,0.35-0.488c0.075-0.175,0.462-1.313,0.525-1.601c0.062-0.288,0.324-0.313,0.55-0.363
					c0.226-0.05,1.401-0.063,1.401-0.063l0.375,0.063v0.137l0.125-0.05l3.852,0.838l0.125-0.075l0.175,0.038
					c0,0,0.65,0.338,1.025,0.5s0.588,0.45,0.588,0.45s0.004,0.013,0.01,0.035C47.857,35.744,47.857,35.744,47.857,35.745z"/>
			</g>
			<g>
				<g>
					<ellipse class="st41" cx="37.281" cy="38.013" rx="2.993" ry="1.055"/>
					<g>
						<path class="st42" d="M34.293,38.079c-0.004-0.022-0.006-0.043-0.006-0.065c0-0.583,1.339-1.055,2.99-1.055
							c1.651,0,2.99,0.472,2.99,1.055c0,0.022-0.002,0.044-0.006,0.065c-0.095-0.553-1.394-0.991-2.984-0.991
							C35.688,37.088,34.389,37.525,34.293,38.079z"/>
					</g>
				</g>
				<g>
					<g>
						<g>
							<ellipse class="st43" cx="35.277" cy="37.258" rx="0.265" ry="0.123"/>
							<g>
								<path class="st44" d="M35.541,37.251c0.001,0.002,0.001,0.336,0.001,0.339c0,0.068-0.119,0.123-0.265,0.123
									s-0.265-0.055-0.265-0.123c0-0.002,0.001-0.337,0.001-0.339c0.008,0.064,0.123,0.115,0.264,0.115
									C35.418,37.366,35.533,37.315,35.541,37.251z"/>
							</g>
						</g>
						<g>
							<ellipse class="st43" cx="35.917" cy="37.062" rx="0.265" ry="0.123"/>
							<g>
								<path class="st44" d="M36.181,37.055c0.001,0.002,0.001,0.336,0.001,0.339c0,0.068-0.119,0.123-0.265,0.123
									s-0.265-0.055-0.265-0.123c0-0.002,0.001-0.337,0.001-0.339c0.008,0.064,0.123,0.115,0.264,0.115
									S36.173,37.119,36.181,37.055z"/>
							</g>
						</g>
						<g>
							<ellipse class="st43" cx="36.03" cy="37.459" rx="0.265" ry="0.123"/>
							<g>
								<path class="st44" d="M36.294,37.452c0.001,0.002,0.001,0.336,0.001,0.339c0,0.068-0.119,0.123-0.265,0.123
									s-0.265-0.055-0.265-0.123c0-0.002,0.001-0.337,0.001-0.339c0.008,0.064,0.123,0.115,0.264,0.115
									C36.17,37.567,36.285,37.516,36.294,37.452z"/>
							</g>
						</g>
						<g>
							<ellipse class="st43" cx="36.586" cy="37.258" rx="0.265" ry="0.123"/>
							<g>
								<path class="st44" d="M36.85,37.251c0.001,0.002,0.001,0.336,0.001,0.339c0,0.068-0.119,0.123-0.265,0.123
									s-0.265-0.055-0.265-0.123c0-0.002,0.001-0.337,0.001-0.339c0.008,0.064,0.123,0.115,0.264,0.115
									C36.727,37.366,36.842,37.315,36.85,37.251z"/>
							</g>
						</g>
					</g>
					<g>
						<g>
							<ellipse class="st43" cx="38.022" cy="37.124" rx="0.238" ry="0.118"/>
							<g>
								<path class="st44" d="M38.26,37.117c0,0.002,0,0.324,0,0.326c0,0.065-0.107,0.118-0.238,0.118s-0.238-0.053-0.238-0.118
									c0-0.002,0-0.324,0-0.326c0.008,0.062,0.111,0.111,0.238,0.111C38.148,37.228,38.252,37.179,38.26,37.117z"/>
							</g>
						</g>
						<g>
							<ellipse class="st43" cx="38.597" cy="36.935" rx="0.238" ry="0.118"/>
							<g>
								<path class="st44" d="M38.835,36.928c0,0.002,0,0.324,0,0.326c0,0.065-0.107,0.118-0.238,0.118s-0.238-0.053-0.238-0.118
									c0-0.002,0-0.324,0-0.326c0.008,0.062,0.111,0.111,0.238,0.111S38.827,36.99,38.835,36.928z"/>
							</g>
						</g>
						<g>
							<ellipse class="st43" cx="38.699" cy="37.317" rx="0.238" ry="0.118"/>
							<g>
								<path class="st44" d="M38.937,37.309c0,0.002,0,0.324,0,0.326c0,0.065-0.107,0.118-0.238,0.118
									c-0.131,0-0.238-0.053-0.238-0.118c0-0.002,0-0.324,0-0.326c0.008,0.062,0.111,0.111,0.238,0.111
									C38.825,37.42,38.929,37.371,38.937,37.309z"/>
							</g>
						</g>
						<g>
							<ellipse class="st43" cx="39.199" cy="37.124" rx="0.238" ry="0.118"/>
							<g>
								<path class="st44" d="M39.437,37.117c0,0.002,0,0.324,0,0.326c0,0.065-0.106,0.118-0.238,0.118
									c-0.131,0-0.238-0.053-0.238-0.118c0-0.002,0-0.324,0-0.326c0.008,0.062,0.111,0.111,0.238,0.111
									C39.326,37.228,39.429,37.179,39.437,37.117z"/>
							</g>
						</g>
					</g>
					<g>
						<ellipse class="st41" cx="37.415" cy="37.759" rx="1.124" ry="0.401"/>
						<g>
							<path class="st42" d="M38.538,37.734c0.001,0.008,0.002,0.258,0.002,0.266c0,0.222-0.503,0.401-1.124,0.401
								c-0.621,0-1.124-0.18-1.124-0.401c0-0.008,0.001-0.258,0.002-0.266c0.035,0.21,0.524,0.376,1.121,0.376
								C38.013,38.11,38.501,37.944,38.538,37.734z"/>
						</g>
					</g>
					<g>
						<g>
							<ellipse class="st43" cx="35.462" cy="38.22" rx="0.278" ry="0.138"/>
							<g>
								<path class="st44" d="M35.738,38.211c0.001,0.003,0.001,0.378,0.001,0.381c0,0.076-0.124,0.138-0.278,0.138
									c-0.153,0-0.278-0.062-0.278-0.138c0-0.003,0.001-0.378,0.001-0.381c0.009,0.073,0.13,0.13,0.278,0.13
									C35.61,38.341,35.731,38.284,35.738,38.211z"/>
							</g>
						</g>
						<g>
							<ellipse class="st43" cx="36.134" cy="37.999" rx="0.278" ry="0.138"/>
							<g>
								<path class="st44" d="M36.41,37.99c0.001,0.003,0.001,0.378,0.001,0.381c0,0.076-0.125,0.138-0.278,0.138
									s-0.278-0.062-0.278-0.138c0-0.003,0.001-0.378,0.001-0.381c0.009,0.073,0.13,0.13,0.278,0.13S36.403,38.063,36.41,37.99z"
									/>
							</g>
						</g>
						<g>
							<ellipse class="st43" cx="36.253" cy="38.445" rx="0.278" ry="0.138"/>
							<g>
								<path class="st44" d="M36.529,38.436c0.001,0.003,0.001,0.378,0.001,0.381c0,0.076-0.124,0.138-0.278,0.138
									c-0.153,0-0.278-0.062-0.278-0.138c0-0.003,0.001-0.378,0.001-0.381c0.009,0.073,0.13,0.13,0.278,0.13
									C36.4,38.566,36.521,38.508,36.529,38.436z"/>
							</g>
						</g>
						<g>
							<ellipse class="st43" cx="36.837" cy="38.22" rx="0.278" ry="0.138"/>
							<g>
								<path class="st44" d="M37.113,38.211c0.001,0.003,0.001,0.378,0.001,0.381c0,0.076-0.124,0.138-0.278,0.138
									c-0.153,0-0.278-0.062-0.278-0.138c0-0.003,0.001-0.378,0.001-0.381c0.009,0.073,0.13,0.13,0.278,0.13
									C36.985,38.341,37.106,38.284,37.113,38.211z"/>
							</g>
						</g>
					</g>
					<g>
						<g>
							<ellipse class="st43" cx="38.205" cy="38.096" rx="0.278" ry="0.138"/>
							<g>
								<path class="st44" d="M38.481,38.087c0.001,0.003,0.001,0.378,0.001,0.381c0,0.076-0.124,0.138-0.278,0.138
									c-0.153,0-0.278-0.062-0.278-0.138c0-0.003,0.001-0.378,0.001-0.381c0.009,0.073,0.13,0.13,0.278,0.13
									C38.353,38.217,38.474,38.16,38.481,38.087z"/>
							</g>
						</g>
						<g>
							<ellipse class="st43" cx="38.877" cy="37.875" rx="0.278" ry="0.138"/>
							<g>
								<path class="st44" d="M39.153,37.866c0.001,0.003,0.001,0.378,0.001,0.381c0,0.076-0.124,0.138-0.278,0.138
									c-0.153,0-0.278-0.062-0.278-0.138c0-0.003,0.001-0.378,0.001-0.381c0.009,0.073,0.13,0.13,0.278,0.13
									S39.146,37.939,39.153,37.866z"/>
							</g>
						</g>
						<g>
							<ellipse class="st43" cx="38.996" cy="38.321" rx="0.278" ry="0.138"/>
							<g>
								<path class="st44" d="M39.272,38.312c0.001,0.003,0.001,0.378,0.001,0.381c0,0.076-0.124,0.138-0.278,0.138
									c-0.153,0-0.278-0.062-0.278-0.138c0-0.003,0.001-0.378,0.001-0.381c0.009,0.073,0.13,0.13,0.278,0.13
									C39.144,38.442,39.264,38.385,39.272,38.312z"/>
							</g>
						</g>
						<g>
							<ellipse class="st43" cx="39.58" cy="38.096" rx="0.278" ry="0.138"/>
							<g>
								<path class="st44" d="M39.856,38.087c0.001,0.003,0.001,0.378,0.001,0.381c0,0.076-0.124,0.138-0.278,0.138
									c-0.153,0-0.278-0.062-0.278-0.138c0-0.003,0.001-0.378,0.001-0.381c0.009,0.073,0.13,0.13,0.278,0.13
									C39.728,38.217,39.849,38.16,39.856,38.087z"/>
							</g>
						</g>
					</g>
				</g>
			</g>
			<path class="st45" d="M44.103,38.718c0,0-1.076,2.201-4.477,2.351s-7.053-1.217-7.678-1.676
				c-0.625-0.459-0.395-1.421-0.395-1.421s-1.163,1.243-1.738,2.441c-0.576,1.198-0.626,1.348-0.563,1.536s0.213,0.763,0.213,0.763
				s0.387,0.532,0.556,0.757s0.563,1.419,0.544,1.444c-0.014,0.017,0.223,0.156,0.326,0.164c0.204,0.052,1.162-0.027,2.312,0.037
				s2.138,0.337,4.839,0.274c2.702-0.063,4.652-1.276,5.115-1.576c0.462-0.301,0.966-0.769,0.966-0.769
				c0.057-0.136,0.109-0.257,0.109-0.257l0.413-1.025l0.175-1.676c0,0,0.125-0.875,0.188-0.988l0,0L44.103,38.718z"/>
			<path class="st46" d="M31.423,42.993l-0.858,1.919c-0.014,0.017,0.223,0.156,0.326,0.164L31.423,42.993z"/>
			<path class="st47" d="M44.103,38.719l0.125-0.763c0,0,0,0-0.063-0.088c-0.063-0.087-1.251-0.4-2.176-0.65
				s-3.233-0.765-3.233-0.765v-0.131c0,0,0.275-0.313,0.35-0.488c0.075-0.175,0.462-1.313,0.525-1.601
				c0.062-0.288,0.325-0.313,0.55-0.363c0.226-0.05,1.401-0.063,1.401-0.063l0.375,0.063v0.138l0.125-0.05l3.852,0.838l0.125-0.075
				l0.175,0.038c0,0,0.65,0.337,1.025,0.5c0.375,0.162,0.588,0.45,0.588,0.45s0.004,0.013,0.01,0.035v0.001
				c0,0.001,0.001,0.002,0.001,0.003c0.011,0.075-0.005,0.256-0.303,0.51c-0.4,0.342-1.576,1.284-1.576,1.284
				s-0.642,0.617-0.817,1.034s-0.154,0.521-0.154,0.521L44.103,38.719z"/>
		</g>
		<path class="st48" d="M40.125,36.096c0,0-0.01,0.072,0.022,0.144c0.032,0.072,0.165,0.094,0.165,0.094l1.645-2.326V33.87
			l-0.193-0.032L40.125,36.096z"/>
		<path class="st2" d="M43.456,37.127c0.193,0.05,0.287,0.069,0.606,0.044c0.318-0.025,0.531-0.394,0.531-0.394l1.341-1.982
			l-3.852-0.838l-0.125,0.05l-1.645,2.326C40.312,36.333,43.261,37.077,43.456,37.127z"/>
	</g>
</g>
</svg>
