<?xml version="1.0" encoding="utf-8"?>
<!-- Generator: Adobe Illustrator 25.4.1, SVG Export Plug-In . SVG Version: 6.00 Build 0)  -->
<svg version="1.1" id="Layer_1" xmlns="http://www.w3.org/2000/svg" xmlns:xlink="http://www.w3.org/1999/xlink" x="0px" y="0px"
	 viewBox="0 0 50 50" style="enable-background:new 0 0 50 50;" xml:space="preserve">
<style type="text/css">
	.st0{opacity:0.33;fill:#C0C7CA;}
	.st1{fill:#8CC35A;}
	.st2{fill:#62A945;}
	.st3{fill:#569843;}
	.st4{fill:#815C3B;}
	.st5{fill:#64462E;}
	.st6{fill:#C49F16;}
	.st7{fill:#F3D054;}
	.st8{fill:#B79115;}
	.st9{fill:#F0C018;}
	.st10{fill:#F1C735;}
	.st11{fill:#414342;}
	.st12{fill:#FFFFFF;}
	.st13{fill:#333434;}
	.st14{fill:#81827D;}
	.st15{fill:#BFC7C9;}
	.st16{fill:#FAFFFF;}
	.st17{fill:#BDC7D3;}
	.st18{fill:#003650;}
	.st19{fill:#F8FDFF;}
	.st20{fill:#34362E;}
	.st21{fill:#00BDF2;}
	.st22{fill:none;stroke:#FFFFFF;stroke-miterlimit:10;}
	.st23{fill:#636363;}
	.st24{fill:#363436;}
</style>
<g>
	<ellipse transform="matrix(1 -0.0071 0.0071 1 -0.2551 0.3023)" class="st0" cx="42.439" cy="36.07" rx="5.657" ry="2.533"/>
	<ellipse transform="matrix(1 -0.0071 0.0071 1 -0.2282 0.2655)" class="st0" cx="37.071" cy="32.095" rx="4.953" ry="2.226"/>
	<ellipse transform="matrix(1 -0.0067 0.0067 1 -0.2637 0.1273)" class="st0" cx="18.765" cy="39.205" rx="12.506" ry="5.406"/>
	<g>
		<polygon class="st1" points="41.625,29.214 37.4,30.888 33.174,29.217 37.399,28.008 		"/>
		<polygon class="st2" points="37.457,34.211 37.4,30.888 33.174,29.217 33.25,32.185 		"/>
		<polygon class="st3" points="37.457,34.211 37.407,30.881 41.625,29.214 41.567,32.183 		"/>
		<polygon class="st4" points="41.153,30.562 40.677,30.797 40.671,31.131 40.173,31.378 40.167,30.992 39.689,31.229 
			39.689,31.228 39.299,31.421 39.297,31.547 38.858,31.764 38.857,31.85 38.862,31.848 38.855,32.273 38.356,32.52 38.349,32.051 
			38.354,32.049 38.351,31.832 37.89,32.06 37.887,32.275 37.426,32.503 37.457,34.211 41.567,32.183 41.61,30.197 41.155,30.423 		
			"/>
		<g>
			<polygon class="st5" points="36.976,31.827 36.972,31.603 36.494,31.367 36.491,31.591 36.496,31.593 36.488,32.081 
				35.971,31.824 35.963,31.383 35.969,31.385 35.967,31.295 35.512,31.07 35.509,30.939 35.104,30.739 35.104,30.74 34.608,30.495 
				34.602,30.895 34.085,30.639 34.079,30.292 33.585,30.048 33.583,29.903 33.183,29.706 33.25,32.185 37.457,34.211 
				37.416,32.044 			"/>
		</g>
	</g>
	<g>
		<polygon class="st1" points="47.459,31.793 42.025,33.947 36.589,31.798 42.024,30.243 		"/>
		<polygon class="st2" points="42.099,38.221 42.025,33.947 36.589,31.798 36.687,35.616 		"/>
		<polygon class="st3" points="42.099,38.221 42.034,33.938 47.459,31.793 47.385,35.613 		"/>
		<polygon class="st4" points="46.852,33.528 46.24,33.83 46.233,34.26 45.591,34.578 45.584,34.081 44.969,34.385 44.969,34.384 
			44.468,34.632 44.465,34.794 43.901,35.073 43.899,35.184 43.905,35.182 43.896,35.729 43.255,36.046 43.246,35.442 43.252,35.44 
			43.248,35.162 42.655,35.455 42.651,35.731 42.059,36.024 42.099,38.221 47.385,35.613 47.441,33.059 46.855,33.349 		"/>
		<g>
			<polygon class="st5" points="41.479,35.154 41.475,34.867 40.86,34.563 40.856,34.852 40.862,34.854 40.852,35.481 
				40.186,35.152 40.177,34.583 40.184,34.586 40.182,34.471 39.596,34.181 39.593,34.013 39.072,33.755 39.072,33.757 
				38.434,33.441 38.427,33.956 37.76,33.627 37.753,33.181 37.118,32.866 37.115,32.68 36.601,32.426 36.687,35.616 42.099,38.221 
				42.045,35.434 			"/>
		</g>
	</g>
	<g>
		<g>
			<path class="st6" d="M24.227,34.714c0,0,2.071-1.09,4.773-1.167s3.549,0.269,3.549,0.269l-0.654,4.027l-0.937-0.119l-7.116-2.211
				L24.227,34.714z"/>
			<path class="st7" d="M34.067,34.513c0,0-0.343,0.243-0.863,0.286c-1.235,0.102-2.083,0.089-2.207-0.141
				c0,0-0.11,0.103-0.12,0.236l-0.297,3.93c0,0,0.12,0.113,0.277,0.152c0.157,0.039,0.391,0.062,0.896,0.048
				c0.505-0.014,1.937-0.128,1.937-0.128L34.067,34.513"/>
			<path class="st8" d="M33.689,38.897c1.06-1.036,1.476-2.092,1.536-2.646c0.092-0.859-1.158-1.738-1.158-1.738L33.689,38.897z"/>
			<path class="st9" d="M28.62,42.781c0.078-0.002,3.831-1.451,4.918-2.241c1.087-0.79,2.108-1.811,2.502-2.328
				c0.394-0.517,0.51-1.24,0.396-1.801c0,0,0.132,1.242,0.147,2.107c0.015,0.865-0.005,1.849-0.005,1.849l-0.107,0.022
				c0,0,0.113-0.47-0.344-0.457c-0.457,0.013-0.678,1.148-2.181,1.998c-1.503,0.85-3.247,1.464-4.047,1.73
				c-0.8,0.266-1.206,0.346-1.206,0.346L28.62,42.781"/>
			<path class="st8" d="M36.471,40.389c0,0,0.113-0.47-0.344-0.457L36.471,40.389z"/>
			<path class="st7" d="M28.62,42.781c-0.078,0.002-0.253,0.007-0.622,0.018c-0.369,0.01-0.593-0.314-0.501-0.531
				c0,0-0.127,0.334-0.132,0.84c-0.005,0.506,0.002,0.739,0.217,0.792c0.216,0.052,0.762,0.115,0.937,0.11
				c0.175-0.005,0.175-0.005,0.175-0.005L28.62,42.781z"/>
			<path class="st10" d="M24.227,34.714c0,0,2.071-1.09,4.773-1.167s3.549,0.269,3.549,0.269s-1.675,0.612-1.552,0.842
				s0.971,0.243,2.207,0.141c0.52-0.043,0.863-0.286,0.863-0.286s1.251,0.879,1.158,1.738c-0.06,0.553-0.476,1.609-1.536,2.646
				c-0.585,0.572-1.366,1.138-2.391,1.61c-2.881,1.327-3.711,1.545-3.803,1.762c-0.091,0.217,0.132,0.541,0.501,0.531
				c0.369-0.01,0.544-0.015,0.622-0.018c0.078-0.002,3.831-1.451,4.918-2.241c1.087-0.79,2.108-1.811,2.502-2.328
				c0.394-0.517,0.51-1.24,0.396-1.801c-0.113-0.561-0.748-2.372-3.995-2.961s-5.936-0.046-6.688,0.19s-1.758,0.789-1.758,0.789
				L24.227,34.714z"/>
		</g>
		<g>
			<path class="st7" d="M6.41,43.279c0,0,0.262,0.162,0.816-0.034s0.388-0.493,0.388-0.493s0.213,0.814,0.22,0.987
				c0.007,0.173-0.028,0.469-0.679,0.554S6.4,44.276,6.4,44.276L6.41,43.279"/>
			<path class="st9" d="M6.41,43.279c0,0-0.893-0.591-1.893-1.285s-2.173-1.858-2.192-4.152c0,0-0.503,2.62,0.707,4.063
				c1.21,1.443,3.37,2.371,3.37,2.371L6.41,43.279z"/>
			<path class="st8" d="M7.74,33.566c0,0,1.163-0.287,2.696-0.286c1.533,0.001,3.46,0.267,3.46,0.267s0.328,2.119,0.29,2.121
				c-0.038,0.002-2.679,0.551-2.679,0.551s-2.831,0.581-2.823,0.549C8.694,36.733,7.74,33.566,7.74,33.566z"/>
			<path class="st7" d="M5.971,34.03c-0.077-0.018-0.853,0.382-1.415,0.99c-0.562,0.608-1.301,3.086-0.522,4.612
				c0,0-0.027-0.797,0.894-1.303c0.921-0.505,1.192-0.733,1.192-0.733L5.971,34.03"/>
			<path class="st9" d="M5.971,34.03c0.077,0.018,2.185,0.378,2.516,0.284C8.96,34.18,8.28,33.9,8.28,33.9s0.518,0.201,0.534,0.314
				c0.017,0.113,0.497,3.336,0.497,3.336s-0.272,0.206-0.578,0.219c-0.306,0.013-2.613-0.172-2.613-0.172L5.971,34.03z"/>
			<path class="st10" d="M13.755,33.206c0,0-2.136-0.365-4.935-0.096s-4.377,1.028-4.377,1.028l-0.624,0.351
				c0,0-1.514,1.059-1.495,3.354c0.019,2.294,1.192,3.458,2.192,4.152s1.893,1.285,1.893,1.285s0.262,0.162,0.816-0.034
				s0.388-0.493,0.388-0.493s-2.8-1.593-3.58-3.12c-0.779-1.526-0.04-4.004,0.522-4.612c0.562-0.608,1.337-1.009,1.415-0.99
				c0.077,0.018,2.188,0.385,2.516,0.284c0.328-0.1,0.04-0.262,0.04-0.262L7.74,33.566c0,0,1.163-0.287,2.696-0.286
				c1.533,0.001,3.46,0.267,3.46,0.267L13.755,33.206z"/>
		</g>
		<path class="st11" d="M23.909,34.529c0,0,0.014-0.872,0.624-2.141c0.61-1.27,1.119-2.425,1.262-2.482
			c0.142-0.057,0.326-0.114,0.448,0.152c0.122,0.265,0.074,0.675,0.074,0.675l0.183,0.189L23.909,34.529z"/>
		<path d="M15.541,34.376c-0.157,2.435-1.115,4.345-2.14,4.266s-1.783-0.812-1.572-4.551c0.211-3.739,1.115-4.345,2.14-4.266
			C14.995,29.904,15.698,31.941,15.541,34.376z"/>
		<path d="M23.996,34.54c0.148-2.435,0.742-4.131,1.505-4.093c1.138,0.057,1.373,0.59,1.129,4.293
			c-0.246,3.736-0.105,4.364-1.503,4.412C23.83,39.196,23.792,37.908,23.996,34.54z"/>
		<path class="st12" d="M25.83,34.802c0.073-1.578,0.305-2.848,0.518-2.836c0.214,0.012,0.314,0.456,0.209,2.879
			c-0.106,2.422-0.259,2.848-0.473,2.836S25.758,36.38,25.83,34.802z"/>
		<path class="st13" d="M13.209,34.041c0.021-1.649,0.399-3.041,1.433-3.144c1.034-0.103,1.688,0.291,2.09,2.795
			s-0.178,3.016-1.211,3.119C14.486,36.915,13.158,38.063,13.209,34.041z"/>
		<path class="st7" d="M16.624,23.574c-1.953,0.22-2.747,0.409-3.215,1.319c-0.468,0.91-0.733,3.07-0.529,5.003
			s1.567,5.04,1.933,5.571c0.366,0.531,0.509,1.497,3.48,1.554s3.113,0.095,3.744-0.701c0.631-0.796,1.058-1.668,1.872-3.373
			c0.432-0.904,1.098-2.209,1.665-3.401c0.502-1.056,0.927-2.024,1.041-2.549c0.244-1.118,0.814-2.444-0.651-2.748
			C24.499,23.945,20.73,23.113,16.624,23.574z"/>
		<path class="st9" d="M12.88,29.895c0.203,1.933,1.567,5.04,1.933,5.571c0.366,0.531,0.509,1.497,3.48,1.554
			s3.113,0.095,3.744-0.701c0.631-0.796,1.058-1.668,1.872-3.373c0.432-0.904,1.098-2.209,1.665-3.401c0,0-1.967-1.85-6.934-1.85
			S12.88,29.895,12.88,29.895z"/>
		<g>
			<g>
				<g>
					<path class="st14" d="M25.187,24.025c-0.014-0.112-0.036-0.232-0.069-0.323c-0.072-0.198-0.38-0.457-0.76-0.594
						c-0.38-0.137-2.044-0.122-3.002-0.137c-0.959-0.015-4.359-0.168-5.118-0.107c-0.197,0.016-0.343,0.049-0.452,0.093
						c-0.31,0.124-0.317,0.332-0.344,0.456c-0.011,0.05-0.015,0.15-0.016,0.266c0.348-0.06,0.75-0.111,1.221-0.164
						C20.143,23.122,23.394,23.667,25.187,24.025z"/>
				</g>
				<g>
					<path class="st15" d="M25.245,23.496c-0.063-0.206-0.38-0.685-0.886-0.777c-0.506-0.091-4.928-0.198-4.928-0.198
						s-2.659-0.053-2.966,0c-0.307,0.053-0.38,0.137-0.515,0.236c-0.136,0.099-0.163,0.199-0.163,0.199
						c0.109-0.044,0.255-0.077,0.452-0.093c0.76-0.061,4.16,0.091,5.118,0.107c0.959,0.015,2.622,0,3.002,0.137
						c0.38,0.137,0.687,0.396,0.76,0.594c0.033,0.091,0.055,0.211,0.069,0.323c0.02,0.004,0.039,0.008,0.059,0.012
						C25.266,23.844,25.28,23.608,25.245,23.496z"/>
				</g>
				<path class="st14" d="M13.575,27.429c0,0-0.041-0.929,0-1.137c0.03-0.154,0.038-0.413,0.387-0.567
					c0.122-0.054,0.287-0.096,0.508-0.115c0.855-0.076,4.68,0.114,5.758,0.133c1.078,0.019,2.95,0,3.378,0.171
					s0.773,0.493,0.855,0.739s0.102,0.663,0.102,0.777s0,0.265,0,0.265s-0.326-0.114-0.692-0.208s-0.61-0.152-0.61-0.152
					s-0.102-0.643-1.119-0.691c-1.017-0.048-4.456-0.218-5.453-0.2c-0.997,0.019-1.587,0.114-1.709,0.341
					c-0.122,0.227-0.122,0.227-0.122,0.227S14.185,27.126,13.575,27.429z"/>
				<path class="st15" d="M13.962,25.725c0.122-0.054,0.287-0.096,0.508-0.115c0.855-0.076,4.68,0.114,5.758,0.133
					c1.078,0.019,2.95,0,3.378,0.171s0.773,0.493,0.855,0.739s0.102,0.663,0.102,0.777c0,0,0.112-0.777,0.041-1.033
					c-0.071-0.256-0.427-0.853-0.997-0.966c-0.57-0.114-5.545-0.246-5.545-0.246s-2.991-0.066-3.337,0s-0.427,0.171-0.58,0.294
					C13.992,25.601,13.962,25.725,13.962,25.725z"/>
				<g>
					<path class="st16" d="M18.062,25.184c0,0,4.975,0.133,5.545,0.246c0.05,0.01,0.098,0.024,0.145,0.041l0.639-2.172l-8.271-0.313
						c-0.009,0.024-1.146,1.723-1.477,2.216c0.026-0.006,0.054-0.012,0.084-0.018C15.071,25.118,18.062,25.184,18.062,25.184z"/>
				</g>
				<g>
					<path class="st17" d="M24.627,23.658l-0.237-0.36l-0.639,2.172c0.122,0.044,0.232,0.109,0.33,0.186L24.627,23.658z"/>
				</g>
				<path class="st18" d="M23.082,25.153l-7.372-0.297c-0.076-0.003-0.107-0.059-0.068-0.125l0.867-1.448
					c0.039-0.065,0.134-0.116,0.21-0.113l6.948,0.297c0.076,0.003,0.107,0.059,0.068,0.125l-0.443,1.448
					C23.253,25.106,23.158,25.156,23.082,25.153z"/>
				<path class="st19" d="M20.822,23.925l-2.333-0.027l0.147-0.203c0.012-0.016,0-0.03-0.026-0.03l-1.036-0.022
					c-0.026-0.001-0.057,0.012-0.068,0.028l-0.176,0.244c-0.012,0.016,0,0.03,0.026,0.03l1.015,0.021l-0.108,0.149l-1.006-0.021
					c-0.026-0.001-0.057,0.012-0.068,0.028l-0.176,0.244c-0.012,0.016,0,0.03,0.026,0.03l1.036,0.022
					c0.026,0.001,0.057-0.012,0.068-0.028l0.138-0.19l2.324,0.027c0.026,0.001,0.057-0.012,0.068-0.028l0.176-0.244
					C20.86,23.94,20.848,23.926,20.822,23.925z"/>
			</g>
			<g>
				<g>
					
						<ellipse transform="matrix(0.03 -0.9995 0.9995 0.03 -10.0734 40.3926)" class="st20" cx="15.776" cy="25.387" rx="0.1" ry="0.433"/>
					<path class="st14" d="M15.375,25.413c0.064-0.035,0.219-0.056,0.401-0.051s0.336,0.035,0.401,0.074
						c0.02-0.011,0.032-0.023,0.032-0.037c0-0.055-0.194-0.106-0.432-0.112c-0.239-0.007-0.432,0.033-0.432,0.088
						C15.343,25.388,15.355,25.401,15.375,25.413z"/>
				</g>
				<g>
					
						<ellipse transform="matrix(0.03 -0.9995 0.9995 0.03 -8.8332 41.7455)" class="st20" cx="17.093" cy="25.424" rx="0.1" ry="0.433"/>
					<path class="st14" d="M16.692,25.45c0.064-0.035,0.219-0.056,0.401-0.051c0.181,0.005,0.336,0.035,0.401,0.074
						c0.02-0.011,0.032-0.023,0.032-0.037c0-0.055-0.194-0.106-0.432-0.112c-0.239-0.007-0.432,0.033-0.432,0.088
						C16.66,25.425,16.672,25.438,16.692,25.45z"/>
				</g>
				<g>
					
						<ellipse transform="matrix(0.03 -0.9995 0.9995 0.03 -7.593 43.0984)" class="st20" cx="18.41" cy="25.461" rx="0.1" ry="0.433"/>
					<path class="st14" d="M18.009,25.488c0.064-0.035,0.219-0.056,0.401-0.051c0.181,0.005,0.336,0.035,0.401,0.074
						c0.02-0.011,0.032-0.023,0.032-0.037c0-0.055-0.194-0.106-0.432-0.112s-0.432,0.033-0.432,0.088
						C17.977,25.462,17.989,25.475,18.009,25.488z"/>
				</g>
				<g>
					
						<ellipse transform="matrix(0.03 -0.9995 0.9995 0.03 -6.3529 44.4513)" class="st20" cx="19.727" cy="25.499" rx="0.1" ry="0.433"/>
					<path class="st14" d="M19.326,25.525c0.064-0.035,0.219-0.056,0.401-0.051c0.181,0.005,0.336,0.035,0.401,0.074
						c0.02-0.011,0.032-0.023,0.032-0.037c0-0.055-0.194-0.106-0.432-0.112c-0.239-0.007-0.432,0.033-0.432,0.088
						C19.295,25.5,19.306,25.513,19.326,25.525z"/>
				</g>
				<g>
					
						<ellipse transform="matrix(0.03 -0.9995 0.9995 0.03 -5.1127 45.8042)" class="st20" cx="21.044" cy="25.536" rx="0.1" ry="0.433"/>
					<path class="st14" d="M20.644,25.563c0.064-0.035,0.219-0.056,0.401-0.051c0.181,0.005,0.336,0.035,0.401,0.074
						c0.02-0.011,0.032-0.023,0.032-0.037c0-0.055-0.194-0.106-0.432-0.112c-0.239-0.007-0.432,0.033-0.432,0.088
						C20.612,25.537,20.623,25.55,20.644,25.563z"/>
				</g>
				<g>
					
						<ellipse transform="matrix(0.03 -0.9995 0.9995 0.03 -3.8725 47.1571)" class="st20" cx="22.361" cy="25.574" rx="0.1" ry="0.433"/>
					<path class="st14" d="M21.961,25.6c0.064-0.035,0.219-0.056,0.401-0.051c0.181,0.005,0.336,0.035,0.401,0.074
						c0.02-0.011,0.032-0.023,0.032-0.037c0-0.055-0.194-0.106-0.432-0.112s-0.432,0.033-0.432,0.088
						C21.929,25.575,21.94,25.588,21.961,25.6z"/>
				</g>
			</g>
			<g>
				<g>
					
						<ellipse transform="matrix(0.03 -0.9995 0.9995 0.03 -5.7771 39.3971)" class="st20" cx="17.411" cy="22.675" rx="0.093" ry="0.404"/>
					<path class="st14" d="M17.037,22.7c0.06-0.032,0.205-0.053,0.374-0.048c0.169,0.005,0.314,0.033,0.374,0.069
						c0.019-0.01,0.03-0.022,0.03-0.034c0-0.052-0.181-0.099-0.404-0.105c-0.223-0.006-0.404,0.03-0.404,0.082
						C17.007,22.676,17.018,22.688,17.037,22.7z"/>
				</g>
				<g>
					
						<ellipse transform="matrix(0.03 -0.9995 0.9995 0.03 -4.6197 40.6597)" class="st20" cx="18.64" cy="22.71" rx="0.093" ry="0.404"/>
					<path class="st14" d="M18.266,22.735c0.06-0.032,0.205-0.053,0.374-0.048c0.169,0.005,0.314,0.033,0.374,0.069
						c0.019-0.01,0.03-0.022,0.03-0.034c0-0.052-0.181-0.099-0.404-0.105c-0.223-0.006-0.404,0.03-0.404,0.082
						C18.236,22.711,18.247,22.723,18.266,22.735z"/>
				</g>
				<g>
					
						<ellipse transform="matrix(0.03 -0.9995 0.9995 0.03 -3.4623 41.9223)" class="st20" cx="19.869" cy="22.745" rx="0.093" ry="0.404"/>
					<path class="st14" d="M19.495,22.77c0.06-0.032,0.205-0.053,0.374-0.048c0.169,0.005,0.314,0.033,0.374,0.069
						c0.019-0.01,0.03-0.022,0.03-0.034c0-0.052-0.181-0.099-0.404-0.105c-0.223-0.006-0.404,0.03-0.404,0.082
						C19.466,22.746,19.476,22.758,19.495,22.77z"/>
				</g>
				<g>
					
						<ellipse transform="matrix(0.03 -0.9995 0.9995 0.03 -2.3049 43.1849)" class="st20" cx="21.098" cy="22.78" rx="0.093" ry="0.404"/>
					<path class="st14" d="M20.725,22.804c0.06-0.032,0.205-0.053,0.374-0.048s0.314,0.033,0.374,0.069
						c0.019-0.01,0.03-0.022,0.03-0.034c0-0.052-0.181-0.099-0.404-0.105c-0.223-0.006-0.404,0.03-0.404,0.082
						C20.695,22.781,20.706,22.793,20.725,22.804z"/>
				</g>
				<g>
					
						<ellipse transform="matrix(0.03 -0.9995 0.9995 0.03 -1.1475 44.4475)" class="st20" cx="22.328" cy="22.815" rx="0.093" ry="0.404"/>
					<path class="st14" d="M21.954,22.839c0.06-0.032,0.205-0.053,0.374-0.048c0.169,0.005,0.314,0.033,0.374,0.069
						c0.019-0.01,0.03-0.022,0.03-0.034c0-0.052-0.181-0.099-0.404-0.105s-0.404,0.03-0.404,0.082
						C21.924,22.816,21.935,22.828,21.954,22.839z"/>
				</g>
				<g>
					
						<ellipse transform="matrix(0.03 -0.9995 0.9995 0.03 0.0099 45.7101)" class="st20" cx="23.557" cy="22.85" rx="0.093" ry="0.404"/>
					<path class="st14" d="M23.183,22.874c0.06-0.032,0.205-0.053,0.374-0.048c0.169,0.005,0.314,0.033,0.374,0.069
						c0.019-0.01,0.03-0.022,0.03-0.034c0-0.052-0.181-0.099-0.404-0.105c-0.223-0.006-0.404,0.03-0.404,0.082
						C23.153,22.851,23.164,22.863,23.183,22.874z"/>
				</g>
			</g>
		</g>
		<path class="st21" d="M14.208,30.999c0,0-0.046-0.455,0.122-0.597s0.34-0.16,0.704-0.16s1.233-0.103,4.026,0
			c2.794,0.103,3.877,0.261,4.045,0.481s0.214,1.402-0.061,2.147s-0.656,1-0.824,1.043c-0.168,0.043-2.427,0.085-4.075,0
			c-1.648-0.085-2.944-0.136-3.342-0.497C14.202,32.869,14.208,30.999,14.208,30.999z"/>
		<g>
			<path class="st12" d="M16.395,30.558c-0.752,0-1.361,0.554-1.361,1.238c0,0.684,0.609,1.238,1.361,1.238
				c0.752,0,1.361-0.554,1.361-1.238C17.756,31.112,17.146,30.558,16.395,30.558z M16.395,32.869c-0.652,0-1.18-0.481-1.18-1.073
				s0.528-1.073,1.18-1.073c0.652,0,1.18,0.481,1.18,1.073S17.047,32.869,16.395,32.869z"/>
			<ellipse class="st22" cx="16.395" cy="31.796" rx="1.18" ry="1.073"/>
			<g>
				<path class="st23" d="M17.407,31.244c0.001,0.017,0.003,0.035,0.003,0.053c0,0.424-0.378,0.767-0.843,0.767
					c-0.466,0-0.843-0.343-0.843-0.767c0-0.181,0.07-0.348,0.185-0.479c-0.409,0.169-0.694,0.543-0.694,0.978
					c0,0.593,0.528,1.073,1.18,1.073s1.18-0.481,1.18-1.073C17.575,31.594,17.514,31.406,17.407,31.244z"/>
			</g>
			<path d="M17.407,31.244c-0.206-0.313-0.582-0.522-1.012-0.522c-0.173,0-0.338,0.034-0.486,0.095
				c-0.116,0.131-0.185,0.298-0.185,0.479c0,0.424,0.378,0.767,0.843,0.767c0.466,0,0.843-0.343,0.843-0.767
				C17.41,31.279,17.408,31.262,17.407,31.244z"/>
			<path class="st12" d="M20.731,30.76c-0.762,0.145-1.23,0.807-1.046,1.478c0.184,0.671,0.951,1.097,1.712,0.952
				c0.762-0.145,1.23-0.807,1.046-1.478C22.259,31.041,21.493,30.615,20.731,30.76z M21.353,33.029
				c-0.66,0.126-1.325-0.244-1.485-0.826c-0.16-0.582,0.246-1.156,0.907-1.282c0.66-0.126,1.325,0.244,1.485,0.826
				S22.014,32.903,21.353,33.029z"/>
			
				<ellipse transform="matrix(0.0896 -0.996 0.996 0.0896 -12.6691 50.0917)" class="st22" cx="21.064" cy="31.976" rx="1.077" ry="1.231"/>
			<g>
				<path class="st23" d="M21.941,31.238c0.006,0.017,0.012,0.034,0.017,0.051c0.114,0.416-0.176,0.826-0.648,0.916
					c-0.472,0.09-0.947-0.174-1.061-0.59c-0.049-0.178-0.023-0.355,0.059-0.506c-0.369,0.245-0.557,0.667-0.44,1.094
					c0.16,0.582,0.824,0.952,1.485,0.826c0.66-0.126,1.066-0.7,0.907-1.282C22.206,31.549,22.093,31.376,21.941,31.238z"/>
			</g>
			<path d="M21.941,31.238c-0.293-0.267-0.731-0.4-1.166-0.316c-0.176,0.034-0.333,0.099-0.467,0.188
				c-0.082,0.151-0.108,0.328-0.059,0.506c0.114,0.416,0.589,0.68,1.061,0.59c0.472-0.09,0.762-0.5,0.648-0.916
				C21.954,31.272,21.947,31.255,21.941,31.238z"/>
		</g>
		<path class="st14" d="M23.24,37.391L23.24,37.391l0.668-0.834v-2.029c0,0,0.014-0.872,0.624-2.141
			c0.61-1.27,1.119-2.425,1.262-2.482c0.142-0.057,0.326-0.114,0.448,0.152c0.122,0.265,0.074,0.675,0.074,0.675l0.183,0.189
			l0.353-4.674l-1.279,3.297c-0.567,1.192-1.233,2.497-1.665,3.401c-0.407,0.853-0.717,1.497-1.005,2.028
			c-0.287,0.531-0.552,0.947-0.867,1.345c-0.631,0.796-0.773,0.758-3.744,0.701c-2.971-0.057-3.113-1.023-3.48-1.554
			c-0.275-0.398-1.11-2.245-1.597-3.96c0,0,0.125,1.336,0.267,1.961c0.142,0.625,0.239,3.013,0.807,3.579
			c0.346,0.344,1.529,0.648,3.95,0.799c1.125,0.07,2.285-0.023,3.203-0.143C22.502,37.565,23.24,37.391,23.24,37.391L23.24,37.391
			 M23.265,35.787C23.265,35.787,23.265,35.787,23.265,35.787C23.265,35.787,23.265,35.787,23.265,35.787z"/>
		<path class="st24" d="M16.519,30.771c-0.202,0-0.366,0.149-0.366,0.333c0,0.184,0.164,0.333,0.366,0.333s0.366-0.149,0.366-0.333
			C16.884,30.92,16.721,30.771,16.519,30.771z M16.519,31.392c-0.175,0-0.317-0.129-0.317-0.288c0-0.159,0.142-0.288,0.317-0.288
			s0.317,0.129,0.317,0.288C16.836,31.263,16.694,31.392,16.519,31.392z"/>
		<path class="st24" d="M21.064,30.943c-0.202,0-0.366,0.149-0.366,0.333s0.164,0.333,0.366,0.333c0.202,0,0.366-0.149,0.366-0.333
			S21.266,30.943,21.064,30.943z M21.064,31.564c-0.175,0-0.317-0.129-0.317-0.288s0.142-0.288,0.317-0.288s0.317,0.129,0.317,0.288
			S21.239,31.564,21.064,31.564z"/>
		<path class="st23" d="M19.694,37.554c-2.094,0.057-5.403-0.507-5.403-0.507c0.346,0.344,1.529,0.648,3.95,0.799
			c1.125,0.07,2.285-0.023,3.203-0.143c1.058-0.138,1.796-0.312,1.796-0.312C23.24,37.391,21.788,37.497,19.694,37.554z"/>
	</g>
	<g>
		<polygon class="st1" points="21.504,40.139 15.218,42.643 8.929,40.144 15.217,38.335 		"/>
		<polygon class="st2" points="15.303,47.613 15.218,42.643 8.929,40.144 9.043,44.583 		"/>
		<polygon class="st3" points="15.303,47.613 15.228,42.633 21.504,40.139 21.418,44.581 		"/>
		<polygon class="st4" points="20.801,42.155 20.094,42.507 20.086,43.007 19.343,43.376 19.335,42.799 18.624,43.153 
			18.624,43.151 18.043,43.44 18.04,43.628 17.387,43.953 17.385,44.082 17.393,44.079 17.383,44.715 16.64,45.084 16.63,44.382 
			16.637,44.379 16.632,44.055 15.947,44.396 15.942,44.718 15.257,45.059 15.303,47.613 21.418,44.581 21.483,41.61 20.805,41.947 
					"/>
		<g>
			<polygon class="st5" points="14.587,44.047 14.581,43.713 13.87,43.359 13.865,43.695 13.872,43.698 13.861,44.427 
				13.091,44.044 13.08,43.383 13.088,43.386 13.086,43.252 12.408,42.915 12.404,42.72 11.802,42.42 11.802,42.422 11.064,42.055 
				11.055,42.654 10.284,42.27 10.276,41.752 9.541,41.386 9.537,41.17 8.943,40.874 9.043,44.583 15.303,47.613 15.241,44.372 			
				"/>
		</g>
	</g>
</g>
</svg>
