<?xml version="1.0" encoding="utf-8"?>
<!-- Generator: Adobe Illustrator 25.4.1, SVG Export Plug-In . SVG Version: 6.00 Build 0)  -->
<svg version="1.1" id="Layer_1" xmlns="http://www.w3.org/2000/svg" xmlns:xlink="http://www.w3.org/1999/xlink" x="0px" y="0px"
	 viewBox="0 0 50 50" style="enable-background:new 0 0 50 50;" xml:space="preserve">
<style type="text/css">
	.st0{opacity:0.33;fill:#C0C7CA;enable-background:new    ;}
	.st1{fill:#8CC35A;}
	.st2{fill:#62A945;}
	.st3{fill:#569843;}
	.st4{fill:#815C3B;}
	.st5{fill:#64462E;}
	.st6{fill:#C49F16;}
	.st7{fill:#F3D054;}
	.st8{fill:#B79115;}
	.st9{fill:#F0C018;}
	.st10{fill:#F1C735;}
	.st11{fill:#414342;}
	.st12{fill:#FFFFFF;}
	.st13{fill:#333434;}
	.st14{fill:#81827D;}
	.st15{fill:#BFC7C9;}
	.st16{fill:#FAFFFF;}
	.st17{fill:#BDC7D3;}
	.st18{fill:#003650;}
	.st19{fill:#F8FDFF;}
	.st20{fill:#34362E;}
	.st21{fill:#00BDF2;}
	.st22{fill:none;stroke:#FFFFFF;stroke-miterlimit:10;}
	.st23{fill:#636363;}
	.st24{fill:none;stroke:#FFFFFF;stroke-width:1;stroke-miterlimit:10.0002;}
	.st25{fill:#363436;}
</style>
<ellipse transform="matrix(0.0067 -1 1 0.0067 -7.8627 70.4976)" class="st0" cx="31.554" cy="39.207" rx="5.406" ry="12.506"/>
<g>
	<polygon class="st1" points="27.875,38.99 33.208,40.524 27.874,42.644 22.543,40.52 	"/>
	<polygon class="st2" points="33.111,44.289 33.208,40.524 27.874,42.644 27.802,46.859 	"/>
	<polygon class="st3" points="22.616,44.288 22.543,40.52 27.866,42.635 27.802,46.859 	"/>
	<polygon class="st4" points="23.136,42.054 22.561,41.768 22.616,44.288 27.802,46.859 27.841,44.693 27.26,44.404 27.256,44.131 
		26.675,43.841 26.671,44.116 26.677,44.119 26.668,44.714 26.038,44.401 26.029,43.862 26.036,43.864 26.035,43.755 25.481,43.479 
		25.478,43.32 24.985,43.075 24.985,43.076 24.382,42.776 24.376,43.266 23.746,42.953 23.739,42.529 23.139,42.23 	"/>
	<g>
		<polygon class="st5" points="27.855,44.11 27.802,46.859 33.111,44.289 33.196,41.144 32.692,41.395 32.689,41.578 32.066,41.888 
			32.059,42.328 31.405,42.653 31.397,42.145 30.771,42.456 30.771,42.455 30.261,42.709 30.257,42.875 29.682,43.16 29.681,43.274 
			29.687,43.272 29.678,43.832 29.025,44.157 29.016,43.539 29.022,43.536 29.017,43.251 28.414,43.551 28.409,43.835 		"/>
	</g>
</g>
<ellipse transform="matrix(0.0071 -1 1 0.0071 -29.4949 45.0238)" class="st0" cx="7.925" cy="37.364" rx="2.9" ry="6.476"/>
<g>
	<polygon class="st1" points="8.011,29.976 14.232,31.756 8.01,34.216 1.789,31.751 	"/>
	<polygon class="st2" points="14.12,36.127 14.232,31.756 8.01,34.216 7.925,39.109 	"/>
	<polygon class="st3" points="1.874,36.123 1.789,31.751 7.999,34.206 7.925,39.109 	"/>
	<polygon class="st4" points="2.481,33.532 1.81,33.2 1.874,36.123 7.925,39.109 7.971,36.594 7.293,36.258 7.288,35.942 
		6.61,35.607 6.605,35.925 6.612,35.928 6.602,36.619 5.868,36.256 5.858,35.63 5.864,35.632 5.862,35.505 5.216,35.186 5.213,35 
		4.64,34.716 4.64,34.718 3.936,34.37 3.928,34.939 3.193,34.575 3.185,34.082 2.484,33.737 	"/>
	<g>
		<polygon class="st5" points="7.987,35.918 7.925,39.109 14.12,36.127 14.219,32.475 13.63,32.766 13.627,32.979 12.9,33.339 
			12.892,33.85 12.128,34.227 12.12,33.637 11.39,33.999 11.39,33.996 10.794,34.292 10.79,34.484 10.119,34.816 10.117,34.948 
			10.125,34.944 10.115,35.596 9.352,35.972 9.341,35.254 9.348,35.252 9.343,34.921 8.639,35.269 8.635,35.598 		"/>
	</g>
</g>
<g>
	<g>
		<path class="st6" d="M26.476,35.513l-7.116,2.211l-0.937,0.119l-0.654-4.027c0,0,0.847-0.346,3.549-0.269s4.773,1.167,4.773,1.167
			L26.476,35.513z"/>
		<path class="st7" d="M16.251,34.513l0.377,4.383c0,0,1.432,0.114,1.937,0.128s0.739-0.009,0.896-0.048s0.277-0.152,0.277-0.152
			l-0.297-3.93c-0.01-0.133-0.12-0.236-0.12-0.236c-0.124,0.23-0.972,0.243-2.207,0.141C16.594,34.756,16.251,34.513,16.251,34.513"
			/>
		<path class="st8" d="M16.251,34.513c0,0-1.25,0.879-1.158,1.738c0.06,0.554,0.476,1.61,1.536,2.646L16.251,34.513z"/>
		<path class="st9" d="M21.698,42.781l-0.073,1.225c0,0-0.406-0.08-1.206-0.346c-0.8-0.266-2.544-0.88-4.047-1.73
			c-1.503-0.85-1.724-1.985-2.181-1.998s-0.344,0.457-0.344,0.457l-0.107-0.022c0,0-0.02-0.984-0.005-1.849
			c0.015-0.865,0.147-2.107,0.147-2.107c-0.114,0.561,0.002,1.284,0.396,1.801c0.394,0.517,1.415,1.538,2.502,2.328
			S21.62,42.779,21.698,42.781"/>
		<path class="st8" d="M14.191,39.932c-0.457-0.013-0.344,0.457-0.344,0.457L14.191,39.932z"/>
		<path class="st7" d="M21.624,44.005c0,0,0,0,0.175,0.005c0.175,0.005,0.721-0.058,0.937-0.11c0.215-0.053,0.222-0.286,0.217-0.792
			s-0.132-0.84-0.132-0.84c0.092,0.217-0.132,0.541-0.501,0.531c-0.369-0.011-0.544-0.016-0.622-0.018L21.624,44.005z"/>
		<path class="st10" d="M26.325,34.43c0,0-1.006-0.553-1.758-0.789s-3.441-0.779-6.688-0.19s-3.882,2.4-3.995,2.961
			c-0.114,0.561,0.002,1.284,0.396,1.801c0.394,0.517,1.415,1.538,2.502,2.328s4.84,2.239,4.918,2.241
			c0.078,0.003,0.253,0.008,0.622,0.018c0.369,0.01,0.592-0.314,0.501-0.531c-0.092-0.217-0.922-0.435-3.803-1.762
			c-1.025-0.472-1.806-1.038-2.391-1.61c-1.06-1.037-1.476-2.093-1.536-2.646c-0.093-0.859,1.158-1.738,1.158-1.738
			s0.343,0.243,0.863,0.286c1.236,0.102,2.084,0.089,2.207-0.141s-1.552-0.842-1.552-0.842s0.847-0.346,3.549-0.269
			s4.773,1.167,4.773,1.167L26.325,34.43z"/>
	</g>
	<g>
		<path class="st7" d="M43.908,43.279l0.01,0.997c0,0-0.104,0.102-0.755,0.017s-0.686-0.381-0.679-0.554s0.22-0.987,0.22-0.987
			s-0.166,0.297,0.388,0.493C43.646,43.441,43.908,43.279,43.908,43.279"/>
		<path class="st9" d="M43.916,44.276c0,0,2.16-0.928,3.37-2.371c1.21-1.443,0.707-4.063,0.707-4.063
			c-0.019,2.294-1.192,3.458-2.192,4.152s-1.893,1.285-1.893,1.285L43.916,44.276z"/>
		<path class="st8" d="M41.634,36.768c0.008,0.032-2.823-0.549-2.823-0.549s-2.641-0.549-2.679-0.551
			c-0.038-0.002,0.29-2.121,0.29-2.121s1.927-0.266,3.46-0.267c1.533-0.001,2.696,0.286,2.696,0.286S41.624,36.733,41.634,36.768z"
			/>
		<path class="st7" d="M44.347,34.03l-0.149,3.566c0,0,0.271,0.228,1.192,0.733c0.921,0.506,0.894,1.303,0.894,1.303
			c0.779-1.526,0.04-4.004-0.522-4.612S44.424,34.012,44.347,34.03"/>
		<path class="st9" d="M44.198,37.597c0,0-2.307,0.185-2.613,0.172s-0.578-0.219-0.578-0.219s0.48-3.223,0.497-3.336
			c0.016-0.113,0.534-0.314,0.534-0.314s-0.68,0.28-0.207,0.414c0.331,0.094,2.439-0.266,2.516-0.284L44.198,37.597z"/>
		<path class="st10" d="M36.422,33.547c0,0,1.927-0.266,3.46-0.267c1.533-0.001,2.696,0.286,2.696,0.286l-0.786,0.487
			c0,0-0.288,0.162,0.04,0.262c0.328,0.101,2.439-0.266,2.516-0.284c0.078-0.019,0.853,0.382,1.415,0.99
			c0.562,0.608,1.301,3.086,0.522,4.612c-0.78,1.527-3.58,3.12-3.58,3.12s-0.166,0.297,0.388,0.493
			c0.554,0.196,0.816,0.034,0.816,0.034s0.893-0.591,1.893-1.285s2.173-1.858,2.192-4.152c0.019-2.295-1.495-3.354-1.495-3.354
			l-0.624-0.351c0,0-1.578-0.759-4.377-1.028s-4.935,0.096-4.935,0.096L36.422,33.547z"/>
	</g>
	<path class="st11" d="M23.818,30.922l0.183-0.189c0,0-0.048-0.41,0.074-0.675c0.122-0.266,0.306-0.209,0.448-0.152
		c0.143,0.057,0.652,1.212,1.262,2.482c0.61,1.269,0.624,2.141,0.624,2.141L23.818,30.922z"/>
	<path d="M36.349,29.825c1.025-0.079,1.929,0.527,2.14,4.266c0.211,3.739-0.547,4.472-1.572,4.551
		c-1.025,0.079-1.983-1.831-2.14-4.266C34.62,31.941,35.323,29.904,36.349,29.825z"/>
	<path d="M25.191,39.152c-1.398-0.048-1.257-0.676-1.503-4.412c-0.244-3.703-0.009-4.236,1.129-4.293
		c0.763-0.038,1.357,1.658,1.505,4.093C26.526,37.908,26.488,39.196,25.191,39.152z"/>
	<path class="st12" d="M24.234,37.681c-0.214,0.012-0.367-0.414-0.473-2.836c-0.105-2.423-0.005-2.867,0.209-2.879
		c0.213-0.012,0.445,1.258,0.518,2.836C24.56,36.38,24.448,37.669,24.234,37.681z"/>
	<path class="st13" d="M34.797,36.811c-1.033-0.103-1.613-0.615-1.211-3.119c0.402-2.504,1.056-2.898,2.09-2.795
		s1.412,1.495,1.433,3.144C37.16,38.063,35.832,36.915,34.797,36.811z"/>
	<path class="st7" d="M24.354,24.249c-1.465,0.304-0.895,1.63-0.651,2.748c0.114,0.525,0.539,1.493,1.041,2.549
		c0.567,1.192,1.233,2.497,1.665,3.401c0.814,1.705,1.241,2.577,1.872,3.373s0.773,0.758,3.744,0.701s3.114-1.023,3.48-1.554
		s1.729-3.638,1.933-5.571c0.204-1.933-0.061-4.093-0.529-5.003c-0.468-0.91-1.262-1.099-3.215-1.319
		C29.588,23.113,25.819,23.945,24.354,24.249z"/>
	<path class="st9" d="M31.678,27.695c-4.967,0-6.934,1.85-6.934,1.85c0.567,1.192,1.233,2.497,1.665,3.401
		c0.814,1.705,1.241,2.577,1.872,3.373s0.773,0.758,3.744,0.701s3.114-1.023,3.48-1.554s1.73-3.638,1.933-5.571
		C37.438,29.895,36.645,27.695,31.678,27.695z"/>
	<g>
		<g>
			<g>
				<path class="st14" d="M33.671,23.515c0.471,0.053,0.873,0.104,1.221,0.164c-0.001-0.116-0.005-0.216-0.016-0.266
					c-0.027-0.124-0.034-0.332-0.344-0.456c-0.109-0.044-0.255-0.077-0.452-0.093c-0.759-0.061-4.159,0.092-5.118,0.107
					c-0.958,0.015-2.622,0-3.002,0.137c-0.38,0.137-0.688,0.396-0.76,0.594c-0.033,0.091-0.055,0.211-0.069,0.323
					C26.924,23.667,30.175,23.122,33.671,23.515z"/>
			</g>
			<g>
				<path class="st15" d="M25.071,24.036c0.02-0.004,0.039-0.008,0.059-0.012c0.014-0.112,0.036-0.232,0.069-0.323
					c0.073-0.198,0.38-0.457,0.76-0.594c0.38-0.137,2.043-0.122,3.002-0.137c0.958-0.016,4.358-0.168,5.118-0.107
					c0.197,0.016,0.343,0.049,0.452,0.093c0,0-0.027-0.1-0.163-0.199c-0.135-0.099-0.208-0.183-0.515-0.236s-2.966,0-2.966,0
					s-4.422,0.107-4.928,0.198c-0.506,0.092-0.823,0.571-0.886,0.777C25.038,23.608,25.052,23.844,25.071,24.036z"/>
			</g>
			<path class="st14" d="M35.46,27.012c0,0,0,0-0.122-0.227c-0.122-0.227-0.712-0.322-1.709-0.341
				c-0.997-0.018-4.436,0.152-5.453,0.2s-1.119,0.691-1.119,0.691s-0.244,0.058-0.61,0.152s-0.692,0.208-0.692,0.208
				s0-0.151,0-0.265s0.02-0.531,0.102-0.777s0.427-0.568,0.855-0.739s2.3-0.152,3.378-0.171c1.078-0.019,4.903-0.209,5.758-0.133
				c0.221,0.019,0.386,0.061,0.508,0.115c0.349,0.154,0.357,0.413,0.387,0.567c0.041,0.208,0,1.137,0,1.137
				C36.133,27.126,35.46,27.012,35.46,27.012z"/>
			<path class="st15" d="M36.173,25.479c-0.153-0.123-0.234-0.228-0.58-0.294c-0.346-0.066-3.337,0-3.337,0
				s-4.975,0.132-5.545,0.246c-0.57,0.113-0.926,0.71-0.997,0.966s0.041,1.033,0.041,1.033c0-0.114,0.02-0.531,0.102-0.777
				s0.427-0.568,0.855-0.739s2.3-0.152,3.378-0.171c1.078-0.019,4.903-0.209,5.758-0.133c0.221,0.019,0.386,0.061,0.508,0.115
				C36.356,25.725,36.326,25.601,36.173,25.479z"/>
			<g>
				<path class="st16" d="M35.591,25.184c0.03,0.006,0.058,0.012,0.084,0.018c-0.331-0.493-1.468-2.192-1.477-2.216l-8.271,0.313
					l0.639,2.172c0.047-0.017,0.095-0.031,0.145-0.041c0.57-0.113,5.545-0.246,5.545-0.246S35.247,25.118,35.591,25.184z"/>
			</g>
			<g>
				<path class="st17" d="M26.237,25.656c0.098-0.077,0.208-0.142,0.33-0.186l-0.639-2.172l-0.237,0.36L26.237,25.656z"/>
			</g>
			<path class="st18" d="M27.026,25.04l-0.443-1.448c-0.039-0.066-0.008-0.122,0.068-0.125l6.948-0.297
				c0.076-0.003,0.171,0.048,0.21,0.113l0.867,1.448c0.039,0.066,0.008,0.122-0.068,0.125l-7.372,0.297
				C27.16,25.156,27.065,25.106,27.026,25.04z"/>
			<path class="st19" d="M29.469,23.955l0.176,0.244c0.011,0.016,0.042,0.029,0.068,0.028l2.324-0.027l0.138,0.19
				c0.011,0.016,0.042,0.029,0.068,0.028l1.036-0.022c0.026,0,0.038-0.014,0.026-0.03l-0.176-0.244
				c-0.011-0.016-0.042-0.029-0.068-0.028l-1.006,0.021l-0.108-0.149l1.015-0.021c0.026,0,0.038-0.014,0.026-0.03l-0.176-0.244
				c-0.011-0.016-0.042-0.029-0.068-0.028l-1.036,0.022c-0.026,0-0.038,0.014-0.026,0.03l0.147,0.203l-2.333,0.027
				C29.47,23.926,29.458,23.94,29.469,23.955z"/>
		</g>
		<g>
			<g>
				
					<ellipse transform="matrix(0.9995 -0.03 0.03 0.9995 -0.7461 1.0478)" class="st20" cx="34.544" cy="25.386" rx="0.433" ry="0.1"/>
				<path class="st14" d="M34.973,25.375c0-0.055-0.193-0.095-0.432-0.088c-0.238,0.006-0.432,0.057-0.432,0.112
					c0,0.014,0.012,0.026,0.032,0.037c0.065-0.039,0.219-0.069,0.401-0.074c0.182-0.005,0.337,0.016,0.401,0.051
					C34.963,25.401,34.975,25.388,34.973,25.375z"/>
			</g>
			<g>
				
					<ellipse transform="matrix(0.9995 -0.03 0.03 0.9995 -0.7478 1.0083)" class="st20" cx="33.227" cy="25.424" rx="0.433" ry="0.1"/>
				<path class="st14" d="M33.656,25.412c0-0.055-0.193-0.095-0.432-0.088c-0.238,0.006-0.432,0.057-0.432,0.112
					c0,0.014,0.012,0.026,0.032,0.037c0.065-0.039,0.22-0.069,0.401-0.074c0.182-0.005,0.337,0.016,0.401,0.051
					C33.646,25.438,33.658,25.425,33.656,25.412z"/>
			</g>
			<g>
				
					<ellipse transform="matrix(0.9995 -0.03 0.03 0.9995 -0.7495 0.9688)" class="st20" cx="31.911" cy="25.461" rx="0.433" ry="0.1"/>
				<path class="st14" d="M32.339,25.45c0-0.055-0.194-0.094-0.432-0.088s-0.432,0.057-0.432,0.112c0,0.014,0.012,0.026,0.032,0.037
					c0.065-0.039,0.22-0.069,0.401-0.074c0.182-0.005,0.337,0.016,0.401,0.051C32.329,25.475,32.341,25.462,32.339,25.45z"/>
			</g>
			<g>
				
					<ellipse transform="matrix(0.9995 -0.03 0.03 0.9995 -0.7512 0.9293)" class="st20" cx="30.593" cy="25.499" rx="0.433" ry="0.1"/>
				<path class="st14" d="M31.022,25.487c0-0.055-0.193-0.095-0.432-0.088c-0.238,0.006-0.432,0.057-0.432,0.112
					c0,0.014,0.012,0.026,0.032,0.037c0.065-0.039,0.22-0.069,0.401-0.074c0.182-0.005,0.337,0.016,0.401,0.051
					C31.012,25.513,31.023,25.5,31.022,25.487z"/>
			</g>
			<g>
				
					<ellipse transform="matrix(0.9995 -0.03 0.03 0.9995 -0.753 0.8898)" class="st20" cx="29.277" cy="25.537" rx="0.433" ry="0.1"/>
				<path class="st14" d="M29.704,25.525c0-0.055-0.193-0.095-0.432-0.088c-0.238,0.006-0.432,0.057-0.432,0.112
					c0,0.014,0.012,0.026,0.032,0.037c0.065-0.039,0.22-0.069,0.401-0.074c0.182-0.005,0.337,0.016,0.401,0.051
					C29.695,25.55,29.706,25.537,29.704,25.525z"/>
			</g>
			<g>
				
					<ellipse transform="matrix(0.9995 -0.03 0.03 0.9995 -0.7547 0.8503)" class="st20" cx="27.959" cy="25.575" rx="0.433" ry="0.1"/>
				<path class="st14" d="M28.387,25.562c0-0.055-0.194-0.094-0.432-0.088s-0.432,0.057-0.432,0.112
					c0,0.014,0.012,0.026,0.032,0.037c0.065-0.039,0.22-0.069,0.401-0.074c0.182-0.005,0.337,0.016,0.401,0.051
					C28.378,25.588,28.389,25.575,28.387,25.562z"/>
			</g>
		</g>
		<g>
			<g>
				
					<ellipse transform="matrix(0.9995 -0.03 0.03 0.9995 -0.6655 0.9975)" class="st20" cx="32.909" cy="22.675" rx="0.404" ry="0.093"/>
				<path class="st14" d="M33.311,22.664c0-0.052-0.181-0.088-0.404-0.082c-0.223,0.006-0.404,0.053-0.404,0.105
					c0,0.012,0.011,0.024,0.03,0.034c0.06-0.036,0.205-0.064,0.374-0.069c0.169-0.005,0.314,0.016,0.374,0.048
					C33.3,22.688,33.311,22.676,33.311,22.664z"/>
			</g>
			<g>
				
					<ellipse transform="matrix(0.9995 -0.03 0.03 0.9995 -0.6671 0.9607)" class="st20" cx="31.68" cy="22.71" rx="0.404" ry="0.093"/>
				<path class="st14" d="M32.082,22.699c0-0.052-0.181-0.088-0.404-0.082c-0.223,0.006-0.404,0.053-0.404,0.105
					c0,0.012,0.011,0.024,0.03,0.034c0.06-0.036,0.205-0.064,0.374-0.069s0.314,0.016,0.374,0.048
					C32.071,22.723,32.082,22.711,32.082,22.699z"/>
			</g>
			<g>
				
					<ellipse transform="matrix(0.9995 -0.03 0.03 0.9995 -0.6687 0.9238)" class="st20" cx="30.451" cy="22.746" rx="0.404" ry="0.093"/>
				<path class="st14" d="M30.853,22.734c0-0.052-0.181-0.088-0.404-0.082c-0.223,0.006-0.404,0.053-0.404,0.105
					c0,0.012,0.011,0.024,0.03,0.034c0.06-0.036,0.205-0.064,0.374-0.069s0.314,0.016,0.374,0.048
					C30.842,22.758,30.852,22.746,30.853,22.734z"/>
			</g>
			<g>
				
					<ellipse transform="matrix(0.9995 -0.03 0.03 0.9995 -0.6703 0.8869)" class="st20" cx="29.222" cy="22.781" rx="0.404" ry="0.093"/>
				<path class="st14" d="M29.623,22.768c0-0.052-0.181-0.088-0.404-0.082c-0.223,0.006-0.404,0.053-0.404,0.105
					c0,0.012,0.011,0.024,0.03,0.034c0.06-0.036,0.205-0.064,0.374-0.069s0.314,0.016,0.374,0.048
					C29.612,22.793,29.623,22.781,29.623,22.768z"/>
			</g>
			<g>
				
					<ellipse transform="matrix(0.9995 -0.03 0.03 0.9995 -0.6719 0.8501)" class="st20" cx="27.992" cy="22.815" rx="0.404" ry="0.093"/>
				<path class="st14" d="M28.394,22.803c0-0.052-0.181-0.088-0.404-0.082s-0.404,0.053-0.404,0.105c0,0.012,0.011,0.024,0.03,0.034
					c0.06-0.036,0.205-0.064,0.374-0.069s0.314,0.016,0.374,0.048C28.383,22.828,28.394,22.816,28.394,22.803z"/>
			</g>
			<g>
				
					<ellipse transform="matrix(0.9995 -0.03 0.03 0.9995 -0.6735 0.8132)" class="st20" cx="26.763" cy="22.85" rx="0.404" ry="0.093"/>
				<path class="st14" d="M27.165,22.838c0-0.052-0.181-0.088-0.404-0.082c-0.223,0.006-0.404,0.053-0.404,0.105
					c0,0.012,0.011,0.024,0.03,0.034c0.06-0.036,0.205-0.064,0.374-0.069s0.314,0.016,0.374,0.048
					C27.154,22.863,27.165,22.851,27.165,22.838z"/>
			</g>
		</g>
	</g>
	<path class="st21" d="M35.515,33.416c-0.398,0.361-1.694,0.412-3.342,0.497c-1.648,0.085-3.907,0.043-4.075,0
		s-0.549-0.298-0.824-1.043s-0.229-1.927-0.061-2.147s1.251-0.378,4.045-0.481c2.793-0.103,3.662,0,4.026,0
		c0.364,0,0.536,0.018,0.704,0.16s0.122,0.597,0.122,0.597S36.116,32.869,35.515,33.416z"/>
	<g>
		<path class="st12" d="M32.562,31.796c0,0.684,0.609,1.238,1.361,1.238s1.361-0.554,1.361-1.238c0-0.684-0.609-1.238-1.361-1.238
			C33.172,30.558,32.562,31.112,32.562,31.796z M32.743,31.796c0-0.592,0.528-1.073,1.18-1.073s1.18,0.481,1.18,1.073
			s-0.528,1.073-1.18,1.073S32.743,32.388,32.743,31.796z"/>
		<ellipse class="st22" cx="33.923" cy="31.796" rx="1.18" ry="1.073"/>
		<g>
			<path class="st23" d="M32.743,31.796c0,0.592,0.528,1.073,1.18,1.073c0.652,0,1.18-0.48,1.18-1.073
				c0-0.435-0.285-0.809-0.694-0.978c0.115,0.131,0.185,0.298,0.185,0.479c0,0.424-0.377,0.767-0.843,0.767
				c-0.465,0-0.843-0.343-0.843-0.767c0-0.018,0.002-0.036,0.003-0.053C32.804,31.406,32.743,31.594,32.743,31.796z"/>
		</g>
		<path d="M32.908,31.296c0,0.424,0.377,0.767,0.843,0.767c0.465,0,0.843-0.343,0.843-0.767c0-0.181-0.069-0.348-0.185-0.479
			c-0.148-0.061-0.313-0.095-0.486-0.095c-0.43,0-0.806,0.209-1.012,0.522C32.91,31.262,32.908,31.279,32.908,31.296z"/>
		<path class="st12" d="M27.875,31.712c-0.184,0.671,0.284,1.333,1.046,1.478c0.761,0.145,1.528-0.281,1.712-0.952
			c0.184-0.671-0.284-1.333-1.046-1.478S28.059,31.041,27.875,31.712z M28.058,31.747c0.16-0.582,0.825-0.952,1.485-0.826
			c0.661,0.126,1.067,0.7,0.907,1.282s-0.825,0.952-1.485,0.826C28.304,32.903,27.898,32.329,28.058,31.747z"/>
		
			<ellipse transform="matrix(0.996 -0.0896 0.0896 0.996 -2.7474 2.7495)" class="st24" cx="29.252" cy="31.977" rx="1.231" ry="1.077"/>
		<g>
			<path class="st23" d="M28.058,31.747c-0.159,0.582,0.247,1.156,0.907,1.282c0.661,0.126,1.325-0.244,1.485-0.826
				c0.117-0.427-0.071-0.849-0.44-1.094c0.082,0.151,0.108,0.328,0.059,0.506c-0.114,0.416-0.589,0.68-1.061,0.59
				s-0.762-0.5-0.648-0.916c0.005-0.017,0.011-0.034,0.017-0.051C28.225,31.376,28.112,31.549,28.058,31.747z"/>
		</g>
		<path d="M28.36,31.29c-0.114,0.416,0.176,0.826,0.648,0.916s0.947-0.174,1.061-0.59c0.049-0.178,0.023-0.355-0.059-0.506
			c-0.134-0.089-0.291-0.154-0.467-0.188c-0.435-0.084-0.873,0.049-1.166,0.316C28.371,31.255,28.364,31.272,28.36,31.29z"/>
	</g>
	<path class="st14" d="M27.078,37.391L27.078,37.391c0,0,0.738,0.174,1.798,0.31c0.918,0.12,2.078,0.213,3.203,0.143
		c2.421-0.151,3.604-0.455,3.95-0.799c0.568-0.566,0.665-2.954,0.807-3.579c0.142-0.625,0.267-1.961,0.267-1.961
		c-0.487,1.715-1.322,3.562-1.597,3.96c-0.367,0.531-0.509,1.497-3.48,1.554c-2.971,0.057-3.113,0.095-3.744-0.701
		c-0.315-0.398-0.58-0.814-0.867-1.345c-0.288-0.531-0.598-1.175-1.005-2.028c-0.432-0.904-1.098-2.209-1.665-3.401l-1.279-3.297
		l0.353,4.674l0.183-0.189c0,0-0.048-0.41,0.074-0.675c0.122-0.266,0.306-0.209,0.448-0.152c0.143,0.057,0.652,1.212,1.262,2.482
		c0.61,1.269,0.624,2.141,0.624,2.141v2.029L27.078,37.391L27.078,37.391 M27.053,35.787L27.053,35.787L27.053,35.787z"/>
	<path class="st25" d="M33.433,31.104c0,0.184,0.164,0.333,0.366,0.333s0.366-0.149,0.366-0.333s-0.164-0.333-0.366-0.333
		C33.597,30.771,33.434,30.92,33.433,31.104z M33.482,31.104c0-0.159,0.142-0.288,0.317-0.288s0.317,0.129,0.317,0.288
		s-0.142,0.288-0.317,0.288C33.624,31.392,33.482,31.263,33.482,31.104z"/>
	<path class="st25" d="M28.888,31.276c0,0.184,0.164,0.333,0.366,0.333s0.366-0.149,0.366-0.333s-0.164-0.333-0.366-0.333
		C29.052,30.943,28.888,31.092,28.888,31.276z M28.937,31.276c0-0.159,0.142-0.288,0.317-0.288s0.317,0.129,0.317,0.288
		s-0.142,0.288-0.317,0.288C29.079,31.564,28.937,31.435,28.937,31.276z"/>
	<path class="st23" d="M27.078,37.391c0,0,0.738,0.174,1.796,0.312c0.918,0.12,2.078,0.213,3.203,0.143
		c2.421-0.151,3.604-0.455,3.95-0.799c0,0-3.309,0.564-5.403,0.507S27.078,37.391,27.078,37.391z"/>
</g>
<g>
	<polygon class="st1" points="8.012,25.474 14.218,26.909 8.01,28.89 1.804,26.903 	"/>
	<polygon class="st2" points="14.106,31.53 14.218,26.909 8.01,28.89 7.926,33.932 	"/>
	<polygon class="st3" points="1.888,31.525 1.804,26.903 8,28.881 7.926,33.932 	"/>
	<polygon class="st4" points="2.494,28.337 1.825,28.069 1.888,31.525 7.926,33.932 7.971,30.805 7.294,30.535 7.29,30.28 
		6.613,30.009 6.608,30.266 6.616,30.269 6.605,30.825 5.872,30.532 5.862,30.028 5.869,30.03 5.868,29.928 5.223,29.671 
		5.22,29.521 4.647,29.292 4.647,29.293 3.945,29.012 3.936,29.47 3.205,29.177 3.196,28.781 2.497,28.502 	"/>
	<g>
		<polygon class="st5" points="7.986,30.261 7.926,33.932 14.106,31.53 14.205,27.489 13.617,27.722 13.614,27.894 12.889,28.183 
			12.88,28.595 12.12,28.899 12.111,28.424 11.383,28.715 11.383,28.713 10.788,28.95 10.783,29.106 10.115,29.373 10.112,29.479 
			10.121,29.477 10.109,30 9.349,30.305 9.338,29.726 9.345,29.724 9.341,29.458 8.638,29.738 8.633,30.003 		"/>
	</g>
</g>
</svg>
