<?xml version="1.0" encoding="utf-8"?>
<!-- Generator: Adobe Illustrator 25.4.1, SVG Export Plug-In . SVG Version: 6.00 Build 0)  -->
<svg version="1.1" id="Layer_1" xmlns="http://www.w3.org/2000/svg" xmlns:xlink="http://www.w3.org/1999/xlink" x="0px" y="0px"
	 viewBox="0 0 50 50" style="enable-background:new 0 0 50 50;" xml:space="preserve">
<style type="text/css">
	.st0{opacity:0.5;fill:#C0C7CA;}
	.st1{fill:#E46C38;}
	.st2{fill:#AA5025;}
	.st3{fill:#231F20;}
	.st4{fill:#B99C7C;}
	.st5{fill:#E68338;}
	.st6{fill:#A1886C;}
	.st7{fill:#FFFFFF;}
	.st8{fill:#A84F24;}
	.st9{fill:#D56532;}
	.st10{fill:#C0AE9A;}
	.st11{fill:none;stroke:#A1886C;stroke-miterlimit:10;}
	.st12{fill:#5D4F3D;}
	.st13{fill:#947E64;}
	.st14{fill:#C4C4C4;}
	.st15{fill:#DFDFDF;}
	.st16{fill:#FFFFC6;}
	.st17{fill:#9E836F;}
	.st18{fill:#C1AFA3;}
	.st19{fill:#8BADD0;}
	.st20{fill:#D5C8C0;}
	.st21{fill:#C2D4E6;}
</style>
<path class="st0" d="M48.445,29.366c0.007-0.006,0.013-0.012,0.019-0.018c0.007-0.006,0.013-0.013,0.019-0.02
	c0.002-0.002,0.004-0.005,0.006-0.007c0.001-0.001,0.002-0.003,0.004-0.004c0.002-0.003,0.005-0.006,0.007-0.008
	c0.005-0.007,0.011-0.013,0.016-0.02c0.004-0.005,0.008-0.011,0.011-0.016c0.001-0.001,0.001-0.002,0.002-0.002
	c0-0.001,0.001-0.001,0.001-0.002c0.005-0.007,0.009-0.014,0.013-0.021c0.004-0.007,0.008-0.015,0.011-0.022
	c0-0.001,0.001-0.001,0.001-0.002c0-0.001,0.001-0.002,0.001-0.003c0.003-0.006,0.005-0.012,0.008-0.018
	c0.003-0.008,0.006-0.016,0.008-0.024c0-0.001,0.001-0.003,0.001-0.004c0-0.002,0.001-0.003,0.001-0.005
	c0.001-0.005,0.003-0.01,0.004-0.015c0.002-0.009,0.003-0.017,0.004-0.026c0-0.001,0-0.002,0-0.004c0-0.002,0-0.004,0-0.005
	c0-0.006,0.001-0.013,0.001-0.019c0-0.008-0.001-0.015-0.002-0.023c0-0.002,0-0.004,0-0.006c0-0.001,0-0.002,0-0.002
	c-0.002-0.012-0.004-0.025-0.007-0.037c0-0.001-0.001-0.003-0.001-0.004c-0.002-0.006-0.004-0.011-0.006-0.017
	c-0.003-0.01-0.007-0.019-0.011-0.028c-0.003-0.006-0.006-0.012-0.01-0.018c-0.003-0.006-0.006-0.012-0.009-0.018
	c-0.002-0.003-0.004-0.006-0.006-0.009c-0.001-0.001-0.002-0.003-0.003-0.004c-0.003-0.004-0.006-0.008-0.009-0.012
	c-0.007-0.01-0.015-0.02-0.024-0.03c-0.004-0.004-0.008-0.009-0.012-0.013c-0.003-0.004-0.006-0.007-0.01-0.011
	c-0.005-0.005-0.012-0.01-0.017-0.015c-0.005-0.005-0.011-0.01-0.016-0.015c-0.002-0.002-0.004-0.004-0.007-0.006
	c-0.012-0.01-0.025-0.019-0.038-0.029c0,0-0.001,0-0.001-0.001c-0.001-0.001-0.002-0.001-0.003-0.002
	c-0.011-0.007-0.022-0.015-0.033-0.022c-0.006-0.004-0.013-0.008-0.02-0.011c-0.003-0.002-0.006-0.004-0.009-0.005
	c-0.002-0.001-0.005-0.003-0.007-0.004c-0.012-0.006-0.024-0.013-0.036-0.019c-0.005-0.003-0.011-0.005-0.016-0.008
	c-0.003-0.001-0.005-0.003-0.008-0.004c-0.003-0.002-0.007-0.003-0.01-0.005c-0.011-0.005-0.023-0.01-0.035-0.015
	c-0.007-0.003-0.015-0.006-0.023-0.009c-0.002-0.001-0.004-0.002-0.006-0.002c-0.002-0.001-0.004-0.002-0.006-0.002
	c-0.012-0.004-0.023-0.008-0.035-0.012c-0.012-0.004-0.024-0.008-0.036-0.011c-0.001,0-0.002-0.001-0.003-0.001l-17.849-5.018
	c-0.011-0.003-0.022-0.006-0.033-0.009c-0.012-0.003-0.024-0.006-0.037-0.009c-0.002,0-0.004-0.001-0.006-0.001
	c-0.002,0-0.004-0.001-0.006-0.001c-0.008-0.002-0.017-0.004-0.025-0.006c-0.013-0.003-0.025-0.005-0.038-0.007
	c-0.003-0.001-0.006-0.001-0.01-0.002c-0.003-0.001-0.006-0.001-0.009-0.002c-0.007-0.001-0.014-0.002-0.021-0.004
	c-0.013-0.002-0.027-0.004-0.04-0.006c-0.004-0.001-0.008-0.001-0.011-0.001c-0.003,0-0.007-0.001-0.01-0.001
	c-0.007-0.001-0.014-0.002-0.021-0.003c-0.015-0.002-0.03-0.003-0.045-0.004c-0.003,0-0.005,0-0.008-0.001
	c-0.004,0-0.007,0-0.011-0.001c-0.009-0.001-0.019-0.001-0.028-0.002c-0.014-0.001-0.028-0.001-0.042-0.002
	c-0.002,0-0.005,0-0.007,0c-0.001,0-0.002,0-0.003,0c-0.019-0.001-0.039-0.001-0.058-0.001c-0.004,0-0.008,0-0.012,0
	c-0.009,0-0.017,0-0.026,0.001c-0.01,0-0.019,0-0.029,0.001c-0.006,0-0.012,0.001-0.018,0.001c-0.015,0.001-0.03,0.002-0.046,0.003
	c-0.008,0.001-0.015,0.001-0.023,0.001c-0.011,0.001-0.022,0.002-0.033,0.003l-0.898,0.094c0.001,0,0.003,0,0.004,0
	c-0.277,0.028-0.533,0.118-0.687,0.257l-14.775,9.423c-0.276,0.248-0.124,0.559,0.34,0.695l17.819,5.015
	c0.211,0.062,0.45,0.076,0.673,0.051c-0.006,0.001-0.011,0.001-0.017,0.002l0.898-0.094c0.027-0.003,0.054-0.006,0.081-0.011
	c0.004-0.001,0.008-0.001,0.012-0.002c0.025-0.004,0.051-0.009,0.075-0.014c0.005-0.001,0.009-0.002,0.014-0.003
	c0.025-0.005,0.049-0.011,0.073-0.017c0.003-0.001,0.007-0.002,0.01-0.003c0.024-0.007,0.048-0.013,0.071-0.021
	c0.001,0,0.002-0.001,0.003-0.001c0,0,0.001,0,0.001,0c0.022-0.007,0.043-0.015,0.064-0.023c0.002-0.001,0.005-0.002,0.007-0.003
	c0.002-0.001,0.005-0.002,0.007-0.003c0.012-0.005,0.024-0.01,0.036-0.015c0.003-0.001,0.007-0.003,0.01-0.004
	c0.001,0,0.002-0.001,0.003-0.001c0.009-0.004,0.018-0.009,0.027-0.013c0.004-0.002,0.009-0.004,0.013-0.006
	c0.001,0,0.001-0.001,0.002-0.001c0.006-0.003,0.012-0.006,0.017-0.009c0.006-0.003,0.012-0.006,0.018-0.01
	c0.001,0,0.001-0.001,0.002-0.001c0.004-0.002,0.008-0.005,0.012-0.007c0.006-0.004,0.013-0.007,0.019-0.011
	c0.001-0.001,0.003-0.002,0.004-0.003c0.004-0.002,0.008-0.005,0.012-0.008c0.004-0.003,0.009-0.006,0.013-0.009
	c0.003-0.002,0.005-0.004,0.008-0.005c0.004-0.003,0.007-0.005,0.011-0.008c0.003-0.002,0.006-0.004,0.008-0.006
	c0.004-0.003,0.008-0.006,0.012-0.01c0.003-0.002,0.006-0.004,0.008-0.007c0.001-0.001,0.002-0.002,0.004-0.003
	c0.008-0.006,0.015-0.013,0.023-0.019l0,0c0,0,0.001-0.001,0.001-0.001L48.445,29.366z M28.949,23.686
	C28.949,23.686,28.949,23.686,28.949,23.686c0.003,0,0.006,0,0.008,0c0,0,0.001,0,0.001,0
	C28.955,23.686,28.952,23.686,28.949,23.686z M29.109,23.697c0.001,0,0.002,0,0.003,0c0.003,0,0.007,0.001,0.01,0.001c0,0,0,0,0,0
	C29.118,23.699,29.114,23.698,29.109,23.697z M29.193,23.71c0.001,0,0.001,0,0.002,0c0.003,0.001,0.006,0.001,0.009,0.002
	c0.002,0,0.004,0.001,0.006,0.001C29.204,23.711,29.198,23.711,29.193,23.71z M29.277,23.726c0.002,0,0.003,0.001,0.005,0.001
	c0.004,0.001,0.009,0.002,0.013,0.003C29.29,23.729,29.283,23.728,29.277,23.726z M32.401,39.066c-0.001,0-0.003,0.001-0.004,0.001
	c0,0,0,0-0.001,0C32.398,39.067,32.4,39.066,32.401,39.066C32.401,39.066,32.401,39.066,32.401,39.066z M32.529,39.016
	c-0.001,0-0.001,0.001-0.002,0.001c0.003-0.001,0.005-0.002,0.008-0.004C32.533,39.014,32.531,39.015,32.529,39.016z M32.57,38.996
	c-0.002,0.001-0.004,0.002-0.005,0.003c0.005-0.002,0.009-0.005,0.014-0.007C32.576,38.993,32.573,38.995,32.57,38.996z
	 M32.609,38.976c-0.002,0.001-0.004,0.002-0.006,0.003c0.005-0.003,0.009-0.005,0.014-0.008
	C32.614,38.973,32.611,38.974,32.609,38.976z M32.643,38.955c-0.002,0.001-0.004,0.002-0.006,0.003
	c0.004-0.002,0.008-0.005,0.011-0.007C32.647,38.953,32.645,38.954,32.643,38.955z M32.676,38.933
	c-0.001,0.001-0.003,0.002-0.004,0.003c0.003-0.002,0.005-0.004,0.008-0.006C32.678,38.932,32.677,38.933,32.676,38.933z
	 M32.708,38.91c-0.001,0.001-0.002,0.001-0.003,0.002c0.002-0.001,0.004-0.003,0.006-0.004C32.71,38.909,32.709,38.909,32.708,38.91
	z M47.547,29.46C47.548,29.459,47.548,29.459,47.547,29.46C47.548,29.459,47.548,29.459,47.547,29.46L47.547,29.46z"/>
<g>
	<g>
		<g>
			<g>
				<path class="st1" d="M19.766,28.542c0.097-0.606,0.136-1.181,0.125-1.688c-0.002,0.61-0.073,1.361-0.236,2.284
					C19.697,28.943,19.734,28.744,19.766,28.542z"/>
				<path class="st2" d="M18.514,24.397c-0.831,0.041-1.564,1.564-2.001,3.822c-0.437,2.258-0.263,4.515,0.919,4.455
					c0.831-0.042,1.823-1.272,2.224-3.535c0-0.001,0-0.001,0-0.002c-0.363,1.719-1.037,3.052-1.598,3.082
					c-0.624,0.034-0.994-1.685-0.675-3.683c0.319-1.997,1.144-3.593,1.768-3.627c0.435-0.024,0.718,0.779,0.741,1.944
					C19.899,24.832,19.152,24.366,18.514,24.397z"/>
			</g>
			<g>
				<path class="st1" d="M15.571,28.036c0.274-2.081,1.041-3.366,1.884-3.776c-0.001,0-0.003,0-0.004,0
					c-1.011,0.045-2.18,1.393-2.503,3.844c-0.263,1.996,0.031,3.9,1.011,4.38C15.301,31.737,15.329,29.875,15.571,28.036z"/>
			</g>
			<g>
				<path class="st3" d="M16.513,28.219c0.437-2.258,1.17-3.781,2.001-3.822c0.122-0.006,0.249,0.006,0.373,0.044
					c-0.283-0.236-0.598-0.337-0.893-0.324c-1.038,0.046-2.091,1.4-2.423,3.918c-0.317,2.407-0.267,4.855,1.209,4.787
					c0.188-0.009,0.384-0.058,0.581-0.148C16.243,32.643,16.085,30.432,16.513,28.219z"/>
			</g>
			<path class="st4" d="M19.766,28.542c-0.319,1.997-1.084,3.644-1.708,3.678c-0.624,0.034-0.994-1.685-0.675-3.683
				s1.144-3.593,1.768-3.627C19.775,24.876,20.085,26.544,19.766,28.542z"/>
		</g>
		<path class="st5" d="M13.975,28.106c0,0,9.431,2.442,12.948,3.282c3.517,0.84,5.712,0.795,7.101,0.571
			c1.389-0.224,3.315-2.106,3.315-2.106v5.13c0,0-1.366,1.187-1.792,1.546c-0.426,0.358-0.874,0.806-2.397,1.008s-2.643,0-2.643,0
			l-4.13-1.136l-9.311-2.561c0,0-1.837-0.605-2.621-0.851s-0.986-0.627-0.986-0.627s-0.1-4.436-0.1-4.861
			C13.36,27.502,13.455,27.972,13.975,28.106z"/>
		<path class="st1" d="M37.34,34.984v-5.13c0.202,0,1.882-0.582,2.599-1.053c0.717-0.47,2.688-2.061,2.957-2.464
			c0.269-0.403,0.291-0.874,0.291-0.874v5.914c0,0-2.195,1.658-3.181,2.218C39.02,34.155,37.34,34.984,37.34,34.984z"/>
		<path class="st2" d="M43.187,31.377v-5.914l1.12-0.889c0,0,0.105-0.037,0.149-0.157c0.045-0.119,0-0.217,0-0.217v6.511
			L43.187,31.377z"/>
		<g>
			<path class="st2" d="M44.456,24.418c-0.045,0.119-0.149,0.157-0.149,0.157l-1.12,0.889c0,0-0.022,0.47-0.291,0.874
				c-0.269,0.403-2.24,1.994-2.957,2.464s-2.397,1.053-2.599,1.053c0,0-1.927,1.882-3.315,2.106
				c-1.389,0.224-3.584,0.269-7.101-0.571c-3.517-0.84-12.948-3.282-12.948-3.282c-0.52-0.134-0.615-0.605-0.615-0.605
				s-0.191-0.314,0.571-0.661s0.93-0.392,0.93-0.392l2.632-0.986l0.594-0.448l0.235,0.168l-0.694,0.325l-3.573,1.411
				c0,0-0.504,0.291-0.224,0.582c0.28,0.291,0.638,0.449,1.826,0.757c1.187,0.307,13.508,3.074,13.508,3.074
				s1.698,0.525,3.842,0.358c2.144-0.166,3.954-2.128,3.954-2.128s2.195-0.605,3.45-1.568s2.151-1.613,2.33-2.106
				c0.179-0.493,0.146-0.683,0.146-0.683l1.221-0.896c0,0,0.101-0.269-0.011-0.381c-0.112-0.112-0.263-0.246-0.263-0.246
				S44.527,23.809,44.456,24.418"/>
			<path class="st2" d="M44.456,24.201v0.217C44.501,24.298,44.456,24.201,44.456,24.201z"/>
		</g>
		<g>
			<path class="st6" d="M18.321,25.183l-0.694,0.325l-3.573,1.411c0,0-0.504,0.291-0.224,0.582c0.28,0.291,0.638,0.449,1.826,0.757
				c1.187,0.307,13.508,3.074,13.508,3.074s1.698,0.525,3.842,0.358c2.144-0.166,3.954-2.128,3.954-2.128s2.195-0.605,3.45-1.568
				s2.151-1.613,2.33-2.106c0.179-0.493,0.146-0.683,0.146-0.683l1.221-0.896c0,0,0.101-0.269-0.011-0.381
				c-0.112-0.112-0.263-0.246-0.263-0.246l-15.534-2.386L18.321,25.183z"/>
		</g>
		<path class="st7" d="M26.377,36.402l-0.216-3.3c0,0-0.146-0.762-0.885-0.93c-0.739-0.168-7.236-1.781-7.236-1.781
			s-0.762-0.168-0.762,0.459s-0.123,3.17-0.123,3.17s0.314,0.146,0.683,0.235c0.37,0.09,0.37,0.134,0.437,0.168
			c0.067,0.034,0.246,0.885,1.075,0.829s0.739-0.258,0.739-0.258l7.751,2.184c0,0,0.168,0.638,0.638,0.784
			c0.47,0.146,1.086-0.011,1.333-0.157c0.246-0.146,0.276-0.384,0.276-0.384L26.377,36.402z"/>
		<g>
			<g>
				<path class="st1" d="M45.393,31.613c0.143-0.735,0.226-1.437,0.254-2.058c-0.049,0.747-0.177,1.662-0.41,2.781
					C45.293,32.1,45.345,31.859,45.393,31.613z"/>
				<path class="st1" d="M44.461,26.462c-0.833-0.002-1.681,1.817-2.29,4.554c-0.609,2.737-0.609,5.511,0.576,5.511
					c0.833,0,1.917-1.444,2.49-4.188c0-0.001,0-0.002,0.001-0.003c-0.494,2.082-1.269,3.671-1.831,3.673
					c-0.626,0.003-0.863-2.125-0.392-4.55c0.472-2.425,1.417-4.327,2.042-4.329c0.436-0.002,0.656,0.999,0.591,2.426
					C45.809,27.081,45.1,26.463,44.461,26.462z"/>
			</g>
			<g>
				<path class="st2" d="M41.245,30.732c0.433-2.53,1.296-4.055,2.17-4.505c-0.001,0-0.003,0-0.004,0
					c-1.012-0.008-2.283,1.569-2.793,4.55c-0.415,2.427-0.268,4.775,0.674,5.424C40.691,35.246,40.862,32.968,41.245,30.732z"/>
			</g>
			<g>
				<path class="st3" d="M42.171,31.016c0.609-2.737,1.457-4.556,2.29-4.554c0.123,0,0.248,0.023,0.369,0.078
					c-0.264-0.306-0.571-0.45-0.867-0.452c-1.04-0.008-2.194,1.583-2.718,4.644c-0.501,2.927-0.639,5.926,0.84,5.935
					c0.188,0.001,0.387-0.047,0.591-0.144C41.562,36.413,41.574,33.697,42.171,31.016z"/>
			</g>
			<path class="st4" d="M45.393,31.613c-0.472,2.425-1.361,4.393-1.987,4.395c-0.626,0.003-0.863-2.125-0.392-4.55
				c0.472-2.425,1.417-4.327,2.042-4.329C45.682,27.126,45.864,29.188,45.393,31.613z"/>
		</g>
	</g>
	<g>
		<path class="st3" d="M28.694,30.105c0,0,0.246,0.101,0.963,0.258c0.717,0.157,2.128,0.146,2.856,0.056
			c0.728-0.09,2.688-1.053,2.688-1.053s0.65-0.235,0.717-0.661c0.067-0.426-0.912-0.874-1.223-0.952
			c-0.311-0.078-0.972-0.213-1.05-0.213c-0.078,0-4.764,1.143-5.074,1.247c-0.31,0.104-0.65,0.333-0.504,0.747
			C28.213,29.948,28.694,30.105,28.694,30.105z"/>
		<path class="st1" d="M33.802,27.607c0,0,0.774,0.146,1.02,0.392s0.236,0.616,0,0.829c-0.236,0.213-1.479,0.984-3.002,1.114
			c-1.523,0.13-2.834-0.296-2.834-0.296L33.802,27.607z"/>
		<path class="st2" d="M28.986,29.646c0,0,1.31,0.426,2.834,0.296c1.523-0.13,2.767-0.901,3.002-1.114
			c0.236-0.213,0.246-0.582,0-0.829c0,0,0.268,0.258,0.302,0.437c0.034,0.179,0.078,0.93,0.078,0.93s-1.96,0.963-2.688,1.053
			c-0.728,0.09-2.139,0.101-2.856-0.056c-0.717-0.157-0.963-0.258-0.963-0.258l0.045-0.549L28.986,29.646z"/>
		<path class="st8" d="M33.555,27.014c0,0,0.75,1.198,0.75,1.266s0.022,0.235-0.291,0.381c-0.314,0.146-2.095,0.325-2.229,0.168
			S33.555,27.014,33.555,27.014z"/>
		<g>
			<path class="st5" d="M29.773,29.941c-1.348,0.046-2.537-1.436-2.591-2.927c-0.06-1.649,0.684-2.281,1.964-2.542l1.658-0.542
				c0,0,0.342-0.045,0.766,0.031c0.425,0.076,0.932,0.272,1.265,0.753c0.665,0.963,0.672,1.77,0.62,2.397
				c-0.009,0.109-0.036,0.214-0.075,0.312c-0.185,0.469-0.634,0.801-0.634,0.801s-1.217,1.038-1.583,1.284
				C30.796,29.754,30.64,29.911,29.773,29.941z"/>
			<path class="st1" d="M33.379,27.423c0.039-0.099,0.066-0.203,0.075-0.312c0.052-0.627,0.045-1.434-0.62-2.397
				c-0.332-0.482-0.84-0.678-1.265-0.753l1.078-0.374c0,0,0.336-0.074,0.739,0.022c0.204,0.049,0.424,0.141,0.627,0.308
				c0.605,0.499,0.795,1.316,0.806,1.697c0.005,0.168-0.021,0.332-0.058,0.47c-0.048,0.175-0.115,0.309-0.166,0.359
				C34.508,26.532,33.379,27.423,33.379,27.423z"/>
			<path class="st9" d="M34.763,26.083c0.038-0.138,0.063-0.302,0.058-0.47c-0.011-0.381-0.202-1.198-0.806-1.697
				c-0.203-0.167-0.424-0.26-0.627-0.308c0,0,1.165-0.381,1.21-0.381s0.986-0.067,1.277,0.689c0.291,0.756,0,1.283,0,1.283
				L34.763,26.083z"/>
			
				<ellipse transform="matrix(0.9153 -0.4027 0.4027 0.9153 -8.4661 14.1931)" class="st10" cx="29.522" cy="27.231" rx="1.994" ry="2.493"/>
			<path class="st11" d="M29.915,28.594l-0.773-0.204c-0.111-0.029-0.202-0.144-0.202-0.255v-2.116c0-0.111,0.091-0.178,0.202-0.149
				l0.773,0.204c0.111,0.029,0.202,0.144,0.202,0.255v2.116C30.117,28.556,30.026,28.623,29.915,28.594z"/>
			<path class="st12" d="M29.915,28.594l-0.773-0.204c-0.111-0.029-0.202-0.144-0.202-0.255v-2.116c0-0.111,0.091-0.178,0.202-0.149
				l0.773,0.204c0.111,0.029,0.202,0.144,0.202,0.255v2.116C30.117,28.556,30.026,28.623,29.915,28.594z"/>
			<g>
				<path class="st13" d="M29.428,27.917v-1.971l-0.287-0.076c-0.111-0.029-0.202,0.038-0.202,0.149v2.116
					c0,0.111,0.091,0.226,0.202,0.255l0.774,0.204c0.111,0.029,0.202-0.038,0.202-0.149V28.3l-0.486-0.128
					C29.519,28.143,29.428,28.028,29.428,27.917z"/>
			</g>
		</g>
	</g>
	<g>
		<path class="st3" d="M28.788,21.975l-2.05,0.694c0,0-0.65,0.134-0.616,0.381c0.021,0.154,0.042,0.33,0.451,0.473
			c0.246,0.086,0.631,0.16,1.24,0.21c1.624,0.134,2.151,0,2.722-0.157c0.484-0.133,0.71-0.233,0.918-0.37
			c0.038-0.025,0.075-0.051,0.112-0.078c0.246-0.179,0.504-0.358,0.437-0.538c-0.067-0.179-0.851-0.426-0.851-0.426L28.788,21.975z"
			/>
		<path class="st2" d="M26.573,23.523c0.246,0.086,0.631,0.16,1.24,0.21c1.624,0.134,2.151,0,2.722-0.157
			c0.484-0.133,0.71-0.233,0.918-0.37c0,0,0.033-0.593,0-0.627s-0.112-0.213-0.112-0.213s-0.011,0.392-0.302,0.582
			c-0.291,0.19-1.535,0.571-2.576,0.504c-1.042-0.067-1.288-0.19-1.467-0.291c-0.179-0.101-0.235-0.235-0.235-0.235L26.573,23.523z"
			/>
		<path class="st1" d="M26.76,22.927c0,0,0.056,0.134,0.235,0.235c0.179,0.101,0.426,0.224,1.467,0.291
			c1.042,0.067,2.285-0.314,2.576-0.504c0.291-0.19,0.302-0.582,0.302-0.582s-0.04-0.402-1.644-0.319
			C28.093,22.132,26.771,22.613,26.76,22.927z"/>
		<path class="st8" d="M30.434,22.277v0.392c0,0-0.291,0.213-0.862,0.291C29,23.039,28.06,22.96,27.768,22.882
			c-0.291-0.078-0.325-0.247-0.325-0.247v-0.839c0,0,0-0.157,0.459-0.123c0.459,0.034,1.4,0.246,1.4,0.246
			S29.941,22.288,30.434,22.277z"/>
		<path class="st5" d="M30.434,22.277c-0.493,0.011-1.131-0.358-1.131-0.358s-0.941-0.213-1.4-0.246
			c-0.459-0.034-0.459,0.123-0.459,0.123v0.112c0,0-0.246-0.099-0.47-0.24c-0.224-0.141-0.941-1.015-0.997-2.011
			c-0.056-0.997-0.011-2.027,0.549-2.901c0.56-0.874,1.086-0.683,1.086-0.683l3.069,0.291c0,0,0.69,0.347,0.787,1.232
			s-0.003,1.602,0.086,1.904s0.571,1.064,0.291,1.714c-0.28,0.65-0.706,0.907-0.941,1.019
			C30.669,22.344,30.434,22.277,30.434,22.277z"/>
		<path class="st10" d="M31.468,17.595c0.097,0.885-0.003,1.602,0.086,1.904s0.571,1.064,0.291,1.714c0,0-1.12,1.602-2.083,0.314
			s-0.403-3.573,0.146-4.469c0.549-0.896,1.187-0.235,1.31,0C31.341,17.293,31.468,17.595,31.468,17.595z"/>
		<g>
			<g>
				<path class="st12" d="M29.899,19.641c-0.034-0.655,0.156-1.354,0.158-1.361c0.018-0.067-0.013-0.139-0.07-0.16
					c-0.057-0.022-0.118,0.015-0.137,0.082c-0.008,0.03-0.205,0.751-0.168,1.455c0.037,0.707,0.204,1.093,0.211,1.109
					c0.019,0.044,0.057,0.069,0.097,0.069c0.017,0,0.034-0.004,0.049-0.014c0.053-0.032,0.075-0.109,0.047-0.171
					C30.085,20.646,29.933,20.289,29.899,19.641z"/>
				<path class="st12" d="M31.412,21.104c-0.038-0.055-0.106-0.063-0.153-0.019c-0.085,0.081-0.348,0.292-0.532,0.3
					c-0.21,0.008-0.38-0.174-0.383-0.177c-0.043-0.048-0.112-0.046-0.153,0.004c-0.041,0.051-0.04,0.131,0.004,0.18
					c0.009,0.01,0.225,0.247,0.518,0.247c0.007,0,0.015,0,0.022,0c0.29-0.012,0.624-0.321,0.662-0.357
					C31.443,21.238,31.45,21.158,31.412,21.104z"/>
				<path class="st12" d="M30.958,19.116c-0.052-0.036-0.118-0.016-0.149,0.044c-0.031,0.06-0.014,0.138,0.037,0.175
					c0.002,0.002,0.243,0.174,0.264,0.412c0.026,0.291,0,0.65,0,0.654c-0.005,0.07,0.039,0.132,0.099,0.138c0.003,0,0.006,0,0.009,0
					c0.056,0,0.103-0.05,0.108-0.116c0.001-0.016,0.028-0.386,0-0.702C31.295,19.354,30.972,19.125,30.958,19.116z"/>
				<path class="st12" d="M30.357,17.638c0.013-0.006,0.315-0.152,0.452,0.109c0.175,0.332,0.229,0.752,0.229,0.756
					c0.008,0.064,0.054,0.109,0.108,0.109c0.005,0,0.01,0,0.016-0.001c0.059-0.01,0.101-0.074,0.092-0.144
					c-0.002-0.019-0.06-0.475-0.259-0.854c-0.189-0.359-0.556-0.293-0.723-0.209c-0.055,0.028-0.08,0.102-0.057,0.167
					C30.238,17.635,30.302,17.665,30.357,17.638z"/>
			</g>
			<g>
				<path class="st13" d="M30.004,20.777c-0.002-0.004-0.153-0.36-0.187-1.009c-0.034-0.655,0.156-1.354,0.158-1.361
					c0.018-0.067-0.013-0.139-0.07-0.16c-0.023-0.009-0.046-0.008-0.067,0.001c-0.044,0.173-0.188,0.797-0.156,1.409
					c0.037,0.707,0.204,1.093,0.211,1.109c0.019,0.044,0.057,0.069,0.097,0.069c0.009,0,0.018-0.001,0.027-0.004
					C30.015,20.812,30.012,20.794,30.004,20.777z"/>
				<path class="st13" d="M31.33,21.231c-0.038-0.055-0.106-0.063-0.153-0.019c-0.085,0.081-0.348,0.292-0.532,0.3
					c-0.21,0.008-0.38-0.174-0.383-0.177c-0.028-0.031-0.067-0.041-0.102-0.031c0.001,0.032,0.012,0.064,0.034,0.088
					c0.009,0.01,0.225,0.247,0.518,0.247c0.007,0,0.015,0,0.022,0c0.242-0.01,0.514-0.226,0.62-0.319
					C31.356,21.289,31.349,21.257,31.33,21.231z"/>
				<path class="st13" d="M31.246,19.848c-0.032-0.367-0.355-0.595-0.369-0.605c-0.026-0.018-0.055-0.022-0.082-0.014
					c0.001,0.042,0.02,0.082,0.053,0.105c0.002,0.002,0.243,0.174,0.264,0.412c0.026,0.291,0,0.65,0,0.654
					c-0.005,0.07,0.039,0.132,0.099,0.138c0.003,0,0.006,0,0.009,0c0.01,0,0.019-0.002,0.028-0.005
					C31.252,20.458,31.271,20.131,31.246,19.848z"/>
				<path class="st13" d="M30.357,17.638c0.013-0.006,0.315-0.152,0.452,0.109c0.175,0.332,0.229,0.752,0.229,0.756
					c0.008,0.064,0.054,0.109,0.108,0.109c0.005,0,0.01,0,0.016-0.001c0.004-0.001,0.007-0.002,0.011-0.003c0-0.005,0-0.009,0-0.014
					c-0.002-0.019-0.06-0.475-0.259-0.854c-0.183-0.348-0.533-0.297-0.707-0.217c0,0.016,0.003,0.032,0.009,0.047
					C30.238,17.635,30.302,17.665,30.357,17.638z"/>
			</g>
		</g>
	</g>
	<g>
		<path class="st3" d="M23.548,25.592c0.072,0.02,1.225,0.314,1.374,0.538c0.098,0.147,0.221,0.453-0.504,0.831
			c-0.383,0.2-1.004,0.42-1.99,0.648c-2.246,0.517-3.695,0.377-4.334,0.207c-0.173-0.046-0.286-0.094-0.34-0.132
			c-0.254-0.179-0.523-0.594,0-0.902C18.276,26.473,20.605,24.755,23.548,25.592z"/>
		<path class="st2" d="M18.093,27.815c0.639,0.17,2.089,0.31,4.334-0.207c0.987-0.227,1.607-0.448,1.99-0.648l-0.168-0.823
			c0,0-0.112-0.482-1.288-0.515c-1.176-0.034-2.677,0.112-3.383,0.403c-0.706,0.291-1.198,0.728-1.277,0.885
			S18.093,27.815,18.093,27.815z"/>
		<path class="st1" d="M24.249,26.137c0,0-0.112-0.482-1.288-0.515c-1.176-0.034-2.677,0.112-3.383,0.403
			c-0.706,0.291-1.198,0.728-1.277,0.885c0,0,1.071,0.868,3.573,0.358C24.377,26.759,24.249,26.137,24.249,26.137z"/>
		<path class="st8" d="M23.387,25.364v0.828c0,0-0.706,0.46-1.456,0.516s-1.635-0.168-1.904-0.292
			c-0.269-0.123-0.246-0.19-0.246-0.19v-0.325C19.78,25.901,22.918,25.052,23.387,25.364z"/>
		<g>
			<path class="st5" d="M21.908,20.469c-0.034,0.011-3.965,1.142-3.965,1.142s-1.277,0.482-1.176,1.535s0.773,1.85,2.173,2.471
				c1.4,0.621,2.722,0.435,3.248,0.218c0.526-0.217,3.058-1.288,3.058-1.288s1.781-0.986,0.358-2.699
				C24.182,20.133,21.908,20.469,21.908,20.469z"/>
			<path class="st10" d="M16.879,23.314c0,0,0.09-1.546,2.173-1.456c2.083,0.09,3.618,1.12,3.853,2.363
				c0.235,1.243-2.181,1.833-3.607,1.31C17.873,25.009,17.014,24.289,16.879,23.314z"/>
			<path class="st12" d="M20.125,23.822c0.024,0.145,0.002,0.276-0.054,0.37s-0.146,0.151-0.256,0.15
				c-0.22-0.003-0.438-0.242-0.486-0.532s0.09-0.523,0.31-0.52C19.859,23.293,20.076,23.531,20.125,23.822z"/>
			<path class="st13" d="M20.071,24.192c-0.056,0.094-0.146,0.151-0.256,0.15c-0.22-0.003-0.438-0.242-0.486-0.532
				s0.09-0.523,0.31-0.52c0,0-0.044,0.397,0.088,0.584S20.071,24.192,20.071,24.192z"/>
		</g>
	</g>
	<g>
		<path class="st3" d="M41.649,23.891c0.103,0.021,1.016,0.254,1.075,0.493c0.06,0.239-0.239,0.881-0.538,1.001
			c-0.299,0.119-1.464,0.568-3.39,0.343c-0.885-0.103-1.401-0.256-1.714-0.411c-0.368-0.182-0.454-0.367-0.526-0.477
			c-0.134-0.203,0.792-0.531,0.836-0.531s1.165-0.627,1.165-0.627S39.991,23.548,41.649,23.891z"/>
		<path class="st14" d="M37.083,25.318c0.313,0.155,0.829,0.308,1.714,0.411c1.927,0.224,3.091-0.224,3.39-0.343l-0.09-1.135
			c0,0-0.269,0.582-0.657,0.866c-0.388,0.284-1.613,0.433-2.151,0.418c-0.538-0.015-1.449-0.254-1.703-0.433
			c-0.254-0.179-0.358-0.314-0.358-0.314L37.083,25.318z"/>
		<path class="st15" d="M37.229,24.787c0,0,0.105,0.134,0.358,0.314c0.254,0.179,1.165,0.418,1.703,0.433
			c0.538,0.015,1.762-0.134,2.151-0.418c0.388-0.284,0.657-0.866,0.657-0.866s-0.348-0.477-1.085-0.47
			c-0.737,0.007-2.431-0.104-2.935,0.169C37.573,24.223,37.275,24.619,37.229,24.787z"/>
		<path class="st16" d="M40.978,24.571c0.078-0.069,0.073-0.15,0.009-0.227c-0.016-0.019-0.033-0.037-0.049-0.055
			c0.142-0.122,0.145-0.183,0.023-0.343c0.14-0.173,0.145-0.246,0.019-0.349c0.085-0.053,0.134-0.125,0.107-0.21
			c-0.021-0.066-0.016-0.124,0-0.19c0.017-0.07,0.003-0.145,0.007-0.218c0.001-0.024,0.009-0.053,0.027-0.07
			c0.216-0.213,0.313-0.463,0.315-0.742c0.002-0.275,0.08-0.535,0.213-0.785c0.147-0.279,0.329-0.541,0.521-0.797
			c0.436-0.583,0.586-1.217,0.49-1.893c-0.074-0.528-0.314-0.985-0.683-1.386c-0.331-0.36-0.728-0.641-1.211-0.821
			c-0.428-0.159-0.88-0.187-1.343-0.144c-0.508,0.047-0.981,0.197-1.393,0.482c-0.955,0.659-1.443,1.515-1.383,2.589
			c0.021,0.374,0.133,0.725,0.339,1.044c0.15,0.233,0.316,0.457,0.465,0.69c0.206,0.321,0.349,0.662,0.336,1.05
			c-0.009,0.272,0.08,0.513,0.283,0.712c0.014,0.014,0.024,0.037,0.024,0.057c0,0.124-0.002,0.248-0.007,0.371
			c-0.001,0.03,0.009,0.044,0.038,0.054c0.031,0.011,0.059,0.026,0.096,0.043c-0.072,0.051-0.133,0.101-0.143,0.181
			c-0.011,0.084,0.043,0.136,0.109,0.183c-0.135,0.08-0.179,0.212-0.002,0.344c-0.049,0.052-0.11,0.098-0.113,0.174
			c-0.003,0.074,0.044,0.126,0.086,0.172c-0.012,0.018-0.023,0.031-0.03,0.045c0,0,0.39,0.41,1.18,0.476
			C40.562,25.111,40.978,24.571,40.978,24.571z"/>
	</g>
</g>
<g>
	<path class="st17" d="M14.365,38.695h2.586c0,0,1.059-0.076,1.059,0.711c0,0.787,0.166,1.332-1.029,1.332s-2.616,0-2.616,0V38.695z
		"/>
	<g>
		<path class="st0" d="M16.901,46.963l-13.75,0c-0.099,0-0.196-0.057-0.214-0.127l0.295-4.697c-0.018-0.07,0.048-0.127,0.147-0.127
			l12.228,0c0.099,0,0.196,0.057,0.214,0.127l1.227,4.697C17.066,46.906,17,46.963,16.901,46.963z"/>
		<polygon class="st18" points="14.365,46.117 3.44,46.254 3.304,36.009 14.365,36.009 		"/>
		<path class="st19" d="M13.03,45.388l-8.179,0.096c-0.465,0.005-0.849-0.359-0.854-0.809l-0.079-7.108
			c-0.005-0.45,0.371-0.823,0.836-0.829l8.179-0.096c0.465-0.005,0.849,0.359,0.854,0.809l0.079,7.108
			C13.871,45.009,13.495,45.382,13.03,45.388z"/>
		<polygon class="st20" points="14.365,36.009 3.304,36.009 3.577,33.837 13.683,33.837 		"/>
		<path class="st21" d="M12.865,35.742H4.609c-0.451,0-0.819-0.369-0.819-0.819l0,0c0-0.451,0.369-0.819,0.819-0.819h8.256
			c0.451,0,0.819,0.369,0.819,0.819l0,0C13.685,35.373,13.316,35.742,12.865,35.742z"/>
		<g>
			<path class="st21" d="M11.507,39.751c-0.014-0.065-0.061-0.117-0.125-0.135l-1.604-0.475c-0.617-0.218-1.303-0.47-1.395-0.518
				c-0.042-0.028-0.094-0.036-0.143-0.024c-0.053,0.013-0.096,0.05-0.119,0.099l-0.635,1.385l-1.26,0.798
				c-0.05,0.032-0.082,0.087-0.083,0.146c-0.002,0.06,0.026,0.116,0.075,0.151l0.886,0.638l0.538,1.268
				c0.022,0.051,0.066,0.089,0.12,0.104c0.015,0.004,0.03,0.006,0.046,0.006c0.039,0,0.078-0.013,0.11-0.037l0.713-0.549
				l1.534,0.284c0.059,0.011,0.12-0.008,0.162-0.052c0.042-0.043,0.059-0.105,0.046-0.164l-0.186-0.831l0.641-0.279
				c0.087-0.038,0.13-0.138,0.097-0.227l-0.274-0.738l0.799-0.675C11.498,39.883,11.521,39.816,11.507,39.751z M10.319,40.408
				c-0.058,0.049-0.079,0.129-0.052,0.2l0.259,0.697l-0.621,0.271c-0.079,0.034-0.122,0.12-0.104,0.204l0.159,0.71L8.616,42.24
				c-0.05-0.009-0.102,0.003-0.142,0.034L7.881,42.73l-0.467-1.1c-0.013-0.03-0.034-0.056-0.06-0.076l-0.711-0.512l1.08-0.684
				c0.029-0.019,0.053-0.045,0.067-0.077l0.583-1.273c0.186,0.075,0.553,0.213,1.293,0.474l1.294,0.383L10.319,40.408z"/>
			<path class="st21" d="M9.492,38.691l1.255,0.498c0.022,0.009,0.044,0.013,0.066,0.013c0.071,0,0.139-0.043,0.167-0.114
				c0.037-0.092-0.009-0.197-0.101-0.233l-1.255-0.498c-0.093-0.037-0.197,0.009-0.233,0.101C9.355,38.55,9.4,38.654,9.492,38.691z"
				/>
			<path class="st21" d="M10.31,38.325l0.558,0.199c0.02,0.007,0.04,0.011,0.06,0.011c0.074,0,0.143-0.046,0.169-0.119
				c0.033-0.093-0.015-0.196-0.109-0.23l-0.558-0.199c-0.093-0.033-0.196,0.015-0.23,0.109
				C10.168,38.188,10.217,38.291,10.31,38.325z"/>
			<path class="st21" d="M6.789,40.079c0.035,0.032,0.078,0.048,0.122,0.048c0.048,0,0.096-0.019,0.132-0.058l0.498-0.538
				c0.067-0.073,0.063-0.186-0.01-0.254c-0.073-0.067-0.186-0.063-0.254,0.01l-0.498,0.538C6.711,39.898,6.716,40.012,6.789,40.079z
				"/>
			<path class="st21" d="M6.236,39.534l0.747-0.448c0.085-0.051,0.113-0.161,0.062-0.246c-0.051-0.085-0.161-0.113-0.246-0.062
				l-0.747,0.448c-0.085,0.051-0.113,0.161-0.062,0.246c0.034,0.056,0.093,0.087,0.154,0.087C6.175,39.56,6.207,39.552,6.236,39.534
				z"/>
			<path class="st21" d="M9.341,43.133c-0.044-0.089-0.152-0.125-0.241-0.08l-0.597,0.299c-0.089,0.044-0.125,0.152-0.08,0.241
				c0.031,0.063,0.095,0.099,0.161,0.099c0.027,0,0.054-0.006,0.08-0.019l0.597-0.299C9.35,43.33,9.386,43.222,9.341,43.133z"/>
			<path class="st21" d="M10.476,43.534l-1.434,0.259c-0.098,0.018-0.162,0.111-0.145,0.209c0.016,0.087,0.091,0.148,0.177,0.148
				c0.011,0,0.021-0.001,0.032-0.003l1.434-0.259c0.098-0.018,0.162-0.111,0.145-0.209C10.667,43.582,10.573,43.517,10.476,43.534z"
				/>
		</g>
		<g>
			<path class="st19" d="M8.357,35.463c-0.102,0-0.203-0.008-0.28-0.022l-1.725-0.327c-0.107-0.02-0.152-0.05-0.119-0.079
				l0.534-0.466c0.033-0.029,0.14-0.052,0.28-0.061l2.259-0.139c0.14-0.009,0.292-0.001,0.399,0.019l1.725,0.326
				c0.107,0.02,0.152,0.05,0.119,0.079l-0.534,0.466c-0.033,0.029-0.14,0.052-0.28,0.061L8.477,35.46
				C8.437,35.462,8.397,35.463,8.357,35.463z M7.085,35.026l1.38,0.261l1.807-0.111l0.427-0.372l-1.38-0.261l-1.807,0.111
				L7.085,35.026z M10.617,35.241h0.001H10.617z"/>
		</g>
	</g>
</g>
</svg>
