<?xml version="1.0" encoding="utf-8"?>
<!-- Generator: Adobe Illustrator 25.4.1, SVG Export Plug-In . SVG Version: 6.00 Build 0)  -->
<svg version="1.1" id="Layer_1" xmlns="http://www.w3.org/2000/svg" xmlns:xlink="http://www.w3.org/1999/xlink" x="0px" y="0px"
	 viewBox="0 0 50 50" style="enable-background:new 0 0 50 50;" xml:space="preserve">
<style type="text/css">
	.st0{fill:#9E836F;}
	.st1{opacity:0.5;fill:#C0C7CA;enable-background:new    ;}
	.st2{fill:#C1AFA3;}
	.st3{fill:#8BADD0;}
	.st4{fill:#D5C8C0;}
	.st5{fill:#C2D4E6;}
	.st6{fill:#E46C38;}
	.st7{fill:#AA5025;}
	.st8{fill:#231F20;}
	.st9{fill:#B99C7C;}
	.st10{fill:#E68338;}
	.st11{fill:#A1886C;}
	.st12{fill:#FFFFFF;}
	.st13{fill:#A84F24;}
	.st14{fill:#D56532;}
	.st15{fill:#C0AE9A;}
	.st16{fill:none;stroke:#A1886C;stroke-miterlimit:10;}
	.st17{fill:#5D4F3D;}
	.st18{fill:#947E64;}
	.st19{fill:#C4C4C4;}
	.st20{fill:#DFDFDF;}
	.st21{fill:#FFFFC6;}
</style>
<g>
	<path class="st0" d="M35.021,29.11c0,0-1.421,0-2.616,0s-1.029-0.545-1.029-1.332s1.059-0.711,1.059-0.711h2.586
		C35.021,27.067,35.021,29.11,35.021,29.11z"/>
	<g>
		<path class="st1" d="M32.338,35.208l1.227-4.697c0.018-0.07,0.115-0.127,0.214-0.127h12.228c0.099,0,0.165,0.057,0.147,0.127
			l0.295,4.697c-0.018,0.07-0.115,0.127-0.214,0.127h-13.75C32.386,35.335,32.32,35.278,32.338,35.208z"/>
		<polygon class="st2" points="35.021,24.381 46.082,24.381 45.946,34.626 35.021,34.489 		"/>
		<path class="st3" d="M35.52,32.931l0.079-7.108c0.005-0.45,0.389-0.814,0.854-0.809l8.179,0.096
			c0.465,0.006,0.841,0.379,0.836,0.829l-0.079,7.108c-0.005,0.45-0.389,0.814-0.854,0.809l-8.179-0.096
			C35.891,33.754,35.515,33.381,35.52,32.931z"/>
		<polygon class="st4" points="35.703,22.209 45.809,22.209 46.082,24.381 35.021,24.381 		"/>
		<path class="st5" d="M35.702,23.295L35.702,23.295c0-0.45,0.368-0.819,0.819-0.819h8.256c0.45,0,0.819,0.368,0.819,0.819l0,0
			c0,0.45-0.368,0.819-0.819,0.819h-8.256C36.07,24.114,35.701,23.745,35.702,23.295z"/>
		<g>
			<path class="st5" d="M37.936,28.298l0.799,0.675l-0.274,0.738c-0.033,0.089,0.01,0.189,0.097,0.227l0.641,0.279l-0.186,0.831
				c-0.013,0.059,0.004,0.121,0.046,0.164c0.042,0.044,0.103,0.063,0.162,0.052l1.534-0.284l0.713,0.549
				c0.032,0.024,0.071,0.037,0.11,0.037c0.016,0,0.031-0.002,0.046-0.006c0.054-0.015,0.098-0.053,0.12-0.104l0.538-1.268
				l0.886-0.638c0.049-0.035,0.077-0.091,0.075-0.151c-0.001-0.059-0.033-0.114-0.083-0.146l-1.26-0.798l-0.635-1.385
				c-0.023-0.049-0.066-0.086-0.119-0.099c-0.049-0.012-0.101-0.004-0.143,0.024c-0.092,0.048-0.778,0.3-1.395,0.518l-1.604,0.475
				c-0.064,0.018-0.111,0.07-0.125,0.135C37.865,28.188,37.888,28.255,37.936,28.298z M38.426,28.237l1.294-0.383
				c0.74-0.261,1.107-0.399,1.293-0.474l0.583,1.273c0.014,0.032,0.038,0.058,0.067,0.077l1.08,0.684l-0.711,0.512
				c-0.026,0.02-0.047,0.046-0.06,0.076l-0.467,1.1l-0.593-0.456c-0.04-0.031-0.092-0.043-0.142-0.034l-1.344,0.25l0.159-0.71
				c0.018-0.084-0.025-0.17-0.104-0.204l-0.621-0.271l0.259-0.697c0.027-0.071,0.006-0.151-0.052-0.2L38.426,28.237z"/>
			<path class="st5" d="M39.995,26.83c-0.036-0.092-0.14-0.138-0.233-0.101l-1.255,0.498c-0.092,0.036-0.138,0.141-0.101,0.233
				c0.028,0.071,0.096,0.114,0.167,0.114c0.022,0,0.044-0.004,0.066-0.013l1.255-0.498C39.986,27.026,40.031,26.922,39.995,26.83z"
				/>
			<path class="st5" d="M39.186,26.468c-0.034-0.094-0.137-0.142-0.23-0.109l-0.558,0.199c-0.094,0.034-0.142,0.137-0.109,0.23
				c0.026,0.073,0.095,0.119,0.169,0.119c0.02,0,0.04-0.004,0.06-0.011l0.558-0.199C39.169,26.663,39.218,26.56,39.186,26.468z"/>
			<path class="st5" d="M42.607,28.197l-0.498-0.538c-0.068-0.073-0.181-0.077-0.254-0.01c-0.073,0.068-0.077,0.181-0.01,0.254
				l0.498,0.538c0.036,0.039,0.084,0.058,0.132,0.058c0.044,0,0.087-0.016,0.122-0.048C42.67,28.384,42.675,28.27,42.607,28.197z"/>
			<path class="st5" d="M43.242,27.931c0.061,0,0.12-0.031,0.154-0.087c0.051-0.085,0.023-0.195-0.062-0.246l-0.747-0.448
				c-0.085-0.051-0.195-0.023-0.246,0.062c-0.051,0.085-0.023,0.195,0.062,0.246l0.747,0.448
				C43.179,27.924,43.211,27.932,43.242,27.931z"/>
			<path class="st5" d="M40.125,31.746l0.597,0.299c0.026,0.013,0.053,0.019,0.08,0.019c0.066,0,0.13-0.036,0.161-0.099
				c0.045-0.089,0.009-0.197-0.08-0.241l-0.597-0.299c-0.089-0.045-0.197-0.009-0.241,0.08C40,31.594,40.036,31.702,40.125,31.746z"
				/>
			<path class="st5" d="M38.701,32.051c-0.017,0.098,0.047,0.191,0.145,0.209l1.434,0.259c0.011,0.002,0.021,0.003,0.032,0.003
				c0.086,0,0.161-0.061,0.177-0.148c0.017-0.098-0.047-0.191-0.145-0.209l-1.434-0.259C38.813,31.889,38.719,31.954,38.701,32.051z
				"/>
		</g>
		<g>
			<path class="st3" d="M40.909,23.832l-2.258-0.14c-0.14-0.009-0.247-0.032-0.28-0.061l-0.534-0.466
				c-0.033-0.029,0.012-0.059,0.119-0.079l1.725-0.326c0.107-0.02,0.259-0.028,0.399-0.019l2.259,0.139
				c0.14,0.009,0.247,0.032,0.28,0.061l0.534,0.466c0.033,0.029-0.012,0.059-0.119,0.079l-1.725,0.327
				c-0.077,0.014-0.178,0.022-0.28,0.022C40.989,23.835,40.949,23.834,40.909,23.832z M41.874,23.026l-1.807-0.111l-1.38,0.261
				l0.427,0.372l1.807,0.111l1.38-0.261L41.874,23.026z M38.768,23.613L38.768,23.613L38.768,23.613z"/>
		</g>
	</g>
</g>
<path class="st1" d="M18.587,47.556l0.001,0.001l0,0c0.008,0.005,0.016,0.012,0.024,0.017c0.002,0.001,0.003,0.002,0.004,0.003
	c0.002,0.003,0.005,0.005,0.008,0.006c0.004,0.004,0.008,0.006,0.013,0.009c0.002,0.002,0.005,0.004,0.008,0.005
	c0.004,0.003,0.007,0.004,0.012,0.007c0.003,0.001,0.005,0.003,0.008,0.004c0.004,0.003,0.009,0.005,0.014,0.008
	c0.004,0.003,0.008,0.005,0.013,0.007c0.001,0.001,0.003,0.002,0.004,0.003c0.006,0.004,0.013,0.006,0.02,0.01
	c0.004,0.002,0.008,0.004,0.012,0.006c0.001,0,0.001,0.001,0.002,0.001c0.006,0.004,0.012,0.006,0.019,0.009
	c0.005,0.003,0.011,0.005,0.018,0.008c0.001,0,0.001,0.001,0.002,0.001c0.004,0.002,0.009,0.003,0.013,0.005
	c0.009,0.003,0.019,0.008,0.028,0.011c0.001,0,0.002,0.001,0.003,0.001c0.003,0.001,0.007,0.002,0.01,0.003
	c0.012,0.004,0.025,0.008,0.037,0.012c0.002,0.001,0.005,0.002,0.007,0.002c0.002,0.001,0.005,0.002,0.007,0.002
	c0.022,0.006,0.043,0.013,0.066,0.018l0.001,0c0.001,0,0.002,0.001,0.003,0.001c0.024,0.006,0.048,0.01,0.072,0.016
	c0.003,0.001,0.007,0.001,0.01,0.002c0.024,0.004,0.049,0.008,0.074,0.012c0.005,0.001,0.009,0.001,0.014,0.002
	c0.024,0.003,0.051,0.006,0.076,0.008c0.004,0.001,0.008,0,0.012,0.001c0.027,0.003,0.054,0.004,0.082,0.005l0.902,0.027
	c-0.006-0.001-0.011,0-0.017-0.001c0.224,0.008,0.462-0.023,0.667-0.101l17.398-6.323c0.453-0.17,0.581-0.491,0.288-0.718
	L23.09,32.346c-0.164-0.127-0.426-0.198-0.704-0.205c0.001,0,0.003,0,0.004,0l-0.903-0.027c-0.011,0-0.022,0-0.033-0.001
	c-0.008,0.001-0.015,0.001-0.023,0.001c-0.016,0-0.031,0-0.046,0c-0.006,0-0.012,0-0.018,0c-0.01,0-0.019,0-0.029,0.001
	c-0.009,0-0.017,0-0.026,0.001c-0.004,0-0.008,0.001-0.012,0.001c-0.019,0.001-0.039,0.003-0.058,0.005c-0.001,0-0.002,0-0.003,0
	c-0.002,0-0.005,0-0.007,0.001c-0.014,0.002-0.028,0.003-0.042,0.005c-0.009,0.002-0.019,0.002-0.028,0.004
	c-0.004,0.001-0.007,0.002-0.011,0.002c-0.003,0.001-0.005,0.001-0.008,0.002c-0.015,0.002-0.03,0.004-0.045,0.007
	c-0.007,0.002-0.014,0.003-0.021,0.005c-0.003,0-0.007,0.002-0.01,0.002c-0.003,0-0.007,0.001-0.011,0.002
	c-0.013,0.003-0.027,0.006-0.039,0.009c-0.007,0.003-0.014,0.004-0.021,0.006c-0.003,0.001-0.006,0.001-0.009,0.003
	c-0.004,0.001-0.007,0.002-0.01,0.003c-0.013,0.003-0.025,0.006-0.037,0.01c-0.008,0.003-0.017,0.005-0.024,0.008
	c-0.002,0-0.004,0.001-0.006,0.001c-0.002,0-0.004,0.001-0.006,0.001c-0.013,0.004-0.024,0.008-0.036,0.012
	c-0.011,0.004-0.021,0.008-0.032,0.011L3.409,38.543c-0.001,0-0.002,0.001-0.003,0.001c-0.012,0.004-0.023,0.009-0.035,0.014
	s-0.022,0.01-0.034,0.015c-0.002,0-0.004,0.001-0.006,0.002c-0.002,0-0.004,0.001-0.006,0.002c-0.008,0.004-0.016,0.007-0.022,0.011
	C3.292,38.594,3.28,38.6,3.27,38.606c-0.003,0.002-0.007,0.004-0.01,0.006c-0.003,0.001-0.005,0.003-0.008,0.005
	c-0.005,0.003-0.011,0.006-0.015,0.009c-0.012,0.007-0.023,0.015-0.034,0.022C3.2,38.648,3.198,38.65,3.196,38.651
	c-0.003,0.001-0.006,0.003-0.009,0.006c-0.007,0.004-0.013,0.008-0.019,0.012c-0.01,0.008-0.021,0.017-0.031,0.024
	c-0.001,0.001-0.002,0.001-0.003,0.002c0,0.001-0.001,0.001-0.001,0.001c-0.012,0.011-0.025,0.021-0.036,0.032
	c-0.003,0.002-0.005,0.004-0.007,0.007c-0.005,0.005-0.01,0.011-0.015,0.016c-0.005,0.005-0.011,0.011-0.016,0.016
	c-0.004,0.004-0.006,0.007-0.009,0.012c-0.004,0.004-0.007,0.01-0.011,0.014c-0.008,0.011-0.015,0.021-0.022,0.032
	c-0.003,0.004-0.005,0.008-0.008,0.013c-0.001,0.001-0.002,0.003-0.003,0.004c-0.002,0.003-0.004,0.006-0.005,0.009
	c-0.003,0.006-0.005,0.012-0.008,0.019c-0.004,0.006-0.006,0.012-0.009,0.019c-0.003,0.009-0.007,0.019-0.009,0.029
	c-0.002,0.006-0.003,0.011-0.005,0.017c0,0.001-0.001,0.003-0.001,0.004c-0.002,0.012-0.003,0.025-0.004,0.037c0,0,0,0.001,0,0.002
	c0,0.002,0,0.004,0,0.006c0,0.008-0.001,0.015,0,0.023c0,0.006,0.002,0.013,0.002,0.019c0,0.001,0,0.003,0,0.005s0,0.003,0,0.004
	c0.002,0.009,0.003,0.017,0.006,0.026c0.001,0.005,0.004,0.01,0.005,0.015c0,0.002,0.001,0.003,0.001,0.005
	c0,0.001,0.001,0.003,0.001,0.004c0.003,0.008,0.006,0.016,0.01,0.023C2.997,39.113,3,39.119,3.003,39.125
	c0,0.001,0.001,0.002,0.001,0.003c0,0.001,0.001,0.001,0.001,0.002c0.004,0.007,0.008,0.014,0.013,0.021s0.009,0.013,0.015,0.02
	c0,0.001,0.001,0.001,0.001,0.002c0.001,0,0.001,0.001,0.002,0.002c0.003,0.005,0.008,0.01,0.012,0.015
	c0.006,0.007,0.012,0.012,0.017,0.019c0.002,0.002,0.005,0.005,0.008,0.007c0.002,0.001,0.003,0.003,0.004,0.004
	c0.002,0.002,0.004,0.005,0.007,0.007c0.007,0.007,0.013,0.013,0.02,0.019c0.006,0.006,0.013,0.011,0.02,0.017L18.587,47.556z
	 M22.137,32.151L22.137,32.151c0.003,0,0.006,0,0.009-0.001l0,0C22.143,32.151,22.14,32.151,22.137,32.151z M21.974,32.175
	L21.974,32.175c0.003,0,0.007-0.002,0.01-0.002c0.001,0,0.002,0,0.003,0C21.982,32.175,21.978,32.176,21.974,32.175z M21.887,32.197
	c0.002,0,0.004-0.001,0.006-0.001c0.003-0.001,0.006-0.001,0.009-0.003c0.001,0,0.001,0,0.002,0
	C21.899,32.194,21.893,32.194,21.887,32.197z M21.804,32.22c0.004-0.001,0.009-0.003,0.013-0.004c0.002,0,0.003-0.001,0.005-0.001
	C21.816,32.217,21.809,32.219,21.804,32.22z M19.844,47.744c0.001,0,0.003,0.001,0.005,0.001c-0.001,0-0.001,0-0.001,0
	C19.847,47.745,19.845,47.744,19.844,47.744L19.844,47.744z M19.707,47.701c0.003,0.002,0.005,0.003,0.008,0.003
	c-0.001,0-0.001-0.001-0.002-0.001C19.711,47.703,19.709,47.702,19.707,47.701z M19.661,47.684c0.005,0.002,0.009,0.004,0.014,0.006
	c-0.001-0.001-0.003-0.002-0.005-0.003C19.667,47.686,19.664,47.684,19.661,47.684z M19.622,47.665
	c0.005,0.003,0.009,0.004,0.015,0.007c-0.002-0.001-0.004-0.002-0.006-0.003C19.628,47.668,19.625,47.667,19.622,47.665z
	 M19.589,47.648c0.003,0.002,0.007,0.004,0.011,0.006c-0.002-0.001-0.004-0.002-0.006-0.003
	C19.593,47.651,19.59,47.65,19.589,47.648z M19.556,47.629c0.003,0.002,0.005,0.004,0.008,0.005
	c-0.001-0.001-0.003-0.002-0.004-0.003C19.559,47.632,19.558,47.631,19.556,47.629z M19.523,47.61
	c0.002,0.001,0.004,0.003,0.006,0.004c-0.001-0.001-0.002-0.001-0.003-0.002C19.525,47.61,19.524,47.611,19.523,47.61z
	 M4.027,39.288C4.026,39.287,4.026,39.287,4.027,39.288C4.026,39.287,4.026,39.287,4.027,39.288L4.027,39.288z"/>
<g>
	<g>
		<g>
			<g>
				<path class="st6" d="M31.819,36.898c-0.231-0.908-0.358-1.652-0.405-2.26c0.027,0.506,0.108,1.077,0.25,1.674
					C31.711,36.511,31.762,36.707,31.819,36.898z"/>
				<path class="st7" d="M31.413,34.637c-0.063-1.163,0.159-1.985,0.595-1.994c0.625-0.012,1.566,1.518,2.032,3.486
					c0.466,1.969,0.225,3.711-0.4,3.723c-0.562,0.012-1.333-1.268-1.822-2.955c0,0.001,0,0.001,0,0.002
					c0.568,2.227,1.648,3.38,2.48,3.36c1.183-0.028,1.189-2.292,0.586-4.511c-0.603-2.219-1.447-3.684-2.279-3.663
					C31.966,32.102,31.256,32.622,31.413,34.637z"/>
			</g>
			<g>
				<path class="st6" d="M35.753,39.961c0.942-0.551,1.094-2.472,0.683-4.443c-0.504-2.42-1.77-3.678-2.781-3.648
					c-0.001,0-0.003,0-0.004,0c0.871,0.346,1.731,1.571,2.159,3.626C36.187,37.312,36.353,39.167,35.753,39.961z"/>
			</g>
			<g>
				<path class="st8" d="M34.369,40.254c0.203,0.075,0.402,0.109,0.59,0.104c1.477-0.042,1.345-2.487,0.851-4.863
					c-0.518-2.486-1.668-3.759-2.707-3.727c-0.295,0.009-0.602,0.133-0.867,0.389c0.121-0.047,0.247-0.068,0.369-0.072
					c0.832-0.021,1.676,1.444,2.279,3.663C35.475,37.924,35.481,40.14,34.369,40.254z"/>
			</g>
			<path class="st9" d="M32.008,32.644c0.625-0.012,1.566,1.517,2.032,3.486c0.466,1.969,0.225,3.711-0.4,3.723
				c-0.625,0.012-1.51-1.573-1.976-3.541C31.197,34.343,31.383,32.657,32.008,32.644z"/>
		</g>
		<path class="st10" d="M37.976,34.798c0.032,0.424,0.261,4.855,0.261,4.855s-0.173,0.395-0.937,0.698
			c-0.764,0.303-2.551,1.043-2.551,1.043l-9.095,3.245l-4.034,1.439c0,0-1.102,0.285-2.636,0.196
			c-1.534-0.088-2.014-0.502-2.465-0.827c-0.451-0.326-1.902-1.409-1.902-1.409l-0.381-5.116c0,0,2.06,1.734,3.462,1.854
			c1.402,0.12,3.594,0.002,7.039-1.096s12.669-4.233,12.669-4.233C37.915,35.275,37.975,34.8,37.976,34.798z"/>
		<path class="st6" d="M11.854,42.852c-1.025-0.485-3.337-1.976-3.337-1.976l-0.439-5.898c0,0,0.057,0.468,0.355,0.85
			c0.298,0.382,2.382,1.822,3.132,2.238c0.75,0.417,2.469,0.872,2.67,0.857l0.381,5.116C14.616,44.04,12.879,43.338,11.854,42.852z"
			/>
		<path class="st7" d="M7.203,40.306L6.72,33.813c0,0-0.038,0.101,0.016,0.216c0.053,0.116,0.16,0.146,0.16,0.146l1.183,0.803
			l0.439,5.898L7.203,40.306z"/>
		<g>
			<path class="st7" d="M6.736,34.031c-0.116-0.602,0.565-0.779,0.565-0.779s-0.141,0.145-0.244,0.265
				c-0.103,0.12,0.017,0.381,0.017,0.381L8.358,34.7c0,0-0.019,0.192,0.196,0.67c0.215,0.478,1.157,1.06,2.48,1.927
				s3.557,1.308,3.557,1.308s1.951,1.822,4.101,1.829c2.15,0.007,3.805-0.642,3.805-0.642s12.082-3.673,13.243-4.068
				c1.162-0.395,1.507-0.579,1.765-0.89s-0.267-0.564-0.267-0.564l-3.668-1.142l-0.716-0.273l0.222-0.185l0.626,0.403l2.698,0.788
				c0,0,0.171,0.032,0.957,0.322c0.786,0.29,0.618,0.617,0.618,0.617s-0.06,0.477-0.568,0.649c0,0-9.224,3.135-12.669,4.233
				s-5.637,1.217-7.039,1.096c-1.401-0.12-3.462-1.854-3.462-1.854c-0.201,0.015-1.92-0.442-2.67-0.857
				c-0.75-0.416-2.833-1.856-3.132-2.238c-0.298-0.383-0.355-0.85-0.355-0.85l-1.183-0.803C6.896,34.176,6.789,34.146,6.736,34.031"
				/>
			<path class="st7" d="M6.736,34.031L6.72,33.814C6.72,33.814,6.682,33.914,6.736,34.031z"/>
		</g>
		<g>
			<path class="st11" d="M22.617,29.719L7.302,33.251c0,0-0.141,0.145-0.244,0.265c-0.103,0.12,0.017,0.381,0.017,0.381l1.284,0.803
				c0,0-0.019,0.192,0.196,0.67c0.215,0.478,1.157,1.06,2.48,1.927c1.323,0.867,3.557,1.308,3.557,1.308s1.951,1.822,4.101,1.829
				c2.15,0.007,3.805-0.642,3.805-0.642s12.082-3.673,13.243-4.068c1.162-0.395,1.507-0.579,1.765-0.89S37.24,34.27,37.24,34.27
				l-3.668-1.142l-0.716-0.273L22.617,29.719z"/>
		</g>
		<path class="st12" d="M22.03,45.932c0,0,0.048,0.235,0.304,0.362c0.257,0.127,0.883,0.238,1.341,0.058
			c0.458-0.18,0.578-0.829,0.578-0.829l7.568-2.753c0,0-0.075,0.208,0.756,0.202c0.831-0.006,0.946-0.868,1.011-0.906
			c0.064-0.039,0.061-0.083,0.423-0.2c0.361-0.116,0.664-0.285,0.664-0.285s-0.311-2.527-0.358-3.152s-0.794-0.401-0.794-0.401
			s-6.359,2.091-7.084,2.313s-0.814,0.993-0.814,0.993l0.029,3.307L22.03,45.932z"/>
		<g>
			<g>
				<path class="st6" d="M6.544,41.985c-0.315-1.099-0.511-2.002-0.615-2.743c0.074,0.617,0.209,1.311,0.406,2.033
					C6.401,41.517,6.471,41.754,6.544,41.985z"/>
				<path class="st6" d="M5.928,39.243c-0.171-1.418-0.026-2.433,0.409-2.463c0.623-0.044,1.707,1.782,2.358,4.166
					c0.65,2.383,0.571,4.523-0.053,4.567c-0.561,0.04-1.451-1.487-2.098-3.527c0.001,0.001,0.001,0.002,0.001,0.003
					c0.775,2.694,1.963,4.054,2.794,3.992c1.182-0.088,0.976-2.854,0.166-5.539c-0.81-2.684-1.791-4.435-2.622-4.372
					C6.245,36.118,5.584,36.787,5.928,39.243z"/>
			</g>
			<g>
				<path class="st7" d="M10.765,45.547c0.891-0.717,0.864-3.07,0.27-5.459c-0.73-2.935-2.114-4.413-3.123-4.33
					c-0.001,0-0.003,0-0.004,0c0.905,0.384,1.879,1.841,2.498,4.332C10.954,42.291,11.294,44.55,10.765,45.547z"/>
			</g>
			<g>
				<path class="st8" d="M9.409,45.97c0.211,0.082,0.413,0.115,0.6,0.1c1.474-0.119,1.114-3.099,0.397-5.981
					c-0.75-3.014-2.018-4.515-3.055-4.43c-0.295,0.024-0.591,0.19-0.831,0.515c0.117-0.064,0.24-0.096,0.362-0.105
					c0.831-0.064,1.811,1.687,2.622,4.372C10.298,43.07,10.512,45.778,9.409,45.97z"/>
			</g>
			<path class="st9" d="M6.339,36.779c0.623-0.044,1.707,1.782,2.358,4.166c0.65,2.383,0.571,4.523-0.053,4.567
				c-0.624,0.044-1.657-1.852-2.308-4.235C5.685,38.892,5.714,36.822,6.339,36.779z"/>
		</g>
	</g>
	<g>
		<path class="st8" d="M23.459,37.917c0.115-0.424-0.241-0.627-0.558-0.708c-0.317-0.081-5.075-0.873-5.153-0.867
			c-0.078,0.006-0.727,0.189-1.031,0.29s-1.247,0.62-1.149,1.04c0.098,0.42,0.764,0.606,0.764,0.606s2.026,0.815,2.759,0.851
			c0.733,0.036,2.141-0.058,2.844-0.268c0.703-0.21,0.941-0.329,0.941-0.329S23.344,38.341,23.459,37.917z"/>
		<path class="st6" d="M22.551,38.097c0,0-1.276,0.522-2.804,0.505c-1.528-0.017-2.825-0.693-3.076-0.888
			c-0.251-0.195-0.289-0.563-0.061-0.827c0.227-0.264,0.988-0.467,0.988-0.467L22.551,38.097z"/>
		<path class="st7" d="M22.79,37.989l0.086,0.544c0,0-0.238,0.119-0.941,0.329s-2.111,0.303-2.844,0.268
			c-0.733-0.036-2.759-0.851-2.759-0.851s-0.012-0.752,0.009-0.933c0.021-0.181,0.269-0.458,0.269-0.458
			c-0.227,0.265-0.19,0.632,0.061,0.827c0.25,0.195,1.548,0.872,3.076,0.888c1.529,0.017,2.804-0.505,2.804-0.505L22.79,37.989z"/>
		<path class="st13" d="M19.699,37.49c-0.122,0.167-1.911,0.12-2.235-0.002c-0.323-0.122-0.313-0.291-0.318-0.358
			s0.654-1.318,0.654-1.318S19.821,37.323,19.699,37.49z"/>
		<g>
			<path class="st10" d="M20.37,38.121c-0.383-0.218-1.674-1.163-1.674-1.163s-0.472-0.298-0.692-0.752
				c-0.046-0.095-0.081-0.198-0.098-0.306c-0.098-0.621-0.151-1.427,0.44-2.436c0.296-0.504,0.787-0.737,1.206-0.845
				c0.417-0.107,0.762-0.088,0.762-0.088l1.694,0.418c1.296,0.165,2.085,0.74,2.147,2.389c0.057,1.491-1.019,3.057-2.367,3.111
				C20.921,38.484,20.754,38.339,20.37,38.121z"/>
			<path class="st6" d="M16.72,35.319c-0.055-0.046-0.131-0.175-0.192-0.346c-0.047-0.135-0.085-0.296-0.093-0.464
				c-0.017-0.381,0.112-1.21,0.678-1.752c0.19-0.182,0.403-0.29,0.602-0.354c0.395-0.126,0.735-0.077,0.735-0.077l1.103,0.293
				c-0.418,0.106-0.91,0.339-1.206,0.845c-0.592,1.01-0.539,1.815-0.44,2.436c0.017,0.108,0.052,0.21,0.098,0.306
				C18.005,36.206,16.813,35.401,16.72,35.319z"/>
			<path class="st14" d="M15.351,34.173c0,0-0.329-0.504-0.095-1.279s1.177-0.778,1.222-0.782s1.235,0.29,1.235,0.29
				c-0.199,0.063-0.412,0.172-0.602,0.354c-0.565,0.542-0.695,1.371-0.678,1.752c0.007,0.168,0.045,0.33,0.093,0.464L15.351,34.173z
				"/>
			
				<ellipse transform="matrix(0.3337 -0.9427 0.9427 0.3337 -19.1279 44.3905)" class="st15" cx="21.838" cy="35.726" rx="2.493" ry="1.994"/>
			<path class="st16" d="M21.334,36.983l-0.157-2.11c-0.008-0.111,0.074-0.232,0.183-0.269l0.756-0.261
				c0.109-0.037,0.204,0.023,0.212,0.134l0.157,2.11c0.008,0.111-0.074,0.232-0.183,0.269l-0.756,0.261
				C21.438,37.154,21.342,37.094,21.334,36.983z"/>
			<path class="st17" d="M21.334,36.983l-0.157-2.11c-0.008-0.111,0.074-0.232,0.183-0.269l0.756-0.261
				c0.109-0.037,0.204,0.023,0.212,0.134l0.157,2.11c0.008,0.111-0.074,0.232-0.183,0.269l-0.756,0.261
				C21.438,37.154,21.342,37.094,21.334,36.983z"/>
			<g>
				<path class="st18" d="M21.798,36.675l-0.475,0.164l0.011,0.145c0.008,0.111,0.104,0.171,0.212,0.134l0.757-0.261
					c0.109-0.037,0.191-0.159,0.183-0.269l-0.157-2.11c-0.008-0.111-0.104-0.171-0.212-0.134l-0.281,0.097l0.146,1.966
					C21.99,36.516,21.908,36.637,21.798,36.675z"/>
			</g>
		</g>
	</g>
	<g>
		<path class="st8" d="M19.837,30.796c0,0-0.764,0.304-0.817,0.488c-0.053,0.184,0.217,0.344,0.476,0.504
			c0.039,0.024,0.078,0.047,0.117,0.069c0.218,0.121,0.45,0.204,0.943,0.301c0.581,0.114,1.117,0.209,2.726-0.045
			c0.604-0.095,0.982-0.197,1.221-0.301c0.397-0.173,0.405-0.35,0.415-0.505c0.016-0.249-0.643-0.334-0.643-0.334l-2.096-0.54
			L19.837,30.796z"/>
		<path class="st7" d="M24.271,31.23c0,0-0.046,0.138-0.217,0.252s-0.407,0.255-1.441,0.399c-1.033,0.144-2.302-0.144-2.606-0.312
			c-0.304-0.168-0.344-0.558-0.344-0.558s-0.066,0.184-0.096,0.221c-0.03,0.036,0.047,0.625,0.047,0.625
			c0.218,0.121,0.45,0.204,0.943,0.301c0.581,0.114,1.117,0.209,2.726-0.045c0.604-0.095,0.982-0.197,1.221-0.301L24.271,31.23z"/>
		<path class="st6" d="M21.279,30.572c-1.606,0.036-1.616,0.44-1.616,0.44s0.04,0.39,0.344,0.558
			c0.304,0.168,1.572,0.456,2.606,0.312c1.033-0.144,1.27-0.285,1.441-0.399s0.217-0.252,0.217-0.252
			C24.238,30.919,22.884,30.537,21.279,30.572z"/>
		<path class="st13" d="M21.663,30.415c0,0,0.923-0.281,1.378-0.349c0.455-0.068,0.467,0.089,0.467,0.089l0.062,0.837
			c0,0-0.021,0.171-0.306,0.27c-0.285,0.099-1.217,0.248-1.793,0.212c-0.575-0.035-0.881-0.226-0.881-0.226l-0.029-0.391
			C21.053,30.83,21.663,30.415,21.663,30.415z"/>
		<path class="st10" d="M20.088,30.847c-0.243-0.094-0.687-0.319-1.014-0.946c-0.327-0.627,0.097-1.423,0.163-1.731
			c0.066-0.308-0.087-1.015-0.055-1.905s0.693-1.287,0.693-1.287l3.039-0.518c0,0,0.51-0.229,1.134,0.601
			c0.623,0.83,0.745,1.854,0.763,2.852c0.018,0.997-0.632,1.922-0.845,2.079c-0.213,0.157-0.451,0.274-0.451,0.274l-0.008-0.112
			c0,0-0.012-0.157-0.467-0.089c-0.455,0.067-1.378,0.349-1.378,0.349s-0.609,0.415-1.101,0.441
			C20.56,30.856,20.331,30.94,20.088,30.847z"/>
		<path class="st15" d="M19.391,25.709c0.105-0.243,0.692-0.95,1.306-0.097c0.614,0.853,1.342,3.09,0.477,4.446
			c-0.865,1.356-2.101-0.159-2.101-0.159c-0.327-0.627,0.097-1.423,0.163-1.731c0.066-0.308-0.087-1.015-0.055-1.905
			C19.182,26.263,19.286,25.953,19.391,25.709z"/>
		<g>
			<g>
				<path class="st17" d="M20.787,29.207c-0.023,0.064,0.004,0.139,0.06,0.167c0.016,0.009,0.033,0.012,0.05,0.01
					c0.04-0.003,0.076-0.031,0.092-0.076c0.006-0.016,0.144-0.414,0.128-1.122c-0.015-0.705-0.265-1.409-0.275-1.439
					c-0.024-0.065-0.087-0.098-0.143-0.072c-0.055,0.025-0.081,0.099-0.058,0.165c0.003,0.007,0.244,0.69,0.259,1.346
					C20.912,28.836,20.787,29.203,20.787,29.207z"/>
				<path class="st17" d="M19.526,29.935c0.041,0.033,0.397,0.316,0.687,0.307c0.007-0.001,0.015-0.001,0.022-0.002
					c0.292-0.022,0.49-0.274,0.498-0.285c0.04-0.052,0.035-0.132-0.009-0.18c-0.045-0.047-0.114-0.044-0.153,0.007
					c-0.003,0.003-0.159,0.197-0.369,0.205c-0.184,0.006-0.462-0.185-0.553-0.26c-0.05-0.04-0.117-0.027-0.151,0.03
					C19.464,29.815,19.477,29.894,19.526,29.935z"/>
				<path class="st17" d="M19.481,28.373c-0.004,0.317,0.05,0.684,0.052,0.7c0.01,0.065,0.06,0.112,0.116,0.108
					c0.003,0,0.006,0,0.009-0.001c0.059-0.01,0.099-0.076,0.088-0.145c0-0.004-0.053-0.36-0.049-0.652
					c0.003-0.239,0.231-0.428,0.233-0.43c0.048-0.041,0.059-0.12,0.024-0.177c-0.035-0.058-0.103-0.073-0.152-0.033
					C19.79,27.752,19.485,28.004,19.481,28.373z"/>
				<path class="st17" d="M20.43,26.146c0.018-0.067-0.012-0.138-0.069-0.162c-0.173-0.071-0.544-0.11-0.706,0.262
					c-0.17,0.393-0.194,0.852-0.195,0.871c-0.004,0.07,0.043,0.131,0.102,0.137c0.006,0.001,0.011,0,0.016,0
					c0.054-0.004,0.096-0.052,0.1-0.117c0-0.004,0.022-0.427,0.172-0.771c0.117-0.27,0.429-0.147,0.443-0.142
					C20.35,26.246,20.411,26.212,20.43,26.146z"/>
			</g>
			<g>
				<path class="st18" d="M20.869,29.383c0.009,0.002,0.018,0.003,0.027,0.002c0.04-0.003,0.076-0.031,0.092-0.076
					c0.006-0.016,0.144-0.414,0.128-1.122c-0.013-0.613-0.203-1.224-0.26-1.394c-0.022-0.007-0.045-0.007-0.067,0.004
					c-0.055,0.025-0.081,0.099-0.058,0.165c0.003,0.007,0.244,0.69,0.259,1.346c0.014,0.65-0.11,1.016-0.112,1.02
					C20.871,29.345,20.869,29.363,20.869,29.383z"/>
				<path class="st18" d="M19.572,29.969c0.113,0.085,0.4,0.28,0.642,0.272c0.007-0.001,0.015-0.001,0.022-0.002
					c0.292-0.022,0.49-0.274,0.498-0.285c0.02-0.026,0.029-0.058,0.027-0.09c-0.036-0.007-0.074,0.005-0.099,0.038
					c-0.003,0.003-0.159,0.197-0.369,0.205c-0.184,0.006-0.462-0.185-0.553-0.26c-0.05-0.04-0.117-0.027-0.151,0.03
					C19.572,29.906,19.568,29.939,19.572,29.969z"/>
				<path class="st18" d="M19.619,29.177c0.009,0.002,0.018,0.004,0.028,0.003c0.003,0,0.006,0,0.009-0.001
					c0.059-0.01,0.099-0.076,0.088-0.145c0-0.004-0.053-0.36-0.049-0.652c0.003-0.239,0.231-0.428,0.233-0.43
					c0.031-0.025,0.047-0.067,0.045-0.109c-0.028-0.006-0.056,0-0.081,0.02c-0.013,0.011-0.318,0.262-0.323,0.631
					C19.566,28.778,19.61,29.102,19.619,29.177z"/>
				<path class="st18" d="M20.429,26.145c0.005-0.015,0.007-0.032,0.005-0.048c-0.179-0.067-0.532-0.092-0.689,0.269
					c-0.17,0.393-0.194,0.852-0.195,0.871c0,0.005,0.001,0.009,0.001,0.014c0.004,0.001,0.007,0.001,0.011,0.002
					c0.006,0.001,0.011,0,0.016,0c0.054-0.004,0.096-0.052,0.1-0.117c0-0.004,0.022-0.427,0.172-0.771
					c0.117-0.27,0.429-0.147,0.443-0.142C20.35,26.246,20.411,26.212,20.429,26.145z"/>
			</g>
		</g>
	</g>
	<g>
		<path class="st8" d="M33.54,34.407c0.544,0.268,0.307,0.702,0.067,0.9c-0.051,0.042-0.16,0.098-0.329,0.157
			c-0.625,0.217-2.059,0.464-4.337,0.115c-1-0.154-1.636-0.328-2.033-0.499c-0.751-0.323-0.651-0.637-0.564-0.791
			c0.132-0.234,1.26-0.613,1.33-0.638C30.546,32.598,32.996,34.138,33.54,34.407z"/>
		<path class="st7" d="M33.004,34.576c-0.09-0.151-0.613-0.55-1.339-0.788s-2.233-0.272-3.404-0.151
			c-1.17,0.12-1.246,0.609-1.246,0.609l-0.106,0.833c0.397,0.171,1.031,0.345,2.033,0.499c2.277,0.349,3.713,0.102,4.337-0.115
			C33.278,35.463,33.094,34.726,33.004,34.576z"/>
		<path class="st6" d="M29.467,35.198c2.533,0.323,3.537-0.622,3.537-0.622c-0.09-0.151-0.613-0.55-1.339-0.788
			s-2.233-0.272-3.404-0.151c-1.17,0.12-1.246,0.609-1.246,0.609S26.933,34.876,29.467,35.198z"/>
		<path class="st13" d="M31.453,33.679l0.024,0.324c0,0,0.028,0.065-0.231,0.208c-0.259,0.144-1.125,0.433-1.877,0.432
			s-1.49-0.407-1.49-0.407l-0.061-0.826C28.261,33.065,31.454,33.679,31.453,33.679z"/>
		<g>
			<path class="st10" d="M25.345,30.069c-1.292,1.814,0.557,2.665,0.557,2.665s2.604,0.88,3.145,1.058
				c0.541,0.177,1.873,0.265,3.223-0.458c1.35-0.723,1.961-1.568,1.984-2.625s-1.287-1.444-1.287-1.444s-4.004-0.836-4.039-0.845
				C28.929,28.42,26.636,28.254,25.345,30.069z"/>
			<path class="st15" d="M31.907,33.274c-1.383,0.627-3.836,0.218-3.694-1.039c0.142-1.257,1.597-2.398,3.667-2.642
				c2.071-0.244,2.275,1.291,2.275,1.291C34.093,31.866,33.289,32.648,31.907,33.274z"/>
			<path class="st17" d="M31.401,31.065c0.219-0.019,0.374,0.203,0.348,0.496c-0.026,0.293-0.226,0.547-0.445,0.567
				c-0.11,0.009-0.204-0.041-0.266-0.131c-0.063-0.09-0.094-0.219-0.081-0.365C30.983,31.338,31.182,31.084,31.401,31.065z"/>
			<path class="st18" d="M31.356,31.654c0.118-0.196,0.044-0.589,0.044-0.589c0.219-0.019,0.374,0.203,0.348,0.496
				c-0.026,0.293-0.226,0.547-0.445,0.567c-0.11,0.009-0.204-0.041-0.266-0.131C31.037,31.996,31.238,31.85,31.356,31.654z"/>
		</g>
	</g>
	<g>
		<path class="st8" d="M12.564,32.859c0,0,1.164,0.542,1.208,0.539c0.044-0.003,0.992,0.255,0.873,0.468
			c-0.064,0.115-0.136,0.306-0.489,0.515c-0.301,0.178-0.804,0.369-1.679,0.537c-1.904,0.367-3.099,0.006-3.406-0.091
			c-0.307-0.097-0.653-0.716-0.611-0.958c0.041-0.243,0.934-0.543,1.035-0.571C11.124,32.832,12.564,32.859,12.564,32.859z"/>
		<path class="st19" d="M13.971,33.864c0,0-0.094,0.142-0.334,0.34c-0.24,0.197-1.131,0.503-1.666,0.558
			c-0.535,0.055-1.768-0.003-2.176-0.257c-0.408-0.254-0.719-0.815-0.719-0.815L9.07,34.828c0.307,0.096,1.501,0.457,3.406,0.091
			c0.875-0.168,1.378-0.359,1.679-0.537L13.971,33.864z"/>
		<path class="st20" d="M13.061,33.09c-0.523-0.235-2.204,0.001-2.939,0.049c-0.735,0.048-1.047,0.549-1.047,0.549
			s0.311,0.56,0.719,0.815c0.409,0.254,1.641,0.312,2.176,0.257s1.426-0.361,1.666-0.558c0.239-0.198,0.334-0.34,0.334-0.34
			C13.912,33.699,13.585,33.326,13.061,33.09z"/>
		<path class="st21" d="M11.913,34.237c0.783-0.124,1.141-0.562,1.141-0.562c-0.008-0.013-0.02-0.026-0.033-0.043
			c0.038-0.049,0.081-0.104,0.073-0.178c-0.009-0.076-0.073-0.117-0.126-0.165c0.167-0.145,0.113-0.273-0.028-0.343
			c0.062-0.052,0.112-0.108,0.095-0.191c-0.016-0.079-0.08-0.124-0.156-0.17c0.036-0.02,0.062-0.037,0.093-0.05
			c0.028-0.012,0.037-0.027,0.034-0.057c-0.014-0.122-0.025-0.246-0.035-0.369c-0.001-0.02,0.007-0.044,0.02-0.059
			c0.188-0.214,0.259-0.46,0.229-0.731c-0.042-0.386,0.076-0.737,0.257-1.072c0.131-0.243,0.28-0.479,0.413-0.723
			c0.182-0.333,0.267-0.692,0.261-1.066c-0.02-1.075-0.57-1.893-1.571-2.479c-0.432-0.254-0.915-0.368-1.425-0.377
			c-0.465-0.009-0.914,0.053-1.329,0.243c-0.468,0.215-0.843,0.525-1.147,0.909c-0.338,0.427-0.544,0.901-0.578,1.433
			c-0.046,0.681,0.151,1.302,0.629,1.851c0.21,0.241,0.411,0.489,0.579,0.756c0.151,0.239,0.248,0.493,0.271,0.767
			c0.023,0.278,0.138,0.52,0.369,0.717c0.019,0.016,0.029,0.044,0.032,0.068c0.009,0.073,0.001,0.148,0.023,0.217
			c0.021,0.065,0.03,0.122,0.014,0.189c-0.021,0.087,0.034,0.155,0.122,0.201c-0.118,0.112-0.108,0.184,0.045,0.347
			c-0.11,0.169-0.102,0.229,0.048,0.34c-0.015,0.019-0.03,0.038-0.045,0.058c-0.058,0.082-0.057,0.163,0.026,0.226
			C10.216,33.925,10.67,34.433,11.913,34.237z"/>
	</g>
</g>
</svg>
