<?xml version="1.0" encoding="utf-8"?>
<!-- Generator: Adobe Illustrator 25.4.1, SVG Export Plug-In . SVG Version: 6.00 Build 0)  -->
<svg version="1.1" id="Layer_1" xmlns="http://www.w3.org/2000/svg" xmlns:xlink="http://www.w3.org/1999/xlink" x="0px" y="0px"
	 viewBox="0 0 50 50" style="enable-background:new 0 0 50 50;" xml:space="preserve">
<style type="text/css">
	.st0{opacity:0.3;fill:#231F20;}
	.st1{fill:url(#SVGID_1_);}
	.st2{fill:#F4F4F3;}
	.st3{fill:#B0B2B4;}
	.st4{fill:#A0CEE2;}
	.st5{fill:#DCDDDE;stroke:#95979A;stroke-width:0.0124;stroke-miterlimit:10;}
	.st6{fill:#5A5B5D;}
	.st7{fill:url(#SVGID_00000007416597998207284150000014546746837416835250_);}
	.st8{fill:#00BDF0;}
</style>
<g>
	<path class="st0" d="M23.722,42.037c-0.128,2.265,4.019,4.788,9.473,5.097c5.454,0.309,10.15-1.714,10.279-3.978
		c0.128-2.265-4.06-5.77-9.515-6.08S23.85,39.772,23.722,42.037z"/>
	<g>
		<path class="st0" d="M23.25,40.417c-0.072,1.977-3.879,3.833-8.641,3.659c-4.762-0.174-8.677-2.312-8.604-4.289
			c0.072-1.977,3.995-4.682,8.757-4.508S23.323,38.44,23.25,40.417z"/>
		
			<linearGradient id="SVGID_1_" gradientUnits="userSpaceOnUse" x1="57.9211" y1="33.5527" x2="60.6713" y2="40.8525" gradientTransform="matrix(0.9927 0.1206 -0.1206 0.9927 -38.1559 -3.3304)">
			<stop  offset="0.0418" style="stop-color:#00BDF0"/>
			<stop  offset="0.3412" style="stop-color:#00BAF0"/>
			<stop  offset="0.5907" style="stop-color:#00AFF0"/>
			<stop  offset="0.8216" style="stop-color:#009EF0"/>
			<stop  offset="0.9318" style="stop-color:#0093F0"/>
		</linearGradient>
		<path class="st1" d="M17.235,42.793c-4.876,0.6-9.159-0.991-10.897-3.722c-0.54-0.848-1.245-4.931-1.097-5.776
			c0.385-2.19,2.667-2.551,6.255-3.192c4.972-0.887,10.411,0.958,12.149,4.121c0.355,0.647,0.638-0.365,0.646,0.27
			c0.007,0.52-1.004,4.151-1.209,4.637C22.312,40.957,20.526,42.388,17.235,42.793z"/>
		<path class="st0" d="M7.086,37.964c0.05,0.095,0.067,0.605,0.05,0.692c-0.023,0.086-0.115,0.28-0.178,0.361
			c-0.041-0.094-0.056-0.539-0.057-0.628C6.905,38.301,7.015,38.044,7.086,37.964z"/>
		<path class="st0" d="M10.079,39.915c0.073,0.125,0.117,0.708,0.094,0.822c-0.032,0.112-0.172,0.445-0.261,0.551
			c-0.061-0.123-0.098-0.642-0.102-0.758C9.815,40.414,9.978,40.019,10.079,39.915z"/>
		<path class="st0" d="M22.093,38.827c0.031,0.112,0.05,0.423,0.033,0.529c-0.022,0.106-0.138,0.651-0.189,0.754
			c-0.024-0.111-0.031-0.469-0.027-0.577C21.918,39.425,22.036,38.928,22.093,38.827z"/>
		<path class="st0" d="M18.775,40.582c0.073,0.125,0.139,0.529,0.116,0.642c-0.032,0.112-0.194,0.625-0.283,0.73
			c-0.061-0.123-0.109-0.551-0.113-0.667C18.5,41.172,18.674,40.686,18.775,40.582z"/>
		<path class="st0" d="M14.27,40.932c0.074,0.125,0.135,0.566,0.112,0.679c-0.032,0.112-0.19,0.588-0.278,0.693
			c-0.061-0.123-0.104-0.593-0.108-0.709C14,41.48,14.169,41.036,14.27,40.932z"/>
		<g>
			
				<ellipse transform="matrix(0.0521 -0.9986 0.9986 0.0521 -20.1278 47.0816)" class="st2" cx="14.737" cy="34.144" rx="5.925" ry="9.495"/>
			
				<ellipse transform="matrix(0.0521 -0.9986 0.9986 0.0521 -20.1278 47.0816)" class="st3" cx="14.737" cy="34.144" rx="3.824" ry="6.128"/>
			
				<ellipse transform="matrix(0.0521 -0.9986 0.9986 0.0521 -20.1646 47.2545)" class="st2" cx="14.81" cy="34.249" rx="3.667" ry="5.955"/>
			<polygon class="st4" points="17.778,36.344 15.644,31.395 11.697,31.944 13.831,36.892 			"/>
			
				<ellipse transform="matrix(0.0521 -0.9986 0.9986 0.0521 -28.3178 40.5483)" class="st5" cx="7.201" cy="35.191" rx="0.667" ry="1.069"/>
			
				<ellipse transform="matrix(0.0521 -0.9986 0.9986 0.0521 -26.3802 38.5112)" class="st5" cx="7.097" cy="33.152" rx="0.667" ry="1.069"/>
			
				<ellipse transform="matrix(0.0521 -0.9986 0.9986 0.0521 -23.4768 37.9176)" class="st5" cx="8.236" cy="31.326" rx="0.667" ry="1.069"/>
			
				<ellipse transform="matrix(0.0521 -0.9986 0.9986 0.0521 -20.1668 38.7243)" class="st5" cx="10.316" cy="29.985" rx="0.667" ry="1.069"/>
			
				<ellipse transform="matrix(0.0521 -0.9986 0.9986 0.0521 -28.666 43.8532)" class="st5" cx="8.768" cy="37.027" rx="0.667" ry="1.069"/>
			
				<ellipse transform="matrix(0.0521 -0.9986 0.9986 0.0521 -27.619 47.5981)" class="st5" cx="11.264" cy="38.348" rx="0.667" ry="1.069"/>
			
				<ellipse transform="matrix(0.0521 -0.9986 0.9986 0.0521 -25.4789 51.139)" class="st5" cx="14.199" cy="38.991" rx="0.667" ry="1.069"/>
			<g>
				<path class="st5" d="M23.408,33.726c-0.118-0.529-0.342-1.049-0.668-1.549c-0.232-0.357-0.823-0.522-1.243-0.384l0,0
					c-0.421,0.138-0.57,0.473-0.387,0.756c0.268,0.411,0.453,0.84,0.55,1.275c0.068,0.299,0.472,0.557,0.958,0.569l0,0
					C23.103,34.405,23.493,34.103,23.408,33.726z"/>
				<path class="st5" d="M23.408,33.726c-0.118-0.529-0.342-1.049-0.668-1.549c-0.232-0.357-0.823-0.522-1.243-0.384l0,0
					c-0.421,0.138-0.57,0.473-0.387,0.756c0.268,0.411,0.453,0.84,0.55,1.275c0.068,0.299,0.472,0.557,0.958,0.569l0,0
					C23.103,34.405,23.493,34.103,23.408,33.726z"/>
			</g>
			<g>
				<path class="st5" d="M22.208,37.219c0.431-0.443,0.768-0.921,1.002-1.423c0.167-0.358-0.149-0.713-0.628-0.774l0,0
					c-0.481-0.061-0.935,0.132-1.069,0.416c-0.192,0.413-0.47,0.807-0.825,1.171c-0.243,0.251-0.171,0.602,0.212,0.801l0,0
					C21.282,37.609,21.901,37.535,22.208,37.219z"/>
				<path class="st5" d="M22.208,37.219c0.431-0.443,0.768-0.921,1.002-1.423c0.167-0.358-0.149-0.713-0.628-0.774l0,0
					c-0.481-0.061-0.935,0.132-1.069,0.416c-0.192,0.413-0.47,0.807-0.825,1.171c-0.243,0.251-0.171,0.602,0.212,0.801l0,0
					C21.282,37.609,21.901,37.535,22.208,37.219z"/>
			</g>
			<g>
				<path class="st5" d="M18.861,29.457c0.743,0.279,1.43,0.615,2.046,0.999c0.44,0.274,0.449,0.672,0.073,0.851l0,0
					c-0.377,0.18-0.936,0.128-1.286-0.088c-0.507-0.316-1.073-0.592-1.684-0.822c-0.42-0.159-0.642-0.489-0.464-0.766l0,0
					C17.722,29.353,18.331,29.257,18.861,29.457z"/>
				<path class="st5" d="M18.861,29.457c0.743,0.279,1.43,0.615,2.046,0.999c0.44,0.274,0.449,0.672,0.073,0.851l0,0
					c-0.377,0.18-0.936,0.128-1.286-0.088c-0.507-0.316-1.073-0.592-1.684-0.822c-0.42-0.159-0.642-0.489-0.464-0.766l0,0
					C17.722,29.353,18.331,29.257,18.861,29.457z"/>
			</g>
			<polygon class="st6" points="18.969,34.813 17.973,32.503 17.565,32.56 18.561,34.87 			"/>
			<polygon class="st6" points="12.032,34.382 11.036,32.072 10.628,32.129 11.624,34.439 			"/>
		</g>
	</g>
	<g>
		<g>
			
				<linearGradient id="SVGID_00000106847488382484008210000001710527468434322060_" gradientUnits="userSpaceOnUse" x1="-301.349" y1="182.4903" x2="-298.1962" y2="190.859" gradientTransform="matrix(-0.8255 -0.5644 -0.5644 0.8255 -113.2749 -283.257)">
				<stop  offset="0.0689" style="stop-color:#00D91A"/>
				<stop  offset="0.9761" style="stop-color:#00721A"/>
			</linearGradient>
			<path style="fill:url(#SVGID_00000106847488382484008210000001710527468434322060_);" d="M26.403,41.032
				c3.747,4.205,8.639,6.075,12.203,5.037c1.106-0.322,4.803-3.306,5.314-4.146c1.325-2.178-0.368-4.215-2.974-7.481
				c-3.611-4.525-9.693-7.051-13.583-5.64c-0.795,0.288-0.273-0.797-0.761-0.256c-0.399,0.443-2.275,4.335-2.466,4.909
				C23.419,35.609,23.874,38.193,26.403,41.032z"/>
			
				<ellipse transform="matrix(0.6106 -0.7919 0.7919 0.6106 -14.3608 41.604)" class="st2" cx="35.128" cy="35.406" rx="6.798" ry="10.946"/>
			<g>
				<path class="st8" d="M27.774,30.883c-0.001,0.002-0.004,0.005-0.006,0.008c0.005-0.007,0.008-0.014,0.012-0.021
					C27.778,30.874,27.777,30.879,27.774,30.883z"/>
				<path class="st2" d="M27.718,30.961c0.016-0.023,0.038-0.049,0.051-0.07C27.752,30.914,27.735,30.937,27.718,30.961z"/>
			</g>
			
				<ellipse transform="matrix(0.6106 -0.7919 0.7919 0.6106 -14.3608 41.604)" class="st3" cx="35.128" cy="35.406" rx="4.388" ry="7.065"/>
			
				<ellipse transform="matrix(0.6106 -0.7919 0.7919 0.6106 -14.4844 41.5087)" class="st2" cx="34.97" cy="35.484" rx="4.208" ry="6.862"/>
			<polygon class="st4" points="33.534,38.263 39.544,36.084 36.723,32.549 30.713,34.728 			"/>
			
				<ellipse transform="matrix(0.6106 -0.7919 0.7919 0.6106 -11.1137 34.7118)" class="st5" cx="29.743" cy="28.658" rx="0.765" ry="1.232"/>
			
				<ellipse transform="matrix(0.6106 -0.7919 0.7919 0.6106 -9.837 36.9119)" class="st5" cx="32.619" cy="28.46" rx="0.765" ry="1.232"/>
			
				<ellipse transform="matrix(0.6106 -0.7919 0.7919 0.6106 -9.3273 39.8178)" class="st5" cx="35.829" cy="29.394" rx="0.765" ry="1.232"/>
			
				<ellipse transform="matrix(0.6106 -0.7919 0.7919 0.6106 -9.593 42.8948)" class="st5" cx="38.825" cy="31.203" rx="0.765" ry="1.232"/>
			
				<ellipse transform="matrix(0.6106 -0.7919 0.7919 0.6106 -13.0205 33.8493)" class="st5" cx="27.912" cy="30.166" rx="0.765" ry="1.232"/>
			
				<ellipse transform="matrix(0.6106 -0.7919 0.7919 0.6106 -15.0964 34.2678)" class="st5" cx="27.3" cy="32.486" rx="0.765" ry="1.232"/>
			
				<ellipse transform="matrix(0.6106 -0.7919 0.7919 0.6106 -16.9916 35.7773)" class="st5" cx="27.888" cy="35.168" rx="0.765" ry="1.232"/>
			<g>
				<path class="st5" d="M40.193,43.21c0.699-0.134,1.331-0.363,1.881-0.682c0.393-0.227,0.326-0.77-0.088-1.141l0,0
					c-0.416-0.373-0.972-0.49-1.285-0.311c-0.453,0.263-0.974,0.451-1.549,0.561c-0.395,0.077-0.557,0.454-0.324,0.894l0,0
					C39.06,42.97,39.695,43.306,40.193,43.21z"/>
				<path class="st5" d="M40.193,43.21c0.699-0.134,1.331-0.363,1.881-0.682c0.393-0.227,0.326-0.77-0.088-1.141l0,0
					c-0.416-0.373-0.972-0.49-1.285-0.311c-0.453,0.263-0.974,0.451-1.549,0.561c-0.395,0.077-0.557,0.454-0.324,0.894l0,0
					C39.06,42.97,39.695,43.306,40.193,43.21z"/>
			</g>
			<g>
				<path class="st5" d="M34.558,42.306c0.858,0.367,1.718,0.646,2.559,0.831c0.601,0.133,0.948-0.171,0.788-0.606l0,0
					c-0.16-0.437-0.671-0.837-1.147-0.943c-0.693-0.153-1.401-0.383-2.107-0.684c-0.486-0.206-0.953-0.124-1.042,0.232l0,0
					C33.52,41.49,33.945,42.045,34.558,42.306z"/>
				<path class="st5" d="M34.558,42.306c0.858,0.367,1.718,0.646,2.559,0.831c0.601,0.133,0.948-0.171,0.788-0.606l0,0
					c-0.16-0.437-0.671-0.837-1.147-0.943c-0.693-0.153-1.401-0.383-2.107-0.684c-0.486-0.206-0.953-0.124-1.042,0.232l0,0
					C33.52,41.49,33.945,42.045,34.558,42.306z"/>
			</g>
			<g>
				<path class="st5" d="M43.985,38.888c-0.019,0.684-0.147,1.322-0.382,1.897c-0.167,0.411-0.734,0.439-1.185,0.109l0,0
					c-0.453-0.331-0.666-0.838-0.535-1.165c0.193-0.474,0.299-0.999,0.314-1.562c0.012-0.387,0.372-0.604,0.862-0.458l0,0
					C43.547,37.855,43.999,38.4,43.985,38.888z"/>
				<path class="st5" d="M43.985,38.888c-0.019,0.684-0.147,1.322-0.382,1.897c-0.167,0.411-0.734,0.439-1.185,0.109l0,0
					c-0.453-0.331-0.666-0.838-0.535-1.165c0.193-0.474,0.299-0.999,0.314-1.562c0.012-0.387,0.372-0.604,0.862-0.458l0,0
					C43.547,37.855,43.999,38.4,43.985,38.888z"/>
			</g>
			<polygon class="st6" points="36.346,39.259 39.151,38.242 38.859,37.877 36.054,38.894 			"/>
			<polygon class="st6" points="33.393,32.977 36.199,31.96 35.907,31.594 33.102,32.612 			"/>
		</g>
		<path class="st0" d="M38.799,44.549c-0.115,0.044-0.515,0.471-0.566,0.558c-0.046,0.092-0.112,0.328-0.12,0.445
			c0.106-0.05,0.456-0.422,0.524-0.498C38.7,44.976,38.799,44.672,38.799,44.549z"/>
		<path class="st0" d="M34.744,43.966c-0.158,0.052-0.637,0.521-0.703,0.636c-0.058,0.121-0.188,0.514-0.192,0.672
			c0.146-0.06,0.57-0.478,0.661-0.576C34.594,44.595,34.753,44.132,34.744,43.966z"/>
		<path class="st0" d="M25.141,33.858c-0.111,0.073-0.363,0.326-0.428,0.431c-0.061,0.108-0.374,0.666-0.408,0.792
			c0.105-0.078,0.382-0.38,0.46-0.477C24.839,34.506,25.113,33.989,25.141,33.858z"/>
		<path class="st0" d="M26.749,37.962c-0.158,0.052-0.52,0.35-0.586,0.465c-0.058,0.121-0.305,0.685-0.309,0.843
			c0.146-0.06,0.511-0.392,0.602-0.489C26.54,38.678,26.757,38.128,26.749,37.962z"/>
		<path class="st0" d="M30.365,41.671c-0.158,0.052-0.544,0.385-0.61,0.5c-0.058,0.121-0.281,0.65-0.285,0.808
			c0.146-0.06,0.538-0.432,0.63-0.529C30.183,42.347,30.374,41.837,30.365,41.671z"/>
	</g>
</g>
</svg>
