<svg version="1.1" xmlns="http://www.w3.org/2000/svg" xmlns:xlink="http://www.w3.org/1999/xlink" viewBox="0 0 400 400">
<g ng-click="projectBasedLearningSelected()" ng-mouseover="showPblPopover=true;" ng-mouseleave="showPblPopover=false;">
<path class="white-fill" d="M184.894,19.98c-0.276,0-0.552,0.012-0.829,0.037C139.75,23.97,98.697,44.251,68.468,77.122 c-30.416,33.074-47.166,76.052-47.166,121.016c0,26.153,5.531,51.377,16.439,74.97c1.1,2.378,3.149,4.185,5.647,4.977 c0.921,0.292,1.872,0.436,2.819,0.436c1.621,0,3.231-0.423,4.664-1.25l81.62-47.124c3.83-2.211,5.58-6.808,4.192-11.006 c-2.246-6.792-3.386-13.858-3.386-21.003c0-31.663,22.481-59.214,53.456-65.511c4.346-0.884,7.469-4.705,7.469-9.14v-94.18 c0-2.618-1.1-5.115-3.032-6.882C189.463,20.846,187.214,19.98,184.894,19.98L184.894,19.98z"/>
<path class="grey-fill" d="M93.042,126.564c3.852,0,6.984-3.132,6.984-6.984s-3.132-7.101-6.984-7.101s-7.101,3.249-7.101,7.101 S89.19,126.564,93.042,126.564z"/>
<path class="grey-fill" d="M112.521,157.966c2.76,0.439,6.713-2.823,6.713-6.957c0-3.852-3.132-6.984-6.984-6.984 c-3.852,0-6.984,3.132-6.984,6.984C105.265,154.837,108.403,158.128,112.521,157.966z"/>
<path class="grey-fill" d="M73.357,157.957c4.175,0.218,7.346-3.102,7.346-6.948c0-3.852-3.132-6.984-6.984-6.984 s-6.984,3.132-6.984,6.984C66.734,155.132,70.584,158.271,73.357,157.957z"/>
<path class="grey-fill" d="M120.001,157.993c-1.919,2.128-4.668,3.492-7.752,3.492c-3.084,0-5.833-1.364-7.752-3.492 c-1.675,1.858-2.725,4.408-2.725,7.101v1.746c0,0.965,0.781,1.746,1.746,1.746h17.461c0.965,0,1.862-0.781,1.862-1.746v-1.746 C122.842,162.401,121.676,159.851,120.001,157.993z"/>
<path class="grey-fill" d="M103.518,135.294v-1.746c0-2.693-1.05-5.127-2.725-6.984c-1.919,2.128-4.667,3.492-7.752,3.492 c-3.084,0-5.949-1.364-7.868-3.492c-1.675,1.858-2.725,4.291-2.725,6.984v1.746c0,0.965,0.781,1.746,1.746,1.746h17.577 C102.738,137.041,103.518,136.26,103.518,135.294z"/>
<path class="grey-fill" d="M73.719,161.486c-3.084,0-5.833-1.364-7.752-3.492c-1.675,1.858-2.725,4.408-2.725,7.101v1.746 c0,0.965,0.781,1.746,1.746,1.746h17.461c0.965,0,1.746-0.781,1.746-1.746v-1.746c0-2.693-1.05-5.243-2.725-7.101 C79.551,160.121,76.803,161.486,73.719,161.486z"/>
<path class="grey-fill" d="M75.764,140.739c0.856-1.712,1.956-3.285,3.271-4.671c-0.038-0.254-0.078-0.509-0.078-0.774v-1.746 c0-0.782,0.085-1.555,0.217-2.319c-3.207,2.458-5.701,5.747-7.235,9.483c0.581-0.1,1.17-0.18,1.779-0.18 C74.419,140.533,75.102,140.608,75.764,140.739z"/>
<path class="grey-fill" d="M107.011,135.294c0,0.265-0.04,0.519-0.078,0.774c1.315,1.387,2.415,2.959,3.271,4.671 c0.662-0.132,1.345-0.207,2.045-0.207c0.609,0,1.198,0.079,1.779,0.18c-1.534-3.736-4.028-7.025-7.235-9.483 c0.132,0.764,0.217,1.537,0.217,2.319V135.294z"/>
<path class="grey-fill" d="M98.375,167.782c-3.47,0.977-7.313,0.977-10.783,0c-0.228,1.245-0.902,2.322-1.844,3.094 c2.301,0.77,4.827,1.203,7.294,1.203s4.876-0.434,7.177-1.203C99.278,170.104,98.603,169.026,98.375,167.782z"/>
</g>
<g ng-click="customizedContentCreationSelected()" ng-mouseover="showCustomizedContentPopover=true;" ng-mouseleave="showCustomizedContentPopover=false;">
<path class="white-fill" d="M218.798,20.314c-2.286,0-4.506,0.841-6.226,2.382c-1.973,1.769-3.101,4.294-3.101,6.945v94.623 c0,4.275,2.906,8.002,7.051,9.045c29.724,7.48,50.483,34.138,50.483,64.828c0,6.994-1.088,13.91-3.233,20.555 c-1.351,4.185,0.404,8.744,4.212,10.943l81.672,47.153c1.432,0.827,3.043,1.25,4.664,1.25c0.952,0,1.907-0.146,2.833-0.441 c2.501-0.797,4.551-2.612,5.645-4.999C373.549,249.153,379,224.1,379,198.138c0-44.338-16.344-86.869-46.021-119.76 c-29.455-32.644-69.645-53.246-113.166-58.008C219.474,20.333,219.135,20.314,218.798,20.314L218.798,20.314z"/>
<path class="grey-fill" d="M296.572,167.126c-1.57,0-7.915-0.004-9.485-0.004c-1.217,0-2.362,0.476-3.224,1.339 c-0.861,0.862-1.334,2.006-1.332,3.22l0.006,4.357c0.001,0.707,0.396,1.354,1.025,1.677c2.544,1.308,5.41,2,8.288,2 s5.744-0.692,8.289-2c0.629-0.323,1.024-0.971,1.025-1.678l0.006-4.352c0.002-1.201-0.471-2.338-1.332-3.2 C298.975,167.621,297.784,167.126,296.572,167.126z"/>
<path class="grey-fill" d="M291.849,165.474c3.738,0,6.779-3.041,6.779-6.779c0-3.737-3.041-6.779-6.779-6.779s-6.779,3.041-6.779,6.779 C285.07,162.432,288.111,165.474,291.849,165.474z"/>
<path class="grey-fill" d="M338.882,168.485c-0.863-0.864-2.053-1.359-3.266-1.359c-1.57,0-7.915-0.004-9.485-0.004 c-1.217,0-2.362,0.476-3.224,1.339c-0.861,0.863-1.334,2.006-1.332,3.22l0.006,4.357c0.001,0.707,0.397,1.354,1.025,1.677 c2.544,1.308,5.41,2,8.288,2s5.744-0.692,8.288-2c0.629-0.323,1.024-0.971,1.025-1.678l0.006-4.353 C340.217,170.484,339.743,169.347,338.882,168.485z"/>
<circle class="grey-fill" cx="330.893" cy="158.695" r="6.779"/>
<path class="grey-fill" d="M311.364,121.233c1.044,0,1.889-0.846,1.889-1.889v-2.23c0-1.044-0.846-1.889-1.889-1.889 c-1.044,0-1.889,0.846-1.889,1.889v2.23C309.475,120.387,310.321,121.233,311.364,121.233z"/>
<path class="grey-fill" d="M326.445,136.314c0,1.044,0.846,1.889,1.889,1.889h2.23c1.044,0,1.889-0.846,1.889-1.889 s-0.846-1.889-1.889-1.889h-2.23C327.291,134.425,326.445,135.271,326.445,136.314z"/>
<path class="grey-fill" d="M292.164,138.204h2.23c1.044,0,1.889-0.846,1.889-1.889s-0.846-1.889-1.889-1.889h-2.23 c-1.043,0-1.889,0.846-1.889,1.889S291.121,138.204,292.164,138.204z"/>
<path class="grey-fill" d="M293.792,128.35l1.931,1.115c0.298,0.172,0.622,0.253,0.943,0.253c0.653,0,1.288-0.339,1.638-0.945 c0.522-0.903,0.212-2.059-0.691-2.581l-1.931-1.115c-0.904-0.522-2.059-0.213-2.581,0.691 C292.578,126.673,292.888,127.828,293.792,128.35z"/>
<path class="grey-fill" d="M301.243,122.562c0.35,0.606,0.985,0.945,1.638,0.945c0.321,0,0.646-0.082,0.943-0.253 c0.903-0.522,1.213-1.677,0.691-2.581l-1.115-1.931c-0.522-0.904-1.678-1.213-2.581-0.691c-0.903,0.522-1.213,1.677-0.691,2.581 L301.243,122.562z"/>
<path class="grey-fill" d="M318.905,123.253c0.298,0.172,0.622,0.253,0.943,0.253c0.653,0,1.288-0.339,1.638-0.945l1.115-1.931 c0.522-0.904,0.212-2.059-0.691-2.581c-0.904-0.523-2.06-0.213-2.581,0.691l-1.115,1.931 C317.691,121.576,318.001,122.732,318.905,123.253z"/>
<path class="grey-fill" d="M326.063,129.719c0.32,0,0.646-0.082,0.943-0.253l1.931-1.115c0.903-0.522,1.213-1.677,0.691-2.581 s-1.677-1.213-2.581-0.691l-1.931,1.115c-0.904,0.522-1.213,1.677-0.691,2.581C324.775,129.38,325.41,129.719,326.063,129.719z"/>
<path class="grey-fill" d="M327.048,147.551c0.297,0.172,0.622,0.253,0.943,0.253c0.653,0,1.288-0.339,1.638-0.945 c0.522-0.903,0.213-2.059-0.691-2.581l-1.931-1.115c-0.904-0.522-2.059-0.213-2.581,0.691c-0.522,0.904-0.212,2.059,0.691,2.581 L327.048,147.551z"/>
<path class="grey-fill" d="M293.792,144.278c-0.904,0.522-1.213,1.677-0.691,2.581c0.35,0.606,0.985,0.945,1.638,0.945 c0.32,0,0.646-0.082,0.943-0.253l1.931-1.115c0.904-0.522,1.213-1.677,0.691-2.581s-1.677-1.213-2.581-0.691L293.792,144.278z"/>
<path class="grey-fill" d="M311.364,122.337c-7.69,0-13.946,6.256-13.946,13.946c0,5.114,2.794,9.811,7.29,12.258 c0.095,0.051,0.166,0.114,0.216,0.188h4.575c-0.015-0.095-0.025-0.192-0.025-0.291v-8.52l-2.241-2.241 c-0.738-0.738-0.738-1.934,0-2.672s1.934-0.738,2.672,0l1.458,1.458l1.458-1.458c0.738-0.738,1.934-0.738,2.672,0 s0.738,1.934,0,2.672l-2.241,2.241v8.52c0,0.099-0.01,0.196-0.025,0.291h4.575c0.05-0.074,0.121-0.137,0.216-0.188 c4.497-2.446,7.29-7.143,7.29-12.258C325.311,128.593,319.054,122.337,311.364,122.337z"/>
<path class="grey-fill" d="M311.364,158.808c3.484,0,6.321-2.821,6.348-6.299h-12.695C305.044,155.986,307.88,158.808,311.364,158.808z"/>
</g>
<g ng-click="educationalResourcesSelected()" ng-mouseover="showErcPopover=true;" ng-mouseleave="showErcPopover=false;">
<path class="white-fill" d="M255.286,241.354c-2.487,0-4.945,0.993-6.754,2.892c-12.755,13.379-29.936,20.747-48.381,20.747 c-18.265,0-35.329-7.245-48.051-20.4c-1.806-1.868-4.243-2.844-6.708-2.844c-1.596,0-3.204,0.409-4.66,1.25l-81.947,47.312 c-2.297,1.326-3.92,3.567-4.465,6.162c-0.545,2.595,0.041,5.3,1.611,7.437c16.277,22.159,37.754,40.536,62.108,53.147 c25.179,13.038,53.573,19.93,82.112,19.93c28.637,0,57.118-6.937,82.363-20.06c24.419-12.694,45.924-31.184,62.188-53.471 c1.56-2.138,2.139-4.838,1.591-7.428c-0.548-2.59-2.17-4.825-4.462-6.148l-81.885-47.276 C258.489,241.763,256.881,241.354,255.286,241.354L255.286,241.354z"/>
<path class="grey-fill" d="M234.443,342.252l-3.471-3.367l1.122-1.122c0.414-0.414,0.567-1.021,0.397-1.582 c-0.169-0.559-0.634-0.981-1.207-1.095l-11.219-2.243c-0.521-0.1-1.058,0.057-1.433,0.434c-0.375,0.375-0.538,0.912-0.434,1.433 l2.243,11.219c0.115,0.573,0.536,1.038,1.095,1.207c0.563,0.175,1.17,0.016,1.582-0.397l1.122-1.122l3.367,3.365 c0.62,0.62,1.624,0.62,2.243,0l4.593-4.487C235.063,343.876,235.063,342.872,234.443,342.252z"/>
<path class="grey-fill" d="M180.755,336.755c0,1.752,1.42,3.173,3.173,3.173h6.452c1.753,0,3.173-1.421,3.173-3.173v-6.346h-12.798 V336.755z"/>
<path class="grey-fill" d="M190.38,295.295h-6.452c-1.753,0-3.173,1.42-3.173,3.173v3.173h12.798v-3.173 C193.553,296.715,192.132,295.295,190.38,295.295z"/>
<path class="grey-fill" d="M180.755,327.236h12.798v-22.423h-12.798V327.236z M185.62,312.746c0-0.877,0.71-1.587,1.587-1.587 s1.587,0.71,1.587,1.587v6.558c0,0.877-0.709,1.587-1.587,1.587c-0.877,0-1.587-0.71-1.587-1.587V312.746z"/>
<path class="grey-fill" d="M196.726,336.755c0,1.752,1.42,3.173,3.173,3.173h6.346c1.753,0,3.173-1.421,3.173-3.173v-6.346h-12.692 L196.726,336.755L196.726,336.755z"/>
<path class="grey-fill" d="M206.245,295.295h-6.346c-1.753,0-3.173,1.42-3.173,3.173v3.173h12.692v-3.173 C209.418,296.715,207.997,295.295,206.245,295.295z"/>
<path class="grey-fill" d="M196.726,327.236h12.692v-22.423h-12.692V327.236z M201.485,312.746c0-0.877,0.71-1.587,1.587-1.587 s1.587,0.71,1.587,1.587v6.558c0,0.877-0.709,1.587-1.587,1.587c-0.877,0-1.587-0.71-1.587-1.587V312.746z"/>
<path class="grey-fill" d="M225.283,298.468c0-1.753-1.42-3.173-3.173-3.173h-6.346c-1.753,0-3.173,1.42-3.173,3.173v3.173h12.692 L225.283,298.468L225.283,298.468z"/>
<path class="grey-fill" d="M225.283,304.814h-12.692v22.423h12.692V304.814z M220.523,319.304c0,0.877-0.709,1.587-1.587,1.587 c-0.877,0-1.587-0.71-1.587-1.587v-6.558c0-0.877,0.71-1.587,1.587-1.587s1.587,0.71,1.587,1.587V319.304z"/>
<path class="grey-fill" d="M212.591,336.755c0,1.752,1.42,3.173,3.173,3.173h0.242l-0.919-4.595c-0.313-1.567,0.174-3.173,1.301-4.3 c0.238-0.239,0.499-0.444,0.775-0.624h-4.573v6.346H212.591z"/>
</g>

<g ng-show="lessonContentSolutions == 'Project-Based Learning'">
<path class="content-creation-color" d="M93.042,126.564c3.852,0,6.984-3.132,6.984-6.984s-3.132-7.101-6.984-7.101s-7.101,3.249-7.101,7.101 S89.19,126.564,93.042,126.564z"/>
<path class="content-creation-color" d="M112.521,157.966c2.76,0.439,6.713-2.823,6.713-6.957c0-3.852-3.132-6.984-6.984-6.984 c-3.852,0-6.984,3.132-6.984,6.984C105.265,154.837,108.403,158.128,112.521,157.966z"/>
<path class="content-creation-color" d="M73.357,157.957c4.175,0.218,7.346-3.102,7.346-6.948c0-3.852-3.132-6.984-6.984-6.984 s-6.984,3.132-6.984,6.984C66.734,155.132,70.584,158.271,73.357,157.957z"/>
<path class="content-creation-color" d="M120.001,157.993c-1.919,2.128-4.668,3.492-7.752,3.492c-3.084,0-5.833-1.364-7.752-3.492 c-1.675,1.858-2.725,4.408-2.725,7.101v1.746c0,0.965,0.781,1.746,1.746,1.746h17.461c0.965,0,1.862-0.781,1.862-1.746v-1.746 C122.842,162.401,121.676,159.851,120.001,157.993z"/>
<path class="content-creation-color" d="M103.518,135.294v-1.746c0-2.693-1.05-5.127-2.725-6.984c-1.919,2.128-4.667,3.492-7.752,3.492 c-3.084,0-5.949-1.364-7.868-3.492c-1.675,1.858-2.725,4.291-2.725,6.984v1.746c0,0.965,0.781,1.746,1.746,1.746h17.577 C102.738,137.041,103.518,136.26,103.518,135.294z"/>
<path class="content-creation-color" d="M73.719,161.486c-3.084,0-5.833-1.364-7.752-3.492c-1.675,1.858-2.725,4.408-2.725,7.101v1.746 c0,0.965,0.781,1.746,1.746,1.746h17.461c0.965,0,1.746-0.781,1.746-1.746v-1.746c0-2.693-1.05-5.243-2.725-7.101 C79.551,160.121,76.803,161.486,73.719,161.486z"/>
<path class="content-creation-color" d="M75.764,140.739c0.856-1.712,1.956-3.285,3.271-4.671c-0.038-0.254-0.078-0.509-0.078-0.774v-1.746 c0-0.782,0.085-1.555,0.217-2.319c-3.207,2.458-5.701,5.747-7.235,9.483c0.581-0.1,1.17-0.18,1.779-0.18 C74.419,140.533,75.102,140.608,75.764,140.739z"/>
<path class="content-creation-color" d="M107.011,135.294c0,0.265-0.04,0.519-0.078,0.774c1.315,1.387,2.415,2.959,3.271,4.671 c0.662-0.132,1.345-0.207,2.045-0.207c0.609,0,1.198,0.079,1.779,0.18c-1.534-3.736-4.028-7.025-7.235-9.483 c0.132,0.764,0.217,1.537,0.217,2.319V135.294z"/>
<path class="content-creation-color" d="M98.375,167.782c-3.47,0.977-7.313,0.977-10.783,0c-0.228,1.245-0.902,2.322-1.844,3.094 c2.301,0.77,4.827,1.203,7.294,1.203s4.876-0.434,7.177-1.203C99.278,170.104,98.603,169.026,98.375,167.782z"/>
</g>
<g ng-show="lessonContentSolutions == 'Customized Content Creation'">
<path class="content-creation-color" d="M296.572,167.126c-1.57,0-7.915-0.004-9.485-0.004c-1.217,0-2.362,0.476-3.224,1.339 c-0.861,0.862-1.334,2.006-1.332,3.22l0.006,4.357c0.001,0.707,0.396,1.354,1.025,1.677c2.544,1.308,5.41,2,8.288,2 s5.744-0.692,8.289-2c0.629-0.323,1.024-0.971,1.025-1.678l0.006-4.352c0.002-1.201-0.471-2.338-1.332-3.2 C298.975,167.621,297.784,167.126,296.572,167.126z"/>
<path class="content-creation-color" d="M291.849,165.474c3.738,0,6.779-3.041,6.779-6.779c0-3.737-3.041-6.779-6.779-6.779s-6.779,3.041-6.779,6.779 C285.07,162.432,288.111,165.474,291.849,165.474z"/>
<path class="content-creation-color" d="M338.882,168.485c-0.863-0.864-2.053-1.359-3.266-1.359c-1.57,0-7.915-0.004-9.485-0.004 c-1.217,0-2.362,0.476-3.224,1.339c-0.861,0.863-1.334,2.006-1.332,3.22l0.006,4.357c0.001,0.707,0.397,1.354,1.025,1.677 c2.544,1.308,5.41,2,8.288,2s5.744-0.692,8.288-2c0.629-0.323,1.024-0.971,1.025-1.678l0.006-4.353 C340.217,170.484,339.743,169.347,338.882,168.485z"/>
<circle class="content-creation-color" cx="330.893" cy="158.695" r="6.779"/>
<path class="content-creation-color" d="M311.364,121.233c1.044,0,1.889-0.846,1.889-1.889v-2.23c0-1.044-0.846-1.889-1.889-1.889 c-1.044,0-1.889,0.846-1.889,1.889v2.23C309.475,120.387,310.321,121.233,311.364,121.233z"/>
<path class="content-creation-color" d="M326.445,136.314c0,1.044,0.846,1.889,1.889,1.889h2.23c1.044,0,1.889-0.846,1.889-1.889 s-0.846-1.889-1.889-1.889h-2.23C327.291,134.425,326.445,135.271,326.445,136.314z"/>
<path class="content-creation-color" d="M292.164,138.204h2.23c1.044,0,1.889-0.846,1.889-1.889s-0.846-1.889-1.889-1.889h-2.23 c-1.043,0-1.889,0.846-1.889,1.889S291.121,138.204,292.164,138.204z"/>
<path class="content-creation-color" d="M293.792,128.35l1.931,1.115c0.298,0.172,0.622,0.253,0.943,0.253c0.653,0,1.288-0.339,1.638-0.945 c0.522-0.903,0.212-2.059-0.691-2.581l-1.931-1.115c-0.904-0.522-2.059-0.213-2.581,0.691 C292.578,126.673,292.888,127.828,293.792,128.35z"/>
<path class="content-creation-color" d="M301.243,122.562c0.35,0.606,0.985,0.945,1.638,0.945c0.321,0,0.646-0.082,0.943-0.253 c0.903-0.522,1.213-1.677,0.691-2.581l-1.115-1.931c-0.522-0.904-1.678-1.213-2.581-0.691c-0.903,0.522-1.213,1.677-0.691,2.581 L301.243,122.562z"/>
<path class="content-creation-color" d="M318.905,123.253c0.298,0.172,0.622,0.253,0.943,0.253c0.653,0,1.288-0.339,1.638-0.945l1.115-1.931 c0.522-0.904,0.212-2.059-0.691-2.581c-0.904-0.523-2.06-0.213-2.581,0.691l-1.115,1.931 C317.691,121.576,318.001,122.732,318.905,123.253z"/>
<path class="content-creation-color" d="M326.063,129.719c0.32,0,0.646-0.082,0.943-0.253l1.931-1.115c0.903-0.522,1.213-1.677,0.691-2.581 s-1.677-1.213-2.581-0.691l-1.931,1.115c-0.904,0.522-1.213,1.677-0.691,2.581C324.775,129.38,325.41,129.719,326.063,129.719z"/>
<path class="content-creation-color" d="M327.048,147.551c0.297,0.172,0.622,0.253,0.943,0.253c0.653,0,1.288-0.339,1.638-0.945 c0.522-0.903,0.213-2.059-0.691-2.581l-1.931-1.115c-0.904-0.522-2.059-0.213-2.581,0.691c-0.522,0.904-0.212,2.059,0.691,2.581 L327.048,147.551z"/>
<path class="content-creation-color" d="M293.792,144.278c-0.904,0.522-1.213,1.677-0.691,2.581c0.35,0.606,0.985,0.945,1.638,0.945 c0.32,0,0.646-0.082,0.943-0.253l1.931-1.115c0.904-0.522,1.213-1.677,0.691-2.581s-1.677-1.213-2.581-0.691L293.792,144.278z"/>
<path class="content-creation-color" d="M311.364,122.337c-7.69,0-13.946,6.256-13.946,13.946c0,5.114,2.794,9.811,7.29,12.258 c0.095,0.051,0.166,0.114,0.216,0.188h4.575c-0.015-0.095-0.025-0.192-0.025-0.291v-8.52l-2.241-2.241 c-0.738-0.738-0.738-1.934,0-2.672s1.934-0.738,2.672,0l1.458,1.458l1.458-1.458c0.738-0.738,1.934-0.738,2.672,0 s0.738,1.934,0,2.672l-2.241,2.241v8.52c0,0.099-0.01,0.196-0.025,0.291h4.575c0.05-0.074,0.121-0.137,0.216-0.188 c4.497-2.446,7.29-7.143,7.29-12.258C325.311,128.593,319.054,122.337,311.364,122.337z"/>
<path class="content-creation-color" d="M311.364,158.808c3.484,0,6.321-2.821,6.348-6.299h-12.695C305.044,155.986,307.88,158.808,311.364,158.808z"/>
</g>
<g ng-show="lessonContentSolutions == 'Educational Resources'">
<path class="content-creation-color" d="M234.443,342.252l-3.471-3.367l1.122-1.122c0.414-0.414,0.567-1.021,0.397-1.582 c-0.169-0.559-0.634-0.981-1.207-1.095l-11.219-2.243c-0.521-0.1-1.058,0.057-1.433,0.434c-0.375,0.375-0.538,0.912-0.434,1.433 l2.243,11.219c0.115,0.573,0.536,1.038,1.095,1.207c0.563,0.175,1.17,0.016,1.582-0.397l1.122-1.122l3.367,3.365 c0.62,0.62,1.624,0.62,2.243,0l4.593-4.487C235.063,343.876,235.063,342.872,234.443,342.252z"/>
<path class="content-creation-color" d="M180.755,336.755c0,1.752,1.42,3.173,3.173,3.173h6.452c1.753,0,3.173-1.421,3.173-3.173v-6.346h-12.798 V336.755z"/>
<path class="content-creation-color" d="M190.38,295.295h-6.452c-1.753,0-3.173,1.42-3.173,3.173v3.173h12.798v-3.173 C193.553,296.715,192.132,295.295,190.38,295.295z"/>
<path class="content-creation-color" d="M180.755,327.236h12.798v-22.423h-12.798V327.236z M185.62,312.746c0-0.877,0.71-1.587,1.587-1.587 s1.587,0.71,1.587,1.587v6.558c0,0.877-0.709,1.587-1.587,1.587c-0.877,0-1.587-0.71-1.587-1.587V312.746z"/>
<path class="content-creation-color" d="M196.726,336.755c0,1.752,1.42,3.173,3.173,3.173h6.346c1.753,0,3.173-1.421,3.173-3.173v-6.346h-12.692 L196.726,336.755L196.726,336.755z"/>
<path class="content-creation-color" d="M206.245,295.295h-6.346c-1.753,0-3.173,1.42-3.173,3.173v3.173h12.692v-3.173 C209.418,296.715,207.997,295.295,206.245,295.295z"/>
<path class="content-creation-color" d="M196.726,327.236h12.692v-22.423h-12.692V327.236z M201.485,312.746c0-0.877,0.71-1.587,1.587-1.587 s1.587,0.71,1.587,1.587v6.558c0,0.877-0.709,1.587-1.587,1.587c-0.877,0-1.587-0.71-1.587-1.587V312.746z"/>
<path class="content-creation-color" d="M225.283,298.468c0-1.753-1.42-3.173-3.173-3.173h-6.346c-1.753,0-3.173,1.42-3.173,3.173v3.173h12.692 L225.283,298.468L225.283,298.468z"/>
<path class="content-creation-color" d="M225.283,304.814h-12.692v22.423h12.692V304.814z M220.523,319.304c0,0.877-0.709,1.587-1.587,1.587 c-0.877,0-1.587-0.71-1.587-1.587v-6.558c0-0.877,0.71-1.587,1.587-1.587s1.587,0.71,1.587,1.587V319.304z"/>
<path class="content-creation-color" d="M212.591,336.755c0,1.752,1.42,3.173,3.173,3.173h0.242l-0.919-4.595c-0.313-1.567,0.174-3.173,1.301-4.3 c0.238-0.239,0.499-0.444,0.775-0.624h-4.573v6.346H212.591z"/>
</g>

<g ng-show="lessonContentSelected" ng-click="lessonContentSelectedReset()">
  <path class="white-fill" d="M220.321,179.665l-20.485,37.211c0,0,0,0.001-0.001,0.001c-0.112,0.204-0.242,0.4-0.383,0.591 c-0.036,0.048-0.073,0.095-0.11,0.141c-0.108,0.136-0.223,0.267-0.345,0.393c-0.043,0.045-0.084,0.091-0.128,0.134 c-0.012,0.011-0.022,0.024-0.034,0.036c-0.148,0.141-0.303,0.269-0.463,0.389c-0.044,0.034-0.092,0.062-0.137,0.094
  c-0.143,0.101-0.29,0.195-0.44,0.28c-0.054,0.031-0.108,0.06-0.163,0.089c-0.17,0.089-0.343,0.169-0.52,0.238 c-0.029,0.011-0.057,0.025-0.086,0.036c-0.211,0.078-0.425,0.142-0.643,0.193c-0.046,0.011-0.092,0.018-0.138,0.027 c-0.171,0.035-0.343,0.062-0.516,0.08c-0.066,0.007-0.131,0.014-0.198,0.019c-0.199,0.013-0.398,0.018-0.596,0.01 c-0.019-0.001-0.038,0.002-0.057,0.001c-0.052-0.003-0.103-0.013-0.155-0.017c-0.124-0.01-0.247-0.021-0.37-0.04 c-0.075-0.012-0.149-0.029-0.223-0.043c-0.108-0.021-0.215-0.044-0.321-0.072c-0.07-0.018-0.139-0.04-0.209-0.061 c-0.117-0.036-0.232-0.076-0.347-0.12c-0.057-0.022-0.113-0.043-0.17-0.067c-0.139-0.059-0.276-0.125-0.41-0.196 c-0.025-0.013-0.052-0.023-0.077-0.037c-0.008-0.005-0.016-0.01-0.024-0.015c-0.115-0.064-0.227-0.135-0.338-0.209 c-0.039-0.026-0.081-0.05-0.119-0.076c-0.08-0.056-0.156-0.118-0.233-0.179c-0.065-0.051-0.132-0.099-0.195-0.153 c-0.027-0.023-0.052-0.05-0.079-0.075c-0.107-0.096-0.211-0.193-0.309-0.296l-11.971-12.622c-2.026-2.136-1.936-5.509,0.2-7.535 c2.137-2.024,5.51-1.936,7.535,0.2l6.952,7.331l16.968-30.822c1.42-2.579,4.662-3.518,7.239-2.099 C220.801,173.845,221.74,177.086,220.321,179.665z"/>
  <path class="content-creation-color" d="M200,140.174c-31.28,0-56.637,25.357-56.637,56.637S168.72,253.448,200,253.448s56.637-25.357,56.637-56.637 S231.28,140.174,200,140.174z M220.321,179.665l-20.485,37.211c0,0,0,0.001-0.001,0.001c-0.112,0.204-0.242,0.4-0.383,0.591 c-0.036,0.048-0.073,0.095-0.11,0.141c-0.108,0.136-0.223,0.267-0.345,0.393c-0.043,0.045-0.084,0.091-0.128,0.134 c-0.012,0.011-0.022,0.024-0.034,0.036c-0.148,0.141-0.303,0.269-0.463,0.389c-0.044,0.034-0.092,0.062-0.137,0.094 c-0.143,0.101-0.29,0.195-0.44,0.28c-0.054,0.031-0.108,0.06-0.163,0.089c-0.17,0.089-0.343,0.169-0.52,0.238 c-0.029,0.011-0.057,0.025-0.086,0.036c-0.211,0.078-0.425,0.142-0.643,0.193c-0.046,0.011-0.092,0.018-0.138,0.027 c-0.171,0.035-0.343,0.062-0.516,0.08c-0.066,0.007-0.131,0.014-0.198,0.019c-0.199,0.013-0.398,0.018-0.596,0.01 c-0.019-0.001-0.038,0.002-0.057,0.001c-0.052-0.003-0.103-0.013-0.155-0.017c-0.124-0.01-0.247-0.021-0.37-0.04 c-0.075-0.012-0.149-0.029-0.223-0.043c-0.108-0.021-0.215-0.044-0.321-0.072c-0.07-0.018-0.139-0.04-0.209-0.061 c-0.117-0.036-0.232-0.076-0.347-0.12c-0.057-0.022-0.113-0.043-0.17-0.067c-0.139-0.059-0.276-0.125-0.41-0.196 c-0.025-0.013-0.052-0.023-0.077-0.037c-0.008-0.005-0.016-0.01-0.024-0.015c-0.115-0.064-0.227-0.135-0.338-0.209 c-0.039-0.026-0.081-0.05-0.119-0.076c-0.08-0.056-0.156-0.118-0.233-0.179c-0.065-0.051-0.132-0.099-0.195-0.153 c-0.027-0.023-0.052-0.05-0.079-0.075c-0.107-0.096-0.211-0.193-0.309-0.296l-11.971-12.622c-2.026-2.136-1.936-5.509,0.2-7.535 c2.137-2.024,5.51-1.936,7.535,0.2l6.952,7.331l16.968-30.822c1.42-2.579,4.662-3.518,7.239-2.099 C220.801,173.845,221.74,177.086,220.321,179.665z"/>
</g>

<text x="0" y="100" fill="#505051" font-weight="400" font-family="Roboto,Helvetica,Arial,san-serif" font-size="24px" ng-show="showPblPopover">Project-Based Learning</text>
<text x="115" y="100" fill="#505051" font-weight="400" font-family="Roboto,Helvetica,Arial,san-serif" font-size="24px" ng-show="showCustomizedContentPopover">Customized Content</text>
<text x="100" y="385" fill="#505051" font-weight="400" font-family="Roboto,Helvetica,Arial,san-serif" font-size="24px" ng-show="showErcPopover">Educator Resources</text>
</svg>
