<?xml version="1.0" encoding="utf-8"?>
<!-- Generator: Adobe Illustrator 25.4.1, SVG Export Plug-In . SVG Version: 6.00 Build 0)  -->
<svg version="1.1" id="Layer_1" xmlns="http://www.w3.org/2000/svg" xmlns:xlink="http://www.w3.org/1999/xlink" x="0px" y="0px"
	 viewBox="0 0 150 100" style="enable-background:new 0 0 150 100;" xml:space="preserve">
<style type="text/css">
	.st0{opacity:0.08;enable-background:new    ;}
	.st1{fill:none;stroke:#000000;stroke-width:0.75;stroke-miterlimit:10;}
	.st2{fill:none;stroke:#000000;stroke-width:0.75;stroke-miterlimit:10;stroke-dasharray:2.5478,2.5478,5.0955,2.5478;}
	
		.st3{fill:none;stroke:#000000;stroke-width:0.75;stroke-miterlimit:10;stroke-dasharray:2.5478,5.0955,2.5478,2.5478,5.0955,2.5478;}
	.st4{fill:none;stroke:#000000;stroke-width:0.5;stroke-miterlimit:10;}
	.st5{fill:none;stroke:#000000;stroke-width:0.5;stroke-miterlimit:10;stroke-dasharray:2.5478,2.5478,5.0955,2.5478;}
	
		.st6{fill:none;stroke:#000000;stroke-width:0.5;stroke-miterlimit:10;stroke-dasharray:2.5478,5.0955,2.5478,2.5478,5.0955,2.5478;}
	.st7{fill:none;stroke:#000000;stroke-miterlimit:10;}
	.st8{fill:none;stroke:#000000;stroke-miterlimit:10;stroke-dasharray:2.5478,2.5478,5.0955,2.5478;}
	.st9{fill:none;stroke:#000000;stroke-miterlimit:10;stroke-dasharray:2.5478,5.0955,2.5478,2.5478,5.0955,2.5478;}
	.st10{opacity:0.08;fill:#C11A4D;enable-background:new    ;}
	.st11{fill:#D3467F;}
	.st12{fill:#2B1722;}
	.st13{fill:#442E3A;}
	.st14{fill:#F7F2EC;}
	.st15{fill:#FFFFFF;}
	.st16{fill:#DBD6D1;}
	.st17{fill:#FF8DAE;}
	.st18{fill:#F7729F;}
	.st19{fill:#E26091;}
	.st20{fill:#E7E2DC;}
	.st21{fill:#84D4ED;}
	.st22{fill:#5AC8E2;}
	.st23{fill:#F2EDE9;}
	.st24{fill:#CEC6BE;}
	.st25{fill:#F93568;}
	.st26{fill:#EC234F;}
	.st27{fill:#FFA4C2;}
	.st28{fill:#F79431;}
	.st29{fill:#ED8120;}
	.st30{opacity:0.2;fill:#ED8120;enable-background:new    ;}
	.st31{fill:#F6C067;}
	.st32{fill:#FFE5CF;}
	.st33{fill:#FFD5B0;}
	.st34{fill:#DD7017;}
	.st35{fill:#803401;}
	.st36{fill:#662900;}
	.st37{fill:#933F06;}
</style>
<g class="st0">
	<g>
		<line class="st1" x1="74.776" y1="33.393" x2="73.477" y2="32.643"/>
		<line class="st2" x1="69.064" y1="30.096" x2="59.135" y2="24.363"/>
		<line class="st3" x1="58.032" y1="23.727" x2="23.832" y2="3.982"/>
		<line class="st1" x1="22.729" y1="3.345" x2="21.43" y2="2.595"/>
	</g>
</g>
<g class="st0">
	<g>
		<line class="st4" x1="61.524" y1="40.962" x2="60.225" y2="40.212"/>
		<line class="st5" x1="55.812" y1="37.664" x2="45.883" y2="31.932"/>
		<line class="st6" x1="44.78" y1="31.295" x2="10.58" y2="11.55"/>
		<line class="st4" x1="9.477" y1="10.913" x2="8.177" y2="10.163"/>
	</g>
</g>
<g class="st0">
	<g>
		<line class="st7" x1="60.926" y1="55.631" x2="59.627" y2="54.881"/>
		<line class="st8" x1="55.214" y1="52.333" x2="45.285" y2="46.601"/>
		<line class="st9" x1="44.182" y1="45.964" x2="9.982" y2="26.22"/>
		<line class="st7" x1="8.879" y1="25.583" x2="7.579" y2="24.833"/>
	</g>
</g>
<path class="st10" d="M132.416,83.946l-22.342,12.899c-2.068,1.195-5.716,1.042-8.102-0.336L42.594,62.228
	c-2.388-1.38-2.65-3.485-0.582-4.678l22.345-12.902c2.068-1.195,5.716-1.042,8.102,0.336l59.377,34.281
	C134.225,80.644,134.484,82.75,132.416,83.946z"/>
<g>
	<polygon class="st11" points="53.549,55.7 49.131,58.249 47.715,55.314 49.923,53.051 55.126,51.878 	"/>
	<polygon class="st11" points="86.371,74.697 81.953,77.248 80.535,74.311 82.744,72.049 87.945,70.873 	"/>
	<g>
		<path class="st12" d="M94.307,81.781c0-3.519-2.14-7.607-4.777-9.13c-0.667-0.386-1.459-0.584-2.088-0.582
			c-0.494,0.002-1.754,0.048-3.062,0.858c-1.502,0.928-1.707,3.04-1.707,3.04l5.368,11.027c0,0,1.729,0.848,3.504-0.124
			c1.106-0.605,1.773-1.606,2.076-2.16c0.134-0.243,0.336-0.731,0.396-0.918C94.203,83.223,94.307,82.548,94.307,81.781z"/>
		<path class="st13" d="M82.512,77.512c0,3.519,2.14,7.607,4.777,9.13c2.638,1.523,4.777-0.093,4.777-3.613
			c0-3.519-2.14-7.607-4.777-9.13C84.65,72.375,82.512,73.993,82.512,77.512z"/>
		<path class="st14" d="M83.434,78.088c0,2.783,1.693,6.016,3.779,7.22c2.086,1.205,3.779-0.075,3.779-2.856
			c0-2.781-1.693-6.016-3.779-7.22C85.127,74.026,83.434,75.306,83.434,78.088z"/>
		<g>
			<path class="st15" d="M87.081,75.81c1.875,1.082,3.395,3.985,3.395,6.485s-1.519,3.649-3.395,2.565
				c-1.873-1.082-3.395-3.985-3.395-6.485C83.688,75.875,85.209,74.727,87.081,75.81z M87.82,76.648
				c-0.083-0.12-0.45-0.413-0.718-0.56c-0.291-0.159-0.602-0.398-1.257-0.347c-0.142,0.012-0.286,0.095-0.356,0.17
				c-0.107,0.113-0.084,0.252,0.035,0.483c0.111,0.218,0.277,0.531,0.431,0.761c0.078,0.116,0.124,0.064,0.283,0.078
				c0.159,0.015,0.332,0.028,0.457,0.081c0.309,0.133,0.537,0.279,0.756,0.454c0.109,0.089,0.163,0.058,0.209-0.003
				c0.116-0.165,0.206-0.392,0.272-0.618C87.966,77.008,87.957,76.849,87.82,76.648z M85.275,79.291c0,1.329,0.81,2.877,1.807,3.454
				c0.999,0.577,1.807-0.035,1.807-1.366c0-1.332-0.81-2.877-1.807-3.454C86.084,77.348,85.275,77.961,85.275,79.291z
				 M89.984,80.337c-0.25-1.059-0.504-1.451-0.708-1.843c-0.19-0.363-0.495-0.821-0.593-0.903c-0.163-0.134-0.25-0.083-0.303,0.04
				c-0.089,0.202-0.17,0.438-0.206,0.692c-0.015,0.095-0.006,0.192,0.084,0.33c0.182,0.27,0.355,0.57,0.553,1.004
				c0.08,0.176,0.159,0.442,0.235,0.689c0.075,0.245,0.068,0.343,0.159,0.415c0.184,0.146,0.415,0.275,0.577,0.363
				c0.17,0.091,0.252,0.066,0.266-0.149C90.054,80.83,90.036,80.566,89.984,80.337z M89.23,84.636
				c0.091-0.002,0.34-0.223,0.483-0.444c0.152-0.241,0.359-0.438,0.447-1.353c0.018-0.198-0.009-0.464-0.041-0.625
				c-0.052-0.243-0.143-0.343-0.309-0.396c-0.157-0.048-0.384-0.116-0.557-0.121c-0.086-0.002-0.062,0.108-0.102,0.306
				c-0.039,0.2-0.078,0.415-0.133,0.532c-0.141,0.289-0.272,0.46-0.423,0.59c-0.075,0.065-0.068,0.163-0.037,0.277
				c0.081,0.304,0.209,0.629,0.338,0.924C88.976,84.507,89.076,84.637,89.23,84.636z M86.103,83.658
				c0.089,0.142,0.256,0.359,0.411,0.494c0.712,0.628,1.004,0.649,1.289,0.731c0.263,0.078,0.606,0.086,0.674,0.031
				c0.116-0.093,0.098-0.256,0.03-0.438c-0.111-0.303-0.244-0.624-0.399-0.904c-0.058-0.105-0.12-0.184-0.223-0.184
				c-0.202-0.004-0.424-0.048-0.731-0.176c-0.124-0.052-0.308-0.19-0.475-0.313c-0.168-0.124-0.227-0.22-0.289-0.166
				c-0.126,0.111-0.248,0.303-0.332,0.438C85.969,83.311,85.97,83.444,86.103,83.658z M84.2,80.592
				c0.138,0.42,0.239,0.877,0.824,1.8c0.126,0.2,0.303,0.399,0.411,0.491c0.165,0.143,0.239,0.103,0.295-0.08
				c0.052-0.173,0.124-0.424,0.146-0.656c0.012-0.116-0.062-0.177-0.186-0.404s-0.259-0.47-0.33-0.65
				c-0.171-0.444-0.264-0.778-0.331-1.096c-0.034-0.159-0.098-0.235-0.176-0.293c-0.209-0.152-0.433-0.264-0.643-0.345
				c-0.126-0.048-0.225-0.025-0.243,0.184C83.962,79.663,84.076,80.202,84.2,80.592z M84.21,78.875
				c0.21,0.09,0.431,0.165,0.627,0.176c0.075,0.004,0.13-0.021,0.134-0.165c0.012-0.286,0.052-0.563,0.151-0.898
				c0.041-0.134,0.143-0.283,0.233-0.419c0.091-0.138,0.159-0.143,0.124-0.277c-0.07-0.27-0.192-0.603-0.281-0.834
				c-0.091-0.243-0.182-0.351-0.332-0.336c-0.099,0.009-0.252,0.071-0.352,0.177c-0.457,0.495-0.482,0.898-0.551,1.233
				c-0.065,0.311-0.084,0.792-0.05,0.937C83.974,78.712,84.085,78.821,84.21,78.875z"/>
			<path class="st16" d="M86.891,78.613c0.813,0.469,1.473,1.729,1.473,2.812s-0.658,1.581-1.473,1.112
				c-0.813-0.469-1.473-1.729-1.473-2.812C85.417,78.642,86.078,78.143,86.891,78.613z"/>
			<path class="st13" d="M89.778,81.12c-0.159-0.084-0.392-0.213-0.577-0.363c-0.091-0.075-0.084-0.17-0.159-0.415
				c-0.075-0.245-0.152-0.513-0.235-0.689c-0.2-0.431-0.371-0.733-0.553-1.004c-0.091-0.136-0.099-0.233-0.084-0.33
				c0.037-0.254,0.118-0.491,0.206-0.692c0.055-0.123,0.141-0.176,0.303-0.04c0.098,0.081,0.402,0.538,0.593,0.903
				c0.206,0.395,0.458,0.785,0.708,1.843c0.055,0.229,0.071,0.494,0.062,0.633C90.032,81.186,89.947,81.213,89.778,81.12z"/>
			<path class="st13" d="M87.653,77.763c-0.045,0.062-0.098,0.091-0.209,0.003c-0.216-0.175-0.445-0.321-0.756-0.454
				c-0.124-0.053-0.297-0.066-0.457-0.081c-0.159-0.015-0.206,0.039-0.283-0.078c-0.155-0.229-0.318-0.544-0.431-0.761
				c-0.118-0.229-0.141-0.371-0.035-0.483c0.07-0.075,0.213-0.158,0.356-0.17c0.655-0.048,0.966,0.186,1.257,0.347
				c0.269,0.146,0.636,0.439,0.718,0.56c0.141,0.201,0.146,0.359,0.108,0.495C87.858,77.371,87.768,77.598,87.653,77.763z"/>
			<path class="st13" d="M83.968,77.536c0.07-0.336,0.095-0.738,0.551-1.233c0.098-0.108,0.252-0.17,0.352-0.177
				c0.149-0.013,0.239,0.095,0.332,0.336c0.089,0.229,0.213,0.562,0.281,0.834c0.035,0.136-0.034,0.141-0.124,0.277
				c-0.091,0.138-0.192,0.284-0.233,0.419c-0.102,0.334-0.141,0.612-0.151,0.898c-0.006,0.143-0.062,0.17-0.134,0.165
				c-0.196-0.012-0.419-0.084-0.627-0.176c-0.128-0.055-0.238-0.163-0.295-0.404C83.881,78.328,83.903,77.845,83.968,77.536z"/>
			<path class="st13" d="M84.216,79.354c0.209,0.08,0.433,0.189,0.643,0.345c0.078,0.058,0.143,0.132,0.176,0.293
				c0.066,0.32,0.159,0.65,0.331,1.096c0.068,0.179,0.206,0.424,0.33,0.65c0.124,0.227,0.198,0.289,0.186,0.404
				c-0.025,0.233-0.096,0.485-0.146,0.656c-0.055,0.184-0.132,0.223-0.295,0.08c-0.108-0.095-0.286-0.293-0.411-0.491
				c-0.584-0.921-0.685-1.376-0.824-1.8c-0.128-0.389-0.239-0.927-0.229-1.053C83.992,79.329,84.089,79.307,84.216,79.354z"/>
			<path class="st13" d="M86.389,82.731c0.064-0.055,0.121,0.041,0.289,0.166c0.17,0.124,0.352,0.263,0.475,0.313
				c0.309,0.13,0.526,0.173,0.731,0.176c0.103,0.002,0.165,0.08,0.223,0.184c0.152,0.279,0.288,0.6,0.399,0.904
				c0.068,0.184,0.084,0.346-0.03,0.438c-0.068,0.055-0.413,0.048-0.674-0.031c-0.284-0.084-0.577-0.105-1.289-0.731
				c-0.152-0.136-0.322-0.352-0.411-0.494c-0.133-0.213-0.134-0.346-0.048-0.489C86.139,83.033,86.261,82.842,86.389,82.731z"/>
			<path class="st13" d="M88.595,83.124c0.149-0.132,0.283-0.302,0.423-0.59c0.056-0.116,0.096-0.336,0.134-0.532
				c0.039-0.198,0.015-0.306,0.102-0.306c0.173,0.004,0.399,0.071,0.557,0.121c0.166,0.052,0.259,0.149,0.309,0.396
				c0.035,0.159,0.062,0.427,0.041,0.625c-0.089,0.914-0.295,1.112-0.447,1.353c-0.142,0.223-0.392,0.444-0.483,0.444
				c-0.151,0.002-0.252-0.13-0.332-0.309c-0.13-0.295-0.256-0.62-0.338-0.924C88.528,83.287,88.519,83.19,88.595,83.124z"/>
		</g>
	</g>
	<g>
		<path class="st12" d="M61.354,62.763c0-3.519-2.14-7.607-4.777-9.13c-0.667-0.386-1.459-0.584-2.088-0.582
			c-0.494,0.002-1.754,0.048-3.062,0.858c-1.502,0.931-1.707,3.04-1.707,3.04l5.368,11.027c0,0,1.729,0.848,3.504-0.124
			c1.106-0.605,1.773-1.606,2.076-2.16c0.134-0.243,0.336-0.731,0.396-0.917C61.25,64.205,61.354,63.531,61.354,62.763z"/>
		<path class="st13" d="M49.559,58.495c0,3.519,2.14,7.607,4.777,9.13c2.637,1.523,4.777-0.095,4.777-3.613
			c0-3.519-2.14-7.607-4.777-9.13C51.7,53.358,49.559,54.974,49.559,58.495z"/>
		<path class="st14" d="M50.485,59.071c0,2.783,1.693,6.016,3.779,7.22c2.086,1.205,3.779-0.075,3.779-2.856
			c0-2.781-1.693-6.016-3.779-7.22C52.175,55.01,50.485,56.289,50.485,59.071z"/>
		<g>
			<path class="st15" d="M54.133,56.793c1.873,1.082,3.395,3.986,3.395,6.485c0,2.501-1.519,3.649-3.395,2.565
				c-1.875-1.082-3.395-3.986-3.395-6.485C50.736,56.858,52.256,55.709,54.133,56.793z M54.867,57.631
				c-0.083-0.121-0.451-0.413-0.718-0.56c-0.291-0.159-0.602-0.398-1.257-0.347c-0.143,0.012-0.286,0.095-0.356,0.17
				c-0.107,0.113-0.084,0.252,0.035,0.483c0.111,0.216,0.277,0.531,0.431,0.761c0.078,0.116,0.124,0.064,0.283,0.078
				c0.159,0.015,0.332,0.028,0.457,0.081c0.309,0.133,0.537,0.279,0.756,0.454c0.109,0.089,0.163,0.058,0.209-0.003
				c0.116-0.165,0.206-0.392,0.272-0.618C55.015,57.991,55.005,57.832,54.867,57.631z M52.323,60.274
				c0,1.329,0.81,2.877,1.807,3.454c0.999,0.577,1.807-0.035,1.807-1.366c0-1.329-0.81-2.877-1.807-3.454
				C53.133,58.331,52.323,58.943,52.323,60.274z M57.032,61.32c-0.25-1.059-0.504-1.451-0.708-1.845
				c-0.19-0.363-0.495-0.821-0.593-0.903c-0.163-0.136-0.25-0.083-0.303,0.04c-0.089,0.202-0.17,0.438-0.206,0.692
				c-0.015,0.095-0.006,0.192,0.084,0.33c0.182,0.27,0.355,0.57,0.553,1.004c0.08,0.176,0.159,0.442,0.235,0.689
				c0.075,0.245,0.068,0.343,0.159,0.415c0.184,0.146,0.415,0.275,0.577,0.363c0.17,0.091,0.252,0.065,0.266-0.149
				C57.104,61.813,57.086,61.548,57.032,61.32z M56.278,65.619c0.091-0.002,0.34-0.223,0.483-0.445
				c0.152-0.241,0.359-0.438,0.447-1.353c0.018-0.198-0.009-0.464-0.041-0.625c-0.052-0.243-0.143-0.343-0.309-0.396
				c-0.157-0.048-0.384-0.116-0.557-0.12c-0.086-0.002-0.062,0.108-0.102,0.306c-0.039,0.2-0.078,0.415-0.134,0.532
				c-0.141,0.289-0.272,0.46-0.423,0.59c-0.075,0.065-0.068,0.163-0.037,0.277c0.081,0.304,0.21,0.629,0.338,0.924
				C56.025,65.488,56.126,65.619,56.278,65.619z M53.151,64.638c0.089,0.142,0.256,0.359,0.411,0.494
				c0.711,0.629,1.004,0.649,1.289,0.731c0.263,0.078,0.606,0.086,0.674,0.031c0.116-0.093,0.098-0.256,0.03-0.438
				c-0.111-0.303-0.244-0.624-0.399-0.904c-0.058-0.105-0.12-0.184-0.223-0.184c-0.202-0.004-0.424-0.048-0.731-0.176
				c-0.124-0.052-0.306-0.189-0.474-0.313c-0.168-0.124-0.227-0.22-0.289-0.166c-0.126,0.111-0.248,0.303-0.332,0.438
				C53.018,64.293,53.021,64.425,53.151,64.638z M51.251,61.573c0.136,0.42,0.239,0.877,0.824,1.8
				c0.126,0.2,0.303,0.399,0.411,0.491c0.165,0.143,0.239,0.103,0.295-0.08c0.052-0.173,0.124-0.424,0.146-0.656
				c0.012-0.116-0.062-0.177-0.186-0.404c-0.124-0.227-0.259-0.47-0.33-0.65c-0.171-0.444-0.266-0.778-0.331-1.096
				c-0.034-0.159-0.098-0.235-0.176-0.293c-0.209-0.152-0.433-0.264-0.643-0.345c-0.126-0.048-0.225-0.025-0.243,0.184
				C51.011,60.646,51.123,61.184,51.251,61.573z M51.261,59.859c0.21,0.09,0.431,0.165,0.627,0.176
				c0.075,0.004,0.128-0.021,0.134-0.165c0.012-0.286,0.052-0.563,0.151-0.898c0.041-0.134,0.143-0.283,0.233-0.419
				c0.091-0.138,0.159-0.143,0.124-0.278c-0.07-0.27-0.192-0.603-0.281-0.834c-0.091-0.243-0.182-0.351-0.332-0.336
				c-0.099,0.009-0.252,0.071-0.352,0.177c-0.457,0.495-0.482,0.898-0.551,1.233c-0.065,0.311-0.084,0.792-0.05,0.937
				C51.023,59.694,51.132,59.804,51.261,59.859z"/>
			<path class="st16" d="M53.939,59.595c0.813,0.469,1.473,1.729,1.473,2.812c0,1.084-0.66,1.581-1.473,1.112
				c-0.815-0.469-1.473-1.729-1.473-2.812C52.467,59.623,53.124,59.126,53.939,59.595z"/>
			<path class="st13" d="M56.826,62.104c-0.159-0.084-0.392-0.213-0.577-0.363c-0.091-0.075-0.084-0.17-0.159-0.415
				c-0.075-0.245-0.152-0.513-0.235-0.689c-0.2-0.432-0.371-0.733-0.553-1.004c-0.091-0.136-0.099-0.233-0.084-0.33
				c0.037-0.254,0.118-0.491,0.206-0.692c0.055-0.123,0.141-0.176,0.303-0.04c0.098,0.081,0.404,0.538,0.593,0.903
				c0.206,0.395,0.458,0.785,0.708,1.845c0.055,0.229,0.071,0.494,0.062,0.633C57.081,62.17,56.998,62.194,56.826,62.104z"/>
			<path class="st13" d="M54.7,58.744c-0.045,0.062-0.098,0.091-0.209,0.003c-0.216-0.175-0.445-0.321-0.756-0.454
				c-0.124-0.053-0.297-0.066-0.457-0.081s-0.206,0.039-0.283-0.078c-0.152-0.229-0.318-0.544-0.431-0.761
				c-0.118-0.229-0.141-0.371-0.035-0.483c0.07-0.075,0.213-0.158,0.356-0.17c0.655-0.048,0.966,0.186,1.257,0.347
				c0.269,0.146,0.636,0.439,0.718,0.56c0.141,0.201,0.148,0.359,0.108,0.495C54.907,58.353,54.817,58.58,54.7,58.744z"/>
			<path class="st13" d="M51.015,58.517c0.07-0.336,0.095-0.738,0.551-1.233c0.098-0.108,0.252-0.17,0.352-0.177
				c0.149-0.013,0.239,0.095,0.332,0.336c0.089,0.229,0.211,0.562,0.281,0.834c0.035,0.136-0.034,0.141-0.124,0.278
				c-0.091,0.138-0.192,0.284-0.233,0.419c-0.102,0.334-0.141,0.612-0.151,0.898c-0.006,0.143-0.062,0.17-0.134,0.165
				c-0.196-0.012-0.419-0.084-0.627-0.176c-0.128-0.055-0.236-0.163-0.295-0.404C50.93,59.31,50.951,58.829,51.015,58.517z"/>
			<path class="st13" d="M51.264,60.338c0.209,0.081,0.433,0.19,0.643,0.345c0.078,0.058,0.143,0.132,0.176,0.293
				c0.066,0.32,0.159,0.65,0.331,1.096c0.068,0.179,0.206,0.424,0.33,0.65c0.124,0.227,0.198,0.289,0.186,0.404
				c-0.025,0.233-0.096,0.485-0.146,0.656c-0.055,0.184-0.132,0.223-0.295,0.08c-0.108-0.095-0.286-0.293-0.411-0.491
				c-0.584-0.921-0.685-1.376-0.824-1.8c-0.128-0.389-0.239-0.927-0.229-1.053C51.039,60.313,51.139,60.29,51.264,60.338z"/>
			<path class="st13" d="M53.438,63.712c0.064-0.055,0.121,0.041,0.289,0.166c0.17,0.124,0.351,0.263,0.474,0.313
				c0.309,0.13,0.526,0.173,0.731,0.176c0.103,0.002,0.165,0.08,0.223,0.184c0.152,0.279,0.288,0.6,0.399,0.904
				c0.068,0.184,0.084,0.346-0.03,0.438c-0.068,0.055-0.413,0.048-0.674-0.031c-0.286-0.084-0.577-0.105-1.289-0.731
				c-0.152-0.136-0.322-0.352-0.411-0.494c-0.133-0.213-0.134-0.346-0.046-0.489C53.188,64.017,53.311,63.823,53.438,63.712z"/>
			<path class="st13" d="M55.644,64.106c0.148-0.132,0.283-0.302,0.423-0.59c0.056-0.116,0.096-0.336,0.134-0.532
				c0.039-0.198,0.015-0.306,0.102-0.306c0.173,0.003,0.399,0.071,0.557,0.12c0.166,0.052,0.259,0.149,0.309,0.396
				c0.035,0.159,0.059,0.427,0.041,0.625c-0.089,0.914-0.295,1.112-0.447,1.353c-0.142,0.223-0.392,0.444-0.483,0.445
				c-0.151,0.002-0.252-0.13-0.332-0.309c-0.13-0.295-0.256-0.62-0.338-0.924C55.577,64.269,55.567,64.173,55.644,64.106z"/>
		</g>
	</g>
	<g>
		<path class="st17" d="M132.676,51.959c-2.008-7.419-5.357-10.3-7.297-12.206c-4.285-4.206-16.713-11.412-22.793-14.922
			c-6.08-3.507-32.543-18.857-32.543-18.857L43,21.479l21.155,29.702l41.807,37.601l26.3-15.184c0.279-0.111,0.537-0.26,0.772-0.445
			l0,0l0,0c0.914-0.722,1.459-1.962,1.459-3.339C134.493,65.839,134.932,60.288,132.676,51.959z"/>
		<path class="st18" d="M102.176,88.814c3.031,1.536,5.27-0.698,5.27-3.496c0-3.974,0.439-9.526-1.816-17.853
			c-2.008-7.419-5.357-10.3-7.297-12.206C94.049,51.054,81.62,43.848,75.54,40.337c-6.079-3.511-32.542-18.858-32.542-18.858v33.099
			l6.099,3.649c0,0-1.538-7.423,5.229-5.315c2.033,0.633,7.413,7.549,5.876,11.831c6.676,3.852,14.886,8.475,21.012,12.016
			c1.005-6.087,3.954-6.03,5.975-4.862c2.183,1.26,6.234,4.956,6.412,11.899C98.404,86.659,101.79,88.619,102.176,88.814z"/>
	</g>
	<polygon class="st19" points="101.305,88.252 93.47,83.719 93.47,81.645 101.305,86.179 	"/>
	<g>
		<path class="st20" d="M135.256,69.059l0.037,0.695c-0.111-0.111-0.223-0.218-0.346-0.322v1.616
			c-0.095,0.064-0.231,0.149-0.401,0.263h-0.704c0.089,0.093,0.171,0.192,0.248,0.295c-2.903,1.886-11.24,7.243-15.329,9.189
			c-4.998,2.381-9.248,5.576-12.139,5.609c-2.889,0.035-6.822-0.513-6.822-0.513v3.809c1.644,0.921,3.815,1.376,6.086,1.376
			c2.751,0,5.64-0.663,7.887-1.962l19.192-11.078c2.354-1.358,3.704-3.244,3.704-5.17v-3.809L135.256,69.059L135.256,69.059z"/>
		<g>
			<path class="st15" d="M134.526,65.288c0,0-0.022,3.601-0.03,3.784c-0.05,1.081-0.946,2.357-2.598,3.31l-19.192,11.082
				c-3.011,1.739-7.495,2.16-10.583,1.134c-0.978,0.56-2.327,1.296-2.327,1.296c1.644,0.921,3.815,1.376,6.086,1.376
				c2.751,0,5.64-0.663,7.887-1.962l19.192-11.078c2.354-1.358,3.704-3.244,3.704-5.17
				C136.667,67.604,135.911,66.285,134.526,65.288z"/>
		</g>
	</g>
	<path class="st19" d="M87.852,71.322c-3.323-1.946-6.472-0.518-6.472,3.902c-1.289-0.718-5.904-3.29-11.459-6.412
		c-4.357-2.447-7.322-4.156-8.67-4.937c-0.002-0.111-0.015-0.243-0.028-0.371c-0.429-4.499-2.088-8.863-6.467-11.264
		c-3.649-2.002-6.527,0.128-6.527,4.932c0,0.095-0.002,0.399,0,0.494c0.379,0.281,0.57,0.343,0.873,0.56
		c0.012,0.009,0.022,0.015,0.035,0.025c-0.004-0.126-0.015-0.252-0.015-0.379c0-4.088,2.485-5.966,5.551-4.198
		c3.065,1.77,5.551,6.519,5.551,10.606c0,0.159-0.012,0.311-0.018,0.464l0.563,0.322l0.489,0.278l20.749,11.873
		c-0.004-0.141,0.056-1.139,0.091-1.455c0.376-3.383,2.695-4.816,5.497-3.198c3.065,1.77,5.551,6.519,5.551,10.606
		c0,0.12-0.01,0.231-0.013,0.346c0.17,0.062,0.667,0.452,1.244,0.698c0.002-0.086,0-0.336,0-0.424
		C94.378,78.987,92.811,74.23,87.852,71.322z"/>
	<path class="st19" d="M43,50.373c0,0-0.55,0-0.587,1.687c-0.028,1.347-0.102,2.093,0.587,2.519
		c1.005,0.624,5.631,3.355,5.631,3.355v-2.063c0,0-2.19-1.24-3.627-2.072c-0.637-0.37-1.102-0.704-1.424-1.131
		C43.175,52.133,43,51.45,43,50.373z"/>
	<g>
		<path class="st21" d="M131.254,53.406c-1.079-3.463-2.166-5.87-2.932-7.349c-0.526-1.016-1.789-1.391-2.78-0.819l-18.918,10.925
			c-1.269,0.733-1.762,2.324-1.109,3.638c0.747,1.496,1.732,3.769,2.708,6.905c0.68,2.179,1.054,4.489,1.261,6.379l23.032-13.298
			C132.308,57.896,131.934,55.587,131.254,53.406z"/>
	</g>
	<g>
		<path class="st22" d="M131.254,53.406c-1.079-3.463-2.166-5.87-2.932-7.349c-0.526-1.016-1.789-1.391-2.78-0.819
			c0,0,3.801,9.288,4.777,12.423c-8.274,3.72-18.86,10.19-21.111,13.364c0.152,1.042,0.238,1.696,0.277,2.058l23.032-13.298
			C132.308,57.896,131.934,55.587,131.254,53.406z"/>
	</g>
	<g>
		<path class="st18" d="M112.096,76.583c-1.278,0.736-2.311,2.715-2.311,4.416c0,1.701,1.035,2.484,2.311,1.748
			c1.278-0.736,2.311-2.715,2.311-4.416C114.407,76.629,113.373,75.846,112.096,76.583z"/>
		<path class="st23" d="M112.115,77.148c-1.038,0.6-1.879,2.208-1.879,3.591c0,1.385,0.842,2.022,1.879,1.421
			c1.038-0.6,1.879-2.208,1.879-3.591C113.993,77.185,113.152,76.547,112.115,77.148z"/>
		<path class="st15" d="M112.385,77.954c-0.739,0.427-1.339,1.575-1.339,2.561s0.6,1.441,1.339,1.013
			c0.739-0.427,1.339-1.575,1.339-2.561C113.727,77.981,113.125,77.528,112.385,77.954z"/>
	</g>
	<g>
		<path class="st18" d="M131.035,65.735c-1.278,0.736-2.311,2.715-2.311,4.416c0,1.702,1.035,2.484,2.311,1.748
			c1.278-0.736,2.311-2.715,2.311-4.416C133.345,65.781,132.312,64.999,131.035,65.735z"/>
		<path class="st23" d="M131.052,66.301c-1.038,0.6-1.879,2.208-1.879,3.591c0,1.385,0.842,2.02,1.879,1.421
			c1.038-0.6,1.879-2.208,1.879-3.591C132.932,66.338,132.09,65.703,131.052,66.301z"/>
		<path class="st15" d="M131.325,67.107c-0.739,0.427-1.339,1.575-1.339,2.561s0.6,1.441,1.339,1.013
			c0.739-0.427,1.339-1.575,1.339-2.561C132.664,67.133,132.064,66.68,131.325,67.107z"/>
	</g>
	<polygon class="st19" points="78.613,72.81 78.154,72.545 78.154,57.102 78.613,57.366 	"/>
	<polygon class="st19" points="87.945,70.517 87.487,70.253 87.487,54.81 87.945,55.076 	"/>
	<path class="st21" d="M90.29,66.063l14.19,8.191c0-8.991-4.796-17.299-12.583-21.794l-1.606-0.927V66.063z"/>
	<path class="st22" d="M96.817,58.249c4.987,6.563,4.489,14.172,4.489,14.172l3.173,1.832c0-8.991-4.796-17.299-12.583-21.794
		l-1.606-0.927v1.308C90.29,52.841,94.986,55.839,96.817,58.249z"/>
	<polygon class="st21" points="78.154,44.632 78.154,59.162 87.945,64.814 87.945,50.285 	"/>
	<polygon class="st22" points="78.154,44.632 78.154,59.162 79.019,59.659 80.134,48.37 87.945,51.532 87.945,50.285 	"/>
	<polygon class="st21" points="75.783,43.279 45.513,25.747 45.513,40.277 75.783,57.809 	"/>
	<g>
		<polygon class="st16" points="68.019,63.91 36.635,45.793 36.635,44.546 68.019,62.666 		"/>
		<polygon class="st15" points="68.019,62.666 36.635,44.546 44.781,39.843 76.164,57.962 		"/>
		<polygon class="st24" points="76.164,57.962 76.164,59.209 68.019,63.91 68.019,62.666 		"/>
	</g>
	<g>
		<path class="st13" d="M68.751,61.052c0,0.25-0.33,0.451-0.735,0.451c-0.405,0-0.735-0.202-0.735-0.451
			c0-0.25,0.33-0.45,0.735-0.45C68.422,60.602,68.751,60.803,68.751,61.052z"/>
		<rect x="67.284" y="49.412" class="st13" width="1.47" height="11.641"/>
	</g>
	<g>
		<path class="st13" d="M39.647,44.586c0,0.25-0.33,0.451-0.735,0.451s-0.735-0.202-0.735-0.451c0-0.248,0.33-0.451,0.735-0.451
			C39.319,44.135,39.647,44.339,39.647,44.586z"/>
		<rect x="38.179" y="32.945" class="st13" width="1.47" height="11.641"/>
	</g>
	<polygon class="st25" points="45.513,25.747 36.6,33.661 66.845,51.152 75.759,43.238 	"/>
	<g>
		<polygon class="st23" points="45.513,25.747 36.6,33.661 38.542,34.768 47.455,26.855 		"/>
		<polygon class="st23" points="49.25,27.922 40.338,35.837 42.279,36.945 51.193,29.03 		"/>
		<polygon class="st23" points="52.988,30.099 44.074,38.013 46.018,39.121 54.932,31.205 		"/>
		<polygon class="st23" points="56.725,32.276 47.812,40.188 49.755,41.296 58.669,33.383 		"/>
	</g>
	<g>
		<polygon class="st23" points="60.555,34.48 51.641,42.394 53.586,43.502 62.499,35.587 		"/>
		<polygon class="st23" points="64.315,36.636 55.379,44.571 57.322,45.678 66.238,37.766 		"/>
		<polygon class="st23" points="68.062,38.806 59.146,46.72 61.077,47.84 69.992,39.924 		"/>
		<polygon class="st23" points="71.806,40.975 62.893,48.892 64.823,50.009 73.735,42.094 		"/>
	</g>
	<polygon class="st26" points="66.845,51.152 75.759,46.036 75.759,43.238 	"/>
	<path class="st27" d="M104.535,52.841l18.919-10.924c0,0-1.019,2.191-6.615,5.629C110.075,51.701,104.535,52.841,104.535,52.841z"
		/>
	<polygon class="st19" points="87.716,65.317 78.382,59.927 78.154,59.162 87.945,64.814 	"/>
	<g>
		<path class="st16" d="M96.282,31.69l-7.832,4.52c-1.743,1.005-4.793,0.881-6.807-0.283L60.515,23.731
			c-2.015-1.164-2.234-2.923-0.489-3.93l7.832-4.52c1.743-1.005,4.793-0.881,6.807,0.283l21.125,12.198
			C97.807,28.924,98.026,30.683,96.282,31.69z"/>
		<polygon class="st16" points="58.858,19.495 58.858,21.372 60.808,22.755 61.706,20.033 		"/>
		<polygon class="st16" points="97.458,27.922 97.455,29.893 96.184,30.304 95.502,27.922 		"/>
		<path class="st15" d="M96.282,29.568l-7.832,4.52c-1.743,1.005-4.793,0.881-6.807-0.283L60.515,21.608
			c-2.015-1.164-2.234-2.923-0.489-3.93l7.832-4.52c1.743-1.005,4.793-0.881,6.807,0.283l21.128,12.196
			C97.807,26.799,98.026,28.558,96.282,29.568z"/>
	</g>
	<g>
		<polygon class="st28" points="89.366,33.516 54.991,13.188 94.761,11.052 		"/>
		<g>
			<g>
				<path class="st29" d="M78.218,11.941c-1.278,5.428,1.561,14.136,4.856,17.853c0.469,0.277,2.047,1.209,2.047,1.209
					c-0.105-0.086-1.021-0.997-1.125-1.096c-3.374-3.197-6.472-12.169-5.234-17.723c0.015-0.065,0.062-0.216,0.078-0.279
					C78.838,11.907,78.48,11.915,78.218,11.941z"/>
			</g>
			<g>
				<path class="st29" d="M86.742,11.847c-0.299,2.297,0.04,5.163,0.792,7.935c-0.132,0.303-0.239,0.624-0.32,0.953
					c-0.928-3.062-1.38-6.314-1.066-8.888c0.015-0.134,0.025-0.206,0.048-0.336l0.593-0.031
					C86.777,11.58,86.756,11.743,86.742,11.847z"/>
			</g>
			<g>
				<path class="st29" d="M69.792,12.393c-0.111,3.481,0.918,7.64,2.44,10.992c0.269,0.166,0.636,0.363,0.871,0.513
					c-1.687-3.395-2.873-7.863-2.73-11.537C70.167,12.371,70.02,12.385,69.792,12.393z"/>
			</g>
			<g>
				<path class="st29" d="M62.374,12.79c0.159,1.775,0.55,3.634,1.102,5.415c0.163,0.113,0.549,0.343,0.731,0.432
					c-0.638-1.915-1.092-3.946-1.26-5.879C62.765,12.763,62.578,12.784,62.374,12.79z"/>
			</g>
		</g>
		<g>
			<g>
				<path class="st29" d="M75.009,25.033c1.376-5.404,7.921-11.814,12.557-13.588c0.544-0.028,2.374-0.128,2.374-0.128
					c-0.133,0.028-1.366,0.411-1.505,0.451c-4.47,1.273-11.362,7.796-12.832,13.296c-0.016,0.065-0.045,0.219-0.062,0.283
					C75.545,25.35,75.23,25.179,75.009,25.033z"/>
			</g>
			<g>
				<path class="st29" d="M82.525,29.057c0.799-2.176,2.422-4.562,4.372-6.67c0.023-0.328,0.078-0.663,0.158-0.992
					c-2.24,2.286-4.143,4.961-5.052,7.388c-0.048,0.128-0.072,0.192-0.116,0.32l0.512,0.303
					C82.433,29.308,82.489,29.156,82.525,29.057z"/>
			</g>
			<g>
				<path class="st29" d="M67.747,20.737c1.509-3.141,4.346-6.349,7.243-8.62c0.316-0.023,0.731-0.028,1.011-0.053
					c-3.065,2.229-6.18,5.645-7.753,8.969C68.072,20.929,67.945,20.85,67.747,20.737z"/>
			</g>
			<g>
				<path class="st29" d="M61.354,16.954c0.962-1.5,2.168-2.967,3.481-4.291c0.196-0.025,0.645-0.05,0.85-0.048
					c-1.451,1.403-2.794,2.996-3.837,4.628C61.688,17.16,61.531,17.055,61.354,16.954z"/>
			</g>
		</g>
		<path class="st30" d="M89.366,33.516L54.991,13.188c0,0,18.08,7.903,27.394,10.909c1.737-10.043,8.131-12.816,8.131-12.816
			l4.245-0.227L89.366,33.516z"/>
		<path class="st31" d="M95.635,11.163c-3.618-0.885-7.789,3.459-9.318,9.701c-1.528,6.243,0.161,12.024,3.779,12.909
			c3.618,0.885,7.79-3.459,9.319-9.701C100.944,17.829,99.252,12.049,95.635,11.163z"/>
		<path class="st29" d="M95.606,12.858c-3.074-0.753-6.62,2.938-7.921,8.243c-1.3,5.305,0.138,10.217,3.21,10.971
			c3.075,0.753,6.62-2.938,7.921-8.243C100.115,18.524,98.678,13.611,95.606,12.858z"/>
	</g>
	<g>
		<path class="st32" d="M97.442,36.835c1.561-0.219,2.959-0.974,4.023-2.041c0.098,0.006,0.192,0.022,0.293,0.025
			c2.844,0.086,6-2.283,6.247-5.17c3.51-1.954,2.788-8.368,8.907-6.532c-0.674-2.796-3.065-4.938-5.792-5.815
			c-1.141-2.342-3.735-4.049-6.341-4.146c-0.828-3.139-4.434-4.6-7.503-3.955c-4.366,0.918-7.109,4.887-8.804,8.721
			c-1.87,4.23-2.619,9.206-0.497,13.49C89.708,34.912,93.438,37.401,97.442,36.835z"/>
		<path class="st33" d="M97.442,36.835c0.12-0.016,0.238-0.043,0.356-0.066c-4.546-2.016-7.113-8.262-6.909-13.016
			c0.216-5.018,4.047-13.363,10.2-12.294c-7.69,10.795-4.666,20.62,0.376,23.334c1.657,0.893,5.435-1.209,6.16-3.69
			c-1.201-2.097-2.978-8.402,1.484-10.71c2.571-1.332,5.699,0.116,7.665,2.296c-0.767-2.458-2.858-4.353-5.281-5.247
			c-3.192-0.132-6.382,0.624-7.615,4.036c-1.029,2.851,0.283,6.849-0.801,9.692c-1.218-3.956-2.949-4.48-3.209-6.857
			c-0.227-2.086,1.021-4.95,2.018-6.809c1.31-2.444,3.663-3.667,6.108-3.405c-0.994-0.557-2.099-0.906-3.213-0.946
			c-0.828-3.139-4.434-4.6-7.503-3.955c-4.366,0.918-7.109,4.887-8.804,8.721c-1.87,4.23-2.619,9.206-0.497,13.49
			C89.708,34.912,93.438,37.401,97.442,36.835z"/>
	</g>
</g>
<g>
	<g>
		<path class="st29" d="M41.472,46.301l0.252,2.193c0,0.239,0.332,0.431,0.745,0.431c0.411,0,0.745-0.192,0.745-0.431l0.195-2.173
			L41.472,46.301z"/>
		<g>
			<g>
				<path class="st34" d="M43.262,47.912c-0.553-0.023-1.27-0.413-1.7-0.821c-0.004-0.031-0.01-0.075-0.012-0.111
					c0.406,0.42,1.152,0.84,1.721,0.86C43.267,47.858,43.263,47.893,43.262,47.912z"/>
			</g>
			<g>
				<path class="st34" d="M43.356,46.865c-0.229-0.055-0.479-0.158-0.714-0.289c-0.039,0.006-0.081,0.01-0.121,0.01
					c0.269,0.159,0.563,0.286,0.831,0.351C43.351,46.916,43.354,46.893,43.356,46.865z"/>
			</g>
		</g>
		<g>
			<g>
				<path class="st34" d="M41.656,47.912c0.534-0.004,1.23-0.367,1.674-0.763c0.003-0.031,0.009-0.072,0.009-0.107
					c-0.426,0.404-1.149,0.79-1.693,0.801C41.649,47.863,41.651,47.89,41.656,47.912z"/>
			</g>
			<g>
				<path class="st34" d="M41.538,46.88c0.245-0.052,0.52-0.159,0.774-0.303c0.039,0.006,0.081,0.01,0.121,0.01
					c-0.289,0.171-0.606,0.306-0.89,0.363C41.544,46.936,41.542,46.907,41.538,46.88z"/>
			</g>
			<g>
				<path class="st34" d="M42.087,48.867c0.389-0.113,0.828-0.359,1.144-0.606c0.004-0.041,0.009-0.068,0.009-0.105
					c-0.34,0.288-0.831,0.565-1.26,0.667C42.007,48.839,42.058,48.859,42.087,48.867z"/>
			</g>
			<g>
				<path class="st34" d="M42.841,48.867c-0.389-0.113-0.828-0.359-1.144-0.606c-0.004-0.041-0.009-0.068-0.009-0.105
					c0.34,0.288,0.831,0.565,1.26,0.667C42.921,48.839,42.869,48.859,42.841,48.867z"/>
			</g>
		</g>
		<path class="st30" d="M41.472,46.301l0.252,2.193c0,0.089,0.048,0.223,0.256,0.326c0.053-0.413,0.091-0.911,0.111-1.518
			c0.605,0.053,1.257-0.367,1.257-0.367l0.055-0.613L41.472,46.301z"/>
		<g>
			<path class="st28" d="M43.755,46.142c0,0.413-0.577,0.747-1.288,0.747s-1.288-0.334-1.288-0.747c0-0.413,0.577-0.747,1.288-0.747
				C43.176,45.398,43.755,45.732,43.755,46.142z"/>
			<rect x="41.179" y="45.412" class="st28" width="2.577" height="0.731"/>
			<g>
				<g>
					<path class="st34" d="M43.086,46.798c-0.507-0.081-1.1-0.413-1.488-0.765c-0.013-0.012-0.136-0.152-0.149-0.166
						c-0.004-0.031,0.099,0.055,0.098,0.018c0.399,0.414,1.127,0.826,1.693,0.859C43.185,46.762,43.144,46.785,43.086,46.798z"/>
				</g>
			</g>
			<g>
				<g>
					<path class="st34" d="M41.85,46.8c0.481-0.075,1.042-0.376,1.432-0.708c0.013-0.012,0.256-0.244,0.289-0.295
						c0.003-0.031-0.239,0.184-0.239,0.149c-0.411,0.389-1.096,0.761-1.631,0.799C41.746,46.762,41.798,46.787,41.85,46.8z"/>
				</g>
			</g>
			<path class="st31" d="M43.755,45.412c0,0.413-0.577,0.747-1.288,0.747s-1.288-0.334-1.288-0.747c0-0.413,0.577-0.747,1.288-0.747
				S43.755,44.999,43.755,45.412z"/>
			<path class="st29" d="M43.571,45.37c0,0.351-0.491,0.636-1.096,0.636c-0.605,0-1.096-0.284-1.096-0.636
				c0-0.351,0.491-0.636,1.096-0.636C43.081,44.735,43.571,45.019,43.571,45.37z"/>
			<g>
				<polygon class="st34" points="41.42,45.847 41.179,46.003 41.179,45.913 41.358,45.792 				"/>
				<path class="st34" d="M41.179,46.086c0,0,0.116,0.396,0.219,0.472c0.105,0.078,0.105,0.078,0.105,0.078s-0.143-0.2-0.202-0.349
					c-0.098-0.245-0.121-0.349-0.121-0.349L41.179,46.086L41.179,46.086z"/>
			</g>
			<g>
				<polygon class="st34" points="43.512,45.847 43.755,46.003 43.755,45.913 43.574,45.792 				"/>
				<path class="st34" d="M43.755,46.086c0,0-0.116,0.396-0.219,0.472c-0.105,0.078-0.105,0.078-0.105,0.078s0.143-0.2,0.202-0.349
					c0.098-0.245,0.121-0.349,0.121-0.349L43.755,46.086L43.755,46.086z"/>
			</g>
		</g>
	</g>
	<path class="st35" d="M43.281,44.587c0.025-0.105,0.018-0.219-0.027-0.336c-0.149-0.39-0.586-0.563-0.983-0.615
		c0.136,0.365-0.445,0.44-0.63,0.649c-0.108,0.121-0.163,0.281-0.093,0.436c0.002,0.004,0.004,0.009,0.006,0.012
		c-0.259,0.159-0.33,0.544-0.173,0.817c0.245,0.438,0.791,0.512,1.244,0.454c0.431-0.055,1.035-0.233,1.062-0.763
		C43.703,44.946,43.523,44.719,43.281,44.587z"/>
	<path class="st36" d="M43.589,44.866c-0.023,0.072-0.052,0.143-0.081,0.204c-0.091,0.204-0.256,0.363-0.457,0.46
		c-0.386,0.188-0.918,0.233-1.323,0.105c-0.146-0.048-0.309-0.155-0.417-0.295c0.012,0.072,0.035,0.143,0.071,0.206
		c0.245,0.438,0.791,0.512,1.244,0.454c0.431-0.055,1.035-0.233,1.062-0.763C43.696,45.098,43.655,44.974,43.589,44.866z"/>
	<path class="st36" d="M41.554,44.733c-0.009,0.004-0.015,0.01-0.023,0.016c0.163,0.039,0.351,0.158,0.477,0.192
		c0.277,0.077,0.57,0.075,0.842-0.022c0.134-0.048,0.423-0.245,0.436-0.372c0.013-0.095,0.006-0.192-0.031-0.295
		c-0.123-0.32-0.438-0.494-0.765-0.574c0.146,0.084,0.264,0.213,0.289,0.37c0.045,0.279-0.2,0.483-0.452,0.524
		c-0.248,0.039-0.547-0.031-0.738-0.196c-0.002-0.002-0.004-0.004-0.006-0.004c-0.065,0.108-0.089,0.233-0.035,0.356
		C41.551,44.725,41.554,44.729,41.554,44.733z"/>
	<path class="st37" d="M42.937,45.053c-0.346,0.121-0.726,0.045-1.085-0.062c-0.105-0.031-0.233-0.075-0.321,0.015
		c-0.071,0.071-0.048,0.163,0.012,0.231c0.209,0.229,0.663,0.269,0.946,0.229c0.236-0.034,0.582-0.157,0.665-0.386
		C43.199,44.952,42.995,45.035,42.937,45.053z"/>
	<path class="st37" d="M42.354,43.922c-0.037,0.041-0.093,0.091-0.186,0.143c-0.081,0.045-0.19,0.064-0.259,0.124
		c-0.099,0.089-0.003,0.19,0.103,0.196c0.152,0.009,0.336-0.039,0.438-0.158c0.078-0.09,0.089-0.202,0.045-0.306
		C42.482,43.899,42.421,43.848,42.354,43.922z"/>
</g>
<g>
	<g>
		<path class="st29" d="M34.575,42.217l0.252,2.193c0,0.239,0.332,0.431,0.745,0.431c0.411,0,0.745-0.192,0.745-0.431l0.195-2.173
			L34.575,42.217z"/>
		<g>
			<g>
				<path class="st34" d="M36.366,43.828c-0.553-0.023-1.27-0.413-1.7-0.821c-0.004-0.031-0.01-0.075-0.012-0.111
					c0.406,0.42,1.152,0.84,1.721,0.86C36.37,43.775,36.367,43.81,36.366,43.828z"/>
			</g>
			<g>
				<path class="st34" d="M36.46,42.781c-0.229-0.055-0.479-0.158-0.714-0.289c-0.039,0.006-0.081,0.01-0.121,0.01
					c0.269,0.159,0.563,0.286,0.831,0.351C36.454,42.832,36.457,42.809,36.46,42.781z"/>
			</g>
		</g>
		<g>
			<g>
				<path class="st34" d="M34.76,43.828c0.534-0.004,1.23-0.367,1.674-0.763c0.003-0.031,0.009-0.072,0.009-0.107
					c-0.426,0.404-1.149,0.79-1.693,0.801C34.752,43.78,34.754,43.807,34.76,43.828z"/>
			</g>
			<g>
				<path class="st34" d="M34.641,42.796c0.245-0.052,0.52-0.159,0.774-0.303c0.039,0.006,0.081,0.01,0.121,0.01
					c-0.289,0.171-0.606,0.306-0.89,0.363C34.648,42.852,34.645,42.822,34.641,42.796z"/>
			</g>
			<g>
				<path class="st34" d="M35.19,44.784c0.389-0.113,0.828-0.359,1.144-0.606c0.004-0.041,0.009-0.068,0.009-0.105
					c-0.34,0.288-0.831,0.565-1.26,0.667C35.111,44.756,35.162,44.776,35.19,44.784z"/>
			</g>
			<g>
				<path class="st34" d="M35.944,44.784c-0.389-0.113-0.828-0.359-1.144-0.606c-0.004-0.041-0.009-0.068-0.009-0.105
					c0.34,0.288,0.831,0.565,1.26,0.667C36.024,44.756,35.973,44.776,35.944,44.784z"/>
			</g>
		</g>
		<path class="st30" d="M34.575,42.217l0.252,2.193c0,0.089,0.046,0.223,0.256,0.326c0.053-0.413,0.091-0.911,0.111-1.518
			c0.605,0.053,1.257-0.367,1.257-0.367l0.055-0.613L34.575,42.217z"/>
		<g>
			<path class="st28" d="M36.857,42.06c0,0.413-0.577,0.747-1.288,0.747c-0.711,0-1.288-0.334-1.288-0.747
				c0-0.413,0.577-0.747,1.288-0.747C36.28,41.315,36.857,41.649,36.857,42.06z"/>
			<rect x="34.282" y="41.328" class="st28" width="2.577" height="0.731"/>
			<g>
				<g>
					<path class="st34" d="M36.189,42.714c-0.507-0.081-1.1-0.413-1.488-0.765c-0.013-0.012-0.136-0.152-0.149-0.166
						c-0.004-0.031,0.099,0.055,0.098,0.018c0.399,0.414,1.127,0.826,1.693,0.859C36.289,42.677,36.248,42.702,36.189,42.714z"/>
				</g>
			</g>
			<g>
				<g>
					<path class="st34" d="M34.954,42.716c0.481-0.075,1.042-0.376,1.432-0.708c0.013-0.012,0.256-0.244,0.289-0.295
						c0.003-0.031-0.239,0.184-0.239,0.149c-0.411,0.389-1.096,0.761-1.631,0.799C34.85,42.677,34.902,42.702,34.954,42.716z"/>
				</g>
			</g>
			<path class="st31" d="M36.857,41.328c0,0.413-0.577,0.747-1.288,0.747c-0.711,0-1.288-0.334-1.288-0.747
				c0-0.413,0.577-0.747,1.288-0.747C36.279,40.581,36.857,40.915,36.857,41.328z"/>
			<path class="st29" d="M36.675,41.286c0,0.351-0.491,0.636-1.096,0.636c-0.605,0-1.096-0.284-1.096-0.636
				c0-0.351,0.491-0.636,1.096-0.636C36.184,40.651,36.675,40.936,36.675,41.286z"/>
			<g>
				<polygon class="st34" points="34.523,41.764 34.282,41.92 34.282,41.83 34.461,41.709 				"/>
				<path class="st34" d="M34.282,42.003c0,0,0.116,0.396,0.219,0.472c0.105,0.078,0.105,0.078,0.105,0.078s-0.143-0.2-0.202-0.349
					c-0.098-0.245-0.121-0.349-0.121-0.349L34.282,42.003L34.282,42.003z"/>
			</g>
			<g>
				<polygon class="st34" points="36.615,41.764 36.857,41.92 36.857,41.83 36.677,41.709 				"/>
				<path class="st34" d="M36.857,42.003c0,0-0.116,0.396-0.219,0.472c-0.105,0.078-0.105,0.078-0.105,0.078s0.143-0.2,0.202-0.349
					c0.098-0.245,0.121-0.349,0.121-0.349L36.857,42.003L36.857,42.003z"/>
			</g>
		</g>
	</g>
	<path class="st35" d="M36.385,40.504c0.025-0.105,0.018-0.219-0.027-0.336c-0.149-0.39-0.586-0.563-0.983-0.615
		c0.136,0.365-0.445,0.44-0.63,0.649c-0.108,0.121-0.163,0.281-0.093,0.436c0.002,0.004,0.004,0.009,0.006,0.012
		c-0.259,0.159-0.33,0.544-0.173,0.817c0.245,0.438,0.791,0.512,1.244,0.454c0.431-0.055,1.035-0.233,1.062-0.763
		C36.806,40.864,36.626,40.634,36.385,40.504z"/>
	<path class="st36" d="M36.693,40.783c-0.023,0.072-0.052,0.143-0.081,0.204c-0.091,0.204-0.256,0.363-0.457,0.46
		c-0.386,0.188-0.918,0.233-1.323,0.105c-0.146-0.046-0.309-0.155-0.417-0.295c0.012,0.072,0.035,0.143,0.071,0.206
		c0.245,0.438,0.791,0.512,1.244,0.454c0.431-0.055,1.035-0.233,1.062-0.763C36.799,41.016,36.759,40.891,36.693,40.783z"/>
	<path class="st36" d="M34.658,40.65c-0.009,0.004-0.015,0.01-0.023,0.016c0.163,0.039,0.351,0.158,0.477,0.192
		c0.277,0.077,0.57,0.075,0.842-0.022c0.134-0.048,0.423-0.245,0.436-0.372c0.013-0.095,0.006-0.192-0.031-0.295
		c-0.123-0.32-0.438-0.494-0.765-0.574c0.146,0.084,0.264,0.213,0.289,0.37c0.045,0.279-0.2,0.483-0.452,0.524
		c-0.248,0.039-0.547-0.031-0.738-0.196c-0.002-0.002-0.004-0.004-0.006-0.004c-0.065,0.108-0.089,0.233-0.035,0.356
		C34.655,40.641,34.658,40.645,34.658,40.65z"/>
	<path class="st37" d="M36.042,40.968c-0.346,0.121-0.726,0.045-1.085-0.062c-0.105-0.031-0.233-0.075-0.321,0.015
		c-0.071,0.071-0.048,0.163,0.012,0.231c0.209,0.229,0.663,0.269,0.946,0.229c0.236-0.034,0.582-0.157,0.665-0.386
		C36.302,40.869,36.098,40.95,36.042,40.968z"/>
	<path class="st37" d="M35.458,39.838c-0.037,0.041-0.093,0.091-0.186,0.143c-0.081,0.045-0.19,0.064-0.259,0.124
		c-0.099,0.089-0.003,0.19,0.103,0.196c0.152,0.009,0.336-0.039,0.438-0.158c0.078-0.09,0.089-0.202,0.045-0.306
		C35.585,39.815,35.524,39.763,35.458,39.838z"/>
</g>
</svg>
