<?xml version="1.0" encoding="utf-8"?>
<!-- Generator: Adobe Illustrator 25.4.1, SVG Export Plug-In . SVG Version: 6.00 Build 0)  -->
<svg version="1.1" id="Layer_1" xmlns="http://www.w3.org/2000/svg" xmlns:xlink="http://www.w3.org/1999/xlink" x="0px" y="0px"
	 viewBox="0 0 50 50" style="enable-background:new 0 0 50 50;" xml:space="preserve">
<style type="text/css">
	.st0{opacity:0.42;fill:#C0C1C1;}
	.st1{opacity:0.34;fill:#C0C1C1;}
	.st2{fill-rule:evenodd;clip-rule:evenodd;fill:#A8ADB1;}
	.st3{fill-rule:evenodd;clip-rule:evenodd;fill:#C3C1BE;}
	.st4{fill-rule:evenodd;clip-rule:evenodd;fill:#343434;}
	.st5{fill-rule:evenodd;clip-rule:evenodd;fill:#EDEEEE;}
	.st6{fill-rule:evenodd;clip-rule:evenodd;fill:#E4E4E4;}
	.st7{fill-rule:evenodd;clip-rule:evenodd;fill:#C8C8C9;}
	.st8{fill-rule:evenodd;clip-rule:evenodd;fill:#363332;}
	.st9{fill-rule:evenodd;clip-rule:evenodd;fill:#666462;}
	.st10{fill-rule:evenodd;clip-rule:evenodd;fill:#CAC9C5;}
	.st11{fill:#FD000D;}
	.st12{fill:#8D000D;}
	.st13{fill:#6AC4D5;}
	.st14{fill:#CD000D;}
	.st15{fill:#5C000D;}
	.st16{fill:#B6B8B8;}
	.st17{fill:#DDDFE3;}
	.st18{fill:#F5F6F7;}
	.st19{fill:#9DA7AC;}
	.st20{fill:#A6000D;}
	.st21{fill:#C0C1C1;}
	.st22{fill:#424545;}
	.st23{fill:#696969;}
</style>
<g>
	<path class="st0" d="M34.352,49.299L11.924,38.365c-0.022-0.011-0.015-0.035,0.017-0.055l13.773-8.521
		c0.031-0.019,0.075-0.026,0.097-0.016l22.428,10.934c0.022,0.011,0.015,0.035-0.017,0.055l-13.773,8.521
		C34.418,49.303,34.374,49.31,34.352,49.299z"/>
	<path class="st1" d="M12.082,43.653L0.807,37.75c-0.025-0.013-0.014-0.04,0.023-0.06l16.495-8.872
		c0.038-0.02,0.088-0.026,0.113-0.013l11.275,5.903c0.025,0.013,0.014,0.04-0.023,0.06L12.196,43.64
		C12.158,43.66,12.107,43.666,12.082,43.653z"/>
	<g>
		<path id="XMLID_1231_" class="st2" d="M14.828,37.332l0.007-0.651l1.114-0.075c4.207-2.611,8.505-5.178,12.715-7.788
			c0.063-0.039,0.158-0.05,0.212-0.024c5.975,2.899,11.946,5.8,17.921,8.699l1.16-0.078l-0.007,0.68l-0.002,0
			c-0.005,0.019-0.021,0.039-0.048,0.057c-4.564,2.846-9.119,5.663-13.752,8.476c-0.062,0.038-0.158,0.046-0.215,0.019
			c-6.393-3.061-12.719-6.161-19.063-9.252C14.837,37.379,14.824,37.356,14.828,37.332"/>
		<polygon id="XMLID_1230_" class="st3" points="47.869,37.481 29.065,28.375 29.263,27.752 48.067,36.858 		"/>
		<path id="XMLID_1229_" class="st2" d="M47.921,20.999c0.457,0.222,0.828,0.761,0.823,1.199L48.59,36.657
			c-0.005,0.438-0.383,0.614-0.84,0.393l-18.262-8.844c-0.458-0.222-0.828-0.761-0.824-1.199l0.154-14.459
			c0.005-0.438,0.383-0.614,0.841-0.393L47.921,20.999z"/>
		<path id="XMLID_1228_" class="st4" d="M48.336,36.65c-0.004,0.383-0.333,0.537-0.734,0.343l-18.117-8.774
			c-0.4-0.194-0.723-0.663-0.719-1.046l0.153-14.345c0.004-0.383,0.333-0.537,0.734-0.343l18.117,8.774
			c0.401,0.194,0.723,0.663,0.719,1.047L48.336,36.65z"/>
		<polygon id="XMLID_1227_" class="st5" points="47.244,22.416 47.101,35.54 29.909,27.265 30.052,14.141 		"/>
		<path id="XMLID_1226_" class="st6" d="M33.939,45.995c-6.393-3.061-12.719-6.161-19.063-9.252
			c-0.058-0.028-0.055-0.083,0.007-0.122c4.547-2.842,9.22-5.623,13.788-8.455c0.063-0.039,0.158-0.05,0.212-0.024
			c6.348,3.079,12.69,6.162,19.037,9.241c0.054,0.026,0.047,0.078-0.014,0.117c-4.564,2.846-9.119,5.663-13.752,8.476
			C34.092,46.014,33.995,46.022,33.939,45.995"/>
		<path id="XMLID_1225_" class="st7" d="M27.062,41.971c-1.309-0.64-2.63-1.272-3.936-1.914c-0.051-0.025-0.045-0.075,0.014-0.112
			c0.759-0.475,2.471-1.533,3.231-2.008c0.057-0.036,0.146-0.045,0.197-0.02c1.317,0.645,2.635,1.29,3.954,1.935
			c0.051,0.025,0.045,0.074-0.013,0.11c-0.77,0.472-2.477,1.517-3.247,1.988C27.201,41.987,27.112,41.996,27.062,41.971"/>
		<path id="XMLID_1224_" class="st5" d="M27.062,41.971c-1.286-0.629-2.584-1.251-3.868-1.88c0.776-0.485,2.447-1.518,3.196-1.986
			c0.057-0.036,0.146-0.045,0.197-0.02c1.294,0.634,2.589,1.267,3.884,1.901c-0.787,0.482-2.451,1.501-3.21,1.965
			C27.201,41.987,27.112,41.996,27.062,41.971"/>
		<path id="XMLID_1223_" class="st5" d="M37.676,42.932c-5.981-2.864-11.9-5.764-17.835-8.656c-0.054-0.027-0.052-0.078,0.006-0.114
			c4.255-2.659,3.561-2.117,7.835-4.767c0.059-0.037,0.147-0.047,0.198-0.022c5.939,2.881,11.872,5.765,17.811,8.646
			c0.05,0.024,0.044,0.073-0.013,0.109c-4.27,2.663-3.466,2.155-7.801,4.786C37.819,42.95,37.729,42.957,37.676,42.932"/>
		<path id="XMLID_1222_" class="st8" d="M33.364,35.094l0.033-0.01l0.839-0.524l-0.745-0.361l-0.031,0
			c-0.014,0.001-0.022,0.004-0.027,0.007l-0.837,0.524l0.743,0.361L33.364,35.094z"/>
		<path id="XMLID_1221_" class="st8" d="M32.394,34.623l0.034-0.01l0.837-0.524l-0.746-0.361l-0.03,0
			c-0.015,0.001-0.022,0.004-0.028,0.007l-0.836,0.524l0.745,0.361L32.394,34.623z"/>
		<path id="XMLID_1220_" class="st8" d="M31.421,34.151l0.033-0.01l0.836-0.524l-0.747-0.362l-0.031,0
			c-0.014,0.001-0.021,0.004-0.026,0.007l-0.836,0.524l0.746,0.362L31.421,34.151z"/>
		<path id="XMLID_1219_" class="st8" d="M34.334,35.564l0.034-0.01l0.841-0.523l-0.744-0.361l-0.03,0
			c-0.014,0.001-0.022,0.004-0.027,0.007l-0.84,0.523l0.743,0.361L34.334,35.564z"/>
		<path id="XMLID_1218_" class="st8" d="M35.304,36.035l0.033-0.01l0.843-0.523l-0.743-0.36l-0.03,0
			c-0.015,0.001-0.022,0.004-0.028,0.008l-0.841,0.523l0.742,0.36L35.304,36.035z"/>
		<path id="XMLID_1217_" class="st8" d="M27.258,34.572l0.033-0.009l0.828-0.518l-1.524-0.741l1.101-0.687l-1.181-0.573
			c-0.014-0.001-0.025-0.001-0.033,0c-0.014,0.001-0.021,0.004-0.026,0.007l-1.932,1.199l2.71,1.32L27.258,34.572z"/>
		<path id="XMLID_1216_" class="st8" d="M30.447,33.678l0.033-0.01l0.835-0.524l-0.748-0.363l-0.031,0
			c-0.014,0.001-0.022,0.004-0.027,0.007l-0.834,0.523l0.749,0.363L30.447,33.678z"/>
		<path id="XMLID_1215_" class="st8" d="M29.219,35.528l0.033-0.009L30.082,35l-0.744-0.362l-0.031,0
			c-0.014,0.001-0.021,0.004-0.026,0.007l-0.829,0.519l0.744,0.362L29.219,35.528z"/>
		<path id="XMLID_1214_" class="st8" d="M29.442,33.19l0.034-0.01l0.834-0.524l-2.688-1.302l-0.031,0
			c-0.015,0.001-0.022,0.004-0.027,0.007l-0.837,0.52c0.662,0.32,2.69,1.306,2.69,1.306L29.442,33.19z"/>
		<polygon id="XMLID_1213_" class="st8" points="28.248,35.055 28.281,35.045 29.11,34.527 28.362,34.163 28.331,34.163 
			28.305,34.17 27.478,34.688 28.224,35.052 		"/>
		<path id="XMLID_1212_" class="st8" d="M41.141,38.86l0.035-0.01l0.848-0.522l-0.748-0.361l-0.031,0
			c-0.015,0.001-0.022,0.004-0.028,0.007l-0.848,0.521l0.748,0.362L41.141,38.86z"/>
		<path id="XMLID_1211_" class="st8" d="M37.92,39.759l0.035-0.01l0.846-0.517l-0.746-0.361l-0.032,0
			c-0.015,0.001-0.022,0.004-0.027,0.007l-0.845,0.517c0.29,0.14,0.446,0.215,0.745,0.361L37.92,39.759z"/>
		<path id="XMLID_1210_" class="st8" d="M39.479,39.286l0.034-0.01l0.847-0.519l-0.748-0.361l-0.031,0
			c-0.015,0.001-0.022,0.004-0.028,0.007l-0.846,0.518l0.747,0.361L39.479,39.286z"/>
		<path id="XMLID_1209_" class="st8" d="M36.26,40.182l0.035-0.01l0.846-0.516l-0.743-0.36l-0.031,0
			c-0.014,0.001-0.021,0.004-0.027,0.007l-0.846,0.516l0.742,0.36L36.26,40.182z"/>
		<path id="XMLID_1208_" class="st8" d="M35.289,39.711l0.034-0.01l0.846-0.515l-0.741-0.359l-0.031,0
			c-0.014,0.001-0.022,0.004-0.027,0.007l-0.845,0.516l0.739,0.359L35.289,39.711z"/>
		<path id="XMLID_1207_" class="st8" d="M36.273,36.505l0.033-0.01l0.845-0.523l-0.744-0.36l-0.03,0
			c-0.015,0.001-0.022,0.004-0.028,0.007l-0.843,0.523l0.742,0.359L36.273,36.505z"/>
		<path id="XMLID_1206_" class="st8" d="M38.215,37.445l0.034-0.01l0.848-0.521l-0.744-0.36l-0.031,0
			c-0.014,0.001-0.022,0.004-0.027,0.007l-0.846,0.522l0.744,0.36L38.215,37.445z"/>
		<path id="XMLID_1205_" class="st8" d="M37.243,36.975l0.034-0.01l0.847-0.522l-0.744-0.36l-0.031,0
			c-0.015,0.001-0.022,0.004-0.028,0.007l-0.844,0.522l0.742,0.36L37.243,36.975z"/>
		<path id="XMLID_1204_" class="st8" d="M40.163,38.388l0.035-0.01l0.848-0.521L40.3,37.495l-0.032,0
			c-0.014,0.001-0.022,0.004-0.027,0.007l-0.848,0.521l0.746,0.361L40.163,38.388z"/>
		<path id="XMLID_1203_" class="st8" d="M39.188,37.916l0.034-0.01l0.848-0.521l-0.745-0.361h-0.031
			c-0.015,0.001-0.022,0.004-0.028,0.008l-0.848,0.521l0.745,0.36L39.188,37.916z"/>
		<path id="XMLID_1202_" class="st8" d="M28.808,34.106l0.033-0.01l0.83-0.52l-0.749-0.364c-0.014-0.001-0.024-0.001-0.032,0
			l-0.025,0.007l-0.831,0.52l0.749,0.364L28.808,34.106z"/>
		<path id="XMLID_1201_" class="st8" d="M31.722,35.524l0.033-0.01l0.834-0.521l-0.743-0.361l-0.031,0
			c-0.014,0.001-0.021,0.004-0.026,0.007l-0.833,0.521l0.742,0.361L31.722,35.524z"/>
		<path id="XMLID_1200_" class="st8" d="M32.69,35.994l0.034-0.01l0.837-0.52l-0.743-0.36l-0.03,0
			c-0.015,0.001-0.022,0.004-0.027,0.007l-0.834,0.52l0.741,0.36L32.69,35.994z"/>
		<path id="XMLID_1199_" class="st8" d="M30.753,35.052l0.034-0.01l0.833-0.521l-0.745-0.362l-0.031,0
			c-0.014,0.001-0.021,0.004-0.026,0.007l-0.831,0.521l0.744,0.362L30.753,35.052z"/>
		<path id="XMLID_1198_" class="st8" d="M33.657,36.464l0.034-0.01l0.838-0.52l-0.742-0.36l-0.031,0
			c-0.014,0.001-0.021,0.004-0.027,0.007l-0.837,0.52l0.74,0.359L33.657,36.464z"/>
		<path id="XMLID_1197_" class="st8" d="M34.624,36.934l0.033-0.01l0.841-0.52l-0.742-0.36l-0.03,0
			c-0.015,0.001-0.022,0.004-0.028,0.007l-0.839,0.52l0.74,0.359L34.624,36.934z"/>
		<path id="XMLID_1196_" class="st8" d="M29.782,34.58l0.033-0.01l0.831-0.521l-0.747-0.363l-0.031,0
			c-0.014,0.001-0.021,0.004-0.026,0.007l-0.831,0.52l0.747,0.363L29.782,34.58z"/>
		<path id="XMLID_1195_" class="st8" d="M23.22,33.822l0.032-0.009l0.829-0.514l-0.767-0.373l-0.027-0.003l-0.032,0.009
			c-0.334,0.205-0.505,0.311-0.831,0.512l0.77,0.376L23.22,33.822z"/>
		<path id="XMLID_1194_" class="st8" d="M34.323,39.241l0.034-0.01l0.844-0.516l-0.738-0.359l-0.03,0
			c-0.014,0.001-0.022,0.004-0.027,0.007l-0.843,0.516l0.736,0.358L34.323,39.241z"/>
		<path id="XMLID_1193_" class="st8" d="M30.186,36l0.033-0.01l0.832-0.519l-0.742-0.361l-0.031,0
			c-0.014,0.001-0.021,0.004-0.027,0.007l-0.831,0.519l0.741,0.361L30.186,36z"/>
		<path id="XMLID_1192_" class="st8" d="M27.831,33.63l0.032-0.009l0.831-0.52l-0.753-0.365c-0.014-0.001-0.024-0.001-0.032,0
			l-0.025,0.007l-0.831,0.519l0.753,0.366L27.831,33.63z"/>
		<path id="XMLID_1191_" class="st8" d="M35.591,37.403l0.034-0.01l0.843-0.519l-0.742-0.36l-0.03,0
			c-0.014,0.001-0.022,0.004-0.027,0.007l-0.841,0.52l0.74,0.359L35.591,37.403z"/>
		<path id="XMLID_1190_" class="st8" d="M34.043,37.878l0.034-0.01l0.841-0.517l-0.739-0.359l-0.03,0
			c-0.014,0.001-0.021,0.004-0.027,0.007l-0.839,0.518l0.737,0.359L34.043,37.878z"/>
		<path id="XMLID_1189_" class="st8" d="M33.079,37.409l0.034-0.01l0.839-0.517l-0.739-0.359l-0.031,0
			c-0.014,0.001-0.021,0.004-0.027,0.007l-0.837,0.518c0.271,0.131,0.737,0.359,0.737,0.359L33.079,37.409z"/>
		<path id="XMLID_1188_" class="st8" d="M31.152,36.471l0.034-0.01l0.834-0.519l-0.741-0.36l-0.031,0
			c-0.014,0.001-0.021,0.004-0.026,0.007l-0.832,0.519l0.738,0.36L31.152,36.471z"/>
		<path id="XMLID_1187_" class="st8" d="M36.56,37.873l0.034-0.01l0.844-0.519l-0.742-0.36l-0.031,0
			c-0.014,0.001-0.022,0.004-0.027,0.007l-0.843,0.519l0.741,0.359L36.56,37.873z"/>
		<path id="XMLID_1186_" class="st8" d="M32.116,36.94l0.033-0.01l0.837-0.518l-0.74-0.36l-0.03,0
			c-0.014,0.001-0.022,0.004-0.027,0.007l-0.834,0.518l0.737,0.359L32.116,36.94z"/>
		<path id="XMLID_1185_" class="st8" d="M35.009,38.347l0.034-0.01l0.842-0.517l-0.74-0.359l-0.031,0
			c-0.014,0.001-0.021,0.004-0.027,0.007l-0.841,0.517l0.738,0.359L35.009,38.347z"/>
		<path id="XMLID_1184_" class="st8" d="M35.976,38.817l0.034-0.01l0.844-0.517l-0.741-0.359l-0.031,0
			c-0.014,0.001-0.022,0.004-0.027,0.007l-0.843,0.517l0.739,0.359L35.976,38.817z"/>
		<path id="XMLID_1183_" class="st8" d="M37.53,38.343l0.034-0.01l0.846-0.519l-0.744-0.36l-0.031,0
			c-0.015,0.001-0.022,0.004-0.028,0.007l-0.844,0.519l0.742,0.36L37.53,38.343z"/>
		<path id="XMLID_1182_" class="st8" d="M38.503,38.814l0.034-0.01l0.847-0.519l-0.746-0.361l-0.03,0
			c-0.015,0.001-0.023,0.004-0.028,0.007l-0.846,0.519l0.744,0.36L38.503,38.814z"/>
		<path id="XMLID_1181_" class="st8" d="M36.947,39.288l0.034-0.01l0.845-0.517l-0.743-0.36l-0.031,0
			c-0.014,0.001-0.022,0.004-0.028,0.007l-0.844,0.516l0.742,0.36L36.947,39.288z"/>
		<path id="XMLID_1180_" class="st8" d="M35.447,34.871l0.035-0.01l0.846-0.528l-0.746-0.361l-0.03,0
			c-0.015,0.001-0.022,0.004-0.028,0.007l-0.844,0.529l0.745,0.361L35.447,34.871z"/>
		<path id="XMLID_1179_" class="st8" d="M38.763,41.393l0.033-0.01l0.845-0.517c-0.753-0.363-1.505-0.728-2.257-1.092l-0.032,0
			c-0.014,0.001-0.022,0.004-0.027,0.007l-0.847,0.516l0.235,0.114c0.674,0.327,1.348,0.654,2.022,0.979L38.763,41.393z"/>
		<path id="XMLID_1178_" class="st8" d="M42.122,39.333l0.034-0.01l0.848-0.522l-0.75-0.362l-0.032,0
			c-0.014,0.001-0.022,0.004-0.027,0.007l-0.848,0.521l0.751,0.362L42.122,39.333z"/>
		<path id="XMLID_1177_" class="st8" d="M43.244,38.641l0.035-0.01l0.85-0.525l-0.749-0.362l-0.031,0
			c-0.015,0.001-0.022,0.004-0.028,0.007l-0.852,0.525l0.75,0.362L43.244,38.641z"/>
		<path id="XMLID_1176_" class="st8" d="M39.883,40.708l0.034-0.01l0.845-0.518l-1.718-0.83c-0.014-0.001-0.024-0.001-0.033,0
			c-0.014,0.001-0.021,0.004-0.026,0.007l-0.847,0.517c0.394,0.192,0.79,0.383,1.187,0.574l0.532,0.256L39.883,40.708z"/>
		<polygon id="XMLID_1175_" class="st8" points="41.002,40.022 41.036,40.012 41.882,39.492 40.609,38.878 40.571,38.869 
			40.537,38.879 39.69,39.397 40.977,40.019 		"/>
		<path id="XMLID_1174_" class="st8" d="M42.265,38.169l0.035-0.01l0.852-0.525l-0.748-0.361l-0.031,0
			c-0.015,0.001-0.023,0.004-0.028,0.008l-0.852,0.525l0.748,0.361L42.265,38.169z"/>
		<path id="XMLID_1173_" class="st8" d="M41.287,37.697l0.035-0.01l0.852-0.525L41.427,36.8l-0.031,0
			c-0.015,0.001-0.022,0.004-0.028,0.007l-0.853,0.525l0.747,0.361L41.287,37.697z"/>
		<path id="XMLID_1172_" class="st8" d="M38.364,36.284l0.035-0.01l0.85-0.526l-0.746-0.361l-0.03,0
			c-0.015,0.001-0.023,0.004-0.029,0.008l-0.849,0.527l0.744,0.36L38.364,36.284z"/>
		<path id="XMLID_1171_" class="st8" d="M39.337,36.754l0.034-0.01l0.852-0.526l-0.746-0.361l-0.031,0
			c-0.015,0.001-0.023,0.004-0.029,0.008l-0.85,0.526l0.745,0.36L39.337,36.754z"/>
		<path id="XMLID_1170_" class="st8" d="M40.312,37.225l0.035-0.01l0.852-0.525l-0.746-0.361l-0.031,0
			c-0.015,0.001-0.022,0.004-0.028,0.007l-0.852,0.526l0.746,0.36L40.312,37.225z"/>
		<path id="XMLID_1169_" class="st8" d="M35.655,41.118l0.034-0.01l0.849-0.516c-2.807-1.359-5.605-2.727-8.402-4.094l-0.991-0.484
			l-0.031,0c-0.014,0.001-0.021,0.004-0.026,0.007l-0.83,0.52l2.861,1.399c2.167,1.06,4.336,2.121,6.51,3.176L35.655,41.118z"/>
		<polygon id="XMLID_1168_" class="st8" points="22.117,34.507 22.149,34.498 22.98,33.982 22.21,33.606 22.183,33.603 
			22.151,33.612 21.318,34.126 22.091,34.504 22.117,34.507 		"/>
		<path id="XMLID_1167_" class="st8" d="M23.113,34.994l0.032-0.009l0.829-0.518l-0.763-0.372c-0.015-0.001-0.026-0.001-0.035,0
			l-0.024,0.006l-0.83,0.516l0.764,0.374L23.113,34.994z"/>
		<path id="XMLID_1166_" class="st8" d="M24.098,35.477l0.032-0.009l0.829-0.518l-0.756-0.369c-0.014-0.001-0.025-0.001-0.033,0
			l-0.024,0.006c0,0-0.576,0.359-0.829,0.518l0.756,0.37L24.098,35.477z"/>
		<path id="XMLID_1165_" class="st8" d="M37.638,42.079l0.035-0.01l0.847-0.517l-0.755-0.365c-0.014-0.001-0.025-0.001-0.033,0
			c-0.014,0.001-0.022,0.004-0.027,0.007l-0.849,0.516l0.756,0.366L37.638,42.079z"/>
		<path id="XMLID_1164_" class="st8" d="M25.079,35.954l0.034-0.01l0.828-0.519l-0.75-0.367c-0.014-0.001-0.024-0.001-0.032,0
			l-0.025,0.006l-0.829,0.519l0.75,0.367L25.079,35.954z"/>
		<path id="XMLID_1163_" class="st8" d="M36.652,41.601l0.034-0.01l0.85-0.516l-0.749-0.363l-0.032,0
			c-0.014,0.001-0.021,0.004-0.027,0.007l-0.85,0.516l0.75,0.363L36.652,41.601z"/>
		<path id="XMLID_1162_" class="st8" d="M37.391,35.813l0.035-0.01l0.849-0.527l-0.746-0.361l-0.03,0
			c-0.015,0.001-0.023,0.004-0.029,0.008l-0.847,0.527l0.745,0.361L37.391,35.813z"/>
		<path id="XMLID_1161_" class="st8" d="M26.051,36.43l0.032-0.009l0.831-0.52l-0.745-0.364c-0.014-0.001-0.024-0.001-0.032,0
			l-0.025,0.007l-0.829,0.519l0.745,0.365L26.051,36.43z"/>
		<path id="XMLID_1160_" class="st8" d="M26.578,35.461l0.033-0.009l0.828-0.518l-2.109-1.028c-0.014-0.001-0.025-0.001-0.033,0
			l-0.025,0.006l-0.827,0.516c0.354,0.172,1.759,0.86,2.109,1.03L26.578,35.461z"/>
		<path id="XMLID_1159_" class="st8" d="M28.552,36.426l0.033-0.01l0.831-0.518l-0.742-0.362l-0.031,0
			c-0.014,0.001-0.021,0.004-0.026,0.007l-0.83,0.519l0.741,0.362L28.552,36.426z"/>
		<path id="XMLID_1158_" class="st8" d="M33.359,38.772l0.034-0.01l0.842-0.516l-0.737-0.358l-0.031,0
			c-0.014,0.001-0.022,0.004-0.027,0.007l-0.84,0.517l0.735,0.358L33.359,38.772z"/>
		<polygon id="XMLID_1157_" class="st8" points="27.585,35.954 27.618,35.944 28.447,35.426 27.702,35.063 27.67,35.063 
			27.645,35.069 26.817,35.588 27.561,35.951 		"/>
		<polygon id="XMLID_1156_" class="st8" points="24.319,33.14 24.352,33.131 25.181,32.616 24.416,32.245 24.389,32.242 
			24.358,32.251 23.526,32.764 24.293,33.137 		"/>
		<path id="XMLID_1155_" class="st8" d="M25.419,32.458l0.033-0.009l0.832-0.516l-0.761-0.369c-0.015-0.001-0.026-0.001-0.034,0
			l-0.025,0.006l-0.834,0.514l0.763,0.371L25.419,32.458z"/>
		<path id="XMLID_1154_" class="st8" d="M24.211,34.308l0.032-0.009l0.827-0.516l-0.761-0.37c-0.015-0.001-0.026-0.001-0.034,0
			l-0.024,0.006l-0.828,0.514l0.762,0.372L24.211,34.308z"/>
		<path id="XMLID_1153_" class="st8" d="M32.398,38.304l0.034-0.01l0.839-0.517l-0.737-0.359l-0.03,0
			c-0.014,0.001-0.022,0.004-0.027,0.007l-0.838,0.517l0.734,0.358L32.398,38.304z"/>
		<path id="XMLID_1152_" class="st8" d="M36.419,35.342l0.035-0.01l0.847-0.528l-0.745-0.361l-0.03,0
			c-0.015,0.001-0.023,0.004-0.028,0.008l-0.846,0.528l0.745,0.361L36.419,35.342z"/>
		<path id="XMLID_1151_" class="st8" d="M29.515,36.897l0.033-0.01l0.833-0.518l-0.74-0.36l-0.03,0
			c-0.014,0.001-0.021,0.004-0.026,0.007l-0.832,0.518l0.738,0.36L29.515,36.897z"/>
		<path id="XMLID_1150_" class="st8" d="M30.477,37.367l0.033-0.01l0.835-0.517l-0.738-0.36l-0.031,0
			c-0.014,0.001-0.02,0.004-0.026,0.007l-0.834,0.518l0.736,0.36L30.477,37.367z"/>
		<path id="XMLID_1149_" class="st8" d="M31.437,37.835l0.033-0.01l0.838-0.517l-0.737-0.359l-0.03,0
			c-0.014,0.001-0.021,0.004-0.027,0.007l-0.836,0.518l0.735,0.359L31.437,37.835z"/>
		<path id="XMLID_1148_" class="st8" d="M33.502,33.929l0.034-0.01l0.844-0.529l-0.747-0.362l-0.029,0
			c-0.015,0.001-0.023,0.004-0.028,0.008l-0.842,0.529l0.747,0.362L33.502,33.929z"/>
		<path id="XMLID_1147_" class="st8" d="M32.528,33.457l0.034-0.01l0.842-0.53l-0.748-0.363l-0.029,0
			c-0.015,0.001-0.023,0.004-0.028,0.008l-0.841,0.529l0.748,0.362L32.528,33.457z"/>
		<path id="XMLID_1146_" class="st8" d="M34.475,34.4l0.034-0.01l0.845-0.529L34.607,33.5l-0.03,0
			c-0.015,0.001-0.023,0.004-0.028,0.008l-0.843,0.529l0.745,0.361L34.475,34.4z"/>
		<path id="XMLID_1145_" class="st8" d="M31.553,32.984l0.034-0.01l0.842-0.529l-0.749-0.363l-0.031,0
			c-0.015,0.001-0.022,0.004-0.028,0.008l-0.841,0.529l0.749,0.363L31.553,32.984z"/>
		<path id="XMLID_1144_" class="st8" d="M29.597,32.036l0.034-0.01c0,0,0.565-0.354,0.842-0.529l-0.751-0.364l-0.031,0
			c-0.015,0.001-0.022,0.004-0.028,0.008l-0.842,0.527l0.753,0.365L29.597,32.036z"/>
		<path id="XMLID_1143_" class="st8" d="M30.576,32.51l0.033-0.01l0.841-0.53L30.7,31.607l-0.03,0
			c-0.015,0.001-0.022,0.004-0.028,0.008c-0.338,0.213-0.511,0.322-0.841,0.528l0.751,0.364L30.576,32.51z"/>
		<path id="XMLID_1142_" class="st8" d="M28.616,31.56l0.034-0.01l0.843-0.528l-0.753-0.365l-0.031,0
			c-0.015,0.001-0.022,0.004-0.028,0.007l-0.844,0.526l0.755,0.366L28.616,31.56z"/>
		<path id="XMLID_1141_" class="st8" d="M27.631,31.083l0.034-0.01l0.845-0.527l-0.755-0.365l-0.031,0
			c-0.014,0.001-0.022,0.004-0.027,0.007c-0.341,0.212-0.515,0.32-0.847,0.525l0.757,0.367L27.631,31.083z"/>
		<path id="XMLID_1140_" class="st8" d="M26.522,31.773l0.033-0.009l0.838-0.521l-0.758-0.367c-0.014-0.001-0.025,0-0.033,0
			c-0.014,0.001-0.021,0.004-0.027,0.007l-0.839,0.518l0.76,0.369L26.522,31.773z"/>
		<path id="XMLID_1139_" class="st9" d="M33.365,34.994l0.033-0.01l0.839-0.524l-0.745-0.361l-0.031,0
			c-0.014,0.001-0.022,0.004-0.027,0.007l-0.837,0.524l0.743,0.361L33.365,34.994z"/>
		<path id="XMLID_1138_" class="st9" d="M32.394,34.523l0.034-0.01l0.837-0.525l-0.746-0.361l-0.03,0
			c-0.015,0.001-0.022,0.004-0.028,0.007l-0.836,0.524l0.745,0.361L32.394,34.523z"/>
		<path id="XMLID_1137_" class="st9" d="M31.421,34.051l0.033-0.01l0.836-0.524l-0.747-0.362l-0.031,0
			c-0.014,0.001-0.021,0.004-0.026,0.007l-0.836,0.524l0.746,0.362L31.421,34.051z"/>
		<path id="XMLID_1136_" class="st9" d="M34.334,35.464l0.034-0.01l0.841-0.523l-0.744-0.361l-0.03,0
			c-0.014,0.001-0.022,0.004-0.027,0.007l-0.84,0.524l0.743,0.361L34.334,35.464z"/>
		<path id="XMLID_1135_" class="st9" d="M35.304,35.934l0.033-0.01l0.843-0.523l-0.743-0.36l-0.03,0
			c-0.015,0.001-0.022,0.004-0.028,0.008l-0.841,0.523l0.742,0.36L35.304,35.934z"/>
		<path id="XMLID_1134_" class="st9" d="M27.258,34.472l0.033-0.009l0.828-0.518l-1.524-0.741l1.101-0.687l-1.181-0.573
			c-0.014-0.001-0.025-0.001-0.033,0c-0.014,0.001-0.021,0.004-0.026,0.007l-1.932,1.199l2.71,1.32L27.258,34.472z"/>
		<path id="XMLID_1133_" class="st9" d="M30.448,33.578l0.033-0.01l0.835-0.524l-0.748-0.363l-0.031,0
			c-0.014,0.001-0.022,0.004-0.027,0.007l-0.834,0.523l0.749,0.363L30.448,33.578z"/>
		<path id="XMLID_1132_" class="st9" d="M29.219,35.428l0.033-0.009l0.83-0.519l-0.744-0.362l-0.031,0
			c-0.014,0.001-0.021,0.004-0.026,0.007l-0.829,0.519l0.744,0.362L29.219,35.428z"/>
		<path id="XMLID_1131_" class="st9" d="M29.442,33.09l0.034-0.01l0.834-0.524l-2.688-1.302l-0.031,0
			c-0.015,0.001-0.022,0.004-0.027,0.007l-0.837,0.52c0.662,0.32,2.69,1.306,2.69,1.306L29.442,33.09z"/>
		<polygon id="XMLID_1130_" class="st9" points="28.249,34.955 28.281,34.945 29.11,34.427 28.363,34.063 28.331,34.063 
			28.306,34.07 27.478,34.588 28.224,34.952 		"/>
		<path id="XMLID_1129_" class="st9" d="M41.141,38.76l0.035-0.01l0.848-0.522l-0.748-0.361l-0.031,0
			c-0.015,0.001-0.022,0.004-0.028,0.007l-0.848,0.521l0.748,0.362L41.141,38.76z"/>
		<path id="XMLID_1128_" class="st9" d="M37.92,39.659l0.035-0.01l0.846-0.517l-0.746-0.361l-0.032,0
			c-0.015,0.001-0.022,0.004-0.027,0.007l-0.845,0.516c0.29,0.14,0.446,0.216,0.745,0.361L37.92,39.659z"/>
		<path id="XMLID_1127_" class="st9" d="M39.479,39.186l0.034-0.01l0.847-0.519l-0.748-0.361l-0.031,0
			c-0.015,0.001-0.022,0.004-0.028,0.007l-0.846,0.518l0.747,0.361L39.479,39.186z"/>
		<path id="XMLID_1126_" class="st9" d="M36.26,40.082l0.035-0.01l0.846-0.516l-0.743-0.36l-0.031,0
			c-0.014,0.001-0.021,0.004-0.027,0.007l-0.846,0.516l0.742,0.36L36.26,40.082z"/>
		<path id="XMLID_1125_" class="st9" d="M35.289,39.611l0.034-0.01l0.846-0.515l-0.741-0.36l-0.031,0
			c-0.014,0.001-0.022,0.004-0.027,0.007l-0.845,0.516l0.739,0.359L35.289,39.611z"/>
		<path id="XMLID_1124_" class="st9" d="M36.274,36.404l0.033-0.01l0.845-0.522l-0.744-0.36l-0.03,0
			c-0.015,0.001-0.022,0.004-0.028,0.007l-0.843,0.523l0.742,0.359L36.274,36.404z"/>
		<path id="XMLID_1123_" class="st9" d="M38.215,37.345l0.034-0.01l0.848-0.521l-0.744-0.36l-0.031,0
			c-0.014,0.001-0.022,0.004-0.027,0.007l-0.846,0.522l0.744,0.36L38.215,37.345z"/>
		<path id="XMLID_1122_" class="st9" d="M37.243,36.875l0.034-0.01l0.847-0.522l-0.744-0.36l-0.031,0
			c-0.015,0.001-0.022,0.004-0.028,0.008l-0.844,0.522l0.742,0.36L37.243,36.875z"/>
		<path id="XMLID_1121_" class="st9" d="M40.163,38.287l0.035-0.01l0.848-0.521L40.3,37.395l-0.032,0
			c-0.014,0.001-0.022,0.004-0.027,0.007l-0.848,0.521l0.746,0.361L40.163,38.287z"/>
		<path id="XMLID_1120_" class="st9" d="M39.189,37.816l0.034-0.01l0.848-0.521l-0.745-0.361l-0.031,0
			c-0.015,0.001-0.022,0.004-0.028,0.008l-0.848,0.521l0.745,0.36L39.189,37.816z"/>
		<path id="XMLID_1119_" class="st9" d="M28.809,34.006l0.033-0.01l0.83-0.52l-0.749-0.364c-0.014-0.001-0.024-0.001-0.032,0
			l-0.025,0.007l-0.831,0.52l0.749,0.364L28.809,34.006z"/>
		<path id="XMLID_1118_" class="st9" d="M31.723,35.424l0.033-0.01l0.834-0.521l-0.743-0.361l-0.031,0
			c-0.014,0.001-0.021,0.004-0.026,0.007l-0.833,0.521l0.742,0.361L31.723,35.424z"/>
		<path id="XMLID_1117_" class="st9" d="M32.69,35.894l0.034-0.01l0.837-0.52l-0.743-0.36l-0.03,0
			c-0.015,0.001-0.022,0.004-0.027,0.007l-0.834,0.52l0.741,0.36L32.69,35.894z"/>
		<path id="XMLID_1116_" class="st9" d="M30.754,34.952l0.034-0.01l0.833-0.521l-0.745-0.362l-0.031,0
			c-0.014,0.001-0.021,0.004-0.026,0.007l-0.831,0.52l0.744,0.362L30.754,34.952z"/>
		<path id="XMLID_1115_" class="st9" d="M33.658,36.364l0.034-0.01l0.838-0.52l-0.742-0.36l-0.031,0
			c-0.014,0.001-0.021,0.004-0.027,0.007l-0.837,0.52l0.74,0.359L33.658,36.364z"/>
		<path id="XMLID_1114_" class="st9" d="M34.624,36.833l0.033-0.01l0.841-0.52l-0.742-0.36l-0.03,0
			c-0.015,0.001-0.022,0.004-0.028,0.007l-0.839,0.52l0.74,0.359L34.624,36.833z"/>
		<path id="XMLID_1113_" class="st9" d="M29.783,34.48l0.033-0.01l0.831-0.521L29.9,33.587l-0.031,0
			c-0.014,0.001-0.021,0.004-0.026,0.007l-0.831,0.52l0.747,0.363L29.783,34.48z"/>
		<path id="XMLID_1112_" class="st9" d="M23.221,33.721l0.032-0.009l0.829-0.514l-0.767-0.373l-0.027-0.003l-0.032,0.009
			c-0.334,0.205-0.505,0.311-0.831,0.512l0.77,0.375L23.221,33.721z"/>
		<path id="XMLID_1111_" class="st9" d="M34.323,39.141l0.034-0.01l0.844-0.516l-0.738-0.359l-0.03,0
			c-0.014,0.001-0.022,0.004-0.027,0.007l-0.843,0.516l0.736,0.358L34.323,39.141z"/>
		<path id="XMLID_1110_" class="st9" d="M30.186,35.9l0.033-0.01l0.832-0.519L30.31,35.01l-0.031,0
			c-0.014,0.001-0.021,0.004-0.027,0.007l-0.831,0.519l0.741,0.361L30.186,35.9z"/>
		<path id="XMLID_1109_" class="st9" d="M27.831,33.53l0.032-0.009l0.831-0.52l-0.753-0.365c-0.014-0.001-0.024-0.001-0.032,0
			l-0.025,0.007l-0.831,0.519l0.753,0.366L27.831,33.53z"/>
		<path id="XMLID_1108_" class="st9" d="M35.591,37.303l0.034-0.01l0.843-0.519l-0.742-0.36l-0.03,0
			c-0.014,0.001-0.022,0.004-0.027,0.007l-0.841,0.519l0.74,0.359L35.591,37.303z"/>
		<path id="XMLID_1107_" class="st9" d="M34.044,37.778l0.034-0.01l0.841-0.517l-0.739-0.359l-0.03,0
			c-0.014,0.001-0.021,0.004-0.027,0.007l-0.839,0.518l0.737,0.359L34.044,37.778z"/>
		<path id="XMLID_1106_" class="st9" d="M33.08,37.309l0.034-0.01l0.839-0.518l-0.739-0.359l-0.031,0
			c-0.014,0.001-0.021,0.004-0.027,0.007l-0.837,0.518c0.271,0.131,0.737,0.359,0.737,0.359L33.08,37.309z"/>
		<path id="XMLID_1105_" class="st9" d="M31.152,36.37l0.034-0.01l0.834-0.518l-0.741-0.36l-0.031,0
			c-0.014,0.001-0.021,0.004-0.026,0.007l-0.832,0.519l0.738,0.36L31.152,36.37z"/>
		<path id="XMLID_1104_" class="st9" d="M36.56,37.773l0.034-0.01l0.844-0.519l-0.742-0.36l-0.031,0
			c-0.014,0.001-0.022,0.004-0.027,0.007l-0.843,0.519l0.741,0.359L36.56,37.773z"/>
		<path id="XMLID_1103_" class="st9" d="M32.116,36.84l0.033-0.01l0.837-0.518l-0.74-0.36l-0.03,0
			c-0.014,0.001-0.022,0.004-0.027,0.007l-0.834,0.518l0.737,0.359L32.116,36.84z"/>
		<path id="XMLID_1102_" class="st9" d="M35.009,38.247l0.034-0.01l0.842-0.517l-0.74-0.359l-0.031,0
			c-0.014,0.001-0.021,0.004-0.027,0.007l-0.841,0.518l0.738,0.359L35.009,38.247z"/>
		<path id="XMLID_1101_" class="st9" d="M35.977,38.717l0.034-0.01l0.844-0.517l-0.741-0.359h-0.031
			c-0.014,0.001-0.022,0.004-0.027,0.007l-0.843,0.517l0.739,0.359L35.977,38.717z"/>
		<path id="XMLID_1100_" class="st9" d="M37.53,38.243l0.034-0.01l0.846-0.519l-0.744-0.36l-0.031,0
			c-0.015,0.001-0.022,0.004-0.028,0.007l-0.844,0.519l0.742,0.36L37.53,38.243z"/>
		<path id="XMLID_1099_" class="st9" d="M38.503,38.714l0.034-0.01l0.847-0.519l-0.746-0.361l-0.03,0
			c-0.015,0.001-0.023,0.004-0.028,0.007l-0.846,0.519l0.744,0.36L38.503,38.714z"/>
		<path id="XMLID_1098_" class="st9" d="M36.947,39.188l0.034-0.01l0.845-0.517l-0.743-0.36l-0.031,0
			c-0.014,0.001-0.022,0.004-0.028,0.007l-0.844,0.517l0.742,0.36L36.947,39.188z"/>
		<path id="XMLID_1097_" class="st9" d="M35.447,34.771l0.035-0.01l0.846-0.528l-0.746-0.362l-0.03,0
			c-0.015,0.001-0.022,0.004-0.028,0.008l-0.844,0.529l0.745,0.361L35.447,34.771z"/>
		<path id="XMLID_1096_" class="st9" d="M38.763,41.293l0.033-0.01l0.845-0.517c-0.753-0.363-1.505-0.728-2.257-1.092l-0.031,0
			c-0.014,0.001-0.022,0.004-0.027,0.007l-0.847,0.516l0.235,0.114c0.674,0.327,1.348,0.654,2.022,0.979L38.763,41.293z"/>
		<path id="XMLID_1095_" class="st9" d="M42.122,39.233l0.034-0.01l0.848-0.522l-0.75-0.362l-0.032,0
			c-0.014,0.001-0.022,0.004-0.027,0.007l-0.848,0.521l0.751,0.363L42.122,39.233z"/>
		<path id="XMLID_1094_" class="st9" d="M43.244,38.541l0.035-0.01l0.85-0.526l-0.749-0.362l-0.031,0
			c-0.015,0.001-0.022,0.004-0.028,0.007l-0.852,0.525l0.75,0.362L43.244,38.541z"/>
		<path id="XMLID_1093_" class="st9" d="M39.883,40.608l0.034-0.01l0.845-0.518l-1.718-0.829c-0.014-0.001-0.024-0.001-0.033,0
			c-0.014,0.001-0.021,0.004-0.026,0.007l-0.847,0.517c0.394,0.192,0.79,0.383,1.187,0.574l0.532,0.257L39.883,40.608z"/>
		<polygon id="XMLID_1092_" class="st9" points="41.002,39.921 41.037,39.912 41.882,39.392 40.609,38.778 40.571,38.769 
			40.537,38.778 39.691,39.297 40.977,39.919 		"/>
		<path id="XMLID_1091_" class="st9" d="M42.265,38.069l0.035-0.01l0.852-0.525l-0.748-0.361l-0.031,0
			c-0.015,0.001-0.023,0.004-0.028,0.007l-0.852,0.525l0.748,0.361L42.265,38.069z"/>
		<path id="XMLID_1090_" class="st9" d="M41.287,37.597l0.035-0.01l0.852-0.525L41.427,36.7l-0.031,0
			c-0.015,0.001-0.022,0.004-0.028,0.007l-0.853,0.525l0.747,0.361L41.287,37.597z"/>
		<path id="XMLID_1089_" class="st9" d="M38.364,36.183l0.035-0.01l0.85-0.526l-0.746-0.361l-0.03,0
			c-0.015,0.001-0.023,0.004-0.029,0.008l-0.849,0.526l0.744,0.361L38.364,36.183z"/>
		<path id="XMLID_1088_" class="st9" d="M39.338,36.654l0.034-0.01l0.852-0.526l-0.746-0.361l-0.031,0
			c-0.015,0.001-0.023,0.004-0.029,0.008l-0.85,0.526l0.745,0.361L39.338,36.654z"/>
		<path id="XMLID_1087_" class="st9" d="M40.312,37.125l0.035-0.01l0.852-0.525l-0.746-0.361l-0.031,0
			c-0.015,0.001-0.022,0.004-0.028,0.007l-0.852,0.526l0.746,0.36L40.312,37.125z"/>
		<path id="XMLID_1086_" class="st9" d="M35.655,41.018l0.034-0.01l0.849-0.516c-2.807-1.359-5.605-2.727-8.402-4.094l-0.991-0.484
			l-0.031,0c-0.014,0.001-0.021,0.004-0.026,0.007l-0.83,0.52l2.861,1.399c2.167,1.06,4.336,2.121,6.51,3.176L35.655,41.018z"/>
		<polygon id="XMLID_1085_" class="st9" points="22.118,34.407 22.149,34.398 22.98,33.882 22.21,33.506 22.183,33.503 
			22.151,33.512 21.319,34.026 22.091,34.404 22.118,34.407 		"/>
		<path id="XMLID_1084_" class="st9" d="M23.113,34.894l0.032-0.009l0.829-0.518l-0.763-0.372c-0.015-0.001-0.026-0.001-0.035,0
			l-0.024,0.006l-0.83,0.516l0.764,0.374L23.113,34.894z"/>
		<path id="XMLID_1083_" class="st9" d="M24.099,35.377l0.032-0.01l0.829-0.518l-0.756-0.369c-0.014-0.001-0.025-0.001-0.033,0
			l-0.024,0.006c0,0-0.576,0.359-0.829,0.518l0.756,0.37L24.099,35.377z"/>
		<path id="XMLID_1082_" class="st9" d="M37.639,41.978l0.035-0.01l0.847-0.517l-0.755-0.365c-0.014-0.001-0.025-0.001-0.033,0
			c-0.014,0.001-0.022,0.004-0.027,0.007l-0.849,0.516l0.756,0.366L37.639,41.978z"/>
		<path id="XMLID_1081_" class="st9" d="M25.08,35.854l0.034-0.01l0.828-0.519l-0.75-0.367c-0.014-0.001-0.024-0.001-0.032,0
			l-0.025,0.007l-0.829,0.519l0.75,0.367L25.08,35.854z"/>
		<path id="XMLID_1080_" class="st9" d="M36.652,41.501l0.034-0.01l0.85-0.516l-0.749-0.363l-0.032,0
			c-0.014,0.001-0.021,0.004-0.027,0.007l-0.85,0.516l0.75,0.363L36.652,41.501z"/>
		<path id="XMLID_1079_" class="st9" d="M37.392,35.713l0.035-0.01l0.849-0.527l-0.746-0.361l-0.03,0
			c-0.015,0.001-0.023,0.004-0.029,0.008l-0.847,0.527l0.745,0.36L37.392,35.713z"/>
		<path id="XMLID_1078_" class="st9" d="M26.051,36.33l0.032-0.01l0.831-0.52l-0.745-0.364c-0.014-0.001-0.024-0.001-0.032,0
			l-0.025,0.007l-0.829,0.519l0.745,0.365L26.051,36.33z"/>
		<path id="XMLID_1077_" class="st9" d="M26.578,35.361l0.033-0.009l0.828-0.518l-2.109-1.028c-0.014-0.001-0.025-0.001-0.033,0
			l-0.025,0.007l-0.827,0.516c0.354,0.172,1.759,0.86,2.109,1.03L26.578,35.361z"/>
		<path id="XMLID_1076_" class="st9" d="M28.552,36.326l0.033-0.01l0.831-0.518l-0.742-0.362l-0.031,0
			c-0.014,0.001-0.021,0.004-0.026,0.007l-0.83,0.519l0.741,0.362L28.552,36.326z"/>
		<path id="XMLID_1075_" class="st9" d="M33.36,38.672l0.034-0.01l0.842-0.516l-0.737-0.358l-0.031,0
			c-0.014,0.001-0.022,0.004-0.027,0.007l-0.84,0.517l0.735,0.358L33.36,38.672z"/>
		<polygon id="XMLID_1074_" class="st9" points="27.585,35.854 27.618,35.844 28.447,35.326 27.702,34.963 27.67,34.963 
			27.645,34.969 26.817,35.487 27.561,35.851 		"/>
		<polygon id="XMLID_1073_" class="st9" points="24.32,33.04 24.352,33.031 25.181,32.516 24.417,32.145 24.39,32.142 
			24.358,32.151 23.526,32.664 24.293,33.036 		"/>
		<path id="XMLID_1072_" class="st9" d="M25.419,32.358l0.033-0.009l0.832-0.516l-0.761-0.369c-0.015-0.001-0.026-0.001-0.034,0
			l-0.025,0.007l-0.834,0.514l0.763,0.371L25.419,32.358z"/>
		<path id="XMLID_1071_" class="st9" d="M24.211,34.208l0.032-0.009l0.827-0.516l-0.761-0.371c-0.015-0.001-0.026-0.001-0.034,0
			l-0.024,0.006l-0.828,0.514l0.762,0.372L24.211,34.208z"/>
		<path id="XMLID_1070_" class="st9" d="M32.398,38.204l0.034-0.01l0.839-0.517l-0.737-0.359l-0.03,0
			c-0.014,0.001-0.022,0.004-0.027,0.007l-0.838,0.517l0.734,0.358L32.398,38.204z"/>
		<path id="XMLID_1069_" class="st9" d="M36.42,35.242l0.035-0.01l0.847-0.528l-0.745-0.361l-0.03,0
			c-0.015,0.001-0.023,0.004-0.028,0.008l-0.846,0.528l0.745,0.361L36.42,35.242z"/>
		<path id="XMLID_1068_" class="st9" d="M29.515,36.797l0.033-0.01l0.833-0.518l-0.74-0.36l-0.03,0
			c-0.014,0.001-0.021,0.004-0.026,0.007l-0.832,0.518l0.738,0.36L29.515,36.797z"/>
		<path id="XMLID_1067_" class="st9" d="M30.477,37.267l0.033-0.01l0.835-0.517l-0.738-0.36l-0.031,0
			c-0.014,0.001-0.02,0.004-0.026,0.007l-0.834,0.518l0.736,0.36L30.477,37.267z"/>
		<path id="XMLID_1066_" class="st9" d="M31.438,37.735l0.033-0.01l0.838-0.517l-0.737-0.359l-0.03,0
			c-0.014,0.001-0.021,0.004-0.027,0.007l-0.836,0.518l0.735,0.358L31.438,37.735z"/>
		<path id="XMLID_1065_" class="st9" d="M33.502,33.828l0.034-0.01l0.844-0.529l-0.747-0.362l-0.029,0
			c-0.015,0.001-0.023,0.004-0.028,0.008l-0.842,0.529l0.747,0.362L33.502,33.828z"/>
		<path id="XMLID_1064_" class="st9" d="M32.529,33.356l0.034-0.01l0.842-0.53l-0.748-0.362l-0.029,0
			c-0.015,0.001-0.023,0.004-0.028,0.008l-0.841,0.529l0.748,0.362L32.529,33.356z"/>
		<path id="XMLID_1063_" class="st9" d="M34.475,34.3l0.034-0.01l0.845-0.529l-0.747-0.362l-0.03,0
			c-0.015,0.001-0.023,0.004-0.028,0.008l-0.843,0.529l0.745,0.361L34.475,34.3z"/>
		<path id="XMLID_1062_" class="st9" d="M31.553,32.884l0.034-0.01l0.842-0.529l-0.749-0.363l-0.031,0
			c-0.015,0.001-0.022,0.004-0.028,0.007l-0.841,0.529l0.749,0.363L31.553,32.884z"/>
		<path id="XMLID_1061_" class="st9" d="M29.597,31.936l0.034-0.01c0,0,0.565-0.354,0.842-0.529l-0.751-0.364l-0.031,0
			c-0.015,0.001-0.022,0.004-0.028,0.008l-0.842,0.527l0.753,0.365L29.597,31.936z"/>
		<path id="XMLID_1060_" class="st9" d="M30.576,32.41l0.033-0.01l0.841-0.53l-0.751-0.363l-0.03,0
			c-0.015,0.001-0.022,0.004-0.028,0.008c-0.338,0.213-0.511,0.322-0.841,0.529l0.751,0.364L30.576,32.41z"/>
		<path id="XMLID_1059_" class="st9" d="M28.616,31.46l0.034-0.01l0.843-0.528l-0.753-0.365l-0.031,0
			c-0.015,0.001-0.022,0.004-0.028,0.008l-0.844,0.527l0.755,0.366L28.616,31.46z"/>
		<path id="XMLID_1058_" class="st9" d="M27.631,30.983l0.034-0.01l0.845-0.526l-0.755-0.365l-0.031,0
			c-0.014,0.001-0.022,0.004-0.027,0.007c-0.341,0.212-0.515,0.32-0.847,0.525l0.757,0.367L27.631,30.983z"/>
		<path id="XMLID_1057_" class="st9" d="M26.522,31.673l0.033-0.009l0.838-0.521l-0.758-0.367c-0.014-0.001-0.025-0.001-0.033,0
			c-0.014,0.001-0.021,0.004-0.027,0.007l-0.839,0.518l0.76,0.369L26.522,31.673z"/>
		<path id="XMLID_1056_" class="st9" d="M45.327,37.163c0.234-0.146,0.611-0.173,0.842-0.063c0.231,0.111,0.23,0.318-0.004,0.463
			c-0.234,0.145-0.61,0.174-0.842,0.063C45.092,37.517,45.094,37.309,45.327,37.163"/>
		<path id="XMLID_1052_" class="st10" d="M28.919,12.828c0.003-0.256,0.15-0.409,0.367-0.425c0.108-0.008,0.233,0.018,0.367,0.083
			c-0.133-0.065-0.258-0.091-0.367-0.083C29.069,12.418,28.922,12.572,28.919,12.828 M44.218,19.538L44.218,19.538l-14.565-7.054
			L44.218,19.538z M28.766,27.177c0-0.002,0-0.003,0-0.005C28.766,27.174,28.766,27.175,28.766,27.177L28.766,27.177z"/>
	</g>
	<g>
		<g>
			<path class="st11" d="M9.828,32.237c-0.396,0.05-0.83,0.046-1.301-0.013c-0.808-0.102-1.539-0.668-2.057-1.593
				c-0.483-0.862-0.726-1.956-0.666-3.001c0.015-0.254,0.046-0.5,0.093-0.738c-0.01,0.004-0.021,0.009-0.031,0.013
				c-1.591,0.689-2.482,1.506-2.649,2.429c-0.199,1.095,0.719,1.995,0.729,2.004c0.084,0.081,0.086,0.214,0.006,0.298
				c-0.081,0.084-0.214,0.087-0.297,0.006c-0.045-0.043-1.089-1.061-0.852-2.379c0.192-1.072,1.167-1.995,2.897-2.744
				c0.111-0.048,0.221-0.094,0.33-0.138c0.203-0.641,0.537-1.204,0.988-1.665c0.856-0.873,2.074-1.325,3.619-1.342
				c1.497-0.017,2.893,0.211,4.148,0.676c1.007,0.373,1.925,0.899,2.73,1.563c1.374,1.134,1.935,2.267,1.958,2.315
				c0.051,0.105,0.007,0.231-0.097,0.282c-0.105,0.051-0.231,0.007-0.282-0.097c-0.186-0.38-0.815-1.327-1.863-2.188
				c-0.768-0.631-1.644-1.13-2.605-1.484c-1.203-0.444-2.543-0.661-3.983-0.644c-1.429,0.016-2.547,0.425-3.323,1.216
				c-0.357,0.364-0.602,0.769-0.768,1.171c0.892-0.321,1.705-0.501,2.425-0.537c0.84-0.042,1.559,0.11,2.135,0.452
				c0.803,0.476,1.317,1.337,1.411,2.36c0.111,1.213-0.232,2.301-0.94,2.985C11.124,31.88,10.537,32.147,9.828,32.237z
				 M6.375,26.695c-0.093,0.346-0.135,0.676-0.152,0.959c-0.055,0.967,0.168,1.976,0.613,2.771c0.452,0.806,1.07,1.296,1.743,1.381
				c1.183,0.149,2.094-0.076,2.708-0.669c0.875-0.845,0.86-2.13,0.813-2.644c-0.081-0.887-0.521-1.629-1.206-2.036
				C9.879,25.854,8.324,25.938,6.375,26.695z"/>
		</g>
		<g>
			<path class="st12" d="M6.276,32.349L5.217,32.95c-0.009,0.005-0.018,0.01-0.027,0.014c-0.063,0.03-0.131,0.045-0.199,0.046
				l-0.002,0.477c0.028-0.002,0.143-0.013,0.226-0.06l1.094-0.623c0.13-0.088,0.198-0.225,0.202-0.365l0.001,0l0.002-0.487l0,0
				C6.512,32.107,6.433,32.261,6.276,32.349z"/>
			<path class="st13" d="M4.989,33.487L4.989,33.487C4.988,33.487,4.988,33.487,4.989,33.487C4.98,33.488,4.979,33.488,4.989,33.487
				z"/>
			<path class="st14" d="M3.12,31.433c-0.015,0.008-0.026,0.019-0.038,0.029c-0.078,0.059-0.125,0.141-0.136,0.228
				c-0.001,0.01-0.002,0.02-0.002,0.031c0,0.003,0,0.005-0.001,0.008c-0.001,0.057,0.013,0.113,0.041,0.164
				c0.001,0.001,0.001,0.002,0.002,0.003c0.006,0.01,0.012,0.02,0.019,0.03c0.002,0.003,0.003,0.005,0.005,0.008
				c0.006,0.008,0.013,0.016,0.02,0.023c0.003,0.004,0.006,0.008,0.01,0.012c0.006,0.006,0.013,0.011,0.019,0.017
				c0.005,0.005,0.01,0.01,0.016,0.014c0.006,0.004,0.012,0.008,0.018,0.012c0.007,0.005,0.014,0.01,0.022,0.015l1.629,0.919
				c0,0,0.001,0,0.001,0.001c0.009,0.005,0.018,0.01,0.027,0.015c0.001,0.001,0.002,0.001,0.004,0.002
				c0.067,0.032,0.14,0.047,0.213,0.046l0,0c0.068-0.001,0.136-0.016,0.199-0.046c0.009-0.004,0.018-0.009,0.027-0.014l1.059-0.601
				c0.157-0.088,0.236-0.242,0.237-0.397c0.002-0.156-0.076-0.312-0.232-0.403l-1.51-0.85c-0.108-0.062-0.242-0.063-0.351-0.002
				l-0.177,0.1l0,0L3.12,31.433z"/>
			<path class="st15" d="M4.991,33.01c-0.073,0.001-0.146-0.014-0.213-0.046c-0.001-0.001-0.002-0.001-0.004-0.002
				c-0.009-0.005-0.018-0.009-0.027-0.015c0,0-0.001,0-0.001-0.001l-1.629-0.919c-0.008-0.005-0.015-0.01-0.022-0.015
				C3.087,32.008,3.081,32.004,3.075,32c-0.006-0.004-0.011-0.01-0.016-0.014c-0.006-0.006-0.013-0.011-0.019-0.017
				c-0.004-0.004-0.007-0.008-0.01-0.012c-0.007-0.008-0.014-0.015-0.02-0.023c-0.002-0.002-0.003-0.005-0.005-0.008
				c-0.007-0.01-0.014-0.02-0.019-0.03c-0.001-0.001-0.001-0.002-0.002-0.003c-0.028-0.051-0.041-0.108-0.041-0.164c0,0,0,0,0,0
				c0,0,0,0,0,0c0,0,0,0,0,0v0v0c0,0,0,0,0,0c0,0,0,0,0,0h0l-0.002,0.477c-0.001,0.116,0.056,0.232,0.172,0.299l1.629,0.919
				c0.074,0.043,0.156,0.064,0.239,0.064c0.001,0,0.003,0,0.006,0c0,0,0,0,0.001,0l0,0L4.991,33.01L4.991,33.01z"/>
			<g>
				<path class="st16" d="M5.81,33.74L5.81,33.74L5.81,33.74L5.81,33.74L5.81,33.74C5.81,33.74,5.81,33.74,5.81,33.74L5.81,33.74
					L5.81,33.74C5.81,33.74,5.81,33.74,5.81,33.74C5.81,33.74,5.81,33.74,5.81,33.74C5.81,33.74,5.81,33.74,5.81,33.74
					c0-0.002,0.001-0.005,0.001-0.008c0-0.01,0.001-0.021,0.002-0.031c0.011-0.087,0.058-0.17,0.136-0.228l-0.762-0.438
					l-0.002,0.386l0.625,0.36L5.81,33.74z"/>
				<path class="st17" d="M5.949,33.473c0.013-0.01,0.024-0.021,0.038-0.029l1.124-0.636l0,0l-0.747-0.43l-1.177,0.655v0
					L5.949,33.473z"/>
			</g>
		</g>
		<g>
			<polygon class="st18" points="28.913,31.538 10.88,41.29 1.028,36.06 19.061,26.308 			"/>
			<polygon class="st19" points="10.934,41.898 10.88,41.29 1.028,36.06 1.082,36.668 			"/>
			<g>
				
					<ellipse transform="matrix(0.0125 -0.9999 0.9999 0.0125 -16.0587 47.602)" class="st11" cx="16.072" cy="31.932" rx="1.293" ry="2.414"/>
				
					<ellipse transform="matrix(0.0125 -0.9999 0.9999 0.0125 -10.0553 49.4323)" class="st11" cx="20" cy="29.807" rx="1.293" ry="2.414"/>
				<polygon class="st11" points="8.616,40.088 10.88,41.29 28.913,31.538 26.649,30.336 				"/>
				<polygon class="st20" points="10.934,41.898 10.88,41.29 28.913,31.538 28.967,32.146 				"/>
				<path class="st11" d="M12.213,37.426l1.913-1.035l-2.22-1.179l2.163-1.17L12.106,33l-2.163,1.17l-2.22-1.179L5.81,34.026
					l2.22,1.179l-2.163,1.17l1.963,1.042l2.163-1.17L12.213,37.426z M9.466,34.942c0.27-0.146,0.714-0.145,0.991,0.002
					c0.277,0.147,0.283,0.385,0.013,0.531c-0.27,0.146-0.714,0.145-0.991-0.002C9.202,35.326,9.196,35.088,9.466,34.942z"/>
			</g>
			<path class="st11" d="M19.062,26.629l9.251,4.912l-17.435,9.428l-9.251-4.912L19.062,26.629 M19.061,26.308L1.028,36.06
				l9.852,5.231l18.033-9.752L19.061,26.308L19.061,26.308z"/>
			<g>
				
					<ellipse transform="matrix(0.0125 -0.9999 0.9999 0.0125 -16.0587 47.602)" class="st21" cx="16.072" cy="31.932" rx="0.914" ry="1.707"/>
				
					<ellipse transform="matrix(0.0125 -0.9999 0.9999 0.0125 -10.0553 49.4323)" class="st21" cx="20" cy="29.807" rx="0.914" ry="1.707"/>
				<polygon class="st21" points="10.386,39.498 12.307,40.518 27.798,32.141 25.877,31.121 				"/>
				<polygon class="st22" points="12.337,41.127 12.307,40.518 27.798,32.141 27.827,32.75 				"/>
			</g>
			<g>
				<g>
					
						<ellipse transform="matrix(0.0125 -0.9999 0.9999 0.0125 -26.5131 41.0201)" class="st23" cx="7.512" cy="33.934" rx="0.234" ry="0.436"/>
					
						<ellipse transform="matrix(0.0125 -0.9999 0.9999 0.0125 -26.1362 42.2783)" class="st23" cx="8.338" cy="34.372" rx="0.234" ry="0.436"/>
					
						<ellipse transform="matrix(0.0125 -0.9999 0.9999 0.0125 -24.6796 47.141)" class="st23" cx="11.528" cy="36.066" rx="0.234" ry="0.436"/>
					
						<ellipse transform="matrix(0.0125 -0.9999 0.9999 0.0125 -24.3027 48.3992)" class="st23" cx="12.354" cy="36.504" rx="0.234" ry="0.436"/>
					
						<ellipse transform="matrix(0.0125 -0.9999 0.9999 0.0125 -22.003 45.7478)" class="st23" cx="12.161" cy="34.014" rx="0.234" ry="0.436"/>
					
						<ellipse transform="matrix(0.0125 -0.9999 0.9999 0.0125 -23.2323 45.373)" class="st23" cx="11.357" cy="34.449" rx="0.234" ry="0.436"/>
					
						<ellipse transform="matrix(0.0125 -0.9999 0.9999 0.0125 -27.5508 44.0563)" class="st23" cx="8.531" cy="35.977" rx="0.234" ry="0.436"/>
					
						<ellipse transform="matrix(0.0125 -0.9999 0.9999 0.0125 -28.78 43.6816)" class="st23" cx="7.726" cy="36.412" rx="0.234" ry="0.436"/>
					
						<ellipse transform="matrix(0.0125 -0.9999 0.9999 0.0125 -16.3021 46.9142)" class="st23" cx="15.602" cy="31.711" rx="0.234" ry="0.436"/>
					
						<ellipse transform="matrix(0.0125 -0.9999 0.9999 0.0125 -15.9252 48.1724)" class="st23" cx="16.428" cy="32.149" rx="0.234" ry="0.436"/>
					
						<ellipse transform="matrix(0.0125 -0.9999 0.9999 0.0125 -10.1891 48.778)" class="st23" cx="19.602" cy="29.548" rx="0.234" ry="0.436"/>
					
						<ellipse transform="matrix(0.0125 -0.9999 0.9999 0.0125 -9.8122 50.0362)" class="st23" cx="20.428" cy="29.986" rx="0.234" ry="0.436"/>
					
						<ellipse transform="matrix(0.0125 -0.9999 0.9999 0.0125 -26.5966 51.449)" class="st23" cx="12.751" cy="39.191" rx="0.234" ry="0.436"/>
					
						<ellipse transform="matrix(0.0125 -0.9999 0.9999 0.0125 -27.8258 51.0742)" class="st23" cx="11.947" cy="39.626" rx="0.234" ry="0.436"/>
					
						<ellipse transform="matrix(0.0125 -0.9999 0.9999 0.0125 -22.8591 52.5885)" class="st23" cx="15.197" cy="37.868" rx="0.234" ry="0.436"/>
					
						<ellipse transform="matrix(0.0125 -0.9999 0.9999 0.0125 -24.0884 52.2137)" class="st23" cx="14.392" cy="38.303" rx="0.234" ry="0.436"/>
					
						<ellipse transform="matrix(0.0125 -0.9999 0.9999 0.0125 -10.9893 56.2074)" class="st23" cx="22.964" cy="33.668" rx="0.234" ry="0.436"/>
					
						<ellipse transform="matrix(0.0125 -0.9999 0.9999 0.0125 -12.2186 55.8326)" class="st23" cx="22.159" cy="34.103" rx="0.234" ry="0.436"/>
					
						<ellipse transform="matrix(0.0125 -0.9999 0.9999 0.0125 -6.2528 57.6515)" class="st23" cx="26.063" cy="31.992" rx="0.234" ry="0.436"/>
					
						<ellipse transform="matrix(0.0125 -0.9999 0.9999 0.0125 -7.4821 57.2767)" class="st23" cx="25.259" cy="32.427" rx="0.234" ry="0.436"/>
					
						<ellipse transform="matrix(0.0125 -0.9999 0.9999 0.0125 -18.839 53.8141)" class="st23" cx="17.827" cy="36.445" rx="0.234" ry="0.436"/>
					
						<ellipse transform="matrix(0.0125 -0.9999 0.9999 0.0125 -20.0683 53.4394)" class="st23" cx="17.023" cy="36.88" rx="0.234" ry="0.436"/>
					<path class="st23" d="M20.222,34.816c-0.168,0.091-0.165,0.239,0.008,0.33c0.173,0.092,0.449,0.092,0.617,0.001
						c0.168-0.091,0.165-0.239-0.008-0.33C20.666,34.725,20.39,34.725,20.222,34.816z"/>
					
						<ellipse transform="matrix(0.0125 -0.9999 0.9999 0.0125 -15.9312 54.7007)" class="st23" cx="19.73" cy="35.416" rx="0.234" ry="0.436"/>
				</g>
				<g>
					<path d="M7.205,33.874c0.168-0.091,0.444-0.09,0.617,0.001c0.059,0.031,0.098,0.069,0.117,0.11
						c0.029-0.075-0.012-0.157-0.122-0.216c-0.173-0.092-0.449-0.092-0.617-0.001c-0.11,0.06-0.146,0.144-0.109,0.221
						C7.107,33.947,7.145,33.907,7.205,33.874z"/>
					<path d="M7.916,34.427c0.016-0.042,0.054-0.082,0.114-0.115c0.168-0.091,0.444-0.09,0.617,0.001
						c0.059,0.031,0.098,0.069,0.117,0.11c0.029-0.075-0.012-0.157-0.122-0.216c-0.173-0.092-0.449-0.092-0.617-0.001
						C7.915,34.266,7.879,34.35,7.916,34.427z"/>
					<path d="M11.221,36.006c0.168-0.091,0.444-0.09,0.617,0.001c0.059,0.031,0.098,0.069,0.117,0.11
						c0.029-0.075-0.012-0.157-0.122-0.216c-0.173-0.092-0.449-0.092-0.617-0.001c-0.11,0.06-0.146,0.144-0.109,0.221
						C11.123,36.079,11.161,36.039,11.221,36.006z"/>
					<path d="M12.041,36.339c-0.11,0.06-0.146,0.144-0.109,0.221c0.016-0.042,0.054-0.082,0.114-0.115
						c0.168-0.091,0.444-0.09,0.617,0.001c0.059,0.031,0.098,0.069,0.117,0.11c0.029-0.075-0.012-0.157-0.122-0.216
						C12.486,36.248,12.209,36.248,12.041,36.339z"/>
					<path d="M11.854,33.954c0.168-0.091,0.444-0.09,0.617,0.001c0.059,0.031,0.098,0.069,0.117,0.11
						c0.029-0.075-0.012-0.157-0.122-0.216c-0.172-0.092-0.449-0.092-0.617-0.001c-0.11,0.06-0.146,0.144-0.109,0.221
						C11.756,34.027,11.794,33.987,11.854,33.954z"/>
					<path d="M11.05,34.389c0.168-0.091,0.444-0.09,0.617,0.001c0.059,0.031,0.098,0.069,0.117,0.11
						c0.029-0.075-0.012-0.157-0.122-0.216c-0.173-0.092-0.449-0.092-0.617-0.001c-0.11,0.06-0.146,0.144-0.109,0.221
						C10.951,34.462,10.989,34.422,11.05,34.389z"/>
					<path d="M8.835,35.813c-0.173-0.092-0.449-0.092-0.617-0.001c-0.11,0.06-0.146,0.144-0.109,0.221
						c0.016-0.042,0.054-0.082,0.114-0.115c0.168-0.091,0.444-0.09,0.617,0.001c0.059,0.031,0.098,0.069,0.117,0.11
						C8.987,35.953,8.946,35.872,8.835,35.813z"/>
					<path d="M8.031,36.248c-0.173-0.092-0.449-0.092-0.617-0.001c-0.11,0.06-0.146,0.144-0.109,0.221
						c0.016-0.042,0.054-0.082,0.114-0.115c0.168-0.091,0.444-0.09,0.617,0.001c0.059,0.031,0.098,0.069,0.117,0.11
						C8.182,36.388,8.141,36.307,8.031,36.248z"/>
					<path d="M15.295,31.651c0.168-0.091,0.444-0.09,0.617,0.001c0.059,0.031,0.098,0.069,0.117,0.11
						c0.029-0.075-0.012-0.157-0.122-0.216c-0.173-0.092-0.449-0.092-0.617-0.001c-0.11,0.06-0.146,0.144-0.109,0.221
						C15.197,31.724,15.235,31.684,15.295,31.651z"/>
					<path d="M16.12,32.09c0.168-0.091,0.444-0.09,0.617,0.001c0.059,0.031,0.098,0.069,0.117,0.11
						c0.029-0.075-0.012-0.157-0.122-0.216c-0.173-0.092-0.449-0.092-0.617-0.001c-0.11,0.06-0.146,0.144-0.109,0.221
						C16.022,32.162,16.06,32.122,16.12,32.09z"/>
					<path d="M19.295,29.488c0.168-0.091,0.444-0.09,0.617,0.001c0.059,0.031,0.098,0.069,0.117,0.11
						c0.029-0.075-0.012-0.157-0.122-0.216c-0.173-0.092-0.449-0.092-0.617-0.001c-0.11,0.06-0.146,0.144-0.109,0.221
						C19.197,29.561,19.235,29.521,19.295,29.488z"/>
					<path d="M20.732,29.822c-0.173-0.092-0.449-0.092-0.617-0.001c-0.11,0.06-0.146,0.144-0.109,0.221
						c0.016-0.042,0.054-0.082,0.114-0.115c0.168-0.091,0.444-0.09,0.617,0.001c0.059,0.031,0.098,0.069,0.117,0.11
						C20.884,29.962,20.843,29.88,20.732,29.822z"/>
					<path d="M13.055,39.026c-0.173-0.092-0.449-0.092-0.617-0.001c-0.11,0.06-0.146,0.144-0.109,0.221
						c0.016-0.042,0.054-0.082,0.114-0.115c0.168-0.091,0.444-0.09,0.617,0.001c0.059,0.031,0.098,0.069,0.117,0.11
						C13.207,39.167,13.166,39.085,13.055,39.026z"/>
					<path d="M12.251,39.461c-0.173-0.092-0.449-0.092-0.617-0.001c-0.11,0.06-0.146,0.144-0.109,0.221
						c0.016-0.042,0.054-0.082,0.114-0.115c0.168-0.091,0.444-0.09,0.617,0.001c0.059,0.031,0.098,0.069,0.117,0.11
						C12.402,39.602,12.361,39.52,12.251,39.461z"/>
					<path d="M15.501,37.703c-0.173-0.092-0.449-0.092-0.617-0.001c-0.11,0.06-0.146,0.144-0.109,0.221
						c0.016-0.042,0.054-0.082,0.114-0.115c0.168-0.091,0.444-0.09,0.617,0.001c0.059,0.031,0.098,0.069,0.117,0.11
						C15.652,37.844,15.611,37.762,15.501,37.703z"/>
					<path d="M14.697,38.138c-0.172-0.092-0.449-0.092-0.617-0.001c-0.11,0.06-0.146,0.144-0.109,0.221
						c0.016-0.042,0.054-0.082,0.114-0.115c0.168-0.091,0.444-0.09,0.617,0.001c0.059,0.031,0.098,0.069,0.117,0.11
						C14.848,38.279,14.807,38.197,14.697,38.138z"/>
					<path d="M23.268,33.503c-0.173-0.092-0.449-0.092-0.617-0.001c-0.11,0.06-0.146,0.144-0.109,0.221
						c0.016-0.042,0.054-0.082,0.114-0.115c0.168-0.091,0.444-0.09,0.617,0.001c0.059,0.031,0.098,0.069,0.117,0.11
						C23.419,33.644,23.379,33.562,23.268,33.503z"/>
					<path d="M22.464,33.938c-0.172-0.092-0.449-0.092-0.617-0.001c-0.11,0.06-0.146,0.144-0.109,0.221
						c0.016-0.042,0.054-0.082,0.114-0.115c0.168-0.091,0.444-0.09,0.617,0.001c0.059,0.031,0.098,0.069,0.117,0.11
						C22.615,34.079,22.574,33.997,22.464,33.938z"/>
					<path d="M25.756,31.932c0.168-0.091,0.444-0.09,0.617,0.001c0.059,0.031,0.098,0.069,0.117,0.11
						c0.029-0.075-0.012-0.157-0.122-0.216c-0.173-0.092-0.449-0.092-0.617-0.001c-0.11,0.06-0.146,0.144-0.109,0.221
						C25.658,32.005,25.696,31.964,25.756,31.932z"/>
					<path d="M25.563,32.262c-0.173-0.092-0.449-0.092-0.617-0.001c-0.11,0.06-0.146,0.144-0.109,0.221
						c0.016-0.042,0.054-0.082,0.114-0.115c0.168-0.091,0.444-0.09,0.617,0.001c0.059,0.031,0.098,0.069,0.117,0.11
						C25.715,32.403,25.674,32.321,25.563,32.262z"/>
					<path d="M18.132,36.281c-0.173-0.092-0.449-0.092-0.617-0.001c-0.11,0.06-0.146,0.144-0.109,0.221
						c0.016-0.042,0.054-0.082,0.114-0.115c0.168-0.091,0.444-0.09,0.617,0.001c0.059,0.031,0.098,0.069,0.117,0.11
						C18.283,36.421,18.242,36.34,18.132,36.281z"/>
					<path d="M17.327,36.716c-0.173-0.092-0.449-0.092-0.617-0.001c-0.11,0.06-0.146,0.144-0.109,0.221
						c0.016-0.042,0.054-0.082,0.114-0.115c0.168-0.091,0.444-0.09,0.617,0.001c0.059,0.031,0.098,0.069,0.117,0.11
						C17.479,36.856,17.438,36.775,17.327,36.716z"/>
					<path d="M20.839,34.817c-0.173-0.092-0.449-0.092-0.617-0.001c-0.11,0.06-0.146,0.144-0.109,0.221
						c0.016-0.042,0.054-0.082,0.114-0.115c0.168-0.091,0.444-0.09,0.617,0.001c0.059,0.031,0.098,0.069,0.117,0.11
						C20.99,34.957,20.949,34.876,20.839,34.817z"/>
					<path d="M20.034,35.252c-0.173-0.092-0.449-0.092-0.617-0.001c-0.11,0.06-0.146,0.144-0.109,0.221
						c0.016-0.042,0.054-0.082,0.114-0.115c0.168-0.091,0.444-0.09,0.617,0.001c0.059,0.031,0.098,0.069,0.117,0.11
						C20.186,35.392,20.145,35.311,20.034,35.252z"/>
				</g>
			</g>
		</g>
	</g>
</g>
</svg>
