<?xml version="1.0" encoding="utf-8"?>
<!-- Generator: Adobe Illustrator 25.4.1, SVG Export Plug-In . SVG Version: 6.00 Build 0)  -->
<svg version="1.1" id="Layer_1" xmlns="http://www.w3.org/2000/svg" xmlns:xlink="http://www.w3.org/1999/xlink" x="0px" y="0px"
	 viewBox="0 0 50 50" style="enable-background:new 0 0 50 50;" xml:space="preserve">
<style type="text/css">
	.st0{opacity:0.17;}
	.st1{fill:#404040;}
	.st2{fill:#DD2D00;}
	.st3{fill:#ED4900;}
	.st4{fill:#747474;}
	.st5{fill:#383838;}
	.st6{fill:#4E4E4E;}
	.st7{fill:#BED2E3;}
	.st8{fill:#A7BBCC;}
	.st9{fill:#616161;}
	.st10{fill:#FFFF00;}
	.st11{fill:#9CFF78;}
	.st12{fill:#CC6400;}
	.st13{fill:#B04E00;}
	.st14{fill:#C06600;}
	.st15{fill:#E1E1E1;}
	.st16{fill:#2E2E2E;}
	.st17{fill:#5E5E5E;}
	.st18{fill:#797979;}
	.st19{fill:#575757;}
	.st20{fill:#EEEE4A;}
	.st21{fill:#FF6300;}
	.st22{fill:#2E4456;}
	.st23{fill:#353535;}
	.st24{fill:#717171;}
	.st25{fill:#07C7FF;}
</style>
<g>
	<ellipse class="st0" cx="11.423" cy="41.232" rx="8.854" ry="3.038"/>
	<g>
		<g>
			<path class="st0" d="M31.363,48.085L11.959,36.664l13.826-7.89c0,0,21.858,12.585,21.645,12.521
				c-0.163-0.049-11.978,6.913-11.978,6.913L31.363,48.085z"/>
		</g>
	</g>
	<g>
		<polygon class="st1" points="46.586,24.192 46.586,39.959 27.365,29.426 27.365,13.659 		"/>
		<g>
			<polygon class="st2" points="31.83,24.957 31.729,25.423 31.314,26.303 30.94,26.303 30.526,25.423 30.424,24.957 			"/>
			<polygon class="st3" points="31.547,24.957 30.424,24.957 30.526,25.423 30.94,26.303 31.185,26.303 			"/>
			<path class="st4" d="M29.934,24.454c0,0.453,0.534,0.821,1.194,0.821s1.194-0.368,1.194-0.821v-1.354h-2.387V24.454z"/>
		</g>
		<polyline class="st5" points="27.365,29.426 14.958,36.43 14.037,36.43 32.353,46.963 34.179,46.963 46.586,39.959 27.365,29.426 
					"/>
		<path class="st6" d="M14.037,21.357V36.43h0.921l12.407-7.004V13.659L14.037,21.357z M25.791,23.172
			c-0.006,0.688-0.35,1.443-0.765,1.677l-8.621,4.867c-0.415,0.234-0.749-0.138-0.743-0.826l0.084-5.483
			c0.006-0.688,0.35-1.443,0.765-1.677l8.621-4.867c0.415-0.234,0.749,0.138,0.743,0.826L25.791,23.172z"/>
		<g>
			<path class="st7" d="M34.06,37.707l-10.813-6.365l6.935-3.958c0,0,10.964,6.313,10.857,6.281
				C40.933,33.633,34.06,37.707,34.06,37.707z"/>
			<path class="st8" d="M34.131,39.433l7.416-4.283l-0.507-1.485c-0.107-0.032-6.98,4.042-6.98,4.042L34.131,39.433z"/>
			<polygon class="st8" points="34.06,37.707 23.247,31.342 22.623,32.71 34.131,39.433 			"/>
		</g>
		<path class="st9" d="M33.257,31.89v15.073h0.921l12.407-7.004V24.192L33.257,31.89z M45.012,33.705
			c-0.006,0.688-0.35,1.443-0.765,1.677l-8.621,4.867c-0.415,0.234-0.749-0.138-0.743-0.826l0.084-5.483
			c0.006-0.688,0.35-1.443,0.765-1.677l8.621-4.867c0.415-0.234,0.749,0.138,0.743,0.826L45.012,33.705z"/>
		<path class="st9" d="M14.037,20.663V36.43l18.316,10.534h0.905V31.89l-2.609-1.524l-5.893-3.443L14.037,20.663z M22.754,39.819
			l-5.923-3.396c-0.678-0.4-1.24-1.293-1.249-1.983l-0.138-9.965c-0.01-0.691,0.537-0.928,1.215-0.528l13.659,7.832
			c0.678,0.4,1.24,1.293,1.249,1.983l0.07,5.067L22.754,39.819z"/>
		<path class="st10" d="M28.078,42.666l-1.117-0.643c-0.338-0.196-0.614-0.632-0.614-0.969l0,0c0-0.338,0.276-0.454,0.614-0.258
			l1.117,0.643c0.338,0.196,0.614,0.632,0.614,0.969l0,0C28.692,42.745,28.416,42.861,28.078,42.666z"/>
		<g>
			
				<ellipse transform="matrix(0.7854 -0.619 0.619 0.7854 -20.2089 27.71)" class="st11" cx="29.859" cy="43.001" rx="0.48" ry="0.772"/>
		</g>
		<g>
			<path class="st12" d="M21.007,18.578l-0.306-0.194l3.566-2.089l0.423,0.15L21.007,18.578z"/>
			<path class="st13" d="M21.007,18.578l0.028,2.58l3.716-2.176l-0.06-2.536L21.007,18.578z"/>
			<path class="st14" d="M20.701,18.384v2.53l0.334,0.244l-0.028-2.58L20.701,18.384z"/>
		</g>
		<g>
			<path class="st15" d="M39.212,26.005l-14.872-8.63c0,0-0.285-0.145-0.424,0.143c-0.14,0.291,0.092,0.429,0.092,0.429
				l14.742,8.554L39.212,26.005z"/>
			<path class="st15" d="M37.686,27.907l-15.757-9.144c0,0-0.285-0.145-0.424,0.143c-0.14,0.291,0.092,0.429,0.092,0.429
				l15.483,8.985L37.686,27.907z"/>
		</g>
		<g>
			<g>
				<polygon class="st16" points="17.274,19.052 16.827,20.663 27.365,14.649 27.373,13.289 				"/>
				<g>
					<path d="M27.373,13.289l-0.008,1.36c0,0,16.333,9.404,16.498,9.542l-0.68-1.756C43.338,22.481,27.373,13.289,27.373,13.289z"/>
					<path class="st6" d="M45.996,30.752l0.001,0.002C45.998,30.754,45.998,30.753,45.996,30.752z"/>
				</g>
				<path class="st6" d="M27.334,11.77l-12.733,7.282l10.271,6l5.647,3.299l2.5,1.461l12.772-7.377L27.334,11.77z M33.019,28.32
					l-15.745-9.268l10.098-5.763c0,0,15.965,9.192,15.81,9.146C43.027,22.388,33.019,28.32,33.019,28.32z"/>
				<polygon class="st5" points="33.019,29.811 30.519,28.351 24.872,25.052 14.601,19.052 14.037,20.663 24.755,26.924 
					30.648,30.366 32.085,31.205 				"/>
				<polygon class="st17" points="32.085,31.205 34.179,31.358 33.019,29.811 				"/>
				<polyline class="st18" points="34.179,31.358 34.179,46.963 32.353,46.963 32.085,31.205 34.179,31.358 				"/>
				<polygon class="st18" points="45.792,22.434 33.019,29.811 34.179,31.358 46.586,24.192 				"/>
				<polygon points="24.049,24.567 24.903,24.125 24.049,25.839 				"/>
				<polygon class="st19" points="24.049,25.839 24.903,24.125 29.9,27.018 29.109,27.502 29.109,28.774 				"/>
				<g>
					<path d="M25.557,25.067c-0.176-0.111-0.456-0.01-0.625,0.226c-0.169,0.236-0.163,0.516,0.013,0.627s0.456,0.01,0.625-0.226
						C25.739,25.458,25.733,25.177,25.557,25.067z"/>
					<path class="st5" d="M25.656,25.129l-0.099-0.062c0.176,0.111,0.182,0.392,0.013,0.627c-0.169,0.236-0.449,0.337-0.625,0.226
						l0.099,0.062c0.176,0.111,0.456,0.01,0.625-0.226C25.838,25.52,25.832,25.24,25.656,25.129z"/>
				</g>
				<g>
					<path d="M28.672,27.033c-0.129-0.081-0.333-0.007-0.456,0.165c-0.123,0.172-0.119,0.377,0.01,0.458
						c0.129,0.081,0.333,0.007,0.456-0.165C28.805,27.32,28.801,27.114,28.672,27.033z"/>
					<path class="st5" d="M28.744,27.079l-0.072-0.045c0.129,0.081,0.133,0.286,0.01,0.458c-0.123,0.172-0.328,0.246-0.456,0.165
						l0.072,0.045c0.129,0.081,0.333,0.007,0.456-0.165C28.877,27.365,28.873,27.16,28.744,27.079z"/>
				</g>
			</g>
			<polygon class="st20" points="25.905,26.226 26.218,25.6 28.044,26.657 27.755,27.299 			"/>
		</g>
		<g>
			<path class="st21" d="M31.127,21.54l-2.619-1.499l2.575-1.508L33.787,20L31.127,21.54z"/>
			<path class="st2" d="M31.127,21.54l0.02,3.017l2.683-1.571L33.787,20L31.127,21.54z"/>
			<path class="st3" d="M28.508,20.04v2.982l2.639,1.535l-0.02-3.017L28.508,20.04z"/>
		</g>
		<g>
			<path class="st22" d="M31.226,20.45c-0.779,0-0.851-0.489-0.851-0.489s0.06-1.01,0.294-2.196
				c0.326-1.659,0.825-2.902,1.484-3.694c1.323-1.591,2.53-2.364,3.589-2.296c0.437,0.028,1.056,0.215,1.519,0.945
				c0.94,1.481,1.161,3.446,1.181,4.833c0.003,0.2-0.175,0.534-0.175,0.534l-1.572-0.908c0,0-0.381-2.713-0.899-3.528
				c-0.088-0.139-0.138-0.142-0.165-0.144c-0.246-0.017-1.013,0.313-2.144,1.673c-0.964,1.159-1.379,4.882-1.379,4.882
				S32.025,20.45,31.226,20.45z"/>
		</g>
	</g>
	<g>
		<g>
			<path class="st23" d="M21.058,39.838c0.101,1.44-2.151,2.772-5.029,2.974c-2.879,0.202-5.295-0.801-5.396-2.241l-0.023-0.331
				c0.101,1.44,2.517,2.443,5.396,2.241c2.879-0.202,5.131-1.534,5.029-2.974L21.058,39.838z"/>
			<path d="M15.639,37.265c-2.879,0.202-5.131,1.534-5.03,2.974c0.101,1.44,2.517,2.443,5.396,2.241
				c2.879-0.202,5.131-1.534,5.029-2.974C20.934,38.066,18.518,37.063,15.639,37.265z"/>
		</g>
		<path class="st10" d="M10.988,40.072c0.094,1.333,2.33,2.261,4.994,2.074c2.664-0.187,4.749-1.42,4.655-2.753l-0.126-1.791
			c-0.094-1.333-2.33-2.261-4.994-2.074c-2.665,0.187-4.749,1.42-4.655,2.753L10.988,40.072z"/>
		<path class="st0" d="M14.34,39.754c0,0-3.392-0.242-3.479-1.472l0.126,1.791c0.076,1.077,1.551,1.889,3.52,2.063L14.34,39.754z"/>
		<g>
			<path d="M20.916,37.818c0.101,1.44-2.151,2.772-5.029,2.974s-5.295-0.801-5.396-2.241l-0.023-0.331
				c0.101,1.44,2.517,2.443,5.396,2.241c2.879-0.202,5.131-1.534,5.029-2.974L20.916,37.818z"/>
			<path class="st24" d="M15.497,35.246c-2.879,0.202-5.131,1.534-5.03,2.974c0.101,1.44,2.517,2.443,5.396,2.241
				c2.879-0.202,5.131-1.534,5.029-2.974C20.792,36.047,18.376,35.044,15.497,35.246z M12.692,36.597
				c0.377-0.231,1.031-0.286,1.459-0.123c0.428,0.163,0.47,0.482,0.092,0.713c-0.377,0.231-1.031,0.286-1.459,0.123
				C12.356,37.147,12.314,36.828,12.692,36.597z M13.104,38.734c-0.551,0.102-1.119-0.028-1.267-0.291
				c-0.149-0.263,0.178-0.56,0.729-0.662c0.551-0.102,1.119,0.028,1.267,0.291C13.982,38.335,13.656,38.631,13.104,38.734z
				 M16.255,39.203c-0.085,0.282-0.612,0.502-1.176,0.49c-0.564-0.012-0.953-0.25-0.868-0.533s0.612-0.502,1.176-0.49
				C15.952,38.683,16.34,38.921,16.255,39.203z M15.955,36.788c-0.564-0.012-0.953-0.25-0.868-0.533s0.612-0.502,1.176-0.49
				c0.565,0.012,0.953,0.25,0.868,0.533C17.047,36.581,16.52,36.8,15.955,36.788z M18.651,38.862
				c-0.377,0.231-1.031,0.286-1.459,0.123c-0.428-0.163-0.47-0.482-0.092-0.713s1.031-0.286,1.459-0.123
				C18.987,38.312,19.028,38.631,18.651,38.862z M18.776,37.679c-0.551,0.103-1.119-0.028-1.267-0.291
				c-0.149-0.263,0.178-0.56,0.729-0.662c0.551-0.102,1.119,0.028,1.267,0.291C19.654,37.28,19.328,37.577,18.776,37.679z"/>
		</g>
	</g>
	<g>
		<g>
			<path class="st23" d="M13.469,38.006c0.573,1.325-1.109,3.328-3.758,4.474c-2.649,1.146-5.261,1.001-5.834-0.324l-0.132-0.305
				c0.573,1.325,3.185,1.47,5.834,0.324s4.331-3.149,3.758-4.474L13.469,38.006z"/>
			<path d="M7.503,37.377c-2.649,1.146-4.331,3.149-3.758,4.474s3.185,1.47,5.834,0.324c2.649-1.146,4.331-3.149,3.758-4.474
				C12.764,36.376,10.152,36.231,7.503,37.377z"/>
		</g>
		<path class="st25" d="M4.047,41.569c0.531,1.226,2.948,1.361,5.4,0.3c2.451-1.061,4.009-2.915,3.478-4.141l-0.713-1.647
			c-0.531-1.226-2.948-1.361-5.399-0.3c-2.452,1.061-4.009,2.915-3.478,4.141L4.047,41.569z"/>
		<path class="st0" d="M7.104,40.156c0,0-3.28,0.897-3.77-0.234l0.713,1.647c0.429,0.991,2.09,1.268,4.005,0.778L7.104,40.156z"/>
		<g>
			<path d="M12.665,36.148c0.573,1.325-1.109,3.328-3.758,4.474c-2.649,1.146-5.261,1.001-5.834-0.324l-0.132-0.305
				c0.573,1.325,3.185,1.47,5.834,0.324c2.649-1.146,4.331-3.149,3.758-4.474L12.665,36.148z"/>
			<path class="st24" d="M6.699,35.52c-2.649,1.146-4.331,3.149-3.758,4.474s3.185,1.47,5.834,0.324
				c2.649-1.146,4.331-3.149,3.758-4.474C11.96,34.519,9.348,34.374,6.699,35.52z M4.501,37.725c0.279-0.343,0.877-0.612,1.336-0.6
				c0.458,0.012,0.603,0.299,0.324,0.642c-0.279,0.343-0.877,0.612-1.336,0.6C4.367,38.355,4.222,38.068,4.501,37.725z
				 M5.599,39.603c-0.486,0.28-1.065,0.345-1.292,0.146C4.08,39.55,4.29,39.162,4.776,38.882c0.486-0.28,1.064-0.345,1.292-0.146
				C6.295,38.936,6.085,39.324,5.599,39.603z M8.728,39.001c0.013,0.295-0.411,0.676-0.947,0.852
				c-0.536,0.176-0.982,0.08-0.995-0.214c-0.013-0.295,0.411-0.676,0.947-0.852C8.269,38.611,8.714,38.707,8.728,39.001z
				 M7.644,36.823c-0.536,0.176-0.982,0.08-0.995-0.214c-0.013-0.295,0.411-0.676,0.947-0.852s0.982-0.08,0.995,0.214
				C8.604,36.265,8.18,36.646,7.644,36.823z M10.875,37.884c-0.279,0.343-0.877,0.612-1.336,0.6
				c-0.458-0.011-0.603-0.299-0.324-0.642s0.877-0.612,1.336-0.6C11.009,37.254,11.154,37.541,10.875,37.884z M10.6,36.727
				c-0.486,0.28-1.064,0.345-1.292,0.146c-0.227-0.199-0.018-0.587,0.468-0.867c0.486-0.28,1.065-0.345,1.292-0.146
				C11.296,36.059,11.086,36.447,10.6,36.727z"/>
		</g>
	</g>
</g>
</svg>
