<?xml version="1.0" encoding="utf-8"?>
<!-- Generator: Adobe Illustrator 26.0.1, SVG Export Plug-In . SVG Version: 6.00 Build 0)  -->
<svg version="1.1" id="Layer_1" xmlns="http://www.w3.org/2000/svg" xmlns:xlink="http://www.w3.org/1999/xlink" x="0px" y="0px"
	 viewBox="0 0 50 50" style="enable-background:new 0 0 50 50;" xml:space="preserve">
<style type="text/css">
	.st0{opacity:0.42;fill:#C0C1C1;enable-background:new    ;}
	.st1{opacity:0.34;fill:#C0C1C1;enable-background:new    ;}
	.st2{fill-rule:evenodd;clip-rule:evenodd;fill:#A8ADB1;}
	.st3{fill-rule:evenodd;clip-rule:evenodd;fill:#C3C1BE;}
	.st4{fill-rule:evenodd;clip-rule:evenodd;fill:#343434;}
	.st5{fill-rule:evenodd;clip-rule:evenodd;fill:#EDEEEE;}
	.st6{fill-rule:evenodd;clip-rule:evenodd;fill:#E4E4E4;}
	.st7{fill-rule:evenodd;clip-rule:evenodd;fill:#C8C8C9;}
	.st8{fill-rule:evenodd;clip-rule:evenodd;fill:#363332;}
	.st9{fill-rule:evenodd;clip-rule:evenodd;fill:#666462;}
	.st10{fill-rule:evenodd;clip-rule:evenodd;fill:#CAC9C5;}
	.st11{fill:#FD000D;}
	.st12{fill:#8D000D;}
	.st13{fill:#6AC4D5;}
	.st14{fill:#CD000D;}
	.st15{fill:#5C000D;}
	.st16{fill:#B6B8B8;}
	.st17{fill:#DDDFE3;}
	.st18{fill:#F5F6F7;}
	.st19{fill:#9DA7AC;}
	.st20{fill:#A6000D;}
	.st21{fill:#C0C1C1;}
	.st22{fill:#424545;}
	.st23{fill:#696969;}
</style>
<g>
	<path class="st0" d="M15.089,49.283L1.316,40.762c-0.032-0.02-0.039-0.044-0.017-0.055l22.428-10.934
		c0.022-0.01,0.066-0.003,0.097,0.016l13.773,8.521c0.032,0.02,0.039,0.044,0.017,0.055L15.186,49.299
		C15.164,49.31,15.12,49.303,15.089,49.283z"/>
	<path class="st1" d="M37.342,43.64l-16.494-8.872c-0.037-0.02-0.048-0.047-0.023-0.06L32.1,28.805
		c0.025-0.013,0.075-0.007,0.113,0.013l16.495,8.872c0.037,0.02,0.048,0.047,0.023,0.06l-11.275,5.903
		C37.431,43.666,37.38,43.66,37.342,43.64z"/>
	<g>
		<path id="XMLID_1231_" class="st2" d="M34.71,37.332c0.004,0.024-0.009,0.047-0.042,0.063c-6.344,3.091-12.67,6.191-19.063,9.252
			c-0.057,0.027-0.153,0.019-0.215-0.019c-4.633-2.813-9.188-5.63-13.752-8.476c-0.027-0.018-0.043-0.038-0.048-0.057H1.588
			l-0.007-0.68l1.16,0.078c5.975-2.899,11.946-5.8,17.921-8.699c0.054-0.026,0.149-0.015,0.212,0.024
			c4.21,2.61,8.508,5.177,12.715,7.788l1.114,0.075L34.71,37.332"/>
		<polygon id="XMLID_1230_" class="st3" points="1.471,36.858 20.275,27.752 20.473,28.375 1.669,37.481 		"/>
		<path id="XMLID_1229_" class="st2" d="M19.879,12.155c0.458-0.221,0.836-0.045,0.841,0.393l0.154,14.459
			c0.004,0.438-0.366,0.977-0.824,1.199L1.788,37.05c-0.457,0.221-0.835,0.045-0.84-0.393L0.794,22.198
			c-0.005-0.438,0.366-0.977,0.823-1.199L19.879,12.155z"/>
		<path id="XMLID_1228_" class="st4" d="M1.049,22.306c-0.004-0.384,0.318-0.853,0.719-1.047l18.117-8.774
			c0.401-0.194,0.73-0.04,0.734,0.343l0.153,14.345c0.004,0.383-0.319,0.852-0.719,1.046L1.936,36.993
			c-0.401,0.194-0.73,0.04-0.734-0.343L1.049,22.306z"/>
		<polygon id="XMLID_1227_" class="st5" points="19.486,14.141 19.629,27.265 2.437,35.54 2.294,22.416 		"/>
		<path id="XMLID_1226_" class="st6" d="M15.599,45.995c-0.056,0.027-0.153,0.019-0.215-0.019c-4.633-2.813-9.188-5.63-13.752-8.476
			c-0.061-0.039-0.068-0.091-0.014-0.117c6.347-3.079,12.689-6.162,19.037-9.241c0.054-0.026,0.149-0.015,0.212,0.024
			c4.568,2.832,9.241,5.613,13.788,8.455c0.062,0.039,0.065,0.094,0.007,0.122C28.318,39.834,21.992,42.934,15.599,45.995"/>
		<path id="XMLID_1225_" class="st7" d="M22.476,41.971c-0.05,0.025-0.139,0.016-0.2-0.021c-0.77-0.471-2.477-1.516-3.247-1.988
			c-0.058-0.036-0.064-0.085-0.013-0.11c1.319-0.645,2.637-1.29,3.954-1.935c0.051-0.025,0.14-0.016,0.197,0.02
			c0.76,0.475,2.472,1.533,3.231,2.008c0.059,0.037,0.065,0.087,0.014,0.112C25.106,40.699,23.785,41.331,22.476,41.971"/>
		<path id="XMLID_1224_" class="st5" d="M22.476,41.971c-0.05,0.025-0.139,0.016-0.199-0.02c-0.759-0.464-2.423-1.483-3.21-1.965
			c1.295-0.634,2.59-1.267,3.884-1.901c0.051-0.025,0.14-0.016,0.197,0.02c0.749,0.468,2.42,1.501,3.196,1.986
			C25.06,40.72,23.762,41.342,22.476,41.971"/>
		<path id="XMLID_1223_" class="st5" d="M11.862,42.932c-0.053,0.025-0.143,0.018-0.201-0.018c-4.335-2.631-3.531-2.123-7.801-4.786
			c-0.057-0.036-0.063-0.085-0.013-0.109c5.939-2.881,11.872-5.765,17.811-8.646c0.051-0.025,0.139-0.015,0.198,0.022
			c4.274,2.65,3.58,2.108,7.835,4.767c0.058,0.036,0.06,0.087,0.006,0.114C23.762,37.168,17.843,40.068,11.862,42.932"/>
		<path id="XMLID_1222_" class="st8" d="M16.199,35.091l0.743-0.361l-0.837-0.524c-0.005-0.003-0.013-0.006-0.027-0.007h-0.031
			l-0.745,0.361l0.839,0.524l0.033,0.01L16.199,35.091z"/>
		<path id="XMLID_1221_" class="st8" d="M17.168,34.62l0.745-0.361l-0.836-0.524c-0.006-0.003-0.013-0.006-0.028-0.007h-0.03
			l-0.746,0.361l0.837,0.524l0.034,0.01L17.168,34.62z"/>
		<path id="XMLID_1220_" class="st8" d="M18.142,34.148l0.746-0.362l-0.836-0.524c-0.005-0.003-0.012-0.006-0.026-0.007h-0.031
			l-0.747,0.362l0.836,0.524l0.033,0.01L18.142,34.148z"/>
		<path id="XMLID_1219_" class="st8" d="M15.227,35.561L15.97,35.2l-0.84-0.523c-0.005-0.003-0.013-0.006-0.027-0.007h-0.03
			l-0.744,0.361l0.841,0.523l0.034,0.01L15.227,35.561z"/>
		<path id="XMLID_1218_" class="st8" d="M14.258,36.033L15,35.673l-0.841-0.523c-0.006-0.004-0.013-0.007-0.028-0.008h-0.03
			l-0.743,0.36l0.843,0.523l0.033,0.01L14.258,36.033z"/>
		<path id="XMLID_1217_" class="st8" d="M22.304,34.57l2.71-1.32l-1.932-1.199c-0.005-0.003-0.012-0.006-0.026-0.007
			c-0.008-0.001-0.019-0.001-0.033,0l-1.181,0.573l1.101,0.687l-1.524,0.741l0.828,0.518l0.033,0.009L22.304,34.57z"/>
		<path id="XMLID_1216_" class="st8" d="M19.114,33.674l0.749-0.363l-0.834-0.523c-0.005-0.003-0.013-0.006-0.027-0.007h-0.031
			l-0.748,0.363l0.835,0.524l0.033,0.01L19.114,33.674z"/>
		<path id="XMLID_1215_" class="st8" d="M20.342,35.526l0.744-0.362l-0.829-0.519c-0.005-0.003-0.012-0.006-0.026-0.007H20.2
			L19.456,35l0.83,0.519l0.033,0.009L20.342,35.526z"/>
		<path id="XMLID_1214_" class="st8" d="M20.121,33.187c0,0,2.028-0.986,2.69-1.306l-0.837-0.52
			c-0.005-0.003-0.012-0.006-0.027-0.007h-0.031l-2.688,1.302l0.834,0.524l0.034,0.01L20.121,33.187z"/>
		<polygon id="XMLID_1213_" class="st8" points="21.314,35.052 22.06,34.688 21.233,34.17 21.207,34.163 21.176,34.163 
			20.428,34.527 21.257,35.045 21.29,35.055 		"/>
		<path id="XMLID_1212_" class="st8" d="M8.421,38.857l0.748-0.362l-0.848-0.521c-0.006-0.003-0.013-0.006-0.028-0.007H8.262
			l-0.748,0.361l0.848,0.522l0.035,0.01L8.421,38.857z"/>
		<path id="XMLID_1211_" class="st8" d="M11.642,39.756c0.299-0.146,0.455-0.221,0.745-0.361l-0.845-0.517
			c-0.005-0.003-0.012-0.006-0.027-0.007h-0.032l-0.746,0.361l0.846,0.517l0.035,0.01L11.642,39.756z"/>
		<path id="XMLID_1210_" class="st8" d="M10.084,39.282l0.747-0.361l-0.846-0.518c-0.006-0.003-0.013-0.006-0.028-0.007H9.926
			l-0.748,0.361l0.847,0.519l0.034,0.01L10.084,39.282z"/>
		<path id="XMLID_1209_" class="st8" d="M13.302,40.179l0.742-0.36l-0.846-0.516c-0.006-0.003-0.013-0.006-0.027-0.007H13.14
			l-0.743,0.36l0.846,0.516l0.035,0.01L13.302,40.179z"/>
		<path id="XMLID_1208_" class="st8" d="M14.274,39.709l0.739-0.359l-0.845-0.516c-0.005-0.003-0.013-0.006-0.027-0.007H14.11
			l-0.741,0.359l0.846,0.515l0.034,0.01L14.274,39.709z"/>
		<path id="XMLID_1207_" class="st8" d="M13.29,36.501l0.742-0.359l-0.843-0.523c-0.006-0.003-0.013-0.006-0.028-0.007h-0.03
			l-0.744,0.36l0.845,0.523l0.033,0.01L13.29,36.501z"/>
		<path id="XMLID_1206_" class="st8" d="M11.345,37.443l0.744-0.36l-0.846-0.522c-0.005-0.003-0.013-0.006-0.027-0.007h-0.031
			l-0.744,0.36l0.848,0.521l0.034,0.01L11.345,37.443z"/>
		<path id="XMLID_1205_" class="st8" d="M12.319,36.972l0.742-0.36l-0.844-0.522c-0.006-0.003-0.013-0.006-0.028-0.007h-0.031
			l-0.744,0.36l0.847,0.522l0.034,0.01L12.319,36.972z"/>
		<path id="XMLID_1204_" class="st8" d="M9.399,38.384l0.746-0.361l-0.848-0.521c-0.005-0.003-0.013-0.006-0.027-0.007H9.238
			l-0.746,0.362l0.848,0.521l0.035,0.01L9.399,38.384z"/>
		<path id="XMLID_1203_" class="st8" d="M10.375,37.913l0.745-0.36l-0.848-0.521c-0.006-0.004-0.013-0.007-0.028-0.008h-0.031
			l-0.745,0.361l0.848,0.521l0.034,0.01L10.375,37.913z"/>
		<path id="XMLID_1202_" class="st8" d="M20.755,34.103l0.749-0.364l-0.831-0.52l-0.025-0.007c-0.008-0.001-0.018-0.001-0.032,0
			l-0.749,0.364l0.83,0.52l0.033,0.01L20.755,34.103z"/>
		<path id="XMLID_1201_" class="st8" d="M17.84,35.521l0.742-0.361l-0.833-0.521c-0.005-0.003-0.012-0.006-0.026-0.007h-0.031
			l-0.743,0.361l0.834,0.521l0.033,0.01L17.84,35.521z"/>
		<path id="XMLID_1200_" class="st8" d="M16.87,35.991l0.741-0.36l-0.834-0.52c-0.005-0.003-0.012-0.006-0.027-0.007h-0.03
			l-0.743,0.36l0.837,0.52l0.034,0.01L16.87,35.991z"/>
		<path id="XMLID_1199_" class="st8" d="M18.807,35.049l0.744-0.362l-0.831-0.521c-0.005-0.003-0.012-0.006-0.026-0.007h-0.031
			l-0.745,0.362l0.833,0.521l0.034,0.01L18.807,35.049z"/>
		<path id="XMLID_1198_" class="st8" d="M15.906,36.46l0.74-0.359l-0.837-0.52c-0.006-0.003-0.013-0.006-0.027-0.007h-0.031
			l-0.742,0.36l0.838,0.52l0.034,0.01L15.906,36.46z"/>
		<path id="XMLID_1197_" class="st8" d="M14.939,36.93l0.74-0.359l-0.839-0.52c-0.006-0.003-0.013-0.006-0.028-0.007h-0.03
			l-0.742,0.36l0.841,0.52l0.033,0.01L14.939,36.93z"/>
		<path id="XMLID_1196_" class="st8" d="M19.78,34.576l0.747-0.363l-0.831-0.52c-0.005-0.003-0.012-0.006-0.026-0.007h-0.031
			l-0.747,0.363l0.831,0.521l0.033,0.01L19.78,34.576z"/>
		<path id="XMLID_1195_" class="st8" d="M26.344,33.82l0.77-0.376c-0.326-0.201-0.497-0.307-0.831-0.512l-0.032-0.009l-0.027,0.003
			l-0.767,0.373l0.829,0.514l0.032,0.009L26.344,33.82z"/>
		<path id="XMLID_1194_" class="st8" d="M15.239,39.237l0.736-0.358l-0.843-0.516c-0.005-0.003-0.013-0.006-0.027-0.007h-0.03
			l-0.738,0.359l0.844,0.516l0.034,0.01L15.239,39.237z"/>
		<path id="XMLID_1193_" class="st8" d="M19.377,35.997l0.741-0.361l-0.831-0.519c-0.006-0.003-0.013-0.006-0.027-0.007h-0.031
			l-0.742,0.361l0.832,0.519L19.352,36L19.377,35.997z"/>
		<path id="XMLID_1192_" class="st8" d="M21.732,33.628l0.753-0.366l-0.831-0.519l-0.025-0.007c-0.008-0.001-0.018-0.001-0.032,0
			l-0.753,0.365l0.831,0.52l0.032,0.009L21.732,33.628z"/>
		<path id="XMLID_1191_" class="st8" d="M13.97,37.4l0.74-0.359l-0.841-0.52c-0.005-0.003-0.013-0.006-0.027-0.007h-0.03
			l-0.742,0.36l0.843,0.519l0.034,0.01L13.97,37.4z"/>
		<path id="XMLID_1190_" class="st8" d="M15.518,37.876l0.737-0.359l-0.839-0.518c-0.006-0.003-0.013-0.006-0.027-0.007h-0.03
			l-0.739,0.359l0.841,0.517l0.034,0.01L15.518,37.876z"/>
		<path id="XMLID_1189_" class="st8" d="M16.483,37.407c0,0,0.466-0.228,0.737-0.359l-0.837-0.518
			c-0.006-0.003-0.013-0.006-0.027-0.007h-0.031l-0.739,0.359l0.839,0.517l0.034,0.01L16.483,37.407z"/>
		<path id="XMLID_1188_" class="st8" d="M18.41,36.468l0.738-0.36l-0.832-0.519c-0.005-0.003-0.012-0.006-0.026-0.007h-0.031
			l-0.741,0.36l0.834,0.519l0.034,0.01L18.41,36.468z"/>
		<path id="XMLID_1187_" class="st8" d="M13.002,37.869l0.741-0.359L12.9,36.991c-0.005-0.003-0.013-0.006-0.027-0.007h-0.031
			l-0.742,0.36l0.844,0.519l0.034,0.01L13.002,37.869z"/>
		<path id="XMLID_1186_" class="st8" d="M17.446,36.936l0.737-0.359l-0.834-0.518c-0.005-0.003-0.013-0.006-0.027-0.007h-0.03
			l-0.74,0.36l0.837,0.518l0.033,0.01L17.446,36.936z"/>
		<path id="XMLID_1185_" class="st8" d="M14.554,38.344l0.738-0.359l-0.841-0.517c-0.006-0.003-0.013-0.006-0.027-0.007h-0.031
			l-0.74,0.359l0.842,0.517l0.034,0.01L14.554,38.344z"/>
		<path id="XMLID_1184_" class="st8" d="M13.587,38.814l0.739-0.359l-0.843-0.517c-0.005-0.003-0.013-0.006-0.027-0.007h-0.031
			l-0.741,0.359l0.844,0.517l0.034,0.01L13.587,38.814z"/>
		<path id="XMLID_1183_" class="st8" d="M12.033,38.34l0.742-0.36l-0.844-0.519c-0.006-0.003-0.013-0.006-0.028-0.007h-0.031
			l-0.744,0.36l0.846,0.519l0.034,0.01L12.033,38.34z"/>
		<path id="XMLID_1182_" class="st8" d="M11.06,38.81l0.744-0.36l-0.846-0.519c-0.005-0.003-0.013-0.006-0.028-0.007H10.9
			l-0.746,0.361l0.847,0.519l0.034,0.01L11.06,38.81z"/>
		<path id="XMLID_1181_" class="st8" d="M12.616,39.284l0.742-0.36l-0.844-0.516c-0.006-0.003-0.014-0.006-0.028-0.007h-0.031
			l-0.743,0.36l0.845,0.517l0.034,0.01L12.616,39.284z"/>
		<path id="XMLID_1180_" class="st8" d="M14.113,34.869l0.745-0.361l-0.844-0.529c-0.006-0.003-0.013-0.006-0.028-0.007h-0.03
			l-0.746,0.361l0.846,0.528l0.035,0.01L14.113,34.869z"/>
		<path id="XMLID_1179_" class="st8" d="M10.803,41.39c0.674-0.325,1.348-0.652,2.022-0.979l0.235-0.114l-0.847-0.516
			c-0.005-0.003-0.013-0.006-0.027-0.007h-0.032c-0.752,0.364-1.504,0.729-2.257,1.092l0.845,0.517l0.033,0.01L10.803,41.39z"/>
		<path id="XMLID_1178_" class="st8" d="M7.44,39.329l0.751-0.362l-0.848-0.521c-0.005-0.003-0.013-0.006-0.027-0.007H7.284
			l-0.75,0.362l0.848,0.522l0.034,0.01L7.44,39.329z"/>
		<path id="XMLID_1177_" class="st8" d="M6.319,38.638l0.75-0.362l-0.852-0.525c-0.006-0.003-0.013-0.006-0.028-0.007H6.158
			l-0.749,0.362l0.85,0.525l0.035,0.01L6.319,38.638z"/>
		<path id="XMLID_1176_" class="st8" d="M9.681,40.704l0.532-0.256c0.397-0.191,0.793-0.382,1.187-0.574l-0.847-0.517
			c-0.005-0.003-0.012-0.006-0.026-0.007c-0.009-0.001-0.019-0.001-0.033,0l-1.718,0.83l0.845,0.518l0.034,0.01L9.681,40.704z"/>
		<polygon id="XMLID_1175_" class="st8" points="8.561,40.019 9.848,39.397 9.001,38.879 8.967,38.869 8.929,38.878 7.656,39.492 
			8.502,40.012 8.536,40.022 		"/>
		<path id="XMLID_1174_" class="st8" d="M7.297,38.167l0.748-0.361l-0.852-0.525c-0.005-0.004-0.013-0.007-0.028-0.008H7.134
			l-0.748,0.361l0.852,0.525l0.035,0.01L7.297,38.167z"/>
		<path id="XMLID_1173_" class="st8" d="M8.276,37.693l0.747-0.361L8.17,36.807c-0.006-0.003-0.013-0.006-0.028-0.007H8.111
			l-0.747,0.362l0.852,0.525l0.035,0.01L8.276,37.693z"/>
		<path id="XMLID_1172_" class="st8" d="M11.199,36.282l0.744-0.36l-0.849-0.527c-0.006-0.004-0.014-0.007-0.029-0.008h-0.03
			l-0.746,0.361l0.85,0.526l0.035,0.01L11.199,36.282z"/>
		<path id="XMLID_1171_" class="st8" d="M10.226,36.751l0.745-0.36l-0.85-0.526c-0.006-0.004-0.014-0.007-0.029-0.008h-0.031
			l-0.746,0.361l0.852,0.526l0.034,0.01L10.226,36.751z"/>
		<path id="XMLID_1170_" class="st8" d="M9.25,37.222l0.746-0.36l-0.852-0.526c-0.006-0.003-0.013-0.006-0.028-0.007H9.085
			L8.339,36.69l0.852,0.525l0.035,0.01L9.25,37.222z"/>
		<path id="XMLID_1169_" class="st8" d="M13.909,41.116c2.174-1.055,4.343-2.116,6.51-3.176l2.861-1.399l-0.83-0.52
			c-0.005-0.003-0.012-0.006-0.026-0.007h-0.031l-0.991,0.484c-2.797,1.367-5.595,2.735-8.402,4.094l0.849,0.516l0.034,0.01
			L13.909,41.116z"/>
		<polygon id="XMLID_1168_" class="st8" points="27.447,34.504 28.22,34.126 27.387,33.612 27.355,33.603 27.328,33.606 
			26.558,33.982 27.389,34.498 27.421,34.507 		"/>
		<path id="XMLID_1167_" class="st8" d="M26.452,34.991l0.764-0.374l-0.83-0.516l-0.024-0.006c-0.009-0.001-0.02-0.001-0.035,0
			l-0.763,0.372l0.829,0.518l0.032,0.009L26.452,34.991z"/>
		<path id="XMLID_1166_" class="st8" d="M25.465,35.475l0.756-0.37c-0.253-0.159-0.829-0.518-0.829-0.518l-0.024-0.006
			c-0.008-0.001-0.019-0.001-0.033,0l-0.756,0.369l0.829,0.518l0.032,0.009L25.465,35.475z"/>
		<path id="XMLID_1165_" class="st8" d="M11.926,42.076l0.756-0.366l-0.849-0.516c-0.005-0.003-0.013-0.006-0.027-0.007
			c-0.008-0.001-0.019-0.001-0.033,0l-0.755,0.365l0.847,0.517l0.035,0.01L11.926,42.076z"/>
		<path id="XMLID_1164_" class="st8" d="M24.483,35.95l0.75-0.367l-0.829-0.519l-0.025-0.006c-0.008-0.001-0.018-0.001-0.032,0
			l-0.75,0.367l0.828,0.519l0.034,0.01L24.483,35.95z"/>
		<path id="XMLID_1163_" class="st8" d="M12.91,41.598l0.75-0.363l-0.85-0.516c-0.006-0.003-0.013-0.006-0.027-0.007h-0.032
			l-0.749,0.363l0.85,0.516l0.034,0.01L12.91,41.598z"/>
		<path id="XMLID_1162_" class="st8" d="M12.17,35.811l0.745-0.361l-0.847-0.527c-0.006-0.004-0.014-0.007-0.029-0.008h-0.03
			l-0.746,0.361l0.849,0.527l0.035,0.01L12.17,35.811z"/>
		<path id="XMLID_1161_" class="st8" d="M23.51,36.428l0.745-0.365l-0.829-0.519l-0.025-0.007c-0.008-0.001-0.018-0.001-0.032,0
			l-0.745,0.364l0.831,0.52l0.032,0.009L23.51,36.428z"/>
		<path id="XMLID_1160_" class="st8" d="M22.984,35.458c0.35-0.17,1.755-0.858,2.109-1.03l-0.827-0.516l-0.025-0.006
			c-0.008-0.001-0.019-0.001-0.033,0l-2.109,1.028l0.828,0.518l0.033,0.009L22.984,35.458z"/>
		<path id="XMLID_1159_" class="st8" d="M21.01,36.424l0.741-0.362l-0.83-0.519c-0.005-0.003-0.012-0.006-0.026-0.007h-0.031
			l-0.742,0.362l0.831,0.518l0.033,0.01L21.01,36.424z"/>
		<path id="XMLID_1158_" class="st8" d="M16.203,38.77l0.735-0.358l-0.84-0.517c-0.005-0.003-0.013-0.006-0.027-0.007H16.04
			l-0.737,0.358l0.842,0.516l0.034,0.01L16.203,38.77z"/>
		<polygon id="XMLID_1157_" class="st8" points="21.977,35.951 22.721,35.588 21.893,35.069 21.868,35.063 21.836,35.063 
			21.091,35.426 21.92,35.944 21.953,35.954 		"/>
		<polygon id="XMLID_1156_" class="st8" points="25.245,33.137 26.012,32.764 25.18,32.251 25.149,32.242 25.122,32.245 
			24.357,32.616 25.186,33.131 25.219,33.14 		"/>
		<path id="XMLID_1155_" class="st8" d="M24.145,32.455l0.763-0.371l-0.834-0.514l-0.025-0.006c-0.008-0.001-0.019-0.001-0.034,0
			l-0.761,0.369l0.832,0.516l0.033,0.009L24.145,32.455z"/>
		<path id="XMLID_1154_" class="st8" d="M25.353,34.305l0.762-0.372l-0.828-0.514l-0.024-0.006c-0.008-0.001-0.019-0.001-0.034,0
			l-0.761,0.37l0.827,0.516l0.032,0.009L25.353,34.305z"/>
		<path id="XMLID_1153_" class="st8" d="M17.165,38.3l0.734-0.358l-0.838-0.517c-0.005-0.003-0.013-0.006-0.027-0.007h-0.03
			l-0.737,0.359l0.839,0.517l0.034,0.01L17.165,38.3z"/>
		<path id="XMLID_1152_" class="st8" d="M13.141,35.34l0.745-0.361l-0.846-0.528c-0.005-0.004-0.013-0.007-0.028-0.008h-0.03
			l-0.745,0.361l0.847,0.528l0.035,0.01L13.141,35.34z"/>
		<path id="XMLID_1151_" class="st8" d="M20.047,36.894l0.738-0.36l-0.832-0.518c-0.005-0.003-0.012-0.006-0.026-0.007h-0.03
			l-0.74,0.36l0.833,0.518l0.033,0.01L20.047,36.894z"/>
		<path id="XMLID_1150_" class="st8" d="M19.086,37.365l0.736-0.36l-0.834-0.518c-0.006-0.003-0.012-0.006-0.026-0.007h-0.031
			l-0.738,0.36l0.835,0.517l0.033,0.01L19.086,37.365z"/>
		<path id="XMLID_1149_" class="st8" d="M18.125,37.833l0.735-0.359l-0.836-0.518c-0.006-0.003-0.013-0.006-0.027-0.007h-0.03
			l-0.737,0.359l0.838,0.517l0.033,0.01L18.125,37.833z"/>
		<path id="XMLID_1148_" class="st8" d="M16.057,33.927l0.747-0.362l-0.842-0.529c-0.005-0.004-0.013-0.007-0.028-0.008h-0.029
			l-0.747,0.362l0.844,0.529l0.034,0.01L16.057,33.927z"/>
		<path id="XMLID_1147_" class="st8" d="M17.032,33.453l0.748-0.362l-0.841-0.529c-0.005-0.004-0.013-0.007-0.028-0.008h-0.029
			l-0.748,0.363l0.842,0.53l0.034,0.01L17.032,33.453z"/>
		<path id="XMLID_1146_" class="st8" d="M15.087,34.398l0.745-0.361l-0.843-0.529c-0.005-0.004-0.013-0.007-0.028-0.008h-0.03
			l-0.747,0.361l0.845,0.529l0.034,0.01L15.087,34.398z"/>
		<path id="XMLID_1145_" class="st8" d="M18.009,32.982l0.749-0.363l-0.841-0.529c-0.006-0.004-0.013-0.007-0.028-0.008h-0.031
			l-0.749,0.363l0.842,0.529l0.034,0.01L18.009,32.982z"/>
		<path id="XMLID_1144_" class="st8" d="M19.964,32.033l0.753-0.365l-0.842-0.527c-0.006-0.004-0.013-0.007-0.028-0.008h-0.031
			l-0.751,0.364c0.277,0.175,0.842,0.529,0.842,0.529l0.034,0.01L19.964,32.033z"/>
		<path id="XMLID_1143_" class="st8" d="M18.986,32.507l0.751-0.364c-0.33-0.206-0.503-0.315-0.841-0.528
			c-0.006-0.004-0.013-0.007-0.028-0.008h-0.03l-0.75,0.363l0.841,0.53l0.033,0.01L18.986,32.507z"/>
		<path id="XMLID_1142_" class="st8" d="M20.946,31.556l0.755-0.366l-0.844-0.526c-0.006-0.003-0.013-0.006-0.028-0.007h-0.031
			l-0.753,0.365l0.843,0.528l0.034,0.01L20.946,31.556z"/>
		<path id="XMLID_1141_" class="st8" d="M21.931,31.08l0.757-0.367c-0.332-0.205-0.506-0.313-0.847-0.525
			c-0.005-0.003-0.013-0.006-0.027-0.007h-0.031l-0.755,0.365l0.845,0.527l0.034,0.01L21.931,31.08z"/>
		<path id="XMLID_1140_" class="st8" d="M23.042,31.77l0.76-0.369l-0.839-0.518c-0.006-0.003-0.013-0.006-0.027-0.007
			c-0.008,0-0.019-0.001-0.033,0l-0.758,0.367l0.838,0.521l0.033,0.009L23.042,31.77z"/>
		<path id="XMLID_1139_" class="st9" d="M16.198,34.991l0.743-0.361l-0.837-0.524c-0.005-0.003-0.013-0.006-0.027-0.007h-0.031
			l-0.745,0.361l0.839,0.524l0.033,0.01L16.198,34.991z"/>
		<path id="XMLID_1138_" class="st9" d="M17.168,34.519l0.745-0.361l-0.836-0.524c-0.006-0.003-0.013-0.006-0.028-0.007h-0.03
			l-0.746,0.361l0.837,0.525l0.034,0.01L17.168,34.519z"/>
		<path id="XMLID_1137_" class="st9" d="M18.142,34.048l0.746-0.362l-0.836-0.524c-0.005-0.003-0.012-0.006-0.026-0.007h-0.031
			l-0.747,0.362l0.836,0.524l0.033,0.01L18.142,34.048z"/>
		<path id="XMLID_1136_" class="st9" d="M15.227,35.462l0.743-0.361l-0.84-0.524c-0.005-0.003-0.013-0.006-0.027-0.007h-0.03
			l-0.744,0.361l0.841,0.523l0.034,0.01L15.227,35.462z"/>
		<path id="XMLID_1135_" class="st9" d="M14.258,35.932L15,35.572l-0.841-0.523c-0.006-0.004-0.013-0.007-0.028-0.008h-0.03
			l-0.743,0.36l0.843,0.523l0.033,0.01L14.258,35.932z"/>
		<path id="XMLID_1134_" class="st9" d="M22.304,34.47l2.71-1.32l-1.932-1.199c-0.005-0.003-0.012-0.006-0.026-0.007
			c-0.008-0.001-0.019-0.001-0.033,0l-1.181,0.573l1.101,0.687l-1.524,0.741l0.828,0.518l0.033,0.009L22.304,34.47z"/>
		<path id="XMLID_1133_" class="st9" d="M19.113,33.574l0.749-0.363l-0.834-0.523c-0.005-0.003-0.013-0.006-0.027-0.007H18.97
			l-0.748,0.363l0.835,0.524l0.033,0.01L19.113,33.574z"/>
		<path id="XMLID_1132_" class="st9" d="M20.342,35.426l0.744-0.362l-0.829-0.519c-0.005-0.003-0.012-0.006-0.026-0.007H20.2
			L19.456,34.9l0.83,0.519l0.033,0.009L20.342,35.426z"/>
		<path id="XMLID_1131_" class="st9" d="M20.121,33.087c0,0,2.028-0.986,2.69-1.306l-0.837-0.52
			c-0.005-0.003-0.012-0.006-0.027-0.007h-0.031l-2.688,1.302l0.834,0.524l0.034,0.01L20.121,33.087z"/>
		<polygon id="XMLID_1130_" class="st9" points="21.314,34.952 22.06,34.588 21.232,34.07 21.207,34.063 21.175,34.063 
			20.428,34.427 21.257,34.945 21.289,34.955 		"/>
		<path id="XMLID_1129_" class="st9" d="M8.421,38.757l0.748-0.362l-0.848-0.521c-0.006-0.003-0.013-0.006-0.028-0.007H8.262
			l-0.748,0.361l0.848,0.522l0.035,0.01L8.421,38.757z"/>
		<path id="XMLID_1128_" class="st9" d="M11.642,39.655c0.299-0.145,0.455-0.221,0.745-0.361l-0.845-0.516
			c-0.005-0.003-0.012-0.006-0.027-0.007h-0.032l-0.746,0.361l0.846,0.517l0.035,0.01L11.642,39.655z"/>
		<path id="XMLID_1127_" class="st9" d="M10.084,39.182l0.747-0.361l-0.846-0.518c-0.006-0.003-0.013-0.006-0.028-0.007H9.926
			l-0.748,0.361l0.847,0.519l0.034,0.01L10.084,39.182z"/>
		<path id="XMLID_1126_" class="st9" d="M13.302,40.079l0.742-0.36l-0.846-0.516c-0.006-0.003-0.013-0.006-0.027-0.007H13.14
			l-0.743,0.36l0.846,0.516l0.035,0.01L13.302,40.079z"/>
		<path id="XMLID_1125_" class="st9" d="M14.274,39.608l0.739-0.359l-0.845-0.516c-0.005-0.003-0.013-0.006-0.027-0.007H14.11
			l-0.741,0.36l0.846,0.515l0.034,0.01L14.274,39.608z"/>
		<path id="XMLID_1124_" class="st9" d="M13.289,36.401l0.742-0.359l-0.843-0.523c-0.006-0.003-0.013-0.006-0.028-0.007h-0.03
			l-0.744,0.36l0.845,0.522l0.033,0.01L13.289,36.401z"/>
		<path id="XMLID_1123_" class="st9" d="M11.345,37.343l0.744-0.36l-0.846-0.522c-0.005-0.003-0.013-0.006-0.027-0.007h-0.031
			l-0.744,0.36l0.848,0.521l0.034,0.01L11.345,37.343z"/>
		<path id="XMLID_1122_" class="st9" d="M12.319,36.873l0.742-0.36l-0.844-0.522c-0.006-0.004-0.013-0.007-0.028-0.008h-0.031
			l-0.744,0.36l0.847,0.522l0.034,0.01L12.319,36.873z"/>
		<path id="XMLID_1121_" class="st9" d="M9.399,38.284l0.746-0.361l-0.848-0.521c-0.005-0.003-0.013-0.006-0.027-0.007H9.238
			l-0.746,0.361l0.848,0.521l0.035,0.01L9.399,38.284z"/>
		<path id="XMLID_1120_" class="st9" d="M10.374,37.813l0.745-0.36l-0.848-0.521c-0.006-0.004-0.013-0.007-0.028-0.008h-0.031
			l-0.745,0.361l0.848,0.521l0.034,0.01L10.374,37.813z"/>
		<path id="XMLID_1119_" class="st9" d="M20.754,34.003l0.749-0.364l-0.831-0.52l-0.025-0.007c-0.008-0.001-0.018-0.001-0.032,0
			l-0.749,0.364l0.83,0.52l0.033,0.01L20.754,34.003z"/>
		<path id="XMLID_1118_" class="st9" d="M17.839,35.421l0.742-0.361l-0.833-0.521c-0.005-0.003-0.012-0.006-0.026-0.007h-0.031
			l-0.743,0.361l0.834,0.521l0.033,0.01L17.839,35.421z"/>
		<path id="XMLID_1117_" class="st9" d="M16.87,35.891l0.741-0.36l-0.834-0.52c-0.005-0.003-0.012-0.006-0.027-0.007h-0.03
			l-0.743,0.36l0.837,0.52l0.034,0.01L16.87,35.891z"/>
		<path id="XMLID_1116_" class="st9" d="M18.806,34.948l0.744-0.362l-0.831-0.52c-0.005-0.003-0.012-0.006-0.026-0.007h-0.031
			l-0.745,0.362l0.833,0.521l0.034,0.01L18.806,34.948z"/>
		<path id="XMLID_1115_" class="st9" d="M15.905,36.36l0.74-0.359l-0.837-0.52c-0.006-0.003-0.013-0.006-0.027-0.007H15.75
			l-0.742,0.36l0.838,0.52l0.034,0.01L15.905,36.36z"/>
		<path id="XMLID_1114_" class="st9" d="M14.939,36.829l0.74-0.359l-0.839-0.52c-0.006-0.003-0.013-0.006-0.028-0.007h-0.03
			l-0.742,0.36l0.841,0.52l0.033,0.01L14.939,36.829z"/>
		<path id="XMLID_1113_" class="st9" d="M19.779,34.477l0.747-0.363l-0.831-0.52c-0.005-0.003-0.012-0.006-0.026-0.007h-0.031
			l-0.747,0.362l0.831,0.521l0.033,0.01L19.779,34.477z"/>
		<path id="XMLID_1112_" class="st9" d="M26.343,33.718l0.77-0.375c-0.326-0.201-0.497-0.307-0.831-0.512l-0.032-0.009l-0.027,0.003
			l-0.767,0.373l0.829,0.514l0.032,0.009L26.343,33.718z"/>
		<path id="XMLID_1111_" class="st9" d="M15.239,39.137l0.736-0.358l-0.843-0.516c-0.005-0.003-0.013-0.006-0.027-0.007h-0.03
			l-0.738,0.359l0.844,0.516l0.034,0.01L15.239,39.137z"/>
		<path id="XMLID_1110_" class="st9" d="M19.376,35.897l0.741-0.361l-0.831-0.519c-0.006-0.003-0.013-0.006-0.027-0.007h-0.031
			l-0.741,0.361l0.832,0.519l0.033,0.01L19.376,35.897z"/>
		<path id="XMLID_1109_" class="st9" d="M21.732,33.528l0.753-0.366l-0.831-0.519l-0.025-0.007c-0.008-0.001-0.018-0.001-0.032,0
			l-0.753,0.365l0.831,0.52l0.032,0.009L21.732,33.528z"/>
		<path id="XMLID_1108_" class="st9" d="M13.97,37.299l0.74-0.359l-0.841-0.519c-0.005-0.003-0.013-0.006-0.027-0.007h-0.03
			l-0.742,0.36l0.843,0.519l0.034,0.01L13.97,37.299z"/>
		<path id="XMLID_1107_" class="st9" d="M15.517,37.776l0.737-0.359l-0.839-0.518c-0.006-0.003-0.013-0.006-0.027-0.007h-0.03
			l-0.739,0.359l0.841,0.517l0.034,0.01L15.517,37.776z"/>
		<path id="XMLID_1106_" class="st9" d="M16.482,37.306c0,0,0.466-0.228,0.737-0.359l-0.837-0.518
			c-0.006-0.003-0.013-0.006-0.027-0.007h-0.031l-0.739,0.359l0.839,0.518l0.034,0.01L16.482,37.306z"/>
		<path id="XMLID_1105_" class="st9" d="M18.41,36.368l0.738-0.36l-0.832-0.519c-0.005-0.003-0.012-0.006-0.026-0.007h-0.031
			l-0.741,0.36l0.834,0.518l0.034,0.01L18.41,36.368z"/>
		<path id="XMLID_1104_" class="st9" d="M13.002,37.769l0.741-0.359L12.9,36.891c-0.005-0.003-0.013-0.006-0.027-0.007h-0.031
			l-0.742,0.36l0.844,0.519l0.034,0.01L13.002,37.769z"/>
		<path id="XMLID_1103_" class="st9" d="M17.446,36.836l0.737-0.359l-0.834-0.518c-0.005-0.003-0.013-0.006-0.027-0.007h-0.03
			l-0.74,0.36l0.837,0.518l0.033,0.01L17.446,36.836z"/>
		<path id="XMLID_1102_" class="st9" d="M14.554,38.245l0.738-0.359l-0.841-0.518c-0.006-0.003-0.013-0.006-0.027-0.007h-0.031
			l-0.74,0.359l0.842,0.517l0.034,0.01L14.554,38.245z"/>
		<path id="XMLID_1101_" class="st9" d="M13.586,38.714l0.739-0.359l-0.843-0.517c-0.005-0.003-0.013-0.006-0.027-0.007h-0.031
			l-0.741,0.359l0.844,0.517l0.034,0.01L13.586,38.714z"/>
		<path id="XMLID_1100_" class="st9" d="M12.033,38.24l0.742-0.36l-0.844-0.519c-0.006-0.003-0.013-0.006-0.028-0.007h-0.031
			l-0.744,0.36l0.846,0.519l0.034,0.01L12.033,38.24z"/>
		<path id="XMLID_1099_" class="st9" d="M11.06,38.71l0.744-0.36l-0.846-0.519c-0.005-0.003-0.013-0.006-0.028-0.007H10.9
			l-0.746,0.361l0.847,0.519l0.034,0.01L11.06,38.71z"/>
		<path id="XMLID_1098_" class="st9" d="M12.616,39.185l0.742-0.36l-0.844-0.517c-0.006-0.003-0.014-0.006-0.028-0.007h-0.031
			l-0.743,0.36l0.845,0.517l0.034,0.01L12.616,39.185z"/>
		<path id="XMLID_1097_" class="st9" d="M14.113,34.769l0.745-0.361l-0.844-0.529c-0.006-0.004-0.013-0.007-0.028-0.008h-0.03
			l-0.746,0.362l0.846,0.528l0.035,0.01L14.113,34.769z"/>
		<path id="XMLID_1096_" class="st9" d="M10.802,41.29c0.674-0.325,1.348-0.652,2.022-0.979l0.235-0.114l-0.847-0.516
			c-0.005-0.003-0.013-0.006-0.027-0.007h-0.031c-0.752,0.364-1.504,0.729-2.257,1.092l0.845,0.517l0.033,0.01L10.802,41.29z"/>
		<path id="XMLID_1095_" class="st9" d="M7.44,39.23l0.751-0.363l-0.848-0.521c-0.005-0.003-0.013-0.006-0.027-0.007H7.284
			l-0.75,0.362l0.848,0.522l0.034,0.01L7.44,39.23z"/>
		<path id="XMLID_1094_" class="st9" d="M6.319,38.537l0.75-0.362L6.217,37.65c-0.006-0.003-0.013-0.006-0.028-0.007H6.158
			l-0.749,0.362l0.85,0.526l0.035,0.01L6.319,38.537z"/>
		<path id="XMLID_1093_" class="st9" d="M9.681,40.606l0.532-0.257c0.397-0.191,0.793-0.382,1.187-0.574l-0.847-0.517
			c-0.005-0.003-0.012-0.006-0.026-0.007c-0.009-0.001-0.019-0.001-0.033,0L8.776,40.08l0.845,0.518l0.034,0.01L9.681,40.606z"/>
		<polygon id="XMLID_1092_" class="st9" points="8.561,39.919 9.847,39.297 9.001,38.778 8.967,38.769 8.929,38.778 7.656,39.392 
			8.501,39.912 8.536,39.921 		"/>
		<path id="XMLID_1091_" class="st9" d="M7.297,38.066l0.748-0.361L7.193,37.18c-0.005-0.003-0.013-0.006-0.028-0.007H7.134
			l-0.748,0.361l0.852,0.525l0.035,0.01L7.297,38.066z"/>
		<path id="XMLID_1090_" class="st9" d="M8.276,37.593l0.747-0.361L8.17,36.707c-0.006-0.003-0.013-0.006-0.028-0.007H8.111
			l-0.747,0.362l0.852,0.525l0.035,0.01L8.276,37.593z"/>
		<path id="XMLID_1089_" class="st9" d="M11.199,36.181l0.744-0.361l-0.849-0.526c-0.006-0.004-0.014-0.007-0.029-0.008h-0.03
			l-0.746,0.361l0.85,0.526l0.035,0.01L11.199,36.181z"/>
		<path id="XMLID_1088_" class="st9" d="M10.225,36.652l0.745-0.361l-0.85-0.526c-0.006-0.004-0.014-0.007-0.029-0.008H10.06
			l-0.746,0.361l0.852,0.526l0.034,0.01L10.225,36.652z"/>
		<path id="XMLID_1087_" class="st9" d="M9.25,37.122l0.746-0.36l-0.852-0.526c-0.006-0.003-0.013-0.006-0.028-0.007H9.085
			L8.339,36.59l0.852,0.525l0.035,0.01L9.25,37.122z"/>
		<path id="XMLID_1086_" class="st9" d="M13.909,41.016c2.174-1.055,4.343-2.116,6.51-3.176l2.861-1.399l-0.83-0.52
			c-0.005-0.003-0.012-0.006-0.026-0.007h-0.031l-0.991,0.484c-2.797,1.367-5.595,2.735-8.402,4.094l0.849,0.516l0.034,0.01
			L13.909,41.016z"/>
		<polygon id="XMLID_1085_" class="st9" points="27.447,34.404 28.219,34.026 27.387,33.512 27.355,33.503 27.328,33.506 
			26.558,33.882 27.389,34.398 27.42,34.407 		"/>
		<path id="XMLID_1084_" class="st9" d="M26.452,34.891l0.764-0.374l-0.83-0.516l-0.024-0.006c-0.009-0.001-0.02-0.001-0.035,0
			l-0.763,0.372l0.829,0.518l0.032,0.009L26.452,34.891z"/>
		<path id="XMLID_1083_" class="st9" d="M25.464,35.374l0.756-0.37c-0.253-0.159-0.829-0.518-0.829-0.518l-0.024-0.006
			c-0.008-0.001-0.019-0.001-0.033,0l-0.756,0.369l0.829,0.518l0.032,0.01L25.464,35.374z"/>
		<path id="XMLID_1082_" class="st9" d="M11.925,41.975l0.756-0.366l-0.849-0.516c-0.005-0.003-0.013-0.006-0.027-0.007
			c-0.008-0.001-0.019-0.001-0.033,0l-0.755,0.365l0.847,0.517l0.035,0.01L11.925,41.975z"/>
		<path id="XMLID_1081_" class="st9" d="M24.482,35.851l0.75-0.367l-0.829-0.519l-0.025-0.007c-0.008-0.001-0.018-0.001-0.032,0
			l-0.75,0.367l0.828,0.519l0.034,0.01L24.482,35.851z"/>
		<path id="XMLID_1080_" class="st9" d="M12.91,41.498l0.75-0.363l-0.85-0.516c-0.006-0.003-0.013-0.006-0.027-0.007h-0.032
			l-0.749,0.363l0.85,0.516l0.034,0.01L12.91,41.498z"/>
		<path id="XMLID_1079_" class="st9" d="M12.169,35.71l0.745-0.36l-0.847-0.527c-0.006-0.004-0.014-0.007-0.029-0.008h-0.03
			l-0.746,0.361l0.849,0.527l0.035,0.01L12.169,35.71z"/>
		<path id="XMLID_1078_" class="st9" d="M23.51,36.327l0.745-0.365l-0.829-0.519l-0.025-0.007c-0.008-0.001-0.018-0.001-0.032,0
			L22.624,35.8l0.831,0.52l0.032,0.01L23.51,36.327z"/>
		<path id="XMLID_1077_" class="st9" d="M22.984,35.359c0.35-0.17,1.755-0.858,2.109-1.03l-0.827-0.516l-0.025-0.007
			c-0.008-0.001-0.019-0.001-0.033,0l-2.109,1.028l0.828,0.518l0.033,0.009L22.984,35.359z"/>
		<path id="XMLID_1076_" class="st9" d="M21.01,36.324l0.741-0.362l-0.83-0.519c-0.005-0.003-0.012-0.006-0.026-0.007h-0.031
			l-0.742,0.362l0.831,0.518l0.033,0.01L21.01,36.324z"/>
		<path id="XMLID_1075_" class="st9" d="M16.202,38.67l0.735-0.358l-0.84-0.517c-0.005-0.003-0.013-0.006-0.027-0.007h-0.031
			l-0.737,0.358l0.842,0.516l0.034,0.01L16.202,38.67z"/>
		<polygon id="XMLID_1074_" class="st9" points="21.977,35.851 22.721,35.487 21.893,34.969 21.868,34.963 21.836,34.963 
			21.091,35.326 21.92,35.844 21.953,35.854 		"/>
		<polygon id="XMLID_1073_" class="st9" points="25.245,33.036 26.012,32.664 25.18,32.151 25.148,32.142 25.121,32.145 
			24.357,32.516 25.186,33.031 25.218,33.04 		"/>
		<path id="XMLID_1072_" class="st9" d="M24.145,32.356l0.763-0.371l-0.834-0.514l-0.025-0.007c-0.008-0.001-0.019-0.001-0.034,0
			l-0.761,0.369l0.832,0.516l0.033,0.009L24.145,32.356z"/>
		<path id="XMLID_1071_" class="st9" d="M25.353,34.204l0.762-0.372l-0.828-0.514l-0.024-0.006c-0.008-0.001-0.019-0.001-0.034,0
			l-0.761,0.371l0.827,0.516l0.032,0.009L25.353,34.204z"/>
		<path id="XMLID_1070_" class="st9" d="M17.165,38.2l0.734-0.358l-0.838-0.517c-0.005-0.003-0.013-0.006-0.027-0.007h-0.03
			l-0.737,0.359l0.839,0.517l0.034,0.01L17.165,38.2z"/>
		<path id="XMLID_1069_" class="st9" d="M13.14,35.24l0.745-0.361l-0.846-0.528c-0.005-0.004-0.013-0.007-0.028-0.008h-0.03
			l-0.745,0.361l0.847,0.528l0.035,0.01L13.14,35.24z"/>
		<path id="XMLID_1068_" class="st9" d="M20.047,36.794l0.738-0.36l-0.832-0.518c-0.005-0.003-0.012-0.006-0.026-0.007h-0.03
			l-0.74,0.36l0.833,0.518l0.033,0.01L20.047,36.794z"/>
		<path id="XMLID_1067_" class="st9" d="M19.086,37.265l0.736-0.36l-0.834-0.518c-0.006-0.003-0.012-0.006-0.026-0.007h-0.031
			l-0.738,0.36l0.835,0.517l0.033,0.01L19.086,37.265z"/>
		<path id="XMLID_1066_" class="st9" d="M18.124,37.732l0.735-0.358l-0.836-0.518c-0.006-0.003-0.013-0.006-0.027-0.007h-0.03
			l-0.737,0.359l0.838,0.517l0.033,0.01L18.124,37.732z"/>
		<path id="XMLID_1065_" class="st9" d="M16.057,33.826l0.747-0.362l-0.842-0.529c-0.005-0.004-0.013-0.007-0.028-0.008h-0.029
			l-0.747,0.362l0.844,0.529l0.034,0.01L16.057,33.826z"/>
		<path id="XMLID_1064_" class="st9" d="M17.031,33.353l0.748-0.362l-0.841-0.529c-0.005-0.004-0.013-0.007-0.028-0.008h-0.029
			l-0.748,0.362l0.842,0.53l0.034,0.01L17.031,33.353z"/>
		<path id="XMLID_1063_" class="st9" d="M15.087,34.297l0.745-0.361l-0.843-0.529c-0.005-0.004-0.013-0.007-0.028-0.008h-0.03
			l-0.747,0.362l0.845,0.529l0.034,0.01L15.087,34.297z"/>
		<path id="XMLID_1062_" class="st9" d="M18.009,32.881l0.749-0.363l-0.841-0.529c-0.006-0.003-0.013-0.006-0.028-0.007h-0.031
			l-0.749,0.363l0.842,0.529l0.034,0.01L18.009,32.881z"/>
		<path id="XMLID_1061_" class="st9" d="M19.964,31.933l0.753-0.365l-0.842-0.527c-0.006-0.004-0.013-0.007-0.028-0.008h-0.031
			l-0.751,0.364c0.277,0.175,0.842,0.529,0.842,0.529l0.034,0.01L19.964,31.933z"/>
		<path id="XMLID_1060_" class="st9" d="M18.987,32.408l0.751-0.364c-0.33-0.207-0.503-0.316-0.841-0.529
			c-0.006-0.004-0.013-0.007-0.028-0.008h-0.03l-0.751,0.363l0.841,0.53l0.033,0.01L18.987,32.408z"/>
		<path id="XMLID_1059_" class="st9" d="M20.946,31.458l0.755-0.366l-0.844-0.527c-0.006-0.004-0.013-0.007-0.028-0.008h-0.031
			l-0.753,0.365l0.843,0.528l0.034,0.01L20.946,31.458z"/>
		<path id="XMLID_1058_" class="st9" d="M21.931,30.981l0.757-0.367c-0.332-0.205-0.506-0.313-0.847-0.525
			c-0.005-0.003-0.013-0.006-0.027-0.007h-0.031l-0.755,0.365l0.845,0.526l0.034,0.01L21.931,30.981z"/>
		<path id="XMLID_1057_" class="st9" d="M23.042,31.67l0.76-0.369l-0.839-0.518c-0.006-0.003-0.013-0.006-0.027-0.007
			c-0.008-0.001-0.019-0.001-0.033,0l-0.758,0.367l0.838,0.521l0.033,0.009L23.042,31.67z"/>
		<path id="XMLID_1056_" class="st9" d="M4.211,37.163c0.233,0.146,0.235,0.354,0.004,0.463c-0.232,0.111-0.608,0.082-0.842-0.063
			S3.138,37.211,3.369,37.1C3.6,36.99,3.977,37.017,4.211,37.163"/>
		<path id="XMLID_1052_" class="st10" d="M20.619,12.828c-0.003-0.256-0.15-0.41-0.367-0.425c-0.109-0.008-0.234,0.018-0.367,0.083
			c0.134-0.065,0.259-0.091,0.367-0.083C20.469,12.419,20.616,12.572,20.619,12.828 M19.885,12.484L5.32,19.538l0,0L19.885,12.484z
			 M20.772,27.177c0-0.002,0-0.003,0-0.005C20.772,27.174,20.772,27.175,20.772,27.177L20.772,27.177z"/>
	</g>
	<g>
		<g>
			<path class="st11" d="M37.955,31.444c-0.708-0.684-1.051-1.772-0.94-2.985c0.094-1.023,0.608-1.884,1.411-2.36
				c0.576-0.342,1.295-0.494,2.135-0.452c0.72,0.036,1.533,0.216,2.425,0.537c-0.166-0.402-0.411-0.807-0.768-1.171
				c-0.776-0.791-1.894-1.2-3.323-1.216c-1.44-0.017-2.78,0.2-3.983,0.644c-0.961,0.354-1.837,0.853-2.605,1.484
				c-1.048,0.861-1.677,1.808-1.863,2.188c-0.051,0.104-0.177,0.148-0.282,0.097c-0.104-0.051-0.148-0.177-0.097-0.282
				c0.023-0.048,0.584-1.181,1.958-2.315c0.805-0.664,1.723-1.19,2.73-1.563c1.255-0.465,2.651-0.693,4.148-0.676
				c1.545,0.017,2.763,0.469,3.619,1.342c0.451,0.461,0.785,1.024,0.988,1.665c0.109,0.044,0.219,0.09,0.33,0.138
				c1.73,0.749,2.705,1.672,2.897,2.744c0.237,1.318-0.807,2.336-0.852,2.379c-0.083,0.081-0.216,0.078-0.297-0.006
				c-0.08-0.084-0.078-0.217,0.006-0.298c0.01-0.009,0.928-0.909,0.729-2.004c-0.167-0.923-1.058-1.74-2.649-2.429
				c-0.01-0.004-0.021-0.009-0.031-0.013c0.047,0.238,0.078,0.484,0.093,0.738c0.06,1.045-0.183,2.139-0.666,3.001
				c-0.518,0.925-1.249,1.491-2.057,1.593c-0.471,0.059-0.905,0.063-1.301,0.013C39.001,32.147,38.414,31.88,37.955,31.444z
				 M38.644,26.457c-0.685,0.407-1.125,1.149-1.206,2.036c-0.047,0.514-0.062,1.799,0.813,2.644
				c0.614,0.593,1.525,0.818,2.708,0.669c0.673-0.085,1.291-0.575,1.743-1.381c0.445-0.795,0.668-1.804,0.613-2.771
				c-0.017-0.283-0.059-0.613-0.152-0.959C41.214,25.938,39.659,25.854,38.644,26.457z"/>
		</g>
		<g>
			<path class="st12" d="M43.024,31.952L43.024,31.952l0.002,0.487h0.001c0.004,0.14,0.072,0.277,0.202,0.365l1.094,0.623
				c0.083,0.047,0.198,0.058,0.226,0.06l-0.002-0.477c-0.068-0.001-0.136-0.016-0.199-0.046c-0.009-0.004-0.018-0.009-0.027-0.014
				l-1.059-0.601C43.105,32.261,43.026,32.107,43.024,31.952z"/>
			<path class="st13" d="M44.549,33.487C44.55,33.487,44.55,33.487,44.549,33.487L44.549,33.487
				C44.559,33.488,44.558,33.488,44.549,33.487z"/>
			<path class="st14" d="M45.297,30.797L45.297,30.797l-0.177-0.1c-0.109-0.061-0.243-0.06-0.351,0.002l-1.51,0.85
				c-0.156,0.091-0.234,0.247-0.232,0.403c0.001,0.155,0.08,0.309,0.237,0.397l1.059,0.601c0.009,0.005,0.018,0.01,0.027,0.014
				c0.063,0.03,0.131,0.045,0.199,0.046l0,0c0.073,0.001,0.146-0.014,0.213-0.046c0.002-0.001,0.003-0.001,0.004-0.002
				c0.009-0.005,0.018-0.01,0.027-0.015c0-0.001,0.001-0.001,0.001-0.001l1.629-0.919c0.008-0.005,0.015-0.01,0.022-0.015
				c0.006-0.004,0.012-0.008,0.018-0.012c0.006-0.004,0.011-0.009,0.016-0.014c0.006-0.006,0.013-0.011,0.019-0.017
				c0.004-0.004,0.007-0.008,0.01-0.012c0.007-0.007,0.014-0.015,0.02-0.023c0.002-0.003,0.003-0.005,0.005-0.008
				c0.007-0.01,0.013-0.02,0.019-0.03c0.001-0.001,0.001-0.002,0.002-0.003c0.028-0.051,0.042-0.107,0.041-0.164
				c-0.001-0.003-0.001-0.005-0.001-0.008c0-0.011-0.001-0.021-0.002-0.031c-0.011-0.087-0.058-0.169-0.136-0.228
				c-0.012-0.01-0.023-0.021-0.038-0.029L45.297,30.797z"/>
			<path class="st15" d="M44.547,33.01l0.003,0.478l0,0c0.001,0,0.001,0,0.001,0c0.003,0,0.005,0,0.006,0
				c0.083,0,0.165-0.021,0.239-0.064l1.629-0.919c0.116-0.067,0.173-0.183,0.172-0.299l-0.002-0.477l0,0l0,0l0,0l0,0l0,0l0,0l0,0
				l0,0c0,0.056-0.013,0.113-0.041,0.164c-0.001,0.001-0.001,0.002-0.002,0.003c-0.005,0.01-0.012,0.02-0.019,0.03
				c-0.002,0.003-0.003,0.006-0.005,0.008c-0.006,0.008-0.013,0.015-0.02,0.023c-0.003,0.004-0.006,0.008-0.01,0.012
				c-0.006,0.006-0.013,0.011-0.019,0.017c-0.005,0.004-0.01,0.01-0.016,0.014c-0.006,0.004-0.012,0.008-0.02,0.012
				c-0.007,0.005-0.014,0.01-0.022,0.015l-1.629,0.919c0,0.001-0.001,0.001-0.001,0.001c-0.009,0.006-0.018,0.01-0.027,0.015
				c-0.002,0.001-0.003,0.001-0.004,0.002C44.693,32.996,44.62,33.011,44.547,33.01L44.547,33.01z"/>
			<g>
				<path class="st16" d="M43.728,33.781l0.625-0.36l-0.002-0.386l-0.762,0.438c0.078,0.058,0.125,0.141,0.136,0.228
					c0.001,0.01,0.002,0.021,0.002,0.031c0,0.003,0.001,0.006,0.001,0.008l0,0l0,0l0,0l0,0l0,0l0,0l0,0l0,0l0,0l0,0V33.781z"/>
				<path class="st17" d="M44.351,33.033L44.351,33.033l-1.177-0.655l-0.747,0.43l0,0l1.124,0.636
					c0.014,0.008,0.025,0.019,0.038,0.029L44.351,33.033z"/>
			</g>
		</g>
		<g>
			<polygon class="st18" points="30.477,26.308 48.51,36.06 38.658,41.29 20.625,31.538 			"/>
			<polygon class="st19" points="48.456,36.668 48.51,36.06 38.658,41.29 38.604,41.898 			"/>
			<g>
				
					<ellipse transform="matrix(0.9999 -0.0125 0.0125 0.9999 -0.3965 0.4208)" class="st11" cx="33.467" cy="31.931" rx="2.414" ry="1.293"/>
				
					<ellipse transform="matrix(0.9999 -0.0125 0.0125 0.9999 -0.3703 0.3716)" class="st11" cx="29.539" cy="29.807" rx="2.414" ry="1.293"/>
				<polygon class="st11" points="22.889,30.336 20.625,31.538 38.658,41.29 40.922,40.088 				"/>
				<polygon class="st20" points="20.571,32.146 20.625,31.538 38.658,41.29 38.604,41.898 				"/>
				<path class="st11" d="M39.545,36.247l2.163,1.17l1.963-1.042l-2.163-1.17l2.22-1.179l-1.913-1.035l-2.22,1.179L37.432,33
					l-1.963,1.042l2.163,1.17l-2.22,1.179l1.913,1.035L39.545,36.247z M40.059,35.473c-0.277,0.147-0.721,0.148-0.991,0.002
					s-0.264-0.384,0.013-0.531s0.721-0.148,0.991-0.002S40.336,35.326,40.059,35.473z"/>
			</g>
			<path class="st11" d="M30.476,26.629l17.435,9.428l-9.251,4.912l-17.435-9.428L30.476,26.629 M30.477,26.308l-9.852,5.231
				l18.033,9.752l9.852-5.231L30.477,26.308L30.477,26.308z"/>
			<g>
				
					<ellipse transform="matrix(0.9999 -0.0125 0.0125 0.9999 -0.3965 0.4208)" class="st21" cx="33.467" cy="31.931" rx="1.707" ry="0.914"/>
				
					<ellipse transform="matrix(0.9999 -0.0125 0.0125 0.9999 -0.3703 0.3716)" class="st21" cx="29.539" cy="29.807" rx="1.707" ry="0.914"/>
				<polygon class="st21" points="23.661,31.121 21.74,32.141 37.231,40.518 39.152,39.498 				"/>
				<polygon class="st22" points="21.711,32.75 21.74,32.141 37.231,40.518 37.201,41.127 				"/>
			</g>
			<g>
				<g>
					
						<ellipse transform="matrix(0.9999 -0.0125 0.0125 0.9999 -0.4209 0.528)" class="st23" cx="42.026" cy="33.933" rx="0.436" ry="0.234"/>
					
						<ellipse transform="matrix(0.9999 -0.0125 0.0125 0.9999 -0.4264 0.5177)" class="st23" cx="41.201" cy="34.371" rx="0.436" ry="0.234"/>
					
						<ellipse transform="matrix(0.9999 -0.0125 0.0125 0.9999 -0.4479 0.478)" class="st23" cx="38.011" cy="36.065" rx="0.436" ry="0.234"/>
					
						<ellipse transform="matrix(0.9999 -0.0125 0.0125 0.9999 -0.4534 0.4677)" class="st23" cx="37.186" cy="36.503" rx="0.436" ry="0.234"/>
					
						<ellipse transform="matrix(0.9999 -0.0125 0.0125 0.9999 -0.4223 0.4699)" class="st23" cx="37.378" cy="34.013" rx="0.436" ry="0.234"/>
					
						<ellipse transform="matrix(0.9999 -0.0125 0.0125 0.9999 -0.4276 0.48)" class="st23" cx="38.182" cy="34.448" rx="0.436" ry="0.234"/>
					
						<ellipse transform="matrix(0.9999 -0.0125 0.0125 0.9999 -0.4465 0.5154)" class="st23" cx="41.008" cy="35.976" rx="0.436" ry="0.234"/>
					
						<ellipse transform="matrix(0.9999 -0.0125 0.0125 0.9999 -0.4519 0.5255)" class="st23" cx="41.813" cy="36.412" rx="0.436" ry="0.234"/>
					
						<ellipse transform="matrix(0.9999 -0.0125 0.0125 0.9999 -0.3938 0.4267)" class="st23" cx="33.937" cy="31.71" rx="0.436" ry="0.234"/>
					
						<ellipse transform="matrix(0.9999 -0.0125 0.0125 0.9999 -0.3993 0.4164)" class="st23" cx="33.112" cy="32.148" rx="0.436" ry="0.234"/>
					
						<ellipse transform="matrix(0.9999 -0.0125 0.0125 0.9999 -0.367 0.3765)" class="st23" cx="29.937" cy="29.547" rx="0.436" ry="0.234"/>
					
						<ellipse transform="matrix(0.9999 -0.0125 0.0125 0.9999 -0.3725 0.3662)" class="st23" cx="29.111" cy="29.985" rx="0.436" ry="0.234"/>
					
						<ellipse transform="matrix(0.9999 -0.0125 0.0125 0.9999 -0.487 0.4629)" class="st23" cx="36.788" cy="39.189" rx="0.436" ry="0.234"/>
					
						<ellipse transform="matrix(0.9999 -0.0125 0.0125 0.9999 -0.4924 0.473)" class="st23" cx="37.592" cy="39.624" rx="0.436" ry="0.234"/>
					
						<ellipse transform="matrix(0.9999 -0.0125 0.0125 0.9999 -0.4707 0.4322)" class="st23" cx="34.343" cy="37.866" rx="0.436" ry="0.234"/>
					
						<ellipse transform="matrix(0.9999 -0.0125 0.0125 0.9999 -0.476 0.4423)" class="st23" cx="35.147" cy="38.302" rx="0.436" ry="0.234"/>
					
						<ellipse transform="matrix(0.9999 -0.0125 0.0125 0.9999 -0.4188 0.3348)" class="st23" cx="26.575" cy="33.667" rx="0.436" ry="0.234"/>
					
						<ellipse transform="matrix(0.9999 -0.0125 0.0125 0.9999 -0.4241 0.3449)" class="st23" cx="27.38" cy="34.102" rx="0.436" ry="0.234"/>
					
						<ellipse transform="matrix(0.9999 -0.0125 0.0125 0.9999 -0.3981 0.296)" class="st23" cx="23.476" cy="31.991" rx="0.436" ry="0.234"/>
					
						<ellipse transform="matrix(0.9999 -0.0125 0.0125 0.9999 -0.4034 0.306)" class="st23" cx="24.28" cy="32.426" rx="0.436" ry="0.234"/>
					
						<ellipse transform="matrix(0.9999 -0.0125 0.0125 0.9999 -0.4531 0.3993)" class="st23" cx="31.712" cy="36.444" rx="0.436" ry="0.234"/>
					
						<ellipse transform="matrix(0.9999 -0.0125 0.0125 0.9999 -0.4585 0.4094)" class="st23" cx="32.517" cy="36.879" rx="0.436" ry="0.234"/>
					<path class="st23" d="M28.699,34.817c-0.173,0.091-0.176,0.239-0.008,0.33c0.168,0.091,0.444,0.091,0.617-0.001
						c0.173-0.091,0.176-0.239,0.008-0.33C29.148,34.725,28.872,34.725,28.699,34.817z"/>
					
						<ellipse transform="matrix(0.9999 -0.0125 0.0125 0.9999 -0.4404 0.3754)" class="st23" cx="29.81" cy="35.415" rx="0.436" ry="0.234"/>
				</g>
				<g>
					<path d="M42.447,33.989c0.037-0.077,0.001-0.161-0.109-0.221c-0.168-0.091-0.444-0.091-0.617,0.001
						c-0.11,0.059-0.151,0.141-0.122,0.216c0.019-0.041,0.058-0.079,0.117-0.11c0.173-0.091,0.449-0.092,0.617-0.001
						C42.393,33.907,42.431,33.947,42.447,33.989z"/>
					<path d="M41.513,34.206c-0.168-0.091-0.444-0.091-0.617,0.001c-0.11,0.059-0.151,0.141-0.122,0.216
						c0.019-0.041,0.058-0.079,0.117-0.11c0.173-0.091,0.449-0.092,0.617-0.001c0.06,0.033,0.098,0.073,0.114,0.115
						C41.659,34.35,41.623,34.266,41.513,34.206z"/>
					<path d="M38.431,36.121c0.037-0.077,0.001-0.161-0.109-0.221c-0.168-0.091-0.444-0.091-0.617,0.001
						c-0.11,0.059-0.151,0.141-0.122,0.216c0.019-0.041,0.058-0.079,0.117-0.11c0.173-0.091,0.449-0.092,0.617-0.001
						C38.377,36.039,38.415,36.079,38.431,36.121z"/>
					<path d="M36.88,36.34c-0.11,0.059-0.151,0.141-0.122,0.216c0.019-0.041,0.058-0.079,0.117-0.11
						c0.173-0.091,0.449-0.092,0.617-0.001c0.06,0.033,0.098,0.073,0.114,0.115c0.037-0.077,0.001-0.161-0.109-0.221
						C37.329,36.248,37.052,36.248,36.88,36.34z"/>
					<path d="M37.798,34.069c0.037-0.077,0.001-0.161-0.109-0.221c-0.168-0.091-0.445-0.091-0.617,0.001
						c-0.11,0.059-0.151,0.141-0.122,0.216c0.019-0.041,0.058-0.079,0.117-0.11c0.173-0.091,0.449-0.092,0.617-0.001
						C37.744,33.987,37.782,34.027,37.798,34.069z"/>
					<path d="M38.602,34.504c0.037-0.077,0.001-0.161-0.109-0.221c-0.168-0.091-0.444-0.091-0.617,0.001
						c-0.11,0.059-0.151,0.141-0.122,0.216c0.019-0.041,0.058-0.079,0.117-0.11c0.173-0.091,0.449-0.092,0.617-0.001
						C38.549,34.422,38.587,34.462,38.602,34.504z"/>
					<path d="M40.581,36.029c0.019-0.041,0.058-0.079,0.117-0.11c0.173-0.091,0.449-0.092,0.617-0.001
						c0.06,0.033,0.098,0.073,0.114,0.115c0.037-0.077,0.001-0.161-0.109-0.221c-0.168-0.091-0.444-0.091-0.617,0.001
						C40.592,35.872,40.551,35.953,40.581,36.029z"/>
					<path d="M41.385,36.464c0.019-0.041,0.058-0.079,0.117-0.11c0.173-0.091,0.449-0.092,0.617-0.001
						c0.06,0.033,0.098,0.073,0.114,0.115c0.037-0.077,0.001-0.161-0.109-0.221c-0.168-0.091-0.444-0.091-0.617,0.001
						C41.397,36.307,41.356,36.388,41.385,36.464z"/>
					<path d="M34.357,31.766c0.037-0.077,0.001-0.161-0.109-0.221c-0.168-0.091-0.444-0.091-0.617,0.001
						c-0.11,0.059-0.151,0.141-0.122,0.216c0.019-0.041,0.058-0.079,0.117-0.11c0.173-0.091,0.449-0.092,0.617-0.001
						C34.303,31.684,34.341,31.724,34.357,31.766z"/>
					<path d="M33.532,32.205c0.037-0.077,0.001-0.161-0.109-0.221c-0.168-0.091-0.444-0.091-0.617,0.001
						c-0.11,0.059-0.151,0.141-0.122,0.216c0.019-0.041,0.058-0.079,0.117-0.11c0.173-0.091,0.449-0.092,0.617-0.001
						C33.478,32.122,33.516,32.162,33.532,32.205z"/>
					<path d="M30.357,29.603c0.037-0.077,0.001-0.161-0.109-0.221c-0.168-0.091-0.444-0.091-0.617,0.001
						c-0.11,0.059-0.151,0.141-0.122,0.216c0.019-0.041,0.058-0.079,0.117-0.11c0.173-0.091,0.449-0.092,0.617-0.001
						C30.303,29.521,30.341,29.561,30.357,29.603z"/>
					<path d="M28.684,30.038c0.019-0.041,0.058-0.079,0.117-0.11c0.173-0.091,0.449-0.092,0.617-0.001
						c0.06,0.033,0.098,0.073,0.114,0.115c0.037-0.077,0.001-0.161-0.109-0.221c-0.168-0.091-0.444-0.091-0.617,0.001
						C28.695,29.88,28.654,29.962,28.684,30.038z"/>
					<path d="M36.361,39.242c0.019-0.041,0.058-0.079,0.117-0.11c0.173-0.091,0.449-0.092,0.617-0.001
						c0.06,0.033,0.098,0.073,0.114,0.115c0.037-0.077,0.001-0.161-0.109-0.221c-0.168-0.091-0.444-0.091-0.617,0.001
						C36.372,39.085,36.331,39.167,36.361,39.242z"/>
					<path d="M37.165,39.677c0.019-0.041,0.058-0.079,0.117-0.11c0.173-0.091,0.449-0.092,0.617-0.001
						c0.06,0.033,0.098,0.073,0.114,0.115c0.037-0.077,0.001-0.161-0.109-0.221c-0.168-0.091-0.444-0.091-0.617,0.001
						C37.177,39.52,37.136,39.602,37.165,39.677z"/>
					<path d="M33.915,37.919c0.019-0.041,0.058-0.079,0.117-0.11c0.173-0.091,0.449-0.092,0.617-0.001
						c0.06,0.033,0.098,0.073,0.114,0.115c0.037-0.077,0.001-0.161-0.109-0.221c-0.168-0.091-0.444-0.091-0.617,0.001
						C33.927,37.762,33.886,37.844,33.915,37.919z"/>
					<path d="M34.719,38.354c0.019-0.041,0.058-0.079,0.117-0.11c0.173-0.091,0.449-0.092,0.617-0.001
						c0.06,0.033,0.098,0.073,0.114,0.115c0.037-0.077,0.001-0.161-0.109-0.221c-0.168-0.091-0.445-0.091-0.617,0.001
						C34.731,38.197,34.69,38.279,34.719,38.354z"/>
					<path d="M26.148,33.719c0.019-0.041,0.058-0.079,0.117-0.11c0.173-0.091,0.449-0.092,0.617-0.001
						c0.06,0.033,0.098,0.073,0.114,0.115c0.037-0.077,0.001-0.161-0.109-0.221c-0.168-0.091-0.444-0.091-0.617,0.001
						C26.159,33.562,26.119,33.644,26.148,33.719z"/>
					<path d="M26.952,34.154c0.019-0.041,0.058-0.079,0.117-0.11c0.173-0.091,0.449-0.092,0.617-0.001
						c0.06,0.033,0.098,0.073,0.114,0.115c0.037-0.077,0.001-0.161-0.109-0.221c-0.168-0.091-0.445-0.091-0.617,0.001
						C26.964,33.997,26.923,34.079,26.952,34.154z"/>
					<path d="M23.896,32.047c0.037-0.077,0.001-0.161-0.109-0.221c-0.168-0.091-0.444-0.091-0.617,0.001
						c-0.11,0.059-0.151,0.141-0.122,0.216c0.019-0.041,0.058-0.079,0.117-0.11c0.173-0.091,0.449-0.092,0.617-0.001
						C23.842,31.964,23.88,32.005,23.896,32.047z"/>
					<path d="M23.853,32.478c0.019-0.041,0.058-0.079,0.117-0.11c0.173-0.091,0.449-0.092,0.617-0.001
						c0.06,0.033,0.098,0.073,0.114,0.115c0.037-0.077,0.001-0.161-0.109-0.221c-0.168-0.091-0.444-0.091-0.617,0.001
						C23.864,32.321,23.823,32.403,23.853,32.478z"/>
					<path d="M31.284,36.497c0.019-0.041,0.058-0.079,0.117-0.11c0.173-0.091,0.449-0.092,0.617-0.001
						c0.06,0.033,0.098,0.073,0.114,0.115c0.037-0.077,0.001-0.161-0.109-0.221c-0.168-0.091-0.444-0.091-0.617,0.001
						C31.296,36.34,31.255,36.421,31.284,36.497z"/>
					<path d="M32.089,36.932c0.019-0.041,0.058-0.079,0.117-0.11c0.173-0.091,0.449-0.092,0.617-0.001
						c0.06,0.033,0.098,0.073,0.114,0.115c0.037-0.077,0.001-0.161-0.109-0.221c-0.168-0.091-0.444-0.091-0.617,0.001
						C32.1,36.775,32.059,36.856,32.089,36.932z"/>
					<path d="M28.577,35.033c0.019-0.041,0.058-0.079,0.117-0.11c0.173-0.091,0.449-0.092,0.617-0.001
						c0.06,0.033,0.098,0.073,0.114,0.115c0.037-0.077,0.001-0.161-0.109-0.221c-0.168-0.091-0.444-0.091-0.617,0.001
						C28.589,34.876,28.548,34.957,28.577,35.033z"/>
					<path d="M29.382,35.468c0.019-0.041,0.058-0.079,0.117-0.11c0.173-0.091,0.449-0.092,0.617-0.001
						c0.06,0.033,0.098,0.073,0.114,0.115c0.037-0.077,0.001-0.161-0.109-0.221c-0.168-0.091-0.444-0.091-0.617,0.001
						C29.393,35.311,29.352,35.392,29.382,35.468z"/>
				</g>
			</g>
		</g>
	</g>
</g>
</svg>
