<?xml version="1.0" encoding="utf-8"?>
<!-- Generator: Adobe Illustrator 26.0.1, SVG Export Plug-In . SVG Version: 6.00 Build 0)  -->
<svg version="1.1" id="Layer_1" xmlns="http://www.w3.org/2000/svg" xmlns:xlink="http://www.w3.org/1999/xlink" x="0px" y="0px"
	 viewBox="0 0 50 50" style="enable-background:new 0 0 50 50;" xml:space="preserve">
<style type="text/css">
	.st0{display:none;}
	.st1{display:inline;}
	.st2{fill:#344593;}
	.st3{fill:#3E54A3;}
	.st4{fill:#2E4490;}
	.st5{fill:#122571;}
	.st6{opacity:0.5;fill:#031F60;enable-background:new    ;}
	.st7{fill:#BBDFFF;}
	.st8{fill:#FDB724;}
	.st9{fill:#E7478D;}
	.st10{fill:#BF2878;}
	.st11{fill:#27DEBF;}
	.st12{fill:#1BBC9D;}
	.st13{fill:#A33D64;}
	.st14{fill:#82294D;}
	.st15{fill:#0A4A80;}
	.st16{fill:#F1FCFF;}
	.st17{fill:#D6E6FF;}
	.st18{fill:#CEF3FF;}
	.st19{fill:#606060;}
	.st20{enable-background:new    ;}
	.st21{fill:#F19729;}
	.st22{fill:#FCB040;}
	.st23{fill:#FFCB49;}
	.st24{fill:#2E5677;}
	.st25{fill:#FF51CE;}
	.st26{fill:#EDE6A0;}
	.st27{fill:#FFF7B0;}
	.st28{fill:url(#SVGID_1_);}
	.st29{fill:url(#SVGID_00000010275700354509603750000008855717908747895727_);}
	.st30{fill:#66635E;}
	.st31{fill:#4E4B45;}
	.st32{fill:#7F7F7F;}
	.st33{fill:#3E3A2F;}
	.st34{fill:#716A59;}
	.st35{fill:#BAB4A7;}
	.st36{fill:#696151;}
	.st37{fill:#857B69;}
	.st38{fill:#F0ECE5;}
	.st39{fill:#DAD5CB;}
	.st40{fill:#736A59;}
	.st41{fill:#34312A;}
	.st42{fill:#46494C;}
	.st43{fill:#575A60;}
	.st44{fill:#383953;}
	.st45{fill:#BAB6B1;}
	.st46{fill:#68604E;}
	.st47{fill:#7E9CC2;}
	.st48{fill:#4D4D4C;}
	.st49{fill:#69604F;}
	.st50{fill:#B5B5B4;}
	.st51{fill:#333332;}
	.st52{fill:#50504F;}
	.st53{fill:#9D9D9B;}
	.st54{fill:#C8C8C6;}
	.st55{fill:#B3B3B2;}
	.st56{fill:#6B6B6A;}
	.st57{fill:#474746;}
	.st58{fill:#A8A39A;}
	.st59{fill:#8A8274;}
	.st60{fill:#AAAAA7;}
	.st61{fill:#AFAFAC;}
	.st62{fill:#90908F;}
	.st63{fill:#5E5E5D;}
	.st64{fill:#B4B4B2;}
	.st65{fill:#6B6B6B;}
	.st66{fill:#FF4C27;}
	.st67{fill:#222325;}
	.st68{fill:#060505;}
	.st69{fill:#481018;}
	.st70{fill:#1A1A1A;}
	.st71{fill:#100F0F;}
	.st72{fill:#D5D5D4;}
	.st73{fill:#747471;}
	.st74{fill:#A8A49A;}
	.st75{fill:#BBB8B1;}
	.st76{fill:#A4978C;}
	.st77{fill:#0A0B0D;}
	.st78{fill:#010B13;}
	.st79{fill:#847E6F;}
	.st80{fill:#C4C1BA;}
	.st81{fill:#C1C1C1;}
	.st82{fill:#BDBDBD;}
	.st83{fill:#A3A3A1;}
	.st84{fill:#A9A69C;}
	.st85{fill:#B0ACA4;}
	.st86{fill:#28353D;}
	.st87{fill:#908B7E;}
	.st88{fill:#DFDEDF;}
	.st89{fill:#B6B7B4;}
	.st90{fill:#D3D3D3;}
	.st91{fill:#4C7595;}
	.st92{fill:#ADAAA1;}
	.st93{fill:#24080C;}
	.st94{fill:#4A4C52;}
	.st95{fill:#090B08;}
	.st96{fill:#2C2E33;}
	.st97{fill:#202121;}
	.st98{fill:#111511;}
	.st99{fill:#C4C1BB;}
	.st100{fill:#F7F7F7;}
	.st101{fill:#4F4F4B;}
	.st102{fill:#131313;}
	.st103{fill:#34363C;}
	.st104{fill:#383A40;}
	.st105{fill:#626369;}
	.st106{fill:#EAEAEA;}
	.st107{fill:#84868A;}
</style>
<g id="Example" class="st0">
	<g class="st1">
		<g id="XMLID_4903_">
			<path id="XMLID_4905_" class="st2" d="M-8.114,33.2v-4.6l0,0c0-0.9-0.6-1.8-1.7-2.4c-2.3-1.3-6-1.3-8.4,0
				c-1.2,0.7-1.7,1.6-1.7,2.4l0,0v4.5c0,0.9,0.6,1.8,1.7,2.4c2.3,1.3,6,1.3,8.4,0C-8.614,34.9-8.114,34.1-8.114,33.2L-8.114,33.2
				L-8.114,33.2L-8.114,33.2z"/>
			<path id="XMLID_4904_" class="st2" d="M-8.114,33.2v-4.6l0,0c0-0.9-0.6-1.8-1.7-2.4c-2.3-1.3-6-1.3-8.4,0
				c-1.2,0.7-1.7,1.6-1.7,2.4l0,0v4.5c0,0.9,0.6,1.8,1.7,2.4c2.3,1.3,6,1.3,8.4,0C-8.614,34.9-8.114,34.1-8.114,33.2L-8.114,33.2
				L-8.114,33.2L-8.114,33.2z"/>
		</g>
		<polygon id="XMLID_4900_" class="st3" points="-14.014,23 -23.714,28.6 -14.014,34.2 -4.214,28.6 		"/>
		<path id="XMLID_4899_" class="st4" d="M-9.114,31.4l-4.8-2.7c-0.1,0-0.2,0-0.2,0.1s0,0.2,0.1,0.2l4.6,2.6L-9.114,31.4z"/>
		<polygon id="XMLID_4896_" class="st5" points="-23.714,28.6 -23.714,29 -14.014,34.6 -14.014,34.2 		"/>
		<polygon id="XMLID_4883_" class="st4" points="-4.214,28.6 -4.214,29 -14.014,34.6 -14.014,34.2 		"/>
		<polygon id="XMLID_4876_" class="st6" points="-19.914,31.2 -14.014,35.2 -8.114,31.2 -14.014,34.6 		"/>
		<g id="XMLID_4823_">
			<path id="XMLID_4835_" class="st7" d="M-8.714,36.2c-0.1,0-0.2-0.1-0.2-0.2v-4c0-0.2-0.1-0.4-0.3-0.4l-4.9-2.8
				c-0.1,0-0.1-0.2-0.1-0.2c0-0.1,0.2-0.1,0.2-0.1l4.9,2.8c0.3,0.2,0.4,0.4,0.4,0.7v4C-8.614,36.1-8.714,36.2-8.714,36.2z"/>
		</g>
		<path class="st8" d="M-8.114,39.3l-0.3-2.7c0.1-0.1,0.1-0.2,0-0.2l0,0l0,0l0,0v-0.1l0,0l0,0l0,0c0-0.2-0.2-0.4-0.4-0.4
			c0,0,0,0-0.1,0l0,0l0,0c0,0,0,0-0.1,0c0,0,0,0-0.1,0c0,0,0,0-0.1,0c0,0,0,0,0,0.1l0,0v0.1c0,0.1,0,0.2,0.1,0.3l0,0
			c-0.1,0.1,0,0.2,0,0.2l-0.3,2.7c0,0.1,0.1,0.2,0.3,0.3l0,0h0.1l0,0c0.1,0,0.2,0.1,0.3,0.1l0,0l0,0l0,0l0,0l0,0
			c0.1,0,0.2,0,0.3-0.1l0,0h0.1l0,0C-8.114,39.5-8.114,39.4-8.114,39.3z"/>
	</g>
	<g id="XMLID_3738_" class="st1">
		<path id="XMLID_4404_" class="st9" d="M-41.014,36.1c1.1-0.8,1.8-2.7,1.7-4c-0.1-1.4-1.2-2-1.7-2.3l0,0c-1.1-0.6-2.8-0.6-3.9,0
			l0,0c-0.5,0.3-1.5,0.9-1.7,2.3c-0.1,1.3,0.6,3.2,1.7,4l0,0c0.1,0,0.1,0.1,0.2,0.1c1,0.6,2.6,0.6,3.6,0l0,0
			C-41.114,36.2-41.014,36.1-41.014,36.1L-41.014,36.1z"/>
		<path id="XMLID_4395_" class="st10" d="M-43.514,30.8c-0.3,0.2-0.3,0.4,0,0.6s0.8,0.2,1.1,0s0.3-0.4,0-0.6
			C-42.714,30.6-43.214,30.6-43.514,30.8z"/>
		<g id="XMLID_4426_">
			<path id="XMLID_2198_" class="st11" d="M-42.914,31.2c0,0-0.9,0-1.4-0.7s0-1.9,0-1.9s1.1,0.1,1.7,1
				C-42.214,30.4-42.914,31.2-42.914,31.2z"/>
			<path id="XMLID_4431_" class="st12" d="M-44.414,30.5c0.5,0.7,1.4,0.7,1.4,0.7c-0.1-1.6-1.4-2.6-1.4-2.6
				S-44.914,29.8-44.414,30.5z"/>
		</g>
		<path id="XMLID_4403_" class="st13" d="M-42.914,31.2c0,0,0-1.3,0.7-1.9s1.2-0.6,1.2-0.6c0.4,0,0.9,0.4,0.7,0.4c0,0-0.9,0-1.5,0.5
			s-0.9,1.5-0.9,1.6c0,0,0,0.1-0.1,0.1C-42.914,31.3-42.914,31.2-42.914,31.2z"/>
		<path id="XMLID_4496_" class="st14" d="M-41.014,28.7c-0.1,0-0.1,0.1,0.2,0.3c0.2,0.1,0.4,0.2,0.5,0.2l0,0
			C-40.114,29-40.614,28.7-41.014,28.7z"/>
	</g>
	<g class="st1">
		<g>
			<path class="st15" d="M-27.414,28.8L-27.414,28.8c-1,0.6-1.9,1-2.8,1.2l0,0c0,0,0,0-0.1,0l-0.5,0.2h-0.1c-0.1,0-0.2,0.1-0.3,0.1
				h-0.1c-0.1,0-0.2,0.1-0.2,0.1h-0.1c-0.5,0.2-0.9,0.4-1.4,0.7c-0.1,0.1-0.2,0.1-0.3,0.2l-0.1,0.1c-0.4,0.3-2,1.5-2.9,2.5l-0.6,0.6
				l-0.5,0.1c-1,0.2-2,0.5-3,1.1c-0.1,0.1-0.2,0.1-0.3,0.2c-0.3,0.2-0.5,0.3-0.8,0.5l0,0l-0.1,0.1c-0.1,0.1-0.2,0.1-0.3,0.2l0,0l0,0
				c-0.4,0.3-0.9,0.7-1.3,1.1c-0.1,0.1-0.2,0.2-0.3,0.3c-0.3,0.3-0.7,0.6-1,0.9h-0.1c-0.3,0.3-0.7,0.5-1,0.8
				c-0.2,0.2-0.5,0.3-0.7,0.5h-0.1l13.7,8.3h0.1c0.8-0.5,1.7-1.2,2.5-1.9c0.5-0.5,1.1-0.9,1.7-1.4c1.2-0.9,2.3-1.5,3.2-1.8
				c0.7-0.3,1.4-0.5,2.1-0.6l0.5-0.6c0.7-0.7,1.5-1.3,2.4-1.8c1.5-1,3.2-1.8,4.9-2.5c0.6-0.2,1.2-0.5,1.6-0.7l0.2-0.1L-27.414,28.8z
				"/>
			<g>
				<g>
					<g>
						<path class="st16" d="M-14.314,36.7c-0.5,0.3-0.7,0.4-1.2,0.6c-0.3,0.1-0.5,0.2-0.8,0.3c-0.2,0.1-0.3,0.1-0.5,0.1
							c-0.7,0.2-1.4,0.4-2,0.8c-0.2,0.1-0.4,0.2-0.6,0.3c-1.3,0.8-2.6,2-3.9,3.5l-2.5-1.5l-11-6.7c1.3-1.5,2.6-2.7,3.9-3.5
							c0.2-0.1,0.4-0.2,0.6-0.3c0.7-0.4,1.4-0.6,2-0.8c0.2,0,0.3-0.1,0.5-0.1c0.3-0.1,0.5-0.2,0.8-0.3c0.5-0.2,0.7-0.3,1.2-0.6
							L-14.314,36.7z"/>
						<g>
							<path class="st16" d="M-23.314,42.3c-1.3,0.1-2.6,0.5-3.9,1.3c-0.2,0.1-0.4,0.2-0.6,0.4c-0.7,0.5-1.4,1-2,1.7
								c-0.2,0.2-0.3,0.3-0.5,0.4c-0.3,0.3-0.6,0.5-0.9,0.7c-0.5,0.4-0.8,0.6-1.3,0.9l-13.4-8.2c0.5-0.3,0.8-0.5,1.3-0.9
								c0.3-0.2,0.6-0.5,0.9-0.7c0.2-0.1,0.3-0.3,0.5-0.4c0.7-0.6,1.4-1.2,2-1.7c0.2-0.1,0.4-0.3,0.6-0.4c1.3-0.8,2.6-1.2,3.9-1.3
								l11,6.7L-23.314,42.3z"/>
						</g>
					</g>
					<polygon class="st17" points="-45.914,39.5 -46.114,40.3 -32.714,48.5 -32.514,47.7 					"/>
					<path class="st18" d="M-14.014,37.1c-0.9,0.6-1.8,1-2.7,1.2c0,0,0,0-0.1,0s-0.2,0-0.3,0.1c-0.1,0-0.2,0.1-0.3,0.1
						s-0.2,0.1-0.3,0.1c-0.6,0.2-1.2,0.5-1.8,0.9c-0.1,0.1-0.2,0.1-0.3,0.2c-1,0.7-2,1.5-3,2.5l-0.6,0.6l-0.6,0.1
						c-1,0.2-2,0.5-3,1.1c-0.1,0.1-0.2,0.1-0.3,0.2c-0.3,0.2-0.5,0.3-0.8,0.5c-0.6,0.4-1.1,0.9-1.7,1.4c-0.1,0.1-0.2,0.2-0.3,0.3
						c-0.9,0.9-1.8,1.6-2.7,2.2l0.2-0.8c0.5-0.3,0.8-0.5,1.3-0.9c0.3-0.2,0.6-0.5,0.9-0.7c0.2-0.1,0.3-0.3,0.5-0.4
						c0.7-0.6,1.4-1.2,2-1.7c0.2-0.1,0.4-0.3,0.6-0.4c1.3-0.8,2.6-1.2,3.9-1.3c1.3-1.5,2.6-2.7,3.9-3.5c0.2-0.1,0.4-0.2,0.6-0.3
						c0.7-0.4,1.4-0.6,2-0.8c0.2,0,0.3-0.1,0.5-0.1c0.3-0.1,0.5-0.2,0.8-0.3c0.5-0.2,0.7-0.3,1.2-0.6L-14.014,37.1z"/>
				</g>
			</g>
			<g>
				<path class="st19" d="M-35.614,34.6C-35.514,34.6-35.514,34.6-35.614,34.6c1.2-1.4,2.5-2.5,3.7-3.2c0.2-0.1,0.4-0.2,0.5-0.3
					c0.7-0.3,1.3-0.6,2-0.8c0.2,0,0.3-0.1,0.5-0.1c0.3-0.1,0.5-0.2,0.8-0.3c0.4-0.2,0.7-0.3,1.1-0.5c0,0,0,0,0-0.1s0,0-0.1,0
					c-0.4,0.2-0.6,0.3-1,0.5c-0.3,0.1-0.5,0.2-0.8,0.3c-0.2,0.1-0.3,0.1-0.5,0.1c-0.7,0.2-1.3,0.4-2,0.8c-0.2,0.1-0.4,0.2-0.6,0.3
					C-33.114,32.1-34.414,33.2-35.614,34.6C-35.614,34.5-35.614,34.6-35.614,34.6L-35.614,34.6z"/>
				<path class="st19" d="M-28.014,30.6c-0.2,0.1-0.3,0.1-0.5,0.1c-0.7,0.2-1.3,0.4-2,0.8c-0.2,0.1-0.4,0.2-0.6,0.3
					c-1.2,0.7-2.5,1.8-3.7,3.2v0.1l0,0l0,0c1.2-1.4,2.5-2.5,3.7-3.2c0.2-0.1,0.4-0.2,0.6-0.3c0.7-0.4,1.3-0.6,2-0.8
					C-28.314,30.8-28.114,30.7-28.014,30.6c0.3,0,0.6-0.1,0.8-0.2c0.4-0.2,0.6-0.3,1-0.5c0,0,0,0,0-0.1c0,0,0,0-0.1,0
					c-0.4,0.2-0.6,0.3-1,0.5C-27.514,30.4-27.714,30.5-28.014,30.6z"/>
				<path class="st19" d="M-27.214,31.1c-0.2,0.1-0.3,0.1-0.5,0.1c-0.7,0.2-1.3,0.4-2,0.8c-0.2,0.1-0.4,0.2-0.6,0.3
					c-1.2,0.7-2.5,1.8-3.7,3.2v0.1l0,0l0,0c1.2-1.4,2.5-2.5,3.7-3.2c0.2-0.1,0.4-0.2,0.6-0.3c0.7-0.4,1.4-0.6,2-0.8
					C-27.514,31.3-27.314,31.2-27.214,31.1c0.3,0,0.6-0.1,0.8-0.2c0.4-0.2,0.6-0.3,1-0.5c0,0,0,0,0-0.1c0,0,0,0-0.1,0
					c-0.4,0.2-0.6,0.3-1,0.5C-26.614,30.9-26.914,31-27.214,31.1z"/>
				<path class="st19" d="M-26.314,31.5c-0.2,0.1-0.3,0.1-0.5,0.1c-0.7,0.2-1.3,0.4-2,0.8c-0.2,0.1-0.4,0.2-0.6,0.3
					c-1.2,0.7-2.5,1.8-3.7,3.2V36l0,0l0,0c1.2-1.4,2.5-2.5,3.7-3.2c0.2-0.1,0.4-0.2,0.6-0.3c0.7-0.4,1.4-0.6,2-0.8
					C-26.714,31.7-26.514,31.7-26.314,31.5c0.3,0,0.6-0.1,0.8-0.2c0.4-0.2,0.6-0.3,1-0.5c0,0,0,0,0-0.1c0,0,0,0-0.1,0
					c-0.4,0.2-0.6,0.3-1,0.5C-25.814,31.4-26.114,31.5-26.314,31.5z"/>
				<path class="st19" d="M-25.514,32c-0.2,0.1-0.3,0.1-0.5,0.1c-0.7,0.2-1.4,0.4-2,0.8c-0.2,0.1-0.4,0.2-0.6,0.3
					c-1.2,0.7-2.5,1.9-3.7,3.2v0.1l0,0l0,0c1.2-1.4,2.5-2.5,3.7-3.2c0.2-0.1,0.4-0.2,0.6-0.3c0.7-0.4,1.4-0.6,2-0.8
					C-25.814,32.2-25.614,32.2-25.514,32c0.3,0,0.6-0.1,0.8-0.2c0.4-0.2,0.6-0.3,1-0.5c0,0,0,0,0-0.1c0,0,0,0-0.1,0
					c-0.4,0.2-0.6,0.3-1,0.5C-25.014,31.8-25.314,31.9-25.514,32z"/>
				<path class="st19" d="M-24.714,32.5c-0.2,0.1-0.3,0.1-0.5,0.1c-0.7,0.2-1.4,0.4-2,0.8c-0.2,0.1-0.4,0.2-0.6,0.3
					c-1.2,0.7-2.5,1.9-3.7,3.2V37l0,0l0,0c1.2-1.4,2.5-2.5,3.7-3.2c0.2-0.1,0.4-0.2,0.6-0.3c0.7-0.4,1.4-0.6,2-0.8
					C-25.014,32.7-24.814,32.6-24.714,32.5c0.3,0,0.6-0.1,0.8-0.2c0.4-0.2,0.6-0.3,1-0.5c0,0,0,0,0-0.1c0,0,0,0-0.1,0
					c-0.3,0.2-0.6,0.3-0.9,0.5C-24.214,32.3-24.414,32.4-24.714,32.5z"/>
				<path class="st19" d="M-23.814,33c-0.2,0.1-0.3,0.1-0.5,0.1c-0.7,0.2-1.4,0.4-2.1,0.8c-0.2,0.1-0.4,0.2-0.6,0.3
					c-1.2,0.7-2.5,1.9-3.8,3.3v0.1l0,0l0,0c1.2-1.4,2.5-2.5,3.7-3.2c0.2-0.1,0.4-0.2,0.6-0.3c0.7-0.4,1.4-0.6,2-0.8
					C-24.214,33.2-24.014,33.1-23.814,33c0.3,0,0.6-0.1,0.8-0.2c0.4-0.2,0.6-0.3,0.9-0.5c0,0,0,0,0-0.1c0,0,0,0-0.1,0
					c-0.3,0.2-0.5,0.3-0.9,0.4C-23.314,32.8-23.614,32.9-23.814,33z"/>
				<path class="st19" d="M-23.014,33.5c-0.2,0.1-0.3,0.1-0.5,0.1c-0.7,0.2-1.4,0.4-2.1,0.8c-0.2,0.1-0.4,0.2-0.6,0.3
					c-1.2,0.7-2.5,1.9-3.8,3.3v0.1l0,0l0,0c1.2-1.4,2.5-2.5,3.7-3.2c0.2-0.1,0.4-0.2,0.6-0.3c0.7-0.4,1.4-0.6,2-0.8
					C-23.314,33.7-23.214,33.6-23.014,33.5c0.3,0,0.5-0.1,0.8-0.2c0.4-0.2,0.6-0.3,0.9-0.4c0,0,0,0,0-0.1c0,0,0,0-0.1,0
					c-0.3,0.2-0.5,0.3-0.9,0.4C-22.514,33.3-22.814,33.4-23.014,33.5z"/>
				<path class="st19" d="M-22.214,33.9c-0.2,0.1-0.3,0.1-0.5,0.2c-0.7,0.2-1.4,0.4-2.1,0.8c-0.2,0.1-0.4,0.2-0.6,0.3
					c-1.2,0.7-2.5,1.9-3.8,3.3v0.1l0,0l0,0c1.2-1.4,2.5-2.5,3.8-3.3c0.2-0.1,0.4-0.2,0.6-0.3c0.7-0.4,1.4-0.6,2-0.8
					C-22.514,34.1-22.314,34.1-22.214,33.9c0.3,0,0.5-0.1,0.8-0.2c0.4-0.2,0.6-0.2,0.9-0.4c0,0,0,0,0-0.1c0,0,0,0-0.1,0
					c-0.3,0.2-0.5,0.3-0.9,0.4C-21.714,33.8-21.914,33.9-22.214,33.9z"/>
				<path class="st19" d="M-21.414,34.4c-0.2,0.1-0.3,0.1-0.5,0.1c-0.7,0.2-1.4,0.4-2.1,0.8c-0.2,0.1-0.4,0.2-0.6,0.3
					c-1.2,0.7-2.6,1.9-3.8,3.3V39l0,0l0,0c1.2-1.4,2.5-2.5,3.8-3.3c0.2-0.1,0.4-0.2,0.6-0.3c0.7-0.4,1.4-0.6,2-0.8
					C-21.714,34.6-21.514,34.6-21.414,34.4c0.3,0,0.5-0.1,0.8-0.2c0.4-0.2,0.6-0.2,0.9-0.4c0,0,0,0,0-0.1c0,0,0,0-0.1,0
					c-0.3,0.2-0.5,0.3-0.9,0.4C-20.814,34.2-21.114,34.3-21.414,34.4z"/>
				<path class="st19" d="M-20.514,34.9c-0.2,0.1-0.3,0.1-0.5,0.1c-0.7,0.2-1.4,0.4-2.1,0.8c-0.2,0.1-0.4,0.2-0.6,0.3
					c-1.2,0.8-2.6,1.9-3.8,3.3v0.1l0,0l0,0c1.2-1.4,2.5-2.5,3.8-3.3c0.2-0.1,0.4-0.2,0.6-0.3c0.7-0.4,1.4-0.6,2.1-0.8
					C-20.814,35.1-20.714,35-20.514,34.9c0.3,0,0.5-0.1,0.8-0.2c0.3-0.1,0.6-0.2,0.9-0.4c0,0,0,0,0-0.1c0,0,0,0-0.1,0
					c-0.3,0.2-0.5,0.3-0.8,0.4C-20.014,34.7-20.314,34.8-20.514,34.9z"/>
				<path class="st19" d="M-19.714,35.4c-0.2,0.1-0.3,0.1-0.5,0.1c-0.7,0.2-1.4,0.4-2.1,0.8c-0.2,0.1-0.4,0.2-0.6,0.3
					c-1.2,0.8-2.6,1.9-3.8,3.3V40l0,0l0,0c1.2-1.4,2.6-2.5,3.8-3.3c0.2-0.1,0.4-0.2,0.6-0.3c0.7-0.4,1.4-0.6,2.1-0.8
					C-20.014,35.6-19.814,35.5-19.714,35.4c0.3,0,0.5-0.1,0.8-0.2c0.3-0.1,0.5-0.2,0.8-0.4c0,0,0,0,0-0.1c0,0,0,0-0.1,0
					c-0.3,0.2-0.5,0.3-0.8,0.4C-19.214,35.2-19.414,35.3-19.714,35.4z"/>
				<path class="st19" d="M-18.914,35.8c-0.2,0.1-0.3,0.1-0.5,0.1c-0.7,0.2-1.4,0.4-2.1,0.8c-0.2,0.1-0.4,0.2-0.6,0.3
					c-1.3,0.8-2.6,1.9-3.8,3.3v0.1l0,0l0,0c1.2-1.4,2.6-2.6,3.8-3.3c0.2-0.1,0.4-0.2,0.6-0.3c0.7-0.4,1.4-0.6,2.1-0.8
					C-19.214,36-19.014,36-18.914,35.8c0.3,0,0.5-0.1,0.8-0.2c0.3-0.1,0.5-0.2,0.8-0.4c0,0,0,0,0-0.1c0,0,0,0-0.1,0
					c-0.3,0.2-0.5,0.2-0.8,0.4C-18.414,35.7-18.614,35.8-18.914,35.8z"/>
				<path class="st19" d="M-18.014,36.3c-0.2,0.1-0.3,0.1-0.5,0.1c-0.7,0.2-1.4,0.4-2.1,0.8c-0.2,0.1-0.4,0.2-0.6,0.3
					c-1.3,0.8-2.6,1.9-3.8,3.3v0.1l0,0l0,0c1.3-1.4,2.6-2.6,3.8-3.3c0.2-0.1,0.4-0.2,0.6-0.3c0.7-0.4,1.4-0.6,2.1-0.8
					C-18.314,36.5-18.214,36.5-18.014,36.3c0.3,0,0.5-0.1,0.8-0.2c0.3-0.1,0.5-0.2,0.8-0.4c0,0,0,0,0-0.1c0,0,0,0-0.1,0
					c-0.2,0.1-0.4,0.2-0.8,0.4C-17.514,36.2-17.814,36.2-18.014,36.3z"/>
				<path class="st19" d="M-15.714,36.2c-0.3,0.1-0.5,0.2-0.8,0.4c-0.3,0.1-0.5,0.2-0.8,0.3c-0.2,0.1-0.3,0.1-0.5,0.1
					c-0.7,0.2-1.4,0.4-2.1,0.8c-0.2,0.1-0.4,0.2-0.6,0.3c-1.3,0.8-2.6,1.9-3.9,3.3v0.1l0,0l0,0c1.3-1.4,2.6-2.6,3.8-3.3
					c0.2-0.1,0.4-0.2,0.6-0.3c0.7-0.4,1.4-0.6,2.1-0.8c0.2,0,0.3-0.1,0.5-0.1c0.2-0.1,0.5-0.2,0.8-0.3
					C-16.114,36.5-15.914,36.4-15.714,36.2C-15.614,36.3-15.614,36.2-15.714,36.2C-15.614,36.2-15.714,36.2-15.714,36.2z"/>
				<path class="st19" d="M-42.814,38.6c0.2-0.1,0.3-0.3,0.5-0.4c0.7-0.6,1.3-1.2,2-1.7c0.2-0.1,0.4-0.2,0.6-0.4
					c1.2-0.7,2.5-1.2,3.7-1.3c0,0,0,0,0-0.1c0,0,0,0-0.1,0c-1.2,0.1-2.5,0.5-3.7,1.3c-0.2,0.1-0.4,0.2-0.6,0.4c-0.7,0.5-1.4,1-2,1.7
					C-42.514,38.3-42.714,38.4-42.814,38.6c-0.4,0.2-0.7,0.4-0.9,0.7c-0.4,0.3-0.7,0.5-1,0.7c0,0,0,0,0,0.1l0,0l0,0
					c0.3-0.2,0.6-0.4,1-0.7S-43.114,38.9-42.814,38.6z"/>
				<path class="st19" d="M-41.914,39.1c0.2-0.1,0.3-0.3,0.5-0.4c0.7-0.6,1.3-1.2,2-1.7c0.2-0.1,0.4-0.2,0.6-0.4
					c1.2-0.7,2.5-1.2,3.7-1.2c0,0,0,0,0-0.1c0,0,0-0.1-0.1,0c-1.2,0.1-2.5,0.5-3.7,1.3c-0.2,0.1-0.4,0.2-0.6,0.4
					c-0.7,0.5-1.4,1-2,1.7C-41.714,38.8-41.814,38.9-41.914,39.1c-0.4,0.2-0.7,0.4-0.9,0.7c-0.4,0.3-0.7,0.5-1,0.7c0,0,0,0,0,0.1
					l0,0l0,0c0.3-0.2,0.6-0.4,1-0.7C-42.514,39.6-42.214,39.4-41.914,39.1z"/>
				<path class="st19" d="M-41.114,39.6c0.2-0.1,0.3-0.3,0.5-0.4c0.7-0.6,1.3-1.2,2-1.7c0.2-0.1,0.4-0.3,0.6-0.4
					c1.2-0.7,2.4-1.2,3.6-1.2c0,0,0,0,0-0.1s0,0-0.1,0c-1.2,0.1-2.5,0.5-3.7,1.3c-0.2,0.1-0.4,0.2-0.6,0.4c-0.7,0.5-1.4,1-2,1.7
					C-40.914,39.2-41.014,39.4-41.114,39.6c-0.4,0.2-0.7,0.4-0.9,0.7c-0.4,0.3-0.7,0.5-1,0.7c0,0,0,0,0,0.1l0,0l0,0
					c0.3-0.2,0.6-0.4,1-0.7C-41.714,40.1-41.414,39.9-41.114,39.6z"/>
				<path class="st19" d="M-40.314,40.1c0.2-0.1,0.3-0.3,0.5-0.4c0.7-0.6,1.3-1.2,2-1.7c0.2-0.1,0.4-0.3,0.6-0.4
					c1.2-0.7,2.4-1.1,3.6-1.2c0,0,0,0,0-0.1c0,0,0,0-0.1,0c-1.2,0.1-2.4,0.5-3.6,1.3c-0.2,0.1-0.4,0.2-0.6,0.4c-0.7,0.5-1.4,1-2,1.7
					C-40.114,39.7-40.214,39.9-40.314,40.1c-0.4,0.2-0.6,0.4-0.9,0.7c-0.4,0.3-0.7,0.5-1,0.7c0,0,0,0,0,0.1l0,0l0,0
					c0.3-0.2,0.6-0.4,1-0.7C-40.914,40.6-40.614,40.4-40.314,40.1z"/>
				<path class="st19" d="M-39.514,40.6c0.2-0.1,0.3-0.3,0.5-0.4c0.7-0.6,1.3-1.2,2-1.7c0.2-0.1,0.4-0.3,0.6-0.4
					c1.2-0.7,2.4-1.1,3.6-1.2c0,0,0,0,0-0.1c0,0,0,0-0.1,0c-1.2,0.1-2.4,0.5-3.6,1.3c-0.2,0.1-0.4,0.2-0.6,0.4c-0.7,0.5-1.4,1-2,1.7
					C-39.214,40.2-39.414,40.4-39.514,40.6c-0.4,0.2-0.6,0.4-0.9,0.7c-0.4,0.3-0.7,0.5-1,0.7c0,0,0,0,0,0.1l0,0l0,0
					c0.3-0.2,0.6-0.4,1-0.7C-40.114,41.1-39.814,40.8-39.514,40.6z"/>
				<path class="st19" d="M-38.714,41.1c0.2-0.1,0.3-0.3,0.5-0.4c0.7-0.6,1.3-1.2,2-1.7c0.2-0.1,0.4-0.3,0.6-0.4
					c1.2-0.7,2.4-1.1,3.5-1.2c0,0,0,0,0-0.1c0,0,0,0-0.1,0c-1.2,0.1-2.4,0.6-3.6,1.3c-0.2,0.1-0.4,0.2-0.6,0.4c-0.7,0.5-1.4,1-2,1.7
					C-38.414,40.7-38.614,40.8-38.714,41.1c-0.4,0.2-0.6,0.4-0.9,0.7c-0.4,0.3-0.7,0.5-1,0.7c0,0,0,0,0,0.1l0,0l0,0
					c0.3-0.2,0.6-0.4,1-0.7S-39.014,41.3-38.714,41.1z"/>
				<path class="st19" d="M-37.814,41.5c0.2-0.1,0.3-0.3,0.5-0.4c0.7-0.6,1.3-1.2,2-1.7c0.2-0.1,0.4-0.3,0.6-0.4
					c1.1-0.7,2.4-1.1,3.5-1.2c0,0,0,0,0-0.1s0,0-0.1,0c-1.2,0.1-2.4,0.6-3.5,1.3c-0.2,0.1-0.4,0.2-0.6,0.4c-0.7,0.5-1.4,1-2,1.7
					C-37.614,41.2-37.814,41.3-37.814,41.5c-0.4,0.2-0.6,0.4-0.9,0.7c-0.4,0.3-0.7,0.5-1,0.7c0,0,0,0,0,0.1l0,0l0,0
					c0.3-0.2,0.6-0.4,1-0.7C-38.414,42.1-38.114,41.8-37.814,41.5z"/>
				<path class="st19" d="M-37.014,42c0.2-0.1,0.3-0.3,0.5-0.4c0.7-0.6,1.3-1.2,2-1.7c0.2-0.1,0.4-0.3,0.6-0.4
					c1.1-0.7,2.3-1.1,3.5-1.2c0,0,0,0,0-0.1s0,0-0.1,0c-1.2,0.1-2.4,0.6-3.5,1.3c-0.2,0.1-0.4,0.2-0.6,0.4c-0.7,0.5-1.4,1-2.1,1.7
					C-36.814,41.7-36.914,41.8-37.014,42c-0.4,0.2-0.6,0.4-0.9,0.7c-0.4,0.3-0.7,0.5-1,0.7c0,0,0,0,0,0.1l0,0l0,0
					c0.3-0.2,0.6-0.4,1.1-0.7C-37.614,42.5-37.314,42.3-37.014,42z"/>
				<path class="st19" d="M-36.214,42.5c0.2-0.1,0.3-0.3,0.5-0.4c0.7-0.6,1.4-1.2,2-1.7c0.2-0.1,0.4-0.3,0.6-0.4
					c1.1-0.7,2.3-1.1,3.4-1.2c0,0,0,0,0-0.1s0,0-0.1,0c-1.1,0.1-2.3,0.6-3.5,1.3c-0.2,0.1-0.4,0.2-0.6,0.4c-0.7,0.5-1.4,1-2.1,1.7
					C-36.014,42.2-36.114,42.3-36.214,42.5c-0.4,0.2-0.6,0.4-0.9,0.6c-0.4,0.3-0.7,0.5-1.1,0.7c0,0,0,0,0,0.1l0,0l0,0
					c0.3-0.2,0.6-0.4,1.1-0.8C-36.814,43-36.514,42.8-36.214,42.5z"/>
				<path class="st19" d="M-35.414,43c0.2-0.1,0.3-0.3,0.5-0.4c0.7-0.6,1.4-1.2,2-1.7c0.2-0.1,0.4-0.3,0.6-0.4
					c1.1-0.7,2.3-1.1,3.4-1.2c0,0,0,0,0-0.1s0,0-0.1,0c-1.1,0.1-2.3,0.6-3.5,1.3c-0.2,0.1-0.4,0.2-0.6,0.4c-0.7,0.5-1.4,1.1-2.1,1.7
					C-35.114,42.6-35.314,42.8-35.414,43c-0.4,0.2-0.6,0.4-0.9,0.6c-0.4,0.3-0.7,0.6-1.1,0.8c0,0,0,0,0,0.1l0,0l0,0
					c0.3-0.2,0.7-0.4,1.1-0.8C-36.014,43.5-35.714,43.3-35.414,43z"/>
				<path class="st19" d="M-34.614,43.5c0.2-0.1,0.3-0.3,0.5-0.4c0.7-0.6,1.4-1.2,2-1.7c0.2-0.1,0.4-0.3,0.6-0.4
					c1.1-0.7,2.3-1.1,3.4-1.2c0,0,0,0,0-0.1c0,0,0,0-0.1,0c-1.1,0.1-2.3,0.6-3.4,1.3c-0.2,0.1-0.4,0.2-0.6,0.4
					c-0.7,0.5-1.4,1.1-2.1,1.7C-34.314,43.1-34.514,43.3-34.614,43.5c-0.4,0.2-0.6,0.4-0.9,0.6c-0.4,0.3-0.7,0.6-1.1,0.8
					c0,0,0,0,0,0.1l0,0l0,0c0.3-0.2,0.7-0.4,1.1-0.8C-35.114,44-34.914,43.7-34.614,43.5z"/>
				<path class="st19" d="M-33.814,44c0.2-0.1,0.3-0.3,0.5-0.4c0.7-0.6,1.4-1.2,2.1-1.7c0.2-0.1,0.4-0.3,0.6-0.4
					c1.1-0.7,2.3-1.1,3.4-1.2c0,0,0,0,0-0.1c0,0,0,0-0.1,0c-1.1,0.2-2.3,0.6-3.4,1.3c-0.2,0.1-0.4,0.2-0.6,0.4
					c-0.7,0.5-1.4,1.1-2.1,1.7C-33.514,43.6-33.714,43.8-33.814,44c-0.4,0.2-0.6,0.4-0.9,0.6c-0.4,0.3-0.8,0.6-1.1,0.8
					c0,0,0,0,0,0.1l0,0l0,0c0.3-0.2,0.7-0.4,1.1-0.8C-34.314,44.5-34.014,44.2-33.814,44z"/>
				<path class="st19" d="M-32.914,44.5c0.2-0.1,0.3-0.3,0.5-0.4c0.7-0.6,1.4-1.2,2.1-1.7c0.2-0.1,0.4-0.3,0.6-0.4
					c1.1-0.7,2.2-1.1,3.3-1.2c0,0,0,0,0-0.1c0,0,0,0-0.1,0c-1.1,0.2-2.3,0.6-3.4,1.3c-0.2,0.1-0.4,0.2-0.6,0.4
					c-0.7,0.5-1.4,1.1-2.1,1.7C-32.714,44.1-32.914,44.2-32.914,44.5c-0.4,0.2-0.6,0.4-0.9,0.6c-0.4,0.3-0.8,0.6-1.1,0.8
					c0,0,0,0,0,0.1l0,0l0,0c0.3-0.2,0.7-0.4,1.1-0.8C-33.514,45-33.214,44.7-32.914,44.5z"/>
				<path class="st19" d="M-32.114,44.9c0.2-0.1,0.3-0.3,0.5-0.4c0.7-0.7,1.4-1.2,2.1-1.7c0.2-0.1,0.4-0.3,0.6-0.4
					c1.1-0.6,2.2-1.1,3.3-1.2c0,0,0,0,0-0.1c0,0,0,0-0.1,0c-1.1,0.2-2.3,0.6-3.3,1.3c-0.2,0.1-0.4,0.2-0.6,0.4
					c-0.7,0.5-1.4,1.1-2.1,1.7C-31.914,44.6-32.014,44.7-32.114,44.9c-0.4,0.2-0.6,0.4-0.9,0.6c-0.4,0.3-0.8,0.6-1.1,0.8
					c0,0,0,0,0,0.1l0,0l0,0c0.4-0.2,0.7-0.4,1.1-0.8C-32.714,45.4-32.414,45.2-32.114,44.9z"/>
				<path class="st19" d="M-28.214,42.8c-0.2,0.1-0.4,0.2-0.6,0.4c-0.7,0.5-1.4,1.1-2.1,1.7c-0.2,0.1-0.3,0.3-0.5,0.4
					c-0.3,0.3-0.6,0.5-0.9,0.7c-0.4,0.3-0.8,0.6-1.1,0.8c0,0,0,0,0,0.1l0,0l0,0c0.4-0.2,0.7-0.4,1.1-0.8c0.3-0.2,0.6-0.5,0.9-0.7
					c0.2-0.1,0.3-0.3,0.5-0.4c0.7-0.7,1.4-1.2,2.1-1.7C-28.614,43.2-28.414,43-28.214,42.8c1.1-0.6,2.2-1,3.3-1.2c0,0,0,0,0-0.1
					c0,0,0,0-0.1,0C-26.014,41.7-27.214,42.2-28.214,42.8z"/>
			</g>
		</g>
		<g>
			<g>
				<g>
					<g>
						<g class="st20">
							<g>
								<path class="st21" d="M-24.314,41.9l-7.9-4.6l-0.1-0.1L-24.314,41.9L-24.314,41.9z"/>
							</g>
							<g>
								<path class="st22" d="M-24.214,41.6c-0.1,0.1-0.1,0.1-0.1,0.2l-7.9-4.6l0.1-0.2L-24.214,41.6z"/>
							</g>
							<g>
								<path class="st23" d="M-24.014,41.5h-0.1c0,0-0.1,0-0.1,0.1l-8-4.6l0.2-0.1L-24.014,41.5z"/>
							</g>
						</g>
					</g>
					<g>
						<polygon class="st24" points="-23.114,42.2 -23.114,42.3 -23.114,42.3 -23.114,42.3 -23.214,42.3 -23.114,42.3 						"/>
					</g>
					<path d="M-23.114,42.2l-0.3-0.2l0,0c0,0,0,0-0.1,0l-0.1,0.1l0,0L-23.114,42.2C-23.114,42.3-23.114,42.3-23.114,42.2
						C-23.114,42.3-23.114,42.3-23.114,42.2z"/>
					<path class="st25" d="M-31.714,37h-0.1l-0.1,0.1c0,0.1-0.1,0.1-0.1,0.2v0.1l-0.4-0.3c0,0-0.1,0-0.1-0.1s0-0.1,0.1-0.2
						c0-0.1,0.1-0.1,0.1-0.1h0.1l0,0L-31.714,37z"/>
					<path class="st26" d="M-24.014,41.5L-24.014,41.5L-24.014,41.5z"/>
				</g>
				<path class="st27" d="M-24.014,41.5L-24.014,41.5L-24.014,41.5c-0.1,0-0.2,0-0.2,0s0,0,0,0.1l0,0c0,0-0.1,0.1-0.1,0.2l0,0v0.1
					l0,0l0.8,0.3l0,0c0,0,0-0.1,0.1-0.1c0,0,0,0,0.1,0L-24.014,41.5z"/>
			</g>
			
				<linearGradient id="SVGID_1_" gradientUnits="userSpaceOnUse" x1="-31.6409" y1="2263.1646" x2="-31.8216" y2="2263.4897" gradientTransform="matrix(1 0 0 1 0 -2226)">
				<stop  offset="0" style="stop-color:#78ACED"/>
				<stop  offset="1" style="stop-color:#4F7BB3"/>
			</linearGradient>
			<path class="st28" d="M-31.314,37.3L-31.314,37.3L-31.314,37.3l-0.4-0.3l0,0l0,0h-0.1l0,0h-0.1c-0.1,0-0.1,0.1-0.1,0.1
				c0,0.1-0.1,0.1-0.1,0.2c0,0,0,0.1,0.1,0.1h0.1l0,0l0,0l0.3,0.2l0,0l0,0l0.1,0.1l0,0l0,0l0,0c0,0,0,0,0-0.1l0,0v-0.1l0,0l0.1-0.1
				l0,0C-31.414,37.3-31.414,37.2-31.314,37.3L-31.314,37.3L-31.314,37.3L-31.314,37.3L-31.314,37.3z"/>
		</g>
	</g>
</g>
<radialGradient id="SVGID_00000005982315281745486600000004433747296330682263_" cx="-736.6851" cy="4081.3662" r="15.9018" gradientTransform="matrix(-1.5353 0 0 0.4819 -1106.0327 -1925.3104)" gradientUnits="userSpaceOnUse">
	<stop  offset="0.4351" style="stop-color:#B4BCC1"/>
	<stop  offset="0.94" style="stop-color:#ECEEEF;stop-opacity:0"/>
</radialGradient>
<ellipse style="fill:url(#SVGID_00000005982315281745486600000004433747296330682263_);" cx="25" cy="41.5" rx="24.4" ry="7.7"/>
<g id="Base">
	<g>
		<g>
			<g>
				<polygon class="st30" points="26.691,31.194 24.558,30.263 24.558,30.081 28.661,30.153 28.661,30.333 				"/>
				<polygon class="st31" points="26.691,31.013 26.691,31.194 28.661,30.333 28.661,30.153 				"/>
				<polygon class="st32" points="26.691,31.013 24.558,30.081 26.528,29.221 28.661,30.153 				"/>
				<g>
					<polygon class="st31" points="27.957,29.582 27.727,28.066 25.735,30.012 26.814,30.501 					"/>
					<polygon class="st33" points="27.957,29.582 28.577,29.311 27.792,30.147 26.814,30.501 					"/>
					<polygon class="st34" points="27.727,28.066 28.347,27.795 28.577,29.311 27.957,29.582 					"/>
				</g>
			</g>
			<g>
				<path class="st35" d="M29.006,25.374l-0.417,2.982l1.161,3.223l-3.129-1.365c-0.181-0.077-0.292-0.173-0.343-0.27h-0.004
					l-2.226-3.706L29.006,25.374z"/>
				<path class="st36" d="M29.006,25.373l0.977-0.172l12.916-2.253l-2.222,4.47h-0.002c-0.031,0.082-0.112,0.159-0.248,0.218
					l-9.139,3.99c-0.18,0.077-0.418,0.116-0.669,0.116c-0.302,0-0.621-0.054-0.869-0.164l-1.161-3.223L29.006,25.373z"/>
				<path class="st37" d="M29.008,25.372l0.421-3.02l0.556,2.848l0.624,3.215l0.679,3.211c-0.18,0.077-0.418,0.116-0.669,0.116
					c-0.302,0-0.621-0.054-0.869-0.164l-1.161-3.223L29.008,25.372z"/>
				<path class="st34" d="M24.342,25.683l11.987-5.233c0.518-0.225,1.422-0.197,2.019,0.064l4.101,1.79
					c0.597,0.26,0.663,0.656,0.145,0.881l-11.986,5.233c-0.518,0.225-1.422,0.197-2.019-0.064l-4.101-1.79
					C23.89,26.303,23.826,25.908,24.342,25.683z"/>
				<path class="st38" d="M30.786,28.262c-0.518,0.227-1.527,0.249-2.124-0.012l-4.101-1.79c-0.437-0.191-0.48-0.503-0.328-0.719
					c-0.389,0.232-0.296,0.582,0.253,0.822l4.101,1.79c0.597,0.261,1.501,0.29,2.019,0.064l11.987-5.233
					c0.139-0.06,0.233-0.133,0.289-0.213c-0.034,0.02-0.066,0.04-0.108,0.059"/>
			</g>
			<path class="st39" d="M28.576,21.821v6.166l-4.089-1.786c-0.309-0.136-0.471-0.308-0.489-0.472h-0.004v-3.12L28.576,21.821z"/>
			<path class="st40" d="M30.606,21.469l4.212-0.723l1.512-0.658c0.512-0.223,1.401-0.197,2,0.055l4.613-0.793v3.083l-0.005,0.004
				c0,0.142-0.107,0.284-0.343,0.387l-11.99,5.231c-0.517,0.226-1.42,0.197-2.019-0.062l-0.009-0.004v-6.166L30.606,21.469z"/>
			<path class="st35" d="M28.576,20.824l2.033,0v7.231c-0.519,0.225-1.422,0.197-2.019-0.062l-0.014-0.005V20.824L28.576,20.824z"/>
			<path class="st38" d="M24.342,22.252l11.987-5.233c0.518-0.225,1.422-0.197,2.019,0.064l4.101,1.79
				c0.597,0.26,0.663,0.656,0.145,0.881l-11.986,5.233c-0.518,0.225-1.422,0.197-2.019-0.064l-4.101-1.79
				C23.89,22.873,23.826,22.478,24.342,22.252z"/>
			<path class="st35" d="M28.842,24.592l-4.101-1.79c-0.184-0.081-0.142-0.22,0.067-0.307l11.775-5.141
				c0.147-0.064,0.374-0.101,0.622-0.101c0.32,0,0.651,0.061,0.887,0.164l3.993,1.742c0.279,0.129,0.251,0.253-0.099,0.415
				l-11.635,5.08c-0.146,0.064-0.374,0.101-0.622,0.101C29.41,24.755,29.078,24.693,28.842,24.592z"/>
			<path class="st37" d="M42.086,19.157l-3.993-1.742c-0.235-0.103-0.567-0.164-0.887-0.164c-0.249,0-0.475,0.037-0.622,0.101
				l-11.775,5.141c-0.208,0.087-0.252,0.227-0.067,0.307l0.006,0.003c0.019-0.011,0.039-0.02,0.061-0.03l11.775-5.141
				c0.147-0.064,0.374-0.101,0.622-0.101c0.32,0,0.651,0.061,0.887,0.164l3.993,1.742c0.029,0.013,0.053,0.027,0.075,0.04
				C42.332,19.36,42.307,19.26,42.086,19.157z"/>
			<g>
				<polygon class="st30" points="31.823,33.254 31.823,33.434 33.957,34.366 35.926,33.506 35.926,33.325 				"/>
				<polygon class="st31" points="33.957,34.185 33.957,34.366 35.926,33.506 35.926,33.325 				"/>
				<polygon class="st32" points="31.823,33.254 33.957,34.185 35.926,33.325 33.793,32.394 				"/>
				<polygon class="st41" points="32.203,29.825 32.821,29.555 34.665,33.314 34.045,33.584 				"/>
				<polygon class="st31" points="31.823,31.213 32.203,29.825 34.045,33.584 32.966,33.096 				"/>
			</g>
			<g>
				<polygon class="st30" points="39.03,30.107 39.03,30.288 41.163,31.219 43.133,30.359 43.133,30.179 				"/>
				<polygon class="st31" points="41.163,31.039 41.163,31.219 43.133,30.359 43.133,30.179 				"/>
				<polygon class="st32" points="39.03,30.107 41.163,31.039 43.133,30.179 41,29.247 				"/>
				<polygon class="st41" points="39.41,26.678 40.028,26.408 41.872,30.168 41.252,30.438 				"/>
				<polygon class="st31" points="39.03,28.067 39.41,26.678 41.252,30.438 40.173,29.949 				"/>
			</g>
		</g>
		<g>
			<path class="st37" d="M39.375,26.086l-0.472,0.457l-0.472-0.208v-0.003c-0.065-0.028-0.109-0.089-0.109-0.182v-0.492
				L39.375,26.086z"/>
			<path class="st39" d="M38.624,25.223l1.347-0.588c0.082-0.036,0.153-0.034,0.207-0.008l0.492,0.213l-1.235,1.19l-0.061,0.057
				l-1.052-0.429C38.322,25.488,38.457,25.294,38.624,25.223z"/>
			<path class="st35" d="M38.624,25.223l0.482,0.21l0.33,0.598l0.057,0.105l-0.119-0.049l-1.052-0.429
				C38.322,25.488,38.457,25.294,38.624,25.223z"/>
			<path class="st40" d="M39.106,25.432l1.349-0.589c0.166-0.073,0.302,0.004,0.302,0.172v0.492c0,0.168-0.135,0.364-0.302,0.436
				l-1.349,0.589c-0.166,0.073-0.302-0.004-0.302-0.172v-0.492C38.804,25.7,38.939,25.505,39.106,25.432z"/>
			<path class="st42" d="M39.15,25.543l1.259-0.55c0.119-0.051,0.215,0.004,0.215,0.123v0.408c0,0.119-0.097,0.258-0.215,0.31
				l-1.259,0.55c-0.119,0.051-0.215-0.004-0.215-0.123v-0.408C38.935,25.733,39.031,25.594,39.15,25.543z"/>
			<path class="st43" d="M38.935,25.852v0.212l0.992-0.433c0.119-0.052,0.215-0.191,0.215-0.31v-0.212l-0.992,0.433
				C39.031,25.594,38.935,25.733,38.935,25.852z"/>
			<path class="st44" d="M38.935,25.852v0.112l0.86-0.376c0.119-0.052,0.215-0.191,0.215-0.31v-0.112l-0.86,0.376
				C39.031,25.594,38.935,25.733,38.935,25.852z"/>
		</g>
		<g>
			<path class="st37" d="M34.285,28.249l-0.472,0.457l-0.472-0.208v-0.003c-0.065-0.028-0.109-0.09-0.109-0.182v-0.492
				L34.285,28.249z"/>
			<path class="st39" d="M33.535,27.385l1.347-0.588c0.082-0.036,0.153-0.034,0.207-0.008l0.492,0.213l-1.236,1.191l-0.061,0.057
				l-1.052-0.429C33.232,27.651,33.367,27.457,33.535,27.385z"/>
			<path class="st35" d="M33.534,27.386l0.482,0.21l0.33,0.598l0.057,0.105l-0.119-0.049l-1.052-0.429
				C33.232,27.651,33.367,27.457,33.534,27.386z"/>
			<path class="st40" d="M34.017,27.595l1.349-0.589c0.166-0.073,0.302,0.004,0.302,0.172v0.492c0,0.168-0.135,0.364-0.302,0.436
				l-1.349,0.589c-0.166,0.073-0.302-0.004-0.302-0.172v-0.492C33.715,27.863,33.849,27.668,34.017,27.595z"/>
			<path class="st42" d="M34.06,27.706l1.259-0.55c0.119-0.051,0.215,0.004,0.215,0.123v0.408c0,0.119-0.097,0.258-0.215,0.31
				l-1.259,0.55c-0.119,0.051-0.215-0.004-0.215-0.123v-0.408C33.845,27.896,33.941,27.757,34.06,27.706z"/>
			<path class="st43" d="M33.846,28.015v0.212l0.992-0.433c0.119-0.052,0.215-0.191,0.215-0.31v-0.212l-0.992,0.433
				C33.941,27.757,33.845,27.896,33.846,28.015z"/>
			<path class="st44" d="M33.846,28.015v0.112l0.86-0.376c0.119-0.052,0.215-0.191,0.215-0.31v-0.112l-0.86,0.376
				C33.941,27.757,33.845,27.896,33.846,28.015z"/>
		</g>
		<g>
			<g>
				<path class="st37" d="M26.449,25.876l0.471,0.457l0.472-0.208v-0.003c0.065-0.028,0.109-0.089,0.109-0.182v-0.492L26.449,25.876
					z"/>
				<path class="st38" d="M27.198,25.012l-1.347-0.588c-0.082-0.036-0.153-0.034-0.207-0.008l-0.492,0.213l1.236,1.191l0.061,0.057
					l1.052-0.429C27.501,25.278,27.366,25.083,27.198,25.012z"/>
				<path class="st35" d="M27.199,25.013l-0.482,0.21l-0.33,0.598l-0.057,0.105l0.119-0.049l1.052-0.429
					C27.501,25.278,27.366,25.083,27.199,25.013z"/>
				<path class="st45" d="M26.718,25.222l-1.348-0.589c-0.166-0.073-0.302,0.004-0.302,0.172v0.492c0,0.168,0.135,0.364,0.302,0.436
					l1.348,0.589c0.166,0.073,0.302-0.004,0.302-0.172v-0.492C27.02,25.49,26.884,25.295,26.718,25.222z"/>
				<path class="st37" d="M26.673,25.332l-1.259-0.55c-0.119-0.051-0.215,0.004-0.215,0.123v0.408c0,0.119,0.097,0.258,0.215,0.31
					l1.259,0.55c0.119,0.051,0.215-0.004,0.215-0.123v-0.408C26.888,25.523,26.792,25.384,26.673,25.332z"/>
				<path class="st46" d="M26.889,25.642v0.212l-0.992-0.433c-0.119-0.052-0.215-0.191-0.215-0.31v-0.212l0.992,0.433
					C26.792,25.384,26.888,25.523,26.889,25.642z"/>
				<path class="st47" d="M26.889,25.642v0.112l-0.86-0.376c-0.119-0.052-0.215-0.191-0.215-0.31v-0.112l0.86,0.376
					C26.792,25.384,26.888,25.523,26.889,25.642z"/>
			</g>
		</g>
		<g>
			<g>
				<path class="st37" d="M26.882,28.894l0.477,0.405l0.319-0.184l-0.001-0.003c0.044-0.026,0.064-0.08,0.042-0.162l-0.117-0.437
					L26.882,28.894z"/>
				<path class="st38" d="M27.264,28.127l-1.191-0.521c-0.073-0.032-0.128-0.03-0.164-0.007l-0.333,0.189l1.246,1.055l0.061,0.05
					l0.719-0.38C27.562,28.363,27.41,28.191,27.264,28.127z"/>
				<path class="st35" d="M27.264,28.127l-0.326,0.187l-0.116,0.529l-0.02,0.093l0.081-0.043l0.719-0.38
					C27.562,28.363,27.41,28.191,27.264,28.127z"/>
				<path class="st39" d="M26.937,28.313l-1.192-0.522c-0.147-0.064-0.234,0.004-0.194,0.153l0.117,0.436
					c0.04,0.148,0.192,0.321,0.339,0.386l1.192,0.522c0.147,0.064,0.234-0.004,0.194-0.153l-0.117-0.436
					C27.236,28.55,27.084,28.377,26.937,28.313z"/>
				<path class="st37" d="M26.928,28.411l-1.113-0.487c-0.104-0.046-0.166,0.003-0.138,0.109l0.097,0.362
					c0.028,0.106,0.136,0.229,0.241,0.275l1.113,0.487c0.104,0.046,0.166-0.003,0.138-0.109l-0.097-0.362
					C27.14,28.58,27.033,28.457,26.928,28.411z"/>
				<path class="st46" d="M27.168,28.687l0.05,0.187l-0.877-0.384c-0.104-0.046-0.213-0.169-0.241-0.275l-0.05-0.188l0.877,0.384
					C27.033,28.457,27.14,28.58,27.168,28.687z"/>
				<path class="st47" d="M27.168,28.686l0.027,0.1l-0.761-0.333c-0.104-0.046-0.213-0.169-0.241-0.275l-0.027-0.1l0.761,0.333
					C27.033,28.457,27.14,28.58,27.168,28.686z"/>
			</g>
		</g>
	</g>
	<g>
		<g>
			<g>
				<g class="st20">
					<polygon class="st48" points="33.003,17.524 32.423,18.751 32.855,19.172 32.652,19.309 32.17,18.821 32.9,17.36 					"/>
					<g>
						<polygon class="st49" points="35.405,20.709 35.403,21.069 32.889,22.174 32.89,21.814 						"/>
					</g>
					<g>
						<polygon class="st39" points="32.89,21.814 32.889,22.174 30.361,21.07 30.362,20.709 						"/>
					</g>
					<g>
						<polygon class="st38" points="30.362,20.709 32.875,19.605 35.405,20.709 32.89,21.814 						"/>
					</g>
					<polygon class="st50" points="32.883,17.606 32.302,18.833 32.735,19.254 32.532,19.392 32.05,18.903 32.781,17.443 					"/>
				</g>
			</g>
			<g>
				<g class="st20">
					<g>
						<polygon class="st49" points="32.646,20.267 34.01,19.667 34.414,20.737 33.049,21.336 						"/>
					</g>
					<polygon class="st51" points="35.268,20.562 34.147,20.562 33.711,20.203 33.453,20.186 34.094,20.709 35.472,20.709 					"/>
					<polygon class="st52" points="35.172,20.626 34.052,20.626 33.53,20.192 33.272,20.175 33.968,20.739 35.344,20.739 					"/>
					<g>
						<polygon class="st53" points="31.756,19.879 33.122,19.279 34.01,19.667 32.646,20.267 						"/>
					</g>
					<g>
						<polygon class="st39" points="31.347,20.593 31.756,19.879 32.646,20.267 33.049,21.336 						"/>
					</g>
				</g>
			</g>
			<g>
				<g class="st20">
					<g>
						<polygon class="st54" points="32.586,18.714 33.864,18.14 35.002,19.63 33.724,20.204 						"/>
					</g>
					<g>
						<polygon class="st55" points="33.724,20.204 32.744,20.14 32.15,19.363 32.586,18.714 						"/>
					</g>
				</g>
				<g class="st20">
					<g>
						<polygon class="st56" points="32.586,18.714 33.864,18.14 34.589,17.84 33.311,18.414 						"/>
					</g>
					<g>
						<polygon class="st54" points="33.311,18.414 34.589,17.84 35.728,19.331 34.45,19.905 						"/>
					</g>
					<g>
						<polygon class="st57" points="34.45,19.905 33.724,20.204 32.586,18.714 33.311,18.414 						"/>
					</g>
				</g>
			</g>
			<path class="st58" d="M34.233,15.185c0,0,3.531,0.489,4.449,1.988s-0.767,3.828-0.767,3.828c-1.85,0.354-3.811-0.406-4.729-1.905
				C32.269,17.596,32.756,15.956,34.233,15.185z"/>
			<path class="st59" d="M34.576,15.035c0.484-0.17,1.023-0.194,1.562-0.097c1.151,0.209,2.31,0.972,2.987,2.079
				c0.924,1.511,0.624,3.13-0.641,3.777c-0.096,0.05-0.198,0.093-0.304,0.13c-1.517,0.531-3.556-0.357-4.551-1.983
				C32.634,17.314,33.058,15.565,34.576,15.035z"/>
			<path class="st60" d="M34.771,16.819c0.699-0.244,1.637,0.164,2.095,0.913c0.458,0.749,0.264,1.553-0.435,1.798
				c-0.699,0.244-1.637-0.164-2.095-0.913C33.878,17.869,34.073,17.063,34.771,16.819z"/>
			<path class="st59" d="M34.979,17.157c0.525-0.184,1.228,0.123,1.572,0.685c0.345,0.562,0.199,1.166-0.326,1.35
				s-1.228-0.123-1.572-0.685C34.308,17.945,34.456,17.341,34.979,17.157z"/>
			<path class="st61" d="M35.302,17.258c0.434-0.152,1.016,0.102,1.3,0.567s0.164,0.964-0.27,1.116
				c-0.434,0.152-1.016-0.102-1.3-0.567C34.747,17.909,34.868,17.41,35.302,17.258z"/>
		</g>
		<polygon class="st53" points="36.532,17.634 37.078,17.437 37.264,17.778 36.928,18.095 35.429,17.719 35.989,17.452 
			36.263,17.394 		"/>
		<polygon class="st62" points="35.972,17.9 36.615,17.659 36.802,18 36.406,18.379 35.724,18.631 35.372,18.152 35.429,17.719 
			35.93,17.553 		"/>
		<polygon class="st63" points="36.406,18.379 36.928,18.095 37.264,17.778 36.802,18 		"/>
		<polygon class="st64" points="36.263,17.394 36.532,17.634 35.972,17.9 35.93,17.553 		"/>
		<polygon class="st64" points="37.264,17.778 36.802,18 36.615,17.659 37.078,17.437 		"/>
		<polygon class="st31" points="37.002,17.602 39.461,16.573 39.534,16.681 39.432,16.736 36.828,17.698 		"/>
		<polygon class="st65" points="36.828,17.698 39.361,16.628 39.432,16.736 36.927,17.84 		"/>
		<path class="st66" d="M39.454,16.473c0.125,0,0.226,0.076,0.226,0.171s-0.101,0.171-0.226,0.171s-0.226-0.077-0.226-0.171
			S39.328,16.474,39.454,16.473z"/>
	</g>
</g>
<g>
	<g>
		<g>
			<g>
				<g>
					<path class="st67" d="M31.069,38.136l0.051-0.04c-0.005,0.019-0.009,0.039-0.013,0.059L31.069,38.136z M31.036,38.547
						c0.001,0.02,0.004,0.039,0.006,0.058c0.01,0.088,0.027,0.177,0.048,0.266l0.06,0.029c0.01,0.036,0.019,0.073,0.03,0.109
						l-0.051,0.004c0.034,0.113,0.075,0.227,0.124,0.34l0.057,0.013c0.016,0.037,0.035,0.075,0.053,0.113L31.322,39.5
						c0.056,0.114,0.119,0.227,0.188,0.336l0.051-0.004c0.023,0.037,0.047,0.073,0.072,0.109l-0.029,0.037
						c0.074,0.107,0.154,0.21,0.239,0.309l0.041-0.022c0.029,0.033,0.058,0.066,0.088,0.098l-0.015,0.05
						c0.088,0.093,0.179,0.181,0.275,0.263l0.029-0.037c0.031,0.028,0.064,0.054,0.098,0.08v0.06c0.096,0.073,0.194,0.141,0.294,0.2
						l0.015-0.05c0.034,0.02,0.068,0.038,0.102,0.056l0.015,0.066c0.049,0.024,0.098,0.048,0.148,0.07
						c0.049,0.021,0.098,0.04,0.146,0.056v-0.06c0.032,0.011,0.065,0.021,0.098,0.03l0.029,0.069
						c0.069,0.017,0.136,0.03,0.201,0.037l-0.225,0.31l0.125,0.047l0.249-0.173l0.033,0.009l0.856-0.486
						c0.041-0.024,0.252-0.335,0.287-0.367l-0.009-0.014l0.077-0.058c0.049-0.059,0.09-0.126,0.124-0.201l-0.037-0.044l0.076-0.056
						c0.026-0.08,0.044-0.169,0.053-0.264l-0.057-0.051c0.001-0.008,0.001-0.017,0.002-0.026l0.063-0.047
						c0.001-0.081-0.003-0.164-0.013-0.252c-0.002-0.019-0.006-0.039-0.008-0.059l-0.06-0.037c-0.004-0.021-0.008-0.043-0.012-0.064
						l0.047-0.035c-0.023-0.112-0.055-0.225-0.094-0.337l-0.059-0.022c-0.01-0.031-0.022-0.061-0.034-0.091l0.04-0.029
						c-0.047-0.116-0.101-0.231-0.162-0.343l-0.055-0.004c-0.019-0.036-0.039-0.071-0.06-0.105l0.035-0.029
						c-0.068-0.113-0.141-0.222-0.22-0.328l-0.047,0.013c-0.025-0.032-0.05-0.063-0.075-0.095l0.022-0.044
						c-0.083-0.102-0.172-0.2-0.264-0.291l-0.037,0.028c-0.027-0.026-0.055-0.053-0.083-0.079l0.007-0.056
						c-0.094-0.085-0.192-0.165-0.292-0.236l-0.041,0.03c-0.024-0.016-0.046-0.033-0.07-0.048l-0.008-0.064
						c-0.098-0.064-0.199-0.12-0.301-0.167l-0.05,0.037c-0.001,0-0.002-0.001-0.003-0.002c-0.015-0.006-0.03-0.012-0.045-0.018
						l-0.022-0.069c-0.1-0.04-0.199-0.069-0.292-0.088L32.698,37c-0.002-0.001-0.004,0-0.007-0.001l-0.036-0.069
						c-0.093-0.01-0.181-0.011-0.264-0.002l-0.098,0.017c-0.079,0.018-0.495,0.301-0.562,0.339l-0.074,0.055l-0.005-0.005
						l-0.8,0.597l-0.113,0.466l0.304-0.241c-0.012,0.081-0.018,0.164-0.016,0.255l0.06,0.044c0.001,0.032,0.003,0.065,0.006,0.099
						L31.036,38.547z"/>
					<polygon class="st68" points="32.081,37.06 31.653,37.422 30.931,37.882 31.15,37.798 31.864,37.384 32.293,36.945 					"/>
					<polygon class="st68" points="34.365,38.096 34.044,38.718 33.223,38.95 33.443,39.277 34.268,39.042 34.585,38.424 
						34.478,38.257 					"/>
					<polygon class="st68" points="34.002,37.68 33.681,38.301 32.86,38.533 33.124,38.824 33.949,38.588 34.267,37.971 
						34.134,37.816 					"/>
					<polygon class="st68" points="33.598,37.336 33.276,37.957 32.456,38.189 32.748,38.425 33.573,38.19 33.889,37.573 
						33.756,37.453 					"/>
					<polygon class="st68" points="33.177,37.088 32.856,37.709 32.035,37.941 32.337,38.107 33.162,37.872 33.478,37.255 
						33.349,37.172 					"/>
					<polygon class="st68" points="32.766,36.948 32.472,37.47 31.624,37.801 31.916,37.889 32.769,37.554 33.058,37.037 
						32.929,36.987 					"/>
					<polygon class="st68" points="32.391,36.929 32.055,37.361 31.248,37.782 31.512,37.784 32.306,37.423 32.655,36.93 
						32.508,36.922 					"/>
					<polygon points="31.167,37.808 30.638,38.177 30.814,38.39 31.203,38.105 					"/>
					<polygon class="st69" points="31.047,38.125 30.52,38.519 30.696,38.731 31.085,38.447 					"/>
					<polygon class="st69" points="31.034,38.543 30.507,38.936 30.684,39.149 31.072,38.864 					"/>
					<polygon class="st69" points="31.126,39.01 30.599,39.404 30.776,39.616 31.164,39.331 					"/>
					<polygon class="st69" points="31.319,39.497 30.792,39.891 30.969,40.103 31.357,39.819 					"/>
					<path class="st70" d="M33.877,40.686c0.001-0.08-0.003-0.164-0.013-0.252c-0.002-0.019-0.006-0.039-0.008-0.059l-0.06-0.037
						c-0.005-0.035-0.011-0.07-0.018-0.105l0.055,0.004c-0.023-0.112-0.055-0.225-0.094-0.337l-0.058-0.019
						c-0.013-0.036-0.026-0.072-0.04-0.108l0.046-0.012c-0.047-0.115-0.101-0.231-0.162-0.343l-0.055-0.004
						c-0.019-0.036-0.039-0.071-0.06-0.105l0.035-0.029c-0.068-0.113-0.141-0.222-0.22-0.328l-0.047,0.013
						c-0.025-0.033-0.05-0.064-0.075-0.095l0.022-0.044c-0.083-0.102-0.172-0.2-0.264-0.291l-0.035,0.03
						c-0.028-0.027-0.056-0.055-0.085-0.081l0.007-0.056c-0.094-0.085-0.192-0.165-0.292-0.236l-0.022,0.044
						c-0.03-0.021-0.059-0.041-0.09-0.061l-0.008-0.064c-0.098-0.064-0.199-0.12-0.301-0.167L32.028,38
						c-0.015-0.007-0.03-0.014-0.045-0.02s-0.03-0.012-0.045-0.018l-0.022-0.069c-0.1-0.04-0.199-0.069-0.292-0.088l0.008,0.064
						c-0.029-0.006-0.057-0.01-0.085-0.014l-0.036-0.069c-0.093-0.01-0.181-0.011-0.264-0.002l0.022,0.069
						c-0.026,0.003-0.05,0.007-0.074,0.013l-0.046-0.065c-0.078,0.018-0.152,0.045-0.219,0.083l0.036,0.069
						c-0.021,0.012-0.04,0.025-0.059,0.038l-0.055-0.057c-0.061,0.044-0.116,0.1-0.162,0.163l0.046,0.065
						c-0.014,0.019-0.028,0.04-0.04,0.062l-0.06-0.044c-0.039,0.07-0.072,0.147-0.094,0.233l0.054,0.056
						c-0.007,0.026-0.012,0.055-0.018,0.083l-0.06-0.029c-0.015,0.089-0.022,0.184-0.02,0.288l0.06,0.044
						c0.001,0.032,0.003,0.065,0.006,0.099l-0.058-0.013c0.001,0.02,0.004,0.039,0.006,0.058c0.01,0.088,0.027,0.177,0.048,0.266
						l0.06,0.029c0.01,0.036,0.019,0.073,0.03,0.109l-0.051,0.004c0.034,0.113,0.075,0.227,0.124,0.34l0.057,0.013
						c0.016,0.037,0.035,0.075,0.053,0.113l-0.041,0.021c0.056,0.114,0.119,0.227,0.188,0.336l0.051-0.004
						c0.023,0.037,0.047,0.073,0.072,0.109l-0.029,0.037c0.074,0.107,0.154,0.21,0.239,0.309l0.041-0.022
						c0.029,0.033,0.058,0.066,0.088,0.098l-0.015,0.05c0.088,0.093,0.179,0.181,0.275,0.263l0.029-0.037
						c0.031,0.028,0.064,0.054,0.098,0.08v0.06c0.096,0.073,0.194,0.141,0.294,0.2l0.015-0.05c0.034,0.02,0.068,0.038,0.102,0.056
						l0.015,0.066c0.049,0.024,0.098,0.048,0.148,0.07c0.049,0.021,0.098,0.04,0.146,0.056v-0.06
						c0.032,0.011,0.065,0.021,0.098,0.03l0.029,0.069c0.096,0.025,0.187,0.04,0.275,0.044l-0.015-0.066
						c0.03,0.001,0.06,0.001,0.089-0.001l0.042,0.067c0.084-0.004,0.165-0.018,0.239-0.042l-0.029-0.07
						c0.025-0.008,0.05-0.018,0.073-0.029l0.051,0.061c0.07-0.033,0.132-0.075,0.188-0.126l-0.042-0.067
						c0.019-0.017,0.036-0.036,0.053-0.055l0.057,0.051c0.049-0.059,0.09-0.126,0.124-0.201l-0.051-0.061
						c0.011-0.025,0.02-0.051,0.03-0.078l0.06,0.037c0.026-0.08,0.044-0.169,0.053-0.264l-0.057-0.051
						c0.003-0.031,0.005-0.062,0.006-0.095L33.877,40.686z"/>
					<path class="st71" d="M33.651,40.376c0.104,0.882-0.476,1.31-1.298,0.958c-0.822-0.353-1.572-1.354-1.677-2.236
						c-0.104-0.882,0.476-1.31,1.298-0.958C32.795,38.492,33.546,39.493,33.651,40.376z"/>
					<path class="st70" d="M33.229,40.194c0.075,0.633-0.342,0.94-0.931,0.688c-0.588-0.252-1.127-0.97-1.202-1.603
						s0.342-0.94,0.931-0.688C32.617,38.844,33.154,39.561,33.229,40.194z"/>
				</g>
				<path class="st72" d="M31.228,39.335c0.066,0.554,0.538,1.184,1.054,1.405c0.516,0.221,0.882-0.048,0.816-0.603
					c-0.066-0.554-0.537-1.184-1.054-1.405C31.527,38.511,31.162,38.78,31.228,39.335z"/>
				<path class="st73" d="M32.977,40.086c0.057,0.482-0.261,0.719-0.711,0.525c-0.451-0.194-0.862-0.742-0.919-1.226
					c-0.056-0.47,0.246-0.708,0.681-0.535c0.01,0.002,0.02,0.006,0.031,0.011c0.437,0.187,0.837,0.71,0.911,1.184
					C32.974,40.059,32.976,40.072,32.977,40.086z"/>
				<path class="st74" d="M32.971,40.046l-0.238,0.202l-0.707-0.374l-0.26-0.785l0.263-0.24c0.01,0.002,0.02,0.006,0.031,0.011
					C32.496,39.048,32.897,39.571,32.971,40.046z"/>
				<path class="st74" d="M32.685,40.315c-0.45-0.193-0.862-0.742-0.919-1.225c-0.014-0.113-0.006-0.211,0.018-0.295
					c-0.297-0.011-0.481,0.214-0.436,0.591c0.057,0.483,0.468,1.031,0.919,1.225c0.345,0.148,0.612,0.044,0.692-0.23
					C32.876,40.378,32.783,40.358,32.685,40.315z"/>
				<path class="st75" d="M31.699,39.414c0.04,0.336,0.326,0.717,0.639,0.852s0.534-0.029,0.494-0.365
					c-0.04-0.336-0.326-0.717-0.639-0.852C31.881,38.914,31.659,39.077,31.699,39.414z"/>
				<path class="st76" d="M31.918,39.548c0.021,0.179,0.173,0.382,0.34,0.454s0.285-0.016,0.264-0.194
					c-0.021-0.179-0.173-0.382-0.34-0.454S31.897,39.369,31.918,39.548z"/>
				<path class="st72" d="M31.903,39.621c0.017,0.146,0.142,0.311,0.277,0.369c0.135,0.058,0.231-0.013,0.214-0.159
					c-0.017-0.146-0.142-0.311-0.277-0.369C31.981,39.404,31.885,39.475,31.903,39.621z"/>
			</g>
		</g>
		<polygon class="st77" points="32.071,39.13 33.296,39.721 30.647,41.519 28.974,42.665 27.75,42.075 		"/>
		<polygon class="st77" points="23.243,36.108 24.468,36.697 21.82,38.496 20.147,39.642 18.922,39.053 		"/>
		<polygon class="st77" points="27.653,37.715 28.878,38.305 26.23,40.103 24.556,41.25 23.332,40.659 		"/>
		<polygon points="25.33,40.996 26.514,40.45 29.118,41.439 29.51,41.26 26.22,38.948 25.149,39.47 		"/>
		<path class="st78" d="M31.338,39.497c0.232-0.305,0.238-0.771,0.473-1.074L26.5,36.658l-4.406-1.831l-0.914,0.948l-0.674,0.7
			l-2.982,0.332l1.136,1.484l6.671,2.706c0,0,0.734-1.238,0.776-1.297c0.213-0.296,3.338,1.095,3.448,1.121
			c0.162-0.104,0.588-1.537,0.782-1.584C30.649,38.702,30.964,39.991,31.338,39.497z"/>
		<polygon points="25.536,40.647 19.142,38.144 19.208,37.886 25.649,40.459 		"/>
		<path class="st79" d="M27.927,39.77l-7.494-2.973l-5.455-2.504l1.164,1.573l0.963,0.814l8.103,3.307
			C25.249,39.91,27.828,39.637,27.927,39.77z"/>
		<path class="st37" d="M26.384,36.646l-5.32-0.884l-6.086-1.468l0.358,1.166l0.807,0.407l2.145,0.939l5.668,2.37l5.556,2.083
			c2.02-3.678,2.263-3.435,2.948-4.155L26.384,36.646z"/>
		<polygon class="st80" points="19.468,31.254 16.227,33.674 21.799,34.694 24.799,32.452 		"/>
		<polygon class="st36" points="19.093,31.25 18.875,31.697 24.019,33.035 24.341,31.749 		"/>
		<polygon class="st81" points="34.107,38.409 32.659,39.712 30.812,40.863 30.374,39.183 32.031,38.025 33.51,36.759 		"/>
		<polygon class="st82" points="32.283,38.089 32.569,39.69 30.812,40.863 30.374,39.183 		"/>
		<polygon class="st83" points="23.406,32.381 18.887,35.176 29.08,39.561 30.374,39.183 32.031,38.025 33.51,36.759 33.739,36.08 
					"/>
		<polygon class="st72" points="33.739,36.08 33.405,36.06 31.174,34.511 24.686,31.492 19.637,30.813 19.093,31.25 24.341,31.749 
			24.625,31.469 32.676,35.379 		"/>
		<polygon class="st84" points="23.406,32.381 18.887,35.176 29.08,39.561 30.374,39.183 32.283,38.089 33.101,37.202 33.51,36.759 
			33.739,36.08 33.405,36.06 		"/>
		<polygon class="st85" points="29.08,39.561 14.978,34.294 16.092,33.491 21.462,33.88 21.801,33.556 28.552,36.298 28.443,36.672 
					"/>
		<polygon class="st86" points="28.443,36.672 27.667,36.356 27.076,37.018 27.495,37.997 28.037,38.202 28.485,38.912 
			29.356,39.149 		"/>
		<polygon class="st87" points="27.725,36.384 27.205,37.003 27.599,37.921 28.161,38.143 28.284,38.358 29.019,38.575 
			29.056,38.691 28.176,38.422 28.037,38.202 27.495,37.997 27.076,37.018 27.667,36.356 		"/>
		<polygon class="st88" points="24.625,31.469 21.801,33.556 28.552,36.298 29.029,36.156 31.179,34.551 31.326,34.113 		"/>
		<polygon class="st89" points="30.812,40.863 30.374,39.183 29.08,39.561 29.51,41.26 		"/>
		<polygon class="st89" points="33.739,36.08 34.13,37.778 34.107,38.409 33.51,36.759 		"/>
		<polygon class="st90" points="29.08,39.561 27.888,38.75 29.356,39.149 		"/>
		<polygon class="st91" points="33.405,36.06 32.853,36.98 30.998,38.396 29.356,39.149 28.549,36.643 29.029,36.156 31.179,34.551 
			31.326,34.113 		"/>
		<polygon class="st80" points="33.118,35.792 32.575,36.722 30.697,38.077 29.154,38.721 28.176,38.422 28.485,38.912 
			29.357,39.149 30.998,38.396 32.853,36.98 33.405,36.06 		"/>
		<polygon class="st87" points="33.08,35.857 31.582,34.456 31.563,34.524 33.04,35.927 		"/>
		<polygon class="st80" points="28.443,36.672 29.182,36.468 31.499,34.737 31.607,34.376 31.326,34.113 31.179,34.551 
			29.029,36.156 28.552,36.298 		"/>
		<polygon class="st80" points="29.456,39.102 29.357,39.149 29.216,39.11 28.297,36.613 28.443,36.671 28.549,36.643 		"/>
		<polygon class="st80" points="33.405,36.06 33.367,36.124 31.582,34.456 31.607,34.376 		"/>
		<polygon class="st92" points="21.462,33.88 28.443,36.671 28.552,36.298 21.801,33.556 		"/>
		<g>
			<g>
				<g>
					<path class="st67" d="M16.866,38.356l0.051-0.04c-0.005,0.019-0.009,0.039-0.013,0.059L16.866,38.356z M16.832,38.766
						c0.001,0.02,0.004,0.039,0.006,0.058c0.01,0.088,0.027,0.177,0.048,0.266l0.06,0.029c0.01,0.036,0.019,0.073,0.03,0.109
						l-0.051,0.004c0.034,0.113,0.075,0.227,0.124,0.34l0.057,0.013c0.016,0.037,0.035,0.075,0.053,0.113l-0.041,0.021
						c0.056,0.114,0.119,0.227,0.188,0.336l0.051-0.004c0.023,0.037,0.047,0.073,0.072,0.109L17.4,40.197
						c0.074,0.107,0.154,0.21,0.239,0.309l0.041-0.022c0.029,0.033,0.058,0.066,0.088,0.098l-0.015,0.05
						c0.088,0.093,0.179,0.181,0.275,0.263l0.029-0.037c0.031,0.028,0.064,0.054,0.098,0.08v0.06c0.096,0.073,0.194,0.141,0.294,0.2
						l0.015-0.05c0.034,0.02,0.068,0.038,0.102,0.056l0.015,0.066c0.049,0.024,0.098,0.048,0.148,0.07
						c0.049,0.021,0.098,0.04,0.146,0.056v-0.06c0.032,0.011,0.065,0.021,0.098,0.03l0.029,0.069
						c0.069,0.017,0.136,0.03,0.201,0.037l-0.225,0.31l0.125,0.047l0.249-0.173l0.033,0.009c0.098,0.028,0.322-0.169,0.413-0.218
						c0.16-0.086,0.314-0.189,0.446-0.314c0.128-0.121,0.211-0.288,0.352-0.393c0.049-0.059,0.09-0.126,0.124-0.201l-0.037-0.044
						l0.076-0.056c0.026-0.08,0.044-0.169,0.053-0.264c0,0-0.057-0.05-0.056-0.076l0.063-0.047c0.001-0.081-0.003-0.164-0.013-0.252
						c-0.002-0.019-0.006-0.039-0.008-0.059l-0.06-0.037c-0.004-0.021-0.008-0.043-0.012-0.064l0.047-0.035
						c-0.023-0.112-0.055-0.225-0.094-0.337l-0.059-0.022c-0.01-0.031-0.022-0.061-0.034-0.091l0.04-0.029
						c-0.047-0.116-0.101-0.231-0.162-0.343l-0.055-0.004c-0.019-0.036-0.039-0.071-0.06-0.105l0.035-0.029
						c-0.068-0.113-0.141-0.222-0.22-0.328l-0.047,0.013c-0.025-0.032-0.05-0.063-0.075-0.095l0.022-0.044
						c-0.083-0.102-0.172-0.2-0.264-0.291l-0.037,0.026c-0.027-0.026-0.055-0.053-0.083-0.079l0.007-0.056
						c-0.094-0.085-0.192-0.165-0.292-0.236l-0.042,0.031c-0.024-0.016-0.046-0.033-0.07-0.048l-0.008-0.064
						c-0.098-0.064-0.199-0.12-0.301-0.167c0,0-0.049,0.037-0.052,0.036c-0.015-0.006-0.03-0.012-0.045-0.018l-0.022-0.069
						c-0.1-0.04-0.199-0.069-0.292-0.088c0,0-0.07,0.052-0.076,0.051l-0.036-0.069c-0.093-0.01-0.181-0.011-0.264-0.002
						l-0.098,0.017c-0.079,0.018-0.495,0.301-0.562,0.339c0,0-0.073,0.055-0.078,0.05l-0.8,0.597l-0.113,0.466l0.303-0.24
						c-0.012,0.081-0.018,0.164-0.016,0.255l0.06,0.044c0.001,0.032,0.003,0.066,0.006,0.099L16.832,38.766z"/>
					<polygon class="st67" points="17.878,37.28 17.451,37.642 16.727,38.101 16.947,38.018 17.66,37.603 18.089,37.164 					"/>
					<polygon points="16.964,38.027 16.434,38.396 16.611,38.608 17,38.324 					"/>
					<polygon points="16.843,38.345 16.316,38.738 16.493,38.951 16.881,38.666 					"/>
					<polygon points="16.83,38.762 16.303,39.156 16.48,39.368 16.868,39.083 					"/>
					<polygon points="16.923,39.229 16.395,39.622 16.573,39.835 16.961,39.55 					"/>
					<polygon class="st69" points="17.116,39.717 16.59,40.11 16.766,40.323 17.154,40.038 					"/>
					<path class="st70" d="M19.675,40.905c0.001-0.081-0.003-0.164-0.013-0.252c-0.002-0.019-0.006-0.039-0.008-0.059l-0.06-0.037
						c-0.005-0.035-0.011-0.07-0.018-0.105l0.055,0.004c-0.023-0.112-0.055-0.225-0.094-0.337l-0.059-0.022
						c-0.013-0.036-0.026-0.072-0.04-0.108l0.046-0.012c-0.047-0.115-0.101-0.231-0.162-0.343l-0.055-0.004
						c-0.019-0.036-0.039-0.071-0.06-0.105l0.035-0.029c-0.068-0.113-0.141-0.222-0.22-0.328l-0.047,0.013
						c-0.025-0.032-0.05-0.064-0.075-0.095l0.022-0.044c-0.083-0.102-0.172-0.2-0.264-0.291l-0.035,0.03
						c-0.028-0.027-0.056-0.055-0.085-0.081l0.007-0.056c-0.094-0.085-0.192-0.165-0.292-0.236l-0.022,0.044
						c-0.03-0.021-0.059-0.041-0.09-0.061l-0.008-0.064c-0.098-0.064-0.199-0.12-0.301-0.167l-0.007,0.056
						c-0.015-0.007-0.03-0.014-0.045-0.02s-0.03-0.012-0.045-0.018l-0.022-0.069c-0.1-0.04-0.198-0.07-0.292-0.088l0.008,0.064
						c-0.029-0.006-0.057-0.01-0.085-0.014l-0.036-0.069c-0.093-0.01-0.181-0.011-0.264-0.002l0.023,0.069
						c-0.026,0.003-0.05,0.007-0.074,0.013l-0.046-0.065c-0.078,0.018-0.152,0.045-0.219,0.083l0.036,0.069
						c-0.021,0.012-0.04,0.025-0.059,0.038L16.65,38.15c-0.061,0.044-0.116,0.1-0.162,0.163l0.046,0.065
						c-0.014,0.019-0.028,0.04-0.04,0.062l-0.06-0.044c-0.039,0.07-0.072,0.147-0.094,0.233l0.054,0.056
						c-0.007,0.026-0.012,0.055-0.018,0.083l-0.06-0.029c-0.015,0.089-0.022,0.184-0.02,0.288l0.06,0.044
						c0.001,0.032,0.003,0.066,0.006,0.099l-0.058-0.013c0.001,0.02,0.004,0.039,0.006,0.058c0.01,0.088,0.027,0.177,0.048,0.266
						l0.06,0.029c0.01,0.036,0.019,0.073,0.03,0.109l-0.052,0.003c0.034,0.113,0.075,0.227,0.124,0.34l0.057,0.013
						c0.016,0.037,0.035,0.075,0.053,0.113l-0.041,0.021c0.056,0.114,0.119,0.227,0.188,0.336l0.051-0.004
						c0.023,0.037,0.047,0.073,0.072,0.109l-0.03,0.039c0.074,0.107,0.154,0.21,0.239,0.309l0.041-0.022
						c0.029,0.033,0.058,0.066,0.088,0.098l-0.015,0.05c0.088,0.093,0.179,0.181,0.275,0.263l0.029-0.037
						c0.032,0.027,0.064,0.054,0.098,0.08v0.06c0.096,0.073,0.194,0.141,0.294,0.2l0.015-0.05c0.034,0.02,0.068,0.038,0.102,0.056
						l0.015,0.066c0.049,0.024,0.098,0.048,0.148,0.07c0.049,0.021,0.098,0.04,0.146,0.056v-0.06
						c0.032,0.011,0.065,0.021,0.098,0.03l0.029,0.069c0.096,0.025,0.187,0.04,0.275,0.044l-0.015-0.067
						c0.03,0.001,0.06,0.001,0.089-0.001l0.042,0.067c0.084-0.004,0.165-0.018,0.239-0.042l-0.029-0.07
						c0.025-0.008,0.05-0.018,0.073-0.029l0.051,0.061c0.07-0.033,0.132-0.075,0.188-0.126l-0.042-0.067
						c0.019-0.017,0.036-0.036,0.053-0.055l0.057,0.051c0.049-0.059,0.09-0.126,0.124-0.201l-0.051-0.061
						c0.011-0.025,0.02-0.051,0.03-0.078l0.06,0.037c0.026-0.08,0.044-0.169,0.053-0.264l-0.057-0.051
						c0.003-0.031,0.005-0.062,0.006-0.095L19.675,40.905z"/>
					
						<ellipse transform="matrix(0.7979 -0.6028 0.6028 0.7979 -20.4554 18.9011)" class="st71" cx="17.959" cy="39.956" rx="1.141" ry="1.976"/>
					<path class="st70" d="M19.025,40.414c0.075,0.633-0.342,0.94-0.931,0.688c-0.588-0.252-1.127-0.97-1.202-1.603
						s0.342-0.94,0.931-0.688C18.413,39.063,18.95,39.781,19.025,40.414z"/>
				</g>
				<path class="st36" d="M17.025,39.554c0.066,0.554,0.538,1.184,1.054,1.405s0.882-0.048,0.816-0.603
					c-0.066-0.554-0.537-1.184-1.054-1.405C17.324,38.729,16.959,39,17.025,39.554z"/>
				<path class="st36" d="M18.774,40.305c0.057,0.482-0.261,0.719-0.711,0.525c-0.451-0.194-0.862-0.742-0.919-1.226
					c-0.056-0.47,0.246-0.708,0.681-0.535c0.01,0.002,0.02,0.006,0.031,0.011c0.437,0.187,0.837,0.71,0.911,1.184
					C18.77,40.279,18.772,40.292,18.774,40.305z"/>
				<path class="st37" d="M17.496,39.632c0.04,0.336,0.326,0.717,0.639,0.852s0.534-0.029,0.494-0.365
					c-0.04-0.336-0.326-0.717-0.639-0.852C17.677,39.132,17.456,39.296,17.496,39.632z"/>
			</g>
			<g>
				<g>
					<path class="st67" d="M21.229,40.204l0.051-0.04c-0.005,0.019-0.009,0.039-0.013,0.059L21.229,40.204z M21.195,40.612
						c0.001,0.02,0.004,0.039,0.006,0.058c0.01,0.088,0.027,0.177,0.048,0.266l0.06,0.029c0.01,0.036,0.019,0.073,0.03,0.109
						l-0.051,0.004c0.034,0.113,0.075,0.227,0.124,0.34l0.057,0.013c0.016,0.037,0.035,0.075,0.053,0.113l-0.041,0.021
						c0.056,0.114,0.119,0.227,0.188,0.336l0.051-0.004c0.023,0.037,0.047,0.073,0.072,0.109l-0.029,0.037
						c0.074,0.107,0.154,0.21,0.239,0.309l0.041-0.022c0.029,0.033,0.058,0.066,0.088,0.098l-0.015,0.05
						c0.088,0.093,0.179,0.181,0.275,0.263l0.029-0.037c0.031,0.028,0.064,0.054,0.098,0.08v0.06c0.096,0.073,0.194,0.141,0.294,0.2
						l0.015-0.05c0.034,0.02,0.068,0.038,0.102,0.056l0.015,0.066c0.049,0.024,0.098,0.048,0.148,0.07
						c0.049,0.021,0.098,0.04,0.146,0.056v-0.06c0.032,0.011,0.065,0.021,0.098,0.03l0.029,0.069
						c0.069,0.017,0.136,0.03,0.201,0.037l-0.225,0.31l0.125,0.047l0.249-0.173c0,0,0.033,0.01,0.033,0.009
						c0.112-0.064,1.264-0.658,1.134-0.867l0.077-0.058c0.049-0.059,0.09-0.126,0.124-0.201l-0.037-0.044l0.076-0.056
						c0.026-0.08,0.044-0.169,0.053-0.264c0,0-0.057-0.05-0.056-0.076l0.063-0.047c0.001-0.08-0.003-0.164-0.013-0.252
						c-0.002-0.019-0.006-0.039-0.008-0.059l-0.06-0.037c-0.004-0.021-0.008-0.043-0.012-0.064l0.047-0.035
						c-0.023-0.112-0.055-0.225-0.094-0.337l-0.059-0.022c-0.01-0.031-0.022-0.061-0.034-0.091l0.04-0.029
						c-0.047-0.116-0.101-0.231-0.162-0.343l-0.055-0.004c-0.019-0.036-0.039-0.071-0.06-0.105l0.035-0.029
						c-0.068-0.113-0.141-0.222-0.22-0.328l-0.047,0.013c-0.025-0.032-0.05-0.063-0.075-0.095l0.022-0.044
						c-0.083-0.102-0.172-0.2-0.264-0.291l-0.037,0.028c-0.027-0.026-0.055-0.053-0.083-0.079l0.007-0.056
						c-0.094-0.085-0.192-0.165-0.292-0.236l-0.042,0.031c-0.024-0.016-0.046-0.033-0.07-0.048l-0.008-0.064
						c-0.098-0.064-0.199-0.12-0.301-0.167c0,0-0.049,0.037-0.052,0.036c-0.015-0.006-0.03-0.012-0.045-0.018l-0.022-0.069
						c-0.1-0.04-0.199-0.069-0.292-0.088c0,0-0.07,0.052-0.076,0.051l-0.036-0.069c-0.093-0.01-0.181-0.011-0.264-0.002
						l-0.098,0.017c-0.079,0.018-0.495,0.301-0.562,0.339c0,0-0.073,0.055-0.078,0.05l-0.8,0.597l-0.113,0.466l0.304-0.241
						c-0.012,0.081-0.018,0.164-0.016,0.255l0.06,0.044c0.001,0.032,0.003,0.065,0.006,0.099L21.195,40.612z"/>
					<polygon points="21.328,39.875 20.798,40.244 20.975,40.456 21.363,40.172 					"/>
					<polygon class="st93" points="21.207,40.193 20.68,40.585 20.856,40.799 21.245,40.513 					"/>
					<polygon class="st93" points="21.194,40.609 20.667,41.003 20.843,41.215 21.232,40.931 					"/>
					<polygon class="st93" points="21.287,41.077 20.76,41.47 20.936,41.683 21.325,41.399 					"/>
					<polygon class="st69" points="21.48,41.564 20.953,41.958 21.13,42.17 21.518,41.886 					"/>
					<path class="st70" d="M24.038,42.753c0.001-0.08-0.003-0.164-0.013-0.252c-0.002-0.019-0.006-0.039-0.008-0.059l-0.06-0.037
						c-0.005-0.035-0.011-0.07-0.018-0.105l0.055,0.004c-0.023-0.112-0.055-0.225-0.094-0.337l-0.058-0.02
						c-0.013-0.036-0.026-0.072-0.04-0.108l0.046-0.012c-0.047-0.115-0.101-0.231-0.162-0.343l-0.055-0.004
						c-0.019-0.036-0.039-0.071-0.06-0.105l0.035-0.029c-0.068-0.113-0.141-0.222-0.22-0.328l-0.047,0.013
						c-0.025-0.032-0.05-0.063-0.075-0.095l0.022-0.044c-0.083-0.102-0.172-0.2-0.264-0.291l-0.035,0.03
						c-0.028-0.027-0.056-0.055-0.085-0.081l0.007-0.056c-0.094-0.085-0.192-0.165-0.292-0.236l-0.024,0.043
						c-0.03-0.021-0.059-0.041-0.09-0.061l-0.008-0.064c-0.098-0.064-0.199-0.12-0.301-0.167l-0.007,0.056
						c-0.015-0.007-0.03-0.014-0.045-0.02s-0.03-0.012-0.045-0.018l-0.022-0.069c-0.1-0.04-0.198-0.07-0.292-0.088l0.008,0.064
						c-0.029-0.006-0.057-0.01-0.085-0.014l-0.036-0.069c-0.093-0.01-0.181-0.011-0.264-0.002l0.022,0.069
						c-0.026,0.003-0.05,0.007-0.074,0.013l-0.046-0.065c-0.078,0.018-0.152,0.045-0.219,0.083l0.036,0.069
						c-0.021,0.012-0.04,0.025-0.059,0.038l-0.055-0.057c-0.061,0.044-0.116,0.1-0.162,0.163l0.046,0.065
						c-0.014,0.019-0.028,0.04-0.04,0.062l-0.06-0.044c-0.039,0.07-0.072,0.147-0.094,0.233l0.054,0.056
						c-0.007,0.026-0.012,0.055-0.018,0.083l-0.06-0.029c-0.015,0.089-0.022,0.184-0.02,0.288l0.06,0.044
						c0.001,0.032,0.003,0.065,0.006,0.099l-0.058-0.013c0.001,0.02,0.004,0.039,0.006,0.058c0.01,0.088,0.027,0.177,0.048,0.266
						l0.06,0.029c0.01,0.036,0.019,0.073,0.03,0.109l-0.051,0.004c0.034,0.113,0.075,0.227,0.124,0.34l0.057,0.013
						c0.016,0.037,0.035,0.075,0.053,0.113l-0.041,0.021c0.056,0.114,0.119,0.227,0.188,0.336l0.051-0.004
						c0.023,0.037,0.047,0.073,0.072,0.109l-0.029,0.037c0.074,0.107,0.154,0.21,0.239,0.309l0.041-0.022
						c0.029,0.033,0.058,0.066,0.088,0.098l-0.015,0.05c0.088,0.093,0.179,0.181,0.275,0.263l0.029-0.037
						c0.031,0.028,0.064,0.054,0.098,0.08v0.06c0.096,0.073,0.194,0.141,0.294,0.2l0.015-0.05c0.034,0.02,0.068,0.038,0.102,0.056
						l0.015,0.066c0.049,0.024,0.098,0.048,0.148,0.07c0.049,0.021,0.098,0.04,0.146,0.056v-0.06
						c0.032,0.011,0.065,0.021,0.098,0.03l0.029,0.069c0.096,0.025,0.187,0.04,0.275,0.044l-0.015-0.067
						c0.03,0.001,0.06,0.001,0.089-0.001l0.042,0.067c0.084-0.004,0.165-0.018,0.239-0.042l-0.029-0.07
						c0.025-0.008,0.05-0.018,0.073-0.029l0.051,0.061c0.07-0.033,0.132-0.075,0.188-0.126l-0.042-0.067
						c0.019-0.017,0.036-0.036,0.053-0.055l0.057,0.051c0.049-0.059,0.09-0.126,0.124-0.201l-0.051-0.061
						c0.011-0.025,0.02-0.051,0.03-0.078l0.06,0.037c0.026-0.08,0.044-0.169,0.053-0.264l-0.057-0.051
						c0.003-0.031,0.005-0.062,0.006-0.095L24.038,42.753z"/>
					<path class="st71" d="M23.81,42.442c0.104,0.882-0.476,1.31-1.298,0.958c-0.822-0.353-1.572-1.354-1.677-2.236
						c-0.104-0.882,0.476-1.31,1.298-0.958C22.955,40.559,23.705,41.56,23.81,42.442z"/>
					<path class="st70" d="M23.389,42.261c0.075,0.633-0.342,0.94-0.931,0.688c-0.588-0.252-1.127-0.97-1.202-1.603
						s0.342-0.94,0.931-0.688C22.776,40.911,23.314,41.629,23.389,42.261z"/>
				</g>
				<path class="st36" d="M21.389,41.402c0.066,0.554,0.537,1.184,1.054,1.405c0.516,0.221,0.882-0.048,0.816-0.603
					c-0.066-0.554-0.537-1.184-1.054-1.405S21.323,40.848,21.389,41.402z"/>
				<path class="st36" d="M23.138,42.153c0.057,0.482-0.261,0.719-0.711,0.525c-0.451-0.194-0.862-0.742-0.919-1.226
					c-0.056-0.47,0.246-0.708,0.681-0.535c0.01,0.002,0.02,0.006,0.031,0.011c0.437,0.186,0.837,0.71,0.911,1.183
					C23.135,42.126,23.136,42.14,23.138,42.153z"/>
				<path class="st37" d="M21.86,41.48c0.04,0.336,0.326,0.717,0.639,0.852s0.534-0.029,0.494-0.365
					c-0.04-0.336-0.326-0.717-0.639-0.852C22.04,40.981,21.819,41.144,21.86,41.48z"/>
			</g>
			<g>
				<g>
					<path class="st67" d="M25.593,42.051l0.051-0.04c-0.005,0.019-0.009,0.039-0.013,0.059L25.593,42.051z M25.56,42.461
						c0.001,0.02,0.004,0.039,0.006,0.058c0.01,0.088,0.027,0.177,0.048,0.266l0.06,0.029c0.01,0.036,0.019,0.073,0.03,0.109
						l-0.051,0.004c0.034,0.113,0.075,0.227,0.124,0.34l0.057,0.013c0.016,0.037,0.035,0.075,0.053,0.113l-0.041,0.021
						c0.056,0.114,0.119,0.227,0.188,0.336l0.051-0.004c0.023,0.037,0.047,0.073,0.072,0.109l-0.029,0.037
						c0.074,0.107,0.154,0.21,0.239,0.309l0.041-0.022c0.029,0.033,0.058,0.066,0.088,0.098l-0.015,0.05
						c0.088,0.093,0.179,0.181,0.275,0.263l0.029-0.037c0.031,0.028,0.064,0.054,0.098,0.08v0.06c0.096,0.073,0.194,0.141,0.294,0.2
						l0.015-0.05c0.034,0.02,0.068,0.038,0.102,0.056l0.015,0.066c0.049,0.024,0.098,0.048,0.148,0.07
						c0.049,0.021,0.098,0.04,0.146,0.056v-0.06c0.032,0.011,0.065,0.021,0.098,0.03l0.029,0.069
						c0.069,0.017,0.136,0.03,0.201,0.037l-0.225,0.31l0.125,0.047l0.249-0.173l0.033,0.009l0.856-0.486
						c0.041-0.024,0.252-0.335,0.287-0.367l-0.009-0.014l0.077-0.058c0.049-0.059,0.09-0.126,0.124-0.201l-0.037-0.044l0.076-0.056
						c0.026-0.08,0.044-0.169,0.053-0.264l-0.057-0.051c0.001-0.008,0.001-0.017,0.002-0.026l0.063-0.047
						c0.001-0.081-0.003-0.164-0.013-0.252c-0.002-0.019-0.006-0.039-0.008-0.059l-0.06-0.037c-0.004-0.021-0.008-0.043-0.012-0.064
						l0.047-0.035c-0.023-0.112-0.055-0.225-0.094-0.337l-0.059-0.022c-0.01-0.031-0.022-0.061-0.034-0.091l0.04-0.029
						c-0.047-0.116-0.101-0.231-0.162-0.343l-0.055-0.004c-0.019-0.036-0.039-0.071-0.06-0.105l0.035-0.029
						c-0.068-0.113-0.141-0.222-0.22-0.328l-0.047,0.012c-0.025-0.032-0.05-0.063-0.075-0.095l0.022-0.044
						c-0.083-0.102-0.172-0.2-0.264-0.291l-0.037,0.028c-0.027-0.026-0.055-0.053-0.083-0.079l0.007-0.056
						c-0.094-0.085-0.192-0.165-0.292-0.236l-0.042,0.031c-0.024-0.016-0.046-0.033-0.07-0.048l-0.008-0.064
						c-0.098-0.064-0.199-0.12-0.301-0.167l-0.05,0.037c-0.001-0.001-0.002-0.001-0.003-0.002c-0.015-0.006-0.03-0.012-0.045-0.018
						l-0.022-0.069c-0.1-0.04-0.199-0.069-0.292-0.088l-0.07,0.052c-0.002-0.001-0.004,0-0.007-0.001l-0.036-0.069
						c-0.093-0.01-0.181-0.011-0.264-0.002l-0.098,0.017c-0.079,0.018-0.495,0.301-0.562,0.339l-0.074,0.055l-0.005-0.003
						l-0.8,0.597l-0.113,0.466l0.304-0.241c-0.012,0.081-0.018,0.164-0.016,0.255l0.06,0.044c0.001,0.032,0.003,0.066,0.006,0.099
						L25.56,42.461z"/>
					<polygon points="25.692,41.722 25.162,42.092 25.339,42.305 25.727,42.019 					"/>
					<polygon class="st69" points="25.571,42.04 25.043,42.433 25.221,42.646 25.609,42.361 					"/>
					<polygon class="st69" points="25.558,42.457 25.031,42.851 25.207,43.064 25.596,42.779 					"/>
					<polygon class="st69" points="25.65,42.924 25.124,43.318 25.3,43.531 25.688,43.246 					"/>
					<polygon class="st69" points="25.843,43.412 25.317,43.806 25.493,44.018 25.882,43.734 					"/>
					<path class="st70" d="M28.402,44.602c0.001-0.08-0.003-0.164-0.013-0.252c-0.002-0.019-0.006-0.039-0.008-0.059l-0.06-0.037
						c-0.005-0.035-0.011-0.07-0.018-0.105l0.055,0.004c-0.023-0.112-0.055-0.225-0.094-0.337l-0.059-0.022
						c-0.013-0.036-0.026-0.072-0.04-0.108l0.046-0.012c-0.047-0.115-0.101-0.231-0.162-0.343l-0.055-0.004
						c-0.019-0.036-0.039-0.071-0.06-0.105l0.035-0.029c-0.068-0.113-0.141-0.222-0.22-0.328l-0.047,0.013
						c-0.025-0.032-0.05-0.063-0.075-0.095l0.022-0.044c-0.083-0.102-0.172-0.2-0.264-0.291l-0.035,0.03
						c-0.028-0.027-0.056-0.055-0.085-0.081l0.007-0.056c-0.094-0.085-0.192-0.165-0.292-0.236l-0.022,0.044
						c-0.03-0.021-0.059-0.041-0.09-0.061l-0.008-0.064c-0.098-0.064-0.199-0.12-0.301-0.167l-0.007,0.056
						c-0.015-0.007-0.03-0.014-0.045-0.02s-0.03-0.012-0.045-0.018l-0.022-0.069c-0.1-0.04-0.199-0.069-0.292-0.088l0.008,0.064
						c-0.029-0.006-0.057-0.01-0.085-0.014l-0.036-0.069c-0.093-0.01-0.181-0.011-0.264-0.002l0.022,0.069
						c-0.026,0.003-0.05,0.007-0.074,0.013l-0.046-0.065c-0.078,0.018-0.152,0.045-0.219,0.083l0.036,0.069
						c-0.021,0.012-0.04,0.025-0.059,0.038l-0.055-0.057c-0.061,0.044-0.116,0.1-0.162,0.163l0.046,0.065
						c-0.014,0.019-0.028,0.04-0.04,0.062l-0.06-0.044c-0.039,0.07-0.072,0.147-0.094,0.233l0.054,0.056
						c-0.007,0.026-0.012,0.055-0.018,0.083l-0.06-0.029c-0.015,0.089-0.022,0.184-0.02,0.288l0.06,0.044
						c0.001,0.032,0.003,0.065,0.006,0.099l-0.058-0.013c0.001,0.02,0.004,0.039,0.006,0.058c0.01,0.088,0.027,0.177,0.048,0.266
						l0.06,0.029c0.01,0.036,0.019,0.073,0.03,0.109l-0.051,0.004c0.034,0.113,0.075,0.227,0.124,0.34l0.057,0.013
						c0.016,0.037,0.035,0.075,0.053,0.113l-0.041,0.021c0.056,0.114,0.119,0.227,0.188,0.336l0.051-0.004
						c0.023,0.037,0.047,0.073,0.072,0.109l-0.029,0.037c0.074,0.107,0.154,0.21,0.239,0.309l0.041-0.022
						c0.029,0.033,0.058,0.066,0.088,0.098l-0.015,0.05c0.088,0.093,0.179,0.181,0.275,0.263l0.029-0.037
						c0.031,0.028,0.064,0.054,0.098,0.08v0.06c0.096,0.073,0.194,0.141,0.294,0.2l0.015-0.05c0.034,0.02,0.068,0.038,0.102,0.056
						l0.015,0.066c0.049,0.024,0.098,0.048,0.148,0.07c0.049,0.021,0.098,0.04,0.146,0.056v-0.06
						c0.032,0.011,0.065,0.021,0.098,0.03l0.029,0.069c0.096,0.025,0.187,0.04,0.275,0.044L27.46,45.5
						c0.03,0.001,0.06,0.001,0.089-0.001l0.042,0.067c0.084-0.004,0.165-0.018,0.239-0.042l-0.029-0.07
						c0.025-0.008,0.05-0.018,0.073-0.029l0.051,0.061c0.07-0.033,0.132-0.075,0.188-0.126l-0.042-0.067
						c0.019-0.017,0.036-0.036,0.053-0.055l0.057,0.051c0.049-0.059,0.09-0.126,0.124-0.201l-0.051-0.061
						c0.011-0.025,0.02-0.051,0.03-0.078l0.06,0.037c0.026-0.08,0.044-0.169,0.053-0.264l-0.057-0.051
						c0.003-0.031,0.005-0.062,0.006-0.095L28.402,44.602z"/>
					<path class="st71" d="M28.175,44.29c0.104,0.882-0.476,1.31-1.298,0.958c-0.822-0.353-1.572-1.354-1.677-2.236
						c-0.104-0.882,0.476-1.31,1.298-0.958C27.319,42.407,28.07,43.407,28.175,44.29z"/>
					<path class="st70" d="M27.753,44.109c0.075,0.633-0.342,0.94-0.931,0.688c-0.588-0.252-1.127-0.97-1.202-1.603
						s0.342-0.94,0.931-0.688C27.14,42.759,27.679,43.476,27.753,44.109z"/>
				</g>
				<path class="st36" d="M25.752,43.25c0.066,0.554,0.537,1.184,1.054,1.405c0.516,0.221,0.882-0.048,0.816-0.603
					c-0.066-0.554-0.537-1.184-1.054-1.405C26.052,42.426,25.686,42.695,25.752,43.25z"/>
				<path class="st36" d="M27.502,44.001c0.057,0.482-0.261,0.719-0.711,0.525c-0.451-0.194-0.862-0.742-0.919-1.226
					c-0.056-0.47,0.246-0.708,0.681-0.535c0.01,0.002,0.02,0.006,0.031,0.011c0.437,0.187,0.837,0.71,0.911,1.184
					C27.498,43.974,27.5,43.987,27.502,44.001z"/>
				<path class="st37" d="M26.223,43.329c0.04,0.336,0.326,0.717,0.639,0.852s0.534-0.029,0.494-0.365
					c-0.04-0.336-0.326-0.717-0.639-0.852C26.405,42.829,26.183,42.992,26.223,43.329z"/>
			</g>
		</g>
		<g>
			<polygon class="st94" points="34.088,38.286 32.569,39.69 30.701,40.822 29.083,41.323 29.154,42.114 30.727,41.421 
				32.612,40.269 34.572,38.625 34.534,37.562 34.029,37.341 34.11,37.696 			"/>
			<polygon class="st95" points="30.653,42.675 29.496,42.404 29.14,41.909 31.491,41.56 			"/>
			<polygon class="st96" points="34.537,38.482 32.975,39.857 31.15,41.019 29.485,41.499 29.581,42.308 31.246,41.828 
				33.084,40.657 34.633,39.291 34.63,38.371 34.534,37.562 			"/>
			<polygon class="st97" points="29.083,41.323 29.485,41.499 29.581,42.308 29.164,42.152 			"/>
		</g>
		<g>
			<polygon class="st96" points="29.083,41.323 27.359,40.832 17.544,36.916 17.072,36.915 17.105,36.681 17.755,36.496 
				29.494,41.195 			"/>
			<polygon class="st98" points="17.506,36.803 27.798,40.937 29.083,41.323 29.164,42.152 28.805,41.719 17.651,37.264 
				17.344,37.209 17.072,36.915 			"/>
		</g>
		<g>
			<polyline class="st72" points="17.767,35.569 17.857,35.387 18.655,34.541 19.432,34.12 21.73,38.173 21.471,38.418 
				17.989,36.987 17.674,36.775 			"/>
			<polygon class="st99" points="21.168,36.926 21.122,38.08 17.961,36.757 18.027,35.62 19.432,34.12 22.907,34.756 			"/>
			<polygon class="st37" points="22.907,34.756 21.768,36.968 21.73,38.173 21.122,38.08 21.168,36.926 			"/>
			<polygon class="st36" points="18.027,35.62 21.168,36.926 21.122,38.08 17.961,36.757 			"/>
		</g>
	</g>
	<polygon class="st73" points="30.268,39.394 29.253,39.695 29.868,40.805 30.574,40.624 	"/>
	<path class="st90" d="M30.056,39.91c0.011,0.154-0.093,0.292-0.23,0.308c-0.138,0.017-0.257-0.095-0.266-0.249
		c-0.011-0.154,0.093-0.292,0.23-0.308C29.927,39.644,30.046,39.756,30.056,39.91z"/>
	<path class="st100" d="M29.924,39.914c0.006,0.094-0.057,0.178-0.141,0.188c-0.084,0.01-0.156-0.059-0.162-0.152
		c-0.006-0.094,0.057-0.178,0.141-0.188C29.845,39.752,29.918,39.82,29.924,39.914z"/>
	<polygon class="st73" points="33.953,37.294 33.999,37.939 33.833,37.445 33.803,37.354 33.756,37.218 33.619,36.814 
		33.611,36.788 33.741,36.364 	"/>
	<polygon class="st101" points="33.735,36.448 33.692,36.595 33.858,37.305 33.921,37.272 	"/>
	<path class="st90" d="M33.809,36.879c0.012,0.135-0.01,0.276-0.052,0.34l-0.136-0.404c0.013-0.063,0.035-0.112,0.061-0.134
		C33.736,36.633,33.791,36.722,33.809,36.879z"/>
	<path class="st100" d="M33.76,36.886c0.008,0.093-0.007,0.189-0.036,0.234l-0.093-0.278c0.009-0.044,0.023-0.077,0.041-0.092
		C33.711,36.718,33.749,36.78,33.76,36.886z"/>
	<polygon class="st101" points="30.21,39.47 30.482,40.56 30.281,40.516 30.126,39.509 	"/>
	<polygon class="st102" points="31.491,41.56 30.653,42.675 33.51,40.729 34.395,39.404 	"/>
	<polygon class="st103" points="31.15,41.019 31.246,41.828 33.084,40.657 32.975,39.857 	"/>
	<polygon class="st104" points="34.537,38.482 34.633,39.291 33.084,40.657 32.975,39.857 	"/>
	<polygon class="st105" points="29.083,41.323 29.441,41.42 31.117,40.932 32.892,39.812 34.388,38.475 34.431,37.591 
		34.086,37.366 34.534,37.562 34.537,38.482 32.975,39.857 31.15,41.019 29.485,41.499 	"/>
	<g>
		<path class="st90" d="M31.694,41.169c0.004,0.122-0.072,0.246-0.168,0.275c-0.096,0.03-0.177-0.045-0.181-0.168
			c-0.004-0.122,0.072-0.246,0.168-0.275C31.61,40.972,31.69,41.047,31.694,41.169z"/>
		<path class="st100" d="M31.602,41.189c0.002,0.075-0.044,0.149-0.103,0.167s-0.108-0.027-0.111-0.102
			c-0.002-0.075,0.044-0.149,0.103-0.167S31.6,41.114,31.602,41.189z"/>
	</g>
	<g>
		<path class="st90" d="M34.498,39.012c0.005,0.117-0.055,0.239-0.133,0.271c-0.079,0.033-0.146-0.036-0.151-0.153
			c-0.005-0.117,0.055-0.239,0.133-0.271C34.425,38.826,34.493,38.895,34.498,39.012z"/>
		<path class="st100" d="M34.401,39.025c0.003,0.072-0.033,0.145-0.081,0.166c-0.048,0.019-0.089-0.022-0.092-0.093
			c-0.003-0.072,0.033-0.145,0.081-0.166C34.357,38.912,34.399,38.954,34.401,39.025z"/>
	</g>
	<polyline class="st72" points="23.466,35.426 23.821,34.822 26.095,35.78 25.784,36.473 24.989,36.916 23.672,36.411 	"/>
	<polyline class="st86" points="24.983,36.774 25.692,36.378 25.921,35.868 23.852,34.996 23.591,35.438 23.773,36.309 	"/>
	<polygon class="st106" points="27.888,38.75 29.172,39.424 30.307,39.08 32.178,38.014 33.406,36.704 33.602,36.073 32.676,35.379 
		33.739,36.08 33.51,36.759 32.283,38.089 30.374,39.183 29.08,39.561 	"/>
	<polygon class="st107" points="29.494,41.195 29.368,41.324 30.74,40.899 32.561,39.773 34.062,38.466 34.088,38.286 32.569,39.69 
		30.701,40.822 	"/>
</g>
</svg>
