<?xml version="1.0" encoding="utf-8"?>
<!-- Generator: Adobe Illustrator 25.4.1, SVG Export Plug-In . SVG Version: 6.00 Build 0)  -->
<svg version="1.1" id="Layer_1" xmlns="http://www.w3.org/2000/svg" xmlns:xlink="http://www.w3.org/1999/xlink" x="0px" y="0px"
	 viewBox="0 0 50 50" style="enable-background:new 0 0 50 50;" xml:space="preserve">
<style type="text/css">
	.st0{display:none;}
	.st1{display:inline;}
	.st2{fill:#344593;}
	.st3{fill:#3E54A3;}
	.st4{fill:#2E4490;}
	.st5{fill:#122571;}
	.st6{opacity:0.5;fill:#031F60;enable-background:new    ;}
	.st7{fill:#BBDFFF;}
	.st8{fill:#FDB724;}
	.st9{fill:#E7478D;}
	.st10{fill:#BF2878;}
	.st11{fill:#27DEBF;}
	.st12{fill:#1BBC9D;}
	.st13{fill:#A33D64;}
	.st14{fill:#82294D;}
	.st15{fill:#0A4A80;}
	.st16{fill:#F1FCFF;}
	.st17{fill:#D6E6FF;}
	.st18{fill:#CEF3FF;}
	.st19{fill:#606060;}
	.st20{enable-background:new    ;}
	.st21{fill:#F19729;}
	.st22{fill:#FCB040;}
	.st23{fill:#FFCB49;}
	.st24{fill:#2E5677;}
	.st25{fill:#FF51CE;}
	.st26{fill:#EDE6A0;}
	.st27{fill:#FFF7B0;}
	.st28{fill:url(#SVGID_1_);}
	.st29{fill:url(#SVGID_00000164484667570673131400000000694210071590293167_);}
	.st30{fill:#66635E;}
	.st31{fill:#4E4B45;}
	.st32{fill:#7F7F7F;}
	.st33{fill:#3E3A2F;}
	.st34{fill:#716A59;}
	.st35{fill:#BAB4A7;}
	.st36{fill:#696151;}
	.st37{fill:#857B69;}
	.st38{fill:#F0ECE5;}
	.st39{fill:#DAD5CB;}
	.st40{fill:#736A59;}
	.st41{fill:#34312A;}
	.st42{fill:#46494C;}
	.st43{fill:#575A60;}
	.st44{fill:#383953;}
	.st45{fill:#BAB6B1;}
	.st46{fill:#68604E;}
	.st47{fill:#7E9CC2;}
	.st48{fill:#4D4D4C;}
	.st49{fill:#69604F;}
	.st50{fill:#B5B5B4;}
	.st51{fill:#333332;}
	.st52{fill:#50504F;}
	.st53{fill:#9D9D9B;}
	.st54{fill:#C8C8C6;}
	.st55{fill:#B3B3B2;}
	.st56{fill:#6B6B6A;}
	.st57{fill:#474746;}
	.st58{fill:#A8A39A;}
	.st59{fill:#8A8274;}
	.st60{fill:#AAAAA7;}
	.st61{fill:#AFAFAC;}
	.st62{fill:#90908F;}
	.st63{fill:#5E5E5D;}
	.st64{fill:#B4B4B2;}
	.st65{fill:#6B6B6B;}
	.st66{fill:#FF4C27;}
	.st67{fill:#222325;}
	.st68{fill:#060505;}
	.st69{fill:#481018;}
	.st70{fill:#1A1A1A;}
	.st71{fill:#100F0F;}
	.st72{fill:#D5D5D4;}
	.st73{fill:#747471;}
	.st74{fill:#A8A49A;}
	.st75{fill:#BBB8B1;}
	.st76{fill:#A4978C;}
	.st77{fill:#0A0B0D;}
	.st78{fill:#010B13;}
	.st79{fill:#847E6F;}
	.st80{fill:#C4C1BA;}
	.st81{fill:#C1C1C1;}
	.st82{fill:#BDBDBD;}
	.st83{fill:#A3A3A1;}
	.st84{fill:#A9A69C;}
	.st85{fill:#B0ACA4;}
	.st86{fill:#28353D;}
	.st87{fill:#908B7E;}
	.st88{fill:#DFDEDF;}
	.st89{fill:#B6B7B4;}
	.st90{fill:#D3D3D3;}
	.st91{fill:#4C7595;}
	.st92{fill:#ADAAA1;}
	.st93{fill:#24080C;}
	.st94{fill:#4A4C52;}
	.st95{fill:#090B08;}
	.st96{fill:#2C2E33;}
	.st97{fill:#202121;}
	.st98{fill:#111511;}
	.st99{fill:#C4C1BB;}
	.st100{fill:#F7F7F7;}
	.st101{fill:#4F4F4B;}
	.st102{fill:#131313;}
	.st103{fill:#34363C;}
	.st104{fill:#383A40;}
	.st105{fill:#626369;}
	.st106{fill:#EAEAEA;}
	.st107{fill:#84868A;}
</style>
<g id="Example" class="st0">
	<g class="st1">
		<g id="XMLID_4903_">
			<path id="XMLID_4905_" class="st2" d="M-8.114,33.2v-4.6l0,0c0-0.9-0.6-1.8-1.7-2.4c-2.3-1.3-6-1.3-8.4,0
				c-1.2,0.7-1.7,1.6-1.7,2.4l0,0v4.5c0,0.9,0.6,1.8,1.7,2.4c2.3,1.3,6,1.3,8.4,0C-8.614,34.9-8.114,34.1-8.114,33.2L-8.114,33.2
				L-8.114,33.2L-8.114,33.2z"/>
			<path id="XMLID_4904_" class="st2" d="M-8.114,33.2v-4.6l0,0c0-0.9-0.6-1.8-1.7-2.4c-2.3-1.3-6-1.3-8.4,0
				c-1.2,0.7-1.7,1.6-1.7,2.4l0,0v4.5c0,0.9,0.6,1.8,1.7,2.4c2.3,1.3,6,1.3,8.4,0C-8.614,34.9-8.114,34.1-8.114,33.2L-8.114,33.2
				L-8.114,33.2L-8.114,33.2z"/>
		</g>
		<polygon id="XMLID_4900_" class="st3" points="-14.014,23 -23.714,28.6 -14.014,34.2 -4.214,28.6 		"/>
		<path id="XMLID_4899_" class="st4" d="M-9.114,31.4l-4.8-2.7c-0.1,0-0.2,0-0.2,0.1s0,0.2,0.1,0.2l4.6,2.6L-9.114,31.4z"/>
		<polygon id="XMLID_4896_" class="st5" points="-23.714,28.6 -23.714,29 -14.014,34.6 -14.014,34.2 		"/>
		<polygon id="XMLID_4883_" class="st4" points="-4.214,28.6 -4.214,29 -14.014,34.6 -14.014,34.2 		"/>
		<polygon id="XMLID_4876_" class="st6" points="-19.914,31.2 -14.014,35.2 -8.114,31.2 -14.014,34.6 		"/>
		<g id="XMLID_4823_">
			<path id="XMLID_4835_" class="st7" d="M-8.714,36.2c-0.1,0-0.2-0.1-0.2-0.2v-4c0-0.2-0.1-0.4-0.3-0.4l-4.9-2.8
				c-0.1,0-0.1-0.2-0.1-0.2c0-0.1,0.2-0.1,0.2-0.1l4.9,2.8c0.3,0.2,0.4,0.4,0.4,0.7v4C-8.614,36.1-8.714,36.2-8.714,36.2z"/>
		</g>
		<path class="st8" d="M-8.114,39.3l-0.3-2.7c0.1-0.1,0.1-0.2,0-0.2l0,0l0,0l0,0v-0.1l0,0l0,0l0,0c0-0.2-0.2-0.4-0.4-0.4
			c0,0,0,0-0.1,0l0,0l0,0c0,0,0,0-0.1,0c0,0,0,0-0.1,0c0,0,0,0-0.1,0c0,0,0,0,0,0.1l0,0v0.1c0,0.1,0,0.2,0.1,0.3l0,0
			c-0.1,0.1,0,0.2,0,0.2l-0.3,2.7c0,0.1,0.1,0.2,0.3,0.3l0,0h0.1l0,0c0.1,0,0.2,0.1,0.3,0.1l0,0l0,0l0,0l0,0l0,0
			c0.1,0,0.2,0,0.3-0.1l0,0h0.1l0,0C-8.114,39.5-8.114,39.4-8.114,39.3z"/>
	</g>
	<g id="XMLID_3738_" class="st1">
		<path id="XMLID_4404_" class="st9" d="M-41.014,36.1c1.1-0.8,1.8-2.7,1.7-4c-0.1-1.4-1.2-2-1.7-2.3l0,0c-1.1-0.6-2.8-0.6-3.9,0
			l0,0c-0.5,0.3-1.5,0.9-1.7,2.3c-0.1,1.3,0.6,3.2,1.7,4l0,0c0.1,0,0.1,0.1,0.2,0.1c1,0.6,2.6,0.6,3.6,0l0,0
			C-41.114,36.2-41.014,36.1-41.014,36.1L-41.014,36.1z"/>
		<path id="XMLID_4395_" class="st10" d="M-43.514,30.8c-0.3,0.2-0.3,0.4,0,0.6s0.8,0.2,1.1,0s0.3-0.4,0-0.6
			C-42.714,30.6-43.214,30.6-43.514,30.8z"/>
		<g id="XMLID_4426_">
			<path id="XMLID_2198_" class="st11" d="M-42.914,31.2c0,0-0.9,0-1.4-0.7s0-1.9,0-1.9s1.1,0.1,1.7,1
				C-42.214,30.4-42.914,31.2-42.914,31.2z"/>
			<path id="XMLID_4431_" class="st12" d="M-44.414,30.5c0.5,0.7,1.4,0.7,1.4,0.7c-0.1-1.6-1.4-2.6-1.4-2.6
				S-44.914,29.8-44.414,30.5z"/>
		</g>
		<path id="XMLID_4403_" class="st13" d="M-42.914,31.2c0,0,0-1.3,0.7-1.9s1.2-0.6,1.2-0.6c0.4,0,0.9,0.4,0.7,0.4c0,0-0.9,0-1.5,0.5
			s-0.9,1.5-0.9,1.6c0,0,0,0.1-0.1,0.1C-42.914,31.3-42.914,31.2-42.914,31.2z"/>
		<path id="XMLID_4496_" class="st14" d="M-41.014,28.7c-0.1,0-0.1,0.1,0.2,0.3c0.2,0.1,0.4,0.2,0.5,0.2l0,0
			C-40.114,29-40.614,28.7-41.014,28.7z"/>
	</g>
	<g class="st1">
		<g>
			<path class="st15" d="M-27.414,28.8L-27.414,28.8c-1,0.6-1.9,1-2.8,1.2l0,0c0,0,0,0-0.1,0l-0.5,0.2h-0.1c-0.1,0-0.2,0.1-0.3,0.1
				h-0.1c-0.1,0-0.2,0.1-0.2,0.1h-0.1c-0.5,0.2-0.9,0.4-1.4,0.7c-0.1,0.1-0.2,0.1-0.3,0.2l-0.1,0.1c-0.4,0.3-2,1.5-2.9,2.5l-0.6,0.6
				l-0.5,0.1c-1,0.2-2,0.5-3,1.1c-0.1,0.1-0.2,0.1-0.3,0.2c-0.3,0.2-0.5,0.3-0.8,0.5l0,0l-0.1,0.1c-0.1,0.1-0.2,0.1-0.3,0.2l0,0l0,0
				c-0.4,0.3-0.9,0.7-1.3,1.1c-0.1,0.1-0.2,0.2-0.3,0.3c-0.3,0.3-0.7,0.6-1,0.9h-0.1c-0.3,0.3-0.7,0.5-1,0.8
				c-0.2,0.2-0.5,0.3-0.7,0.5h-0.1l13.7,8.3h0.1c0.8-0.5,1.7-1.2,2.5-1.9c0.5-0.5,1.1-0.9,1.7-1.4c1.2-0.9,2.3-1.5,3.2-1.8
				c0.7-0.3,1.4-0.5,2.1-0.6l0.5-0.6c0.7-0.7,1.5-1.3,2.4-1.8c1.5-1,3.2-1.8,4.9-2.5c0.6-0.2,1.2-0.5,1.6-0.7l0.2-0.1L-27.414,28.8z
				"/>
			<g>
				<g>
					<g>
						<path class="st16" d="M-14.314,36.7c-0.5,0.3-0.7,0.4-1.2,0.6c-0.3,0.1-0.5,0.2-0.8,0.3c-0.2,0.1-0.3,0.1-0.5,0.1
							c-0.7,0.2-1.4,0.4-2,0.8c-0.2,0.1-0.4,0.2-0.6,0.3c-1.3,0.8-2.6,2-3.9,3.5l-2.5-1.5l-11-6.7c1.3-1.5,2.6-2.7,3.9-3.5
							c0.2-0.1,0.4-0.2,0.6-0.3c0.7-0.4,1.4-0.6,2-0.8c0.2,0,0.3-0.1,0.5-0.1c0.3-0.1,0.5-0.2,0.8-0.3c0.5-0.2,0.7-0.3,1.2-0.6
							L-14.314,36.7z"/>
						<g>
							<path class="st16" d="M-23.314,42.3c-1.3,0.1-2.6,0.5-3.9,1.3c-0.2,0.1-0.4,0.2-0.6,0.4c-0.7,0.5-1.4,1-2,1.7
								c-0.2,0.2-0.3,0.3-0.5,0.4c-0.3,0.3-0.6,0.5-0.9,0.7c-0.5,0.4-0.8,0.6-1.3,0.9l-13.4-8.2c0.5-0.3,0.8-0.5,1.3-0.9
								c0.3-0.2,0.6-0.5,0.9-0.7c0.2-0.1,0.3-0.3,0.5-0.4c0.7-0.6,1.4-1.2,2-1.7c0.2-0.1,0.4-0.3,0.6-0.4c1.3-0.8,2.6-1.2,3.9-1.3
								l11,6.7L-23.314,42.3z"/>
						</g>
					</g>
					<polygon class="st17" points="-45.914,39.5 -46.114,40.3 -32.714,48.5 -32.514,47.7 					"/>
					<path class="st18" d="M-14.014,37.1c-0.9,0.6-1.8,1-2.7,1.2c0,0,0,0-0.1,0s-0.2,0-0.3,0.1c-0.1,0-0.2,0.1-0.3,0.1
						s-0.2,0.1-0.3,0.1c-0.6,0.2-1.2,0.5-1.8,0.9c-0.1,0.1-0.2,0.1-0.3,0.2c-1,0.7-2,1.5-3,2.5l-0.6,0.6l-0.6,0.1
						c-1,0.2-2,0.5-3,1.1c-0.1,0.1-0.2,0.1-0.3,0.2c-0.3,0.2-0.5,0.3-0.8,0.5c-0.6,0.4-1.1,0.9-1.7,1.4c-0.1,0.1-0.2,0.2-0.3,0.3
						c-0.9,0.9-1.8,1.6-2.7,2.2l0.2-0.8c0.5-0.3,0.8-0.5,1.3-0.9c0.3-0.2,0.6-0.5,0.9-0.7c0.2-0.1,0.3-0.3,0.5-0.4
						c0.7-0.6,1.4-1.2,2-1.7c0.2-0.1,0.4-0.3,0.6-0.4c1.3-0.8,2.6-1.2,3.9-1.3c1.3-1.5,2.6-2.7,3.9-3.5c0.2-0.1,0.4-0.2,0.6-0.3
						c0.7-0.4,1.4-0.6,2-0.8c0.2,0,0.3-0.1,0.5-0.1c0.3-0.1,0.5-0.2,0.8-0.3c0.5-0.2,0.7-0.3,1.2-0.6L-14.014,37.1z"/>
				</g>
			</g>
			<g>
				<path class="st19" d="M-35.614,34.6C-35.514,34.6-35.514,34.6-35.614,34.6c1.2-1.4,2.5-2.5,3.7-3.2c0.2-0.1,0.4-0.2,0.5-0.3
					c0.7-0.3,1.3-0.6,2-0.8c0.2,0,0.3-0.1,0.5-0.1c0.3-0.1,0.5-0.2,0.8-0.3c0.4-0.2,0.7-0.3,1.1-0.5c0,0,0,0,0-0.1s0,0-0.1,0
					c-0.4,0.2-0.6,0.3-1,0.5c-0.3,0.1-0.5,0.2-0.8,0.3c-0.2,0.1-0.3,0.1-0.5,0.1c-0.7,0.2-1.3,0.4-2,0.8c-0.2,0.1-0.4,0.2-0.6,0.3
					C-33.114,32.1-34.414,33.2-35.614,34.6C-35.614,34.5-35.614,34.6-35.614,34.6L-35.614,34.6z"/>
				<path class="st19" d="M-28.014,30.6c-0.2,0.1-0.3,0.1-0.5,0.1c-0.7,0.2-1.3,0.4-2,0.8c-0.2,0.1-0.4,0.2-0.6,0.3
					c-1.2,0.7-2.5,1.8-3.7,3.2v0.1l0,0l0,0c1.2-1.4,2.5-2.5,3.7-3.2c0.2-0.1,0.4-0.2,0.6-0.3c0.7-0.4,1.3-0.6,2-0.8
					C-28.314,30.8-28.114,30.7-28.014,30.6c0.3,0,0.6-0.1,0.8-0.2c0.4-0.2,0.6-0.3,1-0.5c0,0,0,0,0-0.1c0,0,0,0-0.1,0
					c-0.4,0.2-0.6,0.3-1,0.5C-27.514,30.4-27.714,30.5-28.014,30.6z"/>
				<path class="st19" d="M-27.214,31.1c-0.2,0.1-0.3,0.1-0.5,0.1c-0.7,0.2-1.3,0.4-2,0.8c-0.2,0.1-0.4,0.2-0.6,0.3
					c-1.2,0.7-2.5,1.8-3.7,3.2v0.1l0,0l0,0c1.2-1.4,2.5-2.5,3.7-3.2c0.2-0.1,0.4-0.2,0.6-0.3c0.7-0.4,1.4-0.6,2-0.8
					C-27.514,31.3-27.314,31.2-27.214,31.1c0.3,0,0.6-0.1,0.8-0.2c0.4-0.2,0.6-0.3,1-0.5c0,0,0,0,0-0.1c0,0,0,0-0.1,0
					c-0.4,0.2-0.6,0.3-1,0.5C-26.614,30.9-26.914,31-27.214,31.1z"/>
				<path class="st19" d="M-26.314,31.5c-0.2,0.1-0.3,0.1-0.5,0.1c-0.7,0.2-1.3,0.4-2,0.8c-0.2,0.1-0.4,0.2-0.6,0.3
					c-1.2,0.7-2.5,1.8-3.7,3.2V36l0,0l0,0c1.2-1.4,2.5-2.5,3.7-3.2c0.2-0.1,0.4-0.2,0.6-0.3c0.7-0.4,1.4-0.6,2-0.8
					C-26.714,31.7-26.514,31.7-26.314,31.5c0.3,0,0.6-0.1,0.8-0.2c0.4-0.2,0.6-0.3,1-0.5c0,0,0,0,0-0.1c0,0,0,0-0.1,0
					c-0.4,0.2-0.6,0.3-1,0.5C-25.814,31.4-26.114,31.5-26.314,31.5z"/>
				<path class="st19" d="M-25.514,32c-0.2,0.1-0.3,0.1-0.5,0.1c-0.7,0.2-1.4,0.4-2,0.8c-0.2,0.1-0.4,0.2-0.6,0.3
					c-1.2,0.7-2.5,1.9-3.7,3.2v0.1l0,0l0,0c1.2-1.4,2.5-2.5,3.7-3.2c0.2-0.1,0.4-0.2,0.6-0.3c0.7-0.4,1.4-0.6,2-0.8
					C-25.814,32.2-25.614,32.2-25.514,32c0.3,0,0.6-0.1,0.8-0.2c0.4-0.2,0.6-0.3,1-0.5c0,0,0,0,0-0.1c0,0,0,0-0.1,0
					c-0.4,0.2-0.6,0.3-1,0.5C-25.014,31.8-25.314,31.9-25.514,32z"/>
				<path class="st19" d="M-24.714,32.5c-0.2,0.1-0.3,0.1-0.5,0.1c-0.7,0.2-1.4,0.4-2,0.8c-0.2,0.1-0.4,0.2-0.6,0.3
					c-1.2,0.7-2.5,1.9-3.7,3.2V37l0,0l0,0c1.2-1.4,2.5-2.5,3.7-3.2c0.2-0.1,0.4-0.2,0.6-0.3c0.7-0.4,1.4-0.6,2-0.8
					C-25.014,32.7-24.814,32.6-24.714,32.5c0.3,0,0.6-0.1,0.8-0.2c0.4-0.2,0.6-0.3,1-0.5c0,0,0,0,0-0.1c0,0,0,0-0.1,0
					c-0.3,0.2-0.6,0.3-0.9,0.5C-24.214,32.3-24.414,32.4-24.714,32.5z"/>
				<path class="st19" d="M-23.814,33c-0.2,0.1-0.3,0.1-0.5,0.1c-0.7,0.2-1.4,0.4-2.1,0.8c-0.2,0.1-0.4,0.2-0.6,0.3
					c-1.2,0.7-2.5,1.9-3.8,3.3v0.1l0,0l0,0c1.2-1.4,2.5-2.5,3.7-3.2c0.2-0.1,0.4-0.2,0.6-0.3c0.7-0.4,1.4-0.6,2-0.8
					C-24.214,33.2-24.014,33.1-23.814,33c0.3,0,0.6-0.1,0.8-0.2c0.4-0.2,0.6-0.3,0.9-0.5c0,0,0,0,0-0.1c0,0,0,0-0.1,0
					c-0.3,0.2-0.5,0.3-0.9,0.4C-23.314,32.8-23.614,32.9-23.814,33z"/>
				<path class="st19" d="M-23.014,33.5c-0.2,0.1-0.3,0.1-0.5,0.1c-0.7,0.2-1.4,0.4-2.1,0.8c-0.2,0.1-0.4,0.2-0.6,0.3
					c-1.2,0.7-2.5,1.9-3.8,3.3v0.1l0,0l0,0c1.2-1.4,2.5-2.5,3.7-3.2c0.2-0.1,0.4-0.2,0.6-0.3c0.7-0.4,1.4-0.6,2-0.8
					C-23.314,33.7-23.214,33.6-23.014,33.5c0.3,0,0.5-0.1,0.8-0.2c0.4-0.2,0.6-0.3,0.9-0.4c0,0,0,0,0-0.1c0,0,0,0-0.1,0
					c-0.3,0.2-0.5,0.3-0.9,0.4C-22.514,33.3-22.814,33.4-23.014,33.5z"/>
				<path class="st19" d="M-22.214,33.9c-0.2,0.1-0.3,0.1-0.5,0.2c-0.7,0.2-1.4,0.4-2.1,0.8c-0.2,0.1-0.4,0.2-0.6,0.3
					c-1.2,0.7-2.5,1.9-3.8,3.3v0.1l0,0l0,0c1.2-1.4,2.5-2.5,3.8-3.3c0.2-0.1,0.4-0.2,0.6-0.3c0.7-0.4,1.4-0.6,2-0.8
					C-22.514,34.1-22.314,34.1-22.214,33.9c0.3,0,0.5-0.1,0.8-0.2c0.4-0.2,0.6-0.2,0.9-0.4c0,0,0,0,0-0.1c0,0,0,0-0.1,0
					c-0.3,0.2-0.5,0.3-0.9,0.4C-21.714,33.8-21.914,33.9-22.214,33.9z"/>
				<path class="st19" d="M-21.414,34.4c-0.2,0.1-0.3,0.1-0.5,0.1c-0.7,0.2-1.4,0.4-2.1,0.8c-0.2,0.1-0.4,0.2-0.6,0.3
					c-1.2,0.7-2.6,1.9-3.8,3.3V39l0,0l0,0c1.2-1.4,2.5-2.5,3.8-3.3c0.2-0.1,0.4-0.2,0.6-0.3c0.7-0.4,1.4-0.6,2-0.8
					C-21.714,34.6-21.514,34.6-21.414,34.4c0.3,0,0.5-0.1,0.8-0.2c0.4-0.2,0.6-0.2,0.9-0.4c0,0,0,0,0-0.1c0,0,0,0-0.1,0
					c-0.3,0.2-0.5,0.3-0.9,0.4C-20.814,34.2-21.114,34.3-21.414,34.4z"/>
				<path class="st19" d="M-20.514,34.9c-0.2,0.1-0.3,0.1-0.5,0.1c-0.7,0.2-1.4,0.4-2.1,0.8c-0.2,0.1-0.4,0.2-0.6,0.3
					c-1.2,0.8-2.6,1.9-3.8,3.3v0.1l0,0l0,0c1.2-1.4,2.5-2.5,3.8-3.3c0.2-0.1,0.4-0.2,0.6-0.3c0.7-0.4,1.4-0.6,2.1-0.8
					C-20.814,35.1-20.714,35-20.514,34.9c0.3,0,0.5-0.1,0.8-0.2c0.3-0.1,0.6-0.2,0.9-0.4c0,0,0,0,0-0.1c0,0,0,0-0.1,0
					c-0.3,0.2-0.5,0.3-0.8,0.4C-20.014,34.7-20.314,34.8-20.514,34.9z"/>
				<path class="st19" d="M-19.714,35.4c-0.2,0.1-0.3,0.1-0.5,0.1c-0.7,0.2-1.4,0.4-2.1,0.8c-0.2,0.1-0.4,0.2-0.6,0.3
					c-1.2,0.8-2.6,1.9-3.8,3.3V40l0,0l0,0c1.2-1.4,2.6-2.5,3.8-3.3c0.2-0.1,0.4-0.2,0.6-0.3c0.7-0.4,1.4-0.6,2.1-0.8
					C-20.014,35.6-19.814,35.5-19.714,35.4c0.3,0,0.5-0.1,0.8-0.2c0.3-0.1,0.5-0.2,0.8-0.4c0,0,0,0,0-0.1c0,0,0,0-0.1,0
					c-0.3,0.2-0.5,0.3-0.8,0.4C-19.214,35.2-19.414,35.3-19.714,35.4z"/>
				<path class="st19" d="M-18.914,35.8c-0.2,0.1-0.3,0.1-0.5,0.1c-0.7,0.2-1.4,0.4-2.1,0.8c-0.2,0.1-0.4,0.2-0.6,0.3
					c-1.3,0.8-2.6,1.9-3.8,3.3v0.1l0,0l0,0c1.2-1.4,2.6-2.6,3.8-3.3c0.2-0.1,0.4-0.2,0.6-0.3c0.7-0.4,1.4-0.6,2.1-0.8
					C-19.214,36-19.014,36-18.914,35.8c0.3,0,0.5-0.1,0.8-0.2c0.3-0.1,0.5-0.2,0.8-0.4c0,0,0,0,0-0.1c0,0,0,0-0.1,0
					c-0.3,0.2-0.5,0.2-0.8,0.4C-18.414,35.7-18.614,35.8-18.914,35.8z"/>
				<path class="st19" d="M-18.014,36.3c-0.2,0.1-0.3,0.1-0.5,0.1c-0.7,0.2-1.4,0.4-2.1,0.8c-0.2,0.1-0.4,0.2-0.6,0.3
					c-1.3,0.8-2.6,1.9-3.8,3.3v0.1l0,0l0,0c1.3-1.4,2.6-2.6,3.8-3.3c0.2-0.1,0.4-0.2,0.6-0.3c0.7-0.4,1.4-0.6,2.1-0.8
					C-18.314,36.5-18.214,36.5-18.014,36.3c0.3,0,0.5-0.1,0.8-0.2c0.3-0.1,0.5-0.2,0.8-0.4c0,0,0,0,0-0.1c0,0,0,0-0.1,0
					c-0.2,0.1-0.4,0.2-0.8,0.4C-17.514,36.2-17.814,36.2-18.014,36.3z"/>
				<path class="st19" d="M-15.714,36.2c-0.3,0.1-0.5,0.2-0.8,0.4c-0.3,0.1-0.5,0.2-0.8,0.3c-0.2,0.1-0.3,0.1-0.5,0.1
					c-0.7,0.2-1.4,0.4-2.1,0.8c-0.2,0.1-0.4,0.2-0.6,0.3c-1.3,0.8-2.6,1.9-3.9,3.3v0.1l0,0l0,0c1.3-1.4,2.6-2.6,3.8-3.3
					c0.2-0.1,0.4-0.2,0.6-0.3c0.7-0.4,1.4-0.6,2.1-0.8c0.2,0,0.3-0.1,0.5-0.1c0.2-0.1,0.5-0.2,0.8-0.3
					C-16.114,36.5-15.914,36.4-15.714,36.2C-15.614,36.3-15.614,36.2-15.714,36.2C-15.614,36.2-15.714,36.2-15.714,36.2z"/>
				<path class="st19" d="M-42.814,38.6c0.2-0.1,0.3-0.3,0.5-0.4c0.7-0.6,1.3-1.2,2-1.7c0.2-0.1,0.4-0.2,0.6-0.4
					c1.2-0.7,2.5-1.2,3.7-1.3c0,0,0,0,0-0.1c0,0,0,0-0.1,0c-1.2,0.1-2.5,0.5-3.7,1.3c-0.2,0.1-0.4,0.2-0.6,0.4c-0.7,0.5-1.4,1-2,1.7
					C-42.514,38.3-42.714,38.4-42.814,38.6c-0.4,0.2-0.7,0.4-0.9,0.7c-0.4,0.3-0.7,0.5-1,0.7c0,0,0,0,0,0.1l0,0l0,0
					c0.3-0.2,0.6-0.4,1-0.7S-43.114,38.9-42.814,38.6z"/>
				<path class="st19" d="M-41.914,39.1c0.2-0.1,0.3-0.3,0.5-0.4c0.7-0.6,1.3-1.2,2-1.7c0.2-0.1,0.4-0.2,0.6-0.4
					c1.2-0.7,2.5-1.2,3.7-1.2c0,0,0,0,0-0.1c0,0,0-0.1-0.1,0c-1.2,0.1-2.5,0.5-3.7,1.3c-0.2,0.1-0.4,0.2-0.6,0.4
					c-0.7,0.5-1.4,1-2,1.7C-41.714,38.8-41.814,38.9-41.914,39.1c-0.4,0.2-0.7,0.4-0.9,0.7c-0.4,0.3-0.7,0.5-1,0.7c0,0,0,0,0,0.1
					l0,0l0,0c0.3-0.2,0.6-0.4,1-0.7C-42.514,39.6-42.214,39.4-41.914,39.1z"/>
				<path class="st19" d="M-41.114,39.6c0.2-0.1,0.3-0.3,0.5-0.4c0.7-0.6,1.3-1.2,2-1.7c0.2-0.1,0.4-0.3,0.6-0.4
					c1.2-0.7,2.4-1.2,3.6-1.2c0,0,0,0,0-0.1s0,0-0.1,0c-1.2,0.1-2.5,0.5-3.7,1.3c-0.2,0.1-0.4,0.2-0.6,0.4c-0.7,0.5-1.4,1-2,1.7
					C-40.914,39.2-41.014,39.4-41.114,39.6c-0.4,0.2-0.7,0.4-0.9,0.7c-0.4,0.3-0.7,0.5-1,0.7c0,0,0,0,0,0.1l0,0l0,0
					c0.3-0.2,0.6-0.4,1-0.7C-41.714,40.1-41.414,39.9-41.114,39.6z"/>
				<path class="st19" d="M-40.314,40.1c0.2-0.1,0.3-0.3,0.5-0.4c0.7-0.6,1.3-1.2,2-1.7c0.2-0.1,0.4-0.3,0.6-0.4
					c1.2-0.7,2.4-1.1,3.6-1.2c0,0,0,0,0-0.1c0,0,0,0-0.1,0c-1.2,0.1-2.4,0.5-3.6,1.3c-0.2,0.1-0.4,0.2-0.6,0.4c-0.7,0.5-1.4,1-2,1.7
					C-40.114,39.7-40.214,39.9-40.314,40.1c-0.4,0.2-0.6,0.4-0.9,0.7c-0.4,0.3-0.7,0.5-1,0.7c0,0,0,0,0,0.1l0,0l0,0
					c0.3-0.2,0.6-0.4,1-0.7C-40.914,40.6-40.614,40.4-40.314,40.1z"/>
				<path class="st19" d="M-39.514,40.6c0.2-0.1,0.3-0.3,0.5-0.4c0.7-0.6,1.3-1.2,2-1.7c0.2-0.1,0.4-0.3,0.6-0.4
					c1.2-0.7,2.4-1.1,3.6-1.2c0,0,0,0,0-0.1c0,0,0,0-0.1,0c-1.2,0.1-2.4,0.5-3.6,1.3c-0.2,0.1-0.4,0.2-0.6,0.4c-0.7,0.5-1.4,1-2,1.7
					C-39.214,40.2-39.414,40.4-39.514,40.6c-0.4,0.2-0.6,0.4-0.9,0.7c-0.4,0.3-0.7,0.5-1,0.7c0,0,0,0,0,0.1l0,0l0,0
					c0.3-0.2,0.6-0.4,1-0.7C-40.114,41.1-39.814,40.8-39.514,40.6z"/>
				<path class="st19" d="M-38.714,41.1c0.2-0.1,0.3-0.3,0.5-0.4c0.7-0.6,1.3-1.2,2-1.7c0.2-0.1,0.4-0.3,0.6-0.4
					c1.2-0.7,2.4-1.1,3.5-1.2c0,0,0,0,0-0.1c0,0,0,0-0.1,0c-1.2,0.1-2.4,0.6-3.6,1.3c-0.2,0.1-0.4,0.2-0.6,0.4c-0.7,0.5-1.4,1-2,1.7
					C-38.414,40.7-38.614,40.8-38.714,41.1c-0.4,0.2-0.6,0.4-0.9,0.7c-0.4,0.3-0.7,0.5-1,0.7c0,0,0,0,0,0.1l0,0l0,0
					c0.3-0.2,0.6-0.4,1-0.7S-39.014,41.3-38.714,41.1z"/>
				<path class="st19" d="M-37.814,41.5c0.2-0.1,0.3-0.3,0.5-0.4c0.7-0.6,1.3-1.2,2-1.7c0.2-0.1,0.4-0.3,0.6-0.4
					c1.1-0.7,2.4-1.1,3.5-1.2c0,0,0,0,0-0.1s0,0-0.1,0c-1.2,0.1-2.4,0.6-3.5,1.3c-0.2,0.1-0.4,0.2-0.6,0.4c-0.7,0.5-1.4,1-2,1.7
					C-37.614,41.2-37.814,41.3-37.814,41.5c-0.4,0.2-0.6,0.4-0.9,0.7c-0.4,0.3-0.7,0.5-1,0.7c0,0,0,0,0,0.1l0,0l0,0
					c0.3-0.2,0.6-0.4,1-0.7C-38.414,42.1-38.114,41.8-37.814,41.5z"/>
				<path class="st19" d="M-37.014,42c0.2-0.1,0.3-0.3,0.5-0.4c0.7-0.6,1.3-1.2,2-1.7c0.2-0.1,0.4-0.3,0.6-0.4
					c1.1-0.7,2.3-1.1,3.5-1.2c0,0,0,0,0-0.1s0,0-0.1,0c-1.2,0.1-2.4,0.6-3.5,1.3c-0.2,0.1-0.4,0.2-0.6,0.4c-0.7,0.5-1.4,1-2.1,1.7
					C-36.814,41.7-36.914,41.8-37.014,42c-0.4,0.2-0.6,0.4-0.9,0.7c-0.4,0.3-0.7,0.5-1,0.7c0,0,0,0,0,0.1l0,0l0,0
					c0.3-0.2,0.6-0.4,1.1-0.7C-37.614,42.5-37.314,42.3-37.014,42z"/>
				<path class="st19" d="M-36.214,42.5c0.2-0.1,0.3-0.3,0.5-0.4c0.7-0.6,1.4-1.2,2-1.7c0.2-0.1,0.4-0.3,0.6-0.4
					c1.1-0.7,2.3-1.1,3.4-1.2c0,0,0,0,0-0.1s0,0-0.1,0c-1.1,0.1-2.3,0.6-3.5,1.3c-0.2,0.1-0.4,0.2-0.6,0.4c-0.7,0.5-1.4,1-2.1,1.7
					C-36.014,42.2-36.114,42.3-36.214,42.5c-0.4,0.2-0.6,0.4-0.9,0.6c-0.4,0.3-0.7,0.5-1.1,0.7c0,0,0,0,0,0.1l0,0l0,0
					c0.3-0.2,0.6-0.4,1.1-0.8C-36.814,43-36.514,42.8-36.214,42.5z"/>
				<path class="st19" d="M-35.414,43c0.2-0.1,0.3-0.3,0.5-0.4c0.7-0.6,1.4-1.2,2-1.7c0.2-0.1,0.4-0.3,0.6-0.4
					c1.1-0.7,2.3-1.1,3.4-1.2c0,0,0,0,0-0.1s0,0-0.1,0c-1.1,0.1-2.3,0.6-3.5,1.3c-0.2,0.1-0.4,0.2-0.6,0.4c-0.7,0.5-1.4,1.1-2.1,1.7
					C-35.114,42.6-35.314,42.8-35.414,43c-0.4,0.2-0.6,0.4-0.9,0.6c-0.4,0.3-0.7,0.6-1.1,0.8c0,0,0,0,0,0.1l0,0l0,0
					c0.3-0.2,0.7-0.4,1.1-0.8C-36.014,43.5-35.714,43.3-35.414,43z"/>
				<path class="st19" d="M-34.614,43.5c0.2-0.1,0.3-0.3,0.5-0.4c0.7-0.6,1.4-1.2,2-1.7c0.2-0.1,0.4-0.3,0.6-0.4
					c1.1-0.7,2.3-1.1,3.4-1.2c0,0,0,0,0-0.1c0,0,0,0-0.1,0c-1.1,0.1-2.3,0.6-3.4,1.3c-0.2,0.1-0.4,0.2-0.6,0.4
					c-0.7,0.5-1.4,1.1-2.1,1.7C-34.314,43.1-34.514,43.3-34.614,43.5c-0.4,0.2-0.6,0.4-0.9,0.6c-0.4,0.3-0.7,0.6-1.1,0.8
					c0,0,0,0,0,0.1l0,0l0,0c0.3-0.2,0.7-0.4,1.1-0.8C-35.114,44-34.914,43.7-34.614,43.5z"/>
				<path class="st19" d="M-33.814,44c0.2-0.1,0.3-0.3,0.5-0.4c0.7-0.6,1.4-1.2,2.1-1.7c0.2-0.1,0.4-0.3,0.6-0.4
					c1.1-0.7,2.3-1.1,3.4-1.2c0,0,0,0,0-0.1c0,0,0,0-0.1,0c-1.1,0.2-2.3,0.6-3.4,1.3c-0.2,0.1-0.4,0.2-0.6,0.4
					c-0.7,0.5-1.4,1.1-2.1,1.7C-33.514,43.6-33.714,43.8-33.814,44c-0.4,0.2-0.6,0.4-0.9,0.6c-0.4,0.3-0.8,0.6-1.1,0.8
					c0,0,0,0,0,0.1l0,0l0,0c0.3-0.2,0.7-0.4,1.1-0.8C-34.314,44.5-34.014,44.2-33.814,44z"/>
				<path class="st19" d="M-32.914,44.5c0.2-0.1,0.3-0.3,0.5-0.4c0.7-0.6,1.4-1.2,2.1-1.7c0.2-0.1,0.4-0.3,0.6-0.4
					c1.1-0.7,2.2-1.1,3.3-1.2c0,0,0,0,0-0.1c0,0,0,0-0.1,0c-1.1,0.2-2.3,0.6-3.4,1.3c-0.2,0.1-0.4,0.2-0.6,0.4
					c-0.7,0.5-1.4,1.1-2.1,1.7C-32.714,44.1-32.914,44.2-32.914,44.5c-0.4,0.2-0.6,0.4-0.9,0.6c-0.4,0.3-0.8,0.6-1.1,0.8
					c0,0,0,0,0,0.1l0,0l0,0c0.3-0.2,0.7-0.4,1.1-0.8C-33.514,45-33.214,44.7-32.914,44.5z"/>
				<path class="st19" d="M-32.114,44.9c0.2-0.1,0.3-0.3,0.5-0.4c0.7-0.7,1.4-1.2,2.1-1.7c0.2-0.1,0.4-0.3,0.6-0.4
					c1.1-0.6,2.2-1.1,3.3-1.2c0,0,0,0,0-0.1c0,0,0,0-0.1,0c-1.1,0.2-2.3,0.6-3.3,1.3c-0.2,0.1-0.4,0.2-0.6,0.4
					c-0.7,0.5-1.4,1.1-2.1,1.7C-31.914,44.6-32.014,44.7-32.114,44.9c-0.4,0.2-0.6,0.4-0.9,0.6c-0.4,0.3-0.8,0.6-1.1,0.8
					c0,0,0,0,0,0.1l0,0l0,0c0.4-0.2,0.7-0.4,1.1-0.8C-32.714,45.4-32.414,45.2-32.114,44.9z"/>
				<path class="st19" d="M-28.214,42.8c-0.2,0.1-0.4,0.2-0.6,0.4c-0.7,0.5-1.4,1.1-2.1,1.7c-0.2,0.1-0.3,0.3-0.5,0.4
					c-0.3,0.3-0.6,0.5-0.9,0.7c-0.4,0.3-0.8,0.6-1.1,0.8c0,0,0,0,0,0.1l0,0l0,0c0.4-0.2,0.7-0.4,1.1-0.8c0.3-0.2,0.6-0.5,0.9-0.7
					c0.2-0.1,0.3-0.3,0.5-0.4c0.7-0.7,1.4-1.2,2.1-1.7C-28.614,43.2-28.414,43-28.214,42.8c1.1-0.6,2.2-1,3.3-1.2c0,0,0,0,0-0.1
					c0,0,0,0-0.1,0C-26.014,41.7-27.214,42.2-28.214,42.8z"/>
			</g>
		</g>
		<g>
			<g>
				<g>
					<g>
						<g class="st20">
							<g>
								<path class="st21" d="M-24.314,41.9l-7.9-4.6l-0.1-0.1L-24.314,41.9L-24.314,41.9z"/>
							</g>
							<g>
								<path class="st22" d="M-24.214,41.6c-0.1,0.1-0.1,0.1-0.1,0.2l-7.9-4.6l0.1-0.2L-24.214,41.6z"/>
							</g>
							<g>
								<path class="st23" d="M-24.014,41.5h-0.1c0,0-0.1,0-0.1,0.1l-8-4.6l0.2-0.1L-24.014,41.5z"/>
							</g>
						</g>
					</g>
					<g>
						<polygon class="st24" points="-23.114,42.2 -23.114,42.3 -23.114,42.3 -23.114,42.3 -23.214,42.3 -23.114,42.3 						"/>
					</g>
					<path d="M-23.114,42.2l-0.3-0.2l0,0c0,0,0,0-0.1,0l-0.1,0.1l0,0L-23.114,42.2C-23.114,42.3-23.114,42.3-23.114,42.2
						C-23.114,42.3-23.114,42.3-23.114,42.2z"/>
					<path class="st25" d="M-31.714,37h-0.1l-0.1,0.1c0,0.1-0.1,0.1-0.1,0.2v0.1l-0.4-0.3c0,0-0.1,0-0.1-0.1s0-0.1,0.1-0.2
						c0-0.1,0.1-0.1,0.1-0.1h0.1l0,0L-31.714,37z"/>
					<path class="st26" d="M-24.014,41.5L-24.014,41.5L-24.014,41.5z"/>
				</g>
				<path class="st27" d="M-24.014,41.5L-24.014,41.5L-24.014,41.5c-0.1,0-0.2,0-0.2,0s0,0,0,0.1l0,0c0,0-0.1,0.1-0.1,0.2l0,0v0.1
					l0,0l0.8,0.3l0,0c0,0,0-0.1,0.1-0.1c0,0,0,0,0.1,0L-24.014,41.5z"/>
			</g>
			
				<linearGradient id="SVGID_1_" gradientUnits="userSpaceOnUse" x1="-31.6409" y1="-1763.1644" x2="-31.8216" y2="-1763.4897" gradientTransform="matrix(1 0 0 -1 0 -1726)">
				<stop  offset="0" style="stop-color:#78ACED"/>
				<stop  offset="1" style="stop-color:#4F7BB3"/>
			</linearGradient>
			<path class="st28" d="M-31.314,37.3L-31.314,37.3L-31.314,37.3l-0.4-0.3l0,0l0,0h-0.1l0,0h-0.1c-0.1,0-0.1,0.1-0.1,0.1
				c0,0.1-0.1,0.1-0.1,0.2c0,0,0,0.1,0.1,0.1h0.1l0,0l0,0l0.3,0.2l0,0l0,0l0.1,0.1l0,0l0,0l0,0c0,0,0,0,0-0.1l0,0v-0.1l0,0l0.1-0.1
				l0,0C-31.414,37.3-31.414,37.2-31.314,37.3L-31.314,37.3L-31.314,37.3L-31.314,37.3L-31.314,37.3z"/>
		</g>
	</g>
</g>
<radialGradient id="SVGID_00000181783265859135017850000012428558592016930187_" cx="-658.585" cy="-3340.5396" r="15.9018" gradientTransform="matrix(1.5353 0 0 -0.4819 1036.1255 -1568.306)" gradientUnits="userSpaceOnUse">
	<stop  offset="0.4351" style="stop-color:#B4BCC1"/>
	<stop  offset="0.94" style="stop-color:#ECEEEF;stop-opacity:0"/>
</radialGradient>
<ellipse style="fill:url(#SVGID_00000181783265859135017850000012428558592016930187_);" cx="25" cy="41.5" rx="24.4" ry="7.7"/>
<g id="Base">
	<g>
		<g>
			<g>
				<polygon class="st30" points="21.339,30.333 21.339,30.153 25.442,30.081 25.442,30.263 23.309,31.194 				"/>
				<polygon class="st31" points="21.339,30.153 21.339,30.333 23.309,31.194 23.309,31.013 				"/>
				<polygon class="st32" points="21.339,30.153 23.472,29.221 25.442,30.081 23.309,31.013 				"/>
				<g>
					<polygon class="st31" points="23.186,30.501 24.265,30.012 22.273,28.066 22.043,29.582 					"/>
					<polygon class="st33" points="23.186,30.501 22.208,30.147 21.423,29.311 22.043,29.582 					"/>
					<polygon class="st34" points="22.043,29.582 21.423,29.311 21.653,27.795 22.273,28.066 					"/>
				</g>
			</g>
			<g>
				<path class="st35" d="M25.952,26.238l-2.226,3.706h-0.004c-0.051,0.097-0.162,0.193-0.343,0.27l-3.129,1.365l1.161-3.223
					l-0.417-2.982L25.952,26.238z"/>
				<path class="st36" d="M21.411,28.355l-1.161,3.223c-0.248,0.11-0.567,0.164-0.869,0.164c-0.251,0-0.489-0.039-0.669-0.116
					l-9.139-3.99c-0.136-0.059-0.217-0.136-0.248-0.218H9.323l-2.222-4.47l12.916,2.253l0.977,0.172L21.411,28.355z"/>
				<path class="st37" d="M21.411,28.355l-1.161,3.223c-0.248,0.11-0.567,0.164-0.869,0.164c-0.251,0-0.489-0.039-0.669-0.116
					l0.679-3.211l0.624-3.215l0.556-2.848l0.421,3.02L21.411,28.355z"/>
				<path class="st34" d="M25.512,26.564l-4.101,1.79c-0.597,0.261-1.501,0.289-2.019,0.064L7.406,23.185
					c-0.518-0.225-0.452-0.621,0.145-0.881l4.101-1.79c0.597-0.261,1.501-0.289,2.019-0.064l11.987,5.233
					C26.174,25.908,26.11,26.303,25.512,26.564z"/>
				<path class="st38" d="M7.226,23.03c-0.042-0.019-0.074-0.039-0.108-0.059c0.056,0.08,0.15,0.153,0.289,0.213l11.987,5.233
					c0.518,0.226,1.422,0.197,2.019-0.064l4.101-1.79c0.549-0.24,0.642-0.59,0.253-0.822c0.152,0.216,0.109,0.528-0.328,0.719
					l-4.101,1.79c-0.597,0.261-1.606,0.239-2.124,0.012"/>
			</g>
			<path class="st39" d="M26.006,22.609v3.12h-0.004c-0.018,0.164-0.18,0.336-0.489,0.472l-4.089,1.786v-6.166L26.006,22.609z"/>
			<path class="st40" d="M21.423,21.823v6.166l-0.009,0.004c-0.599,0.259-1.502,0.288-2.019,0.062l-11.99-5.231
				c-0.236-0.103-0.343-0.245-0.343-0.387l-0.005-0.004v-3.083l4.613,0.793c0.599-0.252,1.488-0.278,2-0.055l1.512,0.658
				l4.212,0.723L21.423,21.823z"/>
			<path class="st35" d="M21.424,20.824v7.164l-0.014,0.005c-0.597,0.259-1.5,0.287-2.019,0.062v-7.231L21.424,20.824L21.424,20.824
				z"/>
			<path class="st38" d="M25.512,23.133l-4.101,1.79c-0.597,0.261-1.501,0.289-2.019,0.064L7.406,19.754
				c-0.518-0.225-0.452-0.621,0.145-0.881l4.101-1.79c0.597-0.261,1.501-0.289,2.019-0.064l11.987,5.233
				C26.174,22.478,26.11,22.873,25.512,23.133z"/>
			<path class="st35" d="M20.271,24.755c-0.248,0-0.476-0.037-0.622-0.101l-11.635-5.08c-0.35-0.162-0.378-0.286-0.099-0.415
				l3.993-1.742c0.236-0.103,0.567-0.164,0.887-0.164c0.248,0,0.475,0.037,0.622,0.101l11.775,5.141
				c0.209,0.087,0.251,0.226,0.067,0.307l-4.101,1.79C20.922,24.693,20.59,24.755,20.271,24.755z"/>
			<path class="st37" d="M7.839,19.477c0.022-0.013,0.046-0.027,0.075-0.04l3.993-1.742c0.236-0.103,0.567-0.164,0.887-0.164
				c0.248,0,0.475,0.037,0.622,0.101l11.775,5.141c0.022,0.01,0.042,0.019,0.061,0.03l0.006-0.003
				c0.185-0.08,0.141-0.22-0.067-0.307l-11.775-5.141c-0.147-0.064-0.373-0.101-0.622-0.101c-0.32,0-0.652,0.061-0.887,0.164
				l-3.993,1.742C7.693,19.26,7.668,19.36,7.839,19.477z"/>
			<g>
				<polygon class="st30" points="14.074,33.325 14.074,33.506 16.043,34.366 18.177,33.434 18.177,33.254 				"/>
				<polygon class="st31" points="14.074,33.325 14.074,33.506 16.043,34.366 16.043,34.185 				"/>
				<polygon class="st32" points="16.207,32.394 14.074,33.325 16.043,34.185 18.177,33.254 				"/>
				<polygon class="st41" points="15.955,33.584 15.335,33.314 17.179,29.555 17.797,29.825 				"/>
				<polygon class="st31" points="17.034,33.096 15.955,33.584 17.797,29.825 18.177,31.213 				"/>
			</g>
			<g>
				<polygon class="st30" points="6.867,30.179 6.867,30.359 8.837,31.219 10.97,30.288 10.97,30.107 				"/>
				<polygon class="st31" points="6.867,30.179 6.867,30.359 8.837,31.219 8.837,31.039 				"/>
				<polygon class="st32" points="9,29.247 6.867,30.179 8.837,31.039 10.97,30.107 				"/>
				<polygon class="st41" points="8.748,30.438 8.128,30.168 9.972,26.408 10.59,26.678 				"/>
				<polygon class="st31" points="9.827,29.949 8.748,30.438 10.59,26.678 10.97,28.067 				"/>
			</g>
		</g>
		<g>
			<path class="st37" d="M11.678,25.658v0.492c0,0.093-0.044,0.154-0.109,0.182v0.003l-0.472,0.208l-0.472-0.457L11.678,25.658z"/>
			<path class="st39" d="M11.678,25.658l-1.052,0.429l-0.061-0.057L9.33,24.84l0.492-0.213c0.054-0.026,0.125-0.028,0.207,0.008
				l1.347,0.588C11.543,25.294,11.678,25.488,11.678,25.658z"/>
			<path class="st35" d="M11.678,25.658l-1.052,0.429l-0.119,0.049l0.057-0.105l0.33-0.598l0.482-0.21
				C11.543,25.294,11.678,25.488,11.678,25.658z"/>
			<path class="st40" d="M11.196,25.868v0.492c0,0.168-0.136,0.245-0.302,0.172l-1.349-0.589c-0.167-0.072-0.302-0.268-0.302-0.436
				v-0.492c0-0.168,0.136-0.245,0.302-0.172l1.349,0.589C11.061,25.505,11.196,25.7,11.196,25.868z"/>
			<path class="st42" d="M11.065,25.853v0.408c0,0.119-0.096,0.174-0.215,0.123l-1.259-0.55c-0.118-0.052-0.215-0.191-0.215-0.31
				v-0.408c0-0.119,0.096-0.174,0.215-0.123l1.259,0.55C10.969,25.594,11.065,25.733,11.065,25.853z"/>
			<path class="st43" d="M10.85,25.542l-0.992-0.433v0.212c0,0.119,0.096,0.258,0.215,0.31l0.992,0.433v-0.212
				C11.065,25.733,10.969,25.594,10.85,25.542z"/>
			<path class="st44" d="M10.85,25.542l-0.86-0.376v0.112c0,0.119,0.096,0.258,0.215,0.31l0.86,0.376v-0.112
				C11.065,25.733,10.969,25.594,10.85,25.542z"/>
		</g>
		<g>
			<path class="st37" d="M16.768,27.821v0.492c0,0.092-0.044,0.154-0.109,0.182v0.003l-0.472,0.208l-0.472-0.457L16.768,27.821z"/>
			<path class="st39" d="M16.768,27.821l-1.052,0.429l-0.061-0.057l-1.236-1.191l0.492-0.213c0.054-0.026,0.125-0.028,0.207,0.008
				l1.347,0.588C16.633,27.457,16.768,27.651,16.768,27.821z"/>
			<path class="st35" d="M16.768,27.821l-1.052,0.429l-0.119,0.049l0.057-0.105l0.33-0.598l0.482-0.21
				C16.633,27.457,16.768,27.651,16.768,27.821z"/>
			<path class="st40" d="M16.285,28.031v0.492c0,0.168-0.136,0.245-0.302,0.172l-1.349-0.589c-0.167-0.072-0.302-0.268-0.302-0.436
				v-0.492c0-0.168,0.136-0.245,0.302-0.172l1.349,0.589C16.151,27.668,16.285,27.863,16.285,28.031z"/>
			<path class="st42" d="M16.155,28.016v0.408c0,0.119-0.096,0.174-0.215,0.123l-1.259-0.55c-0.118-0.052-0.215-0.191-0.215-0.31
				v-0.408c0-0.119,0.096-0.174,0.215-0.123l1.259,0.55C16.059,27.757,16.155,27.896,16.155,28.016z"/>
			<path class="st43" d="M15.939,27.705l-0.992-0.433v0.212c0,0.119,0.096,0.258,0.215,0.31l0.992,0.433v-0.212
				C16.155,27.896,16.059,27.757,15.939,27.705z"/>
			<path class="st44" d="M15.939,27.705l-0.86-0.376v0.112c0,0.119,0.096,0.258,0.215,0.31l0.86,0.376v-0.112
				C16.155,27.896,16.059,27.757,15.939,27.705z"/>
		</g>
		<g>
			<g>
				<path class="st37" d="M22.499,25.448v0.492c0,0.093,0.044,0.154,0.109,0.182v0.003l0.472,0.208l0.471-0.457L22.499,25.448z"/>
				<path class="st38" d="M22.499,25.448l1.052,0.429l0.061-0.057l1.236-1.191l-0.492-0.213c-0.054-0.026-0.125-0.028-0.207,0.008
					l-1.347,0.588C22.634,25.083,22.499,25.278,22.499,25.448z"/>
				<path class="st35" d="M22.499,25.448l1.052,0.429l0.119,0.049l-0.057-0.105l-0.33-0.598l-0.482-0.21
					C22.634,25.083,22.499,25.278,22.499,25.448z"/>
				<path class="st45" d="M22.98,25.658v0.492c0,0.168,0.136,0.245,0.302,0.172l1.348-0.589c0.167-0.072,0.302-0.268,0.302-0.436
					v-0.492c0-0.168-0.136-0.245-0.302-0.172l-1.348,0.589C23.116,25.295,22.98,25.49,22.98,25.658z"/>
				<path class="st37" d="M23.112,25.642v0.408c0,0.119,0.096,0.174,0.215,0.123l1.259-0.55c0.118-0.052,0.215-0.191,0.215-0.31
					v-0.408c0-0.119-0.096-0.174-0.215-0.123l-1.259,0.55C23.208,25.384,23.112,25.523,23.112,25.642z"/>
				<path class="st46" d="M23.326,25.332l0.992-0.433v0.212c0,0.119-0.096,0.258-0.215,0.31l-0.992,0.433v-0.212
					C23.112,25.523,23.208,25.384,23.326,25.332z"/>
				<path class="st47" d="M23.326,25.332l0.86-0.376v0.112c0,0.119-0.096,0.258-0.215,0.31l-0.86,0.376v-0.112
					C23.112,25.523,23.208,25.384,23.326,25.332z"/>
			</g>
		</g>
		<g>
			<g>
				<path class="st37" d="M22.398,28.513l-0.117,0.437c-0.022,0.082-0.002,0.136,0.042,0.162l-0.001,0.003l0.319,0.184l0.477-0.405
					L22.398,28.513z"/>
				<path class="st38" d="M22.398,28.513l0.719,0.38l0.061-0.05l1.246-1.055l-0.333-0.189c-0.036-0.023-0.091-0.025-0.164,0.007
					l-1.191,0.521C22.59,28.191,22.438,28.363,22.398,28.513z"/>
				<path class="st35" d="M22.398,28.513l0.719,0.38l0.081,0.043l-0.02-0.093l-0.116-0.529l-0.326-0.187
					C22.59,28.191,22.438,28.363,22.398,28.513z"/>
				<path class="st39" d="M22.724,28.699l-0.117,0.436c-0.04,0.149,0.047,0.217,0.194,0.153l1.192-0.522
					c0.147-0.065,0.299-0.238,0.339-0.386l0.117-0.436c0.04-0.149-0.047-0.217-0.194-0.153l-1.192,0.522
					C22.916,28.377,22.764,28.55,22.724,28.699z"/>
				<path class="st37" d="M22.831,28.686l-0.097,0.362c-0.028,0.106,0.034,0.155,0.138,0.109l1.113-0.487
					c0.105-0.046,0.213-0.169,0.241-0.275l0.097-0.362c0.028-0.106-0.034-0.155-0.138-0.109l-1.113,0.487
					C22.967,28.457,22.86,28.58,22.831,28.686z"/>
				<path class="st46" d="M23.073,28.411l0.877-0.384l-0.05,0.188c-0.028,0.106-0.137,0.229-0.241,0.275l-0.877,0.384l0.05-0.187
					C22.86,28.58,22.967,28.457,23.073,28.411z"/>
				<path class="st47" d="M23.073,28.411l0.761-0.333l-0.027,0.1c-0.028,0.106-0.137,0.229-0.241,0.275l-0.761,0.333l0.027-0.1
					C22.86,28.58,22.967,28.457,23.073,28.411z"/>
			</g>
		</g>
	</g>
	<g>
		<g>
			<g>
				<g class="st20">
					<polygon class="st48" points="17.1,17.36 17.83,18.821 17.348,19.309 17.145,19.172 17.577,18.751 16.997,17.524 					"/>
					<g>
						<polygon class="st49" points="17.11,21.814 17.111,22.174 14.597,21.069 14.595,20.709 						"/>
					</g>
					<g>
						<polygon class="st39" points="19.638,20.709 19.639,21.07 17.111,22.174 17.11,21.814 						"/>
					</g>
					<g>
						<polygon class="st38" points="17.11,21.814 14.595,20.709 17.125,19.605 19.638,20.709 						"/>
					</g>
					<polygon class="st50" points="17.219,17.443 17.95,18.903 17.468,19.392 17.265,19.254 17.698,18.833 17.117,17.606 					"/>
				</g>
			</g>
			<g>
				<g class="st20">
					<g>
						<polygon class="st49" points="16.951,21.336 15.586,20.737 15.99,19.667 17.354,20.267 						"/>
					</g>
					<polygon class="st51" points="14.528,20.709 15.906,20.709 16.547,20.186 16.289,20.203 15.853,20.562 14.732,20.562 					"/>
					<polygon class="st52" points="14.656,20.739 16.032,20.739 16.728,20.175 16.47,20.192 15.948,20.626 14.828,20.626 					"/>
					<g>
						<polygon class="st53" points="17.354,20.267 15.99,19.667 16.878,19.279 18.244,19.879 						"/>
					</g>
					<g>
						<polygon class="st39" points="16.951,21.336 17.354,20.267 18.244,19.879 18.653,20.593 						"/>
					</g>
				</g>
			</g>
			<g>
				<g class="st20">
					<g>
						<polygon class="st54" points="16.276,20.204 14.998,19.63 16.136,18.14 17.414,18.714 						"/>
					</g>
					<g>
						<polygon class="st55" points="17.414,18.714 17.85,19.363 17.256,20.14 16.276,20.204 						"/>
					</g>
				</g>
				<g class="st20">
					<g>
						<polygon class="st56" points="16.689,18.414 15.411,17.84 16.136,18.14 17.414,18.714 						"/>
					</g>
					<g>
						<polygon class="st54" points="15.55,19.905 14.272,19.331 15.411,17.84 16.689,18.414 						"/>
					</g>
					<g>
						<polygon class="st57" points="16.689,18.414 17.414,18.714 16.276,20.204 15.55,19.905 						"/>
					</g>
				</g>
			</g>
			<path class="st58" d="M16.814,19.096c-0.918,1.499-2.879,2.259-4.729,1.905c0,0-1.685-2.329-0.767-3.828
				c0.918-1.499,4.449-1.988,4.449-1.988C17.244,15.956,17.731,17.596,16.814,19.096z"/>
			<path class="st59" d="M16.371,18.941c-0.995,1.626-3.034,2.514-4.551,1.983c-0.106-0.037-0.208-0.08-0.304-0.13
				c-1.265-0.647-1.565-2.266-0.641-3.777c0.677-1.107,1.836-1.87,2.987-2.079c0.539-0.097,1.078-0.073,1.562,0.097
				C16.942,15.565,17.366,17.314,16.371,18.941z"/>
			<path class="st60" d="M15.664,18.617c-0.458,0.749-1.396,1.157-2.095,0.913c-0.699-0.245-0.893-1.049-0.435-1.798
				c0.458-0.749,1.396-1.157,2.095-0.913C15.927,17.063,16.122,17.869,15.664,18.617z"/>
			<path class="st59" d="M15.347,18.507c-0.344,0.562-1.047,0.869-1.572,0.685s-0.671-0.788-0.326-1.35
				c0.344-0.562,1.047-0.869,1.572-0.685C15.544,17.341,15.692,17.945,15.347,18.507z"/>
			<path class="st61" d="M14.968,18.374c-0.284,0.465-0.866,0.719-1.3,0.567c-0.434-0.152-0.554-0.651-0.27-1.116
				c0.284-0.465,0.866-0.719,1.3-0.567C15.132,17.41,15.253,17.909,14.968,18.374z"/>
		</g>
		<polygon class="st53" points="13.737,17.394 14.011,17.452 14.571,17.719 13.072,18.095 12.736,17.778 12.922,17.437 
			13.468,17.634 		"/>
		<polygon class="st62" points="14.07,17.553 14.571,17.719 14.628,18.152 14.276,18.631 13.594,18.379 13.198,18 13.385,17.659 
			14.028,17.9 		"/>
		<polygon class="st63" points="13.198,18 12.736,17.778 13.072,18.095 13.594,18.379 		"/>
		<polygon class="st64" points="14.07,17.553 14.028,17.9 13.468,17.634 13.737,17.394 		"/>
		<polygon class="st64" points="12.922,17.437 13.385,17.659 13.198,18 12.736,17.778 		"/>
		<polygon class="st31" points="13.172,17.698 10.568,16.736 10.466,16.681 10.539,16.573 12.998,17.602 		"/>
		<polygon class="st65" points="13.073,17.84 10.568,16.736 10.639,16.628 13.172,17.698 		"/>
		<path class="st66" d="M10.772,16.644c0,0.094-0.101,0.171-0.226,0.171c-0.125,0-0.226-0.076-0.226-0.171
			c0-0.095,0.101-0.171,0.226-0.171C10.672,16.474,10.772,16.55,10.772,16.644z"/>
	</g>
</g>
<g>
	<g>
		<g>
			<g>
				<g>
					<path class="st67" d="M18.893,38.155c-0.004-0.02-0.008-0.04-0.013-0.059l0.051,0.04L18.893,38.155z M18.907,38.554
						c0.003-0.034,0.005-0.067,0.006-0.099l0.06-0.044c0.002-0.091-0.004-0.174-0.016-0.255l0.304,0.241l-0.113-0.466l-0.8-0.597
						l-0.005,0.005l-0.074-0.055c-0.067-0.038-0.483-0.321-0.562-0.339l-0.098-0.017c-0.083-0.009-0.171-0.008-0.264,0.002
						l-0.036,0.069c-0.003,0.001-0.005,0-0.007,0.001l-0.07-0.052c-0.093,0.019-0.192,0.048-0.292,0.088l-0.022,0.069
						c-0.015,0.006-0.03,0.012-0.045,0.018c-0.001,0.001-0.002,0.002-0.003,0.002l-0.05-0.037c-0.102,0.047-0.203,0.103-0.301,0.167
						l-0.008,0.064c-0.024,0.015-0.046,0.032-0.07,0.048L16.4,37.337c-0.1,0.071-0.198,0.151-0.292,0.236l0.007,0.056
						c-0.028,0.026-0.056,0.053-0.083,0.079l-0.037-0.028c-0.092,0.091-0.181,0.189-0.264,0.291l0.022,0.044
						c-0.025,0.032-0.05,0.063-0.075,0.095l-0.047-0.013c-0.079,0.106-0.152,0.215-0.22,0.328l0.035,0.029
						c-0.021,0.034-0.041,0.069-0.06,0.105l-0.055,0.004c-0.061,0.112-0.115,0.227-0.162,0.343l0.04,0.029
						c-0.012,0.03-0.024,0.06-0.034,0.091l-0.059,0.022c-0.039,0.112-0.071,0.225-0.094,0.337l0.047,0.035
						c-0.004,0.021-0.008,0.043-0.012,0.064l-0.06,0.037c-0.002,0.02-0.006,0.04-0.008,0.059c-0.01,0.088-0.014,0.171-0.013,0.252
						l0.063,0.047c0.001,0.009,0.001,0.018,0.002,0.026l-0.057,0.051c0.009,0.095,0.027,0.184,0.053,0.264l0.076,0.056l-0.037,0.044
						c0.034,0.075,0.075,0.142,0.124,0.201l0.077,0.058l-0.009,0.014c0.035,0.032,0.246,0.343,0.287,0.367l0.856,0.486l0.033-0.009
						l0.249,0.173l0.125-0.047l-0.225-0.31c0.065-0.007,0.132-0.02,0.201-0.037l0.029-0.069c0.033-0.009,0.066-0.019,0.098-0.03
						l0,0.06c0.048-0.016,0.097-0.035,0.146-0.056c0.05-0.022,0.099-0.046,0.148-0.07l0.015-0.066
						c0.034-0.018,0.068-0.036,0.102-0.056l0.015,0.05c0.1-0.059,0.198-0.127,0.294-0.2l0-0.06c0.034-0.026,0.067-0.052,0.098-0.08
						l0.029,0.037c0.096-0.082,0.187-0.17,0.275-0.263l-0.015-0.05c0.03-0.032,0.059-0.065,0.088-0.098l0.041,0.022
						c0.085-0.099,0.165-0.202,0.239-0.309l-0.029-0.037c0.025-0.036,0.049-0.072,0.072-0.109l0.051,0.004
						c0.069-0.109,0.132-0.222,0.188-0.336l-0.041-0.021c0.018-0.038,0.037-0.076,0.053-0.113l0.057-0.013
						c0.049-0.113,0.09-0.227,0.124-0.34l-0.051-0.004c0.011-0.036,0.02-0.073,0.03-0.109l0.06-0.029
						c0.021-0.089,0.038-0.178,0.048-0.266c0.002-0.019,0.005-0.038,0.006-0.058L18.907,38.554z"/>
					<polygon class="st68" points="17.707,36.945 18.136,37.384 18.85,37.798 19.069,37.882 18.347,37.422 17.919,37.06 					"/>
					<polygon class="st68" points="15.522,38.257 15.415,38.424 15.732,39.042 16.557,39.277 16.777,38.95 15.956,38.718 
						15.635,38.096 					"/>
					<polygon class="st68" points="15.866,37.816 15.733,37.971 16.051,38.588 16.876,38.824 17.14,38.533 16.319,38.301 
						15.998,37.68 					"/>
					<polygon class="st68" points="16.244,37.453 16.111,37.573 16.427,38.19 17.252,38.425 17.544,38.189 16.724,37.957 
						16.402,37.336 					"/>
					<polygon class="st68" points="16.651,37.172 16.522,37.255 16.838,37.872 17.663,38.107 17.965,37.941 17.144,37.709 
						16.823,37.088 					"/>
					<polygon class="st68" points="17.071,36.987 16.942,37.037 17.231,37.554 18.084,37.889 18.376,37.801 17.528,37.47 
						17.234,36.948 					"/>
					<polygon class="st68" points="17.492,36.922 17.345,36.93 17.694,37.423 18.488,37.784 18.752,37.782 17.945,37.361 
						17.609,36.929 					"/>
					<polygon points="18.797,38.105 19.186,38.39 19.362,38.177 18.833,37.808 					"/>
					<polygon class="st69" points="18.915,38.447 19.304,38.731 19.48,38.519 18.953,38.125 					"/>
					<polygon class="st69" points="18.928,38.864 19.316,39.149 19.493,38.936 18.966,38.543 					"/>
					<polygon class="st69" points="18.836,39.331 19.224,39.616 19.401,39.404 18.874,39.01 					"/>
					<polygon class="st69" points="18.643,39.819 19.031,40.103 19.208,39.891 18.681,39.497 					"/>
					<path class="st70" d="M16.178,40.664c0.001,0.033,0.003,0.064,0.006,0.095l-0.057,0.051c0.009,0.095,0.027,0.184,0.053,0.264
						l0.06-0.037c0.01,0.027,0.019,0.053,0.03,0.078l-0.051,0.061c0.034,0.075,0.075,0.142,0.124,0.201l0.057-0.051
						c0.017,0.019,0.034,0.038,0.053,0.055l-0.042,0.067c0.056,0.051,0.118,0.093,0.188,0.126l0.051-0.061
						c0.023,0.011,0.048,0.021,0.073,0.029l-0.029,0.07c0.074,0.024,0.155,0.038,0.239,0.042l0.042-0.067
						c0.029,0.002,0.059,0.002,0.089,0.001l-0.015,0.066c0.088-0.004,0.179-0.019,0.275-0.044l0.029-0.069
						c0.033-0.009,0.066-0.019,0.098-0.03l0,0.06c0.048-0.016,0.097-0.035,0.146-0.056c0.05-0.022,0.099-0.046,0.148-0.07
						l0.015-0.066c0.034-0.018,0.068-0.036,0.102-0.056l0.015,0.05c0.1-0.059,0.198-0.127,0.294-0.2l0-0.06
						c0.034-0.026,0.067-0.052,0.098-0.08l0.029,0.037c0.096-0.082,0.187-0.17,0.275-0.263l-0.015-0.05
						c0.03-0.032,0.059-0.065,0.088-0.098l0.041,0.022c0.085-0.099,0.165-0.202,0.239-0.309l-0.029-0.037
						c0.025-0.036,0.049-0.072,0.072-0.109l0.051,0.004c0.069-0.109,0.132-0.222,0.188-0.336l-0.041-0.021
						c0.018-0.038,0.037-0.076,0.053-0.113l0.057-0.013c0.049-0.113,0.09-0.227,0.124-0.34l-0.051-0.004
						c0.011-0.036,0.02-0.073,0.03-0.109l0.06-0.029c0.021-0.089,0.038-0.178,0.048-0.266c0.002-0.019,0.005-0.038,0.006-0.058
						l-0.058,0.013c0.003-0.034,0.005-0.067,0.006-0.099l0.06-0.044c0.002-0.104-0.005-0.199-0.02-0.288l-0.06,0.029
						c-0.006-0.028-0.011-0.057-0.018-0.083l0.054-0.056c-0.022-0.086-0.055-0.163-0.094-0.233l-0.06,0.044
						c-0.012-0.022-0.026-0.043-0.04-0.062l0.046-0.065c-0.046-0.063-0.101-0.119-0.162-0.163l-0.055,0.057
						c-0.019-0.013-0.038-0.026-0.059-0.038l0.036-0.069c-0.067-0.038-0.141-0.065-0.219-0.083l-0.046,0.065
						c-0.024-0.006-0.048-0.01-0.074-0.013l0.022-0.069c-0.083-0.009-0.171-0.008-0.264,0.002l-0.036,0.069
						c-0.028,0.004-0.056,0.008-0.085,0.014l0.008-0.064c-0.093,0.019-0.192,0.048-0.292,0.088l-0.022,0.069
						c-0.015,0.006-0.03,0.012-0.045,0.018c-0.015,0.006-0.03,0.013-0.045,0.02l-0.007-0.056c-0.102,0.047-0.203,0.103-0.301,0.167
						l-0.008,0.064c-0.031,0.02-0.06,0.04-0.09,0.061l-0.022-0.044c-0.1,0.071-0.198,0.151-0.292,0.236l0.007,0.056
						c-0.029,0.026-0.057,0.054-0.085,0.081l-0.035-0.03c-0.092,0.091-0.181,0.189-0.264,0.291l0.022,0.044
						c-0.025,0.031-0.05,0.062-0.075,0.095l-0.047-0.013c-0.079,0.106-0.152,0.215-0.22,0.328l0.035,0.029
						c-0.021,0.034-0.041,0.069-0.06,0.105l-0.055,0.004c-0.061,0.112-0.115,0.228-0.162,0.343l0.046,0.012
						c-0.014,0.036-0.027,0.072-0.04,0.108L16.261,39.9c-0.039,0.112-0.071,0.225-0.094,0.337l0.055-0.004
						c-0.007,0.035-0.013,0.07-0.018,0.105l-0.06,0.037c-0.002,0.02-0.006,0.04-0.008,0.059c-0.01,0.088-0.014,0.172-0.013,0.252
						L16.178,40.664z"/>
					<path class="st71" d="M18.026,38.14c0.822-0.352,1.402,0.076,1.298,0.958c-0.105,0.882-0.855,1.883-1.677,2.236
						c-0.822,0.352-1.402-0.076-1.298-0.958C16.454,39.493,17.205,38.492,18.026,38.14z"/>
					<path class="st70" d="M17.973,38.591c0.589-0.252,1.006,0.055,0.931,0.688s-0.614,1.351-1.202,1.603
						c-0.589,0.252-1.006-0.055-0.931-0.688C16.846,39.561,17.383,38.844,17.973,38.591z"/>
				</g>
				<path class="st72" d="M17.956,38.732c-0.517,0.221-0.988,0.851-1.054,1.405c-0.066,0.555,0.3,0.824,0.816,0.603
					s0.988-0.851,1.054-1.405C18.838,38.78,18.473,38.511,17.956,38.732z"/>
				<path class="st73" d="M17.03,40.045c0.074-0.474,0.474-0.997,0.911-1.184c0.011-0.005,0.021-0.009,0.031-0.011
					c0.435-0.173,0.737,0.065,0.681,0.535c-0.057,0.484-0.468,1.032-0.919,1.226c-0.45,0.194-0.768-0.043-0.711-0.525
					C17.024,40.072,17.026,40.059,17.03,40.045z"/>
				<path class="st74" d="M17.94,38.86c0.011-0.005,0.021-0.009,0.031-0.011l0.263,0.24l-0.26,0.785l-0.707,0.374l-0.238-0.202
					C17.103,39.571,17.504,39.048,17.94,38.86z"/>
				<path class="st74" d="M17.041,40.381c0.08,0.274,0.347,0.378,0.692,0.23c0.451-0.194,0.862-0.742,0.919-1.225
					c0.045-0.377-0.139-0.602-0.436-0.591c0.024,0.084,0.032,0.182,0.018,0.295c-0.057,0.483-0.469,1.032-0.919,1.225
					C17.217,40.358,17.124,40.378,17.041,40.381z"/>
				<path class="st75" d="M17.807,39.049c-0.313,0.135-0.599,0.516-0.639,0.852c-0.04,0.336,0.181,0.5,0.494,0.365
					c0.313-0.135,0.599-0.516,0.639-0.852C18.341,39.077,18.119,38.914,17.807,39.049z"/>
				<path class="st76" d="M17.818,39.354c-0.167,0.072-0.319,0.275-0.34,0.454c-0.021,0.178,0.097,0.266,0.264,0.194
					c0.167-0.072,0.319-0.275,0.34-0.454C18.103,39.369,17.985,39.282,17.818,39.354z"/>
				<path class="st72" d="M17.883,39.462c-0.135,0.058-0.26,0.223-0.277,0.369c-0.017,0.146,0.079,0.217,0.214,0.159
					c0.135-0.058,0.26-0.223,0.277-0.369C18.115,39.475,18.019,39.404,17.883,39.462z"/>
			</g>
		</g>
		<polygon class="st77" points="22.25,42.075 21.026,42.665 19.353,41.519 16.704,39.721 17.929,39.13 		"/>
		<polygon class="st77" points="31.078,39.053 29.853,39.642 28.18,38.496 25.532,36.697 26.757,36.108 		"/>
		<polygon class="st77" points="26.668,40.659 25.444,41.25 23.77,40.103 21.122,38.305 22.347,37.715 		"/>
		<polygon points="24.851,39.47 23.78,38.948 20.49,41.26 20.882,41.439 23.486,40.45 24.67,40.996 		"/>
		<path class="st78" d="M19.663,39.237c0.194,0.047,0.62,1.48,0.782,1.584c0.11-0.026,3.235-1.417,3.448-1.121
			c0.042,0.059,0.776,1.297,0.776,1.297l6.671-2.706l1.136-1.484l-2.982-0.332l-0.674-0.7l-0.914-0.948l-4.406,1.831l-5.311,1.765
			c0.235,0.303,0.241,0.769,0.473,1.074C19.036,39.991,19.351,38.702,19.663,39.237z"/>
		<polygon points="24.351,40.459 30.792,37.886 30.858,38.144 24.464,40.647 		"/>
		<path class="st79" d="M24.792,39.987l8.103-3.307l0.963-0.814l1.164-1.573l-5.455,2.504l-7.494,2.973
			C22.172,39.637,24.751,39.91,24.792,39.987z"/>
		<path class="st37" d="M17.54,37.104c0.685,0.72,0.928,0.477,2.948,4.155l5.556-2.083l5.668-2.37l2.145-0.939l0.807-0.407
			l0.358-1.166l-6.086,1.468l-5.32,0.884L17.54,37.104z"/>
		<polygon class="st80" points="25.201,32.452 28.201,34.694 33.773,33.674 30.532,31.254 		"/>
		<polygon class="st36" points="25.659,31.749 25.981,33.035 31.125,31.697 30.907,31.25 		"/>
		<polygon class="st81" points="16.49,36.759 17.969,38.025 19.626,39.183 19.188,40.863 17.341,39.712 15.893,38.409 		"/>
		<polygon class="st82" points="19.626,39.183 19.188,40.863 17.431,39.69 17.717,38.089 		"/>
		<polygon class="st83" points="16.261,36.08 16.49,36.759 17.969,38.025 19.626,39.183 20.92,39.561 31.113,35.176 26.594,32.381 
					"/>
		<polygon class="st72" points="17.324,35.379 25.375,31.469 25.659,31.749 30.907,31.25 30.363,30.813 25.314,31.492 
			18.826,34.511 16.595,36.06 16.261,36.08 		"/>
		<polygon class="st84" points="16.595,36.06 16.261,36.08 16.49,36.759 16.899,37.202 17.717,38.089 19.626,39.183 20.92,39.561 
			31.113,35.176 26.594,32.381 		"/>
		<polygon class="st85" points="21.557,36.672 21.448,36.298 28.199,33.556 28.538,33.88 33.908,33.491 35.022,34.294 20.92,39.561 
					"/>
		<polygon class="st86" points="20.644,39.149 21.515,38.912 21.963,38.202 22.505,37.997 22.924,37.018 22.333,36.356 
			21.557,36.672 		"/>
		<polygon class="st87" points="22.333,36.356 22.924,37.018 22.505,37.997 21.963,38.202 21.824,38.422 20.944,38.691 
			20.981,38.575 21.716,38.358 21.839,38.143 22.401,37.921 22.795,37.003 22.275,36.384 		"/>
		<polygon class="st88" points="18.674,34.113 18.821,34.551 20.971,36.156 21.448,36.298 28.199,33.556 25.375,31.469 		"/>
		<polygon class="st89" points="20.49,41.26 20.92,39.561 19.626,39.183 19.188,40.863 		"/>
		<polygon class="st89" points="16.49,36.759 15.893,38.409 15.87,37.778 16.261,36.08 		"/>
		<polygon class="st90" points="20.644,39.149 22.112,38.75 20.92,39.561 		"/>
		<polygon class="st91" points="18.674,34.113 18.821,34.551 20.971,36.156 21.451,36.643 20.644,39.149 19.002,38.396 
			17.147,36.98 16.595,36.06 		"/>
		<polygon class="st80" points="16.595,36.06 17.147,36.98 19.002,38.396 20.643,39.149 21.515,38.912 21.824,38.422 20.846,38.721 
			19.303,38.077 17.425,36.722 16.882,35.792 		"/>
		<polygon class="st87" points="16.96,35.927 18.437,34.524 18.418,34.456 16.92,35.857 		"/>
		<polygon class="st80" points="21.448,36.298 20.971,36.156 18.821,34.551 18.674,34.113 18.393,34.376 18.501,34.737 
			20.818,36.468 21.557,36.672 		"/>
		<polygon class="st80" points="21.451,36.643 21.557,36.671 21.703,36.613 20.784,39.11 20.643,39.149 20.544,39.102 		"/>
		<polygon class="st80" points="18.393,34.376 18.418,34.456 16.633,36.124 16.595,36.06 		"/>
		<polygon class="st92" points="28.199,33.556 21.448,36.298 21.557,36.671 28.538,33.88 		"/>
		<g>
			<g>
				<g>
					<path class="st67" d="M33.096,38.375c-0.004-0.02-0.008-0.04-0.013-0.059l0.051,0.04L33.096,38.375z M33.111,38.775
						c0.003-0.033,0.005-0.067,0.006-0.099l0.06-0.044c0.002-0.091-0.004-0.174-0.016-0.255l0.303,0.24l-0.113-0.466l-0.8-0.597
						c-0.005,0.005-0.078-0.05-0.078-0.05c-0.067-0.038-0.483-0.321-0.562-0.339l-0.098-0.017c-0.083-0.009-0.171-0.008-0.264,0.002
						l-0.036,0.069c-0.006,0.001-0.076-0.051-0.076-0.051c-0.093,0.019-0.192,0.048-0.292,0.088l-0.022,0.069
						c-0.015,0.006-0.03,0.012-0.045,0.018c-0.003,0.001-0.052-0.036-0.052-0.036c-0.102,0.047-0.203,0.103-0.301,0.167
						l-0.008,0.064c-0.024,0.015-0.046,0.032-0.07,0.048l-0.042-0.031c-0.1,0.071-0.198,0.151-0.292,0.236l0.007,0.056
						c-0.028,0.026-0.056,0.053-0.083,0.079L30.2,37.9c-0.092,0.091-0.181,0.189-0.264,0.291l0.022,0.044
						c-0.025,0.032-0.05,0.063-0.075,0.095l-0.047-0.013c-0.079,0.106-0.152,0.215-0.22,0.328l0.035,0.029
						c-0.021,0.034-0.041,0.069-0.06,0.105l-0.055,0.004c-0.061,0.112-0.115,0.227-0.162,0.343l0.04,0.029
						c-0.012,0.03-0.024,0.06-0.034,0.091l-0.059,0.022c-0.039,0.112-0.071,0.225-0.094,0.337l0.047,0.035
						c-0.004,0.021-0.008,0.043-0.012,0.064l-0.06,0.037c-0.002,0.02-0.006,0.04-0.008,0.059c-0.01,0.088-0.014,0.171-0.013,0.252
						l0.063,0.047c0.001,0.026-0.056,0.076-0.056,0.076c0.009,0.095,0.027,0.184,0.053,0.264l0.076,0.056l-0.037,0.044
						c0.034,0.075,0.075,0.142,0.124,0.201c0.141,0.105,0.224,0.272,0.352,0.393c0.132,0.125,0.286,0.228,0.446,0.314
						c0.091,0.049,0.315,0.246,0.413,0.218l0.033-0.009l0.249,0.173l0.125-0.047l-0.225-0.31c0.065-0.007,0.132-0.02,0.201-0.037
						l0.029-0.069c0.033-0.009,0.066-0.019,0.098-0.03l0,0.06c0.048-0.016,0.097-0.035,0.146-0.056
						c0.05-0.022,0.099-0.046,0.148-0.07l0.015-0.066c0.034-0.018,0.068-0.036,0.102-0.056l0.015,0.05
						c0.1-0.059,0.198-0.127,0.294-0.2l0-0.06c0.034-0.026,0.067-0.052,0.098-0.08l0.029,0.037c0.096-0.082,0.187-0.17,0.275-0.263
						l-0.015-0.05c0.03-0.032,0.059-0.065,0.088-0.098l0.041,0.022c0.085-0.099,0.165-0.202,0.239-0.309l-0.029-0.037
						c0.025-0.036,0.049-0.072,0.072-0.109l0.051,0.004c0.069-0.109,0.132-0.222,0.188-0.336l-0.041-0.021
						c0.018-0.038,0.037-0.076,0.053-0.113l0.057-0.013c0.049-0.113,0.09-0.227,0.124-0.34l-0.051-0.004
						c0.011-0.036,0.02-0.073,0.03-0.109l0.06-0.029c0.021-0.089,0.038-0.178,0.048-0.266c0.002-0.019,0.005-0.038,0.006-0.058
						L33.111,38.775z"/>
					<polygon class="st67" points="31.911,37.164 32.34,37.603 33.053,38.018 33.273,38.101 32.549,37.642 32.122,37.28 					"/>
					<polygon points="33,38.324 33.389,38.608 33.566,38.396 33.036,38.027 					"/>
					<polygon points="33.119,38.666 33.507,38.951 33.684,38.738 33.157,38.345 					"/>
					<polygon points="33.132,39.083 33.52,39.368 33.697,39.156 33.17,38.762 					"/>
					<polygon points="33.039,39.55 33.427,39.835 33.605,39.622 33.077,39.229 					"/>
					<polygon class="st69" points="32.846,40.038 33.234,40.323 33.41,40.11 32.884,39.717 					"/>
					<path class="st70" d="M30.382,40.88c0.001,0.033,0.003,0.064,0.006,0.095l-0.057,0.051c0.009,0.095,0.027,0.184,0.053,0.264
						l0.06-0.037c0.01,0.027,0.019,0.053,0.03,0.078l-0.051,0.061c0.034,0.075,0.075,0.142,0.124,0.201l0.057-0.051
						c0.017,0.019,0.034,0.038,0.053,0.055l-0.042,0.067c0.056,0.051,0.118,0.093,0.188,0.126l0.051-0.061
						c0.023,0.011,0.048,0.021,0.073,0.029l-0.029,0.07c0.074,0.024,0.155,0.038,0.239,0.042l0.042-0.067
						c0.029,0.002,0.059,0.002,0.089,0.001l-0.015,0.067c0.088-0.004,0.179-0.019,0.275-0.044l0.029-0.069
						c0.033-0.009,0.066-0.019,0.098-0.03l0,0.06c0.048-0.016,0.097-0.035,0.146-0.056c0.05-0.022,0.099-0.046,0.148-0.07
						l0.015-0.066c0.034-0.018,0.068-0.036,0.102-0.056l0.015,0.05c0.1-0.059,0.198-0.127,0.294-0.2l0-0.06
						c0.034-0.026,0.066-0.053,0.098-0.08l0.029,0.037c0.096-0.082,0.187-0.17,0.275-0.263l-0.015-0.05
						c0.03-0.032,0.059-0.065,0.088-0.098l0.041,0.022c0.085-0.099,0.165-0.202,0.239-0.309L33.1,40.55
						c0.025-0.036,0.049-0.072,0.072-0.109l0.051,0.004c0.069-0.109,0.132-0.222,0.188-0.336l-0.041-0.021
						c0.018-0.038,0.037-0.076,0.053-0.113l0.057-0.013c0.049-0.113,0.09-0.227,0.124-0.34l-0.052-0.003
						c0.011-0.036,0.02-0.073,0.03-0.109l0.06-0.029c0.021-0.089,0.038-0.178,0.048-0.266c0.002-0.019,0.005-0.038,0.006-0.058
						l-0.058,0.013c0.003-0.033,0.005-0.067,0.006-0.099l0.06-0.044c0.002-0.104-0.005-0.199-0.02-0.288l-0.06,0.029
						c-0.006-0.028-0.011-0.057-0.018-0.083l0.054-0.056c-0.022-0.086-0.055-0.163-0.094-0.233l-0.06,0.044
						c-0.012-0.022-0.026-0.043-0.04-0.062l0.046-0.065c-0.046-0.063-0.101-0.119-0.162-0.163l-0.055,0.057
						c-0.019-0.013-0.038-0.026-0.059-0.038l0.036-0.069c-0.067-0.038-0.141-0.065-0.219-0.083l-0.046,0.065
						c-0.024-0.006-0.048-0.01-0.074-0.013L32.956,38c-0.083-0.009-0.171-0.008-0.264,0.002l-0.036,0.069
						c-0.028,0.004-0.056,0.008-0.085,0.014l0.008-0.064c-0.094,0.018-0.192,0.048-0.292,0.088l-0.022,0.069
						c-0.015,0.006-0.03,0.012-0.045,0.018s-0.03,0.013-0.045,0.02l-0.007-0.056c-0.102,0.047-0.203,0.103-0.301,0.167l-0.008,0.064
						c-0.031,0.02-0.06,0.04-0.09,0.061l-0.022-0.044c-0.1,0.071-0.198,0.151-0.292,0.236l0.007,0.056
						c-0.029,0.026-0.057,0.054-0.085,0.081l-0.035-0.03c-0.092,0.091-0.181,0.189-0.264,0.291l0.022,0.044
						c-0.025,0.031-0.05,0.063-0.075,0.095l-0.047-0.013c-0.079,0.106-0.152,0.215-0.22,0.328l0.035,0.029
						c-0.021,0.034-0.041,0.069-0.06,0.105l-0.055,0.004c-0.061,0.112-0.115,0.228-0.162,0.343l0.046,0.012
						c-0.014,0.036-0.027,0.072-0.04,0.108l-0.059,0.022c-0.039,0.112-0.071,0.225-0.094,0.337l0.055-0.004
						c-0.007,0.035-0.013,0.07-0.018,0.105l-0.06,0.037c-0.002,0.02-0.006,0.04-0.008,0.059c-0.01,0.088-0.014,0.171-0.013,0.252
						L30.382,40.88z"/>
					
						<ellipse transform="matrix(0.6028 -0.7979 0.7979 0.6028 -19.154 41.4349)" class="st71" cx="32.04" cy="39.956" rx="1.976" ry="1.141"/>
					<path class="st70" d="M32.177,38.811c0.589-0.252,1.006,0.055,0.931,0.688s-0.614,1.351-1.202,1.603
						c-0.589,0.252-1.006-0.055-0.931-0.688S31.587,39.063,32.177,38.811z"/>
				</g>
				<path class="st36" d="M32.159,38.951c-0.517,0.221-0.988,0.851-1.054,1.405c-0.066,0.555,0.3,0.824,0.816,0.603
					s0.988-0.851,1.054-1.405C33.041,39,32.676,38.729,32.159,38.951z"/>
				<path class="st36" d="M31.233,40.264c0.074-0.474,0.474-0.997,0.911-1.184c0.011-0.005,0.021-0.009,0.031-0.011
					c0.435-0.173,0.737,0.065,0.681,0.535c-0.057,0.484-0.468,1.032-0.919,1.226c-0.45,0.194-0.768-0.043-0.711-0.525
					C31.228,40.292,31.23,40.279,31.233,40.264z"/>
				<path class="st37" d="M32.01,39.267c-0.313,0.135-0.599,0.516-0.639,0.852c-0.04,0.336,0.181,0.5,0.494,0.365
					c0.313-0.135,0.599-0.516,0.639-0.852C32.544,39.296,32.323,39.132,32.01,39.267z"/>
			</g>
			<g>
				<g>
					<path class="st67" d="M28.733,40.223c-0.004-0.02-0.008-0.04-0.013-0.059l0.051,0.04L28.733,40.223z M28.747,40.622
						c0.003-0.034,0.005-0.067,0.006-0.099l0.06-0.044c0.002-0.091-0.004-0.174-0.016-0.255l0.304,0.241l-0.113-0.466l-0.8-0.597
						c-0.005,0.005-0.078-0.05-0.078-0.05c-0.067-0.038-0.483-0.321-0.562-0.339l-0.098-0.017c-0.083-0.009-0.171-0.008-0.264,0.002
						l-0.036,0.069c-0.006,0.001-0.076-0.051-0.076-0.051c-0.093,0.019-0.192,0.048-0.292,0.088l-0.022,0.069
						c-0.015,0.006-0.03,0.012-0.045,0.018c-0.003,0.001-0.052-0.036-0.052-0.036c-0.102,0.047-0.203,0.103-0.301,0.167
						l-0.008,0.064c-0.024,0.015-0.046,0.032-0.07,0.048l-0.042-0.031c-0.1,0.071-0.198,0.151-0.292,0.236l0.007,0.056
						c-0.028,0.026-0.056,0.053-0.083,0.079l-0.037-0.028c-0.092,0.091-0.181,0.189-0.264,0.291l0.022,0.044
						c-0.025,0.032-0.05,0.063-0.075,0.095l-0.047-0.013c-0.079,0.106-0.152,0.215-0.22,0.328l0.035,0.029
						c-0.021,0.034-0.041,0.069-0.06,0.105l-0.055,0.004c-0.061,0.112-0.115,0.227-0.162,0.343l0.04,0.029
						c-0.012,0.03-0.024,0.06-0.034,0.091l-0.059,0.022c-0.039,0.112-0.071,0.225-0.094,0.337l0.047,0.035
						c-0.004,0.021-0.008,0.043-0.012,0.064l-0.06,0.037c-0.002,0.02-0.006,0.04-0.008,0.059c-0.01,0.088-0.014,0.172-0.013,0.252
						l0.063,0.047c0.001,0.026-0.056,0.076-0.056,0.076c0.009,0.095,0.027,0.184,0.053,0.264l0.076,0.056l-0.037,0.044
						c0.034,0.075,0.075,0.142,0.124,0.201l0.077,0.058c-0.13,0.209,1.022,0.803,1.134,0.867c0,0.001,0.033-0.009,0.033-0.009
						l0.249,0.173l0.125-0.047l-0.225-0.31c0.065-0.007,0.132-0.02,0.201-0.037l0.029-0.069c0.033-0.009,0.066-0.019,0.098-0.03
						l0,0.06c0.048-0.016,0.097-0.035,0.146-0.056c0.05-0.022,0.099-0.046,0.148-0.07l0.015-0.066
						c0.034-0.018,0.068-0.036,0.102-0.056l0.015,0.05c0.1-0.059,0.198-0.127,0.294-0.2l0-0.06c0.034-0.026,0.067-0.052,0.098-0.08
						l0.029,0.037c0.096-0.082,0.187-0.17,0.275-0.263l-0.015-0.05c0.03-0.032,0.059-0.065,0.088-0.098l0.041,0.022
						c0.085-0.099,0.165-0.202,0.239-0.309l-0.029-0.037c0.025-0.036,0.049-0.072,0.072-0.109l0.051,0.004
						c0.069-0.109,0.132-0.222,0.188-0.336l-0.041-0.021c0.018-0.038,0.037-0.076,0.053-0.113l0.057-0.013
						c0.049-0.113,0.09-0.227,0.124-0.34l-0.051-0.004c0.011-0.036,0.02-0.073,0.03-0.109l0.06-0.029
						c0.021-0.089,0.038-0.178,0.048-0.266c0.002-0.019,0.005-0.038,0.006-0.058L28.747,40.622z"/>
					<polygon points="28.637,40.172 29.025,40.456 29.202,40.244 28.672,39.875 					"/>
					<polygon class="st93" points="28.755,40.513 29.144,40.799 29.32,40.585 28.793,40.193 					"/>
					<polygon class="st93" points="28.768,40.931 29.157,41.215 29.333,41.003 28.806,40.609 					"/>
					<polygon class="st93" points="28.675,41.399 29.064,41.683 29.24,41.47 28.713,41.077 					"/>
					<polygon class="st69" points="28.482,41.886 28.87,42.17 29.047,41.958 28.52,41.564 					"/>
					<path class="st70" d="M26.019,42.728c0.001,0.033,0.003,0.064,0.006,0.095l-0.057,0.051c0.009,0.095,0.027,0.184,0.053,0.264
						l0.06-0.037c0.01,0.027,0.019,0.053,0.03,0.078l-0.051,0.061c0.034,0.075,0.075,0.142,0.124,0.201l0.057-0.051
						c0.017,0.019,0.034,0.038,0.053,0.055l-0.042,0.067c0.056,0.051,0.118,0.093,0.188,0.126l0.051-0.061
						c0.023,0.011,0.048,0.021,0.073,0.029l-0.029,0.07c0.074,0.024,0.155,0.038,0.239,0.042l0.042-0.067
						c0.029,0.002,0.059,0.002,0.089,0.001l-0.015,0.067c0.088-0.004,0.179-0.019,0.275-0.044l0.029-0.069
						c0.033-0.009,0.066-0.019,0.098-0.03l0,0.06c0.048-0.016,0.097-0.035,0.146-0.056c0.05-0.022,0.099-0.046,0.148-0.07
						l0.015-0.066c0.034-0.018,0.068-0.036,0.102-0.056l0.015,0.05c0.1-0.059,0.198-0.127,0.294-0.2l0-0.06
						c0.034-0.026,0.067-0.052,0.098-0.08l0.029,0.037c0.096-0.082,0.187-0.17,0.275-0.263l-0.015-0.05
						c0.03-0.032,0.059-0.065,0.088-0.098l0.041,0.022c0.085-0.099,0.165-0.202,0.239-0.309l-0.029-0.037
						c0.025-0.036,0.049-0.072,0.072-0.109l0.051,0.004c0.069-0.109,0.132-0.222,0.188-0.336l-0.041-0.021
						c0.018-0.038,0.037-0.076,0.053-0.113l0.057-0.013c0.049-0.113,0.09-0.227,0.124-0.34l-0.051-0.004
						c0.011-0.036,0.02-0.073,0.03-0.109l0.06-0.029c0.021-0.089,0.038-0.178,0.048-0.266c0.002-0.019,0.005-0.038,0.006-0.058
						l-0.058,0.013c0.003-0.034,0.005-0.067,0.006-0.099l0.06-0.044c0.002-0.104-0.005-0.199-0.02-0.288l-0.06,0.029
						c-0.006-0.028-0.011-0.057-0.018-0.083l0.054-0.056c-0.022-0.086-0.055-0.163-0.094-0.233l-0.06,0.044
						c-0.012-0.022-0.026-0.043-0.04-0.062l0.046-0.065c-0.046-0.063-0.101-0.119-0.162-0.163l-0.055,0.057
						c-0.019-0.013-0.038-0.026-0.059-0.038l0.036-0.069c-0.067-0.038-0.141-0.065-0.219-0.083l-0.046,0.065
						c-0.024-0.006-0.048-0.01-0.074-0.013l0.022-0.069c-0.083-0.009-0.171-0.008-0.264,0.002l-0.036,0.069
						c-0.028,0.004-0.056,0.008-0.085,0.014l0.008-0.064c-0.094,0.018-0.192,0.048-0.292,0.088l-0.022,0.069
						c-0.015,0.006-0.03,0.012-0.045,0.018s-0.03,0.013-0.045,0.02l-0.007-0.056c-0.102,0.047-0.203,0.103-0.301,0.167l-0.008,0.064
						c-0.031,0.02-0.06,0.04-0.09,0.061l-0.024-0.043c-0.1,0.071-0.198,0.151-0.292,0.236l0.007,0.056
						c-0.029,0.026-0.057,0.054-0.085,0.081l-0.035-0.03c-0.092,0.091-0.181,0.189-0.264,0.291l0.022,0.044
						c-0.025,0.032-0.05,0.063-0.075,0.095l-0.047-0.013c-0.079,0.106-0.152,0.215-0.22,0.328l0.035,0.029
						c-0.021,0.034-0.041,0.069-0.06,0.105l-0.055,0.004c-0.061,0.112-0.115,0.228-0.162,0.343l0.046,0.012
						c-0.014,0.036-0.027,0.072-0.04,0.108L26.1,41.967c-0.039,0.112-0.071,0.225-0.094,0.337l0.055-0.004
						c-0.007,0.035-0.013,0.07-0.018,0.105l-0.06,0.037c-0.002,0.02-0.006,0.04-0.008,0.059c-0.01,0.088-0.014,0.172-0.013,0.252
						L26.019,42.728z"/>
					<path class="st71" d="M27.867,40.206c0.822-0.352,1.402,0.076,1.298,0.958c-0.105,0.882-0.855,1.883-1.677,2.236
						c-0.822,0.352-1.402-0.076-1.298-0.958C26.295,41.56,27.045,40.559,27.867,40.206z"/>
					<path class="st70" d="M27.813,40.658c0.589-0.252,1.006,0.055,0.931,0.688c-0.075,0.633-0.614,1.351-1.202,1.603
						c-0.589,0.252-1.006-0.055-0.931-0.688C26.686,41.629,27.224,40.911,27.813,40.658z"/>
				</g>
				<path class="st36" d="M27.795,40.799c-0.517,0.221-0.988,0.851-1.054,1.405c-0.066,0.555,0.3,0.824,0.816,0.603
					c0.517-0.221,0.988-0.851,1.054-1.405S28.312,40.578,27.795,40.799z"/>
				<path class="st36" d="M26.869,42.111c0.074-0.473,0.474-0.997,0.911-1.183c0.011-0.005,0.021-0.009,0.031-0.011
					c0.435-0.173,0.737,0.065,0.681,0.535c-0.057,0.484-0.468,1.032-0.919,1.226c-0.45,0.194-0.768-0.043-0.711-0.525
					C26.864,42.14,26.865,42.126,26.869,42.111z"/>
				<path class="st37" d="M27.646,41.115c-0.313,0.135-0.599,0.516-0.639,0.852c-0.04,0.336,0.181,0.5,0.494,0.365
					c0.313-0.135,0.599-0.516,0.639-0.852C28.181,41.144,27.96,40.981,27.646,41.115z"/>
			</g>
			<g>
				<g>
					<path class="st67" d="M24.369,42.07c-0.004-0.02-0.008-0.04-0.013-0.059l0.051,0.04L24.369,42.07z M24.384,42.47
						c0.003-0.033,0.005-0.067,0.006-0.099l0.06-0.044c0.002-0.091-0.004-0.174-0.016-0.255l0.304,0.241l-0.113-0.466l-0.8-0.597
						l-0.005,0.003l-0.074-0.055c-0.067-0.038-0.483-0.321-0.562-0.339l-0.098-0.017c-0.083-0.009-0.171-0.008-0.264,0.002
						l-0.036,0.069c-0.003,0.001-0.005,0-0.007,0.001l-0.07-0.052c-0.093,0.019-0.192,0.048-0.292,0.088l-0.022,0.069
						c-0.015,0.006-0.03,0.012-0.045,0.018c-0.001,0.001-0.002,0.001-0.003,0.002l-0.05-0.037c-0.102,0.047-0.203,0.103-0.301,0.167
						l-0.008,0.064c-0.024,0.015-0.046,0.032-0.07,0.048l-0.042-0.031c-0.1,0.071-0.198,0.151-0.292,0.236l0.007,0.056
						c-0.028,0.026-0.056,0.053-0.083,0.079l-0.037-0.028c-0.092,0.091-0.181,0.189-0.264,0.291l0.022,0.044
						c-0.025,0.032-0.05,0.063-0.075,0.095l-0.047-0.012c-0.079,0.106-0.152,0.215-0.22,0.328l0.035,0.029
						c-0.021,0.034-0.041,0.069-0.06,0.105l-0.055,0.004c-0.061,0.112-0.115,0.227-0.162,0.343l0.04,0.029
						c-0.012,0.03-0.024,0.06-0.034,0.091l-0.059,0.022c-0.039,0.112-0.071,0.225-0.094,0.337l0.047,0.035
						c-0.004,0.021-0.008,0.043-0.012,0.064l-0.06,0.037c-0.002,0.02-0.006,0.04-0.008,0.059c-0.01,0.088-0.014,0.171-0.013,0.252
						l0.063,0.047c0.001,0.009,0.001,0.018,0.002,0.026l-0.057,0.051c0.009,0.095,0.027,0.184,0.053,0.264l0.076,0.056l-0.037,0.044
						c0.034,0.075,0.075,0.142,0.124,0.201l0.077,0.058l-0.009,0.014c0.035,0.032,0.246,0.343,0.287,0.367l0.856,0.486l0.033-0.009
						l0.249,0.173l0.125-0.047l-0.225-0.31c0.065-0.007,0.132-0.02,0.201-0.037l0.029-0.069c0.033-0.009,0.066-0.019,0.098-0.03
						l0,0.06c0.048-0.016,0.097-0.035,0.146-0.056c0.05-0.022,0.099-0.046,0.148-0.07l0.015-0.066
						c0.034-0.018,0.068-0.036,0.102-0.056l0.015,0.05c0.1-0.059,0.198-0.127,0.294-0.2l0-0.06c0.034-0.026,0.067-0.052,0.098-0.08
						l0.029,0.037c0.096-0.082,0.187-0.17,0.275-0.263l-0.015-0.05c0.03-0.032,0.059-0.065,0.088-0.098l0.041,0.022
						c0.085-0.099,0.165-0.202,0.239-0.309l-0.029-0.037c0.025-0.036,0.049-0.072,0.072-0.109l0.051,0.004
						c0.069-0.109,0.132-0.222,0.188-0.336l-0.041-0.021c0.018-0.038,0.037-0.076,0.053-0.113l0.057-0.013
						c0.049-0.113,0.09-0.227,0.124-0.34l-0.051-0.004c0.011-0.036,0.02-0.073,0.03-0.109l0.06-0.029
						c0.021-0.089,0.038-0.178,0.048-0.266c0.002-0.019,0.005-0.038,0.006-0.058L24.384,42.47z"/>
					<polygon points="24.273,42.019 24.661,42.305 24.838,42.092 24.308,41.722 					"/>
					<polygon class="st69" points="24.391,42.361 24.779,42.646 24.957,42.433 24.429,42.04 					"/>
					<polygon class="st69" points="24.404,42.779 24.793,43.064 24.969,42.851 24.442,42.457 					"/>
					<polygon class="st69" points="24.312,43.246 24.7,43.531 24.876,43.318 24.35,42.924 					"/>
					<polygon class="st69" points="24.118,43.734 24.507,44.018 24.683,43.806 24.157,43.412 					"/>
					<path class="st70" d="M21.654,44.576c0.001,0.033,0.003,0.064,0.006,0.095l-0.057,0.051c0.009,0.095,0.027,0.184,0.053,0.264
						l0.06-0.037c0.01,0.027,0.019,0.053,0.03,0.078l-0.051,0.061c0.034,0.075,0.075,0.142,0.124,0.201l0.057-0.051
						c0.017,0.019,0.034,0.038,0.053,0.055l-0.042,0.067c0.056,0.051,0.118,0.093,0.188,0.126l0.051-0.061
						c0.023,0.011,0.048,0.021,0.073,0.029l-0.029,0.07c0.074,0.024,0.155,0.038,0.239,0.042l0.042-0.067
						c0.029,0.002,0.059,0.002,0.089,0.001l-0.015,0.067c0.088-0.004,0.179-0.019,0.275-0.044l0.029-0.069
						c0.033-0.009,0.066-0.019,0.098-0.03l0,0.06c0.048-0.016,0.097-0.035,0.146-0.056c0.05-0.022,0.099-0.046,0.148-0.07
						l0.015-0.066c0.034-0.018,0.068-0.036,0.102-0.056l0.015,0.05c0.1-0.059,0.198-0.127,0.294-0.2l0-0.06
						c0.034-0.026,0.067-0.052,0.098-0.08l0.029,0.037c0.096-0.082,0.187-0.17,0.275-0.263l-0.015-0.05
						c0.03-0.032,0.059-0.065,0.088-0.098l0.041,0.022c0.085-0.099,0.165-0.202,0.239-0.309l-0.029-0.037
						c0.025-0.036,0.049-0.072,0.072-0.109l0.051,0.004c0.069-0.109,0.132-0.222,0.188-0.336l-0.041-0.021
						c0.018-0.038,0.037-0.076,0.053-0.113l0.057-0.013c0.049-0.113,0.09-0.227,0.124-0.34l-0.051-0.004
						c0.011-0.036,0.02-0.073,0.03-0.109l0.06-0.029c0.021-0.089,0.038-0.178,0.048-0.266c0.002-0.019,0.005-0.038,0.006-0.058
						l-0.058,0.013c0.003-0.034,0.005-0.067,0.006-0.099l0.06-0.044c0.002-0.104-0.005-0.199-0.02-0.288l-0.06,0.029
						c-0.006-0.028-0.011-0.057-0.018-0.083l0.054-0.056c-0.022-0.086-0.055-0.163-0.094-0.233l-0.06,0.044
						c-0.012-0.022-0.026-0.043-0.04-0.062l0.046-0.065c-0.046-0.063-0.101-0.119-0.162-0.163l-0.055,0.057
						c-0.019-0.013-0.038-0.026-0.059-0.038l0.036-0.069c-0.067-0.038-0.141-0.065-0.219-0.083l-0.046,0.065
						c-0.024-0.006-0.048-0.01-0.074-0.013l0.022-0.069c-0.083-0.009-0.171-0.008-0.264,0.002l-0.036,0.069
						c-0.028,0.004-0.056,0.008-0.085,0.014l0.008-0.064c-0.093,0.019-0.192,0.048-0.292,0.088l-0.022,0.069
						c-0.015,0.006-0.03,0.012-0.045,0.018c-0.015,0.006-0.03,0.013-0.045,0.02l-0.007-0.056c-0.102,0.047-0.203,0.103-0.301,0.167
						l-0.008,0.064c-0.031,0.02-0.06,0.04-0.09,0.061l-0.022-0.044c-0.1,0.071-0.198,0.151-0.292,0.236l0.007,0.056
						c-0.029,0.026-0.057,0.054-0.085,0.081l-0.035-0.03c-0.092,0.091-0.181,0.189-0.264,0.291l0.022,0.044
						c-0.025,0.032-0.05,0.063-0.075,0.095l-0.047-0.013c-0.079,0.106-0.152,0.215-0.22,0.328l0.035,0.029
						c-0.021,0.034-0.041,0.069-0.06,0.105l-0.055,0.004c-0.061,0.112-0.115,0.228-0.162,0.343l0.046,0.012
						c-0.014,0.036-0.027,0.072-0.04,0.108l-0.059,0.022c-0.039,0.112-0.071,0.225-0.094,0.337l0.055-0.004
						c-0.007,0.035-0.013,0.07-0.018,0.105l-0.06,0.037c-0.002,0.02-0.006,0.04-0.008,0.059c-0.01,0.088-0.014,0.172-0.013,0.252
						L21.654,44.576z"/>
					<path class="st71" d="M23.502,42.054c0.822-0.352,1.402,0.076,1.298,0.958c-0.105,0.882-0.855,1.883-1.677,2.236
						c-0.822,0.352-1.402-0.076-1.298-0.958C21.93,43.407,22.681,42.407,23.502,42.054z"/>
					<path class="st70" d="M23.449,42.506c0.589-0.252,1.006,0.055,0.931,0.688c-0.075,0.633-0.614,1.351-1.202,1.603
						c-0.589,0.252-1.006-0.055-0.931-0.688C22.321,43.476,22.86,42.759,23.449,42.506z"/>
				</g>
				<path class="st36" d="M23.432,42.647c-0.517,0.221-0.988,0.851-1.054,1.405c-0.066,0.555,0.3,0.824,0.816,0.603
					c0.517-0.221,0.988-0.851,1.054-1.405C24.314,42.695,23.948,42.426,23.432,42.647z"/>
				<path class="st36" d="M22.505,43.96c0.074-0.474,0.474-0.997,0.911-1.184c0.011-0.005,0.021-0.009,0.031-0.011
					c0.435-0.173,0.737,0.065,0.681,0.535c-0.057,0.484-0.468,1.032-0.919,1.226c-0.45,0.194-0.768-0.043-0.711-0.525
					C22.5,43.987,22.502,43.974,22.505,43.96z"/>
				<path class="st37" d="M23.283,42.964c-0.313,0.135-0.599,0.516-0.639,0.852c-0.04,0.336,0.181,0.5,0.494,0.365
					c0.313-0.135,0.599-0.516,0.639-0.852C23.817,42.992,23.595,42.829,23.283,42.964z"/>
			</g>
		</g>
		<g>
			<polygon class="st94" points="15.89,37.696 15.971,37.341 15.466,37.562 15.428,38.625 17.388,40.269 19.273,41.421 
				20.846,42.114 20.917,41.323 19.299,40.822 17.431,39.69 15.912,38.286 			"/>
			<polygon class="st95" points="18.509,41.56 20.86,41.909 20.504,42.404 19.347,42.675 			"/>
			<polygon class="st96" points="15.466,37.562 15.37,38.371 15.367,39.291 16.916,40.657 18.754,41.828 20.419,42.308 
				20.515,41.499 18.85,41.019 17.025,39.857 15.463,38.482 			"/>
			<polygon class="st97" points="20.836,42.152 20.419,42.308 20.515,41.499 20.917,41.323 			"/>
		</g>
		<g>
			<polygon class="st96" points="20.506,41.195 32.245,36.496 32.895,36.681 32.928,36.915 32.456,36.916 22.641,40.832 
				20.917,41.323 			"/>
			<polygon class="st98" points="32.928,36.915 32.656,37.209 32.349,37.264 21.195,41.719 20.836,42.152 20.917,41.323 
				22.202,40.937 32.494,36.803 			"/>
		</g>
		<g>
			<polyline class="st72" points="32.326,36.775 32.011,36.987 28.529,38.418 28.27,38.173 30.568,34.12 31.345,34.541 
				32.143,35.387 32.233,35.569 			"/>
			<polygon class="st99" points="27.093,34.756 30.568,34.12 31.973,35.62 32.039,36.757 28.878,38.08 28.832,36.926 			"/>
			<polygon class="st37" points="28.832,36.926 28.878,38.08 28.27,38.173 28.232,36.968 27.093,34.756 			"/>
			<polygon class="st36" points="32.039,36.757 28.878,38.08 28.832,36.926 31.973,35.62 			"/>
		</g>
	</g>
	<polygon class="st73" points="19.426,40.624 20.132,40.805 20.747,39.695 19.732,39.394 	"/>
	<path class="st90" d="M20.21,39.661c0.137,0.016,0.241,0.154,0.23,0.308c-0.009,0.154-0.128,0.266-0.266,0.249
		c-0.137-0.016-0.241-0.154-0.23-0.308C19.954,39.756,20.073,39.644,20.21,39.661z"/>
	<path class="st100" d="M20.238,39.762c0.084,0.01,0.147,0.094,0.141,0.188c-0.006,0.093-0.078,0.162-0.162,0.152
		c-0.084-0.01-0.147-0.094-0.141-0.188C20.082,39.82,20.155,39.752,20.238,39.762z"/>
	<polygon class="st73" points="16.259,36.364 16.389,36.788 16.381,36.814 16.244,37.218 16.197,37.354 16.167,37.445 
		16.001,37.939 16.047,37.294 	"/>
	<polygon class="st101" points="16.079,37.272 16.142,37.305 16.308,36.595 16.265,36.448 	"/>
	<path class="st90" d="M16.318,36.681c0.026,0.022,0.048,0.071,0.061,0.134l-0.136,0.404c-0.042-0.064-0.064-0.205-0.052-0.34
		C16.209,36.722,16.264,36.633,16.318,36.681z"/>
	<path class="st100" d="M16.328,36.75c0.018,0.015,0.032,0.048,0.041,0.092l-0.093,0.278c-0.029-0.045-0.044-0.141-0.036-0.234
		C16.251,36.78,16.289,36.718,16.328,36.75z"/>
	<polygon class="st101" points="19.874,39.509 19.719,40.516 19.518,40.56 19.79,39.47 	"/>
	<polygon class="st102" points="15.605,39.404 16.49,40.729 19.347,42.675 18.509,41.56 	"/>
	<polygon class="st103" points="17.025,39.857 16.916,40.657 18.754,41.828 18.85,41.019 	"/>
	<polygon class="st104" points="17.025,39.857 16.916,40.657 15.367,39.291 15.463,38.482 	"/>
	<polygon class="st105" points="20.515,41.499 18.85,41.019 17.025,39.857 15.463,38.482 15.466,37.562 15.914,37.366 
		15.569,37.591 15.612,38.475 17.108,39.812 18.883,40.932 20.559,41.42 20.917,41.323 	"/>
	<g>
		<path class="st90" d="M18.487,41.001c0.096,0.029,0.172,0.153,0.168,0.275c-0.004,0.123-0.085,0.198-0.181,0.168
			c-0.096-0.029-0.172-0.153-0.168-0.275S18.39,40.972,18.487,41.001z"/>
		<path class="st100" d="M18.509,41.087c0.059,0.018,0.105,0.092,0.103,0.167c-0.003,0.075-0.052,0.12-0.111,0.102
			s-0.105-0.092-0.103-0.167S18.45,41.069,18.509,41.087z"/>
	</g>
	<g>
		<path class="st90" d="M15.653,38.859c0.078,0.032,0.138,0.154,0.133,0.271c-0.005,0.117-0.072,0.186-0.151,0.153
			c-0.078-0.032-0.138-0.154-0.133-0.271S15.575,38.826,15.653,38.859z"/>
		<path class="st100" d="M15.691,38.932c0.048,0.021,0.084,0.094,0.081,0.166c-0.003,0.071-0.044,0.112-0.092,0.093
			c-0.048-0.021-0.084-0.094-0.081-0.166C15.601,38.954,15.643,38.912,15.691,38.932z"/>
	</g>
	<polyline class="st72" points="26.328,36.411 25.011,36.916 24.216,36.473 23.905,35.78 26.179,34.822 26.534,35.426 	"/>
	<polyline class="st86" points="26.227,36.309 26.409,35.438 26.148,34.996 24.079,35.868 24.308,36.378 25.017,36.774 	"/>
	<polygon class="st106" points="20.92,39.561 19.626,39.183 17.717,38.089 16.49,36.759 16.261,36.08 17.324,35.379 16.398,36.073 
		16.594,36.704 17.822,38.014 19.693,39.08 20.828,39.424 22.112,38.75 	"/>
	<polygon class="st107" points="19.299,40.822 17.431,39.69 15.912,38.286 15.938,38.466 17.439,39.773 19.26,40.899 20.632,41.324 
		20.506,41.195 	"/>
</g>
</svg>
