<?xml version="1.0" encoding="utf-8"?>
<!-- Generator: Adobe Illustrator 25.4.1, SVG Export Plug-In . SVG Version: 6.00 Build 0)  -->
<svg version="1.1" id="Layer_1" xmlns="http://www.w3.org/2000/svg" xmlns:xlink="http://www.w3.org/1999/xlink" x="0px" y="0px"
	 viewBox="0 0 50 50" style="enable-background:new 0 0 50 50;" xml:space="preserve">
<style type="text/css">
	.st0{opacity:0.14;fill:#686868;}
	.st1{fill:#141414;}
	.st2{fill:#3C3C3C;}
	.st3{fill:#686868;}
	.st4{fill:#2D2D2D;}
	.st5{fill:#4E4E4E;}
	.st6{fill:#FFFFFF;}
	.st7{fill:#8C8C8C;}
	.st8{fill:#D7D7D7;}
	.st9{fill:#767676;}
</style>
<g>
	<path class="st0" d="M42.074,38.93l-20.549,9.278c-0.833,0.376-2.218,0.383-3.077,0.015l-11.41-4.885
		c-0.86-0.368-0.881-0.977-0.048-1.353l20.549-9.278c0.833-0.376,2.218-0.383,3.077-0.015l11.41,4.885
		C42.886,37.945,42.907,38.554,42.074,38.93z"/>
	<g>
		<polygon class="st1" points="25.759,30.326 25.581,10.137 28.693,8.748 28.871,28.936 		"/>
		<path class="st2" d="M40.421,13.915c-0.003-0.381-0.326-0.823-0.717-0.981l-10.3-4.066c-0.196-0.079-0.373-0.073-0.501,0.001
			c-0.128,0.074-0.206,0.215-0.205,0.405l0.191,21.643c0.003,0.381,0.326,0.823,0.717,0.981l10.301,4.104
			c0.391,0.158,0.709-0.025,0.705-0.406L40.421,13.915z"/>
		<path class="st3" d="M29.578,29.902c-0.385-0.156-0.703-0.59-0.706-0.965l-3.113,1.389c0.003,0.375,0.321,0.81,0.706,0.965
			l10.725,4.286l3.113-1.389L29.578,29.902z"/>
		<polygon points="40.467,19.071 40.458,18.076 37.345,19.465 37.354,20.46 		"/>
		<polygon points="40.595,33.617 40.586,32.622 37.474,34.012 37.482,35.006 		"/>
		<path class="st3" d="M28.534,7.877c0.119-0.028,0.261-0.015,0.413,0.047l11.013,4.347c0.418,0.169,0.764,0.641,0.767,1.049
			l-3.113,1.389c-0.004-0.408-0.349-0.88-0.767-1.049L25.835,9.313c-0.209-0.085-0.399-0.078-0.535,0.001L28.534,7.877z"/>
		<polygon class="st4" points="25.132,15.589 25.132,15.589 25.132,15.589 		"/>
		<g>
			<polygon class="st4" points="37.354,20.46 37.354,20.46 37.354,20.46 			"/>
			<polygon class="st4" points="40.467,19.071 37.354,20.46 37.667,20.579 40.779,19.19 			"/>
			<polygon class="st4" points="25.445,15.708 25.443,15.45 25.132,15.589 			"/>
		</g>
		<polygon class="st4" points="25.26,30.135 25.26,30.135 25.26,30.135 		"/>
		<g>
			<polygon class="st5" points="40.728,13.319 37.615,14.708 37.658,19.593 40.771,18.204 			"/>
			<polygon class="st5" points="37.71,25.439 37.71,25.463 37.786,34.14 40.899,32.75 40.822,24.074 40.822,24.05 40.779,19.19 
				37.667,20.579 			"/>
		</g>
		<g>
			<path d="M31.988,31.915c0.001,0.05,0.05,0.099,0.145,0.136c0.189,0.074,0.491,0.07,0.674-0.007
				c0.091-0.038,0.135-0.088,0.134-0.137l-0.045-5.075c0.001,0.049-0.043,0.099-0.134,0.137c-0.183,0.077-0.485,0.081-0.674,0.007
				c-0.095-0.037-0.144-0.086-0.145-0.136L31.988,31.915z"/>
		</g>
		<g>
			<path class="st6" d="M27.838,25.251c0.006-0.454,1.775-0.091,3.952,0.812s3.937,2.004,3.931,2.458l-0.004,0.301
				c-0.006,0.454-1.775,0.091-3.952-0.812s-3.937-2.004-3.931-2.458L27.838,25.251z"/>
			<path class="st3" d="M29.532,24.17c0.425-0.185,1.984,0.193,3.837,0.962c2.177,0.903,3.937,2.004,3.931,2.458l-1.579,0.932
				c0.006-0.454-1.754-1.555-3.931-2.458c-1.85-0.767-3.405-1.145-3.834-0.963L29.532,24.17z"/>
			<path class="st5" d="M37.228,28.015c0.044-0.031,0.068-0.072,0.068-0.124L37.3,27.59l-1.579,0.932l-0.004,0.301
				c-0.001,0.053-0.025,0.095-0.072,0.126L37.228,28.015z"/>
			<path class="st2" d="M28.063,25.366c0.005-0.379,1.652,0.003,3.678,0.852s3.666,1.845,3.661,2.224l-0.003,0.251
				c-0.005,0.379-1.652-0.003-3.678-0.852s-3.666-1.845-3.661-2.224L28.063,25.366z"/>
			<g>
				<path class="st1" d="M28.06,25.617c-0.005,0.379,1.634,1.374,3.661,2.224c2.018,0.846,3.659,1.228,3.678,0.857
					c-0.504,0.058-1.868-0.321-3.47-0.993c-2.027-0.85-3.666-1.845-3.661-2.224L28.06,25.617z"/>
			</g>
			<path d="M28.267,25.481l0.003-0.251c0-0.002,0.001-0.003,0.001-0.005c-0.133,0.015-0.207,0.061-0.208,0.14l-0.003,0.251
				L28.267,25.481z"/>
			<path class="st6" d="M32.045,27.006c-0.042-0.305-0.384-0.629-0.764-0.723c-0.38-0.094-0.653,0.078-0.611,0.383
				c0.042,0.305,0.384,0.629,0.764,0.723C31.814,27.483,32.087,27.311,32.045,27.006z"/>
			<g>
				<path class="st7" d="M32.225,26.971c-0.048-0.345-0.434-0.711-0.863-0.817c-0.415-0.102-0.716,0.076-0.692,0.4
					c0.031-0.234,0.281-0.354,0.612-0.272c0.38,0.094,0.722,0.417,0.764,0.723c0.037,0.267-0.168,0.432-0.474,0.406
					C31.981,27.498,32.271,27.307,32.225,26.971z"/>
			</g>
			<path class="st8" d="M31.558,26.924c-0.018-0.13-0.163-0.267-0.324-0.307c-0.161-0.04-0.277,0.033-0.259,0.163
				c0.018,0.13,0.163,0.267,0.324,0.307C31.46,27.126,31.576,27.053,31.558,26.924z"/>
			<g>
				<path class="st7" d="M31.635,26.909c-0.02-0.146-0.184-0.302-0.366-0.347c-0.176-0.043-0.304,0.032-0.294,0.17
					c0.013-0.099,0.119-0.15,0.26-0.116c0.161,0.04,0.306,0.177,0.324,0.307c0.016,0.113-0.071,0.183-0.201,0.172
					C31.531,27.133,31.654,27.051,31.635,26.909z"/>
			</g>
		</g>
		<g>
			<path d="M31.96,24.906c0.001,0.05,0.05,0.099,0.145,0.136c0.189,0.074,0.491,0.07,0.674-0.007
				c0.091-0.038,0.135-0.088,0.134-0.137l-0.106-12.072c0.001,0.049-0.043,0.099-0.134,0.137c-0.183,0.077-0.485,0.081-0.674,0.007
				c-0.095-0.037-0.144-0.086-0.145-0.136L31.96,24.906z"/>
		</g>
		<g>
			<polygon points="32.86,13.973 33.077,13.149 33.985,13.527 			"/>
			<path class="st7" d="M37.786,34.14l-0.076-8.676l0,0l-0.043-4.884l-0.313-0.12l-0.009-0.994l0.313,0.128l-0.043-4.885
				c-0.004-0.408-0.349-0.88-0.767-1.049L25.835,9.313c-0.209-0.085-0.399-0.078-0.535,0.001c-0.137,0.079-0.221,0.229-0.219,0.433
				l0.043,4.844l0.313,0.123l0.009,0.994l-0.313-0.131l0.043,4.884h0l0.076,8.676l0.313,0.123l0.009,0.994l-0.313-0.131l0.024,2.764
				c0.004,0.408,0.349,0.88,0.767,1.049l11.029,6.125c0.418,0.169,0.758-0.026,0.754-0.434l-0.04-4.501l-0.313-0.12l-0.009-0.994
				L37.786,34.14z M37.313,36.771c0.003,0.375-0.309,0.555-0.694,0.4l-10.137-4.039c-0.385-0.156-0.703-0.59-0.706-0.965
				l-0.188-21.3c-0.002-0.188,0.076-0.326,0.201-0.399c0.126-0.072,0.3-0.078,0.493-0.001l2.442,0.964l0.159,0.781
				c0.001,0.14,0.12,0.302,0.264,0.359l3.529,1.404c0.144,0.057,0.26-0.011,0.259-0.151l0.141-0.675l3.342,1.319
				c0.385,0.156,0.703,0.59,0.706,0.965L37.313,36.771z"/>
		</g>
		<g>
			<g>
				<g>
					<path class="st5" d="M40.908,33.737l-3.113,1.389l-3.113,1.347l0.04,4.543c0.002,0.228-0.104,0.39-0.27,0.458l6.165-2.758
						c0.201-0.052,0.333-0.224,0.331-0.478L40.908,33.737z"/>
					<g>
						<path class="st7" d="M34.488,36.556l0.039,4.47c0.004,0.398-0.283,0.406-0.692,0.241l-1.449-0.577l-0.155,0.068l1.736,0.692
							c0.184,0.074,0.353,0.078,0.484,0.024c0,0,0,0,0,0c0.002-0.001,0.005-0.002,0.007-0.003c0.007-0.003,0.014-0.006,0.021-0.009
							c0.004-0.002,0.007-0.004,0.011-0.006c0.006-0.003,0.012-0.006,0.017-0.01c0.004-0.002,0.007-0.004,0.011-0.007
							c0.005-0.003,0.01-0.007,0.016-0.01c0.004-0.003,0.007-0.005,0.011-0.008c0.005-0.004,0.01-0.007,0.014-0.011
							c0.003-0.003,0.007-0.006,0.01-0.008c0.005-0.004,0.009-0.008,0.014-0.013c0.003-0.003,0.006-0.006,0.009-0.009
							c0.005-0.005,0.009-0.01,0.013-0.014c0.003-0.003,0.005-0.006,0.008-0.009c0.005-0.006,0.009-0.012,0.014-0.018
							c0.002-0.002,0.004-0.005,0.005-0.007c0.006-0.009,0.012-0.018,0.018-0.027c0.001-0.002,0.002-0.004,0.003-0.006
							c0.004-0.007,0.009-0.015,0.013-0.023c0.002-0.003,0.003-0.007,0.005-0.011c0.003-0.006,0.006-0.013,0.009-0.02
							c0.002-0.004,0.003-0.008,0.005-0.013c0.002-0.006,0.005-0.013,0.007-0.019c0.002-0.004,0.003-0.009,0.004-0.014
							c0.002-0.007,0.004-0.013,0.006-0.02c0.001-0.005,0.003-0.01,0.004-0.014c0.002-0.007,0.003-0.014,0.005-0.021
							c0.001-0.005,0.002-0.01,0.003-0.015c0.001-0.007,0.002-0.015,0.003-0.023c0.001-0.005,0.001-0.01,0.002-0.015
							c0.001-0.008,0.002-0.017,0.002-0.026c0-0.004,0.001-0.008,0.001-0.013c0.001-0.013,0.001-0.026,0.001-0.04l-0.04-4.543
							L34.488,36.556z"/>
					</g>
					<path d="M34.527,41.027c0.004,0.398-0.283,0.406-0.692,0.241l-1.465-0.57l1.796-2.529c0.201-0.052,0.333-0.224,0.331-0.478
						L34.527,41.027z"/>
				</g>
				<g>
					<g>
						<path d="M21.766,46.548c0.004,0.398-0.283,0.406-0.692,0.241L9.96,42.285l1.354-0.545c0.201-0.052,10.44,3.463,10.438,3.208
							L21.766,46.548z"/>
						<path class="st7" d="M21.866,46.861c0.002-0.002,0.004-0.005,0.005-0.007c0.006-0.009,0.012-0.018,0.018-0.027
							c0.001-0.002,0.002-0.004,0.003-0.006c0.004-0.007,0.009-0.015,0.013-0.023c0.002-0.003,0.003-0.007,0.005-0.011
							c0.003-0.006,0.006-0.013,0.009-0.02c0.002-0.004,0.003-0.008,0.005-0.013c0.002-0.006,0.005-0.013,0.007-0.019
							c0.002-0.005,0.003-0.009,0.004-0.014c0.002-0.007,0.004-0.013,0.006-0.02c0.001-0.005,0.003-0.01,0.004-0.014
							c0.002-0.007,0.003-0.014,0.005-0.021c0.001-0.005,0.002-0.01,0.003-0.015c0.001-0.007,0.002-0.015,0.003-0.023
							c0.001-0.005,0.001-0.01,0.002-0.015c0.001-0.008,0.002-0.017,0.002-0.026c0-0.004,0.001-0.008,0.001-0.013
							c0.001-0.013,0.001-0.026,0.001-0.04l-0.04-4.543l-0.194,0.084l0.039,4.47c0.004,0.398-0.283,0.406-0.692,0.241L7.009,41.126
							l-0.13,0.077l14.328,5.768c0.184,0.074,0.353,0.078,0.484,0.024c0,0,0,0,0,0c0.002-0.001,0.005-0.002,0.007-0.003
							c0.007-0.003,0.014-0.006,0.021-0.009c0.004-0.002,0.007-0.004,0.011-0.006c0.006-0.003,0.012-0.006,0.017-0.01
							c0.004-0.002,0.007-0.004,0.011-0.007c0.005-0.003,0.01-0.007,0.016-0.01c0.004-0.003,0.007-0.005,0.011-0.008
							c0.005-0.004,0.01-0.007,0.014-0.011c0.003-0.003,0.007-0.006,0.01-0.008c0.005-0.004,0.009-0.008,0.014-0.013
							c0.003-0.003,0.006-0.006,0.009-0.009c0.005-0.005,0.009-0.01,0.013-0.014c0.003-0.003,0.005-0.006,0.008-0.009
							C21.857,46.873,21.861,46.867,21.866,46.861z"/>
						<polygon points="24.256,44.243 24.225,40.729 23.243,41.155 23.274,44.67 						"/>
						<path class="st9" d="M40.595,33.617l-3.107,1.387l-11.915-4.744l-0.002-0.263l-0.31,0.138l-13.26,5.732l0.322,0.124
							l-0.982,0.426l-0.314-0.127c0,0-4.234,1.907-4.227,2.021s0.118,0.226,0.33,0.31l10.949,4.395
							c0.425,0.169,1.102,0.164,1.504-0.011l3.978-1.724l-0.319-0.125l0.982-0.426l0.311,0.129l13.26-5.732l3.113-1.389
							L40.595,33.617z"/>
						<path class="st5" d="M23.562,41.281l-1.641,0.713l0.04,4.582c0.002,0.228-0.104,0.39-0.27,0.458l1.58-0.773
							c0.201-0.052,0.333-0.224,0.331-0.478L23.562,41.281z"/>
						<path class="st2" d="M24.291,44.23c0.167-0.068,0.272-0.23,0.27-0.458l-0.026-2.913l-0.311-0.129l0.026,2.913
							c0.002,0.228,0.013,0.603-0.154,0.671L24.291,44.23z"/>
						<path class="st5" d="M21.726,42.078l-2.142,0.927l0.029,3.286l1.808-0.864c0.201-0.052,0.333-0.224,0.331-0.478L21.726,42.078
							z"/>
						<path class="st5" d="M34.488,36.556l-9.952,4.302l0.026,2.913c0.002,0.228-0.104,0.39-0.27,0.458l9.891-4.324
							c0.201-0.052,0.334-0.13,0.332-0.385L34.488,36.556z"/>
						<path d="M10.218,37.812c-0.043-0.017-0.044-0.048-0.003-0.067l4.776-2.149c-0.076,0.198-0.111,0.4-0.106,0.6
							c0.005,0.178,0.042,0.355,0.111,0.53c-0.092,0.031-0.181,0.066-0.264,0.103l-3.546,1.372L10.218,37.812 M18.711,41.228
							l3.02-1.583c0.082-0.038,0.158-0.077,0.226-0.118c0.414,0.019,0.833,0.025,1.251,0.017c0.471-0.009,0.942-0.035,1.403-0.079
							l-4.776,2.149c-0.041,0.018-0.114,0.02-0.157,0.002L18.711,41.228 M21.364,32.727l2.684-1.208
							c0.041-0.018,0.114-0.02,0.157-0.002l0.967,0.389l-1.429,0.749C22.945,32.629,22.147,32.653,21.364,32.727 M30.984,36.597
							c0.13-0.337,0.142-0.677,0.036-1.015l1.678-0.649l0.967,0.389c0.043,0.017,0.044,0.048,0.003,0.067L30.984,36.597"/>
						<g>
							<g>
								<path class="st5" d="M14.991,35.596l-4.776,2.149c-0.041,0.018-0.04,0.05,0.003,0.067l0.618,0.249l4.051-1.823
									c-0.001-0.014-0.002-0.028-0.002-0.042C14.879,35.995,14.915,35.794,14.991,35.596z"/>
								<path class="st5" d="M24.205,31.517c-0.043-0.017-0.116-0.016-0.157,0.002l-2.684,1.208c0.496-0.047,0.998-0.074,1.501-0.08
									l1.188-0.535c0.041-0.018,0.114-0.02,0.157-0.002L24.205,31.517z"/>
								<path class="st5" d="M31.019,35.582c0.059,0.189,0.082,0.379,0.067,0.569l1.616-0.625l-0.005-0.593L31.019,35.582z"/>
								<path class="st5" d="M21.957,39.527c-0.069,0.041-0.144,0.08-0.226,0.118l-3.02,1.583l0.643,0.259l2.382-1.249
									c0.082-0.038,0.158-0.077,0.226-0.118"/>
							</g>
							<g>
								<path class="st2" d="M33.664,35.322l-0.967-0.389l0.005,0.593l0.349,0.14l0.616-0.277
									C33.708,35.371,33.707,35.34,33.664,35.322z"/>
								<polygon class="st2" points="24.21,32.11 24.534,32.24 25.172,31.906 24.205,31.517 								"/>
								<path class="st2" d="M21.957,39.527l0.005,0.593c0.382,0.018,0.769,0.024,1.154,0.018l1.495-0.673
									c-0.461,0.043-0.932,0.07-1.403,0.079C22.79,39.552,22.371,39.546,21.957,39.527z"/>
							</g>
						</g>
						<path class="st2" d="M12.317,39.446l0.029,3.286l4.217,1.835c0,0-1.083-2.165-1.087-2.598
							c0.076-0.584,1.058-0.689,1.058-0.689L12.317,39.446z"/>
						<g>
							<path class="st3" d="M10.274,39.879L7.131,38.62c-0.212-0.084-0.323-0.197-0.33-0.31l0.029,3.286
								c0.007,0.113,0.118,0.226,0.33,0.31l3.144,1.258L10.274,39.879z"/>
							<path class="st3" d="M18.08,43.015l-2.604-1.045l0.029,3.286l2.604,1.045c0.425,0.169,1.102,0.164,1.504-0.011l-0.029-3.286
								C19.182,43.179,18.505,43.184,18.08,43.015z"/>
						</g>
						<path class="st5" d="M15.586,35.714c-0.14,0.899,0.616,1.81,2.258,2.471c2.952,1.187,7.646,1.114,10.485-0.164
							c1.521-0.684,2.201-1.576,2.05-2.438C30.414,35.364,15.552,35.517,15.586,35.714z"/>
						<ellipse transform="matrix(1 -0.0089 0.0089 1 -0.3178 0.2069)" class="st1" cx="22.983" cy="35.639" rx="7.416" ry="3.158"/>
						<path class="st5" d="M16.01,35.159c-0.132,0.847,0.58,1.705,2.127,2.327c2.781,1.119,7.203,1.05,9.877-0.154
							c1.433-0.645,2.073-1.484,1.932-2.297C29.978,34.829,15.978,34.973,16.01,35.159z"/>
						<ellipse transform="matrix(1 -0.0089 0.0089 1 -0.3128 0.2069)" cx="22.978" cy="35.088" rx="6.986" ry="2.975"/>
					</g>
					<path class="st5" d="M10.303,43.165c0.476-0.292,1.585-0.489,2.043-0.433l-0.029-3.286c-0.458-0.057-1.566,0.14-2.043,0.433
						L10.303,43.165z"/>
				</g>
			</g>
			<ellipse transform="matrix(1 -0.0089 0.0089 1 -0.3128 0.2069)" class="st9" cx="22.978" cy="35.088" rx="0.527" ry="0.224"/>
		</g>
	</g>
</g>
</svg>
