<?xml version="1.0" encoding="utf-8"?>
<!-- Generator: Adobe Illustrator 26.0.1, SVG Export Plug-In . SVG Version: 6.00 Build 0)  -->
<svg version="1.1" id="Layer_1" xmlns="http://www.w3.org/2000/svg" xmlns:xlink="http://www.w3.org/1999/xlink" x="0px" y="0px"
	 viewBox="0 0 50 50" style="enable-background:new 0 0 50 50;" xml:space="preserve">
<style type="text/css">
	.st0{opacity:0.14;fill:#686868;enable-background:new    ;}
	.st1{fill:#141414;}
	.st2{fill:#3C3C3C;}
	.st3{fill:#686868;}
	.st4{fill:#2D2D2D;}
	.st5{fill:#4E4E4E;}
	.st6{fill:#FFFFFF;}
	.st7{fill:#8C8C8C;}
	.st8{fill:#D7D7D7;}
	.st9{fill:#767676;}
</style>
<g>
	<path class="st0" d="M7.038,37.577l11.41-4.885c0.859-0.368,2.244-0.361,3.077,0.015l20.549,9.278
		c0.833,0.376,0.812,0.985-0.048,1.353l-11.41,4.885c-0.859,0.368-2.244,0.361-3.077-0.015L6.99,38.93
		C6.157,38.554,6.178,37.945,7.038,37.577z"/>
	<g>
		<polygon class="st1" points="20.193,28.936 20.371,8.748 23.483,10.137 23.305,30.326 		"/>
		<path class="st2" d="M8.452,35.596c-0.004,0.381,0.314,0.564,0.705,0.406l10.301-4.104c0.391-0.158,0.714-0.6,0.717-0.981
			l0.191-21.643c0.001-0.19-0.077-0.331-0.205-0.405s-0.305-0.08-0.501-0.001l-10.3,4.066c-0.391,0.158-0.714,0.6-0.717,0.981
			L8.452,35.596z"/>
		<path class="st3" d="M8.761,34.188l3.113,1.389l10.725-4.286c0.385-0.155,0.703-0.59,0.706-0.965l-3.113-1.389
			c-0.003,0.375-0.321,0.809-0.706,0.965L8.761,34.188z"/>
		<polygon points="11.71,20.46 11.719,19.465 8.606,18.076 8.597,19.071 		"/>
		<polygon points="11.582,35.006 11.59,34.012 8.478,32.622 8.469,33.617 		"/>
		<path class="st3" d="M23.764,9.314c-0.136-0.079-0.326-0.086-0.535-0.001L12.217,13.66c-0.418,0.169-0.763,0.641-0.767,1.049
			L8.337,13.32c0.003-0.408,0.349-0.88,0.767-1.049l11.013-4.347c0.152-0.062,0.294-0.075,0.413-0.047L23.764,9.314z"/>
		<path class="st4" d="M23.932,15.589L23.932,15.589L23.932,15.589z"/>
		<g>
			<path class="st4" d="M11.71,20.46L11.71,20.46L11.71,20.46z"/>
			<polygon class="st4" points="8.285,19.19 11.397,20.579 11.71,20.46 8.597,19.071 			"/>
			<polygon class="st4" points="23.932,15.589 23.621,15.45 23.619,15.708 			"/>
		</g>
		<path class="st4" d="M23.804,30.135L23.804,30.135L23.804,30.135z"/>
		<g>
			<polygon class="st5" points="8.293,18.204 11.406,19.593 11.449,14.708 8.336,13.319 			"/>
			<polygon class="st5" points="11.397,20.579 8.285,19.19 8.242,24.05 8.242,24.074 8.165,32.75 11.278,34.14 11.354,25.463 
				11.354,25.439 			"/>
		</g>
		<g>
			<path d="M17.121,26.84c-0.001,0.05-0.05,0.099-0.145,0.136c-0.189,0.074-0.491,0.07-0.674-0.007
				c-0.091-0.038-0.135-0.088-0.134-0.137l-0.045,5.075c-0.001,0.049,0.043,0.099,0.134,0.137c0.183,0.077,0.485,0.081,0.674,0.007
				c0.095-0.037,0.144-0.086,0.145-0.136L17.121,26.84z"/>
		</g>
		<g>
			<path class="st6" d="M21.23,25.552c0.006,0.454-1.754,1.555-3.931,2.458s-3.946,1.266-3.952,0.812l-0.004-0.301
				c-0.006-0.454,1.754-1.555,3.931-2.458s3.946-1.266,3.952-0.812L21.23,25.552z"/>
			<path class="st3" d="M21.108,25.101c-0.429-0.182-1.984,0.196-3.834,0.963c-2.177,0.903-3.937,2.004-3.931,2.458l-1.579-0.932
				c-0.006-0.454,1.754-1.555,3.931-2.458c1.853-0.769,3.412-1.147,3.837-0.962L21.108,25.101z"/>
			<path class="st5" d="M13.419,28.949c-0.047-0.031-0.071-0.073-0.072-0.126l-0.004-0.301l-1.579-0.932l0.004,0.301
				c0,0.052,0.024,0.093,0.068,0.124L13.419,28.949z"/>
			<path class="st2" d="M21.004,25.617c0.005,0.379-1.635,1.375-3.661,2.224s-3.673,1.231-3.678,0.852l-0.003-0.251
				c-0.005-0.379,1.635-1.375,3.661-2.224s3.673-1.231,3.678-0.852L21.004,25.617z"/>
			<g>
				<path class="st1" d="M20.796,25.481c0.005,0.379-1.634,1.374-3.661,2.224c-1.602,0.672-2.966,1.051-3.47,0.993
					c0.019,0.371,1.66-0.011,3.678-0.857c2.027-0.85,3.666-1.845,3.661-2.224L20.796,25.481z"/>
			</g>
			<path d="M21.004,25.616l-0.003-0.251c-0.001-0.079-0.075-0.125-0.208-0.14c0,0.002,0.001,0.003,0.001,0.005l0.003,0.251
				L21.004,25.616z"/>
			<path class="st6" d="M17.63,27.389c0.38-0.094,0.722-0.418,0.764-0.723s-0.231-0.477-0.611-0.383s-0.722,0.418-0.764,0.723
				C16.977,27.311,17.25,27.483,17.63,27.389z"/>
			<g>
				<path class="st7" d="M17.492,27.411c-0.306,0.026-0.511-0.139-0.474-0.406c0.042-0.306,0.384-0.629,0.764-0.723
					c0.331-0.082,0.581,0.038,0.612,0.272c0.024-0.324-0.277-0.502-0.692-0.4c-0.429,0.106-0.815,0.472-0.863,0.817
					C16.793,27.307,17.083,27.498,17.492,27.411z"/>
			</g>
			<path class="st8" d="M17.765,27.087c0.161-0.04,0.306-0.177,0.324-0.307s-0.098-0.203-0.259-0.163
				c-0.161,0.04-0.306,0.177-0.324,0.307C17.488,27.053,17.604,27.126,17.765,27.087z"/>
			<g>
				<path class="st7" d="M17.706,27.095c-0.13,0.011-0.217-0.059-0.201-0.172c0.018-0.13,0.163-0.267,0.324-0.307
					c0.141-0.034,0.247,0.017,0.26,0.116c0.01-0.138-0.118-0.213-0.294-0.17c-0.182,0.045-0.346,0.201-0.366,0.347
					C17.41,27.051,17.533,27.133,17.706,27.095z"/>
			</g>
		</g>
		<g>
			<path d="M17.21,12.834c-0.001,0.05-0.05,0.099-0.145,0.136c-0.189,0.074-0.491,0.07-0.674-0.007
				c-0.091-0.038-0.135-0.088-0.134-0.137l-0.106,12.072c-0.001,0.049,0.043,0.099,0.134,0.137c0.183,0.077,0.485,0.081,0.674,0.007
				c0.095-0.037,0.144-0.086,0.145-0.136L17.21,12.834z"/>
		</g>
		<g>
			<polygon points="15.079,13.527 15.987,13.149 16.204,13.973 			"/>
			<path class="st7" d="M11.591,34.012l-0.009,0.994l-0.313,0.12l-0.04,4.501c-0.004,0.408,0.336,0.603,0.754,0.434l11.029-6.125
				c0.418-0.169,0.763-0.641,0.767-1.049l0.024-2.764l-0.313,0.131l0.009-0.994l0.313-0.123l0.076-8.676l0,0l0.043-4.884
				l-0.313,0.131l0.009-0.994l0.313-0.123l0.043-4.844c0.002-0.204-0.082-0.354-0.219-0.433c-0.136-0.079-0.326-0.086-0.535-0.001
				L12.216,13.66c-0.418,0.169-0.763,0.641-0.767,1.049l-0.043,4.885l0.313-0.128L11.71,20.46l-0.313,0.12l-0.043,4.884l0,0
				l-0.076,8.676L11.591,34.012z M11.94,15.433c0.003-0.375,0.321-0.809,0.706-0.965l3.342-1.319l0.141,0.675
				c-0.001,0.14,0.115,0.208,0.259,0.151l3.529-1.404c0.144-0.057,0.263-0.219,0.264-0.359l0.159-0.781l2.442-0.964
				c0.193-0.077,0.367-0.071,0.493,0.001c0.125,0.073,0.203,0.211,0.201,0.399l-0.188,21.3c-0.003,0.375-0.321,0.809-0.706,0.965
				l-10.137,4.039c-0.385,0.155-0.697-0.025-0.694-0.4L11.94,15.433z"/>
		</g>
		<g>
			<g>
				<g>
					<path class="st5" d="M8.116,38.238c-0.002,0.254,0.13,0.426,0.331,0.478l6.165,2.758c-0.166-0.068-0.272-0.23-0.27-0.458
						l0.04-4.543l-3.113-1.347l-3.113-1.389L8.116,38.238z"/>
					<g>
						<path class="st7" d="M14.381,36.469l-0.04,4.543c0,0.014,0,0.027,0.001,0.04c0,0.005,0.001,0.009,0.001,0.013
							c0,0.009,0.001,0.018,0.002,0.026c0.001,0.005,0.001,0.01,0.002,0.015c0.001,0.008,0.002,0.016,0.003,0.023
							c0.001,0.005,0.002,0.01,0.003,0.015c0.002,0.007,0.003,0.014,0.005,0.021c0.001,0.004,0.003,0.009,0.004,0.014
							c0.002,0.007,0.004,0.013,0.006,0.02c0.001,0.005,0.002,0.01,0.004,0.014c0.002,0.006,0.005,0.013,0.007,0.019
							c0.002,0.005,0.003,0.009,0.005,0.013c0.003,0.007,0.006,0.014,0.009,0.02c0.002,0.004,0.003,0.008,0.005,0.011
							c0.004,0.008,0.009,0.016,0.013,0.023c0.001,0.002,0.002,0.004,0.003,0.006c0.006,0.009,0.012,0.018,0.018,0.027
							c0.001,0.002,0.003,0.005,0.005,0.007c0.005,0.006,0.009,0.012,0.014,0.018c0.003,0.003,0.005,0.006,0.008,0.009
							c0.004,0.004,0.008,0.009,0.013,0.014c0.003,0.003,0.006,0.006,0.009,0.009c0.005,0.005,0.009,0.009,0.014,0.013
							c0.003,0.002,0.007,0.005,0.01,0.008c0.004,0.004,0.009,0.007,0.014,0.011c0.004,0.003,0.007,0.005,0.011,0.008
							c0.006,0.003,0.011,0.007,0.016,0.01c0.004,0.003,0.007,0.005,0.011,0.007c0.005,0.004,0.011,0.007,0.017,0.01
							c0.004,0.002,0.007,0.004,0.011,0.006c0.007,0.003,0.014,0.006,0.021,0.009c0.002,0.001,0.005,0.002,0.007,0.003l0,0
							c0.131,0.054,0.3,0.05,0.484-0.024l1.736-0.692l-0.155-0.068l-1.449,0.577c-0.409,0.165-0.696,0.157-0.692-0.241l0.039-4.47
							L14.381,36.469z"/>
					</g>
					<path d="M14.567,37.691c-0.002,0.254,0.13,0.426,0.331,0.478l1.796,2.529l-1.465,0.57c-0.409,0.165-0.696,0.157-0.692-0.241
						L14.567,37.691z"/>
				</g>
				<g>
					<g>
						<path d="M27.312,44.948c-0.002,0.255,10.237-3.26,10.438-3.208l1.354,0.545L27.99,46.789
							c-0.409,0.165-0.696,0.157-0.692-0.241L27.312,44.948z"/>
						<path class="st7" d="M27.211,46.878c0.003,0.003,0.005,0.006,0.008,0.009c0.004,0.004,0.008,0.009,0.013,0.014
							c0.003,0.003,0.006,0.006,0.009,0.009c0.005,0.005,0.009,0.009,0.014,0.013c0.003,0.002,0.007,0.005,0.01,0.008
							c0.004,0.004,0.009,0.007,0.014,0.011c0.004,0.003,0.007,0.005,0.011,0.008c0.006,0.003,0.011,0.007,0.016,0.01
							c0.004,0.003,0.007,0.005,0.011,0.007c0.005,0.004,0.011,0.007,0.017,0.01c0.004,0.002,0.007,0.004,0.011,0.006
							c0.007,0.003,0.014,0.006,0.021,0.009c0.002,0.001,0.005,0.002,0.007,0.003l0,0c0.131,0.054,0.3,0.05,0.484-0.024
							l14.328-5.768l-0.13-0.077l-14.066,5.66c-0.409,0.165-0.696,0.157-0.692-0.241l0.039-4.47l-0.194-0.084l-0.04,4.543
							c0,0.014,0,0.027,0.001,0.04c0,0.005,0.001,0.009,0.001,0.013c0,0.009,0.001,0.018,0.002,0.026
							c0.001,0.005,0.001,0.01,0.002,0.015c0.001,0.008,0.002,0.016,0.003,0.023c0.001,0.005,0.002,0.01,0.003,0.015
							c0.002,0.007,0.003,0.014,0.005,0.021c0.001,0.004,0.003,0.009,0.004,0.014c0.002,0.007,0.004,0.013,0.006,0.02
							c0.001,0.005,0.002,0.009,0.004,0.014c0.002,0.006,0.005,0.013,0.007,0.019c0.002,0.005,0.003,0.009,0.005,0.013
							c0.003,0.007,0.006,0.014,0.009,0.02c0.002,0.004,0.003,0.008,0.005,0.011c0.004,0.008,0.009,0.016,0.013,0.023
							c0.001,0.002,0.002,0.004,0.003,0.006c0.006,0.009,0.012,0.018,0.018,0.027c0.001,0.002,0.003,0.005,0.005,0.007
							C27.203,46.867,27.207,46.873,27.211,46.878z"/>
						<polygon points="25.79,44.67 25.821,41.155 24.839,40.729 24.808,44.243 						"/>
						<path class="st9" d="M8.156,33.738l3.113,1.389l13.26,5.732l0.311-0.129l0.982,0.426l-0.319,0.125l3.978,1.724
							c0.402,0.175,1.079,0.18,1.504,0.011l10.949-4.395c0.212-0.084,0.323-0.196,0.33-0.31s-4.227-2.021-4.227-2.021l-0.314,0.127
							l-0.982-0.426l0.322-0.124l-13.26-5.732l-0.31-0.138l-0.002,0.263l-11.915,4.744l-3.107-1.387L8.156,33.738z"/>
						<path class="st5" d="M25.462,45.783c-0.002,0.254,0.13,0.426,0.331,0.478l1.58,0.773c-0.166-0.068-0.272-0.23-0.27-0.458
							l0.04-4.582l-1.641-0.713L25.462,45.783z"/>
						<path class="st2" d="M24.968,44.314c-0.167-0.068-0.156-0.443-0.154-0.671l0.026-2.913l-0.311,0.129l-0.026,2.913
							c-0.002,0.228,0.103,0.39,0.27,0.458L24.968,44.314z"/>
						<path class="st5" d="M27.312,44.949c-0.002,0.254,0.13,0.426,0.331,0.478l1.808,0.864l0.029-3.286l-2.142-0.927L27.312,44.949
							z"/>
						<path class="st5" d="M14.549,39.52c-0.002,0.255,0.131,0.333,0.332,0.385l9.891,4.324c-0.166-0.068-0.272-0.23-0.27-0.458
							l0.026-2.913l-9.952-4.302L14.549,39.52z"/>
						<path d="M38.846,37.812l-0.968,0.389l-3.546-1.372c-0.083-0.037-0.172-0.072-0.264-0.103c0.069-0.175,0.106-0.352,0.111-0.53
							c0.005-0.2-0.03-0.402-0.106-0.6l4.776,2.149C38.89,37.764,38.889,37.795,38.846,37.812 M30.353,41.228l-0.967,0.388
							c-0.043,0.018-0.116,0.016-0.157-0.002l-4.776-2.149c0.461,0.044,0.932,0.07,1.403,0.079c0.418,0.008,0.837,0.002,1.251-0.017
							c0.068,0.041,0.144,0.08,0.226,0.118L30.353,41.228 M27.7,32.727c-0.783-0.074-1.581-0.098-2.379-0.072l-1.429-0.749
							l0.967-0.389c0.043-0.018,0.116-0.016,0.157,0.002L27.7,32.727 M18.08,36.597l-2.684-1.208
							c-0.041-0.019-0.04-0.05,0.003-0.067l0.967-0.389l1.678,0.649C17.938,35.92,17.95,36.26,18.08,36.597"/>
						<g>
							<g>
								<path class="st5" d="M34.179,36.196c0,0.014-0.001,0.028-0.002,0.042l4.051,1.823l0.618-0.249
									c0.043-0.017,0.044-0.049,0.003-0.067l-4.776-2.149C34.149,35.794,34.185,35.995,34.179,36.196z"/>
								<path class="st5" d="M24.854,32.11c0.043-0.018,0.116-0.016,0.157,0.002l1.188,0.535c0.503,0.006,1.005,0.033,1.501,0.08
									l-2.684-1.208c-0.041-0.018-0.114-0.019-0.157-0.002L24.854,32.11z"/>
								<path class="st5" d="M16.367,34.933l-0.005,0.593l1.616,0.625c-0.015-0.19,0.008-0.38,0.067-0.569L16.367,34.933z"/>
								<path class="st5" d="M27.102,40.12c0.068,0.041,0.144,0.08,0.226,0.118l2.382,1.249l0.643-0.259l-3.02-1.583
									c-0.082-0.038-0.157-0.077-0.226-0.118"/>
							</g>
							<g>
								<path class="st2" d="M15.397,35.389l0.616,0.277l0.349-0.14l0.005-0.593L15.4,35.322
									C15.357,35.34,15.356,35.371,15.397,35.389z"/>
								<polygon class="st2" points="24.859,31.517 23.892,31.906 24.53,32.24 24.854,32.11 								"/>
								<path class="st2" d="M25.856,39.544c-0.471-0.009-0.942-0.036-1.403-0.079l1.495,0.673c0.385,0.006,0.772,0,1.154-0.018
									l0.005-0.593C26.693,39.546,26.274,39.552,25.856,39.544z"/>
							</g>
						</g>
						<path class="st2" d="M32.53,41.28c0,0,0.982,0.105,1.058,0.689c-0.004,0.433-1.087,2.598-1.087,2.598l4.217-1.835l0.029-3.286
							L32.53,41.28z"/>
						<g>
							<path class="st3" d="M38.76,43.164l3.144-1.258c0.212-0.084,0.323-0.197,0.33-0.31l0.029-3.286
								c-0.007,0.113-0.118,0.226-0.33,0.31l-3.143,1.259L38.76,43.164z"/>
							<path class="st3" d="M29.48,43.004l-0.029,3.286c0.402,0.175,1.079,0.18,1.504,0.011l2.604-1.045l0.029-3.286l-2.604,1.045
								C30.559,43.184,29.882,43.179,29.48,43.004z"/>
						</g>
						<path class="st5" d="M18.685,35.583c-0.151,0.862,0.529,1.754,2.05,2.438c2.839,1.278,7.533,1.351,10.485,0.164
							c1.642-0.661,2.398-1.572,2.258-2.471C33.512,35.517,18.65,35.364,18.685,35.583z"/>
						
							<ellipse transform="matrix(0.0089 -1 1 0.0089 -9.7904 61.4047)" class="st1" cx="26.082" cy="35.641" rx="3.158" ry="7.416"/>
						<path class="st5" d="M19.118,35.035c-0.141,0.813,0.499,1.652,1.932,2.297c2.674,1.204,7.096,1.273,9.877,0.154
							c1.547-0.622,2.259-1.48,2.127-2.327C33.086,34.973,19.086,34.829,19.118,35.035z"/>
						<ellipse transform="matrix(0.0089 -1 1 0.0089 -9.2346 60.8636)" cx="26.087" cy="35.09" rx="2.975" ry="6.986"/>
					</g>
					<path class="st5" d="M38.79,39.879c-0.477-0.293-1.585-0.49-2.043-0.433l-0.029,3.286c0.458-0.056,1.567,0.141,2.043,0.433
						L38.79,39.879z"/>
				</g>
			</g>
			<ellipse transform="matrix(0.0089 -1 1 0.0089 -9.2346 60.8636)" class="st9" cx="26.087" cy="35.09" rx="0.224" ry="0.527"/>
		</g>
	</g>
</g>
</svg>
