<?xml version="1.0" encoding="utf-8"?>
<!-- Generator: Adobe Illustrator 26.0.1, SVG Export Plug-In . SVG Version: 6.00 Build 0)  -->
<svg version="1.1" id="Layer_1" xmlns="http://www.w3.org/2000/svg" xmlns:xlink="http://www.w3.org/1999/xlink" x="0px" y="0px"
	 viewBox="0 0 50 50" style="enable-background:new 0 0 50 50;" xml:space="preserve">
<style type="text/css">
	.st0{opacity:0.42;fill:#C0C1C1;enable-background:new    ;}
	.st1{fill:none;stroke:#000000;stroke-width:0.75;stroke-linecap:round;stroke-linejoin:round;stroke-miterlimit:10;}
	.st2{fill:#3F444B;}
	.st3{fill:#989A9E;}
	.st4{fill:#FFFFFF;}
	.st5{fill:#1D1E22;}
	.st6{fill:#B3B3B3;}
	.st7{fill:#F69D00;}
	.st8{fill:#FFC200;}
	.st9{fill:#FF9E00;}
	.st10{fill:none;}
	.st11{fill:#6D6D6D;}
	.st12{fill:#8C8C8C;}
	.st13{fill:#DCDCDC;}
	.st14{fill:#6A7177;}
</style>
<g>
	<path id="XMLID_00000090984603468833637820000013718205373171768981_" class="st0" d="M10.158,36.9
		c-0.355,0.206-0.539,0.48-0.539,0.753c0,0.273,0.177,0.546,0.531,0.753l-0.007,0.007l0.007-0.007l16.218,9.427
		c0.354,0.207,0.82,0.31,1.292,0.31s0.937-0.103,1.299-0.31l10.881-6.282c0.354-0.214,0.539-0.48,0.539-0.753
		s-0.177-0.546-0.531-0.753L23.63,30.618c-0.354-0.207-0.82-0.31-1.292-0.31s-0.937,0.103-1.299,0.31L10.158,36.9"/>
	<g>
		<polyline id="XMLID_950_" points="39.584,40.013 38.836,39.083 36.788,39.776 38.993,41.06 39.033,41.084 		"/>
		<polyline id="XMLID_00000148635185084784139230000014950962368311963063_" class="st1" points="39.584,40.013 38.836,39.083 
			36.023,40.351 		"/>
		<path id="XMLID_948_" class="st2" d="M36.213,34.681L24.857,41.28L8.602,31.909v3.977c0,0.291,0.189,0.582,0.567,0.803
			l17.302,10.057c0.378,0.221,0.874,0.331,1.378,0.331s1-0.11,1.386-0.331l2.552-1.473v-0.457c0-0.409,0.292-0.913,0.646-1.118
			l5.946-3.434c0.363-0.205,0.654-0.04,0.654,0.37v0.457l1.811-1.047c0.378-0.22,0.575-0.512,0.575-0.803v-4.04L36.213,34.681z"/>
		<path class="st3" d="M9.178,31.114c-0.378,0.22-0.575,0.504-0.575,0.795c0,0.291,0.189,0.582,0.567,0.803l17.302,10.057
			C26.85,42.99,27.346,43.1,27.85,43.1s1-0.11,1.386-0.331l11.608-6.702c0.378-0.22,0.575-0.512,0.575-0.803
			s-0.189-0.582-0.567-0.803L23.55,24.412c-0.378-0.221-0.874-0.331-1.378-0.331s-1,0.11-1.386,0.331L9.178,31.114 M12.461,33.657
			l12.711-7.34l12.388,7.198l-12.711,7.34L12.461,33.657z"/>
		<path class="st1" d="M12.461,33.657l12.711-7.34l12.388,7.198l-12.711,7.34L12.461,33.657z"/>
		<path class="st4" d="M32.473,38.595c-0.489-0.283-0.489-0.74,0.008-1.024c0.488-0.284,1.276-0.284,1.764,0
			c0.48,0.284,0.48,0.74-0.008,1.024C33.749,38.879,32.961,38.879,32.473,38.595 M16.116,29.271c-0.48-0.284-0.48-0.74,0.008-1.024
			s1.276-0.284,1.764,0c0.48,0.284,0.48,0.74-0.008,1.024C17.392,29.555,16.596,29.555,16.116,29.271"/>
		<path class="st1" d="M32.481,37.571c0.488-0.284,1.276-0.284,1.764,0c0.48,0.284,0.48,0.74-0.008,1.024
			c-0.488,0.284-1.276,0.284-1.764,0C31.984,38.312,31.984,37.855,32.481,37.571z M16.124,28.247c0.488-0.284,1.276-0.284,1.764,0
			c0.48,0.284,0.48,0.74-0.008,1.024c-0.488,0.284-1.284,0.284-1.764,0S15.636,28.531,16.124,28.247z"/>
		<path id="XMLID_938_" class="st5" d="M40.852,34.13L23.55,24.073c-0.378-0.221-0.882-0.331-1.378-0.331
			c-0.504,0-1,0.11-1.386,0.331l-3.134,1.811h-0.008h-0.008l-1.583-0.921c-0.339-0.196-0.78-0.291-1.221-0.291
			s-0.882,0.094-1.221,0.291l-3.378,1.67v0.677c0,0.26,0.165,0.512,0.504,0.709l1.583,0.921l0.008,0.008l-0.008,0.008l-3.134,1.811
			c-0.378,0.22-0.575,0.512-0.575,0.803s0.189,0.582,0.567,0.803L26.48,42.43c0.378,0.221,0.882,0.331,1.378,0.331
			c0.504,0,1-0.11,1.386-0.331l3.134-1.811h0.008h0.008"/>
		<polygon id="XMLID_48_" class="st6" points="24.338,26.144 37.009,33.193 24.826,40.217 12.422,32.996 		"/>
		<path id="XMLID_98_" class="st7" d="M32.385,40.62l1.583,0.921c0.339,0.196,0.78,0.291,1.221,0.291
			c0.441,0,0.882-0.094,1.221-0.291l2.867-1.654c0.339-0.197,0.512-0.449,0.512-0.709v-0.662l-7.379,1.473"/>
		<path id="XMLID_96_" class="st5" d="M32.402,39.972v0.654l0.008-0.63l5.3-2.441l-0.008-0.008l0.008-0.008l3.134-1.811
			c0.378-0.22,0.575-0.512,0.575-0.803v-0.362"/>
		<path id="XMLID_94_" class="st7" d="M10.422,26.452c-0.252-0.465-0.205,0.637-0.219,0.905c0,0.307,0.22,0.559,0.543,0.732
			l1.244,0.717l5.355-3.095l-1.583-0.921c-0.339-0.197-0.78-0.299-1.229-0.299c-0.441,0-0.89,0.094-1.229,0.291L10.422,26.452"/>
		<path id="XMLID_92_" class="st4" d="M33.363,40.076l1.418,0.819c0.118,0.07,0.275,0.102,0.425,0.102
			c0.157,0,0.307-0.031,0.425-0.102l2.552-1.473c0.118-0.071,0.173-0.158,0.173-0.244s-0.055-0.173-0.173-0.244l-1.418-0.819
			L33.363,40.076"/>
		<path id="XMLID_91_" class="st1" d="M33.363,40.076l1.418,0.819c0.118,0.07,0.275,0.102,0.425,0.102
			c0.157,0,0.307-0.031,0.425-0.102l2.552-1.473c0.118-0.071,0.173-0.158,0.173-0.244s-0.055-0.173-0.173-0.244l-1.418-0.819
			L33.363,40.076"/>
		<path id="XMLID_90_" class="st4" d="M33.363,39.745l1.418,0.819c0.118,0.07,0.275,0.102,0.425,0.102
			c0.157,0,0.307-0.031,0.425-0.102l2.552-1.473c0.118-0.071,0.173-0.157,0.173-0.244c0-0.086-0.055-0.173-0.173-0.244l-1.418-0.819
			L33.363,39.745"/>
		<path id="XMLID_89_" class="st1" d="M33.363,39.745l1.418,0.819c0.118,0.07,0.275,0.102,0.425,0.102
			c0.157,0,0.307-0.031,0.425-0.102l2.552-1.473c0.118-0.071,0.173-0.157,0.173-0.244c0-0.086-0.055-0.173-0.173-0.244l-1.418-0.819
			L33.363,39.745"/>
		<path class="st3" d="M16.038,24.64c-0.339-0.196-0.78-0.291-1.221-0.291s-0.882,0.094-1.221,0.291 M12.297,28.626v0.008
			l-3.134,1.811c-0.378,0.22-0.575,0.512-0.575,0.803s0.189,0.582,0.567,0.803l17.31,10.064c0.378,0.221,0.882,0.331,1.378,0.331
			c0.504,0,1-0.11,1.386-0.331l3.134-1.811l0.047-0.024l0.008-0.284l7.363-1.465l-2.079-1.307l3.134-1.811
			c0.378-0.22,0.575-0.512,0.575-0.803s-0.189-0.582-0.567-0.803L23.542,23.751c-0.378-0.221-0.882-0.331-1.378-0.331
			c-0.504,0-1,0.11-1.386,0.331l-3.158,1.811 M12.422,33.004v-0.009l12.734-7.355h0.008h0.008l12.403,7.206l0.008,0.008
			l-0.008,0.008L24.841,40.21h-0.008h-0.008L12.422,33.004L12.422,33.004z"/>
		<path class="st1" d="M16.038,24.64c-0.339-0.196-0.78-0.291-1.221-0.291s-0.882,0.094-1.221,0.291"/>
		<path id="XMLID_82_" class="st8" d="M10.745,25.94c-0.339,0.197-0.504,0.449-0.511,0.708c0,0.26,0.165,0.512,0.504,0.709
			l1.567,0.914l5.316-3.071l-1.567-0.914c-0.339-0.196-0.78-0.291-1.221-0.291s-0.882,0.094-1.221,0.291L10.745,25.94"/>
		<path id="XMLID_80_" class="st9" d="M16.659,25.751l-1.418-0.819c-0.11-0.071-0.267-0.102-0.417-0.102
			c-0.157,0-0.307,0.031-0.425,0.102l-2.552,1.473c-0.11,0.071-0.173,0.157-0.173,0.244c0,0.086,0.055,0.173,0.173,0.244
			l1.418,0.819"/>
		<path id="XMLID_79_" class="st8" d="M32.401,39.974l1.567,0.914c0.339,0.196,0.78,0.291,1.221,0.291
			c0.441,0,0.882-0.094,1.221-0.291l2.867-1.654c0.339-0.197,0.512-0.449,0.512-0.709s-0.165-0.512-0.504-0.709l-1.567-0.914
			L32.401,39.974z"/>
		<path id="XMLID_77_" class="st9" d="M33.363,39.414l1.418,0.819c0.11,0.07,0.267,0.102,0.417,0.102
			c0.157,0,0.307-0.031,0.425-0.102l2.552-1.473c0.11-0.071,0.173-0.158,0.173-0.244s-0.055-0.173-0.173-0.244l-1.418-0.819"/>
		<line id="XMLID_76_" class="st10" x1="17.62" y1="25.546" x2="17.62" y2="25.207"/>
		<line id="XMLID_75_" class="st1" x1="17.62" y1="25.546" x2="17.62" y2="25.207"/>
		<line id="XMLID_74_" class="st10" x1="16.667" y1="26.121" x2="16.667" y2="25.751"/>
		<line id="XMLID_73_" class="st1" x1="16.667" y1="26.121" x2="16.667" y2="25.751"/>
		<line id="XMLID_72_" class="st10" x1="12.32" y1="28.625" x2="17.644" y2="25.554"/>
		<line id="XMLID_70_" class="st10" x1="12.304" y1="28.617" x2="12.304" y2="28.271"/>
		<line id="XMLID_68_" class="st10" x1="13.265" y1="28.082" x2="13.265" y2="27.712"/>
		<line id="XMLID_66_" class="st10" x1="25.172" y1="25.971" x2="25.172" y2="25.633"/>
		<line id="XMLID_65_" class="st1" x1="25.172" y1="25.971" x2="25.172" y2="25.633"/>
		<path id="XMLID_64_" class="st11" d="M16.998,29.2c-0.402,0-0.788-0.095-1.079-0.268c-0.354-0.205-0.559-0.512-0.559-0.851
			c0-0.338,0.205-0.653,0.567-0.858c0.291-0.173,0.677-0.268,1.079-0.268s0.788,0.095,1.079,0.268
			c0.354,0.205,0.559,0.513,0.559,0.851s-0.205,0.653-0.567,0.858C17.786,29.105,17.4,29.2,16.998,29.2"/>
		<path id="XMLID_62_" class="st11" d="M33.347,38.508c-0.402,0-0.78-0.094-1.079-0.268c-0.354-0.205-0.559-0.513-0.559-0.851
			s0.205-0.653,0.567-0.858c0.291-0.173,0.677-0.268,1.079-0.268s0.788,0.095,1.079,0.268c0.354,0.205,0.559,0.52,0.559,0.851
			c0,0.338-0.205,0.653-0.567,0.858C34.135,38.413,33.749,38.508,33.347,38.508"/>
		<path id="XMLID_60_" class="st12" d="M32.103,35.618v1.764c0,0.189,0.118,0.37,0.362,0.512c0.488,0.284,1.276,0.284,1.764,0
			c0.244-0.142,0.37-0.331,0.37-0.512v-1.764H32.11H32.103z"/>
		<path id="XMLID_58_" class="st13" d="M32.473,36.138c-0.489-0.284-0.489-0.74,0.008-1.024c0.488-0.284,1.276-0.284,1.764,0
			c0.48,0.284,0.48,0.74-0.008,1.024C33.749,36.422,32.961,36.422,32.473,36.138"/>
		<path id="XMLID_56_" class="st12" d="M32.788,35.618c0,0.008,0,0.008,0,0.008c0,0.086,0.055,0.173,0.165,0.236
			c0.111,0.063,0.26,0.095,0.402,0.095c0.142,0,0.292-0.032,0.402-0.095c0.11-0.071,0.165-0.149,0.165-0.236v-0.008l0,0l0-7.773
			h-1.134V35.618L32.788,35.618"/>
		<path id="XMLID_54_" class="st12" d="M15.747,26.27v1.788c0,0.189,0.118,0.37,0.362,0.512c0.488,0.284,1.276,0.284,1.764,0
			c0.244-0.142,0.37-0.331,0.37-0.512V26.27h-2.489H15.747z"/>
		<path id="XMLID_52_" class="st13" d="M16.116,26.814c-0.48-0.284-0.48-0.74,0.008-1.024s1.276-0.284,1.764,0
			c0.48,0.284,0.48,0.74-0.008,1.024C17.392,27.098,16.596,27.098,16.116,26.814"/>
		<path id="XMLID_50_" class="st12" d="M16.439,26.302v0.016l0,0c0.007,0.079,0.063,0.15,0.165,0.213
			c0.111,0.064,0.26,0.095,0.402,0.095c0.142,0,0.292-0.032,0.402-0.095c0.102-0.055,0.157-0.134,0.165-0.213l0,0v-0.016l0,0l0,0
			v-2.788h-1.142v2.788l0,0l0,0H16.439z"/>
		<line id="XMLID_47_" class="st10" x1="33.922" y1="31.405" x2="37.009" y2="33.193"/>
		<path id="XMLID_45_" class="st2" d="M41.419,18.907v4.418c0,0.291-0.189,0.582-0.575,0.803L29.236,30.83
			c-0.386,0.221-0.882,0.331-1.386,0.331c-0.496,0-1-0.11-1.378-0.331L9.17,20.781l-0.008,0.008l0.008-0.008
			c-0.378-0.22-0.567-0.512-0.567-0.803v-4.426"/>
		<path id="XMLID_43_" class="st14" d="M9.178,14.749C8.8,14.97,8.603,15.261,8.603,15.552c0,0.291,0.189,0.582,0.567,0.803
			l-0.008,0.008l0.008-0.008l17.302,10.057c0.378,0.221,0.874,0.331,1.378,0.331s1-0.11,1.386-0.331l11.608-6.702
			c0.378-0.228,0.575-0.512,0.575-0.803s-0.189-0.582-0.567-0.803L23.55,8.047c-0.378-0.221-0.874-0.331-1.378-0.331
			s-1,0.11-1.386,0.331L9.178,14.749"/>
		<polygon id="XMLID_41_" class="st6" points="24.991,18.97 28.086,17.182 21.92,17.182 		"/>
		<polygon id="XMLID_40_" class="st6" points="25.015,17.056 25.015,15.403 22.156,17.049 		"/>
		<path id="XMLID_39_" class="st9" d="M10.839,36.666l0.473-0.284c0.126-0.071,0.205-0.229,0.205-0.457
			c0-0.22-0.079-0.472-0.205-0.693s-0.299-0.418-0.496-0.528s-0.378-0.118-0.504-0.047l-0.473,0.284"/>
		<path id="XMLID_37_" class="st8" d="M10.336,34.996c-0.189-0.118-0.371-0.126-0.504-0.047c-0.126,0.079-0.205,0.236-0.205,0.457
			l-0.008-0.008l0.008,0.008c0,0.22,0.079,0.472,0.205,0.693s0.299,0.418,0.496,0.528c0.197,0.11,0.378,0.118,0.504,0.047
			c0.126-0.079,0.205-0.236,0.205-0.457c0-0.22-0.079-0.472-0.205-0.693S10.533,35.106,10.336,34.996"/>
		<path id="XMLID_14_" class="st9" d="M13.895,38.454l0.473-0.284c0.126-0.071,0.205-0.229,0.205-0.457
			c0-0.22-0.079-0.472-0.205-0.693s-0.299-0.418-0.496-0.528c-0.197-0.11-0.378-0.118-0.504-0.047l-0.473,0.284"/>
		<path id="XMLID_00000002383687585334592240000005991203900835363487_" class="st8" d="M13.391,36.784
			c-0.197-0.118-0.37-0.126-0.504-0.047c-0.126,0.079-0.205,0.236-0.205,0.457l-0.008-0.008l0.008,0.008
			c0,0.22,0.079,0.472,0.205,0.693s0.299,0.418,0.496,0.528c0.197,0.11,0.378,0.118,0.504,0.047
			c0.126-0.079,0.205-0.236,0.205-0.457c0-0.22-0.079-0.472-0.205-0.693S13.588,36.894,13.391,36.784"/>
		<path id="XMLID_00000029035411769506278320000017174580919597721750_" class="st9" d="M24.022,44.312l0.473-0.284
			c0.095-0.055,0.15-0.166,0.15-0.323s-0.055-0.33-0.142-0.488c-0.094-0.157-0.22-0.291-0.354-0.37
			c-0.141-0.086-0.267-0.094-0.354-0.039l-0.473,0.284"/>
		<path id="XMLID_8_" class="st8" d="M23.676,43.131c-0.134-0.079-0.26-0.086-0.354-0.031c-0.095,0.055-0.15,0.165-0.15,0.323
			l-0.008-0.008l0.008,0.008c0,0.157,0.055,0.33,0.142,0.488c0.094,0.149,0.212,0.291,0.354,0.37
			c0.141,0.078,0.267,0.078,0.354,0.031c0.095-0.055,0.15-0.165,0.15-0.323c0-0.157-0.055-0.33-0.142-0.488
			C23.936,43.344,23.81,43.21,23.676,43.131"/>
		<path id="XMLID_6_" class="st8" d="M15.139,38.067c-0.023-0.007-0.039-0.015-0.055-0.017c-0.015,0-0.031,0-0.039,0.008
			c-0.015,0.008-0.023,0.016-0.031,0.032s-0.008,0.031-0.008,0.055c0,0.016,0,0.039,0.008,0.063
			c0.007,0.024,0.023,0.039,0.031,0.063c0.008,0.016,0.023,0.039,0.039,0.055c0.016,0.015,0.039,0.031,0.055,0.039
			c0.023,0.008,0.04,0.016,0.055,0.016s0.031,0,0.039-0.008c0.016-0.007,0.024-0.015,0.032-0.031c0-0.016,0.008-0.031,0.008-0.055
			c0-0.016,0-0.039-0.008-0.063c-0.008-0.024-0.024-0.039-0.032-0.063c-0.007-0.016-0.023-0.04-0.039-0.055
			S15.155,38.075,15.139,38.067"/>
	</g>
</g>
</svg>
