<?xml version="1.0" encoding="utf-8"?>
<!-- Generator: Adobe Illustrator 25.4.1, SVG Export Plug-In . SVG Version: 6.00 Build 0)  -->
<svg version="1.1" id="Layer_1" xmlns="http://www.w3.org/2000/svg" xmlns:xlink="http://www.w3.org/1999/xlink" x="0px" y="0px"
	 viewBox="0 0 50 50" style="enable-background:new 0 0 50 50;" xml:space="preserve">
<style type="text/css">
	.st0{opacity:0.42;fill:#C0C1C1;}
	.st1{fill:none;stroke:#000000;stroke-width:0.75;stroke-linecap:round;stroke-linejoin:round;stroke-miterlimit:10;}
	.st2{fill:#3F444B;}
	.st3{fill:#989A9E;}
	.st4{fill:#FFFFFF;}
	.st5{fill:#1D1E22;}
	.st6{fill:#B3B3B3;}
	.st7{fill:#F69D00;}
	.st8{fill:#FFC200;}
	.st9{fill:#FF9E00;}
	.st10{fill:none;}
	.st11{fill:#6D6D6D;}
	.st12{fill:#8C8C8C;}
	.st13{fill:#DCDCDC;}
	.st14{fill:#6A7177;}
</style>
<g>
	<path id="XMLID_00000090984603468833637820000013718205373171768981_" class="st0" d="M39.849,36.9l-10.881-6.282
		c-0.362-0.207-0.827-0.31-1.299-0.31s-0.938,0.103-1.292,0.31l-16.218,9.427c-0.354,0.207-0.531,0.48-0.531,0.753
		c0,0.273,0.185,0.539,0.539,0.753l10.881,6.282c0.362,0.207,0.827,0.31,1.299,0.31c0.472,0,0.938-0.103,1.292-0.31l16.218-9.427
		l0.007,0.007l-0.007-0.007c0.354-0.207,0.531-0.48,0.531-0.753C40.388,37.38,40.204,37.106,39.849,36.9"/>
	<g>
		<polyline id="XMLID_950_" points="10.974,41.084 11.014,41.06 13.219,39.776 11.171,39.083 10.423,40.013 		"/>
		<polyline id="XMLID_00000148635185084784139230000014950962368311963063_" class="st1" points="13.984,40.351 11.171,39.083 
			10.423,40.013 		"/>
		<path id="XMLID_948_" class="st2" d="M8.588,35.201v4.04c0,0.291,0.197,0.583,0.575,0.803l1.811,1.047v-0.457
			c0-0.41,0.291-0.575,0.654-0.37l5.946,3.434c0.354,0.205,0.646,0.709,0.646,1.118v0.457l2.552,1.473
			c0.386,0.221,0.882,0.331,1.386,0.331c0.504,0,1-0.11,1.378-0.331l17.302-10.057c0.378-0.221,0.567-0.512,0.567-0.803v-3.977
			L25.15,41.28l-11.356-6.599L8.588,35.201z"/>
		<path class="st3" d="M40.829,31.114l-11.608-6.702c-0.386-0.221-0.882-0.331-1.386-0.331c-0.504,0-1,0.11-1.378,0.331
			L9.155,34.461c-0.378,0.221-0.567,0.512-0.567,0.803s0.197,0.583,0.575,0.803l11.608,6.702c0.386,0.221,0.882,0.331,1.386,0.331
			c0.504,0,1-0.11,1.378-0.331l17.302-10.057c0.378-0.221,0.567-0.512,0.567-0.803C41.404,31.618,41.207,31.334,40.829,31.114
			 M25.158,40.855l-12.711-7.34l12.388-7.198l12.711,7.34L25.158,40.855z"/>
		<path class="st1" d="M25.158,40.855l-12.711-7.34l12.388-7.198l12.711,7.34L25.158,40.855z"/>
		<path class="st4" d="M17.534,38.595c-0.488,0.284-1.276,0.284-1.764,0c-0.488-0.284-0.488-0.74-0.008-1.024
			c0.488-0.284,1.276-0.284,1.764,0C18.023,37.855,18.023,38.312,17.534,38.595 M33.891,29.271c-0.48,0.284-1.276,0.284-1.764,0
			c-0.488-0.284-0.488-0.74-0.008-1.024c0.488-0.284,1.276-0.284,1.764,0C34.371,28.531,34.371,28.987,33.891,29.271"/>
		<path class="st1" d="M17.534,38.595c-0.488,0.284-1.276,0.284-1.764,0c-0.488-0.284-0.488-0.74-0.008-1.024
			c0.488-0.284,1.276-0.284,1.764,0C18.023,37.855,18.023,38.312,17.534,38.595z M33.891,29.271c-0.48,0.284-1.276,0.284-1.764,0
			c-0.488-0.284-0.488-0.74-0.008-1.024c0.488-0.284,1.276-0.284,1.764,0C34.371,28.531,34.371,28.987,33.891,29.271z"/>
		<path id="XMLID_938_" class="st5" d="M17.613,40.619h0.008h0.008l3.134,1.811c0.386,0.221,0.882,0.331,1.386,0.331
			c0.496,0,1-0.11,1.378-0.331l17.302-10.057c0.378-0.221,0.567-0.512,0.567-0.803c0-0.291-0.197-0.583-0.575-0.803l-3.134-1.811
			l-0.008-0.008l0.008-0.008l1.583-0.921c0.339-0.197,0.504-0.449,0.504-0.709v-0.677l-3.378-1.67
			c-0.339-0.197-0.78-0.291-1.221-0.291s-0.882,0.095-1.221,0.291l-1.583,0.921h-0.008h-0.008l-3.134-1.811
			c-0.386-0.221-0.882-0.331-1.386-0.331c-0.496,0-1,0.11-1.378,0.331L9.155,34.13"/>
		<polygon id="XMLID_48_" class="st6" points="37.585,32.996 25.181,40.217 12.998,33.193 25.669,26.144 		"/>
		<path id="XMLID_98_" class="st7" d="M17.597,39.989l-7.379-1.473v0.662c0,0.26,0.173,0.512,0.512,0.709l2.867,1.654
			c0.339,0.197,0.78,0.291,1.221,0.291c0.441,0,0.882-0.095,1.221-0.291l1.583-0.921"/>
		<path id="XMLID_96_" class="st5" d="M8.588,34.563v0.362c0,0.291,0.197,0.583,0.575,0.803l3.134,1.811l0.008,0.008l-0.008,0.008
			l5.3,2.441l0.008,0.63v-0.654"/>
		<path id="XMLID_94_" class="st7" d="M39.585,26.452l-2.882-1.67c-0.339-0.197-0.788-0.291-1.229-0.291
			c-0.449,0-0.89,0.102-1.229,0.299l-1.583,0.921l5.355,3.095l1.244-0.717c0.323-0.173,0.543-0.425,0.543-0.732
			C39.79,27.089,39.837,25.987,39.585,26.452"/>
		<path id="XMLID_92_" class="st4" d="M16.644,40.076l-3.402-1.961l-1.418,0.819c-0.118,0.071-0.173,0.158-0.173,0.244
			s0.055,0.173,0.173,0.244l2.552,1.473c0.118,0.071,0.268,0.102,0.425,0.102c0.15,0,0.307-0.032,0.425-0.102L16.644,40.076"/>
		<path id="XMLID_91_" class="st1" d="M16.644,40.076l-3.402-1.961l-1.418,0.819c-0.118,0.071-0.173,0.158-0.173,0.244
			s0.055,0.173,0.173,0.244l2.552,1.473c0.118,0.071,0.268,0.102,0.425,0.102c0.15,0,0.307-0.032,0.425-0.102L16.644,40.076"/>
		<path id="XMLID_90_" class="st4" d="M16.644,39.745l-3.402-1.961l-1.418,0.819c-0.118,0.071-0.173,0.158-0.173,0.244
			c0,0.087,0.055,0.173,0.173,0.244l2.552,1.473c0.118,0.071,0.268,0.102,0.425,0.102c0.15,0,0.307-0.032,0.425-0.102L16.644,39.745
			"/>
		<path id="XMLID_89_" class="st1" d="M16.644,39.745l-3.402-1.961l-1.418,0.819c-0.118,0.071-0.173,0.158-0.173,0.244
			c0,0.087,0.055,0.173,0.173,0.244l2.552,1.473c0.118,0.071,0.268,0.102,0.425,0.102c0.15,0,0.307-0.032,0.425-0.102L16.644,39.745
			"/>
		<path class="st3" d="M36.411,24.64c-0.339-0.197-0.78-0.291-1.221-0.291s-0.882,0.095-1.221,0.291 M32.387,25.562l-3.158-1.811
			c-0.386-0.221-0.882-0.331-1.386-0.331c-0.496,0-1,0.11-1.378,0.331L9.163,33.807c-0.378,0.221-0.567,0.512-0.567,0.803
			s0.197,0.583,0.575,0.803l3.134,1.811l-2.079,1.307l7.363,1.465l0.008,0.284l0.047,0.024l3.134,1.811
			c0.386,0.221,0.882,0.331,1.386,0.331c0.496,0,1-0.11,1.378-0.331l17.31-10.064c0.378-0.221,0.567-0.512,0.567-0.803
			c0-0.291-0.197-0.583-0.575-0.803l-3.134-1.811v-0.008 M37.585,33.004l-12.403,7.206h-0.008h-0.008l-12.734-7.348l-0.008-0.008
			l0.008-0.008l12.403-7.206h0.008h0.008l12.734,7.355V33.004L37.585,33.004z"/>
		<path class="st1" d="M36.411,24.64c-0.339-0.197-0.78-0.291-1.221-0.291s-0.882,0.095-1.221,0.291"/>
		<path id="XMLID_82_" class="st8" d="M39.262,25.94l-2.867-1.654c-0.339-0.197-0.78-0.291-1.221-0.291
			c-0.441,0-0.882,0.095-1.221,0.291l-1.567,0.914l5.316,3.071l1.567-0.914c0.339-0.197,0.504-0.449,0.504-0.709
			C39.766,26.389,39.601,26.137,39.262,25.94"/>
		<path id="XMLID_80_" class="st9" d="M36.742,27.712l1.418-0.819c0.118-0.071,0.173-0.158,0.173-0.244
			c0-0.087-0.063-0.173-0.173-0.244l-2.552-1.473c-0.118-0.071-0.268-0.102-0.425-0.102c-0.15,0-0.307,0.031-0.417,0.102
			l-1.418,0.819"/>
		<path id="XMLID_79_" class="st8" d="M12.289,36.902l-1.567,0.914c-0.339,0.197-0.504,0.449-0.504,0.709s0.173,0.512,0.512,0.709
			l2.867,1.654c0.339,0.197,0.78,0.291,1.221,0.291s0.882-0.095,1.221-0.291l1.567-0.914L12.289,36.902z"/>
		<path id="XMLID_77_" class="st9" d="M13.25,37.453l-1.418,0.819c-0.118,0.071-0.173,0.158-0.173,0.244s0.063,0.173,0.173,0.244
			l2.552,1.473c0.118,0.071,0.268,0.102,0.425,0.102c0.15,0,0.307-0.032,0.417-0.102l1.418-0.819"/>
		<line id="XMLID_76_" class="st10" x1="32.387" y1="25.207" x2="32.387" y2="25.546"/>
		<line id="XMLID_75_" class="st1" x1="32.387" y1="25.207" x2="32.387" y2="25.546"/>
		<line id="XMLID_74_" class="st10" x1="33.34" y1="25.751" x2="33.34" y2="26.121"/>
		<line id="XMLID_73_" class="st1" x1="33.34" y1="25.751" x2="33.34" y2="26.121"/>
		<line id="XMLID_72_" class="st10" x1="32.363" y1="25.554" x2="37.687" y2="28.625"/>
		<line id="XMLID_70_" class="st10" x1="37.703" y1="28.271" x2="37.703" y2="28.617"/>
		<line id="XMLID_68_" class="st10" x1="36.742" y1="27.712" x2="36.742" y2="28.082"/>
		<line id="XMLID_66_" class="st10" x1="24.835" y1="25.633" x2="24.835" y2="25.971"/>
		<line id="XMLID_65_" class="st1" x1="24.835" y1="25.633" x2="24.835" y2="25.971"/>
		<path id="XMLID_64_" class="st11" d="M33.009,29.2c-0.402,0-0.788-0.095-1.079-0.268c-0.362-0.205-0.567-0.52-0.567-0.858
			s0.205-0.646,0.559-0.851c0.291-0.173,0.677-0.268,1.079-0.268s0.788,0.095,1.079,0.268c0.362,0.205,0.567,0.52,0.567,0.858
			c0,0.339-0.205,0.646-0.559,0.851C33.797,29.105,33.411,29.2,33.009,29.2"/>
		<path id="XMLID_62_" class="st11" d="M16.66,38.508c-0.402,0-0.788-0.095-1.079-0.268c-0.362-0.205-0.567-0.52-0.567-0.858
			c0-0.331,0.205-0.646,0.559-0.851c0.291-0.173,0.677-0.268,1.079-0.268s0.788,0.095,1.079,0.268
			c0.362,0.205,0.567,0.52,0.567,0.858s-0.205,0.646-0.559,0.851C17.44,38.414,17.062,38.508,16.66,38.508"/>
		<path id="XMLID_60_" class="st12" d="M17.897,35.618h-2.489v1.764c0,0.181,0.126,0.37,0.37,0.512c0.488,0.284,1.276,0.284,1.764,0
			c0.244-0.142,0.362-0.323,0.362-0.512v-1.764H17.897z"/>
		<path id="XMLID_58_" class="st13" d="M17.534,36.138c-0.488,0.284-1.276,0.284-1.764,0c-0.488-0.284-0.488-0.74-0.008-1.024
			c0.488-0.284,1.276-0.284,1.764,0C18.023,35.398,18.023,35.854,17.534,36.138"/>
		<path id="XMLID_56_" class="st12" d="M17.219,35.618L17.219,35.618v-7.773h-1.134v7.773l0,0v0.008
			c0,0.087,0.055,0.165,0.165,0.236c0.11,0.063,0.26,0.095,0.402,0.095c0.142,0,0.291-0.032,0.402-0.095
			c0.11-0.063,0.165-0.15,0.165-0.236C17.219,35.626,17.219,35.626,17.219,35.618"/>
		<path id="XMLID_54_" class="st12" d="M34.253,26.27h-2.489v1.788c0,0.181,0.126,0.37,0.37,0.512c0.488,0.284,1.276,0.284,1.764,0
			c0.244-0.142,0.362-0.323,0.362-0.512V26.27H34.253z"/>
		<path id="XMLID_52_" class="st13" d="M33.891,26.814c-0.48,0.284-1.276,0.284-1.764,0c-0.488-0.284-0.488-0.74-0.008-1.024
			c0.488-0.284,1.276-0.284,1.764,0S34.371,26.53,33.891,26.814"/>
		<path id="XMLID_50_" class="st12" d="M33.576,26.302L33.576,26.302L33.576,26.302v-2.788h-1.142v2.788l0,0l0,0v0.016l0,0
			c0.008,0.079,0.063,0.158,0.165,0.213c0.11,0.063,0.26,0.095,0.402,0.095c0.142,0,0.291-0.031,0.402-0.095
			c0.102-0.063,0.158-0.134,0.165-0.213l0,0v-0.016H33.576z"/>
		<line id="XMLID_47_" class="st10" x1="12.998" y1="33.193" x2="16.085" y2="31.405"/>
		<path id="XMLID_45_" class="st2" d="M41.404,15.552v4.426c0,0.291-0.189,0.583-0.567,0.803l0.008,0.008l-0.008-0.008L23.535,30.83
			c-0.378,0.221-0.882,0.331-1.378,0.331c-0.504,0-1-0.11-1.386-0.331L9.163,24.128c-0.386-0.221-0.575-0.512-0.575-0.803v-4.418"/>
		<path id="XMLID_43_" class="st14" d="M40.829,14.749L29.221,8.047c-0.386-0.221-0.882-0.331-1.386-0.331
			c-0.504,0-1,0.11-1.378,0.331L9.155,18.104c-0.378,0.221-0.567,0.512-0.567,0.803c0,0.291,0.197,0.575,0.575,0.803l11.608,6.702
			c0.386,0.221,0.882,0.331,1.386,0.331c0.504,0,1-0.11,1.378-0.331l17.302-10.057l0.008,0.008l-0.008-0.008
			c0.378-0.221,0.567-0.512,0.567-0.803C41.404,15.261,41.207,14.97,40.829,14.749"/>
		<polygon id="XMLID_41_" class="st6" points="28.087,17.182 21.921,17.182 25.016,18.97 		"/>
		<polygon id="XMLID_40_" class="st6" points="27.851,17.049 24.992,15.403 24.992,17.056 		"/>
		<path id="XMLID_39_" class="st9" d="M40.168,34.941l-0.473-0.284c-0.126-0.071-0.307-0.063-0.504,0.047s-0.37,0.307-0.496,0.528
			c-0.126,0.221-0.205,0.473-0.205,0.693c0,0.228,0.079,0.386,0.205,0.457l0.473,0.284"/>
		<path id="XMLID_37_" class="st8" d="M39.671,34.996c-0.197,0.11-0.37,0.307-0.496,0.528c-0.126,0.221-0.205,0.473-0.205,0.693
			c0,0.221,0.079,0.378,0.205,0.457c0.126,0.071,0.307,0.063,0.504-0.047c0.197-0.11,0.37-0.307,0.496-0.528
			c0.126-0.221,0.205-0.473,0.205-0.693l0.008-0.008l-0.008,0.008c0-0.221-0.079-0.378-0.205-0.457
			C40.042,34.87,39.86,34.878,39.671,34.996"/>
		<path id="XMLID_14_" class="st9" d="M37.112,36.729l-0.473-0.284c-0.126-0.071-0.307-0.063-0.504,0.047
			c-0.197,0.11-0.37,0.307-0.496,0.528c-0.126,0.221-0.205,0.473-0.205,0.693c0,0.228,0.079,0.386,0.205,0.457l0.473,0.284"/>
		<path id="XMLID_00000002383687585334592240000005991203900835363487_" class="st8" d="M36.616,36.784
			c-0.197,0.11-0.37,0.307-0.496,0.528c-0.126,0.221-0.205,0.473-0.205,0.693c0,0.221,0.079,0.378,0.205,0.457
			c0.126,0.071,0.307,0.063,0.504-0.047c0.197-0.11,0.37-0.307,0.496-0.528c0.126-0.221,0.205-0.473,0.205-0.693l0.008-0.008
			l-0.008,0.008c0-0.221-0.079-0.378-0.205-0.457C36.986,36.658,36.813,36.666,36.616,36.784"/>
		<path id="XMLID_00000029035411769506278320000017174580919597721750_" class="st9" d="M26.685,43.092l-0.473-0.284
			c-0.087-0.055-0.213-0.047-0.354,0.039c-0.134,0.079-0.26,0.213-0.354,0.37c-0.087,0.158-0.142,0.331-0.142,0.488
			s0.055,0.268,0.15,0.323l0.473,0.284"/>
		<path id="XMLID_8_" class="st8" d="M26.331,43.131c-0.134,0.079-0.26,0.213-0.354,0.37c-0.087,0.158-0.142,0.331-0.142,0.488
			c0,0.158,0.055,0.268,0.15,0.323c0.087,0.047,0.213,0.047,0.354-0.031c0.142-0.079,0.26-0.221,0.354-0.37
			c0.087-0.158,0.142-0.331,0.142-0.488l0.008-0.008l-0.008,0.008c0-0.158-0.055-0.268-0.15-0.323
			C26.591,43.045,26.465,43.052,26.331,43.131"/>
		<path id="XMLID_6_" class="st8" d="M34.868,38.067c-0.016,0.008-0.039,0.024-0.055,0.039s-0.032,0.039-0.039,0.055
			c-0.008,0.024-0.024,0.039-0.032,0.063c-0.008,0.024-0.008,0.047-0.008,0.063c0,0.024,0.008,0.039,0.008,0.055
			c0.008,0.016,0.016,0.024,0.032,0.031c0.008,0.008,0.024,0.008,0.039,0.008s0.032-0.008,0.055-0.016
			c0.016-0.008,0.039-0.024,0.055-0.039c0.016-0.016,0.031-0.039,0.039-0.055c0.008-0.024,0.024-0.039,0.031-0.063
			c0.008-0.024,0.008-0.047,0.008-0.063c0-0.024,0-0.039-0.008-0.055c-0.008-0.016-0.016-0.024-0.031-0.032
			c-0.008-0.008-0.024-0.008-0.039-0.008C34.907,38.052,34.891,38.06,34.868,38.067"/>
	</g>
</g>
</svg>
