<?xml version="1.0" encoding="utf-8"?>
<!-- Generator: Adobe Illustrator 26.0.1, SVG Export Plug-In . SVG Version: 6.00 Build 0)  -->
<svg version="1.1" id="Layer_1" xmlns="http://www.w3.org/2000/svg" xmlns:xlink="http://www.w3.org/1999/xlink" x="0px" y="0px"
	 viewBox="0 0 50 50" style="enable-background:new 0 0 50 50;" xml:space="preserve">
<style type="text/css">
	.st0{fill:url(#SVGID_1_);}
	.st1{fill:#302E2F;}
	.st2{fill:#363436;}
	.st3{fill:#5C5D60;}
	.st4{fill:#FFFFFF;}
	.st5{fill:#C2C2C2;}
	.st6{fill:#A7A7A7;}
	.st7{fill:#D6D6D6;}
	.st8{fill:#C7C7C7;}
	.st9{fill:#A3A3A3;}
	.st10{fill:#F2F2F2;}
	.st11{fill:#35475B;}
	.st12{fill:#425972;}
	.st13{fill:#C3C3C3;}
	.st14{fill:#999999;}
	.st15{fill:#CFCFCF;}
	.st16{fill:#DBDBDB;}
	.st17{fill:#0A0A0A;}
	.st18{fill:#34465A;}
	.st19{fill:#8C9296;}
	.st20{fill:#A5A7AA;}
	.st21{fill:#E82C00;}
	.st22{opacity:0.22;}
	.st23{fill:#3D5AA8;}
	.st24{fill:#F6CB11;}
	.st25{opacity:0.59;}
</style>
<radialGradient id="SVGID_1_" cx="-61.8807" cy="636.0652" r="15.8951" gradientTransform="matrix(-1.5353 0 0 0.569 -70.0054 -322.1091)" gradientUnits="userSpaceOnUse">
	<stop  offset="0.2598" style="stop-color:#B4BCC1"/>
	<stop  offset="0.4308" style="stop-color:#BCC3C8;stop-opacity:0.7486"/>
	<stop  offset="0.6967" style="stop-color:#D2D7DA;stop-opacity:0.3577"/>
	<stop  offset="0.94" style="stop-color:#ECEEEF;stop-opacity:0"/>
</radialGradient>
<ellipse class="st0" cx="25" cy="39.812" rx="24.402" ry="9.045"/>
<g>
	<g>
		<polygon class="st1" points="32.781,29.187 36.96,38.387 43.274,29.564 39.089,20.35 		"/>
		<polygon class="st2" points="21.23,28.063 25.409,37.263 36.96,38.387 32.781,29.187 		"/>
		<polygon class="st3" points="32.781,29.187 39.197,20.36 27.646,19.236 21.23,28.063 		"/>
		<g>
			<path class="st4" d="M38.004,25.313c0.08-0.041,0.159-0.085,0.26-0.139c-0.282-0.62-0.553-1.218-0.829-1.825
				c-0.066,0.085-0.111,0.144-0.177,0.228c0.219,0.483,0.435,0.957,0.65,1.431c-0.011,0.028-0.022,0.055-0.033,0.083
				c-0.066-0.011-0.133-0.022-0.202-0.034c-0.095,0.293-0.553,0.659-0.806,0.607c0.064,0.291-0.1,0.43-0.219,0.596
				c-0.12,0.167-0.208,0.454-0.389,0.361c0.003,0.126,0.032,0.244,0.002,0.325c-0.129,0.352-0.276,0.692-0.432,1.076
				c0.078,0.238-0.136,0.567-0.115,0.964c-0.077-0.048-0.118-0.074-0.133-0.083c-0.046,0.193-0.085,0.357-0.124,0.522
				c0.053,0.052,0.131,0.127,0.201,0.195c0.087-0.049,0.191-0.108,0.267-0.151c0.024-0.15,0.051-0.308,0.079-0.479
				c-0.151,0.037-0.126-0.132-0.077-0.346c0.329-1.436,0.935-2.503,1.821-3.199C37.83,25.381,37.919,25.357,38.004,25.313z"/>
			<path class="st4" d="M37.139,23.75c-0.155,0.264-0.157,0.289-0.028,0.552C37.31,24.064,37.311,24.026,37.139,23.75z"/>
			<path class="st4" d="M37.485,24.9c0.042-0.079,0.078-0.145,0.123-0.229c-0.041-0.081-0.081-0.157-0.122-0.237
				C37.358,24.67,37.358,24.672,37.485,24.9z"/>
			<path class="st4" d="M36.67,25.201c0.053-0.355-0.052-0.501-0.225-0.565C36.393,24.972,36.438,25.088,36.67,25.201z"/>
			<path class="st4" d="M36.125,26.47c-0.068-0.413-0.068-0.413-0.325-0.328C35.822,26.484,35.832,26.494,36.125,26.47z"/>
			<path class="st4" d="M36.541,26.01c0.035-0.242,0.026-0.427-0.161-0.4C36.313,25.882,36.319,25.898,36.541,26.01z"/>
			<path class="st4" d="M36.237,28.156c-0.026,0.281,0.076,0.276,0.208,0.212C36.434,28.103,36.434,28.103,36.237,28.156z"/>
			<path class="st4" d="M35.908,25.367c-0.015,0.293,0.046,0.456,0.222,0.464C36.193,25.501,36.041,25.459,35.908,25.367z"/>
			<path class="st4" d="M37.989,25.853c-0.04,0.093-0.082,0.188-0.134,0.307c0.056,0.058,0.096,0.1,0.14,0.146
				C38.094,26.122,38.142,25.966,37.989,25.853z"/>
			<path class="st4" d="M38.139,22.443c-0.159,0.205-0.331,0.426-0.501,0.646c0.233,0.514,0.465,1.023,0.7,1.541
				C38.561,23.715,38.524,22.978,38.139,22.443z M37.968,23.35c-0.044-0.097-0.086-0.188,0.014-0.316
				c0.092-0.118,0.163-0.112,0.2,0.036c0.068,0.09,0.077,0.2-0.018,0.332C38.058,23.55,38.015,23.454,37.968,23.35z"/>
			<path class="st4" d="M42.314,28.698c0.078,0.182,0.139,0.267,0.289,0.143c0.086-0.071,0.189-0.059,0.279-0.083
				c-0.055-0.231-0.11-0.254-0.286-0.122c-0.04,0.031-0.086,0.032-0.129,0.042C42.426,28.687,42.385,28.69,42.314,28.698z"/>
			<path class="st4" d="M40.97,24.872c-0.03-0.132-0.05-0.218-0.073-0.316c-0.176,0.285-0.37,0.523-0.304,0.914
				C40.758,25.305,40.698,24.88,40.97,24.872z"/>
			<path class="st4" d="M36.812,26.684c-0.004,0.094-0.009,0.184-0.014,0.299c0.058-0.005,0.114-0.009,0.169-0.014
				C37.009,26.737,36.962,26.646,36.812,26.684z"/>
			<path class="st4" d="M36.872,27.281c-0.063,0.007-0.125,0.013-0.2,0.021c0.008,0.108,0.014,0.195,0.021,0.297
				c0.057-0.009,0.11-0.018,0.172-0.028C36.868,27.476,36.869,27.4,36.872,27.281z"/>
			<path class="st4" d="M37.507,25.762c-0.019,0.062-0.039,0.122-0.057,0.183c-0.013,0.045-0.022,0.091-0.039,0.16
				c0.059,0.034,0.105,0.061,0.151,0.087C37.666,25.89,37.666,25.89,37.507,25.762z"/>
			<path class="st4" d="M37.207,26.473c-0.053,0.392-0.053,0.392,0.148,0.435C37.42,26.561,37.412,26.54,37.207,26.473z"/>
			<path class="st4" d="M36.051,31.693c0.236-0.065,0.236-0.065,0.34-0.481c-0.089,0.02-0.163,0.037-0.249,0.056
				C36.111,31.412,36.081,31.549,36.051,31.693z"/>
			<path class="st4" d="M34.684,30.77c0.008-0.07-0.011-0.15-0.036-0.201c-0.125-0.253-0.262-0.49-0.381-0.749
				c-0.082-0.178-0.17-0.167-0.291,0.02c-0.019,0.03-0.044,0.049-0.072,0.08c-0.092-0.164-0.181-0.325-0.267-0.48
				c0.044-0.102,0.078-0.182,0.142-0.33c-0.097,0.051-0.147,0.078-0.201,0.107c-0.041-0.09-0.085-0.185-0.129-0.283
				c0.03-0.075,0.058-0.145,0.094-0.234c-0.097,0.003-0.179-0.004-0.264,0.012c-0.026,0.005-0.074,0.07-0.084,0.114
				c-0.026,0.114-0.037,0.23-0.054,0.346c0.221,0.005,0.285,0.148,0.205,0.463c0.199,0.02,0.199,0.02,0.365,0.551
				c-0.083,0.119-0.168,0.241-0.266,0.382c0.157,0.345,0.306,0.681,0.462,1.008c0.023,0.048,0.078,0.067,0.123,0.07
				c0.169,0.012,0.34,0.012,0.534,0.017C34.606,31.351,34.65,31.06,34.684,30.77z M34.408,31.346
				c-0.472,0.078-0.421-0.065-0.716-0.804c0.069-0.123,0.129-0.219,0.202-0.069c0.027,0.055,0.09,0.063,0.136,0.093
				c0.016-0.024,0.033-0.049,0.049-0.073c-0.022-0.12-0.043-0.24-0.076-0.423c0.063,0.011,0.121-0.007,0.145,0.029
				c0.077,0.115,0.134,0.26,0.21,0.376C34.507,30.702,34.499,31.001,34.408,31.346z"/>
			<path class="st4" d="M35.405,32.161c0.028,0.06,0.054,0.118,0.085,0.186c0.043-0.056,0.084-0.108,0.131-0.169
				C35.581,31.964,35.506,32,35.405,32.161z"/>
			<path class="st4" d="M34.263,31.03c0.018-0.104,0.032-0.181,0.051-0.288c-0.058-0.003-0.112-0.006-0.174-0.01
				c-0.016,0.096-0.03,0.173-0.047,0.273C34.148,31.013,34.197,31.02,34.263,31.03z"/>
			<path class="st4" d="M35.327,30.396c-0.051,0.001-0.111-0.036-0.137-0.094c-0.157-0.347-0.299-0.712-0.457-1.057
				c-0.218-0.475-0.442-0.941-0.671-1.401c-0.02-0.039-0.092-0.007-0.179-0.009c0.036,0.117,0.047,0.164,0.064,0.204
				c0.169,0.403,0.333,0.812,0.511,1.203c0.173,0.38,0.359,0.744,0.544,1.107c0.062,0.12,0.067,0.255,0.037,0.425
				c-0.049,0.277-0.088,0.554-0.134,0.846c0.088-0.005,0.167-0.009,0.247-0.013c0.02,0.084,0.039,0.165,0.06,0.251
				c0.075-0.097,0.14-0.228,0.191-0.235c0.075-0.01,0.165,0.036,0.205,0.117c0.183,0.375,0.358,0.762,0.519,1.165
				c0.041,0.103,0.024,0.276,0.031,0.418c0.005,0.112,0.005,0.226,0.009,0.386c0.203-0.263,0.386-0.499,0.571-0.737
				c-0.004-0.006-0.011-0.03-0.022-0.032c-0.406-0.082-0.592-0.56-0.794-1.008c-0.015-0.034-0.027-0.074-0.045-0.104
				c-0.159-0.271-0.226-0.597-0.103-1.039c0.033-0.117,0.062-0.236,0.092-0.354c-0.011-0.03-0.023-0.059-0.034-0.089
				C35.663,30.365,35.493,30.392,35.327,30.396z M35.595,30.725c-0.03,0.2-0.058,0.382-0.083,0.542
				c-0.134,0.013-0.25,0.024-0.372,0.035c0.032-0.204,0.06-0.385,0.091-0.585C35.356,30.72,35.473,30.723,35.595,30.725z"/>
			<path class="st4" d="M34.522,32.009c-0.112,0.036-0.224,0.072-0.364,0.116c0.045,0.1,0.072,0.159,0.102,0.225
				c0.09-0.094,0.175-0.182,0.26-0.271C34.521,32.055,34.521,32.032,34.522,32.009z"/>
			<path class="st4" d="M35.523,27.22c0.186,0.266,0.205,0.269,0.434,0.058C35.816,26.994,35.794,26.992,35.523,27.22z"/>
			<path class="st4" d="M35.93,36.006c0.13-0.168,0.267-0.343,0.403-0.52c0.167-0.217,0.334-0.434,0.501-0.652
				c0.079-0.103,0.146-0.17,0.248-0.131c0.148,0.056,0.277-0.076,0.352-0.301c0.096-0.289,0.076-0.452-0.071-0.583
				c-0.093-0.083-0.316-0.013-0.392,0.167c-0.061,0.145-0.075,0.328-0.116,0.524c-0.273,0.352-0.574,0.741-0.876,1.13
				C35.893,35.75,35.797,35.86,35.93,36.006z M37.063,34.394c-0.021-0.062,0.018-0.233,0.064-0.308
				c0.03-0.05,0.148-0.054,0.173-0.005c0.03,0.06,0.002,0.197,0,0.301c-0.018,0.027-0.037,0.055-0.055,0.082
				C37.181,34.444,37.085,34.46,37.063,34.394z"/>
			<path class="st4" d="M34.725,33.117c0.004,0.144,0.008,0.251,0.01,0.309c0.104-0.051,0.18-0.089,0.28-0.138
				C34.998,33.046,34.851,33.161,34.725,33.117z"/>
			<path class="st4" d="M35.184,34.451c0.132,0.221,0.264,0.442,0.401,0.671c0.011,0.083,0.027,0.197,0.047,0.34
				c0.141-0.182,0.253-0.327,0.386-0.498c-0.273-0.204-0.532-0.398-0.791-0.591C35.212,34.399,35.197,34.425,35.184,34.451z"/>
			<path class="st4" d="M34.965,29.09c0.051,0.227,0.173,0.188,0.319,0.088C35.206,29.023,35.13,28.897,34.965,29.09z"/>
			<path class="st4" d="M35.32,29.986c-0.004,0.026-0.008,0.052-0.012,0.078c0.071-0.001,0.142-0.002,0.237-0.003
				C35.489,29.807,35.403,29.906,35.32,29.986z"/>
			<path class="st4" d="M35.321,28.47c0.047-0.329,0.094-0.653,0.146-1.016c-0.387,0.16-0.623-0.086-0.75-0.617
				c-0.062,0.089-0.093,0.135-0.146,0.21c0.27,0.338,0.291,0.825,0.123,1.407C34.914,28.46,35.112,28.465,35.321,28.47z"/>
			<path class="st4" d="M35.645,26.582c-0.111-0.315-0.111-0.315-0.366-0.195C35.316,26.669,35.382,26.708,35.645,26.582z"/>
			<path class="st4" d="M37.192,32.144c-0.154,0.193-0.2,0.395-0.115,0.61C37.306,32.414,37.306,32.414,37.192,32.144z"/>
			<path class="st4" d="M35.974,30.724c0.087,0.001,0.164,0.003,0.255,0.004c0.019-0.09,0.035-0.164,0.054-0.25
				C36.158,30.438,36.05,30.412,35.974,30.724z"/>
			<path class="st4" d="M36.717,32.156c-0.003-0.118-0.007-0.229-0.01-0.341c-0.234,0.145-0.234,0.145-0.229,0.502
				C36.553,32.267,36.626,32.217,36.717,32.156z"/>
			<path class="st4" d="M40.935,26.126c0.003,0.018,0.046,0.028,0.062,0.012c0.123-0.122,0.243-0.252,0.379-0.394
				c-0.175-0.074-0.335,0.028-0.427,0.255C40.934,26.035,40.929,26.091,40.935,26.126z"/>
			<path class="st4" d="M36.96,24.575c-0.062,0.271-0.054,0.495,0.096,0.64C37.165,24.896,37.125,24.694,36.96,24.575z"/>
			<path class="st4" d="M39.523,30.377c-0.001,0.302,0.019,0.316,0.223,0.152c-0.015-0.073-0.03-0.145-0.049-0.237
				C39.638,30.32,39.58,30.348,39.523,30.377z"/>
			<path class="st4" d="M40.28,28.33c-0.115-0.244-0.195,0.025-0.291,0.12C40.093,28.627,40.182,28.485,40.28,28.33z"/>
			<path class="st4" d="M39.043,31.198c0.038,0.071,0.076,0.142,0.134,0.251C39.231,31.12,39.231,31.12,39.043,31.198z"/>
			<path class="st4" d="M39.837,29.462c0.08,0.22,0.08,0.22,0.241,0.119C40.059,29.326,39.958,29.369,39.837,29.462z"/>
			<path class="st4" d="M36.509,37.295c0.021,0.051,0.046,0.113,0.075,0.187c0.047-0.045,0.087-0.084,0.133-0.129
				c0.032,0.052,0.063,0.1,0.099,0.159c0.111-0.144,0.222-0.287,0.339-0.438c-0.013-0.061-0.025-0.122-0.039-0.192
				c0.09-0.136,0.183-0.273,0.282-0.422c0.041,0.053,0.077,0.1,0.118,0.153c0.111-0.144,0.218-0.282,0.336-0.434
				c-0.017-0.061-0.034-0.123-0.054-0.197c0.172-0.222,0.339-0.443,0.51-0.656c0.085-0.108,0.132-0.222,0.145-0.382
				c0.068-0.823,0.139-1.647,0.216-2.472c0.006-0.063,0.057-0.168,0.095-0.195c0.789-0.551,1.354-1.454,1.717-2.685
				c0.015-0.05,0.072-0.083,0.087-0.133c0.039-0.133,0.108-0.305,0.089-0.398c-0.03-0.144-0.001-0.411,0.104-0.52
				c0.02-0.022,0.036-0.08,0.043-0.122c0.018-0.111,0.029-0.222,0.045-0.353c-0.031,0.005-0.062,0.01-0.101,0.016
				c0.008-0.161,0.015-0.324,0.023-0.493c0.034-0.006,0.062-0.012,0.099-0.019c0.002-0.153,0.003-0.299,0.005-0.45
				c-0.036,0.02-0.069,0.038-0.115,0.063c0.013-0.174-0.078-0.291,0.019-0.503c0.025-0.054-0.029-0.245-0.083-0.29
				c-0.098-0.082-0.143-0.166-0.115-0.38c0.01-0.075,0.011-0.255-0.138-0.22c-0.075,0.017-0.139-0.23-0.197-0.371
				c-0.053-0.13-0.091-0.254-0.228-0.236c-0.081,0.011-0.147-0.098-0.224-0.139c-0.125-0.067-0.037-0.224-0.012-0.355
				c0.048-0.255,0.1-0.51,0.142-0.765c0.025-0.156,0.077-0.264,0.165-0.368c0.093-0.11,0.174-0.25,0.26-0.377
				c-0.029-0.21-0.091-0.237-0.21-0.063c-0.087,0.127-0.184,0.237-0.269,0.366c-0.036,0.055-0.067,0.139-0.079,0.211
				c-0.166,1.03-0.328,2.061-0.492,3.091c-0.016,0.103-0.04,0.206-0.065,0.33c-0.108-0.085-0.208-0.162-0.316-0.246
				c0.026-0.205,0.053-0.418,0.079-0.624c0.07-0.032,0.122-0.056,0.222-0.102c-0.073-0.077-0.112-0.119-0.148-0.157
				c0.016-0.12,0.031-0.239,0.047-0.357c0.06-0.037,0.114-0.07,0.168-0.102c0.003-0.021,0.007-0.043,0.01-0.064
				c-0.046-0.029-0.092-0.059-0.145-0.093c0.02-0.101,0.043-0.211,0.064-0.317c0.056-0.028,0.104-0.052,0.199-0.099
				c-0.068-0.074-0.108-0.118-0.158-0.172c0.014-0.1,0.031-0.218,0.047-0.328c0.067-0.036,0.119-0.063,0.215-0.115
				c-0.069-0.07-0.106-0.108-0.146-0.148c0.035-0.166,0.071-0.34,0.112-0.538c0.215-0.049,0.367-0.255,0.446-0.61
				c0.105-0.469-0.096-0.837-0.398-0.701c-0.097,0.043-0.145,0.022-0.188-0.087c-0.073-0.184-0.156-0.357-0.241-0.526
				c-0.04-0.079-0.061-0.262-0.167-0.13c-0.11,0.137-0.008,0.218,0.026,0.301c0.076,0.189,0.165,0.364,0.239,0.556
				c0.017,0.044,0.012,0.142-0.009,0.198c-0.116,0.313-0.124,0.658,0.016,0.857c0.07,0.1,0.076,0.197,0.043,0.35
				c-0.024,0.11-0.028,0.223-0.041,0.333c-0.055,0.024-0.107,0.047-0.159,0.069c-0.006,0.021-0.011,0.043-0.017,0.064
				c0.044,0.04,0.087,0.08,0.142,0.13c-0.018,0.1-0.039,0.218-0.06,0.333c-0.06,0.031-0.114,0.06-0.168,0.088
				c-0.004,0.023-0.008,0.045-0.012,0.068c0.04,0.031,0.08,0.063,0.128,0.1c-0.014,0.099-0.029,0.209-0.044,0.315
				c-0.059,0.032-0.11,0.059-0.202,0.109c0.067,0.073,0.103,0.112,0.141,0.154c-0.02,0.109-0.041,0.22-0.063,0.342
				c-0.049,0.04-0.102,0.082-0.189,0.153c0.071,0.055,0.112,0.087,0.163,0.127c-0.036,0.168-0.073,0.341-0.113,0.526
				c-0.11-0.012-0.21-0.023-0.314-0.034c0.075-0.434,0.155-0.856,0.22-1.278c0.107-0.687,0.205-1.374,0.304-2.061
				c0.007-0.051,0.006-0.115-0.01-0.15c-0.173-0.389-0.348-0.772-0.529-1.17c-0.042,0.054-0.082,0.106-0.128,0.165
				c0.152,0.335,0.296,0.67,0.453,0.987c0.064,0.128,0.07,0.257,0.039,0.439c-0.175,1.022-0.342,2.045-0.513,3.074
				c-0.246,0.148-0.478,0.193-0.601-0.194c-0.119,0.229-0.063,0.503-0.248,0.652c-0.173,0.139-0.255-0.087-0.381-0.065
				c-0.032,0.195-0.037,0.394-0.097,0.562c-0.093,0.262-0.226,0.089-0.322,0.124c-0.015,0.223,0.013,0.46-0.054,0.634
				c-0.063,0.161-0.226,0.254-0.334,0.367c0.056,0.143,0.164,0.277,0.167,0.455c0.004,0.289-0.23,0.22-0.335,0.46
				c0.28,0.036,0.307,0.365,0.343,0.736c0.083,0.854,0.449,1.285,0.981,1.392c0.215,0.043,0.449-0.001,0.682-0.005
				c-0.034,0.177-0.007,0.374-0.159,0.545c-0.091,0.103-0.11,0.294-0.031,0.369c0.063,0.059,0.167,0.03,0.252,0.041
				c0.025-0.142,0.061-0.285,0.071-0.423c0.006-0.091-0.047-0.172-0.037-0.261c0.047-0.407,0.275-0.636,0.556-0.573
				c0.084-0.387,0.287-0.624,0.677-0.78c-0.015-0.174-0.183-0.298-0.03-0.52c0.095-0.137,0.225-0.21,0.343-0.315
				c-0.022-0.178-0.2-0.214-0.143-0.5c0.058-0.288,0.241-0.277,0.328-0.437c-0.074-0.142-0.207-0.263-0.205-0.432
				c0.002-0.179,0.131-0.404,0.209-0.621c-0.075-0.092-0.289,0.108-0.306-0.155c-0.012-0.178,0.044-0.393,0.072-0.608
				c-0.085,0.038-0.186,0.084-0.288,0.13c-0.026-0.002-0.052-0.005-0.078-0.008c0.113-0.645,0.227-1.289,0.346-1.965
				c0.304,0.171,0.516,0.439,0.629,0.856c0.155,0.576,0.233,1.209,0.222,1.896c-0.009,0.567-0.109,1.133-0.313,1.679
				c-0.364,0.974-0.874,1.693-1.513,2.151c-0.132,0.095-0.182,0.199-0.197,0.403c-0.055,0.726-0.123,1.456-0.181,2.183
				c-0.026,0.334-0.087,0.606-0.315,0.832c-0.208,0.205-0.393,0.492-0.604,0.765c0.048-0.189,0.092-0.364,0.137-0.544
				c-0.172,0.008-0.275,0.013-0.377,0.018c-0.002-0.022-0.005-0.043-0.007-0.065c0.171-0.22,0.335-0.458,0.514-0.656
				c0.191-0.212,0.283-0.441,0.275-0.768c-0.006-0.258,0.084-0.606,0.015-0.775c-0.065-0.159-0.29-0.112-0.428-0.198
				c-0.194-0.121-0.359-0.035-0.548,0.239c-0.178,0.259-0.378,0.478-0.571,0.706c-0.038,0.046-0.104,0.09-0.136,0.073
				c-0.275-0.142-0.545-0.299-0.816-0.452c-0.038-0.021-0.074-0.046-0.127-0.08c0.178-0.23,0.341-0.44,0.529-0.682
				c-0.234-0.122-0.445-0.233-0.647-0.338c-0.01-0.11-0.018-0.207-0.032-0.371c-0.071,0.139-0.11,0.215-0.152,0.298
				c-0.116-0.018-0.239-0.068-0.368-0.044c-0.062,0.011-0.136,0.163-0.211,0.26c0.039,0.084,0.071,0.155,0.11,0.241
				c0.13-0.229,0.242-0.171,0.361-0.117c0.168,0.076,0.342,0.132,0.535,0.205c-0.165,0.213-0.319,0.411-0.491,0.633
				c0.055,0.044,0.088,0.077,0.124,0.098c0.385,0.227,0.771,0.448,1.154,0.68c0.075,0.045,0.131,0.022,0.205-0.075
				c0.23-0.301,0.465-0.59,0.695-0.891c0.097-0.128,0.17-0.128,0.276-0.106c0.3,0.061,0.377,0.336,0.279,0.809
				c-0.023,0.114-0.066,0.254-0.124,0.33c-0.476,0.627-0.957,1.242-1.447,1.873c0.039,0.087,0.071,0.157,0.115,0.253
				c0.216-0.279,0.437-0.563,0.657-0.847c0.021,0.008,0.043,0.017,0.064,0.025c-0.051,0.166-0.103,0.331-0.154,0.497
				c0.016,0.018,0.032,0.036,0.048,0.054c0.118-0.029,0.235-0.058,0.353-0.087c-0.002,0.035-0.004,0.07-0.006,0.105
				C36.966,36.701,36.742,36.989,36.509,37.295z M39.268,23.292c-0.071-0.161,0.003-0.506,0.149-0.691
				c0.099-0.125,0.305-0.111,0.362,0.026c0.087,0.209,0.048,0.47-0.098,0.657C39.515,23.496,39.36,23.499,39.268,23.292z
				 M39.363,28.255c0.001,0.099,0.025,0.188,0.036,0.283c0.109,0.893-0.095,1.645-0.659,2.368c-0.345,0.411-0.734,0.805-1.146,0.67
				c-0.252-0.082-0.487-0.252-0.703-0.441c-0.24-0.21-0.339-0.606-0.315-1.087c0.045-0.912,0.351-1.716,0.779-2.457
				c0.023-0.039,0.052-0.069,0.08-0.098c0.449-0.471,0.876-0.466,1.291-0.336C39.099,27.274,39.359,27.577,39.363,28.255z
				 M37.273,36.218c-0.106,0.001-0.197,0.003-0.304,0.004c0.034-0.189,0.061-0.331,0.083-0.452c0.102-0.013,0.184-0.023,0.267-0.034
				C37.304,35.892,37.291,36.033,37.273,36.218z"/>
			<path class="st4" d="M38.14,28.696c-0.072,0.083-0.201,0.223-0.221,0.195c-0.081-0.112-0.151-0.263-0.182-0.433
				c-0.023-0.126,0.019-0.304,0.039-0.535c-0.182,0.235-0.325,0.419-0.507,0.654c0.107,0.033,0.195,0.069,0.287,0.085
				c0.09,0.015,0.249,0.286,0.229,0.429c-0.007,0.046-0.04,0.1-0.068,0.137c-0.143,0.188-0.289,0.369-0.431,0.558
				c-0.035,0.047-0.087,0.137-0.082,0.173c0.008,0.057,0.052,0.108,0.091,0.121c0.115,0.037,0.235,0.055,0.353,0.077
				c0.165,0.031,0.328,0.05,0.431,0.27c0.044,0.095,0.146,0.134,0.233,0.151c0.122,0.024,0.241-0.076,0.335-0.256
				c0.088-0.17,0.12-0.383,0.05-0.488c-0.178-0.266-0.077-0.66-0.072-1.01c0.002-0.139,0.024-0.286,0.031-0.427
				c0.011-0.242-0.035-0.282-0.174-0.129C38.363,28.398,38.257,28.562,38.14,28.696z M37.834,29.312
				c0.038,0.242,0.072,0.458,0.106,0.675c-0.012,0.019-0.024,0.037-0.036,0.055c-0.153-0.067-0.306-0.134-0.474-0.208
				C37.573,29.65,37.698,29.489,37.834,29.312z M38.391,29.625c0.016,0.014,0.029,0.076,0.023,0.086
				c-0.059,0.099-0.116,0.211-0.185,0.276c-0.033,0.031-0.117-0.006-0.133-0.058c-0.056-0.18-0.092-0.38-0.136-0.573
				c0.017-0.024,0.033-0.047,0.05-0.071C38.137,29.397,38.265,29.508,38.391,29.625z M38.544,28.436
				c-0.036,0.346-0.066,0.626-0.101,0.956c-0.152-0.122-0.276-0.222-0.429-0.344C38.203,28.829,38.353,28.657,38.544,28.436z"/>
			<path class="st4" d="M38.566,27.782c-0.103-0.039-0.181-0.068-0.262-0.099c0.034-0.098,0.061-0.179,0.089-0.26
				c-0.012-0.008-0.023-0.017-0.035-0.026c-0.101,0.131-0.203,0.262-0.327,0.422c0.092,0.035,0.169,0.065,0.261,0.1
				c-0.022,0.041-0.041,0.069-0.051,0.1c-0.016,0.052-0.027,0.106-0.04,0.159c0.032-0.014,0.068-0.016,0.093-0.046
				C38.378,28.033,38.458,27.924,38.566,27.782z"/>
			<path class="st4" d="M39.576,26.948c0.014-0.003,0.028-0.005,0.042-0.011c0.036-0.015,0.071-0.034,0.123-0.059
				c0.019-0.107,0.036-0.202,0.054-0.303C39.586,26.66,39.586,26.66,39.576,26.948z"/>
			<path class="st4" d="M37.834,35.309c0.023-0.089,0.042-0.164,0.072-0.284c-0.067,0.021-0.123,0.038-0.201,0.062
				c-0.005,0.032-0.016,0.109-0.03,0.207C37.735,35.3,37.78,35.304,37.834,35.309z"/>
			<path class="st4" d="M36.633,36.66c-0.056-0.006-0.106-0.011-0.185-0.019c-0.015,0.117-0.026,0.202-0.038,0.298
				c0.062-0.004,0.115-0.007,0.175-0.011C36.601,36.84,36.615,36.762,36.633,36.66z"/>
			<path class="st4" d="M39.986,26.51c-0.006,0.095-0.01,0.165-0.014,0.234c0.163-0.03,0.163-0.03,0.204-0.317
				C40.111,26.455,40.05,26.482,39.986,26.51z"/>
			<path class="st4" d="M40.329,28.921c-0.018-0.029-0.028-0.051-0.041-0.068c-0.023-0.03-0.049-0.056-0.077-0.089
				c-0.048,0.061-0.094,0.12-0.141,0.181C40.136,29.103,40.212,29.124,40.329,28.921z"/>
			<path class="st4" d="M39.723,26.222c0.015,0.005,0.03,0.009,0.045,0.014c0.047-0.127,0.094-0.254,0.141-0.381
				c-0.015-0.013-0.031-0.025-0.046-0.038c-0.048,0.038-0.096,0.076-0.161,0.127C39.71,26.038,39.717,26.13,39.723,26.222z"/>
			<path class="st4" d="M37.451,30.64c-0.039,0.048-0.045,0.17-0.081,0.326c0.101-0.031,0.183-0.021,0.209-0.072
				c0.035-0.07,0.048-0.207,0.029-0.275C37.598,30.581,37.489,30.591,37.451,30.64z"/>
			<path class="st4" d="M40.166,32.788c0.003,0.208,0.091,0.276,0.201,0.15c-0.032-0.089-0.055-0.172-0.089-0.24
				c-0.015-0.029-0.053-0.026-0.081-0.038C40.186,32.703,40.166,32.75,40.166,32.788z"/>
			<path class="st4" d="M41.163,28.534c0.048,0.205,0.167,0.239,0.272,0.189c0.161-0.076,0.315-0.183,0.459-0.082
				c0.013,0.009,0.038-0.015,0.059-0.025c-0.06-0.231-0.161-0.278-0.313-0.208c-0.115,0.053-0.232,0.058-0.348,0.086
				C41.254,28.503,41.215,28.518,41.163,28.534z"/>
			<path class="st4" d="M40.768,31.936c0.04,0.087,0.072,0.187,0.123,0.254c0.017,0.022,0.081-0.038,0.124-0.061
				c0.004-0.029,0.009-0.059,0.013-0.088c-0.069-0.064-0.139-0.128-0.208-0.192C40.803,31.878,40.785,31.907,40.768,31.936z"/>
			<path class="st4" d="M41.858,27.518c0.083,0.16,0.227,0.14,0.43-0.046C42.259,27.333,42.025,27.353,41.858,27.518z"/>
			<path class="st4" d="M39.894,31.939c0.107,0.134,0.233,0.237,0.366,0.366c0.048-0.211,0.021-0.355-0.07-0.438
				c-0.083-0.075-0.177-0.125-0.301-0.21C39.889,31.77,39.865,31.903,39.894,31.939z"/>
			<path class="st4" d="M41.262,30.181c0.206,0.037,0.31,0.239,0.416,0.462c0.041,0.086,0.184,0.037,0.281,0.049
				c0.006-0.022,0.012-0.043,0.018-0.064c-0.02-0.032-0.034-0.087-0.06-0.094c-0.147-0.038-0.204-0.218-0.282-0.378
				C41.552,29.985,41.411,30.055,41.262,30.181z"/>
			<path class="st4" d="M40.875,29.507c-0.032,0.219,0.046,0.315,0.128,0.34c0.079,0.025,0.193,0.032,0.283-0.18
				C41.148,29.613,41.016,29.562,40.875,29.507z"/>
			<path class="st4" d="M40.742,31.199c0.142-0.051,0.25-0.04,0.32,0.144c0.025,0.067,0.094,0.082,0.154,0.128
				c0.008-0.405-0.12-0.594-0.346-0.523c-0.107,0.034-0.19,0.023-0.258-0.09c-0.037-0.062-0.108-0.072-0.176-0.113
				C40.43,31.067,40.565,31.262,40.742,31.199z"/>
			<path class="st4" d="M41.893,29.538c0.032,0.028,0.048,0.059,0.07,0.059c0.153,0.001,0.29,0.014,0.287,0.33
				c-0.001,0.088,0.265,0.033,0.39-0.081c-0.015-0.025-0.023-0.06-0.04-0.065c-0.138-0.045-0.282-0.061-0.273-0.375
				C42.33,29.311,42.028,29.394,41.893,29.538z"/>
			<path class="st4" d="M41.568,27.101c0.053-0.083,0.115-0.151,0.182-0.237c-0.043-0.085-0.102-0.157-0.175-0.018
				c-0.093,0.175-0.185,0.231-0.3,0.223c-0.024-0.002-0.056,0.041-0.1,0.076C41.293,27.312,41.453,27.28,41.568,27.101z"/>
			<path class="st4" d="M40.39,24.394c0.074-0.17,0.15-0.321,0.204-0.483c0.026-0.077,0.008-0.175-0.018-0.26
				C40.545,23.908,40.226,24.098,40.39,24.394z"/>
			<path class="st4" d="M38.926,34.787c0.114-0.14,0.155-0.553,0.081-0.711C38.886,34.24,38.853,34.517,38.926,34.787z"/>
			<path class="st4" d="M39.111,32.458c0.004,0.31,0.008,0.599,0.012,0.884C39.332,33.115,39.327,32.617,39.111,32.458z"/>
			<path class="st4" d="M39.574,33.289c0.017,0.182,0.072,0.342,0.113,0.526c0.093-0.06,0.131-0.221,0.095-0.333
				c-0.067-0.208-0.108-0.419-0.082-0.682c0.003-0.031-0.019-0.058-0.039-0.114C39.541,32.91,39.558,33.111,39.574,33.289z"/>
		</g>
		<g>
			<path class="st4" d="M30.358,34.585c-0.063-0.005-0.099,0.053-0.181,0.105c0.134,0.071,0.232,0.144,0.275,0.139
				c0.058-0.007,0.106-0.066,0.097-0.117C30.543,34.68,30.407,34.588,30.358,34.585z"/>
			<path class="st4" d="M27.673,35.136c0.189,0.006,0.276-0.098,0.209-0.248c-0.069-0.154-0.28-0.287-0.475-0.298
				c-0.2-0.012-0.288,0.097-0.211,0.258C27.273,35.009,27.473,35.13,27.673,35.136z"/>
			<path class="st4" d="M31.863,36.043c0.027-0.097,0.072-0.148,0.045-0.199c-0.024-0.044-0.161-0.13-0.194-0.125
				c-0.059,0.008-0.116,0.066-0.101,0.114C31.627,35.879,31.735,35.939,31.863,36.043z"/>
			<path class="st4" d="M27.215,31.137c-0.091-0.004-0.186,0.025-0.228,0.072c-0.268,0.303-0.525,0.612-0.775,0.926
				c-0.029,0.037-0.015,0.11,0.009,0.17c0.068,0.169,0.151,0.34,0.235,0.524c-0.8-0.053-1.579-0.106-2.378-0.159
				c0.052,0.116,0.099,0.218,0.157,0.346c0.781,0.053,1.564,0.105,2.355,0.158c0.086,0.19,0.149,0.354,0.24,0.518
				c0.044,0.08,0.126,0.179,0.218,0.238c0.564,0.364,1.134,0.721,1.706,1.075c0.069,0.043,0.17,0.075,0.242,0.081
				c0.587,0.046,1.172,0.087,1.754,0.121c0.076,0.004,0.154-0.024,0.19-0.064c0.275-0.304,0.544-0.613,0.804-0.926
				c0.034-0.041,0.033-0.115,0.009-0.178c-0.065-0.169-0.151-0.341-0.24-0.537c0.998,0.066,1.959,0.131,2.936,0.196
				c-0.053-0.116-0.099-0.218-0.154-0.339c-0.974-0.065-1.941-0.13-2.94-0.197c-0.085-0.187-0.153-0.356-0.244-0.526
				c-0.037-0.069-0.112-0.154-0.192-0.206c-0.541-0.352-1.09-0.695-1.631-1.047c-0.144-0.093-0.266-0.143-0.418-0.151
				C28.32,31.204,27.762,31.162,27.215,31.137z M27.296,31.316c0.203-0.063,0.538,0.016,0.816,0.037
				c0.321,0.024,0.649-0.015,0.966,0.096c0.317,0.112,0.615,0.396,0.94,0.569c0.634,0.337,1.011,0.732,1.127,1.219
				c0.006,0.023,0.021,0.047,0.032,0.071c0.001,0,0.002,0,0.003,0c0.094,0.207,0.199,0.416,0.277,0.621
				c0.03,0.079,0.032,0.171-0.009,0.224c-0.208,0.27-0.426,0.534-0.659,0.787c-0.051,0.056-0.166,0.087-0.274,0.082
				c-0.492-0.023-0.99-0.058-1.49-0.1c-0.091-0.007-0.217-0.049-0.303-0.104c-0.509-0.326-1.012-0.658-1.513-0.993
				c-0.067-0.045-0.132-0.118-0.16-0.176c-0.203-0.421-0.402-0.842-0.587-1.262c-0.031-0.07-0.014-0.151,0.025-0.2
				c0.13-0.16,0.281-0.306,0.42-0.46C27.034,31.586,27.097,31.378,27.296,31.316z"/>
			<path class="st4" d="M27.558,31.494c-0.049-0.011-0.084,0.052-0.157,0.104c0.125,0.066,0.219,0.138,0.262,0.134
				c0.059-0.005,0.079-0.068,0.116-0.106C27.704,31.58,27.625,31.509,27.558,31.494z"/>
			<path class="st4" d="M29.606,34.559c-0.07-0.005-0.113,0.052-0.217,0.109c0.157,0.071,0.254,0.136,0.311,0.134
				c0.06-0.003,0.082-0.069,0.12-0.107C29.747,34.647,29.659,34.564,29.606,34.559z"/>
			<path class="st4" d="M28.929,34.527c-0.065-0.007-0.105,0.048-0.201,0.101c0.151,0.074,0.242,0.139,0.305,0.143
				c0.05,0.003,0.102-0.067,0.083-0.11C29.098,34.617,28.98,34.532,28.929,34.527z"/>
			<path class="st4" d="M31.566,35.351c0.291,0.041,0.646,0.09,1.037,0.145c-0.172-0.293-0.332-0.565-0.493-0.84
				C31.921,34.899,31.74,35.13,31.566,35.351z"/>
			<path class="st4" d="M27.443,32.182c-0.131,0.023-0.16,0.113-0.062,0.236c0.111,0.138,0.247,0.182,0.408,0.163
				c0.086-0.011,0.209,0.021,0.317,0.052c0.146,0.042,0.293,0.101,0.445,0.154c0.044,0.127,0.086,0.248,0.137,0.395
				c-0.281-0.019-0.568-0.035-0.859-0.061c-0.038-0.003-0.097-0.052-0.145-0.081c-0.164-0.097-0.299-0.114-0.368-0.024
				c-0.063,0.082-0.011,0.192,0.14,0.285c0.15,0.092,0.263,0.085,0.354,0.02c0.054-0.039,0.13-0.072,0.215-0.071
				c0.205,0.001,0.419,0.016,0.635,0.043c0.07,0.008,0.181,0.063,0.234,0.114c0.038,0.036,0.032,0.113,0.007,0.15
				c-0.044,0.066-0.118,0.113-0.177,0.17c-0.066,0.063-0.126,0.119-0.293,0.087c-0.159-0.03-0.233,0.055-0.16,0.175
				c0.045,0.074,0.186,0.178,0.286,0.211c0.16,0.054,0.273-0.011,0.22-0.129c-0.069-0.154,0.028-0.205,0.103-0.277
				c0.071-0.067,0.145-0.131,0.226-0.204c0.663,0.369,1.134,0.433,1.431,0.199c0.259-0.204,0.203-0.584-0.166-0.958
				c0.13,0.36,0.055,0.591-0.368,0.61c-0.283,0.013-0.631-0.146-0.861-0.378c-0.266-0.268-0.289-0.472-0.081-0.737
				c-0.258,0.01-0.366,0.086-0.501,0.358c-0.174-0.06-0.353-0.114-0.529-0.185c-0.071-0.029-0.154-0.088-0.201-0.141
				C27.715,32.229,27.586,32.158,27.443,32.182z"/>
			<path class="st4" d="M27.498,35.76c0.196-0.04,0.357-0.073,0.55-0.113c-0.195-0.095-0.356-0.174-0.546-0.268
				C27.501,35.512,27.5,35.618,27.498,35.76z"/>
			<path class="st4" d="M32.824,35.052c0.149,0.082,0.251,0.164,0.313,0.166c0.065,0.002,0.146-0.076,0.123-0.112
				c-0.04-0.062-0.159-0.148-0.239-0.169C32.963,34.922,32.915,34.994,32.824,35.052z"/>
			<path class="st4" d="M33.852,36.197c0.114-0.11,0.216-0.208,0.341-0.328c-0.32-0.064-0.585-0.118-0.892-0.18
				C33.502,35.873,33.669,36.027,33.852,36.197z"/>
			<path class="st4" d="M33.901,36.793c-0.04-0.135-0.082-0.279-0.138-0.469c-0.134,0.075-0.228,0.128-0.341,0.192
				C33.586,36.612,33.733,36.697,33.901,36.793z"/>
			<path class="st4" d="M33.706,33.922c0.206,0.168,0.373,0.304,0.575,0.469c-0.016-0.153-0.029-0.27-0.044-0.413
				C34.064,33.96,33.914,33.944,33.706,33.922z"/>
			<path class="st4" d="M32.843,34.447c0.01,0.041,0.105,0.098,0.21,0.19c0.041-0.078,0.1-0.121,0.076-0.163
				c-0.026-0.047-0.127-0.093-0.196-0.139C32.899,34.371,32.832,34.401,32.843,34.447z"/>
			<path class="st4" d="M34.48,34.588c0.048,0.218,0.088,0.4,0.136,0.62c0.169-0.08,0.296-0.14,0.443-0.209
				C34.875,34.868,34.704,34.746,34.48,34.588z"/>
			<path class="st4" d="M34.448,35.648c-0.047-0.17-0.088-0.318-0.138-0.498c-0.129,0.072-0.232,0.129-0.352,0.196
				C34.123,35.448,34.264,35.535,34.448,35.648z"/>
			<path class="st4" d="M33.466,34.669c0.174,0.095,0.293,0.188,0.367,0.191c0.076,0.003,0.154-0.07,0.148-0.133
				c-0.009-0.104-0.152-0.194-0.277-0.194C33.621,34.533,33.576,34.602,33.466,34.669z"/>
			<path class="st4" d="M26.109,33.812c0.14-0.025,0.257-0.045,0.43-0.076c-0.229-0.112-0.4-0.195-0.596-0.291
				C26.001,33.573,26.051,33.683,26.109,33.812z"/>
			<path class="st4" d="M24.648,32.131c-0.381-0.026-0.757-0.051-1.149-0.077c0.046,0.101,0.093,0.204,0.143,0.314
				c0.387,0.026,0.762,0.051,1.149,0.077C24.741,32.337,24.697,32.239,24.648,32.131z"/>
			<path class="st4" d="M22.267,29.129c0.111,0.015,0.22,0.03,0.359,0.049c-0.051-0.1-0.097-0.191-0.152-0.298
				c-0.134-0.021-0.239-0.037-0.376-0.058C22.157,28.927,22.207,29.019,22.267,29.129z"/>
			<path class="st4" d="M25.906,34.71c0.185-0.121,0.336-0.22,0.518-0.339c-0.262-0.072-0.477-0.131-0.711-0.196
				C25.778,34.353,25.834,34.51,25.906,34.71z"/>
			<path class="st4" d="M22.65,30.309c0.135,0.052,0.223,0.105,0.277,0.102c0.046-0.003,0.087-0.08,0.064-0.107
				c-0.042-0.048-0.146-0.112-0.202-0.117C22.738,30.183,22.715,30.247,22.65,30.309z"/>
			<path class="st4" d="M23.968,31.692c-0.063-0.039-0.134-0.103-0.187-0.111c-0.051-0.008-0.084,0.041-0.152,0.081
				c0.106,0.06,0.192,0.128,0.23,0.125C23.913,31.783,23.933,31.726,23.968,31.692z"/>
			<path class="st4" d="M25.082,34.052c-0.057-0.002-0.088,0.05-0.165,0.102c0.134,0.062,0.227,0.125,0.275,0.121
				c0.049-0.004,0.081-0.07,0.069-0.118C25.254,34.13,25.128,34.054,25.082,34.052z"/>
			<path class="st4" d="M33.283,31.774c-0.023,0.187-0.041,0.339-0.063,0.52c0.191-0.03,0.347-0.055,0.519-0.082
				C33.588,32.067,33.458,31.942,33.283,31.774z"/>
			<path class="st4" d="M23.931,33.619c0.525,0.036,1.053,0.071,1.593,0.107c-0.051-0.113-0.093-0.206-0.14-0.309
				c-0.534-0.036-1.056-0.071-1.593-0.107C23.836,33.409,23.88,33.507,23.931,33.619z"/>
			<path class="st4" d="M26.751,35.039c0.034-0.093,0.088-0.144,0.059-0.191c-0.03-0.05-0.141-0.095-0.217-0.142
				c-0.03,0.04-0.099,0.075-0.081,0.119C26.533,34.876,26.63,34.935,26.751,35.039z"/>
			<path class="st4" d="M24.098,29.24c0.039-0.078,0.096-0.122,0.072-0.164c-0.026-0.045-0.131-0.107-0.197-0.125
				c-0.034-0.01-0.097,0.055-0.082,0.094C23.909,29.092,23.995,29.146,24.098,29.24z"/>
			<path class="st4" d="M24.495,30.953c0.188,0.078,0.338,0.14,0.543,0.224c-0.087-0.13-0.149-0.224-0.223-0.336
				C24.705,30.88,24.613,30.912,24.495,30.953z"/>
			<path class="st4" d="M26.391,30.958c-0.339-0.054-0.708-0.112-1.11-0.176c0.189,0.302,0.369,0.587,0.553,0.88
				C26.025,31.42,26.207,31.191,26.391,30.958z"/>
			<path class="st4" d="M26.332,30.257c-0.02-0.051-0.167-0.15-0.241-0.164c-0.071-0.013-0.12,0.057-0.221,0.115
				c0.157,0.086,0.269,0.174,0.335,0.176C26.275,30.386,26.351,30.31,26.332,30.257z"/>
			<path class="st4" d="M22.425,29.62c0.436,0.072,0.808,0.134,1.223,0.203c-0.191-0.32-0.373-0.624-0.566-0.947
				c-0.215,0.156-0.215,0.156-0.03,0.582c-0.148-0.01-0.313-0.042-0.439-0.022C22.53,29.45,22.504,29.537,22.425,29.62z"/>
			<path class="st4" d="M28.454,31.645c-0.01-0.037-0.118-0.093-0.233-0.178c-0.029,0.08-0.08,0.13-0.052,0.169
				c0.038,0.053,0.138,0.098,0.212,0.146C28.409,31.737,28.468,31.698,28.454,31.645z"/>
			<path class="st4" d="M25.632,29.734c-0.098-0.215-0.189-0.426-0.295-0.638c-0.017-0.035-0.103-0.071-0.157-0.107
				c-0.011,0.037-0.045,0.072-0.03,0.113c0.053,0.139,0.124,0.28,0.197,0.442c-0.251-0.061-0.516-0.125-0.817-0.198
				c0.118,0.224,0.228,0.432,0.348,0.66c-0.288-0.06-0.553-0.116-0.834-0.175c0.106,0.234,0.204,0.45,0.31,0.683
				c-0.296-0.075-0.579-0.146-0.904-0.228c0.126,0.237,0.241,0.453,0.369,0.694c-0.273-0.063-0.537-0.125-0.801-0.186
				c0.082,0.319,0.317,0.641,0.475,0.652c-0.066-0.145-0.132-0.29-0.209-0.459c0.266,0.058,0.522,0.113,0.806,0.175
				c-0.095-0.21-0.183-0.403-0.282-0.621c0.271,0.05,0.512,0.094,0.781,0.143c-0.098-0.215-0.193-0.424-0.301-0.663
				c0.303,0.058,0.574,0.111,0.86,0.166c-0.09-0.198-0.179-0.394-0.28-0.617C25.118,29.623,25.373,29.678,25.632,29.734z"/>
			<path class="st4" d="M29.2,31.684c-0.04-0.051-0.146-0.116-0.213-0.129c-0.05-0.01-0.082,0.053-0.16,0.114
				c0.143,0.064,0.236,0.125,0.296,0.125C29.172,31.794,29.224,31.714,29.2,31.684z"/>
			<path class="st4" d="M25.682,32.248c-0.227-0.058-0.385-0.098-0.567-0.145c0.053,0.136,0.098,0.25,0.161,0.41
				C25.42,32.419,25.536,32.343,25.682,32.248z"/>
			<path class="st4" d="M24.898,31.603c-0.048-0.08-0.179-0.157-0.273-0.235c-0.035-0.003-0.069-0.006-0.104-0.009
				c-0.031,0.067-0.098,0.127-0.082,0.204c0.024,0.114,0.166,0.194,0.307,0.207C24.891,31.784,24.963,31.713,24.898,31.603z"/>
			<path class="st4" d="M29.161,30.951c0.059-0.003,0.077-0.073,0.113-0.114c-0.076-0.048-0.16-0.126-0.224-0.136
				c-0.06-0.01-0.099,0.051-0.189,0.107C29.008,30.881,29.107,30.953,29.161,30.951z"/>
			<path class="st4" d="M33.815,32.845c-0.02-0.055-0.146-0.123-0.283-0.23c-0.044,0.098-0.118,0.161-0.083,0.209
				c0.048,0.066,0.179,0.119,0.275,0.178C33.758,32.951,33.837,32.904,33.815,32.845z"/>
			<path class="st4" d="M33.675,37.107c0.156,0.206,0.322,0.255,0.771,0.226c-0.123-0.264-0.033-0.398,0.34-0.326
				c-0.026-0.156-0.049-0.295-0.073-0.442c0.361,0.02,0.361,0.02,0.369-0.279c0.011-0.004,0.021-0.011,0.034-0.01
				c0.357,0.034,0.354,0.034,0.32-0.231c-0.007-0.056,0.019-0.103,0.035-0.175c-0.082-0.022-0.151-0.041-0.24-0.065
				c0.019,0.121,0.037,0.225,0.055,0.337c-0.157-0.01-0.308-0.02-0.47-0.031c0,0.043-0.013,0.083,0.002,0.126
				c0.048,0.137-0.028,0.174-0.194,0.14c-0.165-0.034-0.217,0.011-0.168,0.139c0.072,0.186,0.044,0.305-0.249,0.251
				c-0.043-0.008-0.108,0.051-0.093,0.085c0.103,0.237-0.025,0.291-0.299,0.245C33.766,37.088,33.723,37.101,33.675,37.107z"/>
			<path class="st4" d="M30.849,31.54c-0.071-0.16-0.264-0.287-0.467-0.306c-0.208-0.019-0.315,0.092-0.242,0.255
				c0.073,0.164,0.285,0.297,0.492,0.307C30.832,31.806,30.921,31.701,30.849,31.54z"/>
			<path class="st4" d="M32.952,35.976c-0.15-0.079-0.248-0.155-0.317-0.161c-0.056-0.005-0.128,0.076-0.104,0.113
				c0.037,0.056,0.153,0.134,0.228,0.153C32.816,36.095,32.861,36.03,32.952,35.976z"/>
			<path class="st4" d="M32.093,33.703c0.063,0.159,0.116,0.294,0.187,0.474c0.163-0.105,0.297-0.193,0.456-0.296
				C32.507,33.817,32.32,33.766,32.093,33.703z"/>
			<path class="st4" d="M30.826,30.604c-0.088,0.083-0.169,0.159-0.278,0.261c0.258,0.055,0.469,0.099,0.725,0.153
				C31.106,30.864,30.974,30.741,30.826,30.604z"/>
			<path class="st4" d="M30.626,29.99c-0.062-0.004-0.095,0.055-0.182,0.115c0.151,0.07,0.254,0.141,0.303,0.135
				c0.055-0.006,0.094-0.076,0.077-0.128C30.813,30.077,30.678,29.994,30.626,29.99z"/>
			<path class="st4" d="M31.624,29.95c-0.123-0.009-0.252-0.017-0.399-0.027c-0.092-0.118-0.176-0.225-0.268-0.343
				c-0.179-0.012-0.358-0.024-0.549-0.037c0.041,0.097,0.054,0.207,0.219,0.206c0.222-0.001,0.327,0.105,0.419,0.255
				c0.017,0.029,0.042,0.057,0.075,0.101c0.131,0.009,0.26,0.018,0.397,0.027c0.09,0.118,0.169,0.222,0.261,0.343
				c0.123,0.009,0.251,0.017,0.397,0.027c0.092,0.12,0.174,0.228,0.274,0.359c0.15-0.014,0.282-0.027,0.434-0.041
				c0.068,0.093,0.126,0.188,0.205,0.276c0.031,0.034,0.111,0.054,0.168,0.081c-0.006-0.04,0.004-0.082-0.022-0.12
				c-0.085-0.122-0.184-0.242-0.283-0.37c-0.127-0.008-0.257-0.017-0.409-0.027c-0.083-0.105-0.169-0.213-0.254-0.32
				C31.863,30.27,31.863,30.27,31.624,29.95z"/>
			<path class="st4" d="M32.95,30.387c-0.054-0.178-0.072-0.336-0.349-0.474c-0.066-0.033-0.131-0.111-0.164-0.169
				c-0.064-0.11-0.105-0.222-0.161-0.345c-0.378-0.025-0.733-0.049-1.134-0.076c0.167,0.098,0.323,0.169,0.438,0.264
				c0.109,0.09,0.175,0.206,0.277,0.333C32.236,29.868,32.56,30.205,32.95,30.387z"/>
			<path class="st4" d="M35.005,37.788c0.235,0.057,0.444,0.103,0.562-0.02c0.116-0.12,0.234-0.242,0.387-0.334
				c0.183-0.109,0.123-0.274-0.054-0.539c-0.092,0.31-0.432,0.281-0.826,0.228C35.28,37.433,35.303,37.671,35.005,37.788z"/>
			<path class="st4" d="M27.411,36.072c0.175-0.001,0.291,0.058,0.369,0.214c0.155,0.309,0.352,0.42,0.712,0.409
				c0.19-0.006,0.301,0.066,0.364,0.233c0.033,0.087,0.062,0.176,0.112,0.264c0.019,0.033,0.1,0.086,0.14,0.092
				c0.037,0.005,0.082-0.033,0.081-0.065c-0.007-0.361-0.351-0.642-0.831-0.679c-0.153-0.011-0.247-0.07-0.321-0.194
				c-0.181-0.306-0.348-0.406-0.713-0.425c-0.214-0.011-0.354-0.093-0.464-0.266c-0.184-0.29-0.345-0.383-0.708-0.412
				c-0.184-0.015-0.288-0.092-0.374-0.235c-0.154-0.257-0.379-0.38-0.678-0.385c-0.244-0.005-0.357-0.073-0.443-0.273
				c-0.03-0.069-0.052-0.138-0.09-0.243c-0.069,0.019-0.145,0.017-0.15,0.044c-0.059,0.292,0.319,0.611,0.729,0.62
				c0.235,0.005,0.288,0.038,0.381,0.235c0.129,0.273,0.397,0.428,0.706,0.406c0.22-0.016,0.333,0.045,0.442,0.238
				C26.84,35.943,27.063,36.072,27.411,36.072z"/>
			<path class="st4" d="M28.211,35.379c0.179,0.105,0.307,0.18,0.466,0.273c0.027-0.107,0.052-0.201,0.087-0.335
				C28.563,35.34,28.406,35.358,28.211,35.379z"/>
			<path class="st4" d="M29.241,35.875c-0.134,0.064-0.234,0.111-0.351,0.167c0.142,0.1,0.273,0.193,0.457,0.323
				C29.31,36.193,29.281,36.057,29.241,35.875z"/>
			<path class="st4" d="M25.252,36.532c0.033,0.074,0.061,0.135,0.095,0.21c0.45,0.054,0.883,0.221,1.318,0.482
				c0.091,0.055,0.257,0.046,0.36,0.03c0.105-0.016,0.165-0.089,0.263-0.118c0.104-0.031,0.239-0.029,0.343-0.06
				c0.067-0.02,0.14-0.062,0.139-0.116c-0.001-0.047-0.097-0.155-0.162-0.181c-0.078-0.032-0.237-0.033-0.241-0.002
				c-0.03,0.229-0.332,0.231-0.498,0.355c-0.171-0.099-0.336-0.194-0.52-0.3c0.038-0.142,0.068-0.286,0.116-0.421
				c0.012-0.034,0.075-0.048,0.126-0.058c0.147-0.029,0.197-0.109,0.1-0.248c-0.09-0.129-0.234-0.201-0.385-0.188
				c-0.162,0.014-0.169,0.106-0.103,0.245c0.041,0.087,0.05,0.177,0.041,0.254c-0.012,0.113-0.054,0.215-0.085,0.328
				c-0.448-0.149-0.456-0.15-0.567-0.456c-0.051-0.142-0.059-0.278-0.105-0.419c-0.016-0.049-0.079-0.126-0.137-0.155
				c-0.056-0.029-0.16-0.035-0.193-0.012s-0.027,0.095,0,0.146c0.122,0.23,0.259,0.46,0.399,0.705
				C25.421,36.544,25.344,36.539,25.252,36.532z"/>
			<path class="st4" d="M29.367,35.482c0.148,0.106,0.271,0.208,0.408,0.289c0.207,0.123,0.306,0.258,0.376,0.422
				c0.189,0.442,0.398,0.884,0.605,1.341c0.15,0.01,0.265,0.018,0.412,0.028c-0.07-0.153-0.136-0.299-0.202-0.444
				c-0.073-0.16-0.13-0.32-0.221-0.479c-0.226-0.396-0.326-0.75-0.05-0.996c0.011-0.009,0.008-0.029,0.01-0.044
				c0-0.004-0.008-0.011-0.021-0.028C30.262,35.543,29.835,35.514,29.367,35.482z"/>
			<path class="st4" d="M31.205,36.928c-0.057-0.001-0.083,0.059-0.122,0.092c0.073,0.051,0.148,0.124,0.219,0.145
				c0.047,0.014,0.088-0.049,0.165-0.099C31.343,36.999,31.257,36.931,31.205,36.928z"/>
			<path class="st4" d="M31.46,36.781c0.127,0.064,0.236,0.118,0.347,0.174c0.017,0.099,0.034,0.193,0.059,0.334
				c0.228-0.16,0.444-0.072,0.661,0.206c0.025-0.11,0.043-0.188,0.063-0.274c0.128,0.024,0.255,0.047,0.436,0.08
				c-0.294-0.228-0.269-0.359-0.005-0.434c-0.354-0.097-0.481-0.25-0.474-0.493c-0.224,0.128-0.421,0.061-0.619-0.173
				c-0.035,0.088-0.06,0.152-0.089,0.225c-0.127-0.035-0.253-0.07-0.407-0.112c0.083,0.117,0.152,0.215,0.225,0.318
				C31.595,36.679,31.534,36.726,31.46,36.781z"/>
			<path class="st4" d="M33.426,37.337c-0.057-0.01-0.095,0.045-0.176,0.092c0.126,0.068,0.213,0.135,0.267,0.137
				c0.053,0.002,0.113-0.059,0.096-0.099C33.596,37.425,33.483,37.347,33.426,37.337z"/>
			<path class="st4" d="M29.775,36.74c-0.049,0.097-0.123,0.151-0.093,0.207c0.031,0.059,0.16,0.119,0.246,0.179
				c0.046-0.046,0.138-0.083,0.123-0.14C30.038,36.932,29.912,36.857,29.775,36.74z"/>
			<path class="st4" d="M32.963,36.403c-0.053-0.007-0.083,0.052-0.156,0.106c0.135,0.064,0.228,0.129,0.275,0.125
				c0.052-0.005,0.062-0.073,0.09-0.113C33.101,36.479,33.021,36.411,32.963,36.403z"/>
			<path class="st4" d="M26.39,29.866c0.193,0.064,0.338,0.113,0.536,0.179c-0.14-0.174-0.255-0.317-0.392-0.488
				C26.483,29.668,26.442,29.756,26.39,29.866z"/>
			<path class="st4" d="M31.584,31.808c-0.04-0.176-0.071-0.312-0.111-0.487c-0.128,0.061-0.228,0.109-0.349,0.166
				C31.277,31.594,31.408,31.686,31.584,31.808z"/>
			<path class="st4" d="M32.139,32.925c-0.213-0.172-0.384-0.31-0.597-0.482c0.016,0.156,0.027,0.274,0.041,0.413
				C31.764,32.878,31.926,32.899,32.139,32.925z"/>
			<path class="st4" d="M26.297,29.063c-0.004-0.034-0.115-0.096-0.228-0.185c-0.035,0.078-0.09,0.121-0.066,0.165
				c0.027,0.048,0.126,0.095,0.194,0.143C26.234,29.146,26.304,29.115,26.297,29.063z"/>
			<path class="st4" d="M31.726,32.073c-0.066-0.007-0.099,0.065-0.181,0.129c0.151,0.074,0.27,0.158,0.32,0.15
				c0.066-0.01,0.079-0.091,0.115-0.142C31.894,32.161,31.794,32.079,31.726,32.073z"/>
			<path class="st4" d="M32.214,31.672c-0.068,0.007-0.128,0.074-0.117,0.133c0.009,0.043,0.135,0.114,0.268,0.219
				c0.041-0.095,0.105-0.149,0.077-0.207C32.418,31.768,32.257,31.667,32.214,31.672z"/>
			<path class="st4" d="M32.529,31.156c-0.148,0.022-0.278,0.041-0.451,0.067c0.227,0.121,0.413,0.22,0.635,0.339
				C32.645,31.412,32.592,31.296,32.529,31.156z"/>
			<path class="st4" d="M31.788,30.731c-0.071-0.042-0.151-0.111-0.21-0.119c-0.054-0.007-0.084,0.052-0.159,0.108
				c0.135,0.062,0.227,0.125,0.275,0.121C31.747,30.837,31.758,30.771,31.788,30.731z"/>
			<path class="st4" d="M32.602,32.522c-0.002,0.136-0.003,0.245-0.005,0.387c0.197-0.04,0.359-0.072,0.567-0.114
				C32.957,32.694,32.799,32.617,32.602,32.522z"/>
			<path class="st4" d="M28.585,30.88c-0.179-0.135-0.351-0.251-0.499-0.38c-0.103-0.09-0.208-0.198-0.255-0.296
				c-0.199-0.409-0.376-0.818-0.562-1.226c-0.029-0.063-0.058-0.127-0.093-0.205c-0.154-0.011-0.269-0.018-0.412-0.028
				c0.107,0.235,0.211,0.464,0.315,0.693c0.016,0.036,0.031,0.071,0.048,0.107c0.215,0.454,0.509,0.929,0.076,1.212
				c0.025,0.012,0.049,0.024,0.073,0.036C27.7,30.822,28.123,30.85,28.585,30.88z"/>
			<path class="st4" d="M29.58,29.913c-0.328-0.049-0.546-0.182-0.663-0.436c-0.071,0.172-0.112,0.344-0.492,0.213
				c0.261,0.188,0.45,0.367,0.413,0.612c0.113-0.062,0.179-0.098,0.249-0.136c0.126,0.068,0.247,0.134,0.417,0.226
				C29.384,30.166,29.236,29.947,29.58,29.913z"/>
			<path class="st4" d="M30.016,30.808c-0.174-0.048-0.302-0.084-0.46-0.128c0.034,0.108,0.063,0.204,0.107,0.345
				C29.792,30.946,29.892,30.885,30.016,30.808z"/>
			<path class="st4" d="M29.649,29.68c0.062-0.049,0.142-0.113,0.219-0.173c-0.067-0.062-0.174-0.161-0.262-0.242
				c-0.116-0.017-0.249-0.037-0.361-0.054c0.018,0.092,0.042,0.207,0.06,0.296C29.412,29.561,29.535,29.623,29.649,29.68z"/>
			<path class="st4" d="M28.531,29.396c-0.016-0.083-0.034-0.176-0.05-0.26c-0.089-0.023-0.202-0.051-0.321-0.081
				c-0.053,0.029-0.128,0.071-0.188,0.104c0.074,0.081,0.167,0.182,0.263,0.286C28.322,29.431,28.432,29.413,28.531,29.396z"/>
			<path class="st4" d="M28.059,30.299c0.168,0.071,0.306,0.129,0.506,0.214c-0.083-0.129-0.138-0.214-0.205-0.318
				C28.255,30.231,28.17,30.261,28.059,30.299z"/>
			<path class="st4" d="M30.297,30.351c-0.069-0.045-0.146-0.119-0.205-0.129c-0.054-0.01-0.09,0.048-0.169,0.099
				c0.128,0.065,0.217,0.132,0.267,0.131C30.245,30.451,30.264,30.387,30.297,30.351z"/>
			<path class="st4" d="M28.134,29.645c-0.076-0.045-0.159-0.115-0.226-0.127c-0.051-0.01-0.083,0.054-0.158,0.111
				c0.138,0.062,0.231,0.125,0.293,0.126C28.093,29.756,28.104,29.684,28.134,29.645z"/>
		</g>
		<g>
			<path class="st4" d="M26.685,22.114c-0.085,0.047-0.171,0.093-0.307,0.167c-0.092-0.008-0.241-0.021-0.405-0.035
				c-0.065,0.092-0.122,0.172-0.188,0.266c0.16,0.014,0.315,0.069,0.487,0.034c0.307-0.062,0.351,0.241,0.731,0.046
				c0.004-0.003,0.013,0.002,0.02,0.001c0.138-0.025-0.046,0.261,0.236,0.087c0.2-0.124,0.275-0.02,0.408-0.027
				c0.139-0.007,0.262,0.018,0.406,0.031c0.048-0.068,0.089-0.126,0.151-0.213c-0.302-0.027-0.599-0.054-0.899-0.078
				c-0.109-0.008-0.27,0.034-0.243-0.1c0.003-0.012-0.091-0.014-0.144-0.005c-0.092,0.015-0.188,0.043-0.248,0.058
				C26.688,22.241,26.687,22.177,26.685,22.114z"/>
			<path class="st4" d="M29.119,21.001c0.188-0.259,0.129-0.442-0.149-0.467c-0.317-0.028-0.672,0.121-0.839,0.351
				c-0.183,0.252-0.101,0.47,0.189,0.502C28.627,21.421,28.915,21.281,29.119,21.001z M29.006,20.931
				c-0.103,0.137-0.276,0.211-0.452,0.193c-0.188-0.019-0.238-0.12-0.13-0.263c0.101-0.134,0.319-0.231,0.478-0.211
				C29.062,20.67,29.109,20.796,29.006,20.931z"/>
			<path class="st4" d="M27.238,20.681c0.021-0.032-0.005-0.066-0.01-0.099c-0.049,0.026-0.12,0.048-0.144,0.078
				c-0.088,0.109-0.17,0.221-0.234,0.332c-0.021,0.036,0.02,0.073,0.033,0.109c0.03-0.013,0.059-0.026,0.089-0.039
				C27.062,20.935,27.158,20.808,27.238,20.681z"/>
			<path class="st4" d="M27.368,23.167c0.001,0,0.001,0,0.002,0c-0.012,0.016-0.026,0.033-0.035,0.05
				c-0.043,0.077-0.18,0.188-0.018,0.198c0.04,0.003,0.173-0.107,0.235-0.173c0.07-0.074,0.118-0.157,0.154-0.235
				c0.016-0.035-0.021-0.066-0.034-0.099c-0.062,0.03-0.138,0.054-0.18,0.092C27.437,23.05,27.409,23.11,27.368,23.167z"/>
			<path class="st4" d="M30.09,20.36c-0.025-0.041-0.05-0.084-0.065-0.13c-0.058-0.174-0.223-0.249-0.505-0.247
				c-0.254,0.002-0.476-0.051-0.725-0.06c-0.099-0.004-0.238,0.032-0.35,0.078c-0.241,0.099-0.477,0.214-0.712,0.328
				c-0.069,0.033-0.153,0.083-0.185,0.129c-0.319,0.454-0.629,0.909-0.941,1.363c-0.015,0.021-0.024,0.043-0.052,0.096
				c0.601,0.053,1.184,0.106,1.773,0.151c0.063,0.005,0.172-0.028,0.241-0.066c0.28-0.154,0.565-0.307,0.821-0.482
				c0.137-0.093,0.229-0.228,0.323-0.347c0.1-0.128,0.153-0.266,0.273-0.385C30.165,20.611,30.165,20.485,30.09,20.36z
				 M29.664,20.912c-0.248,0.409-0.645,0.675-1.118,0.938c-0.059,0.032-0.139,0.038-0.159,0.043
				c-0.006-0.101-0.011-0.177-0.015-0.252c-0.097,0.067-0.194,0.134-0.339,0.234c0.002-0.042,0.01-0.084,0.006-0.122
				c-0.004-0.044-0.019-0.084-0.029-0.126c-0.059,0.033-0.12,0.065-0.177,0.1c-0.054,0.033-0.105,0.071-0.146,0.099
				c-0.014-0.094-0.023-0.155-0.032-0.216c-0.071,0.048-0.142,0.097-0.215,0.144c-0.03,0.019-0.087,0.051-0.096,0.047
				c-0.025-0.011-0.054-0.039-0.042-0.06c0.042-0.073,0.113-0.146,0.148-0.218c0.019-0.039-0.01-0.077-0.018-0.115
				c-0.06,0.03-0.142,0.053-0.177,0.09c-0.082,0.084-0.14,0.175-0.208,0.263c-0.033,0.008-0.067,0.016-0.1,0.024
				c0.006-0.052-0.012-0.106,0.022-0.156c0.2-0.297,0.413-0.593,0.618-0.89c0.097-0.142,0.14-0.292,0.411-0.379
				c0.203-0.065,0.438-0.223,0.6-0.228c0.363-0.01,0.689,0.049,1.029,0.083c0.022,0.002,0.034,0.024,0.042,0.041
				C29.761,20.447,29.847,20.609,29.664,20.912z"/>
			<path class="st4" d="M28.366,22.684c0.006,0.068-0.024,0.191,0.025,0.194c0.168,0.009,0.187-0.122,0.258-0.2
				c0.024-0.027,0.052-0.06,0.052-0.083c-0.001-0.044-0.021-0.083-0.033-0.124c-0.063,0.038-0.13,0.072-0.187,0.113
				c-0.029,0.021-0.041,0.054-0.061,0.082C28.402,22.672,28.384,22.678,28.366,22.684z"/>
			<path class="st4" d="M35.922,20.398c0.03-0.044,0.061-0.087,0.101-0.143c-0.063-0.008-0.119-0.016-0.214-0.028
				c-0.228,0.321-0.447,0.63-0.638,0.899c-0.167,0.055-0.264,0.088-0.362,0.12c0.052,0.047,0.104,0.094,0.179,0.162
				c-0.223,0.208-0.598,0.268-0.867,0.455c0.074,0.178,0.149,0.355,0.229,0.547c0.327-0.162,0.634-0.312,0.969-0.477
				c-0.056-0.115-0.125-0.237-0.176-0.367c-0.049-0.123-0.007-0.155,0.208-0.196c0.052-0.01,0.109-0.049,0.164-0.075
				c-0.015-0.026-0.033-0.051-0.043-0.079c-0.015-0.042-0.057-0.089-0.03-0.131C35.592,20.855,35.76,20.627,35.922,20.398z"/>
			<path class="st4" d="M29.827,21.643c-0.001-0.092,0.039-0.23-0.009-0.232c-0.184-0.009-0.209,0.132-0.261,0.213
				c-0.054,0.084-0.251,0.221-0.051,0.241C29.552,21.87,29.7,21.735,29.827,21.643z"/>
			<path class="st4" d="M30.436,20.397c0.115-0.122,0.218-0.232,0.344-0.367c-0.181,0.002-0.334,0.004-0.531,0.007
				C30.318,20.17,30.373,20.275,30.436,20.397z"/>
			<path class="st4" d="M35.519,22.343c0.388,0.034,0.769,0.067,1.169,0.102c0.047-0.066,0.092-0.129,0.146-0.206
				c-0.051-0.011-0.111-0.025-0.21-0.047c0.414-0.584,0.833-1.175,1.245-1.756c-0.163-0.075-0.267-0.051-0.373,0.103
				c-0.255,0.37-0.521,0.738-0.796,1.126c-0.248,0.001-0.464,0.003-0.703,0.004C35.842,21.888,35.686,22.108,35.519,22.343z
				 M36.282,22.18c-0.139-0.018-0.262-0.034-0.387-0.05c0.071-0.1,0.136-0.192,0.207-0.292c0.047,0.002,0.084-0.001,0.113,0.005
				c0.087,0.019,0.17,0.042,0.26,0.065C36.411,21.999,36.353,22.08,36.282,22.18z"/>
			<path class="st4" d="M36.324,21.033c0.163-0.229,0.324-0.457,0.502-0.707c-0.082-0.007-0.154-0.014-0.251-0.022
				c-0.165,0.231-0.329,0.463-0.502,0.707C36.142,21.017,36.226,21.025,36.324,21.033z"/>
			<path class="st4" d="M36.985,20.71c0.061,0.012,0.186-0.049,0.365-0.104c-0.078-0.082-0.1-0.16-0.168-0.161
				c-0.069-0.002-0.183,0.072-0.278,0.113C36.928,20.612,36.925,20.698,36.985,20.71z"/>
			<path class="st4" d="M30.432,20.823c-0.024-0.044-0.025-0.111-0.078-0.127c-0.039-0.012-0.144,0.042-0.28,0.086
				c0.052,0.068,0.065,0.137,0.114,0.135C30.256,20.914,30.35,20.857,30.432,20.823z"/>
			<path class="st4" d="M32.789,20.239c0.135-0.069,0.266-0.136,0.402-0.206c-0.161-0.064-0.164-0.063-0.593,0.167
				c0.007,0.298,0.007,0.298-0.37,0.513c0.009,0.044,0.016,0.093,0.028,0.139c0.011,0.042,0.027,0.081,0.043,0.129
				c-0.076,0.04-0.15,0.078-0.223,0.117c-0.066,0.036-0.131,0.073-0.195,0.108c0.001,0.294,0.001,0.294-0.323,0.495
				c0.218,0.102,0.386-0.097,0.57-0.164c-0.021-0.1-0.04-0.186-0.06-0.281c0.138-0.076,0.276-0.151,0.421-0.231
				c-0.021-0.1-0.041-0.195-0.062-0.292c0.141-0.074,0.273-0.144,0.408-0.215C32.819,20.422,32.805,20.335,32.789,20.239z"/>
			<path class="st4" d="M26.965,23.179c0.053-0.074,0.044-0.154,0.062-0.231c-0.101,0.067-0.201,0.133-0.322,0.214
				c-0.007,0.102-0.051,0.248-0.013,0.248C26.89,23.408,26.905,23.265,26.965,23.179z"/>
			<path class="st4" d="M27.894,20.052c0.156-0.061,0.278-0.11,0.454-0.179c-0.124-0.029-0.206-0.047-0.315-0.072
				C27.979,19.899,27.934,19.979,27.894,20.052z"/>
			<path class="st4" d="M30.89,20.799c0.224-0.306,0.437-0.613,0.663-0.932c-0.083-0.007-0.154-0.014-0.228-0.02
				c-0.446,0.446-0.526,0.966-1.204,1.393c0.034,0.082,0.074,0.179,0.118,0.283c0.183-0.086,0.354-0.167,0.551-0.26
				C30.633,21.147,30.761,20.976,30.89,20.799z"/>
			<path class="st4" d="M31.335,20.534c-0.063,0.037-0.161,0.075-0.179,0.11c-0.024,0.046,0.015,0.09,0.037,0.17
				c0.108-0.081,0.201-0.129,0.21-0.163C31.414,20.605,31.36,20.571,31.335,20.534z"/>
			<path class="st4" d="M29.997,21.787c-0.033,0.079-0.061,0.145-0.094,0.224c-0.142,0.02-0.278,0.039-0.43,0.06
				c-0.06,0.114-0.118,0.224-0.179,0.339c-0.109,0.018-0.208,0.034-0.304,0.049c-0.091,0.109-0.052,0.134,0.084,0.119
				c0.343-0.038,0.341-0.035,0.491-0.396c0.143-0.029,0.289-0.058,0.434-0.087C30.159,21.853,30.162,21.801,29.997,21.787z"/>
			<path class="st4" d="M23.513,26.344c-0.167,0.02-0.334,0.041-0.501,0.061c-0.023,0.025-0.046,0.049-0.069,0.074
				c0.078,0.03,0.146,0.096,0.237,0.081c0.104-0.017,0.228-0.104,0.343-0.161C23.52,26.38,23.516,26.361,23.513,26.344z"/>
			<path class="st4" d="M24.648,25.774c-0.156-0.044-0.295-0.083-0.45-0.126C24.187,25.853,24.321,25.89,24.648,25.774z"/>
			<path class="st4" d="M22.783,27.791c0.176,0.002,0.337,0.004,0.51,0.006c0.082-0.115,0.155-0.219,0.232-0.327
				c0.119-0.02,0.226-0.038,0.342-0.057c0.052-0.073,0.102-0.144,0.158-0.223c0.095-0.013,0.192-0.026,0.291-0.039
				c-0.009-0.17-0.025-0.174-0.435-0.113c-0.037,0.087-0.069,0.164-0.11,0.262c-0.317-0.039-0.475,0.117-0.565,0.334
				c-0.118-0.003-0.208-0.006-0.306-0.008C22.862,27.679,22.829,27.726,22.783,27.791z"/>
			<path class="st4" d="M23.795,25.843c0.006-0.016,0.013-0.033,0.019-0.049c-0.048-0.013-0.095-0.028-0.144-0.04
				c-0.047-0.012-0.097-0.022-0.164-0.037c-0.055,0.077-0.096,0.135-0.173,0.243C23.515,25.914,23.655,25.878,23.795,25.843z"/>
			<path class="st4" d="M24.899,28.067c-0.008,0.021-0.015,0.041-0.023,0.062c0.176-0.003,0.35,0,0.531-0.012
				c0.036-0.002,0.127-0.063,0.141-0.093c0.102-0.221,0.299-0.262,0.526-0.264c0.021,0,0.045-0.006,0.109-0.016
				c0.09-0.285,0.336-0.361,0.644-0.339c0.073-0.116,0.135-0.214,0.203-0.323c0.158-0.012,0.307-0.023,0.487-0.036
				c0.054-0.085,0.111-0.171,0.164-0.258c0.048-0.077,0.101-0.127,0.223-0.125c0.044,0,0.114-0.044,0.172-0.068
				c-0.004-0.015-0.008-0.029-0.012-0.044c-0.115,0.002-0.231,0.004-0.371,0.006c-0.078,0.11-0.154,0.218-0.237,0.334
				c-0.176,0.008-0.33,0.015-0.504,0.023c-0.075,0.106-0.121,0.232-0.232,0.309c-0.1,0.07-0.272,0.087-0.452,0.139
				c-0.012,0.015-0.062,0.064-0.087,0.112c-0.081,0.156-0.226,0.192-0.384,0.186c-0.135-0.005-0.235,0.038-0.281,0.144
				c-0.078,0.178-0.23,0.218-0.423,0.221C25.035,28.026,24.964,28.051,24.899,28.067z"/>
			<path class="st4" d="M27.344,27.679c-0.043,0.047-0.002,0.114,0.005,0.211c0.152-0.077,0.297-0.125,0.317-0.167
				c0.029-0.06-0.033-0.116-0.056-0.173C27.518,27.592,27.393,27.626,27.344,27.679z"/>
			<path class="st4" d="M28.978,28.2c-0.17,0.215-0.014,0.256,0.167,0.288c0.07,0.013,0.149,0.015,0.224,0.021
				c0.075-0.092,0.075-0.092-0.239-0.206c0.064-0.091,0.13-0.184,0.201-0.284c-0.045-0.014-0.076-0.027-0.114-0.033
				c-0.177-0.027-0.216-0.106-0.072-0.259c0.092-0.098,0.092-0.159-0.043-0.177c-0.154-0.02-0.216-0.082-0.064-0.23
				c0.136-0.132,0.103-0.197-0.068-0.211c-0.079-0.006-0.139-0.04-0.219-0.065c0.087-0.123,0.169-0.238,0.258-0.364
				c-0.126-0.032-0.239-0.06-0.365-0.092c-0.22,0.19,0.092,0.122,0.084,0.231c-0.056,0.067-0.137,0.165-0.238,0.288
				c0.14,0.047,0.269,0.092,0.408,0.139c-0.075,0.106-0.148,0.209-0.227,0.321c0.044,0.015,0.078,0.033,0.121,0.04
				c0.18,0.028,0.237,0.101,0.075,0.266c-0.096,0.098-0.074,0.15,0.033,0.187C28.957,28.08,29.01,28.159,28.978,28.2z"/>
			<path class="st4" d="M26.242,28.034c0.283,0.024,0.52,0.045,0.773,0.067c-0.029,0.062-0.056,0.12-0.086,0.186
				c0.111,0.01,0.219,0.019,0.343,0.03c0.048-0.046,0.1-0.096,0.159-0.153c0.233,0.005,0.468,0.01,0.743,0.016
				c-0.017-0.34-0.027-0.669-0.054-0.992c-0.009-0.108-0.379-0.108-0.539-0.007C27.148,27.455,26.718,27.731,26.242,28.034z
				 M27.211,27.655c0.098-0.142,0.315-0.239,0.492-0.22c0.165,0.018,0.223,0.149,0.126,0.286c-0.096,0.136-0.305,0.22-0.517,0.208
				C27.141,27.919,27.102,27.815,27.211,27.655z"/>
			<path class="st4" d="M24.49,25.129c-0.162-0.004-0.324-0.008-0.486-0.012c-0.023,0.015-0.045,0.03-0.068,0.045
				c0.055,0.05,0.088,0.138,0.173,0.14c0.103,0.003,0.25-0.067,0.378-0.106C24.488,25.173,24.489,25.151,24.49,25.129z"/>
			<path class="st4" d="M24.92,24.428c0.038-0.052,0.072-0.101,0.116-0.163c-0.158-0.014-0.311-0.027-0.473-0.041
				c-0.037,0.052-0.072,0.1-0.116,0.163C24.6,24.4,24.748,24.413,24.92,24.428z"/>
			<path class="st4" d="M24.604,25.406c0.179,0.061,0.327,0.111,0.474,0.161c0.024-0.01,0.049-0.02,0.074-0.03
				c-0.021-0.067-0.016-0.152-0.07-0.198C24.99,25.261,24.825,25.311,24.604,25.406z"/>
			<path class="st4" d="M25.836,24.362c0.083-0.133,0.036-0.204-0.108-0.224c-0.142-0.02-0.329,0.067-0.408,0.183
				s-0.02,0.215,0.136,0.219C25.615,24.543,25.745,24.48,25.836,24.362z"/>
			<path class="st4" d="M25.696,23.658c0.001-0.061,0.003-0.117,0.004-0.173c-0.099,0.05-0.198,0.1-0.345,0.174
				c-0.086-0.008-0.222-0.02-0.385-0.034c-0.155,0.266,0.232,0.113,0.272,0.184c0.017,0.075,0.031,0.131,0.044,0.188
				c0.082-0.041,0.164-0.083,0.237-0.12c0.866-0.106,1.21,0.284,1.623,0.634c0.28-0.394,0.539-0.759,0.817-1.151
				c-0.364,0.099-0.714,0.203-1.063,0.287c-0.173,0.042-0.354,0.068-0.511,0.066C26.146,23.71,25.921,23.677,25.696,23.658z
				 M26.891,23.863c0.06-0.14,0.257-0.115,0.358-0.104c0.066,0.007,0.065,0.106,0.105,0.188c-0.145,0.072-0.298,0.156-0.305,0.149
				C26.977,24.027,26.853,23.95,26.891,23.863z"/>
			<path class="st4" d="M26.083,24.434c0.001,0,0.003,0,0.004,0c-0.024,0.034-0.064,0.071-0.068,0.1
				c-0.006,0.046,0.012,0.088,0.02,0.131c0.072-0.038,0.16-0.069,0.212-0.115c0.061-0.055,0.109-0.125,0.128-0.183
				c0.017-0.05-0.014-0.095-0.024-0.142c-0.071,0.041-0.145,0.08-0.21,0.125C26.115,24.371,26.104,24.405,26.083,24.434z"/>
			<path class="st4" d="M25.782,23.001c-0.059,0-0.153,0.058-0.231,0.09c0.03,0.042,0.044,0.097,0.095,0.123
				c0.047,0.024,0.133,0.016,0.218,0.023c0.089,0.002,0.191,0.016,0.303,0.004c0.051-0.005,0.15-0.058,0.174-0.093
				c0.022-0.033-0.007-0.094-0.048-0.101C26.131,23.021,25.961,23.003,25.782,23.001z"/>
			<path class="st4" d="M27.112,25.88c0.112-0.178-0.004-0.349-0.237-0.351s-0.517,0.16-0.602,0.366
				c-0.048,0.115-0.13,0.166-0.27,0.207c-0.031,0.009-0.072,0.017-0.093,0.034c-0.341,0.269-0.767,0.354-1.152,0.528
				c-0.339,0.154-0.356,0.193-0.149,0.324c0.436-0.228,0.85-0.46,1.279-0.663c0.172-0.081,0.391-0.132,0.561-0.14
				C26.718,26.172,27,26.06,27.112,25.88z M26.907,25.896c-0.028,0.056-0.214,0.117-0.412,0.218
				c-0.002-0.131-0.04-0.208,0.003-0.286c0.058-0.106,0.221-0.194,0.33-0.147C26.904,25.713,26.946,25.819,26.907,25.896z"/>
			<path class="st4" d="M24.793,24.811c-0.175-0.016-0.38-0.033-0.604-0.053c-0.038,0.05-0.073,0.095-0.116,0.151
				c0.154,0.013,0.293,0.022,0.427,0.038c0.11,0.013,0.289-0.025,0.227,0.128c-0.002,0.004,0.157,0.008,0.169-0.005
				c0.09-0.098,0.166-0.078,0.245-0.068c0.255,0.031,0.508,0.064,0.753,0.095c0.002,0.022,0.009,0.032,0.003,0.041
				c-0.097,0.143-0.384,0.274-0.285,0.433c0.006,0.011-0.097,0.089-0.159,0.121c-0.361,0.184-0.719,0.377-1.089,0.537
				c-0.135,0.058-0.302,0.035-0.484,0.052c0.026,0.047,0.052,0.095,0.084,0.153c-0.316,0.158-0.644,0.332-0.981,0.485
				c-0.1,0.045-0.227,0.029-0.364,0.043c-0.026,0.034-0.068,0.087-0.115,0.149c0.179,0.043,0.347,0.027,0.574-0.086
				c0.853-0.427,1.713-0.84,2.566-1.267c0.116-0.058,0.205-0.161,0.29-0.23c0.113-0.041,0.22-0.08,0.326-0.119
				c-0.047-0.043-0.094-0.086-0.162-0.149c0.061-0.086,0.147-0.207,0.223-0.314c-0.355-0.031-0.691-0.06-1.026-0.089
				c-0.106-0.009-0.248,0.008-0.169-0.131c0.011-0.02-0.045-0.06-0.057-0.055C24.984,24.707,24.903,24.753,24.793,24.811z"/>
			<path class="st4" d="M26.733,25.181c-0.024,0.05,0.029,0.095,0.047,0.142c0.081-0.037,0.173-0.067,0.24-0.115
				c0.053-0.037,0.075-0.097,0.11-0.147c0.003,0,0.005,0,0.008,0c0.042-0.067,0.107-0.139,0.117-0.199
				c0.008-0.046-0.039-0.107-0.092-0.106c-0.053,0.001-0.17,0.064-0.211,0.11C26.861,24.968,26.783,25.077,26.733,25.181z"/>
			<path class="st4" d="M30.535,26.268c0.113-0.061,0.227-0.1,0.244-0.134c0.076-0.157-0.138-0.136-0.237-0.183
				c-0.025-0.011-0.141,0.053-0.215,0.082C30.39,26.105,30.453,26.176,30.535,26.268z"/>
			<path class="st4" d="M30.574,27.374c0.099-0.038,0.193-0.097,0.3-0.153c0.029,0.024,0.053,0.042,0.075,0.062
				c0.207,0.188,0.488,0.196,0.91,0.013c0.146-0.063,0.306-0.135,0.419-0.225c0.253-0.2,0.471-0.202,0.694-0.178
				c0.174,0.019,0.344,0.044,0.525,0.067c0.058-0.082,0.101-0.142,0.147-0.207c-0.195-0.017-0.386-0.032-0.575-0.05
				c-0.174-0.016-0.232-0.062-0.2-0.233c0.048-0.258,0.238-0.395,0.546-0.532c0.038-0.017,0.087-0.04,0.106-0.063
				c0.038-0.049,0.06-0.099,0.088-0.149c-0.067,0.003-0.135-0.01-0.199,0.012c-0.084,0.028-0.163,0.086-0.245,0.128
				c-0.074,0.038-0.15,0.072-0.202,0.097c-0.099-0.094-0.2-0.174-0.274-0.268c-0.029-0.037-0.004-0.107,0.004-0.163
				c0.013-0.086,0.057-0.197-0.118-0.169c-0.198,0.031-0.165,0.139-0.199,0.221c-0.009,0.021-0.014,0.043-0.022,0.068
				c-0.173,0.055-0.344,0.117-0.515,0.162c-0.058,0.015-0.126,0-0.168-0.019c-0.094-0.042-0.167-0.102-0.264-0.142
				c-0.038-0.016-0.116,0.002-0.175,0.005c-0.018,0.055-0.073,0.131-0.047,0.16c0.055,0.062,0.161,0.094,0.225,0.152
				c0.024,0.022-0.01,0.082-0.022,0.125c-0.002,0.007-0.028,0.018-0.037,0.028c-0.23,0.275-0.504,0.427-0.875,0.391
				c-0.038-0.004-0.142,0.084-0.216,0.129c0.04,0.031,0.066,0.085,0.124,0.088c0.132,0.006,0.281-0.013,0.425-0.022
				c-0.006,0.133-0.011,0.247-0.016,0.362c-0.11,0.059-0.227,0.113-0.326,0.181c-0.043,0.029-0.05,0.088-0.073,0.133
				C30.454,27.383,30.518,27.395,30.574,27.374z M32.09,25.869c0.107-0.035,0.25-0.053,0.325-0.029
				c0.336,0.108,0.396,0.426,0.168,0.75c-0.209,0.296-0.545,0.519-0.962,0.637c-0.22,0.063-0.382,0.052-0.473-0.056
				C30.849,26.816,31.353,26.114,32.09,25.869z"/>
			<path class="st4" d="M31.285,27.881c-0.016,0.051,0.022,0.095,0.041,0.16c0.099-0.043,0.211-0.078,0.216-0.096
				c0.036-0.126,0.055-0.25,0.064-0.371c0.001-0.009-0.171,0.011-0.177,0.02C31.369,27.69,31.314,27.788,31.285,27.881z"/>
			<path class="st4" d="M31.67,26.745c-0.025,0.041-0.028,0.083-0.04,0.125c0.063-0.019,0.148-0.027,0.184-0.058
				c0.121-0.104,0.223-0.211,0.398-0.17c0.015,0.003,0.113-0.059,0.111-0.064c-0.019-0.047-0.051-0.088-0.083-0.137
				c-0.001-0.049-0.001-0.111-0.002-0.173c-0.093,0.048-0.186,0.096-0.234,0.121c-0.174,0.068-0.286,0.111-0.397,0.154
				c0.041,0.033,0.082,0.066,0.141,0.113C31.741,26.665,31.695,26.705,31.67,26.745z"/>
			<path class="st4" d="M30.49,27.799c-0.027,0.025,0.012,0.074,0.02,0.111c0.148-0.082,0.296-0.163,0.487-0.268
				c-0.047-0.072-0.057-0.146-0.099-0.142C30.663,27.521,30.609,27.688,30.49,27.799z"/>
			<path class="st4" d="M33.319,25.384c0.213-0.003,0.316-0.153,0.413-0.266c0.037-0.043-0.022-0.105-0.038-0.158
				c-0.145,0.084-0.29,0.167-0.48,0.277C33.26,25.307,33.268,25.384,33.319,25.384z"/>
			<path class="st4" d="M31.882,25.493c0.073-0.048,0.187-0.097,0.21-0.143c0.032-0.066-0.002-0.128-0.007-0.192
				c-0.08,0.04-0.196,0.076-0.231,0.122c-0.049,0.063-0.036,0.134-0.05,0.202C31.829,25.485,31.855,25.488,31.882,25.493z"/>
			<path class="st4" d="M33.229,26.485c0.131-0.032,0.244-0.058,0.356-0.091c0.011-0.004,0.04-0.07,0.03-0.072
				c-0.089-0.019-0.178-0.045-0.281-0.037c-0.066,0.005-0.155,0.064-0.234,0.098C33.139,26.415,33.179,26.446,33.229,26.485z"/>
			<path class="st4" d="M32.286,27.184c-0.019,0.02-0.039,0.04-0.059,0.06c0.074,0.067,0.14,0.14,0.23,0.194
				c0.019,0.012,0.15-0.037,0.192-0.074c0.086-0.075-0.01-0.212-0.158-0.222C32.435,27.139,32.355,27.17,32.286,27.184z"/>
			<path class="st4" d="M28.98,23.796c0.047,0.003,0.12-0.035,0.231-0.071c-0.052-0.05-0.069-0.1-0.112-0.098
				c-0.045,0.002-0.13,0.049-0.168,0.086C28.912,23.731,28.944,23.794,28.98,23.796z"/>
			<path class="st4" d="M29.118,24.558c-0.141,0.064-0.251,0.114-0.345,0.156c0.116,0.245,0.233,0.493,0.35,0.742
				c0.42-0.193,0.848-0.391,1.287-0.593c-0.03-0.051-0.065-0.112-0.114-0.195c-0.289,0.146-0.601,0.304-0.942,0.476
				C29.266,24.926,29.193,24.743,29.118,24.558z"/>
			<path class="st4" d="M32.06,27.913c-0.029,0.074-0.002,0.142,0.005,0.259c0.134-0.086,0.252-0.14,0.257-0.17
				c0.012-0.073-0.028-0.135-0.047-0.201C32.2,27.839,32.071,27.882,32.06,27.913z"/>
			<path class="st4" d="M30.829,24.45c-0.037,0.034-0.003,0.096,0.001,0.188c0.129-0.073,0.232-0.11,0.26-0.152
				c0.03-0.045-0.01-0.095-0.019-0.143C30.988,24.378,30.882,24.403,30.829,24.45z"/>
			<path class="st4" d="M27.817,25.956c-1.321,0.679-2.647,1.36-3.992,2.051c0.158,0.043,0.294,0.066,0.534-0.056
				c0.972-0.493,1.951-0.972,2.927-1.458c0.144-0.071,0.292-0.143,0.42-0.23c0.242-0.163,0.445-0.207,0.671-0.163
				c0.293,0.057,0.7,0.022,0.887,0.149c0.181,0.124,0.127,0.411,0.207,0.613c0.216,0.55,0.439,1.098,0.685,1.635
				c0.035,0.078,0.211,0.091,0.322,0.134c0.019-0.016,0.039-0.032,0.059-0.048c-0.301-0.816-0.603-1.633-0.908-2.457
				c0.557-0.35,1.129-0.705,1.694-1.065c0.106-0.068,0.19-0.156,0.282-0.235c0.04-0.034,0.076-0.092,0.112-0.102
				c0.218-0.058,0.269-0.118,0.137-0.198c0.053-0.034,0.104-0.074,0.161-0.102c0.06-0.029,0.127-0.047,0.191-0.07
				c-0.026-0.031-0.054-0.061-0.077-0.093c-0.023-0.034-0.042-0.07-0.063-0.105c0.029-0.005,0.057-0.009,0.086-0.013
				c0.089-0.034,0.177-0.067,0.266-0.101c-0.038-0.044-0.075-0.088-0.133-0.157c0.208-0.223,0.092-0.413,0.078-0.625
				c-0.012-0.182-0.014-0.368-0.044-0.543c-0.057-0.326,0.096-0.666,0.432-1.024c0.05-0.054,0.088-0.111,0.1-0.126
				c0.141-0.081,0.266-0.129,0.318-0.191c0.032-0.038-0.047-0.096-0.076-0.145c-0.033,0.005-0.067,0.009-0.1,0.014
				c0.228-0.285,0.452-0.572,0.687-0.856c0.05-0.06,0.185-0.114,0.209-0.167c0.057-0.124,0.006-0.202-0.234-0.164
				c-0.257,0.363-0.521,0.735-0.785,1.107c-0.236,0.332-0.472,0.665-0.718,1.012c-0.458-0.04-0.86-0.075-1.238-0.108
				c0.127-0.243,0.253-0.487,0.381-0.731c0.011-0.022,0.025-0.048,0.048-0.066c0.301-0.239,0.471-0.48,0.523-0.745
				c0.017-0.085,0.184-0.2,0.281-0.301c0.085-0.089,0.169-0.178,0.269-0.284c-0.116-0.01-0.201-0.017-0.279-0.024
				c-0.293,0.318-0.497,0.638-0.721,0.958c-0.223,0.318-0.462,0.639-0.664,0.961c-0.184,0.294-0.501,0.518-0.864,0.727
				c-0.363,0.209-0.724,0.421-1.078,0.64c-0.12,0.075-0.21,0.177-0.325,0.259c-0.088,0.062-0.234,0.107-0.279,0.168
				c-0.036,0.049,0.041,0.11,0.061,0.168c0.003,0.009-0.027,0.032-0.026,0.031c-0.128,0.03-0.241,0.057-0.354,0.085
				c0.049,0.051,0.098,0.102,0.168,0.174c-0.002,0.003-0.036,0.051-0.056,0.079c-0.105,0.034-0.192,0.063-0.279,0.091
				c0.031,0.049,0.063,0.097,0.095,0.145c-0.013,0-0.025,0-0.038,0c-0.033,0.189-0.104,0.389-0.093,0.564
				C27.705,25.306,27.772,25.63,27.817,25.956z M28.143,25.694c-0.023-0.338-0.037-0.678-0.08-1.009
				c-0.025-0.196-0.027-0.216,0.265-0.362c-0.05-0.196,0.118-0.435,0.397-0.613c0.06-0.121,0.069-0.227,0.142-0.273
				c0.545-0.347,1.1-0.684,1.659-1.017c0.127-0.075,0.253-0.088,0.241,0.038c-0.013,0.132,0.084,0.152,0.269,0.05
				c0.178-0.097,0.29-0.087,0.319,0.018c0.027,0.099,0.118,0.099,0.249,0.028c0.206-0.111,0.304-0.083,0.322,0.035
				c0.054,0.353,0.103,0.708,0.141,1.067c0.016,0.145-0.261,0.454-0.489,0.583c-0.034,0.019-0.054,0.076-0.056,0.109
				c-0.002,0.027,0.061,0.048,0.048,0.064c-0.149,0.183-0.265,0.398-0.473,0.54c-0.425,0.289-0.907,0.533-1.354,0.806
				c-0.198,0.121-0.366,0.189-0.541,0.137c0.002-0.174-0.097-0.207-0.278-0.083c-0.171,0.117-0.226,0.108-0.244-0.014
				c-0.004-0.034-0.142-0.055-0.203-0.03C28.198,25.882,28.156,25.878,28.143,25.694z"/>
			<path class="st4" d="M29.86,24.439c0.153-0.084,0.335-0.182,0.542-0.295c-0.037-0.079-0.088-0.187-0.139-0.296
				c-0.198,0.092-0.385,0.178-0.561,0.259C29.752,24.212,29.802,24.319,29.86,24.439z"/>
			<path class="st4" d="M30.736,23.154c0.078,0.217,0.146,0.407,0.219,0.612c0.164-0.08,0.268-0.131,0.351-0.171
				c-0.119-0.253-0.237-0.501-0.35-0.741c-0.417,0.191-0.845,0.388-1.302,0.598c0.031,0.049,0.067,0.105,0.107,0.166
				C30.066,23.472,30.378,23.324,30.736,23.154z"/>
			<path class="st4" d="M35.527,24.084c-0.483,0.137-0.95,0.271-1.464,0.417c0.261,0.211,0.493,0.398,0.743,0.6
				C35.048,24.759,35.275,24.439,35.527,24.084z"/>
			<path class="st4" d="M28.679,24.314c-0.045,0.051,0.003,0.121,0.016,0.228c0.157-0.089,0.293-0.139,0.324-0.191
				c0.032-0.053-0.009-0.147-0.069-0.153C28.888,24.192,28.725,24.263,28.679,24.314z"/>
			<path class="st4" d="M32.966,23.175c0.201,0.01,0.401,0.02,0.602,0.03c0.022-0.017,0.043-0.033,0.064-0.05
				c-0.074-0.061-0.119-0.164-0.229-0.172c-0.109-0.007-0.284,0.08-0.431,0.126C32.971,23.131,32.969,23.154,32.966,23.175z"/>
			<path class="st4" d="M33.991,20.812c-0.254,0.284-0.503,0.558-0.743,0.833c-0.03,0.035-0.018,0.077-0.026,0.116
				c0.116-0.037,0.284-0.059,0.338-0.114c0.172-0.174,0.308-0.36,0.445-0.543c0.065-0.087,0.1-0.178,0.153-0.276
				C34.085,20.821,34.02,20.815,33.991,20.812z"/>
			<path class="st4" d="M33.41,22.335c-0.263,0.04-0.501,0.076-0.751,0.114C32.804,22.673,33.114,22.633,33.41,22.335z"/>
			<path class="st4" d="M34.977,23.214c0.095-0.134,0.171-0.229,0.226-0.324c0.02-0.035-0.007-0.07-0.012-0.105
				c-0.061,0.029-0.154,0.054-0.177,0.086c-0.133,0.183-0.256,0.368-0.367,0.553c-0.021,0.036,0.021,0.074,0.034,0.111
				c0.054-0.036,0.124-0.069,0.156-0.108C34.904,23.345,34.949,23.26,34.977,23.214z"/>
			<path class="st4" d="M33.356,22.707c0.01,0.014,0.02,0.029,0.03,0.043c0.206-0.058,0.413-0.115,0.62-0.173
				c0.012-0.024,0.024-0.048,0.036-0.072c-0.132,0.001-0.262-0.022-0.397,0.011C33.552,22.54,33.452,22.641,33.356,22.707z"/>
			<path class="st4" d="M34.306,22.993c0.099,0.026,0.289-0.041,0.439-0.067c0.011-0.023,0.021-0.045,0.031-0.068
				c-0.189-0.049-0.378-0.099-0.567-0.148c-0.033,0.02-0.067,0.04-0.1,0.06C34.171,22.848,34.197,22.964,34.306,22.993z"/>
			<path class="st4" d="M34.847,20.907c0.162-0.23,0.327-0.462,0.501-0.707c-0.105-0.009-0.198-0.018-0.353-0.031
				c-0.15,0.233-0.299,0.466-0.456,0.711C34.646,20.889,34.739,20.897,34.847,20.907z"/>
			<path class="st4" d="M34.075,21.501c-0.035-0.012-0.146,0.048-0.282,0.098c0.056,0.064,0.072,0.127,0.125,0.128
				c0.056,0.001,0.2-0.063,0.211-0.09C34.149,21.586,34.126,21.519,34.075,21.501z"/>
			<path class="st4" d="M33.347,21.046c0.132-0.09,0.231-0.137,0.25-0.178c0.021-0.047-0.029-0.089-0.048-0.134
				c-0.074,0.036-0.186,0.069-0.213,0.108C33.302,20.892,33.337,20.946,33.347,21.046z"/>
			<path class="st4" d="M34.368,21.294c0.018,0.011,0.129-0.045,0.247-0.089c-0.042-0.063-0.052-0.118-0.102-0.135
				c-0.024-0.008-0.166,0.06-0.181,0.091C34.308,21.209,34.327,21.268,34.368,21.294z"/>
			<path class="st4" d="M34.758,23.812c-0.233-0.02-0.429-0.037-0.646-0.056c-0.04,0.149-0.039,0.267,0.143,0.285
				C34.436,24.059,34.582,23.944,34.758,23.812z"/>
			<path class="st4" d="M34.178,23.524c-0.173-0.027-0.329-0.051-0.517-0.08C33.659,23.714,33.828,23.737,34.178,23.524z"/>
			<path class="st4" d="M32.149,24.946c0.56-0.159,1.088-0.308,1.654-0.469c-0.282-0.231-0.547-0.448-0.836-0.684
				C32.685,24.192,32.426,24.556,32.149,24.946z M32.831,24.551c-0.063-0.003-0.074-0.085-0.13-0.16
				c0.164-0.084,0.34-0.194,0.36-0.182c0.076,0.044,0.163,0.121,0.132,0.196C33.142,24.529,32.952,24.558,32.831,24.551z"/>
			<path class="st4" d="M35.386,23.588c-0.031,0.038-0.014,0.083-0.019,0.124c0.068-0.03,0.163-0.054,0.199-0.092
				c0.167-0.177,0.317-0.358,0.508-0.577c-0.001-0.014-0.002-0.057-0.004-0.101c-0.073,0.036-0.173,0.065-0.215,0.109
				C35.687,23.227,35.533,23.408,35.386,23.588z"/>
			<path class="st4" d="M35.023,23.482c-0.007,0.036,0.021,0.066,0.033,0.098c0.054-0.026,0.13-0.048,0.157-0.079
				c0.132-0.153,0.258-0.308,0.369-0.463c0.03-0.041-0.003-0.088-0.007-0.132c-0.064,0.037-0.145,0.07-0.186,0.113
				c-0.106,0.113-0.194,0.23-0.276,0.33C35.074,23.404,35.03,23.446,35.023,23.482z"/>
		</g>
	</g>
	<g>
		<path class="st5" d="M19.957,44.576l-0.295-0.702l1.607-0.484l-0.036,0.637c-0.001,0.006-0.003,0.011-0.004,0.016L19.957,44.576z"
			/>
		<path class="st6" d="M23.21,21.501l-0.453-1.078l0.935-0.392c0.28,0.292,0.435,0.683,0.428,1.089L23.21,21.501z"/>
		<path class="st7" d="M22.993,22.248l0.746-0.311l-2.531,19.882l-0.668,0.276c-0.024,0.006-0.05,0.007-0.075,0.011l2.52-19.857
			C22.988,22.248,22.991,22.248,22.993,22.248z"/>
		<path class="st8" d="M22.992,22.247l-2.52,19.858c-0.203,0.036-0.413,0.015-0.589-0.069l2.514-19.805
			C22.584,22.318,22.799,22.328,22.992,22.247z"/>
		<g>
			<path class="st9" d="M13.494,12.259l1.065-0.446l0.002,0.004c0.163-0.058,0.352-0.042,0.51,0.077l8.589,6.447
				c0.465,0.352,0.706,0.925,0.633,1.503L21.24,43.966c-0.02,0.161-0.105,0.289-0.221,0.373l-0.067,0.045l-0.041,0.017l0,0
				l-0.923,0.387l-0.541-1.289l-7.576-5.711c-0.433-0.328-0.658-0.862-0.59-1.401l2.868-22.657l-0.032,0.013L13.494,12.259z"/>
			<path class="st5" d="M15.07,11.894l8.589,6.447c0.465,0.352,0.706,0.925,0.633,1.503l-0.229,0.102l-7.944-2.543l-2.101-2.647
				l0.13-1.027l-0.032,0.013l-0.622-1.483l1.065-0.446l0.002,0.004C14.724,11.76,14.914,11.775,15.07,11.894z"/>
			<path class="st9" d="M14.418,11.878l-0.002-0.004l0.142-0.06l0.002,0.004c0.163-0.058,0.352-0.042,0.51,0.077l8.589,6.447
				c0.465,0.352,0.706,0.925,0.633,1.503l-3.053,24.122c-0.02,0.161-0.105,0.289-0.221,0.373l-0.067,0.045l-0.041,0.017l0,0
				l-0.027,0.011l-0.006-0.014c0.115-0.084,0.201-0.212,0.221-0.373l3.053-24.122c0.073-0.578-0.168-1.151-0.633-1.503l-8.589-6.447
				C14.772,11.835,14.582,11.819,14.418,11.878z"/>
			<path class="st10" d="M22.656,18.762l-8.562-6.458c-0.336-0.254-0.82-0.05-0.873,0.368L10.16,36.857
				c-0.068,0.539,0.225,0.999,0.59,1.401c0.754,0.831,2.669,2.681,3.668,3.446c1.153,0.884,4.945,3.051,4.945,3.051
				c0.336,0.254,0.82,0.05,0.873-0.368l3.053-24.122C23.362,19.687,23.12,19.114,22.656,18.762z"/>
			<path class="st11" d="M19.949,44.659c0.093-0.069,0.152-0.171,0.167-0.288l3.053-24.121c0.067-0.534-0.157-1.067-0.586-1.392
				L14.021,12.4c-0.061-0.046-0.129-0.075-0.203-0.084c-0.109-0.014-0.222,0.016-0.311,0.082c-0.093,0.069-0.152,0.171-0.167,0.288
				l-3.061,24.185c-0.062,0.495,0.209,0.92,0.543,1.29c0.748,0.829,2.605,2.667,3.588,3.423c1.168,0.897,5.025,3.074,5.025,3.074
				c0.061,0.046,0.129,0.075,0.203,0.084C19.747,44.756,19.86,44.726,19.949,44.659z"/>
			<path class="st12" d="M19.774,44.528c0.06-0.045,0.098-0.111,0.108-0.187l3.053-24.121c0.06-0.481-0.142-0.961-0.528-1.253
				l-8.562-6.459c-0.04-0.031-0.083-0.049-0.131-0.055c-0.07-0.009-0.144,0.011-0.202,0.054c-0.06,0.045-0.098,0.111-0.108,0.187
				l-3.061,24.185c-0.055,0.441,0.19,0.818,0.485,1.151c0.558,0.628,2.603,2.71,3.593,3.471c1.161,0.893,5.02,3.026,5.02,3.026
				c0.04,0.031,0.083,0.049,0.131,0.055C19.642,44.591,19.716,44.571,19.774,44.528z"/>
			<path class="st13" d="M13.646,12.21c0.182-0.117,1.007-0.373,1.204-0.224l8.562,6.458c0.465,0.352,0.706,0.925,0.633,1.503
				l-3.053,24.122c-0.031,0.245-0.791,0.658-1.003,0.706c0.128-0.083,0.225-0.216,0.247-0.388l3.053-24.122
				c0.073-0.578-0.168-1.151-0.633-1.503l-8.562-6.458C13.956,12.199,13.794,12.175,13.646,12.21z"/>
			<g>
				<path class="st14" d="M22.673,18.024l-0.12,0.05c-0.179,0.075-0.385,0.049-0.54-0.069l-1.421-1.08
					c-0.137-0.104-0.11-0.316,0.048-0.382l0.12-0.05c0.18-0.075,0.386-0.049,0.541,0.069l1.421,1.08
					C22.859,17.745,22.832,17.957,22.673,18.024z"/>
				<path class="st15" d="M22.69,17.893l-0.12,0.05c-0.179,0.075-0.385,0.049-0.54-0.069l-1.421-1.08
					c-0.137-0.104-0.11-0.316,0.048-0.382l0.12-0.05c0.18-0.075,0.386-0.049,0.541,0.069l1.421,1.08
					C22.875,17.615,22.848,17.827,22.69,17.893z"/>
			</g>
			<path class="st16" d="M13.816,38.685l-0.047,0.814c-0.023,0.179,0.053,0.359,0.196,0.467l1.486,1.131
				c0.041,0.032,0.159,0.098,0.159,0.098s0.133-0.051,0.193-0.096c0.064-0.047,0.106-0.118,0.116-0.198l0.104-0.816
				c0.022-0.179-0.053-0.359-0.197-0.468l-1.486-1.13c-0.042-0.032-0.09-0.052-0.141-0.058
				C14.039,38.409,13.836,38.526,13.816,38.685z"/>
			<path class="st17" d="M23.995,20.417L21.286,41.7l-0.64,0.266c-0.342,0.142-0.733,0.092-1.029-0.131l-9.096-6.876
				c-0.132-0.115-0.073-0.441-0.073-0.441l2.682-21.129l0.074,0.37l9.234,6.981c0.171,0.129,0.397,0.158,0.594,0.076L23.995,20.417z
				"/>
			<path class="st4" d="M23.898,20.533l-2.684,21.089l-0.708,0.293c-0.291,0.07-0.612,0.028-0.836-0.141l-9.158-6.923
				c-0.116-0.119-0.043-0.492-0.043-0.492l2.639-20.793l0.063,0.272l9.161,6.925c0.223,0.169,0.518,0.206,0.776,0.099L23.898,20.533
				z"/>
			<path class="st7" d="M10.617,34.931l-0.105-0.079c-0.116-0.119-0.043-0.492-0.043-0.492l2.639-20.793l0.063,0.272l0.112,0.085
				L10.617,34.931z"/>
			<path class="st18" d="M16.433,15.42l0.01-0.076c0.012-0.096,0.123-0.142,0.2-0.084l2.45,1.862
				c0.106,0.081,0.162,0.213,0.145,0.346l-0.01,0.076c-0.012,0.096-0.123,0.142-0.2,0.084l-2.45-1.862
				C16.472,15.685,16.416,15.553,16.433,15.42z"/>
			<path class="st13" d="M18.93,17.339l0.006-0.044c0.011-0.083-0.024-0.166-0.091-0.217l-2.035-1.544c0,0-0.038-0.005-0.048,0.002
				c-0.013,0.01-0.025,0.059-0.025,0.059c-0.011,0.083,0.024,0.166,0.091,0.217l2.013,1.53c0.004,0.003,0.025,0.023,0.059,0.027
				C18.913,17.371,18.93,17.338,18.93,17.339z"/>
			<polygon class="st10" points="12.69,38.429 12.081,37.969 12.244,38.377 12.172,38.422 11.951,37.871 11.923,37.781 
				11.97,37.748 12.279,37.597 12.329,37.734 12.099,37.846 12.706,38.304 			"/>
			<g>
				<polygon class="st10" points="17.748,41.76 16.972,41.174 16.956,41.299 17.732,41.884 				"/>
				<polygon class="st10" points="17.705,42.098 16.929,41.513 16.913,41.638 17.689,42.223 				"/>
				<polygon class="st10" points="17.662,42.437 16.886,41.851 16.87,41.976 17.646,42.561 				"/>
			</g>
			<g>
				<path class="st19" d="M23.711,22.007l0.188-1.474l-0.791,0.329c-0.258,0.107-0.553,0.069-0.776-0.099l-9.161-6.925l-0.063-0.272
					l-0.187,1.474l0.063,0.272l9.161,6.925c0.223,0.169,0.518,0.206,0.776,0.099L23.711,22.007z"/>
				<path class="st19" d="M10.468,34.36c0,0-0.011,0.063-0.018,0.145L10.468,34.36z"/>
			</g>
			<g>
				<g>
					<path class="st4" d="M19.84,20.042l0.005-0.043l0.138,0.106l0.08-0.63l0.033,0.025l-0.085,0.673L19.84,20.042z"/>
					<path class="st4" d="M19.77,19.298l-0.098-0.075l0.005-0.043l0.229,0.175l-0.005,0.043l-0.098-0.075l-0.08,0.63l-0.033-0.025
						L19.77,19.298z"/>
					<path class="st4" d="M19.36,19.628l0.145,0.111l0.037-0.288l-0.137-0.105l0.005-0.043l0.137,0.105l0.032-0.256l-0.145-0.111
						l0.005-0.043l0.178,0.137l-0.085,0.673l-0.178-0.137L19.36,19.628z"/>
				</g>
			</g>
			<g>
				<path class="st4" d="M18.291,18.218c0.014,0.039,0.018,0.078,0.013,0.118c-0.007,0.059-0.034,0.094-0.081,0.106
					c0.024,0.044,0.04,0.083,0.047,0.118c0.007,0.034,0.008,0.068,0.004,0.102c-0.005,0.044-0.019,0.072-0.042,0.085
					s-0.049,0.008-0.079-0.015c-0.028-0.021-0.05-0.054-0.064-0.096c-0.014-0.043-0.019-0.086-0.013-0.131
					c0.003-0.022,0.008-0.039,0.016-0.053c0.008-0.013,0.018-0.023,0.03-0.03c0.013-0.007,0.03-0.012,0.054-0.015
					c-0.042-0.075-0.059-0.144-0.051-0.209c0.005-0.042,0.017-0.069,0.037-0.08c0.02-0.012,0.043-0.007,0.07,0.014
					C18.259,18.152,18.279,18.181,18.291,18.218z M18.241,18.545c-0.006-0.03-0.02-0.064-0.041-0.103l-0.018,0.002
					c-0.045,0.007-0.071,0.035-0.077,0.082c-0.004,0.037-0.002,0.071,0.008,0.102s0.025,0.054,0.046,0.07
					c0.021,0.016,0.039,0.019,0.055,0.008c0.016-0.01,0.026-0.032,0.03-0.066C18.249,18.606,18.248,18.574,18.241,18.545z
					 M18.18,18.161c-0.013,0.01-0.022,0.031-0.026,0.063c-0.003,0.027-0.002,0.056,0.005,0.085c0.007,0.03,0.02,0.061,0.039,0.095
					c0.025-0.003,0.043-0.012,0.054-0.026s0.019-0.035,0.022-0.062c0.004-0.032,0.002-0.061-0.006-0.087
					c-0.008-0.027-0.022-0.047-0.04-0.061C18.209,18.153,18.193,18.151,18.18,18.161z"/>
				<path class="st4" d="M18.019,18.237c-0.006-0.004-0.011-0.012-0.015-0.022c-0.003-0.01-0.004-0.023-0.002-0.038
					c0.004-0.028,0.013-0.037,0.028-0.025c0.016,0.011,0.022,0.032,0.018,0.06C18.045,18.24,18.035,18.249,18.019,18.237z
					 M17.974,18.594c-0.006-0.004-0.011-0.012-0.015-0.022c-0.003-0.01-0.004-0.023-0.002-0.038
					c0.002-0.015,0.006-0.025,0.011-0.028c0.005-0.003,0.011-0.002,0.017,0.003c0.016,0.011,0.022,0.032,0.018,0.06
					C18,18.597,17.99,18.606,17.974,18.594z"/>
				<path class="st4" d="M17.839,17.839l0.023,0.018l0.069,0.168l-0.018,0.014l-0.031-0.074c-0.012-0.032-0.02-0.053-0.023-0.064
					c-0.003,0.041-0.008,0.08-0.012,0.115l-0.055,0.431l-0.028-0.022L17.839,17.839z"/>
				<path class="st4" d="M17.547,17.691c0.022-0.038,0.049-0.045,0.081-0.02c0.063,0.048,0.081,0.172,0.056,0.372
					c-0.013,0.107-0.031,0.178-0.051,0.214c-0.021,0.036-0.048,0.042-0.081,0.016c-0.03-0.023-0.051-0.067-0.06-0.13
					s-0.008-0.144,0.005-0.243C17.51,17.798,17.527,17.729,17.547,17.691z M17.663,17.81c-0.005-0.051-0.018-0.085-0.04-0.102
					c-0.042-0.032-0.075,0.038-0.097,0.214c-0.022,0.176-0.011,0.281,0.031,0.313c0.022,0.017,0.041,0.007,0.057-0.029
					s0.03-0.098,0.041-0.186C17.667,17.931,17.67,17.861,17.663,17.81z"/>
				<path class="st4" d="M17.194,17.389c0.023-0.012,0.055-0.002,0.097,0.03l0.058,0.045l-0.074,0.586l-0.028-0.022l0.031-0.242
					l-0.031-0.023c-0.04-0.03-0.068-0.067-0.085-0.111s-0.022-0.096-0.014-0.156C17.155,17.438,17.17,17.403,17.194,17.389z
					 M17.316,17.48l-0.032-0.025c-0.031-0.023-0.055-0.03-0.072-0.021c-0.017,0.009-0.028,0.038-0.034,0.085
					c-0.006,0.05-0.004,0.091,0.007,0.123s0.034,0.061,0.067,0.087l0.029,0.022L17.316,17.48z"/>
				<path class="st4" d="M16.855,17.731l-0.046-0.62l-0.002-0.002c-0.005,0.057-0.009,0.095-0.011,0.111l-0.054,0.424l-0.028-0.022
					l0.074-0.586l0.044,0.034l0.038,0.522c0.004,0.055,0.006,0.093,0.005,0.114l0.003,0.002c0.006-0.025,0.016-0.055,0.029-0.088
					l0.153-0.375l0.042,0.032l-0.074,0.586L17,17.842l0.055-0.427c0.002-0.015,0.007-0.049,0.016-0.104l-0.003-0.002l-0.181,0.446
					L16.855,17.731z"/>
			</g>
			<g>
				<g>
					<path class="st4" d="M20.545,20.35c-0.057-0.136-0.041-0.271,0.035-0.303c0.076-0.032,0.184,0.052,0.241,0.187
						c0.057,0.136,0.041,0.271-0.035,0.303S20.602,20.485,20.545,20.35z"/>
					<path class="st4" d="M20.981,20.676c-0.057-0.136-0.041-0.271,0.035-0.303c0.076-0.032,0.184,0.052,0.241,0.187
						c0.057,0.136,0.041,0.271-0.035,0.303S21.038,20.811,20.981,20.676z"/>
					<path class="st4" d="M21.418,21.002c-0.057-0.136-0.041-0.271,0.035-0.303c0.076-0.032,0.184,0.052,0.241,0.187
						c0.057,0.136,0.041,0.271-0.035,0.303C21.583,21.221,21.475,21.137,21.418,21.002z"/>
					<path class="st4" d="M21.854,21.328c-0.057-0.135-0.041-0.271,0.035-0.303c0.076-0.032,0.184,0.052,0.241,0.187
						c0.057,0.136,0.041,0.271-0.035,0.303C22.019,21.547,21.911,21.463,21.854,21.328z"/>
				</g>
			</g>
			<path class="st4" d="M13.65,15.19l-0.014,0.111l0.935,0.712l0.081-0.63l-0.935-0.712l-0.022,0.174l-0.134-0.102l-0.044,0.346
				L13.65,15.19z M14.051,15.202c0.033,0.028,0.064,0.055,0.095,0.081c0.002-0.004-0.001-0.01-0.002-0.015
				c-0.02-0.084-0.041-0.167-0.062-0.251c-0.003-0.011-0.003-0.014,0.007-0.006c0.039,0.031,0.079,0.062,0.119,0.092
				c0.008,0.006,0.011,0.01,0.012,0.021c0.008,0.106,0.016,0.212,0.025,0.318c0,0.003,0,0.005,0,0.008
				c-0.022-0.019-0.044-0.038-0.066-0.057c-0.01-0.009-0.012-0.009-0.011,0.004c0.008,0.089,0.016,0.177,0.024,0.265
				c0,0.004,0.001,0.009-0.001,0.015C14.143,15.518,14.097,15.362,14.051,15.202z"/>
			<g>
				<g>
					<polygon class="st20" points="12.75,33.37 12.536,32.966 17.439,30.36 14.606,26.193 16.098,21.664 16.532,21.807 
						15.111,26.122 18.104,30.525 					"/>
				</g>
				<g>
					
						<rect x="15.871" y="27.312" transform="matrix(0.3985 -0.9172 0.9172 0.3985 -13.809 34.0239)" class="st20" width="6.33" height="0.457"/>
				</g>
			</g>
			<g>
				<g>
					<path class="st21" d="M15.844,30.406c-0.054-0.269-0.049-0.554,0.028-0.837c0.263-0.964,1.256-1.532,2.22-1.27
						c0.345,0.094,0.64,0.282,0.864,0.529c0.401,0.442,0.574,1.073,0.406,1.691c-0.262,0.964-1.256,1.533-2.22,1.27
						C16.461,31.604,15.977,31.053,15.844,30.406z"/>
				</g>
				<g class="st22">
					<path class="st4" d="M17.547,29.748c0.396-0.343,0.542-0.824,0.325-1.074c-0.216-0.25-0.713-0.174-1.109,0.17
						c-0.396,0.343-0.542,0.824-0.325,1.074C16.654,30.168,17.151,30.091,17.547,29.748z"/>
				</g>
			</g>
			<g>
				<path class="st23" d="M11.858,34.322c-0.171-0.133-0.314-0.307-0.413-0.516c-0.338-0.713-0.034-1.564,0.679-1.902
					c0.255-0.121,0.529-0.16,0.79-0.127c0.468,0.059,0.895,0.348,1.112,0.805c0.338,0.713,0.034,1.564-0.679,1.902
					C12.843,34.723,12.27,34.641,11.858,34.322z"/>
			</g>
			<g class="st22">
				<path class="st4" d="M12.427,32.93c0.052-0.353-0.086-0.666-0.308-0.699c-0.223-0.033-0.446,0.226-0.498,0.579
					c-0.052,0.353,0.086,0.666,0.308,0.699S12.374,33.283,12.427,32.93z"/>
			</g>
			<g>
				<g>
					<path class="st24" d="M20.264,26.458c-0.211,0.046-0.437,0.045-0.661-0.012c-0.764-0.196-1.224-0.974-1.028-1.738
						c0.071-0.274,0.216-0.509,0.408-0.689c0.344-0.321,0.84-0.466,1.33-0.34c0.765,0.196,1.225,0.974,1.029,1.738
						C21.203,25.957,20.774,26.345,20.264,26.458z"/>
				</g>
				<g class="st25">
					<path class="st4" d="M19.725,25.121c-0.276-0.309-0.657-0.418-0.852-0.244s-0.129,0.565,0.147,0.874s0.657,0.418,0.852,0.244
						C20.067,25.821,20.001,25.43,19.725,25.121z"/>
				</g>
			</g>
			<g>
				<g>
					<path class="st23" d="M15.457,21.861c-0.044-0.15-0.054-0.311-0.023-0.475c0.104-0.557,0.641-0.924,1.198-0.82
						c0.2,0.037,0.375,0.131,0.513,0.26c0.247,0.232,0.374,0.581,0.307,0.938c-0.104,0.557-0.64,0.924-1.198,0.82
						C15.86,22.511,15.561,22.221,15.457,21.861z"/>
				</g>
				<g class="st22">
					<path class="st4" d="M16.39,21.411c0.209-0.213,0.269-0.492,0.135-0.623s-0.412-0.066-0.62,0.147
						c-0.209,0.213-0.269,0.492-0.135,0.623C15.904,21.689,16.182,21.623,16.39,21.411z"/>
				</g>
			</g>
			<g>
				<path class="st24" d="M14.095,26.836c-0.111-0.086-0.205-0.199-0.269-0.335c-0.22-0.463-0.022-1.016,0.441-1.236
					c0.166-0.078,0.344-0.103,0.514-0.082c0.304,0.039,0.582,0.227,0.723,0.524c0.22,0.464,0.022,1.017-0.441,1.237
					C14.736,27.099,14.363,27.046,14.095,26.836z"/>
			</g>
			<g class="st25">
				<path class="st4" d="M14.465,25.934c0.034-0.229-0.055-0.433-0.2-0.454c-0.145-0.022-0.29,0.147-0.324,0.376
					s0.055,0.433,0.2,0.454S14.431,26.163,14.465,25.934z"/>
			</g>
		</g>
	</g>
</g>
</svg>
