<?xml version="1.0" encoding="utf-8"?>
<!-- Generator: Adobe Illustrator 25.4.1, SVG Export Plug-In . SVG Version: 6.00 Build 0)  -->
<svg version="1.1" id="Layer_1" xmlns="http://www.w3.org/2000/svg" xmlns:xlink="http://www.w3.org/1999/xlink" x="0px" y="0px"
	 viewBox="0 0 50 50" style="enable-background:new 0 0 50 50;" xml:space="preserve">
<style type="text/css">
	.st0{fill:url(#SVGID_1_);}
	.st1{fill:#302E2F;}
	.st2{fill:#363436;}
	.st3{fill:#5C5D60;}
	.st4{fill:#FFFFFF;}
	.st5{fill:#C2C2C2;}
	.st6{fill:#A7A7A7;}
	.st7{fill:#D6D6D6;}
	.st8{fill:#C7C7C7;}
	.st9{fill:#A3A3A3;}
	.st10{fill:#F2F2F2;}
	.st11{fill:#35475B;}
	.st12{fill:#425972;}
	.st13{fill:#C3C3C3;}
	.st14{fill:#999999;}
	.st15{fill:#CFCFCF;}
	.st16{fill:#DBDBDB;}
	.st17{fill:#0A0A0A;}
	.st18{fill:#34465A;}
	.st19{fill:#8C9296;}
	.st20{fill:#A5A7AA;}
	.st21{fill:#E82C00;}
	.st22{opacity:0.22;}
	.st23{fill:#3D5AA8;}
	.st24{fill:#F6CB11;}
	.st25{opacity:0.59;}
</style>
<radialGradient id="SVGID_1_" cx="16.2195" cy="33.6088" r="15.8951" gradientTransform="matrix(1.5353 0 0 -0.569 0.0982 58.9349)" gradientUnits="userSpaceOnUse">
	<stop  offset="0.2598" style="stop-color:#B4BCC1"/>
	<stop  offset="0.4308" style="stop-color:#BCC3C8;stop-opacity:0.7486"/>
	<stop  offset="0.6967" style="stop-color:#D2D7DA;stop-opacity:0.3577"/>
	<stop  offset="0.94" style="stop-color:#ECEEEF;stop-opacity:0"/>
</radialGradient>
<ellipse class="st0" cx="25" cy="39.812" rx="24.402" ry="9.045"/>
<g>
	<g>
		<polygon class="st1" points="10.911,20.35 6.726,29.564 13.04,38.387 17.219,29.187 		"/>
		<polygon class="st2" points="17.219,29.187 13.04,38.387 24.591,37.263 28.77,28.063 		"/>
		<polygon class="st3" points="28.77,28.063 22.354,19.236 10.803,20.36 17.219,29.187 		"/>
		<g>
			<path class="st4" d="M12.252,25.445c0.886,0.696,1.492,1.763,1.821,3.199c0.049,0.214,0.074,0.383-0.077,0.346
				c0.028,0.171,0.055,0.329,0.079,0.479c0.076,0.043,0.18,0.102,0.267,0.151c0.07-0.068,0.148-0.143,0.201-0.195
				c-0.039-0.165-0.078-0.329-0.124-0.522c-0.015,0.009-0.056,0.035-0.133,0.083c0.021-0.397-0.193-0.726-0.115-0.964
				c-0.156-0.384-0.303-0.724-0.432-1.076c-0.03-0.081-0.001-0.199,0.002-0.325c-0.181,0.093-0.269-0.194-0.389-0.361
				c-0.119-0.166-0.283-0.305-0.219-0.596c-0.253,0.052-0.711-0.314-0.806-0.607c-0.069,0.012-0.136,0.023-0.202,0.034
				c-0.011-0.028-0.022-0.055-0.033-0.083c0.215-0.474,0.431-0.948,0.65-1.431c-0.066-0.084-0.111-0.143-0.177-0.228
				c-0.276,0.607-0.547,1.205-0.829,1.825c0.101,0.054,0.18,0.098,0.26,0.139C12.081,25.357,12.17,25.381,12.252,25.445z"/>
			<path class="st4" d="M12.889,24.302c0.129-0.263,0.127-0.288-0.028-0.552C12.689,24.026,12.69,24.064,12.889,24.302z"/>
			<path class="st4" d="M12.514,24.434c-0.041,0.08-0.081,0.156-0.122,0.237c0.045,0.084,0.081,0.15,0.123,0.229
				C12.642,24.672,12.642,24.67,12.514,24.434z"/>
			<path class="st4" d="M13.555,24.636c-0.173,0.064-0.278,0.21-0.225,0.565C13.562,25.088,13.607,24.972,13.555,24.636z"/>
			<path class="st4" d="M14.2,26.142c-0.257-0.085-0.257-0.085-0.325,0.328C14.168,26.494,14.178,26.484,14.2,26.142z"/>
			<path class="st4" d="M13.62,25.61c-0.187-0.027-0.196,0.158-0.161,0.4C13.681,25.898,13.687,25.882,13.62,25.61z"/>
			<path class="st4" d="M13.555,28.368c0.132,0.064,0.234,0.069,0.208-0.212C13.566,28.103,13.566,28.103,13.555,28.368z"/>
			<path class="st4" d="M13.87,25.831c0.176-0.008,0.237-0.171,0.222-0.464C13.959,25.459,13.807,25.501,13.87,25.831z"/>
			<path class="st4" d="M12.005,26.306c0.044-0.046,0.084-0.088,0.14-0.146c-0.052-0.119-0.094-0.214-0.134-0.307
				C11.858,25.966,11.906,26.122,12.005,26.306z"/>
			<path class="st4" d="M11.662,24.63c0.235-0.518,0.467-1.027,0.7-1.541c-0.17-0.22-0.342-0.441-0.501-0.646
				C11.476,22.978,11.439,23.715,11.662,24.63z M11.836,23.402c-0.095-0.132-0.086-0.242-0.018-0.332
				c0.037-0.148,0.108-0.154,0.2-0.036c0.1,0.128,0.058,0.219,0.014,0.316C11.985,23.454,11.942,23.55,11.836,23.402z"/>
			<path class="st4" d="M7.533,28.678c-0.043-0.01-0.089-0.011-0.129-0.042c-0.176-0.132-0.231-0.109-0.286,0.122
				c0.09,0.024,0.193,0.012,0.279,0.083c0.15,0.124,0.211,0.039,0.289-0.143C7.615,28.69,7.574,28.687,7.533,28.678z"/>
			<path class="st4" d="M9.407,25.47c0.066-0.391-0.128-0.629-0.304-0.914C9.08,24.654,9.06,24.74,9.03,24.872
				C9.302,24.88,9.242,25.305,9.407,25.47z"/>
			<path class="st4" d="M13.033,26.969c0.055,0.005,0.111,0.009,0.169,0.014c-0.005-0.115-0.01-0.205-0.014-0.299
				C13.038,26.646,12.991,26.737,13.033,26.969z"/>
			<path class="st4" d="M13.135,27.571c0.062,0.01,0.115,0.019,0.172,0.028c0.007-0.102,0.013-0.189,0.021-0.297
				c-0.075-0.008-0.137-0.014-0.2-0.021C13.131,27.4,13.132,27.476,13.135,27.571z"/>
			<path class="st4" d="M12.438,26.192c0.046-0.026,0.092-0.053,0.151-0.087c-0.017-0.069-0.026-0.115-0.039-0.16
				c-0.018-0.061-0.038-0.121-0.057-0.183C12.334,25.89,12.334,25.89,12.438,26.192z"/>
			<path class="st4" d="M12.645,26.908c0.201-0.043,0.201-0.043,0.148-0.435C12.588,26.54,12.58,26.561,12.645,26.908z"/>
			<path class="st4" d="M13.858,31.268c-0.086-0.019-0.16-0.036-0.249-0.056c0.104,0.416,0.104,0.416,0.34,0.481
				C13.919,31.549,13.889,31.412,13.858,31.268z"/>
			<path class="st4" d="M15.436,31.663c0.194-0.005,0.365-0.005,0.534-0.017c0.045-0.003,0.1-0.022,0.123-0.07
				c0.156-0.327,0.305-0.663,0.462-1.008c-0.098-0.141-0.183-0.263-0.266-0.382c0.166-0.531,0.166-0.531,0.365-0.551
				c-0.08-0.315-0.016-0.458,0.205-0.463c-0.017-0.116-0.028-0.232-0.054-0.346c-0.01-0.044-0.058-0.109-0.084-0.114
				c-0.085-0.016-0.167-0.009-0.264-0.012c0.036,0.089,0.064,0.159,0.094,0.234c-0.044,0.098-0.088,0.193-0.129,0.283
				c-0.054-0.029-0.104-0.056-0.201-0.107c0.064,0.148,0.098,0.228,0.142,0.33c-0.086,0.155-0.175,0.316-0.267,0.48
				c-0.028-0.031-0.053-0.05-0.072-0.08c-0.121-0.187-0.209-0.198-0.291-0.02c-0.119,0.259-0.256,0.496-0.381,0.749
				c-0.025,0.051-0.044,0.131-0.036,0.201C15.35,31.06,15.394,31.351,15.436,31.663z M15.642,30.475
				c0.076-0.116,0.133-0.261,0.21-0.376c0.024-0.036,0.082-0.018,0.145-0.029c-0.033,0.183-0.054,0.303-0.076,0.423
				c0.016,0.024,0.033,0.049,0.049,0.073c0.046-0.03,0.109-0.038,0.136-0.093c0.073-0.15,0.133-0.054,0.202,0.069
				c-0.295,0.739-0.244,0.882-0.716,0.804C15.501,31.001,15.493,30.702,15.642,30.475z"/>
			<path class="st4" d="M14.379,32.178c0.047,0.061,0.088,0.113,0.131,0.169c0.031-0.068,0.057-0.126,0.085-0.186
				C14.494,32,14.419,31.964,14.379,32.178z"/>
			<path class="st4" d="M15.907,31.005c-0.017-0.1-0.031-0.177-0.047-0.273c-0.062,0.004-0.116,0.007-0.174,0.01
				c0.019,0.107,0.033,0.184,0.051,0.288C15.803,31.02,15.852,31.013,15.907,31.005z"/>
			<path class="st4" d="M14.168,30.346c-0.011,0.03-0.023,0.059-0.034,0.089c0.03,0.118,0.059,0.237,0.092,0.354
				c0.123,0.442,0.056,0.768-0.103,1.039c-0.018,0.03-0.03,0.07-0.045,0.104c-0.202,0.448-0.388,0.926-0.794,1.008
				c-0.011,0.002-0.018,0.026-0.022,0.032c0.185,0.238,0.368,0.474,0.571,0.737c0.004-0.16,0.004-0.274,0.009-0.386
				c0.007-0.142-0.01-0.315,0.031-0.418c0.161-0.403,0.336-0.79,0.519-1.165c0.04-0.081,0.13-0.127,0.205-0.117
				c0.051,0.007,0.116,0.138,0.191,0.235c0.021-0.086,0.04-0.167,0.06-0.251c0.08,0.004,0.159,0.008,0.247,0.013
				c-0.046-0.292-0.085-0.569-0.134-0.846c-0.03-0.17-0.025-0.305,0.037-0.425c0.185-0.363,0.371-0.727,0.544-1.107
				c0.178-0.391,0.342-0.8,0.511-1.203c0.017-0.04,0.028-0.087,0.064-0.204c-0.087,0.002-0.159-0.03-0.179,0.009
				c-0.229,0.46-0.453,0.926-0.671,1.401c-0.158,0.345-0.3,0.71-0.457,1.057c-0.026,0.058-0.086,0.095-0.137,0.094
				C14.507,30.392,14.337,30.365,14.168,30.346z M14.769,30.717c0.031,0.2,0.059,0.381,0.091,0.585
				c-0.122-0.011-0.238-0.022-0.372-0.035c-0.025-0.16-0.053-0.342-0.083-0.542C14.527,30.723,14.644,30.72,14.769,30.717z"/>
			<path class="st4" d="M15.48,32.079c0.085,0.089,0.17,0.177,0.26,0.271c0.03-0.066,0.057-0.125,0.102-0.225
				c-0.14-0.044-0.252-0.08-0.364-0.116C15.479,32.032,15.479,32.055,15.48,32.079z"/>
			<path class="st4" d="M14.043,27.278c0.229,0.211,0.248,0.208,0.434-0.058C14.206,26.992,14.184,26.994,14.043,27.278z"/>
			<path class="st4" d="M14.021,35.64c-0.302-0.389-0.603-0.778-0.876-1.13c-0.041-0.196-0.055-0.379-0.116-0.524
				c-0.076-0.18-0.299-0.25-0.392-0.167c-0.147,0.131-0.167,0.294-0.071,0.583c0.075,0.225,0.204,0.357,0.352,0.301
				c0.102-0.039,0.169,0.028,0.248,0.131c0.167,0.218,0.334,0.435,0.501,0.652c0.136,0.177,0.273,0.352,0.403,0.52
				C14.203,35.86,14.107,35.75,14.021,35.64z M12.755,34.464c-0.018-0.027-0.037-0.055-0.055-0.082c-0.002-0.104-0.03-0.241,0-0.301
				c0.025-0.049,0.143-0.045,0.173,0.005c0.046,0.075,0.085,0.246,0.064,0.308C12.915,34.46,12.819,34.444,12.755,34.464z"/>
			<path class="st4" d="M14.985,33.288c0.1,0.049,0.176,0.087,0.28,0.138c0.002-0.058,0.006-0.165,0.01-0.309
				C15.149,33.161,15.002,33.046,14.985,33.288z"/>
			<path class="st4" d="M14.773,34.373c-0.259,0.193-0.518,0.387-0.791,0.591c0.133,0.171,0.245,0.316,0.386,0.498
				c0.02-0.143,0.036-0.257,0.047-0.34c0.137-0.229,0.269-0.45,0.401-0.671C14.803,34.425,14.788,34.399,14.773,34.373z"/>
			<path class="st4" d="M14.716,29.178c0.146,0.1,0.268,0.139,0.319-0.088C14.87,28.897,14.794,29.023,14.716,29.178z"/>
			<path class="st4" d="M14.455,30.061c0.095,0.001,0.166,0.002,0.237,0.003c-0.004-0.026-0.008-0.052-0.012-0.078
				C14.597,29.906,14.511,29.807,14.455,30.061z"/>
			<path class="st4" d="M15.306,28.454c-0.168-0.582-0.147-1.069,0.123-1.407c-0.053-0.075-0.084-0.121-0.146-0.21
				c-0.127,0.531-0.363,0.777-0.75,0.617c0.052,0.363,0.099,0.687,0.146,1.016C14.888,28.465,15.086,28.46,15.306,28.454z"/>
			<path class="st4" d="M14.721,26.387c-0.255-0.12-0.255-0.12-0.366,0.195C14.618,26.708,14.684,26.669,14.721,26.387z"/>
			<path class="st4" d="M12.923,32.754c0.085-0.215,0.039-0.417-0.115-0.61C12.694,32.414,12.694,32.414,12.923,32.754z"/>
			<path class="st4" d="M13.717,30.478c0.019,0.086,0.035,0.16,0.054,0.25c0.091-0.001,0.168-0.003,0.255-0.004
				C13.95,30.412,13.842,30.438,13.717,30.478z"/>
			<path class="st4" d="M13.522,32.317c0.005-0.357,0.005-0.357-0.229-0.502c-0.003,0.112-0.007,0.223-0.01,0.341
				C13.374,32.217,13.447,32.267,13.522,32.317z"/>
			<path class="st4" d="M9.051,25.999c-0.092-0.227-0.252-0.329-0.427-0.255c0.136,0.142,0.256,0.272,0.379,0.394
				c0.016,0.016,0.059,0.006,0.062-0.012C9.071,26.091,9.066,26.035,9.051,25.999z"/>
			<path class="st4" d="M12.944,25.215c0.15-0.145,0.158-0.369,0.096-0.64C12.875,24.694,12.835,24.896,12.944,25.215z"/>
			<path class="st4" d="M10.303,30.292c-0.019,0.092-0.034,0.164-0.049,0.237c0.204,0.164,0.224,0.15,0.223-0.152
				C10.42,30.348,10.362,30.32,10.303,30.292z"/>
			<path class="st4" d="M10.011,28.45c-0.096-0.095-0.176-0.364-0.291-0.12C9.818,28.485,9.907,28.627,10.011,28.45z"/>
			<path class="st4" d="M10.823,31.449c0.058-0.109,0.096-0.18,0.134-0.251C10.769,31.12,10.769,31.12,10.823,31.449z"/>
			<path class="st4" d="M9.922,29.581c0.161,0.101,0.161,0.101,0.241-0.119C10.042,29.369,9.941,29.326,9.922,29.581z"/>
			<path class="st4" d="M12.811,36.414c-0.002-0.035-0.004-0.07-0.006-0.105c0.118,0.029,0.235,0.058,0.353,0.087
				c0.016-0.018,0.032-0.036,0.048-0.054c-0.051-0.166-0.103-0.331-0.154-0.497c0.021-0.008,0.043-0.017,0.064-0.025
				c0.22,0.284,0.441,0.568,0.657,0.847c0.044-0.096,0.076-0.166,0.115-0.253c-0.49-0.631-0.971-1.246-1.447-1.873
				c-0.058-0.076-0.101-0.216-0.124-0.33c-0.098-0.473-0.021-0.748,0.279-0.809c0.106-0.022,0.179-0.022,0.276,0.106
				c0.23,0.301,0.465,0.59,0.695,0.891c0.074,0.097,0.13,0.12,0.205,0.075c0.383-0.232,0.769-0.453,1.154-0.68
				c0.036-0.021,0.069-0.054,0.124-0.098c-0.172-0.222-0.326-0.42-0.491-0.633c0.193-0.073,0.367-0.129,0.535-0.205
				c0.119-0.054,0.231-0.112,0.361,0.117c0.039-0.086,0.071-0.157,0.11-0.241c-0.075-0.097-0.149-0.249-0.211-0.26
				c-0.129-0.024-0.252,0.026-0.368,0.044c-0.042-0.083-0.081-0.159-0.152-0.298c-0.014,0.164-0.022,0.261-0.032,0.371
				c-0.202,0.105-0.413,0.216-0.647,0.338c0.188,0.242,0.351,0.452,0.529,0.682c-0.053,0.034-0.089,0.059-0.127,0.08
				c-0.271,0.153-0.541,0.31-0.816,0.452c-0.032,0.017-0.098-0.027-0.136-0.073c-0.193-0.228-0.393-0.447-0.571-0.706
				c-0.189-0.274-0.354-0.36-0.548-0.239c-0.138,0.086-0.363,0.039-0.428,0.198c-0.069,0.169,0.021,0.517,0.015,0.775
				c-0.008,0.327,0.084,0.556,0.275,0.768c0.179,0.198,0.343,0.436,0.514,0.656c-0.002,0.022-0.005,0.043-0.007,0.065
				c-0.102-0.005-0.205-0.01-0.377-0.018c0.045,0.18,0.089,0.355,0.137,0.544c-0.211-0.273-0.396-0.56-0.604-0.765
				c-0.228-0.226-0.289-0.498-0.315-0.832c-0.058-0.727-0.126-1.457-0.181-2.183c-0.015-0.204-0.065-0.308-0.197-0.403
				c-0.639-0.458-1.149-1.177-1.513-2.151c-0.204-0.546-0.304-1.112-0.313-1.679c-0.011-0.687,0.067-1.32,0.222-1.896
				c0.113-0.417,0.325-0.685,0.629-0.856c0.119,0.676,0.233,1.32,0.346,1.965c-0.026,0.003-0.052,0.006-0.078,0.008
				c-0.102-0.046-0.203-0.092-0.288-0.13c0.028,0.215,0.084,0.43,0.072,0.608c-0.017,0.263-0.231,0.063-0.306,0.155
				c0.078,0.217,0.207,0.442,0.209,0.621c0.002,0.169-0.131,0.29-0.205,0.432c0.087,0.16,0.27,0.149,0.328,0.437
				c0.057,0.286-0.121,0.322-0.143,0.5c0.118,0.105,0.248,0.178,0.343,0.315c0.153,0.222-0.015,0.346-0.03,0.52
				c0.39,0.156,0.593,0.393,0.677,0.78c0.281-0.063,0.509,0.166,0.556,0.573c0.01,0.089-0.043,0.17-0.037,0.261
				c0.01,0.138,0.046,0.281,0.071,0.423c0.085-0.011,0.189,0.018,0.252-0.041c0.079-0.075,0.06-0.266-0.031-0.369
				c-0.152-0.171-0.125-0.368-0.159-0.545c0.233,0.004,0.467,0.048,0.682,0.005c0.532-0.107,0.898-0.538,0.981-1.392
				c0.036-0.371,0.063-0.7,0.343-0.736c-0.105-0.24-0.339-0.171-0.335-0.46c0.003-0.178,0.111-0.312,0.167-0.455
				c-0.108-0.113-0.271-0.206-0.334-0.367c-0.067-0.174-0.039-0.411-0.054-0.634c-0.096-0.035-0.229,0.138-0.322-0.124
				c-0.06-0.168-0.065-0.367-0.097-0.562c-0.126-0.022-0.208,0.204-0.381,0.065c-0.185-0.149-0.129-0.423-0.248-0.652
				c-0.123,0.387-0.355,0.342-0.601,0.194c-0.171-1.029-0.338-2.052-0.513-3.074c-0.031-0.182-0.025-0.311,0.039-0.439
				c0.157-0.317,0.301-0.652,0.453-0.987c-0.046-0.059-0.086-0.111-0.128-0.165c-0.181,0.398-0.356,0.781-0.529,1.17
				c-0.016,0.035-0.017,0.099-0.01,0.15c0.099,0.687,0.197,1.374,0.304,2.061c0.065,0.422,0.145,0.844,0.22,1.278
				c-0.104,0.011-0.204,0.022-0.314,0.034c-0.04-0.185-0.077-0.358-0.113-0.526c0.051-0.04,0.092-0.072,0.163-0.127
				c-0.087-0.071-0.14-0.113-0.189-0.153c-0.022-0.122-0.043-0.233-0.063-0.342c0.038-0.042,0.074-0.081,0.141-0.154
				c-0.092-0.05-0.143-0.077-0.202-0.109c-0.015-0.106-0.03-0.216-0.044-0.315c0.048-0.037,0.088-0.069,0.128-0.1
				c-0.004-0.023-0.008-0.045-0.012-0.068c-0.054-0.028-0.108-0.057-0.168-0.088c-0.021-0.115-0.042-0.233-0.06-0.333
				c0.055-0.05,0.098-0.09,0.142-0.13c-0.006-0.021-0.011-0.043-0.017-0.064c-0.052-0.022-0.104-0.045-0.159-0.069
				c-0.013-0.11-0.017-0.223-0.041-0.333c-0.033-0.153-0.027-0.25,0.043-0.35c0.14-0.199,0.132-0.544,0.016-0.857
				c-0.021-0.056-0.026-0.154-0.009-0.198c0.074-0.192,0.163-0.367,0.239-0.556c0.034-0.083,0.136-0.164,0.026-0.301
				c-0.106-0.132-0.127,0.051-0.167,0.13c-0.085,0.169-0.168,0.342-0.241,0.526c-0.043,0.109-0.091,0.13-0.188,0.087
				c-0.302-0.136-0.503,0.232-0.398,0.701c0.079,0.355,0.231,0.561,0.446,0.61c0.041,0.198,0.077,0.372,0.112,0.538
				c-0.04,0.04-0.077,0.078-0.146,0.148c0.096,0.052,0.148,0.079,0.215,0.115c0.016,0.11,0.033,0.228,0.047,0.328
				c-0.05,0.054-0.09,0.098-0.158,0.172c0.095,0.047,0.143,0.071,0.199,0.099c0.021,0.106,0.044,0.216,0.064,0.317
				c-0.053,0.034-0.099,0.064-0.145,0.093c0.003,0.021,0.007,0.043,0.01,0.064c0.054,0.032,0.108,0.065,0.168,0.102
				c0.016,0.118,0.031,0.237,0.047,0.357c-0.036,0.038-0.075,0.08-0.148,0.157c0.1,0.046,0.152,0.07,0.222,0.102
				c0.026,0.206,0.053,0.419,0.079,0.624c-0.108,0.084-0.208,0.161-0.316,0.246c-0.025-0.124-0.049-0.227-0.065-0.33
				c-0.164-1.03-0.326-2.061-0.492-3.091c-0.012-0.072-0.043-0.156-0.079-0.211c-0.085-0.129-0.182-0.239-0.269-0.366
				c-0.119-0.174-0.181-0.147-0.21,0.063c0.086,0.127,0.167,0.267,0.26,0.377c0.088,0.104,0.14,0.212,0.165,0.368
				c0.042,0.255,0.094,0.51,0.142,0.765c0.025,0.131,0.113,0.288-0.012,0.355c-0.077,0.041-0.143,0.15-0.224,0.139
				c-0.137-0.018-0.175,0.106-0.228,0.236c-0.058,0.141-0.122,0.388-0.197,0.371c-0.149-0.035-0.148,0.145-0.138,0.22
				c0.028,0.214-0.017,0.298-0.115,0.38c-0.054,0.045-0.108,0.236-0.083,0.29c0.097,0.212,0.006,0.329,0.019,0.503
				c-0.046-0.025-0.079-0.043-0.115-0.063c0.002,0.151,0.003,0.297,0.005,0.45c0.037,0.007,0.065,0.013,0.099,0.019
				c0.008,0.169,0.015,0.332,0.023,0.493c-0.039-0.006-0.07-0.011-0.101-0.016c0.016,0.131,0.027,0.242,0.045,0.353
				c0.007,0.042,0.023,0.1,0.043,0.122c0.105,0.109,0.134,0.376,0.104,0.52c-0.019,0.093,0.05,0.265,0.089,0.398
				c0.015,0.05,0.072,0.083,0.087,0.133c0.363,1.231,0.928,2.134,1.717,2.685c0.038,0.027,0.089,0.132,0.095,0.195
				c0.077,0.825,0.148,1.649,0.216,2.472c0.013,0.16,0.06,0.274,0.145,0.382c0.171,0.213,0.338,0.434,0.51,0.656
				c-0.02,0.074-0.037,0.136-0.054,0.197c0.118,0.152,0.225,0.29,0.336,0.434c0.041-0.053,0.077-0.1,0.118-0.153
				c0.099,0.149,0.192,0.286,0.282,0.422c-0.014,0.07-0.026,0.131-0.039,0.192c0.117,0.151,0.228,0.294,0.339,0.438
				c0.036-0.059,0.067-0.107,0.099-0.159c0.046,0.045,0.086,0.084,0.133,0.129c0.029-0.074,0.054-0.136,0.075-0.187
				C13.258,36.989,13.034,36.701,12.811,36.414z M10.319,23.284c-0.146-0.187-0.185-0.448-0.098-0.657
				c0.057-0.137,0.263-0.151,0.362-0.026c0.146,0.185,0.22,0.53,0.149,0.691C10.64,23.499,10.485,23.496,10.319,23.284z
				 M11.274,27.157c0.415-0.13,0.842-0.135,1.291,0.336c0.028,0.029,0.057,0.059,0.08,0.098c0.428,0.741,0.734,1.545,0.779,2.457
				c0.024,0.481-0.075,0.877-0.315,1.087c-0.216,0.189-0.451,0.359-0.703,0.441c-0.412,0.135-0.801-0.259-1.146-0.67
				c-0.564-0.723-0.768-1.475-0.659-2.368c0.011-0.095,0.035-0.184,0.036-0.283C10.641,27.577,10.901,27.274,11.274,27.157z
				 M12.681,35.736c0.083,0.011,0.165,0.021,0.267,0.034c0.022,0.121,0.049,0.263,0.083,0.452c-0.107-0.001-0.198-0.003-0.304-0.004
				C12.709,36.033,12.696,35.892,12.681,35.736z"/>
			<path class="st4" d="M11.518,28.268c-0.139-0.153-0.185-0.113-0.174,0.129c0.007,0.141,0.029,0.288,0.031,0.427
				c0.005,0.35,0.106,0.744-0.072,1.01c-0.07,0.105-0.038,0.318,0.05,0.488c0.094,0.18,0.213,0.28,0.335,0.256
				c0.087-0.017,0.189-0.056,0.233-0.151c0.103-0.22,0.266-0.239,0.431-0.27c0.118-0.022,0.238-0.04,0.353-0.077
				c0.039-0.013,0.083-0.064,0.091-0.121c0.005-0.036-0.047-0.126-0.082-0.173c-0.142-0.189-0.288-0.37-0.431-0.558
				c-0.028-0.037-0.061-0.091-0.068-0.137c-0.02-0.143,0.139-0.414,0.229-0.429c0.092-0.016,0.18-0.052,0.287-0.085
				c-0.182-0.235-0.325-0.419-0.507-0.654c0.02,0.231,0.062,0.409,0.039,0.535c-0.031,0.17-0.101,0.321-0.182,0.433
				c-0.02,0.028-0.149-0.112-0.221-0.195C11.743,28.562,11.637,28.398,11.518,28.268z M12.57,29.834
				c-0.168,0.074-0.321,0.141-0.474,0.208c-0.012-0.018-0.024-0.036-0.036-0.055c0.034-0.217,0.068-0.433,0.106-0.675
				C12.302,29.489,12.427,29.65,12.57,29.834z M11.99,29.285c0.017,0.024,0.033,0.047,0.05,0.071
				c-0.044,0.193-0.08,0.393-0.136,0.573c-0.016,0.052-0.1,0.089-0.133,0.058c-0.069-0.065-0.126-0.177-0.185-0.276
				c-0.006-0.01,0.007-0.072,0.023-0.086C11.735,29.508,11.863,29.397,11.99,29.285z M11.986,29.048
				c-0.153,0.122-0.277,0.222-0.429,0.344c-0.035-0.33-0.065-0.61-0.101-0.956C11.647,28.657,11.797,28.829,11.986,29.048z"/>
			<path class="st4" d="M11.706,28.132c0.025,0.03,0.061,0.032,0.093,0.046c-0.013-0.053-0.024-0.107-0.04-0.159
				c-0.01-0.031-0.029-0.059-0.051-0.1c0.092-0.035,0.169-0.065,0.261-0.1c-0.124-0.16-0.226-0.291-0.327-0.422
				c-0.012,0.009-0.023,0.018-0.035,0.026c0.028,0.081,0.055,0.162,0.089,0.26c-0.081,0.031-0.159,0.06-0.262,0.099
				C11.542,27.924,11.622,28.033,11.706,28.132z"/>
			<path class="st4" d="M10.205,26.575c0.018,0.101,0.035,0.196,0.054,0.303c0.052,0.025,0.087,0.044,0.123,0.059
				c0.014,0.006,0.028,0.008,0.042,0.011C10.414,26.66,10.414,26.66,10.205,26.575z"/>
			<path class="st4" d="M12.325,35.294c-0.014-0.098-0.025-0.175-0.03-0.207c-0.078-0.024-0.134-0.041-0.201-0.062
				c0.03,0.12,0.049,0.195,0.072,0.284C12.22,35.304,12.265,35.3,12.325,35.294z"/>
			<path class="st4" d="M13.415,36.928c0.06,0.004,0.113,0.007,0.175,0.011c-0.012-0.096-0.023-0.181-0.038-0.298
				c-0.079,0.008-0.129,0.013-0.185,0.019C13.385,36.762,13.399,36.84,13.415,36.928z"/>
			<path class="st4" d="M9.824,26.427c0.041,0.287,0.041,0.287,0.204,0.317c-0.004-0.069-0.008-0.139-0.014-0.234
				C9.95,26.482,9.889,26.455,9.824,26.427z"/>
			<path class="st4" d="M9.93,28.945c-0.047-0.061-0.093-0.12-0.141-0.181c-0.028,0.033-0.054,0.059-0.077,0.089
				c-0.013,0.017-0.023,0.039-0.041,0.068C9.788,29.124,9.864,29.103,9.93,28.945z"/>
			<path class="st4" d="M10.298,25.944c-0.065-0.051-0.113-0.089-0.161-0.127c-0.015,0.013-0.031,0.025-0.046,0.038
				c0.047,0.127,0.094,0.254,0.141,0.381c0.015-0.005,0.03-0.009,0.045-0.014C10.283,26.13,10.29,26.038,10.298,25.944z"/>
			<path class="st4" d="M12.392,30.619c-0.019,0.068-0.006,0.205,0.029,0.275c0.026,0.051,0.108,0.041,0.209,0.072
				c-0.036-0.156-0.042-0.278-0.081-0.326C12.511,30.591,12.402,30.581,12.392,30.619z"/>
			<path class="st4" d="M9.803,32.66c-0.028,0.012-0.066,0.009-0.081,0.038c-0.034,0.068-0.057,0.151-0.089,0.24
				c0.11,0.126,0.198,0.058,0.201-0.15C9.834,32.75,9.814,32.703,9.803,32.66z"/>
			<path class="st4" d="M8.708,28.494c-0.116-0.028-0.233-0.033-0.348-0.086c-0.152-0.07-0.253-0.023-0.313,0.208
				c0.021,0.01,0.046,0.034,0.059,0.025c0.144-0.101,0.298,0.006,0.459,0.082c0.105,0.05,0.224,0.016,0.272-0.189
				C8.785,28.518,8.746,28.503,8.708,28.494z"/>
			<path class="st4" d="M9.18,31.849c-0.069,0.064-0.139,0.128-0.208,0.192c0.004,0.029,0.009,0.059,0.013,0.088
				c0.043,0.023,0.107,0.083,0.124,0.061c0.051-0.067,0.083-0.167,0.123-0.254C9.215,31.907,9.197,31.878,9.18,31.849z"/>
			<path class="st4" d="M7.712,27.472c0.203,0.186,0.347,0.206,0.43,0.046C7.975,27.353,7.741,27.333,7.712,27.472z"/>
			<path class="st4" d="M10.111,31.657c-0.124,0.085-0.218,0.135-0.301,0.21c-0.091,0.083-0.118,0.227-0.07,0.438
				c0.133-0.129,0.259-0.232,0.366-0.366C10.135,31.903,10.111,31.77,10.111,31.657z"/>
			<path class="st4" d="M8.365,30.156c-0.078,0.16-0.135,0.34-0.282,0.378c-0.026,0.007-0.04,0.062-0.06,0.094
				c0.006,0.021,0.012,0.042,0.018,0.064c0.097-0.012,0.24,0.037,0.281-0.049c0.106-0.223,0.21-0.425,0.416-0.462
				C8.589,30.055,8.448,29.985,8.365,30.156z"/>
			<path class="st4" d="M8.714,29.667c0.09,0.212,0.204,0.205,0.283,0.18c0.082-0.025,0.16-0.121,0.128-0.34
				C8.984,29.562,8.852,29.613,8.714,29.667z"/>
			<path class="st4" d="M9.564,30.745c-0.068,0.041-0.139,0.051-0.176,0.113c-0.068,0.113-0.151,0.124-0.258,0.09
				c-0.226-0.071-0.354,0.118-0.346,0.523c0.06-0.046,0.129-0.061,0.154-0.128c0.07-0.184,0.178-0.195,0.32-0.144
				C9.435,31.262,9.57,31.067,9.564,30.745z"/>
			<path class="st4" d="M7.673,29.406c0.009,0.314-0.135,0.33-0.273,0.375c-0.017,0.005-0.025,0.04-0.04,0.065
				c0.125,0.114,0.391,0.169,0.39,0.081c-0.003-0.316,0.134-0.329,0.287-0.33c0.022,0,0.038-0.031,0.07-0.059
				C7.972,29.394,7.67,29.311,7.673,29.406z"/>
			<path class="st4" d="M8.825,27.145c-0.044-0.035-0.076-0.078-0.1-0.076c-0.115,0.008-0.207-0.048-0.3-0.223
				c-0.073-0.139-0.132-0.067-0.175,0.018c0.067,0.086,0.129,0.154,0.182,0.237C8.547,27.28,8.707,27.312,8.825,27.145z"/>
			<path class="st4" d="M9.424,23.651c-0.026,0.085-0.044,0.183-0.018,0.26c0.054,0.162,0.13,0.313,0.204,0.483
				C9.774,24.098,9.455,23.908,9.424,23.651z"/>
			<path class="st4" d="M10.993,34.076c-0.074,0.158-0.033,0.571,0.081,0.711C11.147,34.517,11.114,34.24,10.993,34.076z"/>
			<path class="st4" d="M10.877,33.342c0.004-0.285,0.008-0.574,0.012-0.884C10.673,32.617,10.668,33.115,10.877,33.342z"/>
			<path class="st4" d="M10.339,32.686c-0.02,0.056-0.042,0.083-0.039,0.114c0.026,0.263-0.015,0.474-0.082,0.682
				c-0.036,0.112,0.002,0.273,0.095,0.333c0.041-0.184,0.096-0.344,0.113-0.526C10.442,33.111,10.459,32.91,10.339,32.686z"/>
		</g>
		<g>
			<path class="st4" d="M19.451,34.712c-0.009,0.051,0.039,0.11,0.097,0.117c0.043,0.005,0.141-0.068,0.275-0.139
				c-0.082-0.052-0.118-0.11-0.181-0.105C19.593,34.588,19.457,34.68,19.451,34.712z"/>
			<path class="st4" d="M22.804,34.848c0.077-0.161-0.011-0.27-0.211-0.258c-0.195,0.011-0.406,0.144-0.475,0.298
				c-0.067,0.15,0.02,0.254,0.209,0.248C22.527,35.13,22.727,35.009,22.804,34.848z"/>
			<path class="st4" d="M18.387,35.833c0.015-0.048-0.042-0.106-0.101-0.114c-0.033-0.005-0.17,0.081-0.194,0.125
				c-0.027,0.051,0.018,0.102,0.045,0.199C18.265,35.939,18.373,35.879,18.387,35.833z"/>
			<path class="st4" d="M21.13,31.232c-0.152,0.008-0.274,0.058-0.418,0.151c-0.541,0.352-1.09,0.695-1.631,1.047
				c-0.08,0.052-0.155,0.137-0.192,0.206c-0.091,0.17-0.159,0.339-0.244,0.526c-0.999,0.067-1.966,0.132-2.94,0.197
				c-0.055,0.121-0.101,0.223-0.154,0.339c0.977-0.065,1.938-0.13,2.936-0.196c-0.089,0.196-0.175,0.368-0.24,0.537
				c-0.024,0.063-0.025,0.137,0.009,0.178c0.26,0.313,0.529,0.622,0.804,0.926c0.036,0.04,0.114,0.068,0.19,0.064
				c0.582-0.034,1.167-0.075,1.754-0.121c0.072-0.006,0.173-0.038,0.242-0.081c0.572-0.354,1.142-0.711,1.706-1.075
				c0.092-0.059,0.174-0.158,0.218-0.238c0.091-0.164,0.154-0.328,0.24-0.518c0.791-0.053,1.574-0.105,2.355-0.158
				c0.058-0.128,0.105-0.23,0.157-0.346c-0.799,0.053-1.578,0.106-2.378,0.159c0.084-0.184,0.167-0.355,0.235-0.524
				c0.024-0.06,0.038-0.133,0.009-0.17c-0.25-0.314-0.507-0.623-0.775-0.926c-0.042-0.047-0.137-0.076-0.228-0.072
				C22.238,31.162,21.68,31.204,21.13,31.232z M23.093,31.727c0.139,0.154,0.29,0.3,0.42,0.46c0.039,0.049,0.056,0.13,0.025,0.2
				c-0.185,0.42-0.384,0.841-0.587,1.262c-0.028,0.058-0.093,0.131-0.16,0.176c-0.501,0.335-1.004,0.667-1.513,0.993
				c-0.086,0.055-0.212,0.097-0.303,0.104c-0.5,0.042-0.998,0.077-1.49,0.1c-0.108,0.005-0.223-0.026-0.274-0.082
				c-0.233-0.253-0.451-0.517-0.659-0.787c-0.041-0.053-0.039-0.145-0.009-0.224c0.078-0.205,0.183-0.414,0.277-0.621
				c0.001,0,0.002,0,0.003,0c0.011-0.024,0.026-0.048,0.032-0.071c0.116-0.487,0.493-0.882,1.127-1.219
				c0.325-0.173,0.623-0.457,0.94-0.569c0.317-0.111,0.645-0.072,0.966-0.096c0.278-0.021,0.613-0.1,0.816-0.037
				C22.903,31.378,22.966,31.586,23.093,31.727z"/>
			<path class="st4" d="M22.221,31.626c0.037,0.038,0.057,0.101,0.116,0.106c0.043,0.004,0.137-0.068,0.262-0.134
				c-0.073-0.052-0.108-0.115-0.157-0.104C22.375,31.509,22.296,31.58,22.221,31.626z"/>
			<path class="st4" d="M20.18,34.695c0.038,0.038,0.06,0.104,0.12,0.107c0.057,0.002,0.154-0.063,0.311-0.134
				c-0.104-0.057-0.147-0.114-0.217-0.109C20.341,34.564,20.253,34.647,20.18,34.695z"/>
			<path class="st4" d="M20.884,34.661c-0.019,0.043,0.033,0.113,0.083,0.11c0.063-0.004,0.154-0.069,0.305-0.143
				c-0.096-0.053-0.136-0.108-0.201-0.101C21.02,34.532,20.902,34.617,20.884,34.661z"/>
			<path class="st4" d="M17.89,34.656c-0.161,0.275-0.321,0.547-0.493,0.84c0.391-0.055,0.746-0.104,1.037-0.145
				C18.26,35.13,18.079,34.899,17.89,34.656z"/>
			<path class="st4" d="M22.17,32.358c-0.047,0.053-0.13,0.112-0.201,0.141c-0.176,0.071-0.355,0.125-0.529,0.185
				c-0.135-0.272-0.243-0.348-0.501-0.358c0.208,0.265,0.185,0.469-0.081,0.737c-0.23,0.232-0.578,0.391-0.861,0.378
				c-0.423-0.019-0.498-0.25-0.368-0.61c-0.369,0.374-0.425,0.754-0.166,0.958c0.297,0.234,0.768,0.17,1.431-0.199
				c0.081,0.073,0.155,0.137,0.226,0.204c0.075,0.072,0.172,0.123,0.103,0.277c-0.053,0.118,0.06,0.183,0.22,0.129
				c0.1-0.033,0.241-0.137,0.286-0.211c0.073-0.12-0.001-0.205-0.16-0.175c-0.167,0.032-0.227-0.024-0.293-0.087
				c-0.059-0.057-0.133-0.104-0.177-0.17c-0.025-0.037-0.031-0.114,0.007-0.15c0.053-0.051,0.164-0.106,0.234-0.114
				c0.216-0.027,0.43-0.042,0.635-0.043c0.085-0.001,0.161,0.032,0.215,0.071c0.091,0.065,0.204,0.072,0.354-0.02
				c0.151-0.093,0.203-0.203,0.14-0.285c-0.069-0.09-0.204-0.073-0.368,0.024c-0.048,0.029-0.107,0.078-0.145,0.081
				c-0.291,0.026-0.578,0.042-0.859,0.061c0.051-0.147,0.093-0.268,0.137-0.395c0.152-0.053,0.299-0.112,0.445-0.154
				c0.108-0.031,0.231-0.063,0.317-0.052c0.161,0.019,0.297-0.025,0.408-0.163c0.098-0.123,0.069-0.213-0.062-0.236
				C22.414,32.158,22.285,32.229,22.17,32.358z"/>
			<path class="st4" d="M22.498,35.379c-0.19,0.094-0.351,0.173-0.546,0.268c0.193,0.04,0.354,0.073,0.55,0.113
				C22.5,35.618,22.499,35.512,22.498,35.379z"/>
			<path class="st4" d="M16.979,34.937c-0.08,0.021-0.199,0.107-0.239,0.169c-0.023,0.036,0.058,0.114,0.123,0.112
				c0.062-0.002,0.164-0.084,0.313-0.166C17.085,34.994,17.037,34.922,16.979,34.937z"/>
			<path class="st4" d="M16.699,35.689c-0.307,0.062-0.572,0.116-0.892,0.18c0.125,0.12,0.227,0.218,0.341,0.328
				C16.331,36.027,16.498,35.873,16.699,35.689z"/>
			<path class="st4" d="M16.578,36.516c-0.113-0.064-0.207-0.117-0.341-0.192c-0.056,0.19-0.098,0.334-0.138,0.469
				C16.267,36.697,16.414,36.612,16.578,36.516z"/>
			<path class="st4" d="M15.763,33.978c-0.015,0.143-0.028,0.26-0.044,0.413c0.202-0.165,0.369-0.301,0.575-0.469
				C16.086,33.944,15.936,33.96,15.763,33.978z"/>
			<path class="st4" d="M17.067,34.335c-0.069,0.046-0.17,0.092-0.196,0.139c-0.024,0.042,0.035,0.085,0.076,0.163
				c0.105-0.092,0.2-0.149,0.21-0.19C17.168,34.401,17.101,34.371,17.067,34.335z"/>
			<path class="st4" d="M14.941,34.999c0.147,0.069,0.274,0.129,0.443,0.209c0.048-0.22,0.088-0.402,0.136-0.62
				C15.296,34.746,15.125,34.868,14.941,34.999z"/>
			<path class="st4" d="M16.042,35.346c-0.12-0.067-0.223-0.124-0.352-0.196c-0.05,0.18-0.091,0.328-0.138,0.498
				C15.736,35.535,15.877,35.448,16.042,35.346z"/>
			<path class="st4" d="M16.296,34.533c-0.125,0-0.268,0.09-0.277,0.194c-0.006,0.063,0.072,0.136,0.148,0.133
				c0.074-0.003,0.193-0.096,0.367-0.191C16.424,34.602,16.379,34.533,16.296,34.533z"/>
			<path class="st4" d="M24.057,33.445c-0.196,0.096-0.367,0.179-0.596,0.291c0.173,0.031,0.29,0.051,0.43,0.076
				C23.949,33.683,23.999,33.573,24.057,33.445z"/>
			<path class="st4" d="M25.209,32.445c0.387-0.026,0.762-0.051,1.149-0.077c0.05-0.11,0.097-0.213,0.143-0.314
				c-0.392,0.026-0.768,0.051-1.149,0.077C25.303,32.239,25.259,32.337,25.209,32.445z"/>
			<path class="st4" d="M27.902,28.822c-0.137,0.021-0.242,0.037-0.376,0.058c-0.055,0.107-0.101,0.198-0.152,0.298
				c0.139-0.019,0.248-0.034,0.359-0.049C27.793,29.019,27.843,28.927,27.902,28.822z"/>
			<path class="st4" d="M24.287,34.175c-0.234,0.065-0.449,0.124-0.711,0.196c0.182,0.119,0.333,0.218,0.518,0.339
				C24.166,34.51,24.222,34.353,24.287,34.175z"/>
			<path class="st4" d="M27.211,30.187c-0.056,0.005-0.16,0.069-0.202,0.117c-0.023,0.027,0.018,0.104,0.064,0.107
				c0.054,0.003,0.142-0.05,0.277-0.102C27.285,30.247,27.262,30.183,27.211,30.187z"/>
			<path class="st4" d="M26.141,31.787c0.038,0.003,0.124-0.065,0.23-0.125c-0.068-0.04-0.101-0.089-0.152-0.081
				c-0.053,0.008-0.124,0.072-0.187,0.111C26.067,31.726,26.087,31.783,26.141,31.787z"/>
			<path class="st4" d="M24.739,34.157c-0.012,0.048,0.02,0.114,0.069,0.118c0.048,0.004,0.141-0.059,0.275-0.121
				c-0.077-0.052-0.108-0.104-0.165-0.102C24.872,34.054,24.746,34.13,24.739,34.157z"/>
			<path class="st4" d="M16.261,32.212c0.172,0.027,0.328,0.052,0.519,0.082c-0.022-0.181-0.04-0.333-0.063-0.52
				C16.542,31.942,16.412,32.067,16.261,32.212z"/>
			<path class="st4" d="M26.209,33.31c-0.537,0.036-1.059,0.071-1.593,0.107c-0.047,0.103-0.089,0.196-0.14,0.309
				c0.54-0.036,1.068-0.071,1.593-0.107C26.12,33.507,26.164,33.409,26.209,33.31z"/>
			<path class="st4" d="M23.488,34.825c0.018-0.044-0.051-0.079-0.081-0.119c-0.076,0.047-0.187,0.092-0.217,0.142
				c-0.029,0.047,0.025,0.098,0.059,0.191C23.37,34.935,23.467,34.876,23.488,34.825z"/>
			<path class="st4" d="M26.109,29.045c0.015-0.039-0.048-0.104-0.082-0.094c-0.066,0.018-0.171,0.08-0.197,0.125
				c-0.024,0.042,0.033,0.086,0.072,0.164C26.005,29.146,26.091,29.092,26.109,29.045z"/>
			<path class="st4" d="M25.185,30.841c-0.074,0.112-0.136,0.206-0.223,0.336c0.205-0.084,0.355-0.146,0.543-0.224
				C25.387,30.912,25.295,30.88,25.185,30.841z"/>
			<path class="st4" d="M24.166,31.662c0.184-0.293,0.364-0.578,0.553-0.88c-0.402,0.064-0.771,0.122-1.11,0.176
				C23.793,31.191,23.975,31.42,24.166,31.662z"/>
			<path class="st4" d="M23.795,30.384c0.066-0.002,0.178-0.09,0.335-0.176c-0.101-0.058-0.15-0.128-0.221-0.115
				c-0.074,0.014-0.221,0.113-0.241,0.164C23.649,30.31,23.725,30.386,23.795,30.384z"/>
			<path class="st4" d="M27.387,29.436c-0.126-0.02-0.291,0.012-0.439,0.022c0.185-0.426,0.185-0.426-0.03-0.582
				c-0.193,0.323-0.375,0.627-0.566,0.947c0.415-0.069,0.787-0.131,1.223-0.203C27.496,29.537,27.47,29.45,27.387,29.436z"/>
			<path class="st4" d="M21.619,31.782c0.074-0.048,0.174-0.093,0.212-0.146c0.028-0.039-0.023-0.089-0.052-0.169
				c-0.115,0.085-0.223,0.141-0.233,0.178C21.532,31.698,21.591,31.737,21.619,31.782z"/>
			<path class="st4" d="M25.132,29.57c-0.101,0.223-0.19,0.419-0.28,0.617c0.286-0.055,0.557-0.108,0.86-0.166
				c-0.108,0.239-0.203,0.448-0.301,0.663c0.269-0.049,0.51-0.093,0.781-0.143c-0.099,0.218-0.187,0.411-0.282,0.621
				c0.284-0.062,0.54-0.117,0.806-0.175c-0.077,0.169-0.143,0.314-0.209,0.459c0.158-0.011,0.393-0.333,0.475-0.652
				c-0.264,0.061-0.528,0.123-0.801,0.186c0.128-0.241,0.243-0.457,0.369-0.694c-0.325,0.082-0.608,0.153-0.904,0.228
				c0.106-0.233,0.204-0.449,0.31-0.683c-0.281,0.059-0.546,0.115-0.834,0.175c0.12-0.228,0.23-0.436,0.348-0.66
				c-0.301,0.073-0.566,0.137-0.817,0.198c0.073-0.162,0.144-0.303,0.197-0.442c0.015-0.041-0.019-0.076-0.03-0.113
				c-0.054,0.036-0.14,0.072-0.157,0.107c-0.106,0.212-0.197,0.423-0.295,0.638C24.627,29.678,24.882,29.623,25.132,29.57z"/>
			<path class="st4" d="M20.877,31.794c0.06,0,0.153-0.061,0.296-0.125c-0.078-0.061-0.11-0.124-0.16-0.114
				c-0.067,0.013-0.173,0.078-0.213,0.129C20.776,31.714,20.828,31.794,20.877,31.794z"/>
			<path class="st4" d="M24.724,32.513c0.063-0.16,0.108-0.274,0.161-0.41c-0.182,0.047-0.34,0.087-0.567,0.145
				C24.464,32.343,24.58,32.419,24.724,32.513z"/>
			<path class="st4" d="M25.254,31.77c0.141-0.013,0.283-0.093,0.307-0.207c0.016-0.077-0.051-0.137-0.082-0.204
				c-0.035,0.003-0.069,0.006-0.104,0.009c-0.094,0.078-0.225,0.155-0.273,0.235C25.037,31.713,25.109,31.784,25.254,31.77z"/>
			<path class="st4" d="M21.139,30.808c-0.09-0.056-0.129-0.117-0.189-0.107c-0.064,0.01-0.148,0.088-0.224,0.136
				c0.036,0.041,0.054,0.111,0.113,0.114C20.893,30.953,20.992,30.881,21.139,30.808z"/>
			<path class="st4" d="M16.276,33.002c0.096-0.059,0.227-0.112,0.275-0.178c0.035-0.048-0.039-0.111-0.083-0.209
				c-0.137,0.107-0.263,0.175-0.283,0.23C16.163,32.904,16.242,32.951,16.276,33.002z"/>
			<path class="st4" d="M16.185,37.097c-0.274,0.046-0.402-0.008-0.299-0.245c0.015-0.034-0.05-0.093-0.093-0.085
				c-0.293,0.054-0.321-0.065-0.249-0.251c0.049-0.128-0.003-0.173-0.168-0.139c-0.166,0.034-0.242-0.003-0.194-0.14
				c0.015-0.043,0.002-0.083,0.002-0.126c-0.162,0.011-0.313,0.021-0.47,0.031c0.018-0.112,0.036-0.216,0.055-0.337
				c-0.089,0.024-0.158,0.043-0.24,0.065c0.016,0.072,0.042,0.119,0.035,0.175c-0.034,0.265-0.037,0.265,0.32,0.231
				c0.013-0.001,0.023,0.006,0.034,0.01c0.008,0.299,0.008,0.299,0.369,0.279c-0.024,0.147-0.047,0.286-0.073,0.442
				c0.373-0.072,0.463,0.062,0.34,0.326c0.449,0.029,0.615-0.02,0.771-0.226C16.277,37.101,16.234,37.088,16.185,37.097z"/>
			<path class="st4" d="M19.368,31.796c0.207-0.01,0.419-0.143,0.492-0.307c0.073-0.163-0.034-0.274-0.242-0.255
				c-0.203,0.019-0.396,0.146-0.467,0.306C19.079,31.701,19.168,31.806,19.368,31.796z"/>
			<path class="st4" d="M17.241,36.081c0.075-0.019,0.191-0.097,0.228-0.153c0.024-0.037-0.048-0.118-0.104-0.113
				c-0.069,0.006-0.167,0.082-0.317,0.161C17.139,36.03,17.184,36.095,17.241,36.081z"/>
			<path class="st4" d="M17.264,33.881c0.159,0.103,0.293,0.191,0.456,0.296c0.071-0.18,0.124-0.315,0.187-0.474
				C17.68,33.766,17.493,33.817,17.264,33.881z"/>
			<path class="st4" d="M18.727,31.018c0.256-0.054,0.467-0.098,0.725-0.153c-0.109-0.102-0.19-0.178-0.278-0.261
				C19.026,30.741,18.894,30.864,18.727,31.018z"/>
			<path class="st4" d="M19.176,30.112c-0.017,0.052,0.022,0.122,0.077,0.128c0.049,0.006,0.152-0.065,0.303-0.135
				c-0.087-0.06-0.12-0.119-0.182-0.115C19.322,29.994,19.187,30.077,19.176,30.112z"/>
			<path class="st4" d="M17.711,30.34c-0.085,0.107-0.171,0.215-0.254,0.32c-0.152,0.01-0.282,0.019-0.409,0.027
				c-0.099,0.128-0.198,0.248-0.283,0.37c-0.026,0.038-0.016,0.08-0.022,0.12c0.057-0.027,0.137-0.047,0.168-0.081
				c0.079-0.088,0.137-0.183,0.205-0.276c0.152,0.014,0.284,0.027,0.434,0.041c0.1-0.131,0.182-0.239,0.274-0.359
				c0.146-0.01,0.274-0.018,0.397-0.027c0.092-0.121,0.171-0.225,0.261-0.343c0.137-0.009,0.266-0.018,0.397-0.027
				c0.033-0.044,0.058-0.072,0.075-0.101c0.092-0.15,0.197-0.256,0.419-0.255c0.165,0.001,0.178-0.109,0.219-0.206
				c-0.191,0.013-0.37,0.025-0.549,0.037c-0.092,0.118-0.176,0.225-0.268,0.343c-0.147,0.01-0.276,0.018-0.399,0.027
				C18.137,30.27,18.137,30.27,17.711,30.34z"/>
			<path class="st4" d="M18.143,29.92c0.102-0.127,0.168-0.243,0.277-0.333c0.115-0.095,0.271-0.166,0.438-0.264
				c-0.401,0.027-0.756,0.051-1.134,0.076c-0.056,0.123-0.097,0.235-0.161,0.345c-0.033,0.058-0.098,0.136-0.164,0.169
				c-0.277,0.138-0.295,0.296-0.349,0.474C17.44,30.205,17.764,29.868,18.143,29.92z"/>
			<path class="st4" d="M14.926,37.123c-0.394,0.053-0.734,0.082-0.826-0.228c-0.177,0.265-0.237,0.43-0.054,0.539
				c0.153,0.092,0.271,0.214,0.387,0.334c0.118,0.123,0.327,0.077,0.562,0.02C14.697,37.671,14.72,37.433,14.926,37.123z"/>
			<path class="st4" d="M23.325,35.65c0.109-0.193,0.222-0.254,0.442-0.238c0.309,0.022,0.577-0.133,0.706-0.406
				c0.093-0.197,0.146-0.23,0.381-0.235c0.41-0.009,0.788-0.328,0.729-0.62c-0.005-0.027-0.081-0.025-0.15-0.044
				c-0.038,0.105-0.06,0.174-0.09,0.243c-0.086,0.2-0.199,0.268-0.443,0.273c-0.299,0.005-0.524,0.128-0.678,0.385
				c-0.086,0.143-0.19,0.22-0.374,0.235c-0.363,0.029-0.524,0.122-0.708,0.412c-0.11,0.173-0.25,0.255-0.464,0.266
				c-0.365,0.019-0.532,0.119-0.713,0.425c-0.074,0.124-0.168,0.183-0.321,0.194c-0.48,0.037-0.824,0.318-0.831,0.679
				c-0.001,0.032,0.044,0.07,0.081,0.065c0.04-0.006,0.121-0.059,0.14-0.092c0.05-0.088,0.079-0.177,0.112-0.264
				c0.063-0.167,0.174-0.239,0.364-0.233c0.36,0.011,0.557-0.1,0.712-0.409c0.078-0.156,0.194-0.215,0.369-0.214
				C22.937,36.072,23.16,35.943,23.325,35.65z"/>
			<path class="st4" d="M21.236,35.317c0.035,0.134,0.06,0.228,0.087,0.335c0.159-0.093,0.287-0.168,0.466-0.273
				C21.594,35.358,21.437,35.34,21.236,35.317z"/>
			<path class="st4" d="M20.653,36.365c0.184-0.13,0.315-0.223,0.457-0.323c-0.117-0.056-0.217-0.103-0.351-0.167
				C20.719,36.057,20.69,36.193,20.653,36.365z"/>
			<path class="st4" d="M24.444,36.553c0.14-0.245,0.277-0.475,0.399-0.705c0.027-0.051,0.033-0.123,0-0.146
				c-0.033-0.023-0.137-0.017-0.193,0.012c-0.058,0.029-0.121,0.106-0.137,0.155c-0.046,0.141-0.054,0.277-0.105,0.419
				c-0.111,0.306-0.119,0.307-0.567,0.456c-0.031-0.113-0.073-0.215-0.085-0.328c-0.009-0.077,0-0.167,0.041-0.254
				c0.066-0.139,0.059-0.231-0.103-0.245c-0.151-0.013-0.295,0.059-0.385,0.188c-0.097,0.139-0.047,0.219,0.1,0.248
				c0.051,0.01,0.114,0.024,0.126,0.058c0.048,0.135,0.078,0.279,0.116,0.421c-0.184,0.106-0.349,0.201-0.52,0.3
				c-0.166-0.124-0.468-0.126-0.498-0.355c-0.004-0.031-0.163-0.03-0.241,0.002c-0.065,0.026-0.161,0.134-0.162,0.181
				c-0.001,0.054,0.072,0.096,0.139,0.116c0.104,0.031,0.239,0.029,0.343,0.06c0.098,0.029,0.158,0.102,0.263,0.118
				c0.103,0.016,0.269,0.025,0.36-0.03c0.435-0.261,0.868-0.428,1.318-0.482c0.034-0.075,0.062-0.136,0.095-0.21
				C24.656,36.539,24.579,36.544,24.444,36.553z"/>
			<path class="st4" d="M19.316,35.571c-0.013,0.017-0.021,0.024-0.021,0.028c0.002,0.015-0.001,0.035,0.01,0.044
				c0.276,0.246,0.176,0.6-0.05,0.996c-0.091,0.159-0.148,0.319-0.221,0.479c-0.066,0.145-0.132,0.291-0.202,0.444
				c0.147-0.01,0.262-0.018,0.412-0.028c0.207-0.457,0.416-0.899,0.605-1.341c0.07-0.164,0.169-0.299,0.376-0.422
				c0.137-0.081,0.26-0.183,0.408-0.289C20.165,35.514,19.738,35.543,19.316,35.571z"/>
			<path class="st4" d="M18.533,37.066c0.077,0.05,0.118,0.113,0.165,0.099c0.071-0.021,0.146-0.094,0.219-0.145
				c-0.039-0.033-0.065-0.093-0.122-0.092C18.743,36.931,18.657,36.999,18.533,37.066z"/>
			<path class="st4" d="M18.343,36.632c0.073-0.103,0.142-0.201,0.225-0.318c-0.154,0.042-0.28,0.077-0.407,0.112
				c-0.029-0.073-0.054-0.137-0.089-0.225c-0.198,0.234-0.395,0.301-0.619,0.173c0.007,0.243-0.12,0.396-0.474,0.493
				c0.264,0.075,0.289,0.206-0.005,0.434c0.181-0.033,0.308-0.056,0.436-0.08c0.02,0.086,0.038,0.164,0.063,0.274
				c0.217-0.278,0.433-0.366,0.661-0.206c0.025-0.141,0.042-0.235,0.059-0.334c0.111-0.056,0.22-0.11,0.347-0.174
				C18.466,36.726,18.405,36.679,18.343,36.632z"/>
			<path class="st4" d="M16.387,37.467c-0.017,0.04,0.043,0.101,0.096,0.099c0.054-0.002,0.141-0.069,0.267-0.137
				c-0.081-0.047-0.119-0.102-0.176-0.092C16.517,37.347,16.404,37.425,16.387,37.467z"/>
			<path class="st4" d="M19.949,36.986c-0.015,0.057,0.077,0.094,0.123,0.14c0.086-0.06,0.215-0.12,0.246-0.179
				c0.03-0.056-0.044-0.11-0.093-0.207C20.088,36.857,19.962,36.932,19.949,36.986z"/>
			<path class="st4" d="M16.828,36.521c0.028,0.04,0.038,0.108,0.09,0.113c0.047,0.004,0.14-0.061,0.275-0.125
				c-0.073-0.054-0.103-0.113-0.156-0.106C16.979,36.411,16.899,36.479,16.828,36.521z"/>
			<path class="st4" d="M23.466,29.557c-0.137,0.171-0.252,0.314-0.392,0.488c0.198-0.066,0.343-0.115,0.536-0.179
				C23.558,29.756,23.517,29.668,23.466,29.557z"/>
			<path class="st4" d="M18.876,31.487c-0.121-0.057-0.221-0.105-0.349-0.166c-0.04,0.175-0.071,0.311-0.111,0.487
				C18.592,31.686,18.723,31.594,18.876,31.487z"/>
			<path class="st4" d="M18.417,32.856c0.014-0.139,0.025-0.257,0.041-0.413c-0.213,0.172-0.384,0.31-0.597,0.482
				C18.074,32.899,18.236,32.878,18.417,32.856z"/>
			<path class="st4" d="M23.803,29.186c0.068-0.048,0.167-0.095,0.194-0.143c0.024-0.044-0.031-0.087-0.066-0.165
				c-0.113,0.089-0.224,0.151-0.228,0.185C23.696,29.115,23.766,29.146,23.803,29.186z"/>
			<path class="st4" d="M18.02,32.21c0.036,0.051,0.049,0.132,0.115,0.142c0.05,0.008,0.169-0.076,0.32-0.15
				c-0.082-0.064-0.115-0.136-0.181-0.129C18.206,32.079,18.106,32.161,18.02,32.21z"/>
			<path class="st4" d="M17.558,31.817c-0.028,0.058,0.036,0.112,0.077,0.207c0.133-0.105,0.259-0.176,0.268-0.219
				c0.011-0.059-0.049-0.126-0.117-0.133C17.743,31.667,17.582,31.768,17.558,31.817z"/>
			<path class="st4" d="M17.287,31.562c0.222-0.119,0.408-0.218,0.635-0.339c-0.173-0.026-0.303-0.045-0.451-0.067
				C17.408,31.296,17.355,31.412,17.287,31.562z"/>
			<path class="st4" d="M18.306,30.841c0.048,0.004,0.14-0.059,0.275-0.121c-0.075-0.056-0.105-0.115-0.159-0.108
				c-0.059,0.008-0.139,0.077-0.21,0.119C18.242,30.771,18.253,30.837,18.306,30.841z"/>
			<path class="st4" d="M16.836,32.795c0.208,0.042,0.37,0.074,0.567,0.114c-0.002-0.142-0.003-0.251-0.005-0.387
				C17.201,32.617,17.043,32.694,16.836,32.795z"/>
			<path class="st4" d="M22.724,30.793c0.024-0.012,0.048-0.024,0.073-0.036c-0.433-0.283-0.139-0.758,0.076-1.212
				c0.017-0.036,0.032-0.071,0.048-0.107c0.104-0.229,0.208-0.458,0.315-0.693c-0.143,0.01-0.258,0.017-0.412,0.028
				c-0.035,0.078-0.064,0.142-0.093,0.205c-0.186,0.408-0.363,0.817-0.562,1.226c-0.047,0.098-0.152,0.206-0.255,0.296
				c-0.148,0.129-0.32,0.245-0.499,0.38C21.877,30.85,22.3,30.822,22.724,30.793z"/>
			<path class="st4" d="M20.496,30.392c0.17-0.092,0.291-0.158,0.417-0.226c0.07,0.038,0.136,0.074,0.249,0.136
				c-0.037-0.245,0.152-0.424,0.413-0.612c-0.38,0.131-0.421-0.041-0.492-0.213c-0.117,0.254-0.335,0.387-0.663,0.436
				C20.764,29.947,20.616,30.166,20.496,30.392z"/>
			<path class="st4" d="M20.337,31.025c0.044-0.141,0.073-0.237,0.107-0.345c-0.158,0.044-0.286,0.08-0.46,0.128
				C20.108,30.885,20.208,30.946,20.337,31.025z"/>
			<path class="st4" d="M20.695,29.507c0.018-0.089,0.042-0.204,0.06-0.296c-0.112,0.017-0.245,0.037-0.361,0.054
				c-0.088,0.081-0.195,0.18-0.262,0.242c0.077,0.06,0.157,0.124,0.219,0.173C20.465,29.623,20.588,29.561,20.695,29.507z"/>
			<path class="st4" d="M21.765,29.445c0.096-0.104,0.189-0.205,0.263-0.286c-0.06-0.033-0.135-0.075-0.188-0.104
				c-0.119,0.03-0.232,0.058-0.321,0.081c-0.016,0.084-0.034,0.177-0.05,0.26C21.568,29.413,21.678,29.431,21.765,29.445z"/>
			<path class="st4" d="M21.64,30.195c-0.067,0.104-0.122,0.189-0.205,0.318c0.2-0.085,0.338-0.143,0.506-0.214
				C21.83,30.261,21.745,30.231,21.64,30.195z"/>
			<path class="st4" d="M19.81,30.452c0.05,0.001,0.139-0.066,0.267-0.131c-0.079-0.051-0.115-0.109-0.169-0.099
				c-0.059,0.01-0.136,0.084-0.205,0.129C19.736,30.387,19.755,30.451,19.81,30.452z"/>
			<path class="st4" d="M21.957,29.755c0.062-0.001,0.155-0.064,0.293-0.126c-0.075-0.057-0.107-0.121-0.158-0.111
				c-0.067,0.012-0.15,0.082-0.226,0.127C21.896,29.684,21.907,29.756,21.957,29.755z"/>
		</g>
		<g>
			<path class="st4" d="M23.31,22.346c-0.06-0.015-0.156-0.043-0.248-0.058c-0.053-0.009-0.147-0.007-0.144,0.005
				c0.027,0.134-0.134,0.092-0.243,0.1c-0.3,0.024-0.597,0.051-0.899,0.078c0.062,0.087,0.103,0.145,0.151,0.213
				c0.144-0.013,0.267-0.038,0.406-0.031c0.133,0.007,0.208-0.097,0.408,0.027c0.282,0.174,0.098-0.112,0.236-0.087
				c0.007,0.001,0.016-0.004,0.02-0.001c0.38,0.195,0.424-0.108,0.731-0.046c0.172,0.035,0.327-0.02,0.487-0.034
				c-0.066-0.094-0.123-0.174-0.188-0.266c-0.164,0.014-0.313,0.027-0.405,0.035c-0.136-0.074-0.222-0.12-0.307-0.167
				C23.313,22.177,23.312,22.241,23.31,22.346z"/>
			<path class="st4" d="M21.68,21.387c0.29-0.032,0.372-0.25,0.189-0.502c-0.167-0.23-0.522-0.379-0.839-0.351
				c-0.278,0.025-0.337,0.208-0.149,0.467C21.085,21.281,21.373,21.421,21.68,21.387z M21.098,20.65
				c0.159-0.02,0.377,0.077,0.478,0.211c0.108,0.143,0.058,0.244-0.13,0.263c-0.176,0.018-0.349-0.056-0.452-0.193
				C20.891,20.796,20.938,20.67,21.098,20.65z"/>
			<path class="st4" d="M23.028,21.062c0.03,0.013,0.059,0.026,0.089,0.039c0.013-0.036,0.054-0.073,0.033-0.109
				c-0.064-0.111-0.146-0.223-0.234-0.332c-0.024-0.03-0.095-0.052-0.144-0.078c-0.005,0.033-0.031,0.067-0.01,0.099
				C22.842,20.808,22.938,20.935,23.028,21.062z"/>
			<path class="st4" d="M22.508,23c-0.042-0.038-0.118-0.062-0.18-0.092c-0.013,0.033-0.05,0.064-0.034,0.099
				c0.036,0.078,0.084,0.161,0.154,0.235c0.062,0.066,0.195,0.176,0.235,0.173c0.162-0.01,0.025-0.121-0.018-0.198
				c-0.009-0.017-0.023-0.034-0.035-0.05c0.001,0,0.001,0,0.002,0C22.591,23.11,22.563,23.05,22.508,23z"/>
			<path class="st4" d="M20.014,20.788c0.12,0.119,0.173,0.257,0.273,0.385c0.094,0.119,0.186,0.254,0.323,0.347
				c0.256,0.175,0.541,0.328,0.821,0.482c0.069,0.038,0.178,0.071,0.241,0.066c0.589-0.045,1.172-0.098,1.773-0.151
				c-0.028-0.053-0.037-0.075-0.052-0.096c-0.312-0.454-0.622-0.909-0.941-1.363c-0.032-0.046-0.116-0.096-0.185-0.129
				c-0.235-0.114-0.471-0.229-0.712-0.328c-0.112-0.046-0.251-0.082-0.35-0.078c-0.249,0.009-0.471,0.062-0.725,0.06
				c-0.282-0.002-0.447,0.073-0.505,0.247c-0.015,0.046-0.04,0.089-0.065,0.13C19.835,20.485,19.835,20.611,20.014,20.788z
				 M20.331,20.256c0.008-0.017,0.02-0.039,0.042-0.041c0.34-0.034,0.666-0.093,1.029-0.083c0.162,0.005,0.397,0.163,0.6,0.228
				c0.271,0.087,0.314,0.237,0.411,0.379c0.205,0.297,0.418,0.593,0.618,0.89c0.034,0.05,0.016,0.104,0.022,0.156
				c-0.033-0.008-0.067-0.016-0.1-0.024c-0.068-0.088-0.126-0.179-0.208-0.263c-0.035-0.037-0.117-0.06-0.177-0.09
				c-0.008,0.038-0.037,0.076-0.018,0.115c0.035,0.072,0.106,0.145,0.148,0.218c0.012,0.021-0.017,0.049-0.042,0.06
				c-0.009,0.004-0.066-0.028-0.096-0.047c-0.073-0.047-0.144-0.096-0.215-0.144c-0.009,0.061-0.018,0.122-0.032,0.216
				c-0.041-0.028-0.092-0.066-0.146-0.099c-0.057-0.035-0.118-0.067-0.177-0.1c-0.01,0.042-0.025,0.082-0.029,0.126
				c-0.004,0.038,0.004,0.08,0.006,0.122c-0.145-0.1-0.242-0.167-0.339-0.234c-0.004,0.075-0.009,0.151-0.015,0.252
				c-0.02-0.005-0.1-0.011-0.159-0.043c-0.473-0.263-0.87-0.529-1.118-0.938C20.153,20.609,20.239,20.447,20.331,20.256z"/>
			<path class="st4" d="M21.58,22.666c-0.02-0.028-0.032-0.061-0.061-0.082c-0.057-0.041-0.124-0.075-0.187-0.113
				c-0.012,0.041-0.032,0.08-0.033,0.124c0,0.023,0.028,0.056,0.052,0.083c0.071,0.078,0.09,0.209,0.258,0.2
				c0.049-0.003,0.019-0.126,0.025-0.194C21.616,22.678,21.598,22.672,21.58,22.666z"/>
			<path class="st4" d="M14.558,21.085c0.027,0.042-0.015,0.089-0.03,0.131c-0.01,0.028-0.028,0.053-0.043,0.079
				c0.055,0.026,0.112,0.065,0.164,0.075c0.215,0.041,0.257,0.073,0.208,0.196c-0.051,0.13-0.12,0.252-0.176,0.367
				c0.335,0.165,0.642,0.315,0.969,0.477c0.08-0.192,0.155-0.369,0.229-0.547c-0.269-0.187-0.644-0.247-0.867-0.455
				c0.075-0.068,0.127-0.115,0.179-0.162c-0.098-0.032-0.195-0.065-0.362-0.12c-0.191-0.269-0.41-0.578-0.638-0.899
				c-0.095,0.012-0.151,0.02-0.214,0.028c0.04,0.056,0.071,0.099,0.101,0.143C14.24,20.627,14.408,20.855,14.558,21.085z"/>
			<path class="st4" d="M20.494,21.865c0.2-0.02,0.003-0.157-0.051-0.241c-0.052-0.081-0.077-0.222-0.261-0.213
				c-0.048,0.002-0.008,0.14-0.009,0.232C20.3,21.735,20.448,21.87,20.494,21.865z"/>
			<path class="st4" d="M19.751,20.037c-0.197-0.003-0.35-0.005-0.531-0.007c0.126,0.135,0.229,0.245,0.344,0.367
				C19.627,20.275,19.682,20.17,19.751,20.037z"/>
			<path class="st4" d="M14.003,21.669c-0.239-0.001-0.455-0.003-0.703-0.004c-0.275-0.388-0.541-0.756-0.796-1.126
				c-0.106-0.154-0.21-0.178-0.373-0.103c0.412,0.581,0.831,1.172,1.245,1.756c-0.099,0.022-0.159,0.036-0.21,0.047
				c0.054,0.077,0.099,0.14,0.146,0.206c0.4-0.035,0.781-0.068,1.169-0.102C14.314,22.108,14.158,21.888,14.003,21.669z
				 M13.525,21.908c0.09-0.023,0.173-0.046,0.26-0.065c0.029-0.006,0.066-0.003,0.113-0.005c0.071,0.1,0.136,0.192,0.207,0.292
				c-0.125,0.016-0.248,0.032-0.387,0.05C13.647,22.08,13.589,21.999,13.525,21.908z"/>
			<path class="st4" d="M13.927,21.011c-0.173-0.244-0.337-0.476-0.502-0.707c-0.097,0.008-0.169,0.015-0.251,0.022
				c0.178,0.25,0.339,0.478,0.502,0.707C13.774,21.025,13.858,21.017,13.927,21.011z"/>
			<path class="st4" d="M13.096,20.558c-0.095-0.041-0.209-0.115-0.278-0.113c-0.068,0.001-0.09,0.079-0.168,0.161
				c0.179,0.055,0.304,0.116,0.365,0.104C13.075,20.698,13.072,20.612,13.096,20.558z"/>
			<path class="st4" d="M19.812,20.917c0.049,0.002,0.062-0.067,0.114-0.135c-0.136-0.044-0.241-0.098-0.28-0.086
				c-0.053,0.016-0.054,0.083-0.078,0.127C19.65,20.857,19.744,20.914,19.812,20.917z"/>
			<path class="st4" d="M17.165,20.518c0.135,0.071,0.267,0.141,0.408,0.215c-0.021,0.097-0.041,0.192-0.062,0.292
				c0.145,0.08,0.283,0.155,0.421,0.231c-0.02,0.095-0.039,0.181-0.06,0.281c0.184,0.067,0.352,0.266,0.57,0.164
				c-0.324-0.201-0.324-0.201-0.323-0.495c-0.064-0.035-0.129-0.072-0.195-0.108c-0.073-0.039-0.147-0.077-0.223-0.117
				c0.016-0.048,0.032-0.087,0.043-0.129c0.012-0.046,0.019-0.095,0.028-0.139c-0.377-0.215-0.377-0.215-0.37-0.513
				c-0.429-0.23-0.432-0.231-0.593-0.167c0.136,0.07,0.267,0.137,0.402,0.206C17.195,20.335,17.181,20.422,17.165,20.518z"/>
			<path class="st4" d="M23.308,23.41c0.038,0-0.006-0.146-0.013-0.248c-0.121-0.081-0.221-0.147-0.322-0.214
				c0.018,0.077,0.009,0.157,0.062,0.231C23.095,23.265,23.11,23.408,23.308,23.41z"/>
			<path class="st4" d="M21.967,19.801c-0.109,0.025-0.191,0.043-0.315,0.072c0.176,0.069,0.298,0.118,0.454,0.179
				C22.066,19.979,22.021,19.899,21.967,19.801z"/>
			<path class="st4" d="M19.21,21.263c0.197,0.093,0.368,0.174,0.551,0.26c0.044-0.104,0.084-0.201,0.118-0.283
				c-0.678-0.427-0.758-0.947-1.204-1.393c-0.074,0.006-0.145,0.013-0.228,0.02c0.226,0.319,0.439,0.626,0.663,0.932
				C19.239,20.976,19.367,21.147,19.21,21.263z"/>
			<path class="st4" d="M18.597,20.651c0.009,0.034,0.102,0.082,0.21,0.163c0.022-0.08,0.061-0.124,0.037-0.17
				c-0.018-0.035-0.116-0.073-0.179-0.11C18.64,20.571,18.586,20.605,18.597,20.651z"/>
			<path class="st4" d="M20.001,22.095c0.145,0.029,0.291,0.058,0.434,0.087c0.15,0.361,0.148,0.358,0.491,0.396
				c0.136,0.015,0.175-0.01,0.084-0.119c-0.096-0.015-0.195-0.031-0.304-0.049c-0.061-0.115-0.119-0.225-0.179-0.339
				c-0.152-0.021-0.288-0.04-0.43-0.06c-0.033-0.079-0.061-0.145-0.094-0.224C19.838,21.801,19.841,21.853,20.001,22.095z"/>
			<path class="st4" d="M26.477,26.399c0.115,0.057,0.239,0.144,0.343,0.161c0.091,0.015,0.159-0.051,0.237-0.081
				c-0.023-0.025-0.046-0.049-0.069-0.074c-0.167-0.02-0.334-0.041-0.501-0.061C26.484,26.361,26.48,26.38,26.477,26.399z"/>
			<path class="st4" d="M25.802,25.648c-0.155,0.043-0.294,0.082-0.45,0.126C25.679,25.89,25.813,25.853,25.802,25.648z"/>
			<path class="st4" d="M27.1,27.626c-0.098,0.002-0.188,0.005-0.306,0.008c-0.09-0.217-0.248-0.373-0.565-0.334
				c-0.041-0.098-0.073-0.175-0.11-0.262c-0.41-0.061-0.426-0.057-0.435,0.113c0.099,0.013,0.196,0.026,0.291,0.039
				c0.056,0.079,0.106,0.15,0.158,0.223c0.116,0.019,0.223,0.037,0.342,0.057c0.077,0.108,0.15,0.212,0.232,0.327
				c0.173-0.002,0.334-0.004,0.51-0.006C27.171,27.726,27.138,27.679,27.1,27.626z"/>
			<path class="st4" d="M26.667,25.96c-0.077-0.108-0.118-0.166-0.173-0.243c-0.067,0.015-0.117,0.025-0.164,0.037
				c-0.049,0.012-0.096,0.027-0.144,0.04c0.006,0.016,0.013,0.033,0.019,0.049C26.345,25.878,26.485,25.914,26.667,25.96z"/>
			<path class="st4" d="M24.907,28.025c-0.193-0.003-0.345-0.043-0.423-0.221c-0.046-0.106-0.146-0.149-0.281-0.144
				c-0.158,0.006-0.303-0.03-0.384-0.186c-0.025-0.048-0.075-0.097-0.087-0.112c-0.18-0.052-0.352-0.069-0.452-0.139
				c-0.111-0.077-0.157-0.203-0.232-0.309c-0.174-0.008-0.328-0.015-0.504-0.023c-0.083-0.116-0.159-0.224-0.237-0.334
				c-0.14-0.002-0.256-0.004-0.371-0.006c-0.004,0.015-0.008,0.029-0.012,0.044c0.058,0.024,0.128,0.068,0.172,0.068
				c0.122-0.002,0.175,0.048,0.223,0.125c0.053,0.087,0.11,0.173,0.164,0.258c0.18,0.013,0.329,0.024,0.487,0.036
				c0.068,0.109,0.13,0.207,0.203,0.323c0.308-0.022,0.554,0.054,0.644,0.339c0.064,0.01,0.088,0.016,0.109,0.016
				c0.227,0.002,0.424,0.043,0.526,0.264c0.014,0.03,0.105,0.091,0.141,0.093c0.181,0.012,0.355,0.009,0.531,0.012
				c-0.008-0.021-0.015-0.041-0.023-0.062C25.036,28.051,24.965,28.026,24.907,28.025z"/>
			<path class="st4" d="M22.39,27.55c-0.023,0.057-0.085,0.113-0.056,0.173c0.02,0.042,0.165,0.09,0.317,0.167
				c0.007-0.097,0.048-0.164,0.005-0.211C22.607,27.626,22.482,27.592,22.39,27.55z"/>
			<path class="st4" d="M21.1,28.06c0.107-0.037,0.129-0.089,0.033-0.187c-0.162-0.165-0.105-0.238,0.075-0.266
				c0.043-0.007,0.077-0.025,0.121-0.04c-0.079-0.112-0.152-0.215-0.227-0.321c0.139-0.047,0.268-0.092,0.408-0.139
				c-0.101-0.123-0.182-0.221-0.238-0.288c-0.008-0.109,0.304-0.041,0.084-0.231c-0.126,0.032-0.239,0.06-0.365,0.092
				c0.089,0.126,0.171,0.241,0.258,0.364c-0.08,0.025-0.14,0.059-0.219,0.065c-0.171,0.014-0.204,0.079-0.068,0.211
				c0.152,0.148,0.09,0.21-0.064,0.23c-0.135,0.018-0.135,0.079-0.043,0.177c0.144,0.153,0.105,0.232-0.072,0.259
				c-0.038,0.006-0.069,0.019-0.114,0.033c0.071,0.1,0.137,0.193,0.201,0.284c-0.314,0.114-0.314,0.114-0.239,0.206
				c0.075-0.006,0.154-0.008,0.224-0.021c0.181-0.032,0.337-0.073,0.167-0.288C20.99,28.159,21.043,28.08,21.1,28.06z"/>
			<path class="st4" d="M22.419,27.181c-0.16-0.101-0.53-0.101-0.539,0.007c-0.027,0.323-0.037,0.652-0.054,0.992
				c0.275-0.006,0.51-0.011,0.743-0.016c0.059,0.057,0.111,0.107,0.159,0.153c0.124-0.011,0.232-0.02,0.343-0.03
				c-0.03-0.066-0.057-0.124-0.086-0.186c0.253-0.022,0.49-0.043,0.773-0.067C23.282,27.731,22.852,27.455,22.419,27.181z
				 M22.688,27.929c-0.212,0.012-0.421-0.072-0.517-0.208c-0.097-0.137-0.039-0.268,0.126-0.286c0.177-0.019,0.394,0.078,0.492,0.22
				C22.898,27.815,22.859,27.919,22.688,27.929z"/>
			<path class="st4" d="M25.513,25.196c0.128,0.039,0.275,0.109,0.378,0.106c0.085-0.002,0.118-0.09,0.173-0.14
				c-0.023-0.015-0.045-0.03-0.068-0.045c-0.162,0.004-0.324,0.008-0.486,0.012C25.511,25.151,25.512,25.173,25.513,25.196z"/>
			<path class="st4" d="M25.553,24.387c-0.044-0.063-0.079-0.111-0.116-0.163c-0.162,0.014-0.315,0.027-0.473,0.041
				c0.044,0.062,0.078,0.111,0.116,0.163C25.252,24.413,25.4,24.4,25.553,24.387z"/>
			<path class="st4" d="M24.918,25.339c-0.054,0.046-0.049,0.131-0.07,0.198c0.025,0.01,0.05,0.02,0.074,0.03
				c0.147-0.05,0.295-0.1,0.474-0.161C25.175,25.311,25.01,25.261,24.918,25.339z"/>
			<path class="st4" d="M24.544,24.54c0.156-0.004,0.215-0.103,0.136-0.219c-0.079-0.116-0.266-0.203-0.408-0.183
				c-0.144,0.02-0.191,0.091-0.108,0.224C24.255,24.48,24.385,24.543,24.544,24.54z"/>
			<path class="st4" d="M23.611,23.713c-0.157,0.002-0.338-0.024-0.511-0.066c-0.349-0.084-0.699-0.188-1.063-0.287
				c0.278,0.392,0.537,0.757,0.817,1.151c0.413-0.35,0.757-0.74,1.623-0.634c0.073,0.037,0.155,0.079,0.237,0.12
				c0.013-0.057,0.027-0.113,0.044-0.188c0.04-0.071,0.427,0.082,0.272-0.184c-0.163,0.014-0.299,0.026-0.385,0.034
				c-0.147-0.074-0.246-0.124-0.345-0.174c0.001,0.056,0.003,0.112,0.004,0.173C24.079,23.677,23.854,23.71,23.611,23.713z
				 M22.951,24.096c-0.007,0.007-0.16-0.077-0.305-0.149c0.04-0.082,0.039-0.181,0.105-0.188c0.101-0.011,0.298-0.036,0.358,0.104
				C23.147,23.95,23.023,24.027,22.951,24.096z"/>
			<path class="st4" d="M23.855,24.35c-0.065-0.045-0.139-0.084-0.21-0.125c-0.01,0.047-0.041,0.092-0.024,0.142
				c0.019,0.058,0.067,0.128,0.128,0.183c0.052,0.046,0.14,0.077,0.212,0.115c0.008-0.043,0.026-0.085,0.02-0.131
				c-0.004-0.029-0.044-0.066-0.068-0.1c0.001,0,0.003,0,0.004,0C23.896,24.405,23.885,24.371,23.855,24.35z"/>
			<path class="st4" d="M23.707,23.047c-0.041,0.007-0.07,0.068-0.048,0.101c0.024,0.035,0.123,0.088,0.174,0.093
				c0.112,0.012,0.214-0.002,0.303-0.004c0.085-0.007,0.171,0.001,0.218-0.023c0.051-0.026,0.065-0.081,0.095-0.123
				c-0.078-0.032-0.172-0.09-0.231-0.09C24.039,23.003,23.869,23.021,23.707,23.047z"/>
			<path class="st4" d="M23.551,26.185c0.17,0.008,0.389,0.059,0.561,0.14c0.429,0.203,0.843,0.435,1.279,0.663
				c0.207-0.131,0.19-0.17-0.149-0.324c-0.385-0.174-0.811-0.259-1.152-0.528c-0.021-0.017-0.062-0.025-0.093-0.034
				c-0.14-0.041-0.222-0.092-0.27-0.207c-0.085-0.206-0.369-0.368-0.602-0.366c-0.233,0.002-0.349,0.173-0.237,0.351
				C23,26.06,23.282,26.172,23.551,26.185z M23.172,25.681c0.109-0.047,0.272,0.041,0.33,0.147c0.043,0.078,0.005,0.155,0.003,0.286
				c-0.198-0.101-0.384-0.162-0.412-0.218C23.054,25.819,23.096,25.713,23.172,25.681z"/>
			<path class="st4" d="M24.931,24.671c-0.012-0.005-0.068,0.035-0.057,0.055c0.079,0.139-0.063,0.122-0.169,0.131
				c-0.335,0.029-0.671,0.058-1.026,0.089c0.076,0.107,0.162,0.228,0.223,0.314c-0.068,0.063-0.115,0.106-0.162,0.149
				c0.106,0.039,0.213,0.078,0.326,0.119c0.085,0.069,0.174,0.172,0.29,0.23c0.853,0.427,1.713,0.84,2.566,1.267
				c0.227,0.113,0.395,0.129,0.574,0.086c-0.047-0.062-0.089-0.115-0.115-0.149c-0.137-0.014-0.264,0.002-0.364-0.043
				c-0.337-0.153-0.665-0.327-0.981-0.485c0.032-0.058,0.058-0.106,0.084-0.153c-0.182-0.017-0.349,0.006-0.484-0.052
				c-0.37-0.16-0.728-0.353-1.089-0.537c-0.062-0.032-0.165-0.11-0.159-0.121c0.099-0.159-0.188-0.29-0.285-0.433
				c-0.006-0.009,0.001-0.019,0.003-0.041c0.245-0.031,0.498-0.064,0.753-0.095c0.079-0.01,0.155-0.03,0.245,0.068
				c0.012,0.013,0.171,0.009,0.169,0.005c-0.062-0.153,0.117-0.115,0.227-0.128c0.134-0.016,0.273-0.025,0.427-0.038
				c-0.043-0.056-0.078-0.101-0.116-0.151c-0.224,0.02-0.429,0.037-0.604,0.053C25.097,24.753,25.016,24.707,24.931,24.671z"/>
			<path class="st4" d="M23.048,24.866c-0.041-0.046-0.158-0.109-0.211-0.11c-0.053-0.001-0.1,0.06-0.092,0.106
				c0.01,0.06,0.075,0.132,0.117,0.199c0.003,0,0.005,0,0.008,0c0.035,0.05,0.057,0.11,0.11,0.147
				c0.067,0.048,0.159,0.078,0.24,0.115c0.018-0.047,0.071-0.092,0.047-0.142C23.217,25.077,23.139,24.968,23.048,24.866z"/>
			<path class="st4" d="M19.673,26.033c-0.074-0.029-0.19-0.093-0.215-0.082c-0.099,0.047-0.313,0.026-0.237,0.183
				c0.017,0.034,0.131,0.073,0.244,0.134C19.547,26.176,19.61,26.105,19.673,26.033z"/>
			<path class="st4" d="M19.606,27.385c-0.023-0.045-0.03-0.104-0.073-0.133c-0.099-0.068-0.216-0.122-0.326-0.181
				c-0.005-0.115-0.01-0.229-0.016-0.362c0.144,0.009,0.293,0.028,0.425,0.022c0.058-0.003,0.084-0.057,0.124-0.088
				c-0.074-0.045-0.178-0.133-0.216-0.129c-0.371,0.036-0.645-0.116-0.875-0.391c-0.009-0.01-0.035-0.021-0.037-0.028
				c-0.012-0.043-0.046-0.103-0.022-0.125c0.064-0.058,0.17-0.09,0.225-0.152c0.026-0.029-0.029-0.105-0.047-0.16
				c-0.059-0.003-0.137-0.021-0.175-0.005c-0.097,0.04-0.17,0.1-0.264,0.142c-0.042,0.019-0.11,0.034-0.168,0.019
				c-0.171-0.045-0.342-0.107-0.515-0.162c-0.008-0.025-0.013-0.047-0.022-0.068c-0.034-0.082-0.001-0.19-0.199-0.221
				c-0.175-0.028-0.131,0.083-0.118,0.169c0.008,0.056,0.033,0.126,0.004,0.163c-0.074,0.094-0.175,0.174-0.274,0.268
				c-0.052-0.025-0.128-0.059-0.202-0.097c-0.082-0.042-0.161-0.1-0.245-0.128c-0.064-0.022-0.132-0.009-0.199-0.012
				c0.028,0.05,0.05,0.1,0.088,0.149c0.019,0.023,0.068,0.046,0.106,0.063c0.308,0.137,0.498,0.274,0.546,0.532
				c0.032,0.171-0.026,0.217-0.2,0.233c-0.189,0.018-0.38,0.033-0.575,0.05c0.046,0.065,0.089,0.125,0.147,0.207
				c0.181-0.023,0.351-0.048,0.525-0.067c0.223-0.024,0.441-0.022,0.694,0.178c0.113,0.09,0.273,0.162,0.419,0.225
				c0.422,0.183,0.703,0.175,0.91-0.013c0.022-0.02,0.046-0.038,0.075-0.062c0.107,0.056,0.201,0.115,0.3,0.153
				C19.482,27.395,19.546,27.383,19.606,27.385z M18.852,27.171c-0.091,0.108-0.253,0.119-0.473,0.056
				c-0.417-0.118-0.753-0.341-0.962-0.637c-0.228-0.324-0.168-0.642,0.168-0.75c0.075-0.024,0.218-0.006,0.325,0.029
				C18.647,26.114,19.151,26.816,18.852,27.171z"/>
			<path class="st4" d="M18.571,27.594c-0.006-0.009-0.178-0.029-0.177-0.02c0.009,0.121,0.028,0.245,0.064,0.371
				c0.005,0.018,0.117,0.053,0.216,0.096c0.019-0.065,0.057-0.109,0.041-0.16C18.686,27.788,18.631,27.69,18.571,27.594z"/>
			<path class="st4" d="M18.252,26.656c0.059-0.047,0.1-0.08,0.141-0.113c-0.111-0.043-0.223-0.086-0.397-0.154
				c-0.048-0.025-0.141-0.073-0.234-0.121c-0.001,0.062-0.001,0.124-0.002,0.173c-0.032,0.049-0.064,0.09-0.083,0.137
				c-0.002,0.005,0.096,0.067,0.111,0.064c0.175-0.041,0.277,0.066,0.398,0.17c0.036,0.031,0.121,0.039,0.184,0.058
				c-0.012-0.042-0.015-0.084-0.04-0.125C18.305,26.705,18.259,26.665,18.252,26.656z"/>
			<path class="st4" d="M19.102,27.5c-0.042-0.004-0.052,0.07-0.099,0.142c0.191,0.105,0.339,0.186,0.487,0.268
				c0.008-0.037,0.047-0.086,0.02-0.111C19.391,27.688,19.337,27.521,19.102,27.5z"/>
			<path class="st4" d="M16.786,25.237c-0.19-0.11-0.335-0.193-0.48-0.277c-0.016,0.053-0.075,0.115-0.038,0.158
				c0.097,0.113,0.2,0.263,0.413,0.266C16.732,25.384,16.74,25.307,16.786,25.237z"/>
			<path class="st4" d="M18.196,25.482c-0.014-0.068-0.001-0.139-0.05-0.202c-0.035-0.046-0.151-0.082-0.231-0.122
				c-0.005,0.064-0.039,0.126-0.007,0.192c0.023,0.046,0.137,0.095,0.21,0.143C18.145,25.488,18.171,25.485,18.196,25.482z"/>
			<path class="st4" d="M16.9,26.383c-0.079-0.034-0.168-0.093-0.234-0.098c-0.103-0.008-0.192,0.018-0.281,0.037
				c-0.01,0.002,0.019,0.068,0.03,0.072c0.112,0.033,0.225,0.059,0.356,0.091C16.821,26.446,16.861,26.415,16.9,26.383z"/>
			<path class="st4" d="M17.509,27.142c-0.148,0.01-0.244,0.147-0.158,0.222c0.042,0.037,0.173,0.086,0.192,0.074
				c0.09-0.054,0.156-0.127,0.23-0.194c-0.02-0.02-0.04-0.04-0.059-0.06C17.645,27.17,17.565,27.139,17.509,27.142z"/>
			<path class="st4" d="M21.069,23.713c-0.038-0.037-0.123-0.084-0.168-0.086c-0.043-0.002-0.06,0.048-0.112,0.098
				c0.111,0.036,0.184,0.074,0.231,0.071C21.056,23.794,21.088,23.731,21.069,23.713z"/>
			<path class="st4" d="M20.646,25.144c-0.341-0.172-0.653-0.33-0.942-0.476c-0.049,0.083-0.084,0.144-0.114,0.195
				c0.439,0.202,0.867,0.4,1.287,0.593c0.117-0.249,0.234-0.497,0.35-0.742c-0.094-0.042-0.204-0.092-0.345-0.156
				C20.807,24.743,20.734,24.926,20.646,25.144z"/>
			<path class="st4" d="M17.725,27.801c-0.019,0.066-0.059,0.128-0.047,0.201c0.005,0.03,0.123,0.084,0.257,0.17
				c0.007-0.117,0.034-0.185,0.005-0.259C17.929,27.882,17.8,27.839,17.725,27.801z"/>
			<path class="st4" d="M18.929,24.343c-0.009,0.048-0.049,0.098-0.019,0.143c0.028,0.042,0.131,0.079,0.26,0.152
				c0.004-0.092,0.038-0.154,0.001-0.188C19.118,24.403,19.012,24.378,18.929,24.343z"/>
			<path class="st4" d="M22.316,24.968c0.011-0.175-0.06-0.375-0.093-0.564c-0.013,0-0.025,0-0.038,0
				c0.032-0.048,0.064-0.096,0.095-0.145c-0.087-0.028-0.174-0.057-0.279-0.091c-0.02-0.028-0.054-0.076-0.056-0.079
				c0.07-0.072,0.119-0.123,0.168-0.174C22,23.887,21.887,23.86,21.759,23.83c0.001,0.001-0.029-0.022-0.026-0.031
				c0.02-0.058,0.097-0.119,0.061-0.168c-0.045-0.061-0.191-0.106-0.279-0.168c-0.115-0.082-0.205-0.184-0.325-0.259
				c-0.354-0.219-0.715-0.431-1.078-0.64c-0.363-0.209-0.68-0.433-0.864-0.727c-0.202-0.322-0.441-0.643-0.664-0.961
				c-0.224-0.32-0.428-0.64-0.721-0.958c-0.078,0.007-0.163,0.014-0.279,0.024c0.1,0.106,0.184,0.195,0.269,0.284
				c0.097,0.101,0.264,0.216,0.281,0.301c0.052,0.265,0.222,0.506,0.523,0.745c0.023,0.018,0.037,0.044,0.048,0.066
				c0.128,0.244,0.254,0.488,0.381,0.731c-0.378,0.033-0.78,0.068-1.238,0.108c-0.246-0.347-0.482-0.68-0.718-1.012
				c-0.264-0.372-0.528-0.744-0.785-1.107c-0.24-0.038-0.291,0.04-0.234,0.164c0.024,0.053,0.159,0.107,0.209,0.167
				c0.235,0.284,0.459,0.571,0.687,0.856c-0.033-0.005-0.067-0.009-0.1-0.014c-0.029,0.049-0.108,0.107-0.076,0.145
				c0.052,0.062,0.177,0.11,0.318,0.191c0.012,0.015,0.05,0.072,0.1,0.126c0.336,0.358,0.489,0.698,0.432,1.024
				c-0.03,0.175-0.032,0.361-0.044,0.543c-0.014,0.212-0.13,0.402,0.078,0.625c-0.058,0.069-0.095,0.113-0.133,0.157
				c0.089,0.034,0.177,0.067,0.266,0.101c0.029,0.004,0.057,0.008,0.086,0.013c-0.021,0.035-0.04,0.071-0.063,0.105
				c-0.023,0.032-0.051,0.062-0.077,0.093c0.064,0.023,0.131,0.041,0.191,0.07c0.057,0.028,0.108,0.068,0.161,0.102
				c-0.132,0.08-0.081,0.14,0.137,0.198c0.036,0.01,0.072,0.068,0.112,0.102c0.092,0.079,0.176,0.167,0.282,0.235
				c0.565,0.36,1.137,0.715,1.694,1.065c-0.305,0.824-0.607,1.641-0.908,2.457c0.02,0.016,0.04,0.032,0.059,0.048
				c0.111-0.043,0.287-0.056,0.322-0.134c0.246-0.537,0.469-1.085,0.685-1.635c0.08-0.202,0.026-0.489,0.207-0.613
				c0.187-0.127,0.594-0.092,0.887-0.149c0.226-0.044,0.429,0,0.671,0.163c0.128,0.087,0.276,0.159,0.42,0.23
				c0.976,0.486,1.955,0.965,2.927,1.458c0.24,0.122,0.376,0.099,0.534,0.056c-1.345-0.691-2.671-1.372-3.992-2.051
				C22.228,25.63,22.295,25.306,22.316,24.968z M21.523,25.768c-0.061-0.025-0.199-0.004-0.203,0.03
				c-0.018,0.122-0.073,0.131-0.244,0.014c-0.181-0.124-0.28-0.091-0.278,0.083c-0.175,0.052-0.343-0.016-0.541-0.137
				c-0.447-0.273-0.929-0.517-1.354-0.806c-0.208-0.142-0.324-0.357-0.473-0.54c-0.013-0.016,0.05-0.037,0.048-0.064
				c-0.002-0.033-0.022-0.09-0.056-0.109c-0.228-0.129-0.505-0.438-0.489-0.583c0.038-0.359,0.087-0.714,0.141-1.067
				c0.018-0.118,0.116-0.146,0.322-0.035c0.131,0.071,0.222,0.071,0.249-0.028c0.029-0.105,0.141-0.115,0.319-0.018
				c0.185,0.102,0.282,0.082,0.269-0.05c-0.012-0.126,0.114-0.113,0.241-0.038c0.559,0.333,1.114,0.67,1.659,1.017
				c0.073,0.046,0.082,0.152,0.142,0.273c0.279,0.178,0.447,0.417,0.397,0.613c0.292,0.146,0.29,0.166,0.265,0.362
				c-0.043,0.331-0.057,0.671-0.08,1.009C21.844,25.878,21.802,25.882,21.523,25.768z"/>
			<path class="st4" d="M20.298,24.107c-0.176-0.081-0.363-0.167-0.561-0.259c-0.051,0.109-0.102,0.217-0.139,0.296
				c0.207,0.113,0.389,0.211,0.542,0.295C20.198,24.319,20.248,24.212,20.298,24.107z"/>
			<path class="st4" d="M20.239,23.618c0.04-0.061,0.076-0.117,0.107-0.166c-0.457-0.21-0.885-0.407-1.302-0.598
				c-0.113,0.24-0.231,0.488-0.35,0.741c0.083,0.04,0.187,0.091,0.351,0.171c0.073-0.205,0.141-0.395,0.219-0.612
				C19.622,23.324,19.934,23.472,20.239,23.618z"/>
			<path class="st4" d="M15.194,25.101c0.25-0.202,0.482-0.389,0.743-0.6c-0.514-0.146-0.981-0.28-1.464-0.417
				C14.725,24.439,14.952,24.759,15.194,25.101z"/>
			<path class="st4" d="M21.05,24.198c-0.06,0.006-0.101,0.1-0.069,0.153c0.031,0.052,0.167,0.102,0.324,0.191
				c0.013-0.107,0.061-0.177,0.016-0.228C21.275,24.263,21.112,24.192,21.05,24.198z"/>
			<path class="st4" d="M17.028,23.109c-0.147-0.046-0.322-0.133-0.431-0.126c-0.11,0.008-0.155,0.111-0.229,0.172
				c0.021,0.017,0.042,0.033,0.064,0.05c0.201-0.01,0.401-0.02,0.602-0.03C17.031,23.154,17.029,23.131,17.028,23.109z"/>
			<path class="st4" d="M15.842,20.828c0.053,0.098,0.088,0.189,0.153,0.276c0.137,0.183,0.273,0.369,0.445,0.543
				c0.054,0.055,0.222,0.077,0.338,0.114c-0.008-0.039,0.004-0.081-0.026-0.116c-0.24-0.275-0.489-0.549-0.743-0.833
				C15.98,20.815,15.915,20.821,15.842,20.828z"/>
			<path class="st4" d="M17.341,22.449c-0.25-0.038-0.488-0.074-0.751-0.114C16.886,22.633,17.196,22.673,17.341,22.449z"/>
			<path class="st4" d="M15.163,23.427c0.032,0.039,0.102,0.072,0.156,0.108c0.013-0.037,0.055-0.075,0.034-0.111
				c-0.111-0.185-0.234-0.37-0.367-0.553c-0.023-0.032-0.116-0.057-0.177-0.086c-0.005,0.035-0.032,0.07-0.012,0.105
				c0.055,0.095,0.131,0.19,0.226,0.324C15.051,23.26,15.096,23.345,15.163,23.427z"/>
			<path class="st4" d="M16.355,22.516c-0.135-0.033-0.265-0.01-0.397-0.011c0.012,0.024,0.024,0.048,0.036,0.072
				c0.207,0.058,0.414,0.115,0.62,0.173c0.01-0.014,0.02-0.029,0.03-0.043C16.548,22.641,16.448,22.54,16.355,22.516z"/>
			<path class="st4" d="M15.891,22.77c-0.033-0.02-0.067-0.04-0.1-0.06c-0.189,0.049-0.378,0.099-0.567,0.148
				c0.01,0.023,0.02,0.045,0.031,0.068c0.15,0.026,0.34,0.093,0.439,0.067C15.803,22.964,15.829,22.848,15.891,22.77z"/>
			<path class="st4" d="M15.461,20.88c-0.157-0.245-0.306-0.478-0.456-0.711c-0.155,0.013-0.248,0.022-0.353,0.031
				c0.174,0.245,0.339,0.477,0.501,0.707C15.261,20.897,15.354,20.889,15.461,20.88z"/>
			<path class="st4" d="M15.871,21.637c0.011,0.027,0.155,0.091,0.211,0.09c0.053-0.001,0.069-0.064,0.125-0.128
				c-0.136-0.05-0.247-0.11-0.282-0.098C15.874,21.519,15.851,21.586,15.871,21.637z"/>
			<path class="st4" d="M16.664,20.842c-0.027-0.039-0.139-0.072-0.213-0.108c-0.019,0.045-0.069,0.087-0.048,0.134
				c0.019,0.041,0.118,0.088,0.25,0.178C16.663,20.946,16.698,20.892,16.664,20.842z"/>
			<path class="st4" d="M15.668,21.161c-0.015-0.031-0.157-0.099-0.181-0.091c-0.05,0.017-0.06,0.072-0.102,0.135
				c0.118,0.044,0.229,0.1,0.247,0.089C15.673,21.268,15.692,21.209,15.668,21.161z"/>
			<path class="st4" d="M15.745,24.041c0.182-0.018,0.183-0.136,0.143-0.285c-0.217,0.019-0.413,0.036-0.646,0.056
				C15.418,23.944,15.564,24.059,15.745,24.041z"/>
			<path class="st4" d="M16.339,23.444c-0.188,0.029-0.344,0.053-0.517,0.08C16.172,23.737,16.341,23.714,16.339,23.444z"/>
			<path class="st4" d="M17.033,23.793c-0.289,0.236-0.554,0.453-0.836,0.684c0.566,0.161,1.094,0.31,1.654,0.469
				C17.574,24.556,17.315,24.192,17.033,23.793z M16.807,24.405c-0.031-0.075,0.056-0.152,0.132-0.196
				c0.02-0.012,0.196,0.098,0.36,0.182c-0.056,0.075-0.067,0.157-0.13,0.16C17.048,24.558,16.858,24.529,16.807,24.405z"/>
			<path class="st4" d="M14.145,23.051c-0.042-0.044-0.142-0.073-0.215-0.109c-0.002,0.044-0.003,0.087-0.004,0.101
				c0.191,0.219,0.341,0.4,0.508,0.577c0.036,0.038,0.131,0.062,0.199,0.092c-0.005-0.041,0.012-0.086-0.019-0.124
				C14.467,23.408,14.313,23.227,14.145,23.051z"/>
			<path class="st4" d="M14.887,23.349c-0.082-0.1-0.17-0.217-0.276-0.33c-0.041-0.043-0.122-0.076-0.186-0.113
				c-0.004,0.044-0.037,0.091-0.007,0.132c0.111,0.155,0.237,0.31,0.369,0.463c0.027,0.031,0.103,0.053,0.157,0.079
				c0.012-0.032,0.04-0.062,0.033-0.098C14.97,23.446,14.926,23.404,14.887,23.349z"/>
		</g>
	</g>
	<g>
		<path class="st5" d="M28.771,44.043c-0.001-0.005-0.003-0.01-0.004-0.016l-0.036-0.637l1.607,0.484l-0.295,0.702L28.771,44.043z"
			/>
		<path class="st6" d="M25.88,21.12c-0.007-0.406,0.148-0.797,0.428-1.089l0.935,0.392l-0.453,1.078L25.88,21.12z"/>
		<path class="st7" d="M27.015,22.249l2.52,19.857c-0.025-0.004-0.051-0.005-0.075-0.011l-0.668-0.276l-2.531-19.882l0.746,0.311
			C27.009,22.248,27.012,22.248,27.015,22.249z"/>
		<path class="st8" d="M27.603,22.231l2.514,19.805c-0.176,0.084-0.386,0.105-0.589,0.069l-2.52-19.858
			C27.201,22.328,27.416,22.318,27.603,22.231z"/>
		<g>
			<path class="st9" d="M35.883,13.743l-0.032-0.013l2.868,22.657c0.068,0.539-0.157,1.073-0.59,1.401l-7.576,5.711l-0.541,1.289
				l-0.923-0.387l0,0l-0.041-0.017l-0.067-0.045c-0.116-0.084-0.201-0.212-0.221-0.373l-3.053-24.122
				c-0.073-0.578,0.168-1.151,0.633-1.503l8.589-6.447c0.158-0.119,0.347-0.135,0.51-0.077l0.002-0.004l1.065,0.446L35.883,13.743z"
				/>
			<path class="st5" d="M35.439,11.817l0.002-0.004l1.065,0.446l-0.622,1.483l-0.032-0.013l0.13,1.027l-2.101,2.647l-7.944,2.543
				l-0.229-0.102c-0.073-0.578,0.168-1.151,0.633-1.503l8.589-6.447C35.086,11.775,35.276,11.76,35.439,11.817z"/>
			<path class="st9" d="M35.071,11.954l-8.589,6.447c-0.465,0.352-0.706,0.925-0.633,1.503l3.053,24.122
				c0.02,0.161,0.106,0.289,0.221,0.373l-0.006,0.014l-0.027-0.011l0,0l-0.041-0.017l-0.067-0.045
				c-0.116-0.084-0.201-0.212-0.221-0.373l-3.053-24.122c-0.073-0.578,0.168-1.151,0.633-1.503l8.589-6.447
				c0.158-0.119,0.347-0.135,0.51-0.077l0.002-0.004l0.142,0.06l-0.002,0.004C35.418,11.819,35.228,11.835,35.071,11.954z"/>
			<path class="st10" d="M26.711,20.265l3.053,24.122c0.053,0.418,0.537,0.622,0.873,0.368c0,0,3.792-2.167,4.945-3.051
				c0.999-0.765,2.914-2.615,3.668-3.446c0.365-0.402,0.658-0.862,0.59-1.401l-3.061-24.185c-0.053-0.418-0.537-0.622-0.873-0.368
				l-8.562,6.458C26.88,19.114,26.638,19.687,26.711,20.265z"/>
			<path class="st11" d="M30.362,44.742c0.074-0.009,0.142-0.038,0.203-0.084c0,0,3.857-2.177,5.025-3.074
				c0.983-0.756,2.84-2.594,3.588-3.423c0.334-0.37,0.605-0.795,0.543-1.29L36.66,12.686c-0.015-0.117-0.074-0.219-0.167-0.288
				c-0.089-0.066-0.202-0.096-0.311-0.082c-0.074,0.009-0.142,0.038-0.203,0.084l-8.562,6.458c-0.429,0.325-0.653,0.858-0.586,1.392
				l3.053,24.121c0.015,0.117,0.074,0.219,0.167,0.288C30.14,44.726,30.253,44.756,30.362,44.742z"/>
			<path class="st12" d="M30.428,44.582c0.048-0.006,0.091-0.024,0.131-0.055c0,0,3.859-2.133,5.02-3.026
				c0.99-0.761,3.035-2.843,3.593-3.471c0.295-0.333,0.54-0.71,0.485-1.151l-3.061-24.185c-0.01-0.076-0.048-0.142-0.108-0.187
				c-0.058-0.043-0.132-0.063-0.202-0.054c-0.048,0.006-0.091,0.024-0.131,0.055l-8.562,6.459c-0.386,0.292-0.588,0.772-0.528,1.253
				l3.053,24.121c0.01,0.076,0.048,0.142,0.108,0.187C30.284,44.571,30.358,44.591,30.428,44.582z"/>
			<path class="st13" d="M35.906,12.304l-8.562,6.458c-0.465,0.352-0.706,0.925-0.633,1.503l3.053,24.122
				c0.022,0.172,0.119,0.305,0.247,0.388c-0.212-0.048-0.972-0.461-1.003-0.706l-3.053-24.122c-0.073-0.578,0.168-1.151,0.633-1.503
				l8.562-6.458c0.197-0.149,1.022,0.107,1.204,0.224C36.206,12.175,36.044,12.199,35.906,12.304z"/>
			<g>
				<path class="st14" d="M27.278,17.642l1.421-1.08c0.155-0.118,0.361-0.144,0.541-0.069l0.12,0.05
					c0.158,0.066,0.185,0.278,0.048,0.382l-1.421,1.08c-0.155,0.118-0.361,0.144-0.54,0.069l-0.12-0.05
					C27.168,17.957,27.141,17.745,27.278,17.642z"/>
				<path class="st15" d="M27.261,17.511l1.421-1.08c0.155-0.118,0.361-0.144,0.541-0.069l0.12,0.05
					c0.158,0.066,0.185,0.278,0.048,0.382l-1.421,1.08c-0.155,0.118-0.361,0.144-0.54,0.069l-0.12-0.05
					C27.152,17.827,27.125,17.615,27.261,17.511z"/>
			</g>
			<path class="st16" d="M35.801,38.429c-0.051,0.006-0.099,0.026-0.141,0.058l-1.486,1.13c-0.144,0.109-0.219,0.289-0.197,0.468
				l0.104,0.816c0.01,0.08,0.052,0.151,0.116,0.198c0.06,0.045,0.193,0.096,0.193,0.096s0.118-0.066,0.159-0.098l1.486-1.131
				c0.143-0.108,0.219-0.288,0.196-0.467l-0.047-0.814C36.164,38.526,35.961,38.409,35.801,38.429z"/>
			<path class="st17" d="M26.968,20.816c0.197,0.082,0.423,0.053,0.594-0.076l9.234-6.981l0.074-0.37l2.682,21.129
				c0,0,0.059,0.326-0.073,0.441l-9.096,6.876c-0.296,0.223-0.687,0.273-1.029,0.131L28.714,41.7l-2.709-21.283L26.968,20.816z"/>
			<path class="st4" d="M26.892,20.862c0.258,0.107,0.553,0.07,0.776-0.099l9.161-6.925l0.063-0.272l2.639,20.793
				c0,0,0.073,0.373-0.043,0.492l-9.158,6.923c-0.224,0.169-0.545,0.211-0.836,0.141l-0.708-0.293l-2.684-21.089L26.892,20.862z"/>
			<path class="st7" d="M36.717,13.924l0.112-0.085l0.063-0.272l2.639,20.793c0,0,0.073,0.373-0.043,0.492l-0.105,0.079
				L36.717,13.924z"/>
			<path class="st18" d="M33.422,15.766l-2.45,1.862c-0.077,0.058-0.188,0.012-0.2-0.084l-0.01-0.076
				c-0.017-0.133,0.039-0.265,0.145-0.346l2.45-1.862c0.077-0.058,0.188-0.012,0.2,0.084l0.01,0.076
				C33.584,15.553,33.528,15.685,33.422,15.766z"/>
			<path class="st13" d="M31.1,17.369c0.034-0.004,0.055-0.024,0.059-0.027l2.013-1.53c0.067-0.051,0.102-0.134,0.091-0.217
				c0,0-0.012-0.049-0.025-0.059c-0.01-0.007-0.048-0.002-0.048-0.002l-2.035,1.544c-0.067,0.051-0.102,0.134-0.091,0.217
				l0.006,0.044C31.07,17.338,31.087,17.371,31.1,17.369z"/>
			<polygon class="st10" points="37.294,38.304 37.901,37.846 37.671,37.734 37.721,37.597 38.03,37.748 38.077,37.781 
				38.049,37.871 37.828,38.422 37.756,38.377 37.919,37.969 37.31,38.429 			"/>
			<g>
				<polygon class="st10" points="32.268,41.884 33.044,41.299 33.028,41.174 32.252,41.76 				"/>
				<polygon class="st10" points="32.311,42.223 33.087,41.638 33.071,41.513 32.295,42.098 				"/>
				<polygon class="st10" points="32.354,42.561 33.13,41.976 33.114,41.851 32.338,42.437 				"/>
			</g>
			<g>
				<path class="st19" d="M27.079,22.336c0.258,0.107,0.553,0.07,0.776-0.099l9.161-6.925l0.063-0.272l-0.187-1.474l-0.063,0.272
					l-9.161,6.925c-0.223,0.168-0.518,0.206-0.776,0.099l-0.791-0.329l0.188,1.474L27.079,22.336z"/>
				<path class="st19" d="M39.55,34.505c-0.007-0.082-0.018-0.145-0.018-0.145L39.55,34.505z"/>
			</g>
			<g>
				<g>
					<path class="st4" d="M29.989,20.173l-0.085-0.673l0.033-0.025l0.08,0.63l0.138-0.106l0.005,0.043L29.989,20.173z"/>
					<path class="st4" d="M30.31,19.928l-0.033,0.025l-0.08-0.63l-0.098,0.075l-0.005-0.043l0.229-0.175l0.005,0.043l-0.098,0.075
						L30.31,19.928z"/>
					<path class="st4" d="M30.646,19.671l-0.178,0.137l-0.085-0.673l0.178-0.137l0.005,0.043l-0.145,0.111l0.032,0.256l0.137-0.105
						l0.005,0.043l-0.137,0.105l0.037,0.288l0.145-0.111L30.646,19.671z"/>
				</g>
			</g>
			<g>
				<path class="st4" d="M31.768,18.132c0.027-0.021,0.05-0.026,0.07-0.014c0.02,0.011,0.032,0.038,0.037,0.08
					c0.008,0.065-0.009,0.134-0.051,0.209c0.024,0.003,0.041,0.008,0.054,0.015c0.012,0.007,0.022,0.017,0.03,0.03
					c0.008,0.014,0.013,0.031,0.016,0.053c0.006,0.045,0.001,0.088-0.013,0.131c-0.014,0.042-0.036,0.075-0.064,0.096
					c-0.03,0.023-0.056,0.028-0.079,0.015c-0.023-0.013-0.037-0.041-0.042-0.085c-0.004-0.034-0.003-0.068,0.004-0.102
					c0.007-0.035,0.023-0.074,0.047-0.118c-0.047-0.012-0.074-0.047-0.081-0.106c-0.005-0.04-0.001-0.079,0.013-0.118
					C31.721,18.181,31.741,18.152,31.768,18.132z M31.756,18.64c0.004,0.034,0.014,0.056,0.03,0.066
					c0.016,0.011,0.034,0.008,0.055-0.008c0.021-0.016,0.036-0.039,0.046-0.07c0.01-0.031,0.012-0.065,0.008-0.102
					c-0.006-0.047-0.032-0.075-0.077-0.082L31.8,18.442c-0.021,0.039-0.035,0.073-0.041,0.103
					C31.752,18.574,31.751,18.606,31.756,18.64z M31.772,18.168c-0.018,0.014-0.032,0.034-0.04,0.061
					c-0.008,0.026-0.01,0.055-0.006,0.087c0.003,0.027,0.011,0.048,0.022,0.062c0.011,0.014,0.029,0.023,0.054,0.026
					c0.019-0.034,0.032-0.065,0.039-0.095c0.007-0.029,0.008-0.058,0.005-0.085c-0.004-0.032-0.013-0.053-0.026-0.063
					C31.807,18.151,31.791,18.153,31.772,18.168z"/>
				<path class="st4" d="M31.952,18.212c-0.004-0.028,0.002-0.049,0.018-0.06c0.015-0.012,0.024-0.003,0.028,0.025
					c0.002,0.015,0.001,0.028-0.002,0.038c-0.004,0.01-0.009,0.018-0.015,0.022C31.965,18.249,31.955,18.24,31.952,18.212z
					 M31.997,18.569c-0.004-0.028,0.002-0.049,0.018-0.06c0.006-0.005,0.012-0.006,0.017-0.003c0.005,0.003,0.009,0.013,0.011,0.028
					c0.002,0.015,0.001,0.028-0.002,0.038c-0.004,0.01-0.009,0.018-0.015,0.022C32.01,18.606,32,18.597,31.997,18.569z"/>
				<path class="st4" d="M32.236,18.425l-0.028,0.022l-0.055-0.431c-0.004-0.035-0.009-0.074-0.012-0.115
					c-0.003,0.011-0.011,0.032-0.023,0.064l-0.031,0.074l-0.018-0.014l0.069-0.168l0.023-0.018L32.236,18.425z"/>
				<path class="st4" d="M32.503,17.9c0.013,0.099,0.014,0.18,0.005,0.243c-0.009,0.063-0.03,0.107-0.06,0.13
					c-0.033,0.026-0.06,0.02-0.081-0.016c-0.02-0.036-0.038-0.107-0.051-0.214c-0.025-0.2-0.007-0.324,0.056-0.372
					c0.032-0.025,0.059-0.018,0.081,0.02C32.473,17.729,32.49,17.798,32.503,17.9z M32.345,18.02
					c0.011,0.088,0.025,0.15,0.041,0.186s0.035,0.046,0.057,0.029c0.042-0.032,0.053-0.137,0.031-0.313
					c-0.022-0.176-0.055-0.246-0.097-0.214c-0.022,0.017-0.035,0.051-0.04,0.102C32.33,17.861,32.333,17.931,32.345,18.02z"/>
				<path class="st4" d="M32.852,17.496c0.008,0.06,0.003,0.112-0.014,0.156c-0.017,0.044-0.045,0.081-0.085,0.111l-0.031,0.023
					l0.031,0.242l-0.028,0.022l-0.074-0.586l0.058-0.045c0.042-0.032,0.074-0.042,0.097-0.03
					C32.83,17.403,32.845,17.438,32.852,17.496z M32.719,17.751l0.029-0.022c0.033-0.026,0.056-0.055,0.067-0.087
					c0.011-0.032,0.013-0.073,0.007-0.123c-0.006-0.047-0.017-0.076-0.034-0.085c-0.017-0.009-0.041-0.002-0.072,0.021l-0.032,0.025
					L32.719,17.751z"/>
				<path class="st4" d="M33.113,17.755l-0.181-0.446l-0.003,0.002c0.009,0.055,0.014,0.089,0.016,0.104L33,17.842l-0.028,0.021
					l-0.074-0.586l0.042-0.032l0.153,0.375c0.013,0.033,0.023,0.063,0.029,0.088l0.003-0.002c-0.001-0.021,0.001-0.059,0.005-0.114
					l0.038-0.522l0.044-0.034l0.074,0.586l-0.028,0.022l-0.054-0.424c-0.002-0.016-0.006-0.054-0.011-0.111l-0.002,0.002
					l-0.046,0.62L33.113,17.755z"/>
			</g>
			<g>
				<g>
					<path class="st4" d="M29.214,20.537c-0.076-0.032-0.092-0.167-0.035-0.303c0.057-0.135,0.165-0.219,0.241-0.187
						c0.076,0.032,0.092,0.167,0.035,0.303C29.398,20.485,29.29,20.569,29.214,20.537z"/>
					<path class="st4" d="M28.778,20.863c-0.076-0.032-0.092-0.167-0.035-0.303c0.057-0.135,0.165-0.219,0.241-0.187
						c0.076,0.032,0.092,0.167,0.035,0.303C28.962,20.811,28.854,20.895,28.778,20.863z"/>
					<path class="st4" d="M28.341,21.189c-0.076-0.032-0.092-0.167-0.035-0.303c0.057-0.135,0.165-0.219,0.241-0.187
						c0.076,0.032,0.092,0.167,0.035,0.303C28.525,21.137,28.417,21.221,28.341,21.189z"/>
					<path class="st4" d="M27.905,21.515c-0.076-0.032-0.092-0.167-0.035-0.303c0.057-0.135,0.165-0.219,0.241-0.187
						c0.076,0.032,0.092,0.168,0.035,0.303C28.089,21.463,27.981,21.547,27.905,21.515z"/>
				</g>
			</g>
			<path class="st4" d="M36.483,15.089l-0.044-0.346l-0.134,0.102l-0.022-0.174l-0.935,0.712l0.081,0.63l0.935-0.712l-0.014-0.111
				L36.483,15.089z M35.809,15.677c-0.002-0.006-0.001-0.011-0.001-0.015c0.008-0.088,0.016-0.176,0.024-0.265
				c0.001-0.013-0.001-0.013-0.011-0.004c-0.022,0.019-0.044,0.038-0.066,0.057c0-0.003,0-0.005,0-0.008
				c0.009-0.106,0.017-0.212,0.025-0.318c0.001-0.011,0.004-0.015,0.012-0.021c0.04-0.03,0.08-0.061,0.119-0.092
				c0.01-0.008,0.01-0.005,0.007,0.006c-0.021,0.084-0.042,0.167-0.062,0.251c-0.001,0.005-0.004,0.011-0.002,0.015
				c0.031-0.026,0.062-0.053,0.095-0.081C35.903,15.362,35.857,15.518,35.809,15.677z"/>
			<g>
				<g>
					<polygon class="st20" points="31.896,30.525 34.889,26.122 33.468,21.807 33.902,21.664 35.394,26.193 32.561,30.36 
						37.464,32.966 37.25,33.37 					"/>
				</g>
				<g>
					
						<rect x="30.738" y="24.375" transform="matrix(0.9171 -0.3985 0.3985 0.9171 -8.4102 14.6235)" class="st20" width="0.457" height="6.33"/>
				</g>
			</g>
			<g>
				<g>
					<path class="st21" d="M32.858,31.789c-0.964,0.263-1.958-0.306-2.22-1.27c-0.168-0.618,0.005-1.249,0.406-1.691
						c0.224-0.247,0.519-0.435,0.864-0.529c0.964-0.262,1.957,0.306,2.22,1.27c0.077,0.283,0.082,0.568,0.028,0.837
						C34.023,31.053,33.539,31.604,32.858,31.789z"/>
				</g>
				<g class="st22">
					<path class="st4" d="M33.562,29.918c0.217-0.25,0.071-0.731-0.325-1.074c-0.396-0.344-0.893-0.42-1.109-0.17
						c-0.217,0.25-0.071,0.731,0.325,1.074C32.849,30.091,33.346,30.168,33.562,29.918z"/>
				</g>
			</g>
			<g>
				<path class="st23" d="M36.653,34.484c-0.713-0.338-1.017-1.189-0.679-1.902c0.217-0.457,0.644-0.746,1.112-0.805
					c0.261-0.033,0.535,0.006,0.79,0.127c0.713,0.338,1.017,1.189,0.679,1.902c-0.099,0.209-0.242,0.383-0.413,0.516
					C37.73,34.641,37.157,34.723,36.653,34.484z"/>
			</g>
			<g class="st22">
				<path class="st4" d="M38.071,33.509c0.222-0.033,0.36-0.346,0.308-0.699c-0.052-0.353-0.275-0.612-0.498-0.579
					c-0.222,0.033-0.36,0.346-0.308,0.699C37.626,33.283,37.849,33.542,38.071,33.509z"/>
			</g>
			<g>
				<g>
					<path class="st24" d="M28.658,25.417c-0.196-0.764,0.264-1.542,1.029-1.738c0.49-0.126,0.986,0.019,1.33,0.34
						c0.192,0.18,0.337,0.415,0.408,0.689c0.196,0.764-0.264,1.542-1.028,1.738c-0.224,0.057-0.45,0.058-0.661,0.012
						C29.226,26.345,28.797,25.957,28.658,25.417z"/>
				</g>
				<g class="st25">
					<path class="st4" d="M30.128,25.995c0.195,0.174,0.576,0.065,0.852-0.244c0.276-0.309,0.342-0.7,0.147-0.874
						c-0.195-0.174-0.576-0.065-0.852,0.244C29.999,25.43,29.933,25.821,30.128,25.995z"/>
				</g>
			</g>
			<g>
				<g>
					<path class="st23" d="M33.746,22.584c-0.558,0.104-1.094-0.263-1.198-0.82c-0.067-0.357,0.06-0.706,0.307-0.938
						c0.138-0.129,0.313-0.223,0.513-0.26c0.557-0.104,1.094,0.263,1.198,0.82c0.031,0.164,0.021,0.325-0.023,0.475
						C34.439,22.221,34.14,22.511,33.746,22.584z"/>
				</g>
				<g class="st22">
					<path class="st4" d="M34.23,21.558c0.134-0.131,0.074-0.41-0.135-0.623c-0.208-0.213-0.486-0.278-0.62-0.147
						c-0.134,0.131-0.074,0.41,0.135,0.623C33.818,21.623,34.096,21.689,34.23,21.558z"/>
				</g>
			</g>
			<g>
				<path class="st24" d="M34.937,26.944c-0.463-0.22-0.661-0.773-0.441-1.237c0.141-0.297,0.419-0.485,0.723-0.524
					c0.17-0.021,0.348,0.004,0.514,0.082c0.463,0.22,0.661,0.773,0.441,1.236c-0.064,0.136-0.158,0.249-0.269,0.335
					C35.637,27.046,35.264,27.099,34.937,26.944z"/>
			</g>
			<g class="st25">
				<path class="st4" d="M35.859,26.31c0.145-0.021,0.234-0.225,0.2-0.454c-0.034-0.229-0.179-0.398-0.324-0.376
					c-0.145,0.021-0.234,0.225-0.2,0.454C35.569,26.163,35.714,26.331,35.859,26.31z"/>
			</g>
		</g>
	</g>
</g>
</svg>
