<?xml version="1.0" encoding="utf-8"?>
<!-- Generator: Adobe Illustrator 26.0.1, SVG Export Plug-In . SVG Version: 6.00 Build 0)  -->
<svg version="1.1" id="Layer_1" xmlns="http://www.w3.org/2000/svg" xmlns:xlink="http://www.w3.org/1999/xlink" x="0px" y="0px"
	 viewBox="0 0 50 50" style="enable-background:new 0 0 50 50;" xml:space="preserve">
<style type="text/css">
	.st0{opacity:0.19;fill:#939596;enable-background:new    ;}
	.st1{fill:#3E3C3B;}
	.st2{fill:#3C3A39;}
	.st3{fill:#00DE4E;}
	.st4{fill:#EB1D29;}
	.st5{fill:#231F20;}
	.st6{fill:#DBAD00;}
	.st7{fill:#947816;}
	.st8{fill:#7E8083;}
	.st9{fill:#BCBEC0;}
	.st10{fill:#939698;}
	.st11{fill:#19191B;}
	.st12{fill:#48484A;}
</style>
<polygon class="st0" points="13.973,36.533 20.841,44.65 39.106,41.298 32.237,33.181 "/>
<g>
	<g>
		<g>
			<path d="M33.961,32.36c0.022,0.021,0.045,0.04,0.069,0.059c0.021-0.016,0.043-0.031,0.067-0.045
				c0.337-0.201,0.816-0.169,1.115,0.062c0.304-0.224,0.34-0.597,0.069-0.862c-0.289-0.284-0.819-0.338-1.183-0.121
				C33.734,31.67,33.673,32.076,33.961,32.36z"/>
			<path d="M30.505,34.42c0.022,0.021,0.045,0.04,0.069,0.059c0.021-0.016,0.043-0.031,0.067-0.045
				c0.337-0.201,0.816-0.169,1.115,0.062c0.304-0.224,0.34-0.597,0.069-0.862c-0.289-0.284-0.819-0.338-1.183-0.121
				C30.277,33.73,30.217,34.136,30.505,34.42z"/>
			<path d="M26.686,36.696c0.022,0.021,0.045,0.04,0.069,0.059c0.021-0.016,0.043-0.031,0.067-0.045
				c0.337-0.201,0.816-0.169,1.115,0.062c0.304-0.224,0.34-0.597,0.069-0.862c-0.289-0.284-0.819-0.338-1.183-0.121
				C26.459,36.006,26.398,36.412,26.686,36.696z"/>
			<path d="M22.796,39.015c0.022,0.021,0.045,0.04,0.069,0.059c0.021-0.016,0.043-0.031,0.067-0.045
				c0.337-0.201,0.816-0.169,1.115,0.062c0.304-0.224,0.34-0.597,0.069-0.862c-0.289-0.284-0.819-0.338-1.183-0.121
				C22.568,38.325,22.507,38.731,22.796,39.015z"/>
			<path d="M20.662,41.108c0.304-0.224,0.34-0.597,0.069-0.862c-0.289-0.284-0.819-0.338-1.183-0.121
				c-0.365,0.217-0.425,0.623-0.136,0.907c0.022,0.021,0.045,0.04,0.069,0.059c0.021-0.016,0.043-0.031,0.067-0.045
				C19.886,40.845,20.364,40.877,20.662,41.108z"/>
		</g>
		<path class="st1" d="M10.284,33.318l9.382,9.202c0.428,0.419,1.219,0.5,1.758,0.179l15.431-9.197
			c0.268-0.16,0.425-0.39,0.463-0.632c0.038-0.245-0.046-0.504-0.261-0.715l-7.214-7.075l-2.169-2.127
			c-0.428-0.419-1.219-0.5-1.758-0.179l-2.942,1.754l-0.086,0.051l-1.968,1.173l-0.05,0.03l-0.986,0.588l-9.399,5.602
			c-0.269,0.16-0.426,0.392-0.463,0.636S10.069,33.108,10.284,33.318z M34.099,31.453c0.364-0.217,0.894-0.163,1.183,0.121
			c0.289,0.284,0.228,0.69-0.136,0.907s-0.894,0.163-1.183-0.121C33.673,32.076,33.734,31.67,34.099,31.453z M30.642,33.513
			c0.364-0.217,0.894-0.163,1.183,0.121s0.228,0.69-0.136,0.907c-0.364,0.217-0.894,0.163-1.183-0.121
			C30.217,34.136,30.277,33.73,30.642,33.513z M26.824,35.789c0.364-0.217,0.894-0.163,1.183,0.121s0.228,0.69-0.136,0.907
			c-0.364,0.217-0.894,0.163-1.183-0.121C26.398,36.412,26.46,36.006,26.824,35.789z M22.933,38.108
			c0.364-0.217,0.894-0.163,1.183,0.121s0.228,0.69-0.136,0.907c-0.364,0.217-0.894,0.163-1.183-0.121
			C22.507,38.731,22.568,38.325,22.933,38.108z M19.549,40.124c0.364-0.217,0.894-0.163,1.183,0.121s0.228,0.69-0.136,0.907
			c-0.364,0.217-0.894,0.163-1.183-0.121C19.123,40.748,19.184,40.342,19.549,40.124z"/>
		<path class="st2" d="M37.317,32.87c-0.038,0.243-0.195,0.472-0.463,0.632l-15.431,9.197c-0.539,0.321-1.33,0.241-1.758-0.179
			v0.889c0.428,0.419,1.219,0.5,1.758,0.179l15.431-9.197c0.268-0.16,0.425-0.39,0.463-0.632V32.87z"/>
		<g>
			<polygon class="st3" points="20.898,25.81 19.912,26.398 21.635,26.533 			"/>
			<polygon class="st3" points="22.916,24.607 20.948,25.78 24.389,26.052 			"/>
			<path class="st3" d="M25.944,22.803l-2.942,1.754l6.869,0.552l-2.169-2.127C27.274,22.562,26.483,22.481,25.944,22.803z"/>
			<path class="st3" d="M20.61,29.081c0.074,0.072,0.209,0.086,0.301,0.031c0.093-0.055,0.109-0.159,0.035-0.231
				c-0.074-0.072-0.208-0.085-0.301-0.03C20.553,28.906,20.537,29.01,20.61,29.081z"/>
			<path class="st3" d="M19.38,29.816c0.074,0.072,0.208,0.086,0.301,0.031c0.092-0.056,0.108-0.159,0.034-0.231
				c-0.074-0.072-0.208-0.086-0.301-0.031S19.306,29.743,19.38,29.816z"/>
			<path class="st3" d="M18.702,30.219c0.364,0.357,1.032,0.425,1.49,0.152l1.246-0.743c0.458-0.273,0.535-0.785,0.171-1.142
				s-1.032-0.425-1.49-0.152l-1.246,0.743C18.415,29.35,18.339,29.863,18.702,30.219z M19.034,30.022
				c-0.219-0.214-0.173-0.521,0.102-0.685l1.246-0.743c0.275-0.164,0.676-0.123,0.894,0.091c0.219,0.214,0.173,0.521-0.102,0.685
				l-1.246,0.743C19.654,30.276,19.253,30.235,19.034,30.022z"/>
		</g>
		<g>
			<path class="st4" d="M20.068,31.6l0.364,0.357c0.035,0.035,0.101,0.042,0.146,0.015l0.102-0.061
				c0.045-0.027,0.053-0.077,0.017-0.112l-0.364-0.357c-0.035-0.035-0.101-0.042-0.146-0.015l-0.102,0.061
				C20.04,31.515,20.032,31.566,20.068,31.6z"/>
			<path class="st5" d="M21.427,30.79l0.364,0.357c0.035,0.035,0.101,0.042,0.146,0.015l0.102-0.061
				c0.045-0.027,0.053-0.077,0.017-0.112l-0.364-0.357c-0.035-0.035-0.101-0.042-0.146-0.015l-0.102,0.061
				C21.399,30.705,21.391,30.756,21.427,30.79z"/>
			<path class="st5" d="M22.786,29.98l0.364,0.357c0.035,0.035,0.101,0.042,0.146,0.015l0.102-0.061
				c0.045-0.027,0.053-0.077,0.017-0.112l-0.364-0.357c-0.035-0.035-0.101-0.042-0.146-0.015l-0.102,0.061
				C22.758,29.895,22.75,29.946,22.786,29.98z"/>
			<path class="st5" d="M24.145,29.17l0.364,0.357c0.035,0.035,0.101,0.042,0.146,0.015l0.102-0.061
				c0.045-0.027,0.053-0.077,0.017-0.112l-0.364-0.357c-0.035-0.035-0.101-0.042-0.146-0.015l-0.102,0.061
				C24.117,29.085,24.109,29.136,24.145,29.17z"/>
			<path class="st4" d="M18.709,32.41l0.364,0.357c0.035,0.035,0.101,0.042,0.146,0.015l0.102-0.061
				c0.045-0.027,0.053-0.077,0.017-0.112l-0.364-0.357c-0.035-0.035-0.101-0.042-0.146-0.015l-0.102,0.061
				C18.681,32.325,18.674,32.376,18.709,32.41z"/>
			<path class="st5" d="M21.115,32.627l0.364,0.357c0.035,0.035,0.101,0.042,0.146,0.015l0.102-0.061
				c0.045-0.027,0.053-0.077,0.017-0.112l-0.364-0.357c-0.035-0.035-0.101-0.042-0.146-0.015l-0.102,0.061
				C21.087,32.542,21.079,32.592,21.115,32.627z"/>
			<path class="st5" d="M22.474,31.817l0.364,0.357c0.035,0.035,0.101,0.042,0.146,0.015l0.102-0.061
				c0.045-0.027,0.053-0.077,0.017-0.112l-0.364-0.357c-0.035-0.035-0.101-0.042-0.146-0.015l-0.102,0.061
				C22.446,31.732,22.438,31.782,22.474,31.817z"/>
			<path class="st4" d="M23.833,31.007l0.364,0.357c0.035,0.035,0.101,0.042,0.146,0.015l0.102-0.061
				c0.045-0.027,0.053-0.077,0.017-0.112l-0.364-0.357c-0.035-0.035-0.101-0.042-0.146-0.015l-0.102,0.061
				C23.805,30.922,23.797,30.973,23.833,31.007z"/>
			<path class="st5" d="M25.192,30.197l0.364,0.357c0.035,0.035,0.101,0.042,0.146,0.015l0.102-0.061
				c0.045-0.027,0.053-0.077,0.017-0.112l-0.364-0.357c-0.035-0.035-0.101-0.042-0.146-0.015l-0.102,0.061
				C25.164,30.112,25.156,30.163,25.192,30.197z"/>
			<path class="st5" d="M19.756,33.437l0.364,0.357c0.035,0.035,0.101,0.042,0.146,0.015l0.102-0.061
				c0.045-0.027,0.053-0.077,0.017-0.112l-0.364-0.357c-0.035-0.035-0.101-0.042-0.146-0.015l-0.102,0.061
				C19.728,33.352,19.721,33.402,19.756,33.437z"/>
			<path class="st5" d="M22.162,33.654l0.364,0.357c0.035,0.035,0.101,0.042,0.146,0.015l0.102-0.061
				c0.045-0.027,0.053-0.077,0.017-0.112l-0.364-0.357c-0.035-0.035-0.101-0.042-0.146-0.015l-0.102,0.061
				C22.134,33.569,22.127,33.619,22.162,33.654z"/>
			<path class="st4" d="M23.521,32.844l0.364,0.357c0.035,0.035,0.101,0.042,0.146,0.015l0.102-0.061
				c0.045-0.027,0.053-0.077,0.017-0.112l-0.364-0.357c-0.035-0.035-0.101-0.042-0.146-0.015l-0.102,0.061
				C23.493,32.759,23.485,32.809,23.521,32.844z"/>
			<path class="st5" d="M24.88,32.034l0.364,0.357c0.035,0.035,0.101,0.042,0.146,0.015l0.102-0.061
				c0.045-0.027,0.053-0.077,0.017-0.112l-0.364-0.357c-0.035-0.035-0.101-0.042-0.146-0.015l-0.102,0.061
				C24.852,31.949,24.844,31.999,24.88,32.034z"/>
			<path class="st5" d="M26.239,31.224l0.364,0.357c0.035,0.035,0.101,0.042,0.146,0.015l0.102-0.061
				c0.045-0.027,0.053-0.077,0.017-0.112l-0.364-0.357c-0.035-0.035-0.101-0.042-0.146-0.015l-0.102,0.061
				C26.211,31.139,26.203,31.189,26.239,31.224z"/>
			<path class="st5" d="M20.803,34.464l0.364,0.357c0.035,0.035,0.101,0.042,0.146,0.015l0.102-0.061
				c0.045-0.027,0.053-0.077,0.017-0.112l-0.364-0.357c-0.035-0.035-0.101-0.042-0.146-0.015l-0.102,0.061
				C20.775,34.379,20.768,34.429,20.803,34.464z"/>
			<path class="st5" d="M23.209,34.681l0.364,0.357c0.035,0.035,0.101,0.042,0.146,0.015l0.102-0.061
				c0.045-0.027,0.053-0.077,0.017-0.112l-0.364-0.357c-0.035-0.035-0.101-0.042-0.146-0.015l-0.102,0.061
				C23.181,34.596,23.174,34.646,23.209,34.681z"/>
			<path class="st4" d="M24.568,33.871l0.364,0.357c0.035,0.035,0.101,0.042,0.146,0.015l0.102-0.061
				c0.045-0.027,0.053-0.077,0.017-0.112l-0.364-0.357c-0.035-0.035-0.101-0.042-0.146-0.015l-0.102,0.061
				C24.54,33.786,24.532,33.836,24.568,33.871z"/>
			<path class="st5" d="M25.927,33.061l0.364,0.357c0.035,0.035,0.101,0.042,0.146,0.015l0.102-0.061
				c0.045-0.027,0.053-0.077,0.017-0.112l-0.364-0.357c-0.035-0.035-0.101-0.042-0.146-0.015l-0.102,0.061
				C25.899,32.976,25.891,33.026,25.927,33.061z"/>
			<path class="st5" d="M27.286,32.251l0.364,0.357c0.035,0.035,0.101,0.042,0.146,0.015l0.102-0.061
				c0.045-0.027,0.053-0.077,0.017-0.112l-0.364-0.357c-0.035-0.035-0.101-0.042-0.146-0.015l-0.102,0.061
				C27.258,32.166,27.25,32.216,27.286,32.251z"/>
			<path class="st5" d="M21.851,35.491l0.364,0.357c0.035,0.035,0.101,0.042,0.146,0.015l0.102-0.061
				c0.045-0.027,0.053-0.077,0.017-0.112l-0.365-0.357c-0.035-0.035-0.101-0.042-0.146-0.015l-0.102,0.061
				C21.822,35.406,21.815,35.456,21.851,35.491z"/>
			<path class="st5" d="M24.256,35.708l0.364,0.357c0.035,0.035,0.101,0.042,0.146,0.015l0.102-0.061
				c0.045-0.027,0.053-0.077,0.017-0.112l-0.364-0.357c-0.035-0.035-0.101-0.042-0.146-0.015l-0.102,0.061
				C24.228,35.623,24.221,35.673,24.256,35.708z"/>
			<path class="st5" d="M25.615,34.898l0.364,0.357c0.035,0.035,0.101,0.042,0.146,0.015l0.102-0.061
				c0.045-0.027,0.053-0.077,0.017-0.112L25.88,34.74c-0.035-0.035-0.101-0.042-0.146-0.015l-0.102,0.061
				C25.587,34.813,25.58,34.863,25.615,34.898z"/>
			<path class="st4" d="M26.974,34.088l0.364,0.357c0.035,0.035,0.101,0.042,0.146,0.015l0.102-0.061
				c0.045-0.027,0.053-0.077,0.017-0.112l-0.364-0.357c-0.035-0.035-0.101-0.042-0.146-0.015l-0.102,0.061
				C26.946,34.003,26.938,34.053,26.974,34.088z"/>
			<path class="st5" d="M28.333,33.278l0.364,0.357c0.035,0.035,0.101,0.042,0.146,0.015l0.102-0.061
				c0.045-0.027,0.053-0.077,0.017-0.112l-0.364-0.357c-0.035-0.035-0.101-0.042-0.146-0.015l-0.102,0.061
				C28.305,33.193,28.297,33.243,28.333,33.278z"/>
			<path class="st5" d="M22.897,36.518l0.364,0.357c0.035,0.035,0.101,0.042,0.146,0.015l0.102-0.061
				c0.045-0.027,0.053-0.077,0.017-0.112l-0.364-0.357c-0.035-0.035-0.101-0.042-0.146-0.015l-0.102,0.061
				C22.869,36.433,22.862,36.483,22.897,36.518z"/>
		</g>
		<g>
			<path class="st6" d="M33.801,32.455l1.817,1.783l1.235-0.736c0.145-0.086,0.256-0.194,0.335-0.312l-1.746-1.713
				c-0.36-0.353-1.019-0.42-1.472-0.15C33.517,31.597,33.442,32.103,33.801,32.455z M33.963,32.359
				c-0.289-0.284-0.228-0.69,0.136-0.907s0.894-0.163,1.183,0.121c0.289,0.284,0.228,0.69-0.136,0.907
				C34.782,32.697,34.252,32.643,33.963,32.359z"/>
			<path class="st6" d="M30.345,34.515l1.817,1.783l1.641-0.978l-1.817-1.783c-0.36-0.353-1.019-0.42-1.472-0.15
				S29.985,34.163,30.345,34.515z M30.507,34.419c-0.289-0.284-0.228-0.69,0.136-0.907c0.364-0.217,0.894-0.163,1.183,0.121
				s0.228,0.69-0.136,0.907C31.325,34.757,30.795,34.703,30.507,34.419z"/>
			<path class="st6" d="M26.526,36.791l1.817,1.783l1.641-0.978l-1.817-1.783c-0.36-0.353-1.019-0.42-1.472-0.15
				C26.242,35.933,26.167,36.438,26.526,36.791z M26.688,36.695c-0.289-0.284-0.228-0.69,0.136-0.907
				c0.364-0.217,0.894-0.163,1.183,0.121s0.228,0.69-0.136,0.907S26.977,36.979,26.688,36.695z"/>
			<path class="st6" d="M22.636,39.11l1.817,1.783l1.641-0.978l-1.817-1.783c-0.36-0.353-1.019-0.42-1.472-0.15
				C22.351,38.252,22.276,38.757,22.636,39.11z M22.797,39.014c-0.289-0.284-0.228-0.69,0.136-0.907
				c0.364-0.217,0.894-0.163,1.183,0.121s0.228,0.69-0.136,0.907C23.616,39.352,23.086,39.298,22.797,39.014z"/>
			<path class="st6" d="M19.25,41.127l1.764,1.73c0.145-0.032,0.283-0.084,0.408-0.158l1.287-0.767l-1.817-1.783
				c-0.36-0.353-1.019-0.42-1.472-0.15S18.892,40.774,19.25,41.127z M19.413,41.031c-0.289-0.284-0.228-0.69,0.136-0.907
				c0.364-0.217,0.894-0.163,1.183,0.121s0.228,0.69-0.136,0.907S19.702,41.315,19.413,41.031z"/>
			<polygon class="st6" points="33.274,33.415 32.93,33.62 34.338,35.001 34.682,34.796 			"/>
			<polygon class="st6" points="33.696,33.163 33.352,33.368 34.761,34.75 35.104,34.545 			"/>
			<polygon class="st6" points="34.118,32.912 33.774,33.117 35.183,34.498 35.527,34.293 			"/>
			<polygon class="st6" points="32.851,33.667 32.507,33.872 33.916,35.253 34.26,35.048 			"/>
			<polygon class="st6" points="29.831,35.467 29.488,35.671 30.896,37.053 31.24,36.848 			"/>
			<polygon class="st6" points="30.252,35.216 29.908,35.421 31.316,36.802 31.66,36.598 			"/>
			<polygon class="st6" points="30.672,34.966 30.328,35.171 31.737,36.552 32.08,36.347 			"/>
			<polygon class="st6" points="29.411,35.717 29.067,35.922 30.476,37.303 30.82,37.098 			"/>
			<polygon class="st6" points="28.991,35.967 28.647,36.172 30.056,37.554 30.4,37.349 			"/>
			<polygon class="st6" points="25.983,37.76 25.639,37.965 27.047,39.347 27.391,39.142 			"/>
			<polygon class="st6" points="26.403,37.51 26.059,37.715 27.468,39.096 27.811,38.891 			"/>
			<polygon class="st6" points="26.823,37.26 26.479,37.464 27.888,38.846 28.232,38.641 			"/>
			<polygon class="st6" points="25.562,38.011 25.219,38.216 26.627,39.597 26.971,39.392 			"/>
			<polygon class="st6" points="25.142,38.261 24.798,38.466 26.207,39.848 26.551,39.643 			"/>
			<polygon class="st6" points="22.119,40.063 21.775,40.268 23.184,41.65 23.528,41.445 			"/>
			<polygon class="st6" points="22.539,39.813 22.195,40.018 23.604,41.399 23.948,41.194 			"/>
			<polygon class="st6" points="22.959,39.562 22.616,39.767 24.024,41.149 24.368,40.944 			"/>
			<polygon class="st6" points="21.699,40.314 21.355,40.519 22.763,41.9 23.107,41.695 			"/>
			<path class="st6" d="M19.034,41.902l0.631,0.618c0.307,0.301,0.801,0.427,1.255,0.355l-1.33-1.305L19.034,41.902z"/>
			<path class="st6" d="M36.425,31.537l-0.487,0.29l1.301,1.276c0.062-0.121,0.09-0.251,0.085-0.381
				c-0.008-0.199-0.096-0.398-0.268-0.567L36.425,31.537z"/>
		</g>
		<g>
			<path class="st7" d="M37.324,32.722c0.005,0.13-0.024,0.26-0.085,0.381v0.94c0.062-0.121,0.09-0.251,0.085-0.381V32.722z"/>
			<path class="st7" d="M36.854,33.501l-1.235,0.736v0.885l1.235-0.736c0.145-0.086,0.256-0.194,0.335-0.312V33.19
				C37.11,33.308,36.999,33.416,36.854,33.501z"/>
			<polygon class="st7" points="35.527,34.293 35.183,34.498 35.183,35.382 35.527,35.178 			"/>
			<polygon class="st7" points="35.104,34.545 34.761,34.75 34.761,35.634 35.104,35.429 			"/>
			<polygon class="st7" points="34.682,34.796 34.338,35.001 34.338,35.886 34.682,35.681 			"/>
			<polygon class="st7" points="34.26,35.048 33.916,35.253 33.916,36.138 34.26,35.933 			"/>
			<polygon class="st7" points="33.804,35.32 32.162,36.298 32.162,37.183 33.804,36.204 			"/>
			<polygon class="st7" points="31.666,36.594 31.322,36.799 31.322,37.683 31.666,37.478 			"/>
			<polygon class="st7" points="31.244,36.846 30.9,37.051 30.9,37.935 31.244,37.73 			"/>
			<polygon class="st7" points="30.822,37.097 30.478,37.302 30.478,38.187 30.822,37.982 			"/>
			<polygon class="st7" points="30.4,37.349 30.056,37.554 30.056,38.438 30.4,38.233 			"/>
			<polygon class="st7" points="29.985,37.596 28.344,38.574 28.344,39.459 29.985,38.48 			"/>
			<polygon class="st7" points="32.08,36.347 31.737,36.552 31.737,37.437 32.08,37.232 			"/>
			<polygon class="st7" points="27.818,38.888 27.474,39.093 27.474,39.977 27.818,39.772 			"/>
			<polygon class="st7" points="27.395,39.14 27.051,39.344 27.051,40.229 27.395,40.024 			"/>
			<polygon class="st7" points="26.973,39.391 26.629,39.596 26.629,40.481 26.973,40.276 			"/>
			<polygon class="st7" points="26.551,39.643 26.207,39.848 26.207,40.732 26.551,40.527 			"/>
			<polygon class="st7" points="26.095,39.915 24.453,40.893 24.453,41.778 26.095,40.799 			"/>
			<polygon class="st7" points="28.232,38.641 27.888,38.846 27.888,39.73 28.232,39.526 			"/>
			<polygon class="st7" points="23.954,41.191 23.61,41.396 23.61,42.28 23.954,42.075 			"/>
			<polygon class="st7" points="23.532,41.442 23.188,41.647 23.188,42.532 23.532,42.327 			"/>
			<polygon class="st7" points="23.109,41.694 22.765,41.899 22.765,42.783 23.109,42.578 			"/>
			<polygon class="st7" points="24.368,40.944 24.024,41.149 24.024,42.033 24.368,41.828 			"/>
			<path class="st7" d="M21.423,42.699c-0.125,0.074-0.264,0.126-0.408,0.158l0.002,0.883c0.145-0.032,0.283-0.084,0.408-0.158
				l1.287-0.767l-0.002-0.883L21.423,42.699z"/>
			<path class="st7" d="M19.034,41.902l0.002,0.883l0.631,0.618c0.307,0.301,0.801,0.427,1.255,0.355l-0.002-0.883
				c-0.453,0.072-0.948-0.054-1.255-0.355L19.034,41.902z"/>
		</g>
		<path d="M10.022,32.608c-0.036,0.244,0.048,0.5,0.262,0.71l9.382,9.202v0.889l-9.382-9.202c-0.214-0.209-0.299-0.466-0.262-0.71
			V32.608z"/>
	</g>
	<g>
		<path class="st8" d="M30.491,28.852L29.52,27.9c-0.028-0.028-0.039-0.063-0.032-0.095c0.006-0.029,0.026-0.056,0.058-0.075
			l1.294-0.771c0.068-0.04,0.168-0.03,0.222,0.023l0.971,0.952c0.027,0.027,0.038,0.059,0.033,0.09
			c-0.004,0.03-0.024,0.06-0.058,0.08l-1.294,0.771C30.646,28.915,30.546,28.905,30.491,28.852z"/>
		<path class="st9" d="M29.49,28.15c-0.007,0.032,0.003,0.067,0.032,0.095l0.971,0.952v-0.345L29.522,27.9
			c-0.028-0.028-0.039-0.063-0.032-0.095V28.15z"/>
		<path class="st10" d="M32.067,28.368c-0.004,0.03-0.024,0.06-0.058,0.08l-1.294,0.771c-0.068,0.04-0.168,0.03-0.222-0.023v-0.345
			c0.054,0.053,0.154,0.064,0.222,0.023l1.294-0.771c0.034-0.02,0.053-0.049,0.058-0.08V28.368z"/>
		<g>
			<path class="st11" d="M30.318,27.733c0.011,0.067,0.045,0.133,0.104,0.191c0.172,0.168,0.485,0.2,0.701,0.071
				c0.11-0.066,0.174-0.162,0.186-0.262c0.012-0.094-0.023-0.193-0.106-0.275c-0.172-0.168-0.485-0.2-0.701-0.071
				C30.361,27.472,30.296,27.605,30.318,27.733z"/>
			<path class="st12" d="M31.309,27.734c-0.012,0.1-0.075,0.196-0.186,0.262c-0.216,0.129-0.53,0.097-0.701-0.071
				c-0.058-0.058-0.093-0.124-0.104-0.191v0.227c0.011,0.067,0.045,0.133,0.104,0.191c0.172,0.168,0.485,0.2,0.701,0.071
				c0.11-0.066,0.174-0.162,0.186-0.262V27.734z"/>
		</g>
	</g>
	<g>
		<path class="st8" d="M15.678,37.11l-0.971-0.952c-0.028-0.028-0.039-0.063-0.032-0.095c0.006-0.029,0.026-0.056,0.058-0.075
			l1.294-0.771c0.068-0.04,0.168-0.03,0.222,0.023l0.971,0.952c0.027,0.027,0.037,0.06,0.033,0.09s-0.024,0.06-0.058,0.08
			l-1.294,0.771C15.833,37.173,15.733,37.163,15.678,37.11z"/>
		<path class="st9" d="M14.676,36.408c-0.007,0.032,0.003,0.067,0.032,0.095l0.971,0.952V37.11l-0.971-0.952
			c-0.028-0.028-0.039-0.063-0.032-0.095V36.408z"/>
		<path class="st10" d="M17.254,36.626c-0.004,0.03-0.024,0.06-0.058,0.08l-1.294,0.771c-0.068,0.04-0.168,0.03-0.222-0.023v-0.345
			c0.054,0.053,0.154,0.064,0.222,0.023l1.294-0.771c0.034-0.02,0.053-0.049,0.058-0.08C17.254,36.281,17.254,36.626,17.254,36.626z
			"/>
		<g>
			<path class="st11" d="M15.505,35.991c0.011,0.067,0.045,0.133,0.104,0.191c0.172,0.168,0.485,0.2,0.701,0.071
				c0.11-0.066,0.174-0.162,0.186-0.262c0.012-0.094-0.023-0.193-0.106-0.275c-0.172-0.168-0.485-0.2-0.701-0.071
				C15.547,35.73,15.483,35.863,15.505,35.991z"/>
			<path class="st12" d="M16.496,35.992c-0.012,0.1-0.075,0.196-0.186,0.262c-0.216,0.129-0.53,0.097-0.701-0.071
				c-0.058-0.058-0.093-0.124-0.104-0.191v0.227c0.011,0.067,0.045,0.133,0.104,0.191c0.172,0.168,0.485,0.2,0.701,0.071
				c0.11-0.066,0.174-0.162,0.186-0.262V35.992z"/>
		</g>
	</g>
</g>
</svg>
