<?xml version="1.0" encoding="utf-8"?>
<!-- Generator: Adobe Illustrator 25.4.1, SVG Export Plug-In . SVG Version: 6.00 Build 0)  -->
<svg version="1.1" id="Layer_1" xmlns="http://www.w3.org/2000/svg" xmlns:xlink="http://www.w3.org/1999/xlink" x="0px" y="0px"
	 viewBox="0 0 50 50" style="enable-background:new 0 0 50 50;" xml:space="preserve">
<style type="text/css">
	.st0{opacity:0.19;fill:#939596;enable-background:new    ;}
	.st1{fill:#3E3C3B;}
	.st2{fill:#3C3A39;}
	.st3{fill:#00DE4E;}
	.st4{fill:#EB1D29;}
	.st5{fill:#231F20;}
	.st6{fill:#DBAD00;}
	.st7{fill:#947816;}
	.st8{fill:#7E8083;}
	.st9{fill:#BCBEC0;}
	.st10{fill:#939698;}
	.st11{fill:#19191B;}
	.st12{fill:#48484A;}
</style>
<polygon class="st0" points="16.883,33.181 10.014,41.298 28.279,44.65 35.147,36.533 "/>
<g>
	<g>
		<g>
			<path d="M15.022,31.453c-0.364-0.217-0.894-0.163-1.183,0.121c-0.271,0.265-0.235,0.638,0.069,0.862
				c0.299-0.231,0.778-0.263,1.115-0.062c0.024,0.014,0.046,0.029,0.067,0.045c0.024-0.019,0.047-0.038,0.069-0.059
				C15.447,32.076,15.386,31.67,15.022,31.453z"/>
			<path d="M18.478,33.513c-0.364-0.217-0.894-0.163-1.183,0.121c-0.271,0.265-0.235,0.638,0.069,0.862
				c0.299-0.231,0.778-0.263,1.115-0.062c0.024,0.014,0.046,0.029,0.067,0.045c0.024-0.019,0.047-0.038,0.069-0.059
				C18.903,34.136,18.843,33.73,18.478,33.513z"/>
			<path d="M22.297,35.789c-0.364-0.217-0.894-0.163-1.183,0.121c-0.271,0.265-0.235,0.638,0.069,0.862
				c0.299-0.231,0.778-0.263,1.115-0.062c0.024,0.014,0.046,0.029,0.067,0.045c0.024-0.019,0.047-0.038,0.069-0.059
				C22.722,36.412,22.661,36.006,22.297,35.789z"/>
			<path d="M26.187,38.108c-0.364-0.217-0.894-0.163-1.183,0.121c-0.271,0.265-0.235,0.638,0.069,0.862
				c0.299-0.231,0.778-0.263,1.115-0.062c0.024,0.014,0.046,0.029,0.067,0.045c0.024-0.019,0.047-0.038,0.069-0.059
				C26.613,38.731,26.552,38.325,26.187,38.108z"/>
			<path d="M29.572,41.046c0.024,0.014,0.046,0.029,0.067,0.045c0.024-0.019,0.047-0.038,0.069-0.059
				c0.289-0.284,0.229-0.69-0.136-0.907c-0.364-0.217-0.894-0.163-1.183,0.121c-0.271,0.265-0.235,0.638,0.069,0.862
				C28.756,40.877,29.234,40.845,29.572,41.046z"/>
		</g>
		<path class="st1" d="M39.098,32.608c-0.037-0.244-0.194-0.476-0.463-0.636l-9.399-5.602l-0.986-0.588l-0.05-0.03l-1.968-1.173
			l-0.086-0.051l-2.942-1.754c-0.539-0.321-1.33-0.24-1.758,0.179l-2.169,2.127l-7.214,7.075c-0.215,0.211-0.299,0.47-0.261,0.715
			c0.038,0.242,0.195,0.472,0.463,0.632l15.431,9.197c0.539,0.321,1.33,0.24,1.758-0.179l9.382-9.202
			C39.051,33.108,39.135,32.852,39.098,32.608z M15.157,32.36c-0.289,0.284-0.819,0.338-1.183,0.121s-0.425-0.623-0.136-0.907
			c0.289-0.284,0.819-0.338,1.183-0.121C15.386,31.67,15.447,32.076,15.157,32.36z M18.614,34.42
			c-0.289,0.284-0.819,0.338-1.183,0.121c-0.364-0.217-0.425-0.623-0.136-0.907c0.289-0.284,0.819-0.338,1.183-0.121
			C18.843,33.73,18.903,34.136,18.614,34.42z M22.432,36.696c-0.289,0.284-0.819,0.338-1.183,0.121
			c-0.364-0.217-0.425-0.623-0.136-0.907c0.289-0.284,0.819-0.338,1.183-0.121S22.722,36.412,22.432,36.696z M26.323,39.015
			c-0.289,0.284-0.819,0.338-1.183,0.121c-0.364-0.217-0.425-0.623-0.136-0.907c0.289-0.284,0.819-0.338,1.183-0.121
			C26.552,38.325,26.613,38.731,26.323,39.015z M29.707,41.031c-0.289,0.284-0.819,0.338-1.183,0.121
			c-0.364-0.217-0.425-0.623-0.136-0.907c0.289-0.284,0.819-0.338,1.183-0.121C29.936,40.342,29.997,40.748,29.707,41.031z"/>
		<path class="st2" d="M11.803,33.759c0.038,0.242,0.195,0.472,0.463,0.632l15.431,9.197c0.539,0.321,1.33,0.24,1.758-0.179V42.52
			c-0.428,0.42-1.219,0.5-1.758,0.179l-15.431-9.197c-0.268-0.16-0.425-0.389-0.463-0.632V33.759z"/>
		<g>
			<polygon class="st3" points="27.485,26.533 29.208,26.398 28.222,25.81 			"/>
			<polygon class="st3" points="24.731,26.052 28.172,25.78 26.204,24.607 			"/>
			<path class="st3" d="M21.418,22.982l-2.169,2.127l6.869-0.552l-2.942-1.754C22.637,22.481,21.846,22.562,21.418,22.982z"/>
			<path class="st3" d="M28.475,28.851c-0.093-0.055-0.227-0.042-0.301,0.03c-0.074,0.072-0.058,0.176,0.035,0.231
				c0.092,0.055,0.227,0.041,0.301-0.031C28.583,29.01,28.567,28.906,28.475,28.851z"/>
			<path class="st3" d="M29.706,29.585c-0.093-0.055-0.227-0.041-0.301,0.031c-0.074,0.072-0.058,0.175,0.034,0.231
				c0.093,0.055,0.227,0.041,0.301-0.031C29.814,29.743,29.799,29.64,29.706,29.585z"/>
			<path class="st3" d="M30.247,29.077l-1.246-0.743c-0.458-0.273-1.126-0.205-1.49,0.152c-0.364,0.357-0.287,0.869,0.171,1.142
				l1.246,0.743c0.458,0.273,1.126,0.205,1.49-0.152C30.781,29.863,30.705,29.35,30.247,29.077z M29.192,30.113l-1.246-0.743
				c-0.275-0.164-0.321-0.471-0.102-0.685c0.218-0.214,0.619-0.255,0.894-0.091l1.246,0.743c0.275,0.164,0.321,0.471,0.102,0.685
				C29.867,30.235,29.466,30.276,29.192,30.113z"/>
		</g>
		<g>
			<path class="st4" d="M29.035,31.488l-0.102-0.061c-0.045-0.027-0.111-0.02-0.146,0.015l-0.364,0.357
				c-0.036,0.035-0.028,0.085,0.017,0.112l0.102,0.061c0.045,0.027,0.111,0.02,0.146-0.015l0.364-0.357
				C29.088,31.566,29.08,31.515,29.035,31.488z"/>
			<path class="st5" d="M27.676,30.678l-0.102-0.061c-0.045-0.027-0.111-0.02-0.146,0.015l-0.364,0.357
				c-0.036,0.035-0.028,0.085,0.017,0.112l0.102,0.061c0.045,0.027,0.111,0.02,0.146-0.015l0.364-0.357
				C27.729,30.756,27.721,30.705,27.676,30.678z"/>
			<path class="st5" d="M26.317,29.868l-0.102-0.061c-0.045-0.027-0.111-0.02-0.146,0.015l-0.364,0.357
				c-0.036,0.035-0.028,0.085,0.017,0.112l0.102,0.061c0.045,0.027,0.111,0.02,0.146-0.015l0.364-0.357
				C26.37,29.946,26.362,29.895,26.317,29.868z"/>
			<path class="st5" d="M24.958,29.058l-0.102-0.061c-0.045-0.027-0.111-0.02-0.146,0.015l-0.364,0.357
				c-0.036,0.035-0.028,0.085,0.017,0.112l0.102,0.061c0.045,0.027,0.111,0.02,0.146-0.015l0.364-0.357
				C25.011,29.136,25.003,29.085,24.958,29.058z"/>
			<path class="st4" d="M30.394,32.298l-0.102-0.061c-0.045-0.027-0.111-0.02-0.146,0.015l-0.364,0.357
				c-0.036,0.035-0.028,0.085,0.017,0.112l0.102,0.061c0.045,0.027,0.111,0.02,0.146-0.015l0.364-0.357
				C30.446,32.376,30.439,32.325,30.394,32.298z"/>
			<path class="st5" d="M27.988,32.515l-0.102-0.061c-0.045-0.027-0.111-0.02-0.146,0.015l-0.364,0.357
				c-0.036,0.035-0.028,0.085,0.017,0.112l0.102,0.061c0.045,0.027,0.111,0.02,0.146-0.015l0.364-0.357
				C28.041,32.592,28.033,32.542,27.988,32.515z"/>
			<path class="st5" d="M26.629,31.705l-0.102-0.061c-0.045-0.027-0.111-0.02-0.146,0.015l-0.364,0.357
				c-0.036,0.035-0.028,0.085,0.017,0.112l0.102,0.061c0.045,0.027,0.111,0.02,0.146-0.015l0.364-0.357
				C26.682,31.782,26.674,31.732,26.629,31.705z"/>
			<path class="st4" d="M25.27,30.895l-0.102-0.061c-0.045-0.027-0.111-0.02-0.146,0.015l-0.364,0.357
				c-0.036,0.035-0.028,0.085,0.017,0.112l0.102,0.061c0.045,0.027,0.111,0.02,0.146-0.015l0.364-0.357
				C25.323,30.973,25.315,30.922,25.27,30.895z"/>
			<path class="st5" d="M23.911,30.085l-0.102-0.061c-0.045-0.027-0.111-0.02-0.146,0.015l-0.364,0.357
				c-0.036,0.035-0.028,0.085,0.017,0.112l0.102,0.061c0.045,0.027,0.111,0.02,0.146-0.015l0.364-0.357
				C23.964,30.163,23.956,30.112,23.911,30.085z"/>
			<path class="st5" d="M29.347,33.325l-0.102-0.061c-0.045-0.027-0.111-0.02-0.146,0.015l-0.364,0.357
				c-0.036,0.035-0.028,0.085,0.017,0.112l0.102,0.061c0.045,0.027,0.111,0.02,0.146-0.015l0.364-0.357
				C29.399,33.402,29.392,33.352,29.347,33.325z"/>
			<path class="st5" d="M26.941,33.542l-0.102-0.061c-0.045-0.027-0.111-0.02-0.146,0.015l-0.364,0.357
				c-0.036,0.035-0.028,0.085,0.017,0.112l0.102,0.061c0.045,0.027,0.111,0.02,0.146-0.015l0.364-0.357
				C26.993,33.619,26.986,33.569,26.941,33.542z"/>
			<path class="st4" d="M25.582,32.732l-0.102-0.061c-0.045-0.027-0.111-0.02-0.146,0.015l-0.364,0.357
				c-0.036,0.035-0.028,0.085,0.017,0.112l0.102,0.061c0.045,0.027,0.111,0.02,0.146-0.015l0.364-0.357
				C25.635,32.809,25.627,32.759,25.582,32.732z"/>
			<path class="st5" d="M24.223,31.922l-0.102-0.061c-0.045-0.027-0.111-0.02-0.146,0.015l-0.364,0.357
				c-0.036,0.035-0.028,0.085,0.017,0.112l0.102,0.061c0.045,0.027,0.111,0.02,0.146-0.015l0.364-0.357
				C24.276,31.999,24.268,31.949,24.223,31.922z"/>
			<path class="st5" d="M22.864,31.112l-0.102-0.061c-0.045-0.027-0.111-0.02-0.146,0.015l-0.364,0.357
				c-0.036,0.035-0.028,0.085,0.017,0.112l0.102,0.061c0.045,0.027,0.111,0.02,0.146-0.015l0.364-0.357
				C22.917,31.189,22.909,31.139,22.864,31.112z"/>
			<path class="st5" d="M28.3,34.352l-0.102-0.061c-0.045-0.027-0.111-0.02-0.146,0.015l-0.364,0.357
				c-0.036,0.035-0.028,0.085,0.017,0.112l0.102,0.061c0.045,0.027,0.111,0.02,0.146-0.015l0.364-0.357
				C28.352,34.429,28.345,34.379,28.3,34.352z"/>
			<path class="st5" d="M25.894,34.569l-0.102-0.061c-0.045-0.027-0.111-0.02-0.146,0.015l-0.364,0.357
				c-0.036,0.035-0.028,0.085,0.017,0.112l0.102,0.061c0.045,0.027,0.111,0.02,0.146-0.015l0.364-0.357
				C25.946,34.646,25.939,34.596,25.894,34.569z"/>
			<path class="st4" d="M24.535,33.759l-0.102-0.061c-0.045-0.027-0.111-0.02-0.146,0.015l-0.364,0.357
				c-0.036,0.035-0.028,0.085,0.017,0.112l0.102,0.061c0.045,0.027,0.111,0.02,0.146-0.015l0.364-0.357
				C24.588,33.836,24.58,33.786,24.535,33.759z"/>
			<path class="st5" d="M23.176,32.949l-0.102-0.061c-0.045-0.027-0.111-0.02-0.146,0.015l-0.364,0.357
				c-0.036,0.035-0.028,0.085,0.017,0.112l0.102,0.061c0.045,0.027,0.111,0.02,0.146-0.015l0.364-0.357
				C23.229,33.026,23.221,32.976,23.176,32.949z"/>
			<path class="st5" d="M21.817,32.139l-0.102-0.061c-0.045-0.027-0.111-0.02-0.146,0.015l-0.364,0.357
				c-0.036,0.035-0.028,0.085,0.017,0.112l0.102,0.061c0.045,0.027,0.111,0.02,0.146-0.015l0.364-0.357
				C21.87,32.216,21.862,32.166,21.817,32.139z"/>
			<path class="st5" d="M27.253,35.379l-0.102-0.061c-0.045-0.027-0.111-0.02-0.146,0.015L26.64,35.69
				c-0.036,0.035-0.028,0.085,0.017,0.112l0.102,0.061c0.045,0.027,0.111,0.02,0.146-0.015l0.364-0.357
				C27.305,35.456,27.298,35.406,27.253,35.379z"/>
			<path class="st5" d="M24.847,35.596l-0.102-0.061c-0.045-0.027-0.111-0.02-0.146,0.015l-0.364,0.357
				c-0.036,0.035-0.028,0.085,0.017,0.112l0.102,0.061c0.045,0.027,0.111,0.02,0.146-0.015l0.364-0.357
				C24.899,35.673,24.892,35.623,24.847,35.596z"/>
			<path class="st5" d="M23.488,34.786l-0.102-0.061c-0.045-0.027-0.111-0.02-0.146,0.015l-0.364,0.357
				c-0.036,0.035-0.028,0.085,0.017,0.112l0.102,0.061c0.045,0.027,0.111,0.02,0.146-0.015l0.364-0.357
				C23.54,34.863,23.533,34.813,23.488,34.786z"/>
			<path class="st4" d="M22.129,33.976l-0.102-0.061c-0.045-0.027-0.111-0.02-0.146,0.015l-0.364,0.357
				c-0.036,0.035-0.028,0.085,0.017,0.112l0.102,0.061c0.045,0.027,0.111,0.02,0.146-0.015l0.364-0.357
				C22.182,34.053,22.174,34.003,22.129,33.976z"/>
			<path class="st5" d="M20.77,33.166l-0.102-0.061c-0.045-0.027-0.111-0.02-0.146,0.015l-0.364,0.357
				c-0.036,0.035-0.028,0.085,0.017,0.112l0.102,0.061c0.045,0.027,0.111,0.02,0.146-0.015l0.364-0.357
				C20.823,33.243,20.815,33.193,20.77,33.166z"/>
			<path class="st5" d="M26.206,36.406l-0.102-0.061c-0.045-0.027-0.111-0.02-0.146,0.015l-0.364,0.357
				c-0.036,0.035-0.028,0.085,0.017,0.112l0.102,0.061c0.045,0.027,0.111,0.02,0.146-0.015l0.364-0.357
				C26.258,36.483,26.251,36.433,26.206,36.406z"/>
		</g>
		<g>
			<path class="st6" d="M15.15,31.327c-0.453-0.27-1.112-0.203-1.472,0.15l-1.746,1.713c0.079,0.118,0.19,0.226,0.335,0.312
				l1.235,0.736l1.817-1.783C15.678,32.103,15.603,31.597,15.15,31.327z M13.974,32.48c-0.364-0.217-0.425-0.623-0.136-0.907
				c0.289-0.284,0.819-0.338,1.183-0.121c0.364,0.217,0.425,0.623,0.136,0.907C14.868,32.643,14.338,32.697,13.974,32.48z"/>
			<path class="st6" d="M18.606,33.387c-0.453-0.27-1.112-0.203-1.472,0.15l-1.817,1.783l1.641,0.978l1.817-1.783
				C19.135,34.163,19.059,33.657,18.606,33.387z M17.43,34.54c-0.364-0.217-0.425-0.623-0.136-0.907
				c0.289-0.284,0.819-0.338,1.183-0.121c0.364,0.217,0.425,0.623,0.136,0.907C18.325,34.703,17.795,34.757,17.43,34.54z"/>
			<path class="st6" d="M22.425,35.663c-0.453-0.27-1.112-0.203-1.472,0.15l-1.817,1.783l1.641,0.978l1.817-1.783
				C22.953,36.438,22.878,35.933,22.425,35.663z M21.249,36.816c-0.364-0.217-0.425-0.623-0.136-0.907
				c0.289-0.284,0.819-0.338,1.183-0.121c0.364,0.217,0.425,0.623,0.136,0.907C22.143,36.979,21.613,37.033,21.249,36.816z"/>
			<path class="st6" d="M26.315,37.982c-0.453-0.27-1.112-0.203-1.472,0.15l-1.817,1.783l1.641,0.978l1.817-1.783
				C26.844,38.757,26.769,38.252,26.315,37.982z M25.14,39.135c-0.364-0.217-0.425-0.623-0.136-0.907
				c0.289-0.284,0.819-0.338,1.183-0.121c0.364,0.217,0.425,0.623,0.136,0.907C26.034,39.298,25.504,39.352,25.14,39.135z"/>
			<path class="st6" d="M29.7,39.999c-0.453-0.27-1.112-0.203-1.472,0.15l-1.817,1.783l1.287,0.767
				c0.125,0.074,0.263,0.126,0.408,0.158l1.764-1.73C30.228,40.774,30.153,40.269,29.7,39.999z M28.524,41.152
				c-0.364-0.217-0.425-0.623-0.136-0.907c0.289-0.284,0.819-0.338,1.183-0.121c0.364,0.217,0.425,0.623,0.136,0.907
				C29.418,41.315,28.888,41.369,28.524,41.152z"/>
			<polygon class="st6" points="14.438,34.796 14.782,35.001 16.19,33.62 15.846,33.415 			"/>
			<polygon class="st6" points="14.016,34.545 14.359,34.75 15.768,33.368 15.424,33.163 			"/>
			<polygon class="st6" points="13.593,34.293 13.937,34.498 15.346,33.117 15.002,32.912 			"/>
			<polygon class="st6" points="14.86,35.048 15.204,35.253 16.613,33.872 16.269,33.667 			"/>
			<polygon class="st6" points="17.88,36.848 18.224,37.053 19.632,35.671 19.289,35.467 			"/>
			<polygon class="st6" points="17.46,36.598 17.804,36.802 19.212,35.421 18.868,35.216 			"/>
			<polygon class="st6" points="17.04,36.347 17.383,36.552 18.792,35.171 18.448,34.966 			"/>
			<polygon class="st6" points="18.3,37.098 18.644,37.303 20.053,35.922 19.709,35.717 			"/>
			<polygon class="st6" points="18.72,37.349 19.064,37.554 20.473,36.172 20.129,35.967 			"/>
			<polygon class="st6" points="21.729,39.142 22.073,39.347 23.481,37.965 23.137,37.76 			"/>
			<polygon class="st6" points="21.309,38.891 21.652,39.096 23.061,37.715 22.717,37.51 			"/>
			<polygon class="st6" points="20.888,38.641 21.232,38.846 22.641,37.464 22.297,37.26 			"/>
			<polygon class="st6" points="22.149,39.392 22.493,39.597 23.901,38.216 23.558,38.011 			"/>
			<polygon class="st6" points="22.569,39.643 22.913,39.848 24.322,38.466 23.978,38.261 			"/>
			<polygon class="st6" points="25.592,41.445 25.936,41.65 27.345,40.268 27.001,40.063 			"/>
			<polygon class="st6" points="25.172,41.194 25.516,41.399 26.925,40.018 26.581,39.813 			"/>
			<polygon class="st6" points="24.752,40.944 25.096,41.149 26.504,39.767 26.161,39.562 			"/>
			<polygon class="st6" points="26.013,41.695 26.357,41.9 27.765,40.519 27.421,40.314 			"/>
			<path class="st6" d="M29.53,41.57l-1.33,1.305c0.454,0.072,0.948-0.054,1.255-0.355l0.631-0.618L29.53,41.57z"/>
			<path class="st6" d="M12.064,32.155c-0.172,0.169-0.26,0.368-0.268,0.567c-0.005,0.13,0.023,0.26,0.085,0.381l1.301-1.276
				l-0.487-0.29L12.064,32.155z"/>
		</g>
		<g>
			<path class="st7" d="M11.796,33.662c-0.005,0.13,0.023,0.26,0.085,0.381v-0.94c-0.061-0.121-0.09-0.251-0.085-0.381V33.662z"/>
			<path class="st7" d="M11.931,33.19v0.884c0.079,0.118,0.19,0.226,0.335,0.312l1.235,0.736v-0.885l-1.235-0.736
				C12.121,33.416,12.01,33.308,11.931,33.19z"/>
			<polygon class="st7" points="13.593,35.178 13.937,35.382 13.937,34.498 13.593,34.293 			"/>
			<polygon class="st7" points="14.016,35.429 14.359,35.634 14.359,34.75 14.016,34.545 			"/>
			<polygon class="st7" points="14.438,35.681 14.782,35.886 14.782,35.001 14.438,34.796 			"/>
			<polygon class="st7" points="14.86,35.933 15.204,36.138 15.204,35.253 14.86,35.048 			"/>
			<polygon class="st7" points="15.316,36.204 16.958,37.183 16.958,36.298 15.316,35.32 			"/>
			<polygon class="st7" points="17.454,37.478 17.798,37.683 17.798,36.799 17.454,36.594 			"/>
			<polygon class="st7" points="17.876,37.73 18.22,37.935 18.22,37.051 17.876,36.846 			"/>
			<polygon class="st7" points="18.298,37.982 18.642,38.187 18.642,37.302 18.298,37.097 			"/>
			<polygon class="st7" points="18.72,38.233 19.064,38.438 19.064,37.554 18.72,37.349 			"/>
			<polygon class="st7" points="19.135,38.48 20.776,39.459 20.776,38.574 19.135,37.596 			"/>
			<polygon class="st7" points="17.04,37.232 17.383,37.437 17.383,36.552 17.04,36.347 			"/>
			<polygon class="st7" points="21.302,39.772 21.646,39.977 21.646,39.093 21.302,38.888 			"/>
			<polygon class="st7" points="21.725,40.024 22.069,40.229 22.069,39.344 21.725,39.14 			"/>
			<polygon class="st7" points="22.147,40.276 22.491,40.481 22.491,39.596 22.147,39.391 			"/>
			<polygon class="st7" points="22.569,40.527 22.913,40.732 22.913,39.848 22.569,39.643 			"/>
			<polygon class="st7" points="23.025,40.799 24.667,41.778 24.667,40.893 23.025,39.915 			"/>
			<polygon class="st7" points="20.888,39.526 21.232,39.73 21.232,38.846 20.888,38.641 			"/>
			<polygon class="st7" points="25.166,42.075 25.51,42.28 25.51,41.396 25.166,41.191 			"/>
			<polygon class="st7" points="25.588,42.327 25.932,42.532 25.932,41.647 25.588,41.442 			"/>
			<polygon class="st7" points="26.011,42.578 26.355,42.783 26.355,41.899 26.011,41.694 			"/>
			<polygon class="st7" points="24.752,41.828 25.096,42.033 25.096,41.149 24.752,40.944 			"/>
			<path class="st7" d="M26.41,41.932l-0.002,0.883l1.287,0.767c0.125,0.074,0.263,0.126,0.408,0.158l0.002-0.883
				c-0.144-0.032-0.283-0.084-0.408-0.158L26.41,41.932z"/>
			<path class="st7" d="M29.455,42.52c-0.307,0.301-0.802,0.427-1.255,0.355l-0.002,0.883c0.454,0.072,0.948-0.054,1.255-0.355
				l0.631-0.618l0.002-0.883L29.455,42.52z"/>
		</g>
		<path d="M39.098,33.497c0.037,0.244-0.048,0.501-0.262,0.71l-9.382,9.202V42.52l9.382-9.202c0.214-0.21,0.298-0.466,0.262-0.71
			V33.497z"/>
	</g>
	<g>
		<path class="st8" d="M18.406,28.875l-1.294-0.771c-0.034-0.02-0.054-0.05-0.058-0.08c-0.005-0.031,0.006-0.063,0.033-0.09
			l0.971-0.952c0.054-0.053,0.154-0.063,0.222-0.023l1.294,0.771c0.032,0.019,0.052,0.046,0.058,0.075
			c0.007,0.032-0.004,0.067-0.032,0.095l-0.971,0.952C18.574,28.905,18.474,28.915,18.406,28.875z"/>
		<path class="st9" d="M19.63,27.805c0.007,0.032-0.004,0.067-0.032,0.095l-0.971,0.952v0.345l0.971-0.952
			c0.029-0.028,0.039-0.063,0.032-0.095V27.805z"/>
		<path class="st10" d="M17.053,28.023c0.005,0.031,0.024,0.06,0.058,0.08l1.294,0.771c0.068,0.041,0.168,0.03,0.222-0.023v0.345
			c-0.054,0.053-0.154,0.063-0.222,0.023l-1.294-0.771c-0.034-0.02-0.054-0.05-0.058-0.08V28.023z"/>
		<g>
			<path class="st11" d="M18.618,27.387c-0.216-0.129-0.529-0.097-0.701,0.071c-0.083,0.082-0.118,0.181-0.106,0.275
				c0.012,0.1,0.076,0.196,0.186,0.262c0.216,0.129,0.529,0.097,0.701-0.071c0.059-0.058,0.093-0.124,0.104-0.191
				C18.824,27.605,18.759,27.472,18.618,27.387z"/>
			<path class="st12" d="M17.811,27.961c0.012,0.1,0.076,0.196,0.186,0.262c0.216,0.129,0.529,0.097,0.701-0.071
				c0.059-0.058,0.093-0.124,0.104-0.191v-0.227c-0.011,0.067-0.046,0.133-0.104,0.191c-0.171,0.168-0.485,0.2-0.701,0.071
				c-0.111-0.066-0.174-0.162-0.186-0.262V27.961z"/>
		</g>
	</g>
	<g>
		<path class="st8" d="M33.219,37.133l-1.294-0.771c-0.034-0.02-0.054-0.05-0.058-0.08s0.006-0.063,0.033-0.09l0.971-0.952
			c0.054-0.053,0.154-0.063,0.222-0.023l1.294,0.771c0.032,0.019,0.052,0.046,0.058,0.075c0.007,0.032-0.004,0.067-0.032,0.095
			l-0.971,0.952C33.387,37.163,33.287,37.173,33.219,37.133z"/>
		<path class="st9" d="M34.444,36.063c0.007,0.032-0.004,0.067-0.032,0.095l-0.971,0.952v0.345l0.971-0.952
			c0.029-0.028,0.039-0.063,0.032-0.095V36.063z"/>
		<path class="st10" d="M31.866,36.281c0.005,0.031,0.024,0.06,0.058,0.08l1.294,0.771c0.068,0.041,0.168,0.03,0.222-0.023v0.345
			c-0.054,0.053-0.154,0.063-0.222,0.023l-1.294-0.771c-0.034-0.02-0.054-0.05-0.058-0.08V36.281z"/>
		<g>
			<path class="st11" d="M33.431,35.645c-0.216-0.129-0.529-0.097-0.701,0.071c-0.083,0.082-0.118,0.181-0.106,0.275
				c0.012,0.1,0.076,0.196,0.186,0.262c0.216,0.129,0.529,0.097,0.701-0.071c0.059-0.058,0.093-0.124,0.104-0.191
				C33.637,35.863,33.573,35.73,33.431,35.645z"/>
			<path class="st12" d="M32.624,36.219c0.012,0.1,0.076,0.196,0.186,0.262c0.216,0.129,0.529,0.097,0.701-0.071
				c0.059-0.058,0.093-0.124,0.104-0.191v-0.227c-0.011,0.067-0.046,0.133-0.104,0.191c-0.171,0.168-0.485,0.2-0.701,0.071
				c-0.111-0.066-0.174-0.162-0.186-0.262V36.219z"/>
		</g>
	</g>
</g>
</svg>
