<?xml version="1.0" encoding="utf-8"?>
<!-- Generator: Adobe Illustrator 26.0.1, SVG Export Plug-In . SVG Version: 6.00 Build 0)  -->
<svg version="1.1" id="Layer_1" xmlns="http://www.w3.org/2000/svg" xmlns:xlink="http://www.w3.org/1999/xlink" x="0px" y="0px"
	 viewBox="0 0 50 50" style="enable-background:new 0 0 50 50;" xml:space="preserve">
<style type="text/css">
	.st0{display:none;}
	.st1{display:inline;}
	.st2{fill:#344593;}
	.st3{fill:#3E54A3;}
	.st4{fill:#2E4490;}
	.st5{fill:#122571;}
	.st6{opacity:0.5;fill:#031F60;enable-background:new    ;}
	.st7{fill:#BBDFFF;}
	.st8{fill:#FDB724;}
	.st9{fill:#E7478D;}
	.st10{fill:#BF2878;}
	.st11{fill:#27DEBF;}
	.st12{fill:#1BBC9D;}
	.st13{fill:#A33D64;}
	.st14{fill:#82294D;}
	.st15{fill:#0A4A80;}
	.st16{fill:#F1FCFF;}
	.st17{fill:#D6E6FF;}
	.st18{fill:#CEF3FF;}
	.st19{fill:#606060;}
	.st20{enable-background:new    ;}
	.st21{fill:#F19729;}
	.st22{fill:#FCB040;}
	.st23{fill:#FFCB49;}
	.st24{fill:#2E5677;}
	.st25{fill:#FF51CE;}
	.st26{fill:#EDE6A0;}
	.st27{fill:#FFF7B0;}
	.st28{fill:url(#SVGID_1_);}
	.st29{fill:url(#SVGID_00000127045653350584592260000001825674998504167584_);}
	.st30{fill:#E6E7E8;}
	.st31{fill:#D0D2D3;}
	.st32{fill:#9FA2A4;}
	.st33{opacity:0.5;fill:#228BB8;enable-background:new    ;}
	.st34{fill:#BBBCBE;}
	.st35{fill:#7A6154;}
	.st36{fill:#FFCC99;}
	.st37{fill:#26130D;}
	.st38{fill:#1C0C08;}
	.st39{fill:#9C8A78;}
	.st40{fill:#1F872B;}
	.st41{fill:#2EA246;}
	.st42{fill:#3B9743;}
	.st43{fill:#3BAE4B;}
	.st44{fill:#67C366;}
</style>
<g id="Example" class="st0">
	<g class="st1">
		<g id="XMLID_4903_">
			<path id="XMLID_4905_" class="st2" d="M45.3,33.2v-4.6l0,0c0-0.9-0.6-1.8-1.7-2.4c-2.3-1.3-6-1.3-8.4,0c-1.2,0.7-1.7,1.6-1.7,2.4
				l0,0v4.5c0,0.9,0.6,1.8,1.7,2.4c2.3,1.3,6,1.3,8.4,0C44.8,34.9,45.3,34.1,45.3,33.2L45.3,33.2L45.3,33.2L45.3,33.2z"/>
			<path id="XMLID_4904_" class="st2" d="M45.3,33.2v-4.6l0,0c0-0.9-0.6-1.8-1.7-2.4c-2.3-1.3-6-1.3-8.4,0c-1.2,0.7-1.7,1.6-1.7,2.4
				l0,0v4.5c0,0.9,0.6,1.8,1.7,2.4c2.3,1.3,6,1.3,8.4,0C44.8,34.9,45.3,34.1,45.3,33.2L45.3,33.2L45.3,33.2L45.3,33.2z"/>
		</g>
		<polygon id="XMLID_4900_" class="st3" points="39.4,23 29.7,28.6 39.4,34.2 49.2,28.6 		"/>
		<path id="XMLID_4899_" class="st4" d="M44.3,31.4l-4.8-2.7c-0.1,0-0.2,0-0.2,0.1s0,0.2,0.1,0.2l4.6,2.6L44.3,31.4z"/>
		<polygon id="XMLID_4896_" class="st5" points="29.7,28.6 29.7,29 39.4,34.6 39.4,34.2 		"/>
		<polygon id="XMLID_4883_" class="st4" points="49.2,28.6 49.2,29 39.4,34.6 39.4,34.2 		"/>
		<polygon id="XMLID_4876_" class="st6" points="33.5,31.2 39.4,35.2 45.3,31.2 39.4,34.6 		"/>
		<g id="XMLID_4823_">
			<path id="XMLID_4835_" class="st7" d="M44.7,36.2c-0.1,0-0.2-0.1-0.2-0.2v-4c0-0.2-0.1-0.4-0.3-0.4l-4.9-2.8
				c-0.1,0-0.1-0.2-0.1-0.2c0-0.1,0.2-0.1,0.2-0.1l4.9,2.8c0.3,0.2,0.4,0.4,0.4,0.7v4C44.8,36.1,44.7,36.2,44.7,36.2z"/>
		</g>
		<path class="st8" d="M45.3,39.3L45,36.6c0.1-0.1,0.1-0.2,0-0.2l0,0l0,0l0,0v-0.1l0,0l0,0l0,0c0-0.2-0.2-0.4-0.4-0.4c0,0,0,0-0.1,0
			l0,0l0,0c0,0,0,0-0.1,0c0,0,0,0-0.1,0c0,0,0,0-0.1,0c0,0,0,0,0,0.1l0,0v0.1c0,0.1,0,0.2,0.1,0.3l0,0c-0.1,0.1,0,0.2,0,0.2L44,39.3
			c0,0.1,0.1,0.2,0.3,0.3l0,0h0.1l0,0c0.1,0,0.2,0.1,0.3,0.1l0,0l0,0l0,0l0,0l0,0c0.1,0,0.2,0,0.3-0.1l0,0h0.1l0,0
			C45.3,39.5,45.3,39.4,45.3,39.3z"/>
	</g>
	<g id="XMLID_3738_" class="st1">
		<path id="XMLID_4404_" class="st9" d="M12.4,36.1c1.1-0.8,1.8-2.7,1.7-4c-0.1-1.4-1.2-2-1.7-2.3l0,0c-1.1-0.6-2.8-0.6-3.9,0l0,0
			C8,30.1,7,30.7,6.8,32.1c-0.1,1.3,0.6,3.2,1.7,4l0,0c0.1,0,0.1,0.1,0.2,0.1c1,0.6,2.6,0.6,3.6,0l0,0
			C12.3,36.2,12.4,36.1,12.4,36.1L12.4,36.1z"/>
		<path id="XMLID_4395_" class="st10" d="M9.9,30.8c-0.3,0.2-0.3,0.4,0,0.6s0.8,0.2,1.1,0s0.3-0.4,0-0.6
			C10.7,30.6,10.2,30.6,9.9,30.8z"/>
		<g id="XMLID_4426_">
			<path id="XMLID_2198_" class="st11" d="M10.5,31.2c0,0-0.9,0-1.4-0.7s0-1.9,0-1.9s1.1,0.1,1.7,1C11.2,30.4,10.5,31.2,10.5,31.2z"
				/>
			<path id="XMLID_4431_" class="st12" d="M9,30.5c0.5,0.7,1.4,0.7,1.4,0.7C10.3,29.6,9,28.6,9,28.6S8.5,29.8,9,30.5z"/>
		</g>
		<path id="XMLID_4403_" class="st13" d="M10.5,31.2c0,0,0-1.3,0.7-1.9s1.2-0.6,1.2-0.6c0.4,0,0.9,0.4,0.7,0.4c0,0-0.9,0-1.5,0.5
			s-0.9,1.5-0.9,1.6c0,0,0,0.1-0.1,0.1C10.5,31.3,10.5,31.2,10.5,31.2z"/>
		<path id="XMLID_4496_" class="st14" d="M12.4,28.7c-0.1,0-0.1,0.1,0.2,0.3c0.2,0.1,0.4,0.2,0.5,0.2l0,0
			C13.3,29,12.8,28.7,12.4,28.7z"/>
	</g>
	<g class="st1">
		<g>
			<path class="st15" d="M26,28.8L26,28.8c-1,0.6-1.9,1-2.8,1.2l0,0c0,0,0,0-0.1,0l-0.5,0.2h-0.1c-0.1,0-0.2,0.1-0.3,0.1h-0.1
				c-0.1,0-0.2,0.1-0.2,0.1h-0.1c-0.5,0.2-0.9,0.4-1.4,0.7c-0.1,0.1-0.2,0.1-0.3,0.2L20,31.4c-0.4,0.3-2,1.5-2.9,2.5l-0.6,0.6
				L16,34.6c-1,0.2-2,0.5-3,1.1c-0.1,0.1-0.2,0.1-0.3,0.2c-0.3,0.2-0.5,0.3-0.8,0.5l0,0l-0.1,0.1c-0.1,0.1-0.2,0.1-0.3,0.2l0,0l0,0
				c-0.4,0.3-0.9,0.7-1.3,1.1c-0.1,0.1-0.2,0.2-0.3,0.3c-0.3,0.3-0.7,0.6-1,0.9H8.8c-0.3,0.3-0.7,0.5-1,0.8
				c-0.2,0.2-0.5,0.3-0.7,0.5H7l13.7,8.3h0.1c0.8-0.5,1.7-1.2,2.5-1.9c0.5-0.5,1.1-0.9,1.7-1.4c1.2-0.9,2.3-1.5,3.2-1.8
				c0.7-0.3,1.4-0.5,2.1-0.6l0.5-0.6c0.7-0.7,1.5-1.3,2.4-1.8c1.5-1,3.2-1.8,4.9-2.5c0.6-0.2,1.2-0.5,1.6-0.7l0.2-0.1L26,28.8z"/>
			<g>
				<g>
					<g>
						<path class="st16" d="M39.1,36.7c-0.5,0.3-0.7,0.4-1.2,0.6c-0.3,0.1-0.5,0.2-0.8,0.3c-0.2,0.1-0.3,0.1-0.5,0.1
							c-0.7,0.2-1.4,0.4-2,0.8c-0.2,0.1-0.4,0.2-0.6,0.3c-1.3,0.8-2.6,2-3.9,3.5l-2.5-1.5l-11-6.7c1.3-1.5,2.6-2.7,3.9-3.5
							c0.2-0.1,0.4-0.2,0.6-0.3c0.7-0.4,1.4-0.6,2-0.8c0.2,0,0.3-0.1,0.5-0.1c0.3-0.1,0.5-0.2,0.8-0.3c0.5-0.2,0.7-0.3,1.2-0.6
							L39.1,36.7z"/>
						<g>
							<path class="st16" d="M30.1,42.3c-1.3,0.1-2.6,0.5-3.9,1.3c-0.2,0.1-0.4,0.2-0.6,0.4c-0.7,0.5-1.4,1-2,1.7
								c-0.2,0.2-0.3,0.3-0.5,0.4c-0.3,0.3-0.6,0.5-0.9,0.7c-0.5,0.4-0.8,0.6-1.3,0.9L7.5,39.5C8,39.2,8.3,39,8.8,38.6
								c0.3-0.2,0.6-0.5,0.9-0.7c0.2-0.1,0.3-0.3,0.5-0.4c0.7-0.6,1.4-1.2,2-1.7c0.2-0.1,0.4-0.3,0.6-0.4c1.3-0.8,2.6-1.2,3.9-1.3
								l11,6.7L30.1,42.3z"/>
						</g>
					</g>
					<polygon class="st17" points="7.5,39.5 7.3,40.3 20.7,48.5 20.9,47.7 					"/>
					<path class="st18" d="M39.4,37.1c-0.9,0.6-1.8,1-2.7,1.2c0,0,0,0-0.1,0s-0.2,0-0.3,0.1c-0.1,0-0.2,0.1-0.3,0.1
						s-0.2,0.1-0.3,0.1c-0.6,0.2-1.2,0.5-1.8,0.9c-0.1,0.1-0.2,0.1-0.3,0.2c-1,0.7-2,1.5-3,2.5L30,42.8l-0.6,0.1c-1,0.2-2,0.5-3,1.1
						c-0.1,0.1-0.2,0.1-0.3,0.2c-0.3,0.2-0.5,0.3-0.8,0.5c-0.6,0.4-1.1,0.9-1.7,1.4c-0.1,0.1-0.2,0.2-0.3,0.3
						c-0.9,0.9-1.8,1.6-2.7,2.2l0.2-0.8c0.5-0.3,0.8-0.5,1.3-0.9c0.3-0.2,0.6-0.5,0.9-0.7c0.2-0.1,0.3-0.3,0.5-0.4
						c0.7-0.6,1.4-1.2,2-1.7c0.2-0.1,0.4-0.3,0.6-0.4c1.3-0.8,2.6-1.2,3.9-1.3c1.3-1.5,2.6-2.7,3.9-3.5c0.2-0.1,0.4-0.2,0.6-0.3
						c0.7-0.4,1.4-0.6,2-0.8c0.2,0,0.3-0.1,0.5-0.1c0.3-0.1,0.5-0.2,0.8-0.3c0.5-0.2,0.7-0.3,1.2-0.6L39.4,37.1z"/>
				</g>
			</g>
			<g>
				<path class="st19" d="M17.8,34.6C17.9,34.6,17.9,34.6,17.8,34.6c1.2-1.4,2.5-2.5,3.7-3.2c0.2-0.1,0.4-0.2,0.5-0.3
					c0.7-0.3,1.3-0.6,2-0.8c0.2,0,0.3-0.1,0.5-0.1c0.3-0.1,0.5-0.2,0.8-0.3c0.4-0.2,0.7-0.3,1.1-0.5c0,0,0,0,0-0.1s0,0-0.1,0
					c-0.4,0.2-0.6,0.3-1,0.5c-0.3,0.1-0.5,0.2-0.8,0.3c-0.2,0.1-0.3,0.1-0.5,0.1c-0.7,0.2-1.3,0.4-2,0.8c-0.2,0.1-0.4,0.2-0.6,0.3
					C20.3,32.1,19,33.2,17.8,34.6C17.8,34.5,17.8,34.6,17.8,34.6L17.8,34.6z"/>
				<path class="st19" d="M25.4,30.6c-0.2,0.1-0.3,0.1-0.5,0.1c-0.7,0.2-1.3,0.4-2,0.8c-0.2,0.1-0.4,0.2-0.6,0.3
					c-1.2,0.7-2.5,1.8-3.7,3.2v0.1l0,0l0,0c1.2-1.4,2.5-2.5,3.7-3.2c0.2-0.1,0.4-0.2,0.6-0.3c0.7-0.4,1.3-0.6,2-0.8
					C25.1,30.8,25.3,30.7,25.4,30.6c0.3,0,0.6-0.1,0.8-0.2c0.4-0.2,0.6-0.3,1-0.5c0,0,0,0,0-0.1c0,0,0,0-0.1,0
					c-0.4,0.2-0.6,0.3-1,0.5C25.9,30.4,25.7,30.5,25.4,30.6z"/>
				<path class="st19" d="M26.2,31.1c-0.2,0.1-0.3,0.1-0.5,0.1c-0.7,0.2-1.3,0.4-2,0.8c-0.2,0.1-0.4,0.2-0.6,0.3
					c-1.2,0.7-2.5,1.8-3.7,3.2v0.1l0,0l0,0c1.2-1.4,2.5-2.5,3.7-3.2c0.2-0.1,0.4-0.2,0.6-0.3c0.7-0.4,1.4-0.6,2-0.8
					C25.9,31.3,26.1,31.2,26.2,31.1c0.3,0,0.6-0.1,0.8-0.2c0.4-0.2,0.6-0.3,1-0.5c0,0,0,0,0-0.1c0,0,0,0-0.1,0
					c-0.4,0.2-0.6,0.3-1,0.5C26.8,30.9,26.5,31,26.2,31.1z"/>
				<path class="st19" d="M27.1,31.5c-0.2,0.1-0.3,0.1-0.5,0.1c-0.7,0.2-1.3,0.4-2,0.8c-0.2,0.1-0.4,0.2-0.6,0.3
					c-1.2,0.7-2.5,1.8-3.7,3.2V36l0,0l0,0c1.2-1.4,2.5-2.5,3.7-3.2c0.2-0.1,0.4-0.2,0.6-0.3c0.7-0.4,1.4-0.6,2-0.8
					C26.7,31.7,26.9,31.7,27.1,31.5c0.3,0,0.6-0.1,0.8-0.2c0.4-0.2,0.6-0.3,1-0.5c0,0,0,0,0-0.1c0,0,0,0-0.1,0
					c-0.4,0.2-0.6,0.3-1,0.5C27.6,31.4,27.3,31.5,27.1,31.5z"/>
				<path class="st19" d="M27.9,32c-0.2,0.1-0.3,0.1-0.5,0.1c-0.7,0.2-1.4,0.4-2,0.8c-0.2,0.1-0.4,0.2-0.6,0.3
					c-1.2,0.7-2.5,1.9-3.7,3.2v0.1l0,0l0,0c1.2-1.4,2.5-2.5,3.7-3.2c0.2-0.1,0.4-0.2,0.6-0.3c0.7-0.4,1.4-0.6,2-0.8
					C27.6,32.2,27.8,32.2,27.9,32c0.3,0,0.6-0.1,0.8-0.2c0.4-0.2,0.6-0.3,1-0.5c0,0,0,0,0-0.1c0,0,0,0-0.1,0c-0.4,0.2-0.6,0.3-1,0.5
					C28.4,31.8,28.1,31.9,27.9,32z"/>
				<path class="st19" d="M28.7,32.5c-0.2,0.1-0.3,0.1-0.5,0.1c-0.7,0.2-1.4,0.4-2,0.8c-0.2,0.1-0.4,0.2-0.6,0.3
					c-1.2,0.7-2.5,1.9-3.7,3.2V37l0,0l0,0c1.2-1.4,2.5-2.5,3.7-3.2c0.2-0.1,0.4-0.2,0.6-0.3c0.7-0.4,1.4-0.6,2-0.8
					C28.4,32.7,28.6,32.6,28.7,32.5c0.3,0,0.6-0.1,0.8-0.2c0.4-0.2,0.6-0.3,1-0.5c0,0,0,0,0-0.1c0,0,0,0-0.1,0
					c-0.3,0.2-0.6,0.3-0.9,0.5C29.2,32.3,29,32.4,28.7,32.5z"/>
				<path class="st19" d="M29.6,33c-0.2,0.1-0.3,0.1-0.5,0.1c-0.7,0.2-1.4,0.4-2.1,0.8c-0.2,0.1-0.4,0.2-0.6,0.3
					c-1.2,0.7-2.5,1.9-3.8,3.3v0.1l0,0l0,0c1.2-1.4,2.5-2.5,3.7-3.2c0.2-0.1,0.4-0.2,0.6-0.3c0.7-0.4,1.4-0.6,2-0.8
					C29.2,33.2,29.4,33.1,29.6,33c0.3,0,0.6-0.1,0.8-0.2c0.4-0.2,0.6-0.3,0.9-0.5c0,0,0,0,0-0.1c0,0,0,0-0.1,0
					c-0.3,0.2-0.5,0.3-0.9,0.4C30.1,32.8,29.8,32.9,29.6,33z"/>
				<path class="st19" d="M30.4,33.5c-0.2,0.1-0.3,0.1-0.5,0.1c-0.7,0.2-1.4,0.4-2.1,0.8c-0.2,0.1-0.4,0.2-0.6,0.3
					c-1.2,0.7-2.5,1.9-3.8,3.3v0.1l0,0l0,0c1.2-1.4,2.5-2.5,3.7-3.2c0.2-0.1,0.4-0.2,0.6-0.3c0.7-0.4,1.4-0.6,2-0.8
					C30.1,33.7,30.2,33.6,30.4,33.5c0.3,0,0.5-0.1,0.8-0.2c0.4-0.2,0.6-0.3,0.9-0.4c0,0,0,0,0-0.1c0,0,0,0-0.1,0
					c-0.3,0.2-0.5,0.3-0.9,0.4C30.9,33.3,30.6,33.4,30.4,33.5z"/>
				<path class="st19" d="M31.2,33.9C31,34,30.9,34,30.7,34.1c-0.7,0.2-1.4,0.4-2.1,0.8c-0.2,0.1-0.4,0.2-0.6,0.3
					c-1.2,0.7-2.5,1.9-3.8,3.3v0.1l0,0l0,0c1.2-1.4,2.5-2.5,3.8-3.3c0.2-0.1,0.4-0.2,0.6-0.3c0.7-0.4,1.4-0.6,2-0.8
					C30.9,34.1,31.1,34.1,31.2,33.9c0.3,0,0.5-0.1,0.8-0.2c0.4-0.2,0.6-0.2,0.9-0.4c0,0,0,0,0-0.1c0,0,0,0-0.1,0
					c-0.3,0.2-0.5,0.3-0.9,0.4C31.7,33.8,31.5,33.9,31.2,33.9z"/>
				<path class="st19" d="M32,34.4c-0.2,0.1-0.3,0.1-0.5,0.1c-0.7,0.2-1.4,0.4-2.1,0.8c-0.2,0.1-0.4,0.2-0.6,0.3
					c-1.2,0.7-2.6,1.9-3.8,3.3V39l0,0l0,0c1.2-1.4,2.5-2.5,3.8-3.3c0.2-0.1,0.4-0.2,0.6-0.3c0.7-0.4,1.4-0.6,2-0.8
					C31.7,34.6,31.9,34.6,32,34.4c0.3,0,0.5-0.1,0.8-0.2c0.4-0.2,0.6-0.2,0.9-0.4c0,0,0,0,0-0.1c0,0,0,0-0.1,0
					c-0.3,0.2-0.5,0.3-0.9,0.4C32.6,34.2,32.3,34.3,32,34.4z"/>
				<path class="st19" d="M32.9,34.9C32.7,35,32.6,35,32.4,35c-0.7,0.2-1.4,0.4-2.1,0.8c-0.2,0.1-0.4,0.2-0.6,0.3
					c-1.2,0.8-2.6,1.9-3.8,3.3v0.1l0,0l0,0c1.2-1.4,2.5-2.5,3.8-3.3c0.2-0.1,0.4-0.2,0.6-0.3c0.7-0.4,1.4-0.6,2.1-0.8
					C32.6,35.1,32.7,35,32.9,34.9c0.3,0,0.5-0.1,0.8-0.2c0.3-0.1,0.6-0.2,0.9-0.4c0,0,0,0,0-0.1c0,0,0,0-0.1,0
					c-0.3,0.2-0.5,0.3-0.8,0.4C33.4,34.7,33.1,34.8,32.9,34.9z"/>
				<path class="st19" d="M33.7,35.4c-0.2,0.1-0.3,0.1-0.5,0.1c-0.7,0.2-1.4,0.4-2.1,0.8c-0.2,0.1-0.4,0.2-0.6,0.3
					c-1.2,0.8-2.6,1.9-3.8,3.3V40l0,0l0,0c1.2-1.4,2.6-2.5,3.8-3.3c0.2-0.1,0.4-0.2,0.6-0.3c0.7-0.4,1.4-0.6,2.1-0.8
					C33.4,35.6,33.6,35.5,33.7,35.4c0.3,0,0.5-0.1,0.8-0.2c0.3-0.1,0.5-0.2,0.8-0.4c0,0,0,0,0-0.1c0,0,0,0-0.1,0
					c-0.3,0.2-0.5,0.3-0.8,0.4C34.2,35.2,34,35.3,33.7,35.4z"/>
				<path class="st19" d="M34.5,35.8c-0.2,0.1-0.3,0.1-0.5,0.1c-0.7,0.2-1.4,0.4-2.1,0.8c-0.2,0.1-0.4,0.2-0.6,0.3
					c-1.3,0.8-2.6,1.9-3.8,3.3v0.1l0,0l0,0c1.2-1.4,2.6-2.6,3.8-3.3c0.2-0.1,0.4-0.2,0.6-0.3c0.7-0.4,1.4-0.6,2.1-0.8
					C34.2,36,34.4,36,34.5,35.8c0.3,0,0.5-0.1,0.8-0.2c0.3-0.1,0.5-0.2,0.8-0.4c0,0,0,0,0-0.1c0,0,0,0-0.1,0
					c-0.3,0.2-0.5,0.2-0.8,0.4C35,35.7,34.8,35.8,34.5,35.8z"/>
				<path class="st19" d="M35.4,36.3c-0.2,0.1-0.3,0.1-0.5,0.1c-0.7,0.2-1.4,0.4-2.1,0.8c-0.2,0.1-0.4,0.2-0.6,0.3
					c-1.3,0.8-2.6,1.9-3.8,3.3v0.1l0,0l0,0c1.3-1.4,2.6-2.6,3.8-3.3c0.2-0.1,0.4-0.2,0.6-0.3c0.7-0.4,1.4-0.6,2.1-0.8
					C35.1,36.5,35.2,36.5,35.4,36.3c0.3,0,0.5-0.1,0.8-0.2c0.3-0.1,0.5-0.2,0.8-0.4c0,0,0,0,0-0.1c0,0,0,0-0.1,0
					c-0.2,0.1-0.4,0.2-0.8,0.4C35.9,36.2,35.6,36.2,35.4,36.3z"/>
				<path class="st19" d="M37.7,36.2c-0.3,0.1-0.5,0.2-0.8,0.4c-0.3,0.1-0.5,0.2-0.8,0.3C35.9,37,35.8,37,35.6,37
					c-0.7,0.2-1.4,0.4-2.1,0.8c-0.2,0.1-0.4,0.2-0.6,0.3c-1.3,0.8-2.6,1.9-3.9,3.3v0.1l0,0l0,0c1.3-1.4,2.6-2.6,3.8-3.3
					c0.2-0.1,0.4-0.2,0.6-0.3c0.7-0.4,1.4-0.6,2.1-0.8c0.2,0,0.3-0.1,0.5-0.1c0.2-0.1,0.5-0.2,0.8-0.3
					C37.3,36.5,37.5,36.4,37.7,36.2C37.8,36.3,37.8,36.2,37.7,36.2C37.8,36.2,37.7,36.2,37.7,36.2z"/>
				<path class="st19" d="M10.6,38.6c0.2-0.1,0.3-0.3,0.5-0.4c0.7-0.6,1.3-1.2,2-1.7c0.2-0.1,0.4-0.2,0.6-0.4
					c1.2-0.7,2.5-1.2,3.7-1.3c0,0,0,0,0-0.1c0,0,0,0-0.1,0c-1.2,0.1-2.5,0.5-3.7,1.3c-0.2,0.1-0.4,0.2-0.6,0.4c-0.7,0.5-1.4,1-2,1.7
					C10.9,38.3,10.7,38.4,10.6,38.6c-0.4,0.2-0.7,0.4-0.9,0.7c-0.4,0.3-0.7,0.5-1,0.7c0,0,0,0,0,0.1l0,0l0,0c0.3-0.2,0.6-0.4,1-0.7
					S10.3,38.9,10.6,38.6z"/>
				<path class="st19" d="M11.5,39.1c0.2-0.1,0.3-0.3,0.5-0.4c0.7-0.6,1.3-1.2,2-1.7c0.2-0.1,0.4-0.2,0.6-0.4
					c1.2-0.7,2.5-1.2,3.7-1.2c0,0,0,0,0-0.1c0,0,0-0.1-0.1,0c-1.2,0.1-2.5,0.5-3.7,1.3c-0.2,0.1-0.4,0.2-0.6,0.4
					c-0.7,0.5-1.4,1-2,1.7C11.7,38.8,11.6,38.9,11.5,39.1c-0.4,0.2-0.7,0.4-0.9,0.7c-0.4,0.3-0.7,0.5-1,0.7c0,0,0,0,0,0.1l0,0l0,0
					c0.3-0.2,0.6-0.4,1-0.7C10.9,39.6,11.2,39.4,11.5,39.1z"/>
				<path class="st19" d="M12.3,39.6c0.2-0.1,0.3-0.3,0.5-0.4c0.7-0.6,1.3-1.2,2-1.7c0.2-0.1,0.4-0.3,0.6-0.4
					c1.2-0.7,2.4-1.2,3.6-1.2c0,0,0,0,0-0.1s0,0-0.1,0c-1.2,0.1-2.5,0.5-3.7,1.3c-0.2,0.1-0.4,0.2-0.6,0.4c-0.7,0.5-1.4,1-2,1.7
					C12.5,39.2,12.4,39.4,12.3,39.6c-0.4,0.2-0.7,0.4-0.9,0.7c-0.4,0.3-0.7,0.5-1,0.7c0,0,0,0,0,0.1l0,0l0,0c0.3-0.2,0.6-0.4,1-0.7
					C11.7,40.1,12,39.9,12.3,39.6z"/>
				<path class="st19" d="M13.1,40.1c0.2-0.1,0.3-0.3,0.5-0.4c0.7-0.6,1.3-1.2,2-1.7c0.2-0.1,0.4-0.3,0.6-0.4
					c1.2-0.7,2.4-1.1,3.6-1.2c0,0,0,0,0-0.1c0,0,0,0-0.1,0c-1.2,0.1-2.4,0.5-3.6,1.3c-0.2,0.1-0.4,0.2-0.6,0.4c-0.7,0.5-1.4,1-2,1.7
					C13.3,39.7,13.2,39.9,13.1,40.1c-0.4,0.2-0.6,0.4-0.9,0.7c-0.4,0.3-0.7,0.5-1,0.7c0,0,0,0,0,0.1l0,0l0,0c0.3-0.2,0.6-0.4,1-0.7
					C12.5,40.6,12.8,40.4,13.1,40.1z"/>
				<path class="st19" d="M13.9,40.6c0.2-0.1,0.3-0.3,0.5-0.4c0.7-0.6,1.3-1.2,2-1.7c0.2-0.1,0.4-0.3,0.6-0.4
					c1.2-0.7,2.4-1.1,3.6-1.2c0,0,0,0,0-0.1c0,0,0,0-0.1,0c-1.2,0.1-2.4,0.5-3.6,1.3c-0.2,0.1-0.4,0.2-0.6,0.4c-0.7,0.5-1.4,1-2,1.7
					C14.2,40.2,14,40.4,13.9,40.6c-0.4,0.2-0.6,0.4-0.9,0.7c-0.4,0.3-0.7,0.5-1,0.7c0,0,0,0,0,0.1l0,0l0,0c0.3-0.2,0.6-0.4,1-0.7
					C13.3,41.1,13.6,40.8,13.9,40.6z"/>
				<path class="st19" d="M14.7,41.1c0.2-0.1,0.3-0.3,0.5-0.4c0.7-0.6,1.3-1.2,2-1.7c0.2-0.1,0.4-0.3,0.6-0.4
					c1.2-0.7,2.4-1.1,3.5-1.2c0,0,0,0,0-0.1c0,0,0,0-0.1,0c-1.2,0.1-2.4,0.6-3.6,1.3c-0.2,0.1-0.4,0.2-0.6,0.4c-0.7,0.5-1.4,1-2,1.7
					C15,40.7,14.8,40.8,14.7,41.1c-0.4,0.2-0.6,0.4-0.9,0.7c-0.4,0.3-0.7,0.5-1,0.7c0,0,0,0,0,0.1l0,0l0,0c0.3-0.2,0.6-0.4,1-0.7
					S14.4,41.3,14.7,41.1z"/>
				<path class="st19" d="M15.6,41.5c0.2-0.1,0.3-0.3,0.5-0.4c0.7-0.6,1.3-1.2,2-1.7c0.2-0.1,0.4-0.3,0.6-0.4
					c1.1-0.7,2.4-1.1,3.5-1.2c0,0,0,0,0-0.1s0,0-0.1,0c-1.2,0.1-2.4,0.6-3.5,1.3c-0.2,0.1-0.4,0.2-0.6,0.4c-0.7,0.5-1.4,1-2,1.7
					C15.8,41.2,15.6,41.3,15.6,41.5c-0.4,0.2-0.6,0.4-0.9,0.7c-0.4,0.3-0.7,0.5-1,0.7c0,0,0,0,0,0.1l0,0l0,0c0.3-0.2,0.6-0.4,1-0.7
					C15,42.1,15.3,41.8,15.6,41.5z"/>
				<path class="st19" d="M16.4,42c0.2-0.1,0.3-0.3,0.5-0.4c0.7-0.6,1.3-1.2,2-1.7c0.2-0.1,0.4-0.3,0.6-0.4c1.1-0.7,2.3-1.1,3.5-1.2
					c0,0,0,0,0-0.1s0,0-0.1,0c-1.2,0.1-2.4,0.6-3.5,1.3c-0.2,0.1-0.4,0.2-0.6,0.4c-0.7,0.5-1.4,1-2.1,1.7
					C16.6,41.7,16.5,41.8,16.4,42c-0.4,0.2-0.6,0.4-0.9,0.7c-0.4,0.3-0.7,0.5-1,0.7c0,0,0,0,0,0.1l0,0l0,0c0.3-0.2,0.6-0.4,1.1-0.7
					C15.8,42.5,16.1,42.3,16.4,42z"/>
				<path class="st19" d="M17.2,42.5c0.2-0.1,0.3-0.3,0.5-0.4c0.7-0.6,1.4-1.2,2-1.7c0.2-0.1,0.4-0.3,0.6-0.4
					c1.1-0.7,2.3-1.1,3.4-1.2c0,0,0,0,0-0.1s0,0-0.1,0c-1.1,0.1-2.3,0.6-3.5,1.3c-0.2,0.1-0.4,0.2-0.6,0.4c-0.7,0.5-1.4,1-2.1,1.7
					C17.4,42.2,17.3,42.3,17.2,42.5c-0.4,0.2-0.6,0.4-0.9,0.6c-0.4,0.3-0.7,0.5-1.1,0.7c0,0,0,0,0,0.1l0,0l0,0
					c0.3-0.2,0.6-0.4,1.1-0.8C16.6,43,16.9,42.8,17.2,42.5z"/>
				<path class="st19" d="M18,43c0.2-0.1,0.3-0.3,0.5-0.4c0.7-0.6,1.4-1.2,2-1.7c0.2-0.1,0.4-0.3,0.6-0.4c1.1-0.7,2.3-1.1,3.4-1.2
					c0,0,0,0,0-0.1s0,0-0.1,0c-1.1,0.1-2.3,0.6-3.5,1.3c-0.2,0.1-0.4,0.2-0.6,0.4c-0.7,0.5-1.4,1.1-2.1,1.7
					C18.3,42.6,18.1,42.8,18,43c-0.4,0.2-0.6,0.4-0.9,0.6c-0.4,0.3-0.7,0.6-1.1,0.8c0,0,0,0,0,0.1l0,0l0,0c0.3-0.2,0.7-0.4,1.1-0.8
					C17.4,43.5,17.7,43.3,18,43z"/>
				<path class="st19" d="M18.8,43.5c0.2-0.1,0.3-0.3,0.5-0.4c0.7-0.6,1.4-1.2,2-1.7c0.2-0.1,0.4-0.3,0.6-0.4
					c1.1-0.7,2.3-1.1,3.4-1.2c0,0,0,0,0-0.1c0,0,0,0-0.1,0c-1.1,0.1-2.3,0.6-3.4,1.3c-0.2,0.1-0.4,0.2-0.6,0.4
					c-0.7,0.5-1.4,1.1-2.1,1.7C19.1,43.1,18.9,43.3,18.8,43.5c-0.4,0.2-0.6,0.4-0.9,0.6c-0.4,0.3-0.7,0.6-1.1,0.8c0,0,0,0,0,0.1l0,0
					l0,0c0.3-0.2,0.7-0.4,1.1-0.8C18.3,44,18.5,43.7,18.8,43.5z"/>
				<path class="st19" d="M19.6,44c0.2-0.1,0.3-0.3,0.5-0.4c0.7-0.6,1.4-1.2,2.1-1.7c0.2-0.1,0.4-0.3,0.6-0.4
					c1.1-0.7,2.3-1.1,3.4-1.2c0,0,0,0,0-0.1c0,0,0,0-0.1,0c-1.1,0.2-2.3,0.6-3.4,1.3c-0.2,0.1-0.4,0.2-0.6,0.4
					c-0.7,0.5-1.4,1.1-2.1,1.7C19.9,43.6,19.7,43.8,19.6,44c-0.4,0.2-0.6,0.4-0.9,0.6c-0.4,0.3-0.8,0.6-1.1,0.8c0,0,0,0,0,0.1l0,0
					l0,0c0.3-0.2,0.7-0.4,1.1-0.8C19.1,44.5,19.4,44.2,19.6,44z"/>
				<path class="st19" d="M20.5,44.5c0.2-0.1,0.3-0.3,0.5-0.4c0.7-0.6,1.4-1.2,2.1-1.7c0.2-0.1,0.4-0.3,0.6-0.4
					c1.1-0.7,2.2-1.1,3.3-1.2c0,0,0,0,0-0.1c0,0,0,0-0.1,0c-1.1,0.2-2.3,0.6-3.4,1.3c-0.2,0.1-0.4,0.2-0.6,0.4
					c-0.7,0.5-1.4,1.1-2.1,1.7C20.7,44.1,20.5,44.2,20.5,44.5c-0.4,0.2-0.6,0.4-0.9,0.6c-0.4,0.3-0.8,0.6-1.1,0.8c0,0,0,0,0,0.1l0,0
					l0,0c0.3-0.2,0.7-0.4,1.1-0.8C19.9,45,20.2,44.7,20.5,44.5z"/>
				<path class="st19" d="M21.3,44.9c0.2-0.1,0.3-0.3,0.5-0.4c0.7-0.7,1.4-1.2,2.1-1.7c0.2-0.1,0.4-0.3,0.6-0.4
					c1.1-0.6,2.2-1.1,3.3-1.2c0,0,0,0,0-0.1c0,0,0,0-0.1,0c-1.1,0.2-2.3,0.6-3.3,1.3c-0.2,0.1-0.4,0.2-0.6,0.4
					c-0.7,0.5-1.4,1.1-2.1,1.7C21.5,44.6,21.4,44.7,21.3,44.9c-0.4,0.2-0.6,0.4-0.9,0.6c-0.4,0.3-0.8,0.6-1.1,0.8c0,0,0,0,0,0.1l0,0
					l0,0c0.4-0.2,0.7-0.4,1.1-0.8C20.7,45.4,21,45.2,21.3,44.9z"/>
				<path class="st19" d="M25.2,42.8c-0.2,0.1-0.4,0.2-0.6,0.4c-0.7,0.5-1.4,1.1-2.1,1.7c-0.2,0.1-0.3,0.3-0.5,0.4
					c-0.3,0.3-0.6,0.5-0.9,0.7c-0.4,0.3-0.8,0.6-1.1,0.8c0,0,0,0,0,0.1l0,0l0,0c0.4-0.2,0.7-0.4,1.1-0.8c0.3-0.2,0.6-0.5,0.9-0.7
					c0.2-0.1,0.3-0.3,0.5-0.4c0.7-0.7,1.4-1.2,2.1-1.7C24.8,43.2,25,43,25.2,42.8c1.1-0.6,2.2-1,3.3-1.2c0,0,0,0,0-0.1
					c0,0,0,0-0.1,0C27.4,41.7,26.2,42.2,25.2,42.8z"/>
			</g>
		</g>
		<g>
			<g>
				<g>
					<g>
						<g class="st20">
							<g>
								<path class="st21" d="M29.1,41.9l-7.9-4.6l-0.1-0.1L29.1,41.9L29.1,41.9z"/>
							</g>
							<g>
								<path class="st22" d="M29.2,41.6c-0.1,0.1-0.1,0.1-0.1,0.2l-7.9-4.6l0.1-0.2L29.2,41.6z"/>
							</g>
							<g>
								<path class="st23" d="M29.4,41.5h-0.1c0,0-0.1,0-0.1,0.1l-8-4.6l0.2-0.1L29.4,41.5z"/>
							</g>
						</g>
					</g>
					<g>
						<polygon class="st24" points="30.3,42.2 30.3,42.3 30.3,42.3 30.3,42.3 30.2,42.3 30.3,42.3 						"/>
					</g>
					<path d="M30.3,42.2L30,42l0,0c0,0,0,0-0.1,0l-0.1,0.1l0,0L30.3,42.2C30.3,42.3,30.3,42.3,30.3,42.2
						C30.3,42.3,30.3,42.3,30.3,42.2z"/>
					<path class="st25" d="M21.7,37h-0.1l-0.1,0.1c0,0.1-0.1,0.1-0.1,0.2v0.1L21,37.1c0,0-0.1,0-0.1-0.1s0-0.1,0.1-0.2
						c0-0.1,0.1-0.1,0.1-0.1h0.1l0,0L21.7,37z"/>
					<path class="st26" d="M29.4,41.5L29.4,41.5L29.4,41.5z"/>
				</g>
				<path class="st27" d="M29.4,41.5L29.4,41.5L29.4,41.5c-0.1,0-0.2,0-0.2,0s0,0,0,0.1l0,0c0,0-0.1,0.1-0.1,0.2l0,0v0.1l0,0
					l0.8,0.3l0,0c0,0,0-0.1,0.1-0.1c0,0,0,0,0.1,0L29.4,41.5z"/>
			</g>
			
				<linearGradient id="SVGID_1_" gradientUnits="userSpaceOnUse" x1="21.7732" y1="2543.1643" x2="21.5925" y2="2543.4897" gradientTransform="matrix(1 0 0 1 0 -2506)">
				<stop  offset="0" style="stop-color:#78ACED"/>
				<stop  offset="1" style="stop-color:#4F7BB3"/>
			</linearGradient>
			<path class="st28" d="M22.1,37.3L22.1,37.3L22.1,37.3L21.7,37l0,0l0,0h-0.1l0,0h-0.1c-0.1,0-0.1,0.1-0.1,0.1
				c0,0.1-0.1,0.1-0.1,0.2c0,0,0,0.1,0.1,0.1h0.1l0,0l0,0l0.3,0.2l0,0l0,0l0.1,0.1l0,0l0,0l0,0c0,0,0,0,0-0.1l0,0v-0.1l0,0l0.1-0.1
				l0,0C22,37.3,22,37.2,22.1,37.3L22.1,37.3L22.1,37.3L22.1,37.3L22.1,37.3z"/>
		</g>
	</g>
</g>
<g id="Layer_2_00000010284886652589066980000005833788678418114957_">
	
		<radialGradient id="SVGID_00000026849196768415537640000011063601151303377321_" cx="-867.986" cy="4823.6675" r="15.9016" gradientTransform="matrix(-1.5353 0 0 0.4819 -1307.619 -2283.0254)" gradientUnits="userSpaceOnUse">
		<stop  offset="0.4351" style="stop-color:#B4BCC1"/>
		<stop  offset="0.94" style="stop-color:#ECEEEF;stop-opacity:0"/>
	</radialGradient>
	<ellipse style="fill:url(#SVGID_00000026849196768415537640000011063601151303377321_);" cx="25" cy="41.5" rx="24.4" ry="7.7"/>
	<g>
		<polygon class="st30" points="27.747,29.083 28.809,29.7 15.312,37.493 15.312,36.262 		"/>
		<path class="st31" d="M14.694,21.351v16.633c0,0.317,0.224,0.446,0.498,0.288l13.736-7.931c0.274-0.159,0.498-0.547,0.498-0.863
			V12.845c0-0.317-0.224-0.446-0.498-0.288l-13.736,7.931C14.918,20.646,14.694,21.035,14.694,21.351z M15.852,21.443
			c0.011-0.012,0.029-0.03,0.054-0.044l5.502-3.176c0.025-0.014,0.043-0.018,0.054-0.018l1.25-0.735l5.502-3.176
			c0.025-0.014,0.043-0.018,0.054-0.018v6.595v1.151v7.367c-0.011,0.012-0.029,0.03-0.054,0.044l-5.502,3.176l-1.25,0.709
			c-0.011,0.012-0.029,0.03-0.054,0.044l-5.502,3.176c-0.025,0.014-0.043,0.018-0.054,0.018v-7.367v-1.151V21.443z"/>
		<polygon class="st32" points="28.268,29.372 28.889,29.017 28.889,15.049 28.268,15.049 		"/>
		<g>
			<polygon class="st32" points="28.809,13.965 28.809,29.52 28.269,29.386 27.747,29.083 27.747,14.562 			"/>
			<polygon class="st30" points="28.889,13.919 28.268,14.274 34.685,15.815 35.306,15.461 			"/>
			<polygon class="st31" points="28.889,29.036 28.268,29.39 34.685,30.932 35.306,30.577 			"/>
			<polygon class="st31" points="28.889,28.261 28.268,28.615 34.685,30.157 35.306,29.802 			"/>
			<polygon class="st33" points="34.685,15.815 28.268,14.274 28.268,28.615 34.685,30.157 			"/>
			<polygon class="st32" points="28.268,28.615 28.268,29.39 34.685,30.932 34.685,30.157 			"/>
			<polygon class="st32" points="28.268,14.274 28.268,15.049 34.685,16.59 34.685,15.815 			"/>
			<polygon class="st31" points="35.306,15.461 35.306,29.802 35.306,30.577 34.685,30.932 34.685,30.157 34.685,15.815 			"/>
			<polygon class="st32" points="34.158,16.373 34.685,16.5 34.685,30.157 34.158,30.03 			"/>
			<path class="st34" d="M34.671,22.91c-0.055,0.195-0.258,0.309-0.453,0.255c-0.118-0.033-0.206-0.121-0.245-0.228l-0.979-0.273
				c-0.113-0.032-0.18-0.149-0.148-0.263c0.032-0.113,0.149-0.18,0.263-0.148l0.979,0.273c0.089-0.071,0.21-0.101,0.328-0.068
				C34.612,22.513,34.726,22.715,34.671,22.91z"/>
			<path class="st30" d="M34.671,23.066c-0.055,0.195-0.258,0.309-0.453,0.255c-0.118-0.033-0.206-0.121-0.245-0.228l-0.979-0.273
				c-0.113-0.032-0.18-0.149-0.148-0.263c0.032-0.113,0.149-0.18,0.263-0.148l0.979,0.274c0.089-0.071,0.21-0.101,0.328-0.068
				C34.612,22.67,34.726,22.872,34.671,23.066z"/>
		</g>
		<g>
			<g>
				<polygon class="st35" points="28.343,32.702 16.901,39.308 16.901,36.005 28.343,29.399 				"/>
				<polygon class="st36" points="28.327,32.69 32.805,35.293 32.805,31.99 28.327,29.387 				"/>
				<g>
					<polygon class="st37" points="28.343,29.577 17.259,35.977 21.38,38.374 32.464,31.974 					"/>
					<path class="st38" d="M29.122,30.617c-0.368-0.212-0.963-0.212-1.33,0l-8.452,4.88c-0.367,0.212-0.367,0.556,0,0.768
						l1.434,0.845c0.367,0.212,0.963,0.212,1.33,0l8.451-4.88c0.368-0.212,0.368-0.556,0-0.768L29.122,30.617z"/>
				</g>
				<polygon class="st39" points="32.804,31.99 28.326,29.387 27.943,29.608 32.422,32.211 				"/>
				<polygon class="st39" points="16.903,35.993 28.344,29.387 28.727,29.608 17.285,36.214 				"/>
				<g>
					<polygon class="st36" points="21.363,38.592 32.805,31.986 32.805,35.289 21.363,41.895 					"/>
					<polygon class="st39" points="32.803,31.989 21.363,38.595 20.979,38.374 32.421,31.768 					"/>
				</g>
				<g>
					<polygon class="st35" points="21.38,38.58 16.901,35.977 16.901,39.28 21.38,41.883 					"/>
					<polygon class="st39" points="16.902,35.979 21.381,38.583 21.763,38.361 17.285,35.758 					"/>
				</g>
			</g>
			<path class="st37" d="M28.946,30.536c-0.379-0.219-0.994-0.219-1.373,0l-8.724,5.037c-0.379,0.219-0.379,0.574,0,0.793
				l1.704,1.001c0.379,0.219,0.994,0.219,1.373,0l8.724-5.037c0.379-0.219,0.379-0.574,0-0.793L28.946,30.536z"/>
			<g>
				<path class="st40" d="M30.026,32.329c0.033,0.364,0.062,0.64-0.482,0.656c-0.123,0.337-0.287,0.098-0.248-0.016
					c-0.093,0.245-0.56,0.255-0.528,0.078c-0.238,0.134-0.331,0.423-0.566,0.533c-0.249,0.117-0.437,0.118-0.658-0.071
					c-0.02,0.019,0.029,0.132-0.027,0.146c-0.328-0.039-0.497-0.217-0.458-0.519c0.016-0.005-0.272-0.048-0.263-0.045
					c-0.051,0.094-0.039,0.153-0.145,0.157c-0.247,0.01-0.205-0.162-0.272-0.332c-0.058-0.033-0.221-0.056-0.294-0.08
					c0.035-0.084,0.07-0.205,0.087-0.295c-0.09,0.057-0.095-0.026-0.181,0.138c-0.501-0.215-0.002-0.553,0.118-0.746
					c0.128-0.205-0.133-0.624,0.488-0.509l-0.126-0.001c0.548,0.94,2.464,1.259,2.842,0.213c0.078-0.216-0.217-0.798,0.328-0.908
					c0.333-0.067,0.752,0.34,0.715,0.625s-0.117,0.245-0.197,0.333c0.099,0.007,0.039,0.179,0.148,0.203
					C30.407,32.144,30.394,32.358,30.026,32.329z"/>
				<path class="st41" d="M27.903,32.17c0.054,0.204-0.05,0.388-0.358,0.325c-0.167,0.099-0.365,0.374-0.58,0.367
					c-0.193-0.006-0.128-0.236-0.221-0.339c-0.095-0.105-0.297-0.081-0.367-0.21c-0.007-0.013-0.009-0.04-0.01-0.078
					c0.001-0.136,0.047-0.389,0.116-0.376c-0.397-0.077-1.029,0.266-0.559-0.501c0.332-0.546,0.983-0.632,1.51-0.416
					C27.374,31.03,27.589,32.379,27.903,32.17z"/>
				<path class="st42" d="M30.368,32.064c-0.098,0.228-0.395,0.034-0.533,0.249c-0.123,0.195,0.063,0.595-0.327,0.535
					c-0.177-0.029-0.292-0.312-0.425-0.02c-0.096,0.209,0.141,0.425-0.2,0.5c-0.36,0.078-0.283-0.308-0.599-0.308
					c-0.275-0.001,0.004,0.228-0.194,0.346c-0.194,0.115-0.468-0.029-0.543-0.231c-0.023-0.063-0.016-0.311-0.009-0.489
					c-0.082,0.033-0.207-0.042-0.191-0.125c-0.171,0-0.199-0.376-0.044-0.443c-0.043-0.036-0.088-0.075-0.132-0.119
					c0-0.209-0.104-0.524,0.105-0.733c0.049-0.098,0.099-0.196,0.159-0.284c0.013,0.005,0.025,0.009,0.037,0.015l0.415,0.232
					c-0.161-0.178-0.135-0.786,0.127-0.935c0.232-0.131,0.361,0.134,0.431,0.113c0.163-0.046,0.2-0.22,0.248-0.373
					c0.045-0.148,0.1-0.277,0.288-0.249c-0.122,0.743,0.186-0.238,0.643-0.26c0.224-0.011,0.48,0.37,0.48,0.576
					c0.002,0.321-0.236,0.169-0.205,0.457c0.508-0.166,0.427,0.278,0.201,0.51c-0.113,0.115-0.374-0.054-0.481,0.148
					c-0.193,0.359,0.218,0.18,0.36,0.3C30.159,31.629,30.528,31.69,30.368,32.064z"/>
				<path class="st43" d="M29.257,30.779c-0.034,0.036-0.322,0.138-0.367,0.177c-0.001-0.033-0.456-0.172-0.456-0.172
					c-0.032,0.094-0.045,0.179-0.011,0.276c0.034,0.092,0.104,0.169,0.194,0.209c0.013,0.005,0.027,0.009,0.04,0.013
					c-0.111,0.099-0.167,0.176-0.082,0.2c-0.038,0.032-0.071,0.07-0.095,0.123c-0.039,0.087-0.043,0.187-0.011,0.276
					c0.002,0.005,0.005,0.01,0.007,0.015c-0.068,0.074-0.149,0.126-0.222,0.139c-0.061,0.193-0.477,0.329-0.77-0.052
					c-0.21,0.118-0.361,0.058-0.544-0.119c0.001-0.003,0.04-0.044,0.078-0.083c-0.252,0.185-0.516-0.334-0.164-0.461
					c0.002,0.002,0.049-0.125,0.042-0.122c0.002-0.002-0.087-0.053-0.096-0.032c-0.014,0.035-0.035,0.076-0.056,0.118
					c-0.041,0.076-0.089,0.157-0.124,0.215c-0.092-0.202-0.177-0.088-0.088-0.425c-0.542,0.13-0.467-0.334-0.149-0.571
					c0.073-0.057,0.161-0.1,0.258-0.12c-0.011-0.002-0.023-0.007-0.034-0.017c-0.019-0.016-0.037-0.041-0.036-0.056
					c0.078-0.003,0.169-0.029,0.266-0.027c0.003,0.007,0.046-0.124,0.041-0.121c-0.023-0.051-0.101-0.053-0.107-0.116
					c0.094-0.114,0.156-0.17,0.241-0.187c-0.047-0.022-0.092-0.036-0.14-0.082c0.148-0.318,0.497-0.218,0.784-0.064
					c-0.068-0.509,0.456-1.041,0.557-0.317c0.076-0.098,0.157-0.147,0.241-0.153c0.097-0.006,0.144-0.003,0.252,0.096
					c0.014-0.169,0.606,0.061,0.227,0.445c0.036,0.018,0.079,0.044,0.121,0.072c0.051,0.032,0.045,0.159-0.019,0.208
					c-0.058,0.044-0.116,0.085-0.156,0.097c0.156,0.02,0.269,0.14,0.405,0.185c-0.021,0.109-0.035,0.183-0.06,0.229
					C29.318,30.599,29.368,30.661,29.257,30.779z"/>
				<path class="st44" d="M28.202,29.235c-0.083,0.006-0.163,0.055-0.24,0.153c-0.101-0.724-0.625-0.192-0.557,0.317
					c-0.287-0.154-0.636-0.254-0.784,0.064c0.047,0.046,0.093,0.061,0.14,0.082c-0.014-0.007-0.057,0.019-0.07,0.026
					c-0.022,0.011-0.041,0.026-0.06,0.042c-0.036,0.03-0.089,0.057-0.097,0.108c-0.011,0.07,0.091,0.096,0.088,0.169
					c-0.003,0.109-0.125,0.07-0.194,0.07c-0.037,0-0.085,0.002-0.107,0.037c-0.038,0.061,0.021,0.201,0.04,0.217
					c0.121,0.012,0.38,0.1,0.475,0.096c0.003-0.006-0.175-0.27-0.199-0.289c0.001-0.007,0.004-0.012,0.009-0.017
					c0.19-0.03,0.197,0.189,0.319,0.225c0.135-0.304-0.357-0.569,0.146-0.479c0.057-0.123-0.206-0.185-0.073-0.313
					c0.154-0.147,0.28,0.197,0.329,0.27c0.009-0.013,0.008-0.032,0.017-0.045c0.12,0.029,0.144,0.181,0.28,0.098
					c0.183-0.11-0.036-0.301,0.024-0.438c0.073-0.164,0.153-0.062,0.186,0.058c0.023,0.084-0.022,0.282-0.037,0.369
					c0.314-0.011,0.116-0.353,0.263-0.452c0.096-0.064,0.181,0.166,0.233-0.081C28.352,29.425,28.247,29.321,28.202,29.235z"/>
				<g>
					<path class="st41" d="M27.853,31.94c0.027,0.015,0.043,0.031,0.053,0.047C27.885,31.971,27.867,31.955,27.853,31.94z"/>
					<path class="st41" d="M27.851,31.939c0.001,0,0.001,0,0.002,0.001C27.852,31.939,27.852,31.939,27.851,31.939
						C27.844,31.936,27.844,31.936,27.851,31.939z"/>
				</g>
			</g>
			<g>
				<path class="st40" d="M23.095,34.577c0.045,0.364,0.075,0.64,0.61,0.54c0.191,0.304,0.301,0.035,0.239-0.068
					c0.142,0.22,0.601,0.131,0.532-0.035c0.261,0.081,0.413,0.343,0.666,0.401c0.269,0.062,0.453,0.023,0.629-0.208
					c0.025,0.014,0.001,0.135,0.058,0.137c0.312-0.107,0.44-0.317,0.338-0.604c-0.017-0.002,0.256-0.104,0.248-0.1
					c0.07,0.081,0.071,0.141,0.175,0.123c0.243-0.042,0.165-0.201,0.195-0.382c0.049-0.045,0.203-0.101,0.27-0.14
					c-0.053-0.075-0.112-0.186-0.148-0.27c0.1,0.037,0.088-0.045,0.206,0.097c0.445-0.316-0.115-0.541-0.273-0.704
					c-0.168-0.173-0.002-0.639-0.584-0.395l0.123-0.027c-0.337,1.034-2.142,1.751-2.733,0.809c-0.122-0.195,0.043-0.825-0.513-0.818
					c-0.34,0.004-0.663,0.491-0.567,0.762c0.097,0.27,0.167,0.215,0.263,0.284c-0.095,0.028,0,0.184-0.102,0.23
					C22.683,34.48,22.741,34.686,23.095,34.577z"/>
				<path class="st41" d="M25.136,33.976c-0.01,0.211,0.131,0.369,0.419,0.242c0.185,0.061,0.436,0.288,0.645,0.236
					c0.187-0.047,0.075-0.258,0.144-0.378c0.07-0.123,0.273-0.143,0.314-0.283c0.004-0.014,0.001-0.041-0.006-0.078
					c-0.03-0.133-0.128-0.371-0.193-0.343c0.371-0.16,1.062,0.043,0.44-0.608c-0.44-0.463-1.095-0.409-1.564-0.087
					C25.413,32.75,25.487,34.114,25.136,33.976z"/>
				<path class="st42" d="M22.707,34.394c0.143,0.202,0.393-0.05,0.573,0.131c0.162,0.165,0.065,0.595,0.433,0.454
					c0.166-0.065,0.219-0.366,0.411-0.109c0.138,0.185-0.048,0.446,0.301,0.447c0.368,0,0.211-0.361,0.52-0.428
					c0.267-0.059,0.043,0.223,0.262,0.297c0.214,0.072,0.452-0.127,0.482-0.34c0.01-0.067-0.049-0.308-0.094-0.48
					c0.087,0.016,0.193-0.084,0.16-0.162c0.168-0.036,0.116-0.41-0.05-0.442c0.034-0.044,0.07-0.092,0.104-0.144
					c-0.044-0.205-0.008-0.535-0.257-0.695c-0.068-0.085-0.138-0.171-0.215-0.244c-0.012,0.007-0.023,0.014-0.033,0.022
					l-0.356,0.315c0.119-0.208-0.035-0.796-0.322-0.887c-0.255-0.08-0.325,0.206-0.398,0.201c-0.169-0.011-0.241-0.174-0.321-0.313
					c-0.076-0.135-0.156-0.249-0.334-0.182c0.276,0.701-0.233-0.193-0.684-0.118c-0.222,0.036-0.392,0.462-0.348,0.664
					c0.066,0.314,0.267,0.115,0.297,0.403c-0.532-0.055-0.359,0.362-0.089,0.541c0.135,0.089,0.354-0.132,0.501,0.043
					c0.264,0.31-0.176,0.222-0.289,0.369C22.817,33.925,22.469,34.062,22.707,34.394z"/>
				<path class="st43" d="M23.517,32.907c0.04,0.029,0.344,0.067,0.396,0.096c-0.005-0.032,0.41-0.264,0.41-0.264
					c0.051,0.085,0.082,0.165,0.069,0.267c-0.013,0.097-0.066,0.187-0.145,0.245c-0.012,0.008-0.024,0.014-0.036,0.021
					c0.13,0.073,0.2,0.136,0.123,0.178c0.044,0.023,0.085,0.054,0.119,0.1c0.057,0.077,0.082,0.174,0.069,0.268
					c-0.001,0.005-0.003,0.011-0.004,0.016c0.082,0.058,0.171,0.091,0.246,0.089c0.101,0.175,0.536,0.22,0.742-0.214
					c0.231,0.071,0.365-0.02,0.507-0.232c-0.002-0.003-0.049-0.035-0.094-0.065c0.285,0.128,0.433-0.435,0.062-0.485
					c0,0.001-0.073-0.113-0.066-0.111c-0.003-0.002,0.074-0.071,0.087-0.052c0.021,0.031,0.05,0.066,0.08,0.103
					c0.056,0.065,0.121,0.134,0.167,0.183c0.047-0.217,0.154-0.124-0.004-0.434c0.557,0.012,0.386-0.425,0.025-0.59
					c-0.083-0.039-0.178-0.063-0.277-0.062c0.009-0.004,0.02-0.012,0.029-0.024c0.015-0.02,0.027-0.049,0.023-0.063
					c-0.076,0.012-0.171,0.007-0.265,0.029c-0.001,0.008-0.07-0.112-0.065-0.11c0.011-0.055,0.087-0.073,0.08-0.136
					c-0.116-0.091-0.188-0.134-0.275-0.132c0.042-0.03,0.083-0.054,0.12-0.109c-0.212-0.28-0.532-0.108-0.78,0.103
					c-0.041-0.512-0.665-0.921-0.611-0.192c-0.095-0.079-0.184-0.11-0.268-0.098c-0.096,0.014-0.141,0.028-0.226,0.147
					c-0.049-0.162-0.579,0.188-0.128,0.483c-0.032,0.025-0.067,0.06-0.103,0.096c-0.044,0.042-0.011,0.164,0.062,0.199
					c0.066,0.031,0.131,0.059,0.173,0.062c-0.148,0.053-0.233,0.194-0.357,0.267c0.043,0.102,0.072,0.172,0.107,0.211
					C23.421,32.74,23.385,32.811,23.517,32.907z"/>
				<path class="st44" d="M24.223,31.17c0.083-0.012,0.171,0.019,0.267,0.099c-0.055-0.729,0.57-0.32,0.611,0.192
					c0.248-0.211,0.568-0.383,0.78-0.103c-0.037,0.054-0.079,0.078-0.12,0.109c0.012-0.01,0.06,0.006,0.074,0.01
					c0.024,0.007,0.046,0.018,0.068,0.029c0.041,0.022,0.099,0.037,0.117,0.085c0.024,0.066-0.069,0.113-0.051,0.184
					c0.026,0.105,0.138,0.042,0.205,0.027c0.037-0.007,0.084-0.015,0.113,0.014c0.05,0.051,0.022,0.2,0.007,0.22
					c-0.115,0.037-0.35,0.177-0.444,0.194c-0.003-0.004,0.114-0.3,0.134-0.324c-0.003-0.007-0.007-0.011-0.013-0.015
					c-0.191,0.01-0.153,0.226-0.264,0.287c-0.197-0.268,0.228-0.631-0.244-0.437c-0.082-0.109,0.162-0.225,0.005-0.322
					c-0.181-0.112-0.232,0.252-0.264,0.333c-0.013-0.01-0.015-0.029-0.027-0.04c-0.111,0.054-0.102,0.207-0.253,0.155
					c-0.202-0.069-0.028-0.302-0.116-0.423c-0.105-0.145-0.163-0.028-0.169,0.096c-0.005,0.087,0.081,0.271,0.114,0.353
					c-0.31,0.056-0.188-0.321-0.353-0.386c-0.106-0.042-0.141,0.201-0.244-0.029C24.117,31.388,24.197,31.265,24.223,31.17z"/>
				<g>
					<path class="st41" d="M25.137,33.74c-0.023,0.02-0.035,0.039-0.042,0.057C25.112,33.778,25.126,33.758,25.137,33.74z"/>
					<path class="st41" d="M25.138,33.739C25.138,33.739,25.137,33.74,25.138,33.739C25.137,33.74,25.137,33.739,25.138,33.739
						C25.145,33.735,25.145,33.735,25.138,33.739z"/>
				</g>
			</g>
			<g>
				<path class="st40" d="M20.938,37.087c0.25,0.268,0.436,0.474,0.811,0.079c0.333,0.133,0.265-0.149,0.154-0.196
					c0.245,0.095,0.564-0.247,0.411-0.341c0.258-0.088,0.535,0.035,0.774-0.066c0.254-0.108,0.38-0.247,0.387-0.538
					c0.028-0.003,0.08,0.109,0.127,0.077c0.19-0.27,0.17-0.514-0.081-0.687c-0.015,0.009,0.146-0.234,0.142-0.226
					c0.104,0.024,0.14,0.073,0.214-0.003c0.172-0.177,0.016-0.26-0.066-0.424c0.014-0.065,0.106-0.201,0.137-0.272
					c-0.087-0.03-0.199-0.085-0.278-0.132c0.102-0.028,0.044-0.088,0.223-0.042c0.174-0.517-0.411-0.37-0.635-0.41
					c-0.238-0.042-0.377-0.516-0.705,0.023l0.083-0.094c0.334,1.035-0.707,2.675-1.738,2.259c-0.213-0.087-0.449-0.694-0.895-0.362
					c-0.273,0.203-0.249,0.787-0.012,0.95c0.236,0.163,0.26,0.077,0.379,0.076c-0.061,0.078,0.107,0.149,0.052,0.246
					C20.545,37.249,20.713,37.382,20.938,37.087z"/>
				<path class="st41" d="M22.237,35.401c0.116,0.176,0.322,0.221,0.481-0.05c0.185-0.058,0.522-0.022,0.66-0.187
					c0.124-0.147-0.091-0.252-0.105-0.39c-0.016-0.141,0.137-0.276,0.088-0.414c-0.005-0.013-0.023-0.033-0.051-0.059
					c-0.101-0.09-0.321-0.225-0.357-0.164c0.208-0.348,0.885-0.589,0-0.751c-0.629-0.117-1.127,0.311-1.318,0.847
					C21.74,34.247,22.601,35.307,22.237,35.401z"/>
				<path class="st42" d="M20.512,37.171c0.235,0.079,0.289-0.272,0.541-0.231c0.228,0.038,0.402,0.444,0.617,0.113
					c0.097-0.151-0.037-0.426,0.269-0.33c0.22,0.068,0.223,0.389,0.506,0.185c0.298-0.216-0.041-0.417,0.17-0.652
					c0.182-0.205,0.167,0.155,0.387,0.086c0.216-0.068,0.291-0.369,0.191-0.559c-0.031-0.059-0.221-0.22-0.358-0.333
					c0.081-0.039,0.108-0.182,0.035-0.226c0.115-0.128-0.147-0.4-0.3-0.329c0.002-0.056,0.003-0.116,0-0.178
					c-0.156-0.14-0.32-0.428-0.616-0.412c-0.106-0.029-0.213-0.057-0.318-0.071c-0.004,0.013-0.009,0.024-0.013,0.037l-0.104,0.464
					c-0.025-0.239-0.495-0.625-0.781-0.53c-0.253,0.085-0.142,0.358-0.204,0.396c-0.142,0.09-0.297,0.001-0.443-0.065
					c-0.141-0.065-0.274-0.109-0.378,0.049c0.635,0.406-0.302-0.019-0.623,0.306c-0.158,0.16-0.046,0.604,0.108,0.742
					c0.238,0.215,0.283-0.063,0.477,0.152c-0.463,0.267-0.079,0.504,0.245,0.49c0.162-0.007,0.21-0.314,0.431-0.259
					c0.396,0.097-0.012,0.283-0.017,0.469C20.328,36.721,20.126,37.036,20.512,37.171z"/>
				<path class="st43" d="M20.298,35.483c0.05-0.001,0.318-0.148,0.377-0.155c-0.023-0.024,0.177-0.455,0.177-0.455
					c0.091,0.039,0.164,0.086,0.213,0.176c0.046,0.087,0.056,0.19,0.026,0.284c-0.005,0.014-0.011,0.026-0.017,0.039
					c0.148-0.017,0.242-0.007,0.204,0.072c0.05-0.007,0.1-0.006,0.155,0.011c0.091,0.028,0.168,0.093,0.213,0.176
					c0.002,0.005,0.004,0.01,0.006,0.015c0.101-0.001,0.193-0.026,0.252-0.072c0.184,0.082,0.563-0.137,0.475-0.609
					c0.228-0.078,0.284-0.23,0.274-0.485c-0.003-0.001-0.06,0.001-0.114,0.003c0.306-0.063,0.096-0.606-0.234-0.429
					c0,0.002-0.126-0.048-0.119-0.051c-0.003,0,0.018-0.1,0.04-0.093c0.035,0.013,0.079,0.025,0.125,0.037
					c0.084,0.02,0.177,0.039,0.243,0.051c-0.089-0.203,0.052-0.191-0.258-0.349c0.458-0.317,0.063-0.571-0.326-0.492
					c-0.091,0.017-0.182,0.053-0.261,0.112c0.006-0.008,0.01-0.021,0.01-0.036c0.001-0.024-0.007-0.054-0.018-0.064
					c-0.055,0.056-0.135,0.107-0.198,0.18c0.003,0.007-0.123-0.05-0.118-0.051c-0.023-0.051,0.028-0.11-0.015-0.157
					c-0.147-0.007-0.231,0.001-0.3,0.054c0.016-0.049,0.035-0.093,0.033-0.159c-0.336-0.102-0.495,0.224-0.571,0.541
					c-0.334-0.39-1.08-0.355-0.608,0.203c-0.124-0.009-0.215,0.018-0.275,0.077c-0.07,0.069-0.098,0.106-0.097,0.252
					c-0.135-0.103-0.359,0.492,0.18,0.466c-0.011,0.039-0.019,0.088-0.027,0.138c-0.01,0.06,0.089,0.14,0.168,0.125
					c0.071-0.014,0.14-0.029,0.176-0.051c-0.089,0.131-0.074,0.295-0.132,0.426c0.095,0.057,0.159,0.096,0.21,0.108
					C20.121,35.407,20.134,35.486,20.298,35.483z"/>
				<path class="st44" d="M19.848,33.668c0.061-0.058,0.151-0.085,0.275-0.077c-0.472-0.558,0.274-0.594,0.608-0.203
					c0.077-0.317,0.235-0.643,0.571-0.541c0.002,0.066-0.017,0.11-0.033,0.159c0.004-0.015,0.052-0.03,0.066-0.035
					c0.024-0.009,0.048-0.013,0.072-0.017c0.046-0.007,0.102-0.028,0.145,0c0.059,0.038,0.011,0.131,0.067,0.178
					c0.082,0.07,0.135-0.047,0.181-0.098c0.025-0.027,0.059-0.062,0.099-0.055c0.071,0.012,0.135,0.149,0.135,0.174
					c-0.072,0.098-0.18,0.349-0.246,0.418c-0.006-0.002-0.084-0.31-0.082-0.341c-0.006-0.004-0.012-0.005-0.019-0.005
					c-0.148,0.12,0.01,0.272-0.045,0.387c-0.316-0.102-0.185-0.645-0.454-0.211c-0.129-0.04,0-0.277-0.184-0.264
					c-0.212,0.016-0.04,0.34-0.018,0.425c-0.016-0.001-0.029-0.015-0.045-0.017c-0.059,0.109,0.038,0.227-0.114,0.274
					c-0.204,0.063-0.2-0.228-0.342-0.274c-0.171-0.056-0.149,0.072-0.081,0.177c0.048,0.072,0.225,0.171,0.3,0.218
					c-0.218,0.226-0.34-0.15-0.512-0.106c-0.111,0.029,0.003,0.246-0.215,0.12C19.892,33.904,19.884,33.757,19.848,33.668z"/>
				<g>
					<path class="st41" d="M22.097,35.21c-0.006,0.03-0.005,0.053,0,0.071C22.099,35.255,22.1,35.231,22.097,35.21z"/>
					<path class="st41" d="M22.098,35.208c0,0.001,0,0.001,0,0.002C22.098,35.209,22.098,35.208,22.098,35.208
						C22.101,35.201,22.101,35.201,22.098,35.208z"/>
				</g>
			</g>
		</g>
		<g>
			<path class="st34" d="M19.683,33.141c-0.157,0.128-0.388,0.106-0.517-0.051c-0.078-0.095-0.099-0.218-0.07-0.328l-0.645-0.786
				c-0.074-0.092-0.061-0.226,0.03-0.301c0.092-0.074,0.226-0.061,0.301,0.03l0.645,0.786c0.114-0.007,0.229,0.038,0.307,0.133
				C19.862,32.781,19.84,33.012,19.683,33.141z"/>
			<path class="st30" d="M19.594,33.269c-0.157,0.128-0.388,0.106-0.517-0.051c-0.078-0.095-0.099-0.218-0.07-0.328l-0.645-0.786
				c-0.075-0.092-0.062-0.226,0.029-0.301c0.092-0.074,0.226-0.061,0.301,0.03l0.645,0.786c0.113-0.007,0.229,0.038,0.307,0.133
				C19.772,32.909,19.75,33.141,19.594,33.269z"/>
			<polygon class="st32" points="15.852,35.766 16.473,35.411 16.473,21.442 15.852,21.442 			"/>
			<polygon class="st33" points="19.329,26.669 15.852,21.442 15.852,35.766 19.329,40.992 			"/>
			<polygon class="st30" points="19.329,26.669 15.827,21.408 16.451,21.047 19.95,26.314 			"/>
			<polygon class="st31" points="19.329,40.992 15.852,35.766 16.473,35.411 19.95,40.637 			"/>
			<polygon class="st31" points="19.329,41.785 15.852,36.559 16.473,36.204 19.95,41.431 			"/>
			<polygon class="st31" points="19.95,26.314 19.95,40.637 19.95,41.431 19.329,41.785 19.329,40.992 19.329,26.669 			"/>
			<polygon class="st32" points="19.329,41.785 15.852,36.559 15.852,35.766 19.329,40.992 			"/>
			<polygon class="st32" points="19.329,27.462 15.852,22.235 15.852,21.442 19.329,26.669 			"/>
			<polygon class="st32" points="18.801,26.669 19.329,27.462 19.329,40.992 18.801,40.992 			"/>
		</g>
	</g>
</g>
</svg>
