<?xml version="1.0" encoding="utf-8"?>
<!-- Generator: Adobe Illustrator 25.4.1, SVG Export Plug-In . SVG Version: 6.00 Build 0)  -->
<svg version="1.1" xmlns="http://www.w3.org/2000/svg" xmlns:xlink="http://www.w3.org/1999/xlink" x="0px" y="0px"
	 viewBox="0 0 50 50" style="enable-background:new 0 0 50 50;" xml:space="preserve">
<style type="text/css">
	.st0{display:none;}
	.st1{display:inline;}
	.st2{fill:#344593;}
	.st3{fill:#3E54A3;}
	.st4{fill:#2E4490;}
	.st5{fill:#122571;}
	.st6{opacity:0.5;fill:#031F60;enable-background:new    ;}
	.st7{fill:#BBDFFF;}
	.st8{fill:#FDB724;}
	.st9{fill:#E7478D;}
	.st10{fill:#BF2878;}
	.st11{fill:#27DEBF;}
	.st12{fill:#1BBC9D;}
	.st13{fill:#A33D64;}
	.st14{fill:#82294D;}
	.st15{fill:#0A4A80;}
	.st16{fill:#F1FCFF;}
	.st17{fill:#D6E6FF;}
	.st18{fill:#CEF3FF;}
	.st19{fill:#606060;}
	.st20{enable-background:new    ;}
	.st21{fill:#F19729;}
	.st22{fill:#FCB040;}
	.st23{fill:#FFCB49;}
	.st24{fill:#2E5677;}
	.st25{fill:#FF51CE;}
	.st26{fill:#EDE6A0;}
	.st27{fill:#FFF7B0;}
	.st28{fill:url(#SVGID_1_);}
	.st29{fill:url(#SVGID_00000098181186952278561080000000230063664153537423_);}
	.st30{fill:#E6E7E8;}
	.st31{fill:#D0D2D3;}
	.st32{fill:#9FA2A4;}
	.st33{opacity:0.5;fill:#228BB8;}
	.st34{fill:#BBBCBE;}
	.st35{fill:#7A6154;}
	.st36{fill:#FFCC99;}
	.st37{fill:#26130D;}
	.st38{fill:#1C0C08;}
	.st39{fill:#9C8A78;}
	.st40{fill:#1F872B;}
	.st41{fill:#2EA246;}
	.st42{fill:#3B9743;}
	.st43{fill:#3BAE4B;}
	.st44{fill:#67C366;}
</style>
<g id="Example" class="st0">
	<g class="st1">
		<g id="XMLID_4903_">
			<path id="XMLID_4905_" class="st2" d="M45.3,33.2v-4.6l0,0c0-0.9-0.6-1.8-1.7-2.4c-2.3-1.3-6-1.3-8.4,0c-1.2,0.7-1.7,1.6-1.7,2.4
				l0,0v4.5c0,0.9,0.6,1.8,1.7,2.4c2.3,1.3,6,1.3,8.4,0C44.8,34.9,45.3,34.1,45.3,33.2L45.3,33.2L45.3,33.2L45.3,33.2z"/>
			<path id="XMLID_4904_" class="st2" d="M45.3,33.2v-4.6l0,0c0-0.9-0.6-1.8-1.7-2.4c-2.3-1.3-6-1.3-8.4,0c-1.2,0.7-1.7,1.6-1.7,2.4
				l0,0v4.5c0,0.9,0.6,1.8,1.7,2.4c2.3,1.3,6,1.3,8.4,0C44.8,34.9,45.3,34.1,45.3,33.2L45.3,33.2L45.3,33.2L45.3,33.2z"/>
		</g>
		<polygon id="XMLID_4900_" class="st3" points="39.4,23 29.7,28.6 39.4,34.2 49.2,28.6 		"/>
		<path id="XMLID_4899_" class="st4" d="M44.3,31.4l-4.8-2.7c-0.1,0-0.2,0-0.2,0.1s0,0.2,0.1,0.2l4.6,2.6L44.3,31.4z"/>
		<polygon id="XMLID_4896_" class="st5" points="29.7,28.6 29.7,29 39.4,34.6 39.4,34.2 		"/>
		<polygon id="XMLID_4883_" class="st4" points="49.2,28.6 49.2,29 39.4,34.6 39.4,34.2 		"/>
		<polygon id="XMLID_4876_" class="st6" points="33.5,31.2 39.4,35.2 45.3,31.2 39.4,34.6 		"/>
		<g id="XMLID_4823_">
			<path id="XMLID_4835_" class="st7" d="M44.7,36.2c-0.1,0-0.2-0.1-0.2-0.2v-4c0-0.2-0.1-0.4-0.3-0.4l-4.9-2.8
				c-0.1,0-0.1-0.2-0.1-0.2c0-0.1,0.2-0.1,0.2-0.1l4.9,2.8c0.3,0.2,0.4,0.4,0.4,0.7v4C44.8,36.1,44.7,36.2,44.7,36.2z"/>
		</g>
		<path class="st8" d="M45.3,39.3L45,36.6c0.1-0.1,0.1-0.2,0-0.2l0,0l0,0l0,0v-0.1l0,0l0,0l0,0c0-0.2-0.2-0.4-0.4-0.4c0,0,0,0-0.1,0
			l0,0l0,0c0,0,0,0-0.1,0c0,0,0,0-0.1,0c0,0,0,0-0.1,0c0,0,0,0,0,0.1l0,0v0.1c0,0.1,0,0.2,0.1,0.3l0,0c-0.1,0.1,0,0.2,0,0.2L44,39.3
			c0,0.1,0.1,0.2,0.3,0.3l0,0h0.1l0,0c0.1,0,0.2,0.1,0.3,0.1l0,0l0,0l0,0l0,0l0,0c0.1,0,0.2,0,0.3-0.1l0,0h0.1l0,0
			C45.3,39.5,45.3,39.4,45.3,39.3z"/>
	</g>
	<g id="XMLID_3738_" class="st1">
		<path id="XMLID_4404_" class="st9" d="M12.4,36.1c1.1-0.8,1.8-2.7,1.7-4c-0.1-1.4-1.2-2-1.7-2.3l0,0c-1.1-0.6-2.8-0.6-3.9,0l0,0
			C8,30.1,7,30.7,6.8,32.1c-0.1,1.3,0.6,3.2,1.7,4l0,0c0.1,0,0.1,0.1,0.2,0.1c1,0.6,2.6,0.6,3.6,0l0,0
			C12.3,36.2,12.4,36.1,12.4,36.1L12.4,36.1z"/>
		<path id="XMLID_4395_" class="st10" d="M9.9,30.8c-0.3,0.2-0.3,0.4,0,0.6s0.8,0.2,1.1,0s0.3-0.4,0-0.6
			C10.7,30.6,10.2,30.6,9.9,30.8z"/>
		<g id="XMLID_4426_">
			<path id="XMLID_2198_" class="st11" d="M10.5,31.2c0,0-0.9,0-1.4-0.7s0-1.9,0-1.9s1.1,0.1,1.7,1C11.2,30.4,10.5,31.2,10.5,31.2z"
				/>
			<path id="XMLID_4431_" class="st12" d="M9,30.5c0.5,0.7,1.4,0.7,1.4,0.7C10.3,29.6,9,28.6,9,28.6S8.5,29.8,9,30.5z"/>
		</g>
		<path id="XMLID_4403_" class="st13" d="M10.5,31.2c0,0,0-1.3,0.7-1.9s1.2-0.6,1.2-0.6c0.4,0,0.9,0.4,0.7,0.4c0,0-0.9,0-1.5,0.5
			s-0.9,1.5-0.9,1.6c0,0,0,0.1-0.1,0.1C10.5,31.3,10.5,31.2,10.5,31.2z"/>
		<path id="XMLID_4496_" class="st14" d="M12.4,28.7c-0.1,0-0.1,0.1,0.2,0.3c0.2,0.1,0.4,0.2,0.5,0.2l0,0
			C13.3,29,12.8,28.7,12.4,28.7z"/>
	</g>
	<g class="st1">
		<g>
			<path class="st15" d="M26,28.8L26,28.8c-1,0.6-1.9,1-2.8,1.2l0,0c0,0,0,0-0.1,0l-0.5,0.2h-0.1c-0.1,0-0.2,0.1-0.3,0.1h-0.1
				c-0.1,0-0.2,0.1-0.2,0.1h-0.1c-0.5,0.2-0.9,0.4-1.4,0.7c-0.1,0.1-0.2,0.1-0.3,0.2L20,31.4c-0.4,0.3-2,1.5-2.9,2.5l-0.6,0.6
				L16,34.6c-1,0.2-2,0.5-3,1.1c-0.1,0.1-0.2,0.1-0.3,0.2c-0.3,0.2-0.5,0.3-0.8,0.5l0,0l-0.1,0.1c-0.1,0.1-0.2,0.1-0.3,0.2l0,0l0,0
				c-0.4,0.3-0.9,0.7-1.3,1.1c-0.1,0.1-0.2,0.2-0.3,0.3c-0.3,0.3-0.7,0.6-1,0.9H8.8c-0.3,0.3-0.7,0.5-1,0.8
				c-0.2,0.2-0.5,0.3-0.7,0.5H7l13.7,8.3h0.1c0.8-0.5,1.7-1.2,2.5-1.9c0.5-0.5,1.1-0.9,1.7-1.4c1.2-0.9,2.3-1.5,3.2-1.8
				c0.7-0.3,1.4-0.5,2.1-0.6l0.5-0.6c0.7-0.7,1.5-1.3,2.4-1.8c1.5-1,3.2-1.8,4.9-2.5c0.6-0.2,1.2-0.5,1.6-0.7l0.2-0.1L26,28.8z"/>
			<g>
				<g>
					<g>
						<path class="st16" d="M39.1,36.7c-0.5,0.3-0.7,0.4-1.2,0.6c-0.3,0.1-0.5,0.2-0.8,0.3c-0.2,0.1-0.3,0.1-0.5,0.1
							c-0.7,0.2-1.4,0.4-2,0.8c-0.2,0.1-0.4,0.2-0.6,0.3c-1.3,0.8-2.6,2-3.9,3.5l-2.5-1.5l-11-6.7c1.3-1.5,2.6-2.7,3.9-3.5
							c0.2-0.1,0.4-0.2,0.6-0.3c0.7-0.4,1.4-0.6,2-0.8c0.2,0,0.3-0.1,0.5-0.1c0.3-0.1,0.5-0.2,0.8-0.3c0.5-0.2,0.7-0.3,1.2-0.6
							L39.1,36.7z"/>
						<g>
							<path class="st16" d="M30.1,42.3c-1.3,0.1-2.6,0.5-3.9,1.3c-0.2,0.1-0.4,0.2-0.6,0.4c-0.7,0.5-1.4,1-2,1.7
								c-0.2,0.2-0.3,0.3-0.5,0.4c-0.3,0.3-0.6,0.5-0.9,0.7c-0.5,0.4-0.8,0.6-1.3,0.9L7.5,39.5C8,39.2,8.3,39,8.8,38.6
								c0.3-0.2,0.6-0.5,0.9-0.7c0.2-0.1,0.3-0.3,0.5-0.4c0.7-0.6,1.4-1.2,2-1.7c0.2-0.1,0.4-0.3,0.6-0.4c1.3-0.8,2.6-1.2,3.9-1.3
								l11,6.7L30.1,42.3z"/>
						</g>
					</g>
					<polygon class="st17" points="7.5,39.5 7.3,40.3 20.7,48.5 20.9,47.7 					"/>
					<path class="st18" d="M39.4,37.1c-0.9,0.6-1.8,1-2.7,1.2c0,0,0,0-0.1,0s-0.2,0-0.3,0.1c-0.1,0-0.2,0.1-0.3,0.1
						s-0.2,0.1-0.3,0.1c-0.6,0.2-1.2,0.5-1.8,0.9c-0.1,0.1-0.2,0.1-0.3,0.2c-1,0.7-2,1.5-3,2.5L30,42.8l-0.6,0.1c-1,0.2-2,0.5-3,1.1
						c-0.1,0.1-0.2,0.1-0.3,0.2c-0.3,0.2-0.5,0.3-0.8,0.5c-0.6,0.4-1.1,0.9-1.7,1.4c-0.1,0.1-0.2,0.2-0.3,0.3
						c-0.9,0.9-1.8,1.6-2.7,2.2l0.2-0.8c0.5-0.3,0.8-0.5,1.3-0.9c0.3-0.2,0.6-0.5,0.9-0.7c0.2-0.1,0.3-0.3,0.5-0.4
						c0.7-0.6,1.4-1.2,2-1.7c0.2-0.1,0.4-0.3,0.6-0.4c1.3-0.8,2.6-1.2,3.9-1.3c1.3-1.5,2.6-2.7,3.9-3.5c0.2-0.1,0.4-0.2,0.6-0.3
						c0.7-0.4,1.4-0.6,2-0.8c0.2,0,0.3-0.1,0.5-0.1c0.3-0.1,0.5-0.2,0.8-0.3c0.5-0.2,0.7-0.3,1.2-0.6L39.4,37.1z"/>
				</g>
			</g>
			<g>
				<path class="st19" d="M17.8,34.6C17.9,34.6,17.9,34.6,17.8,34.6c1.2-1.4,2.5-2.5,3.7-3.2c0.2-0.1,0.4-0.2,0.5-0.3
					c0.7-0.3,1.3-0.6,2-0.8c0.2,0,0.3-0.1,0.5-0.1c0.3-0.1,0.5-0.2,0.8-0.3c0.4-0.2,0.7-0.3,1.1-0.5c0,0,0,0,0-0.1s0,0-0.1,0
					c-0.4,0.2-0.6,0.3-1,0.5c-0.3,0.1-0.5,0.2-0.8,0.3c-0.2,0.1-0.3,0.1-0.5,0.1c-0.7,0.2-1.3,0.4-2,0.8c-0.2,0.1-0.4,0.2-0.6,0.3
					C20.3,32.1,19,33.2,17.8,34.6C17.8,34.5,17.8,34.6,17.8,34.6L17.8,34.6z"/>
				<path class="st19" d="M25.4,30.6c-0.2,0.1-0.3,0.1-0.5,0.1c-0.7,0.2-1.3,0.4-2,0.8c-0.2,0.1-0.4,0.2-0.6,0.3
					c-1.2,0.7-2.5,1.8-3.7,3.2v0.1l0,0l0,0c1.2-1.4,2.5-2.5,3.7-3.2c0.2-0.1,0.4-0.2,0.6-0.3c0.7-0.4,1.3-0.6,2-0.8
					C25.1,30.8,25.3,30.7,25.4,30.6c0.3,0,0.6-0.1,0.8-0.2c0.4-0.2,0.6-0.3,1-0.5c0,0,0,0,0-0.1c0,0,0,0-0.1,0
					c-0.4,0.2-0.6,0.3-1,0.5C25.9,30.4,25.7,30.5,25.4,30.6z"/>
				<path class="st19" d="M26.2,31.1c-0.2,0.1-0.3,0.1-0.5,0.1c-0.7,0.2-1.3,0.4-2,0.8c-0.2,0.1-0.4,0.2-0.6,0.3
					c-1.2,0.7-2.5,1.8-3.7,3.2v0.1l0,0l0,0c1.2-1.4,2.5-2.5,3.7-3.2c0.2-0.1,0.4-0.2,0.6-0.3c0.7-0.4,1.4-0.6,2-0.8
					C25.9,31.3,26.1,31.2,26.2,31.1c0.3,0,0.6-0.1,0.8-0.2c0.4-0.2,0.6-0.3,1-0.5c0,0,0,0,0-0.1c0,0,0,0-0.1,0
					c-0.4,0.2-0.6,0.3-1,0.5C26.8,30.9,26.5,31,26.2,31.1z"/>
				<path class="st19" d="M27.1,31.5c-0.2,0.1-0.3,0.1-0.5,0.1c-0.7,0.2-1.3,0.4-2,0.8c-0.2,0.1-0.4,0.2-0.6,0.3
					c-1.2,0.7-2.5,1.8-3.7,3.2V36l0,0l0,0c1.2-1.4,2.5-2.5,3.7-3.2c0.2-0.1,0.4-0.2,0.6-0.3c0.7-0.4,1.4-0.6,2-0.8
					C26.7,31.7,26.9,31.7,27.1,31.5c0.3,0,0.6-0.1,0.8-0.2c0.4-0.2,0.6-0.3,1-0.5c0,0,0,0,0-0.1c0,0,0,0-0.1,0
					c-0.4,0.2-0.6,0.3-1,0.5C27.6,31.4,27.3,31.5,27.1,31.5z"/>
				<path class="st19" d="M27.9,32c-0.2,0.1-0.3,0.1-0.5,0.1c-0.7,0.2-1.4,0.4-2,0.8c-0.2,0.1-0.4,0.2-0.6,0.3
					c-1.2,0.7-2.5,1.9-3.7,3.2v0.1l0,0l0,0c1.2-1.4,2.5-2.5,3.7-3.2c0.2-0.1,0.4-0.2,0.6-0.3c0.7-0.4,1.4-0.6,2-0.8
					C27.6,32.2,27.8,32.2,27.9,32c0.3,0,0.6-0.1,0.8-0.2c0.4-0.2,0.6-0.3,1-0.5c0,0,0,0,0-0.1c0,0,0,0-0.1,0c-0.4,0.2-0.6,0.3-1,0.5
					C28.4,31.8,28.1,31.9,27.9,32z"/>
				<path class="st19" d="M28.7,32.5c-0.2,0.1-0.3,0.1-0.5,0.1c-0.7,0.2-1.4,0.4-2,0.8c-0.2,0.1-0.4,0.2-0.6,0.3
					c-1.2,0.7-2.5,1.9-3.7,3.2V37l0,0l0,0c1.2-1.4,2.5-2.5,3.7-3.2c0.2-0.1,0.4-0.2,0.6-0.3c0.7-0.4,1.4-0.6,2-0.8
					C28.4,32.7,28.6,32.6,28.7,32.5c0.3,0,0.6-0.1,0.8-0.2c0.4-0.2,0.6-0.3,1-0.5c0,0,0,0,0-0.1c0,0,0,0-0.1,0
					c-0.3,0.2-0.6,0.3-0.9,0.5C29.2,32.3,29,32.4,28.7,32.5z"/>
				<path class="st19" d="M29.6,33c-0.2,0.1-0.3,0.1-0.5,0.1c-0.7,0.2-1.4,0.4-2.1,0.8c-0.2,0.1-0.4,0.2-0.6,0.3
					c-1.2,0.7-2.5,1.9-3.8,3.3v0.1l0,0l0,0c1.2-1.4,2.5-2.5,3.7-3.2c0.2-0.1,0.4-0.2,0.6-0.3c0.7-0.4,1.4-0.6,2-0.8
					C29.2,33.2,29.4,33.1,29.6,33c0.3,0,0.6-0.1,0.8-0.2c0.4-0.2,0.6-0.3,0.9-0.5c0,0,0,0,0-0.1c0,0,0,0-0.1,0
					c-0.3,0.2-0.5,0.3-0.9,0.4C30.1,32.8,29.8,32.9,29.6,33z"/>
				<path class="st19" d="M30.4,33.5c-0.2,0.1-0.3,0.1-0.5,0.1c-0.7,0.2-1.4,0.4-2.1,0.8c-0.2,0.1-0.4,0.2-0.6,0.3
					c-1.2,0.7-2.5,1.9-3.8,3.3v0.1l0,0l0,0c1.2-1.4,2.5-2.5,3.7-3.2c0.2-0.1,0.4-0.2,0.6-0.3c0.7-0.4,1.4-0.6,2-0.8
					C30.1,33.7,30.2,33.6,30.4,33.5c0.3,0,0.5-0.1,0.8-0.2c0.4-0.2,0.6-0.3,0.9-0.4c0,0,0,0,0-0.1c0,0,0,0-0.1,0
					c-0.3,0.2-0.5,0.3-0.9,0.4C30.9,33.3,30.6,33.4,30.4,33.5z"/>
				<path class="st19" d="M31.2,33.9C31,34,30.9,34,30.7,34.1c-0.7,0.2-1.4,0.4-2.1,0.8c-0.2,0.1-0.4,0.2-0.6,0.3
					c-1.2,0.7-2.5,1.9-3.8,3.3v0.1l0,0l0,0c1.2-1.4,2.5-2.5,3.8-3.3c0.2-0.1,0.4-0.2,0.6-0.3c0.7-0.4,1.4-0.6,2-0.8
					C30.9,34.1,31.1,34.1,31.2,33.9c0.3,0,0.5-0.1,0.8-0.2c0.4-0.2,0.6-0.2,0.9-0.4c0,0,0,0,0-0.1c0,0,0,0-0.1,0
					c-0.3,0.2-0.5,0.3-0.9,0.4C31.7,33.8,31.5,33.9,31.2,33.9z"/>
				<path class="st19" d="M32,34.4c-0.2,0.1-0.3,0.1-0.5,0.1c-0.7,0.2-1.4,0.4-2.1,0.8c-0.2,0.1-0.4,0.2-0.6,0.3
					c-1.2,0.7-2.6,1.9-3.8,3.3V39l0,0l0,0c1.2-1.4,2.5-2.5,3.8-3.3c0.2-0.1,0.4-0.2,0.6-0.3c0.7-0.4,1.4-0.6,2-0.8
					C31.7,34.6,31.9,34.6,32,34.4c0.3,0,0.5-0.1,0.8-0.2c0.4-0.2,0.6-0.2,0.9-0.4c0,0,0,0,0-0.1c0,0,0,0-0.1,0
					c-0.3,0.2-0.5,0.3-0.9,0.4C32.6,34.2,32.3,34.3,32,34.4z"/>
				<path class="st19" d="M32.9,34.9C32.7,35,32.6,35,32.4,35c-0.7,0.2-1.4,0.4-2.1,0.8c-0.2,0.1-0.4,0.2-0.6,0.3
					c-1.2,0.8-2.6,1.9-3.8,3.3v0.1l0,0l0,0c1.2-1.4,2.5-2.5,3.8-3.3c0.2-0.1,0.4-0.2,0.6-0.3c0.7-0.4,1.4-0.6,2.1-0.8
					C32.6,35.1,32.7,35,32.9,34.9c0.3,0,0.5-0.1,0.8-0.2c0.3-0.1,0.6-0.2,0.9-0.4c0,0,0,0,0-0.1c0,0,0,0-0.1,0
					c-0.3,0.2-0.5,0.3-0.8,0.4C33.4,34.7,33.1,34.8,32.9,34.9z"/>
				<path class="st19" d="M33.7,35.4c-0.2,0.1-0.3,0.1-0.5,0.1c-0.7,0.2-1.4,0.4-2.1,0.8c-0.2,0.1-0.4,0.2-0.6,0.3
					c-1.2,0.8-2.6,1.9-3.8,3.3V40l0,0l0,0c1.2-1.4,2.6-2.5,3.8-3.3c0.2-0.1,0.4-0.2,0.6-0.3c0.7-0.4,1.4-0.6,2.1-0.8
					C33.4,35.6,33.6,35.5,33.7,35.4c0.3,0,0.5-0.1,0.8-0.2c0.3-0.1,0.5-0.2,0.8-0.4c0,0,0,0,0-0.1c0,0,0,0-0.1,0
					c-0.3,0.2-0.5,0.3-0.8,0.4C34.2,35.2,34,35.3,33.7,35.4z"/>
				<path class="st19" d="M34.5,35.8c-0.2,0.1-0.3,0.1-0.5,0.1c-0.7,0.2-1.4,0.4-2.1,0.8c-0.2,0.1-0.4,0.2-0.6,0.3
					c-1.3,0.8-2.6,1.9-3.8,3.3v0.1l0,0l0,0c1.2-1.4,2.6-2.6,3.8-3.3c0.2-0.1,0.4-0.2,0.6-0.3c0.7-0.4,1.4-0.6,2.1-0.8
					C34.2,36,34.4,36,34.5,35.8c0.3,0,0.5-0.1,0.8-0.2c0.3-0.1,0.5-0.2,0.8-0.4c0,0,0,0,0-0.1c0,0,0,0-0.1,0
					c-0.3,0.2-0.5,0.2-0.8,0.4C35,35.7,34.8,35.8,34.5,35.8z"/>
				<path class="st19" d="M35.4,36.3c-0.2,0.1-0.3,0.1-0.5,0.1c-0.7,0.2-1.4,0.4-2.1,0.8c-0.2,0.1-0.4,0.2-0.6,0.3
					c-1.3,0.8-2.6,1.9-3.8,3.3v0.1l0,0l0,0c1.3-1.4,2.6-2.6,3.8-3.3c0.2-0.1,0.4-0.2,0.6-0.3c0.7-0.4,1.4-0.6,2.1-0.8
					C35.1,36.5,35.2,36.5,35.4,36.3c0.3,0,0.5-0.1,0.8-0.2c0.3-0.1,0.5-0.2,0.8-0.4c0,0,0,0,0-0.1c0,0,0,0-0.1,0
					c-0.2,0.1-0.4,0.2-0.8,0.4C35.9,36.2,35.6,36.2,35.4,36.3z"/>
				<path class="st19" d="M37.7,36.2c-0.3,0.1-0.5,0.2-0.8,0.4c-0.3,0.1-0.5,0.2-0.8,0.3C35.9,37,35.8,37,35.6,37
					c-0.7,0.2-1.4,0.4-2.1,0.8c-0.2,0.1-0.4,0.2-0.6,0.3c-1.3,0.8-2.6,1.9-3.9,3.3v0.1l0,0l0,0c1.3-1.4,2.6-2.6,3.8-3.3
					c0.2-0.1,0.4-0.2,0.6-0.3c0.7-0.4,1.4-0.6,2.1-0.8c0.2,0,0.3-0.1,0.5-0.1c0.2-0.1,0.5-0.2,0.8-0.3
					C37.3,36.5,37.5,36.4,37.7,36.2C37.8,36.3,37.8,36.2,37.7,36.2C37.8,36.2,37.7,36.2,37.7,36.2z"/>
				<path class="st19" d="M10.6,38.6c0.2-0.1,0.3-0.3,0.5-0.4c0.7-0.6,1.3-1.2,2-1.7c0.2-0.1,0.4-0.2,0.6-0.4
					c1.2-0.7,2.5-1.2,3.7-1.3c0,0,0,0,0-0.1c0,0,0,0-0.1,0c-1.2,0.1-2.5,0.5-3.7,1.3c-0.2,0.1-0.4,0.2-0.6,0.4c-0.7,0.5-1.4,1-2,1.7
					C10.9,38.3,10.7,38.4,10.6,38.6c-0.4,0.2-0.7,0.4-0.9,0.7c-0.4,0.3-0.7,0.5-1,0.7c0,0,0,0,0,0.1l0,0l0,0c0.3-0.2,0.6-0.4,1-0.7
					S10.3,38.9,10.6,38.6z"/>
				<path class="st19" d="M11.5,39.1c0.2-0.1,0.3-0.3,0.5-0.4c0.7-0.6,1.3-1.2,2-1.7c0.2-0.1,0.4-0.2,0.6-0.4
					c1.2-0.7,2.5-1.2,3.7-1.2c0,0,0,0,0-0.1c0,0,0-0.1-0.1,0c-1.2,0.1-2.5,0.5-3.7,1.3c-0.2,0.1-0.4,0.2-0.6,0.4
					c-0.7,0.5-1.4,1-2,1.7C11.7,38.8,11.6,38.9,11.5,39.1c-0.4,0.2-0.7,0.4-0.9,0.7c-0.4,0.3-0.7,0.5-1,0.7c0,0,0,0,0,0.1l0,0l0,0
					c0.3-0.2,0.6-0.4,1-0.7C10.9,39.6,11.2,39.4,11.5,39.1z"/>
				<path class="st19" d="M12.3,39.6c0.2-0.1,0.3-0.3,0.5-0.4c0.7-0.6,1.3-1.2,2-1.7c0.2-0.1,0.4-0.3,0.6-0.4
					c1.2-0.7,2.4-1.2,3.6-1.2c0,0,0,0,0-0.1s0,0-0.1,0c-1.2,0.1-2.5,0.5-3.7,1.3c-0.2,0.1-0.4,0.2-0.6,0.4c-0.7,0.5-1.4,1-2,1.7
					C12.5,39.2,12.4,39.4,12.3,39.6c-0.4,0.2-0.7,0.4-0.9,0.7c-0.4,0.3-0.7,0.5-1,0.7c0,0,0,0,0,0.1l0,0l0,0c0.3-0.2,0.6-0.4,1-0.7
					C11.7,40.1,12,39.9,12.3,39.6z"/>
				<path class="st19" d="M13.1,40.1c0.2-0.1,0.3-0.3,0.5-0.4c0.7-0.6,1.3-1.2,2-1.7c0.2-0.1,0.4-0.3,0.6-0.4
					c1.2-0.7,2.4-1.1,3.6-1.2c0,0,0,0,0-0.1c0,0,0,0-0.1,0c-1.2,0.1-2.4,0.5-3.6,1.3c-0.2,0.1-0.4,0.2-0.6,0.4c-0.7,0.5-1.4,1-2,1.7
					C13.3,39.7,13.2,39.9,13.1,40.1c-0.4,0.2-0.6,0.4-0.9,0.7c-0.4,0.3-0.7,0.5-1,0.7c0,0,0,0,0,0.1l0,0l0,0c0.3-0.2,0.6-0.4,1-0.7
					C12.5,40.6,12.8,40.4,13.1,40.1z"/>
				<path class="st19" d="M13.9,40.6c0.2-0.1,0.3-0.3,0.5-0.4c0.7-0.6,1.3-1.2,2-1.7c0.2-0.1,0.4-0.3,0.6-0.4
					c1.2-0.7,2.4-1.1,3.6-1.2c0,0,0,0,0-0.1c0,0,0,0-0.1,0c-1.2,0.1-2.4,0.5-3.6,1.3c-0.2,0.1-0.4,0.2-0.6,0.4c-0.7,0.5-1.4,1-2,1.7
					C14.2,40.2,14,40.4,13.9,40.6c-0.4,0.2-0.6,0.4-0.9,0.7c-0.4,0.3-0.7,0.5-1,0.7c0,0,0,0,0,0.1l0,0l0,0c0.3-0.2,0.6-0.4,1-0.7
					C13.3,41.1,13.6,40.8,13.9,40.6z"/>
				<path class="st19" d="M14.7,41.1c0.2-0.1,0.3-0.3,0.5-0.4c0.7-0.6,1.3-1.2,2-1.7c0.2-0.1,0.4-0.3,0.6-0.4
					c1.2-0.7,2.4-1.1,3.5-1.2c0,0,0,0,0-0.1c0,0,0,0-0.1,0c-1.2,0.1-2.4,0.6-3.6,1.3c-0.2,0.1-0.4,0.2-0.6,0.4c-0.7,0.5-1.4,1-2,1.7
					C15,40.7,14.8,40.8,14.7,41.1c-0.4,0.2-0.6,0.4-0.9,0.7c-0.4,0.3-0.7,0.5-1,0.7c0,0,0,0,0,0.1l0,0l0,0c0.3-0.2,0.6-0.4,1-0.7
					S14.4,41.3,14.7,41.1z"/>
				<path class="st19" d="M15.6,41.5c0.2-0.1,0.3-0.3,0.5-0.4c0.7-0.6,1.3-1.2,2-1.7c0.2-0.1,0.4-0.3,0.6-0.4
					c1.1-0.7,2.4-1.1,3.5-1.2c0,0,0,0,0-0.1s0,0-0.1,0c-1.2,0.1-2.4,0.6-3.5,1.3c-0.2,0.1-0.4,0.2-0.6,0.4c-0.7,0.5-1.4,1-2,1.7
					C15.8,41.2,15.6,41.3,15.6,41.5c-0.4,0.2-0.6,0.4-0.9,0.7c-0.4,0.3-0.7,0.5-1,0.7c0,0,0,0,0,0.1l0,0l0,0c0.3-0.2,0.6-0.4,1-0.7
					C15,42.1,15.3,41.8,15.6,41.5z"/>
				<path class="st19" d="M16.4,42c0.2-0.1,0.3-0.3,0.5-0.4c0.7-0.6,1.3-1.2,2-1.7c0.2-0.1,0.4-0.3,0.6-0.4c1.1-0.7,2.3-1.1,3.5-1.2
					c0,0,0,0,0-0.1s0,0-0.1,0c-1.2,0.1-2.4,0.6-3.5,1.3c-0.2,0.1-0.4,0.2-0.6,0.4c-0.7,0.5-1.4,1-2.1,1.7
					C16.6,41.7,16.5,41.8,16.4,42c-0.4,0.2-0.6,0.4-0.9,0.7c-0.4,0.3-0.7,0.5-1,0.7c0,0,0,0,0,0.1l0,0l0,0c0.3-0.2,0.6-0.4,1.1-0.7
					C15.8,42.5,16.1,42.3,16.4,42z"/>
				<path class="st19" d="M17.2,42.5c0.2-0.1,0.3-0.3,0.5-0.4c0.7-0.6,1.4-1.2,2-1.7c0.2-0.1,0.4-0.3,0.6-0.4
					c1.1-0.7,2.3-1.1,3.4-1.2c0,0,0,0,0-0.1s0,0-0.1,0c-1.1,0.1-2.3,0.6-3.5,1.3c-0.2,0.1-0.4,0.2-0.6,0.4c-0.7,0.5-1.4,1-2.1,1.7
					C17.4,42.2,17.3,42.3,17.2,42.5c-0.4,0.2-0.6,0.4-0.9,0.6c-0.4,0.3-0.7,0.5-1.1,0.7c0,0,0,0,0,0.1l0,0l0,0
					c0.3-0.2,0.6-0.4,1.1-0.8C16.6,43,16.9,42.8,17.2,42.5z"/>
				<path class="st19" d="M18,43c0.2-0.1,0.3-0.3,0.5-0.4c0.7-0.6,1.4-1.2,2-1.7c0.2-0.1,0.4-0.3,0.6-0.4c1.1-0.7,2.3-1.1,3.4-1.2
					c0,0,0,0,0-0.1s0,0-0.1,0c-1.1,0.1-2.3,0.6-3.5,1.3c-0.2,0.1-0.4,0.2-0.6,0.4c-0.7,0.5-1.4,1.1-2.1,1.7
					C18.3,42.6,18.1,42.8,18,43c-0.4,0.2-0.6,0.4-0.9,0.6c-0.4,0.3-0.7,0.6-1.1,0.8c0,0,0,0,0,0.1l0,0l0,0c0.3-0.2,0.7-0.4,1.1-0.8
					C17.4,43.5,17.7,43.3,18,43z"/>
				<path class="st19" d="M18.8,43.5c0.2-0.1,0.3-0.3,0.5-0.4c0.7-0.6,1.4-1.2,2-1.7c0.2-0.1,0.4-0.3,0.6-0.4
					c1.1-0.7,2.3-1.1,3.4-1.2c0,0,0,0,0-0.1c0,0,0,0-0.1,0c-1.1,0.1-2.3,0.6-3.4,1.3c-0.2,0.1-0.4,0.2-0.6,0.4
					c-0.7,0.5-1.4,1.1-2.1,1.7C19.1,43.1,18.9,43.3,18.8,43.5c-0.4,0.2-0.6,0.4-0.9,0.6c-0.4,0.3-0.7,0.6-1.1,0.8c0,0,0,0,0,0.1l0,0
					l0,0c0.3-0.2,0.7-0.4,1.1-0.8C18.3,44,18.5,43.7,18.8,43.5z"/>
				<path class="st19" d="M19.6,44c0.2-0.1,0.3-0.3,0.5-0.4c0.7-0.6,1.4-1.2,2.1-1.7c0.2-0.1,0.4-0.3,0.6-0.4
					c1.1-0.7,2.3-1.1,3.4-1.2c0,0,0,0,0-0.1c0,0,0,0-0.1,0c-1.1,0.2-2.3,0.6-3.4,1.3c-0.2,0.1-0.4,0.2-0.6,0.4
					c-0.7,0.5-1.4,1.1-2.1,1.7C19.9,43.6,19.7,43.8,19.6,44c-0.4,0.2-0.6,0.4-0.9,0.6c-0.4,0.3-0.8,0.6-1.1,0.8c0,0,0,0,0,0.1l0,0
					l0,0c0.3-0.2,0.7-0.4,1.1-0.8C19.1,44.5,19.4,44.2,19.6,44z"/>
				<path class="st19" d="M20.5,44.5c0.2-0.1,0.3-0.3,0.5-0.4c0.7-0.6,1.4-1.2,2.1-1.7c0.2-0.1,0.4-0.3,0.6-0.4
					c1.1-0.7,2.2-1.1,3.3-1.2c0,0,0,0,0-0.1c0,0,0,0-0.1,0c-1.1,0.2-2.3,0.6-3.4,1.3c-0.2,0.1-0.4,0.2-0.6,0.4
					c-0.7,0.5-1.4,1.1-2.1,1.7C20.7,44.1,20.5,44.2,20.5,44.5c-0.4,0.2-0.6,0.4-0.9,0.6c-0.4,0.3-0.8,0.6-1.1,0.8c0,0,0,0,0,0.1l0,0
					l0,0c0.3-0.2,0.7-0.4,1.1-0.8C19.9,45,20.2,44.7,20.5,44.5z"/>
				<path class="st19" d="M21.3,44.9c0.2-0.1,0.3-0.3,0.5-0.4c0.7-0.7,1.4-1.2,2.1-1.7c0.2-0.1,0.4-0.3,0.6-0.4
					c1.1-0.6,2.2-1.1,3.3-1.2c0,0,0,0,0-0.1c0,0,0,0-0.1,0c-1.1,0.2-2.3,0.6-3.3,1.3c-0.2,0.1-0.4,0.2-0.6,0.4
					c-0.7,0.5-1.4,1.1-2.1,1.7C21.5,44.6,21.4,44.7,21.3,44.9c-0.4,0.2-0.6,0.4-0.9,0.6c-0.4,0.3-0.8,0.6-1.1,0.8c0,0,0,0,0,0.1l0,0
					l0,0c0.4-0.2,0.7-0.4,1.1-0.8C20.7,45.4,21,45.2,21.3,44.9z"/>
				<path class="st19" d="M25.2,42.8c-0.2,0.1-0.4,0.2-0.6,0.4c-0.7,0.5-1.4,1.1-2.1,1.7c-0.2,0.1-0.3,0.3-0.5,0.4
					c-0.3,0.3-0.6,0.5-0.9,0.7c-0.4,0.3-0.8,0.6-1.1,0.8c0,0,0,0,0,0.1l0,0l0,0c0.4-0.2,0.7-0.4,1.1-0.8c0.3-0.2,0.6-0.5,0.9-0.7
					c0.2-0.1,0.3-0.3,0.5-0.4c0.7-0.7,1.4-1.2,2.1-1.7C24.8,43.2,25,43,25.2,42.8c1.1-0.6,2.2-1,3.3-1.2c0,0,0,0,0-0.1
					c0,0,0,0-0.1,0C27.4,41.7,26.2,42.2,25.2,42.8z"/>
			</g>
		</g>
		<g>
			<g>
				<g>
					<g>
						<g class="st20">
							<g>
								<path class="st21" d="M29.1,41.9l-7.9-4.6l-0.1-0.1L29.1,41.9L29.1,41.9z"/>
							</g>
							<g>
								<path class="st22" d="M29.2,41.6c-0.1,0.1-0.1,0.1-0.1,0.2l-7.9-4.6l0.1-0.2L29.2,41.6z"/>
							</g>
							<g>
								<path class="st23" d="M29.4,41.5h-0.1c0,0-0.1,0-0.1,0.1l-8-4.6l0.2-0.1L29.4,41.5z"/>
							</g>
						</g>
					</g>
					<g>
						<polygon class="st24" points="30.3,42.2 30.3,42.3 30.3,42.3 30.3,42.3 30.2,42.3 30.3,42.3 						"/>
					</g>
					<path d="M30.3,42.2L30,42l0,0c0,0,0,0-0.1,0l-0.1,0.1l0,0L30.3,42.2C30.3,42.3,30.3,42.3,30.3,42.2
						C30.3,42.3,30.3,42.3,30.3,42.2z"/>
					<path class="st25" d="M21.7,37h-0.1l-0.1,0.1c0,0.1-0.1,0.1-0.1,0.2v0.1L21,37.1c0,0-0.1,0-0.1-0.1s0-0.1,0.1-0.2
						c0-0.1,0.1-0.1,0.1-0.1h0.1l0,0L21.7,37z"/>
					<path class="st26" d="M29.4,41.5L29.4,41.5L29.4,41.5z"/>
				</g>
				<path class="st27" d="M29.4,41.5L29.4,41.5L29.4,41.5c-0.1,0-0.2,0-0.2,0s0,0,0,0.1l0,0c0,0-0.1,0.1-0.1,0.2l0,0v0.1l0,0
					l0.8,0.3l0,0c0,0,0-0.1,0.1-0.1c0,0,0,0,0.1,0L29.4,41.5z"/>
			</g>
			
				<linearGradient id="SVGID_1_" gradientUnits="userSpaceOnUse" x1="21.7732" y1="-2043.1643" x2="21.5925" y2="-2043.4897" gradientTransform="matrix(1 0 0 -1 0 -2006)">
				<stop  offset="0" style="stop-color:#78ACED"/>
				<stop  offset="1" style="stop-color:#4F7BB3"/>
			</linearGradient>
			<path class="st28" d="M22.1,37.3L22.1,37.3L22.1,37.3L21.7,37l0,0l0,0h-0.1l0,0h-0.1c-0.1,0-0.1,0.1-0.1,0.1
				c0,0.1-0.1,0.1-0.1,0.2c0,0,0,0.1,0.1,0.1h0.1l0,0l0,0l0.3,0.2l0,0l0,0l0.1,0.1l0,0l0,0l0,0c0,0,0,0,0-0.1l0,0v-0.1l0,0l0.1-0.1
				l0,0C22,37.3,22,37.2,22.1,37.3L22.1,37.3L22.1,37.3L22.1,37.3L22.1,37.3z"/>
		</g>
	</g>
</g>
<g id="Layer_2">
	
		<radialGradient id="SVGID_00000020387299700511372030000012234332452627667639_" cx="-789.8859" cy="-4082.8408" r="15.9016" gradientTransform="matrix(1.5353 0 0 -0.4819 1237.7118 -1926.021)" gradientUnits="userSpaceOnUse">
		<stop  offset="0.4351" style="stop-color:#B4BCC1"/>
		<stop  offset="0.94" style="stop-color:#ECEEEF;stop-opacity:0"/>
	</radialGradient>
	<ellipse style="fill:url(#SVGID_00000020387299700511372030000012234332452627667639_);" cx="25" cy="41.5" rx="24.4" ry="7.7"/>
	<g>
		<polygon class="st30" points="34.688,36.262 34.688,37.493 21.191,29.7 22.253,29.083 		"/>
		<path class="st31" d="M34.808,20.488l-13.736-7.931c-0.274-0.158-0.498-0.029-0.498,0.288v16.633c0,0.316,0.224,0.704,0.498,0.863
			l13.736,7.931c0.274,0.158,0.498,0.029,0.498-0.288V21.351C35.306,21.035,35.082,20.646,34.808,20.488z M34.148,28.038v1.151
			v7.367c-0.011,0-0.029-0.004-0.054-0.018l-5.502-3.176c-0.025-0.014-0.043-0.032-0.054-0.044l-1.25-0.709l-5.502-3.176
			c-0.025-0.014-0.043-0.032-0.054-0.044l0-7.367v-1.151v-6.595c0.011,0,0.029,0.004,0.054,0.018l5.502,3.176l1.25,0.735
			c0.011,0,0.029,0.004,0.054,0.018l5.502,3.176c0.025,0.014,0.043,0.032,0.054,0.044V28.038z"/>
		<polygon class="st32" points="21.732,15.049 21.111,15.049 21.111,29.017 21.732,29.372 		"/>
		<g>
			<polygon class="st32" points="22.253,14.562 22.253,29.083 21.731,29.386 21.191,29.52 21.191,13.965 			"/>
			<polygon class="st30" points="14.694,15.461 15.315,15.815 21.732,14.274 21.111,13.919 			"/>
			<polygon class="st31" points="14.694,30.577 15.315,30.932 21.732,29.39 21.111,29.036 			"/>
			<polygon class="st31" points="14.694,29.802 15.315,30.157 21.732,28.615 21.111,28.261 			"/>
			<polygon class="st33" points="15.315,30.157 21.732,28.615 21.732,14.274 15.315,15.815 			"/>
			<polygon class="st32" points="15.315,30.157 15.315,30.932 21.732,29.39 21.732,28.615 			"/>
			<polygon class="st32" points="15.315,15.815 15.315,16.59 21.732,15.049 21.732,14.274 			"/>
			<polygon class="st31" points="15.315,15.815 15.315,30.157 15.315,30.932 14.694,30.577 14.694,29.802 14.694,15.461 			"/>
			<polygon class="st32" points="15.842,30.03 15.315,30.157 15.315,16.5 15.842,16.373 			"/>
			<path class="st34" d="M15.584,22.458c0.118-0.033,0.239-0.003,0.328,0.068l0.979-0.273c0.114-0.032,0.231,0.035,0.263,0.148
				c0.032,0.114-0.035,0.231-0.148,0.263l-0.979,0.273c-0.039,0.107-0.127,0.195-0.245,0.228c-0.195,0.054-0.398-0.06-0.453-0.255
				C15.274,22.715,15.388,22.513,15.584,22.458z"/>
			<path class="st30" d="M15.584,22.615c0.118-0.033,0.239-0.003,0.328,0.068l0.979-0.274c0.114-0.032,0.231,0.035,0.263,0.148
				c0.032,0.114-0.035,0.231-0.148,0.263l-0.979,0.273c-0.039,0.107-0.127,0.195-0.245,0.228c-0.195,0.054-0.398-0.06-0.453-0.255
				C15.274,22.872,15.388,22.67,15.584,22.615z"/>
		</g>
		<g>
			<g>
				<polygon class="st35" points="21.657,29.399 33.099,36.005 33.099,39.308 21.657,32.702 				"/>
				<polygon class="st36" points="21.673,29.387 17.195,31.99 17.195,35.293 21.673,32.69 				"/>
				<g>
					<polygon class="st37" points="17.536,31.974 28.62,38.374 32.741,35.977 21.657,29.577 					"/>
					<path class="st38" d="M19.445,31.462c-0.368,0.212-0.368,0.556,0,0.768l8.451,4.88c0.367,0.212,0.963,0.212,1.33,0l1.434-0.845
						c0.367-0.212,0.367-0.556,0-0.768l-8.452-4.88c-0.367-0.212-0.962-0.212-1.33,0L19.445,31.462z"/>
				</g>
				<polygon class="st39" points="17.578,32.211 22.057,29.608 21.674,29.387 17.196,31.99 				"/>
				<polygon class="st39" points="32.715,36.214 21.273,29.608 21.656,29.387 33.097,35.993 				"/>
				<g>
					<polygon class="st36" points="28.637,41.895 17.195,35.289 17.195,31.986 28.637,38.592 					"/>
					<polygon class="st39" points="17.579,31.768 29.021,38.374 28.637,38.595 17.197,31.989 					"/>
				</g>
				<g>
					<polygon class="st35" points="28.62,41.883 33.099,39.28 33.099,35.977 28.62,38.58 					"/>
					<polygon class="st39" points="32.715,35.758 28.237,38.361 28.619,38.583 33.098,35.979 					"/>
				</g>
			</g>
			<path class="st37" d="M19.35,31.537c-0.379,0.219-0.379,0.574,0,0.793l8.724,5.037c0.379,0.219,0.994,0.219,1.373,0l1.704-1.001
				c0.379-0.219,0.379-0.574,0-0.793l-8.724-5.037c-0.379-0.219-0.994-0.219-1.373,0L19.35,31.537z"/>
			<g>
				<path class="st40" d="M19.693,31.889c0.109-0.024,0.049-0.196,0.148-0.203c-0.08-0.088-0.16-0.048-0.197-0.333
					c-0.037-0.285,0.382-0.692,0.715-0.625c0.545,0.11,0.25,0.692,0.328,0.908c0.378,1.046,2.294,0.727,2.842-0.213l-0.126,0.001
					c0.621-0.115,0.36,0.304,0.488,0.509c0.12,0.193,0.619,0.531,0.118,0.746c-0.086-0.164-0.091-0.081-0.181-0.138
					c0.017,0.09,0.052,0.211,0.087,0.295c-0.073,0.024-0.236,0.047-0.294,0.08c-0.067,0.17-0.025,0.342-0.272,0.332
					c-0.106-0.004-0.094-0.063-0.145-0.157c0.009-0.003-0.279,0.04-0.263,0.045c0.039,0.302-0.13,0.48-0.458,0.519
					c-0.056-0.014-0.007-0.127-0.027-0.146c-0.221,0.189-0.409,0.188-0.658,0.071c-0.235-0.11-0.328-0.399-0.566-0.533
					c0.032,0.177-0.435,0.167-0.528-0.078c0.039,0.114-0.125,0.353-0.248,0.016c-0.544-0.016-0.515-0.292-0.482-0.656
					C19.606,32.358,19.593,32.144,19.693,31.889z"/>
				<path class="st41" d="M22.566,30.942c0.527-0.216,1.178-0.13,1.51,0.416c0.47,0.767-0.162,0.424-0.559,0.501
					c0.069-0.013,0.115,0.24,0.116,0.376c-0.001,0.038-0.003,0.065-0.01,0.078c-0.07,0.129-0.272,0.105-0.367,0.21
					c-0.093,0.103-0.028,0.333-0.221,0.339c-0.215,0.007-0.413-0.268-0.58-0.367c-0.308,0.063-0.412-0.121-0.358-0.325
					C22.411,32.379,22.626,31.03,22.566,30.942z"/>
				<path class="st42" d="M20.021,31.476c0.142-0.12,0.553,0.059,0.36-0.3c-0.107-0.202-0.368-0.033-0.481-0.148
					c-0.226-0.232-0.307-0.676,0.201-0.51c0.031-0.288-0.207-0.136-0.205-0.457c0-0.206,0.256-0.587,0.48-0.576
					c0.457,0.022,0.765,1.003,0.643,0.26c0.188-0.028,0.243,0.101,0.288,0.249c0.048,0.153,0.085,0.327,0.248,0.373
					c0.07,0.021,0.199-0.244,0.431-0.113c0.262,0.149,0.288,0.757,0.127,0.935l0.415-0.232c0.012-0.006,0.024-0.01,0.037-0.015
					c0.06,0.088,0.11,0.186,0.159,0.284c0.209,0.209,0.105,0.524,0.105,0.733c-0.044,0.044-0.089,0.083-0.132,0.119
					c0.155,0.067,0.127,0.443-0.044,0.443c0.016,0.083-0.109,0.158-0.191,0.125c0.007,0.178,0.014,0.426-0.009,0.489
					c-0.075,0.202-0.349,0.346-0.543,0.231c-0.198-0.118,0.081-0.347-0.194-0.346c-0.316,0-0.239,0.386-0.599,0.308
					c-0.341-0.075-0.104-0.291-0.2-0.5c-0.133-0.292-0.248-0.009-0.425,0.02c-0.39,0.06-0.204-0.34-0.327-0.535
					c-0.138-0.215-0.435-0.021-0.533-0.249C19.472,31.69,19.841,31.629,20.021,31.476z"/>
				<path class="st43" d="M20.776,30.575c-0.025-0.046-0.039-0.12-0.06-0.229c0.136-0.045,0.249-0.165,0.405-0.185
					c-0.04-0.012-0.098-0.053-0.156-0.097c-0.064-0.049-0.07-0.176-0.019-0.208c0.042-0.028,0.085-0.054,0.121-0.072
					c-0.379-0.384,0.213-0.614,0.227-0.445c0.108-0.099,0.155-0.102,0.252-0.096c0.084,0.006,0.165,0.055,0.241,0.153
					c0.101-0.724,0.625-0.192,0.557,0.317c0.287-0.154,0.636-0.254,0.784,0.064c-0.048,0.046-0.093,0.06-0.14,0.082
					c0.085,0.017,0.147,0.073,0.241,0.187c-0.006,0.063-0.084,0.065-0.107,0.116c-0.005-0.003,0.038,0.128,0.041,0.121
					c0.097-0.002,0.188,0.024,0.266,0.027c0.001,0.015-0.017,0.04-0.036,0.056c-0.011,0.01-0.023,0.015-0.034,0.017
					c0.097,0.02,0.185,0.063,0.258,0.12c0.318,0.237,0.393,0.701-0.149,0.571c0.089,0.337,0.004,0.223-0.088,0.425
					c-0.035-0.058-0.083-0.139-0.124-0.215c-0.021-0.042-0.042-0.083-0.056-0.118c-0.009-0.021-0.098,0.03-0.096,0.032
					c-0.007-0.003,0.04,0.124,0.042,0.122c0.352,0.127,0.088,0.646-0.164,0.461c0.038,0.039,0.077,0.08,0.078,0.083
					c-0.183,0.177-0.334,0.237-0.544,0.119c-0.293,0.381-0.709,0.245-0.77,0.052c-0.073-0.013-0.154-0.065-0.222-0.139
					c0.002-0.005,0.005-0.01,0.007-0.015c0.032-0.089,0.028-0.189-0.011-0.276c-0.024-0.053-0.057-0.091-0.095-0.123
					c0.085-0.024,0.029-0.101-0.082-0.2c0.013-0.004,0.027-0.008,0.04-0.013c0.09-0.04,0.16-0.117,0.194-0.209
					c0.034-0.097,0.021-0.182-0.011-0.276c0,0-0.455,0.139-0.456,0.172c-0.045-0.039-0.333-0.141-0.367-0.177
					C20.632,30.661,20.682,30.599,20.776,30.575z"/>
				<path class="st44" d="M21.667,29.522c0.052,0.247,0.137,0.017,0.233,0.081c0.147,0.099-0.051,0.441,0.263,0.452
					c-0.015-0.087-0.06-0.285-0.037-0.369c0.033-0.12,0.113-0.222,0.186-0.058c0.06,0.137-0.159,0.328,0.024,0.438
					c0.136,0.083,0.16-0.069,0.28-0.098c0.009,0.013,0.008,0.032,0.017,0.045c0.049-0.073,0.175-0.417,0.329-0.27
					c0.133,0.128-0.13,0.19-0.073,0.313c0.503-0.09,0.011,0.175,0.146,0.479c0.122-0.036,0.129-0.255,0.319-0.225
					c0.005,0.005,0.008,0.01,0.009,0.017c-0.024,0.019-0.202,0.283-0.199,0.289c0.095,0.004,0.354-0.084,0.475-0.096
					c0.019-0.016,0.078-0.156,0.04-0.217c-0.022-0.035-0.07-0.037-0.107-0.037c-0.069,0-0.191,0.039-0.194-0.07
					c-0.003-0.073,0.099-0.099,0.088-0.169c-0.008-0.051-0.061-0.078-0.097-0.108c-0.019-0.016-0.038-0.031-0.06-0.042
					c-0.013-0.007-0.056-0.033-0.07-0.026c0.047-0.021,0.093-0.036,0.14-0.082c-0.148-0.318-0.497-0.218-0.784-0.064
					c0.068-0.509-0.456-1.041-0.557-0.317c-0.077-0.098-0.157-0.147-0.24-0.153C21.753,29.321,21.648,29.425,21.667,29.522z"/>
				<g>
					<path class="st41" d="M22.094,31.987c0.01-0.016,0.026-0.032,0.053-0.047C22.133,31.955,22.115,31.971,22.094,31.987z"/>
					<path class="st41" d="M22.149,31.939c-0.001,0-0.001,0-0.002,0.001C22.148,31.939,22.148,31.939,22.149,31.939
						C22.156,31.936,22.156,31.936,22.149,31.939z"/>
				</g>
			</g>
			<g>
				<path class="st40" d="M27.273,34.209c-0.102-0.046-0.007-0.202-0.102-0.23c0.096-0.069,0.166-0.014,0.263-0.284
					c0.096-0.271-0.227-0.758-0.567-0.762c-0.556-0.007-0.391,0.623-0.513,0.818c-0.591,0.942-2.396,0.225-2.733-0.809l0.123,0.027
					c-0.582-0.244-0.416,0.222-0.584,0.395c-0.158,0.163-0.718,0.388-0.273,0.704c0.118-0.142,0.106-0.06,0.206-0.097
					c-0.036,0.084-0.095,0.195-0.148,0.27c0.067,0.039,0.221,0.095,0.27,0.14c0.03,0.181-0.048,0.34,0.195,0.382
					c0.104,0.018,0.105-0.042,0.175-0.123c-0.008-0.004,0.265,0.098,0.248,0.1c-0.102,0.287,0.026,0.497,0.338,0.604
					c0.057-0.002,0.033-0.123,0.058-0.137c0.176,0.231,0.36,0.27,0.629,0.208c0.253-0.058,0.405-0.32,0.666-0.401
					c-0.069,0.166,0.39,0.255,0.532,0.035c-0.062,0.103,0.048,0.372,0.239,0.068c0.535,0.1,0.565-0.176,0.61-0.54
					C27.259,34.686,27.317,34.48,27.273,34.209z"/>
				<path class="st41" d="M24.665,32.677c-0.469-0.322-1.124-0.376-1.564,0.087c-0.622,0.651,0.069,0.448,0.44,0.608
					c-0.065-0.028-0.163,0.21-0.193,0.343c-0.007,0.037-0.01,0.064-0.006,0.078c0.041,0.14,0.244,0.16,0.314,0.283
					c0.069,0.12-0.043,0.331,0.144,0.378c0.209,0.052,0.46-0.175,0.645-0.236c0.288,0.127,0.429-0.031,0.419-0.242
					C24.513,34.114,24.587,32.75,24.665,32.677z"/>
				<path class="st42" d="M27.039,33.737c-0.113-0.147-0.553-0.059-0.289-0.369c0.147-0.175,0.366,0.046,0.501-0.043
					c0.27-0.179,0.443-0.596-0.089-0.541c0.03-0.288,0.231-0.089,0.297-0.403c0.044-0.202-0.126-0.628-0.348-0.664
					c-0.451-0.075-0.96,0.819-0.684,0.118c-0.178-0.067-0.258,0.047-0.334,0.182c-0.08,0.139-0.152,0.302-0.321,0.313
					c-0.073,0.005-0.143-0.281-0.398-0.201c-0.287,0.091-0.441,0.679-0.322,0.887l-0.356-0.315c-0.01-0.008-0.021-0.015-0.033-0.022
					c-0.077,0.073-0.147,0.159-0.215,0.244c-0.249,0.16-0.213,0.49-0.257,0.695c0.034,0.052,0.07,0.1,0.104,0.144
					c-0.166,0.032-0.218,0.406-0.05,0.442c-0.033,0.078,0.073,0.178,0.16,0.162c-0.045,0.172-0.104,0.413-0.094,0.48
					c0.03,0.213,0.268,0.412,0.482,0.34c0.219-0.074-0.005-0.356,0.262-0.297c0.309,0.067,0.152,0.428,0.52,0.428
					c0.349-0.001,0.163-0.262,0.301-0.447c0.192-0.257,0.245,0.044,0.411,0.109c0.368,0.141,0.271-0.289,0.433-0.454
					c0.18-0.181,0.43,0.071,0.573-0.131C27.531,34.062,27.183,33.925,27.039,33.737z"/>
				<path class="st43" d="M26.491,32.697c0.035-0.039,0.064-0.109,0.107-0.211c-0.124-0.073-0.209-0.214-0.357-0.267
					c0.042-0.003,0.107-0.031,0.173-0.062c0.073-0.035,0.106-0.157,0.062-0.199c-0.036-0.036-0.071-0.071-0.103-0.096
					c0.451-0.295-0.079-0.645-0.128-0.483c-0.085-0.119-0.13-0.133-0.226-0.147c-0.084-0.012-0.173,0.019-0.268,0.098
					c0.054-0.729-0.57-0.32-0.611,0.192c-0.248-0.211-0.568-0.383-0.78-0.103c0.037,0.055,0.078,0.079,0.12,0.109
					c-0.087-0.002-0.159,0.041-0.275,0.132c-0.007,0.063,0.069,0.081,0.08,0.136c0.005-0.002-0.064,0.118-0.065,0.11
					c-0.094-0.022-0.189-0.017-0.265-0.029c-0.004,0.014,0.008,0.043,0.023,0.063c0.009,0.012,0.02,0.02,0.029,0.024
					c-0.099-0.001-0.194,0.023-0.277,0.062c-0.361,0.165-0.532,0.602,0.025,0.59c-0.158,0.31-0.051,0.217-0.004,0.434
					c0.046-0.049,0.111-0.118,0.167-0.183c0.03-0.037,0.059-0.072,0.08-0.103c0.013-0.019,0.09,0.05,0.087,0.052
					c0.007-0.002-0.066,0.112-0.066,0.111c-0.371,0.05-0.223,0.613,0.062,0.485c-0.045,0.03-0.092,0.062-0.094,0.065
					c0.142,0.212,0.276,0.303,0.507,0.232c0.206,0.434,0.641,0.389,0.742,0.214c0.075,0.002,0.164-0.031,0.246-0.089
					c-0.001-0.005-0.003-0.011-0.004-0.016c-0.013-0.094,0.012-0.191,0.069-0.268c0.034-0.046,0.075-0.077,0.119-0.1
					c-0.077-0.042-0.007-0.105,0.123-0.178c-0.012-0.007-0.024-0.013-0.036-0.021c-0.079-0.058-0.132-0.148-0.145-0.245
					c-0.013-0.102,0.018-0.182,0.069-0.267c0,0,0.415,0.232,0.41,0.264c0.052-0.029,0.356-0.067,0.396-0.096
					C26.615,32.811,26.579,32.74,26.491,32.697z"/>
				<path class="st44" d="M25.844,31.478c-0.103,0.23-0.138-0.013-0.244,0.029c-0.165,0.065-0.043,0.442-0.353,0.386
					c0.033-0.082,0.119-0.266,0.114-0.353c-0.006-0.124-0.064-0.241-0.169-0.096c-0.088,0.121,0.086,0.354-0.116,0.423
					c-0.151,0.052-0.142-0.101-0.253-0.155c-0.012,0.011-0.014,0.03-0.027,0.04c-0.032-0.081-0.083-0.445-0.264-0.333
					c-0.157,0.097,0.087,0.213,0.005,0.322c-0.472-0.194-0.047,0.169-0.244,0.437c-0.111-0.061-0.073-0.277-0.264-0.287
					c-0.006,0.004-0.01,0.008-0.013,0.015c0.02,0.024,0.137,0.32,0.134,0.324c-0.094-0.017-0.329-0.157-0.444-0.194
					c-0.015-0.02-0.043-0.169,0.007-0.22c0.029-0.029,0.076-0.021,0.113-0.014c0.067,0.015,0.179,0.078,0.205-0.027
					c0.018-0.071-0.075-0.118-0.051-0.184c0.018-0.048,0.076-0.063,0.117-0.085c0.022-0.011,0.044-0.022,0.068-0.029
					c0.014-0.004,0.062-0.02,0.074-0.01c-0.041-0.031-0.083-0.055-0.12-0.109c0.212-0.28,0.532-0.108,0.78,0.103
					c0.041-0.512,0.666-0.921,0.611-0.192c0.096-0.08,0.184-0.111,0.267-0.099C25.803,31.265,25.883,31.388,25.844,31.478z"/>
				<g>
					<path class="st41" d="M24.905,33.797c-0.007-0.018-0.019-0.037-0.042-0.057C24.874,33.758,24.888,33.778,24.905,33.797z"/>
					<path class="st41" d="M24.862,33.739c0.001,0,0.001,0.001,0.001,0.001C24.863,33.74,24.862,33.739,24.862,33.739
						C24.855,33.735,24.855,33.735,24.862,33.739z"/>
				</g>
			</g>
			<g>
				<path class="st40" d="M29.578,37.004c-0.055-0.097,0.113-0.168,0.052-0.246c0.119,0.001,0.143,0.087,0.379-0.076
					c0.237-0.163,0.261-0.747-0.012-0.95c-0.446-0.332-0.682,0.275-0.895,0.362c-1.031,0.416-2.072-1.224-1.738-2.259l0.083,0.094
					c-0.328-0.539-0.467-0.065-0.705-0.023c-0.224,0.04-0.809-0.107-0.635,0.41c0.179-0.046,0.121,0.014,0.223,0.042
					c-0.079,0.047-0.191,0.102-0.278,0.132c0.031,0.071,0.123,0.207,0.137,0.272c-0.082,0.164-0.238,0.247-0.066,0.424
					c0.074,0.076,0.11,0.027,0.214,0.003c-0.004-0.008,0.157,0.235,0.142,0.226c-0.251,0.173-0.271,0.417-0.081,0.687
					c0.047,0.032,0.099-0.08,0.127-0.077c0.007,0.291,0.133,0.43,0.387,0.538c0.239,0.101,0.516-0.022,0.774,0.066
					c-0.153,0.094,0.166,0.436,0.411,0.341c-0.111,0.047-0.179,0.329,0.154,0.196c0.375,0.395,0.561,0.189,0.811-0.079
					C29.287,37.382,29.455,37.249,29.578,37.004z"/>
				<path class="st41" d="M28.365,34.233c-0.191-0.536-0.689-0.964-1.318-0.847c-0.885,0.162-0.208,0.403,0,0.751
					c-0.036-0.061-0.256,0.074-0.357,0.164c-0.028,0.026-0.046,0.046-0.051,0.059c-0.049,0.138,0.104,0.273,0.088,0.414
					c-0.014,0.138-0.229,0.243-0.105,0.39c0.138,0.165,0.475,0.129,0.66,0.187c0.159,0.271,0.365,0.226,0.481,0.05
					C27.399,35.307,28.26,34.247,28.365,34.233z"/>
				<path class="st42" d="M29.666,36.485c-0.005-0.186-0.413-0.372-0.017-0.469c0.221-0.055,0.269,0.252,0.431,0.259
					c0.324,0.014,0.708-0.223,0.245-0.49c0.194-0.215,0.239,0.063,0.477-0.152c0.154-0.138,0.266-0.582,0.108-0.742
					c-0.321-0.325-1.258,0.1-0.623-0.306c-0.104-0.158-0.237-0.114-0.378-0.049c-0.146,0.066-0.301,0.155-0.443,0.065
					c-0.062-0.038,0.049-0.311-0.204-0.396c-0.286-0.095-0.756,0.291-0.781,0.53l-0.104-0.464c-0.004-0.013-0.009-0.024-0.013-0.037
					c-0.105,0.014-0.212,0.042-0.318,0.071c-0.296-0.016-0.46,0.272-0.616,0.412c-0.003,0.062-0.002,0.122,0,0.178
					c-0.153-0.071-0.415,0.201-0.3,0.329c-0.073,0.044-0.046,0.187,0.035,0.226c-0.137,0.113-0.327,0.274-0.358,0.333
					c-0.1,0.19-0.025,0.491,0.191,0.559c0.22,0.069,0.205-0.291,0.387-0.086c0.211,0.235-0.128,0.436,0.17,0.652
					c0.283,0.204,0.286-0.117,0.506-0.185c0.306-0.096,0.172,0.179,0.269,0.33c0.215,0.331,0.389-0.075,0.617-0.113
					c0.252-0.041,0.306,0.31,0.541,0.231C29.874,37.036,29.672,36.721,29.666,36.485z"/>
				<path class="st43" d="M29.833,35.321c0.051-0.012,0.115-0.051,0.21-0.108c-0.058-0.131-0.043-0.295-0.132-0.426
					c0.036,0.022,0.105,0.037,0.176,0.051c0.079,0.015,0.178-0.065,0.168-0.125c-0.008-0.05-0.016-0.099-0.027-0.138
					c0.539,0.026,0.315-0.569,0.18-0.466c0.001-0.146-0.027-0.183-0.097-0.252c-0.06-0.059-0.151-0.086-0.275-0.077
					c0.472-0.558-0.274-0.593-0.608-0.203c-0.076-0.317-0.235-0.643-0.571-0.541c-0.002,0.066,0.017,0.11,0.033,0.159
					c-0.069-0.053-0.153-0.061-0.3-0.054c-0.043,0.047,0.008,0.106-0.015,0.157c0.005,0.001-0.121,0.058-0.118,0.051
					c-0.063-0.073-0.143-0.124-0.198-0.18c-0.011,0.01-0.019,0.04-0.018,0.064c0,0.015,0.004,0.028,0.01,0.036
					c-0.079-0.059-0.17-0.095-0.261-0.112c-0.389-0.079-0.784,0.175-0.326,0.492c-0.31,0.158-0.169,0.146-0.258,0.349
					c0.066-0.012,0.159-0.031,0.243-0.051c0.046-0.012,0.09-0.024,0.125-0.037c0.022-0.007,0.043,0.093,0.04,0.093
					c0.007,0.003-0.119,0.053-0.119,0.051c-0.33-0.177-0.54,0.366-0.234,0.429c-0.054-0.002-0.111-0.004-0.114-0.003
					c-0.01,0.255,0.046,0.407,0.274,0.485c-0.088,0.472,0.291,0.691,0.475,0.609c0.059,0.046,0.151,0.071,0.252,0.072
					c0.002-0.005,0.004-0.01,0.006-0.015c0.045-0.083,0.122-0.148,0.213-0.176c0.055-0.017,0.105-0.018,0.155-0.011
					c-0.038-0.079,0.056-0.089,0.204-0.072c-0.006-0.013-0.012-0.025-0.017-0.039c-0.03-0.094-0.02-0.197,0.026-0.284
					c0.049-0.09,0.122-0.137,0.213-0.176c0,0,0.2,0.431,0.177,0.455c0.059,0.007,0.327,0.154,0.377,0.155
					C29.866,35.486,29.879,35.407,29.833,35.321z"/>
				<path class="st44" d="M30.023,33.954c-0.218,0.126-0.104-0.091-0.215-0.12c-0.172-0.044-0.294,0.332-0.512,0.106
					c0.075-0.047,0.252-0.146,0.3-0.218c0.068-0.105,0.09-0.233-0.081-0.177c-0.142,0.046-0.138,0.337-0.342,0.274
					c-0.152-0.047-0.055-0.165-0.114-0.274c-0.016,0.002-0.029,0.016-0.045,0.017c0.022-0.085,0.194-0.409-0.018-0.425
					c-0.184-0.013-0.055,0.224-0.184,0.264c-0.269-0.434-0.138,0.109-0.454,0.211c-0.055-0.115,0.103-0.267-0.045-0.387
					c-0.007,0-0.013,0.001-0.019,0.005c0.002,0.031-0.076,0.339-0.082,0.341c-0.066-0.069-0.174-0.32-0.246-0.418
					c0-0.025,0.064-0.162,0.135-0.174c0.04-0.007,0.074,0.028,0.099,0.055c0.046,0.051,0.099,0.168,0.181,0.098
					c0.056-0.047,0.008-0.14,0.067-0.178c0.043-0.028,0.099-0.007,0.145,0c0.024,0.004,0.048,0.008,0.072,0.017
					c0.014,0.005,0.062,0.02,0.066,0.035c-0.016-0.049-0.035-0.093-0.033-0.159c0.336-0.102,0.494,0.224,0.571,0.541
					c0.334-0.391,1.08-0.355,0.608,0.203c0.124-0.008,0.214,0.019,0.275,0.077C30.116,33.757,30.108,33.904,30.023,33.954z"/>
				<g>
					<path class="st41" d="M27.903,35.281c0.005-0.018,0.006-0.041,0-0.071C27.9,35.231,27.901,35.255,27.903,35.281z"/>
					<path class="st41" d="M27.902,35.208c0,0,0,0.001,0,0.002C27.902,35.209,27.902,35.209,27.902,35.208
						C27.899,35.201,27.899,35.201,27.902,35.208z"/>
				</g>
			</g>
		</g>
		<g>
			<path class="st34" d="M30.266,32.624c0.078-0.095,0.193-0.14,0.307-0.133l0.645-0.786c0.075-0.091,0.209-0.104,0.301-0.03
				c0.091,0.075,0.104,0.209,0.03,0.301l-0.645,0.786c0.029,0.11,0.008,0.233-0.07,0.328c-0.129,0.157-0.36,0.179-0.517,0.051
				C30.16,33.012,30.138,32.781,30.266,32.624z"/>
			<path class="st30" d="M30.356,32.752c0.078-0.095,0.194-0.14,0.307-0.133l0.645-0.786c0.075-0.091,0.209-0.104,0.301-0.03
				c0.091,0.075,0.104,0.209,0.029,0.301l-0.645,0.786c0.029,0.11,0.008,0.233-0.07,0.328c-0.129,0.157-0.36,0.179-0.517,0.051
				C30.25,33.141,30.228,32.909,30.356,32.752z"/>
			<polygon class="st32" points="34.148,21.442 33.527,21.442 33.527,35.411 34.148,35.766 			"/>
			<polygon class="st33" points="30.671,40.992 34.148,35.766 34.148,21.442 30.671,26.669 			"/>
			<polygon class="st30" points="30.05,26.314 33.549,21.047 34.173,21.408 30.671,26.669 			"/>
			<polygon class="st31" points="30.05,40.637 33.527,35.411 34.148,35.766 30.671,40.992 			"/>
			<polygon class="st31" points="30.05,41.431 33.527,36.204 34.148,36.559 30.671,41.785 			"/>
			<polygon class="st31" points="30.671,26.669 30.671,40.992 30.671,41.785 30.05,41.431 30.05,40.637 30.05,26.314 			"/>
			<polygon class="st32" points="30.671,40.992 34.148,35.766 34.148,36.559 30.671,41.785 			"/>
			<polygon class="st32" points="30.671,26.669 34.148,21.442 34.148,22.235 30.671,27.462 			"/>
			<polygon class="st32" points="31.199,40.992 30.671,40.992 30.671,27.462 31.199,26.669 			"/>
		</g>
	</g>
</g>
</svg>
