<?xml version="1.0" encoding="utf-8"?>
<!-- Generator: Adobe Illustrator 25.4.1, SVG Export Plug-In . SVG Version: 6.00 Build 0)  -->
<svg version="1.1" id="Layer_1" xmlns="http://www.w3.org/2000/svg" xmlns:xlink="http://www.w3.org/1999/xlink" x="0px" y="0px"
	 viewBox="0 0 50 50" style="enable-background:new 0 0 50 50;" xml:space="preserve">
<style type="text/css">
	.st0{fill:url(#SVGID_1_);}
	.st1{fill:#EFF0F5;}
	.st2{fill:#C4C8D8;}
	.st3{fill:#3A3F47;}
	.st4{fill:#121822;}
	.st5{fill:#7C78F0;}
	.st6{fill:#D2D6E1;}
	.st7{fill:#FF4550;}
	.st8{fill:#692D00;}
	.st9{fill:#A1A6C4;}
	.st10{fill:#FF7107;}
	.st11{fill:#FFFFFF;}
</style>
<radialGradient id="SVGID_1_" cx="16.2195" cy="33.6088" r="15.8951" gradientTransform="matrix(1.5353 0 0 -0.569 0.0982 58.9349)" gradientUnits="userSpaceOnUse">
	<stop  offset="0.2598" style="stop-color:#B4BCC1"/>
	<stop  offset="0.4308" style="stop-color:#BCC3C8;stop-opacity:0.7486"/>
	<stop  offset="0.6967" style="stop-color:#D2D7DA;stop-opacity:0.3577"/>
	<stop  offset="0.94" style="stop-color:#ECEEEF;stop-opacity:0"/>
</radialGradient>
<ellipse class="st0" cx="25" cy="39.812" rx="24.402" ry="9.045"/>
<g>
	<g>
		<g>
			<path class="st1" d="M36.397,34.065c-0.349,0.237-1.026,0.877-1.307,1.473c-0.281,0.596-0.579,1.523-1.175,3.807
				c-0.596,2.284-0.877,1.953-0.877,1.953l-1.754-0.447l0.844-8.738c0,0,4.22,1.523,4.982,1.738
				C37.108,33.849,36.707,33.854,36.397,34.065z"/>
			<path class="st2" d="M39.326,38.478c0,0,0.221-0.154,0-0.618c-0.221-0.463-1.135-2.67-1.135-2.67s-0.321-1.125-1.082-1.341
				c0,0-0.402,0.005-0.712,0.215c-0.349,0.237-1.026,0.877-1.307,1.473c-0.281,0.596-0.579,1.523-1.175,3.807
				c-0.596,2.284-0.877,1.953-0.877,1.953s0.373,0.05,0.724-0.91c0.351-0.96,1.245-5.197,2.354-5.875
				c1.137-0.696,1.378-0.215,1.566,0.182C37.87,35.091,39.293,38.125,39.326,38.478z"/>
			<path class="st3" d="M33.037,41.297c0,0,0.373,0.05,0.724-0.91c0.351-0.96,1.245-5.197,2.354-5.875
				c1.137-0.696,1.378-0.215,1.566,0.182c0.188,0.397,1.612,3.431,1.645,3.784c0,0-0.629,0.436-0.728,0.403s-1.969-3.84-2.218-3.74
				c-0.248,0.099-0.612,0.43-0.976,1.754c-0.058,0.209-0.123,0.442-0.192,0.687c-0.369,1.303-0.863,2.941-1.016,3.136
				C34.013,40.949,33.765,41.231,33.037,41.297z"/>
			<path class="st4" d="M35.212,37.582c0.069-0.245,0.134-0.478,0.192-0.687c0.364-1.324,0.728-1.655,0.976-1.754
				c0.248-0.099,2.118,3.707,2.218,3.74L35.212,37.582z"/>
		</g>
		<path class="st3" d="M18.321,32.004c-0.576-0.238,13.326,10.093,13.326,10.093l1.633-0.802l0.448-1.308
			c0.147-0.826-0.205-1.695-0.782-1.934L18.321,32.004L18.321,32.004z"/>
		<g>
			<path class="st2" d="M22.75,6.653c-0.576-0.238-1.167,0.241-1.314,1.067l-4.323,24.19c-0.146,0.825,0.205,1.695,0.781,1.934
				l14.626,6.05c0.576,0.238,1.167-0.242,1.314-1.067l4.323-24.19c0.147-0.826-0.205-1.695-0.782-1.934L22.75,6.653L22.75,6.653z"/>
			<path class="st1" d="M22.241,6.787c-0.576-0.238-1.167,0.241-1.314,1.067l-4.323,24.19c-0.146,0.825,0.205,1.696,0.782,1.934
				l14.626,6.05c0.576,0.238,1.167-0.242,1.314-1.067l4.323-24.19c0.147-0.826-0.205-1.695-0.781-1.934L22.241,6.787L22.241,6.787z"
				/>
			<path class="st5" d="M22.211,7.192c-0.452-0.187-0.913,0.187-1.028,0.834l-4.301,24.066c-0.115,0.647,0.159,1.325,0.612,1.512
				l14.548,6.017c0.451,0.187,0.912-0.188,1.027-0.834l4.301-24.066c0.115-0.647-0.159-1.325-0.611-1.512l-5.875-2.43l-0.504,0.159
				c-0.299,0.094-0.611,0.079-0.91-0.044l-0.202-0.084c-0.298-0.124-0.574-0.351-0.8-0.663l-0.382-0.526L22.211,7.192L22.211,7.192z
				"/>
			<path class="st3" d="M17.473,33.723L32.02,39.74c0.496,0.205,1.005-0.208,1.131-0.919l4.301-24.066
				c0.126-0.71-0.177-1.459-0.673-1.664l-5.723-2.367l-3.102-1.283l-5.723-2.367c-0.496-0.205-1.005,0.207-1.131,0.918L16.8,32.058
				C16.674,32.768,16.977,33.518,17.473,33.723z M16.882,32.092l4.301-24.066c0.115-0.646,0.576-1.021,1.028-0.834l5.875,2.43
				l0.382,0.526c0.226,0.312,0.501,0.539,0.8,0.663l0.202,0.084c0.298,0.123,0.611,0.138,0.91,0.044l0.504-0.159l5.875,2.43
				c0.451,0.187,0.726,0.865,0.611,1.512l-4.301,24.066c-0.115,0.647-0.576,1.021-1.027,0.834l-14.548-6.017
				C17.042,33.417,16.767,32.738,16.882,32.092z"/>
			<path class="st6" d="M36.715,13.774c0.058,0.024,0.094,0.111,0.079,0.195c-0.015,0.083-0.074,0.13-0.132,0.106
				c-0.059-0.024-0.094-0.111-0.079-0.194C36.598,13.797,36.657,13.75,36.715,13.774L36.715,13.774z"/>
			<path class="st6" d="M36.392,13.64c0.058,0.024,0.094,0.111,0.079,0.195c-0.015,0.083-0.074,0.13-0.132,0.106
				c-0.059-0.024-0.094-0.111-0.079-0.194C36.275,13.664,36.334,13.616,36.392,13.64L36.392,13.64z"/>
			<path class="st6" d="M36.069,13.507c0.058,0.024,0.094,0.111,0.079,0.195c-0.015,0.083-0.074,0.13-0.132,0.106
				c-0.059-0.024-0.094-0.111-0.079-0.194C35.952,13.53,36.011,13.483,36.069,13.507L36.069,13.507z"/>
			<path class="st6" d="M35.746,13.373c0.058,0.024,0.094,0.111,0.079,0.195c-0.015,0.083-0.074,0.13-0.132,0.106
				c-0.058-0.024-0.094-0.111-0.079-0.193C35.629,13.397,35.688,13.349,35.746,13.373L35.746,13.373z"/>
			<path class="st6" d="M22.43,7.53c0.127,0.053,0.41,0.17,0.537,0.222c0.024,0.01,0.038,0.045,0.032,0.078
				c-0.021,0.12-0.032,0.181-0.053,0.301c-0.006,0.034-0.03,0.054-0.054,0.044c-0.127-0.053-0.41-0.17-0.537-0.222
				c-0.024-0.01-0.038-0.046-0.032-0.079c0.004-0.023,0.008-0.044,0.011-0.064l0.005,0.002c0.013,0.005,0.026-0.005,0.029-0.023
				l0.018-0.101c0.003-0.018-0.005-0.037-0.017-0.042l-0.005-0.002c0.004-0.021,0.008-0.044,0.012-0.07
				C22.382,7.539,22.406,7.52,22.43,7.53L22.43,7.53z"/>
			<path class="st6" d="M22.324,7.626l0.04,0.017l0.005,0.002c0.013,0.005,0.02,0.024,0.017,0.042l-0.018,0.101
				c-0.003,0.018-0.016,0.029-0.029,0.023L22.334,7.81l-0.04-0.017c-0.013-0.005-0.015-0.022-0.012-0.04L22.3,7.652
				C22.303,7.634,22.311,7.621,22.324,7.626L22.324,7.626z"/>
		</g>
		<g>
			<path class="st1" d="M20.244,32.78c-0.047-0.018-3.658-1.546-3.707-1.546c-0.032,0-0.201-0.062-0.362-0.026
				c-0.089,0.02-0.175,0.069-0.234,0.175c-0.166,0.298-0.563,1.556-0.612,2.118c-0.05,0.563,0.033,1.109,0.364,1.291
				c0.331,0.182,15.176,7.034,15.176,7.034s0.728,0.43,1.159-0.083s0.794-2.135,0.861-2.466c0.066-0.331-0.116-1.175-0.596-1.44
				c-0.48-0.265-4.684-2.003-4.725-2.003s-0.405-0.149-0.852-0.017c-0.447,0.132-0.463,0.116-1.589-0.331
				c-1.125-0.447-3.904-1.67-3.904-1.67s-0.333-0.217-0.466-0.465S20.487,32.873,20.244,32.78z"/>
			<path class="st2" d="M16.423,31.032c0.161-0.035,0.33,0.026,0.362,0.026c0.05,0,3.66,1.528,3.707,1.546
				c0.244,0.093,0.381,0.324,0.513,0.573c0.132,0.248,0.466,0.465,0.466,0.465s2.778,1.223,3.904,1.67
				c1.125,0.447,1.142,0.463,1.589,0.331s0.811,0.017,0.852,0.017c0.041,0,4.245,1.738,4.725,2.003
				c0.48,0.265,0.662,1.109,0.596,1.44s-0.43,1.953-0.861,2.466l-0.248,0.177c0.43-0.513,0.794-2.135,0.861-2.466
				c0.066-0.331-0.116-1.175-0.596-1.44c-0.48-0.265-4.684-2.003-4.725-2.003s-0.405-0.149-0.852-0.017
				c-0.447,0.132-0.463,0.116-1.589-0.331c-1.125-0.447-3.904-1.67-3.904-1.67s-0.333-0.217-0.466-0.465s-0.269-0.48-0.513-0.573
				c-0.047-0.018-3.658-1.546-3.707-1.546c-0.032,0-0.201-0.062-0.362-0.026L16.423,31.032z"/>
		</g>
		<path class="st7" d="M32.899,9.326l-4.426-1.598c0,0-1.302-0.096-1.769,1.325c-0.466,1.421-0.08,1.822-0.08,1.822l3.426,1.477
			c0,0,0.099,0.081,0.25-0.296S30.61,9.379,32.899,9.326z"/>
		<path class="st8" d="M30.049,12.352c0,0,0.099,0.081,0.25-0.296s0.31-2.677,2.599-2.729c0,0,0.352,0.365,0.204,0.957
			s-0.147,0.591-0.147,0.591l-0.582-0.241c0,0-1.108,0.245-1.472,1.023C30.538,12.434,30.049,12.352,30.049,12.352z"/>
	</g>
	<g>
		<g>
			<path class="st1" d="M12.196,39.949c-0.253-0.023-0.494-0.103-0.66-0.22l-2.95-2.073c-0.152-0.107-0.23-0.232-0.219-0.353
				c0.011-0.119,0.108-0.227,0.273-0.304l3.25-1.509c0.184-0.085,0.426-0.12,0.68-0.097c0.253,0.023,0.494,0.103,0.66,0.22
				l2.95,2.073c0.152,0.107,0.23,0.232,0.219,0.353c-0.011,0.119-0.108,0.227-0.273,0.304l-3.25,1.509
				C12.691,39.937,12.45,39.971,12.196,39.949L12.196,39.949z"/>
			<path class="st3" d="M11.472,40.446l-2.95-2.073c-0.152-0.107-0.23-0.232-0.219-0.353l0.064-0.717
				c-0.011,0.121,0.067,0.246,0.219,0.353l2.95,2.073L11.472,40.446z"/>
			<path class="st9" d="M12.811,40.568l3.25-1.509c0.166-0.077,0.263-0.185,0.273-0.304l0.064-0.717
				c-0.011,0.119-0.108,0.227-0.273,0.304l-3.25,1.509L12.811,40.568z"/>
			<path class="st2" d="M12.811,40.568c-0.184,0.086-0.426,0.12-0.68,0.097l0,0c-0.253-0.023-0.494-0.103-0.66-0.22l0.064-0.717
				c0.166,0.117,0.407,0.197,0.66,0.22l0,0c0.254,0.023,0.496-0.012,0.68-0.097L12.811,40.568z"/>
		</g>
		<g>
			<path class="st10" d="M11.444,37.757l1.186,0.693c0.118,0.069,0.198,0.132,0.24,0.188c0.042,0.057,0.045,0.102,0.01,0.137
				c-0.031,0.031-0.083,0.043-0.154,0.036c-0.071-0.007-0.157-0.04-0.256-0.098l-1.673-0.977c-0.114-0.066-0.189-0.131-0.226-0.195
				c-0.037-0.064-0.038-0.113-0.002-0.149c0.023-0.023,0.074-0.041,0.153-0.055c0.079-0.014,0.154-0.018,0.224-0.011
				c0.29,0.03,0.547,0.061,0.772,0.093c0.225,0.032,0.382,0.059,0.472,0.08c0.161,0.036,0.302,0.059,0.422,0.07
				c0.12,0.011,0.221,0.01,0.304-0.004c0.083-0.014,0.143-0.04,0.18-0.077c0.041-0.041,0.054-0.091,0.041-0.15
				c-0.014-0.059-0.052-0.121-0.113-0.185c-0.062-0.064-0.139-0.124-0.233-0.179c-0.199-0.116-0.391-0.17-0.579-0.164
				c-0.025,0.001-0.076,0.012-0.155,0.034c-0.078,0.022-0.152,0.031-0.219,0.028c-0.068-0.003-0.145-0.03-0.231-0.08
				c-0.076-0.044-0.128-0.091-0.157-0.142c-0.029-0.05-0.025-0.093,0.011-0.13c0.044-0.044,0.114-0.076,0.209-0.096
				c0.095-0.02,0.209-0.023,0.341-0.007c0.132,0.016,0.282,0.053,0.449,0.113c0.167,0.06,0.347,0.146,0.539,0.258
				c0.232,0.135,0.414,0.266,0.547,0.392c0.086,0.082,0.151,0.165,0.195,0.247c0.044,0.083,0.066,0.16,0.063,0.233
				s-0.029,0.134-0.079,0.185c-0.079,0.079-0.198,0.123-0.356,0.133c-0.158,0.01-0.304,0.005-0.438-0.015
				c-0.134-0.02-0.354-0.058-0.661-0.113c-0.307-0.055-0.524-0.086-0.653-0.092C11.564,37.756,11.506,37.755,11.444,37.757z"/>
		</g>
	</g>
	<g>
		
			<ellipse transform="matrix(0.9941 -0.1085 0.1085 0.9941 -2.2436 3.0733)" class="st7" cx="27.126" cy="22.158" rx="4.75" ry="5.058"/>
		<path class="st11" d="M26.196,21.486c0.218-0.18,0.44-0.3,0.666-0.359c0.226-0.059,0.467-0.059,0.722,0.001
			c0.244,0.057,0.461,0.157,0.65,0.302c0.188,0.145,0.343,0.325,0.465,0.54c0.121,0.215,0.201,0.454,0.239,0.716
			c0.038,0.263,0.032,0.526-0.019,0.791c-0.074,0.385-0.225,0.715-0.451,0.99c-0.226,0.275-0.505,0.467-0.837,0.574
			c-0.331,0.107-0.685,0.117-1.06,0.03c-0.432-0.1-0.784-0.299-1.055-0.595c-0.271-0.297-0.447-0.683-0.529-1.16
			c-0.082-0.476-0.061-1.031,0.061-1.664c0.099-0.516,0.239-0.965,0.417-1.349c0.179-0.383,0.388-0.687,0.627-0.911
			c0.239-0.224,0.506-0.373,0.8-0.447c0.294-0.074,0.612-0.072,0.954,0.007c0.329,0.076,0.606,0.212,0.831,0.406
			c0.225,0.195,0.381,0.408,0.47,0.639c0.088,0.232,0.115,0.44,0.079,0.626c-0.022,0.112-0.081,0.204-0.178,0.277
			s-0.208,0.095-0.331,0.066c-0.108-0.025-0.202-0.084-0.28-0.178c-0.079-0.094-0.128-0.21-0.147-0.348
			c-0.028-0.177-0.096-0.331-0.206-0.46c-0.11-0.129-0.249-0.214-0.419-0.253c-0.136-0.032-0.28-0.021-0.431,0.03
			c-0.151,0.052-0.287,0.138-0.407,0.258C26.583,20.261,26.373,20.751,26.196,21.486z M26.749,24.269
			c0.26,0.06,0.497-0.003,0.71-0.188c0.213-0.186,0.355-0.461,0.426-0.827c0.048-0.248,0.049-0.471,0.004-0.668
			c-0.045-0.197-0.128-0.359-0.249-0.485c-0.121-0.126-0.265-0.209-0.432-0.248c-0.16-0.037-0.321-0.027-0.484,0.029
			c-0.163,0.056-0.305,0.16-0.427,0.309c-0.122,0.15-0.205,0.34-0.249,0.569c-0.071,0.368-0.04,0.696,0.093,0.984
			C26.273,24.031,26.476,24.206,26.749,24.269z"/>
	</g>
	<g>
		<g>
			<path class="st1" d="M27.505,37.456c0.198-0.052,0.378-0.147,0.494-0.262l2.064-2.037c0.107-0.105,0.152-0.215,0.127-0.309
				c-0.024-0.093-0.116-0.166-0.257-0.205l-2.779-0.764c-0.157-0.043-0.354-0.038-0.552,0.013c-0.198,0.052-0.378,0.147-0.494,0.262
				l-2.064,2.037c-0.106,0.105-0.152,0.215-0.127,0.309c0.024,0.093,0.116,0.166,0.257,0.205l2.779,0.764
				C27.11,37.513,27.306,37.508,27.505,37.456L27.505,37.456z"/>
			<path class="st3" d="M28.146,37.754l2.064-2.037c0.107-0.105,0.152-0.215,0.127-0.309l-0.146-0.56
				c0.025,0.094-0.02,0.204-0.127,0.309l-2.064,2.037L28.146,37.754z"/>
			<path class="st9" d="M27.099,38.029l-2.779-0.764c-0.142-0.039-0.233-0.112-0.257-0.205l-0.146-0.56
				c0.024,0.093,0.116,0.166,0.257,0.205l2.779,0.764L27.099,38.029z"/>
			<path class="st2" d="M27.099,38.029c0.157,0.043,0.354,0.039,0.552-0.013l0,0c0.198-0.052,0.378-0.147,0.494-0.262l-0.146-0.56
				c-0.116,0.115-0.297,0.21-0.494,0.262l0,0c-0.199,0.052-0.395,0.057-0.552,0.013L27.099,38.029z"/>
		</g>
		<g>
			<path class="st10" d="M27.14,36.292l-0.258-0.511l-0.676,0.257c-0.097,0.035-0.175,0.058-0.234,0.068s-0.126,0.005-0.198-0.015
				c-0.081-0.022-0.142-0.055-0.183-0.099c-0.042-0.044-0.052-0.085-0.033-0.122c0.02-0.038,0.092-0.081,0.216-0.128l0.822-0.313
				l-0.304-0.53c-0.054-0.089-0.069-0.157-0.044-0.204c0.02-0.037,0.063-0.062,0.13-0.075c0.067-0.013,0.143-0.008,0.229,0.015
				c0.074,0.02,0.13,0.049,0.166,0.086c0.036,0.037,0.074,0.09,0.112,0.159l0.243,0.433l0.569-0.212
				c0.095-0.035,0.172-0.057,0.233-0.067c0.061-0.01,0.128-0.005,0.201,0.015c0.084,0.023,0.146,0.055,0.187,0.097
				c0.041,0.042,0.051,0.082,0.031,0.12c-0.014,0.027-0.04,0.051-0.075,0.07c-0.036,0.019-0.086,0.039-0.151,0.061l-0.716,0.252
				l0.328,0.626c0.051,0.098,0.067,0.165,0.048,0.202c-0.02,0.038-0.065,0.063-0.135,0.075c-0.07,0.012-0.147,0.007-0.229-0.015
				c-0.073-0.02-0.128-0.049-0.166-0.086C27.215,36.416,27.177,36.362,27.14,36.292z"/>
		</g>
	</g>
	<g>
		<g>
			<path class="st1" d="M20.69,46.903c-0.251,0.041-0.504,0.023-0.694-0.048l-3.373-1.274c-0.174-0.066-0.281-0.168-0.3-0.287
				c-0.019-0.118,0.048-0.247,0.189-0.362l2.772-2.27c0.157-0.129,0.382-0.222,0.634-0.263c0.251-0.041,0.504-0.023,0.694,0.049
				l3.373,1.274c0.174,0.066,0.281,0.168,0.3,0.287c0.019,0.118-0.048,0.247-0.189,0.363l-2.773,2.27
				C21.167,46.768,20.942,46.862,20.69,46.903L20.69,46.903z"/>
			<path class="st3" d="M20.113,47.565l-3.373-1.274c-0.174-0.066-0.281-0.168-0.3-0.287l-0.116-0.71
				c0.02,0.119,0.126,0.222,0.3,0.287l3.373,1.274L20.113,47.565z"/>
			<path class="st9" d="M21.441,47.35l2.773-2.27c0.141-0.116,0.209-0.244,0.189-0.363l-0.116-0.71
				c0.019,0.118-0.048,0.247-0.189,0.363l-2.773,2.27L21.441,47.35z"/>
			<path class="st2" d="M21.441,47.35c-0.157,0.129-0.382,0.222-0.634,0.263l0,0c-0.251,0.041-0.504,0.023-0.694-0.048l-0.116-0.71
				c0.19,0.072,0.443,0.09,0.694,0.048l0,0c0.252-0.041,0.477-0.135,0.634-0.263L21.441,47.35z"/>
		</g>
		<path class="st10" d="M20.489,44.28c0.156,0.058,0.315,0.087,0.474,0.088c0.16,0.001,0.283-0.037,0.371-0.113
			c0.067-0.058,0.079-0.125,0.037-0.201c-0.042-0.075-0.14-0.141-0.293-0.198c-0.104-0.038-0.197-0.064-0.278-0.076
			c-0.082-0.012-0.154-0.015-0.218-0.008c-0.063,0.007-0.132,0.02-0.204,0.041c-0.073,0.02-0.141,0.04-0.203,0.059
			c-0.035,0.01-0.08,0.011-0.135,0.004c-0.055-0.007-0.111-0.022-0.169-0.043c-0.068-0.025-0.116-0.061-0.145-0.106
			c-0.029-0.046-0.02-0.089,0.027-0.13c0.045-0.039,0.119-0.071,0.222-0.095c0.103-0.024,0.229-0.036,0.377-0.037
			s0.312,0.014,0.492,0.047c0.18,0.033,0.365,0.084,0.554,0.154c0.165,0.061,0.304,0.127,0.417,0.197
			c0.113,0.07,0.198,0.143,0.255,0.218s0.083,0.147,0.076,0.216c-0.006,0.069-0.042,0.132-0.108,0.19
			c-0.087,0.076-0.198,0.127-0.334,0.154c-0.136,0.027-0.302,0.04-0.499,0.041c0.096,0.081,0.167,0.159,0.211,0.233
			c0.044,0.075,0.061,0.145,0.05,0.212c-0.011,0.067-0.049,0.129-0.115,0.186c-0.079,0.069-0.186,0.124-0.322,0.165
			c-0.136,0.041-0.293,0.065-0.471,0.071c-0.178,0.006-0.367-0.008-0.565-0.041s-0.398-0.087-0.598-0.161
			c-0.204-0.076-0.368-0.16-0.493-0.252c-0.124-0.092-0.211-0.182-0.26-0.27c-0.049-0.088-0.07-0.167-0.064-0.239
			c0.006-0.072,0.029-0.125,0.068-0.159c0.05-0.044,0.122-0.068,0.217-0.071c0.095-0.003,0.189,0.013,0.285,0.048
			c0.048,0.018,0.086,0.041,0.116,0.07c0.03,0.029,0.042,0.055,0.035,0.077c-0.032,0.138-0.026,0.251,0.016,0.34
			c0.043,0.089,0.156,0.167,0.34,0.235c0.105,0.039,0.22,0.065,0.344,0.078c0.124,0.013,0.244,0.009,0.36-0.013
			c0.116-0.022,0.208-0.063,0.276-0.122c0.101-0.089,0.126-0.178,0.075-0.269c-0.051-0.091-0.174-0.172-0.368-0.244
			c-0.034-0.013-0.088-0.031-0.163-0.054c-0.075-0.023-0.123-0.039-0.143-0.046c-0.094-0.035-0.154-0.072-0.181-0.112
			c-0.027-0.04-0.02-0.078,0.023-0.115c0.042-0.036,0.106-0.054,0.192-0.054c0.087,0,0.19,0.023,0.311,0.068L20.489,44.28z"/>
	</g>
</g>
</svg>
