<?xml version="1.0" encoding="utf-8"?>
<!-- Generator: Adobe Illustrator 25.4.1, SVG Export Plug-In . SVG Version: 6.00 Build 0)  -->
<svg version="1.1" id="Layer_1" xmlns="http://www.w3.org/2000/svg" xmlns:xlink="http://www.w3.org/1999/xlink" x="0px" y="0px"
	 viewBox="0 0 50 50" style="enable-background:new 0 0 50 50;" xml:space="preserve">
<style type="text/css">
	.st0{fill:url(#SVGID_1_);}
	.st1{fill:#231F20;}
	.st2{fill:#478A2A;}
	.st3{fill:#C81D32;}
	.st4{fill:#E1DFDF;}
	.st5{fill:#FFFFFF;}
	.st6{fill:#BDBFC0;}
	.st7{fill:none;stroke:#C0C7CA;stroke-miterlimit:10;}
	.st8{fill:#BABCBE;}
	.st9{fill:#939597;}
	.st10{fill:#00AEEF;}
	.st11{fill:#00979C;}
	.st12{fill:#850A19;}
	.st13{fill:#97999C;}
	.st14{fill:#333437;}
	.st15{fill:#174919;}
</style>
<radialGradient id="SVGID_1_" cx="16.2195" cy="33.0121" r="15.8951" gradientTransform="matrix(1.5353 0 0 -0.569 0.0982 58.9349)" gradientUnits="userSpaceOnUse">
	<stop  offset="0.2598" style="stop-color:#B4BCC1"/>
	<stop  offset="0.4308" style="stop-color:#BCC3C8;stop-opacity:0.7486"/>
	<stop  offset="0.6967" style="stop-color:#D2D7DA;stop-opacity:0.3577"/>
	<stop  offset="0.94" style="stop-color:#ECEEEF;stop-opacity:0"/>
</radialGradient>
<ellipse class="st0" cx="25" cy="40.151" rx="24.402" ry="9.045"/>
<g>
	<g>
		<polygon class="st1" points="34.96,26.775 11.821,40.091 13.661,40.926 37.448,27.237 		"/>
		<polygon class="st1" points="0.601,46.549 3.089,47.01 6.631,44.971 4.791,44.137 		"/>
	</g>
	<g>
		<polygon class="st2" points="11.821,40.091 10.064,41.103 11.904,41.937 13.661,40.926 		"/>
		<polygon class="st2" points="6.549,43.125 8.389,43.96 10.146,42.949 8.306,42.114 		"/>
	</g>
	<g>
		<polygon class="st3" points="10.064,41.103 8.306,42.114 10.146,42.949 11.904,41.937 		"/>
		<polygon class="st3" points="4.791,44.137 6.631,44.971 8.389,43.96 6.549,43.125 		"/>
	</g>
	<g>
		<path class="st4" d="M24.095,33.908c0,0-0.061,2.63-0.264,3.173c-0.203,0.543-2.099,2.484-4.807,2.845
			c-2.708,0.361-4.717-0.632-5.101-0.903c-0.384-0.271-1.241-1.286-1.67-2.799s-0.79-4.339,0-6.116
			c0.79-1.777,2.601-2.827,3.532-3.132c0.931-0.305,2.624-0.491,4.046,0.152s1.997,1.27,1.997,1.27s0.508,0.051,0.745,0.389
			s0.229,0.796,0.229,0.796s0.533,0.719,0.652,1.346c0.118,0.626,0.22,1.27,0.238,1.61C23.707,32.826,24.095,33.35,24.095,33.908z"
			/>
		<path class="st4" d="M24.095,33.936c0,0-0.061,2.63-0.264,3.173c-0.203,0.543-2.099,2.484-4.807,2.845
			c-0.675,0.09-1.307,0.096-1.881,0.05c-1.728-0.139-2.932-0.749-3.22-0.953c-0.384-0.271-1.241-1.286-1.67-2.799
			c-0.319-1.127-0.601-2.983-0.398-4.591c0.07-0.551,0.196-1.072,0.398-1.525c0.79-1.777,2.601-2.827,3.532-3.132
			c0.931-0.305,2.624-0.491,4.046,0.152s1.997,1.27,1.997,1.27s0.508,0.051,0.745,0.389c0.237,0.339,0.229,0.796,0.229,0.796
			s0.533,0.719,0.652,1.346c0.118,0.626,0.22,1.27,0.238,1.61C23.707,32.854,24.095,33.378,24.095,33.936z"/>
		<g>
			<path class="st5" d="M23.435,31.553c-0.035-0.208-0.075-0.428-0.118-0.647c-0.116-0.592-0.636-1.271-0.636-1.271
				s0.008-0.432-0.223-0.752c-0.231-0.32-0.727-0.368-0.727-0.368s-0.562-0.592-1.95-1.199c-1.388-0.608-3.041-0.432-3.949-0.144
				c-0.909,0.288-2.677,1.279-3.448,2.958c-0.197,0.428-0.32,0.921-0.388,1.441c0.545,0.394,1.202,0.73,1.943,0.992
				c1.103,0.389,2.39,0.613,3.765,0.613c0.578,0,1.141-0.04,1.681-0.114c1.319-0.183,2.503-0.576,3.446-1.117
				C23.044,31.822,23.246,31.691,23.435,31.553z"/>
		</g>
		<g>
			<path class="st6" d="M11.86,32.41c-0.149,1.455,0.104,3.091,0.39,4.1c0.399,1.408,1.198,2.354,1.555,2.606
				c0.268,0.189,1.389,0.758,2.999,0.887l1.672-6.071c-0.381,0.039-0.772,0.06-1.171,0.06C15.112,33.993,13.153,33.377,11.86,32.41z
				"/>
		</g>
		<path class="st7" d="M14.704,36.566L14.704,36.566c0,0.049-0.013,0.088-0.036,0.117"/>
		<g>
			<g>
				<g>
					<path class="st5" d="M16.94,36.96c0-0.495-0.402-0.897-0.897-0.897c-0.495,0-0.897,0.402-0.897,0.897
						c0,0.38,0.111,1.187,0.111,1.469c0,0.385,0.352,0.697,0.786,0.697c0.434,0,0.786-0.312,0.786-0.697
						C16.829,38.147,16.94,37.34,16.94,36.96z"/>
					<path class="st5" d="M12.265,34.581c-0.07-0.507-0.275-0.897-0.457-0.87c-0.182,0.027-0.273,0.46-0.203,0.967
						c0.054,0.39,0.209,1.21,0.249,1.499c0.055,0.394,0.228,0.695,0.388,0.672c0.16-0.023,0.245-0.362,0.191-0.757
						C12.392,35.803,12.318,34.97,12.265,34.581z"/>
					<g>
						<path class="st1" d="M12.582,36.059c-0.041-0.294-0.113-1.142-0.168-1.539c-0.072-0.517-0.293-0.912-0.493-0.883
							c-0.043,0.006-0.082,0.033-0.115,0.074c0.001,0,0.002-0.001,0.003-0.001c0.182-0.027,0.387,0.363,0.457,0.87
							c0.054,0.39,0.127,1.222,0.167,1.511c0.048,0.347-0.012,0.65-0.136,0.735c0.023,0.007,0.046,0.01,0.069,0.006
							C12.54,36.807,12.637,36.461,12.582,36.059z"/>
					</g>
					<g>
						<path class="st1" d="M15.146,36.96c0-0.495,0.402-0.897,0.897-0.897c0.382,0,0.708,0.239,0.837,0.576
							c-0.047-0.451-0.428-0.803-0.892-0.803c-0.495,0-0.897,0.402-0.897,0.897c0,0.38,0.111,1.187,0.111,1.469
							c0,0.092,0.021,0.179,0.057,0.26c-0.001-0.011-0.002-0.022-0.002-0.033C15.257,38.147,15.146,37.34,15.146,36.96z"/>
					</g>
				</g>
				<g>
					
						<ellipse transform="matrix(0.0789 -0.9969 0.9969 0.0789 -22.155 50.1087)" class="st1" cx="16.039" cy="37.044" rx="0.31" ry="0.373"/>
					<path class="st1" d="M16.138,37.883c-0.192-0.051-0.38,0.033-0.421,0.187s0.082,0.32,0.273,0.371
						c0.192,0.051,0.38-0.033,0.421-0.187S16.33,37.934,16.138,37.883z"/>
					<path class="st1" d="M12.081,34.758c-0.015-0.17-0.1-0.322-0.188-0.338c-0.089-0.016-0.148,0.109-0.132,0.279
						c0.015,0.17,0.1,0.322,0.188,0.338C12.037,35.053,12.097,34.928,12.081,34.758z"/>
					<path class="st1" d="M12.067,35.568c-0.087-0.051-0.156,0.033-0.154,0.187c0.002,0.154,0.074,0.32,0.161,0.371
						c0.087,0.051,0.156-0.033,0.154-0.187C12.226,35.785,12.154,35.619,12.067,35.568z"/>
				</g>
			</g>
			<g>
				<g>
					<path class="st1" d="M14.438,36.688l-1.351-0.64c-0.142-0.067-0.258-0.238-0.258-0.38l0,0c0-0.053,0.016-0.095,0.044-0.123
						c0.046-0.047,0.125-0.055,0.214-0.013l1.351,0.64c0.142,0.067,0.258,0.238,0.258,0.38l0,0c0,0.047-0.013,0.086-0.035,0.113
						C14.615,36.721,14.532,36.733,14.438,36.688z"/>
					<path class="st5" d="M14.392,36.735l-1.351-0.64c-0.142-0.067-0.258-0.238-0.258-0.38l0,0c0-0.053,0.016-0.095,0.044-0.123
						c0.046-0.047,0.125-0.055,0.214-0.013l1.351,0.64c0.142,0.067,0.258,0.238,0.258,0.38l0,0c0,0.047-0.013,0.086-0.035,0.113
						C14.569,36.768,14.486,36.78,14.392,36.735z"/>
				</g>
				<g>
					<path class="st1" d="M14.505,37.671l-1.294-0.613c-0.136-0.064-0.247-0.228-0.247-0.364l0,0c0-0.051,0.016-0.091,0.042-0.118
						c0.044-0.045,0.12-0.052,0.205-0.012l1.294,0.613c0.136,0.064,0.247,0.228,0.247,0.364l0,0c0,0.045-0.012,0.082-0.034,0.108
						C14.675,37.702,14.595,37.713,14.505,37.671z"/>
					<path class="st5" d="M14.461,37.715l-1.294-0.613c-0.136-0.064-0.247-0.228-0.247-0.364v0c0-0.051,0.016-0.091,0.042-0.118
						c0.044-0.045,0.12-0.052,0.205-0.012l1.294,0.613c0.136,0.064,0.247,0.228,0.247,0.364l0,0c0,0.045-0.012,0.082-0.034,0.108
						C14.631,37.746,14.551,37.758,14.461,37.715z"/>
				</g>
			</g>
		</g>
		<g>
			<ellipse class="st8" cx="17.594" cy="30.673" rx="4.996" ry="2.006"/>
			<ellipse class="st9" cx="17.653" cy="29.72" rx="3.62" ry="1.605"/>
			<path class="st5" d="M14.033,30.271c0,0.886,1.621,1.605,3.62,1.605s3.62-0.718,3.62-1.605V29.72c0,0.886-1.621,1.605-3.62,1.605
				s-3.62-0.718-3.62-1.605V30.271z"/>
		</g>
		<g>
			<path class="st4" d="M19.89,27.888c-0.025,0-0.05-0.005-0.073-0.016c-1.445-0.654-3.142-0.399-3.917-0.145
				c-0.093,0.031-0.194-0.02-0.225-0.114c-0.031-0.094,0.02-0.194,0.114-0.225c1.023-0.335,2.73-0.494,4.174,0.159
				c0.09,0.041,0.129,0.146,0.089,0.236C20.023,27.849,19.958,27.888,19.89,27.888z"/>
		</g>
		<g>
			<polygon class="st10" points="11.885,32.757 12.152,32.952 12.152,32.52 11.885,32.258 			"/>
			<polygon class="st10" points="13.227,34.187 13.728,34.441 13.728,33.916 13.227,33.646 			"/>
			<polygon class="st10" points="15.724,35.068 16.392,35.161 16.392,34.602 15.724,34.543 			"/>
			<polygon class="st10" points="18.872,34.543 18.872,35.059 19.448,34.915 19.448,34.441 			"/>
		</g>
		<g>
			<path class="st1" d="M19.34,33.264c-0.075,0-0.14-0.055-0.151-0.131c-0.012-0.083,0.046-0.161,0.13-0.173
				c1.304-0.187,2.505-0.589,3.473-1.163c0.073-0.043,0.166-0.019,0.209,0.053c0.043,0.073,0.019,0.166-0.053,0.209
				c-1.002,0.594-2.242,1.01-3.586,1.202C19.355,33.264,19.347,33.264,19.34,33.264z"/>
		</g>
		<g>
			<path class="st1" d="M17.619,33.386c-1.378,0-2.729-0.228-3.909-0.658c-0.079-0.029-0.12-0.117-0.091-0.196
				c0.029-0.079,0.117-0.12,0.196-0.091c1.147,0.419,2.462,0.64,3.804,0.64c0.084,0,0.153,0.068,0.153,0.153
				S17.703,33.386,17.619,33.386z"/>
		</g>
		<g>
			
				<ellipse transform="matrix(0.2917 -0.9565 0.9565 0.2917 -16.9576 44.7848)" class="st5" cx="21.761" cy="33.843" rx="1.906" ry="1.295"/>
			<path class="st11" d="M22.892,33.662c0.003-0.04-0.001-0.061-0.026-0.073c-0.023-0.012-0.049-0.011-0.075-0.007
				c-0.064,0.01-0.127,0.039-0.19,0.077c-0.074,0.046-0.146,0.103-0.207,0.187c-0.042,0.057-0.071,0.12-0.077,0.2
				c-0.007,0.089-0.023,0.177-0.047,0.264c-0.064,0.224-0.168,0.404-0.307,0.542c-0.199,0.198-0.406,0.277-0.618,0.242
				c-0.151-0.025-0.274-0.115-0.369-0.27c-0.028-0.047-0.055-0.096-0.072-0.155c-0.004-0.015-0.008-0.031-0.003-0.049
				c0.009-0.035,0.028-0.059,0.049-0.079c0.031-0.03,0.065-0.052,0.098-0.077c0.148-0.115,0.296-0.231,0.444-0.347
				c0.006-0.005,0.011-0.01,0.014-0.019c0.01,0.003,0.019-0.008,0.027-0.016c0.012-0.012,0.02-0.013,0.026,0.003
				c0.002,0.015,0.011,0.023,0.017,0.033c0.114,0.18,0.338,0.113,0.447-0.134c0.041-0.094,0.059-0.191,0.048-0.289
				c0.002-0.009-0.002-0.015-0.004-0.022c0.006-0.016,0.018-0.016,0.026-0.023c0.205-0.16,0.411-0.32,0.616-0.48
				c0.025-0.02,0.05-0.041,0.07-0.072c0.004-0.005,0.009-0.01,0.011-0.017c0.001-0.001,0.001-0.003,0.001-0.004
				c0.02-0.03,0.028-0.064,0.03-0.102c0.002-0.042-0.007-0.078-0.019-0.111c-0.05-0.146-0.117-0.271-0.201-0.374
				c-0.144-0.177-0.317-0.276-0.519-0.299c-0.095-0.011-0.191-0.005-0.289,0.024c-0.266,0.077-0.505,0.259-0.711,0.56
				c-0.237,0.346-0.366,0.75-0.406,1.196c-0.001,0.014,0.001,0.027,0.006,0.038c0.01,0.019,0.025,0.026,0.041,0.029
				c0.049,0.01,0.099-0.005,0.149-0.027c0.107-0.046,0.209-0.113,0.299-0.228c0.049-0.063,0.08-0.137,0.085-0.228
				c0.004-0.074,0.02-0.149,0.038-0.222c0.017-0.071,0.044-0.137,0.07-0.203c0.003-0.006,0.005-0.012,0.008-0.018
				c0.001-0.001,0.001-0.003,0.001-0.004c0.039-0.081,0.084-0.156,0.134-0.225c0.027-0.033,0.054-0.068,0.082-0.098
				c0.055-0.057,0.112-0.106,0.172-0.145c0.167-0.107,0.332-0.146,0.494-0.108c0.153,0.036,0.274,0.14,0.364,0.309
				c0.022,0.042,0.048,0.082,0.051,0.143c0.001,0.001,0.001,0.002,0.001,0.003c0-0.001-0.001-0.002-0.001-0.003
				c-0.002,0.023-0.011,0.042-0.02,0.061c-0.018,0.023-0.037,0.041-0.058,0.057c-0.184,0.144-0.367,0.288-0.551,0.432
				c-0.011,0.009-0.015,0.006-0.021-0.005c-0.113-0.218-0.37-0.134-0.471,0.154c-0.029,0.083-0.042,0.166-0.031,0.249
				c-0.001,0.004-0.001,0.008-0.002,0.011c-0.006,0.004-0.012,0.008-0.017,0.012c-0.184,0.144-0.369,0.288-0.553,0.432
				c-0.04,0.032-0.082,0.059-0.12,0.098c-0.04,0.04-0.07,0.09-0.073,0.161c-0.002,0.044,0.009,0.081,0.021,0.117
				c0.089,0.252,0.222,0.436,0.399,0.553c0.119,0.079,0.248,0.119,0.388,0.12c0.005,0,0.01,0,0.014,0
				c0.038,0.001,0.076-0.002,0.115-0.009c0.084-0.014,0.168-0.04,0.251-0.082c0.048-0.024,0.096-0.051,0.143-0.083
				c0.035-0.024,0.07-0.052,0.104-0.08c0.059-0.049,0.116-0.103,0.17-0.166c0.056-0.066,0.111-0.135,0.16-0.214
				c0.042-0.068,0.083-0.135,0.119-0.21c0.095-0.196,0.166-0.402,0.209-0.623c0.01-0.054,0.021-0.109,0.03-0.163
				C22.884,33.758,22.888,33.71,22.892,33.662z"/>
		</g>
		<g>
			<path class="st1" d="M23.909,36.667c-0.064-0.543-0.332-0.969-0.734-1.171c-0.136-0.068-0.283-0.108-0.436-0.12
				c-0.216-0.016-0.444,0.024-0.669,0.121c-0.86,0.372-1.464,1.488-1.346,2.487c0.064,0.542,0.332,0.969,0.734,1.171
				c0.164,0.082,0.344,0.123,0.531,0.123c0.188,0,0.382-0.042,0.575-0.125C23.423,38.782,24.027,37.666,23.909,36.667z"/>
			<g>
				<g>
					<path class="st1" d="M22.323,39.28c-0.157,0-0.308-0.038-0.446-0.115c-0.338-0.188-0.563-0.587-0.617-1.094
						c-0.099-0.934,0.408-1.976,1.131-2.324c0.189-0.091,0.381-0.129,0.563-0.113c0.128,0.011,0.252,0.048,0.367,0.112
						c0.338,0.188,0.563,0.587,0.617,1.094c0.099,0.934-0.408,1.976-1.132,2.324C22.644,39.241,22.481,39.28,22.323,39.28z
						 M22.323,39.28c-0.157,0-0.308-0.038-0.446-0.115c-0.338-0.188-0.563-0.587-0.617-1.094c-0.099-0.934,0.408-1.976,1.131-2.324
						c0.189-0.091,0.381-0.129,0.563-0.113 M22.874,35.782c-0.135,0-0.277,0.034-0.417,0.101c-0.67,0.322-1.139,1.296-1.046,2.17
						c0.049,0.457,0.245,0.813,0.54,0.977c0.232,0.129,0.512,0.127,0.789-0.006c0.67-0.322,1.139-1.296,1.046-2.17
						c-0.049-0.457-0.245-0.813-0.54-0.977C23.132,35.814,23.006,35.782,22.874,35.782z"/>
				</g>
				
					<ellipse transform="matrix(0.2917 -0.9565 0.9565 0.2917 -19.8191 48.1438)" class="st5" cx="22.598" cy="37.454" rx="1.79" ry="1.216"/>
				<path class="st1" d="M22.998,37.555c0-0.007,0-0.013-0.001-0.02c-0.006-0.057-0.026-0.102-0.054-0.133l0.614-0.633
					c-0.143-0.574-0.602-0.843-1.096-0.606c-0.162,0.078-0.309,0.201-0.435,0.355l0.712,0.875c-0.056,0.04-0.1,0.107-0.122,0.183
					l-0.817-0.698c-0.156,0.321-0.233,0.698-0.195,1.055c0.034,0.324,0.158,0.576,0.333,0.729l0.671-0.893
					c0.02,0.076,0.068,0.125,0.127,0.134l-0.311,0.928c0.1-0.006,0.205-0.034,0.311-0.085c0.438-0.211,0.771-0.757,0.849-1.332
					L22.998,37.555z"/>
			</g>
		</g>
		<polygon class="st5" points="17.747,28.925 18.872,29.261 17.747,29.84 16.558,29.445 		"/>
	</g>
	<g>
		<path class="st12" d="M41.699,32.393c0.109-0.14,0.172-0.333,0.171-0.564c-0.004-0.616-0.466-1.273-1.032-1.468
			c-0.212-0.073-0.409-0.071-0.572-0.007l0.408-0.218c0.163-0.064,0.359-0.066,0.572,0.007c0.566,0.195,1.028,0.852,1.032,1.468
			c0.002,0.231-0.061,0.424-0.171,0.564L41.699,32.393z"/>
		<path class="st5" d="M40.772,30.188c-0.223-0.077-0.432-0.085-0.613-0.036l-0.01-0.018l-0.076,0.046c0,0-0.001,0-0.001,0
			c-0.083,0.032-0.158,0.078-0.225,0.135l-13.192,7.921l1.493,2.706l13.369-8.028c0.121-0.053,0.225-0.134,0.308-0.241
			c0.134-0.171,0.211-0.407,0.209-0.69C42.03,31.231,41.465,30.427,40.772,30.188z"/>
		<path class="st13" d="M27.295,38.29c-0.26-0.089-0.5-0.086-0.7-0.008c-0.332,0.131-0.548,0.471-0.545,0.942
			c0.005,0.754,0.571,1.559,1.263,1.797c0.433,0.149,0.813,0.041,1.036-0.244c0.134-0.171,0.211-0.407,0.209-0.69
			C28.553,39.333,27.987,38.528,27.295,38.29z"/>
		<path class="st14" d="M28.913,40.452c0.134-0.171,0.211-0.407,0.209-0.69c-0.005-0.754-0.571-1.559-1.263-1.797
			c-0.26-0.089-0.5-0.086-0.7-0.008l0.499-0.267c0.199-0.078,0.44-0.081,0.7,0.008c0.693,0.238,1.258,1.043,1.263,1.797
			c0.002,0.283-0.075,0.518-0.209,0.69L28.913,40.452z"/>
		<g>
			<path class="st3" d="M27.964,37.711c-0.258-0.089-0.5-0.098-0.709-0.042l-0.011-0.021l-0.088,0.053c0,0-0.001,0-0.001,0
				c-0.096,0.038-0.183,0.09-0.26,0.157l-4.391,2.505l1.729,3.133l4.596-2.628c0.14-0.061,0.261-0.156,0.357-0.278
				c0.155-0.198,0.244-0.471,0.242-0.799C29.42,38.918,28.766,37.987,27.964,37.711z"/>
			<path class="st12" d="M23.243,40.425c-0.301-0.103-0.579-0.1-0.81-0.009c-0.384,0.151-0.635,0.545-0.631,1.091
				c0.006,0.873,0.661,1.804,1.463,2.08c0.501,0.172,0.941,0.048,1.199-0.283c0.155-0.198,0.244-0.471,0.242-0.799
				C24.699,41.632,24.045,40.701,23.243,40.425z"/>
		</g>
	</g>
	<g>
		<path class="st15" d="M48.383,37.767c0.13-0.121,0.223-0.301,0.258-0.529c0.094-0.609-0.257-1.332-0.785-1.614
			c-0.198-0.106-0.392-0.135-0.563-0.098l0.437-0.15c0.171-0.037,0.365-0.008,0.563,0.098c0.528,0.282,0.879,1.005,0.785,1.614
			c-0.035,0.228-0.128,0.408-0.258,0.529L48.383,37.767z"/>
		<path class="st5" d="M47.819,35.442c-0.208-0.111-0.413-0.153-0.599-0.133l-0.007-0.019l-0.082,0.033c0,0-0.001,0-0.001,0
			c-0.087,0.019-0.168,0.052-0.243,0.098L32.6,41.137l1.043,2.91l14.478-5.794c0.128-0.033,0.244-0.097,0.343-0.188
			c0.159-0.148,0.273-0.368,0.316-0.648C48.895,36.672,48.465,35.788,47.819,35.442z"/>
		<path class="st13" d="M33.222,41.292c-0.242-0.13-0.48-0.165-0.689-0.119c-0.349,0.076-0.616,0.377-0.688,0.843
			c-0.115,0.745,0.315,1.63,0.961,1.975c0.404,0.216,0.796,0.17,1.062-0.076c0.159-0.148,0.273-0.368,0.316-0.648
			C34.298,42.522,33.868,41.637,33.222,41.292z"/>
		<path class="st14" d="M34.475,43.684c0.159-0.148,0.273-0.368,0.316-0.648c0.115-0.745-0.315-1.63-0.961-1.975
			c-0.242-0.13-0.48-0.165-0.689-0.119l0.535-0.184c0.209-0.046,0.447-0.01,0.689,0.119c0.646,0.346,1.076,1.23,0.961,1.975
			c-0.043,0.279-0.157,0.5-0.316,0.648L34.475,43.684z"/>
		<g>
			<path class="st2" d="M33.975,40.827c-0.241-0.129-0.478-0.177-0.693-0.154l-0.008-0.022l-0.095,0.038c0,0-0.001,0-0.001,0
				c-0.1,0.022-0.195,0.06-0.282,0.113l-4.734,1.773l1.207,3.369l4.956-1.862c0.148-0.038,0.282-0.112,0.397-0.218
				c0.184-0.171,0.316-0.426,0.366-0.75C35.221,42.251,34.723,41.227,33.975,40.827z"/>
			<path class="st15" d="M28.882,42.753c-0.28-0.15-0.556-0.191-0.798-0.138c-0.403,0.088-0.714,0.437-0.797,0.976
				c-0.133,0.863,0.365,1.887,1.112,2.287c0.467,0.25,0.921,0.197,1.229-0.088c0.184-0.171,0.316-0.426,0.366-0.75
				C30.128,44.177,29.63,43.153,28.882,42.753z"/>
		</g>
	</g>
</g>
</svg>
