<?xml version="1.0" encoding="utf-8"?>
<!-- Generator: Adobe Illustrator 26.0.1, SVG Export Plug-In . SVG Version: 6.00 Build 0)  -->
<svg version="1.1" id="Layer_1" xmlns="http://www.w3.org/2000/svg" xmlns:xlink="http://www.w3.org/1999/xlink" x="0px" y="0px"
	 viewBox="0 0 50 50" style="enable-background:new 0 0 50 50;" xml:space="preserve">
<style type="text/css">
	.st0{fill:url(#SVGID_1_);}
	.st1{fill:#231F20;}
	.st2{fill:#478A2A;}
	.st3{fill:#C81D32;}
	.st4{fill:#E1DFDF;}
	.st5{fill:#FFFFFF;}
	.st6{fill:#BDBFC0;}
	.st7{fill:none;stroke:#C0C7CA;stroke-miterlimit:10;}
	.st8{fill:#BABCBE;}
	.st9{fill:#939597;}
	.st10{fill:#00AEEF;}
	.st11{fill:#00979C;}
	.st12{fill:#850A19;}
	.st13{fill:#97999C;}
	.st14{fill:#333437;}
	.st15{fill:#174919;}
</style>
<radialGradient id="SVGID_1_" cx="-61.8807" cy="636.661" r="15.8951" gradientTransform="matrix(-1.5353 0 0 0.569 -70.0054 -322.1091)" gradientUnits="userSpaceOnUse">
	<stop  offset="0.2598" style="stop-color:#B4BCC1"/>
	<stop  offset="0.4308" style="stop-color:#BCC3C8;stop-opacity:0.7486"/>
	<stop  offset="0.6967" style="stop-color:#D2D7DA;stop-opacity:0.3577"/>
	<stop  offset="0.94" style="stop-color:#ECEEEF;stop-opacity:0"/>
</radialGradient>
<ellipse class="st0" cx="25" cy="40.151" rx="24.402" ry="9.045"/>
<g>
	<g>
		<polygon class="st1" points="12.552,27.237 36.339,40.926 38.179,40.091 15.04,26.775 		"/>
		<polygon class="st1" points="45.209,44.137 43.369,44.971 46.911,47.01 49.399,46.549 		"/>
	</g>
	<g>
		<polygon class="st2" points="36.339,40.926 38.096,41.937 39.936,41.103 38.179,40.091 		"/>
		<polygon class="st2" points="41.694,42.114 39.854,42.949 41.611,43.96 43.451,43.125 		"/>
	</g>
	<g>
		<polygon class="st3" points="38.096,41.937 39.854,42.949 41.694,42.114 39.936,41.103 		"/>
		<polygon class="st3" points="43.451,43.125 41.611,43.96 43.369,44.971 45.209,44.137 		"/>
	</g>
	<g>
		<path class="st4" d="M26.308,32.539c0.018-0.34,0.12-0.984,0.238-1.61c0.119-0.627,0.652-1.346,0.652-1.346
			s-0.008-0.458,0.229-0.796s0.745-0.389,0.745-0.389s0.575-0.627,1.997-1.27s3.115-0.457,4.046-0.152s2.742,1.355,3.532,3.132
			s0.429,4.603,0,6.116s-1.286,2.528-1.67,2.799c-0.384,0.271-2.393,1.264-5.101,0.903s-4.604-2.302-4.807-2.845
			s-0.264-3.173-0.264-3.173C25.905,33.35,26.293,32.826,26.308,32.539z"/>
		<path class="st4" d="M26.308,32.567c0.018-0.34,0.12-0.984,0.238-1.61c0.119-0.627,0.652-1.346,0.652-1.346
			s-0.008-0.457,0.229-0.796c0.237-0.338,0.745-0.389,0.745-0.389s0.575-0.627,1.997-1.27s3.115-0.457,4.046-0.152
			s2.742,1.355,3.532,3.132c0.202,0.453,0.328,0.974,0.398,1.525c0.203,1.608-0.079,3.464-0.398,4.591
			c-0.429,1.513-1.286,2.528-1.67,2.799c-0.288,0.204-1.492,0.814-3.22,0.953c-0.574,0.046-1.206,0.04-1.881-0.05
			c-2.708-0.361-4.604-2.302-4.807-2.845s-0.264-3.173-0.264-3.173C25.905,33.378,26.293,32.854,26.308,32.567z"/>
		<g>
			<path class="st5" d="M27.169,31.945c0.943,0.541,2.127,0.934,3.446,1.117c0.54,0.074,1.103,0.114,1.681,0.114
				c1.375,0,2.662-0.224,3.765-0.613c0.741-0.262,1.398-0.598,1.943-0.992c-0.068-0.52-0.191-1.013-0.388-1.441
				c-0.771-1.679-2.539-2.67-3.448-2.958c-0.908-0.288-2.561-0.464-3.949,0.144c-1.388,0.607-1.95,1.199-1.95,1.199
				s-0.496,0.048-0.727,0.368c-0.231,0.32-0.223,0.752-0.223,0.752s-0.52,0.679-0.636,1.271c-0.043,0.219-0.083,0.439-0.118,0.647
				C26.754,31.691,26.956,31.822,27.169,31.945z"/>
		</g>
		<g>
			<path class="st6" d="M32.695,33.992c-0.399,0-0.79-0.021-1.171-0.06l1.672,6.071c1.61-0.129,2.731-0.698,2.999-0.887
				c0.357-0.252,1.156-1.198,1.555-2.606c0.286-1.009,0.539-2.645,0.39-4.1C36.847,33.377,34.888,33.993,32.695,33.992z"/>
		</g>
		<path class="st7" d="M35.332,36.683c-0.023-0.029-0.036-0.068-0.036-0.117l0,0"/>
		<g>
			<g>
				<g>
					<path class="st5" d="M33.171,38.429c0,0.385,0.352,0.697,0.786,0.697c0.434,0,0.786-0.312,0.786-0.697
						c0-0.282,0.111-1.089,0.111-1.469c0-0.495-0.402-0.897-0.897-0.897s-0.897,0.402-0.897,0.897
						C33.06,37.34,33.171,38.147,33.171,38.429z"/>
					<path class="st5" d="M37.567,36.092c-0.054,0.395,0.031,0.734,0.191,0.757s0.333-0.278,0.388-0.672
						c0.04-0.289,0.195-1.109,0.249-1.499c0.07-0.507-0.021-0.94-0.203-0.967c-0.182-0.027-0.387,0.363-0.457,0.87
						C37.682,34.97,37.608,35.803,37.567,36.092z"/>
					<g>
						<path class="st1" d="M37.634,36.832c0.023,0.004,0.046,0.001,0.069-0.006c-0.124-0.085-0.184-0.388-0.136-0.735
							c0.04-0.289,0.113-1.121,0.167-1.511c0.07-0.507,0.275-0.897,0.457-0.87c0.001,0,0.002,0.001,0.003,0.001
							c-0.033-0.041-0.072-0.068-0.115-0.074c-0.2-0.029-0.421,0.366-0.493,0.883c-0.055,0.397-0.127,1.245-0.168,1.539
							C37.363,36.461,37.46,36.807,37.634,36.832z"/>
					</g>
					<g>
						<path class="st1" d="M34.743,38.429c0,0.011-0.001,0.022-0.002,0.033c0.036-0.081,0.057-0.168,0.057-0.26
							c0-0.282,0.111-1.089,0.111-1.469c0-0.495-0.402-0.897-0.897-0.897c-0.464,0-0.845,0.352-0.892,0.803
							c0.129-0.337,0.455-0.576,0.837-0.576c0.495,0,0.897,0.402,0.897,0.897C34.854,37.34,34.743,38.147,34.743,38.429z"/>
					</g>
				</g>
				<g>
					
						<ellipse transform="matrix(0.9969 -0.0789 0.0789 0.9969 -2.8167 2.7949)" class="st1" cx="33.96" cy="37.042" rx="0.373" ry="0.31"/>
					<path class="st1" d="M33.589,38.254c0.041,0.154,0.229,0.238,0.421,0.187c0.191-0.051,0.314-0.217,0.273-0.371
						c-0.041-0.154-0.229-0.238-0.421-0.187S33.548,38.1,33.589,38.254z"/>
					<path class="st1" d="M38.051,35.037c0.088-0.016,0.173-0.168,0.188-0.338c0.016-0.17-0.043-0.295-0.132-0.279
						c-0.088,0.016-0.173,0.168-0.188,0.338C37.903,34.928,37.963,35.053,38.051,35.037z"/>
					<path class="st1" d="M37.772,35.939c-0.002,0.154,0.067,0.238,0.154,0.187c0.087-0.051,0.159-0.217,0.161-0.371
						c0.002-0.154-0.067-0.238-0.154-0.187C37.846,35.619,37.774,35.785,37.772,35.939z"/>
				</g>
			</g>
			<g>
				<g>
					<path class="st1" d="M35.339,36.665c-0.022-0.027-0.035-0.066-0.035-0.113l0,0c0-0.142,0.116-0.313,0.258-0.38l1.351-0.64
						c0.089-0.042,0.168-0.034,0.214,0.013c0.028,0.028,0.044,0.07,0.044,0.123l0,0c0,0.142-0.116,0.313-0.258,0.38l-1.351,0.64
						C35.468,36.733,35.385,36.721,35.339,36.665z"/>
					<path class="st5" d="M35.385,36.712c-0.022-0.027-0.035-0.066-0.035-0.113l0,0c0-0.142,0.116-0.313,0.258-0.38l1.351-0.64
						c0.089-0.042,0.168-0.034,0.214,0.013c0.028,0.028,0.044,0.07,0.044,0.123l0,0c0,0.142-0.116,0.313-0.258,0.38l-1.351,0.64
						C35.514,36.78,35.431,36.768,35.385,36.712z"/>
				</g>
				<g>
					<path class="st1" d="M35.282,37.649c-0.022-0.026-0.034-0.063-0.034-0.108l0,0c0-0.136,0.111-0.3,0.247-0.364l1.294-0.613
						c0.085-0.04,0.161-0.033,0.205,0.012c0.026,0.027,0.042,0.067,0.042,0.118l0,0c0,0.136-0.111,0.3-0.247,0.364l-1.294,0.613
						C35.405,37.713,35.325,37.702,35.282,37.649z"/>
					<path class="st5" d="M35.326,37.693c-0.022-0.026-0.034-0.063-0.034-0.108l0,0c0-0.136,0.111-0.3,0.247-0.364l1.294-0.613
						c0.085-0.04,0.161-0.033,0.205,0.012c0.026,0.027,0.042,0.067,0.042,0.118l0,0c0,0.136-0.111,0.3-0.247,0.364l-1.294,0.613
						C35.449,37.758,35.369,37.746,35.326,37.693z"/>
				</g>
			</g>
		</g>
		<g>
			<ellipse class="st8" cx="32.406" cy="30.673" rx="4.996" ry="2.006"/>
			<ellipse class="st9" cx="32.347" cy="29.72" rx="3.62" ry="1.605"/>
			<path class="st5" d="M35.967,29.72c0,0.887-1.621,1.605-3.62,1.605s-3.62-0.719-3.62-1.605v0.551c0,0.887,1.621,1.605,3.62,1.605
				s3.62-0.719,3.62-1.605V29.72z"/>
		</g>
		<g>
			<path class="st4" d="M29.948,27.783c-0.04-0.09-0.001-0.195,0.089-0.236c1.444-0.653,3.151-0.494,4.174-0.159
				c0.094,0.031,0.145,0.131,0.114,0.225c-0.031,0.094-0.132,0.145-0.225,0.114c-0.775-0.254-2.472-0.509-3.917,0.145
				c-0.023,0.011-0.048,0.016-0.073,0.016C30.042,27.888,29.977,27.849,29.948,27.783z"/>
		</g>
		<g>
			<polygon class="st10" points="38.115,32.258 37.848,32.52 37.848,32.952 38.115,32.757 			"/>
			<polygon class="st10" points="36.773,33.646 36.272,33.916 36.272,34.441 36.773,34.187 			"/>
			<polygon class="st10" points="34.276,34.543 33.608,34.602 33.608,35.161 34.276,35.068 			"/>
			<polygon class="st10" points="30.552,34.441 30.552,34.915 31.128,35.059 31.128,34.543 			"/>
		</g>
		<g>
			<path class="st1" d="M30.638,33.261c-1.344-0.192-2.584-0.608-3.586-1.202c-0.072-0.043-0.096-0.136-0.053-0.209
				c0.043-0.072,0.136-0.096,0.209-0.053c0.968,0.574,2.169,0.976,3.473,1.163c0.084,0.012,0.142,0.09,0.13,0.173
				c-0.011,0.076-0.076,0.131-0.151,0.131C30.653,33.264,30.645,33.264,30.638,33.261z"/>
		</g>
		<g>
			<path class="st1" d="M32.228,33.234c0-0.085,0.069-0.153,0.153-0.153c1.342,0,2.657-0.221,3.804-0.64
				c0.079-0.029,0.167,0.012,0.196,0.091s-0.012,0.167-0.091,0.196c-1.18,0.43-2.531,0.658-3.909,0.658
				C32.297,33.386,32.228,33.319,32.228,33.234z"/>
		</g>
		<g>
			
				<ellipse transform="matrix(0.9565 -0.2917 0.2917 0.9565 -8.6438 9.7093)" class="st5" cx="28.239" cy="33.842" rx="1.295" ry="1.906"/>
			<path class="st11" d="M27.124,33.806c0.009,0.054,0.02,0.109,0.03,0.163c0.043,0.221,0.114,0.427,0.209,0.623
				c0.036,0.075,0.077,0.142,0.119,0.21c0.049,0.079,0.104,0.148,0.16,0.214c0.054,0.063,0.111,0.117,0.17,0.166
				c0.034,0.028,0.069,0.056,0.104,0.08c0.047,0.032,0.095,0.059,0.143,0.083c0.083,0.042,0.167,0.068,0.251,0.082
				c0.039,0.007,0.077,0.01,0.115,0.009c0.004,0,0.009,0,0.014,0c0.14-0.001,0.269-0.041,0.388-0.12
				c0.177-0.117,0.31-0.301,0.399-0.553c0.012-0.036,0.023-0.073,0.021-0.117c-0.003-0.071-0.033-0.121-0.073-0.161
				c-0.038-0.039-0.08-0.066-0.12-0.098c-0.184-0.144-0.369-0.288-0.553-0.432c-0.005-0.004-0.011-0.008-0.017-0.012
				c-0.001-0.003-0.001-0.007-0.002-0.011c0.011-0.083-0.002-0.166-0.031-0.249c-0.101-0.288-0.358-0.372-0.471-0.154
				c-0.006,0.011-0.01,0.014-0.021,0.005c-0.184-0.144-0.367-0.288-0.551-0.432c-0.021-0.016-0.04-0.034-0.058-0.057
				c-0.009-0.019-0.018-0.038-0.02-0.061c0,0.001-0.001,0.002-0.001,0.003c0-0.001,0-0.002,0.001-0.003
				c0.003-0.061,0.029-0.101,0.051-0.143c0.09-0.169,0.211-0.273,0.364-0.309c0.162-0.038,0.327,0.001,0.494,0.108
				c0.06,0.039,0.117,0.088,0.172,0.145c0.028,0.03,0.055,0.065,0.082,0.098c0.05,0.069,0.095,0.144,0.134,0.225
				c0,0.001,0,0.003,0.001,0.004c0.003,0.006,0.005,0.012,0.008,0.018c0.026,0.066,0.053,0.132,0.07,0.203
				c0.018,0.073,0.034,0.148,0.038,0.222c0.005,0.091,0.036,0.165,0.085,0.228c0.09,0.115,0.192,0.182,0.299,0.228
				c0.05,0.022,0.1,0.037,0.149,0.027c0.016-0.003,0.031-0.01,0.041-0.029c0.005-0.011,0.007-0.024,0.006-0.038
				c-0.04-0.446-0.169-0.85-0.406-1.196c-0.206-0.301-0.445-0.483-0.711-0.56c-0.098-0.029-0.194-0.035-0.289-0.024
				c-0.202,0.023-0.375,0.122-0.519,0.299c-0.084,0.103-0.151,0.228-0.201,0.374c-0.012,0.033-0.021,0.069-0.019,0.111
				c0.002,0.038,0.01,0.072,0.03,0.102c0,0.001,0,0.003,0.001,0.004c0.002,0.007,0.007,0.012,0.011,0.017
				c0.02,0.031,0.045,0.052,0.07,0.072c0.205,0.16,0.411,0.32,0.616,0.48c0.008,0.007,0.02,0.007,0.026,0.023
				c-0.002,0.007-0.006,0.013-0.004,0.022c-0.011,0.098,0.007,0.195,0.048,0.289c0.109,0.247,0.333,0.314,0.447,0.134
				c0.006-0.01,0.015-0.018,0.017-0.033c0.006-0.016,0.014-0.015,0.026-0.003c0.008,0.008,0.017,0.019,0.027,0.016
				c0.003,0.009,0.008,0.014,0.014,0.019c0.148,0.116,0.296,0.232,0.444,0.347c0.033,0.025,0.067,0.047,0.098,0.077
				c0.021,0.02,0.04,0.044,0.049,0.079c0.005,0.018,0.001,0.034-0.003,0.049c-0.017,0.059-0.044,0.108-0.072,0.155
				c-0.095,0.155-0.218,0.245-0.369,0.27c-0.212,0.035-0.419-0.044-0.618-0.242c-0.139-0.138-0.243-0.318-0.307-0.542
				c-0.024-0.087-0.04-0.175-0.047-0.264c-0.006-0.08-0.035-0.143-0.077-0.2c-0.061-0.084-0.133-0.141-0.207-0.187
				c-0.063-0.038-0.126-0.067-0.19-0.077c-0.026-0.004-0.052-0.005-0.075,0.007c-0.025,0.012-0.029,0.033-0.026,0.073
				C27.112,33.71,27.116,33.758,27.124,33.806z"/>
		</g>
		<g>
			<path class="st1" d="M27.436,39.153c0.193,0.083,0.387,0.125,0.575,0.125c0.187,0,0.367-0.041,0.531-0.123
				c0.402-0.202,0.67-0.629,0.734-1.171c0.118-0.999-0.486-2.115-1.346-2.487c-0.225-0.097-0.453-0.137-0.669-0.121
				c-0.153,0.012-0.3,0.052-0.436,0.12c-0.402,0.202-0.67,0.628-0.734,1.171C25.973,37.666,26.577,38.782,27.436,39.153z"/>
			<g>
				<g>
					<path class="st1" d="M27.194,39.164c-0.724-0.348-1.231-1.39-1.132-2.324c0.054-0.507,0.279-0.906,0.617-1.094
						c0.115-0.064,0.239-0.101,0.367-0.112c0.182-0.016,0.374,0.022,0.563,0.113c0.723,0.348,1.23,1.39,1.131,2.324
						c-0.054,0.507-0.279,0.906-0.617,1.094c-0.138,0.077-0.289,0.115-0.446,0.115C27.519,39.28,27.356,39.241,27.194,39.164z
						 M27.046,35.634c0.182-0.016,0.374,0.022,0.563,0.113c0.723,0.348,1.23,1.39,1.131,2.324c-0.054,0.507-0.279,0.906-0.617,1.094
						c-0.138,0.077-0.289,0.115-0.446,0.115 M26.754,35.877c-0.295,0.164-0.491,0.52-0.54,0.977
						c-0.093,0.874,0.376,1.848,1.046,2.17c0.277,0.133,0.557,0.135,0.789,0.006c0.295-0.164,0.491-0.52,0.54-0.977
						c0.093-0.874-0.376-1.848-1.046-2.17c-0.14-0.067-0.282-0.101-0.417-0.101C26.994,35.782,26.868,35.814,26.754,35.877z"/>
				</g>
				
					<ellipse transform="matrix(0.9565 -0.2917 0.2917 0.9565 -9.7337 9.6223)" class="st5" cx="27.403" cy="37.454" rx="1.216" ry="1.79"/>
				<path class="st1" d="M26.416,37.414c0.078,0.575,0.411,1.121,0.849,1.332c0.106,0.051,0.211,0.079,0.311,0.085l-0.311-0.928
					c0.059-0.009,0.107-0.058,0.127-0.134l0.671,0.893c0.175-0.153,0.299-0.405,0.333-0.729c0.038-0.357-0.039-0.734-0.195-1.055
					l-0.817,0.698c-0.022-0.076-0.066-0.143-0.122-0.183l0.712-0.875c-0.126-0.154-0.273-0.277-0.435-0.355
					c-0.494-0.237-0.953,0.032-1.096,0.606l0.614,0.633c-0.028,0.031-0.048,0.076-0.054,0.133c-0.001,0.007-0.001,0.013-0.001,0.02
					L26.416,37.414z"/>
			</g>
		</g>
		<polygon class="st5" points="33.442,29.445 32.253,29.84 31.128,29.261 32.253,28.925 		"/>
	</g>
	<g>
		<path class="st12" d="M7.893,32.175c-0.11-0.14-0.173-0.333-0.171-0.564c0.004-0.616,0.466-1.273,1.032-1.468
			c0.213-0.073,0.409-0.071,0.572-0.007l0.408,0.218c-0.163-0.064-0.36-0.066-0.572,0.007c-0.566,0.195-1.028,0.852-1.032,1.468
			c-0.001,0.231,0.062,0.424,0.171,0.564L7.893,32.175z"/>
		<path class="st5" d="M7.966,31.983c-0.002,0.283,0.075,0.519,0.209,0.69c0.083,0.107,0.187,0.188,0.308,0.241l13.369,8.028
			l1.493-2.706l-13.192-7.921c-0.067-0.057-0.142-0.103-0.225-0.135H9.927l-0.076-0.046l-0.01,0.018
			c-0.181-0.049-0.39-0.041-0.613,0.036C8.535,30.427,7.97,31.231,7.966,31.983z"/>
		<path class="st13" d="M21.442,40.087c-0.002,0.283,0.075,0.519,0.209,0.69c0.223,0.285,0.603,0.393,1.036,0.244
			c0.692-0.238,1.258-1.043,1.263-1.797c0.003-0.471-0.213-0.811-0.545-0.942c-0.2-0.078-0.44-0.081-0.7,0.008
			C22.013,38.528,21.447,39.333,21.442,40.087z"/>
		<path class="st14" d="M20.588,40.185c-0.134-0.172-0.211-0.407-0.209-0.69c0.005-0.754,0.57-1.559,1.263-1.797
			c0.26-0.089,0.501-0.086,0.7-0.008l0.499,0.267c-0.2-0.078-0.44-0.081-0.7,0.008c-0.692,0.238-1.258,1.043-1.263,1.797
			c-0.002,0.283,0.075,0.519,0.209,0.69L20.588,40.185z"/>
		<g>
			<path class="st3" d="M20.572,39.791c-0.002,0.328,0.087,0.601,0.242,0.799c0.096,0.122,0.217,0.217,0.357,0.278l4.596,2.628
				l1.729-3.133l-4.391-2.505c-0.077-0.067-0.164-0.119-0.26-0.157h-0.001l-0.088-0.053l-0.011,0.021
				c-0.209-0.056-0.451-0.047-0.709,0.042C21.234,37.987,20.58,38.918,20.572,39.791z"/>
			<path class="st12" d="M25.294,42.505c-0.002,0.328,0.087,0.601,0.242,0.799c0.258,0.331,0.698,0.455,1.199,0.283
				c0.802-0.276,1.457-1.207,1.463-2.08c0.004-0.546-0.247-0.94-0.631-1.091c-0.231-0.091-0.509-0.094-0.81,0.009
				C25.955,40.701,25.301,41.632,25.294,42.505z"/>
		</g>
	</g>
	<g>
		<path class="st15" d="M1.18,37.617c-0.13-0.121-0.223-0.301-0.258-0.529c-0.094-0.609,0.257-1.332,0.785-1.614
			c0.198-0.106,0.392-0.135,0.563-0.098l0.437,0.15c-0.171-0.037-0.365-0.008-0.563,0.098c-0.528,0.282-0.879,1.005-0.785,1.614
			c0.035,0.228,0.128,0.408,0.258,0.529L1.18,37.617z"/>
		<path class="st5" d="M1.22,37.417c0.043,0.28,0.157,0.5,0.316,0.648c0.099,0.091,0.215,0.155,0.343,0.188l14.478,5.794l1.043-2.91
			L3.113,35.421c-0.075-0.046-0.156-0.079-0.243-0.098H2.869L2.787,35.29L2.78,35.309c-0.186-0.02-0.391,0.022-0.599,0.133
			C1.535,35.788,1.105,36.672,1.22,37.417z"/>
		<path class="st13" d="M15.816,43.267c0.043,0.28,0.157,0.5,0.316,0.648c0.266,0.246,0.658,0.292,1.062,0.076
			c0.646-0.345,1.076-1.23,0.961-1.975c-0.072-0.466-0.339-0.767-0.688-0.843c-0.209-0.046-0.447-0.011-0.689,0.119
			C16.132,41.637,15.702,42.522,15.816,43.267z"/>
		<path class="st14" d="M14.99,43.5c-0.159-0.148-0.273-0.369-0.316-0.648c-0.115-0.745,0.315-1.629,0.961-1.975
			c0.242-0.129,0.48-0.165,0.689-0.119l0.535,0.184c-0.209-0.046-0.447-0.011-0.689,0.119c-0.646,0.345-1.076,1.23-0.961,1.975
			c0.043,0.28,0.157,0.5,0.316,0.648L14.99,43.5z"/>
		<g>
			<path class="st2" d="M14.912,43.114c0.05,0.324,0.182,0.579,0.366,0.75c0.115,0.106,0.249,0.18,0.397,0.218l4.956,1.862
				l1.207-3.369l-4.734-1.773c-0.087-0.053-0.182-0.091-0.282-0.113h-0.001l-0.095-0.038l-0.008,0.022
				c-0.215-0.023-0.452,0.025-0.693,0.154C15.277,41.227,14.779,42.251,14.912,43.114z"/>
			<path class="st15" d="M20.006,45.04c0.05,0.324,0.182,0.579,0.366,0.75c0.308,0.285,0.762,0.338,1.229,0.088
				c0.747-0.4,1.245-1.424,1.112-2.287c-0.083-0.539-0.394-0.888-0.797-0.976c-0.242-0.053-0.518-0.012-0.798,0.138
				C20.37,43.153,19.872,44.177,20.006,45.04z"/>
		</g>
	</g>
</g>
</svg>
