<?xml version="1.0" encoding="utf-8"?>
<!-- Generator: Adobe Illustrator 25.4.1, SVG Export Plug-In . SVG Version: 6.00 Build 0)  -->
<svg version="1.1" id="Layer_1" xmlns="http://www.w3.org/2000/svg" xmlns:xlink="http://www.w3.org/1999/xlink" x="0px" y="0px"
	 viewBox="0 0 50 50" style="enable-background:new 0 0 50 50;" xml:space="preserve">
<style type="text/css">
	.st0{opacity:0.05;}
	.st1{fill:#231F20;}
	.st2{fill:#1A1A1A;}
	.st3{fill:#4D4D4D;}
	.st4{fill:#FFFFFF;}
	.st5{fill:#DFDFDF;}
</style>
<g>
	<path class="st0" d="M37.578,37.573c-1.187-0.331-18.276-8.001-18.979-8.001s-7.791,4.409-7.969,4.51c0,0-0.714,0.302-0.271,0.746
		c0.444,0.444,15.271,8.949,16.23,9.411c0.959,0.462,1.622,0.426,2.693,0s8.783-5.023,9.31-5.551
		C39.121,38.161,38.765,37.904,37.578,37.573z"/>
	<g>
		<path class="st0" d="M37.66,37.25l-15.319-8.844c-0.629-0.363-1.581-0.403-2.125-0.088l-8.983,5.187
			c-0.545,0.315-0.476,0.864,0.153,1.227l15.319,8.844c0.629,0.363,1.581,0.403,2.125,0.088l8.983-5.187
			C38.358,38.163,38.289,37.613,37.66,37.25z"/>
		<path class="st0" d="M37.66,37.247l-15.319-8.844c-0.629-0.363-1.581-0.403-2.125-0.088l-8.983,5.187
			c-0.545,0.315-0.476,0.864,0.153,1.227l15.319,8.844c0.629,0.363,1.581,0.403,2.125,0.088l8.983-5.187
			C38.358,38.16,38.289,37.61,37.66,37.247z"/>
		<path class="st0" d="M37.66,37.244L22.342,28.4c-0.629-0.363-1.581-0.403-2.125-0.088l-8.983,5.187
			c-0.545,0.315-0.476,0.864,0.153,1.227l15.319,8.844c0.629,0.363,1.581,0.403,2.125,0.088l8.983-5.187
			C38.358,38.157,38.289,37.607,37.66,37.244z"/>
		<path class="st0" d="M37.66,37.241l-15.319-8.844c-0.629-0.363-1.581-0.403-2.125-0.088l-8.983,5.187
			c-0.545,0.315-0.476,0.864,0.153,1.227l15.319,8.844c0.629,0.363,1.581,0.403,2.125,0.088l8.983-5.187
			C38.358,38.154,38.289,37.604,37.66,37.241z"/>
		<path class="st0" d="M37.66,37.238l-15.319-8.844c-0.629-0.363-1.581-0.403-2.125-0.088l-8.983,5.187
			c-0.545,0.315-0.476,0.864,0.153,1.227l15.319,8.844c0.629,0.363,1.581,0.403,2.125,0.088l8.983-5.187
			C38.358,38.151,38.289,37.601,37.66,37.238z"/>
		<path class="st0" d="M37.66,37.235l-15.319-8.844c-0.629-0.363-1.581-0.403-2.125-0.088l-8.983,5.187
			c-0.545,0.315-0.476,0.864,0.153,1.227l15.319,8.844c0.629,0.363,1.581,0.403,2.125,0.088l8.983-5.187
			C38.358,38.148,38.289,37.598,37.66,37.235z"/>
		<path class="st0" d="M37.66,37.232l-15.319-8.844c-0.629-0.363-1.581-0.403-2.125-0.088l-8.983,5.187
			c-0.545,0.315-0.476,0.864,0.153,1.227l15.319,8.844c0.629,0.363,1.581,0.403,2.125,0.088l8.983-5.187
			C38.358,38.145,38.289,37.595,37.66,37.232z"/>
		<path class="st0" d="M37.66,37.229l-15.319-8.844c-0.629-0.363-1.581-0.403-2.125-0.088l-8.983,5.187
			c-0.545,0.315-0.476,0.864,0.153,1.227l15.319,8.844c0.629,0.363,1.581,0.403,2.125,0.088l8.983-5.187
			C38.358,38.142,38.289,37.592,37.66,37.229z"/>
		<path class="st0" d="M37.66,37.226l-15.319-8.844c-0.629-0.363-1.581-0.403-2.125-0.088l-8.983,5.187
			c-0.545,0.315-0.476,0.864,0.153,1.227l15.319,8.844c0.629,0.363,1.581,0.403,2.125,0.088l8.983-5.187
			C38.358,38.139,38.289,37.589,37.66,37.226z"/>
		<path class="st0" d="M37.66,37.223l-15.319-8.844c-0.629-0.363-1.581-0.403-2.125-0.088l-8.983,5.187
			c-0.545,0.315-0.476,0.864,0.153,1.227l15.319,8.844c0.629,0.363,1.581,0.403,2.125,0.088l8.983-5.187
			C38.358,38.136,38.289,37.586,37.66,37.223z"/>
		<path class="st0" d="M37.66,37.22l-15.319-8.844c-0.629-0.363-1.581-0.403-2.125-0.088l-8.983,5.187
			c-0.545,0.315-0.476,0.864,0.153,1.227l15.319,8.844c0.629,0.363,1.581,0.403,2.125,0.088l8.983-5.187
			C38.358,38.133,38.289,37.583,37.66,37.22z"/>
		<path class="st0" d="M37.66,37.217l-15.319-8.844c-0.629-0.363-1.581-0.403-2.125-0.088l-8.983,5.187
			c-0.545,0.315-0.476,0.864,0.153,1.227l15.319,8.844c0.629,0.363,1.581,0.403,2.125,0.088l8.983-5.187
			C38.358,38.13,38.289,37.58,37.66,37.217z"/>
		<path class="st0" d="M37.66,37.214L22.342,28.37c-0.629-0.363-1.581-0.403-2.125-0.088l-8.983,5.187
			c-0.545,0.315-0.476,0.864,0.153,1.227l15.319,8.844c0.629,0.363,1.581,0.403,2.125,0.088l8.983-5.187
			C38.358,38.127,38.289,37.577,37.66,37.214z"/>
		<path class="st0" d="M37.66,37.211l-15.319-8.844c-0.629-0.363-1.581-0.403-2.125-0.088l-8.983,5.187
			c-0.545,0.315-0.476,0.864,0.153,1.227l15.319,8.844c0.629,0.363,1.581,0.403,2.125,0.088l8.983-5.187
			C38.358,38.124,38.289,37.574,37.66,37.211z"/>
		<path class="st0" d="M37.66,37.208l-15.319-8.844c-0.629-0.363-1.581-0.403-2.125-0.088l-8.983,5.187
			c-0.545,0.315-0.476,0.864,0.153,1.227l15.319,8.844c0.629,0.363,1.581,0.403,2.125,0.088l8.983-5.187
			C38.358,38.121,38.289,37.571,37.66,37.208z"/>
		<path class="st0" d="M37.66,37.205l-15.319-8.844c-0.629-0.363-1.581-0.403-2.125-0.088l-8.983,5.187
			c-0.545,0.315-0.476,0.864,0.153,1.227l15.319,8.844c0.629,0.363,1.581,0.403,2.125,0.088l8.983-5.187
			C38.358,38.118,38.289,37.568,37.66,37.205z"/>
		<path class="st0" d="M37.66,37.202l-15.319-8.844c-0.629-0.363-1.581-0.403-2.125-0.088l-8.983,5.187
			c-0.545,0.315-0.476,0.864,0.153,1.227l15.319,8.844c0.629,0.363,1.581,0.403,2.125,0.088l8.983-5.187
			C38.358,38.115,38.289,37.565,37.66,37.202z"/>
		<path class="st0" d="M37.66,37.199l-15.319-8.844c-0.629-0.363-1.581-0.403-2.125-0.088l-8.983,5.187
			c-0.545,0.315-0.476,0.864,0.153,1.227l15.319,8.844c0.629,0.363,1.581,0.403,2.125,0.088l8.983-5.187
			C38.358,38.112,38.289,37.562,37.66,37.199z"/>
		<path class="st0" d="M37.66,37.196l-15.319-8.844c-0.629-0.363-1.581-0.403-2.125-0.088l-8.983,5.187
			c-0.545,0.315-0.476,0.864,0.153,1.227l15.319,8.844c0.629,0.363,1.581,0.403,2.125,0.088l8.983-5.187
			C38.358,38.109,38.289,37.559,37.66,37.196z"/>
		<path class="st0" d="M37.66,37.193l-15.319-8.844c-0.629-0.363-1.581-0.403-2.125-0.088l-8.983,5.187
			c-0.545,0.315-0.476,0.864,0.153,1.227l15.319,8.844c0.629,0.363,1.581,0.403,2.125,0.088l8.983-5.187
			C38.358,38.106,38.289,37.556,37.66,37.193z"/>
		<path class="st0" d="M37.66,37.19l-15.319-8.844c-0.629-0.363-1.581-0.403-2.125-0.088l-8.983,5.187
			c-0.545,0.315-0.476,0.864,0.153,1.227l15.319,8.844c0.629,0.363,1.581,0.403,2.125,0.088l8.983-5.187
			C38.358,38.103,38.289,37.553,37.66,37.19z"/>
		<path class="st0" d="M37.66,37.187l-15.319-8.844c-0.629-0.363-1.581-0.403-2.125-0.088l-8.983,5.187
			c-0.545,0.315-0.476,0.864,0.153,1.227l15.319,8.844c0.629,0.363,1.581,0.403,2.125,0.088l8.983-5.187
			C38.358,38.1,38.289,37.55,37.66,37.187z"/>
		<path class="st0" d="M37.66,37.184L22.342,28.34c-0.629-0.363-1.581-0.403-2.125-0.088l-8.983,5.187
			c-0.545,0.315-0.476,0.864,0.153,1.227l15.319,8.844c0.629,0.363,1.581,0.403,2.125,0.088l8.983-5.187
			C38.358,38.097,38.289,37.547,37.66,37.184z"/>
		<path class="st0" d="M37.66,37.181l-15.319-8.844c-0.629-0.363-1.581-0.403-2.125-0.088l-8.983,5.187
			c-0.545,0.315-0.476,0.864,0.153,1.227l15.319,8.844c0.629,0.363,1.581,0.403,2.125,0.088l8.983-5.187
			C38.358,38.094,38.289,37.544,37.66,37.181z"/>
		<path class="st0" d="M37.66,37.178l-15.319-8.844c-0.629-0.363-1.581-0.403-2.125-0.088l-8.983,5.187
			c-0.545,0.315-0.476,0.864,0.153,1.227l15.319,8.844c0.629,0.363,1.581,0.403,2.125,0.088l8.983-5.187
			C38.358,38.091,38.289,37.541,37.66,37.178z"/>
		<path class="st0" d="M37.66,37.175l-15.319-8.844c-0.629-0.363-1.581-0.403-2.125-0.088l-8.983,5.187
			c-0.545,0.315-0.476,0.864,0.153,1.227l15.319,8.844c0.629,0.363,1.581,0.403,2.125,0.088l8.983-5.187
			C38.358,38.088,38.289,37.538,37.66,37.175z"/>
		<path class="st0" d="M37.66,37.172l-15.319-8.844c-0.629-0.363-1.581-0.403-2.125-0.088l-8.983,5.187
			c-0.545,0.315-0.476,0.864,0.153,1.227l15.319,8.844c0.629,0.363,1.581,0.403,2.125,0.088l8.983-5.187
			C38.358,38.085,38.289,37.535,37.66,37.172z"/>
		<path class="st0" d="M37.66,37.169l-15.319-8.844c-0.629-0.363-1.581-0.403-2.125-0.088l-8.983,5.187
			c-0.545,0.315-0.476,0.864,0.153,1.227l15.319,8.844c0.629,0.363,1.581,0.403,2.125,0.088l8.983-5.187
			C38.358,38.082,38.289,37.532,37.66,37.169z"/>
		<path class="st0" d="M37.66,37.166l-15.319-8.844c-0.629-0.363-1.581-0.403-2.125-0.088l-8.983,5.187
			c-0.545,0.315-0.476,0.864,0.153,1.227l15.319,8.844c0.629,0.363,1.581,0.403,2.125,0.088l8.983-5.187
			C38.358,38.079,38.289,37.529,37.66,37.166z"/>
		<path class="st0" d="M37.66,37.163l-15.319-8.844c-0.629-0.363-1.581-0.403-2.125-0.088l-8.983,5.187
			c-0.545,0.315-0.476,0.864,0.153,1.227l15.319,8.844c0.629,0.363,1.581,0.403,2.125,0.088l8.983-5.187
			C38.358,38.076,38.289,37.526,37.66,37.163z"/>
		<path class="st0" d="M37.66,37.16l-15.319-8.844c-0.629-0.363-1.581-0.403-2.125-0.088l-8.983,5.187
			c-0.545,0.315-0.476,0.864,0.153,1.227l15.319,8.844c0.629,0.363,1.581,0.403,2.125,0.088l8.983-5.187
			C38.358,38.073,38.289,37.523,37.66,37.16z"/>
		<path class="st0" d="M37.66,37.157l-15.319-8.844c-0.629-0.363-1.581-0.403-2.125-0.088l-8.983,5.187
			c-0.545,0.315-0.476,0.864,0.153,1.227l15.319,8.844c0.629,0.363,1.581,0.403,2.125,0.088l8.983-5.187
			C38.358,38.07,38.289,37.52,37.66,37.157z"/>
		<path class="st0" d="M37.66,37.154L22.342,28.31c-0.629-0.363-1.581-0.403-2.125-0.088l-8.983,5.187
			c-0.545,0.315-0.476,0.864,0.153,1.227l15.319,8.844c0.629,0.363,1.581,0.403,2.125,0.088l8.983-5.187
			C38.358,38.067,38.289,37.517,37.66,37.154z"/>
		<path class="st0" d="M37.66,37.151l-15.319-8.844c-0.629-0.363-1.581-0.403-2.125-0.088l-8.983,5.187
			c-0.545,0.315-0.476,0.864,0.153,1.227l15.319,8.844c0.629,0.363,1.581,0.403,2.125,0.088l8.983-5.187
			C38.358,38.064,38.289,37.514,37.66,37.151z"/>
		<path class="st0" d="M37.66,37.148l-15.319-8.844c-0.629-0.363-1.581-0.403-2.125-0.088l-8.983,5.187
			c-0.545,0.315-0.476,0.864,0.153,1.227l15.319,8.844c0.629,0.363,1.581,0.403,2.125,0.088l8.983-5.187
			C38.358,38.061,38.289,37.511,37.66,37.148z"/>
		<path class="st0" d="M37.66,37.145l-15.319-8.844c-0.629-0.363-1.581-0.403-2.125-0.088l-8.983,5.187
			c-0.545,0.315-0.476,0.864,0.153,1.227l15.319,8.844c0.629,0.363,1.581,0.403,2.125,0.088l8.983-5.187
			C38.358,38.058,38.289,37.508,37.66,37.145z"/>
		<path class="st0" d="M37.66,37.142l-15.319-8.844c-0.629-0.363-1.581-0.403-2.125-0.088l-8.983,5.187
			c-0.545,0.315-0.476,0.864,0.153,1.227l15.319,8.844c0.629,0.363,1.581,0.403,2.125,0.088l8.983-5.187
			C38.358,38.055,38.289,37.505,37.66,37.142z"/>
		<path class="st0" d="M37.66,37.139l-15.319-8.844c-0.629-0.363-1.581-0.403-2.125-0.088l-8.983,5.187
			c-0.545,0.315-0.476,0.864,0.153,1.227l15.319,8.844c0.629,0.363,1.581,0.403,2.125,0.088l8.983-5.187
			C38.358,38.052,38.289,37.502,37.66,37.139z"/>
		<path class="st0" d="M37.66,37.136l-15.319-8.844c-0.629-0.363-1.581-0.403-2.125-0.088l-8.983,5.187
			c-0.545,0.315-0.476,0.864,0.153,1.227l15.319,8.844c0.629,0.363,1.581,0.403,2.125,0.088l8.983-5.187
			C38.358,38.049,38.289,37.499,37.66,37.136z"/>
		<path class="st0" d="M37.66,37.133l-15.319-8.844c-0.629-0.363-1.581-0.403-2.125-0.088l-8.983,5.187
			c-0.545,0.315-0.476,0.864,0.153,1.227l15.319,8.844c0.629,0.363,1.581,0.403,2.125,0.088l8.983-5.187
			C38.358,38.046,38.289,37.496,37.66,37.133z"/>
		<path class="st0" d="M37.66,37.13l-15.319-8.844c-0.629-0.363-1.581-0.403-2.125-0.088l-8.983,5.187
			c-0.545,0.315-0.476,0.864,0.153,1.227l15.319,8.844c0.629,0.363,1.581,0.403,2.125,0.088l8.983-5.187
			C38.358,38.043,38.289,37.493,37.66,37.13z"/>
		<path class="st0" d="M37.66,37.127l-15.319-8.844c-0.629-0.363-1.581-0.403-2.125-0.088l-8.983,5.187
			c-0.545,0.315-0.476,0.864,0.153,1.227l15.319,8.844c0.629,0.363,1.581,0.403,2.125,0.088l8.983-5.187
			C38.358,38.04,38.289,37.49,37.66,37.127z"/>
		<path class="st0" d="M37.66,37.124L22.342,28.28c-0.629-0.363-1.581-0.403-2.125-0.088l-8.983,5.187
			c-0.545,0.315-0.476,0.864,0.153,1.227l15.319,8.844c0.629,0.363,1.581,0.403,2.125,0.088l8.983-5.187
			C38.358,38.036,38.289,37.487,37.66,37.124z"/>
		<path class="st0" d="M37.66,37.121l-15.319-8.844c-0.629-0.363-1.581-0.403-2.125-0.088l-8.983,5.187
			c-0.545,0.315-0.476,0.864,0.153,1.227l15.319,8.844c0.629,0.363,1.581,0.403,2.125,0.088l8.983-5.187
			C38.358,38.033,38.289,37.484,37.66,37.121z"/>
		<path class="st0" d="M37.66,37.118l-15.319-8.844c-0.629-0.363-1.581-0.403-2.125-0.088l-8.983,5.187
			c-0.545,0.315-0.476,0.864,0.153,1.227l15.319,8.844c0.629,0.363,1.581,0.403,2.125,0.088l8.983-5.187
			C38.358,38.03,38.289,37.481,37.66,37.118z"/>
		<path class="st0" d="M37.66,37.115l-15.319-8.844c-0.629-0.363-1.581-0.403-2.125-0.088l-8.983,5.187
			c-0.545,0.315-0.476,0.864,0.153,1.227l15.319,8.844c0.629,0.363,1.581,0.403,2.125,0.088l8.983-5.187
			C38.358,38.027,38.289,37.478,37.66,37.115z"/>
		<path class="st0" d="M37.66,37.112l-15.319-8.844c-0.629-0.363-1.581-0.403-2.125-0.088l-8.983,5.187
			c-0.545,0.315-0.476,0.864,0.153,1.227l15.319,8.844c0.629,0.363,1.581,0.403,2.125,0.088l8.983-5.187
			C38.358,38.024,38.289,37.475,37.66,37.112z"/>
		<path class="st0" d="M37.66,37.109l-15.319-8.844c-0.629-0.363-1.581-0.403-2.125-0.088l-8.983,5.187
			c-0.545,0.315-0.476,0.864,0.153,1.227l15.319,8.844c0.629,0.363,1.581,0.403,2.125,0.088l8.983-5.187
			C38.358,38.021,38.289,37.472,37.66,37.109z"/>
		<path class="st0" d="M37.66,37.106l-15.319-8.844c-0.629-0.363-1.581-0.403-2.125-0.088l-8.983,5.187
			c-0.545,0.315-0.476,0.864,0.153,1.227l15.319,8.844c0.629,0.363,1.581,0.403,2.125,0.088l8.983-5.187
			C38.358,38.018,38.289,37.469,37.66,37.106z"/>
		<path class="st0" d="M37.66,37.103l-15.319-8.844c-0.629-0.363-1.581-0.403-2.125-0.088l-8.983,5.187
			c-0.545,0.315-0.476,0.864,0.153,1.227l15.319,8.844c0.629,0.363,1.581,0.403,2.125,0.088l8.983-5.187
			C38.358,38.015,38.289,37.466,37.66,37.103z"/>
		<path class="st0" d="M37.66,37.1l-15.319-8.844c-0.629-0.363-1.581-0.403-2.125-0.088l-8.983,5.187
			c-0.545,0.315-0.476,0.864,0.153,1.227l15.319,8.844c0.629,0.363,1.581,0.403,2.125,0.088l8.983-5.187
			C38.358,38.012,38.289,37.463,37.66,37.1z"/>
		<path class="st0" d="M37.66,37.097l-15.319-8.844c-0.629-0.363-1.581-0.403-2.125-0.088l-8.983,5.187
			c-0.545,0.315-0.476,0.864,0.153,1.227l15.319,8.844c0.629,0.363,1.581,0.403,2.125,0.088l8.983-5.187
			C38.358,38.009,38.289,37.46,37.66,37.097z"/>
		<path class="st0" d="M37.66,37.094L22.342,28.25c-0.629-0.363-1.581-0.403-2.125-0.088l-8.983,5.187
			c-0.545,0.315-0.476,0.864,0.153,1.227l15.319,8.844c0.629,0.363,1.581,0.403,2.125,0.088l8.983-5.187
			C38.358,38.006,38.289,37.457,37.66,37.094z"/>
		<path class="st0" d="M37.66,37.091l-15.319-8.844c-0.629-0.363-1.581-0.403-2.125-0.088l-8.983,5.187
			c-0.545,0.315-0.476,0.864,0.153,1.227l15.319,8.844c0.629,0.363,1.581,0.403,2.125,0.088l8.983-5.187
			C38.358,38.003,38.289,37.454,37.66,37.091z"/>
		<path class="st0" d="M37.66,37.088l-15.319-8.844c-0.629-0.363-1.581-0.403-2.125-0.088l-8.983,5.187
			c-0.545,0.315-0.476,0.864,0.153,1.227l15.319,8.844c0.629,0.363,1.581,0.403,2.125,0.088l8.983-5.187
			C38.358,38,38.289,37.451,37.66,37.088z"/>
		<path class="st0" d="M37.66,37.085l-15.319-8.844c-0.629-0.363-1.581-0.403-2.125-0.088l-8.983,5.187
			c-0.545,0.315-0.476,0.864,0.153,1.227l15.319,8.844c0.629,0.363,1.581,0.403,2.125,0.088l8.983-5.187
			C38.358,37.997,38.289,37.448,37.66,37.085z"/>
		<path class="st0" d="M37.66,37.082l-15.319-8.844c-0.629-0.363-1.581-0.403-2.125-0.088l-8.983,5.187
			c-0.545,0.315-0.476,0.864,0.153,1.227l15.319,8.844c0.629,0.363,1.581,0.403,2.125,0.088l8.983-5.187
			C38.358,37.994,38.289,37.445,37.66,37.082z"/>
		<path class="st0" d="M37.66,37.079l-15.319-8.844c-0.629-0.363-1.581-0.403-2.125-0.088l-8.983,5.187
			c-0.545,0.315-0.476,0.864,0.153,1.227l15.319,8.844c0.629,0.363,1.581,0.403,2.125,0.088l8.983-5.187
			C38.358,37.991,38.289,37.442,37.66,37.079z"/>
		<path class="st0" d="M37.66,37.076l-15.319-8.844c-0.629-0.363-1.581-0.403-2.125-0.088l-8.983,5.187
			c-0.545,0.315-0.476,0.864,0.153,1.227l15.319,8.844c0.629,0.363,1.581,0.403,2.125,0.088l8.983-5.187
			C38.358,37.988,38.289,37.439,37.66,37.076z"/>
		<path class="st0" d="M37.66,37.073l-15.319-8.844c-0.629-0.363-1.581-0.403-2.125-0.088l-8.983,5.187
			c-0.545,0.315-0.476,0.864,0.153,1.227l15.319,8.844c0.629,0.363,1.581,0.403,2.125,0.088l8.983-5.187
			C38.358,37.985,38.289,37.436,37.66,37.073z"/>
		<path class="st0" d="M37.66,37.07l-15.319-8.844c-0.629-0.363-1.581-0.403-2.125-0.088l-8.983,5.187
			c-0.545,0.315-0.476,0.864,0.153,1.227l15.319,8.844c0.629,0.363,1.581,0.403,2.125,0.088l8.983-5.187
			C38.358,37.982,38.289,37.433,37.66,37.07z"/>
		<path class="st0" d="M37.66,37.067l-15.319-8.844c-0.629-0.363-1.581-0.403-2.125-0.088l-8.983,5.187
			c-0.545,0.315-0.476,0.864,0.153,1.227l15.319,8.844c0.629,0.363,1.581,0.403,2.125,0.088l8.983-5.187
			C38.358,37.979,38.289,37.43,37.66,37.067z"/>
		<path class="st0" d="M37.66,37.064L22.342,28.22c-0.629-0.363-1.581-0.403-2.125-0.088l-8.983,5.187
			c-0.545,0.315-0.476,0.864,0.153,1.227l15.319,8.844c0.629,0.363,1.581,0.403,2.125,0.088l8.983-5.187
			C38.358,37.976,38.289,37.427,37.66,37.064z"/>
		<path class="st0" d="M37.66,37.061l-15.319-8.844c-0.629-0.363-1.581-0.403-2.125-0.088l-8.983,5.187
			c-0.545,0.315-0.476,0.864,0.153,1.227l15.319,8.844c0.629,0.363,1.581,0.403,2.125,0.088l8.983-5.187
			C38.358,37.973,38.289,37.424,37.66,37.061z"/>
		<path class="st0" d="M37.66,37.058l-15.319-8.844c-0.629-0.363-1.581-0.403-2.125-0.088l-8.983,5.187
			c-0.545,0.315-0.476,0.864,0.153,1.227l15.319,8.844c0.629,0.363,1.581,0.403,2.125,0.088l8.983-5.187
			C38.358,37.97,38.289,37.421,37.66,37.058z"/>
		<path class="st0" d="M37.66,37.055l-15.319-8.844c-0.629-0.363-1.581-0.403-2.125-0.088l-8.983,5.187
			c-0.545,0.315-0.476,0.864,0.153,1.227l15.319,8.844c0.629,0.363,1.581,0.403,2.125,0.088l8.983-5.187
			C38.358,37.967,38.289,37.418,37.66,37.055z"/>
		<path class="st0" d="M37.66,37.052l-15.319-8.844c-0.629-0.363-1.581-0.403-2.125-0.088l-8.983,5.187
			c-0.545,0.315-0.476,0.864,0.153,1.227l15.319,8.844c0.629,0.363,1.581,0.403,2.125,0.088l8.983-5.187
			C38.358,37.964,38.289,37.415,37.66,37.052z"/>
		<path class="st0" d="M37.66,37.049l-15.319-8.844c-0.629-0.363-1.581-0.403-2.125-0.088l-8.983,5.187
			c-0.545,0.315-0.476,0.864,0.153,1.227l15.319,8.844c0.629,0.363,1.581,0.403,2.125,0.088l8.983-5.187
			C38.358,37.961,38.289,37.412,37.66,37.049z"/>
		<path class="st0" d="M37.66,37.046l-15.319-8.844c-0.629-0.363-1.581-0.403-2.125-0.088L11.233,33.3
			c-0.545,0.315-0.476,0.864,0.153,1.227l15.319,8.844c0.629,0.363,1.581,0.403,2.125,0.088l8.983-5.187
			C38.358,37.958,38.289,37.409,37.66,37.046z"/>
		<path class="st0" d="M37.66,37.043l-15.319-8.844c-0.629-0.363-1.581-0.403-2.125-0.088l-8.983,5.187
			c-0.545,0.315-0.476,0.864,0.153,1.227l15.319,8.844c0.629,0.363,1.581,0.403,2.125,0.088l8.983-5.187
			C38.358,37.955,38.289,37.406,37.66,37.043z"/>
		<path class="st0" d="M37.66,37.04l-15.319-8.844c-0.629-0.363-1.581-0.403-2.125-0.088l-8.983,5.187
			c-0.545,0.315-0.476,0.864,0.153,1.227l15.319,8.844c0.629,0.363,1.581,0.403,2.125,0.088l8.983-5.187
			C38.358,37.952,38.289,37.403,37.66,37.04z"/>
		<path class="st0" d="M37.66,37.037l-15.319-8.844c-0.629-0.363-1.581-0.403-2.125-0.088l-8.983,5.187
			c-0.545,0.315-0.476,0.864,0.153,1.227l15.319,8.844c0.629,0.363,1.581,0.403,2.125,0.088l8.983-5.187
			C38.358,37.949,38.289,37.4,37.66,37.037z"/>
		<path class="st0" d="M37.66,37.034L22.342,28.19c-0.629-0.363-1.581-0.403-2.125-0.088l-8.983,5.187
			c-0.545,0.315-0.476,0.864,0.153,1.227l15.319,8.844c0.629,0.363,1.581,0.403,2.125,0.088l8.983-5.187
			C38.358,37.946,38.289,37.397,37.66,37.034z"/>
		<path class="st0" d="M37.66,37.031l-15.319-8.844c-0.629-0.363-1.581-0.403-2.125-0.088l-8.983,5.187
			c-0.545,0.315-0.476,0.864,0.153,1.227l15.319,8.844c0.629,0.363,1.581,0.403,2.125,0.088l8.983-5.187
			C38.358,37.943,38.289,37.394,37.66,37.031z"/>
		<path class="st0" d="M37.66,37.028l-15.319-8.844c-0.629-0.363-1.581-0.403-2.125-0.088l-8.983,5.187
			c-0.545,0.315-0.476,0.864,0.153,1.227l15.319,8.844c0.629,0.363,1.581,0.403,2.125,0.088l8.983-5.187
			C38.358,37.94,38.289,37.391,37.66,37.028z"/>
		<path class="st0" d="M37.66,37.025l-15.319-8.844c-0.629-0.363-1.581-0.403-2.125-0.088l-8.983,5.187
			c-0.545,0.315-0.476,0.864,0.153,1.227l15.319,8.844c0.629,0.363,1.581,0.403,2.125,0.088l8.983-5.187
			C38.358,37.937,38.289,37.388,37.66,37.025z"/>
		<path class="st0" d="M37.66,37.022l-15.319-8.844c-0.629-0.363-1.581-0.403-2.125-0.088l-8.983,5.187
			c-0.545,0.315-0.476,0.864,0.153,1.227l15.319,8.844c0.629,0.363,1.581,0.403,2.125,0.088l8.983-5.187
			C38.358,37.934,38.289,37.385,37.66,37.022z"/>
		<path class="st0" d="M37.66,37.019l-15.319-8.844c-0.629-0.363-1.581-0.403-2.125-0.088l-8.983,5.187
			c-0.545,0.315-0.476,0.864,0.153,1.227l15.319,8.844c0.629,0.363,1.581,0.403,2.125,0.088l8.983-5.187
			C38.358,37.931,38.289,37.382,37.66,37.019z"/>
		<path class="st0" d="M37.66,37.016l-15.319-8.844c-0.629-0.363-1.581-0.403-2.125-0.088l-8.983,5.187
			c-0.545,0.315-0.476,0.864,0.153,1.227l15.319,8.844c0.629,0.363,1.581,0.403,2.125,0.088l8.983-5.187
			C38.358,37.928,38.289,37.379,37.66,37.016z"/>
		<path class="st0" d="M37.66,37.013l-15.319-8.844c-0.629-0.363-1.581-0.403-2.125-0.088l-8.983,5.187
			c-0.545,0.315-0.476,0.864,0.153,1.227l15.319,8.844c0.629,0.363,1.581,0.403,2.125,0.088l8.983-5.187
			C38.358,37.925,38.289,37.376,37.66,37.013z"/>
		<path class="st0" d="M37.66,37.01l-15.319-8.844c-0.629-0.363-1.581-0.403-2.125-0.088l-8.983,5.187
			c-0.545,0.315-0.476,0.864,0.153,1.227l15.319,8.844c0.629,0.363,1.581,0.403,2.125,0.088l8.983-5.187
			C38.358,37.922,38.289,37.373,37.66,37.01z"/>
		<path class="st0" d="M37.66,37.007l-15.319-8.844c-0.629-0.363-1.581-0.403-2.125-0.088l-8.983,5.187
			c-0.545,0.315-0.476,0.864,0.153,1.227l15.319,8.844c0.629,0.363,1.581,0.403,2.125,0.088l8.983-5.187
			C38.358,37.919,38.289,37.37,37.66,37.007z"/>
		<path class="st0" d="M37.66,37.004L22.342,28.16c-0.629-0.363-1.581-0.403-2.125-0.088l-8.983,5.187
			c-0.545,0.315-0.476,0.864,0.153,1.227l15.319,8.844c0.629,0.363,1.581,0.403,2.125,0.088l8.983-5.187
			C38.358,37.916,38.289,37.367,37.66,37.004z"/>
		<path class="st0" d="M37.66,37.001l-15.319-8.844c-0.629-0.363-1.581-0.403-2.125-0.088l-8.983,5.187
			c-0.545,0.315-0.476,0.864,0.153,1.227l15.319,8.844c0.629,0.363,1.581,0.403,2.125,0.088l8.983-5.187
			C38.358,37.913,38.289,37.364,37.66,37.001z"/>
		<path class="st0" d="M37.66,36.998l-15.319-8.844c-0.629-0.363-1.581-0.403-2.125-0.088l-8.983,5.187
			c-0.545,0.315-0.476,0.864,0.153,1.227l15.319,8.844c0.629,0.363,1.581,0.403,2.125,0.088l8.983-5.187
			C38.358,37.91,38.289,37.361,37.66,36.998z"/>
		<path class="st0" d="M37.66,36.995l-15.319-8.844c-0.629-0.363-1.581-0.403-2.125-0.088l-8.983,5.187
			c-0.545,0.315-0.476,0.864,0.153,1.227l15.319,8.844c0.629,0.363,1.581,0.403,2.125,0.088l8.983-5.187
			C38.358,37.907,38.289,37.358,37.66,36.995z"/>
		<path class="st0" d="M37.66,36.992l-15.319-8.844c-0.629-0.363-1.581-0.403-2.125-0.088l-8.983,5.187
			c-0.545,0.315-0.476,0.864,0.153,1.227l15.319,8.844c0.629,0.363,1.581,0.403,2.125,0.088l8.983-5.187
			C38.358,37.904,38.289,37.355,37.66,36.992z"/>
		<path class="st0" d="M37.66,36.989l-15.319-8.844c-0.629-0.363-1.581-0.403-2.125-0.088l-8.983,5.187
			c-0.545,0.315-0.476,0.864,0.153,1.227l15.319,8.844c0.629,0.363,1.581,0.403,2.125,0.088l8.983-5.187
			C38.358,37.901,38.289,37.352,37.66,36.989z"/>
		<path class="st0" d="M37.66,36.986l-15.319-8.844c-0.629-0.363-1.581-0.403-2.125-0.088l-8.983,5.187
			c-0.545,0.315-0.476,0.864,0.153,1.227l15.319,8.844c0.629,0.363,1.581,0.403,2.125,0.088l8.983-5.187
			C38.358,37.898,38.289,37.349,37.66,36.986z"/>
		<path class="st0" d="M37.66,36.983l-15.319-8.844c-0.629-0.363-1.581-0.403-2.125-0.088l-8.983,5.187
			c-0.545,0.315-0.476,0.864,0.153,1.227l15.319,8.844c0.629,0.363,1.581,0.403,2.125,0.088l8.983-5.187
			C38.358,37.895,38.289,37.346,37.66,36.983z"/>
		<path class="st0" d="M37.66,36.98l-15.319-8.844c-0.629-0.363-1.581-0.403-2.125-0.088l-8.983,5.187
			c-0.545,0.315-0.476,0.864,0.153,1.227l15.319,8.844c0.629,0.363,1.581,0.403,2.125,0.088l8.983-5.187
			C38.358,37.892,38.289,37.343,37.66,36.98z"/>
		<path class="st0" d="M37.66,36.977l-15.319-8.844c-0.629-0.363-1.581-0.403-2.125-0.088l-8.983,5.187
			c-0.545,0.315-0.476,0.864,0.153,1.227l15.319,8.844c0.629,0.363,1.581,0.403,2.125,0.088l8.983-5.187
			C38.358,37.889,38.289,37.34,37.66,36.977z"/>
		<path class="st0" d="M37.66,36.974L22.342,28.13c-0.629-0.363-1.581-0.403-2.125-0.088l-8.983,5.187
			c-0.545,0.315-0.476,0.864,0.153,1.227l15.319,8.844c0.629,0.363,1.581,0.403,2.125,0.088l8.983-5.187
			C38.358,37.886,38.289,37.337,37.66,36.974z"/>
		<path class="st0" d="M37.66,36.971l-15.319-8.844c-0.629-0.363-1.581-0.403-2.125-0.088l-8.983,5.187
			c-0.545,0.315-0.476,0.864,0.153,1.227l15.319,8.844c0.629,0.363,1.581,0.403,2.125,0.088l8.983-5.187
			C38.358,37.883,38.289,37.334,37.66,36.971z"/>
		<path class="st0" d="M37.66,36.968l-15.319-8.844c-0.629-0.363-1.581-0.403-2.125-0.088l-8.983,5.187
			c-0.545,0.315-0.476,0.864,0.153,1.227l15.319,8.844c0.629,0.363,1.581,0.403,2.125,0.088l8.983-5.187
			C38.358,37.88,38.289,37.331,37.66,36.968z"/>
		<path class="st0" d="M37.66,36.965l-15.319-8.844c-0.629-0.363-1.581-0.403-2.125-0.088l-8.983,5.187
			c-0.545,0.315-0.476,0.864,0.153,1.227l15.319,8.844c0.629,0.363,1.581,0.403,2.125,0.088l8.983-5.187
			C38.358,37.877,38.289,37.328,37.66,36.965z"/>
		<path class="st0" d="M37.66,36.962l-15.319-8.844c-0.629-0.363-1.581-0.403-2.125-0.088l-8.983,5.187
			c-0.545,0.315-0.476,0.864,0.153,1.227l15.319,8.844c0.629,0.363,1.581,0.403,2.125,0.088l8.983-5.187
			C38.358,37.874,38.289,37.325,37.66,36.962z"/>
		<path class="st0" d="M37.66,36.959l-15.319-8.844c-0.629-0.363-1.581-0.403-2.125-0.088l-8.983,5.187
			c-0.545,0.315-0.476,0.864,0.153,1.227l15.319,8.844c0.629,0.363,1.581,0.403,2.125,0.088l8.983-5.187
			C38.358,37.871,38.289,37.322,37.66,36.959z"/>
		<path class="st0" d="M37.66,36.956l-15.319-8.844c-0.629-0.363-1.581-0.403-2.125-0.088l-8.983,5.187
			c-0.545,0.315-0.476,0.864,0.153,1.227l15.319,8.844c0.629,0.363,1.581,0.403,2.125,0.088l8.983-5.187
			C38.358,37.868,38.289,37.319,37.66,36.956z"/>
		<path class="st0" d="M37.66,36.953l-15.319-8.844c-0.629-0.363-1.581-0.403-2.125-0.088l-8.983,5.187
			c-0.545,0.315-0.476,0.864,0.153,1.227l15.319,8.844c0.629,0.363,1.581,0.403,2.125,0.088l8.983-5.187
			C38.358,37.865,38.289,37.316,37.66,36.953z"/>
		<path class="st0" d="M37.66,36.95l-15.319-8.844c-0.629-0.363-1.581-0.403-2.125-0.088l-8.983,5.187
			c-0.545,0.315-0.476,0.864,0.153,1.227l15.319,8.844c0.629,0.363,1.581,0.403,2.125,0.088l8.983-5.187
			C38.358,37.862,38.289,37.313,37.66,36.95z"/>
		<path class="st0" d="M37.66,36.947l-15.319-8.844c-0.629-0.363-1.581-0.403-2.125-0.088l-8.983,5.187
			c-0.545,0.315-0.476,0.864,0.153,1.227l15.319,8.844c0.629,0.363,1.581,0.403,2.125,0.088l8.983-5.187
			C38.358,37.859,38.289,37.31,37.66,36.947z"/>
		<path class="st0" d="M37.66,36.944L22.342,28.1c-0.629-0.363-1.581-0.403-2.125-0.088l-8.983,5.187
			c-0.545,0.315-0.476,0.864,0.153,1.227l15.319,8.844c0.629,0.363,1.581,0.403,2.125,0.088l8.983-5.187
			C38.358,37.856,38.289,37.307,37.66,36.944z"/>
		<path class="st0" d="M37.66,36.941l-15.319-8.844c-0.629-0.363-1.581-0.403-2.125-0.088l-8.983,5.187
			c-0.545,0.315-0.476,0.864,0.153,1.227l15.319,8.844c0.629,0.363,1.581,0.403,2.125,0.088l8.983-5.187
			C38.358,37.853,38.289,37.304,37.66,36.941z"/>
		<path class="st0" d="M37.66,36.938l-15.319-8.844c-0.629-0.363-1.581-0.403-2.125-0.088l-8.983,5.187
			c-0.545,0.315-0.476,0.864,0.153,1.227l15.319,8.844c0.629,0.363,1.581,0.403,2.125,0.088l8.983-5.187
			C38.358,37.85,38.289,37.301,37.66,36.938z"/>
		<path class="st0" d="M37.66,36.935l-15.319-8.844c-0.629-0.363-1.581-0.403-2.125-0.088l-8.983,5.187
			c-0.545,0.315-0.476,0.864,0.153,1.227l15.319,8.844c0.629,0.363,1.581,0.403,2.125,0.088l8.983-5.187
			C38.358,37.847,38.289,37.298,37.66,36.935z"/>
		<path class="st0" d="M37.66,36.932l-15.319-8.844c-0.629-0.363-1.581-0.403-2.125-0.088l-8.983,5.187
			c-0.545,0.315-0.476,0.864,0.153,1.227l15.319,8.844c0.629,0.363,1.581,0.403,2.125,0.088l8.983-5.187
			C38.358,37.844,38.289,37.295,37.66,36.932z"/>
		<path class="st0" d="M37.66,36.929l-15.319-8.844c-0.629-0.363-1.581-0.403-2.125-0.088l-8.983,5.187
			c-0.545,0.315-0.476,0.864,0.153,1.227l15.319,8.844c0.629,0.363,1.581,0.403,2.125,0.088l8.983-5.187
			C38.358,37.841,38.289,37.292,37.66,36.929z"/>
		<path class="st0" d="M37.66,36.926l-15.319-8.844c-0.629-0.363-1.581-0.403-2.125-0.088l-8.983,5.187
			c-0.545,0.315-0.476,0.864,0.153,1.227l15.319,8.844c0.629,0.363,1.581,0.403,2.125,0.088l8.983-5.187
			C38.358,37.838,38.289,37.289,37.66,36.926z"/>
		<path class="st0" d="M37.66,36.923l-15.319-8.844c-0.629-0.363-1.581-0.403-2.125-0.088l-8.983,5.187
			c-0.545,0.315-0.476,0.864,0.153,1.227l15.319,8.844c0.629,0.363,1.581,0.403,2.125,0.088l8.983-5.187
			C38.358,37.835,38.289,37.286,37.66,36.923z"/>
		<path class="st0" d="M37.66,36.92l-15.319-8.844c-0.629-0.363-1.581-0.403-2.125-0.088l-8.983,5.187
			c-0.545,0.315-0.476,0.864,0.153,1.227l15.319,8.844c0.629,0.363,1.581,0.403,2.125,0.088l8.983-5.187
			C38.358,37.832,38.289,37.283,37.66,36.92z"/>
		<path class="st0" d="M37.66,36.917l-15.319-8.844c-0.629-0.363-1.581-0.403-2.125-0.088l-8.983,5.187
			c-0.545,0.315-0.476,0.864,0.153,1.227l15.319,8.844c0.629,0.363,1.581,0.403,2.125,0.088l8.983-5.187
			C38.358,37.829,38.289,37.28,37.66,36.917z"/>
		<path class="st0" d="M37.66,36.914L22.342,28.07c-0.629-0.363-1.581-0.403-2.125-0.088l-8.983,5.187
			c-0.545,0.315-0.476,0.864,0.153,1.227l15.319,8.844c0.629,0.363,1.581,0.403,2.125,0.088l8.983-5.187
			C38.358,37.826,38.289,37.277,37.66,36.914z"/>
		<path class="st0" d="M37.66,36.911l-15.319-8.844c-0.629-0.363-1.581-0.403-2.125-0.088l-8.983,5.187
			c-0.545,0.315-0.476,0.864,0.153,1.227l15.319,8.844c0.629,0.363,1.581,0.403,2.125,0.088l8.983-5.187
			C38.358,37.823,38.289,37.274,37.66,36.911z"/>
		<path class="st0" d="M37.66,36.908l-15.319-8.844c-0.629-0.363-1.581-0.403-2.125-0.088l-8.983,5.187
			c-0.545,0.315-0.476,0.864,0.153,1.227l15.319,8.844c0.629,0.363,1.581,0.403,2.125,0.088l8.983-5.187
			C38.358,37.82,38.289,37.271,37.66,36.908z"/>
		<path class="st0" d="M37.66,36.905l-15.319-8.844c-0.629-0.363-1.581-0.403-2.125-0.088l-8.983,5.187
			c-0.545,0.315-0.476,0.864,0.153,1.227l15.319,8.844c0.629,0.363,1.581,0.403,2.125,0.088l8.983-5.187
			C38.358,37.817,38.289,37.268,37.66,36.905z"/>
		<path class="st0" d="M37.66,36.902l-15.319-8.844c-0.629-0.363-1.581-0.403-2.125-0.088l-8.983,5.187
			c-0.545,0.315-0.476,0.864,0.153,1.227l15.319,8.844c0.629,0.363,1.581,0.403,2.125,0.088l8.983-5.187
			C38.358,37.814,38.289,37.265,37.66,36.902z"/>
		<path class="st0" d="M37.66,36.899l-15.319-8.844c-0.629-0.363-1.581-0.403-2.125-0.088l-8.983,5.187
			c-0.545,0.315-0.476,0.864,0.153,1.227l15.319,8.844c0.629,0.363,1.581,0.403,2.125,0.088l8.983-5.187
			C38.358,37.811,38.289,37.262,37.66,36.899z"/>
		<path class="st0" d="M37.66,36.896l-15.319-8.844c-0.629-0.363-1.581-0.403-2.125-0.088l-8.983,5.187
			c-0.545,0.315-0.476,0.864,0.153,1.227l15.319,8.844c0.629,0.363,1.581,0.403,2.125,0.088l8.983-5.187
			C38.358,37.808,38.289,37.259,37.66,36.896z"/>
		<path class="st0" d="M37.66,36.893l-15.319-8.844c-0.629-0.363-1.581-0.403-2.125-0.088l-8.983,5.187
			c-0.545,0.315-0.476,0.864,0.153,1.227l15.319,8.844c0.629,0.363,1.581,0.403,2.125,0.088l8.983-5.187
			C38.358,37.805,38.289,37.256,37.66,36.893z"/>
		<path class="st0" d="M37.66,36.89l-15.319-8.844c-0.629-0.363-1.581-0.403-2.125-0.088l-8.983,5.187
			c-0.545,0.315-0.476,0.864,0.153,1.227l15.319,8.844c0.629,0.363,1.581,0.403,2.125,0.088l8.983-5.187
			C38.358,37.802,38.289,37.253,37.66,36.89z"/>
		<path class="st0" d="M37.66,36.887l-15.319-8.844c-0.629-0.363-1.581-0.403-2.125-0.088l-8.983,5.187
			c-0.545,0.315-0.476,0.864,0.153,1.227l15.319,8.844c0.629,0.363,1.581,0.403,2.125,0.088l8.983-5.187
			C38.358,37.799,38.289,37.25,37.66,36.887z"/>
		<path class="st0" d="M37.66,36.884L22.342,28.04c-0.629-0.363-1.581-0.403-2.125-0.088l-8.983,5.187
			c-0.545,0.315-0.476,0.864,0.153,1.227l15.319,8.844c0.629,0.363,1.581,0.403,2.125,0.088l8.983-5.187
			C38.358,37.796,38.289,37.247,37.66,36.884z"/>
		<path class="st0" d="M37.66,36.881l-15.319-8.844c-0.629-0.363-1.581-0.403-2.125-0.088l-8.983,5.187
			c-0.545,0.315-0.476,0.864,0.153,1.227l15.319,8.844c0.629,0.363,1.581,0.403,2.125,0.088l8.983-5.187
			C38.358,37.793,38.289,37.244,37.66,36.881z"/>
		<path class="st0" d="M37.66,36.878l-15.319-8.844c-0.629-0.363-1.581-0.403-2.125-0.088l-8.983,5.187
			c-0.545,0.315-0.476,0.864,0.153,1.227l15.319,8.844c0.629,0.363,1.581,0.403,2.125,0.088l8.983-5.187
			C38.358,37.79,38.289,37.241,37.66,36.878z"/>
		<path class="st0" d="M37.66,36.875l-15.319-8.844c-0.629-0.363-1.581-0.403-2.125-0.088l-8.983,5.187
			c-0.545,0.315-0.476,0.864,0.153,1.227L26.704,43.2c0.629,0.363,1.581,0.403,2.125,0.088l8.983-5.187
			C38.358,37.787,38.289,37.238,37.66,36.875z"/>
		<path class="st0" d="M37.66,36.872l-15.319-8.844c-0.629-0.363-1.581-0.403-2.125-0.088l-8.983,5.187
			c-0.545,0.315-0.476,0.864,0.153,1.227l15.319,8.844c0.629,0.363,1.581,0.403,2.125,0.088l8.983-5.187
			C38.358,37.784,38.289,37.235,37.66,36.872z"/>
		<path class="st0" d="M37.66,36.869l-15.319-8.844c-0.629-0.363-1.581-0.403-2.125-0.088l-8.983,5.187
			c-0.545,0.315-0.476,0.864,0.153,1.227l15.319,8.844c0.629,0.363,1.581,0.403,2.125,0.088l8.983-5.187
			C38.358,37.781,38.289,37.232,37.66,36.869z"/>
		<path class="st0" d="M37.66,36.866l-15.319-8.844c-0.629-0.363-1.581-0.403-2.125-0.088l-8.983,5.187
			c-0.545,0.315-0.476,0.864,0.153,1.227l15.319,8.844c0.629,0.363,1.581,0.403,2.125,0.088l8.983-5.187
			C38.358,37.778,38.289,37.229,37.66,36.866z"/>
		<path class="st0" d="M37.66,36.863l-15.319-8.844c-0.629-0.363-1.581-0.403-2.125-0.088l-8.983,5.187
			c-0.545,0.315-0.476,0.864,0.153,1.227l15.319,8.844c0.629,0.363,1.581,0.403,2.125,0.088l8.983-5.187
			C38.358,37.775,38.289,37.226,37.66,36.863z"/>
		<path class="st0" d="M37.66,36.86l-15.319-8.844c-0.629-0.363-1.581-0.403-2.125-0.088l-8.983,5.187
			c-0.545,0.315-0.476,0.864,0.153,1.227l15.319,8.844c0.629,0.363,1.581,0.403,2.125,0.088l8.983-5.187
			C38.358,37.772,38.289,37.223,37.66,36.86z"/>
		<path class="st0" d="M37.66,36.857l-15.319-8.844c-0.629-0.363-1.581-0.403-2.125-0.088l-8.983,5.187
			c-0.545,0.315-0.476,0.864,0.153,1.227l15.319,8.844c0.629,0.363,1.581,0.403,2.125,0.088l8.983-5.187
			C38.358,37.769,38.289,37.22,37.66,36.857z"/>
		<path class="st0" d="M37.66,36.854L22.342,28.01c-0.629-0.363-1.581-0.403-2.125-0.088l-8.983,5.187
			c-0.545,0.315-0.476,0.864,0.153,1.227l15.319,8.844c0.629,0.363,1.581,0.403,2.125,0.088l8.983-5.187
			C38.358,37.766,38.289,37.217,37.66,36.854z"/>
		<path class="st0" d="M37.66,36.851l-15.319-8.844c-0.629-0.363-1.581-0.403-2.125-0.088l-8.983,5.187
			c-0.545,0.315-0.476,0.864,0.153,1.227l15.319,8.844c0.629,0.363,1.581,0.403,2.125,0.088l8.983-5.187
			C38.358,37.763,38.289,37.214,37.66,36.851z"/>
		<path class="st0" d="M37.66,36.848l-15.319-8.844c-0.629-0.363-1.581-0.403-2.125-0.088l-8.983,5.187
			c-0.545,0.315-0.476,0.864,0.153,1.227l15.319,8.844c0.629,0.363,1.581,0.403,2.125,0.088l8.983-5.187
			C38.358,37.76,38.289,37.211,37.66,36.848z"/>
		<path class="st0" d="M37.66,36.845l-15.319-8.844c-0.629-0.363-1.581-0.403-2.125-0.088l-8.983,5.187
			c-0.545,0.315-0.476,0.864,0.153,1.227l15.319,8.844c0.629,0.363,1.581,0.403,2.125,0.088l8.983-5.187
			C38.358,37.757,38.289,37.208,37.66,36.845z"/>
		<path class="st0" d="M37.66,36.842l-15.319-8.844c-0.629-0.363-1.581-0.403-2.125-0.088l-8.983,5.187
			c-0.545,0.315-0.476,0.864,0.153,1.227l15.319,8.844c0.629,0.363,1.581,0.403,2.125,0.088l8.983-5.187
			C38.358,37.754,38.289,37.205,37.66,36.842z"/>
		<path class="st0" d="M37.66,36.839l-15.319-8.844c-0.629-0.363-1.581-0.403-2.125-0.088l-8.983,5.187
			c-0.545,0.315-0.476,0.864,0.153,1.227l15.319,8.844c0.629,0.363,1.581,0.403,2.125,0.088l8.983-5.187
			C38.358,37.751,38.289,37.202,37.66,36.839z"/>
		<path class="st0" d="M37.66,36.836l-15.319-8.844c-0.629-0.363-1.581-0.403-2.125-0.088l-8.983,5.187
			c-0.545,0.315-0.476,0.864,0.153,1.227l15.319,8.844c0.629,0.363,1.581,0.403,2.125,0.088l8.983-5.187
			C38.358,37.748,38.289,37.199,37.66,36.836z"/>
		<path class="st0" d="M37.66,36.833l-15.319-8.844c-0.629-0.363-1.581-0.403-2.125-0.088l-8.983,5.187
			c-0.545,0.315-0.476,0.864,0.153,1.227l15.319,8.844c0.629,0.363,1.581,0.403,2.125,0.088l8.983-5.187
			C38.358,37.745,38.289,37.196,37.66,36.833z"/>
		<path class="st0" d="M37.66,36.83l-15.319-8.844c-0.629-0.363-1.581-0.403-2.125-0.088l-8.983,5.187
			c-0.545,0.315-0.476,0.864,0.153,1.227l15.319,8.844c0.629,0.363,1.581,0.403,2.125,0.088l8.983-5.187
			C38.358,37.742,38.289,37.193,37.66,36.83z"/>
		<path class="st0" d="M37.66,36.827l-15.319-8.844c-0.629-0.363-1.581-0.403-2.125-0.088l-8.983,5.187
			c-0.545,0.315-0.476,0.864,0.153,1.227l15.319,8.844c0.629,0.363,1.581,0.403,2.125,0.088l8.983-5.187
			C38.358,37.739,38.289,37.19,37.66,36.827z"/>
		<path class="st0" d="M37.66,36.824L22.342,27.98c-0.629-0.363-1.581-0.403-2.125-0.088l-8.983,5.187
			c-0.545,0.315-0.476,0.864,0.153,1.227l15.319,8.844c0.629,0.363,1.581,0.403,2.125,0.088l8.983-5.187
			C38.358,37.736,38.289,37.187,37.66,36.824z"/>
		<path class="st0" d="M37.66,36.821l-15.319-8.844c-0.629-0.363-1.581-0.403-2.125-0.088l-8.983,5.187
			c-0.545,0.315-0.476,0.864,0.153,1.227l15.319,8.844c0.629,0.363,1.581,0.403,2.125,0.088l8.983-5.187
			C38.358,37.733,38.289,37.184,37.66,36.821z"/>
		<path class="st0" d="M37.66,36.818l-15.319-8.844c-0.629-0.363-1.581-0.403-2.125-0.088l-8.983,5.187
			c-0.545,0.315-0.476,0.864,0.153,1.227l15.319,8.844c0.629,0.363,1.581,0.403,2.125,0.088l8.983-5.187
			C38.358,37.73,38.289,37.181,37.66,36.818z"/>
		<path class="st0" d="M37.66,36.815l-15.319-8.844c-0.629-0.363-1.581-0.403-2.125-0.088l-8.983,5.187
			c-0.545,0.315-0.476,0.864,0.153,1.227l15.319,8.844c0.629,0.363,1.581,0.403,2.125,0.088l8.983-5.187
			C38.358,37.727,38.289,37.178,37.66,36.815z"/>
		<path class="st0" d="M37.66,36.812l-15.319-8.844c-0.629-0.363-1.581-0.403-2.125-0.088l-8.983,5.187
			c-0.545,0.315-0.476,0.864,0.153,1.227l15.319,8.844c0.629,0.363,1.581,0.403,2.125,0.088l8.983-5.187
			C38.358,37.724,38.289,37.175,37.66,36.812z"/>
		<path class="st0" d="M37.66,36.809l-15.319-8.844c-0.629-0.363-1.581-0.403-2.125-0.088l-8.983,5.187
			c-0.545,0.315-0.476,0.864,0.153,1.227l15.319,8.844c0.629,0.363,1.581,0.403,2.125,0.088l8.983-5.187
			C38.358,37.721,38.289,37.172,37.66,36.809z"/>
		<path class="st0" d="M37.66,36.806l-15.319-8.844c-0.629-0.363-1.581-0.403-2.125-0.088l-8.983,5.187
			c-0.545,0.315-0.476,0.864,0.153,1.227l15.319,8.844c0.629,0.363,1.581,0.403,2.125,0.088l8.983-5.187
			C38.358,37.718,38.289,37.169,37.66,36.806z"/>
		<path class="st0" d="M37.66,36.803l-15.319-8.844c-0.629-0.363-1.581-0.403-2.125-0.088l-8.983,5.187
			c-0.545,0.315-0.476,0.864,0.153,1.227l15.319,8.844c0.629,0.363,1.581,0.403,2.125,0.088l8.983-5.187
			C38.358,37.715,38.289,37.166,37.66,36.803z"/>
		<path class="st0" d="M37.66,36.8l-15.319-8.844c-0.629-0.363-1.581-0.403-2.125-0.088l-8.983,5.187
			c-0.545,0.315-0.476,0.864,0.153,1.227l15.319,8.844c0.629,0.363,1.581,0.403,2.125,0.088l8.983-5.187
			C38.358,37.712,38.289,37.163,37.66,36.8z"/>
		<path class="st0" d="M37.66,36.797l-15.319-8.844c-0.629-0.363-1.581-0.403-2.125-0.088l-8.983,5.187
			c-0.545,0.315-0.476,0.864,0.153,1.227l15.319,8.844c0.629,0.363,1.581,0.403,2.125,0.088l8.983-5.187
			C38.358,37.709,38.289,37.16,37.66,36.797z"/>
		<path class="st0" d="M37.66,36.794L22.342,27.95c-0.629-0.363-1.581-0.403-2.125-0.088l-8.983,5.187
			c-0.545,0.315-0.476,0.864,0.153,1.227l15.319,8.844c0.629,0.363,1.581,0.403,2.125,0.088l8.983-5.187
			C38.358,37.706,38.289,37.157,37.66,36.794z"/>
		<path class="st0" d="M37.66,36.791l-15.319-8.844c-0.629-0.363-1.581-0.403-2.125-0.088l-8.983,5.187
			c-0.545,0.315-0.476,0.864,0.153,1.227l15.319,8.844c0.629,0.363,1.581,0.403,2.125,0.088l8.983-5.187
			C38.358,37.703,38.289,37.154,37.66,36.791z"/>
		<path class="st0" d="M37.66,36.788l-15.319-8.844c-0.629-0.363-1.581-0.403-2.125-0.088l-8.983,5.187
			c-0.545,0.315-0.476,0.864,0.153,1.227l15.319,8.844c0.629,0.363,1.581,0.403,2.125,0.088l8.983-5.187
			C38.358,37.7,38.289,37.151,37.66,36.788z"/>
		<path class="st0" d="M37.66,36.785l-15.319-8.844c-0.629-0.363-1.581-0.403-2.125-0.088l-8.983,5.187
			c-0.545,0.315-0.476,0.864,0.153,1.227l15.319,8.844c0.629,0.363,1.581,0.403,2.125,0.088l8.983-5.187
			C38.358,37.697,38.289,37.148,37.66,36.785z"/>
		<path class="st0" d="M37.66,36.782l-15.319-8.844c-0.629-0.363-1.581-0.403-2.125-0.088l-8.983,5.187
			c-0.545,0.315-0.476,0.864,0.153,1.227l15.319,8.844c0.629,0.363,1.581,0.403,2.125,0.088l8.983-5.187
			C38.358,37.694,38.289,37.145,37.66,36.782z"/>
		<path class="st0" d="M37.66,36.779l-15.319-8.844c-0.629-0.363-1.581-0.403-2.125-0.088l-8.983,5.187
			c-0.545,0.315-0.476,0.864,0.153,1.227l15.319,8.844c0.629,0.363,1.581,0.403,2.125,0.088l8.983-5.187
			C38.358,37.691,38.289,37.142,37.66,36.779z"/>
		<path class="st0" d="M37.66,36.776l-15.319-8.844c-0.629-0.363-1.581-0.403-2.125-0.088l-8.983,5.187
			c-0.545,0.315-0.476,0.864,0.153,1.227l15.319,8.844c0.629,0.363,1.581,0.403,2.125,0.088l8.983-5.187
			C38.358,37.688,38.289,37.139,37.66,36.776z"/>
		<path class="st0" d="M37.66,36.773l-15.319-8.844c-0.629-0.363-1.581-0.403-2.125-0.088l-8.983,5.187
			c-0.545,0.315-0.476,0.864,0.153,1.227l15.319,8.844c0.629,0.363,1.581,0.403,2.125,0.088L37.813,38
			C38.358,37.685,38.289,37.136,37.66,36.773z"/>
		<path class="st0" d="M37.66,36.77l-15.319-8.844c-0.629-0.363-1.581-0.403-2.125-0.088l-8.983,5.187
			c-0.545,0.315-0.476,0.864,0.153,1.227l15.319,8.844c0.629,0.363,1.581,0.403,2.125,0.088l8.983-5.187
			C38.358,37.682,38.289,37.133,37.66,36.77z"/>
		<path class="st0" d="M37.66,36.767l-15.319-8.844c-0.629-0.363-1.581-0.403-2.125-0.088l-8.983,5.187
			c-0.545,0.315-0.476,0.864,0.153,1.227l15.319,8.844c0.629,0.363,1.581,0.403,2.125,0.088l8.983-5.187
			C38.358,37.679,38.289,37.13,37.66,36.767z"/>
		<path class="st0" d="M37.66,36.764l-15.319-8.844c-0.629-0.363-1.581-0.403-2.125-0.088l-8.983,5.187
			c-0.545,0.315-0.476,0.864,0.153,1.227l15.319,8.844c0.629,0.363,1.581,0.403,2.125,0.088l8.983-5.187
			C38.358,37.676,38.289,37.127,37.66,36.764z"/>
		<path class="st0" d="M37.66,36.761l-15.319-8.844c-0.629-0.363-1.581-0.403-2.125-0.088l-8.983,5.187
			c-0.545,0.315-0.476,0.864,0.153,1.227l15.319,8.844c0.629,0.363,1.581,0.403,2.125,0.088l8.983-5.187
			C38.358,37.673,38.289,37.124,37.66,36.761z"/>
		<path class="st0" d="M37.66,36.758l-15.319-8.844c-0.629-0.363-1.581-0.403-2.125-0.088l-8.983,5.187
			c-0.545,0.315-0.476,0.864,0.153,1.227l15.319,8.844c0.629,0.363,1.581,0.403,2.125,0.088l8.983-5.187
			C38.358,37.67,38.289,37.121,37.66,36.758z"/>
		<path class="st0" d="M37.66,36.755L22.342,27.91c-0.629-0.363-1.581-0.403-2.125-0.088l-8.983,5.187
			c-0.545,0.315-0.476,0.864,0.153,1.227l15.319,8.844c0.629,0.363,1.581,0.403,2.125,0.088l8.983-5.187
			C38.358,37.667,38.289,37.118,37.66,36.755z"/>
		<path class="st0" d="M37.66,36.752l-15.319-8.844c-0.629-0.363-1.581-0.403-2.125-0.088l-8.983,5.187
			c-0.545,0.315-0.476,0.864,0.153,1.227l15.319,8.844c0.629,0.363,1.581,0.403,2.125,0.088l8.983-5.187
			C38.358,37.664,38.289,37.115,37.66,36.752z"/>
		<path class="st0" d="M37.66,36.749l-15.319-8.844c-0.629-0.363-1.581-0.403-2.125-0.088l-8.983,5.187
			c-0.545,0.315-0.476,0.864,0.153,1.227l15.319,8.844c0.629,0.363,1.581,0.403,2.125,0.088l8.983-5.187
			C38.358,37.661,38.289,37.112,37.66,36.749z"/>
		<path class="st0" d="M37.66,36.746l-15.319-8.844c-0.629-0.363-1.581-0.403-2.125-0.088L11.233,33
			c-0.545,0.315-0.476,0.864,0.153,1.227l15.319,8.844c0.629,0.363,1.581,0.403,2.125,0.088l8.983-5.187
			C38.358,37.658,38.289,37.109,37.66,36.746z"/>
		<path class="st0" d="M37.66,36.743l-15.319-8.844c-0.629-0.363-1.581-0.403-2.125-0.088l-8.983,5.187
			c-0.545,0.315-0.476,0.864,0.153,1.227l15.319,8.844c0.629,0.363,1.581,0.403,2.125,0.088l8.983-5.187
			C38.358,37.655,38.289,37.106,37.66,36.743z"/>
		<path class="st0" d="M37.66,36.74l-15.319-8.844c-0.629-0.363-1.581-0.403-2.125-0.088l-8.983,5.187
			c-0.545,0.315-0.476,0.864,0.153,1.227l15.319,8.844c0.629,0.363,1.581,0.403,2.125,0.088l8.983-5.187
			C38.358,37.652,38.289,37.103,37.66,36.74z"/>
		<path class="st0" d="M37.66,36.737l-15.319-8.844c-0.629-0.363-1.581-0.403-2.125-0.088l-8.983,5.187
			c-0.545,0.315-0.476,0.864,0.153,1.227l15.319,8.844c0.629,0.363,1.581,0.403,2.125,0.088l8.983-5.187
			C38.358,37.649,38.289,37.1,37.66,36.737z"/>
		<path class="st0" d="M37.66,36.734l-15.319-8.844c-0.629-0.363-1.581-0.403-2.125-0.088l-8.983,5.187
			c-0.545,0.315-0.476,0.864,0.153,1.227l15.319,8.844c0.629,0.363,1.581,0.403,2.125,0.088l8.983-5.187
			C38.358,37.646,38.289,37.097,37.66,36.734z"/>
		<path class="st0" d="M37.66,36.731l-15.319-8.844c-0.629-0.363-1.581-0.403-2.125-0.088l-8.983,5.187
			c-0.545,0.315-0.476,0.864,0.153,1.227l15.319,8.844c0.629,0.363,1.581,0.403,2.125,0.088l8.983-5.187
			C38.358,37.643,38.289,37.094,37.66,36.731z"/>
		<path class="st0" d="M37.66,36.728l-15.319-8.844c-0.629-0.363-1.581-0.403-2.125-0.088l-8.983,5.187
			c-0.545,0.315-0.476,0.864,0.153,1.227l15.319,8.844c0.629,0.363,1.581,0.403,2.125,0.088l8.983-5.187
			C38.358,37.64,38.289,37.091,37.66,36.728z"/>
		<path class="st0" d="M37.66,36.725L22.342,27.88c-0.629-0.363-1.581-0.403-2.125-0.088l-8.983,5.187
			c-0.545,0.315-0.476,0.864,0.153,1.227l15.319,8.844c0.629,0.363,1.581,0.403,2.125,0.088l8.983-5.187
			C38.358,37.637,38.289,37.088,37.66,36.725z"/>
		<path class="st0" d="M37.66,36.722l-15.319-8.844c-0.629-0.363-1.581-0.403-2.125-0.088l-8.983,5.187
			c-0.545,0.315-0.476,0.864,0.153,1.227l15.319,8.844c0.629,0.363,1.581,0.403,2.125,0.088l8.983-5.187
			C38.358,37.634,38.289,37.085,37.66,36.722z"/>
		<path class="st0" d="M37.66,36.719l-15.319-8.844c-0.629-0.363-1.581-0.403-2.125-0.088l-8.983,5.187
			c-0.545,0.315-0.476,0.864,0.153,1.227l15.319,8.844c0.629,0.363,1.581,0.403,2.125,0.088l8.983-5.187
			C38.358,37.631,38.289,37.082,37.66,36.719z"/>
		<path class="st0" d="M37.66,36.716l-15.319-8.844c-0.629-0.363-1.581-0.403-2.125-0.088l-8.983,5.187
			c-0.545,0.315-0.476,0.864,0.153,1.227l15.319,8.844c0.629,0.363,1.581,0.403,2.125,0.088l8.983-5.187
			C38.358,37.628,38.289,37.079,37.66,36.716z"/>
		<path class="st0" d="M37.66,36.713l-15.319-8.844c-0.629-0.363-1.581-0.403-2.125-0.088l-8.983,5.187
			c-0.545,0.315-0.476,0.864,0.153,1.227l15.319,8.844c0.629,0.363,1.581,0.403,2.125,0.088l8.983-5.187
			C38.358,37.625,38.289,37.076,37.66,36.713z"/>
		<path class="st0" d="M37.66,36.71l-15.319-8.844c-0.629-0.363-1.581-0.403-2.125-0.088l-8.983,5.187
			c-0.545,0.315-0.476,0.864,0.153,1.227l15.319,8.844c0.629,0.363,1.581,0.403,2.125,0.088l8.983-5.187
			C38.358,37.622,38.289,37.073,37.66,36.71z"/>
		<path class="st0" d="M37.66,36.707l-15.319-8.844c-0.629-0.363-1.581-0.403-2.125-0.088l-8.983,5.187
			c-0.545,0.315-0.476,0.864,0.153,1.227l15.319,8.844c0.629,0.363,1.581,0.403,2.125,0.088l8.983-5.187
			C38.358,37.619,38.289,37.07,37.66,36.707z"/>
		<path class="st0" d="M37.66,36.704l-15.319-8.844c-0.629-0.363-1.581-0.403-2.125-0.088l-8.983,5.187
			c-0.545,0.315-0.476,0.864,0.153,1.227l15.319,8.844c0.629,0.363,1.581,0.403,2.125,0.088l8.983-5.187
			C38.358,37.616,38.289,37.067,37.66,36.704z"/>
		<path class="st0" d="M37.66,36.701l-15.319-8.844c-0.629-0.363-1.581-0.403-2.125-0.088l-8.983,5.187
			c-0.545,0.315-0.476,0.864,0.153,1.227l15.319,8.844c0.629,0.363,1.581,0.403,2.125,0.088l8.983-5.187
			C38.358,37.613,38.289,37.064,37.66,36.701z"/>
		<path class="st0" d="M37.66,36.698l-15.319-8.844c-0.629-0.363-1.581-0.403-2.125-0.088l-8.983,5.187
			c-0.545,0.315-0.476,0.864,0.153,1.227l15.319,8.844c0.629,0.363,1.581,0.403,2.125,0.088l8.983-5.187
			C38.358,37.61,38.289,37.061,37.66,36.698z"/>
		<path class="st0" d="M37.66,36.695L22.342,27.85c-0.629-0.363-1.581-0.403-2.125-0.088l-8.983,5.187
			c-0.545,0.315-0.476,0.864,0.153,1.227l15.319,8.844c0.629,0.363,1.581,0.403,2.125,0.088l8.983-5.187
			C38.358,37.607,38.289,37.058,37.66,36.695z"/>
		<path class="st0" d="M37.66,36.692l-15.319-8.844c-0.629-0.363-1.581-0.403-2.125-0.088l-8.983,5.187
			c-0.545,0.315-0.476,0.864,0.153,1.227l15.319,8.844c0.629,0.363,1.581,0.403,2.125,0.088l8.983-5.187
			C38.358,37.604,38.289,37.055,37.66,36.692z"/>
		<path class="st0" d="M37.66,36.689l-15.319-8.844c-0.629-0.363-1.581-0.403-2.125-0.088l-8.983,5.187
			c-0.545,0.315-0.476,0.864,0.153,1.227l15.319,8.844c0.629,0.363,1.581,0.403,2.125,0.088l8.983-5.187
			C38.358,37.601,38.289,37.052,37.66,36.689z"/>
		<path class="st0" d="M37.66,36.686l-15.319-8.844c-0.629-0.363-1.581-0.403-2.125-0.088l-8.983,5.187
			c-0.545,0.315-0.476,0.864,0.153,1.227l15.319,8.844c0.629,0.363,1.581,0.403,2.125,0.088l8.983-5.187
			C38.358,37.598,38.289,37.049,37.66,36.686z"/>
		<path class="st0" d="M37.66,36.683l-15.319-8.844c-0.629-0.363-1.581-0.403-2.125-0.088l-8.983,5.187
			c-0.545,0.315-0.476,0.864,0.153,1.227l15.319,8.844c0.629,0.363,1.581,0.403,2.125,0.088l8.983-5.187
			C38.358,37.595,38.289,37.046,37.66,36.683z"/>
		<path class="st0" d="M37.66,36.68l-15.319-8.844c-0.629-0.363-1.581-0.403-2.125-0.088l-8.983,5.187
			c-0.545,0.315-0.476,0.864,0.153,1.227l15.319,8.844c0.629,0.363,1.581,0.403,2.125,0.088l8.983-5.187
			C38.358,37.592,38.289,37.043,37.66,36.68z"/>
		<path class="st0" d="M37.66,36.677l-15.319-8.844c-0.629-0.363-1.581-0.403-2.125-0.088l-8.983,5.187
			c-0.545,0.315-0.476,0.864,0.153,1.227l15.319,8.844c0.629,0.363,1.581,0.403,2.125,0.088l8.983-5.187
			C38.358,37.589,38.289,37.04,37.66,36.677z"/>
		<path class="st0" d="M37.66,36.674l-15.319-8.844c-0.629-0.363-1.581-0.403-2.125-0.088l-8.983,5.187
			c-0.545,0.315-0.476,0.864,0.153,1.227l15.319,8.844c0.629,0.363,1.581,0.403,2.125,0.088l8.983-5.187
			C38.358,37.586,38.289,37.037,37.66,36.674z"/>
		<path class="st0" d="M37.66,36.671l-15.319-8.844c-0.629-0.363-1.581-0.403-2.125-0.088l-8.983,5.187
			c-0.545,0.315-0.476,0.864,0.153,1.227l15.319,8.844c0.629,0.363,1.581,0.403,2.125,0.088l8.983-5.187
			C38.358,37.583,38.289,37.034,37.66,36.671z"/>
		<path class="st0" d="M37.66,36.668l-15.319-8.844c-0.629-0.363-1.581-0.403-2.125-0.088l-8.983,5.187
			c-0.545,0.315-0.476,0.864,0.153,1.227l15.319,8.844c0.629,0.363,1.581,0.403,2.125,0.088l8.983-5.187
			C38.358,37.58,38.289,37.031,37.66,36.668z"/>
		<path class="st0" d="M37.66,36.665L22.342,27.82c-0.629-0.363-1.581-0.403-2.125-0.088l-8.983,5.187
			c-0.545,0.315-0.476,0.864,0.153,1.227l15.319,8.844c0.629,0.363,1.581,0.403,2.125,0.088l8.983-5.187
			C38.358,37.577,38.289,37.028,37.66,36.665z"/>
		<path class="st0" d="M37.66,36.662l-15.319-8.844c-0.629-0.363-1.581-0.403-2.125-0.088l-8.983,5.187
			c-0.545,0.315-0.476,0.864,0.153,1.227l15.319,8.844c0.629,0.363,1.581,0.403,2.125,0.088l8.983-5.187
			C38.358,37.574,38.289,37.025,37.66,36.662z"/>
		<path class="st0" d="M37.66,36.659l-15.319-8.844c-0.629-0.363-1.581-0.403-2.125-0.088l-8.983,5.187
			c-0.545,0.315-0.476,0.864,0.153,1.227l15.319,8.844c0.629,0.363,1.581,0.403,2.125,0.088l8.983-5.187
			C38.358,37.571,38.289,37.022,37.66,36.659z"/>
		<path class="st0" d="M37.66,36.656l-15.319-8.844c-0.629-0.363-1.581-0.403-2.125-0.088l-8.983,5.187
			c-0.545,0.315-0.476,0.864,0.153,1.227l15.319,8.844c0.629,0.363,1.581,0.403,2.125,0.088l8.983-5.187
			C38.358,37.568,38.289,37.019,37.66,36.656z"/>
		<path class="st0" d="M37.66,36.653l-15.319-8.844c-0.629-0.363-1.581-0.403-2.125-0.088l-8.983,5.187
			c-0.545,0.315-0.476,0.864,0.153,1.227l15.319,8.844c0.629,0.363,1.581,0.403,2.125,0.088l8.983-5.187
			C38.358,37.565,38.289,37.016,37.66,36.653z"/>
		<path class="st0" d="M37.66,36.65l-15.319-8.844c-0.629-0.363-1.581-0.403-2.125-0.088l-8.983,5.187
			c-0.545,0.315-0.476,0.864,0.153,1.227l15.319,8.844c0.629,0.363,1.581,0.403,2.125,0.088l8.983-5.187
			C38.358,37.562,38.289,37.013,37.66,36.65z"/>
		<path class="st0" d="M37.66,36.647l-15.319-8.844c-0.629-0.363-1.581-0.403-2.125-0.088l-8.983,5.187
			c-0.545,0.315-0.476,0.864,0.153,1.227l15.319,8.844c0.629,0.363,1.581,0.403,2.125,0.088l8.983-5.187
			C38.358,37.559,38.289,37.01,37.66,36.647z"/>
		<path class="st0" d="M37.66,36.644l-15.319-8.844c-0.629-0.363-1.581-0.403-2.125-0.088l-8.983,5.187
			c-0.545,0.315-0.476,0.864,0.153,1.227l15.319,8.844c0.629,0.363,1.581,0.403,2.125,0.088l8.983-5.187
			C38.358,37.556,38.289,37.007,37.66,36.644z"/>
		<path class="st0" d="M37.66,36.641l-15.319-8.844c-0.629-0.363-1.581-0.403-2.125-0.088l-8.983,5.187
			c-0.545,0.315-0.476,0.864,0.153,1.227l15.319,8.844c0.629,0.363,1.581,0.403,2.125,0.088l8.983-5.187
			C38.358,37.553,38.289,37.004,37.66,36.641z"/>
		<path class="st0" d="M37.66,36.638l-15.319-8.844c-0.629-0.363-1.581-0.403-2.125-0.088l-8.983,5.187
			c-0.545,0.315-0.476,0.864,0.153,1.227l15.319,8.844c0.629,0.363,1.581,0.403,2.125,0.088l8.983-5.187
			C38.358,37.55,38.289,37.001,37.66,36.638z"/>
		<path class="st0" d="M37.66,36.635L22.342,27.79c-0.629-0.363-1.581-0.403-2.125-0.088l-8.983,5.187
			c-0.545,0.315-0.476,0.864,0.153,1.227l15.319,8.844c0.629,0.363,1.581,0.403,2.125,0.088l8.983-5.187
			C38.358,37.547,38.289,36.998,37.66,36.635z"/>
		<path class="st0" d="M37.66,36.632l-15.319-8.844c-0.629-0.363-1.581-0.403-2.125-0.088l-8.983,5.187
			c-0.545,0.315-0.476,0.864,0.153,1.227l15.319,8.844c0.629,0.363,1.581,0.403,2.125,0.088l8.983-5.187
			C38.358,37.544,38.289,36.995,37.66,36.632z"/>
		<path class="st0" d="M37.66,36.629l-15.319-8.844c-0.629-0.363-1.581-0.403-2.125-0.088l-8.983,5.187
			c-0.545,0.315-0.476,0.864,0.153,1.227l15.319,8.844c0.629,0.363,1.581,0.403,2.125,0.088l8.983-5.187
			C38.358,37.541,38.289,36.992,37.66,36.629z"/>
		<path class="st0" d="M37.66,36.626l-15.319-8.844c-0.629-0.363-1.581-0.403-2.125-0.088l-8.983,5.187
			c-0.545,0.315-0.476,0.864,0.153,1.227l15.319,8.844c0.629,0.363,1.581,0.403,2.125,0.088l8.983-5.187
			C38.358,37.538,38.289,36.989,37.66,36.626z"/>
		<path class="st0" d="M37.66,36.623l-15.319-8.844c-0.629-0.363-1.581-0.403-2.125-0.088l-8.983,5.187
			c-0.545,0.315-0.476,0.864,0.153,1.227l15.319,8.844c0.629,0.363,1.581,0.403,2.125,0.088l8.983-5.187
			C38.358,37.535,38.289,36.986,37.66,36.623z"/>
		<path class="st0" d="M37.66,36.62l-15.319-8.844c-0.629-0.363-1.581-0.403-2.125-0.088l-8.983,5.187
			c-0.545,0.315-0.476,0.864,0.153,1.227l15.319,8.844c0.629,0.363,1.581,0.403,2.125,0.088l8.983-5.187
			C38.358,37.532,38.289,36.983,37.66,36.62z"/>
		<path class="st0" d="M37.66,36.617l-15.319-8.844c-0.629-0.363-1.581-0.403-2.125-0.088l-8.983,5.187
			c-0.545,0.315-0.476,0.864,0.153,1.227l15.319,8.844c0.629,0.363,1.581,0.403,2.125,0.088l8.983-5.187
			C38.358,37.529,38.289,36.98,37.66,36.617z"/>
		<path class="st0" d="M37.66,36.614l-15.319-8.844c-0.629-0.363-1.581-0.403-2.125-0.088l-8.983,5.187
			c-0.545,0.315-0.476,0.864,0.153,1.227l15.319,8.844c0.629,0.363,1.581,0.403,2.125,0.088l8.983-5.187
			C38.358,37.526,38.289,36.977,37.66,36.614z"/>
		<path class="st0" d="M37.66,36.611l-15.319-8.844c-0.629-0.363-1.581-0.403-2.125-0.088l-8.983,5.187
			c-0.545,0.315-0.476,0.864,0.153,1.227l15.319,8.844c0.629,0.363,1.581,0.403,2.125,0.088l8.983-5.187
			C38.358,37.523,38.289,36.974,37.66,36.611z"/>
		<path class="st0" d="M37.66,36.608l-15.319-8.844c-0.629-0.363-1.581-0.403-2.125-0.088l-8.983,5.187
			c-0.545,0.315-0.476,0.864,0.153,1.227l15.319,8.844c0.629,0.363,1.581,0.403,2.125,0.088l8.983-5.187
			C38.358,37.52,38.289,36.971,37.66,36.608z"/>
		<path class="st0" d="M37.66,36.605L22.342,27.76c-0.629-0.363-1.581-0.403-2.125-0.088l-8.983,5.187
			c-0.545,0.315-0.476,0.864,0.153,1.227l15.319,8.844c0.629,0.363,1.581,0.403,2.125,0.088l8.983-5.187
			C38.358,37.517,38.289,36.968,37.66,36.605z"/>
		<path class="st0" d="M37.66,36.602l-15.319-8.844c-0.629-0.363-1.581-0.403-2.125-0.088l-8.983,5.187
			c-0.545,0.315-0.476,0.864,0.153,1.227l15.319,8.844c0.629,0.363,1.581,0.403,2.125,0.088l8.983-5.187
			C38.358,37.514,38.289,36.965,37.66,36.602z"/>
		<path class="st0" d="M37.66,36.599l-15.319-8.844c-0.629-0.363-1.581-0.403-2.125-0.088l-8.983,5.187
			c-0.545,0.315-0.476,0.864,0.153,1.227l15.319,8.844c0.629,0.363,1.581,0.403,2.125,0.088l8.983-5.187
			C38.358,37.511,38.289,36.962,37.66,36.599z"/>
		<path class="st0" d="M37.66,36.596l-15.319-8.844c-0.629-0.363-1.581-0.403-2.125-0.088l-8.983,5.187
			c-0.545,0.315-0.476,0.864,0.153,1.227l15.319,8.844c0.629,0.363,1.581,0.403,2.125,0.088l8.983-5.187
			C38.358,37.508,38.289,36.959,37.66,36.596z"/>
		<path class="st0" d="M37.66,36.593l-15.319-8.844c-0.629-0.363-1.581-0.403-2.125-0.088l-8.983,5.187
			c-0.545,0.315-0.476,0.864,0.153,1.227l15.319,8.844c0.629,0.363,1.581,0.403,2.125,0.088l8.983-5.187
			C38.358,37.505,38.289,36.956,37.66,36.593z"/>
		<path class="st0" d="M37.66,36.59l-15.319-8.844c-0.629-0.363-1.581-0.403-2.125-0.088l-8.983,5.187
			c-0.545,0.315-0.476,0.864,0.153,1.227l15.319,8.844c0.629,0.363,1.581,0.403,2.125,0.088l8.983-5.187
			C38.358,37.502,38.289,36.953,37.66,36.59z"/>
		<path class="st0" d="M37.66,36.587l-15.319-8.844c-0.629-0.363-1.581-0.403-2.125-0.088l-8.983,5.187
			c-0.545,0.315-0.476,0.864,0.153,1.227l15.319,8.844c0.629,0.363,1.581,0.403,2.125,0.088l8.983-5.187
			C38.358,37.499,38.289,36.95,37.66,36.587z"/>
		<path class="st0" d="M37.66,36.584l-15.319-8.844c-0.629-0.363-1.581-0.403-2.125-0.088l-8.983,5.187
			c-0.545,0.315-0.476,0.864,0.153,1.227l15.319,8.844c0.629,0.363,1.581,0.403,2.125,0.088l8.983-5.187
			C38.358,37.496,38.289,36.947,37.66,36.584z"/>
		<path class="st0" d="M37.66,36.581l-15.319-8.844c-0.629-0.363-1.581-0.403-2.125-0.088l-8.983,5.187
			c-0.545,0.315-0.476,0.864,0.153,1.227l15.319,8.844c0.629,0.363,1.581,0.403,2.125,0.088l8.983-5.187
			C38.358,37.493,38.289,36.944,37.66,36.581z"/>
		<path class="st0" d="M37.66,36.578l-15.319-8.844c-0.629-0.363-1.581-0.403-2.125-0.088l-8.983,5.187
			c-0.545,0.315-0.476,0.864,0.153,1.227l15.319,8.844c0.629,0.363,1.581,0.403,2.125,0.088l8.983-5.187
			C38.358,37.49,38.289,36.941,37.66,36.578z"/>
		<path class="st0" d="M37.66,36.575L22.342,27.73c-0.629-0.363-1.581-0.403-2.125-0.088l-8.983,5.187
			c-0.545,0.315-0.476,0.864,0.153,1.227L26.704,42.9c0.629,0.363,1.581,0.403,2.125,0.088l8.983-5.187
			C38.358,37.487,38.289,36.938,37.66,36.575z"/>
		<path class="st0" d="M37.66,36.572l-15.319-8.844c-0.629-0.363-1.581-0.403-2.125-0.088l-8.983,5.187
			c-0.545,0.315-0.476,0.864,0.153,1.227l15.319,8.844c0.629,0.363,1.581,0.403,2.125,0.088l8.983-5.187
			C38.358,37.484,38.289,36.935,37.66,36.572z"/>
		<path class="st0" d="M37.66,36.569l-15.319-8.844c-0.629-0.363-1.581-0.403-2.125-0.088l-8.983,5.187
			c-0.545,0.315-0.476,0.864,0.153,1.227l15.319,8.844c0.629,0.363,1.581,0.403,2.125,0.088l8.983-5.187
			C38.358,37.481,38.289,36.932,37.66,36.569z"/>
		<path class="st0" d="M37.66,36.566l-15.319-8.844c-0.629-0.363-1.581-0.403-2.125-0.088l-8.983,5.187
			c-0.545,0.315-0.476,0.864,0.153,1.227l15.319,8.844c0.629,0.363,1.581,0.403,2.125,0.088l8.983-5.187
			C38.358,37.478,38.289,36.929,37.66,36.566z"/>
		<path class="st0" d="M37.66,36.563l-15.319-8.844c-0.629-0.363-1.581-0.403-2.125-0.088l-8.983,5.187
			c-0.545,0.315-0.476,0.864,0.153,1.227l15.319,8.844c0.629,0.363,1.581,0.403,2.125,0.088l8.983-5.187
			C38.358,37.475,38.289,36.926,37.66,36.563z"/>
		<path class="st0" d="M37.66,36.56l-15.319-8.844c-0.629-0.363-1.581-0.403-2.125-0.088l-8.983,5.187
			c-0.545,0.315-0.476,0.864,0.153,1.227l15.319,8.844c0.629,0.363,1.581,0.403,2.125,0.088l8.983-5.187
			C38.358,37.472,38.289,36.923,37.66,36.56z"/>
		<path class="st0" d="M37.66,36.557l-15.319-8.844c-0.629-0.363-1.581-0.403-2.125-0.088l-8.983,5.187
			c-0.545,0.315-0.476,0.864,0.153,1.227l15.319,8.844c0.629,0.363,1.581,0.403,2.125,0.088l8.983-5.187
			C38.358,37.469,38.289,36.92,37.66,36.557z"/>
		<path class="st0" d="M37.66,36.554l-15.319-8.844c-0.629-0.363-1.581-0.403-2.125-0.088l-8.983,5.187
			c-0.545,0.315-0.476,0.864,0.153,1.227l15.319,8.844c0.629,0.363,1.581,0.403,2.125,0.088l8.983-5.187
			C38.358,37.466,38.289,36.917,37.66,36.554z"/>
		<path class="st0" d="M37.66,36.551l-15.319-8.844c-0.629-0.363-1.581-0.403-2.125-0.088l-8.983,5.187
			c-0.545,0.315-0.476,0.864,0.153,1.227l15.319,8.844c0.629,0.363,1.581,0.403,2.125,0.088l8.983-5.187
			C38.358,37.463,38.289,36.914,37.66,36.551z"/>
		<path class="st0" d="M37.66,36.548l-15.319-8.844c-0.629-0.363-1.581-0.403-2.125-0.088l-8.983,5.187
			c-0.545,0.315-0.476,0.864,0.153,1.227l15.319,8.844c0.629,0.363,1.581,0.403,2.125,0.088l8.983-5.187
			C38.358,37.46,38.289,36.911,37.66,36.548z"/>
		<path class="st0" d="M37.66,36.545L22.342,27.7c-0.629-0.363-1.581-0.403-2.125-0.088l-8.983,5.187
			c-0.545,0.315-0.476,0.864,0.153,1.227l15.319,8.844c0.629,0.363,1.581,0.403,2.125,0.088l8.983-5.187
			C38.358,37.457,38.289,36.908,37.66,36.545z"/>
		<path class="st0" d="M37.66,36.542l-15.319-8.844c-0.629-0.363-1.581-0.403-2.125-0.088l-8.983,5.187
			c-0.545,0.315-0.476,0.864,0.153,1.227l15.319,8.844c0.629,0.363,1.581,0.403,2.125,0.088l8.983-5.187
			C38.358,37.454,38.289,36.905,37.66,36.542z"/>
		<path class="st0" d="M37.66,36.539l-15.319-8.844c-0.629-0.363-1.581-0.403-2.125-0.088l-8.983,5.187
			c-0.545,0.315-0.476,0.864,0.153,1.227l15.319,8.844c0.629,0.363,1.581,0.403,2.125,0.088l8.983-5.187
			C38.358,37.451,38.289,36.902,37.66,36.539z"/>
		<path class="st0" d="M37.66,36.536l-15.319-8.844c-0.629-0.363-1.581-0.403-2.125-0.088l-8.983,5.187
			c-0.545,0.315-0.476,0.864,0.153,1.227l15.319,8.844c0.629,0.363,1.581,0.403,2.125,0.088l8.983-5.187
			C38.358,37.448,38.289,36.899,37.66,36.536z"/>
		<path class="st0" d="M37.66,36.533l-15.319-8.844c-0.629-0.363-1.581-0.403-2.125-0.088l-8.983,5.187
			c-0.545,0.315-0.476,0.864,0.153,1.227l15.319,8.844c0.629,0.363,1.581,0.403,2.125,0.088l8.983-5.187
			C38.358,37.445,38.289,36.896,37.66,36.533z"/>
		<path class="st0" d="M37.66,36.53l-15.319-8.844c-0.629-0.363-1.581-0.403-2.125-0.088l-8.983,5.187
			c-0.545,0.315-0.476,0.864,0.153,1.227l15.319,8.844c0.629,0.363,1.581,0.403,2.125,0.088l8.983-5.187
			C38.358,37.442,38.289,36.893,37.66,36.53z"/>
		<path class="st0" d="M37.66,36.527l-15.319-8.844c-0.629-0.363-1.581-0.403-2.125-0.088l-8.983,5.187
			c-0.545,0.315-0.476,0.864,0.153,1.227l15.319,8.844c0.629,0.363,1.581,0.403,2.125,0.088l8.983-5.187
			C38.358,37.439,38.289,36.89,37.66,36.527z"/>
		<path class="st0" d="M37.66,36.524l-15.319-8.844c-0.629-0.363-1.581-0.403-2.125-0.088l-8.983,5.187
			c-0.545,0.315-0.476,0.864,0.153,1.227l15.319,8.844c0.629,0.363,1.581,0.403,2.125,0.088l8.983-5.187
			C38.358,37.436,38.289,36.887,37.66,36.524z"/>
		<path class="st0" d="M37.66,36.521l-15.319-8.844c-0.629-0.363-1.581-0.403-2.125-0.088l-8.983,5.187
			c-0.545,0.315-0.476,0.864,0.153,1.227l15.319,8.844c0.629,0.363,1.581,0.403,2.125,0.088l8.983-5.187
			C38.358,37.433,38.289,36.884,37.66,36.521z"/>
		<path class="st0" d="M37.66,36.518l-15.319-8.844c-0.629-0.363-1.581-0.403-2.125-0.088l-8.983,5.187
			c-0.545,0.315-0.476,0.864,0.153,1.227l15.319,8.844c0.629,0.363,1.581,0.403,2.125,0.088l8.983-5.187
			C38.358,37.43,38.289,36.881,37.66,36.518z"/>
		<path class="st0" d="M37.66,36.515L22.342,27.67c-0.629-0.363-1.581-0.403-2.125-0.088l-8.983,5.187
			c-0.545,0.315-0.476,0.864,0.153,1.227l15.319,8.844c0.629,0.363,1.581,0.403,2.125,0.088l8.983-5.187
			C38.358,37.427,38.289,36.878,37.66,36.515z"/>
		<path class="st0" d="M37.66,36.512l-15.319-8.844c-0.629-0.363-1.581-0.403-2.125-0.088l-8.983,5.187
			c-0.545,0.315-0.476,0.864,0.153,1.227l15.319,8.844c0.629,0.363,1.581,0.403,2.125,0.088l8.983-5.187
			C38.358,37.424,38.289,36.875,37.66,36.512z"/>
		<path class="st0" d="M37.66,36.509l-15.319-8.844c-0.629-0.363-1.581-0.403-2.125-0.088l-8.983,5.187
			c-0.545,0.315-0.476,0.864,0.153,1.227l15.319,8.844c0.629,0.363,1.581,0.403,2.125,0.088l8.983-5.187
			C38.358,37.421,38.289,36.872,37.66,36.509z"/>
		<path class="st0" d="M37.66,36.506l-15.319-8.844c-0.629-0.363-1.581-0.403-2.125-0.088l-8.983,5.187
			c-0.545,0.315-0.476,0.864,0.153,1.227l15.319,8.844c0.629,0.363,1.581,0.403,2.125,0.088l8.983-5.187
			C38.358,37.418,38.289,36.869,37.66,36.506z"/>
		<path class="st0" d="M37.66,36.503l-15.319-8.844c-0.629-0.363-1.581-0.403-2.125-0.088l-8.983,5.187
			c-0.545,0.315-0.476,0.864,0.153,1.227l15.319,8.844c0.629,0.363,1.581,0.403,2.125,0.088l8.983-5.187
			C38.358,37.415,38.289,36.866,37.66,36.503z"/>
		<path class="st0" d="M37.66,36.5l-15.319-8.844c-0.629-0.363-1.581-0.403-2.125-0.088l-8.983,5.187
			c-0.545,0.315-0.476,0.864,0.153,1.227l15.319,8.844c0.629,0.363,1.581,0.403,2.125,0.088l8.983-5.187
			C38.358,37.412,38.289,36.863,37.66,36.5z"/>
		<path class="st0" d="M37.66,36.497l-15.319-8.844c-0.629-0.363-1.581-0.403-2.125-0.088l-8.983,5.187
			c-0.545,0.315-0.476,0.864,0.153,1.227l15.319,8.844c0.629,0.363,1.581,0.403,2.125,0.088l8.983-5.187
			C38.358,37.409,38.289,36.86,37.66,36.497z"/>
		<path class="st0" d="M37.66,36.494l-15.319-8.844c-0.629-0.363-1.581-0.403-2.125-0.088l-8.983,5.187
			c-0.545,0.315-0.476,0.864,0.153,1.227l15.319,8.844c0.629,0.363,1.581,0.403,2.125,0.088l8.983-5.187
			C38.358,37.406,38.289,36.857,37.66,36.494z"/>
		<path class="st0" d="M37.66,36.491l-15.319-8.844c-0.629-0.363-1.581-0.403-2.125-0.088l-8.983,5.187
			c-0.545,0.315-0.476,0.864,0.153,1.227l15.319,8.844c0.629,0.363,1.581,0.403,2.125,0.088l8.983-5.187
			C38.358,37.403,38.289,36.854,37.66,36.491z"/>
		<path class="st0" d="M37.66,36.488l-15.319-8.844c-0.629-0.363-1.581-0.403-2.125-0.088l-8.983,5.187
			c-0.545,0.315-0.476,0.864,0.153,1.227l15.319,8.844c0.629,0.363,1.581,0.403,2.125,0.088l8.983-5.187
			C38.358,37.4,38.289,36.851,37.66,36.488z"/>
		<path class="st0" d="M37.66,36.485L22.342,27.64c-0.629-0.363-1.581-0.403-2.125-0.088l-8.983,5.187
			c-0.545,0.315-0.476,0.864,0.153,1.227l15.319,8.844c0.629,0.363,1.581,0.403,2.125,0.088l8.983-5.187
			C38.358,37.397,38.289,36.848,37.66,36.485z"/>
		<path class="st0" d="M37.66,36.482l-15.319-8.844c-0.629-0.363-1.581-0.403-2.125-0.088l-8.983,5.187
			c-0.545,0.315-0.476,0.864,0.153,1.227l15.319,8.844c0.629,0.363,1.581,0.403,2.125,0.088l8.983-5.187
			C38.358,37.394,38.289,36.845,37.66,36.482z"/>
		<path class="st0" d="M37.66,36.479l-15.319-8.844c-0.629-0.363-1.581-0.403-2.125-0.088l-8.983,5.187
			c-0.545,0.315-0.476,0.864,0.153,1.227l15.319,8.844c0.629,0.363,1.581,0.403,2.125,0.088l8.983-5.187
			C38.358,37.391,38.289,36.842,37.66,36.479z"/>
		<path class="st0" d="M37.66,36.475l-15.319-8.844c-0.629-0.363-1.581-0.403-2.125-0.088l-8.983,5.187
			c-0.545,0.315-0.476,0.864,0.153,1.227l15.319,8.844c0.629,0.363,1.581,0.403,2.125,0.088l8.983-5.187
			C38.358,37.388,38.289,36.839,37.66,36.475z"/>
		<path class="st0" d="M37.66,36.472l-15.319-8.844c-0.629-0.363-1.581-0.403-2.125-0.088l-8.983,5.187
			c-0.545,0.315-0.476,0.864,0.153,1.227l15.319,8.844c0.629,0.363,1.581,0.403,2.125,0.088l8.983-5.187
			C38.358,37.385,38.289,36.836,37.66,36.472z"/>
		<path class="st0" d="M37.66,36.469l-15.319-8.844c-0.629-0.363-1.581-0.403-2.125-0.088l-8.983,5.187
			c-0.545,0.315-0.476,0.864,0.153,1.227l15.319,8.844c0.629,0.363,1.581,0.403,2.125,0.088l8.983-5.187
			C38.358,37.382,38.289,36.833,37.66,36.469z"/>
		<path class="st0" d="M37.66,36.466l-15.319-8.844c-0.629-0.363-1.581-0.403-2.125-0.088l-8.983,5.187
			c-0.545,0.315-0.476,0.864,0.153,1.227l15.319,8.844c0.629,0.363,1.581,0.403,2.125,0.088l8.983-5.187
			C38.358,37.379,38.289,36.83,37.66,36.466z"/>
		<path class="st0" d="M37.66,36.463l-15.319-8.844c-0.629-0.363-1.581-0.403-2.125-0.088l-8.983,5.187
			c-0.545,0.315-0.476,0.864,0.153,1.227l15.319,8.844c0.629,0.363,1.581,0.403,2.125,0.088l8.983-5.187
			C38.358,37.376,38.289,36.827,37.66,36.463z"/>
		<path class="st0" d="M37.66,36.46l-15.319-8.844c-0.629-0.363-1.581-0.403-2.125-0.088l-8.983,5.187
			c-0.545,0.315-0.476,0.864,0.153,1.227l15.319,8.844c0.629,0.363,1.581,0.403,2.125,0.088l8.983-5.187
			C38.358,37.373,38.289,36.824,37.66,36.46z"/>
		<path class="st0" d="M37.66,36.457l-15.319-8.844c-0.629-0.363-1.581-0.403-2.125-0.088l-8.983,5.187
			c-0.545,0.315-0.476,0.864,0.153,1.227l15.319,8.844c0.629,0.363,1.581,0.403,2.125,0.088l8.983-5.187
			C38.358,37.37,38.289,36.821,37.66,36.457z"/>
		<path class="st0" d="M37.66,36.454L22.342,27.61c-0.629-0.363-1.581-0.403-2.125-0.088l-8.983,5.187
			c-0.545,0.315-0.476,0.864,0.153,1.227l15.319,8.844c0.629,0.363,1.581,0.403,2.125,0.088l8.983-5.187
			C38.358,37.367,38.289,36.818,37.66,36.454z"/>
		<path class="st0" d="M37.66,36.451l-15.319-8.844c-0.629-0.363-1.581-0.403-2.125-0.088l-8.983,5.187
			c-0.545,0.315-0.476,0.864,0.153,1.227l15.319,8.844c0.629,0.363,1.581,0.403,2.125,0.088l8.983-5.187
			C38.358,37.364,38.289,36.815,37.66,36.451z"/>
		<path class="st0" d="M37.66,36.448l-15.319-8.844c-0.629-0.363-1.581-0.403-2.125-0.088l-8.983,5.187
			c-0.545,0.315-0.476,0.864,0.153,1.227l15.319,8.844c0.629,0.363,1.581,0.403,2.125,0.088l8.983-5.187
			C38.358,37.361,38.289,36.812,37.66,36.448z"/>
		<path class="st0" d="M37.66,36.445l-15.319-8.844c-0.629-0.363-1.581-0.403-2.125-0.088L11.233,32.7
			c-0.545,0.315-0.476,0.864,0.153,1.227l15.319,8.844c0.629,0.363,1.581,0.403,2.125,0.088l8.983-5.187
			C38.358,37.358,38.289,36.809,37.66,36.445z"/>
		<path class="st0" d="M37.66,36.442l-15.319-8.844c-0.629-0.363-1.581-0.403-2.125-0.088l-8.983,5.187
			c-0.545,0.315-0.476,0.864,0.153,1.227l15.319,8.844c0.629,0.363,1.581,0.403,2.125,0.088l8.983-5.187
			C38.358,37.355,38.289,36.806,37.66,36.442z"/>
		<path class="st0" d="M37.66,36.439l-15.319-8.844c-0.629-0.363-1.581-0.403-2.125-0.088l-8.983,5.187
			c-0.545,0.315-0.476,0.864,0.153,1.227l15.319,8.844c0.629,0.363,1.581,0.403,2.125,0.088l8.983-5.187
			C38.358,37.352,38.289,36.803,37.66,36.439z"/>
		<path class="st0" d="M37.66,36.436l-15.319-8.844c-0.629-0.363-1.581-0.403-2.125-0.088l-8.983,5.187
			c-0.545,0.315-0.476,0.864,0.153,1.227l15.319,8.844c0.629,0.363,1.581,0.403,2.125,0.088l8.983-5.187
			C38.358,37.349,38.289,36.8,37.66,36.436z"/>
		<path class="st0" d="M37.66,36.433l-15.319-8.844c-0.629-0.363-1.581-0.403-2.125-0.088l-8.983,5.187
			c-0.545,0.315-0.476,0.864,0.153,1.227l15.319,8.844c0.629,0.363,1.581,0.403,2.125,0.088l8.983-5.187
			C38.358,37.346,38.289,36.797,37.66,36.433z"/>
		<path class="st0" d="M37.66,36.43l-15.319-8.844c-0.629-0.363-1.581-0.403-2.125-0.088l-8.983,5.187
			c-0.545,0.315-0.476,0.864,0.153,1.227l15.319,8.844c0.629,0.363,1.581,0.403,2.125,0.088l8.983-5.187
			C38.358,37.343,38.289,36.794,37.66,36.43z"/>
		<path class="st0" d="M37.66,36.427l-15.319-8.844c-0.629-0.363-1.581-0.403-2.125-0.088l-8.983,5.187
			c-0.545,0.315-0.476,0.864,0.153,1.227l15.319,8.844c0.629,0.363,1.581,0.403,2.125,0.088l8.983-5.187
			C38.358,37.34,38.289,36.791,37.66,36.427z"/>
		<path class="st0" d="M37.66,36.424L22.342,27.58c-0.629-0.363-1.581-0.403-2.125-0.088l-8.983,5.187
			c-0.545,0.315-0.476,0.864,0.153,1.227l15.319,8.844c0.629,0.363,1.581,0.403,2.125,0.088l8.983-5.187
			C38.358,37.337,38.289,36.788,37.66,36.424z"/>
		<path class="st0" d="M37.66,36.421l-15.319-8.844c-0.629-0.363-1.581-0.403-2.125-0.088l-8.983,5.187
			c-0.545,0.315-0.476,0.864,0.153,1.227l15.319,8.844c0.629,0.363,1.581,0.403,2.125,0.088l8.983-5.187
			C38.358,37.334,38.289,36.785,37.66,36.421z"/>
		<path class="st0" d="M37.66,36.418l-15.319-8.844c-0.629-0.363-1.581-0.403-2.125-0.088l-8.983,5.187
			c-0.545,0.315-0.476,0.864,0.153,1.227l15.319,8.844c0.629,0.363,1.581,0.403,2.125,0.088l8.983-5.187
			C38.358,37.331,38.289,36.782,37.66,36.418z"/>
		<path class="st0" d="M37.66,36.415l-15.319-8.844c-0.629-0.363-1.581-0.403-2.125-0.088l-8.983,5.187
			c-0.545,0.315-0.476,0.864,0.153,1.227l15.319,8.844c0.629,0.363,1.581,0.403,2.125,0.088l8.983-5.187
			C38.358,37.328,38.289,36.779,37.66,36.415z"/>
		<path class="st0" d="M37.66,36.412l-15.319-8.844c-0.629-0.363-1.581-0.403-2.125-0.088l-8.983,5.187
			c-0.545,0.315-0.476,0.864,0.153,1.227l15.319,8.844c0.629,0.363,1.581,0.403,2.125,0.088l8.983-5.187
			C38.358,37.325,38.289,36.776,37.66,36.412z"/>
		<path class="st0" d="M37.66,36.409l-15.319-8.844c-0.629-0.363-1.581-0.403-2.125-0.088l-8.983,5.187
			c-0.545,0.315-0.476,0.864,0.153,1.227l15.319,8.844c0.629,0.363,1.581,0.403,2.125,0.088l8.983-5.187
			C38.358,37.322,38.289,36.773,37.66,36.409z"/>
		<path class="st0" d="M37.66,36.406l-15.319-8.844c-0.629-0.363-1.581-0.403-2.125-0.088l-8.983,5.187
			c-0.545,0.315-0.476,0.864,0.153,1.227l15.319,8.844c0.629,0.363,1.581,0.403,2.125,0.088l8.983-5.187
			C38.358,37.319,38.289,36.77,37.66,36.406z"/>
		<path class="st0" d="M37.66,36.403l-15.319-8.844c-0.629-0.363-1.581-0.403-2.125-0.088l-8.983,5.187
			c-0.545,0.315-0.476,0.864,0.153,1.227l15.319,8.844c0.629,0.363,1.581,0.403,2.125,0.088l8.983-5.187
			C38.358,37.316,38.289,36.767,37.66,36.403z"/>
		<path class="st0" d="M37.66,36.4l-15.319-8.844c-0.629-0.363-1.581-0.403-2.125-0.088l-8.983,5.187
			c-0.545,0.315-0.476,0.864,0.153,1.227l15.319,8.844c0.629,0.363,1.581,0.403,2.125,0.088l8.983-5.187
			C38.358,37.313,38.289,36.764,37.66,36.4z"/>
		<path class="st0" d="M37.66,36.397l-15.319-8.844c-0.629-0.363-1.581-0.403-2.125-0.088l-8.983,5.187
			c-0.545,0.315-0.476,0.864,0.153,1.227l15.319,8.844c0.629,0.363,1.581,0.403,2.125,0.088l8.983-5.187
			C38.358,37.31,38.289,36.761,37.66,36.397z"/>
		<path class="st0" d="M37.66,36.394L22.342,27.55c-0.629-0.363-1.581-0.403-2.125-0.088l-8.983,5.187
			c-0.545,0.315-0.476,0.864,0.153,1.227l15.319,8.844c0.629,0.363,1.581,0.403,2.125,0.088l8.983-5.187
			C38.358,37.307,38.289,36.758,37.66,36.394z"/>
		<path class="st0" d="M37.66,36.391l-15.319-8.844c-0.629-0.363-1.581-0.403-2.125-0.088l-8.983,5.187
			c-0.545,0.315-0.476,0.864,0.153,1.227l15.319,8.844c0.629,0.363,1.581,0.403,2.125,0.088l8.983-5.187
			C38.358,37.304,38.289,36.755,37.66,36.391z"/>
		<path class="st0" d="M37.66,36.388l-15.319-8.844c-0.629-0.363-1.581-0.403-2.125-0.088l-8.983,5.187
			c-0.545,0.315-0.476,0.864,0.153,1.227l15.319,8.844c0.629,0.363,1.581,0.403,2.125,0.088l8.983-5.187
			C38.358,37.301,38.289,36.752,37.66,36.388z"/>
		<path class="st0" d="M37.66,36.385l-15.319-8.844c-0.629-0.363-1.581-0.403-2.125-0.088l-8.983,5.187
			c-0.545,0.315-0.476,0.864,0.153,1.227l15.319,8.844c0.629,0.363,1.581,0.403,2.125,0.088l8.983-5.187
			C38.358,37.298,38.289,36.749,37.66,36.385z"/>
		<path class="st0" d="M37.66,36.382l-15.319-8.844c-0.629-0.363-1.581-0.403-2.125-0.088l-8.983,5.187
			c-0.545,0.315-0.476,0.864,0.153,1.227l15.319,8.844c0.629,0.363,1.581,0.403,2.125,0.088l8.983-5.187
			C38.358,37.295,38.289,36.746,37.66,36.382z"/>
		<path class="st0" d="M37.66,36.379l-15.319-8.844c-0.629-0.363-1.581-0.403-2.125-0.088l-8.983,5.187
			c-0.545,0.315-0.476,0.864,0.153,1.227l15.319,8.844c0.629,0.363,1.581,0.403,2.125,0.088l8.983-5.187
			C38.358,37.292,38.289,36.743,37.66,36.379z"/>
		<path class="st0" d="M37.66,36.376l-15.319-8.844c-0.629-0.363-1.581-0.403-2.125-0.088l-8.983,5.187
			c-0.545,0.315-0.476,0.864,0.153,1.227l15.319,8.844c0.629,0.363,1.581,0.403,2.125,0.088l8.983-5.187
			C38.358,37.289,38.289,36.74,37.66,36.376z"/>
		<path class="st0" d="M37.66,36.373l-15.319-8.844c-0.629-0.363-1.581-0.403-2.125-0.088l-8.983,5.187
			c-0.545,0.315-0.476,0.864,0.153,1.227l15.319,8.844c0.629,0.363,1.581,0.403,2.125,0.088l8.983-5.187
			C38.358,37.286,38.289,36.737,37.66,36.373z"/>
		<path class="st0" d="M37.66,36.37l-15.319-8.844c-0.629-0.363-1.581-0.403-2.125-0.088l-8.983,5.187
			c-0.545,0.315-0.476,0.864,0.153,1.227l15.319,8.844c0.629,0.363,1.581,0.403,2.125,0.088l8.983-5.187
			C38.358,37.283,38.289,36.734,37.66,36.37z"/>
		<path class="st0" d="M37.66,36.367l-15.319-8.844c-0.629-0.363-1.581-0.403-2.125-0.088l-8.983,5.187
			c-0.545,0.315-0.476,0.864,0.153,1.227l15.319,8.844c0.629,0.363,1.581,0.403,2.125,0.088l8.983-5.187
			C38.358,37.28,38.289,36.731,37.66,36.367z"/>
		<path class="st0" d="M37.66,36.364L22.342,27.52c-0.629-0.363-1.581-0.403-2.125-0.088l-8.983,5.187
			c-0.545,0.315-0.476,0.864,0.153,1.227l15.319,8.844c0.629,0.363,1.581,0.403,2.125,0.088l8.983-5.187
			C38.358,37.277,38.289,36.728,37.66,36.364z"/>
		<path class="st0" d="M37.66,36.361l-15.319-8.844c-0.629-0.363-1.581-0.403-2.125-0.088l-8.983,5.187
			c-0.545,0.315-0.476,0.864,0.153,1.227l15.319,8.844c0.629,0.363,1.581,0.403,2.125,0.088l8.983-5.187
			C38.358,37.274,38.289,36.725,37.66,36.361z"/>
		<path class="st0" d="M37.66,36.358l-15.319-8.844c-0.629-0.363-1.581-0.403-2.125-0.088l-8.983,5.187
			c-0.545,0.315-0.476,0.864,0.153,1.227l15.319,8.844c0.629,0.363,1.581,0.403,2.125,0.088l8.983-5.187
			C38.358,37.271,38.289,36.722,37.66,36.358z"/>
		<path class="st0" d="M37.66,36.355l-15.319-8.844c-0.629-0.363-1.581-0.403-2.125-0.088l-8.983,5.187
			c-0.545,0.315-0.476,0.864,0.153,1.227l15.319,8.844c0.629,0.363,1.581,0.403,2.125,0.088l8.983-5.187
			C38.358,37.268,38.289,36.719,37.66,36.355z"/>
		<path class="st0" d="M37.66,36.352l-15.319-8.844c-0.629-0.363-1.581-0.403-2.125-0.088l-8.983,5.187
			c-0.545,0.315-0.476,0.864,0.153,1.227l15.319,8.844c0.629,0.363,1.581,0.403,2.125,0.088l8.983-5.187
			C38.358,37.265,38.289,36.716,37.66,36.352z"/>
		<path class="st0" d="M37.66,36.349l-15.319-8.844c-0.629-0.363-1.581-0.403-2.125-0.088l-8.983,5.187
			c-0.545,0.315-0.476,0.864,0.153,1.227l15.319,8.844c0.629,0.363,1.581,0.403,2.125,0.088l8.983-5.187
			C38.358,37.262,38.289,36.713,37.66,36.349z"/>
		<path class="st0" d="M37.66,36.346l-15.319-8.844c-0.629-0.363-1.581-0.403-2.125-0.088l-8.983,5.187
			c-0.545,0.315-0.476,0.864,0.153,1.227l15.319,8.844c0.629,0.363,1.581,0.403,2.125,0.088l8.983-5.187
			C38.358,37.259,38.289,36.71,37.66,36.346z"/>
	</g>
	<g>
		<path class="st1" d="M37.813,37.573l-8.983,5.187c-0.545,0.315-1.496,0.275-2.125-0.088l-15.319-8.844
			c-0.629-0.363-0.697-0.913-0.153-1.227l8.983-5.187c0.545-0.315,1.496-0.275,2.125,0.088l15.319,8.844
			C38.289,36.71,38.358,37.259,37.813,37.573z"/>
		<g>
			
				<ellipse transform="matrix(0.9999 -0.0162 0.0162 0.9999 -0.4918 0.2735)" class="st2" cx="16.667" cy="30.552" rx="0.548" ry="0.316"/>
			
				<ellipse transform="matrix(0.9999 -0.0162 0.0162 0.9999 -0.4918 0.2735)" class="st3" cx="16.667" cy="30.552" rx="0.249" ry="0.144"/>
		</g>
		<polygon class="st4" points="37.147,36.762 27.471,42.349 12.563,33.768 22.238,28.182 		"/>
	</g>
	<g>
		<polygon class="st5" points="31.086,34.366 23.496,38.913 24.122,39.261 31.711,34.714 		"/>
		<polygon class="st5" points="30.017,33.66 22.428,38.207 23.053,38.555 30.643,34.008 		"/>
		<polygon class="st5" points="32.064,34.91 24.474,39.457 25.1,39.805 32.689,35.258 		"/>
		<polygon class="st5" points="33.042,35.454 25.453,40.001 26.078,40.349 33.667,35.802 		"/>
		<polygon class="st5" points="19.402,32.242 15.852,34.369 18.659,35.93 22.209,33.803 		"/>
		<polygon class="st5" points="22.869,34.17 19.319,36.297 19.944,36.644 23.494,34.518 		"/>
		<polygon class="st5" points="23.847,34.714 20.297,36.841 20.922,37.188 24.472,35.061 		"/>
		<polygon class="st5" points="24.825,35.258 21.275,37.384 21.9,37.732 25.45,35.605 		"/>
		<polygon class="st5" points="26.243,31.387 23.435,29.826 19.885,31.953 22.693,33.513 		"/>
		<polygon class="st5" points="23.978,34.228 27.528,32.101 26.902,31.753 23.352,33.88 		"/>
		<polygon class="st5" points="24.956,34.772 28.506,32.645 27.88,32.297 24.33,34.424 		"/>
		<polygon class="st5" points="25.934,35.315 29.484,33.189 28.858,32.841 25.308,34.968 		"/>
	</g>
</g>
</svg>
