<?xml version="1.0" encoding="utf-8"?>
<!-- Generator: Adobe Illustrator 25.4.1, SVG Export Plug-In . SVG Version: 6.00 Build 0)  -->
<svg version="1.1" id="Layer_1" xmlns="http://www.w3.org/2000/svg" xmlns:xlink="http://www.w3.org/1999/xlink" x="0px" y="0px"
	 viewBox="0 0 50 50" style="enable-background:new 0 0 50 50;" xml:space="preserve">
<style type="text/css">
	.st0{opacity:0.05;}
	.st1{fill:#231F20;}
	.st2{fill:#1A1A1A;}
	.st3{fill:#4D4D4D;}
	.st4{fill:#FFFFFF;}
	.st5{fill:#DFDFDF;}
</style>
<g>
	<path class="st0" d="M10.358,36.867c1.187-0.331,18.276-8.001,18.979-8.001c0.703,0,7.791,4.409,7.969,4.51
		c0,0,0.714,0.302,0.271,0.746s-15.271,8.949-16.23,9.411c-0.959,0.462-1.622,0.426-2.693,0s-8.783-5.023-9.31-5.551
		C8.816,37.454,9.171,37.197,10.358,36.867z"/>
	<g>
		<path class="st0" d="M10.276,36.543l15.319-8.844c0.629-0.363,1.581-0.403,2.125-0.088l8.983,5.187
			c0.545,0.315,0.476,0.864-0.153,1.227l-15.319,8.844c-0.629,0.363-1.581,0.403-2.125,0.088l-8.983-5.187
			C9.579,37.456,9.647,36.906,10.276,36.543z"/>
		<path class="st0" d="M10.276,36.54l15.319-8.844c0.629-0.363,1.581-0.403,2.125-0.088l8.983,5.187
			c0.545,0.315,0.476,0.864-0.153,1.227l-15.319,8.844c-0.629,0.363-1.581,0.403-2.125,0.088l-8.983-5.187
			C9.579,37.453,9.647,36.903,10.276,36.54z"/>
		<path class="st0" d="M10.276,36.537l15.319-8.844c0.629-0.363,1.581-0.403,2.125-0.088l8.983,5.187
			c0.545,0.315,0.476,0.864-0.153,1.227l-15.319,8.844c-0.629,0.363-1.581,0.403-2.125,0.088l-8.983-5.187
			C9.579,37.45,9.647,36.9,10.276,36.537z"/>
		<path class="st0" d="M10.276,36.534l15.319-8.844c0.629-0.363,1.581-0.403,2.125-0.088l8.983,5.187
			c0.545,0.315,0.476,0.864-0.153,1.227L21.232,42.86c-0.629,0.363-1.581,0.403-2.125,0.088l-8.983-5.187
			C9.579,37.447,9.647,36.897,10.276,36.534z"/>
		<path class="st0" d="M10.276,36.531l15.319-8.844c0.629-0.363,1.581-0.403,2.125-0.088l8.983,5.187
			c0.545,0.315,0.476,0.864-0.153,1.227l-15.319,8.844c-0.629,0.363-1.581,0.403-2.125,0.088l-8.983-5.187
			C9.579,37.444,9.647,36.894,10.276,36.531z"/>
		<path class="st0" d="M10.276,36.528l15.319-8.844c0.629-0.363,1.581-0.403,2.125-0.088l8.983,5.187
			c0.545,0.315,0.476,0.864-0.153,1.227l-15.319,8.844c-0.629,0.363-1.581,0.403-2.125,0.088l-8.983-5.187
			C9.579,37.441,9.647,36.891,10.276,36.528z"/>
		<path class="st0" d="M10.276,36.525l15.319-8.844c0.629-0.363,1.581-0.403,2.125-0.088l8.983,5.187
			c0.545,0.315,0.476,0.864-0.153,1.227l-15.319,8.844c-0.629,0.363-1.581,0.403-2.125,0.088l-8.983-5.187
			C9.579,37.438,9.647,36.888,10.276,36.525z"/>
		<path class="st0" d="M10.276,36.522l15.319-8.844c0.629-0.363,1.581-0.403,2.125-0.088l8.983,5.187
			c0.545,0.315,0.476,0.864-0.153,1.227l-15.319,8.844c-0.629,0.363-1.581,0.403-2.125,0.088l-8.983-5.187
			C9.579,37.435,9.647,36.885,10.276,36.522z"/>
		<path class="st0" d="M10.276,36.519l15.319-8.844c0.629-0.363,1.581-0.403,2.125-0.088l8.983,5.187
			c0.545,0.315,0.476,0.864-0.153,1.227l-15.319,8.844c-0.629,0.363-1.581,0.403-2.125,0.088l-8.983-5.187
			C9.579,37.432,9.647,36.882,10.276,36.519z"/>
		<path class="st0" d="M10.276,36.516l15.319-8.844c0.629-0.363,1.581-0.403,2.125-0.088l8.983,5.187
			c0.545,0.315,0.476,0.864-0.153,1.227l-15.319,8.844c-0.629,0.363-1.581,0.403-2.125,0.088l-8.983-5.187
			C9.579,37.429,9.647,36.879,10.276,36.516z"/>
		<path class="st0" d="M10.276,36.513l15.319-8.844c0.629-0.363,1.581-0.403,2.125-0.088l8.983,5.187
			c0.545,0.315,0.476,0.864-0.153,1.227l-15.319,8.844c-0.629,0.363-1.581,0.403-2.125,0.088l-8.983-5.187
			C9.579,37.426,9.647,36.876,10.276,36.513z"/>
		<path class="st0" d="M10.276,36.51l15.319-8.844c0.629-0.363,1.581-0.403,2.125-0.088l8.983,5.187
			c0.545,0.315,0.476,0.864-0.153,1.227l-15.319,8.844c-0.629,0.363-1.581,0.403-2.125,0.088l-8.983-5.187
			C9.579,37.423,9.647,36.873,10.276,36.51z"/>
		<path class="st0" d="M10.276,36.507l15.319-8.844c0.629-0.363,1.581-0.403,2.125-0.088l8.983,5.187
			c0.545,0.315,0.476,0.864-0.153,1.227l-15.319,8.844c-0.629,0.363-1.581,0.403-2.125,0.088l-8.983-5.187
			C9.579,37.42,9.647,36.87,10.276,36.507z"/>
		<path class="st0" d="M10.276,36.504l15.319-8.844c0.629-0.363,1.581-0.403,2.125-0.088l8.983,5.187
			c0.545,0.315,0.476,0.864-0.153,1.227L21.232,42.83c-0.629,0.363-1.581,0.403-2.125,0.088l-8.983-5.187
			C9.579,37.417,9.647,36.867,10.276,36.504z"/>
		<path class="st0" d="M10.276,36.501l15.319-8.844c0.629-0.363,1.581-0.403,2.125-0.088l8.983,5.187
			c0.545,0.315,0.476,0.864-0.153,1.227l-15.319,8.844c-0.629,0.363-1.581,0.403-2.125,0.088l-8.983-5.187
			C9.579,37.414,9.647,36.864,10.276,36.501z"/>
		<path class="st0" d="M10.276,36.498l15.319-8.844c0.629-0.363,1.581-0.403,2.125-0.088l8.983,5.187
			c0.545,0.315,0.476,0.864-0.153,1.227l-15.319,8.844c-0.629,0.363-1.581,0.403-2.125,0.088l-8.983-5.187
			C9.579,37.411,9.647,36.861,10.276,36.498z"/>
		<path class="st0" d="M10.276,36.495l15.319-8.844c0.629-0.363,1.581-0.403,2.125-0.088l8.983,5.187
			c0.545,0.315,0.476,0.864-0.153,1.227l-15.319,8.844c-0.629,0.363-1.581,0.403-2.125,0.088l-8.983-5.187
			C9.579,37.408,9.647,36.858,10.276,36.495z"/>
		<path class="st0" d="M10.276,36.492l15.319-8.844c0.629-0.363,1.581-0.403,2.125-0.088l8.983,5.187
			c0.545,0.315,0.476,0.864-0.153,1.227l-15.319,8.844c-0.629,0.363-1.581,0.403-2.125,0.088l-8.983-5.187
			C9.579,37.405,9.647,36.855,10.276,36.492z"/>
		<path class="st0" d="M10.276,36.489l15.319-8.844c0.629-0.363,1.581-0.403,2.125-0.088l8.983,5.187
			c0.545,0.315,0.476,0.864-0.153,1.227l-15.319,8.844c-0.629,0.363-1.581,0.403-2.125,0.088l-8.983-5.187
			C9.579,37.402,9.647,36.852,10.276,36.489z"/>
		<path class="st0" d="M10.276,36.486l15.319-8.844c0.629-0.363,1.581-0.403,2.125-0.088l8.983,5.187
			c0.545,0.315,0.476,0.864-0.153,1.227l-15.319,8.844c-0.629,0.363-1.581,0.403-2.125,0.088l-8.983-5.187
			C9.579,37.399,9.647,36.849,10.276,36.486z"/>
		<path class="st0" d="M10.276,36.483l15.319-8.844c0.629-0.363,1.581-0.403,2.125-0.088l8.983,5.187
			c0.545,0.315,0.476,0.864-0.153,1.227l-15.319,8.844c-0.629,0.363-1.581,0.403-2.125,0.088l-8.983-5.187
			C9.579,37.396,9.647,36.846,10.276,36.483z"/>
		<path class="st0" d="M10.276,36.48l15.319-8.844c0.629-0.363,1.581-0.403,2.125-0.088l8.983,5.187
			c0.545,0.315,0.476,0.864-0.153,1.227l-15.319,8.844c-0.629,0.363-1.581,0.403-2.125,0.088l-8.983-5.187
			C9.579,37.393,9.647,36.843,10.276,36.48z"/>
		<path class="st0" d="M10.276,36.477l15.319-8.844c0.629-0.363,1.581-0.403,2.125-0.088l8.983,5.187
			c0.545,0.315,0.476,0.864-0.153,1.227l-15.319,8.844c-0.629,0.363-1.581,0.403-2.125,0.088l-8.983-5.187
			C9.579,37.39,9.647,36.84,10.276,36.477z"/>
		<path class="st0" d="M10.276,36.474l15.319-8.844c0.629-0.363,1.581-0.403,2.125-0.088l8.983,5.187
			c0.545,0.315,0.476,0.864-0.153,1.227L21.232,42.8c-0.629,0.363-1.581,0.403-2.125,0.088l-8.983-5.187
			C9.579,37.387,9.647,36.837,10.276,36.474z"/>
		<path class="st0" d="M10.276,36.471l15.319-8.844c0.629-0.363,1.581-0.403,2.125-0.088l8.983,5.187
			c0.545,0.315,0.476,0.864-0.153,1.227l-15.319,8.844c-0.629,0.363-1.581,0.403-2.125,0.088l-8.983-5.187
			C9.579,37.384,9.647,36.834,10.276,36.471z"/>
		<path class="st0" d="M10.276,36.468l15.319-8.844c0.629-0.363,1.581-0.403,2.125-0.088l8.983,5.187
			c0.545,0.315,0.476,0.864-0.153,1.227l-15.319,8.844c-0.629,0.363-1.581,0.403-2.125,0.088l-8.983-5.187
			C9.579,37.381,9.647,36.831,10.276,36.468z"/>
		<path class="st0" d="M10.276,36.465l15.319-8.844c0.629-0.363,1.581-0.403,2.125-0.088l8.983,5.187
			c0.545,0.315,0.476,0.864-0.153,1.227l-15.319,8.844c-0.629,0.363-1.581,0.403-2.125,0.088l-8.983-5.187
			C9.579,37.378,9.647,36.828,10.276,36.465z"/>
		<path class="st0" d="M10.276,36.462l15.319-8.844c0.629-0.363,1.581-0.403,2.125-0.088l8.983,5.187
			c0.545,0.315,0.476,0.864-0.153,1.227l-15.319,8.844c-0.629,0.363-1.581,0.403-2.125,0.088l-8.983-5.187
			C9.579,37.375,9.647,36.825,10.276,36.462z"/>
		<path class="st0" d="M10.276,36.459l15.319-8.844c0.629-0.363,1.581-0.403,2.125-0.088l8.983,5.187
			c0.545,0.315,0.476,0.864-0.153,1.227l-15.319,8.844c-0.629,0.363-1.581,0.403-2.125,0.088l-8.983-5.187
			C9.579,37.372,9.647,36.822,10.276,36.459z"/>
		<path class="st0" d="M10.276,36.456l15.319-8.844c0.629-0.363,1.581-0.403,2.125-0.088l8.983,5.187
			c0.545,0.315,0.476,0.864-0.153,1.227l-15.319,8.844c-0.629,0.363-1.581,0.403-2.125,0.088l-8.983-5.187
			C9.579,37.369,9.647,36.819,10.276,36.456z"/>
		<path class="st0" d="M10.276,36.453l15.319-8.844c0.629-0.363,1.581-0.403,2.125-0.088l8.983,5.187
			c0.545,0.315,0.476,0.864-0.153,1.227l-15.319,8.844c-0.629,0.363-1.581,0.403-2.125,0.088l-8.983-5.187
			C9.579,37.366,9.647,36.816,10.276,36.453z"/>
		<path class="st0" d="M10.276,36.45l15.319-8.844c0.629-0.363,1.581-0.403,2.125-0.088l8.983,5.187
			c0.545,0.315,0.476,0.864-0.153,1.227l-15.319,8.844c-0.629,0.363-1.581,0.403-2.125,0.088l-8.983-5.187
			C9.579,37.363,9.647,36.813,10.276,36.45z"/>
		<path class="st0" d="M10.276,36.447l15.319-8.844c0.629-0.363,1.581-0.403,2.125-0.088l8.983,5.187
			c0.545,0.315,0.476,0.864-0.153,1.227l-15.319,8.844c-0.629,0.363-1.581,0.403-2.125,0.088l-8.983-5.187
			C9.579,37.36,9.647,36.81,10.276,36.447z"/>
		<path class="st0" d="M10.276,36.444L25.595,27.6c0.629-0.363,1.581-0.403,2.125-0.088l8.983,5.187
			c0.545,0.315,0.476,0.864-0.153,1.227L21.232,42.77c-0.629,0.363-1.581,0.403-2.125,0.088l-8.983-5.187
			C9.579,37.357,9.647,36.807,10.276,36.444z"/>
		<path class="st0" d="M10.276,36.441l15.319-8.844c0.629-0.363,1.581-0.403,2.125-0.088l8.983,5.187
			c0.545,0.315,0.476,0.864-0.153,1.227l-15.319,8.844c-0.629,0.363-1.581,0.403-2.125,0.088l-8.983-5.187
			C9.579,37.354,9.647,36.804,10.276,36.441z"/>
		<path class="st0" d="M10.276,36.438l15.319-8.844c0.629-0.363,1.581-0.403,2.125-0.088l8.983,5.187
			c0.545,0.315,0.476,0.864-0.153,1.227l-15.319,8.844c-0.629,0.363-1.581,0.403-2.125,0.088l-8.983-5.187
			C9.579,37.351,9.647,36.801,10.276,36.438z"/>
		<path class="st0" d="M10.276,36.435l15.319-8.844c0.629-0.363,1.581-0.403,2.125-0.088l8.983,5.187
			c0.545,0.315,0.476,0.864-0.153,1.227l-15.319,8.844c-0.629,0.363-1.581,0.403-2.125,0.088l-8.983-5.187
			C9.579,37.348,9.647,36.798,10.276,36.435z"/>
		<path class="st0" d="M10.276,36.432l15.319-8.844c0.629-0.363,1.581-0.403,2.125-0.088l8.983,5.187
			c0.545,0.315,0.476,0.864-0.153,1.227l-15.319,8.844c-0.629,0.363-1.581,0.403-2.125,0.088l-8.983-5.187
			C9.579,37.345,9.647,36.795,10.276,36.432z"/>
		<path class="st0" d="M10.276,36.429l15.319-8.844c0.629-0.363,1.581-0.403,2.125-0.088l8.983,5.187
			c0.545,0.315,0.476,0.864-0.153,1.227l-15.319,8.844c-0.629,0.363-1.581,0.403-2.125,0.088l-8.983-5.187
			C9.579,37.342,9.647,36.792,10.276,36.429z"/>
		<path class="st0" d="M10.276,36.426l15.319-8.844c0.629-0.363,1.581-0.403,2.125-0.088l8.983,5.187
			c0.545,0.315,0.476,0.864-0.153,1.227l-15.319,8.844c-0.629,0.363-1.581,0.403-2.125,0.088l-8.983-5.187
			C9.579,37.339,9.647,36.789,10.276,36.426z"/>
		<path class="st0" d="M10.276,36.423l15.319-8.844c0.629-0.363,1.581-0.403,2.125-0.088l8.983,5.187
			c0.545,0.315,0.476,0.864-0.153,1.227l-15.319,8.844c-0.629,0.363-1.581,0.403-2.125,0.088l-8.983-5.187
			C9.579,37.336,9.647,36.786,10.276,36.423z"/>
		<path class="st0" d="M10.276,36.42l15.319-8.844c0.629-0.363,1.581-0.403,2.125-0.088l8.983,5.187
			c0.545,0.315,0.476,0.864-0.153,1.227l-15.319,8.844c-0.629,0.363-1.581,0.403-2.125,0.088l-8.983-5.187
			C9.579,37.333,9.647,36.783,10.276,36.42z"/>
		<path class="st0" d="M10.276,36.417l15.319-8.844c0.629-0.363,1.581-0.403,2.125-0.088l8.983,5.187
			c0.545,0.315,0.476,0.864-0.153,1.227l-15.319,8.844c-0.629,0.363-1.581,0.403-2.125,0.088l-8.983-5.187
			C9.579,37.33,9.647,36.78,10.276,36.417z"/>
		<path class="st0" d="M10.276,36.414l15.319-8.844c0.629-0.363,1.581-0.403,2.125-0.088l8.983,5.187
			c0.545,0.315,0.476,0.864-0.153,1.227L21.232,42.74c-0.629,0.363-1.581,0.403-2.125,0.088l-8.983-5.187
			C9.579,37.327,9.647,36.777,10.276,36.414z"/>
		<path class="st0" d="M10.276,36.411l15.319-8.844c0.629-0.363,1.581-0.403,2.125-0.088l8.983,5.187
			c0.545,0.315,0.476,0.864-0.153,1.227l-15.319,8.844c-0.629,0.363-1.581,0.403-2.125,0.088l-8.983-5.187
			C9.579,37.324,9.647,36.774,10.276,36.411z"/>
		<path class="st0" d="M10.276,36.408l15.319-8.844c0.629-0.363,1.581-0.403,2.125-0.088l8.983,5.187
			c0.545,0.315,0.476,0.864-0.153,1.227l-15.319,8.844c-0.629,0.363-1.581,0.403-2.125,0.088l-8.983-5.187
			C9.579,37.321,9.647,36.771,10.276,36.408z"/>
		<path class="st0" d="M10.276,36.405l15.319-8.844c0.629-0.363,1.581-0.403,2.125-0.088l8.983,5.187
			c0.545,0.315,0.476,0.864-0.153,1.227l-15.319,8.844c-0.629,0.363-1.581,0.403-2.125,0.088l-8.983-5.187
			C9.579,37.318,9.647,36.768,10.276,36.405z"/>
		<path class="st0" d="M10.276,36.402l15.319-8.844c0.629-0.363,1.581-0.403,2.125-0.088l8.983,5.187
			c0.545,0.315,0.476,0.864-0.153,1.227l-15.319,8.844c-0.629,0.363-1.581,0.403-2.125,0.088l-8.983-5.187
			C9.579,37.315,9.647,36.765,10.276,36.402z"/>
		<path class="st0" d="M10.276,36.399l15.319-8.844c0.629-0.363,1.581-0.403,2.125-0.088l8.983,5.187
			c0.545,0.315,0.476,0.864-0.153,1.227l-15.319,8.844c-0.629,0.363-1.581,0.403-2.125,0.088l-8.983-5.187
			C9.579,37.312,9.647,36.762,10.276,36.399z"/>
		<path class="st0" d="M10.276,36.396l15.319-8.844c0.629-0.363,1.581-0.403,2.125-0.088l8.983,5.187
			c0.545,0.315,0.476,0.864-0.153,1.227l-15.319,8.844c-0.629,0.363-1.581,0.403-2.125,0.088l-8.983-5.187
			C9.579,37.309,9.647,36.759,10.276,36.396z"/>
		<path class="st0" d="M10.276,36.393l15.319-8.844c0.629-0.363,1.581-0.403,2.125-0.088l8.983,5.187
			c0.545,0.315,0.476,0.864-0.153,1.227l-15.319,8.844c-0.629,0.363-1.581,0.403-2.125,0.088l-8.983-5.187
			C9.579,37.306,9.647,36.756,10.276,36.393z"/>
		<path class="st0" d="M10.276,36.39l15.319-8.844c0.629-0.363,1.581-0.403,2.125-0.088l8.983,5.187
			c0.545,0.315,0.476,0.864-0.153,1.227l-15.319,8.844c-0.629,0.363-1.581,0.403-2.125,0.088l-8.983-5.187
			C9.579,37.303,9.647,36.753,10.276,36.39z"/>
		<path class="st0" d="M10.276,36.387l15.319-8.844c0.629-0.363,1.581-0.403,2.125-0.088l8.983,5.187
			c0.545,0.315,0.476,0.864-0.153,1.227l-15.319,8.844c-0.629,0.363-1.581,0.403-2.125,0.088l-8.983-5.187
			C9.579,37.3,9.647,36.75,10.276,36.387z"/>
		<path class="st0" d="M10.276,36.384l15.319-8.844c0.629-0.363,1.581-0.403,2.125-0.088l8.983,5.187
			c0.545,0.315,0.476,0.864-0.153,1.227L21.232,42.71c-0.629,0.363-1.581,0.403-2.125,0.088l-8.983-5.187
			C9.579,37.297,9.647,36.747,10.276,36.384z"/>
		<path class="st0" d="M10.276,36.381l15.319-8.844c0.629-0.363,1.581-0.403,2.125-0.088l8.983,5.187
			c0.545,0.315,0.476,0.864-0.153,1.227l-15.319,8.844c-0.629,0.363-1.581,0.403-2.125,0.088l-8.983-5.187
			C9.579,37.294,9.647,36.744,10.276,36.381z"/>
		<path class="st0" d="M10.276,36.378l15.319-8.844c0.629-0.363,1.581-0.403,2.125-0.088l8.983,5.187
			c0.545,0.315,0.476,0.864-0.153,1.227l-15.319,8.844c-0.629,0.363-1.581,0.403-2.125,0.088l-8.983-5.187
			C9.579,37.291,9.647,36.741,10.276,36.378z"/>
		<path class="st0" d="M10.276,36.375l15.319-8.844c0.629-0.363,1.581-0.403,2.125-0.088l8.983,5.187
			c0.545,0.315,0.476,0.864-0.153,1.227l-15.319,8.844c-0.629,0.363-1.581,0.403-2.125,0.088l-8.983-5.187
			C9.579,37.288,9.647,36.738,10.276,36.375z"/>
		<path class="st0" d="M10.276,36.372l15.319-8.844c0.629-0.363,1.581-0.403,2.125-0.088l8.983,5.187
			c0.545,0.315,0.476,0.864-0.153,1.227l-15.319,8.844c-0.629,0.363-1.581,0.403-2.125,0.088l-8.983-5.187
			C9.579,37.285,9.647,36.735,10.276,36.372z"/>
		<path class="st0" d="M10.276,36.369l15.319-8.844c0.629-0.363,1.581-0.403,2.125-0.088l8.983,5.187
			c0.545,0.315,0.476,0.864-0.153,1.227l-15.319,8.844c-0.629,0.363-1.581,0.403-2.125,0.088l-8.983-5.187
			C9.579,37.282,9.647,36.732,10.276,36.369z"/>
		<path class="st0" d="M10.276,36.366l15.319-8.844c0.629-0.363,1.581-0.403,2.125-0.088l8.983,5.187
			c0.545,0.315,0.476,0.864-0.153,1.227l-15.319,8.844c-0.629,0.363-1.581,0.403-2.125,0.088l-8.983-5.187
			C9.579,37.279,9.647,36.729,10.276,36.366z"/>
		<path class="st0" d="M10.276,36.363l15.319-8.844c0.629-0.363,1.581-0.403,2.125-0.088l8.983,5.187
			c0.545,0.315,0.476,0.864-0.153,1.227l-15.319,8.844c-0.629,0.363-1.581,0.403-2.125,0.088l-8.983-5.187
			C9.579,37.276,9.647,36.726,10.276,36.363z"/>
		<path class="st0" d="M10.276,36.36l15.319-8.844c0.629-0.363,1.581-0.403,2.125-0.088l8.983,5.187
			c0.545,0.315,0.476,0.864-0.153,1.227l-15.319,8.844c-0.629,0.363-1.581,0.403-2.125,0.088l-8.983-5.187
			C9.579,37.273,9.647,36.723,10.276,36.36z"/>
		<path class="st0" d="M10.276,36.357l15.319-8.844c0.629-0.363,1.581-0.403,2.125-0.088l8.983,5.187
			c0.545,0.315,0.476,0.864-0.153,1.227l-15.319,8.844c-0.629,0.363-1.581,0.403-2.125,0.088l-8.983-5.187
			C9.579,37.27,9.647,36.72,10.276,36.357z"/>
		<path class="st0" d="M10.276,36.354l15.319-8.844c0.629-0.363,1.581-0.403,2.125-0.088l8.983,5.187
			c0.545,0.315,0.476,0.864-0.153,1.227L21.232,42.68c-0.629,0.363-1.581,0.403-2.125,0.088l-8.983-5.187
			C9.579,37.267,9.647,36.717,10.276,36.354z"/>
		<path class="st0" d="M10.276,36.351l15.319-8.844c0.629-0.363,1.581-0.403,2.125-0.088l8.983,5.187
			c0.545,0.315,0.476,0.864-0.153,1.227l-15.319,8.844c-0.629,0.363-1.581,0.403-2.125,0.088l-8.983-5.187
			C9.579,37.264,9.647,36.714,10.276,36.351z"/>
		<path class="st0" d="M10.276,36.348l15.319-8.844c0.629-0.363,1.581-0.403,2.125-0.088l8.983,5.187
			c0.545,0.315,0.476,0.864-0.153,1.227l-15.319,8.844c-0.629,0.363-1.581,0.403-2.125,0.088l-8.983-5.187
			C9.579,37.261,9.647,36.711,10.276,36.348z"/>
		<path class="st0" d="M10.276,36.345l15.319-8.844c0.629-0.363,1.581-0.403,2.125-0.088l8.983,5.187
			c0.545,0.315,0.476,0.864-0.153,1.227l-15.319,8.844c-0.629,0.363-1.581,0.403-2.125,0.088l-8.983-5.187
			C9.579,37.258,9.647,36.708,10.276,36.345z"/>
		<path class="st0" d="M10.276,36.342l15.319-8.844c0.629-0.363,1.581-0.403,2.125-0.088l8.983,5.187
			c0.545,0.315,0.476,0.864-0.153,1.227l-15.319,8.844c-0.629,0.363-1.581,0.403-2.125,0.088l-8.983-5.187
			C9.579,37.255,9.647,36.705,10.276,36.342z"/>
		<path class="st0" d="M10.276,36.339l15.319-8.844c0.629-0.363,1.581-0.403,2.125-0.088l8.983,5.187
			c0.545,0.315,0.476,0.864-0.153,1.227l-15.319,8.844c-0.629,0.363-1.581,0.403-2.125,0.088l-8.983-5.187
			C9.579,37.252,9.647,36.702,10.276,36.339z"/>
		<path class="st0" d="M10.276,36.336l15.319-8.844c0.629-0.363,1.581-0.403,2.125-0.088l8.983,5.187
			c0.545,0.315,0.476,0.864-0.153,1.227l-15.319,8.844c-0.629,0.363-1.581,0.403-2.125,0.088l-8.983-5.187
			C9.579,37.249,9.647,36.699,10.276,36.336z"/>
		<path class="st0" d="M10.276,36.333l15.319-8.844c0.629-0.363,1.581-0.403,2.125-0.088l8.983,5.187
			c0.545,0.315,0.476,0.864-0.153,1.227l-15.319,8.844c-0.629,0.363-1.581,0.403-2.125,0.088l-8.983-5.187
			C9.579,37.246,9.647,36.696,10.276,36.333z"/>
		<path class="st0" d="M10.276,36.33l15.319-8.844c0.629-0.363,1.581-0.403,2.125-0.088l8.983,5.187
			c0.545,0.315,0.476,0.864-0.153,1.227l-15.319,8.844c-0.629,0.363-1.581,0.403-2.125,0.088l-8.983-5.187
			C9.579,37.243,9.647,36.693,10.276,36.33z"/>
		<path class="st0" d="M10.276,36.327l15.319-8.844c0.629-0.363,1.581-0.403,2.125-0.088l8.983,5.187
			c0.545,0.315,0.476,0.864-0.153,1.227l-15.319,8.844c-0.629,0.363-1.581,0.403-2.125,0.088l-8.983-5.187
			C9.579,37.24,9.647,36.69,10.276,36.327z"/>
		<path class="st0" d="M10.276,36.324l15.319-8.844c0.629-0.363,1.581-0.403,2.125-0.088l8.983,5.187
			c0.545,0.315,0.476,0.864-0.153,1.227L21.232,42.65c-0.629,0.363-1.581,0.403-2.125,0.088l-8.983-5.187
			C9.579,37.237,9.647,36.687,10.276,36.324z"/>
		<path class="st0" d="M10.276,36.321l15.319-8.844c0.629-0.363,1.581-0.403,2.125-0.088l8.983,5.187
			c0.545,0.315,0.476,0.864-0.153,1.227l-15.319,8.844c-0.629,0.363-1.581,0.403-2.125,0.088l-8.983-5.187
			C9.579,37.234,9.647,36.684,10.276,36.321z"/>
		<path class="st0" d="M10.276,36.318l15.319-8.844c0.629-0.363,1.581-0.403,2.125-0.088l8.983,5.187
			c0.545,0.315,0.476,0.864-0.153,1.227l-15.319,8.844c-0.629,0.363-1.581,0.403-2.125,0.088l-8.983-5.187
			C9.579,37.23,9.647,36.681,10.276,36.318z"/>
		<path class="st0" d="M10.276,36.315l15.319-8.844c0.629-0.363,1.581-0.403,2.125-0.088l8.983,5.187
			c0.545,0.315,0.476,0.864-0.153,1.227l-15.319,8.844c-0.629,0.363-1.581,0.403-2.125,0.088l-8.983-5.187
			C9.579,37.227,9.647,36.678,10.276,36.315z"/>
		<path class="st0" d="M10.276,36.312l15.319-8.844c0.629-0.363,1.581-0.403,2.125-0.088l8.983,5.187
			c0.545,0.315,0.476,0.864-0.153,1.227l-15.319,8.844c-0.629,0.363-1.581,0.403-2.125,0.088l-8.983-5.187
			C9.579,37.224,9.647,36.675,10.276,36.312z"/>
		<path class="st0" d="M10.276,36.309l15.319-8.844c0.629-0.363,1.581-0.403,2.125-0.088l8.983,5.187
			c0.545,0.315,0.476,0.864-0.153,1.227l-15.319,8.844c-0.629,0.363-1.581,0.403-2.125,0.088l-8.983-5.187
			C9.579,37.221,9.647,36.672,10.276,36.309z"/>
		<path class="st0" d="M10.276,36.306l15.319-8.844c0.629-0.363,1.581-0.403,2.125-0.088l8.983,5.187
			c0.545,0.315,0.476,0.864-0.153,1.227l-15.319,8.844c-0.629,0.363-1.581,0.403-2.125,0.088l-8.983-5.187
			C9.579,37.218,9.647,36.669,10.276,36.306z"/>
		<path class="st0" d="M10.276,36.303l15.319-8.844c0.629-0.363,1.581-0.403,2.125-0.088l8.983,5.187
			c0.545,0.315,0.476,0.864-0.153,1.227l-15.319,8.844c-0.629,0.363-1.581,0.403-2.125,0.088l-8.983-5.187
			C9.579,37.215,9.647,36.666,10.276,36.303z"/>
		<path class="st0" d="M10.276,36.3l15.319-8.844c0.629-0.363,1.581-0.403,2.125-0.088l8.983,5.187
			c0.545,0.315,0.476,0.864-0.153,1.227l-15.319,8.844c-0.629,0.363-1.581,0.403-2.125,0.088l-8.983-5.187
			C9.579,37.212,9.647,36.663,10.276,36.3z"/>
		<path class="st0" d="M10.276,36.297l15.319-8.844c0.629-0.363,1.581-0.403,2.125-0.088l8.983,5.187
			c0.545,0.315,0.476,0.864-0.153,1.227l-15.319,8.844c-0.629,0.363-1.581,0.403-2.125,0.088l-8.983-5.187
			C9.579,37.209,9.647,36.66,10.276,36.297z"/>
		<path class="st0" d="M10.276,36.294l15.319-8.844c0.629-0.363,1.581-0.403,2.125-0.088l8.983,5.187
			c0.545,0.315,0.476,0.864-0.153,1.227l-15.319,8.844c-0.629,0.363-1.581,0.403-2.125,0.088l-8.983-5.187
			C9.579,37.206,9.647,36.657,10.276,36.294z"/>
		<path class="st0" d="M10.276,36.291l15.319-8.844c0.629-0.363,1.581-0.403,2.125-0.088l8.983,5.187
			c0.545,0.315,0.476,0.864-0.153,1.227l-15.319,8.844c-0.629,0.363-1.581,0.403-2.125,0.088l-8.983-5.187
			C9.579,37.203,9.647,36.654,10.276,36.291z"/>
		<path class="st0" d="M10.276,36.288l15.319-8.844c0.629-0.363,1.581-0.403,2.125-0.088l8.983,5.187
			c0.545,0.315,0.476,0.864-0.153,1.227l-15.319,8.844c-0.629,0.363-1.581,0.403-2.125,0.088l-8.983-5.187
			C9.579,37.2,9.647,36.651,10.276,36.288z"/>
		<path class="st0" d="M10.276,36.285l15.319-8.844c0.629-0.363,1.581-0.403,2.125-0.088l8.983,5.187
			c0.545,0.315,0.476,0.864-0.153,1.227L21.232,42.61c-0.629,0.363-1.581,0.403-2.125,0.088l-8.983-5.187
			C9.579,37.197,9.647,36.648,10.276,36.285z"/>
		<path class="st0" d="M10.276,36.282l15.319-8.844c0.629-0.363,1.581-0.403,2.125-0.088l8.983,5.187
			c0.545,0.315,0.476,0.864-0.153,1.227l-15.319,8.844c-0.629,0.363-1.581,0.403-2.125,0.088l-8.983-5.187
			C9.579,37.194,9.647,36.645,10.276,36.282z"/>
		<path class="st0" d="M10.276,36.279l15.319-8.844c0.629-0.363,1.581-0.403,2.125-0.088l8.983,5.187
			c0.545,0.315,0.476,0.864-0.153,1.227l-15.319,8.844c-0.629,0.363-1.581,0.403-2.125,0.088l-8.983-5.187
			C9.579,37.191,9.647,36.642,10.276,36.279z"/>
		<path class="st0" d="M10.276,36.276l15.319-8.844c0.629-0.363,1.581-0.403,2.125-0.088l8.983,5.187
			c0.545,0.315,0.476,0.864-0.153,1.227l-15.319,8.844c-0.629,0.363-1.581,0.403-2.125,0.088l-8.983-5.187
			C9.579,37.188,9.647,36.639,10.276,36.276z"/>
		<path class="st0" d="M10.276,36.273l15.319-8.844c0.629-0.363,1.581-0.403,2.125-0.088l8.983,5.187
			c0.545,0.315,0.476,0.864-0.153,1.227l-15.319,8.844c-0.629,0.363-1.581,0.403-2.125,0.088L10.123,37.5
			C9.579,37.185,9.647,36.636,10.276,36.273z"/>
		<path class="st0" d="M10.276,36.27l15.319-8.844c0.629-0.363,1.581-0.403,2.125-0.088l8.983,5.187
			c0.545,0.315,0.476,0.864-0.153,1.227l-15.319,8.844c-0.629,0.363-1.581,0.403-2.125,0.088l-8.983-5.187
			C9.579,37.182,9.647,36.633,10.276,36.27z"/>
		<path class="st0" d="M10.276,36.267l15.319-8.844c0.629-0.363,1.581-0.403,2.125-0.088l8.983,5.187
			c0.545,0.315,0.476,0.864-0.153,1.227l-15.319,8.844c-0.629,0.363-1.581,0.403-2.125,0.088l-8.983-5.187
			C9.579,37.179,9.647,36.63,10.276,36.267z"/>
		<path class="st0" d="M10.276,36.264l15.319-8.844c0.629-0.363,1.581-0.403,2.125-0.088l8.983,5.187
			c0.545,0.315,0.476,0.864-0.153,1.227l-15.319,8.844c-0.629,0.363-1.581,0.403-2.125,0.088l-8.983-5.187
			C9.579,37.176,9.647,36.627,10.276,36.264z"/>
		<path class="st0" d="M10.276,36.261l15.319-8.844c0.629-0.363,1.581-0.403,2.125-0.088l8.983,5.187
			c0.545,0.315,0.476,0.864-0.153,1.227l-15.319,8.844c-0.629,0.363-1.581,0.403-2.125,0.088l-8.983-5.187
			C9.579,37.173,9.647,36.624,10.276,36.261z"/>
		<path class="st0" d="M10.276,36.258l15.319-8.844c0.629-0.363,1.581-0.403,2.125-0.088l8.983,5.187
			c0.545,0.315,0.476,0.864-0.153,1.227l-15.319,8.844c-0.629,0.363-1.581,0.403-2.125,0.088l-8.983-5.187
			C9.579,37.17,9.647,36.621,10.276,36.258z"/>
		<path class="st0" d="M10.276,36.255l15.319-8.844c0.629-0.363,1.581-0.403,2.125-0.088l8.983,5.187
			c0.545,0.315,0.476,0.864-0.153,1.227L21.232,42.58c-0.629,0.363-1.581,0.403-2.125,0.088l-8.983-5.187
			C9.579,37.167,9.647,36.618,10.276,36.255z"/>
		<path class="st0" d="M10.276,36.252l15.319-8.844c0.629-0.363,1.581-0.403,2.125-0.088l8.983,5.187
			c0.545,0.315,0.476,0.864-0.153,1.227l-15.319,8.844c-0.629,0.363-1.581,0.403-2.125,0.088l-8.983-5.187
			C9.579,37.164,9.647,36.615,10.276,36.252z"/>
		<path class="st0" d="M10.276,36.249l15.319-8.844c0.629-0.363,1.581-0.403,2.125-0.088l8.983,5.187
			c0.545,0.315,0.476,0.864-0.153,1.227l-15.319,8.844c-0.629,0.363-1.581,0.403-2.125,0.088l-8.983-5.187
			C9.579,37.161,9.647,36.612,10.276,36.249z"/>
		<path class="st0" d="M10.276,36.246l15.319-8.844c0.629-0.363,1.581-0.403,2.125-0.088l8.983,5.187
			c0.545,0.315,0.476,0.864-0.153,1.227l-15.319,8.844c-0.629,0.363-1.581,0.403-2.125,0.088l-8.983-5.187
			C9.579,37.158,9.647,36.609,10.276,36.246z"/>
		<path class="st0" d="M10.276,36.243l15.319-8.844c0.629-0.363,1.581-0.403,2.125-0.088l8.983,5.187
			c0.545,0.315,0.476,0.864-0.153,1.227l-15.319,8.844c-0.629,0.363-1.581,0.403-2.125,0.088l-8.983-5.187
			C9.579,37.155,9.647,36.606,10.276,36.243z"/>
		<path class="st0" d="M10.276,36.24l15.319-8.844c0.629-0.363,1.581-0.403,2.125-0.088l8.983,5.187
			c0.545,0.315,0.476,0.864-0.153,1.227l-15.319,8.844c-0.629,0.363-1.581,0.403-2.125,0.088l-8.983-5.187
			C9.579,37.152,9.647,36.603,10.276,36.24z"/>
		<path class="st0" d="M10.276,36.237l15.319-8.844c0.629-0.363,1.581-0.403,2.125-0.088l8.983,5.187
			c0.545,0.315,0.476,0.864-0.153,1.227l-15.319,8.844c-0.629,0.363-1.581,0.403-2.125,0.088l-8.983-5.187
			C9.579,37.149,9.647,36.6,10.276,36.237z"/>
		<path class="st0" d="M10.276,36.234l15.319-8.844c0.629-0.363,1.581-0.403,2.125-0.088l8.983,5.187
			c0.545,0.315,0.476,0.864-0.153,1.227l-15.319,8.844c-0.629,0.363-1.581,0.403-2.125,0.088l-8.983-5.187
			C9.579,37.146,9.647,36.597,10.276,36.234z"/>
		<path class="st0" d="M10.276,36.231l15.319-8.844c0.629-0.363,1.581-0.403,2.125-0.088l8.983,5.187
			c0.545,0.315,0.476,0.864-0.153,1.227l-15.319,8.844c-0.629,0.363-1.581,0.403-2.125,0.088l-8.983-5.187
			C9.579,37.143,9.647,36.594,10.276,36.231z"/>
		<path class="st0" d="M10.276,36.228l15.319-8.844c0.629-0.363,1.581-0.403,2.125-0.088l8.983,5.187
			c0.545,0.315,0.476,0.864-0.153,1.227l-15.319,8.844c-0.629,0.363-1.581,0.403-2.125,0.088l-8.983-5.187
			C9.579,37.14,9.647,36.591,10.276,36.228z"/>
		<path class="st0" d="M10.276,36.225l15.319-8.844c0.629-0.363,1.581-0.403,2.125-0.088l8.983,5.187
			c0.545,0.315,0.476,0.864-0.153,1.227L21.232,42.55c-0.629,0.363-1.581,0.403-2.125,0.088l-8.983-5.187
			C9.579,37.137,9.647,36.588,10.276,36.225z"/>
		<path class="st0" d="M10.276,36.222l15.319-8.844c0.629-0.363,1.581-0.403,2.125-0.088l8.983,5.187
			c0.545,0.315,0.476,0.864-0.153,1.227l-15.319,8.844c-0.629,0.363-1.581,0.403-2.125,0.088l-8.983-5.187
			C9.579,37.134,9.647,36.585,10.276,36.222z"/>
		<path class="st0" d="M10.276,36.219l15.319-8.844c0.629-0.363,1.581-0.403,2.125-0.088l8.983,5.187
			c0.545,0.315,0.476,0.864-0.153,1.227l-15.319,8.844c-0.629,0.363-1.581,0.403-2.125,0.088l-8.983-5.187
			C9.579,37.131,9.647,36.582,10.276,36.219z"/>
		<path class="st0" d="M10.276,36.216l15.319-8.844c0.629-0.363,1.581-0.403,2.125-0.088l8.983,5.187
			c0.545,0.315,0.476,0.864-0.153,1.227l-15.319,8.844c-0.629,0.363-1.581,0.403-2.125,0.088l-8.983-5.187
			C9.579,37.128,9.647,36.579,10.276,36.216z"/>
		<path class="st0" d="M10.276,36.213l15.319-8.844c0.629-0.363,1.581-0.403,2.125-0.088l8.983,5.187
			c0.545,0.315,0.476,0.864-0.153,1.227l-15.319,8.844c-0.629,0.363-1.581,0.403-2.125,0.088l-8.983-5.187
			C9.579,37.125,9.647,36.576,10.276,36.213z"/>
		<path class="st0" d="M10.276,36.21l15.319-8.844c0.629-0.363,1.581-0.403,2.125-0.088l8.983,5.187
			c0.545,0.315,0.476,0.864-0.153,1.227l-15.319,8.844c-0.629,0.363-1.581,0.403-2.125,0.088l-8.983-5.187
			C9.579,37.122,9.647,36.573,10.276,36.21z"/>
		<path class="st0" d="M10.276,36.207l15.319-8.844c0.629-0.363,1.581-0.403,2.125-0.088l8.983,5.187
			c0.545,0.315,0.476,0.864-0.153,1.227l-15.319,8.844c-0.629,0.363-1.581,0.403-2.125,0.088l-8.983-5.187
			C9.579,37.119,9.647,36.57,10.276,36.207z"/>
		<path class="st0" d="M10.276,36.204l15.319-8.844c0.629-0.363,1.581-0.403,2.125-0.088l8.983,5.187
			c0.545,0.315,0.476,0.864-0.153,1.227l-15.319,8.844c-0.629,0.363-1.581,0.403-2.125,0.088l-8.983-5.187
			C9.579,37.116,9.647,36.567,10.276,36.204z"/>
		<path class="st0" d="M10.276,36.201l15.319-8.844c0.629-0.363,1.581-0.403,2.125-0.088l8.983,5.187
			c0.545,0.315,0.476,0.864-0.153,1.227l-15.319,8.844c-0.629,0.363-1.581,0.403-2.125,0.088l-8.983-5.187
			C9.579,37.113,9.647,36.564,10.276,36.201z"/>
		<path class="st0" d="M10.276,36.198l15.319-8.844c0.629-0.363,1.581-0.403,2.125-0.088l8.983,5.187
			c0.545,0.315,0.476,0.864-0.153,1.227l-15.319,8.844c-0.629,0.363-1.581,0.403-2.125,0.088l-8.983-5.187
			C9.579,37.11,9.647,36.561,10.276,36.198z"/>
		<path class="st0" d="M10.276,36.195l15.319-8.844c0.629-0.363,1.581-0.403,2.125-0.088l8.983,5.187
			c0.545,0.315,0.476,0.864-0.153,1.227L21.232,42.52c-0.629,0.363-1.581,0.403-2.125,0.088l-8.983-5.187
			C9.579,37.107,9.647,36.558,10.276,36.195z"/>
		<path class="st0" d="M10.276,36.192l15.319-8.844c0.629-0.363,1.581-0.403,2.125-0.088l8.983,5.187
			c0.545,0.315,0.476,0.864-0.153,1.227l-15.319,8.844c-0.629,0.363-1.581,0.403-2.125,0.088l-8.983-5.187
			C9.579,37.104,9.647,36.555,10.276,36.192z"/>
		<path class="st0" d="M10.276,36.189l15.319-8.844c0.629-0.363,1.581-0.403,2.125-0.088l8.983,5.187
			c0.545,0.315,0.476,0.864-0.153,1.227l-15.319,8.844c-0.629,0.363-1.581,0.403-2.125,0.088l-8.983-5.187
			C9.579,37.101,9.647,36.552,10.276,36.189z"/>
		<path class="st0" d="M10.276,36.186l15.319-8.844c0.629-0.363,1.581-0.403,2.125-0.088l8.983,5.187
			c0.545,0.315,0.476,0.864-0.153,1.227l-15.319,8.844c-0.629,0.363-1.581,0.403-2.125,0.088l-8.983-5.187
			C9.579,37.098,9.647,36.549,10.276,36.186z"/>
		<path class="st0" d="M10.276,36.183l15.319-8.844c0.629-0.363,1.581-0.403,2.125-0.088l8.983,5.187
			c0.545,0.315,0.476,0.864-0.153,1.227l-15.319,8.844c-0.629,0.363-1.581,0.403-2.125,0.088l-8.983-5.187
			C9.579,37.095,9.647,36.546,10.276,36.183z"/>
		<path class="st0" d="M10.276,36.18l15.319-8.844c0.629-0.363,1.581-0.403,2.125-0.088l8.983,5.187
			c0.545,0.315,0.476,0.864-0.153,1.227l-15.319,8.844c-0.629,0.363-1.581,0.403-2.125,0.088l-8.983-5.187
			C9.579,37.092,9.647,36.543,10.276,36.18z"/>
		<path class="st0" d="M10.276,36.177l15.319-8.844c0.629-0.363,1.581-0.403,2.125-0.088l8.983,5.187
			c0.545,0.315,0.476,0.864-0.153,1.227l-15.319,8.844c-0.629,0.363-1.581,0.403-2.125,0.088l-8.983-5.187
			C9.579,37.089,9.647,36.54,10.276,36.177z"/>
		<path class="st0" d="M10.276,36.174l15.319-8.844c0.629-0.363,1.581-0.403,2.125-0.088l8.983,5.187
			c0.545,0.315,0.476,0.864-0.153,1.227l-15.319,8.844c-0.629,0.363-1.581,0.403-2.125,0.088l-8.983-5.187
			C9.579,37.086,9.647,36.537,10.276,36.174z"/>
		<path class="st0" d="M10.276,36.171l15.319-8.844c0.629-0.363,1.581-0.403,2.125-0.088l8.983,5.187
			c0.545,0.315,0.476,0.864-0.153,1.227l-15.319,8.844c-0.629,0.363-1.581,0.403-2.125,0.088l-8.983-5.187
			C9.579,37.083,9.647,36.534,10.276,36.171z"/>
		<path class="st0" d="M10.276,36.168l15.319-8.844c0.629-0.363,1.581-0.403,2.125-0.088l8.983,5.187
			c0.545,0.315,0.476,0.864-0.153,1.227l-15.319,8.844c-0.629,0.363-1.581,0.403-2.125,0.088l-8.983-5.187
			C9.579,37.08,9.647,36.531,10.276,36.168z"/>
		<path class="st0" d="M10.276,36.165l15.319-8.844c0.629-0.363,1.581-0.403,2.125-0.088l8.983,5.187
			c0.545,0.315,0.476,0.864-0.153,1.227L21.232,42.49c-0.629,0.363-1.581,0.403-2.125,0.088l-8.983-5.187
			C9.579,37.077,9.647,36.528,10.276,36.165z"/>
		<path class="st0" d="M10.276,36.162l15.319-8.844c0.629-0.363,1.581-0.403,2.125-0.088l8.983,5.187
			c0.545,0.315,0.476,0.864-0.153,1.227l-15.319,8.844c-0.629,0.363-1.581,0.403-2.125,0.088l-8.983-5.187
			C9.579,37.074,9.647,36.525,10.276,36.162z"/>
		<path class="st0" d="M10.276,36.159l15.319-8.844c0.629-0.363,1.581-0.403,2.125-0.088l8.983,5.187
			c0.545,0.315,0.476,0.864-0.153,1.227l-15.319,8.844c-0.629,0.363-1.581,0.403-2.125,0.088l-8.983-5.187
			C9.579,37.071,9.647,36.522,10.276,36.159z"/>
		<path class="st0" d="M10.276,36.156l15.319-8.844c0.629-0.363,1.581-0.403,2.125-0.088l8.983,5.187
			c0.545,0.315,0.476,0.864-0.153,1.227l-15.319,8.844c-0.629,0.363-1.581,0.403-2.125,0.088l-8.983-5.187
			C9.579,37.068,9.647,36.519,10.276,36.156z"/>
		<path class="st0" d="M10.276,36.153l15.319-8.844c0.629-0.363,1.581-0.403,2.125-0.088l8.983,5.187
			c0.545,0.315,0.476,0.864-0.153,1.227l-15.319,8.844c-0.629,0.363-1.581,0.403-2.125,0.088l-8.983-5.187
			C9.579,37.065,9.647,36.516,10.276,36.153z"/>
		<path class="st0" d="M10.276,36.15l15.319-8.844c0.629-0.363,1.581-0.403,2.125-0.088l8.983,5.187
			c0.545,0.315,0.476,0.864-0.153,1.227l-15.319,8.844c-0.629,0.363-1.581,0.403-2.125,0.088l-8.983-5.187
			C9.579,37.062,9.647,36.513,10.276,36.15z"/>
		<path class="st0" d="M10.276,36.147l15.319-8.844c0.629-0.363,1.581-0.403,2.125-0.088l8.983,5.187
			c0.545,0.315,0.476,0.864-0.153,1.227l-15.319,8.844c-0.629,0.363-1.581,0.403-2.125,0.088l-8.983-5.187
			C9.579,37.059,9.647,36.51,10.276,36.147z"/>
		<path class="st0" d="M10.276,36.144L25.595,27.3c0.629-0.363,1.581-0.403,2.125-0.088l8.983,5.187
			c0.545,0.315,0.476,0.864-0.153,1.227l-15.319,8.844c-0.629,0.363-1.581,0.403-2.125,0.088l-8.983-5.187
			C9.579,37.056,9.647,36.507,10.276,36.144z"/>
		<path class="st0" d="M10.276,36.141l15.319-8.844c0.629-0.363,1.581-0.403,2.125-0.088l8.983,5.187
			c0.545,0.315,0.476,0.864-0.153,1.227l-15.319,8.844c-0.629,0.363-1.581,0.403-2.125,0.088l-8.983-5.187
			C9.579,37.053,9.647,36.504,10.276,36.141z"/>
		<path class="st0" d="M10.276,36.138l15.319-8.844c0.629-0.363,1.581-0.403,2.125-0.088l8.983,5.187
			c0.545,0.315,0.476,0.864-0.153,1.227l-15.319,8.844c-0.629,0.363-1.581,0.403-2.125,0.088l-8.983-5.187
			C9.579,37.05,9.647,36.501,10.276,36.138z"/>
		<path class="st0" d="M10.276,36.135l15.319-8.844c0.629-0.363,1.581-0.403,2.125-0.088l8.983,5.187
			c0.545,0.315,0.476,0.864-0.153,1.227L21.232,42.46c-0.629,0.363-1.581,0.403-2.125,0.088l-8.983-5.187
			C9.579,37.047,9.647,36.498,10.276,36.135z"/>
		<path class="st0" d="M10.276,36.132l15.319-8.844c0.629-0.363,1.581-0.403,2.125-0.088l8.983,5.187
			c0.545,0.315,0.476,0.864-0.153,1.227l-15.319,8.844c-0.629,0.363-1.581,0.403-2.125,0.088l-8.983-5.187
			C9.579,37.044,9.647,36.495,10.276,36.132z"/>
		<path class="st0" d="M10.276,36.129l15.319-8.844c0.629-0.363,1.581-0.403,2.125-0.088l8.983,5.187
			c0.545,0.315,0.476,0.864-0.153,1.227l-15.319,8.844c-0.629,0.363-1.581,0.403-2.125,0.088l-8.983-5.187
			C9.579,37.041,9.647,36.492,10.276,36.129z"/>
		<path class="st0" d="M10.276,36.126l15.319-8.844c0.629-0.363,1.581-0.403,2.125-0.088l8.983,5.187
			c0.545,0.315,0.476,0.864-0.153,1.227l-15.319,8.844c-0.629,0.363-1.581,0.403-2.125,0.088l-8.983-5.187
			C9.579,37.038,9.647,36.489,10.276,36.126z"/>
		<path class="st0" d="M10.276,36.123l15.319-8.844c0.629-0.363,1.581-0.403,2.125-0.088l8.983,5.187
			c0.545,0.315,0.476,0.864-0.153,1.227l-15.319,8.844c-0.629,0.363-1.581,0.403-2.125,0.088l-8.983-5.187
			C9.579,37.035,9.647,36.486,10.276,36.123z"/>
		<path class="st0" d="M10.276,36.12l15.319-8.844c0.629-0.363,1.581-0.403,2.125-0.088l8.983,5.187
			c0.545,0.315,0.476,0.864-0.153,1.227l-15.319,8.844c-0.629,0.363-1.581,0.403-2.125,0.088l-8.983-5.187
			C9.579,37.032,9.647,36.483,10.276,36.12z"/>
		<path class="st0" d="M10.276,36.117l15.319-8.844c0.629-0.363,1.581-0.403,2.125-0.088l8.983,5.187
			c0.545,0.315,0.476,0.864-0.153,1.227l-15.319,8.844c-0.629,0.363-1.581,0.403-2.125,0.088l-8.983-5.187
			C9.579,37.029,9.647,36.48,10.276,36.117z"/>
		<path class="st0" d="M10.276,36.114l15.319-8.844c0.629-0.363,1.581-0.403,2.125-0.088l8.983,5.187
			c0.545,0.315,0.476,0.864-0.153,1.227l-15.319,8.844c-0.629,0.363-1.581,0.403-2.125,0.088l-8.983-5.187
			C9.579,37.026,9.647,36.477,10.276,36.114z"/>
		<path class="st0" d="M10.276,36.111l15.319-8.844c0.629-0.363,1.581-0.403,2.125-0.088l8.983,5.187
			c0.545,0.315,0.476,0.864-0.153,1.227l-15.319,8.844c-0.629,0.363-1.581,0.403-2.125,0.088l-8.983-5.187
			C9.579,37.023,9.647,36.474,10.276,36.111z"/>
		<path class="st0" d="M10.276,36.108l15.319-8.844c0.629-0.363,1.581-0.403,2.125-0.088l8.983,5.187
			c0.545,0.315,0.476,0.864-0.153,1.227l-15.319,8.844c-0.629,0.363-1.581,0.403-2.125,0.088l-8.983-5.187
			C9.579,37.02,9.647,36.471,10.276,36.108z"/>
		<path class="st0" d="M10.276,36.105l15.319-8.844c0.629-0.363,1.581-0.403,2.125-0.088l8.983,5.187
			c0.545,0.315,0.476,0.864-0.153,1.227L21.232,42.43c-0.629,0.363-1.581,0.403-2.125,0.088l-8.983-5.187
			C9.579,37.017,9.647,36.468,10.276,36.105z"/>
		<path class="st0" d="M10.276,36.102l15.319-8.844c0.629-0.363,1.581-0.403,2.125-0.088l8.983,5.187
			c0.545,0.315,0.476,0.864-0.153,1.227l-15.319,8.844c-0.629,0.363-1.581,0.403-2.125,0.088l-8.983-5.187
			C9.579,37.014,9.647,36.465,10.276,36.102z"/>
		<path class="st0" d="M10.276,36.099l15.319-8.844c0.629-0.363,1.581-0.403,2.125-0.088l8.983,5.187
			c0.545,0.315,0.476,0.864-0.153,1.227l-15.319,8.844c-0.629,0.363-1.581,0.403-2.125,0.088l-8.983-5.187
			C9.579,37.011,9.647,36.462,10.276,36.099z"/>
		<path class="st0" d="M10.276,36.096l15.319-8.844c0.629-0.363,1.581-0.403,2.125-0.088l8.983,5.187
			c0.545,0.315,0.476,0.864-0.153,1.227l-15.319,8.844c-0.629,0.363-1.581,0.403-2.125,0.088l-8.983-5.187
			C9.579,37.008,9.647,36.459,10.276,36.096z"/>
		<path class="st0" d="M10.276,36.093l15.319-8.844c0.629-0.363,1.581-0.403,2.125-0.088l8.983,5.187
			c0.545,0.315,0.476,0.864-0.153,1.227l-15.319,8.844c-0.629,0.363-1.581,0.403-2.125,0.088l-8.983-5.187
			C9.579,37.005,9.647,36.456,10.276,36.093z"/>
		<path class="st0" d="M10.276,36.09l15.319-8.844c0.629-0.363,1.581-0.403,2.125-0.088l8.983,5.187
			c0.545,0.315,0.476,0.864-0.153,1.227l-15.319,8.844c-0.629,0.363-1.581,0.403-2.125,0.088l-8.983-5.187
			C9.579,37.002,9.647,36.453,10.276,36.09z"/>
		<path class="st0" d="M10.276,36.087l15.319-8.844c0.629-0.363,1.581-0.403,2.125-0.088l8.983,5.187
			c0.545,0.315,0.476,0.864-0.153,1.227l-15.319,8.844c-0.629,0.363-1.581,0.403-2.125,0.088l-8.983-5.187
			C9.579,36.999,9.647,36.45,10.276,36.087z"/>
		<path class="st0" d="M10.276,36.084l15.319-8.844c0.629-0.363,1.581-0.403,2.125-0.088l8.983,5.187
			c0.545,0.315,0.476,0.864-0.153,1.227l-15.319,8.844c-0.629,0.363-1.581,0.403-2.125,0.088l-8.983-5.187
			C9.579,36.996,9.647,36.447,10.276,36.084z"/>
		<path class="st0" d="M10.276,36.081l15.319-8.844c0.629-0.363,1.581-0.403,2.125-0.088l8.983,5.187
			c0.545,0.315,0.476,0.864-0.153,1.227l-15.319,8.844c-0.629,0.363-1.581,0.403-2.125,0.088l-8.983-5.187
			C9.579,36.993,9.647,36.444,10.276,36.081z"/>
		<path class="st0" d="M10.276,36.078l15.319-8.844c0.629-0.363,1.581-0.403,2.125-0.088l8.983,5.187
			c0.545,0.315,0.476,0.864-0.153,1.227l-15.319,8.844c-0.629,0.363-1.581,0.403-2.125,0.088l-8.983-5.187
			C9.579,36.99,9.647,36.441,10.276,36.078z"/>
		<path class="st0" d="M10.276,36.075l15.319-8.844c0.629-0.363,1.581-0.403,2.125-0.088l8.983,5.187
			c0.545,0.315,0.476,0.864-0.153,1.227L21.232,42.4c-0.629,0.363-1.581,0.403-2.125,0.088l-8.983-5.187
			C9.579,36.987,9.647,36.438,10.276,36.075z"/>
		<path class="st0" d="M10.276,36.072l15.319-8.844c0.629-0.363,1.581-0.403,2.125-0.088l8.983,5.187
			c0.545,0.315,0.476,0.864-0.153,1.227l-15.319,8.844c-0.629,0.363-1.581,0.403-2.125,0.088l-8.983-5.187
			C9.579,36.984,9.647,36.435,10.276,36.072z"/>
		<path class="st0" d="M10.276,36.069l15.319-8.844c0.629-0.363,1.581-0.403,2.125-0.088l8.983,5.187
			c0.545,0.315,0.476,0.864-0.153,1.227l-15.319,8.844c-0.629,0.363-1.581,0.403-2.125,0.088l-8.983-5.187
			C9.579,36.981,9.647,36.432,10.276,36.069z"/>
		<path class="st0" d="M10.276,36.066l15.319-8.844c0.629-0.363,1.581-0.403,2.125-0.088l8.983,5.187
			c0.545,0.315,0.476,0.864-0.153,1.227l-15.319,8.844c-0.629,0.363-1.581,0.403-2.125,0.088l-8.983-5.187
			C9.579,36.978,9.647,36.429,10.276,36.066z"/>
		<path class="st0" d="M10.276,36.063l15.319-8.844c0.629-0.363,1.581-0.403,2.125-0.088l8.983,5.187
			c0.545,0.315,0.476,0.864-0.153,1.227l-15.319,8.844c-0.629,0.363-1.581,0.403-2.125,0.088l-8.983-5.187
			C9.579,36.975,9.647,36.426,10.276,36.063z"/>
		<path class="st0" d="M10.276,36.06l15.319-8.844c0.629-0.363,1.581-0.403,2.125-0.088l8.983,5.187
			c0.545,0.315,0.476,0.864-0.153,1.227l-15.319,8.844c-0.629,0.363-1.581,0.403-2.125,0.088l-8.983-5.187
			C9.579,36.972,9.647,36.423,10.276,36.06z"/>
		<path class="st0" d="M10.276,36.057l15.319-8.844c0.629-0.363,1.581-0.403,2.125-0.088l8.983,5.187
			c0.545,0.315,0.476,0.864-0.153,1.227l-15.319,8.844c-0.629,0.363-1.581,0.403-2.125,0.088l-8.983-5.187
			C9.579,36.969,9.647,36.42,10.276,36.057z"/>
		<path class="st0" d="M10.276,36.054l15.319-8.844c0.629-0.363,1.581-0.403,2.125-0.088l8.983,5.187
			c0.545,0.315,0.476,0.864-0.153,1.227l-15.319,8.844c-0.629,0.363-1.581,0.403-2.125,0.088l-8.983-5.187
			C9.579,36.966,9.647,36.417,10.276,36.054z"/>
		<path class="st0" d="M10.276,36.051l15.319-8.844c0.629-0.363,1.581-0.403,2.125-0.088l8.983,5.187
			c0.545,0.315,0.476,0.864-0.153,1.227l-15.319,8.844c-0.629,0.363-1.581,0.403-2.125,0.088l-8.983-5.187
			C9.579,36.963,9.647,36.414,10.276,36.051z"/>
		<path class="st0" d="M10.276,36.048l15.319-8.844c0.629-0.363,1.581-0.403,2.125-0.088l8.983,5.187
			c0.545,0.315,0.476,0.864-0.153,1.227l-15.319,8.844c-0.629,0.363-1.581,0.403-2.125,0.088l-8.983-5.187
			C9.579,36.96,9.647,36.411,10.276,36.048z"/>
		<path class="st0" d="M10.276,36.045l15.319-8.844c0.629-0.363,1.581-0.403,2.125-0.088l8.983,5.187
			c0.545,0.315,0.476,0.864-0.153,1.227L21.232,42.37c-0.629,0.363-1.581,0.403-2.125,0.088l-8.983-5.187
			C9.579,36.957,9.647,36.408,10.276,36.045z"/>
		<path class="st0" d="M10.276,36.042l15.319-8.844c0.629-0.363,1.581-0.403,2.125-0.088l8.983,5.187
			c0.545,0.315,0.476,0.864-0.153,1.227l-15.319,8.844c-0.629,0.363-1.581,0.403-2.125,0.088l-8.983-5.187
			C9.579,36.954,9.647,36.405,10.276,36.042z"/>
		<path class="st0" d="M10.276,36.039l15.319-8.844c0.629-0.363,1.581-0.403,2.125-0.088l8.983,5.187
			c0.545,0.315,0.476,0.864-0.153,1.227l-15.319,8.844c-0.629,0.363-1.581,0.403-2.125,0.088l-8.983-5.187
			C9.579,36.951,9.647,36.402,10.276,36.039z"/>
		<path class="st0" d="M10.276,36.036l15.319-8.844c0.629-0.363,1.581-0.403,2.125-0.088l8.983,5.187
			c0.545,0.315,0.476,0.864-0.153,1.227l-15.319,8.844c-0.629,0.363-1.581,0.403-2.125,0.088l-8.983-5.187
			C9.579,36.948,9.647,36.399,10.276,36.036z"/>
		<path class="st0" d="M10.276,36.033l15.319-8.844c0.629-0.363,1.581-0.403,2.125-0.088l8.983,5.187
			c0.545,0.315,0.476,0.864-0.153,1.227l-15.319,8.844c-0.629,0.363-1.581,0.403-2.125,0.088l-8.983-5.187
			C9.579,36.945,9.647,36.396,10.276,36.033z"/>
		<path class="st0" d="M10.276,36.03l15.319-8.844c0.629-0.363,1.581-0.403,2.125-0.088l8.983,5.187
			c0.545,0.315,0.476,0.864-0.153,1.227l-15.319,8.844c-0.629,0.363-1.581,0.403-2.125,0.088l-8.983-5.187
			C9.579,36.942,9.647,36.393,10.276,36.03z"/>
		<path class="st0" d="M10.276,36.027l15.319-8.844c0.629-0.363,1.581-0.403,2.125-0.088l8.983,5.187
			c0.545,0.315,0.476,0.864-0.153,1.227l-15.319,8.844c-0.629,0.363-1.581,0.403-2.125,0.088l-8.983-5.187
			C9.579,36.939,9.647,36.39,10.276,36.027z"/>
		<path class="st0" d="M10.276,36.024l15.319-8.844c0.629-0.363,1.581-0.403,2.125-0.088l8.983,5.187
			c0.545,0.315,0.476,0.864-0.153,1.227l-15.319,8.844c-0.629,0.363-1.581,0.403-2.125,0.088l-8.983-5.187
			C9.579,36.936,9.647,36.387,10.276,36.024z"/>
		<path class="st0" d="M10.276,36.021l15.319-8.844c0.629-0.363,1.581-0.403,2.125-0.088l8.983,5.187
			c0.545,0.315,0.476,0.864-0.153,1.227l-15.319,8.844c-0.629,0.363-1.581,0.403-2.125,0.088l-8.983-5.187
			C9.579,36.933,9.647,36.384,10.276,36.021z"/>
		<path class="st0" d="M10.276,36.018l15.319-8.844c0.629-0.363,1.581-0.403,2.125-0.088l8.983,5.187
			c0.545,0.315,0.476,0.864-0.153,1.227l-15.319,8.844c-0.629,0.363-1.581,0.403-2.125,0.088l-8.983-5.187
			C9.579,36.93,9.647,36.381,10.276,36.018z"/>
		<path class="st0" d="M10.276,36.015l15.319-8.844c0.629-0.363,1.581-0.403,2.125-0.088l8.983,5.187
			c0.545,0.315,0.476,0.864-0.153,1.227L21.232,42.34c-0.629,0.363-1.581,0.403-2.125,0.088l-8.983-5.187
			C9.579,36.927,9.647,36.378,10.276,36.015z"/>
		<path class="st0" d="M10.276,36.012l15.319-8.844c0.629-0.363,1.581-0.403,2.125-0.088l8.983,5.187
			c0.545,0.315,0.476,0.864-0.153,1.227l-15.319,8.844c-0.629,0.363-1.581,0.403-2.125,0.088l-8.983-5.187
			C9.579,36.924,9.647,36.375,10.276,36.012z"/>
		<path class="st0" d="M10.276,36.009l15.319-8.844c0.629-0.363,1.581-0.403,2.125-0.088l8.983,5.187
			c0.545,0.315,0.476,0.864-0.153,1.227l-15.319,8.844c-0.629,0.363-1.581,0.403-2.125,0.088l-8.983-5.187
			C9.579,36.921,9.647,36.372,10.276,36.009z"/>
		<path class="st0" d="M10.276,36.006l15.319-8.844c0.629-0.363,1.581-0.403,2.125-0.088l8.983,5.187
			c0.545,0.315,0.476,0.864-0.153,1.227l-15.319,8.844c-0.629,0.363-1.581,0.403-2.125,0.088l-8.983-5.187
			C9.579,36.918,9.647,36.369,10.276,36.006z"/>
		<path class="st0" d="M10.276,36.003l15.319-8.844c0.629-0.363,1.581-0.403,2.125-0.088l8.983,5.187
			c0.545,0.315,0.476,0.864-0.153,1.227l-15.319,8.844c-0.629,0.363-1.581,0.403-2.125,0.088l-8.983-5.187
			C9.579,36.915,9.647,36.366,10.276,36.003z"/>
		<path class="st0" d="M10.276,36l15.319-8.844c0.629-0.363,1.581-0.403,2.125-0.088l8.983,5.187
			c0.545,0.315,0.476,0.864-0.153,1.227l-15.319,8.844c-0.629,0.363-1.581,0.403-2.125,0.088l-8.983-5.187
			C9.579,36.912,9.647,36.363,10.276,36z"/>
		<path class="st0" d="M10.276,35.997l15.319-8.844c0.629-0.363,1.581-0.403,2.125-0.088l8.983,5.187
			c0.545,0.315,0.476,0.864-0.153,1.227l-15.319,8.844c-0.629,0.363-1.581,0.403-2.125,0.088l-8.983-5.187
			C9.579,36.909,9.647,36.36,10.276,35.997z"/>
		<path class="st0" d="M10.276,35.994l15.319-8.844c0.629-0.363,1.581-0.403,2.125-0.088l8.983,5.187
			c0.545,0.315,0.476,0.864-0.153,1.227l-15.319,8.844c-0.629,0.363-1.581,0.403-2.125,0.088l-8.983-5.187
			C9.579,36.906,9.647,36.357,10.276,35.994z"/>
		<path class="st0" d="M10.276,35.991l15.319-8.844c0.629-0.363,1.581-0.403,2.125-0.088l8.983,5.187
			c0.545,0.315,0.476,0.864-0.153,1.227l-15.319,8.844c-0.629,0.363-1.581,0.403-2.125,0.088l-8.983-5.187
			C9.579,36.903,9.647,36.354,10.276,35.991z"/>
		<path class="st0" d="M10.276,35.988l15.319-8.844c0.629-0.363,1.581-0.403,2.125-0.088l8.983,5.187
			c0.545,0.315,0.476,0.864-0.153,1.227l-15.319,8.844c-0.629,0.363-1.581,0.403-2.125,0.088l-8.983-5.187
			C9.579,36.9,9.647,36.351,10.276,35.988z"/>
		<path class="st0" d="M10.276,35.985l15.319-8.844c0.629-0.363,1.581-0.403,2.125-0.088l8.983,5.187
			c0.545,0.315,0.476,0.864-0.153,1.227L21.232,42.31c-0.629,0.363-1.581,0.403-2.125,0.088l-8.983-5.187
			C9.579,36.897,9.647,36.348,10.276,35.985z"/>
		<path class="st0" d="M10.276,35.982l15.319-8.844c0.629-0.363,1.581-0.403,2.125-0.088l8.983,5.187
			c0.545,0.315,0.476,0.864-0.153,1.227l-15.319,8.844c-0.629,0.363-1.581,0.403-2.125,0.088l-8.983-5.187
			C9.579,36.894,9.647,36.345,10.276,35.982z"/>
		<path class="st0" d="M10.276,35.979l15.319-8.844c0.629-0.363,1.581-0.403,2.125-0.088l8.983,5.187
			c0.545,0.315,0.476,0.864-0.153,1.227l-15.319,8.844c-0.629,0.363-1.581,0.403-2.125,0.088l-8.983-5.187
			C9.579,36.891,9.647,36.342,10.276,35.979z"/>
		<path class="st0" d="M10.276,35.976l15.319-8.844c0.629-0.363,1.581-0.403,2.125-0.088l8.983,5.187
			c0.545,0.315,0.476,0.864-0.153,1.227l-15.319,8.844c-0.629,0.363-1.581,0.403-2.125,0.088l-8.983-5.187
			C9.579,36.888,9.647,36.339,10.276,35.976z"/>
		<path class="st0" d="M10.276,35.973l15.319-8.844c0.629-0.363,1.581-0.403,2.125-0.088l8.983,5.187
			c0.545,0.315,0.476,0.864-0.153,1.227l-15.319,8.844c-0.629,0.363-1.581,0.403-2.125,0.088L10.123,37.2
			C9.579,36.885,9.647,36.336,10.276,35.973z"/>
		<path class="st0" d="M10.276,35.97l15.319-8.844c0.629-0.363,1.581-0.403,2.125-0.088l8.983,5.187
			c0.545,0.315,0.476,0.864-0.153,1.227l-15.319,8.844c-0.629,0.363-1.581,0.403-2.125,0.088l-8.983-5.187
			C9.579,36.882,9.647,36.333,10.276,35.97z"/>
		<path class="st0" d="M10.276,35.967l15.319-8.844c0.629-0.363,1.581-0.403,2.125-0.088l8.983,5.187
			c0.545,0.315,0.476,0.864-0.153,1.227l-15.319,8.844c-0.629,0.363-1.581,0.403-2.125,0.088l-8.983-5.187
			C9.579,36.879,9.647,36.33,10.276,35.967z"/>
		<path class="st0" d="M10.276,35.964l15.319-8.844c0.629-0.363,1.581-0.403,2.125-0.088l8.983,5.187
			c0.545,0.315,0.476,0.864-0.153,1.227l-15.319,8.844c-0.629,0.363-1.581,0.403-2.125,0.088l-8.983-5.187
			C9.579,36.876,9.647,36.327,10.276,35.964z"/>
		<path class="st0" d="M10.276,35.961l15.319-8.844c0.629-0.363,1.581-0.403,2.125-0.088l8.983,5.187
			c0.545,0.315,0.476,0.864-0.153,1.227l-15.319,8.844c-0.629,0.363-1.581,0.403-2.125,0.088l-8.983-5.187
			C9.579,36.873,9.647,36.324,10.276,35.961z"/>
		<path class="st0" d="M10.276,35.958l15.319-8.844c0.629-0.363,1.581-0.403,2.125-0.088l8.983,5.187
			c0.545,0.315,0.476,0.864-0.153,1.227l-15.319,8.844c-0.629,0.363-1.581,0.403-2.125,0.088l-8.983-5.187
			C9.579,36.87,9.647,36.321,10.276,35.958z"/>
		<path class="st0" d="M10.276,35.955l15.319-8.844c0.629-0.363,1.581-0.403,2.125-0.088l8.983,5.187
			c0.545,0.315,0.476,0.864-0.153,1.227L21.232,42.28c-0.629,0.363-1.581,0.403-2.125,0.088l-8.983-5.187
			C9.579,36.867,9.647,36.318,10.276,35.955z"/>
		<path class="st0" d="M10.276,35.952l15.319-8.844c0.629-0.363,1.581-0.403,2.125-0.088l8.983,5.187
			c0.545,0.315,0.476,0.864-0.153,1.227l-15.319,8.844c-0.629,0.363-1.581,0.403-2.125,0.088l-8.983-5.187
			C9.579,36.864,9.647,36.315,10.276,35.952z"/>
		<path class="st0" d="M10.276,35.949l15.319-8.844c0.629-0.363,1.581-0.403,2.125-0.088l8.983,5.187
			c0.545,0.315,0.476,0.864-0.153,1.227l-15.319,8.844c-0.629,0.363-1.581,0.403-2.125,0.088l-8.983-5.187
			C9.579,36.861,9.647,36.312,10.276,35.949z"/>
		<path class="st0" d="M10.276,35.946l15.319-8.844c0.629-0.363,1.581-0.403,2.125-0.088l8.983,5.187
			c0.545,0.315,0.476,0.864-0.153,1.227l-15.319,8.844c-0.629,0.363-1.581,0.403-2.125,0.088l-8.983-5.187
			C9.579,36.858,9.647,36.309,10.276,35.946z"/>
		<path class="st0" d="M10.276,35.943l15.319-8.844c0.629-0.363,1.581-0.403,2.125-0.088l8.983,5.187
			c0.545,0.315,0.476,0.864-0.153,1.227l-15.319,8.844c-0.629,0.363-1.581,0.403-2.125,0.088l-8.983-5.187
			C9.579,36.855,9.647,36.306,10.276,35.943z"/>
		<path class="st0" d="M10.276,35.94l15.319-8.844c0.629-0.363,1.581-0.403,2.125-0.088l8.983,5.187
			c0.545,0.315,0.476,0.864-0.153,1.227l-15.319,8.844c-0.629,0.363-1.581,0.403-2.125,0.088l-8.983-5.187
			C9.579,36.852,9.647,36.303,10.276,35.94z"/>
		<path class="st0" d="M10.276,35.937l15.319-8.844c0.629-0.363,1.581-0.403,2.125-0.088l8.983,5.187
			c0.545,0.315,0.476,0.864-0.153,1.227l-15.319,8.844c-0.629,0.363-1.581,0.403-2.125,0.088l-8.983-5.187
			C9.579,36.849,9.647,36.3,10.276,35.937z"/>
		<path class="st0" d="M10.276,35.934l15.319-8.844c0.629-0.363,1.581-0.403,2.125-0.088l8.983,5.187
			c0.545,0.315,0.476,0.864-0.153,1.227l-15.319,8.844c-0.629,0.363-1.581,0.403-2.125,0.088l-8.983-5.187
			C9.579,36.846,9.647,36.297,10.276,35.934z"/>
		<path class="st0" d="M10.276,35.931l15.319-8.844c0.629-0.363,1.581-0.403,2.125-0.088l8.983,5.187
			c0.545,0.315,0.476,0.864-0.153,1.227l-15.319,8.844c-0.629,0.363-1.581,0.403-2.125,0.088l-8.983-5.187
			C9.579,36.843,9.647,36.294,10.276,35.931z"/>
		<path class="st0" d="M10.276,35.928l15.319-8.844c0.629-0.363,1.581-0.403,2.125-0.088l8.983,5.187
			c0.545,0.315,0.476,0.864-0.153,1.227l-15.319,8.844c-0.629,0.363-1.581,0.403-2.125,0.088l-8.983-5.187
			C9.579,36.84,9.647,36.291,10.276,35.928z"/>
		<path class="st0" d="M10.276,35.925l15.319-8.844c0.629-0.363,1.581-0.403,2.125-0.088l8.983,5.187
			c0.545,0.315,0.476,0.864-0.153,1.227L21.232,42.25c-0.629,0.363-1.581,0.403-2.125,0.088l-8.983-5.187
			C9.579,36.837,9.647,36.288,10.276,35.925z"/>
		<path class="st0" d="M10.276,35.922l15.319-8.844c0.629-0.363,1.581-0.403,2.125-0.088l8.983,5.187
			c0.545,0.315,0.476,0.864-0.153,1.227l-15.319,8.844c-0.629,0.363-1.581,0.403-2.125,0.088l-8.983-5.187
			C9.579,36.834,9.647,36.285,10.276,35.922z"/>
		<path class="st0" d="M10.276,35.919l15.319-8.844c0.629-0.363,1.581-0.403,2.125-0.088l8.983,5.187
			c0.545,0.315,0.476,0.864-0.153,1.227l-15.319,8.844c-0.629,0.363-1.581,0.403-2.125,0.088l-8.983-5.187
			C9.579,36.831,9.647,36.282,10.276,35.919z"/>
		<path class="st0" d="M10.276,35.916l15.319-8.844c0.629-0.363,1.581-0.403,2.125-0.088l8.983,5.187
			c0.545,0.315,0.476,0.864-0.153,1.227l-15.319,8.844c-0.629,0.363-1.581,0.403-2.125,0.088l-8.983-5.187
			C9.579,36.828,9.647,36.279,10.276,35.916z"/>
		<path class="st0" d="M10.276,35.913l15.319-8.844c0.629-0.363,1.581-0.403,2.125-0.088l8.983,5.187
			c0.545,0.315,0.476,0.864-0.153,1.227l-15.319,8.844c-0.629,0.363-1.581,0.403-2.125,0.088l-8.983-5.187
			C9.579,36.825,9.647,36.276,10.276,35.913z"/>
		<path class="st0" d="M10.276,35.91l15.319-8.844c0.629-0.363,1.581-0.403,2.125-0.088l8.983,5.187
			c0.545,0.315,0.476,0.864-0.153,1.227l-15.319,8.844c-0.629,0.363-1.581,0.403-2.125,0.088l-8.983-5.187
			C9.579,36.822,9.647,36.273,10.276,35.91z"/>
		<path class="st0" d="M10.276,35.907l15.319-8.844c0.629-0.363,1.581-0.403,2.125-0.088l8.983,5.187
			c0.545,0.315,0.476,0.864-0.153,1.227l-15.319,8.844c-0.629,0.363-1.581,0.403-2.125,0.088l-8.983-5.187
			C9.579,36.819,9.647,36.27,10.276,35.907z"/>
		<path class="st0" d="M10.276,35.904l15.319-8.844c0.629-0.363,1.581-0.403,2.125-0.088l8.983,5.187
			c0.545,0.315,0.476,0.864-0.153,1.227l-15.319,8.844c-0.629,0.363-1.581,0.403-2.125,0.088l-8.983-5.187
			C9.579,36.816,9.647,36.267,10.276,35.904z"/>
		<path class="st0" d="M10.276,35.901l15.319-8.844c0.629-0.363,1.581-0.403,2.125-0.088l8.983,5.187
			c0.545,0.315,0.476,0.864-0.153,1.227l-15.319,8.844c-0.629,0.363-1.581,0.403-2.125,0.088l-8.983-5.187
			C9.579,36.813,9.647,36.264,10.276,35.901z"/>
		<path class="st0" d="M10.276,35.898l15.319-8.844c0.629-0.363,1.581-0.403,2.125-0.088l8.983,5.187
			c0.545,0.315,0.476,0.864-0.153,1.227l-15.319,8.844c-0.629,0.363-1.581,0.403-2.125,0.088l-8.983-5.187
			C9.579,36.81,9.647,36.261,10.276,35.898z"/>
		<path class="st0" d="M10.276,35.895l15.319-8.844c0.629-0.363,1.581-0.403,2.125-0.088l8.983,5.187
			c0.545,0.315,0.476,0.864-0.153,1.227L21.232,42.22c-0.629,0.363-1.581,0.403-2.125,0.088l-8.983-5.187
			C9.579,36.807,9.647,36.258,10.276,35.895z"/>
		<path class="st0" d="M10.276,35.892l15.319-8.844c0.629-0.363,1.581-0.403,2.125-0.088l8.983,5.187
			c0.545,0.315,0.476,0.864-0.153,1.227l-15.319,8.844c-0.629,0.363-1.581,0.403-2.125,0.088l-8.983-5.187
			C9.579,36.804,9.647,36.255,10.276,35.892z"/>
		<path class="st0" d="M10.276,35.889l15.319-8.844c0.629-0.363,1.581-0.403,2.125-0.088l8.983,5.187
			c0.545,0.315,0.476,0.864-0.153,1.227l-15.319,8.844c-0.629,0.363-1.581,0.403-2.125,0.088l-8.983-5.187
			C9.579,36.801,9.647,36.252,10.276,35.889z"/>
		<path class="st0" d="M10.276,35.886l15.319-8.844c0.629-0.363,1.581-0.403,2.125-0.088l8.983,5.187
			c0.545,0.315,0.476,0.864-0.153,1.227l-15.319,8.844c-0.629,0.363-1.581,0.403-2.125,0.088l-8.983-5.187
			C9.579,36.798,9.647,36.249,10.276,35.886z"/>
		<path class="st0" d="M10.276,35.883l15.319-8.844c0.629-0.363,1.581-0.403,2.125-0.088l8.983,5.187
			c0.545,0.315,0.476,0.864-0.153,1.227l-15.319,8.844c-0.629,0.363-1.581,0.403-2.125,0.088l-8.983-5.187
			C9.579,36.795,9.647,36.246,10.276,35.883z"/>
		<path class="st0" d="M10.276,35.88l15.319-8.844c0.629-0.363,1.581-0.403,2.125-0.088l8.983,5.187
			c0.545,0.315,0.476,0.864-0.153,1.227l-15.319,8.844c-0.629,0.363-1.581,0.403-2.125,0.088l-8.983-5.187
			C9.579,36.792,9.647,36.243,10.276,35.88z"/>
		<path class="st0" d="M10.276,35.877l15.319-8.844c0.629-0.363,1.581-0.403,2.125-0.088l8.983,5.187
			c0.545,0.315,0.476,0.864-0.153,1.227l-15.319,8.844c-0.629,0.363-1.581,0.403-2.125,0.088l-8.983-5.187
			C9.579,36.789,9.647,36.24,10.276,35.877z"/>
		<path class="st0" d="M10.276,35.874l15.319-8.844c0.629-0.363,1.581-0.403,2.125-0.088l8.983,5.187
			c0.545,0.315,0.476,0.864-0.153,1.227l-15.319,8.844c-0.629,0.363-1.581,0.403-2.125,0.088l-8.983-5.187
			C9.579,36.786,9.647,36.237,10.276,35.874z"/>
		<path class="st0" d="M10.276,35.871l15.319-8.844c0.629-0.363,1.581-0.403,2.125-0.088l8.983,5.187
			c0.545,0.315,0.476,0.864-0.153,1.227l-15.319,8.844c-0.629,0.363-1.581,0.403-2.125,0.088l-8.983-5.187
			C9.579,36.783,9.647,36.234,10.276,35.871z"/>
		<path class="st0" d="M10.276,35.868l15.319-8.844c0.629-0.363,1.581-0.403,2.125-0.088l8.983,5.187
			c0.545,0.315,0.476,0.864-0.153,1.227l-15.319,8.844c-0.629,0.363-1.581,0.403-2.125,0.088l-8.983-5.187
			C9.579,36.78,9.647,36.231,10.276,35.868z"/>
		<path class="st0" d="M10.276,35.865l15.319-8.844c0.629-0.363,1.581-0.403,2.125-0.088l8.983,5.187
			c0.545,0.315,0.476,0.864-0.153,1.227L21.232,42.19c-0.629,0.363-1.581,0.403-2.125,0.088l-8.983-5.187
			C9.579,36.777,9.647,36.228,10.276,35.865z"/>
		<path class="st0" d="M10.276,35.862l15.319-8.844c0.629-0.363,1.581-0.403,2.125-0.088l8.983,5.187
			c0.545,0.315,0.476,0.864-0.153,1.227l-15.319,8.844c-0.629,0.363-1.581,0.403-2.125,0.088l-8.983-5.187
			C9.579,36.774,9.647,36.225,10.276,35.862z"/>
		<path class="st0" d="M10.276,35.859l15.319-8.844c0.629-0.363,1.581-0.403,2.125-0.088l8.983,5.187
			c0.545,0.315,0.476,0.864-0.153,1.227l-15.319,8.844c-0.629,0.363-1.581,0.403-2.125,0.088l-8.983-5.187
			C9.579,36.771,9.647,36.222,10.276,35.859z"/>
		<path class="st0" d="M10.276,35.856l15.319-8.844c0.629-0.363,1.581-0.403,2.125-0.088l8.983,5.187
			c0.545,0.315,0.476,0.864-0.153,1.227l-15.319,8.844c-0.629,0.363-1.581,0.403-2.125,0.088l-8.983-5.187
			C9.579,36.768,9.647,36.219,10.276,35.856z"/>
		<path class="st0" d="M10.276,35.853l15.319-8.844c0.629-0.363,1.581-0.403,2.125-0.088l8.983,5.187
			c0.545,0.315,0.476,0.864-0.153,1.227l-15.319,8.844c-0.629,0.363-1.581,0.403-2.125,0.088l-8.983-5.187
			C9.579,36.765,9.647,36.216,10.276,35.853z"/>
		<path class="st0" d="M10.276,35.85l15.319-8.844c0.629-0.363,1.581-0.403,2.125-0.088l8.983,5.187
			c0.545,0.315,0.476,0.864-0.153,1.227l-15.319,8.844c-0.629,0.363-1.581,0.403-2.125,0.088l-8.983-5.187
			C9.579,36.762,9.647,36.213,10.276,35.85z"/>
		<path class="st0" d="M10.276,35.847l15.319-8.844c0.629-0.363,1.581-0.403,2.125-0.088l8.983,5.187
			c0.545,0.315,0.476,0.864-0.153,1.227l-15.319,8.844c-0.629,0.363-1.581,0.403-2.125,0.088l-8.983-5.187
			C9.579,36.759,9.647,36.21,10.276,35.847z"/>
		<path class="st0" d="M10.276,35.844l15.319-8.844c0.629-0.363,1.581-0.403,2.125-0.088l8.983,5.187
			c0.545,0.315,0.476,0.864-0.153,1.227l-15.319,8.844c-0.629,0.363-1.581,0.403-2.125,0.088l-8.983-5.187
			C9.579,36.756,9.647,36.207,10.276,35.844z"/>
		<path class="st0" d="M10.276,35.841l15.319-8.844c0.629-0.363,1.581-0.403,2.125-0.088l8.983,5.187
			c0.545,0.315,0.476,0.864-0.153,1.227l-15.319,8.844c-0.629,0.363-1.581,0.403-2.125,0.088l-8.983-5.187
			C9.579,36.753,9.647,36.204,10.276,35.841z"/>
		<path class="st0" d="M10.276,35.838l15.319-8.844c0.629-0.363,1.581-0.403,2.125-0.088l8.983,5.187
			c0.545,0.315,0.476,0.864-0.153,1.227l-15.319,8.844c-0.629,0.363-1.581,0.403-2.125,0.088l-8.983-5.187
			C9.579,36.75,9.647,36.201,10.276,35.838z"/>
		<path class="st0" d="M10.276,35.835l15.319-8.844c0.629-0.363,1.581-0.403,2.125-0.088l8.983,5.187
			c0.545,0.315,0.476,0.864-0.153,1.227L21.232,42.16c-0.629,0.363-1.581,0.403-2.125,0.088l-8.983-5.187
			C9.579,36.747,9.647,36.198,10.276,35.835z"/>
		<path class="st0" d="M10.276,35.832l15.319-8.844c0.629-0.363,1.581-0.403,2.125-0.088l8.983,5.187
			c0.545,0.315,0.476,0.864-0.153,1.227l-15.319,8.844c-0.629,0.363-1.581,0.403-2.125,0.088l-8.983-5.187
			C9.579,36.744,9.647,36.195,10.276,35.832z"/>
		<path class="st0" d="M10.276,35.829l15.319-8.844c0.629-0.363,1.581-0.403,2.125-0.088l8.983,5.187
			c0.545,0.315,0.476,0.864-0.153,1.227l-15.319,8.844c-0.629,0.363-1.581,0.403-2.125,0.088l-8.983-5.187
			C9.579,36.741,9.647,36.192,10.276,35.829z"/>
		<path class="st0" d="M10.276,35.826l15.319-8.844c0.629-0.363,1.581-0.403,2.125-0.088l8.983,5.187
			c0.545,0.315,0.476,0.864-0.153,1.227l-15.319,8.844c-0.629,0.363-1.581,0.403-2.125,0.088l-8.983-5.187
			C9.579,36.738,9.647,36.189,10.276,35.826z"/>
		<path class="st0" d="M10.276,35.823l15.319-8.844c0.629-0.363,1.581-0.403,2.125-0.088l8.983,5.187
			c0.545,0.315,0.476,0.864-0.153,1.227l-15.319,8.844c-0.629,0.363-1.581,0.403-2.125,0.088l-8.983-5.187
			C9.579,36.735,9.647,36.186,10.276,35.823z"/>
		<path class="st0" d="M10.276,35.82l15.319-8.844c0.629-0.363,1.581-0.403,2.125-0.088l8.983,5.187
			c0.545,0.315,0.476,0.864-0.153,1.227l-15.319,8.844c-0.629,0.363-1.581,0.403-2.125,0.088l-8.983-5.187
			C9.579,36.732,9.647,36.183,10.276,35.82z"/>
		<path class="st0" d="M10.276,35.817l15.319-8.844c0.629-0.363,1.581-0.403,2.125-0.088l8.983,5.187
			c0.545,0.315,0.476,0.864-0.153,1.227l-15.319,8.844c-0.629,0.363-1.581,0.403-2.125,0.088l-8.983-5.187
			C9.579,36.729,9.647,36.18,10.276,35.817z"/>
		<path class="st0" d="M10.276,35.814l15.319-8.844c0.629-0.363,1.581-0.403,2.125-0.088l8.983,5.187
			c0.545,0.315,0.476,0.864-0.153,1.227l-15.319,8.844c-0.629,0.363-1.581,0.403-2.125,0.088l-8.983-5.187
			C9.579,36.726,9.647,36.177,10.276,35.814z"/>
		<path class="st0" d="M10.276,35.811l15.319-8.844c0.629-0.363,1.581-0.403,2.125-0.088l8.983,5.187
			c0.545,0.315,0.476,0.864-0.153,1.227l-15.319,8.844c-0.629,0.363-1.581,0.403-2.125,0.088l-8.983-5.187
			C9.579,36.723,9.647,36.174,10.276,35.811z"/>
		<path class="st0" d="M10.276,35.808l15.319-8.844c0.629-0.363,1.581-0.403,2.125-0.088l8.983,5.187
			c0.545,0.315,0.476,0.864-0.153,1.227l-15.319,8.844c-0.629,0.363-1.581,0.403-2.125,0.088l-8.983-5.187
			C9.579,36.72,9.647,36.171,10.276,35.808z"/>
		<path class="st0" d="M10.276,35.805l15.319-8.844c0.629-0.363,1.581-0.403,2.125-0.088l8.983,5.187
			c0.545,0.315,0.476,0.864-0.153,1.227L21.232,42.13c-0.629,0.363-1.581,0.403-2.125,0.088l-8.983-5.187
			C9.579,36.717,9.647,36.168,10.276,35.805z"/>
		<path class="st0" d="M10.276,35.802l15.319-8.844c0.629-0.363,1.581-0.403,2.125-0.088l8.983,5.187
			c0.545,0.315,0.476,0.864-0.153,1.227l-15.319,8.844c-0.629,0.363-1.581,0.403-2.125,0.088l-8.983-5.187
			C9.579,36.714,9.647,36.165,10.276,35.802z"/>
		<path class="st0" d="M10.276,35.799l15.319-8.844c0.629-0.363,1.581-0.403,2.125-0.088l8.983,5.187
			c0.545,0.315,0.476,0.864-0.153,1.227l-15.319,8.844c-0.629,0.363-1.581,0.403-2.125,0.088l-8.983-5.187
			C9.579,36.711,9.647,36.162,10.276,35.799z"/>
		<path class="st0" d="M10.276,35.796l15.319-8.844c0.629-0.363,1.581-0.403,2.125-0.088l8.983,5.187
			c0.545,0.315,0.476,0.864-0.153,1.227l-15.319,8.844c-0.629,0.363-1.581,0.403-2.125,0.088l-8.983-5.187
			C9.579,36.708,9.647,36.159,10.276,35.796z"/>
		<path class="st0" d="M10.276,35.793l15.319-8.844c0.629-0.363,1.581-0.403,2.125-0.088l8.983,5.187
			c0.545,0.315,0.476,0.864-0.153,1.227l-15.319,8.844c-0.629,0.363-1.581,0.403-2.125,0.088l-8.983-5.187
			C9.579,36.705,9.647,36.156,10.276,35.793z"/>
		<path class="st0" d="M10.276,35.79l15.319-8.844c0.629-0.363,1.581-0.403,2.125-0.088l8.983,5.187
			c0.545,0.315,0.476,0.864-0.153,1.227l-15.319,8.844c-0.629,0.363-1.581,0.403-2.125,0.088l-8.983-5.187
			C9.579,36.702,9.647,36.153,10.276,35.79z"/>
		<path class="st0" d="M10.276,35.787l15.319-8.844c0.629-0.363,1.581-0.403,2.125-0.088l8.983,5.187
			c0.545,0.315,0.476,0.864-0.153,1.227l-15.319,8.844c-0.629,0.363-1.581,0.403-2.125,0.088l-8.983-5.187
			C9.579,36.699,9.647,36.15,10.276,35.787z"/>
		<path class="st0" d="M10.276,35.784l15.319-8.844c0.629-0.363,1.581-0.403,2.125-0.088l8.983,5.187
			c0.545,0.315,0.476,0.864-0.153,1.227l-15.319,8.844c-0.629,0.363-1.581,0.403-2.125,0.088l-8.983-5.187
			C9.579,36.696,9.647,36.147,10.276,35.784z"/>
		<path class="st0" d="M10.276,35.781l15.319-8.844c0.629-0.363,1.581-0.403,2.125-0.088l8.983,5.187
			c0.545,0.315,0.476,0.864-0.153,1.227l-15.319,8.844c-0.629,0.363-1.581,0.403-2.125,0.088l-8.983-5.187
			C9.579,36.693,9.647,36.144,10.276,35.781z"/>
		<path class="st0" d="M10.276,35.778l15.319-8.844c0.629-0.363,1.581-0.403,2.125-0.088l8.983,5.187
			c0.545,0.315,0.476,0.864-0.153,1.227l-15.319,8.844c-0.629,0.363-1.581,0.403-2.125,0.088l-8.983-5.187
			C9.579,36.69,9.647,36.141,10.276,35.778z"/>
		<path class="st0" d="M10.276,35.775l15.319-8.844c0.629-0.363,1.581-0.403,2.125-0.088l8.983,5.187
			c0.545,0.315,0.476,0.864-0.153,1.227L21.232,42.1c-0.629,0.363-1.581,0.403-2.125,0.088l-8.983-5.187
			C9.579,36.687,9.647,36.138,10.276,35.775z"/>
		<path class="st0" d="M10.276,35.772l15.319-8.844c0.629-0.363,1.581-0.403,2.125-0.088l8.983,5.187
			c0.545,0.315,0.476,0.864-0.153,1.227l-15.319,8.844c-0.629,0.363-1.581,0.403-2.125,0.088l-8.983-5.187
			C9.579,36.684,9.647,36.135,10.276,35.772z"/>
		<path class="st0" d="M10.276,35.769l15.319-8.844c0.629-0.363,1.581-0.403,2.125-0.088l8.983,5.187
			c0.545,0.315,0.476,0.864-0.153,1.227l-15.319,8.844c-0.629,0.363-1.581,0.403-2.125,0.088l-8.983-5.187
			C9.579,36.681,9.647,36.132,10.276,35.769z"/>
		<path class="st0" d="M10.276,35.766l15.319-8.844c0.629-0.363,1.581-0.403,2.125-0.088l8.983,5.187
			c0.545,0.315,0.476,0.864-0.153,1.227l-15.319,8.844c-0.629,0.363-1.581,0.403-2.125,0.088l-8.983-5.187
			C9.579,36.678,9.647,36.129,10.276,35.766z"/>
		<path class="st0" d="M10.276,35.763l15.319-8.844c0.629-0.363,1.581-0.403,2.125-0.088l8.983,5.187
			c0.545,0.315,0.476,0.864-0.153,1.227l-15.319,8.844c-0.629,0.363-1.581,0.403-2.125,0.088l-8.983-5.187
			C9.579,36.675,9.647,36.126,10.276,35.763z"/>
		<path class="st0" d="M10.276,35.76l15.319-8.844c0.629-0.363,1.581-0.403,2.125-0.088l8.983,5.187
			c0.545,0.315,0.476,0.864-0.153,1.227l-15.319,8.844c-0.629,0.363-1.581,0.403-2.125,0.088l-8.983-5.187
			C9.579,36.672,9.647,36.123,10.276,35.76z"/>
		<path class="st0" d="M10.276,35.757l15.319-8.844c0.629-0.363,1.581-0.403,2.125-0.088l8.983,5.187
			c0.545,0.315,0.476,0.864-0.153,1.227l-15.319,8.844c-0.629,0.363-1.581,0.403-2.125,0.088l-8.983-5.187
			C9.579,36.669,9.647,36.12,10.276,35.757z"/>
		<path class="st0" d="M10.276,35.754l15.319-8.844c0.629-0.363,1.581-0.403,2.125-0.088l8.983,5.187
			c0.545,0.315,0.476,0.864-0.153,1.227l-15.319,8.844c-0.629,0.363-1.581,0.403-2.125,0.088l-8.983-5.187
			C9.579,36.666,9.647,36.117,10.276,35.754z"/>
		<path class="st0" d="M10.276,35.751l15.319-8.844c0.629-0.363,1.581-0.403,2.125-0.088l8.983,5.187
			c0.545,0.315,0.476,0.864-0.153,1.227l-15.319,8.844c-0.629,0.363-1.581,0.403-2.125,0.088l-8.983-5.187
			C9.579,36.663,9.647,36.114,10.276,35.751z"/>
		<path class="st0" d="M10.276,35.748l15.319-8.844c0.629-0.363,1.581-0.403,2.125-0.088l8.983,5.187
			c0.545,0.315,0.476,0.864-0.153,1.227l-15.319,8.844c-0.629,0.363-1.581,0.403-2.125,0.088l-8.983-5.187
			C9.579,36.66,9.647,36.111,10.276,35.748z"/>
		<path class="st0" d="M10.276,35.745L25.595,26.9c0.629-0.363,1.581-0.403,2.125-0.088l8.983,5.187
			c0.545,0.315,0.476,0.864-0.153,1.227L21.232,42.07c-0.629,0.363-1.581,0.403-2.125,0.088l-8.983-5.187
			C9.579,36.657,9.647,36.108,10.276,35.745z"/>
		<path class="st0" d="M10.276,35.742l15.319-8.844c0.629-0.363,1.581-0.403,2.125-0.088l8.983,5.187
			c0.545,0.315,0.476,0.864-0.153,1.227l-15.319,8.844c-0.629,0.363-1.581,0.403-2.125,0.088l-8.983-5.187
			C9.579,36.654,9.647,36.105,10.276,35.742z"/>
		<path class="st0" d="M10.276,35.739l15.319-8.844c0.629-0.363,1.581-0.403,2.125-0.088l8.983,5.187
			c0.545,0.315,0.476,0.864-0.153,1.227l-15.319,8.844c-0.629,0.363-1.581,0.403-2.125,0.088l-8.983-5.187
			C9.579,36.651,9.647,36.102,10.276,35.739z"/>
		<path class="st0" d="M10.276,35.736l15.319-8.844c0.629-0.363,1.581-0.403,2.125-0.088l8.983,5.187
			c0.545,0.315,0.476,0.864-0.153,1.227l-15.319,8.844c-0.629,0.363-1.581,0.403-2.125,0.088l-8.983-5.187
			C9.579,36.648,9.647,36.099,10.276,35.736z"/>
		<path class="st0" d="M10.276,35.733l15.319-8.844c0.629-0.363,1.581-0.403,2.125-0.088l8.983,5.187
			c0.545,0.315,0.476,0.864-0.153,1.227l-15.319,8.844c-0.629,0.363-1.581,0.403-2.125,0.088l-8.983-5.187
			C9.579,36.645,9.647,36.096,10.276,35.733z"/>
		<path class="st0" d="M10.276,35.73l15.319-8.844c0.629-0.363,1.581-0.403,2.125-0.088l8.983,5.187
			c0.545,0.315,0.476,0.864-0.153,1.227l-15.319,8.844c-0.629,0.363-1.581,0.403-2.125,0.088l-8.983-5.187
			C9.579,36.642,9.647,36.093,10.276,35.73z"/>
		<path class="st0" d="M10.276,35.727l15.319-8.844c0.629-0.363,1.581-0.403,2.125-0.088l8.983,5.187
			c0.545,0.315,0.476,0.864-0.153,1.227l-15.319,8.844c-0.629,0.363-1.581,0.403-2.125,0.088l-8.983-5.187
			C9.579,36.639,9.647,36.09,10.276,35.727z"/>
		<path class="st0" d="M10.276,35.724l15.319-8.844c0.629-0.363,1.581-0.403,2.125-0.088l8.983,5.187
			c0.545,0.315,0.476,0.864-0.153,1.227l-15.319,8.844c-0.629,0.363-1.581,0.403-2.125,0.088l-8.983-5.187
			C9.579,36.636,9.647,36.087,10.276,35.724z"/>
		<path class="st0" d="M10.276,35.721l15.319-8.844c0.629-0.363,1.581-0.403,2.125-0.088l8.983,5.187
			c0.545,0.315,0.476,0.864-0.153,1.227l-15.319,8.844c-0.629,0.363-1.581,0.403-2.125,0.088l-8.983-5.187
			C9.579,36.633,9.647,36.084,10.276,35.721z"/>
		<path class="st0" d="M10.276,35.718l15.319-8.844c0.629-0.363,1.581-0.403,2.125-0.088l8.983,5.187
			c0.545,0.315,0.476,0.864-0.153,1.227l-15.319,8.844c-0.629,0.363-1.581,0.403-2.125,0.088l-8.983-5.187
			C9.579,36.63,9.647,36.081,10.276,35.718z"/>
		<path class="st0" d="M10.276,35.715l15.319-8.844c0.629-0.363,1.581-0.403,2.125-0.088l8.983,5.187
			c0.545,0.315,0.476,0.864-0.153,1.227L21.232,42.04c-0.629,0.363-1.581,0.403-2.125,0.088l-8.983-5.187
			C9.579,36.627,9.647,36.078,10.276,35.715z"/>
		<path class="st0" d="M10.276,35.712l15.319-8.844c0.629-0.363,1.581-0.403,2.125-0.088l8.983,5.187
			c0.545,0.315,0.476,0.864-0.153,1.227l-15.319,8.844c-0.629,0.363-1.581,0.403-2.125,0.088l-8.983-5.187
			C9.579,36.624,9.647,36.075,10.276,35.712z"/>
		<path class="st0" d="M10.276,35.709l15.319-8.844c0.629-0.363,1.581-0.403,2.125-0.088l8.983,5.187
			c0.545,0.315,0.476,0.864-0.153,1.227l-15.319,8.844c-0.629,0.363-1.581,0.403-2.125,0.088l-8.983-5.187
			C9.579,36.621,9.647,36.072,10.276,35.709z"/>
		<path class="st0" d="M10.276,35.706l15.319-8.844c0.629-0.363,1.581-0.403,2.125-0.088l8.983,5.187
			c0.545,0.315,0.476,0.864-0.153,1.227l-15.319,8.844c-0.629,0.363-1.581,0.403-2.125,0.088l-8.983-5.187
			C9.579,36.618,9.647,36.069,10.276,35.706z"/>
		<path class="st0" d="M10.276,35.703l15.319-8.844c0.629-0.363,1.581-0.403,2.125-0.088l8.983,5.187
			c0.545,0.315,0.476,0.864-0.153,1.227l-15.319,8.844c-0.629,0.363-1.581,0.403-2.125,0.088l-8.983-5.187
			C9.579,36.615,9.647,36.066,10.276,35.703z"/>
		<path class="st0" d="M10.276,35.7l15.319-8.844c0.629-0.363,1.581-0.403,2.125-0.088l8.983,5.187
			c0.545,0.315,0.476,0.864-0.153,1.227l-15.319,8.844c-0.629,0.363-1.581,0.403-2.125,0.088l-8.983-5.187
			C9.579,36.612,9.647,36.063,10.276,35.7z"/>
		<path class="st0" d="M10.276,35.697l15.319-8.844c0.629-0.363,1.581-0.403,2.125-0.088l8.983,5.187
			c0.545,0.315,0.476,0.864-0.153,1.227l-15.319,8.844c-0.629,0.363-1.581,0.403-2.125,0.088l-8.983-5.187
			C9.579,36.609,9.647,36.06,10.276,35.697z"/>
		<path class="st0" d="M10.276,35.694l15.319-8.844c0.629-0.363,1.581-0.403,2.125-0.088l8.983,5.187
			c0.545,0.315,0.476,0.864-0.153,1.227l-15.319,8.844c-0.629,0.363-1.581,0.403-2.125,0.088l-8.983-5.187
			C9.579,36.606,9.647,36.057,10.276,35.694z"/>
		<path class="st0" d="M10.276,35.691l15.319-8.844c0.629-0.363,1.581-0.403,2.125-0.088l8.983,5.187
			c0.545,0.315,0.476,0.864-0.153,1.227l-15.319,8.844c-0.629,0.363-1.581,0.403-2.125,0.088l-8.983-5.187
			C9.579,36.603,9.647,36.054,10.276,35.691z"/>
		<path class="st0" d="M10.276,35.688l15.319-8.844c0.629-0.363,1.581-0.403,2.125-0.088l8.983,5.187
			c0.545,0.315,0.476,0.864-0.153,1.227l-15.319,8.844c-0.629,0.363-1.581,0.403-2.125,0.088l-8.983-5.187
			C9.579,36.6,9.647,36.051,10.276,35.688z"/>
		<path class="st0" d="M10.276,35.685l15.319-8.844c0.629-0.363,1.581-0.403,2.125-0.088l8.983,5.187
			c0.545,0.315,0.476,0.864-0.153,1.227L21.232,42.01c-0.629,0.363-1.581,0.403-2.125,0.088l-8.983-5.187
			C9.579,36.597,9.647,36.048,10.276,35.685z"/>
		<path class="st0" d="M10.276,35.682l15.319-8.844c0.629-0.363,1.581-0.403,2.125-0.088l8.983,5.187
			c0.545,0.315,0.476,0.864-0.153,1.227l-15.319,8.844c-0.629,0.363-1.581,0.403-2.125,0.088l-8.983-5.187
			C9.579,36.594,9.647,36.045,10.276,35.682z"/>
		<path class="st0" d="M10.276,35.679l15.319-8.844c0.629-0.363,1.581-0.403,2.125-0.088l8.983,5.187
			c0.545,0.315,0.476,0.864-0.153,1.227l-15.319,8.844c-0.629,0.363-1.581,0.403-2.125,0.088l-8.983-5.187
			C9.579,36.591,9.647,36.042,10.276,35.679z"/>
		<path class="st0" d="M10.276,35.676l15.319-8.844c0.629-0.363,1.581-0.403,2.125-0.088l8.983,5.187
			c0.545,0.315,0.476,0.864-0.153,1.227l-15.319,8.844c-0.629,0.363-1.581,0.403-2.125,0.088l-8.983-5.187
			C9.579,36.588,9.647,36.039,10.276,35.676z"/>
		<path class="st0" d="M10.276,35.673l15.319-8.844c0.629-0.363,1.581-0.403,2.125-0.088l8.983,5.187
			c0.545,0.315,0.476,0.864-0.153,1.227l-15.319,8.844c-0.629,0.363-1.581,0.403-2.125,0.088L10.123,36.9
			C9.579,36.585,9.647,36.036,10.276,35.673z"/>
		<path class="st0" d="M10.276,35.669l15.319-8.844c0.629-0.363,1.581-0.403,2.125-0.088l8.983,5.187
			c0.545,0.315,0.476,0.864-0.153,1.227l-15.319,8.844c-0.629,0.363-1.581,0.403-2.125,0.088l-8.983-5.187
			C9.579,36.582,9.647,36.033,10.276,35.669z"/>
		<path class="st0" d="M10.276,35.666l15.319-8.844c0.629-0.363,1.581-0.403,2.125-0.088l8.983,5.187
			c0.545,0.315,0.476,0.864-0.153,1.227l-15.319,8.844c-0.629,0.363-1.581,0.403-2.125,0.088l-8.983-5.187
			C9.579,36.579,9.647,36.03,10.276,35.666z"/>
		<path class="st0" d="M10.276,35.663l15.319-8.844c0.629-0.363,1.581-0.403,2.125-0.088l8.983,5.187
			c0.545,0.315,0.476,0.864-0.153,1.227l-15.319,8.844c-0.629,0.363-1.581,0.403-2.125,0.088l-8.983-5.187
			C9.579,36.576,9.647,36.027,10.276,35.663z"/>
		<path class="st0" d="M10.276,35.66l15.319-8.844c0.629-0.363,1.581-0.403,2.125-0.088l8.983,5.187
			c0.545,0.315,0.476,0.864-0.153,1.227l-15.319,8.844c-0.629,0.363-1.581,0.403-2.125,0.088l-8.983-5.187
			C9.579,36.573,9.647,36.024,10.276,35.66z"/>
		<path class="st0" d="M10.276,35.657l15.319-8.844c0.629-0.363,1.581-0.403,2.125-0.088l8.983,5.187
			c0.545,0.315,0.476,0.864-0.153,1.227l-15.319,8.844c-0.629,0.363-1.581,0.403-2.125,0.088l-8.983-5.187
			C9.579,36.57,9.647,36.021,10.276,35.657z"/>
		<path class="st0" d="M10.276,35.654l15.319-8.844c0.629-0.363,1.581-0.403,2.125-0.088l8.983,5.187
			c0.545,0.315,0.476,0.864-0.153,1.227L21.232,41.98c-0.629,0.363-1.581,0.403-2.125,0.088l-8.983-5.187
			C9.579,36.567,9.647,36.018,10.276,35.654z"/>
		<path class="st0" d="M10.276,35.651l15.319-8.844c0.629-0.363,1.581-0.403,2.125-0.088l8.983,5.187
			c0.545,0.315,0.476,0.864-0.153,1.227l-15.319,8.844c-0.629,0.363-1.581,0.403-2.125,0.088l-8.983-5.187
			C9.579,36.564,9.647,36.015,10.276,35.651z"/>
		<path class="st0" d="M10.276,35.648l15.319-8.844c0.629-0.363,1.581-0.403,2.125-0.088l8.983,5.187
			c0.545,0.315,0.476,0.864-0.153,1.227l-15.319,8.844c-0.629,0.363-1.581,0.403-2.125,0.088l-8.983-5.187
			C9.579,36.561,9.647,36.012,10.276,35.648z"/>
		<path class="st0" d="M10.276,35.645l15.319-8.844c0.629-0.363,1.581-0.403,2.125-0.088l8.983,5.187
			c0.545,0.315,0.476,0.864-0.153,1.227l-15.319,8.844c-0.629,0.363-1.581,0.403-2.125,0.088l-8.983-5.187
			C9.579,36.558,9.647,36.009,10.276,35.645z"/>
		<path class="st0" d="M10.276,35.642l15.319-8.844c0.629-0.363,1.581-0.403,2.125-0.088l8.983,5.187
			c0.545,0.315,0.476,0.864-0.153,1.227l-15.319,8.844c-0.629,0.363-1.581,0.403-2.125,0.088l-8.983-5.187
			C9.579,36.555,9.647,36.006,10.276,35.642z"/>
		<path class="st0" d="M10.276,35.639l15.319-8.844c0.629-0.363,1.581-0.403,2.125-0.088l8.983,5.187
			c0.545,0.315,0.476,0.864-0.153,1.227l-15.319,8.844c-0.629,0.363-1.581,0.403-2.125,0.088l-8.983-5.187
			C9.579,36.552,9.647,36.003,10.276,35.639z"/>
	</g>
	<g>
		<path class="st1" d="M10.123,36.867l8.983,5.187c0.545,0.315,1.496,0.275,2.125-0.088l15.319-8.844
			c0.629-0.363,0.697-0.913,0.153-1.227l-8.983-5.187c-0.545-0.315-1.496-0.275-2.125,0.088l-15.319,8.844
			C9.647,36.003,9.579,36.552,10.123,36.867z"/>
		<g>
			
				<ellipse transform="matrix(0.0162 -0.9999 0.9999 0.0162 0.9226 60.6271)" class="st2" cx="31.269" cy="29.845" rx="0.316" ry="0.548"/>
			
				<ellipse transform="matrix(0.0162 -0.9999 0.9999 0.0162 0.9226 60.6271)" class="st3" cx="31.269" cy="29.845" rx="0.144" ry="0.249"/>
		</g>
		<polygon class="st4" points="10.789,36.055 20.465,41.642 35.374,33.061 25.698,27.475 		"/>
	</g>
	<g>
		<polygon class="st5" points="16.85,33.659 24.44,38.206 23.815,38.554 16.225,34.007 		"/>
		<polygon class="st5" points="17.919,32.953 25.509,37.5 24.883,37.848 17.294,33.301 		"/>
		<polygon class="st5" points="15.872,34.203 23.462,38.75 22.836,39.098 15.247,34.551 		"/>
		<polygon class="st5" points="14.894,34.747 22.484,39.294 21.858,39.642 14.269,35.095 		"/>
		<polygon class="st5" points="28.535,31.535 32.085,33.662 29.277,35.223 25.727,33.096 		"/>
		<polygon class="st5" points="25.068,33.463 28.618,35.59 27.992,35.938 24.442,33.811 		"/>
		<polygon class="st5" points="24.09,34.007 27.64,36.134 27.014,36.481 23.464,34.354 		"/>
		<polygon class="st5" points="23.111,34.551 26.661,36.677 26.036,37.025 22.486,34.898 		"/>
		<polygon class="st5" points="21.694,30.68 24.501,29.119 28.051,31.246 25.244,32.806 		"/>
		<polygon class="st5" points="23.959,33.521 20.409,31.394 21.034,31.046 24.584,33.173 		"/>
		<polygon class="st5" points="22.981,34.065 19.431,31.938 20.056,31.59 23.606,33.717 		"/>
		<polygon class="st5" points="22.002,34.609 18.452,32.482 19.078,32.134 22.628,34.261 		"/>
	</g>
</g>
</svg>
