<?xml version="1.0" encoding="utf-8"?>
<!-- Generator: Adobe Illustrator 25.4.1, SVG Export Plug-In . SVG Version: 6.00 Build 0)  -->
<svg version="1.1" id="Layer_1" xmlns="http://www.w3.org/2000/svg" xmlns:xlink="http://www.w3.org/1999/xlink" x="0px" y="0px"
	 viewBox="0 0 50 50" style="enable-background:new 0 0 50 50;" xml:space="preserve">
<style type="text/css">
	.st0{opacity:0.05;}
	.st1{fill:#EDECED;}
	.st2{fill:#DDDDDC;}
	.st3{fill:#C6C6C6;}
	.st4{fill:#DDDDDD;}
	.st5{fill:#D8D8D8;}
	.st6{fill:#353535;}
	.st7{fill:#CBCBCB;}
</style>
<g>
	<path class="st0" d="M42.533,38.157c-1.678-0.467-25.84-11.313-26.834-11.313c-0.994,0-11.015,6.234-11.266,6.377
		c0,0-1.01,0.427-0.383,1.054s21.591,12.653,22.946,13.306s2.293,0.603,3.808,0c1.515-0.603,12.418-7.103,13.164-7.848
		C44.714,38.988,44.212,38.624,42.533,38.157z"/>
	<g>
		<g>
			<polygon class="st1" points="42.758,37.694 21.157,25.225 7.288,33.223 7.288,34.183 28.888,46.65 28.888,46.652 28.888,46.651 
				28.888,46.652 28.888,46.65 42.758,38.653 			"/>
			<polygon class="st1" points="7.294,33.223 21.156,25.225 42.753,37.694 28.89,45.692 			"/>
			<polygon class="st2" points="7.294,33.223 7.294,34.183 28.89,46.652 28.89,45.692 			"/>
			<polygon class="st3" points="42.753,37.694 42.753,38.653 28.887,46.652 28.89,45.692 			"/>
		</g>
		<g>
			<polygon class="st4" points="27.66,30.18 34.369,34.071 30.529,36.271 23.817,32.396 			"/>
			<polygon class="st5" points="34.101,34.225 34.369,34.071 27.66,30.18 23.817,32.396 24.097,32.557 27.672,30.496 			"/>
		</g>
		<g>
			<polygon class="st4" points="16.8,29.447 35.517,40.253 28.992,44.076 10.145,33.27 			"/>
			<g>
				<polygon class="st6" points="32.886,39.565 31.807,40.168 33.046,40.883 34.124,40.28 				"/>
				<polygon class="st6" points="18.111,31.033 16.864,30.313 15.785,30.916 17.032,31.636 				"/>
				<polygon class="st6" points="18.635,32.561 19.713,31.958 18.466,31.238 17.388,31.841 				"/>
				<polygon class="st6" points="25.043,36.262 26.122,35.659 24.874,34.939 23.796,35.542 				"/>
				<polygon class="st6" points="23.441,35.337 24.519,34.734 23.272,34.013 22.194,34.616 				"/>
				<polygon class="st6" points="21.839,34.411 22.917,33.808 21.67,33.088 20.592,33.691 				"/>
				<polygon class="st6" points="31.444,39.958 32.522,39.355 31.283,38.639 30.205,39.242 				"/>
				<polygon class="st6" points="29.842,39.033 30.92,38.43 29.681,37.714 28.603,38.317 				"/>
				<polygon class="st6" points="28.239,38.107 29.318,37.504 28.079,36.789 27.001,37.392 				"/>
				<polygon class="st6" points="26.646,37.187 27.724,36.584 26.477,35.864 25.399,36.467 				"/>
				<polygon class="st6" points="20.237,33.486 21.315,32.883 20.068,32.163 18.99,32.766 				"/>
				<polygon class="st6" points="30.344,40.986 31.583,41.701 32.661,41.098 31.423,40.383 				"/>
				<polygon class="st6" points="31.059,40.173 28.218,38.532 27.14,39.135 29.981,40.776 				"/>
				<polygon class="st6" points="27.855,38.323 26.616,37.607 25.538,38.21 26.776,38.926 				"/>
				<polygon class="st6" points="23.935,37.285 25.183,38.005 26.261,37.402 25.014,36.682 				"/>
				<polygon class="st6" points="22.333,36.36 23.58,37.08 24.659,36.477 23.411,35.757 				"/>
				<polygon class="st6" points="17.527,33.584 18.774,34.304 19.852,33.701 18.605,32.981 				"/>
				<polygon class="st6" points="19.129,34.51 20.376,35.23 21.454,34.627 20.207,33.906 				"/>
				<polygon class="st6" points="20.731,35.435 21.978,36.155 23.056,35.552 21.809,34.832 				"/>
				<polygon class="st6" points="15.924,32.659 17.172,33.379 18.25,32.776 17.003,32.056 				"/>
				<polygon class="st6" points="16.648,31.851 15.401,31.131 14.322,31.734 15.569,32.454 				"/>
				<polygon class="st6" points="28.881,41.804 30.12,42.519 31.198,41.916 29.959,41.201 				"/>
				<polygon class="st6" points="27.994,40.066 26.755,39.351 25.677,39.954 26.916,40.669 				"/>
				<polygon class="st6" points="24.798,38.22 23.551,37.5 22.472,38.103 23.72,38.823 				"/>
				<polygon class="st6" points="26.392,39.141 25.153,38.425 24.075,39.028 25.313,39.744 				"/>
				<polygon class="st6" points="21.593,36.37 20.346,35.65 19.268,36.253 20.515,36.973 				"/>
				<polygon class="st6" points="23.196,37.295 21.948,36.575 20.87,37.178 22.117,37.898 				"/>
				<polygon class="st6" points="17.311,35.123 18.389,34.52 17.142,33.799 16.064,34.403 				"/>
				<polygon class="st6" points="19.991,35.445 18.744,34.725 17.666,35.328 18.913,36.048 				"/>
				<polygon class="st6" points="16.787,33.594 13.938,31.949 12.859,32.552 15.709,34.197 				"/>
				<polygon class="st6" points="27.609,42.516 28.847,43.231 29.735,42.735 28.497,42.019 				"/>
				<polygon class="st6" points="23.69,39.244 22.802,39.74 24.041,40.456 24.929,39.959 				"/>
				<polygon class="st6" points="17.281,35.543 16.393,36.04 22.447,39.535 23.335,39.039 				"/>
				<polygon class="st6" points="15.679,34.618 14.791,35.114 16.038,35.834 16.926,35.338 				"/>
				<polygon class="st6" points="12.475,32.767 11.587,33.264 12.834,33.984 13.722,33.487 				"/>
				<polygon class="st6" points="14.077,33.692 13.189,34.189 14.436,34.909 15.324,34.413 				"/>
				<polygon class="st6" points="28.397,40.295 26.933,41.114 25.33,40.188 24.429,40.692 27.283,42.34 29.648,41.017 				"/>
			</g>
		</g>
		<g>
			<polygon class="st7" points="28.947,45.789 28.947,28.204 7.351,15.735 7.351,33.34 			"/>
			<polygon class="st1" points="7.351,15.735 8.311,15.157 29.907,27.625 28.947,28.204 			"/>
			<polygon class="st3" points="28.947,45.789 29.907,45.21 29.907,27.625 28.947,28.204 			"/>
		</g>
	</g>
</g>
</svg>
