<svg version="1.1" xmlns="http://www.w3.org/2000/svg" xmlns:xlink="http://www.w3.org/1999/xlink" viewBox="0 0 400 400">
	<g ng-click="mentoringPdSelected()" ng-mouseover="showMentoringPopover=true;" ng-mouseleave="showMentoringPopover=false;">
		<path class="white-fill" d="M184.894,19.98c-0.276,0-0.552,0.012-0.829,0.037C139.75,23.97,98.697,44.251,68.468,77.122 c-30.416,33.074-47.166,76.052-47.166,121.016c0,26.153,5.531,51.377,16.439,74.97c1.1,2.378,3.149,4.185,5.647,4.977 c0.921,0.292,1.872,0.436,2.819,0.436c1.621,0,3.231-0.423,4.664-1.25l81.62-47.124c3.83-2.211,5.58-6.808,4.192-11.006 c-2.246-6.792-3.386-13.858-3.386-21.003c0-31.663,22.481-59.214,53.456-65.511c4.346-0.884,7.469-4.705,7.469-9.14v-94.18 c0-2.618-1.1-5.115-3.032-6.882C189.463,20.846,187.214,19.98,184.894,19.98L184.894,19.98z"/>
		<path class="grey-fill" d="M77.215,164.488c-0.744-0.307-1.56-0.506-2.217-0.943c-1.501-0.997-2.195-2.484-2.202-4.282 c-0.008-2.23-0.008-4.461,0.002-6.691c0.001-0.291-0.075-0.452-0.345-0.61c-1.669-0.975-2.586-2.445-2.607-4.38 c-0.024-2.182-0.025-4.369,0.095-6.547c0.117-2.122,1.486-4.729,2.925-5.939c4.823,3.347,9.638,3.349,14.563-0.028 c0.373,0.463,0.817,0.947,1.185,1.483c1.173,1.705,1.767,3.607,1.794,5.673c0.023,1.769,0.032,3.538-0.004,5.307 c-0.039,1.951-0.92,3.444-2.612,4.428c-0.265,0.154-0.353,0.311-0.351,0.609c0.012,2.184,0.009,4.369,0.006,6.553 c-0.004,2.786-1.572,4.713-4.302,5.298c-0.041,0.009-0.075,0.047-0.112,0.071C81.093,164.488,79.154,164.488,77.215,164.488z"/>
		<path class="grey-fill" d="M100.944,164.488c-0.6-0.218-1.245-0.357-1.792-0.668c-1.733-0.986-2.589-2.527-2.619-4.515 c-0.018-1.23-0.014-2.461,0.003-3.691c0.004-0.338-0.074-0.535-0.398-0.721c-1.566-0.901-2.467-2.288-2.542-4.081 c-0.073-1.763-0.07-3.542,0.079-5.299c0.19-2.244,1.19-4.173,2.737-5.812c0.042-0.044,0.087-0.087,0.135-0.125 c0.023-0.018,0.056-0.023,0.057-0.024c4.844,3.34,9.662,3.346,14.525-0.019c0.943,0.917,1.663,2.009,2.192,3.232 c0.538,1.243,0.815,2.546,0.817,3.898c0.002,1.521,0.056,3.051-0.08,4.562c-0.149,1.65-1.09,2.876-2.521,3.7 c-0.261,0.15-0.36,0.298-0.36,0.601c-0.003,1.506,0.064,3.021-0.078,4.516c-0.214,2.245-1.902,3.939-4.133,4.362 c-0.071,0.013-0.136,0.055-0.204,0.084C104.822,164.488,102.883,164.488,100.944,164.488z"/>
		<path class="grey-fill" d="M81.001,117.214c0.625,0.149,1.263,0.255,1.872,0.453c3.755,1.218,6.346,4.869,6.02,8.944 c-0.34,4.26-3.417,7.52-7.532,8.128c-4.696,0.694-9.119-2.559-9.934-7.306c-0.788-4.591,2.333-9.116,6.922-10.036 c0.299-0.06,0.598-0.122,0.898-0.183C79.831,117.214,80.416,117.214,81.001,117.214z"/>
		<path class="grey-fill" d="M112.662,130.486c-0.009,4.843-3.994,8.805-8.84,8.787c-4.86-0.018-8.795-4.008-8.776-8.898 c0.018-4.748,4.022-8.727,8.772-8.719C108.71,121.665,112.671,125.62,112.662,130.486z"/>
	</g>
	<g ng-click="coachingPdSelected()" ng-mouseover="showCoachingPopover=true;" ng-mouseleave="showCoachingPopover=false;">
		<path class="white-fill" d="M218.798,20.314c-2.286,0-4.506,0.841-6.226,2.382c-1.973,1.769-3.101,4.294-3.101,6.945v94.623 c0,4.275,2.906,8.002,7.051,9.045c29.724,7.48,50.483,34.138,50.483,64.828c0,6.994-1.088,13.91-3.233,20.555 c-1.351,4.185,0.404,8.744,4.212,10.943l81.672,47.153c1.432,0.827,3.043,1.25,4.664,1.25c0.952,0,1.907-0.146,2.833-0.441 c2.501-0.797,4.551-2.612,5.645-4.999C373.549,249.153,379,224.1,379,198.138c0-44.338-16.344-86.869-46.021-119.76 c-29.455-32.644-69.645-53.246-113.166-58.008C219.474,20.333,219.135,20.314,218.798,20.314L218.798,20.314z"/>
		<path class="grey-fill" d="M325,164.937c-10.763,0-21.526,0-32.289,0c-0.754-0.324-1.59-0.532-2.245-0.995 c-1.37-0.967-1.922-2.402-1.922-4.063c0.001-13.416-0.001-26.833,0.008-40.249c0-0.463,0.049-0.943,0.174-1.387 c0.613-2.183,2.352-3.489,4.652-3.506c2.013-0.015,4.027-0.004,6.04-0.002c0.098,0,0.196,0.02,0.298,0.032 c-0.073,0.419-0.193,0.809-0.201,1.202c-0.025,1.249-0.094,2.505,0.01,3.746c0.218,2.614,2.117,4.358,4.723,4.383 c3.072,0.03,6.144,0.016,9.216,0.002c1.046-0.005,2.019-0.288,2.866-0.932c1.297-0.986,1.896-2.318,1.891-3.921 c-0.005-1.495-0.056-2.991-0.088-4.499c2.126,0,4.346-0.032,6.565,0.021c0.604,0.015,1.248,0.191,1.793,0.458 c1.854,0.907,2.677,2.469,2.676,4.507c-0.002,8.73,0.001,17.461,0.001,26.191c0,4.652-0.003,9.303-0.002,13.955 c0,1.639-0.578,3.004-1.864,4.055C326.626,164.489,325.821,164.727,325,164.937z M313.545,132.71c0,0.206,0,0.321,0,0.435 c-0.001,2.117-0.025,4.235,0.013,6.352c0.01,0.539-0.147,0.734-0.663,0.859c-3.469,0.842-6.929,1.718-10.391,2.587 c-1.062,0.267-1.459,0.791-1.46,1.896c-0.001,1.284-0.026,2.569,0.011,3.853c0.016,0.559-0.056,0.97-0.678,1.121 c-0.176,0.042-0.329,0.188-0.486,0.297c-2.018,1.407-2.55,4.116-1.236,6.29c1.223,2.024,4.022,2.774,6.125,1.623 c1.673-0.916,2.531-2.367,2.488-4.253c-0.043-1.9-1.021-3.274-2.73-4.097c-0.308-0.148-0.384-0.316-0.378-0.629 c0.019-0.937,0.026-1.875-0.003-2.811c-0.012-0.385,0.11-0.527,0.489-0.62c3.484-0.853,6.962-1.728,10.441-2.602 c1.208-0.304,1.579-0.791,1.578-2.016c-0.002-2.586,0-5.172,0.002-7.758c0-0.146,0.017-0.292,0.03-0.501 c0.221,0.197,0.379,0.353,0.552,0.49c0.65,0.514,1.51,0.468,2.081-0.104c0.571-0.572,0.657-1.473,0.091-2.073 c-1.083-1.148-2.202-2.265-3.349-3.349c-0.558-0.527-1.388-0.521-1.949,0.011c-1.145,1.086-2.265,2.202-3.346,3.352 c-0.562,0.599-0.463,1.507,0.114,2.071c0.578,0.566,1.433,0.601,2.081,0.08C313.143,133.078,313.301,132.927,313.545,132.71z  M299.467,137.317c0.704,0.713,1.334,1.356,1.969,1.992c0.419,0.42,0.919,0.623,1.513,0.481c1.205-0.288,1.618-1.693,0.748-2.621 c-0.637-0.68-1.327-1.311-2.009-1.98c0.132-0.148,0.206-0.24,0.289-0.324c0.597-0.606,1.218-1.19,1.787-1.82 c0.575-0.637,0.529-1.528-0.054-2.117c-0.582-0.588-1.461-0.625-2.119-0.076c-0.226,0.188-0.428,0.406-0.637,0.614 c-0.487,0.484-0.973,0.969-1.509,1.504c-0.36-0.386-0.663-0.72-0.977-1.043c-0.327-0.336-0.654-0.673-1-0.988 c-0.945-0.861-2.331-0.473-2.627,0.734c-0.152,0.619,0.082,1.119,0.512,1.552c0.631,0.635,1.26,1.273,1.872,1.892 c-0.036,0.077-0.04,0.096-0.051,0.107c-0.597,0.605-1.198,1.207-1.792,1.815c-0.74,0.758-0.781,1.699-0.109,2.351 c0.658,0.637,1.575,0.589,2.312-0.142C298.201,138.637,298.796,138.007,299.467,137.317z M318.236,152.9 c0.74,0.768,1.362,1.472,2.047,2.109c0.912,0.847,2.292,0.426,2.585-0.757c0.153-0.618-0.075-1.124-0.509-1.552 c-0.638-0.629-1.281-1.253-1.985-1.942c0.251-0.216,0.431-0.353,0.59-0.51c0.518-0.513,1.054-1.011,1.535-1.557 c0.814-0.924,0.357-2.311-0.829-2.567c-0.597-0.129-1.091,0.09-1.505,0.513c-0.628,0.641-1.253,1.284-1.919,1.968 c-0.702-0.71-1.331-1.352-1.967-1.988c-0.419-0.42-0.918-0.625-1.512-0.485c-1.205,0.284-1.622,1.691-0.755,2.619 c0.636,0.681,1.324,1.315,1.946,1.927c-0.01,0.11-0.005,0.134-0.014,0.143c-0.618,0.632-1.237,1.265-1.858,1.894 c-0.416,0.422-0.636,0.912-0.503,1.508c0.27,1.206,1.686,1.643,2.611,0.779C316.875,154.363,317.498,153.663,318.236,152.9z"/>
		<path class="grey-fill" d="M309.376,111.609c0.978,0.295,1.826,0.775,2.264,1.749c0.188,0.418,0.275,0.882,0.422,1.374 c0.442,0,0.925-0.008,1.409,0.002c0.981,0.02,1.618,0.657,1.631,1.645c0.013,0.989,0.013,1.978,0,2.967 c-0.013,0.985-0.653,1.63-1.641,1.633c-3.072,0.01-6.143,0.01-9.215,0c-0.986-0.003-1.623-0.651-1.637-1.637 c-0.013-0.989-0.015-1.978-0.003-2.967c0.012-0.987,0.65-1.621,1.635-1.641c0.483-0.01,0.966-0.002,1.472-0.002 c0.104-1.282,0.657-2.245,1.804-2.808c0.261-0.128,0.544-0.211,0.817-0.314C308.682,111.609,309.029,111.609,309.376,111.609z"/>
		<path class="grey-fill" d="M301.05,153.821c0.043-0.845,0.778-1.517,1.621-1.481c0.872,0.037,1.55,0.792,1.491,1.659 c-0.058,0.845-0.803,1.503-1.646,1.454C301.666,155.403,301.007,154.67,301.05,153.821z"/>
	</g>
	<g ng-click="onlinePdSelected()" ng-mouseover="showOnlinePopover=true;" ng-mouseleave="showOnlinePopover=false;">
		<path class="white-fill" d="M255.286,241.354c-2.487,0-4.945,0.993-6.754,2.892c-12.755,13.379-29.936,20.747-48.381,20.747 c-18.265,0-35.329-7.245-48.051-20.4c-1.806-1.868-4.243-2.844-6.708-2.844c-1.596,0-3.204,0.409-4.66,1.25l-81.947,47.312 c-2.297,1.326-3.92,3.567-4.465,6.162c-0.545,2.595,0.041,5.3,1.611,7.437c16.277,22.159,37.754,40.536,62.108,53.147 c25.179,13.038,53.573,19.93,82.112,19.93c28.637,0,57.118-6.937,82.363-20.06c24.419-12.694,45.924-31.184,62.188-53.471 c1.56-2.138,2.139-4.838,1.591-7.428c-0.548-2.59-2.17-4.825-4.462-6.148l-81.885-47.276 C258.489,241.763,256.881,241.354,255.286,241.354L255.286,241.354z"/>
		<path class="grey-fill" d="M219.581,303.184h-9.089c-0.836,0-1.515,0.679-1.515,1.515v13.633h10.603c0.836,0,1.515-0.679,1.515-1.515 v-12.118C221.095,303.863,220.416,303.184,219.581,303.184z M216.551,315.302h-3.03c-0.837,0-1.515-0.678-1.515-1.515 c0-0.837,0.678-1.515,1.515-1.515h3.03c0.837,0,1.515,0.677,1.515,1.515C218.066,314.625,217.388,315.302,216.551,315.302z M216.551,309.243h-3.03c-0.837,0-1.515-0.678-1.515-1.515s0.678-1.515,1.515-1.515h3.03c0.837,0,1.515,0.678,1.515,1.515 S217.388,309.243,216.551,309.243z"/>
		<path class="grey-fill" d="M204.231,303.184h-9.089c-0.836,0-1.515,0.679-1.515,1.515v12.118c0,0.836,0.679,1.515,1.515,1.515h10.603 v-13.633C205.746,303.863,205.067,303.184,204.231,303.184z M201.201,315.302h-3.03c-0.837,0-1.515-0.678-1.515-1.515 c0-0.837,0.678-1.515,1.515-1.515h3.03c0.837,0,1.515,0.677,1.515,1.515C202.716,314.625,202.039,315.302,201.201,315.302z M201.201,309.243h-3.03c-0.837,0-1.515-0.678-1.515-1.515s0.678-1.515,1.515-1.515h3.03c0.837,0,1.515,0.678,1.515,1.515 S202.039,309.243,201.201,309.243z"/>
		<path class="grey-fill" d="M228.669,294.096h-42.616c-2.488,0-4.516,2.01-4.544,4.492c0,0.01,0,0.021,0,0.03v25.975h51.704V298.64 C233.214,296.134,231.175,294.096,228.669,294.096z M224.125,316.817c0,2.506-2.038,4.544-4.544,4.544h-12.32h-12.118 c-2.506,0-4.544-2.038-4.544-4.544v-12.118c0-2.506,2.038-4.544,4.544-4.544h9.089c1.168,0,2.224,0.455,3.03,1.182 c0.806-0.727,2.063-1.182,3.232-1.182h9.089c2.506,0,4.544,2.038,4.544,4.544V316.817z"/>
		<path class="grey-fill" d="M181.509,329.137c0,2.513,2.081,4.535,4.525,4.544h13.228h16.199h13.208c2.571,0,4.541-2.133,4.544-4.538 v-1.521h-51.704V329.137z"/>
		<path class="grey-fill" d="M222.61,342.77h-4.877l-1.515-6.059h-17.714l-1.515,6.059h-4.877c-0.837,0-1.515,0.678-1.515,1.515 s0.677,1.515,1.515,1.515c1.344,0,29.474,0,30.497,0c0.837,0,1.515-0.678,1.515-1.515S223.447,342.77,222.61,342.77z"/>
	</g>

	<g ng-show="professionalDevelopmentSolutions == 'Mentoring PD'">
		<path class="professional-development-color" d="M77.215,164.488c-0.744-0.307-1.56-0.506-2.217-0.943c-1.501-0.997-2.195-2.484-2.202-4.282 c-0.008-2.23-0.008-4.461,0.002-6.691c0.001-0.291-0.075-0.452-0.345-0.61c-1.669-0.975-2.586-2.445-2.607-4.38 c-0.024-2.182-0.025-4.369,0.095-6.547c0.117-2.122,1.486-4.729,2.925-5.939c4.823,3.347,9.638,3.349,14.563-0.028 c0.373,0.463,0.817,0.947,1.185,1.483c1.173,1.705,1.767,3.607,1.794,5.673c0.023,1.769,0.032,3.538-0.004,5.307 c-0.039,1.951-0.92,3.444-2.612,4.428c-0.265,0.154-0.353,0.311-0.351,0.609c0.012,2.184,0.009,4.369,0.006,6.553 c-0.004,2.786-1.572,4.713-4.302,5.298c-0.041,0.009-0.075,0.047-0.112,0.071C81.093,164.488,79.154,164.488,77.215,164.488z"/>
		<path class="professional-development-color" d="M100.944,164.488c-0.6-0.218-1.245-0.357-1.792-0.668c-1.733-0.986-2.589-2.527-2.619-4.515 c-0.018-1.23-0.014-2.461,0.003-3.691c0.004-0.338-0.074-0.535-0.398-0.721c-1.566-0.901-2.467-2.288-2.542-4.081 c-0.073-1.763-0.07-3.542,0.079-5.299c0.19-2.244,1.19-4.173,2.737-5.812c0.042-0.044,0.087-0.087,0.135-0.125 c0.023-0.018,0.056-0.023,0.057-0.024c4.844,3.34,9.662,3.346,14.525-0.019c0.943,0.917,1.663,2.009,2.192,3.232 c0.538,1.243,0.815,2.546,0.817,3.898c0.002,1.521,0.056,3.051-0.08,4.562c-0.149,1.65-1.09,2.876-2.521,3.7 c-0.261,0.15-0.36,0.298-0.36,0.601c-0.003,1.506,0.064,3.021-0.078,4.516c-0.214,2.245-1.902,3.939-4.133,4.362 c-0.071,0.013-0.136,0.055-0.204,0.084C104.822,164.488,102.883,164.488,100.944,164.488z"/>
		<path class="professional-development-color" d="M81.001,117.214c0.625,0.149,1.263,0.255,1.872,0.453c3.755,1.218,6.346,4.869,6.02,8.944 c-0.34,4.26-3.417,7.52-7.532,8.128c-4.696,0.694-9.119-2.559-9.934-7.306c-0.788-4.591,2.333-9.116,6.922-10.036 c0.299-0.06,0.598-0.122,0.898-0.183C79.831,117.214,80.416,117.214,81.001,117.214z"/>
		<path class="professional-development-color" d="M112.662,130.486c-0.009,4.843-3.994,8.805-8.84,8.787c-4.86-0.018-8.795-4.008-8.776-8.898 c0.018-4.748,4.022-8.727,8.772-8.719C108.71,121.665,112.671,125.62,112.662,130.486z"/>
	</g>
	<g ng-show="professionalDevelopmentSolutions == 'Coaching PD'">
		<path class="professional-development-color" d="M325,164.937c-10.763,0-21.526,0-32.289,0c-0.754-0.324-1.59-0.532-2.245-0.995 c-1.37-0.967-1.922-2.402-1.922-4.063c0.001-13.416-0.001-26.833,0.008-40.249c0-0.463,0.049-0.943,0.174-1.387 c0.613-2.183,2.352-3.489,4.652-3.506c2.013-0.015,4.027-0.004,6.04-0.002c0.098,0,0.196,0.02,0.298,0.032 c-0.073,0.419-0.193,0.809-0.201,1.202c-0.025,1.249-0.094,2.505,0.01,3.746c0.218,2.614,2.117,4.358,4.723,4.383 c3.072,0.03,6.144,0.016,9.216,0.002c1.046-0.005,2.019-0.288,2.866-0.932c1.297-0.986,1.896-2.318,1.891-3.921 c-0.005-1.495-0.056-2.991-0.088-4.499c2.126,0,4.346-0.032,6.565,0.021c0.604,0.015,1.248,0.191,1.793,0.458 c1.854,0.907,2.677,2.469,2.676,4.507c-0.002,8.73,0.001,17.461,0.001,26.191c0,4.652-0.003,9.303-0.002,13.955 c0,1.639-0.578,3.004-1.864,4.055C326.626,164.489,325.821,164.727,325,164.937z M313.545,132.71c0,0.206,0,0.321,0,0.435 c-0.001,2.117-0.025,4.235,0.013,6.352c0.01,0.539-0.147,0.734-0.663,0.859c-3.469,0.842-6.929,1.718-10.391,2.587 c-1.062,0.267-1.459,0.791-1.46,1.896c-0.001,1.284-0.026,2.569,0.011,3.853c0.016,0.559-0.056,0.97-0.678,1.121 c-0.176,0.042-0.329,0.188-0.486,0.297c-2.018,1.407-2.55,4.116-1.236,6.29c1.223,2.024,4.022,2.774,6.125,1.623 c1.673-0.916,2.531-2.367,2.488-4.253c-0.043-1.9-1.021-3.274-2.73-4.097c-0.308-0.148-0.384-0.316-0.378-0.629 c0.019-0.937,0.026-1.875-0.003-2.811c-0.012-0.385,0.11-0.527,0.489-0.62c3.484-0.853,6.962-1.728,10.441-2.602 c1.208-0.304,1.579-0.791,1.578-2.016c-0.002-2.586,0-5.172,0.002-7.758c0-0.146,0.017-0.292,0.03-0.501 c0.221,0.197,0.379,0.353,0.552,0.49c0.65,0.514,1.51,0.468,2.081-0.104c0.571-0.572,0.657-1.473,0.091-2.073 c-1.083-1.148-2.202-2.265-3.349-3.349c-0.558-0.527-1.388-0.521-1.949,0.011c-1.145,1.086-2.265,2.202-3.346,3.352 c-0.562,0.599-0.463,1.507,0.114,2.071c0.578,0.566,1.433,0.601,2.081,0.08C313.143,133.078,313.301,132.927,313.545,132.71z  M299.467,137.317c0.704,0.713,1.334,1.356,1.969,1.992c0.419,0.42,0.919,0.623,1.513,0.481c1.205-0.288,1.618-1.693,0.748-2.621 c-0.637-0.68-1.327-1.311-2.009-1.98c0.132-0.148,0.206-0.24,0.289-0.324c0.597-0.606,1.218-1.19,1.787-1.82 c0.575-0.637,0.529-1.528-0.054-2.117c-0.582-0.588-1.461-0.625-2.119-0.076c-0.226,0.188-0.428,0.406-0.637,0.614 c-0.487,0.484-0.973,0.969-1.509,1.504c-0.36-0.386-0.663-0.72-0.977-1.043c-0.327-0.336-0.654-0.673-1-0.988 c-0.945-0.861-2.331-0.473-2.627,0.734c-0.152,0.619,0.082,1.119,0.512,1.552c0.631,0.635,1.26,1.273,1.872,1.892 c-0.036,0.077-0.04,0.096-0.051,0.107c-0.597,0.605-1.198,1.207-1.792,1.815c-0.74,0.758-0.781,1.699-0.109,2.351 c0.658,0.637,1.575,0.589,2.312-0.142C298.201,138.637,298.796,138.007,299.467,137.317z M318.236,152.9 c0.74,0.768,1.362,1.472,2.047,2.109c0.912,0.847,2.292,0.426,2.585-0.757c0.153-0.618-0.075-1.124-0.509-1.552 c-0.638-0.629-1.281-1.253-1.985-1.942c0.251-0.216,0.431-0.353,0.59-0.51c0.518-0.513,1.054-1.011,1.535-1.557 c0.814-0.924,0.357-2.311-0.829-2.567c-0.597-0.129-1.091,0.09-1.505,0.513c-0.628,0.641-1.253,1.284-1.919,1.968 c-0.702-0.71-1.331-1.352-1.967-1.988c-0.419-0.42-0.918-0.625-1.512-0.485c-1.205,0.284-1.622,1.691-0.755,2.619 c0.636,0.681,1.324,1.315,1.946,1.927c-0.01,0.11-0.005,0.134-0.014,0.143c-0.618,0.632-1.237,1.265-1.858,1.894 c-0.416,0.422-0.636,0.912-0.503,1.508c0.27,1.206,1.686,1.643,2.611,0.779C316.875,154.363,317.498,153.663,318.236,152.9z"/>
		<path class="professional-development-color" d="M309.376,111.609c0.978,0.295,1.826,0.775,2.264,1.749c0.188,0.418,0.275,0.882,0.422,1.374 c0.442,0,0.925-0.008,1.409,0.002c0.981,0.02,1.618,0.657,1.631,1.645c0.013,0.989,0.013,1.978,0,2.967 c-0.013,0.985-0.653,1.63-1.641,1.633c-3.072,0.01-6.143,0.01-9.215,0c-0.986-0.003-1.623-0.651-1.637-1.637 c-0.013-0.989-0.015-1.978-0.003-2.967c0.012-0.987,0.65-1.621,1.635-1.641c0.483-0.01,0.966-0.002,1.472-0.002 c0.104-1.282,0.657-2.245,1.804-2.808c0.261-0.128,0.544-0.211,0.817-0.314C308.682,111.609,309.029,111.609,309.376,111.609z"/>
		<path class="professional-development-color" d="M301.05,153.821c0.043-0.845,0.778-1.517,1.621-1.481c0.872,0.037,1.55,0.792,1.491,1.659 c-0.058,0.845-0.803,1.503-1.646,1.454C301.666,155.403,301.007,154.67,301.05,153.821z"/>
	</g>
	<g ng-show="professionalDevelopmentSolutions == 'Online (OTIS) PD'">
		<path class="professional-development-color" d="M219.581,303.184h-9.089c-0.836,0-1.515,0.679-1.515,1.515v13.633h10.603c0.836,0,1.515-0.679,1.515-1.515 v-12.118C221.095,303.863,220.416,303.184,219.581,303.184z M216.551,315.302h-3.03c-0.837,0-1.515-0.678-1.515-1.515 c0-0.837,0.678-1.515,1.515-1.515h3.03c0.837,0,1.515,0.677,1.515,1.515C218.066,314.625,217.388,315.302,216.551,315.302z M216.551,309.243h-3.03c-0.837,0-1.515-0.678-1.515-1.515s0.678-1.515,1.515-1.515h3.03c0.837,0,1.515,0.678,1.515,1.515 S217.388,309.243,216.551,309.243z"/>
		<path class="professional-development-color" d="M204.231,303.184h-9.089c-0.836,0-1.515,0.679-1.515,1.515v12.118c0,0.836,0.679,1.515,1.515,1.515h10.603 v-13.633C205.746,303.863,205.067,303.184,204.231,303.184z M201.201,315.302h-3.03c-0.837,0-1.515-0.678-1.515-1.515 c0-0.837,0.678-1.515,1.515-1.515h3.03c0.837,0,1.515,0.677,1.515,1.515C202.716,314.625,202.039,315.302,201.201,315.302z M201.201,309.243h-3.03c-0.837,0-1.515-0.678-1.515-1.515s0.678-1.515,1.515-1.515h3.03c0.837,0,1.515,0.678,1.515,1.515 S202.039,309.243,201.201,309.243z"/>
		<path class="professional-development-color" d="M228.669,294.096h-42.616c-2.488,0-4.516,2.01-4.544,4.492c0,0.01,0,0.021,0,0.03v25.975h51.704V298.64 C233.214,296.134,231.175,294.096,228.669,294.096z M224.125,316.817c0,2.506-2.038,4.544-4.544,4.544h-12.32h-12.118 c-2.506,0-4.544-2.038-4.544-4.544v-12.118c0-2.506,2.038-4.544,4.544-4.544h9.089c1.168,0,2.224,0.455,3.03,1.182 c0.806-0.727,2.063-1.182,3.232-1.182h9.089c2.506,0,4.544,2.038,4.544,4.544V316.817z"/>
		<path class="professional-development-color" d="M181.509,329.137c0,2.513,2.081,4.535,4.525,4.544h13.228h16.199h13.208c2.571,0,4.541-2.133,4.544-4.538 v-1.521h-51.704V329.137z"/>
		<path class="professional-development-color" d="M222.61,342.77h-4.877l-1.515-6.059h-17.714l-1.515,6.059h-4.877c-0.837,0-1.515,0.678-1.515,1.515 s0.677,1.515,1.515,1.515c1.344,0,29.474,0,30.497,0c0.837,0,1.515-0.678,1.515-1.515S223.447,342.77,222.61,342.77z"/>
	</g>

	<g ng-show="pdSelected" ng-click="pdSelectedReset()">
		<path class="white-fill" d="M220.321,179.665l-20.485,37.211c0,0,0,0.001-0.001,0.001c-0.112,0.204-0.242,0.4-0.383,0.591 c-0.036,0.048-0.073,0.095-0.11,0.141c-0.108,0.136-0.223,0.267-0.345,0.393c-0.043,0.045-0.084,0.091-0.128,0.134 c-0.012,0.011-0.022,0.024-0.034,0.036c-0.148,0.141-0.303,0.269-0.463,0.389c-0.044,0.034-0.092,0.062-0.137,0.094
		c-0.143,0.101-0.29,0.195-0.44,0.28c-0.054,0.031-0.108,0.06-0.163,0.089c-0.17,0.089-0.343,0.169-0.52,0.238 c-0.029,0.011-0.057,0.025-0.086,0.036c-0.211,0.078-0.425,0.142-0.643,0.193c-0.046,0.011-0.092,0.018-0.138,0.027 c-0.171,0.035-0.343,0.062-0.516,0.08c-0.066,0.007-0.131,0.014-0.198,0.019c-0.199,0.013-0.398,0.018-0.596,0.01 c-0.019-0.001-0.038,0.002-0.057,0.001c-0.052-0.003-0.103-0.013-0.155-0.017c-0.124-0.01-0.247-0.021-0.37-0.04 c-0.075-0.012-0.149-0.029-0.223-0.043c-0.108-0.021-0.215-0.044-0.321-0.072c-0.07-0.018-0.139-0.04-0.209-0.061 c-0.117-0.036-0.232-0.076-0.347-0.12c-0.057-0.022-0.113-0.043-0.17-0.067c-0.139-0.059-0.276-0.125-0.41-0.196 c-0.025-0.013-0.052-0.023-0.077-0.037c-0.008-0.005-0.016-0.01-0.024-0.015c-0.115-0.064-0.227-0.135-0.338-0.209 c-0.039-0.026-0.081-0.05-0.119-0.076c-0.08-0.056-0.156-0.118-0.233-0.179c-0.065-0.051-0.132-0.099-0.195-0.153 c-0.027-0.023-0.052-0.05-0.079-0.075c-0.107-0.096-0.211-0.193-0.309-0.296l-11.971-12.622c-2.026-2.136-1.936-5.509,0.2-7.535 c2.137-2.024,5.51-1.936,7.535,0.2l6.952,7.331l16.968-30.822c1.42-2.579,4.662-3.518,7.239-2.099 C220.801,173.845,221.74,177.086,220.321,179.665z"/>
		<path class="professional-development-color" d="M200,140.174c-31.28,0-56.637,25.357-56.637,56.637S168.72,253.448,200,253.448s56.637-25.357,56.637-56.637 S231.28,140.174,200,140.174z M220.321,179.665l-20.485,37.211c0,0,0,0.001-0.001,0.001c-0.112,0.204-0.242,0.4-0.383,0.591	c-0.036,0.048-0.073,0.095-0.11,0.141c-0.108,0.136-0.223,0.267-0.345,0.393c-0.043,0.045-0.084,0.091-0.128,0.134 c-0.012,0.011-0.022,0.024-0.034,0.036c-0.148,0.141-0.303,0.269-0.463,0.389c-0.044,0.034-0.092,0.062-0.137,0.094 c-0.143,0.101-0.29,0.195-0.44,0.28c-0.054,0.031-0.108,0.06-0.163,0.089c-0.17,0.089-0.343,0.169-0.52,0.238 c-0.029,0.011-0.057,0.025-0.086,0.036c-0.211,0.078-0.425,0.142-0.643,0.193c-0.046,0.011-0.092,0.018-0.138,0.027 c-0.171,0.035-0.343,0.062-0.516,0.08c-0.066,0.007-0.131,0.014-0.198,0.019c-0.199,0.013-0.398,0.018-0.596,0.01 c-0.019-0.001-0.038,0.002-0.057,0.001c-0.052-0.003-0.103-0.013-0.155-0.017c-0.124-0.01-0.247-0.021-0.37-0.04 c-0.075-0.012-0.149-0.029-0.223-0.043c-0.108-0.021-0.215-0.044-0.321-0.072c-0.07-0.018-0.139-0.04-0.209-0.061 c-0.117-0.036-0.232-0.076-0.347-0.12c-0.057-0.022-0.113-0.043-0.17-0.067c-0.139-0.059-0.276-0.125-0.41-0.196 c-0.025-0.013-0.052-0.023-0.077-0.037c-0.008-0.005-0.016-0.01-0.024-0.015c-0.115-0.064-0.227-0.135-0.338-0.209 c-0.039-0.026-0.081-0.05-0.119-0.076c-0.08-0.056-0.156-0.118-0.233-0.179c-0.065-0.051-0.132-0.099-0.195-0.153 c-0.027-0.023-0.052-0.05-0.079-0.075c-0.107-0.096-0.211-0.193-0.309-0.296l-11.971-12.622c-2.026-2.136-1.936-5.509,0.2-7.535 c2.137-2.024,5.51-1.936,7.535,0.2l6.952,7.331l16.968-30.822c1.42-2.579,4.662-3.518,7.239-2.099 C220.801,173.845,221.74,177.086,220.321,179.665z"/>
	</g>

	<text x="0" y="100" fill="#505051" font-weight="400" font-family="Roboto,Helvetica,Arial,san-serif" font-size="24px" ng-show="showMentoringPopover">Mentoring PD</text>
	<text x="205" y="100" fill="#505051" font-weight="400" font-family="Roboto,Helvetica,Arial,san-serif" font-size="24px" ng-show="showCoachingPopover">Coaching PD</text>
	<text x="25" y="280" fill="#505051" font-weight="400" font-family="Roboto,Helvetica,Arial,san-serif" font-size="24px" ng-show="showOnlinePopover">OTIS (Online PD)</text>
</svg>
