<?xml version="1.0" encoding="utf-8"?>
<!-- Generator: Adobe Illustrator 25.4.1, SVG Export Plug-In . SVG Version: 6.00 Build 0)  -->
<svg version="1.1" id="Layer_1" xmlns="http://www.w3.org/2000/svg" xmlns:xlink="http://www.w3.org/1999/xlink" x="0px" y="0px"
	 viewBox="0 0 50 50" style="enable-background:new 0 0 50 50;" xml:space="preserve">
<style type="text/css">
	.st0{opacity:0.42;fill:#C0C1C1;}
	.st1{fill-rule:evenodd;clip-rule:evenodd;fill:#FFE2B4;}
	.st2{fill-rule:evenodd;clip-rule:evenodd;fill:#96897B;}
	.st3{fill-rule:evenodd;clip-rule:evenodd;fill:#FFFFFF;}
	.st4{fill-rule:evenodd;clip-rule:evenodd;fill:#999999;}
	.st5{fill-rule:evenodd;clip-rule:evenodd;fill:#CCCCCC;}
	.st6{fill-rule:evenodd;clip-rule:evenodd;fill:#F5F0DA;}
	.st7{fill-rule:evenodd;clip-rule:evenodd;fill:#B2A081;}
	.st8{fill-rule:evenodd;clip-rule:evenodd;fill:#4A4334;}
	.st9{fill:#F2F0ED;}
	.st10{fill:#DEDEDE;}
	.st11{enable-background:new    ;}
	.st12{fill:#202225;}
	.st13{fill:#2B2D30;}
	.st14{fill:#191A1C;}
	.st15{fill:#CDCDCD;}
	.st16{fill:#9FA2A9;}
	.st17{fill:#646464;}
	.st18{fill:#7C7C7C;}
	.st19{fill:#A8A8A8;}
	.st20{fill:#282A2E;}
	.st21{fill:#35373C;}
	.st22{fill:#1B1C1E;}
	.st23{fill:#222326;}
	.st24{fill:#1F2023;}
	.st25{fill:#323439;}
	.st26{fill:#F0F0F0;}
	.st27{fill:#CBCBCB;}
	.st28{clip-path:url(#SVGID_00000017480981818610224890000007757970427846377894_);enable-background:new    ;}
	.st29{fill:#232528;}
	.st30{clip-path:url(#SVGID_00000170238935838334826310000015656748249210615988_);enable-background:new    ;}
	.st31{clip-path:url(#SVGID_00000138568150040262906990000007323238577914958756_);enable-background:new    ;}
	.st32{fill:#1E1F22;}
	.st33{clip-path:url(#SVGID_00000145027324060559977400000009715740565829127341_);enable-background:new    ;}
	.st34{fill:#EEEEEE;}
	.st35{fill:#45464A;}
	.st36{fill:#FFFFFF;}
	.st37{fill:#4A4E57;}
	.st38{fill:#393C41;}
	.st39{fill:#1B2029;}
	.st40{fill:#0D0F0E;}
	.st41{fill:#322F34;}
	.st42{clip-path:url(#SVGID_00000084508920849835083700000009609744556449528497_);}
	.st43{clip-path:url(#SVGID_00000173852186880424187620000004560719363071571597_);}
	.st44{fill:#FDB013;}
	.st45{fill:#E7E8E8;}
	.st46{opacity:0.1;}
	.st47{fill:#312E33;}
	.st48{clip-path:url(#SVGID_00000097502270668592491560000012370534406909039033_);}
	.st49{fill:#1774A2;}
	.st50{fill:#2D9DD5;}
	.st51{clip-path:url(#SVGID_00000065042674211849763870000017139957923777415555_);}
	.st52{fill:#1E8AC2;}
	.st53{opacity:0.2;fill:#F2F0ED;}
	.st54{fill-rule:evenodd;clip-rule:evenodd;fill:#333333;}
	.st55{fill:#CCCCCC;}
	.st56{fill:#DEDFE0;}
	.st57{fill:#999999;}
	.st58{fill:#B2A081;}
	.st59{fill:#FF3D09;}
	.st60{fill:#4FFF40;}
</style>
<g>
	<path class="st0" d="M25.878,48.283L2.472,35.548c-0.023-0.013-0.008-0.038,0.034-0.057l19.606-11.16
		c0.042-0.019,23.532,12.762,23.49,12.781l-19.606,11.16C25.954,48.29,25.901,48.296,25.878,48.283z"/>
	<g>
		<polygon class="st1" points="27.022,7.078 27.023,7.682 41.481,15.732 42.051,15.416 		"/>
		<polygon class="st1" points="22.876,6.016 42.639,16.979 42.639,31.826 22.876,20.863 		"/>
		<polygon class="st2" points="22.876,5.411 42.639,16.375 42.639,16.979 22.876,6.016 		"/>
		<polygon class="st3" points="22.306,25.166 19.208,26.885 19.197,26.879 9.343,32.347 29.67,43.629 29.681,43.635 42.639,36.446 
					"/>
		<g>
			<path class="st3" d="M37.098,25.048L24.84,18.346c-0.135-0.074-0.245-0.24-0.245-0.369V9.146c0-0.129,0.11-0.175,0.245-0.101
				l12.258,6.702c0.135,0.074,0.245,0.24,0.245,0.369v8.831C37.343,25.076,37.233,25.122,37.098,25.048z"/>
			<g>
				<path class="st4" d="M25.33,17.875c-0.135-0.074-0.245-0.24-0.245-0.369V9.178L24.84,9.044
					c-0.135-0.074-0.245-0.028-0.245,0.101v8.831c0,0.129,0.11,0.296,0.245,0.369L25.33,17.875z"/>
			</g>
			<path class="st5" d="M24.84,18.346l12.258,6.702c0.135,0.074,0.245,0.028,0.245-0.101v-0.503L25.33,17.875L24.84,18.346z"/>
		</g>
		<polygon class="st6" points="23.849,4.24 22.306,5.095 26.453,7.394 27.022,7.078 28.181,7.721 27.612,8.036 28.771,8.679 
			29.34,8.364 30.462,8.987 29.892,9.303 31.051,9.946 31.621,9.63 32.78,10.272 32.21,10.589 33.369,11.232 33.939,10.915 
			35.098,11.558 34.527,11.875 35.686,12.518 36.257,12.201 37.415,12.844 36.845,13.16 38.004,13.803 38.574,13.487 42.051,15.416 
			41.481,15.732 42.639,16.375 44.183,15.52 		"/>
		<g>
			<polygon class="st1" points="27.612,8.641 28.771,9.284 28.771,8.679 27.612,8.036 			"/>
			<polygon class="st1" points="29.892,9.908 31.051,10.55 31.051,9.946 29.892,9.303 			"/>
			<polygon class="st1" points="32.21,11.193 33.369,11.836 33.369,11.232 32.21,10.589 			"/>
			<polygon class="st1" points="34.527,12.479 35.686,13.122 35.686,12.518 34.527,11.875 			"/>
			<polygon class="st1" points="36.845,13.765 38.004,14.408 38.004,13.803 36.845,13.16 			"/>
		</g>
		<g>
			<polygon class="st7" points="26.453,7.998 27.023,7.682 27.023,7.077 26.453,7.394 			"/>
			<polygon class="st7" points="28.771,9.284 29.341,8.967 29.341,8.363 28.771,8.679 			"/>
			<polygon class="st7" points="31.051,10.55 31.621,10.234 31.621,9.63 31.051,9.946 			"/>
			<polygon class="st7" points="33.369,11.836 33.939,11.52 33.939,10.915 33.369,11.232 			"/>
			<polygon class="st7" points="35.686,13.122 36.257,12.806 36.257,12.201 35.686,12.518 			"/>
			<polygon class="st7" points="38.004,14.408 38.574,14.091 38.574,13.487 38.004,13.803 			"/>
			<polygon class="st7" points="42.639,16.375 42.639,16.979 42.639,31.826 44.183,30.971 44.183,16.124 44.183,15.52 			"/>
		</g>
		<g>
			<g>
				<polygon class="st1" points="22.873,11.513 22.303,11.196 22.303,12.542 22.873,12.858 				"/>
				<g>
					<polygon class="st1" points="22.876,5.411 22.876,6.016 26.453,7.998 26.453,7.394 					"/>
					<polygon class="st1" points="22.304,9.851 22.873,10.167 22.876,5.411 22.306,5.095 					"/>
				</g>
				<polygon class="st1" points="22.304,15.19 22.874,15.506 22.874,14.161 22.304,13.844 				"/>
				<polygon class="st1" points="22.303,17.88 22.873,18.197 22.873,16.851 22.303,16.535 				"/>
				<polygon class="st1" points="22.306,20.546 22.876,20.863 22.873,19.542 22.303,19.226 				"/>
			</g>
			<polygon class="st6" points="22.876,10.916 22.303,11.196 22.873,11.513 			"/>
			<polygon class="st6" points="22.877,13.564 22.304,13.844 22.874,14.161 			"/>
			<polygon class="st6" points="22.877,16.255 22.303,16.535 22.873,16.851 			"/>
			<polygon class="st6" points="22.876,18.945 22.303,19.226 22.873,19.542 			"/>
		</g>
		<g>
			<polygon class="st1" points="42.639,16.977 42.639,16.375 41.481,15.732 41.481,16.336 42.073,16.665 42.07,20.812 42.64,21.128 
				42.643,16.979 			"/>
			<polygon class="st1" points="42.64,22.474 42.07,22.157 42.069,23.503 42.639,23.819 			"/>
			<polygon class="st1" points="42.069,26.194 42.639,26.51 42.64,25.165 42.07,24.848 			"/>
			<polygon class="st1" points="42.069,28.842 42.639,29.158 42.64,27.813 42.07,27.496 			"/>
			<polygon class="st1" points="42.073,31.508 42.643,31.824 42.639,30.503 42.069,30.187 			"/>
		</g>
		<g>
			<polygon class="st1" points="43.209,22.157 43.209,20.812 42.639,21.128 42.64,22.474 			"/>
			<polygon class="st1" points="43.209,24.848 43.209,23.503 42.639,23.819 42.64,25.165 			"/>
			<polygon class="st1" points="42.64,27.813 43.21,27.496 43.21,26.151 42.64,26.467 			"/>
			<polygon class="st1" points="42.639,29.158 42.64,30.503 43.21,30.187 43.209,28.842 			"/>
		</g>
		<g>
			<polygon class="st6" points="43.209,22.157 42.64,21.841 42.07,22.157 42.64,22.474 			"/>
			<polygon class="st6" points="42.07,24.848 42.64,25.165 43.209,24.848 42.64,24.532 			"/>
			<polygon class="st6" points="42.07,27.496 42.64,27.813 43.21,27.496 42.64,27.18 			"/>
			<polygon class="st6" points="42.069,30.187 42.639,30.503 43.209,30.187 42.639,29.871 			"/>
		</g>
		<g>
			<polygon class="st7" points="22.306,20.546 9.348,27.735 9.348,32.355 22.306,25.166 			"/>
			<polygon class="st6" points="22.306,20.546 21.737,20.23 8.778,27.419 9.348,27.735 			"/>
			<polygon class="st1" points="8.778,32.038 9.348,32.355 9.348,27.735 8.778,27.419 			"/>
		</g>
		<polygon class="st6" points="42.639,31.826 22.306,20.546 21.737,20.863 42.07,32.143 		"/>
		<polygon class="st1" points="21.737,25.482 42.07,36.762 42.07,32.143 21.737,20.863 		"/>
		<polygon class="st7" points="26.43,22.824 27.589,23.467 27.589,22.972 26.43,22.329 		"/>
		<g>
			<polygon class="st2" points="26.43,22.824 27.589,23.467 27.589,22.972 26.893,22.586 			"/>
			<polygon class="st8" points="26.43,22.824 26.43,22.329 26.893,22.586 			"/>
		</g>
		<g>
			<polygon class="st2" points="29.783,24.694 30.942,25.337 30.942,24.842 30.246,24.456 			"/>
			<polygon class="st8" points="29.783,24.694 29.783,24.199 30.246,24.456 			"/>
		</g>
		<g>
			<polygon class="st2" points="32.339,26.112 33.498,26.755 33.498,26.26 32.802,25.874 			"/>
			<polygon class="st8" points="32.339,26.112 32.339,25.617 32.802,25.874 			"/>
		</g>
		<g>
			<polygon class="st2" points="36.596,28.473 37.755,29.116 37.755,28.62 37.059,28.234 			"/>
			<polygon class="st8" points="36.596,28.473 36.596,27.977 37.059,28.234 			"/>
		</g>
		<g>
			<polygon class="st7" points="26.582,45.312 29.684,43.59 29.684,42.798 26.582,44.519 			"/>
			<g>
				<polygon class="st6" points="29.681,42.8 9.353,31.518 6.259,33.235 6.075,33.133 5.33,33.547 26.024,45.028 26.769,44.615 
					26.589,44.515 				"/>
				<polygon class="st1" points="5.33,34.334 26.024,45.816 26.024,45.028 5.33,33.547 				"/>
				<polygon class="st7" points="26.024,45.816 26.77,45.402 26.77,44.615 26.024,45.028 				"/>
			</g>
		</g>
		<g>
			<g>
				<g>
					<polygon class="st9" points="19.112,32.134 18.878,32.004 19.253,31.796 19.487,31.926 					"/>
				</g>
				<polygon class="st10" points="19.112,32.134 19.112,32.238 19.431,32.061 19.487,31.926 				"/>
				<g>
					<g class="st11">
						<g>
							<polygon class="st12" points="20.072,32.681 20.068,33.01 17.914,34.213 17.918,33.884 							"/>
						</g>
						<g>
							<polygon class="st13" points="17.918,33.884 17.914,34.213 12.849,31.4 12.853,31.072 							"/>
						</g>
						<g>
							<polygon class="st14" points="20.072,32.681 17.918,33.884 12.853,31.072 15.008,29.869 							"/>
						</g>
					</g>
				</g>
				<g>
					<g class="st11">
						<g>
							<polygon class="st15" points="20.584,32.509 19.976,32.17 20.293,31.993 20.902,32.333 							"/>
						</g>
						<g>
							<polygon class="st16" points="20.007,32.293 19.398,31.953 19.976,32.17 20.584,32.509 							"/>
						</g>
						<g>
							<polygon class="st15" points="19.594,32.574 18.985,32.234 18.985,32.182 19.593,32.522 							"/>
						</g>
						<g>
							<polygon class="st15" points="19.593,32.522 18.985,32.182 19.398,31.953 20.007,32.293 							"/>
						</g>
						<g>
							<polygon class="st15" points="20.007,32.293 20.584,32.509 20.902,32.333 20.902,32.385 20.567,32.571 19.99,32.354 
								19.594,32.574 19.593,32.522 							"/>
						</g>
					</g>
				</g>
				<g>
					<g class="st11">
						<g>
							<polygon class="st15" points="19.325,31.809 18.717,31.469 19.034,31.293 19.643,31.632 							"/>
						</g>
						<g>
							<polygon class="st17" points="18.748,31.592 18.139,31.252 18.717,31.469 19.325,31.809 							"/>
						</g>
						<g>
							<polygon class="st15" points="18.335,31.873 17.726,31.534 17.726,31.482 18.334,31.821 							"/>
						</g>
						<g>
							<polygon class="st18" points="18.334,31.821 17.726,31.482 18.139,31.252 18.748,31.592 							"/>
						</g>
						<g>
							<polygon class="st19" points="18.748,31.592 19.325,31.809 19.643,31.632 19.643,31.685 19.308,31.87 18.731,31.654 
								18.335,31.873 18.334,31.821 							"/>
						</g>
					</g>
				</g>
				<g>
					<g class="st11">
						<g>
							<polygon class="st15" points="18.09,31.123 17.481,30.784 17.799,30.607 18.408,30.947 							"/>
						</g>
						<g>
							<polygon class="st17" points="17.512,30.907 16.904,30.567 17.481,30.784 18.09,31.123 							"/>
						</g>
						<g>
							<polygon class="st15" points="17.099,31.188 16.491,30.848 16.491,30.796 17.099,31.136 							"/>
						</g>
						<g>
							<polygon class="st18" points="17.099,31.136 16.491,30.796 16.904,30.567 17.512,30.907 							"/>
						</g>
						<g>
							<polygon class="st19" points="17.512,30.907 18.09,31.123 18.408,30.947 18.408,30.999 18.073,31.185 17.495,30.968 
								17.099,31.188 17.099,31.136 							"/>
						</g>
					</g>
				</g>
				<g>
					<g class="st11">
						<g>
							<polygon class="st15" points="16.806,30.459 16.198,30.119 16.515,29.943 17.124,30.282 							"/>
						</g>
						<g>
							<polygon class="st17" points="16.228,30.242 15.62,29.903 16.198,30.119 16.806,30.459 							"/>
						</g>
						<g>
							<polygon class="st15" points="15.815,30.523 15.207,30.184 15.207,30.132 15.815,30.471 							"/>
						</g>
						<g>
							<polygon class="st18" points="15.815,30.471 15.207,30.132 15.62,29.903 16.228,30.242 							"/>
						</g>
						<g>
							<polygon class="st19" points="16.228,30.242 16.806,30.459 17.124,30.282 17.124,30.335 16.789,30.52 16.211,30.304 
								15.815,30.523 15.815,30.471 							"/>
						</g>
					</g>
				</g>
				<g>
					<g class="st11">
						<g>
							<polygon class="st15" points="15.677,29.853 15.069,29.513 15.386,29.337 15.995,29.676 							"/>
						</g>
						<g>
							<polygon class="st19" points="15.1,29.636 15.677,29.853 15.995,29.676 15.995,29.728 15.66,29.914 15.082,29.698 
								14.687,29.917 14.686,29.865 							"/>
						</g>
					</g>
				</g>
				<g>
					<g class="st11">
						<g>
							<polygon class="st9" points="13.664,31.663 13.056,31.323 13.469,31.094 14.077,31.433 							"/>
						</g>
						<g>
							<polygon class="st15" points="13.09,32.518 12.481,32.179 13.056,31.323 13.664,31.663 							"/>
						</g>
						<g>
							<polygon class="st9" points="12.772,32.695 12.163,32.355 12.481,32.179 13.09,32.518 							"/>
						</g>
						<g>
							<polygon class="st15" points="12.772,32.747 12.163,32.407 12.163,32.355 12.772,32.695 							"/>
						</g>
						<g>
							<polygon class="st15" points="14.077,31.433 14.077,31.485 13.681,31.705 13.107,32.561 12.772,32.747 12.772,32.695 
								13.09,32.518 13.664,31.663 							"/>
						</g>
					</g>
				</g>
				<g>
					<g class="st11">
						<g>
							<polygon class="st9" points="14.908,32.353 14.3,32.013 14.713,31.784 15.321,32.124 							"/>
						</g>
						<g>
							<polygon class="st15" points="14.333,33.209 13.725,32.869 14.3,32.013 14.908,32.353 							"/>
						</g>
						<g>
							<polygon class="st9" points="14.016,33.385 13.407,33.045 13.725,32.869 14.333,33.209 							"/>
						</g>
						<g>
							<polygon class="st15" points="14.016,33.437 13.407,33.097 13.407,33.045 14.016,33.385 							"/>
						</g>
						<g>
							<polygon class="st15" points="15.321,32.124 15.321,32.176 14.925,32.395 14.351,33.251 14.016,33.437 14.016,33.385 
								14.333,33.209 14.908,32.353 							"/>
						</g>
					</g>
				</g>
				<g>
					<g class="st11">
						<g>
							<polygon class="st9" points="16.152,33.043 15.544,32.703 15.957,32.474 16.565,32.814 							"/>
						</g>
						<g>
							<polygon class="st15" points="15.578,33.899 14.969,33.559 15.544,32.703 16.152,33.043 							"/>
						</g>
						<g>
							<polygon class="st9" points="15.26,34.075 14.651,33.735 14.969,33.559 15.578,33.899 							"/>
						</g>
						<g>
							<polygon class="st15" points="15.26,34.127 14.652,33.787 14.651,33.735 15.26,34.075 							"/>
						</g>
						<g>
							<polygon class="st15" points="16.565,32.814 16.566,32.866 16.17,33.085 15.595,33.941 15.26,34.127 15.26,34.075 
								15.578,33.899 16.152,33.043 							"/>
						</g>
					</g>
				</g>
				<g>
					<g class="st11">
						<g>
							<polygon class="st9" points="17.403,33.736 16.794,33.397 17.207,33.167 17.816,33.507 							"/>
						</g>
						<g>
							<polygon class="st15" points="16.828,34.592 16.22,34.252 16.794,33.397 17.403,33.736 							"/>
						</g>
						<g>
							<polygon class="st9" points="16.51,34.768 15.902,34.429 16.22,34.252 16.828,34.592 							"/>
						</g>
						<g>
							<polygon class="st15" points="16.51,34.82 15.902,34.481 15.902,34.429 16.51,34.768 							"/>
						</g>
						<g>
							<polygon class="st15" points="17.816,33.507 17.816,33.559 17.42,33.779 16.845,34.635 16.51,34.82 16.51,34.768 
								16.828,34.592 17.403,33.736 							"/>
						</g>
					</g>
				</g>
				<g>
					<g class="st11">
						<g>
							<polygon class="st12" points="19.742,31.934 19.738,32.711 17.935,33.718 17.939,32.94 							"/>
						</g>
						<g>
							<polygon class="st20" points="17.939,32.94 17.935,33.718 13.138,31.056 13.141,30.279 							"/>
						</g>
						<g>
							<polygon class="st21" points="19.742,31.934 17.939,32.94 13.141,30.279 14.944,29.272 							"/>
						</g>
						<g>
							<path class="st15" d="M17.79,32.605l-0.014-0.008l-4.032-2.236l1.35-0.754l0.014,0.008l4.032,2.236L17.79,32.605z
								 M13.853,30.361l3.937,2.183l1.241-0.693l-3.937-2.183L13.853,30.361z"/>
						</g>
					</g>
				</g>
			</g>
			<g>
				<polygon class="st10" points="16.714,31.348 14.473,30.105 14.961,29.835 17.201,31.077 				"/>
				<polygon class="st10" points="18.208,32.177 17.401,31.729 17.889,31.459 18.696,31.907 				"/>
				<polygon class="st10" points="17.371,31.574 17.015,31.377 17.254,31.245 17.609,31.442 				"/>
			</g>
		</g>
		<g>
			<g>
				<g class="st11">
					<g>
						<polygon class="st22" points="15.085,28.604 15.083,29.169 15.076,27.896 15.077,27.33 						"/>
					</g>
					<g>
						<polygon class="st23" points="28.381,28.603 28.379,29.169 22.893,32.232 22.895,31.666 						"/>
					</g>
					<g>
						<polygon class="st22" points="20.606,31.666 20.605,32.232 15.083,29.169 15.085,28.604 						"/>
					</g>
					<g>
						<polygon class="st24" points="22.895,31.666 22.893,32.232 20.605,32.232 20.606,31.666 						"/>
					</g>
					<g>
						<polygon class="st14" points="28.373,27.33 28.381,28.603 22.895,31.666 20.606,31.666 15.085,28.604 15.077,27.33 
							20.563,24.267 22.852,24.267 						"/>
					</g>
				</g>
			</g>
			<g>
				<g class="st11">
					<g>
						<polygon class="st22" points="15.085,28.073 15.083,28.421 15.076,27.365 15.077,26.799 						"/>
					</g>
					<g>
						<polygon class="st23" points="28.381,28.073 28.379,28.421 22.893,31.484 22.895,31.136 						"/>
					</g>
					<g>
						<polygon class="st22" points="20.606,31.136 20.605,31.484 15.083,28.421 15.085,28.073 						"/>
					</g>
					<g>
						<polygon class="st24" points="22.895,31.136 22.893,31.484 20.605,31.484 20.606,31.136 						"/>
					</g>
					<g>
						<polygon class="st25" points="28.373,26.799 28.381,28.073 22.895,31.136 20.606,31.136 15.085,28.073 15.077,26.799 
							20.563,23.736 22.852,23.736 						"/>
						<g>
							<path class="st20" d="M20.757,30.751h-0.043l-5.229-2.901l-0.005-0.829l5.191-2.899l2.073,0l5.229,2.901l0.005,0.829
								l-5.191,2.899L20.757,30.751z M15.805,27.671l4.995,2.771l1.9,0l4.956-2.767l-0.003-0.474l-4.995-2.771l-1.9,0l-4.956,2.767
								L15.805,27.671z"/>
						</g>
					</g>
				</g>
			</g>
		</g>
		<g>
			<g>
				<g class="st11">
					<g>
						<polygon class="st20" points="22.658,31.754 22.666,33.004 26.489,35.138 26.481,33.889 						"/>
					</g>
					<g>
						<polygon class="st12" points="26.481,33.889 26.489,35.138 32.765,31.656 32.758,30.407 						"/>
					</g>
					<g>
						<polygon class="st21" points="22.658,31.754 26.481,33.889 32.758,30.407 28.935,28.272 						"/>
					</g>
				</g>
			</g>
			<g>
				<g class="st11">
					<g>
						<polygon class="st10" points="23.287,31.327 23.293,31.758 26.555,33.58 26.549,33.148 						"/>
					</g>
					<g>
						<polygon class="st10" points="26.549,33.148 26.555,33.58 31.91,30.609 31.904,30.177 						"/>
					</g>
					<g>
						<polygon class="st9" points="23.287,31.327 26.549,33.148 31.904,30.177 28.642,28.356 						"/>
					</g>
				</g>
			</g>
			<g>
				<g class="st11">
					<g>
						<polygon class="st10" points="24.346,34.513 23.394,33.975 23.394,33.905 24.346,34.443 						"/>
					</g>
					<g>
						<polygon class="st26" points="24.346,34.443 23.394,33.905 23.845,33.654 24.797,34.193 						"/>
					</g>
					<g>
						<polygon class="st10" points="24.797,34.193 23.845,33.654 23.839,32.682 24.791,33.221 						"/>
					</g>
					<g>
						<polygon class="st26" points="24.791,33.221 23.839,32.682 23.902,32.647 24.854,33.185 						"/>
					</g>
					<g>
						<polygon class="st27" points="24.854,33.185 24.861,34.228 24.346,34.513 24.346,34.443 24.797,34.193 24.791,33.221 						
							"/>
					</g>
				</g>
			</g>
			<g>
				<polygon class="st21" points="24.591,31.605 27.409,30.042 26.85,29.731 24.032,31.294 				"/>
				<polygon class="st21" points="25.119,31.898 27.937,30.334 27.603,30.149 24.785,31.713 				"/>
				<polygon class="st21" points="26.26,32.531 29.078,30.967 28.745,30.782 25.926,32.346 				"/>
				<g>
					<polygon class="st21" points="27.335,31.301 28.508,30.651 28.174,30.466 27.001,31.116 					"/>
					<polygon class="st21" points="25.69,32.214 26.862,31.564 26.529,31.379 25.356,32.029 					"/>
				</g>
			</g>
			<g>
				<polygon class="st10" points="31.302,30.195 30.955,30.387 28.182,28.849 28.529,28.656 				"/>
				<polygon class="st10" points="30.757,30.497 30.41,30.69 27.637,29.151 27.984,28.959 				"/>
			</g>
		</g>
		<g>
			<g>
				<polygon class="st20" points="33.589,38.684 33.589,37.271 27.729,34.02 27.729,35.433 				"/>
			</g>
			<g>
				<g class="st11">
					<g class="st11">
						<defs>
							<path id="SVGID_1_" class="st11" d="M28.055,34.219l0.084,0.047c-0.045-0.025-0.107-0.022-0.175,0.016l-0.084-0.047
								C27.948,34.198,28.01,34.194,28.055,34.219z"/>
						</defs>
						<clipPath id="SVGID_00000065074197230781655280000009225157632848001983_">
							<use xlink:href="#SVGID_1_"  style="overflow:visible;"/>
						</clipPath>
						<g style="clip-path:url(#SVGID_00000065074197230781655280000009225157632848001983_);enable-background:new    ;">
							<path class="st29" d="M27.963,34.282l-0.084-0.047c0.068-0.038,0.13-0.041,0.175-0.016l0.084,0.047
								C28.094,34.241,28.032,34.245,27.963,34.282L27.963,34.282z"/>
						</g>
					</g>
					<g class="st11">
						<defs>
							<path id="SVGID_00000035516342076081790350000008289049226427117467_" class="st11" d="M27.374,34.674l0.084,0.047
								c0.026,0.015,0.043,0.046,0.043,0.091c0,0.09-0.065,0.199-0.147,0.244l-0.084-0.047c0.081-0.045,0.147-0.155,0.147-0.244
								C27.417,34.72,27.401,34.689,27.374,34.674z"/>
						</defs>
						<clipPath id="SVGID_00000054964560986627373520000001286911481012596130_">
							<use xlink:href="#SVGID_00000035516342076081790350000008289049226427117467_"  style="overflow:visible;"/>
						</clipPath>
						<g style="clip-path:url(#SVGID_00000054964560986627373520000001286911481012596130_);enable-background:new    ;">
							<path class="st29" d="M27.355,35.056l-0.084-0.047c0.081-0.045,0.147-0.155,0.147-0.244c0-0.045-0.017-0.076-0.043-0.091
								l0.084,0.047c0.026,0.015,0.043,0.046,0.043,0.091C27.502,34.901,27.436,35.011,27.355,35.056L27.355,35.056z"/>
						</g>
					</g>
					<g class="st11">
						<defs>
							<path id="SVGID_00000037692003614364837140000003890433233011780242_" class="st11" d="M27.25,35.066l-0.084-0.047
								c0.027,0.015,0.064,0.013,0.105-0.01l0.084,0.047C27.314,35.079,27.277,35.081,27.25,35.066z"/>
						</defs>
						<clipPath id="SVGID_00000121251280708737734570000017625613461994544035_">
							<use xlink:href="#SVGID_00000037692003614364837140000003890433233011780242_"  style="overflow:visible;"/>
						</clipPath>
						<g style="clip-path:url(#SVGID_00000121251280708737734570000017625613461994544035_);enable-background:new    ;">
							<path class="st29" d="M27.25,35.066l-0.084-0.047c0.027,0.015,0.064,0.013,0.105-0.01l0.084,0.047
								C27.314,35.079,27.277,35.081,27.25,35.066L27.25,35.066z"/>
						</g>
					</g>
					<g>
						<polygon class="st32" points="27.355,34.62 27.271,34.573 27.879,34.236 27.963,34.282 						"/>
					</g>
					<g class="st11">
						<defs>
							<path id="SVGID_00000006705609878766140190000014583751341174451363_" class="st11" d="M27.181,35.181l-0.084-0.047
								c-0.044-0.025-0.072-0.077-0.072-0.152c0-0.15,0.11-0.334,0.246-0.409l0.084,0.047c-0.136,0.075-0.246,0.259-0.246,0.409
								C27.109,35.104,27.137,35.156,27.181,35.181z"/>
						</defs>
						<clipPath id="SVGID_00000108267304250491506590000008511726726601094788_">
							<use xlink:href="#SVGID_00000006705609878766140190000014583751341174451363_"  style="overflow:visible;"/>
						</clipPath>
						<g style="clip-path:url(#SVGID_00000108267304250491506590000008511726726601094788_);enable-background:new    ;">
							<path class="st29" d="M27.181,35.181l-0.084-0.047c-0.044-0.025-0.072-0.077-0.072-0.152c0-0.15,0.11-0.334,0.246-0.409
								l0.084,0.047c-0.136,0.075-0.246,0.259-0.246,0.409C27.109,35.104,27.137,35.156,27.181,35.181L27.181,35.181z"/>
						</g>
					</g>
					<g>
						<path class="st21" d="M27.963,34.282c0.136-0.075,0.247-0.014,0.248,0.135c0,0.15-0.11,0.334-0.246,0.409l-0.609,0.338
							c-0.136,0.075-0.247,0.014-0.248-0.136c0-0.15,0.11-0.334,0.246-0.409L27.963,34.282z M27.355,35.056
							c0.081-0.045,0.147-0.155,0.147-0.244c0-0.09-0.066-0.126-0.148-0.081c-0.081,0.045-0.147,0.154-0.147,0.244
							C27.207,35.065,27.273,35.101,27.355,35.056L27.355,35.056z"/>
					</g>
				</g>
			</g>
			<g>
				<g class="st11">
					<g>
						<polygon class="st34" points="32.71,33.251 31.574,32.616 31.578,34.044 32.715,34.678 						"/>
					</g>
					<g>
						<polygon class="st35" points="33.581,31.853 32.445,31.218 31.571,31.703 32.708,32.338 						"/>
					</g>
					<g>
						<polygon class="st20" points="33.581,31.853 33.588,34.194 32.715,34.678 32.71,33.251 32.71,32.336 						"/>
					</g>
				</g>
			</g>
			<g>
				<polygon class="st9" points="33.589,37.271 36.762,35.499 30.901,32.248 27.729,34.02 				"/>
			</g>
			<g>
				<g>
					<g class="st11">
						<g>
							<polygon class="st21" points="30.134,35.489 27.916,34.25 27.922,36.325 30.14,37.564 							"/>
						</g>
						<g>
							<polygon class="st35" points="30.867,35.082 28.649,33.844 27.916,34.25 30.134,35.489 							"/>
						</g>
						<g>
							<polygon class="st20" points="30.134,35.489 30.14,37.564 30.873,37.157 30.869,35.772 31.395,35.48 30.867,35.082 							
								"/>
						</g>
					</g>
				</g>
			</g>
			<polygon class="st20" points="32.708,32.338 32.71,32.336 32.71,33.251 32.177,33.547 			"/>
			<g>
				<polygon class="st21" points="32.708,32.338 31.571,31.703 31.04,32.912 32.177,33.547 				"/>
			</g>
			<g>
				<polygon class="st36" points="28.561,35.839 28.099,35.584 28.099,34.745 28.561,35 				"/>
				<polygon class="st37" points="28.35,35.444 28.51,35.532 28.51,35.755 28.149,35.556 28.149,35.556 				"/>
				<g>
					<polygon class="st38" points="28.51,35.029 28.51,35.532 28.351,35.444 28.351,34.941 28.401,34.969 					"/>
					<polygon class="st39" points="28.51,35.104 28.51,35.46 28.401,35.4 28.401,35.044 					"/>
					<polygon class="st39" points="28.149,35.333 28.149,34.83 28.35,34.941 28.35,35.444 28.149,35.556 					"/>
				</g>
			</g>
			<g>
				<polygon class="st36" points="29.259,36.229 28.797,35.973 28.797,35.135 29.259,35.39 				"/>
				<polygon class="st37" points="29.049,35.833 29.209,35.921 29.209,36.144 28.848,35.945 28.848,35.945 				"/>
				<g>
					<polygon class="st38" points="29.209,35.418 29.209,35.921 29.049,35.834 29.049,35.331 29.1,35.358 					"/>
					<polygon class="st39" points="29.209,35.493 29.209,35.849 29.1,35.79 29.1,35.434 					"/>
					<polygon class="st39" points="28.848,35.722 28.848,35.219 29.049,35.331 29.049,35.833 28.848,35.945 					"/>
				</g>
			</g>
			<g>
				<polygon class="st36" points="29.964,36.618 29.502,36.363 29.502,35.524 29.964,35.779 				"/>
				<polygon class="st37" points="29.754,36.223 29.913,36.31 29.913,36.533 29.553,36.335 29.553,36.334 				"/>
				<g>
					<polygon class="st38" points="29.913,35.807 29.913,36.31 29.754,36.223 29.754,35.72 29.804,35.748 					"/>
					<polygon class="st39" points="29.913,35.883 29.913,36.239 29.804,36.179 29.804,35.823 					"/>
					<polygon class="st39" points="29.553,36.111 29.553,35.608 29.754,35.72 29.754,36.223 29.553,36.334 					"/>
				</g>
			</g>
			<g>
				<path class="st21" d="M28.966,34.212c-0.01,0.016-0.027,0.032-0.051,0.045c-0.083,0.046-0.218,0.046-0.301,0
					c-0.024-0.013-0.041-0.028-0.051-0.045c-0.026-0.041-0.009-0.089,0.051-0.122c0.083-0.046,0.218-0.046,0.301,0
					C28.975,34.123,28.992,34.171,28.966,34.212z"/>
				<path class="st40" d="M28.966,34.212c-0.01,0.016-0.027,0.032-0.051,0.045c-0.083,0.046-0.218,0.046-0.301,0
					c-0.024-0.013-0.041-0.028-0.051-0.045c0.01-0.016,0.027-0.032,0.051-0.045c0.083-0.046,0.218-0.046,0.301,0
					C28.939,34.18,28.956,34.195,28.966,34.212z"/>
			</g>
			<g>
				<path class="st21" d="M29.703,34.621c-0.01,0.016-0.027,0.032-0.051,0.045c-0.083,0.046-0.218,0.046-0.301,0
					c-0.024-0.013-0.041-0.028-0.051-0.045c-0.026-0.041-0.009-0.089,0.051-0.122c0.083-0.046,0.218-0.046,0.301,0
					C29.712,34.532,29.729,34.58,29.703,34.621z"/>
				<path class="st40" d="M29.703,34.621c-0.01,0.016-0.027,0.032-0.051,0.045c-0.083,0.046-0.218,0.046-0.301,0
					c-0.024-0.013-0.041-0.028-0.051-0.045c0.01-0.016,0.027-0.032,0.051-0.045c0.083-0.046,0.218-0.046,0.301,0
					C29.676,34.589,29.693,34.604,29.703,34.621z"/>
			</g>
			<g>
				<path class="st21" d="M32.916,32.04c-0.01,0.016-0.027,0.032-0.051,0.045c-0.083,0.046-0.218,0.046-0.301,0
					c-0.024-0.013-0.041-0.028-0.051-0.045c-0.026-0.041-0.009-0.089,0.051-0.122c0.083-0.046,0.218-0.046,0.301,0
					C32.924,31.951,32.941,31.999,32.916,32.04z"/>
				<path class="st40" d="M32.916,32.04c-0.01,0.016-0.027,0.032-0.051,0.045c-0.083,0.046-0.218,0.046-0.301,0
					c-0.024-0.013-0.041-0.028-0.051-0.045c0.01-0.016,0.027-0.032,0.051-0.045c0.083-0.046,0.218-0.046,0.301,0
					C32.889,32.008,32.906,32.024,32.916,32.04z"/>
			</g>
			<g>
				<path class="st21" d="M30.44,35.03c-0.01,0.016-0.027,0.032-0.051,0.045c-0.083,0.046-0.218,0.046-0.301,0
					c-0.024-0.013-0.041-0.028-0.051-0.045c-0.026-0.041-0.009-0.089,0.051-0.122c0.083-0.046,0.218-0.046,0.301,0
					C30.449,34.941,30.466,34.989,30.44,35.03z"/>
				<path class="st40" d="M30.44,35.03c-0.01,0.016-0.027,0.032-0.051,0.045c-0.083,0.046-0.218,0.046-0.301,0
					c-0.024-0.013-0.041-0.028-0.051-0.045c0.01-0.016,0.027-0.032,0.051-0.045c0.083-0.046,0.218-0.046,0.301,0
					C30.413,34.998,30.43,35.013,30.44,35.03z"/>
			</g>
			<g>
				<g>
					<g>
						<polygon class="st36" points="33.341,36.344 35.189,35.323 31.317,33.175 29.469,34.197 						"/>
					</g>
				</g>
				<g>
					<polygon class="st21" points="33.421,34.957 34.372,35.485 34.705,35.3 33.754,34.772 					"/>
					<polygon class="st21" points="30.501,33.834 33.924,35.733 34.258,35.548 30.835,33.649 					"/>
					<polygon class="st21" points="30.011,34.107 33.434,36.006 33.767,35.821 30.344,33.922 					"/>
					<polygon class="st21" points="30.949,33.586 33.18,34.824 33.514,34.639 31.282,33.401 					"/>
				</g>
			</g>
			<g>
				<polygon class="st22" points="36.762,36.912 36.762,35.499 33.589,37.271 33.589,38.684 				"/>
			</g>
		</g>
		<g>
			<polygon class="st7" points="43.209,32.143 30.251,39.332 30.251,43.951 43.209,36.762 			"/>
			<polygon class="st6" points="43.209,32.143 42.639,31.826 29.681,39.015 30.251,39.332 			"/>
			<polygon class="st1" points="29.681,43.635 30.251,43.951 30.251,39.332 29.681,39.015 			"/>
		</g>
		<g>
			<path class="st41" d="M35.905,34.139L35.905,34.139c-0.024,0-0.044-0.019-0.044-0.042l0-1.089c0-0.086-0.066-0.195-0.143-0.239
				l-0.074-0.041c-0.029-0.016-0.056-0.02-0.073-0.011c-0.017,0.009-0.027,0.033-0.027,0.066l0,1.089
				c0,0.023-0.02,0.042-0.044,0.042l0,0c-0.024,0-0.044-0.019-0.044-0.042l0-1.089c0-0.064,0.026-0.114,0.071-0.139
				c0.045-0.025,0.103-0.021,0.161,0.011l0.074,0.041c0.105,0.058,0.187,0.195,0.187,0.312l0,1.089
				C35.949,34.12,35.929,34.139,35.905,34.139z"/>
			<g>
				<g class="st11">
					<g class="st11">
						<defs>
							<path id="SVGID_00000145743112251678331730000016772732751404312489_" class="st11" d="M36.216,32.686l-0.004,0.09
								c0,0.072-0.05,0.145-0.149,0.2c-0.199,0.111-0.523,0.111-0.724,0c-0.101-0.056-0.151-0.129-0.151-0.203l0.004-0.09
								c0,0.073,0.05,0.147,0.151,0.203c0.2,0.111,0.524,0.111,0.724,0C36.166,32.831,36.216,32.759,36.216,32.686z"/>
						</defs>
						<use xlink:href="#SVGID_00000145743112251678331730000016772732751404312489_"  style="overflow:visible;fill:#EA6060;"/>
						<clipPath id="SVGID_00000024714824460939049880000010318534981233982606_">
							<use xlink:href="#SVGID_00000145743112251678331730000016772732751404312489_"  style="overflow:visible;"/>
						</clipPath>
						<g style="clip-path:url(#SVGID_00000024714824460939049880000010318534981233982606_);">
							<path class="st10" d="M36.216,32.686l-0.004,0.09c0,0.072-0.05,0.145-0.149,0.2c-0.066,0.037-0.147,0.062-0.231,0.074
								l0.004-0.09c0.085-0.012,0.165-0.037,0.231-0.074C36.166,32.831,36.216,32.759,36.216,32.686L36.216,32.686z"/>
							<path class="st10" d="M35.836,32.961l-0.004,0.09c-0.084,0.012-0.173,0.012-0.257,0l0.004-0.09
								C35.663,32.973,35.752,32.973,35.836,32.961L35.836,32.961z"/>
							<path class="st10" d="M35.578,32.961l-0.004,0.09c-0.086-0.012-0.167-0.037-0.235-0.074
								c-0.014-0.008-0.026-0.016-0.038-0.024l0.004-0.09c0.012,0.008,0.025,0.016,0.038,0.024
								C35.411,32.924,35.493,32.949,35.578,32.961L35.578,32.961z"/>
							<path class="st10" d="M35.199,32.73c-0.004-0.015-0.007-0.031-0.007-0.046l-0.004,0.09c0,0.015,0.002,0.031,0.007,0.046
								c0.014,0.047,0.049,0.093,0.106,0.133l0.004-0.09C35.248,32.823,35.213,32.777,35.199,32.73z"/>
						</g>
					</g>
					<g>
						<path class="st9" d="M36.065,32.484c0.2,0.111,0.201,0.292,0.002,0.403c-0.199,0.111-0.523,0.111-0.724,0
							c-0.2-0.111-0.202-0.292-0.002-0.403C35.54,32.373,35.864,32.372,36.065,32.484z"/>
					</g>
				</g>
			</g>
			<g>
				<g class="st11">
					<g class="st11">
						<defs>
							<path id="SVGID_00000027605581182519530430000018213944158898874758_" class="st11" d="M36.169,31.799l-0.004,0.863
								c0,0.066-0.045,0.131-0.135,0.182c-0.181,0.101-0.475,0.101-0.657,0c-0.092-0.051-0.137-0.117-0.137-0.184l0.004-0.863
								c0,0.067,0.046,0.133,0.137,0.184c0.182,0.101,0.476,0.101,0.657,0C36.123,31.93,36.168,31.864,36.169,31.799z"/>
						</defs>
						<use xlink:href="#SVGID_00000027605581182519530430000018213944158898874758_"  style="overflow:visible;fill:#EA6060;"/>
						<clipPath id="SVGID_00000096053628409637410480000012531058037178924964_">
							<use xlink:href="#SVGID_00000027605581182519530430000018213944158898874758_"  style="overflow:visible;"/>
						</clipPath>
						<g style="clip-path:url(#SVGID_00000096053628409637410480000012531058037178924964_);">
							<path class="st10" d="M36.169,31.799l-0.004,0.863c0,0.066-0.045,0.131-0.135,0.182c-0.06,0.034-0.133,0.056-0.21,0.067
								l0.004-0.863c0.077-0.011,0.15-0.034,0.21-0.067C36.123,31.93,36.168,31.864,36.169,31.799L36.169,31.799z"/>
							<path class="st10" d="M35.824,32.047L35.82,32.91c-0.076,0.011-0.157,0.011-0.234,0l0.004-0.863
								C35.667,32.059,35.747,32.059,35.824,32.047L35.824,32.047z"/>
							<path class="st44" d="M35.59,32.048l-0.004,0.863c-0.078-0.011-0.152-0.034-0.213-0.068
								c-0.012-0.007-0.024-0.014-0.035-0.022l0.004-0.863c0.011,0.007,0.022,0.015,0.035,0.022
								C35.438,32.014,35.512,32.037,35.59,32.048L35.59,32.048z"/>
							<path class="st45" d="M35.59,32.048l-0.004,0.863c-0.078-0.011-0.152-0.034-0.213-0.068
								c-0.012-0.007-0.024-0.014-0.035-0.022l0.004-0.863c0.011,0.007,0.022,0.015,0.035,0.022
								C35.438,32.014,35.512,32.037,35.59,32.048L35.59,32.048z"/>
							<path class="st10" d="M35.246,31.838c-0.004-0.014-0.006-0.028-0.006-0.042l-0.004,0.863c0,0.014,0.002,0.028,0.006,0.042
								c0.013,0.043,0.045,0.085,0.096,0.121l0.004-0.863C35.29,31.923,35.258,31.881,35.246,31.838z"/>
						</g>
					</g>
					<g>
						<path class="st9" d="M36.031,31.615c0.182,0.101,0.183,0.265,0.002,0.366c-0.181,0.101-0.475,0.101-0.657,0
							c-0.182-0.101-0.183-0.265-0.002-0.366C35.555,31.514,35.849,31.514,36.031,31.615z"/>
					</g>
				</g>
			</g>
			<g class="st46">
				<path class="st47" d="M35.546,32.446l0.35-0.347l-0.438-0.019l0,0.529l0,0v0.273c0.028,0.008,0.058,0.015,0.088,0.021v-0.327
					h-0.001V32.446z"/>
				<path class="st47" d="M35.949,32.576l0-0.255l0-0.125l-0.243,0.257l0,0.216l0.155,0.086v0.149
					c0.03-0.005,0.06-0.012,0.088-0.021L35.949,32.576L35.949,32.576z"/>
			</g>
		</g>
		<g>
			<path class="st41" d="M34.46,33.537L34.46,33.537c-0.024,0-0.044-0.019-0.044-0.042l0-1.089c0-0.086-0.066-0.195-0.143-0.239
				l-0.074-0.041c-0.029-0.016-0.056-0.02-0.073-0.011c-0.017,0.009-0.027,0.033-0.027,0.066l0,1.089
				c0,0.023-0.02,0.042-0.044,0.042l0,0c-0.024,0-0.044-0.019-0.044-0.042l0-1.089c0-0.064,0.026-0.114,0.071-0.139
				c0.045-0.025,0.103-0.021,0.161,0.011l0.074,0.041c0.105,0.058,0.187,0.195,0.187,0.312l0,1.089
				C34.504,33.518,34.485,33.537,34.46,33.537z"/>
			<g>
				<g class="st11">
					<g class="st11">
						<defs>
							<path id="SVGID_00000155105116311343308320000014001833550981644429_" class="st11" d="M34.771,32.085l-0.004,0.09
								c0,0.072-0.05,0.145-0.149,0.2c-0.199,0.111-0.523,0.111-0.724,0c-0.101-0.056-0.151-0.129-0.151-0.203l0.004-0.09
								c0,0.073,0.05,0.147,0.151,0.203c0.2,0.111,0.524,0.111,0.724,0C34.722,32.23,34.771,32.158,34.771,32.085z"/>
						</defs>
						<use xlink:href="#SVGID_00000155105116311343308320000014001833550981644429_"  style="overflow:visible;fill:#EA6060;"/>
						<clipPath id="SVGID_00000070119840680132457180000017595483710091248551_">
							<use xlink:href="#SVGID_00000155105116311343308320000014001833550981644429_"  style="overflow:visible;"/>
						</clipPath>
						<g style="clip-path:url(#SVGID_00000070119840680132457180000017595483710091248551_);">
							<path class="st49" d="M34.771,32.085l-0.004,0.09c0,0.072-0.05,0.145-0.149,0.2c-0.066,0.037-0.147,0.062-0.231,0.074
								l0.004-0.09c0.085-0.012,0.165-0.037,0.231-0.074C34.722,32.23,34.771,32.158,34.771,32.085L34.771,32.085z"/>
							<path class="st49" d="M34.391,32.359l-0.004,0.09c-0.084,0.012-0.173,0.012-0.257,0l0.004-0.09
								C34.218,32.372,34.307,32.372,34.391,32.359L34.391,32.359z"/>
							<path class="st49" d="M34.134,32.36l-0.004,0.09c-0.086-0.012-0.167-0.037-0.235-0.074c-0.014-0.008-0.026-0.016-0.038-0.024
								l0.004-0.09c0.012,0.008,0.025,0.016,0.038,0.024C33.967,32.323,34.048,32.347,34.134,32.36L34.134,32.36z"/>
							<path class="st49" d="M33.755,32.129c-0.004-0.015-0.007-0.031-0.007-0.046l-0.004,0.09c0,0.015,0.002,0.031,0.007,0.046
								c0.014,0.047,0.049,0.093,0.106,0.133l0.004-0.09C33.804,32.222,33.769,32.176,33.755,32.129z"/>
						</g>
					</g>
					<g>
						<path class="st50" d="M34.62,31.882c0.2,0.111,0.201,0.292,0.002,0.403c-0.199,0.111-0.523,0.111-0.724,0
							c-0.2-0.111-0.202-0.292-0.002-0.403C34.096,31.771,34.42,31.771,34.62,31.882z"/>
					</g>
				</g>
			</g>
			<g>
				<g class="st11">
					<g class="st11">
						<defs>
							<path id="SVGID_00000134956216642401716390000014464668478901187504_" class="st11" d="M34.724,31.197L34.72,32.06
								c0,0.066-0.045,0.131-0.135,0.182c-0.181,0.101-0.475,0.101-0.657,0c-0.092-0.051-0.137-0.117-0.137-0.184l0.004-0.863
								c0,0.067,0.046,0.133,0.137,0.184c0.182,0.101,0.476,0.101,0.657,0C34.679,31.329,34.724,31.263,34.724,31.197z"/>
						</defs>
						<use xlink:href="#SVGID_00000134956216642401716390000014464668478901187504_"  style="overflow:visible;fill:#EA6060;"/>
						<clipPath id="SVGID_00000055695221919824869460000002041772843294546318_">
							<use xlink:href="#SVGID_00000134956216642401716390000014464668478901187504_"  style="overflow:visible;"/>
						</clipPath>
						<g style="clip-path:url(#SVGID_00000055695221919824869460000002041772843294546318_);">
							<path class="st52" d="M34.724,31.197L34.72,32.06c0,0.066-0.045,0.131-0.135,0.182c-0.06,0.034-0.133,0.056-0.21,0.067
								l0.004-0.863c0.077-0.011,0.15-0.034,0.21-0.067C34.679,31.329,34.724,31.263,34.724,31.197L34.724,31.197z"/>
							<path class="st52" d="M34.379,31.446l-0.004,0.863c-0.076,0.011-0.157,0.011-0.234,0l0.004-0.863
								C34.222,31.458,34.303,31.457,34.379,31.446L34.379,31.446z"/>
							<path class="st44" d="M34.145,31.447l-0.004,0.863c-0.078-0.011-0.152-0.034-0.213-0.068
								c-0.012-0.007-0.024-0.014-0.035-0.022l0.004-0.863c0.011,0.007,0.022,0.015,0.035,0.022
								C33.994,31.413,34.067,31.436,34.145,31.447L34.145,31.447z"/>
							<path class="st52" d="M34.145,31.447l-0.004,0.863c-0.078-0.011-0.152-0.034-0.213-0.068
								c-0.012-0.007-0.024-0.014-0.035-0.022l0.004-0.863c0.011,0.007,0.022,0.015,0.035,0.022
								C33.994,31.413,34.067,31.436,34.145,31.447L34.145,31.447z"/>
							<path class="st53" d="M34.145,31.447l-0.004,0.863c-0.078-0.011-0.152-0.034-0.213-0.068
								c-0.012-0.007-0.024-0.014-0.035-0.022l0.004-0.863c0.011,0.007,0.022,0.015,0.035,0.022
								C33.994,31.413,34.067,31.436,34.145,31.447L34.145,31.447z"/>
							<path class="st52" d="M33.801,31.237c-0.004-0.014-0.006-0.028-0.006-0.042l-0.004,0.863c0,0.014,0.002,0.028,0.006,0.042
								c0.013,0.043,0.045,0.085,0.096,0.121l0.004-0.863C33.846,31.322,33.814,31.28,33.801,31.237z"/>
						</g>
					</g>
					<g>
						<path class="st50" d="M34.587,31.013c0.182,0.101,0.183,0.265,0.002,0.366c-0.181,0.101-0.475,0.101-0.657,0
							c-0.182-0.101-0.183-0.265-0.002-0.366C34.111,30.912,34.405,30.912,34.587,31.013z"/>
					</g>
				</g>
			</g>
			<g class="st46">
				<path class="st47" d="M34.102,31.845l0.35-0.347l-0.438-0.019l0,0.529l0,0v0.273c0.028,0.008,0.058,0.015,0.088,0.021v-0.327
					h-0.001V31.845z"/>
				<path class="st47" d="M34.504,31.975l0-0.255l0-0.125l-0.243,0.257v0.216l0.155,0.086v0.149c0.03-0.005,0.06-0.012,0.088-0.021
					L34.504,31.975L34.504,31.975z"/>
			</g>
		</g>
		<g>
			<polygon class="st54" points="34.547,40.48 33.036,41.317 33.036,42.148 34.547,41.309 			"/>
			<polygon class="st7" points="34.443,40.668 33.147,41.388 33.147,41.702 34.443,40.982 			"/>
			<polygon class="st54" points="36.507,39.391 34.996,40.23 34.996,41.061 36.507,40.222 			"/>
			<polygon class="st7" points="36.39,39.588 35.091,40.309 35.091,40.621 36.39,39.902 			"/>
		</g>
		<g>
			<polygon class="st54" points="40.085,37.441 38.574,38.278 38.574,39.108 40.085,38.27 			"/>
			<polygon class="st7" points="39.981,37.629 38.685,38.348 38.685,38.662 39.981,37.943 			"/>
			<polygon class="st54" points="42.045,36.352 40.534,37.191 40.534,38.021 42.045,37.183 			"/>
			<polygon class="st7" points="41.928,36.548 40.63,37.269 40.63,37.581 41.928,36.862 			"/>
		</g>
		<g>
			<g>
				<polygon class="st55" points="33.699,10.47 33.697,10.784 32.192,11.625 32.194,11.311 				"/>
			</g>
			<g>
				<polygon class="st56" points="33.699,10.47 32.194,11.311 30.679,10.47 32.184,9.63 				"/>
			</g>
			<g>
				<polygon class="st57" points="32.192,11.625 32.194,11.311 30.679,10.47 30.676,10.784 				"/>
			</g>
		</g>
		<g id="smEmeo.tif">
			<g>
				<path class="st58" d="M39.807,19.387c0.022,0.035,0.047,0.069,0.065,0.106c0.059,0.119,0.043,0.247-0.035,0.287
					c-0.075,0.039-0.175-0.02-0.233-0.138c-0.059-0.118-0.045-0.248,0.032-0.289c0.02-0.011,0.042-0.017,0.063-0.025
					C39.735,19.348,39.771,19.368,39.807,19.387z"/>
				<path class="st58" d="M40.962,21.839c-0.048,0.068-0.108,0.104-0.199,0.046c-0.072-0.046-0.13-0.153-0.138-0.245
					c-0.008-0.098,0.039-0.173,0.111-0.176c0.073-0.003,0.153,0.061,0.198,0.162c0.014,0.032,0.024,0.066,0.036,0.1
					C40.969,21.764,40.965,21.802,40.962,21.839z"/>
				<path class="st58" d="M38.461,20.112c0.096,0.052,0.163,0.183,0.152,0.301c-0.01,0.113-0.091,0.162-0.184,0.112
					c-0.092-0.049-0.165-0.192-0.154-0.304C38.286,20.111,38.368,20.062,38.461,20.112z"/>
				<path class="st58" d="M39.66,20.49c-0.095-0.053-0.161-0.187-0.148-0.303c0.012-0.109,0.098-0.158,0.187-0.108
					c0.089,0.05,0.159,0.187,0.15,0.297C39.841,20.491,39.755,20.543,39.66,20.49z"/>
				<path class="st58" d="M39.606,21.212c-0.093-0.049-0.16-0.176-0.153-0.29c0.007-0.117,0.09-0.174,0.184-0.124
					c0.092,0.048,0.165,0.191,0.154,0.303C39.78,21.211,39.698,21.261,39.606,21.212z"/>
				<path class="st58" d="M39.395,21.632c0.011-0.112,0.091-0.161,0.184-0.111c0.095,0.051,0.165,0.189,0.153,0.301
					c-0.011,0.109-0.096,0.16-0.186,0.112C39.453,21.884,39.384,21.747,39.395,21.632z"/>
				<path class="st58" d="M39.196,22.163c-0.009,0.119-0.092,0.172-0.185,0.12c-0.091-0.051-0.16-0.184-0.151-0.293
					c0.009-0.116,0.094-0.171,0.186-0.12C39.135,21.919,39.204,22.054,39.196,22.163z"/>
				<path class="st58" d="M39.525,22.243c0.091,0.051,0.159,0.183,0.15,0.295c-0.009,0.112-0.099,0.167-0.19,0.115
					c-0.09-0.051-0.157-0.185-0.148-0.296C39.346,22.24,39.429,22.19,39.525,22.243z"/>
				<path class="st58" d="M40.353,20.01c-0.01,0.118-0.094,0.171-0.187,0.119c-0.087-0.049-0.158-0.19-0.151-0.298
					c0.008-0.113,0.096-0.166,0.189-0.113C40.298,19.77,40.363,19.898,40.353,20.01z"/>
				<path class="st58" d="M40.191,21.528c-0.095-0.054-0.161-0.187-0.147-0.303c0.012-0.109,0.097-0.157,0.188-0.106
					c0.089,0.051,0.159,0.189,0.15,0.297C40.373,21.529,40.285,21.58,40.191,21.528z"/>
				<path class="st58" d="M40.124,22.674c-0.009,0.112-0.089,0.162-0.182,0.113c-0.097-0.051-0.165-0.182-0.156-0.298
					c0.009-0.108,0.094-0.162,0.184-0.114C40.066,22.425,40.133,22.556,40.124,22.674z"/>
				<path class="st58" d="M39.231,20.479c-0.098-0.051-0.164-0.179-0.154-0.298c0.009-0.113,0.089-0.165,0.181-0.118
					c0.092,0.046,0.164,0.188,0.156,0.302C39.405,20.478,39.325,20.528,39.231,20.479z"/>
				<path class="st58" d="M39.199,20.782c-0.01,0.113-0.09,0.162-0.183,0.113c-0.095-0.05-0.165-0.188-0.155-0.301
					c0.01-0.109,0.095-0.161,0.185-0.114C39.14,20.529,39.209,20.667,39.199,20.782z"/>
				<path class="st58" d="M39.146,21.496c-0.097-0.052-0.162-0.182-0.151-0.3c0.011-0.111,0.093-0.161,0.184-0.113
					c0.091,0.049,0.163,0.192,0.152,0.304C39.32,21.499,39.24,21.546,39.146,21.496z"/>
				<path class="st58" d="M40.745,20.6c-0.009,0.12-0.088,0.172-0.184,0.12c-0.093-0.05-0.161-0.178-0.154-0.29
					c0.007-0.116,0.092-0.17,0.186-0.12C40.685,20.359,40.753,20.488,40.745,20.6z"/>
				<path class="st58" d="M38.647,21.699c-0.095-0.052-0.158-0.175-0.15-0.29c0.009-0.119,0.088-0.168,0.187-0.114
					c0.093,0.051,0.16,0.18,0.152,0.292C38.828,21.702,38.743,21.752,38.647,21.699z"/>
				<path class="st58" d="M38.455,21.104c-0.094-0.05-0.16-0.174-0.152-0.289c0.008-0.121,0.086-0.171,0.184-0.119
					c0.094,0.051,0.165,0.188,0.154,0.3C38.631,21.106,38.548,21.153,38.455,21.104z"/>
				<path class="st58" d="M38.576,20.044c-0.098-0.052-0.164-0.181-0.153-0.3c0.01-0.111,0.094-0.161,0.185-0.11
					c0.091,0.051,0.16,0.187,0.151,0.296C38.751,20.042,38.668,20.093,38.576,20.044z"/>
				<path class="st58" d="M39.274,19.637c-0.095-0.05-0.165-0.183-0.155-0.298c0.009-0.109,0.092-0.159,0.184-0.111
					c0.097,0.052,0.164,0.181,0.154,0.298C39.448,19.637,39.368,19.686,39.274,19.637z"/>
				<path class="st58" d="M40.938,21.204c-0.01,0.118-0.091,0.165-0.189,0.109c-0.092-0.053-0.156-0.18-0.146-0.293
					c0.01-0.116,0.094-0.166,0.189-0.111C40.884,20.962,40.948,21.092,40.938,21.204z"/>
				<path class="st58" d="M40.341,22.687c-0.093-0.05-0.16-0.179-0.151-0.291c0.01-0.118,0.092-0.17,0.188-0.116
					c0.09,0.05,0.158,0.187,0.148,0.297C40.515,22.688,40.434,22.737,40.341,22.687z"/>
				<path class="st58" d="M40.644,22.378c-0.099-0.051-0.165-0.176-0.156-0.297c0.008-0.112,0.09-0.165,0.181-0.117
					c0.089,0.047,0.159,0.18,0.153,0.294C40.816,22.372,40.737,22.425,40.644,22.378z"/>
				<path class="st58" d="M38.869,19.733c-0.091-0.05-0.156-0.18-0.147-0.293c0.009-0.114,0.087-0.162,0.182-0.112
					c0.095,0.05,0.164,0.187,0.152,0.3C39.043,19.738,38.962,19.784,38.869,19.733z"/>
				<path class="st58" d="M40.06,20.922c-0.092-0.051-0.155-0.178-0.145-0.293c0.01-0.113,0.091-0.164,0.182-0.114
					c0.094,0.051,0.163,0.189,0.15,0.303C40.235,20.929,40.154,20.974,40.06,20.922z"/>
				<path class="st58" d="M39.979,21.944c-0.09-0.05-0.155-0.181-0.146-0.294c0.009-0.117,0.085-0.164,0.181-0.112
					c0.097,0.053,0.164,0.184,0.151,0.3C40.153,21.95,40.072,21.996,39.979,21.944z"/>
			</g>
		</g>
		<g>
			<path class="st59" d="M27.191,34.931c-0.441-0.065-0.864-0.21-1.171-0.493c-0.439-0.404-0.572-1.016-0.396-1.82
				c0.129-0.589,0.466-1.028,1.002-1.305c0.839-0.433,2.146-0.464,3.883-0.092c1.278,0.274,2.332,0.677,2.343,0.681
				c0.08,0.031,0.12,0.119,0.087,0.197c-0.032,0.078-0.123,0.115-0.204,0.084c-0.041-0.016-4.107-1.56-5.961-0.602
				c-0.456,0.236-0.732,0.595-0.843,1.1c-0.152,0.694-0.049,1.212,0.305,1.539c0.878,0.808,3.298,0.235,3.319,0.229
				c0.084-0.021,0.17,0.028,0.191,0.108c0.022,0.081-0.029,0.163-0.113,0.184C29.568,34.757,28.19,35.077,27.191,34.931z"/>
		</g>
		<g>
			<path class="st60" d="M28.093,36.044c-0.438,0.084-0.886,0.087-1.276-0.078c-0.556-0.235-0.899-0.767-1.02-1.58
				c-0.089-0.596,0.072-1.119,0.477-1.555c0.634-0.683,1.851-1.142,3.615-1.364c1.298-0.163,2.432-0.131,2.444-0.131
				c0.087,0.003,0.155,0.072,0.152,0.156c-0.003,0.083-0.075,0.149-0.162,0.146c-0.044-0.001-4.414-0.115-5.816,1.394
				c-0.345,0.371-0.476,0.8-0.4,1.311c0.104,0.702,0.385,1.155,0.835,1.345c1.112,0.471,3.182-0.864,3.201-0.876
				c0.071-0.047,0.169-0.03,0.218,0.039c0.049,0.069,0.031,0.163-0.04,0.21C30.265,35.1,29.084,35.853,28.093,36.044z"/>
		</g>
	</g>
</g>
</svg>
