<?xml version="1.0" encoding="utf-8"?>
<!-- Generator: Adobe Illustrator 25.4.1, SVG Export Plug-In . SVG Version: 6.00 Build 0)  -->
<svg version="1.1" id="Layer_1" xmlns="http://www.w3.org/2000/svg" xmlns:xlink="http://www.w3.org/1999/xlink" x="0px" y="0px"
	 viewBox="0 0 50 50" style="enable-background:new 0 0 50 50;" xml:space="preserve">
<style type="text/css">
	.st0{opacity:0.42;fill:#C0C1C1;enable-background:new    ;}
	.st1{fill-rule:evenodd;clip-rule:evenodd;fill:#FFE2B4;}
	.st2{fill-rule:evenodd;clip-rule:evenodd;fill:#96897B;}
	.st3{fill-rule:evenodd;clip-rule:evenodd;fill:#FFFFFF;}
	.st4{fill-rule:evenodd;clip-rule:evenodd;fill:#999999;}
	.st5{fill-rule:evenodd;clip-rule:evenodd;fill:#CCCCCC;}
	.st6{fill-rule:evenodd;clip-rule:evenodd;fill:#F5F0DA;}
	.st7{fill-rule:evenodd;clip-rule:evenodd;fill:#B2A081;}
	.st8{fill-rule:evenodd;clip-rule:evenodd;fill:#4A4334;}
	.st9{fill:#F2F0ED;}
	.st10{fill:#DEDEDE;}
	.st11{enable-background:new    ;}
	.st12{fill:#202225;}
	.st13{fill:#2B2D30;}
	.st14{fill:#191A1C;}
	.st15{fill:#CDCDCD;}
	.st16{fill:#9FA2A9;}
	.st17{fill:#646464;}
	.st18{fill:#7C7C7C;}
	.st19{fill:#A8A8A8;}
	.st20{fill:#282A2E;}
	.st21{fill:#35373C;}
	.st22{fill:#1B1C1E;}
	.st23{fill:#222326;}
	.st24{fill:#1F2023;}
	.st25{fill:#323439;}
	.st26{fill:#F0F0F0;}
	.st27{fill:#CBCBCB;}
	.st28{clip-path:url(#SVGID_00000082334204878050389120000017625492030869676673_);enable-background:new    ;}
	.st29{fill:#232528;}
	.st30{clip-path:url(#SVGID_00000088108001658990018840000017529684953150541190_);enable-background:new    ;}
	.st31{clip-path:url(#SVGID_00000057108096985743450210000001364999354893789328_);enable-background:new    ;}
	.st32{fill:#1E1F22;}
	.st33{clip-path:url(#SVGID_00000010996377535952961320000006489903938740058254_);enable-background:new    ;}
	.st34{fill:#EEEEEE;}
	.st35{fill:#45464A;}
	.st36{fill:#FFFFFF;}
	.st37{fill:#4A4E57;}
	.st38{fill:#393C41;}
	.st39{fill:#1B2029;}
	.st40{fill:#0D0F0E;}
	.st41{fill:#322F34;}
	.st42{fill:#EA6060;}
	.st43{clip-path:url(#SVGID_00000127727677272841491090000006902127734863795848_);}
	.st44{clip-path:url(#SVGID_00000149340863442089010200000015199996142393114552_);}
	.st45{fill:#FDB013;}
	.st46{fill:#E7E8E8;}
	.st47{opacity:0.1;}
	.st48{fill:#312E33;}
	.st49{clip-path:url(#SVGID_00000049903420969526893900000010700063829107438233_);}
	.st50{fill:#1774A2;}
	.st51{fill:#2D9DD5;}
	.st52{clip-path:url(#SVGID_00000155868928967696379870000011117008876640630677_);}
	.st53{fill:#1E8AC2;}
	.st54{opacity:0.2;fill:#F2F0ED;enable-background:new    ;}
	.st55{fill-rule:evenodd;clip-rule:evenodd;fill:#333333;}
	.st56{fill:#CCCCCC;}
	.st57{fill:#DEDFE0;}
	.st58{fill:#999999;}
	.st59{fill:#B2A081;}
	.st60{fill:#FF3D09;}
	.st61{fill:#4FFF40;}
</style>
<g>
	<path class="st0" d="M22.067,48.272L2.461,37.112c-0.042-0.019,23.448-12.8,23.49-12.781l19.606,11.16
		c0.042,0.019,0.057,0.044,0.034,0.057L22.185,48.283C22.162,48.296,22.109,48.29,22.067,48.272z"/>
	<g>
		<polygon class="st1" points="6.012,15.416 6.582,15.732 21.04,7.682 21.041,7.078 		"/>
		<polygon class="st1" points="25.187,20.863 5.424,31.826 5.424,16.979 25.187,6.016 		"/>
		<polygon class="st2" points="25.187,6.016 5.424,16.979 5.424,16.375 25.187,5.411 		"/>
		<polygon class="st3" points="5.424,36.446 18.382,43.635 18.393,43.629 38.72,32.347 28.866,26.879 28.855,26.885 25.757,25.166 
					"/>
		<g>
			<path class="st3" d="M10.72,24.947v-8.831c0-0.129,0.11-0.295,0.245-0.369l12.258-6.702c0.135-0.074,0.245-0.028,0.245,0.101
				v8.831c0,0.129-0.11,0.295-0.245,0.369l-12.258,6.702C10.83,25.122,10.72,25.076,10.72,24.947z"/>
			<g>
				<path class="st4" d="M23.223,18.345c0.135-0.073,0.245-0.24,0.245-0.369V9.145c0-0.129-0.11-0.175-0.245-0.101l-0.245,0.134
					v8.328c0,0.129-0.11,0.295-0.245,0.369L23.223,18.345z"/>
			</g>
			<path class="st5" d="M22.733,17.875L10.72,24.444v0.503c0,0.129,0.11,0.175,0.245,0.101l12.258-6.702L22.733,17.875z"/>
		</g>
		<polygon class="st6" points="3.88,15.52 5.424,16.375 6.582,15.732 6.012,15.416 9.489,13.487 10.059,13.803 11.218,13.16 
			10.648,12.844 11.806,12.201 12.377,12.518 13.536,11.875 12.965,11.558 14.124,10.915 14.694,11.232 15.853,10.589 
			15.283,10.272 16.442,9.63 17.012,9.946 18.171,9.303 17.601,8.987 18.723,8.364 19.292,8.679 20.451,8.036 19.882,7.721 
			21.041,7.078 21.61,7.394 25.757,5.095 24.214,4.24 		"/>
		<g>
			<polygon class="st1" points="20.451,8.036 19.292,8.679 19.292,9.284 20.451,8.641 			"/>
			<polygon class="st1" points="18.171,9.303 17.012,9.946 17.012,10.55 18.171,9.908 			"/>
			<polygon class="st1" points="15.853,10.589 14.694,11.232 14.694,11.836 15.853,11.193 			"/>
			<polygon class="st1" points="13.536,11.875 12.377,12.518 12.377,13.122 13.536,12.479 			"/>
			<polygon class="st1" points="11.218,13.16 10.059,13.803 10.059,14.408 11.218,13.765 			"/>
		</g>
		<g>
			<polygon class="st7" points="21.61,7.394 21.04,7.077 21.04,7.682 21.61,7.998 			"/>
			<polygon class="st7" points="19.292,8.679 18.722,8.363 18.722,8.967 19.292,9.284 			"/>
			<polygon class="st7" points="17.012,9.946 16.442,9.63 16.442,10.234 17.012,10.55 			"/>
			<polygon class="st7" points="14.694,11.232 14.124,10.915 14.124,11.52 14.694,11.836 			"/>
			<polygon class="st7" points="12.377,12.518 11.806,12.201 11.806,12.806 12.377,13.122 			"/>
			<polygon class="st7" points="10.059,13.803 9.489,13.487 9.489,14.091 10.059,14.408 			"/>
			<polygon class="st7" points="3.88,15.52 3.88,16.124 3.88,30.971 5.424,31.826 5.424,16.979 5.424,16.375 			"/>
		</g>
		<g>
			<g>
				<polygon class="st1" points="25.19,12.858 25.76,12.542 25.76,11.196 25.19,11.513 				"/>
				<g>
					<polygon class="st1" points="21.61,7.394 21.61,7.998 25.187,6.016 25.187,5.411 					"/>
					<polygon class="st1" points="25.757,5.095 25.187,5.411 25.19,10.167 25.759,9.851 					"/>
				</g>
				<polygon class="st1" points="25.759,13.844 25.189,14.161 25.189,15.506 25.759,15.19 				"/>
				<polygon class="st1" points="25.76,16.535 25.19,16.851 25.19,18.197 25.76,17.88 				"/>
				<polygon class="st1" points="25.76,19.226 25.19,19.542 25.187,20.863 25.757,20.546 				"/>
			</g>
			<polygon class="st6" points="25.19,11.513 25.76,11.196 25.187,10.916 			"/>
			<polygon class="st6" points="25.189,14.161 25.759,13.844 25.186,13.564 			"/>
			<polygon class="st6" points="25.19,16.851 25.76,16.535 25.186,16.255 			"/>
			<polygon class="st6" points="25.19,19.542 25.76,19.226 25.187,18.945 			"/>
		</g>
		<g>
			<polygon class="st1" points="5.42,16.979 5.423,21.128 5.993,20.812 5.99,16.665 6.582,16.336 6.582,15.732 5.424,16.375 
				5.424,16.977 			"/>
			<polygon class="st1" points="5.424,23.819 5.994,23.503 5.993,22.157 5.423,22.474 			"/>
			<polygon class="st1" points="5.993,24.848 5.423,25.165 5.424,26.51 5.994,26.194 			"/>
			<polygon class="st1" points="5.993,27.496 5.423,27.813 5.424,29.158 5.994,28.842 			"/>
			<polygon class="st1" points="5.994,30.187 5.424,30.503 5.42,31.824 5.99,31.508 			"/>
		</g>
		<g>
			<polygon class="st1" points="5.423,22.474 5.424,21.128 4.854,20.812 4.854,22.157 			"/>
			<polygon class="st1" points="5.423,25.165 5.424,23.819 4.854,23.503 4.854,24.848 			"/>
			<polygon class="st1" points="5.423,26.467 4.853,26.151 4.853,27.496 5.423,27.813 			"/>
			<polygon class="st1" points="4.854,28.842 4.853,30.187 5.423,30.503 5.424,29.158 			"/>
		</g>
		<g>
			<polygon class="st6" points="5.423,22.474 5.993,22.157 5.423,21.841 4.854,22.157 			"/>
			<polygon class="st6" points="5.423,24.532 4.854,24.848 5.423,25.165 5.993,24.848 			"/>
			<polygon class="st6" points="5.423,27.18 4.853,27.496 5.423,27.813 5.993,27.496 			"/>
			<polygon class="st6" points="5.424,29.871 4.854,30.187 5.424,30.503 5.994,30.187 			"/>
		</g>
		<g>
			<polygon class="st7" points="25.757,25.166 38.715,32.355 38.715,27.735 25.757,20.546 			"/>
			<polygon class="st6" points="38.715,27.735 39.285,27.419 26.326,20.23 25.757,20.546 			"/>
			<polygon class="st1" points="39.285,27.419 38.715,27.735 38.715,32.355 39.285,32.038 			"/>
		</g>
		<polygon class="st6" points="5.993,32.143 26.326,20.863 25.757,20.546 5.424,31.826 		"/>
		<polygon class="st1" points="26.326,20.863 5.993,32.143 5.993,36.762 26.326,25.482 		"/>
		<polygon class="st7" points="21.633,22.329 20.474,22.972 20.474,23.467 21.633,22.824 		"/>
		<g>
			<polygon class="st2" points="21.17,22.586 20.474,22.972 20.474,23.467 21.633,22.824 			"/>
			<polygon class="st8" points="21.17,22.586 21.633,22.329 21.633,22.824 			"/>
		</g>
		<g>
			<polygon class="st2" points="17.817,24.456 17.121,24.842 17.121,25.337 18.28,24.694 			"/>
			<polygon class="st8" points="17.817,24.456 18.28,24.199 18.28,24.694 			"/>
		</g>
		<g>
			<polygon class="st2" points="15.261,25.874 14.565,26.26 14.565,26.755 15.724,26.112 			"/>
			<polygon class="st8" points="15.261,25.874 15.724,25.617 15.724,26.112 			"/>
		</g>
		<g>
			<polygon class="st2" points="11.004,28.234 10.308,28.62 10.308,29.116 11.467,28.473 			"/>
			<polygon class="st8" points="11.004,28.234 11.467,27.977 11.467,28.473 			"/>
		</g>
		<g>
			<polygon class="st7" points="21.481,44.519 18.379,42.798 18.379,43.59 21.481,45.312 			"/>
			<g>
				<polygon class="st6" points="21.474,44.515 21.294,44.615 22.039,45.028 42.733,33.547 41.988,33.133 41.804,33.235 
					38.71,31.518 18.382,42.8 				"/>
				<polygon class="st1" points="42.733,33.547 22.039,45.028 22.039,45.816 42.733,34.334 				"/>
				<polygon class="st7" points="22.039,45.028 21.293,44.615 21.293,45.402 22.039,45.816 				"/>
			</g>
		</g>
		<g>
			<g>
				<g>
					<polygon class="st9" points="28.576,31.926 28.81,31.796 29.185,32.004 28.951,32.134 					"/>
				</g>
				<polygon class="st10" points="28.576,31.926 28.632,32.061 28.951,32.238 28.951,32.134 				"/>
				<g>
					<g class="st11">
						<g>
							<polygon class="st12" points="30.145,33.884 30.149,34.213 27.995,33.01 27.991,32.681 							"/>
						</g>
						<g>
							<polygon class="st13" points="35.21,31.072 35.214,31.4 30.149,34.213 30.145,33.884 							"/>
						</g>
						<g>
							<polygon class="st14" points="33.055,29.869 35.21,31.072 30.145,33.884 27.991,32.681 							"/>
						</g>
					</g>
				</g>
				<g>
					<g class="st11">
						<g>
							<polygon class="st15" points="27.161,32.333 27.77,31.993 28.087,32.17 27.479,32.509 							"/>
						</g>
						<g>
							<polygon class="st16" points="27.479,32.509 28.087,32.17 28.665,31.953 28.056,32.293 							"/>
						</g>
						<g>
							<polygon class="st15" points="28.47,32.522 29.078,32.182 29.078,32.234 28.469,32.574 							"/>
						</g>
						<g>
							<polygon class="st15" points="28.056,32.293 28.665,31.953 29.078,32.182 28.47,32.522 							"/>
						</g>
						<g>
							<polygon class="st15" points="28.47,32.522 28.469,32.574 28.073,32.354 27.496,32.571 27.161,32.385 27.161,32.333 
								27.479,32.509 28.056,32.293 							"/>
						</g>
					</g>
				</g>
				<g>
					<g class="st11">
						<g>
							<polygon class="st15" points="28.42,31.632 29.029,31.293 29.346,31.469 28.738,31.809 							"/>
						</g>
						<g>
							<polygon class="st17" points="28.738,31.809 29.346,31.469 29.924,31.252 29.315,31.592 							"/>
						</g>
						<g>
							<polygon class="st15" points="29.729,31.821 30.337,31.482 30.337,31.534 29.728,31.873 							"/>
						</g>
						<g>
							<polygon class="st18" points="29.315,31.592 29.924,31.252 30.337,31.482 29.729,31.821 							"/>
						</g>
						<g>
							<polygon class="st19" points="29.729,31.821 29.728,31.873 29.332,31.654 28.755,31.87 28.42,31.685 28.42,31.632 
								28.738,31.809 29.315,31.592 							"/>
						</g>
					</g>
				</g>
				<g>
					<g class="st11">
						<g>
							<polygon class="st15" points="29.655,30.947 30.264,30.607 30.582,30.784 29.973,31.123 							"/>
						</g>
						<g>
							<polygon class="st17" points="29.973,31.123 30.582,30.784 31.159,30.567 30.551,30.907 							"/>
						</g>
						<g>
							<polygon class="st15" points="30.964,31.136 31.572,30.796 31.572,30.848 30.964,31.188 							"/>
						</g>
						<g>
							<polygon class="st18" points="30.551,30.907 31.159,30.567 31.572,30.796 30.964,31.136 							"/>
						</g>
						<g>
							<polygon class="st19" points="30.964,31.136 30.964,31.188 30.568,30.968 29.99,31.185 29.655,30.999 29.655,30.947 
								29.973,31.123 30.551,30.907 							"/>
						</g>
					</g>
				</g>
				<g>
					<g class="st11">
						<g>
							<polygon class="st15" points="30.939,30.282 31.548,29.943 31.865,30.119 31.257,30.459 							"/>
						</g>
						<g>
							<polygon class="st17" points="31.257,30.459 31.865,30.119 32.443,29.903 31.835,30.242 							"/>
						</g>
						<g>
							<polygon class="st15" points="32.248,30.471 32.856,30.132 32.856,30.184 32.248,30.523 							"/>
						</g>
						<g>
							<polygon class="st18" points="31.835,30.242 32.443,29.903 32.856,30.132 32.248,30.471 							"/>
						</g>
						<g>
							<polygon class="st19" points="32.248,30.471 32.248,30.523 31.852,30.304 31.274,30.52 30.939,30.335 30.939,30.282 
								31.257,30.459 31.835,30.242 							"/>
						</g>
					</g>
				</g>
				<g>
					<g class="st11">
						<g>
							<polygon class="st15" points="32.068,29.676 32.677,29.337 32.994,29.513 32.386,29.853 							"/>
						</g>
						<g>
							<polygon class="st19" points="33.377,29.865 33.376,29.917 32.981,29.698 32.403,29.914 32.068,29.728 32.068,29.676 
								32.386,29.853 32.963,29.636 							"/>
						</g>
					</g>
				</g>
				<g>
					<g class="st11">
						<g>
							<polygon class="st9" points="33.986,31.433 34.594,31.094 35.007,31.323 34.399,31.663 							"/>
						</g>
						<g>
							<polygon class="st15" points="34.399,31.663 35.007,31.323 35.582,32.179 34.973,32.518 							"/>
						</g>
						<g>
							<polygon class="st9" points="34.973,32.518 35.582,32.179 35.9,32.355 35.291,32.695 							"/>
						</g>
						<g>
							<polygon class="st15" points="35.291,32.695 35.9,32.355 35.9,32.407 35.291,32.747 							"/>
						</g>
						<g>
							<polygon class="st15" points="34.399,31.663 34.973,32.518 35.291,32.695 35.291,32.747 34.956,32.561 34.382,31.705 
								33.986,31.485 33.986,31.433 							"/>
						</g>
					</g>
				</g>
				<g>
					<g class="st11">
						<g>
							<polygon class="st9" points="32.742,32.124 33.35,31.784 33.763,32.013 33.155,32.353 							"/>
						</g>
						<g>
							<polygon class="st15" points="33.155,32.353 33.763,32.013 34.338,32.869 33.73,33.209 							"/>
						</g>
						<g>
							<polygon class="st9" points="33.73,33.209 34.338,32.869 34.656,33.045 34.047,33.385 							"/>
						</g>
						<g>
							<polygon class="st15" points="34.047,33.385 34.656,33.045 34.656,33.097 34.047,33.437 							"/>
						</g>
						<g>
							<polygon class="st15" points="33.155,32.353 33.73,33.209 34.047,33.385 34.047,33.437 33.712,33.251 33.138,32.395 
								32.742,32.176 32.742,32.124 							"/>
						</g>
					</g>
				</g>
				<g>
					<g class="st11">
						<g>
							<polygon class="st9" points="31.498,32.814 32.106,32.474 32.519,32.703 31.911,33.043 							"/>
						</g>
						<g>
							<polygon class="st15" points="31.911,33.043 32.519,32.703 33.094,33.559 32.485,33.899 							"/>
						</g>
						<g>
							<polygon class="st9" points="32.485,33.899 33.094,33.559 33.412,33.735 32.803,34.075 							"/>
						</g>
						<g>
							<polygon class="st15" points="32.803,34.075 33.412,33.735 33.411,33.787 32.803,34.127 							"/>
						</g>
						<g>
							<polygon class="st15" points="31.911,33.043 32.485,33.899 32.803,34.075 32.803,34.127 32.468,33.941 31.893,33.085 
								31.497,32.866 31.498,32.814 							"/>
						</g>
					</g>
				</g>
				<g>
					<g class="st11">
						<g>
							<polygon class="st9" points="30.247,33.507 30.856,33.167 31.269,33.397 30.66,33.736 							"/>
						</g>
						<g>
							<polygon class="st15" points="30.66,33.736 31.269,33.397 31.843,34.252 31.235,34.592 							"/>
						</g>
						<g>
							<polygon class="st9" points="31.235,34.592 31.843,34.252 32.161,34.429 31.553,34.768 							"/>
						</g>
						<g>
							<polygon class="st15" points="31.553,34.768 32.161,34.429 32.161,34.481 31.553,34.82 							"/>
						</g>
						<g>
							<polygon class="st15" points="30.66,33.736 31.235,34.592 31.553,34.768 31.553,34.82 31.218,34.635 30.643,33.779 
								30.247,33.559 30.247,33.507 							"/>
						</g>
					</g>
				</g>
				<g>
					<g class="st11">
						<g>
							<polygon class="st12" points="30.124,32.94 30.128,33.718 28.325,32.711 28.321,31.934 							"/>
						</g>
						<g>
							<polygon class="st20" points="34.922,30.279 34.925,31.056 30.128,33.718 30.124,32.94 							"/>
						</g>
						<g>
							<polygon class="st21" points="33.119,29.272 34.922,30.279 30.124,32.94 28.321,31.934 							"/>
						</g>
						<g>
							<path class="st15" d="M28.923,31.851l4.032-2.236l0.014-0.008l1.35,0.754l-4.032,2.236l-0.014,0.008L28.923,31.851z
								 M32.969,29.668l-3.937,2.183l1.241,0.693l3.937-2.183L32.969,29.668z"/>
						</g>
					</g>
				</g>
			</g>
			<g>
				<polygon class="st10" points="30.862,31.077 33.102,29.835 33.59,30.105 31.349,31.348 				"/>
				<polygon class="st10" points="29.367,31.907 30.174,31.459 30.662,31.729 29.855,32.177 				"/>
				<polygon class="st10" points="30.454,31.442 30.809,31.245 31.048,31.377 30.692,31.574 				"/>
			</g>
		</g>
		<g>
			<g>
				<g class="st11">
					<g>
						<polygon class="st22" points="32.986,27.33 32.987,27.896 32.98,29.169 32.978,28.604 						"/>
					</g>
					<g>
						<polygon class="st23" points="25.168,31.666 25.17,32.232 19.684,29.169 19.682,28.603 						"/>
					</g>
					<g>
						<polygon class="st22" points="32.978,28.604 32.98,29.169 27.458,32.232 27.457,31.666 						"/>
					</g>
					<g>
						<polygon class="st24" points="27.457,31.666 27.458,32.232 25.17,32.232 25.168,31.666 						"/>
					</g>
					<g>
						<polygon class="st14" points="25.211,24.267 27.5,24.267 32.986,27.33 32.978,28.604 27.457,31.666 25.168,31.666 
							19.682,28.603 19.69,27.33 						"/>
					</g>
				</g>
			</g>
			<g>
				<g class="st11">
					<g>
						<polygon class="st22" points="32.986,26.799 32.987,27.365 32.98,28.421 32.978,28.073 						"/>
					</g>
					<g>
						<polygon class="st23" points="25.168,31.136 25.17,31.484 19.684,28.421 19.682,28.073 						"/>
					</g>
					<g>
						<polygon class="st22" points="32.978,28.073 32.98,28.421 27.458,31.484 27.457,31.136 						"/>
					</g>
					<g>
						<polygon class="st24" points="27.457,31.136 27.458,31.484 25.17,31.484 25.168,31.136 						"/>
					</g>
					<g>
						<polygon class="st25" points="25.211,23.736 27.5,23.736 32.986,26.799 32.978,28.073 27.457,31.136 25.168,31.136 
							19.682,28.073 19.69,26.799 						"/>
						<g>
							<path class="st20" d="M25.276,30.751l-5.191-2.899l0.005-0.829l5.229-2.901h2.073l5.191,2.899l-0.005,0.829l-5.229,2.901
								h-0.043H25.276z M32.261,27.197l-4.956-2.767h-1.9l-4.995,2.771l-0.003,0.474l4.956,2.767h1.9l4.995-2.771L32.261,27.197z"/>
						</g>
					</g>
				</g>
			</g>
		</g>
		<g>
			<g>
				<g class="st11">
					<g>
						<polygon class="st20" points="21.582,33.889 21.574,35.138 25.397,33.004 25.405,31.754 						"/>
					</g>
					<g>
						<polygon class="st12" points="15.305,30.407 15.298,31.656 21.574,35.138 21.582,33.889 						"/>
					</g>
					<g>
						<polygon class="st21" points="19.128,28.272 15.305,30.407 21.582,33.889 25.405,31.754 						"/>
					</g>
				</g>
			</g>
			<g>
				<g class="st11">
					<g>
						<polygon class="st10" points="21.514,33.148 21.508,33.58 24.77,31.758 24.776,31.327 						"/>
					</g>
					<g>
						<polygon class="st10" points="16.159,30.177 16.153,30.609 21.508,33.58 21.514,33.148 						"/>
					</g>
					<g>
						<polygon class="st9" points="19.421,28.356 16.159,30.177 21.514,33.148 24.776,31.327 						"/>
					</g>
				</g>
			</g>
			<g>
				<g class="st11">
					<g>
						<polygon class="st10" points="23.717,34.443 24.669,33.905 24.669,33.975 23.717,34.513 						"/>
					</g>
					<g>
						<polygon class="st26" points="23.266,34.193 24.218,33.654 24.669,33.905 23.717,34.443 						"/>
					</g>
					<g>
						<polygon class="st10" points="23.272,33.221 24.224,32.682 24.218,33.654 23.266,34.193 						"/>
					</g>
					<g>
						<polygon class="st26" points="23.209,33.185 24.161,32.647 24.224,32.682 23.272,33.221 						"/>
					</g>
					<g>
						<polygon class="st27" points="23.272,33.221 23.266,34.193 23.717,34.443 23.717,34.513 23.202,34.228 23.209,33.185 						
							"/>
					</g>
				</g>
			</g>
			<g>
				<polygon class="st21" points="24.031,31.294 21.213,29.731 20.654,30.042 23.472,31.605 				"/>
				<polygon class="st21" points="23.278,31.713 20.46,30.149 20.126,30.334 22.944,31.898 				"/>
				<polygon class="st21" points="22.137,32.346 19.318,30.782 18.985,30.967 21.803,32.531 				"/>
				<g>
					<polygon class="st21" points="21.062,31.116 19.889,30.466 19.555,30.651 20.728,31.301 					"/>
					<polygon class="st21" points="22.707,32.029 21.534,31.379 21.201,31.564 22.373,32.214 					"/>
				</g>
			</g>
			<g>
				<polygon class="st10" points="19.534,28.656 19.881,28.849 17.108,30.387 16.761,30.195 				"/>
				<polygon class="st10" points="20.079,28.959 20.426,29.151 17.653,30.69 17.306,30.497 				"/>
			</g>
		</g>
		<g>
			<g>
				<polygon class="st20" points="20.334,35.433 20.334,34.02 14.474,37.271 14.474,38.684 				"/>
			</g>
			<g>
				<g class="st11">
					<g class="st11">
						<g>
							<defs>
								<path id="SVGID_1_" d="M20.183,34.235l-0.084,0.047c-0.068-0.038-0.13-0.041-0.175-0.016l0.084-0.047
									C20.053,34.194,20.115,34.198,20.183,34.235z"/>
							</defs>
							<clipPath id="SVGID_00000147216174079125733180000002061457128804221355_">
								<use xlink:href="#SVGID_1_"  style="overflow:visible;"/>
							</clipPath>
							<g style="clip-path:url(#SVGID_00000147216174079125733180000002061457128804221355_);enable-background:new    ;">
								<path class="st29" d="M20.1,34.282c-0.069-0.037-0.131-0.041-0.175-0.016l0.084-0.047c0.045-0.025,0.107-0.022,0.175,0.016
									L20.1,34.282L20.1,34.282z"/>
							</g>
						</g>
					</g>
					<g class="st11">
						<g>
							<defs>
								<path id="SVGID_00000178916507358055372640000015288554449288248231_" d="M20.646,34.765c0,0.089,0.066,0.199,0.147,0.244
									l-0.084,0.047c-0.082-0.045-0.147-0.154-0.147-0.244c0-0.045,0.017-0.076,0.043-0.091l0.084-0.047
									C20.662,34.689,20.646,34.72,20.646,34.765z"/>
							</defs>
							<clipPath id="SVGID_00000069372350409694678820000001085343358998678932_">
								<use xlink:href="#SVGID_00000178916507358055372640000015288554449288248231_"  style="overflow:visible;"/>
							</clipPath>
							<g style="clip-path:url(#SVGID_00000069372350409694678820000001085343358998678932_);enable-background:new    ;">
								<path class="st29" d="M20.708,35.056c-0.081-0.045-0.147-0.155-0.147-0.244c0-0.045,0.017-0.076,0.043-0.091l0.084-0.047
									c-0.026,0.015-0.043,0.046-0.043,0.091c0,0.089,0.066,0.199,0.147,0.244L20.708,35.056L20.708,35.056z"/>
							</g>
						</g>
					</g>
					<g class="st11">
						<g>
							<defs>
								<path id="SVGID_00000026860858052579274660000007840461851478884266_" d="M20.708,35.056l0.084-0.047
									c0.041,0.023,0.078,0.025,0.105,0.01l-0.084,0.047C20.786,35.081,20.749,35.079,20.708,35.056z"/>
							</defs>
							<clipPath id="SVGID_00000034079494187448225400000016763189362328302739_">
								<use xlink:href="#SVGID_00000026860858052579274660000007840461851478884266_"  style="overflow:visible;"/>
							</clipPath>
							<g style="clip-path:url(#SVGID_00000034079494187448225400000016763189362328302739_);enable-background:new    ;">
								<path class="st29" d="M20.813,35.066c-0.027,0.015-0.064,0.013-0.105-0.01l0.084-0.047c0.041,0.023,0.078,0.025,0.105,0.01
									L20.813,35.066L20.813,35.066z"/>
							</g>
						</g>
					</g>
					<g>
						<polygon class="st32" points="20.1,34.282 20.184,34.236 20.792,34.573 20.708,34.62 						"/>
					</g>
					<g class="st11">
						<g>
							<defs>
								<path id="SVGID_00000133489907205743939440000012321721922336093313_" d="M20.954,35.029c0-0.15-0.11-0.334-0.246-0.409
									l0.084-0.047c0.136,0.075,0.246,0.259,0.246,0.409c0,0.075-0.028,0.127-0.072,0.152l-0.084,0.047
									C20.926,35.156,20.954,35.104,20.954,35.029z"/>
							</defs>
							<clipPath id="SVGID_00000053514357847412854550000007467184209545261482_">
								<use xlink:href="#SVGID_00000133489907205743939440000012321721922336093313_"  style="overflow:visible;"/>
							</clipPath>
							<g style="clip-path:url(#SVGID_00000053514357847412854550000007467184209545261482_);enable-background:new    ;">
								<path class="st29" d="M20.882,35.181c0.044-0.025,0.072-0.077,0.072-0.152c0-0.15-0.11-0.334-0.246-0.409l0.084-0.047
									c0.136,0.075,0.246,0.259,0.246,0.409c0,0.075-0.028,0.127-0.072,0.152L20.882,35.181L20.882,35.181z"/>
							</g>
						</g>
					</g>
					<g>
						<path class="st21" d="M20.709,34.619c0.136,0.075,0.246,0.259,0.246,0.409c-0.001,0.15-0.112,0.211-0.248,0.136l-0.609-0.338
							c-0.136-0.075-0.246-0.259-0.246-0.409c0.001-0.149,0.112-0.21,0.248-0.135L20.709,34.619z M20.708,35.056
							c0.082,0.045,0.148,0.009,0.148-0.081c0-0.09-0.066-0.199-0.147-0.244c-0.082-0.045-0.148-0.009-0.148,0.081
							C20.561,34.901,20.627,35.011,20.708,35.056L20.708,35.056z"/>
					</g>
				</g>
			</g>
			<g>
				<g class="st11">
					<g>
						<polygon class="st34" points="15.348,34.678 16.485,34.044 16.489,32.616 15.353,33.251 						"/>
					</g>
					<g>
						<polygon class="st35" points="15.355,32.338 16.492,31.703 15.618,31.218 14.482,31.853 						"/>
					</g>
					<g>
						<polygon class="st20" points="15.353,32.336 15.353,33.251 15.348,34.678 14.475,34.194 14.482,31.853 						"/>
					</g>
				</g>
			</g>
			<g>
				<polygon class="st9" points="20.334,34.02 17.162,32.248 11.301,35.499 14.474,37.271 				"/>
			</g>
			<g>
				<g>
					<g class="st11">
						<g>
							<polygon class="st21" points="17.923,37.564 20.141,36.325 20.147,34.25 17.929,35.489 							"/>
						</g>
						<g>
							<polygon class="st35" points="17.929,35.489 20.147,34.25 19.414,33.844 17.196,35.082 							"/>
						</g>
						<g>
							<polygon class="st20" points="17.196,35.082 16.668,35.48 17.194,35.772 17.19,37.157 17.923,37.564 17.929,35.489 							
								"/>
						</g>
					</g>
				</g>
			</g>
			<polygon class="st20" points="15.886,33.547 15.353,33.251 15.353,32.336 15.355,32.338 			"/>
			<g>
				<polygon class="st21" points="15.886,33.547 17.023,32.912 16.492,31.703 15.355,32.338 				"/>
			</g>
			<g>
				<polygon class="st36" points="19.502,35 19.964,34.745 19.964,35.584 19.502,35.839 				"/>
				<polygon class="st37" points="19.914,35.556 19.914,35.556 19.553,35.755 19.553,35.532 19.713,35.444 				"/>
				<g>
					<polygon class="st38" points="19.662,34.969 19.712,34.941 19.712,35.444 19.553,35.532 19.553,35.029 					"/>
					<polygon class="st39" points="19.662,35.044 19.662,35.4 19.553,35.46 19.553,35.104 					"/>
					<polygon class="st39" points="19.914,35.556 19.713,35.444 19.713,34.941 19.914,34.83 19.914,35.333 					"/>
				</g>
			</g>
			<g>
				<polygon class="st36" points="18.804,35.39 19.266,35.135 19.266,35.973 18.804,36.229 				"/>
				<polygon class="st37" points="19.215,35.945 19.215,35.945 18.854,36.144 18.854,35.921 19.014,35.833 				"/>
				<g>
					<polygon class="st38" points="18.963,35.358 19.014,35.331 19.014,35.834 18.854,35.921 18.854,35.418 					"/>
					<polygon class="st39" points="18.963,35.434 18.963,35.79 18.854,35.849 18.854,35.493 					"/>
					<polygon class="st39" points="19.215,35.945 19.014,35.833 19.014,35.331 19.215,35.219 19.215,35.722 					"/>
				</g>
			</g>
			<g>
				<polygon class="st36" points="18.099,35.779 18.561,35.524 18.561,36.363 18.099,36.618 				"/>
				<polygon class="st37" points="18.51,36.334 18.51,36.335 18.15,36.533 18.15,36.31 18.309,36.223 				"/>
				<g>
					<polygon class="st38" points="18.259,35.748 18.309,35.72 18.309,36.223 18.15,36.31 18.15,35.807 					"/>
					<polygon class="st39" points="18.259,35.823 18.259,36.179 18.15,36.239 18.15,35.883 					"/>
					<polygon class="st39" points="18.51,36.334 18.309,36.223 18.309,35.72 18.51,35.608 18.51,36.111 					"/>
				</g>
			</g>
			<g>
				<path class="st21" d="M19.148,34.09c0.083-0.046,0.218-0.046,0.301,0c0.06,0.033,0.077,0.081,0.051,0.122
					c-0.01,0.017-0.027,0.032-0.051,0.045c-0.083,0.046-0.218,0.046-0.301,0c-0.024-0.013-0.041-0.029-0.051-0.045
					C19.071,34.171,19.088,34.123,19.148,34.09z"/>
				<path class="st40" d="M19.148,34.167c0.083-0.046,0.218-0.046,0.301,0c0.024,0.013,0.041,0.029,0.051,0.045
					c-0.01,0.017-0.027,0.032-0.051,0.045c-0.083,0.046-0.218,0.046-0.301,0c-0.024-0.013-0.041-0.029-0.051-0.045
					C19.107,34.195,19.124,34.18,19.148,34.167z"/>
			</g>
			<g>
				<path class="st21" d="M18.411,34.499c0.083-0.046,0.218-0.046,0.301,0c0.06,0.033,0.077,0.081,0.051,0.122
					c-0.01,0.017-0.027,0.032-0.051,0.045c-0.083,0.046-0.218,0.046-0.301,0c-0.024-0.013-0.041-0.029-0.051-0.045
					C18.334,34.58,18.351,34.532,18.411,34.499z"/>
				<path class="st40" d="M18.411,34.576c0.083-0.046,0.218-0.046,0.301,0c0.024,0.013,0.041,0.029,0.051,0.045
					c-0.01,0.017-0.027,0.032-0.051,0.045c-0.083,0.046-0.218,0.046-0.301,0c-0.024-0.013-0.041-0.029-0.051-0.045
					C18.37,34.604,18.387,34.589,18.411,34.576z"/>
			</g>
			<g>
				<path class="st21" d="M15.198,31.918c0.083-0.046,0.218-0.046,0.301,0c0.06,0.033,0.077,0.081,0.051,0.122
					c-0.01,0.017-0.027,0.032-0.051,0.045c-0.083,0.046-0.218,0.046-0.301,0c-0.024-0.013-0.041-0.029-0.051-0.045
					C15.122,31.999,15.139,31.951,15.198,31.918z"/>
				<path class="st40" d="M15.198,31.995c0.083-0.046,0.218-0.046,0.301,0c0.024,0.013,0.041,0.029,0.051,0.045
					c-0.01,0.017-0.027,0.032-0.051,0.045c-0.083,0.046-0.218,0.046-0.301,0c-0.024-0.013-0.041-0.029-0.051-0.045
					C15.157,32.024,15.174,32.008,15.198,31.995z"/>
			</g>
			<g>
				<path class="st21" d="M17.674,34.908c0.083-0.046,0.218-0.046,0.301,0c0.06,0.033,0.077,0.081,0.051,0.122
					c-0.01,0.017-0.027,0.032-0.051,0.045c-0.083,0.046-0.218,0.046-0.301,0c-0.024-0.013-0.041-0.029-0.051-0.045
					C17.597,34.989,17.614,34.941,17.674,34.908z"/>
				<path class="st40" d="M17.674,34.985c0.083-0.046,0.218-0.046,0.301,0c0.024,0.013,0.041,0.029,0.051,0.045
					c-0.01,0.017-0.027,0.032-0.051,0.045c-0.083,0.046-0.218,0.046-0.301,0c-0.024-0.013-0.041-0.029-0.051-0.045
					C17.633,35.013,17.65,34.998,17.674,34.985z"/>
			</g>
			<g>
				<g>
					<g>
						<polygon class="st36" points="18.594,34.197 16.746,33.175 12.874,35.323 14.722,36.344 						"/>
					</g>
				</g>
				<g>
					<polygon class="st21" points="14.309,34.772 13.358,35.3 13.691,35.485 14.642,34.957 					"/>
					<polygon class="st21" points="17.228,33.649 13.805,35.548 14.139,35.733 17.562,33.834 					"/>
					<polygon class="st21" points="17.719,33.922 14.296,35.821 14.629,36.006 18.052,34.107 					"/>
					<polygon class="st21" points="16.781,33.401 14.549,34.639 14.883,34.824 17.114,33.586 					"/>
				</g>
			</g>
			<g>
				<polygon class="st22" points="14.474,38.684 14.474,37.271 11.301,35.499 11.301,36.912 				"/>
			</g>
		</g>
		<g>
			<polygon class="st7" points="4.854,36.762 17.812,43.951 17.812,39.332 4.854,32.143 			"/>
			<polygon class="st6" points="17.812,39.332 18.382,39.015 5.424,31.826 4.854,32.143 			"/>
			<polygon class="st1" points="18.382,39.015 17.812,39.332 17.812,43.951 18.382,43.635 			"/>
		</g>
		<g>
			<path class="st41" d="M12.114,34.097v-1.089c0-0.117,0.082-0.254,0.187-0.312l0.074-0.041c0.058-0.032,0.116-0.036,0.161-0.011
				s0.071,0.075,0.071,0.139v1.089c0,0.023-0.02,0.042-0.044,0.042l0,0c-0.024,0-0.044-0.019-0.044-0.042v-1.089
				c0-0.033-0.01-0.057-0.027-0.066c-0.017-0.009-0.044-0.005-0.073,0.011l-0.074,0.041c-0.077,0.044-0.143,0.153-0.143,0.239v1.089
				c0,0.023-0.02,0.042-0.044,0.042l0,0C12.134,34.139,12.114,34.12,12.114,34.097z"/>
			<g>
				<g class="st11">
					<g class="st11">
						<g>
							<path id="SVGID_00000145743112251678331730000016772732751404312489_" class="st42" d="M11.996,32.886
								c0.2,0.111,0.524,0.111,0.724,0c0.101-0.056,0.151-0.13,0.151-0.203l0.004,0.09c0,0.074-0.05,0.147-0.151,0.203
								c-0.201,0.111-0.525,0.111-0.724,0c-0.099-0.055-0.149-0.128-0.149-0.2l-0.004-0.09
								C11.847,32.759,11.897,32.831,11.996,32.886z"/>
						</g>
						<g>
							<defs>
								<path id="SVGID_00000113343486024411974960000005783858889543833252_" d="M11.996,32.886c0.2,0.111,0.524,0.111,0.724,0
									c0.101-0.056,0.151-0.13,0.151-0.203l0.004,0.09c0,0.074-0.05,0.147-0.151,0.203c-0.201,0.111-0.525,0.111-0.724,0
									c-0.099-0.055-0.149-0.128-0.149-0.2l-0.004-0.09C11.847,32.759,11.897,32.831,11.996,32.886z"/>
							</defs>
							<clipPath id="SVGID_00000071548562577545566220000001894529865634409657_">
								<use xlink:href="#SVGID_00000113343486024411974960000005783858889543833252_"  style="overflow:visible;"/>
							</clipPath>
							<g style="clip-path:url(#SVGID_00000071548562577545566220000001894529865634409657_);">
								<path class="st10" d="M11.847,32.686c0,0.073,0.05,0.145,0.149,0.2c0.066,0.037,0.146,0.062,0.231,0.074l0.004,0.09
									c-0.084-0.012-0.165-0.037-0.231-0.074c-0.099-0.055-0.149-0.128-0.149-0.2L11.847,32.686L11.847,32.686z"/>
								<path class="st10" d="M12.227,32.961c0.084,0.012,0.173,0.012,0.257,0l0.004,0.09c-0.084,0.012-0.173,0.012-0.257,0
									L12.227,32.961L12.227,32.961z"/>
								<path class="st10" d="M12.485,32.961c0.085-0.012,0.167-0.037,0.235-0.074c0.013-0.008,0.026-0.016,0.038-0.024l0.004,0.09
									c-0.012,0.008-0.024,0.016-0.038,0.024c-0.068,0.037-0.149,0.062-0.235,0.074L12.485,32.961L12.485,32.961z"/>
								<path class="st10" d="M12.758,32.863l0.004,0.09c0.057-0.04,0.092-0.086,0.106-0.133c0.005-0.015,0.007-0.031,0.007-0.046
									l-0.004-0.09c0,0.015-0.003,0.031-0.007,0.046C12.85,32.777,12.815,32.823,12.758,32.863z"/>
							</g>
						</g>
					</g>
					<g>
						<path class="st9" d="M12.722,32.484c0.2,0.111,0.198,0.292-0.002,0.403c-0.201,0.111-0.525,0.111-0.724,0
							s-0.198-0.292,0.002-0.403C12.199,32.372,12.523,32.373,12.722,32.484z"/>
					</g>
				</g>
			</g>
			<g>
				<g class="st11">
					<g class="st11">
						<g>
							<path id="SVGID_00000027605581182519530430000018213944158898874758_" class="st42" d="M12.029,31.981
								c0.181,0.101,0.475,0.101,0.657,0c0.091-0.051,0.137-0.117,0.137-0.184l0.004,0.863c0,0.067-0.045,0.133-0.137,0.184
								c-0.182,0.101-0.476,0.101-0.657,0c-0.09-0.051-0.135-0.116-0.135-0.182l-0.004-0.863
								C11.895,31.864,11.94,31.93,12.029,31.981z"/>
						</g>
						<g>
							<defs>
								<path id="SVGID_00000100350434088307006590000017844869921003288204_" d="M12.029,31.981c0.181,0.101,0.475,0.101,0.657,0
									c0.091-0.051,0.137-0.117,0.137-0.184l0.004,0.863c0,0.067-0.045,0.133-0.137,0.184c-0.182,0.101-0.476,0.101-0.657,0
									c-0.09-0.051-0.135-0.116-0.135-0.182l-0.004-0.863C11.895,31.864,11.94,31.93,12.029,31.981z"/>
							</defs>
							<clipPath id="SVGID_00000143611004730864406610000017221011706004908479_">
								<use xlink:href="#SVGID_00000100350434088307006590000017844869921003288204_"  style="overflow:visible;"/>
							</clipPath>
							<g style="clip-path:url(#SVGID_00000143611004730864406610000017221011706004908479_);">
								<path class="st10" d="M11.894,31.799c0.001,0.065,0.046,0.131,0.135,0.182c0.06,0.033,0.133,0.056,0.21,0.067l0.004,0.863
									c-0.077-0.011-0.15-0.033-0.21-0.067c-0.09-0.051-0.135-0.116-0.135-0.182L11.894,31.799L11.894,31.799z"/>
								<path class="st10" d="M12.239,32.047c0.077,0.012,0.157,0.012,0.234,0l0.004,0.863c-0.077,0.011-0.158,0.011-0.234,0
									L12.239,32.047L12.239,32.047z"/>
								<path class="st45" d="M12.473,32.048c0.078-0.011,0.152-0.034,0.213-0.068c0.013-0.007,0.024-0.015,0.035-0.022l0.004,0.863
									c-0.011,0.008-0.023,0.015-0.035,0.022c-0.061,0.034-0.135,0.057-0.213,0.068L12.473,32.048L12.473,32.048z"/>
								<path class="st46" d="M12.473,32.048c0.078-0.011,0.152-0.034,0.213-0.068c0.013-0.007,0.024-0.015,0.035-0.022l0.004,0.863
									c-0.011,0.008-0.023,0.015-0.035,0.022c-0.061,0.034-0.135,0.057-0.213,0.068L12.473,32.048L12.473,32.048z"/>
								<path class="st10" d="M12.721,31.959l0.004,0.863c0.051-0.036,0.083-0.078,0.096-0.121c0.004-0.014,0.006-0.028,0.006-0.042
									l-0.004-0.863c0,0.014-0.002,0.028-0.006,0.042C12.805,31.881,12.773,31.923,12.721,31.959z"/>
							</g>
						</g>
					</g>
					<g>
						<path class="st9" d="M12.689,31.615c0.181,0.101,0.18,0.265-0.002,0.366c-0.182,0.101-0.476,0.101-0.657,0
							c-0.181-0.101-0.18-0.265,0.002-0.366S12.508,31.514,12.689,31.615z"/>
					</g>
				</g>
			</g>
			<g class="st47">
				<path class="st48" d="M12.518,32.446v0.13h-0.001v0.327c0.03-0.006,0.06-0.013,0.088-0.021v-0.273l0,0V32.08l-0.438,0.019
					L12.518,32.446L12.518,32.446z"/>
				<path class="st48" d="M12.114,32.576v0.307c0.028,0.009,0.058,0.016,0.088,0.021v-0.149l0.155-0.086v-0.216l-0.243-0.257v0.125
					V32.576L12.114,32.576z"/>
			</g>
		</g>
		<g>
			<path class="st41" d="M13.559,33.495v-1.089c0-0.117,0.082-0.254,0.187-0.312l0.074-0.041c0.058-0.032,0.116-0.036,0.161-0.011
				s0.071,0.075,0.071,0.139v1.089c0,0.023-0.02,0.042-0.044,0.042l0,0c-0.024,0-0.044-0.019-0.044-0.042v-1.089
				c0-0.033-0.01-0.057-0.027-0.066c-0.017-0.009-0.044-0.005-0.073,0.011l-0.074,0.041c-0.077,0.044-0.143,0.153-0.143,0.239v1.089
				c0,0.023-0.02,0.042-0.044,0.042l0,0C13.578,33.537,13.559,33.518,13.559,33.495z"/>
			<g>
				<g class="st11">
					<g class="st11">
						<g>
							<path id="SVGID_00000155105116311343308320000014001833550981644429_" class="st42" d="M13.441,32.285
								c0.2,0.111,0.524,0.111,0.724,0c0.101-0.056,0.151-0.13,0.151-0.203l0.004,0.09c0,0.074-0.05,0.147-0.151,0.203
								c-0.201,0.111-0.525,0.111-0.724,0c-0.099-0.055-0.149-0.128-0.149-0.2l-0.004-0.09
								C13.292,32.158,13.341,32.23,13.441,32.285z"/>
						</g>
						<g>
							<defs>
								<path id="SVGID_00000183942041898702533490000016626637551364069283_" d="M13.441,32.285c0.2,0.111,0.524,0.111,0.724,0
									c0.101-0.056,0.151-0.13,0.151-0.203l0.004,0.09c0,0.074-0.05,0.147-0.151,0.203c-0.201,0.111-0.525,0.111-0.724,0
									c-0.099-0.055-0.149-0.128-0.149-0.2l-0.004-0.09C13.292,32.158,13.341,32.23,13.441,32.285z"/>
							</defs>
							<clipPath id="SVGID_00000057868672501312817460000011366954520045252743_">
								<use xlink:href="#SVGID_00000183942041898702533490000016626637551364069283_"  style="overflow:visible;"/>
							</clipPath>
							<g style="clip-path:url(#SVGID_00000057868672501312817460000011366954520045252743_);">
								<path class="st50" d="M13.292,32.085c0,0.073,0.049,0.145,0.149,0.2c0.066,0.037,0.146,0.062,0.231,0.074l0.004,0.09
									c-0.084-0.012-0.165-0.037-0.231-0.074c-0.099-0.055-0.149-0.128-0.149-0.2L13.292,32.085L13.292,32.085z"/>
								<path class="st50" d="M13.672,32.359c0.084,0.013,0.173,0.013,0.257,0l0.004,0.09c-0.084,0.012-0.173,0.012-0.257,0
									L13.672,32.359L13.672,32.359z"/>
								<path class="st50" d="M13.929,32.36c0.086-0.013,0.167-0.037,0.235-0.074c0.013-0.008,0.026-0.016,0.038-0.024l0.004,0.09
									c-0.012,0.008-0.024,0.016-0.038,0.024c-0.068,0.037-0.149,0.062-0.235,0.074L13.929,32.36L13.929,32.36z"/>
								<path class="st50" d="M14.202,32.262l0.004,0.09c0.057-0.04,0.092-0.086,0.106-0.133c0.005-0.015,0.007-0.031,0.007-0.046
									l-0.004-0.09c0,0.015-0.003,0.031-0.007,0.046C14.294,32.176,14.259,32.222,14.202,32.262z"/>
							</g>
						</g>
					</g>
					<g>
						<path class="st51" d="M14.167,31.882c0.2,0.111,0.198,0.292-0.002,0.403c-0.201,0.111-0.525,0.111-0.724,0
							s-0.198-0.292,0.002-0.403S13.967,31.771,14.167,31.882z"/>
					</g>
				</g>
			</g>
			<g>
				<g class="st11">
					<g class="st11">
						<g>
							<path id="SVGID_00000134956216642401716390000014464668478901187504_" class="st42" d="M13.474,31.379
								c0.181,0.101,0.475,0.101,0.657,0c0.091-0.051,0.137-0.117,0.137-0.184l0.004,0.863c0,0.067-0.045,0.133-0.137,0.184
								c-0.182,0.101-0.476,0.101-0.657,0c-0.09-0.051-0.135-0.116-0.135-0.182l-0.004-0.863
								C13.339,31.263,13.384,31.329,13.474,31.379z"/>
						</g>
						<g>
							<defs>
								<path id="SVGID_00000009556222454519845000000001935566445227075977_" d="M13.474,31.379c0.181,0.101,0.475,0.101,0.657,0
									c0.091-0.051,0.137-0.117,0.137-0.184l0.004,0.863c0,0.067-0.045,0.133-0.137,0.184c-0.182,0.101-0.476,0.101-0.657,0
									c-0.09-0.051-0.135-0.116-0.135-0.182l-0.004-0.863C13.339,31.263,13.384,31.329,13.474,31.379z"/>
							</defs>
							<clipPath id="SVGID_00000049215192310120285590000010524710955051226300_">
								<use xlink:href="#SVGID_00000009556222454519845000000001935566445227075977_"  style="overflow:visible;"/>
							</clipPath>
							<g style="clip-path:url(#SVGID_00000049215192310120285590000010524710955051226300_);">
								<path class="st53" d="M13.339,31.197c0,0.066,0.045,0.132,0.135,0.182c0.06,0.033,0.133,0.056,0.21,0.067l0.004,0.863
									c-0.077-0.011-0.15-0.033-0.21-0.067c-0.09-0.051-0.135-0.116-0.135-0.182L13.339,31.197L13.339,31.197z"/>
								<path class="st53" d="M13.684,31.446c0.076,0.011,0.157,0.012,0.234,0l0.004,0.863c-0.077,0.011-0.158,0.011-0.234,0
									L13.684,31.446L13.684,31.446z"/>
								<path class="st45" d="M13.918,31.447c0.078-0.011,0.151-0.034,0.213-0.068c0.013-0.007,0.024-0.015,0.035-0.022l0.004,0.863
									c-0.011,0.008-0.023,0.015-0.035,0.022c-0.061,0.034-0.135,0.057-0.213,0.068L13.918,31.447L13.918,31.447z"/>
								<path class="st53" d="M13.918,31.447c0.078-0.011,0.151-0.034,0.213-0.068c0.013-0.007,0.024-0.015,0.035-0.022l0.004,0.863
									c-0.011,0.008-0.023,0.015-0.035,0.022c-0.061,0.034-0.135,0.057-0.213,0.068L13.918,31.447L13.918,31.447z"/>
								<path class="st54" d="M13.918,31.447c0.078-0.011,0.151-0.034,0.213-0.068c0.013-0.007,0.024-0.015,0.035-0.022l0.004,0.863
									c-0.011,0.008-0.023,0.015-0.035,0.022c-0.061,0.034-0.135,0.057-0.213,0.068L13.918,31.447L13.918,31.447z"/>
								<path class="st53" d="M14.166,31.358l0.004,0.863c0.051-0.036,0.083-0.078,0.096-0.121c0.004-0.014,0.006-0.028,0.006-0.042
									l-0.004-0.863c0,0.014-0.002,0.028-0.006,0.042C14.249,31.28,14.217,31.322,14.166,31.358z"/>
							</g>
						</g>
					</g>
					<g>
						<path class="st51" d="M14.133,31.013c0.181,0.101,0.18,0.265-0.002,0.366c-0.182,0.101-0.476,0.101-0.657,0
							s-0.18-0.265,0.002-0.366C13.658,30.912,13.952,30.912,14.133,31.013z"/>
					</g>
				</g>
			</g>
			<g class="st47">
				<path class="st48" d="M13.962,31.845v0.13h-0.001v0.327c0.03-0.006,0.06-0.013,0.088-0.021v-0.273l0,0v-0.529l-0.438,0.019
					L13.962,31.845L13.962,31.845z"/>
				<path class="st48" d="M13.559,31.975v0.307c0.028,0.009,0.058,0.016,0.088,0.021v-0.149l0.155-0.086v-0.216l-0.243-0.257v0.125
					V31.975L13.559,31.975z"/>
			</g>
		</g>
		<g>
			<polygon class="st55" points="13.516,41.309 15.027,42.148 15.027,41.317 13.516,40.48 			"/>
			<polygon class="st7" points="13.62,40.982 14.916,41.702 14.916,41.388 13.62,40.668 			"/>
			<polygon class="st55" points="11.556,40.222 13.067,41.061 13.067,40.23 11.556,39.391 			"/>
			<polygon class="st7" points="11.673,39.902 12.972,40.621 12.972,40.309 11.673,39.588 			"/>
		</g>
		<g>
			<polygon class="st55" points="7.978,38.27 9.489,39.108 9.489,38.278 7.978,37.441 			"/>
			<polygon class="st7" points="8.082,37.943 9.378,38.662 9.378,38.348 8.082,37.629 			"/>
			<polygon class="st55" points="6.018,37.183 7.529,38.021 7.529,37.191 6.018,36.352 			"/>
			<polygon class="st7" points="6.135,36.862 7.433,37.581 7.433,37.269 6.135,36.548 			"/>
		</g>
		<g>
			<g>
				<polygon class="st56" points="15.869,11.311 15.871,11.625 14.366,10.784 14.364,10.47 				"/>
			</g>
			<g>
				<polygon class="st57" points="15.879,9.63 17.384,10.47 15.869,11.311 14.364,10.47 				"/>
			</g>
			<g>
				<polygon class="st58" points="17.387,10.784 17.384,10.47 15.869,11.311 15.871,11.625 				"/>
			</g>
		</g>
		<g id="smEmeo.tif">
			<g>
				<path class="st59" d="M8.364,19.328c0.021,0.008,0.043,0.014,0.063,0.025c0.077,0.041,0.091,0.171,0.032,0.289
					c-0.058,0.118-0.158,0.177-0.233,0.138c-0.078-0.04-0.094-0.168-0.035-0.287c0.018-0.037,0.043-0.071,0.065-0.106
					C8.292,19.368,8.328,19.348,8.364,19.328z"/>
				<path class="st59" d="M7.093,21.726c0.012-0.034,0.022-0.068,0.036-0.1c0.045-0.101,0.125-0.165,0.198-0.162
					c0.072,0.003,0.119,0.078,0.111,0.176C7.43,21.732,7.372,21.839,7.3,21.885c-0.091,0.058-0.151,0.022-0.199-0.046
					C7.098,21.802,7.094,21.764,7.093,21.726z"/>
				<path class="st59" d="M9.788,20.221c0.011,0.112-0.062,0.255-0.154,0.304c-0.093,0.05-0.174,0.001-0.184-0.112
					c-0.011-0.118,0.056-0.249,0.152-0.301C9.695,20.062,9.777,20.111,9.788,20.221z"/>
				<path class="st59" d="M8.214,20.376c-0.009-0.11,0.061-0.247,0.15-0.297c0.089-0.05,0.175-0.001,0.187,0.108
					c0.013,0.116-0.053,0.25-0.148,0.303S8.222,20.491,8.214,20.376z"/>
				<path class="st59" d="M8.272,21.101c-0.011-0.112,0.062-0.255,0.154-0.303c0.094-0.05,0.177,0.007,0.184,0.124
					c0.007,0.114-0.06,0.241-0.153,0.29C8.365,21.261,8.283,21.211,8.272,21.101z"/>
				<path class="st59" d="M8.517,21.934c-0.09,0.048-0.175-0.003-0.186-0.112c-0.012-0.112,0.058-0.25,0.153-0.301
					c0.093-0.05,0.173-0.001,0.184,0.111C8.679,21.747,8.61,21.884,8.517,21.934z"/>
				<path class="st59" d="M9.017,21.87c0.092-0.051,0.177,0.004,0.186,0.12c0.009,0.109-0.06,0.242-0.151,0.293
					c-0.093,0.052-0.176-0.001-0.185-0.12C8.859,22.054,8.928,21.919,9.017,21.87z"/>
				<path class="st59" d="M8.726,22.357c0.009,0.111-0.058,0.245-0.148,0.296c-0.091,0.052-0.181-0.003-0.19-0.115
					s0.059-0.244,0.15-0.295C8.634,22.19,8.717,22.24,8.726,22.357z"/>
				<path class="st59" d="M7.859,19.718c0.093-0.053,0.181,0,0.189,0.113c0.007,0.108-0.064,0.249-0.151,0.298
					C7.804,20.181,7.72,20.128,7.71,20.01C7.7,19.898,7.765,19.77,7.859,19.718z"/>
				<path class="st59" d="M7.681,21.416c-0.009-0.108,0.061-0.246,0.15-0.297c0.091-0.051,0.176-0.003,0.188,0.106
					c0.014,0.116-0.052,0.249-0.147,0.303C7.778,21.58,7.69,21.529,7.681,21.416z"/>
				<path class="st59" d="M8.093,22.375c0.09-0.048,0.175,0.006,0.184,0.114c0.009,0.116-0.059,0.247-0.156,0.298
					c-0.093,0.049-0.173-0.001-0.182-0.113C7.93,22.556,7.997,22.425,8.093,22.375z"/>
				<path class="st59" d="M8.649,20.365c-0.008-0.114,0.064-0.256,0.156-0.302c0.092-0.047,0.172,0.005,0.181,0.118
					c0.01,0.119-0.056,0.247-0.154,0.298C8.738,20.528,8.658,20.478,8.649,20.365z"/>
				<path class="st59" d="M9.017,20.48c0.09-0.047,0.175,0.005,0.185,0.114c0.01,0.113-0.06,0.251-0.155,0.301
					c-0.093,0.049-0.173,0-0.183-0.113C8.854,20.667,8.923,20.529,9.017,20.48z"/>
				<path class="st59" d="M8.732,21.387c-0.011-0.112,0.061-0.255,0.152-0.304c0.091-0.048,0.173,0.002,0.184,0.113
					c0.011,0.118-0.054,0.248-0.151,0.3C8.823,21.546,8.743,21.499,8.732,21.387z"/>
				<path class="st59" d="M7.47,20.31c0.094-0.05,0.179,0.004,0.186,0.12c0.007,0.112-0.061,0.24-0.154,0.29
					c-0.096,0.052-0.175,0-0.184-0.12C7.31,20.488,7.378,20.359,7.47,20.31z"/>
				<path class="st59" d="M9.227,21.587c-0.008-0.112,0.059-0.241,0.152-0.292c0.099-0.054,0.178-0.005,0.187,0.114
					c0.008,0.115-0.055,0.238-0.15,0.29C9.32,21.752,9.235,21.702,9.227,21.587z"/>
				<path class="st59" d="M9.422,20.996c-0.011-0.112,0.06-0.249,0.154-0.3c0.098-0.052,0.176-0.002,0.184,0.119
					c0.008,0.115-0.058,0.239-0.152,0.289C9.515,21.153,9.432,21.106,9.422,20.996z"/>
				<path class="st59" d="M9.304,19.93c-0.009-0.109,0.06-0.245,0.151-0.296c0.091-0.051,0.175-0.001,0.185,0.11
					c0.011,0.119-0.055,0.248-0.153,0.3C9.395,20.093,9.312,20.042,9.304,19.93z"/>
				<path class="st59" d="M8.606,19.526c-0.01-0.117,0.057-0.246,0.154-0.298c0.092-0.048,0.175,0.002,0.184,0.111
					c0.01,0.115-0.06,0.248-0.155,0.298C8.695,19.686,8.615,19.637,8.606,19.526z"/>
				<path class="st59" d="M7.271,20.909c0.095-0.055,0.179-0.005,0.189,0.111c0.01,0.113-0.054,0.24-0.146,0.293
					c-0.098,0.056-0.179,0.009-0.189-0.109C7.115,21.092,7.179,20.962,7.271,20.909z"/>
				<path class="st59" d="M7.537,22.577c-0.01-0.11,0.058-0.247,0.148-0.297c0.096-0.054,0.178-0.002,0.188,0.116
					c0.009,0.112-0.058,0.241-0.151,0.291S7.548,22.688,7.537,22.577z"/>
				<path class="st59" d="M7.241,22.258c-0.006-0.114,0.064-0.247,0.153-0.294c0.091-0.048,0.173,0.005,0.181,0.117
					c0.009,0.121-0.057,0.246-0.156,0.297C7.326,22.425,7.247,22.372,7.241,22.258z"/>
				<path class="st59" d="M9.007,19.628c-0.012-0.113,0.057-0.25,0.152-0.3c0.095-0.05,0.173-0.002,0.182,0.112
					c0.009,0.113-0.056,0.243-0.147,0.293C9.101,19.784,9.02,19.738,9.007,19.628z"/>
				<path class="st59" d="M7.816,20.818c-0.013-0.114,0.056-0.252,0.15-0.303c0.091-0.05,0.172,0.001,0.182,0.114
					c0.01,0.115-0.053,0.242-0.145,0.293C7.909,20.974,7.828,20.929,7.816,20.818z"/>
				<path class="st59" d="M7.898,21.838c-0.013-0.116,0.054-0.247,0.151-0.3c0.096-0.052,0.172-0.005,0.181,0.112
					c0.009,0.113-0.056,0.244-0.146,0.294C7.991,21.996,7.91,21.95,7.898,21.838z"/>
			</g>
		</g>
		<g>
			<path class="st60" d="M18.43,34.741c-0.084-0.021-0.135-0.103-0.113-0.184c0.021-0.08,0.107-0.129,0.191-0.108
				c0.021,0.006,2.441,0.579,3.319-0.229c0.354-0.327,0.457-0.845,0.305-1.539c-0.111-0.505-0.387-0.864-0.843-1.1
				c-1.854-0.958-5.92,0.586-5.961,0.602c-0.081,0.031-0.172-0.006-0.204-0.084c-0.033-0.078,0.007-0.166,0.087-0.197
				c0.011-0.004,1.065-0.407,2.343-0.681c1.737-0.372,3.044-0.341,3.883,0.092c0.536,0.277,0.873,0.716,1.002,1.305
				c0.176,0.804,0.043,1.416-0.396,1.82c-0.307,0.283-0.73,0.428-1.171,0.493C19.873,35.077,18.495,34.757,18.43,34.741z"/>
		</g>
		<g>
			<path class="st61" d="M17.742,35.061c-0.071-0.047-0.089-0.141-0.04-0.21s0.147-0.086,0.218-0.039
				c0.019,0.012,2.089,1.347,3.201,0.876c0.45-0.19,0.731-0.643,0.835-1.345c0.076-0.511-0.055-0.94-0.4-1.311
				c-1.402-1.509-5.772-1.395-5.816-1.394c-0.087,0.003-0.159-0.063-0.162-0.146c-0.003-0.084,0.065-0.153,0.152-0.156
				c0.012,0,1.146-0.032,2.444,0.131c1.764,0.222,2.981,0.681,3.615,1.364c0.405,0.436,0.566,0.959,0.477,1.555
				c-0.121,0.813-0.464,1.345-1.02,1.58c-0.39,0.165-0.838,0.162-1.276,0.078C18.979,35.853,17.798,35.1,17.742,35.061z"/>
		</g>
	</g>
</g>
</svg>
