<svg version="1.1" xmlns="http://www.w3.org/2000/svg" xmlns:xlink="http://www.w3.org/1999/xlink" viewBox="0 0 60 60">
  <path class="grey-fill" d="M20,33.333c0-2.634,0-5.267,0-7.901c0.326-0.674,0.862-0.926,1.603-0.871c0.603,0.045,1.213,0.009,1.856,0.009
			c0-1.003,0.036-1.925-0.011-2.843c-0.038-0.742,0.199-1.277,0.873-1.603c3.786,0,7.572,0,11.358,0
			c0.672,0.328,0.91,0.863,0.873,1.604c-0.046,0.933-0.011,1.87-0.011,2.843c0.673,0,1.267,0.036,1.855-0.009
			c0.742-0.056,1.277,0.198,1.604,0.871c0,2.634,0,5.267,0,7.901c-0.329,0.671-0.864,0.926-1.606,0.871
			c-0.603-0.045-1.212-0.009-1.853-0.009c0,1.416-0.032,2.747,0.012,4.077c0.025,0.742-0.205,1.275-0.874,1.605
			c-3.786,0-7.572,0-11.358,0c-0.672-0.328-0.899-0.862-0.874-1.604c0.044-1.344,0.012-2.691,0.012-4.077
			c-0.671,0-1.265-0.035-1.854,0.009C20.864,34.259,20.327,34.007,20,33.333z M23.447,30.54c4.414,0,8.738,0,13.109,0
			c0,0.735,0,1.427,0,2.142c0.67,0,1.294,0,1.925,0c0-2.223,0-4.409,0-6.592c-5.682,0-11.323,0-16.954,0c0,2.229,0,4.416,0,6.598
			c0.657,0,1.266,0,1.92,0C23.447,31.966,23.447,31.274,23.447,30.54z M24.964,38.353c3.389,0,6.728,0,10.051,0
			c0-2.149,0-4.254,0-6.347c-3.374,0-6.699,0-10.051,0C24.964,34.129,24.964,36.219,24.964,38.353z M24.981,21.629
			c0,1.005,0,1.958,0,2.891c3.384,0,6.723,0,10.049,0c0-0.989,0-1.927,0-2.891C31.671,21.629,28.347,21.629,24.981,21.629z"/>
		<path class="grey-fill" d="M37.334,27.911c-0.271,0.186-0.549,0.524-0.81,0.512c-0.234-0.011-0.591-0.382-0.64-0.643
			c-0.077-0.403,0.264-0.733,0.674-0.67c0.276,0.042,0.513,0.344,0.767,0.53C37.328,27.731,37.331,27.821,37.334,27.911z"/>
		<path class="grey-fill" d="M34.609,28.339c-0.214-0.339-0.42-0.523-0.416-0.702c0.004-0.152,0.25-0.297,0.389-0.446
			c0.158,0.149,0.419,0.284,0.443,0.453C35.048,27.805,34.824,28.001,34.609,28.339z"/>
		<path class="grey-fill" d="M30.01,33.212c0.905,0,1.81,0.004,2.714-0.002c0.514-0.003,0.85,0.214,0.843,0.75c-0.007,0.538-0.356,0.733-0.865,0.731
			c-1.809-0.006-3.619-0.005-5.428-0.001c-0.514,0.001-0.849-0.215-0.843-0.751c0.006-0.54,0.355-0.735,0.864-0.73
			C28.2,33.219,29.105,33.212,30.01,33.212z"/>
		<path class="grey-fill" d="M28.777,35.682c0.493,0,0.987,0.005,1.48-0.001c0.515-0.006,0.846,0.215,0.842,0.751
			c-0.004,0.499-0.316,0.727-0.805,0.727c-1.028-0.001-2.056,0.002-3.083-0.002c-0.493-0.002-0.787-0.252-0.78-0.75
			c0.007-0.501,0.315-0.727,0.804-0.726C27.749,35.683,28.263,35.682,28.777,35.682z"/>
</svg>
