<?xml version="1.0" encoding="utf-8"?>
<!-- Generator: Adobe Illustrator 25.4.1, SVG Export Plug-In . SVG Version: 6.00 Build 0)  -->
<svg version="1.1" xmlns="http://www.w3.org/2000/svg" xmlns:xlink="http://www.w3.org/1999/xlink" x="0px" y="0px"
	 viewBox="0 0 50 50" style="enable-background:new 0 0 50 50;" xml:space="preserve">
<style type="text/css">
	.st0{display:none;}
	.st1{display:inline;}
	.st2{fill:#344593;}
	.st3{fill:#3E54A3;}
	.st4{fill:#2E4490;}
	.st5{fill:#122571;}
	.st6{opacity:0.5;fill:#031F60;enable-background:new    ;}
	.st7{fill:#BBDFFF;}
	.st8{fill:#FDB724;}
	.st9{fill:#E7478D;}
	.st10{fill:#BF2878;}
	.st11{fill:#27DEBF;}
	.st12{fill:#1BBC9D;}
	.st13{fill:#A33D64;}
	.st14{fill:#82294D;}
	.st15{fill:#0A4A80;}
	.st16{fill:#F1FCFF;}
	.st17{fill:#D6E6FF;}
	.st18{fill:#CEF3FF;}
	.st19{fill:#606060;}
	.st20{enable-background:new    ;}
	.st21{fill:#F19729;}
	.st22{fill:#FCB040;}
	.st23{fill:#FFCB49;}
	.st24{fill:#2E5677;}
	.st25{fill:#FF51CE;}
	.st26{fill:#EDE6A0;}
	.st27{fill:#FFF7B0;}
	.st28{fill:url(#SVGID_1_);}
	.st29{fill:url(#SVGID_00000160872887433193313530000008731850399488124091_);}
	.st30{fill:#939598;}
	.st31{fill:#303033;}
	.st32{fill:#A7A9AC;}
	.st33{fill:#121214;}
	.st34{fill:#E6E7E8;}
	.st35{fill:#BCBEC0;}
	.st36{fill:#535359;}
</style>
<g id="Example" class="st0">
	<g class="st1">
		<g id="XMLID_4903_">
			<path id="XMLID_4905_" class="st2" d="M45.3,33.2v-4.6l0,0c0-0.9-0.6-1.8-1.7-2.4c-2.3-1.3-6-1.3-8.4,0c-1.2,0.7-1.7,1.6-1.7,2.4
				l0,0v4.5c0,0.9,0.6,1.8,1.7,2.4c2.3,1.3,6,1.3,8.4,0C44.8,34.9,45.3,34.1,45.3,33.2L45.3,33.2L45.3,33.2L45.3,33.2z"/>
			<path id="XMLID_4904_" class="st2" d="M45.3,33.2v-4.6l0,0c0-0.9-0.6-1.8-1.7-2.4c-2.3-1.3-6-1.3-8.4,0c-1.2,0.7-1.7,1.6-1.7,2.4
				l0,0v4.5c0,0.9,0.6,1.8,1.7,2.4c2.3,1.3,6,1.3,8.4,0C44.8,34.9,45.3,34.1,45.3,33.2L45.3,33.2L45.3,33.2L45.3,33.2z"/>
		</g>
		<polygon id="XMLID_4900_" class="st3" points="39.4,23 29.7,28.6 39.4,34.2 49.2,28.6 		"/>
		<path id="XMLID_4899_" class="st4" d="M44.3,31.4l-4.8-2.7c-0.1,0-0.2,0-0.2,0.1s0,0.2,0.1,0.2l4.6,2.6L44.3,31.4z"/>
		<polygon id="XMLID_4896_" class="st5" points="29.7,28.6 29.7,29 39.4,34.6 39.4,34.2 		"/>
		<polygon id="XMLID_4883_" class="st4" points="49.2,28.6 49.2,29 39.4,34.6 39.4,34.2 		"/>
		<polygon id="XMLID_4876_" class="st6" points="33.5,31.2 39.4,35.2 45.3,31.2 39.4,34.6 		"/>
		<g id="XMLID_4823_">
			<path id="XMLID_4835_" class="st7" d="M44.7,36.2c-0.1,0-0.2-0.1-0.2-0.2v-4c0-0.2-0.1-0.4-0.3-0.4l-4.9-2.8
				c-0.1,0-0.1-0.2-0.1-0.2c0-0.1,0.2-0.1,0.2-0.1l4.9,2.8c0.3,0.2,0.4,0.4,0.4,0.7v4C44.8,36.1,44.7,36.2,44.7,36.2z"/>
		</g>
		<path class="st8" d="M45.3,39.3L45,36.6c0.1-0.1,0.1-0.2,0-0.2l0,0l0,0l0,0v-0.1l0,0l0,0l0,0c0-0.2-0.2-0.4-0.4-0.4c0,0,0,0-0.1,0
			l0,0l0,0c0,0,0,0-0.1,0c0,0,0,0-0.1,0c0,0,0,0-0.1,0c0,0,0,0,0,0.1l0,0v0.1c0,0.1,0,0.2,0.1,0.3l0,0c-0.1,0.1,0,0.2,0,0.2L44,39.3
			c0,0.1,0.1,0.2,0.3,0.3l0,0h0.1l0,0c0.1,0,0.2,0.1,0.3,0.1l0,0l0,0l0,0l0,0l0,0c0.1,0,0.2,0,0.3-0.1l0,0h0.1l0,0
			C45.3,39.5,45.3,39.4,45.3,39.3z"/>
	</g>
	<g id="XMLID_3738_" class="st1">
		<path id="XMLID_4404_" class="st9" d="M12.4,36.1c1.1-0.8,1.8-2.7,1.7-4c-0.1-1.4-1.2-2-1.7-2.3l0,0c-1.1-0.6-2.8-0.6-3.9,0l0,0
			C8,30.1,7,30.7,6.8,32.1c-0.1,1.3,0.6,3.2,1.7,4l0,0c0.1,0,0.1,0.1,0.2,0.1c1,0.6,2.6,0.6,3.6,0l0,0
			C12.3,36.2,12.4,36.1,12.4,36.1L12.4,36.1z"/>
		<path id="XMLID_4395_" class="st10" d="M9.9,30.8c-0.3,0.2-0.3,0.4,0,0.6s0.8,0.2,1.1,0s0.3-0.4,0-0.6
			C10.7,30.6,10.2,30.6,9.9,30.8z"/>
		<g id="XMLID_4426_">
			<path id="XMLID_2198_" class="st11" d="M10.5,31.2c0,0-0.9,0-1.4-0.7s0-1.9,0-1.9s1.1,0.1,1.7,1C11.2,30.4,10.5,31.2,10.5,31.2z"
				/>
			<path id="XMLID_4431_" class="st12" d="M9,30.5c0.5,0.7,1.4,0.7,1.4,0.7C10.3,29.6,9,28.6,9,28.6S8.5,29.8,9,30.5z"/>
		</g>
		<path id="XMLID_4403_" class="st13" d="M10.5,31.2c0,0,0-1.3,0.7-1.9s1.2-0.6,1.2-0.6c0.4,0,0.9,0.4,0.7,0.4c0,0-0.9,0-1.5,0.5
			s-0.9,1.5-0.9,1.6c0,0,0,0.1-0.1,0.1C10.5,31.3,10.5,31.2,10.5,31.2z"/>
		<path id="XMLID_4496_" class="st14" d="M12.4,28.7c-0.1,0-0.1,0.1,0.2,0.3c0.2,0.1,0.4,0.2,0.5,0.2l0,0
			C13.3,29,12.8,28.7,12.4,28.7z"/>
	</g>
	<g class="st1">
		<g>
			<path class="st15" d="M26,28.8L26,28.8c-1,0.6-1.9,1-2.8,1.2l0,0c0,0,0,0-0.1,0l-0.5,0.2h-0.1c-0.1,0-0.2,0.1-0.3,0.1h-0.1
				c-0.1,0-0.2,0.1-0.2,0.1h-0.1c-0.5,0.2-0.9,0.4-1.4,0.7c-0.1,0.1-0.2,0.1-0.3,0.2L20,31.4c-0.4,0.3-2,1.5-2.9,2.5l-0.6,0.6
				L16,34.6c-1,0.2-2,0.5-3,1.1c-0.1,0.1-0.2,0.1-0.3,0.2c-0.3,0.2-0.5,0.3-0.8,0.5l0,0l-0.1,0.1c-0.1,0.1-0.2,0.1-0.3,0.2l0,0l0,0
				c-0.4,0.3-0.9,0.7-1.3,1.1c-0.1,0.1-0.2,0.2-0.3,0.3c-0.3,0.3-0.7,0.6-1,0.9H8.8c-0.3,0.3-0.7,0.5-1,0.8
				c-0.2,0.2-0.5,0.3-0.7,0.5l-0.1,0l13.7,8.3h0.1c0.8-0.5,1.7-1.2,2.5-1.9c0.5-0.5,1.1-0.9,1.7-1.4c1.2-0.9,2.3-1.5,3.2-1.8
				c0.7-0.3,1.4-0.5,2.1-0.6l0.5-0.6c0.7-0.7,1.5-1.3,2.4-1.8c1.5-1,3.2-1.8,4.9-2.5c0.6-0.2,1.2-0.5,1.6-0.7l0.2-0.1L26,28.8z"/>
			<g>
				<g>
					<g>
						<path class="st16" d="M39.1,36.7c-0.5,0.3-0.7,0.4-1.2,0.6c-0.3,0.1-0.5,0.2-0.8,0.3c-0.2,0.1-0.3,0.1-0.5,0.1
							c-0.7,0.2-1.4,0.4-2,0.8c-0.2,0.1-0.4,0.2-0.6,0.3c-1.3,0.8-2.6,2-3.9,3.5l-2.5-1.5l-11-6.7c1.3-1.5,2.6-2.7,3.9-3.5
							c0.2-0.1,0.4-0.2,0.6-0.3c0.7-0.4,1.4-0.6,2-0.8c0.2,0,0.3-0.1,0.5-0.1c0.3-0.1,0.5-0.2,0.8-0.3c0.5-0.2,0.7-0.3,1.2-0.6
							L39.1,36.7z"/>
						<g>
							<path class="st16" d="M30.1,42.3c-1.3,0.1-2.6,0.5-3.9,1.3c-0.2,0.1-0.4,0.2-0.6,0.4c-0.7,0.5-1.4,1-2,1.7
								c-0.2,0.2-0.3,0.3-0.5,0.4c-0.3,0.3-0.6,0.5-0.9,0.7c-0.5,0.4-0.8,0.6-1.3,0.9L7.5,39.5C8,39.2,8.3,39,8.8,38.6
								c0.3-0.2,0.6-0.5,0.9-0.7c0.2-0.1,0.3-0.3,0.5-0.4c0.7-0.6,1.4-1.2,2-1.7c0.2-0.1,0.4-0.3,0.6-0.4c1.3-0.8,2.6-1.2,3.9-1.3
								l11,6.7L30.1,42.3z"/>
						</g>
					</g>
					<polygon class="st17" points="7.5,39.5 7.3,40.3 20.7,48.5 20.9,47.7 					"/>
					<path class="st18" d="M39.4,37.1c-0.9,0.6-1.8,1-2.7,1.2c0,0,0,0-0.1,0s-0.2,0-0.3,0.1c-0.1,0-0.2,0.1-0.3,0.1
						s-0.2,0.1-0.3,0.1c-0.6,0.2-1.2,0.5-1.8,0.9c-0.1,0.1-0.2,0.1-0.3,0.2c-1,0.7-2,1.5-3,2.5L30,42.8l-0.6,0.1c-1,0.2-2,0.5-3,1.1
						c-0.1,0.1-0.2,0.1-0.3,0.2c-0.3,0.2-0.5,0.3-0.8,0.5c-0.6,0.4-1.1,0.9-1.7,1.4c-0.1,0.1-0.2,0.2-0.3,0.3
						c-0.9,0.9-1.8,1.6-2.7,2.2l0.2-0.8c0.5-0.3,0.8-0.5,1.3-0.9c0.3-0.2,0.6-0.5,0.9-0.7c0.2-0.1,0.3-0.3,0.5-0.4
						c0.7-0.6,1.4-1.2,2-1.7c0.2-0.1,0.4-0.3,0.6-0.4c1.3-0.8,2.6-1.2,3.9-1.3c1.3-1.5,2.6-2.7,3.9-3.5c0.2-0.1,0.4-0.2,0.6-0.3
						c0.7-0.4,1.4-0.6,2-0.8c0.2,0,0.3-0.1,0.5-0.1c0.3-0.1,0.5-0.2,0.8-0.3c0.5-0.2,0.7-0.3,1.2-0.6L39.4,37.1z"/>
				</g>
			</g>
			<g>
				<path class="st19" d="M17.8,34.6C17.9,34.6,17.9,34.6,17.8,34.6c1.2-1.4,2.5-2.5,3.7-3.2c0.2-0.1,0.4-0.2,0.5-0.3
					c0.7-0.3,1.3-0.6,2-0.8c0.2,0,0.3-0.1,0.5-0.1c0.3-0.1,0.5-0.2,0.8-0.3c0.4-0.2,0.7-0.3,1.1-0.5c0,0,0,0,0-0.1s0,0-0.1,0
					c-0.4,0.2-0.6,0.3-1,0.5c-0.3,0.1-0.5,0.2-0.8,0.3c-0.2,0.1-0.3,0.1-0.5,0.1c-0.7,0.2-1.3,0.4-2,0.8c-0.2,0.1-0.4,0.2-0.6,0.3
					C20.3,32.1,19,33.2,17.8,34.6C17.8,34.5,17.8,34.6,17.8,34.6L17.8,34.6z"/>
				<path class="st19" d="M25.4,30.6c-0.2,0.1-0.3,0.1-0.5,0.1c-0.7,0.2-1.3,0.4-2,0.8c-0.2,0.1-0.4,0.2-0.6,0.3
					c-1.2,0.7-2.5,1.8-3.7,3.2v0.1l0,0l0,0c1.2-1.4,2.5-2.5,3.7-3.2c0.2-0.1,0.4-0.2,0.6-0.3c0.7-0.4,1.3-0.6,2-0.8
					C25.1,30.8,25.3,30.7,25.4,30.6c0.3,0,0.6-0.1,0.8-0.2c0.4-0.2,0.6-0.3,1-0.5c0,0,0,0,0-0.1c0,0,0,0-0.1,0
					c-0.4,0.2-0.6,0.3-1,0.5C25.9,30.4,25.7,30.5,25.4,30.6z"/>
				<path class="st19" d="M26.2,31.1c-0.2,0.1-0.3,0.1-0.5,0.1c-0.7,0.2-1.3,0.4-2,0.8c-0.2,0.1-0.4,0.2-0.6,0.3
					c-1.2,0.7-2.5,1.8-3.7,3.2v0.1l0,0l0,0c1.2-1.4,2.5-2.5,3.7-3.2c0.2-0.1,0.4-0.2,0.6-0.3c0.7-0.4,1.4-0.6,2-0.8
					C25.9,31.3,26.1,31.2,26.2,31.1c0.3,0,0.6-0.1,0.8-0.2c0.4-0.2,0.6-0.3,1-0.5c0,0,0,0,0-0.1c0,0,0,0-0.1,0
					c-0.4,0.2-0.6,0.3-1,0.5C26.8,30.9,26.5,31,26.2,31.1z"/>
				<path class="st19" d="M27.1,31.5c-0.2,0.1-0.3,0.1-0.5,0.1c-0.7,0.2-1.3,0.4-2,0.8c-0.2,0.1-0.4,0.2-0.6,0.3
					c-1.2,0.7-2.5,1.8-3.7,3.2V36l0,0l0,0c1.2-1.4,2.5-2.5,3.7-3.2c0.2-0.1,0.4-0.2,0.6-0.3c0.7-0.4,1.4-0.6,2-0.8
					C26.7,31.7,26.9,31.7,27.1,31.5c0.3,0,0.6-0.1,0.8-0.2c0.4-0.2,0.6-0.3,1-0.5c0,0,0,0,0-0.1c0,0,0,0-0.1,0
					c-0.4,0.2-0.6,0.3-1,0.5C27.6,31.4,27.3,31.5,27.1,31.5z"/>
				<path class="st19" d="M27.9,32c-0.2,0.1-0.3,0.1-0.5,0.1c-0.7,0.2-1.4,0.4-2,0.8c-0.2,0.1-0.4,0.2-0.6,0.3
					c-1.2,0.7-2.5,1.9-3.7,3.2v0.1l0,0l0,0c1.2-1.4,2.5-2.5,3.7-3.2c0.2-0.1,0.4-0.2,0.6-0.3c0.7-0.4,1.4-0.6,2-0.8
					C27.6,32.2,27.8,32.2,27.9,32c0.3,0,0.6-0.1,0.8-0.2c0.4-0.2,0.6-0.3,1-0.5c0,0,0,0,0-0.1c0,0,0,0-0.1,0c-0.4,0.2-0.6,0.3-1,0.5
					C28.4,31.8,28.1,31.9,27.9,32z"/>
				<path class="st19" d="M28.7,32.5c-0.2,0.1-0.3,0.1-0.5,0.1c-0.7,0.2-1.4,0.4-2,0.8c-0.2,0.1-0.4,0.2-0.6,0.3
					c-1.2,0.7-2.5,1.9-3.7,3.2V37l0,0l0,0c1.2-1.4,2.5-2.5,3.7-3.2c0.2-0.1,0.4-0.2,0.6-0.3c0.7-0.4,1.4-0.6,2-0.8
					C28.4,32.7,28.6,32.6,28.7,32.5c0.3,0,0.6-0.1,0.8-0.2c0.4-0.2,0.6-0.3,1-0.5c0,0,0,0,0-0.1c0,0,0,0-0.1,0
					c-0.3,0.2-0.6,0.3-0.9,0.5C29.2,32.3,29,32.4,28.7,32.5z"/>
				<path class="st19" d="M29.6,33c-0.2,0.1-0.3,0.1-0.5,0.1c-0.7,0.2-1.4,0.4-2.1,0.8c-0.2,0.1-0.4,0.2-0.6,0.3
					c-1.2,0.7-2.5,1.9-3.8,3.3v0.1l0,0l0,0c1.2-1.4,2.5-2.5,3.7-3.2c0.2-0.1,0.4-0.2,0.6-0.3c0.7-0.4,1.4-0.6,2-0.8
					C29.2,33.2,29.4,33.1,29.6,33c0.3,0,0.6-0.1,0.8-0.2c0.4-0.2,0.6-0.3,0.9-0.5c0,0,0,0,0-0.1c0,0,0,0-0.1,0
					c-0.3,0.2-0.5,0.3-0.9,0.4C30.1,32.8,29.8,32.9,29.6,33z"/>
				<path class="st19" d="M30.4,33.5c-0.2,0.1-0.3,0.1-0.5,0.1c-0.7,0.2-1.4,0.4-2.1,0.8c-0.2,0.1-0.4,0.2-0.6,0.3
					c-1.2,0.7-2.5,1.9-3.8,3.3v0.1l0,0l0,0c1.2-1.4,2.5-2.5,3.7-3.2c0.2-0.1,0.4-0.2,0.6-0.3c0.7-0.4,1.4-0.6,2-0.8
					C30.1,33.7,30.2,33.6,30.4,33.5c0.3,0,0.5-0.1,0.8-0.2c0.4-0.2,0.6-0.3,0.9-0.4c0,0,0,0,0-0.1c0,0,0,0-0.1,0
					c-0.3,0.2-0.5,0.3-0.9,0.4C30.9,33.3,30.6,33.4,30.4,33.5z"/>
				<path class="st19" d="M31.2,33.9C31,34,30.9,34,30.7,34.1c-0.7,0.2-1.4,0.4-2.1,0.8c-0.2,0.1-0.4,0.2-0.6,0.3
					c-1.2,0.7-2.5,1.9-3.8,3.3v0.1l0,0l0,0c1.2-1.4,2.5-2.5,3.8-3.3c0.2-0.1,0.4-0.2,0.6-0.3c0.7-0.4,1.4-0.6,2-0.8
					C30.9,34.1,31.1,34.1,31.2,33.9c0.3,0,0.5-0.1,0.8-0.2c0.4-0.2,0.6-0.2,0.9-0.4c0,0,0,0,0-0.1c0,0,0,0-0.1,0
					c-0.3,0.2-0.5,0.3-0.9,0.4C31.7,33.8,31.5,33.9,31.2,33.9z"/>
				<path class="st19" d="M32,34.4c-0.2,0.1-0.3,0.1-0.5,0.1c-0.7,0.2-1.4,0.4-2.1,0.8c-0.2,0.1-0.4,0.2-0.6,0.3
					c-1.2,0.7-2.6,1.9-3.8,3.3V39l0,0l0,0c1.2-1.4,2.5-2.5,3.8-3.3c0.2-0.1,0.4-0.2,0.6-0.3c0.7-0.4,1.4-0.6,2-0.8
					C31.7,34.6,31.9,34.6,32,34.4c0.3,0,0.5-0.1,0.8-0.2c0.4-0.2,0.6-0.2,0.9-0.4c0,0,0,0,0-0.1c0,0,0,0-0.1,0
					c-0.3,0.2-0.5,0.3-0.9,0.4C32.6,34.2,32.3,34.3,32,34.4z"/>
				<path class="st19" d="M32.9,34.9C32.7,35,32.6,35,32.4,35c-0.7,0.2-1.4,0.4-2.1,0.8c-0.2,0.1-0.4,0.2-0.6,0.3
					c-1.2,0.8-2.6,1.9-3.8,3.3v0.1l0,0l0,0c1.2-1.4,2.5-2.5,3.8-3.3c0.2-0.1,0.4-0.2,0.6-0.3c0.7-0.4,1.4-0.6,2.1-0.8
					C32.6,35.1,32.7,35,32.9,34.9c0.3,0,0.5-0.1,0.8-0.2c0.3-0.1,0.6-0.2,0.9-0.4c0,0,0,0,0-0.1c0,0,0,0-0.1,0
					c-0.3,0.2-0.5,0.3-0.8,0.4C33.4,34.7,33.1,34.8,32.9,34.9z"/>
				<path class="st19" d="M33.7,35.4c-0.2,0.1-0.3,0.1-0.5,0.1c-0.7,0.2-1.4,0.4-2.1,0.8c-0.2,0.1-0.4,0.2-0.6,0.3
					c-1.2,0.8-2.6,1.9-3.8,3.3V40l0,0l0,0c1.2-1.4,2.6-2.5,3.8-3.3c0.2-0.1,0.4-0.2,0.6-0.3c0.7-0.4,1.4-0.6,2.1-0.8
					C33.4,35.6,33.6,35.5,33.7,35.4c0.3,0,0.5-0.1,0.8-0.2c0.3-0.1,0.5-0.2,0.8-0.4c0,0,0,0,0-0.1c0,0,0,0-0.1,0
					c-0.3,0.2-0.5,0.3-0.8,0.4C34.2,35.2,34,35.3,33.7,35.4z"/>
				<path class="st19" d="M34.5,35.8c-0.2,0.1-0.3,0.1-0.5,0.1c-0.7,0.2-1.4,0.4-2.1,0.8c-0.2,0.1-0.4,0.2-0.6,0.3
					c-1.3,0.8-2.6,1.9-3.8,3.3v0.1l0,0l0,0c1.2-1.4,2.6-2.6,3.8-3.3c0.2-0.1,0.4-0.2,0.6-0.3c0.7-0.4,1.4-0.6,2.1-0.8
					C34.2,36,34.4,36,34.5,35.8c0.3,0,0.5-0.1,0.8-0.2c0.3-0.1,0.5-0.2,0.8-0.4c0,0,0,0,0-0.1c0,0,0,0-0.1,0
					c-0.3,0.2-0.5,0.2-0.8,0.4C35,35.7,34.8,35.8,34.5,35.8z"/>
				<path class="st19" d="M35.4,36.3c-0.2,0.1-0.3,0.1-0.5,0.1c-0.7,0.2-1.4,0.4-2.1,0.8c-0.2,0.1-0.4,0.2-0.6,0.3
					c-1.3,0.8-2.6,1.9-3.8,3.3v0.1l0,0l0,0c1.3-1.4,2.6-2.6,3.8-3.3c0.2-0.1,0.4-0.2,0.6-0.3c0.7-0.4,1.4-0.6,2.1-0.8
					C35.1,36.5,35.2,36.5,35.4,36.3c0.3,0,0.5-0.1,0.8-0.2c0.3-0.1,0.5-0.2,0.8-0.4c0,0,0,0,0-0.1c0,0,0,0-0.1,0
					c-0.2,0.1-0.4,0.2-0.8,0.4C35.9,36.2,35.6,36.2,35.4,36.3z"/>
				<path class="st19" d="M37.7,36.2c-0.3,0.1-0.5,0.2-0.8,0.4c-0.3,0.1-0.5,0.2-0.8,0.3C35.9,37,35.8,37,35.6,37
					c-0.7,0.2-1.4,0.4-2.1,0.8c-0.2,0.1-0.4,0.2-0.6,0.3c-1.3,0.8-2.6,1.9-3.9,3.3v0.1l0,0l0,0c1.3-1.4,2.6-2.6,3.8-3.3
					c0.2-0.1,0.4-0.2,0.6-0.3c0.7-0.4,1.4-0.6,2.1-0.8c0.2,0,0.3-0.1,0.5-0.1c0.2-0.1,0.5-0.2,0.8-0.3
					C37.3,36.5,37.5,36.4,37.7,36.2C37.8,36.3,37.8,36.2,37.7,36.2C37.8,36.2,37.7,36.2,37.7,36.2z"/>
				<path class="st19" d="M10.6,38.6c0.2-0.1,0.3-0.3,0.5-0.4c0.7-0.6,1.3-1.2,2-1.7c0.2-0.1,0.4-0.2,0.6-0.4
					c1.2-0.7,2.5-1.2,3.7-1.3c0,0,0,0,0-0.1c0,0,0,0-0.1,0c-1.2,0.1-2.5,0.5-3.7,1.3c-0.2,0.1-0.4,0.2-0.6,0.4c-0.7,0.5-1.4,1-2,1.7
					C10.9,38.3,10.7,38.4,10.6,38.6c-0.4,0.2-0.7,0.4-0.9,0.7c-0.4,0.3-0.7,0.5-1,0.7c0,0,0,0,0,0.1l0,0l0,0c0.3-0.2,0.6-0.4,1-0.7
					S10.3,38.9,10.6,38.6z"/>
				<path class="st19" d="M11.5,39.1c0.2-0.1,0.3-0.3,0.5-0.4c0.7-0.6,1.3-1.2,2-1.7c0.2-0.1,0.4-0.2,0.6-0.4
					c1.2-0.7,2.5-1.2,3.7-1.2c0,0,0,0,0-0.1c0,0,0-0.1-0.1,0c-1.2,0.1-2.5,0.5-3.7,1.3c-0.2,0.1-0.4,0.2-0.6,0.4
					c-0.7,0.5-1.4,1-2,1.7C11.7,38.8,11.6,38.9,11.5,39.1c-0.4,0.2-0.7,0.4-0.9,0.7c-0.4,0.3-0.7,0.5-1,0.7c0,0,0,0,0,0.1l0,0l0,0
					c0.3-0.2,0.6-0.4,1-0.7C10.9,39.6,11.2,39.4,11.5,39.1z"/>
				<path class="st19" d="M12.3,39.6c0.2-0.1,0.3-0.3,0.5-0.4c0.7-0.6,1.3-1.2,2-1.7c0.2-0.1,0.4-0.3,0.6-0.4
					c1.2-0.7,2.4-1.2,3.6-1.2c0,0,0,0,0-0.1s0,0-0.1,0c-1.2,0.1-2.5,0.5-3.7,1.3c-0.2,0.1-0.4,0.2-0.6,0.4c-0.7,0.5-1.4,1-2,1.7
					C12.5,39.2,12.4,39.4,12.3,39.6c-0.4,0.2-0.7,0.4-0.9,0.7c-0.4,0.3-0.7,0.5-1,0.7c0,0,0,0,0,0.1l0,0l0,0c0.3-0.2,0.6-0.4,1-0.7
					C11.7,40.1,12,39.9,12.3,39.6z"/>
				<path class="st19" d="M13.1,40.1c0.2-0.1,0.3-0.3,0.5-0.4c0.7-0.6,1.3-1.2,2-1.7c0.2-0.1,0.4-0.3,0.6-0.4
					c1.2-0.7,2.4-1.1,3.6-1.2c0,0,0,0,0-0.1c0,0,0,0-0.1,0c-1.2,0.1-2.4,0.5-3.6,1.3c-0.2,0.1-0.4,0.2-0.6,0.4c-0.7,0.5-1.4,1-2,1.7
					C13.3,39.7,13.2,39.9,13.1,40.1c-0.4,0.2-0.6,0.4-0.9,0.7c-0.4,0.3-0.7,0.5-1,0.7c0,0,0,0,0,0.1l0,0l0,0c0.3-0.2,0.6-0.4,1-0.7
					C12.5,40.6,12.8,40.4,13.1,40.1z"/>
				<path class="st19" d="M13.9,40.6c0.2-0.1,0.3-0.3,0.5-0.4c0.7-0.6,1.3-1.2,2-1.7c0.2-0.1,0.4-0.3,0.6-0.4
					c1.2-0.7,2.4-1.1,3.6-1.2c0,0,0,0,0-0.1c0,0,0,0-0.1,0c-1.2,0.1-2.4,0.5-3.6,1.3c-0.2,0.1-0.4,0.2-0.6,0.4c-0.7,0.5-1.4,1-2,1.7
					C14.2,40.2,14,40.4,13.9,40.6c-0.4,0.2-0.6,0.4-0.9,0.7c-0.4,0.3-0.7,0.5-1,0.7c0,0,0,0,0,0.1l0,0l0,0c0.3-0.2,0.6-0.4,1-0.7
					C13.3,41.1,13.6,40.8,13.9,40.6z"/>
				<path class="st19" d="M14.7,41.1c0.2-0.1,0.3-0.3,0.5-0.4c0.7-0.6,1.3-1.2,2-1.7c0.2-0.1,0.4-0.3,0.6-0.4
					c1.2-0.7,2.4-1.1,3.5-1.2c0,0,0,0,0-0.1c0,0,0,0-0.1,0c-1.2,0.1-2.4,0.6-3.6,1.3c-0.2,0.1-0.4,0.2-0.6,0.4c-0.7,0.5-1.4,1-2,1.7
					C15,40.7,14.8,40.8,14.7,41.1c-0.4,0.2-0.6,0.4-0.9,0.7c-0.4,0.3-0.7,0.5-1,0.7c0,0,0,0,0,0.1l0,0l0,0c0.3-0.2,0.6-0.4,1-0.7
					S14.4,41.3,14.7,41.1z"/>
				<path class="st19" d="M15.6,41.5c0.2-0.1,0.3-0.3,0.5-0.4c0.7-0.6,1.3-1.2,2-1.7c0.2-0.1,0.4-0.3,0.6-0.4
					c1.1-0.7,2.4-1.1,3.5-1.2c0,0,0,0,0-0.1s0,0-0.1,0c-1.2,0.1-2.4,0.6-3.5,1.3c-0.2,0.1-0.4,0.2-0.6,0.4c-0.7,0.5-1.4,1-2,1.7
					C15.8,41.2,15.6,41.3,15.6,41.5c-0.4,0.2-0.6,0.4-0.9,0.7c-0.4,0.3-0.7,0.5-1,0.7c0,0,0,0,0,0.1l0,0l0,0c0.3-0.2,0.6-0.4,1-0.7
					C15,42.1,15.3,41.8,15.6,41.5z"/>
				<path class="st19" d="M16.4,42c0.2-0.1,0.3-0.3,0.5-0.4c0.7-0.6,1.3-1.2,2-1.7c0.2-0.1,0.4-0.3,0.6-0.4c1.1-0.7,2.3-1.1,3.5-1.2
					c0,0,0,0,0-0.1s0,0-0.1,0c-1.2,0.1-2.4,0.6-3.5,1.3c-0.2,0.1-0.4,0.2-0.6,0.4c-0.7,0.5-1.4,1-2.1,1.7
					C16.6,41.7,16.5,41.8,16.4,42c-0.4,0.2-0.6,0.4-0.9,0.7c-0.4,0.3-0.7,0.5-1,0.7c0,0,0,0,0,0.1l0,0l0,0c0.3-0.2,0.6-0.4,1.1-0.7
					C15.8,42.5,16.1,42.3,16.4,42z"/>
				<path class="st19" d="M17.2,42.5c0.2-0.1,0.3-0.3,0.5-0.4c0.7-0.6,1.4-1.2,2-1.7c0.2-0.1,0.4-0.3,0.6-0.4
					c1.1-0.7,2.3-1.1,3.4-1.2c0,0,0,0,0-0.1s0,0-0.1,0c-1.1,0.1-2.3,0.6-3.5,1.3c-0.2,0.1-0.4,0.2-0.6,0.4c-0.7,0.5-1.4,1-2.1,1.7
					C17.4,42.2,17.3,42.3,17.2,42.5c-0.4,0.2-0.6,0.4-0.9,0.6c-0.4,0.3-0.7,0.5-1.1,0.7c0,0,0,0,0,0.1l0,0l0,0
					c0.3-0.2,0.6-0.4,1.1-0.8C16.6,43,16.9,42.8,17.2,42.5z"/>
				<path class="st19" d="M18,43c0.2-0.1,0.3-0.3,0.5-0.4c0.7-0.6,1.4-1.2,2-1.7c0.2-0.1,0.4-0.3,0.6-0.4c1.1-0.7,2.3-1.1,3.4-1.2
					c0,0,0,0,0-0.1s0,0-0.1,0c-1.1,0.1-2.3,0.6-3.5,1.3c-0.2,0.1-0.4,0.2-0.6,0.4c-0.7,0.5-1.4,1.1-2.1,1.7
					C18.3,42.6,18.1,42.8,18,43c-0.4,0.2-0.6,0.4-0.9,0.6c-0.4,0.3-0.7,0.6-1.1,0.8c0,0,0,0,0,0.1l0,0l0,0c0.3-0.2,0.7-0.4,1.1-0.8
					C17.4,43.5,17.7,43.3,18,43z"/>
				<path class="st19" d="M18.8,43.5c0.2-0.1,0.3-0.3,0.5-0.4c0.7-0.6,1.4-1.2,2-1.7c0.2-0.1,0.4-0.3,0.6-0.4
					c1.1-0.7,2.3-1.1,3.4-1.2c0,0,0,0,0-0.1c0,0,0,0-0.1,0c-1.1,0.1-2.3,0.6-3.4,1.3c-0.2,0.1-0.4,0.2-0.6,0.4
					c-0.7,0.5-1.4,1.1-2.1,1.7C19.1,43.1,18.9,43.3,18.8,43.5c-0.4,0.2-0.6,0.4-0.9,0.6c-0.4,0.3-0.7,0.6-1.1,0.8c0,0,0,0,0,0.1l0,0
					l0,0c0.3-0.2,0.7-0.4,1.1-0.8C18.3,44,18.5,43.7,18.8,43.5z"/>
				<path class="st19" d="M19.6,44c0.2-0.1,0.3-0.3,0.5-0.4c0.7-0.6,1.4-1.2,2.1-1.7c0.2-0.1,0.4-0.3,0.6-0.4
					c1.1-0.7,2.3-1.1,3.4-1.2c0,0,0,0,0-0.1c0,0,0,0-0.1,0c-1.1,0.2-2.3,0.6-3.4,1.3c-0.2,0.1-0.4,0.2-0.6,0.4
					c-0.7,0.5-1.4,1.1-2.1,1.7C19.9,43.6,19.7,43.8,19.6,44c-0.4,0.2-0.6,0.4-0.9,0.6c-0.4,0.3-0.8,0.6-1.1,0.8c0,0,0,0,0,0.1l0,0
					l0,0c0.3-0.2,0.7-0.4,1.1-0.8C19.1,44.5,19.4,44.2,19.6,44z"/>
				<path class="st19" d="M20.5,44.5c0.2-0.1,0.3-0.3,0.5-0.4c0.7-0.6,1.4-1.2,2.1-1.7c0.2-0.1,0.4-0.3,0.6-0.4
					c1.1-0.7,2.2-1.1,3.3-1.2c0,0,0,0,0-0.1c0,0,0,0-0.1,0c-1.1,0.2-2.3,0.6-3.4,1.3c-0.2,0.1-0.4,0.2-0.6,0.4
					c-0.7,0.5-1.4,1.1-2.1,1.7C20.7,44.1,20.5,44.2,20.5,44.5c-0.4,0.2-0.6,0.4-0.9,0.6c-0.4,0.3-0.8,0.6-1.1,0.8c0,0,0,0,0,0.1l0,0
					l0,0c0.3-0.2,0.7-0.4,1.1-0.8C19.9,45,20.2,44.7,20.5,44.5z"/>
				<path class="st19" d="M21.3,44.9c0.2-0.1,0.3-0.3,0.5-0.4c0.7-0.7,1.4-1.2,2.1-1.7c0.2-0.1,0.4-0.3,0.6-0.4
					c1.1-0.6,2.2-1.1,3.3-1.2c0,0,0,0,0-0.1c0,0,0,0-0.1,0c-1.1,0.2-2.3,0.6-3.3,1.3c-0.2,0.1-0.4,0.2-0.6,0.4
					c-0.7,0.5-1.4,1.1-2.1,1.7C21.5,44.6,21.4,44.7,21.3,44.9c-0.4,0.2-0.6,0.4-0.9,0.6c-0.4,0.3-0.8,0.6-1.1,0.8c0,0,0,0,0,0.1l0,0
					l0,0c0.4-0.2,0.7-0.4,1.1-0.8C20.7,45.4,21,45.2,21.3,44.9z"/>
				<path class="st19" d="M25.2,42.8c-0.2,0.1-0.4,0.2-0.6,0.4c-0.7,0.5-1.4,1.1-2.1,1.7c-0.2,0.1-0.3,0.3-0.5,0.4
					c-0.3,0.3-0.6,0.5-0.9,0.7c-0.4,0.3-0.8,0.6-1.1,0.8c0,0,0,0,0,0.1l0,0l0,0c0.4-0.2,0.7-0.4,1.1-0.8c0.3-0.2,0.6-0.5,0.9-0.7
					c0.2-0.1,0.3-0.3,0.5-0.4c0.7-0.7,1.4-1.2,2.1-1.7C24.8,43.2,25,43,25.2,42.8c1.1-0.6,2.2-1,3.3-1.2c0,0,0,0,0-0.1
					c0,0,0,0-0.1,0C27.4,41.7,26.2,42.2,25.2,42.8z"/>
			</g>
		</g>
		<g>
			<g>
				<g>
					<g>
						<g class="st20">
							<g>
								<path class="st21" d="M29.1,41.9l-7.9-4.6l-0.1-0.1L29.1,41.9L29.1,41.9z"/>
							</g>
							<g>
								<path class="st22" d="M29.2,41.6c-0.1,0.1-0.1,0.1-0.1,0.2l-7.9-4.6l0.1-0.2L29.2,41.6z"/>
							</g>
							<g>
								<path class="st23" d="M29.4,41.5h-0.1c0,0-0.1,0-0.1,0.1l-8-4.6l0.2-0.1L29.4,41.5z"/>
							</g>
						</g>
					</g>
					<g>
						<polygon class="st24" points="30.3,42.2 30.3,42.3 30.3,42.3 30.3,42.3 30.2,42.3 30.3,42.3 						"/>
					</g>
					<path d="M30.3,42.2L30,42l0,0c0,0,0,0-0.1,0l-0.1,0.1l0,0L30.3,42.2C30.3,42.3,30.3,42.3,30.3,42.2
						C30.3,42.3,30.3,42.3,30.3,42.2z"/>
					<path class="st25" d="M21.7,37h-0.1l-0.1,0.1c0,0.1-0.1,0.1-0.1,0.2v0.1L21,37.1c0,0-0.1,0-0.1-0.1s0-0.1,0.1-0.2
						c0-0.1,0.1-0.1,0.1-0.1h0.1l0,0L21.7,37z"/>
					<path class="st26" d="M29.4,41.5L29.4,41.5L29.4,41.5z"/>
				</g>
				<path class="st27" d="M29.4,41.5L29.4,41.5L29.4,41.5c-0.1,0-0.2,0-0.2,0s0,0,0,0.1l0,0c0,0-0.1,0.1-0.1,0.2l0,0v0.1l0,0
					l0.8,0.3l0,0c0,0,0-0.1,0.1-0.1c0,0,0,0,0.1,0L29.4,41.5z"/>
			</g>
			
				<linearGradient id="SVGID_1_" gradientUnits="userSpaceOnUse" x1="21.7732" y1="-1015.1643" x2="21.5925" y2="-1015.4896" gradientTransform="matrix(1 0 0 -1 0 -978)">
				<stop  offset="0" style="stop-color:#78ACED"/>
				<stop  offset="1" style="stop-color:#4F7BB3"/>
			</linearGradient>
			<path class="st28" d="M22.1,37.3L22.1,37.3L22.1,37.3L21.7,37l0,0l0,0h-0.1l0,0h-0.1c-0.1,0-0.1,0.1-0.1,0.1
				c0,0.1-0.1,0.1-0.1,0.2c0,0,0,0.1,0.1,0.1h0.1l0,0l0,0l0.3,0.2l0,0l0,0l0.1,0.1l0,0l0,0l0,0c0,0,0,0,0-0.1l0,0v-0.1l0,0l0.1-0.1
				l0,0C22,37.3,22,37.2,22.1,37.3L22.1,37.3L22.1,37.3L22.1,37.3L22.1,37.3z"/>
		</g>
	</g>
</g>
<g id="Prosthetics">
	
		<radialGradient id="SVGID_00000142884351377953437600000010125973001565957269_" cx="-431.4619" cy="-1949.6182" r="15.9017" gradientTransform="matrix(1.5353 0 0 -0.4819 687.4234 -898.021)" gradientUnits="userSpaceOnUse">
		<stop  offset="0.4351" style="stop-color:#B4BCC1"/>
		<stop  offset="0.94" style="stop-color:#ECEEEF;stop-opacity:0"/>
	</radialGradient>
	<ellipse style="fill:url(#SVGID_00000142884351377953437600000010125973001565957269_);" cx="25" cy="41.5" rx="24.4" ry="7.7"/>
	<g>
		<g id="Leg">
			<g>
				<path class="st30" d="M32.916,40l-0.463-0.267c-0.295-0.171-0.508-0.669-0.365-1.162c0.302-1.043,0.602-1.363,0.602-1.363
					l0.538,0.428l0.248,0.037l0.028,1.989L32.916,40z"/>
				<path class="st30" d="M33.706,40.265c-0.001,0.002,0.002,0.227,0,0.229c0,0,0.895,0.765,1.514,1.2l0.003-0.003
					c1.175,0.795,2.715,0.303,2.97-0.035c0.106-0.139,0.096-0.349,0.049-0.531C38.242,41.126,33.947,40.292,33.706,40.265z"/>
				<path class="st31" d="M32.916,39.809l-0.463-0.267c-0.295-0.171-0.508-0.668-0.365-1.162c0.302-1.043,0.602-1.364,0.602-1.364
					l0.538,0.428l0.248,0.037l-0.089,1.834L32.916,39.809z"/>
				<g>
					<path class="st32" d="M35.22,38.889c0-0.453-0.318-1.003-0.71-1.23c-0.194-0.112-0.37-0.123-0.498-0.052l-0.217,0.125
						l1.018,1.73l0.195-0.112C35.139,39.277,35.22,39.117,35.22,38.889z"/>
					<path class="st33" d="M35.01,39.01c0-0.453-0.318-1.003-0.71-1.229c-0.194-0.112-0.37-0.124-0.498-0.052l-0.91,0.525
						l0.996,1.743l0.91-0.526C34.929,39.398,35.01,39.238,35.01,39.01z"/>
					<path class="st32" d="M34.1,39.535c0-0.453-0.318-1.003-0.709-1.229c-0.195-0.112-0.37-0.124-0.498-0.052l-0.217,0.125
						l1.018,1.73l0.195-0.112C34.019,39.924,34.1,39.764,34.1,39.535z"/>
					<path class="st34" d="M33.883,39.661c0,0.453-0.317,0.637-0.71,0.41c-0.392-0.226-0.71-0.777-0.71-1.229
						c0-0.453,0.318-0.636,0.71-0.41C33.565,38.658,33.883,39.208,33.883,39.661z"/>
					<path class="st32" d="M33.54,39.748c-0.081,0.087-0.215,0.097-0.367,0.009c-0.247-0.142-0.448-0.49-0.448-0.775
						c0-0.176,0.076-0.288,0.193-0.314c-0.052,0.055-0.082,0.139-0.082,0.25c0,0.286,0.2,0.633,0.447,0.775
						C33.379,39.748,33.467,39.764,33.54,39.748z"/>
					<path class="st35" d="M33.621,39.499c0,0.11-0.03,0.195-0.081,0.249c-0.073,0.016-0.161,0-0.256-0.055
						c-0.247-0.143-0.447-0.49-0.447-0.775c0-0.111,0.029-0.195,0.082-0.25c0.072-0.016,0.159,0.001,0.254,0.055
						C33.42,38.866,33.621,39.213,33.621,39.499z"/>
				</g>
				<polygon points="33.368,38.153 33.155,38.277 33.155,37.563 33.368,37.62 				"/>
				<path class="st31" d="M33.155,38.277c0,0-0.318-0.136-0.549,0.078l0.153-1.2l0.395,0.391V38.277z"/>
				<polygon class="st33" points="33.712,40.258 34.016,40.082 34.042,40.295 33.872,40.355 				"/>
				<path class="st31" d="M35.184,37.012l-1.888,0.592v0.754c0.001,0.001,0.003,0.001,0.004,0.002
					c0.43,0.248,0.779,0.852,0.779,1.349c0,0.322-0.146,0.519-0.366,0.551c0,0-0.004,0.004-0.006,0.007c0,0,0.895,0.779,1.514,1.213
					l1.77-1.898C36.169,38.783,35.184,37.711,35.184,37.012z"/>
				<path class="st35" d="M35.187,41.451c1.18,0.829,2.748,0.329,3.006-0.011c0.195-0.257-0.003-0.754-0.107-0.869
					c-0.134-0.148-0.576-0.536-1.079-1.024c0,0-0.947,0.261-1.571,0.907C35.131,40.772,35.187,41.451,35.187,41.451z"/>
				<path class="st30" d="M35.184,36.72h-0.108c-0.061-0.079-0.146-0.153-0.258-0.218c-0.487-0.281-1.276-0.281-1.763,0
					c-0.112,0.065-0.197,0.139-0.257,0.218H32.69l0,0.296c0.002,0.183,0.123,0.365,0.365,0.505c0.487,0.281,1.277,0.281,1.763,0
					c0.242-0.14,0.363-0.322,0.366-0.505V36.72z"/>
				<path class="st35" d="M34.818,37.233c-0.487,0.281-1.276,0.281-1.763,0c-0.487-0.281-0.487-0.737,0-1.018
					c0.487-0.281,1.277-0.281,1.763,0C35.306,36.496,35.306,36.952,34.818,37.233z"/>
				<path d="M35.184,34.703l-2.111-0.121v2.141c0,0.128,0.084,0.256,0.253,0.353c0.337,0.195,0.884,0.195,1.222,0
					c0.169-0.097,0.253-0.225,0.253-0.353l0,0C34.802,36.724,34.921,35.532,35.184,34.703z"/>
			</g>
			<g>
				<path class="st31" d="M37.009,29.539l-3.579-0.123c0,0-0.65,0.932-0.702,1.277c-0.144,0.956,0.19,3.77,0.19,3.77h0.001
					c0.012,0.174,0.132,0.345,0.363,0.478c0.487,0.281,1.276,0.281,1.763,0c0.2-0.116,0.316-0.261,0.352-0.411L37.009,29.539z"/>
				<path class="st30" d="M37.057,29.299v-0.325h-0.09c-0.086-0.152-0.234-0.296-0.443-0.417c-0.711-0.41-1.863-0.41-2.573,0
					c-0.21,0.121-0.357,0.265-0.443,0.417h-0.09V29.3l0,0c0,0.269,0.178,0.537,0.533,0.743c0.71,0.41,1.862,0.41,2.573,0
					C36.88,29.837,37.057,29.568,37.057,29.299z"/>
				<path class="st35" d="M36.524,29.717c-0.711,0.41-1.863,0.41-2.573,0c-0.71-0.41-0.71-1.075,0-1.486
					c0.71-0.41,1.862-0.41,2.573,0C37.235,28.641,37.235,29.307,36.524,29.717z"/>
			</g>
			<g>
				<path class="st32" d="M37.143,28.114c0-0.583-0.41-1.291-0.914-1.583c-0.25-0.144-0.476-0.159-0.641-0.067l-0.28,0.161
					l1.31,2.227l0.251-0.145C37.039,28.613,37.143,28.408,37.143,28.114z"/>
				<path class="st33" d="M36.872,28.269c0-0.583-0.409-1.291-0.914-1.582c-0.249-0.144-0.476-0.159-0.641-0.067l-1.171,0.677
					l1.282,2.243l1.172-0.677C36.768,28.768,36.872,28.563,36.872,28.269z"/>
				<path class="st32" d="M35.701,28.945c0-0.582-0.409-1.291-0.914-1.582c-0.249-0.144-0.476-0.159-0.641-0.067l-0.279,0.161
					l1.31,2.227l0.251-0.145C35.597,29.445,35.701,29.24,35.701,28.945z"/>
				<path class="st34" d="M35.422,29.107c0,0.583-0.409,0.819-0.914,0.527c-0.505-0.291-0.914-1-0.914-1.582
					s0.409-0.819,0.914-0.527C35.013,27.816,35.422,28.524,35.422,29.107z"/>
				<path class="st32" d="M34.98,29.219c-0.103,0.112-0.276,0.124-0.472,0.011c-0.318-0.184-0.576-0.63-0.576-0.998
					c0-0.227,0.098-0.371,0.248-0.404c-0.066,0.07-0.105,0.18-0.105,0.322c0,0.367,0.258,0.814,0.576,0.998
					C34.774,29.218,34.887,29.24,34.98,29.219z"/>
				<path class="st35" d="M35.084,28.898c0,0.141-0.039,0.251-0.104,0.321c-0.093,0.021-0.206-0.001-0.328-0.071
					c-0.318-0.183-0.576-0.63-0.576-0.998c0-0.142,0.039-0.251,0.105-0.322c0.093-0.021,0.206,0.001,0.328,0.071
					C34.826,28.083,35.084,28.53,35.084,28.898z"/>
			</g>
			<g>
				<path class="st31" d="M37.405,18.526l-5.354,0.124l1.483,8.231c0.041,0.236,0.218,0.465,0.531,0.645
					c0.72,0.416,1.887,0.416,2.607,0c0.36-0.208,0.54-0.48,0.54-0.753l0,0L37.405,18.526z"/>
				<path class="st30" d="M37.405,18.525v-0.479h-0.132c-0.126-0.225-0.344-0.436-0.653-0.615c-1.047-0.605-2.745-0.605-3.792,0
					c-0.309,0.179-0.527,0.39-0.653,0.615h-0.132v0.48l0,0c0,0.396,0.262,0.792,0.785,1.095c1.047,0.604,2.745,0.604,3.792,0
					C37.144,19.318,37.406,18.921,37.405,18.525z"/>
				<path class="st35" d="M36.62,19.141c-1.047,0.605-2.745,0.605-3.792,0c-1.047-0.605-1.047-1.585,0-2.19
					c1.047-0.604,2.745-0.604,3.792,0C37.667,17.556,37.667,18.536,36.62,19.141z"/>
			</g>
			<g>
				<path class="st31" d="M37.738,15.719c0-0.708-0.497-1.568-1.11-1.922c-0.303-0.175-0.577-0.193-0.778-0.081l-2.67,1.542
					l1.591,2.704l2.637-1.521C37.611,16.326,37.738,16.076,37.738,15.719z"/>
				<path class="st34" d="M35.067,17.261c0,0.707-0.497,0.994-1.109,0.641c-0.614-0.354-1.11-1.214-1.11-1.922
					c0-0.708,0.496-0.995,1.11-0.64C34.571,15.693,35.067,16.554,35.067,17.261z"/>
				<path class="st32" d="M34.531,17.398c-0.125,0.136-0.335,0.151-0.573,0.014c-0.387-0.223-0.7-0.766-0.7-1.212
					c0-0.275,0.119-0.45,0.301-0.491c-0.08,0.086-0.127,0.218-0.127,0.391c0,0.446,0.313,0.989,0.7,1.211
					C34.28,17.396,34.418,17.423,34.531,17.398z"/>
				<path class="st35" d="M34.657,17.008c0,0.172-0.046,0.304-0.126,0.39c-0.112,0.025-0.251-0.001-0.399-0.087
					c-0.387-0.223-0.7-0.766-0.7-1.211c0-0.173,0.047-0.305,0.127-0.391c0.113-0.025,0.25,0.001,0.399,0.087
					C34.344,16.019,34.657,16.561,34.657,17.008z"/>
			</g>
			<g>
				<path class="st32" d="M35.927,17.319c0-1.011-0.709-2.241-1.585-2.747c-0.434-0.25-0.826-0.276-1.113-0.116l-0.484,0.279
					l2.273,3.864l0.437-0.25C35.746,18.186,35.927,17.829,35.927,17.319z"/>
				<path class="st33" d="M35.443,17.598c0-1.012-0.71-2.241-1.586-2.747c-0.433-0.25-0.826-0.276-1.112-0.116l-0.494,0.285
					l2.225,3.893l0.494-0.285C35.262,18.465,35.443,18.108,35.443,17.598z"/>
				<path class="st32" d="M34.949,17.884c0-1.011-0.71-2.241-1.586-2.747c-0.433-0.25-0.826-0.276-1.112-0.116L31.767,15.3
					l2.273,3.865l0.436-0.251C34.768,18.751,34.949,18.394,34.949,17.884z"/>
				<path class="st34" d="M34.464,18.163c0,1.011-0.709,1.422-1.586,0.916c-0.876-0.506-1.586-1.735-1.586-2.747
					c0-1.011,0.709-1.421,1.586-0.916C33.754,15.923,34.464,17.152,34.464,18.163z"/>
				<path class="st32" d="M33.698,18.358c-0.179,0.194-0.48,0.216-0.82,0.02c-0.552-0.318-1-1.094-1-1.732
					c0-0.394,0.17-0.643,0.431-0.702c-0.115,0.122-0.182,0.311-0.182,0.558c0,0.638,0.448,1.414,1,1.732
					C33.339,18.357,33.537,18.394,33.698,18.358z"/>
				<path class="st35" d="M33.878,17.801c0,0.245-0.067,0.435-0.181,0.557c-0.161,0.037-0.359-0.001-0.57-0.123
					c-0.552-0.318-1-1.094-1-1.732c0-0.247,0.067-0.436,0.182-0.558c0.161-0.037,0.358,0.001,0.568,0.123
					C33.43,16.387,33.878,17.163,33.878,17.801z"/>
			</g>
		</g>
		<g id="Arm">
			<g>
				<path class="st32" d="M24.904,24.354c0-0.747,0.525-1.656,1.171-2.03c0.321-0.185,0.61-0.204,0.823-0.086l0.358,0.206
					l-1.681,2.856l-0.322-0.185C25.037,24.995,24.904,24.731,24.904,24.354z"/>
				<path class="st33" d="M25.262,24.56c0-0.747,0.524-1.656,1.172-2.03c0.32-0.185,0.61-0.204,0.823-0.086l2.858,1.651
					l-1.644,2.878l-2.858-1.651C25.396,25.201,25.262,24.937,25.262,24.56z"/>
				<path class="st32" d="M28.121,26.211c0-0.747,0.525-1.656,1.172-2.03c0.32-0.185,0.61-0.204,0.822-0.086l0.358,0.206
					l-1.68,2.856l-0.322-0.185C28.254,26.852,28.121,26.588,28.121,26.211z"/>
				<path class="st34" d="M28.479,26.418c0,0.747,0.524,1.05,1.172,0.676c0.648-0.374,1.172-1.282,1.172-2.03
					c0-0.747-0.524-1.05-1.172-0.677C29.004,24.762,28.479,25.67,28.479,26.418z"/>
				<path class="st32" d="M29.046,26.561c0.132,0.143,0.354,0.16,0.605,0.015c0.408-0.236,0.739-0.809,0.739-1.28
					c0-0.291-0.126-0.475-0.319-0.519c0.085,0.09,0.134,0.23,0.134,0.412c0,0.472-0.331,1.045-0.739,1.28
					C29.311,26.561,29.165,26.588,29.046,26.561z"/>
				<path class="st35" d="M28.912,26.15c0,0.182,0.049,0.321,0.134,0.412c0.119,0.027,0.265-0.001,0.421-0.091
					c0.408-0.235,0.739-0.809,0.739-1.28c0-0.182-0.049-0.322-0.134-0.412c-0.119-0.027-0.264,0.001-0.42,0.091
					C29.243,25.105,28.912,25.678,28.912,26.15z"/>
			</g>
			<g>
				<path class="st34" d="M24.677,25.148l0.341-0.482c0.198-0.294,0.591-0.406,1.101-0.257c0.877,0.255,1.763,1.18,1.981,2.067
					c0.106,0.432,0.033,0.774-0.171,0.983l0.001,0l-0.329,0.357L24.677,25.148z"/>
				<path class="st31" d="M24.677,25.144L24.677,25.144c0.192-0.266,0.56-0.374,1.042-0.254c0.868,0.215,1.773,1.086,2.02,1.946
					c0.123,0.426,0.061,0.77-0.139,0.981l0,0l-2.801,3.314l-2.678-2.431L24.677,25.144z"/>
				<path class="st34" d="M21.918,29.027l0.178-0.289c0.167-0.27,0.514-0.384,0.975-0.269c0.793,0.196,1.619,0.992,1.845,1.776
					c0.11,0.382,0.057,0.691-0.117,0.885l0.001,0l-0.181,0.24L21.918,29.027z"/>
				<path class="st31" d="M23.35,32.94l-2.364-1.996c0.361-0.963,0.884-1.839,0.884-1.839l0,0c0.153-0.298,0.509-0.429,0.99-0.31
					c0.784,0.194,1.602,0.982,1.827,1.759c0.102,0.356,0.062,0.648-0.087,0.841l0.001,0l-0.006,0.007
					c-0.003,0.004-0.006,0.007-0.009,0.011L23.35,32.94z"/>
				<path class="st34" d="M20.878,31.279l0.061-0.212c0.093-0.341,0.428-0.506,0.905-0.388c0.681,0.169,1.391,0.852,1.585,1.526
					c0.097,0.337,0.047,0.608-0.112,0.774L23.2,33.11l-0.03-0.024c-0.158,0.08-0.371,0.097-0.623,0.034
					c-0.681-0.169-1.39-0.852-1.585-1.526c-0.03-0.103-0.046-0.2-0.048-0.29L20.878,31.279z"/>
				<path class="st32" d="M20.891,31.821c0.188,0.65,0.872,1.309,1.529,1.472c0.656,0.163,1.037-0.232,0.849-0.882
					c-0.187-0.65-0.872-1.309-1.528-1.472C21.084,30.775,20.704,31.17,20.891,31.821z"/>
			</g>
			<g>
				<path class="st32" d="M19.012,33.063c0-0.684,0.481-1.516,1.073-1.858c0.294-0.169,0.559-0.187,0.753-0.078l0.327,0.189
					l-1.538,2.614l-0.295-0.17C19.135,33.649,19.012,33.408,19.012,33.063z"/>
				<path class="st33" d="M19.33,33.245c0-0.684,0.48-1.516,1.072-1.858c0.293-0.169,0.558-0.187,0.752-0.078l1.375,0.794
					l-1.505,2.634l-1.375-0.795C19.452,33.831,19.33,33.59,19.33,33.245z"/>
				<path class="st32" d="M20.705,34.039c0-0.684,0.48-1.516,1.073-1.858c0.293-0.169,0.559-0.187,0.752-0.079l0.328,0.189
					l-1.538,2.614l-0.295-0.169C20.827,34.626,20.705,34.384,20.705,34.039z"/>
				<path class="st34" d="M21.033,34.229c0,0.684,0.48,0.961,1.072,0.619c0.593-0.342,1.073-1.173,1.073-1.858
					c0-0.684-0.48-0.961-1.073-0.619C21.513,32.713,21.033,33.545,21.033,34.229z"/>
				<path class="st32" d="M21.552,34.36c0.12,0.131,0.324,0.146,0.554,0.014c0.374-0.216,0.677-0.74,0.677-1.172
					c0-0.266-0.116-0.435-0.292-0.474c0.078,0.082,0.123,0.21,0.123,0.378c0,0.432-0.303,0.956-0.676,1.172
					C21.794,34.359,21.66,34.385,21.552,34.36z"/>
				<path class="st35" d="M21.429,33.984c0,0.166,0.045,0.294,0.123,0.377c0.109,0.025,0.242-0.001,0.386-0.083
					c0.373-0.215,0.676-0.74,0.676-1.172c0-0.167-0.045-0.295-0.123-0.378c-0.109-0.025-0.242,0.001-0.385,0.083
					C21.732,33.027,21.429,33.552,21.429,33.984z"/>
			</g>
			<g>
				<path class="st34" d="M19.535,31.817c0.047-0.058,0.094-0.11,0.143-0.155l0.044-0.278l0.521,0.027
					c0.29,0.005,0.555,0.217,0.713,0.626c0.287,0.741,0.116,1.843-0.382,2.462c-0.266,0.33-0.571,0.456-0.841,0.389l-0.478-0.114
					l0.032-0.233c-0.05-0.076-0.095-0.163-0.134-0.263C18.866,33.538,19.037,32.436,19.535,31.817z"/>
				<path class="st31" d="M19.123,34.736c-0.001,0-0.002-0.001-0.004-0.001l-3.852-1.621l0.38-2.42l4.075,0.69
					c0.275,0.013,0.525,0.219,0.676,0.608c0.279,0.72,0.113,1.792-0.371,2.394c-0.284,0.353-0.615,0.466-0.896,0.353v0
					L19.123,34.736z"/>
				<path class="st34" d="M15.09,30.969c0.079-0.098,0.162-0.168,0.248-0.215l0.023-0.128l0.259,0.064
					c0.187,0.02,0.356,0.166,0.46,0.433c0.199,0.515,0.08,1.282-0.266,1.713c-0.19,0.235-0.408,0.32-0.599,0.266v0.001l-0.299-0.083
					l0.023-0.125c-0.043-0.059-0.082-0.129-0.115-0.212C14.625,32.167,14.743,31.4,15.09,30.969z"/>
				<path class="st32" d="M14.775,30.895c-0.344,0.428-0.463,1.19-0.264,1.703c0.198,0.512,0.639,0.581,0.983,0.153
					c0.344-0.428,0.463-1.191,0.264-1.703C15.56,30.535,15.12,30.467,14.775,30.895z"/>
			</g>
			<g>
				<g>
					<path class="st33" d="M10.962,30.429l0.817-0.252l0.11,0.759l-0.831,0.026C10.919,30.976,10.817,30.47,10.962,30.429z"/>
					<path class="st36" d="M11.656,30.304c-0.068,0.159-0.039,0.401,0.065,0.54c0.104,0.139,0.244,0.122,0.311-0.037
						c0.068-0.159,0.039-0.401-0.065-0.54C11.863,30.128,11.724,30.144,11.656,30.304z"/>
				</g>
				<path class="st34" d="M11.675,30.541c0.008,0.195,0.173,0.347,0.368,0.338c0.195-0.008,0.347-0.173,0.338-0.368
					c-0.008-0.195-0.173-0.346-0.368-0.338C11.818,30.181,11.666,30.346,11.675,30.541z"/>
				<g>
					<path class="st33" d="M12.203,30.129l0.792-0.054l0.054,0.767l-0.792,0.054c-0.057,0.004-0.116-0.03-0.164-0.101
						c-0.097-0.144-0.114-0.386-0.038-0.542C12.092,30.174,12.146,30.133,12.203,30.129z"/>
					<path class="st36" d="M12.846,30.198c-0.076,0.155-0.059,0.398,0.038,0.542c0.097,0.144,0.237,0.134,0.313-0.022
						c0.076-0.156,0.059-0.398-0.038-0.542C13.062,30.032,12.922,30.042,12.846,30.198z"/>
				</g>
				<path class="st34" d="M12.87,30.552c0.06,0.217,0.306,0.339,0.55,0.271c0.243-0.068,0.392-0.298,0.332-0.516
					c-0.061-0.217-0.307-0.339-0.55-0.271C12.957,30.104,12.809,30.334,12.87,30.552z"/>
				<path class="st31" d="M13.031,30.728c0,0.231,0.163,0.325,0.363,0.209c0.2-0.115,0.362-0.396,0.362-0.627
					c0-0.231-0.162-0.325-0.362-0.21C13.194,30.216,13.031,30.497,13.031,30.728z"/>
				<path class="st31" d="M15.124,33.04c0.323-0.174,0.446-1.498,0.268-2.058c-0.108-0.342-0.47-0.45-0.47-0.45
					s-0.72-0.282-1.312-0.474l-0.282,0.455l-0.757,0.406l0.204,2.82l0.3,0.285C14.122,33.721,15.124,33.04,15.124,33.04z"/>
				<path class="st33" d="M12.833,30.95c0.211,0.122,0.382,0.418,0.382,0.661v2.153c0,0.244-0.171,0.342-0.382,0.22
					c-0.211-0.122-0.382-0.418-0.382-0.661V31.17C12.452,30.927,12.623,30.828,12.833,30.95z"/>
				<path class="st34" d="M12.262,33.68c0.023,0.187,0.211,0.317,0.42,0.292c0.209-0.026,0.36-0.198,0.338-0.385
					c-0.023-0.186-0.211-0.317-0.42-0.292C12.39,33.321,12.239,33.493,12.262,33.68z"/>
				<g>
					<path class="st33" d="M10.524,33.161l0.9,0.161l-0.168,0.574l-0.828-0.323C10.325,33.538,10.409,33.143,10.524,33.161z"/>
					<path class="st36" d="M11.296,33.372c-0.1,0.091-0.158,0.272-0.129,0.404c0.029,0.132,0.133,0.165,0.233,0.075
						c0.1-0.091,0.158-0.272,0.129-0.404C11.5,33.315,11.396,33.282,11.296,33.372z"/>
				</g>
				<g>
					<path class="st33" d="M12.435,33.995l-0.82-0.031l0.023-0.599l0.82,0.031c0.044,0.002,0.087,0.032,0.118,0.093
						c0.063,0.12,0.056,0.309-0.016,0.424C12.524,33.969,12.479,33.997,12.435,33.995z"/>
					<path class="st36" d="M11.741,33.881c0.072-0.115,0.079-0.304,0.016-0.424c-0.063-0.12-0.172-0.124-0.245-0.009
						c-0.072,0.114-0.079,0.304-0.016,0.424C11.559,33.991,11.669,33.995,11.741,33.881z"/>
				</g>
				<path class="st32" d="M11.215,33.623c-0.018,0.151,0.088,0.289,0.239,0.309c0.151,0.019,0.289-0.088,0.308-0.239
					c0.019-0.151-0.087-0.289-0.239-0.308C11.372,33.365,11.234,33.472,11.215,33.623z"/>
				<g>
					<path class="st31" d="M10.21,32.768l1.13,0.116l-0.139,0.674l-1.062-0.308C10.017,33.218,10.076,32.758,10.21,32.768z"/>
					<path class="st36" d="M11.197,32.952c-0.106,0.114-0.155,0.326-0.11,0.475c0.046,0.149,0.168,0.177,0.274,0.064
						c0.106-0.114,0.156-0.326,0.11-0.475C11.425,32.867,11.303,32.839,11.197,32.952z"/>
				</g>
				<path class="st34" d="M12.377,33.252c0.023,0.187,0.211,0.318,0.419,0.292c0.209-0.025,0.361-0.198,0.338-0.384
					c-0.023-0.187-0.211-0.318-0.42-0.292C12.505,32.894,12.354,33.065,12.377,33.252z"/>
				<g>
					<path class="st31" d="M12.562,33.558l-0.942,0.042l-0.031-0.689l0.942-0.042c0.051-0.002,0.103,0.029,0.145,0.095
						c0.084,0.131,0.093,0.349,0.022,0.487C12.662,33.52,12.612,33.556,12.562,33.558z"/>
					<path class="st36" d="M11.755,33.493c0.071-0.138,0.062-0.356-0.022-0.487c-0.084-0.131-0.21-0.125-0.281,0.013
						c-0.072,0.138-0.062,0.356,0.022,0.487C11.558,33.637,11.684,33.631,11.755,33.493z"/>
				</g>
				<path class="st34" d="M11.128,33.248c-0.007,0.175,0.128,0.323,0.303,0.331c0.175,0.008,0.323-0.128,0.331-0.303
					c0.008-0.175-0.128-0.323-0.303-0.331C11.284,32.937,11.136,33.073,11.128,33.248z"/>
				<g>
					<path class="st33" d="M9.849,32.207l1.266,0.02l-0.089,0.762l-1.21-0.24C9.678,32.725,9.699,32.208,9.849,32.207z"/>
					<path class="st36" d="M10.963,32.317c-0.107,0.136-0.141,0.378-0.077,0.538c0.065,0.161,0.204,0.181,0.311,0.044
						c0.106-0.136,0.141-0.377,0.076-0.538C11.209,32.201,11.069,32.181,10.963,32.317z"/>
				</g>
				<path class="st34" d="M12.25,32.523c0.032,0.209,0.249,0.351,0.484,0.315c0.235-0.036,0.4-0.235,0.368-0.445
					c-0.032-0.21-0.249-0.351-0.484-0.315C12.382,32.114,12.218,32.313,12.25,32.523z"/>
				<path class="st34" d="M12.197,31.679c0.052,0.206,0.28,0.326,0.511,0.268c0.231-0.058,0.376-0.271,0.324-0.477
					c-0.052-0.206-0.28-0.326-0.511-0.268C12.291,31.259,12.146,31.473,12.197,31.679z"/>
				<g>
					<path class="st33" d="M12.536,32.859l-1.042,0.137l-0.101-0.762l1.042-0.137c0.056-0.007,0.117,0.022,0.17,0.091
						c0.105,0.137,0.137,0.379,0.071,0.539C12.644,32.807,12.592,32.851,12.536,32.859z"/>
					<path class="st36" d="M11.635,32.864c0.066-0.16,0.035-0.401-0.071-0.539c-0.106-0.137-0.245-0.119-0.311,0.041
						c-0.067,0.16-0.035,0.401,0.07,0.539C11.429,33.042,11.568,33.024,11.635,32.864z"/>
				</g>
				<path class="st32" d="M10.915,32.652c0.008,0.195,0.173,0.347,0.368,0.338c0.196-0.008,0.347-0.173,0.339-0.368
					c-0.008-0.195-0.173-0.347-0.368-0.338C11.058,32.292,10.906,32.457,10.915,32.652z"/>
				<g>
					<path class="st31" d="M12.505,32.003l-1.018,0.262l-0.192-0.744l1.018-0.262c0.055-0.014,0.119,0.008,0.18,0.07
						c0.122,0.124,0.182,0.359,0.135,0.526C12.606,31.938,12.56,31.989,12.505,32.003z"/>
					<path class="st36" d="M11.611,32.117c0.046-0.167-0.015-0.403-0.136-0.526c-0.121-0.124-0.257-0.089-0.304,0.078
						c-0.046,0.167,0.015,0.402,0.136,0.526C11.429,32.319,11.564,32.284,11.611,32.117z"/>
				</g>
				<g>
					<path class="st31" d="M9.937,31.807l1.077-0.225l0.071,0.764l-1.068-0.001C9.877,32.35,9.791,31.84,9.937,31.807z"/>
					<path class="st36" d="M10.884,31.702c-0.076,0.155-0.059,0.398,0.037,0.542c0.097,0.144,0.237,0.134,0.313-0.021
						c0.076-0.156,0.06-0.398-0.037-0.542C11.101,31.536,10.961,31.546,10.884,31.702z"/>
				</g>
				<path class="st34" d="M10.879,31.954c0.008,0.195,0.173,0.347,0.368,0.338c0.195-0.008,0.347-0.173,0.339-0.368
					c-0.008-0.195-0.173-0.347-0.368-0.338C11.022,31.594,10.871,31.758,10.879,31.954z"/>
			</g>
		</g>
	</g>
</g>
</svg>
