<?xml version="1.0" encoding="utf-8"?>
<!-- Generator: Adobe Illustrator 24.2.1, SVG Export Plug-In . SVG Version: 6.00 Build 0)  -->
<svg version="1.1" id="Layer_1" xmlns="http://www.w3.org/2000/svg" xmlns:xlink="http://www.w3.org/1999/xlink" x="0px" y="0px"
	 viewBox="0 0 60 60" style="enable-background:new 0 0 60 60;" xml:space="preserve">
<g id="_x30_KT9Kl.tif">
	<g>
		<path class="grey-fill" d="M33.742,17.372c0,0.421,0,0.814,0,1.208c0,1.204-0.001,2.408-0.001,3.612c0,0.517,0.128,0.645,0.636,0.645
			c1.6,0,3.199,0,4.799,0c0.083,0,0.165,0,0.271,0c0.006,0.113,0.015,0.202,0.015,0.292c0.001,6.13,0,12.26,0,18.39
			c0,0.067,0.001,0.135-0.001,0.202c-0.015,0.582-0.335,0.903-0.918,0.905c-1.499,0.003-2.997,0.001-4.496,0.001
			c-4.167,0-8.335,0-12.502,0c-0.698,0-1.004-0.303-1.004-0.997c-0.001-7.738-0.001-15.477,0-23.215c0-0.762,0.289-1.043,1.06-1.043
			c3.94,0,7.88,0,11.82,0C33.511,17.372,33.604,17.372,33.742,17.372z M30.15,30.955c0.397-0.122,0.761-0.202,1.099-0.344
			c1.193-0.5,1.79-1.5,1.733-2.856c-0.048-1.163-0.739-2.026-1.949-2.422c-0.567-0.186-1.138-0.358-1.706-0.542
			c-0.401-0.13-0.716-0.375-0.915-0.748c-0.263-0.491-0.274-0.992,0.05-1.456c0.323-0.463,0.785-0.696,1.352-0.609
			c0.545,0.083,0.905,0.416,1.072,0.947c0.058,0.184,0.112,0.37,0.173,0.553c0.077,0.232,0.24,0.382,0.47,0.457
			c0.349,0.114,0.668,0.056,0.94-0.191c0.295-0.269,0.344-0.615,0.234-0.975c-0.33-1.081-1.089-1.737-2.146-2.05
			c-0.287-0.085-0.437-0.159-0.423-0.496c0.013-0.3-0.254-0.518-0.538-0.534c-0.286-0.015-0.536,0.184-0.592,0.479
			c-0.016,0.082-0.02,0.168-0.014,0.251c0.012,0.144-0.049,0.189-0.187,0.235c-0.333,0.11-0.67,0.228-0.973,0.4
			c-1.812,1.029-1.837,3.754-0.251,4.764c0.604,0.384,1.256,0.633,1.929,0.854c0.397,0.13,0.798,0.272,1.16,0.474
			c0.783,0.438,0.622,1.518,0.159,1.94c-0.841,0.766-2.124,0.578-2.671-0.419c-0.109-0.198-0.193-0.411-0.285-0.618
			c-0.168-0.374-0.457-0.553-0.858-0.529c-0.387,0.024-0.702,0.277-0.815,0.647c-0.093,0.303-0.013,0.585,0.111,0.856
			c0.447,0.98,1.198,1.587,2.259,1.785c0.283,0.053,0.462,0.106,0.443,0.468c-0.017,0.322,0.282,0.552,0.582,0.538
			c0.308-0.014,0.533-0.245,0.557-0.578C30.156,31.137,30.15,31.037,30.15,30.955z M29.995,33.693c2.172,0,4.344,0,6.516,0
			c0.076,0,0.153,0.004,0.227-0.008c0.216-0.035,0.371-0.21,0.365-0.42c-0.006-0.219-0.121-0.367-0.337-0.414
			c-0.105-0.023-0.217-0.019-0.326-0.019c-4.251-0.001-8.503-0.001-12.754,0c-0.135,0-0.271-0.008-0.404,0.008
			c-0.23,0.027-0.394,0.21-0.394,0.423c0,0.224,0.174,0.406,0.415,0.429c0.067,0.006,0.135,0.003,0.202,0.003
			C25.668,33.693,27.831,33.693,29.995,33.693z M29.994,38.243c-2.155,0-4.31,0-6.465,0c-0.427,0-0.642,0.147-0.641,0.437
			c0.001,0.286,0.208,0.421,0.648,0.422c3.249,0,6.499,0,9.748,0c1.111,0,2.222,0.001,3.333-0.001
			c0.289-0.001,0.473-0.158,0.485-0.403c0.013-0.255-0.172-0.436-0.467-0.453c-0.059-0.003-0.118-0.001-0.177-0.001
			C34.304,38.244,32.149,38.244,29.994,38.243z M29.994,35.549c-1.961,0-3.923,0-5.884,0c-0.278,0-0.556-0.007-0.833,0.006
			c-0.216,0.01-0.385,0.187-0.386,0.395c-0.002,0.217,0.101,0.375,0.319,0.427c0.113,0.027,0.233,0.027,0.35,0.027
			c4.302,0.001,8.603,0.001,12.905,0c0.109,0,0.221-0.002,0.325-0.028c0.218-0.054,0.322-0.214,0.31-0.431
			c-0.013-0.219-0.145-0.353-0.362-0.391c-0.066-0.011-0.134-0.006-0.202-0.006C34.355,35.549,32.175,35.549,29.994,35.549z"/>
		<path d="M34.428,22.188c0-1.337,0-2.663,0-4.05c1.418,1.36,2.803,2.687,4.225,4.05C37.22,22.188,35.84,22.188,34.428,22.188z"/>
	</g>
</g>
</svg>
