<?xml version="1.0" encoding="utf-8"?>
<!-- Generator: Adobe Illustrator 24.2.1, SVG Export Plug-In . SVG Version: 6.00 Build 0)  -->
<svg version="1.1" id="Layer_1" xmlns="http://www.w3.org/2000/svg" xmlns:xlink="http://www.w3.org/1999/xlink" x="0px" y="0px"
	 viewBox="0 0 60 60" style="enable-background:new 0 0 60 60;" xml:space="preserve">
<style type="text/css">
	.st0{fill:#505050;}
</style>
<g id="g0dm5Q.tif">
	<g>
		<path class="st0" d="M20.982,28.435c-1.083,0-2.116-0.012-3.149,0.006c-0.41,0.007-0.711-0.127-0.889-0.494
			c-0.18-0.372-0.141-0.736,0.128-1.05c0.688-0.802,1.374-1.607,2.085-2.389c0.803-0.884,1.628-1.747,2.45-2.612
			c0.685-0.721,1.42-0.73,2.087-0.004c1.5,1.632,2.986,3.276,4.476,4.916c0.282,0.311,0.387,0.662,0.23,1.068
			c-0.141,0.365-0.412,0.557-0.809,0.559c-0.944,0.003-1.887,0.001-2.831,0.001c-0.134,0-0.268,0-0.437,0
			c0,0.826-0.026,1.619,0.005,2.41c0.076,1.91,0.745,3.588,2.062,4.985c1.546,1.639,3.449,2.48,5.708,2.444
			c3.758-0.06,6.851-2.733,7.484-6.441c0.72-4.217-2.292-8.33-6.518-8.859c-0.785-0.098-1.587-0.063-2.382-0.084
			c-1.063-0.029-1.789-0.784-1.733-1.811c0.04-0.728,0.671-1.456,1.397-1.499c2.283-0.135,4.522,0.049,6.591,1.149
			c3.33,1.769,5.352,4.503,5.932,8.24c0.862,5.551-2.705,10.924-8.121,12.297c-6.139,1.556-12.261-2.276-13.546-8.479
			c-0.256-1.234-0.227-2.485-0.224-3.735C20.982,28.861,20.982,28.669,20.982,28.435z"/>
	</g>
</g>
</svg>
