<?xml version="1.0" encoding="utf-8"?>
<!-- Generator: Adobe Illustrator 26.0.1, SVG Export Plug-In . SVG Version: 6.00 Build 0)  -->
<svg version="1.1" id="Layer_1" xmlns="http://www.w3.org/2000/svg" xmlns:xlink="http://www.w3.org/1999/xlink" x="0px" y="0px"
	 viewBox="0 0 50 50" style="enable-background:new 0 0 50 50;" xml:space="preserve">
<style type="text/css">
	.st0{display:none;}
	.st1{display:inline;}
	.st2{fill:#344593;}
	.st3{fill:#3E54A3;}
	.st4{fill:#2E4490;}
	.st5{fill:#122571;}
	.st6{opacity:0.5;fill:#031F60;enable-background:new    ;}
	.st7{fill:#BBDFFF;}
	.st8{fill:#FDB724;}
	.st9{fill:#E7478D;}
	.st10{fill:#BF2878;}
	.st11{fill:#27DEBF;}
	.st12{fill:#1BBC9D;}
	.st13{fill:#A33D64;}
	.st14{fill:#82294D;}
	.st15{fill:#0A4A80;}
	.st16{fill:#F1FCFF;}
	.st17{fill:#D6E6FF;}
	.st18{fill:#CEF3FF;}
	.st19{fill:#606060;}
	.st20{enable-background:new    ;}
	.st21{fill:#F19729;}
	.st22{fill:#FCB040;}
	.st23{fill:#FFCB49;}
	.st24{fill:#2E5677;}
	.st25{fill:#FF51CE;}
	.st26{fill:#EDE6A0;}
	.st27{fill:#FFF7B0;}
	.st28{fill:url(#SVGID_1_);}
	.st29{fill:url(#SVGID_00000020362999467175731490000010409881686433612184_);}
	.st30{fill:#003959;}
	.st31{fill:#02567D;}
	.st32{fill:#134663;}
	.st33{fill:#ADE9F4;}
	.st34{fill:#0E7F99;}
	.st35{fill:#1F99AD;}
	.st36{fill:#7FE2F4;}
	.st37{fill:#002F4A;}
	.st38{fill:#0370A3;}
	.st39{fill:#004266;}
	.st40{fill:#64D3D8;}
	.st41{fill:#7EE3ED;}
	.st42{fill:#23C5F7;}
	.st43{fill:#58D6F4;}
	.st44{fill:#0C9BC6;}
	.st45{fill:#2EB7CE;}
	.st46{fill:#0A2A44;}
	.st47{fill:#38D7F4;}
	.st48{fill:#54DE29;}
	.st49{fill:#E54332;}
	.st50{opacity:0.2;}
	.st51{fill:#FFFFFF;}
	.st52{opacity:0.4;}
	.st53{clip-path:url(#SVGID_00000048486593003212392890000013497919279743713951_);}
	.st54{fill:#088DB5;}
	.st55{fill:#9AEEFC;}
	.st56{fill:#C17846;}
	.st57{fill:#6D431D;}
	.st58{fill:#CC9456;}
	.st59{fill:#7C4F23;}
	.st60{fill:#995E29;}
	.st61{fill:#F9F9F9;}
	.st62{fill:#54576D;}
	.st63{fill:#005CFF;}
	.st64{fill:#9393C9;}
	.st65{fill:#7E7E9E;}
	.st66{fill:#9B9BBA;}
	.st67{fill:#CEDFF4;}
	.st68{fill:#7995BF;}
	.st69{fill:#41537F;}
	.st70{fill:#84889B;}
</style>
<g id="Example" class="st0">
	<g class="st1">
		<g id="XMLID_4903_">
			<path id="XMLID_4905_" class="st2" d="M45.3,33.2v-4.6l0,0c0-0.9-0.6-1.8-1.7-2.4c-2.3-1.3-6-1.3-8.4,0c-1.2,0.7-1.7,1.6-1.7,2.4
				l0,0v4.5c0,0.9,0.6,1.8,1.7,2.4c2.3,1.3,6,1.3,8.4,0C44.8,34.9,45.3,34.1,45.3,33.2L45.3,33.2L45.3,33.2L45.3,33.2z"/>
			<path id="XMLID_4904_" class="st2" d="M45.3,33.2v-4.6l0,0c0-0.9-0.6-1.8-1.7-2.4c-2.3-1.3-6-1.3-8.4,0c-1.2,0.7-1.7,1.6-1.7,2.4
				l0,0v4.5c0,0.9,0.6,1.8,1.7,2.4c2.3,1.3,6,1.3,8.4,0C44.8,34.9,45.3,34.1,45.3,33.2L45.3,33.2L45.3,33.2L45.3,33.2z"/>
		</g>
		<polygon id="XMLID_4900_" class="st3" points="39.4,23 29.7,28.6 39.4,34.2 49.2,28.6 		"/>
		<path id="XMLID_4899_" class="st4" d="M44.3,31.4l-4.8-2.7c-0.1,0-0.2,0-0.2,0.1s0,0.2,0.1,0.2l4.6,2.6L44.3,31.4z"/>
		<polygon id="XMLID_4896_" class="st5" points="29.7,28.6 29.7,29 39.4,34.6 39.4,34.2 		"/>
		<polygon id="XMLID_4883_" class="st4" points="49.2,28.6 49.2,29 39.4,34.6 39.4,34.2 		"/>
		<polygon id="XMLID_4876_" class="st6" points="33.5,31.2 39.4,35.2 45.3,31.2 39.4,34.6 		"/>
		<g id="XMLID_4823_">
			<path id="XMLID_4835_" class="st7" d="M44.7,36.2c-0.1,0-0.2-0.1-0.2-0.2v-4c0-0.2-0.1-0.4-0.3-0.4l-4.9-2.8
				c-0.1,0-0.1-0.2-0.1-0.2c0-0.1,0.2-0.1,0.2-0.1l4.9,2.8c0.3,0.2,0.4,0.4,0.4,0.7v4C44.8,36.1,44.7,36.2,44.7,36.2z"/>
		</g>
		<path class="st8" d="M45.3,39.3L45,36.6c0.1-0.1,0.1-0.2,0-0.2l0,0l0,0l0,0v-0.1l0,0l0,0l0,0c0-0.2-0.2-0.4-0.4-0.4c0,0,0,0-0.1,0
			l0,0l0,0c0,0,0,0-0.1,0c0,0,0,0-0.1,0c0,0,0,0-0.1,0c0,0,0,0,0,0.1l0,0v0.1c0,0.1,0,0.2,0.1,0.3l0,0c-0.1,0.1,0,0.2,0,0.2L44,39.3
			c0,0.1,0.1,0.2,0.3,0.3l0,0h0.1l0,0c0.1,0,0.2,0.1,0.3,0.1l0,0l0,0l0,0l0,0l0,0c0.1,0,0.2,0,0.3-0.1l0,0h0.1l0,0
			C45.3,39.5,45.3,39.4,45.3,39.3z"/>
	</g>
	<g id="XMLID_3738_" class="st1">
		<path id="XMLID_4404_" class="st9" d="M12.4,36.1c1.1-0.8,1.8-2.7,1.7-4c-0.1-1.4-1.2-2-1.7-2.3l0,0c-1.1-0.6-2.8-0.6-3.9,0l0,0
			C8,30.1,7,30.7,6.8,32.1c-0.1,1.3,0.6,3.2,1.7,4l0,0c0.1,0,0.1,0.1,0.2,0.1c1,0.6,2.6,0.6,3.6,0l0,0
			C12.3,36.2,12.4,36.1,12.4,36.1L12.4,36.1z"/>
		<path id="XMLID_4395_" class="st10" d="M9.9,30.8c-0.3,0.2-0.3,0.4,0,0.6s0.8,0.2,1.1,0s0.3-0.4,0-0.6
			C10.7,30.6,10.2,30.6,9.9,30.8z"/>
		<g id="XMLID_4426_">
			<path id="XMLID_2198_" class="st11" d="M10.5,31.2c0,0-0.9,0-1.4-0.7s0-1.9,0-1.9s1.1,0.1,1.7,1C11.2,30.4,10.5,31.2,10.5,31.2z"
				/>
			<path id="XMLID_4431_" class="st12" d="M9,30.5c0.5,0.7,1.4,0.7,1.4,0.7C10.3,29.6,9,28.6,9,28.6S8.5,29.8,9,30.5z"/>
		</g>
		<path id="XMLID_4403_" class="st13" d="M10.5,31.2c0,0,0-1.3,0.7-1.9s1.2-0.6,1.2-0.6c0.4,0,0.9,0.4,0.7,0.4c0,0-0.9,0-1.5,0.5
			s-0.9,1.5-0.9,1.6c0,0,0,0.1-0.1,0.1C10.5,31.3,10.5,31.2,10.5,31.2z"/>
		<path id="XMLID_4496_" class="st14" d="M12.4,28.7c-0.1,0-0.1,0.1,0.2,0.3c0.2,0.1,0.4,0.2,0.5,0.2l0,0
			C13.3,29,12.8,28.7,12.4,28.7z"/>
	</g>
	<g class="st1">
		<g>
			<path class="st15" d="M26,28.8L26,28.8c-1,0.6-1.9,1-2.8,1.2l0,0c0,0,0,0-0.1,0l-0.5,0.2h-0.1c-0.1,0-0.2,0.1-0.3,0.1h-0.1
				c-0.1,0-0.2,0.1-0.2,0.1h-0.1c-0.5,0.2-0.9,0.4-1.4,0.7c-0.1,0.1-0.2,0.1-0.3,0.2L20,31.4c-0.4,0.3-2,1.5-2.9,2.5l-0.6,0.6
				L16,34.6c-1,0.2-2,0.5-3,1.1c-0.1,0.1-0.2,0.1-0.3,0.2c-0.3,0.2-0.5,0.3-0.8,0.5l0,0l-0.1,0.1c-0.1,0.1-0.2,0.1-0.3,0.2l0,0l0,0
				c-0.4,0.3-0.9,0.7-1.3,1.1c-0.1,0.1-0.2,0.2-0.3,0.3c-0.3,0.3-0.7,0.6-1,0.9H8.8c-0.3,0.3-0.7,0.5-1,0.8
				c-0.2,0.2-0.5,0.3-0.7,0.5H7l13.7,8.3h0.1c0.8-0.5,1.7-1.2,2.5-1.9c0.5-0.5,1.1-0.9,1.7-1.4c1.2-0.9,2.3-1.5,3.2-1.8
				c0.7-0.3,1.4-0.5,2.1-0.6l0.5-0.6c0.7-0.7,1.5-1.3,2.4-1.8c1.5-1,3.2-1.8,4.9-2.5c0.6-0.2,1.2-0.5,1.6-0.7l0.2-0.1L26,28.8z"/>
			<g>
				<g>
					<g>
						<path class="st16" d="M39.1,36.7c-0.5,0.3-0.7,0.4-1.2,0.6c-0.3,0.1-0.5,0.2-0.8,0.3c-0.2,0.1-0.3,0.1-0.5,0.1
							c-0.7,0.2-1.4,0.4-2,0.8c-0.2,0.1-0.4,0.2-0.6,0.3c-1.3,0.8-2.6,2-3.9,3.5l-2.5-1.5l-11-6.7c1.3-1.5,2.6-2.7,3.9-3.5
							c0.2-0.1,0.4-0.2,0.6-0.3c0.7-0.4,1.4-0.6,2-0.8c0.2,0,0.3-0.1,0.5-0.1c0.3-0.1,0.5-0.2,0.8-0.3c0.5-0.2,0.7-0.3,1.2-0.6
							L39.1,36.7z"/>
						<g>
							<path class="st16" d="M30.1,42.3c-1.3,0.1-2.6,0.5-3.9,1.3c-0.2,0.1-0.4,0.2-0.6,0.4c-0.7,0.5-1.4,1-2,1.7
								c-0.2,0.2-0.3,0.3-0.5,0.4c-0.3,0.3-0.6,0.5-0.9,0.7c-0.5,0.4-0.8,0.6-1.3,0.9L7.5,39.5C8,39.2,8.3,39,8.8,38.6
								c0.3-0.2,0.6-0.5,0.9-0.7c0.2-0.1,0.3-0.3,0.5-0.4c0.7-0.6,1.4-1.2,2-1.7c0.2-0.1,0.4-0.3,0.6-0.4c1.3-0.8,2.6-1.2,3.9-1.3
								l11,6.7L30.1,42.3z"/>
						</g>
					</g>
					<polygon class="st17" points="7.5,39.5 7.3,40.3 20.7,48.5 20.9,47.7 					"/>
					<path class="st18" d="M39.4,37.1c-0.9,0.6-1.8,1-2.7,1.2c0,0,0,0-0.1,0s-0.2,0-0.3,0.1c-0.1,0-0.2,0.1-0.3,0.1
						s-0.2,0.1-0.3,0.1c-0.6,0.2-1.2,0.5-1.8,0.9c-0.1,0.1-0.2,0.1-0.3,0.2c-1,0.7-2,1.5-3,2.5L30,42.8l-0.6,0.1c-1,0.2-2,0.5-3,1.1
						c-0.1,0.1-0.2,0.1-0.3,0.2c-0.3,0.2-0.5,0.3-0.8,0.5c-0.6,0.4-1.1,0.9-1.7,1.4c-0.1,0.1-0.2,0.2-0.3,0.3
						c-0.9,0.9-1.8,1.6-2.7,2.2l0.2-0.8c0.5-0.3,0.8-0.5,1.3-0.9c0.3-0.2,0.6-0.5,0.9-0.7c0.2-0.1,0.3-0.3,0.5-0.4
						c0.7-0.6,1.4-1.2,2-1.7c0.2-0.1,0.4-0.3,0.6-0.4c1.3-0.8,2.6-1.2,3.9-1.3c1.3-1.5,2.6-2.7,3.9-3.5c0.2-0.1,0.4-0.2,0.6-0.3
						c0.7-0.4,1.4-0.6,2-0.8c0.2,0,0.3-0.1,0.5-0.1c0.3-0.1,0.5-0.2,0.8-0.3c0.5-0.2,0.7-0.3,1.2-0.6L39.4,37.1z"/>
				</g>
			</g>
			<g>
				<path class="st19" d="M17.8,34.6C17.9,34.6,17.9,34.6,17.8,34.6c1.2-1.4,2.5-2.5,3.7-3.2c0.2-0.1,0.4-0.2,0.5-0.3
					c0.7-0.3,1.3-0.6,2-0.8c0.2,0,0.3-0.1,0.5-0.1c0.3-0.1,0.5-0.2,0.8-0.3c0.4-0.2,0.7-0.3,1.1-0.5c0,0,0,0,0-0.1s0,0-0.1,0
					c-0.4,0.2-0.6,0.3-1,0.5c-0.3,0.1-0.5,0.2-0.8,0.3c-0.2,0.1-0.3,0.1-0.5,0.1c-0.7,0.2-1.3,0.4-2,0.8c-0.2,0.1-0.4,0.2-0.6,0.3
					C20.3,32.1,19,33.2,17.8,34.6C17.8,34.5,17.8,34.6,17.8,34.6L17.8,34.6z"/>
				<path class="st19" d="M25.4,30.6c-0.2,0.1-0.3,0.1-0.5,0.1c-0.7,0.2-1.3,0.4-2,0.8c-0.2,0.1-0.4,0.2-0.6,0.3
					c-1.2,0.7-2.5,1.8-3.7,3.2v0.1l0,0l0,0c1.2-1.4,2.5-2.5,3.7-3.2c0.2-0.1,0.4-0.2,0.6-0.3c0.7-0.4,1.3-0.6,2-0.8
					C25.1,30.8,25.3,30.7,25.4,30.6c0.3,0,0.6-0.1,0.8-0.2c0.4-0.2,0.6-0.3,1-0.5c0,0,0,0,0-0.1c0,0,0,0-0.1,0
					c-0.4,0.2-0.6,0.3-1,0.5C25.9,30.4,25.7,30.5,25.4,30.6z"/>
				<path class="st19" d="M26.2,31.1c-0.2,0.1-0.3,0.1-0.5,0.1c-0.7,0.2-1.3,0.4-2,0.8c-0.2,0.1-0.4,0.2-0.6,0.3
					c-1.2,0.7-2.5,1.8-3.7,3.2v0.1l0,0l0,0c1.2-1.4,2.5-2.5,3.7-3.2c0.2-0.1,0.4-0.2,0.6-0.3c0.7-0.4,1.4-0.6,2-0.8
					C25.9,31.3,26.1,31.2,26.2,31.1c0.3,0,0.6-0.1,0.8-0.2c0.4-0.2,0.6-0.3,1-0.5c0,0,0,0,0-0.1c0,0,0,0-0.1,0
					c-0.4,0.2-0.6,0.3-1,0.5C26.8,30.9,26.5,31,26.2,31.1z"/>
				<path class="st19" d="M27.1,31.5c-0.2,0.1-0.3,0.1-0.5,0.1c-0.7,0.2-1.3,0.4-2,0.8c-0.2,0.1-0.4,0.2-0.6,0.3
					c-1.2,0.7-2.5,1.8-3.7,3.2V36l0,0l0,0c1.2-1.4,2.5-2.5,3.7-3.2c0.2-0.1,0.4-0.2,0.6-0.3c0.7-0.4,1.4-0.6,2-0.8
					C26.7,31.7,26.9,31.7,27.1,31.5c0.3,0,0.6-0.1,0.8-0.2c0.4-0.2,0.6-0.3,1-0.5c0,0,0,0,0-0.1c0,0,0,0-0.1,0
					c-0.4,0.2-0.6,0.3-1,0.5C27.6,31.4,27.3,31.5,27.1,31.5z"/>
				<path class="st19" d="M27.9,32c-0.2,0.1-0.3,0.1-0.5,0.1c-0.7,0.2-1.4,0.4-2,0.8c-0.2,0.1-0.4,0.2-0.6,0.3
					c-1.2,0.7-2.5,1.9-3.7,3.2v0.1l0,0l0,0c1.2-1.4,2.5-2.5,3.7-3.2c0.2-0.1,0.4-0.2,0.6-0.3c0.7-0.4,1.4-0.6,2-0.8
					C27.6,32.2,27.8,32.2,27.9,32c0.3,0,0.6-0.1,0.8-0.2c0.4-0.2,0.6-0.3,1-0.5c0,0,0,0,0-0.1c0,0,0,0-0.1,0c-0.4,0.2-0.6,0.3-1,0.5
					C28.4,31.8,28.1,31.9,27.9,32z"/>
				<path class="st19" d="M28.7,32.5c-0.2,0.1-0.3,0.1-0.5,0.1c-0.7,0.2-1.4,0.4-2,0.8c-0.2,0.1-0.4,0.2-0.6,0.3
					c-1.2,0.7-2.5,1.9-3.7,3.2V37l0,0l0,0c1.2-1.4,2.5-2.5,3.7-3.2c0.2-0.1,0.4-0.2,0.6-0.3c0.7-0.4,1.4-0.6,2-0.8
					C28.4,32.7,28.6,32.6,28.7,32.5c0.3,0,0.6-0.1,0.8-0.2c0.4-0.2,0.6-0.3,1-0.5c0,0,0,0,0-0.1c0,0,0,0-0.1,0
					c-0.3,0.2-0.6,0.3-0.9,0.5C29.2,32.3,29,32.4,28.7,32.5z"/>
				<path class="st19" d="M29.6,33c-0.2,0.1-0.3,0.1-0.5,0.1c-0.7,0.2-1.4,0.4-2.1,0.8c-0.2,0.1-0.4,0.2-0.6,0.3
					c-1.2,0.7-2.5,1.9-3.8,3.3v0.1l0,0l0,0c1.2-1.4,2.5-2.5,3.7-3.2c0.2-0.1,0.4-0.2,0.6-0.3c0.7-0.4,1.4-0.6,2-0.8
					C29.2,33.2,29.4,33.1,29.6,33c0.3,0,0.6-0.1,0.8-0.2c0.4-0.2,0.6-0.3,0.9-0.5c0,0,0,0,0-0.1c0,0,0,0-0.1,0
					c-0.3,0.2-0.5,0.3-0.9,0.4C30.1,32.8,29.8,32.9,29.6,33z"/>
				<path class="st19" d="M30.4,33.5c-0.2,0.1-0.3,0.1-0.5,0.1c-0.7,0.2-1.4,0.4-2.1,0.8c-0.2,0.1-0.4,0.2-0.6,0.3
					c-1.2,0.7-2.5,1.9-3.8,3.3v0.1l0,0l0,0c1.2-1.4,2.5-2.5,3.7-3.2c0.2-0.1,0.4-0.2,0.6-0.3c0.7-0.4,1.4-0.6,2-0.8
					C30.1,33.7,30.2,33.6,30.4,33.5c0.3,0,0.5-0.1,0.8-0.2c0.4-0.2,0.6-0.3,0.9-0.4c0,0,0,0,0-0.1c0,0,0,0-0.1,0
					c-0.3,0.2-0.5,0.3-0.9,0.4C30.9,33.3,30.6,33.4,30.4,33.5z"/>
				<path class="st19" d="M31.2,33.9C31,34,30.9,34,30.7,34.1c-0.7,0.2-1.4,0.4-2.1,0.8c-0.2,0.1-0.4,0.2-0.6,0.3
					c-1.2,0.7-2.5,1.9-3.8,3.3v0.1l0,0l0,0c1.2-1.4,2.5-2.5,3.8-3.3c0.2-0.1,0.4-0.2,0.6-0.3c0.7-0.4,1.4-0.6,2-0.8
					C30.9,34.1,31.1,34.1,31.2,33.9c0.3,0,0.5-0.1,0.8-0.2c0.4-0.2,0.6-0.2,0.9-0.4c0,0,0,0,0-0.1c0,0,0,0-0.1,0
					c-0.3,0.2-0.5,0.3-0.9,0.4C31.7,33.8,31.5,33.9,31.2,33.9z"/>
				<path class="st19" d="M32,34.4c-0.2,0.1-0.3,0.1-0.5,0.1c-0.7,0.2-1.4,0.4-2.1,0.8c-0.2,0.1-0.4,0.2-0.6,0.3
					c-1.2,0.7-2.6,1.9-3.8,3.3V39l0,0l0,0c1.2-1.4,2.5-2.5,3.8-3.3c0.2-0.1,0.4-0.2,0.6-0.3c0.7-0.4,1.4-0.6,2-0.8
					C31.7,34.6,31.9,34.6,32,34.4c0.3,0,0.5-0.1,0.8-0.2c0.4-0.2,0.6-0.2,0.9-0.4c0,0,0,0,0-0.1c0,0,0,0-0.1,0
					c-0.3,0.2-0.5,0.3-0.9,0.4C32.6,34.2,32.3,34.3,32,34.4z"/>
				<path class="st19" d="M32.9,34.9C32.7,35,32.6,35,32.4,35c-0.7,0.2-1.4,0.4-2.1,0.8c-0.2,0.1-0.4,0.2-0.6,0.3
					c-1.2,0.8-2.6,1.9-3.8,3.3v0.1l0,0l0,0c1.2-1.4,2.5-2.5,3.8-3.3c0.2-0.1,0.4-0.2,0.6-0.3c0.7-0.4,1.4-0.6,2.1-0.8
					C32.6,35.1,32.7,35,32.9,34.9c0.3,0,0.5-0.1,0.8-0.2c0.3-0.1,0.6-0.2,0.9-0.4c0,0,0,0,0-0.1c0,0,0,0-0.1,0
					c-0.3,0.2-0.5,0.3-0.8,0.4C33.4,34.7,33.1,34.8,32.9,34.9z"/>
				<path class="st19" d="M33.7,35.4c-0.2,0.1-0.3,0.1-0.5,0.1c-0.7,0.2-1.4,0.4-2.1,0.8c-0.2,0.1-0.4,0.2-0.6,0.3
					c-1.2,0.8-2.6,1.9-3.8,3.3V40l0,0l0,0c1.2-1.4,2.6-2.5,3.8-3.3c0.2-0.1,0.4-0.2,0.6-0.3c0.7-0.4,1.4-0.6,2.1-0.8
					C33.4,35.6,33.6,35.5,33.7,35.4c0.3,0,0.5-0.1,0.8-0.2c0.3-0.1,0.5-0.2,0.8-0.4c0,0,0,0,0-0.1c0,0,0,0-0.1,0
					c-0.3,0.2-0.5,0.3-0.8,0.4C34.2,35.2,34,35.3,33.7,35.4z"/>
				<path class="st19" d="M34.5,35.8c-0.2,0.1-0.3,0.1-0.5,0.1c-0.7,0.2-1.4,0.4-2.1,0.8c-0.2,0.1-0.4,0.2-0.6,0.3
					c-1.3,0.8-2.6,1.9-3.8,3.3v0.1l0,0l0,0c1.2-1.4,2.6-2.6,3.8-3.3c0.2-0.1,0.4-0.2,0.6-0.3c0.7-0.4,1.4-0.6,2.1-0.8
					C34.2,36,34.4,36,34.5,35.8c0.3,0,0.5-0.1,0.8-0.2c0.3-0.1,0.5-0.2,0.8-0.4c0,0,0,0,0-0.1c0,0,0,0-0.1,0
					c-0.3,0.2-0.5,0.2-0.8,0.4C35,35.7,34.8,35.8,34.5,35.8z"/>
				<path class="st19" d="M35.4,36.3c-0.2,0.1-0.3,0.1-0.5,0.1c-0.7,0.2-1.4,0.4-2.1,0.8c-0.2,0.1-0.4,0.2-0.6,0.3
					c-1.3,0.8-2.6,1.9-3.8,3.3v0.1l0,0l0,0c1.3-1.4,2.6-2.6,3.8-3.3c0.2-0.1,0.4-0.2,0.6-0.3c0.7-0.4,1.4-0.6,2.1-0.8
					C35.1,36.5,35.2,36.5,35.4,36.3c0.3,0,0.5-0.1,0.8-0.2c0.3-0.1,0.5-0.2,0.8-0.4c0,0,0,0,0-0.1c0,0,0,0-0.1,0
					c-0.2,0.1-0.4,0.2-0.8,0.4C35.9,36.2,35.6,36.2,35.4,36.3z"/>
				<path class="st19" d="M37.7,36.2c-0.3,0.1-0.5,0.2-0.8,0.4c-0.3,0.1-0.5,0.2-0.8,0.3C35.9,37,35.8,37,35.6,37
					c-0.7,0.2-1.4,0.4-2.1,0.8c-0.2,0.1-0.4,0.2-0.6,0.3c-1.3,0.8-2.6,1.9-3.9,3.3v0.1l0,0l0,0c1.3-1.4,2.6-2.6,3.8-3.3
					c0.2-0.1,0.4-0.2,0.6-0.3c0.7-0.4,1.4-0.6,2.1-0.8c0.2,0,0.3-0.1,0.5-0.1c0.2-0.1,0.5-0.2,0.8-0.3
					C37.3,36.5,37.5,36.4,37.7,36.2C37.8,36.3,37.8,36.2,37.7,36.2C37.8,36.2,37.7,36.2,37.7,36.2z"/>
				<path class="st19" d="M10.6,38.6c0.2-0.1,0.3-0.3,0.5-0.4c0.7-0.6,1.3-1.2,2-1.7c0.2-0.1,0.4-0.2,0.6-0.4
					c1.2-0.7,2.5-1.2,3.7-1.3c0,0,0,0,0-0.1c0,0,0,0-0.1,0c-1.2,0.1-2.5,0.5-3.7,1.3c-0.2,0.1-0.4,0.2-0.6,0.4c-0.7,0.5-1.4,1-2,1.7
					C10.9,38.3,10.7,38.4,10.6,38.6c-0.4,0.2-0.7,0.4-0.9,0.7c-0.4,0.3-0.7,0.5-1,0.7c0,0,0,0,0,0.1l0,0l0,0c0.3-0.2,0.6-0.4,1-0.7
					S10.3,38.9,10.6,38.6z"/>
				<path class="st19" d="M11.5,39.1c0.2-0.1,0.3-0.3,0.5-0.4c0.7-0.6,1.3-1.2,2-1.7c0.2-0.1,0.4-0.2,0.6-0.4
					c1.2-0.7,2.5-1.2,3.7-1.2c0,0,0,0,0-0.1c0,0,0-0.1-0.1,0c-1.2,0.1-2.5,0.5-3.7,1.3c-0.2,0.1-0.4,0.2-0.6,0.4
					c-0.7,0.5-1.4,1-2,1.7C11.7,38.8,11.6,38.9,11.5,39.1c-0.4,0.2-0.7,0.4-0.9,0.7c-0.4,0.3-0.7,0.5-1,0.7c0,0,0,0,0,0.1l0,0l0,0
					c0.3-0.2,0.6-0.4,1-0.7C10.9,39.6,11.2,39.4,11.5,39.1z"/>
				<path class="st19" d="M12.3,39.6c0.2-0.1,0.3-0.3,0.5-0.4c0.7-0.6,1.3-1.2,2-1.7c0.2-0.1,0.4-0.3,0.6-0.4
					c1.2-0.7,2.4-1.2,3.6-1.2c0,0,0,0,0-0.1s0,0-0.1,0c-1.2,0.1-2.5,0.5-3.7,1.3c-0.2,0.1-0.4,0.2-0.6,0.4c-0.7,0.5-1.4,1-2,1.7
					C12.5,39.2,12.4,39.4,12.3,39.6c-0.4,0.2-0.7,0.4-0.9,0.7c-0.4,0.3-0.7,0.5-1,0.7c0,0,0,0,0,0.1l0,0l0,0c0.3-0.2,0.6-0.4,1-0.7
					C11.7,40.1,12,39.9,12.3,39.6z"/>
				<path class="st19" d="M13.1,40.1c0.2-0.1,0.3-0.3,0.5-0.4c0.7-0.6,1.3-1.2,2-1.7c0.2-0.1,0.4-0.3,0.6-0.4
					c1.2-0.7,2.4-1.1,3.6-1.2c0,0,0,0,0-0.1c0,0,0,0-0.1,0c-1.2,0.1-2.4,0.5-3.6,1.3c-0.2,0.1-0.4,0.2-0.6,0.4c-0.7,0.5-1.4,1-2,1.7
					C13.3,39.7,13.2,39.9,13.1,40.1c-0.4,0.2-0.6,0.4-0.9,0.7c-0.4,0.3-0.7,0.5-1,0.7c0,0,0,0,0,0.1l0,0l0,0c0.3-0.2,0.6-0.4,1-0.7
					C12.5,40.6,12.8,40.4,13.1,40.1z"/>
				<path class="st19" d="M13.9,40.6c0.2-0.1,0.3-0.3,0.5-0.4c0.7-0.6,1.3-1.2,2-1.7c0.2-0.1,0.4-0.3,0.6-0.4
					c1.2-0.7,2.4-1.1,3.6-1.2c0,0,0,0,0-0.1c0,0,0,0-0.1,0c-1.2,0.1-2.4,0.5-3.6,1.3c-0.2,0.1-0.4,0.2-0.6,0.4c-0.7,0.5-1.4,1-2,1.7
					C14.2,40.2,14,40.4,13.9,40.6c-0.4,0.2-0.6,0.4-0.9,0.7c-0.4,0.3-0.7,0.5-1,0.7c0,0,0,0,0,0.1l0,0l0,0c0.3-0.2,0.6-0.4,1-0.7
					C13.3,41.1,13.6,40.8,13.9,40.6z"/>
				<path class="st19" d="M14.7,41.1c0.2-0.1,0.3-0.3,0.5-0.4c0.7-0.6,1.3-1.2,2-1.7c0.2-0.1,0.4-0.3,0.6-0.4
					c1.2-0.7,2.4-1.1,3.5-1.2c0,0,0,0,0-0.1c0,0,0,0-0.1,0c-1.2,0.1-2.4,0.6-3.6,1.3c-0.2,0.1-0.4,0.2-0.6,0.4c-0.7,0.5-1.4,1-2,1.7
					C15,40.7,14.8,40.8,14.7,41.1c-0.4,0.2-0.6,0.4-0.9,0.7c-0.4,0.3-0.7,0.5-1,0.7c0,0,0,0,0,0.1l0,0l0,0c0.3-0.2,0.6-0.4,1-0.7
					S14.4,41.3,14.7,41.1z"/>
				<path class="st19" d="M15.6,41.5c0.2-0.1,0.3-0.3,0.5-0.4c0.7-0.6,1.3-1.2,2-1.7c0.2-0.1,0.4-0.3,0.6-0.4
					c1.1-0.7,2.4-1.1,3.5-1.2c0,0,0,0,0-0.1s0,0-0.1,0c-1.2,0.1-2.4,0.6-3.5,1.3c-0.2,0.1-0.4,0.2-0.6,0.4c-0.7,0.5-1.4,1-2,1.7
					C15.8,41.2,15.6,41.3,15.6,41.5c-0.4,0.2-0.6,0.4-0.9,0.7c-0.4,0.3-0.7,0.5-1,0.7c0,0,0,0,0,0.1l0,0l0,0c0.3-0.2,0.6-0.4,1-0.7
					C15,42.1,15.3,41.8,15.6,41.5z"/>
				<path class="st19" d="M16.4,42c0.2-0.1,0.3-0.3,0.5-0.4c0.7-0.6,1.3-1.2,2-1.7c0.2-0.1,0.4-0.3,0.6-0.4c1.1-0.7,2.3-1.1,3.5-1.2
					c0,0,0,0,0-0.1s0,0-0.1,0c-1.2,0.1-2.4,0.6-3.5,1.3c-0.2,0.1-0.4,0.2-0.6,0.4c-0.7,0.5-1.4,1-2.1,1.7
					C16.6,41.7,16.5,41.8,16.4,42c-0.4,0.2-0.6,0.4-0.9,0.7c-0.4,0.3-0.7,0.5-1,0.7c0,0,0,0,0,0.1l0,0l0,0c0.3-0.2,0.6-0.4,1.1-0.7
					C15.8,42.5,16.1,42.3,16.4,42z"/>
				<path class="st19" d="M17.2,42.5c0.2-0.1,0.3-0.3,0.5-0.4c0.7-0.6,1.4-1.2,2-1.7c0.2-0.1,0.4-0.3,0.6-0.4
					c1.1-0.7,2.3-1.1,3.4-1.2c0,0,0,0,0-0.1s0,0-0.1,0c-1.1,0.1-2.3,0.6-3.5,1.3c-0.2,0.1-0.4,0.2-0.6,0.4c-0.7,0.5-1.4,1-2.1,1.7
					C17.4,42.2,17.3,42.3,17.2,42.5c-0.4,0.2-0.6,0.4-0.9,0.6c-0.4,0.3-0.7,0.5-1.1,0.7c0,0,0,0,0,0.1l0,0l0,0
					c0.3-0.2,0.6-0.4,1.1-0.8C16.6,43,16.9,42.8,17.2,42.5z"/>
				<path class="st19" d="M18,43c0.2-0.1,0.3-0.3,0.5-0.4c0.7-0.6,1.4-1.2,2-1.7c0.2-0.1,0.4-0.3,0.6-0.4c1.1-0.7,2.3-1.1,3.4-1.2
					c0,0,0,0,0-0.1s0,0-0.1,0c-1.1,0.1-2.3,0.6-3.5,1.3c-0.2,0.1-0.4,0.2-0.6,0.4c-0.7,0.5-1.4,1.1-2.1,1.7
					C18.3,42.6,18.1,42.8,18,43c-0.4,0.2-0.6,0.4-0.9,0.6c-0.4,0.3-0.7,0.6-1.1,0.8c0,0,0,0,0,0.1l0,0l0,0c0.3-0.2,0.7-0.4,1.1-0.8
					C17.4,43.5,17.7,43.3,18,43z"/>
				<path class="st19" d="M18.8,43.5c0.2-0.1,0.3-0.3,0.5-0.4c0.7-0.6,1.4-1.2,2-1.7c0.2-0.1,0.4-0.3,0.6-0.4
					c1.1-0.7,2.3-1.1,3.4-1.2c0,0,0,0,0-0.1c0,0,0,0-0.1,0c-1.1,0.1-2.3,0.6-3.4,1.3c-0.2,0.1-0.4,0.2-0.6,0.4
					c-0.7,0.5-1.4,1.1-2.1,1.7C19.1,43.1,18.9,43.3,18.8,43.5c-0.4,0.2-0.6,0.4-0.9,0.6c-0.4,0.3-0.7,0.6-1.1,0.8c0,0,0,0,0,0.1l0,0
					l0,0c0.3-0.2,0.7-0.4,1.1-0.8C18.3,44,18.5,43.7,18.8,43.5z"/>
				<path class="st19" d="M19.6,44c0.2-0.1,0.3-0.3,0.5-0.4c0.7-0.6,1.4-1.2,2.1-1.7c0.2-0.1,0.4-0.3,0.6-0.4
					c1.1-0.7,2.3-1.1,3.4-1.2c0,0,0,0,0-0.1c0,0,0,0-0.1,0c-1.1,0.2-2.3,0.6-3.4,1.3c-0.2,0.1-0.4,0.2-0.6,0.4
					c-0.7,0.5-1.4,1.1-2.1,1.7C19.9,43.6,19.7,43.8,19.6,44c-0.4,0.2-0.6,0.4-0.9,0.6c-0.4,0.3-0.8,0.6-1.1,0.8c0,0,0,0,0,0.1l0,0
					l0,0c0.3-0.2,0.7-0.4,1.1-0.8C19.1,44.5,19.4,44.2,19.6,44z"/>
				<path class="st19" d="M20.5,44.5c0.2-0.1,0.3-0.3,0.5-0.4c0.7-0.6,1.4-1.2,2.1-1.7c0.2-0.1,0.4-0.3,0.6-0.4
					c1.1-0.7,2.2-1.1,3.3-1.2c0,0,0,0,0-0.1c0,0,0,0-0.1,0c-1.1,0.2-2.3,0.6-3.4,1.3c-0.2,0.1-0.4,0.2-0.6,0.4
					c-0.7,0.5-1.4,1.1-2.1,1.7C20.7,44.1,20.5,44.2,20.5,44.5c-0.4,0.2-0.6,0.4-0.9,0.6c-0.4,0.3-0.8,0.6-1.1,0.8c0,0,0,0,0,0.1l0,0
					l0,0c0.3-0.2,0.7-0.4,1.1-0.8C19.9,45,20.2,44.7,20.5,44.5z"/>
				<path class="st19" d="M21.3,44.9c0.2-0.1,0.3-0.3,0.5-0.4c0.7-0.7,1.4-1.2,2.1-1.7c0.2-0.1,0.4-0.3,0.6-0.4
					c1.1-0.6,2.2-1.1,3.3-1.2c0,0,0,0,0-0.1c0,0,0,0-0.1,0c-1.1,0.2-2.3,0.6-3.3,1.3c-0.2,0.1-0.4,0.2-0.6,0.4
					c-0.7,0.5-1.4,1.1-2.1,1.7C21.5,44.6,21.4,44.7,21.3,44.9c-0.4,0.2-0.6,0.4-0.9,0.6c-0.4,0.3-0.8,0.6-1.1,0.8c0,0,0,0,0,0.1l0,0
					l0,0c0.4-0.2,0.7-0.4,1.1-0.8C20.7,45.4,21,45.2,21.3,44.9z"/>
				<path class="st19" d="M25.2,42.8c-0.2,0.1-0.4,0.2-0.6,0.4c-0.7,0.5-1.4,1.1-2.1,1.7c-0.2,0.1-0.3,0.3-0.5,0.4
					c-0.3,0.3-0.6,0.5-0.9,0.7c-0.4,0.3-0.8,0.6-1.1,0.8c0,0,0,0,0,0.1l0,0l0,0c0.4-0.2,0.7-0.4,1.1-0.8c0.3-0.2,0.6-0.5,0.9-0.7
					c0.2-0.1,0.3-0.3,0.5-0.4c0.7-0.7,1.4-1.2,2.1-1.7C24.8,43.2,25,43,25.2,42.8c1.1-0.6,2.2-1,3.3-1.2c0,0,0,0,0-0.1
					c0,0,0,0-0.1,0C27.4,41.7,26.2,42.2,25.2,42.8z"/>
			</g>
		</g>
		<g>
			<g>
				<g>
					<g>
						<g class="st20">
							<g>
								<path class="st21" d="M29.1,41.9l-7.9-4.6l-0.1-0.1L29.1,41.9L29.1,41.9z"/>
							</g>
							<g>
								<path class="st22" d="M29.2,41.6c-0.1,0.1-0.1,0.1-0.1,0.2l-7.9-4.6l0.1-0.2L29.2,41.6z"/>
							</g>
							<g>
								<path class="st23" d="M29.4,41.5h-0.1c0,0-0.1,0-0.1,0.1l-8-4.6l0.2-0.1L29.4,41.5z"/>
							</g>
						</g>
					</g>
					<g>
						<polygon class="st24" points="30.3,42.2 30.3,42.3 30.3,42.3 30.3,42.3 30.2,42.3 30.3,42.3 						"/>
					</g>
					<path d="M30.3,42.2L30,42l0,0c0,0,0,0-0.1,0l-0.1,0.1l0,0L30.3,42.2C30.3,42.3,30.3,42.3,30.3,42.2
						C30.3,42.3,30.3,42.3,30.3,42.2z"/>
					<path class="st25" d="M21.7,37h-0.1l-0.1,0.1c0,0.1-0.1,0.1-0.1,0.2v0.1L21,37.1c0,0-0.1,0-0.1-0.1s0-0.1,0.1-0.2
						c0-0.1,0.1-0.1,0.1-0.1h0.1l0,0L21.7,37z"/>
					<path class="st26" d="M29.4,41.5L29.4,41.5L29.4,41.5z"/>
				</g>
				<path class="st27" d="M29.4,41.5L29.4,41.5L29.4,41.5c-0.1,0-0.2,0-0.2,0s0,0,0,0.1l0,0c0,0-0.1,0.1-0.1,0.2l0,0v0.1l0,0
					l0.8,0.3l0,0c0,0,0-0.1,0.1-0.1c0,0,0,0,0.1,0L29.4,41.5z"/>
			</g>
			
				<linearGradient id="SVGID_1_" gradientUnits="userSpaceOnUse" x1="21.7732" y1="-2491.1643" x2="21.5925" y2="-2491.4897" gradientTransform="matrix(1 0 0 -1 0 -2454)">
				<stop  offset="0" style="stop-color:#78ACED"/>
				<stop  offset="1" style="stop-color:#4F7BB3"/>
			</linearGradient>
			<path class="st28" d="M22.1,37.3L22.1,37.3L22.1,37.3L21.7,37l0,0l0,0h-0.1l0,0h-0.1c-0.1,0-0.1,0.1-0.1,0.1
				c0,0.1-0.1,0.1-0.1,0.2c0,0,0,0.1,0.1,0.1h0.1l0,0l0,0l0.3,0.2l0,0l0,0l0.1,0.1l0,0l0,0l0,0c0,0,0,0,0-0.1l0,0v-0.1l0,0l0.1-0.1
				l0,0C22,37.3,22,37.2,22.1,37.3L22.1,37.3L22.1,37.3L22.1,37.3L22.1,37.3z"/>
		</g>
	</g>
</g>
<g id="River_Management">
	
		<radialGradient id="SVGID_00000041293143189276156800000004336587673660607153_" cx="-946.0862" cy="-4886.8047" r="15.9016" gradientTransform="matrix(-1.5353 0 0 -0.6605 -1427.5262 -3189.051)" gradientUnits="userSpaceOnUse">
		<stop  offset="0.0701" style="stop-color:#B4BCC1"/>
		<stop  offset="0.94" style="stop-color:#ECEEEF;stop-opacity:0"/>
	</radialGradient>
	
		<ellipse style="fill:url(#SVGID_00000041293143189276156800000004336587673660607153_);" cx="25" cy="38.646" rx="24.4" ry="10.554"/>
</g>
<g>
	<g>
		<g>
			<g class="st20">
				<g>
					<polygon class="st30" points="10.554,33.366 4.83,30.039 4.832,30.772 10.556,34.098 					"/>
				</g>
				<g>
					<polygon class="st31" points="22.711,26.346 16.987,23.02 4.83,30.039 10.554,33.366 					"/>
				</g>
				<g>
					<polygon class="st32" points="22.713,27.079 22.711,26.346 10.554,33.366 10.556,34.098 15.273,31.375 					"/>
				</g>
			</g>
		</g>
		<path class="st31" d="M17.157,19.191l-0.78-0.45l1.948-1.124l4.005,2.332l-1.031,0.595l-1.31-0.811
			c0.055-0.256-0.075-0.522-0.407-0.722c-0.584-0.352-1.552-0.362-2.161-0.022C17.312,19.05,17.229,19.12,17.157,19.191z"/>
		<g>
			<path class="st33" d="M19.623,13.843v11.688c0,0.631-0.512,1.145-1.142,1.145c-0.634,0-1.145-0.514-1.145-1.145V13.843H19.623z"
				/>
			<path class="st34" d="M19.426,18.012v7.519c0,0.523-0.424,0.948-0.945,0.948c-0.523,0-0.948-0.425-0.948-0.948v-7.519
				C17.533,18.012,19.426,18.012,19.426,18.012z"/>
			<g>
				<path class="st35" d="M19.163,17.631c0.362,0.217,0.349,0.565-0.028,0.775c-0.378,0.21-0.977,0.204-1.339-0.014
					c-0.362-0.217-0.349-0.565,0.028-0.775C18.201,17.407,18.801,17.413,19.163,17.631z M18.48,18.012L18.48,18.012L18.48,18.012
					L18.48,18.012L18.48,18.012L18.48,18.012z"/>
			</g>
			<g>
				<path class="st36" d="M17.484,14.445c0.527,0.318,1.4,0.327,1.95,0.02c0.282-0.158,0.425-0.368,0.424-0.579l-0.001-0.207
					c0.001,0.211-0.141,0.421-0.424,0.579c-0.549,0.306-1.423,0.297-1.95-0.02c-0.256-0.154-0.383-0.352-0.384-0.551l0.001,0.207
					C17.101,14.093,17.228,14.291,17.484,14.445z"/>
			</g>
			<g>
				<path class="st33" d="M19.475,13.129c0.528,0.318,0.51,0.823-0.04,1.13c-0.549,0.306-1.423,0.297-1.95-0.02
					c-0.528-0.318-0.51-0.823,0.04-1.13C18.074,12.802,18.948,12.811,19.475,13.129z"/>
				<path class="st36" d="M19.338,14.086c0.203-0.113,0.321-0.259,0.323-0.401c0.002-0.137-0.101-0.275-0.289-0.388
					c-0.228-0.137-0.553-0.216-0.89-0.216c-0.326,0-0.633,0.071-0.863,0.199c-0.203,0.113-0.321,0.26-0.323,0.401
					c-0.002,0.137,0.101,0.275,0.289,0.388c0.228,0.137,0.552,0.216,0.89,0.216C18.802,14.285,19.108,14.215,19.338,14.086z"/>
			</g>
		</g>
		<g>
			<g>
				<g class="st20">
					<g>
						<polygon class="st37" points="20.732,26.398 20.008,25.977 20.009,26.131 20.733,26.552 						"/>
					</g>
					<g>
						<polygon class="st38" points="21.439,25.994 20.715,25.573 20.008,25.977 20.732,26.398 						"/>
					</g>
					<g>
						<polygon class="st39" points="20.732,26.398 20.733,26.552 21.44,26.148 21.439,25.994 						"/>
					</g>
				</g>
			</g>
			<g>
				<g class="st20">
					<g>
						<polygon class="st37" points="20.749,20.663 20.758,26.177 20.478,26.014 20.469,20.663 						"/>
					</g>
					<g>
						<polygon class="st30" points="20.996,20.663 21.005,26.035 20.758,26.177 20.749,20.663 						"/>
					</g>
				</g>
			</g>
		</g>
		<path class="st31" d="M21.3,20.546l-3.073,1.774l-1.218-0.745c0.174-0.303,0.067-0.648-0.34-0.893
			c-0.584-0.352-1.552-0.362-2.161-0.022c-0.116,0.064-0.204,0.138-0.277,0.216l-0.775-0.447l2.921-1.687l0.78,0.45
			c-0.326,0.332-0.261,0.76,0.219,1.049c0.584,0.352,1.552,0.362,2.161,0.022c0.264-0.147,0.41-0.335,0.452-0.53L21.3,20.546z"/>
		<g>
			<path class="st33" d="M16.71,15.57v11.688c0,0.631-0.512,1.145-1.142,1.145c-0.634,0-1.145-0.514-1.145-1.145V15.57H16.71z"/>
			<path class="st40" d="M16.513,19.739v7.519c0,0.523-0.424,0.948-0.945,0.948c-0.523,0-0.948-0.425-0.948-0.948v-7.519
				C14.62,19.739,16.513,19.739,16.513,19.739z"/>
			<g>
				<path class="st41" d="M16.25,19.358c0.362,0.217,0.349,0.565-0.028,0.775c-0.378,0.21-0.977,0.204-1.339-0.014
					c-0.362-0.217-0.349-0.565,0.028-0.775S15.888,19.14,16.25,19.358z"/>
			</g>
			<g>
				<path class="st36" d="M14.571,16.173c0.527,0.318,1.4,0.327,1.95,0.02c0.283-0.158,0.425-0.369,0.424-0.579l-0.001-0.207
					c0.001,0.211-0.141,0.421-0.424,0.579c-0.549,0.306-1.423,0.297-1.95-0.02c-0.256-0.154-0.383-0.353-0.384-0.551l0.001,0.207
					C14.188,15.82,14.315,16.018,14.571,16.173z"/>
			</g>
			<g>
				<path class="st33" d="M16.561,14.856c0.528,0.318,0.51,0.823-0.04,1.13c-0.549,0.306-1.423,0.297-1.95-0.02
					c-0.528-0.318-0.51-0.823,0.04-1.13S16.034,14.538,16.561,14.856z"/>
				<path class="st36" d="M16.426,15.813c0.203-0.113,0.321-0.259,0.323-0.401c0.002-0.137-0.101-0.275-0.289-0.388
					c-0.228-0.137-0.553-0.216-0.89-0.216c-0.326,0-0.633,0.07-0.863,0.199c-0.203,0.113-0.321,0.259-0.323,0.401
					c-0.002,0.137,0.101,0.275,0.289,0.388c0.227,0.137,0.552,0.216,0.889,0.216C15.888,16.012,16.195,15.942,16.426,15.813z"/>
			</g>
		</g>
		<path class="st31" d="M18.226,22.318l-2.799,1.616l-1.272-0.769c0.13-0.288,0.011-0.606-0.371-0.836
			c-0.584-0.352-1.552-0.362-2.161-0.022c-0.053,0.03-0.095,0.063-0.139,0.095l-0.724-0.418l2.696-1.556l0.775,0.447
			c-0.311,0.331-0.241,0.751,0.232,1.036c0.584,0.352,1.552,0.362,2.161,0.022c0.185-0.103,0.309-0.227,0.385-0.359L18.226,22.318z"
			/>
		<g>
			<path class="st33" d="M13.825,17.199v11.688c0,0.631-0.512,1.145-1.142,1.145c-0.634,0-1.145-0.514-1.145-1.145V17.199H13.825z"
				/>
			<path class="st42" d="M13.628,21.367v7.519c0,0.523-0.424,0.948-0.945,0.948c-0.523,0-0.948-0.425-0.948-0.948v-7.519H13.628z"/>
			<g>
				<path class="st43" d="M13.366,20.987c0.362,0.217,0.349,0.565-0.028,0.775c-0.378,0.21-0.977,0.204-1.339-0.014
					c-0.362-0.217-0.349-0.565,0.028-0.775C12.404,20.762,13.003,20.768,13.366,20.987z"/>
			</g>
			<g>
				<path class="st36" d="M11.687,17.801c0.527,0.318,1.4,0.327,1.95,0.02c0.282-0.158,0.425-0.368,0.424-0.579l-0.001-0.207
					c0.001,0.211-0.141,0.421-0.424,0.579c-0.549,0.306-1.423,0.297-1.95-0.02c-0.256-0.154-0.383-0.353-0.384-0.551l0.001,0.207
					C11.303,17.448,11.431,17.647,11.687,17.801z"/>
			</g>
			<g>
				<path class="st33" d="M13.677,16.484c0.528,0.318,0.51,0.823-0.04,1.13c-0.549,0.306-1.423,0.297-1.95-0.02
					c-0.528-0.318-0.51-0.823,0.04-1.13C12.277,16.158,13.15,16.166,13.677,16.484z"/>
				<path class="st36" d="M13.542,17.442c0.203-0.113,0.321-0.259,0.323-0.401c0.002-0.137-0.101-0.275-0.289-0.388
					c-0.228-0.137-0.553-0.216-0.89-0.216c-0.326,0-0.633,0.071-0.863,0.199c-0.203,0.113-0.321,0.259-0.323,0.401
					c-0.002,0.137,0.101,0.275,0.289,0.388c0.227,0.137,0.552,0.216,0.889,0.216C13.004,17.641,13.311,17.57,13.542,17.442z"/>
			</g>
		</g>
		<path class="st31" d="M8.423,24.194L7.68,23.765l1.662-0.96l1.419-0.819l0.724,0.418c-0.463,0.342-0.44,0.836,0.094,1.157
			c0.584,0.352,1.552,0.362,2.161,0.022c0.212-0.118,0.347-0.263,0.416-0.416l1.272,0.769l-2.064,1.191l-0.93,0.537l-1.25-0.76
			c0.165-0.3,0.056-0.64-0.346-0.882C10.254,23.67,9.286,23.66,8.677,24C8.573,24.058,8.493,24.123,8.423,24.194z"/>
		<g>
			<path class="st33" d="M10.836,18.962V30.65c0,0.631-0.512,1.145-1.142,1.145c-0.634,0-1.145-0.514-1.145-1.145V18.962H10.836z"/>
			<path class="st44" d="M10.639,23.131v7.519c0,0.523-0.424,0.948-0.945,0.948c-0.523,0-0.948-0.425-0.948-0.948v-7.519H10.639z"/>
			<g>
				<path class="st45" d="M10.376,22.75c0.362,0.217,0.349,0.565-0.028,0.775c-0.378,0.21-0.977,0.204-1.339-0.014
					c-0.362-0.217-0.349-0.565,0.028-0.775C9.415,22.526,10.014,22.532,10.376,22.75z"/>
			</g>
			<g>
				<path class="st36" d="M8.698,19.564c0.527,0.318,1.4,0.327,1.95,0.02c0.282-0.158,0.425-0.369,0.424-0.579l-0.001-0.207
					c0.001,0.211-0.141,0.421-0.424,0.579c-0.549,0.306-1.423,0.297-1.95-0.02c-0.256-0.154-0.383-0.352-0.384-0.551l0.001,0.207
					C8.314,19.212,8.442,19.41,8.698,19.564z"/>
			</g>
			<g>
				<path class="st33" d="M10.688,18.247c0.528,0.318,0.51,0.823-0.04,1.13c-0.549,0.306-1.423,0.297-1.95-0.02
					c-0.528-0.318-0.51-0.823,0.04-1.13C9.288,17.921,10.161,17.93,10.688,18.247z M9.693,18.802L9.693,18.802L9.693,18.802
					L9.693,18.802L9.693,18.802L9.693,18.802z"/>
				<path class="st36" d="M10.552,19.205c0.203-0.113,0.321-0.259,0.323-0.401c0.002-0.137-0.101-0.275-0.289-0.388
					c-0.228-0.137-0.552-0.216-0.89-0.216c-0.326,0-0.633,0.071-0.863,0.199C8.63,18.512,8.512,18.659,8.51,18.8
					c-0.002,0.137,0.101,0.275,0.289,0.388c0.228,0.137,0.553,0.216,0.89,0.216C10.015,19.404,10.322,19.333,10.552,19.205z"/>
				<path class="st36" d="M19.338,14.086c0.203-0.113,0.321-0.259,0.323-0.401c0.002-0.137-0.101-0.275-0.289-0.388
					c-0.228-0.137-0.553-0.216-0.89-0.216c-0.326,0-0.633,0.071-0.863,0.199c-0.203,0.113-0.321,0.26-0.323,0.401
					c-0.002,0.137,0.101,0.275,0.289,0.388c0.228,0.137,0.552,0.216,0.89,0.216C18.802,14.285,19.108,14.215,19.338,14.086z"/>
				<path class="st36" d="M14.707,15.007c-0.203,0.113-0.321,0.259-0.323,0.401c-0.002,0.137,0.101,0.275,0.289,0.388
					c0.228,0.137,0.553,0.216,0.89,0.216c0.326,0,0.633-0.071,0.863-0.199c0.203-0.113,0.321-0.26,0.323-0.401
					c0.002-0.137-0.101-0.275-0.289-0.388c-0.227-0.137-0.552-0.216-0.889-0.216C15.244,14.808,14.938,14.879,14.707,15.007z"/>
				<path class="st36" d="M13.542,17.442c0.203-0.113,0.321-0.259,0.323-0.401c0.002-0.137-0.101-0.275-0.289-0.388
					c-0.228-0.137-0.553-0.216-0.89-0.216c-0.326,0-0.633,0.071-0.863,0.199c-0.203,0.113-0.321,0.259-0.323,0.401
					c-0.002,0.137,0.101,0.275,0.289,0.388c0.227,0.137,0.552,0.216,0.889,0.216C13.004,17.641,13.311,17.57,13.542,17.442z"/>
			</g>
		</g>
		<g>
			<g>
				<g class="st20">
					<g>
						<polygon class="st37" points="10.181,32.458 9.457,32.037 9.458,32.191 10.182,32.612 						"/>
					</g>
					<g>
						<polygon class="st38" points="10.888,32.054 10.164,31.633 9.457,32.037 10.181,32.458 						"/>
					</g>
					<g>
						<polygon class="st39" points="10.181,32.458 10.182,32.612 10.889,32.208 10.888,32.054 						"/>
					</g>
				</g>
			</g>
			<g>
				<g class="st20">
					<g>
						<polygon class="st37" points="10.197,25.853 9.917,25.691 9.927,32.074 10.207,32.237 						"/>
					</g>
					<g>
						<polygon class="st46" points="10.444,25.711 10.163,25.548 9.917,25.691 10.197,25.853 						"/>
					</g>
					<g>
						<polygon class="st30" points="10.197,25.853 10.207,32.237 10.454,32.095 10.444,25.711 						"/>
					</g>
				</g>
			</g>
		</g>
		<g>
			<g>
				<g class="st20">
					<g>
						<polygon class="st37" points="6.892,30.546 6.168,30.125 6.169,30.279 6.893,30.7 						"/>
					</g>
					<g>
						<polygon class="st38" points="7.599,30.142 6.875,29.721 6.168,30.125 6.892,30.546 						"/>
					</g>
					<g>
						<polygon class="st39" points="6.892,30.546 6.893,30.7 7.6,30.296 7.599,30.142 						"/>
					</g>
				</g>
			</g>
			<g>
				<g class="st20">
					<g>
						<polygon class="st37" points="6.91,25.021 6.918,30.326 6.638,30.163 6.63,25.021 						"/>
					</g>
					<g>
						<polygon class="st30" points="7.156,25.021 7.164,30.183 6.918,30.326 6.91,25.021 						"/>
					</g>
				</g>
			</g>
		</g>
		<g>
			<g class="st20">
				<g>
					<polygon class="st30" points="10.173,26.969 6.168,24.636 6.169,25.046 10.174,27.378 					"/>
				</g>
				<g>
					<polygon class="st32" points="10.173,26.969 10.174,27.378 22.332,20.358 22.331,19.949 					"/>
				</g>
			</g>
		</g>
		<path class="st31" d="M12.435,25.662l-2.262,1.306l-4.005-2.332l1.512-0.873l0.743,0.429c-0.338,0.334-0.276,0.767,0.209,1.059
			c0.584,0.352,1.552,0.362,2.161,0.022c0.19-0.106,0.316-0.234,0.391-0.37L12.435,25.662z"/>
	</g>
	<g>
		<g>
			<path class="st47" d="M8.521,18.857c-0.004-0.019-0.01-0.037-0.01-0.056c0.002-0.142,0.12-0.288,0.323-0.401
				c0.23-0.128,0.537-0.199,0.863-0.199c0.338,0,0.662,0.079,0.89,0.216c0.189,0.113,0.291,0.251,0.289,0.388
				c-0.001,0.015-0.007,0.03-0.01,0.045c-0.023-0.118-0.116-0.234-0.279-0.332c-0.228-0.137-0.553-0.216-0.89-0.216
				c-0.326,0-0.632,0.07-0.863,0.199C8.652,18.602,8.544,18.729,8.521,18.857z"/>
		</g>
		<g>
			<path class="st47" d="M14.394,15.465c-0.004-0.019-0.01-0.037-0.01-0.056c0.002-0.142,0.12-0.288,0.323-0.401
				c0.23-0.128,0.537-0.199,0.863-0.199c0.338,0,0.662,0.079,0.89,0.216c0.189,0.113,0.291,0.251,0.289,0.388
				c-0.001,0.015-0.007,0.03-0.01,0.045c-0.023-0.118-0.116-0.234-0.279-0.332c-0.228-0.137-0.553-0.216-0.89-0.216
				c-0.326,0-0.632,0.07-0.863,0.199C14.526,15.21,14.417,15.338,14.394,15.465z"/>
		</g>
		<g>
			<path class="st47" d="M11.51,17.093c-0.004-0.019-0.01-0.037-0.01-0.056c0.002-0.142,0.12-0.288,0.323-0.401
				c0.23-0.128,0.537-0.199,0.863-0.199c0.338,0,0.662,0.079,0.89,0.216c0.189,0.113,0.291,0.251,0.289,0.388
				c-0.001,0.015-0.007,0.03-0.01,0.045c-0.023-0.118-0.116-0.234-0.279-0.332c-0.228-0.137-0.553-0.216-0.89-0.216
				c-0.326,0-0.632,0.07-0.863,0.199C11.641,16.839,11.533,16.966,11.51,17.093z"/>
		</g>
		<g>
			<path class="st47" d="M17.307,13.726c-0.004-0.019-0.01-0.037-0.01-0.056c0.002-0.142,0.12-0.288,0.323-0.401
				c0.23-0.128,0.537-0.199,0.863-0.199c0.338,0,0.662,0.079,0.89,0.216c0.189,0.113,0.291,0.251,0.289,0.388
				c-0.001,0.015-0.007,0.03-0.01,0.045c-0.023-0.118-0.116-0.234-0.279-0.332c-0.228-0.137-0.553-0.216-0.89-0.216
				c-0.326,0-0.632,0.07-0.863,0.199C17.439,13.471,17.33,13.599,17.307,13.726z"/>
		</g>
	</g>
</g>
<g>
	<g>
		<path class="st33" d="M18.273,39.718c1.765,1.63,4.362,2.227,6.727,2.241c2.365-0.014,4.962-0.611,6.727-2.241
			c1.098-1.014,1.728-2.477,1.362-3.969c-0.287-1.171-1.059-2.045-1.79-2.964c0.035,0.046,0.069,0.092,0.101,0.14
			c-0.979-1.361-2.093-2.641-3.136-3.952H25h-3.264c-1.044,1.311-2.158,2.591-3.136,3.952c0.033-0.048,0.066-0.094,0.101-0.14
			c-0.731,0.919-1.503,1.793-1.79,2.964C16.545,37.241,17.175,38.704,18.273,39.718z"/>
		<g>
			<rect x="21.736" y="25.839" class="st33" width="6.528" height="4.562"/>
		</g>
		<g>
			<path class="st33" d="M27.749,21.851c1.578,0.88,1.63,2.331,0.116,3.243s-4.02,0.937-5.598,0.057
				c-1.578-0.88-1.63-2.332-0.116-3.243C23.665,20.997,26.172,20.971,27.749,21.851z M25.009,23.501L25.009,23.501L25.009,23.501
				L25.009,23.501L25.009,23.501L25.009,23.501z"/>
			<path class="st36" d="M22.536,24.668c-0.587-0.327-0.928-0.751-0.935-1.162c-0.006-0.397,0.29-0.797,0.835-1.125
				c0.656-0.395,1.589-0.621,2.56-0.621c0.939,0,1.822,0.204,2.485,0.574c0.587,0.327,0.928,0.751,0.935,1.162
				c0.006,0.397-0.29,0.797-0.835,1.125c-0.656,0.395-1.589,0.621-2.56,0.621C24.082,25.242,23.2,25.038,22.536,24.668z"/>
			<path class="st47" d="M28.375,23.753c0.027-0.085,0.042-0.172,0.041-0.258c-0.007-0.411-0.348-0.835-0.935-1.162
				c-0.664-0.37-1.546-0.574-2.485-0.574c-0.971,0-1.904,0.226-2.56,0.621c-0.545,0.328-0.842,0.727-0.835,1.125
				c0.001,0.075,0.018,0.151,0.041,0.227c0.096-0.309,0.368-0.609,0.794-0.866c0.656-0.395,1.589-0.621,2.56-0.621
				c0.939,0,1.822,0.204,2.485,0.574C27.96,23.087,28.272,23.418,28.375,23.753z"/>
		</g>
		<g>
			<path class="st36" d="M27.863,26.213c-1.514,0.911-4.02,0.937-5.598,0.057c-0.812-0.452-1.22-1.057-1.218-1.661l0.003-1.118
				c-0.002,0.604,0.406,1.208,1.218,1.661c1.578,0.88,4.084,0.854,5.598-0.057c0.734-0.443,1.1-1.012,1.102-1.582l-0.003,1.118
				C28.963,25.201,28.597,25.77,27.863,26.213z"/>
		</g>
		<path class="st48" d="M17.208,36.869c0.049,0.631,0.325,1.577,1.363,2.5c1.208,1.074,2.872,1.539,3.193,1.621
			c0.519,0.133,1.164,0.298,2.213,0.381c1.108,0.088,1.985,0.012,2.311-0.024c0.242-0.027,0.978-0.109,1.68-0.289
			c0.236-0.06,0.953-0.244,1.649-0.563c0.675-0.309,1.657-0.829,2.388-1.769c0.797-1.024,0.753-1.972,0.739-2.283
			c-0.026-0.558-0.234-1.058-0.302-1.222c-0.196-0.47-0.505-0.874-0.642-1.052c0.001,0.001,0.001,0.001,0.002,0.002
			c-0.053-0.067-0.388-0.488-0.441-0.555c-0.052-0.067-0.123-0.155-0.176-0.222c-0.026-0.033-0.062-0.078-0.088-0.111
			c-0.053-0.067-0.123-0.155-0.176-0.222c-0.052-0.067-0.123-0.155-0.176-0.222c-0.026-0.033-0.062-0.078-0.088-0.111
			c-0.053-0.067-0.123-0.155-0.176-0.222c-0.052-0.067-0.123-0.155-0.176-0.222c-0.026-0.033-0.062-0.078-0.088-0.111
			c-0.052-0.067-0.123-0.155-0.176-0.222c-0.283-0.356-0.684-0.689-1.201-0.977c-2.218-1.236-5.741-1.201-7.869,0.08
			c-0.436,0.262-0.779,0.556-1.031,0.869c-0.592,0.736-1.185,1.472-1.777,2.208c0.001-0.001,0.002-0.003,0.003-0.004
			C17.47,34.993,17.14,35.941,17.208,36.869z"/>
		<g>
			<path class="st44" d="M17.212,36.868c0.021,0.22,0.069,0.735,0.431,1.375c0.343,0.608,0.834,1.048,1.029,1.209
				c0.156,0.128,0.368,0.296,0.538,0.404c0.336,0.214,0.579,0.369,0.94,0.535c0.341,0.157,1.049,0.484,2.125,0.725
				c1.447,0.323,3.069,0.381,4.566,0.162c0.388-0.057,0.738-0.125,1.099-0.214c0.421-0.103,0.504-0.131,1.044-0.314
				c0.507-0.172,1.141-0.487,1.481-0.697c0.247-0.153,0.903-0.558,1.419-1.176c0.259-0.311,0.4-0.557,0.449-0.648
				c0.199-0.374,0.283-0.638,0.318-0.793c0.038-0.167,0.101-0.445,0.101-0.729c0-0.149,0-0.498-0.101-0.886
				c-0.061-0.237-0.226-0.863-0.832-1.635c-0.004-0.006-0.018-0.025-0.013-0.019c0.013,0.019-1.834-2.429-1.834-2.429
				s0.663,2.811-0.969,3.793c-2.128,1.281-5.651,1.317-7.869,0.08c-1.764-0.983-2.13-2.658-1.154-3.872
				c-0.593,0.736-1.226,1.656-1.818,2.392c-0.002,0.003-0.004,0.007-0.007,0.01c-0.333,0.43-0.568,0.799-0.773,1.386
				C17.21,36.02,17.181,36.543,17.212,36.868z"/>
			<path class="st49" d="M19.94,31.923L19.94,31.923L19.94,31.923z"/>
		</g>
		<g class="st50">
			<path class="st51" d="M28.684,32.696c0.555-0.41,1.452-0.138,2.003,0.608s0.547,1.683-0.008,2.093s-1.452,0.138-2.003-0.608
				C28.125,34.043,28.129,33.106,28.684,32.696z"/>
		</g>
		<g class="st52">
			<path class="st51" d="M29.55,36.194c0.313-0.122,0.696,0.107,0.854,0.513c0.158,0.406,0.032,0.834-0.281,0.956
				c-0.313,0.123-0.696-0.107-0.854-0.513C29.11,36.744,29.236,36.316,29.55,36.194z"/>
		</g>
	</g>
	<g>
		<g>
			<g>
				<defs>
					<ellipse id="SVGID_00000105401668258745798630000002630393279053867907_" cx="24.978" cy="33.248" rx="5.61" ry="3.322"/>
				</defs>
				<clipPath id="SVGID_00000110466753777338601970000005751005462637557149_">
					<use xlink:href="#SVGID_00000105401668258745798630000002630393279053867907_"  style="overflow:visible;"/>
				</clipPath>
				<g style="clip-path:url(#SVGID_00000110466753777338601970000005751005462637557149_);">
					<g id="River">
						<g id="top_river">
							<polygon class="st42" points="24.981,37.892 33.013,33.237 24.988,28.604 16.939,33.239 							"/>
							<polygon class="st54" points="17.76,33.714 25.802,29.074 24.988,28.604 16.939,33.239 							"/>
							<polygon class="st55" points="24.981,37.892 33.013,33.237 32.348,32.854 24.309,37.504 							"/>
							<polygon class="st54" points="18.431,34.103 26.466,29.458 26.199,29.303 18.161,33.946 							"/>
							<polygon class="st55" points="19.464,34.701 27.475,30.04 26.466,29.458 18.431,34.103 							"/>
							<path class="st55" d="M28.077,34.838l3.862-2.222l-0.634-0.366c-0.111,0.041-0.226,0.089-0.329,0.118
								c-1.238,0.354-1.962,1.435-2.597,1.902l-0.302,0.173c-0.18,0.069-0.27,0.126-0.303,0.174l-4.247,2.433l0.329,0.202
								L28.077,34.838L28.077,34.838z"/>
							<path class="st55" d="M27.176,31.197l1.145-0.669l-0.299-0.172l-8.007,4.663l0.309,0.179l3.335-1.947
								c0.011-0.004,0.022-0.008,0.033-0.012c0.667-0.239,1.489-0.187,1.894-0.742C25.992,31.943,27.176,31.198,27.176,31.197z"/>
						</g>
					</g>
					<g id="Dock">
						<polygon id="XMLID_324_" class="st56" points="24.818,31.073 24.818,31.577 24.929,31.517 24.929,31.138 						"/>
						<polygon id="XMLID_323_" class="st57" points="24.818,31.073 24.818,31.577 24.705,31.507 24.705,31.009 						"/>
						<polygon id="XMLID_322_" class="st56" points="24.25,30.745 24.25,31.248 24.362,31.188 24.362,30.809 						"/>
						<polygon id="XMLID_321_" class="st57" points="24.25,30.745 24.25,31.248 24.138,31.178 24.138,30.68 						"/>
						<polygon id="XMLID_320_" class="st56" points="23.678,30.416 23.678,30.92 23.79,30.859 23.79,30.481 						"/>
						<polygon id="XMLID_319_" class="st57" points="23.678,30.416 23.678,30.92 23.565,30.849 23.565,30.351 						"/>
						<polygon id="XMLID_318_" class="st56" points="23.106,30.087 23.106,30.591 23.218,30.53 23.218,30.151 						"/>
						<polygon id="XMLID_317_" class="st57" points="23.106,30.087 23.106,30.591 22.993,30.521 22.993,30.023 						"/>
						<polygon class="st58" points="22.603,29.975 25.134,31.355 26.394,30.642 23.895,29.229 						"/>
						<polygon class="st59" points="25.134,31.355 25.144,31.507 22.617,30.142 22.603,29.975 						"/>
						<polygon class="st60" points="25.134,31.355 25.144,31.507 26.401,30.783 26.394,30.642 						"/>
					</g>
					<g id="Boat">
						<path class="st61" d="M26.322,32.787c0,0-1.475,0.611-1.582,0.626s-0.801-0.191-0.801-0.191l-0.382-0.443c0,0,0,0,0.076-0.015
							c0.077-0.015,0.788-0.367,0.788-0.367l2.545-1.48l1.081,0.623L26.322,32.787z"/>
						<path class="st62" d="M23.555,32.779c0,0,0.211,0.552,0.698,0.766c0.202,0.089,0.427,0.095,0.621,0.073
							c0.033-0.006,0.068-0.013,0.104-0.02c0.256-0.051,0.646-0.257,0.646-0.257l0,0l2.307-1.349l0.115-0.453l-2.383,1.349l0,0
							c0,0-0.385,0.21-0.77,0.248c-0.001,0-0.001,0-0.002,0c-0.017,0.002-0.034,0.004-0.05,0.006
							c-0.071,0.008-0.153,0.017-0.247,0.027C23.932,33.238,23.555,32.779,23.555,32.779z"/>
						<path class="st63" d="M23.555,32.777c0,0,0.236,0.339,0.535,0.472c0.3,0.134,0.603,0.107,0.987,0.022
							c0.384-0.085,0.869-0.373,0.869-0.373l2.058-1.191l0.042-0.168l-2.383,1.349l0,0c0,0-0.385,0.21-0.77,0.248
							c-0.001,0-0.001,0-0.002,0c-0.017,0.002-0.034,0.004-0.05,0.006c-0.071,0.008-0.153,0.017-0.247,0.027
							C23.932,33.238,23.555,32.777,23.555,32.777z"/>
						<path class="st64" d="M24.876,33.62c0.033-0.006,0.068-0.013,0.104-0.02c0.256-0.051,0.646-0.257,0.646-0.257l2.307-1.349
							l0.017-0.068l-2.296,1.321c0,0-0.66,0.341-0.951,0.317s-0.475-0.046-0.664-0.184c-0.176-0.128-0.253-0.215-0.263-0.226
							c0.112,0.146,0.27,0.3,0.479,0.392C24.457,33.635,24.682,33.641,24.876,33.62z"/>
						<polygon class="st62" points="25.536,32.875 25.579,32.585 24.936,32.192 26.608,31.218 27.519,31.762 						"/>
						<polygon class="st65" points="27.519,31.762 27.098,31.998 26.549,31.663 26.608,31.218 						"/>
						<polygon class="st66" points="25.286,32.406 26.549,31.663 26.608,31.218 24.936,32.192 						"/>
						<path class="st67" d="M27.06,32.044l-0.626-0.362l0.049-0.215c0.01-0.043,0.059-0.065,0.098-0.042l0.573,0.339
							c0.042,0.025,0.061,0.076,0.045,0.122l-0.034,0.099L27.06,32.044z"/>
						<path class="st61" d="M27.06,32.044l-0.205,0.115l-0.577-0.32c-0.025-0.015-0.026-0.051-0.001-0.065l0.156-0.092L27.06,32.044
							z"/>
						<path class="st67" d="M26.463,32.376l-0.626-0.362l0.049-0.215c0.01-0.043,0.059-0.065,0.098-0.042l0.573,0.339
							c0.042,0.025,0.061,0.076,0.045,0.122l-0.034,0.099L26.463,32.376z"/>
						<path class="st61" d="M26.463,32.376l-0.205,0.115l-0.577-0.32c-0.025-0.015-0.026-0.051-0.001-0.065l0.156-0.092
							L26.463,32.376z"/>
						<path class="st67" d="M25.851,32.747l-0.626-0.362l0.049-0.215c0.01-0.043,0.059-0.065,0.098-0.042l0.573,0.339
							c0.042,0.025,0.061,0.076,0.045,0.122l-0.034,0.099L25.851,32.747z"/>
						<path class="st61" d="M25.851,32.747l-0.205,0.115l-0.577-0.32c-0.025-0.015-0.026-0.051-0.001-0.065l0.156-0.092
							L25.851,32.747z"/>
						<polygon class="st61" points="24.635,32.064 24.454,32.419 24.421,32.398 24.599,32.043 						"/>
						<polygon class="st68" points="25.579,32.585 25.524,32.957 25.465,32.982 25.524,32.616 						"/>
						<polygon class="st69" points="24.635,32.064 25.473,32.585 25.403,33.007 24.454,32.419 						"/>
						<polygon class="st61" points="25.473,32.585 24.635,32.064 24.607,32.119 25.462,32.653 						"/>
						<polygon class="st68" points="25.524,32.616 24.599,32.043 24.645,32.014 25.579,32.585 						"/>
						<path class="st70" d="M27.573,31.241v0.215l0.126,0.078l0.199-0.184l0.014-0.072l-0.145-0.109h-0.001
							c-0.016-0.01-0.04-0.003-0.04-0.003l-0.119,0.062L27.573,31.241z"/>
						<path class="st62" d="M27.913,31.478c0,0,0.012-0.101,0.012-0.161s-0.062-0.041-0.062-0.041l-0.161,0.079v0.179l0.161-0.08
							L27.913,31.478z"/>
						<path class="st70" d="M26.934,30.857v0.215l0.126,0.078l0.199-0.184l0.014-0.072l-0.145-0.109h-0.001
							c-0.016-0.01-0.04-0.003-0.04-0.003l-0.119,0.062L26.934,30.857z"/>
						<path class="st62" d="M27.274,31.094c0,0,0.012-0.101,0.012-0.161s-0.062-0.041-0.062-0.041l-0.161,0.079v0.179l0.161-0.08
							L27.274,31.094z"/>
					</g>
				</g>
			</g>
		</g>
	</g>
</g>
</svg>
