<?xml version="1.0" encoding="utf-8"?>
<!-- Generator: Adobe Illustrator 26.0.1, SVG Export Plug-In . SVG Version: 6.00 Build 0)  -->
<svg version="1.1" id="Layer_1" xmlns="http://www.w3.org/2000/svg" xmlns:xlink="http://www.w3.org/1999/xlink" x="0px" y="0px"
	 viewBox="0 0 50 50" style="enable-background:new 0 0 50 50;" xml:space="preserve">
<style type="text/css">
	.st0{display:none;}
	.st1{display:inline;}
	.st2{fill:#344593;}
	.st3{fill:#3E54A3;}
	.st4{fill:#2E4490;}
	.st5{fill:#122571;}
	.st6{opacity:0.5;fill:#031F60;enable-background:new    ;}
	.st7{fill:#BBDFFF;}
	.st8{fill:#FDB724;}
	.st9{fill:#E7478D;}
	.st10{fill:#BF2878;}
	.st11{fill:#27DEBF;}
	.st12{fill:#1BBC9D;}
	.st13{fill:#A33D64;}
	.st14{fill:#82294D;}
	.st15{fill:#0A4A80;}
	.st16{fill:#F1FCFF;}
	.st17{fill:#D6E6FF;}
	.st18{fill:#CEF3FF;}
	.st19{fill:#606060;}
	.st20{enable-background:new    ;}
	.st21{fill:#F19729;}
	.st22{fill:#FCB040;}
	.st23{fill:#FFCB49;}
	.st24{fill:#2E5677;}
	.st25{fill:#FF51CE;}
	.st26{fill:#EDE6A0;}
	.st27{fill:#FFF7B0;}
	.st28{fill:url(#SVGID_1_);}
	.st29{fill:url(#SVGID_00000172426445633917684660000009371588803547553671_);}
	.st30{display:none;fill:#FF0000;}
	.st31{fill:#57A8DD;}
	.st32{fill:#F4F4F4;}
	.st33{fill:#B2D2E8;}
	.st34{fill:#7CB7D8;}
	.st35{fill:#01384D;}
	.st36{fill:#255468;}
	.st37{fill:#FFFFFF;}
	.st38{fill:#84C2EB;}
	.st39{fill:#1E0F00;}
	.st40{fill:#009BD1;}
	.st41{fill:#535B5B;}
	.st42{fill:#2F3F44;}
	.st43{fill:#3F4B4C;}
	.st44{fill:#C5C5C5;}
	.st45{fill:#324144;}
	.st46{fill:#FF6666;}
	.st47{fill:#E86464;}
	.st48{fill:#D35353;}
</style>
<g id="Example" class="st0">
	<g class="st1">
		<g id="XMLID_4903_">
			<path id="XMLID_4905_" class="st2" d="M45.3,33.2v-4.6l0,0c0-0.9-0.6-1.8-1.7-2.4c-2.3-1.3-6-1.3-8.4,0c-1.2,0.7-1.7,1.6-1.7,2.4
				l0,0v4.5c0,0.9,0.6,1.8,1.7,2.4c2.3,1.3,6,1.3,8.4,0C44.8,34.9,45.3,34.1,45.3,33.2L45.3,33.2L45.3,33.2L45.3,33.2z"/>
			<path id="XMLID_4904_" class="st2" d="M45.3,33.2v-4.6l0,0c0-0.9-0.6-1.8-1.7-2.4c-2.3-1.3-6-1.3-8.4,0c-1.2,0.7-1.7,1.6-1.7,2.4
				l0,0v4.5c0,0.9,0.6,1.8,1.7,2.4c2.3,1.3,6,1.3,8.4,0C44.8,34.9,45.3,34.1,45.3,33.2L45.3,33.2L45.3,33.2L45.3,33.2z"/>
		</g>
		<polygon id="XMLID_4900_" class="st3" points="39.4,23 29.7,28.6 39.4,34.2 49.2,28.6 		"/>
		<path id="XMLID_4899_" class="st4" d="M44.3,31.4l-4.8-2.7c-0.1,0-0.2,0-0.2,0.1s0,0.2,0.1,0.2l4.6,2.6L44.3,31.4z"/>
		<polygon id="XMLID_4896_" class="st5" points="29.7,28.6 29.7,29 39.4,34.6 39.4,34.2 		"/>
		<polygon id="XMLID_4883_" class="st4" points="49.2,28.6 49.2,29 39.4,34.6 39.4,34.2 		"/>
		<polygon id="XMLID_4876_" class="st6" points="33.5,31.2 39.4,35.2 45.3,31.2 39.4,34.6 		"/>
		<g id="XMLID_4823_">
			<path id="XMLID_4835_" class="st7" d="M44.7,36.2c-0.1,0-0.2-0.1-0.2-0.2v-4c0-0.2-0.1-0.4-0.3-0.4l-4.9-2.8
				c-0.1,0-0.1-0.2-0.1-0.2c0-0.1,0.2-0.1,0.2-0.1l4.9,2.8c0.3,0.2,0.4,0.4,0.4,0.7v4C44.8,36.1,44.7,36.2,44.7,36.2z"/>
		</g>
		<path class="st8" d="M45.3,39.3L45,36.6c0.1-0.1,0.1-0.2,0-0.2l0,0l0,0l0,0v-0.1l0,0l0,0l0,0c0-0.2-0.2-0.4-0.4-0.4c0,0,0,0-0.1,0
			l0,0l0,0c0,0,0,0-0.1,0c0,0,0,0-0.1,0c0,0,0,0-0.1,0c0,0,0,0,0,0.1l0,0v0.1c0,0.1,0,0.2,0.1,0.3l0,0c-0.1,0.1,0,0.2,0,0.2L44,39.3
			c0,0.1,0.1,0.2,0.3,0.3l0,0h0.1l0,0c0.1,0,0.2,0.1,0.3,0.1l0,0l0,0l0,0l0,0l0,0c0.1,0,0.2,0,0.3-0.1l0,0h0.1l0,0
			C45.3,39.5,45.3,39.4,45.3,39.3z"/>
	</g>
	<g id="XMLID_3738_" class="st1">
		<path id="XMLID_4404_" class="st9" d="M12.4,36.1c1.1-0.8,1.8-2.7,1.7-4c-0.1-1.4-1.2-2-1.7-2.3l0,0c-1.1-0.6-2.8-0.6-3.9,0l0,0
			C8,30.1,7,30.7,6.8,32.1c-0.1,1.3,0.6,3.2,1.7,4l0,0c0.1,0,0.1,0.1,0.2,0.1c1,0.6,2.6,0.6,3.6,0l0,0
			C12.3,36.2,12.4,36.1,12.4,36.1L12.4,36.1z"/>
		<path id="XMLID_4395_" class="st10" d="M9.9,30.8c-0.3,0.2-0.3,0.4,0,0.6s0.8,0.2,1.1,0s0.3-0.4,0-0.6
			C10.7,30.6,10.2,30.6,9.9,30.8z"/>
		<g id="XMLID_4426_">
			<path id="XMLID_2198_" class="st11" d="M10.5,31.2c0,0-0.9,0-1.4-0.7s0-1.9,0-1.9s1.1,0.1,1.7,1C11.2,30.4,10.5,31.2,10.5,31.2z"
				/>
			<path id="XMLID_4431_" class="st12" d="M9,30.5c0.5,0.7,1.4,0.7,1.4,0.7C10.3,29.6,9,28.6,9,28.6S8.5,29.8,9,30.5z"/>
		</g>
		<path id="XMLID_4403_" class="st13" d="M10.5,31.2c0,0,0-1.3,0.7-1.9s1.2-0.6,1.2-0.6c0.4,0,0.9,0.4,0.7,0.4c0,0-0.9,0-1.5,0.5
			s-0.9,1.5-0.9,1.6c0,0,0,0.1-0.1,0.1C10.5,31.3,10.5,31.2,10.5,31.2z"/>
		<path id="XMLID_4496_" class="st14" d="M12.4,28.7c-0.1,0-0.1,0.1,0.2,0.3c0.2,0.1,0.4,0.2,0.5,0.2l0,0
			C13.3,29,12.8,28.7,12.4,28.7z"/>
	</g>
	<g class="st1">
		<g>
			<path class="st15" d="M26,28.8L26,28.8c-1,0.6-1.9,1-2.8,1.2l0,0c0,0,0,0-0.1,0l-0.5,0.2h-0.1c-0.1,0-0.2,0.1-0.3,0.1h-0.1
				c-0.1,0-0.2,0.1-0.2,0.1h-0.1c-0.5,0.2-0.9,0.4-1.4,0.7c-0.1,0.1-0.2,0.1-0.3,0.2L20,31.4c-0.4,0.3-2,1.5-2.9,2.5l-0.6,0.6
				L16,34.6c-1,0.2-2,0.5-3,1.1c-0.1,0.1-0.2,0.1-0.3,0.2c-0.3,0.2-0.5,0.3-0.8,0.5l0,0l-0.1,0.1c-0.1,0.1-0.2,0.1-0.3,0.2l0,0l0,0
				c-0.4,0.3-0.9,0.7-1.3,1.1c-0.1,0.1-0.2,0.2-0.3,0.3c-0.3,0.3-0.7,0.6-1,0.9H8.8c-0.3,0.3-0.7,0.5-1,0.8
				c-0.2,0.2-0.5,0.3-0.7,0.5H7l13.7,8.3h0.1c0.8-0.5,1.7-1.2,2.5-1.9c0.5-0.5,1.1-0.9,1.7-1.4c1.2-0.9,2.3-1.5,3.2-1.8
				c0.7-0.3,1.4-0.5,2.1-0.6l0.5-0.6c0.7-0.7,1.5-1.3,2.4-1.8c1.5-1,3.2-1.8,4.9-2.5c0.6-0.2,1.2-0.5,1.6-0.7l0.2-0.1L26,28.8z"/>
			<g>
				<g>
					<g>
						<path class="st16" d="M39.1,36.7c-0.5,0.3-0.7,0.4-1.2,0.6c-0.3,0.1-0.5,0.2-0.8,0.3c-0.2,0.1-0.3,0.1-0.5,0.1
							c-0.7,0.2-1.4,0.4-2,0.8c-0.2,0.1-0.4,0.2-0.6,0.3c-1.3,0.8-2.6,2-3.9,3.5l-2.5-1.5l-11-6.7c1.3-1.5,2.6-2.7,3.9-3.5
							c0.2-0.1,0.4-0.2,0.6-0.3c0.7-0.4,1.4-0.6,2-0.8c0.2,0,0.3-0.1,0.5-0.1c0.3-0.1,0.5-0.2,0.8-0.3c0.5-0.2,0.7-0.3,1.2-0.6
							L39.1,36.7z"/>
						<g>
							<path class="st16" d="M30.1,42.3c-1.3,0.1-2.6,0.5-3.9,1.3c-0.2,0.1-0.4,0.2-0.6,0.4c-0.7,0.5-1.4,1-2,1.7
								c-0.2,0.2-0.3,0.3-0.5,0.4c-0.3,0.3-0.6,0.5-0.9,0.7c-0.5,0.4-0.8,0.6-1.3,0.9L7.5,39.5C8,39.2,8.3,39,8.8,38.6
								c0.3-0.2,0.6-0.5,0.9-0.7c0.2-0.1,0.3-0.3,0.5-0.4c0.7-0.6,1.4-1.2,2-1.7c0.2-0.1,0.4-0.3,0.6-0.4c1.3-0.8,2.6-1.2,3.9-1.3
								l11,6.7L30.1,42.3z"/>
						</g>
					</g>
					<polygon class="st17" points="7.5,39.5 7.3,40.3 20.7,48.5 20.9,47.7 					"/>
					<path class="st18" d="M39.4,37.1c-0.9,0.6-1.8,1-2.7,1.2c0,0,0,0-0.1,0s-0.2,0-0.3,0.1c-0.1,0-0.2,0.1-0.3,0.1
						s-0.2,0.1-0.3,0.1c-0.6,0.2-1.2,0.5-1.8,0.9c-0.1,0.1-0.2,0.1-0.3,0.2c-1,0.7-2,1.5-3,2.5L30,42.8l-0.6,0.1c-1,0.2-2,0.5-3,1.1
						c-0.1,0.1-0.2,0.1-0.3,0.2c-0.3,0.2-0.5,0.3-0.8,0.5c-0.6,0.4-1.1,0.9-1.7,1.4c-0.1,0.1-0.2,0.2-0.3,0.3
						c-0.9,0.9-1.8,1.6-2.7,2.2l0.2-0.8c0.5-0.3,0.8-0.5,1.3-0.9c0.3-0.2,0.6-0.5,0.9-0.7c0.2-0.1,0.3-0.3,0.5-0.4
						c0.7-0.6,1.4-1.2,2-1.7c0.2-0.1,0.4-0.3,0.6-0.4c1.3-0.8,2.6-1.2,3.9-1.3c1.3-1.5,2.6-2.7,3.9-3.5c0.2-0.1,0.4-0.2,0.6-0.3
						c0.7-0.4,1.4-0.6,2-0.8c0.2,0,0.3-0.1,0.5-0.1c0.3-0.1,0.5-0.2,0.8-0.3c0.5-0.2,0.7-0.3,1.2-0.6L39.4,37.1z"/>
				</g>
			</g>
			<g>
				<path class="st19" d="M17.8,34.6C17.9,34.6,17.9,34.6,17.8,34.6c1.2-1.4,2.5-2.5,3.7-3.2c0.2-0.1,0.4-0.2,0.5-0.3
					c0.7-0.3,1.3-0.6,2-0.8c0.2,0,0.3-0.1,0.5-0.1c0.3-0.1,0.5-0.2,0.8-0.3c0.4-0.2,0.7-0.3,1.1-0.5c0,0,0,0,0-0.1s0,0-0.1,0
					c-0.4,0.2-0.6,0.3-1,0.5c-0.3,0.1-0.5,0.2-0.8,0.3c-0.2,0.1-0.3,0.1-0.5,0.1c-0.7,0.2-1.3,0.4-2,0.8c-0.2,0.1-0.4,0.2-0.6,0.3
					C20.3,32.1,19,33.2,17.8,34.6C17.8,34.5,17.8,34.6,17.8,34.6L17.8,34.6z"/>
				<path class="st19" d="M25.4,30.6c-0.2,0.1-0.3,0.1-0.5,0.1c-0.7,0.2-1.3,0.4-2,0.8c-0.2,0.1-0.4,0.2-0.6,0.3
					c-1.2,0.7-2.5,1.8-3.7,3.2v0.1l0,0l0,0c1.2-1.4,2.5-2.5,3.7-3.2c0.2-0.1,0.4-0.2,0.6-0.3c0.7-0.4,1.3-0.6,2-0.8
					C25.1,30.8,25.3,30.7,25.4,30.6c0.3,0,0.6-0.1,0.8-0.2c0.4-0.2,0.6-0.3,1-0.5c0,0,0,0,0-0.1c0,0,0,0-0.1,0
					c-0.4,0.2-0.6,0.3-1,0.5C25.9,30.4,25.7,30.5,25.4,30.6z"/>
				<path class="st19" d="M26.2,31.1c-0.2,0.1-0.3,0.1-0.5,0.1c-0.7,0.2-1.3,0.4-2,0.8c-0.2,0.1-0.4,0.2-0.6,0.3
					c-1.2,0.7-2.5,1.8-3.7,3.2v0.1l0,0l0,0c1.2-1.4,2.5-2.5,3.7-3.2c0.2-0.1,0.4-0.2,0.6-0.3c0.7-0.4,1.4-0.6,2-0.8
					C25.9,31.3,26.1,31.2,26.2,31.1c0.3,0,0.6-0.1,0.8-0.2c0.4-0.2,0.6-0.3,1-0.5c0,0,0,0,0-0.1c0,0,0,0-0.1,0
					c-0.4,0.2-0.6,0.3-1,0.5C26.8,30.9,26.5,31,26.2,31.1z"/>
				<path class="st19" d="M27.1,31.5c-0.2,0.1-0.3,0.1-0.5,0.1c-0.7,0.2-1.3,0.4-2,0.8c-0.2,0.1-0.4,0.2-0.6,0.3
					c-1.2,0.7-2.5,1.8-3.7,3.2V36l0,0l0,0c1.2-1.4,2.5-2.5,3.7-3.2c0.2-0.1,0.4-0.2,0.6-0.3c0.7-0.4,1.4-0.6,2-0.8
					C26.7,31.7,26.9,31.7,27.1,31.5c0.3,0,0.6-0.1,0.8-0.2c0.4-0.2,0.6-0.3,1-0.5c0,0,0,0,0-0.1c0,0,0,0-0.1,0
					c-0.4,0.2-0.6,0.3-1,0.5C27.6,31.4,27.3,31.5,27.1,31.5z"/>
				<path class="st19" d="M27.9,32c-0.2,0.1-0.3,0.1-0.5,0.1c-0.7,0.2-1.4,0.4-2,0.8c-0.2,0.1-0.4,0.2-0.6,0.3
					c-1.2,0.7-2.5,1.9-3.7,3.2v0.1l0,0l0,0c1.2-1.4,2.5-2.5,3.7-3.2c0.2-0.1,0.4-0.2,0.6-0.3c0.7-0.4,1.4-0.6,2-0.8
					C27.6,32.2,27.8,32.2,27.9,32c0.3,0,0.6-0.1,0.8-0.2c0.4-0.2,0.6-0.3,1-0.5c0,0,0,0,0-0.1c0,0,0,0-0.1,0c-0.4,0.2-0.6,0.3-1,0.5
					C28.4,31.8,28.1,31.9,27.9,32z"/>
				<path class="st19" d="M28.7,32.5c-0.2,0.1-0.3,0.1-0.5,0.1c-0.7,0.2-1.4,0.4-2,0.8c-0.2,0.1-0.4,0.2-0.6,0.3
					c-1.2,0.7-2.5,1.9-3.7,3.2V37l0,0l0,0c1.2-1.4,2.5-2.5,3.7-3.2c0.2-0.1,0.4-0.2,0.6-0.3c0.7-0.4,1.4-0.6,2-0.8
					C28.4,32.7,28.6,32.6,28.7,32.5c0.3,0,0.6-0.1,0.8-0.2c0.4-0.2,0.6-0.3,1-0.5c0,0,0,0,0-0.1c0,0,0,0-0.1,0
					c-0.3,0.2-0.6,0.3-0.9,0.5C29.2,32.3,29,32.4,28.7,32.5z"/>
				<path class="st19" d="M29.6,33c-0.2,0.1-0.3,0.1-0.5,0.1c-0.7,0.2-1.4,0.4-2.1,0.8c-0.2,0.1-0.4,0.2-0.6,0.3
					c-1.2,0.7-2.5,1.9-3.8,3.3v0.1l0,0l0,0c1.2-1.4,2.5-2.5,3.7-3.2c0.2-0.1,0.4-0.2,0.6-0.3c0.7-0.4,1.4-0.6,2-0.8
					C29.2,33.2,29.4,33.1,29.6,33c0.3,0,0.6-0.1,0.8-0.2c0.4-0.2,0.6-0.3,0.9-0.5c0,0,0,0,0-0.1c0,0,0,0-0.1,0
					c-0.3,0.2-0.5,0.3-0.9,0.4C30.1,32.8,29.8,32.9,29.6,33z"/>
				<path class="st19" d="M30.4,33.5c-0.2,0.1-0.3,0.1-0.5,0.1c-0.7,0.2-1.4,0.4-2.1,0.8c-0.2,0.1-0.4,0.2-0.6,0.3
					c-1.2,0.7-2.5,1.9-3.8,3.3v0.1l0,0l0,0c1.2-1.4,2.5-2.5,3.7-3.2c0.2-0.1,0.4-0.2,0.6-0.3c0.7-0.4,1.4-0.6,2-0.8
					C30.1,33.7,30.2,33.6,30.4,33.5c0.3,0,0.5-0.1,0.8-0.2c0.4-0.2,0.6-0.3,0.9-0.4c0,0,0,0,0-0.1c0,0,0,0-0.1,0
					c-0.3,0.2-0.5,0.3-0.9,0.4C30.9,33.3,30.6,33.4,30.4,33.5z"/>
				<path class="st19" d="M31.2,33.9C31,34,30.9,34,30.7,34.1c-0.7,0.2-1.4,0.4-2.1,0.8c-0.2,0.1-0.4,0.2-0.6,0.3
					c-1.2,0.7-2.5,1.9-3.8,3.3v0.1l0,0l0,0c1.2-1.4,2.5-2.5,3.8-3.3c0.2-0.1,0.4-0.2,0.6-0.3c0.7-0.4,1.4-0.6,2-0.8
					C30.9,34.1,31.1,34.1,31.2,33.9c0.3,0,0.5-0.1,0.8-0.2c0.4-0.2,0.6-0.2,0.9-0.4c0,0,0,0,0-0.1c0,0,0,0-0.1,0
					c-0.3,0.2-0.5,0.3-0.9,0.4C31.7,33.8,31.5,33.9,31.2,33.9z"/>
				<path class="st19" d="M32,34.4c-0.2,0.1-0.3,0.1-0.5,0.1c-0.7,0.2-1.4,0.4-2.1,0.8c-0.2,0.1-0.4,0.2-0.6,0.3
					c-1.2,0.7-2.6,1.9-3.8,3.3V39l0,0l0,0c1.2-1.4,2.5-2.5,3.8-3.3c0.2-0.1,0.4-0.2,0.6-0.3c0.7-0.4,1.4-0.6,2-0.8
					C31.7,34.6,31.9,34.6,32,34.4c0.3,0,0.5-0.1,0.8-0.2c0.4-0.2,0.6-0.2,0.9-0.4c0,0,0,0,0-0.1c0,0,0,0-0.1,0
					c-0.3,0.2-0.5,0.3-0.9,0.4C32.6,34.2,32.3,34.3,32,34.4z"/>
				<path class="st19" d="M32.9,34.9C32.7,35,32.6,35,32.4,35c-0.7,0.2-1.4,0.4-2.1,0.8c-0.2,0.1-0.4,0.2-0.6,0.3
					c-1.2,0.8-2.6,1.9-3.8,3.3v0.1l0,0l0,0c1.2-1.4,2.5-2.5,3.8-3.3c0.2-0.1,0.4-0.2,0.6-0.3c0.7-0.4,1.4-0.6,2.1-0.8
					C32.6,35.1,32.7,35,32.9,34.9c0.3,0,0.5-0.1,0.8-0.2c0.3-0.1,0.6-0.2,0.9-0.4c0,0,0,0,0-0.1c0,0,0,0-0.1,0
					c-0.3,0.2-0.5,0.3-0.8,0.4C33.4,34.7,33.1,34.8,32.9,34.9z"/>
				<path class="st19" d="M33.7,35.4c-0.2,0.1-0.3,0.1-0.5,0.1c-0.7,0.2-1.4,0.4-2.1,0.8c-0.2,0.1-0.4,0.2-0.6,0.3
					c-1.2,0.8-2.6,1.9-3.8,3.3V40l0,0l0,0c1.2-1.4,2.6-2.5,3.8-3.3c0.2-0.1,0.4-0.2,0.6-0.3c0.7-0.4,1.4-0.6,2.1-0.8
					C33.4,35.6,33.6,35.5,33.7,35.4c0.3,0,0.5-0.1,0.8-0.2c0.3-0.1,0.5-0.2,0.8-0.4c0,0,0,0,0-0.1c0,0,0,0-0.1,0
					c-0.3,0.2-0.5,0.3-0.8,0.4C34.2,35.2,34,35.3,33.7,35.4z"/>
				<path class="st19" d="M34.5,35.8c-0.2,0.1-0.3,0.1-0.5,0.1c-0.7,0.2-1.4,0.4-2.1,0.8c-0.2,0.1-0.4,0.2-0.6,0.3
					c-1.3,0.8-2.6,1.9-3.8,3.3v0.1l0,0l0,0c1.2-1.4,2.6-2.6,3.8-3.3c0.2-0.1,0.4-0.2,0.6-0.3c0.7-0.4,1.4-0.6,2.1-0.8
					C34.2,36,34.4,36,34.5,35.8c0.3,0,0.5-0.1,0.8-0.2c0.3-0.1,0.5-0.2,0.8-0.4c0,0,0,0,0-0.1c0,0,0,0-0.1,0
					c-0.3,0.2-0.5,0.2-0.8,0.4C35,35.7,34.8,35.8,34.5,35.8z"/>
				<path class="st19" d="M35.4,36.3c-0.2,0.1-0.3,0.1-0.5,0.1c-0.7,0.2-1.4,0.4-2.1,0.8c-0.2,0.1-0.4,0.2-0.6,0.3
					c-1.3,0.8-2.6,1.9-3.8,3.3v0.1l0,0l0,0c1.3-1.4,2.6-2.6,3.8-3.3c0.2-0.1,0.4-0.2,0.6-0.3c0.7-0.4,1.4-0.6,2.1-0.8
					C35.1,36.5,35.2,36.5,35.4,36.3c0.3,0,0.5-0.1,0.8-0.2c0.3-0.1,0.5-0.2,0.8-0.4c0,0,0,0,0-0.1c0,0,0,0-0.1,0
					c-0.2,0.1-0.4,0.2-0.8,0.4C35.9,36.2,35.6,36.2,35.4,36.3z"/>
				<path class="st19" d="M37.7,36.2c-0.3,0.1-0.5,0.2-0.8,0.4c-0.3,0.1-0.5,0.2-0.8,0.3C35.9,37,35.8,37,35.6,37
					c-0.7,0.2-1.4,0.4-2.1,0.8c-0.2,0.1-0.4,0.2-0.6,0.3c-1.3,0.8-2.6,1.9-3.9,3.3v0.1l0,0l0,0c1.3-1.4,2.6-2.6,3.8-3.3
					c0.2-0.1,0.4-0.2,0.6-0.3c0.7-0.4,1.4-0.6,2.1-0.8c0.2,0,0.3-0.1,0.5-0.1c0.2-0.1,0.5-0.2,0.8-0.3
					C37.3,36.5,37.5,36.4,37.7,36.2C37.8,36.3,37.8,36.2,37.7,36.2C37.8,36.2,37.7,36.2,37.7,36.2z"/>
				<path class="st19" d="M10.6,38.6c0.2-0.1,0.3-0.3,0.5-0.4c0.7-0.6,1.3-1.2,2-1.7c0.2-0.1,0.4-0.2,0.6-0.4
					c1.2-0.7,2.5-1.2,3.7-1.3c0,0,0,0,0-0.1c0,0,0,0-0.1,0c-1.2,0.1-2.5,0.5-3.7,1.3c-0.2,0.1-0.4,0.2-0.6,0.4c-0.7,0.5-1.4,1-2,1.7
					C10.9,38.3,10.7,38.4,10.6,38.6c-0.4,0.2-0.7,0.4-0.9,0.7c-0.4,0.3-0.7,0.5-1,0.7c0,0,0,0,0,0.1l0,0l0,0c0.3-0.2,0.6-0.4,1-0.7
					S10.3,38.9,10.6,38.6z"/>
				<path class="st19" d="M11.5,39.1c0.2-0.1,0.3-0.3,0.5-0.4c0.7-0.6,1.3-1.2,2-1.7c0.2-0.1,0.4-0.2,0.6-0.4
					c1.2-0.7,2.5-1.2,3.7-1.2c0,0,0,0,0-0.1c0,0,0-0.1-0.1,0c-1.2,0.1-2.5,0.5-3.7,1.3c-0.2,0.1-0.4,0.2-0.6,0.4
					c-0.7,0.5-1.4,1-2,1.7C11.7,38.8,11.6,38.9,11.5,39.1c-0.4,0.2-0.7,0.4-0.9,0.7c-0.4,0.3-0.7,0.5-1,0.7c0,0,0,0,0,0.1l0,0l0,0
					c0.3-0.2,0.6-0.4,1-0.7C10.9,39.6,11.2,39.4,11.5,39.1z"/>
				<path class="st19" d="M12.3,39.6c0.2-0.1,0.3-0.3,0.5-0.4c0.7-0.6,1.3-1.2,2-1.7c0.2-0.1,0.4-0.3,0.6-0.4
					c1.2-0.7,2.4-1.2,3.6-1.2c0,0,0,0,0-0.1s0,0-0.1,0c-1.2,0.1-2.5,0.5-3.7,1.3c-0.2,0.1-0.4,0.2-0.6,0.4c-0.7,0.5-1.4,1-2,1.7
					C12.5,39.2,12.4,39.4,12.3,39.6c-0.4,0.2-0.7,0.4-0.9,0.7c-0.4,0.3-0.7,0.5-1,0.7c0,0,0,0,0,0.1l0,0l0,0c0.3-0.2,0.6-0.4,1-0.7
					C11.7,40.1,12,39.9,12.3,39.6z"/>
				<path class="st19" d="M13.1,40.1c0.2-0.1,0.3-0.3,0.5-0.4c0.7-0.6,1.3-1.2,2-1.7c0.2-0.1,0.4-0.3,0.6-0.4
					c1.2-0.7,2.4-1.1,3.6-1.2c0,0,0,0,0-0.1c0,0,0,0-0.1,0c-1.2,0.1-2.4,0.5-3.6,1.3c-0.2,0.1-0.4,0.2-0.6,0.4c-0.7,0.5-1.4,1-2,1.7
					C13.3,39.7,13.2,39.9,13.1,40.1c-0.4,0.2-0.6,0.4-0.9,0.7c-0.4,0.3-0.7,0.5-1,0.7c0,0,0,0,0,0.1l0,0l0,0c0.3-0.2,0.6-0.4,1-0.7
					C12.5,40.6,12.8,40.4,13.1,40.1z"/>
				<path class="st19" d="M13.9,40.6c0.2-0.1,0.3-0.3,0.5-0.4c0.7-0.6,1.3-1.2,2-1.7c0.2-0.1,0.4-0.3,0.6-0.4
					c1.2-0.7,2.4-1.1,3.6-1.2c0,0,0,0,0-0.1c0,0,0,0-0.1,0c-1.2,0.1-2.4,0.5-3.6,1.3c-0.2,0.1-0.4,0.2-0.6,0.4c-0.7,0.5-1.4,1-2,1.7
					C14.2,40.2,14,40.4,13.9,40.6c-0.4,0.2-0.6,0.4-0.9,0.7c-0.4,0.3-0.7,0.5-1,0.7c0,0,0,0,0,0.1l0,0l0,0c0.3-0.2,0.6-0.4,1-0.7
					C13.3,41.1,13.6,40.8,13.9,40.6z"/>
				<path class="st19" d="M14.7,41.1c0.2-0.1,0.3-0.3,0.5-0.4c0.7-0.6,1.3-1.2,2-1.7c0.2-0.1,0.4-0.3,0.6-0.4
					c1.2-0.7,2.4-1.1,3.5-1.2c0,0,0,0,0-0.1c0,0,0,0-0.1,0c-1.2,0.1-2.4,0.6-3.6,1.3c-0.2,0.1-0.4,0.2-0.6,0.4c-0.7,0.5-1.4,1-2,1.7
					C15,40.7,14.8,40.8,14.7,41.1c-0.4,0.2-0.6,0.4-0.9,0.7c-0.4,0.3-0.7,0.5-1,0.7c0,0,0,0,0,0.1l0,0l0,0c0.3-0.2,0.6-0.4,1-0.7
					S14.4,41.3,14.7,41.1z"/>
				<path class="st19" d="M15.6,41.5c0.2-0.1,0.3-0.3,0.5-0.4c0.7-0.6,1.3-1.2,2-1.7c0.2-0.1,0.4-0.3,0.6-0.4
					c1.1-0.7,2.4-1.1,3.5-1.2c0,0,0,0,0-0.1s0,0-0.1,0c-1.2,0.1-2.4,0.6-3.5,1.3c-0.2,0.1-0.4,0.2-0.6,0.4c-0.7,0.5-1.4,1-2,1.7
					C15.8,41.2,15.6,41.3,15.6,41.5c-0.4,0.2-0.6,0.4-0.9,0.7c-0.4,0.3-0.7,0.5-1,0.7c0,0,0,0,0,0.1l0,0l0,0c0.3-0.2,0.6-0.4,1-0.7
					C15,42.1,15.3,41.8,15.6,41.5z"/>
				<path class="st19" d="M16.4,42c0.2-0.1,0.3-0.3,0.5-0.4c0.7-0.6,1.3-1.2,2-1.7c0.2-0.1,0.4-0.3,0.6-0.4c1.1-0.7,2.3-1.1,3.5-1.2
					c0,0,0,0,0-0.1s0,0-0.1,0c-1.2,0.1-2.4,0.6-3.5,1.3c-0.2,0.1-0.4,0.2-0.6,0.4c-0.7,0.5-1.4,1-2.1,1.7
					C16.6,41.7,16.5,41.8,16.4,42c-0.4,0.2-0.6,0.4-0.9,0.7c-0.4,0.3-0.7,0.5-1,0.7c0,0,0,0,0,0.1l0,0l0,0c0.3-0.2,0.6-0.4,1.1-0.7
					C15.8,42.5,16.1,42.3,16.4,42z"/>
				<path class="st19" d="M17.2,42.5c0.2-0.1,0.3-0.3,0.5-0.4c0.7-0.6,1.4-1.2,2-1.7c0.2-0.1,0.4-0.3,0.6-0.4
					c1.1-0.7,2.3-1.1,3.4-1.2c0,0,0,0,0-0.1s0,0-0.1,0c-1.1,0.1-2.3,0.6-3.5,1.3c-0.2,0.1-0.4,0.2-0.6,0.4c-0.7,0.5-1.4,1-2.1,1.7
					C17.4,42.2,17.3,42.3,17.2,42.5c-0.4,0.2-0.6,0.4-0.9,0.6c-0.4,0.3-0.7,0.5-1.1,0.7c0,0,0,0,0,0.1l0,0l0,0
					c0.3-0.2,0.6-0.4,1.1-0.8C16.6,43,16.9,42.8,17.2,42.5z"/>
				<path class="st19" d="M18,43c0.2-0.1,0.3-0.3,0.5-0.4c0.7-0.6,1.4-1.2,2-1.7c0.2-0.1,0.4-0.3,0.6-0.4c1.1-0.7,2.3-1.1,3.4-1.2
					c0,0,0,0,0-0.1s0,0-0.1,0c-1.1,0.1-2.3,0.6-3.5,1.3c-0.2,0.1-0.4,0.2-0.6,0.4c-0.7,0.5-1.4,1.1-2.1,1.7
					C18.3,42.6,18.1,42.8,18,43c-0.4,0.2-0.6,0.4-0.9,0.6c-0.4,0.3-0.7,0.6-1.1,0.8c0,0,0,0,0,0.1l0,0l0,0c0.3-0.2,0.7-0.4,1.1-0.8
					C17.4,43.5,17.7,43.3,18,43z"/>
				<path class="st19" d="M18.8,43.5c0.2-0.1,0.3-0.3,0.5-0.4c0.7-0.6,1.4-1.2,2-1.7c0.2-0.1,0.4-0.3,0.6-0.4
					c1.1-0.7,2.3-1.1,3.4-1.2c0,0,0,0,0-0.1c0,0,0,0-0.1,0c-1.1,0.1-2.3,0.6-3.4,1.3c-0.2,0.1-0.4,0.2-0.6,0.4
					c-0.7,0.5-1.4,1.1-2.1,1.7C19.1,43.1,18.9,43.3,18.8,43.5c-0.4,0.2-0.6,0.4-0.9,0.6c-0.4,0.3-0.7,0.6-1.1,0.8c0,0,0,0,0,0.1l0,0
					l0,0c0.3-0.2,0.7-0.4,1.1-0.8C18.3,44,18.5,43.7,18.8,43.5z"/>
				<path class="st19" d="M19.6,44c0.2-0.1,0.3-0.3,0.5-0.4c0.7-0.6,1.4-1.2,2.1-1.7c0.2-0.1,0.4-0.3,0.6-0.4
					c1.1-0.7,2.3-1.1,3.4-1.2c0,0,0,0,0-0.1c0,0,0,0-0.1,0c-1.1,0.2-2.3,0.6-3.4,1.3c-0.2,0.1-0.4,0.2-0.6,0.4
					c-0.7,0.5-1.4,1.1-2.1,1.7C19.9,43.6,19.7,43.8,19.6,44c-0.4,0.2-0.6,0.4-0.9,0.6c-0.4,0.3-0.8,0.6-1.1,0.8c0,0,0,0,0,0.1l0,0
					l0,0c0.3-0.2,0.7-0.4,1.1-0.8C19.1,44.5,19.4,44.2,19.6,44z"/>
				<path class="st19" d="M20.5,44.5c0.2-0.1,0.3-0.3,0.5-0.4c0.7-0.6,1.4-1.2,2.1-1.7c0.2-0.1,0.4-0.3,0.6-0.4
					c1.1-0.7,2.2-1.1,3.3-1.2c0,0,0,0,0-0.1c0,0,0,0-0.1,0c-1.1,0.2-2.3,0.6-3.4,1.3c-0.2,0.1-0.4,0.2-0.6,0.4
					c-0.7,0.5-1.4,1.1-2.1,1.7C20.7,44.1,20.5,44.2,20.5,44.5c-0.4,0.2-0.6,0.4-0.9,0.6c-0.4,0.3-0.8,0.6-1.1,0.8c0,0,0,0,0,0.1l0,0
					l0,0c0.3-0.2,0.7-0.4,1.1-0.8C19.9,45,20.2,44.7,20.5,44.5z"/>
				<path class="st19" d="M21.3,44.9c0.2-0.1,0.3-0.3,0.5-0.4c0.7-0.7,1.4-1.2,2.1-1.7c0.2-0.1,0.4-0.3,0.6-0.4
					c1.1-0.6,2.2-1.1,3.3-1.2c0,0,0,0,0-0.1c0,0,0,0-0.1,0c-1.1,0.2-2.3,0.6-3.3,1.3c-0.2,0.1-0.4,0.2-0.6,0.4
					c-0.7,0.5-1.4,1.1-2.1,1.7C21.5,44.6,21.4,44.7,21.3,44.9c-0.4,0.2-0.6,0.4-0.9,0.6c-0.4,0.3-0.8,0.6-1.1,0.8c0,0,0,0,0,0.1l0,0
					l0,0c0.4-0.2,0.7-0.4,1.1-0.8C20.7,45.4,21,45.2,21.3,44.9z"/>
				<path class="st19" d="M25.2,42.8c-0.2,0.1-0.4,0.2-0.6,0.4c-0.7,0.5-1.4,1.1-2.1,1.7c-0.2,0.1-0.3,0.3-0.5,0.4
					c-0.3,0.3-0.6,0.5-0.9,0.7c-0.4,0.3-0.8,0.6-1.1,0.8c0,0,0,0,0,0.1l0,0l0,0c0.4-0.2,0.7-0.4,1.1-0.8c0.3-0.2,0.6-0.5,0.9-0.7
					c0.2-0.1,0.3-0.3,0.5-0.4c0.7-0.7,1.4-1.2,2.1-1.7C24.8,43.2,25,43,25.2,42.8c1.1-0.6,2.2-1,3.3-1.2c0,0,0,0,0-0.1
					c0,0,0,0-0.1,0C27.4,41.7,26.2,42.2,25.2,42.8z"/>
			</g>
		</g>
		<g>
			<g>
				<g>
					<g>
						<g class="st20">
							<g>
								<path class="st21" d="M29.1,41.9l-7.9-4.6l-0.1-0.1L29.1,41.9L29.1,41.9z"/>
							</g>
							<g>
								<path class="st22" d="M29.2,41.6c-0.1,0.1-0.1,0.1-0.1,0.2l-7.9-4.6l0.1-0.2L29.2,41.6z"/>
							</g>
							<g>
								<path class="st23" d="M29.4,41.5h-0.1c0,0-0.1,0-0.1,0.1l-8-4.6l0.2-0.1L29.4,41.5z"/>
							</g>
						</g>
					</g>
					<g>
						<polygon class="st24" points="30.3,42.2 30.3,42.3 30.3,42.3 30.3,42.3 30.2,42.3 30.3,42.3 						"/>
					</g>
					<path d="M30.3,42.2L30,42l0,0c0,0,0,0-0.1,0l-0.1,0.1l0,0L30.3,42.2C30.3,42.3,30.3,42.3,30.3,42.2
						C30.3,42.3,30.3,42.3,30.3,42.2z"/>
					<path class="st25" d="M21.7,37h-0.1l-0.1,0.1c0,0.1-0.1,0.1-0.1,0.2v0.1L21,37.1c0,0-0.1,0-0.1-0.1s0-0.1,0.1-0.2
						c0-0.1,0.1-0.1,0.1-0.1h0.1l0,0L21.7,37z"/>
					<path class="st26" d="M29.4,41.5L29.4,41.5L29.4,41.5z"/>
				</g>
				<path class="st27" d="M29.4,41.5L29.4,41.5L29.4,41.5c-0.1,0-0.2,0-0.2,0s0,0,0,0.1l0,0c0,0-0.1,0.1-0.1,0.2l0,0v0.1l0,0
					l0.8,0.3l0,0c0,0,0-0.1,0.1-0.1c0,0,0,0,0.1,0L29.4,41.5z"/>
			</g>
			
				<linearGradient id="SVGID_1_" gradientUnits="userSpaceOnUse" x1="21.7732" y1="3571.1643" x2="21.5925" y2="3571.4897" gradientTransform="matrix(1 0 0 1 0 -3534)">
				<stop  offset="0" style="stop-color:#78ACED"/>
				<stop  offset="1" style="stop-color:#4F7BB3"/>
			</linearGradient>
			<path class="st28" d="M22.1,37.3L22.1,37.3L22.1,37.3L21.7,37l0,0l0,0h-0.1l0,0h-0.1c-0.1,0-0.1,0.1-0.1,0.1
				c0,0.1-0.1,0.1-0.1,0.2c0,0,0,0.1,0.1,0.1h0.1l0,0l0,0l0.3,0.2l0,0l0,0l0.1,0.1l0,0l0,0l0,0c0,0,0,0,0-0.1l0,0v-0.1l0,0l0.1-0.1
				l0,0C22,37.3,22,37.2,22.1,37.3L22.1,37.3L22.1,37.3L22.1,37.3L22.1,37.3z"/>
		</g>
	</g>
</g>
<radialGradient id="SVGID_00000055693505684213228810000005548709654767498649_" cx="-1125.2982" cy="6645.1055" r="15.9016" gradientTransform="matrix(-1.5353 0 0 0.4819 -1702.6704 -3160.7764)" gradientUnits="userSpaceOnUse">
	<stop  offset="0.1349" style="stop-color:#B4BCC1"/>
	<stop  offset="0.94" style="stop-color:#ECEEEF;stop-opacity:0"/>
</radialGradient>
<ellipse style="fill:url(#SVGID_00000055693505684213228810000005548709654767498649_);" cx="25" cy="41.5" rx="24.4" ry="7.7"/>
<rect x="27.663" y="21.372" transform="matrix(0.866 -0.5 0.5 0.866 -7.4658 18.8371)" class="st30" width="7.507" height="3.955"/>
<g>
	<g>
		<g>
			<path class="st31" d="M23.557,35.65l-3.48-1.815l-0.126,0.517c-0.028,0.112,0.025,0.25,0.161,0.381l1.566,1.503
				c0.25,0.241,0.686,0.369,0.975,0.286l0.547-0.153c0.135-0.039,0.214-0.117,0.234-0.214L23.557,35.65z"/>
			<path class="st32" d="M21.831,33.766l1.566,1.503c0.249,0.241,0.218,0.503-0.071,0.586l-0.547,0.153
				c-0.289,0.083-0.725-0.045-0.975-0.286l-1.566-1.503c-0.249-0.241-0.218-0.503,0.071-0.586l0.547-0.153
				C21.144,33.397,21.581,33.525,21.831,33.766z"/>
		</g>
		<g>
			<g>
				<g>
					<g>
						<path class="st32" d="M20.419,24.341c0.453,0.054,0.946,0.392,1.102,0.755l1.463,3.782c0.072,0.168,0.059,0.311-0.02,0.412
							l-0.217,0.299l-3.075-4.785l0.219-0.301C19.98,24.377,20.166,24.312,20.419,24.341z"/>
						<path class="st31" d="M20.188,24.659c-0.453-0.054-0.694,0.197-0.538,0.56l1.721,3.686c0.156,0.363,0.472,0.703,0.925,0.757
							c0.453,0.054,0.614-0.104,0.458-0.467l-1.463-3.782C21.135,25.05,20.642,24.712,20.188,24.659z"/>
					</g>
				</g>
			</g>
			<g>
				<g>
					<g>
						<path class="st33" d="M22.645,28.828c0.356,0.284,0.597,0.831,0.538,1.222l-0.75,3.985c-0.027,0.181-0.114,0.296-0.234,0.34
							l-1.369,0.484l-0.09-5.688l1.372-0.484C22.253,28.626,22.446,28.67,22.645,28.828z"/>
						<path class="st31" d="M21.257,29.319c-0.356-0.284-0.693-0.199-0.752,0.192l-0.538,4.706c0,0,0.087,0.18,0.443,0.465
							s0.576,0.236,0.635-0.155l0.75-3.985C21.854,30.151,21.613,29.604,21.257,29.319z"/>
					</g>
				</g>
			</g>
			<g>
				<g>
					<g>
						<path class="st32" d="M19.393,25.286c0.453,0.054,0.946,0.392,1.102,0.755l1.463,3.782c0.072,0.168,0.059,0.311-0.02,0.412
							l-0.217,0.299l-3.075-4.785l0.219-0.301C18.954,25.322,19.141,25.257,19.393,25.286z"/>
						<path class="st34" d="M19.162,25.603c-0.453-0.054-0.694,0.197-0.538,0.56l1.721,3.686c0.156,0.363,0.472,0.703,0.925,0.757
							c0.453,0.054,0.614-0.104,0.458-0.467l-1.463-3.782C20.11,25.994,19.616,25.657,19.162,25.603z"/>
					</g>
				</g>
			</g>
		</g>
	</g>
	<g>
		<g>
			<circle class="st35" cx="20.991" cy="23.545" r="0.67"/>
			<g>
				<path class="st36" d="M21.556,22.996c0.005,0.087-0.049,0.177-0.161,0.249c-0.224,0.144-0.598,0.162-0.835,0.04
					c-0.119-0.061-0.181-0.146-0.185-0.233l-0.142-2.957l1.181-0.057L21.556,22.996z"/>
				<path class="st37" d="M21.23,19.805c-0.237-0.122-0.611-0.104-0.835,0.04c-0.224,0.144-0.214,0.36,0.023,0.482
					s0.611,0.104,0.835-0.04C21.477,20.143,21.467,19.927,21.23,19.805z"/>
			</g>
			<g>
				<path class="st36" d="M21.609,23.303c-0.078-0.04-0.182-0.029-0.294,0.043c-0.224,0.145-0.396,0.478-0.383,0.744
					c0.006,0.134,0.057,0.225,0.135,0.265l2.632,1.355l0.541-1.052L21.609,23.303z"/>
				<path class="st35" d="M24.375,24.922c0.013,0.267-0.159,0.6-0.383,0.744s-0.416,0.045-0.429-0.221
					c-0.013-0.267,0.159-0.6,0.383-0.744C24.171,24.557,24.363,24.656,24.375,24.922z"/>
			</g>
		</g>
		<path class="st35" d="M20.793,19.437c-0.326,0.016-0.578,0.293-0.562,0.619c0.016,0.326,0.293,0.578,0.619,0.562
			c0.326-0.016,0.578-0.293,0.562-0.619C21.397,19.673,21.119,19.421,20.793,19.437z"/>
		<g>
			<path class="st35" d="M24.945,25.305l-1.348-0.01l0.014,0.291l0.486,0.243c0.205,0.105,0.528,0.09,0.722-0.035
				c0.095-0.061,0.141-0.136,0.14-0.21v-0.003c0-0.002,0-0.004,0-0.006L24.945,25.305z"/>
			<path class="st36" d="M24.785,25.085l-0.486-0.243l-0.702,0.452l0.486,0.243c0.205,0.105,0.528,0.09,0.722-0.035
				S24.99,25.191,24.785,25.085z"/>
		</g>
	</g>
	<g>
		<g>
			<path class="st31" d="M15.51,34.324l-2.232-2.452l-0.292,0.307c-0.063,0.066-0.07,0.178-0.004,0.315l0.756,1.57
				c0.12,0.251,0.436,0.491,0.706,0.536l0.509,0.088c0.127,0.021,0.22-0.004,0.272-0.063L15.51,34.324z"/>
			<path class="st32" d="M14.758,32.441l0.756,1.57c0.12,0.251-0.001,0.418-0.271,0.373l-0.509-0.088
				c-0.27-0.045-0.586-0.285-0.706-0.536l-0.756-1.57c-0.12-0.251,0.001-0.418,0.271-0.373l0.509,0.088
				C14.322,31.949,14.638,32.189,14.758,32.441z"/>
		</g>
		<g>
			<g>
				<g>
					<g>
						<path class="st32" d="M18.648,26.758c0.263,0.282,0.374,0.735,0.249,1.01l-1.41,2.777c-0.058,0.128-0.156,0.194-0.271,0.202
							l-0.329,0.032l0.984-4.203l0.332-0.032C18.341,26.529,18.503,26.601,18.648,26.758z"/>
						<path class="st31" d="M18.303,26.791c-0.263-0.283-0.578-0.289-0.703-0.014l-1.182,2.873
							c-0.126,0.275-0.132,0.629,0.131,0.912s0.467,0.292,0.592,0.017l1.41-2.777C18.676,27.527,18.565,27.075,18.303,26.791z"/>
					</g>
				</g>
			</g>
			<g>
				<g>
					<g>
						<path class="st33" d="M17.298,29.835c0.085,0.33-0.011,0.771-0.214,0.985l-2.16,2.116c-0.093,0.099-0.194,0.132-0.283,0.106
							l-1.009-0.303l2.404-3.528l1.011,0.303C17.156,29.539,17.25,29.65,17.298,29.835z"/>
						<path class="st31" d="M16.274,29.528c-0.085-0.331-0.319-0.426-0.522-0.212l-2.347,2.651c0,0-0.027,0.149,0.058,0.479
							c0.085,0.331,0.235,0.397,0.438,0.183l2.16-2.116C16.264,30.299,16.36,29.858,16.274,29.528z"/>
					</g>
				</g>
			</g>
			<g>
				<g>
					<g>
						<path class="st32" d="M17.386,26.668c0.263,0.282,0.374,0.735,0.249,1.01l-1.41,2.777c-0.058,0.128-0.156,0.194-0.271,0.202
							l-0.329,0.032l0.983-4.203l0.332-0.032C17.077,26.439,17.24,26.511,17.386,26.668z"/>
						<path class="st34" d="M17.04,26.701c-0.263-0.283-0.578-0.289-0.703-0.014l-1.182,2.873c-0.126,0.275-0.132,0.629,0.131,0.912
							s0.467,0.292,0.592,0.017l1.41-2.777C17.413,27.437,17.302,26.985,17.04,26.701z"/>
					</g>
				</g>
			</g>
		</g>
	</g>
	<g>
		<path class="st32" d="M16.841,19.761c0.14-0.169,0.295-0.308,0.46-0.403l1.434-0.828c0.278-0.16,0.532-0.166,0.723-0.045
			l2.297,1.318l-0.8,2.333L16.841,19.761z"/>
		<path class="st38" d="M16.842,19.76c-0.364,0.44-0.616,1.079-0.616,1.652v5.089c0,0.433,0.144,0.737,0.371,0.869
			c-0.001,0,2.287,0.806,2.287,0.806l2.071-6.04L16.842,19.76z"/>
		<path class="st33" d="M22.093,25.234l0.033-4.562c0-0.792-0.482-1.156-1.076-0.813l-1.434,0.828
			c-0.594,0.343-1.076,1.263-1.076,2.055l-0.033,4.562c0,0.792,0.482,1.156,1.076,0.813l1.434-0.828
			C21.611,26.946,22.092,26.026,22.093,25.234z"/>
	</g>
	<g>
		<path class="st35" d="M20.299,17.004v2.488c0,0.144-0.095,0.289-0.286,0.399c-0.382,0.22-1.001,0.22-1.383,0
			c-0.191-0.11-0.286-0.255-0.286-0.399v-2.488H20.3C20.3,17.004,20.299,17.004,20.299,17.004z"/>
		<g>
			<path class="st37" d="M20.013,16.605c-0.382-0.22-1.001-0.22-1.383,0c-0.382,0.22-0.382,0.578,0,0.798s1.001,0.22,1.383,0
				S20.395,16.825,20.013,16.605z"/>
			<path class="st39" d="M19.322,17.597c-0.256,0-0.511-0.057-0.706-0.169c-0.194-0.112-0.301-0.263-0.301-0.424
				s0.107-0.312,0.301-0.424c0.389-0.225,1.023-0.225,1.412,0c0.194,0.112,0.301,0.263,0.301,0.424s-0.107,0.312-0.301,0.424l0,0
				C19.833,17.541,19.578,17.597,19.322,17.597z M19.322,16.468c-0.245,0-0.49,0.054-0.677,0.162
				c-0.175,0.101-0.272,0.234-0.272,0.374c0,0.14,0.097,0.273,0.272,0.374c0.373,0.215,0.981,0.215,1.354,0
				c0.175-0.101,0.272-0.234,0.272-0.374c0-0.14-0.097-0.273-0.272-0.374C19.812,16.522,19.567,16.468,19.322,16.468z"/>
		</g>
	</g>
	<g>
		<g>
			<path class="st38" d="M19.298,18.931c-0.534-0.003-1.067-0.123-1.474-0.358c-0.413-0.239-0.62-0.552-0.62-0.865v-1.223h2.118"/>
			<path class="st33" d="M19.322,16.485h2.118v1.222c0,0.313-0.206,0.626-0.62,0.865c-0.42,0.242-0.972,0.362-1.522,0.358"/>
			<ellipse class="st36" cx="19.322" cy="16.485" rx="2.118" ry="1.223"/>
		</g>
		<path class="st32" d="M21.439,16.485c0,0.313-0.206,0.626-0.62,0.865c-0.827,0.478-2.168,0.478-2.995,0
			c-0.413-0.239-0.62-0.552-0.62-0.865c0-1.17,0.948-2.118,2.118-2.118S21.44,15.315,21.439,16.485z"/>
	</g>
	<g>
		<g>
			<path class="st35" d="M16.371,24.182c-0.346-0.131-0.732,0.044-0.863,0.39s0.044,0.732,0.39,0.863s0.732-0.044,0.863-0.39
				C16.892,24.699,16.718,24.312,16.371,24.182z"/>
			<g>
				<path class="st36" d="M16.873,24.529c-0.031,0.082-0.117,0.142-0.248,0.164c-0.263,0.042-0.613-0.089-0.782-0.296
					c-0.085-0.103-0.108-0.205-0.077-0.287l1.047-2.769l1.106,0.418L16.873,24.529z"/>
				<path class="st37" d="M17.843,21.472c-0.168-0.207-0.519-0.339-0.782-0.296c-0.264,0.043-0.34,0.245-0.171,0.452
					c0.168,0.207,0.519,0.339,0.782,0.296C17.936,21.881,18.012,21.678,17.843,21.472z"/>
			</g>
			<g>
				<path class="st36" d="M16.814,25.258c-0.009-0.087-0.076-0.167-0.198-0.221c-0.245-0.107-0.617-0.066-0.832,0.092
					c-0.108,0.079-0.156,0.172-0.146,0.259l0.324,2.943l1.176-0.13L16.814,25.258z"/>
				<path class="st35" d="M16.99,28.46c-0.216,0.159-0.588,0.199-0.832,0.092c-0.243-0.107-0.267-0.322-0.052-0.48
					c0.216-0.159,0.587-0.199,0.832-0.092C17.183,28.088,17.207,28.302,16.99,28.46z"/>
			</g>
		</g>
		<path class="st35" d="M17.786,20.857c-0.321-0.222-0.76-0.141-0.981,0.18c-0.222,0.321-0.141,0.76,0.18,0.981
			c0.321,0.222,0.76,0.141,0.981-0.18S18.106,21.078,17.786,20.857z"/>
		<g>
			<path class="st35" d="M17.231,29.017l-0.955-0.952l-0.195,0.218l0.177,0.514c0.073,0.219,0.315,0.435,0.54,0.482
				c0.11,0.022,0.196,0.001,0.247-0.052l0.002-0.002c0.002-0.001,0.003-0.002,0.004-0.004L17.231,29.017z"/>
			<path class="st36" d="M17.27,28.75l-0.177-0.514l-0.817-0.17l0.177,0.514c0.073,0.219,0.315,0.435,0.54,0.482
				C17.218,29.109,17.343,28.97,17.27,28.75z"/>
		</g>
	</g>
	<path class="st36" d="M17.958,16.803c-0.291-0.168-0.527-0.032-0.527,0.304s0.236,0.744,0.527,0.912s0.527,0.032,0.527-0.304
		S18.249,16.97,17.958,16.803z"/>
	<path class="st40" d="M20.057,17.381c-0.12,0.07-0.218,0.239-0.218,0.378s0.098,0.196,0.218,0.126s0.218-0.239,0.218-0.378
		C20.275,17.367,20.177,17.311,20.057,17.381z"/>
	<path class="st40" d="M21.053,16.933c-0.12,0.07-0.218,0.239-0.218,0.378s0.098,0.196,0.218,0.126s0.218-0.239,0.218-0.378
		S21.173,16.863,21.053,16.933z"/>
	<g>
		<path class="st31" d="M17.677,17.248c0,0.179,0.126,0.397,0.281,0.487c0.155,0.09,0.281,0.017,0.281-0.162
			c0-0.179-0.126-0.397-0.281-0.487C17.803,16.996,17.677,17.069,17.677,17.248z"/>
	</g>
	<g>
		<path class="st36" d="M21.691,23.925l0.179-3.078c0.03-0.53-0.321-0.761-0.765-0.505l-1.273,0.735
			c-0.445,0.257-0.796,0.894-0.765,1.388l0.179,2.871c0.016,0.264,0.212,0.362,0.449,0.225l1.545-0.892
			C21.476,24.532,21.673,24.207,21.691,23.925z"/>
		<path class="st40" d="M21.551,21.628v-0.625c0-0.183-0.111-0.267-0.248-0.188l-1.671,0.965c-0.137,0.08-0.248,0.292-0.248,0.475
			v0.625c0,0.183,0.111,0.267,0.248,0.188l1.671-0.965C21.44,22.024,21.551,21.811,21.551,21.628z"/>
	</g>
</g>
<g>
	<g>
		<g>
			<g>
				<g class="st20">
					<g>
						<polygon class="st41" points="31.381,35.908 31.755,35.69 35.967,38.122 35.593,38.34 						"/>
					</g>
					<g>
						<polygon class="st42" points="35.943,28.833 36.317,28.616 36.289,38.68 35.915,38.897 						"/>
					</g>
					<g>
						<polygon class="st41" points="35.621,28.647 35.995,28.43 36.317,28.616 35.943,28.833 						"/>
					</g>
					<g>
						<polygon class="st43" points="35.943,28.833 35.915,38.897 31.38,36.278 31.381,35.908 35.593,38.34 35.621,28.647 						"/>
					</g>
				</g>
			</g>
			<g>
				<g class="st20">
					<g>
						<polygon class="st44" points="23.698,41.148 23.324,40.931 23.323,40.56 23.697,40.776 						"/>
					</g>
					<g>
						<polygon class="st41" points="23.697,40.776 23.323,40.56 31.381,35.908 31.755,36.123 						"/>
					</g>
					<g>
						<polygon class="st45" points="31.755,36.123 31.756,36.496 23.698,41.148 23.697,40.776 						"/>
					</g>
				</g>
			</g>
			<g>
				<g class="st20">
					<g>
						<polygon class="st41" points="22.948,40.777 23.322,40.56 27.535,42.992 27.161,43.21 						"/>
					</g>
					<g>
						<polygon class="st42" points="27.511,33.703 27.885,33.486 27.857,43.549 27.483,43.767 						"/>
					</g>
					<g>
						<polygon class="st41" points="27.189,33.517 27.563,33.3 27.885,33.486 27.511,33.703 						"/>
					</g>
					<g>
						<polygon class="st43" points="27.511,33.703 27.483,43.767 22.947,41.148 22.948,40.777 27.161,43.21 27.189,33.517 						"/>
					</g>
				</g>
			</g>
		</g>
		<g>
			<g class="st20">
				<g>
					<polygon class="st46" points="27.447,34.155 37.064,28.599 37.057,31.035 27.44,36.591 					"/>
				</g>
				<g>
					<polygon class="st47" points="27.089,33.948 36.706,28.392 37.064,28.599 27.447,34.155 					"/>
				</g>
				<g>
					<polygon class="st48" points="27.447,34.155 27.44,36.591 27.082,36.385 27.089,33.948 					"/>
				</g>
			</g>
		</g>
	</g>
</g>
</svg>
