<?xml version="1.0" encoding="utf-8"?>
<!-- Generator: Adobe Illustrator 25.4.1, SVG Export Plug-In . SVG Version: 6.00 Build 0)  -->
<svg version="1.1" id="Layer_1" xmlns="http://www.w3.org/2000/svg" xmlns:xlink="http://www.w3.org/1999/xlink" x="0px" y="0px"
	 viewBox="0 0 50 50" style="enable-background:new 0 0 50 50;" xml:space="preserve">
<style type="text/css">
	.st0{display:none;}
	.st1{display:inline;}
	.st2{fill:#344593;}
	.st3{fill:#3E54A3;}
	.st4{fill:#2E4490;}
	.st5{fill:#122571;}
	.st6{opacity:0.5;fill:#031F60;enable-background:new    ;}
	.st7{fill:#BBDFFF;}
	.st8{fill:#FDB724;}
	.st9{fill:#E7478D;}
	.st10{fill:#BF2878;}
	.st11{fill:#27DEBF;}
	.st12{fill:#1BBC9D;}
	.st13{fill:#A33D64;}
	.st14{fill:#82294D;}
	.st15{fill:#0A4A80;}
	.st16{fill:#F1FCFF;}
	.st17{fill:#D6E6FF;}
	.st18{fill:#CEF3FF;}
	.st19{fill:#606060;}
	.st20{enable-background:new    ;}
	.st21{fill:#F19729;}
	.st22{fill:#FCB040;}
	.st23{fill:#FFCB49;}
	.st24{fill:#2E5677;}
	.st25{fill:#FF51CE;}
	.st26{fill:#EDE6A0;}
	.st27{fill:#FFF7B0;}
	.st28{fill:url(#SVGID_1_);}
	.st29{fill:url(#SVGID_00000101098157484043877390000017070990234661059000_);}
	.st30{fill-rule:evenodd;clip-rule:evenodd;fill:#EC933B;}
	.st31{fill-rule:evenodd;clip-rule:evenodd;fill:#D15527;}
	.st32{fill-rule:evenodd;clip-rule:evenodd;fill:#1081B5;}
	.st33{fill-rule:evenodd;clip-rule:evenodd;fill:#5EC1E2;}
	.st34{fill-rule:evenodd;clip-rule:evenodd;fill:#006EA1;}
	.st35{fill-rule:evenodd;clip-rule:evenodd;fill:#375987;}
	.st36{fill-rule:evenodd;clip-rule:evenodd;fill:#B4C4D4;}
	.st37{fill-rule:evenodd;clip-rule:evenodd;fill:#F99F3C;}
	.st38{fill-rule:evenodd;clip-rule:evenodd;fill:#BA4217;}
	.st39{fill-rule:evenodd;clip-rule:evenodd;fill:#8BA3BA;}
	.st40{fill-rule:evenodd;clip-rule:evenodd;fill:#68849E;}
</style>
<g id="Example" class="st0">
	<g class="st1">
		<g id="XMLID_4903_">
			<path id="XMLID_4905_" class="st2" d="M45.3,33.2v-4.6l0,0c0-0.9-0.6-1.8-1.7-2.4c-2.3-1.3-6-1.3-8.4,0c-1.2,0.7-1.7,1.6-1.7,2.4
				l0,0v4.5c0,0.9,0.6,1.8,1.7,2.4c2.3,1.3,6,1.3,8.4,0C44.8,34.9,45.3,34.1,45.3,33.2L45.3,33.2L45.3,33.2L45.3,33.2z"/>
			<path id="XMLID_4904_" class="st2" d="M45.3,33.2v-4.6l0,0c0-0.9-0.6-1.8-1.7-2.4c-2.3-1.3-6-1.3-8.4,0c-1.2,0.7-1.7,1.6-1.7,2.4
				l0,0v4.5c0,0.9,0.6,1.8,1.7,2.4c2.3,1.3,6,1.3,8.4,0C44.8,34.9,45.3,34.1,45.3,33.2L45.3,33.2L45.3,33.2L45.3,33.2z"/>
		</g>
		<polygon id="XMLID_4900_" class="st3" points="39.4,23 29.7,28.6 39.4,34.2 49.2,28.6 		"/>
		<path id="XMLID_4899_" class="st4" d="M44.3,31.4l-4.8-2.7c-0.1,0-0.2,0-0.2,0.1s0,0.2,0.1,0.2l4.6,2.6L44.3,31.4z"/>
		<polygon id="XMLID_4896_" class="st5" points="29.7,28.6 29.7,29 39.4,34.6 39.4,34.2 		"/>
		<polygon id="XMLID_4883_" class="st4" points="49.2,28.6 49.2,29 39.4,34.6 39.4,34.2 		"/>
		<polygon id="XMLID_4876_" class="st6" points="33.5,31.2 39.4,35.2 45.3,31.2 39.4,34.6 		"/>
		<g id="XMLID_4823_">
			<path id="XMLID_4835_" class="st7" d="M44.7,36.2c-0.1,0-0.2-0.1-0.2-0.2v-4c0-0.2-0.1-0.4-0.3-0.4l-4.9-2.8
				c-0.1,0-0.1-0.2-0.1-0.2c0-0.1,0.2-0.1,0.2-0.1l4.9,2.8c0.3,0.2,0.4,0.4,0.4,0.7v4C44.8,36.1,44.7,36.2,44.7,36.2z"/>
		</g>
		<path class="st8" d="M45.3,39.3L45,36.6c0.1-0.1,0.1-0.2,0-0.2l0,0l0,0l0,0v-0.1l0,0l0,0l0,0c0-0.2-0.2-0.4-0.4-0.4c0,0,0,0-0.1,0
			l0,0l0,0c0,0,0,0-0.1,0c0,0,0,0-0.1,0c0,0,0,0-0.1,0c0,0,0,0,0,0.1l0,0v0.1c0,0.1,0,0.2,0.1,0.3l0,0c-0.1,0.1,0,0.2,0,0.2L44,39.3
			c0,0.1,0.1,0.2,0.3,0.3l0,0h0.1l0,0c0.1,0,0.2,0.1,0.3,0.1l0,0l0,0l0,0l0,0l0,0c0.1,0,0.2,0,0.3-0.1l0,0h0.1l0,0
			C45.3,39.5,45.3,39.4,45.3,39.3z"/>
	</g>
	<g id="XMLID_3738_" class="st1">
		<path id="XMLID_4404_" class="st9" d="M12.4,36.1c1.1-0.8,1.8-2.7,1.7-4c-0.1-1.4-1.2-2-1.7-2.3l0,0c-1.1-0.6-2.8-0.6-3.9,0l0,0
			C8,30.1,7,30.7,6.8,32.1c-0.1,1.3,0.6,3.2,1.7,4l0,0c0.1,0,0.1,0.1,0.2,0.1c1,0.6,2.6,0.6,3.6,0l0,0
			C12.3,36.2,12.4,36.1,12.4,36.1L12.4,36.1z"/>
		<path id="XMLID_4395_" class="st10" d="M9.9,30.8c-0.3,0.2-0.3,0.4,0,0.6s0.8,0.2,1.1,0s0.3-0.4,0-0.6
			C10.7,30.6,10.2,30.6,9.9,30.8z"/>
		<g id="XMLID_4426_">
			<path id="XMLID_2198_" class="st11" d="M10.5,31.2c0,0-0.9,0-1.4-0.7s0-1.9,0-1.9s1.1,0.1,1.7,1C11.2,30.4,10.5,31.2,10.5,31.2z"
				/>
			<path id="XMLID_4431_" class="st12" d="M9,30.5c0.5,0.7,1.4,0.7,1.4,0.7C10.3,29.6,9,28.6,9,28.6S8.5,29.8,9,30.5z"/>
		</g>
		<path id="XMLID_4403_" class="st13" d="M10.5,31.2c0,0,0-1.3,0.7-1.9s1.2-0.6,1.2-0.6c0.4,0,0.9,0.4,0.7,0.4c0,0-0.9,0-1.5,0.5
			s-0.9,1.5-0.9,1.6c0,0,0,0.1-0.1,0.1C10.5,31.3,10.5,31.2,10.5,31.2z"/>
		<path id="XMLID_4496_" class="st14" d="M12.4,28.7c-0.1,0-0.1,0.1,0.2,0.3c0.2,0.1,0.4,0.2,0.5,0.2l0,0
			C13.3,29,12.8,28.7,12.4,28.7z"/>
	</g>
	<g class="st1">
		<g>
			<path class="st15" d="M26,28.8L26,28.8c-1,0.6-1.9,1-2.8,1.2l0,0c0,0,0,0-0.1,0l-0.5,0.2h-0.1c-0.1,0-0.2,0.1-0.3,0.1h-0.1
				c-0.1,0-0.2,0.1-0.2,0.1h-0.1c-0.5,0.2-0.9,0.4-1.4,0.7c-0.1,0.1-0.2,0.1-0.3,0.2L20,31.4c-0.4,0.3-2,1.5-2.9,2.5l-0.6,0.6
				L16,34.6c-1,0.2-2,0.5-3,1.1c-0.1,0.1-0.2,0.1-0.3,0.2c-0.3,0.2-0.5,0.3-0.8,0.5l0,0l-0.1,0.1c-0.1,0.1-0.2,0.1-0.3,0.2l0,0l0,0
				c-0.4,0.3-0.9,0.7-1.3,1.1c-0.1,0.1-0.2,0.2-0.3,0.3c-0.3,0.3-0.7,0.6-1,0.9H8.8c-0.3,0.3-0.7,0.5-1,0.8
				c-0.2,0.2-0.5,0.3-0.7,0.5H7l13.7,8.3h0.1c0.8-0.5,1.7-1.2,2.5-1.9c0.5-0.5,1.1-0.9,1.7-1.4c1.2-0.9,2.3-1.5,3.2-1.8
				c0.7-0.3,1.4-0.5,2.1-0.6l0.5-0.6c0.7-0.7,1.5-1.3,2.4-1.8c1.5-1,3.2-1.8,4.9-2.5c0.6-0.2,1.2-0.5,1.6-0.7l0.2-0.1L26,28.8z"/>
			<g>
				<g>
					<g>
						<path class="st16" d="M39.1,36.7c-0.5,0.3-0.7,0.4-1.2,0.6c-0.3,0.1-0.5,0.2-0.8,0.3c-0.2,0.1-0.3,0.1-0.5,0.1
							c-0.7,0.2-1.4,0.4-2,0.8c-0.2,0.1-0.4,0.2-0.6,0.3c-1.3,0.8-2.6,2-3.9,3.5l-2.5-1.5l-11-6.7c1.3-1.5,2.6-2.7,3.9-3.5
							c0.2-0.1,0.4-0.2,0.6-0.3c0.7-0.4,1.4-0.6,2-0.8c0.2,0,0.3-0.1,0.5-0.1c0.3-0.1,0.5-0.2,0.8-0.3c0.5-0.2,0.7-0.3,1.2-0.6
							L39.1,36.7z"/>
						<g>
							<path class="st16" d="M30.1,42.3c-1.3,0.1-2.6,0.5-3.9,1.3c-0.2,0.1-0.4,0.2-0.6,0.4c-0.7,0.5-1.4,1-2,1.7
								c-0.2,0.2-0.3,0.3-0.5,0.4c-0.3,0.3-0.6,0.5-0.9,0.7c-0.5,0.4-0.8,0.6-1.3,0.9L7.5,39.5C8,39.2,8.3,39,8.8,38.6
								c0.3-0.2,0.6-0.5,0.9-0.7c0.2-0.1,0.3-0.3,0.5-0.4c0.7-0.6,1.4-1.2,2-1.7c0.2-0.1,0.4-0.3,0.6-0.4c1.3-0.8,2.6-1.2,3.9-1.3
								l11,6.7L30.1,42.3z"/>
						</g>
					</g>
					<polygon class="st17" points="7.5,39.5 7.3,40.3 20.7,48.5 20.9,47.7 					"/>
					<path class="st18" d="M39.4,37.1c-0.9,0.6-1.8,1-2.7,1.2c0,0,0,0-0.1,0s-0.2,0-0.3,0.1c-0.1,0-0.2,0.1-0.3,0.1
						s-0.2,0.1-0.3,0.1c-0.6,0.2-1.2,0.5-1.8,0.9c-0.1,0.1-0.2,0.1-0.3,0.2c-1,0.7-2,1.5-3,2.5L30,42.8l-0.6,0.1c-1,0.2-2,0.5-3,1.1
						c-0.1,0.1-0.2,0.1-0.3,0.2c-0.3,0.2-0.5,0.3-0.8,0.5c-0.6,0.4-1.1,0.9-1.7,1.4c-0.1,0.1-0.2,0.2-0.3,0.3
						c-0.9,0.9-1.8,1.6-2.7,2.2l0.2-0.8c0.5-0.3,0.8-0.5,1.3-0.9c0.3-0.2,0.6-0.5,0.9-0.7c0.2-0.1,0.3-0.3,0.5-0.4
						c0.7-0.6,1.4-1.2,2-1.7c0.2-0.1,0.4-0.3,0.6-0.4c1.3-0.8,2.6-1.2,3.9-1.3c1.3-1.5,2.6-2.7,3.9-3.5c0.2-0.1,0.4-0.2,0.6-0.3
						c0.7-0.4,1.4-0.6,2-0.8c0.2,0,0.3-0.1,0.5-0.1c0.3-0.1,0.5-0.2,0.8-0.3c0.5-0.2,0.7-0.3,1.2-0.6L39.4,37.1z"/>
				</g>
			</g>
			<g>
				<path class="st19" d="M17.8,34.6C17.9,34.6,17.9,34.6,17.8,34.6c1.2-1.4,2.5-2.5,3.7-3.2c0.2-0.1,0.4-0.2,0.5-0.3
					c0.7-0.3,1.3-0.6,2-0.8c0.2,0,0.3-0.1,0.5-0.1c0.3-0.1,0.5-0.2,0.8-0.3c0.4-0.2,0.7-0.3,1.1-0.5c0,0,0,0,0-0.1s0,0-0.1,0
					c-0.4,0.2-0.6,0.3-1,0.5c-0.3,0.1-0.5,0.2-0.8,0.3c-0.2,0.1-0.3,0.1-0.5,0.1c-0.7,0.2-1.3,0.4-2,0.8c-0.2,0.1-0.4,0.2-0.6,0.3
					C20.3,32.1,19,33.2,17.8,34.6C17.8,34.5,17.8,34.6,17.8,34.6L17.8,34.6z"/>
				<path class="st19" d="M25.4,30.6c-0.2,0.1-0.3,0.1-0.5,0.1c-0.7,0.2-1.3,0.4-2,0.8c-0.2,0.1-0.4,0.2-0.6,0.3
					c-1.2,0.7-2.5,1.8-3.7,3.2v0.1l0,0l0,0c1.2-1.4,2.5-2.5,3.7-3.2c0.2-0.1,0.4-0.2,0.6-0.3c0.7-0.4,1.3-0.6,2-0.8
					C25.1,30.8,25.3,30.7,25.4,30.6c0.3,0,0.6-0.1,0.8-0.2c0.4-0.2,0.6-0.3,1-0.5c0,0,0,0,0-0.1c0,0,0,0-0.1,0
					c-0.4,0.2-0.6,0.3-1,0.5C25.9,30.4,25.7,30.5,25.4,30.6z"/>
				<path class="st19" d="M26.2,31.1c-0.2,0.1-0.3,0.1-0.5,0.1c-0.7,0.2-1.3,0.4-2,0.8c-0.2,0.1-0.4,0.2-0.6,0.3
					c-1.2,0.7-2.5,1.8-3.7,3.2v0.1l0,0l0,0c1.2-1.4,2.5-2.5,3.7-3.2c0.2-0.1,0.4-0.2,0.6-0.3c0.7-0.4,1.4-0.6,2-0.8
					C25.9,31.3,26.1,31.2,26.2,31.1c0.3,0,0.6-0.1,0.8-0.2c0.4-0.2,0.6-0.3,1-0.5c0,0,0,0,0-0.1c0,0,0,0-0.1,0
					c-0.4,0.2-0.6,0.3-1,0.5C26.8,30.9,26.5,31,26.2,31.1z"/>
				<path class="st19" d="M27.1,31.5c-0.2,0.1-0.3,0.1-0.5,0.1c-0.7,0.2-1.3,0.4-2,0.8c-0.2,0.1-0.4,0.2-0.6,0.3
					c-1.2,0.7-2.5,1.8-3.7,3.2V36l0,0l0,0c1.2-1.4,2.5-2.5,3.7-3.2c0.2-0.1,0.4-0.2,0.6-0.3c0.7-0.4,1.4-0.6,2-0.8
					C26.7,31.7,26.9,31.7,27.1,31.5c0.3,0,0.6-0.1,0.8-0.2c0.4-0.2,0.6-0.3,1-0.5c0,0,0,0,0-0.1c0,0,0,0-0.1,0
					c-0.4,0.2-0.6,0.3-1,0.5C27.6,31.4,27.3,31.5,27.1,31.5z"/>
				<path class="st19" d="M27.9,32c-0.2,0.1-0.3,0.1-0.5,0.1c-0.7,0.2-1.4,0.4-2,0.8c-0.2,0.1-0.4,0.2-0.6,0.3
					c-1.2,0.7-2.5,1.9-3.7,3.2v0.1l0,0l0,0c1.2-1.4,2.5-2.5,3.7-3.2c0.2-0.1,0.4-0.2,0.6-0.3c0.7-0.4,1.4-0.6,2-0.8
					C27.6,32.2,27.8,32.2,27.9,32c0.3,0,0.6-0.1,0.8-0.2c0.4-0.2,0.6-0.3,1-0.5c0,0,0,0,0-0.1c0,0,0,0-0.1,0c-0.4,0.2-0.6,0.3-1,0.5
					C28.4,31.8,28.1,31.9,27.9,32z"/>
				<path class="st19" d="M28.7,32.5c-0.2,0.1-0.3,0.1-0.5,0.1c-0.7,0.2-1.4,0.4-2,0.8c-0.2,0.1-0.4,0.2-0.6,0.3
					c-1.2,0.7-2.5,1.9-3.7,3.2V37l0,0l0,0c1.2-1.4,2.5-2.5,3.7-3.2c0.2-0.1,0.4-0.2,0.6-0.3c0.7-0.4,1.4-0.6,2-0.8
					C28.4,32.7,28.6,32.6,28.7,32.5c0.3,0,0.6-0.1,0.8-0.2c0.4-0.2,0.6-0.3,1-0.5c0,0,0,0,0-0.1c0,0,0,0-0.1,0
					c-0.3,0.2-0.6,0.3-0.9,0.5C29.2,32.3,29,32.4,28.7,32.5z"/>
				<path class="st19" d="M29.6,33c-0.2,0.1-0.3,0.1-0.5,0.1c-0.7,0.2-1.4,0.4-2.1,0.8c-0.2,0.1-0.4,0.2-0.6,0.3
					c-1.2,0.7-2.5,1.9-3.8,3.3v0.1l0,0l0,0c1.2-1.4,2.5-2.5,3.7-3.2c0.2-0.1,0.4-0.2,0.6-0.3c0.7-0.4,1.4-0.6,2-0.8
					C29.2,33.2,29.4,33.1,29.6,33c0.3,0,0.6-0.1,0.8-0.2c0.4-0.2,0.6-0.3,0.9-0.5c0,0,0,0,0-0.1c0,0,0,0-0.1,0
					c-0.3,0.2-0.5,0.3-0.9,0.4C30.1,32.8,29.8,32.9,29.6,33z"/>
				<path class="st19" d="M30.4,33.5c-0.2,0.1-0.3,0.1-0.5,0.1c-0.7,0.2-1.4,0.4-2.1,0.8c-0.2,0.1-0.4,0.2-0.6,0.3
					c-1.2,0.7-2.5,1.9-3.8,3.3v0.1l0,0l0,0c1.2-1.4,2.5-2.5,3.7-3.2c0.2-0.1,0.4-0.2,0.6-0.3c0.7-0.4,1.4-0.6,2-0.8
					C30.1,33.7,30.2,33.6,30.4,33.5c0.3,0,0.5-0.1,0.8-0.2c0.4-0.2,0.6-0.3,0.9-0.4c0,0,0,0,0-0.1c0,0,0,0-0.1,0
					c-0.3,0.2-0.5,0.3-0.9,0.4C30.9,33.3,30.6,33.4,30.4,33.5z"/>
				<path class="st19" d="M31.2,33.9C31,34,30.9,34,30.7,34.1c-0.7,0.2-1.4,0.4-2.1,0.8c-0.2,0.1-0.4,0.2-0.6,0.3
					c-1.2,0.7-2.5,1.9-3.8,3.3v0.1l0,0l0,0c1.2-1.4,2.5-2.5,3.8-3.3c0.2-0.1,0.4-0.2,0.6-0.3c0.7-0.4,1.4-0.6,2-0.8
					C30.9,34.1,31.1,34.1,31.2,33.9c0.3,0,0.5-0.1,0.8-0.2c0.4-0.2,0.6-0.2,0.9-0.4c0,0,0,0,0-0.1c0,0,0,0-0.1,0
					c-0.3,0.2-0.5,0.3-0.9,0.4C31.7,33.8,31.5,33.9,31.2,33.9z"/>
				<path class="st19" d="M32,34.4c-0.2,0.1-0.3,0.1-0.5,0.1c-0.7,0.2-1.4,0.4-2.1,0.8c-0.2,0.1-0.4,0.2-0.6,0.3
					c-1.2,0.7-2.6,1.9-3.8,3.3V39l0,0l0,0c1.2-1.4,2.5-2.5,3.8-3.3c0.2-0.1,0.4-0.2,0.6-0.3c0.7-0.4,1.4-0.6,2-0.8
					C31.7,34.6,31.9,34.6,32,34.4c0.3,0,0.5-0.1,0.8-0.2c0.4-0.2,0.6-0.2,0.9-0.4c0,0,0,0,0-0.1c0,0,0,0-0.1,0
					c-0.3,0.2-0.5,0.3-0.9,0.4C32.6,34.2,32.3,34.3,32,34.4z"/>
				<path class="st19" d="M32.9,34.9C32.7,35,32.6,35,32.4,35c-0.7,0.2-1.4,0.4-2.1,0.8c-0.2,0.1-0.4,0.2-0.6,0.3
					c-1.2,0.8-2.6,1.9-3.8,3.3v0.1l0,0l0,0c1.2-1.4,2.5-2.5,3.8-3.3c0.2-0.1,0.4-0.2,0.6-0.3c0.7-0.4,1.4-0.6,2.1-0.8
					C32.6,35.1,32.7,35,32.9,34.9c0.3,0,0.5-0.1,0.8-0.2c0.3-0.1,0.6-0.2,0.9-0.4c0,0,0,0,0-0.1c0,0,0,0-0.1,0
					c-0.3,0.2-0.5,0.3-0.8,0.4C33.4,34.7,33.1,34.8,32.9,34.9z"/>
				<path class="st19" d="M33.7,35.4c-0.2,0.1-0.3,0.1-0.5,0.1c-0.7,0.2-1.4,0.4-2.1,0.8c-0.2,0.1-0.4,0.2-0.6,0.3
					c-1.2,0.8-2.6,1.9-3.8,3.3V40l0,0l0,0c1.2-1.4,2.6-2.5,3.8-3.3c0.2-0.1,0.4-0.2,0.6-0.3c0.7-0.4,1.4-0.6,2.1-0.8
					C33.4,35.6,33.6,35.5,33.7,35.4c0.3,0,0.5-0.1,0.8-0.2c0.3-0.1,0.5-0.2,0.8-0.4c0,0,0,0,0-0.1c0,0,0,0-0.1,0
					c-0.3,0.2-0.5,0.3-0.8,0.4C34.2,35.2,34,35.3,33.7,35.4z"/>
				<path class="st19" d="M34.5,35.8c-0.2,0.1-0.3,0.1-0.5,0.1c-0.7,0.2-1.4,0.4-2.1,0.8c-0.2,0.1-0.4,0.2-0.6,0.3
					c-1.3,0.8-2.6,1.9-3.8,3.3v0.1l0,0l0,0c1.2-1.4,2.6-2.6,3.8-3.3c0.2-0.1,0.4-0.2,0.6-0.3c0.7-0.4,1.4-0.6,2.1-0.8
					C34.2,36,34.4,36,34.5,35.8c0.3,0,0.5-0.1,0.8-0.2c0.3-0.1,0.5-0.2,0.8-0.4c0,0,0,0,0-0.1c0,0,0,0-0.1,0
					c-0.3,0.2-0.5,0.2-0.8,0.4C35,35.7,34.8,35.8,34.5,35.8z"/>
				<path class="st19" d="M35.4,36.3c-0.2,0.1-0.3,0.1-0.5,0.1c-0.7,0.2-1.4,0.4-2.1,0.8c-0.2,0.1-0.4,0.2-0.6,0.3
					c-1.3,0.8-2.6,1.9-3.8,3.3v0.1l0,0l0,0c1.3-1.4,2.6-2.6,3.8-3.3c0.2-0.1,0.4-0.2,0.6-0.3c0.7-0.4,1.4-0.6,2.1-0.8
					C35.1,36.5,35.2,36.5,35.4,36.3c0.3,0,0.5-0.1,0.8-0.2c0.3-0.1,0.5-0.2,0.8-0.4c0,0,0,0,0-0.1c0,0,0,0-0.1,0
					c-0.2,0.1-0.4,0.2-0.8,0.4C35.9,36.2,35.6,36.2,35.4,36.3z"/>
				<path class="st19" d="M37.7,36.2c-0.3,0.1-0.5,0.2-0.8,0.4c-0.3,0.1-0.5,0.2-0.8,0.3C35.9,37,35.8,37,35.6,37
					c-0.7,0.2-1.4,0.4-2.1,0.8c-0.2,0.1-0.4,0.2-0.6,0.3c-1.3,0.8-2.6,1.9-3.9,3.3v0.1l0,0l0,0c1.3-1.4,2.6-2.6,3.8-3.3
					c0.2-0.1,0.4-0.2,0.6-0.3c0.7-0.4,1.4-0.6,2.1-0.8c0.2,0,0.3-0.1,0.5-0.1c0.2-0.1,0.5-0.2,0.8-0.3
					C37.3,36.5,37.5,36.4,37.7,36.2C37.8,36.3,37.8,36.2,37.7,36.2C37.8,36.2,37.7,36.2,37.7,36.2z"/>
				<path class="st19" d="M10.6,38.6c0.2-0.1,0.3-0.3,0.5-0.4c0.7-0.6,1.3-1.2,2-1.7c0.2-0.1,0.4-0.2,0.6-0.4
					c1.2-0.7,2.5-1.2,3.7-1.3c0,0,0,0,0-0.1c0,0,0,0-0.1,0c-1.2,0.1-2.5,0.5-3.7,1.3c-0.2,0.1-0.4,0.2-0.6,0.4c-0.7,0.5-1.4,1-2,1.7
					C10.9,38.3,10.7,38.4,10.6,38.6c-0.4,0.2-0.7,0.4-0.9,0.7c-0.4,0.3-0.7,0.5-1,0.7c0,0,0,0,0,0.1l0,0l0,0c0.3-0.2,0.6-0.4,1-0.7
					S10.3,38.9,10.6,38.6z"/>
				<path class="st19" d="M11.5,39.1c0.2-0.1,0.3-0.3,0.5-0.4c0.7-0.6,1.3-1.2,2-1.7c0.2-0.1,0.4-0.2,0.6-0.4
					c1.2-0.7,2.5-1.2,3.7-1.2c0,0,0,0,0-0.1c0,0,0-0.1-0.1,0c-1.2,0.1-2.5,0.5-3.7,1.3c-0.2,0.1-0.4,0.2-0.6,0.4
					c-0.7,0.5-1.4,1-2,1.7C11.7,38.8,11.6,38.9,11.5,39.1c-0.4,0.2-0.7,0.4-0.9,0.7c-0.4,0.3-0.7,0.5-1,0.7c0,0,0,0,0,0.1l0,0l0,0
					c0.3-0.2,0.6-0.4,1-0.7C10.9,39.6,11.2,39.4,11.5,39.1z"/>
				<path class="st19" d="M12.3,39.6c0.2-0.1,0.3-0.3,0.5-0.4c0.7-0.6,1.3-1.2,2-1.7c0.2-0.1,0.4-0.3,0.6-0.4
					c1.2-0.7,2.4-1.2,3.6-1.2c0,0,0,0,0-0.1s0,0-0.1,0c-1.2,0.1-2.5,0.5-3.7,1.3c-0.2,0.1-0.4,0.2-0.6,0.4c-0.7,0.5-1.4,1-2,1.7
					C12.5,39.2,12.4,39.4,12.3,39.6c-0.4,0.2-0.7,0.4-0.9,0.7c-0.4,0.3-0.7,0.5-1,0.7c0,0,0,0,0,0.1l0,0l0,0c0.3-0.2,0.6-0.4,1-0.7
					C11.7,40.1,12,39.9,12.3,39.6z"/>
				<path class="st19" d="M13.1,40.1c0.2-0.1,0.3-0.3,0.5-0.4c0.7-0.6,1.3-1.2,2-1.7c0.2-0.1,0.4-0.3,0.6-0.4
					c1.2-0.7,2.4-1.1,3.6-1.2c0,0,0,0,0-0.1c0,0,0,0-0.1,0c-1.2,0.1-2.4,0.5-3.6,1.3c-0.2,0.1-0.4,0.2-0.6,0.4c-0.7,0.5-1.4,1-2,1.7
					C13.3,39.7,13.2,39.9,13.1,40.1c-0.4,0.2-0.6,0.4-0.9,0.7c-0.4,0.3-0.7,0.5-1,0.7c0,0,0,0,0,0.1l0,0l0,0c0.3-0.2,0.6-0.4,1-0.7
					C12.5,40.6,12.8,40.4,13.1,40.1z"/>
				<path class="st19" d="M13.9,40.6c0.2-0.1,0.3-0.3,0.5-0.4c0.7-0.6,1.3-1.2,2-1.7c0.2-0.1,0.4-0.3,0.6-0.4
					c1.2-0.7,2.4-1.1,3.6-1.2c0,0,0,0,0-0.1c0,0,0,0-0.1,0c-1.2,0.1-2.4,0.5-3.6,1.3c-0.2,0.1-0.4,0.2-0.6,0.4c-0.7,0.5-1.4,1-2,1.7
					C14.2,40.2,14,40.4,13.9,40.6c-0.4,0.2-0.6,0.4-0.9,0.7c-0.4,0.3-0.7,0.5-1,0.7c0,0,0,0,0,0.1l0,0l0,0c0.3-0.2,0.6-0.4,1-0.7
					C13.3,41.1,13.6,40.8,13.9,40.6z"/>
				<path class="st19" d="M14.7,41.1c0.2-0.1,0.3-0.3,0.5-0.4c0.7-0.6,1.3-1.2,2-1.7c0.2-0.1,0.4-0.3,0.6-0.4
					c1.2-0.7,2.4-1.1,3.5-1.2c0,0,0,0,0-0.1c0,0,0,0-0.1,0c-1.2,0.1-2.4,0.6-3.6,1.3c-0.2,0.1-0.4,0.2-0.6,0.4c-0.7,0.5-1.4,1-2,1.7
					C15,40.7,14.8,40.8,14.7,41.1c-0.4,0.2-0.6,0.4-0.9,0.7c-0.4,0.3-0.7,0.5-1,0.7c0,0,0,0,0,0.1l0,0l0,0c0.3-0.2,0.6-0.4,1-0.7
					S14.4,41.3,14.7,41.1z"/>
				<path class="st19" d="M15.6,41.5c0.2-0.1,0.3-0.3,0.5-0.4c0.7-0.6,1.3-1.2,2-1.7c0.2-0.1,0.4-0.3,0.6-0.4
					c1.1-0.7,2.4-1.1,3.5-1.2c0,0,0,0,0-0.1s0,0-0.1,0c-1.2,0.1-2.4,0.6-3.5,1.3c-0.2,0.1-0.4,0.2-0.6,0.4c-0.7,0.5-1.4,1-2,1.7
					C15.8,41.2,15.6,41.3,15.6,41.5c-0.4,0.2-0.6,0.4-0.9,0.7c-0.4,0.3-0.7,0.5-1,0.7c0,0,0,0,0,0.1l0,0l0,0c0.3-0.2,0.6-0.4,1-0.7
					C15,42.1,15.3,41.8,15.6,41.5z"/>
				<path class="st19" d="M16.4,42c0.2-0.1,0.3-0.3,0.5-0.4c0.7-0.6,1.3-1.2,2-1.7c0.2-0.1,0.4-0.3,0.6-0.4c1.1-0.7,2.3-1.1,3.5-1.2
					c0,0,0,0,0-0.1s0,0-0.1,0c-1.2,0.1-2.4,0.6-3.5,1.3c-0.2,0.1-0.4,0.2-0.6,0.4c-0.7,0.5-1.4,1-2.1,1.7
					C16.6,41.7,16.5,41.8,16.4,42c-0.4,0.2-0.6,0.4-0.9,0.7c-0.4,0.3-0.7,0.5-1,0.7c0,0,0,0,0,0.1l0,0l0,0c0.3-0.2,0.6-0.4,1.1-0.7
					C15.8,42.5,16.1,42.3,16.4,42z"/>
				<path class="st19" d="M17.2,42.5c0.2-0.1,0.3-0.3,0.5-0.4c0.7-0.6,1.4-1.2,2-1.7c0.2-0.1,0.4-0.3,0.6-0.4
					c1.1-0.7,2.3-1.1,3.4-1.2c0,0,0,0,0-0.1s0,0-0.1,0c-1.1,0.1-2.3,0.6-3.5,1.3c-0.2,0.1-0.4,0.2-0.6,0.4c-0.7,0.5-1.4,1-2.1,1.7
					C17.4,42.2,17.3,42.3,17.2,42.5c-0.4,0.2-0.6,0.4-0.9,0.6c-0.4,0.3-0.7,0.5-1.1,0.7c0,0,0,0,0,0.1l0,0l0,0
					c0.3-0.2,0.6-0.4,1.1-0.8C16.6,43,16.9,42.8,17.2,42.5z"/>
				<path class="st19" d="M18,43c0.2-0.1,0.3-0.3,0.5-0.4c0.7-0.6,1.4-1.2,2-1.7c0.2-0.1,0.4-0.3,0.6-0.4c1.1-0.7,2.3-1.1,3.4-1.2
					c0,0,0,0,0-0.1s0,0-0.1,0c-1.1,0.1-2.3,0.6-3.5,1.3c-0.2,0.1-0.4,0.2-0.6,0.4c-0.7,0.5-1.4,1.1-2.1,1.7
					C18.3,42.6,18.1,42.8,18,43c-0.4,0.2-0.6,0.4-0.9,0.6c-0.4,0.3-0.7,0.6-1.1,0.8c0,0,0,0,0,0.1l0,0l0,0c0.3-0.2,0.7-0.4,1.1-0.8
					C17.4,43.5,17.7,43.3,18,43z"/>
				<path class="st19" d="M18.8,43.5c0.2-0.1,0.3-0.3,0.5-0.4c0.7-0.6,1.4-1.2,2-1.7c0.2-0.1,0.4-0.3,0.6-0.4
					c1.1-0.7,2.3-1.1,3.4-1.2c0,0,0,0,0-0.1c0,0,0,0-0.1,0c-1.1,0.1-2.3,0.6-3.4,1.3c-0.2,0.1-0.4,0.2-0.6,0.4
					c-0.7,0.5-1.4,1.1-2.1,1.7C19.1,43.1,18.9,43.3,18.8,43.5c-0.4,0.2-0.6,0.4-0.9,0.6c-0.4,0.3-0.7,0.6-1.1,0.8c0,0,0,0,0,0.1l0,0
					l0,0c0.3-0.2,0.7-0.4,1.1-0.8C18.3,44,18.5,43.7,18.8,43.5z"/>
				<path class="st19" d="M19.6,44c0.2-0.1,0.3-0.3,0.5-0.4c0.7-0.6,1.4-1.2,2.1-1.7c0.2-0.1,0.4-0.3,0.6-0.4
					c1.1-0.7,2.3-1.1,3.4-1.2c0,0,0,0,0-0.1c0,0,0,0-0.1,0c-1.1,0.2-2.3,0.6-3.4,1.3c-0.2,0.1-0.4,0.2-0.6,0.4
					c-0.7,0.5-1.4,1.1-2.1,1.7C19.9,43.6,19.7,43.8,19.6,44c-0.4,0.2-0.6,0.4-0.9,0.6c-0.4,0.3-0.8,0.6-1.1,0.8c0,0,0,0,0,0.1l0,0
					l0,0c0.3-0.2,0.7-0.4,1.1-0.8C19.1,44.5,19.4,44.2,19.6,44z"/>
				<path class="st19" d="M20.5,44.5c0.2-0.1,0.3-0.3,0.5-0.4c0.7-0.6,1.4-1.2,2.1-1.7c0.2-0.1,0.4-0.3,0.6-0.4
					c1.1-0.7,2.2-1.1,3.3-1.2c0,0,0,0,0-0.1c0,0,0,0-0.1,0c-1.1,0.2-2.3,0.6-3.4,1.3c-0.2,0.1-0.4,0.2-0.6,0.4
					c-0.7,0.5-1.4,1.1-2.1,1.7C20.7,44.1,20.5,44.2,20.5,44.5c-0.4,0.2-0.6,0.4-0.9,0.6c-0.4,0.3-0.8,0.6-1.1,0.8c0,0,0,0,0,0.1l0,0
					l0,0c0.3-0.2,0.7-0.4,1.1-0.8C19.9,45,20.2,44.7,20.5,44.5z"/>
				<path class="st19" d="M21.3,44.9c0.2-0.1,0.3-0.3,0.5-0.4c0.7-0.7,1.4-1.2,2.1-1.7c0.2-0.1,0.4-0.3,0.6-0.4
					c1.1-0.6,2.2-1.1,3.3-1.2c0,0,0,0,0-0.1c0,0,0,0-0.1,0c-1.1,0.2-2.3,0.6-3.3,1.3c-0.2,0.1-0.4,0.2-0.6,0.4
					c-0.7,0.5-1.4,1.1-2.1,1.7C21.5,44.6,21.4,44.7,21.3,44.9c-0.4,0.2-0.6,0.4-0.9,0.6c-0.4,0.3-0.8,0.6-1.1,0.8c0,0,0,0,0,0.1l0,0
					l0,0c0.4-0.2,0.7-0.4,1.1-0.8C20.7,45.4,21,45.2,21.3,44.9z"/>
				<path class="st19" d="M25.2,42.8c-0.2,0.1-0.4,0.2-0.6,0.4c-0.7,0.5-1.4,1.1-2.1,1.7c-0.2,0.1-0.3,0.3-0.5,0.4
					c-0.3,0.3-0.6,0.5-0.9,0.7c-0.4,0.3-0.8,0.6-1.1,0.8c0,0,0,0,0,0.1l0,0l0,0c0.4-0.2,0.7-0.4,1.1-0.8c0.3-0.2,0.6-0.5,0.9-0.7
					c0.2-0.1,0.3-0.3,0.5-0.4c0.7-0.7,1.4-1.2,2.1-1.7C24.8,43.2,25,43,25.2,42.8c1.1-0.6,2.2-1,3.3-1.2c0,0,0,0,0-0.1
					c0,0,0,0-0.1,0C27.4,41.7,26.2,42.2,25.2,42.8z"/>
			</g>
		</g>
		<g>
			<g>
				<g>
					<g>
						<g class="st20">
							<g>
								<path class="st21" d="M29.1,41.9l-7.9-4.6l-0.1-0.1L29.1,41.9L29.1,41.9z"/>
							</g>
							<g>
								<path class="st22" d="M29.2,41.6c-0.1,0.1-0.1,0.1-0.1,0.2l-7.9-4.6l0.1-0.2L29.2,41.6z"/>
							</g>
							<g>
								<path class="st23" d="M29.4,41.5h-0.1c0,0-0.1,0-0.1,0.1l-8-4.6l0.2-0.1L29.4,41.5z"/>
							</g>
						</g>
					</g>
					<g>
						<polygon class="st24" points="30.3,42.2 30.3,42.3 30.3,42.3 30.3,42.3 30.2,42.3 30.3,42.3 						"/>
					</g>
					<path d="M30.3,42.2L30,42l0,0c0,0,0,0-0.1,0l-0.1,0.1l0,0L30.3,42.2C30.3,42.3,30.3,42.3,30.3,42.2
						C30.3,42.3,30.3,42.3,30.3,42.2z"/>
					<path class="st25" d="M21.7,37h-0.1l-0.1,0.1c0,0.1-0.1,0.1-0.1,0.2v0.1L21,37.1c0,0-0.1,0-0.1-0.1s0-0.1,0.1-0.2
						c0-0.1,0.1-0.1,0.1-0.1h0.1l0,0L21.7,37z"/>
					<path class="st26" d="M29.4,41.5L29.4,41.5L29.4,41.5z"/>
				</g>
				<path class="st27" d="M29.4,41.5L29.4,41.5L29.4,41.5c-0.1,0-0.2,0-0.2,0s0,0,0,0.1l0,0c0,0-0.1,0.1-0.1,0.2l0,0v0.1l0,0
					l0.8,0.3l0,0c0,0,0-0.1,0.1-0.1c0,0,0,0,0.1,0L29.4,41.5z"/>
			</g>
			
				<linearGradient id="SVGID_1_" gradientUnits="userSpaceOnUse" x1="21.7732" y1="-1763.1643" x2="21.5925" y2="-1763.4896" gradientTransform="matrix(1 0 0 -1 0 -1726)">
				<stop  offset="0" style="stop-color:#78ACED"/>
				<stop  offset="1" style="stop-color:#4F7BB3"/>
			</linearGradient>
			<path class="st28" d="M22.1,37.3L22.1,37.3L22.1,37.3L21.7,37l0,0l0,0h-0.1l0,0h-0.1c-0.1,0-0.1,0.1-0.1,0.1
				c0,0.1-0.1,0.1-0.1,0.2c0,0,0,0.1,0.1,0.1h0.1l0,0l0,0l0.3,0.2l0,0l0,0l0.1,0.1l0,0l0,0l0,0c0,0,0,0,0-0.1l0,0v-0.1l0,0l0.1-0.1
				l0,0C22,37.3,22,37.2,22.1,37.3L22.1,37.3L22.1,37.3L22.1,37.3L22.1,37.3z"/>
		</g>
	</g>
</g>
<radialGradient id="SVGID_00000028317778878707352800000017398185124019367053_" cx="-639.9614" cy="-3340.5396" r="15.9018" gradientTransform="matrix(1.5353 0 0 -0.4819 1007.5328 -1568.306)" gradientUnits="userSpaceOnUse">
	<stop  offset="0.4351" style="stop-color:#B4BCC1"/>
	<stop  offset="0.94" style="stop-color:#ECEEEF;stop-opacity:0"/>
</radialGradient>
<ellipse style="fill:url(#SVGID_00000028317778878707352800000017398185124019367053_);" cx="25" cy="41.5" rx="24.4" ry="7.7"/>
<g>
	<g id="Arm">
		<g>
			<polygon class="st30" points="17.902,35.108 25.373,39.613 25.357,45.48 17.888,40.969 			"/>
			<polygon class="st31" points="25.357,45.48 25.373,39.613 38.476,32.113 38.463,37.98 			"/>
			<polygon class="st32" points="15.86,30.349 24.259,35.405 24.241,42.406 15.843,37.343 			"/>
			<polygon class="st33" points="15.86,30.349 24.259,35.405 39.9,26.453 31.5,21.397 			"/>
			<polygon class="st34" points="24.241,42.406 24.259,35.403 29.947,32.148 38.73,28.108 38.737,27.119 39.9,26.453 39.881,33.456 
							"/>
			<path class="st33" d="M25.126,35.536l4.12-2.37c0.211-0.121,0.381-0.006,0.381,0.264l0,0c0,0.269-0.17,0.593-0.381,0.714
				l-4.12,2.37c-0.211,0.121-0.381,0.006-0.381-0.264l0,0C24.745,35.981,24.915,35.657,25.126,35.536z"/>
			<path class="st35" d="M25.126,35.536l4.12-2.37c0.077-0.045,0.148-0.059,0.206-0.043c0.039,0.053,0.061,0.131,0.061,0.23l0,0
				c0,0.269-0.17,0.593-0.381,0.714l-4.12,2.37c-0.077,0.045-0.148,0.057-0.206,0.043c-0.039-0.053-0.061-0.131-0.061-0.229l0,0
				C24.745,35.981,24.915,35.657,25.126,35.536z"/>
			<path class="st34" d="M29.502,33.235c0.008,0.035,0.013,0.074,0.013,0.116l0,0c0,0.269-0.17,0.593-0.381,0.714l-4.12,2.37
				c-0.06,0.035-0.117,0.05-0.167,0.049c-0.008-0.035-0.013-0.073-0.013-0.114l0,0c0-0.269,0.17-0.593,0.381-0.714l4.12-2.37
				C29.395,33.251,29.452,33.234,29.502,33.235z"/>
			<g>
				<polygon class="st32" points="29.497,23.424 30.328,23.921 30.319,27.508 29.488,27.007 				"/>
				<polygon class="st33" points="29.497,23.424 30.328,23.921 32.656,22.588 31.825,22.092 				"/>
				<polygon class="st34" points="30.319,27.508 30.328,23.921 32.656,22.588 32.646,26.175 				"/>
			</g>
			<g>
				<polygon class="st32" points="29.497,23.424 30.328,23.921 30.32,27.004 29.89,27.25 29.488,27.007 				"/>
				<polygon class="st33" points="29.497,23.424 30.328,23.921 32.656,22.588 31.825,22.092 				"/>
			</g>
			<polygon class="st32" points="26.288,21.027 27.119,21.524 27.11,28.309 26.279,27.808 			"/>
			<polygon class="st33" points="26.288,21.027 27.119,21.524 35.576,16.684 34.744,16.187 			"/>
			<polygon class="st34" points="27.11,28.309 27.119,21.524 35.576,16.684 35.566,23.469 			"/>
			<polygon class="st33" points="27.65,27.441 27.656,21.746 35.036,17.518 35.029,23.212 			"/>
			<polygon class="st32" points="34.388,17.889 35.036,17.518 35.029,23.212 34.344,22.767 			"/>
			<polygon class="st36" points="27.65,27.202 27.656,21.746 34.853,17.623 34.846,23.079 			"/>
			<path class="st35" d="M23.15,32.575c1.61,0,2.923-0.815,2.923-1.815c0-1-1.313-1.815-2.923-1.815
				c-1.61,0-2.923,0.815-2.923,1.815C20.228,31.76,21.541,32.575,23.15,32.575z"/>
			<g>
				<path class="st37" d="M20.985,20.581c0.818,0.253,1.927-0.59,2.477-1.882c0.551-1.292,0.335-2.544-0.483-2.796
					s-1.927,0.59-2.477,1.882C19.952,19.076,20.168,20.328,20.985,20.581z"/>
				<path class="st38" d="M21.223,20.713c0.818,0.253,1.927-0.59,2.477-1.882c0.551-1.292,0.335-2.544-0.483-2.796
					c-0.818-0.253-1.927,0.59-2.477,1.882C20.189,19.209,20.405,20.461,21.223,20.713z"/>
			</g>
			<path class="st38" d="M23.15,32.37c1.61,0,2.923-0.815,2.923-1.815c0-1-1.313-1.815-2.923-1.815c-1.61,0-2.923,0.815-2.923,1.815
				C20.228,31.555,21.541,32.37,23.15,32.37z"/>
			<path class="st37" d="M23.162,32.049c1.61,0,2.923-0.815,2.923-1.815c0-1-1.313-1.815-2.923-1.815
				c-1.61,0-2.923,0.815-2.923,1.815C20.239,31.234,21.552,32.049,23.162,32.049z"/>
			<polygon class="st33" points="25.453,19.125 22.569,20.454 20.482,19.268 23.366,17.939 			"/>
			<polygon class="st32" points="22.583,20.452 22.583,31.744 20.496,30.558 20.496,19.266 			"/>
			<polygon class="st35" points="22.02,20.12 22.02,24.271 22.02,24.271 22.02,24.278 21.032,23.716 21.039,23.713 21.032,23.71 
				21.032,19.558 22.02,20.12 21.032,19.558 23.916,18.23 24.904,18.792 			"/>
			<polygon class="st34" points="22.569,31.744 25.693,29.969 25.693,18.677 22.569,20.452 			"/>
			<polygon class="st33" points="22.016,23.321 22.016,24.276 21.024,23.711 			"/>
			<g>
				<path class="st37" d="M8.127,23.964c0.541,0.167,1.275-0.391,1.639-1.246c0.364-0.855,0.222-1.684-0.32-1.851
					c-0.541-0.167-1.275,0.391-1.639,1.246C7.442,22.969,7.586,23.798,8.127,23.964z"/>
				<path class="st38" d="M8.285,24.053c0.541,0.167,1.275-0.391,1.639-1.246c0.364-0.855,0.222-1.684-0.32-1.851
					c-0.541-0.167-1.275,0.391-1.639,1.246C7.6,23.057,7.744,23.886,8.285,24.053z"/>
			</g>
			<g>
				<path class="st37" d="M12.864,15.425c0.751,0.232,1.769-0.541,2.276-1.729c0.505-1.186,0.307-2.336-0.444-2.569
					c-0.751-0.232-1.769,0.541-2.276,1.729C11.916,14.044,12.114,15.194,12.864,15.425z"/>
				<path class="st38" d="M13.082,15.547c0.751,0.232,1.769-0.543,2.276-1.729c0.505-1.186,0.307-2.336-0.444-2.569
					c-0.751-0.232-1.769,0.541-2.276,1.729C12.133,14.165,12.331,15.315,13.082,15.547z"/>
			</g>
			<path class="st33" d="M12.903,13.013l-4.229,7.83c-1.306,2.417-0.163,4.084,1.596,2.736l5.345-9.029
				C17.184,11.901,13.985,11.011,12.903,13.013z"/>
			<polygon class="st34" points="8.896,22.595 10.356,23.424 16.271,14.961 13.879,13.603 			"/>
			<polygon class="st34" points="14.421,15.474 16.075,12.497 25.847,18.057 24.824,21.393 			"/>
			<path class="st35" d="M13.272,13.103l-0.04,0.075l0.261,0.149l0.073-0.135c0.476-0.88,1.359-1.201,2.068-1.06
				C14.894,11.821,13.816,12.096,13.272,13.103z"/>
			<path class="st35" d="M8.504,21.944l0.028-0.103l0.275,0.156l-0.049,0.119c-0.384,0.924-0.075,1.812,0.48,2.274
				C8.411,23.932,8.199,23.046,8.504,21.944z"/>
			<path class="st36" d="M7.543,26.57l-0.894-0.301l1.939-3.277c0.01,0.65,0.085,0.965,0.28,1.306L7.543,26.57z"/>
			<polygon class="st39" points="7.698,26.632 6.803,26.33 8.634,23.297 9.528,23.597 			"/>
			<path class="st37" d="M14.216,16.167c0.753,0.233,1.776-0.544,2.283-1.734c0.508-1.19,0.308-2.344-0.445-2.577
				c-0.753-0.233-1.776,0.544-2.283,1.734C13.263,14.781,13.463,15.934,14.216,16.167z"/>
			<path class="st31" d="M14.435,16.289c0.753,0.233,1.776-0.544,2.283-1.734c0.508-1.19,0.308-2.344-0.445-2.577
				c-0.753-0.233-1.776,0.544-2.283,1.734C13.482,14.903,13.682,16.057,14.435,16.289z"/>
			<path class="st39" d="M14.727,15.604c0.513,0.159,1.211-0.371,1.557-1.183c0.346-0.812,0.211-1.599-0.304-1.758
				c-0.513-0.159-1.211,0.371-1.557,1.183C14.077,14.658,14.213,15.445,14.727,15.604z"/>
			<path class="st36" d="M14.946,15.724c0.513,0.159,1.211-0.371,1.557-1.183c0.346-0.812,0.211-1.599-0.304-1.758
				c-0.513-0.159-1.211,0.371-1.557,1.183C14.297,14.778,14.433,15.565,14.946,15.724z"/>
			<g>
				<path class="st37" d="M9.071,24.48c0.543,0.167,1.279-0.392,1.645-1.25c0.366-0.858,0.222-1.69-0.321-1.857
					c-0.543-0.167-1.279,0.392-1.645,1.25C8.384,23.48,8.528,24.311,9.071,24.48z"/>
				<path class="st31" d="M9.228,24.568c0.543,0.167,1.279-0.392,1.645-1.25c0.366-0.858,0.222-1.69-0.321-1.857
					c-0.543-0.167-1.279,0.392-1.645,1.25C8.542,23.569,8.686,24.401,9.228,24.568z"/>
				<path class="st39" d="M9.439,24.074c0.37,0.114,0.872-0.268,1.122-0.852c0.25-0.585,0.152-1.152-0.219-1.267
					c-0.37-0.114-0.872,0.268-1.122,0.852C8.97,23.392,9.068,23.96,9.439,24.074z"/>
				<path class="st36" d="M9.597,24.161c0.37,0.114,0.872-0.268,1.122-0.852c0.25-0.585,0.152-1.152-0.219-1.267
					c-0.37-0.114-0.872,0.268-1.122,0.852S9.227,24.046,9.597,24.161z"/>
			</g>
			
				<ellipse transform="matrix(0.4463 -0.8949 0.8949 0.4463 -4.0881 32.3737)" class="st37" cx="24.117" cy="19.49" rx="2.551" ry="1.536"/>
			<path class="st31" d="M23.358,21.963c0.818,0.253,1.927-0.59,2.477-1.882c0.551-1.292,0.335-2.544-0.483-2.796
				c-0.818-0.253-1.927,0.59-2.477,1.882C22.324,20.459,22.54,21.712,23.358,21.963z"/>
			<path class="st39" d="M23.675,21.22c0.557,0.172,1.314-0.402,1.69-1.284c0.375-0.88,0.227-1.734-0.329-1.907
				c-0.557-0.172-1.314,0.402-1.69,1.284C22.97,20.194,23.118,21.048,23.675,21.22z"/>
			<path class="st36" d="M23.912,21.351c0.557,0.172,1.314-0.402,1.69-1.284c0.375-0.88,0.227-1.734-0.329-1.907
				c-0.557-0.172-1.314,0.402-1.69,1.284C23.207,20.324,23.355,21.178,23.912,21.351z"/>
			<polygon class="st34" points="27.742,30.908 31.347,32.973 39.396,28.367 36.703,25.836 			"/>
			<polygon class="st36" points="28.346,31.254 29.939,32.14 29.942,33.523 38.742,28.5 36.719,26.474 			"/>
			<polygon class="st32" points="38.75,27.112 38.742,28.5 36.719,26.474 36.703,25.836 			"/>
			<polygon class="st31" points="29.631,31.001 31.069,32.473 38.132,28.434 36.628,26.979 			"/>
			<polygon class="st37" points="29.705,31.077 31.069,32.473 38.045,28.484 36.617,27.103 			"/>
			<g>
				<path class="st31" d="M28.757,34.224c0.128,0.039,0.301-0.092,0.388-0.294c0.087-0.202,0.053-0.398-0.075-0.438
					c-0.128-0.039-0.301,0.092-0.388,0.294C28.595,33.989,28.629,34.185,28.757,34.224z"/>
				<path class="st38" d="M28.854,34.224c0.095-0.024,0.197-0.114,0.265-0.241c0.027-0.145-0.029-0.282-0.127-0.31
					c-0.103-0.029-0.216,0.07-0.253,0.223C28.704,34.046,28.756,34.19,28.854,34.224z"/>
				<path class="st39" d="M28.806,34.107c0.088,0.027,0.205-0.063,0.265-0.201c0.059-0.138,0.036-0.272-0.052-0.299
					c-0.088-0.027-0.205,0.063-0.265,0.201C28.696,33.947,28.72,34.081,28.806,34.107z"/>
				<path class="st36" d="M28.844,34.128c0.088,0.027,0.205-0.063,0.265-0.201c0.059-0.138,0.036-0.272-0.052-0.299
					c-0.088-0.027-0.205,0.063-0.265,0.201C28.734,33.968,28.757,34.102,28.844,34.128z"/>
				<path class="st31" d="M28.188,34.55c0.128,0.039,0.301-0.092,0.388-0.294s0.053-0.398-0.075-0.438
					c-0.128-0.039-0.301,0.092-0.388,0.294S28.06,34.509,28.188,34.55z"/>
				<path class="st38" d="M28.284,34.55c0.095-0.024,0.197-0.114,0.265-0.241c0.027-0.145-0.029-0.282-0.127-0.31
					c-0.103-0.029-0.216,0.07-0.253,0.223C28.135,34.37,28.187,34.515,28.284,34.55z"/>
				<path class="st39" d="M28.237,34.432c0.088,0.027,0.206-0.063,0.265-0.201c0.059-0.138,0.036-0.272-0.052-0.299
					c-0.088-0.027-0.205,0.063-0.265,0.201C28.127,34.272,28.15,34.406,28.237,34.432z"/>
				<path class="st36" d="M28.275,34.453c0.088,0.027,0.206-0.063,0.265-0.201s0.036-0.272-0.052-0.299
					c-0.088-0.027-0.205,0.063-0.265,0.201C28.164,34.293,28.187,34.425,28.275,34.453z"/>
				<path class="st38" d="M27.715,34.875c0.095-0.024,0.197-0.114,0.265-0.241c0.027-0.145-0.029-0.282-0.127-0.31
					c-0.103-0.029-0.216,0.07-0.253,0.223C27.566,34.695,27.616,34.84,27.715,34.875z"/>
				<g>
					<path class="st31" d="M27.617,34.875c0.128,0.039,0.301-0.092,0.388-0.294c0.087-0.202,0.053-0.398-0.075-0.438
						c-0.128-0.039-0.301,0.092-0.388,0.294C27.456,34.639,27.49,34.834,27.617,34.875z"/>
					<path class="st39" d="M27.668,34.757c0.088,0.027,0.206-0.063,0.265-0.201s0.036-0.272-0.052-0.299
						c-0.088-0.027-0.205,0.063-0.265,0.201C27.557,34.597,27.58,34.731,27.668,34.757z"/>
					<path class="st36" d="M27.705,34.778c0.088,0.027,0.206-0.063,0.265-0.201c0.059-0.138,0.036-0.272-0.052-0.299
						c-0.088-0.027-0.206,0.063-0.265,0.201C27.594,34.617,27.617,34.75,27.705,34.778z"/>
				</g>
				<g>
					<g>
						<path class="st31" d="M27.037,35.232c0.128,0.039,0.301-0.092,0.388-0.294c0.087-0.202,0.053-0.398-0.075-0.438
							c-0.128-0.039-0.301,0.092-0.388,0.294C26.875,34.996,26.909,35.193,27.037,35.232z"/>
						<path class="st38" d="M27.133,35.233c0.095-0.024,0.197-0.114,0.265-0.241c0.027-0.145-0.029-0.282-0.127-0.31
							c-0.103-0.029-0.216,0.07-0.253,0.223C26.984,35.053,27.036,35.197,27.133,35.233z"/>
						<path class="st39" d="M27.086,35.116c0.088,0.027,0.205-0.063,0.265-0.201c0.059-0.138,0.036-0.272-0.052-0.299
							c-0.088-0.027-0.206,0.063-0.265,0.201C26.976,34.956,26.999,35.088,27.086,35.116z"/>
						<path class="st36" d="M27.124,35.136c0.088,0.027,0.206-0.063,0.265-0.201c0.059-0.138,0.036-0.272-0.052-0.299
							c-0.088-0.027-0.205,0.063-0.265,0.201C27.013,34.975,27.036,35.109,27.124,35.136z"/>
					</g>
					<g>
						<path class="st31" d="M26.466,35.557c0.128,0.039,0.301-0.092,0.388-0.294c0.087-0.202,0.053-0.398-0.075-0.438
							c-0.128-0.039-0.301,0.092-0.388,0.294C26.305,35.321,26.339,35.518,26.466,35.557z"/>
						<path class="st38" d="M26.564,35.557c0.095-0.024,0.197-0.114,0.265-0.241c0.027-0.145-0.029-0.282-0.127-0.31
							c-0.103-0.029-0.216,0.07-0.253,0.223C26.415,35.378,26.466,35.522,26.564,35.557z"/>
						<path class="st39" d="M26.517,35.44c0.088,0.027,0.206-0.063,0.265-0.201s0.036-0.272-0.052-0.299
							c-0.088-0.027-0.205,0.063-0.265,0.201C26.406,35.279,26.429,35.413,26.517,35.44z"/>
						<path class="st36" d="M26.554,35.461c0.088,0.027,0.206-0.063,0.265-0.201s0.036-0.272-0.052-0.299
							c-0.088-0.027-0.205,0.063-0.265,0.201C26.444,35.3,26.466,35.434,26.554,35.461z"/>
					</g>
					<g>
						<path class="st31" d="M25.897,35.882c0.128,0.039,0.301-0.092,0.388-0.294c0.087-0.202,0.053-0.398-0.075-0.438
							c-0.128-0.039-0.301,0.092-0.388,0.294C25.735,35.646,25.769,35.842,25.897,35.882z"/>
						<path class="st38" d="M25.995,35.882c0.095-0.024,0.197-0.114,0.265-0.241c0.027-0.145-0.029-0.282-0.127-0.31
							c-0.103-0.029-0.216,0.07-0.253,0.223C25.845,35.702,25.896,35.847,25.995,35.882z"/>
						<path class="st39" d="M25.947,35.765c0.088,0.027,0.206-0.063,0.265-0.201c0.059-0.138,0.036-0.272-0.052-0.299
							c-0.088-0.027-0.206,0.063-0.265,0.201C25.837,35.604,25.859,35.738,25.947,35.765z"/>
						<path class="st36" d="M25.984,35.786c0.088,0.027,0.205-0.063,0.265-0.201c0.059-0.138,0.036-0.272-0.052-0.299
							c-0.088-0.027-0.206,0.063-0.265,0.201C25.873,35.625,25.897,35.759,25.984,35.786z"/>
					</g>
				</g>
				<g>
					<path class="st31" d="M25.328,36.222c0.128,0.039,0.301-0.092,0.388-0.294c0.087-0.202,0.053-0.398-0.075-0.438
						c-0.128-0.039-0.301,0.092-0.388,0.294C25.166,35.987,25.201,36.182,25.328,36.222z"/>
					<path class="st39" d="M25.378,36.105c0.088,0.027,0.205-0.063,0.265-0.201c0.059-0.138,0.036-0.272-0.052-0.299
						c-0.088-0.027-0.206,0.063-0.265,0.201C25.268,35.945,25.29,36.079,25.378,36.105z"/>
					<path class="st36" d="M25.416,36.126c0.088,0.027,0.205-0.063,0.265-0.201c0.059-0.138,0.036-0.272-0.052-0.299
						c-0.088-0.027-0.205,0.063-0.265,0.201C25.306,35.964,25.328,36.098,25.416,36.126z"/>
				</g>
			</g>
			<polygon class="st33" points="25.525,40.513 25.54,37.05 38.645,29.549 38.63,33.013 			"/>
			<polygon class="st34" points="25.635,40.622 25.649,37.159 38.754,29.658 38.739,33.122 			"/>
		</g>
	</g>
	<g id="Claw">
		<path class="st36" d="M7.733,25.871c-0.423-0.981-1.614-0.735-2.661,0.546c-0.456,0.559-0.811,1.224-1.028,1.875
			c0.082-0.068,0.163-0.13,0.244-0.183c0.16-0.329,0.36-0.649,0.593-0.933c0.844-1.034,1.805-1.231,2.147-0.439
			c0.34,0.791-0.067,2.27-0.911,3.304c-0.233,0.285-0.474,0.506-0.71,0.661c-0.054,0.113-0.114,0.225-0.179,0.335
			c0.435-0.149,0.919-0.511,1.377-1.069C7.65,28.685,8.155,26.851,7.733,25.871z"/>
		<path class="st39" d="M4.211,28.162c0.027-0.018,0.052-0.036,0.077-0.053c0.16-0.329,0.36-0.649,0.593-0.933
			c0.844-1.034,1.805-1.231,2.147-0.439c0.027,0.06,0.047,0.124,0.066,0.191c0.325,0.795-0.082,2.259-0.919,3.284
			c-0.233,0.285-0.474,0.506-0.71,0.661c-0.014,0.028-0.028,0.057-0.042,0.085c0.384-0.18,0.792-0.512,1.183-0.991
			c0.974-1.193,1.48-2.866,1.204-3.882c-0.006-0.014-0.011-0.028-0.018-0.042c-0.423-0.981-1.614-0.735-2.661,0.546
			C4.743,27.061,4.43,27.61,4.211,28.162z"/>
		<path class="st39" d="M6.942,26.477c0.272,0.084,0.643-0.197,0.826-0.628c0.184-0.431,0.112-0.848-0.16-0.932
			c-0.272-0.084-0.643,0.197-0.826,0.628C6.597,25.974,6.669,26.392,6.942,26.477z"/>
		<path class="st36" d="M7.059,26.54c0.272,0.084,0.643-0.197,0.826-0.628c0.184-0.431,0.112-0.848-0.16-0.932
			c-0.272-0.084-0.643,0.197-0.826,0.628C6.714,26.039,6.785,26.456,7.059,26.54z"/>
		<path class="st39" d="M7.239,26.117c0.124,0.039,0.293-0.089,0.378-0.287c0.084-0.197,0.052-0.388-0.074-0.426
			c-0.124-0.039-0.294,0.089-0.378,0.287C7.081,25.887,7.115,26.078,7.239,26.117z"/>
		<path class="st40" d="M7.502,25.397c-0.119-0.004-0.262,0.117-0.336,0.293c-0.06,0.14-0.06,0.275-0.011,0.357
			c0.119,0.004,0.262-0.117,0.338-0.294C7.55,25.614,7.551,25.478,7.502,25.397z"/>
	</g>
</g>
</svg>
