<?xml version="1.0" encoding="utf-8"?>
<!-- Generator: Adobe Illustrator 25.4.1, SVG Export Plug-In . SVG Version: 6.00 Build 0)  -->
<svg version="1.1" id="Layer_1" xmlns="http://www.w3.org/2000/svg" xmlns:xlink="http://www.w3.org/1999/xlink" x="0px" y="0px"
	 viewBox="0 0 50 50" style="enable-background:new 0 0 50 50;" xml:space="preserve">
<style type="text/css">
	.st0{display:none;}
	.st1{display:inline;}
	.st2{fill:#344593;}
	.st3{fill:#3E54A3;}
	.st4{fill:#2E4490;}
	.st5{fill:#122571;}
	.st6{opacity:0.5;fill:#031F60;enable-background:new    ;}
	.st7{fill:#BBDFFF;}
	.st8{fill:#FDB724;}
	.st9{fill:#E7478D;}
	.st10{fill:#BF2878;}
	.st11{fill:#27DEBF;}
	.st12{fill:#1BBC9D;}
	.st13{fill:#A33D64;}
	.st14{fill:#82294D;}
	.st15{fill:#0A4A80;}
	.st16{fill:#F1FCFF;}
	.st17{fill:#D6E6FF;}
	.st18{fill:#CEF3FF;}
	.st19{fill:#606060;}
	.st20{enable-background:new    ;}
	.st21{fill:#F19729;}
	.st22{fill:#FCB040;}
	.st23{fill:#FFCB49;}
	.st24{fill:#2E5677;}
	.st25{fill:#FF51CE;}
	.st26{fill:#EDE6A0;}
	.st27{fill:#FFF7B0;}
	.st28{fill:url(#SVGID_1_);}
	.st29{fill:url(#SVGID_00000149350167970870304820000017173334782322435234_);}
	.st30{display:none;fill:#FF0000;}
	.st31{fill:#57A8DD;}
	.st32{fill:#F4F4F4;}
	.st33{fill:#B2D2E8;}
	.st34{fill:#7CB7D8;}
	.st35{fill:#01384D;}
	.st36{fill:#255468;}
	.st37{fill:#FFFFFF;}
	.st38{fill:#84C2EB;}
	.st39{fill:#1E0F00;}
	.st40{fill:#009BD1;}
	.st41{fill:#535B5B;}
	.st42{fill:#2F3F44;}
	.st43{fill:#3F4B4C;}
	.st44{fill:#C5C5C5;}
	.st45{fill:#324144;}
	.st46{fill:#FF6666;}
	.st47{fill:#E86464;}
	.st48{fill:#D35353;}
</style>
<g id="Example" class="st0">
	<g class="st1">
		<g id="XMLID_4903_">
			<path id="XMLID_4905_" class="st2" d="M45.3,33.2v-4.6l0,0c0-0.9-0.6-1.8-1.7-2.4c-2.3-1.3-6-1.3-8.4,0c-1.2,0.7-1.7,1.6-1.7,2.4
				l0,0v4.5c0,0.9,0.6,1.8,1.7,2.4c2.3,1.3,6,1.3,8.4,0C44.8,34.9,45.3,34.1,45.3,33.2L45.3,33.2L45.3,33.2L45.3,33.2z"/>
			<path id="XMLID_4904_" class="st2" d="M45.3,33.2v-4.6l0,0c0-0.9-0.6-1.8-1.7-2.4c-2.3-1.3-6-1.3-8.4,0c-1.2,0.7-1.7,1.6-1.7,2.4
				l0,0v4.5c0,0.9,0.6,1.8,1.7,2.4c2.3,1.3,6,1.3,8.4,0C44.8,34.9,45.3,34.1,45.3,33.2L45.3,33.2L45.3,33.2L45.3,33.2z"/>
		</g>
		<polygon id="XMLID_4900_" class="st3" points="39.4,23 29.7,28.6 39.4,34.2 49.2,28.6 		"/>
		<path id="XMLID_4899_" class="st4" d="M44.3,31.4l-4.8-2.7c-0.1,0-0.2,0-0.2,0.1s0,0.2,0.1,0.2l4.6,2.6L44.3,31.4z"/>
		<polygon id="XMLID_4896_" class="st5" points="29.7,28.6 29.7,29 39.4,34.6 39.4,34.2 		"/>
		<polygon id="XMLID_4883_" class="st4" points="49.2,28.6 49.2,29 39.4,34.6 39.4,34.2 		"/>
		<polygon id="XMLID_4876_" class="st6" points="33.5,31.2 39.4,35.2 45.3,31.2 39.4,34.6 		"/>
		<g id="XMLID_4823_">
			<path id="XMLID_4835_" class="st7" d="M44.7,36.2c-0.1,0-0.2-0.1-0.2-0.2v-4c0-0.2-0.1-0.4-0.3-0.4l-4.9-2.8
				c-0.1,0-0.1-0.2-0.1-0.2c0-0.1,0.2-0.1,0.2-0.1l4.9,2.8c0.3,0.2,0.4,0.4,0.4,0.7v4C44.8,36.1,44.7,36.2,44.7,36.2z"/>
		</g>
		<path class="st8" d="M45.3,39.3L45,36.6c0.1-0.1,0.1-0.2,0-0.2l0,0l0,0l0,0v-0.1l0,0l0,0l0,0c0-0.2-0.2-0.4-0.4-0.4c0,0,0,0-0.1,0
			l0,0l0,0c0,0,0,0-0.1,0c0,0,0,0-0.1,0c0,0,0,0-0.1,0c0,0,0,0,0,0.1l0,0v0.1c0,0.1,0,0.2,0.1,0.3l0,0c-0.1,0.1,0,0.2,0,0.2L44,39.3
			c0,0.1,0.1,0.2,0.3,0.3l0,0h0.1l0,0c0.1,0,0.2,0.1,0.3,0.1l0,0l0,0l0,0l0,0l0,0c0.1,0,0.2,0,0.3-0.1l0,0h0.1l0,0
			C45.3,39.5,45.3,39.4,45.3,39.3z"/>
	</g>
	<g id="XMLID_3738_" class="st1">
		<path id="XMLID_4404_" class="st9" d="M12.4,36.1c1.1-0.8,1.8-2.7,1.7-4c-0.1-1.4-1.2-2-1.7-2.3l0,0c-1.1-0.6-2.8-0.6-3.9,0l0,0
			C8,30.1,7,30.7,6.8,32.1c-0.1,1.3,0.6,3.2,1.7,4l0,0c0.1,0,0.1,0.1,0.2,0.1c1,0.6,2.6,0.6,3.6,0l0,0
			C12.3,36.2,12.4,36.1,12.4,36.1L12.4,36.1z"/>
		<path id="XMLID_4395_" class="st10" d="M9.9,30.8c-0.3,0.2-0.3,0.4,0,0.6s0.8,0.2,1.1,0s0.3-0.4,0-0.6
			C10.7,30.6,10.2,30.6,9.9,30.8z"/>
		<g id="XMLID_4426_">
			<path id="XMLID_2198_" class="st11" d="M10.5,31.2c0,0-0.9,0-1.4-0.7s0-1.9,0-1.9s1.1,0.1,1.7,1C11.2,30.4,10.5,31.2,10.5,31.2z"
				/>
			<path id="XMLID_4431_" class="st12" d="M9,30.5c0.5,0.7,1.4,0.7,1.4,0.7C10.3,29.6,9,28.6,9,28.6S8.5,29.8,9,30.5z"/>
		</g>
		<path id="XMLID_4403_" class="st13" d="M10.5,31.2c0,0,0-1.3,0.7-1.9s1.2-0.6,1.2-0.6c0.4,0,0.9,0.4,0.7,0.4c0,0-0.9,0-1.5,0.5
			s-0.9,1.5-0.9,1.6c0,0,0,0.1-0.1,0.1C10.5,31.3,10.5,31.2,10.5,31.2z"/>
		<path id="XMLID_4496_" class="st14" d="M12.4,28.7c-0.1,0-0.1,0.1,0.2,0.3c0.2,0.1,0.4,0.2,0.5,0.2l0,0
			C13.3,29,12.8,28.7,12.4,28.7z"/>
	</g>
	<g class="st1">
		<g>
			<path class="st15" d="M26,28.8L26,28.8c-1,0.6-1.9,1-2.8,1.2l0,0c0,0,0,0-0.1,0l-0.5,0.2h-0.1c-0.1,0-0.2,0.1-0.3,0.1h-0.1
				c-0.1,0-0.2,0.1-0.2,0.1h-0.1c-0.5,0.2-0.9,0.4-1.4,0.7c-0.1,0.1-0.2,0.1-0.3,0.2L20,31.4c-0.4,0.3-2,1.5-2.9,2.5l-0.6,0.6
				L16,34.6c-1,0.2-2,0.5-3,1.1c-0.1,0.1-0.2,0.1-0.3,0.2c-0.3,0.2-0.5,0.3-0.8,0.5l0,0l-0.1,0.1c-0.1,0.1-0.2,0.1-0.3,0.2l0,0l0,0
				c-0.4,0.3-0.9,0.7-1.3,1.1c-0.1,0.1-0.2,0.2-0.3,0.3c-0.3,0.3-0.7,0.6-1,0.9H8.8c-0.3,0.3-0.7,0.5-1,0.8
				c-0.2,0.2-0.5,0.3-0.7,0.5H7l13.7,8.3h0.1c0.8-0.5,1.7-1.2,2.5-1.9c0.5-0.5,1.1-0.9,1.7-1.4c1.2-0.9,2.3-1.5,3.2-1.8
				c0.7-0.3,1.4-0.5,2.1-0.6l0.5-0.6c0.7-0.7,1.5-1.3,2.4-1.8c1.5-1,3.2-1.8,4.9-2.5c0.6-0.2,1.2-0.5,1.6-0.7l0.2-0.1L26,28.8z"/>
			<g>
				<g>
					<g>
						<path class="st16" d="M39.1,36.7c-0.5,0.3-0.7,0.4-1.2,0.6c-0.3,0.1-0.5,0.2-0.8,0.3c-0.2,0.1-0.3,0.1-0.5,0.1
							c-0.7,0.2-1.4,0.4-2,0.8c-0.2,0.1-0.4,0.2-0.6,0.3c-1.3,0.8-2.6,2-3.9,3.5l-2.5-1.5l-11-6.7c1.3-1.5,2.6-2.7,3.9-3.5
							c0.2-0.1,0.4-0.2,0.6-0.3c0.7-0.4,1.4-0.6,2-0.8c0.2,0,0.3-0.1,0.5-0.1c0.3-0.1,0.5-0.2,0.8-0.3c0.5-0.2,0.7-0.3,1.2-0.6
							L39.1,36.7z"/>
						<g>
							<path class="st16" d="M30.1,42.3c-1.3,0.1-2.6,0.5-3.9,1.3c-0.2,0.1-0.4,0.2-0.6,0.4c-0.7,0.5-1.4,1-2,1.7
								c-0.2,0.2-0.3,0.3-0.5,0.4c-0.3,0.3-0.6,0.5-0.9,0.7c-0.5,0.4-0.8,0.6-1.3,0.9L7.5,39.5C8,39.2,8.3,39,8.8,38.6
								c0.3-0.2,0.6-0.5,0.9-0.7c0.2-0.1,0.3-0.3,0.5-0.4c0.7-0.6,1.4-1.2,2-1.7c0.2-0.1,0.4-0.3,0.6-0.4c1.3-0.8,2.6-1.2,3.9-1.3
								l11,6.7L30.1,42.3z"/>
						</g>
					</g>
					<polygon class="st17" points="7.5,39.5 7.3,40.3 20.7,48.5 20.9,47.7 					"/>
					<path class="st18" d="M39.4,37.1c-0.9,0.6-1.8,1-2.7,1.2c0,0,0,0-0.1,0s-0.2,0-0.3,0.1c-0.1,0-0.2,0.1-0.3,0.1
						s-0.2,0.1-0.3,0.1c-0.6,0.2-1.2,0.5-1.8,0.9c-0.1,0.1-0.2,0.1-0.3,0.2c-1,0.7-2,1.5-3,2.5L30,42.8l-0.6,0.1c-1,0.2-2,0.5-3,1.1
						c-0.1,0.1-0.2,0.1-0.3,0.2c-0.3,0.2-0.5,0.3-0.8,0.5c-0.6,0.4-1.1,0.9-1.7,1.4c-0.1,0.1-0.2,0.2-0.3,0.3
						c-0.9,0.9-1.8,1.6-2.7,2.2l0.2-0.8c0.5-0.3,0.8-0.5,1.3-0.9c0.3-0.2,0.6-0.5,0.9-0.7c0.2-0.1,0.3-0.3,0.5-0.4
						c0.7-0.6,1.4-1.2,2-1.7c0.2-0.1,0.4-0.3,0.6-0.4c1.3-0.8,2.6-1.2,3.9-1.3c1.3-1.5,2.6-2.7,3.9-3.5c0.2-0.1,0.4-0.2,0.6-0.3
						c0.7-0.4,1.4-0.6,2-0.8c0.2,0,0.3-0.1,0.5-0.1c0.3-0.1,0.5-0.2,0.8-0.3c0.5-0.2,0.7-0.3,1.2-0.6L39.4,37.1z"/>
				</g>
			</g>
			<g>
				<path class="st19" d="M17.8,34.6C17.9,34.6,17.9,34.6,17.8,34.6c1.2-1.4,2.5-2.5,3.7-3.2c0.2-0.1,0.4-0.2,0.5-0.3
					c0.7-0.3,1.3-0.6,2-0.8c0.2,0,0.3-0.1,0.5-0.1c0.3-0.1,0.5-0.2,0.8-0.3c0.4-0.2,0.7-0.3,1.1-0.5c0,0,0,0,0-0.1s0,0-0.1,0
					c-0.4,0.2-0.6,0.3-1,0.5c-0.3,0.1-0.5,0.2-0.8,0.3c-0.2,0.1-0.3,0.1-0.5,0.1c-0.7,0.2-1.3,0.4-2,0.8c-0.2,0.1-0.4,0.2-0.6,0.3
					C20.3,32.1,19,33.2,17.8,34.6C17.8,34.5,17.8,34.6,17.8,34.6L17.8,34.6z"/>
				<path class="st19" d="M25.4,30.6c-0.2,0.1-0.3,0.1-0.5,0.1c-0.7,0.2-1.3,0.4-2,0.8c-0.2,0.1-0.4,0.2-0.6,0.3
					c-1.2,0.7-2.5,1.8-3.7,3.2v0.1l0,0l0,0c1.2-1.4,2.5-2.5,3.7-3.2c0.2-0.1,0.4-0.2,0.6-0.3c0.7-0.4,1.3-0.6,2-0.8
					C25.1,30.8,25.3,30.7,25.4,30.6c0.3,0,0.6-0.1,0.8-0.2c0.4-0.2,0.6-0.3,1-0.5c0,0,0,0,0-0.1c0,0,0,0-0.1,0
					c-0.4,0.2-0.6,0.3-1,0.5C25.9,30.4,25.7,30.5,25.4,30.6z"/>
				<path class="st19" d="M26.2,31.1c-0.2,0.1-0.3,0.1-0.5,0.1c-0.7,0.2-1.3,0.4-2,0.8c-0.2,0.1-0.4,0.2-0.6,0.3
					c-1.2,0.7-2.5,1.8-3.7,3.2v0.1l0,0l0,0c1.2-1.4,2.5-2.5,3.7-3.2c0.2-0.1,0.4-0.2,0.6-0.3c0.7-0.4,1.4-0.6,2-0.8
					C25.9,31.3,26.1,31.2,26.2,31.1c0.3,0,0.6-0.1,0.8-0.2c0.4-0.2,0.6-0.3,1-0.5c0,0,0,0,0-0.1c0,0,0,0-0.1,0
					c-0.4,0.2-0.6,0.3-1,0.5C26.8,30.9,26.5,31,26.2,31.1z"/>
				<path class="st19" d="M27.1,31.5c-0.2,0.1-0.3,0.1-0.5,0.1c-0.7,0.2-1.3,0.4-2,0.8c-0.2,0.1-0.4,0.2-0.6,0.3
					c-1.2,0.7-2.5,1.8-3.7,3.2V36l0,0l0,0c1.2-1.4,2.5-2.5,3.7-3.2c0.2-0.1,0.4-0.2,0.6-0.3c0.7-0.4,1.4-0.6,2-0.8
					C26.7,31.7,26.9,31.7,27.1,31.5c0.3,0,0.6-0.1,0.8-0.2c0.4-0.2,0.6-0.3,1-0.5c0,0,0,0,0-0.1c0,0,0,0-0.1,0
					c-0.4,0.2-0.6,0.3-1,0.5C27.6,31.4,27.3,31.5,27.1,31.5z"/>
				<path class="st19" d="M27.9,32c-0.2,0.1-0.3,0.1-0.5,0.1c-0.7,0.2-1.4,0.4-2,0.8c-0.2,0.1-0.4,0.2-0.6,0.3
					c-1.2,0.7-2.5,1.9-3.7,3.2v0.1l0,0l0,0c1.2-1.4,2.5-2.5,3.7-3.2c0.2-0.1,0.4-0.2,0.6-0.3c0.7-0.4,1.4-0.6,2-0.8
					C27.6,32.2,27.8,32.2,27.9,32c0.3,0,0.6-0.1,0.8-0.2c0.4-0.2,0.6-0.3,1-0.5c0,0,0,0,0-0.1c0,0,0,0-0.1,0c-0.4,0.2-0.6,0.3-1,0.5
					C28.4,31.8,28.1,31.9,27.9,32z"/>
				<path class="st19" d="M28.7,32.5c-0.2,0.1-0.3,0.1-0.5,0.1c-0.7,0.2-1.4,0.4-2,0.8c-0.2,0.1-0.4,0.2-0.6,0.3
					c-1.2,0.7-2.5,1.9-3.7,3.2V37l0,0l0,0c1.2-1.4,2.5-2.5,3.7-3.2c0.2-0.1,0.4-0.2,0.6-0.3c0.7-0.4,1.4-0.6,2-0.8
					C28.4,32.7,28.6,32.6,28.7,32.5c0.3,0,0.6-0.1,0.8-0.2c0.4-0.2,0.6-0.3,1-0.5c0,0,0,0,0-0.1c0,0,0,0-0.1,0
					c-0.3,0.2-0.6,0.3-0.9,0.5C29.2,32.3,29,32.4,28.7,32.5z"/>
				<path class="st19" d="M29.6,33c-0.2,0.1-0.3,0.1-0.5,0.1c-0.7,0.2-1.4,0.4-2.1,0.8c-0.2,0.1-0.4,0.2-0.6,0.3
					c-1.2,0.7-2.5,1.9-3.8,3.3v0.1l0,0l0,0c1.2-1.4,2.5-2.5,3.7-3.2c0.2-0.1,0.4-0.2,0.6-0.3c0.7-0.4,1.4-0.6,2-0.8
					C29.2,33.2,29.4,33.1,29.6,33c0.3,0,0.6-0.1,0.8-0.2c0.4-0.2,0.6-0.3,0.9-0.5c0,0,0,0,0-0.1c0,0,0,0-0.1,0
					c-0.3,0.2-0.5,0.3-0.9,0.4C30.1,32.8,29.8,32.9,29.6,33z"/>
				<path class="st19" d="M30.4,33.5c-0.2,0.1-0.3,0.1-0.5,0.1c-0.7,0.2-1.4,0.4-2.1,0.8c-0.2,0.1-0.4,0.2-0.6,0.3
					c-1.2,0.7-2.5,1.9-3.8,3.3v0.1l0,0l0,0c1.2-1.4,2.5-2.5,3.7-3.2c0.2-0.1,0.4-0.2,0.6-0.3c0.7-0.4,1.4-0.6,2-0.8
					C30.1,33.7,30.2,33.6,30.4,33.5c0.3,0,0.5-0.1,0.8-0.2c0.4-0.2,0.6-0.3,0.9-0.4c0,0,0,0,0-0.1c0,0,0,0-0.1,0
					c-0.3,0.2-0.5,0.3-0.9,0.4C30.9,33.3,30.6,33.4,30.4,33.5z"/>
				<path class="st19" d="M31.2,33.9C31,34,30.9,34,30.7,34.1c-0.7,0.2-1.4,0.4-2.1,0.8c-0.2,0.1-0.4,0.2-0.6,0.3
					c-1.2,0.7-2.5,1.9-3.8,3.3v0.1l0,0l0,0c1.2-1.4,2.5-2.5,3.8-3.3c0.2-0.1,0.4-0.2,0.6-0.3c0.7-0.4,1.4-0.6,2-0.8
					C30.9,34.1,31.1,34.1,31.2,33.9c0.3,0,0.5-0.1,0.8-0.2c0.4-0.2,0.6-0.2,0.9-0.4c0,0,0,0,0-0.1c0,0,0,0-0.1,0
					c-0.3,0.2-0.5,0.3-0.9,0.4C31.7,33.8,31.5,33.9,31.2,33.9z"/>
				<path class="st19" d="M32,34.4c-0.2,0.1-0.3,0.1-0.5,0.1c-0.7,0.2-1.4,0.4-2.1,0.8c-0.2,0.1-0.4,0.2-0.6,0.3
					c-1.2,0.7-2.6,1.9-3.8,3.3V39l0,0l0,0c1.2-1.4,2.5-2.5,3.8-3.3c0.2-0.1,0.4-0.2,0.6-0.3c0.7-0.4,1.4-0.6,2-0.8
					C31.7,34.6,31.9,34.6,32,34.4c0.3,0,0.5-0.1,0.8-0.2c0.4-0.2,0.6-0.2,0.9-0.4c0,0,0,0,0-0.1c0,0,0,0-0.1,0
					c-0.3,0.2-0.5,0.3-0.9,0.4C32.6,34.2,32.3,34.3,32,34.4z"/>
				<path class="st19" d="M32.9,34.9C32.7,35,32.6,35,32.4,35c-0.7,0.2-1.4,0.4-2.1,0.8c-0.2,0.1-0.4,0.2-0.6,0.3
					c-1.2,0.8-2.6,1.9-3.8,3.3v0.1l0,0l0,0c1.2-1.4,2.5-2.5,3.8-3.3c0.2-0.1,0.4-0.2,0.6-0.3c0.7-0.4,1.4-0.6,2.1-0.8
					C32.6,35.1,32.7,35,32.9,34.9c0.3,0,0.5-0.1,0.8-0.2c0.3-0.1,0.6-0.2,0.9-0.4c0,0,0,0,0-0.1c0,0,0,0-0.1,0
					c-0.3,0.2-0.5,0.3-0.8,0.4C33.4,34.7,33.1,34.8,32.9,34.9z"/>
				<path class="st19" d="M33.7,35.4c-0.2,0.1-0.3,0.1-0.5,0.1c-0.7,0.2-1.4,0.4-2.1,0.8c-0.2,0.1-0.4,0.2-0.6,0.3
					c-1.2,0.8-2.6,1.9-3.8,3.3V40l0,0l0,0c1.2-1.4,2.6-2.5,3.8-3.3c0.2-0.1,0.4-0.2,0.6-0.3c0.7-0.4,1.4-0.6,2.1-0.8
					C33.4,35.6,33.6,35.5,33.7,35.4c0.3,0,0.5-0.1,0.8-0.2c0.3-0.1,0.5-0.2,0.8-0.4c0,0,0,0,0-0.1c0,0,0,0-0.1,0
					c-0.3,0.2-0.5,0.3-0.8,0.4C34.2,35.2,34,35.3,33.7,35.4z"/>
				<path class="st19" d="M34.5,35.8c-0.2,0.1-0.3,0.1-0.5,0.1c-0.7,0.2-1.4,0.4-2.1,0.8c-0.2,0.1-0.4,0.2-0.6,0.3
					c-1.3,0.8-2.6,1.9-3.8,3.3v0.1l0,0l0,0c1.2-1.4,2.6-2.6,3.8-3.3c0.2-0.1,0.4-0.2,0.6-0.3c0.7-0.4,1.4-0.6,2.1-0.8
					C34.2,36,34.4,36,34.5,35.8c0.3,0,0.5-0.1,0.8-0.2c0.3-0.1,0.5-0.2,0.8-0.4c0,0,0,0,0-0.1c0,0,0,0-0.1,0
					c-0.3,0.2-0.5,0.2-0.8,0.4C35,35.7,34.8,35.8,34.5,35.8z"/>
				<path class="st19" d="M35.4,36.3c-0.2,0.1-0.3,0.1-0.5,0.1c-0.7,0.2-1.4,0.4-2.1,0.8c-0.2,0.1-0.4,0.2-0.6,0.3
					c-1.3,0.8-2.6,1.9-3.8,3.3v0.1l0,0l0,0c1.3-1.4,2.6-2.6,3.8-3.3c0.2-0.1,0.4-0.2,0.6-0.3c0.7-0.4,1.4-0.6,2.1-0.8
					C35.1,36.5,35.2,36.5,35.4,36.3c0.3,0,0.5-0.1,0.8-0.2c0.3-0.1,0.5-0.2,0.8-0.4c0,0,0,0,0-0.1c0,0,0,0-0.1,0
					c-0.2,0.1-0.4,0.2-0.8,0.4C35.9,36.2,35.6,36.2,35.4,36.3z"/>
				<path class="st19" d="M37.7,36.2c-0.3,0.1-0.5,0.2-0.8,0.4c-0.3,0.1-0.5,0.2-0.8,0.3C35.9,37,35.8,37,35.6,37
					c-0.7,0.2-1.4,0.4-2.1,0.8c-0.2,0.1-0.4,0.2-0.6,0.3c-1.3,0.8-2.6,1.9-3.9,3.3v0.1l0,0l0,0c1.3-1.4,2.6-2.6,3.8-3.3
					c0.2-0.1,0.4-0.2,0.6-0.3c0.7-0.4,1.4-0.6,2.1-0.8c0.2,0,0.3-0.1,0.5-0.1c0.2-0.1,0.5-0.2,0.8-0.3
					C37.3,36.5,37.5,36.4,37.7,36.2C37.8,36.3,37.8,36.2,37.7,36.2C37.8,36.2,37.7,36.2,37.7,36.2z"/>
				<path class="st19" d="M10.6,38.6c0.2-0.1,0.3-0.3,0.5-0.4c0.7-0.6,1.3-1.2,2-1.7c0.2-0.1,0.4-0.2,0.6-0.4
					c1.2-0.7,2.5-1.2,3.7-1.3c0,0,0,0,0-0.1c0,0,0,0-0.1,0c-1.2,0.1-2.5,0.5-3.7,1.3c-0.2,0.1-0.4,0.2-0.6,0.4c-0.7,0.5-1.4,1-2,1.7
					C10.9,38.3,10.7,38.4,10.6,38.6c-0.4,0.2-0.7,0.4-0.9,0.7c-0.4,0.3-0.7,0.5-1,0.7c0,0,0,0,0,0.1l0,0l0,0c0.3-0.2,0.6-0.4,1-0.7
					S10.3,38.9,10.6,38.6z"/>
				<path class="st19" d="M11.5,39.1c0.2-0.1,0.3-0.3,0.5-0.4c0.7-0.6,1.3-1.2,2-1.7c0.2-0.1,0.4-0.2,0.6-0.4
					c1.2-0.7,2.5-1.2,3.7-1.2c0,0,0,0,0-0.1c0,0,0-0.1-0.1,0c-1.2,0.1-2.5,0.5-3.7,1.3c-0.2,0.1-0.4,0.2-0.6,0.4
					c-0.7,0.5-1.4,1-2,1.7C11.7,38.8,11.6,38.9,11.5,39.1c-0.4,0.2-0.7,0.4-0.9,0.7c-0.4,0.3-0.7,0.5-1,0.7c0,0,0,0,0,0.1l0,0l0,0
					c0.3-0.2,0.6-0.4,1-0.7C10.9,39.6,11.2,39.4,11.5,39.1z"/>
				<path class="st19" d="M12.3,39.6c0.2-0.1,0.3-0.3,0.5-0.4c0.7-0.6,1.3-1.2,2-1.7c0.2-0.1,0.4-0.3,0.6-0.4
					c1.2-0.7,2.4-1.2,3.6-1.2c0,0,0,0,0-0.1s0,0-0.1,0c-1.2,0.1-2.5,0.5-3.7,1.3c-0.2,0.1-0.4,0.2-0.6,0.4c-0.7,0.5-1.4,1-2,1.7
					C12.5,39.2,12.4,39.4,12.3,39.6c-0.4,0.2-0.7,0.4-0.9,0.7c-0.4,0.3-0.7,0.5-1,0.7c0,0,0,0,0,0.1l0,0l0,0c0.3-0.2,0.6-0.4,1-0.7
					C11.7,40.1,12,39.9,12.3,39.6z"/>
				<path class="st19" d="M13.1,40.1c0.2-0.1,0.3-0.3,0.5-0.4c0.7-0.6,1.3-1.2,2-1.7c0.2-0.1,0.4-0.3,0.6-0.4
					c1.2-0.7,2.4-1.1,3.6-1.2c0,0,0,0,0-0.1c0,0,0,0-0.1,0c-1.2,0.1-2.4,0.5-3.6,1.3c-0.2,0.1-0.4,0.2-0.6,0.4c-0.7,0.5-1.4,1-2,1.7
					C13.3,39.7,13.2,39.9,13.1,40.1c-0.4,0.2-0.6,0.4-0.9,0.7c-0.4,0.3-0.7,0.5-1,0.7c0,0,0,0,0,0.1l0,0l0,0c0.3-0.2,0.6-0.4,1-0.7
					C12.5,40.6,12.8,40.4,13.1,40.1z"/>
				<path class="st19" d="M13.9,40.6c0.2-0.1,0.3-0.3,0.5-0.4c0.7-0.6,1.3-1.2,2-1.7c0.2-0.1,0.4-0.3,0.6-0.4
					c1.2-0.7,2.4-1.1,3.6-1.2c0,0,0,0,0-0.1c0,0,0,0-0.1,0c-1.2,0.1-2.4,0.5-3.6,1.3c-0.2,0.1-0.4,0.2-0.6,0.4c-0.7,0.5-1.4,1-2,1.7
					C14.2,40.2,14,40.4,13.9,40.6c-0.4,0.2-0.6,0.4-0.9,0.7c-0.4,0.3-0.7,0.5-1,0.7c0,0,0,0,0,0.1l0,0l0,0c0.3-0.2,0.6-0.4,1-0.7
					C13.3,41.1,13.6,40.8,13.9,40.6z"/>
				<path class="st19" d="M14.7,41.1c0.2-0.1,0.3-0.3,0.5-0.4c0.7-0.6,1.3-1.2,2-1.7c0.2-0.1,0.4-0.3,0.6-0.4
					c1.2-0.7,2.4-1.1,3.5-1.2c0,0,0,0,0-0.1c0,0,0,0-0.1,0c-1.2,0.1-2.4,0.6-3.6,1.3c-0.2,0.1-0.4,0.2-0.6,0.4c-0.7,0.5-1.4,1-2,1.7
					C15,40.7,14.8,40.8,14.7,41.1c-0.4,0.2-0.6,0.4-0.9,0.7c-0.4,0.3-0.7,0.5-1,0.7c0,0,0,0,0,0.1l0,0l0,0c0.3-0.2,0.6-0.4,1-0.7
					S14.4,41.3,14.7,41.1z"/>
				<path class="st19" d="M15.6,41.5c0.2-0.1,0.3-0.3,0.5-0.4c0.7-0.6,1.3-1.2,2-1.7c0.2-0.1,0.4-0.3,0.6-0.4
					c1.1-0.7,2.4-1.1,3.5-1.2c0,0,0,0,0-0.1s0,0-0.1,0c-1.2,0.1-2.4,0.6-3.5,1.3c-0.2,0.1-0.4,0.2-0.6,0.4c-0.7,0.5-1.4,1-2,1.7
					C15.8,41.2,15.6,41.3,15.6,41.5c-0.4,0.2-0.6,0.4-0.9,0.7c-0.4,0.3-0.7,0.5-1,0.7c0,0,0,0,0,0.1l0,0l0,0c0.3-0.2,0.6-0.4,1-0.7
					C15,42.1,15.3,41.8,15.6,41.5z"/>
				<path class="st19" d="M16.4,42c0.2-0.1,0.3-0.3,0.5-0.4c0.7-0.6,1.3-1.2,2-1.7c0.2-0.1,0.4-0.3,0.6-0.4c1.1-0.7,2.3-1.1,3.5-1.2
					c0,0,0,0,0-0.1s0,0-0.1,0c-1.2,0.1-2.4,0.6-3.5,1.3c-0.2,0.1-0.4,0.2-0.6,0.4c-0.7,0.5-1.4,1-2.1,1.7
					C16.6,41.7,16.5,41.8,16.4,42c-0.4,0.2-0.6,0.4-0.9,0.7c-0.4,0.3-0.7,0.5-1,0.7c0,0,0,0,0,0.1l0,0l0,0c0.3-0.2,0.6-0.4,1.1-0.7
					C15.8,42.5,16.1,42.3,16.4,42z"/>
				<path class="st19" d="M17.2,42.5c0.2-0.1,0.3-0.3,0.5-0.4c0.7-0.6,1.4-1.2,2-1.7c0.2-0.1,0.4-0.3,0.6-0.4
					c1.1-0.7,2.3-1.1,3.4-1.2c0,0,0,0,0-0.1s0,0-0.1,0c-1.1,0.1-2.3,0.6-3.5,1.3c-0.2,0.1-0.4,0.2-0.6,0.4c-0.7,0.5-1.4,1-2.1,1.7
					C17.4,42.2,17.3,42.3,17.2,42.5c-0.4,0.2-0.6,0.4-0.9,0.6c-0.4,0.3-0.7,0.5-1.1,0.7c0,0,0,0,0,0.1l0,0l0,0
					c0.3-0.2,0.6-0.4,1.1-0.8C16.6,43,16.9,42.8,17.2,42.5z"/>
				<path class="st19" d="M18,43c0.2-0.1,0.3-0.3,0.5-0.4c0.7-0.6,1.4-1.2,2-1.7c0.2-0.1,0.4-0.3,0.6-0.4c1.1-0.7,2.3-1.1,3.4-1.2
					c0,0,0,0,0-0.1s0,0-0.1,0c-1.1,0.1-2.3,0.6-3.5,1.3c-0.2,0.1-0.4,0.2-0.6,0.4c-0.7,0.5-1.4,1.1-2.1,1.7
					C18.3,42.6,18.1,42.8,18,43c-0.4,0.2-0.6,0.4-0.9,0.6c-0.4,0.3-0.7,0.6-1.1,0.8c0,0,0,0,0,0.1l0,0l0,0c0.3-0.2,0.7-0.4,1.1-0.8
					C17.4,43.5,17.7,43.3,18,43z"/>
				<path class="st19" d="M18.8,43.5c0.2-0.1,0.3-0.3,0.5-0.4c0.7-0.6,1.4-1.2,2-1.7c0.2-0.1,0.4-0.3,0.6-0.4
					c1.1-0.7,2.3-1.1,3.4-1.2c0,0,0,0,0-0.1c0,0,0,0-0.1,0c-1.1,0.1-2.3,0.6-3.4,1.3c-0.2,0.1-0.4,0.2-0.6,0.4
					c-0.7,0.5-1.4,1.1-2.1,1.7C19.1,43.1,18.9,43.3,18.8,43.5c-0.4,0.2-0.6,0.4-0.9,0.6c-0.4,0.3-0.7,0.6-1.1,0.8c0,0,0,0,0,0.1l0,0
					l0,0c0.3-0.2,0.7-0.4,1.1-0.8C18.3,44,18.5,43.7,18.8,43.5z"/>
				<path class="st19" d="M19.6,44c0.2-0.1,0.3-0.3,0.5-0.4c0.7-0.6,1.4-1.2,2.1-1.7c0.2-0.1,0.4-0.3,0.6-0.4
					c1.1-0.7,2.3-1.1,3.4-1.2c0,0,0,0,0-0.1c0,0,0,0-0.1,0c-1.1,0.2-2.3,0.6-3.4,1.3c-0.2,0.1-0.4,0.2-0.6,0.4
					c-0.7,0.5-1.4,1.1-2.1,1.7C19.9,43.6,19.7,43.8,19.6,44c-0.4,0.2-0.6,0.4-0.9,0.6c-0.4,0.3-0.8,0.6-1.1,0.8c0,0,0,0,0,0.1l0,0
					l0,0c0.3-0.2,0.7-0.4,1.1-0.8C19.1,44.5,19.4,44.2,19.6,44z"/>
				<path class="st19" d="M20.5,44.5c0.2-0.1,0.3-0.3,0.5-0.4c0.7-0.6,1.4-1.2,2.1-1.7c0.2-0.1,0.4-0.3,0.6-0.4
					c1.1-0.7,2.2-1.1,3.3-1.2c0,0,0,0,0-0.1c0,0,0,0-0.1,0c-1.1,0.2-2.3,0.6-3.4,1.3c-0.2,0.1-0.4,0.2-0.6,0.4
					c-0.7,0.5-1.4,1.1-2.1,1.7C20.7,44.1,20.5,44.2,20.5,44.5c-0.4,0.2-0.6,0.4-0.9,0.6c-0.4,0.3-0.8,0.6-1.1,0.8c0,0,0,0,0,0.1l0,0
					l0,0c0.3-0.2,0.7-0.4,1.1-0.8C19.9,45,20.2,44.7,20.5,44.5z"/>
				<path class="st19" d="M21.3,44.9c0.2-0.1,0.3-0.3,0.5-0.4c0.7-0.7,1.4-1.2,2.1-1.7c0.2-0.1,0.4-0.3,0.6-0.4
					c1.1-0.6,2.2-1.1,3.3-1.2c0,0,0,0,0-0.1c0,0,0,0-0.1,0c-1.1,0.2-2.3,0.6-3.3,1.3c-0.2,0.1-0.4,0.2-0.6,0.4
					c-0.7,0.5-1.4,1.1-2.1,1.7C21.5,44.6,21.4,44.7,21.3,44.9c-0.4,0.2-0.6,0.4-0.9,0.6c-0.4,0.3-0.8,0.6-1.1,0.8c0,0,0,0,0,0.1l0,0
					l0,0c0.4-0.2,0.7-0.4,1.1-0.8C20.7,45.4,21,45.2,21.3,44.9z"/>
				<path class="st19" d="M25.2,42.8c-0.2,0.1-0.4,0.2-0.6,0.4c-0.7,0.5-1.4,1.1-2.1,1.7c-0.2,0.1-0.3,0.3-0.5,0.4
					c-0.3,0.3-0.6,0.5-0.9,0.7c-0.4,0.3-0.8,0.6-1.1,0.8c0,0,0,0,0,0.1l0,0l0,0c0.4-0.2,0.7-0.4,1.1-0.8c0.3-0.2,0.6-0.5,0.9-0.7
					c0.2-0.1,0.3-0.3,0.5-0.4c0.7-0.7,1.4-1.2,2.1-1.7C24.8,43.2,25,43,25.2,42.8c1.1-0.6,2.2-1,3.3-1.2c0,0,0,0,0-0.1
					c0,0,0,0-0.1,0C27.4,41.7,26.2,42.2,25.2,42.8z"/>
			</g>
		</g>
		<g>
			<g>
				<g>
					<g>
						<g class="st20">
							<g>
								<path class="st21" d="M29.1,41.9l-7.9-4.6l-0.1-0.1L29.1,41.9L29.1,41.9z"/>
							</g>
							<g>
								<path class="st22" d="M29.2,41.6c-0.1,0.1-0.1,0.1-0.1,0.2l-7.9-4.6l0.1-0.2L29.2,41.6z"/>
							</g>
							<g>
								<path class="st23" d="M29.4,41.5h-0.1c0,0-0.1,0-0.1,0.1l-8-4.6l0.2-0.1L29.4,41.5z"/>
							</g>
						</g>
					</g>
					<g>
						<polygon class="st24" points="30.3,42.2 30.3,42.3 30.3,42.3 30.3,42.3 30.2,42.3 30.3,42.3 						"/>
					</g>
					<path d="M30.3,42.2L30,42l0,0c0,0,0,0-0.1,0l-0.1,0.1l0,0L30.3,42.2C30.3,42.3,30.3,42.3,30.3,42.2
						C30.3,42.3,30.3,42.3,30.3,42.2z"/>
					<path class="st25" d="M21.7,37h-0.1l-0.1,0.1c0,0.1-0.1,0.1-0.1,0.2v0.1L21,37.1c0,0-0.1,0-0.1-0.1s0-0.1,0.1-0.2
						c0-0.1,0.1-0.1,0.1-0.1h0.1l0,0L21.7,37z"/>
					<path class="st26" d="M29.4,41.5L29.4,41.5L29.4,41.5z"/>
				</g>
				<path class="st27" d="M29.4,41.5L29.4,41.5L29.4,41.5c-0.1,0-0.2,0-0.2,0s0,0,0,0.1l0,0c0,0-0.1,0.1-0.1,0.2l0,0v0.1l0,0
					l0.8,0.3l0,0c0,0,0-0.1,0.1-0.1c0,0,0,0,0.1,0L29.4,41.5z"/>
			</g>
			
				<linearGradient id="SVGID_1_" gradientUnits="userSpaceOnUse" x1="21.7732" y1="-3071.1643" x2="21.5925" y2="-3071.4897" gradientTransform="matrix(1 0 0 -1 0 -3034)">
				<stop  offset="0" style="stop-color:#78ACED"/>
				<stop  offset="1" style="stop-color:#4F7BB3"/>
			</linearGradient>
			<path class="st28" d="M22.1,37.3L22.1,37.3L22.1,37.3L21.7,37l0,0l0,0h-0.1l0,0h-0.1c-0.1,0-0.1,0.1-0.1,0.1
				c0,0.1-0.1,0.1-0.1,0.2c0,0,0,0.1,0.1,0.1h0.1l0,0l0,0l0.3,0.2l0,0l0,0l0.1,0.1l0,0l0,0l0,0c0,0,0,0,0-0.1l0,0v-0.1l0,0l0.1-0.1
				l0,0C22,37.3,22,37.2,22.1,37.3L22.1,37.3L22.1,37.3L22.1,37.3L22.1,37.3z"/>
		</g>
	</g>
</g>
<radialGradient id="SVGID_00000034791671200161258310000009220358045370730633_" cx="-1047.198" cy="-5904.2788" r="15.9015" gradientTransform="matrix(1.5353 0 0 -0.4819 1632.7632 -2803.772)" gradientUnits="userSpaceOnUse">
	<stop  offset="0.1349" style="stop-color:#B4BCC1"/>
	<stop  offset="0.94" style="stop-color:#ECEEEF;stop-opacity:0"/>
</radialGradient>
<ellipse style="fill:url(#SVGID_00000034791671200161258310000009220358045370730633_);" cx="25" cy="41.5" rx="24.4" ry="7.7"/>
<rect x="27.664" y="21.372" transform="matrix(0.866 -0.5 0.5 0.866 -7.4656 18.8377)" class="st30" width="7.507" height="3.955"/>
<g>
	<g>
		<g>
			<path class="st31" d="M26.566,36.155c0.02,0.097,0.099,0.175,0.234,0.214l0.547,0.153c0.289,0.083,0.725-0.045,0.975-0.286
				l1.566-1.503c0.136-0.131,0.189-0.269,0.161-0.381l-0.126-0.517l-3.48,1.815L26.566,36.155z"/>
			<path class="st32" d="M29.144,33.48l0.547,0.153c0.289,0.083,0.32,0.345,0.071,0.586l-1.566,1.503
				c-0.25,0.241-0.686,0.369-0.975,0.286l-0.547-0.153c-0.289-0.083-0.32-0.345-0.071-0.586l1.566-1.503
				C28.419,33.525,28.856,33.397,29.144,33.48z"/>
		</g>
		<g>
			<g>
				<g>
					<g>
						<path class="st32" d="M30.109,24.503l0.219,0.301l-3.075,4.785l-0.217-0.299c-0.079-0.101-0.092-0.244-0.02-0.412l1.463-3.782
							c0.156-0.363,0.649-0.701,1.102-0.755C29.834,24.312,30.02,24.377,30.109,24.503z"/>
						<path class="st31" d="M28.709,25.413l-1.463,3.782c-0.156,0.363,0.005,0.521,0.458,0.467c0.453-0.054,0.769-0.394,0.925-0.757
							l1.721-3.686c0.156-0.363-0.085-0.614-0.538-0.56C29.358,24.712,28.865,25.05,28.709,25.413z"/>
					</g>
				</g>
			</g>
			<g>
				<g>
					<g>
						<path class="st33" d="M27.888,28.687l1.372,0.484l-0.09,5.688l-1.369-0.484c-0.12-0.044-0.207-0.159-0.234-0.34l-0.75-3.985
							c-0.059-0.391,0.182-0.938,0.538-1.222C27.554,28.67,27.747,28.626,27.888,28.687z"/>
						<path class="st31" d="M28.205,30.542l0.75,3.985c0.059,0.391,0.279,0.44,0.635,0.155s0.443-0.465,0.443-0.465l-0.538-4.706
							c-0.059-0.391-0.396-0.476-0.752-0.192C28.387,29.604,28.146,30.151,28.205,30.542z"/>
					</g>
				</g>
			</g>
			<g>
				<g>
					<g>
						<path class="st32" d="M31.135,25.448l0.219,0.301l-3.075,4.785l-0.217-0.299c-0.079-0.101-0.092-0.244-0.02-0.412l1.463-3.782
							c0.156-0.363,0.649-0.701,1.102-0.755C30.859,25.257,31.046,25.322,31.135,25.448z"/>
						<path class="st34" d="M29.735,26.357l-1.463,3.782c-0.156,0.363,0.005,0.521,0.458,0.467c0.453-0.054,0.769-0.394,0.925-0.757
							l1.721-3.686c0.156-0.363-0.085-0.614-0.538-0.56C30.384,25.657,29.89,25.994,29.735,26.357z"/>
					</g>
				</g>
			</g>
		</g>
	</g>
	<g>
		<g>
			<circle class="st35" cx="29.009" cy="23.545" r="0.67"/>
			<g>
				<path class="st36" d="M28.586,20.038l1.181,0.057l-0.142,2.957c-0.004,0.087-0.066,0.172-0.185,0.233
					c-0.237,0.122-0.611,0.104-0.835-0.04c-0.112-0.072-0.166-0.162-0.161-0.249L28.586,20.038z"/>
				<path class="st37" d="M28.747,20.287c0.224,0.144,0.598,0.162,0.835,0.04s0.247-0.338,0.023-0.482
					c-0.224-0.144-0.598-0.162-0.835-0.04S28.523,20.143,28.747,20.287z"/>
			</g>
			<g>
				<path class="st36" d="M25.76,24.658l0.541,1.052l2.632-1.355c0.078-0.04,0.129-0.131,0.135-0.265
					c0.013-0.266-0.159-0.599-0.383-0.744c-0.112-0.072-0.216-0.083-0.294-0.043L25.76,24.658z"/>
				<path class="st35" d="M26.054,24.701c0.224,0.144,0.396,0.477,0.383,0.744c-0.013,0.266-0.205,0.365-0.429,0.221
					s-0.396-0.477-0.383-0.744C25.637,24.656,25.829,24.557,26.054,24.701z"/>
			</g>
		</g>
		<path class="st35" d="M28.588,19.999c-0.016,0.326,0.236,0.603,0.562,0.619c0.326,0.016,0.603-0.236,0.619-0.562
			c0.016-0.326-0.236-0.603-0.562-0.619S28.603,19.673,28.588,19.999z"/>
		<g>
			<path class="st35" d="M25.041,25.575c0,0.002,0,0.004,0,0.006v0.003c-0.001,0.074,0.045,0.149,0.14,0.21
				c0.194,0.125,0.517,0.14,0.722,0.035l0.486-0.243l0.014-0.291l-1.348,0.01L25.041,25.575z"/>
			<path class="st36" d="M25.195,25.502c0.194,0.125,0.517,0.14,0.722,0.035l0.486-0.243l-0.702-0.452l-0.486,0.243
				C25.01,25.191,25.001,25.377,25.195,25.502z"/>
		</g>
	</g>
	<g>
		<g>
			<path class="st31" d="M34.775,34.625c0.052,0.059,0.145,0.084,0.272,0.063l0.509-0.088c0.27-0.045,0.586-0.285,0.706-0.536
				l0.756-1.57c0.066-0.137,0.059-0.249-0.004-0.315l-0.292-0.307l-2.232,2.452L34.775,34.625z"/>
			<path class="st32" d="M35.948,31.905l0.509-0.088c0.27-0.045,0.391,0.122,0.271,0.373l-0.756,1.57
				c-0.12,0.251-0.436,0.491-0.706,0.536l-0.509,0.088c-0.27,0.045-0.391-0.122-0.271-0.373l0.756-1.57
				C35.362,32.189,35.678,31.949,35.948,31.905z"/>
		</g>
		<g>
			<g>
				<g>
					<g>
						<path class="st32" d="M31.797,26.544l0.332,0.032l0.984,4.203l-0.329-0.032c-0.115-0.008-0.213-0.074-0.271-0.202l-1.41-2.777
							c-0.125-0.275-0.014-0.728,0.249-1.01C31.497,26.601,31.659,26.529,31.797,26.544z"/>
						<path class="st31" d="M31.449,27.802l1.41,2.777c0.125,0.275,0.329,0.266,0.592-0.017s0.257-0.637,0.131-0.912L32.4,26.777
							c-0.125-0.275-0.44-0.269-0.703,0.014C31.435,27.075,31.324,27.527,31.449,27.802z"/>
					</g>
				</g>
			</g>
			<g>
				<g>
					<g>
						<path class="st33" d="M32.953,29.514l1.011-0.303l2.404,3.528l-1.009,0.303c-0.089,0.026-0.19-0.007-0.283-0.106l-2.16-2.116
							c-0.203-0.214-0.299-0.655-0.214-0.985C32.75,29.65,32.844,29.539,32.953,29.514z"/>
						<path class="st31" d="M33.939,30.513l2.16,2.116c0.203,0.214,0.353,0.148,0.438-0.183c0.085-0.33,0.058-0.479,0.058-0.479
							l-2.347-2.651c-0.203-0.214-0.437-0.119-0.522,0.212C33.64,29.858,33.736,30.299,33.939,30.513z"/>
					</g>
				</g>
			</g>
			<g>
				<g>
					<g>
						<path class="st32" d="M33.06,26.454l0.332,0.032l0.983,4.203l-0.329-0.032c-0.115-0.008-0.213-0.074-0.271-0.202l-1.41-2.777
							c-0.125-0.275-0.014-0.728,0.249-1.01C32.76,26.511,32.923,26.439,33.06,26.454z"/>
						<path class="st34" d="M32.712,27.712l1.41,2.777c0.125,0.275,0.329,0.266,0.592-0.017s0.257-0.637,0.131-0.912l-1.182-2.873
							c-0.125-0.275-0.44-0.269-0.703,0.014C32.698,26.985,32.587,27.437,32.712,27.712z"/>
					</g>
				</g>
			</g>
		</g>
	</g>
	<g>
		<path class="st32" d="M29.045,22.136l-0.8-2.333l2.297-1.318c0.191-0.121,0.445-0.115,0.723,0.045l1.434,0.828
			c0.165,0.095,0.32,0.234,0.46,0.403L29.045,22.136z"/>
		<path class="st38" d="M29.045,22.136l2.071,6.04c0,0,2.288-0.806,2.287-0.806c0.227-0.132,0.371-0.436,0.371-0.869v-5.089
			c0-0.573-0.252-1.212-0.616-1.652L29.045,22.136z"/>
		<path class="st33" d="M28.983,27.289l1.434,0.828c0.594,0.343,1.076-0.021,1.076-0.813l-0.033-4.562
			c0-0.792-0.482-1.712-1.076-2.055l-1.434-0.828c-0.594-0.343-1.076,0.021-1.076,0.813l0.033,4.562
			C27.908,26.026,28.389,26.946,28.983,27.289z"/>
	</g>
	<g>
		<path class="st35" d="M29.7,17.004h1.956v2.488c0,0.144-0.095,0.289-0.286,0.399c-0.382,0.22-1.001,0.22-1.383,0
			c-0.191-0.11-0.286-0.255-0.286-0.399v-2.488C29.701,17.004,29.7,17.004,29.7,17.004z"/>
		<g>
			<path class="st37" d="M29.987,17.403c0.382,0.22,1.001,0.22,1.383,0s0.382-0.578,0-0.798c-0.382-0.22-1.001-0.22-1.383,0
				S29.605,17.183,29.987,17.403z"/>
			<path class="st39" d="M29.972,17.428L29.972,17.428c-0.194-0.112-0.301-0.263-0.301-0.424s0.107-0.312,0.301-0.424
				c0.389-0.225,1.023-0.225,1.412,0c0.194,0.112,0.301,0.263,0.301,0.424s-0.107,0.312-0.301,0.424
				c-0.195,0.112-0.45,0.169-0.706,0.169C30.422,17.597,30.167,17.541,29.972,17.428z M30.001,16.63
				c-0.175,0.101-0.272,0.234-0.272,0.374c0,0.14,0.097,0.273,0.272,0.374c0.373,0.215,0.981,0.215,1.354,0
				c0.175-0.101,0.272-0.234,0.272-0.374c0-0.14-0.097-0.273-0.272-0.374c-0.187-0.108-0.432-0.162-0.677-0.162
				C30.433,16.468,30.188,16.522,30.001,16.63z"/>
		</g>
	</g>
	<g>
		<g>
			<path class="st38" d="M30.678,16.485h2.118v1.223c0,0.313-0.207,0.626-0.62,0.865c-0.407,0.235-0.94,0.355-1.474,0.358"/>
			<path class="st33" d="M30.702,18.93c-0.55,0.004-1.102-0.116-1.522-0.358c-0.414-0.239-0.62-0.552-0.62-0.865v-1.222h2.118"/>
			<ellipse class="st36" cx="30.678" cy="16.485" rx="2.118" ry="1.223"/>
		</g>
		<path class="st32" d="M30.678,14.367c1.17,0,2.118,0.948,2.118,2.118c0,0.313-0.207,0.626-0.62,0.865
			c-0.827,0.478-2.168,0.478-2.995,0c-0.414-0.239-0.62-0.552-0.62-0.865C28.56,15.315,29.508,14.367,30.678,14.367z"/>
	</g>
	<g>
		<g>
			<path class="st35" d="M33.239,25.045c0.131,0.346,0.517,0.521,0.863,0.39s0.521-0.517,0.39-0.863s-0.517-0.521-0.863-0.39
				C33.282,24.312,33.108,24.699,33.239,25.045z"/>
			<g>
				<path class="st36" d="M32.081,21.759l1.106-0.418l1.047,2.769c0.031,0.082,0.008,0.184-0.077,0.287
					c-0.169,0.207-0.519,0.338-0.782,0.296c-0.131-0.022-0.217-0.082-0.248-0.164L32.081,21.759z"/>
				<path class="st37" d="M32.328,21.924c0.263,0.043,0.614-0.089,0.782-0.296c0.169-0.207,0.093-0.409-0.171-0.452
					c-0.263-0.043-0.614,0.089-0.782,0.296C31.988,21.678,32.064,21.881,32.328,21.924z"/>
			</g>
			<g>
				<path class="st36" d="M32.862,28.201l1.176,0.13l0.324-2.943c0.01-0.087-0.038-0.18-0.146-0.259
					c-0.215-0.158-0.587-0.199-0.832-0.092c-0.122,0.054-0.189,0.134-0.198,0.221L32.862,28.201z"/>
				<path class="st35" d="M33.062,27.98c0.245-0.107,0.616-0.067,0.832,0.092c0.215,0.158,0.191,0.373-0.052,0.48
					c-0.244,0.107-0.616,0.067-0.832-0.092C32.793,28.302,32.817,28.088,33.062,27.98z"/>
			</g>
		</g>
		<path class="st35" d="M32.034,21.838c0.221,0.321,0.66,0.402,0.981,0.18c0.321-0.221,0.402-0.66,0.18-0.981
			c-0.221-0.321-0.66-0.402-0.981-0.18C31.894,21.078,31.813,21.517,32.034,21.838z"/>
		<g>
			<path class="st35" d="M32.949,29.221c0.001,0.002,0.002,0.003,0.004,0.004l0.002,0.002c0.051,0.053,0.137,0.074,0.247,0.052
				c0.225-0.047,0.467-0.263,0.54-0.482l0.177-0.514l-0.195-0.218l-0.955,0.952L32.949,29.221z"/>
			<path class="st36" d="M33.007,29.062c0.225-0.047,0.467-0.263,0.54-0.482l0.177-0.514l-0.817,0.17L32.73,28.75
				C32.657,28.97,32.782,29.109,33.007,29.062z"/>
		</g>
	</g>
	<path class="st36" d="M31.515,17.715c0,0.336,0.236,0.472,0.527,0.304s0.527-0.576,0.527-0.912s-0.236-0.472-0.527-0.304
		C31.751,16.97,31.515,17.379,31.515,17.715z"/>
	<path class="st40" d="M29.725,17.507c0,0.139,0.098,0.308,0.218,0.378s0.218,0.013,0.218-0.126s-0.098-0.308-0.218-0.378
		S29.725,17.367,29.725,17.507z"/>
	<path class="st40" d="M28.729,17.059c0,0.139,0.098,0.308,0.218,0.378s0.218,0.013,0.218-0.126s-0.098-0.308-0.218-0.378
		S28.729,16.92,28.729,17.059z"/>
	<g>
		<path class="st31" d="M32.042,17.086c-0.155,0.09-0.281,0.308-0.281,0.487c0,0.179,0.126,0.252,0.281,0.162
			c0.155-0.09,0.281-0.308,0.281-0.487C32.323,17.069,32.197,16.996,32.042,17.086z"/>
	</g>
	<g>
		<path class="st36" d="M28.76,24.669l1.545,0.892c0.237,0.137,0.433,0.039,0.449-0.225l0.179-2.871
			c0.031-0.494-0.32-1.131-0.765-1.388l-1.273-0.735c-0.444-0.256-0.795-0.025-0.765,0.505l0.179,3.078
			C28.327,24.207,28.524,24.532,28.76,24.669z"/>
		<path class="st40" d="M28.697,22.103l1.671,0.965c0.137,0.079,0.248-0.005,0.248-0.188v-0.625c0-0.183-0.111-0.395-0.248-0.475
			l-1.671-0.965c-0.137-0.079-0.248,0.005-0.248,0.188v0.625C28.449,21.811,28.56,22.024,28.697,22.103z"/>
	</g>
</g>
<g>
	<g>
		<g>
			<g>
				<g class="st20">
					<g>
						<polygon class="st41" points="14.407,38.34 14.033,38.122 18.245,35.69 18.619,35.908 						"/>
					</g>
					<g>
						<polygon class="st42" points="14.085,38.897 13.711,38.68 13.683,28.616 14.057,28.833 						"/>
					</g>
					<g>
						<polygon class="st41" points="14.057,28.833 13.683,28.616 14.005,28.43 14.379,28.647 						"/>
					</g>
					<g>
						<polygon class="st43" points="14.379,28.647 14.407,38.34 18.619,35.908 18.62,36.278 14.085,38.897 14.057,28.833 						"/>
					</g>
				</g>
			</g>
			<g>
				<g class="st20">
					<g>
						<polygon class="st44" points="26.303,40.776 26.677,40.56 26.676,40.931 26.302,41.148 						"/>
					</g>
					<g>
						<polygon class="st41" points="18.245,36.123 18.619,35.908 26.677,40.56 26.303,40.776 						"/>
					</g>
					<g>
						<polygon class="st45" points="26.303,40.776 26.302,41.148 18.244,36.496 18.245,36.123 						"/>
					</g>
				</g>
			</g>
			<g>
				<g class="st20">
					<g>
						<polygon class="st41" points="22.839,43.21 22.465,42.992 26.678,40.56 27.052,40.777 						"/>
					</g>
					<g>
						<polygon class="st42" points="22.517,43.767 22.143,43.549 22.115,33.486 22.489,33.703 						"/>
					</g>
					<g>
						<polygon class="st41" points="22.489,33.703 22.115,33.486 22.437,33.3 22.811,33.517 						"/>
					</g>
					<g>
						<polygon class="st43" points="22.811,33.517 22.839,43.21 27.052,40.777 27.053,41.148 22.517,43.767 22.489,33.703 						"/>
					</g>
				</g>
			</g>
		</g>
		<g>
			<g class="st20">
				<g>
					<polygon class="st46" points="22.56,36.591 12.943,31.035 12.936,28.599 22.553,34.155 					"/>
				</g>
				<g>
					<polygon class="st47" points="22.553,34.155 12.936,28.599 13.294,28.392 22.911,33.948 					"/>
				</g>
				<g>
					<polygon class="st48" points="22.911,33.948 22.918,36.385 22.56,36.591 22.553,34.155 					"/>
				</g>
			</g>
		</g>
	</g>
</g>
</svg>
