<?xml version="1.0" encoding="utf-8"?>
<!-- Generator: Adobe Illustrator 25.4.1, SVG Export Plug-In . SVG Version: 6.00 Build 0)  -->
<svg version="1.1" id="Layer_1" xmlns="http://www.w3.org/2000/svg" xmlns:xlink="http://www.w3.org/1999/xlink" x="0px" y="0px"
	 viewBox="0 0 50 50" style="enable-background:new 0 0 50 50;" xml:space="preserve">
<style type="text/css">
	.st0{display:none;}
	.st1{display:inline;}
	.st2{fill:#344593;}
	.st3{fill:#3E54A3;}
	.st4{fill:#2E4490;}
	.st5{fill:#122571;}
	.st6{opacity:0.5;fill:#031F60;enable-background:new    ;}
	.st7{fill:#BBDFFF;}
	.st8{fill:#FDB724;}
	.st9{fill:#E7478D;}
	.st10{fill:#BF2878;}
	.st11{fill:#27DEBF;}
	.st12{fill:#1BBC9D;}
	.st13{fill:#A33D64;}
	.st14{fill:#82294D;}
	.st15{fill:#0A4A80;}
	.st16{fill:#F1FCFF;}
	.st17{fill:#D6E6FF;}
	.st18{fill:#CEF3FF;}
	.st19{fill:#606060;}
	.st20{enable-background:new    ;}
	.st21{fill:#F19729;}
	.st22{fill:#FCB040;}
	.st23{fill:#FFCB49;}
	.st24{fill:#2E5677;}
	.st25{fill:#FF51CE;}
	.st26{fill:#EDE6A0;}
	.st27{fill:#FFF7B0;}
	.st28{fill:url(#SVGID_1_);}
	.st29{fill:url(#SVGID_00000106128064999501483200000000457252662299675028_);}
	.st30{fill:#A79EAF;}
	.st31{fill:#D3D0D8;}
	.st32{fill:#686172;}
	.st33{fill:#FFC988;}
	.st34{fill:#BC8226;}
	.st35{fill:#E2DC6F;}
	.st36{fill:#CECBD3;}
	.st37{fill:#E7E2E8;}
	.st38{fill:#9A7CA0;}
	.st39{fill:#4F74B7;}
	.st40{fill:#7A9DF4;}
	.st41{opacity:0.6;fill:#2D2E83;enable-background:new    ;}
	.st42{fill:#A7C4FC;}
	.st43{fill:#EDEDED;}
	.st44{opacity:0.5;fill:#BBACBC;enable-background:new    ;}
	.st45{fill:#C6A102;}
	.st46{fill:#E5C025;}
	.st47{fill:#AA9126;}
	.st48{fill:#FFE98A;}
	.st49{fill:#715B77;}
	.st50{fill:#F7314E;}
	.st51{fill:#B7294B;}
	.st52{fill:#A32449;}
	.st53{fill:#EF5270;}
	.st54{fill:#E2E2E2;}
	.st55{fill:#B7B341;}
	.st56{fill:#C17E14;}
	.st57{fill:#F9B233;}
	.st58{fill:#B8B3BA;}
</style>
<g id="Example" class="st0">
	<g class="st1">
		<g id="XMLID_4903_">
			<path id="XMLID_4905_" class="st2" d="M45.3,33.2v-4.6l0,0c0-0.9-0.6-1.8-1.7-2.4c-2.3-1.3-6-1.3-8.4,0c-1.2,0.7-1.7,1.6-1.7,2.4
				l0,0v4.5c0,0.9,0.6,1.8,1.7,2.4c2.3,1.3,6,1.3,8.4,0C44.8,34.9,45.3,34.1,45.3,33.2L45.3,33.2L45.3,33.2L45.3,33.2z"/>
			<path id="XMLID_4904_" class="st2" d="M45.3,33.2v-4.6l0,0c0-0.9-0.6-1.8-1.7-2.4c-2.3-1.3-6-1.3-8.4,0c-1.2,0.7-1.7,1.6-1.7,2.4
				l0,0v4.5c0,0.9,0.6,1.8,1.7,2.4c2.3,1.3,6,1.3,8.4,0C44.8,34.9,45.3,34.1,45.3,33.2L45.3,33.2L45.3,33.2L45.3,33.2z"/>
		</g>
		<polygon id="XMLID_4900_" class="st3" points="39.4,23 29.7,28.6 39.4,34.2 49.2,28.6 		"/>
		<path id="XMLID_4899_" class="st4" d="M44.3,31.4l-4.8-2.7c-0.1,0-0.2,0-0.2,0.1s0,0.2,0.1,0.2l4.6,2.6L44.3,31.4z"/>
		<polygon id="XMLID_4896_" class="st5" points="29.7,28.6 29.7,29 39.4,34.6 39.4,34.2 		"/>
		<polygon id="XMLID_4883_" class="st4" points="49.2,28.6 49.2,29 39.4,34.6 39.4,34.2 		"/>
		<polygon id="XMLID_4876_" class="st6" points="33.5,31.2 39.4,35.2 45.3,31.2 39.4,34.6 		"/>
		<g id="XMLID_4823_">
			<path id="XMLID_4835_" class="st7" d="M44.7,36.2c-0.1,0-0.2-0.1-0.2-0.2v-4c0-0.2-0.1-0.4-0.3-0.4l-4.9-2.8
				c-0.1,0-0.1-0.2-0.1-0.2c0-0.1,0.2-0.1,0.2-0.1l4.9,2.8c0.3,0.2,0.4,0.4,0.4,0.7v4C44.8,36.1,44.7,36.2,44.7,36.2z"/>
		</g>
		<path class="st8" d="M45.3,39.3L45,36.6c0.1-0.1,0.1-0.2,0-0.2l0,0l0,0l0,0v-0.1l0,0l0,0l0,0c0-0.2-0.2-0.4-0.4-0.4c0,0,0,0-0.1,0
			l0,0l0,0c0,0,0,0-0.1,0c0,0,0,0-0.1,0c0,0,0,0-0.1,0c0,0,0,0,0,0.1l0,0v0.1c0,0.1,0,0.2,0.1,0.3l0,0c-0.1,0.1,0,0.2,0,0.2L44,39.3
			c0,0.1,0.1,0.2,0.3,0.3l0,0h0.1l0,0c0.1,0,0.2,0.1,0.3,0.1l0,0l0,0l0,0l0,0l0,0c0.1,0,0.2,0,0.3-0.1l0,0h0.1l0,0
			C45.3,39.5,45.3,39.4,45.3,39.3z"/>
	</g>
	<g id="XMLID_3738_" class="st1">
		<path id="XMLID_4404_" class="st9" d="M12.4,36.1c1.1-0.8,1.8-2.7,1.7-4c-0.1-1.4-1.2-2-1.7-2.3l0,0c-1.1-0.6-2.8-0.6-3.9,0l0,0
			C8,30.1,7,30.7,6.8,32.1c-0.1,1.3,0.6,3.2,1.7,4l0,0c0.1,0,0.1,0.1,0.2,0.1c1,0.6,2.6,0.6,3.6,0l0,0
			C12.3,36.2,12.4,36.1,12.4,36.1L12.4,36.1z"/>
		<path id="XMLID_4395_" class="st10" d="M9.9,30.8c-0.3,0.2-0.3,0.4,0,0.6s0.8,0.2,1.1,0s0.3-0.4,0-0.6
			C10.7,30.6,10.2,30.6,9.9,30.8z"/>
		<g id="XMLID_4426_">
			<path id="XMLID_2198_" class="st11" d="M10.5,31.2c0,0-0.9,0-1.4-0.7s0-1.9,0-1.9s1.1,0.1,1.7,1C11.2,30.4,10.5,31.2,10.5,31.2z"
				/>
			<path id="XMLID_4431_" class="st12" d="M9,30.5c0.5,0.7,1.4,0.7,1.4,0.7C10.3,29.6,9,28.6,9,28.6S8.5,29.8,9,30.5z"/>
		</g>
		<path id="XMLID_4403_" class="st13" d="M10.5,31.2c0,0,0-1.3,0.7-1.9s1.2-0.6,1.2-0.6c0.4,0,0.9,0.4,0.7,0.4c0,0-0.9,0-1.5,0.5
			s-0.9,1.5-0.9,1.6c0,0,0,0.1-0.1,0.1C10.5,31.3,10.5,31.2,10.5,31.2z"/>
		<path id="XMLID_4496_" class="st14" d="M12.4,28.7c-0.1,0-0.1,0.1,0.2,0.3c0.2,0.1,0.4,0.2,0.5,0.2l0,0
			C13.3,29,12.8,28.7,12.4,28.7z"/>
	</g>
	<g class="st1">
		<g>
			<path class="st15" d="M26,28.8L26,28.8c-1,0.6-1.9,1-2.8,1.2l0,0c0,0,0,0-0.1,0l-0.5,0.2h-0.1c-0.1,0-0.2,0.1-0.3,0.1h-0.1
				c-0.1,0-0.2,0.1-0.2,0.1h-0.1c-0.5,0.2-0.9,0.4-1.4,0.7c-0.1,0.1-0.2,0.1-0.3,0.2L20,31.4c-0.4,0.3-2,1.5-2.9,2.5l-0.6,0.6
				L16,34.6c-1,0.2-2,0.5-3,1.1c-0.1,0.1-0.2,0.1-0.3,0.2c-0.3,0.2-0.5,0.3-0.8,0.5l0,0l-0.1,0.1c-0.1,0.1-0.2,0.1-0.3,0.2l0,0l0,0
				c-0.4,0.3-0.9,0.7-1.3,1.1c-0.1,0.1-0.2,0.2-0.3,0.3c-0.3,0.3-0.7,0.6-1,0.9H8.8c-0.3,0.3-0.7,0.5-1,0.8
				c-0.2,0.2-0.5,0.3-0.7,0.5H7l13.7,8.3h0.1c0.8-0.5,1.7-1.2,2.5-1.9c0.5-0.5,1.1-0.9,1.7-1.4c1.2-0.9,2.3-1.5,3.2-1.8
				c0.7-0.3,1.4-0.5,2.1-0.6l0.5-0.6c0.7-0.7,1.5-1.3,2.4-1.8c1.5-1,3.2-1.8,4.9-2.5c0.6-0.2,1.2-0.5,1.6-0.7l0.2-0.1L26,28.8z"/>
			<g>
				<g>
					<g>
						<path class="st16" d="M39.1,36.7c-0.5,0.3-0.7,0.4-1.2,0.6c-0.3,0.1-0.5,0.2-0.8,0.3c-0.2,0.1-0.3,0.1-0.5,0.1
							c-0.7,0.2-1.4,0.4-2,0.8c-0.2,0.1-0.4,0.2-0.6,0.3c-1.3,0.8-2.6,2-3.9,3.5l-2.5-1.5l-11-6.7c1.3-1.5,2.6-2.7,3.9-3.5
							c0.2-0.1,0.4-0.2,0.6-0.3c0.7-0.4,1.4-0.6,2-0.8c0.2,0,0.3-0.1,0.5-0.1c0.3-0.1,0.5-0.2,0.8-0.3c0.5-0.2,0.7-0.3,1.2-0.6
							L39.1,36.7z"/>
						<g>
							<path class="st16" d="M30.1,42.3c-1.3,0.1-2.6,0.5-3.9,1.3c-0.2,0.1-0.4,0.2-0.6,0.4c-0.7,0.5-1.4,1-2,1.7
								c-0.2,0.2-0.3,0.3-0.5,0.4c-0.3,0.3-0.6,0.5-0.9,0.7c-0.5,0.4-0.8,0.6-1.3,0.9L7.5,39.5C8,39.2,8.3,39,8.8,38.6
								c0.3-0.2,0.6-0.5,0.9-0.7c0.2-0.1,0.3-0.3,0.5-0.4c0.7-0.6,1.4-1.2,2-1.7c0.2-0.1,0.4-0.3,0.6-0.4c1.3-0.8,2.6-1.2,3.9-1.3
								l11,6.7L30.1,42.3z"/>
						</g>
					</g>
					<polygon class="st17" points="7.5,39.5 7.3,40.3 20.7,48.5 20.9,47.7 					"/>
					<path class="st18" d="M39.4,37.1c-0.9,0.6-1.8,1-2.7,1.2c0,0,0,0-0.1,0s-0.2,0-0.3,0.1c-0.1,0-0.2,0.1-0.3,0.1
						s-0.2,0.1-0.3,0.1c-0.6,0.2-1.2,0.5-1.8,0.9c-0.1,0.1-0.2,0.1-0.3,0.2c-1,0.7-2,1.5-3,2.5L30,42.8l-0.6,0.1c-1,0.2-2,0.5-3,1.1
						c-0.1,0.1-0.2,0.1-0.3,0.2c-0.3,0.2-0.5,0.3-0.8,0.5c-0.6,0.4-1.1,0.9-1.7,1.4c-0.1,0.1-0.2,0.2-0.3,0.3
						c-0.9,0.9-1.8,1.6-2.7,2.2l0.2-0.8c0.5-0.3,0.8-0.5,1.3-0.9c0.3-0.2,0.6-0.5,0.9-0.7c0.2-0.1,0.3-0.3,0.5-0.4
						c0.7-0.6,1.4-1.2,2-1.7c0.2-0.1,0.4-0.3,0.6-0.4c1.3-0.8,2.6-1.2,3.9-1.3c1.3-1.5,2.6-2.7,3.9-3.5c0.2-0.1,0.4-0.2,0.6-0.3
						c0.7-0.4,1.4-0.6,2-0.8c0.2,0,0.3-0.1,0.5-0.1c0.3-0.1,0.5-0.2,0.8-0.3c0.5-0.2,0.7-0.3,1.2-0.6L39.4,37.1z"/>
				</g>
			</g>
			<g>
				<path class="st19" d="M17.8,34.6C17.9,34.6,17.9,34.6,17.8,34.6c1.2-1.4,2.5-2.5,3.7-3.2c0.2-0.1,0.4-0.2,0.5-0.3
					c0.7-0.3,1.3-0.6,2-0.8c0.2,0,0.3-0.1,0.5-0.1c0.3-0.1,0.5-0.2,0.8-0.3c0.4-0.2,0.7-0.3,1.1-0.5c0,0,0,0,0-0.1s0,0-0.1,0
					c-0.4,0.2-0.6,0.3-1,0.5c-0.3,0.1-0.5,0.2-0.8,0.3c-0.2,0.1-0.3,0.1-0.5,0.1c-0.7,0.2-1.3,0.4-2,0.8c-0.2,0.1-0.4,0.2-0.6,0.3
					C20.3,32.1,19,33.2,17.8,34.6C17.8,34.5,17.8,34.6,17.8,34.6L17.8,34.6z"/>
				<path class="st19" d="M25.4,30.6c-0.2,0.1-0.3,0.1-0.5,0.1c-0.7,0.2-1.3,0.4-2,0.8c-0.2,0.1-0.4,0.2-0.6,0.3
					c-1.2,0.7-2.5,1.8-3.7,3.2v0.1l0,0l0,0c1.2-1.4,2.5-2.5,3.7-3.2c0.2-0.1,0.4-0.2,0.6-0.3c0.7-0.4,1.3-0.6,2-0.8
					C25.1,30.8,25.3,30.7,25.4,30.6c0.3,0,0.6-0.1,0.8-0.2c0.4-0.2,0.6-0.3,1-0.5c0,0,0,0,0-0.1c0,0,0,0-0.1,0
					c-0.4,0.2-0.6,0.3-1,0.5C25.9,30.4,25.7,30.5,25.4,30.6z"/>
				<path class="st19" d="M26.2,31.1c-0.2,0.1-0.3,0.1-0.5,0.1c-0.7,0.2-1.3,0.4-2,0.8c-0.2,0.1-0.4,0.2-0.6,0.3
					c-1.2,0.7-2.5,1.8-3.7,3.2v0.1l0,0l0,0c1.2-1.4,2.5-2.5,3.7-3.2c0.2-0.1,0.4-0.2,0.6-0.3c0.7-0.4,1.4-0.6,2-0.8
					C25.9,31.3,26.1,31.2,26.2,31.1c0.3,0,0.6-0.1,0.8-0.2c0.4-0.2,0.6-0.3,1-0.5c0,0,0,0,0-0.1c0,0,0,0-0.1,0
					c-0.4,0.2-0.6,0.3-1,0.5C26.8,30.9,26.5,31,26.2,31.1z"/>
				<path class="st19" d="M27.1,31.5c-0.2,0.1-0.3,0.1-0.5,0.1c-0.7,0.2-1.3,0.4-2,0.8c-0.2,0.1-0.4,0.2-0.6,0.3
					c-1.2,0.7-2.5,1.8-3.7,3.2V36l0,0l0,0c1.2-1.4,2.5-2.5,3.7-3.2c0.2-0.1,0.4-0.2,0.6-0.3c0.7-0.4,1.4-0.6,2-0.8
					C26.7,31.7,26.9,31.7,27.1,31.5c0.3,0,0.6-0.1,0.8-0.2c0.4-0.2,0.6-0.3,1-0.5c0,0,0,0,0-0.1c0,0,0,0-0.1,0
					c-0.4,0.2-0.6,0.3-1,0.5C27.6,31.4,27.3,31.5,27.1,31.5z"/>
				<path class="st19" d="M27.9,32c-0.2,0.1-0.3,0.1-0.5,0.1c-0.7,0.2-1.4,0.4-2,0.8c-0.2,0.1-0.4,0.2-0.6,0.3
					c-1.2,0.7-2.5,1.9-3.7,3.2v0.1l0,0l0,0c1.2-1.4,2.5-2.5,3.7-3.2c0.2-0.1,0.4-0.2,0.6-0.3c0.7-0.4,1.4-0.6,2-0.8
					C27.6,32.2,27.8,32.2,27.9,32c0.3,0,0.6-0.1,0.8-0.2c0.4-0.2,0.6-0.3,1-0.5c0,0,0,0,0-0.1c0,0,0,0-0.1,0c-0.4,0.2-0.6,0.3-1,0.5
					C28.4,31.8,28.1,31.9,27.9,32z"/>
				<path class="st19" d="M28.7,32.5c-0.2,0.1-0.3,0.1-0.5,0.1c-0.7,0.2-1.4,0.4-2,0.8c-0.2,0.1-0.4,0.2-0.6,0.3
					c-1.2,0.7-2.5,1.9-3.7,3.2V37l0,0l0,0c1.2-1.4,2.5-2.5,3.7-3.2c0.2-0.1,0.4-0.2,0.6-0.3c0.7-0.4,1.4-0.6,2-0.8
					C28.4,32.7,28.6,32.6,28.7,32.5c0.3,0,0.6-0.1,0.8-0.2c0.4-0.2,0.6-0.3,1-0.5c0,0,0,0,0-0.1c0,0,0,0-0.1,0
					c-0.3,0.2-0.6,0.3-0.9,0.5C29.2,32.3,29,32.4,28.7,32.5z"/>
				<path class="st19" d="M29.6,33c-0.2,0.1-0.3,0.1-0.5,0.1c-0.7,0.2-1.4,0.4-2.1,0.8c-0.2,0.1-0.4,0.2-0.6,0.3
					c-1.2,0.7-2.5,1.9-3.8,3.3v0.1l0,0l0,0c1.2-1.4,2.5-2.5,3.7-3.2c0.2-0.1,0.4-0.2,0.6-0.3c0.7-0.4,1.4-0.6,2-0.8
					C29.2,33.2,29.4,33.1,29.6,33c0.3,0,0.6-0.1,0.8-0.2c0.4-0.2,0.6-0.3,0.9-0.5c0,0,0,0,0-0.1c0,0,0,0-0.1,0
					c-0.3,0.2-0.5,0.3-0.9,0.4C30.1,32.8,29.8,32.9,29.6,33z"/>
				<path class="st19" d="M30.4,33.5c-0.2,0.1-0.3,0.1-0.5,0.1c-0.7,0.2-1.4,0.4-2.1,0.8c-0.2,0.1-0.4,0.2-0.6,0.3
					c-1.2,0.7-2.5,1.9-3.8,3.3v0.1l0,0l0,0c1.2-1.4,2.5-2.5,3.7-3.2c0.2-0.1,0.4-0.2,0.6-0.3c0.7-0.4,1.4-0.6,2-0.8
					C30.1,33.7,30.2,33.6,30.4,33.5c0.3,0,0.5-0.1,0.8-0.2c0.4-0.2,0.6-0.3,0.9-0.4c0,0,0,0,0-0.1c0,0,0,0-0.1,0
					c-0.3,0.2-0.5,0.3-0.9,0.4C30.9,33.3,30.6,33.4,30.4,33.5z"/>
				<path class="st19" d="M31.2,33.9C31,34,30.9,34,30.7,34.1c-0.7,0.2-1.4,0.4-2.1,0.8c-0.2,0.1-0.4,0.2-0.6,0.3
					c-1.2,0.7-2.5,1.9-3.8,3.3v0.1l0,0l0,0c1.2-1.4,2.5-2.5,3.8-3.3c0.2-0.1,0.4-0.2,0.6-0.3c0.7-0.4,1.4-0.6,2-0.8
					C30.9,34.1,31.1,34.1,31.2,33.9c0.3,0,0.5-0.1,0.8-0.2c0.4-0.2,0.6-0.2,0.9-0.4c0,0,0,0,0-0.1c0,0,0,0-0.1,0
					c-0.3,0.2-0.5,0.3-0.9,0.4C31.7,33.8,31.5,33.9,31.2,33.9z"/>
				<path class="st19" d="M32,34.4c-0.2,0.1-0.3,0.1-0.5,0.1c-0.7,0.2-1.4,0.4-2.1,0.8c-0.2,0.1-0.4,0.2-0.6,0.3
					c-1.2,0.7-2.6,1.9-3.8,3.3V39l0,0l0,0c1.2-1.4,2.5-2.5,3.8-3.3c0.2-0.1,0.4-0.2,0.6-0.3c0.7-0.4,1.4-0.6,2-0.8
					C31.7,34.6,31.9,34.6,32,34.4c0.3,0,0.5-0.1,0.8-0.2c0.4-0.2,0.6-0.2,0.9-0.4c0,0,0,0,0-0.1c0,0,0,0-0.1,0
					c-0.3,0.2-0.5,0.3-0.9,0.4C32.6,34.2,32.3,34.3,32,34.4z"/>
				<path class="st19" d="M32.9,34.9C32.7,35,32.6,35,32.4,35c-0.7,0.2-1.4,0.4-2.1,0.8c-0.2,0.1-0.4,0.2-0.6,0.3
					c-1.2,0.8-2.6,1.9-3.8,3.3v0.1l0,0l0,0c1.2-1.4,2.5-2.5,3.8-3.3c0.2-0.1,0.4-0.2,0.6-0.3c0.7-0.4,1.4-0.6,2.1-0.8
					C32.6,35.1,32.7,35,32.9,34.9c0.3,0,0.5-0.1,0.8-0.2c0.3-0.1,0.6-0.2,0.9-0.4c0,0,0,0,0-0.1c0,0,0,0-0.1,0
					c-0.3,0.2-0.5,0.3-0.8,0.4C33.4,34.7,33.1,34.8,32.9,34.9z"/>
				<path class="st19" d="M33.7,35.4c-0.2,0.1-0.3,0.1-0.5,0.1c-0.7,0.2-1.4,0.4-2.1,0.8c-0.2,0.1-0.4,0.2-0.6,0.3
					c-1.2,0.8-2.6,1.9-3.8,3.3V40l0,0l0,0c1.2-1.4,2.6-2.5,3.8-3.3c0.2-0.1,0.4-0.2,0.6-0.3c0.7-0.4,1.4-0.6,2.1-0.8
					C33.4,35.6,33.6,35.5,33.7,35.4c0.3,0,0.5-0.1,0.8-0.2c0.3-0.1,0.5-0.2,0.8-0.4c0,0,0,0,0-0.1c0,0,0,0-0.1,0
					c-0.3,0.2-0.5,0.3-0.8,0.4C34.2,35.2,34,35.3,33.7,35.4z"/>
				<path class="st19" d="M34.5,35.8c-0.2,0.1-0.3,0.1-0.5,0.1c-0.7,0.2-1.4,0.4-2.1,0.8c-0.2,0.1-0.4,0.2-0.6,0.3
					c-1.3,0.8-2.6,1.9-3.8,3.3v0.1l0,0l0,0c1.2-1.4,2.6-2.6,3.8-3.3c0.2-0.1,0.4-0.2,0.6-0.3c0.7-0.4,1.4-0.6,2.1-0.8
					C34.2,36,34.4,36,34.5,35.8c0.3,0,0.5-0.1,0.8-0.2c0.3-0.1,0.5-0.2,0.8-0.4c0,0,0,0,0-0.1c0,0,0,0-0.1,0
					c-0.3,0.2-0.5,0.2-0.8,0.4C35,35.7,34.8,35.8,34.5,35.8z"/>
				<path class="st19" d="M35.4,36.3c-0.2,0.1-0.3,0.1-0.5,0.1c-0.7,0.2-1.4,0.4-2.1,0.8c-0.2,0.1-0.4,0.2-0.6,0.3
					c-1.3,0.8-2.6,1.9-3.8,3.3v0.1l0,0l0,0c1.3-1.4,2.6-2.6,3.8-3.3c0.2-0.1,0.4-0.2,0.6-0.3c0.7-0.4,1.4-0.6,2.1-0.8
					C35.1,36.5,35.2,36.5,35.4,36.3c0.3,0,0.5-0.1,0.8-0.2c0.3-0.1,0.5-0.2,0.8-0.4c0,0,0,0,0-0.1c0,0,0,0-0.1,0
					c-0.2,0.1-0.4,0.2-0.8,0.4C35.9,36.2,35.6,36.2,35.4,36.3z"/>
				<path class="st19" d="M37.7,36.2c-0.3,0.1-0.5,0.2-0.8,0.4c-0.3,0.1-0.5,0.2-0.8,0.3C35.9,37,35.8,37,35.6,37
					c-0.7,0.2-1.4,0.4-2.1,0.8c-0.2,0.1-0.4,0.2-0.6,0.3c-1.3,0.8-2.6,1.9-3.9,3.3v0.1l0,0l0,0c1.3-1.4,2.6-2.6,3.8-3.3
					c0.2-0.1,0.4-0.2,0.6-0.3c0.7-0.4,1.4-0.6,2.1-0.8c0.2,0,0.3-0.1,0.5-0.1c0.2-0.1,0.5-0.2,0.8-0.3
					C37.3,36.5,37.5,36.4,37.7,36.2C37.8,36.3,37.8,36.2,37.7,36.2C37.8,36.2,37.7,36.2,37.7,36.2z"/>
				<path class="st19" d="M10.6,38.6c0.2-0.1,0.3-0.3,0.5-0.4c0.7-0.6,1.3-1.2,2-1.7c0.2-0.1,0.4-0.2,0.6-0.4
					c1.2-0.7,2.5-1.2,3.7-1.3c0,0,0,0,0-0.1c0,0,0,0-0.1,0c-1.2,0.1-2.5,0.5-3.7,1.3c-0.2,0.1-0.4,0.2-0.6,0.4c-0.7,0.5-1.4,1-2,1.7
					C10.9,38.3,10.7,38.4,10.6,38.6c-0.4,0.2-0.7,0.4-0.9,0.7c-0.4,0.3-0.7,0.5-1,0.7c0,0,0,0,0,0.1l0,0l0,0c0.3-0.2,0.6-0.4,1-0.7
					S10.3,38.9,10.6,38.6z"/>
				<path class="st19" d="M11.5,39.1c0.2-0.1,0.3-0.3,0.5-0.4c0.7-0.6,1.3-1.2,2-1.7c0.2-0.1,0.4-0.2,0.6-0.4
					c1.2-0.7,2.5-1.2,3.7-1.2c0,0,0,0,0-0.1c0,0,0-0.1-0.1,0c-1.2,0.1-2.5,0.5-3.7,1.3c-0.2,0.1-0.4,0.2-0.6,0.4
					c-0.7,0.5-1.4,1-2,1.7C11.7,38.8,11.6,38.9,11.5,39.1c-0.4,0.2-0.7,0.4-0.9,0.7c-0.4,0.3-0.7,0.5-1,0.7c0,0,0,0,0,0.1l0,0l0,0
					c0.3-0.2,0.6-0.4,1-0.7C10.9,39.6,11.2,39.4,11.5,39.1z"/>
				<path class="st19" d="M12.3,39.6c0.2-0.1,0.3-0.3,0.5-0.4c0.7-0.6,1.3-1.2,2-1.7c0.2-0.1,0.4-0.3,0.6-0.4
					c1.2-0.7,2.4-1.2,3.6-1.2c0,0,0,0,0-0.1s0,0-0.1,0c-1.2,0.1-2.5,0.5-3.7,1.3c-0.2,0.1-0.4,0.2-0.6,0.4c-0.7,0.5-1.4,1-2,1.7
					C12.5,39.2,12.4,39.4,12.3,39.6c-0.4,0.2-0.7,0.4-0.9,0.7c-0.4,0.3-0.7,0.5-1,0.7c0,0,0,0,0,0.1l0,0l0,0c0.3-0.2,0.6-0.4,1-0.7
					C11.7,40.1,12,39.9,12.3,39.6z"/>
				<path class="st19" d="M13.1,40.1c0.2-0.1,0.3-0.3,0.5-0.4c0.7-0.6,1.3-1.2,2-1.7c0.2-0.1,0.4-0.3,0.6-0.4
					c1.2-0.7,2.4-1.1,3.6-1.2c0,0,0,0,0-0.1c0,0,0,0-0.1,0c-1.2,0.1-2.4,0.5-3.6,1.3c-0.2,0.1-0.4,0.2-0.6,0.4c-0.7,0.5-1.4,1-2,1.7
					C13.3,39.7,13.2,39.9,13.1,40.1c-0.4,0.2-0.6,0.4-0.9,0.7c-0.4,0.3-0.7,0.5-1,0.7c0,0,0,0,0,0.1l0,0l0,0c0.3-0.2,0.6-0.4,1-0.7
					C12.5,40.6,12.8,40.4,13.1,40.1z"/>
				<path class="st19" d="M13.9,40.6c0.2-0.1,0.3-0.3,0.5-0.4c0.7-0.6,1.3-1.2,2-1.7c0.2-0.1,0.4-0.3,0.6-0.4
					c1.2-0.7,2.4-1.1,3.6-1.2c0,0,0,0,0-0.1c0,0,0,0-0.1,0c-1.2,0.1-2.4,0.5-3.6,1.3c-0.2,0.1-0.4,0.2-0.6,0.4c-0.7,0.5-1.4,1-2,1.7
					C14.2,40.2,14,40.4,13.9,40.6c-0.4,0.2-0.6,0.4-0.9,0.7c-0.4,0.3-0.7,0.5-1,0.7c0,0,0,0,0,0.1l0,0l0,0c0.3-0.2,0.6-0.4,1-0.7
					C13.3,41.1,13.6,40.8,13.9,40.6z"/>
				<path class="st19" d="M14.7,41.1c0.2-0.1,0.3-0.3,0.5-0.4c0.7-0.6,1.3-1.2,2-1.7c0.2-0.1,0.4-0.3,0.6-0.4
					c1.2-0.7,2.4-1.1,3.5-1.2c0,0,0,0,0-0.1c0,0,0,0-0.1,0c-1.2,0.1-2.4,0.6-3.6,1.3c-0.2,0.1-0.4,0.2-0.6,0.4c-0.7,0.5-1.4,1-2,1.7
					C15,40.7,14.8,40.8,14.7,41.1c-0.4,0.2-0.6,0.4-0.9,0.7c-0.4,0.3-0.7,0.5-1,0.7c0,0,0,0,0,0.1l0,0l0,0c0.3-0.2,0.6-0.4,1-0.7
					S14.4,41.3,14.7,41.1z"/>
				<path class="st19" d="M15.6,41.5c0.2-0.1,0.3-0.3,0.5-0.4c0.7-0.6,1.3-1.2,2-1.7c0.2-0.1,0.4-0.3,0.6-0.4
					c1.1-0.7,2.4-1.1,3.5-1.2c0,0,0,0,0-0.1s0,0-0.1,0c-1.2,0.1-2.4,0.6-3.5,1.3c-0.2,0.1-0.4,0.2-0.6,0.4c-0.7,0.5-1.4,1-2,1.7
					C15.8,41.2,15.6,41.3,15.6,41.5c-0.4,0.2-0.6,0.4-0.9,0.7c-0.4,0.3-0.7,0.5-1,0.7c0,0,0,0,0,0.1l0,0l0,0c0.3-0.2,0.6-0.4,1-0.7
					C15,42.1,15.3,41.8,15.6,41.5z"/>
				<path class="st19" d="M16.4,42c0.2-0.1,0.3-0.3,0.5-0.4c0.7-0.6,1.3-1.2,2-1.7c0.2-0.1,0.4-0.3,0.6-0.4c1.1-0.7,2.3-1.1,3.5-1.2
					c0,0,0,0,0-0.1s0,0-0.1,0c-1.2,0.1-2.4,0.6-3.5,1.3c-0.2,0.1-0.4,0.2-0.6,0.4c-0.7,0.5-1.4,1-2.1,1.7
					C16.6,41.7,16.5,41.8,16.4,42c-0.4,0.2-0.6,0.4-0.9,0.7c-0.4,0.3-0.7,0.5-1,0.7c0,0,0,0,0,0.1l0,0l0,0c0.3-0.2,0.6-0.4,1.1-0.7
					C15.8,42.5,16.1,42.3,16.4,42z"/>
				<path class="st19" d="M17.2,42.5c0.2-0.1,0.3-0.3,0.5-0.4c0.7-0.6,1.4-1.2,2-1.7c0.2-0.1,0.4-0.3,0.6-0.4
					c1.1-0.7,2.3-1.1,3.4-1.2c0,0,0,0,0-0.1s0,0-0.1,0c-1.1,0.1-2.3,0.6-3.5,1.3c-0.2,0.1-0.4,0.2-0.6,0.4c-0.7,0.5-1.4,1-2.1,1.7
					C17.4,42.2,17.3,42.3,17.2,42.5c-0.4,0.2-0.6,0.4-0.9,0.6c-0.4,0.3-0.7,0.5-1.1,0.7c0,0,0,0,0,0.1l0,0l0,0
					c0.3-0.2,0.6-0.4,1.1-0.8C16.6,43,16.9,42.8,17.2,42.5z"/>
				<path class="st19" d="M18,43c0.2-0.1,0.3-0.3,0.5-0.4c0.7-0.6,1.4-1.2,2-1.7c0.2-0.1,0.4-0.3,0.6-0.4c1.1-0.7,2.3-1.1,3.4-1.2
					c0,0,0,0,0-0.1s0,0-0.1,0c-1.1,0.1-2.3,0.6-3.5,1.3c-0.2,0.1-0.4,0.2-0.6,0.4c-0.7,0.5-1.4,1.1-2.1,1.7
					C18.3,42.6,18.1,42.8,18,43c-0.4,0.2-0.6,0.4-0.9,0.6c-0.4,0.3-0.7,0.6-1.1,0.8c0,0,0,0,0,0.1l0,0l0,0c0.3-0.2,0.7-0.4,1.1-0.8
					C17.4,43.5,17.7,43.3,18,43z"/>
				<path class="st19" d="M18.8,43.5c0.2-0.1,0.3-0.3,0.5-0.4c0.7-0.6,1.4-1.2,2-1.7c0.2-0.1,0.4-0.3,0.6-0.4
					c1.1-0.7,2.3-1.1,3.4-1.2c0,0,0,0,0-0.1c0,0,0,0-0.1,0c-1.1,0.1-2.3,0.6-3.4,1.3c-0.2,0.1-0.4,0.2-0.6,0.4
					c-0.7,0.5-1.4,1.1-2.1,1.7C19.1,43.1,18.9,43.3,18.8,43.5c-0.4,0.2-0.6,0.4-0.9,0.6c-0.4,0.3-0.7,0.6-1.1,0.8c0,0,0,0,0,0.1l0,0
					l0,0c0.3-0.2,0.7-0.4,1.1-0.8C18.3,44,18.5,43.7,18.8,43.5z"/>
				<path class="st19" d="M19.6,44c0.2-0.1,0.3-0.3,0.5-0.4c0.7-0.6,1.4-1.2,2.1-1.7c0.2-0.1,0.4-0.3,0.6-0.4
					c1.1-0.7,2.3-1.1,3.4-1.2c0,0,0,0,0-0.1c0,0,0,0-0.1,0c-1.1,0.2-2.3,0.6-3.4,1.3c-0.2,0.1-0.4,0.2-0.6,0.4
					c-0.7,0.5-1.4,1.1-2.1,1.7C19.9,43.6,19.7,43.8,19.6,44c-0.4,0.2-0.6,0.4-0.9,0.6c-0.4,0.3-0.8,0.6-1.1,0.8c0,0,0,0,0,0.1l0,0
					l0,0c0.3-0.2,0.7-0.4,1.1-0.8C19.1,44.5,19.4,44.2,19.6,44z"/>
				<path class="st19" d="M20.5,44.5c0.2-0.1,0.3-0.3,0.5-0.4c0.7-0.6,1.4-1.2,2.1-1.7c0.2-0.1,0.4-0.3,0.6-0.4
					c1.1-0.7,2.2-1.1,3.3-1.2c0,0,0,0,0-0.1c0,0,0,0-0.1,0c-1.1,0.2-2.3,0.6-3.4,1.3c-0.2,0.1-0.4,0.2-0.6,0.4
					c-0.7,0.5-1.4,1.1-2.1,1.7C20.7,44.1,20.5,44.2,20.5,44.5c-0.4,0.2-0.6,0.4-0.9,0.6c-0.4,0.3-0.8,0.6-1.1,0.8c0,0,0,0,0,0.1l0,0
					l0,0c0.3-0.2,0.7-0.4,1.1-0.8C19.9,45,20.2,44.7,20.5,44.5z"/>
				<path class="st19" d="M21.3,44.9c0.2-0.1,0.3-0.3,0.5-0.4c0.7-0.7,1.4-1.2,2.1-1.7c0.2-0.1,0.4-0.3,0.6-0.4
					c1.1-0.6,2.2-1.1,3.3-1.2c0,0,0,0,0-0.1c0,0,0,0-0.1,0c-1.1,0.2-2.3,0.6-3.3,1.3c-0.2,0.1-0.4,0.2-0.6,0.4
					c-0.7,0.5-1.4,1.1-2.1,1.7C21.5,44.6,21.4,44.7,21.3,44.9c-0.4,0.2-0.6,0.4-0.9,0.6c-0.4,0.3-0.8,0.6-1.1,0.8c0,0,0,0,0,0.1l0,0
					l0,0c0.4-0.2,0.7-0.4,1.1-0.8C20.7,45.4,21,45.2,21.3,44.9z"/>
				<path class="st19" d="M25.2,42.8c-0.2,0.1-0.4,0.2-0.6,0.4c-0.7,0.5-1.4,1.1-2.1,1.7c-0.2,0.1-0.3,0.3-0.5,0.4
					c-0.3,0.3-0.6,0.5-0.9,0.7c-0.4,0.3-0.8,0.6-1.1,0.8c0,0,0,0,0,0.1l0,0l0,0c0.4-0.2,0.7-0.4,1.1-0.8c0.3-0.2,0.6-0.5,0.9-0.7
					c0.2-0.1,0.3-0.3,0.5-0.4c0.7-0.7,1.4-1.2,2.1-1.7C24.8,43.2,25,43,25.2,42.8c1.1-0.6,2.2-1,3.3-1.2c0,0,0,0,0-0.1
					c0,0,0,0-0.1,0C27.4,41.7,26.2,42.2,25.2,42.8z"/>
			</g>
		</g>
		<g>
			<g>
				<g>
					<g>
						<g class="st20">
							<g>
								<path class="st21" d="M29.1,41.9l-7.9-4.6l-0.1-0.1L29.1,41.9L29.1,41.9z"/>
							</g>
							<g>
								<path class="st22" d="M29.2,41.6c-0.1,0.1-0.1,0.1-0.1,0.2l-7.9-4.6l0.1-0.2L29.2,41.6z"/>
							</g>
							<g>
								<path class="st23" d="M29.4,41.5h-0.1c0,0-0.1,0-0.1,0.1l-8-4.6l0.2-0.1L29.4,41.5z"/>
							</g>
						</g>
					</g>
					<g>
						<polygon class="st24" points="30.3,42.2 30.3,42.3 30.3,42.3 30.3,42.3 30.2,42.3 30.3,42.3 						"/>
					</g>
					<path d="M30.3,42.2L30,42l0,0c0,0,0,0-0.1,0l-0.1,0.1l0,0L30.3,42.2C30.3,42.3,30.3,42.3,30.3,42.2
						C30.3,42.3,30.3,42.3,30.3,42.2z"/>
					<path class="st25" d="M21.7,37h-0.1l-0.1,0.1c0,0.1-0.1,0.1-0.1,0.2v0.1L21,37.1c0,0-0.1,0-0.1-0.1s0-0.1,0.1-0.2
						c0-0.1,0.1-0.1,0.1-0.1h0.1l0,0L21.7,37z"/>
					<path class="st26" d="M29.4,41.5L29.4,41.5L29.4,41.5z"/>
				</g>
				<path class="st27" d="M29.4,41.5L29.4,41.5L29.4,41.5c-0.1,0-0.2,0-0.2,0s0,0,0,0.1l0,0c0,0-0.1,0.1-0.1,0.2l0,0v0.1l0,0
					l0.8,0.3l0,0c0,0,0-0.1,0.1-0.1c0,0,0,0,0.1,0L29.4,41.5z"/>
			</g>
			
				<linearGradient id="SVGID_1_" gradientUnits="userSpaceOnUse" x1="21.7732" y1="3571.1643" x2="21.5925" y2="3571.4897" gradientTransform="matrix(1 0 0 1 0 -3534)">
				<stop  offset="0" style="stop-color:#78ACED"/>
				<stop  offset="1" style="stop-color:#4F7BB3"/>
			</linearGradient>
			<path class="st28" d="M22.1,37.3L22.1,37.3L22.1,37.3L21.7,37l0,0l0,0h-0.1l0,0h-0.1c-0.1,0-0.1,0.1-0.1,0.1
				c0,0.1-0.1,0.1-0.1,0.2c0,0,0,0.1,0.1,0.1h0.1l0,0l0,0l0.3,0.2l0,0l0,0l0.1,0.1l0,0l0,0l0,0c0,0,0,0,0-0.1l0,0v-0.1l0,0l0.1-0.1
				l0,0C22,37.3,22,37.2,22.1,37.3L22.1,37.3L22.1,37.3L22.1,37.3L22.1,37.3z"/>
		</g>
	</g>
</g>
<radialGradient id="SVGID_00000023988880571700680260000001728544508873560459_" cx="-1226.41" cy="6956.8901" r="15.9015" gradientTransform="matrix(1.5353 0 0 0.4819 1907.9073 -3311.0254)" gradientUnits="userSpaceOnUse">
	<stop  offset="0.247" style="stop-color:#B4BCC1"/>
	<stop  offset="0.94" style="stop-color:#ECEEEF;stop-opacity:0"/>
</radialGradient>
<ellipse style="fill:url(#SVGID_00000023988880571700680260000001728544508873560459_);" cx="25" cy="41.5" rx="24.4" ry="7.7"/>
<g>
	<g>
		<g>
			<polygon class="st30" points="28.368,34.522 34.212,37.898 22.068,44.909 16.223,41.535 			"/>
			<polygon class="st31" points="16.223,41.535 16.223,42.333 22.068,45.707 22.068,44.909 			"/>
			<polygon class="st32" points="34.212,37.898 34.212,38.695 22.068,45.707 22.068,44.909 			"/>
		</g>
		<g>
			<path class="st33" d="M28.581,36.294l-4.057-10.89c0.159-0.325,0.254-0.673,0.254-0.993c0-0.758-0.532-1.065-1.188-0.687
				c-0.656,0.379-1.188,1.301-1.188,2.059c0,0.332,0.102,0.577,0.271,0.716l-3.923,15.059l-0.126,0.484l0.252,0.143l1.023-0.591
				l-0.252-0.143l3.897-14.958c0.016-0.008,0.03-0.015,0.046-0.024c0.024-0.014,0.047-0.03,0.071-0.045l3.897,10.461l0.252,0.143
				l1.023-0.591L28.581,36.294z"/>
			<path class="st34" d="M24.777,25.547c0.159-0.325,0.254-0.673,0.254-0.993c0-0.758-0.532-1.065-1.189-0.687
				c-0.656,0.379-1.188,1.301-1.188,2.059c0,0.332,0.102,0.577,0.271,0.716l-4.048,15.543l1.023-0.591l3.897-14.958
				c0.016-0.008,0.03-0.015,0.046-0.024c0.024-0.014,0.047-0.03,0.071-0.045l3.897,10.461l1.023-0.591L24.777,25.547z"/>
		</g>
		<g>
			<path class="st35" d="M19.728,36.725c-3.024,0-4.903-2.421-4.903-6.317c0-5.647,3.979-12.538,8.87-15.363
				c1.387-0.801,2.716-1.207,3.949-1.207c3.024,0,4.903,2.42,4.903,6.317c0,5.647-3.979,12.538-8.87,15.363
				C22.289,36.32,20.961,36.725,19.728,36.725z M27.644,14.404c-1.133,0-2.367,0.381-3.666,1.131
				c-4.736,2.734-8.589,9.407-8.589,14.875c0,3.549,1.662,5.753,4.339,5.753c1.133,0,2.367-0.381,3.666-1.131
				c4.736-2.734,8.589-9.407,8.589-14.875C31.982,16.608,30.32,14.404,27.644,14.404z"/>
		</g>
		<path class="st36" d="M28.235,14.089c-0.099-0.01-0.201-0.016-0.305-0.019l-4.268,10.838l-4.074-5.784
			c-0.063,0.079-0.126,0.158-0.189,0.237l4.1,5.82l-8.353,4.774c-0.006,0.114-0.01,0.228-0.012,0.342l8.267-4.726l-4.295,10.905
			c0.099,0.01,0.201,0.017,0.304,0.02l4.325-10.981l4.116,5.844c0.063-0.079,0.125-0.158,0.187-0.238l-4.118-5.846l8.309-4.749
			c0.005-0.114,0.008-0.227,0.009-0.34l-8.266,4.725L28.235,14.089z"/>
		<g>
			<path class="st37" d="M26.47,27.053c-0.041,0-0.08-0.01-0.117-0.032l-2.656-1.545c-0.112-0.065-0.15-0.209-0.085-0.321
				c0.065-0.112,0.209-0.15,0.321-0.085l2.656,1.544c0.112,0.065,0.15,0.209,0.085,0.321C26.629,27.011,26.551,27.053,26.47,27.053z
				"/>
		</g>
		<g>
			<g>
				<g>
					<path class="st38" d="M20.309,22.037c0.212-0.123,0.561-0.123,0.773,0l0.98,0.566c0.213,0.123,0.213,0.324,0,0.447
						l-1.287,0.743c-0.213,0.123-0.561,0.123-0.775,0l-0.98-0.566c-0.213-0.123-0.213-0.324,0-0.447L20.309,22.037z"/>
					<path class="st39" d="M19.02,22.257l0.453,0.262l0.834-0.482c0.212-0.123,0.561-0.123,0.773,0l0.98,0.566V22.08
						c0.213-0.123,0.213-0.324,0-0.447l-0.98-0.566c-0.212-0.123-0.561-0.123-0.773,0L19.02,21.81
						C18.808,21.933,18.808,22.134,19.02,22.257z"/>
					<path class="st40" d="M22.222,21.867c-0.005,0.078-0.056,0.155-0.158,0.213l-0.323,0.184v0.855l-0.647,0.374v-0.856
						l-0.316,0.185c-0.213,0.123-0.561,0.123-0.775,0l-0.98-0.566c-0.1-0.058-0.154-0.133-0.158-0.21h-0.001v0.951h0.001
						c-0.003,0.084,0.05,0.167,0.159,0.229l0.98,0.566c0.213,0.123,0.561,0.123,0.775,0l1.287-0.743
						c0.106-0.061,0.159-0.142,0.159-0.222l0,0v-0.961h-0.003V21.867z"/>
					<path class="st39" d="M22.216,21.867c-0.005,0.078-0.056,0.155-0.158,0.213l-0.318,0.184v0.855l-0.647,0.374v-0.856
						l-0.322,0.186c-0.113,0.065-0.263,0.095-0.412,0.091v0.97c0.149,0.003,0.299-0.026,0.412-0.091l1.287-0.743
						c0.106-0.061,0.159-0.142,0.159-0.222l0,0v-0.961C22.217,21.867,22.216,21.867,22.216,21.867z"/>
					<path class="st41" d="M21.544,21.334l-0.462-0.266c-0.111-0.064-0.259-0.095-0.405-0.091c-0.134,0.002-0.268,0.033-0.369,0.091
						l-0.779,0.449l-0.608-0.351v0.724v0.288v0.001c0.025,0.028,0.058,0.055,0.099,0.079l0.453,0.262l0,0l0,0l0.527,0.304
						c0.097,0.056,0.222,0.086,0.35,0.091c0.006,0,0.012,0,0.018,0c0.015,0,0.029,0,0.043,0c0.001,0,0.002,0,0.003,0
						c0.016,0,0.03-0.001,0.046-0.002c0.115-0.009,0.226-0.038,0.314-0.089l0.316-0.185v0.379v0.475l0.647-0.374v-0.102v-0.601l0,0
						v-0.152l0.323-0.184c0.042-0.024,0.075-0.051,0.099-0.08v-0.006v-0.282v-0.735L21.544,21.334z"/>
					<path class="st39" d="M22.333,20.732L22.333,20.732v-0.094l-0.025,0.001c-0.027-0.051-0.075-0.099-0.145-0.14l-1.046-0.604
						c-0.227-0.131-0.598-0.131-0.825,0l-1.373,0.793c-0.071,0.041-0.12,0.09-0.147,0.142l-0.024,0.001v0.095l0,0v0.007h0.001
						c0.002,0.084,0.059,0.167,0.169,0.231l1.046,0.604c0.227,0.131,0.598,0.131,0.825,0l1.373-0.793
						C22.279,20.909,22.337,20.82,22.333,20.732z"/>
					<path class="st42" d="M20.293,19.806c0.227-0.131,0.598-0.131,0.825,0l1.046,0.604c0.227,0.131,0.227,0.346,0,0.477
						l-1.373,0.793c-0.227,0.131-0.598,0.131-0.825,0l-1.046-0.604c-0.114-0.065-0.171-0.151-0.171-0.238
						c0-0.086,0.056-0.173,0.171-0.238L20.293,19.806z"/>
					<g>
						<path class="st37" d="M20.543,20.811c-0.038,0-0.069-0.03-0.069-0.069v-0.801c0-0.038,0.032-0.069,0.069-0.069
							c0.038,0,0.069,0.03,0.069,0.069v0.801C20.611,20.78,20.581,20.811,20.543,20.811z"/>
					</g>
				</g>
				<g>
					<path class="st43" d="M22.131,21.042c-0.04,0-0.08-0.01-0.117-0.032l-2.656-1.545c-0.112-0.065-0.15-0.209-0.085-0.321
						c0.065-0.112,0.209-0.15,0.321-0.085l2.656,1.545c0.112,0.065,0.15,0.209,0.085,0.321C22.291,21,22.211,21.042,22.131,21.042z"
						/>
				</g>
			</g>
			<path class="st44" d="M20.611,20.636v0.105c-0.007,0.103-0.14,0.081-0.139,0v-0.185l-0.741-0.428l-0.323,0.186l1.871,1.081
				l0.323-0.186L20.611,20.636z"/>
		</g>
		<g>
			<g>
				<g>
					<path class="st38" d="M16.099,32.911c0.212-0.123,0.561-0.123,0.773,0l0.98,0.566c0.213,0.123,0.213,0.324,0,0.447
						l-1.287,0.743c-0.213,0.123-0.561,0.123-0.773,0l-0.98-0.566c-0.213-0.123-0.213-0.324,0-0.447L16.099,32.911z"/>
					<path class="st45" d="M14.811,33.131l0.453,0.262l0.834-0.481c0.212-0.123,0.561-0.123,0.773,0l0.98,0.566v-0.523
						c0.213-0.123,0.213-0.324,0-0.447l-0.98-0.566c-0.212-0.123-0.561-0.123-0.773,0l-1.287,0.743
						C14.598,32.807,14.598,33.008,14.811,33.131z"/>
					<path class="st46" d="M18.012,32.739c-0.005,0.078-0.056,0.155-0.158,0.213l-0.323,0.184v0.855l-0.647,0.374v-0.855
						l-0.316,0.185c-0.213,0.123-0.561,0.123-0.773,0l-0.98-0.566c-0.1-0.058-0.154-0.133-0.158-0.21h-0.001v0.951h0.001
						c-0.003,0.084,0.05,0.167,0.159,0.229l0.98,0.566c0.212,0.123,0.561,0.123,0.773,0l1.287-0.743
						c0.106-0.061,0.159-0.142,0.159-0.222l0,0v-0.961C18.015,32.739,18.012,32.739,18.012,32.739z"/>
					<path class="st45" d="M18.006,32.741c-0.005,0.078-0.056,0.155-0.158,0.213l-0.318,0.184v0.855l-0.647,0.374v-0.855
						l-0.322,0.186c-0.113,0.065-0.263,0.096-0.412,0.091v0.97c0.149,0.003,0.299-0.026,0.412-0.091l1.287-0.743
						c0.106-0.061,0.159-0.142,0.159-0.222l0,0v-0.961h-0.001V32.741z"/>
					<path class="st41" d="M17.335,32.206l-0.462-0.266c-0.111-0.064-0.259-0.095-0.405-0.091c-0.134,0.002-0.268,0.033-0.369,0.091
						l-0.779,0.449l-0.608-0.351v0.724v0.288v0.001c0.025,0.028,0.058,0.055,0.099,0.079l0.453,0.262l0,0l0,0l0.527,0.304
						c0.097,0.056,0.222,0.086,0.35,0.091c0.006,0,0.012,0,0.018,0c0.015,0,0.029,0,0.043,0c0.001,0,0.002,0,0.003,0
						c0.016,0,0.03-0.001,0.046-0.002c0.115-0.009,0.226-0.038,0.314-0.089l0.316-0.185v0.379v0.475l0.649-0.374V33.89v-0.601l0,0
						v-0.152l0.323-0.184c0.042-0.024,0.075-0.051,0.099-0.079v-0.006v-0.282v-0.735L17.335,32.206z"/>
					<path class="st47" d="M18.124,31.605L18.124,31.605v-0.094l-0.025,0.001c-0.027-0.051-0.076-0.099-0.145-0.14l-1.046-0.604
						c-0.227-0.131-0.598-0.131-0.825,0l-1.373,0.793c-0.071,0.041-0.12,0.09-0.147,0.142l-0.024,0.001v0.095l0,0v0.007h0.001
						c0.002,0.084,0.059,0.167,0.169,0.231l1.046,0.604c0.227,0.131,0.598,0.131,0.825,0l1.373-0.793
						C18.071,31.782,18.127,31.693,18.124,31.605z"/>
					<path class="st48" d="M16.083,30.679c0.227-0.131,0.598-0.131,0.825,0l1.046,0.604c0.227,0.131,0.227,0.346,0,0.477
						l-1.373,0.793c-0.227,0.131-0.598,0.131-0.825,0l-1.046-0.604c-0.114-0.065-0.171-0.151-0.171-0.238
						c0-0.086,0.056-0.173,0.171-0.238L16.083,30.679z"/>
					<g>
						<path class="st37" d="M16.333,31.685c-0.038,0-0.069-0.03-0.069-0.069v-0.801c0-0.038,0.032-0.069,0.069-0.069
							s0.069,0.03,0.069,0.069v0.801C16.402,31.653,16.371,31.685,16.333,31.685z"/>
					</g>
				</g>
				<g>
					<path class="st43" d="M17.922,31.916c-0.04,0-0.08-0.01-0.117-0.032l-2.656-1.545c-0.112-0.065-0.15-0.209-0.085-0.321
						c0.065-0.112,0.209-0.15,0.321-0.085l2.656,1.545c0.112,0.065,0.15,0.209,0.085,0.321
						C18.081,31.875,18.002,31.916,17.922,31.916z"/>
				</g>
			</g>
			<path class="st44" d="M16.402,31.51v0.105c-0.007,0.103-0.14,0.081-0.139,0V31.43l-0.741-0.428l-0.323,0.186l1.871,1.081
				l0.323-0.186L16.402,31.51z"/>
		</g>
		<g>
			<g>
				<g>
					<path class="st38" d="M33.176,23.168c0.212-0.123,0.561-0.123,0.775,0l0.98,0.566c0.213,0.123,0.213,0.324,0,0.447
						l-1.287,0.743c-0.213,0.123-0.561,0.123-0.775,0l-0.98-0.566c-0.213-0.123-0.213-0.324,0-0.447L33.176,23.168z"/>
					<path class="st45" d="M31.889,23.389l0.453,0.262l0.834-0.482c0.212-0.123,0.561-0.123,0.775,0l0.98,0.566v-0.523
						c0.213-0.123,0.213-0.324,0-0.447l-0.98-0.566c-0.213-0.123-0.561-0.123-0.775,0l-1.287,0.743
						C31.675,23.065,31.675,23.266,31.889,23.389z"/>
					<path class="st46" d="M35.089,22.998c-0.005,0.078-0.056,0.155-0.158,0.213l-0.323,0.184v0.855l-0.647,0.374v-0.855
						l-0.316,0.185c-0.213,0.123-0.561,0.123-0.775,0l-0.98-0.566c-0.1-0.059-0.154-0.133-0.158-0.21h-0.001v0.951h0.001
						c-0.003,0.084,0.05,0.167,0.159,0.229l0.98,0.566c0.213,0.123,0.561,0.123,0.775,0l1.287-0.743
						c0.106-0.061,0.159-0.142,0.159-0.222l0,0v-0.961C35.092,22.998,35.089,22.998,35.089,22.998z"/>
					<path class="st45" d="M35.083,22.998c-0.005,0.078-0.056,0.155-0.158,0.213l-0.318,0.184v0.855l-0.647,0.374v-0.855
						l-0.322,0.186c-0.113,0.065-0.263,0.095-0.412,0.091v0.97c0.149,0.003,0.299-0.026,0.412-0.091l1.287-0.743
						c0.106-0.061,0.159-0.142,0.159-0.222l0,0L35.083,22.998L35.083,22.998z"/>
					<path class="st41" d="M34.412,22.465l-0.462-0.266c-0.111-0.064-0.259-0.095-0.405-0.091c-0.134,0.002-0.268,0.033-0.369,0.091
						l-0.779,0.449l-0.608-0.351v0.724v0.288v0.001c0.025,0.028,0.058,0.055,0.099,0.079l0.453,0.262l0,0l0,0l0.527,0.304
						c0.097,0.056,0.222,0.086,0.35,0.091c0.006,0,0.012,0,0.018,0.001c0.015,0,0.028,0,0.043,0c0.001,0,0.002,0,0.003,0
						c0.016,0,0.03-0.001,0.046-0.002c0.115-0.009,0.226-0.038,0.314-0.089l0.316-0.185v0.379v0.475l0.648-0.374V24.15v-0.601l0,0
						v-0.152l0.323-0.184c0.042-0.024,0.075-0.051,0.099-0.079v-0.006v-0.282V22.11L34.412,22.465z"/>
					<path class="st47" d="M35.201,21.863L35.201,21.863v-0.094l-0.025,0.001c-0.027-0.051-0.076-0.099-0.145-0.14l-1.046-0.604
						c-0.227-0.131-0.598-0.131-0.825,0l-1.373,0.793c-0.071,0.041-0.12,0.09-0.147,0.142l-0.024,0.001v0.095l0,0v0.007h0.001
						c0.002,0.084,0.059,0.167,0.169,0.231l1.046,0.604c0.227,0.131,0.598,0.131,0.825,0l1.373-0.793
						C35.147,22.04,35.204,21.951,35.201,21.863z"/>
					<path class="st48" d="M33.16,20.937c0.227-0.131,0.598-0.131,0.825,0l1.046,0.604c0.227,0.131,0.227,0.346,0,0.477
						l-1.373,0.793c-0.227,0.131-0.598,0.131-0.825,0l-1.046-0.604c-0.114-0.065-0.171-0.151-0.171-0.238
						c0-0.086,0.056-0.173,0.171-0.238L33.16,20.937z"/>
					<g>
						<path class="st37" d="M33.41,21.943c-0.038,0-0.069-0.03-0.069-0.069v-0.801c0-0.038,0.032-0.069,0.069-0.069
							c0.038,0,0.069,0.03,0.069,0.069v0.801C33.48,21.912,33.448,21.943,33.41,21.943z"/>
					</g>
				</g>
				<g>
					<path class="st43" d="M34.998,22.174c-0.04,0-0.08-0.01-0.117-0.032l-2.656-1.545c-0.112-0.065-0.15-0.209-0.085-0.321
						c0.065-0.112,0.209-0.15,0.321-0.085l2.656,1.545c0.112,0.065,0.15,0.209,0.085,0.322
						C35.158,22.132,35.08,22.174,34.998,22.174z"/>
				</g>
			</g>
			<path class="st44" d="M33.48,21.768v0.105c-0.007,0.103-0.14,0.081-0.139,0v-0.185L32.6,21.26l-0.323,0.186l1.871,1.081
				l0.323-0.186L33.48,21.768z"/>
		</g>
		<g>
			<g>
				<g>
					<path class="st38" d="M28.868,34.1c0.212-0.123,0.561-0.123,0.773,0l0.98,0.566c0.213,0.123,0.213,0.324,0,0.447l-1.287,0.743
						c-0.213,0.123-0.561,0.123-0.773,0l-0.98-0.566c-0.213-0.123-0.213-0.324,0-0.447L28.868,34.1z"/>
					<path class="st49" d="M27.581,34.32l0.453,0.262l0.834-0.482c0.212-0.123,0.561-0.123,0.773,0l0.98,0.566v-0.523
						c0.213-0.123,0.213-0.324,0-0.447l-0.98-0.566c-0.213-0.123-0.561-0.123-0.773,0l-1.287,0.743
						C27.367,33.996,27.367,34.197,27.581,34.32z"/>
					<path class="st40" d="M30.781,33.93c-0.005,0.078-0.056,0.155-0.158,0.213L30.3,34.327v0.855l-0.648,0.374v-0.855l-0.316,0.185
						c-0.213,0.123-0.561,0.123-0.773,0l-0.98-0.566c-0.1-0.058-0.152-0.133-0.158-0.21h-0.001v0.951h0.001
						c-0.003,0.084,0.05,0.167,0.159,0.229l0.98,0.566c0.212,0.123,0.561,0.123,0.773,0l1.287-0.743
						c0.106-0.061,0.159-0.142,0.159-0.222l0,0V33.93C30.783,33.93,30.781,33.93,30.781,33.93z"/>
					<path class="st39" d="M30.776,33.93c-0.005,0.078-0.056,0.155-0.158,0.213L30.3,34.327v0.855l-0.648,0.374v-0.855l-0.322,0.186
						c-0.113,0.065-0.263,0.096-0.412,0.091v0.97c0.149,0.003,0.299-0.026,0.412-0.091l1.287-0.743
						c0.106-0.061,0.159-0.142,0.159-0.222l0,0v-0.961l0,0V33.93z"/>
					<path class="st41" d="M30.104,33.396l-0.462-0.266c-0.111-0.064-0.259-0.095-0.405-0.091c-0.134,0.002-0.268,0.033-0.369,0.091
						l-0.779,0.449l-0.608-0.351v0.724v0.288v0.001c0.025,0.028,0.059,0.055,0.099,0.079l0.453,0.262l0,0l0,0l0.527,0.304
						c0.097,0.056,0.222,0.086,0.35,0.091c0.006,0,0.012,0,0.018,0c0.015,0,0.029,0,0.043,0c0.001,0,0.002,0,0.003,0
						c0.016,0,0.03-0.001,0.046-0.002c0.115-0.009,0.226-0.038,0.314-0.089l0.316-0.185v0.379v0.475l0.648-0.374v-0.102v-0.601l0,0
						v-0.152l0.323-0.184c0.042-0.024,0.075-0.051,0.099-0.079v-0.006v-0.282V33.04L30.104,33.396z"/>
					<path class="st39" d="M30.894,32.794L30.894,32.794V32.7l-0.025,0.001c-0.027-0.051-0.075-0.099-0.145-0.14l-1.046-0.604
						c-0.227-0.131-0.598-0.131-0.825,0L27.48,32.75c-0.071,0.041-0.12,0.09-0.147,0.142l-0.024,0.001v0.095l0,0v0.007h0.001
						c0.002,0.084,0.059,0.167,0.169,0.231l1.046,0.604c0.227,0.131,0.598,0.131,0.825,0l1.373-0.793
						C30.84,32.971,30.896,32.883,30.894,32.794z"/>
					<path class="st42" d="M28.852,31.868c0.227-0.131,0.598-0.131,0.825,0l1.046,0.604c0.227,0.131,0.227,0.346,0,0.477
						l-1.373,0.793c-0.227,0.131-0.598,0.131-0.825,0l-1.046-0.604c-0.114-0.065-0.171-0.151-0.171-0.238
						c0-0.086,0.056-0.173,0.171-0.238L28.852,31.868z"/>
					<g>
						<path class="st37" d="M29.103,32.874c-0.038,0-0.069-0.03-0.069-0.069v-0.801c0-0.038,0.03-0.069,0.069-0.069
							s0.069,0.03,0.069,0.069v0.801C29.172,32.843,29.14,32.874,29.103,32.874z"/>
					</g>
				</g>
				<g>
					<path class="st43" d="M30.691,33.105c-0.04,0-0.08-0.01-0.117-0.032l-2.656-1.545c-0.112-0.065-0.15-0.209-0.085-0.321
						c0.065-0.112,0.209-0.15,0.321-0.085l2.656,1.545c0.112,0.065,0.15,0.209,0.085,0.321
						C30.851,33.064,30.772,33.105,30.691,33.105z"/>
				</g>
			</g>
			<path class="st44" d="M29.172,32.699v0.106c-0.007,0.103-0.14,0.081-0.139,0V32.62l-0.741-0.428l-0.323,0.185l1.871,1.081
				l0.323-0.186L29.172,32.699z"/>
		</g>
		<g>
			<g>
				<g>
					<path class="st38" d="M20.162,39.214c0.212-0.123,0.561-0.123,0.773,0l0.98,0.566c0.213,0.123,0.213,0.324,0,0.447
						l-1.287,0.743c-0.213,0.123-0.561,0.123-0.775,0l-0.98-0.566c-0.213-0.123-0.213-0.324,0-0.447L20.162,39.214z"/>
					<path class="st49" d="M18.874,39.434l0.453,0.262l0.834-0.482c0.212-0.123,0.561-0.123,0.773,0l0.98,0.566v-0.523
						c0.213-0.123,0.213-0.324,0-0.447l-0.98-0.566c-0.212-0.123-0.561-0.123-0.773,0l-1.287,0.743
						C18.661,39.11,18.661,39.311,18.874,39.434z"/>
					<path class="st50" d="M22.074,39.044c-0.005,0.078-0.056,0.155-0.158,0.213l-0.323,0.184v0.855l-0.647,0.374v-0.855L20.629,40
						c-0.213,0.123-0.561,0.123-0.775,0l-0.98-0.566c-0.1-0.059-0.154-0.133-0.158-0.21h-0.001v0.951h0.001
						c-0.003,0.084,0.05,0.167,0.159,0.229l0.98,0.566c0.213,0.123,0.561,0.123,0.775,0l1.287-0.743
						c0.106-0.061,0.159-0.142,0.159-0.222l0,0v-0.961C22.077,39.044,22.074,39.044,22.074,39.044z"/>
					<path class="st51" d="M22.069,39.044c-0.005,0.078-0.056,0.155-0.158,0.213l-0.318,0.184v0.855l-0.647,0.374v-0.855
						l-0.322,0.186c-0.113,0.065-0.263,0.095-0.412,0.091v0.97c0.149,0.003,0.299-0.026,0.412-0.091l1.287-0.743
						c0.106-0.061,0.159-0.142,0.159-0.222l0,0v-0.961h-0.001V39.044z"/>
					<path class="st41" d="M21.397,38.51l-0.462-0.266c-0.111-0.064-0.259-0.095-0.405-0.091c-0.134,0.002-0.268,0.033-0.369,0.091
						l-0.779,0.449l-0.608-0.351v0.724v0.288v0.001c0.025,0.028,0.058,0.055,0.099,0.079l0.453,0.262l0,0l0,0l0.527,0.304
						c0.097,0.056,0.222,0.086,0.35,0.091c0.006,0,0.012,0,0.018,0c0.015,0,0.029,0,0.043,0c0.001,0,0.002,0,0.003,0
						c0.016,0,0.03-0.001,0.046-0.002c0.115-0.009,0.226-0.038,0.314-0.089l0.316-0.185v0.379v0.475l0.647-0.374v-0.102v-0.601l0,0
						V39.44l0.323-0.184c0.042-0.024,0.075-0.051,0.099-0.08V39.17v-0.282v-0.735L21.397,38.51z"/>
					<path class="st52" d="M22.187,37.908L22.187,37.908v-0.094l-0.025,0.001c-0.027-0.051-0.075-0.099-0.145-0.14l-1.046-0.603
						c-0.227-0.131-0.598-0.131-0.825,0l-1.373,0.793c-0.071,0.041-0.12,0.09-0.147,0.142l-0.024,0.001v0.095l0,0v0.007h0.001
						c0.002,0.084,0.059,0.167,0.169,0.231l1.046,0.603c0.227,0.131,0.598,0.131,0.825,0l1.373-0.793
						C22.132,38.085,22.189,37.996,22.187,37.908z"/>
					<path class="st53" d="M20.146,36.982c0.227-0.131,0.598-0.131,0.825,0l1.046,0.603c0.227,0.131,0.227,0.346,0,0.477
						l-1.373,0.793c-0.227,0.131-0.598,0.131-0.825,0l-1.046-0.604c-0.114-0.065-0.171-0.151-0.171-0.238
						c0-0.086,0.056-0.173,0.171-0.238L20.146,36.982z"/>
					<g>
						<path class="st37" d="M20.396,37.988c-0.038,0-0.069-0.03-0.069-0.069v-0.801c0-0.038,0.032-0.069,0.069-0.069
							c0.038,0,0.069,0.03,0.069,0.069v0.801C20.465,37.957,20.434,37.988,20.396,37.988z"/>
					</g>
				</g>
				<g>
					<path class="st43" d="M21.985,38.219c-0.04,0-0.081-0.01-0.117-0.032l-2.656-1.545c-0.112-0.065-0.15-0.209-0.085-0.321
						c0.065-0.112,0.209-0.15,0.321-0.085l2.656,1.545c0.112,0.065,0.15,0.209,0.085,0.321
						C22.144,38.178,22.065,38.219,21.985,38.219z"/>
				</g>
			</g>
			<path class="st44" d="M20.465,37.813v0.106c-0.007,0.103-0.14,0.081-0.139,0v-0.185l-0.741-0.428l-0.322,0.185l1.871,1.081
				l0.323-0.186L20.465,37.813z"/>
		</g>
		<g>
			<g>
				<g>
					<path class="st38" d="M28.982,16.924c0.212-0.123,0.561-0.123,0.773,0l0.98,0.566c0.213,0.123,0.213,0.324,0,0.447
						l-1.287,0.743c-0.213,0.123-0.561,0.123-0.775,0l-0.98-0.566c-0.213-0.123-0.213-0.324,0-0.447L28.982,16.924z"/>
					<path class="st49" d="M27.695,17.144l0.453,0.262l0.834-0.482c0.212-0.123,0.561-0.123,0.773,0l0.98,0.566v-0.523
						c0.213-0.123,0.213-0.324,0-0.447l-0.98-0.566c-0.212-0.123-0.561-0.123-0.773,0l-1.287,0.743
						C27.481,16.821,27.481,17.022,27.695,17.144z"/>
					<path class="st50" d="M30.895,16.754c-0.005,0.078-0.056,0.155-0.158,0.213l-0.323,0.184v0.855l-0.647,0.374v-0.855
						l-0.316,0.185c-0.213,0.123-0.561,0.123-0.775,0l-0.98-0.566c-0.1-0.059-0.152-0.133-0.158-0.21h-0.001v0.951h0.001
						c-0.003,0.084,0.05,0.167,0.159,0.229l0.98,0.566c0.212,0.123,0.561,0.123,0.775,0l1.287-0.743
						c0.106-0.061,0.159-0.142,0.159-0.222l0,0v-0.961C30.898,16.754,30.895,16.754,30.895,16.754z"/>
					<path class="st51" d="M30.89,16.754c-0.005,0.078-0.056,0.155-0.158,0.213l-0.318,0.184v0.855l-0.647,0.374v-0.855
						l-0.322,0.186c-0.113,0.065-0.263,0.095-0.412,0.091v0.97c0.149,0.003,0.299-0.026,0.412-0.091l1.287-0.743
						c0.106-0.061,0.159-0.142,0.159-0.222l0,0v-0.961H30.89V16.754z"/>
					<path class="st41" d="M30.219,16.221l-0.462-0.266c-0.111-0.064-0.259-0.095-0.405-0.091c-0.134,0.002-0.268,0.033-0.369,0.091
						l-0.779,0.449l-0.608-0.351v0.724v0.288v0.001c0.025,0.028,0.059,0.055,0.099,0.079l0.453,0.262l0,0l0,0l0.527,0.304
						c0.097,0.056,0.222,0.086,0.35,0.091c0.006,0,0.012,0,0.018,0c0.015,0,0.029,0,0.043,0c0.001,0,0.002,0,0.003,0
						c0.016,0,0.03-0.001,0.046-0.002c0.115-0.009,0.226-0.038,0.314-0.089l0.316-0.185v0.379v0.475l0.648-0.374v-0.102v-0.601l0,0
						v-0.152l0.323-0.184c0.042-0.024,0.075-0.051,0.099-0.079v-0.006V16.6v-0.736L30.219,16.221z"/>
					<path class="st52" d="M31.008,15.619L31.008,15.619v-0.094l-0.025,0.001c-0.027-0.051-0.075-0.099-0.145-0.14l-1.046-0.603
						c-0.227-0.131-0.598-0.131-0.825,0l-1.373,0.793c-0.071,0.041-0.12,0.09-0.147,0.142l-0.024,0.001v0.095l0,0v0.007h0.001
						c0.002,0.084,0.059,0.167,0.169,0.231l1.046,0.604c0.227,0.131,0.598,0.131,0.825,0l1.373-0.793
						C30.954,15.796,31.01,15.707,31.008,15.619z"/>
					<path class="st53" d="M28.966,14.693c0.227-0.131,0.598-0.131,0.825,0l1.046,0.604c0.227,0.131,0.227,0.346,0,0.477
						l-1.373,0.793c-0.227,0.131-0.598,0.131-0.825,0l-1.046-0.604c-0.114-0.065-0.171-0.151-0.171-0.238
						c0-0.086,0.056-0.173,0.171-0.238L28.966,14.693z"/>
					<g>
						<path class="st37" d="M29.216,15.699c-0.038,0-0.069-0.03-0.069-0.069v-0.802c0-0.038,0.03-0.069,0.069-0.069
							s0.069,0.03,0.069,0.069v0.801C29.286,15.667,29.254,15.699,29.216,15.699z"/>
					</g>
				</g>
				<g>
					<path class="st43" d="M30.805,15.93c-0.04,0-0.081-0.01-0.117-0.032l-2.656-1.545c-0.112-0.065-0.15-0.209-0.085-0.321
						c0.065-0.112,0.209-0.15,0.321-0.085l2.656,1.545c0.112,0.065,0.15,0.209,0.085,0.322C30.965,15.889,30.886,15.93,30.805,15.93
						z"/>
				</g>
			</g>
			<path class="st44" d="M29.286,15.524v0.105c-0.007,0.103-0.14,0.081-0.139,0v-0.185l-0.741-0.428l-0.323,0.186l1.871,1.081
				l0.323-0.186L29.286,15.524z"/>
		</g>
		<g>
			<path class="st54" d="M31.148,15.688c-0.099-0.01-0.201-0.016-0.305-0.019l-4.268,10.838l-4.074-5.784
				c-0.063,0.079-0.126,0.158-0.189,0.237l4.1,5.82l-8.353,4.774c-0.006,0.114-0.01,0.228-0.012,0.342l8.267-4.726L22.02,38.075
				c0.099,0.01,0.201,0.017,0.304,0.02l4.325-10.981l4.116,5.844c0.063-0.079,0.125-0.158,0.187-0.238l-4.118-5.846l8.309-4.749
				c0.005-0.114,0.008-0.227,0.009-0.34l-8.266,4.725L31.148,15.688z"/>
			<g>
				<path class="st55" d="M22.642,38.324c-3.024,0-4.903-2.42-4.903-6.317c0-5.647,3.979-12.538,8.87-15.363
					c1.387-0.801,2.715-1.207,3.949-1.207c3.024,0,4.903,2.42,4.903,6.317c0,5.647-3.979,12.538-8.87,15.363
					C25.203,37.919,23.875,38.324,22.642,38.324z M30.557,16.003c-1.133,0-2.367,0.381-3.666,1.131
					c-4.736,2.734-8.589,9.407-8.589,14.875c0,3.549,1.663,5.753,4.339,5.753c1.133,0,2.367-0.381,3.666-1.131
					c4.736-2.734,8.589-9.407,8.589-14.875C34.897,18.207,33.233,16.003,30.557,16.003z"/>
			</g>
		</g>
		<g>
			<g>
				<path class="st33" d="M31.325,37.87l-4.057-10.89c0.159-0.325,0.254-0.673,0.254-0.993c0-0.758-0.532-1.065-1.188-0.687
					c-0.656,0.379-1.189,1.301-1.189,2.059c0,0.332,0.102,0.577,0.271,0.716l-3.923,15.059l-0.126,0.484l0.252,0.143l1.023-0.591
					l-0.252-0.143l3.897-14.958c0.016-0.008,0.03-0.015,0.046-0.024c0.024-0.014,0.047-0.03,0.071-0.045l3.897,10.461l0.252,0.143
					l1.023-0.591L31.325,37.87z"/>
				<polygon class="st56" points="26.488,28.222 26.658,28.144 30.555,38.604 30.303,38.461 				"/>
				<path class="st57" d="M27.521,27.124c0.159-0.325,0.254-0.673,0.254-0.993c0-0.758-0.532-1.065-1.189-0.687
					c-0.656,0.379-1.188,1.301-1.188,2.059c0,0.332,0.102,0.577,0.271,0.716L21.62,43.763l1.023-0.591l3.897-14.958
					c0.016-0.008,0.03-0.015,0.046-0.024c0.024-0.014,0.047-0.03,0.071-0.045l3.897,10.461l1.023-0.591L27.521,27.124z"/>
			</g>
			<path class="st37" d="M26.656,26.224c0.259-0.149,0.467-0.028,0.467,0.27s-0.209,0.661-0.467,0.81
				c-0.259,0.149-0.467,0.028-0.467-0.27S26.397,26.373,26.656,26.224z"/>
			<path class="st58" d="M26.55,26.37c0.259-0.149,0.467-0.028,0.467,0.27c0,0.157-0.059,0.332-0.152,0.484
				c0.152-0.177,0.257-0.418,0.257-0.629c0-0.298-0.209-0.419-0.467-0.27c-0.122,0.07-0.233,0.19-0.315,0.325
				C26.404,26.477,26.474,26.413,26.55,26.37z"/>
		</g>
	</g>
</g>
</svg>
