<?xml version="1.0" encoding="utf-8"?>
<!-- Generator: Adobe Illustrator 26.0.1, SVG Export Plug-In . SVG Version: 6.00 Build 0)  -->
<svg version="1.1" id="Layer_1" xmlns="http://www.w3.org/2000/svg" xmlns:xlink="http://www.w3.org/1999/xlink" x="0px" y="0px"
	 viewBox="0 0 50 50" style="enable-background:new 0 0 50 50;" xml:space="preserve">
<style type="text/css">
	.st0{display:none;}
	.st1{display:inline;}
	.st2{fill:#344593;}
	.st3{fill:#3E54A3;}
	.st4{fill:#2E4490;}
	.st5{fill:#122571;}
	.st6{opacity:0.5;fill:#031F60;enable-background:new    ;}
	.st7{fill:#BBDFFF;}
	.st8{fill:#FDB724;}
	.st9{fill:#E7478D;}
	.st10{fill:#BF2878;}
	.st11{fill:#27DEBF;}
	.st12{fill:#1BBC9D;}
	.st13{fill:#A33D64;}
	.st14{fill:#82294D;}
	.st15{fill:#0A4A80;}
	.st16{fill:#F1FCFF;}
	.st17{fill:#D6E6FF;}
	.st18{fill:#CEF3FF;}
	.st19{fill:#606060;}
	.st20{enable-background:new    ;}
	.st21{fill:#F19729;}
	.st22{fill:#FCB040;}
	.st23{fill:#FFCB49;}
	.st24{fill:#2E5677;}
	.st25{fill:#FF51CE;}
	.st26{fill:#EDE6A0;}
	.st27{fill:#FFF7B0;}
	.st28{fill:url(#SVGID_1_);}
	.st29{fill:url(#SVGID_00000074402297734200464570000014798277920170530190_);}
	.st30{fill-rule:evenodd;clip-rule:evenodd;fill:#EC933B;}
	.st31{fill-rule:evenodd;clip-rule:evenodd;fill:#D15527;}
	.st32{fill-rule:evenodd;clip-rule:evenodd;fill:#1081B5;}
	.st33{fill-rule:evenodd;clip-rule:evenodd;fill:#5EC1E2;}
	.st34{fill-rule:evenodd;clip-rule:evenodd;fill:#006EA1;}
	.st35{fill-rule:evenodd;clip-rule:evenodd;fill:#375987;}
	.st36{fill-rule:evenodd;clip-rule:evenodd;fill:#B4C4D4;}
	.st37{fill-rule:evenodd;clip-rule:evenodd;fill:#F99F3C;}
	.st38{fill-rule:evenodd;clip-rule:evenodd;fill:#BA4217;}
	.st39{fill-rule:evenodd;clip-rule:evenodd;fill:#8BA3BA;}
	.st40{fill-rule:evenodd;clip-rule:evenodd;fill:#68849E;}
</style>
<g id="Example" class="st0">
	<g class="st1">
		<g id="XMLID_4903_">
			<path id="XMLID_4905_" class="st2" d="M45.3,33.2v-4.6l0,0c0-0.9-0.6-1.8-1.7-2.4c-2.3-1.3-6-1.3-8.4,0c-1.2,0.7-1.7,1.6-1.7,2.4
				l0,0v4.5c0,0.9,0.6,1.8,1.7,2.4c2.3,1.3,6,1.3,8.4,0C44.8,34.9,45.3,34.1,45.3,33.2L45.3,33.2L45.3,33.2L45.3,33.2z"/>
			<path id="XMLID_4904_" class="st2" d="M45.3,33.2v-4.6l0,0c0-0.9-0.6-1.8-1.7-2.4c-2.3-1.3-6-1.3-8.4,0c-1.2,0.7-1.7,1.6-1.7,2.4
				l0,0v4.5c0,0.9,0.6,1.8,1.7,2.4c2.3,1.3,6,1.3,8.4,0C44.8,34.9,45.3,34.1,45.3,33.2L45.3,33.2L45.3,33.2L45.3,33.2z"/>
		</g>
		<polygon id="XMLID_4900_" class="st3" points="39.4,23 29.7,28.6 39.4,34.2 49.2,28.6 		"/>
		<path id="XMLID_4899_" class="st4" d="M44.3,31.4l-4.8-2.7c-0.1,0-0.2,0-0.2,0.1s0,0.2,0.1,0.2l4.6,2.6L44.3,31.4z"/>
		<polygon id="XMLID_4896_" class="st5" points="29.7,28.6 29.7,29 39.4,34.6 39.4,34.2 		"/>
		<polygon id="XMLID_4883_" class="st4" points="49.2,28.6 49.2,29 39.4,34.6 39.4,34.2 		"/>
		<polygon id="XMLID_4876_" class="st6" points="33.5,31.2 39.4,35.2 45.3,31.2 39.4,34.6 		"/>
		<g id="XMLID_4823_">
			<path id="XMLID_4835_" class="st7" d="M44.7,36.2c-0.1,0-0.2-0.1-0.2-0.2v-4c0-0.2-0.1-0.4-0.3-0.4l-4.9-2.8
				c-0.1,0-0.1-0.2-0.1-0.2c0-0.1,0.2-0.1,0.2-0.1l4.9,2.8c0.3,0.2,0.4,0.4,0.4,0.7v4C44.8,36.1,44.7,36.2,44.7,36.2z"/>
		</g>
		<path class="st8" d="M45.3,39.3L45,36.6c0.1-0.1,0.1-0.2,0-0.2l0,0l0,0l0,0v-0.1l0,0l0,0l0,0c0-0.2-0.2-0.4-0.4-0.4c0,0,0,0-0.1,0
			l0,0l0,0c0,0,0,0-0.1,0c0,0,0,0-0.1,0c0,0,0,0-0.1,0c0,0,0,0,0,0.1l0,0v0.1c0,0.1,0,0.2,0.1,0.3l0,0c-0.1,0.1,0,0.2,0,0.2L44,39.3
			c0,0.1,0.1,0.2,0.3,0.3l0,0h0.1l0,0c0.1,0,0.2,0.1,0.3,0.1l0,0l0,0l0,0l0,0l0,0c0.1,0,0.2,0,0.3-0.1l0,0h0.1l0,0
			C45.3,39.5,45.3,39.4,45.3,39.3z"/>
	</g>
	<g id="XMLID_3738_" class="st1">
		<path id="XMLID_4404_" class="st9" d="M12.4,36.1c1.1-0.8,1.8-2.7,1.7-4c-0.1-1.4-1.2-2-1.7-2.3l0,0c-1.1-0.6-2.8-0.6-3.9,0l0,0
			C8,30.1,7,30.7,6.8,32.1c-0.1,1.3,0.6,3.2,1.7,4l0,0c0.1,0,0.1,0.1,0.2,0.1c1,0.6,2.6,0.6,3.6,0l0,0
			C12.3,36.2,12.4,36.1,12.4,36.1L12.4,36.1z"/>
		<path id="XMLID_4395_" class="st10" d="M9.9,30.8c-0.3,0.2-0.3,0.4,0,0.6s0.8,0.2,1.1,0s0.3-0.4,0-0.6
			C10.7,30.6,10.2,30.6,9.9,30.8z"/>
		<g id="XMLID_4426_">
			<path id="XMLID_2198_" class="st11" d="M10.5,31.2c0,0-0.9,0-1.4-0.7s0-1.9,0-1.9s1.1,0.1,1.7,1C11.2,30.4,10.5,31.2,10.5,31.2z"
				/>
			<path id="XMLID_4431_" class="st12" d="M9,30.5c0.5,0.7,1.4,0.7,1.4,0.7C10.3,29.6,9,28.6,9,28.6S8.5,29.8,9,30.5z"/>
		</g>
		<path id="XMLID_4403_" class="st13" d="M10.5,31.2c0,0,0-1.3,0.7-1.9s1.2-0.6,1.2-0.6c0.4,0,0.9,0.4,0.7,0.4c0,0-0.9,0-1.5,0.5
			s-0.9,1.5-0.9,1.6c0,0,0,0.1-0.1,0.1C10.5,31.3,10.5,31.2,10.5,31.2z"/>
		<path id="XMLID_4496_" class="st14" d="M12.4,28.7c-0.1,0-0.1,0.1,0.2,0.3c0.2,0.1,0.4,0.2,0.5,0.2l0,0
			C13.3,29,12.8,28.7,12.4,28.7z"/>
	</g>
	<g class="st1">
		<g>
			<path class="st15" d="M26,28.8L26,28.8c-1,0.6-1.9,1-2.8,1.2l0,0c0,0,0,0-0.1,0l-0.5,0.2h-0.1c-0.1,0-0.2,0.1-0.3,0.1h-0.1
				c-0.1,0-0.2,0.1-0.2,0.1h-0.1c-0.5,0.2-0.9,0.4-1.4,0.7c-0.1,0.1-0.2,0.1-0.3,0.2L20,31.4c-0.4,0.3-2,1.5-2.9,2.5l-0.6,0.6
				L16,34.6c-1,0.2-2,0.5-3,1.1c-0.1,0.1-0.2,0.1-0.3,0.2c-0.3,0.2-0.5,0.3-0.8,0.5l0,0l-0.1,0.1c-0.1,0.1-0.2,0.1-0.3,0.2l0,0l0,0
				c-0.4,0.3-0.9,0.7-1.3,1.1c-0.1,0.1-0.2,0.2-0.3,0.3c-0.3,0.3-0.7,0.6-1,0.9H8.8c-0.3,0.3-0.7,0.5-1,0.8
				c-0.2,0.2-0.5,0.3-0.7,0.5H7l13.7,8.3h0.1c0.8-0.5,1.7-1.2,2.5-1.9c0.5-0.5,1.1-0.9,1.7-1.4c1.2-0.9,2.3-1.5,3.2-1.8
				c0.7-0.3,1.4-0.5,2.1-0.6l0.5-0.6c0.7-0.7,1.5-1.3,2.4-1.8c1.5-1,3.2-1.8,4.9-2.5c0.6-0.2,1.2-0.5,1.6-0.7l0.2-0.1L26,28.8z"/>
			<g>
				<g>
					<g>
						<path class="st16" d="M39.1,36.7c-0.5,0.3-0.7,0.4-1.2,0.6c-0.3,0.1-0.5,0.2-0.8,0.3c-0.2,0.1-0.3,0.1-0.5,0.1
							c-0.7,0.2-1.4,0.4-2,0.8c-0.2,0.1-0.4,0.2-0.6,0.3c-1.3,0.8-2.6,2-3.9,3.5l-2.5-1.5l-11-6.7c1.3-1.5,2.6-2.7,3.9-3.5
							c0.2-0.1,0.4-0.2,0.6-0.3c0.7-0.4,1.4-0.6,2-0.8c0.2,0,0.3-0.1,0.5-0.1c0.3-0.1,0.5-0.2,0.8-0.3c0.5-0.2,0.7-0.3,1.2-0.6
							L39.1,36.7z"/>
						<g>
							<path class="st16" d="M30.1,42.3c-1.3,0.1-2.6,0.5-3.9,1.3c-0.2,0.1-0.4,0.2-0.6,0.4c-0.7,0.5-1.4,1-2,1.7
								c-0.2,0.2-0.3,0.3-0.5,0.4c-0.3,0.3-0.6,0.5-0.9,0.7c-0.5,0.4-0.8,0.6-1.3,0.9L7.5,39.5C8,39.2,8.3,39,8.8,38.6
								c0.3-0.2,0.6-0.5,0.9-0.7c0.2-0.1,0.3-0.3,0.5-0.4c0.7-0.6,1.4-1.2,2-1.7c0.2-0.1,0.4-0.3,0.6-0.4c1.3-0.8,2.6-1.2,3.9-1.3
								l11,6.7L30.1,42.3z"/>
						</g>
					</g>
					<polygon class="st17" points="7.5,39.5 7.3,40.3 20.7,48.5 20.9,47.7 					"/>
					<path class="st18" d="M39.4,37.1c-0.9,0.6-1.8,1-2.7,1.2c0,0,0,0-0.1,0s-0.2,0-0.3,0.1c-0.1,0-0.2,0.1-0.3,0.1
						s-0.2,0.1-0.3,0.1c-0.6,0.2-1.2,0.5-1.8,0.9c-0.1,0.1-0.2,0.1-0.3,0.2c-1,0.7-2,1.5-3,2.5L30,42.8l-0.6,0.1c-1,0.2-2,0.5-3,1.1
						c-0.1,0.1-0.2,0.1-0.3,0.2c-0.3,0.2-0.5,0.3-0.8,0.5c-0.6,0.4-1.1,0.9-1.7,1.4c-0.1,0.1-0.2,0.2-0.3,0.3
						c-0.9,0.9-1.8,1.6-2.7,2.2l0.2-0.8c0.5-0.3,0.8-0.5,1.3-0.9c0.3-0.2,0.6-0.5,0.9-0.7c0.2-0.1,0.3-0.3,0.5-0.4
						c0.7-0.6,1.4-1.2,2-1.7c0.2-0.1,0.4-0.3,0.6-0.4c1.3-0.8,2.6-1.2,3.9-1.3c1.3-1.5,2.6-2.7,3.9-3.5c0.2-0.1,0.4-0.2,0.6-0.3
						c0.7-0.4,1.4-0.6,2-0.8c0.2,0,0.3-0.1,0.5-0.1c0.3-0.1,0.5-0.2,0.8-0.3c0.5-0.2,0.7-0.3,1.2-0.6L39.4,37.1z"/>
				</g>
			</g>
			<g>
				<path class="st19" d="M17.8,34.6C17.9,34.6,17.9,34.6,17.8,34.6c1.2-1.4,2.5-2.5,3.7-3.2c0.2-0.1,0.4-0.2,0.5-0.3
					c0.7-0.3,1.3-0.6,2-0.8c0.2,0,0.3-0.1,0.5-0.1c0.3-0.1,0.5-0.2,0.8-0.3c0.4-0.2,0.7-0.3,1.1-0.5c0,0,0,0,0-0.1s0,0-0.1,0
					c-0.4,0.2-0.6,0.3-1,0.5c-0.3,0.1-0.5,0.2-0.8,0.3c-0.2,0.1-0.3,0.1-0.5,0.1c-0.7,0.2-1.3,0.4-2,0.8c-0.2,0.1-0.4,0.2-0.6,0.3
					C20.3,32.1,19,33.2,17.8,34.6C17.8,34.5,17.8,34.6,17.8,34.6L17.8,34.6z"/>
				<path class="st19" d="M25.4,30.6c-0.2,0.1-0.3,0.1-0.5,0.1c-0.7,0.2-1.3,0.4-2,0.8c-0.2,0.1-0.4,0.2-0.6,0.3
					c-1.2,0.7-2.5,1.8-3.7,3.2v0.1l0,0l0,0c1.2-1.4,2.5-2.5,3.7-3.2c0.2-0.1,0.4-0.2,0.6-0.3c0.7-0.4,1.3-0.6,2-0.8
					C25.1,30.8,25.3,30.7,25.4,30.6c0.3,0,0.6-0.1,0.8-0.2c0.4-0.2,0.6-0.3,1-0.5c0,0,0,0,0-0.1c0,0,0,0-0.1,0
					c-0.4,0.2-0.6,0.3-1,0.5C25.9,30.4,25.7,30.5,25.4,30.6z"/>
				<path class="st19" d="M26.2,31.1c-0.2,0.1-0.3,0.1-0.5,0.1c-0.7,0.2-1.3,0.4-2,0.8c-0.2,0.1-0.4,0.2-0.6,0.3
					c-1.2,0.7-2.5,1.8-3.7,3.2v0.1l0,0l0,0c1.2-1.4,2.5-2.5,3.7-3.2c0.2-0.1,0.4-0.2,0.6-0.3c0.7-0.4,1.4-0.6,2-0.8
					C25.9,31.3,26.1,31.2,26.2,31.1c0.3,0,0.6-0.1,0.8-0.2c0.4-0.2,0.6-0.3,1-0.5c0,0,0,0,0-0.1c0,0,0,0-0.1,0
					c-0.4,0.2-0.6,0.3-1,0.5C26.8,30.9,26.5,31,26.2,31.1z"/>
				<path class="st19" d="M27.1,31.5c-0.2,0.1-0.3,0.1-0.5,0.1c-0.7,0.2-1.3,0.4-2,0.8c-0.2,0.1-0.4,0.2-0.6,0.3
					c-1.2,0.7-2.5,1.8-3.7,3.2V36l0,0l0,0c1.2-1.4,2.5-2.5,3.7-3.2c0.2-0.1,0.4-0.2,0.6-0.3c0.7-0.4,1.4-0.6,2-0.8
					C26.7,31.7,26.9,31.7,27.1,31.5c0.3,0,0.6-0.1,0.8-0.2c0.4-0.2,0.6-0.3,1-0.5c0,0,0,0,0-0.1c0,0,0,0-0.1,0
					c-0.4,0.2-0.6,0.3-1,0.5C27.6,31.4,27.3,31.5,27.1,31.5z"/>
				<path class="st19" d="M27.9,32c-0.2,0.1-0.3,0.1-0.5,0.1c-0.7,0.2-1.4,0.4-2,0.8c-0.2,0.1-0.4,0.2-0.6,0.3
					c-1.2,0.7-2.5,1.9-3.7,3.2v0.1l0,0l0,0c1.2-1.4,2.5-2.5,3.7-3.2c0.2-0.1,0.4-0.2,0.6-0.3c0.7-0.4,1.4-0.6,2-0.8
					C27.6,32.2,27.8,32.2,27.9,32c0.3,0,0.6-0.1,0.8-0.2c0.4-0.2,0.6-0.3,1-0.5c0,0,0,0,0-0.1c0,0,0,0-0.1,0c-0.4,0.2-0.6,0.3-1,0.5
					C28.4,31.8,28.1,31.9,27.9,32z"/>
				<path class="st19" d="M28.7,32.5c-0.2,0.1-0.3,0.1-0.5,0.1c-0.7,0.2-1.4,0.4-2,0.8c-0.2,0.1-0.4,0.2-0.6,0.3
					c-1.2,0.7-2.5,1.9-3.7,3.2V37l0,0l0,0c1.2-1.4,2.5-2.5,3.7-3.2c0.2-0.1,0.4-0.2,0.6-0.3c0.7-0.4,1.4-0.6,2-0.8
					C28.4,32.7,28.6,32.6,28.7,32.5c0.3,0,0.6-0.1,0.8-0.2c0.4-0.2,0.6-0.3,1-0.5c0,0,0,0,0-0.1c0,0,0,0-0.1,0
					c-0.3,0.2-0.6,0.3-0.9,0.5C29.2,32.3,29,32.4,28.7,32.5z"/>
				<path class="st19" d="M29.6,33c-0.2,0.1-0.3,0.1-0.5,0.1c-0.7,0.2-1.4,0.4-2.1,0.8c-0.2,0.1-0.4,0.2-0.6,0.3
					c-1.2,0.7-2.5,1.9-3.8,3.3v0.1l0,0l0,0c1.2-1.4,2.5-2.5,3.7-3.2c0.2-0.1,0.4-0.2,0.6-0.3c0.7-0.4,1.4-0.6,2-0.8
					C29.2,33.2,29.4,33.1,29.6,33c0.3,0,0.6-0.1,0.8-0.2c0.4-0.2,0.6-0.3,0.9-0.5c0,0,0,0,0-0.1c0,0,0,0-0.1,0
					c-0.3,0.2-0.5,0.3-0.9,0.4C30.1,32.8,29.8,32.9,29.6,33z"/>
				<path class="st19" d="M30.4,33.5c-0.2,0.1-0.3,0.1-0.5,0.1c-0.7,0.2-1.4,0.4-2.1,0.8c-0.2,0.1-0.4,0.2-0.6,0.3
					c-1.2,0.7-2.5,1.9-3.8,3.3v0.1l0,0l0,0c1.2-1.4,2.5-2.5,3.7-3.2c0.2-0.1,0.4-0.2,0.6-0.3c0.7-0.4,1.4-0.6,2-0.8
					C30.1,33.7,30.2,33.6,30.4,33.5c0.3,0,0.5-0.1,0.8-0.2c0.4-0.2,0.6-0.3,0.9-0.4c0,0,0,0,0-0.1c0,0,0,0-0.1,0
					c-0.3,0.2-0.5,0.3-0.9,0.4C30.9,33.3,30.6,33.4,30.4,33.5z"/>
				<path class="st19" d="M31.2,33.9C31,34,30.9,34,30.7,34.1c-0.7,0.2-1.4,0.4-2.1,0.8c-0.2,0.1-0.4,0.2-0.6,0.3
					c-1.2,0.7-2.5,1.9-3.8,3.3v0.1l0,0l0,0c1.2-1.4,2.5-2.5,3.8-3.3c0.2-0.1,0.4-0.2,0.6-0.3c0.7-0.4,1.4-0.6,2-0.8
					C30.9,34.1,31.1,34.1,31.2,33.9c0.3,0,0.5-0.1,0.8-0.2c0.4-0.2,0.6-0.2,0.9-0.4c0,0,0,0,0-0.1c0,0,0,0-0.1,0
					c-0.3,0.2-0.5,0.3-0.9,0.4C31.7,33.8,31.5,33.9,31.2,33.9z"/>
				<path class="st19" d="M32,34.4c-0.2,0.1-0.3,0.1-0.5,0.1c-0.7,0.2-1.4,0.4-2.1,0.8c-0.2,0.1-0.4,0.2-0.6,0.3
					c-1.2,0.7-2.6,1.9-3.8,3.3V39l0,0l0,0c1.2-1.4,2.5-2.5,3.8-3.3c0.2-0.1,0.4-0.2,0.6-0.3c0.7-0.4,1.4-0.6,2-0.8
					C31.7,34.6,31.9,34.6,32,34.4c0.3,0,0.5-0.1,0.8-0.2c0.4-0.2,0.6-0.2,0.9-0.4c0,0,0,0,0-0.1c0,0,0,0-0.1,0
					c-0.3,0.2-0.5,0.3-0.9,0.4C32.6,34.2,32.3,34.3,32,34.4z"/>
				<path class="st19" d="M32.9,34.9C32.7,35,32.6,35,32.4,35c-0.7,0.2-1.4,0.4-2.1,0.8c-0.2,0.1-0.4,0.2-0.6,0.3
					c-1.2,0.8-2.6,1.9-3.8,3.3v0.1l0,0l0,0c1.2-1.4,2.5-2.5,3.8-3.3c0.2-0.1,0.4-0.2,0.6-0.3c0.7-0.4,1.4-0.6,2.1-0.8
					C32.6,35.1,32.7,35,32.9,34.9c0.3,0,0.5-0.1,0.8-0.2c0.3-0.1,0.6-0.2,0.9-0.4c0,0,0,0,0-0.1c0,0,0,0-0.1,0
					c-0.3,0.2-0.5,0.3-0.8,0.4C33.4,34.7,33.1,34.8,32.9,34.9z"/>
				<path class="st19" d="M33.7,35.4c-0.2,0.1-0.3,0.1-0.5,0.1c-0.7,0.2-1.4,0.4-2.1,0.8c-0.2,0.1-0.4,0.2-0.6,0.3
					c-1.2,0.8-2.6,1.9-3.8,3.3V40l0,0l0,0c1.2-1.4,2.6-2.5,3.8-3.3c0.2-0.1,0.4-0.2,0.6-0.3c0.7-0.4,1.4-0.6,2.1-0.8
					C33.4,35.6,33.6,35.5,33.7,35.4c0.3,0,0.5-0.1,0.8-0.2c0.3-0.1,0.5-0.2,0.8-0.4c0,0,0,0,0-0.1c0,0,0,0-0.1,0
					c-0.3,0.2-0.5,0.3-0.8,0.4C34.2,35.2,34,35.3,33.7,35.4z"/>
				<path class="st19" d="M34.5,35.8c-0.2,0.1-0.3,0.1-0.5,0.1c-0.7,0.2-1.4,0.4-2.1,0.8c-0.2,0.1-0.4,0.2-0.6,0.3
					c-1.3,0.8-2.6,1.9-3.8,3.3v0.1l0,0l0,0c1.2-1.4,2.6-2.6,3.8-3.3c0.2-0.1,0.4-0.2,0.6-0.3c0.7-0.4,1.4-0.6,2.1-0.8
					C34.2,36,34.4,36,34.5,35.8c0.3,0,0.5-0.1,0.8-0.2c0.3-0.1,0.5-0.2,0.8-0.4c0,0,0,0,0-0.1c0,0,0,0-0.1,0
					c-0.3,0.2-0.5,0.2-0.8,0.4C35,35.7,34.8,35.8,34.5,35.8z"/>
				<path class="st19" d="M35.4,36.3c-0.2,0.1-0.3,0.1-0.5,0.1c-0.7,0.2-1.4,0.4-2.1,0.8c-0.2,0.1-0.4,0.2-0.6,0.3
					c-1.3,0.8-2.6,1.9-3.8,3.3v0.1l0,0l0,0c1.3-1.4,2.6-2.6,3.8-3.3c0.2-0.1,0.4-0.2,0.6-0.3c0.7-0.4,1.4-0.6,2.1-0.8
					C35.1,36.5,35.2,36.5,35.4,36.3c0.3,0,0.5-0.1,0.8-0.2c0.3-0.1,0.5-0.2,0.8-0.4c0,0,0,0,0-0.1c0,0,0,0-0.1,0
					c-0.2,0.1-0.4,0.2-0.8,0.4C35.9,36.2,35.6,36.2,35.4,36.3z"/>
				<path class="st19" d="M37.7,36.2c-0.3,0.1-0.5,0.2-0.8,0.4c-0.3,0.1-0.5,0.2-0.8,0.3C35.9,37,35.8,37,35.6,37
					c-0.7,0.2-1.4,0.4-2.1,0.8c-0.2,0.1-0.4,0.2-0.6,0.3c-1.3,0.8-2.6,1.9-3.9,3.3v0.1l0,0l0,0c1.3-1.4,2.6-2.6,3.8-3.3
					c0.2-0.1,0.4-0.2,0.6-0.3c0.7-0.4,1.4-0.6,2.1-0.8c0.2,0,0.3-0.1,0.5-0.1c0.2-0.1,0.5-0.2,0.8-0.3
					C37.3,36.5,37.5,36.4,37.7,36.2C37.8,36.3,37.8,36.2,37.7,36.2C37.8,36.2,37.7,36.2,37.7,36.2z"/>
				<path class="st19" d="M10.6,38.6c0.2-0.1,0.3-0.3,0.5-0.4c0.7-0.6,1.3-1.2,2-1.7c0.2-0.1,0.4-0.2,0.6-0.4
					c1.2-0.7,2.5-1.2,3.7-1.3c0,0,0,0,0-0.1c0,0,0,0-0.1,0c-1.2,0.1-2.5,0.5-3.7,1.3c-0.2,0.1-0.4,0.2-0.6,0.4c-0.7,0.5-1.4,1-2,1.7
					C10.9,38.3,10.7,38.4,10.6,38.6c-0.4,0.2-0.7,0.4-0.9,0.7c-0.4,0.3-0.7,0.5-1,0.7c0,0,0,0,0,0.1l0,0l0,0c0.3-0.2,0.6-0.4,1-0.7
					S10.3,38.9,10.6,38.6z"/>
				<path class="st19" d="M11.5,39.1c0.2-0.1,0.3-0.3,0.5-0.4c0.7-0.6,1.3-1.2,2-1.7c0.2-0.1,0.4-0.2,0.6-0.4
					c1.2-0.7,2.5-1.2,3.7-1.2c0,0,0,0,0-0.1c0,0,0-0.1-0.1,0c-1.2,0.1-2.5,0.5-3.7,1.3c-0.2,0.1-0.4,0.2-0.6,0.4
					c-0.7,0.5-1.4,1-2,1.7C11.7,38.8,11.6,38.9,11.5,39.1c-0.4,0.2-0.7,0.4-0.9,0.7c-0.4,0.3-0.7,0.5-1,0.7c0,0,0,0,0,0.1l0,0l0,0
					c0.3-0.2,0.6-0.4,1-0.7C10.9,39.6,11.2,39.4,11.5,39.1z"/>
				<path class="st19" d="M12.3,39.6c0.2-0.1,0.3-0.3,0.5-0.4c0.7-0.6,1.3-1.2,2-1.7c0.2-0.1,0.4-0.3,0.6-0.4
					c1.2-0.7,2.4-1.2,3.6-1.2c0,0,0,0,0-0.1s0,0-0.1,0c-1.2,0.1-2.5,0.5-3.7,1.3c-0.2,0.1-0.4,0.2-0.6,0.4c-0.7,0.5-1.4,1-2,1.7
					C12.5,39.2,12.4,39.4,12.3,39.6c-0.4,0.2-0.7,0.4-0.9,0.7c-0.4,0.3-0.7,0.5-1,0.7c0,0,0,0,0,0.1l0,0l0,0c0.3-0.2,0.6-0.4,1-0.7
					C11.7,40.1,12,39.9,12.3,39.6z"/>
				<path class="st19" d="M13.1,40.1c0.2-0.1,0.3-0.3,0.5-0.4c0.7-0.6,1.3-1.2,2-1.7c0.2-0.1,0.4-0.3,0.6-0.4
					c1.2-0.7,2.4-1.1,3.6-1.2c0,0,0,0,0-0.1c0,0,0,0-0.1,0c-1.2,0.1-2.4,0.5-3.6,1.3c-0.2,0.1-0.4,0.2-0.6,0.4c-0.7,0.5-1.4,1-2,1.7
					C13.3,39.7,13.2,39.9,13.1,40.1c-0.4,0.2-0.6,0.4-0.9,0.7c-0.4,0.3-0.7,0.5-1,0.7c0,0,0,0,0,0.1l0,0l0,0c0.3-0.2,0.6-0.4,1-0.7
					C12.5,40.6,12.8,40.4,13.1,40.1z"/>
				<path class="st19" d="M13.9,40.6c0.2-0.1,0.3-0.3,0.5-0.4c0.7-0.6,1.3-1.2,2-1.7c0.2-0.1,0.4-0.3,0.6-0.4
					c1.2-0.7,2.4-1.1,3.6-1.2c0,0,0,0,0-0.1c0,0,0,0-0.1,0c-1.2,0.1-2.4,0.5-3.6,1.3c-0.2,0.1-0.4,0.2-0.6,0.4c-0.7,0.5-1.4,1-2,1.7
					C14.2,40.2,14,40.4,13.9,40.6c-0.4,0.2-0.6,0.4-0.9,0.7c-0.4,0.3-0.7,0.5-1,0.7c0,0,0,0,0,0.1l0,0l0,0c0.3-0.2,0.6-0.4,1-0.7
					C13.3,41.1,13.6,40.8,13.9,40.6z"/>
				<path class="st19" d="M14.7,41.1c0.2-0.1,0.3-0.3,0.5-0.4c0.7-0.6,1.3-1.2,2-1.7c0.2-0.1,0.4-0.3,0.6-0.4
					c1.2-0.7,2.4-1.1,3.5-1.2c0,0,0,0,0-0.1c0,0,0,0-0.1,0c-1.2,0.1-2.4,0.6-3.6,1.3c-0.2,0.1-0.4,0.2-0.6,0.4c-0.7,0.5-1.4,1-2,1.7
					C15,40.7,14.8,40.8,14.7,41.1c-0.4,0.2-0.6,0.4-0.9,0.7c-0.4,0.3-0.7,0.5-1,0.7c0,0,0,0,0,0.1l0,0l0,0c0.3-0.2,0.6-0.4,1-0.7
					S14.4,41.3,14.7,41.1z"/>
				<path class="st19" d="M15.6,41.5c0.2-0.1,0.3-0.3,0.5-0.4c0.7-0.6,1.3-1.2,2-1.7c0.2-0.1,0.4-0.3,0.6-0.4
					c1.1-0.7,2.4-1.1,3.5-1.2c0,0,0,0,0-0.1s0,0-0.1,0c-1.2,0.1-2.4,0.6-3.5,1.3c-0.2,0.1-0.4,0.2-0.6,0.4c-0.7,0.5-1.4,1-2,1.7
					C15.8,41.2,15.6,41.3,15.6,41.5c-0.4,0.2-0.6,0.4-0.9,0.7c-0.4,0.3-0.7,0.5-1,0.7c0,0,0,0,0,0.1l0,0l0,0c0.3-0.2,0.6-0.4,1-0.7
					C15,42.1,15.3,41.8,15.6,41.5z"/>
				<path class="st19" d="M16.4,42c0.2-0.1,0.3-0.3,0.5-0.4c0.7-0.6,1.3-1.2,2-1.7c0.2-0.1,0.4-0.3,0.6-0.4c1.1-0.7,2.3-1.1,3.5-1.2
					c0,0,0,0,0-0.1s0,0-0.1,0c-1.2,0.1-2.4,0.6-3.5,1.3c-0.2,0.1-0.4,0.2-0.6,0.4c-0.7,0.5-1.4,1-2.1,1.7
					C16.6,41.7,16.5,41.8,16.4,42c-0.4,0.2-0.6,0.4-0.9,0.7c-0.4,0.3-0.7,0.5-1,0.7c0,0,0,0,0,0.1l0,0l0,0c0.3-0.2,0.6-0.4,1.1-0.7
					C15.8,42.5,16.1,42.3,16.4,42z"/>
				<path class="st19" d="M17.2,42.5c0.2-0.1,0.3-0.3,0.5-0.4c0.7-0.6,1.4-1.2,2-1.7c0.2-0.1,0.4-0.3,0.6-0.4
					c1.1-0.7,2.3-1.1,3.4-1.2c0,0,0,0,0-0.1s0,0-0.1,0c-1.1,0.1-2.3,0.6-3.5,1.3c-0.2,0.1-0.4,0.2-0.6,0.4c-0.7,0.5-1.4,1-2.1,1.7
					C17.4,42.2,17.3,42.3,17.2,42.5c-0.4,0.2-0.6,0.4-0.9,0.6c-0.4,0.3-0.7,0.5-1.1,0.7c0,0,0,0,0,0.1l0,0l0,0
					c0.3-0.2,0.6-0.4,1.1-0.8C16.6,43,16.9,42.8,17.2,42.5z"/>
				<path class="st19" d="M18,43c0.2-0.1,0.3-0.3,0.5-0.4c0.7-0.6,1.4-1.2,2-1.7c0.2-0.1,0.4-0.3,0.6-0.4c1.1-0.7,2.3-1.1,3.4-1.2
					c0,0,0,0,0-0.1s0,0-0.1,0c-1.1,0.1-2.3,0.6-3.5,1.3c-0.2,0.1-0.4,0.2-0.6,0.4c-0.7,0.5-1.4,1.1-2.1,1.7
					C18.3,42.6,18.1,42.8,18,43c-0.4,0.2-0.6,0.4-0.9,0.6c-0.4,0.3-0.7,0.6-1.1,0.8c0,0,0,0,0,0.1l0,0l0,0c0.3-0.2,0.7-0.4,1.1-0.8
					C17.4,43.5,17.7,43.3,18,43z"/>
				<path class="st19" d="M18.8,43.5c0.2-0.1,0.3-0.3,0.5-0.4c0.7-0.6,1.4-1.2,2-1.7c0.2-0.1,0.4-0.3,0.6-0.4
					c1.1-0.7,2.3-1.1,3.4-1.2c0,0,0,0,0-0.1c0,0,0,0-0.1,0c-1.1,0.1-2.3,0.6-3.4,1.3c-0.2,0.1-0.4,0.2-0.6,0.4
					c-0.7,0.5-1.4,1.1-2.1,1.7C19.1,43.1,18.9,43.3,18.8,43.5c-0.4,0.2-0.6,0.4-0.9,0.6c-0.4,0.3-0.7,0.6-1.1,0.8c0,0,0,0,0,0.1l0,0
					l0,0c0.3-0.2,0.7-0.4,1.1-0.8C18.3,44,18.5,43.7,18.8,43.5z"/>
				<path class="st19" d="M19.6,44c0.2-0.1,0.3-0.3,0.5-0.4c0.7-0.6,1.4-1.2,2.1-1.7c0.2-0.1,0.4-0.3,0.6-0.4
					c1.1-0.7,2.3-1.1,3.4-1.2c0,0,0,0,0-0.1c0,0,0,0-0.1,0c-1.1,0.2-2.3,0.6-3.4,1.3c-0.2,0.1-0.4,0.2-0.6,0.4
					c-0.7,0.5-1.4,1.1-2.1,1.7C19.9,43.6,19.7,43.8,19.6,44c-0.4,0.2-0.6,0.4-0.9,0.6c-0.4,0.3-0.8,0.6-1.1,0.8c0,0,0,0,0,0.1l0,0
					l0,0c0.3-0.2,0.7-0.4,1.1-0.8C19.1,44.5,19.4,44.2,19.6,44z"/>
				<path class="st19" d="M20.5,44.5c0.2-0.1,0.3-0.3,0.5-0.4c0.7-0.6,1.4-1.2,2.1-1.7c0.2-0.1,0.4-0.3,0.6-0.4
					c1.1-0.7,2.2-1.1,3.3-1.2c0,0,0,0,0-0.1c0,0,0,0-0.1,0c-1.1,0.2-2.3,0.6-3.4,1.3c-0.2,0.1-0.4,0.2-0.6,0.4
					c-0.7,0.5-1.4,1.1-2.1,1.7C20.7,44.1,20.5,44.2,20.5,44.5c-0.4,0.2-0.6,0.4-0.9,0.6c-0.4,0.3-0.8,0.6-1.1,0.8c0,0,0,0,0,0.1l0,0
					l0,0c0.3-0.2,0.7-0.4,1.1-0.8C19.9,45,20.2,44.7,20.5,44.5z"/>
				<path class="st19" d="M21.3,44.9c0.2-0.1,0.3-0.3,0.5-0.4c0.7-0.7,1.4-1.2,2.1-1.7c0.2-0.1,0.4-0.3,0.6-0.4
					c1.1-0.6,2.2-1.1,3.3-1.2c0,0,0,0,0-0.1c0,0,0,0-0.1,0c-1.1,0.2-2.3,0.6-3.3,1.3c-0.2,0.1-0.4,0.2-0.6,0.4
					c-0.7,0.5-1.4,1.1-2.1,1.7C21.5,44.6,21.4,44.7,21.3,44.9c-0.4,0.2-0.6,0.4-0.9,0.6c-0.4,0.3-0.8,0.6-1.1,0.8c0,0,0,0,0,0.1l0,0
					l0,0c0.4-0.2,0.7-0.4,1.1-0.8C20.7,45.4,21,45.2,21.3,44.9z"/>
				<path class="st19" d="M25.2,42.8c-0.2,0.1-0.4,0.2-0.6,0.4c-0.7,0.5-1.4,1.1-2.1,1.7c-0.2,0.1-0.3,0.3-0.5,0.4
					c-0.3,0.3-0.6,0.5-0.9,0.7c-0.4,0.3-0.8,0.6-1.1,0.8c0,0,0,0,0,0.1l0,0l0,0c0.4-0.2,0.7-0.4,1.1-0.8c0.3-0.2,0.6-0.5,0.9-0.7
					c0.2-0.1,0.3-0.3,0.5-0.4c0.7-0.7,1.4-1.2,2.1-1.7C24.8,43.2,25,43,25.2,42.8c1.1-0.6,2.2-1,3.3-1.2c0,0,0,0,0-0.1
					c0,0,0,0-0.1,0C27.4,41.7,26.2,42.2,25.2,42.8z"/>
			</g>
		</g>
		<g>
			<g>
				<g>
					<g>
						<g class="st20">
							<g>
								<path class="st21" d="M29.1,41.9l-7.9-4.6l-0.1-0.1L29.1,41.9L29.1,41.9z"/>
							</g>
							<g>
								<path class="st22" d="M29.2,41.6c-0.1,0.1-0.1,0.1-0.1,0.2l-7.9-4.6l0.1-0.2L29.2,41.6z"/>
							</g>
							<g>
								<path class="st23" d="M29.4,41.5h-0.1c0,0-0.1,0-0.1,0.1l-8-4.6l0.2-0.1L29.4,41.5z"/>
							</g>
						</g>
					</g>
					<g>
						<polygon class="st24" points="30.3,42.2 30.3,42.3 30.3,42.3 30.3,42.3 30.2,42.3 30.3,42.3 						"/>
					</g>
					<path d="M30.3,42.2L30,42l0,0c0,0,0,0-0.1,0l-0.1,0.1l0,0L30.3,42.2C30.3,42.3,30.3,42.3,30.3,42.2
						C30.3,42.3,30.3,42.3,30.3,42.2z"/>
					<path class="st25" d="M21.7,37h-0.1l-0.1,0.1c0,0.1-0.1,0.1-0.1,0.2v0.1L21,37.1c0,0-0.1,0-0.1-0.1s0-0.1,0.1-0.2
						c0-0.1,0.1-0.1,0.1-0.1h0.1l0,0L21.7,37z"/>
					<path class="st26" d="M29.4,41.5L29.4,41.5L29.4,41.5z"/>
				</g>
				<path class="st27" d="M29.4,41.5L29.4,41.5L29.4,41.5c-0.1,0-0.2,0-0.2,0s0,0,0,0.1l0,0c0,0-0.1,0.1-0.1,0.2l0,0v0.1l0,0
					l0.8,0.3l0,0c0,0,0-0.1,0.1-0.1c0,0,0,0,0.1,0L29.4,41.5z"/>
			</g>
			
				<linearGradient id="SVGID_1_" gradientUnits="userSpaceOnUse" x1="21.7732" y1="2263.1643" x2="21.5925" y2="2263.4897" gradientTransform="matrix(1 0 0 1 0 -2226)">
				<stop  offset="0" style="stop-color:#78ACED"/>
				<stop  offset="1" style="stop-color:#4F7BB3"/>
			</linearGradient>
			<path class="st28" d="M22.1,37.3L22.1,37.3L22.1,37.3L21.7,37l0,0l0,0h-0.1l0,0h-0.1c-0.1,0-0.1,0.1-0.1,0.1
				c0,0.1-0.1,0.1-0.1,0.2c0,0,0,0.1,0.1,0.1h0.1l0,0l0,0l0.3,0.2l0,0l0,0l0.1,0.1l0,0l0,0l0,0c0,0,0,0,0-0.1l0,0v-0.1l0,0l0.1-0.1
				l0,0C22,37.3,22,37.2,22.1,37.3L22.1,37.3L22.1,37.3L22.1,37.3L22.1,37.3z"/>
		</g>
	</g>
</g>
<radialGradient id="SVGID_00000095339602933577261030000014757124426958198414_" cx="-718.0616" cy="4081.3662" r="15.9018" gradientTransform="matrix(-1.5353 0 0 0.4819 -1077.4399 -1925.3104)" gradientUnits="userSpaceOnUse">
	<stop  offset="0.4351" style="stop-color:#B4BCC1"/>
	<stop  offset="0.94" style="stop-color:#ECEEEF;stop-opacity:0"/>
</radialGradient>
<ellipse style="fill:url(#SVGID_00000095339602933577261030000014757124426958198414_);" cx="25" cy="41.5" rx="24.4" ry="7.7"/>
<g>
	<g id="Arm">
		<g>
			<polygon class="st30" points="32.112,40.969 24.643,45.48 24.627,39.613 32.098,35.108 			"/>
			<polygon class="st31" points="11.537,37.98 11.524,32.113 24.627,39.613 24.643,45.48 			"/>
			<polygon class="st32" points="34.157,37.343 25.759,42.406 25.741,35.405 34.14,30.349 			"/>
			<polygon class="st33" points="18.5,21.397 10.1,26.453 25.741,35.405 34.14,30.349 			"/>
			<polygon class="st34" points="10.119,33.456 10.1,26.453 11.263,27.119 11.27,28.108 20.053,32.148 25.741,35.403 25.759,42.406 
							"/>
			<path class="st33" d="M25.255,36.25L25.255,36.25c0,0.27-0.17,0.385-0.381,0.264l-4.12-2.37
				c-0.211-0.121-0.381-0.445-0.381-0.714l0,0c0-0.27,0.17-0.385,0.381-0.264l4.12,2.37C25.085,35.657,25.255,35.981,25.255,36.25z"
				/>
			<path class="st35" d="M25.255,36.251L25.255,36.251c0,0.098-0.022,0.176-0.061,0.229c-0.058,0.014-0.129,0.002-0.206-0.043
				l-4.12-2.37c-0.211-0.121-0.381-0.445-0.381-0.714l0,0c0-0.099,0.022-0.177,0.061-0.23c0.058-0.016,0.129-0.002,0.206,0.043
				l4.12,2.37C25.085,35.657,25.255,35.981,25.255,36.251z"/>
			<path class="st34" d="M20.665,33.286l4.12,2.37c0.211,0.121,0.381,0.445,0.381,0.714l0,0c0,0.041-0.005,0.079-0.013,0.114
				c-0.05,0.001-0.107-0.014-0.167-0.049l-4.12-2.37c-0.211-0.121-0.381-0.445-0.381-0.714l0,0c0-0.042,0.005-0.081,0.013-0.116
				C20.548,33.234,20.605,33.251,20.665,33.286z"/>
			<g>
				<polygon class="st32" points="20.512,27.007 19.681,27.508 19.672,23.921 20.503,23.424 				"/>
				<polygon class="st33" points="18.175,22.092 17.344,22.588 19.672,23.921 20.503,23.424 				"/>
				<polygon class="st34" points="17.354,26.175 17.344,22.588 19.672,23.921 19.681,27.508 				"/>
			</g>
			<g>
				<polygon class="st32" points="20.512,27.007 20.11,27.25 19.68,27.004 19.672,23.921 20.503,23.424 				"/>
				<polygon class="st33" points="18.175,22.092 17.344,22.588 19.672,23.921 20.503,23.424 				"/>
			</g>
			<polygon class="st32" points="23.721,27.808 22.89,28.309 22.881,21.524 23.712,21.027 			"/>
			<polygon class="st33" points="15.256,16.187 14.424,16.684 22.881,21.524 23.712,21.027 			"/>
			<polygon class="st34" points="14.434,23.469 14.424,16.684 22.881,21.524 22.89,28.309 			"/>
			<polygon class="st33" points="14.971,23.212 14.964,17.518 22.344,21.746 22.35,27.441 			"/>
			<polygon class="st32" points="15.656,22.767 14.971,23.212 14.964,17.518 15.612,17.889 			"/>
			<polygon class="st36" points="15.154,23.079 15.147,17.623 22.344,21.746 22.35,27.202 			"/>
			<path class="st35" d="M29.773,30.76c0-1-1.313-1.815-2.923-1.815s-2.923,0.815-2.923,1.815s1.313,1.815,2.923,1.815
				C28.459,32.575,29.772,31.76,29.773,30.76z"/>
			<g>
				<path class="st37" d="M29.498,17.785c-0.55-1.292-1.659-2.134-2.477-1.882s-1.034,1.504-0.483,2.796
					c0.55,1.292,1.659,2.135,2.477,1.882C29.832,20.328,30.048,19.076,29.498,17.785z"/>
				<path class="st38" d="M29.26,17.917c-0.55-1.292-1.659-2.135-2.477-1.882c-0.818,0.252-1.034,1.504-0.483,2.796
					c0.55,1.292,1.659,2.135,2.477,1.882C29.595,20.461,29.811,19.209,29.26,17.917z"/>
			</g>
			<path class="st38" d="M29.773,30.555c0-1-1.313-1.815-2.923-1.815s-2.923,0.815-2.923,1.815s1.313,1.815,2.923,1.815
				C28.459,32.37,29.772,31.555,29.773,30.555z"/>
			<path class="st37" d="M29.761,30.234c0-1-1.313-1.815-2.923-1.815s-2.923,0.815-2.923,1.815s1.313,1.815,2.923,1.815
				S29.761,31.234,29.761,30.234z"/>
			<polygon class="st33" points="26.634,17.939 29.518,19.268 27.431,20.454 24.547,19.125 			"/>
			<polygon class="st32" points="29.504,19.266 29.504,30.558 27.417,31.744 27.417,20.452 			"/>
			<polygon class="st35" points="25.096,18.792 26.084,18.23 28.968,19.558 27.98,20.12 28.968,19.558 28.968,23.71 28.961,23.713 
				28.968,23.716 27.98,24.278 27.98,24.271 27.98,24.271 27.98,20.12 			"/>
			<polygon class="st34" points="27.431,20.452 24.307,18.677 24.307,29.969 27.431,31.744 			"/>
			<polygon class="st33" points="28.976,23.711 27.984,24.276 27.984,23.321 			"/>
			<g>
				<path class="st37" d="M42.193,22.113c-0.364-0.855-1.098-1.413-1.639-1.246c-0.542,0.167-0.684,0.996-0.32,1.851
					c0.364,0.855,1.098,1.413,1.639,1.246C42.414,23.798,42.558,22.969,42.193,22.113z"/>
				<path class="st38" d="M42.035,22.202c-0.364-0.855-1.098-1.413-1.639-1.246c-0.542,0.167-0.684,0.996-0.32,1.851
					c0.364,0.855,1.098,1.413,1.639,1.246C42.256,23.886,42.4,23.057,42.035,22.202z"/>
			</g>
			<g>
				<path class="st37" d="M37.58,12.856c-0.507-1.188-1.525-1.961-2.276-1.729c-0.751,0.233-0.949,1.383-0.444,2.569
					c0.507,1.188,1.525,1.961,2.276,1.729C37.886,15.194,38.084,14.044,37.58,12.856z"/>
				<path class="st38" d="M37.362,12.978c-0.507-1.188-1.525-1.961-2.276-1.729c-0.751,0.233-0.949,1.383-0.444,2.569
					c0.507,1.186,1.525,1.961,2.276,1.729S37.867,14.165,37.362,12.978z"/>
			</g>
			<path class="st33" d="M34.385,14.55l5.345,9.029c1.759,1.348,2.902-0.319,1.596-2.736l-4.229-7.83
				C36.015,11.011,32.816,11.901,34.385,14.55z"/>
			<polygon class="st34" points="36.121,13.603 33.729,14.961 39.644,23.424 41.104,22.595 			"/>
			<polygon class="st34" points="25.176,21.393 24.153,18.057 33.925,12.497 35.579,15.474 			"/>
			<path class="st35" d="M34.366,12.132c0.709-0.141,1.592,0.18,2.068,1.06l0.073,0.135l0.261-0.149l-0.04-0.075
				C36.184,12.096,35.106,11.821,34.366,12.132z"/>
			<path class="st35" d="M40.762,24.39c0.555-0.462,0.864-1.35,0.48-2.274l-0.049-0.119l0.275-0.156l0.028,0.103
				C41.801,23.046,41.589,23.932,40.762,24.39z"/>
			<path class="st36" d="M41.132,24.298c0.195-0.341,0.27-0.656,0.28-1.306l1.939,3.277l-0.894,0.301L41.132,24.298z"/>
			<polygon class="st39" points="40.472,23.597 41.366,23.297 43.197,26.33 42.302,26.632 			"/>
			<path class="st37" d="M36.229,13.59c-0.507-1.19-1.53-1.967-2.283-1.734c-0.753,0.233-0.953,1.387-0.445,2.577
				c0.507,1.19,1.53,1.967,2.283,1.734C36.537,15.934,36.737,14.781,36.229,13.59z"/>
			<path class="st31" d="M36.01,13.712c-0.507-1.19-1.53-1.967-2.283-1.734c-0.753,0.233-0.953,1.387-0.445,2.577
				c0.507,1.19,1.53,1.967,2.283,1.734C36.318,16.057,36.518,14.903,36.01,13.712z"/>
			<path class="st39" d="M35.577,13.846c-0.346-0.812-1.044-1.342-1.557-1.183c-0.515,0.159-0.65,0.946-0.304,1.758
				c0.346,0.812,1.044,1.342,1.557,1.183C35.787,15.445,35.923,14.658,35.577,13.846z"/>
			<path class="st36" d="M35.358,13.966c-0.346-0.812-1.044-1.342-1.557-1.183c-0.515,0.159-0.65,0.946-0.304,1.758
				c0.346,0.812,1.044,1.342,1.557,1.183C35.567,15.565,35.703,14.778,35.358,13.966z"/>
			<g>
				<path class="st37" d="M41.25,22.623c-0.366-0.858-1.102-1.417-1.645-1.25s-0.687,0.999-0.321,1.857
					c0.366,0.858,1.102,1.417,1.645,1.25C41.472,24.311,41.616,23.48,41.25,22.623z"/>
				<path class="st31" d="M41.093,22.711c-0.366-0.858-1.102-1.417-1.645-1.25c-0.543,0.167-0.687,0.999-0.321,1.857
					s1.102,1.417,1.645,1.25C41.314,24.401,41.458,23.569,41.093,22.711z"/>
				<path class="st39" d="M40.78,22.807c-0.25-0.584-0.752-0.966-1.122-0.852c-0.371,0.115-0.469,0.682-0.219,1.267
					c0.25,0.584,0.752,0.966,1.122,0.852C40.932,23.96,41.03,23.392,40.78,22.807z"/>
				<path class="st36" d="M40.622,22.894c-0.25-0.584-0.752-0.966-1.122-0.852c-0.371,0.115-0.469,0.682-0.219,1.267
					c0.25,0.584,0.752,0.966,1.122,0.852C40.773,24.046,40.872,23.478,40.622,22.894z"/>
			</g>
			
				<ellipse transform="matrix(0.8949 -0.4463 0.4463 0.8949 -5.9775 13.6001)" class="st37" cx="25.883" cy="19.49" rx="1.536" ry="2.551"/>
			<path class="st31" d="M27.125,19.167c-0.55-1.292-1.659-2.135-2.477-1.882c-0.818,0.252-1.034,1.504-0.483,2.796
				c0.55,1.292,1.659,2.135,2.477,1.882C27.46,21.712,27.676,20.459,27.125,19.167z"/>
			<path class="st39" d="M26.654,19.313c-0.376-0.882-1.133-1.456-1.69-1.284c-0.556,0.173-0.704,1.027-0.329,1.907
				c0.376,0.882,1.133,1.456,1.69,1.284C26.882,21.048,27.03,20.194,26.654,19.313z"/>
			<path class="st36" d="M26.417,19.444c-0.376-0.882-1.133-1.456-1.69-1.284c-0.556,0.173-0.704,1.027-0.329,1.907
				c0.376,0.882,1.133,1.456,1.69,1.284C26.645,21.178,26.793,20.324,26.417,19.444z"/>
			<polygon class="st34" points="13.297,25.836 10.604,28.367 18.653,32.973 22.258,30.908 			"/>
			<polygon class="st36" points="13.281,26.474 11.258,28.5 20.058,33.523 20.061,32.14 21.654,31.254 			"/>
			<polygon class="st32" points="13.297,25.836 13.281,26.474 11.258,28.5 11.25,27.112 			"/>
			<polygon class="st31" points="13.372,26.979 11.868,28.434 18.931,32.473 20.369,31.001 			"/>
			<polygon class="st37" points="13.383,27.103 11.955,28.484 18.931,32.473 20.295,31.077 			"/>
			<g>
				<path class="st31" d="M21.318,33.786c-0.087-0.202-0.26-0.333-0.388-0.294c-0.128,0.04-0.162,0.236-0.075,0.438
					s0.26,0.333,0.388,0.294C21.371,34.185,21.405,33.989,21.318,33.786z"/>
				<path class="st38" d="M21.261,33.896c-0.037-0.153-0.15-0.252-0.253-0.223c-0.098,0.028-0.154,0.165-0.127,0.31
					c0.068,0.127,0.17,0.217,0.265,0.241C21.244,34.19,21.296,34.046,21.261,33.896z"/>
				<path class="st39" d="M21.246,33.808c-0.06-0.138-0.177-0.228-0.265-0.201s-0.111,0.161-0.052,0.299
					c0.06,0.138,0.177,0.228,0.265,0.201C21.28,34.081,21.304,33.947,21.246,33.808z"/>
				<path class="st36" d="M21.208,33.829c-0.06-0.138-0.177-0.228-0.265-0.201s-0.111,0.161-0.052,0.299
					c0.06,0.138,0.177,0.228,0.265,0.201C21.243,34.102,21.266,33.968,21.208,33.829z"/>
				<path class="st31" d="M21.887,34.112c-0.087-0.202-0.26-0.333-0.388-0.294c-0.128,0.04-0.162,0.236-0.075,0.438
					s0.26,0.333,0.388,0.294C21.94,34.509,21.974,34.314,21.887,34.112z"/>
				<path class="st38" d="M21.831,34.222c-0.037-0.153-0.15-0.252-0.253-0.223c-0.098,0.028-0.154,0.165-0.127,0.31
					c0.068,0.127,0.17,0.217,0.265,0.241C21.813,34.515,21.865,34.37,21.831,34.222z"/>
				<path class="st39" d="M21.815,34.133c-0.06-0.138-0.177-0.228-0.265-0.201s-0.111,0.161-0.052,0.299s0.177,0.228,0.265,0.201
					C21.85,34.406,21.873,34.272,21.815,34.133z"/>
				<path class="st36" d="M21.777,34.154c-0.06-0.138-0.177-0.228-0.265-0.201s-0.111,0.161-0.052,0.299s0.177,0.228,0.265,0.201
					C21.813,34.425,21.836,34.293,21.777,34.154z"/>
				<path class="st38" d="M22.4,34.547c-0.037-0.153-0.15-0.252-0.253-0.223c-0.098,0.028-0.154,0.165-0.127,0.31
					c0.068,0.127,0.17,0.217,0.265,0.241C22.384,34.84,22.434,34.695,22.4,34.547z"/>
				<g>
					<path class="st31" d="M22.458,34.437c-0.087-0.202-0.26-0.333-0.388-0.294c-0.128,0.04-0.162,0.236-0.075,0.438
						s0.26,0.333,0.388,0.294C22.51,34.834,22.544,34.639,22.458,34.437z"/>
					<path class="st39" d="M22.384,34.458c-0.06-0.138-0.177-0.228-0.265-0.201s-0.111,0.161-0.052,0.299s0.177,0.228,0.265,0.201
						C22.42,34.731,22.443,34.597,22.384,34.458z"/>
					<path class="st36" d="M22.347,34.479c-0.059-0.138-0.177-0.228-0.265-0.201s-0.111,0.161-0.052,0.299s0.177,0.228,0.265,0.201
						C22.383,34.75,22.406,34.617,22.347,34.479z"/>
				</g>
				<g>
					<g>
						<path class="st31" d="M23.038,34.794c-0.087-0.202-0.26-0.333-0.388-0.294c-0.128,0.04-0.162,0.236-0.075,0.438
							s0.26,0.333,0.388,0.294C23.091,35.193,23.125,34.996,23.038,34.794z"/>
						<path class="st38" d="M22.982,34.905c-0.037-0.153-0.15-0.252-0.253-0.223c-0.098,0.028-0.154,0.165-0.127,0.31
							c0.068,0.127,0.17,0.217,0.265,0.241C22.964,35.197,23.016,35.053,22.982,34.905z"/>
						<path class="st39" d="M22.966,34.817c-0.059-0.138-0.177-0.228-0.265-0.201s-0.111,0.161-0.052,0.299
							c0.06,0.138,0.177,0.228,0.265,0.201C23.001,35.088,23.024,34.956,22.966,34.817z"/>
						<path class="st36" d="M22.928,34.837c-0.06-0.138-0.177-0.228-0.265-0.201s-0.111,0.161-0.052,0.299s0.177,0.228,0.265,0.201
							C22.964,35.109,22.987,34.975,22.928,34.837z"/>
					</g>
					<g>
						<path class="st31" d="M23.609,35.119c-0.087-0.202-0.26-0.333-0.388-0.294c-0.128,0.04-0.162,0.236-0.075,0.438
							s0.26,0.333,0.388,0.294C23.661,35.518,23.695,35.321,23.609,35.119z"/>
						<path class="st38" d="M23.551,35.229c-0.037-0.153-0.15-0.252-0.253-0.223c-0.098,0.028-0.154,0.165-0.127,0.31
							c0.068,0.127,0.17,0.217,0.265,0.241C23.534,35.522,23.585,35.378,23.551,35.229z"/>
						<path class="st39" d="M23.535,35.141c-0.06-0.138-0.177-0.228-0.265-0.201s-0.111,0.161-0.052,0.299s0.177,0.228,0.265,0.201
							S23.594,35.279,23.535,35.141z"/>
						<path class="st36" d="M23.498,35.162c-0.06-0.138-0.177-0.228-0.265-0.201s-0.111,0.161-0.052,0.299s0.177,0.228,0.265,0.201
							C23.534,35.434,23.556,35.3,23.498,35.162z"/>
					</g>
					<g>
						<path class="st31" d="M24.178,35.444c-0.087-0.202-0.26-0.333-0.388-0.294c-0.128,0.04-0.162,0.236-0.075,0.438
							s0.26,0.333,0.388,0.294C24.231,35.842,24.265,35.646,24.178,35.444z"/>
						<path class="st38" d="M24.12,35.554c-0.037-0.153-0.15-0.252-0.253-0.223c-0.098,0.028-0.154,0.165-0.127,0.31
							c0.068,0.127,0.17,0.217,0.265,0.241C24.104,35.847,24.155,35.702,24.12,35.554z"/>
						<path class="st39" d="M24.105,35.466c-0.059-0.138-0.177-0.228-0.265-0.201s-0.111,0.161-0.052,0.299s0.177,0.228,0.265,0.201
							C24.141,35.738,24.163,35.604,24.105,35.466z"/>
						<path class="st36" d="M24.068,35.487c-0.059-0.138-0.177-0.228-0.265-0.201s-0.111,0.161-0.052,0.299
							c0.06,0.138,0.177,0.228,0.265,0.201C24.103,35.759,24.127,35.625,24.068,35.487z"/>
					</g>
				</g>
				<g>
					<path class="st31" d="M24.747,35.784c-0.087-0.202-0.26-0.333-0.388-0.294c-0.128,0.04-0.162,0.236-0.075,0.438
						s0.26,0.333,0.388,0.294C24.799,36.182,24.834,35.987,24.747,35.784z"/>
					<path class="st39" d="M24.674,35.806c-0.059-0.138-0.177-0.228-0.265-0.201s-0.111,0.161-0.052,0.299
						c0.06,0.138,0.177,0.228,0.265,0.201C24.71,36.079,24.732,35.945,24.674,35.806z"/>
					<path class="st36" d="M24.636,35.827c-0.06-0.138-0.177-0.228-0.265-0.201s-0.111,0.161-0.052,0.299
						c0.06,0.138,0.177,0.228,0.265,0.201C24.672,36.098,24.694,35.964,24.636,35.827z"/>
				</g>
			</g>
			<polygon class="st33" points="11.37,33.013 11.355,29.549 24.46,37.05 24.475,40.513 			"/>
			<polygon class="st34" points="11.261,33.122 11.246,29.658 24.351,37.159 24.365,40.622 			"/>
		</g>
	</g>
	<g id="Claw">
		<path class="st36" d="M43.395,29.968c0.458,0.558,0.942,0.92,1.377,1.069c-0.065-0.11-0.125-0.222-0.179-0.335
			c-0.236-0.155-0.477-0.376-0.71-0.661c-0.844-1.034-1.251-2.513-0.911-3.304c0.342-0.792,1.303-0.595,2.147,0.439
			c0.233,0.284,0.433,0.604,0.593,0.933c0.081,0.053,0.162,0.115,0.244,0.183c-0.217-0.651-0.572-1.316-1.028-1.875
			c-1.047-1.281-2.238-1.527-2.661-0.546C41.845,26.851,42.35,28.685,43.395,29.968z"/>
		<path class="st39" d="M44.869,26.589c-1.047-1.281-2.238-1.527-2.661-0.546c-0.007,0.014-0.012,0.028-0.018,0.042
			c-0.276,1.016,0.23,2.689,1.204,3.882c0.391,0.479,0.799,0.811,1.183,0.991c-0.014-0.028-0.028-0.057-0.042-0.085
			c-0.236-0.155-0.477-0.376-0.71-0.661c-0.837-1.025-1.244-2.489-0.919-3.284c0.019-0.067,0.039-0.131,0.066-0.191
			c0.342-0.792,1.303-0.595,2.147,0.439c0.233,0.284,0.433,0.604,0.593,0.933c0.025,0.017,0.05,0.035,0.077,0.053
			C45.57,27.61,45.257,27.061,44.869,26.589z"/>
		<path class="st39" d="M43.218,25.545c-0.183-0.431-0.554-0.712-0.826-0.628s-0.344,0.501-0.16,0.932
			c0.183,0.431,0.554,0.712,0.826,0.628C43.331,26.392,43.403,25.974,43.218,25.545z"/>
		<path class="st36" d="M43.101,25.608c-0.183-0.431-0.554-0.712-0.826-0.628s-0.344,0.501-0.16,0.932
			c0.183,0.431,0.554,0.712,0.826,0.628C43.215,26.456,43.286,26.039,43.101,25.608z"/>
		<path class="st39" d="M42.835,25.691c-0.084-0.198-0.254-0.326-0.378-0.287c-0.126,0.038-0.158,0.229-0.074,0.426
			c0.085,0.198,0.254,0.326,0.378,0.287C42.885,26.078,42.919,25.887,42.835,25.691z"/>
		<path class="st40" d="M42.507,25.753c0.076,0.177,0.219,0.298,0.338,0.294c0.049-0.082,0.049-0.217-0.011-0.357
			c-0.074-0.176-0.217-0.297-0.336-0.293C42.449,25.478,42.45,25.614,42.507,25.753z"/>
	</g>
</g>
</svg>
