<?xml version="1.0" encoding="utf-8"?>
<!-- Generator: Adobe Illustrator 26.0.1, SVG Export Plug-In . SVG Version: 6.00 Build 0)  -->
<svg version="1.1" id="Layer_1" xmlns="http://www.w3.org/2000/svg" xmlns:xlink="http://www.w3.org/1999/xlink" x="0px" y="0px"
	 viewBox="0 0 50 50" style="enable-background:new 0 0 50 50;" xml:space="preserve">
<style type="text/css">
	.st0{display:none;}
	.st1{display:inline;}
	.st2{fill:#344593;}
	.st3{fill:#3E54A3;}
	.st4{fill:#2E4490;}
	.st5{fill:#122571;}
	.st6{opacity:0.5;fill:#031F60;enable-background:new    ;}
	.st7{fill:#BBDFFF;}
	.st8{fill:#FDB724;}
	.st9{fill:#E7478D;}
	.st10{fill:#BF2878;}
	.st11{fill:#27DEBF;}
	.st12{fill:#1BBC9D;}
	.st13{fill:#A33D64;}
	.st14{fill:#82294D;}
	.st15{fill:#0A4A80;}
	.st16{fill:#F1FCFF;}
	.st17{fill:#D6E6FF;}
	.st18{fill:#CEF3FF;}
	.st19{fill:#606060;}
	.st20{enable-background:new    ;}
	.st21{fill:#F19729;}
	.st22{fill:#FCB040;}
	.st23{fill:#FFCB49;}
	.st24{fill:#2E5677;}
	.st25{fill:#FF51CE;}
	.st26{fill:#EDE6A0;}
	.st27{fill:#FFF7B0;}
	.st28{fill:url(#SVGID_1_);}
	.st29{fill:url(#SVGID_00000039833334795931953120000004087370072158459270_);}
	.st30{fill:#A79EAF;}
	.st31{fill:#D3D0D8;}
	.st32{fill:#686172;}
	.st33{fill:#FFC988;}
	.st34{fill:#BC8226;}
	.st35{fill:#E2DC6F;}
	.st36{fill:#CECBD3;}
	.st37{fill:#E7E2E8;}
	.st38{fill:#9A7CA0;}
	.st39{fill:#4F74B7;}
	.st40{fill:#7A9DF4;}
	.st41{opacity:0.6;fill:#2D2E83;enable-background:new    ;}
	.st42{fill:#A7C4FC;}
	.st43{fill:#EDEDED;}
	.st44{opacity:0.5;fill:#BBACBC;enable-background:new    ;}
	.st45{fill:#C6A102;}
	.st46{fill:#E5C025;}
	.st47{fill:#AA9126;}
	.st48{fill:#FFE98A;}
	.st49{fill:#715B77;}
	.st50{fill:#F7314E;}
	.st51{fill:#B7294B;}
	.st52{fill:#A32449;}
	.st53{fill:#EF5270;}
	.st54{fill:#E2E2E2;}
	.st55{fill:#B7B341;}
	.st56{fill:#C17E14;}
	.st57{fill:#F9B233;}
	.st58{fill:#B8B3BA;}
</style>
<g id="Example" class="st0">
	<g class="st1">
		<g id="XMLID_4903_">
			<path id="XMLID_4905_" class="st2" d="M45.3,33.2v-4.6l0,0c0-0.9-0.6-1.8-1.7-2.4c-2.3-1.3-6-1.3-8.4,0c-1.2,0.7-1.7,1.6-1.7,2.4
				l0,0v4.5c0,0.9,0.6,1.8,1.7,2.4c2.3,1.3,6,1.3,8.4,0C44.8,34.9,45.3,34.1,45.3,33.2L45.3,33.2L45.3,33.2L45.3,33.2z"/>
			<path id="XMLID_4904_" class="st2" d="M45.3,33.2v-4.6l0,0c0-0.9-0.6-1.8-1.7-2.4c-2.3-1.3-6-1.3-8.4,0c-1.2,0.7-1.7,1.6-1.7,2.4
				l0,0v4.5c0,0.9,0.6,1.8,1.7,2.4c2.3,1.3,6,1.3,8.4,0C44.8,34.9,45.3,34.1,45.3,33.2L45.3,33.2L45.3,33.2L45.3,33.2z"/>
		</g>
		<polygon id="XMLID_4900_" class="st3" points="39.4,23 29.7,28.6 39.4,34.2 49.2,28.6 		"/>
		<path id="XMLID_4899_" class="st4" d="M44.3,31.4l-4.8-2.7c-0.1,0-0.2,0-0.2,0.1s0,0.2,0.1,0.2l4.6,2.6L44.3,31.4z"/>
		<polygon id="XMLID_4896_" class="st5" points="29.7,28.6 29.7,29 39.4,34.6 39.4,34.2 		"/>
		<polygon id="XMLID_4883_" class="st4" points="49.2,28.6 49.2,29 39.4,34.6 39.4,34.2 		"/>
		<polygon id="XMLID_4876_" class="st6" points="33.5,31.2 39.4,35.2 45.3,31.2 39.4,34.6 		"/>
		<g id="XMLID_4823_">
			<path id="XMLID_4835_" class="st7" d="M44.7,36.2c-0.1,0-0.2-0.1-0.2-0.2v-4c0-0.2-0.1-0.4-0.3-0.4l-4.9-2.8
				c-0.1,0-0.1-0.2-0.1-0.2c0-0.1,0.2-0.1,0.2-0.1l4.9,2.8c0.3,0.2,0.4,0.4,0.4,0.7v4C44.8,36.1,44.7,36.2,44.7,36.2z"/>
		</g>
		<path class="st8" d="M45.3,39.3L45,36.6c0.1-0.1,0.1-0.2,0-0.2l0,0l0,0l0,0v-0.1l0,0l0,0l0,0c0-0.2-0.2-0.4-0.4-0.4c0,0,0,0-0.1,0
			l0,0l0,0c0,0,0,0-0.1,0c0,0,0,0-0.1,0c0,0,0,0-0.1,0c0,0,0,0,0,0.1l0,0v0.1c0,0.1,0,0.2,0.1,0.3l0,0c-0.1,0.1,0,0.2,0,0.2L44,39.3
			c0,0.1,0.1,0.2,0.3,0.3l0,0h0.1l0,0c0.1,0,0.2,0.1,0.3,0.1l0,0l0,0l0,0l0,0l0,0c0.1,0,0.2,0,0.3-0.1l0,0h0.1l0,0
			C45.3,39.5,45.3,39.4,45.3,39.3z"/>
	</g>
	<g id="XMLID_3738_" class="st1">
		<path id="XMLID_4404_" class="st9" d="M12.4,36.1c1.1-0.8,1.8-2.7,1.7-4c-0.1-1.4-1.2-2-1.7-2.3l0,0c-1.1-0.6-2.8-0.6-3.9,0l0,0
			C8,30.1,7,30.7,6.8,32.1c-0.1,1.3,0.6,3.2,1.7,4l0,0c0.1,0,0.1,0.1,0.2,0.1c1,0.6,2.6,0.6,3.6,0l0,0
			C12.3,36.2,12.4,36.1,12.4,36.1L12.4,36.1z"/>
		<path id="XMLID_4395_" class="st10" d="M9.9,30.8c-0.3,0.2-0.3,0.4,0,0.6s0.8,0.2,1.1,0s0.3-0.4,0-0.6
			C10.7,30.6,10.2,30.6,9.9,30.8z"/>
		<g id="XMLID_4426_">
			<path id="XMLID_2198_" class="st11" d="M10.5,31.2c0,0-0.9,0-1.4-0.7s0-1.9,0-1.9s1.1,0.1,1.7,1C11.2,30.4,10.5,31.2,10.5,31.2z"
				/>
			<path id="XMLID_4431_" class="st12" d="M9,30.5c0.5,0.7,1.4,0.7,1.4,0.7C10.3,29.6,9,28.6,9,28.6S8.5,29.8,9,30.5z"/>
		</g>
		<path id="XMLID_4403_" class="st13" d="M10.5,31.2c0,0,0-1.3,0.7-1.9s1.2-0.6,1.2-0.6c0.4,0,0.9,0.4,0.7,0.4c0,0-0.9,0-1.5,0.5
			s-0.9,1.5-0.9,1.6c0,0,0,0.1-0.1,0.1C10.5,31.3,10.5,31.2,10.5,31.2z"/>
		<path id="XMLID_4496_" class="st14" d="M12.4,28.7c-0.1,0-0.1,0.1,0.2,0.3c0.2,0.1,0.4,0.2,0.5,0.2l0,0
			C13.3,29,12.8,28.7,12.4,28.7z"/>
	</g>
	<g class="st1">
		<g>
			<path class="st15" d="M26,28.8L26,28.8c-1,0.6-1.9,1-2.8,1.2l0,0c0,0,0,0-0.1,0l-0.5,0.2h-0.1c-0.1,0-0.2,0.1-0.3,0.1h-0.1
				c-0.1,0-0.2,0.1-0.2,0.1h-0.1c-0.5,0.2-0.9,0.4-1.4,0.7c-0.1,0.1-0.2,0.1-0.3,0.2L20,31.4c-0.4,0.3-2,1.5-2.9,2.5l-0.6,0.6
				L16,34.6c-1,0.2-2,0.5-3,1.1c-0.1,0.1-0.2,0.1-0.3,0.2c-0.3,0.2-0.5,0.3-0.8,0.5l0,0l-0.1,0.1c-0.1,0.1-0.2,0.1-0.3,0.2l0,0l0,0
				c-0.4,0.3-0.9,0.7-1.3,1.1c-0.1,0.1-0.2,0.2-0.3,0.3c-0.3,0.3-0.7,0.6-1,0.9H8.8c-0.3,0.3-0.7,0.5-1,0.8
				c-0.2,0.2-0.5,0.3-0.7,0.5H7l13.7,8.3h0.1c0.8-0.5,1.7-1.2,2.5-1.9c0.5-0.5,1.1-0.9,1.7-1.4c1.2-0.9,2.3-1.5,3.2-1.8
				c0.7-0.3,1.4-0.5,2.1-0.6l0.5-0.6c0.7-0.7,1.5-1.3,2.4-1.8c1.5-1,3.2-1.8,4.9-2.5c0.6-0.2,1.2-0.5,1.6-0.7l0.2-0.1L26,28.8z"/>
			<g>
				<g>
					<g>
						<path class="st16" d="M39.1,36.7c-0.5,0.3-0.7,0.4-1.2,0.6c-0.3,0.1-0.5,0.2-0.8,0.3c-0.2,0.1-0.3,0.1-0.5,0.1
							c-0.7,0.2-1.4,0.4-2,0.8c-0.2,0.1-0.4,0.2-0.6,0.3c-1.3,0.8-2.6,2-3.9,3.5l-2.5-1.5l-11-6.7c1.3-1.5,2.6-2.7,3.9-3.5
							c0.2-0.1,0.4-0.2,0.6-0.3c0.7-0.4,1.4-0.6,2-0.8c0.2,0,0.3-0.1,0.5-0.1c0.3-0.1,0.5-0.2,0.8-0.3c0.5-0.2,0.7-0.3,1.2-0.6
							L39.1,36.7z"/>
						<g>
							<path class="st16" d="M30.1,42.3c-1.3,0.1-2.6,0.5-3.9,1.3c-0.2,0.1-0.4,0.2-0.6,0.4c-0.7,0.5-1.4,1-2,1.7
								c-0.2,0.2-0.3,0.3-0.5,0.4c-0.3,0.3-0.6,0.5-0.9,0.7c-0.5,0.4-0.8,0.6-1.3,0.9L7.5,39.5C8,39.2,8.3,39,8.8,38.6
								c0.3-0.2,0.6-0.5,0.9-0.7c0.2-0.1,0.3-0.3,0.5-0.4c0.7-0.6,1.4-1.2,2-1.7c0.2-0.1,0.4-0.3,0.6-0.4c1.3-0.8,2.6-1.2,3.9-1.3
								l11,6.7L30.1,42.3z"/>
						</g>
					</g>
					<polygon class="st17" points="7.5,39.5 7.3,40.3 20.7,48.5 20.9,47.7 					"/>
					<path class="st18" d="M39.4,37.1c-0.9,0.6-1.8,1-2.7,1.2c0,0,0,0-0.1,0s-0.2,0-0.3,0.1c-0.1,0-0.2,0.1-0.3,0.1
						s-0.2,0.1-0.3,0.1c-0.6,0.2-1.2,0.5-1.8,0.9c-0.1,0.1-0.2,0.1-0.3,0.2c-1,0.7-2,1.5-3,2.5L30,42.8l-0.6,0.1c-1,0.2-2,0.5-3,1.1
						c-0.1,0.1-0.2,0.1-0.3,0.2c-0.3,0.2-0.5,0.3-0.8,0.5c-0.6,0.4-1.1,0.9-1.7,1.4c-0.1,0.1-0.2,0.2-0.3,0.3
						c-0.9,0.9-1.8,1.6-2.7,2.2l0.2-0.8c0.5-0.3,0.8-0.5,1.3-0.9c0.3-0.2,0.6-0.5,0.9-0.7c0.2-0.1,0.3-0.3,0.5-0.4
						c0.7-0.6,1.4-1.2,2-1.7c0.2-0.1,0.4-0.3,0.6-0.4c1.3-0.8,2.6-1.2,3.9-1.3c1.3-1.5,2.6-2.7,3.9-3.5c0.2-0.1,0.4-0.2,0.6-0.3
						c0.7-0.4,1.4-0.6,2-0.8c0.2,0,0.3-0.1,0.5-0.1c0.3-0.1,0.5-0.2,0.8-0.3c0.5-0.2,0.7-0.3,1.2-0.6L39.4,37.1z"/>
				</g>
			</g>
			<g>
				<path class="st19" d="M17.8,34.6C17.9,34.6,17.9,34.6,17.8,34.6c1.2-1.4,2.5-2.5,3.7-3.2c0.2-0.1,0.4-0.2,0.5-0.3
					c0.7-0.3,1.3-0.6,2-0.8c0.2,0,0.3-0.1,0.5-0.1c0.3-0.1,0.5-0.2,0.8-0.3c0.4-0.2,0.7-0.3,1.1-0.5c0,0,0,0,0-0.1s0,0-0.1,0
					c-0.4,0.2-0.6,0.3-1,0.5c-0.3,0.1-0.5,0.2-0.8,0.3c-0.2,0.1-0.3,0.1-0.5,0.1c-0.7,0.2-1.3,0.4-2,0.8c-0.2,0.1-0.4,0.2-0.6,0.3
					C20.3,32.1,19,33.2,17.8,34.6C17.8,34.5,17.8,34.6,17.8,34.6L17.8,34.6z"/>
				<path class="st19" d="M25.4,30.6c-0.2,0.1-0.3,0.1-0.5,0.1c-0.7,0.2-1.3,0.4-2,0.8c-0.2,0.1-0.4,0.2-0.6,0.3
					c-1.2,0.7-2.5,1.8-3.7,3.2v0.1l0,0l0,0c1.2-1.4,2.5-2.5,3.7-3.2c0.2-0.1,0.4-0.2,0.6-0.3c0.7-0.4,1.3-0.6,2-0.8
					C25.1,30.8,25.3,30.7,25.4,30.6c0.3,0,0.6-0.1,0.8-0.2c0.4-0.2,0.6-0.3,1-0.5c0,0,0,0,0-0.1c0,0,0,0-0.1,0
					c-0.4,0.2-0.6,0.3-1,0.5C25.9,30.4,25.7,30.5,25.4,30.6z"/>
				<path class="st19" d="M26.2,31.1c-0.2,0.1-0.3,0.1-0.5,0.1c-0.7,0.2-1.3,0.4-2,0.8c-0.2,0.1-0.4,0.2-0.6,0.3
					c-1.2,0.7-2.5,1.8-3.7,3.2v0.1l0,0l0,0c1.2-1.4,2.5-2.5,3.7-3.2c0.2-0.1,0.4-0.2,0.6-0.3c0.7-0.4,1.4-0.6,2-0.8
					C25.9,31.3,26.1,31.2,26.2,31.1c0.3,0,0.6-0.1,0.8-0.2c0.4-0.2,0.6-0.3,1-0.5c0,0,0,0,0-0.1c0,0,0,0-0.1,0
					c-0.4,0.2-0.6,0.3-1,0.5C26.8,30.9,26.5,31,26.2,31.1z"/>
				<path class="st19" d="M27.1,31.5c-0.2,0.1-0.3,0.1-0.5,0.1c-0.7,0.2-1.3,0.4-2,0.8c-0.2,0.1-0.4,0.2-0.6,0.3
					c-1.2,0.7-2.5,1.8-3.7,3.2V36l0,0l0,0c1.2-1.4,2.5-2.5,3.7-3.2c0.2-0.1,0.4-0.2,0.6-0.3c0.7-0.4,1.4-0.6,2-0.8
					C26.7,31.7,26.9,31.7,27.1,31.5c0.3,0,0.6-0.1,0.8-0.2c0.4-0.2,0.6-0.3,1-0.5c0,0,0,0,0-0.1c0,0,0,0-0.1,0
					c-0.4,0.2-0.6,0.3-1,0.5C27.6,31.4,27.3,31.5,27.1,31.5z"/>
				<path class="st19" d="M27.9,32c-0.2,0.1-0.3,0.1-0.5,0.1c-0.7,0.2-1.4,0.4-2,0.8c-0.2,0.1-0.4,0.2-0.6,0.3
					c-1.2,0.7-2.5,1.9-3.7,3.2v0.1l0,0l0,0c1.2-1.4,2.5-2.5,3.7-3.2c0.2-0.1,0.4-0.2,0.6-0.3c0.7-0.4,1.4-0.6,2-0.8
					C27.6,32.2,27.8,32.2,27.9,32c0.3,0,0.6-0.1,0.8-0.2c0.4-0.2,0.6-0.3,1-0.5c0,0,0,0,0-0.1c0,0,0,0-0.1,0c-0.4,0.2-0.6,0.3-1,0.5
					C28.4,31.8,28.1,31.9,27.9,32z"/>
				<path class="st19" d="M28.7,32.5c-0.2,0.1-0.3,0.1-0.5,0.1c-0.7,0.2-1.4,0.4-2,0.8c-0.2,0.1-0.4,0.2-0.6,0.3
					c-1.2,0.7-2.5,1.9-3.7,3.2V37l0,0l0,0c1.2-1.4,2.5-2.5,3.7-3.2c0.2-0.1,0.4-0.2,0.6-0.3c0.7-0.4,1.4-0.6,2-0.8
					C28.4,32.7,28.6,32.6,28.7,32.5c0.3,0,0.6-0.1,0.8-0.2c0.4-0.2,0.6-0.3,1-0.5c0,0,0,0,0-0.1c0,0,0,0-0.1,0
					c-0.3,0.2-0.6,0.3-0.9,0.5C29.2,32.3,29,32.4,28.7,32.5z"/>
				<path class="st19" d="M29.6,33c-0.2,0.1-0.3,0.1-0.5,0.1c-0.7,0.2-1.4,0.4-2.1,0.8c-0.2,0.1-0.4,0.2-0.6,0.3
					c-1.2,0.7-2.5,1.9-3.8,3.3v0.1l0,0l0,0c1.2-1.4,2.5-2.5,3.7-3.2c0.2-0.1,0.4-0.2,0.6-0.3c0.7-0.4,1.4-0.6,2-0.8
					C29.2,33.2,29.4,33.1,29.6,33c0.3,0,0.6-0.1,0.8-0.2c0.4-0.2,0.6-0.3,0.9-0.5c0,0,0,0,0-0.1c0,0,0,0-0.1,0
					c-0.3,0.2-0.5,0.3-0.9,0.4C30.1,32.8,29.8,32.9,29.6,33z"/>
				<path class="st19" d="M30.4,33.5c-0.2,0.1-0.3,0.1-0.5,0.1c-0.7,0.2-1.4,0.4-2.1,0.8c-0.2,0.1-0.4,0.2-0.6,0.3
					c-1.2,0.7-2.5,1.9-3.8,3.3v0.1l0,0l0,0c1.2-1.4,2.5-2.5,3.7-3.2c0.2-0.1,0.4-0.2,0.6-0.3c0.7-0.4,1.4-0.6,2-0.8
					C30.1,33.7,30.2,33.6,30.4,33.5c0.3,0,0.5-0.1,0.8-0.2c0.4-0.2,0.6-0.3,0.9-0.4c0,0,0,0,0-0.1c0,0,0,0-0.1,0
					c-0.3,0.2-0.5,0.3-0.9,0.4C30.9,33.3,30.6,33.4,30.4,33.5z"/>
				<path class="st19" d="M31.2,33.9C31,34,30.9,34,30.7,34.1c-0.7,0.2-1.4,0.4-2.1,0.8c-0.2,0.1-0.4,0.2-0.6,0.3
					c-1.2,0.7-2.5,1.9-3.8,3.3v0.1l0,0l0,0c1.2-1.4,2.5-2.5,3.8-3.3c0.2-0.1,0.4-0.2,0.6-0.3c0.7-0.4,1.4-0.6,2-0.8
					C30.9,34.1,31.1,34.1,31.2,33.9c0.3,0,0.5-0.1,0.8-0.2c0.4-0.2,0.6-0.2,0.9-0.4c0,0,0,0,0-0.1c0,0,0,0-0.1,0
					c-0.3,0.2-0.5,0.3-0.9,0.4C31.7,33.8,31.5,33.9,31.2,33.9z"/>
				<path class="st19" d="M32,34.4c-0.2,0.1-0.3,0.1-0.5,0.1c-0.7,0.2-1.4,0.4-2.1,0.8c-0.2,0.1-0.4,0.2-0.6,0.3
					c-1.2,0.7-2.6,1.9-3.8,3.3V39l0,0l0,0c1.2-1.4,2.5-2.5,3.8-3.3c0.2-0.1,0.4-0.2,0.6-0.3c0.7-0.4,1.4-0.6,2-0.8
					C31.7,34.6,31.9,34.6,32,34.4c0.3,0,0.5-0.1,0.8-0.2c0.4-0.2,0.6-0.2,0.9-0.4c0,0,0,0,0-0.1c0,0,0,0-0.1,0
					c-0.3,0.2-0.5,0.3-0.9,0.4C32.6,34.2,32.3,34.3,32,34.4z"/>
				<path class="st19" d="M32.9,34.9C32.7,35,32.6,35,32.4,35c-0.7,0.2-1.4,0.4-2.1,0.8c-0.2,0.1-0.4,0.2-0.6,0.3
					c-1.2,0.8-2.6,1.9-3.8,3.3v0.1l0,0l0,0c1.2-1.4,2.5-2.5,3.8-3.3c0.2-0.1,0.4-0.2,0.6-0.3c0.7-0.4,1.4-0.6,2.1-0.8
					C32.6,35.1,32.7,35,32.9,34.9c0.3,0,0.5-0.1,0.8-0.2c0.3-0.1,0.6-0.2,0.9-0.4c0,0,0,0,0-0.1c0,0,0,0-0.1,0
					c-0.3,0.2-0.5,0.3-0.8,0.4C33.4,34.7,33.1,34.8,32.9,34.9z"/>
				<path class="st19" d="M33.7,35.4c-0.2,0.1-0.3,0.1-0.5,0.1c-0.7,0.2-1.4,0.4-2.1,0.8c-0.2,0.1-0.4,0.2-0.6,0.3
					c-1.2,0.8-2.6,1.9-3.8,3.3V40l0,0l0,0c1.2-1.4,2.6-2.5,3.8-3.3c0.2-0.1,0.4-0.2,0.6-0.3c0.7-0.4,1.4-0.6,2.1-0.8
					C33.4,35.6,33.6,35.5,33.7,35.4c0.3,0,0.5-0.1,0.8-0.2c0.3-0.1,0.5-0.2,0.8-0.4c0,0,0,0,0-0.1c0,0,0,0-0.1,0
					c-0.3,0.2-0.5,0.3-0.8,0.4C34.2,35.2,34,35.3,33.7,35.4z"/>
				<path class="st19" d="M34.5,35.8c-0.2,0.1-0.3,0.1-0.5,0.1c-0.7,0.2-1.4,0.4-2.1,0.8c-0.2,0.1-0.4,0.2-0.6,0.3
					c-1.3,0.8-2.6,1.9-3.8,3.3v0.1l0,0l0,0c1.2-1.4,2.6-2.6,3.8-3.3c0.2-0.1,0.4-0.2,0.6-0.3c0.7-0.4,1.4-0.6,2.1-0.8
					C34.2,36,34.4,36,34.5,35.8c0.3,0,0.5-0.1,0.8-0.2c0.3-0.1,0.5-0.2,0.8-0.4c0,0,0,0,0-0.1c0,0,0,0-0.1,0
					c-0.3,0.2-0.5,0.2-0.8,0.4C35,35.7,34.8,35.8,34.5,35.8z"/>
				<path class="st19" d="M35.4,36.3c-0.2,0.1-0.3,0.1-0.5,0.1c-0.7,0.2-1.4,0.4-2.1,0.8c-0.2,0.1-0.4,0.2-0.6,0.3
					c-1.3,0.8-2.6,1.9-3.8,3.3v0.1l0,0l0,0c1.3-1.4,2.6-2.6,3.8-3.3c0.2-0.1,0.4-0.2,0.6-0.3c0.7-0.4,1.4-0.6,2.1-0.8
					C35.1,36.5,35.2,36.5,35.4,36.3c0.3,0,0.5-0.1,0.8-0.2c0.3-0.1,0.5-0.2,0.8-0.4c0,0,0,0,0-0.1c0,0,0,0-0.1,0
					c-0.2,0.1-0.4,0.2-0.8,0.4C35.9,36.2,35.6,36.2,35.4,36.3z"/>
				<path class="st19" d="M37.7,36.2c-0.3,0.1-0.5,0.2-0.8,0.4c-0.3,0.1-0.5,0.2-0.8,0.3C35.9,37,35.8,37,35.6,37
					c-0.7,0.2-1.4,0.4-2.1,0.8c-0.2,0.1-0.4,0.2-0.6,0.3c-1.3,0.8-2.6,1.9-3.9,3.3v0.1l0,0l0,0c1.3-1.4,2.6-2.6,3.8-3.3
					c0.2-0.1,0.4-0.2,0.6-0.3c0.7-0.4,1.4-0.6,2.1-0.8c0.2,0,0.3-0.1,0.5-0.1c0.2-0.1,0.5-0.2,0.8-0.3
					C37.3,36.5,37.5,36.4,37.7,36.2C37.8,36.3,37.8,36.2,37.7,36.2C37.8,36.2,37.7,36.2,37.7,36.2z"/>
				<path class="st19" d="M10.6,38.6c0.2-0.1,0.3-0.3,0.5-0.4c0.7-0.6,1.3-1.2,2-1.7c0.2-0.1,0.4-0.2,0.6-0.4
					c1.2-0.7,2.5-1.2,3.7-1.3c0,0,0,0,0-0.1c0,0,0,0-0.1,0c-1.2,0.1-2.5,0.5-3.7,1.3c-0.2,0.1-0.4,0.2-0.6,0.4c-0.7,0.5-1.4,1-2,1.7
					C10.9,38.3,10.7,38.4,10.6,38.6c-0.4,0.2-0.7,0.4-0.9,0.7c-0.4,0.3-0.7,0.5-1,0.7c0,0,0,0,0,0.1l0,0l0,0c0.3-0.2,0.6-0.4,1-0.7
					S10.3,38.9,10.6,38.6z"/>
				<path class="st19" d="M11.5,39.1c0.2-0.1,0.3-0.3,0.5-0.4c0.7-0.6,1.3-1.2,2-1.7c0.2-0.1,0.4-0.2,0.6-0.4
					c1.2-0.7,2.5-1.2,3.7-1.2c0,0,0,0,0-0.1c0,0,0-0.1-0.1,0c-1.2,0.1-2.5,0.5-3.7,1.3c-0.2,0.1-0.4,0.2-0.6,0.4
					c-0.7,0.5-1.4,1-2,1.7C11.7,38.8,11.6,38.9,11.5,39.1c-0.4,0.2-0.7,0.4-0.9,0.7c-0.4,0.3-0.7,0.5-1,0.7c0,0,0,0,0,0.1l0,0l0,0
					c0.3-0.2,0.6-0.4,1-0.7C10.9,39.6,11.2,39.4,11.5,39.1z"/>
				<path class="st19" d="M12.3,39.6c0.2-0.1,0.3-0.3,0.5-0.4c0.7-0.6,1.3-1.2,2-1.7c0.2-0.1,0.4-0.3,0.6-0.4
					c1.2-0.7,2.4-1.2,3.6-1.2c0,0,0,0,0-0.1s0,0-0.1,0c-1.2,0.1-2.5,0.5-3.7,1.3c-0.2,0.1-0.4,0.2-0.6,0.4c-0.7,0.5-1.4,1-2,1.7
					C12.5,39.2,12.4,39.4,12.3,39.6c-0.4,0.2-0.7,0.4-0.9,0.7c-0.4,0.3-0.7,0.5-1,0.7c0,0,0,0,0,0.1l0,0l0,0c0.3-0.2,0.6-0.4,1-0.7
					C11.7,40.1,12,39.9,12.3,39.6z"/>
				<path class="st19" d="M13.1,40.1c0.2-0.1,0.3-0.3,0.5-0.4c0.7-0.6,1.3-1.2,2-1.7c0.2-0.1,0.4-0.3,0.6-0.4
					c1.2-0.7,2.4-1.1,3.6-1.2c0,0,0,0,0-0.1c0,0,0,0-0.1,0c-1.2,0.1-2.4,0.5-3.6,1.3c-0.2,0.1-0.4,0.2-0.6,0.4c-0.7,0.5-1.4,1-2,1.7
					C13.3,39.7,13.2,39.9,13.1,40.1c-0.4,0.2-0.6,0.4-0.9,0.7c-0.4,0.3-0.7,0.5-1,0.7c0,0,0,0,0,0.1l0,0l0,0c0.3-0.2,0.6-0.4,1-0.7
					C12.5,40.6,12.8,40.4,13.1,40.1z"/>
				<path class="st19" d="M13.9,40.6c0.2-0.1,0.3-0.3,0.5-0.4c0.7-0.6,1.3-1.2,2-1.7c0.2-0.1,0.4-0.3,0.6-0.4
					c1.2-0.7,2.4-1.1,3.6-1.2c0,0,0,0,0-0.1c0,0,0,0-0.1,0c-1.2,0.1-2.4,0.5-3.6,1.3c-0.2,0.1-0.4,0.2-0.6,0.4c-0.7,0.5-1.4,1-2,1.7
					C14.2,40.2,14,40.4,13.9,40.6c-0.4,0.2-0.6,0.4-0.9,0.7c-0.4,0.3-0.7,0.5-1,0.7c0,0,0,0,0,0.1l0,0l0,0c0.3-0.2,0.6-0.4,1-0.7
					C13.3,41.1,13.6,40.8,13.9,40.6z"/>
				<path class="st19" d="M14.7,41.1c0.2-0.1,0.3-0.3,0.5-0.4c0.7-0.6,1.3-1.2,2-1.7c0.2-0.1,0.4-0.3,0.6-0.4
					c1.2-0.7,2.4-1.1,3.5-1.2c0,0,0,0,0-0.1c0,0,0,0-0.1,0c-1.2,0.1-2.4,0.6-3.6,1.3c-0.2,0.1-0.4,0.2-0.6,0.4c-0.7,0.5-1.4,1-2,1.7
					C15,40.7,14.8,40.8,14.7,41.1c-0.4,0.2-0.6,0.4-0.9,0.7c-0.4,0.3-0.7,0.5-1,0.7c0,0,0,0,0,0.1l0,0l0,0c0.3-0.2,0.6-0.4,1-0.7
					S14.4,41.3,14.7,41.1z"/>
				<path class="st19" d="M15.6,41.5c0.2-0.1,0.3-0.3,0.5-0.4c0.7-0.6,1.3-1.2,2-1.7c0.2-0.1,0.4-0.3,0.6-0.4
					c1.1-0.7,2.4-1.1,3.5-1.2c0,0,0,0,0-0.1s0,0-0.1,0c-1.2,0.1-2.4,0.6-3.5,1.3c-0.2,0.1-0.4,0.2-0.6,0.4c-0.7,0.5-1.4,1-2,1.7
					C15.8,41.2,15.6,41.3,15.6,41.5c-0.4,0.2-0.6,0.4-0.9,0.7c-0.4,0.3-0.7,0.5-1,0.7c0,0,0,0,0,0.1l0,0l0,0c0.3-0.2,0.6-0.4,1-0.7
					C15,42.1,15.3,41.8,15.6,41.5z"/>
				<path class="st19" d="M16.4,42c0.2-0.1,0.3-0.3,0.5-0.4c0.7-0.6,1.3-1.2,2-1.7c0.2-0.1,0.4-0.3,0.6-0.4c1.1-0.7,2.3-1.1,3.5-1.2
					c0,0,0,0,0-0.1s0,0-0.1,0c-1.2,0.1-2.4,0.6-3.5,1.3c-0.2,0.1-0.4,0.2-0.6,0.4c-0.7,0.5-1.4,1-2.1,1.7
					C16.6,41.7,16.5,41.8,16.4,42c-0.4,0.2-0.6,0.4-0.9,0.7c-0.4,0.3-0.7,0.5-1,0.7c0,0,0,0,0,0.1l0,0l0,0c0.3-0.2,0.6-0.4,1.1-0.7
					C15.8,42.5,16.1,42.3,16.4,42z"/>
				<path class="st19" d="M17.2,42.5c0.2-0.1,0.3-0.3,0.5-0.4c0.7-0.6,1.4-1.2,2-1.7c0.2-0.1,0.4-0.3,0.6-0.4
					c1.1-0.7,2.3-1.1,3.4-1.2c0,0,0,0,0-0.1s0,0-0.1,0c-1.1,0.1-2.3,0.6-3.5,1.3c-0.2,0.1-0.4,0.2-0.6,0.4c-0.7,0.5-1.4,1-2.1,1.7
					C17.4,42.2,17.3,42.3,17.2,42.5c-0.4,0.2-0.6,0.4-0.9,0.6c-0.4,0.3-0.7,0.5-1.1,0.7c0,0,0,0,0,0.1l0,0l0,0
					c0.3-0.2,0.6-0.4,1.1-0.8C16.6,43,16.9,42.8,17.2,42.5z"/>
				<path class="st19" d="M18,43c0.2-0.1,0.3-0.3,0.5-0.4c0.7-0.6,1.4-1.2,2-1.7c0.2-0.1,0.4-0.3,0.6-0.4c1.1-0.7,2.3-1.1,3.4-1.2
					c0,0,0,0,0-0.1s0,0-0.1,0c-1.1,0.1-2.3,0.6-3.5,1.3c-0.2,0.1-0.4,0.2-0.6,0.4c-0.7,0.5-1.4,1.1-2.1,1.7
					C18.3,42.6,18.1,42.8,18,43c-0.4,0.2-0.6,0.4-0.9,0.6c-0.4,0.3-0.7,0.6-1.1,0.8c0,0,0,0,0,0.1l0,0l0,0c0.3-0.2,0.7-0.4,1.1-0.8
					C17.4,43.5,17.7,43.3,18,43z"/>
				<path class="st19" d="M18.8,43.5c0.2-0.1,0.3-0.3,0.5-0.4c0.7-0.6,1.4-1.2,2-1.7c0.2-0.1,0.4-0.3,0.6-0.4
					c1.1-0.7,2.3-1.1,3.4-1.2c0,0,0,0,0-0.1c0,0,0,0-0.1,0c-1.1,0.1-2.3,0.6-3.4,1.3c-0.2,0.1-0.4,0.2-0.6,0.4
					c-0.7,0.5-1.4,1.1-2.1,1.7C19.1,43.1,18.9,43.3,18.8,43.5c-0.4,0.2-0.6,0.4-0.9,0.6c-0.4,0.3-0.7,0.6-1.1,0.8c0,0,0,0,0,0.1l0,0
					l0,0c0.3-0.2,0.7-0.4,1.1-0.8C18.3,44,18.5,43.7,18.8,43.5z"/>
				<path class="st19" d="M19.6,44c0.2-0.1,0.3-0.3,0.5-0.4c0.7-0.6,1.4-1.2,2.1-1.7c0.2-0.1,0.4-0.3,0.6-0.4
					c1.1-0.7,2.3-1.1,3.4-1.2c0,0,0,0,0-0.1c0,0,0,0-0.1,0c-1.1,0.2-2.3,0.6-3.4,1.3c-0.2,0.1-0.4,0.2-0.6,0.4
					c-0.7,0.5-1.4,1.1-2.1,1.7C19.9,43.6,19.7,43.8,19.6,44c-0.4,0.2-0.6,0.4-0.9,0.6c-0.4,0.3-0.8,0.6-1.1,0.8c0,0,0,0,0,0.1l0,0
					l0,0c0.3-0.2,0.7-0.4,1.1-0.8C19.1,44.5,19.4,44.2,19.6,44z"/>
				<path class="st19" d="M20.5,44.5c0.2-0.1,0.3-0.3,0.5-0.4c0.7-0.6,1.4-1.2,2.1-1.7c0.2-0.1,0.4-0.3,0.6-0.4
					c1.1-0.7,2.2-1.1,3.3-1.2c0,0,0,0,0-0.1c0,0,0,0-0.1,0c-1.1,0.2-2.3,0.6-3.4,1.3c-0.2,0.1-0.4,0.2-0.6,0.4
					c-0.7,0.5-1.4,1.1-2.1,1.7C20.7,44.1,20.5,44.2,20.5,44.5c-0.4,0.2-0.6,0.4-0.9,0.6c-0.4,0.3-0.8,0.6-1.1,0.8c0,0,0,0,0,0.1l0,0
					l0,0c0.3-0.2,0.7-0.4,1.1-0.8C19.9,45,20.2,44.7,20.5,44.5z"/>
				<path class="st19" d="M21.3,44.9c0.2-0.1,0.3-0.3,0.5-0.4c0.7-0.7,1.4-1.2,2.1-1.7c0.2-0.1,0.4-0.3,0.6-0.4
					c1.1-0.6,2.2-1.1,3.3-1.2c0,0,0,0,0-0.1c0,0,0,0-0.1,0c-1.1,0.2-2.3,0.6-3.3,1.3c-0.2,0.1-0.4,0.2-0.6,0.4
					c-0.7,0.5-1.4,1.1-2.1,1.7C21.5,44.6,21.4,44.7,21.3,44.9c-0.4,0.2-0.6,0.4-0.9,0.6c-0.4,0.3-0.8,0.6-1.1,0.8c0,0,0,0,0,0.1l0,0
					l0,0c0.4-0.2,0.7-0.4,1.1-0.8C20.7,45.4,21,45.2,21.3,44.9z"/>
				<path class="st19" d="M25.2,42.8c-0.2,0.1-0.4,0.2-0.6,0.4c-0.7,0.5-1.4,1.1-2.1,1.7c-0.2,0.1-0.3,0.3-0.5,0.4
					c-0.3,0.3-0.6,0.5-0.9,0.7c-0.4,0.3-0.8,0.6-1.1,0.8c0,0,0,0,0,0.1l0,0l0,0c0.4-0.2,0.7-0.4,1.1-0.8c0.3-0.2,0.6-0.5,0.9-0.7
					c0.2-0.1,0.3-0.3,0.5-0.4c0.7-0.7,1.4-1.2,2.1-1.7C24.8,43.2,25,43,25.2,42.8c1.1-0.6,2.2-1,3.3-1.2c0,0,0,0,0-0.1
					c0,0,0,0-0.1,0C27.4,41.7,26.2,42.2,25.2,42.8z"/>
			</g>
		</g>
		<g>
			<g>
				<g>
					<g>
						<g class="st20">
							<g>
								<path class="st21" d="M29.1,41.9l-7.9-4.6l-0.1-0.1L29.1,41.9L29.1,41.9z"/>
							</g>
							<g>
								<path class="st22" d="M29.2,41.6c-0.1,0.1-0.1,0.1-0.1,0.2l-7.9-4.6l0.1-0.2L29.2,41.6z"/>
							</g>
							<g>
								<path class="st23" d="M29.4,41.5h-0.1c0,0-0.1,0-0.1,0.1l-8-4.6l0.2-0.1L29.4,41.5z"/>
							</g>
						</g>
					</g>
					<g>
						<polygon class="st24" points="30.3,42.2 30.3,42.3 30.3,42.3 30.3,42.3 30.2,42.3 30.3,42.3 						"/>
					</g>
					<path d="M30.3,42.2L30,42l0,0c0,0,0,0-0.1,0l-0.1,0.1l0,0L30.3,42.2C30.3,42.3,30.3,42.3,30.3,42.2
						C30.3,42.3,30.3,42.3,30.3,42.2z"/>
					<path class="st25" d="M21.7,37h-0.1l-0.1,0.1c0,0.1-0.1,0.1-0.1,0.2v0.1L21,37.1c0,0-0.1,0-0.1-0.1s0-0.1,0.1-0.2
						c0-0.1,0.1-0.1,0.1-0.1h0.1l0,0L21.7,37z"/>
					<path class="st26" d="M29.4,41.5L29.4,41.5L29.4,41.5z"/>
				</g>
				<path class="st27" d="M29.4,41.5L29.4,41.5L29.4,41.5c-0.1,0-0.2,0-0.2,0s0,0,0,0.1l0,0c0,0-0.1,0.1-0.1,0.2l0,0v0.1l0,0
					l0.8,0.3l0,0c0,0,0-0.1,0.1-0.1c0,0,0,0,0.1,0L29.4,41.5z"/>
			</g>
			
				<linearGradient id="SVGID_1_" gradientUnits="userSpaceOnUse" x1="21.7732" y1="-3519.1643" x2="21.5925" y2="-3519.4897" gradientTransform="matrix(1 0 0 -1 0 -3482)">
				<stop  offset="0" style="stop-color:#78ACED"/>
				<stop  offset="1" style="stop-color:#4F7BB3"/>
			</linearGradient>
			<path class="st28" d="M22.1,37.3L22.1,37.3L22.1,37.3L21.7,37l0,0l0,0h-0.1l0,0h-0.1c-0.1,0-0.1,0.1-0.1,0.1
				c0,0.1-0.1,0.1-0.1,0.2c0,0,0,0.1,0.1,0.1h0.1l0,0l0,0l0.3,0.2l0,0l0,0l0.1,0.1l0,0l0,0l0,0c0,0,0,0,0-0.1l0,0v-0.1l0,0l0.1-0.1
				l0,0C22,37.3,22,37.2,22.1,37.3L22.1,37.3L22.1,37.3L22.1,37.3L22.1,37.3z"/>
		</g>
	</g>
</g>
<radialGradient id="SVGID_00000080897761580258668060000017294670437687930022_" cx="-1304.5103" cy="-7145.7168" r="15.9015" gradientTransform="matrix(-1.5353 0 0 -0.4819 -1977.8146 -3402.021)" gradientUnits="userSpaceOnUse">
	<stop  offset="0.247" style="stop-color:#B4BCC1"/>
	<stop  offset="0.94" style="stop-color:#ECEEEF;stop-opacity:0"/>
</radialGradient>
<ellipse style="fill:url(#SVGID_00000080897761580258668060000017294670437687930022_);" cx="25" cy="41.5" rx="24.4" ry="7.7"/>
<g>
	<g>
		<g>
			<polygon class="st30" points="33.777,41.535 27.932,44.909 15.788,37.898 21.632,34.522 			"/>
			<polygon class="st31" points="27.932,44.909 27.932,45.707 33.777,42.333 33.777,41.535 			"/>
			<polygon class="st32" points="27.932,44.909 27.932,45.707 15.788,38.695 15.788,37.898 			"/>
		</g>
		<g>
			<path class="st33" d="M21.167,36.437l1.023,0.591l0.252-0.143l3.897-10.461c0.024,0.015,0.047,0.031,0.071,0.045
				c0.016,0.009,0.03,0.016,0.046,0.024l3.897,14.958l-0.252,0.143l1.023,0.591l0.252-0.143l-0.126-0.484l-3.923-15.059
				c0.169-0.139,0.271-0.384,0.271-0.716c0-0.758-0.532-1.68-1.188-2.059c-0.656-0.378-1.188-0.071-1.188,0.687
				c0,0.32,0.095,0.668,0.254,0.993l-4.057,10.89L21.167,36.437z"/>
			<path class="st34" d="M21.166,36.437l1.023,0.591l3.897-10.461c0.024,0.015,0.047,0.031,0.071,0.045
				c0.016,0.009,0.03,0.016,0.046,0.024L30.1,41.594l1.023,0.591l-4.048-15.543c0.169-0.139,0.271-0.384,0.271-0.716
				c0-0.758-0.532-1.68-1.188-2.059c-0.657-0.378-1.189-0.071-1.189,0.687c0,0.32,0.095,0.668,0.254,0.993L21.166,36.437z"/>
		</g>
		<g>
			<path class="st35" d="M26.323,35.518c-4.891-2.825-8.87-9.716-8.87-15.363c0-3.897,1.879-6.317,4.903-6.317
				c1.233,0,2.562,0.406,3.949,1.207c4.891,2.825,8.87,9.716,8.87,15.363c0,3.896-1.879,6.317-4.903,6.317
				C29.039,36.725,27.711,36.32,26.323,35.518z M18.017,20.157c0,5.468,3.853,12.141,8.589,14.875
				c1.299,0.75,2.533,1.131,3.666,1.131c2.677,0,4.339-2.204,4.339-5.753c0-5.468-3.853-12.141-8.589-14.875
				c-1.299-0.75-2.533-1.131-3.666-1.131C19.68,14.404,18.018,16.608,18.017,20.157z"/>
		</g>
		<path class="st36" d="M26.028,24.911l-8.266-4.725c0.001,0.113,0.004,0.226,0.009,0.34l8.309,4.749l-4.118,5.846
			c0.062,0.08,0.124,0.159,0.187,0.238l4.116-5.844l4.325,10.981c0.103-0.003,0.205-0.01,0.304-0.02l-4.295-10.905l8.267,4.726
			c-0.002-0.114-0.006-0.228-0.012-0.342l-8.353-4.774l4.1-5.82c-0.063-0.079-0.126-0.158-0.189-0.237l-4.074,5.784L22.07,14.07
			c-0.104,0.003-0.206,0.009-0.305,0.019L26.028,24.911z"/>
		<g>
			<path class="st37" d="M23.326,26.935c-0.065-0.112-0.027-0.256,0.085-0.321l2.656-1.544c0.112-0.065,0.256-0.027,0.321,0.085
				s0.027,0.256-0.085,0.321l-2.656,1.545c-0.037,0.022-0.076,0.032-0.117,0.032C23.449,27.053,23.371,27.011,23.326,26.935z"/>
		</g>
		<g>
			<g>
				<g>
					<path class="st38" d="M30.98,22.78c0.213,0.123,0.213,0.324,0,0.447L30,23.793c-0.214,0.123-0.562,0.123-0.775,0l-1.287-0.743
						c-0.213-0.123-0.213-0.324,0-0.447l0.98-0.566c0.212-0.123,0.561-0.123,0.773,0L30.98,22.78z"/>
					<path class="st39" d="M30.98,21.81l-1.287-0.743c-0.212-0.123-0.561-0.123-0.773,0l-0.98,0.566
						c-0.213,0.123-0.213,0.324,0,0.447v0.523l0.98-0.566c0.212-0.123,0.561-0.123,0.773,0l0.834,0.482l0.453-0.262
						C31.192,22.134,31.192,21.933,30.98,21.81z"/>
					<path class="st40" d="M27.778,21.866h-0.003v0.961l0,0c0,0.08,0.053,0.161,0.159,0.222l1.287,0.743
						c0.214,0.123,0.562,0.123,0.775,0l0.98-0.566c0.109-0.062,0.162-0.145,0.159-0.229h0.001v-0.951h-0.001
						c-0.004,0.077-0.058,0.152-0.158,0.21l-0.98,0.566c-0.214,0.123-0.562,0.123-0.775,0l-0.316-0.185v0.856l-0.647-0.374v-0.855
						l-0.323-0.184c-0.102-0.058-0.153-0.135-0.158-0.213V21.866z"/>
					<path class="st39" d="M27.783,21.867v0.961l0,0c0,0.08,0.053,0.161,0.159,0.222l1.287,0.743
						c0.113,0.065,0.263,0.094,0.412,0.091v-0.97c-0.149,0.004-0.299-0.026-0.412-0.091l-0.322-0.186v0.856l-0.647-0.374v-0.855
						l-0.318-0.184C27.84,22.022,27.789,21.945,27.783,21.867C27.784,21.867,27.783,21.867,27.783,21.867z"/>
					<path class="st41" d="M27.841,20.977v0.735v0.282V22c0.024,0.029,0.057,0.056,0.099,0.08l0.323,0.184v0.152l0,0v0.601v0.102
						l0.647,0.374v-0.475v-0.379l0.316,0.185c0.088,0.051,0.199,0.08,0.314,0.089c0.016,0.001,0.03,0.002,0.046,0.002
						c0.001,0,0.002,0,0.003,0c0.014,0,0.028,0,0.043,0c0.006,0,0.012,0,0.018,0c0.128-0.005,0.253-0.035,0.35-0.091l0.527-0.304
						l0,0l0,0l0.453-0.262c0.041-0.024,0.074-0.051,0.099-0.079v-0.001V21.89v-0.724l-0.608,0.351l-0.779-0.449
						c-0.101-0.058-0.235-0.089-0.369-0.091c-0.146-0.004-0.294,0.027-0.405,0.091l-0.462,0.266L27.841,20.977z"/>
					<path class="st39" d="M27.838,20.975l1.373,0.793c0.227,0.131,0.598,0.131,0.825,0l1.046-0.604
						c0.11-0.064,0.167-0.147,0.169-0.231h0.001v-0.007l0,0v-0.095l-0.024-0.001c-0.027-0.052-0.076-0.101-0.147-0.142l-1.373-0.793
						c-0.227-0.131-0.598-0.131-0.825,0l-1.046,0.604c-0.07,0.041-0.118,0.089-0.145,0.14l-0.025-0.001v0.094l0,0
						C27.663,20.82,27.721,20.909,27.838,20.975z"/>
					<path class="st42" d="M31.08,20.6c0.115,0.065,0.171,0.152,0.171,0.238c0,0.087-0.057,0.173-0.171,0.238l-1.046,0.604
						c-0.227,0.131-0.598,0.131-0.825,0l-1.373-0.793c-0.227-0.131-0.227-0.346,0-0.477l1.046-0.604
						c0.227-0.131,0.598-0.131,0.825,0L31.08,20.6z"/>
					<g>
						<path class="st37" d="M29.388,20.742v-0.801c0-0.039,0.031-0.069,0.069-0.069c0.037,0,0.069,0.031,0.069,0.069v0.801
							c0,0.039-0.031,0.069-0.069,0.069S29.389,20.78,29.388,20.742z"/>
					</g>
				</g>
				<g>
					<path class="st43" d="M27.665,20.925c-0.065-0.112-0.027-0.256,0.085-0.321l2.656-1.545c0.112-0.065,0.256-0.027,0.321,0.085
						s0.027,0.256-0.085,0.321l-2.656,1.545c-0.037,0.022-0.077,0.032-0.117,0.032C27.789,21.042,27.709,21,27.665,20.925z"/>
				</g>
			</g>
			<path class="st44" d="M28.398,21.209l0.323,0.186l1.871-1.081l-0.323-0.186l-0.741,0.428v0.185c0.001,0.081-0.132,0.103-0.139,0
				v-0.105L28.398,21.209z"/>
		</g>
		<g>
			<g>
				<g>
					<path class="st38" d="M35.188,33.654c0.213,0.123,0.213,0.324,0,0.447l-0.98,0.566c-0.212,0.123-0.56,0.123-0.773,0
						l-1.287-0.743c-0.213-0.123-0.213-0.324,0-0.447l0.98-0.566c0.212-0.123,0.561-0.123,0.773,0L35.188,33.654z"/>
					<path class="st45" d="M35.189,32.685l-1.287-0.743c-0.212-0.123-0.561-0.123-0.773,0l-0.98,0.566
						c-0.213,0.123-0.213,0.324,0,0.447v0.523l0.98-0.566c0.212-0.123,0.561-0.123,0.773,0l0.834,0.481l0.453-0.262
						C35.402,33.008,35.402,32.807,35.189,32.685z"/>
					<path class="st46" d="M31.985,32.739V33.7l0,0c0,0.08,0.053,0.161,0.159,0.222l1.287,0.743c0.212,0.123,0.561,0.123,0.773,0
						l0.98-0.566c0.109-0.062,0.162-0.145,0.159-0.229h0.001v-0.951h-0.001c-0.004,0.077-0.058,0.152-0.158,0.21l-0.98,0.566
						c-0.212,0.123-0.56,0.123-0.773,0l-0.316-0.185v0.855l-0.647-0.374v-0.855l-0.323-0.184c-0.102-0.058-0.153-0.135-0.158-0.213
						C31.988,32.739,31.985,32.739,31.985,32.739z"/>
					<path class="st45" d="M31.994,32.742L31.994,32.742l-0.001,0.961l0,0c0,0.08,0.053,0.161,0.159,0.222l1.287,0.743
						c0.113,0.065,0.263,0.094,0.412,0.091v-0.97c-0.149,0.005-0.299-0.026-0.412-0.091l-0.322-0.186v0.855l-0.647-0.374v-0.855
						l-0.318-0.184c-0.102-0.058-0.153-0.135-0.158-0.213V32.742z"/>
					<path class="st41" d="M32.048,31.851v0.735v0.282v0.006c0.024,0.028,0.057,0.055,0.099,0.079l0.323,0.184v0.152l0,0v0.601
						v0.101l0.649,0.374V33.89v-0.379l0.316,0.185c0.088,0.051,0.199,0.08,0.314,0.089c0.016,0.001,0.03,0.002,0.046,0.002
						c0.001,0,0.002,0,0.003,0c0.014,0,0.028,0,0.043,0c0.006,0,0.012,0,0.018,0c0.128-0.005,0.253-0.035,0.35-0.091l0.527-0.304
						l0,0l0,0l0.453-0.262c0.041-0.024,0.074-0.051,0.099-0.079V33.05v-0.288v-0.724l-0.608,0.351l-0.779-0.449
						c-0.101-0.058-0.235-0.089-0.369-0.091c-0.146-0.004-0.294,0.027-0.405,0.091l-0.462,0.266L32.048,31.851z"/>
					<path class="st47" d="M32.047,31.848l1.373,0.793c0.227,0.131,0.598,0.131,0.825,0l1.046-0.604
						c0.11-0.064,0.167-0.147,0.169-0.231h0.001v-0.007l0,0v-0.095l-0.024-0.001c-0.027-0.052-0.076-0.101-0.147-0.142l-1.373-0.793
						c-0.227-0.131-0.598-0.131-0.825,0l-1.046,0.604c-0.069,0.041-0.118,0.089-0.145,0.14l-0.025-0.001v0.094l0,0
						C31.873,31.693,31.929,31.782,32.047,31.848z"/>
					<path class="st48" d="M35.29,31.473c0.115,0.065,0.171,0.152,0.171,0.238c0,0.087-0.057,0.173-0.171,0.238l-1.046,0.604
						c-0.227,0.131-0.598,0.131-0.825,0l-1.373-0.793c-0.227-0.131-0.227-0.346,0-0.477l1.046-0.604
						c0.227-0.131,0.598-0.131,0.825,0L35.29,31.473z"/>
					<g>
						<path class="st37" d="M33.598,31.616l0-0.801c0-0.039,0.032-0.069,0.069-0.069c0.037,0,0.069,0.031,0.069,0.069l0,0.801
							c0,0.039-0.031,0.069-0.069,0.069C33.629,31.685,33.598,31.653,33.598,31.616z"/>
					</g>
				</g>
				<g>
					<path class="st43" d="M31.874,31.799c-0.065-0.112-0.027-0.256,0.085-0.321l2.656-1.545c0.112-0.065,0.256-0.027,0.321,0.085
						c0.065,0.112,0.027,0.256-0.085,0.321l-2.656,1.545c-0.037,0.022-0.077,0.032-0.117,0.032
						C31.998,31.916,31.919,31.875,31.874,31.799z"/>
				</g>
			</g>
			<path class="st44" d="M32.607,32.083l0.323,0.186l1.871-1.081l-0.323-0.186l-0.741,0.428l0,0.185
				c0.001,0.081-0.132,0.103-0.139,0V31.51L32.607,32.083z"/>
		</g>
		<g>
			<g>
				<g>
					<path class="st38" d="M18.111,23.911c0.213,0.123,0.213,0.324,0,0.447l-0.98,0.566c-0.214,0.123-0.562,0.123-0.775,0
						l-1.287-0.743c-0.213-0.123-0.213-0.324,0-0.447l0.98-0.566c0.214-0.123,0.563-0.123,0.775,0L18.111,23.911z"/>
					<path class="st45" d="M18.111,22.942l-1.287-0.743c-0.214-0.123-0.562-0.123-0.775,0l-0.98,0.566
						c-0.213,0.123-0.213,0.324,0,0.447v0.523l0.98-0.566c0.214-0.123,0.563-0.123,0.775,0l0.834,0.482l0.453-0.262
						C18.325,23.266,18.325,23.065,18.111,22.942z"/>
					<path class="st46" d="M14.908,22.998v0.961l0,0c0,0.08,0.053,0.161,0.159,0.222l1.287,0.743c0.214,0.123,0.562,0.123,0.775,0
						l0.98-0.566c0.109-0.062,0.162-0.145,0.159-0.229h0.001v-0.951h-0.001c-0.004,0.077-0.058,0.151-0.158,0.21l-0.98,0.566
						c-0.214,0.123-0.562,0.123-0.775,0l-0.316-0.185v0.855l-0.647-0.374v-0.855l-0.323-0.184c-0.102-0.058-0.153-0.135-0.158-0.213
						C14.911,22.998,14.908,22.998,14.908,22.998z"/>
					<path class="st45" d="M14.917,22.998l-0.001,0.962l0,0c0,0.08,0.053,0.161,0.159,0.222l1.287,0.743
						c0.113,0.065,0.263,0.094,0.412,0.091v-0.97c-0.149,0.004-0.299-0.026-0.412-0.091l-0.322-0.186v0.855l-0.647-0.374v-0.855
						l-0.318-0.184C14.973,23.153,14.922,23.076,14.917,22.998L14.917,22.998z"/>
					<path class="st41" d="M14.972,22.11v0.736v0.282v0.006c0.024,0.028,0.057,0.055,0.099,0.079l0.323,0.184v0.152l0,0v0.601v0.101
						l0.648,0.374V24.15v-0.379l0.316,0.185c0.088,0.051,0.199,0.08,0.314,0.089c0.016,0.001,0.03,0.002,0.046,0.002
						c0.001,0,0.002,0,0.003,0c0.015,0,0.028,0,0.043,0c0.006-0.001,0.012-0.001,0.018-0.001c0.128-0.005,0.253-0.035,0.35-0.091
						l0.527-0.304l0,0l0,0l0.453-0.262c0.041-0.024,0.074-0.051,0.099-0.079v-0.001v-0.288v-0.724l-0.608,0.351l-0.779-0.449
						c-0.101-0.058-0.235-0.089-0.369-0.091c-0.146-0.004-0.294,0.027-0.405,0.091l-0.462,0.266L14.972,22.11z"/>
					<path class="st47" d="M14.97,22.106l1.373,0.793c0.227,0.131,0.598,0.131,0.825,0l1.046-0.604
						c0.11-0.064,0.167-0.147,0.169-0.231h0.001v-0.007l0,0v-0.095l-0.024-0.001c-0.027-0.052-0.076-0.101-0.147-0.142l-1.373-0.793
						c-0.227-0.131-0.598-0.131-0.825,0l-1.046,0.604c-0.069,0.041-0.118,0.089-0.145,0.14l-0.025-0.001v0.094l0,0
						C14.796,21.951,14.853,22.04,14.97,22.106z"/>
					<path class="st48" d="M18.213,21.731c0.115,0.065,0.171,0.152,0.171,0.238c0,0.087-0.057,0.173-0.171,0.238l-1.046,0.604
						c-0.227,0.131-0.598,0.131-0.825,0l-1.373-0.793c-0.227-0.131-0.227-0.346,0-0.477l1.046-0.604
						c0.227-0.131,0.598-0.131,0.825,0L18.213,21.731z"/>
					<g>
						<path class="st37" d="M16.521,21.874v-0.801c0-0.039,0.031-0.069,0.069-0.069c0.037,0,0.069,0.031,0.069,0.069v0.801
							c0,0.039-0.031,0.069-0.069,0.069C16.552,21.943,16.52,21.912,16.521,21.874z"/>
					</g>
				</g>
				<g>
					<path class="st43" d="M14.798,22.058c-0.065-0.113-0.027-0.257,0.085-0.322l2.656-1.545c0.112-0.065,0.256-0.027,0.321,0.085
						c0.065,0.112,0.027,0.256-0.085,0.321l-2.656,1.545c-0.037,0.022-0.077,0.032-0.117,0.032
						C14.92,22.174,14.842,22.132,14.798,22.058z"/>
				</g>
			</g>
			<path class="st44" d="M15.529,22.341l0.323,0.186l1.871-1.081L17.4,21.26l-0.741,0.428v0.185c0.001,0.081-0.132,0.103-0.139,0
				v-0.105L15.529,22.341z"/>
		</g>
		<g>
			<g>
				<g>
					<path class="st38" d="M22.419,34.843c0.213,0.123,0.213,0.324,0,0.447l-0.98,0.566c-0.212,0.123-0.56,0.123-0.773,0
						l-1.287-0.743c-0.213-0.123-0.213-0.324,0-0.447l0.98-0.566c0.212-0.123,0.561-0.123,0.773,0L22.419,34.843z"/>
					<path class="st49" d="M22.419,33.873l-1.287-0.743c-0.212-0.123-0.56-0.123-0.773,0l-0.98,0.566
						c-0.213,0.123-0.213,0.324,0,0.447v0.523l0.98-0.566c0.212-0.123,0.561-0.123,0.773,0l0.834,0.482l0.453-0.262
						C22.633,34.197,22.633,33.996,22.419,33.873z"/>
					<path class="st40" d="M19.217,33.93v0.961l0,0c0,0.08,0.053,0.161,0.159,0.222l1.287,0.743c0.212,0.123,0.561,0.123,0.773,0
						l0.98-0.566c0.109-0.062,0.162-0.145,0.159-0.229h0.001V34.11h-0.001c-0.006,0.077-0.058,0.152-0.158,0.21l-0.98,0.566
						c-0.212,0.123-0.56,0.123-0.773,0l-0.316-0.185v0.855L19.7,35.182v-0.855l-0.323-0.184c-0.102-0.058-0.153-0.135-0.158-0.213
						C19.219,33.93,19.217,33.93,19.217,33.93z"/>
					<path class="st39" d="M19.224,33.931L19.224,33.931v0.961l0,0c0,0.08,0.053,0.161,0.159,0.222l1.287,0.743
						c0.113,0.065,0.263,0.094,0.412,0.091v-0.97c-0.149,0.005-0.299-0.026-0.412-0.091l-0.322-0.186v0.855L19.7,35.182v-0.855
						l-0.318-0.184c-0.102-0.058-0.153-0.135-0.158-0.213V33.931z"/>
					<path class="st41" d="M19.28,33.04v0.735v0.282v0.006c0.024,0.028,0.057,0.055,0.099,0.079l0.323,0.184v0.152l0,0v0.601v0.102
						l0.648,0.374V35.08v-0.379l0.316,0.185c0.088,0.051,0.199,0.08,0.314,0.089c0.016,0.001,0.03,0.002,0.046,0.002
						c0.001,0,0.002,0,0.003,0c0.014,0,0.028,0,0.043,0c0.006,0,0.012,0,0.018,0c0.128-0.005,0.253-0.035,0.35-0.091l0.527-0.304
						l0,0l0,0l0.453-0.262c0.04-0.024,0.074-0.051,0.099-0.079V34.24v-0.288v-0.724l-0.608,0.351l-0.779-0.449
						c-0.101-0.058-0.235-0.089-0.369-0.091c-0.146-0.004-0.294,0.027-0.405,0.091l-0.462,0.266L19.28,33.04z"/>
					<path class="st39" d="M19.277,33.037l1.373,0.793c0.227,0.131,0.598,0.131,0.825,0l1.046-0.604
						c0.11-0.064,0.167-0.147,0.169-0.231h0.001v-0.007l0,0v-0.095l-0.024-0.001c-0.027-0.052-0.076-0.101-0.147-0.142l-1.373-0.793
						c-0.227-0.131-0.598-0.131-0.825,0l-1.046,0.604c-0.07,0.041-0.118,0.089-0.145,0.14L19.106,32.7v0.094l0,0
						C19.104,32.883,19.16,32.971,19.277,33.037z"/>
					<path class="st42" d="M22.521,32.662c0.115,0.065,0.171,0.152,0.171,0.238c0,0.087-0.057,0.173-0.171,0.238l-1.046,0.604
						c-0.227,0.131-0.598,0.131-0.825,0l-1.373-0.793c-0.227-0.131-0.227-0.346,0-0.477l1.046-0.604
						c0.227-0.131,0.598-0.131,0.825,0L22.521,32.662z"/>
					<g>
						<path class="st37" d="M20.828,32.805v-0.801c0-0.039,0.03-0.069,0.069-0.069s0.069,0.031,0.069,0.069v0.801
							c0,0.039-0.031,0.069-0.069,0.069C20.86,32.874,20.828,32.843,20.828,32.805z"/>
					</g>
				</g>
				<g>
					<path class="st43" d="M19.105,32.988c-0.065-0.112-0.027-0.256,0.085-0.321l2.656-1.545c0.112-0.065,0.256-0.027,0.321,0.085
						s0.027,0.256-0.085,0.321l-2.656,1.545c-0.037,0.022-0.077,0.032-0.117,0.032C19.228,33.105,19.149,33.064,19.105,32.988z"/>
				</g>
			</g>
			<path class="st44" d="M19.837,33.272l0.323,0.186l1.871-1.081l-0.323-0.185l-0.741,0.428v0.185c0.001,0.081-0.132,0.103-0.139,0
				v-0.106L19.837,33.272z"/>
		</g>
		<g>
			<g>
				<g>
					<path class="st38" d="M31.127,39.957c0.213,0.123,0.213,0.324,0,0.447l-0.98,0.566c-0.214,0.123-0.562,0.123-0.775,0
						l-1.287-0.743c-0.213-0.123-0.213-0.324,0-0.447l0.98-0.566c0.212-0.123,0.561-0.123,0.773,0L31.127,39.957z"/>
					<path class="st49" d="M31.126,38.987l-1.287-0.743c-0.212-0.123-0.561-0.123-0.773,0l-0.98,0.566
						c-0.213,0.123-0.213,0.324,0,0.447v0.523l0.98-0.566c0.212-0.123,0.561-0.123,0.773,0l0.834,0.482l0.453-0.262
						C31.339,39.311,31.339,39.11,31.126,38.987z"/>
					<path class="st50" d="M27.924,39.044v0.961l0,0c0,0.08,0.053,0.161,0.159,0.222l1.287,0.743c0.214,0.123,0.562,0.123,0.775,0
						l0.98-0.566c0.109-0.062,0.162-0.145,0.159-0.229h0.001v-0.951h-0.001c-0.004,0.077-0.058,0.151-0.158,0.21L30.146,40
						c-0.214,0.123-0.562,0.123-0.775,0l-0.317-0.185v0.855l-0.647-0.374v-0.855l-0.323-0.184c-0.102-0.058-0.153-0.135-0.158-0.213
						C27.926,39.044,27.923,39.044,27.924,39.044z"/>
					<path class="st51" d="M27.931,39.045L27.931,39.045l-0.001,0.961l0,0c0,0.08,0.053,0.161,0.159,0.222l1.287,0.743
						c0.113,0.065,0.263,0.094,0.412,0.091v-0.97c-0.149,0.004-0.299-0.026-0.412-0.091l-0.322-0.186v0.855l-0.647-0.374v-0.855
						l-0.318-0.184c-0.102-0.058-0.153-0.135-0.158-0.213V39.045z"/>
					<path class="st41" d="M27.988,38.153v0.735v0.282v0.006c0.024,0.029,0.057,0.056,0.099,0.08l0.323,0.184v0.152l0,0v0.601v0.102
						l0.647,0.374v-0.475v-0.379L29.373,40c0.088,0.051,0.199,0.08,0.314,0.089c0.016,0.001,0.03,0.002,0.046,0.002
						c0.001,0,0.002,0,0.003,0c0.014,0,0.028,0,0.043,0c0.006,0,0.012,0,0.018,0c0.128-0.005,0.253-0.035,0.35-0.091l0.527-0.304
						l0,0l0,0l0.453-0.262c0.041-0.024,0.074-0.051,0.099-0.079v-0.001v-0.288v-0.724l-0.608,0.351l-0.779-0.449
						c-0.101-0.058-0.235-0.089-0.369-0.091c-0.146-0.004-0.294,0.027-0.405,0.091l-0.462,0.266L27.988,38.153z"/>
					<path class="st52" d="M27.984,38.151l1.373,0.793c0.227,0.131,0.598,0.131,0.825,0l1.046-0.603
						c0.11-0.064,0.167-0.147,0.169-0.231h0.001v-0.007l0,0v-0.095l-0.024-0.001c-0.027-0.052-0.076-0.101-0.147-0.142l-1.373-0.793
						c-0.227-0.131-0.598-0.131-0.825,0l-1.046,0.603c-0.07,0.041-0.118,0.089-0.145,0.14l-0.025-0.001v0.094l0,0
						C27.811,37.996,27.868,38.085,27.984,38.151z"/>
					<path class="st53" d="M31.227,37.775c0.115,0.065,0.171,0.152,0.171,0.238c0,0.087-0.057,0.173-0.171,0.238l-1.046,0.604
						c-0.227,0.131-0.598,0.131-0.825,0l-1.373-0.793c-0.227-0.131-0.227-0.346,0-0.477l1.046-0.603
						c0.227-0.131,0.598-0.131,0.825,0L31.227,37.775z"/>
					<g>
						<path class="st37" d="M29.535,37.919v-0.801c0-0.039,0.031-0.069,0.069-0.069c0.037,0,0.069,0.031,0.069,0.069v0.801
							c0,0.039-0.031,0.069-0.069,0.069S29.535,37.957,29.535,37.919z"/>
					</g>
				</g>
				<g>
					<path class="st43" d="M27.811,38.102c-0.065-0.112-0.027-0.256,0.085-0.321l2.656-1.545c0.112-0.065,0.256-0.027,0.321,0.085
						s0.027,0.256-0.085,0.321l-2.656,1.545c-0.036,0.022-0.077,0.032-0.117,0.032C27.935,38.219,27.856,38.178,27.811,38.102z"/>
				</g>
			</g>
			<path class="st44" d="M28.543,38.386l0.323,0.186l1.871-1.081l-0.322-0.185l-0.741,0.428v0.185c0.001,0.081-0.132,0.103-0.139,0
				v-0.106L28.543,38.386z"/>
		</g>
		<g>
			<g>
				<g>
					<path class="st38" d="M22.307,17.667c0.213,0.123,0.213,0.324,0,0.447l-0.98,0.566c-0.214,0.123-0.562,0.123-0.775,0
						l-1.287-0.743c-0.213-0.123-0.213-0.324,0-0.447l0.98-0.566c0.212-0.123,0.561-0.123,0.773,0L22.307,17.667z"/>
					<path class="st49" d="M22.305,16.697l-1.287-0.743c-0.212-0.123-0.561-0.123-0.773,0l-0.98,0.566
						c-0.213,0.123-0.213,0.324,0,0.447v0.523l0.98-0.566c0.212-0.123,0.561-0.123,0.773,0l0.834,0.482l0.453-0.262
						C22.519,17.022,22.519,16.821,22.305,16.697z"/>
					<path class="st50" d="M19.102,16.754v0.961l0,0c0,0.08,0.053,0.161,0.159,0.222l1.287,0.743c0.214,0.123,0.563,0.123,0.775,0
						l0.98-0.566c0.109-0.062,0.162-0.145,0.159-0.229h0.001v-0.951h-0.001c-0.006,0.077-0.058,0.151-0.158,0.21l-0.98,0.566
						c-0.214,0.123-0.562,0.123-0.775,0l-0.316-0.185v0.855l-0.647-0.374v-0.855l-0.323-0.184c-0.102-0.058-0.153-0.135-0.158-0.213
						H19.102z"/>
					<path class="st51" d="M19.11,16.755L19.11,16.755l-0.001,0.961l0,0c0,0.08,0.053,0.161,0.159,0.222l1.287,0.743
						c0.113,0.065,0.263,0.094,0.412,0.091v-0.97c-0.149,0.004-0.299-0.026-0.412-0.091l-0.322-0.186v0.855l-0.647-0.374v-0.855
						l-0.318-0.184C19.166,16.909,19.115,16.832,19.11,16.755L19.11,16.755z"/>
					<path class="st41" d="M19.165,15.864V16.6v0.282v0.006c0.024,0.028,0.057,0.055,0.099,0.079l0.323,0.184v0.152l0,0v0.601v0.102
						l0.648,0.374v-0.475v-0.379l0.316,0.185c0.088,0.051,0.199,0.08,0.314,0.089c0.016,0.001,0.03,0.002,0.046,0.002
						c0.001,0,0.002,0,0.003,0c0.014,0,0.028,0,0.043,0c0.006,0,0.012,0,0.018,0c0.128-0.005,0.253-0.035,0.35-0.091l0.527-0.304
						l0,0l0,0l0.453-0.262c0.04-0.024,0.074-0.051,0.099-0.079v-0.001v-0.288v-0.724l-0.608,0.351l-0.779-0.449
						c-0.101-0.058-0.235-0.089-0.369-0.091c-0.146-0.004-0.294,0.027-0.405,0.091l-0.462,0.266L19.165,15.864z"/>
					<path class="st52" d="M19.163,15.863l1.373,0.793c0.227,0.131,0.598,0.131,0.825,0l1.046-0.604
						c0.11-0.064,0.167-0.147,0.169-0.231h0.001v-0.007l0,0v-0.095l-0.024-0.001c-0.027-0.052-0.076-0.101-0.147-0.142l-1.373-0.793
						c-0.227-0.131-0.598-0.131-0.825,0l-1.046,0.603c-0.07,0.041-0.118,0.089-0.145,0.14l-0.025-0.001v0.094l0,0
						C18.99,15.707,19.046,15.796,19.163,15.863z"/>
					<path class="st53" d="M22.407,15.487c0.115,0.065,0.171,0.152,0.171,0.238c0,0.087-0.057,0.173-0.171,0.238l-1.046,0.604
						c-0.227,0.131-0.598,0.131-0.825,0l-1.373-0.793c-0.227-0.131-0.227-0.346,0-0.477l1.046-0.604
						c0.227-0.131,0.598-0.131,0.825,0L22.407,15.487z"/>
					<g>
						<path class="st37" d="M20.715,15.629v-0.801c0-0.039,0.03-0.069,0.069-0.069s0.069,0.031,0.069,0.069v0.802
							c0,0.039-0.031,0.069-0.069,0.069S20.714,15.667,20.715,15.629z"/>
					</g>
				</g>
				<g>
					<path class="st43" d="M18.991,15.814c-0.065-0.113-0.027-0.257,0.085-0.322l2.656-1.545c0.112-0.065,0.256-0.027,0.321,0.085
						s0.027,0.256-0.085,0.321l-2.656,1.545c-0.036,0.022-0.077,0.032-0.117,0.032C19.114,15.93,19.035,15.889,18.991,15.814z"/>
				</g>
			</g>
			<path class="st44" d="M19.723,16.097l0.323,0.186l1.871-1.081l-0.323-0.186l-0.741,0.428v0.185c0.001,0.081-0.132,0.103-0.139,0
				v-0.105L19.723,16.097z"/>
		</g>
		<g>
			<path class="st54" d="M23.114,26.51l-8.266-4.725c0.001,0.113,0.004,0.226,0.009,0.34l8.309,4.749l-4.118,5.846
				c0.062,0.08,0.124,0.159,0.187,0.238l4.116-5.844l4.325,10.981c0.103-0.003,0.205-0.01,0.304-0.02L23.686,27.17l8.267,4.726
				c-0.002-0.114-0.006-0.228-0.012-0.342l-8.353-4.774l4.1-5.82c-0.063-0.079-0.126-0.158-0.189-0.237l-4.074,5.784l-4.268-10.838
				c-0.104,0.003-0.206,0.009-0.305,0.019L23.114,26.51z"/>
			<g>
				<path class="st55" d="M23.409,37.117c-4.891-2.825-8.87-9.716-8.87-15.363c0-3.897,1.879-6.317,4.903-6.317
					c1.234,0,2.562,0.406,3.949,1.207c4.891,2.825,8.87,9.716,8.87,15.363c0,3.897-1.879,6.317-4.903,6.317
					C26.125,38.324,24.797,37.919,23.409,37.117z M15.104,21.756c0,5.468,3.853,12.141,8.589,14.875
					c1.299,0.75,2.533,1.131,3.666,1.131c2.676,0,4.339-2.204,4.339-5.753c0-5.468-3.853-12.141-8.589-14.875
					c-1.299-0.75-2.533-1.131-3.666-1.131C16.767,16.003,15.103,18.207,15.104,21.756z"/>
			</g>
		</g>
		<g>
			<g>
				<path class="st33" d="M18.424,38.013l1.023,0.591l0.252-0.143L23.596,28c0.024,0.015,0.047,0.031,0.071,0.045
					c0.016,0.009,0.03,0.016,0.046,0.024l3.897,14.958l-0.252,0.143l1.023,0.591l0.252-0.143l-0.126-0.484l-3.923-15.059
					c0.169-0.139,0.271-0.384,0.271-0.716c0-0.758-0.533-1.68-1.189-2.059c-0.656-0.378-1.188-0.071-1.188,0.687
					c0,0.32,0.095,0.668,0.254,0.993l-4.057,10.89L18.424,38.013z"/>
				<polygon class="st56" points="19.697,38.461 19.445,38.604 23.342,28.144 23.512,28.222 				"/>
				<path class="st57" d="M18.423,38.015l1.023,0.591l3.897-10.461c0.024,0.015,0.047,0.031,0.071,0.045
					c0.016,0.009,0.03,0.016,0.046,0.024l3.897,14.958l1.023,0.591l-4.049-15.544c0.169-0.139,0.271-0.384,0.271-0.716
					c0-0.758-0.532-1.68-1.188-2.059c-0.657-0.378-1.189-0.071-1.189,0.687c0,0.32,0.095,0.668,0.254,0.993L18.423,38.015z"/>
			</g>
			<path class="st37" d="M23.811,27.034c0,0.298-0.208,0.419-0.467,0.27c-0.258-0.149-0.467-0.512-0.467-0.81
				s0.208-0.419,0.467-0.27C23.603,26.373,23.811,26.736,23.811,27.034z"/>
			<path class="st58" d="M23.66,26.55c-0.082-0.135-0.193-0.255-0.315-0.325c-0.258-0.149-0.467-0.028-0.467,0.27
				c0,0.211,0.105,0.452,0.257,0.629c-0.093-0.152-0.152-0.327-0.152-0.484c0-0.298,0.208-0.419,0.467-0.27
				C23.526,26.413,23.596,26.477,23.66,26.55z"/>
		</g>
	</g>
</g>
</svg>
