<?xml version="1.0" encoding="utf-8"?>
<!-- Generator: Adobe Illustrator 26.0.1, SVG Export Plug-In . SVG Version: 6.00 Build 0)  -->
<svg version="1.1" id="Layer_1" xmlns="http://www.w3.org/2000/svg" xmlns:xlink="http://www.w3.org/1999/xlink" x="0px" y="0px"
	 viewBox="0 0 50 50" style="enable-background:new 0 0 50 50;" xml:space="preserve">
<style type="text/css">
	.st0{opacity:0.24;fill:#C0C7CA;enable-background:new    ;}
	.st1{fill:#0A8B8D;}
	.st2{fill:#19ACAF;}
	.st3{fill:#00BFC1;}
	.st4{fill:#006162;}
	.st5{fill:#91D6D0;}
	.st6{opacity:0.13;fill:#0E0F12;enable-background:new    ;}
	.st7{fill:#DEDFE0;}
	.st8{fill:#ADAFB1;}
	.st9{fill:#9C9EA0;}
	.st10{fill:#4D4D4F;}
	.st11{fill:#231F20;}
	.st12{fill:#D1D3D4;}
	.st13{fill:#D3D5D6;}
	.st14{fill:#FFFFFF;}
	.st15{fill:#D5D7D8;}
	.st16{fill:#C83427;}
	.st17{fill:#494344;}
	.st18{fill:#35A313;}
	.st19{opacity:0.23;fill:#35A313;enable-background:new    ;}
	.st20{opacity:0.17;}
	.st21{fill:#F3F4F4;}
	.st22{fill:#67686B;}
</style>
<path class="st0" d="M20.058,47.725L8.271,39.408c-0.464-0.28-0.337-0.697,0.282-0.926l22.154-8.163
	c0.62-0.229,1.507-0.186,1.971,0.094l12.69,7.323c0.464,0.28,0.337,0.697-0.282,0.926l-23.057,9.157
	C21.409,48.048,20.522,48.006,20.058,47.725z"/>
<g>
	<g>
		<polygon class="st1" points="9.929,38.55 14.744,41.947 13.846,33.693 14.564,34.2 14.466,33.074 8.6,28.935 		"/>
		<g>
			<g>
				<path class="st2" d="M5.253,27.598L7.93,38.042c0.012,0.122,0.1,0.242,0.268,0.343L9.31,39.17l-1.329-9.615l-2.508-1.77
					C5.377,27.727,5.304,27.664,5.253,27.598z"/>
				<polygon class="st2" points="18.561,37.02 13.846,33.693 14.842,43.073 19.554,46.397 				"/>
			</g>
			<path class="st3" d="M5.253,27.597l-0.075-0.348C5.142,27.366,5.166,27.486,5.253,27.597z"/>
		</g>
		<polygon class="st4" points="9.31,39.169 7.981,29.555 8.6,28.935 9.929,38.55 		"/>
	</g>
	<path class="st3" d="M43.532,37.217c-0.049,0.161-0.229,0.317-0.527,0.427l-21.552,8.844c-0.597,0.22-1.451,0.179-1.899-0.091
		l-0.993-9.378c0.515,0.311,1.5,0.358,2.188,0.104l24.691-9.742c0.275-0.101,0.463-0.237,0.556-0.382L43.532,37.217z"/>
	<path class="st3" d="M18.13,35.791L5.042,26.556c-0.516-0.311-0.375-0.774,0.313-1.028l24.599-9.064
		c0.688-0.254,1.672-0.207,2.188,0.104L46.233,24.7c0.516,0.311,0.375,0.774-0.313,1.028L20.318,35.895
		C19.63,36.149,18.645,36.102,18.13,35.791z"/>
	<path class="st5" d="M18.876,34.836L7.089,26.519c-0.464-0.28-0.337-0.697,0.282-0.926l22.154-8.163
		c0.62-0.229,1.507-0.186,1.971,0.094l12.69,7.323c0.464,0.28,0.337,0.697-0.282,0.926L20.846,34.93
		C20.227,35.158,19.34,35.116,18.876,34.836z"/>
	<g>
		<path class="st1" d="M4.735,27.818v-0.106C4.73,27.747,4.73,27.783,4.735,27.818z"/>
		<path class="st1" d="M45.92,25.728"/>
		<path class="st1" d="M18.129,35.791L5.041,26.556c-0.185-0.112-0.285-0.244-0.306-0.378v1.64c0.02,0.135,0.121,0.266,0.306,0.378
			l13.088,9.235V35.791z"/>
		<path class="st1" d="M45.92,27.367"/>
	</g>
	<path class="st2" d="M18.13,35.791v1.64c0.515,0.311,1.5,0.358,2.188,0.104L45.92,27.368c0.375-0.138,0.588-0.339,0.619-0.544
		v-1.64c-0.031,0.204-0.243,0.405-0.619,0.544L20.318,35.895C19.63,36.149,18.645,36.102,18.13,35.791z"/>
	<g>
		<path class="st2" d="M8.549,29.422v1.377c0.04,0.56,0.569,1.353,1.211,1.8l2.71,1.888c0.349,0.243,0.665,0.338,0.887,0.293
			c0.179-0.037,0.298-0.164,0.323-0.377v-1.377L8.549,29.422z"/>
		<polygon class="st5" points="13.68,33.026 8.549,29.423 8.715,29.301 13.846,32.905 		"/>
		<g>
			<path class="st4" d="M13.683,34.406c-0.012,0.094-0.042,0.171-0.087,0.231c0.138-0.053,0.228-0.172,0.25-0.355v-1.377
				l-0.166,0.121l0.003,0.002C13.683,33.028,13.683,34.406,13.683,34.406z"/>
		</g>
	</g>
	<g>
		<g>
			<path class="st1" d="M8.94,37.961c1.934,0,1.93-3,0-3C7.006,34.961,7.01,37.961,8.94,37.961L8.94,37.961z"/>
		</g>
	</g>
</g>
<path class="st6" d="M18.521,23.565l-5.286-3.209c-0.143-0.082-0.157-0.19-0.031-0.239l3.423-1.272
	c0.126-0.05,0.346-0.023,0.488,0.059l5.105,2.927c0.143,0.082,0.157,0.19,0.031,0.239l-3.243,1.554
	C18.883,23.674,18.663,23.647,18.521,23.565z"/>
<path class="st6" d="M32.23,28.239l-5.817-2.099c-0.156-0.052-0.191-0.155-0.077-0.228l3.104-1.925
	c0.114-0.074,0.334-0.091,0.49-0.039l5.584,1.859c0.156,0.052,0.191,0.155,0.077,0.228L32.72,28.2
	C32.607,28.273,32.386,28.291,32.23,28.239z"/>
<path class="st6" d="M8.467,26.795L2.65,24.696c-0.156-0.052-0.191-0.155-0.077-0.228l3.104-1.925
	c0.114-0.074,0.334-0.091,0.49-0.039l5.584,1.859c0.156,0.052,0.191,0.155,0.077,0.228l-2.871,2.165
	C8.844,26.83,8.624,26.847,8.467,26.795z"/>
<g>
	<g>
		<g>
			<path class="st7" d="M10.199,19.857l-3.76-0.732c-0.428-0.083-1.012,0.118-1.298,0.446l-2.514,2.891
				c-0.286,0.329-0.17,0.666,0.258,0.749l3.76,0.732c0.428,0.083,1.012-0.118,1.298-0.446l2.514-2.891
				C10.743,20.277,10.627,19.94,10.199,19.857z"/>
			<g>
				<path class="st8" d="M11.148,21.744c0.047,0.136,0.004,0.302-0.139,0.467l-2.514,2.891l-0.552-1.604l2.514-2.891
					c0.143-0.164,0.185-0.331,0.139-0.467L11.148,21.744z"/>
			</g>
			<path class="st9" d="M3.041,24.533c0.047,0.136,0.183,0.241,0.396,0.282l3.76,0.732c0.428,0.083,1.012-0.118,1.298-0.446
				l-0.552-1.604c-0.286,0.329-0.87,0.53-1.298,0.446l-3.76-0.732c-0.214-0.042-0.35-0.147-0.396-0.282L3.041,24.533z"/>
		</g>
		<g>
			<g>
				<path class="st10" d="M8.986,20.864c0.028,0.08,0.003,0.179-0.082,0.276l-1.483,1.707l-0.326-0.948l1.483-1.707
					c0.084-0.097,0.109-0.195,0.082-0.276L8.986,20.864z"/>
			</g>
			<path class="st11" d="M4.203,22.509c0.028,0.08,0.108,0.142,0.234,0.167l2.219,0.433c0.252,0.049,0.597-0.069,0.766-0.263
				l-0.326-0.948c-0.169,0.194-0.513,0.313-0.766,0.263l-2.219-0.433c-0.126-0.025-0.206-0.087-0.234-0.167L4.203,22.509z"/>
			<path class="st12" d="M3.982,21.868c0.028,0.08,0.108,0.142,0.234,0.167l2.219,0.433c0.252,0.049,0.597-0.069,0.766-0.263
				l-0.105-0.306c-0.169,0.194-0.513,0.313-0.766,0.263l-2.219-0.433c-0.126-0.025-0.206-0.087-0.234-0.167L3.982,21.868z"/>
			<path class="st8" d="M8.426,19.749l-2.219-0.433c-0.252-0.049-0.597,0.069-0.766,0.263l-1.483,1.707
				c-0.169,0.194-0.1,0.393,0.152,0.443l2.219,0.433c0.252,0.049,0.597-0.069,0.766-0.263l1.483-1.707
				C8.747,19.997,8.678,19.798,8.426,19.749z"/>
			<g>
				<path class="st13" d="M8.765,20.222c0.028,0.08,0.003,0.179-0.082,0.276L7.2,22.205l-0.105-0.306l1.483-1.707
					c0.084-0.097,0.109-0.195,0.082-0.276L8.765,20.222z"/>
			</g>
		</g>
		<g>
			
				<ellipse transform="matrix(0.9456 -0.3254 0.3254 0.9456 -6.1833 3.0471)" class="st14" cx="6.018" cy="20.009" rx="1.086" ry="0.629"/>
			<path class="st7" d="M4.99,20.363c0.113,0.329,0.665,0.437,1.232,0.241s0.936-0.62,0.823-0.948l0.258,0.749
				c0.113,0.329-0.255,0.753-0.823,0.948s-1.119,0.087-1.232-0.241L4.99,20.363z"/>
		</g>
	</g>
	<g>
		<g>
			<path class="st7" d="M33.475,20.847l-3.698-1c-0.421-0.114-1.017,0.045-1.326,0.352l-2.715,2.703
				c-0.309,0.307-0.217,0.652,0.203,0.766l3.698,1c0.421,0.114,1.017-0.045,1.326-0.352l2.715-2.703
				C33.987,21.306,33.896,20.961,33.475,20.847z"/>
			<g>
				<path class="st8" d="M34.286,22.797c0.037,0.139-0.017,0.302-0.172,0.455l-2.715,2.703l-0.435-1.64l2.715-2.703
					c0.154-0.154,0.209-0.317,0.172-0.455L34.286,22.797z"/>
			</g>
			<path class="st9" d="M25.999,24.998c0.037,0.139,0.165,0.253,0.375,0.31l3.698,1c0.421,0.114,1.017-0.045,1.326-0.352
				l-0.435-1.64c-0.309,0.307-0.906,0.466-1.326,0.352l-3.698-1c-0.21-0.057-0.338-0.171-0.375-0.31L25.999,24.998z"/>
		</g>
		<g>
			<path class="st15" d="M30.523,22.564l0.979-0.975c0.057-0.161,0.071-0.323,0.03-0.478c-0.175-0.658-1.237-0.946-2.373-0.645
				c-0.062,0.017-0.123,0.035-0.183,0.055L27.4,22.09c0.004,0.038,0.01,0.076,0.02,0.113c0.175,0.658,1.237,0.946,2.373,0.645
				C30.058,22.777,30.304,22.679,30.523,22.564z"/>
			<g>
				<path class="st14" d="M31.546,21.753l-0.979,0.975c-0.219,0.115-0.465,0.213-0.731,0.284c-1.071,0.284-2.076,0.043-2.334-0.537
					l0.028,0.104c0.004,0.038,0.01,0.076,0.02,0.113c0.175,0.658,1.237,0.946,2.373,0.645c0.266-0.071,0.512-0.168,0.731-0.284
					l0.979-0.975c0.057-0.161,0.071-0.323,0.03-0.478l-0.086-0.325C31.617,21.43,31.603,21.592,31.546,21.753z"/>
			</g>
			<g>
				<path class="st8" d="M31.502,21.589l-0.979,0.975c-0.219,0.115-0.465,0.213-0.731,0.284c-1.071,0.284-2.076,0.043-2.334-0.537
					l-0.015-0.057c0.004,0.038,0.01,0.076,0.02,0.113c0.175,0.658,1.237,0.946,2.373,0.645c0.266-0.071,0.512-0.168,0.731-0.284
					l0.979-0.975c0.057-0.161,0.071-0.323,0.03-0.478l-0.044-0.164C31.573,21.266,31.559,21.428,31.502,21.589z"/>
			</g>
		</g>
		<g>
			<path class="st16" d="M29.826,22.501c-0.19,0.05-0.358-0.009-0.393-0.138l-0.009-0.066l0.028-0.028
				c0.721-0.728,0.96-0.97,1.048-1.052c-0.015-0.023-0.084-0.048-0.183-0.022l-0.943,0.978c-0.033,0.018-0.069,0.032-0.107,0.042
				c-0.19,0.05-0.358-0.009-0.393-0.138l-0.009-0.066l0.028-0.028c0.721-0.728,0.96-0.969,1.048-1.052
				c-0.015-0.024-0.084-0.048-0.183-0.022l-1.106,1.15c-0.033,0.018-0.069,0.032-0.107,0.042c-0.19,0.05-0.358-0.009-0.393-0.138
				l-0.008-0.067l0.027-0.027c1.078-1.089,1.078-1.089,1.108-1.097c0.045-0.012,0.09,0.015,0.102,0.059
				c0.009,0.033-0.003,0.066-0.028,0.086c-0.046,0.043-0.613,0.615-1.016,1.021c0.03,0.013,0.088,0.022,0.165,0.001
				c0.021-0.006,0.042-0.013,0.061-0.022l1.105-1.155l0.046-0.014c0.19-0.05,0.358,0.009,0.393,0.138
				c0.009,0.035,0.007,0.072-0.006,0.108l-0.015,0.042l-0.022,0.006c-0.092,0.09-0.622,0.624-1.005,1.01
				c0.031,0.013,0.089,0.022,0.164,0.002c0.021-0.006,0.042-0.013,0.061-0.022l0.942-0.983l0.046-0.014
				c0.19-0.05,0.358,0.009,0.393,0.138c0.009,0.035,0.007,0.072-0.006,0.108l-0.015,0.041l-0.022,0.006
				c-0.092,0.09-0.622,0.624-1.004,1.01c0.031,0.013,0.089,0.022,0.164,0.002c0.021-0.006,0.041-0.013,0.06-0.022l0.979-1.091
				c0.031-0.034,0.084-0.037,0.118-0.007c0.034,0.031,0.037,0.084,0.006,0.118l-1.013,1.121
				C29.9,22.477,29.864,22.491,29.826,22.501z"/>
		</g>
	</g>
	<g>
		<g>
			<path class="st7" d="M43.942,17.511l-3.074-2.286c-0.35-0.26-0.963-0.331-1.363-0.159l-3.517,1.519
				c-0.4,0.173-0.441,0.527-0.092,0.787l3.074,2.286c0.35,0.26,0.963,0.331,1.363,0.159l3.517-1.519
				C44.251,18.125,44.292,17.771,43.942,17.511z"/>
			<g>
				<path class="st8" d="M43.981,19.623c-0.017,0.143-0.127,0.274-0.327,0.361l-3.517,1.519l0.196-1.685l3.517-1.519
					c0.2-0.086,0.31-0.218,0.327-0.361L43.981,19.623z"/>
			</g>
			<path class="st9" d="M35.465,18.632c-0.017,0.143,0.061,0.296,0.235,0.426l3.074,2.286c0.35,0.26,0.963,0.331,1.363,0.159
				l0.196-1.685c-0.4,0.173-1.013,0.101-1.363-0.159l-3.074-2.286c-0.175-0.13-0.252-0.284-0.235-0.426L35.465,18.632z"/>
		</g>
		<path class="st11" d="M36.953,17.137c-0.012,0.103,0.043,0.213,0.169,0.307l2.21,1.645c0.251,0.187,0.692,0.238,0.98,0.114
			l0.046-0.392c-0.288,0.124-0.729,0.073-0.98-0.114l-2.21-1.645c-0.126-0.094-0.181-0.204-0.169-0.307L36.953,17.137z"/>
		<path class="st17" d="M42.952,17.15l-2.21-1.645c-0.251-0.187-0.692-0.238-0.98-0.114l-2.529,1.094
			c-0.288,0.124-0.317,0.379-0.066,0.567l2.21,1.645c0.251,0.187,0.692,0.238,0.98,0.114l2.529-1.094
			C43.173,17.593,43.203,17.338,42.952,17.15z"/>
		<g>
			<path class="st10" d="M43.075,17.849c-0.012,0.103-0.091,0.198-0.235,0.26l-2.529,1.094l0.046-0.392l2.529-1.094
				c0.144-0.062,0.223-0.157,0.235-0.26L43.075,17.849z"/>
		</g>
		<g>
			
				<ellipse transform="matrix(0.1156 -0.9933 0.9933 0.1156 18.3867 54.7721)" class="st14" cx="39.951" cy="17.061" rx="1.035" ry="1.788"/>
		</g>
		<g>
			
				<ellipse transform="matrix(0.1156 -0.9933 0.9933 0.1156 18.4184 54.7695)" class="st18" cx="39.966" cy="17.042" rx="0.901" ry="1.642"/>
		</g>
		<path class="st19" d="M37.891,11.732c-0.094,0.805,1.019,1.595,2.486,1.766c1.467,0.171,2.731-0.343,2.825-1.148l-1.607,4.882
			c-0.057,0.494-0.834,0.81-1.735,0.705s-1.584-0.59-1.526-1.084L37.891,11.732z"/>
		<g class="st20">
			
				<ellipse transform="matrix(0.1156 -0.9933 0.9933 0.1156 23.9003 50.9245)" class="st18" cx="40.548" cy="12.041" rx="1.467" ry="2.673"/>
		</g>
	</g>
	<g>
		<g>
			<g>
				<path class="st8" d="M23.113,20.783c-0.037,0.139-0.165,0.253-0.375,0.31l-3.699,0.997l0.437-1.639l3.699-0.997
					c0.21-0.057,0.338-0.171,0.375-0.31L23.113,20.783z"/>
			</g>
			<path class="st9" d="M11.322,15.081c-0.037,0.139,0.017,0.302,0.172,0.456l6.218,6.2c0.309,0.308,0.905,0.467,1.326,0.353
				l0.437-1.639c-0.421,0.113-1.017-0.046-1.326-0.353l-6.218-6.2c-0.154-0.154-0.208-0.317-0.172-0.456L11.322,15.081z"/>
			<path class="st7" d="M23.378,18.688l-2.713-2.705c-0.008-0.008-0.018-0.015-0.027-0.023l-0.745-0.743
				c-0.008-0.008-0.012-0.016-0.02-0.024l-2.713-2.705c-0.309-0.308-0.905-0.467-1.326-0.353l-3.699,0.997
				c-0.421,0.113-0.512,0.458-0.204,0.766l1.371,1.367c0.008,0.008,0.012,0.016,0.02,0.024l2.713,2.705
				c0.008,0.008,0.018,0.015,0.027,0.022l2.087,2.081c0.309,0.308,0.905,0.467,1.326,0.353l3.699-0.997
				C23.594,19.34,23.686,18.995,23.378,18.688z"/>
		</g>
		<g>
			<path class="st8" d="M21.312,18.891c-0.015,0.057-0.068,0.104-0.154,0.127l-1.519,0.41l0.179-0.673l1.519-0.41
				c0.086-0.023,0.139-0.07,0.154-0.127L21.312,18.891z"/>
		</g>
		<path class="st9" d="M13.915,14.002c-0.015,0.057,0.007,0.124,0.07,0.187l5.108,5.093c0.127,0.126,0.372,0.192,0.545,0.145
			l0.179-0.673c-0.173,0.047-0.418-0.019-0.545-0.145l-5.108-5.093c-0.063-0.063-0.086-0.13-0.07-0.187L13.915,14.002z"/>
		<path class="st21" d="M21.421,18.03l-1.114-1.111c-0.003-0.003-0.008-0.006-0.011-0.009l-0.306-0.305
			c-0.003-0.003-0.005-0.007-0.008-0.01l-1.114-1.111l-1.114-1.111c-0.003-0.003-0.008-0.006-0.011-0.009l-0.306-0.305
			c-0.003-0.003-0.005-0.007-0.008-0.01l-1.114-1.111c-0.127-0.126-0.372-0.192-0.545-0.145l-1.519,0.41
			c-0.173,0.047-0.211,0.188-0.084,0.314l0.563,0.562c0.003,0.003,0.005,0.007,0.008,0.01l1.114,1.111
			c0.003,0.003,0.008,0.006,0.011,0.009l0.857,0.855l0.563,0.562c0.003,0.003,0.005,0.007,0.008,0.01l1.114,1.111
			c0.003,0.003,0.008,0.006,0.011,0.009l0.857,0.855c0.127,0.126,0.372,0.192,0.545,0.145l1.519-0.41
			C21.51,18.298,21.547,18.156,21.421,18.03z"/>
		<path class="st11" d="M20.342,17.885l-4.312-4.283c-0.04-0.04-0.116-0.06-0.17-0.045l-0.475,0.128
			c-0.054,0.015-0.066,0.059-0.026,0.098l4.312,4.283c0.04,0.04,0.116,0.06,0.17,0.045l0.475-0.128
			C20.369,17.969,20.381,17.924,20.342,17.885z"/>
		<g>
			<g>
				<path class="st10" d="M16.857,14.428c-0.005,0.018-0.021,0.033-0.048,0.04l-0.475,0.128l0.569-2.135l0.475-0.128
					c0.027-0.007,0.043-0.022,0.048-0.04L16.857,14.428z"/>
			</g>
			<path class="st22" d="M15.794,14.145c-0.005,0.018,0.002,0.039,0.022,0.059l0.348,0.347c0.04,0.04,0.116,0.06,0.17,0.045
				l0.569-2.135c-0.054,0.015-0.131-0.006-0.17-0.045l-0.348-0.347c-0.02-0.02-0.027-0.041-0.022-0.059L15.794,14.145z"/>
			<path class="st11" d="M17.404,12.234l-0.348-0.347c-0.04-0.04-0.116-0.06-0.17-0.045l-0.475,0.128
				c-0.054,0.015-0.066,0.059-0.026,0.098l0.348,0.347c0.04,0.04,0.116,0.06,0.17,0.045l0.475-0.128
				C17.431,12.318,17.443,12.274,17.404,12.234z"/>
		</g>
	</g>
	<g>
		<g>
			<path class="st7" d="M26.009,43.772l-2.705-2.712c-0.308-0.309-0.904-0.469-1.325-0.357l-3.702,0.987
				c-0.421,0.112-0.514,0.456-0.206,0.765l2.705,2.712c0.308,0.309,0.904,0.469,1.325,0.357l3.702-0.987
				C26.224,44.424,26.317,44.08,26.009,43.772z"/>
			<g>
				<path class="st8" d="M25.738,45.866c-0.037,0.139-0.166,0.253-0.376,0.309l-3.702,0.987l0.441-1.638l3.702-0.987
					c0.211-0.056,0.339-0.17,0.376-0.309L25.738,45.866z"/>
			</g>
			<path class="st9" d="M17.46,43.636c-0.037,0.139,0.016,0.302,0.17,0.456l2.705,2.712c0.308,0.309,0.904,0.469,1.325,0.357
				l0.441-1.638c-0.421,0.112-1.017-0.048-1.325-0.357l-2.705-2.712c-0.154-0.154-0.208-0.317-0.17-0.456L17.46,43.636z"/>
		</g>
		<g>
			<g>
				<path class="st10" d="M24.44,43.926c-0.022,0.082-0.098,0.149-0.222,0.183l-2.184,0.584l0.261-0.968l2.184-0.584
					c0.124-0.033,0.2-0.101,0.222-0.183L24.44,43.926z"/>
			</g>
			<path class="st11" d="M19.556,42.611c-0.022,0.082,0.01,0.178,0.1,0.269l1.596,1.602c0.181,0.182,0.533,0.277,0.782,0.211
				l0.261-0.968c-0.248,0.066-0.6-0.028-0.782-0.211l-1.596-1.602c-0.091-0.091-0.122-0.187-0.1-0.269L19.556,42.611z"/>
			<path class="st12" d="M19.733,41.955c-0.022,0.082,0.01,0.178,0.1,0.269l1.596,1.602c0.181,0.182,0.533,0.277,0.782,0.211
				l0.084-0.313c-0.248,0.066-0.6-0.028-0.782-0.211l-1.596-1.602c-0.091-0.091-0.122-0.187-0.1-0.269L19.733,41.955z"/>
			<path class="st8" d="M24.601,42.689l-1.596-1.602c-0.181-0.182-0.533-0.277-0.782-0.211l-2.184,0.584
				c-0.248,0.066-0.303,0.27-0.122,0.452l1.596,1.602c0.181,0.182,0.533,0.277,0.782,0.211l2.184-0.584
				C24.727,43.074,24.782,42.871,24.601,42.689z"/>
			<g>
				<path class="st13" d="M24.617,43.271c-0.022,0.082-0.098,0.149-0.222,0.183l-2.184,0.584l0.084-0.313l2.184-0.584
					c0.124-0.033,0.2-0.101,0.222-0.183L24.617,43.271z"/>
			</g>
		</g>
		<g>
			
				<ellipse transform="matrix(0.2601 -0.9656 0.9656 0.2601 -23.5063 52.4349)" class="st14" cx="22.461" cy="41.555" rx="0.629" ry="1.086"/>
			<path class="st7" d="M21.411,41.273c-0.09,0.335,0.306,0.734,0.885,0.89s1.122,0.011,1.213-0.325l-0.206,0.765
				c-0.09,0.335-0.633,0.481-1.213,0.325s-0.976-0.555-0.885-0.89L21.411,41.273z"/>
		</g>
	</g>
</g>
</svg>
