<?xml version="1.0" encoding="utf-8"?>
<!-- Generator: Adobe Illustrator 26.0.1, SVG Export Plug-In . SVG Version: 6.00 Build 0)  -->
<svg version="1.1" id="Layer_1" xmlns="http://www.w3.org/2000/svg" xmlns:xlink="http://www.w3.org/1999/xlink" x="0px" y="0px"
	 viewBox="0 0 175 125" style="enable-background:new 0 0 175 125;" xml:space="preserve">
<style type="text/css">
	.st0{fill:#050001;}
	.st1{fill:#FFFFFF;}
	.st2{fill:#C0C0C0;}
	.st3{fill:#231F20;}
	.st4{fill:url(#SVGID_1_);}
	.st5{opacity:0.49;fill:#F0FFFF;enable-background:new    ;}
	.st6{fill:#3D393A;}
	.st7{fill:#B3B5B7;}
	.st8{fill:#DADBDC;}
	.st9{fill:#111114;}
	.st10{fill:#C6C3C3;}
	.st11{fill:#4D4D4F;}
	.st12{fill:#E0E1E2;}
</style>
<g>
	<path class="st0" d="M165.926,106.065h-25.274H33.238H7.73c-0.03,0-0.054,0.025-0.054,0.054v5.583h38.532h81.475h38.298v-5.583
		C165.98,106.091,165.956,106.065,165.926,106.065z"/>
	<path class="st1" d="M7.675,12.974v90.719h158.227V12.974H7.675z"/>
	<g>
		<path d="M139.921,81.736l-13.275-23.958c-0.005-0.009-0.013-0.015-0.018-0.023c-0.012-0.018-0.025-0.034-0.039-0.049
			s-0.029-0.029-0.045-0.042c-0.016-0.012-0.032-0.022-0.05-0.032c-0.019-0.011-0.039-0.019-0.059-0.026
			c-0.009-0.003-0.016-0.009-0.026-0.012c-0.01-0.003-0.021-0.001-0.031-0.003c-0.021-0.004-0.042-0.006-0.063-0.006
			c-0.022,0-0.042,0.002-0.063,0.006c-0.011,0.002-0.021,0-0.032,0.003c-0.01,0.002-0.017,0.009-0.026,0.012
			c-0.02,0.007-0.039,0.016-0.058,0.026c-0.018,0.01-0.035,0.02-0.051,0.033c-0.016,0.012-0.03,0.026-0.044,0.041
			c-0.015,0.016-0.028,0.032-0.04,0.05c-0.005,0.008-0.013,0.014-0.018,0.023l-6.955,12.552V54.752c0-1.962-4.566-3.02-8.862-3.02
			s-8.862,1.059-8.862,3.02v16.866c-1.015,0.007-1.997,0.157-2.927,0.428v-8.078c0-0.001,0-0.001,0-0.002s0-0.001,0-0.002
			c-0.001-0.052-0.014-0.101-0.034-0.146c-0.006-0.013-0.014-0.024-0.022-0.037c-0.019-0.032-0.041-0.061-0.068-0.087
			c-0.007-0.006-0.009-0.015-0.016-0.021c-0.006-0.005-0.014-0.006-0.021-0.01c-0.029-0.021-0.062-0.037-0.097-0.049
			c-0.015-0.005-0.028-0.013-0.043-0.016c-0.004-0.001-0.008-0.004-0.012-0.004L84.6,61.129c-0.045-0.008-0.091-0.008-0.137,0
			l-13.465,2.465c-0.005,0.001-0.009,0.004-0.014,0.005c-0.015,0.003-0.028,0.011-0.042,0.016c-0.035,0.012-0.067,0.028-0.097,0.049
			c-0.007,0.005-0.015,0.006-0.021,0.011c-0.007,0.006-0.01,0.015-0.016,0.021c-0.027,0.025-0.048,0.054-0.067,0.086
			c-0.007,0.013-0.016,0.024-0.022,0.037c-0.02,0.046-0.033,0.095-0.033,0.147v0.001c0,0,0,0,0,0.001v17.953
			c0,0.164,0.105,0.31,0.261,0.361l13.781,4.551c0.001,0,0.002,0,0.002,0c0.038,0.012,0.077,0.019,0.117,0.019
			c0.041,0,0.082-0.007,0.12-0.02c0.001,0,0.003,0,0.004-0.001l5.926-2.051c1.096,4.776,5.379,8.351,10.483,8.351
			c5.931,0,10.757-4.826,10.757-10.757c0-1.28-0.226-2.507-0.638-3.647c1.061-0.054,2.108-0.171,3.069-0.349l-1.861,3.359
			c-0.052,0.095-0.062,0.207-0.026,0.31s0.114,0.185,0.213,0.226l13.274,5.5c0.005,0.002,0.01,0.001,0.015,0.003
			c0.042,0.016,0.086,0.026,0.13,0.026s0.088-0.01,0.13-0.026c0.005-0.002,0.01-0.001,0.015-0.003l13.275-5.5
			c0.1-0.041,0.178-0.124,0.213-0.226C139.983,81.943,139.974,81.831,139.921,81.736z M110.164,52.491
			c5.02,0,8.102,1.316,8.102,2.26s-3.082,2.26-8.102,2.26s-8.102-1.317-8.102-2.26S105.144,52.491,110.164,52.491z M102.062,72.402
			c3.652,0.248,6.772,2.464,8.303,5.595c-0.068,0-0.133,0.003-0.201,0.003c-5.02,0-8.102-1.317-8.102-2.26L102.062,72.402
			L102.062,72.402z M84.53,61.889l11.453,2.097l-11.139,2.249l-8.624-1.661l-3.096-0.597L84.53,61.889z M71.446,64.428l13.02,2.508
			v19.009l-13.02-4.3V64.428z M85.226,85.938V66.934l12.388-2.501v7.865c-4.08,1.53-6.993,5.468-6.993,10.076
			c0,0.562,0.044,1.114,0.127,1.653L85.226,85.938z M91.382,82.373c0-4.181,2.581-7.768,6.232-9.259v8.535l-6.132,2.123
			C91.418,83.315,91.382,82.848,91.382,82.373z M111.376,82.373c0,5.512-4.485,9.997-9.997,9.997c-4.772,0-8.771-3.362-9.76-7.841
			l6.5-2.25c0.153-0.053,0.256-0.197,0.256-0.359v-9.082c0.925-0.292,1.908-0.452,2.927-0.46v3.362c0,1.962,4.566,3.021,8.862,3.021
			c0.177,0,0.354-0.002,0.532-0.006C111.133,79.878,111.376,81.097,111.376,82.373z M111.195,77.98
			c-1.595-3.55-5.059-6.083-9.133-6.34V56.036c0.003,0.002,0.006,0.004,0.008,0.006c0.082,0.062,0.17,0.123,0.263,0.182
			c0.022,0.014,0.046,0.028,0.069,0.042c0.087,0.053,0.177,0.105,0.273,0.156c0.012,0.006,0.023,0.013,0.034,0.019
			c0.106,0.055,0.219,0.108,0.335,0.16c0.028,0.013,0.057,0.025,0.085,0.037c0.109,0.047,0.221,0.093,0.337,0.137
			c0.012,0.005,0.024,0.01,0.037,0.014c0.128,0.048,0.261,0.093,0.396,0.138c0.033,0.011,0.066,0.021,0.099,0.032
			c0.128,0.04,0.258,0.08,0.392,0.117c0.013,0.004,0.025,0.007,0.037,0.011c0.145,0.04,0.295,0.078,0.447,0.115
			c0.036,0.009,0.073,0.017,0.11,0.026c0.144,0.034,0.289,0.066,0.438,0.096c0.012,0.003,0.025,0.005,0.037,0.008
			c0.159,0.032,0.322,0.062,0.486,0.091c0.04,0.007,0.08,0.014,0.12,0.021c0.157,0.027,0.315,0.052,0.476,0.075
			c0.01,0.002,0.021,0.003,0.031,0.005c0.17,0.024,0.342,0.046,0.515,0.067c0.042,0.005,0.084,0.01,0.126,0.015
			c0.168,0.019,0.337,0.037,0.507,0.053c0.007,0.001,0.015,0.002,0.022,0.002c0.176,0.016,0.354,0.03,0.532,0.043
			c0.045,0.003,0.09,0.006,0.135,0.009c0.175,0.012,0.351,0.022,0.527,0.03c0.004,0,0.007,0,0.011,0.001
			c0.18,0.008,0.361,0.014,0.541,0.019c0.044,0.001,0.088,0.002,0.132,0.003c0.181,0.004,0.362,0.006,0.542,0.006
			s0.361-0.003,0.542-0.006c0.044-0.001,0.088-0.002,0.132-0.003c0.18-0.005,0.361-0.01,0.541-0.019c0.004,0,0.007,0,0.011-0.001
			c0.176-0.008,0.352-0.019,0.528-0.03c0.045-0.003,0.09-0.006,0.134-0.009c0.178-0.013,0.356-0.027,0.532-0.043
			c0.007-0.001,0.014-0.002,0.022-0.002c0.171-0.016,0.34-0.034,0.508-0.054c0.042-0.005,0.084-0.01,0.126-0.015
			c0.173-0.021,0.345-0.043,0.515-0.067c0.01-0.002,0.021-0.003,0.031-0.005c0.161-0.023,0.319-0.049,0.476-0.075
			c0.04-0.007,0.08-0.014,0.12-0.021c0.164-0.029,0.327-0.059,0.486-0.091c0.012-0.002,0.024-0.005,0.036-0.008
			c0.149-0.031,0.295-0.063,0.438-0.097c0.037-0.009,0.073-0.017,0.11-0.026c0.152-0.037,0.302-0.075,0.447-0.115
			c0.013-0.004,0.025-0.007,0.037-0.011c0.134-0.037,0.264-0.077,0.392-0.117c0.033-0.01,0.066-0.021,0.099-0.032
			c0.136-0.044,0.269-0.09,0.396-0.138c0.013-0.005,0.024-0.01,0.037-0.014c0.116-0.044,0.228-0.09,0.337-0.137
			c0.029-0.012,0.057-0.025,0.085-0.037c0.116-0.052,0.229-0.105,0.335-0.16c0.012-0.006,0.023-0.013,0.034-0.019
			c0.096-0.05,0.186-0.103,0.273-0.156c0.023-0.014,0.046-0.028,0.068-0.042c0.093-0.059,0.182-0.12,0.263-0.182
			c0.003-0.002,0.006-0.004,0.008-0.006v15.667l-3.215,5.802C113.991,77.748,112.695,77.924,111.195,77.98z M118.266,73.272v2.468
			c0,0.475-0.781,1.043-2.194,1.491L118.266,73.272z M115.555,78.165c2.028-0.504,3.471-1.322,3.471-2.425V71.9l6.908-12.467v27.418
			l-12.355-5.119L115.555,78.165z M126.694,86.851V59.433l12.356,22.299L126.694,86.851z"/>
		<g>
			<path d="M28.766,36.821H56.43c0.451,0,0.82-0.369,0.82-0.82v-2.917c0-0.451-0.369-0.82-0.82-0.82H28.766
				c-0.451,0-0.82,0.369-0.82,0.82v2.917C27.946,36.452,28.315,36.821,28.766,36.821z"/>
			<path d="M71.189,39.352H28.044c-0.054,0-0.098,0.044-0.098,0.098v2.199c0,0.054,0.044,0.098,0.098,0.098h43.145
				c0.054,0,0.098-0.044,0.098-0.098V39.45C71.287,39.396,71.243,39.352,71.189,39.352z"/>
			<path d="M71.189,43.18H28.044c-0.054,0-0.098,0.044-0.098,0.098v2.199c0,0.054,0.044,0.098,0.098,0.098h43.145
				c0.054,0,0.098-0.044,0.098-0.098v-2.199C71.287,43.225,71.243,43.18,71.189,43.18z"/>
			<path d="M71.189,47.009H28.044c-0.054,0-0.098,0.044-0.098,0.098v2.199c0,0.054,0.044,0.098,0.098,0.098h43.145
				c0.054,0,0.098-0.044,0.098-0.098v-2.199C71.287,47.053,71.243,47.009,71.189,47.009z"/>
		</g>
		<g>
			<path class="st2" d="M28.766,68.364h16.466c0.451,0,0.82-0.369,0.82-0.82v-2.917c0-0.451-0.369-0.82-0.82-0.82H28.766
				c-0.451,0-0.82,0.369-0.82,0.82v2.917C27.946,67.996,28.315,68.364,28.766,68.364z"/>
			<path class="st2" d="M59.991,70.895H28.044c-0.054,0-0.098,0.044-0.098,0.098v2.199c0,0.054,0.044,0.098,0.098,0.098h31.947
				c0.054,0,0.098-0.044,0.098-0.098v-2.199C60.089,70.939,60.045,70.895,59.991,70.895z"/>
			<path class="st2" d="M59.991,74.724H28.044c-0.054,0-0.098,0.044-0.098,0.098v2.199c0,0.054,0.044,0.098,0.098,0.098h31.947
				c0.054,0,0.098-0.044,0.098-0.098v-2.199C60.089,74.768,60.045,74.724,59.991,74.724z"/>
			<path class="st2" d="M59.991,78.552H28.044c-0.054,0-0.098,0.044-0.098,0.098v2.199c0,0.054,0.044,0.098,0.098,0.098h31.947
				c0.054,0,0.098-0.044,0.098-0.098v-2.198C60.089,78.597,60.045,78.552,59.991,78.552z"/>
		</g>
		<g id="lumio">
			<g>
				<path class="st3" d="M109.889,40.647c0.23,0,0.423,0.073,0.577,0.219c0.155,0.146,0.232,0.334,0.232,0.564
					c0,0.221-0.078,0.405-0.232,0.551c-0.155,0.146-0.348,0.219-0.577,0.219h-4.315c-0.23,0-0.423-0.077-0.578-0.232
					s-0.232-0.347-0.232-0.578v-7.673c0-0.23,0.08-0.423,0.239-0.578s0.363-0.232,0.611-0.232c0.212,0,0.4,0.078,0.564,0.232
					c0.164,0.155,0.246,0.348,0.246,0.578v7.156l-0.292-0.226C106.132,40.647,109.889,40.647,109.889,40.647z"/>
				<path class="st3" d="M117.363,35.097c0.23,0,0.42,0.078,0.571,0.232c0.151,0.155,0.226,0.348,0.226,0.577v3.372
					c0,0.938-0.261,1.682-0.783,2.23c-0.522,0.549-1.274,0.823-2.257,0.823s-1.732-0.274-2.25-0.823s-0.777-1.292-0.777-2.23v-3.372
					c0-0.23,0.075-0.423,0.226-0.577s0.341-0.232,0.571-0.232s0.42,0.078,0.571,0.232c0.151,0.155,0.226,0.348,0.226,0.577v3.372
					c0,0.54,0.119,0.941,0.358,1.201c0.239,0.261,0.597,0.391,1.075,0.391c0.487,0,0.849-0.13,1.088-0.391
					c0.239-0.261,0.358-0.661,0.358-1.201v-3.372c0-0.23,0.075-0.423,0.226-0.577C116.942,35.175,117.133,35.097,117.363,35.097z"/>
				<path class="st3" d="M123.615,34.965c0.708,0,1.23,0.171,1.567,0.511c0.336,0.341,0.558,0.781,0.664,1.321l-0.226-0.119
					l0.106-0.212c0.106-0.204,0.27-0.423,0.491-0.657s0.489-0.433,0.803-0.597s0.666-0.246,1.055-0.246
					c0.637,0,1.122,0.137,1.454,0.412c0.332,0.274,0.559,0.639,0.684,1.095c0.124,0.456,0.186,0.962,0.186,1.52v3.399
					c0,0.23-0.075,0.423-0.226,0.578s-0.341,0.232-0.571,0.232s-0.42-0.077-0.571-0.232s-0.226-0.347-0.226-0.578v-3.401
					c0-0.292-0.036-0.555-0.106-0.79c-0.071-0.235-0.199-0.423-0.385-0.564c-0.186-0.141-0.451-0.212-0.797-0.212
					c-0.336,0-0.624,0.071-0.863,0.212c-0.239,0.142-0.418,0.33-0.538,0.564c-0.119,0.235-0.179,0.498-0.179,0.79v3.399
					c0,0.23-0.075,0.423-0.226,0.578S125.37,42.2,125.14,42.2s-0.42-0.077-0.571-0.232s-0.226-0.347-0.226-0.578v-3.399
					c0-0.292-0.035-0.555-0.106-0.79s-0.199-0.423-0.385-0.564c-0.186-0.141-0.451-0.212-0.796-0.212
					c-0.336,0-0.624,0.071-0.863,0.212c-0.239,0.142-0.418,0.33-0.538,0.564c-0.119,0.235-0.179,0.498-0.179,0.79v3.399
					c0,0.23-0.075,0.423-0.226,0.578s-0.341,0.232-0.571,0.232s-0.42-0.077-0.571-0.232s-0.226-0.347-0.226-0.578v-5.483
					c0-0.23,0.075-0.423,0.226-0.577s0.341-0.232,0.571-0.232s0.42,0.078,0.571,0.232c0.151,0.155,0.226,0.348,0.226,0.577v0.571
					l-0.199-0.04c0.08-0.151,0.19-0.312,0.332-0.484c0.141-0.172,0.314-0.334,0.518-0.484c0.203-0.151,0.429-0.272,0.677-0.365
					C123.053,35.011,123.323,34.965,123.615,34.965z"/>
				<path class="st3" d="M133.625,41.39c0,0.23-0.075,0.423-0.226,0.578s-0.341,0.232-0.571,0.232s-0.42-0.077-0.571-0.232
					s-0.226-0.347-0.226-0.578v-5.483c0-0.23,0.075-0.423,0.226-0.577s0.341-0.232,0.571-0.232s0.42,0.078,0.571,0.232
					c0.151,0.155,0.226,0.348,0.226,0.577V41.39z"/>
				<path class="st3" d="M142.082,38.655c0,0.726-0.162,1.365-0.485,1.918c-0.323,0.553-0.757,0.985-1.301,1.294
					c-0.544,0.31-1.153,0.465-1.825,0.465s-1.281-0.155-1.825-0.465c-0.544-0.31-0.978-0.741-1.301-1.294
					c-0.323-0.553-0.484-1.193-0.484-1.918c0-0.726,0.161-1.365,0.484-1.918c0.323-0.553,0.757-0.987,1.301-1.301
					c0.544-0.314,1.153-0.471,1.825-0.471c0.673,0,1.281,0.157,1.825,0.471c0.544,0.314,0.978,0.748,1.301,1.301
					S142.082,37.93,142.082,38.655z M140.489,38.655c0-0.451-0.091-0.843-0.272-1.175s-0.425-0.591-0.73-0.777
					s-0.644-0.279-1.016-0.279s-0.71,0.093-1.016,0.279s-0.549,0.445-0.73,0.777s-0.272,0.723-0.272,1.175
					c0,0.443,0.091,0.83,0.272,1.162c0.181,0.332,0.425,0.591,0.73,0.777s0.644,0.279,1.016,0.279s0.71-0.093,1.016-0.279
					s0.549-0.445,0.73-0.777S140.489,39.098,140.489,38.655z"/>
			</g>
			<g>
				<path class="st3" d="M127.793,46.256c0,0.5-0.358,0.83-0.783,0.83c-0.213,0-0.442-0.098-0.547-0.277v0.236h-0.331v-2.433h0.331
					v1.09c0.104-0.179,0.324-0.273,0.547-0.273C127.439,45.429,127.793,45.753,127.793,46.256z M127.459,46.252
					c0-0.297-0.216-0.513-0.489-0.513c-0.243,0-0.503,0.196-0.503,0.513s0.24,0.523,0.503,0.523
					C127.243,46.775,127.459,46.546,127.459,46.252z"/>
				<path class="st3" d="M129.207,45.469h0.358l-0.979,2.342h-0.351l0.341-0.837l-0.631-1.505h0.358l0.452,1.097L129.207,45.469z"/>
				<path class="st3" d="M130.601,46.377h0.344c0.007,0.199,0.192,0.391,0.483,0.391c0.277,0,0.439-0.175,0.439-0.368
					c0-0.206-0.186-0.304-0.375-0.354l-0.297-0.074c-0.496-0.125-0.577-0.419-0.577-0.611c0-0.409,0.361-0.682,0.773-0.682
					c0.419,0,0.746,0.263,0.746,0.688h-0.344c0-0.219-0.172-0.371-0.412-0.371c-0.219,0-0.415,0.145-0.415,0.358
					c0,0.074,0.024,0.226,0.317,0.304l0.294,0.081c0.391,0.104,0.638,0.304,0.638,0.645c0,0.388-0.317,0.702-0.786,0.702
					C130.932,47.086,130.601,46.752,130.601,46.377z"/>
				<path class="st3" d="M135.333,47.045h-0.344l-0.206-1.688l-0.692,1.431h-0.297l-0.699-1.431l-0.206,1.688h-0.344l0.284-2.325
					h0.31l0.8,1.674l0.8-1.674h0.31L135.333,47.045z"/>
				<path class="st3" d="M137.284,47.045l-0.216-0.587h-0.969l-0.216,0.587h-0.365l0.881-2.325h0.371l0.878,2.325H137.284z
					 M136.21,46.154h0.746l-0.371-1.013L136.21,46.154z"/>
				<path class="st3" d="M139.17,47.045l-0.597-0.867h-0.263v0.867h-0.348V44.72h0.888c0.51,0,0.716,0.368,0.716,0.736
					c0,0.334-0.203,0.685-0.591,0.722l0.611,0.867H139.17z M138.31,45.037v0.837h0.456c0.32,0,0.452-0.172,0.452-0.419
					c0-0.243-0.145-0.419-0.371-0.419L138.31,45.037L138.31,45.037z"/>
				<path class="st3" d="M141.506,44.72v0.317h-0.692v2.008h-0.348v-2.008h-0.692V44.72H141.506z"/>
			</g>
			<g>
				<path class="st3" d="M142.962,35.243c-0.019,0-0.035-0.006-0.048-0.018s-0.02-0.028-0.02-0.046c0-0.019,0.007-0.034,0.02-0.046
					s0.029-0.017,0.048-0.017h0.773c0.019,0,0.035,0.006,0.048,0.018s0.02,0.028,0.02,0.046c0,0.019-0.007,0.034-0.02,0.046
					s-0.029,0.017-0.048,0.017H142.962z M143.348,36.279c-0.021,0-0.038-0.007-0.051-0.02s-0.019-0.029-0.019-0.048v-1.026h0.141
					v1.026c0,0.019-0.007,0.035-0.02,0.048S143.369,36.279,143.348,36.279z"/>
				<path class="st3" d="M144.071,35.113c0.01,0,0.021,0.003,0.032,0.008c0.012,0.006,0.021,0.013,0.028,0.023l0.441,0.665
					l-0.06-0.001l0.446-0.664c0.016-0.021,0.034-0.032,0.057-0.032c0.018,0.001,0.033,0.008,0.048,0.021
					c0.014,0.013,0.021,0.029,0.021,0.047v1.029c0,0.019-0.007,0.035-0.02,0.048s-0.03,0.02-0.05,0.02
					c-0.021,0-0.038-0.007-0.051-0.02s-0.019-0.029-0.019-0.048v-0.901l0.042,0.007l-0.393,0.597
					c-0.007,0.009-0.015,0.016-0.024,0.022s-0.02,0.008-0.031,0.007c-0.01,0.001-0.02-0.001-0.03-0.007s-0.018-0.013-0.023-0.022
					l-0.387-0.595l0.035-0.045v0.938c0,0.019-0.006,0.035-0.018,0.048s-0.028,0.02-0.046,0.02c-0.019,0-0.034-0.007-0.046-0.02
					c-0.012-0.013-0.018-0.029-0.018-0.048v-1.029c0-0.018,0.007-0.033,0.02-0.047C144.035,35.12,144.051,35.113,144.071,35.113z"/>
			</g>
		</g>
		<g id="bug">
			
				<radialGradient id="SVGID_1_" cx="132.7724" cy="-102.736" r="2.341" gradientTransform="matrix(1 0 0 -1 0 -71)" gradientUnits="userSpaceOnUse">
				<stop  offset="0" style="stop-color:#F9CC70"/>
				<stop  offset="0.8552" style="stop-color:#F9CC70;stop-opacity:0.1448"/>
				<stop  offset="1" style="stop-color:#F9CC70;stop-opacity:0"/>
			</radialGradient>
			<circle class="st4" cx="132.772" cy="31.736" r="2.341"/>
			<path class="st3" d="M133.061,29.547c0.224-0.146,0.439-0.33,0.644-0.553c0.655-0.712,0.559-1.28,0.443-1.554
				c-0.207-0.49-0.768-0.807-1.465-0.827c-0.552-0.016-1.221,0.163-1.846,0.629c-0.313-0.169-0.667-0.254-1.034-0.241
				c-0.161,0.006-0.319,0.03-0.471,0.071c-0.066-0.102-0.178-0.312-0.145-0.515c0.023-0.135,0.109-0.247,0.264-0.345
				c0.097-0.061,0.126-0.189,0.065-0.286s-0.189-0.126-0.286-0.065c-0.258,0.163-0.41,0.375-0.452,0.63
				c-0.048,0.29,0.066,0.563,0.162,0.732c-0.204,0.105-0.39,0.245-0.551,0.417c-0.129,0.138-0.237,0.292-0.321,0.457
				c-0.176-0.079-0.437-0.157-0.703-0.094c-0.252,0.059-0.454,0.225-0.599,0.493c-0.054,0.101-0.017,0.227,0.084,0.281
				c0.031,0.017,0.065,0.025,0.099,0.025c0.074,0,0.145-0.039,0.183-0.109c0.087-0.161,0.194-0.255,0.326-0.286
				c0.165-0.039,0.342,0.021,0.459,0.076c-0.054,0.196-0.078,0.401-0.071,0.611c0.013,0.367,0.121,0.716,0.312,1.017
				c-0.419,0.653-0.551,1.33-0.497,1.877c0.067,0.694,0.421,1.233,0.924,1.406c0.089,0.031,0.207,0.058,0.349,0.058
				c0.305,0,0.717-0.125,1.172-0.605c0.2-0.211,0.364-0.429,0.492-0.652c0.706,0.387,1.576,0.736,2.249,0.736
				c0.332,0,0.615-0.085,0.809-0.291c0.461-0.493,0.189-1.454-0.12-2.174C133.399,30.157,133.235,29.84,133.061,29.547z
				 M132.671,27.028c0.525,0.015,0.955,0.24,1.095,0.573c0.133,0.316,0.003,0.711-0.366,1.112c-0.18,0.195-0.367,0.356-0.56,0.483
				c-0.197-0.294-0.398-0.543-0.577-0.711l-1.006-0.94c-0.019-0.018-0.039-0.035-0.059-0.052
				C131.703,27.149,132.229,27.016,132.671,27.028z M130.407,31.617c-0.253-0.158-0.473-0.32-0.633-0.469l-1.006-0.94
				c-0.035-0.033-0.068-0.067-0.1-0.102c0.255-0.328,0.599-0.646,1.051-0.927c0.232,0.248,0.766,0.903,0.798,1.714
				C130.528,31.139,130.491,31.38,130.407,31.617z M130.863,27.755c0.038,0.029,0.074,0.061,0.11,0.094l1.006,0.94
				c0.137,0.128,0.31,0.339,0.491,0.604c-0.223,0.092-0.453,0.143-0.69,0.149c-0.813,0.025-1.501-0.465-1.764-0.68
				C130.265,28.394,130.556,28.03,130.863,27.755z M128.259,29.083c-0.007-0.212,0.026-0.418,0.096-0.61
				c0.001-0.002,0.001-0.005,0.003-0.007c0.073-0.198,0.185-0.381,0.333-0.54c0.293-0.314,0.693-0.494,1.125-0.509
				c0.019-0.001,0.038-0.001,0.057-0.001c0.215,0,0.423,0.042,0.617,0.122c-0.327,0.315-0.633,0.72-0.891,1.23
				c-0.496,0.294-0.881,0.629-1.173,0.979C128.325,29.543,128.267,29.318,128.259,29.083z M129.802,32.564
				c-0.375,0.396-0.76,0.552-1.084,0.441c-0.342-0.117-0.596-0.531-0.646-1.054c-0.042-0.435,0.054-0.966,0.359-1.493
				c0.018,0.018,0.035,0.036,0.054,0.053l1.006,0.94c0.158,0.148,0.422,0.341,0.745,0.538
				C130.124,32.185,129.98,32.377,129.802,32.564z M133.349,32.359c-0.374,0.4-1.607,0-2.578-0.529
				c0.12-0.31,0.175-0.629,0.161-0.957c-0.018-0.442-0.157-0.839-0.328-1.165c0.321,0.141,0.703,0.249,1.12,0.249
				c0.021,0,0.043,0,0.064-0.001c0.315-0.008,0.618-0.079,0.908-0.209c0.161,0.268,0.319,0.57,0.454,0.885
				C133.509,31.464,133.583,32.109,133.349,32.359z"/>
		</g>
	</g>
	<polygon class="st5" points="10.99,94.87 136.347,15.801 10.99,15.801 	"/>
	<path class="st6" d="M9.469,14.632v89.697h154.74V14.632H9.469z M162.333,100.773H11.346V15.852h150.987V100.773z"/>
	<path class="st7" d="M165.833,106.656H7.795c-0.066,0-0.12-0.054-0.12-0.12v-2.777c0-0.066,0.054-0.12,0.12-0.12h158.038
		c0.066,0,0.12,0.054,0.12,0.12v2.777C165.953,106.602,165.899,106.656,165.833,106.656z"/>
	<path class="st8" d="M165.926,105.715h-25.274H33.238H7.73c-0.03,0-0.054,0.025-0.054,0.054v5.583h38.532h81.475h38.298v-5.583
		C165.98,105.74,165.956,105.715,165.926,105.715z"/>
	<g>
		<path class="st7" d="M92.794,110.178H63.205c-0.779,0-1.417-0.638-1.417-1.417l0,0c0-0.779,0.638-1.417,1.417-1.417h29.589
			c0.779,0,1.417,0.638,1.417,1.417l0,0C94.212,109.54,93.574,110.178,92.794,110.178z"/>
		<path class="st9" d="M75.44,108.466L75.44,108.466l-1.542-0.403c-0.008,0-0.016,0.012-0.023,0.03
			c0.007-0.018,0.015-0.03,0.023-0.03h-4.94h-4.751h-0.754h-0.437c-0.278,0-0.503,0.312-0.503,0.698
			c0,0.385,0.225,0.698,0.503,0.698h0.437h0.754h4.751h4.94l0,0l1.542-0.403c0.231,0,0.943-0.186,0.943-0.294
			C76.383,108.651,75.671,108.466,75.44,108.466z"/>
		<g>
			<path class="st10" d="M75.44,108.885c-0.02,0-0.036-0.132-0.036-0.294c0-0.163,0.016-0.294,0.036-0.294l-1.542-0.403
				c-0.047,0-0.085,0.312-0.085,0.698s0.038,0.698,0.085,0.698L75.44,108.885z"/>
			<g>
				<path class="st11" d="M75.44,108.296c-0.02,0-0.036,0.132-0.036,0.294s0.016,0.294,0.036,0.294c0.231,0,0.943-0.186,0.943-0.294
					S75.671,108.296,75.44,108.296z"/>
				<path class="st11" d="M73.899,107.893h-4.94c-0.047,0-0.085,0.312-0.085,0.698c0,0.385,0.038,0.698,0.085,0.698h4.94
					c-0.047,0-0.085-0.312-0.085-0.698C73.814,108.205,73.852,107.893,73.899,107.893z"/>
			</g>
			<path class="st12" d="M68.874,108.591c0-0.385,0.038-0.698,0.085-0.698h-4.751c-0.047,0-0.085,0.312-0.085,0.698
				c0,0.385,0.038,0.698,0.085,0.698h4.751C68.912,109.288,68.874,108.976,68.874,108.591z"/>
			<path class="st10" d="M64.123,108.591c0-0.385,0.038-0.698,0.085-0.698h-0.754c-0.047,0-0.085,0.312-0.085,0.698
				c0,0.385,0.038,0.698,0.085,0.698h0.754C64.161,109.288,64.123,108.976,64.123,108.591z"/>
			<path class="st11" d="M63.368,108.591c0-0.385,0.038-0.698,0.085-0.698h-0.437c-0.278,0-0.503,0.312-0.503,0.698
				c0,0.385,0.225,0.698,0.503,0.698h0.437C63.406,109.288,63.368,108.976,63.368,108.591z"/>
		</g>
		<path class="st9" d="M92.22,108.466L92.22,108.466l-1.542-0.403c-0.008,0-0.016,0.012-0.023,0.03
			c0.007-0.018,0.015-0.03,0.023-0.03h-4.94h-4.751h-0.754h-0.437c-0.278,0-0.503,0.312-0.503,0.698
			c0,0.385,0.225,0.698,0.503,0.698h0.437h0.754h4.751h4.94l0,0l1.542-0.403c0.231,0,0.943-0.186,0.943-0.294
			C93.163,108.651,92.451,108.466,92.22,108.466z"/>
		<g>
			<path class="st10" d="M92.22,108.885c-0.02,0-0.036-0.132-0.036-0.294c0-0.163,0.016-0.294,0.036-0.294l-1.542-0.403
				c-0.047,0-0.085,0.312-0.085,0.698s0.038,0.698,0.085,0.698L92.22,108.885z"/>
			<g>
				<path class="st11" d="M92.22,108.296c-0.02,0-0.036,0.132-0.036,0.294s0.016,0.294,0.036,0.294c0.231,0,0.943-0.186,0.943-0.294
					S92.451,108.296,92.22,108.296z"/>
				<path class="st11" d="M90.679,107.893h-4.94c-0.047,0-0.085,0.312-0.085,0.698c0,0.385,0.038,0.698,0.085,0.698h4.94
					c-0.047,0-0.085-0.312-0.085-0.698S90.632,107.893,90.679,107.893z"/>
			</g>
			<path class="st12" d="M85.654,108.591c0-0.385,0.038-0.698,0.085-0.698h-4.751c-0.047,0-0.085,0.312-0.085,0.698
				c0,0.385,0.038,0.698,0.085,0.698h4.751C85.692,109.288,85.654,108.976,85.654,108.591z"/>
			<path class="st10" d="M80.903,108.591c0-0.385,0.038-0.698,0.085-0.698h-0.754c-0.047,0-0.085,0.312-0.085,0.698
				c0,0.385,0.038,0.698,0.085,0.698h0.754C80.941,109.288,80.903,108.976,80.903,108.591z"/>
			<path class="st11" d="M80.148,108.591c0-0.385,0.038-0.698,0.085-0.698h-0.437c-0.278,0-0.503,0.312-0.503,0.698
				c0,0.385,0.225,0.698,0.503,0.698h0.437C80.186,109.288,80.148,108.976,80.148,108.591z"/>
		</g>
	</g>
	<g>
		<path class="st8" d="M165.833,14.632H7.795c-0.066,0-0.12-0.054-0.12-0.12v-2.161c0-0.066,0.054-0.12,0.12-0.12h158.038
			c0.066,0,0.12,0.054,0.12,0.12v2.161C165.953,14.578,165.899,14.632,165.833,14.632z"/>
	</g>
	<path class="st0" d="M7.726,13.621v91.719h158.227V13.621H7.726z M164.034,101.704H9.644V14.869h154.39V101.704z"/>
	<g>
		<path class="st7" d="M12.704,108.761H11.11c-0.066,0-0.12,0.054-0.12,0.12v0.559c0,0.066,0.054,0.12,0.12,0.12h1.594
			c0.066,0,0.12-0.054,0.12-0.12v-0.559C12.824,108.815,12.771,108.761,12.704,108.761z"/>
		<path class="st7" d="M15.697,108.761h-1.595c-0.066,0-0.12,0.054-0.12,0.12v0.559c0,0.066,0.054,0.12,0.12,0.12h1.595
			c0.066,0,0.12-0.054,0.12-0.12v-0.559C15.817,108.815,15.763,108.761,15.697,108.761z"/>
		<path class="st7" d="M18.172,108.761h-1.594c-0.066,0-0.12,0.054-0.12,0.12v0.559c0,0.066,0.054,0.12,0.12,0.12h1.594
			c0.066,0,0.12-0.054,0.12-0.12v-0.559C18.292,108.815,18.238,108.761,18.172,108.761z"/>
	</g>
	<g>
		<path class="st11" d="M158.133,108.288c-0.329,0-0.596,0.267-0.596,0.596s0.267,0.596,0.596,0.596s0.596-0.267,0.596-0.596
			C158.729,108.555,158.462,108.288,158.133,108.288z"/>
		<path class="st11" d="M154.064,108.288c-0.329,0-0.596,0.267-0.596,0.596s0.267,0.596,0.596,0.596s0.596-0.267,0.596-0.596
			C154.66,108.555,154.393,108.288,154.064,108.288z"/>
		<path class="st11" d="M149.995,108.288c-0.329,0-0.596,0.267-0.596,0.596s0.267,0.596,0.596,0.596s0.596-0.267,0.596-0.596
			C150.591,108.555,150.325,108.288,149.995,108.288z"/>
		<path class="st11" d="M162.202,108.288c-0.329,0-0.596,0.267-0.596,0.596s0.267,0.596,0.596,0.596s0.596-0.267,0.596-0.596
			C162.798,108.555,162.531,108.288,162.202,108.288z"/>
	</g>
	<g>
		<path class="st7" d="M48.131,110.009H31.678c-0.779,0-1.417-0.638-1.417-1.417l0,0c0-0.779,0.638-1.417,1.417-1.417h16.453
			c0.779,0,1.417,0.638,1.417,1.417l0,0C49.548,109.371,48.91,110.009,48.131,110.009z"/>
		<g>
			<path class="st11" d="M46.851,107.953c-0.08,0-0.146,0.065-0.146,0.146c0,0.08,0.065,0.145,0.146,0.145s0.146-0.065,0.146-0.145
				C46.997,108.018,46.931,107.953,46.851,107.953z"/>
			<path class="st11" d="M46.851,108.447c-0.08,0-0.146,0.065-0.146,0.145c0,0.08,0.065,0.146,0.146,0.146s0.146-0.065,0.146-0.146
				C46.997,108.512,46.931,108.447,46.851,108.447z"/>
			<path class="st11" d="M46.851,108.94c-0.08,0-0.146,0.065-0.146,0.146c0,0.08,0.065,0.145,0.146,0.145s0.146-0.065,0.146-0.145
				C46.997,109.005,46.931,108.94,46.851,108.94z"/>
			<path class="st11" d="M46.851,107.459c-0.08,0-0.146,0.065-0.146,0.145c0,0.08,0.065,0.146,0.146,0.146s0.146-0.065,0.146-0.146
				C46.997,107.524,46.931,107.459,46.851,107.459z"/>
			<circle class="st11" cx="46.851" cy="109.579" r="0.146"/>
			<path class="st11" d="M46.075,107.953c-0.08,0-0.146,0.065-0.146,0.146c0,0.08,0.065,0.145,0.146,0.145s0.146-0.065,0.146-0.145
				C46.22,108.018,46.155,107.953,46.075,107.953z"/>
			<path class="st11" d="M46.075,108.447c-0.08,0-0.146,0.065-0.146,0.145c0,0.08,0.065,0.146,0.146,0.146s0.146-0.065,0.146-0.146
				C46.22,108.512,46.155,108.447,46.075,108.447z"/>
			<path class="st11" d="M46.075,108.94c-0.08,0-0.146,0.065-0.146,0.146c0,0.08,0.065,0.145,0.146,0.145s0.146-0.065,0.146-0.145
				C46.22,109.005,46.155,108.94,46.075,108.94z"/>
			<path class="st11" d="M46.075,107.459c-0.08,0-0.146,0.065-0.146,0.145c0,0.08,0.065,0.146,0.146,0.146s0.146-0.065,0.146-0.146
				C46.22,107.524,46.155,107.459,46.075,107.459z"/>
			<circle class="st11" cx="46.075" cy="109.579" r="0.146"/>
			<path class="st11" d="M45.298,107.953c-0.08,0-0.146,0.065-0.146,0.146c0,0.08,0.065,0.145,0.146,0.145s0.146-0.065,0.146-0.145
				C45.444,108.018,45.378,107.953,45.298,107.953z"/>
			<path class="st11" d="M45.298,108.447c-0.08,0-0.146,0.065-0.146,0.145c0,0.08,0.065,0.146,0.146,0.146s0.146-0.065,0.146-0.146
				C45.444,108.512,45.378,108.447,45.298,108.447z"/>
			<path class="st11" d="M45.298,108.94c-0.08,0-0.146,0.065-0.146,0.146c0,0.08,0.065,0.145,0.146,0.145s0.146-0.065,0.146-0.145
				C45.444,109.005,45.378,108.94,45.298,108.94z"/>
			<path class="st11" d="M45.298,107.459c-0.08,0-0.146,0.065-0.146,0.145c0,0.08,0.065,0.146,0.146,0.146s0.146-0.065,0.146-0.146
				C45.444,107.524,45.378,107.459,45.298,107.459z"/>
			<circle class="st11" cx="45.298" cy="109.579" r="0.146"/>
			<path class="st11" d="M44.522,107.953c-0.08,0-0.146,0.065-0.146,0.146c0,0.08,0.065,0.145,0.146,0.145s0.146-0.065,0.146-0.145
				C44.667,108.018,44.602,107.953,44.522,107.953z"/>
			<path class="st11" d="M44.522,108.447c-0.08,0-0.146,0.065-0.146,0.145c0,0.08,0.065,0.146,0.146,0.146s0.146-0.065,0.146-0.146
				C44.667,108.512,44.602,108.447,44.522,108.447z"/>
			<path class="st11" d="M44.522,108.94c-0.08,0-0.146,0.065-0.146,0.146c0,0.08,0.065,0.145,0.146,0.145s0.146-0.065,0.146-0.145
				C44.667,109.005,44.602,108.94,44.522,108.94z"/>
			<path class="st11" d="M44.522,107.459c-0.08,0-0.146,0.065-0.146,0.145c0,0.08,0.065,0.146,0.146,0.146s0.146-0.065,0.146-0.146
				C44.667,107.524,44.602,107.459,44.522,107.459z"/>
			<circle class="st11" cx="44.522" cy="109.579" r="0.146"/>
			<path class="st11" d="M43.745,107.953c-0.08,0-0.146,0.065-0.146,0.146c0,0.08,0.065,0.145,0.146,0.145s0.146-0.065,0.146-0.145
				C43.891,108.018,43.826,107.953,43.745,107.953z"/>
			<path class="st11" d="M43.745,108.447c-0.08,0-0.146,0.065-0.146,0.145c0,0.08,0.065,0.146,0.146,0.146s0.146-0.065,0.146-0.146
				C43.891,108.512,43.826,108.447,43.745,108.447z"/>
			<path class="st11" d="M43.745,108.94c-0.08,0-0.146,0.065-0.146,0.146c0,0.08,0.065,0.145,0.146,0.145s0.146-0.065,0.146-0.145
				C43.891,109.005,43.826,108.94,43.745,108.94z"/>
			<path class="st11" d="M43.745,107.459c-0.08,0-0.146,0.065-0.146,0.145c0,0.08,0.065,0.146,0.146,0.146s0.146-0.065,0.146-0.146
				C43.891,107.524,43.826,107.459,43.745,107.459z"/>
			<circle class="st11" cx="43.745" cy="109.579" r="0.146"/>
			<path class="st11" d="M42.969,107.953c-0.08,0-0.146,0.065-0.146,0.146c0,0.08,0.065,0.145,0.146,0.145s0.146-0.065,0.146-0.145
				C43.114,108.018,43.049,107.953,42.969,107.953z"/>
			<path class="st11" d="M42.969,108.447c-0.08,0-0.146,0.065-0.146,0.145c0,0.08,0.065,0.146,0.146,0.146s0.146-0.065,0.146-0.146
				C43.114,108.512,43.049,108.447,42.969,108.447z"/>
			<path class="st11" d="M42.969,108.94c-0.08,0-0.146,0.065-0.146,0.146c0,0.08,0.065,0.145,0.146,0.145s0.146-0.065,0.146-0.145
				C43.114,109.005,43.049,108.94,42.969,108.94z"/>
			<path class="st11" d="M42.969,107.459c-0.08,0-0.146,0.065-0.146,0.145c0,0.08,0.065,0.146,0.146,0.146s0.146-0.065,0.146-0.146
				C43.114,107.524,43.049,107.459,42.969,107.459z"/>
			<circle class="st11" cx="42.969" cy="109.579" r="0.146"/>
			<path class="st11" d="M42.192,107.953c-0.08,0-0.146,0.065-0.146,0.146c0,0.08,0.065,0.145,0.146,0.145s0.146-0.065,0.146-0.145
				C42.338,108.018,42.273,107.953,42.192,107.953z"/>
			<path class="st11" d="M42.192,108.447c-0.08,0-0.146,0.065-0.146,0.145c0,0.08,0.065,0.146,0.146,0.146s0.146-0.065,0.146-0.146
				C42.338,108.512,42.273,108.447,42.192,108.447z"/>
			<path class="st11" d="M42.192,108.94c-0.08,0-0.146,0.065-0.146,0.146c0,0.08,0.065,0.145,0.146,0.145s0.146-0.065,0.146-0.145
				C42.338,109.005,42.273,108.94,42.192,108.94z"/>
			<path class="st11" d="M42.192,107.459c-0.08,0-0.146,0.065-0.146,0.145c0,0.08,0.065,0.146,0.146,0.146s0.146-0.065,0.146-0.146
				C42.338,107.524,42.273,107.459,42.192,107.459z"/>
			<circle class="st11" cx="42.192" cy="109.579" r="0.146"/>
			<path class="st11" d="M41.416,107.953c-0.08,0-0.146,0.065-0.146,0.146c0,0.08,0.065,0.145,0.146,0.145s0.146-0.065,0.146-0.145
				C41.561,108.018,41.496,107.953,41.416,107.953z"/>
			<path class="st11" d="M41.416,108.447c-0.08,0-0.146,0.065-0.146,0.145c0,0.08,0.065,0.146,0.146,0.146s0.146-0.065,0.146-0.146
				C41.561,108.512,41.496,108.447,41.416,108.447z"/>
			<path class="st11" d="M41.416,108.94c-0.08,0-0.146,0.065-0.146,0.146c0,0.08,0.065,0.145,0.146,0.145s0.146-0.065,0.146-0.145
				C41.561,109.005,41.496,108.94,41.416,108.94z"/>
			<path class="st11" d="M41.416,107.459c-0.08,0-0.146,0.065-0.146,0.145c0,0.08,0.065,0.146,0.146,0.146s0.146-0.065,0.146-0.146
				C41.561,107.524,41.496,107.459,41.416,107.459z"/>
			<circle class="st11" cx="41.416" cy="109.579" r="0.146"/>
			<path class="st11" d="M40.639,107.953c-0.08,0-0.146,0.065-0.146,0.146c0,0.08,0.065,0.145,0.146,0.145s0.146-0.065,0.146-0.145
				C40.785,108.018,40.72,107.953,40.639,107.953z"/>
			<path class="st11" d="M40.639,108.447c-0.08,0-0.146,0.065-0.146,0.145c0,0.08,0.065,0.146,0.146,0.146s0.146-0.065,0.146-0.146
				C40.785,108.512,40.72,108.447,40.639,108.447z"/>
			<path class="st11" d="M40.639,108.94c-0.08,0-0.146,0.065-0.146,0.146c0,0.08,0.065,0.145,0.146,0.145s0.146-0.065,0.146-0.145
				C40.785,109.005,40.72,108.94,40.639,108.94z"/>
			<path class="st11" d="M40.639,107.459c-0.08,0-0.146,0.065-0.146,0.145c0,0.08,0.065,0.146,0.146,0.146s0.146-0.065,0.146-0.146
				C40.785,107.524,40.72,107.459,40.639,107.459z"/>
			<circle class="st11" cx="40.639" cy="109.579" r="0.146"/>
			<path class="st11" d="M39.863,107.953c-0.08,0-0.146,0.065-0.146,0.146c0,0.08,0.065,0.145,0.146,0.145s0.146-0.065,0.146-0.145
				C40.008,108.018,39.943,107.953,39.863,107.953z"/>
			<path class="st11" d="M39.863,108.447c-0.08,0-0.146,0.065-0.146,0.145c0,0.08,0.065,0.146,0.146,0.146s0.146-0.065,0.146-0.146
				C40.008,108.512,39.943,108.447,39.863,108.447z"/>
			<path class="st11" d="M39.863,108.94c-0.08,0-0.146,0.065-0.146,0.146c0,0.08,0.065,0.145,0.146,0.145s0.146-0.065,0.146-0.145
				C40.008,109.005,39.943,108.94,39.863,108.94z"/>
			<path class="st11" d="M39.863,107.459c-0.08,0-0.146,0.065-0.146,0.145c0,0.08,0.065,0.146,0.146,0.146s0.146-0.065,0.146-0.146
				C40.008,107.524,39.943,107.459,39.863,107.459z"/>
			<circle class="st11" cx="39.863" cy="109.579" r="0.146"/>
			<path class="st11" d="M39.086,107.953c-0.08,0-0.146,0.065-0.146,0.146c0,0.08,0.065,0.145,0.146,0.145s0.146-0.065,0.146-0.145
				C39.232,108.018,39.167,107.953,39.086,107.953z"/>
			<path class="st11" d="M39.086,108.447c-0.08,0-0.146,0.065-0.146,0.145c0,0.08,0.065,0.146,0.146,0.146s0.146-0.065,0.146-0.146
				C39.232,108.512,39.167,108.447,39.086,108.447z"/>
			<path class="st11" d="M39.086,108.94c-0.08,0-0.146,0.065-0.146,0.146c0,0.08,0.065,0.145,0.146,0.145s0.146-0.065,0.146-0.145
				C39.232,109.005,39.167,108.94,39.086,108.94z"/>
			<path class="st11" d="M39.086,107.459c-0.08,0-0.146,0.065-0.146,0.145c0,0.08,0.065,0.146,0.146,0.146s0.146-0.065,0.146-0.146
				C39.232,107.524,39.167,107.459,39.086,107.459z"/>
			<circle class="st11" cx="39.086" cy="109.579" r="0.146"/>
			<path class="st11" d="M38.31,107.953c-0.08,0-0.146,0.065-0.146,0.146c0,0.08,0.065,0.145,0.146,0.145s0.146-0.065,0.146-0.145
				C38.456,108.018,38.39,107.953,38.31,107.953z"/>
			<path class="st11" d="M38.31,108.447c-0.08,0-0.146,0.065-0.146,0.145c0,0.08,0.065,0.146,0.146,0.146s0.146-0.065,0.146-0.146
				C38.456,108.512,38.39,108.447,38.31,108.447z"/>
			<path class="st11" d="M38.31,108.94c-0.08,0-0.146,0.065-0.146,0.146c0,0.08,0.065,0.145,0.146,0.145s0.146-0.065,0.146-0.145
				C38.456,109.005,38.39,108.94,38.31,108.94z"/>
			<path class="st11" d="M38.31,107.459c-0.08,0-0.146,0.065-0.146,0.145c0,0.08,0.065,0.146,0.146,0.146s0.146-0.065,0.146-0.146
				C38.456,107.524,38.39,107.459,38.31,107.459z"/>
			<circle class="st11" cx="38.31" cy="109.579" r="0.146"/>
			<path class="st11" d="M37.534,107.953c-0.08,0-0.146,0.065-0.146,0.146c0,0.08,0.065,0.145,0.146,0.145s0.146-0.065,0.146-0.145
				C37.679,108.018,37.614,107.953,37.534,107.953z"/>
			<path class="st11" d="M37.534,108.447c-0.08,0-0.146,0.065-0.146,0.145c0,0.08,0.065,0.146,0.146,0.146s0.146-0.065,0.146-0.146
				C37.679,108.512,37.614,108.447,37.534,108.447z"/>
			<path class="st11" d="M37.534,108.94c-0.08,0-0.146,0.065-0.146,0.146c0,0.08,0.065,0.145,0.146,0.145s0.146-0.065,0.146-0.145
				C37.679,109.005,37.614,108.94,37.534,108.94z"/>
			<path class="st11" d="M37.534,107.459c-0.08,0-0.146,0.065-0.146,0.145c0,0.08,0.065,0.146,0.146,0.146s0.146-0.065,0.146-0.146
				C37.679,107.524,37.614,107.459,37.534,107.459z"/>
			<circle class="st11" cx="37.534" cy="109.579" r="0.146"/>
			<path class="st11" d="M36.757,107.953c-0.08,0-0.146,0.065-0.146,0.146c0,0.08,0.065,0.145,0.146,0.145s0.146-0.065,0.146-0.145
				C36.903,108.018,36.837,107.953,36.757,107.953z"/>
			<path class="st11" d="M36.757,108.447c-0.08,0-0.146,0.065-0.146,0.145c0,0.08,0.065,0.146,0.146,0.146s0.146-0.065,0.146-0.146
				C36.903,108.512,36.837,108.447,36.757,108.447z"/>
			<path class="st11" d="M36.757,108.94c-0.08,0-0.146,0.065-0.146,0.146c0,0.08,0.065,0.145,0.146,0.145s0.146-0.065,0.146-0.145
				C36.903,109.005,36.837,108.94,36.757,108.94z"/>
			<path class="st11" d="M36.757,107.459c-0.08,0-0.146,0.065-0.146,0.145c0,0.08,0.065,0.146,0.146,0.146s0.146-0.065,0.146-0.146
				C36.903,107.524,36.837,107.459,36.757,107.459z"/>
			<circle class="st11" cx="36.757" cy="109.579" r="0.146"/>
			<path class="st11" d="M35.981,107.953c-0.08,0-0.146,0.065-0.146,0.146c0,0.08,0.065,0.145,0.146,0.145s0.146-0.065,0.146-0.145
				C36.126,108.018,36.061,107.953,35.981,107.953z"/>
			<path class="st11" d="M35.981,108.447c-0.08,0-0.146,0.065-0.146,0.145c0,0.08,0.065,0.146,0.146,0.146s0.146-0.065,0.146-0.146
				C36.126,108.512,36.061,108.447,35.981,108.447z"/>
			<path class="st11" d="M35.981,108.94c-0.08,0-0.146,0.065-0.146,0.146c0,0.08,0.065,0.145,0.146,0.145s0.146-0.065,0.146-0.145
				C36.126,109.005,36.061,108.94,35.981,108.94z"/>
			<path class="st11" d="M35.981,107.459c-0.08,0-0.146,0.065-0.146,0.145c0,0.08,0.065,0.146,0.146,0.146s0.146-0.065,0.146-0.146
				C36.126,107.524,36.061,107.459,35.981,107.459z"/>
			<circle class="st11" cx="35.981" cy="109.579" r="0.146"/>
			<path class="st11" d="M35.204,107.953c-0.08,0-0.146,0.065-0.146,0.146c0,0.08,0.065,0.145,0.146,0.145s0.146-0.065,0.146-0.145
				C35.35,108.018,35.285,107.953,35.204,107.953z"/>
			<path class="st11" d="M35.204,108.447c-0.08,0-0.146,0.065-0.146,0.145c0,0.08,0.065,0.146,0.146,0.146s0.146-0.065,0.146-0.146
				C35.35,108.512,35.285,108.447,35.204,108.447z"/>
			<path class="st11" d="M35.204,108.94c-0.08,0-0.146,0.065-0.146,0.146c0,0.08,0.065,0.145,0.146,0.145s0.146-0.065,0.146-0.145
				C35.35,109.005,35.285,108.94,35.204,108.94z"/>
			<path class="st11" d="M35.204,107.459c-0.08,0-0.146,0.065-0.146,0.145c0,0.08,0.065,0.146,0.146,0.146s0.146-0.065,0.146-0.146
				C35.35,107.524,35.285,107.459,35.204,107.459z"/>
			<circle class="st11" cx="35.204" cy="109.579" r="0.146"/>
			<path class="st11" d="M34.428,107.953c-0.08,0-0.146,0.065-0.146,0.146c0,0.08,0.065,0.145,0.146,0.145s0.146-0.065,0.146-0.145
				C34.573,108.018,34.508,107.953,34.428,107.953z"/>
			<path class="st11" d="M34.428,108.447c-0.08,0-0.146,0.065-0.146,0.145c0,0.08,0.065,0.146,0.146,0.146s0.146-0.065,0.146-0.146
				C34.573,108.512,34.508,108.447,34.428,108.447z"/>
			<path class="st11" d="M34.428,108.94c-0.08,0-0.146,0.065-0.146,0.146c0,0.08,0.065,0.145,0.146,0.145s0.146-0.065,0.146-0.145
				C34.573,109.005,34.508,108.94,34.428,108.94z"/>
			<path class="st11" d="M34.428,107.459c-0.08,0-0.146,0.065-0.146,0.145c0,0.08,0.065,0.146,0.146,0.146s0.146-0.065,0.146-0.146
				C34.573,107.524,34.508,107.459,34.428,107.459z"/>
			<circle class="st11" cx="34.428" cy="109.579" r="0.146"/>
			<path class="st11" d="M33.651,107.953c-0.08,0-0.146,0.065-0.146,0.146c0,0.08,0.065,0.145,0.146,0.145s0.146-0.065,0.146-0.145
				C33.797,108.018,33.732,107.953,33.651,107.953z"/>
			<path class="st11" d="M33.651,108.447c-0.08,0-0.146,0.065-0.146,0.145c0,0.08,0.065,0.146,0.146,0.146s0.146-0.065,0.146-0.146
				C33.797,108.512,33.732,108.447,33.651,108.447z"/>
			<path class="st11" d="M33.651,108.94c-0.08,0-0.146,0.065-0.146,0.146c0,0.08,0.065,0.145,0.146,0.145s0.146-0.065,0.146-0.145
				C33.797,109.005,33.732,108.94,33.651,108.94z"/>
			<path class="st11" d="M33.651,107.459c-0.08,0-0.146,0.065-0.146,0.145c0,0.08,0.065,0.146,0.146,0.146s0.146-0.065,0.146-0.146
				C33.797,107.524,33.732,107.459,33.651,107.459z"/>
			<circle class="st11" cx="33.651" cy="109.579" r="0.146"/>
			<path class="st11" d="M32.875,107.953c-0.08,0-0.146,0.065-0.146,0.146c0,0.08,0.065,0.145,0.146,0.145s0.146-0.065,0.146-0.145
				C33.02,108.018,32.955,107.953,32.875,107.953z"/>
			<path class="st11" d="M32.875,108.447c-0.08,0-0.146,0.065-0.146,0.145c0,0.08,0.065,0.146,0.146,0.146s0.146-0.065,0.146-0.146
				C33.02,108.512,32.955,108.447,32.875,108.447z"/>
			<path class="st11" d="M32.875,108.94c-0.08,0-0.146,0.065-0.146,0.146c0,0.08,0.065,0.145,0.146,0.145s0.146-0.065,0.146-0.145
				C33.02,109.005,32.955,108.94,32.875,108.94z"/>
			<path class="st11" d="M32.875,107.459c-0.08,0-0.146,0.065-0.146,0.145c0,0.08,0.065,0.146,0.146,0.146s0.146-0.065,0.146-0.146
				C33.02,107.524,32.955,107.459,32.875,107.459z"/>
			<circle class="st11" cx="32.875" cy="109.579" r="0.146"/>
			<path class="st11" d="M32.098,107.953c-0.08,0-0.146,0.065-0.146,0.146c0,0.08,0.065,0.145,0.146,0.145s0.146-0.065,0.146-0.145
				C32.244,108.018,32.179,107.953,32.098,107.953z"/>
			<path class="st11" d="M32.098,108.447c-0.08,0-0.146,0.065-0.146,0.145c0,0.08,0.065,0.146,0.146,0.146s0.146-0.065,0.146-0.146
				C32.244,108.512,32.179,108.447,32.098,108.447z"/>
			<path class="st11" d="M32.098,108.94c-0.08,0-0.146,0.065-0.146,0.146c0,0.08,0.065,0.145,0.146,0.145s0.146-0.065,0.146-0.145
				C32.244,109.005,32.179,108.94,32.098,108.94z"/>
			<path class="st11" d="M32.098,107.459c-0.08,0-0.146,0.065-0.146,0.145c0,0.08,0.065,0.146,0.146,0.146s0.146-0.065,0.146-0.146
				C32.244,107.524,32.179,107.459,32.098,107.459z"/>
			<circle class="st11" cx="32.098" cy="109.579" r="0.146"/>
			<path class="st11" d="M47.628,107.953c-0.08,0-0.146,0.065-0.146,0.146c0,0.08,0.065,0.145,0.146,0.145s0.146-0.065,0.146-0.145
				C47.773,108.018,47.708,107.953,47.628,107.953z"/>
			<path class="st11" d="M47.628,108.447c-0.08,0-0.146,0.065-0.146,0.145c0,0.08,0.065,0.146,0.146,0.146s0.146-0.065,0.146-0.146
				C47.773,108.512,47.708,108.447,47.628,108.447z"/>
			<path class="st11" d="M47.628,108.94c-0.08,0-0.146,0.065-0.146,0.146c0,0.08,0.065,0.145,0.146,0.145s0.146-0.065,0.146-0.145
				C47.773,109.005,47.708,108.94,47.628,108.94z"/>
			<path class="st11" d="M47.628,107.459c-0.08,0-0.146,0.065-0.146,0.145c0,0.08,0.065,0.146,0.146,0.146s0.146-0.065,0.146-0.146
				C47.773,107.524,47.708,107.459,47.628,107.459z"/>
			<circle class="st11" cx="47.628" cy="109.579" r="0.146"/>
			<path class="st11" d="M48.404,107.953c-0.08,0-0.146,0.065-0.146,0.146c0,0.08,0.065,0.145,0.146,0.145s0.146-0.065,0.146-0.145
				C48.549,108.018,48.484,107.953,48.404,107.953z"/>
			<path class="st11" d="M48.404,108.447c-0.08,0-0.146,0.065-0.146,0.145c0,0.08,0.065,0.146,0.146,0.146s0.146-0.065,0.146-0.146
				C48.549,108.512,48.484,108.447,48.404,108.447z"/>
			<path class="st11" d="M48.404,108.94c-0.08,0-0.146,0.065-0.146,0.146c0,0.08,0.065,0.145,0.146,0.145s0.146-0.065,0.146-0.145
				C48.549,109.005,48.484,108.94,48.404,108.94z"/>
			<path class="st11" d="M48.404,107.459c-0.08,0-0.146,0.065-0.146,0.145c0,0.08,0.065,0.146,0.146,0.146s0.146-0.065,0.146-0.146
				C48.549,107.524,48.484,107.459,48.404,107.459z"/>
			<circle class="st11" cx="48.404" cy="109.579" r="0.146"/>
			<path class="st11" d="M48.934,108.244c0.08,0,0.146-0.065,0.146-0.145c0-0.08-0.065-0.146-0.146-0.146s-0.146,0.065-0.146,0.146
				C48.788,108.179,48.854,108.244,48.934,108.244z"/>
			<path class="st11" d="M48.934,108.447c-0.08,0-0.146,0.065-0.146,0.145c0,0.08,0.065,0.146,0.146,0.146s0.146-0.065,0.146-0.146
				C49.079,108.512,49.014,108.447,48.934,108.447z"/>
			<path class="st11" d="M48.934,108.94c-0.08,0-0.146,0.065-0.146,0.146c0,0.08,0.065,0.145,0.146,0.145s0.146-0.065,0.146-0.145
				C49.079,109.005,49.014,108.94,48.934,108.94z"/>
			<path class="st11" d="M31.322,108.94c-0.08,0-0.146,0.065-0.146,0.145c0,0.08,0.065,0.146,0.146,0.146s0.146-0.065,0.146-0.146
				C31.467,109.005,31.402,108.94,31.322,108.94z"/>
			<path class="st11" d="M31.322,108.447c-0.08,0-0.146,0.065-0.146,0.146c0,0.08,0.065,0.145,0.146,0.145s0.146-0.065,0.146-0.145
				C31.467,108.512,31.402,108.447,31.322,108.447z"/>
			<path class="st11" d="M31.322,107.953c-0.08,0-0.146,0.065-0.146,0.145c0,0.08,0.065,0.146,0.146,0.146s0.146-0.065,0.146-0.146
				C31.467,108.018,31.402,107.953,31.322,107.953z"/>
			<path class="st11" d="M31.322,109.434c-0.08,0-0.146,0.065-0.146,0.146c0,0.08,0.065,0.145,0.146,0.145s0.146-0.065,0.146-0.145
				C31.467,109.499,31.402,109.434,31.322,109.434z"/>
			<circle class="st11" cx="31.322" cy="107.605" r="0.146"/>
			<path class="st11" d="M30.792,108.94c-0.08,0-0.146,0.065-0.146,0.145c0,0.08,0.065,0.146,0.146,0.146s0.146-0.065,0.146-0.146
				C30.937,109.005,30.872,108.94,30.792,108.94z"/>
			<path class="st11" d="M30.792,108.447c-0.08,0-0.146,0.065-0.146,0.146c0,0.08,0.065,0.145,0.146,0.145s0.146-0.065,0.146-0.145
				C30.937,108.512,30.872,108.447,30.792,108.447z"/>
			<path class="st11" d="M30.792,107.953c-0.08,0-0.146,0.065-0.146,0.145c0,0.08,0.065,0.146,0.146,0.146s0.146-0.065,0.146-0.146
				C30.937,108.018,30.872,107.953,30.792,107.953z"/>
		</g>
	</g>
	<g>
		<path class="st7" d="M129.246,110.009h-16.453c-0.779,0-1.417-0.638-1.417-1.417l0,0c0-0.779,0.638-1.417,1.417-1.417h16.453
			c0.779,0,1.417,0.638,1.417,1.417l0,0C130.663,109.371,130.026,110.009,129.246,110.009z"/>
		<g>
			<path class="st11" d="M127.967,107.953c-0.08,0-0.146,0.065-0.146,0.146c0,0.08,0.065,0.145,0.146,0.145
				c0.081,0,0.146-0.065,0.146-0.145C128.112,108.018,128.047,107.953,127.967,107.953z"/>
			<path class="st11" d="M127.967,108.447c-0.08,0-0.146,0.065-0.146,0.145c0,0.08,0.065,0.146,0.146,0.146
				c0.081,0,0.146-0.065,0.146-0.146C128.112,108.512,128.047,108.447,127.967,108.447z"/>
			<path class="st11" d="M127.967,108.94c-0.08,0-0.146,0.065-0.146,0.146c0,0.08,0.065,0.145,0.146,0.145
				c0.081,0,0.146-0.065,0.146-0.145C128.112,109.005,128.047,108.94,127.967,108.94z"/>
			<path class="st11" d="M127.967,107.459c-0.08,0-0.146,0.065-0.146,0.145c0,0.08,0.065,0.146,0.146,0.146
				c0.081,0,0.146-0.065,0.146-0.146C128.112,107.524,128.047,107.459,127.967,107.459z"/>
			<circle class="st11" cx="127.967" cy="109.579" r="0.146"/>
			<path class="st11" d="M127.19,107.953c-0.08,0-0.146,0.065-0.146,0.146c0,0.08,0.065,0.145,0.146,0.145s0.146-0.065,0.146-0.145
				C127.336,108.018,127.27,107.953,127.19,107.953z"/>
			<path class="st11" d="M127.19,108.447c-0.08,0-0.146,0.065-0.146,0.145c0,0.08,0.065,0.146,0.146,0.146s0.146-0.065,0.146-0.146
				C127.336,108.512,127.27,108.447,127.19,108.447z"/>
			<path class="st11" d="M127.19,108.94c-0.08,0-0.146,0.065-0.146,0.146c0,0.08,0.065,0.145,0.146,0.145s0.146-0.065,0.146-0.145
				C127.336,109.005,127.27,108.94,127.19,108.94z"/>
			<path class="st11" d="M127.19,107.459c-0.08,0-0.146,0.065-0.146,0.145c0,0.08,0.065,0.146,0.146,0.146s0.146-0.065,0.146-0.146
				C127.336,107.524,127.27,107.459,127.19,107.459z"/>
			<circle class="st11" cx="127.19" cy="109.579" r="0.146"/>
			<path class="st11" d="M126.414,107.953c-0.08,0-0.146,0.065-0.146,0.146c0,0.08,0.065,0.145,0.146,0.145s0.146-0.065,0.146-0.145
				C126.559,108.018,126.494,107.953,126.414,107.953z"/>
			<path class="st11" d="M126.414,108.447c-0.08,0-0.146,0.065-0.146,0.145c0,0.08,0.065,0.146,0.146,0.146s0.146-0.065,0.146-0.146
				C126.559,108.512,126.494,108.447,126.414,108.447z"/>
			<path class="st11" d="M126.414,108.94c-0.08,0-0.146,0.065-0.146,0.146c0,0.08,0.065,0.145,0.146,0.145s0.146-0.065,0.146-0.145
				C126.559,109.005,126.494,108.94,126.414,108.94z"/>
			<path class="st11" d="M126.414,107.459c-0.08,0-0.146,0.065-0.146,0.145c0,0.08,0.065,0.146,0.146,0.146s0.146-0.065,0.146-0.146
				C126.559,107.524,126.494,107.459,126.414,107.459z"/>
			<circle class="st11" cx="126.414" cy="109.579" r="0.146"/>
			<path class="st11" d="M125.637,107.953c-0.08,0-0.146,0.065-0.146,0.146c0,0.08,0.065,0.145,0.146,0.145s0.146-0.065,0.146-0.145
				C125.783,108.018,125.718,107.953,125.637,107.953z"/>
			<path class="st11" d="M125.637,108.447c-0.08,0-0.146,0.065-0.146,0.145c0,0.08,0.065,0.146,0.146,0.146s0.146-0.065,0.146-0.146
				C125.783,108.512,125.718,108.447,125.637,108.447z"/>
			<path class="st11" d="M125.637,108.94c-0.08,0-0.146,0.065-0.146,0.146c0,0.08,0.065,0.145,0.146,0.145s0.146-0.065,0.146-0.145
				C125.783,109.005,125.718,108.94,125.637,108.94z"/>
			<path class="st11" d="M125.637,107.459c-0.08,0-0.146,0.065-0.146,0.145c0,0.08,0.065,0.146,0.146,0.146s0.146-0.065,0.146-0.146
				C125.783,107.524,125.718,107.459,125.637,107.459z"/>
			<circle class="st11" cx="125.637" cy="109.579" r="0.146"/>
			<path class="st11" d="M124.861,107.953c-0.08,0-0.146,0.065-0.146,0.146c0,0.08,0.065,0.145,0.146,0.145s0.146-0.065,0.146-0.145
				C125.006,108.018,124.941,107.953,124.861,107.953z"/>
			<path class="st11" d="M124.861,108.447c-0.08,0-0.146,0.065-0.146,0.145c0,0.08,0.065,0.146,0.146,0.146s0.146-0.065,0.146-0.146
				C125.006,108.512,124.941,108.447,124.861,108.447z"/>
			<path class="st11" d="M124.861,108.94c-0.08,0-0.146,0.065-0.146,0.146c0,0.08,0.065,0.145,0.146,0.145s0.146-0.065,0.146-0.145
				C125.006,109.005,124.941,108.94,124.861,108.94z"/>
			<path class="st11" d="M124.861,107.459c-0.08,0-0.146,0.065-0.146,0.145c0,0.08,0.065,0.146,0.146,0.146s0.146-0.065,0.146-0.146
				C125.006,107.524,124.941,107.459,124.861,107.459z"/>
			<circle class="st11" cx="124.861" cy="109.579" r="0.146"/>
			<path class="st11" d="M124.084,107.953c-0.08,0-0.146,0.065-0.146,0.146c0,0.08,0.065,0.145,0.146,0.145s0.146-0.065,0.146-0.145
				C124.23,108.018,124.165,107.953,124.084,107.953z"/>
			<path class="st11" d="M124.084,108.447c-0.08,0-0.146,0.065-0.146,0.145c0,0.08,0.065,0.146,0.146,0.146s0.146-0.065,0.146-0.146
				C124.23,108.512,124.165,108.447,124.084,108.447z"/>
			<path class="st11" d="M124.084,108.94c-0.08,0-0.146,0.065-0.146,0.146c0,0.08,0.065,0.145,0.146,0.145s0.146-0.065,0.146-0.145
				C124.23,109.005,124.165,108.94,124.084,108.94z"/>
			<path class="st11" d="M124.084,107.459c-0.08,0-0.146,0.065-0.146,0.145c0,0.08,0.065,0.146,0.146,0.146s0.146-0.065,0.146-0.146
				C124.23,107.524,124.165,107.459,124.084,107.459z"/>
			<circle class="st11" cx="124.084" cy="109.579" r="0.146"/>
			<path class="st11" d="M123.308,107.953c-0.08,0-0.146,0.065-0.146,0.146c0,0.08,0.065,0.145,0.146,0.145s0.146-0.065,0.146-0.145
				C123.453,108.018,123.388,107.953,123.308,107.953z"/>
			<path class="st11" d="M123.308,108.447c-0.08,0-0.146,0.065-0.146,0.145c0,0.08,0.065,0.146,0.146,0.146s0.146-0.065,0.146-0.146
				C123.453,108.512,123.388,108.447,123.308,108.447z"/>
			<path class="st11" d="M123.308,108.94c-0.08,0-0.146,0.065-0.146,0.146c0,0.08,0.065,0.145,0.146,0.145s0.146-0.065,0.146-0.145
				C123.453,109.005,123.388,108.94,123.308,108.94z"/>
			<path class="st11" d="M123.308,107.459c-0.08,0-0.146,0.065-0.146,0.145c0,0.08,0.065,0.146,0.146,0.146s0.146-0.065,0.146-0.146
				C123.453,107.524,123.388,107.459,123.308,107.459z"/>
			<circle class="st11" cx="123.308" cy="109.579" r="0.146"/>
			<path class="st11" d="M122.531,107.953c-0.08,0-0.146,0.065-0.146,0.146c0,0.08,0.065,0.145,0.146,0.145s0.146-0.065,0.146-0.145
				C122.677,108.018,122.612,107.953,122.531,107.953z"/>
			<path class="st11" d="M122.531,108.447c-0.08,0-0.146,0.065-0.146,0.145c0,0.08,0.065,0.146,0.146,0.146s0.146-0.065,0.146-0.146
				C122.677,108.512,122.612,108.447,122.531,108.447z"/>
			<path class="st11" d="M122.531,108.94c-0.08,0-0.146,0.065-0.146,0.146c0,0.08,0.065,0.145,0.146,0.145s0.146-0.065,0.146-0.145
				C122.677,109.005,122.612,108.94,122.531,108.94z"/>
			<path class="st11" d="M122.531,107.459c-0.08,0-0.146,0.065-0.146,0.145c0,0.08,0.065,0.146,0.146,0.146s0.146-0.065,0.146-0.146
				C122.677,107.524,122.612,107.459,122.531,107.459z"/>
			<circle class="st11" cx="122.531" cy="109.579" r="0.146"/>
			<path class="st11" d="M121.755,107.953c-0.08,0-0.146,0.065-0.146,0.146c0,0.08,0.065,0.145,0.146,0.145s0.146-0.065,0.146-0.145
				C121.9,108.018,121.835,107.953,121.755,107.953z"/>
			<path class="st11" d="M121.755,108.447c-0.08,0-0.146,0.065-0.146,0.145c0,0.08,0.065,0.146,0.146,0.146s0.146-0.065,0.146-0.146
				C121.9,108.512,121.835,108.447,121.755,108.447z"/>
			<path class="st11" d="M121.755,108.94c-0.08,0-0.146,0.065-0.146,0.146c0,0.08,0.065,0.145,0.146,0.145s0.146-0.065,0.146-0.145
				C121.9,109.005,121.835,108.94,121.755,108.94z"/>
			<path class="st11" d="M121.755,107.459c-0.08,0-0.146,0.065-0.146,0.145c0,0.08,0.065,0.146,0.146,0.146s0.146-0.065,0.146-0.146
				C121.9,107.524,121.835,107.459,121.755,107.459z"/>
			<circle class="st11" cx="121.755" cy="109.579" r="0.146"/>
			<path class="st11" d="M120.978,107.953c-0.08,0-0.146,0.065-0.146,0.146c0,0.08,0.065,0.145,0.146,0.145s0.146-0.065,0.146-0.145
				C121.124,108.018,121.059,107.953,120.978,107.953z"/>
			<path class="st11" d="M120.978,108.447c-0.08,0-0.146,0.065-0.146,0.145c0,0.08,0.065,0.146,0.146,0.146s0.146-0.065,0.146-0.146
				C121.124,108.512,121.059,108.447,120.978,108.447z"/>
			<path class="st11" d="M120.978,108.94c-0.08,0-0.146,0.065-0.146,0.146c0,0.08,0.065,0.145,0.146,0.145s0.146-0.065,0.146-0.145
				C121.124,109.005,121.059,108.94,120.978,108.94z"/>
			<path class="st11" d="M120.978,107.459c-0.08,0-0.146,0.065-0.146,0.145c0,0.08,0.065,0.146,0.146,0.146s0.146-0.065,0.146-0.146
				C121.124,107.524,121.059,107.459,120.978,107.459z"/>
			<circle class="st11" cx="120.978" cy="109.579" r="0.146"/>
			<path class="st11" d="M120.202,107.953c-0.08,0-0.146,0.065-0.146,0.146c0,0.08,0.065,0.145,0.146,0.145s0.146-0.065,0.146-0.145
				C120.348,108.018,120.282,107.953,120.202,107.953z"/>
			<path class="st11" d="M120.202,108.447c-0.08,0-0.146,0.065-0.146,0.145c0,0.08,0.065,0.146,0.146,0.146s0.146-0.065,0.146-0.146
				C120.348,108.512,120.282,108.447,120.202,108.447z"/>
			<path class="st11" d="M120.202,108.94c-0.08,0-0.146,0.065-0.146,0.146c0,0.08,0.065,0.145,0.146,0.145s0.146-0.065,0.146-0.145
				C120.348,109.005,120.282,108.94,120.202,108.94z"/>
			<path class="st11" d="M120.202,107.459c-0.08,0-0.146,0.065-0.146,0.145c0,0.08,0.065,0.146,0.146,0.146s0.146-0.065,0.146-0.146
				C120.348,107.524,120.282,107.459,120.202,107.459z"/>
			<circle class="st11" cx="120.202" cy="109.579" r="0.146"/>
			<path class="st11" d="M119.426,107.953c-0.08,0-0.146,0.065-0.146,0.146c0,0.08,0.065,0.145,0.146,0.145s0.146-0.065,0.146-0.145
				C119.571,108.018,119.506,107.953,119.426,107.953z"/>
			<path class="st11" d="M119.426,108.447c-0.08,0-0.146,0.065-0.146,0.145c0,0.08,0.065,0.146,0.146,0.146s0.146-0.065,0.146-0.146
				C119.571,108.512,119.506,108.447,119.426,108.447z"/>
			<path class="st11" d="M119.426,108.94c-0.08,0-0.146,0.065-0.146,0.146c0,0.08,0.065,0.145,0.146,0.145s0.146-0.065,0.146-0.145
				C119.571,109.005,119.506,108.94,119.426,108.94z"/>
			<path class="st11" d="M119.426,107.459c-0.08,0-0.146,0.065-0.146,0.145c0,0.08,0.065,0.146,0.146,0.146s0.146-0.065,0.146-0.146
				C119.571,107.524,119.506,107.459,119.426,107.459z"/>
			<circle class="st11" cx="119.426" cy="109.579" r="0.146"/>
			<path class="st11" d="M118.649,107.953c-0.08,0-0.146,0.065-0.146,0.146c0,0.08,0.065,0.145,0.146,0.145s0.146-0.065,0.146-0.145
				C118.795,108.018,118.729,107.953,118.649,107.953z"/>
			<path class="st11" d="M118.649,108.447c-0.08,0-0.146,0.065-0.146,0.145c0,0.08,0.065,0.146,0.146,0.146s0.146-0.065,0.146-0.146
				C118.795,108.512,118.729,108.447,118.649,108.447z"/>
			<path class="st11" d="M118.649,108.94c-0.08,0-0.146,0.065-0.146,0.146c0,0.08,0.065,0.145,0.146,0.145s0.146-0.065,0.146-0.145
				C118.795,109.005,118.729,108.94,118.649,108.94z"/>
			<path class="st11" d="M118.649,107.459c-0.08,0-0.146,0.065-0.146,0.145c0,0.08,0.065,0.146,0.146,0.146s0.146-0.065,0.146-0.146
				C118.795,107.524,118.729,107.459,118.649,107.459z"/>
			<circle class="st11" cx="118.649" cy="109.579" r="0.146"/>
			<path class="st11" d="M117.873,107.953c-0.08,0-0.146,0.065-0.146,0.146c0,0.08,0.065,0.145,0.146,0.145s0.146-0.065,0.146-0.145
				C118.018,108.018,117.953,107.953,117.873,107.953z"/>
			<path class="st11" d="M117.873,108.447c-0.08,0-0.146,0.065-0.146,0.145c0,0.08,0.065,0.146,0.146,0.146s0.146-0.065,0.146-0.146
				C118.018,108.512,117.953,108.447,117.873,108.447z"/>
			<path class="st11" d="M117.873,108.94c-0.08,0-0.146,0.065-0.146,0.146c0,0.08,0.065,0.145,0.146,0.145s0.146-0.065,0.146-0.145
				C118.018,109.005,117.953,108.94,117.873,108.94z"/>
			<path class="st11" d="M117.873,107.459c-0.08,0-0.146,0.065-0.146,0.145c0,0.08,0.065,0.146,0.146,0.146s0.146-0.065,0.146-0.146
				C118.018,107.524,117.953,107.459,117.873,107.459z"/>
			<circle class="st11" cx="117.873" cy="109.579" r="0.146"/>
			<path class="st11" d="M117.096,107.953c-0.08,0-0.146,0.065-0.146,0.146c0,0.08,0.065,0.145,0.146,0.145s0.146-0.065,0.146-0.145
				C117.242,108.018,117.177,107.953,117.096,107.953z"/>
			<path class="st11" d="M117.096,108.447c-0.08,0-0.146,0.065-0.146,0.145c0,0.08,0.065,0.146,0.146,0.146s0.146-0.065,0.146-0.146
				C117.242,108.512,117.177,108.447,117.096,108.447z"/>
			<path class="st11" d="M117.096,108.94c-0.08,0-0.146,0.065-0.146,0.146c0,0.08,0.065,0.145,0.146,0.145s0.146-0.065,0.146-0.145
				C117.242,109.005,117.177,108.94,117.096,108.94z"/>
			<path class="st11" d="M117.096,107.459c-0.08,0-0.146,0.065-0.146,0.145c0,0.08,0.065,0.146,0.146,0.146s0.146-0.065,0.146-0.146
				C117.242,107.524,117.177,107.459,117.096,107.459z"/>
			<circle class="st11" cx="117.096" cy="109.579" r="0.146"/>
			<path class="st11" d="M116.32,107.953c-0.08,0-0.146,0.065-0.146,0.146c0,0.08,0.065,0.145,0.146,0.145s0.146-0.065,0.146-0.145
				C116.465,108.018,116.4,107.953,116.32,107.953z"/>
			<path class="st11" d="M116.32,108.447c-0.08,0-0.146,0.065-0.146,0.145c0,0.08,0.065,0.146,0.146,0.146s0.146-0.065,0.146-0.146
				C116.465,108.512,116.4,108.447,116.32,108.447z"/>
			<path class="st11" d="M116.32,108.94c-0.08,0-0.146,0.065-0.146,0.146c0,0.08,0.065,0.145,0.146,0.145s0.146-0.065,0.146-0.145
				C116.465,109.005,116.4,108.94,116.32,108.94z"/>
			<path class="st11" d="M116.32,107.459c-0.08,0-0.146,0.065-0.146,0.145c0,0.08,0.065,0.146,0.146,0.146s0.146-0.065,0.146-0.146
				C116.465,107.524,116.4,107.459,116.32,107.459z"/>
			<circle class="st11" cx="116.32" cy="109.579" r="0.146"/>
			<path class="st11" d="M115.543,107.953c-0.08,0-0.146,0.065-0.146,0.146c0,0.08,0.065,0.145,0.146,0.145s0.146-0.065,0.146-0.145
				C115.689,108.018,115.624,107.953,115.543,107.953z"/>
			<path class="st11" d="M115.543,108.447c-0.08,0-0.146,0.065-0.146,0.145c0,0.08,0.065,0.146,0.146,0.146s0.146-0.065,0.146-0.146
				C115.689,108.512,115.624,108.447,115.543,108.447z"/>
			<path class="st11" d="M115.543,108.94c-0.08,0-0.146,0.065-0.146,0.146c0,0.08,0.065,0.145,0.146,0.145s0.146-0.065,0.146-0.145
				C115.689,109.005,115.624,108.94,115.543,108.94z"/>
			<path class="st11" d="M115.543,107.459c-0.08,0-0.146,0.065-0.146,0.145c0,0.08,0.065,0.146,0.146,0.146s0.146-0.065,0.146-0.146
				C115.689,107.524,115.624,107.459,115.543,107.459z"/>
			<circle class="st11" cx="115.543" cy="109.579" r="0.146"/>
			<path class="st11" d="M114.767,107.953c-0.08,0-0.146,0.065-0.146,0.146c0,0.08,0.065,0.145,0.146,0.145s0.146-0.065,0.146-0.145
				C114.912,108.018,114.847,107.953,114.767,107.953z"/>
			<path class="st11" d="M114.767,108.447c-0.08,0-0.146,0.065-0.146,0.145c0,0.08,0.065,0.146,0.146,0.146s0.146-0.065,0.146-0.146
				C114.912,108.512,114.847,108.447,114.767,108.447z"/>
			<path class="st11" d="M114.767,108.94c-0.08,0-0.146,0.065-0.146,0.146c0,0.08,0.065,0.145,0.146,0.145s0.146-0.065,0.146-0.145
				C114.912,109.005,114.847,108.94,114.767,108.94z"/>
			<path class="st11" d="M114.767,107.459c-0.08,0-0.146,0.065-0.146,0.145c0,0.08,0.065,0.146,0.146,0.146s0.146-0.065,0.146-0.146
				C114.912,107.524,114.847,107.459,114.767,107.459z"/>
			<circle class="st11" cx="114.767" cy="109.579" r="0.146"/>
			<path class="st11" d="M113.99,107.953c-0.08,0-0.146,0.065-0.146,0.146c0,0.08,0.065,0.145,0.146,0.145s0.146-0.065,0.146-0.145
				C114.136,108.018,114.071,107.953,113.99,107.953z"/>
			<path class="st11" d="M113.99,108.447c-0.08,0-0.146,0.065-0.146,0.145c0,0.08,0.065,0.146,0.146,0.146s0.146-0.065,0.146-0.146
				C114.136,108.512,114.071,108.447,113.99,108.447z"/>
			<path class="st11" d="M113.99,108.94c-0.08,0-0.146,0.065-0.146,0.146c0,0.08,0.065,0.145,0.146,0.145s0.146-0.065,0.146-0.145
				C114.136,109.005,114.071,108.94,113.99,108.94z"/>
			<path class="st11" d="M113.99,107.459c-0.08,0-0.146,0.065-0.146,0.145c0,0.08,0.065,0.146,0.146,0.146s0.146-0.065,0.146-0.146
				C114.136,107.524,114.071,107.459,113.99,107.459z"/>
			<circle class="st11" cx="113.99" cy="109.579" r="0.146"/>
			<path class="st11" d="M113.214,107.953c-0.08,0-0.146,0.065-0.146,0.146c0,0.08,0.065,0.145,0.146,0.145s0.146-0.065,0.146-0.145
				C113.359,108.018,113.294,107.953,113.214,107.953z"/>
			<path class="st11" d="M113.214,108.447c-0.08,0-0.146,0.065-0.146,0.145c0,0.08,0.065,0.146,0.146,0.146s0.146-0.065,0.146-0.146
				C113.359,108.512,113.294,108.447,113.214,108.447z"/>
			<path class="st11" d="M113.214,108.94c-0.08,0-0.146,0.065-0.146,0.146c0,0.08,0.065,0.145,0.146,0.145s0.146-0.065,0.146-0.145
				C113.359,109.005,113.294,108.94,113.214,108.94z"/>
			<path class="st11" d="M113.214,107.459c-0.08,0-0.146,0.065-0.146,0.145c0,0.08,0.065,0.146,0.146,0.146s0.146-0.065,0.146-0.146
				C113.359,107.524,113.294,107.459,113.214,107.459z"/>
			<circle class="st11" cx="113.214" cy="109.579" r="0.146"/>
			<path class="st11" d="M128.743,107.953c-0.08,0-0.146,0.065-0.146,0.146c0,0.08,0.065,0.145,0.146,0.145s0.146-0.065,0.146-0.145
				C128.889,108.018,128.823,107.953,128.743,107.953z"/>
			<path class="st11" d="M128.743,108.447c-0.08,0-0.146,0.065-0.146,0.145c0,0.08,0.065,0.146,0.146,0.146s0.146-0.065,0.146-0.146
				C128.889,108.512,128.823,108.447,128.743,108.447z"/>
			<path class="st11" d="M128.743,108.94c-0.08,0-0.146,0.065-0.146,0.146c0,0.08,0.065,0.145,0.146,0.145s0.146-0.065,0.146-0.145
				C128.889,109.005,128.823,108.94,128.743,108.94z"/>
			<path class="st11" d="M128.743,107.459c-0.08,0-0.146,0.065-0.146,0.145c0,0.08,0.065,0.146,0.146,0.146s0.146-0.065,0.146-0.146
				C128.889,107.524,128.823,107.459,128.743,107.459z"/>
			<circle class="st11" cx="128.743" cy="109.579" r="0.146"/>
			<path class="st11" d="M129.519,107.953c-0.08,0-0.146,0.065-0.146,0.146c0,0.08,0.065,0.145,0.146,0.145s0.146-0.065,0.146-0.145
				C129.665,108.018,129.6,107.953,129.519,107.953z"/>
			<path class="st11" d="M129.519,108.447c-0.08,0-0.146,0.065-0.146,0.145c0,0.08,0.065,0.146,0.146,0.146s0.146-0.065,0.146-0.146
				C129.665,108.512,129.6,108.447,129.519,108.447z"/>
			<path class="st11" d="M129.519,108.94c-0.08,0-0.146,0.065-0.146,0.146c0,0.08,0.065,0.145,0.146,0.145s0.146-0.065,0.146-0.145
				C129.665,109.005,129.6,108.94,129.519,108.94z"/>
			<path class="st11" d="M129.519,107.459c-0.08,0-0.146,0.065-0.146,0.145c0,0.08,0.065,0.146,0.146,0.146s0.146-0.065,0.146-0.146
				C129.665,107.524,129.6,107.459,129.519,107.459z"/>
			<circle class="st11" cx="129.519" cy="109.579" r="0.146"/>
			<path class="st11" d="M130.049,108.244c0.08,0,0.146-0.065,0.146-0.145c0-0.08-0.065-0.146-0.146-0.146s-0.146,0.065-0.146,0.146
				C129.904,108.179,129.969,108.244,130.049,108.244z"/>
			<path class="st11" d="M130.049,108.447c-0.08,0-0.146,0.065-0.146,0.145c0,0.08,0.065,0.146,0.146,0.146s0.146-0.065,0.146-0.146
				C130.195,108.512,130.13,108.447,130.049,108.447z"/>
			<path class="st11" d="M130.049,108.94c-0.08,0-0.146,0.065-0.146,0.146c0,0.08,0.065,0.145,0.146,0.145s0.146-0.065,0.146-0.145
				C130.195,109.005,130.13,108.94,130.049,108.94z"/>
			<path class="st11" d="M112.437,108.94c-0.08,0-0.146,0.065-0.146,0.145c0,0.08,0.065,0.146,0.146,0.146s0.146-0.065,0.146-0.146
				C112.583,109.005,112.518,108.94,112.437,108.94z"/>
			<path class="st11" d="M112.437,108.447c-0.08,0-0.146,0.065-0.146,0.146c0,0.08,0.065,0.145,0.146,0.145s0.146-0.065,0.146-0.145
				C112.583,108.512,112.518,108.447,112.437,108.447z"/>
			<path class="st11" d="M112.437,107.953c-0.08,0-0.146,0.065-0.146,0.145c0,0.08,0.065,0.146,0.146,0.146s0.146-0.065,0.146-0.146
				C112.583,108.018,112.518,107.953,112.437,107.953z"/>
			<path class="st11" d="M112.437,109.434c-0.08,0-0.146,0.065-0.146,0.146c0,0.08,0.065,0.145,0.146,0.145s0.146-0.065,0.146-0.145
				C112.583,109.499,112.518,109.434,112.437,109.434z"/>
			<circle class="st11" cx="112.437" cy="107.605" r="0.146"/>
			<path class="st11" d="M111.907,108.94c-0.08,0-0.146,0.065-0.146,0.145c0,0.08,0.065,0.146,0.146,0.146s0.146-0.065,0.146-0.146
				C112.053,109.005,111.988,108.94,111.907,108.94z"/>
			<path class="st11" d="M111.907,108.447c-0.08,0-0.146,0.065-0.146,0.146c0,0.08,0.065,0.145,0.146,0.145s0.146-0.065,0.146-0.145
				C112.053,108.512,111.988,108.447,111.907,108.447z"/>
			<path class="st11" d="M111.907,107.953c-0.08,0-0.146,0.065-0.146,0.145c0,0.08,0.065,0.146,0.146,0.146s0.146-0.065,0.146-0.146
				C112.053,108.018,111.988,107.953,111.907,107.953z"/>
		</g>
	</g>
</g>
</svg>
