<?xml version="1.0" encoding="utf-8"?>
<!-- Generator: Adobe Illustrator 26.0.1, SVG Export Plug-In . SVG Version: 6.00 Build 0)  -->
<svg version="1.1" id="Layer_1" xmlns="http://www.w3.org/2000/svg" xmlns:xlink="http://www.w3.org/1999/xlink" x="0px" y="0px"
	 viewBox="0 0 175 125" style="enable-background:new 0 0 175 125;" xml:space="preserve">
<style type="text/css">
	.st0{fill:#050001;}
	.st1{fill:#FFFFFF;}
	.st2{fill:#C0C0C0;}
	.st3{fill:#231F20;}
	.st4{fill:url(#SVGID_1_);}
	.st5{opacity:0.49;fill:#F0FFFF;enable-background:new    ;}
	.st6{fill:#3D393A;}
	.st7{fill:#B3B5B7;}
	.st8{fill:#DADBDC;}
	.st9{fill:#393839;}
	.st10{fill:#929090;}
	.st11{fill:#111114;}
	.st12{fill:#C6C3C3;}
	.st13{fill:#4D4D4F;}
	.st14{fill:#E0E1E2;}
	.st15{fill:#D8000B;}
	.st16{fill:#AFB1B3;}
	.st17{fill:#BCAFAD;}
</style>
<g>
	<path class="st0" d="M33.701,107.869H8.178c-0.03,0-0.054,0.025-0.055,0.054c0,0,0,0.421,0,1.15c0,1.642-0.942,4.01-0.651,4.487
		s39.187,1.462,39.187,1.462h81.407c0,0,38.626-0.984,38.917-1.462s-0.651-2.845-0.651-4.487c0-0.729,0-1.15,0-1.15
		c-0.001-0.029-0.025-0.054-0.055-0.054h-25.253H33.701z"/>
	<path class="st1" d="M8.025,9.654v91.719h158.227V9.654H8.025z"/>
	<g>
		<path d="M140.271,79.415l-13.275-23.958c-0.005-0.009-0.013-0.015-0.018-0.023c-0.012-0.018-0.025-0.034-0.039-0.049
			s-0.029-0.029-0.045-0.042c-0.016-0.012-0.032-0.022-0.05-0.032c-0.019-0.011-0.039-0.019-0.059-0.026
			c-0.009-0.003-0.016-0.009-0.026-0.012c-0.01-0.003-0.021-0.001-0.031-0.003c-0.021-0.004-0.042-0.006-0.063-0.006
			c-0.022,0-0.042,0.002-0.063,0.006c-0.011,0.002-0.021,0-0.032,0.003c-0.01,0.002-0.017,0.009-0.026,0.012
			c-0.02,0.007-0.039,0.016-0.058,0.026c-0.018,0.01-0.035,0.02-0.051,0.033c-0.016,0.012-0.03,0.026-0.044,0.041
			c-0.015,0.016-0.028,0.032-0.04,0.05c-0.005,0.008-0.013,0.014-0.018,0.023l-6.955,12.552V52.431c0-1.962-4.566-3.02-8.862-3.02
			s-8.862,1.059-8.862,3.02v16.866c-1.015,0.007-1.997,0.157-2.927,0.428v-8.078c0-0.001,0-0.001,0-0.002s0-0.001,0-0.002
			c-0.001-0.052-0.014-0.101-0.034-0.146c-0.006-0.013-0.014-0.024-0.022-0.037c-0.019-0.032-0.041-0.061-0.068-0.087
			c-0.007-0.006-0.009-0.015-0.016-0.021c-0.006-0.005-0.014-0.006-0.021-0.01c-0.029-0.021-0.062-0.037-0.097-0.049
			c-0.015-0.005-0.028-0.013-0.043-0.016c-0.004-0.001-0.008-0.004-0.012-0.004L84.95,58.808c-0.045-0.008-0.091-0.008-0.137,0
			l-13.465,2.465c-0.005,0.001-0.009,0.004-0.014,0.005c-0.015,0.003-0.028,0.011-0.042,0.016c-0.035,0.012-0.067,0.028-0.097,0.049
			c-0.007,0.005-0.015,0.006-0.021,0.011c-0.007,0.006-0.01,0.015-0.016,0.021c-0.027,0.025-0.048,0.054-0.067,0.086
			c-0.007,0.013-0.016,0.024-0.022,0.037c-0.02,0.046-0.033,0.095-0.033,0.147v0.001c0,0,0,0,0,0.001v17.953
			c0,0.164,0.105,0.31,0.261,0.361l13.781,4.551c0.001,0,0.002,0,0.002,0c0.038,0.012,0.077,0.019,0.117,0.019
			c0.041,0,0.082-0.007,0.12-0.02c0.001,0,0.003,0,0.004-0.001l5.926-2.051c1.096,4.776,5.379,8.351,10.483,8.351
			c5.931,0,10.757-4.826,10.757-10.757c0-1.28-0.226-2.507-0.638-3.647c1.061-0.054,2.108-0.171,3.069-0.349l-1.861,3.359
			c-0.052,0.095-0.062,0.207-0.026,0.31s0.114,0.185,0.213,0.226l13.274,5.5c0.005,0.002,0.01,0.001,0.015,0.003
			c0.042,0.016,0.086,0.026,0.13,0.026s0.088-0.01,0.13-0.026c0.005-0.002,0.01-0.001,0.015-0.003l13.275-5.5
			c0.1-0.041,0.178-0.124,0.213-0.226C140.333,79.622,140.324,79.51,140.271,79.415z M110.514,50.17c5.02,0,8.102,1.316,8.102,2.26
			s-3.082,2.26-8.102,2.26s-8.102-1.317-8.102-2.26S105.494,50.17,110.514,50.17z M102.412,70.081
			c3.652,0.248,6.772,2.464,8.303,5.595c-0.068,0-0.133,0.003-0.201,0.003c-5.02,0-8.102-1.317-8.102-2.26L102.412,70.081
			L102.412,70.081z M84.88,59.569l11.453,2.097l-11.139,2.249l-8.624-1.661l-3.096-0.597L84.88,59.569z M71.796,62.107l13.02,2.508
			v19.009l-13.02-4.3V62.107z M85.576,83.618V64.614l12.388-2.501v7.865c-4.08,1.53-6.993,5.468-6.993,10.076
			c0,0.562,0.044,1.114,0.127,1.653L85.576,83.618z M91.732,80.052c0-4.181,2.581-7.768,6.232-9.259v8.535l-6.132,2.123
			C91.768,80.994,91.732,80.527,91.732,80.052z M111.726,80.052c0,5.512-4.485,9.997-9.997,9.997c-4.772,0-8.771-3.362-9.76-7.841
			l6.5-2.25c0.153-0.053,0.256-0.197,0.256-0.359v-9.082c0.925-0.292,1.908-0.452,2.927-0.46v3.362c0,1.962,4.566,3.021,8.862,3.021
			c0.177,0,0.354-0.002,0.532-0.006C111.483,77.558,111.726,78.776,111.726,80.052z M111.545,75.66
			c-1.595-3.55-5.059-6.083-9.133-6.34V53.715c0.003,0.002,0.006,0.004,0.008,0.006c0.082,0.062,0.17,0.123,0.263,0.182
			c0.022,0.014,0.046,0.028,0.069,0.042c0.087,0.053,0.177,0.105,0.273,0.156c0.012,0.006,0.023,0.013,0.034,0.019
			c0.106,0.055,0.219,0.108,0.335,0.16c0.028,0.013,0.057,0.025,0.085,0.037c0.109,0.047,0.221,0.093,0.337,0.137
			c0.012,0.005,0.024,0.01,0.037,0.014c0.128,0.048,0.261,0.093,0.396,0.138c0.033,0.011,0.066,0.021,0.099,0.032
			c0.128,0.04,0.258,0.08,0.392,0.117c0.013,0.004,0.025,0.007,0.037,0.011c0.145,0.04,0.295,0.078,0.447,0.115
			c0.036,0.009,0.073,0.017,0.11,0.026c0.144,0.034,0.289,0.066,0.438,0.096c0.012,0.003,0.025,0.005,0.037,0.008
			c0.159,0.032,0.322,0.062,0.486,0.091c0.04,0.007,0.08,0.014,0.12,0.021c0.157,0.027,0.315,0.052,0.476,0.075
			c0.01,0.002,0.021,0.003,0.031,0.005c0.17,0.024,0.342,0.046,0.515,0.067c0.042,0.005,0.084,0.01,0.126,0.015
			c0.168,0.019,0.337,0.037,0.507,0.053c0.007,0.001,0.015,0.002,0.022,0.002c0.176,0.016,0.354,0.03,0.532,0.043
			c0.045,0.003,0.09,0.006,0.135,0.009c0.175,0.012,0.351,0.022,0.527,0.03c0.004,0,0.007,0,0.011,0.001
			c0.18,0.008,0.361,0.014,0.541,0.019c0.044,0.001,0.088,0.002,0.132,0.003c0.181,0.004,0.362,0.006,0.542,0.006
			s0.361-0.003,0.542-0.006c0.044-0.001,0.088-0.002,0.132-0.003c0.18-0.005,0.361-0.01,0.541-0.019c0.004,0,0.007,0,0.011-0.001
			c0.176-0.008,0.352-0.019,0.528-0.03c0.045-0.003,0.09-0.006,0.134-0.009c0.178-0.013,0.356-0.027,0.532-0.043
			c0.007-0.001,0.014-0.002,0.022-0.002c0.171-0.016,0.34-0.034,0.508-0.054c0.042-0.005,0.084-0.01,0.126-0.015
			c0.173-0.021,0.345-0.043,0.515-0.067c0.01-0.002,0.021-0.003,0.031-0.005c0.161-0.023,0.319-0.049,0.476-0.075
			c0.04-0.007,0.08-0.014,0.12-0.021c0.164-0.029,0.327-0.059,0.486-0.091c0.012-0.002,0.024-0.005,0.036-0.008
			c0.149-0.031,0.295-0.063,0.438-0.097c0.037-0.009,0.073-0.017,0.11-0.026c0.152-0.037,0.302-0.075,0.447-0.115
			c0.013-0.004,0.025-0.007,0.037-0.011c0.134-0.037,0.264-0.077,0.392-0.117c0.033-0.01,0.066-0.021,0.099-0.032
			c0.136-0.044,0.269-0.09,0.396-0.138c0.013-0.005,0.024-0.01,0.037-0.014c0.116-0.044,0.228-0.09,0.337-0.137
			c0.029-0.012,0.057-0.025,0.085-0.037c0.116-0.052,0.229-0.105,0.335-0.16c0.012-0.006,0.023-0.013,0.034-0.019
			c0.096-0.05,0.186-0.103,0.273-0.156c0.023-0.014,0.046-0.028,0.068-0.042c0.093-0.059,0.182-0.12,0.263-0.182
			c0.003-0.002,0.006-0.004,0.008-0.006v15.667l-3.215,5.802C114.341,75.427,113.045,75.604,111.545,75.66z M118.616,70.951v2.468
			c0,0.475-0.781,1.043-2.194,1.491L118.616,70.951z M115.905,75.844c2.028-0.504,3.471-1.322,3.471-2.425v-3.84l6.908-12.467
			v27.418l-12.355-5.119L115.905,75.844z M127.044,84.531V57.112L139.4,79.411L127.044,84.531z"/>
		<g>
			<path d="M29.116,34.5H56.78c0.451,0,0.82-0.369,0.82-0.82v-2.917c0-0.451-0.369-0.82-0.82-0.82H29.116
				c-0.451,0-0.82,0.369-0.82,0.82v2.917C28.296,34.132,28.665,34.5,29.116,34.5z"/>
			<path d="M71.539,37.031H28.394c-0.054,0-0.098,0.044-0.098,0.098v2.199c0,0.054,0.044,0.098,0.098,0.098h43.145
				c0.054,0,0.098-0.044,0.098-0.098v-2.199C71.637,37.076,71.593,37.031,71.539,37.031z"/>
			<path d="M71.539,40.86H28.394c-0.054,0-0.098,0.044-0.098,0.098v2.199c0,0.054,0.044,0.098,0.098,0.098h43.145
				c0.054,0,0.098-0.044,0.098-0.098v-2.199C71.637,40.904,71.593,40.86,71.539,40.86z"/>
			<path d="M71.539,44.688H28.394c-0.054,0-0.098,0.044-0.098,0.098v2.199c0,0.054,0.044,0.098,0.098,0.098h43.145
				c0.054,0,0.098-0.044,0.098-0.098v-2.199C71.637,44.732,71.593,44.688,71.539,44.688z"/>
		</g>
		<g>
			<path class="st2" d="M29.116,66.044h16.466c0.451,0,0.82-0.369,0.82-0.82v-2.917c0-0.451-0.369-0.82-0.82-0.82H29.116
				c-0.451,0-0.82,0.369-0.82,0.82v2.917C28.296,65.675,28.665,66.044,29.116,66.044z"/>
			<path class="st2" d="M60.341,68.575H28.394c-0.054,0-0.098,0.044-0.098,0.098v2.199c0,0.054,0.044,0.098,0.098,0.098h31.947
				c0.054,0,0.098-0.044,0.098-0.098v-2.199C60.439,68.618,60.395,68.575,60.341,68.575z"/>
			<path class="st2" d="M60.341,72.403H28.394c-0.054,0-0.098,0.044-0.098,0.098V74.7c0,0.054,0.044,0.098,0.098,0.098h31.947
				c0.054,0,0.098-0.044,0.098-0.098v-2.199C60.439,72.448,60.395,72.403,60.341,72.403z"/>
			<path class="st2" d="M60.341,76.231H28.394c-0.054,0-0.098,0.044-0.098,0.098v2.199c0,0.054,0.044,0.098,0.098,0.098h31.947
				c0.054,0,0.098-0.044,0.098-0.098V76.33C60.439,76.276,60.395,76.231,60.341,76.231z"/>
		</g>
		<g id="lumio_00000005980574278788513210000009364284175221588891_">
			<g>
				<path class="st3" d="M110.239,38.326c0.23,0,0.423,0.073,0.577,0.219c0.155,0.146,0.232,0.334,0.232,0.564
					c0,0.221-0.078,0.405-0.232,0.551c-0.155,0.146-0.348,0.219-0.577,0.219h-4.315c-0.23,0-0.423-0.077-0.578-0.232
					s-0.232-0.347-0.232-0.578v-7.673c0-0.23,0.08-0.423,0.239-0.578s0.363-0.232,0.611-0.232c0.212,0,0.4,0.078,0.564,0.232
					c0.164,0.155,0.246,0.348,0.246,0.578v7.156l-0.292-0.226C106.482,38.326,110.239,38.326,110.239,38.326z"/>
				<path class="st3" d="M117.713,32.777c0.23,0,0.42,0.078,0.571,0.232c0.151,0.155,0.226,0.348,0.226,0.577v3.372
					c0,0.938-0.261,1.682-0.783,2.23c-0.522,0.549-1.274,0.823-2.257,0.823s-1.732-0.274-2.25-0.823s-0.777-1.292-0.777-2.23v-3.372
					c0-0.23,0.075-0.423,0.226-0.577s0.341-0.232,0.571-0.232s0.42,0.078,0.571,0.232c0.151,0.155,0.226,0.348,0.226,0.577v3.372
					c0,0.54,0.119,0.941,0.358,1.201c0.239,0.261,0.597,0.391,1.075,0.391c0.487,0,0.849-0.13,1.088-0.391
					c0.239-0.261,0.358-0.661,0.358-1.201v-3.372c0-0.23,0.075-0.423,0.226-0.577C117.292,32.854,117.483,32.777,117.713,32.777z"/>
				<path class="st3" d="M123.965,32.645c0.708,0,1.23,0.171,1.567,0.511c0.336,0.341,0.558,0.781,0.664,1.321l-0.226-0.119
					l0.106-0.212c0.106-0.204,0.27-0.423,0.491-0.657s0.489-0.433,0.803-0.597s0.666-0.246,1.055-0.246
					c0.637,0,1.122,0.137,1.454,0.412c0.332,0.274,0.559,0.639,0.684,1.095c0.124,0.456,0.186,0.962,0.186,1.52v3.399
					c0,0.23-0.075,0.423-0.226,0.578s-0.341,0.232-0.571,0.232s-0.42-0.077-0.571-0.232s-0.226-0.347-0.226-0.578V35.67
					c0-0.292-0.036-0.555-0.106-0.79c-0.071-0.235-0.199-0.423-0.385-0.564c-0.186-0.141-0.451-0.212-0.797-0.212
					c-0.336,0-0.624,0.071-0.863,0.212c-0.239,0.142-0.418,0.33-0.538,0.564c-0.119,0.235-0.179,0.498-0.179,0.79v3.399
					c0,0.23-0.075,0.423-0.226,0.578s-0.341,0.232-0.571,0.232s-0.42-0.077-0.571-0.232s-0.226-0.347-0.226-0.578V35.67
					c0-0.292-0.035-0.555-0.106-0.79s-0.199-0.423-0.385-0.564c-0.186-0.141-0.451-0.212-0.796-0.212
					c-0.336,0-0.624,0.071-0.863,0.212c-0.239,0.142-0.418,0.33-0.538,0.564c-0.119,0.235-0.179,0.498-0.179,0.79v3.399
					c0,0.23-0.075,0.423-0.226,0.578s-0.341,0.232-0.571,0.232s-0.42-0.077-0.571-0.232s-0.226-0.347-0.226-0.578v-5.483
					c0-0.23,0.075-0.423,0.226-0.577s0.341-0.232,0.571-0.232s0.42,0.078,0.571,0.232c0.151,0.155,0.226,0.348,0.226,0.577v0.571
					l-0.199-0.04c0.08-0.151,0.19-0.312,0.332-0.484c0.141-0.172,0.314-0.334,0.518-0.484c0.203-0.151,0.429-0.272,0.677-0.365
					C123.403,32.69,123.673,32.645,123.965,32.645z"/>
				<path class="st3" d="M133.975,39.069c0,0.23-0.075,0.423-0.226,0.578s-0.341,0.232-0.571,0.232s-0.42-0.077-0.571-0.232
					s-0.226-0.347-0.226-0.578v-5.483c0-0.23,0.075-0.423,0.226-0.577s0.341-0.232,0.571-0.232s0.42,0.078,0.571,0.232
					c0.151,0.155,0.226,0.348,0.226,0.577V39.069z"/>
				<path class="st3" d="M142.432,36.334c0,0.726-0.162,1.365-0.485,1.918c-0.323,0.553-0.757,0.985-1.301,1.294
					c-0.544,0.31-1.153,0.465-1.825,0.465s-1.281-0.155-1.825-0.465c-0.544-0.31-0.978-0.741-1.301-1.294
					c-0.323-0.553-0.484-1.193-0.484-1.918c0-0.726,0.161-1.365,0.484-1.918c0.323-0.553,0.757-0.987,1.301-1.301
					c0.544-0.314,1.153-0.471,1.825-0.471c0.673,0,1.281,0.157,1.825,0.471c0.544,0.314,0.978,0.748,1.301,1.301
					S142.432,35.61,142.432,36.334z M140.839,36.334c0-0.451-0.091-0.843-0.272-1.175s-0.425-0.591-0.73-0.777
					s-0.644-0.279-1.016-0.279s-0.71,0.093-1.016,0.279s-0.549,0.445-0.73,0.777s-0.272,0.723-0.272,1.175
					c0,0.443,0.091,0.83,0.272,1.162c0.181,0.332,0.425,0.591,0.73,0.777s0.644,0.279,1.016,0.279s0.71-0.093,1.016-0.279
					s0.549-0.445,0.73-0.777S140.839,36.778,140.839,36.334z"/>
			</g>
			<g>
				<path class="st3" d="M128.143,43.936c0,0.5-0.358,0.83-0.783,0.83c-0.213,0-0.442-0.098-0.547-0.277v0.236h-0.331v-2.433h0.331
					v1.09c0.104-0.179,0.324-0.273,0.547-0.273C127.789,43.108,128.143,43.432,128.143,43.936z M127.809,43.931
					c0-0.297-0.216-0.513-0.489-0.513c-0.243,0-0.503,0.196-0.503,0.513s0.24,0.523,0.503,0.523
					C127.593,44.454,127.809,44.225,127.809,43.931z"/>
				<path class="st3" d="M129.557,43.148h0.358l-0.979,2.342h-0.351l0.341-0.837l-0.631-1.505h0.358l0.452,1.097L129.557,43.148z"/>
				<path class="st3" d="M130.951,44.056h0.344c0.007,0.199,0.192,0.391,0.483,0.391c0.277,0,0.439-0.175,0.439-0.368
					c0-0.206-0.186-0.304-0.375-0.354l-0.297-0.074c-0.496-0.125-0.577-0.419-0.577-0.611c0-0.409,0.361-0.682,0.773-0.682
					c0.419,0,0.746,0.263,0.746,0.688h-0.344c0-0.219-0.172-0.371-0.412-0.371c-0.219,0-0.415,0.145-0.415,0.358
					c0,0.074,0.024,0.226,0.317,0.304l0.294,0.081c0.391,0.104,0.638,0.304,0.638,0.645c0,0.388-0.317,0.702-0.786,0.702
					C131.282,44.765,130.951,44.431,130.951,44.056z"/>
				<path class="st3" d="M135.683,44.724h-0.344l-0.206-1.688l-0.692,1.431h-0.297l-0.699-1.431l-0.206,1.688h-0.344l0.284-2.325
					h0.31l0.8,1.674l0.8-1.674h0.31L135.683,44.724z"/>
				<path class="st3" d="M137.634,44.724l-0.216-0.587h-0.969l-0.216,0.587h-0.365l0.881-2.325h0.371l0.878,2.325H137.634z
					 M136.56,43.833h0.746l-0.371-1.013L136.56,43.833z"/>
				<path class="st3" d="M139.52,44.724l-0.597-0.867h-0.263v0.867h-0.348v-2.325h0.888c0.51,0,0.716,0.368,0.716,0.736
					c0,0.334-0.203,0.685-0.591,0.722l0.611,0.867H139.52z M138.66,42.716v0.837h0.456c0.32,0,0.452-0.172,0.452-0.419
					c0-0.243-0.145-0.419-0.371-0.419L138.66,42.716L138.66,42.716z"/>
				<path class="st3" d="M141.856,42.399v0.317h-0.692v2.008h-0.348v-2.008h-0.692v-0.317H141.856z"/>
			</g>
			<g>
				<path class="st3" d="M143.312,32.923c-0.019,0-0.035-0.006-0.048-0.018s-0.02-0.028-0.02-0.046c0-0.019,0.007-0.034,0.02-0.046
					s0.029-0.017,0.048-0.017h0.773c0.019,0,0.035,0.006,0.048,0.018s0.02,0.028,0.02,0.046c0,0.019-0.007,0.034-0.02,0.046
					s-0.029,0.017-0.048,0.017H143.312z M143.698,33.958c-0.021,0-0.038-0.007-0.051-0.02s-0.019-0.029-0.019-0.048v-1.026h0.141
					v1.026c0,0.019-0.007,0.035-0.02,0.048S143.719,33.958,143.698,33.958z"/>
				<path class="st3" d="M144.421,32.792c0.01,0,0.021,0.003,0.032,0.008c0.012,0.006,0.021,0.013,0.028,0.023l0.441,0.665
					l-0.06-0.001l0.446-0.664c0.016-0.021,0.034-0.032,0.057-0.032c0.018,0.001,0.033,0.008,0.048,0.021
					c0.014,0.013,0.021,0.029,0.021,0.047v1.029c0,0.019-0.007,0.035-0.02,0.048s-0.03,0.02-0.05,0.02
					c-0.021,0-0.038-0.007-0.051-0.02s-0.019-0.029-0.019-0.048v-0.901l0.042,0.007l-0.393,0.597
					c-0.007,0.009-0.015,0.016-0.024,0.022s-0.02,0.008-0.031,0.007c-0.01,0.001-0.02-0.001-0.03-0.007s-0.018-0.013-0.023-0.022
					l-0.387-0.595l0.035-0.045v0.938c0,0.019-0.006,0.035-0.018,0.048s-0.028,0.02-0.046,0.02c-0.019,0-0.034-0.007-0.046-0.02
					c-0.012-0.013-0.018-0.029-0.018-0.048v-1.029c0-0.018,0.007-0.033,0.02-0.047C144.385,32.799,144.401,32.792,144.421,32.792z"
					/>
			</g>
		</g>
		<g id="bug_00000156552252068517301550000014718783974832488093_">
			
				<radialGradient id="SVGID_1_" cx="133.1225" cy="-100.4155" r="2.341" gradientTransform="matrix(1 0 0 -1 0 -71)" gradientUnits="userSpaceOnUse">
				<stop  offset="0" style="stop-color:#F9CC70"/>
				<stop  offset="0.8552" style="stop-color:#F9CC70;stop-opacity:0.1448"/>
				<stop  offset="1" style="stop-color:#F9CC70;stop-opacity:0"/>
			</radialGradient>
			<circle class="st4" cx="133.122" cy="29.416" r="2.341"/>
			<path class="st3" d="M133.411,27.226c0.224-0.146,0.439-0.33,0.644-0.553c0.655-0.712,0.559-1.28,0.443-1.554
				c-0.207-0.49-0.768-0.807-1.465-0.827c-0.552-0.016-1.221,0.163-1.846,0.629c-0.313-0.169-0.667-0.254-1.034-0.241
				c-0.161,0.006-0.319,0.03-0.471,0.071c-0.066-0.102-0.178-0.312-0.145-0.515c0.023-0.135,0.109-0.247,0.264-0.345
				c0.097-0.061,0.126-0.189,0.065-0.286s-0.189-0.126-0.286-0.065c-0.258,0.163-0.41,0.375-0.452,0.63
				c-0.048,0.29,0.066,0.563,0.162,0.732c-0.204,0.105-0.39,0.245-0.551,0.417c-0.129,0.138-0.237,0.292-0.321,0.457
				c-0.176-0.079-0.437-0.157-0.703-0.094c-0.252,0.059-0.454,0.225-0.599,0.493c-0.054,0.101-0.017,0.227,0.084,0.281
				c0.031,0.017,0.065,0.025,0.099,0.025c0.074,0,0.145-0.039,0.183-0.109c0.087-0.161,0.194-0.255,0.326-0.286
				c0.165-0.039,0.342,0.021,0.459,0.076c-0.054,0.196-0.078,0.401-0.071,0.611c0.013,0.367,0.121,0.716,0.312,1.017
				c-0.419,0.653-0.551,1.33-0.497,1.877c0.067,0.694,0.421,1.233,0.924,1.406c0.089,0.031,0.207,0.058,0.349,0.058
				c0.305,0,0.717-0.125,1.172-0.605c0.2-0.211,0.364-0.429,0.492-0.652c0.706,0.387,1.576,0.736,2.249,0.736
				c0.332,0,0.615-0.085,0.809-0.291c0.461-0.493,0.189-1.454-0.12-2.174C133.749,27.837,133.585,27.519,133.411,27.226z
				 M133.021,24.707c0.525,0.015,0.955,0.24,1.095,0.573c0.133,0.316,0.003,0.711-0.366,1.112c-0.18,0.195-0.367,0.356-0.56,0.483
				c-0.197-0.294-0.398-0.543-0.577-0.711l-1.006-0.94c-0.019-0.018-0.039-0.035-0.059-0.052
				C132.053,24.828,132.579,24.695,133.021,24.707z M130.757,29.297c-0.253-0.158-0.473-0.32-0.633-0.469l-1.006-0.94
				c-0.035-0.033-0.068-0.067-0.1-0.102c0.255-0.328,0.599-0.646,1.051-0.927c0.232,0.248,0.766,0.903,0.798,1.714
				C130.878,28.819,130.841,29.059,130.757,29.297z M131.213,25.434c0.038,0.029,0.074,0.061,0.11,0.094l1.006,0.94
				c0.137,0.128,0.31,0.339,0.491,0.604c-0.223,0.092-0.453,0.143-0.69,0.149c-0.813,0.025-1.501-0.465-1.764-0.68
				C130.615,26.073,130.906,25.709,131.213,25.434z M128.609,26.762c-0.007-0.212,0.026-0.418,0.096-0.61
				c0.001-0.002,0.001-0.005,0.003-0.007c0.073-0.198,0.185-0.381,0.333-0.54c0.293-0.314,0.693-0.494,1.125-0.509
				c0.019-0.001,0.038-0.001,0.057-0.001c0.215,0,0.423,0.042,0.617,0.122c-0.327,0.315-0.633,0.72-0.891,1.23
				c-0.496,0.294-0.881,0.629-1.173,0.979C128.675,27.222,128.617,26.997,128.609,26.762z M130.152,30.243
				c-0.375,0.396-0.76,0.552-1.084,0.441c-0.342-0.117-0.596-0.531-0.646-1.054c-0.042-0.435,0.054-0.966,0.359-1.493
				c0.018,0.018,0.035,0.036,0.054,0.053l1.006,0.94c0.158,0.148,0.422,0.341,0.745,0.538
				C130.474,29.864,130.33,30.056,130.152,30.243z M133.699,30.038c-0.374,0.4-1.607,0-2.578-0.529
				c0.12-0.31,0.175-0.629,0.161-0.957c-0.018-0.442-0.157-0.839-0.328-1.165c0.321,0.141,0.703,0.249,1.12,0.249
				c0.021,0,0.043,0,0.064-0.001c0.315-0.008,0.618-0.079,0.908-0.209c0.161,0.268,0.319,0.57,0.454,0.885
				C133.859,29.143,133.933,29.788,133.699,30.038z"/>
		</g>
	</g>
	<polygon class="st5" points="11.34,92.549 136.697,13.481 11.34,13.481 	"/>
	<path class="st6" d="M9.819,12.311v89.697h154.74V12.311H9.819z M162.683,98.452H11.696V13.532h150.987V98.452z"/>
	<path class="st7" d="M166.183,107.048H8.145c-0.066,0-0.12-0.054-0.12-0.12v-2.777c0-0.066,0.054-0.12,0.12-0.12h158.038
		c0.066,0,0.12,0.054,0.12,0.12v2.777C166.303,106.993,166.249,107.048,166.183,107.048z"/>
	<g>
		<path class="st8" d="M166.183,12.311H8.145c-0.066,0-0.12-0.054-0.12-0.12V9.031c0-0.066,0.054-0.12,0.12-0.12h158.038
			c0.066,0,0.12,0.054,0.12,0.12v3.161C166.303,12.258,166.249,12.311,166.183,12.311z"/>
		<path class="st9" d="M13.976,10.418h-0.6c-0.198,0-0.36-0.162-0.36-0.36l0,0c0-0.198,0.162-0.36,0.36-0.36h0.6
			c0.198,0,0.36,0.162,0.36,0.36l0,0C14.337,10.257,14.175,10.418,13.976,10.418z"/>
	</g>
	<g>
		<path class="st0" d="M8.025,12.311v65.985c0,0-1.408,0.704-1.408,2.263c0,1.558,0,13.123,0,16.441
			c0,1.106,1.408,2.061,1.408,2.061v4.969h158.227V12.311H8.025z M9.944,13.56h154.39v86.835H9.944V13.56z"/>
		<g>
			<path class="st10" d="M8.044,81.392c0-0.463-0.195-0.839-0.434-0.839c-0.24,0-0.434,0.376-0.434,0.839S7.37,82.23,7.61,82.23
				S8.044,81.854,8.044,81.392z"/>
			<path class="st10" d="M7.176,83.895c0,0.463,0.194,0.839,0.434,0.839s0.434-0.376,0.434-0.839s-0.195-0.839-0.434-0.839
				S7.176,83.431,7.176,83.895z"/>
			<path class="st10" d="M7.176,86.398c0,0.463,0.194,0.839,0.434,0.839s0.434-0.376,0.434-0.839S7.849,85.56,7.61,85.56
				S7.176,85.936,7.176,86.398z"/>
			<path class="st10" d="M7.176,88.902c0,0.463,0.194,0.839,0.434,0.839s0.434-0.376,0.434-0.839s-0.195-0.839-0.434-0.839
				S7.176,88.438,7.176,88.902z"/>
			<polygon class="st10" points="7.811,91.538 7.415,91.387 7.415,92.783 7.811,92.619 			"/>
			<polygon class="st10" points="7.811,94.291 7.415,94.141 7.415,95.535 7.811,95.372 			"/>
		</g>
	</g>
	<g>
		<path class="st8" d="M33.588,106.968H8.044c-0.03,0-0.054,0.025-0.055,0.054c0,0,0,0.421,0,1.15c0,1.642-0.943,4.01-0.652,4.487
			s39.22,1.462,39.22,1.462h81.476c0,0,38.659-0.984,38.95-1.462s-0.652-2.845-0.652-4.487c0-0.729,0-1.15,0-1.15
			c-0.001-0.029-0.025-0.054-0.055-0.054h-25.274H33.588z"/>
		<g>
			<g>
				<g>
					<path class="st7" d="M76.296,111.217H63.3c-0.639,0-1.162-0.523-1.162-1.162l0,0c0-0.639,0.523-1.162,1.162-1.162h12.996
						c0.639,0,1.162,0.523,1.162,1.162l0,0C77.458,110.694,76.935,111.217,76.296,111.217z"/>
					<path class="st11" d="M75.79,109.76L75.79,109.76l-1.542-0.403c-0.008,0-0.016,0.012-0.023,0.03
						c0.007-0.018,0.015-0.03,0.023-0.03h-4.94h-4.751h-0.754h-0.437c-0.278,0-0.503,0.312-0.503,0.698
						c0,0.385,0.225,0.698,0.503,0.698h0.437h0.754h4.751h4.94l0,0l1.542-0.403c0.231,0,0.943-0.186,0.943-0.294
						C76.733,109.945,76.021,109.76,75.79,109.76z"/>
					<g>
						<path class="st12" d="M75.79,110.179c-0.02,0-0.036-0.132-0.036-0.294c0-0.163,0.016-0.294,0.036-0.294l-1.542-0.403
							c-0.047,0-0.085,0.312-0.085,0.698s0.038,0.698,0.085,0.698L75.79,110.179z"/>
						<g>
							<path class="st13" d="M75.79,109.59c-0.02,0-0.036,0.132-0.036,0.294s0.016,0.294,0.036,0.294
								c0.231,0,0.943-0.186,0.943-0.294S76.021,109.59,75.79,109.59z"/>
							<path class="st13" d="M74.249,109.188h-4.94c-0.047,0-0.085,0.312-0.085,0.698c0,0.385,0.038,0.698,0.085,0.698h4.94
								c-0.047,0-0.085-0.312-0.085-0.698C74.164,109.499,74.202,109.188,74.249,109.188z"/>
						</g>
						<path class="st14" d="M69.224,109.885c0-0.385,0.038-0.698,0.085-0.698h-4.751c-0.047,0-0.085,0.312-0.085,0.698
							c0,0.385,0.038,0.698,0.085,0.698h4.751C69.262,110.582,69.224,110.271,69.224,109.885z"/>
						<path class="st12" d="M64.473,109.885c0-0.385,0.038-0.698,0.085-0.698h-0.754c-0.047,0-0.085,0.312-0.085,0.698
							c0,0.385,0.038,0.698,0.085,0.698h0.754C64.511,110.582,64.473,110.271,64.473,109.885z"/>
						<path class="st13" d="M63.718,109.885c0-0.385,0.038-0.698,0.085-0.698h-0.437c-0.278,0-0.503,0.312-0.503,0.698
							c0,0.385,0.225,0.698,0.503,0.698h0.437C63.756,110.582,63.718,110.271,63.718,109.885z"/>
					</g>
				</g>
				<path class="st7" d="M98.294,108.893h12.996c0.639,0,1.162,0.523,1.162,1.162l0,0c0,0.639-0.523,1.162-1.162,1.162H98.294
					c-0.639,0-1.162-0.523-1.162-1.162l0,0C97.132,109.415,97.655,108.893,98.294,108.893z"/>
				<path class="st11" d="M98.8,110.502L98.8,110.502l1.542,0.403c0.008,0,0.016-0.012,0.023-0.03
					c-0.007,0.018-0.015,0.03-0.023,0.03h4.94h4.751h0.754h0.437c0.278,0,0.503-0.312,0.503-0.698c0-0.385-0.225-0.698-0.503-0.698
					h-0.437h-0.754h-4.751h-4.94l0,0l-1.542,0.403c-0.231,0-0.943,0.186-0.943,0.294C97.858,110.315,98.57,110.502,98.8,110.502z"/>
				<g>
					<path class="st12" d="M98.8,109.76c0.02,0,0.036,0.132,0.036,0.294c0,0.163-0.016,0.294-0.036,0.294l1.542,0.403
						c0.047,0,0.085-0.312,0.085-0.698s-0.038-0.698-0.085-0.698L98.8,109.76z"/>
					<g>
						<path class="st15" d="M98.8,110.35c0.02,0,0.036-0.132,0.036-0.294s-0.016-0.294-0.036-0.294
							c-0.231,0-0.943,0.186-0.943,0.294C97.858,110.163,98.57,110.35,98.8,110.35z"/>
						<path class="st15" d="M100.342,110.753h4.94c0.047,0,0.085-0.312,0.085-0.698c0-0.385-0.038-0.698-0.085-0.698h-4.94
							c0.047,0,0.085,0.312,0.085,0.698C100.427,110.44,100.389,110.753,100.342,110.753z"/>
					</g>
					<path class="st14" d="M105.367,110.054c0,0.385-0.038,0.698-0.085,0.698h4.751c0.047,0,0.085-0.312,0.085-0.698
						c0-0.385-0.038-0.698-0.085-0.698h-4.751C105.329,109.357,105.367,109.67,105.367,110.054z"/>
					<path class="st12" d="M110.118,110.054c0,0.385-0.038,0.698-0.085,0.698h0.754c0.047,0,0.085-0.312,0.085-0.698
						c0-0.385-0.038-0.698-0.085-0.698h-0.754C110.08,109.357,110.118,109.67,110.118,110.054z"/>
					<path class="st13" d="M110.872,110.054c0,0.385-0.038,0.698-0.085,0.698h0.437c0.278,0,0.503-0.312,0.503-0.698
						c0-0.385-0.225-0.698-0.503-0.698h-0.437C110.834,109.357,110.872,109.67,110.872,110.054z"/>
				</g>
			</g>
			<g>
				<path class="st11" d="M130.967,107.628h-13.392c-0.031,0-0.056,0.169-0.056,0.375l0.093,4.352c0,0.206,0.025,0.375,0.056,0.375
					h13.207c0.031,0,0.056-0.169,0.056-0.375l0.092-4.352C131.023,107.796,130.998,107.628,130.967,107.628z"/>
				<path class="st8" d="M130.903,111.808h-13.262c-0.066,0-0.12-0.054-0.12-0.12v-3.94c0-0.066,0.054-0.12,0.12-0.12h13.262
					c0.066,0,0.12,0.054,0.12,0.12v3.94C131.023,111.754,130.969,111.808,130.903,111.808z"/>
				<path class="st16" d="M130.968,111.808h-13.393c-0.03,0-0.054,0.024-0.054,0.054l0.223,0.632c0,0.03,0.024,0.054,0.054,0.054
					h12.947c0.03,0,0.054-0.024,0.054-0.054l0.223-0.632C131.023,111.831,130.998,111.808,130.968,111.808z"/>
				<path class="st17" d="M130.625,111.445h-12.707c-0.066,0-0.12-0.054-0.12-0.12v-3.254c0-0.066,0.054-0.12,0.12-0.12h12.707
					c0.066,0,0.12,0.054,0.12,0.12v3.254C130.745,111.392,130.691,111.445,130.625,111.445z"/>
			</g>
			<g>
				<path class="st11" d="M56.81,107.628H43.418c-0.031,0-0.056,0.169-0.056,0.375l0.093,4.352c0,0.206,0.025,0.375,0.056,0.375
					h13.207c0.031,0,0.056-0.169,0.056-0.375l0.092-4.352C56.866,107.796,56.841,107.628,56.81,107.628z"/>
				<path class="st8" d="M56.746,111.808H43.484c-0.066,0-0.12-0.054-0.12-0.12v-3.94c0-0.066,0.054-0.12,0.12-0.12h13.262
					c0.066,0,0.12,0.054,0.12,0.12v3.94C56.866,111.754,56.812,111.808,56.746,111.808z"/>
				<path class="st16" d="M56.811,111.808H43.418c-0.03,0-0.054,0.024-0.054,0.054l0.223,0.632c0,0.03,0.024,0.054,0.054,0.054
					h12.947c0.03,0,0.054-0.024,0.054-0.054l0.223-0.632C56.866,111.831,56.841,111.808,56.811,111.808z"/>
				<path class="st17" d="M56.468,111.445H43.761c-0.066,0-0.12-0.054-0.12-0.12v-3.254c0-0.066,0.054-0.12,0.12-0.12h12.707
					c0.066,0,0.12,0.054,0.12,0.12v3.254C56.588,111.392,56.534,111.445,56.468,111.445z"/>
			</g>
			<g>
				<path class="st7" d="M81.631,110.054L81.631,110.054c0-0.639,0.387-1.162,0.859-1.162h9.61c0.472,0,0.859,0.523,0.859,1.162l0,0
					c0,0.639-0.387,1.162-0.859,1.162h-9.61C82.017,111.216,81.63,110.693,81.631,110.054z"/>
				<path class="st8" d="M84.629,110.054L84.629,110.054c0-0.225,0.182-0.41,0.404-0.41h4.523c0.222,0,0.404,0.185,0.404,0.41l0,0
					c0,0.225-0.182,0.41-0.404,0.41h-4.523C84.811,110.465,84.628,110.28,84.629,110.054z"/>
			</g>
		</g>
	</g>
</g>
</svg>
