<?xml version="1.0" encoding="utf-8"?>
<!-- Generator: Adobe Illustrator 26.0.1, SVG Export Plug-In . SVG Version: 6.00 Build 0)  -->
<svg version="1.1" id="Layer_1" xmlns="http://www.w3.org/2000/svg" xmlns:xlink="http://www.w3.org/1999/xlink" x="0px" y="0px"
	 viewBox="0 0 175 125" style="enable-background:new 0 0 175 125;" xml:space="preserve">
<style type="text/css">
	.st0{fill:#FFFFFF;}
	.st1{fill:#C0C0C0;}
	.st2{fill:#231F20;}
	.st3{fill:url(#SVGID_1_);}
	.st4{opacity:0.49;fill:#F0FFFF;enable-background:new    ;}
	.st5{fill:#050001;}
	.st6{fill:#3D393A;}
	.st7{fill:#B3B5B7;}
	.st8{fill:#DADBDC;}
	.st9{fill:#111114;}
	.st10{fill:#C6C3C3;}
	.st11{fill:#007CCA;}
	.st12{fill:#E0E1E2;}
	.st13{fill:#4D4D4F;}
	.st14{fill:#009B32;}
	.st15{fill:#D8000B;}
	.st16{fill:#AFB1B3;}
	.st17{fill:#BCAFAD;}
	.st18{fill:#393839;}
	.st19{fill:#929090;}
</style>
<g>
	<path class="st0" d="M8.356,12.39v91.719h158.227V12.39H8.356z"/>
	<g>
		<path d="M140.602,82.152l-13.275-23.958c-0.005-0.009-0.013-0.015-0.018-0.023c-0.012-0.018-0.025-0.034-0.039-0.049
			s-0.029-0.029-0.045-0.042c-0.016-0.012-0.032-0.022-0.05-0.032c-0.019-0.011-0.039-0.019-0.059-0.026
			c-0.009-0.003-0.016-0.009-0.026-0.012c-0.01-0.003-0.021-0.001-0.031-0.003c-0.021-0.004-0.042-0.006-0.063-0.006
			c-0.022,0-0.042,0.002-0.063,0.006c-0.011,0.002-0.021,0-0.032,0.003c-0.01,0.002-0.017,0.009-0.026,0.012
			c-0.02,0.007-0.039,0.016-0.058,0.026c-0.018,0.01-0.035,0.02-0.051,0.033c-0.016,0.012-0.03,0.026-0.044,0.041
			c-0.015,0.016-0.028,0.032-0.04,0.05c-0.005,0.008-0.013,0.014-0.018,0.023l-6.955,12.552V55.168c0-1.962-4.566-3.02-8.862-3.02
			s-8.862,1.059-8.862,3.02v16.866c-1.015,0.007-1.997,0.157-2.927,0.428v-8.078c0-0.001,0-0.001,0-0.002s0-0.001,0-0.002
			c-0.001-0.052-0.014-0.101-0.034-0.146c-0.006-0.013-0.014-0.024-0.022-0.037c-0.019-0.032-0.041-0.061-0.068-0.087
			c-0.007-0.006-0.009-0.015-0.016-0.021c-0.006-0.005-0.014-0.006-0.021-0.01c-0.029-0.021-0.062-0.037-0.097-0.049
			c-0.015-0.005-0.028-0.013-0.043-0.016c-0.004-0.001-0.008-0.004-0.012-0.004l-13.464-2.465c-0.045-0.008-0.091-0.008-0.137,0
			l-13.465,2.465c-0.005,0.001-0.009,0.004-0.014,0.005c-0.015,0.003-0.028,0.011-0.042,0.016c-0.035,0.012-0.067,0.028-0.097,0.049
			c-0.007,0.005-0.015,0.006-0.021,0.011c-0.007,0.006-0.01,0.015-0.016,0.021c-0.027,0.025-0.048,0.054-0.067,0.086
			c-0.007,0.013-0.016,0.024-0.022,0.037c-0.02,0.046-0.033,0.095-0.033,0.147v0.001c0,0,0,0,0,0.001v17.953
			c0,0.164,0.105,0.31,0.261,0.361l13.781,4.551c0.001,0,0.002,0,0.002,0c0.038,0.012,0.077,0.019,0.117,0.019
			c0.041,0,0.082-0.007,0.12-0.02c0.001,0,0.003,0,0.004-0.001l5.926-2.051c1.096,4.776,5.379,8.351,10.483,8.351
			c5.931,0,10.757-4.826,10.757-10.757c0-1.28-0.226-2.507-0.638-3.647c1.061-0.054,2.108-0.171,3.069-0.349l-1.861,3.359
			c-0.052,0.095-0.062,0.207-0.026,0.31s0.114,0.185,0.213,0.226l13.274,5.5c0.005,0.002,0.01,0.001,0.015,0.003
			c0.042,0.016,0.086,0.026,0.13,0.026s0.088-0.01,0.13-0.026c0.005-0.002,0.01-0.001,0.015-0.003l13.275-5.5
			c0.1-0.041,0.178-0.124,0.213-0.226C140.664,82.359,140.655,82.247,140.602,82.152z M110.845,52.907
			c5.02,0,8.102,1.316,8.102,2.26s-3.082,2.26-8.102,2.26s-8.102-1.317-8.102-2.26S105.825,52.907,110.845,52.907z M102.743,72.818
			c3.652,0.248,6.772,2.464,8.303,5.595c-0.068,0-0.133,0.003-0.201,0.003c-5.02,0-8.102-1.317-8.102-2.26L102.743,72.818
			L102.743,72.818z M85.211,62.305l11.453,2.097l-11.139,2.249l-8.624-1.661l-3.096-0.597L85.211,62.305z M72.127,64.844
			l13.02,2.508v19.009l-13.02-4.3V64.844z M85.907,86.354V67.35l12.388-2.501v7.865c-4.08,1.53-6.993,5.468-6.993,10.076
			c0,0.562,0.044,1.114,0.127,1.653L85.907,86.354z M92.063,82.789c0-4.181,2.581-7.768,6.232-9.259v8.535l-6.132,2.123
			C92.099,83.731,92.063,83.264,92.063,82.789z M112.057,82.789c0,5.512-4.485,9.997-9.997,9.997c-4.772,0-8.771-3.362-9.76-7.841
			l6.5-2.25c0.153-0.053,0.256-0.197,0.256-0.359v-9.082c0.925-0.292,1.908-0.452,2.927-0.46v3.362c0,1.962,4.566,3.021,8.862,3.021
			c0.177,0,0.354-0.002,0.532-0.006C111.814,80.294,112.057,81.513,112.057,82.789z M111.876,78.396
			c-1.595-3.55-5.059-6.083-9.133-6.34V56.452c0.003,0.002,0.006,0.004,0.008,0.006c0.082,0.062,0.17,0.123,0.263,0.182
			c0.022,0.014,0.046,0.028,0.069,0.042c0.087,0.053,0.177,0.105,0.273,0.156c0.012,0.006,0.023,0.013,0.034,0.019
			c0.106,0.055,0.219,0.108,0.335,0.16c0.028,0.013,0.057,0.025,0.085,0.037c0.109,0.047,0.221,0.093,0.337,0.137
			c0.012,0.005,0.024,0.01,0.037,0.014c0.128,0.048,0.261,0.093,0.396,0.138c0.033,0.011,0.066,0.021,0.099,0.032
			c0.128,0.04,0.258,0.08,0.392,0.117c0.013,0.004,0.025,0.007,0.037,0.011c0.145,0.04,0.295,0.078,0.447,0.115
			c0.036,0.009,0.073,0.017,0.11,0.026c0.144,0.034,0.289,0.066,0.438,0.096c0.012,0.003,0.025,0.005,0.037,0.008
			c0.159,0.032,0.322,0.062,0.486,0.091c0.04,0.007,0.08,0.014,0.12,0.021c0.157,0.027,0.315,0.052,0.476,0.075
			c0.01,0.002,0.021,0.003,0.031,0.005c0.17,0.024,0.342,0.046,0.515,0.067c0.042,0.005,0.084,0.01,0.126,0.015
			c0.168,0.019,0.337,0.037,0.507,0.053c0.007,0.001,0.015,0.002,0.022,0.002c0.176,0.016,0.354,0.03,0.532,0.043
			c0.045,0.003,0.09,0.006,0.135,0.009c0.175,0.012,0.351,0.022,0.527,0.03c0.004,0,0.007,0,0.011,0.001
			c0.18,0.008,0.361,0.014,0.541,0.019c0.044,0.001,0.088,0.002,0.132,0.003c0.181,0.004,0.362,0.006,0.542,0.006
			s0.361-0.003,0.542-0.006c0.044-0.001,0.088-0.002,0.132-0.003c0.18-0.005,0.361-0.01,0.541-0.019c0.004,0,0.007,0,0.011-0.001
			c0.176-0.008,0.352-0.019,0.528-0.03c0.045-0.003,0.09-0.006,0.134-0.009c0.178-0.013,0.356-0.027,0.532-0.043
			c0.007-0.001,0.014-0.002,0.022-0.002c0.171-0.016,0.34-0.034,0.508-0.054c0.042-0.005,0.084-0.01,0.126-0.015
			c0.173-0.021,0.345-0.043,0.515-0.067c0.01-0.002,0.021-0.003,0.031-0.005c0.161-0.023,0.319-0.049,0.476-0.075
			c0.04-0.007,0.08-0.014,0.12-0.021c0.164-0.029,0.327-0.059,0.486-0.091c0.012-0.002,0.024-0.005,0.036-0.008
			c0.149-0.031,0.295-0.063,0.438-0.097c0.037-0.009,0.073-0.017,0.11-0.026c0.152-0.037,0.302-0.075,0.447-0.115
			c0.013-0.004,0.025-0.007,0.037-0.011c0.134-0.037,0.264-0.077,0.392-0.117c0.033-0.01,0.066-0.021,0.099-0.032
			c0.136-0.044,0.269-0.09,0.396-0.138c0.013-0.005,0.024-0.01,0.037-0.014c0.116-0.044,0.228-0.09,0.337-0.137
			c0.029-0.012,0.057-0.025,0.085-0.037c0.116-0.052,0.229-0.105,0.335-0.16c0.012-0.006,0.023-0.013,0.034-0.019
			c0.096-0.05,0.186-0.103,0.273-0.156c0.023-0.014,0.046-0.028,0.068-0.042c0.093-0.059,0.182-0.12,0.263-0.182
			c0.003-0.002,0.006-0.004,0.008-0.006v15.667l-3.215,5.802C114.672,78.164,113.376,78.34,111.876,78.396z M118.947,73.688v2.468
			c0,0.475-0.781,1.043-2.194,1.491L118.947,73.688z M116.236,78.581c2.028-0.504,3.471-1.322,3.471-2.425v-3.84l6.908-12.467
			v27.418l-12.355-5.119L116.236,78.581z M127.375,87.267V59.849l12.356,22.299L127.375,87.267z"/>
		<g>
			<path d="M29.447,37.237h27.664c0.451,0,0.82-0.369,0.82-0.82V33.5c0-0.451-0.369-0.82-0.82-0.82H29.447
				c-0.451,0-0.82,0.369-0.82,0.82v2.917C28.627,36.868,28.996,37.237,29.447,37.237z"/>
			<path d="M71.87,39.768H28.725c-0.054,0-0.098,0.044-0.098,0.098v2.199c0,0.054,0.044,0.098,0.098,0.098H71.87
				c0.054,0,0.098-0.044,0.098-0.098v-2.199C71.968,39.812,71.924,39.768,71.87,39.768z"/>
			<path d="M71.87,43.596H28.725c-0.054,0-0.098,0.044-0.098,0.098v2.199c0,0.054,0.044,0.098,0.098,0.098H71.87
				c0.054,0,0.098-0.044,0.098-0.098v-2.199C71.968,43.641,71.924,43.596,71.87,43.596z"/>
			<path d="M71.87,47.425H28.725c-0.054,0-0.098,0.044-0.098,0.098v2.199c0,0.054,0.044,0.098,0.098,0.098H71.87
				c0.054,0,0.098-0.044,0.098-0.098v-2.199C71.968,47.469,71.924,47.425,71.87,47.425z"/>
		</g>
		<g>
			<path class="st1" d="M29.447,68.78h16.466c0.451,0,0.82-0.369,0.82-0.82v-2.917c0-0.451-0.369-0.82-0.82-0.82H29.447
				c-0.451,0-0.82,0.369-0.82,0.82v2.917C28.627,68.412,28.996,68.78,29.447,68.78z"/>
			<path class="st1" d="M60.672,71.311H28.725c-0.054,0-0.098,0.044-0.098,0.098v2.199c0,0.054,0.044,0.098,0.098,0.098h31.947
				c0.054,0,0.098-0.044,0.098-0.098v-2.199C60.77,71.355,60.726,71.311,60.672,71.311z"/>
			<path class="st1" d="M60.672,75.14H28.725c-0.054,0-0.098,0.044-0.098,0.098v2.199c0,0.054,0.044,0.098,0.098,0.098h31.947
				c0.054,0,0.098-0.044,0.098-0.098v-2.199C60.77,75.184,60.726,75.14,60.672,75.14z"/>
			<path class="st1" d="M60.672,78.968H28.725c-0.054,0-0.098,0.044-0.098,0.098v2.199c0,0.054,0.044,0.098,0.098,0.098h31.947
				c0.054,0,0.098-0.044,0.098-0.098v-2.198C60.77,79.013,60.726,78.968,60.672,78.968z"/>
		</g>
		<g id="lumio_00000008870668445680714430000006793165706683865014_">
			<g>
				<path class="st2" d="M110.57,41.063c0.23,0,0.423,0.073,0.577,0.219c0.155,0.146,0.232,0.334,0.232,0.564
					c0,0.221-0.078,0.405-0.232,0.551c-0.155,0.146-0.348,0.219-0.577,0.219h-4.315c-0.23,0-0.423-0.077-0.578-0.232
					s-0.232-0.347-0.232-0.578v-7.673c0-0.23,0.08-0.423,0.239-0.578s0.363-0.232,0.611-0.232c0.212,0,0.4,0.078,0.564,0.232
					c0.164,0.155,0.246,0.348,0.246,0.578v7.156l-0.292-0.226C106.813,41.063,110.57,41.063,110.57,41.063z"/>
				<path class="st2" d="M118.044,35.513c0.23,0,0.42,0.078,0.571,0.232c0.151,0.155,0.226,0.348,0.226,0.577v3.372
					c0,0.938-0.261,1.682-0.783,2.23c-0.522,0.549-1.274,0.823-2.257,0.823s-1.732-0.274-2.25-0.823s-0.777-1.292-0.777-2.23v-3.372
					c0-0.23,0.075-0.423,0.226-0.577s0.341-0.232,0.571-0.232s0.42,0.078,0.571,0.232c0.151,0.155,0.226,0.348,0.226,0.577v3.372
					c0,0.54,0.119,0.941,0.358,1.201c0.239,0.261,0.597,0.391,1.075,0.391c0.487,0,0.849-0.13,1.088-0.391
					c0.239-0.261,0.358-0.661,0.358-1.201v-3.372c0-0.23,0.075-0.423,0.226-0.577C117.623,35.591,117.814,35.513,118.044,35.513z"/>
				<path class="st2" d="M124.296,35.381c0.708,0,1.23,0.171,1.567,0.511c0.336,0.341,0.558,0.781,0.664,1.321l-0.226-0.119
					l0.106-0.212c0.106-0.204,0.27-0.423,0.491-0.657s0.489-0.433,0.803-0.597c0.314-0.164,0.666-0.246,1.055-0.246
					c0.637,0,1.122,0.137,1.454,0.412c0.332,0.274,0.559,0.639,0.684,1.095c0.124,0.456,0.186,0.962,0.186,1.52v3.399
					c0,0.23-0.075,0.423-0.226,0.578s-0.341,0.232-0.571,0.232s-0.42-0.077-0.571-0.232s-0.226-0.347-0.226-0.578v-3.401
					c0-0.292-0.036-0.555-0.106-0.79c-0.071-0.235-0.199-0.423-0.385-0.564c-0.186-0.141-0.451-0.212-0.797-0.212
					c-0.336,0-0.624,0.071-0.863,0.212c-0.239,0.142-0.418,0.33-0.538,0.564c-0.119,0.235-0.179,0.498-0.179,0.79v3.399
					c0,0.23-0.075,0.423-0.226,0.578s-0.341,0.232-0.571,0.232s-0.42-0.077-0.571-0.232s-0.226-0.347-0.226-0.578v-3.399
					c0-0.292-0.035-0.555-0.106-0.79s-0.199-0.423-0.385-0.564c-0.186-0.141-0.451-0.212-0.796-0.212
					c-0.336,0-0.624,0.071-0.863,0.212c-0.239,0.142-0.418,0.33-0.538,0.564c-0.119,0.235-0.179,0.498-0.179,0.79v3.399
					c0,0.23-0.075,0.423-0.226,0.578s-0.341,0.232-0.571,0.232s-0.42-0.077-0.571-0.232s-0.226-0.347-0.226-0.578v-5.483
					c0-0.23,0.075-0.423,0.226-0.577s0.341-0.232,0.571-0.232s0.42,0.078,0.571,0.232c0.151,0.155,0.226,0.348,0.226,0.577v0.571
					l-0.199-0.04c0.08-0.151,0.19-0.312,0.332-0.484c0.141-0.172,0.314-0.334,0.518-0.484c0.203-0.151,0.429-0.272,0.677-0.365
					C123.734,35.427,124.004,35.381,124.296,35.381z"/>
				<path class="st2" d="M134.306,41.806c0,0.23-0.075,0.423-0.226,0.578s-0.341,0.232-0.571,0.232s-0.42-0.077-0.571-0.232
					s-0.226-0.347-0.226-0.578v-5.483c0-0.23,0.075-0.423,0.226-0.577s0.341-0.232,0.571-0.232s0.42,0.078,0.571,0.232
					c0.151,0.155,0.226,0.348,0.226,0.577V41.806z"/>
				<path class="st2" d="M142.763,39.071c0,0.726-0.162,1.365-0.485,1.918c-0.323,0.553-0.757,0.985-1.301,1.294
					c-0.544,0.31-1.153,0.465-1.825,0.465s-1.281-0.155-1.825-0.465c-0.544-0.31-0.978-0.741-1.301-1.294
					c-0.323-0.553-0.484-1.193-0.484-1.918c0-0.726,0.161-1.365,0.484-1.918c0.323-0.553,0.757-0.987,1.301-1.301
					c0.544-0.314,1.153-0.471,1.825-0.471c0.673,0,1.281,0.157,1.825,0.471c0.544,0.314,0.978,0.748,1.301,1.301
					S142.763,38.346,142.763,39.071z M141.17,39.071c0-0.451-0.091-0.843-0.272-1.175s-0.425-0.591-0.73-0.777
					s-0.644-0.279-1.016-0.279s-0.71,0.093-1.016,0.279s-0.549,0.445-0.73,0.777s-0.272,0.723-0.272,1.175
					c0,0.443,0.091,0.83,0.272,1.162c0.181,0.332,0.425,0.591,0.73,0.777s0.644,0.279,1.016,0.279s0.71-0.093,1.016-0.279
					s0.549-0.445,0.73-0.777S141.17,39.514,141.17,39.071z"/>
			</g>
			<g>
				<path class="st2" d="M128.474,46.672c0,0.5-0.358,0.83-0.783,0.83c-0.213,0-0.442-0.098-0.547-0.277v0.236h-0.331v-2.433h0.331
					v1.09c0.104-0.179,0.324-0.273,0.547-0.273C128.12,45.845,128.474,46.169,128.474,46.672z M128.14,46.668
					c0-0.297-0.216-0.513-0.489-0.513c-0.243,0-0.503,0.196-0.503,0.513s0.24,0.523,0.503,0.523
					C127.924,47.191,128.14,46.962,128.14,46.668z"/>
				<path class="st2" d="M129.888,45.885h0.358l-0.979,2.342h-0.351l0.341-0.837l-0.631-1.505h0.358l0.452,1.097L129.888,45.885z"/>
				<path class="st2" d="M131.282,46.793h0.344c0.007,0.199,0.192,0.391,0.483,0.391c0.277,0,0.439-0.175,0.439-0.368
					c0-0.206-0.186-0.304-0.375-0.354l-0.297-0.074c-0.496-0.125-0.577-0.419-0.577-0.611c0-0.409,0.361-0.682,0.773-0.682
					c0.419,0,0.746,0.263,0.746,0.688h-0.344c0-0.219-0.172-0.371-0.412-0.371c-0.219,0-0.415,0.145-0.415,0.358
					c0,0.074,0.024,0.226,0.317,0.304l0.294,0.081c0.391,0.104,0.638,0.304,0.638,0.645c0,0.388-0.317,0.702-0.786,0.702
					C131.613,47.502,131.282,47.168,131.282,46.793z"/>
				<path class="st2" d="M136.014,47.461h-0.344l-0.206-1.688l-0.692,1.431h-0.297l-0.699-1.431l-0.206,1.688h-0.344l0.284-2.325
					h0.31l0.8,1.674l0.8-1.674h0.31L136.014,47.461z"/>
				<path class="st2" d="M137.965,47.461l-0.216-0.587h-0.969l-0.216,0.587h-0.365l0.881-2.325h0.371l0.878,2.325H137.965z
					 M136.891,46.57h0.746l-0.371-1.013L136.891,46.57z"/>
				<path class="st2" d="M139.851,47.461l-0.597-0.867h-0.263v0.867h-0.348v-2.325h0.888c0.51,0,0.716,0.368,0.716,0.736
					c0,0.334-0.203,0.685-0.591,0.722l0.611,0.867H139.851z M138.991,45.453v0.837h0.456c0.32,0,0.452-0.172,0.452-0.419
					c0-0.243-0.145-0.419-0.371-0.419L138.991,45.453L138.991,45.453z"/>
				<path class="st2" d="M142.187,45.136v0.317h-0.692v2.008h-0.348v-2.008h-0.692v-0.317H142.187z"/>
			</g>
			<g>
				<path class="st2" d="M143.643,35.659c-0.019,0-0.035-0.006-0.048-0.018s-0.02-0.028-0.02-0.046c0-0.019,0.007-0.034,0.02-0.046
					s0.029-0.017,0.048-0.017h0.773c0.019,0,0.035,0.006,0.048,0.018s0.02,0.028,0.02,0.046c0,0.019-0.007,0.034-0.02,0.046
					s-0.029,0.017-0.048,0.017H143.643z M144.029,36.695c-0.021,0-0.038-0.007-0.051-0.02s-0.019-0.029-0.019-0.048v-1.026h0.141
					v1.026c0,0.019-0.007,0.035-0.02,0.048S144.05,36.695,144.029,36.695z"/>
				<path class="st2" d="M144.752,35.529c0.01,0,0.021,0.003,0.032,0.008c0.012,0.006,0.021,0.013,0.028,0.023l0.441,0.665
					l-0.06-0.001l0.446-0.664c0.016-0.021,0.034-0.032,0.057-0.032c0.018,0.001,0.033,0.008,0.048,0.021
					c0.014,0.013,0.021,0.029,0.021,0.047v1.029c0,0.019-0.007,0.035-0.02,0.048s-0.03,0.02-0.05,0.02
					c-0.021,0-0.038-0.007-0.051-0.02s-0.019-0.029-0.019-0.048v-0.901l0.042,0.007l-0.393,0.597
					c-0.007,0.009-0.015,0.016-0.024,0.022s-0.02,0.008-0.031,0.007c-0.01,0.001-0.02-0.001-0.03-0.007s-0.018-0.013-0.023-0.022
					l-0.387-0.595l0.035-0.045v0.938c0,0.019-0.006,0.035-0.018,0.048s-0.028,0.02-0.046,0.02c-0.019,0-0.034-0.007-0.046-0.02
					c-0.012-0.013-0.018-0.029-0.018-0.048v-1.029c0-0.018,0.007-0.033,0.02-0.047C144.716,35.536,144.732,35.529,144.752,35.529z"
					/>
			</g>
		</g>
		<g id="bug_00000026141203265868437870000011140799472618761865_">
			
				<radialGradient id="SVGID_1_" cx="133.4534" cy="-103.1515" r="2.341" gradientTransform="matrix(1 0 0 -1 0 -71)" gradientUnits="userSpaceOnUse">
				<stop  offset="0" style="stop-color:#F9CC70"/>
				<stop  offset="0.8552" style="stop-color:#F9CC70;stop-opacity:0.1448"/>
				<stop  offset="1" style="stop-color:#F9CC70;stop-opacity:0"/>
			</radialGradient>
			<circle class="st3" cx="133.453" cy="32.152" r="2.341"/>
			<path class="st2" d="M133.742,29.963c0.224-0.146,0.439-0.33,0.644-0.553c0.655-0.712,0.559-1.28,0.443-1.554
				c-0.207-0.49-0.768-0.807-1.465-0.827c-0.552-0.016-1.221,0.163-1.846,0.629c-0.313-0.169-0.667-0.254-1.034-0.241
				c-0.161,0.006-0.319,0.03-0.471,0.071c-0.066-0.102-0.178-0.312-0.145-0.515c0.023-0.135,0.109-0.247,0.264-0.345
				c0.097-0.061,0.126-0.189,0.065-0.286s-0.189-0.126-0.286-0.065c-0.258,0.163-0.41,0.375-0.452,0.63
				c-0.048,0.29,0.066,0.563,0.162,0.732c-0.204,0.105-0.39,0.245-0.551,0.417c-0.129,0.138-0.237,0.292-0.321,0.457
				c-0.176-0.079-0.437-0.157-0.703-0.094c-0.252,0.059-0.454,0.225-0.599,0.493c-0.054,0.101-0.017,0.227,0.084,0.281
				c0.031,0.017,0.065,0.025,0.099,0.025c0.074,0,0.145-0.039,0.183-0.109c0.087-0.161,0.194-0.255,0.326-0.286
				c0.165-0.039,0.342,0.021,0.459,0.076c-0.054,0.196-0.078,0.401-0.071,0.611c0.013,0.367,0.121,0.716,0.312,1.017
				c-0.419,0.653-0.551,1.33-0.497,1.877c0.067,0.694,0.421,1.233,0.924,1.406c0.089,0.031,0.207,0.058,0.349,0.058
				c0.305,0,0.717-0.125,1.172-0.605c0.2-0.211,0.364-0.429,0.492-0.652c0.706,0.387,1.576,0.736,2.249,0.736
				c0.332,0,0.615-0.085,0.809-0.291c0.461-0.493,0.189-1.454-0.12-2.174C134.08,30.573,133.916,30.256,133.742,29.963z
				 M133.352,27.444c0.525,0.015,0.955,0.24,1.095,0.573c0.133,0.316,0.003,0.711-0.366,1.112c-0.18,0.195-0.367,0.356-0.56,0.483
				c-0.197-0.294-0.398-0.543-0.577-0.711l-1.006-0.94c-0.019-0.018-0.039-0.035-0.059-0.052
				C132.384,27.565,132.91,27.432,133.352,27.444z M131.088,32.033c-0.253-0.158-0.473-0.32-0.633-0.469l-1.006-0.94
				c-0.035-0.033-0.068-0.067-0.1-0.102c0.255-0.328,0.599-0.646,1.051-0.927c0.232,0.248,0.766,0.903,0.798,1.714
				C131.209,31.555,131.172,31.796,131.088,32.033z M131.544,28.171c0.038,0.029,0.074,0.061,0.11,0.094l1.006,0.94
				c0.137,0.128,0.31,0.339,0.491,0.604c-0.223,0.092-0.453,0.143-0.69,0.149c-0.813,0.025-1.501-0.465-1.764-0.68
				C130.946,28.81,131.237,28.446,131.544,28.171z M128.94,29.499c-0.007-0.212,0.026-0.418,0.096-0.61
				c0.001-0.002,0.001-0.005,0.003-0.007c0.073-0.198,0.185-0.381,0.333-0.54c0.293-0.314,0.693-0.494,1.125-0.509
				c0.019-0.001,0.038-0.001,0.057-0.001c0.215,0,0.423,0.042,0.617,0.122c-0.327,0.315-0.633,0.72-0.891,1.23
				c-0.496,0.294-0.881,0.629-1.173,0.979C129.006,29.959,128.948,29.734,128.94,29.499z M130.483,32.98
				c-0.375,0.396-0.76,0.552-1.084,0.441c-0.342-0.117-0.596-0.531-0.646-1.054c-0.042-0.435,0.054-0.966,0.359-1.493
				c0.018,0.018,0.035,0.036,0.054,0.053l1.006,0.94c0.158,0.148,0.422,0.341,0.745,0.538
				C130.805,32.601,130.661,32.793,130.483,32.98z M134.03,32.775c-0.374,0.4-1.607,0-2.578-0.529
				c0.12-0.31,0.175-0.629,0.161-0.957c-0.018-0.442-0.157-0.839-0.328-1.165c0.321,0.141,0.703,0.249,1.12,0.249
				c0.021,0,0.043,0,0.064-0.001c0.315-0.008,0.618-0.079,0.908-0.209c0.161,0.268,0.319,0.57,0.454,0.885
				C134.19,31.88,134.264,32.525,134.03,32.775z"/>
		</g>
	</g>
	<polygon class="st4" points="11.671,95.286 137.028,16.217 11.671,16.217 	"/>
	<g>
		<path class="st5" d="M166.634,104.629v-0.462H8.407v0.377c-0.029,0.02-0.05,0.048-0.05,0.086v2.02v0.775v0.375
			c0,0,5.357,0.339,10.297,0.339c3.997,0,4.638,4.148,8.032,4.148s20.203-0.054,20.203-0.054h81.475c0,0,16.809,0.054,20.203,0.054
			s4.035-4.148,8.032-4.148c4.94,0,10.063-0.339,10.063-0.339v-1.15c0-0.015-0.017-0.017-0.027-0.027v-0.402v-1.592L166.634,104.629
			L166.634,104.629z"/>
	</g>
	<path class="st6" d="M10.15,15.048v89.697h154.74V15.048H10.15z M163.014,101.189H12.027V16.268h150.987V101.189z"/>
	<path class="st7" d="M166.514,107.072H8.476c-0.066,0-0.12-0.054-0.12-0.12v-2.777c0-0.066,0.054-0.12,0.12-0.12h158.038
		c0.066,0,0.12,0.054,0.12,0.12v2.777C166.634,107.018,166.58,107.072,166.514,107.072z"/>
	<path class="st8" d="M166.607,106.131h-25.274H33.919H8.411c-0.03,0-0.054,0.025-0.054,0.054v1.15c0,0,5.357,0.339,10.297,0.339
		c3.997,0,4.638,4.148,8.032,4.148s20.203-0.054,20.203-0.054h81.475c0,0,16.809,0.054,20.203,0.054s4.035-4.148,8.032-4.148
		c4.94,0,10.063-0.339,10.063-0.339v-1.15C166.661,106.156,166.637,106.131,166.607,106.131z"/>
	<g>
		<path class="st7" d="M62.469,109.177L62.469,109.177c0-0.639,0.523-1.162,1.162-1.162h12.996c0.639,0,1.162,0.523,1.162,1.162l0,0
			c0,0.639-0.523,1.162-1.162,1.162H63.631C62.991,110.339,62.468,109.816,62.469,109.177z"/>
		<path class="st9" d="M63.194,109.178c0,0.108,0.712,0.294,0.943,0.294l1.542,0.403l0,0h4.94h4.751h0.754h0.437
			c0.278,0,0.503-0.313,0.503-0.698c0-0.386-0.225-0.698-0.503-0.698h-0.437H75.37h-4.751h-4.94c0.008,0,0.016,0.012,0.023,0.03
			c-0.007-0.018-0.015-0.03-0.023-0.03l-1.542,0.403l0,0C63.906,108.882,63.194,109.067,63.194,109.178z"/>
		<g>
			<path class="st10" d="M65.679,109.706c0.047,0,0.085-0.312,0.085-0.698s-0.038-0.698-0.085-0.698l-1.542,0.403
				c0.02,0,0.036,0.131,0.036,0.294c0,0.162-0.016,0.294-0.036,0.294L65.679,109.706z"/>
			<g>
				<path class="st11" d="M63.194,109.006c0,0.108,0.712,0.294,0.943,0.294c0.02,0,0.036-0.132,0.036-0.294
					s-0.016-0.294-0.036-0.294C63.906,108.712,63.194,108.898,63.194,109.006z"/>
				<path class="st11" d="M65.763,109.007c0,0.386-0.038,0.698-0.085,0.698h4.94c0.047,0,0.085-0.313,0.085-0.698
					c0-0.386-0.038-0.698-0.085-0.698h-4.94C65.725,108.309,65.763,108.621,65.763,109.007z"/>
			</g>
			<path class="st12" d="M70.618,109.705h4.751c0.047,0,0.085-0.313,0.085-0.698c0-0.386-0.038-0.698-0.085-0.698h-4.751
				c0.047,0,0.085,0.313,0.085,0.698S70.665,109.704,70.618,109.705z"/>
			<path class="st10" d="M75.369,109.705h0.754c0.047,0,0.085-0.313,0.085-0.698c0-0.386-0.038-0.698-0.085-0.698h-0.754
				c0.047,0,0.085,0.313,0.085,0.698S75.416,109.704,75.369,109.705z"/>
			<path class="st13" d="M76.123,109.705h0.437c0.278,0,0.503-0.313,0.503-0.698c0-0.386-0.225-0.698-0.503-0.698h-0.437
				c0.047,0,0.085,0.313,0.085,0.698S76.17,109.704,76.123,109.705z"/>
		</g>
	</g>
	<g>
		<path class="st7" d="M81.962,109.177L81.962,109.177c0-0.639,0.387-1.162,0.859-1.162h9.61c0.472,0,0.859,0.523,0.859,1.162l0,0
			c0,0.639-0.387,1.162-0.859,1.162h-9.61C82.348,110.339,81.961,109.816,81.962,109.177z"/>
		<path class="st8" d="M84.96,109.177L84.96,109.177c0-0.225,0.182-0.41,0.404-0.41h4.523c0.222,0,0.404,0.185,0.404,0.41l0,0
			c0,0.225-0.182,0.41-0.404,0.41h-4.523C85.142,109.587,84.959,109.402,84.96,109.177z"/>
	</g>
	<g>
		<path class="st7" d="M44.469,109.177L44.469,109.177c0-0.639,0.523-1.162,1.162-1.162h12.996c0.639,0,1.162,0.523,1.162,1.162l0,0
			c0,0.639-0.523,1.162-1.162,1.162H45.631C44.992,110.339,44.469,109.816,44.469,109.177z"/>
		<path class="st9" d="M45.194,109.178c0,0.108,0.712,0.294,0.943,0.294l1.542,0.403l0,0h4.94h4.751h0.754h0.437
			c0.278,0,0.503-0.313,0.503-0.698c0-0.386-0.225-0.698-0.503-0.698h-0.437H57.37h-4.751h-4.94c0.008,0,0.016,0.012,0.023,0.03
			c-0.007-0.018-0.015-0.03-0.023-0.03l-1.542,0.403l0,0C45.906,108.882,45.194,109.067,45.194,109.178z"/>
		<g>
			<path class="st10" d="M47.679,109.706c0.047,0,0.085-0.312,0.085-0.698s-0.038-0.698-0.085-0.698l-1.542,0.403
				c0.02,0,0.036,0.131,0.036,0.294c0,0.162-0.016,0.294-0.036,0.294L47.679,109.706z"/>
			<g>
				<path class="st14" d="M45.194,109.006c0,0.108,0.712,0.294,0.943,0.294c0.02,0,0.036-0.132,0.036-0.294
					s-0.016-0.294-0.036-0.294C45.906,108.712,45.194,108.898,45.194,109.006z"/>
				<path class="st14" d="M47.763,109.007c0,0.386-0.038,0.698-0.085,0.698h4.94c0.047,0,0.085-0.313,0.085-0.698
					c0-0.386-0.038-0.698-0.085-0.698h-4.94C47.725,108.309,47.763,108.621,47.763,109.007z"/>
			</g>
			<path class="st12" d="M52.618,109.705h4.751c0.047,0,0.085-0.313,0.085-0.698c0-0.386-0.038-0.698-0.085-0.698h-4.751
				c0.047,0,0.085,0.313,0.085,0.698S52.665,109.704,52.618,109.705z"/>
			<path class="st10" d="M57.369,109.705h0.754c0.047,0,0.085-0.313,0.085-0.698c0-0.386-0.038-0.698-0.085-0.698h-0.754
				c0.047,0,0.085,0.313,0.085,0.698S57.416,109.704,57.369,109.705z"/>
			<path class="st13" d="M58.124,109.705h0.437c0.278,0,0.503-0.313,0.503-0.698c0-0.386-0.225-0.698-0.503-0.698h-0.437
				c0.047,0,0.085,0.313,0.085,0.698S58.171,109.704,58.124,109.705z"/>
		</g>
	</g>
	<path class="st7" d="M116.625,108.014h12.996c0.639,0,1.162,0.523,1.162,1.162l0,0c0,0.639-0.523,1.162-1.162,1.162h-12.996
		c-0.639,0-1.162-0.523-1.162-1.162l0,0C115.463,108.537,115.986,108.014,116.625,108.014z"/>
	<path class="st9" d="M117.131,109.623L117.131,109.623l1.542,0.403c0.008,0,0.016-0.012,0.023-0.03
		c-0.007,0.018-0.015,0.03-0.023,0.03h4.94h4.751h0.754h0.437c0.278,0,0.503-0.312,0.503-0.698c0-0.385-0.225-0.698-0.503-0.698
		h-0.437h-0.754h-4.751h-4.94l0,0l-1.542,0.403c-0.231,0-0.943,0.186-0.943,0.294C116.188,109.437,116.9,109.623,117.131,109.623z"
		/>
	<g>
		<path class="st10" d="M117.131,108.882c0.02,0,0.036,0.132,0.036,0.294c0,0.163-0.016,0.294-0.036,0.294l1.542,0.403
			c0.047,0,0.085-0.312,0.085-0.698s-0.038-0.698-0.085-0.698L117.131,108.882z"/>
		<g>
			<path class="st11" d="M117.131,109.471c0.02,0,0.036-0.132,0.036-0.294s-0.016-0.294-0.036-0.294
				c-0.231,0-0.943,0.186-0.943,0.294S116.9,109.471,117.131,109.471z"/>
			<path class="st11" d="M118.673,109.874h4.94c0.047,0,0.085-0.312,0.085-0.698c0-0.385-0.038-0.698-0.085-0.698h-4.94
				c0.047,0,0.085,0.312,0.085,0.698C118.758,109.562,118.72,109.874,118.673,109.874z"/>
		</g>
		<path class="st12" d="M123.697,109.176c0,0.385-0.038,0.698-0.085,0.698h4.751c0.047,0,0.085-0.312,0.085-0.698
			c0-0.385-0.038-0.698-0.085-0.698h-4.751C123.659,108.479,123.697,108.791,123.697,109.176z"/>
		<path class="st10" d="M128.449,109.176c0,0.385-0.038,0.698-0.085,0.698h0.754c0.047,0,0.085-0.312,0.085-0.698
			c0-0.385-0.038-0.698-0.085-0.698h-0.754C128.411,108.479,128.449,108.791,128.449,109.176z"/>
		<path class="st13" d="M129.203,109.176c0,0.385-0.038,0.698-0.085,0.698h0.437c0.278,0,0.503-0.312,0.503-0.698
			c0-0.385-0.225-0.698-0.503-0.698h-0.437C129.165,108.479,129.203,108.791,129.203,109.176z"/>
	</g>
	<path class="st7" d="M98.625,108.014h12.996c0.639,0,1.162,0.523,1.162,1.162l0,0c0,0.639-0.523,1.162-1.162,1.162H98.625
		c-0.639,0-1.162-0.523-1.162-1.162l0,0C97.463,108.537,97.986,108.014,98.625,108.014z"/>
	<path class="st9" d="M99.131,109.623L99.131,109.623l1.542,0.403c0.008,0,0.016-0.012,0.023-0.03
		c-0.007,0.018-0.015,0.03-0.023,0.03h4.94h4.751h0.754h0.437c0.278,0,0.503-0.312,0.503-0.698c0-0.385-0.225-0.698-0.503-0.698
		h-0.437h-0.754h-4.751h-4.94l0,0l-1.542,0.403c-0.231,0-0.943,0.186-0.943,0.294C98.189,109.437,98.901,109.623,99.131,109.623z"/>
	<g>
		<path class="st10" d="M99.131,108.882c0.02,0,0.036,0.132,0.036,0.294c0,0.163-0.016,0.294-0.036,0.294l1.542,0.403
			c0.047,0,0.085-0.312,0.085-0.698s-0.038-0.698-0.085-0.698L99.131,108.882z"/>
		<g>
			<path class="st15" d="M99.131,109.471c0.02,0,0.036-0.132,0.036-0.294s-0.016-0.294-0.036-0.294
				c-0.231,0-0.943,0.186-0.943,0.294C98.189,109.285,98.901,109.471,99.131,109.471z"/>
			<path class="st15" d="M100.673,109.874h4.94c0.047,0,0.085-0.312,0.085-0.698c0-0.385-0.038-0.698-0.085-0.698h-4.94
				c0.047,0,0.085,0.312,0.085,0.698C100.758,109.562,100.72,109.874,100.673,109.874z"/>
		</g>
		<path class="st12" d="M105.698,109.176c0,0.385-0.038,0.698-0.085,0.698h4.751c0.047,0,0.085-0.312,0.085-0.698
			c0-0.385-0.038-0.698-0.085-0.698h-4.751C105.66,108.479,105.698,108.791,105.698,109.176z"/>
		<path class="st10" d="M110.449,109.176c0,0.385-0.038,0.698-0.085,0.698h0.754c0.047,0,0.085-0.312,0.085-0.698
			c0-0.385-0.038-0.698-0.085-0.698h-0.754C110.411,108.479,110.449,108.791,110.449,109.176z"/>
		<path class="st13" d="M111.203,109.176c0,0.385-0.038,0.698-0.085,0.698h0.437c0.278,0,0.503-0.312,0.503-0.698
			c0-0.385-0.225-0.698-0.503-0.698h-0.437C111.165,108.479,111.203,108.791,111.203,109.176z"/>
	</g>
	<g>
		<path class="st9" d="M40.919,106.159H27.527c-0.031,0-0.056,0.169-0.056,0.375l0.093,4.352c0,0.206,0.025,0.375,0.056,0.375
			h13.207c0.031,0,0.056-0.169,0.056-0.375l0.092-4.352C40.975,106.327,40.95,106.159,40.919,106.159z"/>
		<path class="st8" d="M40.855,110.339H27.593c-0.066,0-0.12-0.054-0.12-0.12v-3.94c0-0.066,0.054-0.12,0.12-0.12h13.262
			c0.066,0,0.12,0.054,0.12,0.12v3.94C40.975,110.285,40.921,110.339,40.855,110.339z"/>
		<path class="st16" d="M40.92,110.339H27.527c-0.03,0-0.054,0.024-0.054,0.054l0.223,0.632c0,0.03,0.024,0.054,0.054,0.054h12.947
			c0.03,0,0.054-0.024,0.054-0.054l0.223-0.632C40.975,110.363,40.95,110.339,40.92,110.339z"/>
		<path class="st17" d="M40.577,109.977H27.87c-0.066,0-0.12-0.054-0.12-0.12v-3.254c0-0.066,0.054-0.12,0.12-0.12h12.707
			c0.066,0,0.12,0.054,0.12,0.12v3.254C40.697,109.923,40.643,109.977,40.577,109.977z"/>
	</g>
	<g>
		<path class="st9" d="M147.345,106.159h-13.392c-0.031,0-0.056,0.169-0.056,0.375l0.093,4.352c0,0.206,0.025,0.375,0.056,0.375
			h13.207c0.031,0,0.056-0.169,0.056-0.375l0.092-4.352C147.401,106.327,147.376,106.159,147.345,106.159z"/>
		<path class="st8" d="M147.281,110.339h-13.262c-0.066,0-0.12-0.054-0.12-0.12v-3.94c0-0.066,0.054-0.12,0.12-0.12h13.262
			c0.066,0,0.12,0.054,0.12,0.12v3.94C147.401,110.285,147.347,110.339,147.281,110.339z"/>
		<path class="st16" d="M147.346,110.339h-13.393c-0.03,0-0.054,0.024-0.054,0.054l0.223,0.632c0,0.03,0.024,0.054,0.054,0.054
			h12.947c0.03,0,0.054-0.024,0.054-0.054l0.223-0.632C147.401,110.363,147.376,110.339,147.346,110.339z"/>
		<path class="st17" d="M147.003,109.977h-12.707c-0.066,0-0.12-0.054-0.12-0.12v-3.254c0-0.066,0.054-0.12,0.12-0.12h12.707
			c0.066,0,0.12,0.054,0.12,0.12v3.254C147.123,109.923,147.069,109.977,147.003,109.977z"/>
	</g>
	<g>
		<path class="st8" d="M166.514,15.048H8.476c-0.066,0-0.12-0.054-0.12-0.12v-3.161c0-0.066,0.054-0.12,0.12-0.12h158.038
			c0.066,0,0.12,0.054,0.12,0.12v3.161C166.634,14.994,166.58,15.048,166.514,15.048z"/>
		<path class="st18" d="M13.827,13.155h-0.12c-0.198,0-0.36-0.162-0.36-0.36l0,0c0-0.198,0.162-0.36,0.36-0.36h0.12
			c0.198,0,0.36,0.162,0.36,0.36l0,0C14.188,12.993,14.026,13.155,13.827,13.155z"/>
		<path class="st18" d="M14.899,13.155h-0.12c-0.198,0-0.36-0.162-0.36-0.36l0,0c0-0.198,0.162-0.36,0.36-0.36h0.12
			c0.198,0,0.36,0.162,0.36,0.36l0,0C15.26,12.993,15.098,13.155,14.899,13.155z"/>
	</g>
	<g>
		<path class="st5" d="M8.402,14.037v65.985c0,0-1.408,0.704-1.408,2.263c0,1.558,0,13.123,0,16.441
			c0,1.106,1.408,2.061,1.408,2.061v4.969h158.227V14.037H8.402z M10.321,15.285h154.39v86.835H10.321V15.285z"/>
		<g>
			<path class="st19" d="M8.421,83.117c0-0.463-0.195-0.839-0.434-0.839c-0.24,0-0.434,0.376-0.434,0.839s0.194,0.839,0.434,0.839
				C8.227,83.956,8.421,83.58,8.421,83.117z"/>
			<path class="st19" d="M7.553,85.62c0,0.463,0.194,0.839,0.434,0.839c0.24,0,0.434-0.376,0.434-0.839s-0.195-0.839-0.434-0.839
				C7.748,84.781,7.553,85.157,7.553,85.62z"/>
			<path class="st19" d="M7.553,88.124c0,0.463,0.194,0.839,0.434,0.839c0.24,0,0.434-0.376,0.434-0.839s-0.195-0.839-0.434-0.839
				C7.748,87.285,7.553,87.661,7.553,88.124z"/>
			<path class="st19" d="M7.553,90.628c0,0.463,0.194,0.839,0.434,0.839c0.24,0,0.434-0.376,0.434-0.839s-0.195-0.839-0.434-0.839
				C7.748,89.789,7.553,90.164,7.553,90.628z"/>
			<polygon class="st19" points="8.188,93.264 7.792,93.113 7.792,94.508 8.188,94.345 			"/>
			<polygon class="st19" points="8.188,96.017 7.792,95.866 7.792,97.261 8.188,97.098 			"/>
		</g>
	</g>
</g>
</svg>
