<?xml version="1.0" encoding="utf-8"?>
<!-- Generator: Adobe Illustrator 26.0.1, SVG Export Plug-In . SVG Version: 6.00 Build 0)  -->
<svg version="1.1" id="Layer_1" xmlns="http://www.w3.org/2000/svg" xmlns:xlink="http://www.w3.org/1999/xlink" x="0px" y="0px"
	 viewBox="0 0 240 300" style="enable-background:new 0 0 240 300;" xml:space="preserve">
<style type="text/css">
	.st0{fill:#FFFFFF;}
	.st1{fill:#C0C0C0;}
	.st2{fill:#231F20;}
	.st3{fill:url(#SVGID_1_);}
	.st4{opacity:0.49;fill:#F0FFFF;}
	.st5{fill:#050001;}
	.st6{fill:#3D393A;}
	.st7{fill:#B3B5B7;}
	.st8{fill:#DADBDC;}
	.st9{fill:#111114;}
	.st10{fill:#C6C3C3;}
	.st11{fill:#007CCA;}
	.st12{fill:#E0E1E2;}
	.st13{fill:#4D4D4F;}
	.st14{fill:#009B32;}
	.st15{fill:#D8000B;}
	.st16{fill:#AFB1B3;}
	.st17{fill:#BCAFAD;}
	.st18{fill:#393839;}
	.st19{fill:#929090;}
</style>
<g>
	<path class="st0" d="M42.311,13.423v91.719h158.227V13.423H42.311z"/>
	<g>
		<path d="M174.557,83.185l-13.275-23.958c-0.005-0.009-0.013-0.015-0.018-0.023c-0.012-0.018-0.025-0.034-0.039-0.049
			c-0.014-0.015-0.029-0.029-0.045-0.042c-0.016-0.012-0.032-0.022-0.05-0.032c-0.019-0.011-0.039-0.019-0.059-0.026
			c-0.009-0.003-0.016-0.009-0.026-0.012c-0.01-0.003-0.021-0.001-0.031-0.003c-0.021-0.004-0.042-0.006-0.063-0.006
			c-0.022,0-0.042,0.002-0.063,0.006c-0.011,0.002-0.021,0-0.032,0.003c-0.01,0.002-0.017,0.009-0.026,0.012
			c-0.02,0.007-0.039,0.016-0.058,0.026c-0.018,0.01-0.035,0.02-0.051,0.033c-0.016,0.012-0.03,0.026-0.044,0.041
			c-0.015,0.016-0.028,0.032-0.04,0.05c-0.005,0.008-0.013,0.014-0.018,0.023l-6.955,12.552V56.201c0-1.962-4.566-3.02-8.862-3.02
			c-4.296,0-8.862,1.059-8.862,3.02v16.866c-1.015,0.007-1.997,0.157-2.927,0.428v-8.078c0-0.001,0-0.001,0-0.002
			c0-0.001,0-0.001,0-0.002c-0.001-0.052-0.014-0.101-0.034-0.146c-0.006-0.013-0.014-0.024-0.022-0.037
			c-0.019-0.032-0.041-0.061-0.068-0.087c-0.007-0.006-0.009-0.015-0.016-0.021c-0.006-0.005-0.014-0.006-0.021-0.01
			c-0.029-0.021-0.062-0.037-0.097-0.049c-0.015-0.005-0.028-0.013-0.043-0.016c-0.004-0.001-0.008-0.004-0.012-0.004l-13.464-2.465
			c-0.045-0.008-0.091-0.008-0.137,0l-13.465,2.465c-0.005,0.001-0.009,0.004-0.014,0.005c-0.015,0.003-0.028,0.011-0.042,0.016
			c-0.035,0.012-0.067,0.028-0.097,0.049c-0.007,0.005-0.015,0.006-0.021,0.011c-0.007,0.006-0.01,0.015-0.016,0.021
			c-0.027,0.025-0.048,0.054-0.067,0.086c-0.007,0.013-0.016,0.024-0.022,0.037c-0.02,0.046-0.033,0.095-0.033,0.147
			c0,0,0,0.001,0,0.001c0,0,0,0,0,0.001v17.953c0,0.164,0.105,0.31,0.261,0.361l13.781,4.551c0.001,0,0.002,0,0.002,0
			c0.038,0.012,0.077,0.019,0.117,0.019c0.041,0,0.082-0.007,0.12-0.02c0.001,0,0.003,0,0.004-0.001l5.926-2.051
			c1.096,4.776,5.379,8.351,10.483,8.351c5.931,0,10.757-4.826,10.757-10.757c0-1.28-0.226-2.507-0.638-3.647
			c1.061-0.054,2.108-0.171,3.069-0.349l-1.861,3.359c-0.052,0.095-0.062,0.207-0.026,0.31s0.114,0.185,0.213,0.226l13.274,5.5
			c0.005,0.002,0.01,0.001,0.015,0.003c0.042,0.016,0.086,0.026,0.13,0.026s0.088-0.01,0.13-0.026
			c0.005-0.002,0.01-0.001,0.015-0.003l13.275-5.5c0.1-0.041,0.178-0.124,0.213-0.226C174.619,83.392,174.61,83.28,174.557,83.185z
			 M144.8,53.94c5.02,0,8.102,1.316,8.102,2.26s-3.082,2.26-8.102,2.26c-5.02,0-8.102-1.317-8.102-2.26S139.78,53.94,144.8,53.94z
			 M136.698,73.851c3.652,0.248,6.772,2.464,8.303,5.595c-0.068,0-0.133,0.003-0.201,0.003c-5.02,0-8.102-1.317-8.102-2.26V73.851z
			 M119.166,63.338l11.453,2.097l-11.139,2.249l-8.624-1.661l-3.096-0.597L119.166,63.338z M106.082,65.877l13.02,2.508v19.009
			l-13.02-4.3V65.877z M119.862,87.387V68.383l12.388-2.501v7.865c-4.08,1.53-6.993,5.468-6.993,10.076
			c0,0.562,0.044,1.114,0.127,1.653L119.862,87.387z M126.018,83.822c0-4.181,2.581-7.768,6.232-9.259v8.535l-6.132,2.123
			C126.054,84.764,126.018,84.297,126.018,83.822z M146.012,83.822c0,5.512-4.485,9.997-9.997,9.997
			c-4.772,0-8.771-3.362-9.76-7.841l6.5-2.25c0.153-0.053,0.256-0.197,0.256-0.359v-9.082c0.925-0.292,1.908-0.452,2.927-0.46v3.362
			c0,1.962,4.566,3.021,8.862,3.021c0.177,0,0.354-0.002,0.532-0.006C145.769,81.327,146.012,82.546,146.012,83.822z
			 M145.831,79.429c-1.595-3.55-5.059-6.083-9.133-6.34V57.485c0.003,0.002,0.006,0.004,0.008,0.006
			c0.082,0.062,0.17,0.123,0.263,0.182c0.022,0.014,0.046,0.028,0.069,0.042c0.087,0.053,0.177,0.105,0.273,0.156
			c0.012,0.006,0.023,0.013,0.034,0.019c0.106,0.055,0.219,0.108,0.335,0.16c0.028,0.013,0.057,0.025,0.085,0.037
			c0.109,0.047,0.221,0.093,0.337,0.137c0.012,0.005,0.024,0.01,0.037,0.014c0.128,0.048,0.261,0.093,0.396,0.138
			c0.033,0.011,0.066,0.021,0.099,0.032c0.128,0.04,0.258,0.08,0.392,0.117c0.013,0.004,0.025,0.007,0.037,0.011
			c0.145,0.04,0.295,0.078,0.447,0.115c0.036,0.009,0.073,0.017,0.11,0.026c0.144,0.034,0.289,0.066,0.438,0.096
			c0.012,0.003,0.025,0.005,0.037,0.008c0.159,0.032,0.322,0.062,0.486,0.091c0.04,0.007,0.08,0.014,0.12,0.021
			c0.157,0.027,0.315,0.052,0.476,0.075c0.01,0.002,0.021,0.003,0.031,0.005c0.17,0.024,0.342,0.046,0.515,0.067
			c0.042,0.005,0.084,0.01,0.126,0.015c0.168,0.019,0.337,0.037,0.507,0.053c0.007,0.001,0.015,0.002,0.022,0.002
			c0.176,0.016,0.354,0.03,0.532,0.043c0.045,0.003,0.09,0.006,0.135,0.009c0.175,0.012,0.351,0.022,0.527,0.03
			c0.004,0,0.007,0,0.011,0.001c0.18,0.008,0.361,0.014,0.541,0.019c0.044,0.001,0.088,0.002,0.132,0.003
			c0.181,0.004,0.362,0.006,0.542,0.006s0.361-0.003,0.542-0.006c0.044-0.001,0.088-0.002,0.132-0.003
			c0.18-0.005,0.361-0.01,0.541-0.019c0.004,0,0.007,0,0.011-0.001c0.176-0.008,0.352-0.019,0.528-0.03
			c0.045-0.003,0.09-0.006,0.134-0.009c0.178-0.013,0.356-0.027,0.532-0.043c0.007-0.001,0.014-0.002,0.022-0.002
			c0.171-0.016,0.34-0.034,0.508-0.054c0.042-0.005,0.084-0.01,0.126-0.015c0.173-0.021,0.345-0.043,0.515-0.067
			c0.01-0.002,0.021-0.003,0.031-0.005c0.161-0.023,0.319-0.049,0.476-0.075c0.04-0.007,0.08-0.014,0.12-0.021
			c0.164-0.029,0.327-0.059,0.486-0.091c0.012-0.002,0.024-0.005,0.036-0.008c0.149-0.031,0.295-0.063,0.438-0.097
			c0.037-0.009,0.073-0.017,0.11-0.026c0.152-0.037,0.302-0.075,0.447-0.115c0.013-0.004,0.025-0.007,0.037-0.011
			c0.134-0.037,0.264-0.077,0.392-0.117c0.033-0.01,0.066-0.021,0.099-0.032c0.136-0.044,0.269-0.09,0.396-0.138
			c0.013-0.005,0.024-0.01,0.037-0.014c0.116-0.044,0.228-0.09,0.337-0.137c0.029-0.012,0.057-0.025,0.085-0.037
			c0.116-0.052,0.229-0.105,0.335-0.16c0.012-0.006,0.023-0.013,0.034-0.019c0.096-0.05,0.186-0.103,0.273-0.156
			c0.023-0.014,0.046-0.028,0.068-0.042c0.093-0.059,0.182-0.12,0.263-0.182c0.003-0.002,0.006-0.004,0.008-0.006v15.667
			l-3.215,5.802C148.627,79.197,147.331,79.373,145.831,79.429z M152.902,74.721v2.468c0,0.475-0.781,1.043-2.194,1.491
			L152.902,74.721z M150.191,79.614c2.028-0.504,3.471-1.322,3.471-2.425v-3.84l6.908-12.467V88.3l-12.355-5.119L150.191,79.614z
			 M161.33,88.3V60.882l12.356,22.299L161.33,88.3z"/>
		<g>
			<path d="M63.402,38.27h27.664c0.451,0,0.82-0.369,0.82-0.82v-2.917c0-0.451-0.369-0.82-0.82-0.82H63.402
				c-0.451,0-0.82,0.369-0.82,0.82v2.917C62.582,37.901,62.951,38.27,63.402,38.27z"/>
			<path d="M105.825,40.801H62.68c-0.054,0-0.098,0.044-0.098,0.098v2.199c0,0.054,0.044,0.098,0.098,0.098h43.145
				c0.054,0,0.098-0.044,0.098-0.098v-2.199C105.923,40.845,105.879,40.801,105.825,40.801z"/>
			<path d="M105.825,44.629H62.68c-0.054,0-0.098,0.044-0.098,0.098v2.199c0,0.054,0.044,0.098,0.098,0.098h43.145
				c0.054,0,0.098-0.044,0.098-0.098v-2.199C105.923,44.674,105.879,44.629,105.825,44.629z"/>
			<path d="M105.825,48.458H62.68c-0.054,0-0.098,0.044-0.098,0.098v2.199c0,0.054,0.044,0.098,0.098,0.098h43.145
				c0.054,0,0.098-0.044,0.098-0.098v-2.199C105.923,48.502,105.879,48.458,105.825,48.458z"/>
		</g>
		<g>
			<path class="st1" d="M63.402,69.813h16.466c0.451,0,0.82-0.369,0.82-0.82v-2.917c0-0.451-0.369-0.82-0.82-0.82H63.402
				c-0.451,0-0.82,0.369-0.82,0.82v2.917C62.582,69.445,62.951,69.813,63.402,69.813z"/>
			<path class="st1" d="M94.627,72.344H62.68c-0.054,0-0.098,0.044-0.098,0.098v2.199c0,0.054,0.044,0.098,0.098,0.098h31.947
				c0.054,0,0.098-0.044,0.098-0.098v-2.199C94.725,72.388,94.681,72.344,94.627,72.344z"/>
			<path class="st1" d="M94.627,76.173H62.68c-0.054,0-0.098,0.044-0.098,0.098v2.199c0,0.054,0.044,0.098,0.098,0.098h31.947
				c0.054,0,0.098-0.044,0.098-0.098v-2.199C94.725,76.217,94.681,76.173,94.627,76.173z"/>
			<path class="st1" d="M94.627,80.001H62.68c-0.054,0-0.098,0.044-0.098,0.098v2.199c0,0.054,0.044,0.098,0.098,0.098h31.947
				c0.054,0,0.098-0.044,0.098-0.098V80.1C94.725,80.046,94.681,80.001,94.627,80.001z"/>
		</g>
		<g id="lumio">
			<g>
				<path class="st2" d="M144.525,42.096c0.23,0,0.423,0.073,0.577,0.219c0.155,0.146,0.232,0.334,0.232,0.564
					c0,0.221-0.078,0.405-0.232,0.551c-0.155,0.146-0.348,0.219-0.577,0.219h-4.315c-0.23,0-0.423-0.077-0.578-0.232
					c-0.155-0.155-0.232-0.347-0.232-0.578v-7.673c0-0.23,0.08-0.423,0.239-0.578c0.159-0.155,0.363-0.232,0.611-0.232
					c0.212,0,0.4,0.078,0.564,0.232c0.164,0.155,0.246,0.348,0.246,0.578v7.156l-0.292-0.226H144.525z"/>
				<path class="st2" d="M151.999,36.546c0.23,0,0.42,0.078,0.571,0.232c0.151,0.155,0.226,0.348,0.226,0.577v3.372
					c0,0.938-0.261,1.682-0.783,2.23c-0.522,0.549-1.274,0.823-2.257,0.823s-1.732-0.274-2.25-0.823s-0.777-1.292-0.777-2.23v-3.372
					c0-0.23,0.075-0.423,0.226-0.577s0.341-0.232,0.571-0.232c0.23,0,0.42,0.078,0.571,0.232c0.151,0.155,0.226,0.348,0.226,0.577
					v3.372c0,0.54,0.119,0.941,0.358,1.201c0.239,0.261,0.597,0.391,1.075,0.391c0.487,0,0.849-0.13,1.088-0.391
					c0.239-0.261,0.358-0.661,0.358-1.201v-3.372c0-0.23,0.075-0.423,0.226-0.577C151.578,36.624,151.769,36.546,151.999,36.546z"/>
				<path class="st2" d="M158.251,36.414c0.708,0,1.23,0.171,1.567,0.511c0.336,0.341,0.558,0.781,0.664,1.321l-0.226-0.119
					l0.106-0.212c0.106-0.204,0.27-0.423,0.491-0.657c0.221-0.234,0.489-0.433,0.803-0.597c0.314-0.164,0.666-0.246,1.055-0.246
					c0.637,0,1.122,0.137,1.454,0.412c0.332,0.274,0.559,0.639,0.684,1.095c0.124,0.456,0.186,0.962,0.186,1.52v3.399
					c0,0.23-0.075,0.423-0.226,0.578c-0.151,0.155-0.341,0.232-0.571,0.232s-0.42-0.077-0.571-0.232
					c-0.151-0.155-0.226-0.347-0.226-0.578V39.44c0-0.292-0.036-0.555-0.106-0.79c-0.071-0.235-0.199-0.423-0.385-0.564
					c-0.186-0.141-0.451-0.212-0.797-0.212c-0.336,0-0.624,0.071-0.863,0.212c-0.239,0.142-0.418,0.33-0.538,0.564
					c-0.119,0.235-0.179,0.498-0.179,0.79v3.399c0,0.23-0.075,0.423-0.226,0.578c-0.151,0.155-0.341,0.232-0.571,0.232
					c-0.23,0-0.42-0.077-0.571-0.232c-0.151-0.155-0.226-0.347-0.226-0.578V39.44c0-0.292-0.035-0.555-0.106-0.79
					c-0.071-0.235-0.199-0.423-0.385-0.564c-0.186-0.141-0.451-0.212-0.796-0.212c-0.336,0-0.624,0.071-0.863,0.212
					c-0.239,0.142-0.418,0.33-0.538,0.564c-0.119,0.235-0.179,0.498-0.179,0.79v3.399c0,0.23-0.075,0.423-0.226,0.578
					c-0.151,0.155-0.341,0.232-0.571,0.232c-0.23,0-0.42-0.077-0.571-0.232c-0.151-0.155-0.226-0.347-0.226-0.578v-5.483
					c0-0.23,0.075-0.423,0.226-0.577s0.341-0.232,0.571-0.232c0.23,0,0.42,0.078,0.571,0.232c0.151,0.155,0.226,0.348,0.226,0.577
					v0.571l-0.199-0.04c0.08-0.151,0.19-0.312,0.332-0.484c0.141-0.172,0.314-0.334,0.518-0.484
					c0.203-0.151,0.429-0.272,0.677-0.365C157.689,36.46,157.959,36.414,158.251,36.414z"/>
				<path class="st2" d="M168.261,42.839c0,0.23-0.075,0.423-0.226,0.578c-0.151,0.155-0.341,0.232-0.571,0.232
					c-0.23,0-0.42-0.077-0.571-0.232c-0.151-0.155-0.226-0.347-0.226-0.578v-5.483c0-0.23,0.075-0.423,0.226-0.577
					s0.341-0.232,0.571-0.232c0.23,0,0.42,0.078,0.571,0.232c0.151,0.155,0.226,0.348,0.226,0.577V42.839z"/>
				<path class="st2" d="M176.718,40.104c0,0.726-0.162,1.365-0.485,1.918c-0.323,0.553-0.757,0.985-1.301,1.294
					c-0.544,0.31-1.153,0.465-1.825,0.465c-0.672,0-1.281-0.155-1.825-0.465c-0.544-0.31-0.978-0.741-1.301-1.294
					c-0.323-0.553-0.484-1.193-0.484-1.918c0-0.726,0.161-1.365,0.484-1.918c0.323-0.553,0.757-0.987,1.301-1.301
					c0.544-0.314,1.153-0.471,1.825-0.471c0.673,0,1.281,0.157,1.825,0.471c0.544,0.314,0.978,0.748,1.301,1.301
					C176.556,38.739,176.718,39.379,176.718,40.104z M175.125,40.104c0-0.451-0.091-0.843-0.272-1.175
					c-0.181-0.332-0.425-0.591-0.73-0.777c-0.305-0.186-0.644-0.279-1.016-0.279s-0.71,0.093-1.016,0.279s-0.549,0.445-0.73,0.777
					c-0.181,0.332-0.272,0.723-0.272,1.175c0,0.443,0.091,0.83,0.272,1.162c0.181,0.332,0.425,0.591,0.73,0.777
					s0.644,0.279,1.016,0.279s0.71-0.093,1.016-0.279c0.306-0.186,0.549-0.445,0.73-0.777
					C175.034,40.934,175.125,40.547,175.125,40.104z"/>
			</g>
			<g>
				<path class="st2" d="M162.429,47.705c0,0.5-0.358,0.83-0.783,0.83c-0.213,0-0.442-0.098-0.547-0.277v0.236h-0.331v-2.433h0.331
					v1.09c0.104-0.179,0.324-0.273,0.547-0.273C162.075,46.878,162.429,47.202,162.429,47.705z M162.095,47.701
					c0-0.297-0.216-0.513-0.489-0.513c-0.243,0-0.503,0.196-0.503,0.513s0.24,0.523,0.503,0.523
					C161.879,48.224,162.095,47.995,162.095,47.701z"/>
				<path class="st2" d="M163.843,46.918h0.358l-0.979,2.342h-0.351l0.341-0.837l-0.631-1.505h0.358l0.452,1.097L163.843,46.918z"/>
				<path class="st2" d="M165.237,47.826h0.344c0.007,0.199,0.192,0.391,0.483,0.391c0.277,0,0.439-0.175,0.439-0.368
					c0-0.206-0.186-0.304-0.375-0.354l-0.297-0.074c-0.496-0.125-0.577-0.419-0.577-0.611c0-0.409,0.361-0.682,0.773-0.682
					c0.419,0,0.746,0.263,0.746,0.688h-0.344c0-0.219-0.172-0.371-0.412-0.371c-0.219,0-0.415,0.145-0.415,0.358
					c0,0.074,0.024,0.226,0.317,0.304l0.294,0.081c0.391,0.104,0.638,0.304,0.638,0.645c0,0.388-0.317,0.702-0.786,0.702
					C165.568,48.535,165.237,48.201,165.237,47.826z"/>
				<path class="st2" d="M169.969,48.494h-0.344l-0.206-1.688l-0.692,1.431h-0.297l-0.699-1.431l-0.206,1.688h-0.344l0.284-2.325
					h0.31l0.8,1.674l0.8-1.674h0.31L169.969,48.494z"/>
				<path class="st2" d="M171.92,48.494l-0.216-0.587h-0.969l-0.216,0.587h-0.365l0.881-2.325h0.371l0.878,2.325H171.92z
					 M170.846,47.603h0.746l-0.371-1.013L170.846,47.603z"/>
				<path class="st2" d="M173.806,48.494l-0.597-0.867h-0.263v0.867h-0.348v-2.325h0.888c0.51,0,0.716,0.368,0.716,0.736
					c0,0.334-0.203,0.685-0.591,0.722l0.611,0.867H173.806z M172.946,46.486v0.837h0.456c0.32,0,0.452-0.172,0.452-0.419
					c0-0.243-0.145-0.419-0.371-0.419H172.946z"/>
				<path class="st2" d="M176.142,46.169v0.317h-0.692v2.008h-0.348v-2.008h-0.692v-0.317H176.142z"/>
			</g>
			<g>
				<path class="st2" d="M177.598,36.692c-0.019,0-0.035-0.006-0.048-0.018c-0.013-0.012-0.02-0.028-0.02-0.046
					c0-0.019,0.007-0.034,0.02-0.046s0.029-0.017,0.048-0.017h0.773c0.019,0,0.035,0.006,0.048,0.018s0.02,0.028,0.02,0.046
					c0,0.019-0.007,0.034-0.02,0.046s-0.029,0.017-0.048,0.017H177.598z M177.984,37.728c-0.021,0-0.038-0.007-0.051-0.02
					c-0.013-0.013-0.019-0.029-0.019-0.048v-1.026h0.141v1.026c0,0.019-0.007,0.035-0.02,0.048S178.005,37.728,177.984,37.728z"/>
				<path class="st2" d="M178.707,36.562c0.01,0,0.021,0.003,0.032,0.008c0.012,0.006,0.021,0.013,0.028,0.023l0.441,0.665
					l-0.06-0.001l0.446-0.664c0.016-0.021,0.034-0.032,0.057-0.032c0.018,0.001,0.033,0.008,0.048,0.021
					c0.014,0.013,0.021,0.029,0.021,0.047v1.029c0,0.019-0.007,0.035-0.02,0.048c-0.013,0.013-0.03,0.02-0.05,0.02
					c-0.021,0-0.038-0.007-0.051-0.02c-0.013-0.013-0.019-0.029-0.019-0.048v-0.901l0.042,0.007l-0.393,0.597
					c-0.007,0.009-0.015,0.016-0.024,0.022c-0.009,0.006-0.02,0.008-0.031,0.007c-0.01,0.001-0.02-0.001-0.03-0.007
					c-0.01-0.006-0.018-0.013-0.023-0.022l-0.387-0.595l0.035-0.045v0.938c0,0.019-0.006,0.035-0.018,0.048s-0.028,0.02-0.046,0.02
					c-0.019,0-0.034-0.007-0.046-0.02c-0.012-0.013-0.018-0.029-0.018-0.048v-1.029c0-0.018,0.007-0.033,0.02-0.047
					C178.671,36.569,178.687,36.562,178.707,36.562z"/>
			</g>
		</g>
		<g id="bug">
			
				<radialGradient id="SVGID_1_" cx="167.4081" cy="268.8147" r="2.3409" gradientTransform="matrix(1 0 0 -1 0 302)" gradientUnits="userSpaceOnUse">
				<stop  offset="0" style="stop-color:#F9CC70"/>
				<stop  offset="0.8552" style="stop-color:#F9CC70;stop-opacity:0.1448"/>
				<stop  offset="1" style="stop-color:#F9CC70;stop-opacity:0"/>
			</radialGradient>
			<circle class="st3" cx="167.408" cy="33.185" r="2.341"/>
			<path class="st2" d="M167.697,30.996c0.224-0.146,0.439-0.33,0.644-0.553c0.655-0.712,0.559-1.28,0.443-1.554
				c-0.207-0.49-0.768-0.807-1.465-0.827c-0.552-0.016-1.221,0.163-1.846,0.629c-0.313-0.169-0.667-0.254-1.034-0.241
				c-0.161,0.006-0.319,0.03-0.471,0.071c-0.066-0.102-0.178-0.312-0.145-0.515c0.023-0.135,0.109-0.247,0.264-0.345
				c0.097-0.061,0.126-0.189,0.065-0.286s-0.189-0.126-0.286-0.065c-0.258,0.163-0.41,0.375-0.452,0.63
				c-0.048,0.29,0.066,0.563,0.162,0.732c-0.204,0.105-0.39,0.245-0.551,0.417c-0.129,0.138-0.237,0.292-0.321,0.457
				c-0.176-0.079-0.437-0.157-0.703-0.094c-0.252,0.059-0.454,0.225-0.599,0.493c-0.054,0.101-0.017,0.227,0.084,0.281
				c0.031,0.017,0.065,0.025,0.099,0.025c0.074,0,0.145-0.039,0.183-0.109c0.087-0.161,0.194-0.255,0.326-0.286
				c0.165-0.039,0.342,0.021,0.459,0.076c-0.054,0.196-0.078,0.401-0.071,0.611c0.013,0.367,0.121,0.716,0.312,1.017
				c-0.419,0.653-0.551,1.33-0.497,1.877c0.067,0.694,0.421,1.233,0.924,1.406c0.089,0.031,0.207,0.058,0.349,0.058
				c0.305,0,0.717-0.125,1.172-0.605c0.2-0.211,0.364-0.429,0.492-0.652c0.706,0.387,1.576,0.736,2.249,0.736
				c0.332,0,0.615-0.085,0.809-0.291c0.461-0.493,0.189-1.454-0.12-2.174C168.035,31.606,167.871,31.289,167.697,30.996z
				 M167.307,28.477c0.525,0.015,0.955,0.24,1.095,0.573c0.133,0.316,0.003,0.711-0.366,1.112c-0.18,0.195-0.367,0.356-0.56,0.483
				c-0.197-0.294-0.398-0.543-0.577-0.711l-1.006-0.94c-0.019-0.018-0.039-0.035-0.059-0.052
				C166.339,28.598,166.865,28.465,167.307,28.477z M165.043,33.066c-0.253-0.158-0.473-0.32-0.633-0.469l-1.006-0.94
				c-0.035-0.033-0.068-0.067-0.1-0.102c0.255-0.328,0.599-0.646,1.051-0.927c0.232,0.248,0.766,0.903,0.798,1.714
				C165.164,32.588,165.127,32.829,165.043,33.066z M165.499,29.204c0.038,0.029,0.074,0.061,0.11,0.094l1.006,0.94
				c0.137,0.128,0.31,0.339,0.491,0.604c-0.223,0.092-0.453,0.143-0.69,0.149c-0.813,0.025-1.501-0.465-1.764-0.68
				C164.901,29.843,165.192,29.479,165.499,29.204z M162.895,30.532c-0.007-0.212,0.026-0.418,0.096-0.61
				c0.001-0.002,0.001-0.005,0.003-0.007c0.073-0.198,0.185-0.381,0.333-0.54c0.293-0.314,0.693-0.494,1.125-0.509
				c0.019-0.001,0.038-0.001,0.057-0.001c0.215,0,0.423,0.042,0.617,0.122c-0.327,0.315-0.633,0.72-0.891,1.23
				c-0.496,0.294-0.881,0.629-1.173,0.979C162.961,30.992,162.903,30.767,162.895,30.532z M164.438,34.013
				c-0.375,0.396-0.76,0.552-1.084,0.441c-0.342-0.117-0.596-0.531-0.646-1.054c-0.042-0.435,0.054-0.966,0.359-1.493
				c0.018,0.018,0.035,0.036,0.054,0.053l1.006,0.94c0.158,0.148,0.422,0.341,0.745,0.538
				C164.76,33.634,164.616,33.826,164.438,34.013z M167.985,33.808c-0.374,0.4-1.607,0-2.578-0.529
				c0.12-0.31,0.175-0.629,0.161-0.957c-0.018-0.442-0.157-0.839-0.328-1.165c0.321,0.141,0.703,0.249,1.12,0.249
				c0.021,0,0.043,0,0.064-0.001c0.315-0.008,0.618-0.079,0.908-0.209c0.161,0.268,0.319,0.57,0.454,0.885
				C168.145,32.913,168.219,33.558,167.985,33.808z"/>
		</g>
	</g>
	<polygon class="st4" points="45.626,96.319 170.983,17.25 45.626,17.25 	"/>
	<g>
		<g>
			<path class="st5" d="M200.589,105.662v-0.462H42.362v0.377c-0.029,0.02-0.05,0.048-0.05,0.086v2.02v0.775v0.375
				c0,0,19.357,0.339,24.297,0.339c3.997,0,4.638,4.148,8.032,4.148s6.203-0.054,6.203-0.054h81.475c0,0,2.809,0.054,6.203,0.054
				c3.394,0,4.035-4.148,8.032-4.148c4.94,0,24.063-0.339,24.063-0.339v-1.15c0-0.015-0.017-0.017-0.027-0.027v-0.402V105.662z"/>
		</g>
		<g>
			<path class="st6" d="M44.105,16.081v89.697h154.74V16.081H44.105z M196.969,102.222H45.982V17.301h150.987V102.222z"/>
			<g>
				<path class="st7" d="M200.469,108.105H42.431c-0.066,0-0.12-0.054-0.12-0.12v-2.777c0-0.066,0.054-0.12,0.12-0.12h158.038
					c0.066,0,0.12,0.054,0.12,0.12v2.777C200.589,108.051,200.535,108.105,200.469,108.105z"/>
				<path class="st8" d="M200.562,107.164h-25.274H67.874H42.366c-0.03,0-0.054,0.025-0.054,0.054v1.15
					c0,0,19.357,0.339,24.297,0.339c3.997,0,4.638,4.148,8.032,4.148s6.203-0.054,6.203-0.054h81.475c0,0,2.809,0.054,6.203,0.054
					c3.394,0,4.035-4.148,8.032-4.148c4.94,0,24.063-0.339,24.063-0.339v-1.15C200.616,107.189,200.592,107.164,200.562,107.164z"/>
				<g>
					<g>
						<g>
							<path class="st7" d="M92.582,111.372H79.586c-0.639,0-1.162-0.523-1.162-1.162l0,0c0-0.639,0.523-1.162,1.162-1.162h12.996
								c0.639,0,1.162,0.523,1.162,1.162l0,0C93.745,110.849,93.222,111.372,92.582,111.372z"/>
							<path class="st9" d="M92.076,109.915L92.076,109.915l-1.542-0.403c-0.008,0-0.016,0.012-0.023,0.03
								c0.007-0.018,0.015-0.03,0.023-0.03h-4.94h-4.751h-0.754h-0.437c-0.278,0-0.503,0.312-0.503,0.698
								c0,0.385,0.225,0.698,0.503,0.698h0.437h0.754h4.751h4.94l0,0l1.542-0.403c0.231,0,0.943-0.186,0.943-0.294
								C93.019,110.1,92.307,109.915,92.076,109.915z"/>
							<g>
								<path class="st10" d="M92.076,110.334c-0.02,0-0.036-0.132-0.036-0.294c0-0.163,0.016-0.294,0.036-0.294l-1.542-0.403
									c-0.047,0-0.085,0.312-0.085,0.698s0.038,0.698,0.085,0.698L92.076,110.334z"/>
								<g>
									<path class="st11" d="M92.076,109.745c-0.02,0-0.036,0.132-0.036,0.294s0.016,0.294,0.036,0.294
										c0.231,0,0.943-0.186,0.943-0.294S92.307,109.745,92.076,109.745z"/>
									<path class="st11" d="M90.535,109.342h-4.94c-0.047,0-0.085,0.312-0.085,0.698c0,0.385,0.038,0.698,0.085,0.698h4.94
										c-0.047,0-0.085-0.312-0.085-0.698C90.45,109.654,90.488,109.342,90.535,109.342z"/>
								</g>
								<path class="st12" d="M85.51,110.04c0-0.385,0.038-0.698,0.085-0.698h-4.751c-0.047,0-0.085,0.312-0.085,0.698
									c0,0.385,0.038,0.698,0.085,0.698h4.751C85.548,110.737,85.51,110.425,85.51,110.04z"/>
								<path class="st10" d="M80.759,110.04c0-0.385,0.038-0.698,0.085-0.698h-0.754c-0.047,0-0.085,0.312-0.085,0.698
									c0,0.385,0.038,0.698,0.085,0.698h0.754C80.797,110.737,80.759,110.425,80.759,110.04z"/>
								<path class="st13" d="M80.005,110.04c0-0.385,0.038-0.698,0.085-0.698h-0.437c-0.278,0-0.503,0.312-0.503,0.698
									c0,0.385,0.225,0.698,0.503,0.698h0.437C80.043,110.737,80.005,110.425,80.005,110.04z"/>
							</g>
						</g>
						<g>
							<path class="st7" d="M110.582,111.372H97.586c-0.639,0-1.162-0.523-1.162-1.162l0,0c0-0.639,0.523-1.162,1.162-1.162h12.996
								c0.639,0,1.162,0.523,1.162,1.162l0,0C111.744,110.849,111.221,111.372,110.582,111.372z"/>
							<path class="st9" d="M110.076,109.915L110.076,109.915l-1.542-0.403c-0.008,0-0.016,0.012-0.023,0.03
								c0.007-0.018,0.015-0.03,0.023-0.03h-4.94h-4.751h-0.754h-0.437c-0.278,0-0.503,0.312-0.503,0.698
								c0,0.385,0.225,0.698,0.503,0.698h0.437h0.754h4.751h4.94l0,0l1.542-0.403c0.231,0,0.943-0.186,0.943-0.294
								C111.019,110.1,110.307,109.915,110.076,109.915z"/>
							<g>
								<path class="st10" d="M110.076,110.334c-0.02,0-0.036-0.132-0.036-0.294c0-0.163,0.016-0.294,0.036-0.294l-1.542-0.403
									c-0.047,0-0.085,0.312-0.085,0.698s0.038,0.698,0.085,0.698L110.076,110.334z"/>
								<g>
									<path class="st14" d="M110.076,109.745c-0.02,0-0.036,0.132-0.036,0.294s0.016,0.294,0.036,0.294
										c0.231,0,0.943-0.186,0.943-0.294S110.307,109.745,110.076,109.745z"/>
									<path class="st14" d="M108.535,109.342h-4.94c-0.047,0-0.085,0.312-0.085,0.698c0,0.385,0.038,0.698,0.085,0.698h4.94
										c-0.047,0-0.085-0.312-0.085-0.698C108.45,109.654,108.488,109.342,108.535,109.342z"/>
								</g>
								<path class="st12" d="M103.51,110.04c0-0.385,0.038-0.698,0.085-0.698h-4.751c-0.047,0-0.085,0.312-0.085,0.698
									c0,0.385,0.038,0.698,0.085,0.698h4.751C103.548,110.737,103.51,110.425,103.51,110.04z"/>
								<path class="st10" d="M98.759,110.04c0-0.385,0.038-0.698,0.085-0.698h-0.754c-0.047,0-0.085,0.312-0.085,0.698
									c0,0.385,0.038,0.698,0.085,0.698h0.754C98.797,110.737,98.759,110.425,98.759,110.04z"/>
								<path class="st13" d="M98.004,110.04c0-0.385,0.038-0.698,0.085-0.698h-0.437c-0.278,0-0.503,0.312-0.503,0.698
									c0,0.385,0.225,0.698,0.503,0.698h0.437C98.042,110.737,98.004,110.425,98.004,110.04z"/>
							</g>
						</g>
						<path class="st7" d="M150.58,109.047h12.996c0.639,0,1.162,0.523,1.162,1.162l0,0c0,0.639-0.523,1.162-1.162,1.162H150.58
							c-0.639,0-1.162-0.523-1.162-1.162l0,0C149.418,109.57,149.941,109.047,150.58,109.047z"/>
						<path class="st9" d="M151.086,110.656L151.086,110.656l1.542,0.403c0.008,0,0.016-0.012,0.023-0.03
							c-0.007,0.018-0.015,0.03-0.023,0.03h4.94h4.751h0.754h0.437c0.278,0,0.503-0.312,0.503-0.698
							c0-0.385-0.225-0.698-0.503-0.698h-0.437h-0.754h-4.751h-4.94l0,0l-1.542,0.403c-0.231,0-0.943,0.186-0.943,0.294
							C150.143,110.47,150.855,110.656,151.086,110.656z"/>
						<g>
							<path class="st10" d="M151.086,109.915c0.02,0,0.036,0.132,0.036,0.294c0,0.163-0.016,0.294-0.036,0.294l1.542,0.403
								c0.047,0,0.085-0.312,0.085-0.698s-0.038-0.698-0.085-0.698L151.086,109.915z"/>
							<g>
								<path class="st11" d="M151.086,110.504c0.02,0,0.036-0.132,0.036-0.294s-0.016-0.294-0.036-0.294
									c-0.231,0-0.943,0.186-0.943,0.294C150.143,110.318,150.855,110.504,151.086,110.504z"/>
								<path class="st11" d="M152.628,110.907h4.94c0.047,0,0.085-0.312,0.085-0.698c0-0.385-0.038-0.698-0.085-0.698h-4.94
									c0.047,0,0.085,0.312,0.085,0.698C152.713,110.595,152.675,110.907,152.628,110.907z"/>
							</g>
							<path class="st12" d="M157.652,110.209c0,0.385-0.038,0.698-0.085,0.698h4.751c0.047,0,0.085-0.312,0.085-0.698
								c0-0.385-0.038-0.698-0.085-0.698h-4.751C157.614,109.512,157.652,109.824,157.652,110.209z"/>
							<path class="st10" d="M162.404,110.209c0,0.385-0.038,0.698-0.085,0.698h0.754c0.047,0,0.085-0.312,0.085-0.698
								c0-0.385-0.038-0.698-0.085-0.698h-0.754C162.366,109.512,162.404,109.824,162.404,110.209z"/>
							<path class="st13" d="M163.158,110.209c0,0.385-0.038,0.698-0.085,0.698h0.437c0.278,0,0.503-0.312,0.503-0.698
								c0-0.385-0.225-0.698-0.503-0.698h-0.437C163.12,109.512,163.158,109.824,163.158,110.209z"/>
						</g>
						<path class="st7" d="M132.58,109.047h12.996c0.639,0,1.162,0.523,1.162,1.162l0,0c0,0.639-0.523,1.162-1.162,1.162H132.58
							c-0.639,0-1.162-0.523-1.162-1.162l0,0C131.418,109.57,131.941,109.047,132.58,109.047z"/>
						<path class="st9" d="M133.086,110.656L133.086,110.656l1.542,0.403c0.008,0,0.016-0.012,0.023-0.03
							c-0.007,0.018-0.015,0.03-0.023,0.03h4.94h4.751h0.754h0.437c0.278,0,0.503-0.312,0.503-0.698
							c0-0.385-0.225-0.698-0.503-0.698h-0.437h-0.754h-4.751h-4.94l0,0l-1.542,0.403c-0.231,0-0.943,0.186-0.943,0.294
							C132.144,110.47,132.856,110.656,133.086,110.656z"/>
						<g>
							<path class="st10" d="M133.086,109.915c0.02,0,0.036,0.132,0.036,0.294c0,0.163-0.016,0.294-0.036,0.294l1.542,0.403
								c0.047,0,0.085-0.312,0.085-0.698s-0.038-0.698-0.085-0.698L133.086,109.915z"/>
							<g>
								<path class="st15" d="M133.086,110.504c0.02,0,0.036-0.132,0.036-0.294s-0.016-0.294-0.036-0.294
									c-0.231,0-0.943,0.186-0.943,0.294C132.144,110.318,132.856,110.504,133.086,110.504z"/>
								<path class="st15" d="M134.628,110.907h4.94c0.047,0,0.085-0.312,0.085-0.698c0-0.385-0.038-0.698-0.085-0.698h-4.94
									c0.047,0,0.085,0.312,0.085,0.698C134.713,110.595,134.675,110.907,134.628,110.907z"/>
							</g>
							<path class="st12" d="M139.653,110.209c0,0.385-0.038,0.698-0.085,0.698h4.751c0.047,0,0.085-0.312,0.085-0.698
								c0-0.385-0.038-0.698-0.085-0.698h-4.751C139.615,109.512,139.653,109.824,139.653,110.209z"/>
							<path class="st10" d="M144.404,110.209c0,0.385-0.038,0.698-0.085,0.698h0.754c0.047,0,0.085-0.312,0.085-0.698
								c0-0.385-0.038-0.698-0.085-0.698h-0.754C144.366,109.512,144.404,109.824,144.404,110.209z"/>
							<path class="st13" d="M145.158,110.209c0,0.385-0.038,0.698-0.085,0.698h0.437c0.278,0,0.503-0.312,0.503-0.698
								c0-0.385-0.225-0.698-0.503-0.698h-0.437C145.12,109.512,145.158,109.824,145.158,110.209z"/>
						</g>
					</g>
					<g>
						<path class="st9" d="M128.524,107.192h-13.392c-0.031,0-0.056,0.169-0.056,0.375l0.093,4.352c0,0.206,0.025,0.375,0.056,0.375
							h13.207c0.031,0,0.056-0.169,0.056-0.375l0.092-4.352C128.58,107.36,128.555,107.192,128.524,107.192z"/>
						<path class="st8" d="M128.46,111.372h-13.262c-0.066,0-0.12-0.054-0.12-0.12v-3.94c0-0.066,0.054-0.12,0.12-0.12h13.262
							c0.066,0,0.12,0.054,0.12,0.12v3.94C128.58,111.318,128.526,111.372,128.46,111.372z"/>
						<path class="st16" d="M128.525,111.372h-13.393c-0.03,0-0.054,0.024-0.054,0.054l0.223,0.632c0,0.03,0.024,0.054,0.054,0.054
							h12.947c0.03,0,0.054-0.024,0.054-0.054l0.223-0.632C128.58,111.396,128.555,111.372,128.525,111.372z"/>
						<path class="st17" d="M128.182,111.01h-12.707c-0.066,0-0.12-0.054-0.12-0.12v-3.254c0-0.066,0.054-0.12,0.12-0.12h12.707
							c0.066,0,0.12,0.054,0.12,0.12v3.254C128.302,110.956,128.248,111.01,128.182,111.01z"/>
					</g>
				</g>
			</g>
			<g>
				<path class="st8" d="M200.469,16.081H42.431c-0.066,0-0.12-0.054-0.12-0.12V12.8c0-0.066,0.054-0.12,0.12-0.12h158.038
					c0.066,0,0.12,0.054,0.12,0.12v3.161C200.589,16.027,200.535,16.081,200.469,16.081z"/>
				<path class="st18" d="M48.262,14.188h-0.6c-0.198,0-0.36-0.162-0.36-0.36l0,0c0-0.198,0.162-0.36,0.36-0.36h0.6
					c0.198,0,0.36,0.162,0.36,0.36l0,0C48.623,14.026,48.461,14.188,48.262,14.188z"/>
			</g>
			<g>
				<path class="st5" d="M42.362,15.07v91.719h158.227v-4.969c0,0,1.408-0.955,1.408-2.061c0-3.318,0-14.883,0-16.441
					c0-1.559-1.408-2.263-1.408-2.263V15.07H42.362z M198.67,103.153H44.28V16.318h154.39V103.153z"/>
				<g>
					<path class="st19" d="M201.004,84.989c0.24,0,0.434-0.376,0.434-0.839c0-0.463-0.194-0.839-0.434-0.839
						c-0.239,0-0.434,0.376-0.434,0.839C200.57,84.613,200.764,84.989,201.004,84.989z"/>
					<path class="st19" d="M201.004,85.814c-0.239,0-0.434,0.376-0.434,0.839c0,0.463,0.194,0.839,0.434,0.839
						c0.24,0,0.434-0.376,0.434-0.839C201.438,86.19,201.243,85.814,201.004,85.814z"/>
					<path class="st19" d="M201.004,88.318c-0.239,0-0.434,0.376-0.434,0.839c0,0.463,0.194,0.839,0.434,0.839
						c0.24,0,0.434-0.376,0.434-0.839C201.438,88.694,201.243,88.318,201.004,88.318z"/>
					<path class="st19" d="M201.004,90.822c-0.239,0-0.434,0.376-0.434,0.839c0,0.463,0.194,0.839,0.434,0.839
						c0.24,0,0.434-0.376,0.434-0.839C201.438,91.197,201.243,90.822,201.004,90.822z"/>
					<polygon class="st19" points="200.803,95.378 201.199,95.541 201.199,94.146 200.803,94.297 					"/>
					<polygon class="st19" points="200.803,98.131 201.199,98.294 201.199,96.899 200.803,97.05 					"/>
				</g>
			</g>
		</g>
	</g>
</g>
</svg>
