<svg version="1.1" xmlns="http://www.w3.org/2000/svg" xmlns:xlink="http://www.w3.org/1999/xlink" viewBox="0 0 60 60">

  <path class="grey-fill" d="M18.392,39.999c0-5.701,0-11.401,0-17.102c0.042-0.044,0.101-0.082,0.122-0.134c0.593-1.499,1.455-2.098,3.035-2.099
			c0.779-0.001,1.558,0,2.373,0c0-0.35-0.001-0.611,0-0.871c0.01-1.873,1.21-3.073,3.08-3.075c2.582-0.002,5.165-0.018,7.747,0.018
			c0.371,0.005,0.82,0.174,1.094,0.421c1.608,1.452,3.185,2.939,4.743,4.446c0.22,0.213,0.393,0.593,0.395,0.897
			c0.025,4.27,0.023,8.54,0.014,12.81c-0.004,1.739-1.247,2.967-2.981,2.976c-0.825,0.005-1.651,0.001-2.564,0.001
			c0,0.542,0.059,1.027-0.011,1.492c-0.194,1.278-1.055,1.999-2.19,2.457c-4.207,0-8.414,0-12.621,0
			C19.534,41.838,18.81,41.072,18.392,39.999z M28.768,22.27c-0.277-0.013-0.49-0.031-0.703-0.031
			c-2.125-0.002-4.25-0.003-6.375-0.001c-1.244,0.001-1.701,0.458-1.702,1.713c-0.002,4.998-0.002,9.996,0,14.994
			c0.001,1.253,0.46,1.713,1.702,1.714c3.483,0.002,6.966,0.001,10.449,0c1.295,0,1.749-0.449,1.75-1.734
			c0.002-3.727,0.001-7.453,0.001-11.18c0-0.209,0-0.419,0-0.676c-1.085,0-2.069,0.01-3.053-0.002
			c-1.349-0.017-2.06-0.737-2.069-2.079C28.763,24.094,28.768,23.201,28.768,22.27z M25.479,20.664c1.384,0,2.632-0.021,3.877,0.015
			c0.297,0.009,0.655,0.133,0.871,0.33c1.634,1.49,3.25,3,4.841,4.535c0.222,0.214,0.362,0.595,0.389,0.911
			c0.058,0.689,0.018,1.386,0.018,2.12c0.411,0,0.739-0.019,1.063,0.004c0.506,0.037,0.829,0.306,0.816,0.836
			c-0.012,0.502-0.334,0.741-0.814,0.762c-0.341,0.015-0.683,0.003-1.017,0.003c0,0.664,0,1.223,0,1.813
			c0.33,0,0.613-0.003,0.897,0.001c0.527,0.006,0.914,0.217,0.931,0.789c0.018,0.578-0.355,0.807-0.889,0.82
			c-0.317,0.008-0.634,0.001-0.952,0.001c0,1.091,0,2.068,0,3.109c0.727,0,1.422,0.001,2.117,0c1.34-0.001,1.784-0.437,1.785-1.763
			c0.002-3.702,0.001-7.404-0.001-11.105c0-0.214-0.018-0.427-0.031-0.721c-1.06,0-2.082,0.017-3.104-0.004
			c-1.263-0.027-1.974-0.764-1.985-2.027c-0.008-0.913-0.001-1.826-0.001-2.787c-2.587,0-5.099-0.019-7.61,0.016
			c-0.529,0.007-0.96,0.36-1.075,0.914C25.513,19.672,25.521,20.131,25.479,20.664z M32.412,25.426
			c0.013-0.052,0.026-0.105,0.039-0.157c-0.658-0.619-1.317-1.239-2.1-1.976c0,0.698-0.028,1.217,0.018,1.729
			c0.013,0.144,0.231,0.375,0.369,0.386C31.293,25.452,31.853,25.426,32.412,25.426z M38.095,21.443
			c-0.777-0.727-1.443-1.35-2.173-2.033c-0.079,2.59-0.362,1.999,1.735,2.076C37.742,21.488,37.829,21.469,38.095,21.443z"/>
		<path class="grey-fill" d="M26.91,34.132c-1.268,0.001-2.536,0.006-3.805-0.001c-0.717-0.004-1.063-0.265-1.076-0.777
			c-0.013-0.531,0.373-0.832,1.095-0.833c2.558-0.003,5.117,0.001,7.675-0.003c0.538-0.001,0.965,0.146,1.032,0.757
			c0.056,0.513-0.289,0.844-0.92,0.852C29.577,34.142,28.244,34.131,26.91,34.132z"/>
		<path class="grey-fill" d="M26.905,37.552c-1.268,0.001-2.537,0.006-3.805-0.002c-0.715-0.004-1.061-0.268-1.07-0.782
			c-0.01-0.53,0.375-0.827,1.099-0.828c2.558-0.003,5.117,0.001,7.675-0.003c0.54-0.001,0.964,0.15,1.027,0.762
			c0.053,0.513-0.292,0.84-0.925,0.847C29.573,37.562,28.239,37.551,26.905,37.552z"/>
		<path class="grey-fill" d="M25.519,29.099c0.808,0,1.617,0.002,2.425-0.001c0.547-0.002,0.955,0.182,0.996,0.792
			c0.035,0.511-0.308,0.812-0.957,0.817c-1.66,0.013-3.321,0.013-4.981,0c-0.651-0.005-0.998-0.303-0.965-0.81
			c0.04-0.607,0.442-0.801,0.991-0.799C23.859,29.101,24.689,29.099,25.519,29.099z"/>

</svg>
