<?xml version="1.0" encoding="utf-8"?>
<!-- Generator: Adobe Illustrator 25.4.1, SVG Export Plug-In . SVG Version: 6.00 Build 0)  -->
<svg version="1.1" id="Layer_1" xmlns="http://www.w3.org/2000/svg" xmlns:xlink="http://www.w3.org/1999/xlink" x="0px" y="0px"
	 viewBox="0 0 50 50" style="enable-background:new 0 0 50 50;" xml:space="preserve">
<style type="text/css">
	.st0{display:none;}
	.st1{display:inline;}
	.st2{fill:#344593;}
	.st3{fill:#3E54A3;}
	.st4{fill:#2E4490;}
	.st5{fill:#122571;}
	.st6{opacity:0.5;fill:#031F60;enable-background:new    ;}
	.st7{fill:#BBDFFF;}
	.st8{fill:#FDB724;}
	.st9{fill:#E7478D;}
	.st10{fill:#BF2878;}
	.st11{fill:#27DEBF;}
	.st12{fill:#1BBC9D;}
	.st13{fill:#A33D64;}
	.st14{fill:#82294D;}
	.st15{fill:#0A4A80;}
	.st16{fill:#F1FCFF;}
	.st17{fill:#D6E6FF;}
	.st18{fill:#CEF3FF;}
	.st19{fill:#606060;}
	.st20{enable-background:new    ;}
	.st21{fill:#F19729;}
	.st22{fill:#FCB040;}
	.st23{fill:#FFCB49;}
	.st24{fill:#2E5677;}
	.st25{fill:#FF51CE;}
	.st26{fill:#EDE6A0;}
	.st27{fill:#FFF7B0;}
	.st28{fill:url(#SVGID_1_);}
	.st29{fill:url(#SVGID_00000132088931918087937670000012956478106997705356_);}
	.st30{display:none;fill:#CCCCCC;}
	.st31{display:inline;fill:#AAAAAA;}
	.st32{display:inline;fill:#C1C1C1;}
	.st33{display:inline;fill:#EDEDED;}
	.st34{display:inline;fill:none;stroke:#6D6D6D;stroke-width:0.05;stroke-miterlimit:10;}
	.st35{display:inline;opacity:0.8;fill:#494949;enable-background:new    ;}
	.st36{fill:#ADADAD;}
	.st37{fill:#8E8E8E;}
	.st38{fill:#36474F;}
	.st39{fill:#597380;}
	.st40{fill:#D7DDFD;}
	.st41{opacity:0.5;}
	.st42{fill:#263237;}
	.st43{fill:#FDD34F;}
	.st44{fill:#FDB202;}
</style>
<g id="Example" class="st0">
	<g class="st1">
		<g id="XMLID_4903_">
			<path id="XMLID_4905_" class="st2" d="M45.3,33.2v-4.6l0,0c0-0.9-0.6-1.8-1.7-2.4c-2.3-1.3-6-1.3-8.4,0c-1.2,0.7-1.7,1.6-1.7,2.4
				l0,0v4.5c0,0.9,0.6,1.8,1.7,2.4c2.3,1.3,6,1.3,8.4,0C44.8,34.9,45.3,34.1,45.3,33.2L45.3,33.2L45.3,33.2L45.3,33.2z"/>
			<path id="XMLID_4904_" class="st2" d="M45.3,33.2v-4.6l0,0c0-0.9-0.6-1.8-1.7-2.4c-2.3-1.3-6-1.3-8.4,0c-1.2,0.7-1.7,1.6-1.7,2.4
				l0,0v4.5c0,0.9,0.6,1.8,1.7,2.4c2.3,1.3,6,1.3,8.4,0C44.8,34.9,45.3,34.1,45.3,33.2L45.3,33.2L45.3,33.2L45.3,33.2z"/>
		</g>
		<polygon id="XMLID_4900_" class="st3" points="39.4,23 29.7,28.6 39.4,34.2 49.2,28.6 		"/>
		<path id="XMLID_4899_" class="st4" d="M44.3,31.4l-4.8-2.7c-0.1,0-0.2,0-0.2,0.1s0,0.2,0.1,0.2l4.6,2.6L44.3,31.4z"/>
		<polygon id="XMLID_4896_" class="st5" points="29.7,28.6 29.7,29 39.4,34.6 39.4,34.2 		"/>
		<polygon id="XMLID_4883_" class="st4" points="49.2,28.6 49.2,29 39.4,34.6 39.4,34.2 		"/>
		<polygon id="XMLID_4876_" class="st6" points="33.5,31.2 39.4,35.2 45.3,31.2 39.4,34.6 		"/>
		<g id="XMLID_4823_">
			<path id="XMLID_4835_" class="st7" d="M44.7,36.2c-0.1,0-0.2-0.1-0.2-0.2v-4c0-0.2-0.1-0.4-0.3-0.4l-4.9-2.8
				c-0.1,0-0.1-0.2-0.1-0.2c0-0.1,0.2-0.1,0.2-0.1l4.9,2.8c0.3,0.2,0.4,0.4,0.4,0.7v4C44.8,36.1,44.7,36.2,44.7,36.2z"/>
		</g>
		<path class="st8" d="M45.3,39.3L45,36.6c0.1-0.1,0.1-0.2,0-0.2l0,0l0,0l0,0v-0.1l0,0l0,0l0,0c0-0.2-0.2-0.4-0.4-0.4c0,0,0,0-0.1,0
			l0,0l0,0c0,0,0,0-0.1,0c0,0,0,0-0.1,0c0,0,0,0-0.1,0c0,0,0,0,0,0.1l0,0v0.1c0,0.1,0,0.2,0.1,0.3l0,0c-0.1,0.1,0,0.2,0,0.2L44,39.3
			c0,0.1,0.1,0.2,0.3,0.3l0,0h0.1l0,0c0.1,0,0.2,0.1,0.3,0.1l0,0l0,0l0,0l0,0l0,0c0.1,0,0.2,0,0.3-0.1l0,0h0.1l0,0
			C45.3,39.5,45.3,39.4,45.3,39.3z"/>
	</g>
	<g id="XMLID_3738_" class="st1">
		<path id="XMLID_4404_" class="st9" d="M12.4,36.1c1.1-0.8,1.8-2.7,1.7-4c-0.1-1.4-1.2-2-1.7-2.3l0,0c-1.1-0.6-2.8-0.6-3.9,0l0,0
			C8,30.1,7,30.7,6.8,32.1c-0.1,1.3,0.6,3.2,1.7,4l0,0c0.1,0,0.1,0.1,0.2,0.1c1,0.6,2.6,0.6,3.6,0l0,0
			C12.3,36.2,12.4,36.1,12.4,36.1L12.4,36.1z"/>
		<path id="XMLID_4395_" class="st10" d="M9.9,30.8c-0.3,0.2-0.3,0.4,0,0.6s0.8,0.2,1.1,0s0.3-0.4,0-0.6
			C10.7,30.6,10.2,30.6,9.9,30.8z"/>
		<g id="XMLID_4426_">
			<path id="XMLID_2198_" class="st11" d="M10.5,31.2c0,0-0.9,0-1.4-0.7s0-1.9,0-1.9s1.1,0.1,1.7,1C11.2,30.4,10.5,31.2,10.5,31.2z"
				/>
			<path id="XMLID_4431_" class="st12" d="M9,30.5c0.5,0.7,1.4,0.7,1.4,0.7C10.3,29.6,9,28.6,9,28.6S8.5,29.8,9,30.5z"/>
		</g>
		<path id="XMLID_4403_" class="st13" d="M10.5,31.2c0,0,0-1.3,0.7-1.9s1.2-0.6,1.2-0.6c0.4,0,0.9,0.4,0.7,0.4c0,0-0.9,0-1.5,0.5
			s-0.9,1.5-0.9,1.6c0,0,0,0.1-0.1,0.1C10.5,31.3,10.5,31.2,10.5,31.2z"/>
		<path id="XMLID_4496_" class="st14" d="M12.4,28.7c-0.1,0-0.1,0.1,0.2,0.3c0.2,0.1,0.4,0.2,0.5,0.2l0,0
			C13.3,29,12.8,28.7,12.4,28.7z"/>
	</g>
	<g class="st1">
		<g>
			<path class="st15" d="M26,28.8L26,28.8c-1,0.6-1.9,1-2.8,1.2l0,0c0,0,0,0-0.1,0l-0.5,0.2h-0.1c-0.1,0-0.2,0.1-0.3,0.1h-0.1
				c-0.1,0-0.2,0.1-0.2,0.1h-0.1c-0.5,0.2-0.9,0.4-1.4,0.7c-0.1,0.1-0.2,0.1-0.3,0.2L20,31.4c-0.4,0.3-2,1.5-2.9,2.5l-0.6,0.6
				L16,34.6c-1,0.2-2,0.5-3,1.1c-0.1,0.1-0.2,0.1-0.3,0.2c-0.3,0.2-0.5,0.3-0.8,0.5l0,0l-0.1,0.1c-0.1,0.1-0.2,0.1-0.3,0.2l0,0l0,0
				c-0.4,0.3-0.9,0.7-1.3,1.1c-0.1,0.1-0.2,0.2-0.3,0.3c-0.3,0.3-0.7,0.6-1,0.9H8.8c-0.3,0.3-0.7,0.5-1,0.8
				c-0.2,0.2-0.5,0.3-0.7,0.5H7l13.7,8.3h0.1c0.8-0.5,1.7-1.2,2.5-1.9c0.5-0.5,1.1-0.9,1.7-1.4c1.2-0.9,2.3-1.5,3.2-1.8
				c0.7-0.3,1.4-0.5,2.1-0.6l0.5-0.6c0.7-0.7,1.5-1.3,2.4-1.8c1.5-1,3.2-1.8,4.9-2.5c0.6-0.2,1.2-0.5,1.6-0.7l0.2-0.1L26,28.8z"/>
			<g>
				<g>
					<g>
						<path class="st16" d="M39.1,36.7c-0.5,0.3-0.7,0.4-1.2,0.6c-0.3,0.1-0.5,0.2-0.8,0.3c-0.2,0.1-0.3,0.1-0.5,0.1
							c-0.7,0.2-1.4,0.4-2,0.8c-0.2,0.1-0.4,0.2-0.6,0.3c-1.3,0.8-2.6,2-3.9,3.5l-2.5-1.5l-11-6.7c1.3-1.5,2.6-2.7,3.9-3.5
							c0.2-0.1,0.4-0.2,0.6-0.3c0.7-0.4,1.4-0.6,2-0.8c0.2,0,0.3-0.1,0.5-0.1c0.3-0.1,0.5-0.2,0.8-0.3c0.5-0.2,0.7-0.3,1.2-0.6
							L39.1,36.7z"/>
						<g>
							<path class="st16" d="M30.1,42.3c-1.3,0.1-2.6,0.5-3.9,1.3c-0.2,0.1-0.4,0.2-0.6,0.4c-0.7,0.5-1.4,1-2,1.7
								c-0.2,0.2-0.3,0.3-0.5,0.4c-0.3,0.3-0.6,0.5-0.9,0.7c-0.5,0.4-0.8,0.6-1.3,0.9L7.5,39.5C8,39.2,8.3,39,8.8,38.6
								c0.3-0.2,0.6-0.5,0.9-0.7c0.2-0.1,0.3-0.3,0.5-0.4c0.7-0.6,1.4-1.2,2-1.7c0.2-0.1,0.4-0.3,0.6-0.4c1.3-0.8,2.6-1.2,3.9-1.3
								l11,6.7L30.1,42.3z"/>
						</g>
					</g>
					<polygon class="st17" points="7.5,39.5 7.3,40.3 20.7,48.5 20.9,47.7 					"/>
					<path class="st18" d="M39.4,37.1c-0.9,0.6-1.8,1-2.7,1.2c0,0,0,0-0.1,0s-0.2,0-0.3,0.1c-0.1,0-0.2,0.1-0.3,0.1
						s-0.2,0.1-0.3,0.1c-0.6,0.2-1.2,0.5-1.8,0.9c-0.1,0.1-0.2,0.1-0.3,0.2c-1,0.7-2,1.5-3,2.5L30,42.8l-0.6,0.1c-1,0.2-2,0.5-3,1.1
						c-0.1,0.1-0.2,0.1-0.3,0.2c-0.3,0.2-0.5,0.3-0.8,0.5c-0.6,0.4-1.1,0.9-1.7,1.4c-0.1,0.1-0.2,0.2-0.3,0.3
						c-0.9,0.9-1.8,1.6-2.7,2.2l0.2-0.8c0.5-0.3,0.8-0.5,1.3-0.9c0.3-0.2,0.6-0.5,0.9-0.7c0.2-0.1,0.3-0.3,0.5-0.4
						c0.7-0.6,1.4-1.2,2-1.7c0.2-0.1,0.4-0.3,0.6-0.4c1.3-0.8,2.6-1.2,3.9-1.3c1.3-1.5,2.6-2.7,3.9-3.5c0.2-0.1,0.4-0.2,0.6-0.3
						c0.7-0.4,1.4-0.6,2-0.8c0.2,0,0.3-0.1,0.5-0.1c0.3-0.1,0.5-0.2,0.8-0.3c0.5-0.2,0.7-0.3,1.2-0.6L39.4,37.1z"/>
				</g>
			</g>
			<g>
				<path class="st19" d="M17.8,34.6C17.9,34.6,17.9,34.6,17.8,34.6c1.2-1.4,2.5-2.5,3.7-3.2c0.2-0.1,0.4-0.2,0.5-0.3
					c0.7-0.3,1.3-0.6,2-0.8c0.2,0,0.3-0.1,0.5-0.1c0.3-0.1,0.5-0.2,0.8-0.3c0.4-0.2,0.7-0.3,1.1-0.5c0,0,0,0,0-0.1s0,0-0.1,0
					c-0.4,0.2-0.6,0.3-1,0.5c-0.3,0.1-0.5,0.2-0.8,0.3c-0.2,0.1-0.3,0.1-0.5,0.1c-0.7,0.2-1.3,0.4-2,0.8c-0.2,0.1-0.4,0.2-0.6,0.3
					C20.3,32.1,19,33.2,17.8,34.6C17.8,34.5,17.8,34.6,17.8,34.6L17.8,34.6z"/>
				<path class="st19" d="M25.4,30.6c-0.2,0.1-0.3,0.1-0.5,0.1c-0.7,0.2-1.3,0.4-2,0.8c-0.2,0.1-0.4,0.2-0.6,0.3
					c-1.2,0.7-2.5,1.8-3.7,3.2v0.1l0,0l0,0c1.2-1.4,2.5-2.5,3.7-3.2c0.2-0.1,0.4-0.2,0.6-0.3c0.7-0.4,1.3-0.6,2-0.8
					C25.1,30.8,25.3,30.7,25.4,30.6c0.3,0,0.6-0.1,0.8-0.2c0.4-0.2,0.6-0.3,1-0.5c0,0,0,0,0-0.1c0,0,0,0-0.1,0
					c-0.4,0.2-0.6,0.3-1,0.5C25.9,30.4,25.7,30.5,25.4,30.6z"/>
				<path class="st19" d="M26.2,31.1c-0.2,0.1-0.3,0.1-0.5,0.1c-0.7,0.2-1.3,0.4-2,0.8c-0.2,0.1-0.4,0.2-0.6,0.3
					c-1.2,0.7-2.5,1.8-3.7,3.2v0.1l0,0l0,0c1.2-1.4,2.5-2.5,3.7-3.2c0.2-0.1,0.4-0.2,0.6-0.3c0.7-0.4,1.4-0.6,2-0.8
					C25.9,31.3,26.1,31.2,26.2,31.1c0.3,0,0.6-0.1,0.8-0.2c0.4-0.2,0.6-0.3,1-0.5c0,0,0,0,0-0.1c0,0,0,0-0.1,0
					c-0.4,0.2-0.6,0.3-1,0.5C26.8,30.9,26.5,31,26.2,31.1z"/>
				<path class="st19" d="M27.1,31.5c-0.2,0.1-0.3,0.1-0.5,0.1c-0.7,0.2-1.3,0.4-2,0.8c-0.2,0.1-0.4,0.2-0.6,0.3
					c-1.2,0.7-2.5,1.8-3.7,3.2V36l0,0l0,0c1.2-1.4,2.5-2.5,3.7-3.2c0.2-0.1,0.4-0.2,0.6-0.3c0.7-0.4,1.4-0.6,2-0.8
					C26.7,31.7,26.9,31.7,27.1,31.5c0.3,0,0.6-0.1,0.8-0.2c0.4-0.2,0.6-0.3,1-0.5c0,0,0,0,0-0.1c0,0,0,0-0.1,0
					c-0.4,0.2-0.6,0.3-1,0.5C27.6,31.4,27.3,31.5,27.1,31.5z"/>
				<path class="st19" d="M27.9,32c-0.2,0.1-0.3,0.1-0.5,0.1c-0.7,0.2-1.4,0.4-2,0.8c-0.2,0.1-0.4,0.2-0.6,0.3
					c-1.2,0.7-2.5,1.9-3.7,3.2v0.1l0,0l0,0c1.2-1.4,2.5-2.5,3.7-3.2c0.2-0.1,0.4-0.2,0.6-0.3c0.7-0.4,1.4-0.6,2-0.8
					C27.6,32.2,27.8,32.2,27.9,32c0.3,0,0.6-0.1,0.8-0.2c0.4-0.2,0.6-0.3,1-0.5c0,0,0,0,0-0.1c0,0,0,0-0.1,0c-0.4,0.2-0.6,0.3-1,0.5
					C28.4,31.8,28.1,31.9,27.9,32z"/>
				<path class="st19" d="M28.7,32.5c-0.2,0.1-0.3,0.1-0.5,0.1c-0.7,0.2-1.4,0.4-2,0.8c-0.2,0.1-0.4,0.2-0.6,0.3
					c-1.2,0.7-2.5,1.9-3.7,3.2V37l0,0l0,0c1.2-1.4,2.5-2.5,3.7-3.2c0.2-0.1,0.4-0.2,0.6-0.3c0.7-0.4,1.4-0.6,2-0.8
					C28.4,32.7,28.6,32.6,28.7,32.5c0.3,0,0.6-0.1,0.8-0.2c0.4-0.2,0.6-0.3,1-0.5c0,0,0,0,0-0.1c0,0,0,0-0.1,0
					c-0.3,0.2-0.6,0.3-0.9,0.5C29.2,32.3,29,32.4,28.7,32.5z"/>
				<path class="st19" d="M29.6,33c-0.2,0.1-0.3,0.1-0.5,0.1c-0.7,0.2-1.4,0.4-2.1,0.8c-0.2,0.1-0.4,0.2-0.6,0.3
					c-1.2,0.7-2.5,1.9-3.8,3.3v0.1l0,0l0,0c1.2-1.4,2.5-2.5,3.7-3.2c0.2-0.1,0.4-0.2,0.6-0.3c0.7-0.4,1.4-0.6,2-0.8
					C29.2,33.2,29.4,33.1,29.6,33c0.3,0,0.6-0.1,0.8-0.2c0.4-0.2,0.6-0.3,0.9-0.5c0,0,0,0,0-0.1c0,0,0,0-0.1,0
					c-0.3,0.2-0.5,0.3-0.9,0.4C30.1,32.8,29.8,32.9,29.6,33z"/>
				<path class="st19" d="M30.4,33.5c-0.2,0.1-0.3,0.1-0.5,0.1c-0.7,0.2-1.4,0.4-2.1,0.8c-0.2,0.1-0.4,0.2-0.6,0.3
					c-1.2,0.7-2.5,1.9-3.8,3.3v0.1l0,0l0,0c1.2-1.4,2.5-2.5,3.7-3.2c0.2-0.1,0.4-0.2,0.6-0.3c0.7-0.4,1.4-0.6,2-0.8
					C30.1,33.7,30.2,33.6,30.4,33.5c0.3,0,0.5-0.1,0.8-0.2c0.4-0.2,0.6-0.3,0.9-0.4c0,0,0,0,0-0.1c0,0,0,0-0.1,0
					c-0.3,0.2-0.5,0.3-0.9,0.4C30.9,33.3,30.6,33.4,30.4,33.5z"/>
				<path class="st19" d="M31.2,33.9C31,34,30.9,34,30.7,34.1c-0.7,0.2-1.4,0.4-2.1,0.8c-0.2,0.1-0.4,0.2-0.6,0.3
					c-1.2,0.7-2.5,1.9-3.8,3.3v0.1l0,0l0,0c1.2-1.4,2.5-2.5,3.8-3.3c0.2-0.1,0.4-0.2,0.6-0.3c0.7-0.4,1.4-0.6,2-0.8
					C30.9,34.1,31.1,34.1,31.2,33.9c0.3,0,0.5-0.1,0.8-0.2c0.4-0.2,0.6-0.2,0.9-0.4c0,0,0,0,0-0.1c0,0,0,0-0.1,0
					c-0.3,0.2-0.5,0.3-0.9,0.4C31.7,33.8,31.5,33.9,31.2,33.9z"/>
				<path class="st19" d="M32,34.4c-0.2,0.1-0.3,0.1-0.5,0.1c-0.7,0.2-1.4,0.4-2.1,0.8c-0.2,0.1-0.4,0.2-0.6,0.3
					c-1.2,0.7-2.6,1.9-3.8,3.3V39l0,0l0,0c1.2-1.4,2.5-2.5,3.8-3.3c0.2-0.1,0.4-0.2,0.6-0.3c0.7-0.4,1.4-0.6,2-0.8
					C31.7,34.6,31.9,34.6,32,34.4c0.3,0,0.5-0.1,0.8-0.2c0.4-0.2,0.6-0.2,0.9-0.4c0,0,0,0,0-0.1c0,0,0,0-0.1,0
					c-0.3,0.2-0.5,0.3-0.9,0.4C32.6,34.2,32.3,34.3,32,34.4z"/>
				<path class="st19" d="M32.9,34.9C32.7,35,32.6,35,32.4,35c-0.7,0.2-1.4,0.4-2.1,0.8c-0.2,0.1-0.4,0.2-0.6,0.3
					c-1.2,0.8-2.6,1.9-3.8,3.3v0.1l0,0l0,0c1.2-1.4,2.5-2.5,3.8-3.3c0.2-0.1,0.4-0.2,0.6-0.3c0.7-0.4,1.4-0.6,2.1-0.8
					C32.6,35.1,32.7,35,32.9,34.9c0.3,0,0.5-0.1,0.8-0.2c0.3-0.1,0.6-0.2,0.9-0.4c0,0,0,0,0-0.1c0,0,0,0-0.1,0
					c-0.3,0.2-0.5,0.3-0.8,0.4C33.4,34.7,33.1,34.8,32.9,34.9z"/>
				<path class="st19" d="M33.7,35.4c-0.2,0.1-0.3,0.1-0.5,0.1c-0.7,0.2-1.4,0.4-2.1,0.8c-0.2,0.1-0.4,0.2-0.6,0.3
					c-1.2,0.8-2.6,1.9-3.8,3.3V40l0,0l0,0c1.2-1.4,2.6-2.5,3.8-3.3c0.2-0.1,0.4-0.2,0.6-0.3c0.7-0.4,1.4-0.6,2.1-0.8
					C33.4,35.6,33.6,35.5,33.7,35.4c0.3,0,0.5-0.1,0.8-0.2c0.3-0.1,0.5-0.2,0.8-0.4c0,0,0,0,0-0.1c0,0,0,0-0.1,0
					c-0.3,0.2-0.5,0.3-0.8,0.4C34.2,35.2,34,35.3,33.7,35.4z"/>
				<path class="st19" d="M34.5,35.8c-0.2,0.1-0.3,0.1-0.5,0.1c-0.7,0.2-1.4,0.4-2.1,0.8c-0.2,0.1-0.4,0.2-0.6,0.3
					c-1.3,0.8-2.6,1.9-3.8,3.3v0.1l0,0l0,0c1.2-1.4,2.6-2.6,3.8-3.3c0.2-0.1,0.4-0.2,0.6-0.3c0.7-0.4,1.4-0.6,2.1-0.8
					C34.2,36,34.4,36,34.5,35.8c0.3,0,0.5-0.1,0.8-0.2c0.3-0.1,0.5-0.2,0.8-0.4c0,0,0,0,0-0.1c0,0,0,0-0.1,0
					c-0.3,0.2-0.5,0.2-0.8,0.4C35,35.7,34.8,35.8,34.5,35.8z"/>
				<path class="st19" d="M35.4,36.3c-0.2,0.1-0.3,0.1-0.5,0.1c-0.7,0.2-1.4,0.4-2.1,0.8c-0.2,0.1-0.4,0.2-0.6,0.3
					c-1.3,0.8-2.6,1.9-3.8,3.3v0.1l0,0l0,0c1.3-1.4,2.6-2.6,3.8-3.3c0.2-0.1,0.4-0.2,0.6-0.3c0.7-0.4,1.4-0.6,2.1-0.8
					C35.1,36.5,35.2,36.5,35.4,36.3c0.3,0,0.5-0.1,0.8-0.2c0.3-0.1,0.5-0.2,0.8-0.4c0,0,0,0,0-0.1c0,0,0,0-0.1,0
					c-0.2,0.1-0.4,0.2-0.8,0.4C35.9,36.2,35.6,36.2,35.4,36.3z"/>
				<path class="st19" d="M37.7,36.2c-0.3,0.1-0.5,0.2-0.8,0.4c-0.3,0.1-0.5,0.2-0.8,0.3C35.9,37,35.8,37,35.6,37
					c-0.7,0.2-1.4,0.4-2.1,0.8c-0.2,0.1-0.4,0.2-0.6,0.3c-1.3,0.8-2.6,1.9-3.9,3.3v0.1l0,0l0,0c1.3-1.4,2.6-2.6,3.8-3.3
					c0.2-0.1,0.4-0.2,0.6-0.3c0.7-0.4,1.4-0.6,2.1-0.8c0.2,0,0.3-0.1,0.5-0.1c0.2-0.1,0.5-0.2,0.8-0.3
					C37.3,36.5,37.5,36.4,37.7,36.2C37.8,36.3,37.8,36.2,37.7,36.2C37.8,36.2,37.7,36.2,37.7,36.2z"/>
				<path class="st19" d="M10.6,38.6c0.2-0.1,0.3-0.3,0.5-0.4c0.7-0.6,1.3-1.2,2-1.7c0.2-0.1,0.4-0.2,0.6-0.4
					c1.2-0.7,2.5-1.2,3.7-1.3c0,0,0,0,0-0.1c0,0,0,0-0.1,0c-1.2,0.1-2.5,0.5-3.7,1.3c-0.2,0.1-0.4,0.2-0.6,0.4c-0.7,0.5-1.4,1-2,1.7
					C10.9,38.3,10.7,38.4,10.6,38.6c-0.4,0.2-0.7,0.4-0.9,0.7c-0.4,0.3-0.7,0.5-1,0.7c0,0,0,0,0,0.1l0,0l0,0c0.3-0.2,0.6-0.4,1-0.7
					S10.3,38.9,10.6,38.6z"/>
				<path class="st19" d="M11.5,39.1c0.2-0.1,0.3-0.3,0.5-0.4c0.7-0.6,1.3-1.2,2-1.7c0.2-0.1,0.4-0.2,0.6-0.4
					c1.2-0.7,2.5-1.2,3.7-1.2c0,0,0,0,0-0.1c0,0,0-0.1-0.1,0c-1.2,0.1-2.5,0.5-3.7,1.3c-0.2,0.1-0.4,0.2-0.6,0.4
					c-0.7,0.5-1.4,1-2,1.7C11.7,38.8,11.6,38.9,11.5,39.1c-0.4,0.2-0.7,0.4-0.9,0.7c-0.4,0.3-0.7,0.5-1,0.7c0,0,0,0,0,0.1l0,0l0,0
					c0.3-0.2,0.6-0.4,1-0.7C10.9,39.6,11.2,39.4,11.5,39.1z"/>
				<path class="st19" d="M12.3,39.6c0.2-0.1,0.3-0.3,0.5-0.4c0.7-0.6,1.3-1.2,2-1.7c0.2-0.1,0.4-0.3,0.6-0.4
					c1.2-0.7,2.4-1.2,3.6-1.2c0,0,0,0,0-0.1s0,0-0.1,0c-1.2,0.1-2.5,0.5-3.7,1.3c-0.2,0.1-0.4,0.2-0.6,0.4c-0.7,0.5-1.4,1-2,1.7
					C12.5,39.2,12.4,39.4,12.3,39.6c-0.4,0.2-0.7,0.4-0.9,0.7c-0.4,0.3-0.7,0.5-1,0.7c0,0,0,0,0,0.1l0,0l0,0c0.3-0.2,0.6-0.4,1-0.7
					C11.7,40.1,12,39.9,12.3,39.6z"/>
				<path class="st19" d="M13.1,40.1c0.2-0.1,0.3-0.3,0.5-0.4c0.7-0.6,1.3-1.2,2-1.7c0.2-0.1,0.4-0.3,0.6-0.4
					c1.2-0.7,2.4-1.1,3.6-1.2c0,0,0,0,0-0.1c0,0,0,0-0.1,0c-1.2,0.1-2.4,0.5-3.6,1.3c-0.2,0.1-0.4,0.2-0.6,0.4c-0.7,0.5-1.4,1-2,1.7
					C13.3,39.7,13.2,39.9,13.1,40.1c-0.4,0.2-0.6,0.4-0.9,0.7c-0.4,0.3-0.7,0.5-1,0.7c0,0,0,0,0,0.1l0,0l0,0c0.3-0.2,0.6-0.4,1-0.7
					C12.5,40.6,12.8,40.4,13.1,40.1z"/>
				<path class="st19" d="M13.9,40.6c0.2-0.1,0.3-0.3,0.5-0.4c0.7-0.6,1.3-1.2,2-1.7c0.2-0.1,0.4-0.3,0.6-0.4
					c1.2-0.7,2.4-1.1,3.6-1.2c0,0,0,0,0-0.1c0,0,0,0-0.1,0c-1.2,0.1-2.4,0.5-3.6,1.3c-0.2,0.1-0.4,0.2-0.6,0.4c-0.7,0.5-1.4,1-2,1.7
					C14.2,40.2,14,40.4,13.9,40.6c-0.4,0.2-0.6,0.4-0.9,0.7c-0.4,0.3-0.7,0.5-1,0.7c0,0,0,0,0,0.1l0,0l0,0c0.3-0.2,0.6-0.4,1-0.7
					C13.3,41.1,13.6,40.8,13.9,40.6z"/>
				<path class="st19" d="M14.7,41.1c0.2-0.1,0.3-0.3,0.5-0.4c0.7-0.6,1.3-1.2,2-1.7c0.2-0.1,0.4-0.3,0.6-0.4
					c1.2-0.7,2.4-1.1,3.5-1.2c0,0,0,0,0-0.1c0,0,0,0-0.1,0c-1.2,0.1-2.4,0.6-3.6,1.3c-0.2,0.1-0.4,0.2-0.6,0.4c-0.7,0.5-1.4,1-2,1.7
					C15,40.7,14.8,40.8,14.7,41.1c-0.4,0.2-0.6,0.4-0.9,0.7c-0.4,0.3-0.7,0.5-1,0.7c0,0,0,0,0,0.1l0,0l0,0c0.3-0.2,0.6-0.4,1-0.7
					S14.4,41.3,14.7,41.1z"/>
				<path class="st19" d="M15.6,41.5c0.2-0.1,0.3-0.3,0.5-0.4c0.7-0.6,1.3-1.2,2-1.7c0.2-0.1,0.4-0.3,0.6-0.4
					c1.1-0.7,2.4-1.1,3.5-1.2c0,0,0,0,0-0.1s0,0-0.1,0c-1.2,0.1-2.4,0.6-3.5,1.3c-0.2,0.1-0.4,0.2-0.6,0.4c-0.7,0.5-1.4,1-2,1.7
					C15.8,41.2,15.6,41.3,15.6,41.5c-0.4,0.2-0.6,0.4-0.9,0.7c-0.4,0.3-0.7,0.5-1,0.7c0,0,0,0,0,0.1l0,0l0,0c0.3-0.2,0.6-0.4,1-0.7
					C15,42.1,15.3,41.8,15.6,41.5z"/>
				<path class="st19" d="M16.4,42c0.2-0.1,0.3-0.3,0.5-0.4c0.7-0.6,1.3-1.2,2-1.7c0.2-0.1,0.4-0.3,0.6-0.4c1.1-0.7,2.3-1.1,3.5-1.2
					c0,0,0,0,0-0.1s0,0-0.1,0c-1.2,0.1-2.4,0.6-3.5,1.3c-0.2,0.1-0.4,0.2-0.6,0.4c-0.7,0.5-1.4,1-2.1,1.7
					C16.6,41.7,16.5,41.8,16.4,42c-0.4,0.2-0.6,0.4-0.9,0.7c-0.4,0.3-0.7,0.5-1,0.7c0,0,0,0,0,0.1l0,0l0,0c0.3-0.2,0.6-0.4,1.1-0.7
					C15.8,42.5,16.1,42.3,16.4,42z"/>
				<path class="st19" d="M17.2,42.5c0.2-0.1,0.3-0.3,0.5-0.4c0.7-0.6,1.4-1.2,2-1.7c0.2-0.1,0.4-0.3,0.6-0.4
					c1.1-0.7,2.3-1.1,3.4-1.2c0,0,0,0,0-0.1s0,0-0.1,0c-1.1,0.1-2.3,0.6-3.5,1.3c-0.2,0.1-0.4,0.2-0.6,0.4c-0.7,0.5-1.4,1-2.1,1.7
					C17.4,42.2,17.3,42.3,17.2,42.5c-0.4,0.2-0.6,0.4-0.9,0.6c-0.4,0.3-0.7,0.5-1.1,0.7c0,0,0,0,0,0.1l0,0l0,0
					c0.3-0.2,0.6-0.4,1.1-0.8C16.6,43,16.9,42.8,17.2,42.5z"/>
				<path class="st19" d="M18,43c0.2-0.1,0.3-0.3,0.5-0.4c0.7-0.6,1.4-1.2,2-1.7c0.2-0.1,0.4-0.3,0.6-0.4c1.1-0.7,2.3-1.1,3.4-1.2
					c0,0,0,0,0-0.1s0,0-0.1,0c-1.1,0.1-2.3,0.6-3.5,1.3c-0.2,0.1-0.4,0.2-0.6,0.4c-0.7,0.5-1.4,1.1-2.1,1.7
					C18.3,42.6,18.1,42.8,18,43c-0.4,0.2-0.6,0.4-0.9,0.6c-0.4,0.3-0.7,0.6-1.1,0.8c0,0,0,0,0,0.1l0,0l0,0c0.3-0.2,0.7-0.4,1.1-0.8
					C17.4,43.5,17.7,43.3,18,43z"/>
				<path class="st19" d="M18.8,43.5c0.2-0.1,0.3-0.3,0.5-0.4c0.7-0.6,1.4-1.2,2-1.7c0.2-0.1,0.4-0.3,0.6-0.4
					c1.1-0.7,2.3-1.1,3.4-1.2c0,0,0,0,0-0.1c0,0,0,0-0.1,0c-1.1,0.1-2.3,0.6-3.4,1.3c-0.2,0.1-0.4,0.2-0.6,0.4
					c-0.7,0.5-1.4,1.1-2.1,1.7C19.1,43.1,18.9,43.3,18.8,43.5c-0.4,0.2-0.6,0.4-0.9,0.6c-0.4,0.3-0.7,0.6-1.1,0.8c0,0,0,0,0,0.1l0,0
					l0,0c0.3-0.2,0.7-0.4,1.1-0.8C18.3,44,18.5,43.7,18.8,43.5z"/>
				<path class="st19" d="M19.6,44c0.2-0.1,0.3-0.3,0.5-0.4c0.7-0.6,1.4-1.2,2.1-1.7c0.2-0.1,0.4-0.3,0.6-0.4
					c1.1-0.7,2.3-1.1,3.4-1.2c0,0,0,0,0-0.1c0,0,0,0-0.1,0c-1.1,0.2-2.3,0.6-3.4,1.3c-0.2,0.1-0.4,0.2-0.6,0.4
					c-0.7,0.5-1.4,1.1-2.1,1.7C19.9,43.6,19.7,43.8,19.6,44c-0.4,0.2-0.6,0.4-0.9,0.6c-0.4,0.3-0.8,0.6-1.1,0.8c0,0,0,0,0,0.1l0,0
					l0,0c0.3-0.2,0.7-0.4,1.1-0.8C19.1,44.5,19.4,44.2,19.6,44z"/>
				<path class="st19" d="M20.5,44.5c0.2-0.1,0.3-0.3,0.5-0.4c0.7-0.6,1.4-1.2,2.1-1.7c0.2-0.1,0.4-0.3,0.6-0.4
					c1.1-0.7,2.2-1.1,3.3-1.2c0,0,0,0,0-0.1c0,0,0,0-0.1,0c-1.1,0.2-2.3,0.6-3.4,1.3c-0.2,0.1-0.4,0.2-0.6,0.4
					c-0.7,0.5-1.4,1.1-2.1,1.7C20.7,44.1,20.5,44.2,20.5,44.5c-0.4,0.2-0.6,0.4-0.9,0.6c-0.4,0.3-0.8,0.6-1.1,0.8c0,0,0,0,0,0.1l0,0
					l0,0c0.3-0.2,0.7-0.4,1.1-0.8C19.9,45,20.2,44.7,20.5,44.5z"/>
				<path class="st19" d="M21.3,44.9c0.2-0.1,0.3-0.3,0.5-0.4c0.7-0.7,1.4-1.2,2.1-1.7c0.2-0.1,0.4-0.3,0.6-0.4
					c1.1-0.6,2.2-1.1,3.3-1.2c0,0,0,0,0-0.1c0,0,0,0-0.1,0c-1.1,0.2-2.3,0.6-3.3,1.3c-0.2,0.1-0.4,0.2-0.6,0.4
					c-0.7,0.5-1.4,1.1-2.1,1.7C21.5,44.6,21.4,44.7,21.3,44.9c-0.4,0.2-0.6,0.4-0.9,0.6c-0.4,0.3-0.8,0.6-1.1,0.8c0,0,0,0,0,0.1l0,0
					l0,0c0.4-0.2,0.7-0.4,1.1-0.8C20.7,45.4,21,45.2,21.3,44.9z"/>
				<path class="st19" d="M25.2,42.8c-0.2,0.1-0.4,0.2-0.6,0.4c-0.7,0.5-1.4,1.1-2.1,1.7c-0.2,0.1-0.3,0.3-0.5,0.4
					c-0.3,0.3-0.6,0.5-0.9,0.7c-0.4,0.3-0.8,0.6-1.1,0.8c0,0,0,0,0,0.1l0,0l0,0c0.4-0.2,0.7-0.4,1.1-0.8c0.3-0.2,0.6-0.5,0.9-0.7
					c0.2-0.1,0.3-0.3,0.5-0.4c0.7-0.7,1.4-1.2,2.1-1.7C24.8,43.2,25,43,25.2,42.8c1.1-0.6,2.2-1,3.3-1.2c0,0,0,0,0-0.1
					c0,0,0,0-0.1,0C27.4,41.7,26.2,42.2,25.2,42.8z"/>
			</g>
		</g>
		<g>
			<g>
				<g>
					<g>
						<g class="st20">
							<g>
								<path class="st21" d="M29.1,41.9l-7.9-4.6l-0.1-0.1L29.1,41.9L29.1,41.9z"/>
							</g>
							<g>
								<path class="st22" d="M29.2,41.6c-0.1,0.1-0.1,0.1-0.1,0.2l-7.9-4.6l0.1-0.2L29.2,41.6z"/>
							</g>
							<g>
								<path class="st23" d="M29.4,41.5h-0.1c0,0-0.1,0-0.1,0.1l-8-4.6l0.2-0.1L29.4,41.5z"/>
							</g>
						</g>
					</g>
					<g>
						<polygon class="st24" points="30.3,42.2 30.3,42.3 30.3,42.3 30.3,42.3 30.2,42.3 30.3,42.3 						"/>
					</g>
					<path d="M30.3,42.2L30,42l0,0c0,0,0,0-0.1,0l-0.1,0.1l0,0L30.3,42.2C30.3,42.3,30.3,42.3,30.3,42.2
						C30.3,42.3,30.3,42.3,30.3,42.2z"/>
					<path class="st25" d="M21.7,37h-0.1l-0.1,0.1c0,0.1-0.1,0.1-0.1,0.2v0.1L21,37.1c0,0-0.1,0-0.1-0.1s0-0.1,0.1-0.2
						c0-0.1,0.1-0.1,0.1-0.1h0.1l0,0L21.7,37z"/>
					<path class="st26" d="M29.4,41.5L29.4,41.5L29.4,41.5z"/>
				</g>
				<path class="st27" d="M29.4,41.5L29.4,41.5L29.4,41.5c-0.1,0-0.2,0-0.2,0s0,0,0,0.1l0,0c0,0-0.1,0.1-0.1,0.2l0,0v0.1l0,0
					l0.8,0.3l0,0c0,0,0-0.1,0.1-0.1c0,0,0,0,0.1,0L29.4,41.5z"/>
			</g>
			
				<linearGradient id="SVGID_1_" gradientUnits="userSpaceOnUse" x1="21.7732" y1="4151.1641" x2="21.5925" y2="4151.4897" gradientTransform="matrix(1 0 0 1 0 -4114)">
				<stop  offset="0" style="stop-color:#78ACED"/>
				<stop  offset="1" style="stop-color:#4F7BB3"/>
			</linearGradient>
			<path class="st28" d="M22.1,37.3L22.1,37.3L22.1,37.3L21.7,37l0,0l0,0h-0.1l0,0h-0.1c-0.1,0-0.1,0.1-0.1,0.1
				c0,0.1-0.1,0.1-0.1,0.2c0,0,0,0.1,0.1,0.1h0.1l0,0l0,0l0.3,0.2l0,0l0,0l0.1,0.1l0,0l0,0l0,0c0,0,0,0,0-0.1l0,0v-0.1l0,0l0.1-0.1
				l0,0C22,37.3,22,37.2,22.1,37.3L22.1,37.3L22.1,37.3L22.1,37.3L22.1,37.3z"/>
		</g>
	</g>
</g>
<radialGradient id="SVGID_00000146462280392421363260000009699868186635614594_" cx="-1327.5219" cy="7848.6748" r="15.9015" gradientTransform="matrix(1.5353 0 0 0.4819 2063.1443 -3740.7764)" gradientUnits="userSpaceOnUse">
	<stop  offset="0.4351" style="stop-color:#B4BCC1"/>
	<stop  offset="0.94" style="stop-color:#ECEEEF;stop-opacity:0"/>
</radialGradient>
<ellipse style="fill:url(#SVGID_00000146462280392421363260000009699868186635614594_);" cx="25" cy="41.5" rx="24.4" ry="7.7"/>
<ellipse class="st30" cx="25" cy="37.697" rx="9.067" ry="5.235"/>
<polygon class="st0" points="25,11.42 15.028,17.178 25,22.935 34.972,17.178 "/>
<g class="st0">
	<path class="st31" d="M25,32.462c5.008,0,9.067,2.344,9.067,5.235S30.008,42.932,25,42.932V32.462"/>
	<path class="st32" d="M25,42.932c-5.008,0-9.067-2.344-9.067-5.235s4.059-5.235,9.067-5.235V42.932z"/>
	<polygon class="st31" points="34.067,37.697 34.067,36.492 33.857,36.564 	"/>
	<polygon class="st32" points="15.933,37.697 15.933,36.492 16.143,36.564 	"/>
	<ellipse class="st33" cx="25" cy="36.492" rx="9.067" ry="5.235"/>
	<line class="st34" x1="20.415" y1="36.426" x2="29.585" y2="36.426"/>
	<line class="st34" x1="24.935" y1="33.848" x2="24.935" y2="39.139"/>
	<line class="st34" x1="21.669" y1="38.311" x2="28.168" y2="34.559"/>
	<line class="st34" x1="28.252" y1="38.358" x2="21.768" y2="34.615"/>
	<line class="st34" x1="31.578" y1="38.005" x2="18.448" y2="34.884"/>
	<line class="st34" x1="18.329" y1="37.862" x2="31.579" y2="34.981"/>
	<line class="st34" x1="27.353" y1="40.348" x2="22.608" y2="32.645"/>
	<line class="st34" x1="22.516" y1="40.32" x2="27.321" y2="32.584"/>
	<ellipse class="st34" cx="25" cy="36.492" rx="7.079" ry="4.087"/>
	<ellipse class="st34" cx="25" cy="36.492" rx="4.585" ry="2.647"/>
	<path class="st35" d="M32.006,33.529l-2.53,0.831c-0.346,0.114-0.715,0.142-1.074,0.082l-1.046-0.175L25,36.447l7.386-2.889
		L32.006,33.529z M27.38,34.554l1.167,0.225l-2.441,0.955L27.38,34.554z"/>
	<g class="st1">
		<path class="st36" d="M28.263,29.301l-3.44,7.146H25l2.176-2.184l-0.095-1.056c-0.033-0.363,0.023-0.728,0.163-1.065l1.02-2.46
			l0.177-0.381C28.441,29.301,28.263,29.301,28.263,29.301z M25.618,35.398l1.137-2.362l0.136,1.181L25.618,35.398z"/>
		<path class="st37" d="M28.44,29.301L25,36.447l2.353-2.184l-0.095-1.056c-0.033-0.363,0.023-0.728,0.163-1.065l1.02-2.46v-0.381
			C28.441,29.301,28.44,29.301,28.44,29.301z M25.795,35.398l1.137-2.362l0.136,1.181L25.795,35.398z"/>
	</g>
</g>
<g>
	<g>
		<g>
			<path class="st38" d="M12.611,33.653v1.108c0,0.116,0.005,0.232,0.015,0.344c0.005,0.048,0.01,0.097,0.019,0.145
				c0.189,1.664,1.389,3.3,3.595,4.567c4.838,2.797,12.686,2.797,17.525,0c2.206-1.268,3.406-2.903,3.595-4.567
				c0.019-0.165,0.029-0.324,0.029-0.489v-1.108H12.611z"/>
		</g>
		<g>
			<path class="st39" d="M12.626,33.996c0.005,0.048,0.01,0.097,0.019,0.145c0.189,1.664,1.389,3.3,3.595,4.567
				c4.838,2.797,12.686,2.797,17.525,0c2.206-1.268,3.406-2.903,3.595-4.567c0.227-1.906-0.866-3.861-3.285-5.361
				c-0.102-0.063-0.203-0.126-0.31-0.189c-0.121-0.068-0.242-0.135-0.363-0.194c-4.863-2.598-12.444-2.53-17.162,0.194
				c-2.269,1.311-3.474,3-3.614,4.717C12.606,33.537,12.606,33.769,12.626,33.996z"/>
		</g>
	</g>
	<g>
		<g>
			<path class="st40" d="M16.869,38.37c-2.18-1.259-3.38-2.934-3.38-4.718c0-1.784,1.201-3.46,3.381-4.718
				c4.485-2.589,11.782-2.589,16.267,0c2.18,1.259,3.38,2.934,3.38,4.718c0,1.784-1.201,3.46-3.38,4.718
				c-2.242,1.295-5.188,1.942-8.134,1.942S19.112,39.665,16.869,38.37z M16.908,29.001c-2.155,1.244-3.342,2.896-3.342,4.651
				c0,1.755,1.187,3.407,3.342,4.651c4.463,2.577,11.726,2.577,16.19,0c2.155-1.244,3.342-2.896,3.342-4.651
				c0-1.755-1.187-3.407-3.342-4.651c-2.232-1.289-5.163-1.933-8.095-1.933C22.072,27.068,19.14,27.712,16.908,29.001z"/>
		</g>
		<g>
			<path class="st40" d="M19.117,37.073l0.019-0.034L19.117,37.073c-1.579-0.912-2.449-2.127-2.449-3.421
				c0-1.294,0.87-2.509,2.449-3.421c3.246-1.874,8.527-1.874,11.772,0c1.579,0.912,2.449,2.127,2.449,3.421
				c0,1.294-0.87,2.509-2.449,3.421c-1.623,0.937-3.755,1.405-5.886,1.405S20.739,38.009,19.117,37.073z M19.156,30.298
				c-1.555,0.898-2.411,2.088-2.411,3.354c0,1.265,0.856,2.456,2.411,3.353c3.224,1.862,8.47,1.862,11.695,0
				c1.555-0.898,2.411-2.088,2.411-3.354c0-1.265-0.856-2.456-2.411-3.354c-1.612-0.931-3.729-1.396-5.847-1.396
				C22.886,28.902,20.768,29.368,19.156,30.298z"/>
		</g>
		<g>
			<path class="st40" d="M17.335,38.101L17.335,38.101c-2.055-1.187-3.187-2.767-3.187-4.449c0-1.683,1.132-3.263,3.187-4.449
				c4.228-2.441,11.107-2.441,15.334,0c2.055,1.187,3.187,2.767,3.187,4.449c0,1.682-1.132,3.262-3.187,4.449
				c-2.114,1.221-4.89,1.831-7.667,1.831C22.226,39.931,19.449,39.321,17.335,38.101z M17.374,29.27
				c-2.03,1.172-3.149,2.729-3.149,4.382c0,1.654,1.118,3.21,3.148,4.382l0,0c4.206,2.428,11.05,2.428,15.257,0
				c2.03-1.172,3.148-2.728,3.148-4.382c0-1.654-1.118-3.21-3.148-4.382c-2.103-1.214-4.866-1.821-7.628-1.821
				C22.24,27.449,19.478,28.055,17.374,29.27z"/>
		</g>
		<g>
			<path class="st40" d="M17.695,37.916L17.695,37.916c-1.967-1.136-3.049-2.65-3.049-4.264c0-1.614,1.083-3.129,3.05-4.264
				c4.03-2.326,10.586-2.326,14.615,0c1.967,1.136,3.05,2.65,3.05,4.264c0,1.614-1.083,3.128-3.05,4.264
				c-2.015,1.163-4.661,1.745-7.308,1.745S19.71,39.079,17.695,37.916z M17.773,29.522c-1.917,1.106-2.972,2.573-2.972,4.13
				c0,1.556,1.056,3.023,2.972,4.129l0,0c3.987,2.302,10.474,2.302,14.461,0c1.917-1.106,2.972-2.573,2.972-4.13
				c0-1.556-1.056-3.023-2.972-4.13c-1.994-1.151-4.612-1.726-7.23-1.726C22.385,27.796,19.766,28.371,17.773,29.522z"/>
		</g>
		<g>
			<path class="st40" d="M21.703,35.579L21.703,35.579c-0.888-0.513-1.378-1.197-1.378-1.927c0-0.73,0.489-1.414,1.378-1.928
				c1.819-1.05,4.779-1.05,6.598,0c0.889,0.513,1.378,1.198,1.378,1.927c0,0.73-0.489,1.414-1.378,1.927
				c-0.91,0.525-2.105,0.788-3.299,0.788S22.613,36.104,21.703,35.579z M21.742,31.792c-0.864,0.499-1.339,1.159-1.339,1.86
				c0,0.701,0.476,1.361,1.339,1.86l0,0c1.798,1.039,4.723,1.038,6.521,0c0.864-0.498,1.339-1.159,1.339-1.86
				c0-0.701-0.476-1.362-1.339-1.86c-0.899-0.519-2.08-0.778-3.261-0.778C23.822,31.013,22.641,31.273,21.742,31.792z"/>
		</g>
		<g>
			<path class="st40" d="M22.043,35.383L22.043,35.383c-0.798-0.461-1.237-1.076-1.237-1.731c0-0.656,0.44-1.271,1.237-1.732
				c1.632-0.942,4.288-0.942,5.92,0c0.798,0.461,1.237,1.075,1.237,1.731c0,0.656-0.439,1.271-1.237,1.731
				c-0.816,0.471-1.888,0.707-2.96,0.707C23.931,36.09,22.859,35.855,22.043,35.383z M22.081,31.988
				c-0.773,0.446-1.199,1.037-1.199,1.664c0,0.627,0.426,1.218,1.199,1.664c1.611,0.93,4.232,0.93,5.843,0
				c0.773-0.446,1.199-1.037,1.199-1.664c0-0.627-0.426-1.218-1.199-1.664c-0.805-0.465-1.863-0.698-2.921-0.698
				C23.945,31.29,22.887,31.523,22.081,31.988z"/>
		</g>
		<g>
			
				<rect x="29.537" y="34.799" transform="matrix(0.4995 -0.8663 0.8663 0.4995 -16.6378 43.7854)" class="st40" width="0.077" height="2.987"/>
		</g>
		<g>
			<rect x="24.964" y="36.33" class="st40" width="0.077" height="2.112"/>
		</g>
		<g>
			
				<rect x="18.936" y="36.254" transform="matrix(0.866 -0.5 0.5 0.866 -15.4098 15.0781)" class="st40" width="2.987" height="0.077"/>
		</g>
		<g>
			<rect x="16.706" y="33.613" class="st40" width="3.658" height="0.077"/>
		</g>
		<g>
			
				<rect x="20.391" y="29.518" transform="matrix(0.4996 -0.8663 0.8663 0.4996 -16.6409 33.2158)" class="st40" width="0.077" height="2.987"/>
		</g>
		<g>
			<rect x="24.964" y="28.862" class="st40" width="0.077" height="2.112"/>
		</g>
		<g>
			
				<rect x="28.083" y="30.973" transform="matrix(0.866 -0.5 0.5 0.866 -11.5433 18.943)" class="st40" width="2.987" height="0.077"/>
		</g>
		<g>
			<rect x="29.641" y="33.613" class="st40" width="3.658" height="0.077"/>
		</g>
		<g>
			
				<rect x="17.305" y="37.842" transform="matrix(0.8659 -0.5001 0.5001 0.8659 -16.5756 13.9201)" class="st40" width="0.749" height="0.077"/>
		</g>
		<g>
			
				<rect x="17.64" y="29.049" transform="matrix(0.4996 -0.8663 0.8663 0.4996 -16.6417 30.0387)" class="st40" width="0.077" height="0.748"/>
		</g>
		<g>
			
				<rect x="31.952" y="29.385" transform="matrix(0.8661 -0.4999 0.4999 0.8661 -10.3798 20.101)" class="st40" width="0.748" height="0.077"/>
		</g>
		<g>
			
				<rect x="32.288" y="37.506" transform="matrix(0.4994 -0.8664 0.8664 0.4994 -16.6357 46.9695)" class="st40" width="0.077" height="0.748"/>
		</g>
		<g>
			<g>
				<g>
					
						<rect x="21.827" y="31.614" transform="matrix(0.4995 -0.8663 0.8663 0.4995 -16.6401 34.8805)" class="st40" width="0.077" height="0.453"/>
				</g>
				<g>
					
						<rect x="18.759" y="29.679" transform="matrix(0.4996 -0.8663 0.8663 0.4996 -16.6414 31.3312)" class="st40" width="0.077" height="0.781"/>
				</g>
			</g>
			<g>
				<g>
					<polygon class="st40" points="23.38,31.456 23.443,31.411 23.231,31.115 23.168,31.16 					"/>
				</g>
				<g>
					<polygon class="st40" points="21.796,29.249 21.859,29.204 21.493,28.693 21.43,28.739 					"/>
				</g>
			</g>
			<g>
				<g>
					<rect x="24.964" y="30.93" class="st40" width="0.077" height="0.32"/>
				</g>
				<g>
					<rect x="24.964" y="28.309" class="st40" width="0.077" height="0.552"/>
				</g>
			</g>
			<g>
				<g>
					<polygon class="st40" points="26.626,31.456 26.838,31.16 26.775,31.115 26.563,31.411 					"/>
				</g>
				<g>
					<polygon class="st40" points="28.209,29.249 28.576,28.739 28.513,28.693 28.146,29.204 					"/>
				</g>
			</g>
			<g>
				<g>
					
						<rect x="27.913" y="31.802" transform="matrix(0.866 -0.5001 0.5001 0.866 -12.1517 18.3394)" class="st40" width="0.453" height="0.077"/>
				</g>
				<g>
					
						<rect x="30.817" y="30.031" transform="matrix(0.8661 -0.4998 0.4998 0.8661 -10.8518 19.6251)" class="st40" width="0.781" height="0.077"/>
				</g>
			</g>
			<g>
				<g>
					<polygon class="st40" points="28.854,32.771 29.367,32.648 29.348,32.573 28.836,32.696 					"/>
				</g>
				<g>
					<polygon class="st40" points="32.677,31.856 33.561,31.645 33.543,31.57 32.659,31.781 					"/>
				</g>
			</g>
			<g>
				<g>
					<rect x="29.162" y="33.613" class="st40" width="0.555" height="0.077"/>
				</g>
				<g>
					<rect x="33.3" y="33.613" class="st40" width="0.957" height="0.077"/>
				</g>
			</g>
			<g>
				<g>
					
						<rect x="29.063" y="34.368" transform="matrix(0.2324 -0.9726 0.9726 0.2324 -11.3452 54.8889)" class="st40" width="0.077" height="0.527"/>
				</g>
				<g>
					<polygon class="st40" points="33.543,35.734 33.561,35.659 32.677,35.447 32.659,35.522 					"/>
				</g>
			</g>
			<g>
				<g>
					
						<rect x="28.101" y="35.236" transform="matrix(0.4996 -0.8663 0.8663 0.4996 -16.6387 42.1222)" class="st40" width="0.077" height="0.453"/>
				</g>
				<g>
					
						<rect x="31.169" y="36.844" transform="matrix(0.4995 -0.8663 0.8663 0.4995 -16.6373 45.6703)" class="st40" width="0.078" height="0.781"/>
				</g>
			</g>
			<g>
				<g>
					<polygon class="st40" points="26.775,36.189 26.838,36.143 26.626,35.848 26.563,35.893 					"/>
				</g>
				<g>
					<polygon class="st40" points="28.512,38.61 28.575,38.565 28.209,38.055 28.146,38.1 					"/>
				</g>
			</g>
			<g>
				<g>
					<rect x="24.964" y="36.053" class="st40" width="0.077" height="0.32"/>
				</g>
				<g>
					<rect x="24.964" y="38.442" class="st40" width="0.077" height="0.552"/>
				</g>
			</g>
			<g>
				<g>
					<polygon class="st40" points="23.23,36.189 23.443,35.893 23.38,35.848 23.168,36.143 					"/>
				</g>
				<g>
					<polygon class="st40" points="21.493,38.61 21.859,38.1 21.796,38.055 21.43,38.565 					"/>
				</g>
			</g>
			<g>
				<g>
					
						<rect x="21.64" y="35.424" transform="matrix(0.8663 -0.4996 0.4996 0.8663 -14.7925 15.6667)" class="st40" width="0.453" height="0.077"/>
				</g>
				<g>
					
						<rect x="18.407" y="37.196" transform="matrix(0.866 -0.5 0.5 0.866 -16.0999 14.3891)" class="st40" width="0.781" height="0.077"/>
				</g>
			</g>
			<g>
				<g>
					
						<rect x="20.641" y="34.593" transform="matrix(0.9726 -0.2323 0.2323 0.9726 -7.474 5.8043)" class="st40" width="0.527" height="0.077"/>
				</g>
				<g>
					<polygon class="st40" points="16.463,35.734 17.347,35.522 17.328,35.447 16.444,35.659 					"/>
				</g>
			</g>
			<g>
				<g>
					<rect x="20.289" y="33.613" class="st40" width="0.555" height="0.077"/>
				</g>
				<g>
					<rect x="15.749" y="33.613" class="st40" width="0.957" height="0.077"/>
				</g>
			</g>
			<g>
				<g>
					<polygon class="st40" points="21.152,32.771 21.17,32.696 20.657,32.573 20.639,32.648 					"/>
				</g>
				<g>
					<polygon class="st40" points="17.329,31.856 17.347,31.781 16.463,31.57 16.445,31.645 					"/>
				</g>
			</g>
		</g>
		<g>
			<g>
				<path class="st40" d="M17.922,37.74c0.195,0.113,0.511,0.113,0.706,0c0.195-0.113,0.195-0.295,0-0.408
					c-0.195-0.113-0.511-0.113-0.706,0C17.727,37.445,17.727,37.627,17.922,37.74z"/>
			</g>
			<g>
				<path class="st40" d="M15.751,35.864c0.106,0.147,0.398,0.217,0.652,0.156c0.255-0.061,0.376-0.23,0.27-0.377
					c-0.106-0.147-0.398-0.217-0.652-0.156C15.767,35.549,15.646,35.717,15.751,35.864z"/>
			</g>
			<g>
				<path class="st40" d="M14.989,33.652c0,0.159,0.224,0.288,0.499,0.288c0.276,0,0.499-0.129,0.499-0.288
					c0-0.159-0.224-0.288-0.499-0.288C15.213,33.364,14.989,33.493,14.989,33.652z"/>
			</g>
			<g>
				<path class="st40" d="M15.751,31.439c-0.106,0.147,0.015,0.316,0.27,0.377c0.255,0.061,0.547-0.009,0.652-0.156
					c0.106-0.147-0.015-0.316-0.27-0.377C16.149,31.223,15.857,31.292,15.751,31.439z"/>
			</g>
			<g>
				<path class="st40" d="M17.922,29.564c-0.195,0.113-0.195,0.295,0,0.408c0.195,0.113,0.511,0.113,0.706,0
					c0.195-0.113,0.195-0.295,0-0.408C18.433,29.451,18.117,29.451,17.922,29.564z"/>
			</g>
			<g>
				<path class="st40" d="M21.171,28.311c-0.255,0.061-0.376,0.23-0.27,0.377c0.106,0.147,0.398,0.217,0.652,0.156
					c0.255-0.061,0.376-0.23,0.27-0.377C21.718,28.319,21.426,28.25,21.171,28.311z"/>
			</g>
			<g>
				<path class="st40" d="M25.003,27.87c-0.276,0-0.499,0.129-0.499,0.288c0,0.159,0.224,0.288,0.499,0.288
					c0.276,0,0.499-0.129,0.499-0.288C25.502,27.999,25.279,27.87,25.003,27.87z"/>
			</g>
			<g>
				<path class="st40" d="M28.835,28.31c-0.255-0.061-0.547,0.009-0.652,0.156c-0.106,0.147,0.015,0.316,0.27,0.377
					c0.255,0.061,0.547-0.009,0.652-0.156C29.211,28.54,29.09,28.371,28.835,28.31z"/>
			</g>
			<g>
				<path class="st40" d="M32.084,29.564c-0.195-0.113-0.511-0.113-0.706,0c-0.195,0.113-0.195,0.295,0,0.408
					c0.195,0.113,0.511,0.113,0.706,0C32.279,29.859,32.279,29.676,32.084,29.564z"/>
			</g>
			<g>
				<path class="st40" d="M34.254,31.439c-0.106-0.147-0.398-0.217-0.652-0.156c-0.255,0.061-0.376,0.23-0.27,0.377
					c0.106,0.147,0.398,0.217,0.652,0.156C34.239,31.755,34.36,31.586,34.254,31.439z"/>
			</g>
			<g>
				<path class="st40" d="M35.017,33.652c0-0.159-0.224-0.288-0.499-0.288c-0.276,0-0.499,0.129-0.499,0.288
					c0,0.159,0.224,0.288,0.499,0.288C34.793,33.94,35.017,33.811,35.017,33.652z"/>
			</g>
			<g>
				<path class="st40" d="M34.254,35.864c0.106-0.147-0.015-0.316-0.27-0.377s-0.547,0.009-0.652,0.156
					c-0.106,0.147,0.015,0.316,0.27,0.377C33.857,36.081,34.149,36.011,34.254,35.864z"/>
			</g>
			<g>
				<path class="st40" d="M32.083,37.74c0.195-0.113,0.195-0.295,0-0.408c-0.195-0.113-0.511-0.113-0.706,0
					c-0.195,0.113-0.195,0.295,0,0.408S31.889,37.852,32.083,37.74z"/>
			</g>
			<g>
				<path class="st40" d="M28.835,38.993c0.255-0.061,0.376-0.23,0.27-0.377c-0.106-0.147-0.398-0.217-0.652-0.156
					c-0.255,0.061-0.376,0.23-0.27,0.377C28.288,38.984,28.58,39.054,28.835,38.993z"/>
			</g>
			<g>
				<path class="st40" d="M25.003,39.433c0.276,0,0.499-0.129,0.499-0.288c0-0.159-0.224-0.288-0.499-0.288
					c-0.276,0-0.499,0.129-0.499,0.288C24.503,39.304,24.727,39.433,25.003,39.433z"/>
			</g>
			<g>
				<path class="st40" d="M21.171,38.993c0.255,0.061,0.547-0.009,0.652-0.156c0.106-0.147-0.015-0.316-0.27-0.377
					c-0.255-0.061-0.547,0.009-0.652,0.156C20.795,38.764,20.916,38.932,21.171,38.993z"/>
			</g>
		</g>
	</g>
	<g class="st41">
		<g>
			<path class="st42" d="M28.892,30.856l0.803,0.353l4.379-2.429c-0.102-0.063-0.203-0.126-0.31-0.189
				c-0.121-0.068-0.242-0.135-0.363-0.194L28.892,30.856z"/>
		</g>
	</g>
	<g>
		<g class="st20">
			<g>
				<g>
					<path class="st43" d="M28.836,29.821l-0.415-0.241c0.056,0.032,0.077,0.122,0.025,0.281c-0.159,0.492-0.442,0.348-0.548,0.885
						c-0.019,0.097-0.005,0.147,0.03,0.168l0.415,0.241c-0.035-0.02-0.049-0.071-0.03-0.168c0.106-0.537,0.389-0.393,0.548-0.885
						C28.913,29.943,28.892,29.853,28.836,29.821z"/>
				</g>
			</g>
			<g>
				<g>
					<path class="st43" d="M29.045,30.947l-0.415-0.241c0.026,0.015,0.039,0.048,0.034,0.107c-0.02,0.209-0.353,0.464-0.733,0.684
						c-0.39,0.225-0.83,0.414-1.034,0.478l0.415,0.241c0.204-0.064,0.644-0.252,1.034-0.478c0.38-0.22,0.713-0.474,0.733-0.684
						C29.085,30.995,29.072,30.962,29.045,30.947z"/>
				</g>
			</g>
			<g>
				<g>
					<path class="st43" d="M27.312,32.215l-0.415-0.241c-0.29,0.092-0.557,0.112-0.683,0.115l0.415,0.241
						C26.754,32.327,27.022,32.307,27.312,32.215z"/>
				</g>
			</g>
			<g>
				<g>
					<polygon class="st43" points="31.513,25.097 31.098,24.855 24.703,33.611 25.118,33.852 					"/>
				</g>
			</g>
			<g>
				<g>
					<path class="st44" d="M31.515,25.773l-1.83,2.502c-0.025,0.057-0.503,1.148-0.275,1.479c0.229,0.329,0.696,0.804,0.283,1.456
						l-3.934,2.272l-0.641,0.37l6.395-8.755L31.515,25.773z M27.312,32.215c0.204-0.064,0.644-0.252,1.034-0.478
						c0.38-0.22,0.713-0.474,0.733-0.684c0.038-0.423-0.871,0.472-0.765-0.067c0.106-0.537,0.389-0.393,0.548-0.885
						c0.091-0.282-0.045-0.346-0.198-0.258c-0.114,0.066-0.238,0.218-0.283,0.428c-0.106,0.492-1.144,1.282-1.198,1.324
						l-0.554,0.735C26.754,32.327,27.022,32.307,27.312,32.215L27.312,32.215z"/>
				</g>
			</g>
		</g>
	</g>
</g>
</svg>
