<?xml version="1.0" encoding="utf-8"?>
<!-- Generator: Adobe Illustrator 26.0.1, SVG Export Plug-In . SVG Version: 6.00 Build 0)  -->
<svg version="1.1" id="Layer_1" xmlns="http://www.w3.org/2000/svg" xmlns:xlink="http://www.w3.org/1999/xlink" x="0px" y="0px"
	 viewBox="0 0 50 50" style="enable-background:new 0 0 50 50;" xml:space="preserve">
<style type="text/css">
	.st0{opacity:0.5;fill:#C0C7CA;enable-background:new    ;}
	.st1{fill:#B8B8B8;}
	.st2{fill:#F2F2F2;}
	.st3{fill:#808080;}
	.st4{fill:#DAF4FC;}
	.st5{fill:#00B4E9;}
	.st6{fill:#662D99;}
	.st7{fill:#34CBC7;}
	.st8{fill:#0096C2;}
	.st9{fill:#401F65;}
	.st10{fill:#00938D;}
	.st11{fill:#FFFFEC;}
	.st12{fill:#949494;}
	.st13{fill:#CCCCCC;}
	.st14{fill:#595959;}
	.st15{fill:#BBBBBB;}
	.st16{fill:#F9F9F9;}
	.st17{fill:#DDF900;}
	.st18{opacity:0.58;}
	.st19{fill:#0093CF;}
	.st20{opacity:0.57;}
	.st21{opacity:0.38;}
	.st22{opacity:0.5;fill:#F6F6F6;enable-background:new    ;}
	.st23{fill:#FFFFFF;}
	.st24{fill:#00B7F3;}
</style>
<g>
	<path class="st0" d="M8.577,35.237c0.001,0,0.001,0.001,0.002,0.001l0,0c0.011,0.006,0.022,0.012,0.033,0.017
		c0.002,0,0.003,0.001,0.005,0.002c0.004,0.002,0.008,0.004,0.012,0.006c0.005,0.003,0.011,0.005,0.017,0.008
		c0.003,0.002,0.007,0.003,0.011,0.005c0.005,0.003,0.01,0.005,0.015,0.007c0.003,0.001,0.007,0.003,0.01,0.004
		c0.006,0.002,0.012,0.005,0.018,0.007s0.011,0.004,0.016,0.006c0.002,0,0.004,0.001,0.006,0.002
		c0.008,0.003,0.017,0.006,0.025,0.009c0.005,0.002,0.01,0.004,0.015,0.006c0.001,0,0.002,0.001,0.003,0.001
		c0.008,0.003,0.016,0.005,0.024,0.008c0.008,0.002,0.015,0.005,0.023,0.007c0,0,0.001,0.001,0.002,0.001
		c0.005,0.002,0.011,0.003,0.016,0.005c0.012,0.003,0.023,0.007,0.035,0.01c0.001,0,0.003,0.001,0.004,0.001
		c0.004,0.001,0.008,0.002,0.012,0.003c0.015,0.004,0.029,0.007,0.044,0.011c0.003,0,0.006,0.001,0.009,0.002
		s0.006,0.001,0.009,0.002c0.026,0.006,0.052,0.011,0.078,0.016h0.001c0.001,0.001,0.002,0.001,0.003,0.001
		c0.028,0.006,0.056,0.01,0.084,0.014C9.113,35.4,9.117,35.4,9.121,35.401c0.028,0.004,0.057,0.007,0.085,0.01
		c0.005,0.001,0.011,0.002,0.016,0.002c0.028,0.003,0.057,0.005,0.085,0.006c0.005,0.001,0.009,0.001,0.014,0.001
		c0.03,0.001,0.059,0.002,0.089,0.002l0.979,0.005c-0.007,0-0.013,0-0.019,0c0.245,0.003,0.486-0.034,0.677-0.114l16.194-6.585
		c0.419-0.176,0.431-0.493,0.027-0.707l-6.947-2.683c-0.226-0.12-0.534-0.182-0.836-0.183c0.001,0,0.003,0,0.004,0L18.51,25.15
		c-0.012,0-0.024,0-0.036,0c-0.008,0-0.017,0.001-0.025,0.001c-0.016,0.001-0.033,0.001-0.049,0.002
		c-0.006,0.001-0.013,0.001-0.019,0.001c-0.011,0-0.021,0.001-0.031,0.002c-0.009,0.001-0.018,0.001-0.027,0.002
		c-0.004,0-0.009,0.001-0.013,0.001c-0.02,0.002-0.04,0.004-0.06,0.006c-0.001,0-0.002,0-0.003,0c-0.003,0-0.005,0.001-0.008,0.001
		c-0.014,0.002-0.029,0.004-0.043,0.006c-0.01,0.002-0.019,0.003-0.029,0.005c-0.004,0.001-0.007,0.001-0.011,0.002
		c-0.003,0-0.005,0.001-0.008,0.001c-0.015,0.002-0.029,0.005-0.044,0.008c-0.006,0.001-0.013,0.003-0.02,0.004
		c-0.003,0.001-0.007,0.001-0.01,0.002c-0.004,0-0.007,0.001-0.011,0.002c-0.013,0.003-0.026,0.007-0.039,0.01
		c-0.007,0.001-0.013,0.003-0.02,0.005c-0.003,0-0.006,0.001-0.009,0.002s-0.006,0.002-0.009,0.003
		c-0.012,0.004-0.024,0.007-0.036,0.011c-0.008,0.003-0.015,0.005-0.023,0.008c-0.002,0.001-0.004,0.001-0.006,0.002
		s-0.004,0.001-0.006,0.002c-0.012,0.004-0.023,0.008-0.034,0.012c-0.01,0.004-0.02,0.008-0.03,0.012l-16.223,6.59
		c-0.001,0-0.002,0.001-0.003,0.001c-0.011,0.004-0.021,0.009-0.032,0.014c-0.011,0.005-0.021,0.01-0.031,0.015
		c-0.001,0.001-0.003,0.002-0.005,0.003c-0.001,0.001-0.003,0.002-0.005,0.003c-0.007,0.004-0.014,0.007-0.02,0.011
		c-0.011,0.006-0.02,0.012-0.03,0.018C1.5,31.92,1.497,31.922,1.494,31.924c-0.002,0.002-0.005,0.003-0.007,0.005
		c-0.005,0.003-0.01,0.006-0.014,0.009c-0.01,0.008-0.02,0.015-0.029,0.022c-0.002,0.002-0.004,0.003-0.006,0.005
		s-0.005,0.004-0.007,0.006c-0.005,0.004-0.01,0.009-0.015,0.013C1.408,31.992,1.4,32,1.392,32.008
		c-0.001,0.001-0.001,0.001-0.002,0.002s-0.001,0.001-0.001,0.001c-0.009,0.011-0.018,0.021-0.026,0.032
		c-0.001,0.002-0.003,0.004-0.004,0.006c-0.004,0.005-0.007,0.011-0.01,0.016c-0.004,0.006-0.008,0.011-0.011,0.017
		c-0.002,0.003-0.003,0.007-0.005,0.011c-0.002,0.005-0.004,0.009-0.006,0.014c-0.005,0.01-0.008,0.021-0.011,0.031
		c-0.001,0.004-0.002,0.008-0.003,0.012c0,0.001-0.001,0.003-0.001,0.004c-0.001,0.003-0.001,0.006-0.002,0.009
		c-0.001,0.006,0,0.012-0.001,0.018c0,0.007-0.001,0.013-0.001,0.019c0,0.01,0.001,0.019,0.002,0.029
		c0.001,0.005,0.001,0.011,0.002,0.017c0,0.001,0,0.003,0,0.004c0.002,0.013,0.006,0.025,0.01,0.037c0,0,0.001,0.001,0.001,0.002
		c0,0.002,0.001,0.004,0.002,0.006c0.003,0.007,0.005,0.015,0.009,0.022c0.003,0.006,0.007,0.012,0.01,0.018
		c0.001,0.002,0.002,0.003,0.003,0.005c0.001,0.001,0.001,0.002,0.002,0.003c0.005,0.009,0.01,0.017,0.016,0.025
		c0.003,0.005,0.007,0.01,0.011,0.015c0.002,0.002,0.003,0.003,0.004,0.005c0.001,0.001,0.002,0.003,0.003,0.004
		c0.006,0.007,0.012,0.015,0.019,0.022c0.005,0.006,0.01,0.011,0.016,0.017c0,0.001,0.001,0.002,0.002,0.003
		s0.001,0.001,0.002,0.002c0.007,0.006,0.014,0.013,0.022,0.02c0.007,0.006,0.015,0.013,0.023,0.019
		c0.001,0.001,0.002,0.001,0.003,0.002s0.002,0.001,0.003,0.002c0.006,0.005,0.012,0.01,0.019,0.015
		c0.009,0.006,0.017,0.012,0.026,0.018c0.004,0.002,0.008,0.005,0.012,0.007c0.002,0.002,0.004,0.003,0.006,0.004
		c0.003,0.003,0.006,0.005,0.01,0.007c0.009,0.006,0.019,0.011,0.029,0.017c0.01,0.005,0.019,0.011,0.029,0.016L8.577,35.237z
		 M19.221,25.172L19.221,25.172c0.003,0,0.006-0.001,0.009-0.001l0,0C19.227,25.172,19.224,25.172,19.221,25.172z M19.056,25.201
		L19.056,25.201c0.003-0.001,0.007-0.001,0.01-0.002c0.001-0.001,0.002-0.001,0.003-0.001C19.065,25.199,19.06,25.2,19.056,25.201z
		 M18.973,25.222c0.001-0.001,0.003-0.001,0.005-0.002c0.002,0,0.005-0.001,0.008-0.002c0.001,0,0.001,0,0.002,0
		C18.982,25.219,18.977,25.221,18.973,25.222z M18.89,25.249c0.004-0.001,0.008-0.003,0.012-0.004
		c0.002-0.001,0.003-0.001,0.005-0.002C18.902,25.244,18.896,25.246,18.89,25.249z M10.002,35.393c0.002,0,0.004,0.001,0.005,0.001
		c-0.001,0-0.001,0-0.001,0C10.005,35.393,10.003,35.393,10.002,35.393L10.002,35.393z M9.838,35.355
		c0.003,0.001,0.007,0.002,0.01,0.003c0-0.001-0.001-0.001-0.002-0.001C9.844,35.357,9.841,35.356,9.838,35.355z M9.782,35.338
		c0.006,0.002,0.012,0.004,0.018,0.006c-0.003-0.001-0.005-0.001-0.007-0.002C9.79,35.341,9.786,35.339,9.782,35.338z M9.734,35.323
		c0.006,0.002,0.012,0.004,0.018,0.006c-0.002-0.001-0.005-0.002-0.008-0.003C9.741,35.324,9.737,35.323,9.734,35.323z
		 M9.691,35.306c0.005,0.002,0.01,0.004,0.015,0.006C9.703,35.311,9.7,35.31,9.698,35.309C9.695,35.308,9.693,35.307,9.691,35.306z
		 M9.649,35.288c0.004,0.002,0.007,0.003,0.011,0.005c-0.002,0-0.004-0.001-0.006-0.002S9.65,35.289,9.649,35.288z M9.606,35.269
		c0.003,0.002,0.005,0.003,0.008,0.004c-0.001-0.001-0.003-0.001-0.004-0.002C9.608,35.271,9.607,35.27,9.606,35.269z M2.583,32.568
		C2.582,32.568,2.582,32.568,2.583,32.568C2.582,32.568,2.583,32.568,2.583,32.568L2.583,32.568z"/>
	<path class="st1" d="M9.326,17.517c-0.003,0.019-0.005,0.039-0.007,0.058c-0.001,0.008-0.001,0.016-0.002,0.024
		c0,0.004-0.001,0.008-0.001,0.012c-0.001,0.007-0.001,0.015-0.002,0.022c-0.001,0.02-0.002,0.039-0.003,0.058
		C9.31,17.709,9.31,17.727,9.31,17.745v16.599c0,0.001,0,0.002,0,0.003l0,0c0,0.02,0,0.039,0.001,0.058c0,0.002,0,0.005,0,0.008
		c0,0.007,0.001,0.013,0.001,0.02c0.001,0.01,0.001,0.019,0.002,0.029c0.001,0.006,0.001,0.012,0.002,0.018
		c0,0.008,0.001,0.016,0.002,0.024c0.001,0.005,0.001,0.011,0.002,0.016c0.001,0.009,0.003,0.018,0.004,0.027
		c0.001,0.008,0.002,0.015,0.003,0.023c0,0.003,0.001,0.006,0.001,0.009c0.002,0.011,0.005,0.023,0.007,0.034
		c0.001,0.007,0.002,0.014,0.004,0.021c0.001,0.001,0.001,0.003,0.001,0.004c0.003,0.011,0.005,0.021,0.008,0.031
		c0.002,0.009,0.004,0.019,0.007,0.029c0.001,0.001,0.001,0.002,0.001,0.003c0.002,0.006,0.004,0.012,0.006,0.019
		c0.004,0.014,0.008,0.028,0.013,0.042c0.001,0.002,0.001,0.003,0.002,0.005c0.001,0.005,0.003,0.009,0.005,0.014
		c0.006,0.017,0.012,0.033,0.019,0.049c0.001,0.003,0.003,0.007,0.004,0.01c0.002,0.003,0.004,0.006,0.005,0.009
		c0.012,0.027,0.026,0.053,0.04,0.078c0.001,0,0.001,0.001,0.001,0.001c0.001,0.001,0.001,0.002,0.002,0.003
		c0.015,0.025,0.032,0.05,0.049,0.073c0.002,0.003,0.005,0.007,0.007,0.01c0.018,0.023,0.036,0.044,0.056,0.064
		c0.003,0.004,0.007,0.007,0.011,0.011c0.02,0.019,0.04,0.037,0.062,0.054c0.004,0.003,0.008,0.005,0.011,0.008
		c0.023,0.017,0.047,0.033,0.072,0.047l0.821,0.458c-0.025-0.014-0.049-0.03-0.072-0.047c-0.004-0.003-0.008-0.005-0.011-0.008
		c-0.021-0.016-0.042-0.035-0.062-0.054c-0.004-0.003-0.007-0.007-0.011-0.011c-0.02-0.02-0.038-0.041-0.056-0.064
		c-0.002-0.003-0.005-0.007-0.007-0.01c-0.017-0.023-0.034-0.047-0.049-0.073c-0.001-0.001-0.002-0.003-0.003-0.004
		c-0.015-0.024-0.028-0.05-0.04-0.077c-0.003-0.006-0.006-0.013-0.009-0.019c-0.007-0.016-0.013-0.032-0.019-0.048
		c-0.002-0.006-0.005-0.012-0.007-0.019c-0.005-0.014-0.009-0.027-0.013-0.041c-0.002-0.008-0.005-0.016-0.007-0.024
		c-0.003-0.009-0.005-0.019-0.007-0.028c-0.003-0.012-0.006-0.024-0.009-0.036c-0.002-0.007-0.003-0.013-0.004-0.02
		c-0.003-0.014-0.006-0.029-0.008-0.044c-0.001-0.007-0.002-0.015-0.003-0.022c-0.002-0.015-0.004-0.029-0.006-0.044
		c-0.001-0.007-0.001-0.015-0.002-0.023c-0.002-0.016-0.003-0.032-0.004-0.048c0-0.006-0.001-0.013-0.001-0.019
		c-0.001-0.023-0.002-0.046-0.002-0.07V18.204c0-0.044,0.002-0.088,0.006-0.133c0-0.004,0.001-0.008,0.001-0.012
		c0.004-0.043,0.009-0.086,0.016-0.129c0-0.003,0.001-0.005,0.001-0.007c0.008-0.045,0.017-0.09,0.028-0.135
		c0.001-0.003,0.001-0.005,0.002-0.008c0.01-0.043,0.023-0.086,0.036-0.129c0.002-0.005,0.003-0.009,0.005-0.014
		c0.013-0.041,0.028-0.082,0.044-0.123c0.002-0.005,0.004-0.01,0.006-0.015c0.015-0.038,0.032-0.076,0.049-0.113
		c0.003-0.005,0.005-0.01,0.007-0.015c0.019-0.04,0.039-0.079,0.06-0.117c0.008-0.016,0.017-0.031,0.026-0.046
		c0.014-0.025,0.029-0.05,0.044-0.075c0.01-0.016,0.021-0.031,0.031-0.047c0.018-0.026,0.035-0.053,0.054-0.079
		c0.007-0.01,0.015-0.019,0.022-0.029c0.019-0.026,0.039-0.051,0.059-0.076c0.009-0.011,0.019-0.022,0.028-0.033
		c0.019-0.022,0.038-0.044,0.058-0.065c0.011-0.012,0.022-0.024,0.034-0.036c0.028-0.03,0.058-0.059,0.088-0.086
		c0.002-0.001,0.003-0.003,0.005-0.004c0.031-0.028,0.062-0.053,0.093-0.078c0.006-0.004,0.011-0.008,0.016-0.012
		c0.032-0.024,0.064-0.047,0.097-0.069c0.004-0.003,0.009-0.006,0.013-0.009c0.034-0.022,0.068-0.042,0.103-0.061
		c0.003-0.002,0.006-0.003,0.009-0.005c0.037-0.02,0.075-0.038,0.114-0.054l24.286-9.642c0.035-0.014,0.069-0.027,0.102-0.037
		c0.002,0,0.005-0.001,0.008-0.002c0.031-0.01,0.062-0.018,0.092-0.024c0.004-0.001,0.007-0.001,0.011-0.002
		c0.029-0.006,0.058-0.01,0.087-0.013c0.004,0,0.008-0.001,0.012-0.001c0.028-0.003,0.056-0.004,0.084-0.004
		c0.004,0,0.008,0,0.012,0c0.026,0.001,0.052,0.003,0.078,0.006c0.003,0.001,0.006,0.001,0.008,0.001
		c0.026,0.004,0.051,0.009,0.076,0.015c0.009,0.002,0.017,0.005,0.026,0.007c0.016,0.004,0.032,0.009,0.047,0.015
		c0.015,0.005,0.03,0.012,0.044,0.018c0.018,0.008,0.036,0.015,0.053,0.025L35.49,6.294c-0.01-0.005-0.021-0.011-0.031-0.016
		c-0.007-0.003-0.015-0.006-0.022-0.009c-0.014-0.006-0.029-0.013-0.044-0.018c-0.006-0.002-0.011-0.005-0.017-0.007
		c-0.009-0.003-0.019-0.005-0.029-0.008c-0.009-0.002-0.017-0.005-0.026-0.007c-0.004-0.001-0.008-0.002-0.012-0.003
		c-0.02-0.004-0.04-0.008-0.061-0.011c-0.001,0-0.002,0-0.003,0c-0.003-0.001-0.005-0.001-0.008-0.001
		c-0.015-0.002-0.03-0.004-0.046-0.005c-0.011-0.001-0.021-0.001-0.032-0.001c-0.004,0-0.008,0-0.012,0c-0.003,0-0.006,0-0.009,0
		c-0.017,0-0.034,0.001-0.051,0.002c-0.008,0-0.016,0.001-0.024,0.002c-0.004,0-0.008,0.001-0.012,0.001
		c-0.004,0-0.009,0-0.013,0.001c-0.016,0.002-0.032,0.004-0.048,0.007c-0.009,0.001-0.017,0.003-0.026,0.005
		c-0.004,0.001-0.007,0.001-0.011,0.002c-0.004,0-0.008,0.001-0.012,0.002c-0.016,0.004-0.032,0.008-0.048,0.012
		c-0.01,0.003-0.021,0.007-0.032,0.01c-0.002,0-0.005,0.001-0.008,0.002c-0.003,0.001-0.005,0.001-0.008,0.002
		c-0.016,0.005-0.033,0.011-0.049,0.017c-0.015,0.006-0.03,0.012-0.045,0.018l-24.286,9.642c-0.001,0.001-0.003,0.001-0.004,0.002
		c-0.016,0.007-0.033,0.014-0.05,0.022c-0.016,0.008-0.033,0.016-0.05,0.025c-0.003,0.002-0.006,0.003-0.009,0.005
		c-0.003,0.002-0.006,0.003-0.009,0.005c-0.012,0.006-0.023,0.012-0.034,0.018c-0.018,0.01-0.035,0.021-0.053,0.032
		c-0.005,0.004-0.011,0.008-0.016,0.011c-0.004,0.003-0.009,0.006-0.013,0.009c-0.009,0.006-0.017,0.011-0.026,0.017
		c-0.02,0.013-0.04,0.027-0.059,0.042c-0.005,0.003-0.009,0.007-0.013,0.01c-0.006,0.004-0.011,0.008-0.016,0.012
		c-0.011,0.008-0.022,0.017-0.033,0.026c-0.02,0.016-0.039,0.033-0.059,0.051c-0.002,0.001-0.003,0.003-0.005,0.004
		c-0.001,0-0.001,0.001-0.002,0.001c-0.025,0.023-0.049,0.046-0.073,0.07c-0.005,0.005-0.009,0.01-0.014,0.015
		c-0.011,0.011-0.023,0.024-0.034,0.036c-0.012,0.013-0.024,0.025-0.036,0.038c-0.007,0.009-0.014,0.018-0.022,0.027
		c-0.009,0.011-0.019,0.022-0.028,0.033c-0.02,0.025-0.04,0.05-0.059,0.076c-0.007,0.01-0.015,0.02-0.022,0.03
		c-0.002,0.004-0.005,0.007-0.008,0.011c-0.006,0.007-0.011,0.015-0.016,0.022c-0.01,0.015-0.02,0.031-0.03,0.046
		c-0.01,0.015-0.021,0.031-0.031,0.047c-0.016,0.025-0.03,0.05-0.045,0.075c-0.009,0.015-0.018,0.03-0.026,0.045
		c-0.002,0.004-0.004,0.007-0.006,0.011c-0.017,0.032-0.034,0.066-0.05,0.099c-0.001,0.003-0.002,0.005-0.003,0.007
		c-0.002,0.005-0.005,0.01-0.007,0.015c-0.01,0.021-0.019,0.041-0.028,0.062c-0.007,0.017-0.014,0.034-0.021,0.051
		c-0.002,0.005-0.004,0.01-0.006,0.015c-0.001,0.004-0.003,0.007-0.004,0.01c-0.009,0.024-0.018,0.047-0.026,0.071
		c-0.005,0.014-0.009,0.029-0.014,0.043c-0.002,0.005-0.004,0.009-0.005,0.014c-0.001,0.004-0.003,0.008-0.004,0.012
		c-0.007,0.022-0.013,0.044-0.019,0.066c-0.005,0.016-0.009,0.033-0.013,0.05c-0.001,0.003-0.001,0.005-0.002,0.008
		c-0.001,0.002-0.002,0.004-0.002,0.006c-0.005,0.021-0.01,0.042-0.014,0.063c-0.004,0.02-0.008,0.04-0.011,0.06
		c0,0.002-0.001,0.004-0.001,0.006s-0.001,0.005-0.001,0.007C9.33,17.488,9.328,17.503,9.326,17.517z"/>
	<path class="st2" d="M35.572,6.748c0.637-0.264,1.152,0.12,1.151,0.858L36.69,24.205c-0.001,0.738-0.519,1.551-1.156,1.815
		l-24.253,9.642c-0.637,0.264-1.152-0.12-1.151-0.858V18.205c0.001-0.738,0.519-1.551,1.156-1.815L35.572,6.748z"/>
	<path d="M10.528,34.805V18.206c0.001-0.581,0.418-1.244,0.91-1.448l24.286-9.642c0.105-0.044,0.204-0.061,0.287-0.05
		c0.292,0.038,0.314,0.422,0.314,0.539l-0.033,16.599c-0.001,0.581-0.418,1.244-0.91,1.448L11.13,35.295
		c-0.105,0.044-0.204,0.061-0.287,0.05C10.55,35.306,10.528,34.922,10.528,34.805z"/>
	<path class="st3" d="M11.193,34.339c0.122,0.162,0.344,0.239,0.553,0.152l23.401-9.289c0.249-0.103,0.55-0.533,0.551-0.911
		L35.73,8.526c0.001-0.198-0.118-0.358-0.279-0.429c0.058,0.077,0.093,0.174,0.093,0.281l-0.032,15.765
		c0,0.378-0.302,0.808-0.551,0.911L11.56,34.343C11.435,34.395,11.304,34.388,11.193,34.339z"/>
	<path class="st4" d="M11.193,34.34c0.111,0.049,0.241,0.056,0.367,0.004l23.401-9.289c0.249-0.103,0.55-0.533,0.551-0.911
		l0.032-15.765c0-0.108-0.035-0.204-0.093-0.281c-0.111-0.049-0.241-0.056-0.367-0.004L11.65,17.383
		c-0.249,0.103-0.55,0.533-0.551,0.911L11.1,34.059C11.1,34.166,11.135,34.262,11.193,34.34z"/>
	<path class="st5" d="M11.128,18.298l-0.005,0.81l24.444-9.513l0.007-1.213c0-0.108-0.035-0.204-0.093-0.281
		c-0.111-0.049-0.241-0.056-0.367-0.004L11.68,17.386C11.431,17.49,11.129,17.919,11.128,18.298z"/>
	<g>
		<path class="st6" d="M13.869,27.343c0,0.393,0.428,0.544,0.957,0.334c0.528-0.208,0.957-0.697,0.957-1.09l4.191-1.653
			c0.951-0.375,1.723-1.451,1.723-2.403c0-0.951-0.771-1.419-1.723-1.043l-4.191,1.653c0,0.393-0.428,0.88-0.957,1.09
			c-0.528,0.208-0.957,0.059-0.957-0.334l-0.725,0.286v3.463L13.869,27.343z"/>
		<path class="st7" d="M13.869,30.789c0,0.393,0.428,0.544,0.957,0.334c0.528-0.208,0.957-0.697,0.957-1.09l7.296-2.878
			c0.951-0.375,1.723-1.451,1.723-2.403c0-0.951-0.771-1.419-1.723-1.043l-7.296,2.878c0,0.393-0.428,0.88-0.957,1.09
			c-0.528,0.208-0.957,0.059-0.957-0.334l-0.725,0.286v3.463L13.869,30.789z"/>
		<path class="st5" d="M13.869,23.898c0,0.393,0.428,0.544,0.957,0.334c0.528-0.208,0.957-0.697,0.957-1.09l7.296-2.878
			c0.951-0.375,1.723-1.451,1.723-2.403c0-0.951-0.771-1.419-1.723-1.043l-9.935,3.919v3.463L13.869,23.898z"/>
		
			<ellipse transform="matrix(0.6348 -0.7727 0.7727 0.6348 -5.951 24.6264)" class="st8" cx="23.078" cy="18.609" rx="1.398" ry="0.944"/>
		
			<ellipse transform="matrix(0.6348 -0.7727 0.7727 0.6348 -10.6934 23.9326)" class="st9" cx="19.972" cy="23.279" rx="1.398" ry="0.944"/>
		<g>
			
				<ellipse transform="matrix(0.6348 -0.7727 0.7727 0.6348 -11.2755 27.1427)" class="st10" cx="23.077" cy="25.5" rx="1.398" ry="0.944"/>
			
				<ellipse transform="matrix(0.6348 -0.7727 0.7727 0.6348 -13.3555 25.191)" class="st10" cx="19.973" cy="26.725" rx="1.398" ry="0.944"/>
		</g>
	</g>
</g>
<g>
	<ellipse transform="matrix(1 -0.0066 0.0066 1 -0.2377 0.2425)" class="st0" cx="36.623" cy="36.132" rx="7.458" ry="3.189"/>
	<g>
		
			<ellipse transform="matrix(0.9898 -0.1428 0.1428 0.9898 -4.0925 5.2406)" class="st11" cx="34.467" cy="31.134" rx="7.464" ry="7.137"/>
		<path class="st12" d="M40.423,31.921c-0.01,3.126-2.621,5.708-5.832,5.738s-5.806-2.504-5.796-5.63L40.423,31.921z"/>
		<g>
			<ellipse transform="matrix(1 -0.0098 0.0098 1 -0.302 0.3387)" class="st13" cx="34.414" cy="30.99" rx="6.965" ry="1.392"/>
			<path class="st14" d="M27.448,31.452c-0.002,0.769,3.114,1.37,6.961,1.335s6.967-0.695,6.969-1.464l0.001-0.398
				c-0.002,0.769-3.123,1.421-6.969,1.457s-6.963-0.559-6.961-1.327L27.448,31.452z"/>
		</g>
		<g>
			<polygon class="st15" points="31.172,27.721 37.849,27.659 38.528,31.41 30.454,31.485 			"/>
			<polygon class="st14" points="30.454,31.485 38.528,31.41 38.591,31.798 30.388,31.874 			"/>
			<g>
				<path class="st16" d="M32.413,30.902c-0.157-0.09-0.479-0.074-0.628,0.031c-0.092,0.065-0.089,0.145,0.009,0.199
					c0.089,0.049,0.188,0.059,0.256,0.059c0.165-0.002,0.29-0.032,0.366-0.081C32.519,31.044,32.518,30.962,32.413,30.902z"/>
				<path class="st16" d="M33.374,30.889c-0.152-0.089-0.475-0.077-0.621,0.023c-0.096,0.066-0.093,0.149,0.009,0.204
					c0.089,0.048,0.188,0.059,0.293,0.059c0.11-0.003,0.222-0.016,0.321-0.078C33.48,31.035,33.478,30.95,33.374,30.889z"/>
				<path class="st17" d="M35.312,30.869c-0.149-0.097-0.477-0.094-0.628,0.006c-0.094,0.063-0.097,0.143-0.002,0.201
					c0.093,0.057,0.2,0.071,0.307,0.071c0.115-0.002,0.225-0.016,0.321-0.076C35.404,31.013,35.403,30.929,35.312,30.869z"/>
				<path class="st16" d="M38.196,30.829c-0.098-0.058-0.21-0.075-0.353-0.074c-0.068-0.001-0.162,0.012-0.247,0.057
					c-0.12,0.062-0.126,0.161-0.007,0.22c0.195,0.096,0.399,0.099,0.6,0.009C38.304,30.987,38.304,30.893,38.196,30.829z"/>
				<path class="st17" d="M36.266,30.853c-0.195-0.097-0.4-0.099-0.599-0.004c-0.124,0.059-0.12,0.16,0.003,0.224
					c0.012,0.006,0.023,0.011,0.035,0.016c0.083,0.034,0.172,0.04,0.262,0.044c0.093-0.007,0.186-0.014,0.271-0.055
					c0.009-0.004,0.017-0.009,0.026-0.014C36.372,31.002,36.377,30.908,36.266,30.853z"/>
				<path class="st17" d="M37.228,30.84c-0.192-0.097-0.392-0.099-0.592-0.013c-0.05,0.022-0.094,0.056-0.094,0.114
					c0,0.059,0.045,0.089,0.093,0.114c0.006,0.003,0.012,0.006,0.018,0.009c0.09,0.041,0.187,0.053,0.287,0.051
					c0.095-0.002,0.188-0.013,0.274-0.056c0.003-0.001,0.005-0.003,0.008-0.004C37.337,30.993,37.343,30.898,37.228,30.84z"/>
				<path class="st16" d="M31.456,30.918c-0.154-0.093-0.489-0.075-0.635,0.033c-0.09,0.067-0.084,0.146,0.015,0.2
					c0.084,0.046,0.179,0.052,0.274,0.057c0.122-0.008,0.243-0.021,0.348-0.09C31.553,31.056,31.551,30.976,31.456,30.918z"/>
				<path class="st16" d="M34.346,30.881c-0.151-0.096-0.478-0.089-0.627,0.013c-0.096,0.065-0.094,0.148,0.007,0.205
					c0.006,0.003,0.011,0.006,0.017,0.009c0.007,0.004,0.015,0.007,0.022,0.01c0.004,0.002,0.007,0.003,0.011,0.005
					c0.077,0.031,0.161,0.038,0.246,0.036c0.102,0.001,0.201-0.012,0.291-0.058c0.009-0.005,0.019-0.01,0.028-0.015
					C34.442,31.026,34.443,30.943,34.346,30.881z"/>
				<path class="st16" d="M32.458,30.476c-0.088-0.051-0.187-0.061-0.296-0.062c-0.112,0.006-0.23,0.021-0.33,0.091
					c-0.086,0.061-0.082,0.135,0.007,0.191c0.15,0.094,0.481,0.081,0.627-0.025C32.554,30.607,32.552,30.53,32.458,30.476z"/>
				<path class="st16" d="M33.407,30.463c-0.146-0.098-0.479-0.091-0.625,0.012c-0.088,0.062-0.087,0.14,0.004,0.196
					s0.195,0.066,0.301,0.068c0.116-0.004,0.228-0.019,0.324-0.085C33.496,30.594,33.493,30.52,33.407,30.463z"/>
				<path class="st17" d="M36.885,30.686c0.104-0.004,0.203-0.015,0.292-0.067c0.103-0.06,0.105-0.141,0.008-0.204
					c-0.145-0.094-0.455-0.099-0.607-0.009c-0.101,0.06-0.105,0.143-0.007,0.205C36.666,30.671,36.776,30.683,36.885,30.686z"/>
				<path class="st16" d="M31.513,30.487c-0.151-0.09-0.477-0.073-0.621,0.032c-0.091,0.066-0.087,0.146,0.013,0.2
					c0.081,0.045,0.172,0.055,0.296,0.054c0.094-0.002,0.214-0.021,0.317-0.091C31.609,30.622,31.605,30.542,31.513,30.487z"/>
				<path class="st17" d="M33.753,29.816c0.09,0.051,0.192,0.062,0.272,0.063c0.148-0.002,0.272-0.033,0.339-0.081
					c0.09-0.064,0.087-0.145-0.008-0.201c-0.153-0.09-0.457-0.085-0.605,0.01C33.649,29.673,33.649,29.757,33.753,29.816z"/>
				<path class="st16" d="M33.749,30.672c0.008,0.004,0.016,0.008,0.025,0.012c0.08,0.036,0.167,0.047,0.257,0.046
					c0.092,0,0.181-0.014,0.265-0.051c0.009-0.004,0.017-0.008,0.026-0.012c0.049-0.025,0.093-0.056,0.095-0.115
					c0.001-0.059-0.042-0.093-0.092-0.114c-0.194-0.081-0.39-0.078-0.578,0.018C33.631,30.515,33.635,30.612,33.749,30.672z"/>
				<path class="st16" d="M34.702,30.659c0.187,0.08,0.376,0.077,0.564-0.004c0.05-0.022,0.093-0.056,0.095-0.114
					c0.002-0.059-0.043-0.09-0.092-0.114c-0.005-0.003-0.011-0.005-0.017-0.008c-0.004-0.002-0.008-0.004-0.012-0.005
					c-0.08-0.033-0.165-0.045-0.253-0.042c-0.093-0.002-0.183,0.013-0.266,0.051c-0.006,0.003-0.011,0.005-0.017,0.008
					c-0.048,0.025-0.094,0.055-0.094,0.115C34.61,30.604,34.652,30.638,34.702,30.659z"/>
				<path class="st16" d="M34.341,30.019c-0.194-0.086-0.394-0.082-0.585,0.015c-0.112,0.057-0.109,0.153-0.001,0.212
					c0.008,0.005,0.017,0.009,0.025,0.013c0.082,0.038,0.171,0.05,0.264,0.047c0.097,0,0.192-0.013,0.277-0.056
					c0.009-0.004,0.018-0.009,0.026-0.015C34.458,30.169,34.459,30.072,34.341,30.019z"/>
				<path class="st16" d="M33.423,30.036c-0.197-0.098-0.402-0.091-0.598,0.007c-0.115,0.057-0.109,0.156,0.006,0.216
					c0.008,0.004,0.016,0.008,0.025,0.012c0.08,0.036,0.167,0.046,0.257,0.044c0.121-0.001,0.235-0.027,0.304-0.07
					c0.005-0.003,0.009-0.006,0.013-0.009C33.521,30.173,33.522,30.085,33.423,30.036z"/>
				<path class="st17" d="M35.626,30.629c0.093,0.058,0.199,0.072,0.309,0.071c0.122-0.001,0.228-0.025,0.297-0.067
					c0.1-0.061,0.102-0.144,0.007-0.206c-0.144-0.093-0.469-0.092-0.613,0.002C35.531,30.49,35.531,30.569,35.626,30.629z"/>
				<path class="st17" d="M37.553,30.614c0.09,0.045,0.189,0.056,0.291,0.055c0.087-0.001,0.172-0.011,0.25-0.047
					c0.008-0.004,0.016-0.008,0.024-0.012c0.108-0.059,0.117-0.15,0.01-0.206c-0.193-0.102-0.397-0.109-0.598-0.016
					c-0.113,0.052-0.112,0.148-0.005,0.211C37.534,30.604,37.543,30.609,37.553,30.614z"/>
				<path class="st16" d="M31.573,30.063c-0.146-0.094-0.479-0.076-0.616,0.032c-0.085,0.067-0.079,0.143,0.015,0.195
					c0.081,0.045,0.173,0.052,0.267,0.055c0.118-0.006,0.236-0.021,0.337-0.091C31.662,30.194,31.66,30.118,31.573,30.063z"/>
				<path class="st17" d="M37.115,30.197c0.116-0.053,0.114-0.153,0.003-0.215c-0.093-0.052-0.196-0.066-0.271-0.066
					c-0.138,0.001-0.241,0.025-0.304,0.062c-0.107,0.063-0.111,0.157-0.002,0.213C36.727,30.285,36.924,30.285,37.115,30.197z"/>
				<path class="st16" d="M32.491,30.045c-0.149-0.088-0.461-0.073-0.603,0.028c-0.092,0.066-0.09,0.145,0.008,0.199
					c0.083,0.047,0.177,0.058,0.276,0.054c0.113,0.003,0.224-0.015,0.322-0.077C32.593,30.188,32.59,30.103,32.491,30.045z"/>
				<path class="st17" d="M35.613,30.208c0.09,0.051,0.191,0.064,0.295,0.064c0.096,0,0.189-0.014,0.274-0.058
					c0.12-0.062,0.127-0.161,0.008-0.219c-0.187-0.092-0.384-0.094-0.573,0.002C35.505,30.052,35.506,30.147,35.613,30.208z"/>
				<path class="st16" d="M38.044,30.184c0.114-0.052,0.115-0.146,0.007-0.21c-0.093-0.056-0.199-0.072-0.326-0.07
					c-0.076-0.002-0.167,0.01-0.25,0.054c-0.114,0.06-0.12,0.159-0.007,0.216C37.655,30.267,37.851,30.271,38.044,30.184z"/>
				<path class="st17" d="M34.68,30.222c0.09,0.051,0.191,0.065,0.25,0.063c0.155-0.003,0.262-0.014,0.354-0.078
					c0.085-0.06,0.082-0.135-0.002-0.192c-0.141-0.095-0.457-0.094-0.603,0.002C34.581,30.08,34.581,30.166,34.68,30.222z"/>
				<path class="st16" d="M32.526,29.621c-0.081-0.046-0.172-0.054-0.263-0.058c-0.116,0.005-0.228,0.022-0.324,0.087
					c-0.093,0.062-0.092,0.152,0.009,0.198c0.194,0.088,0.393,0.08,0.581-0.023C32.632,29.768,32.627,29.678,32.526,29.621z"/>
				<path class="st17" d="M34.678,29.796c0.188,0.094,0.384,0.094,0.575-0.001c0.1-0.05,0.101-0.14,0.009-0.199
					c-0.09-0.058-0.194-0.072-0.287-0.074c-0.113,0.001-0.209,0.016-0.294,0.066C34.576,29.648,34.572,29.743,34.678,29.796z"/>
				<path class="st16" d="M37.069,29.77c0.106-0.051,0.105-0.14,0.008-0.203c-0.092-0.06-0.2-0.069-0.309-0.075
					c-0.089,0.008-0.178,0.015-0.258,0.059c-0.114,0.062-0.122,0.159-0.008,0.216C36.686,29.86,36.88,29.861,37.069,29.77z"/>
				<path class="st17" d="M33.772,29.394c0.187,0.097,0.383,0.096,0.573,0.005c0.111-0.053,0.107-0.152-0.001-0.212
					c-0.088-0.049-0.186-0.062-0.289-0.066c-0.099,0.005-0.198,0.018-0.285,0.073C33.677,29.254,33.674,29.344,33.772,29.394z"/>
				<path class="st17" d="M35.262,28.767c-0.138-0.101-0.458-0.104-0.601-0.006c-0.092,0.064-0.09,0.142,0.006,0.201
					c0.089,0.055,0.192,0.061,0.294,0.068c0.102-0.01,0.206-0.016,0.294-0.075C35.338,28.9,35.339,28.825,35.262,28.767z"/>
				<path class="st16" d="M37.725,29.817c0.081,0.001,0.177-0.012,0.262-0.063c0.091-0.054,0.093-0.128,0.01-0.19
					c-0.136-0.101-0.446-0.111-0.594-0.02c-0.096,0.059-0.098,0.14-0.004,0.2C37.491,29.803,37.597,29.818,37.725,29.817z"/>
				<path class="st17" d="M33.771,28.968c0.138,0.088,0.442,0.09,0.582,0.002c0.098-0.061,0.099-0.145,0.001-0.205
					c-0.088-0.055-0.191-0.064-0.294-0.07c-0.1,0.006-0.2,0.017-0.286,0.071C33.679,28.826,33.679,28.91,33.771,28.968z"/>
				<path class="st17" d="M35.599,29.787c0.181,0.085,0.37,0.085,0.553-0.001c0.116-0.055,0.115-0.153,0.003-0.215
					c-0.088-0.049-0.186-0.065-0.276-0.06c-0.123,0.001-0.212,0.02-0.277,0.056C35.483,29.633,35.479,29.731,35.599,29.787z"/>
				<path class="st16" d="M35.555,29.363c0.089,0.056,0.191,0.064,0.33,0.067c0.077,0,0.188-0.026,0.253-0.067
					c0.094-0.06,0.096-0.142,0.003-0.201c-0.144-0.092-0.432-0.094-0.582-0.004C35.459,29.218,35.457,29.302,35.555,29.363z"/>
				<path class="st17" d="M32.576,29.207c-0.139-0.093-0.434-0.096-0.581-0.006c-0.103,0.063-0.104,0.149,0,0.209
					c0.005,0.003,0.011,0.006,0.017,0.009c0.083,0.043,0.175,0.056,0.271,0.053c0.101,0.001,0.201-0.012,0.288-0.065
					C32.668,29.349,32.668,29.268,32.576,29.207z"/>
				<path class="st16" d="M31.613,29.631c-0.079-0.043-0.167-0.053-0.244-0.051c-0.126,0.001-0.235,0.019-0.329,0.081
					c-0.102,0.067-0.1,0.16,0.01,0.207c0.194,0.083,0.39,0.07,0.574-0.035C31.724,29.776,31.716,29.686,31.613,29.631z"/>
				<path class="st17" d="M34.675,29.378c0.086,0.048,0.182,0.057,0.297,0.06c0.083-0.005,0.183-0.012,0.271-0.065
					c0.099-0.059,0.103-0.151,0.002-0.204c-0.186-0.097-0.382-0.1-0.572-0.004C34.562,29.221,34.567,29.317,34.675,29.378z"/>
				<path class="st16" d="M33.429,29.607c-0.143-0.083-0.435-0.072-0.574,0.021c-0.1,0.068-0.097,0.151,0.01,0.208
					c0.018,0.009,0.036,0.017,0.055,0.024c0.067,0.023,0.138,0.03,0.211,0.029c0.101-0.001,0.191-0.018,0.26-0.05
					c0.013-0.006,0.025-0.012,0.036-0.019C33.535,29.755,33.536,29.669,33.429,29.607z"/>
				<path class="st17" d="M33.475,28.773c-0.086-0.047-0.181-0.063-0.284-0.058c-0.089-0.004-0.179,0.01-0.263,0.053
					c-0.049,0.025-0.094,0.058-0.095,0.115c-0.001,0.054,0.039,0.088,0.087,0.109c0.183,0.081,0.371,0.084,0.554-0.003
					C33.59,28.933,33.588,28.835,33.475,28.773z"/>
				<path class="st17" d="M33.444,29.186c-0.177-0.081-0.358-0.083-0.538-0.004c-0.049,0.021-0.094,0.055-0.095,0.114
					c-0.001,0.063,0.047,0.094,0.097,0.118c0.003,0.001,0.005,0.002,0.008,0.004c0.081,0.037,0.168,0.05,0.258,0.046
					c0.087,0.002,0.172-0.01,0.251-0.046c0.005-0.002,0.01-0.005,0.016-0.008c0.046-0.023,0.088-0.051,0.091-0.108
					C33.534,29.243,33.493,29.209,33.444,29.186z"/>
				<path class="st17" d="M33.793,28.561c0.086,0.047,0.179,0.066,0.28,0.056c0.088,0.008,0.173-0.008,0.253-0.041
					c0.05-0.021,0.092-0.051,0.099-0.111c0.006-0.058-0.029-0.092-0.073-0.116c-0.139-0.078-0.418-0.091-0.564,0.007
					C33.684,28.423,33.685,28.502,33.793,28.561z"/>
				<path class="st16" d="M31.684,29.221c-0.141-0.091-0.461-0.074-0.594,0.032c-0.078,0.062-0.074,0.136,0.01,0.187
					c0.078,0.047,0.166,0.056,0.266,0.057c0.108-0.003,0.223-0.02,0.321-0.09C31.769,29.349,31.766,29.274,31.684,29.221z"/>
				<path class="st16" d="M37.902,29.131c-0.089-0.051-0.19-0.064-0.293-0.065c-0.085,0.001-0.168,0.012-0.243,0.05
					c-0.002,0.001-0.005,0.003-0.007,0.004c-0.107,0.057-0.116,0.151-0.012,0.207c0.179,0.098,0.37,0.103,0.558,0.015
					c0.11-0.052,0.11-0.145,0.007-0.207C37.908,29.134,37.905,29.132,37.902,29.131z"/>
				<path class="st16" d="M36.758,29.414c0.08,0.002,0.17-0.014,0.252-0.058c0.111-0.06,0.116-0.154,0.004-0.21
					c-0.176-0.089-0.362-0.094-0.544-0.01c-0.116,0.054-0.116,0.154-0.005,0.216C36.55,29.399,36.645,29.415,36.758,29.414z"/>
				<path class="st17" d="M34.652,28.549c0.011,0.006,0.022,0.012,0.033,0.017c0.079,0.036,0.165,0.047,0.254,0.044
					c0.11-0.001,0.197-0.018,0.26-0.052c0.002-0.001,0.004-0.002,0.006-0.003c0.114-0.065,0.118-0.16,0-0.213
					c-0.181-0.083-0.369-0.087-0.552,0.007C34.55,28.401,34.551,28.493,34.652,28.549z"/>
				<path class="st17" d="M34.656,28.142c0.088,0.049,0.186,0.063,0.274,0.059c0.129-0.001,0.227-0.022,0.287-0.059
					c0.092-0.056,0.101-0.131,0.022-0.19c-0.134-0.099-0.456-0.104-0.592-0.008C34.553,28.009,34.557,28.087,34.656,28.142z"/>
				<path class="st16" d="M32.6,28.786c-0.141-0.081-0.425-0.067-0.559,0.026c-0.092,0.064-0.09,0.146,0.007,0.2
					c0.002,0.001,0.005,0.003,0.007,0.004c0.077,0.04,0.163,0.05,0.251,0.048c0.101-0.002,0.198-0.016,0.284-0.068
					c0.006-0.003,0.011-0.007,0.017-0.011C32.701,28.924,32.697,28.841,32.6,28.786z"/>
				<path class="st16" d="M31.171,29.026c0.139,0.084,0.44,0.066,0.571-0.034c0.082-0.063,0.079-0.139-0.01-0.191
					c-0.078-0.045-0.166-0.056-0.256-0.054c-0.113,0.003-0.221,0.02-0.313,0.087C31.078,28.895,31.084,28.973,31.171,29.026z"/>
				<path class="st16" d="M35.534,28.941c0.084,0.056,0.183,0.069,0.284,0.07c0.096,0,0.189-0.014,0.273-0.062
					c0.099-0.056,0.102-0.144,0.007-0.206c-0.136-0.088-0.417-0.088-0.557,0C35.45,28.801,35.446,28.883,35.534,28.941z"/>
				<path class="st16" d="M37.3,28.708c-0.109,0.051-0.111,0.144-0.01,0.207c0.008,0.005,0.017,0.01,0.025,0.014
					c0.082,0.043,0.174,0.053,0.268,0.054c0.091-0.001,0.18-0.019,0.24-0.048c0.006-0.003,0.012-0.006,0.018-0.01
					c0.097-0.057,0.105-0.144,0.008-0.198C37.673,28.629,37.485,28.622,37.3,28.708z"/>
				<path class="st16" d="M36.94,28.718c-0.078-0.039-0.165-0.05-0.254-0.052l0,0l0,0c-0.087,0.001-0.172,0.011-0.249,0.051
					c-0.005,0.003-0.01,0.005-0.015,0.008c-0.101,0.058-0.104,0.142-0.009,0.205c0.13,0.086,0.412,0.091,0.55,0.01
					c0.104-0.061,0.105-0.147,0.002-0.208C36.957,28.726,36.949,28.722,36.94,28.718z"/>
				<path class="st17" d="M35.523,28.537c0.082,0.048,0.175,0.061,0.269,0.061c0.095-0.002,0.186-0.014,0.267-0.062
					c0.096-0.056,0.098-0.14,0.006-0.201c-0.131-0.087-0.406-0.088-0.542-0.004C35.425,28.393,35.424,28.479,35.523,28.537z"/>
				<path class="st16" d="M37.245,28.296c-0.112,0.052-0.112,0.149-0.005,0.212c0.085,0.05,0.181,0.062,0.262,0.063
					c0.114-0.001,0.208-0.021,0.267-0.055c0.098-0.056,0.106-0.143,0.009-0.198C37.608,28.221,37.426,28.213,37.245,28.296z"/>
				<path class="st16" d="M32.086,28.592c0.081,0.044,0.168,0.066,0.262,0.057c0.11,0.006,0.211-0.019,0.3-0.077
					c0.083-0.054,0.087-0.135,0.005-0.186c-0.163-0.102-0.433-0.086-0.585,0.033C31.995,28.475,32.005,28.547,32.086,28.592z"/>
				<path class="st16" d="M33.483,28.36c-0.075-0.036-0.156-0.055-0.23-0.053c-0.121,0.001-0.225,0.024-0.317,0.085
					c-0.068,0.045-0.075,0.123-0.02,0.169c0.127,0.107,0.467,0.105,0.594-0.004C33.588,28.49,33.577,28.404,33.483,28.36z"/>
				<path class="st16" d="M36.636,28.258c-0.104,0.001-0.189,0.019-0.25,0.055c-0.104,0.059-0.11,0.154-0.005,0.208
					c0.171,0.089,0.352,0.091,0.528,0.007c0.109-0.052,0.109-0.145,0.006-0.207C36.83,28.271,36.734,28.257,36.636,28.258z"/>
				<path class="st16" d="M31.247,28.617c0.002,0.001,0.005,0.002,0.007,0.004c0.071,0.036,0.149,0.043,0.228,0.043
					c0.095-0.002,0.188-0.015,0.271-0.059c0.001-0.001,0.002-0.001,0.003-0.002c0.004-0.002,0.009-0.005,0.013-0.007
					c0.004-0.002,0.008-0.005,0.012-0.007c0.003-0.002,0.006-0.004,0.009-0.006c0.09-0.061,0.086-0.14-0.006-0.195
					c-0.137-0.082-0.43-0.064-0.556,0.035C31.144,28.488,31.151,28.566,31.247,28.617z"/>
				<path class="st17" d="M35.503,28.129c0.08,0.047,0.171,0.058,0.265,0.06c0.089-0.004,0.177-0.014,0.256-0.06
					c0.097-0.057,0.099-0.139,0.006-0.2c-0.127-0.085-0.394-0.087-0.527-0.005C35.405,27.985,35.404,28.071,35.503,28.129z"/>
				<path class="st16" d="M33.814,28.153c0.005,0.003,0.01,0.006,0.014,0.009c0.073,0.041,0.156,0.05,0.241,0.052
					c0.077-0.001,0.153-0.009,0.223-0.037c0.001,0,0.002-0.001,0.003-0.001c0.005-0.002,0.009-0.004,0.014-0.006
					c0.006-0.003,0.011-0.005,0.016-0.008c0.008-0.004,0.016-0.009,0.024-0.014c0.092-0.058,0.094-0.137,0.007-0.197
					c-0.132-0.089-0.419-0.082-0.547,0.015C33.73,28.026,33.731,28.101,33.814,28.153z"/>
				<path class="st17" d="M36.341,28.113c0.002,0.002,0.005,0.003,0.007,0.004c0.078,0.045,0.166,0.056,0.256,0.058
					c0.087,0.001,0.176-0.017,0.239-0.047c0.004-0.002,0.008-0.004,0.012-0.006c0.104-0.056,0.11-0.139,0.015-0.204
					c-0.128-0.086-0.394-0.092-0.527-0.011C36.243,27.969,36.242,28.053,36.341,28.113z"/>
				<path class="st16" d="M32.161,28.199c0.07,0.027,0.141,0.05,0.214,0.039c0.099,0.006,0.189-0.012,0.271-0.054
					c0.049-0.026,0.106-0.055,0.101-0.118c-0.005-0.066-0.058-0.102-0.119-0.12c-0.163-0.048-0.324-0.042-0.478,0.038
					c-0.044,0.023-0.081,0.058-0.079,0.108C32.073,28.144,32.111,28.18,32.161,28.199z"/>
				<path class="st16" d="M31.308,28.205c0.007,0.004,0.014,0.007,0.02,0.011c0.067,0.031,0.14,0.037,0.214,0.038
					c0.097-0.002,0.192-0.016,0.275-0.064c0.009-0.005,0.017-0.01,0.025-0.016c0.089-0.062,0.085-0.141-0.009-0.195
					c-0.139-0.081-0.415-0.062-0.54,0.036C31.212,28.077,31.218,28.154,31.308,28.205z"/>
				<path class="st16" d="M33.452,27.928c-0.165-0.048-0.324-0.036-0.474,0.049c-0.088,0.049-0.086,0.149,0.002,0.196
					c0.076,0.04,0.159,0.059,0.268,0.059c0.095-0.012,0.211-0.02,0.301-0.104c0.038-0.036,0.044-0.077,0.015-0.116
					C33.535,27.975,33.5,27.942,33.452,27.928z"/>
				<path class="st16" d="M37.176,28.096c0.086,0.054,0.185,0.066,0.271,0.067c0.097-0.001,0.177-0.014,0.25-0.052
					c0.1-0.053,0.105-0.136,0.014-0.199c-0.125-0.088-0.393-0.098-0.527-0.02C37.083,27.949,37.079,28.034,37.176,28.096z"/>
			</g>
		</g>
		<g class="st18">
			<path class="st19" d="M36.492,25.761c-0.027-0.129-0.08-0.253-0.159-0.37c-0.121-0.179-0.29-0.331-0.507-0.455
				c-0.211-0.121-0.448-0.205-0.712-0.253c-0.112-0.02-0.226-0.032-0.341-0.038c-0.04-0.002-0.08-0.004-0.12-0.001
				c0-0.002-0.002-0.003-0.004-0.003c-0.652,0.006-1.303,0.012-1.955,0.018c0.001,0.001,0,0.003-0.001,0.004
				c-0.006,0-0.012,0.001-0.017,0.003c-0.027,0.011-0.03,0.028-0.009,0.044c0.008,0.006,0.017,0.009,0.027,0.013
				c0.131,0.051,0.262,0.103,0.393,0.154c0.026,0.01,0.052,0.021,0.074,0.035c0.055,0.035,0.082,0.077,0.069,0.131
				c-0.01,0.041-0.038,0.076-0.075,0.109c-0.115,0.101-0.208,0.211-0.279,0.331c-0.084,0.142-0.131,0.289-0.143,0.442
				c-0.006,0.073-0.003,0.146,0.008,0.219c0.014,0.088,0.038,0.174,0.076,0.257c0.108,0.238,0.295,0.439,0.563,0.601
				c0.324,0.195,0.701,0.299,1.129,0.314c0.173,0.006,0.345-0.005,0.515-0.034c0.339-0.056,0.635-0.17,0.889-0.34
				c0.18-0.121,0.322-0.261,0.426-0.42c0.109-0.167,0.165-0.343,0.174-0.525C36.517,25.919,36.509,25.84,36.492,25.761z
				 M34.618,27.021c-0.841,0.008-1.474-0.473-1.467-1.028c-0.003-0.563,0.649-1.047,1.475-1.053
				c0.823-0.007,1.476,0.464,1.466,1.037C36.084,26.532,35.45,27.013,34.618,27.021z"/>
			<path class="st19" d="M34.817,25.702c-0.038-0.046-0.085-0.085-0.15-0.113c-0.1-0.043-0.204-0.045-0.309-0.005
				c-0.056,0.022-0.101,0.053-0.138,0.089c-0.074,0.073-0.112,0.155-0.126,0.243c-0.015,0.093-0.003,0.183,0.042,0.27
				c0.032,0.063,0.079,0.119,0.151,0.163c0.118,0.074,0.272,0.079,0.398,0.013c0.044-0.023,0.08-0.051,0.11-0.083
				c0.086-0.091,0.118-0.193,0.121-0.3c0.001-0.019-0.002-0.038-0.004-0.057C34.902,25.843,34.872,25.77,34.817,25.702z"/>
			<path class="st19" d="M35.336,25.718c-0.031,0.021-0.056,0.045-0.075,0.072c-0.072,0.102-0.08,0.208-0.033,0.315
				c0.02,0.047,0.054,0.09,0.105,0.124c0.072,0.048,0.165,0.06,0.247,0.033c0.047-0.015,0.084-0.039,0.114-0.069
				c0.068-0.067,0.092-0.143,0.096-0.225c-0.001-0.033-0.006-0.066-0.017-0.1c-0.021-0.059-0.056-0.112-0.119-0.154
				C35.559,25.652,35.43,25.654,35.336,25.718z"/>
		</g>
		<g class="st20">
			<path class="st13" d="M31.17,25.978c-0.165,0.08-1.821,1.184-2.563,2.198c1.406-1.219,2.659-1.615,2.825-1.695
				c0.165-0.08,0.241-0.258,0.169-0.397C31.529,25.945,31.335,25.898,31.17,25.978z"/>
			<path class="st13" d="M32.822,25.433c-0.557,0.005-0.833,0.256-0.862,0.285c-0.115,0.111-0.116,0.289-0.001,0.398
				c0.057,0.054,0.132,0.081,0.207,0.08c0.074-0.001,0.148-0.028,0.205-0.081c0.012-0.01,0.154-0.116,0.45-0.119
				c0.162-0.002,0.294-0.129,0.294-0.284C33.115,25.556,32.984,25.432,32.822,25.433z"/>
		</g>
		<g class="st21">
			<path class="st13" d="M29.702,33.103l0.072,0.375c-0.001,0.352,0.294,0.638,0.616,0.635c0,0,1.78,0.445,4.196,0.423
				s4.199-0.501,4.199-0.501c0.322-0.003,0.618-0.294,0.62-0.647l0.074-0.377c-1.258,0.261-2.984,0.432-4.889,0.449
				C32.685,33.477,30.959,33.341,29.702,33.103z"/>
		</g>
		<g class="st21">
			<path class="st13" d="M31.489,35.353l0.045,0.307c-0.001,0.289,0.186,0.523,0.389,0.521c0,0,1.126,0.368,2.655,0.353
				c1.529-0.014,2.658-0.403,2.658-0.403c0.204-0.002,0.392-0.24,0.392-0.528l0.047-0.308c-0.796,0.212-1.889,0.348-3.094,0.359
				C33.377,35.667,32.285,35.55,31.489,35.353z"/>
		</g>
		<path class="st22" d="M41.922,31.063c-0.012,3.945-3.361,7.174-7.48,7.212s-7.447-3.129-7.435-7.074c0,0,3.606,3.493,8.404,2.588
			C40.634,32.804,41.922,31.063,41.922,31.063z"/>
	</g>
</g>
<g>
	<ellipse transform="matrix(1 -0.0056 0.0056 1 -0.2479 0.1125)" class="st0" cx="19.973" cy="44.33" rx="4.997" ry="1.902"/>
	<g>
		
			<ellipse transform="matrix(0.9898 -0.1428 0.1428 0.9898 -5.7017 3.2439)" class="st23" cx="19.75" cy="41.347" rx="4.358" ry="4.167"/>
		<g>
			<g>
				<path class="st19" d="M18.007,39.489c0.025,0.087,0.071,0.169,0.137,0.247c0.163,0.192,0.411,0.335,0.747,0.426
					c0.278,0.075,0.573,0.102,0.885,0.081c0.109-0.007,0.217-0.022,0.322-0.042c0.088-0.017,0.173-0.037,0.255-0.062
					c0.172-0.051,0.325-0.117,0.46-0.197c0.114-0.068,0.209-0.144,0.286-0.227c0.025-0.027,0.055-0.05,0.1-0.067
					c0.057-0.022,0.116-0.022,0.174-0.007c0.024,0.006,0.045,0.015,0.066,0.024c0.104,0.045,0.208,0.09,0.312,0.135
					c0.008,0.003,0.015,0.007,0.024,0.008c0.025,0.005,0.044-0.002,0.048-0.017c0.001-0.003,0-0.006-0.002-0.009
					c-0.095-0.133-0.189-0.265-0.284-0.398c-0.116-0.163-0.233-0.327-0.349-0.49c-0.005-0.006-0.008-0.013-0.012-0.02
					c-0.011-0.019-0.027-0.037-0.043-0.055c-0.046-0.051-0.098-0.1-0.16-0.146c-0.145-0.107-0.323-0.192-0.534-0.253
					c-0.218-0.063-0.45-0.096-0.697-0.098c-0.162-0.002-0.323,0.011-0.481,0.037c-0.096,0.016-0.191,0.036-0.281,0.061
					c-0.207,0.059-0.39,0.137-0.546,0.237c-0.148,0.095-0.261,0.202-0.339,0.321C17.987,39.146,17.957,39.317,18.007,39.489z
					 M19.148,38.608c0.658-0.175,1.422-0.015,1.695,0.367c0.274,0.383-0.062,0.827-0.711,0.993c-0.637,0.169-1.406,0.02-1.684-0.37
					C18.174,39.213,18.513,38.778,19.148,38.608z"/>
				<path class="st19" d="M19.243,39.297c0.076-0.067,0.182-0.112,0.305-0.145c0.022-0.006,0.045-0.01,0.068-0.015
					c0.093-0.019,0.188-0.027,0.285-0.022c0.066,0.004,0.128,0.014,0.182,0.035c0.084,0.033,0.122,0.08,0.111,0.141
					c-0.006,0.032-0.026,0.062-0.056,0.09c-0.059,0.056-0.14,0.098-0.237,0.13c-0.102,0.034-0.21,0.056-0.326,0.061
					c-0.083,0.004-0.164-0.001-0.239-0.021c-0.125-0.032-0.184-0.102-0.151-0.179C19.197,39.345,19.217,39.32,19.243,39.297z"/>
				<path class="st19" d="M19.263,38.745c0.038-0.009,0.079-0.017,0.121-0.022c0.075-0.008,0.148-0.008,0.218,0.009
					c0.104,0.025,0.146,0.085,0.104,0.147c-0.014,0.021-0.033,0.039-0.058,0.056c-0.094,0.063-0.212,0.099-0.352,0.109
					c-0.062,0.005-0.122,0.002-0.179-0.012c-0.08-0.019-0.126-0.058-0.122-0.104c0.002-0.026,0.017-0.05,0.041-0.073
					C19.09,38.805,19.169,38.771,19.263,38.745z"/>
			</g>
			<g>
				<path class="st24" d="M15.616,40.07c0.027,0.64,1.367,2.821,4.129,2.429s3.8-1.773,4.132-2.501
					c0.218,0.525,0.326,1.1,0.296,1.699c-0.115,2.287-2.184,4.053-4.62,3.945s-4.318-2.05-4.203-4.337
					C15.373,40.871,15.465,40.457,15.616,40.07z"/>
			</g>
		</g>
	</g>
</g>
</svg>
