<?xml version="1.0" encoding="utf-8"?>
<!-- Generator: Adobe Illustrator 25.4.1, SVG Export Plug-In . SVG Version: 6.00 Build 0)  -->
<svg version="1.1" id="Layer_1" xmlns="http://www.w3.org/2000/svg" xmlns:xlink="http://www.w3.org/1999/xlink" x="0px" y="0px"
	 viewBox="0 0 50 50" style="enable-background:new 0 0 50 50;" xml:space="preserve">
<style type="text/css">
	.st0{opacity:0.5;fill:#C0C7CA;}
	.st1{fill:#B8B8B8;}
	.st2{fill:#F2F2F2;}
	.st3{fill:#808080;}
	.st4{fill:#DAF4FC;}
	.st5{fill:#00B4E9;}
	.st6{fill:#662D99;}
	.st7{fill:#34CBC7;}
	.st8{fill:#0096C2;}
	.st9{fill:#401F65;}
	.st10{fill:#00938D;}
	.st11{fill:#FFFFEC;}
	.st12{fill:#949494;}
	.st13{fill:#CCCCCC;}
	.st14{fill:#595959;}
	.st15{fill:#BBBBBB;}
	.st16{fill:#F9F9F9;}
	.st17{fill:#DDF900;}
	.st18{opacity:0.58;}
	.st19{fill:#0093CF;}
	.st20{opacity:0.57;}
	.st21{opacity:0.38;}
	.st22{opacity:0.5;fill:#F6F6F6;}
	.st23{fill:#FFFFFF;}
	.st24{fill:#00B7F3;}
</style>
<g>
	<path class="st0" d="M48.466,40.761c0.01-0.005,0.019-0.011,0.029-0.016c0.01-0.006,0.02-0.011,0.029-0.017
		c0.004-0.002,0.007-0.004,0.01-0.007c0.002-0.001,0.004-0.002,0.006-0.004c0.004-0.002,0.008-0.005,0.012-0.007
		c0.009-0.006,0.017-0.012,0.026-0.018c0.007-0.005,0.013-0.01,0.019-0.015c0.001-0.001,0.002-0.001,0.003-0.002
		c0.001-0.001,0.002-0.001,0.003-0.002c0.008-0.006,0.016-0.013,0.023-0.019c0.008-0.007,0.015-0.014,0.022-0.02
		c0.001-0.001,0.001-0.001,0.002-0.002c0.001-0.001,0.002-0.002,0.002-0.003c0.006-0.006,0.011-0.011,0.016-0.017
		c0.007-0.007,0.013-0.015,0.019-0.022c0.001-0.001,0.002-0.003,0.003-0.004c0.001-0.002,0.002-0.003,0.004-0.005
		c0.004-0.005,0.008-0.01,0.011-0.015c0.006-0.008,0.011-0.016,0.016-0.025c0.001-0.001,0.001-0.002,0.002-0.003
		c0.001-0.002,0.002-0.003,0.003-0.005c0.003-0.006,0.007-0.012,0.01-0.018c0.004-0.007,0.006-0.015,0.009-0.022
		c0.001-0.002,0.002-0.004,0.002-0.006c0-0.001,0.001-0.002,0.001-0.002c0.004-0.012,0.008-0.024,0.01-0.037
		c0-0.001,0-0.003,0-0.004c0.001-0.006,0.001-0.012,0.002-0.017c0.001-0.01,0.002-0.019,0.002-0.029
		c0-0.006-0.001-0.012-0.001-0.019c-0.001-0.006,0-0.012-0.001-0.018c-0.001-0.003-0.001-0.006-0.002-0.009
		c0-0.001-0.001-0.003-0.001-0.004c-0.001-0.004-0.002-0.008-0.003-0.012c-0.003-0.01-0.006-0.021-0.011-0.031
		c-0.002-0.005-0.004-0.009-0.006-0.014c-0.002-0.004-0.003-0.008-0.005-0.011c-0.003-0.006-0.007-0.011-0.011-0.017
		c-0.003-0.005-0.006-0.011-0.01-0.016c-0.001-0.002-0.003-0.004-0.004-0.006c-0.008-0.011-0.017-0.021-0.026-0.032
		c0,0,0,0-0.001-0.001c-0.001-0.001-0.001-0.001-0.002-0.002c-0.008-0.008-0.016-0.016-0.024-0.024
		c-0.005-0.004-0.01-0.009-0.015-0.013c-0.002-0.002-0.005-0.004-0.007-0.006c-0.002-0.002-0.004-0.003-0.006-0.005
		c-0.009-0.007-0.019-0.014-0.029-0.022c-0.004-0.003-0.009-0.006-0.014-0.009c-0.002-0.002-0.005-0.003-0.007-0.005
		c-0.003-0.002-0.006-0.004-0.008-0.006c-0.01-0.006-0.019-0.012-0.03-0.018c-0.006-0.004-0.013-0.007-0.02-0.011
		c-0.002-0.001-0.004-0.002-0.005-0.003c-0.002-0.001-0.004-0.002-0.005-0.003c-0.01-0.005-0.02-0.01-0.031-0.015
		c-0.011-0.005-0.021-0.01-0.032-0.014c-0.001,0-0.002-0.001-0.003-0.001l-16.223-6.59c-0.01-0.004-0.02-0.008-0.03-0.012
		c-0.011-0.004-0.022-0.008-0.034-0.012c-0.002-0.001-0.004-0.001-0.006-0.002c-0.002-0.001-0.004-0.001-0.006-0.002
		c-0.008-0.003-0.015-0.005-0.023-0.008c-0.012-0.004-0.024-0.007-0.036-0.011c-0.003-0.001-0.006-0.002-0.009-0.003
		c-0.003-0.001-0.006-0.002-0.009-0.002c-0.007-0.002-0.013-0.004-0.02-0.005c-0.013-0.003-0.026-0.007-0.039-0.01
		c-0.004-0.001-0.007-0.002-0.011-0.002c-0.003-0.001-0.007-0.001-0.01-0.002c-0.007-0.001-0.014-0.003-0.02-0.004
		c-0.015-0.003-0.029-0.006-0.044-0.008c-0.003,0-0.005-0.001-0.008-0.001c-0.004-0.001-0.007-0.001-0.011-0.002
		c-0.01-0.002-0.019-0.003-0.029-0.005c-0.014-0.002-0.029-0.004-0.043-0.006c-0.003,0-0.005-0.001-0.008-0.001
		c-0.001,0-0.002,0-0.003,0c-0.02-0.002-0.04-0.004-0.06-0.006c-0.004,0-0.009-0.001-0.013-0.001
		c-0.009-0.001-0.018-0.001-0.027-0.002c-0.01-0.001-0.02-0.002-0.031-0.002c-0.006,0-0.013,0-0.019-0.001
		c-0.016-0.001-0.033-0.001-0.049-0.002c-0.008,0-0.017-0.001-0.025-0.001c-0.012,0-0.024,0-0.036,0l-0.979,0.005
		c0.001,0,0.003,0,0.004,0c-0.302,0.001-0.61,0.063-0.836,0.183l-6.947,2.683c-0.404,0.214-0.392,0.531,0.027,0.707l16.194,6.585
		c0.191,0.08,0.432,0.117,0.677,0.114c-0.006,0-0.012,0-0.019,0l0.979-0.005c0.03,0,0.059-0.001,0.089-0.002
		c0.005,0,0.009,0,0.014-0.001c0.028-0.001,0.057-0.003,0.085-0.006c0.005,0,0.011-0.001,0.016-0.002
		c0.028-0.003,0.057-0.006,0.085-0.01c0.004-0.001,0.008-0.001,0.012-0.002c0.028-0.004,0.056-0.008,0.084-0.014
		c0.001,0,0.002,0,0.003-0.001c0,0,0.001,0,0.001,0c0.026-0.005,0.052-0.01,0.078-0.016c0.003-0.001,0.006-0.001,0.009-0.002
		c0.003-0.001,0.006-0.002,0.009-0.002c0.015-0.004,0.029-0.007,0.044-0.011c0.004-0.001,0.008-0.002,0.012-0.003
		c0.001,0,0.003-0.001,0.004-0.001c0.012-0.003,0.023-0.007,0.035-0.01c0.005-0.002,0.011-0.003,0.016-0.005
		c0.001,0,0.002-0.001,0.002-0.001c0.008-0.002,0.015-0.005,0.023-0.007c0.008-0.003,0.016-0.005,0.024-0.008
		c0.001,0,0.002-0.001,0.003-0.001c0.005-0.002,0.01-0.004,0.015-0.006c0.008-0.003,0.017-0.006,0.025-0.009
		c0.002-0.001,0.004-0.002,0.006-0.002c0.005-0.002,0.01-0.004,0.016-0.006c0.006-0.002,0.012-0.005,0.018-0.007
		c0.003-0.001,0.007-0.003,0.01-0.004c0.005-0.002,0.01-0.004,0.015-0.007c0.004-0.002,0.008-0.003,0.011-0.005
		c0.006-0.003,0.012-0.005,0.017-0.008c0.004-0.002,0.008-0.004,0.012-0.006c0.002-0.001,0.003-0.002,0.005-0.002
		c0.011-0.005,0.022-0.011,0.033-0.017l0,0c0.001,0,0.001-0.001,0.002-0.001L48.466,40.761z M30.84,33.369
		C30.84,33.369,30.84,33.369,30.84,33.369c0.003,0,0.006,0.001,0.008,0.001c0,0,0.001,0,0.001,0
		C30.846,33.37,30.843,33.37,30.84,33.369z M31.001,33.396c0.001,0,0.002,0,0.003,0.001c0.003,0.001,0.007,0.001,0.01,0.002
		c0,0,0,0,0,0C31.01,33.398,31.005,33.397,31.001,33.396z M31.082,33.416c0.001,0,0.001,0,0.002,0
		c0.003,0.001,0.006,0.002,0.008,0.002c0.002,0.001,0.004,0.001,0.005,0.002C31.093,33.419,31.088,33.417,31.082,33.416z
		 M31.163,33.441c0.002,0.001,0.003,0.001,0.005,0.002c0.004,0.001,0.008,0.003,0.012,0.004
		C31.174,33.444,31.168,33.442,31.163,33.441z M40.068,43.591c-0.001,0-0.003,0-0.004,0.001c0,0,0,0-0.001,0
		C40.064,43.592,40.066,43.591,40.068,43.591C40.068,43.591,40.068,43.591,40.068,43.591z M40.224,43.555
		c-0.001,0-0.002,0-0.002,0.001c0.003-0.001,0.007-0.002,0.01-0.003C40.229,43.554,40.226,43.555,40.224,43.555z M40.277,43.54
		c-0.002,0.001-0.004,0.001-0.007,0.002c0.006-0.002,0.012-0.004,0.018-0.006C40.284,43.537,40.28,43.539,40.277,43.54z
		 M40.326,43.524c-0.003,0.001-0.006,0.002-0.008,0.003c0.006-0.002,0.012-0.004,0.018-0.006
		C40.333,43.521,40.329,43.522,40.326,43.524z M40.372,43.507c-0.002,0.001-0.005,0.002-0.008,0.003
		c0.005-0.002,0.01-0.004,0.015-0.006C40.377,43.505,40.375,43.506,40.372,43.507z M40.416,43.489
		c-0.002,0.001-0.004,0.002-0.006,0.002c0.004-0.002,0.007-0.003,0.011-0.005C40.42,43.487,40.418,43.488,40.416,43.489z
		 M40.46,43.469c-0.001,0.001-0.003,0.001-0.004,0.002c0.003-0.001,0.005-0.002,0.008-0.004
		C40.463,43.468,40.462,43.469,40.46,43.469z M47.487,40.766c0,0,0.001,0,0.001-0.001C47.488,40.766,47.488,40.766,47.487,40.766
		L47.487,40.766z"/>
	<ellipse transform="matrix(1 -0.0056 0.0056 1 -0.2444 0.164)" class="st0" cx="28.943" cy="43.407" rx="4.997" ry="1.902"/>
	<ellipse transform="matrix(1 -0.0066 0.0066 1 -0.284 0.0776)" class="st0" cx="11.559" cy="42.845" rx="7.458" ry="3.189"/>
	<g>
		<path class="st1" d="M40.737,25.67c0-0.002-0.001-0.005-0.001-0.007c0-0.002-0.001-0.004-0.001-0.006
			c-0.003-0.02-0.007-0.04-0.011-0.06c-0.004-0.021-0.009-0.042-0.014-0.063c0-0.002-0.001-0.004-0.002-0.006
			c-0.001-0.003-0.001-0.005-0.002-0.008c-0.004-0.017-0.008-0.034-0.013-0.05c-0.006-0.022-0.012-0.044-0.019-0.066
			c-0.001-0.004-0.003-0.008-0.004-0.012c-0.001-0.005-0.003-0.009-0.005-0.014c-0.005-0.014-0.009-0.029-0.014-0.043
			c-0.008-0.024-0.017-0.047-0.026-0.071c-0.001-0.003-0.003-0.006-0.004-0.01c-0.002-0.005-0.004-0.01-0.006-0.015
			c-0.007-0.017-0.014-0.034-0.021-0.051c-0.009-0.021-0.018-0.041-0.028-0.062c-0.002-0.005-0.005-0.01-0.007-0.015
			c-0.001-0.002-0.002-0.004-0.003-0.007c-0.016-0.033-0.033-0.067-0.05-0.099c-0.002-0.004-0.004-0.007-0.006-0.011
			c-0.008-0.015-0.017-0.03-0.026-0.045c-0.015-0.025-0.029-0.05-0.045-0.075c-0.01-0.016-0.021-0.032-0.031-0.047
			c-0.01-0.015-0.02-0.031-0.03-0.046c-0.005-0.007-0.01-0.015-0.016-0.022c-0.003-0.004-0.006-0.007-0.008-0.011
			c-0.007-0.01-0.015-0.02-0.022-0.03c-0.019-0.026-0.039-0.051-0.059-0.076c-0.009-0.011-0.019-0.022-0.028-0.033
			c-0.008-0.009-0.015-0.018-0.022-0.027c-0.012-0.013-0.024-0.025-0.036-0.038c-0.011-0.012-0.023-0.025-0.034-0.036
			c-0.005-0.005-0.009-0.01-0.014-0.015c-0.024-0.024-0.048-0.047-0.073-0.07c-0.001,0-0.001-0.001-0.002-0.001
			c-0.002-0.001-0.003-0.003-0.005-0.004c-0.02-0.018-0.039-0.035-0.059-0.051c-0.011-0.009-0.022-0.018-0.033-0.026
			c-0.005-0.004-0.01-0.008-0.016-0.012c-0.004-0.003-0.008-0.007-0.013-0.01c-0.019-0.015-0.039-0.029-0.059-0.042
			c-0.009-0.006-0.017-0.011-0.026-0.017c-0.004-0.003-0.009-0.006-0.013-0.009c-0.005-0.003-0.011-0.007-0.016-0.011
			c-0.018-0.011-0.035-0.022-0.053-0.032c-0.011-0.006-0.022-0.012-0.034-0.018c-0.003-0.002-0.006-0.003-0.009-0.005
			c-0.003-0.002-0.006-0.003-0.009-0.005c-0.017-0.009-0.034-0.017-0.05-0.025c-0.017-0.008-0.034-0.015-0.05-0.022
			c-0.001-0.001-0.003-0.001-0.004-0.002l-24.286-9.642c-0.015-0.006-0.03-0.012-0.045-0.018c-0.016-0.006-0.033-0.012-0.049-0.017
			c-0.003-0.001-0.005-0.001-0.008-0.002c-0.003-0.001-0.006-0.002-0.008-0.002c-0.011-0.003-0.022-0.007-0.032-0.01
			c-0.016-0.004-0.032-0.008-0.048-0.012c-0.004-0.001-0.008-0.002-0.012-0.002c-0.004-0.001-0.007-0.001-0.011-0.002
			c-0.009-0.002-0.017-0.004-0.026-0.005c-0.016-0.003-0.032-0.005-0.048-0.007c-0.004-0.001-0.009-0.001-0.013-0.001
			c-0.004,0-0.008-0.001-0.012-0.001c-0.008-0.001-0.016-0.002-0.024-0.002c-0.017-0.001-0.034-0.002-0.051-0.002
			c-0.003,0-0.006,0-0.009,0c-0.004,0-0.008,0-0.012,0c-0.011,0-0.021,0-0.032,0.001c-0.016,0.001-0.031,0.003-0.046,0.005
			c-0.003,0-0.005,0-0.008,0.001c-0.001,0-0.002,0-0.003,0c-0.021,0.003-0.041,0.007-0.061,0.011
			c-0.004,0.001-0.008,0.002-0.012,0.003c-0.009,0.002-0.017,0.005-0.026,0.007c-0.01,0.003-0.02,0.005-0.029,0.008
			c-0.006,0.002-0.011,0.005-0.017,0.007c-0.015,0.005-0.03,0.012-0.044,0.018c-0.007,0.003-0.015,0.006-0.022,0.009
			c-0.01,0.005-0.021,0.011-0.031,0.016l-0.821,0.458c0.017-0.01,0.035-0.017,0.053-0.025c0.014-0.006,0.029-0.013,0.044-0.018
			c0.015-0.006,0.031-0.011,0.047-0.015c0.009-0.002,0.017-0.005,0.026-0.007c0.025-0.006,0.05-0.011,0.076-0.015
			c0.002,0,0.005,0,0.008-0.001c0.026-0.003,0.052-0.005,0.078-0.006c0.004,0,0.008,0,0.012,0c0.028,0,0.056,0.001,0.084,0.004
			c0.004,0,0.008,0.001,0.012,0.001c0.029,0.003,0.058,0.007,0.087,0.013c0.004,0.001,0.007,0.001,0.011,0.002
			c0.03,0.006,0.061,0.014,0.092,0.024c0.003,0.001,0.006,0.002,0.008,0.002c0.033,0.01,0.067,0.023,0.102,0.037l24.286,9.642
			c0.039,0.016,0.077,0.034,0.114,0.054c0.003,0.002,0.006,0.003,0.009,0.005c0.035,0.019,0.069,0.039,0.103,0.061
			c0.004,0.003,0.009,0.006,0.013,0.009c0.033,0.022,0.065,0.045,0.097,0.069c0.005,0.004,0.01,0.008,0.016,0.012
			c0.031,0.025,0.062,0.05,0.093,0.078c0.002,0.001,0.003,0.003,0.005,0.004c0.03,0.027,0.06,0.056,0.088,0.086
			c0.012,0.012,0.023,0.024,0.034,0.036c0.02,0.021,0.039,0.043,0.058,0.065c0.009,0.011,0.019,0.022,0.028,0.033
			c0.02,0.025,0.04,0.05,0.059,0.076c0.007,0.01,0.015,0.019,0.022,0.029c0.019,0.026,0.036,0.053,0.054,0.079
			c0.01,0.016,0.021,0.031,0.031,0.047c0.015,0.025,0.03,0.05,0.044,0.075c0.009,0.015,0.018,0.03,0.026,0.046
			c0.021,0.038,0.041,0.077,0.06,0.117c0.002,0.005,0.004,0.01,0.007,0.015c0.017,0.037,0.034,0.075,0.049,0.113
			c0.002,0.005,0.004,0.01,0.006,0.015c0.016,0.041,0.031,0.082,0.044,0.123c0.002,0.005,0.003,0.009,0.005,0.014
			c0.013,0.043,0.026,0.086,0.036,0.129c0.001,0.003,0.001,0.005,0.002,0.008c0.011,0.045,0.02,0.09,0.028,0.135
			c0,0.002,0.001,0.004,0.001,0.007c0.007,0.043,0.012,0.086,0.016,0.129c0,0.004,0.001,0.008,0.001,0.012
			c0.004,0.045,0.006,0.089,0.006,0.133l0,16.599c0,0.024-0.001,0.047-0.002,0.07c0,0.006-0.001,0.013-0.001,0.019
			c-0.001,0.016-0.002,0.032-0.004,0.048c-0.001,0.008-0.001,0.016-0.002,0.023c-0.002,0.015-0.004,0.029-0.006,0.044
			c-0.001,0.007-0.002,0.015-0.003,0.022c-0.002,0.015-0.005,0.03-0.008,0.044c-0.001,0.007-0.002,0.013-0.004,0.02
			c-0.003,0.012-0.006,0.024-0.009,0.036c-0.002,0.009-0.004,0.019-0.007,0.028c-0.002,0.008-0.005,0.016-0.007,0.024
			c-0.004,0.014-0.008,0.027-0.013,0.041c-0.002,0.007-0.005,0.013-0.007,0.019c-0.006,0.016-0.012,0.032-0.019,0.048
			c-0.003,0.006-0.006,0.013-0.009,0.019c-0.012,0.027-0.025,0.053-0.04,0.077c-0.001,0.001-0.002,0.003-0.003,0.004
			c-0.015,0.026-0.032,0.05-0.049,0.073c-0.002,0.003-0.005,0.007-0.007,0.01c-0.018,0.023-0.036,0.044-0.056,0.064
			c-0.004,0.004-0.007,0.008-0.011,0.011c-0.02,0.019-0.041,0.038-0.062,0.054c-0.003,0.003-0.007,0.005-0.011,0.008
			c-0.023,0.017-0.047,0.033-0.072,0.047l0.821-0.458c0.025-0.014,0.049-0.03,0.072-0.047c0.003-0.003,0.007-0.005,0.011-0.008
			c0.022-0.017,0.042-0.035,0.062-0.054c0.004-0.004,0.008-0.007,0.011-0.011c0.02-0.02,0.038-0.041,0.056-0.064
			c0.002-0.003,0.005-0.007,0.007-0.01c0.017-0.023,0.034-0.048,0.049-0.073c0.001-0.001,0.001-0.002,0.002-0.003
			c0,0,0-0.001,0.001-0.001c0.014-0.025,0.028-0.051,0.04-0.078c0.001-0.003,0.003-0.006,0.005-0.009
			c0.001-0.003,0.003-0.007,0.004-0.01c0.007-0.016,0.013-0.032,0.019-0.049c0.002-0.005,0.004-0.009,0.005-0.014
			c0.001-0.002,0.001-0.003,0.002-0.005c0.005-0.014,0.009-0.028,0.013-0.042c0.002-0.007,0.004-0.013,0.006-0.019
			c0-0.001,0-0.002,0.001-0.003c0.003-0.01,0.005-0.02,0.007-0.029c0.003-0.01,0.005-0.02,0.008-0.031c0-0.001,0-0.003,0.001-0.004
			c0.002-0.007,0.003-0.014,0.004-0.021c0.002-0.011,0.005-0.023,0.007-0.034c0-0.003,0.001-0.006,0.001-0.009
			c0.001-0.008,0.002-0.015,0.003-0.023c0.001-0.009,0.003-0.018,0.004-0.027c0.001-0.005,0.001-0.011,0.002-0.016
			c0.001-0.008,0.002-0.016,0.002-0.024c0.001-0.006,0.001-0.012,0.002-0.018c0.001-0.01,0.001-0.019,0.002-0.029
			c0-0.007,0.001-0.013,0.001-0.02c0-0.003,0-0.006,0-0.008c0.001-0.019,0.001-0.038,0.001-0.058l0,0c0-0.001,0-0.002,0-0.003
			l0-16.599c0-0.018,0-0.036-0.001-0.054c-0.001-0.019-0.002-0.038-0.003-0.058c-0.001-0.007-0.001-0.015-0.002-0.022
			c0-0.004-0.001-0.008-0.001-0.012c-0.001-0.008-0.001-0.016-0.002-0.024c-0.002-0.019-0.004-0.039-0.007-0.058
			C40.742,25.701,40.74,25.686,40.737,25.67z"/>
		<path class="st2" d="M38.784,24.588c0.637,0.264,1.155,1.077,1.156,1.815l0,16.599c0.001,0.738-0.514,1.122-1.151,0.858
			l-24.253-9.642c-0.637-0.264-1.155-1.077-1.156-1.815l-0.033-16.599c-0.001-0.738,0.514-1.122,1.151-0.858L38.784,24.588z"/>
		<path d="M39.227,43.543c-0.083,0.011-0.182-0.006-0.287-0.05L14.688,33.85c-0.492-0.204-0.909-0.867-0.91-1.448l-0.033-16.599
			c0-0.117,0.022-0.501,0.314-0.539c0.083-0.011,0.182,0.006,0.287,0.05l24.286,9.642c0.492,0.204,0.909,0.867,0.91,1.448l0,16.599
			C39.542,43.12,39.52,43.504,39.227,43.543z"/>
		<path class="st3" d="M38.51,42.541l-23.401-9.289c-0.249-0.103-0.551-0.533-0.551-0.911l-0.032-15.765
			c0-0.107,0.035-0.204,0.093-0.281c-0.161,0.071-0.28,0.231-0.279,0.429l0.032,15.765c0.001,0.378,0.302,0.808,0.551,0.911
			l23.401,9.289c0.209,0.087,0.431,0.01,0.553-0.152C38.766,42.586,38.635,42.593,38.51,42.541z"/>
		<path class="st4" d="M38.97,42.257l0.001-15.765c-0.001-0.378-0.302-0.808-0.551-0.911l-23.434-9.289
			c-0.126-0.052-0.256-0.045-0.367,0.004c-0.058,0.077-0.093,0.173-0.093,0.281l0.032,15.765c0.001,0.378,0.302,0.808,0.551,0.911
			l23.401,9.289c0.126,0.052,0.256,0.045,0.367-0.004C38.935,42.46,38.97,42.364,38.97,42.257z"/>
		<path class="st5" d="M38.39,25.584l-23.434-9.289c-0.126-0.052-0.256-0.045-0.367,0.004c-0.058,0.077-0.093,0.173-0.093,0.281
			l0.007,1.213l24.444,9.513l-0.005-0.81C38.941,26.117,38.639,25.688,38.39,25.584z"/>
		<g>
			<path class="st6" d="M16.694,27.814c0,0.393,0.428,0.89,0.957,1.109c0.528,0.219,0.957,0.078,0.957-0.315l4.191,1.739
				c0.951,0.395,1.723-0.056,1.723-1.008c0-0.951-0.771-2.043-1.723-2.438l-4.191-1.739c0,0.393-0.428,0.534-0.957,0.315
				c-0.528-0.219-0.957-0.716-0.957-1.109l-0.725-0.301v3.463L16.694,27.814z"/>
			<path class="st7" d="M16.694,31.26c0,0.393,0.428,0.89,0.957,1.109c0.528,0.219,0.957,0.078,0.957-0.315l7.296,3.027
				c0.951,0.395,1.723-0.056,1.723-1.008c0-0.951-0.771-2.043-1.723-2.438l-7.296-3.027c0,0.393-0.428,0.534-0.957,0.315
				c-0.528-0.219-0.957-0.716-0.957-1.109l-0.725-0.301v3.463L16.694,31.26z"/>
			<path class="st5" d="M16.694,24.369c0,0.393,0.428,0.89,0.957,1.109c0.528,0.219,0.957,0.078,0.957-0.315l7.296,3.027
				c0.951,0.395,1.723-0.056,1.723-1.008c0-0.951-0.771-2.043-1.723-2.438l-9.935-4.122v3.463L16.694,24.369z"/>
			
				<ellipse transform="matrix(0.7756 -0.6312 0.6312 0.7756 -10.9357 22.3041)" class="st8" cx="25.903" cy="26.533" rx="0.935" ry="1.411"/>
			
				<ellipse transform="matrix(0.7756 -0.6312 0.6312 0.7756 -12.9941 20.8282)" class="st9" cx="22.798" cy="28.69" rx="0.935" ry="1.411"/>
			<g>
				
					<ellipse transform="matrix(0.7756 -0.6312 0.6312 0.7756 -15.2854 23.8504)" class="st10" cx="25.903" cy="33.424" rx="0.935" ry="1.411"/>
				
					<ellipse transform="matrix(0.7756 -0.6312 0.6312 0.7756 -15.1689 21.6013)" class="st10" cx="22.798" cy="32.136" rx="0.935" ry="1.411"/>
			</g>
		</g>
	</g>
	<g>
		
			<ellipse transform="matrix(0.9898 -0.1428 0.1428 0.9898 -5.3074 1.7298)" class="st11" cx="9.4" cy="37.847" rx="7.464" ry="7.137"/>
		<path class="st12" d="M15.358,38.636c-0.01,3.126-2.621,5.708-5.832,5.738c-3.211,0.03-5.806-2.504-5.796-5.63L15.358,38.636z"/>
		<g>
			<ellipse transform="matrix(1 -0.0098 0.0098 1 -0.3694 0.0935)" class="st13" cx="9.349" cy="37.703" rx="6.965" ry="1.392"/>
			<path class="st14" d="M2.383,38.167c-0.002,0.769,3.114,1.37,6.961,1.335s6.967-0.695,6.969-1.464l0.001-0.398
				c-0.002,0.769-3.123,1.421-6.969,1.457s-6.963-0.559-6.961-1.327L2.383,38.167z"/>
		</g>
		<g>
			<polygon class="st15" points="6.107,34.436 12.784,34.374 13.463,38.125 5.389,38.2 			"/>
			<polygon class="st14" points="5.389,38.2 13.463,38.125 13.526,38.513 5.323,38.589 			"/>
			<g>
				<path class="st16" d="M7.348,37.617c-0.157-0.09-0.479-0.074-0.628,0.031c-0.092,0.065-0.089,0.145,0.009,0.199
					c0.089,0.049,0.188,0.059,0.256,0.059c0.165-0.002,0.29-0.032,0.366-0.081C7.454,37.759,7.453,37.677,7.348,37.617z"/>
				<path class="st16" d="M8.309,37.604c-0.152-0.089-0.475-0.077-0.621,0.023c-0.096,0.066-0.093,0.149,0.009,0.204
					c0.089,0.048,0.188,0.059,0.293,0.059c0.11-0.003,0.222-0.016,0.321-0.078C8.415,37.75,8.413,37.665,8.309,37.604z"/>
				<path class="st17" d="M10.247,37.584c-0.149-0.097-0.477-0.094-0.628,0.006c-0.094,0.063-0.097,0.143-0.002,0.201
					c0.093,0.057,0.2,0.071,0.307,0.071c0.115-0.002,0.225-0.016,0.321-0.076C10.339,37.728,10.338,37.644,10.247,37.584z"/>
				<path class="st16" d="M13.131,37.544c-0.098-0.058-0.21-0.075-0.353-0.074c-0.068-0.001-0.162,0.012-0.247,0.057
					c-0.12,0.062-0.126,0.161-0.007,0.22c0.195,0.096,0.399,0.099,0.6,0.009C13.239,37.702,13.239,37.608,13.131,37.544z"/>
				<path class="st17" d="M11.201,37.568c-0.195-0.097-0.4-0.099-0.599-0.004c-0.124,0.059-0.12,0.16,0.003,0.224
					c0.012,0.006,0.023,0.011,0.035,0.016c0.083,0.034,0.172,0.04,0.262,0.044c0.093-0.007,0.186-0.014,0.271-0.055
					c0.009-0.004,0.017-0.009,0.026-0.014C11.307,37.717,11.312,37.623,11.201,37.568z"/>
				<path class="st17" d="M12.163,37.555c-0.192-0.097-0.392-0.099-0.592-0.013c-0.05,0.022-0.094,0.056-0.094,0.114
					c0,0.059,0.045,0.089,0.093,0.114c0.006,0.003,0.012,0.006,0.018,0.009c0.09,0.041,0.187,0.053,0.287,0.051
					c0.095-0.002,0.188-0.013,0.274-0.056c0.003-0.001,0.005-0.003,0.008-0.004C12.272,37.708,12.278,37.613,12.163,37.555z"/>
				<path class="st16" d="M6.391,37.633c-0.154-0.093-0.489-0.075-0.635,0.033c-0.09,0.067-0.084,0.146,0.015,0.2
					c0.084,0.046,0.179,0.052,0.274,0.057c0.122-0.008,0.243-0.021,0.348-0.09C6.488,37.771,6.486,37.691,6.391,37.633z"/>
				<path class="st16" d="M9.281,37.596c-0.151-0.096-0.478-0.089-0.627,0.013c-0.096,0.065-0.094,0.148,0.007,0.205
					c0.006,0.003,0.011,0.006,0.017,0.009c0.007,0.004,0.015,0.007,0.022,0.01c0.004,0.002,0.007,0.003,0.011,0.005
					c0.077,0.031,0.161,0.038,0.246,0.036c0.102,0.001,0.201-0.012,0.291-0.058c0.009-0.005,0.019-0.01,0.028-0.015
					C9.377,37.741,9.378,37.658,9.281,37.596z"/>
				<path class="st16" d="M7.393,37.191c-0.088-0.051-0.187-0.061-0.296-0.062c-0.112,0.006-0.23,0.021-0.33,0.091
					c-0.086,0.061-0.082,0.135,0.007,0.191c0.15,0.094,0.481,0.081,0.627-0.025C7.489,37.322,7.487,37.245,7.393,37.191z"/>
				<path class="st16" d="M8.342,37.178c-0.146-0.098-0.479-0.091-0.625,0.012c-0.088,0.062-0.087,0.14,0.004,0.196
					c0.091,0.056,0.195,0.066,0.301,0.068c0.116-0.004,0.228-0.019,0.324-0.085C8.431,37.309,8.428,37.235,8.342,37.178z"/>
				<path class="st17" d="M11.82,37.401c0.104-0.004,0.203-0.015,0.292-0.067c0.103-0.06,0.105-0.141,0.008-0.204
					c-0.145-0.094-0.455-0.099-0.607-0.009c-0.101,0.06-0.105,0.143-0.007,0.205C11.601,37.386,11.711,37.398,11.82,37.401z"/>
				<path class="st16" d="M6.448,37.202c-0.151-0.09-0.477-0.073-0.621,0.032c-0.091,0.066-0.087,0.146,0.013,0.2
					c0.081,0.045,0.172,0.055,0.296,0.054c0.094-0.002,0.214-0.021,0.317-0.091C6.544,37.337,6.54,37.257,6.448,37.202z"/>
				<path class="st17" d="M8.688,36.531c0.09,0.051,0.192,0.062,0.272,0.063c0.148-0.002,0.272-0.033,0.339-0.081
					c0.09-0.064,0.087-0.145-0.008-0.201c-0.153-0.09-0.457-0.085-0.605,0.01C8.584,36.388,8.584,36.472,8.688,36.531z"/>
				<path class="st16" d="M8.684,37.387c0.008,0.004,0.016,0.008,0.025,0.012c0.08,0.036,0.167,0.047,0.257,0.046
					c0.092,0,0.181-0.014,0.265-0.051c0.009-0.004,0.017-0.008,0.026-0.012c0.049-0.025,0.093-0.056,0.095-0.115
					c0.001-0.059-0.042-0.093-0.092-0.114c-0.194-0.081-0.39-0.078-0.578,0.018C8.566,37.23,8.57,37.327,8.684,37.387z"/>
				<path class="st16" d="M9.637,37.374c0.187,0.08,0.376,0.077,0.564-0.004c0.05-0.022,0.093-0.056,0.095-0.114
					c0.002-0.059-0.043-0.09-0.092-0.114c-0.005-0.003-0.011-0.005-0.017-0.008c-0.004-0.002-0.008-0.004-0.012-0.005
					c-0.08-0.033-0.165-0.045-0.253-0.042c-0.093-0.002-0.183,0.013-0.266,0.051c-0.006,0.003-0.011,0.005-0.017,0.008
					c-0.048,0.025-0.094,0.055-0.094,0.115C9.545,37.319,9.587,37.353,9.637,37.374z"/>
				<path class="st16" d="M9.276,36.734c-0.194-0.086-0.394-0.082-0.585,0.015c-0.112,0.057-0.109,0.153-0.001,0.212
					c0.008,0.005,0.017,0.009,0.025,0.013c0.082,0.038,0.171,0.05,0.264,0.047c0.097,0,0.192-0.013,0.277-0.056
					c0.009-0.004,0.018-0.009,0.026-0.015C9.393,36.884,9.394,36.787,9.276,36.734z"/>
				<path class="st16" d="M8.358,36.751c-0.197-0.098-0.402-0.091-0.598,0.007c-0.115,0.057-0.109,0.156,0.006,0.216
					c0.008,0.004,0.016,0.008,0.025,0.012c0.08,0.036,0.167,0.046,0.257,0.044c0.121-0.001,0.235-0.027,0.304-0.07
					c0.005-0.003,0.009-0.006,0.013-0.009C8.456,36.888,8.457,36.8,8.358,36.751z"/>
				<path class="st17" d="M10.561,37.344c0.093,0.058,0.199,0.072,0.309,0.071c0.122-0.001,0.228-0.025,0.297-0.067
					c0.1-0.061,0.102-0.144,0.007-0.206c-0.144-0.093-0.469-0.092-0.613,0.002C10.466,37.205,10.466,37.284,10.561,37.344z"/>
				<path class="st17" d="M12.488,37.329c0.09,0.045,0.189,0.056,0.291,0.055c0.087-0.001,0.172-0.011,0.25-0.047
					c0.008-0.004,0.016-0.008,0.024-0.012c0.108-0.059,0.117-0.15,0.01-0.206c-0.193-0.102-0.397-0.109-0.598-0.016
					c-0.113,0.052-0.112,0.148-0.005,0.211C12.469,37.319,12.478,37.324,12.488,37.329z"/>
				<path class="st16" d="M6.508,36.778c-0.146-0.094-0.479-0.076-0.616,0.032c-0.085,0.067-0.079,0.143,0.015,0.195
					c0.081,0.045,0.173,0.052,0.267,0.055c0.118-0.006,0.236-0.021,0.337-0.091C6.597,36.909,6.595,36.833,6.508,36.778z"/>
				<path class="st17" d="M12.05,36.912c0.116-0.053,0.114-0.153,0.003-0.215c-0.093-0.052-0.196-0.066-0.271-0.066
					c-0.138,0.001-0.241,0.025-0.304,0.062c-0.107,0.063-0.111,0.157-0.002,0.213C11.662,37,11.859,37,12.05,36.912z"/>
				<path class="st16" d="M7.426,36.76c-0.149-0.088-0.461-0.073-0.603,0.028c-0.092,0.066-0.09,0.145,0.008,0.199
					c0.083,0.047,0.177,0.058,0.276,0.054c0.113,0.003,0.224-0.015,0.322-0.077C7.528,36.903,7.525,36.818,7.426,36.76z"/>
				<path class="st17" d="M10.548,36.923c0.09,0.051,0.191,0.064,0.295,0.064c0.096,0,0.189-0.014,0.274-0.058
					c0.12-0.062,0.127-0.161,0.008-0.219c-0.187-0.092-0.384-0.094-0.573,0.002C10.44,36.767,10.441,36.862,10.548,36.923z"/>
				<path class="st16" d="M12.979,36.899c0.114-0.052,0.115-0.146,0.007-0.21c-0.093-0.056-0.199-0.072-0.326-0.07
					c-0.076-0.002-0.167,0.01-0.25,0.054c-0.114,0.06-0.12,0.159-0.007,0.216C12.59,36.982,12.786,36.986,12.979,36.899z"/>
				<path class="st17" d="M9.615,36.937c0.09,0.051,0.191,0.065,0.25,0.063c0.155-0.003,0.262-0.014,0.354-0.078
					c0.085-0.06,0.082-0.135-0.002-0.192c-0.141-0.095-0.457-0.094-0.603,0.002C9.516,36.795,9.516,36.881,9.615,36.937z"/>
				<path class="st16" d="M7.461,36.336c-0.081-0.046-0.172-0.054-0.263-0.058C7.082,36.283,6.97,36.3,6.874,36.365
					c-0.093,0.062-0.092,0.152,0.009,0.198c0.194,0.088,0.393,0.08,0.581-0.023C7.567,36.483,7.562,36.393,7.461,36.336z"/>
				<path class="st17" d="M9.613,36.511c0.188,0.094,0.384,0.094,0.575-0.001c0.1-0.05,0.101-0.14,0.009-0.199
					c-0.09-0.058-0.194-0.072-0.287-0.074c-0.113,0.001-0.209,0.016-0.294,0.066C9.511,36.363,9.507,36.458,9.613,36.511z"/>
				<path class="st16" d="M12.004,36.485c0.106-0.051,0.105-0.14,0.008-0.203c-0.092-0.06-0.2-0.069-0.309-0.075
					c-0.089,0.008-0.178,0.015-0.258,0.059c-0.114,0.062-0.122,0.159-0.008,0.216C11.621,36.575,11.815,36.576,12.004,36.485z"/>
				<path class="st17" d="M8.707,36.109c0.187,0.097,0.383,0.096,0.573,0.005c0.111-0.053,0.107-0.152-0.001-0.212
					c-0.088-0.049-0.186-0.062-0.289-0.066c-0.099,0.005-0.198,0.018-0.285,0.073C8.612,35.969,8.609,36.059,8.707,36.109z"/>
				<path class="st17" d="M10.197,35.482c-0.138-0.101-0.458-0.104-0.601-0.006c-0.092,0.064-0.09,0.142,0.006,0.201
					c0.089,0.055,0.192,0.061,0.294,0.068c0.102-0.01,0.206-0.016,0.294-0.075C10.273,35.615,10.274,35.54,10.197,35.482z"/>
				<path class="st16" d="M12.66,36.532c0.081,0.001,0.177-0.012,0.262-0.063c0.091-0.054,0.093-0.128,0.01-0.19
					c-0.136-0.101-0.446-0.111-0.594-0.02c-0.096,0.059-0.098,0.14-0.004,0.2C12.426,36.518,12.532,36.533,12.66,36.532z"/>
				<path class="st17" d="M8.706,35.683c0.138,0.088,0.442,0.09,0.582,0.002c0.098-0.061,0.099-0.145,0.001-0.205
					c-0.088-0.055-0.191-0.064-0.294-0.07c-0.1,0.006-0.2,0.017-0.286,0.071C8.614,35.541,8.614,35.625,8.706,35.683z"/>
				<path class="st17" d="M10.534,36.502c0.181,0.085,0.37,0.085,0.553-0.001c0.116-0.055,0.115-0.153,0.003-0.215
					c-0.088-0.049-0.186-0.065-0.276-0.06c-0.123,0.001-0.212,0.02-0.277,0.056C10.418,36.348,10.414,36.446,10.534,36.502z"/>
				<path class="st16" d="M10.49,36.078c0.089,0.056,0.191,0.064,0.33,0.067c0.077,0,0.188-0.026,0.253-0.067
					c0.094-0.06,0.096-0.142,0.003-0.201c-0.144-0.092-0.432-0.094-0.582-0.004C10.394,35.933,10.392,36.017,10.49,36.078z"/>
				<path class="st17" d="M7.511,35.922c-0.139-0.093-0.434-0.096-0.581-0.006c-0.103,0.063-0.104,0.149,0,0.209
					c0.005,0.003,0.011,0.006,0.017,0.009c0.083,0.043,0.175,0.056,0.271,0.053c0.101,0.001,0.201-0.012,0.288-0.065
					C7.603,36.064,7.603,35.983,7.511,35.922z"/>
				<path class="st16" d="M6.548,36.346c-0.079-0.043-0.167-0.053-0.244-0.051c-0.126,0.001-0.235,0.019-0.329,0.081
					c-0.102,0.067-0.1,0.16,0.01,0.207c0.194,0.083,0.39,0.07,0.574-0.035C6.659,36.491,6.651,36.401,6.548,36.346z"/>
				<path class="st17" d="M9.61,36.093c0.086,0.048,0.182,0.057,0.297,0.06c0.083-0.005,0.183-0.012,0.271-0.065
					c0.099-0.059,0.103-0.151,0.002-0.204c-0.186-0.097-0.382-0.1-0.572-0.004C9.497,35.936,9.502,36.032,9.61,36.093z"/>
				<path class="st16" d="M8.364,36.322c-0.143-0.083-0.435-0.072-0.574,0.021c-0.1,0.068-0.097,0.151,0.01,0.208
					c0.018,0.009,0.036,0.017,0.055,0.024c0.067,0.023,0.138,0.03,0.211,0.029c0.101-0.001,0.191-0.018,0.26-0.05
					c0.013-0.006,0.025-0.012,0.036-0.019C8.47,36.47,8.471,36.384,8.364,36.322z"/>
				<path class="st17" d="M8.41,35.488c-0.086-0.047-0.181-0.063-0.284-0.058c-0.089-0.004-0.179,0.01-0.263,0.053
					c-0.049,0.025-0.094,0.058-0.095,0.115c-0.001,0.054,0.039,0.088,0.087,0.109c0.183,0.081,0.371,0.084,0.554-0.003
					C8.525,35.648,8.523,35.55,8.41,35.488z"/>
				<path class="st17" d="M8.379,35.901c-0.177-0.081-0.358-0.083-0.538-0.004c-0.049,0.021-0.094,0.055-0.095,0.114
					c-0.001,0.063,0.047,0.094,0.097,0.118c0.003,0.001,0.005,0.002,0.008,0.004c0.081,0.037,0.168,0.05,0.258,0.046
					c0.087,0.002,0.172-0.01,0.251-0.046c0.005-0.002,0.01-0.005,0.016-0.008c0.046-0.023,0.088-0.051,0.091-0.108
					C8.469,35.958,8.428,35.924,8.379,35.901z"/>
				<path class="st17" d="M8.728,35.276c0.086,0.047,0.179,0.066,0.28,0.056c0.088,0.008,0.173-0.008,0.253-0.041
					c0.05-0.021,0.092-0.051,0.099-0.111c0.006-0.058-0.029-0.092-0.073-0.116c-0.139-0.078-0.418-0.091-0.564,0.007
					C8.619,35.138,8.62,35.217,8.728,35.276z"/>
				<path class="st16" d="M6.619,35.936c-0.141-0.091-0.461-0.074-0.594,0.032c-0.078,0.062-0.074,0.136,0.01,0.187
					c0.078,0.047,0.166,0.056,0.266,0.057c0.108-0.003,0.223-0.02,0.321-0.09C6.704,36.064,6.701,35.989,6.619,35.936z"/>
				<path class="st16" d="M12.837,35.846c-0.089-0.051-0.19-0.064-0.293-0.065c-0.085,0.001-0.168,0.012-0.243,0.05
					c-0.002,0.001-0.005,0.003-0.007,0.004c-0.107,0.057-0.116,0.151-0.012,0.207c0.179,0.098,0.37,0.103,0.558,0.015
					c0.11-0.052,0.11-0.145,0.007-0.207C12.843,35.849,12.84,35.847,12.837,35.846z"/>
				<path class="st16" d="M11.693,36.129c0.08,0.002,0.17-0.014,0.252-0.058c0.111-0.06,0.116-0.154,0.004-0.21
					c-0.176-0.089-0.362-0.094-0.544-0.01c-0.116,0.054-0.116,0.154-0.005,0.216C11.485,36.114,11.58,36.13,11.693,36.129z"/>
				<path class="st17" d="M9.587,35.264c0.011,0.006,0.022,0.012,0.033,0.017c0.079,0.036,0.165,0.047,0.254,0.044
					c0.11-0.001,0.197-0.018,0.26-0.052c0.002-0.001,0.004-0.002,0.006-0.003c0.114-0.065,0.118-0.16,0-0.213
					c-0.181-0.083-0.369-0.087-0.552,0.007C9.485,35.116,9.486,35.208,9.587,35.264z"/>
				<path class="st17" d="M9.591,34.857c0.088,0.049,0.186,0.063,0.274,0.059c0.129-0.001,0.227-0.022,0.287-0.059
					c0.092-0.056,0.101-0.131,0.022-0.19c-0.134-0.099-0.456-0.104-0.592-0.008C9.488,34.724,9.492,34.802,9.591,34.857z"/>
				<path class="st16" d="M7.535,35.501c-0.141-0.081-0.425-0.067-0.559,0.026c-0.092,0.064-0.09,0.146,0.007,0.2
					c0.002,0.001,0.005,0.003,0.007,0.004c0.077,0.04,0.163,0.05,0.251,0.048c0.101-0.002,0.198-0.016,0.284-0.068
					c0.006-0.003,0.011-0.007,0.017-0.011C7.636,35.639,7.632,35.556,7.535,35.501z"/>
				<path class="st16" d="M6.106,35.741c0.139,0.084,0.44,0.066,0.571-0.034c0.082-0.063,0.079-0.139-0.01-0.191
					c-0.078-0.045-0.166-0.056-0.256-0.054c-0.113,0.003-0.221,0.02-0.313,0.087C6.013,35.61,6.019,35.688,6.106,35.741z"/>
				<path class="st16" d="M10.469,35.656c0.084,0.056,0.183,0.069,0.284,0.07c0.096,0,0.189-0.014,0.273-0.062
					c0.099-0.056,0.102-0.144,0.007-0.206c-0.136-0.088-0.417-0.088-0.557,0C10.385,35.516,10.381,35.598,10.469,35.656z"/>
				<path class="st16" d="M12.235,35.423c-0.109,0.051-0.111,0.144-0.01,0.207c0.008,0.005,0.017,0.01,0.025,0.014
					c0.082,0.043,0.174,0.053,0.268,0.054c0.091-0.001,0.18-0.019,0.24-0.048c0.006-0.003,0.012-0.006,0.018-0.01
					c0.097-0.057,0.105-0.144,0.008-0.198C12.608,35.344,12.42,35.337,12.235,35.423z"/>
				<path class="st16" d="M11.875,35.433c-0.078-0.039-0.165-0.05-0.254-0.052c0,0,0,0,0,0h0c-0.087,0.001-0.172,0.011-0.249,0.051
					c-0.005,0.003-0.01,0.005-0.015,0.008c-0.101,0.058-0.104,0.142-0.009,0.205c0.13,0.086,0.412,0.091,0.55,0.01
					c0.104-0.061,0.105-0.147,0.002-0.208C11.892,35.441,11.884,35.437,11.875,35.433z"/>
				<path class="st17" d="M10.458,35.252c0.082,0.048,0.175,0.061,0.269,0.061c0.095-0.002,0.186-0.014,0.267-0.062
					c0.096-0.056,0.098-0.14,0.006-0.201c-0.131-0.087-0.406-0.088-0.542-0.004C10.36,35.108,10.359,35.194,10.458,35.252z"/>
				<path class="st16" d="M12.18,35.011c-0.112,0.052-0.112,0.149-0.005,0.212c0.085,0.05,0.181,0.062,0.262,0.063
					c0.114-0.001,0.208-0.021,0.267-0.055c0.098-0.056,0.106-0.143,0.009-0.198C12.543,34.936,12.361,34.928,12.18,35.011z"/>
				<path class="st16" d="M7.021,35.307c0.081,0.044,0.168,0.066,0.262,0.057c0.11,0.006,0.211-0.019,0.3-0.077
					c0.083-0.054,0.087-0.135,0.005-0.186c-0.163-0.102-0.433-0.086-0.585,0.033C6.93,35.19,6.94,35.262,7.021,35.307z"/>
				<path class="st16" d="M8.418,35.075c-0.075-0.036-0.156-0.055-0.23-0.053c-0.121,0.001-0.225,0.024-0.317,0.085
					c-0.068,0.045-0.075,0.123-0.02,0.169c0.127,0.107,0.467,0.105,0.594-0.004C8.523,35.205,8.512,35.119,8.418,35.075z"/>
				<path class="st16" d="M11.571,34.973c-0.104,0.001-0.189,0.019-0.25,0.055c-0.104,0.059-0.11,0.154-0.005,0.208
					c0.171,0.089,0.352,0.091,0.528,0.007c0.109-0.052,0.109-0.145,0.006-0.207C11.765,34.986,11.669,34.972,11.571,34.973z"/>
				<path class="st16" d="M6.182,35.332c0.002,0.001,0.005,0.002,0.007,0.004c0.071,0.036,0.149,0.043,0.228,0.043
					c0.095-0.002,0.188-0.015,0.271-0.059c0.001-0.001,0.002-0.001,0.003-0.002c0.004-0.002,0.009-0.005,0.013-0.007
					c0.004-0.002,0.008-0.005,0.012-0.007c0.003-0.002,0.006-0.004,0.009-0.006c0.09-0.061,0.086-0.14-0.006-0.195
					c-0.137-0.082-0.43-0.064-0.556,0.035C6.079,35.203,6.086,35.281,6.182,35.332z"/>
				<path class="st17" d="M10.438,34.844c0.08,0.047,0.171,0.058,0.265,0.06c0.089-0.004,0.177-0.014,0.256-0.06
					c0.097-0.057,0.099-0.139,0.006-0.2c-0.127-0.085-0.394-0.087-0.527-0.005C10.34,34.7,10.339,34.786,10.438,34.844z"/>
				<path class="st16" d="M8.749,34.868c0.005,0.003,0.01,0.006,0.014,0.009c0.073,0.041,0.156,0.05,0.241,0.052
					c0.077-0.001,0.153-0.009,0.223-0.037c0.001,0,0.002-0.001,0.003-0.001c0.005-0.002,0.009-0.004,0.014-0.006
					c0.006-0.003,0.011-0.005,0.016-0.008c0.008-0.004,0.016-0.009,0.024-0.014c0.092-0.058,0.094-0.137,0.007-0.197
					c-0.132-0.089-0.419-0.082-0.547,0.015C8.665,34.741,8.666,34.816,8.749,34.868z"/>
				<path class="st17" d="M11.276,34.828c0.002,0.002,0.005,0.003,0.007,0.004c0.078,0.045,0.166,0.056,0.256,0.058
					c0.087,0.001,0.176-0.017,0.239-0.047c0.004-0.002,0.008-0.004,0.012-0.006c0.104-0.056,0.11-0.139,0.015-0.204
					c-0.128-0.086-0.394-0.092-0.527-0.011C11.178,34.684,11.177,34.768,11.276,34.828z"/>
				<path class="st16" d="M7.096,34.914c0.07,0.027,0.141,0.05,0.214,0.039c0.099,0.006,0.189-0.012,0.271-0.054
					c0.049-0.026,0.106-0.055,0.101-0.118c-0.005-0.066-0.058-0.102-0.119-0.12c-0.163-0.048-0.324-0.042-0.478,0.038
					c-0.044,0.023-0.081,0.058-0.079,0.108C7.008,34.859,7.046,34.895,7.096,34.914z"/>
				<path class="st16" d="M6.243,34.92c0.007,0.004,0.014,0.007,0.02,0.011c0.067,0.031,0.14,0.037,0.214,0.038
					c0.097-0.002,0.192-0.016,0.275-0.064c0.009-0.005,0.017-0.01,0.025-0.016c0.089-0.062,0.085-0.141-0.009-0.195
					c-0.139-0.081-0.415-0.062-0.54,0.036C6.147,34.792,6.153,34.869,6.243,34.92z"/>
				<path class="st16" d="M8.387,34.643c-0.165-0.048-0.324-0.036-0.474,0.049c-0.088,0.049-0.086,0.149,0.002,0.196
					c0.076,0.04,0.159,0.059,0.268,0.059c0.095-0.012,0.211-0.02,0.301-0.104c0.038-0.036,0.044-0.077,0.015-0.116
					C8.47,34.69,8.435,34.657,8.387,34.643z"/>
				<path class="st16" d="M12.111,34.811c0.086,0.054,0.185,0.066,0.271,0.067c0.097-0.001,0.177-0.014,0.25-0.052
					c0.1-0.053,0.105-0.136,0.014-0.199c-0.125-0.088-0.393-0.098-0.527-0.02C12.018,34.664,12.014,34.749,12.111,34.811z"/>
			</g>
		</g>
		<g class="st18">
			<path class="st19" d="M11.427,32.476c-0.027-0.129-0.08-0.253-0.159-0.37c-0.121-0.179-0.29-0.331-0.507-0.455
				c-0.211-0.121-0.448-0.205-0.712-0.253c-0.112-0.02-0.226-0.032-0.341-0.038c-0.04-0.002-0.08-0.004-0.12-0.001
				c0-0.002-0.002-0.003-0.004-0.003c-0.652,0.006-1.303,0.012-1.955,0.018c0.001,0.001,0,0.003-0.001,0.004
				c-0.006,0-0.012,0.001-0.017,0.003c-0.027,0.011-0.03,0.028-0.009,0.044c0.008,0.006,0.017,0.009,0.027,0.013
				c0.131,0.051,0.262,0.103,0.393,0.154c0.026,0.01,0.052,0.021,0.074,0.035c0.055,0.035,0.082,0.077,0.069,0.131
				c-0.01,0.041-0.038,0.076-0.075,0.109c-0.115,0.101-0.208,0.211-0.279,0.331c-0.084,0.142-0.131,0.289-0.143,0.442
				c-0.006,0.073-0.003,0.146,0.008,0.219c0.014,0.088,0.038,0.174,0.076,0.257c0.108,0.238,0.295,0.439,0.563,0.601
				c0.324,0.195,0.701,0.299,1.129,0.314c0.173,0.006,0.345-0.005,0.515-0.034c0.339-0.056,0.635-0.17,0.889-0.34
				c0.18-0.121,0.322-0.261,0.426-0.42c0.109-0.167,0.165-0.343,0.174-0.525C11.452,32.634,11.444,32.555,11.427,32.476z
				 M9.553,33.736c-0.841,0.008-1.474-0.473-1.467-1.028c-0.003-0.563,0.649-1.047,1.475-1.053c0.823-0.007,1.476,0.464,1.466,1.037
				C11.019,33.247,10.385,33.728,9.553,33.736z"/>
			<path class="st19" d="M9.752,32.417c-0.038-0.046-0.085-0.085-0.15-0.113c-0.1-0.043-0.204-0.045-0.309-0.005
				c-0.056,0.022-0.101,0.053-0.138,0.089c-0.074,0.073-0.112,0.155-0.126,0.243c-0.015,0.093-0.003,0.183,0.042,0.27
				c0.032,0.063,0.079,0.119,0.151,0.163c0.118,0.074,0.272,0.079,0.398,0.013c0.044-0.023,0.08-0.051,0.11-0.083
				c0.086-0.091,0.118-0.193,0.121-0.3c0.001-0.019-0.002-0.038-0.004-0.057C9.837,32.558,9.807,32.485,9.752,32.417z"/>
			<path class="st19" d="M10.271,32.433c-0.031,0.021-0.056,0.045-0.075,0.072c-0.072,0.102-0.08,0.208-0.033,0.315
				c0.02,0.047,0.054,0.09,0.105,0.124c0.072,0.048,0.165,0.06,0.247,0.033c0.047-0.015,0.084-0.039,0.114-0.069
				c0.068-0.067,0.092-0.143,0.096-0.225c-0.001-0.033-0.006-0.066-0.017-0.1c-0.021-0.059-0.056-0.112-0.119-0.154
				C10.494,32.367,10.365,32.369,10.271,32.433z"/>
		</g>
		<g class="st20">
			<path class="st13" d="M6.105,32.693c-0.165,0.08-1.821,1.184-2.563,2.198c1.406-1.219,2.659-1.615,2.825-1.695
				c0.165-0.08,0.241-0.258,0.169-0.397S6.27,32.613,6.105,32.693z"/>
			<path class="st13" d="M7.757,32.148c-0.557,0.005-0.833,0.256-0.862,0.285c-0.115,0.111-0.116,0.289-0.001,0.398
				c0.057,0.054,0.132,0.081,0.207,0.08c0.074-0.001,0.148-0.028,0.205-0.081c0.012-0.01,0.154-0.116,0.45-0.119
				c0.162-0.002,0.294-0.129,0.294-0.284C8.05,32.271,7.919,32.147,7.757,32.148z"/>
		</g>
		<g class="st21">
			<path class="st13" d="M4.637,39.818l0.072,0.375c-0.001,0.352,0.294,0.638,0.616,0.635c0,0,1.78,0.445,4.196,0.423
				c2.416-0.022,4.199-0.501,4.199-0.501c0.322-0.003,0.618-0.294,0.62-0.647l0.074-0.377c-1.258,0.261-2.984,0.432-4.889,0.449
				S5.894,40.056,4.637,39.818z"/>
		</g>
		<g class="st21">
			<path class="st13" d="M6.424,42.068l0.045,0.307c-0.001,0.289,0.186,0.523,0.389,0.521c0,0,1.126,0.368,2.655,0.353
				c1.529-0.014,2.658-0.403,2.658-0.403c0.204-0.002,0.392-0.24,0.392-0.528l0.047-0.308c-0.796,0.212-1.889,0.348-3.094,0.359
				C8.312,42.382,7.22,42.265,6.424,42.068z"/>
		</g>
		<path class="st22" d="M16.857,37.778c-0.012,3.945-3.361,7.174-7.48,7.212s-7.447-3.129-7.435-7.074c0,0,3.606,3.493,8.404,2.588
			C15.569,39.519,16.857,37.778,16.857,37.778z"/>
	</g>
	<g>
		
			<ellipse transform="matrix(0.9898 -0.1428 0.1428 0.9898 -5.4774 4.5142)" class="st23" cx="28.717" cy="40.424" rx="4.358" ry="4.167"/>
		<g>
			<g>
				<path class="st19" d="M26.976,38.568c0.025,0.087,0.071,0.169,0.137,0.247c0.163,0.192,0.411,0.335,0.747,0.426
					c0.278,0.075,0.573,0.102,0.885,0.081c0.109-0.007,0.217-0.022,0.322-0.042c0.088-0.017,0.173-0.037,0.255-0.062
					c0.172-0.051,0.325-0.117,0.46-0.197c0.114-0.068,0.209-0.144,0.286-0.227c0.025-0.027,0.055-0.05,0.1-0.067
					c0.057-0.022,0.116-0.022,0.174-0.007c0.024,0.006,0.045,0.015,0.066,0.024c0.104,0.045,0.208,0.09,0.312,0.135
					c0.008,0.003,0.015,0.007,0.024,0.008c0.025,0.005,0.044-0.002,0.048-0.017c0.001-0.003,0-0.006-0.002-0.009
					c-0.095-0.133-0.189-0.265-0.284-0.398c-0.116-0.163-0.233-0.327-0.349-0.49c-0.005-0.006-0.008-0.013-0.012-0.02
					c-0.011-0.019-0.027-0.037-0.043-0.055c-0.046-0.051-0.098-0.1-0.16-0.146c-0.145-0.107-0.323-0.192-0.534-0.253
					c-0.218-0.063-0.45-0.096-0.697-0.098c-0.162-0.002-0.323,0.011-0.481,0.037c-0.096,0.016-0.191,0.036-0.281,0.061
					c-0.207,0.059-0.39,0.137-0.546,0.237c-0.148,0.095-0.261,0.202-0.339,0.321C26.956,38.225,26.926,38.396,26.976,38.568z
					 M28.117,37.687c0.658-0.175,1.422-0.015,1.695,0.367c0.274,0.383-0.062,0.827-0.711,0.993c-0.637,0.169-1.406,0.02-1.684-0.37
					C27.143,38.292,27.482,37.857,28.117,37.687z"/>
				<path class="st19" d="M28.212,38.376c0.076-0.067,0.182-0.112,0.305-0.145c0.022-0.006,0.045-0.01,0.068-0.015
					c0.093-0.019,0.188-0.027,0.285-0.022c0.066,0.004,0.128,0.014,0.182,0.035c0.084,0.033,0.122,0.08,0.111,0.141
					c-0.006,0.032-0.026,0.062-0.056,0.09c-0.059,0.056-0.14,0.098-0.237,0.13c-0.102,0.034-0.21,0.056-0.326,0.061
					c-0.083,0.004-0.164-0.001-0.239-0.021c-0.125-0.032-0.184-0.102-0.151-0.179C28.166,38.424,28.186,38.399,28.212,38.376z"/>
				<path class="st19" d="M28.232,37.824c0.038-0.009,0.079-0.017,0.121-0.022c0.075-0.008,0.148-0.008,0.218,0.009
					c0.104,0.025,0.146,0.085,0.104,0.147c-0.014,0.021-0.033,0.039-0.058,0.056c-0.094,0.063-0.212,0.099-0.352,0.109
					c-0.062,0.005-0.122,0.002-0.179-0.012c-0.08-0.019-0.126-0.058-0.122-0.104c0.002-0.026,0.017-0.05,0.041-0.073
					C28.059,37.884,28.138,37.85,28.232,37.824z"/>
			</g>
			<g>
				<path class="st24" d="M24.585,39.149c0.027,0.64,1.367,2.821,4.129,2.429s3.8-1.773,4.132-2.501
					c0.218,0.525,0.326,1.1,0.296,1.699c-0.115,2.287-2.184,4.053-4.62,3.945s-4.318-2.05-4.203-4.337
					C24.342,39.95,24.434,39.536,24.585,39.149z"/>
			</g>
		</g>
	</g>
</g>
</svg>
