<?xml version="1.0" encoding="utf-8"?>
<!-- Generator: Adobe Illustrator 26.0.1, SVG Export Plug-In . SVG Version: 6.00 Build 0)  -->
<svg version="1.1" id="Layer_1" xmlns="http://www.w3.org/2000/svg" xmlns:xlink="http://www.w3.org/1999/xlink" x="0px" y="0px"
	 viewBox="0 0 50 50" style="enable-background:new 0 0 50 50;" xml:space="preserve">
<style type="text/css">
	.st0{opacity:0.14;fill:#C0C1C1;enable-background:new    ;}
	.st1{opacity:0.42;fill:#C0C1C1;enable-background:new    ;}
	.st2{fill:#FAA224;}
	.st3{opacity:0.12;}
	.st4{fill:#231F20;}
	.st5{opacity:0.37;fill:#FFFFFF;enable-background:new    ;}
	.st6{fill:#CA549F;}
	.st7{fill:#3CB54A;}
	.st8{fill:#3950A3;}
	.st9{fill:#A6DEF0;}
	.st10{fill:#FFF200;}
	.st11{fill:#D04027;}
	.st12{fill:#E0DF14;}
	.st13{fill:#676767;}
	.st14{fill:#636363;}
	.st15{fill:#A0A0A0;}
	.st16{opacity:0.9;}
	.st17{fill:#004B95;}
	.st18{fill:#0060AD;}
	.st19{opacity:0.8;fill:#1377D9;enable-background:new    ;}
	.st20{fill:#FFFFFF;}
	.st21{fill:#CCCCCC;}
	.st22{fill:#919394;}
	.st23{fill:#555657;}
	.st24{fill:#E0E0E0;}
	.st25{fill:#596177;}
	.st26{fill:#292C36;}
	.st27{fill:#373C48;}
	.st28{fill:#772020;}
	.st29{fill:#CE2020;}
	.st30{opacity:0.8;fill:#F74141;enable-background:new    ;}
	.st31{fill:#EF4025;}
	.st32{fill:#D48300;}
	.st33{fill:#FFB100;}
	.st34{opacity:0.8;fill:#FFB100;enable-background:new    ;}
</style>
<g>
	<path class="st0" d="M4.436,40.512c0.072,0.65,0.627,1.196,1.492,1.56c0.001,0.001,0.003,0.001,0.005,0.002
		c0.056,0.024,0.112,0.048,0.17,0.07c0.003,0.001,0.007,0.003,0.011,0.004c0.056,0.022,0.113,0.043,0.171,0.063
		c0.006,0.002,0.013,0.004,0.019,0.006c0.056,0.019,0.113,0.038,0.171,0.056c0.009,0.003,0.017,0.005,0.026,0.008
		c0.056,0.017,0.113,0.033,0.171,0.049c0.011,0.003,0.023,0.006,0.034,0.009c0.056,0.015,0.113,0.029,0.17,0.043
		c0.014,0.004,0.029,0.007,0.044,0.01c0.055,0.013,0.11,0.025,0.166,0.037c0.018,0.003,0.036,0.006,0.054,0.01
		c0.054,0.011,0.108,0.021,0.163,0.031c0.021,0.003,0.043,0.006,0.064,0.01c0.053,0.008,0.105,0.017,0.159,0.025
		c0.024,0.004,0.049,0.007,0.074,0.01c0.051,0.007,0.102,0.014,0.154,0.02c0.028,0.003,0.056,0.006,0.084,0.009
		c0.05,0.005,0.099,0.01,0.149,0.015c0.031,0.003,0.063,0.005,0.094,0.007c0.047,0.004,0.095,0.008,0.143,0.011
		c0.036,0.002,0.072,0.003,0.108,0.005c0.044,0.003,0.089,0.005,0.134,0.007c0.039,0.002,0.079,0.002,0.118,0.003
		c0.042,0.001,0.085,0.003,0.128,0.003c0.042,0.001,0.085,0,0.128,0c0.04,0,0.081,0.001,0.122,0
		c0.047-0.001,0.095-0.003,0.143-0.004c0.037-0.001,0.074-0.002,0.111-0.003c0.056-0.002,0.113-0.006,0.169-0.009
		c0.029-0.002,0.058-0.003,0.088-0.005c0.086-0.005,0.173-0.012,0.26-0.02c0.088-0.008,0.174-0.017,0.26-0.027
		c0.029-0.003,0.057-0.007,0.086-0.011c0.056-0.007,0.113-0.014,0.169-0.022c0.036-0.005,0.071-0.011,0.106-0.016
		c0.049-0.008,0.098-0.015,0.146-0.023c0.041-0.007,0.081-0.015,0.121-0.022c0.042-0.008,0.085-0.015,0.126-0.023
		c0.043-0.009,0.086-0.018,0.129-0.027c0.038-0.008,0.076-0.016,0.113-0.024c0.045-0.01,0.089-0.02,0.133-0.031
		c0.034-0.008,0.069-0.015,0.103-0.024c0.047-0.012,0.094-0.024,0.141-0.037c0.029-0.008,0.06-0.016,0.089-0.024
		c0.049-0.013,0.097-0.028,0.145-0.042c0.026-0.008,0.054-0.016,0.08-0.024c0.05-0.015,0.1-0.032,0.149-0.048
		c0.023-0.008,0.047-0.015,0.07-0.023c0.052-0.017,0.102-0.036,0.153-0.054c0.02-0.007,0.04-0.014,0.059-0.021
		c0.053-0.02,0.105-0.04,0.157-0.061c0.017-0.006,0.033-0.013,0.049-0.019c0.054-0.022,0.106-0.044,0.159-0.067
		c0.013-0.006,0.026-0.011,0.039-0.017c0.055-0.025,0.109-0.05,0.162-0.075c0.009-0.004,0.019-0.008,0.029-0.013
		c0.055-0.027,0.109-0.054,0.162-0.081c0.007-0.004,0.015-0.007,0.022-0.011c0.055-0.029,0.108-0.058,0.161-0.088
		c0.004-0.003,0.009-0.005,0.014-0.008c0.055-0.031,0.108-0.062,0.16-0.094c0.003-0.002,0.005-0.003,0.008-0.005
		c0.054-0.033,0.106-0.067,0.157-0.101c0-0.001,0.001-0.001,0.002-0.002c0.776-0.521,1.222-1.16,1.172-1.813l0,0l0,0
		c-0.001-0.006,0-0.012-0.001-0.018c-0.009-0.103-0.032-0.203-0.065-0.3c0.04-0.023,0.08-0.046,0.118-0.07
		c0.002-0.001,0.005-0.003,0.007-0.004c0.041-0.025,0.081-0.051,0.12-0.077c0-0.001,0.001-0.001,0.002-0.002
		c0.594-0.4,0.936-0.89,0.898-1.39l0,0l0,0c-0.001-0.005-0.001-0.009-0.001-0.014c-0.029-0.314-0.206-0.597-0.495-0.836
		c0.001,0,0.003-0.001,0.004-0.002c0.036-0.022,0.071-0.045,0.106-0.068c0.001,0,0.001-0.001,0.002-0.001
		c0.528-0.355,0.832-0.79,0.798-1.235l0,0l0,0c0-0.004,0-0.008,0-0.012c-0.069-0.767-1.128-1.326-2.531-1.425
		c0.021-0.01,0.041-0.02,0.061-0.03c0.005-0.002,0.009-0.005,0.014-0.007c0.032-0.017,0.064-0.034,0.095-0.052
		c0.003-0.001,0.005-0.003,0.008-0.004c0.032-0.018,0.064-0.036,0.094-0.055c0.002-0.001,0.003-0.002,0.005-0.003
		c0.031-0.019,0.062-0.039,0.092-0.059c0-0.001,0.001-0.001,0.001-0.001c0.009-0.006,0.017-0.012,0.026-0.018
		c0.003,0.001,0.007,0.001,0.011,0.002c0.029,0.005,0.057,0.011,0.086,0.016c0.011,0.002,0.023,0.004,0.034,0.006
		c0.027,0.004,0.055,0.009,0.083,0.013c0.013,0.002,0.026,0.003,0.039,0.005c0.027,0.004,0.054,0.008,0.081,0.011
		c0.014,0.002,0.029,0.003,0.044,0.005c0.027,0.003,0.053,0.006,0.079,0.008c0.017,0.002,0.034,0.003,0.051,0.004
		c0.025,0.002,0.05,0.004,0.075,0.006c0.019,0.001,0.037,0.002,0.056,0.003c0.024,0.002,0.048,0.003,0.072,0.004
		c0.02,0,0.04,0.001,0.06,0.001c0.024,0.001,0.047,0.002,0.071,0.002c0.022,0,0.044,0,0.066,0c0.022,0,0.044,0,0.066,0
		c0.024,0,0.048-0.001,0.072-0.002c0.021-0.001,0.041-0.001,0.062-0.002c0.027-0.001,0.054-0.002,0.081-0.004
		c0.018-0.001,0.036-0.002,0.054-0.003c0.045-0.003,0.091-0.007,0.137-0.011s0.092-0.009,0.137-0.014
		c0.015-0.002,0.03-0.004,0.045-0.006c0.03-0.004,0.06-0.008,0.09-0.012c0.02-0.003,0.04-0.006,0.06-0.009
		c0.024-0.003,0.049-0.007,0.073-0.011c0.022-0.004,0.044-0.008,0.066-0.012c0.021-0.004,0.043-0.008,0.064-0.012
		c0.023-0.004,0.045-0.009,0.068-0.014c0.019-0.004,0.039-0.008,0.059-0.012c0.023-0.006,0.047-0.011,0.07-0.017
		c0.018-0.004,0.036-0.009,0.054-0.013c0.026-0.007,0.05-0.013,0.075-0.02c0.016-0.004,0.032-0.008,0.047-0.012
		c0.025-0.007,0.051-0.014,0.076-0.022c0.014-0.004,0.028-0.008,0.042-0.012c0.026-0.008,0.052-0.016,0.078-0.025
		c0.012-0.004,0.025-0.008,0.037-0.012c0.027-0.009,0.053-0.018,0.08-0.028c0.011-0.003,0.021-0.007,0.032-0.011
		c0.028-0.01,0.055-0.021,0.082-0.032c0.009-0.003,0.017-0.007,0.026-0.01c0.028-0.011,0.055-0.023,0.083-0.035
		c0.007-0.003,0.014-0.006,0.021-0.009c0.013-0.006,0.025-0.012,0.038-0.018c0.01,0.005,0.02,0.009,0.031,0.013
		c0.002,0.001,0.005,0.002,0.007,0.003c0.029,0.012,0.059,0.022,0.089,0.033c0.003,0.001,0.006,0.002,0.009,0.003
		c0.03,0.011,0.06,0.021,0.091,0.03c0.005,0.001,0.009,0.003,0.014,0.004c0.03,0.009,0.059,0.018,0.09,0.026
		c0.006,0.002,0.012,0.003,0.018,0.005c0.029,0.008,0.059,0.016,0.089,0.023c0.007,0.002,0.015,0.003,0.023,0.005
		c0.028,0.006,0.057,0.013,0.087,0.019c0.01,0.002,0.019,0.004,0.029,0.006c0.028,0.005,0.056,0.011,0.085,0.016
		c0.011,0.002,0.023,0.004,0.034,0.006c0.027,0.004,0.055,0.009,0.083,0.013c0.013,0.002,0.026,0.003,0.039,0.005
		c0.027,0.004,0.054,0.008,0.081,0.011c0.015,0.002,0.029,0.003,0.044,0.005c0.026,0.003,0.052,0.006,0.079,0.008
		c0.017,0.002,0.034,0.003,0.051,0.004c0.024,0.002,0.049,0.004,0.074,0.006c0.018,0.001,0.037,0.002,0.056,0.003
		c0.024,0.002,0.048,0.003,0.072,0.004c0.02,0,0.04,0.001,0.06,0.001c0.023,0.001,0.046,0.002,0.07,0.002c0.022,0,0.044,0,0.066,0
		s0.044,0,0.066,0c0.024,0,0.048-0.001,0.072-0.002c0.021-0.001,0.041-0.001,0.062-0.002c0.027-0.001,0.054-0.002,0.081-0.004
		c0.018-0.001,0.036-0.002,0.054-0.003c0.045-0.003,0.091-0.007,0.137-0.011s0.092-0.009,0.137-0.014
		c0.015-0.002,0.03-0.004,0.045-0.006c0.03-0.004,0.06-0.008,0.09-0.012c0.02-0.003,0.04-0.006,0.06-0.009
		c0.024-0.003,0.049-0.007,0.073-0.011c0.022-0.004,0.044-0.008,0.066-0.012c0.021-0.004,0.043-0.008,0.064-0.012
		c0.023-0.004,0.045-0.009,0.068-0.014c0.019-0.004,0.039-0.008,0.059-0.012c0.024-0.006,0.047-0.011,0.071-0.017
		c0.017-0.005,0.035-0.009,0.053-0.013c0.025-0.006,0.05-0.013,0.075-0.02c0.016-0.004,0.032-0.008,0.047-0.012
		c0.025-0.007,0.05-0.015,0.075-0.022c0.014-0.005,0.029-0.009,0.043-0.013c0.026-0.008,0.052-0.017,0.077-0.025
		c0.013-0.005,0.026-0.009,0.039-0.013c0.027-0.009,0.054-0.018,0.08-0.028c0.01-0.003,0.021-0.007,0.032-0.011
		c0.028-0.01,0.055-0.021,0.082-0.032c0.009-0.003,0.017-0.007,0.026-0.01c0.028-0.012,0.056-0.024,0.084-0.036
		c0.006-0.003,0.013-0.006,0.02-0.009c0.013-0.006,0.026-0.012,0.039-0.018c0.053,0.034,0.11,0.066,0.172,0.096l0,0
		c0.024,0.012,0.049,0.024,0.075,0.035c0,0,0.001,0.001,0.002,0.001c0.025,0.011,0.051,0.022,0.077,0.032
		c0.002,0.001,0.003,0.001,0.005,0.002c0.026,0.009,0.052,0.019,0.078,0.028c0.002,0.001,0.005,0.002,0.008,0.003
		c0.026,0.008,0.052,0.017,0.078,0.025c0.004,0.001,0.008,0.002,0.012,0.003c0.025,0.007,0.051,0.015,0.077,0.022
		c0.005,0.001,0.011,0.003,0.016,0.004c0.025,0.006,0.05,0.013,0.076,0.019c0.007,0.001,0.013,0.002,0.02,0.004
		c0.025,0.006,0.05,0.012,0.075,0.017c0.008,0.002,0.017,0.003,0.025,0.005c0.024,0.005,0.048,0.01,0.073,0.014
		c0.009,0.002,0.019,0.003,0.028,0.005c0.024,0.004,0.048,0.008,0.072,0.012c0.011,0.001,0.022,0.002,0.033,0.004
		c0.023,0.003,0.046,0.006,0.07,0.009c0.013,0.002,0.025,0.003,0.038,0.004c0.023,0.002,0.045,0.005,0.068,0.007
		c0.014,0.001,0.029,0.002,0.044,0.003c0.022,0.002,0.043,0.004,0.064,0.005c0.016,0.001,0.032,0.001,0.048,0.002
		c0.021,0.001,0.041,0.002,0.062,0.003c0.018,0,0.035,0.001,0.053,0.001c0.02,0,0.039,0.001,0.059,0.001c0.019,0,0.038,0,0.057,0
		s0.037,0,0.056,0c0.02-0.001,0.041-0.001,0.062-0.002c0.017,0,0.034,0,0.052-0.001c0.023-0.001,0.047-0.003,0.07-0.004
		c0.015,0,0.031-0.001,0.046-0.002c0.039-0.002,0.079-0.005,0.118-0.009c0.04-0.003,0.079-0.007,0.118-0.012
		c0.016-0.002,0.031-0.004,0.047-0.006c0.023-0.003,0.046-0.006,0.069-0.009c0.018-0.003,0.037-0.006,0.055-0.009
		c0.02-0.003,0.04-0.006,0.059-0.009c0.018-0.003,0.035-0.007,0.053-0.01c0.02-0.004,0.04-0.007,0.059-0.011
		c0.018-0.004,0.037-0.008,0.055-0.012c0.018-0.003,0.036-0.007,0.054-0.011c0.02-0.004,0.039-0.009,0.059-0.014
		c0.016-0.004,0.032-0.007,0.048-0.011c0.021-0.005,0.041-0.011,0.062-0.016c0.014-0.003,0.029-0.007,0.043-0.011
		c0.021-0.006,0.043-0.013,0.064-0.019c0.012-0.004,0.025-0.007,0.037-0.011c0.023-0.007,0.045-0.015,0.068-0.022
		c0.01-0.003,0.021-0.007,0.031-0.01c0.024-0.008,0.047-0.017,0.07-0.025c0.009-0.003,0.017-0.006,0.026-0.009
		c0.024-0.009,0.047-0.019,0.071-0.028c0.007-0.002,0.015-0.005,0.022-0.008c0.025-0.01,0.048-0.02,0.072-0.03
		c0.006-0.003,0.012-0.005,0.018-0.008c0.025-0.01,0.049-0.022,0.073-0.033c0.005-0.002,0.009-0.004,0.014-0.006
		c0.025-0.011,0.049-0.024,0.073-0.036c0.003-0.002,0.007-0.003,0.01-0.005c0.012-0.006,0.023-0.012,0.034-0.018
		c0.007,0.002,0.015,0.004,0.022,0.006c0.005,0.001,0.01,0.003,0.015,0.004c0.025,0.006,0.05,0.013,0.076,0.019
		c0.006,0.001,0.013,0.003,0.019,0.004c0.024,0.005,0.049,0.011,0.074,0.016c0.008,0.002,0.016,0.003,0.024,0.005
		c0.024,0.005,0.048,0.01,0.073,0.014c0.009,0.001,0.018,0.002,0.027,0.004c0.024,0.004,0.048,0.007,0.072,0.011
		c0.011,0.001,0.022,0.003,0.033,0.004c0.023,0.003,0.046,0.006,0.069,0.009c0.013,0.001,0.026,0.003,0.039,0.004
		c0.022,0.003,0.043,0.005,0.065,0.007c0.014,0.001,0.028,0.002,0.042,0.003c0.022,0.002,0.043,0.004,0.064,0.005
		c0.016,0.001,0.031,0.001,0.047,0.002c0.02,0.001,0.04,0.002,0.061,0.003c0.017,0,0.034,0.001,0.051,0.001
		c0.02,0,0.039,0.001,0.059,0.001c0.019,0,0.038,0,0.057,0c0.018,0,0.036,0,0.054,0c0.022-0.001,0.045-0.001,0.067-0.002
		c0.015,0,0.03,0,0.046-0.001c0.024-0.001,0.048-0.003,0.072-0.004c0.015-0.001,0.029-0.001,0.043-0.002
		c0.039-0.002,0.077-0.005,0.116-0.009s0.078-0.008,0.116-0.012c0.012-0.002,0.024-0.003,0.036-0.005
		c0.026-0.003,0.052-0.006,0.078-0.01c0.014-0.002,0.029-0.005,0.043-0.007c0.023-0.004,0.046-0.007,0.069-0.011
		c0.018-0.003,0.036-0.007,0.054-0.01c0.019-0.003,0.037-0.006,0.056-0.01c0.02-0.004,0.04-0.009,0.06-0.013
		c0.016-0.003,0.031-0.007,0.047-0.01c0.02-0.004,0.04-0.009,0.06-0.014c0.015-0.004,0.03-0.007,0.045-0.011
		c0.02-0.005,0.041-0.011,0.061-0.016c0.014-0.004,0.028-0.007,0.042-0.011c0.021-0.006,0.042-0.012,0.063-0.018
		c0.013-0.004,0.026-0.007,0.038-0.011c0.023-0.006,0.045-0.014,0.067-0.021c0.01-0.003,0.021-0.007,0.031-0.01
		c0.024-0.008,0.047-0.017,0.07-0.025c0.008-0.003,0.017-0.006,0.025-0.009c0.024-0.009,0.048-0.019,0.071-0.028
		c0.007-0.003,0.014-0.005,0.021-0.008c0.024-0.01,0.047-0.02,0.071-0.03c0.006-0.002,0.011-0.005,0.017-0.007
		c0.024-0.011,0.048-0.022,0.072-0.033c0.004-0.002,0.009-0.004,0.013-0.006c0.025-0.012,0.048-0.024,0.072-0.036
		c0.003-0.002,0.007-0.003,0.01-0.005c0.025-0.013,0.049-0.026,0.072-0.039c0.002-0.002,0.005-0.003,0.007-0.004
		c0.025-0.013,0.049-0.028,0.072-0.042C26.633,33,26.634,33,26.635,32.999c0.024-0.015,0.047-0.03,0.07-0.045l0.001-0.001
		c0.345-0.232,0.544-0.517,0.522-0.808l0,0l0,0c0-0.003,0-0.005,0-0.008c-0.057-0.624-1.114-1.038-2.36-0.924
		c-0.545,0.05-1.035,0.192-1.41,0.388c-0.405-0.119-0.907-0.167-1.444-0.118c-0.368,0.034-0.711,0.109-1.012,0.214
		c-0.463-0.423-1.421-0.659-2.5-0.561c-0.568,0.052-1.087,0.189-1.506,0.38c-0.508-0.204-1.198-0.297-1.947-0.229
		c-0.671,0.061-1.272,0.241-1.722,0.488c-0.521-0.151-1.166-0.212-1.856-0.149c-1.541,0.141-2.753,0.844-2.832,1.609
		c-1.638,0.261-2.845,1.083-2.767,1.939c0.037,0.411,0.365,0.761,0.879,1.009c0.001,0,0.001,0,0.001,0
		c0.036,0.018,0.073,0.035,0.111,0.051c0.001,0,0.002,0.001,0.003,0.001c0.037,0.016,0.074,0.031,0.113,0.046
		c0.002,0.001,0.005,0.002,0.007,0.003c0.037,0.015,0.075,0.029,0.114,0.042c0.004,0.001,0.008,0.003,0.012,0.004
		c0.037,0.013,0.075,0.025,0.114,0.037c0.006,0.002,0.012,0.003,0.018,0.005c0.038,0.011,0.075,0.023,0.114,0.033
		c0.007,0.002,0.015,0.004,0.023,0.006c0.037,0.01,0.074,0.02,0.112,0.029c0.01,0.002,0.019,0.004,0.029,0.006
		c0.037,0.009,0.073,0.017,0.111,0.025c0.011,0.003,0.023,0.005,0.035,0.007c0.036,0.007,0.072,0.015,0.109,0.021
		c0.014,0.003,0.029,0.005,0.043,0.007c0.035,0.006,0.07,0.012,0.105,0.017c0.016,0.003,0.033,0.005,0.049,0.007
		c0.034,0.004,0.068,0.009,0.102,0.013c0.019,0.002,0.038,0.004,0.057,0.006c0.032,0.003,0.065,0.007,0.098,0.01
		c0.022,0.002,0.044,0.003,0.065,0.005c0.031,0.002,0.062,0.005,0.094,0.007c0.023,0.002,0.047,0.003,0.071,0.004
		c0.03,0.001,0.06,0.003,0.09,0.004c0.026,0.001,0.051,0.001,0.077,0.002c0.029,0.001,0.058,0.002,0.087,0.002
		c0.029,0,0.058,0,0.087,0c0.027,0,0.053,0,0.08,0c0.032-0.001,0.064-0.002,0.096-0.003c0.024-0.001,0.049-0.001,0.073-0.002
		c0.037-0.002,0.074-0.004,0.111-0.006c0.02-0.001,0.04-0.002,0.06-0.003c0.019-0.001,0.037-0.003,0.056-0.004
		c0.024,0.041,0.05,0.082,0.08,0.121c-0.583,0.27-1.029,0.612-1.275,0.986c-2.198,0.47-3.759,1.621-3.65,2.816
		C4.433,40.496,4.435,40.504,4.436,40.512L4.436,40.512L4.436,40.512z"/>
	<polygon class="st1" points="34.927,45.503 47.93,37.983 35.421,30.746 22.419,38.265 	"/>
	<g>
		<g>
			<ellipse class="st2" cx="25.215" cy="28.058" rx="2.491" ry="2.384"/>
			<g class="st3">
				<path class="st4" d="M27.704,28.075c-0.009,1.309-1.12,2.368-2.49,2.368c-1.368,0-2.477-1.056-2.49-2.362
					c0.405,0.933,1.367,1.59,2.489,1.59C26.338,29.671,27.301,29.012,27.704,28.075z"/>
			</g>
			
				<ellipse transform="matrix(0.2412 -0.9705 0.9705 0.2412 -5.7009 45.0145)" class="st5" cx="25.935" cy="26.153" rx="0.208" ry="0.445"/>
		</g>
		<g>
			<ellipse class="st6" cx="22.065" cy="28.116" rx="2.529" ry="2.421"/>
			<g class="st3">
				<path class="st4" d="M24.593,28.133c-0.01,1.329-1.138,2.404-2.529,2.404c-1.389,0-2.516-1.071-2.529-2.398
					c0.412,0.948,1.389,1.615,2.528,1.615C23.205,29.754,24.183,29.084,24.593,28.133z"/>
			</g>
			
				<ellipse transform="matrix(0.2412 -0.9705 0.9705 0.2412 -8.1102 41.9892)" class="st5" cx="22.796" cy="26.181" rx="0.212" ry="0.452"/>
		</g>
		<g>
			<ellipse class="st7" cx="18.255" cy="27.12" rx="2.947" ry="2.821"/>
			<g class="st3">
				<path class="st4" d="M21.201,27.139c-0.012,1.549-1.326,2.802-2.947,2.802c-1.618,0-2.931-1.249-2.946-2.795
					c0.48,1.105,1.617,1.882,2.945,1.882C19.584,29.028,20.723,28.248,21.201,27.139z"/>
			</g>
			
				<ellipse transform="matrix(0.2412 -0.9705 0.9705 0.2412 -9.6325 37.4105)" class="st5" cx="19.107" cy="24.865" rx="0.246" ry="0.526"/>
		</g>
		<g>
			<ellipse class="st8" cx="14.46" cy="26.778" rx="2.947" ry="2.821"/>
			<g class="st3">
				<path class="st4" d="M17.407,26.797c-0.012,1.549-1.326,2.802-2.947,2.802c-1.618,0-2.931-1.249-2.946-2.795
					c0.48,1.105,1.617,1.882,2.945,1.882C15.789,28.686,16.929,27.906,17.407,26.797z"/>
			</g>
			
				<ellipse transform="matrix(0.2412 -0.9705 0.9705 0.2412 -12.1798 33.469)" class="st5" cx="15.313" cy="24.523" rx="0.246" ry="0.526"/>
		</g>
		<g>
			<ellipse class="st9" cx="10.509" cy="27.12" rx="3.276" ry="3.136"/>
			<g class="st3">
				<path class="st4" d="M13.785,27.143c-0.013,1.722-1.474,3.114-3.276,3.114c-1.799,0-3.258-1.389-3.275-3.107
					c0.533,1.228,1.798,2.092,3.274,2.092C11.987,29.242,13.254,28.374,13.785,27.143z"/>
			</g>
			
				<ellipse transform="matrix(0.2412 -0.9705 0.9705 0.2412 -15.1933 29.7952)" class="st5" cx="11.457" cy="24.613" rx="0.274" ry="0.585"/>
		</g>
		<g>
			<ellipse class="st6" cx="7.749" cy="30.341" rx="3.722" ry="3.563"/>
			<g class="st3">
				<path class="st4" d="M11.47,30.365c-0.014,1.956-1.674,3.538-3.721,3.538c-2.044,0-3.702-1.577-3.721-3.529
					c0.605,1.396,2.042,2.377,3.719,2.377C9.427,32.751,10.866,31.766,11.47,30.365z"/>
			</g>
			
				<ellipse transform="matrix(0.2412 -0.9705 0.9705 0.2412 -19.9857 29.4262)" class="st5" cx="8.825" cy="27.493" rx="0.311" ry="0.665"/>
		</g>
		<g>
			<ellipse class="st10" cx="11.325" cy="33.074" rx="3.805" ry="3.643"/>
			<g class="st3">
				<path class="st4" d="M15.129,33.099c-0.015,2-1.712,3.617-3.805,3.617c-2.089,0-3.785-1.612-3.804-3.608
					c0.62,1.427,2.089,2.43,3.803,2.43C13.041,35.538,14.512,34.531,15.129,33.099z"/>
			</g>
			
				<ellipse transform="matrix(0.2412 -0.9705 0.9705 0.2412 -19.8438 34.9454)" class="st5" cx="12.425" cy="30.162" rx="0.318" ry="0.68"/>
		</g>
		<g>
			<ellipse class="st2" cx="10.178" cy="37.506" rx="4.282" ry="4.099"/>
			<g class="st3">
				<path class="st4" d="M14.46,37.535c-0.016,2.25-1.926,4.07-4.281,4.07c-2.351,0-4.259-1.814-4.281-4.06
					c0.697,1.605,2.35,2.734,4.279,2.734C12.109,40.279,13.765,39.146,14.46,37.535z"/>
			</g>
			
				<ellipse transform="matrix(0.2412 -0.9705 0.9705 0.2412 -24.5569 37.0542)" class="st5" cx="11.417" cy="34.231" rx="0.358" ry="0.765"/>
		</g>
		<g>
			<ellipse class="st11" cx="7.51" cy="41.185" rx="5.585" ry="5.346"/>
			<g class="st3">
				<path class="st4" d="M13.093,41.223c-0.022,2.936-2.513,5.309-5.584,5.309c-3.066,0-5.554-2.367-5.583-5.296
					c0.909,2.093,3.065,3.566,5.581,3.566C10.028,44.802,12.188,43.324,13.093,41.223z"/>
			</g>
			
				<ellipse transform="matrix(0.2412 -0.9705 0.9705 0.2412 -28.8981 36.8646)" class="st5" cx="9.125" cy="36.912" rx="0.467" ry="0.997"/>
			<g>
				<path class="st12" d="M4.135,40.875c0.015-0.176,0.17-0.307,0.346-0.292s0.307,0.17,0.292,0.346
					c-0.017,0.205,0.231,0.469,0.648,0.691c0.519,0.276,1.231,0.464,2.005,0.529c1.67,0.141,2.786-0.354,2.82-0.757
					c0.015-0.176,0.17-0.307,0.346-0.292s0.307,0.17,0.292,0.346c-0.078,0.927-1.588,1.504-3.511,1.341S4.058,41.803,4.135,40.875z"
					/>
			</g>
			<g>
				<g>
					<path class="st13" d="M11.566,36.788l-1.007,2.196c-0.008,0.017-0.004,0.039,0.012,0.062c0.033,0.047,0.106,0.08,0.163,0.075
						c0.029-0.003,0.048-0.015,0.056-0.032l1.007-2.196l0,0c0.008-0.017,0.004-0.039-0.012-0.062
						c-0.033-0.047-0.106-0.08-0.163-0.075c-0.03,0.003-0.05,0.016-0.057,0.035C11.565,36.79,11.566,36.789,11.566,36.788z"/>
					<path class="st13" d="M11.208,36.34l-1.007,2.196c-0.008,0.017-0.004,0.039,0.012,0.062c0.033,0.047,0.106,0.08,0.163,0.075
						c0.029-0.003,0.048-0.015,0.056-0.032l1.007-2.196l0,0c0.008-0.017,0.004-0.039-0.012-0.062
						c-0.033-0.047-0.106-0.08-0.163-0.075c-0.031,0.003-0.05,0.016-0.057,0.035C11.207,36.342,11.207,36.341,11.208,36.34z"/>
					<g>
						<polygon class="st13" points="11.564,36.059 11.36,36.501 11.414,36.496 11.618,36.054 						"/>
						<polygon class="st13" points="11.805,36.675 11.812,37.138 11.867,37.133 11.859,36.67 11.864,36.659 11.833,36.614 						"/>
						<polygon class="st14" points="11.98,36.292 11.98,36.292 11.708,36.316 11.653,36.321 						"/>
						<polygon class="st15" points="11.138,36.189 11.36,36.501 11.564,36.059 11.618,36.054 11.89,36.03 11.974,35.85 
							11.978,35.84 11.634,35.355 11.36,35.948 11.427,36.042 11.399,36.103 						"/>
						<polygon class="st13" points="11.974,35.85 11.89,36.03 11.945,36.025 12.028,35.844 12.033,35.834 11.689,35.35 
							11.634,35.355 11.978,35.84 						"/>
						<polygon class="st13" points="12.176,36.118 11.902,36.711 11.956,36.706 12.23,36.113 12.16,36.014 12.106,36.019 						"/>
						<polygon class="st15" points="11.634,36.364 11.714,36.478 11.568,36.795 11.812,37.138 11.805,36.675 11.833,36.614 
							11.864,36.659 11.902,36.711 12.176,36.118 12.106,36.019 11.98,36.292 11.98,36.292 11.653,36.321 						"/>
					</g>
				</g>
				<g class="st16">
					<path class="st17" d="M10.303,36.567l-0.116,0.258c-0.074,0.161-0.042,0.37,0.113,0.589c0.311,0.441,1.002,0.758,1.542,0.707
						c0.272-0.025,0.454-0.139,0.528-0.302l0.116-0.258c0,0.001-0.001,0.001-0.001,0.002c-0.005,0.011-0.011,0.021-0.017,0.031
						c-0.006,0.009-0.01,0.018-0.016,0.027c-0.007,0.01-0.015,0.019-0.023,0.029c-0.007,0.009-0.013,0.017-0.02,0.025
						c-0.008,0.009-0.018,0.017-0.028,0.026c-0.008,0.007-0.015,0.015-0.024,0.022c-0.01,0.008-0.023,0.015-0.034,0.023
						c-0.01,0.006-0.018,0.013-0.028,0.019c-0.013,0.007-0.027,0.013-0.041,0.02c-0.011,0.005-0.02,0.01-0.031,0.015
						c-0.015,0.006-0.031,0.012-0.047,0.017c-0.011,0.004-0.021,0.009-0.033,0.012c-0.018,0.005-0.038,0.01-0.058,0.014
						c-0.01,0.002-0.019,0.005-0.03,0.007c-0.031,0.006-0.063,0.011-0.097,0.014c-0.54,0.051-1.231-0.266-1.542-0.707
						c-0.019-0.028-0.036-0.055-0.052-0.082c-0.005-0.009-0.008-0.017-0.013-0.026c-0.01-0.019-0.02-0.037-0.028-0.055
						c-0.005-0.01-0.008-0.021-0.012-0.031c-0.006-0.016-0.013-0.032-0.018-0.048c-0.003-0.011-0.005-0.021-0.008-0.032
						c-0.004-0.015-0.008-0.03-0.011-0.044c-0.002-0.011-0.003-0.021-0.004-0.032c-0.002-0.014-0.004-0.028-0.005-0.041
						c0-0.011,0.001-0.021,0.001-0.032c0-0.012,0-0.026,0.001-0.038c0.001-0.011,0.004-0.021,0.006-0.031
						c0.002-0.012,0.004-0.024,0.007-0.036c0.003-0.011,0.007-0.02,0.011-0.03C10.295,36.588,10.298,36.577,10.303,36.567z"/>
					<path class="st18" d="M12.468,37.593c0.006-0.01,0.012-0.02,0.017-0.031c0.058-0.126,0.05-0.282-0.03-0.449l-0.125,0.273
						c-0.061,0.134-0.21,0.227-0.433,0.248c-0.442,0.041-1.009-0.218-1.264-0.58c-0.127-0.179-0.153-0.35-0.093-0.482l0.127-0.278
						c-0.195,0.053-0.325,0.161-0.376,0.304c-0.004,0.01-0.008,0.02-0.011,0.03c-0.003,0.012-0.005,0.024-0.007,0.036
						c-0.002,0.01-0.005,0.02-0.006,0.031c-0.001,0.012-0.001,0.025-0.001,0.038c0,0.011-0.001,0.021-0.001,0.032
						c0.001,0.013,0.003,0.027,0.005,0.041c0.002,0.01,0.002,0.021,0.004,0.032c0.003,0.014,0.007,0.029,0.011,0.044
						c0.003,0.01,0.005,0.021,0.008,0.032c0.005,0.016,0.012,0.032,0.018,0.048c0.004,0.01,0.007,0.021,0.012,0.031
						c0.008,0.018,0.018,0.037,0.028,0.055c0.004,0.009,0.008,0.017,0.013,0.026c0.015,0.027,0.033,0.055,0.052,0.082
						c0.311,0.441,1.002,0.758,1.542,0.707c0.033-0.004,0.066-0.008,0.097-0.014c0.01-0.002,0.02-0.005,0.03-0.007
						c0.019-0.004,0.039-0.008,0.058-0.014c0.012-0.004,0.022-0.008,0.033-0.012c0.016-0.006,0.032-0.011,0.047-0.017
						c0.011-0.004,0.021-0.01,0.031-0.015c0.014-0.006,0.028-0.013,0.041-0.02c0.01-0.006,0.019-0.013,0.028-0.019
						c0.011-0.007,0.023-0.015,0.034-0.023c0.009-0.007,0.016-0.015,0.024-0.022c0.009-0.009,0.019-0.017,0.028-0.026
						c0.007-0.008,0.013-0.017,0.02-0.025c0.008-0.01,0.016-0.019,0.023-0.029C12.458,37.612,12.463,37.602,12.468,37.593z"/>
				</g>
				<path class="st19" d="M12.331,37.39l0.125-0.274l0.753-1.647c-0.001,0-0.001,0.001-0.001,0.001
					c0.024-0.053,0.042-0.102,0.052-0.166c0.065-0.417-0.17-0.87-0.579-1.058c-0.433-0.199-0.937-0.053-1.203,0.322
					c-0.03,0.033-0.053,0.071-0.068,0.112c0.003-0.009,0.005-0.018,0.009-0.026l-0.033,0.071l-0.001,0.001
					c-0.001,0-0.001,0.001-0.001,0.001l-0.717,1.568l-0.127,0.278c-0.06,0.131-0.034,0.302,0.093,0.482
					c0.255,0.362,0.821,0.622,1.264,0.58C12.12,37.614,12.269,37.521,12.331,37.39z"/>
				<path class="st20" d="M12.145,34.469c0.163,0.075,0.235,0.269,0.16,0.432s-0.269,0.235-0.432,0.16s-0.235-0.269-0.16-0.432
					C11.788,34.466,11.981,34.394,12.145,34.469z"/>
			</g>
			<g>
				<g>
					<path class="st13" d="M4.16,36.296l0.624,2.334c0.005,0.018-0.002,0.039-0.022,0.059c-0.04,0.04-0.118,0.061-0.173,0.046
						c-0.028-0.008-0.045-0.023-0.05-0.041L3.915,36.36l0,0c-0.005-0.019,0.002-0.04,0.022-0.06c0.041-0.04,0.118-0.061,0.174-0.046
						c0.029,0.008,0.046,0.024,0.05,0.044C4.16,36.297,4.16,36.295,4.16,36.296z"/>
					<path class="st13" d="M4.588,35.914l0.624,2.334c0.005,0.018-0.002,0.039-0.022,0.059c-0.04,0.04-0.118,0.061-0.173,0.046
						c-0.028-0.008-0.045-0.023-0.05-0.041l-0.624-2.334l0,0c-0.005-0.019,0.002-0.04,0.022-0.06
						c0.041-0.04,0.118-0.061,0.174-0.046c0.029,0.008,0.046,0.024,0.05,0.044C4.589,35.915,4.589,35.914,4.588,35.914z"/>
					<g>
						<polygon class="st13" points="4.285,35.576 4.412,36.047 4.359,36.032 4.232,35.563 						"/>
						<polygon class="st13" points="3.944,36.143 3.859,36.599 3.806,36.584 3.891,36.129 3.888,36.117 3.926,36.079 						"/>
						<polygon class="st14" points="3.836,35.736 3.835,35.736 4.1,35.805 4.152,35.819 						"/>
						<polygon class="st15" points="4.683,35.776 4.412,36.047 4.285,35.576 4.232,35.563 3.968,35.493 3.916,35.301 3.913,35.291 
							4.334,34.871 4.504,35.501 4.423,35.583 4.44,35.648 						"/>
						<polygon class="st13" points="3.916,35.301 3.968,35.493 3.915,35.479 3.863,35.287 3.86,35.276 4.281,34.856 4.334,34.871 
							3.913,35.291 						"/>
						<polygon class="st13" points="3.672,35.532 3.842,36.163 3.789,36.148 3.619,35.517 3.704,35.432 3.757,35.446 						"/>
						<polygon class="st15" points="4.165,35.865 4.066,35.964 4.157,36.301 3.859,36.599 3.944,36.143 3.926,36.079 3.888,36.117 
							3.842,36.163 3.672,35.532 3.757,35.446 3.835,35.736 3.836,35.736 4.152,35.819 						"/>
					</g>
				</g>
				<g class="st16">
					<path class="st17" d="M5.442,36.288l0.071,0.274c0.046,0.171-0.021,0.371-0.21,0.561c-0.381,0.382-1.115,0.579-1.639,0.438
						C3.4,37.49,3.24,37.347,3.194,37.174L3.123,36.9c0.001,0.001,0.001,0.001,0.001,0.002c0.003,0.012,0.008,0.023,0.012,0.034
						c0.004,0.01,0.007,0.02,0.011,0.03c0.005,0.011,0.012,0.021,0.018,0.032c0.006,0.01,0.01,0.019,0.016,0.028
						c0.007,0.01,0.015,0.02,0.023,0.03c0.006,0.009,0.012,0.018,0.02,0.026c0.009,0.01,0.02,0.02,0.03,0.029
						c0.008,0.008,0.015,0.016,0.024,0.023c0.012,0.01,0.025,0.018,0.037,0.027c0.01,0.007,0.018,0.014,0.028,0.02
						c0.014,0.009,0.029,0.017,0.044,0.025c0.01,0.006,0.019,0.012,0.03,0.017c0.017,0.009,0.036,0.016,0.055,0.024
						c0.01,0.004,0.019,0.008,0.029,0.012c0.03,0.011,0.061,0.021,0.094,0.03c0.524,0.141,1.258-0.055,1.639-0.438
						c0.023-0.024,0.045-0.048,0.065-0.072c0.006-0.008,0.011-0.015,0.017-0.023c0.013-0.016,0.026-0.033,0.037-0.049
						c0.006-0.01,0.011-0.019,0.017-0.029c0.009-0.015,0.019-0.029,0.026-0.044c0.005-0.011,0.008-0.021,0.013-0.031
						c0.006-0.013,0.013-0.027,0.018-0.041c0.004-0.01,0.006-0.021,0.009-0.031c0.004-0.014,0.008-0.027,0.011-0.04
						c0.002-0.011,0.002-0.021,0.004-0.032c0.002-0.013,0.004-0.025,0.005-0.038c0.001-0.011,0-0.021,0-0.032
						c0-0.012,0-0.024-0.001-0.036c-0.002-0.011-0.004-0.021-0.006-0.031C5.447,36.311,5.446,36.3,5.442,36.288z"/>
					<path class="st18" d="M3.136,36.939c-0.004-0.012-0.009-0.023-0.012-0.034c-0.036-0.134-0.002-0.287,0.105-0.438l0.078,0.291
						c0.037,0.142,0.169,0.259,0.385,0.317c0.429,0.116,1.031-0.045,1.343-0.359c0.155-0.156,0.21-0.32,0.173-0.46L5.129,35.96
						c0.184,0.085,0.293,0.214,0.32,0.363c0.002,0.01,0.005,0.021,0.006,0.031c0.001,0.012,0.001,0.024,0.001,0.036
						c0,0.011,0.001,0.021,0,0.032c-0.001,0.012-0.003,0.025-0.005,0.038c-0.001,0.011-0.002,0.021-0.004,0.032
						c-0.002,0.013-0.007,0.027-0.011,0.04c-0.003,0.01-0.005,0.02-0.009,0.031c-0.005,0.013-0.012,0.027-0.018,0.041
						c-0.004,0.011-0.008,0.021-0.013,0.031c-0.008,0.015-0.017,0.029-0.026,0.044c-0.006,0.01-0.011,0.019-0.017,0.029
						c-0.011,0.016-0.024,0.033-0.037,0.049c-0.006,0.008-0.011,0.015-0.017,0.023c-0.019,0.024-0.041,0.048-0.065,0.072
						c-0.381,0.382-1.115,0.579-1.639,0.438c-0.033-0.009-0.064-0.019-0.094-0.03c-0.01-0.003-0.019-0.008-0.029-0.012
						c-0.018-0.008-0.038-0.015-0.055-0.024c-0.01-0.005-0.02-0.011-0.03-0.017c-0.015-0.008-0.03-0.016-0.044-0.025
						c-0.01-0.006-0.019-0.013-0.028-0.02c-0.013-0.009-0.026-0.018-0.037-0.027c-0.009-0.007-0.016-0.015-0.024-0.023
						c-0.01-0.01-0.021-0.019-0.03-0.029c-0.007-0.008-0.013-0.017-0.02-0.026c-0.008-0.01-0.016-0.02-0.023-0.03
						c-0.006-0.009-0.011-0.019-0.016-0.028c-0.006-0.01-0.013-0.021-0.018-0.032C3.142,36.957,3.14,36.947,3.136,36.939z"/>
				</g>
				<path class="st19" d="M3.308,36.757L3.23,36.466l-0.466-1.75v0.001c-0.016-0.057-0.025-0.109-0.024-0.173
					c0.006-0.422,0.314-0.83,0.749-0.946c0.461-0.123,0.932,0.105,1.132,0.52c0.025,0.038,0.041,0.079,0.049,0.122
					c-0.002-0.009-0.003-0.018-0.005-0.027l0.02,0.076c0,0.001,0,0.001,0,0.002s0,0.001,0,0.002l0.444,1.666l0.079,0.296
					c0.037,0.14-0.018,0.304-0.173,0.46c-0.312,0.313-0.914,0.474-1.343,0.359C3.475,37.016,3.344,36.899,3.308,36.757z"/>
				<path class="st20" d="M3.979,33.912c-0.173,0.047-0.276,0.225-0.23,0.399c0.047,0.173,0.225,0.276,0.399,0.23
					c0.173-0.047,0.276-0.225,0.23-0.399C4.331,33.968,4.153,33.865,3.979,33.912z"/>
			</g>
		</g>
	</g>
	<g>
		<g>
			<g>
				<g>
					<polygon class="st21" points="22.69,36.33 22.698,37.644 34.478,44.46 34.47,43.146 					"/>
					<polygon class="st15" points="34.47,43.146 34.478,44.46 46.723,37.379 46.715,36.065 					"/>
				</g>
				<polygon class="st4" points="34.47,43.146 46.715,36.065 34.935,29.249 22.69,36.33 				"/>
			</g>
			<g>
				<g>
					<polygon class="st15" points="34.461,40.211 34.47,43.056 46.715,35.975 46.707,33.13 					"/>
				</g>
				<polygon class="st22" points="30.963,39.992 32.791,41.05 32.783,38.205 30.955,37.147 				"/>
				<polygon class="st22" points="27.622,37.975 25.794,36.918 25.786,34.073 27.614,35.13 				"/>
				<polygon class="st23" points="24.828,37.477 25.794,36.918 25.786,34.073 24.82,34.632 				"/>
				<polygon class="st23" points="30.963,39.992 30.069,40.509 30.061,37.664 30.955,37.147 				"/>
				<polygon class="st24" points="31.888,38.722 34.461,40.211 46.707,33.13 34.927,26.314 22.682,33.395 24.82,34.632 
					25.786,34.073 27.614,35.13 26.647,35.689 30.061,37.664 30.955,37.147 32.783,38.205 				"/>
				<polygon class="st21" points="31.888,38.722 31.896,41.567 34.47,43.056 34.461,40.211 				"/>
				<polygon class="st21" points="22.682,33.395 22.69,36.24 24.828,37.477 24.82,34.632 				"/>
				<polygon class="st21" points="26.647,35.689 26.655,38.534 30.069,40.509 30.061,37.664 				"/>
			</g>
			<polygon class="st20" points="34.511,38.504 44.578,32.683 34.894,27.08 24.828,32.901 			"/>
			<g>
				<polygon class="st25" points="28.112,34.416 28.957,33.966 26.236,32.426 25.391,32.877 				"/>
				<polygon class="st4" points="28.689,34.13 28.957,33.966 26.236,32.426 25.968,32.591 				"/>
				<g>
					<polygon class="st26" points="25.537,31.831 25.566,32.963 26.577,33.528 26.548,32.396 					"/>
					<polygon class="st27" points="26.548,32.396 26.577,33.528 27.122,33.238 27.093,32.105 					"/>
					<polygon class="st25" points="26.548,32.396 27.093,32.105 26.082,31.54 25.537,31.831 					"/>
				</g>
			</g>
		</g>
		<g>
			<g>
				<path class="st13" d="M35.65,27.848l1.348,2.01c0.011,0.015,0.032,0.024,0.06,0.022c0.057-0.004,0.124-0.048,0.149-0.1
					c0.013-0.026,0.013-0.048,0.002-0.064l-1.348-2.01l0,0c-0.011-0.016-0.031-0.025-0.06-0.023c-0.057,0.003-0.124,0.048-0.149,0.1
					c-0.014,0.027-0.013,0.051,0,0.067C35.652,27.849,35.651,27.848,35.65,27.848z"/>
				<path class="st13" d="M35.08,27.919l1.348,2.01c0.011,0.015,0.032,0.024,0.06,0.022c0.057-0.004,0.124-0.048,0.149-0.1
					c0.013-0.026,0.013-0.048,0.002-0.064l-1.348-2.01l0,0c-0.011-0.016-0.031-0.025-0.06-0.023c-0.057,0.003-0.124,0.048-0.149,0.1
					c-0.014,0.027-0.013,0.051,0,0.067C35.081,27.92,35.08,27.919,35.08,27.919z"/>
				<g>
					<polygon class="st13" points="35.027,27.467 35.297,27.873 35.321,27.824 35.051,27.418 					"/>
					<polygon class="st13" points="35.679,27.584 36.078,27.821 36.102,27.771 35.703,27.535 35.696,27.525 35.642,27.528 					"/>
					<polygon class="st14" points="35.444,27.234 35.443,27.234 35.321,27.479 35.297,27.528 					"/>
					<polygon class="st15" points="34.914,27.899 35.297,27.873 35.027,27.467 35.051,27.418 35.173,27.173 35.063,27.007 
						35.057,26.998 34.462,27.038 34.826,27.583 34.941,27.575 34.978,27.631 					"/>
					<polygon class="st13" points="35.063,27.007 35.173,27.173 35.197,27.124 35.087,26.958 35.081,26.949 34.486,26.989 
						34.462,27.038 35.057,26.998 					"/>
					<polygon class="st13" points="35.397,26.976 35.76,27.52 35.784,27.471 35.421,26.926 35.301,26.934 35.277,26.984 					"/>
					<polygon class="st15" points="35.323,27.567 35.463,27.558 35.657,27.849 36.078,27.821 35.679,27.584 35.642,27.528 
						35.696,27.525 35.76,27.52 35.397,26.976 35.277,26.984 35.443,27.234 35.444,27.234 35.297,27.528 					"/>
				</g>
			</g>
			<g class="st16">
				<path class="st28" d="M34.801,28.812l0.16,0.234c0.099,0.147,0.294,0.229,0.562,0.212c0.54-0.034,1.173-0.458,1.412-0.946
					c0.121-0.245,0.119-0.46,0.019-0.609l-0.16-0.234c0,0.001,0.001,0.002,0.001,0.002c0.006,0.01,0.011,0.021,0.017,0.031
					c0.005,0.01,0.011,0.018,0.015,0.028c0.005,0.011,0.009,0.023,0.013,0.035c0.004,0.01,0.008,0.02,0.011,0.03
					c0.003,0.013,0.005,0.025,0.007,0.038c0.002,0.01,0.005,0.021,0.006,0.032c0.002,0.013,0.001,0.027,0.002,0.041
					c0,0.011,0.001,0.021,0.001,0.033c0,0.014-0.003,0.03-0.004,0.045c-0.001,0.011-0.001,0.022-0.003,0.034
					c-0.002,0.016-0.006,0.032-0.01,0.049c-0.002,0.011-0.004,0.022-0.007,0.034c-0.005,0.018-0.012,0.038-0.019,0.057
					c-0.004,0.01-0.006,0.02-0.01,0.03c-0.011,0.029-0.024,0.059-0.039,0.09c-0.24,0.487-0.872,0.911-1.412,0.946
					c-0.033,0.002-0.066,0.003-0.097,0.002c-0.01,0-0.019-0.001-0.029-0.002c-0.02-0.001-0.041-0.002-0.061-0.005
					c-0.012-0.001-0.022-0.004-0.033-0.006c-0.017-0.003-0.034-0.006-0.05-0.01c-0.011-0.003-0.021-0.007-0.032-0.01
					c-0.014-0.005-0.029-0.009-0.043-0.014c-0.011-0.004-0.02-0.009-0.03-0.014c-0.013-0.006-0.026-0.011-0.038-0.018
					c-0.01-0.006-0.018-0.012-0.027-0.018c-0.011-0.007-0.022-0.013-0.032-0.021c-0.008-0.006-0.015-0.014-0.023-0.021
					c-0.009-0.009-0.019-0.016-0.027-0.025c-0.008-0.008-0.013-0.017-0.02-0.025C34.814,28.828,34.806,28.82,34.801,28.812z"/>
				<path class="st29" d="M36.809,27.495c-0.005-0.01-0.01-0.021-0.017-0.031c-0.077-0.116-0.214-0.191-0.399-0.21l0.168,0.251
					c0.083,0.122,0.084,0.299-0.015,0.5c-0.196,0.4-0.714,0.748-1.157,0.776c-0.22,0.015-0.38-0.053-0.461-0.173l-0.171-0.255
					c-0.058,0.195-0.033,0.362,0.062,0.481c0.007,0.009,0.013,0.017,0.02,0.025c0.008,0.009,0.018,0.017,0.027,0.025
					c0.007,0.007,0.015,0.014,0.023,0.021c0.01,0.007,0.021,0.014,0.032,0.021c0.009,0.006,0.018,0.013,0.027,0.018
					c0.012,0.007,0.025,0.012,0.038,0.018c0.01,0.005,0.02,0.01,0.03,0.014c0.013,0.006,0.028,0.01,0.043,0.014
					c0.011,0.003,0.021,0.007,0.032,0.01c0.016,0.004,0.033,0.007,0.05,0.01c0.011,0.002,0.022,0.005,0.033,0.006
					c0.019,0.003,0.04,0.004,0.061,0.005c0.01,0,0.019,0.002,0.029,0.002c0.031,0.001,0.063,0,0.097-0.002
					c0.54-0.035,1.173-0.458,1.412-0.946c0.015-0.03,0.028-0.06,0.039-0.09c0.004-0.01,0.007-0.02,0.01-0.03
					c0.007-0.019,0.014-0.038,0.019-0.057c0.003-0.012,0.004-0.023,0.007-0.034c0.003-0.016,0.008-0.033,0.01-0.049
					c0.002-0.012,0.002-0.023,0.003-0.034c0.002-0.015,0.004-0.03,0.004-0.045c0.001-0.011-0.001-0.022-0.001-0.033
					c-0.001-0.014,0-0.028-0.002-0.041c-0.001-0.011-0.004-0.021-0.006-0.032c-0.002-0.013-0.004-0.026-0.007-0.038
					c-0.003-0.011-0.007-0.02-0.011-0.03c-0.005-0.012-0.008-0.024-0.013-0.035C36.821,27.517,36.815,27.508,36.809,27.495z"/>
			</g>
			<path class="st30" d="M36.56,27.512l-0.168-0.251l-1.012-1.506c0.001,0,0.001,0.001,0.001,0.001
				c-0.032-0.049-0.065-0.09-0.114-0.132c-0.322-0.274-0.832-0.311-1.207-0.06c-0.397,0.266-0.536,0.772-0.355,1.196
				c0.013,0.043,0.033,0.083,0.06,0.117c-0.005-0.008-0.012-0.014-0.017-0.022l0.044,0.065l0.001,0.001l0.001,0.001l0.964,1.434
				l0.171,0.255c0.082,0.12,0.241,0.187,0.461,0.173c0.442-0.029,0.961-0.376,1.157-0.776C36.646,27.807,36.645,27.631,36.56,27.512
				z"/>
			<path class="st20" d="M33.973,26.139c0.149-0.101,0.352-0.061,0.452,0.089c0.1,0.149,0.061,0.352-0.089,0.452
				c-0.149,0.101-0.352,0.061-0.452-0.089C33.783,26.441,33.823,26.239,33.973,26.139z"/>
		</g>
	</g>
	<path class="st31" d="M13.746,39.482c0.026,0.037,0.08,0.142,0.128,0.236c0.369,0.717,1.338,2.603,3.699,2.603
		c0.039,0,0.079-0.001,0.119-0.002c0.881-0.023,1.467-0.246,1.743-0.662c0.614-0.926-0.472-2.58-2.291-4.779
		c-1.485-1.795-0.622-2.555-0.322-2.745c0.49-0.311,1.222-0.321,1.599-0.022c1.186,0.942,4.55,1.154,4.688,1.163
		c0.132,0.027,0.244-0.076,0.25-0.229c0.005-0.153-0.097-0.299-0.23-0.326c-0.024-0.005-0.047-0.004-0.069-0.001
		c-0.002,0-0.004-0.001-0.006-0.001c-0.867-0.054-3.297-0.341-4.127-1c-0.633-0.503-1.778-0.511-2.553-0.02
		c-0.417,0.264-1.639,1.299,0.172,3.487c0.767,0.927,2.804,3.389,2.257,4.215c-0.148,0.224-0.529,0.345-1.134,0.361
		c-1.954,0.053-2.779-1.562-3.133-2.251c-0.117-0.226-0.17-0.329-0.262-0.402c-0.139-0.109-0.365-0.109-0.504,0
		C13.639,39.21,13.631,39.373,13.746,39.482z"/>
	<path class="st4" d="M13.783,38.362c0.066,0.122,0.246,0.179,0.401,0.127c0.151-0.051,0.642-0.321,1.567-0.927
		c0.655-0.429,1.69-0.052,2.888,0.385c0.676,0.246,1.375,0.501,2.102,0.649c0.155,0.031,0.306,0.046,0.452,0.046
		c1.808,0,2.983-2.233,3.261-2.823c0.002-0.002,0.004-0.003,0.005-0.004c0.129-0.123,0.128-0.302-0.003-0.4
		c-0.1-0.074-0.244-0.08-0.365-0.026c-0.054,0.021-0.099,0.055-0.13,0.098c-0.037,0.043-0.06,0.091-0.068,0.14
		c-0.403,0.88-1.597,2.788-3,2.504c-0.674-0.137-1.347-0.382-1.998-0.62c-1.328-0.485-2.583-0.943-3.536-0.318
		c-1.095,0.718-1.399,0.847-1.423,0.857C13.787,38.104,13.719,38.242,13.783,38.362z"/>
	<g>
		<g>
			<path class="st13" d="M43.757,41.112l-2.053,1.281c-0.015,0.01-0.025,0.031-0.024,0.059c0.002,0.058,0.044,0.126,0.095,0.153
				c0.025,0.014,0.048,0.014,0.064,0.004l2.053-1.281l0,0c0.016-0.01,0.026-0.031,0.025-0.059c-0.002-0.058-0.044-0.126-0.095-0.153
				c-0.027-0.015-0.051-0.014-0.067-0.002C43.756,41.113,43.757,41.112,43.757,41.112z"/>
			<path class="st13" d="M43.705,40.539l-2.053,1.281c-0.016,0.01-0.025,0.031-0.024,0.059c0.002,0.058,0.044,0.126,0.095,0.153
				c0.025,0.013,0.048,0.014,0.064,0.004l2.053-1.281l0,0c0.016-0.01,0.026-0.03,0.025-0.059c-0.002-0.058-0.044-0.126-0.095-0.153
				c-0.027-0.014-0.051-0.014-0.067-0.002C43.704,40.54,43.705,40.54,43.705,40.539z"/>
			<g>
				<polygon class="st13" points="44.158,40.501 43.743,40.758 43.792,40.784 44.206,40.527 				"/>
				<polygon class="st13" points="44.02,41.149 43.77,41.54 43.819,41.566 44.068,41.175 44.079,41.168 44.077,41.114 				"/>
				<polygon class="st14" points="44.377,40.925 44.378,40.925 44.137,40.795 44.089,40.769 				"/>
				<polygon class="st15" points="43.73,40.375 43.743,40.758 44.158,40.501 44.206,40.527 44.447,40.657 44.616,40.552 
					44.626,40.546 44.605,39.951 44.049,40.296 44.053,40.411 43.996,40.447 				"/>
				<polygon class="st13" points="44.616,40.552 44.447,40.657 44.495,40.683 44.665,40.578 44.674,40.572 44.654,39.977 
					44.605,39.951 44.626,40.546 				"/>
				<polygon class="st13" points="44.637,40.888 44.081,41.233 44.129,41.258 44.686,40.913 44.682,40.792 44.633,40.767 				"/>
				<polygon class="st15" points="44.048,40.794 44.053,40.934 43.756,41.118 43.77,41.54 44.02,41.149 44.077,41.114 
					44.079,41.168 44.081,41.233 44.637,40.888 44.633,40.767 44.378,40.925 44.377,40.925 44.089,40.769 				"/>
			</g>
		</g>
		<g class="st16">
			<path class="st32" d="M42.823,40.23l-0.236,0.151c-0.15,0.094-0.238,0.287-0.23,0.555c0.017,0.541,0.42,1.187,0.899,1.442
				c0.241,0.129,0.456,0.134,0.608,0.039l0.239-0.152c-0.001,0-0.001,0.001-0.002,0.001c-0.01,0.006-0.021,0.011-0.032,0.016
				c-0.009,0.005-0.018,0.01-0.028,0.014c-0.011,0.004-0.023,0.007-0.035,0.011c-0.01,0.004-0.02,0.008-0.03,0.01
				c-0.012,0.003-0.025,0.004-0.038,0.006c-0.011,0.002-0.022,0.004-0.033,0.005c-0.013,0.002-0.027,0.001-0.041,0.001
				c-0.011,0-0.022,0.001-0.033,0c-0.015,0-0.03-0.003-0.045-0.005c-0.011-0.001-0.022-0.002-0.034-0.004
				c-0.016-0.003-0.033-0.008-0.049-0.012c-0.011-0.003-0.022-0.005-0.034-0.008c-0.019-0.006-0.038-0.014-0.057-0.021
				c-0.009-0.004-0.019-0.007-0.029-0.011c-0.029-0.012-0.059-0.026-0.089-0.042c-0.479-0.255-0.882-0.901-0.899-1.442
				c-0.001-0.033-0.001-0.066,0.001-0.097c0-0.01,0.002-0.019,0.003-0.029c0.002-0.021,0.004-0.041,0.007-0.061
				c0.002-0.011,0.005-0.021,0.007-0.032c0.003-0.017,0.006-0.034,0.011-0.05c0.003-0.011,0.007-0.02,0.011-0.031
				c0.005-0.015,0.009-0.029,0.015-0.043c0.005-0.01,0.01-0.019,0.015-0.029c0.006-0.013,0.012-0.025,0.019-0.037
				c0.005-0.009,0.012-0.017,0.018-0.026c0.007-0.01,0.014-0.021,0.022-0.031c0.007-0.008,0.015-0.015,0.022-0.023
				c0.008-0.009,0.016-0.018,0.025-0.026c0.008-0.007,0.017-0.013,0.025-0.019C42.805,40.243,42.814,40.236,42.823,40.23z"/>
			<path class="st33" d="M44.066,42.284c0.011-0.005,0.022-0.01,0.032-0.016c0.118-0.074,0.198-0.208,0.223-0.392l-0.256,0.16
				c-0.125,0.078-0.301,0.073-0.499-0.032c-0.393-0.209-0.723-0.739-0.737-1.182c-0.007-0.22,0.065-0.378,0.188-0.455l0.26-0.163
				c-0.192-0.064-0.36-0.044-0.482,0.047c-0.008,0.006-0.017,0.012-0.025,0.019c-0.009,0.008-0.017,0.017-0.025,0.026
				c-0.007,0.008-0.015,0.015-0.022,0.023c-0.008,0.009-0.015,0.02-0.022,0.031c-0.006,0.009-0.012,0.017-0.018,0.026
				c-0.007,0.012-0.013,0.025-0.019,0.037c-0.005,0.01-0.011,0.019-0.015,0.029c-0.006,0.014-0.01,0.029-0.015,0.043
				c-0.004,0.01-0.008,0.02-0.011,0.031c-0.004,0.016-0.007,0.033-0.011,0.05c-0.002,0.01-0.005,0.021-0.007,0.032
				c-0.003,0.019-0.005,0.04-0.007,0.061c-0.001,0.01-0.002,0.019-0.003,0.029c-0.002,0.031-0.002,0.063-0.001,0.097
				c0.017,0.541,0.42,1.187,0.899,1.442c0.03,0.016,0.06,0.03,0.089,0.042c0.01,0.005,0.019,0.007,0.029,0.011
				c0.019,0.008,0.038,0.015,0.057,0.021c0.012,0.003,0.023,0.005,0.034,0.008c0.016,0.004,0.033,0.009,0.049,0.012
				c0.012,0.002,0.023,0.003,0.034,0.004c0.015,0.002,0.03,0.004,0.045,0.005c0.011,0.001,0.022,0,0.033,0
				c0.014,0,0.028,0,0.041-0.001c0.012-0.001,0.022-0.003,0.033-0.005c0.013-0.002,0.026-0.003,0.038-0.006
				c0.01-0.003,0.02-0.007,0.03-0.01c0.012-0.003,0.024-0.006,0.035-0.011C44.049,42.293,44.058,42.287,44.066,42.284z"/>
		</g>
		<path class="st34" d="M44.065,42.032l0.256-0.16l1.538-0.962c0,0.001-0.001,0.001-0.001,0.001c0.05-0.031,0.092-0.062,0.135-0.11
			c0.284-0.312,0.338-0.821,0.099-1.204c-0.253-0.405-0.754-0.561-1.184-0.394c-0.044,0.011-0.084,0.03-0.119,0.056
			c0.007-0.005,0.014-0.011,0.022-0.016l-0.066,0.042c0,0.001-0.001,0.001-0.001,0.001l-0.001,0.001l-1.465,0.916l-0.26,0.163
			c-0.122,0.077-0.195,0.235-0.188,0.455c0.014,0.443,0.344,0.973,0.737,1.182C43.765,42.108,43.942,42.113,44.065,42.032z"/>
		<path class="st20" d="M45.52,39.491c0.095,0.153,0.049,0.354-0.104,0.449s-0.354,0.049-0.449-0.104
			c-0.095-0.153-0.049-0.354,0.104-0.449S45.425,39.339,45.52,39.491z"/>
	</g>
</g>
</svg>
