<?xml version="1.0" encoding="utf-8"?>
<!-- Generator: Adobe Illustrator 25.4.1, SVG Export Plug-In . SVG Version: 6.00 Build 0)  -->
<svg version="1.1" id="Layer_1" xmlns="http://www.w3.org/2000/svg" xmlns:xlink="http://www.w3.org/1999/xlink" x="0px" y="0px"
	 viewBox="0 0 50 50" style="enable-background:new 0 0 50 50;" xml:space="preserve">
<style type="text/css">
	.st0{opacity:0.14;fill:#C0C1C1;}
	.st1{opacity:0.42;fill:#C0C1C1;}
	.st2{fill:#FAA224;}
	.st3{opacity:0.12;}
	.st4{fill:#231F20;}
	.st5{opacity:0.37;fill:#FFFFFF;}
	.st6{fill:#CA549F;}
	.st7{fill:#3CB54A;}
	.st8{fill:#3950A3;}
	.st9{fill:#A6DEF0;}
	.st10{fill:#FFF200;}
	.st11{fill:#D04027;}
	.st12{fill:#E0DF14;}
	.st13{fill:#676767;}
	.st14{fill:#636363;}
	.st15{fill:#A0A0A0;}
	.st16{opacity:0.9;}
	.st17{fill:#004B95;}
	.st18{fill:#0060AD;}
	.st19{opacity:0.8;fill:#1377D9;}
	.st20{fill:#FFFFFF;}
	.st21{fill:#CCCCCC;}
	.st22{fill:#919394;}
	.st23{fill:#555657;}
	.st24{fill:#E0E0E0;}
	.st25{fill:#596177;}
	.st26{fill:#292C36;}
	.st27{fill:#373C48;}
	.st28{fill:#772020;}
	.st29{fill:#CE2020;}
	.st30{opacity:0.8;fill:#F74141;}
	.st31{fill:#EF4025;}
	.st32{fill:#D48300;}
	.st33{fill:#FFB100;}
	.st34{opacity:0.8;fill:#FFB100;}
</style>
<g>
	<path class="st0" d="M45.419,40.512L45.419,40.512c0.001-0.008,0.003-0.016,0.003-0.024c0.109-1.195-1.452-2.346-3.65-2.816
		c-0.246-0.374-0.692-0.716-1.275-0.986c0.03-0.039,0.056-0.08,0.08-0.121c0.019,0.001,0.037,0.003,0.056,0.004
		c0.02,0.001,0.04,0.002,0.06,0.003c0.037,0.002,0.074,0.004,0.111,0.006c0.024,0.001,0.049,0.001,0.073,0.002
		c0.032,0.001,0.064,0.002,0.096,0.003c0.027,0,0.053,0,0.08,0c0.029,0,0.058,0,0.087,0c0.029,0,0.058-0.001,0.087-0.002
		c0.026-0.001,0.051-0.001,0.077-0.002c0.03-0.001,0.06-0.003,0.09-0.004c0.024-0.001,0.048-0.002,0.071-0.004
		c0.032-0.002,0.063-0.005,0.094-0.007c0.021-0.002,0.043-0.003,0.065-0.005c0.033-0.003,0.066-0.007,0.098-0.01
		c0.019-0.002,0.038-0.004,0.057-0.006c0.034-0.004,0.068-0.009,0.102-0.013c0.016-0.002,0.033-0.004,0.049-0.007
		c0.035-0.005,0.07-0.011,0.105-0.017c0.014-0.002,0.029-0.004,0.043-0.007c0.037-0.006,0.073-0.014,0.109-0.021
		c0.012-0.002,0.024-0.004,0.035-0.007c0.038-0.008,0.074-0.016,0.111-0.025c0.01-0.002,0.019-0.004,0.029-0.006
		c0.038-0.009,0.075-0.019,0.112-0.029c0.008-0.002,0.016-0.004,0.023-0.006c0.039-0.01,0.076-0.022,0.114-0.033
		c0.006-0.002,0.012-0.003,0.018-0.005c0.039-0.012,0.077-0.024,0.114-0.037c0.004-0.001,0.008-0.003,0.012-0.004
		c0.039-0.013,0.077-0.027,0.114-0.042c0.002-0.001,0.005-0.002,0.007-0.003c0.039-0.015,0.076-0.03,0.113-0.046
		c0.001,0,0.002-0.001,0.003-0.001c0.038-0.016,0.075-0.033,0.111-0.051c0,0,0,0,0.001,0c0.514-0.248,0.842-0.598,0.879-1.009
		c0.078-0.856-1.129-1.678-2.767-1.939c-0.079-0.765-1.291-1.468-2.832-1.609c-0.69-0.063-1.335-0.002-1.856,0.149
		c-0.45-0.247-1.051-0.427-1.722-0.488c-0.749-0.068-1.439,0.025-1.947,0.229c-0.419-0.191-0.938-0.328-1.506-0.38
		c-1.079-0.098-2.037,0.138-2.5,0.561c-0.301-0.105-0.644-0.18-1.012-0.214c-0.537-0.049-1.039-0.001-1.444,0.118
		c-0.375-0.196-0.865-0.338-1.41-0.388c-1.246-0.114-2.303,0.3-2.36,0.924c0,0.003,0,0.005,0,0.008l0,0c0,0,0,0,0,0
		c-0.022,0.291,0.177,0.576,0.522,0.808c0,0,0.001,0.001,0.001,0.001c0.023,0.015,0.046,0.03,0.07,0.045
		c0.001,0.001,0.002,0.001,0.003,0.002c0.023,0.014,0.047,0.029,0.072,0.042c0.002,0.001,0.005,0.002,0.007,0.004
		c0.023,0.013,0.047,0.026,0.072,0.039c0.003,0.002,0.007,0.003,0.01,0.005c0.024,0.012,0.047,0.024,0.072,0.036
		c0.004,0.002,0.009,0.004,0.013,0.006c0.024,0.011,0.048,0.022,0.072,0.033c0.006,0.002,0.011,0.005,0.017,0.007
		c0.024,0.01,0.047,0.02,0.071,0.03c0.007,0.003,0.014,0.005,0.021,0.008c0.023,0.009,0.047,0.019,0.071,0.028
		c0.008,0.003,0.017,0.006,0.025,0.009c0.023,0.008,0.046,0.017,0.07,0.025c0.01,0.003,0.021,0.007,0.031,0.01
		c0.022,0.007,0.044,0.015,0.067,0.021c0.012,0.004,0.025,0.007,0.038,0.011c0.021,0.006,0.042,0.012,0.063,0.018
		c0.014,0.004,0.028,0.007,0.042,0.011c0.02,0.005,0.041,0.011,0.061,0.016c0.015,0.004,0.03,0.007,0.045,0.011
		c0.02,0.005,0.04,0.01,0.06,0.014c0.016,0.003,0.031,0.007,0.047,0.01c0.02,0.004,0.04,0.009,0.06,0.013
		c0.019,0.004,0.037,0.007,0.056,0.01c0.018,0.003,0.036,0.007,0.054,0.01c0.023,0.004,0.046,0.007,0.069,0.011
		c0.014,0.002,0.029,0.005,0.043,0.007c0.026,0.004,0.052,0.007,0.078,0.01c0.012,0.002,0.024,0.003,0.036,0.005
		c0.038,0.004,0.077,0.008,0.116,0.012c0.039,0.004,0.077,0.007,0.116,0.009c0.014,0.001,0.028,0.001,0.043,0.002
		c0.024,0.001,0.048,0.003,0.072,0.004c0.016,0.001,0.031,0.001,0.046,0.001c0.022,0.001,0.045,0.001,0.067,0.002
		c0.018,0,0.036,0,0.054,0c0.019,0,0.038,0,0.057,0c0.02,0,0.039-0.001,0.059-0.001c0.017,0,0.034-0.001,0.051-0.001
		c0.021-0.001,0.041-0.002,0.061-0.003c0.016-0.001,0.031-0.001,0.047-0.002c0.021-0.001,0.042-0.003,0.064-0.005
		c0.014-0.001,0.028-0.002,0.042-0.003c0.022-0.002,0.043-0.004,0.065-0.007c0.013-0.001,0.026-0.003,0.039-0.004
		c0.023-0.003,0.046-0.006,0.069-0.009c0.011-0.001,0.022-0.003,0.033-0.004c0.024-0.004,0.048-0.007,0.072-0.011
		c0.009-0.002,0.018-0.003,0.027-0.004c0.025-0.004,0.049-0.009,0.073-0.014c0.008-0.002,0.016-0.003,0.024-0.005
		c0.025-0.005,0.05-0.011,0.074-0.016c0.006-0.001,0.013-0.003,0.019-0.004c0.026-0.006,0.051-0.013,0.076-0.019
		c0.005-0.001,0.01-0.003,0.015-0.004c0.007-0.002,0.015-0.004,0.022-0.006c0.011,0.006,0.022,0.012,0.034,0.018
		c0.003,0.002,0.007,0.003,0.01,0.005c0.024,0.012,0.048,0.025,0.073,0.036c0.005,0.002,0.009,0.004,0.014,0.006
		c0.024,0.011,0.048,0.023,0.073,0.033c0.006,0.003,0.012,0.005,0.018,0.008c0.024,0.01,0.047,0.02,0.072,0.03
		c0.007,0.003,0.015,0.006,0.022,0.008c0.024,0.009,0.047,0.019,0.071,0.028c0.009,0.003,0.017,0.006,0.026,0.009
		c0.023,0.008,0.046,0.017,0.07,0.025c0.01,0.003,0.021,0.007,0.031,0.01c0.023,0.007,0.045,0.015,0.068,0.022
		c0.012,0.004,0.025,0.007,0.037,0.011c0.021,0.006,0.043,0.013,0.064,0.019c0.014,0.004,0.029,0.008,0.043,0.011
		c0.021,0.005,0.041,0.011,0.062,0.016c0.016,0.004,0.032,0.007,0.048,0.011c0.02,0.005,0.039,0.01,0.059,0.014
		c0.018,0.004,0.036,0.008,0.054,0.011c0.018,0.004,0.037,0.008,0.055,0.012c0.019,0.004,0.039,0.007,0.059,0.011
		c0.018,0.003,0.035,0.007,0.053,0.01c0.019,0.003,0.039,0.006,0.059,0.009c0.018,0.003,0.037,0.006,0.055,0.009
		c0.023,0.003,0.046,0.006,0.069,0.009c0.016,0.002,0.031,0.004,0.047,0.006c0.039,0.005,0.078,0.009,0.118,0.012
		c0.039,0.004,0.079,0.007,0.118,0.009c0.015,0.001,0.031,0.002,0.046,0.002c0.023,0.001,0.047,0.003,0.07,0.004
		c0.018,0.001,0.035,0.001,0.052,0.001c0.021,0.001,0.042,0.001,0.062,0.002c0.019,0,0.037,0,0.056,0c0.019,0,0.038,0,0.057,0
		c0.02,0,0.039-0.001,0.059-0.001c0.018,0,0.035-0.001,0.053-0.001c0.021-0.001,0.041-0.002,0.062-0.003
		c0.016-0.001,0.032-0.001,0.048-0.002c0.021-0.001,0.042-0.003,0.064-0.005c0.015-0.001,0.03-0.002,0.044-0.003
		c0.023-0.002,0.045-0.005,0.068-0.007c0.013-0.001,0.025-0.002,0.038-0.004c0.024-0.003,0.047-0.006,0.07-0.009
		c0.011-0.002,0.022-0.003,0.033-0.004c0.024-0.004,0.048-0.008,0.072-0.012c0.009-0.002,0.019-0.003,0.028-0.005
		c0.025-0.004,0.049-0.009,0.073-0.014c0.008-0.002,0.017-0.003,0.025-0.005c0.025-0.005,0.05-0.011,0.075-0.017
		c0.007-0.002,0.013-0.003,0.02-0.004c0.026-0.006,0.051-0.013,0.076-0.019c0.005-0.001,0.011-0.003,0.016-0.004
		c0.026-0.007,0.052-0.015,0.077-0.022c0.004-0.001,0.008-0.002,0.012-0.003c0.026-0.008,0.052-0.017,0.078-0.025
		c0.003-0.001,0.006-0.002,0.008-0.003c0.026-0.009,0.052-0.019,0.078-0.028c0.002-0.001,0.003-0.001,0.005-0.002
		c0.026-0.01,0.052-0.021,0.077-0.032c0.001,0,0.002-0.001,0.002-0.001c0.026-0.011,0.051-0.023,0.075-0.035c0,0,0,0,0,0
		c0.062-0.03,0.119-0.062,0.172-0.096c0.013,0.006,0.026,0.012,0.039,0.018c0.007,0.003,0.014,0.006,0.02,0.009
		c0.028,0.012,0.056,0.024,0.084,0.036c0.009,0.003,0.017,0.007,0.026,0.01c0.027,0.011,0.054,0.022,0.082,0.032
		c0.011,0.004,0.022,0.008,0.032,0.011c0.026,0.01,0.053,0.019,0.08,0.028c0.013,0.004,0.026,0.008,0.039,0.013
		c0.025,0.008,0.051,0.017,0.077,0.025c0.014,0.004,0.029,0.008,0.043,0.013c0.025,0.007,0.05,0.015,0.075,0.022
		c0.015,0.004,0.031,0.008,0.047,0.012c0.025,0.007,0.05,0.014,0.075,0.02c0.018,0.004,0.036,0.008,0.053,0.013
		c0.024,0.006,0.047,0.011,0.071,0.017c0.02,0.004,0.04,0.008,0.059,0.012c0.023,0.005,0.045,0.01,0.068,0.014
		c0.021,0.004,0.043,0.008,0.064,0.012c0.022,0.004,0.044,0.008,0.066,0.012c0.024,0.004,0.049,0.008,0.073,0.011
		c0.02,0.003,0.04,0.006,0.06,0.009c0.03,0.004,0.06,0.008,0.09,0.012c0.015,0.002,0.03,0.004,0.045,0.006
		c0.045,0.005,0.091,0.01,0.137,0.014c0.046,0.004,0.092,0.008,0.137,0.011c0.018,0.001,0.036,0.002,0.054,0.003
		c0.027,0.002,0.054,0.003,0.081,0.004c0.021,0.001,0.041,0.001,0.062,0.002c0.024,0.001,0.048,0.002,0.072,0.002
		c0.022,0,0.044,0,0.066,0c0.022,0,0.044,0,0.066,0c0.024,0,0.047-0.001,0.07-0.002c0.02,0,0.04-0.001,0.06-0.001
		c0.024-0.001,0.048-0.002,0.072-0.004c0.019-0.001,0.038-0.002,0.056-0.003c0.025-0.002,0.05-0.004,0.074-0.006
		c0.017-0.001,0.034-0.002,0.051-0.004c0.027-0.002,0.053-0.005,0.079-0.008c0.015-0.002,0.029-0.003,0.044-0.005
		c0.027-0.003,0.054-0.007,0.081-0.011c0.013-0.002,0.026-0.003,0.039-0.005c0.028-0.004,0.056-0.009,0.083-0.013
		c0.011-0.002,0.023-0.004,0.034-0.006c0.029-0.005,0.057-0.011,0.085-0.016c0.01-0.002,0.019-0.004,0.029-0.006
		c0.03-0.006,0.059-0.013,0.087-0.019c0.008-0.002,0.016-0.003,0.023-0.005c0.03-0.007,0.06-0.015,0.089-0.023
		c0.006-0.002,0.012-0.003,0.018-0.005c0.031-0.008,0.06-0.017,0.09-0.026c0.005-0.001,0.009-0.003,0.014-0.004
		c0.031-0.009,0.061-0.019,0.091-0.03c0.003-0.001,0.006-0.002,0.009-0.003c0.03-0.011,0.06-0.021,0.089-0.033
		c0.002-0.001,0.005-0.002,0.007-0.003c0.011-0.004,0.021-0.008,0.031-0.013c0.013,0.006,0.025,0.012,0.038,0.018
		c0.007,0.003,0.014,0.006,0.021,0.009c0.028,0.012,0.055,0.024,0.083,0.035c0.009,0.003,0.017,0.007,0.026,0.01
		c0.027,0.011,0.054,0.022,0.082,0.032c0.011,0.004,0.021,0.008,0.032,0.011c0.027,0.01,0.053,0.019,0.08,0.028
		c0.012,0.004,0.025,0.008,0.037,0.012c0.026,0.009,0.052,0.017,0.078,0.025c0.014,0.004,0.028,0.008,0.042,0.012
		c0.025,0.008,0.051,0.015,0.076,0.022c0.015,0.004,0.031,0.008,0.047,0.012c0.025,0.007,0.049,0.013,0.075,0.02
		c0.018,0.004,0.036,0.009,0.054,0.013c0.023,0.006,0.047,0.011,0.07,0.017c0.02,0.004,0.04,0.008,0.059,0.012
		c0.023,0.005,0.045,0.01,0.068,0.014c0.021,0.004,0.043,0.008,0.064,0.012c0.022,0.004,0.044,0.008,0.066,0.012
		c0.024,0.004,0.049,0.008,0.073,0.011c0.02,0.003,0.04,0.006,0.06,0.009c0.03,0.004,0.06,0.008,0.09,0.012
		c0.015,0.002,0.03,0.004,0.045,0.006c0.045,0.005,0.091,0.01,0.137,0.014c0.046,0.004,0.092,0.008,0.137,0.011
		c0.018,0.001,0.036,0.002,0.054,0.003c0.027,0.002,0.054,0.003,0.081,0.004c0.021,0.001,0.041,0.001,0.062,0.002
		c0.024,0.001,0.048,0.002,0.072,0.002c0.022,0,0.044,0,0.066,0c0.022,0,0.044,0,0.066,0c0.024,0,0.047-0.001,0.071-0.002
		c0.02,0,0.04-0.001,0.06-0.001c0.024-0.001,0.048-0.002,0.072-0.004c0.019-0.001,0.037-0.002,0.056-0.003
		c0.025-0.002,0.05-0.004,0.075-0.006c0.017-0.001,0.034-0.002,0.051-0.004c0.026-0.002,0.052-0.005,0.079-0.008
		c0.015-0.002,0.03-0.003,0.044-0.005c0.027-0.003,0.054-0.007,0.081-0.011c0.013-0.002,0.026-0.003,0.039-0.005
		c0.028-0.004,0.056-0.009,0.083-0.013c0.011-0.002,0.023-0.004,0.034-0.006c0.029-0.005,0.057-0.011,0.086-0.016
		c0.004-0.001,0.008-0.001,0.011-0.002c0.009,0.006,0.017,0.012,0.026,0.018c0,0,0.001,0,0.001,0.001
		c0.03,0.02,0.061,0.04,0.092,0.059c0.002,0.001,0.003,0.002,0.005,0.003c0.03,0.019,0.062,0.037,0.094,0.055
		c0.003,0.001,0.005,0.003,0.008,0.004c0.031,0.018,0.063,0.035,0.095,0.052c0.005,0.002,0.009,0.005,0.014,0.007
		c0.02,0.01,0.04,0.02,0.061,0.03c-1.403,0.099-2.462,0.658-2.531,1.425c0,0.004,0,0.008,0,0.012l0,0c0,0,0,0,0,0
		c-0.034,0.445,0.27,0.88,0.798,1.235c0.001,0,0.001,0.001,0.002,0.001c0.035,0.023,0.07,0.046,0.106,0.068
		c0.001,0.001,0.003,0.002,0.004,0.002c-0.289,0.239-0.466,0.522-0.495,0.836c0,0.005,0,0.009-0.001,0.014c0,0,0,0,0,0c0,0,0,0,0,0
		c-0.038,0.5,0.304,0.99,0.898,1.39c0.001,0.001,0.002,0.001,0.002,0.002c0.039,0.026,0.079,0.052,0.12,0.077
		c0.002,0.001,0.005,0.003,0.007,0.004c0.038,0.024,0.078,0.047,0.118,0.07c-0.033,0.097-0.056,0.197-0.065,0.3
		c-0.001,0.006,0,0.012-0.001,0.018l0,0c0,0,0,0,0,0c-0.05,0.653,0.396,1.292,1.172,1.813c0.001,0.001,0.002,0.001,0.002,0.002
		c0.051,0.034,0.103,0.068,0.157,0.101c0.003,0.002,0.005,0.003,0.008,0.005c0.052,0.032,0.105,0.063,0.16,0.094
		c0.005,0.003,0.01,0.005,0.014,0.008c0.053,0.03,0.106,0.059,0.161,0.088c0.007,0.004,0.015,0.007,0.022,0.011
		c0.053,0.027,0.107,0.054,0.162,0.081c0.01,0.005,0.02,0.009,0.029,0.013c0.053,0.025,0.107,0.05,0.162,0.075
		c0.013,0.006,0.026,0.011,0.039,0.017c0.053,0.023,0.105,0.045,0.159,0.067c0.016,0.006,0.032,0.013,0.049,0.019
		c0.052,0.021,0.104,0.041,0.157,0.061c0.019,0.007,0.039,0.014,0.059,0.021c0.051,0.018,0.101,0.037,0.153,0.054
		c0.023,0.008,0.047,0.015,0.07,0.023c0.049,0.016,0.099,0.033,0.149,0.048c0.026,0.008,0.054,0.016,0.08,0.024
		c0.048,0.014,0.096,0.029,0.145,0.042c0.029,0.008,0.06,0.016,0.089,0.024c0.047,0.013,0.094,0.025,0.141,0.037
		c0.034,0.009,0.069,0.016,0.103,0.024c0.044,0.011,0.088,0.021,0.133,0.031c0.037,0.008,0.075,0.016,0.113,0.024
		c0.043,0.009,0.086,0.018,0.129,0.027c0.041,0.008,0.084,0.015,0.126,0.023c0.04,0.007,0.08,0.015,0.121,0.022
		c0.048,0.008,0.097,0.015,0.146,0.023c0.035,0.005,0.07,0.011,0.106,0.016c0.056,0.008,0.113,0.015,0.169,0.022
		c0.029,0.004,0.057,0.008,0.086,0.011c0.086,0.01,0.172,0.019,0.26,0.027c0.087,0.008,0.174,0.015,0.26,0.02
		c0.03,0.002,0.059,0.003,0.088,0.005c0.056,0.003,0.113,0.007,0.169,0.009c0.037,0.001,0.074,0.002,0.111,0.003
		c0.048,0.001,0.096,0.003,0.143,0.004c0.041,0.001,0.082,0,0.122,0c0.043,0,0.086,0.001,0.128,0c0.043,0,0.086-0.002,0.128-0.003
		c0.039-0.001,0.079-0.001,0.118-0.003c0.045-0.002,0.09-0.004,0.134-0.007c0.036-0.002,0.072-0.003,0.108-0.005
		c0.048-0.003,0.096-0.007,0.143-0.011c0.031-0.002,0.063-0.004,0.094-0.007c0.05-0.005,0.099-0.01,0.149-0.015
		c0.028-0.003,0.056-0.006,0.084-0.009c0.052-0.006,0.103-0.013,0.154-0.02c0.025-0.003,0.05-0.006,0.074-0.01
		c0.054-0.008,0.106-0.017,0.159-0.025c0.021-0.004,0.043-0.007,0.064-0.01c0.055-0.01,0.109-0.02,0.163-0.031
		c0.018-0.004,0.036-0.007,0.054-0.01c0.056-0.012,0.111-0.024,0.166-0.037c0.015-0.003,0.03-0.006,0.044-0.01
		c0.057-0.014,0.114-0.028,0.17-0.043c0.011-0.003,0.023-0.006,0.034-0.009c0.058-0.016,0.115-0.032,0.171-0.049
		c0.009-0.003,0.017-0.005,0.026-0.008c0.058-0.018,0.115-0.037,0.171-0.056c0.006-0.002,0.013-0.004,0.019-0.006
		c0.058-0.02,0.115-0.041,0.171-0.063c0.004-0.001,0.008-0.003,0.011-0.004c0.058-0.022,0.114-0.046,0.17-0.07
		c0.002-0.001,0.004-0.001,0.005-0.002C44.792,41.708,45.347,41.162,45.419,40.512C45.419,40.512,45.419,40.512,45.419,40.512z"/>
	<polygon class="st1" points="27.436,38.265 14.434,30.746 1.925,37.983 14.928,45.503 	"/>
	<g>
		<g>
			<ellipse class="st2" cx="24.64" cy="28.058" rx="2.491" ry="2.384"/>
			<g class="st3">
				<path class="st4" d="M24.642,29.671c1.122,0,2.084-0.657,2.489-1.59c-0.013,1.306-1.122,2.362-2.49,2.362
					c-1.37,0-2.481-1.059-2.49-2.368C22.554,29.012,23.517,29.671,24.642,29.671z"/>
			</g>
			
				<ellipse transform="matrix(0.9705 -0.2412 0.2412 0.9705 -5.6022 6.5428)" class="st5" cx="23.92" cy="26.151" rx="0.445" ry="0.208"/>
		</g>
		<g>
			<ellipse class="st6" cx="27.79" cy="28.116" rx="2.529" ry="2.421"/>
			<g class="st3">
				<path class="st4" d="M27.792,29.754c1.139,0,2.116-0.667,2.528-1.615c-0.013,1.327-1.14,2.398-2.529,2.398
					c-1.391,0-2.519-1.075-2.529-2.404C25.672,29.084,26.65,29.754,27.792,29.754z"/>
			</g>
			
				<ellipse transform="matrix(0.9705 -0.2412 0.2412 0.9705 -5.5161 7.3008)" class="st5" cx="27.059" cy="26.179" rx="0.452" ry="0.212"/>
		</g>
		<g>
			<ellipse class="st7" cx="31.6" cy="27.12" rx="2.947" ry="2.821"/>
			<g class="st3">
				<path class="st4" d="M31.602,29.028c1.328,0,2.465-0.777,2.945-1.882c-0.015,1.546-1.328,2.795-2.946,2.795
					c-1.621,0-2.935-1.253-2.947-2.802C29.132,28.248,30.271,29.028,31.602,29.028z"/>
			</g>
			
				<ellipse transform="matrix(0.9705 -0.2412 0.2412 0.9705 -5.0898 8.1519)" class="st5" cx="30.748" cy="24.863" rx="0.526" ry="0.246"/>
		</g>
		<g>
			<ellipse class="st8" cx="35.395" cy="26.778" rx="2.947" ry="2.821"/>
			<g class="st3">
				<path class="st4" d="M35.396,28.686c1.328,0,2.465-0.777,2.945-1.882c-0.015,1.546-1.328,2.795-2.946,2.795
					c-1.621,0-2.935-1.253-2.947-2.802C32.926,27.906,34.066,28.686,35.396,28.686z"/>
			</g>
			
				<ellipse transform="matrix(0.9705 -0.2412 0.2412 0.9705 -4.8952 9.0571)" class="st5" cx="34.542" cy="24.521" rx="0.526" ry="0.246"/>
		</g>
		<g>
			<ellipse class="st9" cx="39.346" cy="27.12" rx="3.276" ry="3.136"/>
			<g class="st3">
				<path class="st4" d="M39.347,29.242c1.476,0,2.741-0.864,3.274-2.092c-0.017,1.718-1.476,3.107-3.275,3.107
					c-1.802,0-3.263-1.392-3.276-3.114C36.601,28.374,37.868,29.242,39.347,29.242z"/>
			</g>
			
				<ellipse transform="matrix(0.9705 -0.2412 0.2412 0.9705 -4.8031 9.99)" class="st5" cx="38.398" cy="24.611" rx="0.585" ry="0.274"/>
		</g>
		<g>
			<ellipse class="st6" cx="42.106" cy="30.341" rx="3.722" ry="3.563"/>
			<g class="st3">
				<path class="st4" d="M42.108,32.751c1.677,0,3.114-0.981,3.719-2.377c-0.019,1.952-1.677,3.529-3.721,3.529
					c-2.047,0-3.707-1.582-3.721-3.538C38.989,31.766,40.428,32.751,42.108,32.751z"/>
			</g>
			
				<ellipse transform="matrix(0.9705 -0.2412 0.2412 0.9705 -5.42 10.7099)" class="st5" cx="41.03" cy="27.491" rx="0.665" ry="0.311"/>
		</g>
		<g>
			<ellipse class="st10" cx="38.53" cy="33.074" rx="3.805" ry="3.643"/>
			<g class="st3">
				<path class="st4" d="M38.532,35.538c1.714,0,3.183-1.003,3.803-2.43c-0.019,1.996-1.715,3.608-3.804,3.608
					c-2.093,0-3.79-1.617-3.805-3.617C35.343,34.531,36.814,35.538,38.532,35.538z"/>
			</g>
			
				<ellipse transform="matrix(0.9705 -0.2412 0.2412 0.9705 -6.1703 9.9202)" class="st5" cx="37.43" cy="30.16" rx="0.68" ry="0.318"/>
		</g>
		<g>
			<ellipse class="st2" cx="39.677" cy="37.506" rx="4.282" ry="4.099"/>
			<g class="st3">
				<path class="st4" d="M39.678,40.279c1.929,0,3.582-1.129,4.279-2.734c-0.022,2.246-1.93,4.06-4.281,4.06
					c-2.355,0-4.265-1.82-4.281-4.07C36.09,39.146,37.746,40.279,39.678,40.279z"/>
			</g>
			
				<ellipse transform="matrix(0.9705 -0.2412 0.2412 0.9705 -7.1217 10.2836)" class="st5" cx="38.438" cy="34.228" rx="0.765" ry="0.358"/>
		</g>
		<g>
			<ellipse class="st11" cx="42.345" cy="41.185" rx="5.585" ry="5.346"/>
			<g class="st3">
				<path class="st4" d="M42.348,44.802c2.516,0,4.672-1.473,5.581-3.566c-0.029,2.929-2.517,5.296-5.583,5.296
					c-3.071,0-5.562-2.373-5.584-5.309C37.667,43.324,39.827,44.802,42.348,44.802z"/>
			</g>
			
				<ellipse transform="matrix(0.9705 -0.2412 0.2412 0.9705 -7.7009 10.9158)" class="st5" cx="40.73" cy="36.909" rx="0.997" ry="0.467"/>
			<g>
				<path class="st12" d="M42.482,42.787c-1.923,0.163-3.433-0.414-3.511-1.341c-0.015-0.176,0.116-0.331,0.292-0.346
					c0.176-0.015,0.331,0.116,0.346,0.292c0.034,0.403,1.15,0.898,2.82,0.757c0.774-0.065,1.486-0.253,2.005-0.529
					c0.417-0.222,0.665-0.486,0.648-0.691c-0.015-0.176,0.116-0.331,0.292-0.346c0.176-0.015,0.331,0.116,0.346,0.292
					C45.797,41.803,44.405,42.624,42.482,42.787z"/>
			</g>
			<g>
				<g>
					<path class="st13" d="M38.29,36.791c-0.007-0.019-0.027-0.032-0.057-0.035c-0.057-0.005-0.13,0.028-0.163,0.075
						c-0.016,0.023-0.02,0.045-0.012,0.062l0,0l1.007,2.196c0.008,0.017,0.027,0.029,0.056,0.032
						c0.057,0.005,0.13-0.028,0.163-0.075c0.016-0.023,0.02-0.045,0.012-0.062l-1.007-2.196C38.289,36.789,38.29,36.79,38.29,36.791
						z"/>
					<path class="st13" d="M38.648,36.343c-0.007-0.019-0.026-0.032-0.057-0.035c-0.057-0.005-0.13,0.028-0.163,0.075
						c-0.016,0.023-0.02,0.045-0.012,0.062l0,0l1.007,2.196c0.008,0.017,0.027,0.029,0.056,0.032
						c0.057,0.005,0.13-0.028,0.163-0.075c0.016-0.023,0.02-0.045,0.012-0.062l-1.007-2.196
						C38.648,36.341,38.648,36.342,38.648,36.343z"/>
					<g>
						<polygon class="st13" points="38.237,36.054 38.441,36.496 38.495,36.501 38.291,36.059 						"/>
						<polygon class="st13" points="38.022,36.614 37.991,36.659 37.996,36.67 37.988,37.133 38.043,37.138 38.05,36.675 						"/>
						<polygon class="st14" points="38.202,36.321 38.147,36.316 37.875,36.292 37.875,36.292 						"/>
						<polygon class="st15" points="38.456,36.103 38.428,36.042 38.495,35.948 38.221,35.355 37.877,35.84 37.881,35.85 
							37.965,36.03 38.237,36.054 38.291,36.059 38.495,36.501 38.717,36.189 						"/>
						<polygon class="st13" points="37.877,35.84 38.221,35.355 38.166,35.35 37.822,35.834 37.827,35.844 37.91,36.025 
							37.965,36.03 37.881,35.85 						"/>
						<polygon class="st13" points="37.749,36.019 37.695,36.014 37.625,36.113 37.899,36.706 37.953,36.711 37.679,36.118 						
							"/>
						<polygon class="st15" points="38.202,36.321 37.875,36.292 37.875,36.292 37.749,36.019 37.679,36.118 37.953,36.711 
							37.991,36.659 38.022,36.614 38.05,36.675 38.043,37.138 38.287,36.795 38.141,36.478 38.221,36.364 						"/>
					</g>
				</g>
				<g class="st16">
					<path class="st17" d="M39.564,36.599c0.004,0.01,0.008,0.019,0.011,0.03c0.003,0.012,0.005,0.024,0.007,0.036
						c0.002,0.01,0.005,0.02,0.006,0.031c0.001,0.012,0.001,0.026,0.001,0.038c0,0.011,0.001,0.021,0.001,0.032
						c-0.001,0.013-0.003,0.027-0.005,0.041c-0.001,0.011-0.002,0.021-0.004,0.032c-0.003,0.014-0.007,0.029-0.011,0.044
						c-0.003,0.011-0.005,0.021-0.008,0.032c-0.005,0.016-0.012,0.032-0.018,0.048c-0.004,0.01-0.007,0.021-0.012,0.031
						c-0.008,0.018-0.018,0.036-0.028,0.055c-0.005,0.009-0.008,0.017-0.013,0.026c-0.016,0.027-0.033,0.054-0.052,0.082
						c-0.311,0.441-1.002,0.758-1.542,0.707c-0.034-0.003-0.066-0.008-0.097-0.014c-0.011-0.002-0.02-0.005-0.03-0.007
						c-0.02-0.004-0.04-0.009-0.058-0.014c-0.012-0.003-0.022-0.008-0.033-0.012c-0.016-0.005-0.032-0.011-0.047-0.017
						c-0.011-0.005-0.02-0.01-0.031-0.015c-0.014-0.007-0.028-0.013-0.041-0.02c-0.01-0.006-0.018-0.013-0.028-0.019
						c-0.011-0.008-0.024-0.015-0.034-0.023c-0.009-0.007-0.016-0.015-0.024-0.022c-0.01-0.009-0.02-0.017-0.028-0.026
						c-0.007-0.008-0.013-0.016-0.02-0.025c-0.008-0.01-0.016-0.019-0.023-0.029c-0.006-0.009-0.01-0.018-0.016-0.027
						c-0.006-0.01-0.012-0.02-0.017-0.031c0-0.001-0.001-0.001-0.001-0.002l0.116,0.258c0.074,0.163,0.256,0.277,0.528,0.302
						c0.54,0.051,1.231-0.266,1.542-0.707c0.155-0.219,0.187-0.428,0.113-0.589l-0.116-0.258
						C39.557,36.577,39.56,36.588,39.564,36.599z"/>
					<path class="st18" d="M37.403,37.62c0.007,0.01,0.015,0.019,0.023,0.029c0.007,0.008,0.013,0.017,0.02,0.025
						c0.009,0.009,0.019,0.017,0.028,0.026c0.008,0.007,0.015,0.015,0.024,0.022c0.011,0.008,0.023,0.016,0.034,0.023
						c0.009,0.006,0.018,0.013,0.028,0.019c0.013,0.007,0.027,0.014,0.041,0.02c0.01,0.005,0.02,0.011,0.031,0.015
						c0.015,0.006,0.031,0.011,0.047,0.017c0.011,0.004,0.021,0.008,0.033,0.012c0.019,0.006,0.039,0.01,0.058,0.014
						c0.01,0.002,0.02,0.005,0.03,0.007c0.031,0.006,0.064,0.01,0.097,0.014c0.54,0.051,1.231-0.266,1.542-0.707
						c0.019-0.027,0.037-0.055,0.052-0.082c0.005-0.009,0.009-0.017,0.013-0.026c0.01-0.018,0.02-0.037,0.028-0.055
						c0.005-0.01,0.008-0.021,0.012-0.031c0.006-0.016,0.013-0.032,0.018-0.048c0.003-0.011,0.005-0.022,0.008-0.032
						c0.004-0.015,0.008-0.03,0.011-0.044c0.002-0.011,0.002-0.022,0.004-0.032c0.002-0.014,0.004-0.028,0.005-0.041
						c0-0.011-0.001-0.021-0.001-0.032c0-0.013,0-0.026-0.001-0.038c-0.001-0.011-0.004-0.021-0.006-0.031
						c-0.002-0.012-0.004-0.024-0.007-0.036c-0.003-0.01-0.007-0.02-0.011-0.03c-0.051-0.143-0.181-0.251-0.376-0.304l0.127,0.278
						c0.06,0.132,0.034,0.303-0.093,0.482c-0.255,0.362-0.822,0.621-1.264,0.58c-0.223-0.021-0.372-0.114-0.433-0.248L37.4,37.113
						c-0.08,0.167-0.088,0.323-0.03,0.449c0.005,0.011,0.011,0.021,0.017,0.031C37.392,37.602,37.397,37.612,37.403,37.62z"/>
				</g>
				<path class="st19" d="M37.958,37.635c0.443,0.042,1.009-0.218,1.264-0.58c0.127-0.18,0.153-0.351,0.093-0.482l-0.127-0.278
					l-0.717-1.568c0,0,0-0.001-0.001-0.001c0,0-0.001-0.001-0.001-0.001l-0.033-0.071c0.004,0.008,0.006,0.017,0.009,0.026
					c-0.015-0.041-0.038-0.079-0.068-0.112c-0.266-0.375-0.77-0.521-1.203-0.322c-0.409,0.188-0.644,0.641-0.579,1.058
					c0.01,0.064,0.028,0.113,0.052,0.166c0,0,0-0.001-0.001-0.001l0.753,1.647l0.125,0.274
					C37.586,37.521,37.735,37.614,37.958,37.635z"/>
				<path class="st20" d="M38.142,34.629c0.075,0.163,0.003,0.357-0.16,0.432c-0.163,0.075-0.357,0.003-0.432-0.16
					c-0.075-0.163-0.003-0.357,0.16-0.432C37.874,34.394,38.067,34.466,38.142,34.629z"/>
			</g>
			<g>
				<g>
					<path class="st13" d="M45.694,36.298c0.004-0.02,0.021-0.036,0.05-0.044c0.056-0.015,0.133,0.006,0.174,0.046
						c0.02,0.02,0.027,0.041,0.022,0.06l0,0l-0.624,2.334c-0.005,0.018-0.022,0.033-0.05,0.041
						c-0.055,0.015-0.133-0.006-0.173-0.046c-0.02-0.02-0.027-0.041-0.022-0.059l0.624-2.334
						C45.695,36.295,45.695,36.297,45.694,36.298z"/>
					<path class="st13" d="M45.266,35.916c0.004-0.02,0.021-0.036,0.05-0.044c0.056-0.015,0.133,0.006,0.174,0.046
						c0.02,0.02,0.027,0.041,0.022,0.06l0,0l-0.624,2.334c-0.005,0.018-0.022,0.033-0.05,0.041
						c-0.055,0.015-0.133-0.006-0.173-0.046c-0.02-0.02-0.027-0.041-0.022-0.059l0.624-2.334
						C45.266,35.914,45.266,35.915,45.266,35.916z"/>
					<g>
						<polygon class="st13" points="45.623,35.563 45.496,36.032 45.443,36.047 45.57,35.576 						"/>
						<polygon class="st13" points="45.929,36.079 45.967,36.117 45.964,36.129 46.049,36.584 45.996,36.599 45.911,36.143 						
							"/>
						<polygon class="st14" points="45.703,35.819 45.755,35.805 46.02,35.736 46.019,35.736 						"/>
						<polygon class="st15" points="45.415,35.648 45.432,35.583 45.351,35.501 45.521,34.871 45.942,35.291 45.939,35.301 
							45.887,35.493 45.623,35.563 45.57,35.576 45.443,36.047 45.172,35.776 						"/>
						<polygon class="st13" points="45.942,35.291 45.521,34.871 45.574,34.856 45.995,35.276 45.992,35.287 45.94,35.479 
							45.887,35.493 45.939,35.301 						"/>
						<polygon class="st13" points="46.098,35.446 46.151,35.432 46.236,35.517 46.066,36.148 46.013,36.163 46.183,35.532 						
							"/>
						<polygon class="st15" points="45.703,35.819 46.019,35.736 46.02,35.736 46.098,35.446 46.183,35.532 46.013,36.163 
							45.967,36.117 45.929,36.079 45.911,36.143 45.996,36.599 45.698,36.301 45.789,35.964 45.69,35.865 						"/>
					</g>
				</g>
				<g class="st16">
					<path class="st17" d="M44.406,36.322c-0.002,0.01-0.004,0.02-0.006,0.031c-0.001,0.012-0.001,0.024-0.001,0.036
						c0,0.011-0.001,0.021,0,0.032c0.001,0.013,0.003,0.025,0.005,0.038c0.002,0.011,0.002,0.021,0.004,0.032
						c0.003,0.013,0.007,0.026,0.011,0.04c0.003,0.01,0.005,0.021,0.009,0.031c0.005,0.014,0.012,0.028,0.018,0.041
						c0.005,0.01,0.008,0.02,0.013,0.031c0.007,0.015,0.017,0.029,0.026,0.044c0.006,0.01,0.011,0.019,0.017,0.029
						c0.011,0.016,0.024,0.033,0.037,0.049c0.006,0.008,0.011,0.015,0.017,0.023c0.02,0.024,0.042,0.048,0.065,0.072
						c0.381,0.383,1.115,0.579,1.639,0.438c0.033-0.009,0.064-0.019,0.094-0.03c0.01-0.004,0.019-0.008,0.029-0.012
						c0.019-0.008,0.038-0.015,0.055-0.024c0.011-0.005,0.02-0.011,0.03-0.017c0.015-0.008,0.03-0.016,0.044-0.025
						c0.01-0.006,0.018-0.013,0.028-0.02c0.012-0.009,0.025-0.017,0.037-0.027c0.009-0.007,0.016-0.015,0.024-0.023
						c0.01-0.009,0.021-0.019,0.03-0.029c0.008-0.008,0.014-0.017,0.02-0.026c0.008-0.01,0.016-0.02,0.023-0.03
						c0.006-0.009,0.01-0.018,0.016-0.028c0.006-0.011,0.013-0.021,0.018-0.032c0.004-0.01,0.007-0.02,0.011-0.03
						c0.004-0.011,0.009-0.022,0.012-0.034c0-0.001,0-0.001,0.001-0.002l-0.071,0.274c-0.046,0.173-0.206,0.316-0.47,0.387
						c-0.524,0.141-1.258-0.056-1.639-0.438c-0.189-0.19-0.256-0.39-0.21-0.561l0.071-0.274
						C44.409,36.3,44.408,36.311,44.406,36.322z"/>
					<path class="st18" d="M46.708,36.967c-0.005,0.011-0.012,0.022-0.018,0.032c-0.005,0.009-0.01,0.019-0.016,0.028
						c-0.007,0.01-0.015,0.02-0.023,0.03c-0.007,0.009-0.013,0.018-0.02,0.026c-0.009,0.01-0.02,0.019-0.03,0.029
						c-0.008,0.008-0.015,0.016-0.024,0.023c-0.011,0.009-0.024,0.018-0.037,0.027c-0.009,0.007-0.018,0.014-0.028,0.02
						c-0.014,0.009-0.029,0.017-0.044,0.025c-0.01,0.006-0.02,0.012-0.03,0.017c-0.017,0.009-0.037,0.016-0.055,0.024
						c-0.01,0.004-0.019,0.009-0.029,0.012c-0.03,0.011-0.061,0.021-0.094,0.03c-0.524,0.141-1.258-0.056-1.639-0.438
						c-0.024-0.024-0.046-0.048-0.065-0.072c-0.006-0.008-0.011-0.015-0.017-0.023c-0.013-0.016-0.026-0.033-0.037-0.049
						c-0.006-0.01-0.011-0.019-0.017-0.029c-0.009-0.015-0.018-0.029-0.026-0.044c-0.005-0.01-0.009-0.02-0.013-0.031
						c-0.006-0.014-0.013-0.028-0.018-0.041c-0.004-0.011-0.006-0.021-0.009-0.031c-0.004-0.013-0.009-0.027-0.011-0.04
						c-0.002-0.011-0.003-0.021-0.004-0.032c-0.002-0.013-0.004-0.026-0.005-0.038c-0.001-0.011,0-0.021,0-0.032
						c0-0.012,0-0.024,0.001-0.036c0.001-0.01,0.004-0.021,0.006-0.031c0.027-0.149,0.136-0.278,0.32-0.363l-0.079,0.296
						c-0.037,0.14,0.018,0.304,0.173,0.46c0.312,0.314,0.914,0.475,1.343,0.359c0.216-0.058,0.348-0.175,0.385-0.317l0.078-0.291
						c0.107,0.151,0.141,0.304,0.105,0.438c-0.003,0.011-0.008,0.022-0.012,0.034C46.715,36.947,46.713,36.957,46.708,36.967z"/>
				</g>
				<path class="st19" d="M46.163,37.074c-0.429,0.115-1.031-0.046-1.343-0.359c-0.155-0.156-0.21-0.32-0.173-0.46l0.079-0.296
					l0.444-1.666c0-0.001,0-0.001,0-0.002c0-0.001,0-0.001,0-0.002l0.02-0.076c-0.002,0.009-0.003,0.018-0.005,0.027
					c0.008-0.043,0.024-0.084,0.049-0.122c0.2-0.415,0.671-0.643,1.132-0.52c0.435,0.116,0.743,0.524,0.749,0.946
					c0.001,0.064-0.008,0.116-0.024,0.173c0,0,0-0.001,0-0.001l-0.466,1.75l-0.078,0.291C46.511,36.899,46.38,37.016,46.163,37.074z
					"/>
				<path class="st20" d="M45.477,34.142c-0.046,0.174,0.057,0.352,0.23,0.399c0.174,0.046,0.352-0.057,0.399-0.23
					c0.046-0.174-0.057-0.352-0.23-0.399C45.702,33.865,45.524,33.968,45.477,34.142z"/>
			</g>
		</g>
	</g>
	<g>
		<g>
			<g>
				<g>
					<polygon class="st21" points="15.385,43.146 15.377,44.46 27.157,37.644 27.165,36.33 					"/>
					<polygon class="st15" points="3.14,36.065 3.132,37.379 15.377,44.46 15.385,43.146 					"/>
				</g>
				<polygon class="st4" points="27.165,36.33 14.92,29.249 3.14,36.065 15.385,43.146 				"/>
			</g>
			<g>
				<g>
					<polygon class="st15" points="3.148,33.13 3.14,35.975 15.385,43.056 15.394,40.211 					"/>
				</g>
				<polygon class="st22" points="18.9,37.147 17.072,38.205 17.064,41.05 18.892,39.992 				"/>
				<polygon class="st22" points="22.241,35.13 24.069,34.073 24.061,36.918 22.233,37.975 				"/>
				<polygon class="st23" points="25.035,34.632 24.069,34.073 24.061,36.918 25.027,37.477 				"/>
				<polygon class="st23" points="18.9,37.147 19.794,37.664 19.786,40.509 18.892,39.992 				"/>
				<polygon class="st24" points="17.072,38.205 18.9,37.147 19.794,37.664 23.208,35.689 22.241,35.13 24.069,34.073 
					25.035,34.632 27.173,33.395 14.928,26.314 3.148,33.13 15.394,40.211 17.967,38.722 				"/>
				<polygon class="st21" points="15.394,40.211 15.385,43.056 17.959,41.567 17.967,38.722 				"/>
				<polygon class="st21" points="25.035,34.632 25.027,37.477 27.165,36.24 27.173,33.395 				"/>
				<polygon class="st21" points="19.794,37.664 19.786,40.509 23.2,38.534 23.208,35.689 				"/>
			</g>
			<polygon class="st20" points="25.027,32.901 14.961,27.08 5.277,32.683 15.344,38.504 			"/>
			<g>
				<polygon class="st25" points="24.464,32.877 23.619,32.426 20.898,33.966 21.743,34.416 				"/>
				<polygon class="st4" points="23.887,32.591 23.619,32.426 20.898,33.966 21.166,34.13 				"/>
				<g>
					<polygon class="st26" points="23.307,32.396 23.278,33.528 24.289,32.963 24.318,31.831 					"/>
					<polygon class="st27" points="22.762,32.105 22.733,33.238 23.278,33.528 23.307,32.396 					"/>
					<polygon class="st25" points="24.318,31.831 23.773,31.54 22.762,32.105 23.307,32.396 					"/>
				</g>
			</g>
		</g>
		<g>
			<g>
				<path class="st13" d="M14.203,27.85c0.013-0.016,0.014-0.04,0-0.067c-0.025-0.052-0.092-0.097-0.149-0.1
					c-0.029-0.002-0.049,0.007-0.06,0.023l0,0l-1.348,2.01c-0.011,0.016-0.011,0.038,0.002,0.064c0.025,0.052,0.092,0.096,0.149,0.1
					c0.028,0.002,0.049-0.007,0.06-0.022l1.348-2.01C14.204,27.848,14.203,27.849,14.203,27.85z"/>
				<path class="st13" d="M14.773,27.921c0.013-0.016,0.014-0.04,0-0.067c-0.025-0.052-0.092-0.097-0.149-0.1
					c-0.029-0.002-0.049,0.007-0.06,0.023l0,0l-1.348,2.01c-0.011,0.016-0.011,0.038,0.002,0.064c0.025,0.052,0.092,0.096,0.149,0.1
					c0.028,0.002,0.049-0.007,0.06-0.022l1.348-2.01C14.775,27.919,14.774,27.92,14.773,27.921z"/>
				<g>
					<polygon class="st13" points="14.804,27.418 14.534,27.824 14.558,27.873 14.828,27.467 					"/>
					<polygon class="st13" points="14.213,27.528 14.159,27.525 14.152,27.535 13.753,27.771 13.777,27.821 14.176,27.584 					"/>
					<polygon class="st14" points="14.558,27.528 14.534,27.479 14.412,27.234 14.411,27.234 					"/>
					<polygon class="st15" points="14.877,27.631 14.914,27.575 15.029,27.583 15.393,27.038 14.798,26.998 14.792,27.007 
						14.682,27.173 14.804,27.418 14.828,27.467 14.558,27.873 14.941,27.899 					"/>
					<polygon class="st13" points="14.798,26.998 15.393,27.038 15.369,26.989 14.774,26.949 14.768,26.958 14.658,27.124 
						14.682,27.173 14.792,27.007 					"/>
					<polygon class="st13" points="14.578,26.984 14.554,26.934 14.434,26.926 14.071,27.471 14.095,27.52 14.458,26.976 					"/>
					<polygon class="st15" points="14.558,27.528 14.411,27.234 14.412,27.234 14.578,26.984 14.458,26.976 14.095,27.52 
						14.159,27.525 14.213,27.528 14.176,27.584 13.777,27.821 14.198,27.849 14.392,27.558 14.532,27.567 					"/>
				</g>
			</g>
			<g class="st16">
				<path class="st28" d="M15.034,28.837c-0.007,0.008-0.012,0.017-0.02,0.025c-0.008,0.009-0.018,0.016-0.027,0.025
					c-0.008,0.007-0.015,0.015-0.023,0.021c-0.01,0.008-0.021,0.014-0.032,0.021c-0.009,0.006-0.017,0.012-0.027,0.018
					c-0.012,0.007-0.025,0.012-0.038,0.018c-0.01,0.005-0.019,0.01-0.03,0.014c-0.014,0.005-0.029,0.009-0.043,0.014
					c-0.011,0.003-0.021,0.007-0.032,0.01c-0.016,0.004-0.033,0.007-0.05,0.01c-0.011,0.002-0.021,0.005-0.033,0.006
					c-0.02,0.003-0.041,0.004-0.061,0.005c-0.01,0.001-0.019,0.002-0.029,0.002c-0.031,0.001-0.064,0-0.097-0.002
					c-0.54-0.035-1.172-0.459-1.412-0.946c-0.015-0.031-0.028-0.061-0.039-0.09c-0.004-0.01-0.006-0.02-0.01-0.03
					c-0.007-0.019-0.014-0.039-0.019-0.057c-0.003-0.012-0.005-0.023-0.007-0.034c-0.004-0.017-0.008-0.033-0.01-0.049
					c-0.002-0.012-0.002-0.023-0.003-0.034c-0.001-0.015-0.004-0.031-0.004-0.045c0-0.012,0.001-0.022,0.001-0.033
					c0.001-0.014,0-0.028,0.002-0.041c0.001-0.011,0.004-0.022,0.006-0.032c0.002-0.013,0.004-0.025,0.007-0.038
					c0.003-0.01,0.007-0.02,0.011-0.03c0.004-0.012,0.008-0.024,0.013-0.035c0.004-0.01,0.01-0.018,0.015-0.028
					c0.006-0.01,0.011-0.021,0.017-0.031c0,0,0.001-0.001,0.001-0.002l-0.16,0.234c-0.1,0.149-0.102,0.364,0.019,0.609
					c0.239,0.488,0.872,0.912,1.412,0.946c0.268,0.017,0.463-0.065,0.562-0.212l0.16-0.234
					C15.049,28.82,15.041,28.828,15.034,28.837z"/>
				<path class="st29" d="M13.03,27.527c-0.005,0.011-0.008,0.023-0.013,0.035c-0.004,0.01-0.008,0.019-0.011,0.03
					c-0.003,0.012-0.005,0.025-0.007,0.038c-0.002,0.011-0.005,0.021-0.006,0.032c-0.002,0.013-0.001,0.027-0.002,0.041
					c0,0.011-0.002,0.022-0.001,0.033c0,0.015,0.002,0.03,0.004,0.045c0.001,0.011,0.001,0.022,0.003,0.034
					c0.002,0.016,0.007,0.033,0.01,0.049c0.003,0.011,0.004,0.022,0.007,0.034c0.005,0.019,0.012,0.038,0.019,0.057
					c0.003,0.01,0.006,0.02,0.01,0.03c0.011,0.03,0.024,0.06,0.039,0.09c0.239,0.488,0.872,0.911,1.412,0.946
					c0.034,0.002,0.066,0.003,0.097,0.002c0.01,0,0.019-0.002,0.029-0.002c0.021-0.001,0.042-0.002,0.061-0.005
					c0.011-0.001,0.022-0.004,0.033-0.006c0.017-0.003,0.034-0.006,0.05-0.01c0.011-0.003,0.021-0.007,0.032-0.01
					c0.015-0.004,0.03-0.008,0.043-0.014c0.01-0.004,0.02-0.009,0.03-0.014c0.013-0.006,0.026-0.011,0.038-0.018
					c0.009-0.005,0.018-0.012,0.027-0.018c0.011-0.007,0.022-0.014,0.032-0.021c0.008-0.007,0.016-0.014,0.023-0.021
					c0.009-0.008,0.019-0.016,0.027-0.025c0.007-0.008,0.013-0.016,0.02-0.025c0.095-0.119,0.12-0.286,0.062-0.481l-0.171,0.255
					c-0.081,0.12-0.241,0.188-0.461,0.173c-0.443-0.028-0.961-0.376-1.157-0.776c-0.099-0.201-0.098-0.378-0.015-0.5l0.168-0.251
					c-0.185,0.019-0.322,0.094-0.399,0.21c-0.007,0.01-0.012,0.021-0.017,0.031C13.04,27.508,13.034,27.517,13.03,27.527z"/>
			</g>
			<path class="st30" d="M13.308,28.008c0.196,0.4,0.715,0.747,1.157,0.776c0.22,0.014,0.379-0.053,0.461-0.173l0.171-0.255
				l0.964-1.434c0,0,0.001-0.001,0.001-0.001c0,0,0.001-0.001,0.001-0.001l0.044-0.065c-0.005,0.008-0.012,0.014-0.017,0.022
				c0.027-0.034,0.047-0.074,0.06-0.117c0.181-0.424,0.042-0.93-0.355-1.196c-0.375-0.251-0.885-0.214-1.207,0.06
				c-0.049,0.042-0.082,0.083-0.114,0.132c0,0,0-0.001,0.001-0.001l-1.012,1.506l-0.168,0.251
				C13.21,27.631,13.209,27.807,13.308,28.008z"/>
			<path class="st20" d="M15.971,26.591c-0.1,0.15-0.303,0.19-0.452,0.089c-0.15-0.1-0.189-0.303-0.089-0.452
				c0.1-0.15,0.303-0.19,0.452-0.089C16.032,26.239,16.072,26.441,15.971,26.591z"/>
		</g>
	</g>
	<path class="st31" d="M36.085,39.107c-0.139-0.109-0.365-0.109-0.504,0c-0.092,0.073-0.145,0.176-0.262,0.402
		c-0.354,0.689-1.179,2.304-3.133,2.251c-0.605-0.016-0.986-0.137-1.134-0.361c-0.547-0.826,1.49-3.288,2.257-4.215
		c1.811-2.188,0.589-3.223,0.172-3.487c-0.775-0.491-1.92-0.483-2.553,0.02c-0.83,0.659-3.26,0.946-4.127,1
		c-0.002,0-0.004,0.001-0.006,0.001c-0.022-0.003-0.045-0.004-0.069,0.001c-0.133,0.027-0.235,0.173-0.23,0.326
		c0.006,0.153,0.118,0.256,0.25,0.229c0.138-0.009,3.502-0.221,4.688-1.163c0.377-0.299,1.109-0.289,1.599,0.022
		c0.3,0.19,1.163,0.95-0.322,2.745c-1.819,2.199-2.905,3.853-2.291,4.779c0.276,0.416,0.862,0.639,1.743,0.662
		c0.04,0.001,0.08,0.002,0.119,0.002c2.361,0,3.33-1.886,3.699-2.603c0.048-0.094,0.102-0.199,0.128-0.236
		C36.224,39.373,36.216,39.21,36.085,39.107z"/>
	<path class="st4" d="M35.919,38.05c-0.024-0.01-0.328-0.139-1.423-0.857c-0.953-0.625-2.208-0.167-3.536,0.318
		c-0.651,0.238-1.324,0.483-1.998,0.62c-1.403,0.284-2.597-1.624-3-2.504c-0.008-0.049-0.031-0.097-0.068-0.14
		c-0.031-0.043-0.076-0.077-0.13-0.098c-0.121-0.054-0.265-0.048-0.365,0.026c-0.131,0.098-0.132,0.277-0.003,0.4
		c0.001,0.001,0.003,0.002,0.005,0.004c0.278,0.59,1.453,2.823,3.261,2.823c0.146,0,0.297-0.015,0.452-0.046
		c0.727-0.148,1.426-0.403,2.102-0.649c1.198-0.437,2.233-0.814,2.888-0.385c0.925,0.606,1.416,0.876,1.567,0.927
		c0.155,0.052,0.335-0.005,0.401-0.127C36.136,38.242,36.068,38.104,35.919,38.05z"/>
	<g>
		<g>
			<path class="st13" d="M6.1,41.114c-0.016-0.012-0.04-0.013-0.067,0.002c-0.051,0.027-0.093,0.095-0.095,0.153
				c-0.001,0.028,0.009,0.049,0.025,0.059l0,0l2.053,1.281c0.016,0.01,0.039,0.01,0.064-0.004c0.051-0.027,0.093-0.095,0.095-0.153
				c0.001-0.028-0.009-0.049-0.024-0.059l-2.053-1.281C6.098,41.112,6.099,41.113,6.1,41.114z"/>
			<path class="st13" d="M6.152,40.541c-0.016-0.012-0.04-0.012-0.067,0.002c-0.051,0.027-0.093,0.095-0.095,0.153
				c-0.001,0.029,0.009,0.049,0.025,0.059l0,0l2.053,1.281c0.016,0.01,0.039,0.009,0.064-0.004c0.051-0.027,0.093-0.095,0.095-0.153
				c0.001-0.028-0.008-0.049-0.024-0.059l-2.053-1.281C6.15,40.54,6.151,40.54,6.152,40.541z"/>
			<g>
				<polygon class="st13" points="5.649,40.527 6.063,40.784 6.112,40.758 5.697,40.501 				"/>
				<polygon class="st13" points="5.778,41.114 5.776,41.168 5.787,41.175 6.036,41.566 6.085,41.54 5.835,41.149 				"/>
				<polygon class="st14" points="5.766,40.769 5.718,40.795 5.477,40.925 5.478,40.925 				"/>
				<polygon class="st15" points="5.859,40.447 5.802,40.411 5.806,40.296 5.25,39.951 5.229,40.546 5.239,40.552 5.408,40.657 
					5.649,40.527 5.697,40.501 6.112,40.758 6.125,40.375 				"/>
				<polygon class="st13" points="5.229,40.546 5.25,39.951 5.201,39.977 5.181,40.572 5.19,40.578 5.36,40.683 5.408,40.657 
					5.239,40.552 				"/>
				<polygon class="st13" points="5.222,40.767 5.173,40.792 5.169,40.913 5.726,41.258 5.774,41.233 5.218,40.888 				"/>
				<polygon class="st15" points="5.766,40.769 5.478,40.925 5.477,40.925 5.222,40.767 5.218,40.888 5.774,41.233 5.776,41.168 
					5.778,41.114 5.835,41.149 6.085,41.54 6.099,41.118 5.802,40.934 5.807,40.794 				"/>
			</g>
		</g>
		<g class="st16">
			<path class="st32" d="M7.059,40.25c0.008,0.006,0.017,0.012,0.025,0.019c0.009,0.008,0.017,0.017,0.025,0.026
				c0.007,0.008,0.015,0.015,0.022,0.023c0.008,0.01,0.015,0.021,0.022,0.031c0.006,0.009,0.013,0.017,0.018,0.026
				c0.007,0.012,0.013,0.024,0.019,0.037c0.005,0.01,0.01,0.019,0.015,0.029c0.006,0.014,0.01,0.028,0.015,0.043
				c0.004,0.011,0.008,0.02,0.011,0.031c0.005,0.016,0.008,0.033,0.011,0.05c0.002,0.011,0.005,0.021,0.007,0.032
				c0.003,0.02,0.005,0.04,0.007,0.061c0.001,0.01,0.003,0.019,0.003,0.029c0.002,0.031,0.002,0.064,0.001,0.097
				c-0.017,0.541-0.42,1.187-0.899,1.442c-0.03,0.016-0.06,0.03-0.089,0.042c-0.01,0.004-0.02,0.007-0.029,0.011
				c-0.019,0.007-0.038,0.015-0.057,0.021c-0.012,0.003-0.023,0.005-0.034,0.008c-0.016,0.004-0.033,0.009-0.049,0.012
				c-0.012,0.002-0.023,0.003-0.034,0.004c-0.015,0.002-0.03,0.005-0.045,0.005c-0.011,0.001-0.022,0-0.033,0
				c-0.014,0-0.028,0.001-0.041-0.001c-0.011-0.001-0.022-0.003-0.033-0.005c-0.013-0.002-0.026-0.003-0.038-0.006
				c-0.01-0.002-0.02-0.006-0.03-0.01c-0.012-0.004-0.024-0.007-0.035-0.011c-0.01-0.004-0.019-0.009-0.028-0.014
				c-0.011-0.005-0.022-0.01-0.032-0.016c-0.001,0-0.001-0.001-0.002-0.001l0.239,0.152c0.152,0.095,0.367,0.09,0.608-0.039
				c0.479-0.255,0.882-0.901,0.899-1.442c0.008-0.268-0.08-0.461-0.23-0.555L7.032,40.23C7.041,40.236,7.05,40.243,7.059,40.25z"/>
			<path class="st33" d="M5.815,42.297c0.011,0.005,0.023,0.008,0.035,0.011c0.01,0.003,0.02,0.007,0.03,0.01
				c0.012,0.003,0.025,0.004,0.038,0.006c0.011,0.002,0.021,0.004,0.033,0.005c0.013,0.001,0.027,0.001,0.041,0.001
				c0.011,0,0.022,0.001,0.033,0c0.015-0.001,0.03-0.003,0.045-0.005c0.011-0.001,0.022-0.002,0.034-0.004
				c0.016-0.003,0.033-0.008,0.049-0.012c0.011-0.003,0.022-0.005,0.034-0.008c0.019-0.006,0.038-0.013,0.057-0.021
				c0.01-0.004,0.019-0.006,0.029-0.011c0.029-0.012,0.059-0.026,0.089-0.042c0.479-0.255,0.882-0.901,0.899-1.442
				c0.001-0.034,0.001-0.066-0.001-0.097c-0.001-0.01-0.002-0.019-0.003-0.029c-0.002-0.021-0.004-0.042-0.007-0.061
				c-0.002-0.011-0.005-0.022-0.007-0.032c-0.004-0.017-0.007-0.034-0.011-0.05c-0.003-0.011-0.007-0.021-0.011-0.031
				c-0.005-0.014-0.009-0.029-0.015-0.043c-0.004-0.01-0.01-0.019-0.015-0.029c-0.006-0.012-0.012-0.025-0.019-0.037
				c-0.006-0.009-0.012-0.017-0.018-0.026c-0.007-0.011-0.014-0.022-0.022-0.031c-0.007-0.008-0.015-0.015-0.022-0.023
				c-0.008-0.009-0.016-0.018-0.025-0.026c-0.008-0.007-0.017-0.013-0.025-0.019c-0.122-0.091-0.29-0.111-0.482-0.047l0.26,0.163
				c0.123,0.077,0.195,0.235,0.188,0.455c-0.014,0.443-0.344,0.973-0.737,1.182c-0.198,0.105-0.374,0.11-0.499,0.032l-0.256-0.16
				c0.025,0.184,0.105,0.318,0.223,0.392c0.01,0.006,0.021,0.011,0.032,0.016C5.797,42.287,5.806,42.293,5.815,42.297z"/>
		</g>
		<path class="st34" d="M6.288,42.003c0.393-0.209,0.723-0.739,0.737-1.182c0.007-0.22-0.066-0.378-0.188-0.455l-0.26-0.163
			l-1.465-0.916c0,0-0.001-0.001-0.001-0.001c0,0-0.001,0-0.001-0.001l-0.066-0.042c0.008,0.005,0.015,0.011,0.022,0.016
			c-0.035-0.026-0.075-0.045-0.119-0.056c-0.43-0.167-0.931-0.011-1.184,0.394c-0.239,0.383-0.185,0.892,0.099,1.204
			c0.043,0.048,0.085,0.079,0.135,0.11c0,0-0.001,0-0.001-0.001l1.538,0.962l0.256,0.16C5.913,42.113,6.09,42.108,6.288,42.003z"/>
		<path class="st20" d="M4.784,39.387c0.153,0.095,0.199,0.296,0.104,0.449c-0.095,0.153-0.296,0.199-0.449,0.104
			c-0.153-0.095-0.199-0.296-0.104-0.449C4.43,39.339,4.631,39.292,4.784,39.387z"/>
	</g>
</g>
</svg>
