<?xml version="1.0" encoding="utf-8"?>
<!-- Generator: Adobe Illustrator 25.0.0, SVG Export Plug-In . SVG Version: 6.00 Build 0)  -->
<svg version="1.1" id="Layer_1" xmlns="http://www.w3.org/2000/svg" xmlns:xlink="http://www.w3.org/1999/xlink" x="0px" y="0px"
	 viewBox="0 0 400 400" style="enable-background:new 0 0 400 400;" xml:space="preserve">
<style type="text/css">
	.stem-focus-selected{fill:#FF0000;}
	.white-fill{fill:#FFFFFF;}
</style>

<g>
	<path class="stem-focus-selected" d="M200.725,11.597c-27.733,0-54.486,5.809-79.517,17.267c-24.173,11.065-45.443,26.771-63.22,46.682
		c-2.099,2.351-3.106,5.481-2.769,8.616c0.336,3.134,1.983,5.98,4.533,7.833l81.171,58.974c1.961,1.425,4.26,2.13,6.553,2.13
		c2.629,0,5.248-0.926,7.341-2.756c12.722-11.122,29.026-17.248,45.909-17.248c1.972,0,4.022,0.097,6.265,0.296
		c0.333,0.03,0.664,0.044,0.993,0.044c4.789,0,9.096-3.08,10.599-7.705l31.013-95.448c0.974-2.999,0.634-6.27-0.938-9.004
		s-4.227-4.674-7.309-5.341C228.04,13.057,214.373,11.597,200.725,11.597L200.725,11.597z"/>
	<path class="grey-fill" d="M190.172,158.686c-1.379-1.379-3.615-1.379-4.994,0s-1.379,3.615,0,4.994s3.615,1.379,4.994,0
		C191.551,162.301,191.551,160.065,190.172,158.686z"/>
	<polygon class="white-fill" points="119.137,95.212 123.769,95.212 123.769,93.8 119.137,93.8 119.137,89.582 124.444,89.582
		124.444,88.17 117.491,88.17 117.491,101.265 124.534,101.265 124.534,99.853 119.137,99.853 	"/>
	<path class="white-fill" d="M130.326,91.354c-0.959,0-1.748,0.411-2.365,1.232l-0.045-1.052h-1.502v9.731h1.592v-7.069
		c0.192-0.426,0.445-0.77,0.76-1.034c0.315-0.263,0.67-0.396,1.065-0.396c0.51,0,0.892,0.161,1.147,0.481
		c0.255,0.321,0.382,0.862,0.382,1.623v6.394h1.583v-6.467C132.919,92.502,132.047,91.354,130.326,91.354z"/>
	<path class="white-fill" d="M140.515,92.622c-0.516-0.846-1.268-1.268-2.258-1.268c-1.061,0-1.867,0.388-2.419,1.165
		s-0.827,1.923-0.827,3.44v1.08c0.024,1.42,0.317,2.51,0.881,3.269c0.564,0.758,1.349,1.138,2.356,1.138
		c0.948,0,1.679-0.381,2.195-1.143v1.268c-0.035,1.445-0.716,2.168-2.041,2.168c-0.798,0-1.526-0.324-2.185-0.971l-0.648,1.097
		c0.3,0.348,0.748,0.64,1.345,0.877c0.597,0.236,1.135,0.355,1.615,0.355c1.103,0,1.963-0.322,2.581-0.967
		c0.618-0.645,0.927-1.569,0.927-2.774v-9.821h-1.439L140.515,92.622z M140.443,98.82c-0.396,0.808-0.989,1.213-1.781,1.213
		c-0.731,0-1.258-0.256-1.579-0.768s-0.481-1.313-0.481-2.402v-0.97c0.006-1.06,0.171-1.846,0.494-2.358
		c0.324-0.512,0.852-0.768,1.583-0.768c0.762,0,1.35,0.398,1.763,1.195v4.858H140.443z"/>
	<path class="white-fill" d="M145.336,87.99c-0.3,0-0.524,0.093-0.674,0.279s-0.225,0.414-0.225,0.683c0,0.27,0.075,0.495,0.225,0.675
		c0.15,0.18,0.374,0.269,0.674,0.269c0.306,0,0.534-0.089,0.684-0.269c0.15-0.18,0.225-0.405,0.225-0.675
		c0-0.263-0.077-0.49-0.23-0.679C145.863,88.085,145.636,87.99,145.336,87.99z"/>
	<rect x="144.527" y="91.534" class="white-fill" width="1.592" height="9.731"/>
	<path class="white-fill" d="M152.531,91.354c-0.959,0-1.748,0.411-2.365,1.232l-0.045-1.052h-1.502v9.731h1.592v-7.069
		c0.192-0.426,0.445-0.77,0.76-1.034c0.315-0.263,0.67-0.396,1.065-0.396c0.51,0,0.892,0.161,1.147,0.481
		c0.255,0.321,0.382,0.862,0.382,1.623v6.394h1.583v-6.467C155.124,92.502,154.252,91.354,152.531,91.354z"/>
	<path class="white-fill" d="M160.832,91.354c-1.133,0-2.016,0.412-2.648,1.236c-0.633,0.825-0.949,1.962-0.949,3.414v1.178
		c0.012,1.397,0.342,2.456,0.99,3.179c0.647,0.723,1.577,1.084,2.788,1.084c1.415,0,2.467-0.486,3.157-1.457l-0.828-1.007
		c-0.311,0.384-0.646,0.664-1.002,0.841c-0.357,0.177-0.769,0.265-1.237,0.265c-0.737,0-1.303-0.237-1.696-0.71
		c-0.393-0.474-0.589-1.233-0.589-2.276v-0.225h5.433v-1.043c-0.013-1.535-0.3-2.665-0.863-3.39
		C162.823,91.717,161.971,91.354,160.832,91.354z M162.658,95.509h-3.831c0.042-0.953,0.221-1.657,0.539-2.11
		c0.318-0.453,0.806-0.679,1.466-0.679c0.594,0,1.036,0.199,1.327,0.594c0.29,0.396,0.457,1.055,0.499,1.978V95.509z"/>
	<path class="white-fill" d="M169.457,91.354c-1.133,0-2.016,0.412-2.648,1.236c-0.633,0.825-0.949,1.962-0.949,3.414v1.178
		c0.012,1.397,0.342,2.456,0.99,3.179c0.647,0.723,1.577,1.084,2.788,1.084c1.415,0,2.467-0.486,3.157-1.457l-0.828-1.007
		c-0.311,0.384-0.646,0.664-1.002,0.841c-0.357,0.177-0.769,0.265-1.237,0.265c-0.737,0-1.303-0.237-1.696-0.71
		c-0.393-0.474-0.589-1.233-0.589-2.276v-0.225h5.433v-1.043c-0.013-1.535-0.3-2.665-0.863-3.39
		C171.448,91.717,170.596,91.354,169.457,91.354z M171.283,95.509h-3.831c0.042-0.953,0.221-1.657,0.539-2.11
		s0.806-0.679,1.466-0.679c0.594,0,1.036,0.199,1.327,0.594c0.29,0.396,0.457,1.055,0.499,1.978V95.509z"/>
	<path class="white-fill" d="M178.163,91.354c-0.779,0-1.382,0.39-1.808,1.169l-0.027-0.989h-1.547v9.731h1.592v-6.961
		c0.323-0.894,0.893-1.341,1.708-1.341c0.258,0,0.498,0.021,0.719,0.063l-0.008-1.547C178.625,91.396,178.416,91.354,178.163,91.354
		z"/>
	<rect x="180.51" y="91.534" class="white-fill" width="1.592" height="9.731"/>
	<path class="white-fill" d="M181.32,87.99c-0.3,0-0.524,0.093-0.674,0.279s-0.225,0.414-0.225,0.683c0,0.27,0.075,0.495,0.225,0.675
		c0.15,0.18,0.374,0.269,0.674,0.269c0.306,0,0.534-0.089,0.684-0.269c0.15-0.18,0.225-0.405,0.225-0.675
		c0-0.263-0.077-0.49-0.23-0.679C181.846,88.085,181.62,87.99,181.32,87.99z"/>
	<path class="white-fill" d="M188.515,91.354c-0.959,0-1.748,0.411-2.365,1.232l-0.045-1.052h-1.502v9.731h1.592v-7.069
		c0.192-0.426,0.445-0.77,0.76-1.034c0.315-0.263,0.67-0.396,1.065-0.396c0.51,0,0.892,0.161,1.147,0.481
		c0.255,0.321,0.382,0.862,0.382,1.623v6.394h1.583v-6.467C191.109,92.502,190.236,91.354,188.515,91.354z"/>
	<path class="white-fill" d="M198.786,91.534l-0.081,1.088c-0.516-0.846-1.268-1.268-2.258-1.268c-1.061,0-1.867,0.388-2.419,1.165
		s-0.827,1.923-0.827,3.44v1.08c0.024,1.42,0.317,2.51,0.881,3.269c0.564,0.758,1.349,1.138,2.356,1.138
		c0.948,0,1.679-0.381,2.195-1.143v1.268c-0.035,1.445-0.716,2.168-2.041,2.168c-0.798,0-1.526-0.324-2.185-0.971l-0.648,1.097
		c0.3,0.348,0.748,0.64,1.345,0.877c0.597,0.236,1.135,0.355,1.615,0.355c1.103,0,1.963-0.322,2.581-0.967s0.926-1.569,0.926-2.774
		v-9.821L198.786,91.534L198.786,91.534z M198.633,98.82c-0.396,0.808-0.989,1.213-1.781,1.213c-0.731,0-1.258-0.256-1.579-0.768
		s-0.481-1.313-0.481-2.402v-0.97c0.006-1.06,0.171-1.846,0.494-2.358c0.324-0.512,0.852-0.768,1.583-0.768
		c0.762,0,1.35,0.398,1.763,1.195v4.858H198.633z"/>
	<path class="white-fill" d="M158.089,80.242c0.327-0.322,0.651-0.645,0.972-0.972c0.358-0.365,0.375-0.599,0.081-1.022
		c-0.233-0.335-0.467-0.67-0.707-1.001c-0.115-0.159-0.131-0.326-0.061-0.501c0.18-0.445,0.363-0.888,0.55-1.329
		c0.068-0.162,0.189-0.263,0.371-0.294c0.462-0.078,0.925-0.155,1.383-0.25c0.322-0.067,0.479-0.235,0.49-0.559
		c0.019-0.579,0.021-1.159,0.001-1.738c-0.012-0.353-0.182-0.524-0.537-0.593c-0.444-0.087-0.89-0.16-1.337-0.228
		c-0.195-0.03-0.317-0.119-0.39-0.306c-0.173-0.441-0.354-0.879-0.544-1.313c-0.084-0.193-0.075-0.352,0.054-0.522
		c0.223-0.294,0.443-0.593,0.643-0.903c0.403-0.625,0.423-0.603-0.095-1.194c-0.276-0.315-0.586-0.601-0.885-0.895
		c-0.367-0.361-0.614-0.384-1.039-0.092c-0.332,0.228-0.661,0.461-0.984,0.702c-0.174,0.129-0.34,0.147-0.54,0.062
		c-0.446-0.19-0.896-0.37-1.348-0.546c-0.176-0.069-0.278-0.179-0.308-0.371c-0.069-0.441-0.14-0.882-0.226-1.321
		c-0.077-0.393-0.258-0.554-0.658-0.567c-0.513-0.016-1.027-0.021-1.54-0.004c-0.484,0.017-0.658,0.181-0.747,0.654
		c-0.076,0.406-0.145,0.815-0.202,1.224c-0.03,0.214-0.124,0.347-0.33,0.428c-0.441,0.173-0.876,0.361-1.311,0.551
		c-0.176,0.077-0.323,0.058-0.477-0.058c-0.334-0.253-0.674-0.5-1.017-0.741c-0.409-0.287-0.638-0.268-0.993,0.08
		c-0.335,0.328-0.667,0.661-0.995,0.996c-0.354,0.361-0.373,0.586-0.082,1.007c0.235,0.34,0.476,0.677,0.723,1.009
		c0.129,0.174,0.144,0.342,0.058,0.54c-0.181,0.42-0.351,0.844-0.515,1.271c-0.077,0.201-0.203,0.314-0.419,0.346
		c-0.382,0.056-0.761,0.135-1.143,0.187c-0.374,0.051-0.65,0.201-0.721,0.605c0,0.586,0,1.171,0,1.756
		c0.07,0.432,0.378,0.569,0.761,0.629c0.376,0.058,0.749,0.134,1.123,0.198c0.195,0.033,0.338,0.134,0.415,0.315
		c0.186,0.435,0.371,0.872,0.55,1.31c0.071,0.174,0.052,0.343-0.061,0.502c-0.23,0.323-0.456,0.65-0.684,0.975
		c-0.307,0.436-0.29,0.67,0.083,1.045c0.307,0.309,0.615,0.617,0.926,0.924c0.427,0.421,0.625,0.435,1.121,0.087
		c0.316-0.221,0.634-0.44,0.949-0.663c0.168-0.119,0.344-0.138,0.532-0.06c0.407,0.169,0.814,0.337,1.221,0.507
		c0.193,0.081,0.307,0.224,0.343,0.432c0.065,0.38,0.141,0.759,0.195,1.141c0.052,0.376,0.21,0.646,0.613,0.712
		c0.586,0,1.171,0,1.757,0c0.401-0.069,0.562-0.335,0.615-0.713c0.055-0.393,0.136-0.782,0.205-1.173
		c0.032-0.184,0.136-0.314,0.304-0.385c0.436-0.186,0.874-0.367,1.313-0.546c0.18-0.073,0.353-0.062,0.517,0.056
		c0.327,0.235,0.657,0.466,0.988,0.696C157.469,80.618,157.727,80.599,158.089,80.242z M152.219,78.617
		c-2.851-0.003-5.196-2.338-5.187-5.165c0.009-2.915,2.327-5.22,5.241-5.213c2.82,0.007,5.145,2.359,5.14,5.199
		C157.407,76.289,155.07,78.62,152.219,78.617z"/>
	<path class="white-fill" d="M175.333,64.498c-0.054-0.038-0.111-0.073-0.167-0.107c-0.551-0.336-1.102-0.672-1.653-1.008
		c-0.157-0.096-0.25-0.229-0.252-0.418c-0.01-0.756-0.02-1.513-0.033-2.269c-0.004-0.212,0.079-0.368,0.263-0.48
		c0.292-0.178,0.579-0.365,0.866-0.551c0.292-0.19,0.587-0.373,0.869-0.577c0.413-0.3,0.511-0.632,0.35-1.117
		c-0.031-0.094-0.07-0.186-0.109-0.277c-0.217-0.507-0.434-1.014-0.655-1.519c-0.082-0.186-0.164-0.375-0.269-0.549
		c-0.194-0.322-0.493-0.443-0.862-0.4c-0.082,0.009-0.164,0.026-0.244,0.045c-0.627,0.153-1.254,0.305-1.88,0.461
		c-0.176,0.044-0.337,0.044-0.477-0.093c-0.583-0.565-1.167-1.128-1.75-1.693c-0.12-0.116-0.162-0.251-0.124-0.421
		c0.145-0.651,0.283-1.304,0.421-1.957c0.13-0.611-0.049-0.951-0.626-1.195c-0.142-0.06-0.286-0.116-0.429-0.174
		c-0.553-0.22-1.103-0.45-1.661-0.658c-0.524-0.196-0.855-0.076-1.164,0.389c-0.04,0.06-0.076,0.122-0.114,0.183
		c-0.319,0.516-0.64,1.031-0.956,1.55c-0.119,0.196-0.278,0.295-0.514,0.298c-0.729,0.008-1.458,0.021-2.186,0.047
		c-0.241,0.009-0.39-0.084-0.514-0.282c-0.347-0.557-0.703-1.109-1.064-1.658c-0.307-0.467-0.689-0.582-1.201-0.367
		c-0.696,0.293-1.39,0.592-2.082,0.894c-0.536,0.234-0.709,0.594-0.575,1.159c0.154,0.649,0.304,1.299,0.461,1.948
		c0.047,0.195,0.009,0.368-0.122,0.508c-0.532,0.569-1.069,1.132-1.606,1.696c-0.115,0.121-0.253,0.158-0.422,0.12
		c-0.646-0.145-1.293-0.282-1.94-0.42c-0.619-0.132-0.977,0.057-1.217,0.647c-0.268,0.659-0.532,1.319-0.794,1.98
		c-0.232,0.585-0.116,0.951,0.416,1.283c0.505,0.316,1.01,0.633,1.529,0.925c0.317,0.179,0.448,0.417,0.438,0.78
		c-0.017,0.651,0.003,1.303,0,1.955c-0.001,0.13,0.045,0.177,0.17,0.208c0.557,0.137,1.11,0.288,1.665,0.433
		c0.328,0.086,0.657,0.17,1.004,0.26c-0.599-2.272-0.303-4.387,1.024-6.307c1.328-1.922,3.188-3.011,5.511-3.236
		c4.24-0.412,8.012,2.982,8.067,7.383c0.025,1.99-0.648,3.707-2.029,5.14c-2.01,2.085-4.457,2.712-7.293,2.126
		c0.029,0.121,0.044,0.201,0.068,0.279c0.217,0.724,0.435,1.447,0.652,2.17c0.076,0.254,0.131,0.296,0.402,0.291
		c0.651-0.013,1.303-0.026,1.954-0.041c0.229-0.005,0.401,0.083,0.527,0.278c0.359,0.556,0.722,1.111,1.088,1.662
		c0.32,0.482,0.695,0.598,1.227,0.376c0.686-0.287,1.371-0.58,2.052-0.879c0.556-0.244,0.722-0.591,0.581-1.184
		c-0.151-0.638-0.303-1.277-0.46-1.914c-0.048-0.196-0.036-0.365,0.117-0.518c0.538-0.54,1.071-1.084,1.606-1.627
		c0.143-0.145,0.309-0.193,0.513-0.149c0.674,0.145,1.348,0.29,2.025,0.419c0.483,0.092,0.832-0.079,1.024-0.527
		c0.319-0.745,0.621-1.497,0.907-2.255C175.858,65.105,175.733,64.783,175.333,64.498z"/>
	<path class="white-fill" d="M163.248,67.018c2.668,0.011,4.857-2.171,4.868-4.851c0.011-2.682-2.156-4.863-4.839-4.873
		c-2.695-0.01-4.855,2.144-4.87,4.855C158.391,64.821,160.565,67.007,163.248,67.018z"/>
</g>

</svg>
