<?xml version="1.0" encoding="utf-8"?>
<!-- Generator: Adobe Illustrator 25.0.0, SVG Export Plug-In . SVG Version: 6.00 Build 0)  -->
<svg version="1.1" id="Layer_1" xmlns="http://www.w3.org/2000/svg" xmlns:xlink="http://www.w3.org/1999/xlink" x="0px" y="0px"
	 viewBox="0 0 400 400">
<style type="text/css">
	.stem-focus-selected{fill:#FF0000;}
	.white-fill{fill:#FFFFFF;}
	.grey-fill{fill:#484848;}
</style>
<path class="stem-focus-selected" d="M147.475,252.705c-2.293,0-4.591,0.705-6.553,2.13l-81.171,58.974c-2.55,1.853-4.197,4.698-4.533,7.832
	c-0.336,3.134,0.67,6.264,2.769,8.616c17.777,19.911,39.047,35.617,63.22,46.682c25.031,11.457,51.784,17.267,79.517,17.267
	c13.648,0,27.315-1.46,40.623-4.338c3.082-0.667,5.738-2.607,7.309-5.341c1.572-2.734,1.913-6.005,0.938-9.004l-31.013-95.448
	c-1.503-4.625-5.81-7.705-10.599-7.705c-0.329,0-0.66,0.014-0.993,0.044c-2.243,0.199-4.293,0.296-6.265,0.296
	c-16.883,0-33.187-6.125-45.909-17.248C152.723,253.632,150.103,252.705,147.475,252.705L147.475,252.705z"/>
<g>
	<path class="white-fill" d="M128.051,343.798c0.357-0.603,0.535-1.309,0.535-2.118c0-1.289-0.33-2.268-0.989-2.937
		c-0.66-0.668-1.632-1.003-2.914-1.003h-3.67v13.095h1.655v-5.297h2.302l2.329,5.297h1.771v-0.108l-2.536-5.567
		C127.189,344.854,127.694,344.4,128.051,343.798z M124.665,344.126h-1.996v-4.974h1.978c1.523,0,2.285,0.841,2.285,2.523
		c0,0.746-0.205,1.34-0.616,1.785C125.904,343.904,125.355,344.126,124.665,344.126z"/>
	<path class="white-fill" d="M133.982,340.924c-1.127,0-2.034,0.412-2.721,1.236c-0.687,0.825-1.03,1.945-1.03,3.359v1.062
		c0.024,1.361,0.376,2.44,1.057,3.237c0.681,0.798,1.585,1.197,2.712,1.197c1.139,0,2.05-0.411,2.734-1.232
		c0.683-0.822,1.025-1.937,1.025-3.346v-1.026c-0.018-1.385-0.37-2.479-1.057-3.283C136.016,341.325,135.11,340.924,133.982,340.924
		z M136.168,346.617c-0.042,2.027-0.764,3.04-2.167,3.04c-0.666,0-1.195-0.286-1.588-0.859c-0.393-0.572-0.589-1.359-0.589-2.36
		v-0.926c0-0.99,0.196-1.773,0.589-2.352c0.393-0.579,0.916-0.868,1.569-0.868c0.666,0,1.197,0.289,1.592,0.868
		c0.396,0.579,0.593,1.366,0.593,2.36v1.097H136.168z"/>
	<path class="white-fill" d="M143.651,340.924c-0.978,0-1.728,0.417-2.248,1.25v-5.153h-1.583v13.815h1.447l0.081-1.151
		c0.516,0.888,1.289,1.331,2.321,1.331c1.038,0,1.829-0.384,2.375-1.151c0.545-0.767,0.818-1.91,0.818-3.427v-0.963
		c-0.006-1.523-0.276-2.662-0.81-3.417C145.518,341.302,144.718,340.924,143.651,340.924z M145.278,346.504
		c-0.006,1.06-0.165,1.841-0.476,2.344c-0.312,0.503-0.828,0.755-1.547,0.755c-0.839,0-1.457-0.438-1.852-1.312v-4.626
		c0.401-0.886,1.013-1.33,1.834-1.33c0.719,0,1.24,0.244,1.56,0.732c0.321,0.488,0.481,1.307,0.481,2.456V346.504z"/>
	<path class="white-fill" d="M152.312,340.924c-1.127,0-2.034,0.412-2.721,1.236c-0.687,0.825-1.03,1.945-1.03,3.359v1.062
		c0.024,1.361,0.376,2.44,1.057,3.237c0.681,0.798,1.584,1.197,2.712,1.197c1.138,0,2.05-0.411,2.734-1.232
		c0.683-0.822,1.025-1.937,1.025-3.346v-1.026c-0.018-1.385-0.37-2.479-1.057-3.283
		C154.345,341.325,153.439,340.924,152.312,340.924z M154.497,346.617c-0.042,2.027-0.764,3.04-2.167,3.04
		c-0.666,0-1.195-0.286-1.588-0.859c-0.393-0.572-0.589-1.359-0.589-2.36v-0.926c0-0.99,0.196-1.773,0.589-2.352
		c0.393-0.579,0.916-0.868,1.569-0.868c0.666,0,1.197,0.289,1.592,0.868c0.396,0.579,0.593,1.366,0.593,2.36v1.097H154.497z"/>
	<path class="white-fill" d="M160.415,349.306c-0.126-0.199-0.189-0.49-0.189-0.873v-6.043h1.467v-1.286h-1.467v-2.357h-1.583v2.357h-1.484
		v1.286h1.484v6.044c0,0.822,0.165,1.457,0.495,1.907s0.81,0.675,1.439,0.675c0.378,0,0.746-0.06,1.107-0.179l0.018-1.341
		c-0.215,0.072-0.428,0.109-0.639,0.109C160.757,349.603,160.541,349.504,160.415,349.306z"/>
	<path class="white-fill" d="M164.516,337.56c-0.3,0-0.524,0.093-0.674,0.279s-0.225,0.414-0.225,0.683c0,0.27,0.075,0.495,0.225,0.675
		s0.374,0.269,0.674,0.269c0.306,0,0.534-0.089,0.684-0.269c0.15-0.18,0.225-0.405,0.225-0.675c0-0.263-0.077-0.49-0.23-0.679
		C165.042,337.655,164.816,337.56,164.516,337.56z"/>
	<rect x="163.706" y="341.104" class="white-fill" width="1.592" height="9.731"/>
	<path class="white-fill" d="M169.597,342.988c0.342-0.465,0.867-0.698,1.574-0.698c0.545,0,0.973,0.18,1.282,0.54
		c0.309,0.359,0.481,0.899,0.517,1.619h1.502c-0.035-1.091-0.346-1.952-0.931-2.582c-0.585-0.629-1.375-0.944-2.37-0.944
		c-1.205,0-2.123,0.382-2.753,1.147c-0.629,0.764-0.944,1.881-0.944,3.35v1.07c0,1.499,0.316,2.627,0.949,3.386
		c0.632,0.758,1.551,1.138,2.756,1.138c0.905,0,1.672-0.307,2.298-0.922c0.627-0.614,0.958-1.389,0.994-2.325h-1.502
		c-0.029,0.606-0.204,1.072-0.522,1.399c-0.317,0.327-0.741,0.491-1.268,0.491c-0.731,0-1.266-0.237-1.605-0.71
		c-0.339-0.474-0.508-1.283-0.508-2.428v-1.241C169.079,344.216,169.256,343.453,169.597,342.988z"/>
	<path class="white-fill" d="M181.992,346.542c-0.426-0.441-1.229-0.893-2.411-1.356c-0.743-0.322-1.213-0.582-1.407-0.78
		c-0.195-0.197-0.293-0.457-0.293-0.78c0-0.406,0.134-0.73,0.401-0.973c0.267-0.242,0.634-0.364,1.102-0.364
		c0.456,0,0.831,0.155,1.124,0.464c0.294,0.309,0.441,0.682,0.441,1.12h1.583c0-0.864-0.288-1.571-0.863-2.123
		c-0.576-0.551-1.337-0.827-2.285-0.827c-0.9,0-1.638,0.263-2.216,0.787c-0.579,0.525-0.868,1.183-0.868,1.974
		c0,0.443,0.087,0.826,0.261,1.147s0.436,0.607,0.787,0.858c0.351,0.252,0.955,0.555,1.813,0.909
		c0.737,0.33,1.235,0.618,1.493,0.863c0.258,0.246,0.387,0.539,0.387,0.881c0,0.402-0.138,0.721-0.414,0.958
		s-0.677,0.355-1.205,0.355c-0.564,0-1.001-0.153-1.314-0.459c-0.311-0.306-0.476-0.729-0.494-1.268h-1.601
		c0,0.894,0.315,1.631,0.944,2.212c0.63,0.581,1.452,0.873,2.465,0.873c0.977,0,1.757-0.254,2.339-0.762
		c0.581-0.507,0.872-1.184,0.872-2.031C182.629,347.544,182.416,346.984,181.992,346.542z"/>
	<path class="white-fill" d="M150.722,317.526l1.691-1.69l3.612-3.612c0.035-0.035,0.069-0.071,0.101-0.107
		c0.012-0.013,0.023-0.026,0.035-0.04c0.02-0.023,0.04-0.046,0.06-0.07c0.014-0.017,0.028-0.034,0.041-0.051
		c0.016-0.02,0.031-0.04,0.046-0.06s0.029-0.039,0.044-0.059c0.013-0.018,0.025-0.035,0.037-0.053
		c0.015-0.022,0.031-0.045,0.045-0.068c0.009-0.014,0.017-0.027,0.026-0.041c0.742-1.189,0.597-2.777-0.435-3.809l0,0l-1.937-1.937
		c-0.582-0.582-1.356-0.902-2.179-0.902s-1.597,0.32-2.179,0.902l-5.916,5.916h1.091
		C148.069,311.845,150.648,314.381,150.722,317.526z"/>
	<path class="white-fill" d="M169.555,331.016v-1.712c0-1.699-1.382-3.081-3.081-3.081h-17.802v-6.647v-1.911
		c0-2.076-1.689-3.766-3.766-3.766h-2.739c-0.072,0-0.144,0.003-0.216,0.007c-0.003,0-0.006,0-0.009,0.001
		c-1.972,0.117-3.541,1.757-3.541,3.758v8.558h-1.369c-1.699,0-3.081,1.382-3.081,3.081v1.712c0,1.699,1.382,3.081,3.081,3.081
		h29.441C168.172,334.098,169.555,332.715,169.555,331.016z M143.537,320.688c-0.944,0-1.712-0.768-1.712-1.712
		s0.768-1.712,1.712-1.712s1.712,0.768,1.712,1.712C145.248,319.921,144.481,320.688,143.537,320.688z"/>
	<path class="white-fill" d="M154.499,317.921c0.201,0.201,0.463,0.301,0.726,0.301s0.526-0.1,0.726-0.301l0.726-0.726l1.421,1.421
		l-0.376,1.882c-0.067,0.337,0.038,0.685,0.281,0.928l1.937,1.937c0.201,0.201,0.463,0.301,0.726,0.301s0.526-0.1,0.726-0.301
		c0.401-0.401,0.401-1.051,0-1.452l-1.548-1.548l0.242-1.21l1.21-0.242l1.548,1.548c0.201,0.201,0.463,0.301,0.726,0.301
		s0.526-0.1,0.726-0.301c0.401-0.401,0.401-1.051,0-1.452l-1.937-1.937c-0.243-0.243-0.591-0.348-0.928-0.281l-1.882,0.376
		l-1.421-1.421l0.726-0.726c0.193-0.193,0.302-0.456,0.301-0.73c-0.001-0.274-0.111-0.535-0.306-0.728l-0.709-0.7
		c-0.189,0.289-0.411,0.563-0.664,0.817l-3.612,3.612L154.499,317.921z"/>
</g>
<path class="grey-fill" d="M186.641,240.733c-1.379-1.379-3.615-1.379-4.994,0s-1.379,3.615,0,4.994s3.615,1.379,4.994,0
	S188.02,242.112,186.641,240.733z"/>
</svg>
