<?xml version="1.0" encoding="utf-8"?>
<!-- Generator: Adobe Illustrator 25.0.0, SVG Export Plug-In . SVG Version: 6.00 Build 0)  -->
<svg version="1.1" id="Layer_1" xmlns="http://www.w3.org/2000/svg" xmlns:xlink="http://www.w3.org/1999/xlink" x="0px" y="0px"
	 viewBox="0 0 400 400" style="enable-background:new 0 0 400 400;" xml:space="preserve">
<style type="text/css">
	.stem-focus-selected{fill:#FF0000;}
	.white-fill{fill:#FFFFFF;}
	.grey-fill{fill:#484848;}
</style>


<g title="coding-selected">
	<path class="stem-focus-selected" d="M45.104,100.953c-0.763,0-1.529,0.078-2.288,0.237c-3.083,0.646-5.748,2.566-7.338,5.285
		C18.431,135.63,9.42,168.973,9.42,202.9c0,33.928,9.011,67.271,26.057,96.425c1.59,2.719,4.255,4.639,7.338,5.285
		c0.759,0.159,1.526,0.237,2.288,0.237c2.336,0,4.634-0.734,6.555-2.13l81.166-58.97c4.211-3.059,5.745-8.625,3.697-13.409
		c-3.719-8.688-5.604-17.92-5.604-27.438c0-9.519,1.886-18.751,5.604-27.439c2.048-4.785,0.514-10.35-3.697-13.409l-81.165-58.97
		C49.738,101.688,47.44,100.953,45.104,100.953L45.104,100.953z"/>
	<path class="grey-fill" d="M158.965,201.251c-1.379-1.379-3.615-1.379-4.994,0s-1.379,3.615,0,4.994s3.615,1.379,4.994,0
		C160.344,204.866,160.344,202.63,158.965,201.251z"/>
	<path class="white-fill" d="M44.002,213.618c0.48-0.698,1.165-1.048,2.059-1.048c0.773,0,1.349,0.227,1.727,0.683
		c0.378,0.455,0.602,1.217,0.675,2.285h1.664c-0.06-1.409-0.436-2.492-1.128-3.247c-0.693-0.756-1.671-1.133-2.937-1.133
		c-1.373,0-2.456,0.494-3.251,1.484c-0.794,0.99-1.192,2.335-1.192,4.038v2.375c0,1.708,0.387,3.062,1.16,4.06
		c0.773,0.999,1.817,1.498,3.13,1.498c1.308,0,2.319-0.374,3.036-1.12c0.716-0.746,1.111-1.821,1.182-3.225h-1.664
		c-0.09,1.104-0.324,1.868-0.702,2.294c-0.378,0.426-0.995,0.639-1.853,0.639s-1.509-0.354-1.956-1.061
		c-0.447-0.708-0.67-1.724-0.67-3.05v-2.401C43.283,215.339,43.522,214.316,44.002,213.618z"/>
	<path class="white-fill" d="M55.55,214.521c-1.127,0-2.034,0.412-2.721,1.236c-0.687,0.825-1.03,1.945-1.03,3.359v1.062
		c0.024,1.361,0.376,2.44,1.057,3.237c0.681,0.798,1.585,1.197,2.712,1.197c1.139,0,2.05-0.411,2.734-1.232
		c0.683-0.822,1.025-1.937,1.025-3.346v-1.026c-0.018-1.385-0.37-2.479-1.057-3.283C57.584,214.923,56.678,214.521,55.55,214.521z
		 M57.735,220.214c-0.042,2.027-0.764,3.04-2.167,3.04c-0.666,0-1.195-0.286-1.588-0.859c-0.393-0.572-0.589-1.359-0.589-2.36
		v-0.926c0-0.99,0.196-1.773,0.589-2.352c0.393-0.579,0.916-0.868,1.569-0.868c0.666,0,1.197,0.289,1.592,0.868
		c0.396,0.579,0.593,1.366,0.593,2.36v1.097H57.735z"/>
	<path class="white-fill" d="M66.478,215.655c-0.522-0.756-1.247-1.133-2.177-1.133c-1.049,0-1.854,0.393-2.414,1.178
		c-0.561,0.785-0.841,1.928-0.841,3.427v0.998c0.013,1.427,0.305,2.532,0.877,3.315c0.573,0.783,1.363,1.174,2.37,1.174
		c0.971,0,1.717-0.408,2.239-1.224l0.081,1.043h1.457v-13.815h-1.592C66.478,210.618,66.478,215.655,66.478,215.655z
		 M66.478,222.006c-0.39,0.797-0.98,1.195-1.772,1.195c-0.731,0-1.259-0.256-1.583-0.768c-0.323-0.512-0.486-1.313-0.486-2.402
		v-0.97c0.006-1.06,0.171-1.846,0.495-2.358c0.324-0.512,0.852-0.768,1.583-0.768c0.767,0,1.355,0.389,1.763,1.168
		C66.478,217.103,66.478,222.006,66.478,222.006z"/>
	<path class="white-fill" d="M71.451,211.158c-0.3,0-0.524,0.093-0.674,0.279s-0.225,0.414-0.225,0.683c0,0.27,0.075,0.495,0.225,0.675
		s0.374,0.269,0.674,0.269c0.306,0,0.534-0.089,0.684-0.269s0.225-0.405,0.225-0.675c0-0.263-0.077-0.49-0.23-0.679
		C71.978,211.252,71.751,211.158,71.451,211.158z"/>
	<rect x="70.641" y="214.702" class="white-fill" width="1.592" height="9.731"/>
	<path class="white-fill" d="M78.646,214.521c-0.959,0-1.748,0.411-2.365,1.232l-0.045-1.052h-1.502v9.731h1.592v-7.069
		c0.192-0.426,0.445-0.77,0.76-1.034c0.315-0.263,0.67-0.396,1.065-0.396c0.51,0,0.892,0.161,1.147,0.481
		c0.255,0.321,0.382,0.862,0.382,1.623v6.394h1.583v-6.467C81.24,215.669,80.367,214.521,78.646,214.521z"/>
	<path class="white-fill" d="M88.917,214.702l-0.081,1.088c-0.516-0.846-1.268-1.268-2.258-1.268c-1.061,0-1.867,0.388-2.419,1.165
		s-0.827,1.923-0.827,3.44v1.08c0.024,1.42,0.317,2.51,0.881,3.269c0.564,0.758,1.349,1.138,2.356,1.138
		c0.948,0,1.679-0.381,2.195-1.143v1.268c-0.035,1.445-0.716,2.168-2.041,2.168c-0.798,0-1.526-0.324-2.185-0.971l-0.648,1.097
		c0.3,0.348,0.748,0.64,1.345,0.877c0.597,0.236,1.135,0.355,1.615,0.355c1.103,0,1.963-0.322,2.581-0.967
		c0.618-0.645,0.927-1.569,0.927-2.774v-9.821L88.917,214.702L88.917,214.702z M88.763,221.988
		c-0.396,0.808-0.989,1.213-1.781,1.213c-0.731,0-1.258-0.256-1.579-0.768c-0.321-0.512-0.481-1.313-0.481-2.402v-0.97
		c0.006-1.06,0.171-1.846,0.494-2.358c0.324-0.512,0.852-0.768,1.583-0.768c0.762,0,1.35,0.398,1.763,1.195L88.763,221.988
		L88.763,221.988z"/>
	<path class="white-fill" d="M79.554,178.061c-0.135-0.28-0.343-0.488-0.623-0.623c-9.257,0-18.515,0-27.772,0
		c-0.208,0.208-0.416,0.416-0.623,0.623c0,6.046,0,12.091,0,18.137c9.673,0,19.346,0,29.019,0
		C79.554,190.152,79.554,184.106,79.554,178.061z M67.598,180.046c0.002-0.651,0.581-1.068,1.153-0.847
		c0.339,0.131,0.542,0.438,0.544,0.847c0.004,0.84,0.001,1.681,0.001,2.521c0,0.803,0.002,1.605,0,2.408
		c-0.002,0.576-0.345,0.962-0.85,0.962s-0.849-0.387-0.85-0.962C67.595,183.332,67.592,181.689,67.598,180.046z M53.994,180.101
		c0.001-0.576,0.346-0.961,0.85-0.961c0.505,0.001,0.847,0.386,0.849,0.963c0.002,0.812,0.001,1.624,0.001,2.437
		c0,0.812,0.002,1.625-0.001,2.437c-0.002,0.576-0.346,0.961-0.851,0.961c-0.505-0.001-0.848-0.386-0.849-0.963
		C53.992,183.35,53.992,181.725,53.994,180.101z M58.925,192.811c-0.3,0.972-1.334,1.687-2.385,1.684
		c-1.061-0.003-2.099-0.705-2.37-1.691c-0.15-0.546-0.167-1.129-0.243-1.684c0.075-0.585,0.083-1.16,0.23-1.697
		c0.295-1.07,1.462-1.822,2.544-1.716c1.242,0.122,2.235,0.998,2.339,2.155C59.129,190.845,59.224,191.843,58.925,192.811z
		 M62.494,193.533c-0.001,0.575-0.346,0.962-0.849,0.962c-0.505,0-0.848-0.385-0.85-0.962c-0.002-0.812-0.001-1.624-0.001-2.437
		c0-0.812-0.002-1.624,0.001-2.437c0.002-0.577,0.344-0.962,0.849-0.962c0.505,0,0.849,0.385,0.85,0.961
		C62.496,190.284,62.496,191.909,62.494,193.533z M62.329,184.209c-0.291,1.06-1.441,1.811-2.514,1.721
		c-1.254-0.105-2.251-0.975-2.366-2.159c-0.094-0.972-0.196-1.965,0.108-2.92c0.286-0.898,0.944-1.452,1.856-1.646
		c0.947-0.202,1.771,0.078,2.431,0.799c0.448,0.49,0.637,1.08,0.65,1.734c0.005,0.264,0.001,0.529,0.001,0.793
		c0.021,0.003,0.042,0.005,0.063,0.008C62.486,183.097,62.477,183.672,62.329,184.209z M65.894,193.534
		c-0.001,0.576-0.345,0.962-0.85,0.961c-0.505,0-0.848-0.386-0.849-0.962c-0.002-0.812,0-1.624,0-2.436
		c0-0.812-0.002-1.624,0.001-2.437c0.002-0.573,0.349-0.963,0.85-0.962c0.505,0,0.848,0.386,0.849,0.963
		C65.896,190.285,65.896,191.909,65.894,193.534z M65.895,184.975c-0.002,0.576-0.345,0.962-0.85,0.962s-0.849-0.385-0.849-0.962
		c-0.002-1.624-0.002-3.249,0-4.873c0.001-0.577,0.345-0.962,0.849-0.962c0.505,0,0.848,0.385,0.85,0.962
		c0.002,0.812,0.001,1.624,0.001,2.437C65.895,183.351,65.897,184.163,65.895,184.975z M72.531,192.789
		c-0.288,0.897-0.948,1.448-1.86,1.641c-0.937,0.198-1.754-0.078-2.411-0.784c-0.459-0.494-0.653-1.092-0.664-1.757
		c-0.005-0.274-0.001-0.547-0.001-0.821c-0.021-0.003-0.042-0.005-0.063-0.008c0.072-0.548,0.084-1.113,0.23-1.64
		c0.293-1.057,1.447-1.808,2.519-1.715c1.255,0.109,2.25,0.984,2.36,2.164C72.732,190.843,72.838,191.836,72.531,192.789z
		 M71.043,183.766c-0.048-0.401-0.045-0.809-0.074-1.394c0.034-0.339,0.02-0.87,0.148-1.364c0.286-1.102,1.176-1.78,2.326-1.864
		c0.969-0.071,1.966,0.524,2.405,1.481c0.131,0.285,0.217,0.613,0.228,0.925c0.024,0.734,0.04,1.475-0.03,2.205
		c-0.119,1.23-1.239,2.177-2.493,2.182C72.307,185.942,71.188,184.984,71.043,183.766z M76.096,193.534
		c-0.002,0.576-0.345,0.962-0.85,0.962s-0.849-0.386-0.849-0.962c-0.002-1.624-0.002-3.249,0-4.873
		c0.001-0.573,0.348-0.963,0.85-0.962c0.505,0,0.847,0.386,0.849,0.962c0.002,0.822,0.001,1.643,0.001,2.465
		C76.097,191.928,76.099,192.731,76.096,193.534z"/>
	<path class="white-fill" d="M79.554,200.675c0-0.926,0-1.852,0-2.777c-9.673,0-19.346,0-29.019,0c0,0.926,0,1.852,0,2.777
		c0.225,0.492,0.614,0.632,1.141,0.631c8.912-0.011,17.824-0.011,26.736,0C78.939,201.307,79.328,201.166,79.554,200.675z"/>
	<path class="white-fill" d="M70.699,204.984c-0.171-0.133-0.426-0.211-0.646-0.218c-0.809-0.025-1.618-0.01-2.46-0.01
		c0-0.598,0-1.168,0-1.738c-1.716,0-3.4,0-5.106,0c0,0.583,0,1.146,0,1.736c-0.086,0-0.149,0-0.213,0
		c-0.774,0.001-1.548-0.004-2.322,0.005c-0.424,0.005-0.746,0.275-0.838,0.67c-0.086,0.37,0.1,0.745,0.465,0.942
		c0.047,0.026,0.092,0.057,0.137,0.085c3.552,0,7.104,0,10.655,0c0.071-0.042,0.142-0.083,0.212-0.126
		C71.074,206.029,71.15,205.335,70.699,204.984z"/>
	<path class="white-fill" d="M59.936,180.84c-0.464,0.005-0.83,0.367-0.839,0.856c-0.011,0.557-0.01,1.115,0,1.672
		c0.009,0.505,0.381,0.873,0.856,0.868s0.829-0.375,0.84-0.886c0.006-0.264,0.001-0.529,0.001-0.793c0-0.283,0.006-0.567-0.001-0.85
		C60.779,181.201,60.414,180.836,59.936,180.84z"/>
	<path class="white-fill" d="M73.558,180.84c-0.464-0.006-0.846,0.353-0.857,0.837c-0.013,0.576-0.014,1.152,0,1.728
		c0.012,0.474,0.378,0.825,0.833,0.831c0.465,0.006,0.84-0.353,0.859-0.836c0.011-0.283,0.002-0.567,0.002-0.85
		c0-0.293,0.01-0.586-0.002-0.878C74.374,181.201,74.011,180.846,73.558,180.84z"/>
	<path class="white-fill" d="M56.545,189.398c-0.464-0.001-0.838,0.36-0.848,0.847c-0.012,0.566-0.012,1.133,0,1.7
		c0.01,0.488,0.381,0.849,0.846,0.85c0.464,0,0.831-0.361,0.848-0.848c0.01-0.283,0.002-0.567,0.002-0.85s0.008-0.567-0.002-0.85
		C57.374,189.757,57.012,189.399,56.545,189.398z"/>
	<path class="white-fill" d="M70.146,189.398c-0.464,0-0.831,0.362-0.848,0.848c-0.01,0.283-0.002,0.567-0.002,0.85
		s-0.008,0.567,0.002,0.85c0.017,0.49,0.379,0.848,0.846,0.848c0.464,0,0.837-0.361,0.847-0.848c0.012-0.566,0.012-1.133,0-1.7
		C70.982,189.76,70.61,189.399,70.146,189.398z"/>
</g>

</svg>
