<svg xmlns="http://www.w3.org/2000/svg" xmlns:xlink="http://www.w3.org/1999/xlink" viewBox="0 0 300 300">

<circle class="offwhite-fill" filter="url(#dropshadow)" cx="150" cy="150" r="150"/>
<path class="offwhite-fill" filter="url(#innershadow)" d="M149.637,110.639c-21.872,0-39.603,17.731-39.603,39.603s17.731,39.603,39.603,39.603s39.603-17.731,39.603-39.603
	S171.51,110.639,149.637,110.639z"/>

<g title="coding">
	<path class="offwhite-fill" filter="url(#innershadow)" d="M35.436,75.194c-0.563,0-1.127,0.058-1.687,0.175c-2.273,0.476-4.238,1.892-5.411,3.897
		c-12.57,21.498-19.214,46.084-19.214,71.101c0,25.018,6.644,49.604,19.214,71.101c1.172,2.005,3.138,3.421,5.411,3.897
		c0.56,0.117,1.125,0.175,1.687,0.175c1.722,0,3.417-0.541,4.833-1.571l59.85-43.483c3.105-2.256,4.236-6.36,2.726-9.887
		c-2.742-6.406-4.132-13.214-4.132-20.232c0-7.019,1.391-13.826,4.132-20.233c1.51-3.528,0.379-7.632-2.726-9.887L40.27,76.764
		C38.853,75.736,37.159,75.194,35.436,75.194L35.436,75.194z"/>
	<g>
		<path d="M34.624,158.27c0.354-0.515,0.859-0.773,1.518-0.773c0.57,0,0.995,0.167,1.273,0.504c0.279,0.336,0.444,0.897,0.498,1.685
			h1.227c-0.044-1.039-0.321-1.838-0.832-2.394c-0.511-0.557-1.232-0.835-2.166-0.835c-1.012,0-1.811,0.364-2.397,1.094
			c-0.585,0.73-0.879,1.722-0.879,2.978v1.751c0,1.259,0.285,2.258,0.855,2.994c0.57,0.737,1.34,1.105,2.308,1.105
			c0.964,0,1.71-0.276,2.239-0.826c0.528-0.55,0.819-1.343,0.872-2.378h-1.227c-0.066,0.814-0.239,1.377-0.518,1.692
			c-0.279,0.314-0.734,0.471-1.366,0.471s-1.113-0.261-1.442-0.782c-0.33-0.522-0.494-1.271-0.494-2.249v-1.77
			C34.094,159.539,34.27,158.785,34.624,158.27z"/>
		<path d="M43.139,158.936c-0.831,0-1.5,0.304-2.006,0.911c-0.507,0.608-0.759,1.434-0.759,2.477v0.783
			c0.018,1.004,0.277,1.799,0.779,2.387c0.502,0.588,1.169,0.883,2,0.883c0.84,0,1.512-0.303,2.016-0.908
			c0.504-0.606,0.756-1.428,0.756-2.467v-0.757c-0.013-1.021-0.273-1.828-0.779-2.421C44.639,159.232,43.971,158.936,43.139,158.936
			z M44.75,163.134c-0.031,1.495-0.563,2.242-1.598,2.242c-0.491,0-0.881-0.211-1.171-0.633c-0.29-0.422-0.434-1.002-0.434-1.74
			v-0.683c0-0.73,0.145-1.307,0.434-1.734c0.29-0.427,0.675-0.64,1.157-0.64c0.491,0,0.883,0.213,1.174,0.64
			c0.292,0.427,0.437,1.007,0.437,1.74L44.75,163.134L44.75,163.134z"/>
		<path d="M51.197,159.772c-0.385-0.557-0.92-0.835-1.605-0.835c-0.774,0-1.367,0.29-1.78,0.869c-0.414,0.579-0.62,1.422-0.62,2.527
			v0.736c0.01,1.052,0.225,1.867,0.647,2.444c0.423,0.577,1.005,0.866,1.748,0.866c0.716,0,1.266-0.301,1.651-0.903l0.06,0.769
			h1.074v-10.187h-1.174C51.197,156.058,51.197,159.772,51.197,159.772z M51.197,164.455c-0.288,0.588-0.723,0.881-1.307,0.881
			c-0.539,0-0.928-0.189-1.167-0.566c-0.238-0.378-0.358-0.968-0.358-1.771v-0.715c0.004-0.782,0.126-1.361,0.365-1.739
			c0.239-0.378,0.628-0.566,1.167-0.566c0.566,0,0.999,0.287,1.3,0.861C51.197,160.84,51.197,164.455,51.197,164.455z"/>
		<path d="M54.864,156.456c-0.221,0-0.386,0.069-0.497,0.206c-0.111,0.137-0.166,0.305-0.166,0.504c0,0.199,0.055,0.365,0.166,0.498
			c0.111,0.133,0.276,0.198,0.497,0.198c0.226,0,0.394-0.066,0.504-0.198s0.166-0.299,0.166-0.498c0-0.194-0.057-0.361-0.17-0.501
			C55.253,156.525,55.085,156.456,54.864,156.456z"/>
		<rect x="54.267" y="159.069" width="1.174" height="7.175"/>
		<path d="M60.169,158.936c-0.707,0-1.289,0.303-1.744,0.908l-0.033-0.776h-1.108v7.175h1.174v-5.212
			c0.142-0.314,0.328-0.568,0.56-0.762c0.232-0.194,0.494-0.292,0.785-0.292c0.376,0,0.658,0.119,0.846,0.355
			c0.188,0.237,0.282,0.636,0.282,1.197v4.715h1.167v-4.769C62.082,159.782,61.438,158.936,60.169,158.936z"/>
		<path d="M67.743,159.069l-0.06,0.802c-0.38-0.624-0.935-0.935-1.665-0.935c-0.782,0-1.377,0.286-1.784,0.859
			c-0.407,0.573-0.61,1.418-0.61,2.537v0.796c0.018,1.047,0.234,1.851,0.65,2.41c0.416,0.559,0.995,0.839,1.737,0.839
			c0.699,0,1.238-0.281,1.619-0.843v0.935c-0.026,1.066-0.528,1.599-1.505,1.599c-0.588,0-1.125-0.239-1.611-0.716l-0.478,0.809
			c0.221,0.257,0.552,0.472,0.992,0.647c0.44,0.174,0.837,0.262,1.191,0.262c0.813,0,1.447-0.237,1.903-0.713
			s0.684-1.157,0.684-2.045v-7.242L67.743,159.069L67.743,159.069z M67.629,164.442c-0.292,0.596-0.729,0.894-1.313,0.894
			c-0.539,0-0.928-0.189-1.164-0.566s-0.355-0.968-0.355-1.771v-0.715c0.004-0.782,0.126-1.361,0.364-1.739
			c0.239-0.378,0.628-0.566,1.167-0.566c0.562,0,0.995,0.293,1.3,0.881L67.629,164.442L67.629,164.442z"/>
		<path d="M60.839,132.051c-0.1-0.206-0.253-0.36-0.459-0.459c-6.826,0-13.652,0-20.478,0c-0.153,0.153-0.307,0.307-0.459,0.459
			c0,4.458,0,8.916,0,13.374c7.133,0,14.265,0,21.398,0C60.839,140.967,60.839,136.509,60.839,132.051z M52.023,133.515
			c0.001-0.48,0.428-0.788,0.85-0.625c0.25,0.097,0.4,0.323,0.401,0.625c0.003,0.619,0.001,1.24,0.001,1.859
			c0,0.592,0.001,1.183,0,1.776c-0.001,0.425-0.254,0.709-0.627,0.709c-0.372,0-0.626-0.285-0.627-0.709
			C52.021,135.938,52.019,134.726,52.023,133.515z M41.992,133.555c0.001-0.425,0.255-0.709,0.627-0.709
			c0.372,0.001,0.625,0.285,0.626,0.71c0.001,0.599,0.001,1.197,0.001,1.797c0,0.599,0.001,1.198-0.001,1.797
			c-0.001,0.425-0.255,0.709-0.628,0.709c-0.372-0.001-0.625-0.285-0.626-0.71C41.99,135.951,41.99,134.753,41.992,133.555z
			 M45.628,142.927c-0.221,0.717-0.984,1.244-1.759,1.242c-0.782-0.002-1.548-0.52-1.748-1.247
			c-0.111-0.403-0.123-0.832-0.179-1.242c0.055-0.431,0.061-0.855,0.17-1.251c0.218-0.789,1.078-1.343,1.876-1.265
			c0.916,0.09,1.648,0.736,1.725,1.589C45.778,141.478,45.848,142.214,45.628,142.927z M48.259,143.46
			c-0.001,0.424-0.255,0.709-0.626,0.709c-0.372,0-0.625-0.284-0.627-0.709c-0.001-0.599-0.001-1.197-0.001-1.797
			c0-0.599-0.001-1.197,0.001-1.797c0.001-0.425,0.254-0.709,0.626-0.709c0.372,0,0.626,0.284,0.627,0.709
			C48.261,141.064,48.261,142.262,48.259,143.46z M48.138,136.584c-0.215,0.782-1.063,1.335-1.854,1.269
			c-0.925-0.077-1.66-0.719-1.745-1.592c-0.069-0.717-0.145-1.449,0.08-2.153c0.211-0.662,0.696-1.071,1.369-1.214
			c0.698-0.149,1.306,0.058,1.793,0.589c0.33,0.361,0.47,0.796,0.479,1.279c0.004,0.195,0.001,0.39,0.001,0.585
			c0.015,0.002,0.031,0.004,0.046,0.006C48.254,135.765,48.247,136.189,48.138,136.584z M50.766,143.46
			c-0.001,0.425-0.254,0.709-0.627,0.709c-0.372,0-0.625-0.285-0.626-0.709c-0.001-0.599,0-1.197,0-1.796
			c0-0.599-0.001-1.197,0.001-1.797c0.001-0.423,0.257-0.71,0.627-0.709c0.372,0,0.625,0.285,0.626,0.71
			C50.768,141.065,50.768,142.262,50.766,143.46z M50.767,137.149c-0.001,0.425-0.254,0.709-0.627,0.709s-0.626-0.284-0.626-0.709
			c-0.001-1.197-0.001-2.396,0-3.593c0.001-0.425,0.254-0.709,0.626-0.709c0.372,0,0.625,0.284,0.627,0.709
			c0.001,0.599,0.001,1.197,0.001,1.797C50.767,135.952,50.769,136.551,50.767,137.149z M55.66,142.911
			c-0.212,0.661-0.699,1.068-1.372,1.21c-0.691,0.146-1.293-0.058-1.778-0.578c-0.338-0.364-0.482-0.805-0.49-1.296
			c-0.004-0.202-0.001-0.403-0.001-0.605c-0.015-0.002-0.031-0.004-0.046-0.006c0.053-0.404,0.062-0.821,0.17-1.209
			c0.216-0.779,1.067-1.333,1.857-1.265c0.925,0.08,1.659,0.726,1.74,1.596C55.809,141.476,55.887,142.208,55.66,142.911z
			 M54.563,136.258c-0.035-0.296-0.033-0.597-0.055-1.028c0.025-0.25,0.015-0.642,0.109-1.006c0.211-0.813,0.867-1.313,1.715-1.374
			c0.715-0.052,1.45,0.386,1.773,1.092c0.097,0.21,0.16,0.452,0.168,0.682c0.018,0.541,0.029,1.088-0.022,1.626
			c-0.088,0.907-0.914,1.605-1.838,1.609C55.495,137.862,54.67,137.156,54.563,136.258z M58.289,143.46
			c-0.001,0.425-0.254,0.709-0.627,0.709s-0.626-0.285-0.626-0.709c-0.001-1.197-0.001-2.396,0-3.593
			c0.001-0.423,0.257-0.71,0.627-0.709c0.372,0,0.625,0.285,0.626,0.709c0.001,0.606,0.001,1.212,0.001,1.818
			C58.29,142.276,58.291,142.868,58.289,143.46z"/>
		<path d="M60.839,148.726c0-0.683,0-1.366,0-2.048c-7.133,0-14.265,0-21.398,0c0,0.683,0,1.366,0,2.048
			c0.166,0.363,0.453,0.466,0.841,0.465c6.571-0.008,13.143-0.008,19.714,0C60.386,149.192,60.672,149.088,60.839,148.726z"/>
		<path d="M54.31,151.903c-0.126-0.098-0.314-0.156-0.476-0.161c-0.597-0.018-1.193-0.007-1.814-0.007c0-0.441,0-0.861,0-1.282
			c-1.265,0-2.507,0-3.765,0c0,0.43,0,0.845,0,1.28c-0.063,0-0.11,0-0.157,0c-0.571,0.001-1.141-0.003-1.712,0.004
			c-0.313,0.004-0.55,0.203-0.618,0.494c-0.063,0.273,0.074,0.549,0.343,0.695c0.035,0.019,0.068,0.042,0.101,0.063
			c2.619,0,5.238,0,7.857,0c0.052-0.031,0.105-0.061,0.156-0.093C54.586,152.674,54.642,152.162,54.31,151.903z"/>
		<path d="M46.373,134.1c-0.342,0.004-0.612,0.271-0.619,0.631c-0.008,0.411-0.007,0.822,0,1.233
			c0.007,0.372,0.281,0.644,0.631,0.64c0.35-0.004,0.611-0.277,0.619-0.653c0.004-0.195,0.001-0.39,0.001-0.585
			c0-0.209,0.004-0.418-0.001-0.627C46.995,134.366,46.726,134.097,46.373,134.1z"/>
		<path d="M56.418,134.1c-0.342-0.004-0.624,0.26-0.632,0.617c-0.01,0.425-0.01,0.849,0,1.274c0.009,0.35,0.279,0.608,0.614,0.613
			c0.343,0.004,0.619-0.26,0.633-0.616c0.008-0.209,0.001-0.418,0.001-0.627c0-0.216,0.007-0.432-0.001-0.647
			C57.019,134.366,56.752,134.105,56.418,134.1z"/>
		<path d="M43.873,140.411c-0.342-0.001-0.618,0.265-0.625,0.625c-0.009,0.417-0.009,0.835,0,1.254
			c0.007,0.36,0.281,0.626,0.624,0.627c0.342,0,0.613-0.266,0.625-0.625c0.007-0.209,0.001-0.418,0.001-0.627
			s0.006-0.418-0.001-0.627C44.484,140.675,44.217,140.411,43.873,140.411z"/>
		<path d="M53.902,140.411c-0.342,0-0.613,0.267-0.625,0.625c-0.007,0.209-0.001,0.418-0.001,0.627s-0.006,0.418,0.001,0.627
			c0.013,0.361,0.279,0.625,0.624,0.625c0.342,0,0.617-0.266,0.625-0.625c0.009-0.417,0.009-0.835,0-1.254
			C54.518,140.678,54.244,140.411,53.902,140.411z"/>
	</g>
</g>
<g title="engineering">
	<path class="offwhite-fill" filter="url(#innershadow)" d="M150.187,9.305c-20.45,0-40.177,4.283-58.634,12.732c-17.825,8.159-33.508,19.74-46.617,34.422
		c-1.548,1.734-2.29,4.042-2.042,6.353c0.248,2.311,1.462,4.409,3.343,5.776l59.853,43.486c1.446,1.051,3.141,1.571,4.832,1.571
		c1.939,0,3.87-0.683,5.413-2.032c9.381-8.201,21.403-12.718,33.852-12.718c1.454,0,2.966,0.072,4.62,0.218
		c0.246,0.022,0.49,0.032,0.732,0.032c3.531,0,6.707-2.271,7.815-5.681l22.868-70.381c0.718-2.211,0.467-4.623-0.692-6.639
		c-1.159-2.016-3.117-3.446-5.389-3.938C170.329,10.382,160.251,9.305,150.187,9.305L150.187,9.305z"/>
	<g>
		<polygon points="90.026,70.961 93.442,70.961 93.442,69.919 90.026,69.919 90.026,66.809 93.94,66.809 93.94,65.768
			88.813,65.768 88.813,75.424 94.006,75.424 94.006,74.383 90.026,74.383 		"/>
		<path d="M98.277,68.116c-0.707,0-1.289,0.303-1.744,0.908L96.5,68.248h-1.108v7.175h1.174v-5.212
			c0.142-0.314,0.328-0.568,0.56-0.762c0.232-0.194,0.494-0.292,0.785-0.292c0.376,0,0.658,0.119,0.846,0.355
			c0.188,0.237,0.282,0.636,0.282,1.197v4.715h1.167v-4.769C100.189,68.962,99.546,68.116,98.277,68.116z"/>
		<path d="M105.79,69.051c-0.38-0.624-0.935-0.935-1.665-0.935c-0.782,0-1.377,0.286-1.784,0.859
			c-0.407,0.573-0.61,1.418-0.61,2.537v0.796c0.018,1.047,0.234,1.851,0.65,2.41c0.416,0.559,0.995,0.839,1.737,0.839
			c0.699,0,1.238-0.281,1.619-0.843v0.935c-0.026,1.066-0.528,1.599-1.505,1.599c-0.588,0-1.125-0.239-1.611-0.716l-0.478,0.809
			c0.221,0.257,0.552,0.472,0.992,0.647c0.44,0.174,0.837,0.262,1.191,0.262c0.813,0,1.447-0.237,1.903-0.713
			c0.456-0.476,0.684-1.157,0.684-2.045v-7.242h-1.061L105.79,69.051z M105.737,73.621c-0.292,0.596-0.729,0.894-1.313,0.894
			c-0.539,0-0.928-0.189-1.164-0.566c-0.237-0.378-0.355-0.968-0.355-1.771v-0.715c0.004-0.782,0.126-1.361,0.364-1.739
			c0.239-0.378,0.628-0.566,1.167-0.566c0.562,0,0.995,0.293,1.3,0.881L105.737,73.621L105.737,73.621z"/>
		<path d="M109.345,65.635c-0.221,0-0.386,0.069-0.497,0.206s-0.166,0.305-0.166,0.504c0,0.199,0.055,0.365,0.166,0.498
			c0.111,0.133,0.276,0.198,0.497,0.198c0.226,0,0.394-0.066,0.504-0.198c0.111-0.133,0.166-0.299,0.166-0.498
			c0-0.194-0.057-0.361-0.17-0.501C109.733,65.705,109.566,65.635,109.345,65.635z"/>
		<rect x="108.748" y="68.248" width="1.174" height="7.175"/>
		<path d="M114.65,68.116c-0.707,0-1.289,0.303-1.744,0.908l-0.033-0.776h-1.108v7.175h1.174v-5.212
			c0.142-0.314,0.328-0.568,0.56-0.762c0.232-0.194,0.494-0.292,0.785-0.292c0.376,0,0.658,0.119,0.846,0.355
			c0.188,0.237,0.282,0.636,0.282,1.197v4.715h1.167v-4.769C116.562,68.962,115.919,68.116,114.65,68.116z"/>
		<path d="M120.771,68.116c-0.835,0-1.487,0.304-1.953,0.911c-0.467,0.608-0.7,1.447-0.7,2.517v0.869
			c0.009,1.03,0.252,1.811,0.73,2.344c0.477,0.533,1.163,0.799,2.056,0.799c1.043,0,1.819-0.358,2.328-1.074l-0.611-0.743
			c-0.229,0.283-0.476,0.49-0.739,0.62c-0.263,0.131-0.567,0.195-0.912,0.195c-0.543,0-0.961-0.175-1.251-0.524
			c-0.29-0.35-0.434-0.909-0.434-1.678v-0.166h4.006v-0.769c-0.01-1.132-0.221-1.965-0.636-2.5
			C122.239,68.383,121.611,68.116,120.771,68.116z M122.118,71.18h-2.825c0.031-0.703,0.163-1.222,0.397-1.556
			c0.234-0.334,0.594-0.501,1.081-0.501c0.438,0,0.764,0.147,0.978,0.438c0.214,0.292,0.337,0.778,0.368,1.459V71.18z"/>
		<path d="M127.131,68.116c-0.835,0-1.487,0.304-1.953,0.911c-0.467,0.608-0.7,1.447-0.7,2.517v0.869
			c0.009,1.03,0.252,1.811,0.73,2.344c0.477,0.533,1.163,0.799,2.056,0.799c1.043,0,1.819-0.358,2.328-1.074l-0.611-0.743
			c-0.229,0.283-0.476,0.49-0.739,0.62c-0.263,0.131-0.567,0.195-0.912,0.195c-0.543,0-0.961-0.175-1.251-0.524
			c-0.29-0.35-0.434-0.909-0.434-1.678v-0.166h4.006v-0.769c-0.01-1.132-0.221-1.965-0.636-2.5
			C128.599,68.383,127.971,68.116,127.131,68.116z M128.477,71.18h-2.825c0.031-0.703,0.163-1.222,0.397-1.556
			c0.234-0.334,0.594-0.501,1.081-0.501c0.438,0,0.764,0.147,0.978,0.438c0.214,0.292,0.337,0.778,0.368,1.459V71.18z"/>
		<path d="M133.551,68.116c-0.574,0-1.019,0.288-1.333,0.862l-0.02-0.729h-1.141v7.175h1.174v-5.133
			c0.238-0.659,0.658-0.989,1.259-0.989c0.19,0,0.367,0.015,0.53,0.046l-0.006-1.141C133.891,68.147,133.737,68.116,133.551,68.116z
			"/>
		<rect x="135.281" y="68.248" width="1.174" height="7.175"/>
		<path d="M135.878,65.635c-0.221,0-0.386,0.069-0.497,0.206s-0.166,0.305-0.166,0.504c0,0.199,0.055,0.365,0.166,0.498
			c0.111,0.133,0.276,0.198,0.497,0.198c0.226,0,0.394-0.066,0.504-0.198c0.111-0.133,0.166-0.299,0.166-0.498
			c0-0.194-0.057-0.361-0.17-0.501C136.266,65.705,136.1,65.635,135.878,65.635z"/>
		<path d="M141.184,68.116c-0.707,0-1.289,0.303-1.744,0.908l-0.033-0.776h-1.108v7.175h1.174v-5.212
			c0.142-0.314,0.328-0.568,0.56-0.762c0.232-0.194,0.494-0.292,0.785-0.292c0.376,0,0.658,0.119,0.846,0.355
			c0.188,0.237,0.282,0.636,0.282,1.197v4.715h1.167v-4.769C143.097,68.962,142.453,68.116,141.184,68.116z"/>
		<path d="M148.757,68.248l-0.06,0.802c-0.38-0.624-0.935-0.935-1.665-0.935c-0.782,0-1.377,0.286-1.784,0.859
			c-0.407,0.573-0.61,1.418-0.61,2.537v0.796c0.018,1.047,0.234,1.851,0.65,2.41c0.416,0.559,0.995,0.839,1.737,0.839
			c0.699,0,1.238-0.281,1.619-0.843v0.935c-0.026,1.065-0.528,1.599-1.505,1.599c-0.588,0-1.125-0.239-1.611-0.716l-0.478,0.809
			c0.221,0.257,0.552,0.472,0.992,0.647c0.44,0.174,0.837,0.262,1.191,0.262c0.813,0,1.447-0.237,1.903-0.713
			s0.683-1.157,0.683-2.045v-7.242L148.757,68.248L148.757,68.248z M148.645,73.621c-0.292,0.596-0.729,0.894-1.313,0.894
			c-0.539,0-0.928-0.189-1.164-0.566c-0.237-0.378-0.355-0.968-0.355-1.771v-0.715c0.004-0.782,0.126-1.361,0.364-1.739
			c0.239-0.378,0.628-0.566,1.167-0.566c0.562,0,0.995,0.293,1.3,0.881L148.645,73.621L148.645,73.621z"/>
		<path d="M118.749,59.922c0.241-0.237,0.48-0.476,0.717-0.717c0.264-0.269,0.277-0.442,0.06-0.754
			c-0.172-0.247-0.344-0.494-0.521-0.738c-0.085-0.117-0.097-0.24-0.045-0.369c0.133-0.328,0.268-0.655,0.406-0.98
			c0.05-0.119,0.139-0.194,0.274-0.217c0.341-0.058,0.682-0.114,1.02-0.184c0.237-0.049,0.353-0.173,0.361-0.412
			c0.014-0.427,0.015-0.855,0.001-1.282c-0.009-0.26-0.134-0.386-0.396-0.437c-0.327-0.064-0.656-0.118-0.986-0.168
			c-0.144-0.022-0.234-0.088-0.288-0.226c-0.128-0.325-0.261-0.648-0.401-0.968c-0.062-0.142-0.055-0.26,0.04-0.385
			c0.164-0.217,0.327-0.437,0.474-0.666c0.297-0.461,0.312-0.445-0.07-0.88c-0.204-0.232-0.432-0.443-0.653-0.66
			c-0.271-0.266-0.453-0.283-0.766-0.068c-0.245,0.168-0.487,0.34-0.726,0.518c-0.128,0.095-0.251,0.108-0.398,0.046
			c-0.329-0.14-0.661-0.273-0.994-0.403c-0.13-0.051-0.205-0.132-0.227-0.274c-0.051-0.325-0.103-0.65-0.167-0.974
			c-0.057-0.29-0.19-0.409-0.485-0.418c-0.378-0.012-0.757-0.015-1.136-0.003c-0.357,0.013-0.485,0.133-0.551,0.482
			c-0.056,0.299-0.107,0.601-0.149,0.903c-0.022,0.158-0.091,0.256-0.243,0.316c-0.325,0.128-0.646,0.266-0.967,0.406
			c-0.13,0.057-0.238,0.043-0.352-0.043c-0.246-0.187-0.497-0.369-0.75-0.546c-0.302-0.212-0.47-0.198-0.732,0.059
			c-0.247,0.242-0.492,0.487-0.734,0.734c-0.261,0.266-0.275,0.432-0.06,0.743c0.173,0.251,0.351,0.499,0.533,0.744
			c0.095,0.128,0.106,0.252,0.043,0.398c-0.133,0.31-0.259,0.622-0.38,0.937c-0.057,0.148-0.15,0.232-0.309,0.255
			c-0.282,0.041-0.561,0.1-0.843,0.138c-0.276,0.038-0.479,0.148-0.532,0.446c0,0.432,0,0.863,0,1.295
			c0.052,0.319,0.279,0.42,0.561,0.464c0.277,0.043,0.552,0.099,0.828,0.146c0.144,0.024,0.249,0.099,0.306,0.232
			c0.137,0.321,0.274,0.643,0.406,0.966c0.052,0.128,0.038,0.253-0.045,0.37c-0.17,0.238-0.336,0.479-0.504,0.719
			c-0.226,0.321-0.214,0.494,0.061,0.771c0.226,0.228,0.453,0.455,0.683,0.681c0.315,0.31,0.461,0.321,0.827,0.064
			c0.233-0.163,0.467-0.324,0.7-0.489c0.124-0.088,0.254-0.102,0.392-0.044c0.3,0.125,0.6,0.248,0.9,0.374
			c0.142,0.06,0.226,0.165,0.253,0.319c0.048,0.28,0.104,0.56,0.144,0.841c0.038,0.277,0.155,0.476,0.452,0.525
			c0.432,0,0.863,0,1.296,0c0.296-0.051,0.414-0.247,0.453-0.526c0.041-0.29,0.1-0.577,0.151-0.865
			c0.024-0.136,0.1-0.232,0.224-0.284c0.321-0.137,0.644-0.271,0.968-0.403c0.133-0.054,0.26-0.046,0.381,0.041
			c0.241,0.173,0.484,0.344,0.729,0.513C118.291,60.199,118.482,60.185,118.749,59.922z M114.42,58.724
			c-2.102-0.002-3.831-1.724-3.825-3.809c0.007-2.149,1.716-3.849,3.865-3.844c2.079,0.005,3.794,1.739,3.79,3.834
			C118.246,57.007,116.522,58.726,114.42,58.724z"/>
		<path d="M131.464,48.313c-0.04-0.028-0.082-0.054-0.123-0.079c-0.406-0.248-0.813-0.496-1.219-0.743
			c-0.116-0.071-0.184-0.169-0.186-0.308c-0.007-0.557-0.015-1.116-0.024-1.673c-0.003-0.156,0.058-0.271,0.194-0.354
			c0.215-0.131,0.427-0.269,0.639-0.406c0.215-0.14,0.433-0.275,0.641-0.425c0.305-0.221,0.377-0.466,0.258-0.824
			c-0.023-0.069-0.052-0.137-0.08-0.204c-0.16-0.374-0.32-0.748-0.483-1.12c-0.06-0.137-0.121-0.277-0.198-0.405
			c-0.143-0.237-0.364-0.327-0.636-0.295c-0.06,0.007-0.121,0.019-0.18,0.033c-0.462,0.113-0.925,0.225-1.386,0.34
			c-0.13,0.032-0.249,0.032-0.352-0.069c-0.43-0.417-0.861-0.832-1.29-1.248c-0.088-0.086-0.119-0.185-0.091-0.31
			c0.107-0.48,0.209-0.962,0.31-1.443c0.096-0.451-0.036-0.701-0.462-0.881c-0.105-0.044-0.211-0.086-0.316-0.128
			c-0.408-0.162-0.813-0.332-1.225-0.485c-0.386-0.145-0.63-0.056-0.858,0.287c-0.029,0.044-0.056,0.09-0.084,0.135
			c-0.235,0.38-0.472,0.76-0.705,1.143c-0.088,0.145-0.205,0.218-0.379,0.22c-0.538,0.006-1.075,0.015-1.612,0.035
			c-0.178,0.007-0.288-0.062-0.379-0.208c-0.256-0.411-0.518-0.818-0.785-1.223c-0.226-0.344-0.508-0.429-0.886-0.271
			c-0.513,0.216-1.025,0.437-1.535,0.659c-0.395,0.173-0.523,0.438-0.424,0.855c0.114,0.479,0.224,0.958,0.34,1.436
			c0.035,0.144,0.007,0.271-0.09,0.375c-0.392,0.42-0.788,0.835-1.184,1.251c-0.085,0.089-0.187,0.117-0.311,0.088
			c-0.476-0.107-0.953-0.208-1.431-0.31c-0.456-0.097-0.72,0.042-0.897,0.477c-0.198,0.486-0.392,0.973-0.585,1.46
			c-0.171,0.431-0.086,0.701,0.307,0.946c0.372,0.233,0.745,0.467,1.127,0.682c0.234,0.132,0.33,0.307,0.323,0.575
			c-0.013,0.48,0.002,0.961,0,1.442c-0.001,0.096,0.033,0.131,0.125,0.153c0.411,0.101,0.818,0.212,1.228,0.319
			c0.242,0.063,0.484,0.125,0.74,0.192c-0.442-1.675-0.223-3.235,0.755-4.651c0.979-1.417,2.351-2.22,4.064-2.386
			c3.126-0.304,5.908,2.199,5.948,5.444c0.018,1.467-0.478,2.733-1.496,3.79c-1.482,1.537-3.286,2-5.378,1.568
			c0.021,0.089,0.032,0.148,0.05,0.206c0.16,0.534,0.321,1.067,0.481,1.6c0.056,0.187,0.097,0.218,0.296,0.215
			c0.48-0.01,0.961-0.019,1.441-0.03c0.169-0.004,0.296,0.061,0.389,0.205c0.265,0.41,0.532,0.819,0.802,1.226
			c0.236,0.355,0.512,0.441,0.905,0.277c0.506-0.212,1.011-0.428,1.513-0.648c0.41-0.18,0.532-0.436,0.428-0.873
			c-0.111-0.47-0.223-0.942-0.339-1.411c-0.035-0.145-0.027-0.269,0.086-0.382c0.397-0.398,0.79-0.799,1.184-1.2
			c0.105-0.107,0.228-0.142,0.378-0.11c0.497,0.107,0.994,0.214,1.493,0.309c0.356,0.068,0.613-0.058,0.755-0.389
			c0.235-0.549,0.458-1.104,0.669-1.663C131.851,48.76,131.759,48.523,131.464,48.313z"/>
		<path d="M122.553,50.171c1.967,0.008,3.581-1.601,3.59-3.577c0.008-1.978-1.59-3.586-3.568-3.593
			c-1.987-0.007-3.58,1.581-3.591,3.58C118.971,48.551,120.574,50.163,122.553,50.171z"/>
	</g>
</g>
<g title="general-education">
	<path class="offwhite-fill" filter="url(#innershadow)" d="M203.673,20.522c-1.146,0-2.291,0.239-3.359,0.717c-2.121,0.95-3.742,2.753-4.46,4.964l-22.866,70.376
		c-1.184,3.646,0.307,7.626,3.596,9.595c12.021,7.197,20.689,19.128,23.782,32.732c0.851,3.743,4.179,6.4,8.018,6.4h73.986
		c2.322,0,4.536-0.982,6.094-2.703c1.559-1.721,2.317-4.021,2.087-6.332c-5.012-50.473-37.032-94.559-83.564-115.052
		C205.93,20.754,204.801,20.522,203.673,20.522L203.673,20.522z"/>
	<g>
		<path d="M212.869,95.41c0.323-0.453,0.832-0.679,1.525-0.679c0.58,0,1.012,0.169,1.297,0.507c0.285,0.338,0.452,0.808,0.501,1.409
			h1.214c-0.053-0.95-0.339-1.681-0.859-2.191c-0.52-0.511-1.239-0.765-2.158-0.765c-1.079,0-1.889,0.337-2.43,1.011
			c-0.542,0.675-0.813,1.689-0.813,3.041v1.897c0.013,1.265,0.317,2.242,0.912,2.934c0.594,0.692,1.414,1.038,2.457,1.038
			c1.176,0,2.068-0.356,2.679-1.068l0.212-0.265V98.67h-2.978v1.041h1.764v2.218l-0.179,0.165c-0.34,0.316-0.838,0.476-1.492,0.476
			c-0.694,0-1.227-0.26-1.598-0.779c-0.372-0.519-0.557-1.266-0.557-2.238v-1.97C212.378,96.587,212.546,95.864,212.869,95.41z"/>
		<path d="M221.656,96.17c-0.835,0-1.487,0.304-1.953,0.911c-0.467,0.608-0.7,1.447-0.7,2.517v0.869
			c0.009,1.03,0.252,1.811,0.73,2.344c0.477,0.533,1.163,0.799,2.056,0.799c1.043,0,1.819-0.358,2.328-1.074l-0.611-0.743
			c-0.229,0.283-0.476,0.49-0.739,0.62c-0.263,0.131-0.567,0.195-0.912,0.195c-0.543,0-0.961-0.175-1.251-0.524
			c-0.29-0.35-0.434-0.909-0.434-1.678v-0.166h4.006v-0.769c-0.01-1.132-0.221-1.965-0.636-2.5
			C223.124,96.437,222.495,96.17,221.656,96.17z M223.002,99.234h-2.825c0.031-0.703,0.163-1.222,0.397-1.556
			s0.594-0.501,1.081-0.501c0.438,0,0.764,0.147,0.978,0.438c0.214,0.291,0.337,0.778,0.368,1.459V99.234z"/>
		<path d="M228.467,96.17c-0.707,0-1.289,0.303-1.744,0.908l-0.033-0.776h-1.108v7.175h1.174v-5.212
			c0.142-0.314,0.328-0.568,0.56-0.762c0.232-0.194,0.494-0.291,0.785-0.291c0.376,0,0.658,0.119,0.846,0.355
			c0.188,0.237,0.282,0.636,0.282,1.197v4.715h1.167v-4.769C230.379,97.016,229.736,96.17,228.467,96.17z"/>
		<path d="M234.588,96.17c-0.835,0-1.487,0.304-1.953,0.911c-0.467,0.608-0.7,1.447-0.7,2.517v0.869
			c0.009,1.03,0.252,1.811,0.73,2.344c0.477,0.533,1.163,0.799,2.056,0.799c1.043,0,1.819-0.358,2.328-1.074l-0.611-0.743
			c-0.229,0.283-0.476,0.49-0.739,0.62c-0.263,0.131-0.567,0.195-0.912,0.195c-0.543,0-0.961-0.175-1.251-0.524
			c-0.29-0.35-0.434-0.909-0.434-1.678v-0.166h4.006v-0.769c-0.01-1.132-0.221-1.965-0.636-2.5
			C236.056,96.437,235.428,96.17,234.588,96.17z M235.934,99.234h-2.825c0.031-0.703,0.163-1.222,0.397-1.556
			s0.594-0.501,1.081-0.501c0.438,0,0.764,0.147,0.978,0.438c0.214,0.291,0.337,0.778,0.368,1.459V99.234z"/>
		<path d="M239.688,98.345c0.238-0.659,0.658-0.989,1.259-0.989c0.19,0,0.367,0.015,0.53,0.046l-0.006-1.141
			c-0.124-0.061-0.279-0.092-0.465-0.092c-0.574,0-1.019,0.288-1.332,0.862l-0.02-0.729h-1.141v7.175h1.174V98.345z"/>
		<path d="M247.068,98.312c-0.009-0.699-0.204-1.231-0.587-1.595c-0.382-0.365-0.941-0.547-1.674-0.547
			c-0.451,0-0.86,0.095-1.227,0.285c-0.366,0.19-0.658,0.452-0.875,0.786c-0.217,0.334-0.325,0.684-0.325,1.051h1.174
			c0-0.323,0.111-0.589,0.331-0.799c0.221-0.209,0.508-0.315,0.862-0.315c0.389,0,0.679,0.091,0.869,0.272
			c0.19,0.181,0.285,0.487,0.285,0.915v0.762h-0.862c-0.863,0.009-1.541,0.228-2.037,0.656c-0.496,0.428-0.743,1.008-0.743,1.737
			c0,0.664,0.182,1.177,0.547,1.542c0.365,0.365,0.872,0.547,1.522,0.547c0.645,0,1.176-0.305,1.591-0.915
			c0.031,0.366,0.082,0.628,0.153,0.782h1.22v-0.106c-0.147-0.406-0.221-0.886-0.226-1.439L247.068,98.312L247.068,98.312z
			 M245.902,101.707c-0.119,0.239-0.31,0.438-0.57,0.597c-0.261,0.159-0.535,0.239-0.822,0.239c-0.389,0-0.666-0.092-0.829-0.276
			c-0.164-0.183-0.246-0.479-0.246-0.885c0-0.434,0.161-0.771,0.484-1.012c0.323-0.241,0.763-0.366,1.32-0.375h0.664
			L245.902,101.707L245.902,101.707z"/>
		<rect x="248.979" y="93.291" width="1.174" height="10.187"/>
		<polygon points="212.577,115.313 215.993,115.313 215.993,114.272 212.577,114.272 212.577,111.161 216.49,111.161 216.49,110.12
			211.363,110.12 211.363,119.776 216.556,119.776 216.556,118.735 212.577,118.735 		"/>
		<path d="M221.703,113.304c-0.385-0.557-0.92-0.835-1.605-0.835c-0.774,0-1.367,0.29-1.78,0.869
			c-0.414,0.579-0.62,1.422-0.62,2.527v0.736c0.01,1.052,0.225,1.867,0.647,2.444c0.423,0.577,1.005,0.866,1.748,0.866
			c0.716,0,1.266-0.301,1.651-0.903l0.06,0.769h1.074V109.59h-1.174V113.304z M221.703,117.986
			c-0.288,0.588-0.723,0.881-1.307,0.881c-0.539,0-0.928-0.189-1.167-0.566c-0.238-0.378-0.358-0.968-0.358-1.771v-0.715
			c0.004-0.782,0.126-1.361,0.365-1.739c0.239-0.378,0.628-0.566,1.167-0.566c0.566,0,0.999,0.287,1.3,0.861V117.986z"/>
		<path d="M228.307,117.913c-0.27,0.636-0.76,0.955-1.473,0.955c-0.672,0-1.008-0.56-1.008-1.678v-4.589h-1.167v4.676
			c0.004,0.858,0.173,1.511,0.504,1.959c0.331,0.448,0.822,0.673,1.473,0.673c0.747,0,1.315-0.254,1.705-0.762l0.026,0.63h1.114
			v-7.175h-1.174L228.307,117.913L228.307,117.913z"/>
		<path d="M232.572,113.99c0.252-0.343,0.639-0.515,1.161-0.515c0.402,0,0.717,0.133,0.945,0.398
			c0.228,0.265,0.355,0.663,0.381,1.194h1.108c-0.026-0.804-0.255-1.439-0.686-1.904c-0.431-0.464-1.014-0.696-1.748-0.696
			c-0.889,0-1.565,0.282-2.03,0.846c-0.464,0.563-0.696,1.387-0.696,2.47v0.789c0,1.105,0.233,1.937,0.7,2.497
			c0.466,0.559,1.144,0.839,2.032,0.839c0.667,0,1.233-0.226,1.694-0.68c0.462-0.453,0.706-1.024,0.733-1.714h-1.108
			c-0.021,0.447-0.15,0.79-0.385,1.032c-0.234,0.241-0.546,0.362-0.935,0.362c-0.539,0-0.934-0.175-1.183-0.524
			c-0.25-0.35-0.375-0.946-0.375-1.791v-0.915C232.19,114.895,232.32,114.333,232.572,113.99z"/>
		<path d="M242.208,114.61c-0.009-0.699-0.204-1.231-0.587-1.595c-0.382-0.365-0.941-0.547-1.674-0.547
			c-0.451,0-0.86,0.095-1.227,0.285c-0.366,0.19-0.658,0.452-0.875,0.786c-0.217,0.334-0.325,0.684-0.325,1.051h1.174
			c0-0.323,0.111-0.589,0.331-0.799c0.221-0.209,0.508-0.315,0.862-0.315c0.389,0,0.679,0.091,0.869,0.272
			c0.19,0.181,0.285,0.487,0.285,0.915v0.762h-0.862c-0.863,0.009-1.541,0.228-2.037,0.656c-0.496,0.428-0.742,1.009-0.742,1.739
			c0,0.664,0.182,1.177,0.547,1.542c0.365,0.365,0.872,0.547,1.522,0.547c0.645,0,1.176-0.305,1.591-0.915
			c0.031,0.366,0.082,0.628,0.153,0.782h1.22v-0.106c-0.147-0.406-0.221-0.887-0.226-1.439V114.61z M241.04,118.006
			c-0.119,0.239-0.31,0.438-0.57,0.597c-0.261,0.159-0.535,0.239-0.822,0.239c-0.389,0-0.666-0.092-0.829-0.276
			c-0.164-0.183-0.246-0.479-0.246-0.885c0-0.434,0.161-0.771,0.484-1.012c0.323-0.241,0.763-0.366,1.32-0.375h0.664L241.04,118.006
			L241.04,118.006z"/>
		<path d="M245.702,118.649c-0.093-0.147-0.139-0.361-0.139-0.644v-4.456h1.082v-0.948h-1.082v-1.738h-1.167v1.738h-1.094v0.948
			h1.094v4.457c0,0.606,0.122,1.074,0.365,1.406c0.243,0.332,0.597,0.498,1.061,0.498c0.279,0,0.55-0.044,0.816-0.132l0.013-0.989
			c-0.159,0.053-0.316,0.08-0.471,0.08C245.954,118.868,245.796,118.795,245.702,118.649z"/>
		<rect x="248.13" y="112.601" width="1.174" height="7.175"/>
		<path d="M248.727,109.988c-0.221,0-0.386,0.069-0.497,0.206s-0.166,0.305-0.166,0.504c0,0.199,0.055,0.365,0.166,0.498
			c0.111,0.133,0.276,0.198,0.497,0.198c0.226,0,0.394-0.066,0.504-0.198c0.111-0.133,0.166-0.299,0.166-0.498
			c0-0.194-0.057-0.361-0.17-0.501C249.115,110.057,248.948,109.988,248.727,109.988z"/>
		<path d="M253.667,112.468c-0.831,0-1.5,0.304-2.006,0.911c-0.507,0.608-0.76,1.434-0.76,2.477v0.783
			c0.018,1.004,0.277,1.799,0.779,2.387c0.502,0.588,1.169,0.883,2,0.883c0.84,0,1.512-0.303,2.016-0.908
			c0.504-0.606,0.756-1.428,0.756-2.467v-0.757c-0.013-1.021-0.273-1.828-0.779-2.421
			C255.167,112.764,254.498,112.468,253.667,112.468z M255.278,116.666c-0.031,1.495-0.563,2.242-1.598,2.242
			c-0.491,0-0.881-0.211-1.171-0.633c-0.29-0.422-0.434-1.002-0.434-1.74v-0.683c0-0.73,0.145-1.307,0.434-1.734
			c0.29-0.427,0.675-0.64,1.157-0.64c0.491,0,0.883,0.213,1.174,0.64c0.292,0.427,0.437,1.007,0.437,1.74L255.278,116.666
			L255.278,116.666z"/>
		<path d="M260.85,112.468c-0.707,0-1.289,0.303-1.744,0.908l-0.033-0.776h-1.108v7.175h1.174v-5.212
			c0.142-0.314,0.328-0.568,0.56-0.762c0.232-0.194,0.494-0.292,0.785-0.292c0.376,0,0.658,0.119,0.846,0.355
			c0.188,0.237,0.282,0.636,0.282,1.197v4.715h1.167v-4.769C262.762,113.314,262.119,112.468,260.85,112.468z"/>
		<path d="M224.286,81.563c2.995-0.874,5.981-1.778,8.966-2.683c0.322-0.097,0.643-0.244,0.92-0.434
			c0.639-0.44,0.648-1.25,0.018-1.702c-0.271-0.194-0.595-0.338-0.916-0.436c-2.97-0.901-5.942-1.793-8.918-2.676
			c-1.397-0.415-2.818-0.457-4.214-0.052c-3.098,0.898-6.182,1.841-9.272,2.769c-0.538,0.161-0.994,0.433-1.228,0.978
			c0,0.163,0,0.325,0,0.488c0.142,0.203,0.245,0.462,0.436,0.595c0.293,0.205,0.634,0.368,0.978,0.472
			c2.962,0.9,5.926,1.79,8.896,2.666C221.389,81.972,222.849,81.983,224.286,81.563z"/>
		<path d="M232.648,92.195c0.053-0.017,0.105-0.038,0.159-0.049c1.042-0.234,1.816-1.12,1.836-2.156
			c0.021-1.098,0.03-1.149-0.002-2.246c-0.029-0.962-0.521-1.658-1.397-2.06c-0.144-0.066-0.161-0.146-0.161-0.277
			c0.003-1.546,0.001-3.092,0.001-4.637c0-0.088,0-0.177,0-0.302c-0.435,0.13-0.843,0.26-1.256,0.371
			c-0.159,0.043-0.216,0.106-0.215,0.279c0.01,1.131,0.004,2.262,0.004,3.393c0,0.366,0,0.731,0,1.091
			c-0.044,0.021-0.072,0.036-0.102,0.049c-0.037,0.016-0.077,0.028-0.113,0.046c-0.811,0.409-1.315,1.05-1.343,1.97
			c-0.035,1.113-0.017,1.181-0.003,2.295c0.009,0.728,0.312,1.336,0.911,1.747c0.313,0.215,0.695,0.328,1.045,0.487
			C232.224,92.195,232.436,92.195,232.648,92.195z"/>
		<path d="M215.135,84.915c0.88,0.692,1.918,1.023,2.989,1.246c2.506,0.521,5.024,0.535,7.544,0.101
			c1.103-0.19,2.17-0.498,3.133-1.095c0.76-0.47,1.22-1.105,1.149-2.048c-0.027-0.348-0.004-0.699-0.004-1.049
			c0-0.209,0-0.417,0-0.649c-0.095,0.023-0.157,0.034-0.216,0.052c-1.666,0.497-3.329,1.002-4.998,1.491
			c-1.447,0.424-2.924,0.497-4.392,0.175c-1.085-0.238-2.144-0.591-3.213-0.902c-0.911-0.265-1.819-0.543-2.78-0.83
			c0,0.658,0.012,1.275-0.003,1.891C214.327,83.978,214.611,84.503,215.135,84.915z"/>
	</g>
</g>
<g title="hydroponics">
	<path class="offwhite-fill" filter="url(#innershadow)" d="M282.368,163.652h0.004 M282.372,155.43h-0.004h-73.986c-3.839,0-7.167,2.656-8.018,6.4
		c-3.093,13.604-11.761,25.535-23.782,32.732c-3.289,1.97-4.78,5.95-3.596,9.595l22.866,70.376c0.718,2.211,2.339,4.014,4.46,4.964
		c1.068,0.479,2.214,0.717,3.359,0.717c1.129,0,2.258-0.232,3.314-0.698c46.461-20.462,78.454-64.443,83.541-114.819
		c0.044-0.342,0.066-0.691,0.066-1.045C290.593,159.11,286.913,155.43,282.372,155.43L282.372,155.43z M282.368,171.874h0.004
		H282.368L282.368,171.874z"/>
	<g>
		<polygon points="198.709,216.699 194.823,216.699 194.823,212.546 193.61,212.546 193.61,222.202 194.823,222.202 194.823,217.74
			198.709,217.74 198.709,222.202 199.93,222.202 199.93,212.546 198.709,212.546 		"/>
		<path d="M203.829,220.253l-1.326-5.226h-1.28l2.109,7.116l-0.232,0.802c-0.119,0.397-0.276,0.678-0.468,0.839
			c-0.192,0.161-0.459,0.242-0.799,0.242L201.574,224v0.995c0.248,0.071,0.451,0.106,0.61,0.106c0.411,0,0.778-0.161,1.101-0.481
			c0.323-0.321,0.573-0.788,0.749-1.403l2.347-8.19h-1.247L203.829,220.253z"/>
		<path d="M211.284,215.73c-0.385-0.557-0.92-0.835-1.605-0.835c-0.774,0-1.367,0.29-1.78,0.869c-0.414,0.579-0.62,1.422-0.62,2.527
			v0.736c0.01,1.052,0.225,1.867,0.647,2.444c0.423,0.577,1.005,0.866,1.748,0.866c0.716,0,1.266-0.301,1.651-0.903l0.06,0.769
			h1.074v-10.187h-1.174V215.73z M211.284,220.413c-0.288,0.588-0.723,0.881-1.307,0.881c-0.539,0-0.928-0.189-1.167-0.566
			c-0.238-0.378-0.358-0.968-0.358-1.771v-0.715c0.004-0.782,0.126-1.361,0.365-1.739s0.628-0.566,1.167-0.566
			c0.566,0,0.999,0.287,1.3,0.861V220.413z"/>
		<path d="M216.754,214.894c-0.574,0-1.019,0.288-1.332,0.862l-0.02-0.729h-1.141v7.175h1.174v-5.133
			c0.238-0.659,0.658-0.988,1.259-0.988c0.19,0,0.367,0.015,0.53,0.046l-0.006-1.141
			C217.095,214.926,216.941,214.894,216.754,214.894z"/>
		<path d="M220.78,214.894c-0.831,0-1.5,0.304-2.006,0.911c-0.507,0.608-0.759,1.434-0.759,2.477v0.783
			c0.018,1.004,0.277,1.799,0.779,2.387c0.502,0.588,1.169,0.883,2,0.883c0.84,0,1.512-0.303,2.016-0.908
			c0.504-0.606,0.756-1.428,0.756-2.467v-0.757c-0.013-1.021-0.273-1.828-0.779-2.421
			C222.279,215.191,221.611,214.894,220.78,214.894z M222.391,219.092c-0.031,1.495-0.563,2.242-1.598,2.242
			c-0.491,0-0.881-0.211-1.171-0.633c-0.29-0.422-0.434-1.002-0.434-1.74v-0.684c0-0.73,0.145-1.307,0.434-1.734
			c0.29-0.427,0.675-0.64,1.157-0.64c0.491,0,0.883,0.213,1.174,0.64c0.292,0.427,0.437,1.007,0.437,1.74L222.391,219.092
			L222.391,219.092z"/>
		<path d="M227.896,214.894c-0.734,0-1.298,0.31-1.691,0.928l-0.06-0.796h-1.061v9.934h1.167v-3.442
			c0.389,0.544,0.944,0.816,1.664,0.816c0.747,0,1.325-0.279,1.734-0.835c0.409-0.557,0.613-1.403,0.613-2.54v-0.783
			c-0.014-1.091-0.215-1.912-0.604-2.46C229.271,215.169,228.683,214.894,227.896,214.894z M229.096,219.006
			c-0.004,0.788-0.131,1.372-0.382,1.754c-0.249,0.383-0.64,0.574-1.17,0.574c-0.575,0-1.006-0.274-1.293-0.822v-3.734
			c0.292-0.562,0.718-0.842,1.279-0.842c0.549,0,0.946,0.191,1.194,0.574c0.248,0.383,0.372,0.976,0.372,1.781L229.096,219.006
			L229.096,219.006z"/>
		<path d="M234.296,214.894c-0.831,0-1.5,0.304-2.006,0.911c-0.507,0.608-0.759,1.434-0.759,2.477v0.783
			c0.018,1.004,0.277,1.799,0.779,2.387c0.502,0.588,1.169,0.883,2,0.883c0.84,0,1.512-0.303,2.016-0.908
			c0.504-0.606,0.756-1.428,0.756-2.467v-0.757c-0.013-1.021-0.273-1.828-0.779-2.421
			C235.795,215.189,235.127,214.894,234.296,214.894z M235.907,219.092c-0.031,1.495-0.563,2.242-1.598,2.242
			c-0.491,0-0.881-0.211-1.171-0.633c-0.29-0.422-0.434-1.002-0.434-1.74v-0.684c0-0.73,0.145-1.307,0.434-1.734
			c0.29-0.427,0.675-0.64,1.157-0.64c0.491,0,0.883,0.213,1.174,0.64c0.292,0.427,0.437,1.007,0.437,1.74L235.907,219.092
			L235.907,219.092z"/>
		<path d="M241.478,214.894c-0.707,0-1.289,0.303-1.744,0.908l-0.033-0.776h-1.108v7.175h1.174v-5.212
			c0.142-0.314,0.328-0.568,0.56-0.762c0.232-0.194,0.494-0.291,0.785-0.291c0.376,0,0.658,0.119,0.846,0.355
			c0.188,0.237,0.282,0.636,0.282,1.197v4.715h1.167v-4.769C243.39,215.741,242.747,214.894,241.478,214.894z"/>
		<rect x="245.258" y="215.028" width="1.174" height="7.175"/>
		<path d="M245.855,212.414c-0.221,0-0.386,0.069-0.497,0.206c-0.111,0.137-0.166,0.305-0.166,0.504
			c0,0.199,0.055,0.365,0.166,0.498c0.111,0.133,0.276,0.198,0.497,0.198c0.226,0,0.394-0.066,0.504-0.198
			c0.111-0.133,0.166-0.299,0.166-0.498c0-0.194-0.057-0.361-0.17-0.501C246.243,212.484,246.076,212.414,245.855,212.414z"/>
		<path d="M249.601,216.417c0.252-0.342,0.639-0.515,1.161-0.515c0.402,0,0.717,0.133,0.945,0.398
			c0.228,0.265,0.355,0.663,0.381,1.194h1.108c-0.026-0.804-0.255-1.439-0.686-1.904c-0.431-0.464-1.014-0.696-1.748-0.696
			c-0.889,0-1.565,0.282-2.029,0.846c-0.464,0.563-0.696,1.387-0.696,2.47v0.789c0,1.105,0.233,1.937,0.7,2.497
			c0.466,0.559,1.144,0.839,2.032,0.839c0.667,0,1.233-0.226,1.694-0.68c0.462-0.453,0.706-1.024,0.733-1.714h-1.108
			c-0.021,0.447-0.15,0.79-0.385,1.032c-0.234,0.241-0.546,0.362-0.935,0.362c-0.539,0-0.934-0.175-1.183-0.524
			c-0.25-0.35-0.375-0.946-0.375-1.791v-0.915C249.219,217.322,249.349,216.759,249.601,216.417z"/>
		<path d="M258.74,219.038c-0.314-0.325-0.906-0.658-1.778-1c-0.548-0.237-0.894-0.429-1.037-0.575
			c-0.144-0.145-0.216-0.337-0.216-0.575c0-0.299,0.099-0.538,0.296-0.717c0.197-0.178,0.467-0.268,0.813-0.268
			c0.336,0,0.613,0.114,0.829,0.342c0.217,0.228,0.325,0.503,0.325,0.826h1.167c0-0.637-0.212-1.158-0.636-1.565
			c-0.425-0.406-0.986-0.61-1.685-0.61c-0.664,0-1.208,0.194-1.634,0.58c-0.427,0.387-0.64,0.872-0.64,1.456
			c0,0.327,0.064,0.609,0.192,0.846c0.128,0.237,0.322,0.448,0.58,0.633c0.259,0.186,0.704,0.409,1.336,0.67
			c0.543,0.243,0.911,0.456,1.101,0.636c0.19,0.181,0.285,0.397,0.285,0.65c0,0.296-0.102,0.532-0.305,0.706
			c-0.204,0.174-0.499,0.262-0.889,0.262c-0.416,0-0.738-0.113-0.969-0.338c-0.229-0.226-0.351-0.538-0.364-0.935h-1.181
			c0,0.659,0.232,1.203,0.696,1.631c0.465,0.428,1.071,0.644,1.818,0.644c0.72,0,1.296-0.187,1.725-0.562
			c0.428-0.374,0.643-0.873,0.643-1.498C259.211,219.776,259.054,219.363,258.74,219.038z"/>
		<path d="M230.851,190.239h0.753v4.707c-1.313,0.197-2.497,0.864-3.321,1.869c0.615,0.268,1.2,0.609,1.719,1.055h1.602
			c1.652,0,2.998,1.337,3.012,2.986c0.127-0.142,0.26-0.289,0.403-0.442l2.172-2.335c-0.712-1.676-2.249-2.897-4.081-3.163v-6.182
			h0.753c2.492,0,4.519-2.027,4.519-4.519v-1.506h-1.506c-2.492,0-4.519,2.027-4.519,4.519v0.753c-0.027,0-0.049,0.013-0.074,0.015
			c-0.355-2.14-2.205-3.781-4.443-3.781h-1.506v1.506C226.333,188.212,228.359,190.239,230.851,190.239z"/>
		<path d="M218.802,208.413h13.555c1.659,0,3.222-0.781,4.217-2.109l4.022-5.362c0.437-0.572,0.377-1.4-0.136-1.913
			c-0.588-0.588-1.551-0.572-2.124,0.03l-2.214,2.38c-1.445,1.552-1.924,2.455-3.253,2.455h-5.106c-0.422,0-0.753-0.331-0.753-0.753
			c0-0.422,0.331-0.753,0.753-0.753h3.841c0.832,0,1.506-0.675,1.506-1.506c0-0.832-0.675-1.506-1.506-1.506h-2.033
			c-0.1-0.042-0.187-0.079-0.287-0.121c-1.988-1.958-5.136-2.017-7.184-0.21l-2.093,1.838h-1.205c-0.422,0-0.753,0.331-0.753,0.753
			v6.024C218.049,208.076,218.386,208.413,218.802,208.413z"/>
	</g>
</g>
<g title="robotics">
	<path class="offwhite-fill" filter="url(#innershadow)" d="M110.922,187.092c-1.691,0-3.385,0.52-4.832,1.571l-59.853,43.486c-1.88,1.366-3.095,3.464-3.343,5.775
		c-0.248,2.311,0.494,4.619,2.042,6.353c13.108,14.682,28.792,26.263,46.617,34.422c18.457,8.448,38.184,12.732,58.634,12.732
		c10.064,0,20.141-1.077,29.954-3.199c2.273-0.492,4.231-1.922,5.389-3.938c1.159-2.016,1.411-4.428,0.692-6.639l-22.868-70.381
		c-1.108-3.41-4.284-5.681-7.815-5.681c-0.243,0-0.487,0.01-0.732,0.032c-1.654,0.147-3.166,0.218-4.62,0.218
		c-12.449,0-24.471-4.516-33.852-12.718C114.792,187.775,112.86,187.092,110.922,187.092L110.922,187.092z"/>
	<g>
		<path d="M96.599,254.261c0.263-0.445,0.395-0.965,0.395-1.562c0-0.95-0.243-1.672-0.729-2.166c-0.487-0.493-1.203-0.74-2.149-0.74
			H91.41v9.656h1.22v-3.906h1.697l1.717,3.906h1.306v-0.08l-1.87-4.105C95.964,255.04,96.336,254.705,96.599,254.261z
			 M94.103,254.503h-1.472v-3.668h1.459c1.123,0,1.685,0.62,1.685,1.86c0,0.55-0.151,0.988-0.454,1.316
			C95.016,254.339,94.611,254.503,94.103,254.503z"/>
		<path d="M100.973,252.142c-0.831,0-1.5,0.304-2.006,0.911c-0.507,0.608-0.759,1.434-0.759,2.477v0.783
			c0.018,1.004,0.277,1.799,0.779,2.387c0.502,0.588,1.169,0.883,2,0.883c0.84,0,1.512-0.303,2.016-0.908
			c0.504-0.606,0.756-1.428,0.756-2.467v-0.757c-0.013-1.021-0.273-1.828-0.779-2.421
			C102.473,252.438,101.804,252.142,100.973,252.142z M102.585,256.34c-0.031,1.495-0.563,2.242-1.598,2.242
			c-0.491,0-0.881-0.211-1.171-0.633c-0.29-0.422-0.434-1.002-0.434-1.74v-0.683c0-0.73,0.145-1.307,0.434-1.734
			c0.29-0.427,0.675-0.64,1.157-0.64c0.491,0,0.883,0.213,1.174,0.64c0.292,0.427,0.437,1.007,0.437,1.74L102.585,256.34
			L102.585,256.34z"/>
		<path d="M108.102,252.142c-0.721,0-1.274,0.307-1.658,0.922v-3.8h-1.167v10.187h1.067l0.06-0.849
			c0.38,0.655,0.95,0.981,1.711,0.981c0.765,0,1.349-0.283,1.751-0.849c0.402-0.566,0.603-1.408,0.603-2.527v-0.71
			c-0.004-1.123-0.204-1.963-0.597-2.52C109.479,252.421,108.889,252.142,108.102,252.142z M109.302,256.256
			c-0.004,0.782-0.122,1.358-0.351,1.728c-0.23,0.371-0.611,0.557-1.141,0.557c-0.619,0-1.074-0.323-1.366-0.967v-3.411
			c0.296-0.653,0.747-0.981,1.352-0.981c0.53,0,0.914,0.18,1.15,0.54c0.237,0.36,0.355,0.964,0.355,1.811V256.256z"/>
		<path d="M114.489,252.142c-0.831,0-1.5,0.304-2.006,0.911c-0.507,0.608-0.759,1.434-0.759,2.477v0.783
			c0.018,1.004,0.277,1.799,0.779,2.387c0.502,0.588,1.168,0.883,2,0.883c0.839,0,1.512-0.303,2.016-0.908
			c0.504-0.606,0.756-1.428,0.756-2.467v-0.757c-0.013-1.021-0.273-1.828-0.779-2.421
			C115.988,252.438,115.32,252.142,114.489,252.142z M116.1,256.34c-0.031,1.495-0.563,2.242-1.598,2.242
			c-0.491,0-0.881-0.211-1.171-0.633c-0.29-0.422-0.434-1.002-0.434-1.74v-0.683c0-0.73,0.145-1.307,0.434-1.734
			c0.29-0.427,0.675-0.64,1.157-0.64c0.491,0,0.883,0.213,1.174,0.64c0.292,0.427,0.437,1.007,0.437,1.74L116.1,256.34L116.1,256.34
			z"/>
		<path d="M120.464,258.323c-0.093-0.147-0.139-0.361-0.139-0.644v-4.456h1.082v-0.948h-1.082v-1.738h-1.167v1.738h-1.094v0.948
			h1.094v4.457c0,0.606,0.122,1.074,0.365,1.406c0.243,0.332,0.597,0.498,1.061,0.498c0.279,0,0.55-0.044,0.816-0.132l0.013-0.989
			c-0.159,0.053-0.316,0.08-0.471,0.08C120.716,258.542,120.557,258.469,120.464,258.323z"/>
		<path d="M123.488,249.661c-0.221,0-0.386,0.069-0.497,0.206c-0.111,0.137-0.166,0.305-0.166,0.504
			c0,0.199,0.055,0.365,0.166,0.498s0.276,0.198,0.497,0.198c0.226,0,0.394-0.066,0.504-0.198c0.111-0.133,0.166-0.299,0.166-0.498
			c0-0.194-0.057-0.361-0.17-0.501C123.876,249.731,123.709,249.661,123.488,249.661z"/>
		<rect x="122.89" y="252.275" width="1.174" height="7.175"/>
		<path d="M127.234,253.664c0.252-0.343,0.639-0.515,1.161-0.515c0.402,0,0.717,0.133,0.945,0.398
			c0.228,0.265,0.355,0.663,0.381,1.194h1.108c-0.026-0.804-0.255-1.439-0.686-1.904c-0.431-0.464-1.014-0.696-1.748-0.696
			c-0.889,0-1.565,0.282-2.03,0.846c-0.464,0.563-0.696,1.387-0.696,2.47v0.789c0,1.105,0.233,1.937,0.7,2.497
			c0.466,0.559,1.144,0.839,2.032,0.839c0.667,0,1.233-0.226,1.694-0.68c0.462-0.453,0.706-1.024,0.733-1.714h-1.108
			c-0.021,0.447-0.15,0.79-0.385,1.032c-0.234,0.241-0.546,0.362-0.935,0.362c-0.539,0-0.934-0.175-1.183-0.524
			c-0.25-0.35-0.375-0.946-0.375-1.79v-0.915C126.852,254.569,126.983,254.007,127.234,253.664z"/>
		<path d="M136.374,256.284c-0.314-0.325-0.906-0.658-1.778-1c-0.548-0.237-0.894-0.429-1.037-0.575
			c-0.144-0.145-0.216-0.337-0.216-0.575c0-0.299,0.099-0.538,0.296-0.717c0.197-0.178,0.467-0.268,0.813-0.268
			c0.336,0,0.613,0.114,0.829,0.342c0.217,0.228,0.325,0.503,0.325,0.826h1.167c0-0.637-0.212-1.158-0.636-1.565
			c-0.425-0.406-0.986-0.61-1.685-0.61c-0.664,0-1.208,0.194-1.634,0.58c-0.427,0.387-0.64,0.872-0.64,1.456
			c0,0.327,0.064,0.609,0.192,0.846c0.128,0.237,0.322,0.448,0.58,0.633c0.259,0.186,0.704,0.409,1.337,0.67
			c0.543,0.243,0.911,0.456,1.101,0.636c0.19,0.181,0.285,0.397,0.285,0.65c0,0.296-0.102,0.532-0.305,0.706
			c-0.204,0.175-0.499,0.262-0.889,0.262c-0.416,0-0.738-0.113-0.969-0.338c-0.229-0.226-0.351-0.538-0.364-0.935h-1.181
			c0,0.659,0.232,1.203,0.696,1.631c0.465,0.428,1.071,0.644,1.818,0.644c0.72,0,1.296-0.187,1.725-0.562
			c0.428-0.374,0.643-0.873,0.643-1.498C136.844,257.023,136.687,256.61,136.374,256.284z"/>
		<path d="M113.316,234.889l1.247-1.246l2.663-2.663c0.026-0.026,0.051-0.052,0.074-0.079c0.009-0.01,0.017-0.019,0.026-0.03
			c0.015-0.017,0.029-0.034,0.044-0.052c0.01-0.013,0.021-0.025,0.03-0.038c0.012-0.015,0.023-0.029,0.034-0.044
			c0.011-0.015,0.021-0.029,0.032-0.044c0.01-0.013,0.018-0.026,0.027-0.039c0.011-0.016,0.023-0.033,0.033-0.05
			c0.007-0.01,0.013-0.02,0.019-0.03c0.547-0.877,0.44-2.048-0.321-2.809l0,0l-1.428-1.428c-0.429-0.429-1-0.665-1.607-0.665
			s-1.178,0.236-1.607,0.665l-4.362,4.362h0.804C111.36,230.7,113.262,232.57,113.316,234.889z"/>
		<path d="M127.203,244.836v-1.262c0-1.253-1.019-2.272-2.272-2.272h-13.127V236.4v-1.409c0-1.531-1.245-2.777-2.777-2.777h-2.02
			c-0.053,0-0.106,0.002-0.159,0.005c-0.002,0-0.004,0-0.007,0.001c-1.454,0.086-2.611,1.296-2.611,2.771v6.31h-1.009
			c-1.253,0-2.272,1.019-2.272,2.272v1.262c0,1.253,1.019,2.272,2.272,2.272h21.709
			C126.184,247.109,127.203,246.089,127.203,244.836z M108.018,237.22c-0.696,0-1.262-0.566-1.262-1.262
			c0-0.696,0.566-1.262,1.262-1.262s1.262,0.566,1.262,1.262C109.28,236.655,108.714,237.22,108.018,237.22z"/>
		<path d="M116.101,235.18c0.148,0.148,0.341,0.222,0.535,0.222s0.388-0.074,0.535-0.222l0.535-0.535l1.048,1.048l-0.277,1.388
			c-0.049,0.248,0.028,0.505,0.207,0.684l1.428,1.428c0.148,0.148,0.341,0.222,0.535,0.222c0.194,0,0.388-0.074,0.535-0.222
			c0.296-0.296,0.296-0.775,0-1.071l-1.141-1.141l0.178-0.892l0.892-0.178l1.141,1.141c0.148,0.148,0.341,0.222,0.535,0.222
			c0.194,0,0.388-0.074,0.535-0.222c0.296-0.296,0.296-0.775,0-1.071l-1.428-1.428c-0.179-0.179-0.436-0.257-0.684-0.207
			l-1.388,0.277l-1.048-1.048l0.535-0.535c0.142-0.142,0.223-0.336,0.222-0.538c-0.001-0.202-0.082-0.395-0.226-0.537l-0.523-0.516
			c-0.139,0.213-0.303,0.415-0.49,0.602l-2.663,2.663L116.101,235.18z"/>
	</g>
</g>

<g title="coding-selected" class="stem-select" ng-class="{'radio-selected' : codingSelect==true}" ng-model="codingSelect" ng-click="codingSelected()">
	<path class="stem-focus-selected" filter="url(#highlightshadow)" d="M35.436,75.194c-0.563,0-1.127,0.058-1.687,0.175c-2.273,0.476-4.238,1.892-5.411,3.897
		c-12.57,21.498-19.214,46.084-19.214,71.101c0,25.018,6.644,49.604,19.214,71.101c1.172,2.005,3.138,3.421,5.411,3.897
		c0.56,0.117,1.125,0.175,1.687,0.175c1.722,0,3.417-0.541,4.833-1.571l59.85-43.483c3.105-2.256,4.236-6.36,2.726-9.887
		c-2.742-6.406-4.132-13.214-4.132-20.232c0-7.019,1.391-13.826,4.132-20.233c1.51-3.528,0.379-7.632-2.726-9.887L40.27,76.764
		C38.853,75.736,37.159,75.194,35.436,75.194L35.436,75.194z"/>
	<circle cx="150" cy="150" r="25"/>
	<path d="M119.395,149.151c-1.017-1.017-2.666-1.017-3.682,0c-1.017,1.017-1.017,2.666,0,3.682c1.017,1.017,2.666,1.017,3.682,0
		C120.411,151.816,120.411,150.168,119.395,149.151z"/>
	<path class="white-fill" d="M34.624,158.27c0.354-0.515,0.859-0.773,1.518-0.773c0.57,0,0.995,0.167,1.273,0.504c0.279,0.336,0.444,0.897,0.498,1.685
		h1.227c-0.044-1.039-0.321-1.838-0.832-2.394c-0.511-0.557-1.232-0.835-2.166-0.835c-1.012,0-1.811,0.364-2.397,1.094
		c-0.585,0.73-0.879,1.722-0.879,2.978v1.751c0,1.259,0.285,2.258,0.855,2.994c0.57,0.737,1.34,1.105,2.308,1.105
		c0.964,0,1.71-0.276,2.239-0.826c0.528-0.55,0.819-1.343,0.872-2.378h-1.227c-0.066,0.814-0.239,1.377-0.518,1.692
		c-0.279,0.314-0.734,0.471-1.366,0.471s-1.113-0.261-1.442-0.782c-0.33-0.522-0.494-1.271-0.494-2.249v-1.77
		C34.094,159.539,34.27,158.785,34.624,158.27z"/>
	<path class="white-fill" d="M43.139,158.936c-0.831,0-1.5,0.304-2.006,0.911c-0.507,0.608-0.759,1.434-0.759,2.477v0.783
		c0.018,1.004,0.277,1.799,0.779,2.387c0.502,0.588,1.169,0.883,2,0.883c0.84,0,1.512-0.303,2.016-0.908
		c0.504-0.606,0.756-1.428,0.756-2.467v-0.757c-0.013-1.021-0.273-1.828-0.779-2.421C44.639,159.232,43.971,158.936,43.139,158.936z
		 M44.75,163.134c-0.031,1.495-0.563,2.242-1.598,2.242c-0.491,0-0.881-0.211-1.171-0.633c-0.29-0.422-0.434-1.002-0.434-1.74
		v-0.683c0-0.73,0.145-1.307,0.434-1.734c0.29-0.427,0.675-0.64,1.157-0.64c0.491,0,0.883,0.213,1.174,0.64
		c0.292,0.427,0.437,1.007,0.437,1.74L44.75,163.134L44.75,163.134z"/>
	<path class="white-fill" d="M51.197,159.772c-0.385-0.557-0.92-0.835-1.605-0.835c-0.774,0-1.367,0.29-1.78,0.869c-0.414,0.579-0.62,1.422-0.62,2.527
		v0.736c0.01,1.052,0.225,1.867,0.647,2.444c0.423,0.577,1.005,0.866,1.748,0.866c0.716,0,1.266-0.301,1.651-0.903l0.06,0.769h1.074
		v-10.187h-1.174C51.197,156.058,51.197,159.772,51.197,159.772z M51.197,164.455c-0.288,0.588-0.723,0.881-1.307,0.881
		c-0.539,0-0.928-0.189-1.167-0.566c-0.238-0.378-0.358-0.968-0.358-1.771v-0.715c0.004-0.782,0.126-1.361,0.365-1.739
		c0.239-0.378,0.628-0.566,1.167-0.566c0.566,0,0.999,0.287,1.3,0.861C51.197,160.84,51.197,164.455,51.197,164.455z"/>
	<path class="white-fill" d="M54.864,156.456c-0.221,0-0.386,0.069-0.497,0.206c-0.111,0.137-0.166,0.305-0.166,0.504c0,0.199,0.055,0.365,0.166,0.498
		c0.111,0.133,0.276,0.198,0.497,0.198c0.226,0,0.394-0.066,0.504-0.198s0.166-0.299,0.166-0.498c0-0.194-0.057-0.361-0.17-0.501
		C55.253,156.525,55.085,156.456,54.864,156.456z"/>
	<rect class="white-fill" x="54.267" y="159.069" width="1.174" height="7.175"/>
	<path class="white-fill" d="M60.169,158.936c-0.707,0-1.289,0.303-1.744,0.908l-0.033-0.776h-1.108v7.175h1.174v-5.212
		c0.142-0.314,0.328-0.568,0.56-0.762c0.232-0.194,0.494-0.292,0.785-0.292c0.376,0,0.658,0.119,0.846,0.355
		c0.188,0.237,0.282,0.636,0.282,1.197v4.715h1.167v-4.769C62.082,159.782,61.438,158.936,60.169,158.936z"/>
	<path class="white-fill" d="M67.743,159.069l-0.06,0.802c-0.38-0.624-0.935-0.935-1.665-0.935c-0.782,0-1.377,0.286-1.784,0.859
		c-0.407,0.573-0.61,1.418-0.61,2.537v0.796c0.018,1.047,0.234,1.851,0.65,2.41c0.416,0.559,0.995,0.839,1.737,0.839
		c0.699,0,1.238-0.281,1.619-0.843v0.935c-0.026,1.066-0.528,1.599-1.505,1.599c-0.588,0-1.125-0.239-1.611-0.716l-0.478,0.809
		c0.221,0.257,0.552,0.472,0.992,0.647c0.44,0.174,0.837,0.262,1.191,0.262c0.813,0,1.447-0.237,1.903-0.713
		s0.684-1.157,0.684-2.045v-7.242L67.743,159.069L67.743,159.069z M67.629,164.442c-0.292,0.596-0.729,0.894-1.313,0.894
		c-0.539,0-0.928-0.189-1.164-0.566s-0.355-0.968-0.355-1.771v-0.715c0.004-0.782,0.126-1.361,0.364-1.739
		c0.239-0.378,0.628-0.566,1.167-0.566c0.562,0,0.995,0.293,1.3,0.881L67.629,164.442L67.629,164.442z"/>
	<path class="white-fill" d="M60.839,132.051c-0.1-0.206-0.253-0.36-0.459-0.459c-6.826,0-13.652,0-20.478,0c-0.153,0.153-0.307,0.307-0.459,0.459
		c0,4.458,0,8.916,0,13.374c7.133,0,14.265,0,21.398,0C60.839,140.967,60.839,136.509,60.839,132.051z M52.023,133.515
		c0.001-0.48,0.428-0.788,0.85-0.625c0.25,0.097,0.4,0.323,0.401,0.625c0.003,0.619,0.001,1.24,0.001,1.859
		c0,0.592,0.001,1.183,0,1.776c-0.001,0.425-0.254,0.709-0.627,0.709c-0.372,0-0.626-0.285-0.627-0.709
		C52.021,135.938,52.019,134.726,52.023,133.515z M41.992,133.555c0.001-0.425,0.255-0.709,0.627-0.709
		c0.372,0.001,0.625,0.285,0.626,0.71c0.001,0.599,0.001,1.197,0.001,1.797c0,0.599,0.001,1.198-0.001,1.797
		c-0.001,0.425-0.255,0.709-0.628,0.709c-0.372-0.001-0.625-0.285-0.626-0.71C41.99,135.951,41.99,134.753,41.992,133.555z
		 M45.628,142.927c-0.221,0.717-0.984,1.244-1.759,1.242c-0.782-0.002-1.548-0.52-1.748-1.247c-0.111-0.403-0.123-0.832-0.179-1.242
		c0.055-0.431,0.061-0.855,0.17-1.251c0.218-0.789,1.078-1.343,1.876-1.265c0.916,0.09,1.648,0.736,1.725,1.589
		C45.778,141.478,45.848,142.214,45.628,142.927z M48.259,143.46c-0.001,0.424-0.255,0.709-0.626,0.709
		c-0.372,0-0.625-0.284-0.627-0.709c-0.001-0.599-0.001-1.197-0.001-1.797c0-0.599-0.001-1.197,0.001-1.797
		c0.001-0.425,0.254-0.709,0.626-0.709c0.372,0,0.626,0.284,0.627,0.709C48.261,141.064,48.261,142.262,48.259,143.46z
		 M48.138,136.584c-0.215,0.782-1.063,1.335-1.854,1.269c-0.925-0.077-1.66-0.719-1.745-1.592c-0.069-0.717-0.145-1.449,0.08-2.153
		c0.211-0.662,0.696-1.071,1.369-1.214c0.698-0.149,1.306,0.058,1.793,0.589c0.33,0.361,0.47,0.796,0.479,1.279
		c0.004,0.195,0.001,0.39,0.001,0.585c0.015,0.002,0.031,0.004,0.046,0.006C48.254,135.765,48.247,136.189,48.138,136.584z
		 M50.766,143.46c-0.001,0.425-0.254,0.709-0.627,0.709c-0.372,0-0.625-0.285-0.626-0.709c-0.001-0.599,0-1.197,0-1.796
		c0-0.599-0.001-1.197,0.001-1.797c0.001-0.423,0.257-0.71,0.627-0.709c0.372,0,0.625,0.285,0.626,0.71
		C50.768,141.065,50.768,142.262,50.766,143.46z M50.767,137.149c-0.001,0.425-0.254,0.709-0.627,0.709s-0.626-0.284-0.626-0.709
		c-0.001-1.197-0.001-2.396,0-3.593c0.001-0.425,0.254-0.709,0.626-0.709c0.372,0,0.625,0.284,0.627,0.709
		c0.001,0.599,0.001,1.197,0.001,1.797C50.767,135.952,50.769,136.551,50.767,137.149z M55.66,142.911
		c-0.212,0.661-0.699,1.068-1.372,1.21c-0.691,0.146-1.293-0.058-1.778-0.578c-0.338-0.364-0.482-0.805-0.49-1.296
		c-0.004-0.202-0.001-0.403-0.001-0.605c-0.015-0.002-0.031-0.004-0.046-0.006c0.053-0.404,0.062-0.821,0.17-1.209
		c0.216-0.779,1.067-1.333,1.857-1.265c0.925,0.08,1.659,0.726,1.74,1.596C55.809,141.476,55.887,142.208,55.66,142.911z
		 M54.563,136.258c-0.035-0.296-0.033-0.597-0.055-1.028c0.025-0.25,0.015-0.642,0.109-1.006c0.211-0.813,0.867-1.313,1.715-1.374
		c0.715-0.052,1.45,0.386,1.773,1.092c0.097,0.21,0.16,0.452,0.168,0.682c0.018,0.541,0.029,1.088-0.022,1.626
		c-0.088,0.907-0.914,1.605-1.838,1.609C55.495,137.862,54.67,137.156,54.563,136.258z M58.289,143.46
		c-0.001,0.425-0.254,0.709-0.627,0.709s-0.626-0.285-0.626-0.709c-0.001-1.197-0.001-2.396,0-3.593
		c0.001-0.423,0.257-0.71,0.627-0.709c0.372,0,0.625,0.285,0.626,0.709c0.001,0.606,0.001,1.212,0.001,1.818
		C58.29,142.276,58.291,142.868,58.289,143.46z"/>
	<path class="white-fill" d="M60.839,148.726c0-0.683,0-1.366,0-2.048c-7.133,0-14.265,0-21.398,0c0,0.683,0,1.366,0,2.048
		c0.166,0.363,0.453,0.466,0.841,0.465c6.571-0.008,13.143-0.008,19.714,0C60.386,149.192,60.672,149.088,60.839,148.726z"/>
	<path class="white-fill" d="M54.31,151.903c-0.126-0.098-0.314-0.156-0.476-0.161c-0.597-0.018-1.193-0.007-1.814-0.007c0-0.441,0-0.861,0-1.282
		c-1.265,0-2.507,0-3.765,0c0,0.43,0,0.845,0,1.28c-0.063,0-0.11,0-0.157,0c-0.571,0.001-1.141-0.003-1.712,0.004
		c-0.313,0.004-0.55,0.203-0.618,0.494c-0.063,0.273,0.074,0.549,0.343,0.695c0.035,0.019,0.068,0.042,0.101,0.063
		c2.619,0,5.238,0,7.857,0c0.052-0.031,0.105-0.061,0.156-0.093C54.586,152.674,54.642,152.162,54.31,151.903z"/>
	<path class="white-fill" d="M46.373,134.1c-0.342,0.004-0.612,0.271-0.619,0.631c-0.008,0.411-0.007,0.822,0,1.233c0.007,0.372,0.281,0.644,0.631,0.64
		c0.35-0.004,0.611-0.277,0.619-0.653c0.004-0.195,0.001-0.39,0.001-0.585c0-0.209,0.004-0.418-0.001-0.627
		C46.995,134.366,46.726,134.097,46.373,134.1z"/>
	<path class="white-fill" d="M56.418,134.1c-0.342-0.004-0.624,0.26-0.632,0.617c-0.01,0.425-0.01,0.849,0,1.274c0.009,0.35,0.279,0.608,0.614,0.613
		c0.343,0.004,0.619-0.26,0.633-0.616c0.008-0.209,0.001-0.418,0.001-0.627c0-0.216,0.007-0.432-0.001-0.647
		C57.019,134.366,56.752,134.105,56.418,134.1z"/>
	<path class="white-fill" d="M43.873,140.411c-0.342-0.001-0.618,0.265-0.625,0.625c-0.009,0.417-0.009,0.835,0,1.254
		c0.007,0.36,0.281,0.626,0.624,0.627c0.342,0,0.613-0.266,0.625-0.625c0.007-0.209,0.001-0.418,0.001-0.627
		s0.006-0.418-0.001-0.627C44.484,140.675,44.217,140.411,43.873,140.411z"/>
	<path class="white-fill" d="M53.902,140.411c-0.342,0-0.613,0.267-0.625,0.625c-0.007,0.209-0.001,0.418-0.001,0.627s-0.006,0.418,0.001,0.627
		c0.013,0.361,0.279,0.625,0.624,0.625c0.342,0,0.617-0.266,0.625-0.625c0.009-0.417,0.009-0.835,0-1.254
		C54.518,140.678,54.244,140.411,53.902,140.411z"/>
	<path class="white-fill" d="M159.133,145.529l-8.237,14.963c0,0,0,0.001-0.001,0.001c-0.045,0.082-0.098,0.16-0.154,0.238 c-0.014,0.02-0.029,0.038-0.044,0.057c-0.043,0.055-0.09,0.107-0.139,0.158c-0.017,0.018-0.034,0.037-0.052,0.054 c-0.005,0.005-0.009,0.01-0.014,0.014c-0.059,0.057-0.122,0.108-0.186,0.157c-0.018,0.014-0.037,0.025-0.055,0.038 c-0.058,0.04-0.116,0.079-0.177,0.113c-0.022,0.013-0.044,0.024-0.065,0.036c-0.068,0.036-0.138,0.068-0.209,0.096 c-0.012,0.005-0.023,0.01-0.035,0.014c-0.085,0.032-0.171,0.057-0.259,0.077c-0.019,0.005-0.037,0.007-0.055,0.011 c-0.069,0.014-0.138,0.025-0.208,0.032c-0.026,0.003-0.053,0.006-0.079,0.007c-0.08,0.005-0.16,0.008-0.24,0.004 c-0.007-0.001-0.015,0.001-0.023,0.001c-0.021-0.001-0.041-0.005-0.062-0.007c-0.049-0.004-0.099-0.008-0.148-0.016 c-0.03-0.005-0.06-0.012-0.09-0.017c-0.044-0.008-0.086-0.018-0.129-0.029c-0.029-0.007-0.056-0.016-0.084-0.025 c-0.047-0.014-0.093-0.031-0.14-0.048c-0.023-0.009-0.046-0.017-0.068-0.027c-0.056-0.024-0.111-0.05-0.165-0.079 c-0.01-0.005-0.021-0.009-0.031-0.015c-0.003-0.002-0.007-0.004-0.01-0.006c-0.047-0.025-0.092-0.054-0.136-0.084 c-0.016-0.011-0.032-0.02-0.048-0.031c-0.032-0.023-0.063-0.047-0.094-0.072c-0.026-0.02-0.053-0.04-0.079-0.062 c-0.011-0.009-0.021-0.02-0.032-0.03c-0.043-0.038-0.085-0.077-0.124-0.119l-4.814-5.076c-0.814-0.859-0.779-2.215,0.08-3.03 c0.859-0.814,2.215-0.779,3.03,0.08l2.795,2.948l6.824-12.395c0.571-1.037,1.875-1.415,2.911-0.844 C159.327,143.188,159.704,144.492,159.133,145.529z"/>
</g>
<g title="engineering-selected" class="stem-select" ng-class="{'radio-selected' : engineeringSelect==true}" ng-model="engineeringSelect" ng-click="engineeringSelected()">
	<path class="stem-focus-selected" filter="url(#highlightshadow)" d="M150.187,9.305c-20.45,0-40.177,4.283-58.634,12.732c-17.825,8.159-33.508,19.74-46.617,34.422
		c-1.548,1.734-2.29,4.042-2.042,6.353c0.248,2.311,1.462,4.409,3.343,5.776l59.853,43.486c1.446,1.051,3.141,1.571,4.832,1.571
		c1.939,0,3.87-0.683,5.413-2.032c9.381-8.201,21.403-12.718,33.852-12.718c1.454,0,2.966,0.072,4.62,0.218
		c0.246,0.022,0.49,0.032,0.732,0.032c3.531,0,6.707-2.271,7.815-5.681l22.868-70.381c0.718-2.211,0.467-4.623-0.692-6.639
		c-1.159-2.016-3.117-3.446-5.389-3.938C170.329,10.382,160.251,9.305,150.187,9.305L150.187,9.305z"/>
	<circle cx="150" cy="150" r="25"/>
	<path d="M142.406,117.765c-1.017-1.017-2.666-1.017-3.682,0c-1.017,1.017-1.017,2.666,0,3.682c1.017,1.017,2.666,1.017,3.682,0
		C143.423,120.43,143.423,118.781,142.406,117.765z"/>
	<polygon class="white-fill" points="90.026,70.961 93.442,70.961 93.442,69.919 90.026,69.919 90.026,66.809 93.94,66.809 93.94,65.768 88.813,65.768
		88.813,75.424 94.006,75.424 94.006,74.383 90.026,74.383 	"/>
	<path class="white-fill" d="M98.277,68.116c-0.707,0-1.289,0.303-1.744,0.908L96.5,68.248h-1.108v7.175h1.174v-5.212
		c0.142-0.314,0.328-0.568,0.56-0.762c0.232-0.194,0.494-0.292,0.785-0.292c0.376,0,0.658,0.119,0.846,0.355
		c0.188,0.237,0.282,0.636,0.282,1.197v4.715h1.167v-4.769C100.189,68.962,99.546,68.116,98.277,68.116z"/>
	<path class="white-fill" d="M105.79,69.051c-0.38-0.624-0.935-0.935-1.665-0.935c-0.782,0-1.377,0.286-1.784,0.859c-0.407,0.573-0.61,1.418-0.61,2.537
		v0.796c0.018,1.047,0.234,1.851,0.65,2.41c0.416,0.559,0.995,0.839,1.737,0.839c0.699,0,1.238-0.281,1.619-0.843v0.935
		c-0.026,1.066-0.528,1.599-1.505,1.599c-0.588,0-1.125-0.239-1.611-0.716l-0.478,0.809c0.221,0.257,0.552,0.472,0.992,0.647
		c0.44,0.174,0.837,0.262,1.191,0.262c0.813,0,1.447-0.237,1.903-0.713c0.456-0.476,0.684-1.157,0.684-2.045v-7.242h-1.061
		L105.79,69.051z M105.737,73.621c-0.292,0.596-0.729,0.894-1.313,0.894c-0.539,0-0.928-0.189-1.164-0.566
		c-0.237-0.378-0.355-0.968-0.355-1.771v-0.715c0.004-0.782,0.126-1.361,0.364-1.739c0.239-0.378,0.628-0.566,1.167-0.566
		c0.562,0,0.995,0.293,1.3,0.881L105.737,73.621L105.737,73.621z"/>
	<path class="white-fill" d="M109.345,65.635c-0.221,0-0.386,0.069-0.497,0.206s-0.166,0.305-0.166,0.504c0,0.199,0.055,0.365,0.166,0.498
		c0.111,0.133,0.276,0.198,0.497,0.198c0.226,0,0.394-0.066,0.504-0.198c0.111-0.133,0.166-0.299,0.166-0.498
		c0-0.194-0.057-0.361-0.17-0.501C109.733,65.705,109.566,65.635,109.345,65.635z"/>
	<rect class="white-fill" x="108.748" y="68.248" width="1.174" height="7.175"/>
	<path class="white-fill" d="M114.65,68.116c-0.707,0-1.289,0.303-1.744,0.908l-0.033-0.776h-1.108v7.175h1.174v-5.212
		c0.142-0.314,0.328-0.568,0.56-0.762c0.232-0.194,0.494-0.292,0.785-0.292c0.376,0,0.658,0.119,0.846,0.355
		c0.188,0.237,0.282,0.636,0.282,1.197v4.715h1.167v-4.769C116.562,68.962,115.919,68.116,114.65,68.116z"/>
	<path class="white-fill" d="M120.771,68.116c-0.835,0-1.487,0.304-1.953,0.911c-0.467,0.608-0.7,1.447-0.7,2.517v0.869
		c0.009,1.03,0.252,1.811,0.73,2.344c0.477,0.533,1.163,0.799,2.056,0.799c1.043,0,1.819-0.358,2.328-1.074l-0.611-0.743
		c-0.229,0.283-0.476,0.49-0.739,0.62c-0.263,0.131-0.567,0.195-0.912,0.195c-0.543,0-0.961-0.175-1.251-0.524
		c-0.29-0.35-0.434-0.909-0.434-1.678v-0.166h4.006v-0.769c-0.01-1.132-0.221-1.965-0.636-2.5
		C122.239,68.383,121.611,68.116,120.771,68.116z M122.118,71.18h-2.825c0.031-0.703,0.163-1.222,0.397-1.556
		c0.234-0.334,0.594-0.501,1.081-0.501c0.438,0,0.764,0.147,0.978,0.438c0.214,0.292,0.337,0.778,0.368,1.459V71.18z"/>
	<path class="white-fill" d="M127.131,68.116c-0.835,0-1.487,0.304-1.953,0.911c-0.467,0.608-0.7,1.447-0.7,2.517v0.869
		c0.009,1.03,0.252,1.811,0.73,2.344c0.477,0.533,1.163,0.799,2.056,0.799c1.043,0,1.819-0.358,2.328-1.074l-0.611-0.743
		c-0.229,0.283-0.476,0.49-0.739,0.62c-0.263,0.131-0.567,0.195-0.912,0.195c-0.543,0-0.961-0.175-1.251-0.524
		c-0.29-0.35-0.434-0.909-0.434-1.678v-0.166h4.006v-0.769c-0.01-1.132-0.221-1.965-0.636-2.5
		C128.599,68.383,127.971,68.116,127.131,68.116z M128.477,71.18h-2.825c0.031-0.703,0.163-1.222,0.397-1.556
		c0.234-0.334,0.594-0.501,1.081-0.501c0.438,0,0.764,0.147,0.978,0.438c0.214,0.292,0.337,0.778,0.368,1.459V71.18z"/>
	<path class="white-fill" d="M133.551,68.116c-0.574,0-1.019,0.288-1.333,0.862l-0.02-0.729h-1.141v7.175h1.174v-5.133
		c0.238-0.659,0.658-0.989,1.259-0.989c0.19,0,0.367,0.015,0.53,0.046l-0.006-1.141C133.891,68.147,133.737,68.116,133.551,68.116z"
		/>
	<rect class="white-fill" x="135.281" y="68.248" width="1.174" height="7.175"/>
	<path class="white-fill" d="M135.878,65.635c-0.221,0-0.386,0.069-0.497,0.206s-0.166,0.305-0.166,0.504c0,0.199,0.055,0.365,0.166,0.498
		c0.111,0.133,0.276,0.198,0.497,0.198c0.226,0,0.394-0.066,0.504-0.198c0.111-0.133,0.166-0.299,0.166-0.498
		c0-0.194-0.057-0.361-0.17-0.501C136.266,65.705,136.1,65.635,135.878,65.635z"/>
	<path class="white-fill" d="M141.184,68.116c-0.707,0-1.289,0.303-1.744,0.908l-0.033-0.776h-1.108v7.175h1.174v-5.212
		c0.142-0.314,0.328-0.568,0.56-0.762c0.232-0.194,0.494-0.292,0.785-0.292c0.376,0,0.658,0.119,0.846,0.355
		c0.188,0.237,0.282,0.636,0.282,1.197v4.715h1.167v-4.769C143.097,68.962,142.453,68.116,141.184,68.116z"/>
	<path class="white-fill" d="M148.757,68.248l-0.06,0.802c-0.38-0.624-0.935-0.935-1.665-0.935c-0.782,0-1.377,0.286-1.784,0.859
		c-0.407,0.573-0.61,1.418-0.61,2.537v0.796c0.018,1.047,0.234,1.851,0.65,2.41c0.416,0.559,0.995,0.839,1.737,0.839
		c0.699,0,1.238-0.281,1.619-0.843v0.935c-0.026,1.065-0.528,1.599-1.505,1.599c-0.588,0-1.125-0.239-1.611-0.716l-0.478,0.809
		c0.221,0.257,0.552,0.472,0.992,0.647c0.44,0.174,0.837,0.262,1.191,0.262c0.813,0,1.447-0.237,1.903-0.713
		s0.683-1.157,0.683-2.045v-7.242L148.757,68.248L148.757,68.248z M148.645,73.621c-0.292,0.596-0.729,0.894-1.313,0.894
		c-0.539,0-0.928-0.189-1.164-0.566c-0.237-0.378-0.355-0.968-0.355-1.771v-0.715c0.004-0.782,0.126-1.361,0.364-1.739
		c0.239-0.378,0.628-0.566,1.167-0.566c0.562,0,0.995,0.293,1.3,0.881L148.645,73.621L148.645,73.621z"/>
	<path class="white-fill" d="M118.749,59.922c0.241-0.237,0.48-0.476,0.717-0.717c0.264-0.269,0.277-0.442,0.06-0.754
		c-0.172-0.247-0.344-0.494-0.521-0.738c-0.085-0.117-0.097-0.24-0.045-0.369c0.133-0.328,0.268-0.655,0.406-0.98
		c0.05-0.119,0.139-0.194,0.274-0.217c0.341-0.058,0.682-0.114,1.02-0.184c0.237-0.049,0.353-0.173,0.361-0.412
		c0.014-0.427,0.015-0.855,0.001-1.282c-0.009-0.26-0.134-0.386-0.396-0.437c-0.327-0.064-0.656-0.118-0.986-0.168
		c-0.144-0.022-0.234-0.088-0.288-0.226c-0.128-0.325-0.261-0.648-0.401-0.968c-0.062-0.142-0.055-0.26,0.04-0.385
		c0.164-0.217,0.327-0.437,0.474-0.666c0.297-0.461,0.312-0.445-0.07-0.88c-0.204-0.232-0.432-0.443-0.653-0.66
		c-0.271-0.266-0.453-0.283-0.766-0.068c-0.245,0.168-0.487,0.34-0.726,0.518c-0.128,0.095-0.251,0.108-0.398,0.046
		c-0.329-0.14-0.661-0.273-0.994-0.403c-0.13-0.051-0.205-0.132-0.227-0.274c-0.051-0.325-0.103-0.65-0.167-0.974
		c-0.057-0.29-0.19-0.409-0.485-0.418c-0.378-0.012-0.757-0.015-1.136-0.003c-0.357,0.013-0.485,0.133-0.551,0.482
		c-0.056,0.299-0.107,0.601-0.149,0.903c-0.022,0.158-0.091,0.256-0.243,0.316c-0.325,0.128-0.646,0.266-0.967,0.406
		c-0.13,0.057-0.238,0.043-0.352-0.043c-0.246-0.187-0.497-0.369-0.75-0.546c-0.302-0.212-0.47-0.198-0.732,0.059
		c-0.247,0.242-0.492,0.487-0.734,0.734c-0.261,0.266-0.275,0.432-0.06,0.743c0.173,0.251,0.351,0.499,0.533,0.744
		c0.095,0.128,0.106,0.252,0.043,0.398c-0.133,0.31-0.259,0.622-0.38,0.937c-0.057,0.148-0.15,0.232-0.309,0.255
		c-0.282,0.041-0.561,0.1-0.843,0.138c-0.276,0.038-0.479,0.148-0.532,0.446c0,0.432,0,0.863,0,1.295
		c0.052,0.319,0.279,0.42,0.561,0.464c0.277,0.043,0.552,0.099,0.828,0.146c0.144,0.024,0.249,0.099,0.306,0.232
		c0.137,0.321,0.274,0.643,0.406,0.966c0.052,0.128,0.038,0.253-0.045,0.37c-0.17,0.238-0.336,0.479-0.504,0.719
		c-0.226,0.321-0.214,0.494,0.061,0.771c0.226,0.228,0.453,0.455,0.683,0.681c0.315,0.31,0.461,0.321,0.827,0.064
		c0.233-0.163,0.467-0.324,0.7-0.489c0.124-0.088,0.254-0.102,0.392-0.044c0.3,0.125,0.6,0.248,0.9,0.374
		c0.142,0.06,0.226,0.165,0.253,0.319c0.048,0.28,0.104,0.56,0.144,0.841c0.038,0.277,0.155,0.476,0.452,0.525
		c0.432,0,0.863,0,1.296,0c0.296-0.051,0.414-0.247,0.453-0.526c0.041-0.29,0.1-0.577,0.151-0.865
		c0.024-0.136,0.1-0.232,0.224-0.284c0.321-0.137,0.644-0.271,0.968-0.403c0.133-0.054,0.26-0.046,0.381,0.041
		c0.241,0.173,0.484,0.344,0.729,0.513C118.291,60.199,118.482,60.185,118.749,59.922z M114.42,58.724
		c-2.102-0.002-3.831-1.724-3.825-3.809c0.007-2.149,1.716-3.849,3.865-3.844c2.079,0.005,3.794,1.739,3.79,3.834
		C118.246,57.007,116.522,58.726,114.42,58.724z"/>
	<path class="white-fill" d="M131.464,48.313c-0.04-0.028-0.082-0.054-0.123-0.079c-0.406-0.248-0.813-0.496-1.219-0.743
		c-0.116-0.071-0.184-0.169-0.186-0.308c-0.007-0.557-0.015-1.116-0.024-1.673c-0.003-0.156,0.058-0.271,0.194-0.354
		c0.215-0.131,0.427-0.269,0.639-0.406c0.215-0.14,0.433-0.275,0.641-0.425c0.305-0.221,0.377-0.466,0.258-0.824
		c-0.023-0.069-0.052-0.137-0.08-0.204c-0.16-0.374-0.32-0.748-0.483-1.12c-0.06-0.137-0.121-0.277-0.198-0.405
		c-0.143-0.237-0.364-0.327-0.636-0.295c-0.06,0.007-0.121,0.019-0.18,0.033c-0.462,0.113-0.925,0.225-1.386,0.34
		c-0.13,0.032-0.249,0.032-0.352-0.069c-0.43-0.417-0.861-0.832-1.29-1.248c-0.088-0.086-0.119-0.185-0.091-0.31
		c0.107-0.48,0.209-0.962,0.31-1.443c0.096-0.451-0.036-0.701-0.462-0.881c-0.105-0.044-0.211-0.086-0.316-0.128
		c-0.408-0.162-0.813-0.332-1.225-0.485c-0.386-0.145-0.63-0.056-0.858,0.287c-0.029,0.044-0.056,0.09-0.084,0.135
		c-0.235,0.38-0.472,0.76-0.705,1.143c-0.088,0.145-0.205,0.218-0.379,0.22c-0.538,0.006-1.075,0.015-1.612,0.035
		c-0.178,0.007-0.288-0.062-0.379-0.208c-0.256-0.411-0.518-0.818-0.785-1.223c-0.226-0.344-0.508-0.429-0.886-0.271
		c-0.513,0.216-1.025,0.437-1.535,0.659c-0.395,0.173-0.523,0.438-0.424,0.855c0.114,0.479,0.224,0.958,0.34,1.436
		c0.035,0.144,0.007,0.271-0.09,0.375c-0.392,0.42-0.788,0.835-1.184,1.251c-0.085,0.089-0.187,0.117-0.311,0.088
		c-0.476-0.107-0.953-0.208-1.431-0.31c-0.456-0.097-0.72,0.042-0.897,0.477c-0.198,0.486-0.392,0.973-0.585,1.46
		c-0.171,0.431-0.086,0.701,0.307,0.946c0.372,0.233,0.745,0.467,1.127,0.682c0.234,0.132,0.33,0.307,0.323,0.575
		c-0.013,0.48,0.002,0.961,0,1.442c-0.001,0.096,0.033,0.131,0.125,0.153c0.411,0.101,0.818,0.212,1.228,0.319
		c0.242,0.063,0.484,0.125,0.74,0.192c-0.442-1.675-0.223-3.235,0.755-4.651c0.979-1.417,2.351-2.22,4.064-2.386
		c3.126-0.304,5.908,2.199,5.948,5.444c0.018,1.467-0.478,2.733-1.496,3.79c-1.482,1.537-3.286,2-5.378,1.568
		c0.021,0.089,0.032,0.148,0.05,0.206c0.16,0.534,0.321,1.067,0.481,1.6c0.056,0.187,0.097,0.218,0.296,0.215
		c0.48-0.01,0.961-0.019,1.441-0.03c0.169-0.004,0.296,0.061,0.389,0.205c0.265,0.41,0.532,0.819,0.802,1.226
		c0.236,0.355,0.512,0.441,0.905,0.277c0.506-0.212,1.011-0.428,1.513-0.648c0.41-0.18,0.532-0.436,0.428-0.873
		c-0.111-0.47-0.223-0.942-0.339-1.411c-0.035-0.145-0.027-0.269,0.086-0.382c0.397-0.398,0.79-0.799,1.184-1.2
		c0.105-0.107,0.228-0.142,0.378-0.11c0.497,0.107,0.994,0.214,1.493,0.309c0.356,0.068,0.613-0.058,0.755-0.389
		c0.235-0.549,0.458-1.104,0.669-1.663C131.851,48.76,131.759,48.523,131.464,48.313z"/>
	<path class="white-fill" ="M122.553,50.171c1.967,0.008,3.581-1.601,3.59-3.577c0.008-1.978-1.59-3.586-3.568-3.593
		c-1.987-0.007-3.58,1.581-3.591,3.58C118.971,48.551,120.574,50.163,122.553,50.171z"/>
	<path class="white-fill" d="M159.133,145.529l-8.237,14.963c0,0,0,0.001-0.001,0.001c-0.045,0.082-0.098,0.16-0.154,0.238 c-0.014,0.02-0.029,0.038-0.044,0.057c-0.043,0.055-0.09,0.107-0.139,0.158c-0.017,0.018-0.034,0.037-0.052,0.054 c-0.005,0.005-0.009,0.01-0.014,0.014c-0.059,0.057-0.122,0.108-0.186,0.157c-0.018,0.014-0.037,0.025-0.055,0.038 c-0.058,0.04-0.116,0.079-0.177,0.113c-0.022,0.013-0.044,0.024-0.065,0.036c-0.068,0.036-0.138,0.068-0.209,0.096 c-0.012,0.005-0.023,0.01-0.035,0.014c-0.085,0.032-0.171,0.057-0.259,0.077c-0.019,0.005-0.037,0.007-0.055,0.011 c-0.069,0.014-0.138,0.025-0.208,0.032c-0.026,0.003-0.053,0.006-0.079,0.007c-0.08,0.005-0.16,0.008-0.24,0.004 c-0.007-0.001-0.015,0.001-0.023,0.001c-0.021-0.001-0.041-0.005-0.062-0.007c-0.049-0.004-0.099-0.008-0.148-0.016 c-0.03-0.005-0.06-0.012-0.09-0.017c-0.044-0.008-0.086-0.018-0.129-0.029c-0.029-0.007-0.056-0.016-0.084-0.025 c-0.047-0.014-0.093-0.031-0.14-0.048c-0.023-0.009-0.046-0.017-0.068-0.027c-0.056-0.024-0.111-0.05-0.165-0.079 c-0.01-0.005-0.021-0.009-0.031-0.015c-0.003-0.002-0.007-0.004-0.01-0.006c-0.047-0.025-0.092-0.054-0.136-0.084 c-0.016-0.011-0.032-0.02-0.048-0.031c-0.032-0.023-0.063-0.047-0.094-0.072c-0.026-0.02-0.053-0.04-0.079-0.062 c-0.011-0.009-0.021-0.02-0.032-0.03c-0.043-0.038-0.085-0.077-0.124-0.119l-4.814-5.076c-0.814-0.859-0.779-2.215,0.08-3.03 c0.859-0.814,2.215-0.779,3.03,0.08l2.795,2.948l6.824-12.395c0.571-1.037,1.875-1.415,2.911-0.844 C159.327,143.188,159.704,144.492,159.133,145.529z"/>
</g>
<g title="general-education-selected" class="stem-select" ng-class="{'radio-selected' : generalEdSelect==true}" ng-model="generalEdSelect" ng-click="generalEdSelected()">
	<path class="stem-focus-selected" filter="url(#highlightshadow)" d="M203.673,20.522c-1.146,0-2.291,0.239-3.359,0.717c-2.121,0.95-3.742,2.753-4.46,4.964l-22.866,70.376
		c-1.184,3.646,0.307,7.626,3.596,9.595c12.021,7.197,20.689,19.128,23.782,32.732c0.851,3.743,4.179,6.4,8.018,6.4h73.986
		c2.322,0,4.536-0.982,6.094-2.703c1.559-1.721,2.317-4.021,2.087-6.332c-5.012-50.473-37.032-94.559-83.564-115.052
		C205.93,20.754,204.801,20.522,203.673,20.522L203.673,20.522z"/>
	<circle cx="150" cy="150" r="25"/>
	<path d="M179.676,133.511c-1.017-1.017-2.666-1.017-3.682,0c-1.017,1.017-1.017,2.666,0,3.682c1.017,1.017,2.666,1.017,3.682,0
		C180.693,136.177,180.693,134.528,179.676,133.511z"/>
	<path class="white-fill" d="M212.869,95.41c0.323-0.453,0.832-0.679,1.525-0.679c0.58,0,1.012,0.169,1.297,0.507c0.285,0.338,0.452,0.808,0.501,1.409
		h1.214c-0.053-0.95-0.339-1.681-0.859-2.191c-0.52-0.511-1.239-0.765-2.158-0.765c-1.079,0-1.889,0.337-2.43,1.011
		c-0.542,0.675-0.813,1.689-0.813,3.041v1.897c0.013,1.265,0.317,2.242,0.912,2.934c0.594,0.692,1.414,1.038,2.457,1.038
		c1.176,0,2.068-0.356,2.679-1.068l0.212-0.265V98.67h-2.978v1.041h1.764v2.218l-0.179,0.165c-0.34,0.316-0.838,0.476-1.492,0.476
		c-0.694,0-1.227-0.26-1.598-0.779c-0.372-0.519-0.557-1.266-0.557-2.238v-1.97C212.378,96.587,212.546,95.864,212.869,95.41z"/>
	<path class="white-fill" d="M221.656,96.17c-0.835,0-1.487,0.304-1.953,0.911c-0.467,0.608-0.7,1.447-0.7,2.517v0.869
		c0.009,1.03,0.252,1.811,0.73,2.344c0.477,0.533,1.163,0.799,2.056,0.799c1.043,0,1.819-0.358,2.328-1.074l-0.611-0.743
		c-0.229,0.283-0.476,0.49-0.739,0.62c-0.263,0.131-0.567,0.195-0.912,0.195c-0.543,0-0.961-0.175-1.251-0.524
		c-0.29-0.35-0.434-0.909-0.434-1.678v-0.166h4.006v-0.769c-0.01-1.132-0.221-1.965-0.636-2.5
		C223.124,96.437,222.495,96.17,221.656,96.17z M223.002,99.234h-2.825c0.031-0.703,0.163-1.222,0.397-1.556
		s0.594-0.501,1.081-0.501c0.438,0,0.764,0.147,0.978,0.438c0.214,0.291,0.337,0.778,0.368,1.459V99.234z"/>
	<path class="white-fill" d="M228.467,96.17c-0.707,0-1.289,0.303-1.744,0.908l-0.033-0.776h-1.108v7.175h1.174v-5.212
		c0.142-0.314,0.328-0.568,0.56-0.762c0.232-0.194,0.494-0.291,0.785-0.291c0.376,0,0.658,0.119,0.846,0.355
		c0.188,0.237,0.282,0.636,0.282,1.197v4.715h1.167v-4.769C230.379,97.016,229.735,96.17,228.467,96.17z"/>
	<path class="white-fill" d="M234.588,96.17c-0.835,0-1.487,0.304-1.953,0.911c-0.467,0.608-0.7,1.447-0.7,2.517v0.869
		c0.009,1.03,0.252,1.811,0.73,2.344c0.477,0.533,1.163,0.799,2.056,0.799c1.043,0,1.819-0.358,2.328-1.074l-0.611-0.743
		c-0.229,0.283-0.476,0.49-0.739,0.62c-0.263,0.131-0.567,0.195-0.912,0.195c-0.543,0-0.961-0.175-1.251-0.524
		c-0.29-0.35-0.434-0.909-0.434-1.678v-0.166h4.006v-0.769c-0.01-1.132-0.221-1.965-0.636-2.5
		C236.056,96.437,235.428,96.17,234.588,96.17z M235.933,99.234h-2.825c0.031-0.703,0.163-1.222,0.397-1.556
		c0.234-0.334,0.594-0.501,1.081-0.501c0.438,0,0.764,0.147,0.979,0.438c0.214,0.291,0.337,0.778,0.368,1.459V99.234z"/>
	<path class="white-fill" d="M239.688,98.345c0.238-0.659,0.658-0.989,1.259-0.989c0.19,0,0.367,0.015,0.53,0.046l-0.006-1.141
		c-0.124-0.061-0.279-0.092-0.465-0.092c-0.574,0-1.019,0.288-1.332,0.862l-0.02-0.729h-1.141v7.175h1.174V98.345z"/>
	<path class="white-fill" d="M247.068,98.312L247.068,98.312c-0.008-0.699-0.204-1.231-0.586-1.595c-0.382-0.365-0.941-0.547-1.674-0.547
		c-0.451,0-0.86,0.095-1.227,0.285c-0.366,0.19-0.658,0.452-0.875,0.786s-0.325,0.684-0.325,1.051h1.174
		c0-0.323,0.111-0.589,0.331-0.799c0.221-0.209,0.508-0.315,0.862-0.315c0.389,0,0.679,0.091,0.869,0.272
		c0.19,0.181,0.285,0.487,0.285,0.915v0.762h-0.862c-0.863,0.009-1.541,0.228-2.037,0.656c-0.496,0.428-0.743,1.008-0.743,1.737
		c0,0.664,0.182,1.177,0.547,1.542c0.365,0.365,0.872,0.547,1.522,0.547c0.645,0,1.176-0.305,1.591-0.915
		c0.031,0.366,0.082,0.628,0.153,0.782h1.22v-0.106c-0.147-0.406-0.221-0.886-0.226-1.439L247.068,98.312L247.068,98.312z
		 M245.903,101.707L245.903,101.707c-0.12,0.239-0.31,0.438-0.571,0.597c-0.261,0.159-0.535,0.239-0.822,0.239
		c-0.389,0-0.666-0.092-0.829-0.276c-0.164-0.183-0.246-0.479-0.246-0.885c0-0.434,0.161-0.771,0.484-1.012
		c0.323-0.241,0.763-0.366,1.32-0.375h0.664L245.903,101.707L245.903,101.707z"/>
	<rect class="white-fill" x="248.979" y="93.291" width="1.174" height="10.187"/>
	<polygon class="white-fill" points="212.577,115.313 215.992,115.313 215.992,114.272 212.577,114.272 212.577,111.161 216.49,111.161 216.49,110.12
		211.363,110.12 211.363,119.776 216.556,119.776 216.556,118.735 212.577,118.735 	"/>
	<path class="white-fill" d="M221.703,113.304c-0.385-0.557-0.92-0.835-1.605-0.835c-0.774,0-1.367,0.29-1.78,0.869c-0.414,0.579-0.62,1.422-0.62,2.527
		v0.736c0.01,1.052,0.225,1.867,0.647,2.444c0.423,0.577,1.005,0.866,1.748,0.866c0.716,0,1.266-0.301,1.651-0.903l0.06,0.769h1.074
		V109.59h-1.174V113.304z M221.703,117.986c-0.288,0.588-0.723,0.881-1.307,0.881c-0.539,0-0.928-0.189-1.167-0.566
		c-0.238-0.378-0.358-0.968-0.358-1.771v-0.715c0.004-0.782,0.126-1.361,0.365-1.739c0.239-0.378,0.628-0.566,1.167-0.566
		c0.566,0,0.999,0.287,1.3,0.861V117.986z"/>
	<path class="white-fill" d="M228.307,117.913L228.307,117.913c-0.269,0.636-0.759,0.955-1.472,0.955c-0.672,0-1.008-0.56-1.008-1.678v-4.589h-1.167
		v4.676c0.004,0.858,0.173,1.511,0.504,1.959c0.331,0.448,0.822,0.673,1.473,0.673c0.747,0,1.315-0.254,1.705-0.762l0.026,0.63
		h1.114v-7.175h-1.174V117.913z"/>
	<path class="white-fill" d="M232.572,113.99c0.252-0.343,0.639-0.515,1.161-0.515c0.402,0,0.717,0.133,0.945,0.398
		c0.228,0.265,0.355,0.663,0.381,1.194h1.108c-0.026-0.804-0.255-1.439-0.686-1.904c-0.431-0.464-1.014-0.696-1.748-0.696
		c-0.889,0-1.565,0.282-2.03,0.846c-0.464,0.563-0.696,1.387-0.696,2.47v0.789c0,1.105,0.233,1.937,0.7,2.497
		c0.466,0.559,1.144,0.839,2.032,0.839c0.667,0,1.233-0.226,1.694-0.68c0.462-0.453,0.706-1.024,0.733-1.714h-1.108
		c-0.021,0.447-0.15,0.79-0.385,1.032c-0.234,0.241-0.546,0.362-0.935,0.362c-0.539,0-0.934-0.175-1.183-0.524
		c-0.25-0.35-0.375-0.946-0.375-1.791v-0.915C232.189,114.895,232.319,114.333,232.572,113.99z"/>
	<path class="white-fill" d="M242.207,114.611c-0.009-0.699-0.204-1.231-0.587-1.595c-0.382-0.365-0.941-0.547-1.674-0.547
		c-0.451,0-0.86,0.095-1.227,0.285c-0.366,0.19-0.658,0.452-0.875,0.786c-0.217,0.334-0.325,0.684-0.325,1.051h1.174
		c0-0.323,0.111-0.589,0.331-0.799c0.221-0.209,0.508-0.315,0.862-0.315c0.389,0,0.679,0.091,0.869,0.272
		c0.19,0.181,0.285,0.487,0.285,0.915v0.762h-0.862c-0.863,0.009-1.541,0.228-2.037,0.656c-0.496,0.428-0.742,1.009-0.742,1.739
		c0,0.664,0.182,1.177,0.547,1.542c0.365,0.365,0.872,0.547,1.522,0.547c0.645,0,1.176-0.305,1.591-0.915
		c0.031,0.366,0.082,0.628,0.153,0.782h1.22v-0.106c-0.147-0.406-0.221-0.887-0.226-1.439L242.207,114.611z M241.041,118.006
		L241.041,118.006c-0.12,0.239-0.31,0.438-0.571,0.597c-0.261,0.159-0.535,0.239-0.822,0.239c-0.389,0-0.666-0.092-0.829-0.276
		c-0.164-0.183-0.246-0.479-0.246-0.885c0-0.434,0.161-0.771,0.484-1.012c0.323-0.241,0.763-0.366,1.32-0.375h0.664V118.006z"/>
	<path class="white-fill" d="M245.702,118.649c-0.093-0.147-0.139-0.361-0.139-0.644v-4.456h1.082v-0.948h-1.082v-1.738h-1.167v1.738h-1.094v0.948
		h1.094v4.457c0,0.606,0.122,1.074,0.365,1.406c0.243,0.332,0.597,0.498,1.061,0.498c0.279,0,0.55-0.044,0.816-0.132l0.013-0.989
		c-0.159,0.053-0.316,0.08-0.471,0.08C245.954,118.868,245.795,118.795,245.702,118.649z"/>
	<rect class="white-fill" x="248.13" y="112.601" width="1.174" height="7.175"/>
	<path class="white-fill" d="M248.726,109.988c-0.221,0-0.386,0.069-0.497,0.206c-0.111,0.137-0.166,0.305-0.166,0.504c0,0.199,0.055,0.365,0.166,0.498
		c0.111,0.133,0.276,0.198,0.497,0.198c0.226,0,0.394-0.066,0.504-0.198s0.166-0.299,0.166-0.498c0-0.194-0.057-0.361-0.17-0.501
		C249.115,110.057,248.948,109.988,248.726,109.988z"/>
	<path class="white-fill" d="M253.667,112.469c-0.831,0-1.5,0.304-2.006,0.911c-0.507,0.608-0.76,1.434-0.76,2.477v0.783
		c0.018,1.004,0.277,1.799,0.779,2.387c0.502,0.588,1.169,0.883,2,0.883c0.84,0,1.512-0.303,2.016-0.908
		c0.504-0.606,0.756-1.428,0.756-2.467v-0.757c-0.013-1.021-0.273-1.828-0.779-2.421
		C255.167,112.764,254.497,112.469,253.667,112.469z M253.68,118.907c-0.491,0-0.881-0.211-1.171-0.633
		c-0.29-0.422-0.434-1.002-0.434-1.74v-0.683c0-0.73,0.145-1.307,0.434-1.734c0.29-0.427,0.675-0.64,1.157-0.64
		c0.491,0,0.883,0.213,1.174,0.64c0.292,0.427,0.437,1.007,0.437,1.74v0.809h0.001C255.247,118.16,254.715,118.907,253.68,118.907z"
		/>
	<path class="white-fill" d="M260.85,112.469c-0.707,0-1.289,0.303-1.744,0.908l-0.033-0.776h-1.108v7.175h1.174v-5.212
		c0.142-0.314,0.328-0.568,0.56-0.762c0.232-0.194,0.494-0.292,0.785-0.292c0.376,0,0.658,0.119,0.846,0.355
		c0.188,0.237,0.282,0.636,0.282,1.197v4.715h1.167v-4.769C262.761,113.314,262.119,112.469,260.85,112.469z"/>
	<path class="white-fill" d="M224.286,81.563c2.995-0.874,5.981-1.778,8.966-2.683c0.322-0.097,0.643-0.244,0.92-0.434
		c0.639-0.44,0.648-1.25,0.018-1.702c-0.271-0.194-0.595-0.338-0.916-0.436c-2.97-0.901-5.942-1.793-8.918-2.676
		c-1.397-0.415-2.818-0.457-4.214-0.052c-3.098,0.898-6.182,1.841-9.272,2.769c-0.538,0.161-0.994,0.433-1.228,0.978
		c0,0.163,0,0.325,0,0.488c0.142,0.203,0.245,0.462,0.436,0.595c0.293,0.205,0.634,0.368,0.978,0.472
		c2.962,0.9,5.926,1.79,8.896,2.666C221.389,81.972,222.848,81.983,224.286,81.563z"/>
	<path class="white-fill" d="M232.647,92.195c0.053-0.017,0.105-0.038,0.159-0.049c1.042-0.234,1.816-1.12,1.836-2.156
		c0.021-1.098,0.03-1.149-0.002-2.246c-0.029-0.962-0.521-1.658-1.397-2.06c-0.144-0.066-0.161-0.146-0.161-0.277
		c0.003-1.546,0.001-3.092,0.001-4.637c0-0.088,0-0.177,0-0.302c-0.435,0.13-0.843,0.26-1.256,0.371
		c-0.159,0.043-0.216,0.106-0.215,0.279c0.01,1.131,0.004,2.262,0.004,3.393c0,0.366,0,0.731,0,1.091
		c-0.043,0.021-0.072,0.036-0.102,0.049c-0.037,0.016-0.077,0.028-0.113,0.046c-0.811,0.409-1.315,1.05-1.343,1.97
		c-0.035,1.113-0.017,1.181-0.003,2.295c0.009,0.728,0.312,1.336,0.911,1.747c0.313,0.215,0.695,0.328,1.045,0.487
		C232.224,92.195,232.436,92.195,232.647,92.195z"/>
	<path class="white-fill" d="M215.134,84.915c0.88,0.692,1.918,1.023,2.989,1.246c2.506,0.521,5.024,0.535,7.544,0.101
		c1.103-0.19,2.17-0.498,3.133-1.095c0.759-0.47,1.22-1.105,1.149-2.048c-0.027-0.348-0.004-0.699-0.004-1.049
		c0-0.209,0-0.417,0-0.649c-0.095,0.023-0.157,0.034-0.216,0.052c-1.666,0.497-3.329,1.002-4.998,1.491
		c-1.447,0.424-2.924,0.497-4.392,0.175c-1.085-0.238-2.144-0.591-3.213-0.902c-0.911-0.265-1.819-0.543-2.78-0.83
		c0,0.658,0.012,1.275-0.003,1.891C214.327,83.978,214.611,84.503,215.134,84.915z"/>
	<path class="white-fill" d="M159.133,145.529l-8.237,14.963c0,0,0,0.001-0.001,0.001c-0.045,0.082-0.098,0.16-0.154,0.238 c-0.014,0.02-0.029,0.038-0.044,0.057c-0.043,0.055-0.09,0.107-0.139,0.158c-0.017,0.018-0.034,0.037-0.052,0.054 c-0.005,0.005-0.009,0.01-0.014,0.014c-0.059,0.057-0.122,0.108-0.186,0.157c-0.018,0.014-0.037,0.025-0.055,0.038 c-0.058,0.04-0.116,0.079-0.177,0.113c-0.022,0.013-0.044,0.024-0.065,0.036c-0.068,0.036-0.138,0.068-0.209,0.096 c-0.012,0.005-0.023,0.01-0.035,0.014c-0.085,0.032-0.171,0.057-0.259,0.077c-0.019,0.005-0.037,0.007-0.055,0.011 c-0.069,0.014-0.138,0.025-0.208,0.032c-0.026,0.003-0.053,0.006-0.079,0.007c-0.08,0.005-0.16,0.008-0.24,0.004 c-0.007-0.001-0.015,0.001-0.023,0.001c-0.021-0.001-0.041-0.005-0.062-0.007c-0.049-0.004-0.099-0.008-0.148-0.016 c-0.03-0.005-0.06-0.012-0.09-0.017c-0.044-0.008-0.086-0.018-0.129-0.029c-0.029-0.007-0.056-0.016-0.084-0.025 c-0.047-0.014-0.093-0.031-0.14-0.048c-0.023-0.009-0.046-0.017-0.068-0.027c-0.056-0.024-0.111-0.05-0.165-0.079 c-0.01-0.005-0.021-0.009-0.031-0.015c-0.003-0.002-0.007-0.004-0.01-0.006c-0.047-0.025-0.092-0.054-0.136-0.084 c-0.016-0.011-0.032-0.02-0.048-0.031c-0.032-0.023-0.063-0.047-0.094-0.072c-0.026-0.02-0.053-0.04-0.079-0.062 c-0.011-0.009-0.021-0.02-0.032-0.03c-0.043-0.038-0.085-0.077-0.124-0.119l-4.814-5.076c-0.814-0.859-0.779-2.215,0.08-3.03 c0.859-0.814,2.215-0.779,3.03,0.08l2.795,2.948l6.824-12.395c0.571-1.037,1.875-1.415,2.911-0.844 C159.327,143.188,159.704,144.492,159.133,145.529z"/>
</g>
<g title="hydroponics-selected" class="stem-select" ng-class="{'radio-selected' : hydroponicsSelect==true}" ng-model="hydroponicsSelect" ng-click="hydroponicsSelected()">
	<path class="stem-focus-selected" filter="url(#highlightshadow)" d="M282.368,163.652h0.004 M282.372,155.43h-0.004h-73.986c-3.839,0-7.167,2.656-8.018,6.4
		c-3.093,13.604-11.761,25.535-23.782,32.732c-3.289,1.97-4.78,5.95-3.596,9.595l22.866,70.376c0.718,2.211,2.339,4.014,4.46,4.964
		c1.068,0.479,2.214,0.717,3.359,0.717c1.129,0,2.258-0.232,3.314-0.698c46.461-20.462,78.454-64.443,83.541-114.819
		c0.044-0.342,0.066-0.691,0.066-1.045C290.593,159.11,286.913,155.43,282.372,155.43L282.372,155.43z M282.368,171.874h0.004
		H282.368L282.368,171.874z"/>
	<circle cx="150" cy="150" r="25"/>
	<path d="M178.391,165.276c-1.017-1.017-2.666-1.017-3.682,0c-1.017,1.017-1.017,2.666,0,3.682c1.017,1.017,2.666,1.017,3.682,0
		C179.408,167.942,179.408,166.293,178.391,165.276z"/>
	<polygon class="white-fill" points="198.709,216.699 194.823,216.699 194.823,212.546 193.61,212.546 193.61,222.202 194.823,222.202 194.823,217.74
		198.709,217.74 198.709,222.202 199.93,222.202 199.93,212.546 198.709,212.546 	"/>
	<path class="white-fill" d="M203.829,220.253l-1.326-5.226h-1.28l2.109,7.116l-0.232,0.802c-0.119,0.397-0.276,0.678-0.468,0.839
		c-0.192,0.161-0.459,0.242-0.799,0.242L201.574,224v0.995c0.248,0.071,0.451,0.106,0.61,0.106c0.411,0,0.778-0.161,1.101-0.481
		c0.323-0.321,0.573-0.788,0.749-1.403l2.347-8.19h-1.247L203.829,220.253z"/>
	<path class="white-fill" d="M211.284,215.73c-0.385-0.557-0.92-0.835-1.605-0.835c-0.774,0-1.367,0.29-1.78,0.869c-0.414,0.579-0.62,1.422-0.62,2.527
		v0.736c0.01,1.052,0.225,1.867,0.647,2.444c0.423,0.577,1.005,0.866,1.748,0.866c0.716,0,1.266-0.301,1.651-0.903l0.06,0.769h1.074
		v-10.187h-1.174V215.73z M211.284,220.413c-0.288,0.588-0.723,0.881-1.307,0.881c-0.539,0-0.928-0.189-1.167-0.566
		c-0.238-0.378-0.358-0.968-0.358-1.771v-0.715c0.004-0.782,0.126-1.361,0.365-1.739s0.628-0.566,1.167-0.566
		c0.566,0,0.999,0.287,1.3,0.861V220.413z"/>
	<path class="white-fill" d="M216.754,214.894c-0.574,0-1.019,0.288-1.332,0.862l-0.02-0.729h-1.141v7.175h1.174v-5.133
		c0.238-0.659,0.658-0.988,1.259-0.988c0.19,0,0.367,0.015,0.53,0.046l-0.006-1.141
		C217.095,214.926,216.941,214.894,216.754,214.894z"/>
	<path class="white-fill" d="M220.78,214.894c-0.831,0-1.5,0.304-2.006,0.911c-0.507,0.608-0.759,1.434-0.759,2.477v0.783
		c0.018,1.004,0.277,1.799,0.779,2.387c0.502,0.588,1.169,0.883,2,0.883c0.84,0,1.512-0.303,2.016-0.908
		c0.504-0.606,0.756-1.428,0.756-2.467v-0.757c-0.013-1.021-0.273-1.828-0.779-2.421
		C222.279,215.191,221.611,214.894,220.78,214.894z M222.391,219.092c-0.031,1.495-0.563,2.242-1.598,2.242
		c-0.491,0-0.881-0.211-1.171-0.633c-0.29-0.422-0.434-1.002-0.434-1.74v-0.684c0-0.73,0.145-1.307,0.434-1.734
		c0.29-0.427,0.675-0.64,1.157-0.64c0.491,0,0.883,0.213,1.174,0.64c0.292,0.427,0.437,1.007,0.437,1.74L222.391,219.092
		L222.391,219.092z"/>
	<path class="white-fill" d="M227.896,214.894c-0.734,0-1.298,0.31-1.691,0.928l-0.06-0.796h-1.061v9.934h1.167v-3.442
		c0.389,0.544,0.944,0.816,1.664,0.816c0.747,0,1.325-0.279,1.734-0.835c0.409-0.557,0.613-1.403,0.613-2.54v-0.783
		c-0.014-1.091-0.215-1.912-0.604-2.46C229.271,215.169,228.683,214.894,227.896,214.894z M229.096,219.006
		c-0.004,0.788-0.131,1.372-0.382,1.754c-0.249,0.383-0.64,0.574-1.17,0.574c-0.575,0-1.006-0.274-1.293-0.822v-3.734
		c0.292-0.562,0.718-0.842,1.279-0.842c0.549,0,0.946,0.191,1.194,0.574c0.248,0.383,0.372,0.976,0.372,1.781L229.096,219.006
		L229.096,219.006L229.096,219.006z"/>
	<path class="white-fill" d="M234.296,214.894c-0.831,0-1.5,0.304-2.006,0.911c-0.507,0.608-0.759,1.434-0.759,2.477v0.783
		c0.018,1.004,0.277,1.799,0.779,2.387c0.502,0.588,1.169,0.883,2,0.883c0.84,0,1.512-0.303,2.016-0.908
		c0.504-0.606,0.756-1.428,0.756-2.467v-0.757c-0.013-1.021-0.273-1.828-0.779-2.421
		C235.795,215.189,235.127,214.894,234.296,214.894z M235.907,219.092c-0.031,1.495-0.563,2.242-1.598,2.242
		c-0.491,0-0.881-0.211-1.171-0.633c-0.29-0.422-0.434-1.002-0.434-1.74v-0.684c0-0.73,0.145-1.307,0.434-1.734
		c0.29-0.427,0.675-0.64,1.157-0.64c0.491,0,0.883,0.213,1.174,0.64c0.292,0.427,0.437,1.007,0.437,1.74L235.907,219.092
		L235.907,219.092z"/>
	<path class="white-fill" d="M241.478,214.894c-0.707,0-1.289,0.303-1.744,0.908l-0.033-0.776h-1.108v7.175h1.174v-5.212
		c0.142-0.314,0.328-0.568,0.56-0.762c0.232-0.194,0.494-0.291,0.785-0.291c0.376,0,0.658,0.119,0.846,0.355
		c0.188,0.237,0.282,0.636,0.282,1.197v4.715h1.167v-4.769C243.39,215.741,242.747,214.894,241.478,214.894z"/>
	<rect class="white-fill" x="245.258" y="215.028" width="1.174" height="7.175"/>
	<path class="white-fill" d="M245.855,212.414c-0.221,0-0.386,0.069-0.497,0.206c-0.111,0.137-0.166,0.305-0.166,0.504c0,0.199,0.055,0.365,0.166,0.498
		c0.111,0.133,0.276,0.198,0.497,0.198c0.226,0,0.394-0.066,0.504-0.198c0.111-0.133,0.166-0.299,0.166-0.498
		c0-0.194-0.057-0.361-0.17-0.501C246.243,212.484,246.076,212.414,245.855,212.414z"/>
	<path class="white-fill" d="M249.601,216.417c0.252-0.342,0.639-0.515,1.161-0.515c0.402,0,0.717,0.133,0.945,0.398
		c0.228,0.265,0.355,0.663,0.381,1.194h1.108c-0.026-0.804-0.255-1.439-0.686-1.904c-0.431-0.464-1.014-0.696-1.748-0.696
		c-0.889,0-1.565,0.282-2.029,0.846c-0.464,0.563-0.696,1.387-0.696,2.47v0.789c0,1.105,0.233,1.937,0.7,2.497
		c0.466,0.559,1.144,0.839,2.032,0.839c0.667,0,1.233-0.226,1.694-0.68c0.462-0.453,0.706-1.024,0.733-1.714h-1.108
		c-0.021,0.447-0.15,0.79-0.385,1.032c-0.234,0.241-0.546,0.362-0.935,0.362c-0.539,0-0.934-0.175-1.183-0.524
		c-0.25-0.35-0.375-0.946-0.375-1.791v-0.915C249.219,217.322,249.349,216.759,249.601,216.417z"/>
	<path class="white-fill" d="M258.74,219.038c-0.314-0.325-0.906-0.658-1.778-1c-0.548-0.237-0.894-0.429-1.037-0.575
		c-0.144-0.145-0.216-0.337-0.216-0.575c0-0.299,0.099-0.538,0.296-0.717c0.197-0.178,0.467-0.268,0.813-0.268
		c0.336,0,0.613,0.114,0.829,0.342c0.217,0.228,0.325,0.503,0.325,0.826h1.167c0-0.637-0.212-1.158-0.636-1.565
		c-0.425-0.406-0.986-0.61-1.685-0.61c-0.664,0-1.208,0.194-1.634,0.58c-0.427,0.387-0.64,0.872-0.64,1.456
		c0,0.327,0.064,0.609,0.192,0.846c0.128,0.237,0.322,0.448,0.58,0.633c0.259,0.186,0.704,0.409,1.336,0.67
		c0.543,0.243,0.911,0.456,1.101,0.636c0.19,0.181,0.285,0.397,0.285,0.65c0,0.296-0.102,0.532-0.305,0.706
		c-0.204,0.174-0.499,0.262-0.889,0.262c-0.416,0-0.738-0.113-0.969-0.338c-0.229-0.226-0.351-0.538-0.364-0.935h-1.181
		c0,0.659,0.232,1.203,0.696,1.631c0.465,0.428,1.071,0.644,1.818,0.644c0.72,0,1.296-0.187,1.725-0.562
		c0.428-0.374,0.643-0.873,0.643-1.498C259.211,219.776,259.054,219.363,258.74,219.038z"/>
	<path class="white-fill" d="M230.851,190.239h0.753v4.707c-1.313,0.197-2.497,0.864-3.321,1.869c0.615,0.268,1.2,0.609,1.719,1.055h1.602
		c1.652,0,2.998,1.337,3.012,2.986c0.127-0.142,0.26-0.289,0.403-0.442l2.172-2.335c-0.712-1.676-2.249-2.897-4.081-3.163v-6.182
		h0.753c2.492,0,4.519-2.027,4.519-4.519v-1.506h-1.506c-2.492,0-4.519,2.027-4.519,4.519v0.753c-0.027,0-0.049,0.013-0.074,0.015
		c-0.355-2.14-2.205-3.781-4.443-3.781h-1.506v1.506C226.333,188.212,228.359,190.239,230.851,190.239z"/>
	<path class="white-fill" d="M218.802,208.413h13.555c1.659,0,3.222-0.781,4.217-2.109l4.022-5.362c0.437-0.572,0.377-1.4-0.136-1.913
		c-0.588-0.588-1.551-0.572-2.124,0.03l-2.214,2.38c-1.445,1.552-1.924,2.455-3.253,2.455h-5.106c-0.422,0-0.753-0.331-0.753-0.753
		c0-0.422,0.331-0.753,0.753-0.753h3.841c0.832,0,1.506-0.675,1.506-1.506c0-0.832-0.675-1.506-1.506-1.506h-2.033
		c-0.1-0.042-0.187-0.079-0.287-0.121c-1.988-1.958-5.136-2.017-7.184-0.21l-2.093,1.838h-1.205c-0.422,0-0.753,0.331-0.753,0.753
		v6.024C218.049,208.076,218.386,208.413,218.802,208.413z"/>
	<path class="white-fill" d="M159.133,145.529l-8.237,14.963c0,0,0,0.001-0.001,0.001c-0.045,0.082-0.098,0.16-0.154,0.238 c-0.014,0.02-0.029,0.038-0.044,0.057c-0.043,0.055-0.09,0.107-0.139,0.158c-0.017,0.018-0.034,0.037-0.052,0.054 c-0.005,0.005-0.009,0.01-0.014,0.014c-0.059,0.057-0.122,0.108-0.186,0.157c-0.018,0.014-0.037,0.025-0.055,0.038 c-0.058,0.04-0.116,0.079-0.177,0.113c-0.022,0.013-0.044,0.024-0.065,0.036c-0.068,0.036-0.138,0.068-0.209,0.096 c-0.012,0.005-0.023,0.01-0.035,0.014c-0.085,0.032-0.171,0.057-0.259,0.077c-0.019,0.005-0.037,0.007-0.055,0.011 c-0.069,0.014-0.138,0.025-0.208,0.032c-0.026,0.003-0.053,0.006-0.079,0.007c-0.08,0.005-0.16,0.008-0.24,0.004 c-0.007-0.001-0.015,0.001-0.023,0.001c-0.021-0.001-0.041-0.005-0.062-0.007c-0.049-0.004-0.099-0.008-0.148-0.016 c-0.03-0.005-0.06-0.012-0.09-0.017c-0.044-0.008-0.086-0.018-0.129-0.029c-0.029-0.007-0.056-0.016-0.084-0.025 c-0.047-0.014-0.093-0.031-0.14-0.048c-0.023-0.009-0.046-0.017-0.068-0.027c-0.056-0.024-0.111-0.05-0.165-0.079 c-0.01-0.005-0.021-0.009-0.031-0.015c-0.003-0.002-0.007-0.004-0.01-0.006c-0.047-0.025-0.092-0.054-0.136-0.084 c-0.016-0.011-0.032-0.02-0.048-0.031c-0.032-0.023-0.063-0.047-0.094-0.072c-0.026-0.02-0.053-0.04-0.079-0.062 c-0.011-0.009-0.021-0.02-0.032-0.03c-0.043-0.038-0.085-0.077-0.124-0.119l-4.814-5.076c-0.814-0.859-0.779-2.215,0.08-3.03 c0.859-0.814,2.215-0.779,3.03,0.08l2.795,2.948l6.824-12.395c0.571-1.037,1.875-1.415,2.911-0.844 C159.327,143.188,159.704,144.492,159.133,145.529z"/>
</g>
<g title="robotics-selected" class="stem-select" ng-class="{'radio-selected' : roboticsSelect==true}" ng-model="roboticsSelect" ng-click="roboticsSelected()">
	<path class="stem-focus-selected" filter="url(#highlightshadow)" d="M110.922,187.092c-1.691,0-3.385,0.52-4.832,1.571l-59.853,43.486c-1.88,1.366-3.095,3.464-3.343,5.775
		c-0.248,2.311,0.494,4.619,2.042,6.353c13.108,14.682,28.792,26.263,46.617,34.422c18.457,8.448,38.184,12.732,58.634,12.732
		c10.064,0,20.141-1.077,29.954-3.199c2.273-0.492,4.231-1.922,5.389-3.938c1.159-2.016,1.411-4.428,0.692-6.639l-22.868-70.381
		c-1.108-3.41-4.284-5.681-7.815-5.681c-0.243,0-0.487,0.01-0.732,0.032c-1.654,0.147-3.166,0.218-4.62,0.218
		c-12.449,0-24.471-4.516-33.852-12.718C114.792,187.775,112.86,187.092,110.922,187.092L110.922,187.092z"/>
	<circle cx="150" cy="150" r="25"/>
	<path d="M139.802,178.264c-1.017-1.017-2.666-1.017-3.682,0c-1.017,1.017-1.017,2.666,0,3.682c1.017,1.017,2.666,1.017,3.682,0
		C140.819,180.929,140.819,179.281,139.802,178.264z"/>
	<path class="white-fill" d="M96.599,254.261c0.263-0.445,0.395-0.965,0.395-1.562c0-0.95-0.243-1.672-0.729-2.166c-0.487-0.493-1.203-0.74-2.149-0.74
		H91.41v9.656h1.22v-3.906h1.697l1.717,3.906h1.306v-0.08l-1.87-4.105C95.964,255.04,96.336,254.705,96.599,254.261z
		 M94.103,254.503h-1.472v-3.668h1.459c1.123,0,1.685,0.62,1.685,1.86c0,0.55-0.151,0.988-0.454,1.316
		C95.016,254.339,94.611,254.503,94.103,254.503z"/>
	<path class="white-fill" d="M100.973,252.142c-0.831,0-1.5,0.304-2.006,0.911c-0.507,0.608-0.759,1.434-0.759,2.477v0.783
		c0.018,1.004,0.277,1.799,0.779,2.387c0.502,0.588,1.169,0.883,2,0.883c0.84,0,1.512-0.303,2.016-0.908
		c0.504-0.606,0.756-1.428,0.756-2.467v-0.757c-0.013-1.021-0.273-1.828-0.779-2.421
		C102.473,252.438,101.804,252.142,100.973,252.142z M102.585,256.34c-0.031,1.495-0.563,2.242-1.598,2.242
		c-0.491,0-0.881-0.211-1.171-0.633c-0.29-0.422-0.434-1.002-0.434-1.74v-0.683c0-0.73,0.145-1.307,0.434-1.734
		c0.29-0.427,0.675-0.64,1.157-0.64c0.491,0,0.883,0.213,1.174,0.64c0.292,0.427,0.437,1.007,0.437,1.74L102.585,256.34
		L102.585,256.34z"/>
	<path class="white-fill" d="M108.102,252.142c-0.721,0-1.274,0.307-1.658,0.922v-3.8h-1.167v10.187h1.067l0.06-0.849
		c0.38,0.655,0.95,0.981,1.711,0.981c0.765,0,1.349-0.283,1.751-0.849c0.402-0.566,0.603-1.408,0.603-2.527v-0.71
		c-0.004-1.123-0.204-1.963-0.597-2.52C109.479,252.421,108.889,252.142,108.102,252.142z M109.302,256.256
		c-0.004,0.782-0.122,1.358-0.351,1.728c-0.23,0.371-0.611,0.557-1.141,0.557c-0.619,0-1.074-0.323-1.366-0.967v-3.411
		c0.296-0.653,0.747-0.981,1.352-0.981c0.53,0,0.914,0.18,1.15,0.54c0.237,0.36,0.355,0.964,0.355,1.811V256.256z"/>
	<path class="white-fill" d="M114.489,252.142c-0.831,0-1.5,0.304-2.006,0.911c-0.507,0.608-0.759,1.434-0.759,2.477v0.783
		c0.018,1.004,0.277,1.799,0.779,2.387c0.502,0.588,1.168,0.883,2,0.883c0.839,0,1.512-0.303,2.016-0.908
		c0.504-0.606,0.756-1.428,0.756-2.467v-0.757c-0.013-1.021-0.273-1.828-0.779-2.421
		C115.988,252.438,115.32,252.142,114.489,252.142z M116.1,256.34c-0.031,1.495-0.563,2.242-1.598,2.242
		c-0.491,0-0.881-0.211-1.171-0.633c-0.29-0.422-0.434-1.002-0.434-1.74v-0.683c0-0.73,0.145-1.307,0.434-1.734
		c0.29-0.427,0.675-0.64,1.157-0.64c0.491,0,0.883,0.213,1.174,0.64c0.292,0.427,0.437,1.007,0.437,1.74L116.1,256.34L116.1,256.34z
		"/>
	<path class="white-fill" d="M120.464,258.323c-0.093-0.147-0.139-0.361-0.139-0.644v-4.456h1.082v-0.948h-1.082v-1.738h-1.167v1.738h-1.094v0.948
		h1.094v4.457c0,0.606,0.122,1.074,0.365,1.406c0.243,0.332,0.597,0.498,1.061,0.498c0.279,0,0.55-0.044,0.816-0.132l0.013-0.989
		c-0.159,0.053-0.316,0.08-0.471,0.08C120.716,258.542,120.557,258.469,120.464,258.323z"/>
	<path class="white-fill" d="M123.488,249.661c-0.221,0-0.386,0.069-0.497,0.206c-0.111,0.137-0.166,0.305-0.166,0.504c0,0.199,0.055,0.365,0.166,0.498
		s0.276,0.198,0.497,0.198c0.226,0,0.394-0.066,0.504-0.198c0.111-0.133,0.166-0.299,0.166-0.498c0-0.194-0.057-0.361-0.17-0.501
		C123.876,249.731,123.709,249.661,123.488,249.661z"/>
	<rect class="white-fill" x="122.89" y="252.275" width="1.174" height="7.175"/>
	<path class="white-fill" d="M127.234,253.664c0.252-0.343,0.639-0.515,1.161-0.515c0.402,0,0.717,0.133,0.945,0.398
		c0.228,0.265,0.355,0.663,0.381,1.194h1.108c-0.026-0.804-0.255-1.439-0.686-1.904c-0.431-0.464-1.014-0.696-1.748-0.696
		c-0.889,0-1.565,0.282-2.03,0.846c-0.464,0.563-0.696,1.387-0.696,2.47v0.789c0,1.105,0.233,1.937,0.7,2.497
		c0.466,0.559,1.144,0.839,2.032,0.839c0.667,0,1.233-0.226,1.694-0.68c0.462-0.453,0.706-1.024,0.733-1.714h-1.108
		c-0.021,0.447-0.15,0.79-0.385,1.032c-0.234,0.241-0.546,0.362-0.935,0.362c-0.539,0-0.934-0.175-1.183-0.524
		c-0.25-0.35-0.375-0.946-0.375-1.79v-0.915C126.852,254.569,126.983,254.007,127.234,253.664z"/>
	<path class="white-fill" d="M136.374,256.284c-0.314-0.325-0.906-0.658-1.778-1c-0.548-0.237-0.894-0.429-1.037-0.575
		c-0.144-0.145-0.216-0.337-0.216-0.575c0-0.299,0.099-0.538,0.296-0.717c0.197-0.178,0.467-0.268,0.813-0.268
		c0.336,0,0.613,0.114,0.829,0.342c0.217,0.228,0.325,0.503,0.325,0.826h1.167c0-0.637-0.212-1.158-0.636-1.565
		c-0.425-0.406-0.986-0.61-1.685-0.61c-0.664,0-1.208,0.194-1.634,0.58c-0.427,0.387-0.64,0.872-0.64,1.456
		c0,0.327,0.064,0.609,0.192,0.846c0.128,0.237,0.322,0.448,0.58,0.633c0.259,0.186,0.704,0.409,1.337,0.67
		c0.543,0.243,0.911,0.456,1.101,0.636c0.19,0.181,0.285,0.397,0.285,0.65c0,0.296-0.102,0.532-0.305,0.706
		c-0.204,0.175-0.499,0.262-0.889,0.262c-0.416,0-0.738-0.113-0.969-0.338c-0.229-0.226-0.351-0.538-0.364-0.935h-1.181
		c0,0.659,0.232,1.203,0.696,1.631c0.465,0.428,1.071,0.644,1.818,0.644c0.72,0,1.296-0.187,1.725-0.562
		c0.428-0.374,0.643-0.873,0.643-1.498C136.844,257.023,136.687,256.61,136.374,256.284z"/>
	<path class="white-fill" d="M113.316,234.889l1.247-1.246l2.663-2.663c0.026-0.026,0.051-0.052,0.074-0.079c0.009-0.01,0.017-0.019,0.026-0.03
		c0.015-0.017,0.029-0.034,0.044-0.052c0.01-0.013,0.021-0.025,0.03-0.038c0.012-0.015,0.023-0.029,0.034-0.044
		c0.011-0.015,0.021-0.029,0.032-0.044c0.01-0.013,0.018-0.026,0.027-0.039c0.011-0.016,0.023-0.033,0.033-0.05
		c0.007-0.01,0.013-0.02,0.019-0.03c0.547-0.877,0.44-2.048-0.321-2.809l0,0l-1.428-1.428c-0.429-0.429-1-0.665-1.607-0.665
		s-1.178,0.236-1.607,0.665l-4.362,4.362h0.804C111.36,230.7,113.262,232.57,113.316,234.889z"/>
	<path class="white-fill" d="M127.203,244.836v-1.262c0-1.253-1.019-2.272-2.272-2.272h-13.127V236.4v-1.409c0-1.531-1.245-2.777-2.777-2.777h-2.02
		c-0.053,0-0.106,0.002-0.159,0.005c-0.002,0-0.004,0-0.007,0.001c-1.454,0.086-2.611,1.296-2.611,2.771v6.31h-1.009
		c-1.253,0-2.272,1.019-2.272,2.272v1.262c0,1.253,1.019,2.272,2.272,2.272h21.709C126.184,247.109,127.203,246.089,127.203,244.836
		z M108.018,237.22c-0.696,0-1.262-0.566-1.262-1.262c0-0.696,0.566-1.262,1.262-1.262s1.262,0.566,1.262,1.262
		C109.28,236.655,108.714,237.22,108.018,237.22z"/>
	<path class="white-fill" d="M116.101,235.18c0.148,0.148,0.341,0.222,0.535,0.222s0.388-0.074,0.535-0.222l0.535-0.535l1.048,1.048l-0.277,1.388
		c-0.049,0.248,0.028,0.505,0.207,0.684l1.428,1.428c0.148,0.148,0.341,0.222,0.535,0.222c0.194,0,0.388-0.074,0.535-0.222
		c0.296-0.296,0.296-0.775,0-1.071l-1.141-1.141l0.178-0.892l0.892-0.178l1.141,1.141c0.148,0.148,0.341,0.222,0.535,0.222
		c0.194,0,0.388-0.074,0.535-0.222c0.296-0.296,0.296-0.775,0-1.071l-1.428-1.428c-0.179-0.179-0.436-0.257-0.684-0.207
		l-1.388,0.277l-1.048-1.048l0.535-0.535c0.142-0.142,0.223-0.336,0.222-0.538c-0.001-0.202-0.082-0.395-0.226-0.537l-0.523-0.516
		c-0.139,0.213-0.303,0.415-0.49,0.602l-2.663,2.663L116.101,235.18z"/>
	<path class="white-fill" d="M159.133,145.529l-8.237,14.963c0,0,0,0.001-0.001,0.001c-0.045,0.082-0.098,0.16-0.154,0.238 c-0.014,0.02-0.029,0.038-0.044,0.057c-0.043,0.055-0.09,0.107-0.139,0.158c-0.017,0.018-0.034,0.037-0.052,0.054 c-0.005,0.005-0.009,0.01-0.014,0.014c-0.059,0.057-0.122,0.108-0.186,0.157c-0.018,0.014-0.037,0.025-0.055,0.038 c-0.058,0.04-0.116,0.079-0.177,0.113c-0.022,0.013-0.044,0.024-0.065,0.036c-0.068,0.036-0.138,0.068-0.209,0.096 c-0.012,0.005-0.023,0.01-0.035,0.014c-0.085,0.032-0.171,0.057-0.259,0.077c-0.019,0.005-0.037,0.007-0.055,0.011 c-0.069,0.014-0.138,0.025-0.208,0.032c-0.026,0.003-0.053,0.006-0.079,0.007c-0.08,0.005-0.16,0.008-0.24,0.004 c-0.007-0.001-0.015,0.001-0.023,0.001c-0.021-0.001-0.041-0.005-0.062-0.007c-0.049-0.004-0.099-0.008-0.148-0.016 c-0.03-0.005-0.06-0.012-0.09-0.017c-0.044-0.008-0.086-0.018-0.129-0.029c-0.029-0.007-0.056-0.016-0.084-0.025 c-0.047-0.014-0.093-0.031-0.14-0.048c-0.023-0.009-0.046-0.017-0.068-0.027c-0.056-0.024-0.111-0.05-0.165-0.079 c-0.01-0.005-0.021-0.009-0.031-0.015c-0.003-0.002-0.007-0.004-0.01-0.006c-0.047-0.025-0.092-0.054-0.136-0.084 c-0.016-0.011-0.032-0.02-0.048-0.031c-0.032-0.023-0.063-0.047-0.094-0.072c-0.026-0.02-0.053-0.04-0.079-0.062 c-0.011-0.009-0.021-0.02-0.032-0.03c-0.043-0.038-0.085-0.077-0.124-0.119l-4.814-5.076c-0.814-0.859-0.779-2.215,0.08-3.03 c0.859-0.814,2.215-0.779,3.03,0.08l2.795,2.948l6.824-12.395c0.571-1.037,1.875-1.415,2.911-0.844 C159.327,143.188,159.704,144.492,159.133,145.529z"/>
</g>

</svg>
