<svg version="1.1" xmlns="http://www.w3.org/2000/svg" xmlns:xlink="http://www.w3.org/1999/xlink" viewBox="0 0 400 400">
	<g ng-click="generalStemSelected()" ng-mouseover="showGeneralStemPopover=true;" ng-mouseleave="showGeneralStemPopover=false;">
		<path class="white-fill" d="M185.146,19.76c-0.308,0-0.618,0.014-0.927,0.041c-42.804,3.819-82.854,23.027-112.773,54.086 c-30.002,31.145-47.694,72.04-49.817,115.151c-0.14,2.851,0.894,5.635,2.863,7.703c1.968,2.068,4.698,3.238,7.553,3.238h93.031 c5.315,0,9.78-3.997,10.365-9.28c1.531-13.822,7.329-26.565,16.769-36.853c9.389-10.233,21.497-17.094,35.014-19.842 c4.859-0.988,8.351-5.261,8.351-10.219V30.188c0-2.927-1.23-5.719-3.39-7.694C190.254,20.728,187.74,19.76,185.146,19.76 L185.146,19.76z"/>
		<path class="grey-fill" d="M104.618,124.564c0.014,1.389,0.701,2.139,2.075,2.18c1.088,0.033,2.104-0.291,2.99-0.713 c-1.46-1.459-2.903-2.901-4.331-4.327C104.945,122.452,104.609,123.726,104.618,124.564z"/>
		<path class="grey-fill" d="M134.241,123.867c-5.374-6.142-10.748-12.283-16.118-18.427c-0.105-0.12-0.236-0.277-0.239-0.419 c-0.022-0.915-0.011-1.831-0.011-2.74c0.109-0.021,0.157-0.039,0.204-0.039c2.413-0.002,4.826-0.008,7.238,0.007 c0.171,0.001,0.377,0.119,0.506,0.245c1.171,1.151,2.324,2.321,3.495,3.472c0.199,0.196,0.227,0.342,0.113,0.602 c-0.644,1.464-0.186,3.067,1.105,3.955c1.28,0.88,3.003,0.716,4.098-0.39c1.083-1.094,1.243-2.789,0.383-4.061 c-0.877-1.297-2.497-1.775-3.945-1.13c-0.286,0.127-0.44,0.079-0.643-0.127c-1.248-1.264-2.514-2.51-3.76-3.776 c-0.293-0.298-0.609-0.42-1.025-0.418c-2.329,0.013-4.658,0.007-6.987,0.008c-0.246,0-0.493,0-0.75,0c0-0.828,0-1.604,0-2.414 c0.199,0,0.364,0,0.529,0c3.418,0,6.836,0.006,10.255-0.008c0.381-0.002,0.576,0.083,0.732,0.468 c0.567,1.402,2.068,2.19,3.506,1.898c1.543-0.314,2.62-1.583,2.639-3.11c0.019-1.544-1.023-2.853-2.54-3.19 c-1.479-0.328-2.971,0.427-3.598,1.822c-0.075,0.166-0.144,0.334-0.206,0.481c-3.792,0-7.555,0-11.311,0c0-0.809,0-1.585,0-2.381 c2.586,0,5.132-0.008,7.678,0.008c0.454,0.003,0.794-0.128,1.112-0.453c1.232-1.256,2.487-2.49,3.724-3.741 c0.201-0.203,0.357-0.267,0.645-0.136c0.328,0.15,0.698,0.256,1.057,0.284c1.445,0.112,2.763-0.766,3.247-2.121 c0.495-1.385,0.014-2.879-1.202-3.732c-1.156-0.811-2.715-0.753-3.837,0.142c-1.127,0.899-1.511,2.409-0.924,3.757 c0.129,0.297,0.094,0.465-0.132,0.687c-1.149,1.126-2.273,2.278-3.427,3.398c-0.168,0.163-0.455,0.282-0.689,0.284 c-2.279,0.021-4.557,0.013-6.836,0.011c-0.144,0-0.288-0.018-0.432-0.028c0-0.808,0-1.573,0-2.347 c0.216-0.038,0.412-0.066,0.605-0.107c1.635-0.349,2.74-1.829,2.58-3.452c-0.163-1.657-1.537-2.908-3.231-2.911 c-4.289-0.007-8.579-0.014-12.868,0.005c-1.324,0.006-2.313,0.653-2.879,1.847c-0.569,1.199-0.4,2.355,0.416,3.394 c0.614,0.782,1.465,1.136,2.457,1.204c0,0.797,0,1.575,0,2.358c-0.073,0.016-0.119,0.035-0.166,0.035 c-2.413,0.002-4.826,0.007-7.238-0.01c-0.185-0.001-0.406-0.132-0.546-0.269c-1.148-1.127-2.276-2.275-3.423-3.402 c-0.221-0.217-0.286-0.383-0.148-0.687c0.149-0.328,0.248-0.7,0.275-1.059c0.106-1.441-0.785-2.76-2.143-3.231 c-1.376-0.477-2.855-0.001-3.692,1.187c-0.821,1.165-0.775,2.707,0.115,3.837c0.897,1.138,2.406,1.538,3.749,0.953 c0.318-0.139,0.493-0.098,0.728,0.142c1.208,1.233,2.442,2.44,3.65,3.673c0.327,0.334,0.672,0.492,1.149,0.488 c2.279-0.02,4.557-0.009,6.836-0.009c0.28,0,0.56,0,0.851,0c0,0.829,0,1.606,0,2.414c-0.181,0-0.329,0-0.477,0 c-3.452,0-6.903-0.008-10.355,0.011c-0.386,0.002-0.54-0.124-0.684-0.466c-0.601-1.43-2.071-2.196-3.554-1.892 c-1.517,0.311-2.591,1.616-2.591,3.15c0,1.535,1.065,2.831,2.59,3.149c1.478,0.308,2.951-0.457,3.556-1.888 c0.145-0.343,0.301-0.468,0.685-0.466c3.452,0.018,6.903,0.01,10.355,0.012c0.161,0,0.322,0.014,0.467,0.021 c0,0.824,0,1.601,0,2.39c-2.554,0-5.067,0.011-7.58-0.009c-0.525-0.004-0.916,0.142-1.285,0.524 c-1.201,1.24-2.438,2.444-3.65,3.673c-0.202,0.205-0.358,0.256-0.645,0.134c-0.363-0.153-0.766-0.266-1.157-0.284 c-1.456-0.069-2.739,0.849-3.177,2.219c-0.437,1.366,0.058,2.819,1.238,3.636c1.186,0.821,2.751,0.749,3.875-0.178 c1.096-0.904,1.463-2.394,0.881-3.726c-0.13-0.298-0.093-0.465,0.133-0.686c1.149-1.126,2.273-2.278,3.428-3.397 c0.167-0.162,0.454-0.27,0.69-0.279c0.887-0.033,1.776-0.014,2.664-0.015c1.522,0,3.044,0,4.629,0c0,0.84-0.017,1.609,0.007,2.378 c0.012,0.377-0.103,0.656-0.352,0.941c-5.38,6.136-10.758,12.273-16.118,18.427c-1.348,1.547-1.623,3.327-0.768,5.196 c0.846,1.848,2.356,2.816,4.385,2.819c12.801,0.016,25.603,0.008,38.404,0.006c2.118,0,3.693-0.938,4.559-2.868 C135.978,127.225,135.62,125.443,134.241,123.867z M132.369,106.262c0.873,0.009,1.594,0.741,1.588,1.615 c-0.006,0.894-0.761,1.625-1.655,1.602c-0.872-0.023-1.58-0.767-1.561-1.641C130.76,106.962,131.493,106.253,132.369,106.262z  M132.377,95.805c0.875,0.012,1.588,0.744,1.58,1.621c-0.008,0.873-0.738,1.595-1.611,1.593c-0.897-0.002-1.625-0.751-1.602-1.649 C130.765,96.489,131.491,95.794,132.377,95.805z M132.331,85.345c0.883-0.005,1.61,0.701,1.626,1.578 c0.016,0.896-0.72,1.643-1.616,1.638c-0.878-0.004-1.593-0.722-1.599-1.604C130.736,86.081,131.457,85.35,132.331,85.345z M90.553,88.56c-0.878,0.015-1.615-0.692-1.633-1.566c-0.019-0.905,0.698-1.643,1.601-1.646c0.877-0.004,1.602,0.711,1.611,1.588 C92.14,87.81,91.425,88.546,90.553,88.56z M90.538,99.019c-0.872,0.01-1.608-0.707-1.621-1.579 c-0.013-0.896,0.721-1.639,1.617-1.635c0.873,0.004,1.597,0.73,1.597,1.604C92.131,98.282,91.412,99.009,90.538,99.019z  M90.526,109.477c-0.876,0.003-1.603-0.715-1.61-1.591c-0.007-0.897,0.734-1.634,1.629-1.623c0.877,0.012,1.589,0.739,1.584,1.617 C92.124,108.76,91.407,109.473,90.526,109.477z M115.417,128.335c-1.229-0.158-2.385-0.531-3.464-1.12 c-0.392-0.214-0.678-0.178-1.05,0.017c-1.119,0.586-2.303,0.982-3.569,1.118c-2.562,0.276-4.354-1.323-4.33-3.876 c0.042-1.436,0.477-2.767,1.14-4.021c0.207-0.391,0.184-0.675-0.012-1.049c-0.571-1.089-0.948-2.243-1.097-3.473 c-0.342-2.818,1.596-4.746,4.418-4.395c1.247,0.155,2.415,0.541,3.514,1.129c0.351,0.188,0.615,0.17,0.959-0.012 c1.102-0.581,2.269-0.97,3.517-1.121c2.797-0.338,4.722,1.574,4.398,4.371c-0.147,1.265-0.539,2.45-1.134,3.565 c-0.188,0.352-0.171,0.615,0.011,0.958c0.584,1.102,0.965,2.271,1.12,3.518C120.187,126.75,118.227,128.696,115.417,128.335z"/>
		<path class="grey-fill" d="M116.377,120.259c0.066-0.096,0.124-0.196,0.197-0.313c-0.06-0.101-0.114-0.203-0.178-0.297 c-1.259-1.848-2.818-3.396-4.656-4.669c-0.237-0.164-0.394-0.143-0.619,0.012c-1.828,1.259-3.37,2.799-4.631,4.625 c-0.152,0.221-0.187,0.379-0.02,0.619c1.276,1.836,2.825,3.392,4.665,4.663c0.235,0.162,0.392,0.148,0.618-0.009 C113.574,123.625,115.12,122.087,116.377,120.259z M112.2,120.733c-0.526,0-1.008,0-1.53,0c0-0.517,0-1.023,0-1.566 c0.5,0,1.006,0,1.53,0C112.2,119.692,112.2,120.21,112.2,120.733z"/>
		<path class="grey-fill" d="M113.18,126.033c1.1,0.474,2.317,0.917,3.661,0.617c0.762-0.17,1.203-0.687,1.338-1.457 c0.224-1.28-0.194-2.433-0.64-3.502C116.071,123.153,114.63,124.589,113.18,126.033z"/>
		<path class="grey-fill" d="M109.66,113.861c-0.715-0.421-2.126-0.785-2.983-0.743c-1.332,0.065-2.045,0.797-2.052,2.148 c-0.006,1.053,0.308,2.032,0.712,2.913C106.792,116.726,108.234,115.286,109.66,113.861z"/>
		<path class="grey-fill" d="M118.185,114.726c-0.146-0.875-0.622-1.365-1.492-1.532c-1.28-0.246-2.426,0.202-3.501,0.642 c1.461,1.464,2.9,2.906,4.345,4.353C117.983,117.123,118.394,115.985,118.185,114.726z"/>
	</g>
	<g ng-click="stemCodingSelected()" ng-mouseover="showCodingPopover=true;" ng-mouseleave="showCodingPopover=false;">
		<path class="white-fill" d="M218.84,20.092c-2.556,0-5.038,0.94-6.961,2.664c-2.206,1.978-3.467,4.801-3.467,7.765v94.038 c0,4.779,3.249,8.947,7.883,10.113c26.257,6.608,45.901,29.124,48.881,56.028c0.585,5.283,5.05,9.28,10.365,9.28h93.031 c2.855,0,5.585-1.17,7.553-3.238c1.968-2.068,3.003-4.852,2.863-7.703c-2.093-42.492-19.367-82.95-48.642-113.922 c-29.155-30.845-68.352-50.364-110.37-54.963C219.596,20.113,219.217,20.092,218.84,20.092L218.84,20.092z"/>
		<path class="grey-fill" d="M259.834,115.321c0-10.598,0-21.196,0-31.794c0.364-0.364,0.729-0.729,1.093-1.093 c16.228,0,32.456,0,48.684,0c0.491,0.237,0.856,0.602,1.093,1.093c0,10.598,0,21.196,0,31.794 C293.747,115.321,276.79,115.321,259.834,115.321z M280.908,91.379c-0.037-0.005-0.074-0.009-0.111-0.014 c0-0.463,0.008-0.927-0.002-1.39c-0.023-1.146-0.354-2.181-1.14-3.04c-1.156-1.264-2.601-1.755-4.262-1.401 c-1.597,0.341-2.752,1.311-3.253,2.885c-0.532,1.673-0.354,3.414-0.189,5.118c0.201,2.075,1.95,3.6,4.148,3.784 c1.881,0.158,3.898-1.16,4.408-3.018C280.766,93.364,280.782,92.357,280.908,91.379z M295.653,91.086 c0.051,1.025,0.046,1.74,0.13,2.444c0.255,2.134,2.217,3.814,4.4,3.805c2.197-0.009,4.161-1.67,4.37-3.825 c0.124-1.279,0.096-2.578,0.053-3.865c-0.018-0.546-0.17-1.122-0.399-1.621c-0.77-1.677-2.517-2.721-4.216-2.596 c-2.016,0.148-3.576,1.336-4.078,3.268C295.688,89.561,295.711,90.491,295.653,91.086z M265.779,106.421 c0.132,0.974,0.162,1.995,0.425,2.952c0.475,1.727,2.296,2.959,4.155,2.964c1.842,0.005,3.655-1.248,4.182-2.952 c0.524-1.697,0.357-3.447,0.202-5.169c-0.183-2.029-1.925-3.565-4.101-3.779c-1.896-0.186-3.943,1.132-4.459,3.008 C265.924,104.387,265.91,105.395,265.779,106.421z M289.63,106.316c0.037,0.005,0.073,0.01,0.11,0.014 c0,0.48-0.007,0.96,0.001,1.44c0.02,1.165,0.36,2.214,1.165,3.08c1.152,1.238,2.584,1.722,4.226,1.375 c1.598-0.338,2.755-1.305,3.26-2.877c0.538-1.672,0.352-3.413,0.194-5.118c-0.193-2.069-1.937-3.602-4.137-3.794 c-1.88-0.164-3.903,1.153-4.416,3.006C289.777,104.365,289.757,105.355,289.63,106.316z M268.875,91.378 c0-1.424,0.003-2.848-0.001-4.271c-0.003-1.012-0.603-1.687-1.487-1.688c-0.885-0.001-1.49,0.674-1.491,1.684 c-0.003,2.848-0.003,5.695,0,8.543c0.001,1.012,0.602,1.687,1.487,1.688c0.885,0.001,1.488-0.675,1.491-1.684 C268.878,94.226,268.875,92.802,268.875,91.378z M286.759,91.377c0-1.424,0.003-2.848-0.001-4.271 c-0.003-1.011-0.604-1.686-1.489-1.686c-0.885,0-1.488,0.675-1.489,1.686c-0.003,2.848-0.003,5.695,0,8.543 c0.001,1.011,0.604,1.686,1.489,1.686c0.885,0,1.486-0.675,1.489-1.686C286.762,94.224,286.759,92.8,286.759,91.377z M292.72,91.427c0-1.473,0.005-2.947-0.002-4.42c-0.003-0.718-0.359-1.256-0.954-1.485c-1.003-0.387-2.017,0.344-2.021,1.485 c-0.01,2.88-0.005,5.761-0.003,8.641c0.001,1.007,0.605,1.686,1.489,1.686c0.885,0,1.486-0.675,1.489-1.686 C292.723,94.241,292.72,92.834,292.72,91.427z M277.817,106.38c0,1.424-0.003,2.848,0.001,4.271 c0.003,1.011,0.605,1.686,1.49,1.686c0.883,0,1.488-0.678,1.489-1.687c0.003-2.848,0.003-5.695,0-8.543 c-0.001-1.01-0.605-1.686-1.49-1.685c-0.885,0-1.486,0.676-1.489,1.687C277.814,103.532,277.817,104.956,277.817,106.38z M283.778,106.379c0,1.424-0.003,2.847,0.001,4.271c0.003,1.01,0.604,1.686,1.489,1.686c0.885,0,1.488-0.675,1.49-1.685 c0.003-2.847,0.003-5.695,0-8.542c-0.001-1.011-0.603-1.686-1.488-1.687c-0.879-0.001-1.488,0.682-1.491,1.686 C283.775,103.532,283.778,104.956,283.778,106.379z M304.643,106.429c0-1.44,0.003-2.881-0.001-4.321 c-0.003-1.011-0.603-1.686-1.488-1.687c-0.879-0.001-1.489,0.682-1.49,1.687c-0.003,2.847-0.003,5.695,0,8.542 c0.001,1.01,0.604,1.686,1.489,1.686c0.885,0,1.486-0.675,1.489-1.686C304.646,109.244,304.643,107.837,304.643,106.429z"/>
		<path class="grey-fill" d="M310.703,123.17c-0.397,0.86-1.079,1.107-2.002,1.106c-15.623-0.018-31.245-0.019-46.868,0 c-0.923,0.001-1.605-0.244-2-1.106c0-1.623,0-3.246,0-4.868c16.957,0,33.913,0,50.87,0 C310.703,119.925,310.703,121.547,310.703,123.17z"/>
		<path class="grey-fill" d="M275.929,133.304c-0.08-0.05-0.158-0.105-0.241-0.149c-0.64-0.345-0.966-1.002-0.816-1.651 c0.16-0.693,0.726-1.166,1.469-1.175c1.357-0.016,2.714-0.007,4.071-0.008c0.111,0,0.222,0,0.373,0c0-1.034,0-2.021,0-3.044 c2.991,0,5.942,0,8.95,0c0,0.999,0,1.998,0,3.046c1.475,0,2.895-0.027,4.312,0.018c0.386,0.012,0.833,0.149,1.133,0.382 c0.79,0.615,0.657,1.833-0.201,2.361c-0.123,0.075-0.248,0.147-0.371,0.22C288.382,133.304,282.155,133.304,275.929,133.304z"/>
		<path class="grey-fill" d="M277.816,91.41c0,0.464,0.009,0.927-0.001,1.391c-0.019,0.894-0.641,1.544-1.473,1.552 c-0.833,0.009-1.485-0.636-1.5-1.522c-0.017-0.977-0.018-1.954,0.001-2.93c0.016-0.858,0.657-1.493,1.471-1.501 c0.838-0.008,1.477,0.632,1.5,1.52C277.826,90.417,277.816,90.914,277.816,91.41z"/>
		<path class="grey-fill" d="M301.659,91.397c0,0.497,0.016,0.994-0.003,1.49c-0.034,0.848-0.691,1.477-1.506,1.466 c-0.798-0.01-1.44-0.625-1.46-1.456c-0.025-1.009-0.024-2.02-0.001-3.03c0.019-0.848,0.689-1.479,1.502-1.468 c0.794,0.011,1.43,0.632,1.463,1.458C301.676,90.37,301.659,90.884,301.659,91.397z"/>
		<path class="grey-fill" d="M271.854,106.38c0,0.497,0.014,0.994-0.003,1.49c-0.029,0.853-0.673,1.487-1.487,1.486 c-0.814-0.001-1.465-0.634-1.482-1.489c-0.02-0.993-0.02-1.987,0-2.98c0.018-0.853,0.673-1.486,1.487-1.484 c0.819,0.002,1.453,0.629,1.482,1.488C271.867,105.386,271.854,105.883,271.854,106.38z"/>
		<path class="grey-fill" d="M292.722,106.38c0-0.497-0.014-0.994,0.003-1.49c0.029-0.854,0.672-1.487,1.486-1.487 c0.814,0,1.466,0.634,1.483,1.488c0.02,0.993,0.02,1.987,0,2.98c-0.018,0.853-0.671,1.486-1.486,1.486 c-0.819-0.001-1.454-0.627-1.483-1.486C292.708,107.373,292.722,106.876,292.722,106.38z"/>
	</g>
	<g ng-click="stemRoboticsSelected()" ng-mouseover="showRoboticsPopover=true;" ng-mouseleave="showRoboticsPopover=false;">
		<path class="white-fill" d="M366.895,223.246h0.006 M366.9,212.818h-0.006h-95.213c-4.417,0-8.355,2.783-9.83,6.947 c-7.314,20.657-24.345,36.176-45.556,41.514c-4.635,1.166-7.883,5.334-7.883,10.113v94.038c0,2.963,1.261,5.786,3.467,7.764 c1.922,1.724,4.405,2.664,6.961,2.664c0.377,0,0.756-0.021,1.135-0.062c80.424-8.801,145.017-70.74,157.184-150.684 c0.109-0.605,0.167-1.229,0.167-1.866C377.326,217.487,372.66,212.818,366.9,212.818L366.9,212.818z M366.895,233.674h0.006 H366.895L366.895,233.674z"/>
		<path class="grey-fill" d="M283.831,275.75l2.925-2.925l6.25-6.25c0.06-0.06,0.119-0.122,0.175-0.185c0.02-0.022,0.04-0.046,0.06-0.068 c0.035-0.04,0.07-0.08,0.103-0.12c0.024-0.029,0.048-0.059,0.071-0.089c0.027-0.034,0.054-0.069,0.08-0.104 c0.026-0.034,0.051-0.068,0.075-0.103c0.022-0.03,0.043-0.061,0.064-0.091c0.027-0.039,0.053-0.078,0.079-0.117 c0.015-0.023,0.029-0.047,0.044-0.071c1.283-2.057,1.033-4.805-0.753-6.591h0l-3.351-3.351c-1.007-1.007-2.346-1.562-3.77-1.562 c-1.424,0-2.763,0.555-3.77,1.562l-10.236,10.236h1.887C279.238,265.92,283.702,270.308,283.831,275.75z"/>
		<path class="grey-fill" d="M311.086,290.8h-30.803v-11.502v-3.307c0-3.593-2.923-6.516-6.516-6.516h-4.739 c-0.125,0-0.249,0.004-0.373,0.011c-0.005,0-0.011,0.001-0.016,0.001c-3.413,0.202-6.127,3.041-6.127,6.503V290.8h-2.369 c-2.94,0-5.331,2.392-5.331,5.331v2.962c0,2.94,2.392,5.331,5.331,5.331h50.944c2.94,0,5.331-2.392,5.331-5.331v-2.962 C316.417,293.191,314.025,290.8,311.086,290.8z M271.397,281.222c-1.633,0-2.962-1.329-2.962-2.962s1.329-2.962,2.962-2.962 s2.962,1.329,2.962,2.962C274.359,279.893,273.03,281.222,271.397,281.222z"/>
		<path class="grey-fill" d="M290.365,276.434c0.347,0.347,0.802,0.521,1.257,0.521s0.91-0.174,1.257-0.521l1.257-1.257l2.459,2.459 l-0.651,3.256c-0.116,0.583,0.066,1.185,0.486,1.605l3.351,3.351c0.347,0.347,0.802,0.521,1.257,0.521s0.91-0.174,1.257-0.521 c0.694-0.694,0.694-1.819,0-2.513l-2.678-2.678l0.419-2.094l2.094-0.419l2.678,2.678c0.347,0.347,0.802,0.521,1.257,0.521 s0.91-0.173,1.257-0.521c0.694-0.694,0.694-1.819,0-2.513l-3.351-3.351c-0.42-0.42-1.022-0.602-1.605-0.486l-3.256,0.651 l-2.459-2.459l1.257-1.257c0.335-0.335,0.522-0.789,0.521-1.263c-0.002-0.473-0.192-0.927-0.529-1.259l-1.228-1.211 c-0.328,0.5-0.711,0.974-1.149,1.413l-6.25,6.25L290.365,276.434z"/>
	</g>
	<g ng-click="hydroponicsSelected()" ng-mouseover="showHydroponicsPopover=true;" ng-mouseleave="showHydroponicsPopover=false;">
		<path class="white-fill" d="M128.934,212.818H33.721c-3.037,0-5.922,1.324-7.903,3.625s-2.861,5.352-2.409,8.355 c5.9,39.217,25.106,75.886,54.08,103.25c14.343,13.546,30.681,24.555,48.56,32.722c18.396,8.403,37.967,13.577,58.169,15.38 c0.31,0.028,0.619,0.041,0.927,0.041c2.594,0,5.108-0.968,7.038-2.734c2.16-1.976,3.39-4.768,3.39-7.694v-93.598 c0-4.958-3.492-9.231-8.351-10.219c-22.281-4.53-40.85-20.692-48.459-42.18C137.29,215.601,133.352,212.818,128.934,212.818 L128.934,212.818z"/>
		<path class="grey-fill" d="M116.09,269.107h1.578v9.864c-2.752,0.413-5.233,1.811-6.96,3.917c1.289,0.563,2.515,1.276,3.601,2.212h3.359 c3.463,0,6.283,2.802,6.313,6.259c0.265-0.296,0.545-0.606,0.846-0.928l4.551-4.894c-1.492-3.513-4.714-6.071-8.553-6.63v-12.956 h1.578c5.222,0,9.469-4.248,9.469-9.469v-3.156h-3.156c-5.222,0-9.469,4.248-9.469,9.469v1.578c-0.055,0-0.102,0.026-0.157,0.032 c-0.744-4.484-4.621-7.923-9.313-7.923h-3.156v3.156C106.621,264.86,110.868,269.107,116.09,269.107z"/>
		<path class="grey-fill" d="M136.228,287.53c-1.231-1.231-3.251-1.199-4.451,0.063l-4.64,4.987c-3.027,3.253-4.032,5.145-6.817,5.145 h-10.7c-0.884,0-1.578-0.695-1.578-1.578c0-0.884,0.694-1.578,1.578-1.578h8.049c1.743,0,3.156-1.413,3.156-3.156 c0-1.743-1.413-3.156-3.156-3.156l-4.261,0c-0.208-0.088-0.393-0.165-0.601-0.253c-4.167-4.102-10.763-4.229-15.055-0.441 l-4.388,3.851h-2.525c-0.884,0-1.578,0.694-1.578,1.578v12.626c0,0.872,0.706,1.578,1.578,1.578h28.407 c3.477,0,6.751-1.637,8.837-4.419l8.428-11.237C137.427,290.339,137.301,288.603,136.228,287.53z"/>
	</g>

	<path ng-show="stemSelected" class="stem-solutions-color" d="M200,140.174c-31.28,0-56.637,25.357-56.637,56.637S168.72,253.448,200,253.448s56.637-25.357,56.637-56.637 S231.28,140.174,200,140.174z M220.321,179.665l-20.485,37.211c0,0,0,0.001-0.001,0.001c-0.112,0.204-0.242,0.4-0.383,0.591 c-0.036,0.048-0.073,0.095-0.11,0.141c-0.108,0.136-0.223,0.267-0.345,0.393c-0.043,0.045-0.084,0.091-0.128,0.134 c-0.012,0.011-0.022,0.024-0.034,0.036c-0.148,0.141-0.303,0.269-0.463,0.389c-0.044,0.034-0.092,0.062-0.137,0.094 c-0.143,0.101-0.29,0.195-0.44,0.28c-0.054,0.031-0.108,0.06-0.163,0.089c-0.17,0.089-0.343,0.169-0.52,0.238 c-0.029,0.011-0.057,0.025-0.086,0.036c-0.211,0.078-0.425,0.142-0.643,0.193c-0.046,0.011-0.092,0.018-0.138,0.027 c-0.171,0.035-0.343,0.062-0.516,0.08c-0.066,0.007-0.131,0.014-0.198,0.019c-0.199,0.013-0.398,0.018-0.596,0.01 c-0.019-0.001-0.038,0.002-0.057,0.001c-0.052-0.003-0.103-0.013-0.155-0.017c-0.124-0.01-0.247-0.021-0.37-0.04 c-0.075-0.012-0.149-0.029-0.223-0.043c-0.108-0.021-0.215-0.044-0.321-0.072c-0.07-0.018-0.139-0.04-0.209-0.061 c-0.117-0.036-0.232-0.076-0.347-0.12c-0.057-0.022-0.113-0.043-0.17-0.067c-0.139-0.059-0.276-0.125-0.41-0.196 c-0.025-0.013-0.052-0.023-0.077-0.037c-0.008-0.005-0.016-0.01-0.024-0.015c-0.115-0.064-0.227-0.135-0.338-0.209 c-0.039-0.026-0.081-0.05-0.119-0.076c-0.08-0.056-0.156-0.118-0.233-0.179c-0.065-0.051-0.132-0.099-0.195-0.153 c-0.027-0.023-0.052-0.05-0.079-0.075c-0.107-0.096-0.211-0.193-0.309-0.296l-11.971-12.622c-2.026-2.136-1.936-5.509,0.2-7.535 c2.137-2.024,5.51-1.936,7.535,0.2l6.952,7.331l16.968-30.822c1.42-2.579,4.662-3.518,7.239-2.099 C220.801,173.845,221.74,177.086,220.321,179.665z"/>

	<text x="25" y="60" fill="#505051" font-weight="400" font-family="Roboto,Helvetica,Arial,san-serif" font-size="24px" ng-show="showGeneralStemPopover">General STEM</text>
	<text x="250" y="60" fill="#505051" font-weight="400" font-family="Roboto,Helvetica,Arial,san-serif" font-size="24px" ng-show="showCodingPopover">Coding</text>
	<text x="250" y="350" fill="#505051" font-weight="400" font-family="Roboto,Helvetica,Arial,san-serif" font-size="24px" ng-show="showRoboticsPopover">Robotics</text>
	<text x="0" y="350" fill="#505051" font-weight="400" font-family="Roboto,Helvetica,Arial,san-serif" font-size="24px" ng-show="showHydroponicsPopover">Hydroponics</text>
</svg>
