<?xml version="1.0" encoding="utf-8"?>
<!-- Generator: Adobe Illustrator 25.0.0, SVG Export Plug-In . SVG Version: 6.00 Build 0)  -->
<svg version="1.1" id="Layer_1" xmlns="http://www.w3.org/2000/svg" xmlns:xlink="http://www.w3.org/1999/xlink" x="0px" y="0px"
	 viewBox="0 0 400 400" style="enable-background:new 0 0 400 400;" xml:space="preserve">
<style type="text/css">
	.st0{fill:#FFFFFF;}
</style>
<path d="M273.26,26.809c-1.554,0-3.107,0.324-4.556,0.973c-2.877,1.288-5.075,3.734-6.049,6.732l-31.01,95.441
	c-1.606,4.944,0.417,10.342,4.877,13.013c16.302,9.761,28.058,25.941,32.253,44.39c1.154,5.076,5.667,8.679,10.874,8.679h100.337
	c3.149,0,6.151-1.332,8.265-3.666s3.142-5.453,2.831-8.587c-6.797-68.45-50.221-128.237-113.326-156.029
	C276.321,27.124,274.79,26.809,273.26,26.809L273.26,26.809z"/>
<path d="M240.717,180.041c-1.379-1.379-3.615-1.379-4.994,0s-1.379,3.615,0,4.994s3.615,1.379,4.994,0
	S242.096,181.42,240.717,180.041z"/>
<g>
	<path class="st0" d="M285.732,128.37c0.438-0.614,1.128-0.921,2.068-0.921c0.786,0,1.372,0.229,1.759,0.687
		c0.387,0.459,0.613,1.096,0.679,1.911h1.646c-0.072-1.289-0.46-2.28-1.165-2.972c-0.705-0.693-1.68-1.038-2.927-1.038
		c-1.463,0-2.562,0.457-3.296,1.371c-0.735,0.915-1.102,2.29-1.102,4.124v2.572c0.018,1.715,0.43,3.041,1.237,3.979
		c0.806,0.938,1.917,1.408,3.332,1.408c1.595,0,2.805-0.483,3.633-1.448l0.288-0.36v-4.892h-4.038v1.412h2.392v3.008l-0.243,0.224
		c-0.461,0.429-1.136,0.645-2.024,0.645c-0.941,0-1.664-0.353-2.167-1.057c-0.504-0.704-0.756-1.717-0.756-3.035v-2.672
		C285.066,129.966,285.294,128.985,285.732,128.37z"/>
	<path class="st0" d="M297.648,129.4c-1.133,0-2.016,0.412-2.648,1.236c-0.633,0.825-0.949,1.962-0.949,3.414v1.178
		c0.012,1.397,0.342,2.456,0.99,3.179c0.647,0.723,1.577,1.084,2.788,1.084c1.415,0,2.467-0.486,3.157-1.457l-0.828-1.007
		c-0.311,0.384-0.646,0.664-1.002,0.841c-0.357,0.177-0.769,0.265-1.237,0.265c-0.737,0-1.303-0.237-1.696-0.71
		c-0.393-0.474-0.589-1.233-0.589-2.276v-0.225h5.433v-1.043c-0.013-1.535-0.3-2.665-0.863-3.39
		C299.639,129.763,298.786,129.4,297.648,129.4z M299.474,133.555h-3.831c0.042-0.953,0.221-1.657,0.539-2.11
		s0.806-0.679,1.466-0.679c0.594,0,1.036,0.199,1.327,0.594c0.29,0.395,0.457,1.055,0.499,1.978V133.555z"/>
	<path class="st0" d="M306.885,129.4c-0.959,0-1.748,0.411-2.365,1.232l-0.045-1.052h-1.502v9.731h1.592v-7.069
		c0.192-0.426,0.445-0.77,0.76-1.034c0.315-0.263,0.67-0.395,1.065-0.395c0.51,0,0.892,0.161,1.147,0.481
		c0.255,0.321,0.382,0.862,0.382,1.623v6.394h1.583v-6.467C309.478,130.548,308.605,129.4,306.885,129.4z"/>
	<path class="st0" d="M315.186,129.4c-1.133,0-2.016,0.412-2.648,1.236c-0.633,0.825-0.949,1.962-0.949,3.414v1.178
		c0.012,1.397,0.342,2.456,0.99,3.179c0.647,0.723,1.577,1.084,2.788,1.084c1.415,0,2.467-0.486,3.157-1.457l-0.828-1.007
		c-0.311,0.384-0.646,0.664-1.002,0.841c-0.357,0.177-0.769,0.265-1.237,0.265c-0.737,0-1.303-0.237-1.696-0.71
		c-0.393-0.474-0.589-1.233-0.589-2.276v-0.225h5.433v-1.043c-0.013-1.535-0.3-2.665-0.863-3.39
		C317.177,129.763,316.325,129.4,315.186,129.4z M317.011,133.555h-3.831c0.042-0.953,0.221-1.657,0.539-2.11
		s0.806-0.679,1.466-0.679c0.594,0,1.036,0.199,1.327,0.594c0.29,0.395,0.457,1.055,0.499,1.978V133.555z"/>
	<path class="st0" d="M322.103,132.35c0.323-0.894,0.893-1.341,1.708-1.341c0.258,0,0.498,0.021,0.719,0.063l-0.008-1.548
		c-0.168-0.083-0.378-0.125-0.63-0.125c-0.779,0-1.382,0.39-1.807,1.169l-0.027-0.989h-1.547v9.731h1.592V132.35z"/>
	<path class="st0" d="M332.111,132.305L332.111,132.305c-0.011-0.948-0.276-1.669-0.795-2.163c-0.518-0.495-1.276-0.742-2.27-0.742
		c-0.612,0-1.166,0.129-1.664,0.386c-0.497,0.258-0.893,0.613-1.187,1.066s-0.441,0.928-0.441,1.425h1.592
		c0-0.438,0.15-0.799,0.449-1.084c0.3-0.284,0.689-0.427,1.169-0.427c0.528,0,0.921,0.124,1.179,0.369
		c0.258,0.246,0.386,0.66,0.386,1.241v1.034h-1.169c-1.17,0.012-2.09,0.309-2.762,0.89s-1.007,1.367-1.007,2.356
		c0,0.9,0.247,1.596,0.742,2.091c0.495,0.495,1.183,0.742,2.064,0.742c0.875,0,1.595-0.414,2.158-1.241
		c0.042,0.497,0.111,0.852,0.207,1.061h1.655v-0.144c-0.199-0.551-0.3-1.202-0.306-1.951V132.305z M330.531,136.909L330.531,136.909
		c-0.163,0.324-0.421,0.594-0.774,0.81c-0.354,0.216-0.725,0.324-1.115,0.324c-0.528,0-0.903-0.125-1.124-0.374
		c-0.222-0.248-0.333-0.649-0.333-1.2c0-0.588,0.219-1.045,0.656-1.372c0.438-0.327,1.035-0.496,1.79-0.508h0.9V136.909z"/>
	<rect x="334.703" y="125.496" class="st0" width="1.592" height="13.815"/>
	<polygon class="st0" points="285.336,155.361 289.967,155.361 289.967,153.949 285.336,153.949 285.336,149.731 290.642,149.731 
		290.642,148.319 283.69,148.319 283.69,161.414 290.732,161.414 290.732,160.002 285.336,160.002 	"/>
	<path class="st0" d="M297.712,152.637c-0.522-0.756-1.247-1.133-2.177-1.133c-1.049,0-1.854,0.393-2.414,1.178
		c-0.561,0.785-0.841,1.928-0.841,3.427v0.998c0.013,1.427,0.305,2.532,0.877,3.315c0.573,0.783,1.363,1.174,2.37,1.174
		c0.971,0,1.717-0.408,2.239-1.224l0.081,1.043h1.457V147.6h-1.592V152.637z M297.712,158.987c-0.39,0.797-0.98,1.195-1.772,1.195
		c-0.731,0-1.259-0.256-1.583-0.768c-0.323-0.512-0.486-1.313-0.486-2.402v-0.97c0.006-1.06,0.171-1.846,0.495-2.358
		c0.324-0.512,0.852-0.768,1.583-0.768c0.767,0,1.355,0.389,1.763,1.168V158.987z"/>
	<path class="st0" d="M306.668,158.887L306.668,158.887c-0.365,0.863-1.03,1.295-1.996,1.295c-0.911,0-1.367-0.759-1.367-2.275
		v-6.224h-1.583v6.341c0.006,1.163,0.234,2.049,0.683,2.657c0.449,0.608,1.115,0.913,1.997,0.913c1.013,0,1.783-0.345,2.312-1.034
		l0.035,0.854h1.511v-9.731h-1.592V158.887z"/>
	<path class="st0" d="M312.452,153.567c0.342-0.465,0.867-0.698,1.574-0.698c0.545,0,0.973,0.18,1.282,0.54
		c0.309,0.359,0.481,0.899,0.517,1.619h1.502c-0.035-1.091-0.346-1.952-0.931-2.582c-0.585-0.629-1.375-0.944-2.37-0.944
		c-1.205,0-2.123,0.382-2.753,1.147c-0.629,0.764-0.944,1.881-0.944,3.35v1.07c0,1.499,0.316,2.627,0.949,3.386
		c0.632,0.758,1.551,1.138,2.756,1.138c0.905,0,1.672-0.307,2.298-0.922c0.627-0.614,0.958-1.389,0.994-2.325h-1.502
		c-0.029,0.606-0.204,1.072-0.522,1.399c-0.317,0.327-0.74,0.491-1.268,0.491c-0.731,0-1.266-0.237-1.605-0.71
		c-0.339-0.474-0.508-1.283-0.508-2.429v-1.241C311.933,154.795,312.109,154.032,312.452,153.567z"/>
	<path class="st0" d="M325.519,154.409c-0.012-0.948-0.277-1.669-0.796-2.163c-0.518-0.495-1.276-0.742-2.27-0.742
		c-0.612,0-1.166,0.129-1.664,0.386c-0.497,0.258-0.893,0.613-1.187,1.066s-0.441,0.928-0.441,1.425h1.592
		c0-0.438,0.15-0.799,0.449-1.084c0.3-0.284,0.689-0.427,1.169-0.427c0.528,0,0.921,0.124,1.179,0.369
		c0.258,0.246,0.386,0.66,0.386,1.241v1.034h-1.169c-1.17,0.012-2.09,0.309-2.762,0.89s-1.006,1.368-1.006,2.358
		c0,0.9,0.247,1.596,0.742,2.091s1.183,0.742,2.064,0.742c0.875,0,1.595-0.414,2.158-1.241c0.042,0.497,0.111,0.852,0.207,1.061
		h1.655v-0.144c-0.199-0.551-0.3-1.203-0.306-1.951L325.519,154.409z M323.938,159.013h-0.001c-0.162,0.324-0.42,0.594-0.773,0.809
		c-0.354,0.216-0.725,0.324-1.115,0.324c-0.528,0-0.903-0.125-1.124-0.374c-0.222-0.248-0.333-0.649-0.333-1.2
		c0-0.588,0.219-1.045,0.656-1.372c0.438-0.327,1.035-0.496,1.79-0.508h0.9V159.013z"/>
	<path class="st0" d="M330.259,159.885c-0.126-0.199-0.189-0.49-0.189-0.873v-6.043h1.467v-1.286h-1.467v-2.357h-1.583v2.357h-1.484
		v1.286h1.484v6.044c0,0.822,0.165,1.457,0.495,1.907c0.33,0.45,0.81,0.675,1.439,0.675c0.378,0,0.746-0.06,1.107-0.179l0.018-1.341
		c-0.215,0.072-0.428,0.109-0.639,0.109C330.601,160.182,330.385,160.083,330.259,159.885z"/>
	<rect x="333.551" y="151.683" class="st0" width="1.592" height="9.731"/>
	<path class="st0" d="M334.36,148.14c-0.3,0-0.524,0.093-0.674,0.279c-0.15,0.186-0.225,0.414-0.225,0.683
		c0,0.27,0.075,0.495,0.225,0.675c0.15,0.18,0.374,0.269,0.674,0.269c0.306,0,0.534-0.089,0.684-0.269
		c0.15-0.18,0.225-0.405,0.225-0.675c0-0.263-0.077-0.49-0.23-0.679C334.888,148.234,334.661,148.14,334.36,148.14z"/>
	<path class="st0" d="M341.061,151.504c-1.127,0-2.034,0.412-2.721,1.236c-0.687,0.825-1.03,1.945-1.03,3.359v1.062
		c0.024,1.361,0.376,2.44,1.057,3.237c0.681,0.798,1.585,1.197,2.712,1.197c1.139,0,2.05-0.411,2.734-1.232
		c0.683-0.822,1.025-1.937,1.025-3.346v-1.026c-0.018-1.385-0.37-2.479-1.057-3.283
		C343.095,151.905,342.187,151.504,341.061,151.504z M341.079,160.236c-0.666,0-1.195-0.286-1.588-0.859
		c-0.393-0.572-0.589-1.359-0.589-2.36v-0.926c0-0.99,0.196-1.773,0.589-2.352c0.393-0.579,0.916-0.868,1.569-0.868
		c0.666,0,1.197,0.289,1.592,0.868c0.396,0.579,0.593,1.366,0.593,2.36v1.097h0.001
		C343.204,159.223,342.482,160.236,341.079,160.236z"/>
	<path class="st0" d="M350.802,151.504c-0.959,0-1.748,0.411-2.365,1.232l-0.045-1.052h-1.502v9.731h1.592v-7.069
		c0.192-0.426,0.445-0.77,0.76-1.034c0.315-0.263,0.67-0.396,1.065-0.396c0.51,0,0.892,0.161,1.147,0.481
		c0.255,0.321,0.382,0.862,0.382,1.623v6.394h1.583v-6.467C353.394,152.651,352.523,151.504,350.802,151.504z"/>
	<path class="st0" d="M301.215,109.591c4.062-1.185,8.111-2.411,12.16-3.638c0.436-0.132,0.872-0.331,1.247-0.589
		c0.866-0.597,0.879-1.695,0.024-2.308c-0.368-0.263-0.807-0.459-1.242-0.591c-4.028-1.222-8.059-2.431-12.094-3.629
		c-1.894-0.563-3.821-0.62-5.715-0.071c-4.201,1.218-8.384,2.497-12.574,3.755c-0.729,0.219-1.348,0.587-1.666,1.327
		c0,0.221,0,0.441,0,0.662c0.193,0.275,0.332,0.626,0.591,0.807c0.398,0.278,0.86,0.499,1.327,0.64
		c4.017,1.22,8.037,2.428,12.064,3.615C297.286,110.146,299.265,110.16,301.215,109.591z"/>
	<path class="st0" d="M312.554,124.01c0.072-0.023,0.143-0.051,0.216-0.067c1.413-0.317,2.463-1.519,2.49-2.924
		c0.028-1.489,0.041-1.558-0.003-3.046c-0.039-1.305-0.706-2.248-1.895-2.794c-0.195-0.09-0.219-0.198-0.218-0.375
		c0.004-2.096,0.002-4.193,0.002-6.289c0-0.12,0-0.24,0-0.41c-0.59,0.176-1.143,0.352-1.703,0.503
		c-0.215,0.058-0.293,0.144-0.291,0.379c0.013,1.534,0.006,3.067,0.006,4.601c0,0.496,0,0.992,0,1.48
		c-0.059,0.029-0.098,0.049-0.138,0.067c-0.05,0.022-0.104,0.038-0.153,0.063c-1.1,0.554-1.784,1.424-1.822,2.671
		c-0.047,1.51-0.023,1.601-0.004,3.112c0.012,0.987,0.423,1.812,1.236,2.369c0.424,0.291,0.942,0.445,1.417,0.661
		C311.98,124.01,312.268,124.01,312.554,124.01z"/>
	<path class="st0" d="M288.804,114.137c1.193,0.939,2.601,1.388,4.053,1.69c3.398,0.707,6.814,0.725,10.231,0.137
		c1.496-0.258,2.943-0.676,4.249-1.485c1.03-0.638,1.654-1.499,1.558-2.778c-0.036-0.472-0.006-0.948-0.006-1.423
		c0-0.283,0-0.565,0-0.88c-0.129,0.031-0.213,0.046-0.293,0.07c-2.259,0.674-4.515,1.359-6.778,2.022
		c-1.963,0.575-3.966,0.674-5.956,0.237c-1.471-0.323-2.908-0.802-4.357-1.223c-1.236-0.359-2.467-0.736-3.77-1.126
		c0,0.893,0.016,1.729-0.004,2.564C287.709,112.866,288.095,113.578,288.804,114.137z"/>
</g>
</svg>
