<svg>

<g title="hydroponics-selected">
	<path class="stem-focus-selected" d="M379.984,220.917h0.006 M379.99,209.766h-0.006H279.647c-5.206,0-9.719,3.602-10.874,8.679
		c-4.195,18.449-15.95,34.629-32.253,44.39c-4.46,2.671-6.483,8.069-4.877,13.013l31.01,95.441c0.974,2.998,3.172,5.444,6.049,6.732
		c1.449,0.649,3.003,0.973,4.556,0.973c1.531,0,3.062-0.315,4.494-0.946c63.009-27.75,106.397-87.395,113.295-155.714
		c0.059-0.464,0.089-0.937,0.089-1.417C391.138,214.758,386.148,209.766,379.99,209.766L379.99,209.766z M379.984,232.068h0.006
		H379.984L379.984,232.068z"/>
	<path class="grey-fill" d="M238.974,223.12c-1.379-1.379-3.615-1.379-4.994,0s-1.379,3.615,0,4.994s3.615,1.379,4.994,0
		S240.353,224.499,238.974,223.12z"/>
	<polygon class="white-fill" points="266.529,292.857 261.259,292.857 261.259,287.226 259.613,287.226 259.613,300.321 261.259,300.321
		261.259,294.269 266.529,294.269 266.529,300.321 268.185,300.321 268.185,287.226 266.529,287.226 	"/>
	<path class="white-fill" d="M273.472,297.678l-1.798-7.087h-1.736l2.86,9.65l-0.315,1.088c-0.162,0.539-0.374,0.919-0.635,1.138
		c-0.261,0.219-0.622,0.328-1.084,0.328l-0.35-0.036v1.35c0.336,0.096,0.611,0.144,0.827,0.144c0.557,0,1.055-0.218,1.493-0.652
		c0.438-0.435,0.777-1.069,1.016-1.903l3.183-11.107h-1.691L273.472,297.678z"/>
	<path class="white-fill" d="M283.582,291.544c-0.522-0.756-1.247-1.133-2.177-1.133c-1.049,0-1.854,0.393-2.414,1.178
		c-0.561,0.785-0.841,1.928-0.841,3.427v0.998c0.013,1.427,0.305,2.532,0.877,3.315c0.573,0.783,1.363,1.174,2.37,1.174
		c0.971,0,1.717-0.408,2.239-1.224l0.081,1.043h1.457v-13.815h-1.592V291.544z M283.582,297.895c-0.39,0.797-0.98,1.195-1.772,1.195
		c-0.731,0-1.259-0.256-1.583-0.768c-0.323-0.512-0.486-1.313-0.486-2.402v-0.97c0.006-1.06,0.171-1.846,0.495-2.358
		s0.852-0.768,1.583-0.768c0.767,0,1.355,0.389,1.763,1.168V297.895z"/>
	<path class="white-fill" d="M291.001,290.41c-0.779,0-1.382,0.39-1.807,1.169l-0.027-0.989h-1.547v9.731h1.592v-6.961
		c0.323-0.894,0.893-1.34,1.708-1.34c0.258,0,0.498,0.021,0.719,0.063l-0.008-1.548C291.463,290.453,291.254,290.41,291.001,290.41z
		"/>
	<path class="white-fill" d="M296.46,290.41c-1.127,0-2.034,0.412-2.721,1.236c-0.687,0.825-1.03,1.945-1.03,3.359v1.062
		c0.024,1.361,0.376,2.44,1.057,3.237c0.681,0.798,1.585,1.197,2.712,1.197c1.139,0,2.05-0.411,2.734-1.232
		c0.683-0.822,1.025-1.937,1.025-3.346v-1.026c-0.018-1.385-0.37-2.479-1.057-3.283C298.494,290.812,297.588,290.41,296.46,290.41z
		 M298.645,296.103c-0.042,2.027-0.764,3.04-2.167,3.04c-0.666,0-1.195-0.286-1.588-0.859c-0.393-0.572-0.589-1.359-0.589-2.36
		v-0.927c0-0.99,0.196-1.773,0.589-2.352c0.393-0.579,0.916-0.868,1.569-0.868c0.666,0,1.197,0.289,1.592,0.868
		c0.396,0.579,0.593,1.366,0.593,2.36v1.098H298.645z"/>
	<path class="white-fill" d="M306.111,290.41c-0.995,0-1.76,0.42-2.293,1.259l-0.081-1.079h-1.439v13.472h1.583v-4.668
		c0.528,0.738,1.28,1.107,2.257,1.107c1.013,0,1.797-0.378,2.352-1.133c0.555-0.756,0.832-1.903,0.832-3.444v-1.062
		c-0.019-1.48-0.291-2.593-0.819-3.336C307.976,290.782,307.178,290.41,306.111,290.41z M307.739,295.986
		c-0.006,1.068-0.178,1.861-0.518,2.379c-0.338,0.519-0.868,0.778-1.587,0.778c-0.78,0-1.364-0.372-1.754-1.115v-5.064
		c0.396-0.762,0.974-1.142,1.735-1.142c0.744,0,1.283,0.259,1.619,0.778s0.504,1.324,0.504,2.415v0.971L307.739,295.986
		L307.739,295.986z"/>
	<path class="white-fill" d="M314.79,290.41c-1.127,0-2.034,0.412-2.721,1.236c-0.687,0.825-1.03,1.945-1.03,3.359v1.062
		c0.024,1.361,0.376,2.44,1.057,3.237c0.681,0.798,1.585,1.197,2.712,1.197c1.139,0,2.05-0.411,2.734-1.232
		c0.683-0.822,1.025-1.937,1.025-3.346v-1.026c-0.018-1.385-0.37-2.479-1.057-3.283S315.918,290.41,314.79,290.41z M316.975,296.103
		c-0.042,2.027-0.764,3.04-2.167,3.04c-0.666,0-1.195-0.286-1.588-0.859c-0.393-0.572-0.589-1.359-0.589-2.36v-0.927
		c0-0.99,0.196-1.773,0.589-2.352c0.393-0.579,0.916-0.868,1.569-0.868c0.666,0,1.197,0.289,1.592,0.868
		c0.396,0.579,0.593,1.366,0.593,2.36v1.098H316.975z"/>
	<path class="white-fill" d="M324.53,290.41c-0.959,0-1.748,0.411-2.365,1.232l-0.045-1.052h-1.502v9.731h1.592v-7.069
		c0.192-0.426,0.445-0.77,0.76-1.034c0.315-0.263,0.67-0.395,1.065-0.395c0.51,0,0.892,0.161,1.147,0.481
		c0.255,0.321,0.382,0.862,0.382,1.623v6.394h1.583v-6.467C327.124,291.558,326.251,290.41,324.53,290.41z"/>
	<rect x="329.657" y="290.591" class="white-fill" width="1.592" height="9.731"/>
	<path class="white-fill" d="M330.466,287.047c-0.3,0-0.524,0.093-0.674,0.279s-0.225,0.414-0.225,0.683c0,0.27,0.075,0.495,0.225,0.675
		s0.374,0.269,0.674,0.269c0.306,0,0.534-0.089,0.684-0.269c0.15-0.18,0.225-0.405,0.225-0.675c0-0.263-0.077-0.49-0.23-0.679
		C330.993,287.141,330.766,287.047,330.466,287.047z"/>
	<path class="white-fill" d="M335.547,292.475c0.342-0.464,0.867-0.698,1.574-0.698c0.545,0,0.973,0.18,1.282,0.54
		c0.309,0.359,0.481,0.899,0.517,1.619h1.502c-0.035-1.091-0.346-1.952-0.931-2.582c-0.585-0.629-1.375-0.944-2.37-0.944
		c-1.205,0-2.123,0.382-2.752,1.147c-0.629,0.764-0.944,1.881-0.944,3.35v1.07c0,1.499,0.316,2.627,0.949,3.386
		c0.632,0.758,1.551,1.138,2.756,1.138c0.905,0,1.672-0.307,2.298-0.922c0.627-0.614,0.958-1.389,0.994-2.325h-1.502
		c-0.029,0.606-0.204,1.072-0.522,1.399c-0.317,0.327-0.74,0.491-1.268,0.491c-0.731,0-1.266-0.237-1.605-0.71
		c-0.339-0.474-0.508-1.283-0.508-2.429v-1.241C335.029,293.702,335.205,292.939,335.547,292.475z"/>
	<path class="white-fill" d="M347.941,296.029c-0.426-0.441-1.229-0.893-2.411-1.356c-0.743-0.322-1.213-0.582-1.407-0.78
		c-0.195-0.197-0.293-0.457-0.293-0.78c0-0.406,0.134-0.73,0.401-0.973c0.267-0.242,0.634-0.364,1.102-0.364
		c0.456,0,0.831,0.155,1.124,0.464c0.294,0.309,0.441,0.682,0.441,1.12h1.583c0-0.864-0.288-1.571-0.863-2.123
		c-0.576-0.551-1.337-0.827-2.285-0.827c-0.9,0-1.638,0.263-2.216,0.787c-0.579,0.525-0.868,1.183-0.868,1.974
		c0,0.443,0.087,0.826,0.261,1.147c0.174,0.321,0.436,0.607,0.787,0.858c0.351,0.252,0.955,0.555,1.812,0.909
		c0.737,0.33,1.235,0.618,1.493,0.863c0.258,0.246,0.387,0.539,0.387,0.881c0,0.402-0.138,0.721-0.414,0.958
		c-0.276,0.236-0.677,0.355-1.205,0.355c-0.564,0-1.001-0.153-1.314-0.459c-0.311-0.306-0.476-0.729-0.494-1.268h-1.601
		c0,0.894,0.315,1.631,0.944,2.212c0.63,0.581,1.452,0.873,2.465,0.873c0.977,0,1.757-0.254,2.339-0.762
		c0.581-0.507,0.872-1.184,0.872-2.031C348.579,297.03,348.366,296.471,347.941,296.029z"/>
	<path class="white-fill" d="M310.118,256.974h1.021v6.383c-1.781,0.267-3.386,1.172-4.504,2.535c0.834,0.364,1.628,0.826,2.331,1.431
		h2.173c2.241,0,4.066,1.813,4.085,4.05c0.172-0.192,0.353-0.392,0.547-0.6l2.945-3.167c-0.966-2.273-3.05-3.929-5.535-4.29v-8.384
		h1.021c3.379,0,6.128-2.749,6.128-6.128v-2.043h-2.043c-3.379,0-6.128,2.749-6.128,6.128v1.021c-0.036,0-0.066,0.017-0.101,0.021
		c-0.481-2.902-2.99-5.127-6.026-5.127h-2.043v2.043C303.991,254.225,306.739,256.974,310.118,256.974z"/>
	<path class="white-fill" d="M293.778,281.621h18.383c2.25,0,4.369-1.059,5.719-2.86l5.454-7.272c0.593-0.776,0.511-1.899-0.184-2.594
		c-0.797-0.797-2.104-0.776-2.88,0.041l-3.003,3.227c-1.959,2.105-2.609,3.329-4.412,3.329h-6.924c-0.572,0-1.021-0.449-1.021-1.021
		s0.449-1.021,1.021-1.021h5.209c1.128,0,2.043-0.915,2.043-2.043s-0.915-2.043-2.043-2.043h-2.757
		c-0.135-0.057-0.254-0.107-0.389-0.164c-2.696-2.655-6.965-2.736-9.742-0.285l-2.839,2.492h-1.634
		c-0.572,0-1.021,0.449-1.021,1.021v8.17C292.757,281.164,293.214,281.621,293.778,281.621z"/>
</g>

</svg>
