<?xml version="1.0" encoding="utf-8"?>
<!-- Generator: Adobe Illustrator 25.4.1, SVG Export Plug-In . SVG Version: 6.00 Build 0)  -->
<svg version="1.1" id="Layer_1" xmlns="http://www.w3.org/2000/svg" xmlns:xlink="http://www.w3.org/1999/xlink" x="0px" y="0px"
	 viewBox="0 0 50 50" style="enable-background:new 0 0 50 50;" xml:space="preserve">
<style type="text/css">
	.st0{opacity:0.2;}
	.st1{fill:#000202;}
	.st2{fill:#454D58;}
	.st3{fill:#353D47;}
	.st4{fill:#546171;}
	.st5{fill:#EAEAEA;}
	.st6{fill:#FFFFFF;}
	.st7{fill:#A82A7D;}
	.st8{fill:#BA3285;}
	.st9{fill:#93196E;}
	.st10{fill:#F3F3F3;}
	.st11{fill:#CCCCCC;}
	.st12{fill:#D03895;}
	.st13{fill:#C63292;}
	.st14{fill:#F249B7;}
	.st15{fill:#A8922A;}
	.st16{fill:#BAA532;}
	.st17{fill:#937D19;}
	.st18{fill:#D0B838;}
	.st19{fill:#C6AD32;}
	.st20{fill:#F2D549;}
	.st21{fill:#2A7BA8;}
	.st22{fill:#3282BA;}
	.st23{fill:#196C93;}
	.st24{fill:#3892D0;}
	.st25{fill:#3290C6;}
	.st26{fill:#49B4F2;}
	.st27{fill:#A85823;}
	.st28{fill:#BA672B;}
	.st29{fill:#934413;}
	.st30{fill:#E9F3EB;}
	.st31{fill:#C4CCC5;}
	.st32{fill:#D07330;}
	.st33{fill:#C6692A;}
	.st34{fill:#F2873F;}
	.st35{fill:#FF6900;}
	.st36{fill:#FFC100;}
</style>
<g>
	<g class="st0">
		<polygon class="st1" points="26.895,30.556 22.803,31.831 12.213,37.164 12.436,37.924 29.868,48.184 40.235,42.09 45.269,40.692 
					"/>
	</g>
	<g>
		<g>
			<polygon class="st2" points="40.26,40.775 43.852,27.916 26.42,17.657 26.198,17.657 22.828,30.516 40.038,41.333 			"/>
			<g>
				<polygon class="st3" points="40.038,41.333 29.671,47.426 12.239,37.167 12.239,36.609 				"/>
				<polygon class="st2" points="40.038,41.333 29.671,47.426 29.671,46.868 40.038,40.775 				"/>
				<polygon class="st4" points="40.038,40.775 29.671,46.868 12.239,36.609 22.606,30.516 				"/>
				<polygon class="st3" points="25.373,40.331 22.054,38.377 19.757,39.727 23.077,41.681 				"/>
				<g>
					<polygon class="st2" points="32.965,44.171 38.556,40.885 22.386,31.463 16.796,34.749 					"/>
					<g>
						<path class="st3" d="M22.663,32.766l-1.013-0.594l0.656-0.386l1.013,0.594L22.663,32.766z M22.313,32.972L21.3,32.378
							l-0.656,0.386l1.013,0.594L22.313,32.972z M23.563,33.705l-1.013-0.594l-0.656,0.386l1.013,0.594L23.563,33.705z
							 M24.812,34.438l-1.013-0.594l-0.656,0.386l1.013,0.594L24.812,34.438z M26.061,35.171l-1.013-0.594l-0.656,0.386l1.013,0.594
							L26.061,35.171z M27.311,35.904l-1.013-0.594l-0.656,0.386l1.013,0.594L27.311,35.904z M28.56,36.637l-1.013-0.594
							l-0.656,0.386l1.013,0.594L28.56,36.637z M29.81,37.37l-1.013-0.594l-0.656,0.386l1.013,0.594L29.81,37.37z M31.059,38.103
							l-1.013-0.594l-0.656,0.386l1.013,0.594L31.059,38.103z M32.308,38.836l-1.013-0.594l-0.656,0.386l1.013,0.594L32.308,38.836z
							 M33.558,39.569l-1.013-0.594l-0.656,0.386l1.013,0.594L33.558,39.569z M34.807,40.302l-1.013-0.594l-0.656,0.386l1.013,0.594
							L34.807,40.302z M36.981,41.577l-1.938-1.137l-0.656,0.386l1.938,1.137L36.981,41.577z M34.488,41.853l1.013,0.594
							l0.656-0.386l-1.013-0.594L34.488,41.853z M33.239,41.12l1.013,0.594l0.656-0.386l-1.013-0.594L33.239,41.12z M31.989,40.387
							l1.013,0.594l0.656-0.386l-1.013-0.594L31.989,40.387z M30.74,39.654l1.013,0.594l0.656-0.386l-1.013-0.594L30.74,39.654z
							 M29.49,38.921l1.013,0.594l0.656-0.386l-1.013-0.594L29.49,38.921z M28.241,38.188l1.013,0.594l0.656-0.386l-1.013-0.594
							L28.241,38.188z M26.992,37.455l1.013,0.594l0.656-0.386l-1.013-0.594L26.992,37.455z M25.742,36.722l1.013,0.594l0.656-0.386
							l-1.013-0.594L25.742,36.722z M24.493,35.989l1.013,0.594l0.656-0.386l-1.013-0.594L24.493,35.989z M23.244,35.256
							l1.013,0.594l0.656-0.386L23.9,34.871L23.244,35.256z M21.994,34.523l1.013,0.594l0.656-0.386l-1.013-0.594L21.994,34.523z
							 M19.82,33.248l1.938,1.137l0.656-0.386l-1.938-1.137L19.82,33.248z M32.846,41.839l1.822,1.069l0.656-0.386l-1.822-1.069
							L32.846,41.839z M31.597,41.106L32.61,41.7l0.656-0.386l-1.013-0.594L31.597,41.106z M30.348,40.373l1.013,0.594l0.656-0.386
							l-1.013-0.594L30.348,40.373z M29.098,39.64l1.013,0.594l0.656-0.386l-1.013-0.594L29.098,39.64z M27.849,38.907l1.013,0.594
							l0.656-0.386l-1.013-0.594L27.849,38.907z M26.6,38.174l1.013,0.594l0.656-0.386l-1.013-0.594L26.6,38.174z M25.35,37.441
							l1.013,0.594l0.656-0.386l-1.013-0.594L25.35,37.441z M24.101,36.708l1.013,0.594l0.656-0.386l-1.013-0.594L24.101,36.708z
							 M22.851,35.975l1.013,0.594l0.656-0.386l-1.013-0.594L22.851,35.975z M21.602,35.242l1.013,0.594l0.656-0.386l-1.013-0.594
							L21.602,35.242z M19.012,33.723l2.353,1.381l0.656-0.386l-2.353-1.381L19.012,33.723z M31.031,41.742l2.813,1.65l0.656-0.386
							l-2.813-1.65L31.031,41.742z M29.829,41.036l1.013,0.594l0.656-0.386l-1.013-0.594L29.829,41.036z M28.58,40.303l1.013,0.594
							l0.656-0.386l-1.013-0.594L28.58,40.303z M27.33,39.57l1.013,0.594L29,39.779l-1.013-0.594L27.33,39.57z M26.081,38.838
							l1.013,0.594l0.656-0.386l-1.013-0.594L26.081,38.838z M24.832,38.105l1.013,0.594l0.656-0.386l-1.013-0.594L24.832,38.105z
							 M23.582,37.372l1.013,0.594l0.656-0.386l-1.013-0.594L23.582,37.372z M22.333,36.639l1.013,0.594l0.656-0.386l-1.013-0.594
							L22.333,36.639z M21.084,35.906l1.013,0.594l0.656-0.386L21.74,35.52L21.084,35.906z M18.188,34.207l2.659,1.56l0.656-0.386
							l-2.659-1.56L18.188,34.207z M31.99,43.271l1.013,0.594l0.656-0.386l-1.013-0.594L31.99,43.271z M30.74,42.539l1.013,0.594
							l0.656-0.386l-1.013-0.594L30.74,42.539z M29.491,41.806l1.013,0.594l0.656-0.386l-1.013-0.594L29.491,41.806z M28.242,41.073
							l1.013,0.594l0.656-0.386l-1.013-0.594L28.242,41.073z M21.17,36.924l6.787,3.981l0.656-0.386l-6.787-3.981L21.17,36.924z
							 M19.921,36.191l1.013,0.594L21.59,36.4l-1.013-0.594L19.921,36.191z M18.671,35.458l1.013,0.594l0.656-0.386l-1.013-0.594
							L18.671,35.458z M17.422,34.725l1.013,0.594l0.656-0.386l-1.013-0.594L17.422,34.725z M24.856,33.282l-1.013-0.594
							l-0.656,0.386l1.013,0.594L24.856,33.282z M25.987,33.946l-1.013-0.594l-0.656,0.386l1.013,0.594L25.987,33.946z
							 M27.118,34.609l-1.013-0.594l-0.656,0.386l1.013,0.594L27.118,34.609z M28.249,35.273l-1.013-0.594l-0.656,0.386l1.013,0.594
							L28.249,35.273z M29.735,36.144l-1.013-0.594l-0.656,0.386l1.013,0.594L29.735,36.144z M30.866,36.808l-1.013-0.594
							l-0.656,0.386l1.013,0.594L30.866,36.808z M31.997,37.472l-1.013-0.594l-0.656,0.386l1.013,0.594L31.997,37.472z
							 M33.129,38.135l-1.013-0.594l-0.656,0.386l1.013,0.594L33.129,38.135z M34.614,39.007l-1.013-0.594l-0.656,0.386l1.013,0.594
							L34.614,39.007z M35.745,39.67l-1.013-0.594l-0.656,0.386l1.013,0.594L35.745,39.67z M36.877,40.334l-1.013-0.594
							l-0.656,0.386l1.013,0.594L36.877,40.334z M38.008,40.998l-1.013-0.594l-0.656,0.386l1.013,0.594L38.008,40.998z"/>
					</g>
				</g>
			</g>
			<polygon class="st3" points="40.038,40.775 43.63,27.916 26.198,17.657 22.606,30.516 			"/>
			<polygon class="st5" points="23.645,30.097 26.743,19.008 42.591,28.335 39.493,39.424 			"/>
		</g>
	</g>
	<g>
		<g class="st0">
			<path class="st1" d="M20.292,28.725c0-0.133-0.334,0.084-0.415,0.038l-0.34-0.383l-6.592-4.058l-0.001,0.001c0,0,0,0,0,0
				c-0.023-0.013-0.049-0.023-0.078-0.028c-0.002,0-0.004-0.001-0.006-0.001c-0.014-0.002-0.028-0.004-0.043-0.004
				c-0.018-0.001-0.038,0-0.058,0.003c-0.01,0.001-0.02,0.003-0.031,0.006c-0.025,0.005-0.051,0.012-0.079,0.022
				c-0.005,0.002-0.01,0.004-0.016,0.007c-0.032,0.013-0.064,0.028-0.098,0.048l-0.001,0.001l-3.728,2.191l-0.229-0.136
				l-4.963,2.917l6.46,3.838l0.883-0.519l3.419,2.031l5.771-3.392v0.001l0.237-0.14l0.096-0.056V31.11
				c0.296-0.176,0.536-0.559,0.536-0.856L20.292,28.725z"/>
		</g>
		<g>
			<path class="st6" d="M20.253,28.5l-0.105,0.059l-7.51-3.065L6.725,27.64l0.007,1.31l7.511,4.473l5.906-3.466v0l0.001-0.001
				c0.219-0.13,0.396-0.412,0.396-0.631v-0.693C20.545,28.414,20.472,28.37,20.253,28.5z"/>
			<g>
				<path class="st7" d="M18.9,29.372l1.485,0.797l0.454-0.557l-0.022-1.176C20.817,28.435,20.123,28.512,18.9,29.372z"/>
				<path class="st8" d="M12.452,23.63l-0.331,0.196v0.305l0.348-0.194c0.219-0.13,0.292-0.086,0.292,0.133v0.693
					c0,0.219-0.177,0.501-0.396,0.631l-0.244,0.145v0.305l0.331-0.196c0.297-0.176,0.538-0.56,0.538-0.857v-0.941
					C12.99,23.552,12.749,23.454,12.452,23.63z"/>
				<polygon class="st8" points="20.396,30.367 14.293,33.954 6.349,29.234 6.349,28.929 20.396,30.062 				"/>
				<polygon class="st7" points="14.293,33.649 14.293,33.954 6.349,29.234 6.349,28.929 				"/>
				<polygon class="st9" points="20.396,30.062 14.293,33.649 6.349,28.929 12.452,25.342 				"/>
				<path class="st10" d="M20.253,28.5l-0.105,0.059l-7.51-3.065L6.725,27.64l0.007,1.31l7.511,4.473l5.906-3.466v0l0.001-0.001
					c0.219-0.13,0.396-0.412,0.396-0.631v-0.693C20.545,28.414,20.472,28.37,20.253,28.5z"/>
				<polygon class="st11" points="14.253,32.008 6.725,27.64 6.732,28.95 14.243,33.423 				"/>
				<polygon class="st8" points="20.396,28.655 14.293,32.242 6.349,27.523 6.349,27.218 10.776,27.575 20.396,28.35 				"/>
				<polygon class="st7" points="14.293,31.937 14.293,32.242 6.349,27.523 6.349,27.218 				"/>
				<polygon class="st12" points="20.396,28.35 14.293,31.937 6.349,27.218 12.452,23.63 				"/>
				<path class="st13" d="M20.363,28.557l0.441-0.259l-7.944-4.72l-0.001,0.001c-0.099-0.056-0.243-0.045-0.406,0.052l-0.19,0.113
					L20.363,28.557z"/>
				<path class="st8" d="M20.395,28.35l-0.331,0.196v0.305l0.348-0.194c0.219-0.13,0.292-0.086,0.292,0.133v0.693
					c0,0.219-0.177,0.501-0.396,0.631l-0.244,0.145v0.305l0.331-0.196c0.297-0.176,0.538-0.56,0.538-0.857v-0.941
					C20.932,28.272,20.692,28.174,20.395,28.35z"/>
				<polygon class="st14" points="20.396,28.35 14.293,31.937 6.349,27.218 14.304,31.812 				"/>
			</g>
		</g>
		<g>
			<path class="st6" d="M5.977,26.795l0.094,0.053l6.744-2.753l5.311,1.928l-0.006,1.176l-6.745,4.017l-5.304-3.113v0l-0.001,0
				c-0.196-0.116-0.356-0.37-0.356-0.566v-0.622C5.715,26.718,5.78,26.679,5.977,26.795z"/>
			<g>
				<path class="st15" d="M7.192,27.578l-1.333,0.716l-0.408-0.5l0.02-1.056C5.471,26.737,6.094,26.806,7.192,27.578z"/>
				<path class="st16" d="M12.983,22.422l0.298,0.176v0.274l-0.313-0.174c-0.196-0.116-0.262-0.077-0.262,0.119v0.622
					c0,0.196,0.159,0.45,0.356,0.566l0.219,0.13v0.274l-0.298-0.176c-0.267-0.158-0.483-0.503-0.483-0.769v-0.845
					C12.5,22.352,12.716,22.264,12.983,22.422z"/>
				<polygon class="st16" points="5.849,28.472 11.33,31.693 18.464,27.455 18.464,27.181 5.849,28.198 				"/>
				<polygon class="st15" points="11.33,31.419 11.33,31.693 18.464,27.455 18.464,27.181 				"/>
				<polygon class="st17" points="5.849,28.198 11.33,31.419 18.464,27.181 12.983,23.959 				"/>
				<path class="st10" d="M5.977,26.795l0.094,0.053l6.744-2.753l5.311,1.928l-0.006,1.176l-6.745,4.017l-5.304-3.113v0l-0.001,0
					c-0.196-0.116-0.356-0.37-0.356-0.566v-0.622C5.715,26.718,5.78,26.679,5.977,26.795z"/>
				<polygon class="st11" points="11.366,29.946 18.126,26.023 18.12,27.199 11.375,31.216 				"/>
				<polygon class="st16" points="5.849,26.935 11.33,30.156 18.464,25.918 18.464,25.644 14.488,25.964 5.849,26.661 				"/>
				<polygon class="st15" points="11.33,29.882 11.33,30.156 18.464,25.918 18.464,25.644 				"/>
				<polygon class="st18" points="5.849,26.661 11.33,29.882 18.464,25.644 12.983,22.422 				"/>
				<path class="st19" d="M5.878,26.846l-0.396-0.233l7.134-4.239l0.001,0.001c0.089-0.051,0.218-0.041,0.365,0.046l0.171,0.101
					L5.878,26.846z"/>
				<path class="st16" d="M5.85,26.661l0.298,0.176v0.274l-0.313-0.174c-0.196-0.116-0.262-0.077-0.262,0.119v0.622
					c0,0.196,0.159,0.45,0.356,0.566l0.219,0.13v0.274L5.85,28.472c-0.267-0.158-0.483-0.503-0.483-0.769v-0.845
					C5.367,26.591,5.583,26.503,5.85,26.661z"/>
				<polygon class="st20" points="5.849,26.661 11.33,29.882 18.464,25.644 11.32,29.769 				"/>
			</g>
		</g>
		<g>
			<g class="st0">
				<polygon class="st1" points="16.337,28.25 13.566,29.921 9.427,27.503 7.502,25.965 15.667,27.095 				"/>
			</g>
			<g>
				<g>
					<path class="st6" d="M9.388,17.695l0.084,0.049l0.975,6.512l3.95,3.237l0.911-0.548l0.007-7.097l-4.868-2.684l0,0l-0.001,0
						c-0.181-0.099-0.452-0.105-0.604-0.015L9.36,17.437C9.207,17.527,9.207,17.596,9.388,17.695z"/>
					<g>
						<path class="st21" d="M10.558,18.278l-0.06-1.367l-0.577-0.086l-0.812,0.503C9.109,17.329,9.451,17.782,10.558,18.278z"/>
						<path class="st22" d="M9.225,25.159l0.274,0.15l0.213-0.127l-0.28-0.162c-0.181-0.099-0.181-0.168-0.028-0.259l0.484-0.287
							c0.153-0.091,0.423-0.084,0.604,0.015l0.202,0.11l0.213-0.126l-0.275-0.15c-0.246-0.134-0.614-0.143-0.821-0.02l-0.657,0.39
							C8.947,24.816,8.979,25.025,9.225,25.159z"/>
						<polygon class="st22" points="10.632,16.822 15.667,19.594 15.667,27.095 15.454,27.221 10.419,16.948 						"/>
						<polygon class="st21" points="15.454,19.72 15.667,19.594 15.667,27.095 15.454,27.221 						"/>
						<polygon class="st23" points="10.419,16.948 15.454,19.72 15.454,27.221 10.419,24.449 						"/>
						<path class="st10" d="M9.388,17.695l0.084,0.049l0.975,6.512l3.95,3.237l0.911-0.548l0.007-7.097l-4.868-2.684l0,0l-0.001,0
							c-0.181-0.099-0.452-0.105-0.604-0.015L9.36,17.437C9.207,17.527,9.207,17.596,9.388,17.695z"/>
						<polygon class="st11" points="14.325,20.428 14.398,27.493 15.31,26.946 15.317,19.849 						"/>
						<polygon class="st22" points="9.437,17.531 14.472,20.303 14.472,27.805 14.259,27.931 12.673,24.694 9.225,17.658 						"/>
						<polygon class="st21" points="14.259,20.43 14.472,20.303 14.472,27.805 14.259,27.931 						"/>
						<polygon class="st24" points="9.225,17.658 14.259,20.43 14.259,27.931 9.225,25.159 						"/>
						<path class="st25" d="M9.382,17.595l-0.364-0.2l0,7.501l0.001,0.001c0.002,0.092,0.069,0.188,0.205,0.262l0.158,0.086
							L9.382,17.595z"/>
						<path class="st22" d="M9.225,17.659l0.275,0.15l0.213-0.127l-0.28-0.162c-0.181-0.099-0.181-0.168-0.028-0.259l0.484-0.287
							c0.153-0.091,0.423-0.084,0.604,0.015l0.202,0.11l0.213-0.126l-0.274-0.15c-0.246-0.134-0.614-0.143-0.821-0.02l-0.657,0.39
							C8.948,17.316,8.979,17.524,9.225,17.659z"/>
						<polygon class="st26" points="9.225,17.658 14.259,20.43 14.259,27.931 14.167,20.474 						"/>
					</g>
				</g>
				<g>
					<path class="st6" d="M7.83,18.642l0.084,0.049l0.975,6.512l3.95,3.237l0.911-0.548l0.007-7.097L8.89,18.111l0,0l-0.001,0
						c-0.181-0.099-0.452-0.105-0.604-0.015l-0.484,0.287C7.649,18.474,7.649,18.543,7.83,18.642z"/>
					<g>
						<path class="st27" d="M9,19.225l-0.06-1.367l-0.577-0.086l-0.812,0.503C7.551,18.276,7.893,18.729,9,19.225z"/>
						<path class="st28" d="M7.667,26.106l0.275,0.15l0.213-0.127l-0.28-0.162c-0.181-0.099-0.181-0.168-0.028-0.259l0.484-0.287
							c0.153-0.091,0.423-0.084,0.604,0.015l0.202,0.11l0.213-0.126l-0.275-0.15c-0.246-0.134-0.614-0.143-0.821-0.02l-0.657,0.39
							C7.389,25.763,7.421,25.972,7.667,26.106z"/>
						<polygon class="st28" points="9.074,17.769 14.109,20.541 14.109,28.042 13.896,28.168 8.861,17.895 						"/>
						<polygon class="st27" points="13.896,20.667 14.109,20.541 14.109,28.042 13.896,28.168 						"/>
						<polygon class="st29" points="8.861,17.895 13.896,20.667 13.896,28.168 8.861,25.397 						"/>
						<path class="st30" d="M7.83,18.642l0.084,0.049l0.975,6.512l3.95,3.237l0.911-0.548l0.007-7.097L8.89,18.111l0,0l-0.001,0
							c-0.181-0.099-0.452-0.105-0.604-0.015l-0.484,0.287C7.649,18.474,7.649,18.543,7.83,18.642z"/>
						<polygon class="st31" points="12.767,21.375 12.84,28.44 13.751,27.893 13.758,20.796 						"/>
						<polygon class="st28" points="7.879,18.478 12.914,21.25 12.914,28.752 12.701,28.878 11.115,25.641 7.667,18.605 						"/>
						<polygon class="st27" points="12.701,21.377 12.914,21.25 12.914,28.752 12.701,28.878 						"/>
						<polygon class="st32" points="7.667,18.605 12.701,21.377 12.701,28.878 7.667,26.106 						"/>
						<path class="st33" d="M7.824,18.542l-0.364-0.2l0,7.501l0.001,0.001c0.001,0.092,0.069,0.188,0.205,0.262l0.158,0.086
							L7.824,18.542z"/>
						<path class="st28" d="M7.667,18.606l0.274,0.15l0.213-0.127l-0.28-0.162c-0.181-0.099-0.181-0.168-0.028-0.259l0.484-0.287
							c0.153-0.091,0.423-0.084,0.604,0.015l0.202,0.11l0.213-0.126l-0.274-0.15c-0.246-0.134-0.614-0.143-0.821-0.02l-0.657,0.39
							C7.39,18.263,7.421,18.471,7.667,18.606z"/>
						<polygon class="st34" points="7.667,18.605 12.701,21.377 12.701,28.878 12.609,21.421 						"/>
					</g>
				</g>
			</g>
		</g>
	</g>
	<g>
		<path class="st35" d="M31.548,26.501c-1.833-0.432-3.2,0.851-3.321,2.754s1.23,3.768,2.945,4.172
			c1.716,0.404,3.194-0.833,3.315-2.737C34.608,28.788,33.331,26.921,31.548,26.501z M30.994,32.571
			c-1.21-0.425-2.044-1.961-1.823-3.383c0.221-1.422,1.274-2.267,2.567-1.813c1.257,0.442,2.048,1.935,1.827,3.356
			S32.204,32.996,30.994,32.571z"/>
		<path class="st35" d="M31.758,27.745c-0.039-0.016-0.078-0.032-0.117-0.045c-0.272-0.096-0.532-0.126-0.773-0.099
			c-0.116,1.558,0.757,3.185,2.062,3.94c0.127-0.206,0.225-0.445,0.285-0.71C32.249,30.267,31.619,28.976,31.758,27.745z"/>
		<path class="st35" d="M34.457,25.023c-1.382-0.486-2.559,0.025-3.166,1.119c0.09,0.014,0.182,0.032,0.274,0.053
			c0.236,0.056,0.463,0.134,0.681,0.234c0.473-0.643,1.23-0.92,2.095-0.617c1.257,0.442,2.048,1.935,1.827,3.356
			c-0.148,0.955-0.711,1.649-1.432,1.873c-0.044,0.331-0.127,0.641-0.244,0.925c1.278-0.031,2.332-1.01,2.562-2.491
			C37.343,27.621,36.218,25.641,34.457,25.023z"/>
	</g>
	<g>
		<g>
			<path class="st36" d="M32.253,28.587c0.224-0.139,0.443-0.26,0.65-0.36c-0.083-0.104-0.172-0.203-0.267-0.293
				c-0.183,0.1-0.369,0.208-0.557,0.325c-0.108,0.067-0.215,0.136-0.318,0.205c0.016,0.136,0.04,0.271,0.073,0.403
				C31.966,28.773,32.106,28.679,32.253,28.587z"/>
			<path class="st36" d="M35.231,27.343c-0.166-0.303-0.917-0.189-1.873,0.234c0.108,0.115,0.209,0.237,0.303,0.365
				c0.273-0.065,0.465-0.052,0.524,0.056c0.056,0.102-0.016,0.276-0.184,0.484c-0.143,0.179-0.356,0.383-0.618,0.591
				c-0.188,0.149-0.402,0.3-0.633,0.444c-0.18,0.112-0.356,0.213-0.526,0.303c-0.258,0.136-0.499,0.242-0.708,0.312
				c-0.366,0.122-0.635,0.129-0.721-0.025c-0.073-0.132,0.076-0.384,0.368-0.678c-0.055-0.139-0.103-0.28-0.144-0.423
				c-0.911,0.728-1.459,1.437-1.282,1.755c0.208,0.374,1.014,0.211,2.022-0.271c0.218-0.104,0.445-0.223,0.678-0.355
				c0.161-0.091,0.324-0.188,0.489-0.29c0.202-0.125,0.395-0.254,0.578-0.385c0.254-0.181,0.487-0.364,0.696-0.545
				C34.963,28.254,35.39,27.636,35.231,27.343z"/>
		</g>
	</g>
</g>
</svg>
