<?xml version="1.0" encoding="utf-8"?>
<!-- Generator: Adobe Illustrator 26.0.1, SVG Export Plug-In . SVG Version: 6.00 Build 0)  -->
<svg version="1.1" id="Layer_1" xmlns="http://www.w3.org/2000/svg" xmlns:xlink="http://www.w3.org/1999/xlink" x="0px" y="0px"
	 viewBox="0 0 50 50" style="enable-background:new 0 0 50 50;" xml:space="preserve">
<style type="text/css">
	.st0{opacity:0.2;}
	.st1{fill:#000202;}
	.st2{fill:#454D58;}
	.st3{fill:#353D47;}
	.st4{fill:#546171;}
	.st5{fill:#EAEAEA;}
	.st6{fill:#FFFFFF;}
	.st7{fill:#A82A7D;}
	.st8{fill:#BA3285;}
	.st9{fill:#93196E;}
	.st10{fill:#F3F3F3;}
	.st11{fill:#CCCCCC;}
	.st12{fill:#D03895;}
	.st13{fill:#C63292;}
	.st14{fill:#F249B7;}
	.st15{fill:#A8922A;}
	.st16{fill:#BAA532;}
	.st17{fill:#937D19;}
	.st18{fill:#D0B838;}
	.st19{fill:#C6AD32;}
	.st20{fill:#F2D549;}
	.st21{fill:#2A7BA8;}
	.st22{fill:#3282BA;}
	.st23{fill:#196C93;}
	.st24{fill:#3892D0;}
	.st25{fill:#3290C6;}
	.st26{fill:#49B4F2;}
	.st27{fill:#A85823;}
	.st28{fill:#BA672B;}
	.st29{fill:#934413;}
	.st30{fill:#E9F3EB;}
	.st31{fill:#C4CCC5;}
	.st32{fill:#D07330;}
	.st33{fill:#C6692A;}
	.st34{fill:#F2873F;}
	.st35{fill:#FF6900;}
	.st36{fill:#FFC100;}
</style>
<g class="st0">
	<polygon class="st1" points="3.614,40.692 8.648,42.09 19.015,48.184 36.447,37.924 36.67,37.164 26.08,31.831 21.988,30.556 	"/>
</g>
<g>
	<g>
		<polygon class="st2" points="8.845,41.333 26.055,30.516 22.685,17.657 22.463,17.657 5.031,27.916 8.623,40.775 		"/>
		<g>
			<polygon class="st3" points="36.644,36.609 36.644,37.167 19.212,47.426 8.845,41.333 			"/>
			<polygon class="st2" points="8.845,40.775 19.212,46.868 19.212,47.426 8.845,41.333 			"/>
			<polygon class="st4" points="26.277,30.516 36.644,36.609 19.212,46.868 8.845,40.775 			"/>
			<polygon class="st3" points="25.806,41.681 29.126,39.727 26.829,38.377 23.51,40.331 			"/>
			<g>
				<polygon class="st2" points="32.087,34.749 26.497,31.463 10.327,40.885 15.918,44.171 				"/>
				<g>
					<path class="st3" d="M25.564,32.38l1.013-0.594l0.656,0.386l-1.013,0.594L25.564,32.38z M27.226,33.358l1.013-0.594
						l-0.656-0.386l-1.013,0.594L27.226,33.358z M25.976,34.091l1.013-0.594l-0.656-0.386l-1.013,0.594L25.976,34.091z
						 M24.727,34.824l1.013-0.594l-0.656-0.386l-1.013,0.594L24.727,34.824z M23.478,35.557l1.013-0.594l-0.656-0.386l-1.013,0.594
						L23.478,35.557z M22.228,36.29l1.013-0.594l-0.656-0.386l-1.013,0.594L22.228,36.29z M20.979,37.023l1.013-0.594l-0.656-0.386
						l-1.013,0.594L20.979,37.023z M19.729,37.756l1.013-0.594l-0.656-0.386l-1.013,0.594L19.729,37.756z M18.48,38.489l1.013-0.594
						l-0.656-0.386l-1.013,0.594L18.48,38.489z M17.231,39.222l1.013-0.594l-0.656-0.386l-1.013,0.594L17.231,39.222z
						 M15.981,39.955l1.013-0.594l-0.656-0.386l-1.013,0.594L15.981,39.955z M14.732,40.688l1.013-0.594l-0.656-0.386l-1.013,0.594
						L14.732,40.688z M12.558,41.963l1.938-1.137L13.84,40.44l-1.938,1.137L12.558,41.963z M13.739,41.467l-1.013,0.594l0.656,0.386
						l1.013-0.594L13.739,41.467z M14.988,40.734l-1.013,0.594l0.656,0.386l1.013-0.594L14.988,40.734z M16.238,40.001l-1.013,0.594
						l0.656,0.386l1.013-0.594L16.238,40.001z M17.487,39.268l-1.013,0.594l0.656,0.386l1.013-0.594L17.487,39.268z M18.737,38.535
						l-1.013,0.594l0.656,0.386l1.013-0.594L18.737,38.535z M19.986,37.802l-1.013,0.594l0.656,0.386l1.013-0.594L19.986,37.802z
						 M21.235,37.069l-1.013,0.594l0.656,0.386l1.013-0.594L21.235,37.069z M22.485,36.336l-1.013,0.594l0.656,0.386l1.013-0.594
						L22.485,36.336z M23.734,35.603l-1.013,0.594l0.656,0.386l1.013-0.594L23.734,35.603z M24.983,34.871l-1.013,0.593l0.656,0.386
						l1.013-0.594L24.983,34.871z M26.233,34.137l-1.013,0.594l0.656,0.386l1.013-0.594L26.233,34.137z M28.407,32.862l-1.938,1.137
						l0.656,0.386l1.938-1.137L28.407,32.862z M15.381,41.453l-1.822,1.069l0.656,0.386l1.822-1.069L15.381,41.453z M16.63,40.72
						l-1.013,0.594l0.656,0.386l1.013-0.594L16.63,40.72z M17.879,39.987l-1.013,0.594l0.656,0.386l1.013-0.594L17.879,39.987z
						 M19.129,39.254l-1.013,0.594l0.656,0.386l1.013-0.594L19.129,39.254z M20.378,38.521l-1.013,0.594l0.656,0.386l1.013-0.594
						L20.378,38.521z M21.627,37.788l-1.013,0.594l0.656,0.386l1.013-0.594L21.627,37.788z M22.877,37.055l-1.013,0.594l0.656,0.386
						l1.013-0.594L22.877,37.055z M24.126,36.322l-1.013,0.594l0.656,0.386l1.013-0.594L24.126,36.322z M25.376,35.589l-1.013,0.594
						l0.656,0.386l1.013-0.594L25.376,35.589z M26.625,34.856l-1.013,0.594l0.656,0.386l1.013-0.594L26.625,34.856z M29.215,33.337
						l-2.353,1.381l0.656,0.386l2.353-1.381L29.215,33.337z M17.196,41.356l-2.813,1.65l0.656,0.386l2.813-1.65L17.196,41.356z
						 M18.398,40.65l-1.013,0.594l0.656,0.386l1.013-0.594L18.398,40.65z M19.647,39.917l-1.013,0.594l0.656,0.386l1.013-0.594
						L19.647,39.917z M20.896,39.185l-1.013,0.594l0.657,0.385l1.013-0.594L20.896,39.185z M22.146,38.452l-1.013,0.594l0.656,0.386
						l1.013-0.594L22.146,38.452z M23.395,37.719l-1.013,0.594l0.656,0.386l1.013-0.594L23.395,37.719z M24.645,36.986l-1.013,0.594
						l0.656,0.386l1.013-0.594L24.645,36.986z M25.894,36.253l-1.013,0.594l0.656,0.386l1.013-0.594L25.894,36.253z M27.143,35.52
						l-1.013,0.594l0.656,0.386l1.013-0.594L27.143,35.52z M30.039,33.821l-2.659,1.56l0.656,0.386l2.659-1.56L30.039,33.821z
						 M16.237,42.885l-1.013,0.594l0.656,0.386l1.013-0.594L16.237,42.885z M17.487,42.153l-1.013,0.594l0.656,0.386l1.013-0.594
						L17.487,42.153z M18.736,41.42l-1.013,0.594l0.656,0.386l1.013-0.594L18.736,41.42z M19.985,40.687l-1.013,0.594l0.656,0.386
						l1.013-0.594L19.985,40.687z M27.057,36.538l-6.787,3.981l0.656,0.386l6.787-3.981L27.057,36.538z M28.306,35.806L27.293,36.4
						l0.656,0.385l1.013-0.594L28.306,35.806z M29.556,35.072l-1.013,0.594l0.656,0.386l1.013-0.594L29.556,35.072z M30.805,34.339
						l-1.013,0.594l0.656,0.386l1.013-0.594L30.805,34.339z M24.683,33.668l1.013-0.594l-0.656-0.386l-1.013,0.594L24.683,33.668z
						 M23.552,34.332l1.013-0.594l-0.656-0.386l-1.013,0.594L23.552,34.332z M22.421,34.995l1.013-0.594l-0.656-0.386l-1.013,0.594
						L22.421,34.995z M21.29,35.659l1.013-0.594l-0.656-0.386l-1.013,0.594L21.29,35.659z M19.804,36.53l1.013-0.594l-0.656-0.386
						l-1.013,0.594L19.804,36.53z M18.673,37.194l1.013-0.594l-0.656-0.386l-1.013,0.594L18.673,37.194z M17.542,37.858l1.013-0.594
						l-0.656-0.386l-1.013,0.594L17.542,37.858z M16.41,38.521l1.013-0.594l-0.656-0.386l-1.013,0.594L16.41,38.521z M14.925,39.393
						l1.013-0.594l-0.656-0.386l-1.013,0.594L14.925,39.393z M13.794,40.056l1.013-0.594l-0.656-0.386l-1.013,0.594L13.794,40.056z
						 M12.662,40.72l1.013-0.594l-0.656-0.386l-1.013,0.594L12.662,40.72z M11.531,41.384l1.013-0.594l-0.656-0.386l-1.013,0.594
						L11.531,41.384z"/>
				</g>
			</g>
		</g>
		<polygon class="st3" points="26.277,30.516 22.685,17.657 5.253,27.916 8.845,40.775 		"/>
		<polygon class="st5" points="9.39,39.424 6.292,28.335 22.14,19.008 25.238,30.097 		"/>
	</g>
</g>
<g>
	<g class="st0">
		<path class="st1" d="M27.867,30.254c0,0.297,0.24,0.68,0.536,0.856v0.002l0.096,0.056l0.237,0.14v-0.001l5.771,3.392l3.419-2.031
			l0.883,0.519l6.46-3.838l-4.963-2.917l-0.229,0.136l-3.728-2.191l-0.001-0.001c-0.034-0.02-0.066-0.035-0.098-0.048
			c-0.006-0.003-0.011-0.005-0.016-0.007c-0.028-0.01-0.054-0.017-0.079-0.022c-0.011-0.003-0.021-0.005-0.031-0.006
			c-0.02-0.003-0.04-0.004-0.058-0.003c-0.015,0-0.029,0.002-0.043,0.004c-0.002,0-0.004,0.001-0.006,0.001
			c-0.029,0.005-0.055,0.015-0.078,0.028l0,0l-0.001-0.001l-6.592,4.058l-0.34,0.383c-0.081,0.046-0.415-0.171-0.415-0.038
			L27.867,30.254z"/>
	</g>
	<g>
		<path class="st6" d="M28.337,28.632v0.693c0,0.219,0.177,0.501,0.396,0.631l0.001,0.001l0,0l5.906,3.466l7.511-4.473l0.007-1.31
			l-5.913-2.146l-7.51,3.065L28.63,28.5C28.411,28.37,28.338,28.414,28.337,28.632z"/>
		<g>
			<path class="st7" d="M28.066,28.436l-0.022,1.176l0.454,0.557l1.485-0.797C28.76,28.512,28.066,28.435,28.066,28.436z"/>
			<path class="st8" d="M35.893,23.85v0.941c0,0.297,0.241,0.681,0.538,0.857l0.331,0.196v-0.305l-0.244-0.145
				c-0.219-0.13-0.396-0.412-0.396-0.631V24.07c0-0.219,0.073-0.263,0.292-0.133l0.348,0.194v-0.305l-0.331-0.196
				C36.134,23.454,35.893,23.552,35.893,23.85z"/>
			<polygon class="st8" points="28.487,30.062 42.534,28.929 42.534,29.234 34.59,33.954 28.487,30.367 			"/>
			<polygon class="st7" points="42.534,28.929 42.534,29.234 34.59,33.954 34.59,33.649 			"/>
			<polygon class="st9" points="36.431,25.342 42.534,28.929 34.59,33.649 28.487,30.062 			"/>
			<path class="st10" d="M28.337,28.632v0.693c0,0.219,0.177,0.501,0.396,0.631l0.001,0.001l0,0l5.906,3.466l7.511-4.473l0.007-1.31
				l-5.913-2.146l-7.51,3.065L28.63,28.5C28.411,28.37,28.338,28.414,28.337,28.632z"/>
			<polygon class="st11" points="34.64,33.423 42.151,28.95 42.158,27.64 34.63,32.008 			"/>
			<polygon class="st8" points="28.487,28.35 38.107,27.575 42.534,27.218 42.534,27.523 34.59,32.242 28.487,28.655 			"/>
			<polygon class="st7" points="42.534,27.218 42.534,27.523 34.59,32.242 34.59,31.937 			"/>
			<polygon class="st12" points="36.431,23.63 42.534,27.218 34.59,31.937 28.487,28.35 			"/>
			<path class="st13" d="M36.62,23.744l-0.19-0.113c-0.163-0.097-0.307-0.108-0.406-0.052l-0.001-0.001l-7.944,4.72l0.441,0.259
				L36.62,23.744z"/>
			<path class="st8" d="M27.95,28.57v0.941c0,0.297,0.241,0.681,0.538,0.857l0.331,0.196v-0.305l-0.244-0.145
				c-0.219-0.13-0.396-0.412-0.396-0.631V28.79c0-0.219,0.073-0.263,0.292-0.133l0.348,0.194v-0.305l-0.331-0.196
				C28.191,28.174,27.951,28.272,27.95,28.57z"/>
			<polygon class="st14" points="34.579,31.812 42.534,27.218 34.59,31.937 28.487,28.35 			"/>
		</g>
	</g>
	<g>
		<path class="st6" d="M43.169,26.915v0.622c0,0.196-0.16,0.45-0.356,0.566h-0.001l0,0l-5.304,3.113l-6.745-4.017l-0.006-1.176
			l5.311-1.928l6.744,2.753l0.094-0.053C43.103,26.679,43.168,26.718,43.169,26.915z"/>
		<g>
			<path class="st15" d="M43.412,26.738l0.02,1.056l-0.408,0.5l-1.333-0.716C42.789,26.806,43.412,26.737,43.412,26.738z"/>
			<path class="st16" d="M36.383,22.619v0.845c0,0.266-0.216,0.611-0.483,0.769l-0.298,0.176v-0.274l0.219-0.13
				c0.197-0.116,0.356-0.37,0.356-0.566v-0.622c0-0.196-0.066-0.235-0.262-0.119l-0.313,0.174v-0.274l0.298-0.176
				C36.167,22.264,36.383,22.352,36.383,22.619z"/>
			<polygon class="st16" points="43.034,28.198 30.419,27.181 30.419,27.455 37.553,31.693 43.034,28.472 			"/>
			<polygon class="st15" points="30.419,27.181 30.419,27.455 37.553,31.693 37.553,31.419 			"/>
			<polygon class="st17" points="35.9,23.959 30.419,27.181 37.553,31.419 43.034,28.198 			"/>
			<path class="st10" d="M43.169,26.915v0.622c0,0.196-0.16,0.45-0.356,0.566h-0.001l0,0l-5.304,3.113l-6.745-4.017l-0.006-1.176
				l5.311-1.928l6.744,2.753l0.094-0.053C43.103,26.679,43.168,26.718,43.169,26.915z"/>
			<polygon class="st11" points="37.508,31.216 30.763,27.199 30.757,26.023 37.517,29.946 			"/>
			<polygon class="st16" points="43.034,26.661 34.395,25.964 30.419,25.644 30.419,25.918 37.553,30.156 43.034,26.935 			"/>
			<polygon class="st15" points="30.419,25.644 30.419,25.918 37.553,30.156 37.553,29.882 			"/>
			<polygon class="st18" points="35.9,22.422 30.419,25.644 37.553,29.882 43.034,26.661 			"/>
			<path class="st19" d="M35.73,22.522l0.171-0.101c0.147-0.087,0.276-0.097,0.365-0.046l0.001-0.001l7.134,4.239l-0.396,0.233
				L35.73,22.522z"/>
			<path class="st16" d="M43.516,26.858v0.845c0,0.266-0.216,0.611-0.483,0.769l-0.298,0.176v-0.274l0.219-0.13
				c0.197-0.116,0.356-0.37,0.356-0.566v-0.622c0-0.196-0.066-0.235-0.262-0.119l-0.313,0.174v-0.274l0.298-0.176
				C43.3,26.503,43.516,26.591,43.516,26.858z"/>
			<polygon class="st20" points="37.563,29.769 30.419,25.644 37.553,29.882 43.034,26.661 			"/>
		</g>
	</g>
	<g>
		<g class="st0">
			<polygon class="st1" points="33.216,27.095 41.381,25.965 39.456,27.503 35.317,29.921 32.546,28.25 			"/>
		</g>
		<g>
			<g>
				<path class="st6" d="M39.523,17.437l-0.482-0.288c-0.152-0.09-0.423-0.084-0.604,0.015h-0.001l0,0l-4.868,2.684l0.007,7.097
					l0.911,0.548l3.95-3.237l0.975-6.512l0.084-0.049C39.676,17.596,39.676,17.527,39.523,17.437z"/>
				<g>
					<path class="st21" d="M39.774,17.328l-0.812-0.503l-0.577,0.086l-0.06,1.367C39.432,17.782,39.774,17.329,39.774,17.328z"/>
					<path class="st22" d="M39.729,24.693l-0.657-0.39c-0.207-0.123-0.575-0.114-0.821,0.02l-0.275,0.15l0.213,0.126l0.202-0.11
						c0.181-0.099,0.451-0.106,0.604-0.015l0.484,0.287c0.153,0.091,0.153,0.16-0.028,0.259l-0.28,0.162l0.213,0.127l0.274-0.15
						C39.904,25.025,39.936,24.816,39.729,24.693z"/>
					<polygon class="st22" points="38.464,16.948 33.429,27.221 33.216,27.095 33.216,19.594 38.251,16.822 					"/>
					<polygon class="st21" points="33.429,27.221 33.216,27.095 33.216,19.594 33.429,19.72 					"/>
					<polygon class="st23" points="38.464,24.449 33.429,27.221 33.429,19.72 38.464,16.948 					"/>
					<path class="st10" d="M39.523,17.437l-0.482-0.288c-0.152-0.09-0.423-0.084-0.604,0.015h-0.001l0,0l-4.868,2.684l0.007,7.097
						l0.911,0.548l3.95-3.237l0.975-6.512l0.084-0.049C39.676,17.596,39.676,17.527,39.523,17.437z"/>
					<polygon class="st11" points="33.566,19.849 33.573,26.946 34.485,27.493 34.558,20.428 					"/>
					<polygon class="st22" points="39.658,17.658 36.21,24.694 34.624,27.931 34.411,27.805 34.411,20.303 39.446,17.531 					"/>
					<polygon class="st21" points="34.624,27.931 34.411,27.805 34.411,20.303 34.624,20.43 					"/>
					<polygon class="st24" points="39.658,25.159 34.624,27.931 34.624,20.43 39.658,17.658 					"/>
					<path class="st25" d="M39.501,25.245l0.158-0.086c0.136-0.074,0.203-0.17,0.205-0.262l0.001-0.001v-7.501l-0.364,0.2V25.245z"
						/>
					<path class="st22" d="M39.727,17.193l-0.657-0.39c-0.207-0.123-0.575-0.114-0.821,0.02l-0.274,0.15l0.213,0.126l0.202-0.11
						c0.181-0.099,0.451-0.106,0.604-0.015l0.484,0.287c0.153,0.091,0.153,0.16-0.028,0.259l-0.28,0.162l0.213,0.127l0.275-0.15
						C39.904,17.524,39.935,17.316,39.727,17.193z"/>
					<polygon class="st26" points="34.716,20.474 34.624,27.931 34.624,20.43 39.658,17.658 					"/>
				</g>
			</g>
			<g>
				<path class="st6" d="M41.082,18.383l-0.484-0.287c-0.152-0.09-0.423-0.084-0.604,0.015h-0.001l0,0l-4.867,2.684l0.007,7.097
					l0.911,0.548l3.95-3.237l0.975-6.512l0.084-0.049C41.234,18.543,41.234,18.474,41.082,18.383z"/>
				<g>
					<path class="st27" d="M41.332,18.275l-0.812-0.503l-0.577,0.086l-0.06,1.367C40.99,18.729,41.332,18.276,41.332,18.275z"/>
					<path class="st28" d="M41.286,25.64l-0.657-0.39c-0.207-0.123-0.575-0.114-0.821,0.02l-0.275,0.15l0.213,0.126l0.202-0.11
						c0.181-0.099,0.451-0.106,0.604-0.015l0.484,0.287c0.153,0.091,0.153,0.16-0.028,0.259l-0.28,0.162l0.213,0.127l0.275-0.15
						C41.462,25.972,41.494,25.763,41.286,25.64z"/>
					<polygon class="st28" points="40.022,17.895 34.987,28.168 34.774,28.042 34.774,20.541 39.809,17.769 					"/>
					<polygon class="st27" points="34.987,28.168 34.774,28.042 34.774,20.541 34.987,20.667 					"/>
					<polygon class="st29" points="40.022,25.397 34.987,28.168 34.987,20.667 40.022,17.895 					"/>
					<path class="st30" d="M41.082,18.383l-0.484-0.287c-0.152-0.09-0.423-0.084-0.604,0.015h-0.001l0,0l-4.867,2.684l0.007,7.097
						l0.911,0.548l3.95-3.237l0.975-6.512l0.084-0.049C41.234,18.543,41.234,18.474,41.082,18.383z"/>
					<polygon class="st31" points="35.125,20.796 35.132,27.893 36.043,28.44 36.116,21.375 					"/>
					<polygon class="st28" points="41.216,18.605 37.768,25.641 36.182,28.878 35.969,28.752 35.969,21.25 41.004,18.478 					"/>
					<polygon class="st27" points="36.182,28.878 35.969,28.752 35.969,21.25 36.182,21.377 					"/>
					<polygon class="st32" points="41.216,26.106 36.182,28.878 36.182,21.377 41.216,18.605 					"/>
					<path class="st33" d="M41.059,26.192l0.158-0.086c0.136-0.074,0.204-0.17,0.205-0.262l0.001-0.001v-7.501l-0.364,0.2V26.192z"
						/>
					<path class="st28" d="M41.286,18.14l-0.657-0.39c-0.207-0.123-0.575-0.114-0.821,0.02l-0.274,0.15l0.213,0.126l0.202-0.11
						c0.181-0.099,0.451-0.106,0.604-0.015l0.484,0.287c0.153,0.091,0.153,0.16-0.028,0.259l-0.28,0.162l0.213,0.127l0.274-0.15
						C41.462,18.471,41.493,18.263,41.286,18.14z"/>
					<polygon class="st34" points="36.274,21.421 36.182,28.878 36.182,21.377 41.216,18.605 					"/>
				</g>
			</g>
		</g>
	</g>
</g>
<g>
	<path class="st35" d="M15.112,26.501c-1.833-0.432-3.2,0.851-3.321,2.754s1.23,3.768,2.945,4.172
		c1.716,0.404,3.194-0.833,3.315-2.737C18.172,28.788,16.895,26.921,15.112,26.501z M14.558,32.571
		c-1.21-0.425-2.044-1.961-1.823-3.383c0.221-1.422,1.274-2.267,2.567-1.813c1.257,0.442,2.048,1.935,1.827,3.356
		C16.908,32.152,15.768,32.996,14.558,32.571z"/>
	<path class="st35" d="M15.322,27.745c-0.039-0.016-0.078-0.032-0.117-0.045c-0.272-0.096-0.532-0.126-0.773-0.099
		c-0.116,1.558,0.757,3.185,2.062,3.94c0.127-0.206,0.225-0.445,0.285-0.71C15.813,30.267,15.183,28.976,15.322,27.745z"/>
	<path class="st35" d="M18.021,25.023c-1.382-0.486-2.559,0.025-3.166,1.119c0.09,0.014,0.182,0.032,0.274,0.053
		c0.236,0.056,0.463,0.134,0.681,0.234c0.473-0.643,1.23-0.92,2.095-0.617c1.257,0.442,2.048,1.935,1.827,3.356
		c-0.148,0.955-0.711,1.649-1.432,1.873c-0.044,0.331-0.127,0.641-0.244,0.925c1.278-0.031,2.332-1.01,2.562-2.491
		C20.907,27.621,19.782,25.641,18.021,25.023z"/>
</g>
<g>
	<g>
		<path class="st36" d="M15.817,28.587c0.224-0.139,0.443-0.26,0.65-0.36c-0.083-0.104-0.172-0.203-0.267-0.293
			c-0.183,0.1-0.369,0.208-0.557,0.325c-0.108,0.067-0.215,0.136-0.318,0.205c0.016,0.136,0.04,0.271,0.073,0.403
			C15.53,28.773,15.67,28.679,15.817,28.587z"/>
		<path class="st36" d="M18.795,27.343c-0.166-0.303-0.917-0.189-1.873,0.234c0.108,0.115,0.209,0.237,0.303,0.365
			c0.273-0.065,0.465-0.052,0.524,0.056c0.056,0.102-0.016,0.276-0.184,0.484c-0.143,0.179-0.356,0.383-0.618,0.591
			c-0.188,0.149-0.402,0.3-0.633,0.444c-0.18,0.112-0.356,0.213-0.526,0.303c-0.258,0.136-0.499,0.242-0.708,0.312
			c-0.366,0.122-0.635,0.129-0.721-0.025c-0.073-0.132,0.076-0.384,0.368-0.678c-0.055-0.139-0.103-0.28-0.144-0.423
			c-0.911,0.728-1.459,1.437-1.282,1.755c0.208,0.374,1.014,0.211,2.022-0.271c0.218-0.104,0.445-0.223,0.678-0.355
			c0.161-0.091,0.324-0.188,0.489-0.29c0.202-0.125,0.395-0.254,0.578-0.385c0.254-0.181,0.487-0.364,0.696-0.545
			C18.527,28.254,18.954,27.636,18.795,27.343z"/>
	</g>
</g>
</svg>
