<?xml version="1.0" encoding="utf-8"?>
<!-- Generator: Adobe Illustrator 25.4.1, SVG Export Plug-In . SVG Version: 6.00 Build 0)  -->
<svg version="1.1" id="Layer_1" xmlns="http://www.w3.org/2000/svg" xmlns:xlink="http://www.w3.org/1999/xlink" x="0px" y="0px"
	 viewBox="0 0 50 50" style="enable-background:new 0 0 50 50;" xml:space="preserve">
<style type="text/css">
	.st0{fill:url(#SVGID_1_);}
	.st1{fill:#51ABAF;}
	.st2{fill:#4097A0;}
	.st3{fill:#2D8C91;}
	.st4{fill:#F2E6DD;}
	.st5{fill:#E2D1C5;}
	.st6{fill:#65659B;}
	.st7{fill:#F69C9B;}
	.st8{fill:#F48685;}
	.st9{fill:#C64E4E;}
	.st10{fill:#56568C;}
	.st11{fill:#3E3E75;}
	.st12{fill:#8DC0CC;}
</style>
<radialGradient id="SVGID_1_" cx="24.4584" cy="38.0569" r="15.8947" gradientTransform="matrix(1.5353 0 0 -0.5277 -12.749 59.914)" gradientUnits="userSpaceOnUse">
	<stop  offset="0.4351" style="stop-color:#B4BCC1"/>
	<stop  offset="0.94" style="stop-color:#ECEEEF;stop-opacity:0"/>
</radialGradient>
<ellipse class="st0" cx="24.802" cy="39.833" rx="24.402" ry="8.387"/>
<g>
	<g>
		<g>
			<g>
				<path class="st1" d="M37.976,33.745l-11.565-6.704c-0.757-0.439-1.378,0.029-1.38,1.039c-0.002,1.01,0.616,2.196,1.373,2.635
					l11.565,6.704L37.976,33.745z"/>
			</g>
			<g>
				<polygon class="st1" points="11.126,35.513 25.437,27.018 37.434,35.95 23.738,43.757 				"/>
			</g>
			<g>
				<path class="st2" d="M23.741,42.172l-11.565-6.704c-0.757-0.439-1.378,0.029-1.38,1.039c-0.002,1.01,0.616,2.196,1.373,2.635
					l11.565,6.704L23.741,42.172z"/>
			</g>
			<g>
				<polygon class="st3" points="37.976,33.745 23.741,42.172 23.735,45.846 37.969,37.42 				"/>
			</g>
			<g>
				<path class="st4" d="M23.74,42.886l-11.465-6.62c-0.483-0.28-0.879,0.018-0.88,0.663c-0.001,0.644,0.393,1.4,0.876,1.68
					l11.465,6.646L23.74,42.886z"/>
			</g>
			<g>
				<polygon class="st5" points="37.974,34.456 23.74,42.883 23.736,45.254 37.97,36.828 				"/>
			</g>
		</g>
		<g>
			<g>
				<g>
					<path class="st6" d="M23.736,41.471l-11.135-6.447l13.267-7.628l11.135,6.447L23.736,41.471z M13.014,35.008l10.752,6.225
						l12.824-7.374l-10.752-6.225L13.014,35.008z"/>
				</g>
			</g>
			<g>
				<g>
					<path class="st6" d="M36.785,33.844c-0.623-0.324-0.671-0.297-1.143-0.57c-0.692,0.398-0.78,0.994-0.221,1.355L36.785,33.844z"
						/>
				</g>
			</g>
			<g>
				<g>
					<path class="st6" d="M25.794,27.574l-1.288,0.741c0.62,0.343,1.677,0.298,2.381-0.107
						C26.289,27.861,25.794,27.574,25.794,27.574z"/>
				</g>
			</g>
			<g>
				<g>
					<path class="st6" d="M25.023,40.606c-0.623-0.324-1.656-0.276-2.348,0.122c0.532,0.308,1.063,0.616,1.063,0.616L25.023,40.606z
						"/>
				</g>
			</g>
			<g>
				<g>
					<path class="st6" d="M14.117,34.288l-1.288,0.741c0.62,0.343,0.825,0.478,1.093,0.634
						C14.626,35.258,14.709,34.647,14.117,34.288z"/>
				</g>
			</g>
		</g>
	</g>
	<g>
		<g>
			<polygon class="st7" points="23.321,37.046 15.534,32.532 29.567,24.484 37.352,28.998 			"/>
		</g>
		<g>
			<path class="st7" d="M37.352,28.998l-7.787-4.514l-0.005,2.777l7.787,4.514c0.572,0.332,1.041-0.022,1.043-0.785
				C38.391,30.226,37.924,29.33,37.352,28.998z"/>
		</g>
		<g>
			<polygon class="st7" points="23.858,39.881 38.044,31.819 37.222,28.998 23.191,37.046 			"/>
		</g>
		<g>
			<path class="st8" d="M23.321,37.046l-7.787-4.514l-0.005,2.777l7.787,4.514c0.572,0.332,1.041-0.022,1.043-0.785
				C24.36,38.274,23.893,37.378,23.321,37.046z"/>
		</g>
		<g>
			<path class="st4" d="M23.23,37.805l-7.697-4.479l-0.003,1.509l7.697,4.475c0.31,0.18,0.564-0.012,0.565-0.426
				C23.793,38.471,23.54,37.985,23.23,37.805z"/>
		</g>
		<g>
			<g>
				<path class="st9" d="M22.85,35.975l-5.185-3.006l0.143-0.082c0.335-0.193,0.527-0.441,0.527-0.682
					c0-0.192-0.126-0.372-0.357-0.506l-0.143-0.083l10.422-5.992l0.048,0.028c0.55,0.319,1.537,0.287,2.201-0.07l0.047-0.025
					l0.046,0.027l5.14,2.98l-0.136,0.083c-0.311,0.191-0.489,0.433-0.486,0.664c0.002,0.192,0.125,0.363,0.355,0.497l0.143,0.083
					l-10.422,5.992l-0.048-0.028c-0.573-0.332-1.581-0.29-2.248,0.093L22.85,35.975z M18.038,32.966l4.812,2.789
					c0.701-0.378,1.723-0.418,2.341-0.093l10.052-5.78c-0.203-0.156-0.315-0.355-0.318-0.57c-0.003-0.263,0.158-0.527,0.447-0.741
					l-4.826-2.797c-0.705,0.359-1.687,0.388-2.29,0.07l-10.052,5.78c0.207,0.159,0.32,0.362,0.319,0.582
					C18.525,32.479,18.349,32.75,18.038,32.966z"/>
			</g>
		</g>
		<g>
			<g>
				<path class="st9" d="M36.891,29.277l-1.094,0.618c0.572,0.332,1.039,1.228,1.038,1.992c-0.001,0.383-0.119,0.663-0.309,0.805
					l0,0l1.021-0.579c0.231-0.122,0.382-0.414,0.383-0.843C37.931,30.505,37.464,29.609,36.891,29.277z"/>
			</g>
		</g>
		<g>
			<g>
				<path class="st9" d="M25.061,35.979l-1.094,0.618c0.572,0.332,1.039,1.228,1.038,1.992c-0.001,0.383-0.119,0.663-0.309,0.805
					l0,0l1.021-0.579c0.231-0.122,0.382-0.414,0.383-0.843C26.1,37.207,25.633,36.311,25.061,35.979z"/>
			</g>
		</g>
	</g>
	<g>
		<g>
			<g>
				<g>
					<path class="st6" d="M28.192,20.367l8.193,4.749l-0.006,3.369l-8.193-4.749c-0.694-0.402-1.261-1.49-1.259-2.416
						C26.928,20.394,27.498,19.965,28.192,20.367z"/>
				</g>
				<g>
					<polygon class="st10" points="25.102,31.77 36.384,25.117 36.379,28.486 25.096,35.139 					"/>
				</g>
				<g>
					<polygon class="st6" points="16.095,26.949 27.367,20.303 36.384,25.117 25.102,31.77 					"/>
				</g>
				<g>
					<path class="st11" d="M16.909,27.02l8.193,4.749l-0.006,3.369l-8.193-4.749c-0.694-0.402-1.261-1.49-1.259-2.416
						C15.646,27.047,16.215,26.618,16.909,27.02z"/>
				</g>
				<g>
					<polygon class="st5" points="25.101,32.365 36.383,25.712 36.38,27.906 25.097,34.559 					"/>
				</g>
				<g>
					<path class="st4" d="M16.923,27.633l8.178,4.733l-0.004,2.193l-8.178-4.714c-0.456-0.264-0.828-0.978-0.827-1.586
						C16.094,27.65,16.467,27.368,16.923,27.633z"/>
				</g>
			</g>
			<g>
				<g>
					<g>
						<path class="st12" d="M25.069,30.89l9.98-5.738l-7.093-4.09l-9.98,5.738L25.069,30.89z M34.52,25.151l-9.451,5.434
							l-6.565-3.784l9.451-5.434L34.52,25.151z"/>
					</g>
				</g>
				<g>
					<g>
						<g>
							<g>
								<path class="st12" d="M34.204,24.825c-0.024,0.014-0.049,0.027-0.071,0.042c-0.308,0.219-0.297,0.51,0.008,0.676
									l-0.267,0.154c-0.006-0.003-0.014-0.006-0.02-0.01c-0.4-0.232-0.401-0.633,0.02-0.932c0.031-0.022,0.068-0.041,0.102-0.061
									L34.204,24.825z"/>
							</g>
						</g>
					</g>
					<g>
						<g>
							<g>
								<path class="st12" d="M28.49,21.534c-0.024,0.014-0.047,0.028-0.074,0.041c-0.38,0.177-0.885,0.169-1.17-0.007l-0.267,0.154
									c0.006,0.004,0.011,0.008,0.017,0.012c0.4,0.232,1.094,0.234,1.614-0.008c0.039-0.018,0.071-0.039,0.106-0.059L28.49,21.534
									z"/>
							</g>
						</g>
					</g>
				</g>
				<g>
					<g>
						<g>
							<g>
								<path class="st12" d="M24.497,30.406c0.024-0.014,0.047-0.028,0.074-0.041c0.38-0.177,0.885-0.169,1.17,0.007l0.267-0.154
									c-0.006-0.004-0.011-0.008-0.017-0.012c-0.4-0.232-1.094-0.234-1.614,0.008c-0.039,0.018-0.071,0.039-0.106,0.059
									L24.497,30.406z"/>
							</g>
						</g>
					</g>
					<g>
						<g>
							<g>
								<path class="st12" d="M18.783,27.116c0.024-0.014,0.049-0.027,0.071-0.042c0.308-0.219,0.297-0.51-0.008-0.676l0.267-0.154
									c0.006,0.003,0.014,0.006,0.02,0.01c0.4,0.232,0.401,0.633-0.02,0.932c-0.031,0.022-0.068,0.041-0.102,0.061L18.783,27.116z
									"/>
							</g>
						</g>
					</g>
				</g>
			</g>
		</g>
		<g>
			<path class="st9" d="M18.405,30.409c0,0-0.694,0.659-0.925,0.792c-0.289,0.166-1.154,0.664-1.154,0.664l0.069-0.56l-0.97,0.038
				c0,0,0.866-0.498,1.154-0.664c0.231-0.133,0.925-0.792,0.925-0.792L18.405,30.409z"/>
		</g>
	</g>
</g>
<g>
	<path d="M11.878,8.411l-1.842-0.003l-0.324,0.75c-0.08,0.185-0.12,0.323-0.12,0.414c0,0.073,0.034,0.136,0.103,0.191
		c0.069,0.055,0.218,0.091,0.447,0.108v0.13L8.644,9.998v-0.13c0.199-0.035,0.328-0.08,0.386-0.136
		c0.12-0.112,0.252-0.34,0.398-0.684l1.681-3.913h0.123l1.649,3.961c0.133,0.318,0.253,0.525,0.362,0.62
		c0.108,0.095,0.26,0.148,0.454,0.16v0.13l-1.877-0.003v-0.13c0.189-0.009,0.317-0.04,0.384-0.094c0.067-0.054,0.1-0.119,0.1-0.196
		c0-0.103-0.046-0.266-0.139-0.488L11.878,8.411z M11.781,8.151l-0.804-1.924l-0.831,1.922L11.781,8.151z"/>
</g>
<g>
	<path d="M23.98,20.24l-0.296-4.396l-1.13,2.972c-0.104,0.273-0.139,0.455-0.106,0.545c0.046,0.123,0.156,0.217,0.331,0.284
		l0.157,0.06l-0.046,0.121l-1.548-0.589l0.046-0.121l0.157,0.06c0.188,0.071,0.343,0.065,0.465-0.018
		c0.075-0.052,0.16-0.202,0.254-0.451l1.105-2.906c0.075-0.197,0.107-0.347,0.097-0.451c-0.006-0.075-0.043-0.149-0.108-0.223
		c-0.066-0.074-0.189-0.145-0.371-0.214l0.046-0.121l1.26,0.479l0.29,4.094l2.911-2.876l1.26,0.479l-0.046,0.121l-0.154-0.059
		c-0.19-0.072-0.346-0.067-0.468,0.017c-0.075,0.052-0.159,0.202-0.254,0.451l-1.105,2.906c-0.104,0.273-0.138,0.456-0.103,0.547
		c0.046,0.123,0.156,0.217,0.331,0.284l0.154,0.059l-0.046,0.121l-1.889-0.718l0.046-0.121l0.157,0.06
		c0.19,0.072,0.345,0.066,0.465-0.018c0.075-0.052,0.16-0.202,0.254-0.451l1.13-2.972l-3.139,3.09L23.98,20.24z"/>
</g>
<g>
	<path d="M25.091,4.435l-0.038,0.124c-0.17-0.021-0.308-0.007-0.413,0.041c-0.152,0.073-0.309,0.208-0.471,0.405l-2.784,3.377
		l-0.124-0.038l-0.489-4.446c-0.025-0.228-0.048-0.37-0.07-0.426c-0.034-0.087-0.086-0.162-0.156-0.226
		c-0.07-0.064-0.172-0.124-0.307-0.178l0.038-0.124l1.857,0.575l-0.038,0.124c-0.216-0.045-0.364-0.051-0.442-0.019
		c-0.079,0.032-0.13,0.088-0.155,0.169c-0.035,0.112-0.037,0.302-0.008,0.571l0.331,3.023l1.888-2.299
		c0.185-0.227,0.294-0.39,0.325-0.491c0.02-0.065,0.007-0.137-0.04-0.216c-0.046-0.079-0.143-0.155-0.289-0.228
		c-0.011-0.006-0.028-0.015-0.054-0.028l0.038-0.124L25.091,4.435z"/>
</g>
<g>
	<path d="M16.535,21.21l-0.033,0.125l-1.97-0.524l0.033-0.125l0.163,0.043c0.19,0.051,0.342,0.032,0.458-0.056
		c0.073-0.058,0.147-0.225,0.22-0.501l0.79-2.971c0.062-0.233,0.088-0.391,0.079-0.473c-0.008-0.062-0.041-0.123-0.1-0.183
		c-0.085-0.081-0.182-0.135-0.29-0.164l-0.163-0.043l0.033-0.126l1.97,0.524l-0.033,0.126l-0.166-0.044
		c-0.187-0.05-0.339-0.031-0.454,0.057c-0.076,0.057-0.15,0.224-0.224,0.5l-0.789,2.971c-0.062,0.233-0.088,0.39-0.078,0.473
		c0.008,0.063,0.042,0.124,0.104,0.184c0.083,0.08,0.179,0.134,0.287,0.163L16.535,21.21z"/>
</g>
<g>
	<path d="M6.632,24.686l0.956,2.027l1.127-0.532c0.293-0.138,0.467-0.274,0.524-0.409c0.076-0.178,0.053-0.417-0.07-0.716
		l0.14-0.066l0.842,1.785l-0.14,0.066c-0.153-0.233-0.264-0.376-0.333-0.43c-0.087-0.067-0.194-0.101-0.321-0.103
		s-0.298,0.048-0.512,0.149l-1.127,0.532l0.797,1.691c0.107,0.227,0.182,0.36,0.226,0.4c0.043,0.04,0.097,0.062,0.161,0.067
		s0.167-0.026,0.308-0.092l0.87-0.41c0.29-0.137,0.491-0.256,0.603-0.358c0.112-0.102,0.201-0.241,0.266-0.417
		c0.083-0.23,0.132-0.541,0.147-0.934l0.151-0.071l0.164,1.495l-3.953,1.864l-0.066-0.14l0.181-0.086
		c0.121-0.057,0.222-0.14,0.303-0.25c0.062-0.078,0.088-0.165,0.079-0.259s-0.072-0.266-0.19-0.516l-1.572-3.332
		c-0.153-0.325-0.281-0.51-0.382-0.555c-0.138-0.058-0.313-0.037-0.525,0.063l-0.181,0.086l-0.066-0.14l3.953-1.864l0.587,1.097
		l-0.148,0.07c-0.18-0.245-0.326-0.403-0.438-0.473c-0.112-0.071-0.243-0.103-0.395-0.096c-0.119,0.01-0.305,0.075-0.56,0.195
		L6.632,24.686z"/>
</g>
<g>
	<path d="M13.408,12.605c0.475-0.025,0.895,0.134,1.262,0.476c0.366,0.342,0.564,0.783,0.592,1.322
		c0.029,0.556-0.122,1.026-0.454,1.411c-0.332,0.385-0.746,0.59-1.244,0.616c-0.503,0.026-0.935-0.131-1.297-0.471
		c-0.361-0.34-0.556-0.794-0.586-1.362c-0.03-0.581,0.143-1.065,0.519-1.452C12.527,12.811,12.929,12.63,13.408,12.605z
		 M13.367,12.805c-0.327,0.017-0.583,0.152-0.769,0.405c-0.231,0.315-0.331,0.764-0.3,1.346c0.031,0.597,0.182,1.049,0.454,1.358
		c0.209,0.234,0.474,0.343,0.796,0.327c0.343-0.018,0.62-0.167,0.83-0.446s0.3-0.708,0.27-1.285c-0.033-0.626-0.18-1.086-0.442-1.38
		C13.995,12.895,13.715,12.787,13.367,12.805z"/>
</g>
<g>
	<path d="M27.638,11.073l-0.683,1.206c-0.148,0.261-0.211,0.438-0.19,0.534c0.027,0.133,0.118,0.245,0.275,0.333l0.159,0.09
		l-0.064,0.113l-1.774-1.005l0.064-0.113l0.156,0.088c0.175,0.099,0.332,0.113,0.472,0.042c0.076-0.04,0.181-0.178,0.315-0.414
		l1.516-2.674c0.148-0.261,0.212-0.438,0.193-0.532c-0.029-0.134-0.121-0.246-0.278-0.335l-0.156-0.088l0.064-0.113l1.517,0.86
		c0.371,0.21,0.641,0.414,0.811,0.611c0.171,0.197,0.278,0.428,0.322,0.692s-0.005,0.52-0.145,0.769
		c-0.191,0.338-0.458,0.55-0.801,0.635s-0.718,0.013-1.125-0.218c-0.1-0.057-0.204-0.125-0.312-0.205
		C27.866,11.268,27.754,11.177,27.638,11.073z M27.736,10.899c0.096,0.081,0.183,0.151,0.261,0.208s0.146,0.103,0.205,0.136
		c0.212,0.12,0.441,0.142,0.687,0.065c0.247-0.077,0.444-0.245,0.591-0.506c0.102-0.179,0.159-0.366,0.173-0.561
		s-0.025-0.369-0.116-0.521c-0.091-0.152-0.222-0.277-0.393-0.374c-0.104-0.059-0.248-0.115-0.433-0.169L27.736,10.899z"/>
</g>
<g>
	<path d="M42.743,13.411c0.314,0.431,0.486,0.825,0.515,1.18c0.04,0.494-0.105,0.923-0.434,1.29
		c-0.25,0.278-0.578,0.466-0.983,0.562c-0.405,0.096-0.814,0.065-1.226-0.094c-0.412-0.159-0.934-0.522-1.565-1.088l-2.645-2.376
		l0.137-0.153l0.211,0.189c0.234,0.21,0.469,0.287,0.705,0.23c0.15-0.04,0.366-0.216,0.648-0.53l3.252-3.619
		c0.312-0.347,0.469-0.602,0.471-0.765c0.001-0.218-0.104-0.422-0.316-0.613l-0.211-0.189l0.137-0.153l2.421,2.175
		c0.452,0.406,0.784,0.764,0.998,1.075c0.324,0.47,0.482,0.929,0.473,1.377c-0.009,0.447-0.16,0.835-0.455,1.163
		c-0.252,0.281-0.564,0.456-0.934,0.524C43.573,13.665,43.173,13.603,42.743,13.411z M38.373,13.92
		c0.253,0.361,0.535,0.682,0.846,0.962c0.499,0.448,0.979,0.677,1.443,0.688c0.463,0.011,0.844-0.149,1.141-0.48
		c0.195-0.218,0.324-0.48,0.386-0.788c0.062-0.307,0.012-0.639-0.152-0.995c-0.163-0.356-0.442-0.71-0.836-1.064
		c-0.171-0.153-0.319-0.282-0.445-0.385c-0.126-0.103-0.233-0.182-0.319-0.235L38.373,13.92z M40.778,11.243
		c0.085,0.111,0.188,0.23,0.31,0.357c0.122,0.127,0.262,0.261,0.419,0.402c0.402,0.361,0.743,0.589,1.024,0.685
		c0.28,0.095,0.555,0.101,0.823,0.019c0.269-0.083,0.498-0.23,0.688-0.442c0.294-0.328,0.412-0.727,0.353-1.199
		c-0.059-0.471-0.345-0.937-0.857-1.398c-0.275-0.247-0.551-0.44-0.825-0.577L40.778,11.243z"/>
</g>
</svg>
