<?xml version="1.0" encoding="utf-8"?>
<!-- Generator: Adobe Illustrator 26.0.1, SVG Export Plug-In . SVG Version: 6.00 Build 0)  -->
<svg version="1.1" id="Layer_1" xmlns="http://www.w3.org/2000/svg" xmlns:xlink="http://www.w3.org/1999/xlink" x="0px" y="0px"
	 viewBox="0 0 50 50" style="enable-background:new 0 0 50 50;" xml:space="preserve">
<style type="text/css">
	.st0{fill:url(#SVGID_1_);}
	.st1{fill:#51ABAF;}
	.st2{fill:#4097A0;}
	.st3{fill:#2D8C91;}
	.st4{fill:#F2E6DD;}
	.st5{fill:#E2D1C5;}
	.st6{fill:#65659B;}
	.st7{fill:#F69C9B;}
	.st8{fill:#F48685;}
	.st9{fill:#C64E4E;}
	.st10{fill:#56568C;}
	.st11{fill:#3E3E75;}
	.st12{fill:#8DC0CC;}
</style>
<radialGradient id="SVGID_1_" cx="-53.6418" cy="662.4298" r="15.8937" gradientTransform="matrix(-1.5353 0 0 0.5277 -57.5542 -309.7312)" gradientUnits="userSpaceOnUse">
	<stop  offset="0.4351" style="stop-color:#B4BCC1"/>
	<stop  offset="0.94" style="stop-color:#ECEEEF;stop-opacity:0"/>
</radialGradient>
<ellipse class="st0" cx="24.802" cy="39.833" rx="24.402" ry="8.387"/>
<g>
	<g>
		<g>
			<g>
				<path class="st1" d="M11.635,37.419L23.2,30.715c0.757-0.439,1.375-1.625,1.373-2.635c-0.002-1.01-0.623-1.478-1.38-1.039
					l-11.565,6.704L11.635,37.419z"/>
			</g>
			<g>
				<polygon class="st1" points="25.866,43.757 12.17,35.95 24.167,27.018 38.478,35.513 				"/>
			</g>
			<g>
				<path class="st2" d="M25.87,45.846l11.565-6.704c0.757-0.439,1.375-1.625,1.373-2.635c-0.002-1.01-0.623-1.478-1.38-1.039
					l-11.565,6.704L25.87,45.846z"/>
			</g>
			<g>
				<polygon class="st3" points="11.635,37.42 25.869,45.846 25.863,42.172 11.628,33.745 				"/>
			</g>
			<g>
				<path class="st4" d="M25.868,45.255l11.465-6.646c0.483-0.28,0.877-1.036,0.876-1.68c-0.001-0.645-0.397-0.943-0.88-0.663
					l-11.465,6.62L25.868,45.255z"/>
			</g>
			<g>
				<polygon class="st5" points="11.634,36.828 25.868,45.254 25.864,42.883 11.63,34.456 				"/>
			</g>
		</g>
		<g>
			<g>
				<g>
					<path class="st6" d="M12.601,33.843l11.135-6.447l13.267,7.628l-11.135,6.447L12.601,33.843z M23.766,27.634l-10.752,6.225
						l12.824,7.374l10.752-6.225L23.766,27.634z"/>
				</g>
			</g>
			<g>
				<g>
					<path class="st6" d="M14.183,34.629c0.559-0.361,0.471-0.957-0.221-1.355c-0.472,0.273-0.52,0.246-1.143,0.57L14.183,34.629z"
						/>
				</g>
			</g>
			<g>
				<g>
					<path class="st6" d="M22.717,28.208c0.704,0.405,1.761,0.45,2.381,0.107l-1.288-0.741
						C23.81,27.574,23.315,27.861,22.717,28.208z"/>
				</g>
			</g>
			<g>
				<g>
					<path class="st6" d="M25.866,41.344c0,0,0.531-0.308,1.063-0.616c-0.692-0.398-1.725-0.446-2.348-0.122L25.866,41.344z"/>
				</g>
			</g>
			<g>
				<g>
					<path class="st6" d="M35.682,35.663c0.268-0.156,0.473-0.291,1.093-0.634l-1.288-0.741
						C34.895,34.647,34.978,35.258,35.682,35.663z"/>
				</g>
			</g>
		</g>
	</g>
	<g>
		<g>
			<polygon class="st7" points="12.252,28.998 20.037,24.484 34.07,32.532 26.283,37.046 			"/>
		</g>
		<g>
			<path class="st7" d="M11.214,30.99c0.002,0.763,0.471,1.117,1.043,0.785l7.787-4.514l-0.005-2.777l-7.787,4.514
				C11.68,29.33,11.213,30.226,11.214,30.99z"/>
		</g>
		<g>
			<polygon class="st7" points="26.413,37.046 12.382,28.998 11.56,31.819 25.746,39.881 			"/>
		</g>
		<g>
			<path class="st8" d="M25.245,39.038c0.002,0.763,0.471,1.117,1.043,0.785l7.787-4.514l-0.005-2.777l-7.787,4.514
				C25.711,37.378,25.244,38.274,25.245,39.038z"/>
		</g>
		<g>
			<path class="st4" d="M25.812,38.884c0.001,0.414,0.255,0.606,0.565,0.426l7.697-4.475l-0.003-1.509l-7.697,4.479
				C26.064,37.985,25.811,38.471,25.812,38.884z"/>
		</g>
		<g>
			<g>
				<path class="st9" d="M26.707,35.948c-0.667-0.383-1.675-0.425-2.248-0.093l-0.048,0.028l-10.422-5.992l0.143-0.083
					c0.23-0.134,0.353-0.305,0.355-0.497c0.003-0.231-0.175-0.473-0.486-0.664l-0.136-0.083l5.14-2.98l0.046-0.027l0.047,0.025
					c0.664,0.357,1.651,0.389,2.201,0.07l0.048-0.028l10.422,5.992l-0.143,0.083c-0.231,0.134-0.357,0.314-0.357,0.506
					c0,0.241,0.192,0.489,0.527,0.682l0.143,0.082l-5.185,3.006L26.707,35.948z M31.081,32.206c-0.001-0.22,0.112-0.423,0.319-0.582
					l-10.052-5.78c-0.603,0.318-1.585,0.289-2.29-0.07l-4.826,2.797c0.289,0.214,0.45,0.478,0.447,0.741
					c-0.003,0.215-0.115,0.414-0.318,0.57l10.052,5.78c0.618-0.325,1.64-0.285,2.341,0.093l4.812-2.789
					C31.255,32.75,31.079,32.479,31.081,32.206z"/>
			</g>
		</g>
		<g>
			<g>
				<path class="st9" d="M11.674,31.27c0.001,0.429,0.152,0.721,0.383,0.843l1.021,0.579l0,0c-0.19-0.142-0.308-0.422-0.309-0.805
					c-0.001-0.764,0.466-1.66,1.038-1.992l-1.094-0.618C12.14,29.609,11.673,30.505,11.674,31.27z"/>
			</g>
		</g>
		<g>
			<g>
				<path class="st9" d="M23.504,37.972c0.001,0.429,0.152,0.721,0.383,0.843l1.021,0.579l0,0c-0.19-0.142-0.308-0.422-0.309-0.805
					c-0.001-0.764,0.466-1.66,1.038-1.992l-1.094-0.618C23.971,36.311,23.504,37.207,23.504,37.972z"/>
			</g>
		</g>
	</g>
	<g>
		<g>
			<g>
				<g>
					<path class="st6" d="M22.677,21.32c0.002,0.926-0.565,2.014-1.259,2.416l-8.193,4.749l-0.006-3.369l8.193-4.749
						C22.106,19.965,22.676,20.394,22.677,21.32z"/>
				</g>
				<g>
					<polygon class="st10" points="24.508,35.139 13.225,28.486 13.22,25.117 24.502,31.77 					"/>
				</g>
				<g>
					<polygon class="st6" points="24.502,31.77 13.22,25.117 22.237,20.303 33.509,26.949 					"/>
				</g>
				<g>
					<path class="st11" d="M33.96,27.973c0.002,0.926-0.565,2.014-1.259,2.416l-8.193,4.749l-0.006-3.369l8.193-4.749
						C33.389,26.618,33.958,27.047,33.96,27.973z"/>
				</g>
				<g>
					<polygon class="st5" points="24.507,34.559 13.224,27.906 13.221,25.712 24.503,32.365 					"/>
				</g>
				<g>
					<path class="st4" d="M33.512,28.259c0.001,0.608-0.371,1.322-0.827,1.586l-8.178,4.714l-0.004-2.193l8.178-4.733
						C33.137,27.368,33.51,27.65,33.512,28.259z"/>
				</g>
			</g>
			<g>
				<g>
					<g>
						<path class="st12" d="M31.628,26.8l-9.98-5.738l-7.093,4.09l9.98,5.738L31.628,26.8z M21.649,21.367l9.451,5.434l-6.565,3.784
							l-9.451-5.434L21.649,21.367z"/>
					</g>
				</g>
				<g>
					<g>
						<g>
							<g>
								<path class="st12" d="M15.628,24.694c0.034,0.02,0.071,0.039,0.102,0.061c0.421,0.299,0.42,0.7,0.02,0.932
									c-0.006,0.004-0.014,0.007-0.02,0.01l-0.267-0.154c0.305-0.166,0.316-0.457,0.008-0.676
									c-0.022-0.015-0.047-0.028-0.071-0.042L15.628,24.694z"/>
							</g>
						</g>
					</g>
					<g>
						<g>
							<g>
								<path class="st12" d="M20.888,21.667c0.035,0.02,0.067,0.041,0.106,0.059c0.52,0.242,1.214,0.24,1.614,0.008
									c0.006-0.004,0.011-0.008,0.017-0.012l-0.267-0.154c-0.285,0.176-0.79,0.184-1.17,0.007
									c-0.027-0.013-0.05-0.027-0.074-0.041L20.888,21.667z"/>
							</g>
						</g>
					</g>
				</g>
				<g>
					<g>
						<g>
							<g>
								<path class="st12" d="M25.333,30.273c-0.035-0.02-0.067-0.041-0.106-0.059c-0.52-0.242-1.214-0.24-1.614-0.008
									c-0.006,0.004-0.011,0.008-0.017,0.012l0.267,0.154c0.285-0.176,0.79-0.184,1.17-0.007c0.027,0.013,0.05,0.027,0.074,0.041
									L25.333,30.273z"/>
							</g>
						</g>
					</g>
					<g>
						<g>
							<g>
								<path class="st12" d="M30.593,27.247c-0.034-0.02-0.071-0.039-0.102-0.061c-0.421-0.299-0.42-0.7-0.02-0.932
									c0.006-0.004,0.014-0.007,0.02-0.01l0.267,0.154c-0.305,0.166-0.316,0.457-0.008,0.676c0.022,0.015,0.047,0.028,0.071,0.042
									L30.593,27.247z"/>
							</g>
						</g>
					</g>
				</g>
			</g>
		</g>
		<g>
			<path class="st9" d="M32.1,29.887c0,0,0.694,0.659,0.925,0.792c0.288,0.166,1.154,0.664,1.154,0.664l-0.97-0.038l0.069,0.56
				c0,0-0.865-0.498-1.154-0.664c-0.231-0.133-0.925-0.792-0.925-0.792L32.1,29.887z"/>
		</g>
	</g>
</g>
<g>
	<path d="M11.878,8.411l-1.842-0.003l-0.324,0.75c-0.08,0.185-0.12,0.323-0.12,0.414c0,0.073,0.034,0.136,0.103,0.191
		c0.069,0.055,0.218,0.091,0.447,0.108v0.13L8.644,9.998v-0.13c0.199-0.035,0.328-0.08,0.386-0.136
		c0.12-0.112,0.252-0.34,0.398-0.684l1.681-3.913h0.123l1.649,3.961c0.133,0.318,0.253,0.525,0.362,0.62
		c0.108,0.095,0.26,0.148,0.454,0.16v0.13l-1.877-0.003v-0.13c0.189-0.009,0.317-0.04,0.384-0.094c0.067-0.054,0.1-0.119,0.1-0.196
		c0-0.103-0.046-0.266-0.139-0.488L11.878,8.411z M11.781,8.151l-0.804-1.924l-0.831,1.922L11.781,8.151z"/>
</g>
<g>
	<path d="M23.98,20.24l-0.296-4.396l-1.13,2.972c-0.104,0.273-0.139,0.455-0.106,0.545c0.046,0.123,0.156,0.217,0.331,0.284
		l0.157,0.06l-0.046,0.121l-1.548-0.589l0.046-0.121l0.157,0.06c0.188,0.071,0.343,0.065,0.465-0.018
		c0.075-0.052,0.16-0.202,0.254-0.451l1.105-2.906c0.075-0.197,0.107-0.347,0.097-0.451c-0.006-0.075-0.043-0.149-0.108-0.223
		c-0.066-0.074-0.189-0.145-0.371-0.214l0.046-0.121l1.26,0.479l0.29,4.094l2.911-2.876l1.26,0.479l-0.046,0.121l-0.154-0.059
		c-0.19-0.072-0.346-0.067-0.468,0.017c-0.075,0.052-0.159,0.202-0.254,0.451l-1.105,2.906c-0.104,0.273-0.138,0.456-0.103,0.547
		c0.046,0.123,0.156,0.217,0.331,0.284l0.154,0.059l-0.046,0.121l-1.889-0.718l0.046-0.121l0.157,0.06
		c0.19,0.072,0.345,0.066,0.465-0.018c0.075-0.052,0.16-0.202,0.254-0.451l1.13-2.972l-3.139,3.09L23.98,20.24z"/>
</g>
<g>
	<path d="M25.091,4.435l-0.038,0.124c-0.17-0.021-0.308-0.007-0.413,0.041c-0.152,0.073-0.309,0.208-0.471,0.405l-2.784,3.377
		l-0.124-0.038l-0.489-4.446c-0.025-0.228-0.048-0.37-0.07-0.426c-0.034-0.087-0.086-0.162-0.156-0.226
		c-0.07-0.064-0.172-0.124-0.307-0.178l0.038-0.124l1.857,0.575l-0.038,0.124c-0.216-0.045-0.364-0.051-0.442-0.019
		c-0.079,0.032-0.13,0.088-0.155,0.169c-0.035,0.112-0.037,0.302-0.008,0.571l0.331,3.023l1.888-2.299
		c0.185-0.227,0.294-0.39,0.325-0.491c0.02-0.065,0.007-0.137-0.04-0.216c-0.046-0.079-0.143-0.155-0.289-0.228
		c-0.011-0.006-0.028-0.015-0.054-0.028l0.038-0.124L25.091,4.435z"/>
</g>
<g>
	<path d="M16.535,21.21l-0.033,0.125l-1.97-0.524l0.033-0.125l0.163,0.043c0.19,0.051,0.342,0.032,0.458-0.056
		c0.073-0.058,0.147-0.225,0.22-0.501l0.79-2.971c0.062-0.233,0.088-0.391,0.079-0.473c-0.008-0.062-0.041-0.123-0.1-0.183
		c-0.085-0.081-0.182-0.135-0.29-0.164l-0.163-0.043l0.033-0.126l1.97,0.524l-0.033,0.126l-0.166-0.044
		c-0.187-0.05-0.339-0.031-0.454,0.057c-0.076,0.057-0.15,0.224-0.224,0.5l-0.789,2.971c-0.062,0.233-0.088,0.39-0.078,0.473
		c0.008,0.063,0.042,0.124,0.104,0.184c0.083,0.08,0.179,0.134,0.287,0.163L16.535,21.21z"/>
</g>
<g>
	<path d="M6.632,24.686l0.956,2.027l1.127-0.532c0.293-0.138,0.467-0.274,0.524-0.409c0.076-0.178,0.053-0.417-0.07-0.716
		l0.14-0.066l0.842,1.785l-0.14,0.066c-0.153-0.233-0.264-0.376-0.333-0.43c-0.087-0.067-0.194-0.101-0.321-0.103
		s-0.298,0.048-0.512,0.149l-1.127,0.532l0.797,1.691c0.107,0.227,0.182,0.36,0.226,0.4c0.043,0.04,0.097,0.062,0.161,0.067
		s0.167-0.026,0.308-0.092l0.87-0.41c0.29-0.137,0.491-0.256,0.603-0.358c0.112-0.102,0.201-0.241,0.266-0.417
		c0.083-0.23,0.132-0.541,0.147-0.934l0.151-0.071l0.164,1.495l-3.953,1.864l-0.066-0.14l0.181-0.086
		c0.121-0.057,0.222-0.14,0.303-0.25c0.062-0.078,0.088-0.165,0.079-0.259s-0.072-0.266-0.19-0.516l-1.572-3.332
		c-0.153-0.325-0.281-0.51-0.382-0.555c-0.138-0.058-0.313-0.037-0.525,0.063l-0.181,0.086l-0.066-0.14l3.953-1.864l0.587,1.097
		l-0.148,0.07c-0.18-0.245-0.326-0.403-0.438-0.473c-0.112-0.071-0.243-0.103-0.395-0.096c-0.119,0.01-0.305,0.075-0.56,0.195
		L6.632,24.686z"/>
</g>
<g>
	<path d="M13.408,12.605c0.475-0.025,0.895,0.134,1.262,0.476c0.366,0.342,0.564,0.783,0.592,1.322
		c0.029,0.556-0.122,1.026-0.454,1.411c-0.332,0.385-0.746,0.59-1.244,0.616c-0.503,0.026-0.935-0.131-1.297-0.471
		c-0.361-0.34-0.556-0.794-0.586-1.362c-0.03-0.581,0.143-1.065,0.519-1.452C12.527,12.811,12.929,12.63,13.408,12.605z
		 M13.367,12.805c-0.327,0.017-0.583,0.152-0.769,0.405c-0.231,0.315-0.331,0.764-0.3,1.346c0.031,0.597,0.182,1.049,0.454,1.358
		c0.209,0.234,0.474,0.343,0.796,0.327c0.343-0.018,0.62-0.167,0.83-0.446s0.3-0.708,0.27-1.285c-0.033-0.626-0.18-1.086-0.442-1.38
		C13.995,12.895,13.715,12.787,13.367,12.805z"/>
</g>
<g>
	<path d="M27.638,11.073l-0.683,1.206c-0.148,0.261-0.211,0.438-0.19,0.534c0.027,0.133,0.118,0.245,0.275,0.333l0.159,0.09
		l-0.064,0.113l-1.774-1.005l0.064-0.113l0.156,0.088c0.175,0.099,0.332,0.113,0.472,0.042c0.076-0.04,0.181-0.178,0.315-0.414
		l1.516-2.674c0.148-0.261,0.212-0.438,0.193-0.532c-0.029-0.134-0.121-0.246-0.278-0.335l-0.156-0.088l0.064-0.113l1.517,0.86
		c0.371,0.21,0.641,0.414,0.811,0.611c0.171,0.197,0.278,0.428,0.322,0.692s-0.005,0.52-0.145,0.769
		c-0.191,0.338-0.458,0.55-0.801,0.635s-0.718,0.013-1.125-0.218c-0.1-0.057-0.204-0.125-0.312-0.205
		C27.866,11.268,27.754,11.177,27.638,11.073z M27.736,10.899c0.096,0.081,0.183,0.151,0.261,0.208s0.146,0.103,0.205,0.136
		c0.212,0.12,0.441,0.142,0.687,0.065c0.247-0.077,0.444-0.245,0.591-0.506c0.102-0.179,0.159-0.366,0.173-0.561
		s-0.025-0.369-0.116-0.521c-0.091-0.152-0.222-0.277-0.393-0.374c-0.104-0.059-0.248-0.115-0.433-0.169L27.736,10.899z"/>
</g>
<g>
	<path d="M42.743,13.411c0.314,0.431,0.486,0.825,0.515,1.18c0.04,0.494-0.105,0.923-0.434,1.29
		c-0.25,0.278-0.578,0.466-0.983,0.562c-0.405,0.096-0.814,0.065-1.226-0.094c-0.412-0.159-0.934-0.522-1.565-1.088l-2.645-2.376
		l0.137-0.153l0.211,0.189c0.234,0.21,0.469,0.287,0.705,0.23c0.15-0.04,0.366-0.216,0.648-0.53l3.252-3.619
		c0.312-0.347,0.469-0.602,0.471-0.765c0.001-0.218-0.104-0.422-0.316-0.613l-0.211-0.189l0.137-0.153l2.421,2.175
		c0.452,0.406,0.784,0.764,0.998,1.075c0.324,0.47,0.482,0.929,0.473,1.377c-0.009,0.447-0.16,0.835-0.455,1.163
		c-0.252,0.281-0.564,0.456-0.934,0.524C43.573,13.665,43.173,13.603,42.743,13.411z M38.373,13.92
		c0.253,0.361,0.535,0.682,0.846,0.962c0.499,0.448,0.979,0.677,1.443,0.688c0.463,0.011,0.844-0.149,1.141-0.48
		c0.195-0.218,0.324-0.48,0.386-0.788c0.062-0.307,0.012-0.639-0.152-0.995c-0.163-0.356-0.442-0.71-0.836-1.064
		c-0.171-0.153-0.319-0.282-0.445-0.385c-0.126-0.103-0.233-0.182-0.319-0.235L38.373,13.92z M40.778,11.243
		c0.085,0.111,0.188,0.23,0.31,0.357c0.122,0.127,0.262,0.261,0.419,0.402c0.402,0.361,0.743,0.589,1.024,0.685
		c0.28,0.095,0.555,0.101,0.823,0.019c0.269-0.083,0.498-0.23,0.688-0.442c0.294-0.328,0.412-0.727,0.353-1.199
		c-0.059-0.471-0.345-0.937-0.857-1.398c-0.275-0.247-0.551-0.44-0.825-0.577L40.778,11.243z"/>
</g>
</svg>
