<svg version="1.1" xmlns="http://www.w3.org/2000/svg" xmlns:xlink="http://www.w3.org/1999/xlink" viewBox="0 0 400 400">

	<g ng-click="elaSubjectSelected()" ng-mouseover="showElaPopover=true;" ng-mouseleave="showElaPopover=false;">
		<path class="white-fill" d="M210.336,133.99c10.419,1.617,20.453,5.78,29.019,12.037c1.278,0.934,2.774,1.392,4.263,1.392 c1.863,0,3.714-0.717,5.114-2.118l71.899-71.899c1.413-1.413,2.179-3.349,2.114-5.347c-0.065-1.998-0.954-3.88-2.456-5.198 c-14.829-13.017-31.535-23.478-49.653-31.093c-18.666-7.845-38.424-12.487-58.725-13.797c-0.156-0.01-0.311-0.015-0.466-0.015 c-1.831,0-3.6,0.695-4.944,1.955c-1.458,1.367-2.285,3.276-2.285,5.274v101.664C204.216,130.411,206.814,133.444,210.336,133.99z"/>
		<path class="grey-fill" d="M253.855,74.037c8.133-2.373,16.241-4.828,24.349-7.286c0.874-0.265,1.747-0.663,2.496-1.179
			c1.735-1.195,1.76-3.395,0.047-4.621c-0.736-0.527-1.615-0.919-2.487-1.183c-8.064-2.448-16.138-4.868-24.217-7.267
			c-3.793-1.127-7.652-1.241-11.444-0.142c-8.412,2.439-16.788,5-25.177,7.518c-1.461,0.438-2.698,1.176-3.335,2.657
			c0,0.442,0,0.884,0,1.326c0.386,0.55,0.665,1.254,1.183,1.615c0.798,0.557,1.723,0.999,2.657,1.282
			c8.043,2.442,16.093,4.862,24.156,7.238C245.988,75.148,249.953,75.176,253.855,74.037z"/>
		<path class="grey-fill" d="M281.972,90.819c-0.078-2.613-1.413-4.501-3.794-5.595c-0.391-0.18-0.438-0.396-0.437-0.75
			c0.007-4.198,0.005-8.395,0.005-12.593c0-0.24,0-0.481,0-0.821c-1.181,0.353-2.288,0.705-3.409,1.007
			c-0.431,0.116-0.587,0.289-0.584,0.759c0.025,3.071,0.013,6.142,0.013,9.213c0,0.993,0,1.985,0,2.964
			c-0.118,0.057-0.197,0.098-0.277,0.134c-0.101,0.044-0.208,0.077-0.306,0.126c-2.203,1.11-3.571,2.851-3.649,5.348
			c-0.094,3.024-0.046,3.206-0.009,6.232c0.024,1.977,0.848,3.628,2.475,4.744c0.849,0.582,1.886,0.891,2.837,1.323
			c0.575,0,1.15,0,1.724,0c0.144-0.045,0.286-0.102,0.433-0.135c2.829-0.634,4.932-3.041,4.985-5.855
			C282.036,93.937,282.061,93.799,281.972,90.819z"/>
		<path class="grey-fill" d="M269.222,75.41c0-0.566,0-1.132,0-1.763c-0.258,0.061-0.425,0.092-0.588,0.14
			c-4.523,1.35-9.041,2.721-13.571,4.048c-3.93,1.151-7.941,1.35-11.926,0.474c-2.945-0.647-5.823-1.605-8.724-2.449
			c-2.475-0.72-4.94-1.474-7.549-2.255c0,1.788,0.033,3.462-0.009,5.134c-0.046,1.856,0.728,3.281,2.15,4.399
			c2.39,1.879,5.207,2.778,8.115,3.383c6.804,1.415,13.643,1.451,20.486,0.274c2.996-0.516,5.893-1.354,8.507-2.974
			c2.062-1.278,3.312-3.002,3.119-5.563C269.163,77.314,269.222,76.36,269.222,75.41z"/>
	</g>

	<g ng-click="engineeringSubjectSelected()" ng-mouseover="showEngineeringPopover=true;" ng-mouseleave="showEngineeringPopover=false;">
		<path class="white-fill" d="M253.971,160.643c6.258,8.565,10.42,18.6,12.037,29.019c0.547,3.522,3.58,6.121,7.144,6.121h101.664 c1.998,0,3.907-0.827,5.274-2.285c1.367-1.458,2.069-3.416,1.941-5.41c-1.31-20.3-5.952-40.058-13.797-58.724 c-7.615-18.118-18.076-34.823-31.093-49.653c-1.319-1.502-3.201-2.392-5.198-2.456c-0.078-0.003-0.157-0.004-0.235-0.004 c-1.914,0-3.754,0.759-5.112,2.118l-71.899,71.899C252.176,153.786,251.869,157.766,253.971,160.643z"/>
		<path class="grey-fill" d="M292.452,159.323c0.127-0.722,0.62-0.99,1.289-1.08c0.683-0.092,1.36-0.233,2.043-0.333
			c0.385-0.057,0.611-0.259,0.749-0.618c0.293-0.762,0.598-1.52,0.921-2.271c0.153-0.355,0.127-0.655-0.104-0.966
			c-0.441-0.594-0.871-1.196-1.292-1.804c-0.52-0.753-0.487-1.154,0.146-1.8c0.587-0.599,1.18-1.193,1.779-1.779
			c0.635-0.622,1.044-0.656,1.775-0.142c0.613,0.431,1.22,0.872,1.817,1.324c0.275,0.208,0.538,0.241,0.852,0.104
			c0.776-0.338,1.554-0.675,2.342-0.984c0.369-0.145,0.536-0.382,0.59-0.765c0.102-0.732,0.225-1.461,0.361-2.187
			c0.158-0.845,0.47-1.138,1.334-1.168c0.916-0.032,1.835-0.023,2.752,0.006c0.716,0.023,1.039,0.311,1.177,1.013
			c0.153,0.783,0.281,1.572,0.404,2.36c0.053,0.342,0.236,0.539,0.551,0.662c0.807,0.316,1.612,0.636,2.408,0.976
			c0.357,0.152,0.654,0.12,0.965-0.111c0.577-0.43,1.165-0.847,1.758-1.254c0.76-0.521,1.2-0.48,1.857,0.165
			c0.535,0.526,1.089,1.036,1.582,1.599c0.926,1.056,0.89,1.017,0.17,2.134c-0.358,0.555-0.75,1.088-1.149,1.614
			c-0.232,0.305-0.247,0.59-0.097,0.934c0.339,0.776,0.663,1.559,0.972,2.347c0.131,0.334,0.349,0.493,0.697,0.546
			c0.799,0.122,1.596,0.252,2.389,0.407c0.635,0.124,0.937,0.429,0.959,1.06c0.036,1.034,0.033,2.071-0.001,3.105
			c-0.019,0.58-0.3,0.88-0.875,0.999c-0.82,0.171-1.647,0.307-2.472,0.447c-0.325,0.055-0.541,0.237-0.663,0.526
			c-0.334,0.789-0.661,1.581-0.982,2.375c-0.126,0.311-0.097,0.61,0.108,0.895c0.428,0.591,0.846,1.19,1.263,1.788
			c0.527,0.756,0.496,1.175-0.144,1.826c-0.574,0.584-1.154,1.163-1.737,1.738c-0.647,0.637-1.107,0.672-1.859,0.148
			c-0.591-0.412-1.181-0.824-1.766-1.244c-0.294-0.211-0.604-0.23-0.924-0.1c-0.784,0.32-1.567,0.644-2.346,0.976
			c-0.3,0.128-0.486,0.359-0.544,0.688c-0.122,0.699-0.267,1.394-0.366,2.096c-0.095,0.675-0.382,1.151-1.098,1.274
			c-1.046,0-2.093,0-3.139,0c-0.72-0.119-1.002-0.6-1.096-1.272c-0.095-0.682-0.233-1.359-0.348-2.038
			c-0.063-0.372-0.267-0.628-0.613-0.772c-0.727-0.303-1.454-0.604-2.181-0.906c-0.336-0.139-0.65-0.105-0.95,0.107
			c-0.563,0.398-1.132,0.789-1.697,1.185c-0.887,0.621-1.241,0.596-2.004-0.156c-0.555-0.547-1.106-1.097-1.655-1.65
			c-0.666-0.671-0.696-1.089-0.148-1.868c0.408-0.58,0.811-1.164,1.223-1.742c0.201-0.283,0.236-0.585,0.109-0.896
			c-0.32-0.783-0.649-1.563-0.982-2.341c-0.138-0.323-0.394-0.503-0.742-0.563c-0.67-0.115-1.336-0.249-2.007-0.354
			c-0.683-0.106-1.234-0.352-1.359-1.124C292.452,161.416,292.452,160.37,292.452,159.323z M308.455,170.109
			c5.095,0.006,9.272-4.159,9.282-9.255c0.01-5.074-4.146-9.277-9.185-9.29c-5.208-0.013-9.35,4.106-9.367,9.315
			C299.17,165.93,303.36,170.103,308.455,170.109z"/>
		<path class="grey-fill" d="M324.863,153.248c5.068,1.047,9.441-0.073,13.033-3.799c2.469-2.561,3.671-5.63,3.626-9.186
			c-0.1-7.865-6.84-13.929-14.416-13.193c-4.152,0.403-7.476,2.348-9.849,5.783c-2.371,3.432-2.901,7.212-1.83,11.271
			c-0.62-0.16-1.208-0.311-1.795-0.464c-0.991-0.259-1.98-0.528-2.975-0.774c-0.223-0.055-0.304-0.139-0.303-0.371
			c0.006-1.164-0.03-2.33,0-3.493c0.017-0.649-0.217-1.074-0.783-1.394c-0.927-0.523-1.83-1.089-2.733-1.653
			c-0.95-0.594-1.157-1.247-0.743-2.293c0.468-1.182,0.94-2.361,1.418-3.539c0.428-1.055,1.068-1.392,2.174-1.157
			c1.157,0.246,2.313,0.493,3.467,0.751c0.302,0.068,0.549,0.002,0.755-0.215c0.96-1.008,1.92-2.014,2.871-3.031
			c0.235-0.251,0.302-0.561,0.218-0.909c-0.28-1.159-0.548-2.321-0.824-3.48c-0.24-1.01,0.07-1.654,1.027-2.071
			c1.237-0.54,2.478-1.072,3.721-1.597c0.914-0.385,1.597-0.179,2.146,0.655c0.645,0.98,1.282,1.966,1.902,2.962
			c0.222,0.355,0.489,0.52,0.919,0.505c1.302-0.046,2.604-0.069,3.907-0.084c0.421-0.005,0.705-0.181,0.918-0.532
			c0.563-0.927,1.138-1.847,1.708-2.77c0.067-0.109,0.133-0.22,0.204-0.326c0.552-0.832,1.143-1.045,2.08-0.696
			c0.997,0.372,1.979,0.782,2.967,1.176c0.256,0.102,0.513,0.203,0.767,0.31c1.032,0.437,1.351,1.044,1.12,2.136
			c-0.247,1.166-0.493,2.333-0.753,3.497c-0.068,0.304,0.007,0.545,0.222,0.752c1.042,1.009,2.087,2.016,3.127,3.026
			c0.252,0.244,0.54,0.244,0.853,0.166c1.119-0.278,2.239-0.551,3.359-0.824c0.143-0.035,0.289-0.064,0.436-0.081
			c0.658-0.075,1.193,0.14,1.54,0.716c0.187,0.311,0.335,0.647,0.481,0.98c0.396,0.902,0.782,1.809,1.171,2.714
			c0.07,0.163,0.139,0.327,0.195,0.495c0.288,0.866,0.114,1.46-0.625,1.995c-0.503,0.364-1.031,0.693-1.552,1.032
			c-0.513,0.333-1.026,0.666-1.547,0.985c-0.329,0.201-0.476,0.479-0.47,0.859c0.022,1.352,0.04,2.704,0.058,4.056
			c0.004,0.339,0.17,0.576,0.451,0.747c0.985,0.6,1.97,1.201,2.955,1.802c0.101,0.062,0.202,0.123,0.299,0.192
			c0.716,0.509,0.938,1.084,0.63,1.901c-0.511,1.355-1.05,2.7-1.62,4.03c-0.343,0.801-0.967,1.106-1.83,0.942
			c-1.21-0.229-2.415-0.49-3.619-0.749c-0.364-0.078-0.661,0.007-0.917,0.266c-0.956,0.97-1.908,1.943-2.87,2.908
			c-0.272,0.273-0.295,0.574-0.208,0.925c0.281,1.138,0.551,2.279,0.822,3.42c0.251,1.06-0.045,1.679-1.039,2.116
			c-1.218,0.534-2.441,1.057-3.668,1.571c-0.951,0.398-1.622,0.19-2.193-0.671c-0.655-0.986-1.302-1.977-1.944-2.971
			c-0.225-0.349-0.533-0.507-0.943-0.497c-1.164,0.027-2.328,0.05-3.493,0.073c-0.484,0.009-0.583-0.067-0.719-0.52
			c-0.388-1.293-0.778-2.585-1.165-3.878C324.942,153.607,324.915,153.464,324.863,153.248z"/>
		<path class="grey-fill" d="M328.164,149.381c-4.795-0.019-8.679-3.926-8.652-8.702c0.027-4.845,3.888-8.692,8.704-8.675
			c4.795,0.017,8.666,3.915,8.647,8.708C336.844,145.502,332.933,149.4,328.164,149.381z"/>
	</g>

	<g ng-click="englishSubjectSelected()" ng-mouseover="showEnglishPopover=true;" ng-mouseleave="showEnglishPopover=false;">
		<path class="white-fill" d="M374.822,204.217h-101.67c-3.564,0-6.597,2.598-7.144,6.121c-1.617,10.419-5.78,20.453-12.037,29.019 c-2.102,2.877-1.794,6.857,0.725,9.377l71.899,71.899c1.358,1.358,3.198,2.118,5.112,2.118c0.078,0,0.157-0.001,0.235-0.004 c1.998-0.065,3.88-0.954,5.198-2.456c13.017-14.83,23.478-31.535,31.093-49.653c7.816-18.597,12.453-38.276,13.782-58.497 c0.022-0.228,0.033-0.46,0.033-0.694C382.048,207.454,378.815,204.217,374.822,204.217z"/>
		<path class="grey-fill" d="M336.136,249.094h-4.761v1.343h4.761c0.337,0,0.611-0.301,0.611-0.672
			C336.747,249.396,336.473,249.094,336.136,249.094z"/>
		<path class="grey-fill" d="M336.136,244.519h-4.761v1.343h4.761c0.337,0,0.611-0.302,0.611-0.672
			C336.747,244.821,336.473,244.519,336.136,244.519z"/>
		<path class="grey-fill" d="M342.014,220.192h-24.458v55.16h24.458c4.715,0,8.552-4.22,8.552-9.407V229.6
			C350.566,224.412,346.729,220.192,342.014,220.192z M332.817,267.599h5.4c0.811,0,1.469,0.724,1.469,1.616
			c0,0.893-0.658,1.616-1.469,1.616h-5.4c-2.415,0-4.381-2.162-4.381-4.821v-2.74c0-2.659,1.966-4.822,4.381-4.822h5.4
			c0.811,0,1.469,0.724,1.469,1.616c0,0.893-0.658,1.616-1.469,1.616h-5.4c-0.795,0-1.443,0.713-1.443,1.59v2.74
			C331.375,266.887,332.022,267.599,332.817,267.599z M339.685,249.766c0,2.153-1.593,3.904-3.549,3.904h-5.448
			c-1.241,0-2.251-1.111-2.251-2.477v-7.43c0-1.366,1.011-2.477,2.251-2.477h5.448c1.957,0,3.549,1.751,3.549,3.903
			c0,0.854-0.251,1.645-0.675,2.288C339.434,248.121,339.685,248.912,339.685,249.766z M339.685,235.481
			c0,0.892-0.658,1.616-1.469,1.616c-0.812,0-1.469-0.724-1.469-1.616v-2.114h-5.373v2.114c0,0.892-0.657,1.616-1.469,1.616
			c-0.811,0-1.469-0.724-1.469-1.616v-5.946c0-2.659,1.966-4.821,4.381-4.821h2.487c2.416,0,4.381,2.162,4.381,4.821V235.481z"/>
		<path class="grey-fill" d="M335.305,227.946h-2.488c-0.795,0-1.443,0.712-1.443,1.589v0.6h5.373v-0.6
			C336.747,228.658,336.1,227.946,335.305,227.946z"/>
		<path class="grey-fill" d="M305.809,223.666v48.213c0,1.915,1.417,3.474,3.158,3.474h5.651v-55.16h-5.651
			C307.226,220.192,305.809,221.751,305.809,223.666z"/>
	</g>

	<g ng-click="mathSubjectSelected()" ng-mouseover="showMathPopover=true;" ng-mouseleave="showMathPopover=false;">
		<path class="white-fill" d="M248.732,254.698c-1.4-1.4-3.252-2.118-5.114-2.118c-1.489,0-2.984,0.458-4.263,1.392 c-8.565,6.258-18.6,10.42-29.019,12.037c-3.523,0.547-6.121,3.579-6.121,7.144v101.663c0,1.998,0.827,3.907,2.285,5.274 c1.344,1.26,3.114,1.955,4.944,1.955c0.155,0,0.31-0.005,0.466-0.015c20.3-1.31,40.058-5.952,58.725-13.797 c18.118-7.615,34.823-18.076,49.653-31.093c1.502-1.319,2.392-3.2,2.456-5.198c0.065-1.998-0.7-3.934-2.114-5.347L248.732,254.698z"/>
		<path class="grey-fill" d="M249.307,348.646c-5.382,0-10.765-0.051-16.146,0.017c-4.129,0.052-7.613-2.799-8.325-6.715
			c-0.097-0.535-0.15-1.086-0.15-1.63c-0.009-10.876-0.013-21.752-0.003-32.628c0.004-4.71,3.628-8.314,8.33-8.315
			c10.874-0.003,21.747-0.003,32.621,0c4.093,0.001,7.365,2.665,8.182,6.675c0.119,0.585,0.158,1.195,0.158,1.794
			c0.009,10.821,0.005,21.643,0.006,32.464c0,4.196-2.905,7.642-7.055,8.256c-1.038,0.154-2.112,0.079-3.169,0.08
			C258.94,348.65,254.123,348.646,249.307,348.646z M240.76,335.241c0.167-0.176,0.288-0.309,0.414-0.435
			c0.901-0.904,1.817-1.795,2.702-2.715c0.731-0.759,0.739-1.646,0.07-2.338c-0.713-0.737-1.627-0.748-2.424-0.023
			c-0.189,0.172-0.364,0.358-0.544,0.539c-0.846,0.852-1.692,1.705-2.558,2.578c-1.037-1.035-2.022-2.031-3.022-3.011
			c-0.664-0.651-1.583-0.574-2.326,0.168c-0.73,0.728-0.796,1.608-0.15,2.277c0.621,0.643,1.252,1.276,1.896,1.895
			c0.376,0.362,0.787,0.688,1.212,1.056c-1.15,1.145-2.187,2.146-3.179,3.188c-0.26,0.273-0.478,0.659-0.547,1.024
			c-0.13,0.692,0.37,1.442,1.044,1.756c0.622,0.289,1.285,0.149,1.839-0.404c1.031-1.027,2.058-2.059,3.105-3.108
			c0.161,0.15,0.296,0.269,0.423,0.395c0.84,0.837,1.666,1.687,2.52,2.509c0.799,0.77,1.684,0.729,2.445-0.073
			c0.749-0.79,0.755-1.623-0.022-2.412C242.712,337.147,241.742,336.211,240.76,335.241z M236.602,311.171
			c-1.505,0-2.961-0.006-4.417,0.002c-1.02,0.006-1.654,0.663-1.657,1.695c-0.002,1.002,0.62,1.639,1.628,1.646
			c1.295,0.009,2.591,0.027,3.885-0.006c0.499-0.013,0.614,0.156,0.603,0.626c-0.028,1.221-0.023,2.445,0.008,3.666
			c0.022,0.877,0.507,1.384,1.355,1.515c1.28,0.197,2.088-0.485,2.094-1.782c0.006-1.31,0.001-2.62,0.001-3.977
			c0.261-0.015,0.475-0.036,0.689-0.037c1.186-0.003,2.371,0.008,3.557-0.003c1.198-0.011,1.879-0.624,1.871-1.659
			c-0.008-1.052-0.687-1.669-1.865-1.682c-0.711-0.008-1.423-0.002-2.134-0.002c-0.688,0-1.375,0-2.118,0c0-0.245,0-0.423,0-0.6
			c0-1.186,0.004-2.372-0.003-3.557c-0.006-1.013-0.693-1.637-1.775-1.629c-1.042,0.008-1.685,0.63-1.69,1.649
			c-0.006,1.168,0,2.335-0.002,3.503C236.632,310.735,236.614,310.93,236.602,311.171z M261.173,314.519
			c1.733,0,3.466,0.008,5.199-0.003c1.092-0.007,1.646-0.58,1.642-1.661c-0.004-1.085-0.57-1.677-1.641-1.679
			c-3.448-0.007-6.895-0.007-10.343-0.003c-0.941,0.001-1.516,0.646-1.522,1.682c-0.007,1.035,0.562,1.661,1.521,1.663
			C257.743,314.521,259.458,314.518,261.173,314.519z M260.86,333.736c0-0.001,0-0.003,0-0.004c1.605,0,3.211,0.002,4.816-0.001
			c0.621-0.001,1.15-0.184,1.462-0.774c0.662-1.253-0.086-2.585-1.49-2.592c-3.193-0.017-6.385-0.011-9.578,0
			c-1.017,0.003-1.577,0.654-1.561,1.754c0.015,0.999,0.615,1.614,1.59,1.617C257.685,333.739,259.272,333.736,260.86,333.736z
			 M260.883,337.325c-1.624,0-3.247-0.002-4.871,0.001c-0.945,0.002-1.505,0.632-1.504,1.683c0,1.007,0.572,1.647,1.484,1.647
			c3.229,0.002,6.458,0.002,9.687,0c1.049-0.001,1.653-0.584,1.666-1.6c0.015-1.108-0.565-1.724-1.646-1.728
			C264.094,337.321,262.488,337.326,260.883,337.325z"/>
	</g>

	<g ng-click="scienceSubjectSelected()" ng-mouseover="showSciencePopover=true;" ng-mouseleave="showSciencePopover=false;">
		<path class="white-fill" d="M189.661,266.01c-10.419-1.617-20.454-5.78-29.019-12.037c-1.278-0.934-2.774-1.392-4.263-1.392 c-1.862,0-3.714,0.717-5.114,2.118l-71.899,71.899c-1.413,1.413-2.179,3.349-2.114,5.347s0.954,3.88,2.456,5.198 c14.83,13.017,31.535,23.478,49.653,31.093c18.666,7.845,38.424,12.487,58.725,13.797c0.156,0.01,0.311,0.015,0.466,0.015 c1.831,0,3.6-0.695,4.944-1.955c1.458-1.367,2.285-3.276,2.285-5.274V273.154C195.781,269.589,193.183,266.556,189.661,266.01z"/>
		<path class="grey-fill" d="M137.912,290.274c0.704,0,1.408,0,2.112,0c0.097,0.032,0.192,0.081,0.291,0.095
			c1.933,0.265,3.635,1.037,5.136,2.28c0.287,0.237,0.39,0.482,0.389,0.85c-0.011,5.016-0.005,10.032-0.006,15.048
			c0,10.877-0.003,21.754,0.005,32.631c0,0.331-0.094,0.551-0.349,0.763c-1.138,0.949-2.406,1.648-3.836,2.037
			c-0.538,0.146-1.088,0.25-1.632,0.374c-0.704,0-1.408,0-2.112,0c-0.097-0.033-0.191-0.079-0.29-0.096
			c-4.204-0.718-6.997-3.101-8.263-7.167c-0.344-1.103-0.379-2.303-0.566-3.522c0.065,0.024,0.018,0.003-0.031-0.011
			c-0.085-0.023-0.17-0.043-0.256-0.062c-3.962-0.894-6.542-3.289-7.753-7.157c-0.166-0.53-0.25-1.086-0.372-1.63
			c0-0.704,0-1.408,0-2.112c0.032-0.097,0.081-0.191,0.094-0.29c0.165-1.266,0.564-2.455,1.195-3.56
			c0.284-0.498,0.618-0.967,0.938-1.461c-0.859-1.091-1.501-2.288-1.857-3.625c-0.143-0.536-0.248-1.083-0.37-1.625
			c0-0.704,0-1.408,0-2.112c0.032-0.097,0.078-0.192,0.094-0.291c0.687-4.07,2.968-6.808,6.86-8.188
			c0.521-0.185,1.068-0.293,1.604-0.438c0-0.194,0.002-0.351,0-0.508c-0.069-4.764,3.168-8.904,7.801-9.973
			C137.129,290.431,137.521,290.356,137.912,290.274z"/>
		<path class="grey-fill" d="M174.456,309.919c0,0.669,0,1.338,0,2.007c-0.089,0.444-0.17,0.889-0.27,1.33
			c-0.339,1.498-1.023,2.833-1.975,4.056c0.862,1.112,1.518,2.307,1.871,3.65c0.142,0.539,0.25,1.087,0.374,1.631
			c0,0.704,0,1.408,0,2.112c-0.032,0.097-0.081,0.191-0.095,0.29c-0.568,4.168-3.682,7.558-7.769,8.454
			c-0.232,0.051-0.465,0.1-0.695,0.149c0,0.218-0.002,0.375,0,0.532c0.068,4.589-2.923,8.607-7.345,9.849
			c-0.536,0.151-1.086,0.249-1.63,0.371c-0.704,0-1.408,0-2.112,0c-0.097-0.032-0.191-0.081-0.29-0.095
			c-1.932-0.265-3.634-1.038-5.135-2.28c-0.285-0.236-0.393-0.478-0.392-0.848c0.014-3.695,0.009-7.391,0.009-11.086
			c0-0.185,0-0.371,0-0.582c1.007,0,1.938,0.016,2.868-0.008c0.39-0.01,0.601,0.078,0.79,0.474c1.154,2.424,4.014,3.385,6.394,2.189
			c2.356-1.184,3.318-4.061,2.089-6.394c-0.907-1.722-2.384-2.623-4.331-2.582c-1.927,0.041-3.314,1.017-4.2,2.722
			c-0.085,0.163-0.244,0.405-0.374,0.41c-1.066,0.033-2.133,0.019-3.199,0.019c0-2.497,0-4.931,0-7.394
			c2.484,0,4.928-0.006,7.372,0.016c0.139,0.001,0.327,0.211,0.405,0.367c0.821,1.644,2.133,2.606,3.96,2.765
			c2.388,0.208,4.572-1.462,5.018-3.765c0.466-2.404-0.872-4.731-3.148-5.476c-2.299-0.753-4.766,0.302-5.793,2.506
			c-0.15,0.322-0.303,0.431-0.655,0.429c-2.235-0.016-4.47-0.006-6.705-0.007c-0.152,0-0.305-0.018-0.455-0.028
			c0-2.471,0-4.905,0-7.367c0.952,0,1.866,0.026,2.778-0.011c0.443-0.018,0.664,0.104,0.867,0.524
			c1.157,2.398,4.055,3.339,6.419,2.122c2.338-1.204,3.274-4.122,2.02-6.419c-0.933-1.709-2.412-2.596-4.36-2.534
			c-1.904,0.061-3.273,1.035-4.148,2.721c-0.085,0.164-0.243,0.406-0.374,0.411c-1.066,0.033-2.133,0.019-3.195,0.019
			c-0.021-0.111-0.039-0.161-0.039-0.21c-0.002-3.889-0.006-7.778,0.008-11.667c0.001-0.176,0.126-0.398,0.263-0.52
			c1.301-1.158,2.813-1.909,4.515-2.277c0.34-0.073,0.68-0.144,1.02-0.217c0.704,0,1.408,0,2.112,0
			c0.097,0.032,0.192,0.078,0.291,0.095c4.204,0.718,6.998,3.1,8.262,7.168c0.343,1.104,0.38,2.303,0.567,3.52
			c0.02,0.005,0.154,0.043,0.289,0.074c4.139,0.944,6.745,3.482,7.859,7.566C174.3,309.098,174.369,309.511,174.456,309.919z"/>
		<path class="grey-fill" d="M155.342,306.673c0.042-0.855,0.793-1.541,1.647-1.505c0.858,0.037,1.548,0.778,1.519,1.633
			c-0.029,0.872-0.807,1.583-1.675,1.532C155.98,308.284,155.3,307.527,155.342,306.673z"/>
		<path class="grey-fill" d="M161.155,318.895c-0.855,0.004-1.578-0.707-1.589-1.563c-0.012-0.876,0.726-1.613,1.602-1.602
			c0.856,0.011,1.567,0.733,1.563,1.589C162.727,318.174,162.01,318.891,161.155,318.895z"/>
		<path class="grey-fill" d="M156.914,329.457c-0.857-0.005-1.574-0.723-1.576-1.578c-0.002-0.872,0.748-1.608,1.62-1.59
			c0.854,0.018,1.56,0.75,1.548,1.606C158.494,328.751,157.77,329.462,156.914,329.457z"/>
	</g>

	<g ng-click="socialStudiesSubjectSelected()" ng-mouseover="showSocialStudiesPopover=true;" ng-mouseleave="showSocialStudiesPopover=false;">
		<path class="white-fill" d="M146.026,239.356c-6.258-8.565-10.42-18.599-12.037-29.019c-0.547-3.522-3.58-6.121-7.144-6.121H25.181 c-1.998,0-3.907,0.827-5.274,2.285s-2.069,3.416-1.94,5.41c1.31,20.3,5.952,40.058,13.797,58.725 c7.615,18.117,18.076,34.823,31.093,49.653c1.319,1.502,3.201,2.391,5.198,2.456c0.078,0.003,0.157,0.004,0.235,0.004 c1.914,0,3.754-0.76,5.112-2.118l71.899-71.899C147.82,246.214,148.128,242.234,146.026,239.356z"/>
		<path class="grey-fill" d="M84.817,230.825c0,0.522,0.203,1.013,0.573,1.383c0.433,0.433,1.054,0.64,1.659,0.553
			c1.362-0.195,2.724,0.146,3.835,0.959c1.111,0.813,1.847,2.008,2.073,3.366c0.161,0.967,0.708,1.787,1.538,2.307
			c0.831,0.521,1.806,0.655,2.747,0.378l3.619-1.064c-0.819-6.343-4.506-11.798-9.715-15.021l-5.757,5.757
			C85.021,229.812,84.817,230.303,84.817,230.825L84.817,230.825z"/>
		<path class="grey-fill" d="M84.01,247.502c0.682-0.455,1.119-1.183,1.2-1.998c0.081-0.815-0.205-1.615-0.785-2.195
			c-1.062-1.062-2.791-1.062-3.853,0l-1.059,1.059c-1.564,1.564-3.801,2.281-5.983,1.917c-3.738-0.623-7.585,0.108-10.834,2.057
			l-1.671,1.002c3.098,7.447,10.404,12.718,18.933,12.831l-0.584-4.474c-0.256-1.965,0.042-3.958,0.861-5.762
			C81.056,250.137,82.361,248.602,84.01,247.502L84.01,247.502z"/>
		<path class="grey-fill" d="M100.976,259.859l-4.953-4.953c2.998-3.494,4.859-7.992,5.002-12.912l-2.879,0.847
			c-0.608,0.179-1.233,0.267-1.855,0.267c-1.224,0-2.437-0.341-3.494-1.004c-1.594-0.999-2.686-2.637-2.996-4.492
			c-0.181-1.084-1.212-1.839-2.3-1.683c-1.597,0.228-3.233-0.317-4.374-1.458c-0.974-0.974-1.51-2.268-1.51-3.645
			c0-1.377,0.536-2.671,1.51-3.645l5.027-5.027c-2.442-1.009-5.116-1.567-7.918-1.567c-1.961,0-3.86,0.273-5.66,0.783l0.668,1.066
			c1.199,1.912,1.727,4.205,1.488,6.458c-0.243,2.29-1.275,4.449-2.906,6.08c-1.631,1.631-3.79,2.663-6.08,2.906
			c-0.355,0.038-0.71,0.056-1.065,0.056c-1.9,0-3.782-0.534-5.393-1.544l-1.066-0.668c-0.51,1.8-0.783,3.699-0.783,5.66
			c0,1.666,0.198,3.287,0.57,4.841l1.04-0.624c3.9-2.34,8.519-3.217,13.006-2.469c1.165,0.194,2.36-0.189,3.195-1.024l1.059-1.059
			c1.119-1.119,2.606-1.735,4.189-1.735c1.582,0,3.07,0.616,4.189,1.735c1.26,1.26,1.882,2.999,1.706,4.772
			c-0.176,1.773-1.127,3.357-2.609,4.345c-2.365,1.576-3.605,4.306-3.237,7.124l0.611,4.685c4.013-0.567,7.662-2.284,10.601-4.805
			l2.275,2.275c-4.369,3.83-9.919,5.923-15.799,5.923c-6.417,0-12.443-2.492-16.968-7.017c-4.525-4.525-7.017-10.551-7.017-16.968
			c0-5.88,2.093-11.43,5.924-15.799l2.276,2.276c-1.238,1.443-2.282,3.056-3.091,4.8l1.627,1.021
			c2.753,1.726,6.279,1.327,8.576-0.97c2.297-2.297,2.696-5.823,0.97-8.576l-1.021-1.628c-1.744,0.809-3.357,1.853-4.8,3.091
			l-4.953-4.953c-0.625-0.625-1.638-0.625-2.262,0c-0.625,0.625-0.625,1.638,0,2.262l0.411,0.411
			c-4.432,4.976-6.856,11.331-6.856,18.065c0,7.272,2.825,14.102,7.954,19.23c4.033,4.033,9.118,6.64,14.642,7.571v3.397h-5.866
			c-0.883,0-1.6,0.716-1.6,1.6s0.716,1.6,1.6,1.6h14.931c0.883,0,1.6-0.716,1.6-1.6s-0.716-1.6-1.6-1.6h-5.866v-3.049
			c0.461,0.023,0.924,0.035,1.389,0.035c6.735,0,13.089-2.424,18.065-6.857l0.411,0.411c0.312,0.312,0.722,0.469,1.131,0.469
			s0.819-0.156,1.131-0.469C101.6,261.497,101.6,260.484,100.976,259.859L100.976,259.859z"/>
	</g>

	<g ng-click="specialEducationSubjectSelected()" ng-mouseover="showSpecialEdPopover=true;" ng-mouseleave="showSpecialEdPopover=false;">
		<path class="white-fill" d="M25.181,195.783h101.664c3.565,0,6.597-2.598,7.144-6.121c1.617-10.419,5.78-20.453,12.037-29.019 c2.102-2.877,1.794-6.857-0.725-9.377L73.402,79.368c-1.358-1.358-3.198-2.118-5.112-2.118c-0.078,0-0.157,0.001-0.235,0.004 c-1.998,0.065-3.88,0.954-5.199,2.456c-13.017,14.829-23.478,31.535-31.093,49.653c-7.845,18.666-12.487,38.424-13.797,58.724 c-0.129,1.994,0.574,3.953,1.94,5.41C21.274,194.956,23.183,195.783,25.181,195.783z"/>
		<path class="grey-fill" d="M51.046,136.984h-3.139c-0.868,0-1.57,0.702-1.57,1.57s0.702,1.57,1.57,1.57h3.139
			c0.868,0,1.57-0.702,1.57-1.57S51.914,136.984,51.046,136.984z"/>
		<path class="grey-fill" d="M49.581,131.355c0.613,0.613,1.606,0.613,2.219,0c0.613-0.613,0.613-1.606,0-2.219l-2.219-2.219
			c-0.613-0.613-1.606-0.613-2.219,0c-0.613,0.613-0.613,1.606,0,2.219L49.581,131.355z"/>
		<path class="grey-fill" d="M49.581,145.751l-2.219,2.219c-0.613,0.613-0.613,1.606,0,2.219c0.613,0.613,1.606,0.613,2.219,0l2.219-2.219
			c0.613-0.613,0.613-1.606,0-2.219S50.194,145.138,49.581,145.751z"/>
		<path class="grey-fill" d="M98.342,136.984h-3.139c-0.868,0-1.57,0.702-1.57,1.57s0.702,1.57,1.57,1.57h3.139
			c0.868,0,1.57-0.702,1.57-1.57S99.21,136.984,98.342,136.984z"/>
		<path class="grey-fill" d="M96.668,131.355l2.219-2.219c0.613-0.613,0.613-1.606,0-2.219c-0.613-0.613-1.606-0.613-2.219,0l-2.219,2.219
			c-0.613,0.613-0.613,1.606,0,2.219C95.062,131.968,96.055,131.968,96.668,131.355z"/>
		<path class="grey-fill" d="M96.668,145.751c-0.613-0.613-1.606-0.613-2.219,0s-0.613,1.606,0,2.219l2.219,2.219
			c0.613,0.613,1.606,0.613,2.219,0c0.613-0.613,0.613-1.606,0-2.219L96.668,145.751z"/>
		<path class="grey-fill" d="M84.996,122.256c-4.427-3.599-10.234-4.985-15.916-3.789c-7.085,1.479-12.854,7.335-14.356,14.416
			c-1.277,6.025,0.299,12.074,4.321,16.595c1.626,1.83,2.618,4.038,2.943,6.34h4.858v-14.126c0-0.608,4.602-9.576,4.874-10.119
			c0.533-1.064,2.275-1.064,2.808,0c0.285,0.569,4.874,9.542,4.874,10.119v14.126h4.864c0.336-2.29,1.357-4.534,3.03-6.442
			c3.007-3.429,4.663-7.831,4.663-12.393C91.959,131.286,89.421,125.852,84.996,122.256z"/>
		<path class="grey-fill" d="M69.985,155.819h6.278v-11.647c-1.021,0.338-2.078,0.522-3.139,0.522c-1.061,0-2.118-0.185-3.139-0.522
			V155.819z"/>
		<path class="grey-fill" d="M62.138,160.527c0,2.596,2.112,4.709,4.709,4.709h12.557c2.596,0,4.709-2.112,4.709-4.709v-1.57H62.138
			V160.527z"/>
		<path class="grey-fill" d="M75.718,140.973l-2.594-5.188l-2.594,5.188C72.207,141.659,74.042,141.659,75.718,140.973z"/>
		<path class="grey-fill" d="M69.985,171.619h6.278c2.044,0,3.769-1.421,4.42-3.244H65.566C66.216,170.198,67.942,171.619,69.985,171.619z"/>
	</g>

	<g ng-click="stemSubjectSelected()" ng-mouseover="showStemPopover=true;" ng-mouseleave="showStemPopover=false;">
		<path class="white-fill" d="M188.552,17.953c-0.155,0-0.31,0.005-0.466,0.015c-20.3,1.31-40.058,5.952-58.725,13.797 c-18.118,7.615-34.823,18.076-49.653,31.093c-1.502,1.319-2.392,3.201-2.456,5.198s0.7,3.934,2.114,5.347l71.899,71.899 c1.4,1.4,3.252,2.118,5.114,2.118c1.489,0,2.984-0.458,4.263-1.392c8.565-6.258,18.6-10.42,29.019-12.037 c3.522-0.547,6.121-3.579,6.121-7.144V25.183c0-1.998-0.827-3.907-2.285-5.274C192.152,18.649,190.383,17.953,188.552,17.953z"/>
		<path class="grey-fill" d="M174.489,92.355c-5.535-6.327-11.072-12.653-16.604-18.982c-0.108-0.124-0.243-0.285-0.246-0.431
			c-0.022-0.942-0.011-1.886-0.011-2.823c0.112-0.022,0.161-0.04,0.21-0.04c2.486-0.002,4.971-0.008,7.456,0.007
			c0.176,0.001,0.389,0.122,0.521,0.252c1.206,1.186,2.394,2.391,3.6,3.577c0.205,0.202,0.234,0.352,0.116,0.62
			c-0.663,1.508-0.191,3.159,1.139,4.074c1.318,0.907,3.093,0.738,4.221-0.402c1.116-1.127,1.28-2.873,0.395-4.183
			c-0.904-1.336-2.573-1.828-4.064-1.164c-0.295,0.131-0.453,0.081-0.662-0.13c-1.286-1.302-2.59-2.586-3.873-3.89
			c-0.302-0.307-0.627-0.433-1.055-0.431c-2.399,0.014-4.798,0.008-7.198,0.008c-0.254,0-0.508,0-0.773,0c0-0.853,0-1.653,0-2.486
			c0.205,0,0.375,0,0.545,0c3.521,0,7.042,0.006,10.563-0.009c0.393-0.002,0.594,0.085,0.754,0.482
			c0.584,1.444,2.131,2.256,3.612,1.955c1.589-0.323,2.699-1.631,2.718-3.204c0.02-1.59-1.054-2.939-2.616-3.286
			c-1.524-0.338-3.06,0.44-3.706,1.877c-0.077,0.171-0.148,0.344-0.213,0.495c-3.906,0-7.782,0-11.651,0c0-0.833,0-1.633,0-2.452
			c2.664,0,5.287-0.009,7.909,0.008c0.468,0.003,0.818-0.132,1.145-0.466c1.269-1.294,2.562-2.565,3.836-3.854
			c0.207-0.209,0.368-0.275,0.664-0.14c0.338,0.155,0.719,0.264,1.089,0.293c1.488,0.116,2.846-0.789,3.344-2.185
			c0.51-1.427,0.014-2.966-1.238-3.844c-1.191-0.835-2.797-0.776-3.953,0.147c-1.161,0.926-1.557,2.481-0.952,3.87
			c0.133,0.306,0.097,0.479-0.136,0.707c-1.184,1.16-2.341,2.346-3.53,3.5c-0.173,0.168-0.469,0.291-0.709,0.293
			c-2.347,0.021-4.695,0.013-7.042,0.011c-0.148,0-0.297-0.019-0.445-0.029c0-0.832,0-1.621,0-2.418
			c0.222-0.039,0.424-0.068,0.623-0.111c1.684-0.36,2.822-1.884,2.658-3.556c-0.168-1.707-1.584-2.996-3.328-2.999
			c-4.419-0.007-8.837-0.015-13.256,0.005c-1.364,0.006-2.383,0.673-2.966,1.902c-0.586,1.235-0.412,2.426,0.429,3.496
			c0.633,0.806,1.509,1.17,2.531,1.241c0,0.821,0,1.623,0,2.429c-0.075,0.016-0.123,0.036-0.171,0.036
			c-2.486,0.002-4.971,0.008-7.456-0.011c-0.19-0.001-0.419-0.136-0.562-0.277c-1.183-1.161-2.344-2.343-3.526-3.504
			c-0.227-0.223-0.295-0.394-0.153-0.708c0.153-0.338,0.256-0.721,0.283-1.091c0.109-1.484-0.809-2.843-2.208-3.328
			c-1.417-0.491-2.941-0.001-3.803,1.223c-0.846,1.201-0.798,2.789,0.118,3.953c0.924,1.172,2.479,1.584,3.861,0.982
			c0.328-0.143,0.508-0.101,0.75,0.146c1.244,1.27,2.516,2.513,3.76,3.783c0.337,0.344,0.692,0.507,1.184,0.503
			c2.347-0.02,4.695-0.009,7.042-0.01c0.289,0,0.577,0,0.877,0c0,0.854,0,1.654,0,2.487c-0.186,0-0.339,0-0.492,0
			c-3.556,0-7.111-0.008-10.667,0.011c-0.397,0.002-0.557-0.128-0.705-0.48c-0.619-1.473-2.134-2.262-3.661-1.949
			c-1.562,0.32-2.669,1.665-2.669,3.245c0,1.582,1.097,2.917,2.668,3.244c1.523,0.318,3.04-0.47,3.663-1.945
			c0.149-0.353,0.311-0.482,0.706-0.48c3.556,0.019,7.111,0.011,10.667,0.012c0.166,0,0.331,0.015,0.481,0.022
			c0,0.849,0,1.649,0,2.462c-2.631,0-5.22,0.012-7.809-0.01c-0.541-0.004-0.943,0.147-1.324,0.54
			c-1.237,1.277-2.511,2.518-3.76,3.783c-0.208,0.211-0.369,0.263-0.665,0.138c-0.373-0.158-0.789-0.274-1.192-0.293
			c-1.499-0.071-2.822,0.874-3.273,2.286c-0.45,1.408,0.059,2.903,1.276,3.745c1.222,0.845,2.833,0.771,3.992-0.184
			c1.129-0.931,1.507-2.466,0.908-3.839c-0.134-0.307-0.096-0.479,0.137-0.706c1.184-1.16,2.341-2.346,3.531-3.499
			c0.172-0.167,0.467-0.278,0.71-0.287c0.914-0.034,1.829-0.015,2.744-0.015c1.568,0,3.135,0,4.768,0
			c0,0.865-0.017,1.658,0.007,2.449c0.012,0.388-0.106,0.676-0.363,0.97c-5.542,6.32-11.082,12.643-16.603,18.982
			c-1.388,1.594-1.672,3.427-0.791,5.352c0.871,1.903,2.427,2.901,4.517,2.904c13.187,0.017,26.374,0.008,39.561,0.007
			c2.182,0,3.804-0.966,4.696-2.954C176.278,95.814,175.909,93.979,174.489,92.355z M172.561,74.22
			c0.9,0.009,1.642,0.764,1.636,1.663c-0.006,0.921-0.784,1.674-1.705,1.65c-0.898-0.023-1.628-0.79-1.609-1.69
			C170.903,74.941,171.658,74.211,172.561,74.22z M172.568,63.448c0.901,0.012,1.636,0.766,1.628,1.67
			c-0.008,0.899-0.76,1.643-1.66,1.641c-0.924-0.002-1.674-0.773-1.651-1.699C170.908,64.153,171.656,63.436,172.568,63.448z
			 M172.521,52.673c0.909-0.005,1.659,0.722,1.675,1.625c0.016,0.923-0.742,1.692-1.665,1.687c-0.904-0.004-1.641-0.743-1.647-1.653
			C170.878,53.431,171.62,52.678,172.521,52.673z M129.485,55.985c-0.904,0.015-1.663-0.713-1.683-1.613
			c-0.02-0.932,0.719-1.692,1.649-1.696c0.904-0.004,1.65,0.732,1.659,1.636C131.12,55.212,130.383,55.97,129.485,55.985z
			 M129.47,66.759c-0.898,0.01-1.657-0.729-1.67-1.627c-0.014-0.923,0.743-1.688,1.666-1.685c0.899,0.004,1.645,0.752,1.645,1.652
			C131.111,65.999,130.37,66.748,129.47,66.759z M129.457,77.531c-0.903,0.003-1.651-0.736-1.658-1.639
			c-0.007-0.924,0.756-1.684,1.679-1.671c0.903,0.012,1.637,0.761,1.632,1.666C131.104,76.793,130.365,77.528,129.457,77.531z"/>
	</g>

	<g ng-show="subjectMatter == 'ELA'">
	  <path class="subject-matter-color" d="M253.855,74.037c8.133-2.373,16.241-4.828,24.349-7.286c0.874-0.265,1.747-0.663,2.496-1.179
	    c1.735-1.195,1.76-3.395,0.047-4.621c-0.736-0.527-1.615-0.919-2.487-1.183c-8.064-2.448-16.138-4.868-24.217-7.267
	    c-3.793-1.127-7.652-1.241-11.444-0.142c-8.412,2.439-16.788,5-25.177,7.518c-1.461,0.438-2.698,1.176-3.335,2.657
	    c0,0.442,0,0.884,0,1.326c0.386,0.55,0.665,1.254,1.183,1.615c0.798,0.557,1.723,0.999,2.657,1.282
	    c8.043,2.442,16.093,4.862,24.156,7.238C245.988,75.148,249.953,75.176,253.855,74.037z"/>
	  <path class="subject-matter-color" d="M281.972,90.819c-0.078-2.613-1.413-4.501-3.794-5.595c-0.391-0.18-0.438-0.396-0.437-0.75
	    c0.007-4.198,0.005-8.395,0.005-12.593c0-0.24,0-0.481,0-0.821c-1.181,0.353-2.288,0.705-3.409,1.007
	    c-0.431,0.116-0.587,0.289-0.584,0.759c0.025,3.071,0.013,6.142,0.013,9.213c0,0.993,0,1.985,0,2.964
	    c-0.118,0.057-0.197,0.098-0.277,0.134c-0.101,0.044-0.208,0.077-0.306,0.126c-2.203,1.11-3.571,2.851-3.649,5.348
	    c-0.094,3.024-0.046,3.206-0.009,6.232c0.024,1.977,0.848,3.628,2.475,4.744c0.849,0.582,1.886,0.891,2.837,1.323
	    c0.575,0,1.15,0,1.724,0c0.144-0.045,0.286-0.102,0.433-0.135c2.829-0.634,4.932-3.041,4.985-5.855
	    C282.036,93.937,282.061,93.799,281.972,90.819z"/>
	  <path class="subject-matter-color" d="M269.222,75.41c0-0.566,0-1.132,0-1.763c-0.258,0.061-0.425,0.092-0.588,0.14
	    c-4.523,1.35-9.041,2.721-13.571,4.048c-3.93,1.151-7.941,1.35-11.926,0.474c-2.945-0.647-5.823-1.605-8.724-2.449
	    c-2.475-0.72-4.94-1.474-7.549-2.255c0,1.788,0.033,3.462-0.009,5.134c-0.046,1.856,0.728,3.281,2.15,4.399
	    c2.39,1.879,5.207,2.778,8.115,3.383c6.804,1.415,13.643,1.451,20.486,0.274c2.996-0.516,5.893-1.354,8.507-2.974
	    c2.062-1.278,3.312-3.002,3.119-5.563C269.163,77.314,269.222,76.36,269.222,75.41z"/>
	</g>

	<g ng-show="subjectMatter == 'Engineering'">
	  <path class="subject-matter-color" d="M292.452,159.323c0.127-0.722,0.62-0.99,1.289-1.08c0.683-0.092,1.36-0.233,2.043-0.333
	    c0.385-0.057,0.611-0.259,0.749-0.618c0.293-0.762,0.598-1.52,0.921-2.271c0.153-0.355,0.127-0.655-0.104-0.966
	    c-0.441-0.594-0.871-1.196-1.292-1.804c-0.52-0.753-0.487-1.154,0.146-1.8c0.587-0.599,1.18-1.193,1.779-1.779
	    c0.635-0.622,1.044-0.656,1.775-0.142c0.613,0.431,1.22,0.872,1.817,1.324c0.275,0.208,0.538,0.241,0.852,0.104
	    c0.776-0.338,1.554-0.675,2.342-0.984c0.369-0.145,0.536-0.382,0.59-0.765c0.102-0.732,0.225-1.461,0.361-2.187
	    c0.158-0.845,0.47-1.138,1.334-1.168c0.916-0.032,1.835-0.023,2.752,0.006c0.716,0.023,1.039,0.311,1.177,1.013
	    c0.153,0.783,0.281,1.572,0.404,2.36c0.053,0.342,0.236,0.539,0.551,0.662c0.807,0.316,1.612,0.636,2.408,0.976
	    c0.357,0.152,0.654,0.12,0.965-0.111c0.577-0.43,1.165-0.847,1.758-1.254c0.76-0.521,1.2-0.48,1.857,0.165
	    c0.535,0.526,1.089,1.036,1.582,1.599c0.926,1.056,0.89,1.017,0.17,2.134c-0.358,0.555-0.75,1.088-1.149,1.614
	    c-0.232,0.305-0.247,0.59-0.097,0.934c0.339,0.776,0.663,1.559,0.972,2.347c0.131,0.334,0.349,0.493,0.697,0.546
	    c0.799,0.122,1.596,0.252,2.389,0.407c0.635,0.124,0.937,0.429,0.959,1.06c0.036,1.034,0.033,2.071-0.001,3.105
	    c-0.019,0.58-0.3,0.88-0.875,0.999c-0.82,0.171-1.647,0.307-2.472,0.447c-0.325,0.055-0.541,0.237-0.663,0.526
	    c-0.334,0.789-0.661,1.581-0.982,2.375c-0.126,0.311-0.097,0.61,0.108,0.895c0.428,0.591,0.846,1.19,1.263,1.788
	    c0.527,0.756,0.496,1.175-0.144,1.826c-0.574,0.584-1.154,1.163-1.737,1.738c-0.647,0.637-1.107,0.672-1.859,0.148
	    c-0.591-0.412-1.181-0.824-1.766-1.244c-0.294-0.211-0.604-0.23-0.924-0.1c-0.784,0.32-1.567,0.644-2.346,0.976
	    c-0.3,0.128-0.486,0.359-0.544,0.688c-0.122,0.699-0.267,1.394-0.366,2.096c-0.095,0.675-0.382,1.151-1.098,1.274
	    c-1.046,0-2.093,0-3.139,0c-0.72-0.119-1.002-0.6-1.096-1.272c-0.095-0.682-0.233-1.359-0.348-2.038
	    c-0.063-0.372-0.267-0.628-0.613-0.772c-0.727-0.303-1.454-0.604-2.181-0.906c-0.336-0.139-0.65-0.105-0.95,0.107
	    c-0.563,0.398-1.132,0.789-1.697,1.185c-0.887,0.621-1.241,0.596-2.004-0.156c-0.555-0.547-1.106-1.097-1.655-1.65
	    c-0.666-0.671-0.696-1.089-0.148-1.868c0.408-0.58,0.811-1.164,1.223-1.742c0.201-0.283,0.236-0.585,0.109-0.896
	    c-0.32-0.783-0.649-1.563-0.982-2.341c-0.138-0.323-0.394-0.503-0.742-0.563c-0.67-0.115-1.336-0.249-2.007-0.354
	    c-0.683-0.106-1.234-0.352-1.359-1.124C292.452,161.416,292.452,160.37,292.452,159.323z M308.455,170.109
	    c5.095,0.006,9.272-4.159,9.282-9.255c0.01-5.074-4.146-9.277-9.185-9.29c-5.208-0.013-9.35,4.106-9.367,9.315
	    C299.17,165.93,303.36,170.103,308.455,170.109z"/>
	  <path class="subject-matter-color" d="M324.863,153.248c5.068,1.047,9.441-0.073,13.033-3.799c2.469-2.561,3.671-5.63,3.626-9.186
	    c-0.1-7.865-6.84-13.929-14.416-13.193c-4.152,0.403-7.476,2.348-9.849,5.783c-2.371,3.432-2.901,7.212-1.83,11.271
	    c-0.62-0.16-1.208-0.311-1.795-0.464c-0.991-0.259-1.98-0.528-2.975-0.774c-0.223-0.055-0.304-0.139-0.303-0.371
	    c0.006-1.164-0.03-2.33,0-3.493c0.017-0.649-0.217-1.074-0.783-1.394c-0.927-0.523-1.83-1.089-2.733-1.653
	    c-0.95-0.594-1.157-1.247-0.743-2.293c0.468-1.182,0.94-2.361,1.418-3.539c0.428-1.055,1.068-1.392,2.174-1.157
	    c1.157,0.246,2.313,0.493,3.467,0.751c0.302,0.068,0.549,0.002,0.755-0.215c0.96-1.008,1.92-2.014,2.871-3.031
	    c0.235-0.251,0.302-0.561,0.218-0.909c-0.28-1.159-0.548-2.321-0.824-3.48c-0.24-1.01,0.07-1.654,1.027-2.071
	    c1.237-0.54,2.478-1.072,3.721-1.597c0.914-0.385,1.597-0.179,2.146,0.655c0.645,0.98,1.282,1.966,1.902,2.962
	    c0.222,0.355,0.489,0.52,0.919,0.505c1.302-0.046,2.604-0.069,3.907-0.084c0.421-0.005,0.705-0.181,0.918-0.532
	    c0.563-0.927,1.138-1.847,1.708-2.77c0.067-0.109,0.133-0.22,0.204-0.326c0.552-0.832,1.143-1.045,2.08-0.696
	    c0.997,0.372,1.979,0.782,2.967,1.176c0.256,0.102,0.513,0.203,0.767,0.31c1.032,0.437,1.351,1.044,1.12,2.136
	    c-0.247,1.166-0.493,2.333-0.753,3.497c-0.068,0.304,0.007,0.545,0.222,0.752c1.042,1.009,2.087,2.016,3.127,3.026
	    c0.252,0.244,0.54,0.244,0.853,0.166c1.119-0.278,2.239-0.551,3.359-0.824c0.143-0.035,0.289-0.064,0.436-0.081
	    c0.658-0.075,1.193,0.14,1.54,0.716c0.187,0.311,0.335,0.647,0.481,0.98c0.396,0.902,0.782,1.809,1.171,2.714
	    c0.07,0.163,0.139,0.327,0.195,0.495c0.288,0.866,0.114,1.46-0.625,1.995c-0.503,0.364-1.031,0.693-1.552,1.032
	    c-0.513,0.333-1.026,0.666-1.547,0.985c-0.329,0.201-0.476,0.479-0.47,0.859c0.022,1.352,0.04,2.704,0.058,4.056
	    c0.004,0.339,0.17,0.576,0.451,0.747c0.985,0.6,1.97,1.201,2.955,1.802c0.101,0.062,0.202,0.123,0.299,0.192
	    c0.716,0.509,0.938,1.084,0.63,1.901c-0.511,1.355-1.05,2.7-1.62,4.03c-0.343,0.801-0.967,1.106-1.83,0.942
	    c-1.21-0.229-2.415-0.49-3.619-0.749c-0.364-0.078-0.661,0.007-0.917,0.266c-0.956,0.97-1.908,1.943-2.87,2.908
	    c-0.272,0.273-0.295,0.574-0.208,0.925c0.281,1.138,0.551,2.279,0.822,3.42c0.251,1.06-0.045,1.679-1.039,2.116
	    c-1.218,0.534-2.441,1.057-3.668,1.571c-0.951,0.398-1.622,0.19-2.193-0.671c-0.655-0.986-1.302-1.977-1.944-2.971
	    c-0.225-0.349-0.533-0.507-0.943-0.497c-1.164,0.027-2.328,0.05-3.493,0.073c-0.484,0.009-0.583-0.067-0.719-0.52
	    c-0.388-1.293-0.778-2.585-1.165-3.878C324.942,153.607,324.915,153.464,324.863,153.248z"/>
	  <path class="subject-matter-color" d="M328.164,149.381c-4.795-0.019-8.679-3.926-8.652-8.702c0.027-4.845,3.888-8.692,8.704-8.675
	    c4.795,0.017,8.666,3.915,8.647,8.708C336.844,145.502,332.933,149.4,328.164,149.381z"/>
	</g>

	<g ng-show="subjectMatter == 'English'">
	  <path class="subject-matter-color" d="M336.136,249.094h-4.761v1.343h4.761c0.337,0,0.611-0.301,0.611-0.672
	    C336.747,249.396,336.473,249.094,336.136,249.094z"/>
	  <path class="subject-matter-color" d="M336.136,244.519h-4.761v1.343h4.761c0.337,0,0.611-0.302,0.611-0.672
	    C336.747,244.821,336.473,244.519,336.136,244.519z"/>
	  <path class="subject-matter-color" d="M342.014,220.192h-24.458v55.16h24.458c4.715,0,8.552-4.22,8.552-9.407V229.6
	    C350.566,224.412,346.729,220.192,342.014,220.192z M332.817,267.599h5.4c0.811,0,1.469,0.724,1.469,1.616
	    c0,0.893-0.658,1.616-1.469,1.616h-5.4c-2.415,0-4.381-2.162-4.381-4.821v-2.74c0-2.659,1.966-4.822,4.381-4.822h5.4
	    c0.811,0,1.469,0.724,1.469,1.616c0,0.893-0.658,1.616-1.469,1.616h-5.4c-0.795,0-1.443,0.713-1.443,1.59v2.74
	    C331.375,266.887,332.022,267.599,332.817,267.599z M339.685,249.766c0,2.153-1.593,3.904-3.549,3.904h-5.448
	    c-1.241,0-2.251-1.111-2.251-2.477v-7.43c0-1.366,1.011-2.477,2.251-2.477h5.448c1.957,0,3.549,1.751,3.549,3.903
	    c0,0.854-0.251,1.645-0.675,2.288C339.434,248.121,339.685,248.912,339.685,249.766z M339.685,235.481
	    c0,0.892-0.658,1.616-1.469,1.616c-0.812,0-1.469-0.724-1.469-1.616v-2.114h-5.373v2.114c0,0.892-0.657,1.616-1.469,1.616
	    c-0.811,0-1.469-0.724-1.469-1.616v-5.946c0-2.659,1.966-4.821,4.381-4.821h2.487c2.416,0,4.381,2.162,4.381,4.821V235.481z"/>
	  <path class="subject-matter-color" d="M335.305,227.946h-2.488c-0.795,0-1.443,0.712-1.443,1.589v0.6h5.373v-0.6
	    C336.747,228.658,336.1,227.946,335.305,227.946z"/>
	  <path class="subject-matter-color" d="M305.809,223.666v48.213c0,1.915,1.417,3.474,3.158,3.474h5.651v-55.16h-5.651
	    C307.226,220.192,305.809,221.751,305.809,223.666z"/>
	</g>

	<g ng-show="subjectMatter == 'Math'">
	  <path class="subject-matter-color" d="M249.307,348.646c-5.382,0-10.765-0.051-16.146,0.017c-4.129,0.052-7.613-2.799-8.325-6.715
	    c-0.097-0.535-0.15-1.086-0.15-1.63c-0.009-10.876-0.013-21.752-0.003-32.628c0.004-4.71,3.628-8.314,8.33-8.315
	    c10.874-0.003,21.747-0.003,32.621,0c4.093,0.001,7.365,2.665,8.182,6.675c0.119,0.585,0.158,1.195,0.158,1.794
	    c0.009,10.821,0.005,21.643,0.006,32.464c0,4.196-2.905,7.642-7.055,8.256c-1.038,0.154-2.112,0.079-3.169,0.08
	    C258.94,348.65,254.123,348.646,249.307,348.646z M240.76,335.241c0.167-0.176,0.288-0.309,0.414-0.435
	    c0.901-0.904,1.817-1.795,2.702-2.715c0.731-0.759,0.739-1.646,0.07-2.338c-0.713-0.737-1.627-0.748-2.424-0.023
	    c-0.189,0.172-0.364,0.358-0.544,0.539c-0.846,0.852-1.692,1.705-2.558,2.578c-1.037-1.035-2.022-2.031-3.022-3.011
	    c-0.664-0.651-1.583-0.574-2.326,0.168c-0.73,0.728-0.796,1.608-0.15,2.277c0.621,0.643,1.252,1.276,1.896,1.895
	    c0.376,0.362,0.787,0.688,1.212,1.056c-1.15,1.145-2.187,2.146-3.179,3.188c-0.26,0.273-0.478,0.659-0.547,1.024
	    c-0.13,0.692,0.37,1.442,1.044,1.756c0.622,0.289,1.285,0.149,1.839-0.404c1.031-1.027,2.058-2.059,3.105-3.108
	    c0.161,0.15,0.296,0.269,0.423,0.395c0.84,0.837,1.666,1.687,2.52,2.509c0.799,0.77,1.684,0.729,2.445-0.073
	    c0.749-0.79,0.755-1.623-0.022-2.412C242.712,337.147,241.742,336.211,240.76,335.241z M236.602,311.171
	    c-1.505,0-2.961-0.006-4.417,0.002c-1.02,0.006-1.654,0.663-1.657,1.695c-0.002,1.002,0.62,1.639,1.628,1.646
	    c1.295,0.009,2.591,0.027,3.885-0.006c0.499-0.013,0.614,0.156,0.603,0.626c-0.028,1.221-0.023,2.445,0.008,3.666
	    c0.022,0.877,0.507,1.384,1.355,1.515c1.28,0.197,2.088-0.485,2.094-1.782c0.006-1.31,0.001-2.62,0.001-3.977
	    c0.261-0.015,0.475-0.036,0.689-0.037c1.186-0.003,2.371,0.008,3.557-0.003c1.198-0.011,1.879-0.624,1.871-1.659
	    c-0.008-1.052-0.687-1.669-1.865-1.682c-0.711-0.008-1.423-0.002-2.134-0.002c-0.688,0-1.375,0-2.118,0c0-0.245,0-0.423,0-0.6
	    c0-1.186,0.004-2.372-0.003-3.557c-0.006-1.013-0.693-1.637-1.775-1.629c-1.042,0.008-1.685,0.63-1.69,1.649
	    c-0.006,1.168,0,2.335-0.002,3.503C236.632,310.735,236.614,310.93,236.602,311.171z M261.173,314.519
	    c1.733,0,3.466,0.008,5.199-0.003c1.092-0.007,1.646-0.58,1.642-1.661c-0.004-1.085-0.57-1.677-1.641-1.679
	    c-3.448-0.007-6.895-0.007-10.343-0.003c-0.941,0.001-1.516,0.646-1.522,1.682c-0.007,1.035,0.562,1.661,1.521,1.663
	    C257.743,314.521,259.458,314.518,261.173,314.519z M260.86,333.736c0-0.001,0-0.003,0-0.004c1.605,0,3.211,0.002,4.816-0.001
	    c0.621-0.001,1.15-0.184,1.462-0.774c0.662-1.253-0.086-2.585-1.49-2.592c-3.193-0.017-6.385-0.011-9.578,0
	    c-1.017,0.003-1.577,0.654-1.561,1.754c0.015,0.999,0.615,1.614,1.59,1.617C257.685,333.739,259.272,333.736,260.86,333.736z
	     M260.883,337.325c-1.624,0-3.247-0.002-4.871,0.001c-0.945,0.002-1.505,0.632-1.504,1.683c0,1.007,0.572,1.647,1.484,1.647
	    c3.229,0.002,6.458,0.002,9.687,0c1.049-0.001,1.653-0.584,1.666-1.6c0.015-1.108-0.565-1.724-1.646-1.728
	    C264.094,337.321,262.488,337.326,260.883,337.325z"/>
	</g>

	<g ng-show="subjectMatter == 'Science'">
	  <path class="subject-matter-color" d="M137.912,290.274c0.704,0,1.408,0,2.112,0c0.097,0.032,0.192,0.081,0.291,0.095
	    c1.933,0.265,3.635,1.037,5.136,2.28c0.287,0.237,0.39,0.482,0.389,0.85c-0.011,5.016-0.005,10.032-0.006,15.048
	    c0,10.877-0.003,21.754,0.005,32.631c0,0.331-0.094,0.551-0.349,0.763c-1.138,0.949-2.406,1.648-3.836,2.037
	    c-0.538,0.146-1.088,0.25-1.632,0.374c-0.704,0-1.408,0-2.112,0c-0.097-0.033-0.191-0.079-0.29-0.096
	    c-4.204-0.718-6.997-3.101-8.263-7.167c-0.344-1.103-0.379-2.303-0.566-3.522c0.065,0.024,0.018,0.003-0.031-0.011
	    c-0.085-0.023-0.17-0.043-0.256-0.062c-3.962-0.894-6.542-3.289-7.753-7.157c-0.166-0.53-0.25-1.086-0.372-1.63
	    c0-0.704,0-1.408,0-2.112c0.032-0.097,0.081-0.191,0.094-0.29c0.165-1.266,0.564-2.455,1.195-3.56
	    c0.284-0.498,0.618-0.967,0.938-1.461c-0.859-1.091-1.501-2.288-1.857-3.625c-0.143-0.536-0.248-1.083-0.37-1.625
	    c0-0.704,0-1.408,0-2.112c0.032-0.097,0.078-0.192,0.094-0.291c0.687-4.07,2.968-6.808,6.86-8.188
	    c0.521-0.185,1.068-0.293,1.604-0.438c0-0.194,0.002-0.351,0-0.508c-0.069-4.764,3.168-8.904,7.801-9.973
	    C137.129,290.431,137.521,290.356,137.912,290.274z"/>
	  <path class="subject-matter-color" d="M174.456,309.919c0,0.669,0,1.338,0,2.007c-0.089,0.444-0.17,0.889-0.27,1.33
	    c-0.339,1.498-1.023,2.833-1.975,4.056c0.862,1.112,1.518,2.307,1.871,3.65c0.142,0.539,0.25,1.087,0.374,1.631
	    c0,0.704,0,1.408,0,2.112c-0.032,0.097-0.081,0.191-0.095,0.29c-0.568,4.168-3.682,7.558-7.769,8.454
	    c-0.232,0.051-0.465,0.1-0.695,0.149c0,0.218-0.002,0.375,0,0.532c0.068,4.589-2.923,8.607-7.345,9.849
	    c-0.536,0.151-1.086,0.249-1.63,0.371c-0.704,0-1.408,0-2.112,0c-0.097-0.032-0.191-0.081-0.29-0.095
	    c-1.932-0.265-3.634-1.038-5.135-2.28c-0.285-0.236-0.393-0.478-0.392-0.848c0.014-3.695,0.009-7.391,0.009-11.086
	    c0-0.185,0-0.371,0-0.582c1.007,0,1.938,0.016,2.868-0.008c0.39-0.01,0.601,0.078,0.79,0.474c1.154,2.424,4.014,3.385,6.394,2.189
	    c2.356-1.184,3.318-4.061,2.089-6.394c-0.907-1.722-2.384-2.623-4.331-2.582c-1.927,0.041-3.314,1.017-4.2,2.722
	    c-0.085,0.163-0.244,0.405-0.374,0.41c-1.066,0.033-2.133,0.019-3.199,0.019c0-2.497,0-4.931,0-7.394
	    c2.484,0,4.928-0.006,7.372,0.016c0.139,0.001,0.327,0.211,0.405,0.367c0.821,1.644,2.133,2.606,3.96,2.765
	    c2.388,0.208,4.572-1.462,5.018-3.765c0.466-2.404-0.872-4.731-3.148-5.476c-2.299-0.753-4.766,0.302-5.793,2.506
	    c-0.15,0.322-0.303,0.431-0.655,0.429c-2.235-0.016-4.47-0.006-6.705-0.007c-0.152,0-0.305-0.018-0.455-0.028
	    c0-2.471,0-4.905,0-7.367c0.952,0,1.866,0.026,2.778-0.011c0.443-0.018,0.664,0.104,0.867,0.524
	    c1.157,2.398,4.055,3.339,6.419,2.122c2.338-1.204,3.274-4.122,2.02-6.419c-0.933-1.709-2.412-2.596-4.36-2.534
	    c-1.904,0.061-3.273,1.035-4.148,2.721c-0.085,0.164-0.243,0.406-0.374,0.411c-1.066,0.033-2.133,0.019-3.195,0.019
	    c-0.021-0.111-0.039-0.161-0.039-0.21c-0.002-3.889-0.006-7.778,0.008-11.667c0.001-0.176,0.126-0.398,0.263-0.52
	    c1.301-1.158,2.813-1.909,4.515-2.277c0.34-0.073,0.68-0.144,1.02-0.217c0.704,0,1.408,0,2.112,0
	    c0.097,0.032,0.192,0.078,0.291,0.095c4.204,0.718,6.998,3.1,8.262,7.168c0.343,1.104,0.38,2.303,0.567,3.52
	    c0.02,0.005,0.154,0.043,0.289,0.074c4.139,0.944,6.745,3.482,7.859,7.566C174.3,309.098,174.369,309.511,174.456,309.919z"/>
	  <path class="subject-matter-color" d="M155.342,306.673c0.042-0.855,0.793-1.541,1.647-1.505c0.858,0.037,1.548,0.778,1.519,1.633
	    c-0.029,0.872-0.807,1.583-1.675,1.532C155.98,308.284,155.3,307.527,155.342,306.673z"/>
	  <path class="subject-matter-color" d="M161.155,318.895c-0.855,0.004-1.578-0.707-1.589-1.563c-0.012-0.876,0.726-1.613,1.602-1.602
	    c0.856,0.011,1.567,0.733,1.563,1.589C162.727,318.174,162.01,318.891,161.155,318.895z"/>
	  <path class="subject-matter-color" d="M156.914,329.457c-0.857-0.005-1.574-0.723-1.576-1.578c-0.002-0.872,0.748-1.608,1.62-1.59
	    c0.854,0.018,1.56,0.75,1.548,1.606C158.494,328.751,157.77,329.462,156.914,329.457z"/>
	</g>

	<g ng-show="subjectMatter == 'Social Studies'">
	  <path class="subject-matter-color" d="M84.817,230.825c0,0.522,0.203,1.013,0.573,1.383c0.433,0.433,1.054,0.64,1.659,0.553
	    c1.362-0.195,2.724,0.146,3.835,0.959c1.111,0.813,1.847,2.008,2.073,3.366c0.161,0.967,0.708,1.787,1.538,2.307
	    c0.831,0.521,1.806,0.655,2.747,0.378l3.619-1.064c-0.819-6.343-4.506-11.798-9.715-15.021l-5.757,5.757
	    C85.021,229.812,84.817,230.303,84.817,230.825L84.817,230.825z"/>
	  <path class="subject-matter-color" d="M84.01,247.502c0.682-0.455,1.119-1.183,1.2-1.998c0.081-0.815-0.205-1.615-0.785-2.195
	    c-1.062-1.062-2.791-1.062-3.853,0l-1.059,1.059c-1.564,1.564-3.801,2.281-5.983,1.917c-3.738-0.623-7.585,0.108-10.834,2.057
	    l-1.671,1.002c3.098,7.447,10.404,12.718,18.933,12.831l-0.584-4.474c-0.256-1.965,0.042-3.958,0.861-5.762
	    C81.056,250.137,82.361,248.602,84.01,247.502L84.01,247.502z"/>
	  <path class="subject-matter-color" d="M100.976,259.859l-4.953-4.953c2.998-3.494,4.859-7.992,5.002-12.912l-2.879,0.847
	    c-0.608,0.179-1.233,0.267-1.855,0.267c-1.224,0-2.437-0.341-3.494-1.004c-1.594-0.999-2.686-2.637-2.996-4.492
	    c-0.181-1.084-1.212-1.839-2.3-1.683c-1.597,0.228-3.233-0.317-4.374-1.458c-0.974-0.974-1.51-2.268-1.51-3.645
	    c0-1.377,0.536-2.671,1.51-3.645l5.027-5.027c-2.442-1.009-5.116-1.567-7.918-1.567c-1.961,0-3.86,0.273-5.66,0.783l0.668,1.066
	    c1.199,1.912,1.727,4.205,1.488,6.458c-0.243,2.29-1.275,4.449-2.906,6.08c-1.631,1.631-3.79,2.663-6.08,2.906
	    c-0.355,0.038-0.71,0.056-1.065,0.056c-1.9,0-3.782-0.534-5.393-1.544l-1.066-0.668c-0.51,1.8-0.783,3.699-0.783,5.66
	    c0,1.666,0.198,3.287,0.57,4.841l1.04-0.624c3.9-2.34,8.519-3.217,13.006-2.469c1.165,0.194,2.36-0.189,3.195-1.024l1.059-1.059
	    c1.119-1.119,2.606-1.735,4.189-1.735c1.582,0,3.07,0.616,4.189,1.735c1.26,1.26,1.882,2.999,1.706,4.772
	    c-0.176,1.773-1.127,3.357-2.609,4.345c-2.365,1.576-3.605,4.306-3.237,7.124l0.611,4.685c4.013-0.567,7.662-2.284,10.601-4.805
	    l2.275,2.275c-4.369,3.83-9.919,5.923-15.799,5.923c-6.417,0-12.443-2.492-16.968-7.017c-4.525-4.525-7.017-10.551-7.017-16.968
	    c0-5.88,2.093-11.43,5.924-15.799l2.276,2.276c-1.238,1.443-2.282,3.056-3.091,4.8l1.627,1.021
	    c2.753,1.726,6.279,1.327,8.576-0.97c2.297-2.297,2.696-5.823,0.97-8.576l-1.021-1.628c-1.744,0.809-3.357,1.853-4.8,3.091
	    l-4.953-4.953c-0.625-0.625-1.638-0.625-2.262,0c-0.625,0.625-0.625,1.638,0,2.262l0.411,0.411
	    c-4.432,4.976-6.856,11.331-6.856,18.065c0,7.272,2.825,14.102,7.954,19.23c4.033,4.033,9.118,6.64,14.642,7.571v3.397h-5.866
	    c-0.883,0-1.6,0.716-1.6,1.6s0.716,1.6,1.6,1.6h14.931c0.883,0,1.6-0.716,1.6-1.6s-0.716-1.6-1.6-1.6h-5.866v-3.049
	    c0.461,0.023,0.924,0.035,1.389,0.035c6.735,0,13.089-2.424,18.065-6.857l0.411,0.411c0.312,0.312,0.722,0.469,1.131,0.469
	    s0.819-0.156,1.131-0.469C101.6,261.497,101.6,260.484,100.976,259.859L100.976,259.859z"/>
	</g>

	<g ng-show="subjectMatter == 'Special Education'">
	  <path class="subject-matter-color" d="M51.046,136.984h-3.139c-0.868,0-1.57,0.702-1.57,1.57s0.702,1.57,1.57,1.57h3.139
	    c0.868,0,1.57-0.702,1.57-1.57S51.914,136.984,51.046,136.984z"/>
	  <path class="subject-matter-color" d="M49.581,131.355c0.613,0.613,1.606,0.613,2.219,0c0.613-0.613,0.613-1.606,0-2.219l-2.219-2.219
	    c-0.613-0.613-1.606-0.613-2.219,0c-0.613,0.613-0.613,1.606,0,2.219L49.581,131.355z"/>
	  <path class="subject-matter-color" d="M49.581,145.751l-2.219,2.219c-0.613,0.613-0.613,1.606,0,2.219c0.613,0.613,1.606,0.613,2.219,0l2.219-2.219
	    c0.613-0.613,0.613-1.606,0-2.219S50.194,145.138,49.581,145.751z"/>
	  <path class="subject-matter-color" d="M98.342,136.984h-3.139c-0.868,0-1.57,0.702-1.57,1.57s0.702,1.57,1.57,1.57h3.139
	    c0.868,0,1.57-0.702,1.57-1.57S99.21,136.984,98.342,136.984z"/>
	  <path class="subject-matter-color" d="M96.668,131.355l2.219-2.219c0.613-0.613,0.613-1.606,0-2.219c-0.613-0.613-1.606-0.613-2.219,0l-2.219,2.219
	    c-0.613,0.613-0.613,1.606,0,2.219C95.062,131.968,96.055,131.968,96.668,131.355z"/>
	  <path class="subject-matter-color" d="M96.668,145.751c-0.613-0.613-1.606-0.613-2.219,0s-0.613,1.606,0,2.219l2.219,2.219
	    c0.613,0.613,1.606,0.613,2.219,0c0.613-0.613,0.613-1.606,0-2.219L96.668,145.751z"/>
	  <path class="subject-matter-color" d="M84.996,122.256c-4.427-3.599-10.234-4.985-15.916-3.789c-7.085,1.479-12.854,7.335-14.356,14.416
	    c-1.277,6.025,0.299,12.074,4.321,16.595c1.626,1.83,2.618,4.038,2.943,6.34h4.858v-14.126c0-0.608,4.602-9.576,4.874-10.119
	    c0.533-1.064,2.275-1.064,2.808,0c0.285,0.569,4.874,9.542,4.874,10.119v14.126h4.864c0.336-2.29,1.357-4.534,3.03-6.442
	    c3.007-3.429,4.663-7.831,4.663-12.393C91.959,131.286,89.421,125.852,84.996,122.256z"/>
	  <path class="subject-matter-color" d="M69.985,155.819h6.278v-11.647c-1.021,0.338-2.078,0.522-3.139,0.522c-1.061,0-2.118-0.185-3.139-0.522
	    V155.819z"/>
	  <path class="subject-matter-color" d="M62.138,160.527c0,2.596,2.112,4.709,4.709,4.709h12.557c2.596,0,4.709-2.112,4.709-4.709v-1.57H62.138
	    V160.527z"/>
	  <path class="subject-matter-color" d="M75.718,140.973l-2.594-5.188l-2.594,5.188C72.207,141.659,74.042,141.659,75.718,140.973z"/>
	  <path class="subject-matter-color" d="M69.985,171.619h6.278c2.044,0,3.769-1.421,4.42-3.244H65.566C66.216,170.198,67.942,171.619,69.985,171.619z"/>
	</g>

	<g ng-show="subjectMatter == 'STEM'">
	  <path class="subject-matter-color" d="M174.489,92.355c-5.535-6.327-11.072-12.653-16.604-18.982c-0.108-0.124-0.243-0.285-0.246-0.431
	    c-0.022-0.942-0.011-1.886-0.011-2.823c0.112-0.022,0.161-0.04,0.21-0.04c2.486-0.002,4.971-0.008,7.456,0.007
	    c0.176,0.001,0.389,0.122,0.521,0.252c1.206,1.186,2.394,2.391,3.6,3.577c0.205,0.202,0.234,0.352,0.116,0.62
	    c-0.663,1.508-0.191,3.159,1.139,4.074c1.318,0.907,3.093,0.738,4.221-0.402c1.116-1.127,1.28-2.873,0.395-4.183
	    c-0.904-1.336-2.573-1.828-4.064-1.164c-0.295,0.131-0.453,0.081-0.662-0.13c-1.286-1.302-2.59-2.586-3.873-3.89
	    c-0.302-0.307-0.627-0.433-1.055-0.431c-2.399,0.014-4.798,0.008-7.198,0.008c-0.254,0-0.508,0-0.773,0c0-0.853,0-1.653,0-2.486
	    c0.205,0,0.375,0,0.545,0c3.521,0,7.042,0.006,10.563-0.009c0.393-0.002,0.594,0.085,0.754,0.482
	    c0.584,1.444,2.131,2.256,3.612,1.955c1.589-0.323,2.699-1.631,2.718-3.204c0.02-1.59-1.054-2.939-2.616-3.286
	    c-1.524-0.338-3.06,0.44-3.706,1.877c-0.077,0.171-0.148,0.344-0.213,0.495c-3.906,0-7.782,0-11.651,0c0-0.833,0-1.633,0-2.452
	    c2.664,0,5.287-0.009,7.909,0.008c0.468,0.003,0.818-0.132,1.145-0.466c1.269-1.294,2.562-2.565,3.836-3.854
	    c0.207-0.209,0.368-0.275,0.664-0.14c0.338,0.155,0.719,0.264,1.089,0.293c1.488,0.116,2.846-0.789,3.344-2.185
	    c0.51-1.427,0.014-2.966-1.238-3.844c-1.191-0.835-2.797-0.776-3.953,0.147c-1.161,0.926-1.557,2.481-0.952,3.87
	    c0.133,0.306,0.097,0.479-0.136,0.707c-1.184,1.16-2.341,2.346-3.53,3.5c-0.173,0.168-0.469,0.291-0.709,0.293
	    c-2.347,0.021-4.695,0.013-7.042,0.011c-0.148,0-0.297-0.019-0.445-0.029c0-0.832,0-1.621,0-2.418
	    c0.222-0.039,0.424-0.068,0.623-0.111c1.684-0.36,2.822-1.884,2.658-3.556c-0.168-1.707-1.584-2.996-3.328-2.999
	    c-4.419-0.007-8.837-0.015-13.256,0.005c-1.364,0.006-2.383,0.673-2.966,1.902c-0.586,1.235-0.412,2.426,0.429,3.496
	    c0.633,0.806,1.509,1.17,2.531,1.241c0,0.821,0,1.623,0,2.429c-0.075,0.016-0.123,0.036-0.171,0.036
	    c-2.486,0.002-4.971,0.008-7.456-0.011c-0.19-0.001-0.419-0.136-0.562-0.277c-1.183-1.161-2.344-2.343-3.526-3.504
	    c-0.227-0.223-0.295-0.394-0.153-0.708c0.153-0.338,0.256-0.721,0.283-1.091c0.109-1.484-0.809-2.843-2.208-3.328
	    c-1.417-0.491-2.941-0.001-3.803,1.223c-0.846,1.201-0.798,2.789,0.118,3.953c0.924,1.172,2.479,1.584,3.861,0.982
	    c0.328-0.143,0.508-0.101,0.75,0.146c1.244,1.27,2.516,2.513,3.76,3.783c0.337,0.344,0.692,0.507,1.184,0.503
	    c2.347-0.02,4.695-0.009,7.042-0.01c0.289,0,0.577,0,0.877,0c0,0.854,0,1.654,0,2.487c-0.186,0-0.339,0-0.492,0
	    c-3.556,0-7.111-0.008-10.667,0.011c-0.397,0.002-0.557-0.128-0.705-0.48c-0.619-1.473-2.134-2.262-3.661-1.949
	    c-1.562,0.32-2.669,1.665-2.669,3.245c0,1.582,1.097,2.917,2.668,3.244c1.523,0.318,3.04-0.47,3.663-1.945
	    c0.149-0.353,0.311-0.482,0.706-0.48c3.556,0.019,7.111,0.011,10.667,0.012c0.166,0,0.331,0.015,0.481,0.022
	    c0,0.849,0,1.649,0,2.462c-2.631,0-5.22,0.012-7.809-0.01c-0.541-0.004-0.943,0.147-1.324,0.54
	    c-1.237,1.277-2.511,2.518-3.76,3.783c-0.208,0.211-0.369,0.263-0.665,0.138c-0.373-0.158-0.789-0.274-1.192-0.293
	    c-1.499-0.071-2.822,0.874-3.273,2.286c-0.45,1.408,0.059,2.903,1.276,3.745c1.222,0.845,2.833,0.771,3.992-0.184
	    c1.129-0.931,1.507-2.466,0.908-3.839c-0.134-0.307-0.096-0.479,0.137-0.706c1.184-1.16,2.341-2.346,3.531-3.499
	    c0.172-0.167,0.467-0.278,0.71-0.287c0.914-0.034,1.829-0.015,2.744-0.015c1.568,0,3.135,0,4.768,0
	    c0,0.865-0.017,1.658,0.007,2.449c0.012,0.388-0.106,0.676-0.363,0.97c-5.542,6.32-11.082,12.643-16.603,18.982
	    c-1.388,1.594-1.672,3.427-0.791,5.352c0.871,1.903,2.427,2.901,4.517,2.904c13.187,0.017,26.374,0.008,39.561,0.007
	    c2.182,0,3.804-0.966,4.696-2.954C176.278,95.814,175.909,93.979,174.489,92.355z M172.561,74.22
	    c0.9,0.009,1.642,0.764,1.636,1.663c-0.006,0.921-0.784,1.674-1.705,1.65c-0.898-0.023-1.628-0.79-1.609-1.69
	    C170.903,74.941,171.658,74.211,172.561,74.22z M172.568,63.448c0.901,0.012,1.636,0.766,1.628,1.67
	    c-0.008,0.899-0.76,1.643-1.66,1.641c-0.924-0.002-1.674-0.773-1.651-1.699C170.908,64.153,171.656,63.436,172.568,63.448z
	     M172.521,52.673c0.909-0.005,1.659,0.722,1.675,1.625c0.016,0.923-0.742,1.692-1.665,1.687c-0.904-0.004-1.641-0.743-1.647-1.653
	    C170.878,53.431,171.62,52.678,172.521,52.673z M129.485,55.985c-0.904,0.015-1.663-0.713-1.683-1.613
	    c-0.02-0.932,0.719-1.692,1.649-1.696c0.904-0.004,1.65,0.732,1.659,1.636C131.12,55.212,130.383,55.97,129.485,55.985z
	     M129.47,66.759c-0.898,0.01-1.657-0.729-1.67-1.627c-0.014-0.923,0.743-1.688,1.666-1.685c0.899,0.004,1.645,0.752,1.645,1.652
	    C131.111,65.999,130.37,66.748,129.47,66.759z M129.457,77.531c-0.903,0.003-1.651-0.736-1.658-1.639
	    c-0.007-0.924,0.756-1.684,1.679-1.671c0.903,0.012,1.637,0.761,1.632,1.666C131.104,76.793,130.365,77.528,129.457,77.531z"/>
	</g>

	<path ng-show="subjectSelected" ng-click="subjectSelectedReset()" class="subject-matter-color" d="M200,140.174c-31.28,0-56.637,25.357-56.637,56.637S168.72,253.448,200,253.448s56.637-25.357,56.637-56.637 S231.28,140.174,200,140.174z M220.321,179.665l-20.485,37.211c0,0,0,0.001-0.001,0.001c-0.112,0.204-0.242,0.4-0.383,0.591 c-0.036,0.048-0.073,0.095-0.11,0.141c-0.108,0.136-0.223,0.267-0.345,0.393c-0.043,0.045-0.084,0.091-0.128,0.134 c-0.012,0.011-0.022,0.024-0.034,0.036c-0.148,0.141-0.303,0.269-0.463,0.389c-0.044,0.034-0.092,0.062-0.137,0.094 c-0.143,0.101-0.29,0.195-0.44,0.28c-0.054,0.031-0.108,0.06-0.163,0.089c-0.17,0.089-0.343,0.169-0.52,0.238 c-0.029,0.011-0.057,0.025-0.086,0.036c-0.211,0.078-0.425,0.142-0.643,0.193c-0.046,0.011-0.092,0.018-0.138,0.027 c-0.171,0.035-0.343,0.062-0.516,0.08c-0.066,0.007-0.131,0.014-0.198,0.019c-0.199,0.013-0.398,0.018-0.596,0.01 c-0.019-0.001-0.038,0.002-0.057,0.001c-0.052-0.003-0.103-0.013-0.155-0.017c-0.124-0.01-0.247-0.021-0.37-0.04 c-0.075-0.012-0.149-0.029-0.223-0.043c-0.108-0.021-0.215-0.044-0.321-0.072c-0.07-0.018-0.139-0.04-0.209-0.061 c-0.117-0.036-0.232-0.076-0.347-0.12c-0.057-0.022-0.113-0.043-0.17-0.067c-0.139-0.059-0.276-0.125-0.41-0.196 c-0.025-0.013-0.052-0.023-0.077-0.037c-0.008-0.005-0.016-0.01-0.024-0.015c-0.115-0.064-0.227-0.135-0.338-0.209 c-0.039-0.026-0.081-0.05-0.119-0.076c-0.08-0.056-0.156-0.118-0.233-0.179c-0.065-0.051-0.132-0.099-0.195-0.153 c-0.027-0.023-0.052-0.05-0.079-0.075c-0.107-0.096-0.211-0.193-0.309-0.296l-11.971-12.622c-2.026-2.136-1.936-5.509,0.2-7.535 c2.137-2.024,5.51-1.936,7.535,0.2l6.952,7.331l16.968-30.822c1.42-2.579,4.662-3.518,7.239-2.099 C220.801,173.845,221.74,177.086,220.321,179.665z"/>

	<text x="220" y="25" fill="#505051" font-weight="400" font-family="Roboto,Helvetica,Arial,san-serif" font-size="24px" ng-show="showElaPopover">ELA</text>
	<text x="290" y="105" fill="#505051" font-weight="400" font-family="Roboto,Helvetica,Arial,san-serif" font-size="24px" ng-show="showEngineeringPopover">Engineering</text>
	<text x="310" y="310" fill="#505051" font-weight="400" font-family="Roboto,Helvetica,Arial,san-serif" font-size="24px" ng-show="showEnglishPopover">English</text>
	<text x="230" y="385" fill="#505051" font-weight="400" font-family="Roboto,Helvetica,Arial,san-serif" font-size="24px" ng-show="showMathPopover">Math</text>
	<text x="100" y="390" fill="#505051" font-weight="400" font-family="Roboto,Helvetica,Arial,san-serif" font-size="24px" ng-show="showSciencePopover">Science</text>
	<text x="-60" y="310" fill="#505051" font-weight="400" font-family="Roboto,Helvetica,Arial,san-serif" font-size="24px" ng-show="showSocialStudiesPopover">Social Studies</text>
	<text x="-50" y="200" fill="#505051" font-weight="400" font-family="Roboto,Helvetica,Arial,san-serif" font-size="24px" ng-show="showSpecialEdPopover">Special Education</text>
	<text x="50" y="60" fill="#505051" font-weight="400" font-family="Roboto,Helvetica,Arial,san-serif" font-size="24px" ng-show="showStemPopover">STEM</text>

</svg>
