<svg xmlns="http://www.w3.org/2000/svg" xmlns:xlink="http://www.w3.org/1999/xlink" viewBox="0 0 300 300">

<circle class="offwhite-fill" filter="url(#dropshadow)" cx="150" cy="150" r="150"/>
<path class="offwhite-fill" filter="url(#dropshadow)" d="M149.984,109.767c-22.247,0-40.281,18.035-40.281,40.281s18.035,40.281,40.281,40.281s40.281-18.035,40.281-40.281 S172.232,109.767,149.984,109.767z"/>

	<g title="easy-proficiency" class="refine-filter">
		<path class="filter-option" filter="url(#dropshadow)" d="M142.951,13.768c-1.345-1.227-3.097-1.9-4.904-1.9c-0.215,0-0.43,0.009-0.646,0.029
			c-34.523,3.073-66.505,18.833-90.054,44.378c-23.695,25.703-36.744,59.102-36.744,94.045c0,20.324,4.309,39.926,12.806,58.261
			c0.857,1.848,2.453,3.252,4.399,3.867c0.718,0.227,1.458,0.339,2.196,0.339c1.263,0,2.517-0.328,3.633-0.971l63.585-36.621
			c2.983-1.719,4.347-5.291,3.265-8.554c-1.75-5.278-2.638-10.769-2.638-16.322c0-24.606,17.514-46.017,41.644-50.91
			c3.386-0.687,5.819-3.656,5.819-7.103v-73.19C145.312,17.082,144.455,15.141,142.951,13.768z"/>
		<path class="filter-title" d="M72.472,113.809c-0.018-0.389,0.001-0.781-0.05-1.165c-0.05-0.368,0.065-0.599,0.395-0.763
			c0.114-0.056,0.191-0.071,0.304-0.016c0.42,0.205,0.848,0.395,1.268,0.602c0.179,0.088,0.321,0.076,0.444-0.081
			c0.351-0.449,0.701-0.898,1.053-1.346c0.12-0.153,0.09-0.291-0.025-0.432c-0.233-0.286-0.442-0.593-0.695-0.861
			c-0.251-0.266-0.336-0.521-0.153-0.859c0.06-0.11,0.107-0.174,0.233-0.195c0.475-0.08,0.951-0.162,1.422-0.264
			c0.096-0.021,0.241-0.128,0.246-0.202c0.041-0.615,0.057-1.231,0.074-1.847c0.005-0.173-0.105-0.25-0.269-0.293
			c-0.372-0.097-0.733-0.24-1.11-0.308c-0.35-0.063-0.529-0.225-0.592-0.571c-0.027-0.148-0.018-0.239,0.087-0.345
			c0.319-0.322,0.622-0.66,0.943-0.98c0.149-0.149,0.17-0.294,0.055-0.462c-0.318-0.464-0.636-0.928-0.955-1.391
			c-0.108-0.157-0.247-0.178-0.422-0.112c-0.366,0.138-0.748,0.24-1.101,0.403c-0.306,0.142-0.531,0.115-0.78-0.114
			c-0.133-0.122-0.174-0.221-0.15-0.385c0.064-0.446,0.114-0.895,0.177-1.341c0.024-0.169-0.025-0.288-0.189-0.347
			c-0.551-0.197-1.103-0.391-1.654-0.588c-0.174-0.062-0.292-0.005-0.39,0.145c-0.202,0.308-0.436,0.598-0.615,0.919
			c-0.179,0.32-0.395,0.484-0.78,0.411c-0.13-0.025-0.208-0.049-0.272-0.17c-0.217-0.411-0.452-0.814-0.674-1.224
			c-0.083-0.154-0.195-0.238-0.372-0.188c-0.551,0.154-1.1,0.311-1.65,0.467c-0.195,0.056-0.281,0.179-0.273,0.386
			c0.011,0.284,0.003,0.569,0.003,0.854c-0.018,0-0.036,0-0.053,0c0,0.264-0.014,0.528,0.005,0.791
			c0.011,0.151,0.05,0.314,0.125,0.444c0.268,0.463,0.557,0.914,0.839,1.369c0.137,0.221,0.236,0.247,0.464,0.119
			c0.792-0.446,1.639-0.594,2.532-0.426c2.182,0.412,3.55,2.612,2.82,4.745c-0.767,2.244-3.347,3.158-5.411,1.95
			c-0.22-0.129-0.318-0.111-0.453,0.096c-0.324,0.494-0.646,0.99-0.966,1.487c-0.037,0.057-0.073,0.123-0.081,0.188
			c-0.075,0.55-0.142,1.101-0.215,1.652c-0.023,0.174,0.028,0.301,0.202,0.363c0.558,0.198,1.117,0.397,1.677,0.591
			c0.144,0.05,0.253-0.001,0.339-0.131c0.215-0.325,0.459-0.633,0.651-0.97c0.174-0.305,0.384-0.451,0.749-0.39
			c0.141,0.024,0.223,0.059,0.289,0.182c0.221,0.41,0.456,0.812,0.674,1.224c0.087,0.164,0.208,0.226,0.376,0.179
			c0.571-0.16,1.139-0.326,1.708-0.494C72.42,114.068,72.479,113.962,72.472,113.809z M60.734,105.54h-5.004v3.363h14.01v-3.363
			h-4.939V86.165h-3.648l-5.746,5.476l2.453,2.562l1.84-1.729c0.742-0.737,1.001-1.281,1.001-1.281h0.064
			c0,0-0.032,0.769-0.032,1.537V105.54z M34.752,127.041c0.467-0.176,0.822-0.449,1.062-0.819c0.241-0.37,0.361-0.817,0.361-1.34
			c0-0.907-0.339-1.599-1.017-2.076c-0.678-0.477-1.667-0.715-2.968-0.715h-3.631v10.109h4.103c1.231-0.009,2.16-0.263,2.788-0.76
			c0.627-0.497,0.941-1.242,0.941-2.232c0-0.546-0.141-1.009-0.423-1.389C35.684,127.439,35.279,127.179,34.752,127.041z
			 M30.995,123.965h1.194c0.546,0,0.942,0.094,1.187,0.282c0.245,0.188,0.368,0.496,0.368,0.923c0,0.371-0.113,0.652-0.34,0.843
			c-0.227,0.19-0.606,0.288-1.139,0.292h-1.271V123.965z M33.606,130.023c-0.236,0.201-0.574,0.302-1.014,0.302h-1.597v-2.423h1.708
			c0.838,0.005,1.257,0.428,1.257,1.271C33.96,129.538,33.842,129.821,33.606,130.023z M40.652,124.548
			c-0.75,0-1.398,0.161-1.944,0.483c-0.546,0.322-0.962,0.777-1.246,1.364c-0.285,0.588-0.427,1.266-0.427,2.034v0.194
			c0,1.102,0.356,1.996,1.069,2.684c0.713,0.687,1.645,1.031,2.798,1.031c0.616,0,1.191-0.119,1.725-0.358s0.948-0.559,1.239-0.962
			l-1.069-1.264c-0.417,0.518-0.995,0.778-1.736,0.778c-0.449,0-0.815-0.12-1.097-0.361c-0.282-0.241-0.465-0.572-0.549-0.993h4.652
			v-0.91c0-1.171-0.305-2.084-0.916-2.739C42.54,124.875,41.707,124.548,40.652,124.548z M41.776,127.714h-2.361
			c0.129-0.907,0.537-1.361,1.222-1.361c0.37,0,0.655,0.103,0.854,0.309c0.199,0.206,0.294,0.496,0.285,0.871V127.714z
			 M49.294,125.339c-0.44-0.528-1.051-0.792-1.833-0.792c-0.62,0-1.164,0.159-1.632,0.476c-0.468,0.317-0.826,0.767-1.076,1.35
			c-0.25,0.583-0.375,1.254-0.375,2.013v0.083c0,1.176,0.282,2.114,0.847,2.815c0.565,0.701,1.305,1.052,2.222,1.052
			c0.685,0,1.252-0.247,1.701-0.743v0.236c0,1.065-0.518,1.597-1.555,1.597c-0.713,0-1.287-0.257-1.722-0.771l-0.979,1.375
			c0.273,0.333,0.668,0.604,1.184,0.812c0.516,0.208,1.049,0.312,1.6,0.312c0.768,0,1.444-0.131,2.027-0.392
			c0.583-0.262,1.029-0.637,1.337-1.125c0.308-0.488,0.462-1.064,0.462-1.725v-7.228h-2.124L49.294,125.339z M49.148,130.026
			c-0.232,0.338-0.599,0.507-1.104,0.507c-0.417,0-0.741-0.179-0.972-0.538c-0.232-0.359-0.347-0.846-0.347-1.461
			c0-0.708,0.118-1.249,0.354-1.621c0.236-0.373,0.562-0.559,0.979-0.559c0.5,0,0.863,0.171,1.09,0.514V130.026z M52.598,132.199
			h2.347v-7.512h-2.347V132.199z M53.757,121.611c-0.384,0-0.697,0.107-0.937,0.319c-0.241,0.213-0.361,0.486-0.361,0.819
			c0,0.333,0.12,0.606,0.361,0.819c0.241,0.213,0.553,0.319,0.937,0.319c0.384,0,0.697-0.106,0.937-0.319
			c0.241-0.213,0.361-0.486,0.361-0.819c0-0.333-0.12-0.606-0.361-0.819C54.454,121.718,54.141,121.611,53.757,121.611z
			 M60.4,124.548c-0.912,0-1.627,0.34-2.145,1.021l-0.076-0.882h-2.194v7.512h2.34v-5.305c0.222-0.361,0.562-0.541,1.021-0.541
			c0.403,0,0.68,0.089,0.833,0.267c0.153,0.178,0.229,0.457,0.229,0.837v4.742h2.347v-4.839c-0.014-0.94-0.214-1.643-0.601-2.111
			C61.767,124.782,61.182,124.548,60.4,124.548z M68.064,124.548c-0.912,0-1.627,0.34-2.145,1.021l-0.076-0.882h-2.194v7.512h2.34
			v-5.305c0.222-0.361,0.562-0.541,1.021-0.541c0.403,0,0.68,0.089,0.833,0.267c0.153,0.178,0.229,0.457,0.229,0.837v4.742h2.347
			v-4.839c-0.014-0.94-0.214-1.643-0.601-2.111C69.43,124.782,68.846,124.548,68.064,124.548z M74.741,124.548
			c-0.75,0-1.398,0.161-1.944,0.483c-0.546,0.322-0.962,0.777-1.246,1.364c-0.285,0.588-0.427,1.266-0.427,2.034v0.194
			c0,1.102,0.356,1.996,1.069,2.684c0.713,0.687,1.645,1.031,2.798,1.031c0.616,0,1.191-0.119,1.725-0.358s0.948-0.559,1.239-0.962
			l-1.069-1.264c-0.417,0.518-0.995,0.778-1.736,0.778c-0.449,0-0.815-0.12-1.097-0.361c-0.282-0.241-0.465-0.572-0.548-0.993h4.652
			v-0.91c0-1.171-0.305-2.084-0.916-2.739C76.63,124.875,75.797,124.548,74.741,124.548z M75.866,127.714h-2.361
			c0.129-0.907,0.537-1.361,1.222-1.361c0.37,0,0.655,0.103,0.854,0.309c0.199,0.206,0.294,0.496,0.285,0.871V127.714z
			 M82.676,124.548c-0.704,0-1.252,0.368-1.645,1.104l-0.076-0.965H78.76v7.512h2.34v-4.756c0.208-0.463,0.68-0.694,1.416-0.694
			l0.771,0.056l0.042-2.173C83.143,124.576,82.926,124.548,82.676,124.548z"/>
	</g>

	<g title="intermediate-proficiency" class="refine-filter">
		<path class="filter-option" filter="url(#dropshadow)" d="M253.409,57.251c-22.947-25.369-54.256-41.378-88.16-45.08c-0.264-0.029-0.528-0.043-0.791-0.043
			c-1.781,0-3.51,0.653-4.85,1.852c-1.537,1.375-2.416,3.337-2.416,5.397v73.534c0,3.322,2.263,6.218,5.493,7.029
			c23.156,5.813,39.328,26.53,39.328,50.38c0,5.435-0.847,10.81-2.519,15.974c-1.052,3.252,0.315,6.795,3.282,8.504l63.625,36.644
			c1.116,0.643,2.371,0.971,3.634,0.971c0.742,0,1.486-0.113,2.207-0.343c1.949-0.62,3.545-2.03,4.398-3.885
			c8.375-18.221,12.622-37.69,12.622-57.866C289.261,115.864,276.529,82.811,253.409,57.251z"/>
		<path class="filter-title" d="M199.881,120.199h2.43V110.09h-2.43V120.199z M207.912,112.548c-0.912,0-1.627,0.34-2.145,1.021l-0.076-0.882
			h-2.194v7.512h2.34v-5.305c0.222-0.361,0.562-0.542,1.021-0.542c0.403,0,0.68,0.089,0.833,0.267
			c0.153,0.178,0.229,0.457,0.229,0.837v4.742h2.347v-4.839c-0.014-0.94-0.214-1.643-0.601-2.111
			C209.279,112.782,208.695,112.548,207.912,112.548z M214.083,118.338c-0.102-0.111-0.153-0.308-0.153-0.59v-3.437h1.236v-1.625
			h-1.236v-1.868h-2.34v1.868h-0.958v1.625h0.958v3.728c0,0.773,0.192,1.349,0.576,1.729c0.384,0.38,0.979,0.569,1.784,0.569
			c0.458,0,0.898-0.067,1.319-0.201v-1.673c-0.157,0.028-0.352,0.042-0.583,0.042C214.387,118.505,214.185,118.45,214.083,118.338z
			 M219.116,112.548c-0.75,0-1.398,0.161-1.944,0.483c-0.546,0.322-0.962,0.777-1.246,1.364c-0.285,0.588-0.427,1.266-0.427,2.034
			v0.194c0,1.102,0.356,1.996,1.069,2.683c0.713,0.687,1.645,1.031,2.798,1.031c0.616,0,1.191-0.119,1.725-0.358
			c0.535-0.238,0.948-0.559,1.239-0.962l-1.069-1.264c-0.417,0.518-0.995,0.778-1.736,0.778c-0.449,0-0.815-0.12-1.097-0.361
			c-0.282-0.241-0.465-0.572-0.548-0.993h4.652v-0.91c0-1.171-0.306-2.084-0.916-2.739
			C221.004,112.875,220.171,112.548,219.116,112.548z M220.24,115.714h-2.36c0.129-0.907,0.537-1.361,1.222-1.361
			c0.37,0,0.655,0.103,0.854,0.309c0.199,0.206,0.294,0.496,0.285,0.871V115.714z M225.404,113.652l-0.076-0.965h-2.194v7.512h2.34
			v-4.756c0.208-0.463,0.68-0.694,1.416-0.694l0.771,0.056l0.042-2.173c-0.185-0.056-0.403-0.083-0.653-0.083
			C226.346,112.548,225.798,112.916,225.404,113.652z M236.713,112.548c-0.963,0-1.699,0.377-2.208,1.132
			c-0.333-0.754-0.974-1.132-1.923-1.132c-0.898,0-1.613,0.34-2.145,1.021l-0.076-0.882h-2.194v7.512h2.34v-5.228
			c0.236-0.412,0.579-0.618,1.028-0.618c0.352,0,0.59,0.088,0.715,0.264c0.125,0.176,0.187,0.461,0.187,0.854v4.728h2.347v-5.131
			l-0.007-0.097c0.227-0.412,0.572-0.618,1.035-0.618c0.342,0,0.578,0.088,0.708,0.264c0.13,0.176,0.194,0.456,0.194,0.84v4.742
			h2.347v-4.888C239.018,113.469,238.236,112.548,236.713,112.548z M243.425,112.548c-0.75,0-1.398,0.161-1.944,0.483
			c-0.546,0.322-0.962,0.777-1.246,1.364c-0.285,0.588-0.427,1.266-0.427,2.034v0.194c0,1.102,0.356,1.996,1.069,2.683
			c0.713,0.687,1.645,1.031,2.798,1.031c0.616,0,1.191-0.119,1.725-0.358c0.535-0.238,0.948-0.559,1.239-0.962l-1.069-1.264
			c-0.417,0.518-0.995,0.778-1.736,0.778c-0.449,0-0.815-0.12-1.097-0.361c-0.282-0.241-0.465-0.572-0.549-0.993h4.652v-0.91
			c0-1.171-0.305-2.084-0.916-2.739C245.314,112.875,244.481,112.548,243.425,112.548z M244.55,115.714h-2.361
			c0.129-0.907,0.537-1.361,1.222-1.361c0.37,0,0.655,0.103,0.854,0.309c0.199,0.206,0.294,0.496,0.285,0.871V115.714z
			 M251.749,113.339c-0.458-0.528-1.023-0.792-1.694-0.792c-0.921,0-1.639,0.343-2.152,1.028c-0.514,0.685-0.771,1.622-0.771,2.812
			c0,1.264,0.261,2.238,0.784,2.923c0.523,0.685,1.231,1.028,2.125,1.028c0.74,0,1.352-0.315,1.833-0.944l0.118,0.805h2.104v-10.665
			h-2.347V113.339z M251.749,117.88c-0.222,0.435-0.592,0.653-1.111,0.653c-0.778,0-1.166-0.667-1.166-2l0.007-0.43
			c0.06-1.166,0.451-1.75,1.173-1.75c0.518,0,0.884,0.222,1.097,0.667V117.88z M255.191,120.199h2.347v-7.512h-2.347V120.199z
			 M256.35,109.611c-0.384,0-0.697,0.107-0.937,0.319c-0.241,0.213-0.361,0.486-0.361,0.819c0,0.333,0.12,0.606,0.361,0.819
			c0.241,0.213,0.553,0.319,0.937,0.319c0.384,0,0.697-0.106,0.937-0.319c0.241-0.213,0.361-0.486,0.361-0.819
			c0-0.333-0.12-0.606-0.361-0.819C257.047,109.718,256.734,109.611,256.35,109.611z M264.875,115.172
			c-0.014-0.815-0.299-1.456-0.854-1.923c-0.555-0.467-1.312-0.701-2.27-0.701s-1.746,0.227-2.364,0.68s-0.927,1.043-0.927,1.768
			h2.34c0-0.549,0.278-0.823,0.833-0.823c0.597,0,0.896,0.346,0.896,1.04v0.398h-0.722c-1.148,0-2.023,0.208-2.624,0.625
			c-0.602,0.417-0.902,1.032-0.902,1.847c0,0.648,0.247,1.186,0.743,1.614c0.495,0.428,1.097,0.642,1.805,0.642
			c0.773,0,1.375-0.271,1.805-0.812c0.065,0.296,0.139,0.521,0.222,0.673h2.34v-0.118c-0.204-0.366-0.31-0.893-0.319-1.583V115.172z
			 M262.528,118.061c-0.083,0.157-0.221,0.299-0.413,0.424c-0.192,0.125-0.434,0.187-0.725,0.187c-0.222,0-0.405-0.066-0.549-0.198
			c-0.144-0.132-0.215-0.304-0.215-0.517c0-0.731,0.407-1.097,1.222-1.097h0.68V118.061z M268.692,118.338
			c-0.102-0.111-0.153-0.308-0.153-0.59v-3.437h1.236v-1.625h-1.236v-1.868h-2.34v1.868h-0.958v1.625h0.958v3.728
			c0,0.773,0.192,1.349,0.576,1.729c0.384,0.38,0.979,0.569,1.784,0.569c0.458,0,0.898-0.067,1.319-0.201v-1.673
			c-0.157,0.028-0.352,0.042-0.583,0.042C268.995,118.505,268.794,118.45,268.692,118.338z M277.14,116.269
			c0-1.171-0.305-2.084-0.916-2.739c-0.611-0.655-1.444-0.982-2.499-0.982c-0.75,0-1.398,0.161-1.944,0.483
			c-0.546,0.322-0.962,0.777-1.246,1.364c-0.285,0.588-0.427,1.266-0.427,2.034v0.194c0,1.102,0.356,1.996,1.069,2.683
			c0.713,0.687,1.645,1.031,2.798,1.031c0.615,0,1.191-0.119,1.725-0.358c0.535-0.238,0.948-0.559,1.239-0.962l-1.069-1.264
			c-0.417,0.518-0.995,0.778-1.736,0.778c-0.449,0-0.815-0.12-1.097-0.361c-0.282-0.241-0.465-0.572-0.548-0.993h4.652V116.269z
			 M274.849,115.714h-2.361c0.129-0.907,0.537-1.361,1.222-1.361c0.37,0,0.655,0.103,0.854,0.309
			c0.199,0.206,0.294,0.496,0.285,0.871V115.714z M241.09,102.065c0.348-0.448,0.695-0.896,1.043-1.343
			c0.119-0.153,0.09-0.29-0.024-0.431c-0.231-0.285-0.438-0.592-0.689-0.859c-0.249-0.265-0.333-0.52-0.151-0.857
			c0.059-0.109,0.105-0.173,0.231-0.195c0.471-0.08,0.941-0.162,1.408-0.264c0.095-0.021,0.239-0.127,0.244-0.202
			c0.041-0.613,0.057-1.228,0.073-1.842c0.005-0.173-0.104-0.25-0.266-0.293c-0.368-0.097-0.726-0.239-1.099-0.307
			c-0.346-0.063-0.524-0.225-0.586-0.57c-0.027-0.148-0.018-0.238,0.086-0.344c0.316-0.321,0.616-0.658,0.933-0.978
			c0.148-0.149,0.169-0.293,0.055-0.461c-0.314-0.463-0.63-0.925-0.946-1.388c-0.107-0.156-0.245-0.178-0.418-0.112
			c-0.362,0.137-0.74,0.239-1.09,0.402c-0.303,0.141-0.525,0.114-0.773-0.114c-0.131-0.121-0.172-0.221-0.149-0.384
			c0.063-0.445,0.113-0.893,0.175-1.338c0.023-0.168-0.024-0.287-0.187-0.346c-0.546-0.197-1.092-0.39-1.638-0.587
			c-0.173-0.062-0.289-0.005-0.386,0.145c-0.2,0.307-0.432,0.597-0.609,0.917c-0.177,0.319-0.391,0.482-0.772,0.41
			c-0.129-0.024-0.207-0.049-0.27-0.169c-0.216-0.411-0.448-0.812-0.667-1.221c-0.083-0.154-0.193-0.238-0.369-0.188
			c-0.545,0.153-1.089,0.31-1.634,0.466c-0.193,0.056-0.279,0.178-0.27,0.385c0.011,0.284,0.003,0.568,0.003,0.852
			c-0.018,0-0.035,0-0.053,0c0,0.263-0.014,0.527,0.005,0.789c0.011,0.151,0.05,0.313,0.124,0.443
			c0.266,0.462,0.552,0.912,0.831,1.366c0.136,0.22,0.234,0.247,0.46,0.118c0.784-0.445,1.623-0.593,2.507-0.425
			c2.16,0.41,3.515,2.606,2.793,4.733c-0.76,2.238-3.314,3.151-5.358,1.946c-0.218-0.129-0.314-0.11-0.448,0.095
			c-0.321,0.493-0.64,0.988-0.957,1.483c-0.036,0.057-0.072,0.123-0.081,0.188c-0.074,0.549-0.141,1.099-0.213,1.648
			c-0.023,0.173,0.028,0.301,0.2,0.362c0.553,0.198,1.106,0.396,1.66,0.59c0.143,0.05,0.25-0.001,0.335-0.13
			c0.213-0.324,0.454-0.631,0.645-0.967c0.173-0.305,0.38-0.45,0.742-0.389c0.14,0.023,0.221,0.059,0.286,0.181
			c0.219,0.409,0.452,0.81,0.667,1.221c0.086,0.164,0.206,0.226,0.372,0.179c0.565-0.159,1.128-0.325,1.691-0.493
			c0.146-0.043,0.204-0.149,0.197-0.302c-0.017-0.388,0.001-0.779-0.05-1.162c-0.049-0.367,0.064-0.598,0.391-0.761
			c0.113-0.056,0.189-0.071,0.301-0.016c0.416,0.204,0.84,0.394,1.255,0.6C240.827,102.234,240.968,102.222,241.09,102.065z
			 M221.638,96.578c0,0.639,0.096,1.278,0.224,2.013h14.228v-3.343l-9.913-0.011c0.096-4.664,10.644-5.974,10.644-13.003
			c0-4.281-3.42-6.709-7.416-6.709c-5.434,0-7.512,4.537-7.512,4.537l2.877,1.981c0,0,1.63-2.843,4.283-2.843
			c1.918,0,3.452,1.086,3.452,3.227C232.506,87.313,221.638,88.4,221.638,96.578z"/>
	</g>

	<g title="advanced-proficiency" class="refine-filter">
		<path class="filter-option " filter="url(#dropshadow)" d="M263.781,226.393c-0.427-2.013-1.69-3.749-3.476-4.778l-63.791-36.74c-1.135-0.653-2.388-0.971-3.63-0.971
			c-1.938,0-3.852,0.772-5.262,2.247c-9.936,10.397-23.322,16.123-37.69,16.123c-14.229,0-27.523-5.63-37.433-15.854
			c-1.407-1.451-3.305-2.21-5.226-2.21c-1.244,0-2.496,0.318-3.631,0.971l-63.84,36.768c-1.789,1.03-3.054,2.772-3.478,4.789
			c-0.424,2.017,0.032,4.119,1.255,5.779c12.681,17.22,29.411,31.502,48.384,41.302c19.615,10.132,41.735,15.488,63.968,15.488
			c22.309,0,44.497-5.391,64.163-15.589c19.023-9.865,35.776-24.234,48.446-41.554C263.757,230.504,264.208,228.406,263.781,226.393
			z"/>
		<path class="filter-title" d="M159.345,245.959c0.465,0.116,0.93,0.23,1.399,0.324c0.096,0.019,0.271-0.021,0.306-0.087
			c0.284-0.547,0.546-1.106,0.809-1.664c0.074-0.157,0.005-0.272-0.127-0.376c-0.299-0.237-0.571-0.513-0.886-0.725
			c-0.293-0.197-0.391-0.417-0.31-0.759c0.035-0.147,0.079-0.226,0.218-0.282c0.42-0.168,0.831-0.357,1.251-0.523
			c0.196-0.077,0.273-0.202,0.236-0.402c-0.102-0.552-0.206-1.104-0.311-1.656c-0.035-0.187-0.154-0.262-0.339-0.271
			c-0.388-0.02-0.776-0.078-1.164-0.069c-0.336,0.008-0.529-0.106-0.664-0.416c-0.072-0.164-0.069-0.272,0.018-0.413
			c0.238-0.384,0.463-0.775,0.699-1.16c0.089-0.145,0.093-0.274-0.033-0.394c-0.422-0.4-0.847-0.798-1.269-1.198
			c-0.133-0.127-0.264-0.121-0.413-0.023c-0.308,0.202-0.637,0.375-0.929,0.598c-0.291,0.222-0.553,0.286-0.875,0.066
			c-0.109-0.074-0.17-0.128-0.18-0.264c-0.033-0.464-0.084-0.927-0.121-1.391c-0.014-0.175-0.081-0.296-0.263-0.321
			c-0.563-0.079-1.126-0.153-1.689-0.229c-0.2-0.027-0.328,0.052-0.403,0.245c-0.104,0.265-0.226,0.523-0.34,0.784
			c-0.016-0.007-0.032-0.014-0.048-0.021c-0.106,0.242-0.225,0.479-0.313,0.727c-0.05,0.143-0.081,0.308-0.064,0.457
			c0.058,0.532,0.14,1.06,0.214,1.59c0.036,0.257,0.115,0.321,0.375,0.294c0.9-0.094,1.73,0.108,2.474,0.618
			c1.82,1.246,2.181,3.809,0.661,5.474c-1.599,1.752-4.314,1.563-5.706-0.367c-0.149-0.206-0.244-0.228-0.45-0.093
			c-0.493,0.324-0.985,0.651-1.476,0.979c-0.056,0.038-0.115,0.084-0.15,0.14c-0.289,0.474-0.572,0.953-0.859,1.429
			c-0.091,0.15-0.096,0.288,0.038,0.413c0.429,0.404,0.857,0.809,1.288,1.21c0.111,0.103,0.23,0.1,0.36,0.015
			c0.326-0.212,0.672-0.398,0.982-0.63c0.281-0.21,0.53-0.261,0.838-0.059c0.119,0.078,0.179,0.143,0.19,0.281
			c0.036,0.464,0.089,0.927,0.121,1.391c0.013,0.185,0.098,0.29,0.27,0.314c0.583,0.081,1.168,0.155,1.752,0.228
			c0.151,0.019,0.248-0.055,0.303-0.198c0.14-0.363,0.315-0.716,0.422-1.088c0.103-0.358,0.299-0.524,0.666-0.542
			c0.126-0.006,0.203,0.011,0.283,0.106c0.3,0.355,0.613,0.7,0.912,1.057c0.127,0.152,0.261,0.198,0.437,0.102
			c0.5-0.272,0.999-0.544,1.499-0.815c0.171-0.092,0.199-0.23,0.151-0.406c-0.097-0.355-0.164-0.721-0.287-1.066
			c-0.122-0.344-0.096-0.612,0.206-0.849C159.152,245.968,159.221,245.928,159.345,245.959z M144.212,241.05
			c-3.014,0-5.226-2.308-5.226-2.308l-2.052,2.949c0,0,2.725,3.046,7.535,3.046c5.194,0,8.112-3.591,8.112-7.47
			c0-3.911-2.95-5.963-5.867-6.412l5.354-6.348v-2.918h-14.364v6.059h3.591v-2.693h5.002c0.545,0,1.282-0.096,1.282-0.096v0.064
			c0,0-0.545,0.449-0.962,0.93l-4.937,6.027l0.93,2.02c0.256,0,0.737-0.064,1.25-0.064c2.597,0,4.457,1.347,4.457,3.591
			C148.316,239.511,146.584,241.05,144.212,241.05z M124.198,256.887l-3.708,10.109h2.604l0.583-1.889h3.34l0.59,1.889h2.617
			l-3.735-10.109H124.198z M124.261,263.226l1.083-3.506l1.09,3.506H124.261z M134.819,260.137
			c-0.458-0.528-1.023-0.792-1.694-0.792c-0.921,0-1.638,0.343-2.152,1.028c-0.514,0.685-0.771,1.622-0.771,2.812
			c0,1.264,0.261,2.238,0.785,2.923c0.523,0.685,1.231,1.028,2.125,1.028c0.74,0,1.352-0.315,1.833-0.944l0.118,0.805h2.104v-10.665
			h-2.347V260.137z M134.819,264.677c-0.222,0.435-0.593,0.653-1.111,0.653c-0.778,0-1.166-0.667-1.166-2l0.007-0.43
			c0.06-1.166,0.451-1.75,1.173-1.75c0.518,0,0.884,0.222,1.097,0.667V264.677z M142.323,259.484l-1.187,4.728l-1.166-4.728h-2.472
			l2.451,7.512h2.388l2.451-7.512H142.323z M151.278,261.97c-0.014-0.815-0.299-1.456-0.854-1.923
			c-0.555-0.467-1.312-0.701-2.27-0.701s-1.746,0.227-2.364,0.68c-0.618,0.453-0.927,1.043-0.927,1.768h2.34
			c0-0.549,0.278-0.823,0.833-0.823c0.597,0,0.896,0.347,0.896,1.04v0.398h-0.722c-1.148,0-2.023,0.208-2.624,0.625
			c-0.602,0.417-0.903,1.032-0.903,1.847c0,0.648,0.248,1.186,0.743,1.614c0.495,0.428,1.097,0.642,1.805,0.642
			c0.773,0,1.375-0.271,1.805-0.812c0.065,0.296,0.139,0.521,0.222,0.674h2.34v-0.118c-0.204-0.366-0.31-0.893-0.319-1.583V261.97z
			 M148.932,264.858c-0.083,0.157-0.221,0.299-0.413,0.423c-0.192,0.125-0.434,0.188-0.726,0.188c-0.222,0-0.405-0.066-0.548-0.198
			c-0.144-0.132-0.215-0.304-0.215-0.517c0-0.731,0.407-1.097,1.222-1.097h0.68V264.858z M156.588,259.345
			c-0.912,0-1.627,0.34-2.145,1.021l-0.076-0.882h-2.194v7.512h2.34v-5.305c0.222-0.361,0.562-0.542,1.021-0.542
			c0.403,0,0.68,0.089,0.833,0.267c0.153,0.178,0.229,0.457,0.229,0.837v4.742h2.347v-4.839c-0.014-0.94-0.214-1.643-0.601-2.111
			C157.955,259.579,157.37,259.345,156.588,259.345z M163.037,261.15c0.319,0,0.574,0.104,0.764,0.312
			c0.19,0.208,0.285,0.507,0.285,0.896h2.194c0-0.926-0.287-1.659-0.861-2.201c-0.574-0.542-1.349-0.812-2.326-0.812
			c-0.722,0-1.347,0.156-1.875,0.469c-0.528,0.312-0.932,0.759-1.212,1.34c-0.28,0.581-0.42,1.251-0.42,2.01v0.097
			c0,1.213,0.315,2.162,0.944,2.847c0.629,0.685,1.49,1.028,2.583,1.028c0.93,0,1.691-0.264,2.281-0.791
			c0.59-0.528,0.885-1.203,0.885-2.027h-2.194c0.005,0.319-0.083,0.568-0.264,0.746c-0.181,0.178-0.435,0.267-0.764,0.267
			c-0.393,0-0.68-0.146-0.861-0.437c-0.18-0.292-0.271-0.815-0.271-1.569c0-0.43,0.016-0.768,0.049-1.014
			C162.076,261.537,162.43,261.15,163.037,261.15z M170.298,259.345c-0.75,0-1.398,0.161-1.944,0.482
			c-0.546,0.322-0.962,0.777-1.246,1.364c-0.285,0.588-0.427,1.266-0.427,2.034v0.194c0,1.102,0.356,1.996,1.069,2.683
			c0.713,0.687,1.646,1.031,2.798,1.031c0.616,0,1.191-0.119,1.725-0.358c0.535-0.238,0.948-0.559,1.239-0.962l-1.069-1.264
			c-0.417,0.518-0.995,0.778-1.736,0.778c-0.449,0-0.815-0.12-1.097-0.361c-0.282-0.241-0.465-0.572-0.548-0.993h4.652v-0.909
			c0-1.171-0.305-2.084-0.916-2.739C172.186,259.673,171.353,259.345,170.298,259.345z M171.422,262.511h-2.36
			c0.129-0.907,0.537-1.361,1.222-1.361c0.37,0,0.655,0.103,0.854,0.309c0.199,0.206,0.294,0.496,0.285,0.871V262.511z
			 M178.621,256.332v3.805c-0.458-0.528-1.023-0.792-1.694-0.792c-0.921,0-1.639,0.343-2.152,1.028
			c-0.514,0.685-0.771,1.622-0.771,2.812c0,1.264,0.261,2.238,0.785,2.923c0.523,0.685,1.231,1.028,2.125,1.028
			c0.74,0,1.351-0.315,1.833-0.944l0.118,0.805h2.104v-10.665H178.621z M178.621,264.677c-0.222,0.435-0.592,0.653-1.111,0.653
			c-0.778,0-1.166-0.667-1.166-2l0.007-0.43c0.06-1.166,0.451-1.75,1.173-1.75c0.518,0,0.884,0.222,1.097,0.667V264.677z"/>
	</g>

</svg>
