<svg version="1.1" xmlns="http://www.w3.org/2000/svg" xmlns:xlink="http://www.w3.org/1999/xlink" viewBox="0 0 400 400">
	<g ng-click="easyProficiencySelected()" ng-mouseover="showEasyProficiencyPopover=true;" ng-mouseleave="showEasyProficiencyPopover=false;">
		<path class="white-fill" d="M184.894,19.98c-0.276,0-0.552,0.012-0.829,0.037C139.75,23.97,98.697,44.251,68.468,77.122 c-30.416,33.074-47.166,76.052-47.166,121.016c0,26.153,5.531,51.377,16.439,74.97c1.1,2.378,3.149,4.185,5.647,4.977 c0.921,0.292,1.872,0.436,2.819,0.436c1.621,0,3.231-0.423,4.664-1.25l81.62-47.124c3.83-2.211,5.58-6.808,4.192-11.006 c-2.246-6.792-3.386-13.858-3.386-21.003c0-31.663,22.481-59.214,53.456-65.511c4.346-0.884,7.469-4.705,7.469-9.14v-94.18 c0-2.618-1.1-5.115-3.032-6.882C189.463,20.846,187.214,19.98,184.894,19.98L184.894,19.98z"/>
		<path class="grey-fill" d="M90.977,144.001h7.285V129.24c0-1.294,0.048-2.636,0.048-2.636h-0.096c0,0-0.432,0.959-1.343,1.821l-2.061,1.869 l-4.841-5.176l9.25-8.675h7.237v27.559h7.333v6.71H90.977V144.001z"/>
	</g>
	<g ng-click="intermediateProficiencySelected()" ng-mouseover="showIntermediateProficiencyPopover=true;" ng-mouseleave="showIntermediateProficiencyPopover=false;">
		<path class="white-fill" d="M218.798,20.314c-2.286,0-4.506,0.841-6.226,2.382c-1.973,1.769-3.101,4.294-3.101,6.945v94.623 c0,4.275,2.906,8.002,7.051,9.045c29.724,7.48,50.483,34.138,50.483,64.828c0,6.994-1.088,13.91-3.233,20.555 c-1.351,4.185,0.404,8.744,4.212,10.943l81.672,47.153c1.432,0.827,3.043,1.25,4.664,1.25c0.952,0,1.907-0.146,2.833-0.441 c2.501-0.797,4.551-2.612,5.645-4.999C373.549,249.153,379,224.1,379,198.138c0-44.338-16.344-86.869-46.021-119.76 c-29.455-32.644-69.645-53.246-113.166-58.008C219.474,20.333,219.135,20.314,218.798,20.314L218.798,20.314z"/>
		<path class="grey-fill" d="M298.578,147.654c0-12.653,15.385-14.378,15.385-20.178c0-2.78-1.917-3.546-3.69-3.546c-3.259,0-5.512,3.93-5.512,3.93 l-5.799-3.978c0,0,3.163-7.381,12.077-7.381c5.607,0,11.79,3.211,11.79,10.497c0,10.064-14.762,12.317-15.001,17.637h8.627v-4.074 h7.189v10.784h-24.683C298.721,150.002,298.578,148.804,298.578,147.654z"/>
	</g>
	<g ng-click="advancedProficiencySelected()" ng-mouseover="showAdvancedProficiencyPopover=true;" ng-mouseleave="showAdvancedProficiencyPopover=false;">
		<path class="white-fill" d="M255.286,241.354c-2.487,0-4.945,0.993-6.754,2.892c-12.755,13.379-29.936,20.747-48.381,20.747 c-18.265,0-35.329-7.245-48.051-20.4c-1.806-1.868-4.243-2.844-6.708-2.844c-1.596,0-3.204,0.409-4.66,1.25l-81.947,47.312 c-2.297,1.326-3.92,3.567-4.465,6.162c-0.545,2.595,0.041,5.3,1.611,7.437c16.277,22.159,37.754,40.536,62.108,53.147 c25.179,13.038,53.573,19.93,82.112,19.93c28.637,0,57.118-6.937,82.363-20.06c24.419-12.694,45.924-31.184,62.188-53.471 c1.56-2.138,2.139-4.838,1.591-7.428c-0.548-2.59-2.17-4.825-4.462-6.148l-81.885-47.276 C258.489,241.763,256.881,241.354,255.286,241.354L255.286,241.354z"/>
		<path class="grey-fill" d="M191.309,311.102h22.622v5.943l-6.422,7.86c4.553,1.055,7.524,4.648,7.524,9.346c0,5.848-4.122,11.694-12.94,11.694 c-7.669,0-11.694-4.505-11.694-4.505l3.882-5.991c0,0,3.211,3.067,7.189,3.067c3.115,0,4.889-1.726,4.889-3.882 c0-2.301-1.869-3.883-5.416-3.883c-0.527,0-1.103,0.049-1.678,0.097l-1.773-3.835l5.991-7.62c0.767-0.911,1.63-1.63,1.63-1.63 v-0.096c0,0-1.198,0.144-2.157,0.144h-4.457v3.595h-7.189V311.102z"/>
	</g>

	<g ng-show="technologyProficiency == 'Easy Proficiency'">
	  <path class="technology-proficiency-color" d="M90.977,144.001h7.285V129.24c0-1.294,0.048-2.636,0.048-2.636h-0.096c0,0-0.432,0.959-1.343,1.821l-2.061,1.869 l-4.841-5.176l9.25-8.675h7.237v27.559h7.333v6.71H90.977V144.001z"/>
	</g>
	<g ng-show="technologyProficiency == 'Intermediate Proficiency'">
	  <path class="technology-proficiency-color" d="M298.578,147.654c0-12.653,15.385-14.378,15.385-20.178c0-2.78-1.917-3.546-3.69-3.546c-3.259,0-5.512,3.93-5.512,3.93 l-5.799-3.978c0,0,3.163-7.381,12.077-7.381c5.607,0,11.79,3.211,11.79,10.497c0,10.064-14.762,12.317-15.001,17.637h8.627v-4.074 h7.189v10.784h-24.683C298.721,150.002,298.578,148.804,298.578,147.654z"/>
	</g>
	<g ng-show="technologyProficiency == 'Advanced Proficiency'">
	  <path class="technology-proficiency-color" d="M191.309,311.102h22.622v5.943l-6.422,7.86c4.553,1.055,7.524,4.648,7.524,9.346c0,5.848-4.122,11.694-12.94,11.694 c-7.669,0-11.694-4.505-11.694-4.505l3.882-5.991c0,0,3.211,3.067,7.189,3.067c3.115,0,4.889-1.726,4.889-3.882 c0-2.301-1.869-3.883-5.416-3.883c-0.527,0-1.103,0.049-1.678,0.097l-1.773-3.835l5.991-7.62c0.767-0.911,1.63-1.63,1.63-1.63 v-0.096c0,0-1.198,0.144-2.157,0.144h-4.457v3.595h-7.189V311.102z"/>
	</g>

	<g ng-show="proficiencySelected" ng-click="proficiencySelectedReset()">
		<path class="white-fill" d="M220.321,179.665l-20.485,37.211c0,0,0,0.001-0.001,0.001c-0.112,0.204-0.242,0.4-0.383,0.591 c-0.036,0.048-0.073,0.095-0.11,0.141c-0.108,0.136-0.223,0.267-0.345,0.393c-0.043,0.045-0.084,0.091-0.128,0.134 c-0.012,0.011-0.022,0.024-0.034,0.036c-0.148,0.141-0.303,0.269-0.463,0.389c-0.044,0.034-0.092,0.062-0.137,0.094
		c-0.143,0.101-0.29,0.195-0.44,0.28c-0.054,0.031-0.108,0.06-0.163,0.089c-0.17,0.089-0.343,0.169-0.52,0.238 c-0.029,0.011-0.057,0.025-0.086,0.036c-0.211,0.078-0.425,0.142-0.643,0.193c-0.046,0.011-0.092,0.018-0.138,0.027 c-0.171,0.035-0.343,0.062-0.516,0.08c-0.066,0.007-0.131,0.014-0.198,0.019c-0.199,0.013-0.398,0.018-0.596,0.01 c-0.019-0.001-0.038,0.002-0.057,0.001c-0.052-0.003-0.103-0.013-0.155-0.017c-0.124-0.01-0.247-0.021-0.37-0.04 c-0.075-0.012-0.149-0.029-0.223-0.043c-0.108-0.021-0.215-0.044-0.321-0.072c-0.07-0.018-0.139-0.04-0.209-0.061 c-0.117-0.036-0.232-0.076-0.347-0.12c-0.057-0.022-0.113-0.043-0.17-0.067c-0.139-0.059-0.276-0.125-0.41-0.196 c-0.025-0.013-0.052-0.023-0.077-0.037c-0.008-0.005-0.016-0.01-0.024-0.015c-0.115-0.064-0.227-0.135-0.338-0.209 c-0.039-0.026-0.081-0.05-0.119-0.076c-0.08-0.056-0.156-0.118-0.233-0.179c-0.065-0.051-0.132-0.099-0.195-0.153 c-0.027-0.023-0.052-0.05-0.079-0.075c-0.107-0.096-0.211-0.193-0.309-0.296l-11.971-12.622c-2.026-2.136-1.936-5.509,0.2-7.535 c2.137-2.024,5.51-1.936,7.535,0.2l6.952,7.331l16.968-30.822c1.42-2.579,4.662-3.518,7.239-2.099 C220.801,173.845,221.74,177.086,220.321,179.665z"/>
		<path class="technology-proficiency-color" d="M200,140.174c-31.28,0-56.637,25.357-56.637,56.637S168.72,253.448,200,253.448s56.637-25.357,56.637-56.637 S231.28,140.174,200,140.174z M220.321,179.665l-20.485,37.211c0,0,0,0.001-0.001,0.001c-0.112,0.204-0.242,0.4-0.383,0.591 c-0.036,0.048-0.073,0.095-0.11,0.141c-0.108,0.136-0.223,0.267-0.345,0.393c-0.043,0.045-0.084,0.091-0.128,0.134 c-0.012,0.011-0.022,0.024-0.034,0.036c-0.148,0.141-0.303,0.269-0.463,0.389c-0.044,0.034-0.092,0.062-0.137,0.094 c-0.143,0.101-0.29,0.195-0.44,0.28c-0.054,0.031-0.108,0.06-0.163,0.089c-0.17,0.089-0.343,0.169-0.52,0.238 c-0.029,0.011-0.057,0.025-0.086,0.036c-0.211,0.078-0.425,0.142-0.643,0.193c-0.046,0.011-0.092,0.018-0.138,0.027 c-0.171,0.035-0.343,0.062-0.516,0.08c-0.066,0.007-0.131,0.014-0.198,0.019c-0.199,0.013-0.398,0.018-0.596,0.01 c-0.019-0.001-0.038,0.002-0.057,0.001c-0.052-0.003-0.103-0.013-0.155-0.017c-0.124-0.01-0.247-0.021-0.37-0.04 c-0.075-0.012-0.149-0.029-0.223-0.043c-0.108-0.021-0.215-0.044-0.321-0.072c-0.07-0.018-0.139-0.04-0.209-0.061 c-0.117-0.036-0.232-0.076-0.347-0.12c-0.057-0.022-0.113-0.043-0.17-0.067c-0.139-0.059-0.276-0.125-0.41-0.196 c-0.025-0.013-0.052-0.023-0.077-0.037c-0.008-0.005-0.016-0.01-0.024-0.015c-0.115-0.064-0.227-0.135-0.338-0.209 c-0.039-0.026-0.081-0.05-0.119-0.076c-0.08-0.056-0.156-0.118-0.233-0.179c-0.065-0.051-0.132-0.099-0.195-0.153 c-0.027-0.023-0.052-0.05-0.079-0.075c-0.107-0.096-0.211-0.193-0.309-0.296l-11.971-12.622c-2.026-2.136-1.936-5.509,0.2-7.535 c2.137-2.024,5.51-1.936,7.535,0.2l6.952,7.331l16.968-30.822c1.42-2.579,4.662-3.518,7.239-2.099 C220.801,173.845,221.74,177.086,220.321,179.665z"/>
	</g>

	<text x="10" y="115" fill="#505051" font-weight="400" font-family="Roboto,Helvetica,Arial,san-serif" font-size="24px" ng-show="showEasyProficiencyPopover">Easy</text>
	<text x="200" y="100" fill="#505051" font-weight="400" font-family="Roboto,Helvetica,Arial,san-serif" font-size="24px" ng-show="showIntermediateProficiencyPopover">Intermediate</text>
	<text x="150" y="385" fill="#505051" font-weight="400" font-family="Roboto,Helvetica,Arial,san-serif" font-size="24px" ng-show="showAdvancedProficiencyPopover">Advanced</text>
</svg>
