<svg xmlns="http://www.w3.org/2000/svg" xmlns:xlink="http://www.w3.org/1999/xlink" viewBox="0 0 400 400">

	<a id="the-complete-thought" href="/the-complete-thought/">
 		 	<path class="offwhite-fill dial-select-option" d="M199.979,149.023c-29.662,0-53.708,24.046-53.708,53.708s24.046,53.708,53.708,53.708s53.708-24.046,53.708-53.708
 	 	 	S229.642,149.023,199.979,149.023z"/>
 	 		<path class="text" d="M170.794,189.549h1.06v-11.652h4.301V177h-9.653v0.896h4.292V189.549z M178.523,183.163
 	 			c0.235-0.678,0.599-1.217,1.09-1.616c0.491-0.399,1.056-0.599,1.694-0.599c0.764,0,1.32,0.204,1.668,0.612
 	 			c0.348,0.408,0.524,1.029,0.53,1.862v6.128h1.026v-6.119c-0.006-1.126-0.253-1.971-0.741-2.534
 	 			c-0.488-0.563-1.232-0.845-2.232-0.845c-0.626,0-1.204,0.152-1.732,0.457c-0.529,0.305-0.962,0.735-1.301,1.293v-5.49h-1.026
 	 			v13.238h1.026V183.163z M188.204,189.135c0.641,0.391,1.357,0.586,2.15,0.586c1.442,0,2.542-0.549,3.301-1.646l-0.646-0.491
 	 			c-0.345,0.443-0.728,0.764-1.151,0.965c-0.422,0.201-0.909,0.302-1.461,0.302c-0.919,0-1.682-0.352-2.288-1.056
 	 			c-0.606-0.704-0.909-1.584-0.909-2.642v-0.198h6.653v-0.577c0-1.339-0.332-2.394-0.995-3.167
 	 			c-0.664-0.773-1.561-1.159-2.693-1.159c-0.724,0-1.396,0.206-2.017,0.616c-0.62,0.411-1.105,0.975-1.452,1.694
 	 			c-0.348,0.718-0.521,1.525-0.521,2.422v0.371c0,0.868,0.178,1.65,0.534,2.349C187.065,188.2,187.563,188.744,188.204,189.135z
 	 			 M188.204,181.784c0.531-0.569,1.185-0.853,1.961-0.853c0.781,0,1.413,0.282,1.896,0.845c0.483,0.563,0.738,1.293,0.767,2.189
 	 			v0.112h-5.593C187.349,183.117,187.673,182.352,188.204,181.784z M169.264,196.651c0.675-0.851,1.581-1.277,2.719-1.277
 	 			c2.051,0,3.209,1.066,3.473,3.197h1.069c-0.126-1.281-0.579-2.284-1.357-3.008c-0.779-0.724-1.84-1.086-3.185-1.086
 	 			c-0.954,0-1.797,0.234-2.53,0.702c-0.733,0.468-1.294,1.133-1.685,1.995c-0.391,0.862-0.586,1.85-0.586,2.965v1.629
 	 			c0.006,1.097,0.204,2.073,0.595,2.926c0.391,0.853,0.944,1.513,1.659,1.978c0.715,0.465,1.538,0.698,2.469,0.698
 	 			c1.333,0,2.4-0.35,3.202-1.051c0.802-0.701,1.274-1.712,1.418-3.034h-1.069c-0.132,1.063-0.48,1.86-1.043,2.392
 	 			c-0.563,0.531-1.399,0.797-2.508,0.797c-1.12,0-2.01-0.431-2.667-1.294c-0.658-0.862-0.987-2.018-0.987-3.467v-1.535
 	 			C168.252,198.678,168.589,197.503,169.264,196.651z M186.176,202.468c0-1.436-0.385-2.59-1.155-3.46
 	 			c-0.77-0.871-1.775-1.306-3.016-1.306c-0.805,0-1.524,0.2-2.159,0.599c-0.635,0.399-1.126,0.958-1.474,1.676
 	 			c-0.348,0.718-0.521,1.525-0.521,2.422v0.207c0,1.436,0.386,2.59,1.159,3.46c0.773,0.87,1.777,1.306,3.012,1.306
 	 			c0.81,0,1.531-0.195,2.163-0.586c0.632-0.391,1.122-0.947,1.469-1.668c0.348-0.721,0.521-1.533,0.521-2.435V202.468z
 	 			 M185.151,202.597c0,1.172-0.289,2.116-0.866,2.831c-0.577,0.715-1.332,1.073-2.262,1.073c-0.937,0-1.693-0.358-2.271-1.073
 	 			c-0.577-0.715-0.866-1.63-0.866-2.745v-0.19c0-1.166,0.29-2.11,0.87-2.831c0.58-0.721,1.33-1.082,2.25-1.082
 	 			c0.615,0,1.161,0.162,1.637,0.487c0.477,0.325,0.848,0.783,1.112,1.375c0.264,0.592,0.396,1.244,0.396,1.956V202.597z
 	 			 M199.322,199.201c0.353,0.402,0.533,1.02,0.539,1.853v6.145h1.034v-6.223c-0.04-2.183-1.06-3.275-3.06-3.275
 	 			c-0.672,0-1.287,0.157-1.844,0.47c-0.557,0.313-1.003,0.76-1.336,1.34c-0.397-1.207-1.33-1.81-2.801-1.81
 	 			c-0.632,0-1.207,0.141-1.724,0.422c-0.517,0.282-0.948,0.704-1.293,1.267l-0.035-1.517h-0.991v9.325h1.034v-6.395
 	 			c0.224-0.73,0.569-1.28,1.034-1.65c0.465-0.371,1.023-0.556,1.672-0.556c0.77,0,1.34,0.197,1.711,0.59
 	 			c0.371,0.394,0.559,0.99,0.565,1.788v6.223h1.034v-6.171c0.057-0.672,0.342-1.242,0.853-1.711c0.511-0.468,1.138-0.708,1.879-0.72
 	 			C198.393,198.598,198.969,198.799,199.322,199.201z M209.598,206.092c0.643-0.853,0.965-2.007,0.965-3.46v-0.146
 	 			c0-1.5-0.318-2.672-0.952-3.516c-0.635-0.845-1.51-1.267-2.624-1.267c-1.276,0-2.249,0.497-2.922,1.491l-0.052-1.319h-0.957v12.91
 	 			h1.026v-4.757c0.678,0.896,1.655,1.344,2.93,1.344C208.092,207.372,208.954,206.945,209.598,206.092z M205.142,206.079
 	 			c-0.46-0.281-0.813-0.69-1.06-1.224v-4.473c0.241-0.58,0.589-1.023,1.043-1.327c0.454-0.304,0.997-0.457,1.629-0.457
 	 			c0.873,0,1.554,0.345,2.043,1.034c0.488,0.689,0.733,1.629,0.733,2.818c0,1.316-0.243,2.32-0.728,3.012
 	 			c-0.486,0.692-1.162,1.039-2.03,1.039C206.145,206.501,205.602,206.36,205.142,206.079z M212.526,207.199h1.034v-13.238h-1.034
 	 			V207.199z M221.035,206.2c-0.422,0.201-0.909,0.302-1.461,0.302c-0.919,0-1.682-0.352-2.288-1.056
 	 			c-0.606-0.704-0.909-1.584-0.909-2.642v-0.198h6.653v-0.577c0-1.339-0.332-2.394-0.995-3.167
 	 			c-0.664-0.773-1.561-1.159-2.693-1.159c-0.724,0-1.396,0.205-2.017,0.616c-0.621,0.411-1.105,0.975-1.452,1.694
 	 			c-0.348,0.718-0.521,1.525-0.521,2.422v0.371c0,0.868,0.178,1.65,0.534,2.349c0.356,0.698,0.855,1.243,1.495,1.633
 	 			c0.641,0.391,1.357,0.586,2.15,0.586c1.442,0,2.542-0.549,3.301-1.646l-0.646-0.491
 	 			C221.841,205.677,221.458,205.999,221.035,206.2z M217.381,199.434c0.531-0.569,1.185-0.853,1.961-0.853
 	 			c0.781,0,1.413,0.281,1.896,0.845c0.483,0.563,0.738,1.293,0.767,2.189v0.112h-5.593
 	 			C216.526,200.767,216.85,200.003,217.381,199.434z M227.415,206.475c-0.437,0-0.748-0.126-0.935-0.38
 	 			c-0.187-0.253-0.28-0.638-0.28-1.156v-6.221h1.931v-0.845H226.2v-2.387h-1.034v2.387h-1.715v0.845h1.715v6.223
 	 			c0,0.799,0.161,1.404,0.483,1.814c0.322,0.411,0.836,0.616,1.543,0.616c0.465,0,0.833-0.048,1.103-0.145l-0.043-0.837
 	 			C227.867,206.447,227.588,206.475,227.415,206.475z M236.937,202.606v-0.577c0-1.339-0.332-2.394-0.995-3.167
 	 			c-0.664-0.773-1.561-1.159-2.693-1.159c-0.724,0-1.396,0.205-2.017,0.616c-0.621,0.411-1.105,0.975-1.452,1.694
 	 			c-0.348,0.718-0.521,1.525-0.521,2.422v0.371c0,0.868,0.178,1.65,0.534,2.349c0.356,0.698,0.855,1.243,1.495,1.633
 	 			c0.641,0.391,1.357,0.586,2.15,0.586c1.442,0,2.542-0.549,3.301-1.646l-0.646-0.491c-0.345,0.443-0.728,0.764-1.151,0.965
 	 			c-0.422,0.201-0.909,0.302-1.461,0.302c-0.919,0-1.682-0.352-2.288-1.056c-0.606-0.704-0.909-1.584-0.909-2.642v-0.198H236.937z
 	 			 M231.288,199.434c0.531-0.569,1.185-0.853,1.961-0.853c0.781,0,1.413,0.281,1.896,0.845c0.483,0.563,0.738,1.293,0.767,2.189
 	 			v0.112h-5.593C230.433,200.767,230.756,200.003,231.288,199.434z M166.502,213.198h4.292v11.652h1.06v-11.652h4.301v-0.896h-9.653
 	 			V213.198z M181.557,215.352c-0.626,0-1.204,0.152-1.732,0.457c-0.529,0.305-0.962,0.735-1.301,1.293v-5.49h-1.026v13.238h1.026
 	 			v-6.386c0.235-0.678,0.599-1.217,1.09-1.616c0.491-0.399,1.056-0.599,1.694-0.599c0.764,0,1.32,0.204,1.668,0.612
 	 			c0.348,0.408,0.524,1.029,0.53,1.862v6.128h1.026v-6.119c-0.006-1.126-0.253-1.971-0.741-2.534
 	 			C183.301,215.634,182.557,215.352,181.557,215.352z M190.329,215.352c-0.805,0-1.524,0.2-2.159,0.599
 	 			c-0.635,0.399-1.126,0.958-1.474,1.676c-0.348,0.718-0.521,1.525-0.521,2.422v0.207c0,1.437,0.386,2.59,1.159,3.46
 	 			c0.773,0.87,1.777,1.306,3.012,1.306c0.81,0,1.531-0.195,2.163-0.586c0.632-0.391,1.122-0.947,1.469-1.668
 	 			c0.348-0.721,0.521-1.533,0.521-2.435v-0.215c0-1.436-0.385-2.59-1.155-3.46C192.575,215.788,191.57,215.352,190.329,215.352z
 	 			 M193.474,220.248c0,1.172-0.289,2.116-0.866,2.831c-0.577,0.715-1.332,1.073-2.262,1.073c-0.937,0-1.693-0.358-2.271-1.073
 	 			c-0.577-0.715-0.866-1.63-0.866-2.745v-0.19c0-1.166,0.29-2.11,0.87-2.831c0.58-0.721,1.33-1.082,2.249-1.082
 	 			c0.615,0,1.161,0.162,1.638,0.487c0.477,0.325,0.847,0.783,1.112,1.375c0.264,0.592,0.396,1.244,0.396,1.956V220.248z
 	 			 M202.169,222.273c-0.396,1.235-1.342,1.853-2.836,1.853c-1.436,0-2.155-0.888-2.155-2.663v-5.938h-1.026v6.067
 	 			c0.011,1.132,0.276,1.987,0.793,2.564c0.517,0.577,1.273,0.866,2.267,0.866c1.362,0,2.353-0.451,2.973-1.353l0.017,1.181h1v-9.325
 	 			h-1.034V222.273z M211.526,216.869c-0.661-1.011-1.626-1.517-2.896-1.517c-1.109,0-1.987,0.427-2.633,1.28
 	 			c-0.646,0.853-0.97,2.009-0.97,3.469v0.138c0,1.465,0.328,2.629,0.982,3.49c0.655,0.862,1.523,1.293,2.603,1.293
 	 			c1.264,0,2.226-0.46,2.887-1.379v1.172c-0.017,0.902-0.267,1.607-0.75,2.116c-0.483,0.509-1.155,0.763-2.017,0.763
 	 			c-1.006,0-1.873-0.448-2.603-1.345l-0.577,0.62c0.339,0.483,0.803,0.869,1.392,1.159c0.589,0.29,1.208,0.435,1.857,0.435
 	 			c1.149,0,2.06-0.351,2.732-1.051c0.672-0.701,1.008-1.652,1.008-2.853v-9.136h-0.965L211.526,216.869z M211.501,222.419
 	 			c-0.529,1.138-1.428,1.706-2.698,1.706c-0.868,0-1.54-0.343-2.017-1.03c-0.477-0.687-0.715-1.625-0.715-2.814
 	 			c0-1.327,0.241-2.331,0.724-3.012c0.483-0.681,1.158-1.021,2.025-1.021c0.638,0,1.184,0.157,1.638,0.47
 	 			c0.454,0.313,0.802,0.769,1.043,1.366V222.419z M218.851,215.352c-0.626,0-1.204,0.152-1.732,0.457
 	 			c-0.529,0.305-0.962,0.735-1.301,1.293v-5.49h-1.026v13.238h1.026v-6.386c0.235-0.678,0.599-1.217,1.09-1.616
 	 			c0.491-0.399,1.056-0.599,1.694-0.599c0.764,0,1.32,0.204,1.668,0.612c0.348,0.408,0.524,1.029,0.53,1.862v6.128h1.026v-6.119
 	 			c-0.006-1.126-0.253-1.971-0.741-2.534C220.594,215.634,219.85,215.352,218.851,215.352z M226.855,224.126
 	 			c-0.437,0-0.748-0.126-0.935-0.38c-0.187-0.253-0.28-0.638-0.28-1.156v-6.221h1.93v-0.845h-1.93v-2.387h-1.034v2.387h-1.715v0.845
 	 			h1.715v6.223c0,0.799,0.161,1.404,0.483,1.814c0.322,0.411,0.836,0.616,1.543,0.616c0.465,0,0.833-0.048,1.103-0.145l-0.043-0.837
 	 			C227.306,224.097,227.028,224.126,226.855,224.126z M233.459,216.439c0-0.255-0.047-0.474-0.141-0.656
 	 			c-0.094-0.183-0.261-0.318-0.502-0.405c0.472-0.214,0.708-0.544,0.708-0.989c0-0.418-0.132-0.73-0.397-0.936
 	 			c-0.265-0.206-0.643-0.309-1.136-0.309h-1.296v4.216h0.492v-1.739h0.945c0.301,0,0.515,0.062,0.641,0.186
 	 			c0.126,0.124,0.188,0.336,0.188,0.635c0,0.491,0.023,0.796,0.07,0.917h0.513v-0.081c-0.03-0.077-0.052-0.173-0.065-0.287
 	 			C233.466,216.878,233.459,216.694,233.459,216.439z M232.768,214.958c-0.176,0.141-0.399,0.211-0.671,0.211h-0.909v-1.573h0.874
 	 			c0.355,0.007,0.605,0.071,0.751,0.193c0.146,0.122,0.219,0.326,0.219,0.61C233.032,214.631,232.944,214.817,232.768,214.958z
 	 			 M233.798,212.056c-0.554-0.333-1.153-0.5-1.796-0.5c-0.643,0-1.242,0.167-1.796,0.5c-0.554,0.333-0.988,0.79-1.301,1.369
 	 			c-0.313,0.58-0.47,1.208-0.47,1.884c0,0.667,0.152,1.288,0.457,1.864c0.305,0.576,0.734,1.038,1.289,1.384
 	 			c0.554,0.347,1.161,0.52,1.821,0.52c0.66,0,1.267-0.173,1.821-0.52s0.984-0.808,1.289-1.384c0.305-0.576,0.457-1.197,0.457-1.864
 	 			c0-0.677-0.157-1.305-0.47-1.884C234.787,212.846,234.353,212.389,233.798,212.056z M234.723,216.979
 	 			c-0.276,0.518-0.659,0.925-1.148,1.222c-0.489,0.297-1.013,0.445-1.573,0.445c-0.559,0-1.083-0.148-1.57-0.445
 	 			c-0.487-0.297-0.871-0.703-1.151-1.219c-0.28-0.516-0.42-1.074-0.42-1.674c0-0.597,0.139-1.151,0.417-1.662
 	 			c0.278-0.511,0.661-0.915,1.148-1.212c0.487-0.297,1.012-0.445,1.575-0.445c0.573,0,1.103,0.151,1.59,0.453
 	 			c0.487,0.302,0.867,0.707,1.138,1.217c0.271,0.51,0.407,1.059,0.407,1.649C235.137,215.904,234.999,216.461,234.723,216.979z"/>
 	</a>
	<a id="professional-delopment" href="/browse/professional-development/">
		<defs>
	 		<linearGradient id="pdGradient" x1="-10%" y1="0%" x2="60%" y2="100%">
		 		<stop offset="36%" style="stop-color:rgb(255,163,79);stop-opacity:1" />
		 		<stop offset="100%" style="stop-color:rgb(255,255,255);stop-opacity:0.75" />
	 		</linearGradient>
 		</defs>
			 <path class="dial-select-option" fill="url(#pdGradient)" d="M45.104,100.953c-0.763,0-1.529,0.078-2.288,0.237c-3.083,0.646-5.748,2.566-7.338,5.285
			 C18.431,135.63,9.42,168.973,9.42,202.9c0,33.928,9.011,67.271,26.057,96.425c1.59,2.719,4.255,4.639,7.338,5.285
			 c0.759,0.159,1.526,0.237,2.288,0.237c2.336,0,4.634-0.734,6.555-2.13l81.166-58.97c4.211-3.059,5.745-8.625,3.697-13.409
			 c-3.719-8.688-5.604-17.92-5.604-27.438c0-9.519,1.886-18.751,5.604-27.439c2.048-4.785,0.514-10.35-3.697-13.409l-81.165-58.97
			 C49.738,101.688,47.44,100.953,45.104,100.953L45.104,100.953z"/>
		 <path class="grey-fill" d="M30.237,197.422h1.544c1.223,0,2.185-0.293,2.886-0.879c0.701-0.586,1.051-1.369,1.051-2.348
			 c0-0.662-0.162-1.254-0.486-1.775c-0.324-0.522-0.781-0.924-1.372-1.207c-0.591-0.283-1.27-0.424-2.037-0.424h-4.006v10.039h2.42
			 V197.422z M30.237,192.657h1.613c0.437,0.005,0.781,0.147,1.034,0.427c0.253,0.28,0.379,0.655,0.379,1.124
			 c0,0.427-0.123,0.758-0.369,0.993c-0.246,0.234-0.603,0.352-1.072,0.352h-1.586V192.657z"/>
		 <path class="grey-fill" d="M38.888,196.105c0.207-0.46,0.676-0.69,1.407-0.69l0.765,0.055l0.041-2.158
			 c-0.184-0.055-0.4-0.083-0.648-0.083c-0.699,0-1.243,0.365-1.634,1.096l-0.076-0.958h-2.179v7.46h2.324V196.105z"/>
		 <path class="grey-fill" d="M41.011,197.422c0.05,1.089,0.397,1.952,1.041,2.589c0.644,0.637,1.496,0.955,2.558,0.955
			 c1.103,0,1.978-0.341,2.623-1.024c0.646-0.683,0.969-1.605,0.969-2.768v-0.083c0-1.19-0.322-2.131-0.965-2.823
			 c-0.643-0.692-1.524-1.038-2.641-1.038c-0.731,0-1.368,0.156-1.91,0.469c-0.542,0.313-0.958,0.76-1.248,1.341
			 c-0.29,0.582-0.434,1.245-0.434,1.989L41.011,197.422z M43.334,196.753c0.064-1.154,0.485-1.731,1.262-1.731
			 c0.855,0,1.282,0.669,1.282,2.006v0.234c-0.018,1.273-0.441,1.91-1.269,1.91c-0.423,0-0.742-0.161-0.958-0.483
			 c-0.216-0.322-0.324-0.827-0.324-1.517L43.334,196.753z"/>
		 <path class="grey-fill" d="M49.386,200.828h2.33v-5.847h1.455v-1.613h-1.455v-0.572c0-0.607,0.352-0.91,1.055-0.91
			 c0.239,0,0.43,0.021,0.572,0.062l-0.007-1.71c-0.395-0.097-0.758-0.145-1.089-0.145c-0.906,0-1.609,0.234-2.11,0.703
			 c-0.501,0.469-0.751,1.128-0.751,1.979v0.593h-1.083v1.613h1.083V200.828z"/>
		 <path class="grey-fill" d="M60.189,199.656l-1.062-1.255c-0.414,0.515-0.988,0.772-1.724,0.772c-0.446,0-0.809-0.12-1.089-0.359
			 c-0.28-0.239-0.462-0.568-0.545-0.986h4.619v-0.903c0-1.163-0.303-2.069-0.91-2.72c-0.607-0.65-1.434-0.976-2.482-0.976
			 c-0.745,0-1.388,0.16-1.931,0.479c-0.542,0.32-0.955,0.771-1.238,1.355c-0.283,0.584-0.424,1.257-0.424,2.02v0.193
			 c0,1.094,0.354,1.982,1.062,2.665c0.708,0.683,1.634,1.024,2.779,1.024c0.611,0,1.182-0.118,1.713-0.355
			 C59.489,200.374,59.899,200.056,60.189,199.656z M56.983,195.022c0.368,0,0.65,0.102,0.848,0.307
			 c0.198,0.205,0.292,0.493,0.283,0.865v0.179h-2.344C55.898,195.473,56.303,195.022,56.983,195.022z"/>
		 <path class="grey-fill" d="M63.855,194.76c0.63,0,0.945,0.299,0.945,0.896h2.33c0-0.726-0.299-1.312-0.896-1.758
			 c-0.598-0.446-1.388-0.669-2.372-0.669c-0.915,0-1.655,0.222-2.22,0.665c-0.565,0.444-0.848,1.008-0.848,1.693
			 c0,0.386,0.099,0.729,0.296,1.027c0.198,0.299,0.485,0.553,0.862,0.762c0.377,0.209,0.855,0.378,1.434,0.507
			 c0.579,0.129,0.972,0.253,1.179,0.372c0.207,0.12,0.31,0.278,0.31,0.476c0,0.207-0.079,0.375-0.238,0.503
			 c-0.159,0.129-0.396,0.193-0.714,0.193c-0.345,0-0.628-0.079-0.848-0.238c-0.221-0.159-0.336-0.41-0.345-0.755H60.56
			 c0,0.437,0.14,0.853,0.421,1.248c0.28,0.395,0.671,0.708,1.172,0.938c0.501,0.23,1.071,0.345,1.71,0.345
			 c0.961,0,1.743-0.214,2.348-0.641c0.604-0.427,0.907-0.981,0.907-1.662c0-0.997-0.561-1.689-1.682-2.075
			 c-0.336-0.115-0.725-0.214-1.169-0.296c-0.444-0.083-0.766-0.188-0.969-0.317c-0.202-0.129-0.303-0.296-0.303-0.503
			 c0-0.202,0.083-0.371,0.248-0.507C63.407,194.828,63.612,194.76,63.855,194.76z"/>
		 <path class="grey-fill" d="M70.804,199.428c-0.345,0-0.627-0.079-0.848-0.238c-0.221-0.159-0.336-0.41-0.345-0.755h-2.172
			 c0,0.437,0.14,0.853,0.421,1.248c0.28,0.395,0.671,0.708,1.172,0.938c0.501,0.23,1.071,0.345,1.71,0.345
			 c0.961,0,1.743-0.214,2.348-0.641c0.604-0.427,0.907-0.981,0.907-1.662c0-0.997-0.561-1.689-1.682-2.075
			 c-0.336-0.115-0.725-0.214-1.169-0.296c-0.444-0.083-0.766-0.188-0.969-0.317c-0.202-0.129-0.303-0.296-0.303-0.503
			 c0-0.202,0.083-0.371,0.248-0.507c0.165-0.136,0.37-0.203,0.614-0.203c0.63,0,0.945,0.299,0.945,0.896h2.33
			 c0-0.726-0.299-1.312-0.896-1.758c-0.598-0.446-1.388-0.669-2.372-0.669c-0.915,0-1.655,0.222-2.22,0.665
			 c-0.565,0.444-0.848,1.008-0.848,1.693c0,0.386,0.099,0.729,0.296,1.027c0.198,0.299,0.485,0.553,0.862,0.762
			 c0.377,0.209,0.855,0.378,1.434,0.507c0.579,0.129,0.972,0.253,1.179,0.372c0.207,0.12,0.31,0.278,0.31,0.476
			 c0,0.207-0.079,0.375-0.238,0.503C71.359,199.364,71.121,199.428,70.804,199.428z"/>
		 <path class="grey-fill" d="M76.001,192.575c0.382,0,0.692-0.106,0.931-0.317c0.239-0.211,0.359-0.483,0.359-0.814
			 s-0.12-0.602-0.359-0.814c-0.239-0.211-0.549-0.317-0.931-0.317c-0.381,0-0.692,0.106-0.931,0.317
			 c-0.239,0.212-0.358,0.483-0.358,0.814s0.12,0.602,0.358,0.814C75.309,192.469,75.62,192.575,76.001,192.575z"/>
		 <rect x="74.85" y="193.368" class="grey-fill" width="2.331" height="7.46"/>
		 <path class="grey-fill" d="M79.013,200.011c0.643,0.637,1.496,0.955,2.558,0.955c1.103,0,1.978-0.341,2.623-1.024
			 c0.646-0.683,0.969-1.605,0.969-2.768v-0.083c0-1.19-0.322-2.131-0.965-2.823c-0.643-0.692-1.524-1.038-2.641-1.038
			 c-0.731,0-1.367,0.156-1.91,0.469c-0.542,0.313-0.958,0.76-1.248,1.341c-0.29,0.582-0.434,1.245-0.434,1.989l0.007,0.393
			 C78.022,198.511,78.369,199.374,79.013,200.011z M80.295,196.753c0.064-1.154,0.485-1.731,1.262-1.731
			 c0.855,0,1.282,0.669,1.282,2.006v0.234c-0.018,1.273-0.441,1.91-1.269,1.91c-0.423,0-0.742-0.161-0.958-0.483
			 c-0.216-0.322-0.324-0.827-0.324-1.517L80.295,196.753z"/>
		 <path class="grey-fill" d="M88.113,195.56c0.221-0.359,0.558-0.538,1.014-0.538c0.4,0,0.676,0.089,0.827,0.265
			 c0.152,0.177,0.227,0.454,0.227,0.831v4.709h2.33v-4.806c-0.014-0.933-0.213-1.632-0.596-2.096
			 c-0.384-0.464-0.964-0.696-1.741-0.696c-0.906,0-1.616,0.338-2.131,1.014l-0.076-0.876h-2.179v7.46h2.324V195.56z"/>
		 <path class="grey-fill" d="M97.426,200.159c0.064,0.294,0.138,0.517,0.221,0.669h2.324v-0.117c-0.202-0.363-0.308-0.887-0.317-1.572
			 v-3.303c-0.014-0.809-0.297-1.446-0.848-1.91c-0.552-0.464-1.303-0.696-2.255-0.696c-0.952,0-1.734,0.225-2.348,0.675
			 c-0.614,0.45-0.921,1.035-0.921,1.756h2.324c0-0.545,0.276-0.818,0.827-0.818c0.593,0,0.889,0.344,0.889,1.032v0.395h-0.717
			 c-1.14,0-2.009,0.207-2.606,0.62c-0.598,0.414-0.896,1.025-0.896,1.834c0,0.644,0.246,1.178,0.738,1.603
			 c0.492,0.425,1.089,0.638,1.793,0.638C96.401,200.966,96.999,200.697,97.426,200.159z M96.647,197.511h0.676v1.193
			 c-0.083,0.156-0.22,0.296-0.41,0.421c-0.191,0.124-0.431,0.186-0.721,0.186c-0.221,0-0.402-0.065-0.545-0.197
			 c-0.143-0.131-0.214-0.302-0.214-0.514C95.433,197.875,95.838,197.511,96.647,197.511z"/>
		 <rect x="100.706" y="190.237" class="grey-fill" width="2.33" height="10.59"/>
		 <path class="grey-fill" d="M31.522,208.337c-0.708-0.402-1.505-0.603-2.392-0.603h-3.234v10.039h3.303
			 c0.869-0.005,1.656-0.213,2.361-0.624c0.706-0.411,1.253-0.981,1.641-1.71c0.388-0.728,0.583-1.552,0.583-2.472v-0.462
			 c-0.005-0.91-0.206-1.732-0.603-2.465C32.783,209.307,32.23,208.739,31.522,208.337z M31.315,212.967
			 c0,0.975-0.186,1.709-0.558,2.203c-0.372,0.494-0.906,0.741-1.6,0.741h-0.841v-6.309h0.814c0.712,0,1.255,0.246,1.627,0.738
			 c0.372,0.492,0.558,1.223,0.558,2.193V212.967z"/>
		 <path class="grey-fill" d="M37.926,210.174c-0.745,0-1.388,0.16-1.931,0.479c-0.542,0.32-0.955,0.771-1.238,1.355
			 c-0.283,0.584-0.424,1.257-0.424,2.02v0.193c0,1.094,0.354,1.982,1.062,2.665c0.708,0.683,1.634,1.024,2.779,1.024
			 c0.611,0,1.182-0.118,1.713-0.355c0.531-0.237,0.941-0.555,1.231-0.955l-1.062-1.255c-0.414,0.515-0.988,0.772-1.724,0.772
			 c-0.446,0-0.809-0.12-1.089-0.359c-0.28-0.239-0.462-0.568-0.545-0.986h4.619v-0.903c0-1.163-0.303-2.069-0.91-2.72
			 C39.801,210.5,38.974,210.174,37.926,210.174z M39.043,213.318h-2.344c0.129-0.901,0.533-1.351,1.213-1.351
			 c0.368,0,0.65,0.102,0.848,0.307c0.198,0.205,0.292,0.493,0.283,0.865V213.318z"/>
		 <polygon class="grey-fill" points="44.785,215.008 43.626,210.312 41.172,210.312 43.606,217.772 45.977,217.772 48.411,210.312
			 45.964,210.312 	"/>
		 <path class="grey-fill" d="M52.112,210.174c-0.745,0-1.388,0.16-1.931,0.479c-0.542,0.32-0.955,0.771-1.238,1.355
			 c-0.283,0.584-0.424,1.257-0.424,2.02v0.193c0,1.094,0.354,1.982,1.062,2.665c0.708,0.683,1.634,1.024,2.779,1.024
			 c0.611,0,1.182-0.118,1.713-0.355c0.531-0.237,0.941-0.555,1.231-0.955l-1.062-1.255c-0.414,0.515-0.988,0.772-1.724,0.772
			 c-0.446,0-0.809-0.12-1.089-0.359c-0.28-0.239-0.462-0.568-0.545-0.986h4.619v-0.903c0-1.163-0.303-2.069-0.91-2.72
			 C53.988,210.5,53.16,210.174,52.112,210.174z M53.229,213.318h-2.344c0.129-0.901,0.533-1.351,1.214-1.351
			 c0.368,0,0.65,0.102,0.848,0.307c0.198,0.205,0.292,0.493,0.283,0.865V213.318z"/>
		 <rect x="56.206" y="207.182" class="grey-fill" width="2.331" height="10.59"/>
		 <path class="grey-fill" d="M62.914,210.174c-0.731,0-1.367,0.156-1.91,0.469c-0.542,0.313-0.958,0.76-1.248,1.341
			 c-0.29,0.582-0.434,1.245-0.434,1.989l0.007,0.393c0.051,1.089,0.398,1.952,1.041,2.589c0.643,0.637,1.496,0.955,2.558,0.955
			 c1.103,0,1.978-0.341,2.623-1.024c0.646-0.682,0.969-1.605,0.969-2.768v-0.083c0-1.19-0.322-2.132-0.965-2.823
			 C64.911,210.52,64.031,210.174,62.914,210.174z M64.196,214.208c-0.018,1.273-0.441,1.91-1.269,1.91
			 c-0.423,0-0.742-0.161-0.958-0.483c-0.216-0.322-0.324-0.827-0.324-1.517l0.007-0.421c0.064-1.154,0.485-1.731,1.262-1.731
			 c0.855,0,1.283,0.669,1.283,2.006V214.208z"/>
		 <path class="grey-fill" d="M71.207,210.174c-0.726,0-1.312,0.276-1.758,0.827l-0.069-0.689h-2.172v10.328h2.324v-3.482
			 c0.441,0.501,1.004,0.752,1.689,0.752c0.887,0,1.592-0.346,2.113-1.038c0.522-0.692,0.783-1.617,0.783-2.775v-0.11
			 c0-1.186-0.255-2.118-0.765-2.796C72.841,210.513,72.126,210.174,71.207,210.174z M71.793,214.201
			 c-0.023,1.278-0.405,1.917-1.145,1.917c-0.542,0-0.915-0.207-1.117-0.621v-2.937c0.184-0.395,0.552-0.593,1.103-0.593
			 c0.772,0,1.158,0.662,1.158,1.986V214.201z"/>
		 <path class="grey-fill" d="M83.292,210.174c-0.956,0-1.687,0.375-2.192,1.124c-0.331-0.749-0.968-1.124-1.91-1.124
			 c-0.892,0-1.602,0.338-2.13,1.014l-0.076-0.876h-2.179v7.46h2.324v-5.192c0.234-0.409,0.575-0.614,1.02-0.614
			 c0.349,0,0.586,0.087,0.71,0.262c0.124,0.175,0.186,0.457,0.186,0.848v4.695h2.331v-5.095l-0.007-0.097
			 c0.225-0.409,0.568-0.614,1.027-0.614c0.34,0,0.575,0.087,0.703,0.262c0.129,0.175,0.193,0.453,0.193,0.834v4.709h2.331v-4.854
			 C85.581,211.089,84.804,210.174,83.292,210.174z"/>
		 <path class="grey-fill" d="M89.958,210.174c-0.745,0-1.388,0.16-1.931,0.479c-0.542,0.32-0.955,0.771-1.238,1.355
			 c-0.283,0.584-0.424,1.257-0.424,2.02v0.193c0,1.094,0.354,1.982,1.062,2.665c0.708,0.683,1.634,1.024,2.779,1.024
			 c0.611,0,1.182-0.118,1.713-0.355c0.531-0.237,0.941-0.555,1.231-0.955l-1.062-1.255c-0.414,0.515-0.988,0.772-1.724,0.772
			 c-0.446,0-0.809-0.12-1.089-0.359c-0.28-0.239-0.462-0.568-0.545-0.986h4.62v-0.903c0-1.163-0.303-2.069-0.91-2.72
			 C91.833,210.5,91.006,210.174,89.958,210.174z M91.075,213.318H88.73c0.129-0.901,0.533-1.351,1.213-1.351
			 c0.368,0,0.65,0.102,0.848,0.307c0.198,0.205,0.292,0.493,0.283,0.865V213.318z"/>
		 <path class="grey-fill" d="M98.271,210.174c-0.906,0-1.616,0.338-2.13,1.014l-0.076-0.876h-2.179v7.46h2.323v-5.268
			 c0.221-0.359,0.558-0.538,1.014-0.538c0.4,0,0.676,0.089,0.827,0.266c0.152,0.177,0.228,0.454,0.228,0.831v4.709h2.331v-4.806
			 c-0.014-0.933-0.213-1.632-0.596-2.096C99.628,210.406,99.048,210.174,98.271,210.174z"/>
		 <path class="grey-fill" d="M104.999,216.09c-0.299,0-0.499-0.055-0.6-0.165c-0.101-0.11-0.152-0.306-0.152-0.586v-3.413h1.227v-1.613
			 h-1.227v-1.855h-2.323v1.855h-0.951v1.613h0.951v3.702c0,0.768,0.191,1.34,0.572,1.717c0.382,0.377,0.972,0.565,1.772,0.565
			 c0.455,0,0.892-0.067,1.31-0.2v-1.662C105.422,216.076,105.229,216.09,104.999,216.09z"/>
		</a>
	<a id="stem-technology" href="/browse/stem-technologies/">
		<defs>
	 		<linearGradient id="stemGradient" x1="-10%" y1="0%" x2="60%" y2="100%">
		 		<stop offset="36%" style="stop-color:rgb(5,166,159);stop-opacity:1" />
		 		<stop offset="100%" style="stop-color:rgb(255,255,255);stop-opacity:0.75" />
	 		</linearGradient>
 		</defs>
		<path class="dial-select-option" fill="url(#stemGradient)" d="M200.725,11.597c-27.733,0-54.486,5.809-79.517,17.267c-24.173,11.065-45.443,26.771-63.22,46.682
		 	c-2.099,2.351-3.106,5.481-2.769,8.616c0.336,3.134,1.983,5.98,4.533,7.833l81.171,58.974c1.961,1.425,4.26,2.13,6.553,2.13
		 	c2.629,0,5.248-0.926,7.341-2.756c12.722-11.122,29.026-17.248,45.909-17.248c1.972,0,4.022,0.097,6.265,0.296
		 	c0.333,0.03,0.664,0.044,0.993,0.044c4.789,0,9.096-3.08,10.599-7.705l31.013-95.448c0.974-2.999,0.634-6.27-0.938-9.004
		 	s-4.227-4.674-7.309-5.341C228.04,13.057,214.373,11.597,200.725,11.597L200.725,11.597z"/>
		 <path class="grey-fill" d="M145.703,67.649c-0.625,0-1.077-0.128-1.355-0.383c-0.278-0.255-0.417-0.652-0.417-1.189h-2.427
			 c0,0.662,0.167,1.247,0.5,1.755c0.333,0.508,0.83,0.908,1.489,1.2c0.66,0.292,1.396,0.438,2.21,0.438
			 c1.154,0,2.062-0.25,2.723-0.752c0.662-0.501,0.993-1.19,0.993-2.068c0-1.099-0.542-1.96-1.627-2.586
			 c-0.446-0.257-1.016-0.497-1.71-0.72c-0.694-0.223-1.179-0.439-1.455-0.648c-0.276-0.209-0.414-0.442-0.414-0.7
			 c0-0.294,0.125-0.537,0.376-0.727c0.25-0.191,0.592-0.286,1.024-0.286c0.427,0,0.766,0.113,1.017,0.338
			 c0.25,0.225,0.376,0.542,0.376,0.951h2.413c0-0.611-0.159-1.155-0.476-1.631c-0.317-0.476-0.762-0.842-1.334-1.1
			 c-0.572-0.257-1.219-0.386-1.941-0.386c-0.74,0-1.406,0.118-1.999,0.355c-0.593,0.237-1.051,0.568-1.376,0.993
			 c-0.324,0.425-0.486,0.916-0.486,1.472c0,1.117,0.65,1.995,1.951,2.634c0.4,0.198,0.915,0.402,1.544,0.614
			 c0.63,0.211,1.07,0.416,1.32,0.614c0.25,0.198,0.376,0.473,0.376,0.827c0,0.313-0.116,0.555-0.348,0.727
			 C146.419,67.563,146.103,67.649,145.703,67.649z"/>
		 <polygon class="grey-fill" points="152.755,69.331 155.175,69.331 155.175,61.161 158.188,61.161 158.188,59.292 149.797,59.292
			 149.797,61.161 152.755,61.161 	"/>
		 <polygon class="grey-fill" points="165.771,67.47 161.275,67.47 161.275,65.07 165.081,65.07 165.081,63.278 161.275,63.278
			 161.275,61.161 165.784,61.161 165.784,59.292 158.855,59.292 158.855,69.331 165.771,69.331 	"/>
		 <polygon class="grey-fill" points="174.815,66.987 174.815,69.331 177.242,69.331 177.242,59.292 174.057,59.292 171.823,66.277
			 169.582,59.292 166.404,59.292 166.404,69.331 168.824,69.331 168.824,66.987 168.589,62.181 171.023,69.331 172.623,69.331
			 175.05,62.188 	"/>
		 <polygon class="grey-fill" points="123.861,78.105 126.819,78.105 126.819,86.276 129.239,86.276 129.239,78.105 132.252,78.105
			 132.252,76.237 123.861,76.237 	"/>
		 <path class="grey-fill" d="M136.174,78.678c-0.745,0-1.388,0.16-1.931,0.479c-0.542,0.32-0.955,0.771-1.238,1.355
			 c-0.283,0.584-0.424,1.257-0.424,2.02v0.193c0,1.094,0.354,1.982,1.062,2.665c0.708,0.683,1.634,1.024,2.779,1.024
			 c0.611,0,1.182-0.118,1.713-0.355c0.531-0.237,0.941-0.555,1.231-0.955l-1.062-1.255c-0.414,0.515-0.988,0.772-1.724,0.772
			 c-0.446,0-0.809-0.12-1.089-0.359c-0.28-0.239-0.462-0.568-0.545-0.986h4.62v-0.903c0-1.163-0.303-2.069-0.91-2.72
			 C138.049,79.003,137.222,78.678,136.174,78.678z M137.291,81.822h-2.344c0.129-0.901,0.533-1.351,1.213-1.351
			 c0.368,0,0.65,0.102,0.848,0.307s0.292,0.493,0.283,0.865V81.822z"/>
		 <path class="grey-fill" d="M143.281,80.47c0.317,0,0.57,0.103,0.758,0.31c0.188,0.207,0.283,0.503,0.283,0.889h2.179
			 c0-0.919-0.285-1.648-0.855-2.186c-0.57-0.538-1.34-0.807-2.31-0.807c-0.717,0-1.338,0.155-1.862,0.465
			 c-0.524,0.31-0.925,0.754-1.203,1.331c-0.278,0.577-0.417,1.242-0.417,1.996v0.097c0,1.204,0.312,2.147,0.938,2.827
			 c0.625,0.68,1.48,1.02,2.565,1.02c0.924,0,1.679-0.262,2.265-0.786c0.586-0.524,0.879-1.195,0.879-2.013h-2.179
			 c0.005,0.317-0.083,0.564-0.262,0.741c-0.179,0.177-0.432,0.266-0.758,0.266c-0.391,0-0.676-0.145-0.855-0.434
			 c-0.179-0.29-0.269-0.809-0.269-1.558c0-0.427,0.016-0.763,0.048-1.007C142.327,80.854,142.678,80.47,143.281,80.47z"/>
		 <path class="grey-fill" d="M151.305,78.678c-0.772,0-1.407,0.313-1.903,0.938v-3.93h-2.324v10.59h2.324v-5.35
			 c0.198-0.303,0.535-0.455,1.014-0.455c0.386,0,0.66,0.093,0.82,0.279c0.161,0.186,0.241,0.477,0.241,0.872v4.654h2.33v-4.709
			 c-0.009-0.951-0.223-1.671-0.641-2.158C152.748,78.921,152.128,78.678,151.305,78.678z"/>
		 <path class="grey-fill" d="M159.088,78.678c-0.906,0-1.616,0.338-2.13,1.014l-0.076-0.876h-2.179v7.46h2.324v-5.268
			 c0.221-0.359,0.558-0.538,1.013-0.538c0.4,0,0.676,0.089,0.827,0.265c0.152,0.177,0.228,0.454,0.228,0.831v4.709h2.331V81.47
			 c-0.014-0.933-0.213-1.632-0.596-2.096C160.445,78.91,159.864,78.678,159.088,78.678z"/>
		 <path class="grey-fill" d="M165.657,78.678c-0.731,0-1.368,0.156-1.91,0.469c-0.542,0.313-0.958,0.76-1.248,1.341
			 c-0.29,0.582-0.434,1.245-0.434,1.989l0.007,0.393c0.05,1.089,0.398,1.952,1.041,2.589c0.643,0.637,1.496,0.955,2.558,0.955
			 c1.103,0,1.978-0.341,2.623-1.024c0.646-0.683,0.969-1.605,0.969-2.768v-0.083c0-1.19-0.322-2.132-0.965-2.823
			 C167.654,79.024,166.774,78.678,165.657,78.678z M166.939,82.711c-0.018,1.273-0.441,1.91-1.269,1.91
			 c-0.423,0-0.742-0.161-0.958-0.483c-0.216-0.322-0.324-0.827-0.324-1.517l0.007-0.421c0.064-1.154,0.485-1.731,1.262-1.731
			 c0.855,0,1.282,0.669,1.282,2.006V82.711z"/>
		 <rect x="170.054" y="75.685" class="grey-fill" width="2.33" height="10.59"/>
		 <path class="grey-fill" d="M176.762,78.678c-0.731,0-1.368,0.156-1.91,0.469c-0.542,0.313-0.958,0.76-1.248,1.341
			 c-0.29,0.582-0.434,1.245-0.434,1.989l0.007,0.393c0.05,1.089,0.398,1.952,1.041,2.589c0.643,0.637,1.496,0.955,2.558,0.955
			 c1.103,0,1.978-0.341,2.623-1.024c0.646-0.683,0.969-1.605,0.969-2.768v-0.083c0-1.19-0.322-2.132-0.965-2.823
			 C178.759,79.024,177.879,78.678,176.762,78.678z M178.044,82.711c-0.018,1.273-0.441,1.91-1.269,1.91
			 c-0.423,0-0.742-0.161-0.958-0.483c-0.216-0.322-0.324-0.827-0.324-1.517l0.007-0.421c0.064-1.154,0.485-1.731,1.262-1.731
			 c0.855,0,1.282,0.669,1.282,2.006V82.711z"/>
		 <path class="grey-fill" d="M185.648,79.464c-0.437-0.524-1.044-0.786-1.82-0.786c-0.616,0-1.156,0.158-1.62,0.472
			 c-0.464,0.315-0.82,0.762-1.069,1.341c-0.248,0.579-0.372,1.246-0.372,2v0.083c0,1.168,0.28,2.099,0.841,2.796
			 c0.561,0.696,1.296,1.045,2.206,1.045c0.68,0,1.243-0.246,1.689-0.738v0.234c0,1.057-0.515,1.586-1.544,1.586
			 c-0.708,0-1.278-0.255-1.71-0.765l-0.972,1.365c0.271,0.331,0.663,0.6,1.176,0.807c0.513,0.207,1.042,0.31,1.589,0.31
			 c0.763,0,1.434-0.13,2.013-0.39c0.579-0.26,1.022-0.632,1.327-1.117c0.306-0.485,0.459-1.056,0.459-1.713v-7.177h-2.11
			 L185.648,79.464z M185.503,84.118c-0.23,0.336-0.595,0.503-1.096,0.503c-0.414,0-0.735-0.178-0.965-0.534
			 c-0.23-0.356-0.345-0.84-0.345-1.451c0-0.703,0.117-1.24,0.352-1.61c0.234-0.37,0.558-0.555,0.972-0.555
			 c0.496,0,0.857,0.17,1.082,0.51V84.118z"/>
		 <path class="grey-fill" d="M193.03,78.816l-1.241,4.206l-1.179-4.206h-2.482l2.592,7.535l-0.186,0.497
			 c-0.083,0.244-0.21,0.413-0.383,0.507c-0.172,0.094-0.422,0.141-0.748,0.141H189.1v1.655c0.335,0.092,0.655,0.137,0.958,0.137
			 c1.094,0,1.857-0.483,2.289-1.448l0.131-0.317l3.041-8.708H193.03z"/>
	</a>
	<a id="project-based-learning" href="/teq-blocks/">
		<defs>
	 		<linearGradient id="pblGradient" x1="-10%" y1="0%" x2="100%" y2="100%">
		 		<stop offset="36%" style="stop-color:rgb(131,157,206);stop-opacity:1" />
		 		<stop offset="100%" style="stop-color:rgb(255,255,255);stop-opacity:0.75" />
	 		</linearGradient>
 		</defs>
		 <path class="dial-select-option" fill="url(#pblGradient)" d="M273.26,26.809c-1.554,0-3.107,0.324-4.556,0.973c-2.877,1.288-5.075,3.734-6.049,6.732l-31.01,95.441
	 	 	c-1.606,4.944,0.417,10.342,4.877,13.013c16.302,9.761,28.058,25.941,32.253,44.39c1.154,5.076,5.667,8.679,10.874,8.679h100.337
	 	 	c3.149,0,6.151-1.332,8.265-3.666s3.142-5.453,2.831-8.587c-6.797-68.45-50.221-128.237-113.326-156.029
	 	 	C276.322,27.124,274.791,26.809,273.26,26.809L273.26,26.809z"/>
	 	<path class="grey-fill" d="M276.937,115.316c-0.591-0.283-1.27-0.424-2.037-0.424h-4.006v10.039h2.42v-3.406h1.544
	 		c1.223,0,2.184-0.293,2.885-0.879c0.701-0.586,1.051-1.369,1.051-2.348c0-0.662-0.162-1.254-0.486-1.775
	 		C277.985,116.001,277.527,115.598,276.937,115.316z M275.971,119.304c-0.246,0.234-0.603,0.352-1.072,0.352h-1.586v-2.896h1.613
	 		c0.437,0.005,0.781,0.147,1.034,0.427c0.253,0.28,0.379,0.655,0.379,1.124C276.34,118.739,276.217,119.07,275.971,119.304z"/>
	 	<path class="grey-fill" d="M284.178,117.415c-0.184-0.055-0.4-0.083-0.648-0.083c-0.699,0-1.243,0.365-1.634,1.096l-0.076-0.958h-2.179
	 		v7.46h2.323v-4.723c0.207-0.46,0.676-0.69,1.407-0.69l0.765,0.055L284.178,117.415z"/>
	 	<path class="grey-fill" d="M291.278,121.276v-0.083c0-1.19-0.322-2.131-0.965-2.823c-0.644-0.692-1.524-1.038-2.641-1.038
	 		c-0.731,0-1.367,0.156-1.91,0.469c-0.543,0.313-0.958,0.76-1.248,1.341c-0.29,0.582-0.434,1.245-0.434,1.989l0.007,0.393
	 		c0.051,1.089,0.398,1.952,1.041,2.589c0.643,0.637,1.496,0.955,2.558,0.955c1.103,0,1.978-0.341,2.623-1.024
	 		C290.955,123.362,291.278,122.439,291.278,121.276z M288.955,121.366c-0.018,1.273-0.441,1.91-1.269,1.91
	 		c-0.423,0-0.742-0.161-0.958-0.483c-0.216-0.322-0.324-0.827-0.324-1.517l0.007-0.421c0.064-1.154,0.485-1.731,1.262-1.731
	 		c0.855,0,1.282,0.669,1.282,2.006V121.366z"/>
	 	<path class="grey-fill" d="M292.118,125.172c0,0.639-0.322,0.958-0.965,0.958c-0.17,0-0.388-0.021-0.655-0.062v1.758
	 		c0.345,0.078,0.71,0.117,1.096,0.117c0.896,0,1.595-0.239,2.096-0.717c0.501-0.478,0.754-1.158,0.758-2.041v-7.715h-2.33V125.172z"
	 		/>
	 	<path class="grey-fill" d="M293.235,114.416c-0.382,0-0.692,0.106-0.931,0.317c-0.239,0.212-0.358,0.483-0.358,0.814
	 		c0,0.331,0.119,0.602,0.358,0.814s0.549,0.317,0.931,0.317s0.692-0.106,0.931-0.317c0.239-0.211,0.359-0.483,0.359-0.814
	 		c0-0.331-0.12-0.602-0.359-0.814C293.927,114.522,293.617,114.416,293.235,114.416z"/>
	 	<path class="grey-fill" d="M299.177,123.276c-0.446,0-0.809-0.119-1.089-0.358c-0.28-0.239-0.462-0.568-0.545-0.986h4.619v-0.903
	 		c0-1.163-0.303-2.069-0.91-2.72c-0.607-0.65-1.434-0.976-2.482-0.976c-0.745,0-1.388,0.16-1.931,0.479
	 		c-0.542,0.32-0.955,0.771-1.238,1.355c-0.283,0.584-0.424,1.257-0.424,2.02v0.193c0,1.094,0.354,1.982,1.062,2.665
	 		c0.708,0.683,1.634,1.024,2.779,1.024c0.611,0,1.182-0.118,1.713-0.355s0.941-0.555,1.231-0.955l-1.062-1.255
	 		C300.487,123.018,299.912,123.276,299.177,123.276z M298.756,119.125c0.368,0,0.65,0.102,0.848,0.307
	 		c0.198,0.205,0.292,0.493,0.283,0.865v0.179h-2.344C297.672,119.576,298.076,119.125,298.756,119.125z"/>
	 	<path class="grey-fill" d="M305.877,119.125c0.317,0,0.57,0.103,0.758,0.31c0.188,0.207,0.283,0.503,0.283,0.889h2.179
	 		c0-0.919-0.285-1.648-0.855-2.186c-0.57-0.538-1.34-0.807-2.31-0.807c-0.717,0-1.338,0.155-1.862,0.465
	 		c-0.524,0.31-0.925,0.754-1.203,1.331c-0.278,0.577-0.417,1.242-0.417,1.996v0.097c0,1.204,0.312,2.147,0.938,2.827
	 		c0.625,0.68,1.48,1.021,2.565,1.021c0.924,0,1.679-0.262,2.265-0.786c0.586-0.524,0.879-1.195,0.879-2.013h-2.179
	 		c0.005,0.317-0.083,0.564-0.262,0.741c-0.179,0.177-0.432,0.265-0.758,0.265c-0.391,0-0.676-0.145-0.855-0.434
	 		c-0.179-0.29-0.269-0.809-0.269-1.558c0-0.427,0.016-0.763,0.048-1.007C304.923,119.509,305.275,119.125,305.877,119.125z"/>
	 	<path class="grey-fill" d="M310.109,122.786c0,0.768,0.191,1.34,0.572,1.717c0.382,0.377,0.972,0.565,1.772,0.565
	 		c0.455,0,0.892-0.067,1.31-0.2v-1.662c-0.156,0.028-0.349,0.041-0.579,0.041c-0.299,0-0.499-0.055-0.6-0.165
	 		c-0.101-0.11-0.152-0.306-0.152-0.586v-3.413h1.227v-1.613h-1.227v-1.855h-2.323v1.855h-0.951v1.613h0.951V122.786z"/>
	 	<rect x="314.617" y="119.704" class="grey-fill" width="4.144" height="1.793"/>
	 	<path class="grey-fill" d="M327.168,124.175c0.623-0.494,0.934-1.233,0.934-2.217c0-0.542-0.14-1.002-0.421-1.379
	 		c-0.28-0.377-0.683-0.634-1.207-0.772c0.464-0.175,0.816-0.446,1.055-0.814c0.239-0.368,0.359-0.811,0.359-1.331
	 		c0-0.901-0.337-1.588-1.01-2.062c-0.673-0.473-1.656-0.71-2.947-0.71h-3.606v10.039h4.075
	 		C325.622,124.921,326.545,124.67,327.168,124.175z M322.745,116.753h1.186c0.542,0,0.935,0.093,1.179,0.28
	 		c0.244,0.187,0.365,0.492,0.365,0.916c0,0.369-0.113,0.648-0.338,0.837c-0.225,0.189-0.602,0.286-1.131,0.29h-1.262V116.753z
	 		 M322.745,123.069v-2.406h1.696c0.832,0.005,1.248,0.425,1.248,1.262c0,0.363-0.117,0.645-0.352,0.845
	 		c-0.234,0.2-0.57,0.3-1.007,0.3H322.745z"/>
	 	<path class="grey-fill" d="M335.498,124.93v-0.117c-0.202-0.363-0.308-0.887-0.317-1.572v-3.303c-0.014-0.809-0.297-1.446-0.848-1.91
	 		c-0.552-0.464-1.303-0.696-2.255-0.696c-0.951,0-1.734,0.225-2.348,0.675c-0.614,0.45-0.92,1.035-0.92,1.756h2.323
	 		c0-0.545,0.276-0.818,0.827-0.818c0.593,0,0.889,0.344,0.889,1.032v0.395h-0.717c-1.14,0-2.009,0.207-2.606,0.62
	 		c-0.598,0.414-0.896,1.025-0.896,1.834c0,0.644,0.246,1.178,0.738,1.603c0.492,0.425,1.089,0.638,1.793,0.638
	 		c0.768,0,1.365-0.269,1.793-0.807c0.064,0.294,0.138,0.517,0.221,0.669H335.498z M332.851,122.807
	 		c-0.083,0.156-0.22,0.296-0.41,0.42c-0.191,0.124-0.431,0.186-0.72,0.186c-0.221,0-0.402-0.065-0.545-0.197
	 		c-0.143-0.131-0.214-0.302-0.214-0.514c0-0.726,0.404-1.089,1.214-1.089h0.676V122.807z"/>
	 	<path class="grey-fill" d="M339,118.863c0.63,0,0.945,0.299,0.945,0.896h2.33c0-0.726-0.299-1.312-0.896-1.758
	 		c-0.598-0.446-1.388-0.669-2.372-0.669c-0.915,0-1.655,0.222-2.22,0.665s-0.848,1.008-0.848,1.693c0,0.386,0.099,0.729,0.297,1.027
	 		c0.198,0.299,0.485,0.553,0.862,0.762c0.377,0.209,0.855,0.378,1.434,0.507c0.579,0.129,0.972,0.253,1.179,0.372
	 		c0.207,0.12,0.31,0.278,0.31,0.476c0,0.207-0.079,0.375-0.238,0.503c-0.159,0.129-0.396,0.193-0.714,0.193
	 		c-0.345,0-0.627-0.079-0.848-0.238c-0.221-0.159-0.336-0.41-0.345-0.755h-2.172c0,0.437,0.14,0.853,0.421,1.248
	 		c0.28,0.395,0.671,0.708,1.172,0.938c0.501,0.23,1.071,0.345,1.71,0.345c0.961,0,1.743-0.214,2.348-0.641
	 		c0.604-0.427,0.907-0.981,0.907-1.662c0-0.997-0.561-1.689-1.682-2.075c-0.336-0.115-0.725-0.214-1.169-0.296
	 		c-0.444-0.083-0.766-0.188-0.969-0.317c-0.202-0.129-0.303-0.296-0.303-0.503c0-0.202,0.083-0.371,0.248-0.507
	 		C338.552,118.931,338.756,118.863,339,118.863z"/>
	 	<path class="grey-fill" d="M346.355,117.332c-0.745,0-1.388,0.16-1.931,0.479c-0.542,0.32-0.955,0.771-1.238,1.355
	 		c-0.283,0.584-0.424,1.257-0.424,2.02v0.193c0,1.094,0.354,1.982,1.062,2.665c0.708,0.683,1.634,1.024,2.779,1.024
	 		c0.611,0,1.182-0.118,1.713-0.355c0.531-0.237,0.941-0.555,1.231-0.955l-1.062-1.255c-0.414,0.515-0.988,0.772-1.724,0.772
	 		c-0.446,0-0.809-0.119-1.089-0.358c-0.28-0.239-0.462-0.568-0.545-0.986h4.62v-0.903c0-1.163-0.303-2.069-0.91-2.72
	 		C348.23,117.658,347.403,117.332,346.355,117.332z M347.472,120.476h-2.344c0.129-0.901,0.533-1.351,1.214-1.351
	 		c0.368,0,0.65,0.102,0.848,0.307c0.198,0.205,0.292,0.493,0.283,0.865V120.476z"/>
	 	<path class="grey-fill" d="M354.62,114.34v3.778c-0.455-0.524-1.016-0.786-1.682-0.786c-0.915,0-1.627,0.34-2.137,1.021
	 		c-0.51,0.68-0.765,1.611-0.765,2.792c0,1.255,0.26,2.222,0.779,2.903c0.519,0.68,1.223,1.021,2.11,1.021
	 		c0.735,0,1.342-0.313,1.82-0.938l0.117,0.8h2.089v-10.59H354.62z M354.62,122.628c-0.221,0.432-0.588,0.648-1.103,0.648
	 		c-0.772,0-1.158-0.662-1.158-1.986l0.007-0.427c0.06-1.158,0.448-1.737,1.165-1.737c0.515,0,0.878,0.221,1.089,0.662V122.628z"/>
	 	<polygon class="grey-fill" points="290.233,131.836 287.813,131.836 287.813,141.875 294.446,141.875 294.446,140.013 290.233,140.013
	 		"/>
	 	<path class="grey-fill" d="M298.368,134.277c-0.745,0-1.388,0.16-1.93,0.479c-0.542,0.32-0.955,0.771-1.238,1.355
	 		c-0.283,0.584-0.424,1.257-0.424,2.02v0.193c0,1.094,0.354,1.982,1.062,2.665c0.708,0.683,1.634,1.024,2.779,1.024
	 		c0.611,0,1.182-0.118,1.713-0.355s0.941-0.555,1.231-0.955l-1.062-1.255c-0.414,0.515-0.988,0.772-1.724,0.772
	 		c-0.446,0-0.809-0.119-1.089-0.358c-0.28-0.239-0.462-0.568-0.545-0.986h4.62v-0.903c0-1.163-0.303-2.069-0.91-2.72
	 		C300.243,134.602,299.416,134.277,298.368,134.277z M299.485,137.421h-2.344c0.129-0.901,0.533-1.351,1.213-1.351
	 		c0.368,0,0.65,0.102,0.848,0.307c0.198,0.205,0.292,0.493,0.283,0.865V137.421z"/>
	 	<path class="grey-fill" d="M308.55,136.883c-0.014-0.809-0.297-1.446-0.848-1.91c-0.552-0.464-1.303-0.696-2.255-0.696
	 		c-0.951,0-1.734,0.225-2.348,0.675c-0.614,0.45-0.92,1.035-0.92,1.756h2.323c0-0.545,0.276-0.818,0.827-0.818
	 		c0.593,0,0.889,0.344,0.889,1.032v0.395h-0.717c-1.14,0-2.009,0.207-2.606,0.62c-0.598,0.414-0.896,1.025-0.896,1.834
	 		c0,0.644,0.246,1.178,0.738,1.603c0.492,0.425,1.089,0.638,1.793,0.638c0.768,0,1.365-0.269,1.793-0.807
	 		c0.064,0.294,0.138,0.517,0.221,0.669h2.323v-0.117c-0.202-0.363-0.308-0.887-0.317-1.572V136.883z M306.219,139.751
	 		c-0.083,0.156-0.219,0.296-0.41,0.421c-0.191,0.124-0.431,0.186-0.72,0.186c-0.221,0-0.402-0.065-0.545-0.197
	 		c-0.143-0.131-0.214-0.302-0.214-0.514c0-0.726,0.404-1.089,1.214-1.089h0.676V139.751z"/>
	 	<path class="grey-fill" d="M311.754,135.373l-0.076-0.958H309.5v7.46h2.324v-4.723c0.207-0.46,0.676-0.69,1.407-0.69l0.765,0.055
	 		l0.041-2.158c-0.184-0.055-0.4-0.083-0.648-0.083C312.69,134.277,312.145,134.642,311.754,135.373z"/>
	 	<path class="grey-fill" d="M318.82,134.277c-0.906,0-1.616,0.338-2.13,1.014l-0.076-0.876h-2.179v7.46h2.323v-5.268
	 		c0.221-0.359,0.558-0.538,1.014-0.538c0.4,0,0.676,0.089,0.827,0.265s0.228,0.454,0.228,0.831v4.709h2.33v-4.806
	 		c-0.014-0.933-0.213-1.632-0.596-2.096C320.177,134.509,319.597,134.277,318.82,134.277z"/>
	 	<path class="grey-fill" d="M323.362,131.36c-0.382,0-0.692,0.106-0.931,0.317c-0.239,0.211-0.358,0.483-0.358,0.814
	 		c0,0.331,0.12,0.602,0.358,0.814c0.239,0.211,0.549,0.317,0.931,0.317c0.381,0,0.692-0.106,0.931-0.317
	 		c0.239-0.211,0.359-0.483,0.359-0.814c0-0.331-0.12-0.602-0.359-0.814C324.054,131.466,323.744,131.36,323.362,131.36z"/>
	 	<rect x="322.211" y="134.415" class="grey-fill" width="2.331" height="7.46"/>
	 	<path class="grey-fill" d="M329.959,134.277c-0.906,0-1.616,0.338-2.13,1.014l-0.076-0.876h-2.179v7.46h2.324v-5.268
	 		c0.221-0.359,0.558-0.538,1.013-0.538c0.4,0,0.676,0.089,0.827,0.265c0.152,0.177,0.228,0.454,0.228,0.831v4.709h2.331v-4.806
	 		c-0.014-0.933-0.213-1.632-0.596-2.096C331.316,134.509,330.736,134.277,329.959,134.277z"/>
	 	<path class="grey-fill" d="M337.839,135.063c-0.437-0.524-1.043-0.786-1.82-0.786c-0.616,0-1.156,0.158-1.62,0.472
	 		c-0.464,0.315-0.82,0.762-1.069,1.341c-0.248,0.579-0.372,1.246-0.372,2v0.083c0,1.168,0.28,2.099,0.841,2.796
	 		c0.561,0.696,1.296,1.045,2.206,1.045c0.68,0,1.243-0.246,1.689-0.738v0.234c0,1.057-0.515,1.586-1.544,1.586
	 		c-0.708,0-1.278-0.255-1.71-0.765l-0.972,1.365c0.271,0.331,0.663,0.6,1.176,0.807c0.512,0.207,1.042,0.31,1.589,0.31
	 		c0.763,0,1.434-0.13,2.013-0.39c0.579-0.26,1.021-0.632,1.327-1.117c0.306-0.485,0.458-1.056,0.458-1.713v-7.177h-2.11
	 		L337.839,135.063z M337.694,139.717c-0.23,0.336-0.595,0.503-1.096,0.503c-0.414,0-0.736-0.178-0.965-0.534
	 		c-0.23-0.356-0.345-0.84-0.345-1.451c0-0.703,0.117-1.24,0.352-1.61c0.234-0.37,0.558-0.555,0.972-0.555
	 		c0.496,0,0.857,0.17,1.083,0.51V139.717z"/>
	 </a>
	<a id="educational-technology" href="/browse/educational-technology/">
		<defs>
	 		<linearGradient id="edtechGradient" x1="-10%" y1="0%" x2="60%" y2="100%">
		 		<stop offset="36%" style="stop-color:rgb(140,207,86);stop-opacity:1" />
		 		<stop offset="100%" style="stop-color:rgb(255,255,255);stop-opacity:0.75" />
	 		</linearGradient>
 		</defs>
		<path class="dial-select-option" fill="url(#edtechGradient)" d="M379.984,220.917h0.006 M379.99,209.766h-0.006H279.647c-5.206,0-9.719,3.602-10.874,8.679
		 	c-4.195,18.449-15.95,34.629-32.253,44.39c-4.46,2.671-6.483,8.069-4.877,13.013l31.01,95.441c0.974,2.998,3.172,5.444,6.049,6.732
		 	c1.449,0.649,3.003,0.973,4.556,0.973c1.531,0,3.062-0.315,4.494-0.946c63.009-27.75,106.397-87.395,113.295-155.714
		 	c0.059-0.464,0.089-0.937,0.089-1.417C391.138,214.758,386.148,209.766,379.99,209.766L379.99,209.766z M379.984,232.068h0.006
		 	H379.984L379.984,232.068z"/>
	 	<polygon class="grey-fill" points="281.619,275.746 277.124,275.746 277.124,273.347 280.93,273.347 280.93,271.554 277.124,271.554
	 		277.124,269.437 281.633,269.437 281.633,267.569 274.704,267.569 274.704,277.608 281.619,277.608 	"/>
	 	<path class="grey-fill" d="M284.741,277.746c0.735,0,1.342-0.313,1.82-0.938l0.117,0.8h2.089v-10.59h-2.33v3.778
	 		c-0.455-0.524-1.016-0.786-1.682-0.786c-0.915,0-1.627,0.34-2.137,1.021c-0.51,0.68-0.765,1.611-0.765,2.792
	 		c0,1.255,0.26,2.222,0.779,2.903C283.151,277.405,283.854,277.746,284.741,277.746z M284.183,273.54
	 		c0.06-1.158,0.448-1.737,1.165-1.737c0.515,0,0.878,0.221,1.089,0.662v2.841c-0.221,0.432-0.589,0.648-1.103,0.648
	 		c-0.772,0-1.158-0.662-1.158-1.986L284.183,273.54z"/>
	 	<path class="grey-fill" d="M292.186,277.746c0.837,0,1.501-0.315,1.993-0.945l0.069,0.807h2.179v-7.46h-2.337v5.233
	 		c-0.225,0.382-0.604,0.572-1.138,0.572c-0.62,0-0.931-0.319-0.931-0.958v-4.847h-2.324v4.833c0,0.892,0.21,1.575,0.631,2.051
	 		C290.749,277.508,291.368,277.746,292.186,277.746z"/>
	 	<path class="grey-fill" d="M300.555,277.746c0.924,0,1.679-0.262,2.265-0.786c0.586-0.524,0.879-1.195,0.879-2.013h-2.179
	 		c0.005,0.317-0.083,0.564-0.262,0.741c-0.179,0.177-0.432,0.265-0.758,0.265c-0.391,0-0.676-0.145-0.855-0.434
	 		c-0.179-0.29-0.269-0.809-0.269-1.558c0-0.427,0.016-0.763,0.048-1.007c0.101-0.768,0.453-1.151,1.055-1.151
	 		c0.317,0,0.57,0.103,0.758,0.31c0.188,0.207,0.283,0.503,0.283,0.889h2.179c0-0.919-0.285-1.648-0.855-2.186
	 		c-0.57-0.538-1.34-0.807-2.31-0.807c-0.717,0-1.338,0.155-1.862,0.465c-0.524,0.31-0.925,0.754-1.203,1.331
	 		c-0.278,0.577-0.417,1.242-0.417,1.996v0.097c0,1.204,0.312,2.147,0.938,2.827C298.615,277.405,299.47,277.746,300.555,277.746z"/>
	 	<path class="grey-fill" d="M307.49,273.05c-1.14,0-2.009,0.207-2.606,0.62c-0.598,0.414-0.896,1.025-0.896,1.834
	 		c0,0.644,0.246,1.178,0.738,1.603c0.492,0.425,1.089,0.638,1.793,0.638c0.768,0,1.365-0.269,1.793-0.807
	 		c0.064,0.294,0.138,0.517,0.221,0.669h2.323v-0.117c-0.202-0.363-0.308-0.887-0.317-1.572v-3.303
	 		c-0.014-0.809-0.296-1.446-0.848-1.91c-0.552-0.464-1.303-0.696-2.255-0.696c-0.951,0-1.734,0.225-2.348,0.675
	 		c-0.614,0.45-0.92,1.035-0.92,1.756h2.324c0-0.545,0.276-0.818,0.827-0.818c0.593,0,0.889,0.344,0.889,1.032v0.395H307.49z
	 		 M308.207,275.484c-0.083,0.156-0.22,0.296-0.41,0.42c-0.191,0.124-0.431,0.186-0.721,0.186c-0.221,0-0.402-0.065-0.545-0.197
	 		c-0.143-0.131-0.214-0.302-0.214-0.514c0-0.726,0.404-1.089,1.213-1.089h0.676V275.484z"/>
	 	<path class="grey-fill" d="M312.425,277.18c0.381,0.377,0.972,0.565,1.772,0.565c0.455,0,0.892-0.067,1.31-0.2v-1.662
	 		c-0.156,0.028-0.349,0.041-0.579,0.041c-0.299,0-0.499-0.055-0.6-0.165c-0.101-0.11-0.152-0.306-0.152-0.586v-3.413h1.227v-1.613
	 		h-1.227v-1.855h-2.324v1.855h-0.952v1.613h0.952v3.702C311.853,276.231,312.044,276.803,312.425,277.18z"/>
	 	<path class="grey-fill" d="M317.236,269.355c0.381,0,0.692-0.106,0.931-0.317c0.239-0.211,0.359-0.483,0.359-0.814
	 		c0-0.331-0.12-0.602-0.359-0.814c-0.239-0.211-0.549-0.317-0.931-0.317c-0.382,0-0.692,0.106-0.931,0.317
	 		c-0.239,0.212-0.359,0.483-0.359,0.814c0,0.331,0.12,0.602,0.359,0.814C316.544,269.249,316.855,269.355,317.236,269.355z"/>
	 	<rect x="316.085" y="270.148" class="grey-fill" width="2.33" height="7.46"/>
	 	<path class="grey-fill" d="M326.398,273.953v-0.083c0-1.19-0.322-2.131-0.965-2.823c-0.644-0.692-1.524-1.038-2.641-1.038
	 		c-0.731,0-1.368,0.156-1.91,0.469c-0.542,0.313-0.958,0.76-1.248,1.341c-0.29,0.582-0.434,1.245-0.434,1.989l0.007,0.393
	 		c0.05,1.089,0.397,1.952,1.041,2.589c0.643,0.637,1.496,0.955,2.558,0.955c1.103,0,1.978-0.341,2.623-1.024
	 		C326.075,276.039,326.398,275.116,326.398,273.953z M324.075,274.043c-0.018,1.273-0.441,1.91-1.269,1.91
	 		c-0.423,0-0.742-0.161-0.958-0.483c-0.216-0.322-0.324-0.827-0.324-1.517l0.007-0.421c0.064-1.154,0.485-1.731,1.262-1.731
	 		c0.855,0,1.282,0.669,1.282,2.006V274.043z"/>
	 	<path class="grey-fill" d="M331.416,272.899v4.709h2.33v-4.806c-0.014-0.933-0.213-1.632-0.596-2.096
	 		c-0.384-0.464-0.964-0.696-1.741-0.696c-0.906,0-1.616,0.338-2.13,1.014l-0.076-0.876h-2.179v7.46h2.324v-5.268
	 		c0.221-0.359,0.558-0.538,1.013-0.538c0.4,0,0.676,0.089,0.827,0.265S331.416,272.522,331.416,272.899z"/>
	 	<path class="grey-fill" d="M337.841,273.05c-1.14,0-2.009,0.207-2.606,0.62c-0.598,0.414-0.896,1.025-0.896,1.834
	 		c0,0.644,0.246,1.178,0.738,1.603c0.492,0.425,1.089,0.638,1.793,0.638c0.768,0,1.365-0.269,1.793-0.807
	 		c0.064,0.294,0.138,0.517,0.221,0.669h2.323v-0.117c-0.202-0.363-0.308-0.887-0.317-1.572v-3.303
	 		c-0.014-0.809-0.296-1.446-0.848-1.91c-0.552-0.464-1.303-0.696-2.255-0.696c-0.951,0-1.734,0.225-2.348,0.675
	 		c-0.614,0.45-0.92,1.035-0.92,1.756h2.324c0-0.545,0.276-0.818,0.827-0.818c0.593,0,0.889,0.344,0.889,1.032v0.395H337.841z
	 		 M338.558,275.484c-0.083,0.156-0.22,0.296-0.41,0.42c-0.191,0.124-0.431,0.186-0.72,0.186c-0.221,0-0.402-0.065-0.545-0.197
	 		c-0.143-0.131-0.214-0.302-0.214-0.514c0-0.726,0.404-1.089,1.213-1.089h0.676V275.484z"/>
	 	<rect x="341.942" y="267.017" class="grey-fill" width="2.33" height="10.59"/>
	 	<polygon class="grey-fill" points="273.817,286.382 276.775,286.382 276.775,294.552 279.195,294.552 279.195,286.382 282.208,286.382
	 		282.208,284.513 273.817,284.513 	"/>
	 	<path class="grey-fill" d="M286.13,286.954c-0.745,0-1.388,0.16-1.931,0.479c-0.542,0.32-0.955,0.771-1.238,1.355
	 		c-0.283,0.584-0.424,1.257-0.424,2.02v0.193c0,1.094,0.354,1.982,1.062,2.665c0.708,0.683,1.634,1.024,2.779,1.024
	 		c0.611,0,1.182-0.118,1.713-0.355s0.941-0.555,1.231-0.955l-1.062-1.255c-0.414,0.515-0.988,0.772-1.724,0.772
	 		c-0.446,0-0.809-0.12-1.089-0.359c-0.28-0.239-0.462-0.568-0.545-0.986h4.619v-0.903c0-1.163-0.303-2.069-0.91-2.72
	 		C288.005,287.279,287.178,286.954,286.13,286.954z M287.247,290.098h-2.344c0.129-0.901,0.533-1.351,1.214-1.351
	 		c0.368,0,0.65,0.102,0.848,0.307c0.198,0.205,0.292,0.493,0.283,0.865V290.098z"/>
	 	<path class="grey-fill" d="M293.237,288.747c0.317,0,0.57,0.103,0.758,0.31c0.188,0.207,0.283,0.503,0.283,0.889h2.179
	 		c0-0.919-0.285-1.648-0.855-2.186c-0.57-0.538-1.34-0.807-2.31-0.807c-0.717,0-1.338,0.155-1.862,0.465
	 		c-0.524,0.31-0.925,0.754-1.203,1.331c-0.278,0.577-0.417,1.242-0.417,1.996v0.097c0,1.204,0.312,2.147,0.938,2.827
	 		c0.625,0.68,1.48,1.021,2.565,1.021c0.924,0,1.679-0.262,2.265-0.786c0.586-0.524,0.879-1.195,0.879-2.013h-2.179
	 		c0.004,0.317-0.083,0.564-0.262,0.741c-0.179,0.177-0.432,0.266-0.758,0.266c-0.391,0-0.676-0.145-0.855-0.434
	 		c-0.179-0.29-0.269-0.809-0.269-1.558c0-0.427,0.016-0.763,0.048-1.007C292.283,289.131,292.635,288.747,293.237,288.747z"/>
	 	<path class="grey-fill" d="M301.261,286.954c-0.772,0-1.407,0.313-1.903,0.938v-3.93h-2.323v10.59h2.323v-5.35
	 		c0.198-0.303,0.535-0.455,1.014-0.455c0.386,0,0.659,0.093,0.82,0.279c0.161,0.186,0.241,0.477,0.241,0.872v4.654h2.33v-4.709
	 		c-0.009-0.951-0.223-1.671-0.641-2.158C302.704,287.198,302.084,286.954,301.261,286.954z"/>
	 	<path class="grey-fill" d="M309.044,286.954c-0.906,0-1.616,0.338-2.13,1.014l-0.076-0.876h-2.179v7.46h2.323v-5.268
	 		c0.221-0.359,0.558-0.538,1.013-0.538c0.4,0,0.676,0.089,0.827,0.265c0.152,0.177,0.227,0.454,0.227,0.831v4.709h2.331v-4.806
	 		c-0.014-0.933-0.213-1.632-0.596-2.096C310.401,287.186,309.821,286.954,309.044,286.954z"/>
	 	<path class="grey-fill" d="M315.613,286.954c-0.731,0-1.368,0.156-1.91,0.469c-0.542,0.313-0.958,0.76-1.248,1.341
	 		c-0.29,0.582-0.434,1.245-0.434,1.989l0.007,0.393c0.05,1.089,0.397,1.952,1.041,2.589c0.643,0.637,1.496,0.955,2.558,0.955
	 		c1.103,0,1.978-0.341,2.623-1.024c0.646-0.683,0.969-1.605,0.969-2.768v-0.083c0-1.19-0.322-2.132-0.965-2.823
	 		C317.61,287.3,316.73,286.954,315.613,286.954z M316.896,290.988c-0.018,1.273-0.441,1.91-1.269,1.91
	 		c-0.423,0-0.742-0.161-0.958-0.483c-0.216-0.322-0.324-0.827-0.324-1.517l0.007-0.421c0.064-1.154,0.485-1.731,1.262-1.731
	 		c0.855,0,1.282,0.669,1.282,2.006V290.988z"/>
	 	<rect x="320.011" y="283.962" class="grey-fill" width="2.33" height="10.59"/>
	 	<path class="grey-fill" d="M326.718,286.954c-0.731,0-1.368,0.156-1.91,0.469c-0.542,0.313-0.958,0.76-1.248,1.341
	 		c-0.29,0.582-0.434,1.245-0.434,1.989l0.007,0.393c0.05,1.089,0.397,1.952,1.041,2.589c0.643,0.637,1.496,0.955,2.558,0.955
	 		c1.103,0,1.978-0.341,2.623-1.024c0.646-0.683,0.969-1.605,0.969-2.768v-0.083c0-1.19-0.322-2.132-0.965-2.823
	 		C328.715,287.3,327.835,286.954,326.718,286.954z M328,290.988c-0.018,1.273-0.441,1.91-1.269,1.91
	 		c-0.423,0-0.742-0.161-0.958-0.483c-0.216-0.322-0.324-0.827-0.324-1.517l0.007-0.421c0.064-1.154,0.485-1.731,1.262-1.731
	 		c0.855,0,1.282,0.669,1.282,2.006V290.988z"/>
	 	<path class="grey-fill" d="M335.604,287.74c-0.437-0.524-1.043-0.786-1.82-0.786c-0.616,0-1.156,0.158-1.62,0.472
	 		c-0.464,0.315-0.82,0.762-1.069,1.341c-0.248,0.579-0.372,1.246-0.372,2v0.083c0,1.168,0.28,2.099,0.841,2.796
	 		c0.561,0.696,1.296,1.045,2.206,1.045c0.68,0,1.243-0.246,1.689-0.738v0.234c0,1.057-0.515,1.586-1.544,1.586
	 		c-0.708,0-1.278-0.255-1.71-0.765l-0.972,1.365c0.271,0.331,0.663,0.6,1.176,0.807c0.512,0.207,1.042,0.31,1.589,0.31
	 		c0.763,0,1.434-0.13,2.013-0.39c0.579-0.26,1.021-0.632,1.327-1.117c0.306-0.485,0.459-1.056,0.459-1.713v-7.177h-2.11
	 		L335.604,287.74z M335.459,292.394c-0.23,0.336-0.595,0.503-1.096,0.503c-0.414,0-0.735-0.178-0.965-0.534
	 		c-0.23-0.356-0.345-0.84-0.345-1.451c0-0.703,0.117-1.24,0.352-1.61c0.234-0.37,0.558-0.555,0.972-0.555
	 		c0.496,0,0.857,0.17,1.082,0.51V292.394z"/>
	 	<path class="grey-fill" d="M342.987,287.092l-1.241,4.206l-1.179-4.206h-2.482l2.592,7.535l-0.186,0.497
	 		c-0.083,0.244-0.21,0.413-0.383,0.507c-0.172,0.094-0.422,0.141-0.748,0.141h-0.303v1.655c0.335,0.092,0.655,0.137,0.958,0.137
	 		c1.094,0,1.857-0.483,2.289-1.448l0.131-0.317l3.041-8.708H342.987z"/>
	 </a>
	<a id="active-learning-spaces" href="/browse/active-learning-spaces">
		<defs>
	 		<linearGradient id="activelearningGradient" x1="-10%" y1="0%" x2="90%" y2="100%">
		 		<stop offset="36%" style="stop-color:rgb(239,63,135);stop-opacity:1" />
		 		<stop offset="100%" style="stop-color:rgb(255,255,255);stop-opacity:0.75" />
	 		</linearGradient>
 		</defs>
		<path class="dial-select-option" fill="url(#activelearningGradient)" d="M147.475,252.705c-2.293,0-4.591,0.705-6.553,2.13l-81.171,58.974c-2.55,1.853-4.197,4.698-4.533,7.832
		 	c-0.336,3.134,0.67,6.264,2.769,8.616c17.777,19.911,39.047,35.617,63.22,46.682c25.031,11.457,51.784,17.267,79.517,17.267
		 	c13.648,0,27.315-1.46,40.623-4.338c3.082-0.667,5.738-2.607,7.309-5.341c1.572-2.734,1.913-6.005,0.938-9.004l-31.013-95.448
		 	c-1.503-4.625-5.81-7.705-10.599-7.705c-0.329,0-0.66,0.014-0.993,0.044c-2.243,0.199-4.293,0.296-6.265,0.296
		 	c-16.883,0-33.187-6.125-45.909-17.248C152.723,253.632,150.103,252.705,147.475,252.705L147.475,252.705z"/>
	 	<path class="grey-fill" d="M111.447,320.521l-3.682,10.039h2.586l0.579-1.875h3.316l0.586,1.875h2.599l-3.709-10.039H111.447z
	 		 M111.509,326.815l1.076-3.482l1.083,3.482H111.509z"/>
	 	<path class="grey-fill" d="M120.837,324.754c0.317,0,0.57,0.103,0.758,0.31c0.188,0.207,0.283,0.503,0.283,0.889h2.179
	 		c0-0.919-0.285-1.648-0.855-2.186c-0.57-0.538-1.34-0.807-2.31-0.807c-0.717,0-1.338,0.155-1.862,0.465
	 		c-0.524,0.31-0.925,0.754-1.203,1.331c-0.278,0.577-0.417,1.242-0.417,1.996v0.096c0,1.204,0.313,2.147,0.938,2.827
	 		c0.625,0.68,1.48,1.02,2.565,1.02c0.924,0,1.679-0.262,2.265-0.786c0.586-0.524,0.879-1.195,0.879-2.013h-2.179
	 		c0.005,0.317-0.083,0.564-0.262,0.741c-0.179,0.177-0.432,0.265-0.758,0.265c-0.391,0-0.676-0.145-0.855-0.434
	 		c-0.179-0.29-0.269-0.809-0.269-1.558c0-0.427,0.016-0.763,0.048-1.007C119.883,325.138,120.234,324.754,120.837,324.754z"/>
	 	<path class="grey-fill" d="M127.544,328.712c-0.101-0.11-0.152-0.306-0.152-0.586v-3.413h1.227v-1.613h-1.227v-1.855h-2.324v1.855h-0.951
	 		v1.613h0.951v3.703c0,0.768,0.191,1.34,0.572,1.717c0.381,0.377,0.972,0.565,1.772,0.565c0.455,0,0.892-0.067,1.31-0.2v-1.662
	 		c-0.156,0.028-0.349,0.041-0.579,0.041C127.845,328.877,127.645,328.822,127.544,328.712z"/>
	 	<rect x="129.301" y="323.099" class="grey-fill" width="2.33" height="7.46"/>
	 	<path class="grey-fill" d="M130.452,320.045c-0.382,0-0.692,0.106-0.931,0.317c-0.239,0.212-0.359,0.483-0.359,0.814
	 		c0,0.331,0.12,0.602,0.359,0.814c0.239,0.211,0.549,0.317,0.931,0.317s0.692-0.106,0.931-0.317
	 		c0.239-0.211,0.359-0.483,0.359-0.814c0-0.331-0.12-0.602-0.359-0.814C131.144,320.151,130.833,320.045,130.452,320.045z"/>
	 	<polygon class="grey-fill" points="136.876,330.559 139.31,323.099 136.863,323.099 135.684,327.794 134.525,323.099 132.071,323.099
	 		134.505,330.559 	"/>
	 	<path class="grey-fill" d="M143.26,330.697c0.611,0,1.182-0.118,1.713-0.355c0.531-0.237,0.941-0.555,1.231-0.955l-1.062-1.255
	 		c-0.414,0.515-0.988,0.772-1.724,0.772c-0.446,0-0.809-0.12-1.089-0.358c-0.28-0.239-0.462-0.568-0.545-0.986h4.619v-0.903
	 		c0-1.163-0.303-2.069-0.91-2.72c-0.607-0.65-1.434-0.976-2.482-0.976c-0.745,0-1.388,0.16-1.931,0.479
	 		c-0.542,0.32-0.955,0.771-1.238,1.355c-0.283,0.584-0.424,1.257-0.424,2.02v0.193c0,1.094,0.354,1.982,1.062,2.665
	 		C141.189,330.356,142.115,330.697,143.26,330.697z M142.998,324.754c0.368,0,0.65,0.102,0.848,0.307
	 		c0.198,0.205,0.292,0.493,0.283,0.865v0.179h-2.344C141.913,325.204,142.317,324.754,142.998,324.754z"/>
	 	<polygon class="grey-fill" points="156.888,328.698 152.675,328.698 152.675,320.521 150.255,320.521 150.255,330.559 156.888,330.559
	 		"/>
	 	<path class="grey-fill" d="M162.94,328.132c-0.414,0.515-0.988,0.772-1.724,0.772c-0.446,0-0.809-0.12-1.089-0.358
	 		c-0.28-0.239-0.462-0.568-0.545-0.986h4.619v-0.903c0-1.163-0.303-2.069-0.91-2.72c-0.607-0.65-1.434-0.976-2.482-0.976
	 		c-0.745,0-1.388,0.16-1.93,0.479c-0.542,0.32-0.955,0.771-1.238,1.355c-0.283,0.584-0.424,1.257-0.424,2.02v0.193
	 		c0,1.094,0.354,1.982,1.062,2.665c0.708,0.683,1.634,1.024,2.779,1.024c0.611,0,1.182-0.118,1.713-0.355
	 		c0.531-0.237,0.941-0.555,1.231-0.955L162.94,328.132z M160.796,324.754c0.368,0,0.65,0.102,0.848,0.307
	 		c0.198,0.205,0.292,0.493,0.283,0.865v0.179h-2.344C159.711,325.204,160.115,324.754,160.796,324.754z"/>
	 	<path class="grey-fill" d="M167.944,326.002c-1.14,0-2.009,0.207-2.606,0.621c-0.598,0.414-0.896,1.025-0.896,1.834
	 		c0,0.644,0.246,1.178,0.738,1.603c0.492,0.425,1.089,0.638,1.793,0.638c0.768,0,1.365-0.269,1.793-0.807
	 		c0.064,0.294,0.138,0.517,0.221,0.669h2.324v-0.117c-0.202-0.363-0.308-0.887-0.317-1.572v-3.303
	 		c-0.014-0.809-0.296-1.446-0.848-1.91c-0.552-0.464-1.303-0.696-2.255-0.696s-1.734,0.225-2.348,0.675
	 		c-0.614,0.45-0.92,1.035-0.92,1.756h2.323c0-0.545,0.276-0.818,0.827-0.818c0.593,0,0.889,0.344,0.889,1.032v0.395H167.944z
	 		 M168.661,328.436c-0.083,0.156-0.22,0.296-0.41,0.421c-0.191,0.124-0.431,0.186-0.72,0.186c-0.221,0-0.402-0.065-0.545-0.197
	 		c-0.143-0.131-0.214-0.302-0.214-0.514c0-0.726,0.404-1.089,1.214-1.089h0.676V328.436z"/>
	 	<path class="grey-fill" d="M174.265,325.836c0.207-0.46,0.676-0.69,1.407-0.69l0.765,0.055l0.041-2.158
	 		c-0.184-0.055-0.4-0.083-0.648-0.083c-0.699,0-1.243,0.365-1.634,1.096l-0.076-0.958h-2.179v7.46h2.324V325.836z"/>
	 	<path class="grey-fill" d="M181.262,322.961c-0.906,0-1.616,0.338-2.13,1.014l-0.076-0.876h-2.179v7.46h2.323v-5.268
	 		c0.221-0.359,0.558-0.538,1.013-0.538c0.4,0,0.676,0.089,0.827,0.265c0.152,0.177,0.227,0.454,0.227,0.831v4.709h2.331v-4.806
	 		c-0.014-0.933-0.213-1.632-0.596-2.096C182.619,323.193,182.039,322.961,181.262,322.961z"/>
	 	<rect x="184.653" y="323.099" class="grey-fill" width="2.33" height="7.46"/>
	 	<path class="grey-fill" d="M185.804,320.045c-0.382,0-0.692,0.106-0.931,0.317c-0.239,0.212-0.358,0.483-0.358,0.814
	 		c0,0.331,0.119,0.602,0.358,0.814c0.239,0.211,0.549,0.317,0.931,0.317c0.381,0,0.692-0.106,0.931-0.317
	 		c0.239-0.211,0.358-0.483,0.358-0.814c0-0.331-0.12-0.602-0.358-0.814C186.496,320.151,186.186,320.045,185.804,320.045z"/>
	 	<path class="grey-fill" d="M192.401,322.961c-0.906,0-1.616,0.338-2.13,1.014l-0.076-0.876h-2.179v7.46h2.324v-5.268
	 		c0.221-0.359,0.558-0.538,1.013-0.538c0.4,0,0.676,0.089,0.827,0.265s0.228,0.454,0.228,0.831v4.709h2.33v-4.806
	 		c-0.014-0.933-0.213-1.632-0.596-2.096C193.758,323.193,193.178,322.961,192.401,322.961z"/>
	 	<path class="grey-fill" d="M200.363,323.099l-0.083,0.648c-0.437-0.524-1.043-0.786-1.82-0.786c-0.616,0-1.156,0.158-1.62,0.472
	 		c-0.464,0.315-0.82,0.762-1.069,1.341c-0.248,0.579-0.372,1.246-0.372,2v0.083c0,1.168,0.28,2.099,0.841,2.796
	 		c0.561,0.696,1.296,1.045,2.206,1.045c0.68,0,1.243-0.246,1.689-0.738v0.234c0,1.057-0.515,1.586-1.544,1.586
	 		c-0.708,0-1.278-0.255-1.71-0.765l-0.972,1.365c0.271,0.331,0.663,0.6,1.176,0.807c0.512,0.207,1.042,0.31,1.589,0.31
	 		c0.763,0,1.434-0.13,2.013-0.39c0.579-0.26,1.021-0.632,1.327-1.117c0.306-0.485,0.458-1.056,0.458-1.713v-7.177H200.363z
	 		 M200.136,328.401c-0.23,0.336-0.595,0.503-1.096,0.503c-0.414,0-0.736-0.178-0.965-0.534c-0.23-0.356-0.345-0.84-0.345-1.451
	 		c0-0.703,0.117-1.24,0.352-1.61c0.234-0.37,0.558-0.555,0.972-0.555c0.496,0,0.857,0.17,1.082,0.51V328.401z"/>
	 	<path class="grey-fill" d="M137.627,339.154c0.427,0,0.766,0.113,1.017,0.338c0.25,0.225,0.376,0.542,0.376,0.951h2.413
	 		c0-0.611-0.159-1.155-0.476-1.631c-0.317-0.476-0.762-0.842-1.334-1.1c-0.572-0.257-1.219-0.386-1.941-0.386
	 		c-0.74,0-1.406,0.118-1.999,0.355c-0.593,0.237-1.051,0.568-1.375,0.993c-0.324,0.425-0.486,0.916-0.486,1.472
	 		c0,1.117,0.65,1.995,1.951,2.634c0.4,0.198,0.915,0.402,1.544,0.614c0.63,0.211,1.07,0.416,1.32,0.614
	 		c0.25,0.198,0.376,0.473,0.376,0.827c0,0.313-0.116,0.555-0.348,0.727c-0.232,0.172-0.548,0.259-0.948,0.259
	 		c-0.625,0-1.077-0.128-1.355-0.383c-0.278-0.255-0.417-0.652-0.417-1.189h-2.427c0,0.662,0.167,1.247,0.5,1.755
	 		c0.333,0.508,0.83,0.908,1.489,1.2c0.659,0.292,1.396,0.438,2.21,0.438c1.154,0,2.061-0.25,2.723-0.752
	 		c0.662-0.501,0.993-1.19,0.993-2.068c0-1.099-0.542-1.96-1.627-2.586c-0.446-0.257-1.016-0.497-1.71-0.72
	 		c-0.694-0.223-1.179-0.439-1.455-0.648c-0.276-0.209-0.414-0.442-0.414-0.7c0-0.294,0.125-0.537,0.376-0.727
	 		C136.854,339.25,137.195,339.154,137.627,339.154z"/>
	 	<path class="grey-fill" d="M146.23,339.906c-0.726,0-1.312,0.276-1.758,0.827l-0.069-0.689h-2.172v10.328h2.323v-3.482
	 		c0.441,0.501,1.004,0.752,1.689,0.752c0.887,0,1.591-0.346,2.113-1.038c0.522-0.692,0.783-1.617,0.783-2.775v-0.11
	 		c0-1.186-0.255-2.118-0.765-2.796C147.864,340.245,147.15,339.906,146.23,339.906z M146.816,343.932
	 		c-0.023,1.278-0.405,1.917-1.145,1.917c-0.542,0-0.915-0.207-1.117-0.62v-2.937c0.184-0.395,0.552-0.593,1.103-0.593
	 		c0.772,0,1.158,0.662,1.158,1.986V343.932z"/>
	 	<path class="grey-fill" d="M156.019,342.512c-0.014-0.809-0.296-1.446-0.848-1.91c-0.552-0.464-1.303-0.696-2.255-0.696
	 		c-0.951,0-1.734,0.225-2.348,0.675c-0.614,0.45-0.92,1.035-0.92,1.756h2.324c0-0.545,0.276-0.818,0.827-0.818
	 		c0.593,0,0.889,0.344,0.889,1.032v0.395h-0.717c-1.14,0-2.009,0.207-2.606,0.62c-0.598,0.414-0.896,1.025-0.896,1.834
	 		c0,0.644,0.246,1.178,0.738,1.603c0.492,0.425,1.089,0.638,1.793,0.638c0.768,0,1.365-0.269,1.793-0.807
	 		c0.064,0.294,0.138,0.517,0.221,0.669h2.323v-0.117c-0.202-0.363-0.308-0.887-0.317-1.572V342.512z M153.689,345.38
	 		c-0.083,0.156-0.22,0.296-0.41,0.42c-0.191,0.124-0.431,0.186-0.721,0.186c-0.221,0-0.402-0.065-0.545-0.197
	 		c-0.143-0.131-0.214-0.302-0.214-0.514c0-0.726,0.404-1.089,1.213-1.089h0.676V345.38z"/>
	 	<path class="grey-fill" d="M160.086,341.698c0.317,0,0.57,0.103,0.758,0.31c0.188,0.207,0.283,0.503,0.283,0.889h2.179
	 		c0-0.919-0.285-1.648-0.855-2.186c-0.57-0.538-1.34-0.807-2.31-0.807c-0.717,0-1.338,0.155-1.862,0.465
	 		c-0.524,0.31-0.925,0.754-1.203,1.331c-0.278,0.577-0.417,1.242-0.417,1.996v0.097c0,1.204,0.312,2.147,0.938,2.827
	 		c0.625,0.68,1.48,1.021,2.565,1.021c0.924,0,1.679-0.262,2.265-0.786c0.586-0.524,0.879-1.195,0.879-2.013h-2.179
	 		c0.005,0.317-0.083,0.564-0.262,0.741c-0.179,0.177-0.432,0.265-0.758,0.265c-0.391,0-0.676-0.145-0.855-0.434
	 		c-0.179-0.29-0.269-0.809-0.269-1.558c0-0.427,0.016-0.763,0.048-1.007C159.132,342.082,159.484,341.698,160.086,341.698z"/>
	 	<path class="grey-fill" d="M167.296,339.906c-0.745,0-1.388,0.16-1.931,0.479c-0.542,0.32-0.955,0.771-1.238,1.355
	 		c-0.283,0.584-0.424,1.257-0.424,2.02v0.193c0,1.094,0.354,1.982,1.062,2.665c0.708,0.683,1.634,1.024,2.779,1.024
	 		c0.611,0,1.182-0.118,1.713-0.355s0.941-0.555,1.231-0.955l-1.062-1.255c-0.414,0.515-0.988,0.772-1.724,0.772
	 		c-0.446,0-0.809-0.119-1.089-0.358c-0.28-0.239-0.462-0.568-0.545-0.986h4.62v-0.903c0-1.163-0.303-2.069-0.91-2.72
	 		C169.172,340.231,168.344,339.906,167.296,339.906z M168.413,343.05h-2.344c0.129-0.901,0.533-1.351,1.214-1.351
	 		c0.368,0,0.65,0.102,0.848,0.307c0.198,0.205,0.292,0.493,0.283,0.865V343.05z"/>
	 	<path class="grey-fill" d="M174.155,341.436c0.63,0,0.945,0.299,0.945,0.896h2.33c0-0.726-0.299-1.312-0.896-1.758
	 		c-0.598-0.446-1.388-0.669-2.372-0.669c-0.915,0-1.655,0.222-2.22,0.665c-0.565,0.444-0.848,1.008-0.848,1.693
	 		c0,0.386,0.099,0.729,0.297,1.027c0.198,0.299,0.485,0.553,0.862,0.762c0.377,0.209,0.855,0.378,1.434,0.507
	 		c0.579,0.129,0.972,0.253,1.179,0.372c0.207,0.12,0.31,0.278,0.31,0.476c0,0.207-0.079,0.375-0.238,0.503
	 		c-0.159,0.129-0.396,0.193-0.714,0.193c-0.345,0-0.627-0.079-0.848-0.238c-0.221-0.159-0.336-0.41-0.345-0.755h-2.172
	 		c0,0.437,0.14,0.853,0.421,1.248c0.28,0.395,0.671,0.708,1.172,0.938c0.501,0.23,1.071,0.345,1.71,0.345
	 		c0.961,0,1.743-0.214,2.348-0.641c0.604-0.427,0.907-0.981,0.907-1.662c0-0.997-0.561-1.689-1.682-2.075
	 		c-0.336-0.115-0.725-0.214-1.169-0.296c-0.444-0.083-0.766-0.188-0.969-0.317c-0.202-0.129-0.303-0.296-0.303-0.503
	 		c0-0.202,0.083-0.371,0.248-0.507C173.707,341.504,173.912,341.436,174.155,341.436z"/>
	 </a>

	 <defs>

     <filter id="innershadow" x0="-50%" y0="-50%" width="200%" height="200%">
       <feGaussianBlur in="SourceAlpha" stdDeviation="3" result="blur"></feGaussianBlur>
       <feOffset dy="2" dx="3"></feOffset>
       <feComposite in2="SourceAlpha" operator="arithmetic" k2="-1" k3="1" result="shadowDiff"></feComposite>

       <feFlood flood-color="#999999" flood-opacity="0.75"></feFlood>
       <feComposite in2="shadowDiff" operator="in"></feComposite>
       <feComposite in2="SourceGraphic" operator="over" result="firstfilter"></feComposite>

       <feGaussianBlur in="firstfilter" stdDeviation="3" result="blur2"></feGaussianBlur>
       <feOffset dy="0" dx="-3"></feOffset>
       <feComposite in2="firstfilter" operator="arithmetic" k2="-1" k3="1" result="shadowDiff"></feComposite>

       <feFlood flood-color="#999999" flood-opacity="0.36"></feFlood>
       <feComposite in2="shadowDiff" operator="in"></feComposite>
       <feComposite in2="firstfilter" operator="over"></feComposite>
     </filter>

     <filter id="pdglow" x="0" y="0" width="200%" height="200%">
       <feFlood flood-color="#ff0000" flood-opacity="1"></feFlood>
       <feComposite in2="SourceAlpha" operator="out"/></feComposite>
       <feGaussianBlur stdDeviation="15" result="blur"/></feGaussianBlur>
       <feComposite operator="atop" in2="SourceGraphic"/></feComposite>
     </filter>

     <filter id="stemglow" x="0" y="0" width="200%" height="200%">
       <feFlood flood-color="#00706b" flood-opacity="1"></feFlood>
       <feComposite in2="SourceAlpha" operator="out"/></feComposite>
       <feGaussianBlur stdDeviation="15" result="blur"/></feGaussianBlur>
       <feComposite operator="atop" in2="SourceGraphic"/></feComposite>
     </filter>

     <filter id="pblglow" x="0" y="0" width="200%" height="200%">
       <feFlood flood-color="#00148b" flood-opacity="1"></feFlood>
       <feComposite in2="SourceAlpha" operator="out"/></feComposite>
       <feGaussianBlur stdDeviation="15" result="blur"/></feGaussianBlur>
       <feComposite operator="atop" in2="SourceGraphic"/></feComposite>
     </filter>

     <filter id="edtechglow" x="0" y="0" width="200%" height="200%">
       <feFlood flood-color="#49a400" flood-opacity="1"></feFlood>
       <feComposite in2="SourceAlpha" operator="out"/></feComposite>
       <feGaussianBlur stdDeviation="15" result="blur"/></feGaussianBlur>
       <feComposite operator="atop" in2="SourceGraphic"/></feComposite>
     </filter>

     <filter id="activelearningglow" x="0" y="0" width="200%" height="200%">
       <feFlood flood-color="#7d0033" flood-opacity="1"></feFlood>
       <feComposite in2="SourceAlpha" operator="out"/></feComposite>
       <feGaussianBlur stdDeviation="15" result="blur"/></feGaussianBlur>
       <feComposite operator="atop" in2="SourceGraphic"/></feComposite>
     </filter>

   </defs>

</svg>
