<?xml version="1.0" encoding="utf-8"?>
<!-- Generator: Adobe Illustrator 25.4.1, SVG Export Plug-In . SVG Version: 6.00 Build 0)  -->
<svg version="1.1" id="Layer_1" xmlns="http://www.w3.org/2000/svg" xmlns:xlink="http://www.w3.org/1999/xlink" x="0px" y="0px"
	 viewBox="0 0 50 50" style="enable-background:new 0 0 50 50;" xml:space="preserve">
<style type="text/css">
	.st0{fill:url(#SVGID_1_);}
	.st1{fill:#10110D;}
	.st2{fill:#2B2C2D;}
	.st3{fill:#191B1C;}
	.st4{fill:#5A5E5C;}
	.st5{fill:#CEC7C1;}
	.st6{fill:#8E9698;}
	.st7{opacity:0.08;fill:#D1D3D4;}
	.st8{fill:#594A42;}
	.st9{fill:#46741F;}
	.st10{fill:#00813B;}
	.st11{fill:#5F9C2A;}
	.st12{fill:#518524;}
	.st13{fill:#5B5B5B;}
	.st14{fill:#2D2D2D;}
	.st15{fill:#313233;}
	.st16{fill:#404143;}
	.st17{fill:#FF9100;}
	.st18{fill:#202122;}
	.st19{fill:#FFA300;}
	.st20{fill:#A58855;}
	.st21{fill:#BFAC85;}
	.st22{fill:#F1F2F2;}
	.st23{fill:#6D6E71;}
	.st24{fill:#808285;}
	.st25{fill:#E3DBCA;}
	.st26{fill:#8F8A7F;}
	.st27{opacity:0.2;fill:#C2B59B;}
	.st28{fill:#939598;}
	.st29{fill:#A7A9AC;}
	.st30{enable-background:new    ;}
	.st31{fill:#BCBEC0;}
	.st32{fill:#D1D3D4;}
	.st33{fill:#867B6F;}
	.st34{fill:#685D50;}
	.st35{fill:#726658;}
	.st36{fill:#D0C1A7;}
	.st37{fill:#7C6740;}
	.st38{fill:#D4D8D9;}
	.st39{fill:#BA1A15;}
	.st40{fill:#E2ECF0;}
	.st41{fill:#BBBEBF;}
	.st42{fill:#F0F0F0;}
	.st43{fill:#222C2E;}
</style>
<radialGradient id="SVGID_1_" cx="-688.774" cy="-3771.0562" r="15.9016" gradientTransform="matrix(1.5353 0 0 -0.5871 1082.4749 -2174.0515)" gradientUnits="userSpaceOnUse">
	<stop  offset="0.4351" style="stop-color:#B4BCC1"/>
	<stop  offset="0.94" style="stop-color:#ECEEEF;stop-opacity:0"/>
</radialGradient>
<ellipse class="st0" cx="25" cy="39.82" rx="24.4" ry="9.38"/>
<g>
	<g>
		<g>
			
				<rect x="34.821" y="37.744" transform="matrix(0.5 -0.866 0.866 0.5 -14.9654 50.2517)" class="st1" width="2.431" height="0.685"/>
		</g>
		<g>
			<g>
				<path class="st1" d="M36.608,37.423c0-0.548-0.385-0.77-0.861-0.497c-0.474,0.274-0.859,0.941-0.859,1.489
					c0,0.548,0.385,0.771,0.859,0.496C36.223,38.637,36.608,37.971,36.608,37.423z"/>
			</g>
			<g>
				<path class="st2" d="M37.208,37.769c0-0.548-0.385-0.77-0.86-0.496c-0.474,0.274-0.86,0.941-0.86,1.489
					c0,0.549,0.386,0.771,0.86,0.497C36.823,38.985,37.208,38.318,37.208,37.769z"/>
			</g>
			<g>
				<path class="st3" d="M36.867,37.966c0-0.332-0.232-0.467-0.52-0.3c-0.287,0.166-0.52,0.569-0.52,0.9
					c0,0.331,0.233,0.466,0.52,0.301C36.635,38.701,36.867,38.298,36.867,37.966z"/>
			</g>
			<g>
				<path class="st4" d="M36.802,38.005c0-0.29-0.203-0.406-0.454-0.262c-0.251,0.145-0.453,0.496-0.453,0.785
					c0,0.29,0.202,0.406,0.453,0.262C36.598,38.644,36.802,38.293,36.802,38.005z"/>
			</g>
			<g>
				<path class="st5" d="M36.762,38.027c0-0.263-0.186-0.37-0.414-0.238c-0.229,0.132-0.413,0.453-0.413,0.716
					c0,0.263,0.185,0.37,0.413,0.239C36.576,38.612,36.762,38.291,36.762,38.027z"/>
			</g>
			<g>
				<path class="st6" d="M36.706,38.06c0-0.228-0.161-0.32-0.358-0.207c-0.197,0.114-0.358,0.392-0.358,0.619
					c0,0.229,0.16,0.321,0.358,0.207C36.545,38.565,36.706,38.287,36.706,38.06z"/>
			</g>
			<g>
				<path class="st5" d="M36.655,38.088c0-0.195-0.137-0.275-0.307-0.178c-0.169,0.098-0.307,0.337-0.307,0.533
					c0,0.196,0.138,0.275,0.307,0.178C36.518,38.523,36.655,38.285,36.655,38.088z"/>
			</g>
			<g>
				<path class="st6" d="M36.564,38.141c0-0.138-0.097-0.194-0.216-0.125c-0.119,0.069-0.216,0.237-0.216,0.375
					c0,0.139,0.098,0.194,0.216,0.125C36.468,38.447,36.564,38.279,36.564,38.141z"/>
			</g>
			<g>
				<path class="st3" d="M36.382,38.419c0.005-0.031-0.013-0.047-0.037-0.038c-0.025,0.01-0.049,0.043-0.051,0.074
					c-0.004,0.031,0.014,0.047,0.038,0.037C36.356,38.483,36.378,38.449,36.382,38.419z"/>
			</g>
			<g>
				<path class="st3" d="M36.21,38.436c0.025-0.019,0.042-0.056,0.038-0.082c-0.005-0.026-0.028-0.032-0.053-0.012
					c-0.025,0.019-0.042,0.055-0.037,0.082C36.163,38.449,36.186,38.455,36.21,38.436z"/>
			</g>
			<g>
				<path class="st3" d="M36.225,38.215c0.013,0.019,0.039,0.013,0.061-0.014c0.023-0.025,0.032-0.062,0.02-0.081
					c-0.012-0.019-0.039-0.013-0.062,0.014C36.223,38.159,36.213,38.195,36.225,38.215z"/>
			</g>
			<g>
				<path class="st3" d="M36.406,38.06c-0.018,0.03-0.018,0.063,0.001,0.073c0.018,0.01,0.046-0.007,0.064-0.038
					c0.017-0.031,0.017-0.064-0.001-0.074C36.452,38.012,36.423,38.028,36.406,38.06z"/>
			</g>
			<g>
				<path class="st3" d="M36.502,38.186c-0.022,0-0.05,0.026-0.061,0.059c-0.011,0.033-0.002,0.059,0.02,0.059
					c0.022,0,0.049-0.027,0.061-0.059C36.535,38.212,36.525,38.185,36.502,38.186z"/>
			</g>
		</g>
	</g>
	<g>
		<polygon class="st7" points="40.124,34.113 38.657,33.815 37.345,34.289 37.176,35.18 38.277,35.815 39.819,35.717 40.641,34.96 
					"/>
		<g>
			<path class="st8" d="M39.373,33.209h-0.957v1.586h0.003c-0.015,0.081,0.031,0.164,0.138,0.226
				c0.188,0.108,0.491,0.109,0.677,0.001c0.107-0.062,0.152-0.146,0.135-0.227h0.004V33.209z"/>
			<g>
				<polygon class="st9" points="40.2,32.609 38.682,32.3 37.323,32.791 37.149,33.713 38.288,34.371 39.885,34.27 40.736,33.486 
									"/>
				<polygon class="st10" points="39.506,30.505 38.795,30.36 38.158,30.59 38.076,31.022 38.611,31.33 39.359,31.283 
					39.757,30.916 				"/>
			</g>
			<polygon class="st11" points="37.149,33.713 38.288,34.371 38.622,31.331 38.22,30.597 			"/>
			<polygon class="st9" points="39.359,31.283 39.885,34.27 40.736,33.486 39.582,30.446 			"/>
			<polygon class="st9" points="40.006,30.563 38.714,30.291 37.573,30.717 37.425,31.497 38.389,32.053 39.739,31.968 
				40.459,31.304 			"/>
			<polygon class="st12" points="39.739,31.968 38.894,28.497 38.389,32.053 			"/>
			<polygon class="st9" points="40.459,31.304 38.894,28.497 39.739,31.968 			"/>
			<polygon class="st9" points="38.894,28.497 37.573,30.717 37.861,30.613 			"/>
			<polygon class="st9" points="38.158,30.59 37.323,32.791 37.487,32.736 38.069,31.048 			"/>
			<polygon class="st11" points="38.894,28.497 37.425,31.497 38.387,32.066 			"/>
			<polygon class="st12" points="38.288,34.371 39.885,34.27 39.373,31.224 38.616,31.21 			"/>
		</g>
	</g>
	<g>
		<g>
			<g>
				<polygon class="st13" points="14.7,39.232 16.646,38.144 15.54,37.505 13.594,38.593 				"/>
			</g>
		</g>
		<polygon class="st14" points="14.7,39.232 13.594,38.593 13.595,38.585 13.594,38.585 13.594,39.783 14.698,40.429 		"/>
		<polygon points="16.646,38.144 14.7,39.246 14.7,40.408 16.646,39.321 		"/>
	</g>
	<g>
		<g>
			<g>
				<polygon class="st13" points="23.874,44.546 25.82,43.459 24.714,42.82 22.767,43.907 				"/>
			</g>
		</g>
		<polygon class="st14" points="23.874,44.546 22.768,43.908 22.768,43.9 22.767,43.9 22.767,45.097 23.872,45.744 		"/>
		<polygon points="25.82,43.459 23.873,44.561 23.873,45.723 25.82,44.635 		"/>
	</g>
	<path class="st15" d="M24.294,43.132l-10.734-6.198c-0.11,0.063-0.199,0.217-0.199,0.344v1.045c0,0.064,0.022,0.108,0.058,0.129
		l10.75,6.205c-0.045-0.016-0.074-1.181-0.074-1.181C24.095,43.35,24.184,43.196,24.294,43.132z"/>
	<path class="st16" d="M13.559,36.935c-0.11,0.063-0.199,0.217-0.199,0.344l10.734,6.198c0-0.127,0.089-0.281,0.199-0.344
		l13.036-7.534l-8.97-3.442L13.559,36.935z"/>
	<g>
		<g>
			
				<rect x="32.97" y="38.926" transform="matrix(0.5 -0.866 0.866 0.5 -16.9149 49.2398)" class="st1" width="2.431" height="0.685"/>
		</g>
		<g>
			<g>
				<path class="st1" d="M34.757,38.605c0-0.548-0.385-0.77-0.861-0.497c-0.474,0.274-0.859,0.941-0.859,1.489
					c0,0.548,0.385,0.771,0.859,0.496C34.371,39.82,34.757,39.154,34.757,38.605z"/>
			</g>
			<g>
				<path class="st2" d="M35.357,38.952c0-0.548-0.385-0.77-0.86-0.496c-0.474,0.274-0.86,0.941-0.86,1.489
					c0,0.549,0.386,0.771,0.86,0.497C34.972,40.167,35.357,39.5,35.357,38.952z"/>
			</g>
			<g>
				<path class="st3" d="M35.016,39.148c0-0.332-0.232-0.467-0.52-0.3c-0.287,0.166-0.52,0.569-0.52,0.9
					c0,0.331,0.233,0.466,0.52,0.301C34.784,39.884,35.016,39.48,35.016,39.148z"/>
			</g>
			<g>
				<path class="st4" d="M34.95,39.187c0-0.29-0.203-0.406-0.454-0.262c-0.251,0.145-0.453,0.496-0.453,0.785
					c0,0.29,0.202,0.406,0.453,0.262C34.747,39.827,34.95,39.476,34.95,39.187z"/>
			</g>
			<g>
				<path class="st5" d="M34.911,39.209c0-0.263-0.186-0.37-0.414-0.238c-0.229,0.132-0.413,0.453-0.413,0.716
					c0,0.263,0.185,0.37,0.413,0.239C34.725,39.794,34.911,39.473,34.911,39.209z"/>
			</g>
			<g>
				<path class="st6" d="M34.855,39.242c0-0.228-0.161-0.32-0.358-0.207c-0.197,0.114-0.358,0.392-0.358,0.619
					c0,0.229,0.16,0.321,0.358,0.207C34.694,39.747,34.855,39.47,34.855,39.242z"/>
			</g>
			<g>
				<path class="st5" d="M34.803,39.271c0-0.195-0.137-0.275-0.307-0.178c-0.169,0.098-0.307,0.337-0.307,0.533
					c0,0.196,0.138,0.275,0.307,0.178C34.667,39.705,34.803,39.467,34.803,39.271z"/>
			</g>
			<g>
				<path class="st6" d="M34.713,39.323c0-0.138-0.097-0.194-0.216-0.125c-0.119,0.069-0.216,0.237-0.216,0.375
					c0,0.139,0.098,0.194,0.216,0.125C34.616,39.629,34.713,39.462,34.713,39.323z"/>
			</g>
			<g>
				<path class="st3" d="M34.531,39.601c0.005-0.031-0.013-0.047-0.037-0.038c-0.025,0.01-0.049,0.043-0.051,0.074
					c-0.004,0.031,0.014,0.047,0.038,0.037C34.505,39.665,34.527,39.632,34.531,39.601z"/>
			</g>
			<g>
				<path class="st3" d="M34.359,39.619c0.025-0.019,0.042-0.056,0.038-0.082c-0.005-0.026-0.028-0.032-0.053-0.012
					c-0.025,0.019-0.042,0.055-0.037,0.082C34.312,39.632,34.335,39.638,34.359,39.619z"/>
			</g>
			<g>
				<path class="st3" d="M34.374,39.397c0.013,0.019,0.039,0.013,0.061-0.014c0.023-0.025,0.032-0.062,0.02-0.081
					c-0.012-0.019-0.039-0.013-0.062,0.014C34.371,39.341,34.362,39.378,34.374,39.397z"/>
			</g>
			<g>
				<path class="st3" d="M34.555,39.243c-0.018,0.03-0.018,0.063,0.001,0.073c0.018,0.01,0.046-0.007,0.064-0.038
					c0.017-0.031,0.017-0.064-0.001-0.074C34.601,39.194,34.572,39.211,34.555,39.243z"/>
			</g>
			<g>
				<path class="st3" d="M34.651,39.369c-0.022,0-0.05,0.026-0.061,0.059c-0.011,0.033-0.002,0.059,0.02,0.059
					c0.022,0,0.049-0.027,0.061-0.059C34.683,39.395,34.674,39.368,34.651,39.369z"/>
			</g>
		</g>
	</g>
	<g>
		<g>
			<polygon class="st17" points="37.437,35.867 37.249,35.758 37.213,36.584 37.437,36.714 			"/>
		</g>
		<path class="st18" d="M24.294,43.132c-0.11,0.063-0.199,0.217-0.199,0.344v1.045c0,0.127,0.089,0.178,0.199,0.115l9.238-5.305
			c0.161-0.412,0.46-0.8,0.803-0.997c0.047-0.027,0.091-0.049,0.135-0.067c0.005-0.002,0.01-0.004,0.014-0.006
			c0.26-0.102,0.483-0.058,0.623,0.104l0.324-0.188c0.161-0.412,0.46-0.8,0.803-0.997c0.047-0.027,0.091-0.049,0.135-0.067
			c0.005-0.002,0.01-0.004,0.014-0.006c0.26-0.102,0.483-0.058,0.623,0.104l0.324-0.188v-1.424L24.294,43.132z"/>
		<g>
			<polygon class="st19" points="37.437,36.718 37.083,36.922 37.083,36.076 37.437,35.871 			"/>
		</g>
	</g>
	<g>
		<polygon class="st20" points="31.164,15.856 31.074,19.868 18.725,26.998 18.725,23.068 		"/>
		<polygon class="st21" points="18.725,27.111 18.725,20.086 13.559,23.068 13.559,36.935 17.839,39.405 17.839,39.405 
			24.294,43.132 24.294,33.456 		"/>
		<polygon class="st20" points="36.519,36.07 24.294,43.132 24.294,33.456 36.519,26.386 		"/>
	</g>
	<g>
		<polygon class="st22" points="22.238,34.843 18.942,32.928 18.95,36.883 22.239,38.786 		"/>
		<polygon class="st23" points="19.245,33.104 19.582,32.934 19.582,37.249 19.245,37.051 		"/>
		<g>
			<polygon class="st24" points="22.574,38.591 19.244,36.67 19.58,36.475 22.571,38.203 			"/>
			<polygon class="st25" points="22.574,38.591 22.574,38.591 22.241,38.786 22.241,38.786 18.913,36.865 19.253,36.664 
				22.241,38.399 			"/>
		</g>
		<polygon class="st26" points="22.571,35.041 18.913,32.911 19.229,32.73 22.576,34.657 		"/>
		<g>
			<path class="st25" d="M22.239,38.786l-0.001-3.943l-3.324-1.932l0,3.954L22.239,38.786z M19.254,37.051l-0.011-3.549l2.663,1.541
				l0,3.549L19.254,37.051z"/>
			<polygon class="st23" points="22.576,34.657 22.574,38.591 22.239,38.786 22.24,34.836 			"/>
		</g>
	</g>
	<g>
		<polygon class="st22" points="20.817,22.893 23.954,21.07 23.947,23.471 20.816,25.281 		"/>
		<polygon class="st23" points="23.667,21.237 23.346,21.075 23.345,23.819 23.667,23.631 		"/>
		<g>
			<polygon class="st24" points="20.497,25.097 23.667,23.268 23.347,23.082 20.499,24.728 			"/>
			<polygon class="st25" points="20.497,25.097 20.497,25.097 20.813,25.281 20.813,25.281 23.983,23.454 23.659,23.263 
				20.813,24.914 			"/>
		</g>
		<polygon class="st26" points="20.499,23.082 23.982,21.055 23.682,20.881 20.495,22.716 		"/>
		<g>
			<path class="st25" d="M23.983,23.454l-0.001-2.399l-3.165,1.839l-0.001,2.39L23.983,23.454z M21.132,25.098l0-2.014l2.536-1.467
				l-0.011,2.014L21.132,25.098z"/>
			<polygon class="st23" points="20.495,22.716 20.497,25.097 20.816,25.281 20.816,22.887 			"/>
		</g>
	</g>
	<g>
		<polygon class="st22" points="32.019,33.014 35.156,31.191 35.149,34.957 32.018,36.768 		"/>
		<polygon class="st23" points="34.869,31.358 34.548,31.197 34.547,35.305 34.868,35.117 		"/>
		<g>
			<polygon class="st24" points="31.698,36.583 34.869,34.754 34.549,34.568 31.701,36.214 			"/>
			<polygon class="st25" points="31.699,36.583 31.699,36.583 32.015,36.768 32.015,36.768 35.184,34.94 34.86,34.749 32.015,36.4 
							"/>
		</g>
		<polygon class="st26" points="31.701,33.203 35.184,31.175 34.884,31.002 31.696,32.838 		"/>
		<g>
			<path class="st25" d="M35.184,34.94v-3.764l-3.165,1.839l0,3.755L35.184,34.94z M32.333,36.584l0.001-3.379l2.535-1.468
				l-0.01,3.379L32.333,36.584z"/>
			<polygon class="st23" points="31.696,32.838 31.699,36.583 32.018,36.768 32.017,33.008 			"/>
		</g>
	</g>
	<g>
		<polygon class="st22" points="26.938,19.276 30.076,17.452 30.068,19.854 26.937,21.664 		"/>
		<polygon class="st23" points="29.787,17.619 29.467,17.458 29.466,20.201 29.787,20.013 		"/>
		<g>
			<polygon class="st24" points="26.618,21.479 29.789,19.65 29.469,19.465 26.621,21.11 			"/>
			<polygon class="st25" points="26.618,21.479 26.618,21.479 26.935,21.664 26.935,21.664 30.104,19.836 29.78,19.645 
				26.935,21.296 			"/>
		</g>
		<polygon class="st26" points="26.621,19.464 30.103,17.437 29.803,17.264 26.616,19.099 		"/>
		<g>
			<path class="st25" d="M30.104,19.836l-0.001-2.399l-3.165,1.839l0,2.39L30.104,19.836z M27.252,21.48l0.001-2.014l2.536-1.467
				l-0.011,2.014L27.252,21.48z"/>
			<polygon class="st23" points="26.616,19.099 26.618,21.479 26.937,21.664 26.937,19.269 			"/>
		</g>
	</g>
	<g>
		<g>
			<g>
				<polygon class="st25" points="26.547,35.365 29.41,33.712 29.409,40.273 26.546,41.925 				"/>
				<polygon class="st27" points="28.19,34.417 29.258,33.8 29.258,38.1 27.619,41.307 26.546,41.925 26.547,38.867 				"/>
			</g>
			<polygon class="st24" points="29.686,33.491 29.53,33.402 26.117,35.369 26.279,35.462 			"/>
			<polygon class="st28" points="29.415,40.45 29.263,40.362 29.263,33.8 29.415,33.712 			"/>
			<polygon class="st29" points="26.279,35.462 26.275,42.265 26.552,42.103 26.551,35.365 29.414,33.712 29.415,40.452 
				29.681,40.295 29.686,33.491 			"/>
			<polygon class="st28" points="26.275,42.265 26.132,42.175 26.116,35.369 26.279,35.462 			"/>
		</g>
		<g>
			<g>
				<g>
					<g class="st30">
						<g>
							<polygon class="st29" points="28.56,38.113 28.542,38.102 28.541,37.375 28.558,37.386 							"/>
						</g>
						<g>
							<polygon class="st29" points="28.558,37.386 28.541,37.375 28.787,37.233 28.804,37.243 							"/>
						</g>
						<g>
							<polygon class="st31" points="28.804,37.243 28.807,37.971 28.56,38.113 28.558,37.386 							"/>
						</g>
					</g>
				</g>
				<g>
					<g class="st30">
						<g>
							<polygon class="st29" points="28.689,37.909 28.671,37.898 28.671,37.812 28.689,37.822 							"/>
						</g>
						<g>
							<polygon class="st29" points="28.689,37.822 28.671,37.812 28.699,37.795 28.717,37.805 							"/>
						</g>
						<g>
							<polygon class="st31" points="28.717,37.805 28.717,37.891 28.689,37.909 28.689,37.822 							"/>
						</g>
					</g>
				</g>
			</g>
			<g>
				<path class="st29" d="M29.053,37.53c0-0.007-0.003-0.014-0.007-0.021c-0.003-0.007-0.008-0.014-0.014-0.02
					c-0.004-0.003-0.007-0.006-0.011-0.008c-0.008-0.005-0.016-0.006-0.021-0.003l-0.21,0.12l-0.104-0.06
					c-0.006-0.003-0.013-0.002-0.021,0.003c-0.004,0.002-0.009,0.005-0.012,0.009c-0.006,0.005-0.011,0.012-0.014,0.02
					c-0.004,0.007-0.006,0.014-0.007,0.02c0,0.003-0.001,0.006-0.001,0.008c0,0.01,0.003,0.016,0.008,0.02l0.148,0.085l0.259-0.145
					c0.005-0.004,0.008-0.01,0.008-0.019C29.054,37.536,29.054,37.532,29.053,37.53z"/>
				<path class="st31" d="M29.047,37.51c-0.003-0.007-0.008-0.014-0.014-0.02c-0.004-0.003-0.007-0.006-0.011-0.008
					c-0.001-0.001-0.002-0.002-0.004-0.002c-0.007-0.003-0.013-0.003-0.018-0.001l-0.21,0.12l-0.104-0.06
					c-0.006-0.002-0.011-0.002-0.018,0.002c-0.001,0-0.002,0-0.003,0.001c-0.004,0.002-0.009,0.005-0.012,0.009
					c-0.006,0.005-0.011,0.012-0.014,0.02c-0.004,0.007-0.006,0.014-0.007,0.02c0,0,0.001,0.001,0.002,0.001l0.155,0.09l0.263-0.15
					c0.001-0.001,0.001-0.001,0.001-0.001C29.053,37.523,29.05,37.516,29.047,37.51z"/>
				<path class="st32" d="M29.047,37.51c-0.003-0.007-0.008-0.014-0.014-0.02c-0.004-0.003-0.007-0.006-0.011-0.008
					c-0.001-0.001-0.002-0.002-0.004-0.002L28.79,37.61l0,0l-0.122-0.07c-0.001,0-0.002,0-0.003,0.001
					c-0.004,0.002-0.009,0.005-0.012,0.009c-0.006,0.005-0.011,0.012-0.014,0.02c-0.004,0.007-0.006,0.014-0.007,0.02
					c0,0,0.001,0.001,0.002,0.001l0.125,0.072l0.013,0.008l0.017,0.01l0,0l0.019-0.011l0.243-0.14
					c0.001-0.001,0.001-0.001,0.001-0.001C29.053,37.523,29.05,37.516,29.047,37.51z"/>
			</g>
		</g>
	</g>
	<g>
		<polygon class="st33" points="18.725,27.016 31.099,19.868 37.077,26.83 24.77,33.936 		"/>
		<polygon class="st34" points="18.725,28.027 18.725,27.016 24.77,33.936 24.77,34.903 		"/>
		<polygon class="st34" points="37.077,26.83 37.077,27.797 24.77,34.903 24.77,33.936 		"/>
	</g>
	<g>
		<polygon class="st35" points="18.782,22.311 31.742,14.828 25.259,16.051 12.289,23.527 		"/>
		<polygon class="st34" points="12.289,24.242 12.289,23.527 18.782,22.311 18.781,23.082 		"/>
		<polygon class="st34" points="31.742,14.828 31.742,15.599 18.781,23.082 18.782,22.311 		"/>
	</g>
	<g>
		<g>
			<g>
				<polygon class="st36" points="28.36,45.043 31.857,43.023 31.21,42.649 27.712,44.669 				"/>
				<g>
					<polygon class="st37" points="27.713,43.969 27.711,44.67 31.21,42.649 31.21,41.949 					"/>
					<polygon class="st37" points="30.562,40.886 27.065,42.914 27.065,43.595 30.562,41.575 					"/>
				</g>
			</g>
			<polygon class="st36" points="27.065,42.914 30.562,40.895 29.914,40.521 26.417,42.54 			"/>
		</g>
		<polygon class="st36" points="27.713,43.969 31.21,41.949 30.562,41.575 27.065,43.595 		"/>
		<polygon class="st20" points="28.36,45.043 27.713,44.669 27.713,44.664 27.712,44.664 27.713,43.969 27.065,43.595 
			27.065,42.914 26.417,42.532 26.417,44.607 28.359,45.744 		"/>
		<polygon class="st37" points="31.857,43.023 28.36,45.051 28.36,45.732 31.857,43.712 		"/>
	</g>
	<g>
		<polygon class="st7" points="12.958,39.552 10.472,39.047 8.25,39.85 7.963,41.359 9.829,42.435 12.442,42.27 13.834,40.987 		"/>
		<g>
			<path class="st8" d="M11.686,38.02h-1.622v2.687h0.005c-0.025,0.136,0.053,0.278,0.234,0.383
				c0.318,0.183,0.831,0.184,1.147,0.002c0.182-0.105,0.258-0.248,0.229-0.385h0.006V38.02z"/>
			<g>
				<polygon class="st9" points="13.087,37.004 10.514,36.48 8.213,37.312 7.917,38.874 9.848,39.989 12.553,39.818 13.994,38.489 
									"/>
				<polygon class="st10" points="11.912,33.439 10.706,33.193 9.628,33.583 9.489,34.315 10.394,34.837 11.661,34.757 
					12.337,34.135 				"/>
			</g>
			<polygon class="st11" points="7.917,38.874 9.848,39.989 10.413,34.838 9.732,33.595 			"/>
			<polygon class="st9" points="11.661,34.757 12.553,39.818 13.994,38.489 12.04,33.339 			"/>
			<polygon class="st9" points="12.758,33.537 10.569,33.077 8.636,33.798 8.385,35.119 10.019,36.062 12.306,35.917 13.525,34.793 
							"/>
			<polygon class="st12" points="12.306,35.917 10.875,30.036 10.019,36.062 			"/>
			<polygon class="st9" points="13.525,34.793 10.875,30.036 12.306,35.917 			"/>
			<polygon class="st9" points="10.875,30.036 8.636,33.798 9.124,33.621 			"/>
			<polygon class="st9" points="9.628,33.583 8.213,37.312 8.49,37.219 9.476,34.359 			"/>
			<polygon class="st11" points="10.875,30.036 8.385,35.119 10.016,36.084 			"/>
			<polygon class="st12" points="9.848,39.989 12.553,39.818 11.686,34.657 10.404,34.634 			"/>
		</g>
	</g>
	<g>
		<polygon class="st22" points="17.147,26.871 14.729,25.467 14.751,36.193 17.148,37.544 		"/>
		<polygon class="st23" points="14.952,25.595 15.198,25.471 15.2,36.444 14.952,36.309 		"/>
		<g>
			<polygon class="st29" points="17.394,37.402 17.394,37.409 17.152,37.545 17.15,37.544 14.952,36.273 14.952,35.994 
				17.15,37.261 			"/>
			<polygon class="st24" points="17.394,37.402 14.982,36.01 15.2,35.884 17.392,37.118 			"/>
		</g>
		<g>
			<polygon class="st25" points="17.394,34.809 17.394,34.816 17.152,34.953 17.15,34.952 14.952,33.68 14.952,33.401 17.15,34.668 
							"/>
			<polygon class="st24" points="17.394,34.809 14.952,33.401 15.198,33.258 17.392,34.526 			"/>
		</g>
		<g>
			<polygon class="st25" points="17.393,32.217 17.393,32.223 17.152,32.359 17.149,32.358 14.951,31.087 14.951,30.807 
				17.149,32.075 			"/>
			<polygon class="st24" points="17.393,32.217 14.951,30.807 15.198,30.664 17.391,31.932 			"/>
		</g>
		<g>
			<polygon class="st25" points="17.393,29.62 17.393,29.627 17.151,29.763 17.149,29.762 14.951,28.491 14.951,28.211 
				17.149,29.479 			"/>
			<polygon class="st24" points="17.393,29.62 14.951,28.211 15.197,28.069 17.391,29.336 			"/>
		</g>
		<polygon class="st24" points="17.391,27.016 14.709,25.455 14.94,25.322 17.395,26.735 		"/>
		<g>
			<path class="st25" d="M17.148,37.577l-0.002-10.706l-2.438-1.416l-0.001,10.712L17.148,37.577z M14.982,36.01l-0.031-10.122
				l1.953,1.13l0.002,10.089L14.982,36.01z"/>
			<polygon class="st23" points="17.395,26.735 17.395,37.435 17.148,37.577 17.147,26.867 			"/>
		</g>
	</g>
</g>
<g>
	<g>
		<g class="st30">
			<g>
				<polygon class="st38" points="34.76,27.297 36.068,26.517 36.077,24.84 34.769,25.597 				"/>
			</g>
			<g>
				<polygon class="st39" points="34.769,25.597 36.077,24.84 34.672,24.026 33.364,24.783 				"/>
			</g>
			<g>
				<polygon class="st40" points="33.364,24.783 33.358,26.53 34.76,27.297 34.769,25.597 				"/>
			</g>
		</g>
	</g>
	<g>
		<g class="st30">
			<g>
				<polygon class="st41" points="34.766,26.098 36.336,25.189 36.34,24.661 34.77,25.569 				"/>
			</g>
			<g>
				<polygon class="st42" points="34.77,25.569 36.34,24.661 34.586,23.645 33.016,24.553 				"/>
			</g>
			<g>
				<polygon class="st43" points="34.742,25.287 35.851,24.646 34.612,23.927 33.504,24.57 				"/>
			</g>
			<g>
				<polygon class="st38" points="33.016,24.553 33.014,25.081 34.766,26.098 34.77,25.569 				"/>
			</g>
		</g>
	</g>
</g>
<g>
	<polygon points="33.761,24.719 34.605,25.208 34.612,23.927 33.504,24.57 	"/>
</g>
</svg>
