<?xml version="1.0" encoding="utf-8"?>
<!-- Generator: Adobe Illustrator 25.4.1, SVG Export Plug-In . SVG Version: 6.00 Build 0)  -->
<svg version="1.1" id="Layer_1" xmlns="http://www.w3.org/2000/svg" xmlns:xlink="http://www.w3.org/1999/xlink" x="0px" y="0px"
	 viewBox="0 0 50 50" style="enable-background:new 0 0 50 50;" xml:space="preserve">
<style type="text/css">
	.st0{opacity:0.15;}
	.st1{fill:#C0C1C1;}
	.st2{fill:#DC4E00;}
	.st3{fill:#FD8500;}
	.st4{fill:#222521;}
	.st5{fill:#838482;}
	.st6{fill:#737572;}
	.st7{fill:#AD2913;}
	.st8{fill:#595B58;}
	.st9{fill:#FD9D00;}
	.st10{opacity:0.17;}
	.st11{fill:#393939;}
	.st12{fill:#F5F5F5;}
	.st13{fill:#FAFAFA;}
	.st14{fill:#E5E6EA;}
	.st15{fill:#D4D5DE;}
	.st16{fill:#5C5E70;}
	.st17{fill:#3C3D51;}
	.st18{fill:#484A5F;}
	.st19{fill:#D6CFB7;}
	.st20{fill:#FFFFCC;}
	.st21{fill:#E8A631;}
	.st22{fill:#777988;}
	.st23{fill:#D2CAA5;}
	.st24{fill:#D2CA5F;}
	.st25{fill:#C4C646;}
	.st26{fill:#79751B;}
	.st27{fill:#2E2F44;}
	.st28{fill:#DBD685;}
	.st29{fill:#696B7C;}
	.st30{fill:#5F6064;}
	.st31{fill:#6CCEE6;}
	.st32{fill:#6A6B70;}
	.st33{fill:#646569;}
	.st34{fill:#7C7D81;}
	.st35{fill:#818285;}
	.st36{fill:#8F9093;}
	.st37{fill:#75B4FF;}
	.st38{fill:#291D1C;}
	.st39{fill:#FFFFFF;}
	.st40{fill:#2E74D4;}
	.st41{fill:#383838;}
	.st42{fill:#454545;}
</style>
<g>
	<g class="st0">
		<path class="st1" d="M45.543,32.515L22.308,19.1c-0.918-0.53-2.52-0.463-3.58,0.148l-4.264,2.462l-8.922,5.151
			c-1.059,0.612-1.175,1.537-0.257,2.067L28.52,42.343c0.918,0.53,2.52,0.463,3.58-0.148l13.186-7.613
			C46.345,33.97,46.46,33.045,45.543,32.515z"/>
	</g>
	<g>
		<g>
			<path class="st2" d="M47.751,25.789c-0.085-0.256-0.323,0.549-0.652,0.359L22.185,11.764c-0.984-0.568-2.702-0.497-3.838,0.159
				l-14.14,8.163c-0.614,0.354-0.932-0.394-0.94,0.037c0,0.011,1.518,6.606,1.956,6.859l23.623,14.384
				c0.984,0.568,2.702,0.497,3.838-0.159l5.474-3.312v-0.562l4.428-2.568l0.603,0.086l2.342-1.808
				C46.162,32.681,47.78,25.874,47.751,25.789z"/>
		</g>
		<g>
			<path class="st3" d="M47.751,25.789c-0.085-0.256-0.323,0.549-0.652,0.359L22.185,11.764c-0.984-0.568-2.702-0.497-3.838,0.159
				l-14.14,8.163c-0.614,0.354-0.932-0.394-0.94,0.037c0,0.011,1.518,6.606,1.956,6.859l23.623,14.384
				c0.984,0.568,2.702,0.497,3.838-0.159l5.474-3.312v-3.536l5.032-2.93v3.422l2.342-1.808
				C46.162,32.681,47.78,25.874,47.751,25.789z"/>
		</g>
		<path class="st2" d="M28.846,35.475L3.931,21.091c-0.984-0.568-0.86-1.56,0.276-2.216l14.14-8.163
			c1.136-0.656,2.855-0.727,3.838-0.159l24.915,14.384c0.984,0.568,0.86,1.56-0.276,2.216l-14.14,8.163
			C31.548,35.972,29.83,36.043,28.846,35.475z"/>
		<path class="st4" d="M28.829,35.217L4.038,20.904c-0.436-0.252-0.654-0.588-0.661-0.94c0-0.011,0-0.741,0-0.753
			c0.008-0.429,0.324,0.316,0.935-0.037l14.069-8.123c1.13-0.653,2.84-0.724,3.819-0.158l24.791,14.313
			c0.327,0.189,0.564-0.612,0.649-0.358c0.028,0.085,0.01,0.733,0.012,0.821c0.009,0.439-0.308,0.904-0.935,1.266l-14.069,8.123
			C31.518,35.712,29.808,35.783,28.829,35.217z"/>
		<polygon class="st5" points="38.161,31.713 38.161,34.364 37.652,31.453 		"/>
		<path class="st6" d="M46.992,24.001L22.201,9.688c-0.979-0.565-2.689-0.494-3.819,0.158l-4.549,2.627l0.015-0.009l-0.5-0.263
			L8.31,15.135l0.483,0.248l-4.48,2.587c-1.13,0.653-1.253,1.64-0.274,2.205l24.791,14.313c0.979,0.565,2.689,0.494,3.819-0.158
			l5.004-2.876l0.506,0.26l5.032-2.93l-0.489-0.257l4.017-2.319C47.848,25.554,47.971,24.566,46.992,24.001z"/>
		<polygon class="st7" points="42.586,34.766 43.19,34.852 43.19,31.431 42.288,31.431 		"/>
		<polygon class="st4" points="38.158,31.713 38.158,34.364 43.19,31.431 43.19,28.783 		"/>
		<g>
			<path class="st8" d="M19.413,30.36v1.237c0,0.32-0.226,0.449-0.505,0.288l-4.165-2.398c-0.279-0.161-0.505-0.551-0.505-0.871
				v-1.237l-1.347-0.778v1.797c0,0.864,0.611,1.918,1.364,2.353l5.142,2.962c0.753,0.435,1.364,0.087,1.364-0.778v-1.797
				L19.413,30.36z"/>
			<path class="st4" d="M19.102,30.529v1.237c0,0.32-0.226,0.449-0.505,0.288l-4.165-2.398c-0.279-0.161-0.505-0.551-0.505-0.871
				v-1.237l-1.347-0.778v1.797c0,0.864,0.611,1.918,1.364,2.353l5.041,3.105c0.753,0.435,1.465-0.056,1.465-0.92v-1.797
				L19.102,30.529z"/>
			<polygon class="st4" points="13.983,27.134 13.983,28.112 14.171,28.016 14.171,27.038 			"/>
			<polygon class="st5" points="13.984,27.134 13.984,28.112 12.127,27.03 12.127,26.053 			"/>
			<polygon class="st8" points="12.127,26.053 13.984,27.134 14.171,27.038 12.312,25.956 			"/>
			<polygon class="st4" points="20.412,30.763 20.412,31.742 20.6,31.646 20.6,30.668 			"/>
			<polygon class="st5" points="20.413,30.763 20.413,31.742 18.557,30.659 18.557,29.682 			"/>
			<polygon class="st8" points="18.557,29.682 20.413,30.763 20.6,30.668 18.741,29.585 			"/>
		</g>
		<g>
			<path d="M5.521,18.654l13.267-7.66c1.066-0.615,2.679-0.682,3.602-0.149l23.378,13.497c0.325,0.188,0.521,0.425,0.592,0.681
				c0.111-0.418-0.081-0.836-0.592-1.131L22.39,10.395c-0.923-0.533-2.536-0.466-3.602,0.149l-13.267,7.66
				c-0.69,0.399-0.981,0.929-0.851,1.399C4.76,19.266,5.045,18.929,5.521,18.654z"/>
		</g>
		<g>
			<g>
				<path class="st8" d="M43.998,23.582L22.51,11.176c-0.849-0.49-2.331-0.428-3.311,0.137l-3.943,2.277l-8.252,4.764
					c-0.98,0.566-1.086,1.421-0.238,1.911l21.488,12.406c0.849,0.49,2.331,0.428,3.311-0.137l12.195-7.041
					C44.74,24.928,44.847,24.072,43.998,23.582z"/>
			</g>
			<g>
				<path d="M43.76,25.494l-12.195,7.041c-0.98,0.566-2.462,0.627-3.311,0.137L6.766,20.265c-0.317-0.183-0.5-0.417-0.555-0.668
					c-0.078,0.37,0.103,0.735,0.555,0.996L28.255,33c0.849,0.49,2.331,0.428,3.311-0.137l12.195-7.041
					c0.614-0.354,0.885-0.823,0.793-1.244C44.485,24.902,44.218,25.229,43.76,25.494z"/>
			</g>
		</g>
		<path class="st8" d="M46.992,24.001L22.201,9.688c-0.979-0.565-2.689-0.494-3.819,0.158l-4.549,2.627l0.015-0.009l-0.5-0.263
			L8.31,15.135l0.483,0.248l-4.48,2.587c-1.13,0.653-1.253,1.64-0.274,2.205l24.791,14.313c0.979,0.565,2.689,0.494,3.819-0.158
			l5.004-2.876l0.506,0.26l5.032-2.93l-0.489-0.257l4.017-2.319C47.848,25.554,47.971,24.566,46.992,24.001z M45.509,25.972
			l-13.267,7.66c-1.066,0.615-2.679,0.682-3.602,0.149L5.262,20.284c-0.923-0.533-0.807-1.464,0.259-2.079l13.267-7.66
			c1.066-0.615,2.679-0.682,3.602-0.149l23.378,13.497C46.691,24.425,46.575,25.356,45.509,25.972z"/>
		<g>
			<path class="st9" d="M23.417,23.353c0.909-0.525,2.283-0.582,3.07-0.127l9.625,5.557l6.217-3.589
				c0.909-0.525,1.007-1.318,0.22-1.773L22.622,11.915c-0.787-0.454-2.162-0.397-3.07,0.127l-3.657,2.111l-7.652,4.418
				c-0.909,0.525-1.007,1.318-0.22,1.773l10.303,5.948l1.436-0.829L23.417,23.353z"/>
		</g>
		<polygon class="st5" points="8.793,15.383 8.372,15.625 8.31,15.135 		"/>
	</g>
	<g class="st10">
		<path class="st11" d="M21.846,41.295l-11.31-3.679c-0.447-0.145-1.135,0.031-1.539,0.394l-1.622,1.46l-3.395,3.055
			c-0.403,0.363-0.368,0.775,0.079,0.92l11.31,3.679c0.447,0.145,1.135-0.031,1.539-0.394l5.017-4.515
			C22.328,41.852,22.292,41.441,21.846,41.295z"/>
	</g>
	<g>
		<g>
			<g>
				<g>
					<polygon class="st12" points="13.972,40.541 11.802,42.82 17.901,44.296 20.071,42.017 					"/>
					<polygon class="st13" points="11.923,42.693 13.972,40.541 19.901,41.976 17.852,44.128 					"/>
					<polygon class="st14" points="20.068,42.008 20.101,42.12 17.931,44.399 17.898,44.286 					"/>
				</g>
				<g>
					<polygon class="st15" points="11.802,42.82 11.83,42.916 17.929,44.392 17.901,44.296 					"/>
				</g>
			</g>
			<g>
				<polygon class="st16" points="18.407,42.272 18.743,42.283 19.133,42.377 19.257,42.799 18.58,43.51 17.73,42.984 				"/>
				<polygon class="st17" points="17.73,42.984 18.066,42.994 18.456,43.089 18.58,43.51 17.831,43.329 				"/>
				<polygon class="st18" points="19.133,42.377 18.456,43.089 18.58,43.51 19.257,42.799 				"/>
				<polygon class="st19" points="18.503,43.1 18.6,43.427 19.209,42.787 19.113,42.46 18.975,42.605 				"/>
				<polygon class="st20" points="18.503,43.1 18.544,43.239 19.016,42.744 18.975,42.605 				"/>
				<polygon class="st21" points="19.209,42.787 19.182,42.694 18.572,43.334 18.6,43.427 				"/>
				<polygon class="st22" points="18.743,42.283 18.066,42.994 18.456,43.089 19.133,42.377 				"/>
			</g>
		</g>
		<g>
			<g>
				<path class="st23" d="M15.643,34.617c0.08-0.082,0.235-0.126,0.345-0.098c0.11,0.028,0.134,0.118,0.054,0.201
					c-0.08,0.082-0.235,0.126-0.345,0.098C15.586,34.789,15.562,34.7,15.643,34.617z"/>
				<path class="st24" d="M15.533,34.848c0.014,0.049,0.06,0.088,0.134,0.107c0.151,0.039,0.362-0.021,0.472-0.134
					c0.056-0.057,0.075-0.117,0.06-0.168l0.28,0.953c0.015,0.05-0.004,0.11-0.06,0.168c-0.11,0.113-0.322,0.173-0.472,0.134
					c-0.074-0.019-0.12-0.059-0.134-0.107L15.533,34.848z"/>
				<path class="st25" d="M15.573,34.703l0.055-0.069c-0.062,0.077-0.034,0.157,0.069,0.184c0.11,0.028,0.264-0.015,0.345-0.098
					c0.076-0.078,0.059-0.163-0.037-0.196l0.084,0.029c0.131,0.045,0.156,0.161,0.051,0.268c-0.11,0.113-0.322,0.173-0.472,0.134
					C15.526,34.919,15.488,34.809,15.573,34.703z"/>
			</g>
			<g>
				<path class="st23" d="M14.465,34.373c0.08-0.082,0.235-0.126,0.345-0.098c0.11,0.028,0.134,0.118,0.054,0.201
					c-0.08,0.082-0.235,0.126-0.345,0.098C14.408,34.546,14.384,34.456,14.465,34.373z"/>
				<path class="st24" d="M14.355,34.604c0.014,0.049,0.06,0.088,0.134,0.107c0.151,0.039,0.362-0.021,0.472-0.134
					c0.056-0.057,0.075-0.117,0.06-0.168l0.28,0.953c0.015,0.05-0.004,0.11-0.06,0.168c-0.11,0.113-0.322,0.173-0.472,0.134
					c-0.074-0.019-0.12-0.059-0.134-0.107L14.355,34.604z"/>
				<path class="st25" d="M14.395,34.459l0.055-0.069c-0.062,0.077-0.034,0.157,0.069,0.184c0.11,0.028,0.264-0.015,0.345-0.098
					c0.076-0.078,0.059-0.163-0.037-0.196l0.084,0.029c0.131,0.045,0.156,0.161,0.051,0.268c-0.11,0.113-0.322,0.173-0.472,0.134
					C14.348,34.675,14.31,34.566,14.395,34.459z"/>
			</g>
			<g>
				<path class="st23" d="M13.296,34.127c0.08-0.082,0.235-0.126,0.345-0.098c0.11,0.028,0.134,0.118,0.054,0.201
					c-0.08,0.082-0.235,0.126-0.345,0.098C13.239,34.299,13.215,34.209,13.296,34.127z"/>
				<path class="st24" d="M13.185,34.358c0.014,0.049,0.06,0.088,0.134,0.107c0.151,0.039,0.362-0.021,0.472-0.134
					c0.056-0.057,0.075-0.117,0.06-0.168l0.28,0.953c0.015,0.05-0.004,0.11-0.06,0.168c-0.11,0.113-0.322,0.173-0.472,0.134
					c-0.074-0.019-0.12-0.059-0.134-0.107L13.185,34.358z"/>
				<path class="st25" d="M13.225,34.213l0.055-0.069c-0.062,0.077-0.034,0.157,0.069,0.184c0.11,0.028,0.264-0.015,0.345-0.098
					c0.076-0.078,0.059-0.163-0.037-0.196l0.084,0.029c0.131,0.045,0.156,0.161,0.051,0.268c-0.11,0.113-0.322,0.173-0.472,0.134
					C13.179,34.428,13.141,34.319,13.225,34.213z"/>
			</g>
		</g>
		<polygon class="st26" points="5.62,42.277 5.68,41.983 7.953,39.573 11.736,40.546 11.783,40.59 12.243,41.304 9.848,43.84 
			5.662,42.816 		"/>
		<g>
			<g>
				<polygon class="st12" points="7.35,34.46 2.822,39.214 15.546,42.292 20.073,37.539 				"/>
				<polygon class="st13" points="3.074,38.95 7.35,34.46 19.719,37.453 15.443,41.942 				"/>
				<polygon class="st14" points="20.067,37.519 20.136,37.754 15.609,42.507 15.54,42.273 				"/>
			</g>
			<g>
				<polygon class="st15" points="2.822,39.214 2.882,39.414 15.605,42.493 15.546,42.292 				"/>
			</g>
		</g>
		<g>
			<path class="st27" d="M17.409,36.135c-0.012-0.04-0.022-0.078-0.031-0.117L17.3,35.965c-0.055-0.246-0.059-0.469-0.017-0.66
				l0.076,0.02c0.015-0.063,0.035-0.122,0.06-0.178l-0.059-0.075c0.081-0.168,0.206-0.301,0.368-0.393l0.076,0.054
				c0.056-0.03,0.116-0.054,0.181-0.073l-0.023-0.075c0.187-0.052,0.406-0.062,0.652-0.024l0.057,0.075
				c0.05,0.008,0.1,0.018,0.151,0.031c0.037,0.009,0.075,0.019,0.112,0.03l0.018-0.057c0.256,0.078,0.513,0.198,0.76,0.349
				l0.021,0.074c0.095,0.059,0.188,0.123,0.279,0.191l0.054-0.023c0.241,0.184,0.466,0.396,0.664,0.625l-0.02,0.054
				c0.076,0.09,0.148,0.182,0.215,0.276L21,36.204c0.164,0.235,0.298,0.481,0.39,0.73l-0.056,0.02
				c0.017,0.047,0.033,0.095,0.047,0.142c0.014,0.047,0.025,0.093,0.036,0.139l0.077,0.053c0.05,0.238,0.053,0.453,0.012,0.639
				l-0.076-0.02c-0.017,0.074-0.042,0.143-0.073,0.206l0.058,0.073c-0.083,0.161-0.209,0.287-0.37,0.375l-0.078-0.055
				c-0.062,0.031-0.129,0.057-0.201,0.075l0.023,0.076c-0.19,0.045-0.41,0.049-0.656,0.006l-0.057-0.075
				c-0.036-0.007-0.073-0.015-0.11-0.024c-0.052-0.012-0.103-0.027-0.155-0.043l-0.018,0.057c-0.259-0.084-0.518-0.209-0.766-0.366
				l-0.021-0.076c-0.086-0.056-0.171-0.115-0.254-0.178L18.7,37.98c-0.245-0.19-0.473-0.409-0.674-0.645l0.021-0.055
				c-0.064-0.077-0.125-0.156-0.182-0.236l-0.076-0.017c-0.168-0.242-0.305-0.497-0.398-0.753l0.056-0.02
				C17.433,36.214,17.42,36.174,17.409,36.135z"/>
			<polygon class="st27" points="21.243,38.393 19.809,39.848 19.573,39.998 19.373,40.146 18.832,39.953 18.537,39.939 
				18.378,40.067 17.84,39.628 16.18,36.35 17.603,34.83 18.156,34.769 20.948,36.764 			"/>
			<polygon class="st27" points="15.973,37.763 17.391,36.273 17.447,36.253 16.029,37.742 			"/>
			<polygon class="st17" points="21.391,36.934 19.972,38.423 19.582,37.693 21,36.204 			"/>
			<polygon class="st17" points="20.73,35.857 20.066,35.232 18.648,36.721 19.312,37.346 			"/>
			<polygon class="st17" points="19.712,34.989 18.294,36.478 17.534,36.129 18.952,34.64 			"/>
			<polygon class="st17" points="17.196,36.051 18.614,34.562 17.962,34.585 16.544,36.074 			"/>
			<polygon class="st17" points="16.31,36.169 17.728,34.68 17.473,34.894 16.094,36.338 			"/>
			<polygon class="st17" points="15.865,36.794 17.283,35.305 17.359,35.325 15.941,36.814 			"/>
			<polygon class="st17" points="20.077,38.777 21.495,37.288 21.507,37.926 20.089,39.415 			"/>
			<polygon class="st17" points="21.269,38.393 19.853,39.879 19.998,39.675 21.416,38.186 			"/>
			<polygon class="st17" points="21.358,38.113 21.416,38.186 19.998,39.675 19.94,39.602 			"/>
			<polygon class="st17" points="19.999,38.724 21.417,37.235 21.495,37.288 20.077,38.777 			"/>
			<polygon class="st17" points="19.507,37.676 19.582,37.693 21,36.204 20.925,36.187 			"/>
			<polygon class="st17" points="19.312,37.346 20.73,35.857 20.71,35.911 19.292,37.4 			"/>
			<polygon class="st17" points="18.314,36.552 19.733,35.063 19.712,34.989 18.294,36.478 			"/>
			<polygon class="st17" points="18.594,36.744 18.648,36.721 20.066,35.232 20.012,35.255 			"/>
			<polygon class="st17" points="17.252,36.125 18.671,34.636 18.614,34.562 17.196,36.051 			"/>
			<polygon class="st17" points="17.728,34.68 17.805,34.734 16.387,36.223 16.31,36.169 			"/>
			<g>
				<path class="st17" d="M15.991,37.624c-0.012-0.04-0.022-0.078-0.031-0.117l-0.078-0.053c-0.055-0.246-0.059-0.469-0.017-0.66
					l0.076,0.02c0.015-0.063,0.035-0.122,0.06-0.178l-0.059-0.075c0.081-0.168,0.206-0.301,0.368-0.393l0.076,0.054
					c0.056-0.03,0.116-0.054,0.181-0.073l-0.023-0.075c0.187-0.052,0.406-0.062,0.652-0.024l0.057,0.075
					c0.049,0.008,0.1,0.018,0.151,0.031c0.037,0.009,0.075,0.019,0.112,0.03l0.018-0.057c0.256,0.078,0.513,0.198,0.76,0.349
					l0.021,0.074c0.095,0.059,0.188,0.123,0.279,0.191l0.054-0.023c0.241,0.184,0.466,0.396,0.664,0.625l-0.02,0.054
					c0.076,0.09,0.148,0.182,0.215,0.276l0.075,0.017c0.164,0.235,0.298,0.481,0.39,0.73l-0.056,0.02
					c0.017,0.047,0.033,0.095,0.047,0.142c0.014,0.047,0.025,0.093,0.036,0.139l0.077,0.052c0.05,0.238,0.053,0.453,0.012,0.639
					l-0.076-0.02c-0.017,0.074-0.042,0.143-0.073,0.206l0.058,0.073c-0.083,0.161-0.209,0.287-0.37,0.375l-0.078-0.055
					c-0.062,0.031-0.129,0.057-0.201,0.075l0.023,0.076c-0.19,0.045-0.41,0.049-0.656,0.006l-0.057-0.075
					c-0.036-0.007-0.073-0.015-0.11-0.024c-0.052-0.012-0.103-0.027-0.155-0.043l-0.018,0.057c-0.259-0.084-0.518-0.209-0.766-0.366
					l-0.021-0.076c-0.086-0.056-0.171-0.115-0.254-0.178l-0.054,0.023c-0.245-0.19-0.473-0.409-0.673-0.645l0.021-0.055
					c-0.064-0.077-0.125-0.156-0.182-0.236l-0.076-0.017c-0.168-0.242-0.305-0.497-0.398-0.753l0.056-0.02
					C16.015,37.703,16.002,37.663,15.991,37.624z"/>
				<path class="st27" d="M16.774,37.814c0.192,0.652,0.886,1.311,1.551,1.472c0.665,0.161,1.048-0.237,0.856-0.889
					c-0.192-0.652-0.886-1.311-1.551-1.472C16.965,36.764,16.582,37.162,16.774,37.814z"/>
				<path class="st28" d="M16.873,37.838c0.176,0.598,0.813,1.202,1.423,1.35c0.61,0.148,0.961-0.218,0.785-0.816
					s-0.813-1.202-1.423-1.35C17.049,36.875,16.697,37.24,16.873,37.838z"/>
				<path class="st25" d="M16.819,37.896c0.176,0.598,0.813,1.202,1.423,1.35c0.61,0.148,0.961-0.218,0.785-0.816
					c-0.176-0.598-0.813-1.202-1.423-1.35C16.994,36.932,16.643,37.297,16.819,37.896z"/>
				<path class="st26" d="M16.982,37.935c0.15,0.51,0.693,1.024,1.212,1.15c0.381,0.092,0.644-0.05,0.698-0.334
					c0.02-0.104,0.012-0.225-0.028-0.361c-0.15-0.509-0.693-1.024-1.212-1.15c-0.141-0.034-0.266-0.036-0.37-0.01
					C17.002,37.299,16.873,37.564,16.982,37.935z"/>
			</g>
			<path class="st24" d="M17.31,37.592c0.15,0.509,0.693,1.024,1.212,1.15c0.142,0.034,0.267,0.036,0.371,0.009
				c0.02-0.104,0.012-0.225-0.028-0.361c-0.15-0.509-0.693-1.024-1.212-1.15c-0.141-0.034-0.266-0.036-0.37-0.01
				C17.262,37.334,17.27,37.455,17.31,37.592z"/>
		</g>
		<g>
			<polygon class="st16" points="11.789,36.316 6.846,41.555 15.91,45.594 21.116,40.08 20.118,38.526 20.015,38.431 			"/>
			<polygon class="st18" points="15.91,45.594 15.175,43.765 15.072,43.67 6.913,41.501 6.846,41.555 6.717,42.195 6.807,43.367 			
				"/>
			<polyline class="st29" points="20.015,38.431 20.118,38.526 15.175,43.765 6.846,41.555 6.913,41.501 15.072,43.67 			"/>
		</g>
		<g>
			<g>
				<polygon class="st30" points="14.466,43.956 20.022,38.122 19.88,37.64 5.602,41.363 5.744,41.845 				"/>
				<polygon class="st31" points="14.324,43.474 19.88,37.64 11.158,35.53 5.602,41.363 				"/>
				<g>
					<polygon class="st32" points="8.129,38.365 8.038,38.058 20.259,37.184 20.35,37.492 17.385,40.605 					"/>
					<polygon class="st33" points="17.294,40.298 17.385,40.605 20.35,37.492 20.259,37.184 					"/>
					<polygon class="st34" points="8.097,38.399 17.263,40.331 17.353,40.638 14.388,43.751 5.132,41.512 5.042,41.204 					"/>
					<polygon class="st33" points="14.298,43.444 14.388,43.751 17.353,40.638 17.263,40.331 					"/>
				</g>
				<g>
					<polygon class="st35" points="8.038,38.058 11.003,34.945 20.259,37.184 17.294,40.298 					"/>
					<polygon class="st36" points="8.094,38 11.003,34.945 20.181,37.166 17.272,40.22 					"/>
					<polygon class="st35" points="8.006,38.091 17.263,40.331 14.298,43.444 5.042,41.204 					"/>
					<polygon class="st36" points="5.097,41.146 8.006,38.091 17.185,40.312 14.275,43.367 					"/>
				</g>
			</g>
		</g>
		<g>
			<g>
				<polygon class="st30" points="14.221,43.123 19.777,37.289 19.635,36.807 5.357,40.531 5.499,41.013 				"/>
				<polygon class="st31" points="14.079,42.641 19.635,36.807 10.913,34.697 5.357,40.531 				"/>
				<g>
					<polygon class="st32" points="7.884,37.533 7.793,37.225 20.014,36.352 20.105,36.659 17.14,39.772 					"/>
					<polygon class="st33" points="17.049,39.465 17.14,39.772 20.105,36.659 20.014,36.352 					"/>
					<polygon class="st34" points="7.852,37.566 17.018,39.498 17.108,39.806 14.143,42.919 4.887,40.679 4.797,40.372 					"/>
					<polygon class="st33" points="14.053,42.611 14.143,42.919 17.108,39.806 17.018,39.498 					"/>
				</g>
				<g>
					<polygon class="st35" points="7.793,37.225 10.758,34.112 20.014,36.352 17.049,39.465 					"/>
					<polygon class="st36" points="7.849,37.167 10.758,34.112 19.936,36.333 17.027,39.388 					"/>
					<polygon class="st35" points="7.761,37.259 17.018,39.498 14.053,42.611 4.797,40.372 					"/>
					<polygon class="st36" points="4.852,40.314 7.761,37.259 16.94,39.48 14.03,42.534 					"/>
				</g>
			</g>
		</g>
		<g>
			<path class="st27" d="M10.697,43.887c-0.012-0.04-0.022-0.078-0.031-0.117l-0.078-0.053c-0.055-0.246-0.059-0.469-0.017-0.66
				l0.076,0.02c0.015-0.063,0.035-0.122,0.06-0.178l-0.059-0.075c0.081-0.168,0.206-0.301,0.368-0.393l0.076,0.054
				c0.056-0.03,0.116-0.054,0.181-0.073l-0.023-0.075c0.187-0.052,0.406-0.062,0.652-0.024l0.057,0.075
				c0.05,0.008,0.1,0.018,0.151,0.031c0.037,0.009,0.075,0.019,0.112,0.03l0.018-0.057c0.256,0.078,0.513,0.198,0.76,0.349
				l0.021,0.074c0.095,0.059,0.188,0.123,0.279,0.191l0.054-0.023c0.241,0.184,0.466,0.396,0.664,0.625l-0.02,0.054
				c0.076,0.09,0.148,0.182,0.215,0.276l0.075,0.017c0.164,0.235,0.298,0.481,0.39,0.73l-0.056,0.02
				c0.017,0.047,0.033,0.095,0.047,0.142c0.014,0.047,0.025,0.093,0.036,0.139l0.077,0.053c0.05,0.238,0.053,0.453,0.012,0.639
				l-0.076-0.02c-0.017,0.074-0.042,0.143-0.073,0.206l0.058,0.073c-0.083,0.161-0.209,0.287-0.37,0.375l-0.078-0.055
				c-0.062,0.031-0.129,0.057-0.201,0.075l0.023,0.076c-0.19,0.045-0.41,0.049-0.656,0.006l-0.057-0.075
				c-0.036-0.007-0.073-0.015-0.11-0.024c-0.052-0.012-0.103-0.027-0.155-0.043l-0.018,0.057c-0.259-0.084-0.518-0.209-0.766-0.366
				l-0.021-0.076c-0.086-0.056-0.171-0.115-0.254-0.178l-0.054,0.023c-0.245-0.19-0.473-0.409-0.674-0.645l0.021-0.055
				c-0.064-0.077-0.125-0.156-0.182-0.236l-0.076-0.017c-0.168-0.242-0.305-0.497-0.398-0.753l0.056-0.02
				C10.721,43.966,10.708,43.926,10.697,43.887z"/>
			<polygon class="st27" points="14.531,46.145 13.097,47.6 12.861,47.75 12.661,47.898 12.119,47.705 11.824,47.691 11.665,47.819 
				11.128,47.38 9.468,44.102 10.891,42.582 11.444,42.521 14.236,44.516 			"/>
			<polygon class="st27" points="9.261,45.515 10.679,44.026 10.735,44.005 9.317,45.494 			"/>
			<polygon class="st17" points="14.678,44.686 13.26,46.175 12.87,45.445 14.288,43.956 			"/>
			<polygon class="st17" points="14.018,43.609 13.354,42.984 11.936,44.473 12.6,45.098 			"/>
			<polygon class="st17" points="13,42.741 11.582,44.23 10.822,43.881 12.24,42.392 			"/>
			<polygon class="st17" points="10.484,43.803 11.902,42.314 11.25,42.337 9.832,43.826 			"/>
			<polygon class="st17" points="9.598,43.921 11.016,42.432 10.761,42.646 9.381,44.091 			"/>
			<polygon class="st17" points="9.153,44.546 10.571,43.057 10.647,43.077 9.229,44.566 			"/>
			<polygon class="st17" points="13.364,46.529 14.783,45.04 14.795,45.678 13.377,47.167 			"/>
			<polygon class="st17" points="14.557,46.145 13.141,47.631 13.286,47.427 14.704,45.938 			"/>
			<polygon class="st17" points="14.646,45.865 14.704,45.938 13.286,47.427 13.228,47.354 			"/>
			<polygon class="st17" points="13.287,46.476 14.705,44.987 14.783,45.04 13.364,46.529 			"/>
			<polygon class="st17" points="12.795,45.428 12.87,45.445 14.288,43.956 14.213,43.939 			"/>
			<polygon class="st17" points="12.6,45.098 14.018,43.609 13.998,43.663 12.58,45.152 			"/>
			<polygon class="st17" points="11.602,44.304 13.02,42.815 13,42.741 11.582,44.23 			"/>
			<polygon class="st17" points="11.881,44.496 11.936,44.473 13.354,42.984 13.299,43.007 			"/>
			<polygon class="st17" points="10.54,43.877 11.958,42.388 11.902,42.314 10.484,43.803 			"/>
			<polygon class="st17" points="11.016,42.432 11.093,42.486 9.674,43.975 9.598,43.921 			"/>
			<g>
				<path class="st17" d="M9.278,45.376c-0.012-0.04-0.022-0.078-0.031-0.117L9.17,45.206c-0.055-0.246-0.059-0.469-0.017-0.66
					l0.076,0.02c0.015-0.063,0.035-0.122,0.06-0.178L9.23,44.313c0.081-0.168,0.206-0.301,0.368-0.393l0.076,0.054
					c0.056-0.03,0.116-0.054,0.181-0.073l-0.023-0.075c0.187-0.052,0.406-0.062,0.652-0.024l0.057,0.075
					c0.049,0.008,0.1,0.018,0.151,0.031c0.037,0.009,0.075,0.019,0.112,0.03l0.018-0.057c0.256,0.078,0.513,0.198,0.76,0.349
					l0.021,0.074c0.095,0.059,0.188,0.123,0.279,0.191l0.054-0.023c0.241,0.184,0.466,0.396,0.664,0.625l-0.02,0.054
					c0.076,0.09,0.148,0.182,0.215,0.276l0.075,0.017c0.164,0.235,0.298,0.481,0.39,0.73l-0.056,0.02
					c0.017,0.047,0.033,0.095,0.047,0.142c0.014,0.047,0.025,0.093,0.036,0.139l0.077,0.052c0.05,0.238,0.053,0.453,0.012,0.639
					l-0.076-0.02c-0.017,0.074-0.042,0.143-0.073,0.206l0.058,0.073c-0.083,0.161-0.209,0.287-0.37,0.375l-0.078-0.055
					c-0.062,0.031-0.129,0.057-0.201,0.075l0.023,0.076c-0.19,0.045-0.41,0.049-0.656,0.006l-0.057-0.075
					c-0.036-0.007-0.073-0.015-0.11-0.024c-0.052-0.012-0.103-0.027-0.155-0.043l-0.018,0.057c-0.259-0.084-0.518-0.209-0.766-0.366
					l-0.021-0.076c-0.086-0.056-0.171-0.115-0.254-0.178l-0.054,0.023c-0.245-0.19-0.473-0.409-0.673-0.645l0.021-0.055
					c-0.064-0.077-0.125-0.156-0.182-0.236l-0.076-0.017c-0.168-0.242-0.305-0.497-0.398-0.753l0.056-0.02
					C9.303,45.455,9.29,45.415,9.278,45.376z"/>
				<path class="st27" d="M10.061,45.566c0.192,0.652,0.886,1.311,1.551,1.472c0.665,0.161,1.048-0.237,0.856-0.889
					c-0.192-0.652-0.886-1.311-1.551-1.472C10.253,44.516,9.87,44.914,10.061,45.566z"/>
				<path class="st28" d="M10.161,45.59c0.176,0.598,0.813,1.202,1.423,1.35c0.61,0.148,0.961-0.218,0.785-0.816
					c-0.176-0.598-0.813-1.202-1.423-1.35C10.337,44.627,9.985,44.992,10.161,45.59z"/>
				<path class="st25" d="M10.107,45.648c0.176,0.598,0.813,1.202,1.423,1.35c0.61,0.148,0.961-0.218,0.785-0.816
					c-0.176-0.598-0.813-1.202-1.423-1.35C10.282,44.684,9.931,45.049,10.107,45.648z"/>
				<path class="st26" d="M10.27,45.687c0.15,0.51,0.693,1.024,1.212,1.15c0.381,0.092,0.644-0.05,0.698-0.334
					c0.02-0.104,0.012-0.225-0.028-0.361c-0.15-0.509-0.693-1.024-1.212-1.15c-0.141-0.034-0.266-0.036-0.37-0.01
					C10.29,45.051,10.161,45.316,10.27,45.687z"/>
			</g>
			<path class="st24" d="M10.597,45.344c0.15,0.509,0.693,1.024,1.212,1.15c0.142,0.034,0.267,0.036,0.371,0.009
				c0.02-0.104,0.012-0.225-0.028-0.361c-0.15-0.509-0.693-1.024-1.212-1.15c-0.141-0.034-0.266-0.036-0.37-0.01
				C10.55,45.086,10.557,45.208,10.597,45.344z"/>
		</g>
		<g>
			<g>
				<path class="st23" d="M9.887,41.206c0.08-0.082,0.235-0.126,0.345-0.098c0.11,0.028,0.134,0.118,0.054,0.201
					c-0.08,0.082-0.235,0.126-0.345,0.098C9.831,41.378,9.807,41.288,9.887,41.206z"/>
				<path class="st24" d="M9.777,41.437c0.014,0.049,0.06,0.088,0.134,0.107c0.151,0.039,0.362-0.021,0.472-0.134
					c0.056-0.057,0.075-0.117,0.06-0.168l0.28,0.953c0.015,0.05-0.004,0.11-0.06,0.168c-0.11,0.113-0.322,0.173-0.472,0.134
					c-0.074-0.019-0.12-0.059-0.134-0.107L9.777,41.437z"/>
				<path class="st25" d="M9.817,41.292l0.055-0.069C9.81,41.3,9.838,41.38,9.941,41.407c0.11,0.028,0.264-0.015,0.345-0.098
					c0.076-0.078,0.059-0.163-0.037-0.196l0.084,0.029c0.131,0.045,0.156,0.161,0.051,0.268c-0.11,0.113-0.322,0.173-0.472,0.134
					C9.77,41.508,9.732,41.398,9.817,41.292z"/>
			</g>
			<g>
				<path class="st23" d="M8.709,40.962c0.08-0.082,0.235-0.126,0.345-0.098c0.11,0.028,0.134,0.118,0.054,0.201
					c-0.08,0.082-0.235,0.126-0.345,0.098C8.653,41.134,8.629,41.045,8.709,40.962z"/>
				<path class="st24" d="M8.599,41.193c0.014,0.049,0.06,0.088,0.134,0.107c0.151,0.039,0.362-0.021,0.472-0.134
					c0.056-0.057,0.075-0.117,0.06-0.168l0.28,0.953c0.015,0.05-0.004,0.11-0.06,0.168c-0.11,0.113-0.322,0.173-0.472,0.134
					c-0.074-0.019-0.12-0.059-0.134-0.107L8.599,41.193z"/>
				<path class="st25" d="M8.639,41.048l0.055-0.069c-0.062,0.077-0.034,0.157,0.069,0.184c0.11,0.028,0.264-0.015,0.345-0.098
					c0.076-0.078,0.059-0.163-0.037-0.196l0.084,0.029c0.131,0.045,0.156,0.161,0.051,0.268c-0.11,0.113-0.322,0.173-0.472,0.134
					C8.592,41.264,8.554,41.154,8.639,41.048z"/>
			</g>
			<g>
				<path class="st23" d="M7.54,40.716c0.08-0.082,0.235-0.126,0.345-0.098c0.11,0.028,0.134,0.118,0.054,0.201
					c-0.08,0.082-0.235,0.126-0.345,0.098C7.484,40.888,7.46,40.798,7.54,40.716z"/>
				<path class="st24" d="M7.43,40.946c0.014,0.049,0.06,0.088,0.134,0.107c0.151,0.039,0.362-0.021,0.472-0.134
					c0.056-0.057,0.075-0.117,0.06-0.168l0.28,0.953c0.015,0.05-0.004,0.11-0.06,0.168c-0.11,0.113-0.322,0.173-0.472,0.134
					c-0.074-0.019-0.12-0.059-0.134-0.107L7.43,40.946z"/>
				<path class="st25" d="M7.47,40.802l0.055-0.069c-0.062,0.077-0.034,0.157,0.069,0.184c0.11,0.028,0.264-0.015,0.345-0.098
					c0.076-0.078,0.059-0.163-0.037-0.196l0.084,0.029c0.131,0.045,0.156,0.161,0.051,0.268c-0.11,0.113-0.322,0.173-0.472,0.134
					C7.423,41.017,7.385,40.908,7.47,40.802z"/>
			</g>
		</g>
		<g>
			<g>
				<path class="st37" d="M18.186,38.347c0.213-0.224,0.442-0.306,0.638-0.258l0.441,0.108c-0.197-0.048-0.425,0.034-0.638,0.258
					c-0.424,0.445-0.626,1.28-0.451,1.866c0.087,0.291,0.25,0.466,0.444,0.513l-0.441-0.108c-0.194-0.048-0.357-0.222-0.444-0.513
					C17.561,39.627,17.762,38.792,18.186,38.347z"/>
				<g>
					<path class="st38" d="M18.627,38.455c0.423-0.445,0.908-0.331,1.082,0.255c0.174,0.586-0.028,1.421-0.452,1.866
						c-0.424,0.445-0.908,0.33-1.082-0.255C18.001,39.735,18.203,38.9,18.627,38.455z"/>
				</g>
			</g>
			<g>
				<path class="st39" d="M20.036,38.783c0.423-0.445,0.908-0.331,1.082,0.255c0.174,0.586-0.028,1.421-0.452,1.866
					c-0.424,0.445-0.908,0.33-1.082-0.255C19.41,40.063,19.612,39.228,20.036,38.783z"/>
			</g>
			<path class="st40" d="M19.585,40.649c0.174,0.586,0.659,0.7,1.082,0.255c0.423-0.445,0.626-1.28,0.452-1.866
				c-0.174-0.586-0.659-0.7-1.082-0.255C19.612,39.228,19.41,40.063,19.585,40.649z M19.681,40.548
				c-0.152-0.513,0.024-1.243,0.395-1.632c0.37-0.389,0.794-0.289,0.947,0.223c0.152,0.512-0.025,1.243-0.395,1.632
				C20.257,41.16,19.833,41.06,19.681,40.548z"/>
			<g>
				<path d="M20.17,40.425c0.011,0.004,0.021,0.008,0.033,0.011C20.192,40.433,20.181,40.429,20.17,40.425z"/>
				<path d="M20.153,39.387c0.045-0.044,0.165-0.163,0.337-0.123c-0.087-0.021-0.189,0.015-0.284,0.115
					c-0.188,0.198-0.278,0.569-0.201,0.829c0.034,0.113,0.093,0.186,0.165,0.217C19.842,40.295,19.869,39.688,20.153,39.387z"/>
			</g>
			<g>
				<path class="st41" d="M20.319,39.462c0.164-0.173,0.352-0.128,0.42,0.099c0.068,0.227-0.011,0.551-0.175,0.724
					c-0.164,0.172-0.352,0.128-0.42-0.099C20.076,39.958,20.154,39.634,20.319,39.462z"/>
			</g>
			<path class="st42" d="M20.005,40.208c0.038,0.129,0.111,0.207,0.197,0.228l0.019,0.005c0.029,0.006,0.117,0.026,0.225-0.035
				c0.178-0.099,0.313-0.359,0.328-0.632c0.004-0.071,0.009-0.428-0.266-0.506l-0.019-0.005c-0.087-0.021-0.189,0.015-0.284,0.115
				C20.018,39.576,19.928,39.947,20.005,40.208z M20.144,40.186c-0.068-0.227,0.011-0.552,0.175-0.724
				c0.164-0.173,0.352-0.128,0.42,0.099c0.068,0.227-0.011,0.551-0.175,0.724C20.399,40.457,20.211,40.413,20.144,40.186z"/>
			<path class="st37" d="M18.714,38.459c0.213-0.224,0.442-0.306,0.638-0.258l0.441,0.108c-0.168-0.041-0.168-0.041,0,0l0.441,0.108
				c-0.172-0.042-0.172-0.042,0,0l0.441,0.108c-0.197-0.048-0.425,0.034-0.638,0.258c-0.424,0.445-0.626,1.28-0.451,1.866
				c0.087,0.291,0.25,0.466,0.444,0.513l-0.441-0.108c0,0,0,0,0,0l-0.441-0.108c0,0,0,0,0,0l-0.441-0.108
				c-0.194-0.048-0.357-0.222-0.444-0.513C18.088,39.739,18.29,38.904,18.714,38.459z"/>
		</g>
		<g>
			<g>
				<path class="st37" d="M15.744,41.031c0.213-0.224,0.442-0.306,0.638-0.258l0.441,0.108c-0.197-0.048-0.425,0.034-0.639,0.258
					c-0.424,0.445-0.626,1.28-0.451,1.866c0.087,0.291,0.25,0.466,0.444,0.513l-0.441-0.108c-0.194-0.048-0.357-0.222-0.444-0.513
					C15.118,42.311,15.32,41.476,15.744,41.031z"/>
				<g>
					<path class="st38" d="M16.184,41.139c0.423-0.445,0.908-0.331,1.082,0.255c0.174,0.586-0.028,1.421-0.452,1.866
						c-0.424,0.445-0.908,0.33-1.082-0.255C15.559,42.419,15.761,41.584,16.184,41.139z"/>
				</g>
			</g>
			<g>
				<path class="st39" d="M17.594,41.467c0.423-0.445,0.908-0.331,1.082,0.255c0.174,0.586-0.028,1.421-0.452,1.866
					c-0.424,0.445-0.908,0.33-1.082-0.255C16.968,42.747,17.17,41.912,17.594,41.467z"/>
			</g>
			<path class="st40" d="M17.142,43.333c0.174,0.586,0.659,0.7,1.082,0.255c0.423-0.445,0.626-1.28,0.452-1.866
				c-0.174-0.586-0.659-0.7-1.082-0.255C17.17,41.912,16.968,42.747,17.142,43.333z M17.238,43.232
				c-0.152-0.513,0.024-1.243,0.395-1.632c0.37-0.389,0.794-0.289,0.947,0.223c0.152,0.512-0.025,1.243-0.395,1.632
				C17.814,43.845,17.391,43.744,17.238,43.232z"/>
			<g>
				<path d="M17.727,43.109c0.011,0.004,0.021,0.008,0.033,0.011C17.749,43.118,17.738,43.114,17.727,43.109z"/>
				<path d="M17.711,42.071c0.045-0.044,0.165-0.163,0.337-0.123c-0.087-0.021-0.189,0.015-0.284,0.115
					c-0.188,0.198-0.278,0.569-0.201,0.829c0.034,0.113,0.093,0.186,0.165,0.217C17.4,42.979,17.427,42.372,17.711,42.071z"/>
			</g>
			<g>
				<path class="st41" d="M17.876,42.146c0.164-0.173,0.352-0.128,0.42,0.099c0.068,0.227-0.011,0.551-0.175,0.724
					c-0.164,0.172-0.352,0.128-0.42-0.099C17.633,42.643,17.712,42.319,17.876,42.146z"/>
			</g>
			<path class="st42" d="M17.563,42.892c0.038,0.129,0.111,0.207,0.197,0.228l0.019,0.005c0.029,0.006,0.117,0.026,0.225-0.035
				c0.178-0.099,0.313-0.359,0.328-0.632c0.004-0.071,0.009-0.428-0.266-0.506l-0.019-0.005c-0.087-0.021-0.189,0.015-0.284,0.115
				C17.575,42.261,17.485,42.632,17.563,42.892z M17.701,42.87c-0.068-0.227,0.011-0.552,0.175-0.724
				c0.164-0.173,0.352-0.128,0.42,0.099c0.068,0.227-0.011,0.551-0.175,0.724C17.957,43.142,17.769,43.097,17.701,42.87z"/>
			<path class="st37" d="M16.271,41.143c0.213-0.224,0.442-0.306,0.638-0.258l0.441,0.108c-0.168-0.041-0.168-0.041,0,0l0.441,0.108
				c-0.172-0.042-0.172-0.042,0,0l0.441,0.108c-0.197-0.048-0.425,0.034-0.638,0.258c-0.424,0.445-0.626,1.28-0.451,1.866
				c0.087,0.291,0.25,0.466,0.444,0.513l-0.441-0.108c0,0,0,0,0,0l-0.441-0.108c0,0,0,0,0,0l-0.441-0.108
				c-0.194-0.048-0.357-0.222-0.444-0.513C15.646,42.423,15.847,41.588,16.271,41.143z"/>
		</g>
	</g>
</g>
</svg>
