<?xml version="1.0" encoding="utf-8"?>
<!-- Generator: Adobe Illustrator 25.4.1, SVG Export Plug-In . SVG Version: 6.00 Build 0)  -->
<svg version="1.1" id="Layer_1" xmlns="http://www.w3.org/2000/svg" xmlns:xlink="http://www.w3.org/1999/xlink" x="0px" y="0px"
	 viewBox="0 0 50 50" style="enable-background:new 0 0 50 50;" xml:space="preserve">
<style type="text/css">
	.st0{fill:url(#SVGID_1_);}
	.st1{fill:#939598;}
	.st2{fill:#A7A9AC;}
	.st3{fill:#7A7D7F;}
	.st4{fill:#77A9BE;}
	.st5{fill:#8ECAE4;}
	.st6{fill:#D4EFFC;}
	.st7{fill:#F3F4F4;}
	.st8{fill:#BCBEC0;}
	.st9{fill:#A1A4A6;}
	.st10{fill:url(#SVGID_00000183248185417278049160000013098103943963139758_);}
	.st11{fill:url(#SVGID_00000116940063540591769570000000219673784479847323_);}
	.st12{fill:#454749;}
	.st13{opacity:0.33;}
	.st14{fill:#E5E5E5;}
	.st15{opacity:0.26;fill:#E5E5E5;}
	.st16{fill:url(#SVGID_00000168111553427033717890000003487069997912532143_);}
	.st17{fill:url(#SVGID_00000142169331229936355300000013886033233953364899_);}
	.st18{fill:#DEDFE0;}
	.st19{fill:#919396;}
	.st20{fill:none;}
	.st21{fill:#E8E8E8;}
	.st22{fill:#E2E3E4;}
	.st23{fill:url(#SVGID_00000071522503866911956380000014205451723860541325_);}
	.st24{fill:#DC9A11;}
	.st25{fill:#EFB224;}
	.st26{fill:url(#SVGID_00000017513025675373888370000013091714646607429253_);}
	.st27{fill:#E2A217;}
	.st28{fill:#FFCF40;}
	.st29{fill:url(#SVGID_00000109012781062444913230000008248122199159871139_);}
	.st30{fill:url(#SVGID_00000038397025087465979950000015889891815143061392_);}
</style>
<radialGradient id="SVGID_1_" cx="16.1335" cy="32.7641" r="15.8951" gradientTransform="matrix(1.5353 0 0 -0.569 0.0982 58.9349)" gradientUnits="userSpaceOnUse">
	<stop  offset="0.2598" style="stop-color:#B4BCC1"/>
	<stop  offset="0.4308" style="stop-color:#BCC3C8;stop-opacity:0.7486"/>
	<stop  offset="0.6967" style="stop-color:#D2D7DA;stop-opacity:0.3577"/>
	<stop  offset="0.94" style="stop-color:#ECEEEF;stop-opacity:0"/>
</radialGradient>
<ellipse class="st0" cx="24.868" cy="40.292" rx="24.402" ry="9.045"/>
<g>
	<g>
		<g>
			<path class="st1" d="M26.648,7.827v21.461l0.996,0.572c0.225-0.233,0.553-0.28,0.922-0.067l9.856,5.663
				c0.369,0.212,0.698,0.636,0.922,1.127l1.227,0.705V15.827L26.648,7.827z"/>
		</g>
	</g>
	<g>
		<g>
			<path class="st2" d="M12.739,15.754v21.461l1.227-0.705c0.225-0.491,0.553-0.915,0.922-1.127l9.856-5.663
				c0.369-0.212,0.698-0.166,0.922,0.067l0.996-0.572V7.754L12.739,15.754z"/>
		</g>
	</g>
	
		<rect x="34.896" y="15.711" transform="matrix(-1 -4.459378e-11 4.459378e-11 -1 70.9344 33.1792)" class="st3" width="1.142" height="1.757"/>
	
		<rect x="17.071" y="15.838" transform="matrix(-1 -4.539004e-11 4.539004e-11 -1 35.2835 33.4328)" class="st3" width="1.142" height="1.757"/>
	<polygon class="st4" points="12.848,35.287 26.771,43.287 40.695,35.287 26.771,27.287 	"/>
	<polygon class="st5" points="12.739,28.271 26.662,36.271 40.586,28.271 26.662,20.271 	"/>
	<polygon class="st6" points="12.739,28.044 26.662,36.044 40.586,28.044 26.662,20.044 	"/>
	<g>
		<g>
			<path class="st7" d="M12.739,15.754v21.461l0.996,0.572c0.225-0.233,0.553-0.28,0.922-0.067l9.856,5.663
				c0.369,0.212,0.698,0.636,0.922,1.127l1.227,0.705V23.754L12.739,15.754z M13.906,18.77c0-0.329,0.194-0.488,0.431-0.351
				l10.482,6.022c0.237,0.136,0.431,0.517,0.431,0.847v13.101c-0.096,1.017-0.751,1.481-1.548,1.023l-8.247-4.739
				c-0.797-0.458-1.452-1.675-1.548-2.802V18.77z"/>
		</g>
	</g>
	<g>
		<g>
			<path class="st8" d="M26.662,23.754v21.461l1.227-0.705c0.225-0.491,0.553-0.915,0.922-1.127l9.856-5.663
				c0.369-0.212,0.698-0.166,0.922,0.067l0.996-0.572V15.754L26.662,23.754z"/>
		</g>
	</g>
	<g>
		<path class="st9" d="M27.692,11.483l-0.696,0.401c-0.133,0.076-0.357,0.07-0.499-0.014l-0.756-0.448l-7.963,4.575l-2.05-1.124
			L26.662,8.59l10.658,6.124l-1.999,1.153L27.692,11.483z"/>
	</g>
	
		<linearGradient id="SVGID_00000111161778753157232630000003768105354366800310_" gradientUnits="userSpaceOnUse" x1="3835.3127" y1="193.9184" x2="3835.4414" y2="194.1429" gradientTransform="matrix(-1.0699 -0.0406 -0.1203 0.9301 4152.0059 -10.9889)">
		<stop  offset="0" style="stop-color:#A5A7AA"/>
		<stop  offset="0.1337" style="stop-color:#A8AAAD"/>
		<stop  offset="0.2313" style="stop-color:#B1B3B6"/>
		<stop  offset="0.3175" style="stop-color:#C1C3C5"/>
		<stop  offset="0.3971" style="stop-color:#D8D9DA"/>
		<stop  offset="0.4714" style="stop-color:#F4F5F5"/>
		<stop  offset="0.4946" style="stop-color:#FFFFFF"/>
		<stop  offset="0.502" style="stop-color:#F9F9F9"/>
		<stop  offset="0.5431" style="stop-color:#DDDEDF"/>
		<stop  offset="0.5897" style="stop-color:#C6C7C9"/>
		<stop  offset="0.643" style="stop-color:#B5B5B8"/>
		<stop  offset="0.7075" style="stop-color:#A8A9AC"/>
		<stop  offset="0.7944" style="stop-color:#A1A2A5"/>
		<stop  offset="1" style="stop-color:#9FA0A3"/>
	</linearGradient>
	<path style="fill:url(#SVGID_00000111161778753157232630000003768105354366800310_);" d="M23.162,12.369l0.017-0.003l0.167,0.096
		l3.797,2.204l-0.352,0.039l-3.568-2.074l-0.136-0.078c-0.007-0.02-0.011-0.041-0.008-0.065
		C23.086,12.435,23.119,12.392,23.162,12.369z"/>
	
		<linearGradient id="SVGID_00000009552099989252803350000010209517692306322340_" gradientUnits="userSpaceOnUse" x1="-3120.0862" y1="-91.7328" x2="-3119.9692" y2="-91.529" gradientTransform="matrix(1.0608 -0.0349 0.1058 0.9392 3347.4973 -9.2126)">
		<stop  offset="0" style="stop-color:#A5A7AA"/>
		<stop  offset="0.1337" style="stop-color:#A8AAAD"/>
		<stop  offset="0.2313" style="stop-color:#B1B3B6"/>
		<stop  offset="0.3175" style="stop-color:#C1C3C5"/>
		<stop  offset="0.3971" style="stop-color:#D8D9DA"/>
		<stop  offset="0.4714" style="stop-color:#F4F5F5"/>
		<stop  offset="0.4946" style="stop-color:#FFFFFF"/>
		<stop  offset="0.502" style="stop-color:#F9F9F9"/>
		<stop  offset="0.5431" style="stop-color:#DDDEDF"/>
		<stop  offset="0.5897" style="stop-color:#C6C7C9"/>
		<stop  offset="0.643" style="stop-color:#B5B5B8"/>
		<stop  offset="0.7075" style="stop-color:#A8A9AC"/>
		<stop  offset="0.7944" style="stop-color:#A1A2A5"/>
		<stop  offset="1" style="stop-color:#9FA0A3"/>
	</linearGradient>
	<path style="fill:url(#SVGID_00000009552099989252803350000010209517692306322340_);" d="M30.053,12.467l-0.017-0.003L29.87,12.56
		l-3.663,2.102l0.348,0.041l3.435-1.973l0.136-0.078c0.007-0.02,0.011-0.042,0.009-0.065C30.128,12.534,30.096,12.491,30.053,12.467
		z"/>
	<g>
		<path class="st12" d="M24.967,15.785l0.15,0.091l0.025-0.009l0.141,0.11l0.025-0.009l0.141,0.11l0.025-0.009l0.141,0.11
			l0.025-0.009l0.141,0.11l0.025-0.009l0.141,0.11l0.025-0.009l0.142,0.111l0.025-0.009l0.445,0.295
			c0.12,0.073,0.312,0.078,0.425,0.01l0.403-0.263l0.025,0.009l0.141-0.107l0.025,0.009l0.141-0.107l0.025,0.009l0.141-0.107
			l0.025,0.009l0.141-0.108l0.025,0.009l0.14-0.107l0.025,0.009l0.141-0.107l0.025,0.009l0.11-0.065
			c0.114-0.068,0.56-1.355,0.645-1.612l-2.275-0.396c-0.12-0.073-0.312-0.078-0.425-0.01l-2.165,0.322
			C24.363,14.295,24.847,15.711,24.967,15.785z"/>
		<polygon class="st13" points="28.434,15.936 28.409,15.927 28.635,14.754 28.683,14.886 		"/>
		<polygon class="st13" points="28.269,16.034 28.244,16.025 28.469,14.852 28.518,14.984 		"/>
		<polygon class="st13" points="28.103,16.132 28.078,16.123 28.304,14.95 28.352,15.081 		"/>
		<polygon class="st13" points="27.937,16.231 27.912,16.222 28.137,15.049 28.186,15.181 		"/>
		<polygon class="st13" points="27.771,16.33 27.746,16.321 27.972,15.147 28.02,15.279 		"/>
		<polygon class="st13" points="27.605,16.428 27.58,16.419 27.806,15.246 27.854,15.378 		"/>
		<polygon class="st13" points="27.439,16.527 27.414,16.518 27.64,15.344 27.688,15.476 		"/>
		<polygon class="st13" points="25.117,15.876 25.142,15.867 24.916,14.694 24.868,14.825 		"/>
		<polygon class="st13" points="25.283,15.977 25.308,15.968 25.083,14.795 25.034,14.927 		"/>
		<polygon class="st13" points="25.45,16.079 25.475,16.07 25.249,14.896 25.201,15.028 		"/>
		<polygon class="st13" points="25.616,16.18 25.641,16.171 25.416,14.998 25.367,15.129 		"/>
		<polygon class="st13" points="25.783,16.281 25.808,16.272 25.582,15.099 25.534,15.231 		"/>
		<polygon class="st13" points="25.949,16.383 25.974,16.374 25.748,15.2 25.7,15.332 		"/>
		<polygon class="st13" points="26.116,16.484 26.141,16.476 25.915,15.302 25.867,15.434 		"/>
		<g>
			<path class="st7" d="M26.489,13.853c0.114-0.068,0.305-0.063,0.425,0.01l2.275,0.396c-0.084,0.257-0.531,1.544-0.645,1.612
				l-0.11,0.065l0.205-1.081c0.003-0.015-0.012-0.019-0.033-0.009c-0.021,0.01-0.04,0.029-0.043,0.044l-0.207,1.093l-0.087,0.052
				l0.203-1.074c0.003-0.015-0.012-0.019-0.033-0.009c-0.021,0.01-0.04,0.029-0.043,0.044l-0.205,1.086l-0.087,0.052l0.2-1.056
				c0.003-0.015-0.012-0.019-0.033-0.009c-0.021,0.01-0.04,0.029-0.043,0.044l-0.202,1.068l-0.087,0.052l0.198-1.045
				c0.003-0.015-0.012-0.019-0.033-0.009c-0.021,0.01-0.04,0.029-0.043,0.044l-0.2,1.057l-0.087,0.052l0.196-1.037
				c0.003-0.015-0.012-0.019-0.033-0.009c-0.021,0.01-0.04,0.029-0.043,0.044l-0.198,1.048l-0.087,0.052l0.193-1.019
				c0.003-0.015-0.012-0.019-0.033-0.009c-0.021,0.01-0.04,0.029-0.043,0.044l-0.195,1.03l-0.087,0.052l0.19-1.005
				c0.003-0.015-0.012-0.019-0.033-0.009c-0.021,0.01-0.04,0.029-0.043,0.044l-0.192,1.016l-0.35,0.207
				c-0.016,0.01-0.036,0.014-0.055,0.021l0.114-1.503H26.57l0.107,1.51c-0.033-0.009-0.065-0.022-0.092-0.038l-0.391-0.238
				l-0.192-1.015c-0.003-0.015-0.022-0.034-0.043-0.044c-0.021-0.01-0.036-0.006-0.033,0.009l0.19,1.002l-0.088-0.053l-0.194-1.027
				c-0.003-0.015-0.022-0.034-0.043-0.044c-0.021-0.01-0.036-0.006-0.033,0.009l0.192,1.014l-0.088-0.053l-0.197-1.042
				c-0.003-0.015-0.022-0.034-0.043-0.044c-0.021-0.01-0.036-0.006-0.033,0.009l0.195,1.029l-0.088-0.053l-0.198-1.047
				c-0.003-0.015-0.022-0.034-0.043-0.044c-0.021-0.01-0.036-0.006-0.033,0.009l0.196,1.034l-0.088-0.053l-0.2-1.055
				c-0.003-0.015-0.022-0.034-0.043-0.044c-0.021-0.01-0.036-0.006-0.033,0.009l0.197,1.042l-0.088-0.053l-0.202-1.07
				c-0.003-0.015-0.022-0.034-0.043-0.044c-0.021-0.01-0.036-0.006-0.033,0.009l0.2,1.057l-0.088-0.053l-0.203-1.074
				c-0.003-0.015-0.022-0.034-0.043-0.044c-0.021-0.01-0.036-0.006-0.033,0.009l0.201,1.061l-0.15-0.091
				c-0.12-0.073-0.604-1.489-0.643-1.609L26.489,13.853z"/>
			<path class="st14" d="M27.069,15.299l-0.114,1.503c-0.084,0.03-0.187,0.033-0.278,0.007l-0.107-1.51H27.069z"/>
			<path class="st15" d="M27.069,15.299l-0.114,1.503c-0.084,0.03-0.187,0.033-0.278,0.007l-0.107-1.51H27.069z"/>
		</g>
		<path class="st8" d="M24.43,14.285l2.106,1.282c0.156,0.095,0.405,0.101,0.553,0.013l1.995-1.183
			c0.148-0.088,0.141-0.238-0.015-0.333l-2.106-1.282c-0.156-0.095-0.405-0.101-0.553-0.013l-1.995,1.183
			C24.267,14.041,24.274,14.19,24.43,14.285z"/>
		<path class="st7" d="M25.041,14.256l1.552,0.945c0.115,0.07,0.299,0.075,0.408,0.01l1.47-0.872
			c0.109-0.065,0.104-0.175-0.011-0.245l-1.552-0.945c-0.115-0.07-0.299-0.075-0.408-0.01l-1.47,0.872
			C24.92,14.076,24.925,14.186,25.041,14.256z"/>
	</g>
	
		<linearGradient id="SVGID_00000175323605148832221610000008684994038930798239_" gradientUnits="userSpaceOnUse" x1="4139.8008" y1="16.8009" x2="4139.9224" y2="17.0133" gradientTransform="matrix(-1 0 0 1 4170.9097 0)">
		<stop  offset="0" style="stop-color:#A5A7AA"/>
		<stop  offset="0.1337" style="stop-color:#A8AAAD"/>
		<stop  offset="0.2313" style="stop-color:#B1B3B6"/>
		<stop  offset="0.3175" style="stop-color:#C1C3C5"/>
		<stop  offset="0.3971" style="stop-color:#D8D9DA"/>
		<stop  offset="0.4714" style="stop-color:#F4F5F5"/>
		<stop  offset="0.4946" style="stop-color:#FFFFFF"/>
		<stop  offset="0.502" style="stop-color:#F9F9F9"/>
		<stop  offset="0.5431" style="stop-color:#DDDEDF"/>
		<stop  offset="0.5897" style="stop-color:#C6C7C9"/>
		<stop  offset="0.643" style="stop-color:#B5B5B8"/>
		<stop  offset="0.7075" style="stop-color:#A8A9AC"/>
		<stop  offset="0.7944" style="stop-color:#A1A2A5"/>
		<stop  offset="1" style="stop-color:#9FA0A3"/>
	</linearGradient>
	<path style="fill:url(#SVGID_00000175323605148832221610000008684994038930798239_);" d="M28.083,15.119l0.015-0.004l0.167,0.096
		l5.835,3.358l-0.322,0.055l-5.608-3.229l-0.136-0.078c-0.009-0.021-0.015-0.044-0.015-0.069
		C28.02,15.192,28.046,15.145,28.083,15.119z"/>
	
		<linearGradient id="SVGID_00000032613930257017982370000011011888268392051333_" gradientUnits="userSpaceOnUse" x1="-3309.0137" y1="16.8009" x2="-3308.8918" y2="17.0133" gradientTransform="matrix(1 0 0 1 3331.4583 0)">
		<stop  offset="0" style="stop-color:#A5A7AA"/>
		<stop  offset="0.1337" style="stop-color:#A8AAAD"/>
		<stop  offset="0.2313" style="stop-color:#B1B3B6"/>
		<stop  offset="0.3175" style="stop-color:#C1C3C5"/>
		<stop  offset="0.3971" style="stop-color:#D8D9DA"/>
		<stop  offset="0.4714" style="stop-color:#F4F5F5"/>
		<stop  offset="0.4946" style="stop-color:#FFFFFF"/>
		<stop  offset="0.502" style="stop-color:#F9F9F9"/>
		<stop  offset="0.5431" style="stop-color:#DDDEDF"/>
		<stop  offset="0.5897" style="stop-color:#C6C7C9"/>
		<stop  offset="0.643" style="stop-color:#B5B5B8"/>
		<stop  offset="0.7075" style="stop-color:#A8A9AC"/>
		<stop  offset="0.7944" style="stop-color:#A1A2A5"/>
		<stop  offset="1" style="stop-color:#9FA0A3"/>
	</linearGradient>
	<path style="fill:url(#SVGID_00000032613930257017982370000011011888268392051333_);" d="M25.471,15.119l-0.015-0.004l-0.167,0.096
		l-5.835,3.358l0.322,0.055l5.608-3.229l0.136-0.078c0.009-0.021,0.015-0.044,0.015-0.069
		C25.534,15.192,25.508,15.145,25.471,15.119z"/>
	<path class="st18" d="M18.086,15.662l-0.602-0.357l8.24-4.735l0.756,0.448c0.142,0.084,0.367,0.091,0.499,0.014l0.696-0.401
		l7.944,4.565l-0.646,0.372c-0.133,0.076-0.125,0.208,0.017,0.292l0.669,0.397l-8.107,4.658l-0.741-0.439
		c-0.142-0.084-0.367-0.091-0.499-0.014l-0.681,0.392l-8.028-4.613l0.499-0.287C18.236,15.877,18.228,15.746,18.086,15.662z
		 M12.723,15.739l13.923,8l13.923-8l-13.923-8L12.723,15.739z"/>
	
		<ellipse transform="matrix(0.931 -0.365 0.365 0.931 -12.2417 8.0734)" class="st19" cx="15.232" cy="36.414" rx="0.706" ry="0.935"/>
	<path class="st19" d="M17.912,38.841l5.052,2.855c0.24,0.135,0.436,0.05,0.436-0.189v-0.985c0-0.24-0.196-0.546-0.436-0.682
		l-5.052-2.855c-0.24-0.135-0.436-0.05-0.436,0.189v0.985C17.476,38.398,17.672,38.705,17.912,38.841z"/>
	<g>
		<path class="st20" d="M26.332,4.209c-1.332,1.99-0.522,5.524,0.069,8.105c0.124,0.539,0.234,1.022,0.313,1.437
			c-2.4-2.784-4.003-6.942-2.626-9.419c0.632-1.136,1.776-1.581,3.311-1.285c0.086,0.017,0.165,0.042,0.247,0.062
			C27.098,3.357,26.657,3.724,26.332,4.209z"/>
		<path class="st20" d="M28.489,3.11c0.071-0.016,0.141-0.033,0.215-0.045c1.285-0.213,2.402,0.116,3.235,0.957
			c1.377,1.392,1.82,4.041,1.261,7.476l-1.073-0.616C31.694,6.88,30.878,4.127,28.489,3.11z"/>
		<path class="st21" d="M23.86,4.206c0.682-1.227,1.959-1.728,3.588-1.414c0.218,0.042,0.424,0.096,0.622,0.16
			c-0.147,0.046-0.289,0.098-0.424,0.158c-0.083-0.02-0.161-0.045-0.247-0.062c-1.535-0.296-2.68,0.148-3.311,1.285
			c-1.377,2.477,0.225,6.635,2.626,9.419c0.028,0.148,0.052,0.288,0.071,0.417c0.01,0.065,0.065,0.111,0.129,0.111
			c0.006,0,0.012,0,0.019-0.001c0.064-0.009,0.104-0.065,0.105-0.128c0.015,0.047,0.013,0.098-0.026,0.134
			c-0.025,0.023-0.057,0.035-0.088,0.035c-0.035,0-0.07-0.014-0.096-0.042C23.352,10.522,22.705,6.285,23.86,4.206z"/>
		<path class="st21" d="M28.059,3.227c0.137-0.047,0.281-0.084,0.43-0.117c2.388,1.018,3.205,3.77,3.639,7.772l-0.28-0.161
			C31.4,6.745,30.549,4.072,28.059,3.227z"/>
		<path class="st14" d="M26.332,4.209c0.325-0.486,0.766-0.852,1.315-1.099c0.134-0.061,0.276-0.112,0.424-0.158
			c0.188-0.059,0.383-0.109,0.592-0.144c1.37-0.23,2.568,0.127,3.462,1.03c1.45,1.466,1.914,4.231,1.317,7.797l-0.241-0.138
			c0.558-3.435,0.116-6.084-1.261-7.476c-0.833-0.841-1.95-1.17-3.235-0.957c-0.074,0.012-0.144,0.029-0.215,0.045
			c-0.149,0.033-0.294,0.07-0.43,0.117c-0.649,0.221-1.156,0.598-1.511,1.128c-0.518,0.774-0.689,1.811-0.674,2.938
			c0.021,1.636,0.437,3.464,0.781,4.964c0.168,0.736,0.314,1.371,0.388,1.875c0.001,0.007-0.005,0.013-0.005,0.02
			c-0.001,0.062-0.041,0.118-0.105,0.128c-0.006,0.001-0.013,0.001-0.019,0.001c-0.064,0-0.119-0.047-0.129-0.111
			c-0.019-0.129-0.043-0.269-0.071-0.417c-0.079-0.415-0.189-0.899-0.313-1.437C25.809,9.734,25,6.199,26.332,4.209z"/>
	</g>
	<g>
		<polygon class="st22" points="27.688,24.745 39.56,17.924 39.56,35.072 27.688,41.934 		"/>
	</g>
</g>
<g>
	
		<linearGradient id="SVGID_00000032644753744899570450000010618083015676572550_" gradientUnits="userSpaceOnUse" x1="9.3619" y1="41.3327" x2="14.9238" y2="41.3327" gradientTransform="matrix(0.9975 -0.0705 0.0705 0.9975 1.3207 6.0951)">
		<stop  offset="0.2959" style="stop-color:#DC9A11"/>
		<stop  offset="1" style="stop-color:#EFB224"/>
	</linearGradient>
	<path style="fill:url(#SVGID_00000032644753744899570450000010618083015676572550_);" d="M13.752,47.77
		c0.386,0.116,0.81,0.183,1.245,0.209l1.524-0.1c0.422-0.084,0.831-0.21,1.2-0.376l1.041-0.696c0.233-0.238,0.377-0.488,0.455-0.744
		l-0.08-1.187c-1.186,1.541-6.593,1.819-7.133,0.477l-0.036,0.559l0.116,0.627c0.107,0.243,0.292,0.473,0.55,0.675L13.752,47.77z"/>
	<polygon class="st24" points="11.789,43.323 11.869,44.509 12.487,44.913 12.406,43.727 	"/>
	<polygon class="st25" points="18.53,43.321 18.61,44.507 19.164,44.012 19.083,42.826 	"/>
	
		<linearGradient id="SVGID_00000077292518880124180400000012462582132751157387_" gradientUnits="userSpaceOnUse" x1="9.0387" y1="39.3801" x2="13.8907" y2="39.3801" gradientTransform="matrix(0.9975 -0.0705 0.0705 0.9975 1.3207 6.0951)">
		<stop  offset="0" style="stop-color:#EFB224"/>
		<stop  offset="1" style="stop-color:#DC9A11"/>
	</linearGradient>
	<path style="fill:url(#SVGID_00000077292518880124180400000012462582132751157387_);" d="M17.179,43.562
		c-0.986-0.48-2.519-0.369-3.422,0.245c-0.449,0.305-0.658,0.677-0.633,1.032l0.081,1.187c-0.024-0.356,0.185-0.728,0.633-1.032
		c0.903-0.614,2.435-0.725,3.422-0.245c0.495,0.241,0.758,0.585,0.782,0.945l-0.081-1.187
		C17.937,44.146,17.675,43.803,17.179,43.562z"/>
	<polygon class="st24" points="11.04,45.343 11.12,46.53 12.085,46.54 12.004,45.353 	"/>
	<polygon class="st27" points="19.137,44.876 19.218,46.063 20.18,45.916 20.099,44.73 	"/>
	<polygon class="st24" points="12,46.524 12.081,47.71 13.005,48.16 12.924,46.973 	"/>
	<polygon class="st27" points="12.924,46.973 13.005,48.16 13.752,47.77 13.672,46.583 	"/>
	<polygon class="st24" points="17.641,46.316 17.722,47.503 18.53,47.788 18.45,46.601 	"/>
	<polygon class="st25" points="18.45,46.601 18.53,47.788 19.376,47.213 19.295,46.027 	"/>
	<polygon class="st27" points="16.349,47.257 16.429,48.443 16.521,47.879 16.441,46.692 	"/>
	<polygon class="st24" points="14.917,46.792 14.997,47.978 15.174,48.529 15.094,47.343 	"/>
	<g>
		<path class="st28" d="M18.45,46.601l-0.809-0.285c-0.369,0.166-0.778,0.292-1.2,0.376l-0.092,0.564l-1.255,0.086l-0.177-0.551
			c-0.435-0.026-0.859-0.093-1.245-0.208l-0.748,0.39l-0.923-0.45l0.553-0.495c-0.258-0.203-0.443-0.432-0.55-0.675l-0.964-0.01
			l-0.048-0.724l0.959-0.149c0.074-0.253,0.222-0.506,0.455-0.744l-0.617-0.404l0.845-0.575l0.809,0.285
			c0.373-0.169,0.783-0.295,1.205-0.374l0.087-0.567l1.26-0.089l0.173,0.554c0.435,0.026,0.864,0.09,1.249,0.205l0.743-0.387
			l0.924,0.45l-0.553,0.495c0.258,0.203,0.447,0.429,0.554,0.672l0.964,0.01l0.051,0.727l-0.962,0.146
			c-0.078,0.256-0.222,0.506-0.455,0.744l0.613,0.407L18.45,46.601z M13.909,45.785c0.986,0.48,2.514,0.372,3.417-0.242
			c0.903-0.614,0.84-1.502-0.147-1.982c-0.986-0.48-2.519-0.369-3.422,0.245C12.855,44.42,12.922,45.305,13.909,45.785
			L13.909,45.785z"/>
	</g>
	<g>
		
			<rect x="15.133" y="47.298" transform="matrix(0.9977 -0.0677 0.0677 0.9977 -3.2059 1.1768)" class="st25" width="1.258" height="1.189"/>
	</g>
</g>
<g>
	
		<linearGradient id="SVGID_00000099627033494608543730000018219412702859965069_" gradientUnits="userSpaceOnUse" x1="1.7565" y1="37.323" x2="8.0296" y2="37.323" gradientTransform="matrix(0.9625 -0.2712 0.2712 0.9625 -5.9001 8.148)">
		<stop  offset="0.2959" style="stop-color:#DC9A11"/>
		<stop  offset="1" style="stop-color:#EFB224"/>
	</linearGradient>
	<path style="fill:url(#SVGID_00000099627033494608543730000018219412702859965069_);" d="M6.36,44.776
		c0.453,0.039,0.936,0.017,1.423-0.054l1.66-0.458c0.447-0.189,0.87-0.422,1.24-0.69l0.99-1.007
		c0.203-0.316,0.305-0.625,0.333-0.926l-0.36-1.292c-0.958,1.973-6.867,3.516-7.769,2.157l0.088,0.626l0.272,0.666
		c0.174,0.244,0.431,0.455,0.761,0.62L6.36,44.776z"/>
	<polygon class="st24" points="3.175,40.313 3.535,41.605 4.31,41.91 3.95,40.618 	"/>
	<polygon class="st25" points="10.62,38.77 10.98,40.062 11.479,39.39 11.119,38.098 	"/>
	
		<linearGradient id="SVGID_00000125569501258401476870000001905162309104207274_" gradientUnits="userSpaceOnUse" x1="1.392" y1="35.1206" x2="6.8645" y2="35.1206" gradientTransform="matrix(0.9625 -0.2712 0.2712 0.9625 -5.9001 8.148)">
		<stop  offset="0" style="stop-color:#EFB224"/>
		<stop  offset="1" style="stop-color:#DC9A11"/>
	</linearGradient>
	<path style="fill:url(#SVGID_00000125569501258401476870000001905162309104207274_);" d="M9.184,39.345
		c-1.199-0.305-2.866,0.168-3.723,1.052c-0.426,0.439-0.572,0.898-0.464,1.285l0.36,1.292c-0.108-0.388,0.038-0.846,0.464-1.285
		c0.857-0.884,2.524-1.357,3.723-1.052c0.602,0.153,0.97,0.473,1.08,0.865l-0.36-1.292C10.154,39.818,9.786,39.498,9.184,39.345z"/>
	<polygon class="st24" points="2.81,42.716 3.17,44.008 4.238,43.799 3.878,42.507 	"/>
	<polygon class="st27" points="11.647,40.35 12.007,41.642 13.036,41.26 12.676,39.968 	"/>
	<polygon class="st24" points="4.141,43.8 4.501,45.092 5.624,45.378 5.264,44.086 	"/>
	<polygon class="st27" points="5.264,44.086 5.624,45.378 6.36,44.776 6,43.484 	"/>
	<polygon class="st24" points="10.323,42.282 10.684,43.574 11.642,43.704 11.282,42.412 	"/>
	<polygon class="st25" points="11.282,42.412 11.642,43.704 12.444,42.876 12.084,41.584 	"/>
	<polygon class="st27" points="9.111,43.616 9.471,44.908 9.444,44.264 9.084,42.972 	"/>
	<polygon class="st24" points="7.423,43.43 7.783,44.722 8.104,45.29 7.744,43.998 	"/>
	<g>
		<path class="st28" d="M11.282,42.412l-0.958-0.13c-0.37,0.268-0.793,0.501-1.24,0.69l0.028,0.644l-1.367,0.382L7.423,43.43
			C6.937,43.501,6.453,43.524,6,43.484l-0.737,0.601L4.141,43.8l0.498-0.673c-0.331-0.165-0.588-0.376-0.762-0.62L2.81,42.716
			l-0.218-0.789l1.025-0.383c0.024-0.297,0.13-0.61,0.333-0.926l-0.774-0.305l0.802-0.828l0.958,0.13
			c0.374-0.272,0.797-0.505,1.246-0.688l-0.033-0.646l1.371-0.386l0.317,0.572c0.486-0.071,0.974-0.098,1.427-0.059l0.733-0.597
			l1.123,0.286L10.62,38.77c0.331,0.165,0.592,0.372,0.766,0.616l1.067-0.209l0.222,0.791l-1.029,0.381
			c-0.028,0.301-0.13,0.61-0.333,0.926l0.77,0.309L11.282,42.412z M6.08,42.548c1.199,0.305,2.862-0.164,3.719-1.048
			c0.857-0.884,0.584-1.85-0.615-2.155s-2.866,0.168-3.723,1.052C4.604,41.281,4.88,42.243,6.08,42.548L6.08,42.548z"/>
	</g>
	<g>
		
			<rect x="7.898" y="43.782" transform="matrix(0.9633 -0.2684 0.2684 0.9633 -11.6165 3.942)" class="st25" width="1.419" height="1.341"/>
	</g>
</g>
</svg>
