<?xml version="1.0" encoding="utf-8"?>
<!-- Generator: Adobe Illustrator 25.4.1, SVG Export Plug-In . SVG Version: 6.00 Build 0)  -->
<svg version="1.1" id="Layer_1" xmlns="http://www.w3.org/2000/svg" xmlns:xlink="http://www.w3.org/1999/xlink" x="0px" y="0px"
	 viewBox="0 0 50 50" style="enable-background:new 0 0 50 50;" xml:space="preserve">
<style type="text/css">
	.st0{fill:url(#SVGID_1_);}
	.st1{fill:#A7A7A7;}
	.st2{fill:#494949;}
	.st3{fill:#515151;}
	.st4{fill:#414141;}
	.st5{fill:#FFFFFF;}
	.st6{fill:#4C4C4C;}
	.st7{fill:#8C8C8C;}
	.st8{fill:#FFB669;}
</style>
<radialGradient id="SVGID_1_" cx="16.2195" cy="33.6088" r="15.8951" gradientTransform="matrix(1.5353 0 0 -0.569 0.0982 58.9349)" gradientUnits="userSpaceOnUse">
	<stop  offset="0.2598" style="stop-color:#B4BCC1"/>
	<stop  offset="0.4308" style="stop-color:#BCC3C8;stop-opacity:0.7486"/>
	<stop  offset="0.6967" style="stop-color:#D2D7DA;stop-opacity:0.3577"/>
	<stop  offset="0.94" style="stop-color:#ECEEEF;stop-opacity:0"/>
</radialGradient>
<ellipse class="st0" cx="25" cy="39.812" rx="24.402" ry="9.045"/>
<g>
	<g>
		<path class="st1" d="M30.688,19.013c-4.888-0.494-9.355,0.31-12.291,1.956l-0.502,4.964c2.936-1.647,7.403-2.451,12.291-1.956
			c4.921,0.498,9.161,2.199,11.702,4.422c0.899,0.787,1.583,1.639,2.011,2.526c0.52-0.681,0.852-1.427,0.967-2.225
			c0.009-0.061,0.021-0.121,0.027-0.182C45.34,24.107,38.98,19.851,30.688,19.013z"/>
		<path d="M30.688,19.228c-4.817-0.487-9.219,0.305-12.113,1.928l-0.495,4.892c2.894-1.623,7.296-2.415,12.113-1.928
			c4.849,0.49,9.028,2.167,11.533,4.357c0.886,0.775,1.56,1.615,1.982,2.49c0.512-0.671,0.84-1.406,0.953-2.193
			c0.009-0.06,0.021-0.119,0.027-0.179C45.128,24.248,38.86,20.055,30.688,19.228z"/>
		<polygon class="st2" points="30.451,43.447 34.021,41.864 32.355,40.402 30.112,40.587 		"/>
		<path class="st2" d="M14.337,21.58l3.605-1.626l0.889,4.606c0,0-1.958,0.607-1.915,0.627C16.961,25.205,14.337,21.58,14.337,21.58
			z"/>
		<path class="st2" d="M18.034,31.001c0,0,2.633,5.119,4.488,6.456c1.855,1.337,10.354,4.239,10.354,4.239
			c0.871,0.628,1.686,0.132,1.811-1.101l0.646-6.39c0.135-1.336-0.206-2.371-0.947-3.003c-0.27-0.23-0.712-0.484-1.214-0.661
			c-2.163-0.759-5.387-1.931-9.219-4.644c-3.238-2.293-3.957-4.159-4.613-5.381c-0.132-0.247-0.448-0.557-0.832-0.656
			c-0.591-0.153-1.091,0.438-1.185,1.367l-0.646,6.39C16.553,28.85,17.163,30.373,18.034,31.001z"/>
		<path class="st3" d="M30.496,32.366L15.653,21.671c-0.423-0.305-0.831-0.343-1.155-0.162l0-0.002l-6.194,2.78l-1.833,0.817
			l15.755,22.039l8.172-3.672l-0.002-0.002c0.422-0.136,0.736-0.604,0.809-1.33l0.646-6.39
			C31.977,34.517,31.367,32.994,30.496,32.366z"/>
		<path d="M6.437,36.187l14.842,10.695c0.871,0.628,1.686,0.132,1.811-1.101l0.646-6.39c0.125-1.233-0.486-2.756-1.357-3.384
			L7.537,25.312c-0.871-0.628-1.686-0.132-1.811,1.101l-0.646,6.39C4.955,34.037,5.566,35.559,6.437,36.187z"/>
		<path class="st4" d="M21.852,36.491L7.904,26.411c-0.744-0.536-1.44-0.113-1.547,0.941l-0.552,5.46
			c-0.107,1.054,0.415,2.355,1.159,2.891l13.948,10.079c0.744,0.536,1.44,0.113,1.547-0.941l0.552-5.46
			C23.118,38.328,22.596,37.027,21.852,36.491z"/>
		<polygon class="st5" points="12.512,31.444 16.386,34.235 16.464,33.465 12.59,30.673 		"/>
		<path class="st6" d="M29.511,42.683l-2.552,1.148c-0.484,0.218-0.829-0.103-0.768-0.712l0.325-3.215
			c0.062-0.61,0.508-1.286,0.992-1.504l2.552-1.148c0.484-0.218,0.829,0.103,0.768,0.712l-0.325,3.215
			C30.442,41.788,29.995,42.465,29.511,42.683z"/>
		<polygon class="st6" points="30.628,37.279 30.404,37.107 30.316,37.173 30.53,37.418 		"/>
		<polygon class="st6" points="26.204,43.656 26.455,43.845 26.573,43.693 26.256,43.518 		"/>
		<path class="st5" d="M29.332,42.543l-2.552,1.148c-0.484,0.218-0.829-0.103-0.768-0.712l0.325-3.215
			c0.062-0.61,0.508-1.286,0.992-1.504l2.552-1.148c0.484-0.218,0.829,0.103,0.768,0.712l-0.325,3.215
			C30.262,41.648,29.816,42.325,29.332,42.543z"/>
		<path class="st6" d="M29.476,39.919c-0.076,0.755-0.624,1.586-1.224,1.856c-0.599,0.27-1.023-0.124-0.947-0.879
			c0.076-0.755,0.624-1.586,1.224-1.856C29.129,38.77,29.553,39.164,29.476,39.919z"/>
		<path class="st4" d="M39.543,24.17c0.634-0.381,1.253-0.598,1.894-0.966c0.095-0.054,0.242-0.216,0.335-0.272
			c-0.254-2.194-1.115-3.835-2.415-4.759c-0.676-0.48-1.468-0.769-2.355-0.841c0.444,0.939,0.714,2.082,0.783,3.399
			c0.035,0.669,0.018,1.381-0.056,2.136c0.618,0.407,1.205,0.862,1.806,1.297C39.538,24.167,39.54,24.169,39.543,24.17z"/>
		<polygon class="st4" points="24.322,29.31 18.857,25.363 19.637,25.012 25.102,28.959 		"/>
		<g>
			<path class="st4" d="M35.429,15.558l-0.002,0.003c-1.484-1.094-3.558-1.232-5.954-0.153c-3.652,1.643-7.085,5.668-9.057,10.192
				l4.01,2.896c1.972-4.522,5.401-8.546,9.052-10.189c0.132-0.059,0.262-0.112,0.392-0.164c1.146-0.459,2.213-0.637,3.169-0.56
				c0.878,0.071,1.661,0.356,2.329,0.832l0.002-0.003L35.429,15.558z"/>
			<path class="st1" d="M35.375,15.287l-0.002,0.003c-1.5-1.106-3.597-1.245-6.02-0.155c-3.692,1.661-7.163,5.731-9.157,10.304
				l4.054,2.928c1.994-4.572,5.461-8.64,9.152-10.301c0.133-0.06,0.265-0.113,0.396-0.166c1.158-0.464,2.237-0.644,3.204-0.566
				c0.887,0.071,1.679,0.36,2.355,0.841l0.002-0.003L35.375,15.287z"/>
		</g>
		<path d="M37.606,23.041c0.612,0.402,1.192,0.853,1.787,1.283c0.772,0.558,1.507,1.152,2.197,1.803
			c0.005-0.05,0.013-0.1,0.018-0.149c0.367-3.627-0.589-6.297-2.391-7.579c-0.668-0.475-1.452-0.761-2.329-0.832
			c0.439,0.929,0.707,2.059,0.774,3.362C37.696,21.59,37.68,22.294,37.606,23.041z"/>
		<polygon class="st7" points="34.901,34.386 33.92,34.84 33.286,41.115 34.265,40.676 		"/>
		<path class="st1" d="M44.208,33.302l0.468-4.622l-0.004,0c-0.113,0.786-0.441,1.521-0.953,2.193
			c-0.642,0.842-1.572,1.582-2.725,2.196c-1.735,0.923-3.645,1.564-6.515,2.166c-0.003,0.001-0.005,0.001-0.008,0.002l-0.138,0.154
			l-0.358,4.746c5.709-0.954,9.891-3.399,10.229-6.743C44.206,33.362,44.205,33.332,44.208,33.302z"/>
		<path class="st4" d="M44.396,33.39l0.474-4.69l-0.004,0c-0.115,0.798-0.447,1.544-0.967,2.225
			c-0.651,0.854-1.595,1.605-2.765,2.228c-1.798,0.957-3.783,1.615-6.802,2.237l-0.502,4.965c5.887-0.946,10.215-3.445,10.562-6.873
			C44.395,33.451,44.394,33.42,44.396,33.39z"/>
		<polygon class="st6" points="33.92,34.84 33.611,34.636 32.979,40.884 33.286,41.115 		"/>
		<polygon class="st5" points="33.611,34.636 33.92,34.84 34.901,34.386 34.613,34.193 		"/>
	</g>
	<path class="st8" d="M23.776,44.941l0.555-5.489c0.135-1.331-0.529-2.972-1.48-3.657L8.009,25.099
		c-0.17-0.123-0.668-0.241-0.841-0.295l-0.766,0.344l-0.067,0.03l0.146,0.24c0.316-0.192,0.671,0.002,0.855,0.134L22.502,36.28
		c0.782,0.564,1.348,1.988,1.234,3.111l-0.555,5.489c-0.171,1.689-0.389,1.933-0.414,1.956c0.003-0.003,0.006-0.004,0.009-0.006
		l0.12,0.197l0.56-0.252C23.573,46.426,23.683,45.864,23.776,44.941z"/>
</g>
</svg>
