<?xml version="1.0" encoding="utf-8"?>
<!-- Generator: Adobe Illustrator 26.0.1, SVG Export Plug-In . SVG Version: 6.00 Build 0)  -->
<svg version="1.1" id="Layer_1" xmlns="http://www.w3.org/2000/svg" xmlns:xlink="http://www.w3.org/1999/xlink" x="0px" y="0px"
	 viewBox="0 0 50 50" style="enable-background:new 0 0 50 50;" xml:space="preserve">
<style type="text/css">
	.st0{fill:url(#SVGID_1_);}
	.st1{fill:#A7A7A7;}
	.st2{fill:#494949;}
	.st3{fill:#515151;}
	.st4{fill:#414141;}
	.st5{fill:#FFFFFF;}
	.st6{fill:#4C4C4C;}
	.st7{fill:#8C8C8C;}
	.st8{fill:#FFB669;}
</style>
<radialGradient id="SVGID_1_" cx="-61.8807" cy="636.0652" r="15.8951" gradientTransform="matrix(-1.5353 0 0 0.569 -70.0054 -322.1091)" gradientUnits="userSpaceOnUse">
	<stop  offset="0.2598" style="stop-color:#B4BCC1"/>
	<stop  offset="0.4308" style="stop-color:#BCC3C8;stop-opacity:0.7486"/>
	<stop  offset="0.6967" style="stop-color:#D2D7DA;stop-opacity:0.3577"/>
	<stop  offset="0.94" style="stop-color:#ECEEEF;stop-opacity:0"/>
</radialGradient>
<ellipse class="st0" cx="25" cy="39.812" rx="24.402" ry="9.045"/>
<g>
	<g>
		<path class="st1" d="M5.107,28.518c0.006,0.061,0.018,0.121,0.027,0.182c0.115,0.798,0.447,1.544,0.967,2.225
			c0.428-0.887,1.112-1.739,2.011-2.526c2.541-2.223,6.781-3.924,11.702-4.422c4.888-0.495,9.355,0.309,12.291,1.956l-0.502-4.964
			c-2.936-1.646-7.403-2.45-12.291-1.956C11.02,19.851,4.66,24.107,5.107,28.518z"/>
		<path d="M5.312,28.595c0.006,0.06,0.018,0.119,0.027,0.179c0.113,0.787,0.441,1.522,0.953,2.193
			c0.422-0.875,1.096-1.715,1.982-2.49c2.505-2.19,6.684-3.867,11.533-4.357c4.817-0.487,9.219,0.305,12.113,1.928l-0.495-4.892
			c-2.894-1.623-7.296-2.415-12.113-1.928C11.14,20.055,4.872,24.248,5.312,28.595z"/>
		<polygon class="st2" points="19.888,40.587 17.645,40.402 15.979,41.864 19.549,43.447 		"/>
		<path class="st2" d="M33.084,25.187c0.043-0.02-1.915-0.627-1.915-0.627l0.889-4.606l3.605,1.626
			C35.663,21.58,33.039,25.205,33.084,25.187z"/>
		<path class="st2" d="M33.323,27.617l-0.646-6.39c-0.094-0.929-0.594-1.52-1.185-1.367c-0.384,0.099-0.7,0.409-0.832,0.656
			c-0.656,1.222-1.375,3.088-4.613,5.381c-3.832,2.713-7.056,3.885-9.219,4.644c-0.502,0.177-0.944,0.431-1.214,0.661
			c-0.741,0.632-1.082,1.667-0.947,3.003l0.646,6.39c0.125,1.233,0.94,1.729,1.811,1.101c0,0,8.499-2.902,10.354-4.239
			s4.488-6.456,4.488-6.456C32.837,30.373,33.447,28.85,33.323,27.617z"/>
		<path class="st3" d="M18.149,35.749l0.646,6.39c0.073,0.726,0.387,1.194,0.809,1.33l-0.002,0.002l8.172,3.672l15.755-22.039
			l-1.833-0.817l-6.194-2.78v0.002c-0.324-0.181-0.732-0.143-1.155,0.162L19.504,32.366C18.633,32.994,18.023,34.517,18.149,35.749z
			"/>
		<path d="M44.92,32.803l-0.646-6.39c-0.125-1.233-0.94-1.729-1.811-1.101L27.621,36.007c-0.871,0.628-1.482,2.151-1.357,3.384
			l0.646,6.39c0.125,1.233,0.94,1.729,1.811,1.101l14.842-10.695C44.434,35.559,45.045,34.037,44.92,32.803z"/>
		<path class="st4" d="M26.989,39.381l0.552,5.46c0.107,1.054,0.803,1.477,1.547,0.941l13.948-10.079
			c0.744-0.536,1.266-1.837,1.159-2.891l-0.552-5.46c-0.107-1.054-0.803-1.477-1.547-0.941l-13.948,10.08
			C27.404,37.027,26.882,38.328,26.989,39.381z"/>
		<polygon class="st5" points="37.41,30.673 33.536,33.465 33.614,34.235 37.488,31.444 		"/>
		<path class="st6" d="M19.497,41.179l-0.325-3.215c-0.061-0.609,0.284-0.93,0.768-0.712l2.552,1.148
			c0.484,0.218,0.93,0.894,0.992,1.504l0.325,3.215c0.061,0.609-0.284,0.93-0.768,0.712l-2.552-1.148
			C20.005,42.465,19.558,41.788,19.497,41.179z"/>
		<polygon class="st6" points="19.47,37.418 19.684,37.173 19.596,37.107 19.372,37.279 		"/>
		<polygon class="st6" points="23.744,43.518 23.427,43.693 23.545,43.845 23.796,43.656 		"/>
		<path class="st5" d="M19.676,41.039l-0.325-3.215c-0.061-0.609,0.284-0.93,0.768-0.712l2.552,1.148
			c0.484,0.218,0.93,0.894,0.992,1.504l0.325,3.215c0.061,0.609-0.284,0.93-0.768,0.712l-2.552-1.148
			C20.184,42.325,19.738,41.648,19.676,41.039z"/>
		<path class="st6" d="M21.471,39.04c0.6,0.27,1.148,1.101,1.224,1.856s-0.348,1.149-0.947,0.879c-0.6-0.27-1.148-1.101-1.224-1.856
			C20.447,39.164,20.871,38.77,21.471,39.04z"/>
		<path class="st4" d="M10.465,24.164c0.601-0.435,1.188-0.89,1.806-1.297c-0.074-0.755-0.091-1.467-0.056-2.136
			c0.069-1.317,0.339-2.46,0.783-3.399c-0.887,0.072-1.679,0.361-2.355,0.841c-1.3,0.924-2.161,2.565-2.415,4.759
			c0.093,0.056,0.24,0.218,0.335,0.272c0.641,0.368,1.26,0.585,1.894,0.966C10.46,24.169,10.462,24.167,10.465,24.164z"/>
		<polygon class="st4" points="24.898,28.959 30.363,25.012 31.143,25.363 25.678,29.31 		"/>
		<g>
			<path class="st4" d="M10.63,18.412l0.002,0.003c0.668-0.476,1.451-0.761,2.329-0.832c0.956-0.077,2.023,0.101,3.169,0.56
				c0.13,0.052,0.26,0.105,0.392,0.164c3.651,1.643,7.08,5.667,9.052,10.189l4.01-2.896c-1.972-4.524-5.405-8.549-9.057-10.192
				c-2.396-1.079-4.47-0.941-5.954,0.153l-0.002-0.003L10.63,18.412z"/>
			<path class="st1" d="M10.641,18.172l0.002,0.003c0.676-0.481,1.468-0.77,2.355-0.841c0.967-0.078,2.046,0.102,3.204,0.566
				c0.131,0.053,0.263,0.106,0.396,0.166c3.691,1.661,7.158,5.729,9.152,10.301l4.054-2.928c-1.994-4.573-5.465-8.643-9.157-10.304
				c-2.423-1.09-4.52-0.951-6.02,0.155l-0.002-0.003L10.641,18.172z"/>
		</g>
		<path d="M12.338,20.929c0.067-1.303,0.335-2.433,0.774-3.362c-0.877,0.071-1.661,0.357-2.329,0.832
			c-1.802,1.282-2.758,3.952-2.391,7.579c0.005,0.049,0.013,0.099,0.018,0.149c0.69-0.651,1.425-1.245,2.197-1.803
			c0.595-0.43,1.175-0.881,1.787-1.283C12.32,22.294,12.304,21.59,12.338,20.929z"/>
		<polygon class="st7" points="15.735,40.676 16.714,41.115 16.08,34.84 15.099,34.386 		"/>
		<path class="st1" d="M5.796,33.394c0.338,3.344,4.52,5.789,10.229,6.743l-0.358-4.746l-0.138-0.154
			c-0.003-0.001-0.005-0.001-0.008-0.002c-2.87-0.602-4.78-1.243-6.515-2.166c-1.153-0.614-2.083-1.354-2.725-2.196
			c-0.512-0.672-0.84-1.407-0.953-2.193H5.324l0.468,4.622C5.795,33.332,5.794,33.362,5.796,33.394z"/>
		<path class="st4" d="M5.608,33.482c0.347,3.428,4.675,5.927,10.562,6.873l-0.502-4.965c-3.019-0.622-5.004-1.28-6.802-2.237
			c-1.17-0.623-2.114-1.374-2.765-2.228c-0.52-0.681-0.852-1.427-0.967-2.225H5.13l0.474,4.69
			C5.606,33.42,5.605,33.451,5.608,33.482z"/>
		<polygon class="st6" points="16.714,41.115 17.021,40.884 16.389,34.636 16.08,34.84 		"/>
		<polygon class="st5" points="15.387,34.193 15.099,34.386 16.08,34.84 16.389,34.636 		"/>
	</g>
	<path class="st8" d="M26.544,46.775l0.56,0.252l0.12-0.197c0.003,0.002,0.006,0.003,0.009,0.006
		c-0.025-0.023-0.243-0.267-0.414-1.956l-0.555-5.489c-0.114-1.123,0.452-2.547,1.234-3.111l15.166-10.728
		c0.184-0.132,0.539-0.326,0.855-0.134l0.146-0.24l-0.067-0.03l-0.766-0.344c-0.173,0.054-0.671,0.172-0.841,0.295L27.149,35.795
		c-0.951,0.685-1.615,2.326-1.48,3.657l0.555,5.489C26.317,45.864,26.427,46.426,26.544,46.775z"/>
</g>
</svg>
