<?xml version="1.0" encoding="utf-8"?>
<!-- Generator: Adobe Illustrator 25.4.1, SVG Export Plug-In . SVG Version: 6.00 Build 0)  -->
<svg version="1.1" id="Layer_1" xmlns="http://www.w3.org/2000/svg" xmlns:xlink="http://www.w3.org/1999/xlink" x="0px" y="0px"
	 viewBox="0 0 50 50" style="enable-background:new 0 0 50 50;" xml:space="preserve">
<style type="text/css">
	.st0{opacity:0.5;fill:#C0C7CA;}
	.st1{fill:#008CCF;}
	.st2{fill:#FFFFFF;}
	.st3{fill:#FF0004;}
	.st4{fill:#025C89;}
	.st5{fill:#FF7B00;}
	.st6{opacity:0.5;fill:#FFFFFF;}
	.st7{fill:#813E00;}
	.st8{fill:#00D1EA;}
	.st9{fill:#00B2C7;}
	.st10{fill:#FB6C00;}
	.st11{fill:#006959;}
	.st12{fill:#00BEA0;}
</style>
<g>
	<ellipse transform="matrix(1 -0.0068 0.0068 1 -0.2761 0.1319)" class="st0" cx="19.282" cy="40.703" rx="15.241" ry="6.624"/>
	<g>
		<g>
			<path class="st1" d="M26.734,28.857l-0.539,0.321l-0.696-0.923l-1.051-0.512v3.285c0,0.43,0.3,0.925,0.67,1.106l0.381,0.186
				l0.696,0.923l0.539-0.321l12.823,6.249v-4.064L26.734,28.857z"/>
			<g>
				<path class="st2" d="M28.166,31.121l0.149,0.073l0.351,1.377l-0.14-0.068l-0.181-0.762c-0.037-0.153-0.071-0.302-0.104-0.457
					l-0.006-0.003c-0.032,0.124-0.065,0.24-0.103,0.356l-0.183,0.585l-0.134-0.065L28.166,31.121z M28,31.757l0.478,0.233v0.122
					L28,31.879V31.757z"/>
				<path class="st2" d="M28.794,32.454v-1.13l0.13,0.063v1.141c0,0.046,0.017,0.073,0.036,0.082
					c0.007,0.004,0.014,0.007,0.028,0.01l0.018,0.124c-0.018-0.001-0.041-0.006-0.075-0.022
					C28.834,32.675,28.794,32.584,28.794,32.454z"/>
				<path class="st2" d="M29.197,32.651v-1.13l0.13,0.063v1.141c0,0.046,0.017,0.073,0.036,0.082
					c0.007,0.004,0.014,0.007,0.028,0.01l0.018,0.124c-0.018-0.001-0.041-0.006-0.075-0.022
					C29.237,32.872,29.197,32.78,29.197,32.651z"/>
				<path class="st2" d="M29.928,31.98l0.132,0.064v1.076l0.453,0.221v0.13l-0.585-0.285V31.98z"/>
				<path class="st2" d="M30.66,32.368c0-0.059,0.039-0.079,0.09-0.054c0.051,0.025,0.09,0.082,0.09,0.141
					c0,0.057-0.039,0.079-0.09,0.054C30.699,32.485,30.66,32.425,30.66,32.368z M30.684,32.661l0.13,0.063v0.894l-0.13-0.063V32.661
					z"/>
				<path class="st2" d="M31.014,33.888c0-0.077,0.042-0.128,0.113-0.147v-0.007c-0.039-0.048-0.069-0.11-0.069-0.18
					c0-0.074,0.045-0.111,0.084-0.125v-0.007c-0.051-0.071-0.099-0.182-0.099-0.288c0-0.195,0.132-0.254,0.288-0.178
					c0.042,0.021,0.08,0.049,0.108,0.075l0.268,0.131v0.116L31.55,33.2c0.036,0.058,0.063,0.138,0.063,0.214
					c0,0.191-0.124,0.249-0.281,0.173c-0.037-0.018-0.08-0.05-0.115-0.086c-0.028,0.013-0.049,0.033-0.049,0.082
					c0,0.057,0.032,0.112,0.135,0.163l0.149,0.073c0.179,0.087,0.268,0.196,0.268,0.344c0,0.166-0.151,0.235-0.388,0.12
					C31.144,34.19,31.014,34.041,31.014,33.888z M31.593,34.123c0-0.083-0.054-0.137-0.155-0.186l-0.133-0.065
					c-0.029-0.014-0.066-0.036-0.1-0.062c-0.055,0.019-0.078,0.06-0.078,0.112c0,0.096,0.083,0.197,0.223,0.265
					C31.497,34.258,31.593,34.216,31.593,34.123z M31.495,33.353c0-0.13-0.073-0.244-0.163-0.288
					c-0.091-0.044-0.163-0.002-0.163,0.129c0,0.13,0.075,0.249,0.163,0.292C31.42,33.529,31.495,33.483,31.495,33.353z"/>
				<path class="st2" d="M31.869,32.823l0.13,0.063v0.358l-0.005,0.181c0.072-0.046,0.15-0.075,0.255-0.024
					c0.162,0.079,0.235,0.236,0.235,0.464v0.566l-0.13-0.063v-0.547c0-0.166-0.043-0.259-0.145-0.308
					c-0.079-0.038-0.133-0.018-0.21,0.035v0.647l-0.13-0.063V32.823z"/>
				<path class="st2" d="M32.751,34.286v-0.494l-0.114-0.056v-0.114l0.12,0.05l0.016-0.243l0.109,0.053v0.251l0.208,0.101v0.123
					l-0.208-0.101v0.497c0,0.109,0.03,0.187,0.119,0.23c0.027,0.013,0.063,0.018,0.088,0.019l0.025,0.126
					c-0.043-0.004-0.095-0.013-0.143-0.036C32.807,34.612,32.751,34.464,32.751,34.286z"/>
				<path class="st2" d="M33.162,34.661l0.064-0.068c0.067,0.095,0.134,0.171,0.227,0.216c0.101,0.049,0.151,0.011,0.151-0.065
					c0-0.092-0.091-0.177-0.176-0.255c-0.108-0.098-0.229-0.219-0.229-0.37c0-0.143,0.098-0.206,0.265-0.124
					c0.096,0.047,0.179,0.133,0.239,0.217l-0.062,0.067c-0.053-0.071-0.107-0.132-0.175-0.165c-0.097-0.047-0.141-0.009-0.141,0.059
					c0,0.085,0.084,0.158,0.171,0.238c0.111,0.103,0.234,0.215,0.234,0.385c0,0.145-0.099,0.217-0.28,0.129
					C33.339,34.871,33.234,34.766,33.162,34.661z"/>
			</g>
			<path class="st3" d="M37.932,37.251l-2.435-1.187c-0.261-0.127-0.474-0.479-0.474-0.782v-0.49c0-0.303,0.213-0.447,0.474-0.32
				l2.435,1.187c0.261,0.127,0.474,0.479,0.474,0.782v0.49C38.406,37.234,38.193,37.378,37.932,37.251z"/>
			
				<ellipse transform="matrix(0.8712 -0.491 0.491 0.8712 -11.7872 16.8472)" class="st4" cx="26.208" cy="30.884" rx="0.529" ry="0.848"/>
		</g>
		<path class="st4" d="M24.448,27.743l1.051,0.576l0.696,0.859l0.539-0.257l12.823,6.185v4.064l0.598-0.267v-4.064l-12.823-6.185
			l-0.539,0.257l-0.696-0.859l-1.051-0.576C24.675,27.296,24.448,27.743,24.448,27.743z"/>
	</g>
	<g>
		<g>
			<polygon class="st5" points="25.939,22.543 25.939,26.607 26.99,27.12 27.686,27.978 28.225,27.721 42.254,34.558 42.254,30.494 
				28.225,23.657 27.686,23.914 26.99,23.055 26.609,22.87 			"/>
			<g>
				<path class="st2" d="M29.369,26.623l0.079-0.067c0.075,0.126,0.178,0.236,0.286,0.289c0.136,0.066,0.217,0.027,0.217-0.09
					c0-0.123-0.075-0.199-0.173-0.297l-0.149-0.149c-0.097-0.095-0.21-0.236-0.21-0.413c0-0.184,0.138-0.253,0.327-0.161
					c0.123,0.06,0.233,0.175,0.305,0.298l-0.07,0.064c-0.064-0.101-0.14-0.181-0.235-0.228c-0.116-0.057-0.193-0.026-0.193,0.082
					c0,0.116,0.09,0.204,0.172,0.283l0.148,0.146c0.12,0.118,0.214,0.247,0.214,0.427c0,0.191-0.135,0.277-0.354,0.171
					C29.586,26.908,29.46,26.777,29.369,26.623z"/>
				<path class="st2" d="M30.228,26.967c0-0.195,0.144-0.222,0.472-0.103c0-0.115-0.033-0.242-0.159-0.303
					c-0.089-0.043-0.169-0.033-0.229-0.016l-0.051-0.128c0.071-0.019,0.178-0.03,0.302,0.03c0.188,0.091,0.267,0.275,0.267,0.497
					v0.548l-0.107-0.052l-0.011-0.112l-0.004-0.002c-0.073,0.035-0.159,0.052-0.254,0.005
					C30.325,27.268,30.228,27.128,30.228,26.967z M30.7,27.211v-0.248c-0.257-0.089-0.345-0.059-0.345,0.056
					c0,0.102,0.059,0.172,0.135,0.208C30.565,27.263,30.626,27.251,30.7,27.211z"/>
				<path class="st2" d="M30.995,27.939l0.025-0.108c0.015,0.013,0.039,0.032,0.059,0.042c0.087,0.042,0.141-0.012,0.173-0.107
					l0.017-0.057l-0.308-1.046l0.134,0.065l0.157,0.571c0.024,0.089,0.05,0.193,0.075,0.288l0.006,0.003
					c0.022-0.071,0.044-0.152,0.065-0.22l0.137-0.428l0.127,0.062l-0.29,0.826c-0.054,0.151-0.134,0.246-0.288,0.171
					C31.05,27.984,31.02,27.963,30.995,27.939z"/>
			</g>
			<path class="st6" d="M36.307,30.872l-3.49-1.701c-0.261-0.127-0.474-0.479-0.474-0.782v-1.342c0-0.303,0.213-0.447,0.474-0.32
				l3.49,1.701c0.261,0.127,0.474,0.479,0.474,0.782v1.342C36.781,30.855,36.568,30.999,36.307,30.872z"/>
			<path class="st6" d="M40.574,32.951l-2.177-1.061c-0.261-0.127-0.474-0.479-0.474-0.782v-1.342c0-0.303,0.213-0.447,0.474-0.32
				l2.177,1.061c0.261,0.127,0.474,0.479,0.474,0.782v1.342C41.048,32.934,40.834,33.078,40.574,32.951z"/>
			<g>
				<path d="M33.14,27.429l0.241,0.117c0.321,0.157,0.474,0.466,0.474,0.833c0,0.367-0.152,0.535-0.472,0.379L33.14,28.64V27.429z
					 M33.374,28.682c0.282,0.138,0.405-0.025,0.405-0.341c0-0.316-0.123-0.59-0.405-0.727l-0.161-0.078v1.068L33.374,28.682z"/>
				<path d="M34.032,28.855c0-0.196,0.152-0.215,0.49-0.094c0.002-0.135-0.03-0.295-0.179-0.368
					c-0.102-0.05-0.191-0.034-0.242-0.014l-0.032-0.076c0.054-0.018,0.159-0.037,0.282,0.023c0.18,0.088,0.241,0.269,0.241,0.458
					v0.564l-0.059-0.029L34.525,29.2l-0.003-0.002c-0.077,0.035-0.17,0.054-0.269,0.005C34.132,29.146,34.032,29.021,34.032,28.855z
					 M34.522,29.123v-0.3c-0.312-0.11-0.418-0.078-0.418,0.063c0,0.127,0.074,0.211,0.161,0.254
					C34.352,29.182,34.428,29.17,34.522,29.123z"/>
				<path d="M34.768,29.333l0.04-0.04c0.064,0.094,0.133,0.177,0.241,0.229c0.12,0.058,0.181,0.007,0.181-0.086
					c0-0.111-0.098-0.207-0.186-0.287c-0.114-0.103-0.242-0.219-0.242-0.37c0-0.127,0.087-0.193,0.245-0.116
					c0.081,0.04,0.162,0.118,0.217,0.197l-0.038,0.04c-0.051-0.069-0.105-0.132-0.181-0.169c-0.118-0.058-0.172-0.005-0.172,0.077
					c0,0.101,0.09,0.183,0.18,0.266c0.118,0.109,0.248,0.218,0.248,0.39c0,0.133-0.091,0.204-0.256,0.124
					C34.934,29.536,34.836,29.434,34.768,29.333z"/>
				<path d="M35.503,28.469l0.07,0.034v0.384l-0.001,0.194c0.079-0.053,0.158-0.084,0.263-0.033c0.157,0.076,0.229,0.222,0.229,0.45
					v0.566l-0.07-0.034v-0.555c0-0.187-0.051-0.301-0.173-0.36c-0.09-0.044-0.156-0.021-0.248,0.045v0.666l-0.07-0.034V28.469z"/>
			</g>
			<g>
				<path d="M38.893,30.324l0.073,0.035v0.531l0.557,0.271v-0.531l0.073,0.035v1.211l-0.073-0.035v-0.607l-0.557-0.271v0.607
					l-0.073-0.035V30.324z"/>
				<path d="M39.868,30.842c0-0.046,0.029-0.058,0.064-0.041c0.034,0.017,0.064,0.057,0.064,0.103c0,0.042-0.029,0.058-0.064,0.041
					C39.897,30.929,39.868,30.885,39.868,30.842z M39.895,31.141l0.07,0.034v0.883l-0.07-0.034V31.141z"/>
			</g>
			
				<ellipse transform="matrix(0.8712 -0.491 0.491 0.8712 -9.056 16.9133)" class="st7" cx="27.7" cy="25.712" rx="0.529" ry="0.848"/>
		</g>
		<path class="st7" d="M25.939,22.479l1.051,0.576l0.696,0.859l0.539-0.257l14.029,6.837v4.064l0.598-0.267v-4.064L28.823,23.39
			l-0.539,0.257l-0.696-0.859l-1.051-0.576C26.167,22.032,25.939,22.479,25.939,22.479z"/>
	</g>
	<g>
		<path class="st8" d="M23.654,40.359c-0.512-1.234-1.412-1.807-1.434-1.805l-0.018-0.243c0.021-0.002,2.119-0.17,3.34-1.047
			c1.22-0.876,1.831-1.88,1.831-1.88c0.013-0.156,0.019-0.314,0.019-0.473c0-3.249-2.691-5.883-6.01-5.883
			c-3.259,0-6.007,5.707-6.007,5.707s-3.493-3.748-6.812-3.748c-3.259,0-5.912,2.539-6.007,5.707
			c-0.002,0.059-0.003,0.118-0.003,0.177c0,0.166,0.008,0.331,0.022,0.494c0,0,0.168,0.288,0.42,0.687
			c0.233,0.369,0.693,0.898,1.564,1.326c0.579,0.284,1.191,0.513,1.809,0.681c0-0.001,0-0.003,0-0.004
			c0.049-0.34,0.373-0.256,0.551-0.243c0.535,0.113,1.749,0.113,2.025,0.13c0.275,0.016,0.567,0.243,0.551,0.42
			c0,0.001,0,0.002,0,0.002c0.114-0.011,0.227-0.025,0.338-0.041c0.306-0.046,0.542-0.083,0.725-0.112
			c0.652-0.102,0.677-0.106,0.831-0.017c0.026,0.015,0.056,0.033,0.101,0.053c0.328,0.151,0.829,0.468,0.85,0.481l-0.13,0.206
			l-0.156,0.727c-0.024,0.185-0.039,0.372-0.045,0.562c0,0,0.534,0.907,0.534,1.441c0,0.015,0.014,0.041,0.041,0.076
			c0.001,0.001,0.011,0.011,0.031,0.034c-0.018-0.019-0.028-0.03-0.031-0.033c0.18,0.241,0.922,0.903,1.588,1.27
			c0.929,0.512,2.475,1.051,4.569,0.706c4.021-0.662,5.272-2.941,5.272-2.941c0.008-0.124,0.013-0.249,0.013-0.376
			C24.025,41.681,23.894,40.994,23.654,40.359z"/>
		<g>
			<path class="st9" d="M11.266,40.403c-0.079-0.046-0.079-0.046-0.671,0.047c-0.183,0.029-0.419,0.066-0.726,0.112
				c-0.134,0.02-0.271,0.036-0.41,0.048c-0.044,0.111-0.156,0.214-0.45,0.269c-0.518,0.097-1.264,0.016-1.879-0.081
				c-0.452-0.071-0.677-0.257-0.745-0.485c-0.661-0.174-1.315-0.415-1.933-0.718c-1.058-0.519-1.561-1.181-1.796-1.645
				c0.029,0.151,0.062,0.3,0.103,0.447c0.687,2.509,3.026,4.356,5.805,4.356c1.301,0,2.506-0.405,3.489-1.093l0.156-0.727
				c-0.005-0.003-0.508-0.321-0.821-0.466C11.332,40.442,11.294,40.419,11.266,40.403z"/>
			<path class="st9" d="M25.684,37.462c-0.537,0.386-1.284,0.687-2.219,0.895c-0.693,0.154-1.222,0.195-1.244,0.197
				c0.022-0.002,0.922,0.571,1.434,1.805c1.954-0.782,3.392-2.541,3.683-4.657C27.107,36.084,26.59,36.811,25.684,37.462z"/>
			<path class="st9" d="M23.015,44.142c-0.739,0.631-2.073,1.457-4.234,1.813c-0.475,0.078-0.923,0.112-1.343,0.112
				c-1.498,0-2.641-0.434-3.394-0.851c-0.975-0.54-1.499-1.147-1.584-1.251c-0.099,0.083-0.249-0.04-0.249-0.04
				c0.687,2.509,3.026,4.356,5.805,4.356c3.09,0,5.635-2.283,5.972-5.221C23.83,43.303,23.527,43.705,23.015,44.142z"/>
		</g>
		<g>
			<path d="M12.339,40.727c-0.021-0.013-0.522-0.33-0.85-0.481c-0.045-0.021-0.075-0.038-0.101-0.053
				c-0.154-0.09-0.179-0.086-0.831,0.017c-0.183,0.029-0.418,0.066-0.725,0.112c-0.111,0.017-0.224,0.03-0.338,0.041
				c0-0.001,0-0.002,0-0.002c0.016-0.178-0.275-0.404-0.551-0.42c-0.275-0.016-1.49-0.016-2.025-0.13
				c-0.178-0.013-0.502-0.097-0.551,0.243c0,0.001,0,0.003,0,0.004c-0.618-0.168-1.229-0.396-1.809-0.681
				c-0.871-0.427-1.331-0.957-1.564-1.326c-0.252-0.399-0.42-0.687-0.42-0.687s0.055,0.341,0.106,0.635
				c0.246,0.461,0.749,1.095,1.77,1.596c0.618,0.303,1.272,0.544,1.933,0.718c0.068,0.228,0.292,0.414,0.745,0.485
				c0.616,0.097,1.361,0.178,1.879,0.081c0.294-0.055,0.406-0.158,0.45-0.269c0.139-0.012,0.276-0.028,0.41-0.048
				c0.307-0.046,0.543-0.083,0.726-0.112c0.592-0.093,0.592-0.093,0.671-0.047c0.028,0.016,0.066,0.039,0.122,0.064
				c0.313,0.144,0.816,0.462,0.821,0.466L12.339,40.727z"/>
			<path d="M18.741,45.715c-2.094,0.345-3.64-0.193-4.569-0.706c-0.666-0.367-1.408-1.029-1.588-1.27
				c0.003,0.003,0.013,0.014,0.031,0.033c-0.021-0.023-0.03-0.034-0.031-0.034c-0.026-0.035-0.041-0.061-0.041-0.076
				c0-0.535-0.534-1.441-0.534-1.441c-0.002,0.059-0.003,0.118-0.003,0.177c0,0.528,0.071,1.04,0.205,1.527
				c0,0,0.151,0.123,0.249,0.04c0.086,0.104,0.609,0.711,1.584,1.251c0.753,0.417,1.896,0.851,3.394,0.851
				c0.42,0,0.868-0.034,1.343-0.112c2.162-0.356,3.496-1.183,4.234-1.813c0.512-0.438,0.816-0.84,0.972-1.082l0.026-0.287
				C24.012,42.774,22.762,45.053,18.741,45.715z"/>
			<path d="M25.541,37.264c-1.221,0.876-3.319,1.045-3.34,1.047l0.018,0.243c0.022-0.002,0.551-0.043,1.244-0.197
				c0.935-0.208,1.682-0.509,2.219-0.895c0.907-0.651,1.423-1.378,1.653-1.76l0.036-0.318
				C27.372,35.384,26.761,36.388,25.541,37.264z"/>
			<path d="M12.664,38.098c0.389-0.151,1.08-1.166,3.759-2.181c2.68-1.015,3.411,0.713,4.614-0.216c1.203-0.929,0-3.087,0-3.087
				c-1.08,1.565-2.909,2.594-4.983,2.594c-1.949,0-3.682-0.909-4.78-2.317c0,0-0.098,0.628-0.163,1.384
				c-0.065,0.756-0.002,1.274,0.041,2.592C11.195,38.184,12.275,38.249,12.664,38.098z"/>
		</g>
		<g>
			<path class="st2" d="M12.418,35.419c0,0-0.567-0.498-0.705-0.212c-0.138,0.285-0.202,0.998-0.089,1.508
				c0.113,0.51,0.266,0.648,0.368,0.648c0.102,0,0.353,0,0.799-0.526C13.236,36.31,13.431,35.922,12.418,35.419z"/>
			<path class="st2" d="M21.682,36.241c-0.131,0-0.189,0.278-0.189,0.621c0,0.343-0.04,0.621,0.092,0.621
				c0.131,0,0.286-0.391,0.286-0.734C21.87,36.405,21.813,36.241,21.682,36.241z"/>
		</g>
		<g>
			<path class="st10" d="M21.956,43.08c-0.656,0.209-1.241,1.058-1.307,1.895c-0.066,0.838,0.412,1.347,1.068,1.138
				c0.656-0.209,1.241-1.058,1.307-1.895C23.091,43.38,22.612,42.87,21.956,43.08z"/>
			<path class="st10" d="M25.338,35.767c-0.656,0.209-1.241,1.058-1.307,1.895c-0.066,0.838,0.412,1.347,1.068,1.138
				c0.656-0.209,1.241-1.058,1.307-1.895C26.472,36.067,25.994,35.558,25.338,35.767z"/>
			<path class="st10" d="M24.565,31.813l-0.421-0.324c0,0-0.065-0.086-0.248-0.054c-0.184,0.032-0.248,0.14-0.313,0.194
				c-0.065,0.054-0.205,0.184-0.41,0.292c-0.205,0.108-0.54,0.27-0.626,0.281c-0.086,0.011-0.27,0.086-0.302,0.248
				c-0.032,0.162,0,0.626,0,0.626c0.065,0,0.788-0.043,1.426-0.443C24.306,32.234,24.565,31.813,24.565,31.813z"/>
		</g>
		<g>
			<path class="st8" d="M22.064,29.324c0,1.218-0.378,2.35-1.026,3.289c-1.08,1.565-2.909,2.594-4.983,2.594
				c-1.516,0-2.902-0.55-3.959-1.457c-0.302-0.259-0.577-0.547-0.821-0.86c-0.468-0.6-0.82-1.29-1.025-2.039
				c-0.133-0.487-0.205-0.999-0.205-1.527c0-0.059,0.001-0.118,0.003-0.177c0.095-3.167,2.748-5.707,6.007-5.707
				C19.374,23.441,22.064,26.075,22.064,29.324z"/>
			<g>
				<path d="M19.809,31.77c-0.714,0.378-1.399,0.61-2.019,0.748c-0.063-0.173-0.274-0.285-0.835-0.219
					c-0.569,0.068-0.778,0.214-0.838,0.398c-0.738-0.006-1.194-0.127-1.204-0.129l-0.065,0.235c0.042,0.012,0.514,0.137,1.264,0.145
					c0.055,0.183,0.271,0.296,0.842,0.248c0.579-0.048,0.793-0.222,0.845-0.425c0.648-0.142,1.368-0.385,2.124-0.785
					c1.01-0.535,1.674-1.304,2.107-2.027c0.021-0.192,0.033-0.387,0.034-0.584C21.649,30.231,20.957,31.162,19.809,31.77z"/>
				<path class="st10" d="M12.095,33.75c-0.327-0.227-0.577-0.547-0.821-0.86c-0.468-0.6-0.82-1.29-1.025-2.039
					c0,0-0.48-3.925,2.467-2.346C16.003,30.265,16.054,36.5,12.095,33.75z"/>
				<path class="st2" d="M11.909,32.968c-1.902-1.917-1.449-4.676,0.571-3.48C14.708,30.808,14.661,35.35,11.909,32.968z"/>
				<path d="M12.515,32.104c-1.134-1.068-0.864-2.605,0.34-1.938C14.183,30.901,14.156,33.431,12.515,32.104z"/>
				
					<ellipse transform="matrix(0.437 -0.8995 0.8995 0.437 -17.2193 35.6471)" class="st2" cx="19.866" cy="31.578" rx="1.695" ry="1.099"/>
			</g>
			<ellipse class="st2" cx="16.054" cy="24.653" rx="1.199" ry="0.691"/>
			<g>
				<ellipse class="st10" cx="16.591" cy="26.392" rx="0.857" ry="0.68"/>
				<path class="st10" d="M17.708,23.748c-0.398-0.112-0.718-0.124-0.713,0.033c0.004,0.157,0.331,0.374,0.729,0.485
					c0.398,0.112,0.718,0.075,0.713-0.082C18.433,24.028,18.106,23.859,17.708,23.748z"/>
				<path class="st10" d="M14.108,24.13c-0.341-0.017-0.785,0.184-0.992,0.449c-0.207,0.265-0.099,0.493,0.242,0.51
					c0.341,0.017,0.785-0.184,0.992-0.449C14.557,24.375,14.449,24.147,14.108,24.13z"/>
			</g>
			<g>
				<path class="st9" d="M11.105,32.661c0.055,0.078,0.111,0.154,0.17,0.229l0,0l0,0C11.216,32.815,11.159,32.739,11.105,32.661z"/>
				<path class="st9" d="M22.029,29.958c-0.235,0.393-0.54,0.8-0.931,1.175c-0.006,0.121-0.022,0.248-0.052,0.38
					c-0.2,0.882-0.891,1.626-1.543,1.662c-0.408,0.022-0.704-0.238-0.82-0.652c-0.307,0.105-0.603,0.186-0.885,0.247
					c-0.051,0.203-0.266,0.377-0.845,0.425c-0.571,0.048-0.787-0.065-0.842-0.248c-0.434-0.005-0.773-0.048-0.992-0.087
					c-0.088,1.41-1.065,2.251-3.025,0.889c0,0,0,0,0,0l0,0c1.057,0.907,2.443,1.457,3.959,1.457c2.074,0,3.903-1.029,4.983-2.594
					c0.581-0.842,0.945-1.84,1.013-2.916C22.046,29.785,22.039,29.872,22.029,29.958z"/>
				<path class="st9" d="M22.055,29.637c-0.001,0.02-0.002,0.04-0.003,0.06C22.053,29.677,22.054,29.657,22.055,29.637z"/>
				<path class="st9" d="M11.105,32.661c-0.352-0.5-0.626-1.056-0.808-1.652C10.478,31.605,10.752,32.161,11.105,32.661z"/>
				<path class="st9" d="M11.274,32.89c0.244,0.313,0.494,0.633,0.821,0.86C11.793,33.491,11.518,33.203,11.274,32.89z"/>
			</g>
		</g>
	</g>
	<g>
		<path class="st11" d="M25.316,16.488l0.381,0.186l0.696,0.859l0.539-0.257l19.917,9.706v4.064l0.598-0.267v-4.064L27.53,17.009
			l-0.539,0.257l-0.696-0.859l-0.381-0.186c-0.37-0.18-0.67,0.022-0.67,0.453L25.316,16.488z"/>
		<g>
			<path class="st12" d="M26.932,21.34l-0.539,0.257l-0.696-0.859l-1.051-0.512v-3.285c0-0.43,0.3-0.633,0.67-0.453l0.381,0.186
				l0.696,0.859l0.539-0.257l19.917,9.706v4.064L26.932,21.34z"/>
			<g>
				<path class="st2" d="M28.151,19.199l0.308,0.15c0.211,0.103,0.357,0.257,0.357,0.469c0,0.119-0.055,0.199-0.152,0.188v0.007
					c0.124,0.089,0.211,0.227,0.211,0.392c0,0.237-0.161,0.274-0.393,0.162l-0.332-0.162V19.199z M28.437,19.852
					c0.176,0.086,0.249,0.046,0.249-0.076c0-0.141-0.083-0.234-0.243-0.312l-0.16-0.078v0.392L28.437,19.852z M28.464,20.436
					c0.177,0.086,0.282,0.063,0.282-0.1c0-0.149-0.101-0.266-0.282-0.354l-0.181-0.088v0.453L28.464,20.436z"/>
				<path class="st2" d="M29.021,20.598c0-0.195,0.144-0.222,0.472-0.103c0-0.115-0.033-0.242-0.159-0.303
					c-0.089-0.043-0.169-0.033-0.229-0.016l-0.051-0.128c0.071-0.019,0.178-0.03,0.302,0.03c0.188,0.091,0.267,0.275,0.267,0.497
					v0.548l-0.107-0.052l-0.011-0.112L29.5,20.956c-0.073,0.035-0.159,0.052-0.254,0.005C29.117,20.899,29.021,20.759,29.021,20.598
					z M29.493,20.841v-0.248c-0.257-0.089-0.345-0.059-0.345,0.056c0,0.102,0.059,0.172,0.135,0.208
					C29.357,20.894,29.418,20.881,29.493,20.841z"/>
				<path class="st2" d="M29.808,20.767c0-0.298,0.173-0.386,0.37-0.29c0.101,0.049,0.171,0.132,0.225,0.214l-0.067,0.068
					c-0.045-0.069-0.092-0.124-0.152-0.153c-0.139-0.068-0.241,0.022-0.241,0.227s0.096,0.389,0.238,0.458
					c0.07,0.034,0.132,0.025,0.18-0.001l0.056,0.129c-0.069,0.038-0.156,0.037-0.248-0.007
					C29.964,21.311,29.808,21.063,29.808,20.767z"/>
				<path class="st2" d="M30.585,20.282l0.128,0.062v0.887l0.004,0.002l0.328-0.311l0.144,0.07l-0.257,0.234l0.291,0.676
					l-0.142-0.069l-0.224-0.539l-0.144,0.125v0.234l-0.128-0.062V20.282z"/>
				<path class="st2" d="M31.276,21.035l0.133,0.065l0.114,0.572c0.017,0.093,0.031,0.18,0.046,0.271l0.006,0.003
					c0.017-0.076,0.033-0.149,0.052-0.224l0.119-0.458l0.127,0.062l0.12,0.574c0.019,0.094,0.036,0.183,0.053,0.275l0.006,0.003
					c0.017-0.076,0.031-0.149,0.048-0.226l0.112-0.462l0.124,0.06l-0.206,0.793l-0.158-0.077l-0.111-0.534
					c-0.019-0.094-0.033-0.183-0.052-0.283l-0.006-0.003c-0.017,0.083-0.032,0.16-0.053,0.234l-0.108,0.425l-0.152-0.074
					L31.276,21.035z"/>
				<path class="st2" d="M32.439,22.263c0-0.195,0.144-0.222,0.472-0.103c0-0.115-0.033-0.242-0.159-0.303
					c-0.089-0.043-0.169-0.033-0.229-0.016l-0.051-0.128c0.071-0.019,0.178-0.03,0.302,0.03c0.188,0.091,0.267,0.275,0.267,0.497
					v0.548l-0.107-0.052l-0.011-0.112l-0.004-0.002c-0.073,0.035-0.159,0.052-0.254,0.005
					C32.535,22.564,32.439,22.424,32.439,22.263z M32.911,22.507v-0.248c-0.257-0.089-0.345-0.059-0.345,0.056
					c0,0.102,0.059,0.172,0.135,0.208C32.775,22.559,32.836,22.547,32.911,22.507z"/>
				<path class="st2" d="M33.283,22.013l0.107,0.052l0.011,0.168l0.004,0.002c0.053-0.087,0.132-0.12,0.218-0.078
					c0.034,0.017,0.058,0.033,0.082,0.058l-0.024,0.121c-0.026-0.023-0.044-0.036-0.075-0.051c-0.065-0.032-0.142-0.015-0.194,0.111
					v0.574l-0.13-0.063V22.013z"/>
				<path class="st2" d="M33.761,22.694c0-0.29,0.157-0.393,0.332-0.308c0.089,0.044,0.148,0.111,0.215,0.208l-0.005-0.156v-0.344
					l0.13,0.063v1.31l-0.107-0.052l-0.011-0.111l-0.004-0.002c-0.06,0.04-0.142,0.059-0.233,0.014
					C33.885,23.222,33.761,22.992,33.761,22.694z M34.303,23.177v-0.468c-0.066-0.1-0.125-0.154-0.187-0.184
					c-0.123-0.06-0.221,0.03-0.221,0.234c0,0.214,0.076,0.379,0.211,0.445C34.177,23.237,34.239,23.227,34.303,23.177z"/>
			</g>
			<path class="st6" d="M37.797,25.718l-2.022-0.985c-0.261-0.127-0.474-0.479-0.474-0.782v-1.342c0-0.303,0.213-0.447,0.474-0.32
				l2.022,0.985c0.261,0.127,0.474,0.479,0.474,0.782v1.342C38.271,25.701,38.058,25.845,37.797,25.718z"/>
			<path class="st6" d="M45.111,29.282l-5.413-2.638c-0.261-0.127-0.474-0.479-0.474-0.782V24.52c0-0.303,0.213-0.447,0.474-0.32
				l5.413,2.638c0.261,0.127,0.474,0.479,0.474,0.782v1.342C45.585,29.265,45.372,29.409,45.111,29.282z"/>
			<g>
				<path d="M36.025,24.036L36.066,24c0.06,0.102,0.138,0.211,0.276,0.278c0.135,0.066,0.251-0.005,0.251-0.194
					c0-0.189-0.097-0.35-0.247-0.423c-0.077-0.037-0.127-0.031-0.188-0.013l-0.049-0.059l0.037-0.532l0.466,0.227v0.073
					l-0.403-0.196l-0.033,0.408c0.052-0.011,0.106-0.01,0.18,0.026c0.171,0.083,0.308,0.264,0.308,0.52
					c0,0.251-0.16,0.314-0.322,0.235C36.182,24.271,36.09,24.144,36.025,24.036z"/>
				<path d="M36.818,23.968c0-0.391,0.109-0.553,0.302-0.459s0.302,0.363,0.302,0.753c0,0.391-0.109,0.56-0.302,0.467
					C36.927,24.635,36.818,24.359,36.818,23.968z M37.351,24.228c0-0.358-0.091-0.58-0.231-0.648
					c-0.14-0.068-0.231,0.064-0.231,0.423c0,0.359,0.091,0.587,0.231,0.655C37.26,24.726,37.351,24.586,37.351,24.228z"/>
			</g>
			<g>
				<path d="M40.251,25.297l0.059,0.029l0.008,0.14l0.003,0.002c0.077-0.052,0.156-0.082,0.261-0.031
					c0.157,0.076,0.229,0.222,0.229,0.45v0.566l-0.07-0.034v-0.555c0-0.187-0.051-0.301-0.173-0.36
					c-0.09-0.044-0.156-0.021-0.248,0.045v0.666l-0.07-0.034V25.297z"/>
				<path d="M41.027,26.119c0-0.295,0.158-0.388,0.341-0.299c0.182,0.089,0.341,0.336,0.341,0.631c0,0.292-0.158,0.385-0.341,0.296
					C41.186,26.658,41.027,26.411,41.027,26.119z M41.636,26.415c0-0.232-0.114-0.449-0.267-0.524
					c-0.153-0.075-0.268,0.031-0.268,0.263s0.114,0.446,0.268,0.52C41.521,26.75,41.636,26.648,41.636,26.415z"/>
				<path d="M41.937,26.119l0.059,0.029l0.008,0.168l0.003,0.002c0.051-0.083,0.126-0.125,0.216-0.082
					c0.028,0.014,0.05,0.029,0.075,0.055l-0.016,0.066c-0.026-0.023-0.04-0.034-0.069-0.048c-0.068-0.033-0.149-0.012-0.207,0.126
					v0.6l-0.07-0.034V26.119z"/>
				<path d="M42.438,26.363l0.059,0.029l0.008,0.141l0.003,0.002c0.069-0.056,0.155-0.083,0.24-0.042
					c0.122,0.059,0.183,0.16,0.21,0.282c0.086-0.068,0.17-0.097,0.258-0.055c0.151,0.074,0.227,0.221,0.227,0.449v0.566l-0.07-0.034
					v-0.555c0-0.187-0.054-0.302-0.17-0.359c-0.071-0.035-0.144-0.015-0.227,0.055v0.666l-0.07-0.034v-0.555
					c0-0.187-0.054-0.302-0.17-0.359c-0.069-0.033-0.144-0.015-0.227,0.055v0.666l-0.07-0.034V26.363z"/>
				<path d="M43.666,27.625c0-0.196,0.152-0.215,0.49-0.094c0.002-0.135-0.03-0.295-0.179-0.368
					c-0.102-0.05-0.191-0.034-0.242-0.014l-0.032-0.076c0.054-0.018,0.159-0.037,0.282,0.023c0.18,0.088,0.241,0.269,0.241,0.458
					v0.564l-0.059-0.029l-0.008-0.118l-0.003-0.002c-0.077,0.035-0.17,0.054-0.269,0.005C43.766,27.916,43.666,27.791,43.666,27.625
					z M44.156,27.893v-0.3c-0.312-0.11-0.418-0.078-0.418,0.063c0,0.127,0.074,0.211,0.161,0.254
					C43.986,27.952,44.062,27.94,44.156,27.893z"/>
				<path d="M44.497,28.131v-1.204l0.07,0.034v1.215c0,0.039,0.014,0.064,0.033,0.074c0.007,0.003,0.013,0.006,0.028,0.01
					l0.012,0.072c-0.014-0.002-0.027-0.004-0.05-0.015C44.528,28.287,44.497,28.228,44.497,28.131z"/>
			</g>
			
				<ellipse transform="matrix(0.8712 -0.491 0.491 0.8712 -6.0606 15.4488)" class="st11" cx="26.407" cy="19.273" rx="0.529" ry="0.848"/>
		</g>
	</g>
</g>
</svg>
