<?xml version="1.0" encoding="utf-8"?>
<!-- Generator: Adobe Illustrator 26.0.1, SVG Export Plug-In . SVG Version: 6.00 Build 0)  -->
<svg version="1.1" id="Layer_1" xmlns="http://www.w3.org/2000/svg" xmlns:xlink="http://www.w3.org/1999/xlink" x="0px" y="0px"
	 viewBox="0 0 50 50" style="enable-background:new 0 0 50 50;" xml:space="preserve">
<style type="text/css">
	.st0{fill:none;stroke:#C9C9C9;stroke-width:0.2;stroke-miterlimit:10;}
	.st1{fill:none;stroke:#494949;stroke-width:0.15;stroke-miterlimit:10;}
	.st2{fill:#3A3A3A;}
	.st3{display:none;}
	.st4{display:inline;}
	.st5{fill:#344593;}
	.st6{fill:#3E54A3;}
	.st7{fill:#2E4490;}
	.st8{fill:#122571;}
	.st9{opacity:0.5;fill:#031F60;enable-background:new    ;}
	.st10{fill:#BBDFFF;}
	.st11{fill:#FDB724;}
	.st12{fill:#E7478D;}
	.st13{fill:#BF2878;}
	.st14{fill:#27DEBF;}
	.st15{fill:#1BBC9D;}
	.st16{fill:#A33D64;}
	.st17{fill:#82294D;}
	.st18{fill:#0A4A80;}
	.st19{fill:#F1FCFF;}
	.st20{fill:#D6E6FF;}
	.st21{fill:#CEF3FF;}
	.st22{fill:#606060;}
	.st23{enable-background:new    ;}
	.st24{fill:#F19729;}
	.st25{fill:#FCB040;}
	.st26{fill:#FFCB49;}
	.st27{fill:#2E5677;}
	.st28{fill:#FF51CE;}
	.st29{fill:#EDE6A0;}
	.st30{fill:#FFF7B0;}
	.st31{fill:url(#SVGID_1_);}
	.st32{display:none;fill:url(#SVGID_00000178181495107710425770000009024349707076683138_);}
	.st33{opacity:0.2;}
	.st34{fill:#000202;}
	.st35{fill:#454D58;}
	.st36{fill:#353D47;}
	.st37{fill:#546171;}
	.st38{fill:#A3C4E2;}
	.st39{opacity:0.2;fill:#000202;enable-background:new    ;}
	.st40{fill:#747A7C;}
	.st41{fill:#394149;}
	.st42{fill:#798084;}
	.st43{fill:#BED9ED;}
	.st44{fill:#5D6A77;}
	.st45{display:none;fill:#004D9E;}
	.st46{fill:#6F7B84;}
	.st47{fill:#D6D6D6;}
	.st48{fill:#BFBFBF;}
	.st49{fill:#B2B2B2;}
	.st50{fill:#494949;}
	.st51{fill:#2D2D2D;}
	.st52{fill:#69DB9D;}
	.st53{fill:#006AF1;}
	.st54{opacity:0.24;fill:#000202;enable-background:new    ;}
	.st55{fill:#AE6935;}
	.st56{fill:#8F4B2C;}
	.st57{fill:#DE9966;}
	.st58{fill:#324851;}
	.st59{fill:#00C5FB;}
	.st60{fill:#DCDFFF;}
	.st61{fill:#6AD5FD;}
	.st62{fill:#E3E9FF;}
</style>
<path class="st0" d="M9.029,35.274c-0.677-1.083-2.165-1.489-3.384-1.083s-2.166,1.624-2.166,2.842c0,0.947,0.406,1.895,1.083,2.707
	s1.489,1.354,2.301,1.895c0.812,0.677,1.76,1.219,2.301,2.166c0.541,0.948,0.541,2.301-0.271,2.978
	c-0.407,0.406-1.083,0.541-1.76,0.541c-1.218,0-2.572-0.541-2.978-1.624c-0.271-0.677,0-1.489,0.406-2.166
	c0.406-0.676,1.218-1.082,1.895-1.353c1.76-0.677,3.655-0.406,5.279,0.541c0.813,0.542,1.489,1.219,2.166,1.76
	c1.76,1.218,3.925,2.03,6.091,2.03c1.895,0,3.925-0.541,5.549-1.624c1.625-1.083,3.79-1.759,5.685-2.03"/>
<path class="st1" d="M9.164,35.138c-0.677-1.083-2.166-1.489-3.384-1.083c-1.219,0.406-2.166,1.624-2.166,2.842
	c0,0.947,0.406,1.895,1.083,2.707s1.489,1.354,2.301,1.895c0.812,0.677,1.76,1.219,2.301,2.166c0.541,0.948,0.541,2.301-0.271,2.978
	c-0.407,0.406-1.083,0.541-1.76,0.541c-1.218,0-2.572-0.541-2.978-1.624c-0.271-0.677,0-1.489,0.406-2.166
	c0.406-0.676,1.218-1.082,1.895-1.353c1.76-0.677,3.655-0.406,5.279,0.541c0.813,0.542,1.489,1.219,2.166,1.76
	c1.76,1.218,3.925,2.03,6.091,2.03c1.895,0,3.925-0.541,5.549-1.624c1.625-1.083,3.79-1.759,5.685-2.03"/>
<path class="st2" d="M30.086,43.089l1.14,0.035l0.677-0.812l-1.781,0.485C30.074,42.852,30.061,43.031,30.086,43.089z"/>
<g id="Example" class="st3">
	<g class="st4">
		<g id="XMLID_4903_">
			<path id="XMLID_4905_" class="st5" d="M45.3,33.2v-4.6l0,0c0-0.9-0.6-1.8-1.7-2.4c-2.3-1.3-6-1.3-8.4,0c-1.2,0.7-1.7,1.6-1.7,2.4
				l0,0v4.5c0,0.9,0.6,1.8,1.7,2.4c2.3,1.3,6,1.3,8.4,0C44.8,34.9,45.3,34.1,45.3,33.2L45.3,33.2L45.3,33.2L45.3,33.2z"/>
			<path id="XMLID_4904_" class="st5" d="M45.3,33.2v-4.6l0,0c0-0.9-0.6-1.8-1.7-2.4c-2.3-1.3-6-1.3-8.4,0c-1.2,0.7-1.7,1.6-1.7,2.4
				l0,0v4.5c0,0.9,0.6,1.8,1.7,2.4c2.3,1.3,6,1.3,8.4,0C44.8,34.9,45.3,34.1,45.3,33.2L45.3,33.2L45.3,33.2L45.3,33.2z"/>
		</g>
		<polygon id="XMLID_4900_" class="st6" points="39.4,23 29.7,28.6 39.4,34.2 49.2,28.6 		"/>
		<path id="XMLID_4899_" class="st7" d="M44.3,31.4l-4.8-2.7c-0.1,0-0.2,0-0.2,0.1s0,0.2,0.1,0.2l4.6,2.6L44.3,31.4z"/>
		<polygon id="XMLID_4896_" class="st8" points="29.7,28.6 29.7,29 39.4,34.6 39.4,34.2 		"/>
		<polygon id="XMLID_4883_" class="st7" points="49.2,28.6 49.2,29 39.4,34.6 39.4,34.2 		"/>
		<polygon id="XMLID_4876_" class="st9" points="33.5,31.2 39.4,35.2 45.3,31.2 39.4,34.6 		"/>
		<g id="XMLID_4823_">
			<path id="XMLID_4835_" class="st10" d="M44.7,36.2c-0.1,0-0.2-0.1-0.2-0.2v-4c0-0.2-0.1-0.4-0.3-0.4l-4.9-2.8
				c-0.1,0-0.1-0.2-0.1-0.2c0-0.1,0.2-0.1,0.2-0.1l4.9,2.8c0.3,0.2,0.4,0.4,0.4,0.7v4C44.8,36.1,44.7,36.2,44.7,36.2z"/>
		</g>
		<path class="st11" d="M45.3,39.3L45,36.6c0.1-0.1,0.1-0.2,0-0.2l0,0l0,0l0,0v-0.1l0,0l0,0l0,0c0-0.2-0.2-0.4-0.4-0.4
			c0,0,0,0-0.1,0l0,0l0,0c0,0,0,0-0.1,0c0,0,0,0-0.1,0c0,0,0,0-0.1,0c0,0,0,0,0,0.1l0,0v0.1c0,0.1,0,0.2,0.1,0.3l0,0
			c-0.1,0.1,0,0.2,0,0.2L44,39.3c0,0.1,0.1,0.2,0.3,0.3l0,0h0.1l0,0c0.1,0,0.2,0.1,0.3,0.1l0,0l0,0l0,0l0,0l0,0c0.1,0,0.2,0,0.3-0.1
			l0,0h0.1l0,0C45.3,39.5,45.3,39.4,45.3,39.3z"/>
	</g>
	<g id="XMLID_3738_" class="st4">
		<path id="XMLID_4404_" class="st12" d="M12.4,36.1c1.1-0.8,1.8-2.7,1.7-4c-0.1-1.4-1.2-2-1.7-2.3l0,0c-1.1-0.6-2.8-0.6-3.9,0l0,0
			C8,30.1,7,30.7,6.8,32.1c-0.1,1.3,0.6,3.2,1.7,4l0,0c0.1,0,0.1,0.1,0.2,0.1c1,0.6,2.6,0.6,3.6,0l0,0
			C12.3,36.2,12.4,36.1,12.4,36.1L12.4,36.1z"/>
		<path id="XMLID_4395_" class="st13" d="M9.9,30.8c-0.3,0.2-0.3,0.4,0,0.6s0.8,0.2,1.1,0s0.3-0.4,0-0.6
			C10.7,30.6,10.2,30.6,9.9,30.8z"/>
		<g id="XMLID_4426_">
			<path id="XMLID_2198_" class="st14" d="M10.5,31.2c0,0-0.9,0-1.4-0.7s0-1.9,0-1.9s1.1,0.1,1.7,1C11.2,30.4,10.5,31.2,10.5,31.2z"
				/>
			<path id="XMLID_4431_" class="st15" d="M9,30.5c0.5,0.7,1.4,0.7,1.4,0.7C10.3,29.6,9,28.6,9,28.6S8.5,29.8,9,30.5z"/>
		</g>
		<path id="XMLID_4403_" class="st16" d="M10.5,31.2c0,0,0-1.3,0.7-1.9s1.2-0.6,1.2-0.6c0.4,0,0.9,0.4,0.7,0.4c0,0-0.9,0-1.5,0.5
			s-0.9,1.5-0.9,1.6c0,0,0,0.1-0.1,0.1C10.5,31.3,10.5,31.2,10.5,31.2z"/>
		<path id="XMLID_4496_" class="st17" d="M12.4,28.7c-0.1,0-0.1,0.1,0.2,0.3c0.2,0.1,0.4,0.2,0.5,0.2l0,0
			C13.3,29,12.8,28.7,12.4,28.7z"/>
	</g>
	<g class="st4">
		<g>
			<path class="st18" d="M26,28.8L26,28.8c-1,0.6-1.9,1-2.8,1.2l0,0c0,0,0,0-0.1,0l-0.5,0.2h-0.1c-0.1,0-0.2,0.1-0.3,0.1h-0.1
				c-0.1,0-0.2,0.1-0.2,0.1h-0.1c-0.5,0.2-0.9,0.4-1.4,0.7c-0.1,0.1-0.2,0.1-0.3,0.2L20,31.4c-0.4,0.3-2,1.5-2.9,2.5l-0.6,0.6
				L16,34.6c-1,0.2-2,0.5-3,1.1c-0.1,0.1-0.2,0.1-0.3,0.2c-0.3,0.2-0.5,0.3-0.8,0.5l0,0l-0.1,0.1c-0.1,0.1-0.2,0.1-0.3,0.2l0,0l0,0
				c-0.4,0.3-0.9,0.7-1.3,1.1c-0.1,0.1-0.2,0.2-0.3,0.3c-0.3,0.3-0.7,0.6-1,0.9H8.8c-0.3,0.3-0.7,0.5-1,0.8
				c-0.2,0.2-0.5,0.3-0.7,0.5H7l13.7,8.3h0.1c0.8-0.5,1.7-1.2,2.5-1.9c0.5-0.5,1.1-0.9,1.7-1.4c1.2-0.9,2.3-1.5,3.2-1.8
				c0.7-0.3,1.4-0.5,2.1-0.6l0.5-0.6c0.7-0.7,1.5-1.3,2.4-1.8c1.5-1,3.2-1.8,4.9-2.5c0.6-0.2,1.2-0.5,1.6-0.7l0.2-0.1L26,28.8z"/>
			<g>
				<g>
					<g>
						<path class="st19" d="M39.1,36.7c-0.5,0.3-0.7,0.4-1.2,0.6c-0.3,0.1-0.5,0.2-0.8,0.3c-0.2,0.1-0.3,0.1-0.5,0.1
							c-0.7,0.2-1.4,0.4-2,0.8c-0.2,0.1-0.4,0.2-0.6,0.3c-1.3,0.8-2.6,2-3.9,3.5l-2.5-1.5l-11-6.7c1.3-1.5,2.6-2.7,3.9-3.5
							c0.2-0.1,0.4-0.2,0.6-0.3c0.7-0.4,1.4-0.6,2-0.8c0.2,0,0.3-0.1,0.5-0.1c0.3-0.1,0.5-0.2,0.8-0.3c0.5-0.2,0.7-0.3,1.2-0.6
							L39.1,36.7z"/>
						<g>
							<path class="st19" d="M30.1,42.3c-1.3,0.1-2.6,0.5-3.9,1.3c-0.2,0.1-0.4,0.2-0.6,0.4c-0.7,0.5-1.4,1-2,1.7
								c-0.2,0.2-0.3,0.3-0.5,0.4c-0.3,0.3-0.6,0.5-0.9,0.7c-0.5,0.4-0.8,0.6-1.3,0.9L7.5,39.5C8,39.2,8.3,39,8.8,38.6
								c0.3-0.2,0.6-0.5,0.9-0.7c0.2-0.1,0.3-0.3,0.5-0.4c0.7-0.6,1.4-1.2,2-1.7c0.2-0.1,0.4-0.3,0.6-0.4c1.3-0.8,2.6-1.2,3.9-1.3
								l11,6.7L30.1,42.3z"/>
						</g>
					</g>
					<polygon class="st20" points="7.5,39.5 7.3,40.3 20.7,48.5 20.9,47.7 					"/>
					<path class="st21" d="M39.4,37.1c-0.9,0.6-1.8,1-2.7,1.2c0,0,0,0-0.1,0s-0.2,0-0.3,0.1c-0.1,0-0.2,0.1-0.3,0.1
						s-0.2,0.1-0.3,0.1c-0.6,0.2-1.2,0.5-1.8,0.9c-0.1,0.1-0.2,0.1-0.3,0.2c-1,0.7-2,1.5-3,2.5L30,42.8l-0.6,0.1c-1,0.2-2,0.5-3,1.1
						c-0.1,0.1-0.2,0.1-0.3,0.2c-0.3,0.2-0.5,0.3-0.8,0.5c-0.6,0.4-1.1,0.9-1.7,1.4c-0.1,0.1-0.2,0.2-0.3,0.3
						c-0.9,0.9-1.8,1.6-2.7,2.2l0.2-0.8c0.5-0.3,0.8-0.5,1.3-0.9c0.3-0.2,0.6-0.5,0.9-0.7c0.2-0.1,0.3-0.3,0.5-0.4
						c0.7-0.6,1.4-1.2,2-1.7c0.2-0.1,0.4-0.3,0.6-0.4c1.3-0.8,2.6-1.2,3.9-1.3c1.3-1.5,2.6-2.7,3.9-3.5c0.2-0.1,0.4-0.2,0.6-0.3
						c0.7-0.4,1.4-0.6,2-0.8c0.2,0,0.3-0.1,0.5-0.1c0.3-0.1,0.5-0.2,0.8-0.3c0.5-0.2,0.7-0.3,1.2-0.6L39.4,37.1z"/>
				</g>
			</g>
			<g>
				<path class="st22" d="M17.8,34.6C17.9,34.6,17.9,34.6,17.8,34.6c1.2-1.4,2.5-2.5,3.7-3.2c0.2-0.1,0.4-0.2,0.5-0.3
					c0.7-0.3,1.3-0.6,2-0.8c0.2,0,0.3-0.1,0.5-0.1c0.3-0.1,0.5-0.2,0.8-0.3c0.4-0.2,0.7-0.3,1.1-0.5c0,0,0,0,0-0.1s0,0-0.1,0
					c-0.4,0.2-0.6,0.3-1,0.5c-0.3,0.1-0.5,0.2-0.8,0.3c-0.2,0.1-0.3,0.1-0.5,0.1c-0.7,0.2-1.3,0.4-2,0.8c-0.2,0.1-0.4,0.2-0.6,0.3
					C20.3,32.1,19,33.2,17.8,34.6C17.8,34.5,17.8,34.6,17.8,34.6L17.8,34.6z"/>
				<path class="st22" d="M25.4,30.6c-0.2,0.1-0.3,0.1-0.5,0.1c-0.7,0.2-1.3,0.4-2,0.8c-0.2,0.1-0.4,0.2-0.6,0.3
					c-1.2,0.7-2.5,1.8-3.7,3.2v0.1l0,0l0,0c1.2-1.4,2.5-2.5,3.7-3.2c0.2-0.1,0.4-0.2,0.6-0.3c0.7-0.4,1.3-0.6,2-0.8
					C25.1,30.8,25.3,30.7,25.4,30.6c0.3,0,0.6-0.1,0.8-0.2c0.4-0.2,0.6-0.3,1-0.5c0,0,0,0,0-0.1c0,0,0,0-0.1,0
					c-0.4,0.2-0.6,0.3-1,0.5C25.9,30.4,25.7,30.5,25.4,30.6z"/>
				<path class="st22" d="M26.2,31.1c-0.2,0.1-0.3,0.1-0.5,0.1c-0.7,0.2-1.3,0.4-2,0.8c-0.2,0.1-0.4,0.2-0.6,0.3
					c-1.2,0.7-2.5,1.8-3.7,3.2v0.1l0,0l0,0c1.2-1.4,2.5-2.5,3.7-3.2c0.2-0.1,0.4-0.2,0.6-0.3c0.7-0.4,1.4-0.6,2-0.8
					C25.9,31.3,26.1,31.2,26.2,31.1c0.3,0,0.6-0.1,0.8-0.2c0.4-0.2,0.6-0.3,1-0.5c0,0,0,0,0-0.1c0,0,0,0-0.1,0
					c-0.4,0.2-0.6,0.3-1,0.5C26.8,30.9,26.5,31,26.2,31.1z"/>
				<path class="st22" d="M27.1,31.5c-0.2,0.1-0.3,0.1-0.5,0.1c-0.7,0.2-1.3,0.4-2,0.8c-0.2,0.1-0.4,0.2-0.6,0.3
					c-1.2,0.7-2.5,1.8-3.7,3.2V36l0,0l0,0c1.2-1.4,2.5-2.5,3.7-3.2c0.2-0.1,0.4-0.2,0.6-0.3c0.7-0.4,1.4-0.6,2-0.8
					C26.7,31.7,26.9,31.7,27.1,31.5c0.3,0,0.6-0.1,0.8-0.2c0.4-0.2,0.6-0.3,1-0.5c0,0,0,0,0-0.1c0,0,0,0-0.1,0
					c-0.4,0.2-0.6,0.3-1,0.5C27.6,31.4,27.3,31.5,27.1,31.5z"/>
				<path class="st22" d="M27.9,32c-0.2,0.1-0.3,0.1-0.5,0.1c-0.7,0.2-1.4,0.4-2,0.8c-0.2,0.1-0.4,0.2-0.6,0.3
					c-1.2,0.7-2.5,1.9-3.7,3.2v0.1l0,0l0,0c1.2-1.4,2.5-2.5,3.7-3.2c0.2-0.1,0.4-0.2,0.6-0.3c0.7-0.4,1.4-0.6,2-0.8
					C27.6,32.2,27.8,32.2,27.9,32c0.3,0,0.6-0.1,0.8-0.2c0.4-0.2,0.6-0.3,1-0.5c0,0,0,0,0-0.1c0,0,0,0-0.1,0c-0.4,0.2-0.6,0.3-1,0.5
					C28.4,31.8,28.1,31.9,27.9,32z"/>
				<path class="st22" d="M28.7,32.5c-0.2,0.1-0.3,0.1-0.5,0.1c-0.7,0.2-1.4,0.4-2,0.8c-0.2,0.1-0.4,0.2-0.6,0.3
					c-1.2,0.7-2.5,1.9-3.7,3.2V37l0,0l0,0c1.2-1.4,2.5-2.5,3.7-3.2c0.2-0.1,0.4-0.2,0.6-0.3c0.7-0.4,1.4-0.6,2-0.8
					C28.4,32.7,28.6,32.6,28.7,32.5c0.3,0,0.6-0.1,0.8-0.2c0.4-0.2,0.6-0.3,1-0.5c0,0,0,0,0-0.1c0,0,0,0-0.1,0
					c-0.3,0.2-0.6,0.3-0.9,0.5C29.2,32.3,29,32.4,28.7,32.5z"/>
				<path class="st22" d="M29.6,33c-0.2,0.1-0.3,0.1-0.5,0.1c-0.7,0.2-1.4,0.4-2.1,0.8c-0.2,0.1-0.4,0.2-0.6,0.3
					c-1.2,0.7-2.5,1.9-3.8,3.3v0.1l0,0l0,0c1.2-1.4,2.5-2.5,3.7-3.2c0.2-0.1,0.4-0.2,0.6-0.3c0.7-0.4,1.4-0.6,2-0.8
					C29.2,33.2,29.4,33.1,29.6,33c0.3,0,0.6-0.1,0.8-0.2c0.4-0.2,0.6-0.3,0.9-0.5c0,0,0,0,0-0.1c0,0,0,0-0.1,0
					c-0.3,0.2-0.5,0.3-0.9,0.4C30.1,32.8,29.8,32.9,29.6,33z"/>
				<path class="st22" d="M30.4,33.5c-0.2,0.1-0.3,0.1-0.5,0.1c-0.7,0.2-1.4,0.4-2.1,0.8c-0.2,0.1-0.4,0.2-0.6,0.3
					c-1.2,0.7-2.5,1.9-3.8,3.3v0.1l0,0l0,0c1.2-1.4,2.5-2.5,3.7-3.2c0.2-0.1,0.4-0.2,0.6-0.3c0.7-0.4,1.4-0.6,2-0.8
					C30.1,33.7,30.2,33.6,30.4,33.5c0.3,0,0.5-0.1,0.8-0.2c0.4-0.2,0.6-0.3,0.9-0.4c0,0,0,0,0-0.1c0,0,0,0-0.1,0
					c-0.3,0.2-0.5,0.3-0.9,0.4C30.9,33.3,30.6,33.4,30.4,33.5z"/>
				<path class="st22" d="M31.2,33.9C31,34,30.9,34,30.7,34.1c-0.7,0.2-1.4,0.4-2.1,0.8c-0.2,0.1-0.4,0.2-0.6,0.3
					c-1.2,0.7-2.5,1.9-3.8,3.3v0.1l0,0l0,0c1.2-1.4,2.5-2.5,3.8-3.3c0.2-0.1,0.4-0.2,0.6-0.3c0.7-0.4,1.4-0.6,2-0.8
					C30.9,34.1,31.1,34.1,31.2,33.9c0.3,0,0.5-0.1,0.8-0.2c0.4-0.2,0.6-0.2,0.9-0.4c0,0,0,0,0-0.1c0,0,0,0-0.1,0
					c-0.3,0.2-0.5,0.3-0.9,0.4C31.7,33.8,31.5,33.9,31.2,33.9z"/>
				<path class="st22" d="M32,34.4c-0.2,0.1-0.3,0.1-0.5,0.1c-0.7,0.2-1.4,0.4-2.1,0.8c-0.2,0.1-0.4,0.2-0.6,0.3
					c-1.2,0.7-2.6,1.9-3.8,3.3V39l0,0l0,0c1.2-1.4,2.5-2.5,3.8-3.3c0.2-0.1,0.4-0.2,0.6-0.3c0.7-0.4,1.4-0.6,2-0.8
					C31.7,34.6,31.9,34.6,32,34.4c0.3,0,0.5-0.1,0.8-0.2c0.4-0.2,0.6-0.2,0.9-0.4c0,0,0,0,0-0.1c0,0,0,0-0.1,0
					c-0.3,0.2-0.5,0.3-0.9,0.4C32.6,34.2,32.3,34.3,32,34.4z"/>
				<path class="st22" d="M32.9,34.9C32.7,35,32.6,35,32.4,35c-0.7,0.2-1.4,0.4-2.1,0.8c-0.2,0.1-0.4,0.2-0.6,0.3
					c-1.2,0.8-2.6,1.9-3.8,3.3v0.1l0,0l0,0c1.2-1.4,2.5-2.5,3.8-3.3c0.2-0.1,0.4-0.2,0.6-0.3c0.7-0.4,1.4-0.6,2.1-0.8
					C32.6,35.1,32.7,35,32.9,34.9c0.3,0,0.5-0.1,0.8-0.2c0.3-0.1,0.6-0.2,0.9-0.4c0,0,0,0,0-0.1c0,0,0,0-0.1,0
					c-0.3,0.2-0.5,0.3-0.8,0.4C33.4,34.7,33.1,34.8,32.9,34.9z"/>
				<path class="st22" d="M33.7,35.4c-0.2,0.1-0.3,0.1-0.5,0.1c-0.7,0.2-1.4,0.4-2.1,0.8c-0.2,0.1-0.4,0.2-0.6,0.3
					c-1.2,0.8-2.6,1.9-3.8,3.3V40l0,0l0,0c1.2-1.4,2.6-2.5,3.8-3.3c0.2-0.1,0.4-0.2,0.6-0.3c0.7-0.4,1.4-0.6,2.1-0.8
					C33.4,35.6,33.6,35.5,33.7,35.4c0.3,0,0.5-0.1,0.8-0.2c0.3-0.1,0.5-0.2,0.8-0.4c0,0,0,0,0-0.1c0,0,0,0-0.1,0
					c-0.3,0.2-0.5,0.3-0.8,0.4C34.2,35.2,34,35.3,33.7,35.4z"/>
				<path class="st22" d="M34.5,35.8c-0.2,0.1-0.3,0.1-0.5,0.1c-0.7,0.2-1.4,0.4-2.1,0.8c-0.2,0.1-0.4,0.2-0.6,0.3
					c-1.3,0.8-2.6,1.9-3.8,3.3v0.1l0,0l0,0c1.2-1.4,2.6-2.6,3.8-3.3c0.2-0.1,0.4-0.2,0.6-0.3c0.7-0.4,1.4-0.6,2.1-0.8
					C34.2,36,34.4,36,34.5,35.8c0.3,0,0.5-0.1,0.8-0.2c0.3-0.1,0.5-0.2,0.8-0.4c0,0,0,0,0-0.1c0,0,0,0-0.1,0
					c-0.3,0.2-0.5,0.2-0.8,0.4C35,35.7,34.8,35.8,34.5,35.8z"/>
				<path class="st22" d="M35.4,36.3c-0.2,0.1-0.3,0.1-0.5,0.1c-0.7,0.2-1.4,0.4-2.1,0.8c-0.2,0.1-0.4,0.2-0.6,0.3
					c-1.3,0.8-2.6,1.9-3.8,3.3v0.1l0,0l0,0c1.3-1.4,2.6-2.6,3.8-3.3c0.2-0.1,0.4-0.2,0.6-0.3c0.7-0.4,1.4-0.6,2.1-0.8
					C35.1,36.5,35.2,36.5,35.4,36.3c0.3,0,0.5-0.1,0.8-0.2c0.3-0.1,0.5-0.2,0.8-0.4c0,0,0,0,0-0.1c0,0,0,0-0.1,0
					c-0.2,0.1-0.4,0.2-0.8,0.4C35.9,36.2,35.6,36.2,35.4,36.3z"/>
				<path class="st22" d="M37.7,36.2c-0.3,0.1-0.5,0.2-0.8,0.4c-0.3,0.1-0.5,0.2-0.8,0.3C35.9,37,35.8,37,35.6,37
					c-0.7,0.2-1.4,0.4-2.1,0.8c-0.2,0.1-0.4,0.2-0.6,0.3c-1.3,0.8-2.6,1.9-3.9,3.3v0.1l0,0l0,0c1.3-1.4,2.6-2.6,3.8-3.3
					c0.2-0.1,0.4-0.2,0.6-0.3c0.7-0.4,1.4-0.6,2.1-0.8c0.2,0,0.3-0.1,0.5-0.1c0.2-0.1,0.5-0.2,0.8-0.3
					C37.3,36.5,37.5,36.4,37.7,36.2C37.8,36.3,37.8,36.2,37.7,36.2C37.8,36.2,37.7,36.2,37.7,36.2z"/>
				<path class="st22" d="M10.6,38.6c0.2-0.1,0.3-0.3,0.5-0.4c0.7-0.6,1.3-1.2,2-1.7c0.2-0.1,0.4-0.2,0.6-0.4
					c1.2-0.7,2.5-1.2,3.7-1.3c0,0,0,0,0-0.1c0,0,0,0-0.1,0c-1.2,0.1-2.5,0.5-3.7,1.3c-0.2,0.1-0.4,0.2-0.6,0.4c-0.7,0.5-1.4,1-2,1.7
					C10.9,38.3,10.7,38.4,10.6,38.6c-0.4,0.2-0.7,0.4-0.9,0.7c-0.4,0.3-0.7,0.5-1,0.7c0,0,0,0,0,0.1l0,0l0,0c0.3-0.2,0.6-0.4,1-0.7
					S10.3,38.9,10.6,38.6z"/>
				<path class="st22" d="M11.5,39.1c0.2-0.1,0.3-0.3,0.5-0.4c0.7-0.6,1.3-1.2,2-1.7c0.2-0.1,0.4-0.2,0.6-0.4
					c1.2-0.7,2.5-1.2,3.7-1.2c0,0,0,0,0-0.1c0,0,0-0.1-0.1,0c-1.2,0.1-2.5,0.5-3.7,1.3c-0.2,0.1-0.4,0.2-0.6,0.4
					c-0.7,0.5-1.4,1-2,1.7C11.7,38.8,11.6,38.9,11.5,39.1c-0.4,0.2-0.7,0.4-0.9,0.7c-0.4,0.3-0.7,0.5-1,0.7c0,0,0,0,0,0.1l0,0l0,0
					c0.3-0.2,0.6-0.4,1-0.7C10.9,39.6,11.2,39.4,11.5,39.1z"/>
				<path class="st22" d="M12.3,39.6c0.2-0.1,0.3-0.3,0.5-0.4c0.7-0.6,1.3-1.2,2-1.7c0.2-0.1,0.4-0.3,0.6-0.4
					c1.2-0.7,2.4-1.2,3.6-1.2c0,0,0,0,0-0.1s0,0-0.1,0c-1.2,0.1-2.5,0.5-3.7,1.3c-0.2,0.1-0.4,0.2-0.6,0.4c-0.7,0.5-1.4,1-2,1.7
					C12.5,39.2,12.4,39.4,12.3,39.6c-0.4,0.2-0.7,0.4-0.9,0.7c-0.4,0.3-0.7,0.5-1,0.7c0,0,0,0,0,0.1l0,0l0,0c0.3-0.2,0.6-0.4,1-0.7
					C11.7,40.1,12,39.9,12.3,39.6z"/>
				<path class="st22" d="M13.1,40.1c0.2-0.1,0.3-0.3,0.5-0.4c0.7-0.6,1.3-1.2,2-1.7c0.2-0.1,0.4-0.3,0.6-0.4
					c1.2-0.7,2.4-1.1,3.6-1.2c0,0,0,0,0-0.1c0,0,0,0-0.1,0c-1.2,0.1-2.4,0.5-3.6,1.3c-0.2,0.1-0.4,0.2-0.6,0.4c-0.7,0.5-1.4,1-2,1.7
					C13.3,39.7,13.2,39.9,13.1,40.1c-0.4,0.2-0.6,0.4-0.9,0.7c-0.4,0.3-0.7,0.5-1,0.7c0,0,0,0,0,0.1l0,0l0,0c0.3-0.2,0.6-0.4,1-0.7
					C12.5,40.6,12.8,40.4,13.1,40.1z"/>
				<path class="st22" d="M13.9,40.6c0.2-0.1,0.3-0.3,0.5-0.4c0.7-0.6,1.3-1.2,2-1.7c0.2-0.1,0.4-0.3,0.6-0.4
					c1.2-0.7,2.4-1.1,3.6-1.2c0,0,0,0,0-0.1c0,0,0,0-0.1,0c-1.2,0.1-2.4,0.5-3.6,1.3c-0.2,0.1-0.4,0.2-0.6,0.4c-0.7,0.5-1.4,1-2,1.7
					C14.2,40.2,14,40.4,13.9,40.6c-0.4,0.2-0.6,0.4-0.9,0.7c-0.4,0.3-0.7,0.5-1,0.7c0,0,0,0,0,0.1l0,0l0,0c0.3-0.2,0.6-0.4,1-0.7
					C13.3,41.1,13.6,40.8,13.9,40.6z"/>
				<path class="st22" d="M14.7,41.1c0.2-0.1,0.3-0.3,0.5-0.4c0.7-0.6,1.3-1.2,2-1.7c0.2-0.1,0.4-0.3,0.6-0.4
					c1.2-0.7,2.4-1.1,3.5-1.2c0,0,0,0,0-0.1c0,0,0,0-0.1,0c-1.2,0.1-2.4,0.6-3.6,1.3c-0.2,0.1-0.4,0.2-0.6,0.4c-0.7,0.5-1.4,1-2,1.7
					C15,40.7,14.8,40.8,14.7,41.1c-0.4,0.2-0.6,0.4-0.9,0.7c-0.4,0.3-0.7,0.5-1,0.7c0,0,0,0,0,0.1l0,0l0,0c0.3-0.2,0.6-0.4,1-0.7
					S14.4,41.3,14.7,41.1z"/>
				<path class="st22" d="M15.6,41.5c0.2-0.1,0.3-0.3,0.5-0.4c0.7-0.6,1.3-1.2,2-1.7c0.2-0.1,0.4-0.3,0.6-0.4
					c1.1-0.7,2.4-1.1,3.5-1.2c0,0,0,0,0-0.1s0,0-0.1,0c-1.2,0.1-2.4,0.6-3.5,1.3c-0.2,0.1-0.4,0.2-0.6,0.4c-0.7,0.5-1.4,1-2,1.7
					C15.8,41.2,15.6,41.3,15.6,41.5c-0.4,0.2-0.6,0.4-0.9,0.7c-0.4,0.3-0.7,0.5-1,0.7c0,0,0,0,0,0.1l0,0l0,0c0.3-0.2,0.6-0.4,1-0.7
					C15,42.1,15.3,41.8,15.6,41.5z"/>
				<path class="st22" d="M16.4,42c0.2-0.1,0.3-0.3,0.5-0.4c0.7-0.6,1.3-1.2,2-1.7c0.2-0.1,0.4-0.3,0.6-0.4c1.1-0.7,2.3-1.1,3.5-1.2
					c0,0,0,0,0-0.1s0,0-0.1,0c-1.2,0.1-2.4,0.6-3.5,1.3c-0.2,0.1-0.4,0.2-0.6,0.4c-0.7,0.5-1.4,1-2.1,1.7
					C16.6,41.7,16.5,41.8,16.4,42c-0.4,0.2-0.6,0.4-0.9,0.7c-0.4,0.3-0.7,0.5-1,0.7c0,0,0,0,0,0.1l0,0l0,0c0.3-0.2,0.6-0.4,1.1-0.7
					C15.8,42.5,16.1,42.3,16.4,42z"/>
				<path class="st22" d="M17.2,42.5c0.2-0.1,0.3-0.3,0.5-0.4c0.7-0.6,1.4-1.2,2-1.7c0.2-0.1,0.4-0.3,0.6-0.4
					c1.1-0.7,2.3-1.1,3.4-1.2c0,0,0,0,0-0.1s0,0-0.1,0c-1.1,0.1-2.3,0.6-3.5,1.3c-0.2,0.1-0.4,0.2-0.6,0.4c-0.7,0.5-1.4,1-2.1,1.7
					C17.4,42.2,17.3,42.3,17.2,42.5c-0.4,0.2-0.6,0.4-0.9,0.6c-0.4,0.3-0.7,0.5-1.1,0.7c0,0,0,0,0,0.1l0,0l0,0
					c0.3-0.2,0.6-0.4,1.1-0.8C16.6,43,16.9,42.8,17.2,42.5z"/>
				<path class="st22" d="M18,43c0.2-0.1,0.3-0.3,0.5-0.4c0.7-0.6,1.4-1.2,2-1.7c0.2-0.1,0.4-0.3,0.6-0.4c1.1-0.7,2.3-1.1,3.4-1.2
					c0,0,0,0,0-0.1s0,0-0.1,0c-1.1,0.1-2.3,0.6-3.5,1.3c-0.2,0.1-0.4,0.2-0.6,0.4c-0.7,0.5-1.4,1.1-2.1,1.7
					C18.3,42.6,18.1,42.8,18,43c-0.4,0.2-0.6,0.4-0.9,0.6c-0.4,0.3-0.7,0.6-1.1,0.8c0,0,0,0,0,0.1l0,0l0,0c0.3-0.2,0.7-0.4,1.1-0.8
					C17.4,43.5,17.7,43.3,18,43z"/>
				<path class="st22" d="M18.8,43.5c0.2-0.1,0.3-0.3,0.5-0.4c0.7-0.6,1.4-1.2,2-1.7c0.2-0.1,0.4-0.3,0.6-0.4
					c1.1-0.7,2.3-1.1,3.4-1.2c0,0,0,0,0-0.1c0,0,0,0-0.1,0c-1.1,0.1-2.3,0.6-3.4,1.3c-0.2,0.1-0.4,0.2-0.6,0.4
					c-0.7,0.5-1.4,1.1-2.1,1.7C19.1,43.1,18.9,43.3,18.8,43.5c-0.4,0.2-0.6,0.4-0.9,0.6c-0.4,0.3-0.7,0.6-1.1,0.8c0,0,0,0,0,0.1l0,0
					l0,0c0.3-0.2,0.7-0.4,1.1-0.8C18.3,44,18.5,43.7,18.8,43.5z"/>
				<path class="st22" d="M19.6,44c0.2-0.1,0.3-0.3,0.5-0.4c0.7-0.6,1.4-1.2,2.1-1.7c0.2-0.1,0.4-0.3,0.6-0.4
					c1.1-0.7,2.3-1.1,3.4-1.2c0,0,0,0,0-0.1c0,0,0,0-0.1,0c-1.1,0.2-2.3,0.6-3.4,1.3c-0.2,0.1-0.4,0.2-0.6,0.4
					c-0.7,0.5-1.4,1.1-2.1,1.7C19.9,43.6,19.7,43.8,19.6,44c-0.4,0.2-0.6,0.4-0.9,0.6c-0.4,0.3-0.8,0.6-1.1,0.8c0,0,0,0,0,0.1l0,0
					l0,0c0.3-0.2,0.7-0.4,1.1-0.8C19.1,44.5,19.4,44.2,19.6,44z"/>
				<path class="st22" d="M20.5,44.5c0.2-0.1,0.3-0.3,0.5-0.4c0.7-0.6,1.4-1.2,2.1-1.7c0.2-0.1,0.4-0.3,0.6-0.4
					c1.1-0.7,2.2-1.1,3.3-1.2c0,0,0,0,0-0.1c0,0,0,0-0.1,0c-1.1,0.2-2.3,0.6-3.4,1.3c-0.2,0.1-0.4,0.2-0.6,0.4
					c-0.7,0.5-1.4,1.1-2.1,1.7C20.7,44.1,20.5,44.2,20.5,44.5c-0.4,0.2-0.6,0.4-0.9,0.6c-0.4,0.3-0.8,0.6-1.1,0.8c0,0,0,0,0,0.1l0,0
					l0,0c0.3-0.2,0.7-0.4,1.1-0.8C19.9,45,20.2,44.7,20.5,44.5z"/>
				<path class="st22" d="M21.3,44.9c0.2-0.1,0.3-0.3,0.5-0.4c0.7-0.7,1.4-1.2,2.1-1.7c0.2-0.1,0.4-0.3,0.6-0.4
					c1.1-0.6,2.2-1.1,3.3-1.2c0,0,0,0,0-0.1c0,0,0,0-0.1,0c-1.1,0.2-2.3,0.6-3.3,1.3c-0.2,0.1-0.4,0.2-0.6,0.4
					c-0.7,0.5-1.4,1.1-2.1,1.7C21.5,44.6,21.4,44.7,21.3,44.9c-0.4,0.2-0.6,0.4-0.9,0.6c-0.4,0.3-0.8,0.6-1.1,0.8c0,0,0,0,0,0.1l0,0
					l0,0c0.4-0.2,0.7-0.4,1.1-0.8C20.7,45.4,21,45.2,21.3,44.9z"/>
				<path class="st22" d="M25.2,42.8c-0.2,0.1-0.4,0.2-0.6,0.4c-0.7,0.5-1.4,1.1-2.1,1.7c-0.2,0.1-0.3,0.3-0.5,0.4
					c-0.3,0.3-0.6,0.5-0.9,0.7c-0.4,0.3-0.8,0.6-1.1,0.8c0,0,0,0,0,0.1l0,0l0,0c0.4-0.2,0.7-0.4,1.1-0.8c0.3-0.2,0.6-0.5,0.9-0.7
					c0.2-0.1,0.3-0.3,0.5-0.4c0.7-0.7,1.4-1.2,2.1-1.7C24.8,43.2,25,43,25.2,42.8c1.1-0.6,2.2-1,3.3-1.2c0,0,0,0,0-0.1
					c0,0,0,0-0.1,0C27.4,41.7,26.2,42.2,25.2,42.8z"/>
			</g>
		</g>
		<g>
			<g>
				<g>
					<g>
						<g class="st23">
							<g>
								<path class="st24" d="M29.1,41.9l-7.9-4.6l-0.1-0.1L29.1,41.9L29.1,41.9z"/>
							</g>
							<g>
								<path class="st25" d="M29.2,41.6c-0.1,0.1-0.1,0.1-0.1,0.2l-7.9-4.6l0.1-0.2L29.2,41.6z"/>
							</g>
							<g>
								<path class="st26" d="M29.4,41.5h-0.1c0,0-0.1,0-0.1,0.1l-8-4.6l0.2-0.1L29.4,41.5z"/>
							</g>
						</g>
					</g>
					<g>
						<polygon class="st27" points="30.3,42.2 30.3,42.3 30.3,42.3 30.3,42.3 30.2,42.3 30.3,42.3 						"/>
					</g>
					<path d="M30.3,42.2L30,42l0,0c0,0,0,0-0.1,0l-0.1,0.1l0,0L30.3,42.2C30.3,42.3,30.3,42.3,30.3,42.2
						C30.3,42.3,30.3,42.3,30.3,42.2z"/>
					<path class="st28" d="M21.7,37h-0.1l-0.1,0.1c0,0.1-0.1,0.1-0.1,0.2v0.1L21,37.1c0,0-0.1,0-0.1-0.1s0-0.1,0.1-0.2
						c0-0.1,0.1-0.1,0.1-0.1h0.1l0,0L21.7,37z"/>
					<path class="st29" d="M29.4,41.5L29.4,41.5L29.4,41.5z"/>
				</g>
				<path class="st30" d="M29.4,41.5L29.4,41.5L29.4,41.5c-0.1,0-0.2,0-0.2,0s0,0,0,0.1l0,0c0,0-0.1,0.1-0.1,0.2l0,0v0.1l0,0
					l0.8,0.3l0,0c0,0,0-0.1,0.1-0.1c0,0,0,0,0.1,0L29.4,41.5z"/>
			</g>
			
				<linearGradient id="SVGID_1_" gradientUnits="userSpaceOnUse" x1="21.7732" y1="3571.1643" x2="21.5925" y2="3571.4897" gradientTransform="matrix(1 0 0 1 0 -3534)">
				<stop  offset="0" style="stop-color:#78ACED"/>
				<stop  offset="1" style="stop-color:#4F7BB3"/>
			</linearGradient>
			<path class="st31" d="M22.1,37.3L22.1,37.3L22.1,37.3L21.7,37l0,0l0,0h-0.1l0,0h-0.1c-0.1,0-0.1,0.1-0.1,0.1
				c0,0.1-0.1,0.1-0.1,0.2c0,0,0,0.1,0.1,0.1h0.1l0,0l0,0l0.3,0.2l0,0l0,0l0.1,0.1l0,0l0,0l0,0c0,0,0,0,0-0.1l0,0v-0.1l0,0l0.1-0.1
				l0,0C22,37.3,22,37.2,22.1,37.3L22.1,37.3L22.1,37.3L22.1,37.3L22.1,37.3z"/>
		</g>
	</g>
</g>
<g id="zSpace">
	
		<radialGradient id="SVGID_00000033334580133222404100000005689968528873301129_" cx="-1125.2982" cy="6645.1055" r="15.9016" gradientTransform="matrix(-1.5353 0 0 0.4819 -1702.6704 -3160.7764)" gradientUnits="userSpaceOnUse">
		<stop  offset="0.4351" style="stop-color:#B4BCC1"/>
		<stop  offset="0.94" style="stop-color:#ECEEEF;stop-opacity:0"/>
	</radialGradient>
	
		<ellipse style="display:none;fill:url(#SVGID_00000033334580133222404100000005689968528873301129_);" cx="25" cy="41.5" rx="24.4" ry="7.7"/>
	<g id="Laptop">
		<g class="st33">
			<polygon class="st34" points="2.633,36.721 8.217,38.272 19.716,45.031 39.05,33.652 39.298,32.808 27.551,26.892 23.013,25.478 
							"/>
		</g>
		<g>
			<polygon class="st35" points="8.435,37.432 27.524,25.435 23.786,11.172 23.54,11.172 4.205,22.55 8.189,36.813 			"/>
			<g>
				<polygon class="st36" points="39.27,32.192 39.27,32.811 19.934,44.191 8.435,37.432 				"/>
				<polygon class="st35" points="8.435,36.813 19.934,43.572 19.934,44.191 8.435,37.432 				"/>
				<polygon class="st37" points="27.771,25.435 39.27,32.192 19.934,43.572 8.435,36.813 				"/>
				<polygon class="st36" points="27.248,37.819 30.931,35.652 28.382,34.154 24.701,36.321 				"/>
				<g>
					<polygon class="st35" points="34.216,30.13 28.014,26.485 10.079,36.936 16.281,40.581 					"/>
					<g>
						<path class="st36" d="M26.979,27.502l1.123-0.659l0.728,0.428l-1.123,0.659L26.979,27.502z M28.824,28.587l1.123-0.659
							L29.219,27.5l-1.124,0.659L28.824,28.587z M27.438,29.399l1.123-0.659l-0.728-0.428l-1.123,0.659L27.438,29.399z
							 M26.052,30.213l1.123-0.659l-0.728-0.428l-1.123,0.659L26.052,30.213z M24.666,31.026l1.123-0.659l-0.728-0.428l-1.123,0.659
							L24.666,31.026z M23.28,31.838l1.123-0.659l-0.728-0.428l-1.123,0.659L23.28,31.838z M21.895,32.652l1.123-0.659l-0.728-0.428
							l-1.123,0.659L21.895,32.652z M20.509,33.465l1.123-0.659l-0.728-0.428l-1.123,0.659L20.509,33.465z M19.123,34.277
							l1.123-0.659l-0.728-0.428l-1.123,0.659L19.123,34.277z M17.737,35.091l1.123-0.659l-0.728-0.428l-1.123,0.659L17.737,35.091z
							 M16.351,35.904l1.123-0.659l-0.728-0.428l-1.123,0.659L16.351,35.904z M14.965,36.716l1.123-0.659l-0.728-0.428l-1.123,0.659
							L14.965,36.716z M12.555,38.13l2.149-1.261l-0.728-0.428l-2.149,1.261L12.555,38.13z M13.864,37.58l-1.123,0.659l0.728,0.428
							l1.123-0.659L13.864,37.58z M15.25,36.768l-1.123,0.659l0.728,0.428l1.123-0.659L15.25,36.768z M16.634,35.955l-1.123,0.659
							l0.728,0.428l1.123-0.659L16.634,35.955z M18.02,35.141L16.897,35.8l0.728,0.428l1.123-0.659L18.02,35.141z M19.406,34.329
							l-1.123,0.659l0.728,0.428l1.123-0.659L19.406,34.329z M20.792,33.516l-1.123,0.659l0.728,0.428l1.123-0.659L20.792,33.516z
							 M22.178,32.702l-1.123,0.659l0.728,0.428l1.123-0.659L22.178,32.702z M23.564,31.89l-1.123,0.659l0.728,0.428l1.123-0.659
							L23.564,31.89z M24.95,31.077l-1.123,0.659l0.728,0.428l1.123-0.659L24.95,31.077z M26.336,30.264l-1.123,0.659l0.728,0.428
							l1.123-0.659L26.336,30.264z M27.721,29.451l-1.123,0.659l0.728,0.428l1.123-0.659L27.721,29.451z M30.133,28.037
							l-2.149,1.261l0.728,0.428l2.149-1.261L30.133,28.037z M15.684,37.565l-2.021,1.186l0.728,0.428l2.021-1.186L15.684,37.565z
							 M17.07,36.752l-1.123,0.659l0.728,0.428l1.123-0.659L17.07,36.752z M18.456,35.94l-1.123,0.659l0.728,0.428l1.123-0.659
							L18.456,35.94z M19.842,35.127l-1.123,0.659l0.728,0.428l1.123-0.659L19.842,35.127z M21.227,34.313l-1.123,0.659l0.728,0.428
							l1.123-0.659L21.227,34.313z M22.613,33.501L21.49,34.16l0.728,0.428l1.123-0.659L22.613,33.501z M23.999,32.688l-1.123,0.659
							l0.728,0.428l1.123-0.659L23.999,32.688z M25.385,31.874l-1.123,0.659l0.728,0.428l1.123-0.659L25.385,31.874z M26.771,31.062
							l-1.123,0.659l0.728,0.428l1.123-0.659L26.771,31.062z M28.157,30.249l-1.123,0.659l0.728,0.428l1.123-0.659L28.157,30.249z
							 M31.029,28.564l-2.611,1.531l0.728,0.428l2.611-1.531L31.029,28.564z M17.697,37.457l-3.12,1.83l0.728,0.428l3.12-1.83
							L17.697,37.457z M19.031,36.675l-1.123,0.659l0.728,0.428l1.123-0.659L19.031,36.675z M20.416,35.863l-1.123,0.659
							l0.728,0.428l1.123-0.659L20.416,35.863z M21.802,35.049l-1.123,0.659l0.728,0.428l1.123-0.659L21.802,35.049z M23.188,34.236
							l-1.123,0.659l0.728,0.428l1.123-0.659L23.188,34.236z M24.574,33.424l-1.123,0.659l0.728,0.428l1.123-0.659L24.574,33.424z
							 M25.96,32.61l-1.123,0.659l0.728,0.428l1.123-0.659L25.96,32.61z M27.346,31.797l-1.123,0.659l0.728,0.428l1.123-0.659
							L27.346,31.797z M28.732,30.985l-1.123,0.659l0.728,0.428l1.123-0.659L28.732,30.985z M31.942,29.101l-2.949,1.73l0.728,0.428
							l2.949-1.73L31.942,29.101z M16.634,39.154l-1.123,0.659l0.728,0.428l1.123-0.659L16.634,39.154z M18.02,38.341L16.897,39
							l0.728,0.428l1.123-0.659L18.02,38.341z M19.406,37.529l-1.123,0.659l0.728,0.428l1.123-0.659L19.406,37.529z M20.792,36.715
							l-1.123,0.659l0.728,0.428l1.123-0.659L20.792,36.715z M28.636,32.114l-7.528,4.416l0.728,0.428l7.528-4.416L28.636,32.114z
							 M30.022,31.302l-1.123,0.659l0.728,0.428l1.123-0.659L30.022,31.302z M31.408,30.488l-1.123,0.659l0.728,0.428l1.123-0.659
							L31.408,30.488z M32.792,29.675l-1.123,0.659l0.728,0.428l1.123-0.659L32.792,29.675z M26.003,28.931l1.123-0.659
							l-0.728-0.428l-1.123,0.659L26.003,28.931z M24.748,29.666l1.123-0.659l-0.728-0.428l-1.123,0.659L24.748,29.666z
							 M23.494,30.402l1.123-0.659l-0.728-0.428l-1.123,0.659L23.494,30.402z M22.239,31.138l1.123-0.659l-0.728-0.428l-1.123,0.659
							L22.239,31.138z M20.592,32.105l1.123-0.659l-0.728-0.428l-1.123,0.659L20.592,32.105z M19.337,32.841l1.123-0.659
							l-0.728-0.428l-1.123,0.659L19.337,32.841z M18.082,33.577l1.123-0.659l-0.728-0.428l-1.123,0.659L18.082,33.577z
							 M16.828,34.314l1.123-0.659l-0.728-0.428L16.1,33.886L16.828,34.314z M15.179,35.28l1.123-0.659l-0.728-0.428l-1.123,0.659
							L15.179,35.28z M13.924,36.016l1.123-0.659l-0.728-0.428l-1.123,0.659L13.924,36.016z M12.67,36.753l1.123-0.659l-0.728-0.428
							l-1.123,0.659L12.67,36.753z M11.415,37.489l1.123-0.659l-0.728-0.428l-1.123,0.659L11.415,37.489z"/>
					</g>
				</g>
			</g>
			<polygon class="st36" points="27.771,25.435 23.786,11.172 4.452,22.55 8.435,36.813 			"/>
			<polygon class="st38" points="9.04,35.315 5.604,23.016 23.182,12.67 26.619,24.969 			"/>
		</g>
	</g>
	<g id="Glasses">
		<g id="XMLID_255_">
			<path id="XMLID_1591_" class="st39" d="M37.202,21.176l-2.776,2.013l0.518,0.194l2.627-1.996l1.76-1.169
				c-0.322-0.185-0.57,0.018-0.57,0.018L37.202,21.176z"/>
			<path id="XMLID_1588_" class="st40" d="M32.869,21.959v0.903l1.624-0.938l0.606-0.658l2.883-1.23
				c0.235,0.15,0.819,0.189,1.113,0.12c0.193-0.046,0.105-0.002,0.194-0.108c0.115-0.136,0.123-0.328,0.015-0.348l-1.327-0.256
				L32.869,21.959z"/>
			<path id="XMLID_1578_" class="st41" d="M32.994,22.047v0.903l1.624-0.938l0.606-0.658l2.944-1.282
				c0.299,0.109,0.754,0.241,1.052,0.171c0.193-0.046,0.105-0.002,0.194-0.108c0.115-0.136,0.123-0.328,0.015-0.348l-1.326-0.256
				L32.994,22.047z"/>
		</g>
		<g id="XMLID_1568_">
			<path id="XMLID_1603_" class="st39" d="M33.21,24.778l0.957-0.533l0.42-0.158l2.643,1.634l0.23,0.949l-1.093,0.139
				c-0.352,0.044-0.795-0.041-1.098-0.21l-1.925-1.306C33.042,25.123,32.984,24.904,33.21,24.778z"/>
			<path id="XMLID_00000150098527270792061320000014843806067455869357_" class="st39" d="M40.383,27.274l-0.146,1.057
				c-0.018,0.134-0.107,0.196-0.222,0.172c-0.031-0.007-0.065-0.019-0.099-0.039l-1.05-0.436l-0.92-0.382
				c-0.069-0.039-0.134-0.097-0.191-0.166l-0.093,0.084c-0.165,0.149-0.073,0.366,0.23,0.535l1.954,0.866
				c0.303,0.17,0.759,0.238,1.072,0.162l1.37-0.616l0.518-0.329l0,0l2.627-1.996l1.76-1.169c-0.322-0.185-0.57,0.018-0.57,0.018
				l-1.558,0.942l-2.776,2.013"/>
			<path id="XMLID_1602_" class="st39" d="M33.767,24.965l0.361,0.286l0.91,0.717c0.113,0.066,0.218,0.072,0.292,0.023
				c0.038-0.024,0.068-0.065,0.087-0.119l0.236-0.698l1.845,1.179l-1.347,0.171c-0.196,0.024-0.445-0.023-0.616-0.118l-1.69-1.176
				C33.689,25.142,33.657,25.031,33.767,24.965z"/>
			<path id="XMLID_1592_" class="st39" d="M38.225,27.766l0.643,0.267l1.05,0.436c0.034,0.02,0.068,0.034,0.099,0.039
				c0.115,0.026,0.204-0.038,0.222-0.172l0.093-0.677l1.443,0.525l-1.099,0.644c-0.163,0.04-0.402,0.004-0.56-0.085l-1.722-0.735
				C38.26,27.932,38.199,27.841,38.225,27.766z"/>
			<g id="XMLID_1219_">
				<path id="XMLID_1576_" class="st40" d="M40.73,26.757v0.903l1.623-0.938l0.606-0.658l2.883-1.23
					c0.235,0.15,0.819,0.189,1.113,0.12c0.193-0.046,0.105-0.002,0.194-0.108c0.115-0.136,0.123-0.328,0.015-0.348l-1.326-0.256
					L40.73,26.757z"/>
				<path id="XMLID_1596_" class="st41" d="M32.995,22.045l-0.154,0.445l0.191,1.597c0.046,0.377,0.305,0.787,0.614,0.964
					l1.741,1.324c0.307,0.177,0.58,0.107,0.675-0.175l0.413-1.221l0.528,0.305l0.413,1.697c0.094,0.391,0.366,0.777,0.675,0.954
					l2.209,0.957c0.308,0.179,0.569,0.069,0.614-0.254l0.191-1.376v-0.547l-4.277-2.151l0,0l-0.177-0.103l0,0L32.995,22.045z"/>
				<polygon id="XMLID_1570_" class="st42" points="36.828,24.564 32.866,21.96 32.594,22.117 36.28,24.807 40.857,26.845 
					41.104,26.715 				"/>
				<path id="XMLID_1572_" class="st37" d="M40.858,26.847v0.547l-0.191,1.376c-0.046,0.323-0.305,0.431-0.614,0.254l-2.209-0.957
					c-0.307-0.177-0.58-0.563-0.675-0.954l-0.589-2.419L40.858,26.847z"/>
				<path id="XMLID_1610_" class="st43" d="M37.459,26.67l-0.23-0.949l0.781,0.399l0.524,0.25l1.15,0.551l0.702,0.336l-0.055,0.401
					l-0.116,0.755l-0.135,0.072l-1.092-0.484l-0.724-0.295c-0.019,0.016-0.032,0.037-0.039,0.057l-0.277-0.115
					c-0.069-0.039-0.134-0.097-0.191-0.166L37.459,26.67z"/>
				<polygon id="XMLID_1589_" class="st43" points="40.388,27.258 40.403,27.145 37.204,25.616 37.237,25.751 				"/>
				<path id="XMLID_1566_" class="st37" d="M32.593,22.117v0.547l0.191,1.597c0.046,0.377,0.305,0.787,0.614,0.964l1.741,1.324
					c0.307,0.177,0.58,0.107,0.675-0.175l0.589-1.739L32.593,22.117z"/>
				<polygon id="XMLID_1223_" class="st44" points="35.806,24.242 37.169,24.989 36.755,25.409 36.212,25.096 				"/>
				<path id="XMLID_1608_" class="st43" d="M33.75,23.388l1.224,0.849l0.804,0.558l-0.127,0.379l-0.256,0.742l-0.149,0.106
					l-1.136-0.847l-0.338-0.212c-0.003,0-0.004,0.003-0.007,0.004l-0.231-0.183c-0.161-0.092-0.298-0.307-0.321-0.503L33.049,22.9
					L33.75,23.388z"/>
				<polygon id="XMLID_1601_" class="st45" points="32.941,26.029 32.965,25.957 30.947,24.557 30.959,24.653 				"/>
				<path id="XMLID_1585_" class="st46" d="M37.203,25.615l0.364,1.497c0.053,0.221,0.206,0.436,0.379,0.536l1.971,0.819
					c0.133,0.077,0.249,0.052,0.299-0.054c-0.056,0.024-0.131,0.015-0.212-0.031l-1.971-0.819c-0.172-0.1-0.326-0.317-0.379-0.536
					l-0.329-1.353L37.203,25.615z"/>
				<path id="XMLID_1569_" class="st46" d="M33.048,22.899l0.164,1.379c0.023,0.196,0.16,0.41,0.321,0.503l1.502,1.186
					c0.155,0.089,0.294,0.065,0.359-0.054c-0.071,0.037-0.169,0.029-0.273-0.032l-1.502-1.186c-0.161-0.092-0.298-0.307-0.321-0.503
					l-0.145-1.221L33.048,22.899z"/>
			</g>
			<path id="XMLID_1573_" class="st41" d="M40.856,26.845v0.903l1.624-0.938l0.605-0.658l2.944-1.282
				c0.299,0.109,0.754,0.241,1.052,0.171c0.193-0.046,0.105-0.002,0.194-0.108c0.115-0.136,0.123-0.328,0.015-0.348l-1.326-0.256
				L40.856,26.845z"/>
		</g>
	</g>
	<g id="Pen">
		<path class="st39" d="M28.737,44.615L28.737,44.615c0.114,0.33,0.456,0.454,0.448,0.455c0.002,0.002,0.006-0.001,0.007-0.001
			c0.014,0,0.041-0.007,0.083-0.023c0.015-0.005,0.038-0.016,0.057-0.024c0.037-0.014,0.072-0.029,0.118-0.051
			c0.025-0.011,0.053-0.025,0.079-0.037c0.05-0.024,0.101-0.047,0.156-0.074c0.027-0.012,0.054-0.025,0.081-0.039
			c0.061-0.03,0.122-0.06,0.184-0.091c0.028-0.013,0.052-0.025,0.079-0.039c0.057-0.029,0.111-0.056,0.165-0.083
			c0.046-0.023,0.084-0.042,0.126-0.064c0.028-0.015,0.055-0.028,0.081-0.042c0.053-0.027,0.095-0.049,0.134-0.069
			c0.008-0.004,0.014-0.007,0.022-0.011c0.042-0.023,0.07-0.037,0.088-0.046c0.01,0.007,0.017,0.015,0.028,0.022
			c0.007,0.004,0.03-0.003,0.069-0.018c0.077-0.029,0.215-0.096,0.395-0.189c0.091-0.047,0.192-0.1,0.302-0.158
			c1.321-0.701,3.92-2.176,4.273-2.374c0.089-0.05,0.275-0.159,0.517-0.302c0.323-0.193,0.748-0.448,1.18-0.715
			c0.215-0.133,0.432-0.27,0.639-0.401c0.723-0.462,1.318-0.873,1.275-0.949c-0.005-0.008-0.01-0.012-0.014-0.019
			c0.002-0.001,0.031-0.026,0.07-0.061c0.007-0.005,0.007-0.007,0.014-0.012c0.215-0.189,0.78-0.699,0.731-0.801
			c-0.018-0.011-0.054-0.012-0.103-0.007c-0.321,0.035-1.191,0.356-1.221,0.367c-0.007-0.004-0.023-0.015-0.023-0.015
			c-0.213,0.014-3.506,1.737-3.966,2.01c-0.458,0.274-4.802,2.867-4.822,2.955c0,0,0.014,0.02,0.018,0.028
			c-0.135,0.083-1.003,0.625-1.222,0.817l0,0l0,0c-0.027,0.025-0.035,0.038-0.039,0.049C28.746,44.606,28.737,44.614,28.737,44.615
			L28.737,44.615z"/>
		<g>
			<path class="st47" d="M30.169,43.275c0,0-1.328,0.821-1.302,0.897c0.114,0.33,0.455,0.455,0.455,0.455
				c0.097,0.015,1.487-0.713,1.487-0.713L30.169,43.275z"/>
			<path class="st48" d="M28.868,44.171c0.113,0.33,0.455,0.455,0.455,0.455c0.012,0.002,0.045-0.008,0.091-0.026
				c0,0-0.248-0.347-0.497-0.49C28.883,44.14,28.864,44.161,28.868,44.171z"/>
			<path class="st47" d="M38.929,38.317c0,0,1.189-0.44,1.33-0.363c0.06,0.123-0.817,0.876-0.817,0.876L38.929,38.317z"/>
			<path class="st49" d="M30.78,43.928l-0.12-0.085l-1.406,0.75c0.041,0.022,0.069,0.034,0.069,0.034
				C29.414,44.64,30.633,44.006,30.78,43.928z"/>
			<path class="st49" d="M39.409,38.78l0.014,0.031l0.019,0.019c0,0,0.124-0.107,0.277-0.248L39.409,38.78z"/>
			<path class="st50" d="M38.91,38.299c-0.213,0.014-3.506,1.737-3.966,2.01c-0.458,0.274-4.802,2.867-4.822,2.955
				c0,0,0.215,0.414,0.686,0.686c0.104,0.06,4.568-2.476,5.039-2.739c0.471-0.263,3.711-2.193,3.611-2.365
				C39.253,38.497,38.911,38.301,38.91,38.299z"/>
			<path class="st51" d="M30.808,43.951c0.104,0.06,4.569-2.476,5.039-2.739c0.471-0.263,3.711-2.193,3.611-2.365
				c-0.015-0.024-0.033-0.043-0.049-0.066l-8.749,5.062C30.709,43.878,30.751,43.918,30.808,43.951z"/>
			
				<ellipse transform="matrix(0.9978 -0.0665 0.0665 0.9978 -2.5435 2.5871)" class="st47" cx="37.59" cy="39.499" rx="0.384" ry="0.288"/>
			<g>
				<path class="st47" d="M36.918,39.494c0.003,0.072,0.019,0.143,0.041,0.217c0.008,0.027,0.03,0.065,0,0.081
					c-0.003,0.001-0.357,0.199-0.398,0.222c-0.039,0.023-0.078,0.054-0.12,0.011c-0.05-0.05-0.063-0.13-0.072-0.185
					c-0.012-0.067-0.021-0.125,0.049-0.162c0.137-0.071,0.275-0.141,0.41-0.214c0.005-0.004,0.014-0.006,0.023-0.007
					C36.881,39.454,36.917,39.463,36.918,39.494z"/>
				<path class="st52" d="M36.865,39.549c0.002,0.057,0.014,0.113,0.032,0.171c0.007,0.021,0.024,0.05,0,0.064
					c-0.002,0-0.282,0.157-0.313,0.175c-0.031,0.017-0.063,0.042-0.095,0.008c-0.039-0.039-0.049-0.101-0.057-0.146
					c-0.01-0.055-0.016-0.101,0.039-0.129c0.108-0.056,0.216-0.111,0.323-0.168c0.005-0.002,0.012-0.004,0.019-0.005
					C36.836,39.516,36.865,39.523,36.865,39.549z"/>
			</g>
			<g>
				<path class="st47" d="M37.418,39.996c-0.091-0.022-0.176-0.051-0.264-0.088c-0.031-0.014-0.073-0.04-0.103-0.022
					c-0.002,0.001-0.347,0.208-0.388,0.231s-0.089,0.043-0.046,0.085c0.052,0.049,0.148,0.08,0.217,0.102
					c0.084,0.028,0.154,0.05,0.219,0.008c0.126-0.083,0.251-0.164,0.38-0.244c0.007-0.003,0.011-0.008,0.015-0.015
					C37.459,40.033,37.456,40.003,37.418,39.996z"/>
				<path class="st53" d="M37.335,40.019c-0.071-0.016-0.139-0.041-0.208-0.069c-0.026-0.011-0.058-0.032-0.081-0.018
					c-0.001,0.002-0.275,0.165-0.306,0.183c-0.031,0.019-0.069,0.036-0.035,0.068c0.041,0.039,0.117,0.062,0.171,0.08
					c0.066,0.021,0.122,0.037,0.173,0.005c0.099-0.065,0.197-0.13,0.299-0.192c0.005-0.003,0.009-0.007,0.012-0.012
					C37.368,40.048,37.367,40.025,37.335,40.019z"/>
			</g>
		</g>
	</g>
</g>
<g>
	<ellipse class="st54" cx="22.505" cy="32.061" rx="3.921" ry="1.852"/>
	<g>
		<polygon class="st55" points="22.066,28.413 19.888,29.494 19.888,31.426 22.066,30.489 		"/>
		<polygon class="st56" points="22.066,28.413 24.245,29.494 24.245,31.426 22.066,30.489 		"/>
		<path class="st57" d="M19.887,29.351l2.179,1.081l2.179-1.081l-2.179-1.081L19.887,29.351z M22.066,30.287l-1.889-0.937
			l1.889-0.937l1.889,0.937L22.066,30.287z"/>
		<polygon class="st55" points="24.245,29.35 22.066,30.431 22.066,32.507 24.245,31.426 		"/>
		<polygon class="st56" points="19.888,29.35 19.888,31.426 22.066,32.507 22.066,30.795 24.245,29.715 24.245,29.35 22.066,30.431 
					"/>
		<g>
			<path class="st58" d="M23.979,27.337v2.008c0,0.023,0.038,0.041,0.084,0.041s0.084-0.018,0.084-0.041v-2.008
				c0,0.023-0.038,0.041-0.084,0.041S23.98,27.36,23.979,27.337z"/>
			<path class="st58" d="M21.996,28.324v2.008c0,0.023,0.038,0.041,0.084,0.041s0.084-0.018,0.084-0.041v-2.008
				c0,0.023-0.038,0.041-0.084,0.041S21.996,28.347,21.996,28.324z"/>
			<path class="st58" d="M19.985,27.337v2.008c0,0.023,0.038,0.041,0.084,0.041s0.084-0.018,0.084-0.041v-2.008
				c0,0.023-0.038,0.041-0.084,0.041S19.985,27.36,19.985,27.337z"/>
		</g>
		<g>
			<g>
				<path class="st59" d="M15.921,20.509c0,1.607,1.049,3.602,2.363,5.182c-0.467-1.553-0.722-3.207-0.737-4.528
					c-0.642-0.24-1.185-0.534-1.615-0.867C15.929,20.368,15.92,20.437,15.921,20.509z"/>
				<path class="st59" d="M26.75,21.163c-0.015,1.321-0.27,2.976-0.737,4.528c1.313-1.58,2.363-3.576,2.363-5.182
					c0-0.072-0.009-0.142-0.012-0.213C27.934,20.629,27.391,20.923,26.75,21.163z"/>
				<path class="st59" d="M22.97,21.882c-0.055,2.35-0.238,5.192-0.519,6.452c0.409-0.073,0.869-0.283,1.35-0.599
					c0.923-1.512,1.506-4.099,1.664-6.192C24.702,21.72,23.862,21.837,22.97,21.882z"/>
				<path class="st59" d="M21.325,21.881c-0.891-0.045-1.732-0.162-2.495-0.339c0.159,2.093,0.741,4.681,1.664,6.192
					c0.481,0.316,0.94,0.527,1.35,0.599C21.563,27.073,21.38,24.232,21.325,21.881z"/>
			</g>
			<g>
				<path class="st60" d="M17.547,21.164c0.015,1.321,0.27,2.976,0.737,4.528c0.701,0.844,1.476,1.561,2.21,2.043
					c-0.923-1.512-1.506-4.099-1.664-6.192C18.372,21.437,17.941,21.311,17.547,21.164z"/>
				<path class="st60" d="M25.466,21.542c-0.159,2.093-0.741,4.681-1.664,6.192c0.733-0.482,1.508-1.199,2.21-2.043
					c0.467-1.552,0.722-3.207,0.737-4.528C26.354,21.311,25.923,21.437,25.466,21.542z"/>
				<path class="st60" d="M22.148,21.904c-0.279,0-0.552-0.008-0.823-0.022c0.055,2.35,0.238,5.192,0.519,6.452
					c0.104,0.018,0.208,0.038,0.304,0.038s0.201-0.02,0.304-0.038c0.28-1.26,0.463-4.102,0.519-6.452
					C22.7,21.895,22.427,21.904,22.148,21.904z"/>
			</g>
			<g>
				<path class="st61" d="M17.547,21.164c-0.001-0.041-0.004-0.086-0.004-0.126c0-3.474,2.062-6.029,4.605-6.029
					c-3.361,0-6.093,2.228-6.216,5.287C16.361,20.629,16.905,20.923,17.547,21.164z"/>
				<path class="st61" d="M22.148,15.008c2.543,0,4.605,2.556,4.605,6.029c0,0.04-0.004,0.085-0.004,0.126
					c0.642-0.24,1.185-0.534,1.615-0.867C28.24,17.238,25.509,15.009,22.148,15.008z"/>
				<path class="st61" d="M22.148,15.009c0.465,0,0.842,2.308,0.842,5.444c0,0.438-0.007,0.923-0.019,1.429
					c0.891-0.045,1.732-0.162,2.495-0.339c0.028-0.383,0.046-0.752,0.046-1.091C25.512,17.316,24.006,15.009,22.148,15.009z"/>
				<path class="st61" d="M22.148,15.008c-1.858,0-3.364,2.308-3.364,5.444c0,0.339,0.017,0.708,0.046,1.09
					c0.764,0.177,1.604,0.294,2.495,0.339c-0.012-0.506-0.019-0.991-0.019-1.429C21.306,17.316,21.683,15.009,22.148,15.008z"/>
			</g>
			<g>
				<path class="st62" d="M22.147,15.008c1.858,0,3.364,2.308,3.364,5.444c0,0.34-0.017,0.709-0.046,1.091
					c0.457-0.107,0.889-0.233,1.283-0.38c0.001-0.041,0.004-0.086,0.004-0.126C26.752,17.564,24.691,15.009,22.147,15.008z"/>
				<path class="st62" d="M17.543,21.037c0,0.04,0.004,0.085,0.004,0.126c0.394,0.148,0.826,0.274,1.283,0.38
					c-0.028-0.382-0.046-0.751-0.046-1.09c0-3.137,1.506-5.444,3.364-5.444C19.605,15.009,17.543,17.564,17.543,21.037z"/>
				<path class="st62" d="M22.148,15.008c-0.465,0-0.842,2.308-0.842,5.444c0,0.438,0.007,0.923,0.019,1.429
					c0.27,0.013,0.544,0.022,0.823,0.022s0.552-0.008,0.823-0.022c0.012-0.506,0.019-0.991,0.019-1.429
					C22.99,17.316,22.613,15.009,22.148,15.008z"/>
			</g>
		</g>
	</g>
</g>
</svg>
