<?xml version="1.0" encoding="utf-8"?>
<!-- Generator: Adobe Illustrator 25.4.1, SVG Export Plug-In . SVG Version: 6.00 Build 0)  -->
<svg version="1.1" id="Layer_1" xmlns="http://www.w3.org/2000/svg" xmlns:xlink="http://www.w3.org/1999/xlink" x="0px" y="0px"
	 viewBox="0 0 50 50" style="enable-background:new 0 0 50 50;" xml:space="preserve">
<style type="text/css">
	.st0{fill:none;stroke:#C9C9C9;stroke-width:0.2;stroke-miterlimit:10;}
	.st1{fill:none;stroke:#494949;stroke-width:0.15;stroke-miterlimit:10;}
	.st2{fill:#3A3A3A;}
	.st3{display:none;}
	.st4{display:inline;}
	.st5{fill:#344593;}
	.st6{fill:#3E54A3;}
	.st7{fill:#2E4490;}
	.st8{fill:#122571;}
	.st9{opacity:0.5;fill:#031F60;enable-background:new    ;}
	.st10{fill:#BBDFFF;}
	.st11{fill:#FDB724;}
	.st12{fill:#E7478D;}
	.st13{fill:#BF2878;}
	.st14{fill:#27DEBF;}
	.st15{fill:#1BBC9D;}
	.st16{fill:#A33D64;}
	.st17{fill:#82294D;}
	.st18{fill:#0A4A80;}
	.st19{fill:#F1FCFF;}
	.st20{fill:#D6E6FF;}
	.st21{fill:#CEF3FF;}
	.st22{fill:#606060;}
	.st23{enable-background:new    ;}
	.st24{fill:#F19729;}
	.st25{fill:#FCB040;}
	.st26{fill:#FFCB49;}
	.st27{fill:#2E5677;}
	.st28{fill:#FF51CE;}
	.st29{fill:#EDE6A0;}
	.st30{fill:#FFF7B0;}
	.st31{fill:url(#SVGID_1_);}
	.st32{display:none;fill:url(#SVGID_00000050641553183564651620000015025847081978745276_);}
	.st33{opacity:0.2;}
	.st34{fill:#000202;}
	.st35{fill:#454D58;}
	.st36{fill:#353D47;}
	.st37{fill:#546171;}
	.st38{fill:#A3C4E2;}
	.st39{opacity:0.2;fill:#000202;enable-background:new    ;}
	.st40{fill:#747A7C;}
	.st41{fill:#394149;}
	.st42{fill:#798084;}
	.st43{fill:#BED9ED;}
	.st44{fill:#5D6A77;}
	.st45{display:none;fill:#004D9E;}
	.st46{fill:#6F7B84;}
	.st47{fill:#D6D6D6;}
	.st48{fill:#BFBFBF;}
	.st49{fill:#B2B2B2;}
	.st50{fill:#494949;}
	.st51{fill:#2D2D2D;}
	.st52{fill:#69DB9D;}
	.st53{fill:#006AF1;}
	.st54{opacity:0.24;fill:#000202;}
	.st55{fill:#AE6935;}
	.st56{fill:#8F4B2C;}
	.st57{fill:#DE9966;}
	.st58{fill:#324851;}
	.st59{fill:#00C5FB;}
	.st60{fill:#DCDFFF;}
	.st61{fill:#6AD5FD;}
	.st62{fill:#E3E9FF;}
</style>
<path class="st0" d="M18.774,42.854c1.895,0.271,4.06,0.947,5.685,2.03c1.624,1.083,3.654,1.624,5.549,1.624
	c2.166,0,4.331-0.812,6.091-2.03c0.677-0.541,1.353-1.218,2.166-1.76c1.624-0.947,3.519-1.218,5.279-0.541
	c0.677,0.271,1.489,0.677,1.895,1.353c0.406,0.677,0.677,1.489,0.406,2.166c-0.406,1.083-1.76,1.624-2.978,1.624
	c-0.677,0-1.353-0.135-1.76-0.541c-0.812-0.677-0.812-2.03-0.271-2.978c0.541-0.947,1.489-1.489,2.301-2.166
	c0.812-0.541,1.624-1.083,2.301-1.895c0.677-0.812,1.083-1.76,1.083-2.707c0-1.218-0.947-2.436-2.166-2.842s-2.707,0-3.384,1.083"/>
<path class="st1" d="M18.639,42.718c1.895,0.271,4.06,0.947,5.685,2.03c1.624,1.083,3.654,1.624,5.549,1.624
	c2.166,0,4.331-0.812,6.091-2.03c0.677-0.541,1.353-1.218,2.166-1.76c1.624-0.947,3.519-1.218,5.279-0.541
	c0.677,0.271,1.489,0.677,1.895,1.353c0.406,0.677,0.677,1.489,0.406,2.166c-0.406,1.083-1.76,1.624-2.978,1.624
	c-0.677,0-1.353-0.135-1.76-0.541c-0.812-0.677-0.812-2.03-0.271-2.978c0.541-0.947,1.489-1.489,2.301-2.166
	c0.812-0.541,1.624-1.083,2.301-1.895c0.677-0.812,1.083-1.76,1.083-2.707c0-1.218-0.947-2.436-2.166-2.842
	c-1.218-0.406-2.707,0-3.384,1.083"/>
<path class="st2" d="M19.878,42.797l-1.781-0.485l0.677,0.812l1.14-0.035C19.939,43.031,19.926,42.852,19.878,42.797z"/>
<g id="Example" class="st3">
	<g class="st4">
		<g id="XMLID_4903_">
			<path id="XMLID_4905_" class="st5" d="M45.3,33.2v-4.6l0,0c0-0.9-0.6-1.8-1.7-2.4c-2.3-1.3-6-1.3-8.4,0c-1.2,0.7-1.7,1.6-1.7,2.4
				l0,0v4.5c0,0.9,0.6,1.8,1.7,2.4c2.3,1.3,6,1.3,8.4,0C44.8,34.9,45.3,34.1,45.3,33.2L45.3,33.2L45.3,33.2L45.3,33.2z"/>
			<path id="XMLID_4904_" class="st5" d="M45.3,33.2v-4.6l0,0c0-0.9-0.6-1.8-1.7-2.4c-2.3-1.3-6-1.3-8.4,0c-1.2,0.7-1.7,1.6-1.7,2.4
				l0,0v4.5c0,0.9,0.6,1.8,1.7,2.4c2.3,1.3,6,1.3,8.4,0C44.8,34.9,45.3,34.1,45.3,33.2L45.3,33.2L45.3,33.2L45.3,33.2z"/>
		</g>
		<polygon id="XMLID_4900_" class="st6" points="39.4,23 29.7,28.6 39.4,34.2 49.2,28.6 		"/>
		<path id="XMLID_4899_" class="st7" d="M44.3,31.4l-4.8-2.7c-0.1,0-0.2,0-0.2,0.1s0,0.2,0.1,0.2l4.6,2.6L44.3,31.4z"/>
		<polygon id="XMLID_4896_" class="st8" points="29.7,28.6 29.7,29 39.4,34.6 39.4,34.2 		"/>
		<polygon id="XMLID_4883_" class="st7" points="49.2,28.6 49.2,29 39.4,34.6 39.4,34.2 		"/>
		<polygon id="XMLID_4876_" class="st9" points="33.5,31.2 39.4,35.2 45.3,31.2 39.4,34.6 		"/>
		<g id="XMLID_4823_">
			<path id="XMLID_4835_" class="st10" d="M44.7,36.2c-0.1,0-0.2-0.1-0.2-0.2v-4c0-0.2-0.1-0.4-0.3-0.4l-4.9-2.8
				c-0.1,0-0.1-0.2-0.1-0.2c0-0.1,0.2-0.1,0.2-0.1l4.9,2.8c0.3,0.2,0.4,0.4,0.4,0.7v4C44.8,36.1,44.7,36.2,44.7,36.2z"/>
		</g>
		<path class="st11" d="M45.3,39.3L45,36.6c0.1-0.1,0.1-0.2,0-0.2l0,0l0,0l0,0v-0.1l0,0l0,0l0,0c0-0.2-0.2-0.4-0.4-0.4
			c0,0,0,0-0.1,0l0,0l0,0c0,0,0,0-0.1,0c0,0,0,0-0.1,0c0,0,0,0-0.1,0c0,0,0,0,0,0.1l0,0v0.1c0,0.1,0,0.2,0.1,0.3l0,0
			c-0.1,0.1,0,0.2,0,0.2L44,39.3c0,0.1,0.1,0.2,0.3,0.3l0,0h0.1l0,0c0.1,0,0.2,0.1,0.3,0.1l0,0l0,0l0,0l0,0l0,0c0.1,0,0.2,0,0.3-0.1
			l0,0h0.1l0,0C45.3,39.5,45.3,39.4,45.3,39.3z"/>
	</g>
	<g id="XMLID_3738_" class="st4">
		<path id="XMLID_4404_" class="st12" d="M12.4,36.1c1.1-0.8,1.8-2.7,1.7-4c-0.1-1.4-1.2-2-1.7-2.3l0,0c-1.1-0.6-2.8-0.6-3.9,0l0,0
			C8,30.1,7,30.7,6.8,32.1c-0.1,1.3,0.6,3.2,1.7,4l0,0c0.1,0,0.1,0.1,0.2,0.1c1,0.6,2.6,0.6,3.6,0l0,0
			C12.3,36.2,12.4,36.1,12.4,36.1L12.4,36.1z"/>
		<path id="XMLID_4395_" class="st13" d="M9.9,30.8c-0.3,0.2-0.3,0.4,0,0.6s0.8,0.2,1.1,0s0.3-0.4,0-0.6
			C10.7,30.6,10.2,30.6,9.9,30.8z"/>
		<g id="XMLID_4426_">
			<path id="XMLID_2198_" class="st14" d="M10.5,31.2c0,0-0.9,0-1.4-0.7s0-1.9,0-1.9s1.1,0.1,1.7,1C11.2,30.4,10.5,31.2,10.5,31.2z"
				/>
			<path id="XMLID_4431_" class="st15" d="M9,30.5c0.5,0.7,1.4,0.7,1.4,0.7C10.3,29.6,9,28.6,9,28.6S8.5,29.8,9,30.5z"/>
		</g>
		<path id="XMLID_4403_" class="st16" d="M10.5,31.2c0,0,0-1.3,0.7-1.9s1.2-0.6,1.2-0.6c0.4,0,0.9,0.4,0.7,0.4c0,0-0.9,0-1.5,0.5
			s-0.9,1.5-0.9,1.6c0,0,0,0.1-0.1,0.1C10.5,31.3,10.5,31.2,10.5,31.2z"/>
		<path id="XMLID_4496_" class="st17" d="M12.4,28.7c-0.1,0-0.1,0.1,0.2,0.3c0.2,0.1,0.4,0.2,0.5,0.2l0,0
			C13.3,29,12.8,28.7,12.4,28.7z"/>
	</g>
	<g class="st4">
		<g>
			<path class="st18" d="M26,28.8L26,28.8c-1,0.6-1.9,1-2.8,1.2l0,0c0,0,0,0-0.1,0l-0.5,0.2h-0.1c-0.1,0-0.2,0.1-0.3,0.1h-0.1
				c-0.1,0-0.2,0.1-0.2,0.1h-0.1c-0.5,0.2-0.9,0.4-1.4,0.7c-0.1,0.1-0.2,0.1-0.3,0.2L20,31.4c-0.4,0.3-2,1.5-2.9,2.5l-0.6,0.6
				L16,34.6c-1,0.2-2,0.5-3,1.1c-0.1,0.1-0.2,0.1-0.3,0.2c-0.3,0.2-0.5,0.3-0.8,0.5l0,0l-0.1,0.1c-0.1,0.1-0.2,0.1-0.3,0.2l0,0l0,0
				c-0.4,0.3-0.9,0.7-1.3,1.1c-0.1,0.1-0.2,0.2-0.3,0.3c-0.3,0.3-0.7,0.6-1,0.9H8.8c-0.3,0.3-0.7,0.5-1,0.8
				c-0.2,0.2-0.5,0.3-0.7,0.5H7l13.7,8.3h0.1c0.8-0.5,1.7-1.2,2.5-1.9c0.5-0.5,1.1-0.9,1.7-1.4c1.2-0.9,2.3-1.5,3.2-1.8
				c0.7-0.3,1.4-0.5,2.1-0.6l0.5-0.6c0.7-0.7,1.5-1.3,2.4-1.8c1.5-1,3.2-1.8,4.9-2.5c0.6-0.2,1.2-0.5,1.6-0.7l0.2-0.1L26,28.8z"/>
			<g>
				<g>
					<g>
						<path class="st19" d="M39.1,36.7c-0.5,0.3-0.7,0.4-1.2,0.6c-0.3,0.1-0.5,0.2-0.8,0.3c-0.2,0.1-0.3,0.1-0.5,0.1
							c-0.7,0.2-1.4,0.4-2,0.8c-0.2,0.1-0.4,0.2-0.6,0.3c-1.3,0.8-2.6,2-3.9,3.5l-2.5-1.5l-11-6.7c1.3-1.5,2.6-2.7,3.9-3.5
							c0.2-0.1,0.4-0.2,0.6-0.3c0.7-0.4,1.4-0.6,2-0.8c0.2,0,0.3-0.1,0.5-0.1c0.3-0.1,0.5-0.2,0.8-0.3c0.5-0.2,0.7-0.3,1.2-0.6
							L39.1,36.7z"/>
						<g>
							<path class="st19" d="M30.1,42.3c-1.3,0.1-2.6,0.5-3.9,1.3c-0.2,0.1-0.4,0.2-0.6,0.4c-0.7,0.5-1.4,1-2,1.7
								c-0.2,0.2-0.3,0.3-0.5,0.4c-0.3,0.3-0.6,0.5-0.9,0.7c-0.5,0.4-0.8,0.6-1.3,0.9L7.5,39.5C8,39.2,8.3,39,8.8,38.6
								c0.3-0.2,0.6-0.5,0.9-0.7c0.2-0.1,0.3-0.3,0.5-0.4c0.7-0.6,1.4-1.2,2-1.7c0.2-0.1,0.4-0.3,0.6-0.4c1.3-0.8,2.6-1.2,3.9-1.3
								l11,6.7L30.1,42.3z"/>
						</g>
					</g>
					<polygon class="st20" points="7.5,39.5 7.3,40.3 20.7,48.5 20.9,47.7 					"/>
					<path class="st21" d="M39.4,37.1c-0.9,0.6-1.8,1-2.7,1.2c0,0,0,0-0.1,0s-0.2,0-0.3,0.1c-0.1,0-0.2,0.1-0.3,0.1
						s-0.2,0.1-0.3,0.1c-0.6,0.2-1.2,0.5-1.8,0.9c-0.1,0.1-0.2,0.1-0.3,0.2c-1,0.7-2,1.5-3,2.5L30,42.8l-0.6,0.1c-1,0.2-2,0.5-3,1.1
						c-0.1,0.1-0.2,0.1-0.3,0.2c-0.3,0.2-0.5,0.3-0.8,0.5c-0.6,0.4-1.1,0.9-1.7,1.4c-0.1,0.1-0.2,0.2-0.3,0.3
						c-0.9,0.9-1.8,1.6-2.7,2.2l0.2-0.8c0.5-0.3,0.8-0.5,1.3-0.9c0.3-0.2,0.6-0.5,0.9-0.7c0.2-0.1,0.3-0.3,0.5-0.4
						c0.7-0.6,1.4-1.2,2-1.7c0.2-0.1,0.4-0.3,0.6-0.4c1.3-0.8,2.6-1.2,3.9-1.3c1.3-1.5,2.6-2.7,3.9-3.5c0.2-0.1,0.4-0.2,0.6-0.3
						c0.7-0.4,1.4-0.6,2-0.8c0.2,0,0.3-0.1,0.5-0.1c0.3-0.1,0.5-0.2,0.8-0.3c0.5-0.2,0.7-0.3,1.2-0.6L39.4,37.1z"/>
				</g>
			</g>
			<g>
				<path class="st22" d="M17.8,34.6C17.9,34.6,17.9,34.6,17.8,34.6c1.2-1.4,2.5-2.5,3.7-3.2c0.2-0.1,0.4-0.2,0.5-0.3
					c0.7-0.3,1.3-0.6,2-0.8c0.2,0,0.3-0.1,0.5-0.1c0.3-0.1,0.5-0.2,0.8-0.3c0.4-0.2,0.7-0.3,1.1-0.5c0,0,0,0,0-0.1s0,0-0.1,0
					c-0.4,0.2-0.6,0.3-1,0.5c-0.3,0.1-0.5,0.2-0.8,0.3c-0.2,0.1-0.3,0.1-0.5,0.1c-0.7,0.2-1.3,0.4-2,0.8c-0.2,0.1-0.4,0.2-0.6,0.3
					C20.3,32.1,19,33.2,17.8,34.6C17.8,34.5,17.8,34.6,17.8,34.6L17.8,34.6z"/>
				<path class="st22" d="M25.4,30.6c-0.2,0.1-0.3,0.1-0.5,0.1c-0.7,0.2-1.3,0.4-2,0.8c-0.2,0.1-0.4,0.2-0.6,0.3
					c-1.2,0.7-2.5,1.8-3.7,3.2v0.1l0,0l0,0c1.2-1.4,2.5-2.5,3.7-3.2c0.2-0.1,0.4-0.2,0.6-0.3c0.7-0.4,1.3-0.6,2-0.8
					C25.1,30.8,25.3,30.7,25.4,30.6c0.3,0,0.6-0.1,0.8-0.2c0.4-0.2,0.6-0.3,1-0.5c0,0,0,0,0-0.1c0,0,0,0-0.1,0
					c-0.4,0.2-0.6,0.3-1,0.5C25.9,30.4,25.7,30.5,25.4,30.6z"/>
				<path class="st22" d="M26.2,31.1c-0.2,0.1-0.3,0.1-0.5,0.1c-0.7,0.2-1.3,0.4-2,0.8c-0.2,0.1-0.4,0.2-0.6,0.3
					c-1.2,0.7-2.5,1.8-3.7,3.2v0.1l0,0l0,0c1.2-1.4,2.5-2.5,3.7-3.2c0.2-0.1,0.4-0.2,0.6-0.3c0.7-0.4,1.4-0.6,2-0.8
					C25.9,31.3,26.1,31.2,26.2,31.1c0.3,0,0.6-0.1,0.8-0.2c0.4-0.2,0.6-0.3,1-0.5c0,0,0,0,0-0.1c0,0,0,0-0.1,0
					c-0.4,0.2-0.6,0.3-1,0.5C26.8,30.9,26.5,31,26.2,31.1z"/>
				<path class="st22" d="M27.1,31.5c-0.2,0.1-0.3,0.1-0.5,0.1c-0.7,0.2-1.3,0.4-2,0.8c-0.2,0.1-0.4,0.2-0.6,0.3
					c-1.2,0.7-2.5,1.8-3.7,3.2V36l0,0l0,0c1.2-1.4,2.5-2.5,3.7-3.2c0.2-0.1,0.4-0.2,0.6-0.3c0.7-0.4,1.4-0.6,2-0.8
					C26.7,31.7,26.9,31.7,27.1,31.5c0.3,0,0.6-0.1,0.8-0.2c0.4-0.2,0.6-0.3,1-0.5c0,0,0,0,0-0.1c0,0,0,0-0.1,0
					c-0.4,0.2-0.6,0.3-1,0.5C27.6,31.4,27.3,31.5,27.1,31.5z"/>
				<path class="st22" d="M27.9,32c-0.2,0.1-0.3,0.1-0.5,0.1c-0.7,0.2-1.4,0.4-2,0.8c-0.2,0.1-0.4,0.2-0.6,0.3
					c-1.2,0.7-2.5,1.9-3.7,3.2v0.1l0,0l0,0c1.2-1.4,2.5-2.5,3.7-3.2c0.2-0.1,0.4-0.2,0.6-0.3c0.7-0.4,1.4-0.6,2-0.8
					C27.6,32.2,27.8,32.2,27.9,32c0.3,0,0.6-0.1,0.8-0.2c0.4-0.2,0.6-0.3,1-0.5c0,0,0,0,0-0.1c0,0,0,0-0.1,0c-0.4,0.2-0.6,0.3-1,0.5
					C28.4,31.8,28.1,31.9,27.9,32z"/>
				<path class="st22" d="M28.7,32.5c-0.2,0.1-0.3,0.1-0.5,0.1c-0.7,0.2-1.4,0.4-2,0.8c-0.2,0.1-0.4,0.2-0.6,0.3
					c-1.2,0.7-2.5,1.9-3.7,3.2V37l0,0l0,0c1.2-1.4,2.5-2.5,3.7-3.2c0.2-0.1,0.4-0.2,0.6-0.3c0.7-0.4,1.4-0.6,2-0.8
					C28.4,32.7,28.6,32.6,28.7,32.5c0.3,0,0.6-0.1,0.8-0.2c0.4-0.2,0.6-0.3,1-0.5c0,0,0,0,0-0.1c0,0,0,0-0.1,0
					c-0.3,0.2-0.6,0.3-0.9,0.5C29.2,32.3,29,32.4,28.7,32.5z"/>
				<path class="st22" d="M29.6,33c-0.2,0.1-0.3,0.1-0.5,0.1c-0.7,0.2-1.4,0.4-2.1,0.8c-0.2,0.1-0.4,0.2-0.6,0.3
					c-1.2,0.7-2.5,1.9-3.8,3.3v0.1l0,0l0,0c1.2-1.4,2.5-2.5,3.7-3.2c0.2-0.1,0.4-0.2,0.6-0.3c0.7-0.4,1.4-0.6,2-0.8
					C29.2,33.2,29.4,33.1,29.6,33c0.3,0,0.6-0.1,0.8-0.2c0.4-0.2,0.6-0.3,0.9-0.5c0,0,0,0,0-0.1c0,0,0,0-0.1,0
					c-0.3,0.2-0.5,0.3-0.9,0.4C30.1,32.8,29.8,32.9,29.6,33z"/>
				<path class="st22" d="M30.4,33.5c-0.2,0.1-0.3,0.1-0.5,0.1c-0.7,0.2-1.4,0.4-2.1,0.8c-0.2,0.1-0.4,0.2-0.6,0.3
					c-1.2,0.7-2.5,1.9-3.8,3.3v0.1l0,0l0,0c1.2-1.4,2.5-2.5,3.7-3.2c0.2-0.1,0.4-0.2,0.6-0.3c0.7-0.4,1.4-0.6,2-0.8
					C30.1,33.7,30.2,33.6,30.4,33.5c0.3,0,0.5-0.1,0.8-0.2c0.4-0.2,0.6-0.3,0.9-0.4c0,0,0,0,0-0.1c0,0,0,0-0.1,0
					c-0.3,0.2-0.5,0.3-0.9,0.4C30.9,33.3,30.6,33.4,30.4,33.5z"/>
				<path class="st22" d="M31.2,33.9C31,34,30.9,34,30.7,34.1c-0.7,0.2-1.4,0.4-2.1,0.8c-0.2,0.1-0.4,0.2-0.6,0.3
					c-1.2,0.7-2.5,1.9-3.8,3.3v0.1l0,0l0,0c1.2-1.4,2.5-2.5,3.8-3.3c0.2-0.1,0.4-0.2,0.6-0.3c0.7-0.4,1.4-0.6,2-0.8
					C30.9,34.1,31.1,34.1,31.2,33.9c0.3,0,0.5-0.1,0.8-0.2c0.4-0.2,0.6-0.2,0.9-0.4c0,0,0,0,0-0.1c0,0,0,0-0.1,0
					c-0.3,0.2-0.5,0.3-0.9,0.4C31.7,33.8,31.5,33.9,31.2,33.9z"/>
				<path class="st22" d="M32,34.4c-0.2,0.1-0.3,0.1-0.5,0.1c-0.7,0.2-1.4,0.4-2.1,0.8c-0.2,0.1-0.4,0.2-0.6,0.3
					c-1.2,0.7-2.6,1.9-3.8,3.3V39l0,0l0,0c1.2-1.4,2.5-2.5,3.8-3.3c0.2-0.1,0.4-0.2,0.6-0.3c0.7-0.4,1.4-0.6,2-0.8
					C31.7,34.6,31.9,34.6,32,34.4c0.3,0,0.5-0.1,0.8-0.2c0.4-0.2,0.6-0.2,0.9-0.4c0,0,0,0,0-0.1c0,0,0,0-0.1,0
					c-0.3,0.2-0.5,0.3-0.9,0.4C32.6,34.2,32.3,34.3,32,34.4z"/>
				<path class="st22" d="M32.9,34.9C32.7,35,32.6,35,32.4,35c-0.7,0.2-1.4,0.4-2.1,0.8c-0.2,0.1-0.4,0.2-0.6,0.3
					c-1.2,0.8-2.6,1.9-3.8,3.3v0.1l0,0l0,0c1.2-1.4,2.5-2.5,3.8-3.3c0.2-0.1,0.4-0.2,0.6-0.3c0.7-0.4,1.4-0.6,2.1-0.8
					C32.6,35.1,32.7,35,32.9,34.9c0.3,0,0.5-0.1,0.8-0.2c0.3-0.1,0.6-0.2,0.9-0.4c0,0,0,0,0-0.1c0,0,0,0-0.1,0
					c-0.3,0.2-0.5,0.3-0.8,0.4C33.4,34.7,33.1,34.8,32.9,34.9z"/>
				<path class="st22" d="M33.7,35.4c-0.2,0.1-0.3,0.1-0.5,0.1c-0.7,0.2-1.4,0.4-2.1,0.8c-0.2,0.1-0.4,0.2-0.6,0.3
					c-1.2,0.8-2.6,1.9-3.8,3.3V40l0,0l0,0c1.2-1.4,2.6-2.5,3.8-3.3c0.2-0.1,0.4-0.2,0.6-0.3c0.7-0.4,1.4-0.6,2.1-0.8
					C33.4,35.6,33.6,35.5,33.7,35.4c0.3,0,0.5-0.1,0.8-0.2c0.3-0.1,0.5-0.2,0.8-0.4c0,0,0,0,0-0.1c0,0,0,0-0.1,0
					c-0.3,0.2-0.5,0.3-0.8,0.4C34.2,35.2,34,35.3,33.7,35.4z"/>
				<path class="st22" d="M34.5,35.8c-0.2,0.1-0.3,0.1-0.5,0.1c-0.7,0.2-1.4,0.4-2.1,0.8c-0.2,0.1-0.4,0.2-0.6,0.3
					c-1.3,0.8-2.6,1.9-3.8,3.3v0.1l0,0l0,0c1.2-1.4,2.6-2.6,3.8-3.3c0.2-0.1,0.4-0.2,0.6-0.3c0.7-0.4,1.4-0.6,2.1-0.8
					C34.2,36,34.4,36,34.5,35.8c0.3,0,0.5-0.1,0.8-0.2c0.3-0.1,0.5-0.2,0.8-0.4c0,0,0,0,0-0.1c0,0,0,0-0.1,0
					c-0.3,0.2-0.5,0.2-0.8,0.4C35,35.7,34.8,35.8,34.5,35.8z"/>
				<path class="st22" d="M35.4,36.3c-0.2,0.1-0.3,0.1-0.5,0.1c-0.7,0.2-1.4,0.4-2.1,0.8c-0.2,0.1-0.4,0.2-0.6,0.3
					c-1.3,0.8-2.6,1.9-3.8,3.3v0.1l0,0l0,0c1.3-1.4,2.6-2.6,3.8-3.3c0.2-0.1,0.4-0.2,0.6-0.3c0.7-0.4,1.4-0.6,2.1-0.8
					C35.1,36.5,35.2,36.5,35.4,36.3c0.3,0,0.5-0.1,0.8-0.2c0.3-0.1,0.5-0.2,0.8-0.4c0,0,0,0,0-0.1c0,0,0,0-0.1,0
					c-0.2,0.1-0.4,0.2-0.8,0.4C35.9,36.2,35.6,36.2,35.4,36.3z"/>
				<path class="st22" d="M37.7,36.2c-0.3,0.1-0.5,0.2-0.8,0.4c-0.3,0.1-0.5,0.2-0.8,0.3C35.9,37,35.8,37,35.6,37
					c-0.7,0.2-1.4,0.4-2.1,0.8c-0.2,0.1-0.4,0.2-0.6,0.3c-1.3,0.8-2.6,1.9-3.9,3.3v0.1l0,0l0,0c1.3-1.4,2.6-2.6,3.8-3.3
					c0.2-0.1,0.4-0.2,0.6-0.3c0.7-0.4,1.4-0.6,2.1-0.8c0.2,0,0.3-0.1,0.5-0.1c0.2-0.1,0.5-0.2,0.8-0.3
					C37.3,36.5,37.5,36.4,37.7,36.2C37.8,36.3,37.8,36.2,37.7,36.2C37.8,36.2,37.7,36.2,37.7,36.2z"/>
				<path class="st22" d="M10.6,38.6c0.2-0.1,0.3-0.3,0.5-0.4c0.7-0.6,1.3-1.2,2-1.7c0.2-0.1,0.4-0.2,0.6-0.4
					c1.2-0.7,2.5-1.2,3.7-1.3c0,0,0,0,0-0.1c0,0,0,0-0.1,0c-1.2,0.1-2.5,0.5-3.7,1.3c-0.2,0.1-0.4,0.2-0.6,0.4c-0.7,0.5-1.4,1-2,1.7
					C10.9,38.3,10.7,38.4,10.6,38.6c-0.4,0.2-0.7,0.4-0.9,0.7c-0.4,0.3-0.7,0.5-1,0.7c0,0,0,0,0,0.1l0,0l0,0c0.3-0.2,0.6-0.4,1-0.7
					S10.3,38.9,10.6,38.6z"/>
				<path class="st22" d="M11.5,39.1c0.2-0.1,0.3-0.3,0.5-0.4c0.7-0.6,1.3-1.2,2-1.7c0.2-0.1,0.4-0.2,0.6-0.4
					c1.2-0.7,2.5-1.2,3.7-1.2c0,0,0,0,0-0.1c0,0,0-0.1-0.1,0c-1.2,0.1-2.5,0.5-3.7,1.3c-0.2,0.1-0.4,0.2-0.6,0.4
					c-0.7,0.5-1.4,1-2,1.7C11.7,38.8,11.6,38.9,11.5,39.1c-0.4,0.2-0.7,0.4-0.9,0.7c-0.4,0.3-0.7,0.5-1,0.7c0,0,0,0,0,0.1l0,0l0,0
					c0.3-0.2,0.6-0.4,1-0.7C10.9,39.6,11.2,39.4,11.5,39.1z"/>
				<path class="st22" d="M12.3,39.6c0.2-0.1,0.3-0.3,0.5-0.4c0.7-0.6,1.3-1.2,2-1.7c0.2-0.1,0.4-0.3,0.6-0.4
					c1.2-0.7,2.4-1.2,3.6-1.2c0,0,0,0,0-0.1s0,0-0.1,0c-1.2,0.1-2.5,0.5-3.7,1.3c-0.2,0.1-0.4,0.2-0.6,0.4c-0.7,0.5-1.4,1-2,1.7
					C12.5,39.2,12.4,39.4,12.3,39.6c-0.4,0.2-0.7,0.4-0.9,0.7c-0.4,0.3-0.7,0.5-1,0.7c0,0,0,0,0,0.1l0,0l0,0c0.3-0.2,0.6-0.4,1-0.7
					C11.7,40.1,12,39.9,12.3,39.6z"/>
				<path class="st22" d="M13.1,40.1c0.2-0.1,0.3-0.3,0.5-0.4c0.7-0.6,1.3-1.2,2-1.7c0.2-0.1,0.4-0.3,0.6-0.4
					c1.2-0.7,2.4-1.1,3.6-1.2c0,0,0,0,0-0.1c0,0,0,0-0.1,0c-1.2,0.1-2.4,0.5-3.6,1.3c-0.2,0.1-0.4,0.2-0.6,0.4c-0.7,0.5-1.4,1-2,1.7
					C13.3,39.7,13.2,39.9,13.1,40.1c-0.4,0.2-0.6,0.4-0.9,0.7c-0.4,0.3-0.7,0.5-1,0.7c0,0,0,0,0,0.1l0,0l0,0c0.3-0.2,0.6-0.4,1-0.7
					C12.5,40.6,12.8,40.4,13.1,40.1z"/>
				<path class="st22" d="M13.9,40.6c0.2-0.1,0.3-0.3,0.5-0.4c0.7-0.6,1.3-1.2,2-1.7c0.2-0.1,0.4-0.3,0.6-0.4
					c1.2-0.7,2.4-1.1,3.6-1.2c0,0,0,0,0-0.1c0,0,0,0-0.1,0c-1.2,0.1-2.4,0.5-3.6,1.3c-0.2,0.1-0.4,0.2-0.6,0.4c-0.7,0.5-1.4,1-2,1.7
					C14.2,40.2,14,40.4,13.9,40.6c-0.4,0.2-0.6,0.4-0.9,0.7c-0.4,0.3-0.7,0.5-1,0.7c0,0,0,0,0,0.1l0,0l0,0c0.3-0.2,0.6-0.4,1-0.7
					C13.3,41.1,13.6,40.8,13.9,40.6z"/>
				<path class="st22" d="M14.7,41.1c0.2-0.1,0.3-0.3,0.5-0.4c0.7-0.6,1.3-1.2,2-1.7c0.2-0.1,0.4-0.3,0.6-0.4
					c1.2-0.7,2.4-1.1,3.5-1.2c0,0,0,0,0-0.1c0,0,0,0-0.1,0c-1.2,0.1-2.4,0.6-3.6,1.3c-0.2,0.1-0.4,0.2-0.6,0.4c-0.7,0.5-1.4,1-2,1.7
					C15,40.7,14.8,40.8,14.7,41.1c-0.4,0.2-0.6,0.4-0.9,0.7c-0.4,0.3-0.7,0.5-1,0.7c0,0,0,0,0,0.1l0,0l0,0c0.3-0.2,0.6-0.4,1-0.7
					S14.4,41.3,14.7,41.1z"/>
				<path class="st22" d="M15.6,41.5c0.2-0.1,0.3-0.3,0.5-0.4c0.7-0.6,1.3-1.2,2-1.7c0.2-0.1,0.4-0.3,0.6-0.4
					c1.1-0.7,2.4-1.1,3.5-1.2c0,0,0,0,0-0.1s0,0-0.1,0c-1.2,0.1-2.4,0.6-3.5,1.3c-0.2,0.1-0.4,0.2-0.6,0.4c-0.7,0.5-1.4,1-2,1.7
					C15.8,41.2,15.6,41.3,15.6,41.5c-0.4,0.2-0.6,0.4-0.9,0.7c-0.4,0.3-0.7,0.5-1,0.7c0,0,0,0,0,0.1l0,0l0,0c0.3-0.2,0.6-0.4,1-0.7
					C15,42.1,15.3,41.8,15.6,41.5z"/>
				<path class="st22" d="M16.4,42c0.2-0.1,0.3-0.3,0.5-0.4c0.7-0.6,1.3-1.2,2-1.7c0.2-0.1,0.4-0.3,0.6-0.4c1.1-0.7,2.3-1.1,3.5-1.2
					c0,0,0,0,0-0.1s0,0-0.1,0c-1.2,0.1-2.4,0.6-3.5,1.3c-0.2,0.1-0.4,0.2-0.6,0.4c-0.7,0.5-1.4,1-2.1,1.7
					C16.6,41.7,16.5,41.8,16.4,42c-0.4,0.2-0.6,0.4-0.9,0.7c-0.4,0.3-0.7,0.5-1,0.7c0,0,0,0,0,0.1l0,0l0,0c0.3-0.2,0.6-0.4,1.1-0.7
					C15.8,42.5,16.1,42.3,16.4,42z"/>
				<path class="st22" d="M17.2,42.5c0.2-0.1,0.3-0.3,0.5-0.4c0.7-0.6,1.4-1.2,2-1.7c0.2-0.1,0.4-0.3,0.6-0.4
					c1.1-0.7,2.3-1.1,3.4-1.2c0,0,0,0,0-0.1s0,0-0.1,0c-1.1,0.1-2.3,0.6-3.5,1.3c-0.2,0.1-0.4,0.2-0.6,0.4c-0.7,0.5-1.4,1-2.1,1.7
					C17.4,42.2,17.3,42.3,17.2,42.5c-0.4,0.2-0.6,0.4-0.9,0.6c-0.4,0.3-0.7,0.5-1.1,0.7c0,0,0,0,0,0.1l0,0l0,0
					c0.3-0.2,0.6-0.4,1.1-0.8C16.6,43,16.9,42.8,17.2,42.5z"/>
				<path class="st22" d="M18,43c0.2-0.1,0.3-0.3,0.5-0.4c0.7-0.6,1.4-1.2,2-1.7c0.2-0.1,0.4-0.3,0.6-0.4c1.1-0.7,2.3-1.1,3.4-1.2
					c0,0,0,0,0-0.1s0,0-0.1,0c-1.1,0.1-2.3,0.6-3.5,1.3c-0.2,0.1-0.4,0.2-0.6,0.4c-0.7,0.5-1.4,1.1-2.1,1.7
					C18.3,42.6,18.1,42.8,18,43c-0.4,0.2-0.6,0.4-0.9,0.6c-0.4,0.3-0.7,0.6-1.1,0.8c0,0,0,0,0,0.1l0,0l0,0c0.3-0.2,0.7-0.4,1.1-0.8
					C17.4,43.5,17.7,43.3,18,43z"/>
				<path class="st22" d="M18.8,43.5c0.2-0.1,0.3-0.3,0.5-0.4c0.7-0.6,1.4-1.2,2-1.7c0.2-0.1,0.4-0.3,0.6-0.4
					c1.1-0.7,2.3-1.1,3.4-1.2c0,0,0,0,0-0.1c0,0,0,0-0.1,0c-1.1,0.1-2.3,0.6-3.4,1.3c-0.2,0.1-0.4,0.2-0.6,0.4
					c-0.7,0.5-1.4,1.1-2.1,1.7C19.1,43.1,18.9,43.3,18.8,43.5c-0.4,0.2-0.6,0.4-0.9,0.6c-0.4,0.3-0.7,0.6-1.1,0.8c0,0,0,0,0,0.1l0,0
					l0,0c0.3-0.2,0.7-0.4,1.1-0.8C18.3,44,18.5,43.7,18.8,43.5z"/>
				<path class="st22" d="M19.6,44c0.2-0.1,0.3-0.3,0.5-0.4c0.7-0.6,1.4-1.2,2.1-1.7c0.2-0.1,0.4-0.3,0.6-0.4
					c1.1-0.7,2.3-1.1,3.4-1.2c0,0,0,0,0-0.1c0,0,0,0-0.1,0c-1.1,0.2-2.3,0.6-3.4,1.3c-0.2,0.1-0.4,0.2-0.6,0.4
					c-0.7,0.5-1.4,1.1-2.1,1.7C19.9,43.6,19.7,43.8,19.6,44c-0.4,0.2-0.6,0.4-0.9,0.6c-0.4,0.3-0.8,0.6-1.1,0.8c0,0,0,0,0,0.1l0,0
					l0,0c0.3-0.2,0.7-0.4,1.1-0.8C19.1,44.5,19.4,44.2,19.6,44z"/>
				<path class="st22" d="M20.5,44.5c0.2-0.1,0.3-0.3,0.5-0.4c0.7-0.6,1.4-1.2,2.1-1.7c0.2-0.1,0.4-0.3,0.6-0.4
					c1.1-0.7,2.2-1.1,3.3-1.2c0,0,0,0,0-0.1c0,0,0,0-0.1,0c-1.1,0.2-2.3,0.6-3.4,1.3c-0.2,0.1-0.4,0.2-0.6,0.4
					c-0.7,0.5-1.4,1.1-2.1,1.7C20.7,44.1,20.5,44.2,20.5,44.5c-0.4,0.2-0.6,0.4-0.9,0.6c-0.4,0.3-0.8,0.6-1.1,0.8c0,0,0,0,0,0.1l0,0
					l0,0c0.3-0.2,0.7-0.4,1.1-0.8C19.9,45,20.2,44.7,20.5,44.5z"/>
				<path class="st22" d="M21.3,44.9c0.2-0.1,0.3-0.3,0.5-0.4c0.7-0.7,1.4-1.2,2.1-1.7c0.2-0.1,0.4-0.3,0.6-0.4
					c1.1-0.6,2.2-1.1,3.3-1.2c0,0,0,0,0-0.1c0,0,0,0-0.1,0c-1.1,0.2-2.3,0.6-3.3,1.3c-0.2,0.1-0.4,0.2-0.6,0.4
					c-0.7,0.5-1.4,1.1-2.1,1.7C21.5,44.6,21.4,44.7,21.3,44.9c-0.4,0.2-0.6,0.4-0.9,0.6c-0.4,0.3-0.8,0.6-1.1,0.8c0,0,0,0,0,0.1l0,0
					l0,0c0.4-0.2,0.7-0.4,1.1-0.8C20.7,45.4,21,45.2,21.3,44.9z"/>
				<path class="st22" d="M25.2,42.8c-0.2,0.1-0.4,0.2-0.6,0.4c-0.7,0.5-1.4,1.1-2.1,1.7c-0.2,0.1-0.3,0.3-0.5,0.4
					c-0.3,0.3-0.6,0.5-0.9,0.7c-0.4,0.3-0.8,0.6-1.1,0.8c0,0,0,0,0,0.1l0,0l0,0c0.4-0.2,0.7-0.4,1.1-0.8c0.3-0.2,0.6-0.5,0.9-0.7
					c0.2-0.1,0.3-0.3,0.5-0.4c0.7-0.7,1.4-1.2,2.1-1.7C24.8,43.2,25,43,25.2,42.8c1.1-0.6,2.2-1,3.3-1.2c0,0,0,0,0-0.1
					c0,0,0,0-0.1,0C27.4,41.7,26.2,42.2,25.2,42.8z"/>
			</g>
		</g>
		<g>
			<g>
				<g>
					<g>
						<g class="st23">
							<g>
								<path class="st24" d="M29.1,41.9l-7.9-4.6l-0.1-0.1L29.1,41.9L29.1,41.9z"/>
							</g>
							<g>
								<path class="st25" d="M29.2,41.6c-0.1,0.1-0.1,0.1-0.1,0.2l-7.9-4.6l0.1-0.2L29.2,41.6z"/>
							</g>
							<g>
								<path class="st26" d="M29.4,41.5h-0.1c0,0-0.1,0-0.1,0.1l-8-4.6l0.2-0.1L29.4,41.5z"/>
							</g>
						</g>
					</g>
					<g>
						<polygon class="st27" points="30.3,42.2 30.3,42.3 30.3,42.3 30.3,42.3 30.2,42.3 30.3,42.3 						"/>
					</g>
					<path d="M30.3,42.2L30,42l0,0c0,0,0,0-0.1,0l-0.1,0.1l0,0L30.3,42.2C30.3,42.3,30.3,42.3,30.3,42.2
						C30.3,42.3,30.3,42.3,30.3,42.2z"/>
					<path class="st28" d="M21.7,37h-0.1l-0.1,0.1c0,0.1-0.1,0.1-0.1,0.2v0.1L21,37.1c0,0-0.1,0-0.1-0.1s0-0.1,0.1-0.2
						c0-0.1,0.1-0.1,0.1-0.1h0.1l0,0L21.7,37z"/>
					<path class="st29" d="M29.4,41.5L29.4,41.5L29.4,41.5z"/>
				</g>
				<path class="st30" d="M29.4,41.5L29.4,41.5L29.4,41.5c-0.1,0-0.2,0-0.2,0s0,0,0,0.1l0,0c0,0-0.1,0.1-0.1,0.2l0,0v0.1l0,0
					l0.8,0.3l0,0c0,0,0-0.1,0.1-0.1c0,0,0,0,0.1,0L29.4,41.5z"/>
			</g>
			
				<linearGradient id="SVGID_1_" gradientUnits="userSpaceOnUse" x1="21.7732" y1="-3071.1643" x2="21.5925" y2="-3071.4897" gradientTransform="matrix(1 0 0 -1 0 -3034)">
				<stop  offset="0" style="stop-color:#78ACED"/>
				<stop  offset="1" style="stop-color:#4F7BB3"/>
			</linearGradient>
			<path class="st31" d="M22.1,37.3L22.1,37.3L22.1,37.3L21.7,37l0,0l0,0h-0.1l0,0h-0.1c-0.1,0-0.1,0.1-0.1,0.1
				c0,0.1-0.1,0.1-0.1,0.2c0,0,0,0.1,0.1,0.1h0.1l0,0l0,0l0.3,0.2l0,0l0,0l0.1,0.1l0,0l0,0l0,0c0,0,0,0,0-0.1l0,0v-0.1l0,0l0.1-0.1
				l0,0C22,37.3,22,37.2,22.1,37.3L22.1,37.3L22.1,37.3L22.1,37.3L22.1,37.3z"/>
		</g>
	</g>
</g>
<g id="zSpace">
	
		<radialGradient id="SVGID_00000106831318684588334920000001257897475154526883_" cx="-1047.198" cy="-5904.2788" r="15.9015" gradientTransform="matrix(1.5353 0 0 -0.4819 1632.7632 -2803.772)" gradientUnits="userSpaceOnUse">
		<stop  offset="0.4351" style="stop-color:#B4BCC1"/>
		<stop  offset="0.94" style="stop-color:#ECEEEF;stop-opacity:0"/>
	</radialGradient>
	
		<ellipse style="display:none;fill:url(#SVGID_00000106831318684588334920000001257897475154526883_);" cx="25" cy="41.5" rx="24.4" ry="7.7"/>
	<g id="Laptop">
		<g class="st33">
			<polygon class="st34" points="26.987,25.478 22.449,26.892 10.702,32.808 10.95,33.652 30.284,45.031 41.783,38.272 
				47.367,36.721 			"/>
		</g>
		<g>
			<polygon class="st35" points="41.811,36.813 45.795,22.55 26.46,11.172 26.214,11.172 22.476,25.435 41.565,37.432 			"/>
			<g>
				<polygon class="st36" points="41.565,37.432 30.066,44.191 10.73,32.811 10.73,32.192 				"/>
				<polygon class="st35" points="41.565,37.432 30.066,44.191 30.066,43.572 41.565,36.813 				"/>
				<polygon class="st37" points="41.565,36.813 30.066,43.572 10.73,32.192 22.229,25.435 				"/>
				<polygon class="st36" points="25.299,36.321 21.618,34.154 19.069,35.652 22.752,37.819 				"/>
				<g>
					<polygon class="st35" points="33.719,40.581 39.921,36.936 21.986,26.485 15.784,30.13 					"/>
					<g>
						<path class="st36" d="M22.293,27.93l-1.123-0.659l0.728-0.428l1.123,0.659L22.293,27.93z M21.905,28.159L20.781,27.5
							l-0.728,0.428l1.123,0.659L21.905,28.159z M23.29,28.971l-1.123-0.659l-0.728,0.428l1.123,0.659L23.29,28.971z M24.676,29.785
							l-1.123-0.659l-0.728,0.428l1.123,0.659L24.676,29.785z M26.062,30.598l-1.123-0.659l-0.728,0.428l1.123,0.659L26.062,30.598z
							 M27.448,31.41l-1.123-0.659l-0.728,0.428l1.123,0.659L27.448,31.41z M28.833,32.224l-1.123-0.659l-0.728,0.428l1.123,0.659
							L28.833,32.224z M30.219,33.037l-1.123-0.659l-0.728,0.428l1.123,0.659L30.219,33.037z M31.605,33.849l-1.123-0.659
							l-0.728,0.428l1.123,0.659L31.605,33.849z M32.991,34.663l-1.123-0.659l-0.728,0.428l1.123,0.659L32.991,34.663z
							 M34.377,35.476l-1.123-0.659l-0.728,0.428l1.123,0.659L34.377,35.476z M35.763,36.288l-1.123-0.659l-0.728,0.428l1.123,0.659
							L35.763,36.288z M38.173,37.702l-2.149-1.261l-0.728,0.428l2.149,1.261L38.173,37.702z M35.408,38.008l1.123,0.659
							l0.728-0.428l-1.123-0.659L35.408,38.008z M34.022,37.196l1.123,0.659l0.728-0.428l-1.123-0.659L34.022,37.196z
							 M32.638,36.383l1.123,0.659l0.728-0.428l-1.123-0.659L32.638,36.383z M31.252,35.569l1.123,0.659l0.728-0.428l-1.123-0.659
							L31.252,35.569z M29.866,34.757l1.123,0.659l0.728-0.428l-1.123-0.659L29.866,34.757z M28.48,33.944l1.123,0.659l0.728-0.428
							l-1.123-0.659L28.48,33.944z M27.094,33.13l1.123,0.659l0.728-0.428l-1.123-0.659L27.094,33.13z M25.708,32.318l1.123,0.659
							l0.728-0.428l-1.123-0.659L25.708,32.318z M24.322,31.505l1.123,0.659l0.728-0.428l-1.123-0.659L24.322,31.505z
							 M22.936,30.692l1.123,0.659l0.728-0.428l-1.123-0.659L22.936,30.692z M21.551,29.879l1.123,0.659l0.728-0.428l-1.123-0.659
							L21.551,29.879z M19.139,28.465l2.149,1.261l0.728-0.428l-2.149-1.261L19.139,28.465z M33.588,37.993l2.021,1.186l0.728-0.428
							l-2.021-1.186L33.588,37.993z M32.202,37.18l1.123,0.659l0.728-0.428l-1.123-0.659L32.202,37.18z M30.816,36.368l1.123,0.659
							l0.728-0.428l-1.123-0.659L30.816,36.368z M29.43,35.555l1.123,0.659l0.728-0.428l-1.123-0.659L29.43,35.555z M28.045,34.741
							l1.123,0.659l0.728-0.428l-1.123-0.659L28.045,34.741z M26.659,33.929l1.123,0.659l0.728-0.428l-1.123-0.659L26.659,33.929z
							 M25.273,33.116l1.123,0.659l0.728-0.428l-1.123-0.659L25.273,33.116z M23.887,32.302l1.123,0.659l0.728-0.428l-1.123-0.659
							L23.887,32.302z M22.501,31.49l1.123,0.659l0.728-0.428l-1.123-0.659L22.501,31.49z M21.115,30.677l1.123,0.659l0.728-0.428
							l-1.123-0.659L21.115,30.677z M18.243,28.992l2.611,1.531l0.728-0.428l-2.611-1.531L18.243,28.992z M31.575,37.885l3.12,1.83
							l0.728-0.428l-3.12-1.83L31.575,37.885z M30.241,37.103l1.123,0.659l0.728-0.428l-1.123-0.659L30.241,37.103z M28.856,36.291
							l1.123,0.659l0.728-0.428l-1.123-0.659L28.856,36.291z M27.47,35.477l1.123,0.659l0.728-0.428l-1.123-0.659L27.47,35.477z
							 M26.084,34.664l1.123,0.659l0.728-0.428l-1.123-0.659L26.084,34.664z M24.698,33.852l1.123,0.659l0.728-0.428l-1.123-0.659
							L24.698,33.852z M23.312,33.038l1.123,0.659l0.728-0.428l-1.123-0.659L23.312,33.038z M21.926,32.225l1.123,0.659l0.728-0.428
							l-1.123-0.659L21.926,32.225z M20.54,31.413l1.123,0.659l0.728-0.428l-1.123-0.659L20.54,31.413z M17.33,29.529l2.949,1.73
							l0.728-0.428l-2.949-1.73L17.33,29.529z M32.638,39.582l1.123,0.659l0.728-0.428l-1.123-0.659L32.638,39.582z M31.252,38.769
							l1.123,0.659L33.103,39l-1.123-0.659L31.252,38.769z M29.866,37.957l1.123,0.659l0.728-0.428l-1.123-0.659L29.866,37.957z
							 M28.48,37.143l1.123,0.659l0.728-0.428l-1.123-0.659L28.48,37.143z M20.636,32.542l7.528,4.416l0.728-0.428l-7.528-4.416
							L20.636,32.542z M19.25,31.73l1.123,0.659l0.728-0.428l-1.123-0.659L19.25,31.73z M17.864,30.916l1.123,0.659l0.728-0.428
							l-1.123-0.659L17.864,30.916z M16.48,30.103l1.123,0.659l0.728-0.428l-1.123-0.659L16.48,30.103z M24.725,28.503l-1.123-0.659
							l-0.728,0.428l1.123,0.659L24.725,28.503z M25.98,29.238l-1.123-0.659l-0.728,0.428l1.123,0.659L25.98,29.238z M27.234,29.974
							l-1.123-0.659l-0.728,0.428l1.123,0.659L27.234,29.974z M28.489,30.71l-1.123-0.659l-0.728,0.428l1.123,0.659L28.489,30.71z
							 M30.136,31.677l-1.123-0.659l-0.728,0.428l1.123,0.659L30.136,31.677z M31.391,32.413l-1.123-0.659l-0.728,0.428l1.123,0.659
							L31.391,32.413z M32.646,33.149l-1.123-0.659l-0.728,0.428l1.123,0.659L32.646,33.149z M33.9,33.886l-1.123-0.659
							l-0.728,0.428l1.123,0.659L33.9,33.886z M35.549,34.852l-1.123-0.659l-0.728,0.428l1.123,0.659L35.549,34.852z M36.804,35.588
							l-1.123-0.659l-0.728,0.428l1.123,0.659L36.804,35.588z M38.058,36.325l-1.123-0.659l-0.728,0.428l1.123,0.659L38.058,36.325z
							 M39.313,37.061l-1.123-0.659l-0.728,0.428l1.123,0.659L39.313,37.061z"/>
					</g>
				</g>
			</g>
			<polygon class="st36" points="41.565,36.813 45.548,22.55 26.214,11.172 22.229,25.435 			"/>
			<polygon class="st38" points="23.381,24.969 26.818,12.67 44.396,23.016 40.96,35.315 			"/>
		</g>
	</g>
	<g id="Glasses">
		<g id="XMLID_255_">
			<path id="XMLID_1591_" class="st39" d="M11.239,20.236c0,0-0.248-0.203-0.57-0.018l1.76,1.169l2.627,1.996l0.518-0.194
				l-2.776-2.013L11.239,20.236z"/>
			<path id="XMLID_1588_" class="st40" d="M12.023,19.444L10.696,19.7c-0.108,0.02-0.1,0.212,0.015,0.348
				c0.089,0.106,0.001,0.062,0.194,0.108c0.294,0.069,0.878,0.03,1.113-0.12l2.883,1.23l0.606,0.658l1.624,0.938v-0.903
				L12.023,19.444z"/>
			<path id="XMLID_1578_" class="st41" d="M11.897,19.531l-1.326,0.256c-0.108,0.02-0.1,0.212,0.015,0.348
				c0.089,0.106,0.001,0.062,0.194,0.108c0.298,0.07,0.753-0.062,1.052-0.171l2.944,1.282l0.606,0.658l1.624,0.938v-0.903
				L11.897,19.531z"/>
		</g>
		<g id="XMLID_1568_">
			<path id="XMLID_1603_" class="st39" d="M16.656,25.293l-1.925,1.306c-0.303,0.169-0.746,0.254-1.098,0.21L12.54,26.67l0.23-0.949
				l2.643-1.634l0.42,0.158l0.957,0.533C17.016,24.904,16.958,25.123,16.656,25.293z"/>
			<path id="XMLID_00000150098527270792061320000014843806067455869357_" class="st39" d="M7.711,27.99l-2.776-2.013l-1.558-0.942
				c0,0-0.248-0.203-0.57-0.018l1.76,1.169l2.627,1.996l0,0l0.518,0.329l1.37,0.616c0.313,0.076,0.769,0.008,1.072-0.162
				l1.954-0.866c0.303-0.169,0.395-0.386,0.23-0.535l-0.093-0.084c-0.057,0.069-0.122,0.127-0.191,0.166l-0.92,0.382l-1.05,0.436
				c-0.034,0.02-0.068,0.032-0.099,0.039c-0.115,0.024-0.204-0.038-0.222-0.172l-0.146-1.057"/>
			<path id="XMLID_1602_" class="st39" d="M16.155,25.23l-1.69,1.176c-0.171,0.095-0.42,0.142-0.616,0.118l-1.347-0.171l1.845-1.179
				l0.236,0.698c0.019,0.054,0.049,0.095,0.087,0.119c0.074,0.049,0.179,0.043,0.292-0.023l0.91-0.717l0.361-0.286
				C16.343,25.031,16.311,25.142,16.155,25.23z"/>
			<path id="XMLID_1592_" class="st39" d="M11.606,28.008l-1.722,0.735c-0.158,0.089-0.397,0.125-0.56,0.085l-1.099-0.644
				l1.443-0.525l0.093,0.677c0.018,0.134,0.107,0.198,0.222,0.172c0.031-0.005,0.065-0.019,0.099-0.039l1.05-0.436l0.643-0.267
				C11.801,27.841,11.74,27.932,11.606,28.008z"/>
			<g id="XMLID_1219_">
				<path id="XMLID_1576_" class="st40" d="M4.162,24.242l-1.326,0.256c-0.108,0.02-0.1,0.212,0.015,0.348
					c0.089,0.106,0.001,0.062,0.194,0.108c0.294,0.069,0.878,0.03,1.113-0.12l2.883,1.23l0.606,0.658L9.27,27.66v-0.903
					L4.162,24.242z"/>
				<path id="XMLID_1596_" class="st41" d="M13.349,24.461L13.349,24.461l-0.177,0.103l0,0l-4.277,2.151v0.547l0.191,1.376
					c0.045,0.323,0.306,0.433,0.614,0.254l2.209-0.957c0.309-0.177,0.581-0.563,0.675-0.954l0.413-1.697l0.528-0.305l0.413,1.221
					c0.095,0.282,0.368,0.352,0.675,0.175l1.741-1.324c0.309-0.177,0.568-0.587,0.614-0.964l0.191-1.597l-0.154-0.445L13.349,24.461
					z"/>
				<polygon id="XMLID_1570_" class="st42" points="8.896,26.715 9.143,26.845 13.72,24.807 17.406,22.117 17.134,21.96 
					13.172,24.564 				"/>
				<path id="XMLID_1572_" class="st37" d="M13.42,24.694l-0.589,2.419c-0.095,0.391-0.368,0.777-0.675,0.954l-2.209,0.957
					c-0.309,0.177-0.568,0.069-0.614-0.254l-0.191-1.376v-0.547L13.42,24.694z"/>
				<path id="XMLID_1610_" class="st43" d="M12.243,27.482c-0.057,0.069-0.122,0.127-0.191,0.166l-0.277,0.115
					c-0.007-0.02-0.02-0.041-0.039-0.057l-0.724,0.295L9.92,28.485l-0.135-0.072l-0.116-0.755l-0.055-0.401l0.702-0.336l1.15-0.551
					l0.524-0.25l0.781-0.399l-0.23,0.949L12.243,27.482z"/>
				<polygon id="XMLID_1589_" class="st43" points="12.763,25.751 12.796,25.616 9.597,27.145 9.612,27.258 				"/>
				<path id="XMLID_1566_" class="st37" d="M13.597,24.635l0.589,1.739c0.095,0.282,0.368,0.352,0.675,0.175l1.741-1.324
					c0.309-0.177,0.568-0.587,0.614-0.964l0.191-1.597v-0.547L13.597,24.635z"/>
				<polygon id="XMLID_1223_" class="st44" points="13.788,25.096 13.245,25.409 12.831,24.989 14.194,24.242 				"/>
				<path id="XMLID_1608_" class="st43" d="M16.951,22.9l-0.164,1.381c-0.023,0.196-0.16,0.411-0.321,0.503l-0.231,0.183
					c-0.003-0.001-0.004-0.004-0.007-0.004l-0.338,0.212l-1.136,0.847l-0.149-0.106l-0.256-0.742l-0.127-0.379l0.804-0.558
					l1.224-0.849L16.951,22.9z"/>
				<polygon id="XMLID_1601_" class="st45" points="19.041,24.653 19.053,24.557 17.035,25.957 17.059,26.029 				"/>
				<path id="XMLID_1585_" class="st46" d="M12.675,25.674l-0.329,1.353c-0.053,0.219-0.207,0.436-0.379,0.536l-1.971,0.819
					c-0.081,0.046-0.156,0.055-0.212,0.031c0.05,0.106,0.166,0.131,0.299,0.054l1.971-0.819c0.173-0.1,0.326-0.315,0.379-0.536
					l0.364-1.497L12.675,25.674z"/>
				<path id="XMLID_1569_" class="st46" d="M16.847,22.971l-0.145,1.221c-0.023,0.196-0.16,0.411-0.321,0.503l-1.502,1.186
					c-0.104,0.061-0.202,0.069-0.273,0.032c0.065,0.119,0.204,0.143,0.359,0.054l1.502-1.186c0.161-0.093,0.298-0.307,0.321-0.503
					l0.164-1.379L16.847,22.971z"/>
			</g>
			<path id="XMLID_1573_" class="st41" d="M4.036,24.329L2.71,24.585c-0.108,0.02-0.1,0.212,0.015,0.348
				c0.089,0.106,0.001,0.062,0.194,0.108c0.298,0.07,0.753-0.062,1.052-0.171l2.944,1.282L7.52,26.81l1.624,0.938v-0.903
				L4.036,24.329z"/>
		</g>
	</g>
	<g id="Pen">
		<path class="st39" d="M21.263,44.615c0-0.001-0.009-0.009-0.009-0.012c-0.004-0.011-0.012-0.024-0.039-0.049l0,0l0,0
			c-0.219-0.192-1.087-0.734-1.222-0.817c0.004-0.008,0.018-0.028,0.018-0.028c-0.02-0.088-4.364-2.681-4.822-2.955
			c-0.46-0.273-3.753-1.996-3.966-2.01c0,0-0.016,0.011-0.023,0.015c-0.03-0.011-0.9-0.332-1.221-0.367
			c-0.049-0.005-0.085-0.004-0.103,0.007c-0.049,0.102,0.516,0.612,0.731,0.801c0.007,0.005,0.007,0.007,0.014,0.012
			c0.039,0.035,0.068,0.06,0.07,0.061c-0.004,0.007-0.009,0.011-0.014,0.019c-0.043,0.076,0.552,0.487,1.275,0.949
			c0.207,0.131,0.424,0.268,0.639,0.401c0.432,0.267,0.857,0.522,1.18,0.715c0.242,0.143,0.428,0.252,0.517,0.302
			c0.353,0.198,2.952,1.673,4.273,2.374c0.11,0.058,0.211,0.111,0.302,0.158c0.18,0.093,0.318,0.16,0.395,0.189
			c0.039,0.015,0.062,0.022,0.069,0.018c0.011-0.007,0.018-0.015,0.028-0.022c0.018,0.009,0.046,0.023,0.088,0.046
			c0.008,0.004,0.014,0.007,0.022,0.011c0.039,0.02,0.081,0.042,0.134,0.069c0.026,0.014,0.053,0.027,0.081,0.042
			c0.042,0.022,0.08,0.041,0.126,0.064c0.054,0.027,0.108,0.054,0.165,0.083c0.027,0.014,0.051,0.026,0.079,0.039
			c0.062,0.031,0.123,0.061,0.184,0.091c0.027,0.014,0.054,0.027,0.081,0.039c0.055,0.027,0.106,0.05,0.156,0.074
			c0.026,0.012,0.054,0.026,0.079,0.037c0.046,0.022,0.081,0.037,0.118,0.051c0.019,0.008,0.042,0.019,0.057,0.024
			c0.042,0.016,0.069,0.023,0.083,0.023c0.001,0,0.005,0.003,0.007,0.001C20.807,45.069,21.149,44.945,21.263,44.615L21.263,44.615
			L21.263,44.615z"/>
		<g>
			<path class="st47" d="M19.191,43.914c0,0,1.39,0.728,1.487,0.713c0,0,0.341-0.125,0.455-0.455
				c0.026-0.076-1.302-0.897-1.302-0.897L19.191,43.914z"/>
			<path class="st48" d="M21.083,44.11c-0.249,0.143-0.497,0.49-0.497,0.49c0.046,0.018,0.079,0.028,0.091,0.026
				c0,0,0.342-0.125,0.455-0.455C21.136,44.161,21.117,44.14,21.083,44.11z"/>
			<path class="st47" d="M10.558,38.83c0,0-0.877-0.753-0.817-0.876c0.141-0.077,1.33,0.363,1.33,0.363L10.558,38.83z"/>
			<path class="st49" d="M20.677,44.627c0,0,0.028-0.012,0.069-0.034l-1.406-0.75l-0.12,0.085
				C19.367,44.006,20.586,44.64,20.677,44.627z"/>
			<path class="st49" d="M10.281,38.582c0.153,0.141,0.277,0.248,0.277,0.248l0.019-0.019l0.014-0.031L10.281,38.582z"/>
			<path class="st50" d="M10.542,38.846c-0.1,0.172,3.14,2.102,3.611,2.365c0.471,0.263,4.935,2.799,5.039,2.739
				c0.471-0.272,0.686-0.686,0.686-0.686c-0.02-0.088-4.364-2.681-4.822-2.955c-0.46-0.273-3.753-1.996-3.966-2.01
				C11.089,38.301,10.747,38.497,10.542,38.846z"/>
			<path class="st51" d="M19.34,43.843l-8.749-5.062c-0.016,0.023-0.034,0.042-0.049,0.066c-0.1,0.172,3.14,2.102,3.611,2.365
				c0.47,0.263,4.935,2.799,5.039,2.739C19.249,43.918,19.291,43.878,19.34,43.843z"/>
			
				<ellipse transform="matrix(0.0665 -0.9978 0.9978 0.0665 -27.8274 49.2552)" class="st47" cx="12.41" cy="39.499" rx="0.288" ry="0.384"/>
			<g>
				<path class="st47" d="M13.149,39.457c0.009,0.001,0.018,0.003,0.023,0.007c0.135,0.073,0.273,0.143,0.41,0.214
					c0.07,0.037,0.061,0.095,0.049,0.162c-0.009,0.055-0.022,0.135-0.072,0.185c-0.042,0.043-0.081,0.012-0.12-0.011
					c-0.041-0.023-0.395-0.221-0.398-0.222c-0.03-0.016-0.008-0.054,0-0.081c0.022-0.074,0.038-0.145,0.041-0.217
					C13.083,39.463,13.119,39.454,13.149,39.457z"/>
				<path class="st52" d="M13.187,39.519c0.007,0.001,0.014,0.003,0.019,0.005c0.107,0.057,0.215,0.112,0.323,0.168
					c0.055,0.028,0.049,0.074,0.039,0.129c-0.008,0.045-0.018,0.107-0.057,0.146c-0.032,0.034-0.064,0.009-0.095-0.008
					c-0.031-0.018-0.311-0.175-0.313-0.175c-0.024-0.014-0.007-0.043,0-0.064c0.018-0.058,0.03-0.114,0.032-0.171
					C13.135,39.523,13.164,39.516,13.187,39.519z"/>
			</g>
			<g>
				<path class="st47" d="M12.552,40.053c0.004,0.007,0.008,0.012,0.015,0.015c0.129,0.08,0.254,0.161,0.38,0.244
					c0.065,0.042,0.135,0.02,0.219-0.008c0.069-0.022,0.165-0.053,0.217-0.102c0.043-0.042-0.005-0.062-0.046-0.085
					c-0.041-0.023-0.386-0.23-0.388-0.231c-0.03-0.018-0.072,0.008-0.103,0.022c-0.088,0.037-0.173,0.066-0.264,0.088
					C12.544,40.003,12.541,40.033,12.552,40.053z"/>
				<path class="st53" d="M12.64,40.064c0.003,0.005,0.007,0.009,0.012,0.012c0.102,0.062,0.2,0.127,0.299,0.192
					c0.051,0.032,0.107,0.016,0.173-0.005c0.054-0.018,0.13-0.041,0.171-0.08c0.034-0.032-0.004-0.049-0.035-0.068
					c-0.031-0.018-0.305-0.181-0.306-0.183c-0.023-0.014-0.055,0.007-0.081,0.018c-0.069,0.028-0.137,0.053-0.208,0.069
					C12.633,40.025,12.632,40.048,12.64,40.064z"/>
			</g>
		</g>
	</g>
</g>
<g>
	<ellipse class="st54" cx="27.495" cy="32.061" rx="3.921" ry="1.852"/>
	<g>
		<polygon class="st55" points="27.934,30.489 30.112,31.426 30.112,29.494 27.934,28.413 		"/>
		<polygon class="st56" points="27.934,30.489 25.755,31.426 25.755,29.494 27.934,28.413 		"/>
		<path class="st57" d="M27.934,28.27l-2.179,1.081l2.179,1.081l2.179-1.081L27.934,28.27z M26.045,29.35l1.889-0.937l1.889,0.937
			l-1.889,0.937L26.045,29.35z"/>
		<polygon class="st55" points="25.755,31.426 27.934,32.507 27.934,30.431 25.755,29.35 		"/>
		<polygon class="st56" points="27.934,30.431 25.755,29.35 25.755,29.715 27.934,30.795 27.934,32.507 30.112,31.426 30.112,29.35 
					"/>
		<g>
			<path class="st58" d="M25.937,27.378c-0.046,0-0.084-0.018-0.084-0.041v2.008c0,0.023,0.038,0.041,0.084,0.041
				c0.046,0,0.084-0.018,0.084-0.041v-2.008C26.02,27.36,25.983,27.378,25.937,27.378z"/>
			<path class="st58" d="M27.92,28.365c-0.046,0-0.084-0.018-0.084-0.041v2.008c0,0.023,0.038,0.041,0.084,0.041
				c0.046,0,0.084-0.018,0.084-0.041v-2.008C28.004,28.347,27.966,28.365,27.92,28.365z"/>
			<path class="st58" d="M29.931,27.378c-0.046,0-0.084-0.018-0.084-0.041v2.008c0,0.023,0.038,0.041,0.084,0.041
				c0.046,0,0.084-0.018,0.084-0.041v-2.008C30.015,27.36,29.977,27.378,29.931,27.378z"/>
		</g>
		<g>
			<g>
				<path class="st59" d="M34.068,20.296c-0.43,0.333-0.973,0.627-1.615,0.867c-0.015,1.321-0.27,2.975-0.737,4.528
					c1.314-1.58,2.363-3.575,2.363-5.182C34.08,20.437,34.071,20.368,34.068,20.296z"/>
				<path class="st59" d="M21.636,20.296c-0.003,0.071-0.012,0.141-0.012,0.213c0,1.606,1.05,3.602,2.363,5.182
					c-0.467-1.552-0.722-3.207-0.737-4.528C22.609,20.923,22.066,20.629,21.636,20.296z"/>
				<path class="st59" d="M24.535,21.543c0.158,2.093,0.741,4.68,1.664,6.192c0.481,0.316,0.941,0.526,1.35,0.599
					c-0.281-1.26-0.464-4.102-0.519-6.452C26.138,21.837,25.298,21.72,24.535,21.543z"/>
				<path class="st59" d="M28.156,28.333c0.41-0.072,0.869-0.283,1.35-0.599c0.923-1.511,1.505-4.099,1.664-6.192
					c-0.763,0.177-1.604,0.294-2.495,0.339C28.62,24.232,28.437,27.073,28.156,28.333z"/>
			</g>
			<g>
				<path class="st60" d="M31.17,21.543c-0.158,2.093-0.741,4.68-1.664,6.192c0.734-0.482,1.509-1.199,2.21-2.043
					c0.467-1.552,0.722-3.207,0.737-4.528C32.059,21.311,31.628,21.437,31.17,21.543z"/>
				<path class="st60" d="M23.251,21.163c0.015,1.321,0.27,2.976,0.737,4.528c0.702,0.844,1.477,1.561,2.21,2.043
					c-0.923-1.511-1.505-4.099-1.664-6.192C24.077,21.437,23.646,21.311,23.251,21.163z"/>
				<path class="st60" d="M27.029,21.882c0.056,2.35,0.239,5.192,0.519,6.452c0.103,0.018,0.208,0.038,0.304,0.038
					c0.096,0,0.2-0.02,0.304-0.038c0.281-1.26,0.464-4.102,0.519-6.452c-0.271,0.014-0.544,0.022-0.823,0.022
					S27.3,21.895,27.029,21.882z"/>
			</g>
			<g>
				<path class="st61" d="M34.068,20.296c-0.123-3.059-2.855-5.287-6.216-5.287c2.543,0,4.605,2.555,4.605,6.029
					c0,0.04-0.003,0.085-0.004,0.126C33.095,20.923,33.639,20.629,34.068,20.296z"/>
				<path class="st61" d="M21.636,20.296c0.43,0.333,0.973,0.627,1.615,0.867c0-0.041-0.004-0.086-0.004-0.126
					c0-3.473,2.062-6.029,4.605-6.029C24.491,15.009,21.76,17.238,21.636,20.296z"/>
				<path class="st61" d="M24.488,20.452c0,0.339,0.018,0.708,0.046,1.091c0.763,0.177,1.604,0.294,2.495,0.339
					c-0.012-0.506-0.019-0.991-0.019-1.429c0-3.136,0.377-5.444,0.842-5.444C25.994,15.009,24.488,17.316,24.488,20.452z"/>
				<path class="st61" d="M28.694,20.452c0,0.438-0.007,0.923-0.019,1.429c0.891-0.045,1.731-0.162,2.495-0.339
					c0.029-0.382,0.046-0.751,0.046-1.09c0-3.136-1.506-5.444-3.364-5.444C28.317,15.009,28.694,17.316,28.694,20.452z"/>
			</g>
			<g>
				<path class="st62" d="M23.248,21.037c0,0.04,0.003,0.085,0.004,0.126c0.394,0.147,0.826,0.273,1.283,0.38
					c-0.029-0.382-0.046-0.751-0.046-1.091c0-3.136,1.506-5.444,3.364-5.444C25.309,15.009,23.248,17.564,23.248,21.037z"/>
				<path class="st62" d="M27.852,15.009c1.858,0,3.364,2.307,3.364,5.444c0,0.339-0.018,0.708-0.046,1.09
					c0.457-0.106,0.889-0.232,1.283-0.38c0-0.041,0.004-0.086,0.004-0.126C32.457,17.564,30.395,15.009,27.852,15.009z"/>
				<path class="st62" d="M27.01,20.452c0,0.438,0.007,0.923,0.019,1.429c0.271,0.014,0.544,0.022,0.823,0.022
					s0.553-0.009,0.823-0.022c0.012-0.506,0.019-0.991,0.019-1.429c0-3.136-0.377-5.444-0.842-5.444
					C27.387,15.009,27.01,17.316,27.01,20.452z"/>
			</g>
		</g>
	</g>
</g>
</svg>
