<?xml version="1.0" encoding="utf-8"?>
<!-- Generator: Adobe Illustrator 23.0.1, SVG Export Plug-In . SVG Version: 6.00 Build 0)  -->
<svg version="1.1" id="Layer_1" xmlns="http://www.w3.org/2000/svg" xmlns:xlink="http://www.w3.org/1999/xlink" x="0px" y="0px"
	 viewBox="0 0 500 250" style="enable-background:new 0 0 500 250;" xml:space="preserve">
<style type="text/css">
	.st0{opacity:0.75;fill:#FF767D;enable-background:new    ;}
</style>
<polygon class="st0" points="103.59,233.49 103.025,232.36 102.742,230.099 103.59,228.118 103.59,227.835 103.874,226.986 
	104.157,226.14 104.157,225.857 103.309,225.008 101.612,224.444 100.764,223.595 99.067,222.747 98.783,222.463 96.806,221.05 
	96.522,220.767 96.522,220.486 95.392,219.354 93.977,218.789 92.283,217.092 91.716,213.982 92.283,211.718 92.564,211.154 
	92.847,210.589 92.564,210.305 92.283,208.328 92.564,206.631 209.617,190.515 209.052,189.666 208.769,189.102 207.639,188.534 
	207.072,187.97 206.791,187.686 206.507,187.121 206.223,186.84 203.962,184.86 203.962,184.011 204.246,182.598 204.246,182.315 
	203.114,179.77 203.962,178.073 203.962,177.792 203.681,176.66 203.114,174.682 203.397,174.115 203.397,173.55 203.681,171.853 
	203.397,171.005 203.397,170.157 203.681,168.46 203.681,168.179 203.962,167.047 203.397,165.634 203.114,164.221 202.832,163.937 
	201.417,162.524 200.287,161.392 200.004,161.111 198.874,158.847 198.874,158.566 198.874,157.717 198.591,156.585 197.742,154.04 
	197.742,153.759 197.742,153.192 196.894,150.082 197.742,149.234 198.026,148.104 198.307,147.821 198.591,147.537 
	198.874,145.276 199.155,144.711 199.439,143.579 199.439,143.014 198.874,141.885 199.155,140.188 198.874,139.34 198.591,136.511 
	198.874,135.946 199.439,135.098 199.439,134.814 201.417,132.836 201.7,132.836 202.265,132.272 203.397,130.575 203.681,130.575 
	203.397,130.291 202.549,130.008 201.984,130.008 199.155,127.746 199.723,125.769 199.723,124.92 199.723,123.223 198.307,121.243 
	198.026,120.114 197.742,119.546 197.459,118.982 196.61,118.417 195.481,117.569 194.916,117.004 192.936,114.74 192.371,112.762 
	190.958,111.349 190.391,109.085 189.261,107.107 188.129,105.127 187.846,104.279 186.433,101.736 186.433,101.169 185.868,100.32 
	185.584,100.039 151.374,3.342 44.215,15.783 45.063,16.913 45.347,16.913 47.609,16.913 47.892,18.893 50.718,169.875 
	64.008,239.993 66.553,240.56 67.402,239.993 70.793,240.56 72.208,240.841 72.773,241.125 72.773,239.145 73.338,237.448 
	72.773,237.167 72.49,235.753 72.49,233.773 72.773,231.793 73.338,231.512 73.338,230.38 73.338,229.815 73.621,228.402 
	75.034,225.573 75.883,224.444 76.166,223.595 77.863,223.312 79.841,224.16 80.973,224.444 83.516,225.857 84.083,226.14 
	85.212,227.835 85.212,229.531 85.496,229.531 86.344,232.641 86.061,232.925 86.061,233.208 85.779,234.905 85.779,235.186 
	86.061,236.318 86.061,236.599 86.628,236.883 87.193,237.448 89.454,239.145 90.302,239.993 92.564,241.125 93.977,242.538 
	94.261,242.821 94.544,243.67 96.806,243.386 97.089,243.103 99.351,242.538 99.915,242.254 101.047,241.406 101.047,241.125 
	101.047,240.56 103.59,238.58 103.874,237.167 103.874,236.883 104.722,234.905 103.874,233.773 "/>
</svg>
