<?xml version="1.0" encoding="utf-8"?>
<!-- Generator: Adobe Illustrator 23.0.1, SVG Export Plug-In . SVG Version: 6.00 Build 0)  -->
<svg version="1.1" id="Layer_1" xmlns="http://www.w3.org/2000/svg" xmlns:xlink="http://www.w3.org/1999/xlink" x="0px" y="0px"
	 viewBox="0 0 500 250" style="enable-background:new 0 0 500 250;" xml:space="preserve">
<style type="text/css">
	.st0{opacity:0.75;enable-background:new    ;}
	.st1{fill:#FF767D;}
</style>
<g class="st0">
	<polygon class="st1" points="426.967,198.717 426.691,197.199 426.139,196.232 426.553,194.99 426.139,192.505 419.098,189.882 
		417.442,189.882 413.024,188.087 411.919,188.639 410.401,188.777 410.539,187.397 410.125,186.016 408.468,185.602 
		407.087,183.393 405.707,183.393 404.878,180.908 393.558,168.483 393.144,167.378 383.066,159.233 380.857,158.405 
		380.166,158.405 376.715,152.744 374.92,152.192 373.678,153.159 372.297,154.953 370.917,155.644 370.364,156.61 370.64,157.576 
		369.674,159.371 370.088,160.614 364.014,167.24 361.253,161.994 349.932,153.297 349.38,152.33 349.518,149.293 348.689,149.155 
		346.757,149.569 344.824,150.812 344.272,152.054 343.581,152.33 342.477,152.054 338.335,152.192 337.093,151.226 320.664,23.8 
		319.145,24.904 317.903,23.247 309.758,19.244 308.791,20.21 307.825,19.244 303.821,21.453 301.336,22.005 297.194,19.658 
		294.571,19.244 290.982,19.934 290.706,19.106 289.187,19.244 285.46,18.416 284.493,16.483 283.665,17.035 281.318,15.516 
		278.695,15.516 277.314,16.483 275.244,15.378 272.897,16.345 272.344,16.897 271.102,16.207 269.307,15.93 269.721,14.688 
		268.341,14.274 267.098,13.307 267.788,11.651 267.65,10.408 265.856,9.856 264.751,9.856 263.785,9.166 262.68,9.718 261.3,9.442 
		259.505,10.546 258.263,10.132 257.158,9.994 257.02,9.166 257.434,7.095 256.192,6.267 255.087,6.129 253.016,9.58 251.084,9.718 
		250.531,8.475 253.293,5.99 250.669,3.367 249.289,3.091 248.737,2.539 243.767,7.509 242.11,8.337 240.453,8.337 239.763,8.614 
		236.035,8.614 235.621,7.371 225.543,14.136 223.748,13.722 223.058,12.755 217.398,18.001 215.879,21.177 215.879,22.419 
		215.189,23.247 208.01,28.632 204.006,28.632 202.488,27.941 201.245,27.941 200.831,27.389 199.727,27.389 198.76,26.975 
		198.208,27.941 197.104,31.393 196.551,32.221 194.204,32.911 193.928,33.326 196.827,35.535 197.794,37.882 200.831,40.228 
		205.801,49.34 205.111,53.206 212.704,56.519 215.189,56.243 216.57,57.485 214.499,58.728 215.327,63.422 216.293,63.974 
		215.741,64.526 214.637,64.25 214.637,65.631 215.741,65.907 216.846,66.597 216.57,67.978 214.913,67.287 212.29,69.634 
		209.943,69.082 209.253,69.22 207.458,68.254 205.939,67.978 205.249,68.254 204.421,67.702 201.798,67.287 201.659,66.321 
		200.693,65.631 201.936,65.217 202.212,62.594 203.178,62.041 203.454,60.937 202.764,60.385 201.383,59.971 195.999,59.971 
		192.824,61.213 191.167,61.351 192.134,63.56 191.995,63.974 190.891,64.25 189.51,63.974 189.234,63.284 188.13,62.179 
		177.776,65.907 176.809,66.873 177.5,68.668 179.57,70.739 184.955,73.638 184.678,74.881 183.85,75.709 182.193,75.709 
		181.365,75.295 181.641,76.675 182.47,78.194 183.574,78.884 182.332,81.507 183.022,83.578 190.753,87.858 194.895,86.477 
		196.275,87.72 197.656,87.582 199.174,88.686 200.003,90.481 200.831,90.067 201.936,89.1 202.488,92 206.629,87.72 208.424,87.72 
		209.805,86.615 210.771,87.306 213.532,85.925 214.499,87.72 214.499,89.515 212.98,91.309 210.771,90.757 210.219,92 
		212.428,95.727 212.29,97.384 212.704,98.764 212.428,102.078 210.219,104.425 208.7,105.115 204.835,105.115 204.144,103.182 
		203.04,103.182 200.969,106.357 197.656,108.704 195.999,108.842 192.824,105.115 191.029,104.287 188.82,105.391 186.611,107.876 
		186.335,108.981 185.231,110.223 185.231,112.156 183.988,112.432 180.399,115.469 179.294,116.159 177.638,117.954 
		177.223,119.335 177.914,120.853 174.877,120.991 173.91,121.82 175.153,122.924 173.634,123.2 173.082,123.891 173.496,124.995 
		174.877,124.995 175.429,125.961 174.462,126.79 175.705,132.036 176.809,132.036 177.5,130.931 178.466,133.002 175.981,133.969 
		176.809,135.211 177.638,135.349 177.776,135.902 177.5,137.282 174.738,138.387 175.567,139.905 176.809,139.629 177.223,140.457 
		176.257,141.562 181.227,148.879 180.951,150.121 183.022,151.778 190.891,150.259 192.134,150.674 192.824,150.259 
		193.376,148.879 196.137,158.267 193.238,160.89 193.1,162.546 194.204,164.065 194.481,166.136 193.652,167.793 192.548,169.173 
		191.443,168.759 190.891,169.587 191.995,170.14 192.824,170.14 193.652,170.83 195.309,170.416 196.827,169.173 197.794,169.311 
		198.76,168.345 200.003,168.345 200.693,168.759 201.798,167.378 203.868,166.136 204.697,166.55 204.697,168.207 206.077,168.621 
		206.215,169.725 207.596,169.863 208.562,168.759 211.876,175.938 212.704,176.49 213.67,176.49 214.637,175.524 214.085,174.971 
		214.361,173.453 214.223,172.072 214.637,172.072 214.775,170.416 215.879,169.449 216.155,170.83 217.398,173.453 
		218.502,174.143 225.267,171.934 226.51,172.21 226.51,173.453 222.23,177.871 222.368,178.975 222.92,180.356 222.506,181.046 
		221.402,181.46 220.021,187.811 220.573,188.501 218.916,189.191 217.812,190.434 215.189,191.676 212.29,194.437 211.461,196.784 
		211.461,198.165 208.148,198.027 206.353,199.407 202.764,200.512 197.518,203.963 195.585,207.139 196.966,208.657 197.38,209.9 
		196.275,209.762 195.447,208.657 193.652,208.657 193.652,210.176 194.342,210.728 193.1,210.452 192.548,208.795 193.376,208.105 
		193.514,206.724 191.443,206.724 188.958,206.172 183.298,208.243 179.847,211.142 178.88,211.556 178.052,212.937 178.88,215.146 
		179.432,215.698 179.156,216.25 179.432,217.493 180.537,218.183 181.089,217.493 181.227,216.388 182.055,217.079 
		182.746,215.698 183.436,215.974 185.231,214.179 185.645,212.385 186.887,210.728 188.544,210.728 186.749,214.041 
		187.992,214.318 188.682,214.87 190.615,214.041 191.167,214.041 191.857,213.075 192.548,213.351 192.824,214.318 
		193.652,214.041 193.652,213.351 194.342,213.351 194.619,214.179 196.137,213.351 196.413,212.109 197.794,212.385 
		198.76,211.142 200.417,210.728 201.521,212.523 200.831,214.179 203.178,212.799 204.006,211.142 203.868,210.314 
		207.872,209.762 208.976,209.209 209.667,209.762 210.633,207.691 211.738,209.347 214.085,207.139 213.808,205.896 
		211.738,204.378 213.67,202.859 214.499,203.825 215.603,202.859 216.293,203.273 217.674,203.273 216.846,202.031 
		216.431,201.892 217.26,201.616 218.502,201.616 218.916,202.583 220.573,202.307 220.159,201.202 220.297,199.96 220.987,198.717 
		221.54,199.822 222.782,200.236 224.577,198.165 228.166,197.337 229.271,195.68 228.995,193.195 229.823,193.195 230.099,192.367 
		232.308,192.229 232.446,191.262 234.241,191.262 235.483,189.053 235.483,188.501 237.83,189.053 237.83,187.673 238.935,187.673 
		239.763,186.154 240.039,185.188 242.662,184.773 243.352,185.188 244.181,184.359 244.595,183.255 245.976,183.531 
		247.218,182.288 246.804,181.46 248.046,181.046 247.356,180.08 248.046,179.113 248.323,178.837 248.875,177.871 248.875,177.18 
		249.841,177.871 251.222,177.18 251.36,176.628 251.912,176.628 252.602,175.524 254.811,174.281 253.569,174.143 250.531,171.244 
		249.565,171.382 249.151,171.658 248.184,171.244 247.356,171.796 247.356,170.554 246.942,170.416 247.494,169.587 
		248.046,167.793 248.599,167.655 249.013,166.964 250.255,166.55 251.222,165.722 250.669,164.755 251.912,164.479 
		252.878,161.166 253.154,163.237 254.535,163.513 256.054,162.132 255.639,161.304 254.535,161.304 254.811,160.614 
		255.778,160.89 259.091,158.681 259.229,157.576 258.815,157.162 258.263,156.196 259.367,156.058 260.333,154.953 
		261.024,152.468 262.128,151.502 263.095,149.707 264.199,149.017 265.303,149.293 265.027,146.946 269.445,144.047 
		269.997,142.528 272.068,142.528 272.206,141.562 277.038,142.39 276.9,144.323 278.695,146.118 277.314,146.394 275.796,147.36 
		274.691,145.289 273.035,145.565 271.378,146.532 270.273,148.05 267.512,149.293 268.065,153.159 264.061,161.028 
		267.098,163.513 268.203,163.513 269.445,162.27 270.273,162.27 269.031,163.237 268.203,164.893 266.408,165.86 265.994,166.55 
		264.751,166.55 263.371,167.378 262.266,168.759 264.889,170.968 266.684,169.173 267.512,170.278 270.55,168.621 271.24,167.378 
		271.93,166.688 272.344,165.308 273.173,165.031 272.62,165.86 272.758,166.55 273.587,166.274 274.001,165.584 275.382,165.446 
		276.762,163.513 276.348,162.27 277.452,162.961 278.005,163.927 278.557,162.546 279.523,163.237 279.799,162.546 
		279.661,160.061 280.628,159.371 280.628,157.991 281.18,160.752 281.594,160.199 281.87,159.371 282.837,158.543 283.251,159.233 
		284.079,160.199 284.907,159.647 285.46,160.061 286.15,160.061 286.288,159.509 287.392,159.785 290.706,159.371 291.258,158.267 
		288.221,155.644 289.049,154.953 291.948,157.438 292.362,153.297 292.915,152.054 292.362,151.364 291.672,152.192 
		290.706,153.297 290.154,152.468 289.463,151.778 289.049,150.812 289.463,149.983 290.844,150.397 290.568,149.569 
		289.049,149.017 287.945,149.155 287.531,148.189 287.807,147.084 289.601,145.013 288.773,148.327 291.948,148.189 
		292.501,146.946 293.053,146.67 293.881,147.36 294.848,147.084 295.676,146.532 295.814,145.703 296.918,146.532 297.747,145.289 
		298.851,144.323 298.161,145.98 298.299,146.946 297.471,148.189 298.023,148.327 298.851,147.636 299.679,148.05 299.403,148.603 
		298.575,149.155 298.713,150.121 299.956,149.983 301.06,148.879 301.474,149.155 302.303,150.674 302.993,150.259 
		303.545,150.259 303.821,151.226 301.336,151.916 300.922,152.606 298.851,152.882 298.575,154.125 298.851,154.815 
		299.679,154.539 299.127,155.505 299.541,156.058 301.336,154.677 302.993,153.297 303.131,152.468 304.373,152.33 305.34,152.882 
		306.444,152.744 306.996,153.573 308.791,154.539 309.205,154.125 309.067,153.159 310.31,152.606 311.138,152.054 
		311.138,154.263 311.828,154.677 312.381,155.644 313.761,156.058 315.28,155.505 316.798,157.714 318.041,157.991 
		320.388,157.024 322.321,156.748 323.839,156.472 325.496,156.196 326.877,155.644 333.365,157.3 334.194,156.748 334.332,157.714 
		335.298,158.681 336.817,158.681 337.231,159.095 339.026,159.647 341.787,159.647 346.204,157.024 347.861,154.263 
		347.309,157.024 347.999,159.233 346.481,160.476 346.619,161.58 359.32,166.964 360.838,168.483 360.838,169.725 367.465,173.729 
		370.226,174.557 371.055,175.109 371.607,175.8 371.469,173.867 374.782,173.453 375.334,172.21 373.678,169.725 372.711,169.173 
		371.607,169.863 371.055,167.655 368.155,166.412 369.398,166.136 370.088,165.584 372.159,167.516 373.54,167.655 373.54,166.412 
		372.573,164.755 373.54,165.031 374.092,166.412 375.749,168.759 376.025,170.278 377.129,171.796 379.062,170.83 380.581,173.177 
		381.685,173.453 382.789,172.625 380.442,167.655 380.719,167.516 381.823,169.725 386.241,172.625 388.726,172.348 
		392.729,176.352 393.696,176.214 394.662,176.49 398.114,178.423 396.181,177.733 394.662,177.871 394.11,178.423 394.386,179.665 
		396.871,182.15 397.561,182.288 396.733,182.703 396.457,183.669 397.561,184.912 402.393,184.635 402.117,186.154 
		402.393,186.982 404.05,187.811 405.293,188.225 405.569,187.397 405.707,188.777 406.397,189.329 407.363,189.329 407.363,190.71 
		409.158,192.09 408.882,192.643 408.468,192.09 407.502,192.367 407.363,193.057 407.778,194.023 406.811,194.023 406.121,196.646 
		407.778,197.613 409.572,199.546 410.125,199.131 410.815,197.889 410.539,196.646 411.229,194.299 411.367,195.68 
		411.229,197.337 411.367,198.579 410.815,201.202 412.61,203.411 413.852,203.687 414.266,198.027 415.233,200.65 415.233,202.169 
		414.819,203.135 414.957,204.516 416.199,205.068 417.304,206.586 421.169,206.724 421.583,205.896 423.102,209.624 
		426.001,210.59 427.934,208.105 429.038,202.997 428.9,201.616 	"/>
	<polygon class="st1" points="169.216,144.323 170.045,143.357 168.664,141.976 167.007,142.114 167.007,141.148 166.179,141.148 
		165.074,140.595 164.384,141.148 162.728,141.148 162.313,142.114 160.795,142.114 159.552,141.286 157.758,141.424 
		162.175,147.912 163.832,148.05 166.041,149.845 166.317,148.465 168.25,148.465 169.63,147.636 168.94,145.842 	"/>
	<polygon class="st1" points="378.648,184.359 377.543,183.255 379.752,183.393 382.237,184.773 383.756,184.912 384.032,183.945 
		381.823,179.251 382.237,178.285 381.961,177.18 381.547,176.214 377.957,176.352 375.334,174.833 374.506,175.8 372.021,176.766 
		371.469,175.8 370.226,178.975 370.64,180.77 377.129,186.844 378.234,186.844 378.786,185.464 	"/>
	<polygon class="st1" points="379.476,183.807 379.2,186.016 378.51,187.258 380.304,188.225 380.857,188.225 381.409,191.262 
		382.375,192.09 382.375,193.885 384.446,195.818 385.136,195.266 384.998,196.37 388.312,201.064 389.14,200.512 389.14,198.027 
		383.618,185.878 	"/>
	<polygon class="st1" points="391.073,180.908 386.241,174.419 383.204,175.109 382.789,175.662 387.069,184.773 386.931,186.016 
		385.965,187.258 386.931,187.949 387.345,189.467 388.036,189.467 389.83,186.154 389.968,185.188 391.073,184.773 
		390.935,183.117 387.483,177.871 388.726,178.699 	"/>
	<polygon class="st1" points="394.386,196.784 394.662,196.094 394.11,195.128 394.662,194.161 394.248,193.057 393.282,192.09 
		393.282,191.538 392.177,191.814 391.073,190.158 390.797,191.4 389.692,190.848 389.14,191.814 389.968,193.885 391.211,195.542 
		392.591,196.37 393.282,197.199 391.901,197.475 391.901,199.96 392.453,201.34 393.42,202.583 393.834,199.822 394.524,200.926 
		394.938,199.684 394.8,197.751 	"/>
	<polygon class="st1" points="400.461,189.882 398.804,187.811 391.487,187.949 393.006,190.986 393.696,190.848 396.457,196.094 
		397.423,195.266 399.494,194.714 399.77,193.195 397.423,191.4 397.423,190.71 397.561,190.434 400.046,193.057 401.013,193.471 
		402.531,193.057 403.36,192.09 402.393,190.986 	"/>
	<polygon class="st1" points="400.875,195.128 400.599,196.094 402.255,197.613 403.36,196.784 403.498,195.266 403.222,194.161 
		402.393,194.161 	"/>
	<polygon class="st1" points="413.024,211.694 412.472,208.381 411.367,208.519 409.71,207.139 409.158,205.206 405.016,200.926 
		401.979,199.684 399.632,196.784 396.043,197.613 397.976,199.96 397.009,200.788 396.871,202.031 395.629,202.997 
		395.215,203.825 396.043,204.378 396.181,203.825 397.838,202.583 397.976,201.754 400.185,203.687 399.908,204.378 
		400.737,206.172 400.875,207.001 401.427,207.277 402.531,206.862 403.36,208.519 402.946,209.209 402.117,209.9 401.289,211.142 
		401.841,211.833 402.946,211.971 403.912,212.385 404.188,213.489 407.64,217.631 408.744,217.493 409.158,215.56 408.744,215.146 
		408.192,214.179 406.949,214.318 405.707,213.627 404.602,211.556 405.431,211.556 406.259,213.075 407.225,213.627 
		407.64,212.799 407.778,211.142 408.882,213.627 411.367,214.179 411.367,215.284 411.919,215.974 413.714,216.112 
		414.128,215.146 413.714,212.523 	"/>
	<polygon class="st1" points="174.877,215.008 173.91,215.146 173.91,215.836 171.149,215.698 170.045,216.941 170.183,217.769 
		172.253,217.079 172.944,219.288 173.91,219.702 174.462,219.011 175.429,219.426 175.843,218.597 175.429,214.318 	"/>
	<polygon class="st1" points="168.664,219.426 168.664,218.045 168.25,217.079 166.455,216.665 163.556,216.941 162.313,217.493 
		161.761,217.079 160.657,216.941 159,219.15 157.619,220.254 156.101,220.254 156.239,223.291 157.758,223.843 159.966,223.429 
		161.485,221.911 165.489,221.911 166.455,222.601 168.94,220.53 168.25,220.116 	"/>
	<polygon class="st1" points="146.851,223.153 145.332,224.672 146.575,225.638 147.817,225.914 149.336,225.638 149.612,225.362 
		149.06,224.948 	"/>
	<polygon class="st1" points="255.639,193.471 256.606,189.467 256.054,188.777 253.707,190.02 253.154,191.4 253.569,188.915 
		254.535,187.949 253.293,187.811 252.05,188.225 251.084,189.053 248.599,187.535 248.599,188.915 249.703,190.02 249.013,190.158 
		248.599,191.262 248.046,189.605 247.08,189.191 245.976,190.158 246.39,191.814 247.08,192.229 246.114,193.057 246.114,195.68 
		245.147,194.437 244.733,192.09 243.629,191.676 241.282,192.919 239.349,195.128 238.659,196.646 239.625,196.784 
		240.453,197.751 240.453,200.512 241.282,201.202 241.972,202.721 243.629,201.064 244.595,201.202 245.147,202.169 
		243.629,203.273 242.938,204.378 244.457,204.516 247.218,201.064 247.218,200.236 248.323,200.236 248.875,198.993 
		250.393,198.579 251.498,197.889 251.222,197.199 254.673,197.337 254.121,195.542 257.02,195.404 257.71,194.576 257.848,192.919 
		256.33,192.643 	"/>
	<polygon class="st1" points="257.434,182.15 256.606,182.841 256.606,181.736 257.296,179.941 256.606,179.527 255.363,180.218 
		253.154,183.669 252.464,183.669 249.841,185.602 250.255,187.12 251.774,187.535 252.464,186.706 251.912,186.43 253.154,186.154 
		254.949,187.12 255.639,185.878 257.158,186.154 257.848,185.05 259.229,185.602 259.919,184.221 258.953,182.841 	"/>
	<polygon class="st1" points="150.717,223.705 150.302,223.153 149.474,223.153 149.198,223.843 149.336,224.396 150.026,224.948 
		151.269,224.948 151.683,224.672 150.717,224.396 	"/>
	<polygon class="st1" points="142.295,228.261 141.053,228.813 141.605,228.123 144.228,227.019 144.09,226.19 143.538,225.914 
		143.124,225.362 140.915,226.605 141.053,225.638 140.777,224.672 138.844,224.258 136.773,225.5 136.221,226.19 138.568,227.847 
		138.292,228.951 137.877,228.399 137.049,227.985 136.083,228.675 134.84,230.608 131.389,230.332 129.18,231.437 129.456,232.403 
		131.527,232.955 132.079,232.265 133.045,232.265 134.978,231.575 137.325,232.127 138.015,231.022 138.844,231.851 
		139.948,231.022 140.362,230.332 144.09,229.918 144.78,228.813 143.814,228.261 	"/>
	<polygon class="st1" points="129.318,227.847 127.523,227.157 126.143,227.985 124.9,228.951 124.762,230.056 124.21,230.608 
		122.139,230.47 121.035,231.022 120.62,232.265 120.758,232.679 119.93,233.231 119.102,233.369 117.169,234.474 117.169,234.888 
		118.55,234.888 119.93,234.474 121.035,233.645 122.415,233.507 124.21,232.541 125.038,231.16 128.628,230.608 130.284,228.675 	
		"/>
	<polygon class="st1" points="103.639,231.16 101.569,232.403 100.05,234.336 101.845,235.026 104.054,233.231 105.848,234.336 
		107.229,232.679 105.986,231.437 	"/>
	<polygon class="st1" points="87.487,231.437 86.935,232.403 87.487,232.679 88.729,232.817 89.696,232.403 89.972,231.851 
		88.867,231.022 	"/>
	<polygon class="st1" points="78.789,231.437 78.513,230.746 77.685,230.47 77.685,230.884 75.338,229.918 74.233,228.399 
		71.886,227.571 69.954,228.123 69.125,227.709 68.435,226.881 67.883,227.295 67.331,227.295 66.364,227.019 64.155,226.881 
		64.708,227.157 65.26,227.985 68.021,228.399 69.125,228.951 71.61,229.642 71.886,229.918 74.233,229.78 75.062,230.194 
		75.338,230.47 75.752,231.437 77.547,231.851 78.237,232.817 79.894,232.679 80.032,232.403 79.894,231.851 	"/>
	<polygon class="st1" points="75.338,228.399 76.442,227.985 76.304,226.743 75.752,226.19 74.786,225.362 73.543,225.914 
		72.853,226.605 74.233,227.019 	"/>
	<polygon class="st1" points="41.79,218.873 41.376,219.15 41.652,219.978 42.895,221.497 42.342,221.635 40.962,221.497 
		41.79,223.153 42.618,222.739 43.309,222.187 45.103,221.358 42.757,219.15 	"/>
	<polygon class="st1" points="50.212,222.049 49.659,221.497 48.831,223.429 48.003,223.429 46.346,223.291 45.794,223.429 
		46.208,223.843 47.036,223.982 47.589,224.672 48.417,224.948 50.488,222.601 	"/>
	<polygon class="st1" points="58.219,223.705 57.805,224.534 58.357,225.086 59.047,224.81 59.185,223.982 58.771,223.291 	"/>
	<polygon class="st1" points="54.077,224.948 53.525,224.81 54.353,223.843 53.801,223.567 52.697,223.429 52.144,224.534 
		49.107,226.466 50.212,226.881 51.04,226.466 51.868,227.157 52.697,226.605 54.077,226.466 54.767,227.019 55.596,227.295 
		56.286,226.743 57.529,226.881 58.909,226.605 55.044,224.948 	"/>
	<polygon class="st1" points="9.899,198.027 9.071,197.199 8.242,197.889 8.242,199.546 10.037,199.684 	"/>
	<polygon class="st1" points="9.899,200.788 7,201.202 7.138,201.616 7.414,202.169 8.104,201.616 8.933,201.754 9.899,202.169 
		10.313,201.34 11.142,200.926 11.418,200.236 11.004,199.684 	"/>
	<polygon class="st1" points="23.153,208.243 21.91,208.657 21.496,207.415 19.563,207.277 19.839,208.105 23.291,211.142 
		23.981,209.347 24.809,209.209 24.395,208.381 	"/>
	<polygon class="st1" points="30.055,211.971 28.399,211.142 27.708,211.418 26.742,211.418 26.19,211.694 27.708,212.799 
		27.708,214.179 30.193,215.974 30.746,215.422 31.16,215.974 32.54,216.665 31.574,213.627 	"/>
</g>
<polygon class="st1" points="394,167.623 387.725,166.695 384.933,161 382.111,166.681 375.832,167.576 380.363,172.016 
	379.274,178.264 384.896,175.327 390.503,178.293 389.447,172.039 "/>
</svg>
