<?xml version="1.0" encoding="utf-8"?>
<!-- Generator: Adobe Illustrator 23.0.1, SVG Export Plug-In . SVG Version: 6.00 Build 0)  -->
<svg version="1.1" id="Layer_1" xmlns="http://www.w3.org/2000/svg" xmlns:xlink="http://www.w3.org/1999/xlink" x="0px" y="0px"
	 viewBox="0 0 500 250" style="enable-background:new 0 0 500 250;" xml:space="preserve">
<style type="text/css">
	.st0{opacity:0.75;fill:#FF767D;enable-background:new    ;}
</style>
<polygon class="st0" points="77.415,165.065 71.472,165.269 69.628,167.522 69.218,167.933 68.603,168.548 68.603,168.752 
	68.192,170.188 68.192,170.391 67.988,171.212 182.135,226.749 247.301,233.511 268,33.09 118.195,16.489 114.099,42.105 
	112.869,44.565 110.612,48.458 106.925,50.303 103.85,49.894 103.032,49.073 101.597,46.614 100.573,45.384 98.728,45.59 
	96.064,44.156 94.014,44.565 91.965,45.384 91.76,45.384 91.35,47.843 92.169,52.763 91.554,53.581 90.53,57.68 90.939,63.214 
	90.12,65.673 90.12,66.901 91.554,69.772 91.554,70.591 91.35,75.305 91.554,78.173 90.939,79.403 89.916,80.427 89.097,82.887 
	88.686,83.297 87.867,87.191 89.506,91.288 91.554,93.748 93.399,102.766 96.268,105.838 99.343,108.709 97.703,113.626 
	93.605,116.085 89.301,117.725 89.097,118.545 87.456,120.8 85.611,122.233 85.611,123.668 84.792,125.717 84.792,126.538 
	85.201,128.791 84.792,131.251 83.768,132.275 81.718,137.194 79.464,139.449 79.464,139.243 77.824,141.291 76.801,141.702 
	75.98,143.547 76.595,146.211 75.775,149.079 74.956,150.515 75.571,151.948 80.899,155.228 81.309,160.351 78.643,163.014 "/>
</svg>
