<?xml version="1.0" encoding="utf-8"?>
<!-- Generator: Adobe Illustrator 23.0.1, SVG Export Plug-In . SVG Version: 6.00 Build 0)  -->
<svg version="1.1" id="Layer_1" xmlns="http://www.w3.org/2000/svg" xmlns:xlink="http://www.w3.org/1999/xlink" x="0px" y="0px"
	 viewBox="0 0 500 250" style="enable-background:new 0 0 500 250;" xml:space="preserve">
<style type="text/css">
	.st0{opacity:0.75;fill:#FF767D;enable-background:new    ;}
</style>
<polygon class="st0" points="296.515,74.307 299.485,71.006 299.813,70.678 301.793,67.708 304.103,66.387 305.093,64.407 
	303.772,62.758 303.113,58.471 305.421,55.832 309.712,54.842 310.699,54.842 312.351,51.872 311.03,49.561 312.351,46.591 
	314,45.273 313.669,44.942 283.318,47.912 281.338,47.912 280.679,46.263 281.997,40.983 282.328,40.324 283.977,37.685 
	284.636,36.695 286.287,35.374 286.287,35.046 287.936,31.745 288.926,31.417 289.254,31.086 291.234,29.765 292.224,27.457 
	293.545,26.468 292.555,24.157 293.214,23.167 291.565,22.508 289.254,20.528 289.254,18.879 288.265,18.22 71.506,34.387 
	83.713,92.451 84.703,101.029 87.342,194.4 89.653,197.698 90.312,198.357 92.95,198.357 93.281,198.688 98.559,197.367 
	109.448,198.688 112.746,229.042 258.572,219.802 259.231,219.474 255.933,214.524 259.562,211.226 261.211,211.554 
	261.211,211.226 260.883,210.236 258.572,207.266 258.244,206.935 257.254,202.976 255.602,201.986 253.953,200.009 
	251.973,196.377 252.963,193.738 251.973,192.089 253.622,187.47 253.953,187.139 250.984,183.511 254.284,179.223 254.284,178.561 
	256.923,174.604 258.244,174.273 257.582,172.952 258.572,169.323 256.923,168.005 256.592,165.036 259.231,163.056 
	261.873,161.407 262.201,161.407 264.84,159.758 261.873,155.798 263.853,153.159 262.201,150.189 263.853,147.551 268.141,146.889 
	270.779,144.25 270.448,141.611 275.07,138.641 277.378,138.31 279.027,137.32 279.689,136.992 279.027,133.363 280.348,130.063 
	279.689,129.735 277.709,124.454 277.709,123.795 278.368,120.825 278.368,120.494 279.027,117.527 279.027,116.865 
	280.348,113.898 282.656,112.908 281.997,110.598 285.957,107.3 289.585,108.618 289.916,109.277 291.234,108.949 291.234,108.618 
	292.555,106.969 289.916,103.999 290.906,99.049 294.204,97.731 294.535,97.731 295.525,97.731 295.853,96.742 298.823,91.792 
	299.154,90.143 295.194,85.852 296.515,82.885 295.194,81.895 294.535,77.605 296.184,74.635 "/>
</svg>
