<?xml version="1.0" encoding="utf-8"?>
<!-- Generator: Adobe Illustrator 23.0.1, SVG Export Plug-In . SVG Version: 6.00 Build 0)  -->
<svg version="1.1" id="Layer_1" xmlns="http://www.w3.org/2000/svg" xmlns:xlink="http://www.w3.org/1999/xlink" x="0px" y="0px"
	 viewBox="0 0 500 250" style="enable-background:new 0 0 500 250;" xml:space="preserve">
<style type="text/css">
	.st0{opacity:0.75;fill:#FF767D;enable-background:new    ;}
</style>
<polygon class="st0" points="121.696,132.468 125.683,132.867 126.613,134.376 126.836,134.893 127.19,135.389 127.573,136.857 
	127.538,138.259 126.08,142.433 124.643,143.529 124.432,144.685 124.724,145.61 124.215,145.003 124.548,148.574 124.878,148.935 
	124.662,149.252 125.124,149.589 125.808,150.442 127.788,151.762 127.965,152.01 129.129,152.499 129.289,153.447 130.202,155.657 
	130.51,155.881 131.828,156.481 132.816,159.935 133.941,160.99 134.579,161.573 135.355,162.97 135.584,164.326 135.806,164.845 
	136.223,164.908 136.793,165.086 138.642,166.428 138.795,166.54 139.31,167.984 139.795,168.456 141.096,169.758 141.226,169.735 
	142.961,170.399 143.847,174.85 143.504,176.028 143.943,176.228 144.691,176.653 146.511,177.023 148.074,178.278 148.536,178.614 
	148.365,179.204 148.406,181.85 147.414,183.983 147.46,184.254 148.407,185.062 148.055,187.779 147.969,188.073 148.226,190.402 
	147.537,191.923 149.315,192.86 150.709,194.703 152.808,194.325 156.442,194.23 159.641,194.772 159.618,194.637 162.122,195.861 
	163.719,195.714 165.014,196.178 165.146,196.155 166.258,195.535 170.382,196.748 171.591,197.508 172.692,198.427 
	173.657,198.533 173.925,199.322 174.318,199.252 175.916,202.316 176.093,202.563 177.018,203.235 177.942,203.907 
	181.387,205.102 182.243,205.367 183.932,205.76 187.714,204.941 187.866,205.052 189.71,205.559 191.381,206.655 192.779,209.336 
	192.934,212.661 195.085,213.391 195.324,213.207 195.558,212.188 196.214,212.069 197.856,212.193 202.262,215.869 
	202.677,215.934 205.428,217.813 206.906,219.363 210.933,222.408 215.048,228.372 216.144,231.666 216.386,237.909 
	217.595,238.668 218.279,239.522 219.039,241.62 268.279,236.245 270.925,235.909 271.867,235.878 273.251,233.674 273.137,232.997 
	272.909,231.641 272.487,230.74 272.332,230.628 270.32,230.71 268.865,229.296 268.56,226.697 268.84,225.948 268.88,225.383 
	268.611,224.593 268.308,221.994 268.062,221.34 269.91,219.471 270.429,218.54 271.187,217.425 271.489,216.812 271.809,215.498 
	272.23,213.187 272.178,212.078 271.973,210.86 272.068,209.026 272.045,208.89 273.163,205.896 273.574,205.123 275.415,202.417 
	276.55,201.934 278.25,200.79 279.703,198.992 279.172,198.249 277.17,196.794 276.377,196.099 274.847,193.441 273.826,191.391 
	273.18,189.97 272.672,189.363 272.034,188.779 270.396,186.282 269.46,183.937 269.472,182.398 269.449,182.262 164.249,85.837 
	168.133,13.487 92.122,9.994 91.763,11.875 90.772,14.009 91.233,14.345 92.409,16.507 92.98,19.896 93.049,20.302 93.483,22.878 
	90.582,30.523 91.456,33.299 90.425,35.999 89.063,38.339 85.728,43.409 84.371,46.586 85.022,48.844 84.926,50.677 86.249,52.115 
	87.681,53.393 88.959,54.559 89.65,56.251 90.82,57.577 90.951,57.553 91.128,57.8 91.151,57.936 92.68,60.594 92.858,60.842 
	93.811,62.485 93.645,63.912 94.44,67.819 94.463,67.955 92.924,73.26 93.175,74.751 93.564,77.055 94.031,78.228 94.209,78.475 
	94.74,82.431 93.874,83.703 94.273,84.469 94.69,84.535 95.243,85.412 95.774,86.154 97.229,87.569 97.475,88.222 98.752,89.39 
	99.62,91.329 100.658,92.679 104.869,96.808 105.497,98.93 105.629,98.907 106.776,100.096 106.964,102.018 107.142,102.266 
	107.222,104.345 107.245,104.481 107.011,105.501 106.772,105.684 107.473,105.837 108.945,106.549 110.315,108.258 
	110.776,108.595 112.733,109.778 113.149,109.844 113.543,109.772 113.777,108.753 113.389,106.448 113.673,106.537 
	114.107,105.899 116.062,103.871 118.623,103.829 118.955,104.189 119.547,104.5 119.702,104.613 120.632,106.122 118.158,109.08 
	118.728,109.258 119.419,110.949 119.322,112.781 121.023,114.85 122.273,118.256 121.556,122.017 120.739,121.187 118.783,120.002 
	118.144,119.419 117.574,119.242 116.085,119.232 116.302,118.913 114.767,118.63 114.727,119.196 114.881,119.308 116.149,122.014 
	116.133,125.927 116.116,126.628 116.339,127.147 116.892,128.024 119.168,131.107 121.61,132.762 "/>
</svg>
