<?xml version="1.0" encoding="utf-8"?>
<!-- Generator: Adobe Illustrator 23.0.1, SVG Export Plug-In . SVG Version: 6.00 Build 0)  -->
<svg version="1.1" id="Layer_1" xmlns="http://www.w3.org/2000/svg" xmlns:xlink="http://www.w3.org/1999/xlink" x="0px" y="0px"
	 viewBox="0 0 500 250" style="enable-background:new 0 0 500 250;" xml:space="preserve">
<style type="text/css">
	.st0{opacity:0.75;fill:#FF767D;enable-background:new    ;}
</style>
<path class="st0" d="M366.174,111.053l-5.617-70.828c-73.072-3.851-47.063-2.499-113.187-4.31l-1.48,0.816l-9.13,1.093
	c-4.636-1.361-10.423-3.061-15.389-3.258l-3.815,0.141l-1.161-0.341l-5.856,7.089l-19.543-1.965l-2.454-4.494
	c-58.496-2.083-36.3-0.6-94.117-4.996l-7.702,146.144l15.064,25.805L61,225.186l4.426,6.335l4.977,0.2
	c2.992-1.634,7.486-4.087,11.981-6.541l3.815-0.141c2.654-0.482,4.154-1.293,6.807-1.775l1.502-0.82
	c1.502-0.82,2.992-1.634,4.495-2.454l1.502-0.82l10.15-4.567c5.315-0.952,10.622-1.916,15.937-2.867l1.84-1.972l15.937-2.867
	l2.313,0.679c0.679-2.313,2.181-3.133,3.674-3.956c1.84-1.972,4.012-5.108,6.194-8.241l4.636,1.361l3.202-6.607l3.474,1.02
	l0.679-2.313l3.815-0.141l10.829-6.88l12.935-1.237l0.272,7.627c2.654-0.482,5.315-0.952,6.807-1.775l4.154-1.293
	c3.474,1.02,9.261,2.72,11.574,3.399c10.817-6.873,8.155-6.403,14.963-8.178l10.764,1.899l4.295,2.523l4.154-1.293l2.654-0.482
	l12.935-1.237c8.109,2.381,3.474,1.02,8.109,2.381c3.815-0.141,6.807-1.775,10.96-3.067c1.161,0.341,6.128,0.538,6.466-0.613
	l4.495-2.454l10.829-6.88l6.466-0.613l2.454,4.494l11.784-1.575l4.977,0.2c0,0,15.596-1.706,16.747-1.368l6.466-0.613
	c-0.482-2.654,0.069-8.789-0.076-12.594l8.169-6.41L366.174,111.053z"/>
</svg>
