<?xml version="1.0" encoding="utf-8"?>
<!-- Generator: Adobe Illustrator 23.0.1, SVG Export Plug-In . SVG Version: 6.00 Build 0)  -->
<svg version="1.1" id="Layer_1" xmlns="http://www.w3.org/2000/svg" xmlns:xlink="http://www.w3.org/1999/xlink" x="0px" y="0px"
	 viewBox="0 0 500 250" style="enable-background:new 0 0 500 250;" xml:space="preserve">
<style type="text/css">
	.st0{opacity:0.75;fill:#FF767D;enable-background:new    ;}
</style>
<path class="st0" d="M126.514,115.993l0.108-0.958l0.108-0.958l-3.546-6.127l-1.768-3.063c-1.876-2.105-3.869-3.261-7.943-4.611
	l-1.983-1.154c-4.91-3.358-10.547-9.681-14.2-14.85c-0.942-1.057-2.927-2.204-4.91-3.358L88.223,70.87
	c0.215-1.908,1.481-3.727,1.696-5.635l-1.768-3.063l-0.942-1.057l-7.298-10.337c0.215-1.908,1.481-3.727,1.696-5.635l5.879-5.243
	l0.646-5.734l2.306-1.712l3.788-5.439c1.158-0.86,3.465-2.572,4.73-4.382l1.696-5.635l-11.729,0.827l-15.95,10.092l-3.168,9.355
	l53.635,200.081l82.56-9.634l-0.619-3.924l-0.835-2.007l-2.496-6.028l-0.404-5.832l-2.28-7.937
	c-1.66-4.022-3.222-8.994-3.725-13.867l-11.408-2.04l-7.01-3.555l-3.869-3.261l-1.983-1.154l-0.942-1.057l-7.01-3.555l-3.441-7.053
	l-4.802-4.316l-1.66-4.022l-1.445-5.93l0.108-0.958l-3.761-4.219l-8.374-0.786l-1.983-1.154l-2.937-2.188l-6.795-5.464l-1.553-4.972
	l0.108-0.958l-0.835-2.007l-1.445-5.93l1.481-3.727L126.514,115.993L126.514,115.993z"/>
</svg>
