<?xml version="1.0" encoding="utf-8"?>
<!-- Generator: Adobe Illustrator 23.0.1, SVG Export Plug-In . SVG Version: 6.00 Build 0)  -->
<svg version="1.1" id="Layer_1" xmlns="http://www.w3.org/2000/svg" xmlns:xlink="http://www.w3.org/1999/xlink" x="0px" y="0px"
	 viewBox="0 0 500 250" style="enable-background:new 0 0 500 250;" xml:space="preserve">
<style type="text/css">
	.st0{opacity:0.75;fill:#FF767D;enable-background:new    ;}
</style>
<path id="Florida" class="st0" d="M318.562,24.406V23.66l-0.253-0.248l-0.76-1.492v-0.746v-0.498h-0.254l-2.027-1.989
	c0.253-0.746,0.253-1.492,0-2.239c-0.76-1.243-0.507-0.995-0.76-1.492v-0.748l0.253-1.243l-0.253-0.995
	c-0.253,0-0.76-0.248-0.76-0.248c-0.507,0-1.014,0.248-1.267,0.498l-1.014,0.248h-0.507l-0.507-0.248h-0.507l-1.014,0.248h-0.507
	l-1.014-0.248h-0.253c-0.507,0-1.267,0-1.774,0h-0.76l-1.267-0.248l-0.507-0.248l-2.027-0.248l0,0l-1.774,0.248h-0.253l-2.027-0.498
	h-0.507v0.248l-1.774,1.492v0.248l0.253,0.746l-0.253,1.492c0.507,0.746,1.267,2.239,2.027,2.985l0.76,2.487
	c0,0.248,0,0.746,0,1.989l0.253,0.995c0,0.746-0.253,1.492-0.253,2.487c0,1.243,0,0.995,0,3.482l-1.014,1.243l-2.027,0.498h-0.253
	l-1.014-0.248l-2.027,0.746l-2.28-0.746l-0.253-0.248l-1.267-1.492l-0.76-2.487v-0.746v-0.25c-0.507-0.498-0.253-0.248-0.507-0.498
	l-1.014-1.492L177.456,34.85l-0.76-0.498l-0.76-0.746l-0.253-0.248l-1.267-0.746l-0.253-0.248l-0.76-1.989l-0.76-1.492v-0.747
	v-0.248v-0.248l-0.253-0.498l-0.507-0.498l-0.253-0.248l-1.014-1.243l-0.253-0.746l0,0l-0.76-0.746L68.017,37.089l0,0l-0.507,1.989
	l-0.507,0.995l-0.253,0.498l0.507,0.498l1.014,0.746l0.76,0.498l1.267,1.243v0.248l1.014,0.746l0.253,0.248l1.267,0.498l0.507,0.248
	l1.267,0.498l2.027,1.989l0.507,2.985l-0.507,0.995l0,0v0.248l-0.507,1.492l-0.253,0.498l0.507,0.746v0.248l0.507,0.248l2.027,1.492
	l-1.014,2.985l-0.253,0.248l0.253,0.498h0.507h0.253l1.014-0.248h0.76h0.76l0.76-0.248l2.28-0.498l1.774-0.248l1.267-0.498h0.253
	l2.027-0.498l0.76-0.498l1.267-0.746h0.76l0.76,0.248h0.253h0.507l0.507-0.248l1.774-0.746l0.76-0.248l3.04-0.248h0.507l0.253-0.248
	l2.28-0.746h0.507l1.014-0.248h0.76l2.28-0.248h3.04h0.507h2.533l3.04-0.498h0.253h1.014h1.014h0.253h0.507l2.533,0.248l0.253,0.248
	h1.267c2.533,0.248,5.32,0.746,7.6,1.243h0.76l4.307,0.498l0.76,0.248h0.507c0.76,0.498,2.786,1.243,3.547,1.989h0.253l3.04,0.995
	c0.253,0.248,0.253,0.248,1.014,0.746c0.76,0.248,1.267,0.498,2.28,0.746l1.267,0.995h0.253h0.76l2.786,0.746h1.014
	c0.507,0.746,0.507,0.995,1.014,1.492c0.507,0.498,1.014,0.995,1.774,1.492c0.507,0,1.014,0,1.774,0.248h0.253l3.04,0.498
	c1.267,0.995,3.293,2.735,3.293,2.735c1.267,1.243,1.267,0.995,2.027,1.989l1.014,2.487c0,0.746,0,0.995,0,1.989
	c0,0.248,0,0.498,0,0.995v0.248c0.76-0.248,2.533-0.498,3.293-0.746l0.76-0.498l2.533-0.746h0.507c0.253,0,2.28,0,2.533,0
	l1.014-0.498l0.76-0.995l3.04-2.239l1.014,0.248l0.76,0.498c0.76-0.498,0.507-0.498,2.533-1.492l0.76-0.248
	c0.253-0.248,0.507-0.498,0.76-0.746l2.027-1.243l0.76-0.498c2.533-2.239,1.774-1.492,3.8-3.233l2.28-0.995c0.253,0,0.507,0,0.76,0
	l1.774-0.746c1.774,0.498,1.267,0.498,2.533,0.746l-0.253-0.498l-1.014-1.243l-0.253-1.989l0.507-2.735
	c2.28-1.243,0.76-0.498,2.786-1.989l0.507-0.746l3.293-0.248h0.253l1.267,0.248l0,0c0.507-0.248,1.014-0.248,1.774-0.498
	c0.507-0.248,1.014-0.746,2.027-0.746l2.28-0.498h1.774l2.533,0.995l0.253,0.248l0.76,0.248l1.774,0.995h0.253h1.267
	c1.267,0.498,2.533,0.995,3.8,1.243c0.507,0,1.014,0.248,1.774,0.498l0.76,0.498l1.267,0.498c0.507,0.248,0.76,0.248,1.267,0.498
	l2.027,0.995l0.76,0.995l0,0l0.507,0.498l1.774,2.239l0.253,0.498l0,0c0.76,0.746,0.507,0.746,1.014,1.243l0,0l0.76,0.248
	l2.027,0.995v0.248l1.014,0.248h0.507l2.28,0.995l0.507,0.746l0.253,0.498l0.507,2.487c0,0.995,0,0.746,0.253,1.492l0.253,0.248
	c2.786,0.995,1.014,0.248,3.293,1.492l1.014,0.746l0,0h0.76l2.533,0.746h0.253l0.253,0.995l1.014,1.243l0,0l0.76,1.243l0.253,0.248
	l0.253,0.746l0,0l1.774,0.248l0.253,0.248l0,0l2.786,1.492l0.253,1.989l0.253,0.248l2.28-0.746c1.267,0,2.786,0,4.053-0.248
	l2.026-0.248h0.507l0,0l2.28,0.995l0.76,1.989v0.498l2.027,0.995c0.507,0.746,0.76,1.492,1.014,2.735l1.267,1.243v0.248
	c0.76,0.498,1.774,0.995,2.28,1.243l2.027,2.735v1.492l0.507,1.989v1.492l0.507,1.989v0.248v1.492c0,0.498,0,0.746,0,1.243
	l0.507,0.248v0.498l0.253,0.995c0,0.248,0,0.248,0,0.498c0,0.995,0.253,2.239,0.507,3.233c0,0.746,0,1.492-0.253,2.239l-0.76,1.989
	c0.253,0.498,0.253,1.243,0.253,2.239l-0.507,1.492c-0.253,1.243-0.253,1.492-0.253,2.985l-0.507,0.746v1.243
	c-0.253,0.498-0.507,0.995-0.76,1.492c0.253,0.746,0.76,2.735,1.014,3.482c0,0.248,0,0.248,0,1.243v0.248l0.253,1.243v0.248v0.248
	l2.28-0.498h0.253c2.533-0.746,1.774-0.498,3.547-1.243h2.533c0.253,0.248,2.027,0.995,2.28,0.995c1.014,0.248,3.04,0.498,3.8,0.498
	l3.293,2.487l0.253,2.735c-0.76,2.239-0.507,1.243-1.014,3.233l-0.76,1.243l-0.507,0.498c-0.76,1.492-0.507,0.995-1.267,2.487
	l-0.507,0.498c-0.253,0.746-0.507,1.492-0.76,2.487l-1.267,2.239c-0.253,0-0.253,0.248-0.507,0.248c0,0-0.253,0.746-0.253,0.995
	l-1.014,1.492l-0.507,0.995l-0.253,0.498l0.253,0.498c1.267,0.995,4.307,3.73,5.827,4.974c0.253,0.746,0.253,0.498,0.507,0.995
	c0.253,0.248,0.76,0.248,1.014,0.498l1.014,0.498c0.253,0.248,1.267,1.989,1.774,2.239c0.253,0.248,1.014,1.492,1.267,1.989
	l0.253,0.498l0,0c2.533,3.482,0,0,2.533,3.482l0.507,0.746c0.507,0.498,0.76,0.995,1.267,1.243l1.014,0.995l1.014,0.995
	c0.507,0.746,1.267,1.243,2.28,1.989l2.027,1.989v0.248h1.014h0.253l0,0l0,0l-0.253-0.746c-0.253-0.498-0.507-0.746-1.014-1.243
	l-0.507-1.989l2.027-2.239l0.507-0.248l0.76-0.995l2.533-0.746l2.786,2.239l-0.253,1.243l1.267,2.239
	c0.253,0.746,0.507,1.492,0.253,2.487v0.498l0.253,0.995c-0.76,5.222-0.253,1.243-0.507,4.974l-1.014,1.243v0.248l0.507,1.243
	c0,0,0.253,0.746,0.507,0.746l1.014-0.498h0.253l2.28,0.746l0.253,0.248l1.014,0.498l1.267,0.746h0.253l1.014,0.248l1.267,1.243
	l2.786,2.239c0.76,0.995,1.774,2.487,2.027,3.482l0.253,0.248c1.267,2.735,1.774,3.482,1.774,3.482l0.253,0.995v0.248l0.76,1.492
	c0.253,1.243,1.014,2.487,2.026,3.482l2.027,2.985l0.507,0.746l0.507,0.498l2.786-0.995c1.014,0,0.507,0,2.027,0l1.267-0.498h2.28
	l0,0h1.774c2.533,0.746,3.04,0.995,5.574,1.989l2.533,1.989v1.989l0.507,0.995l0.76,0.248l3.04,1.989
	c0.507,0.498,1.014,1.243,1.774,1.989c0.507,0.995,0.253,0.746,0.507,1.243l0.253,0.248l1.014,1.492
	c0.253,0.248,0,0.248,0.253,0.746l0,0l2.027,1.492l0.507,0.746c0,0,0.76,1.243,1.014,1.243l1.774,2.239l-1.014,2.984l0,0
	c-0.253,0.498-0.253,0.248-0.253,0.746v1.243l0.507,0.746c0.507,0.498,1.014,1.243,1.774,2.239l0.507,0.248l1.774-0.498
	c0.253,0,0.507,0,0.76,0c1.014-0.248,0.507-0.248,2.28-0.498l0,0l0.507-0.248l0.76-0.995l1.774-0.995l3.04-0.498h0.253l1.014-0.248
	l2.786,0.498l1.014-0.995l2.533-1.243l0,0l0.253-1.492l3.8-0.995l1.267,0.248c0.253-0.498,0.76-0.995,1.267-1.243
	c0.253-0.248,0.507-0.498,0.76-0.746c0.76-0.746,1.267-1.989,2.027-2.985c0.253-0.248,0.507-0.498,1.014-0.995
	c-1.774-3.482-0.507-0.995-2.28-4.476l-0.253-0.995l0.507-2.239l0.253-0.746l-0.253-0.995l0.253-1.492l1.774,0.248l-1.267-0.248
	l0.76-1.243l0.253-0.746v-1.989l0.76-1.989c1.014-0.746,2.533-1.243,3.547-1.989v-0.248c-0.507-1.989-0.76-3.482-1.014-5.471
	c-0.253-0.995-0.253-2.239-0.507-2.985l-0.253-0.498l-0.76-3.233c0-1.243,0-0.746,0-2.239c-0.253-1.492-0.507-3.482-0.76-5.222
	c0-5.471,0-0.746-1.014-10.694c0-0.995-0.253-4.476-0.507-5.72l-0.507-1.492c-0.253-0.995-0.253-2.487-0.507-3.482
	c-0.253-1.492-1.014-2.984-2.027-4.228l-2.027-2.984c-0.76-1.243-0.507-0.995-1.014-2.239l-2.28-2.985
	c-0.507-0.498-1.774-2.239-2.28-2.735l-0.253-1.243l-0.507-0.746c-0.76-0.746-0.507-0.498-1.014-1.243
	c-1.014-1.243-2.28-2.487-3.04-3.73c-1.267-1.989-2.786-3.73-3.8-5.968h-0.253l-1.267-1.492l-0.507-1.243l-0.76-0.995
	c-0.76-0.746-1.267-1.492-2.027-2.735c-0.507-0.995-0.76-1.243-1.774-2.735c-0.507-0.498-1.267-1.492-1.774-2.239
	c-0.76-1.243-0.76-0.995-1.014-1.492l-0.253-0.498c-0.507-0.498-1.267-0.995-1.774-1.989c-0.507-0.498-1.774-2.239-1.774-1.989
	c-0.76-0.746-1.774-1.492-2.28-2.735c-1.267-1.492-2.533-3.233-3.547-5.222l-0.253-0.498l-0.507-1.492v-0.746
	c-0.507-0.995-1.014-2.487-1.774-3.482l-0.507-1.243c0-0.746,0-1.243,0-2.239v1.243v-2.487c0.507-0.746,0.76-0.995,1.774-2.487
	l-0.253-0.248l-0.507-0.746l-1.267-2.239l-0.76-0.746c-0.76-0.498-5.827-4.974-6.333-5.471l-0.76-0.746l-1.014-0.746
	c-2.027-1.989-3.8-3.73-5.574-5.968c-1.014-0.746-2.28-1.989-3.293-2.985l-0.253-0.498l-0.507-0.746
	c-1.267-0.995-2.533-2.239-3.547-3.233l-0.507-0.498l-2.027-2.735l-0.76-1.243c-0.253-0.498-0.507-0.995-1.014-1.243
	c-0.253-0.498-1.774-1.989-2.027-2.487c-1.014-1.243-2.28-2.735-2.28-2.735c-0.507-0.995-0.253-0.498-1.014-2.239l-1.014-0.746
	l-0.507-1.243h-0.253c-0.76-0.746-1.774-1.492-2.28-2.735l-0.507-1.243c-0.253-0.248-1.267-1.492-1.014-1.243
	c-0.253-0.746-0.76-1.492-1.267-2.239l-0.507-0.995c0-0.248-0.253-0.498-0.253-0.498s-0.507-0.746-0.76-1.492l-0.76-2.239v-0.245
	l-0.507-0.498l-1.774-2.487c-1.267-1.492-2.28-3.482-2.786-5.72c-0.76-1.243-0.507-0.746-1.774-2.487
	c-0.507-1.989-1.267-3.73-2.28-5.471l-0.253-0.248l-0.76-1.492C319.069,26.146,319.069,25.152,318.562,24.406z"/>
</svg>
