<?xml version="1.0" encoding="utf-8"?>
<!-- Generator: Adobe Illustrator 23.0.1, SVG Export Plug-In . SVG Version: 6.00 Build 0)  -->
<svg version="1.1" id="Layer_1" xmlns="http://www.w3.org/2000/svg" xmlns:xlink="http://www.w3.org/1999/xlink" x="0px" y="0px"
	 viewBox="0 0 500 250" style="enable-background:new 0 0 500 250;" xml:space="preserve">
<style type="text/css">
	.st0{opacity:0.75;enable-background:new    ;}
	.st1{fill:#FF767D;}
	.st2{fill:#51C4DB;}
</style>
<g class="st0">
	<path class="st1" d="M49.374,32.577c-0.288,0-0.288,0-0.577,0l-1.442,0.865l-0.577,1.73l-1.442,1.442l-2.885,0.865l-0.865,0.577
		l-4.327,5.48v1.442l1.153,1.442l1.153,0.577l0.29,0.867l1.442-0.865l1.153-3.174l1.442-1.442l4.327-1.153l1.153-1.153
		c0.577-1.73,0.865-4.039,1.153-5.769l-0.288-1.153L49.374,32.577z"/>
	<path class="st1" d="M92.351,17.288L91.486,17c-0.577,0-6.346,1.442-7.211,1.442s-3.462-0.865-4.327-0.865l-1.153,0.577
		l-1.442,2.018l-1.442,0.865l-4.616,1.153l-1.153,0.865l-0.865,3.174c-0.867,1.442-1.444,2.885-2.597,4.327v1.153l1.442,2.018
		l0.577,0.577l4.039,1.442c0.865,0.577,0.288,0,4.616,3.751l0.865,0.288H83.7c1.153,0.288,3.751,1.153,4.616,1.153l1.442-1.151
		l4.904-4.039l0.288-1.442l-0.865-2.018v-1.73l1.442-2.885c0.577-2.018,0.865-4.039,1.153-6.057l-0.577-1.442L92.351,17.288z"/>
	<path class="st1" d="M196.774,78.438l-0.865-0.865l-1.442-2.595l-0.288-2.018l0.288-1.153v-1.153l-1.153-0.865
		c-0.288,0-0.288,0-0.577,0l-0.577,0.288c0,0.577-0.288,1.153-0.288,2.018l-1.153,0.577h-0.288l-1.153-0.865
		c-0.288-0.577-0.288-0.288-1.73-1.73l-0.577-2.595l0.577-1.153l-0.288-1.442l-1.442-1.153l-0.865-1.153l-1.442-4.039l-0.288-0.577
		l-3.751-4.327l-1.153-0.577c-0.865,0,0-0.288-4.904,1.73l-0.865,0.865l-1.442,3.751l-2.018,1.442h-4.904
		c-0.865,0-1.442,0.288-2.307,0.577l-0.865,0.865l0.288,1.153l0.865,1.153c0.577,1.155,0.288,0.288,0.865,3.751l0.288,0.288
		l1.153,0.577l1.153,1.442l0.288,1.442l0.577,0.865l1.73,1.442l1.153,1.442l0.865,3.462l1.442,1.153c0.288,0,2.018,0,2.018,0
		c0.865-0.288,0,0.288,3.751-2.018l1.442-0.288c0.288,0,0,0,4.327,0.865c1.153,0.577,0-0.288,5.769,3.751l0.577,0.288
		c0.288,0.288,5.192,0.865,5.481,0.865l1.44-0.293l2.018-2.307l0.288-1.153l-0.577-0.865L196.774,78.438z"/>
	<path class="st1" d="M255.909,89.404h-0.288l-4.904,1.442c-1.153,0.288-0.288,0.288-5.481-0.865l-1.442-1.442
		c-0.288-1.153-0.288-0.865-0.577-1.153l-0.577-0.288l-0.577,0.288l-2.018,1.153l-1.153-0.288c-0.577,0-0.865-0.288-1.153-0.288
		c-8.655-0.865-7.501-0.865-8.078-0.865c-5.192-1.442-4.616-1.442-4.904-1.442l-0.577,0.288c-0.577,0.865-0.865,1.73-1.442,2.595
		l-2.018,1.442l-0.577,1.153l-0.288,1.442l0.288,1.153l0.865,0.577l5.481,0.288h0.288c7.499-1.153,6.346-1.153,6.922-1.153
		c1.153,0.288,0-0.29,6.057,2.595c2.018,0.865,4.039,1.73,6.057,2.307c1.442-0.288,2.885-0.865,5.479,0.002
		c0.577-0.288-0.288,0.288,6.057-4.616l0.577-0.865l0.288-1.153l-0.577-1.442C256.486,89.404,256.774,89.692,255.909,89.404z"/>
	<path class="st1" d="M246.105,106.136l-0.577-0.288l-5.481-1.442c-0.577,0,0-0.288-4.616,1.153l-1.153,1.442v0.577l1.153,1.442
		l1.442,0.288l1.153,0.577l1.442,1.442l0.865,2.018l-0.577,2.595l0.288,0.865l0.865,1.442l1.153,0.577l5.485-1.438l1.153-0.577
		l2.307-4.039l-0.288-1.442L246.105,106.136z"/>
	<path class="st1" d="M269.177,130.942l0.288-0.577l-0.577-1.442l-0.865-0.577l-0.577-0.288l-0.865,0.288l-3.174,2.307
		c-0.865,0.577-1.73,0.865-2.595,0.865l-0.577,0.288l-1.153,0.865l-0.288,1.442v0.288l1.153,0.865h0.288l2.885-0.577
		c0.288,0,0.577,0,0.865,0c0.288,0,4.039,0.577,4.327,0.577l1.44-0.577l0.577-0.865v-0.577l-0.288-0.288L269.177,130.942z"/>
	<path class="st1" d="M302.64,124.019l0.865-0.577l2.018-3.462v-1.153l-1.442-3.462l-0.865-0.865l-5.481-2.018l-1.153-0.865
		l-1.442-1.442l-0.577-0.577l-2.018-0.865l-1.153-0.865l-3.174-3.751l-1.153-0.577h-0.288c-1.73,0.288-3.462,0.577-5.192,0.865
		c-5.769,2.307-4.616,2.018-5.769,2.307c-0.288,0-1.442,0-1.73,0l-1.73-1.153l-2.307-3.462c-1.153-1.444-3.174-2.597-4.616-4.039
		l-0.865-0.288c-1.155,0-2.309,0.577-3.462,0.865l-0.865,0.577l-2.018,4.039v1.442l5.192,8.078l0.577,0.577
		c4.904,2.307,4.039,1.73,4.904,2.018h0.577c0.865-0.577,1.442-0.865,2.307-0.865l1.442,0.865l0.865,0.865l0.865,1.442l0.865,5.192
		c0,1.444,0,2.597-0.288,4.039l1.153,1.442c6.346,1.442,5.481,1.442,6.057,1.442s-0.288,0.288,7.211-2.883
		c2.307-0.288,4.904-0.577,7.211-0.577l0.865-0.288l1.442-1.153C300.621,124.308,300.045,124.596,302.64,124.019z"/>
	<path class="st1" d="M376.78,198.734l-5.481-2.885l-1.153-1.442l-0.288-0.865l-0.288-0.577l-1.442-1.442l-0.865-1.442l-0.577-3.462
		l-1.442-1.153c-0.577,0-2.885,0.288-3.462,0.288l-1.73-0.865l-0.288-2.018c0.288-2.018,0.288-4.039,0-6.057l-0.288-1.153
		l-8.366-7.79c-0.577-0.288,0.577,0.288-10.384-4.904l-8.078-4.039c-0.577,0,0,0-4.039,0l-1.73-1.153l-1.442-2.018l-0.577-0.577
		l-3.174-1.153l-1.153-0.865l-2.595-3.174l-1.153-0.577c-1.155,0.288-1.732,0.288-2.597,0c-1.155-0.577-2.02-0.865-3.174-1.153
		l-1.153,0.577l-1.73,2.018l-0.288,0.865v4.616l0.288,0.865l4.039,4.904l0.577,1.442v3.462l-0.577,1.442l-4.616,6.634l-1.73,1.153
		h-1.442l-1.153,0.577l-5.192,7.211v1.442l1.442,1.73l0.577,1.442v0.288l0.288,0.865l2.595,2.885l0.577,1.73l-0.288,3.751
		l0.577,1.153l1.73,1.442l0.865,1.442l0.577,2.595c0,0.577-0.29-0.288,2.595,6.346v1.442c-1.732,4.904-2.885,10.384-3.462,15.577
		l0.288,1.153l2.307,3.462l1.153,0.577c1.155,0,2.309,0.288,3.462,0.577l6.922,3.751l1.153,1.442l0.577,1.153l1.153,0.865h0.008V242
		l1.153-0.577l5.192-6.346l0.288-0.865v-2.885l1.153-1.73l16.154-10.961l1.153-0.288l6.922-0.577l0.577-0.288l6.922-4.616
		l1.442-0.577c0.865,0,2.018,0.288,2.595,0.288l0.865-0.288l10.096-9.52l0.288-1.442l-0.577-1.73L376.78,198.734z"/>
</g>
<g class="st0">
	<path class="st2" d="M563.718,637.005c-0.138,0-0.138,0-0.276,0l-0.69,0.414l-0.276,0.828l-0.69,0.69l-1.381,0.414l-0.414,0.276
		l-2.071,2.623v0.69l0.552,0.69l0.552,0.276l0.139,0.415l0.69-0.414l0.552-1.519l0.69-0.69l2.071-0.552l0.552-0.552
		c0.276-0.828,0.414-1.933,0.552-2.761l-0.138-0.552L563.718,637.005z"/>
	<path class="st2" d="M584.287,629.688l-0.414-0.138c-0.276,0-3.037,0.69-3.451,0.69s-1.657-0.414-2.071-0.414l-0.552,0.276
		l-0.69,0.966l-0.69,0.414l-2.209,0.552l-0.552,0.414l-0.414,1.519c-0.415,0.69-0.691,1.381-1.243,2.071v0.552l0.69,0.966
		l0.276,0.276l1.933,0.69c0.414,0.276,0.138,0,2.209,1.795l0.414,0.138h2.623c0.552,0.138,1.795,0.552,2.209,0.552l0.69-0.551
		l2.347-1.933l0.138-0.69l-0.414-0.966v-0.828l0.69-1.381c0.276-0.966,0.414-1.933,0.552-2.899l-0.276-0.69L584.287,629.688z"/>
	<path class="st2" d="M634.263,658.954l-0.414-0.414l-0.69-1.242l-0.138-0.966l0.138-0.552v-0.552l-0.552-0.414
		c-0.138,0-0.138,0-0.276,0l-0.276,0.138c0,0.276-0.138,0.552-0.138,0.966l-0.552,0.276h-0.138l-0.552-0.414
		c-0.138-0.276-0.138-0.138-0.828-0.828l-0.276-1.242l0.276-0.552l-0.138-0.69l-0.69-0.552l-0.414-0.552l-0.69-1.933l-0.138-0.276
		l-1.795-2.071l-0.552-0.276c-0.414,0,0-0.138-2.347,0.828l-0.414,0.414l-0.69,1.795l-0.966,0.69h-2.347
		c-0.414,0-0.69,0.138-1.104,0.276l-0.414,0.414l0.138,0.552l0.414,0.552c0.276,0.553,0.138,0.138,0.414,1.795l0.138,0.138
		l0.552,0.276l0.552,0.69l0.138,0.69l0.276,0.414l0.828,0.69l0.552,0.69l0.414,1.657l0.69,0.552c0.138,0,0.966,0,0.966,0
		c0.414-0.138,0,0.138,1.795-0.966l0.69-0.138c0.138,0,0,0,2.071,0.414c0.552,0.276,0-0.138,2.761,1.795l0.276,0.138
		c0.138,0.138,2.485,0.414,2.623,0.414l0.689-0.14l0.966-1.104l0.138-0.552l-0.276-0.414L634.263,658.954z"/>
	<path class="st2" d="M662.565,664.202h-0.138l-2.347,0.69c-0.552,0.138-0.138,0.138-2.623-0.414l-0.69-0.69
		c-0.138-0.552-0.138-0.414-0.276-0.552l-0.276-0.138l-0.276,0.138l-0.966,0.552l-0.552-0.138c-0.276,0-0.414-0.138-0.552-0.138
		c-4.142-0.414-3.59-0.414-3.866-0.414c-2.485-0.69-2.209-0.69-2.347-0.69l-0.276,0.138c-0.276,0.414-0.414,0.828-0.69,1.242
		l-0.966,0.69l-0.276,0.552l-0.138,0.69l0.138,0.552l0.414,0.276l2.623,0.138h0.138c3.589-0.552,3.037-0.552,3.313-0.552
		c0.552,0.138,0-0.139,2.899,1.242c0.966,0.414,1.933,0.828,2.899,1.104c0.69-0.138,1.381-0.414,2.622,0.001
		c0.276-0.138-0.138,0.138,2.899-2.209l0.276-0.414l0.138-0.552l-0.276-0.69C662.841,664.202,662.979,664.34,662.565,664.202z"/>
	<path class="st2" d="M657.873,672.21l-0.276-0.138l-2.623-0.69c-0.276,0,0-0.138-2.209,0.552l-0.552,0.69v0.276l0.552,0.69
		l0.69,0.138l0.552,0.276l0.69,0.69l0.414,0.966l-0.276,1.242l0.138,0.414l0.414,0.69l0.552,0.276l2.625-0.688l0.552-0.276
		l1.104-1.933l-0.138-0.69L657.873,672.21z"/>
	<path class="st2" d="M668.915,684.082l0.138-0.276l-0.276-0.69l-0.414-0.276l-0.276-0.138l-0.414,0.138l-1.519,1.104
		c-0.414,0.276-0.828,0.414-1.242,0.414l-0.276,0.138l-0.552,0.414l-0.138,0.69v0.138l0.552,0.414h0.138l1.381-0.276
		c0.138,0,0.276,0,0.414,0s1.933,0.276,2.071,0.276l0.689-0.276l0.276-0.414v-0.276l-0.138-0.138L668.915,684.082z"/>
	<path class="st2" d="M684.93,680.769l0.414-0.276l0.966-1.657v-0.552l-0.69-1.657l-0.414-0.414l-2.623-0.966l-0.552-0.414
		l-0.69-0.69l-0.276-0.276l-0.966-0.414l-0.552-0.414l-1.519-1.795l-0.552-0.276h-0.138c-0.828,0.138-1.657,0.276-2.485,0.414
		c-2.761,1.104-2.209,0.966-2.761,1.104c-0.138,0-0.69,0-0.828,0l-0.828-0.552l-1.104-1.657c-0.552-0.691-1.519-1.243-2.209-1.933
		l-0.414-0.138c-0.553,0-1.105,0.276-1.657,0.414l-0.414,0.276l-0.966,1.933v0.69l2.485,3.866l0.276,0.276
		c2.347,1.104,1.933,0.828,2.347,0.966h0.276c0.414-0.276,0.69-0.414,1.104-0.414l0.69,0.414l0.414,0.414l0.414,0.69l0.414,2.485
		c0,0.691,0,1.243-0.138,1.933l0.552,0.69c3.037,0.69,2.623,0.69,2.899,0.69s-0.138,0.138,3.451-1.38
		c1.104-0.138,2.347-0.276,3.451-0.276l0.414-0.138l0.69-0.552C683.964,680.907,683.688,681.045,684.93,680.769z"/>
	<path class="st2" d="M720.413,716.527l-2.623-1.381l-0.552-0.69l-0.138-0.414l-0.138-0.276l-0.69-0.69l-0.414-0.69l-0.276-1.657
		l-0.69-0.552c-0.276,0-1.381,0.138-1.657,0.138l-0.828-0.414l-0.138-0.966c0.138-0.966,0.138-1.933,0-2.899l-0.138-0.552
		l-4.004-3.728c-0.276-0.138,0.276,0.138-4.97-2.347l-3.866-1.933c-0.276,0,0,0-1.933,0l-0.828-0.552l-0.69-0.966l-0.276-0.276
		l-1.519-0.552l-0.552-0.414l-1.242-1.519l-0.552-0.276c-0.553,0.138-0.829,0.138-1.243,0c-0.553-0.276-0.967-0.414-1.519-0.552
		l-0.552,0.276l-0.828,0.966l-0.138,0.414v2.209l0.138,0.414l1.933,2.347l0.276,0.69v1.657l-0.276,0.69l-2.209,3.175l-0.828,0.552
		h-0.69l-0.552,0.276l-2.485,3.451v0.69l0.69,0.828l0.276,0.69v0.138l0.138,0.414l1.242,1.381l0.276,0.828l-0.138,1.795l0.276,0.552
		l0.828,0.69l0.414,0.69l0.276,1.242c0,0.276-0.139-0.138,1.242,3.037v0.69c-0.829,2.347-1.381,4.97-1.657,7.455l0.138,0.552
		l1.104,1.657l0.552,0.276c0.553,0,1.105,0.138,1.657,0.276l3.313,1.795l0.552,0.69l0.276,0.552l0.552,0.414h0.004v0.416
		l0.552-0.276l2.485-3.037l0.138-0.414v-1.381l0.552-0.828l7.731-5.246l0.552-0.138l3.313-0.276l0.276-0.138l3.313-2.209l0.69-0.276
		c0.414,0,0.966,0.138,1.242,0.138l0.414-0.138l4.832-4.556l0.138-0.69l-0.276-0.828L720.413,716.527z"/>
</g>
</svg>
