<?xml version="1.0" encoding="utf-8"?>
<!-- Generator: Adobe Illustrator 23.0.1, SVG Export Plug-In . SVG Version: 6.00 Build 0)  -->
<svg version="1.1" id="Layer_1" xmlns="http://www.w3.org/2000/svg" xmlns:xlink="http://www.w3.org/1999/xlink" x="0px" y="0px"
	 viewBox="0 0 500 250" style="enable-background:new 0 0 500 250;" xml:space="preserve">
<style type="text/css">
	.st0{opacity:0.75;fill:#FF767D;enable-background:new    ;}
</style>
<polygon class="st0" points="71.671,92.98 71.502,93.185 72.692,95.711 73.154,98.498 73.278,101.695 72.79,102.498 76.158,109.907 
	78.567,111.369 82.202,115.733 82.491,120.613 80.072,124.814 79.902,125.018 79.433,126.008 77.729,127.872 77.049,130.581 
	75.905,132.393 73.84,136.37 72.136,138.236 72.003,138.816 71.854,139.208 72.092,141.639 70.235,143.896 69.261,145.501 
	67.874,146.771 66.078,147.7 64.332,151.079 61.201,155.728 60.824,157.654 61.27,158.364 61.604,159.842 66.681,163.497 
	68.132,166.754 66.65,168.975 66.854,169.143 66.7,171.424 65.667,174.357 64.185,176.577 63.679,177.193 58.266,235.672 
	135.309,239.835 212.843,241.307 213.882,209.493 214.73,162.221 214.301,161.697 212.791,159.768 212.586,159.598 212.156,159.076 
	210.387,156.417 209.045,154.284 207.417,155.008 206.647,156.784 206.871,157.139 203.146,159.579 200.322,159.667 
	198.171,160.822 194.828,159.45 194.453,159.486 191.125,160.189 190.938,160.208 188.694,160.428 186.378,159.9 185.369,159.243 
	185.014,159.467 184.599,161.018 180.372,162.187 178.055,161.658 176.505,161.243 174.02,160.92 173.646,160.956 172.802,161.982 
	168.087,163.954 166.035,162.268 165.364,161.201 164.286,157.908 163.92,154.171 163.141,151.98 162.711,151.456 161.275,150.275 
	161.07,150.107 157.051,149.555 155.018,148.057 153.864,145.904 155.066,142.766 155.217,142.374 154.938,141.458 152.046,138.91 
	151.229,136.346 151.042,136.366 149.29,133.894 148.807,132.809 147.843,128.751 147.436,126.525 146.733,123.196 144.68,121.51 
	143.427,122.199 143.276,122.59 141.535,124.083 138.652,125.497 133.564,127.506 131.643,125.239 130.823,124.564 128.172,122.559 
	128.437,121.401 129.882,118.806 129.864,118.618 129.23,117.927 128.937,114.934 129.255,114.337 132.42,111.951 131.441,105.818 
	130.36,104.414 132.348,101.576 132.802,98.512 133.272,97.521 133.386,96.755 134.289,94.403 134.27,94.215 136.357,88.536 
	135.983,88.574 134.186,89.505 134.018,89.709 134,89.522 132.618,88.903 132.43,88.921 129.293,87.719 128.828,86.821 
	126.155,86.516 125.151,83.972 122.053,81.254 121.852,79.197 121.797,78.636 121.574,78.281 120.94,77.587 118.777,74.78 
	118.573,74.61 117.472,73.02 116.373,71.429 114.955,70.435 113.595,68.113 113.371,67.757 110.438,66.725 109.039,65.917 
	108.107,64.121 107.491,63.614 105.68,62.47 104.68,58.038 104.912,54.618 104.319,52.41 103.238,51.007 101.823,48.125 
	100.536,46.551 98.821,44.454 98.542,43.538 100.334,9.764 80.41,8.693 78.922,22.43 72.029,90.869 "/>
</svg>
