<?xml version="1.0" encoding="utf-8"?>
<!-- Generator: Adobe Illustrator 23.0.1, SVG Export Plug-In . SVG Version: 6.00 Build 0)  -->
<svg version="1.1" id="Layer_1" xmlns="http://www.w3.org/2000/svg" xmlns:xlink="http://www.w3.org/1999/xlink" x="0px" y="0px"
	 viewBox="0 0 500 250" style="enable-background:new 0 0 500 250;" xml:space="preserve">
<style type="text/css">
	.st0{opacity:0.75;enable-background:new    ;}
	.st1{fill:#51C4DB;}
	.st2{opacity:0.75;fill:#FF767D;enable-background:new    ;}
</style>
<g class="st0">
	<path class="st1" d="M563.718,637.005c-0.138,0-0.138,0-0.276,0l-0.69,0.414l-0.276,0.828l-0.69,0.69l-1.381,0.414l-0.414,0.276
		l-2.071,2.623v0.69l0.552,0.69l0.552,0.276l0.139,0.415l0.69-0.414l0.552-1.519l0.69-0.69l2.071-0.552l0.552-0.552
		c0.276-0.828,0.414-1.933,0.552-2.761l-0.138-0.552L563.718,637.005z"/>
	<path class="st1" d="M584.287,629.688l-0.414-0.138c-0.276,0-3.037,0.69-3.451,0.69s-1.657-0.414-2.071-0.414l-0.552,0.276
		l-0.69,0.966l-0.69,0.414l-2.209,0.552l-0.552,0.414l-0.414,1.519c-0.415,0.69-0.691,1.381-1.243,2.071v0.552l0.69,0.966
		l0.276,0.276l1.933,0.69c0.414,0.276,0.138,0,2.209,1.795l0.414,0.138h2.623c0.552,0.138,1.795,0.552,2.209,0.552l0.69-0.551
		l2.347-1.933l0.138-0.69l-0.414-0.966v-0.828l0.69-1.381c0.276-0.966,0.414-1.933,0.552-2.899l-0.276-0.69L584.287,629.688z"/>
	<path class="st1" d="M634.263,658.954l-0.414-0.414l-0.69-1.242l-0.138-0.966l0.138-0.552v-0.552l-0.552-0.414
		c-0.138,0-0.138,0-0.276,0l-0.276,0.138c0,0.276-0.138,0.552-0.138,0.966l-0.552,0.276h-0.138l-0.552-0.414
		c-0.138-0.276-0.138-0.138-0.828-0.828l-0.276-1.242l0.276-0.552l-0.138-0.69l-0.69-0.552l-0.414-0.552l-0.69-1.933l-0.138-0.276
		l-1.795-2.071l-0.552-0.276c-0.414,0,0-0.138-2.347,0.828l-0.414,0.414l-0.69,1.795l-0.966,0.69h-2.347
		c-0.414,0-0.69,0.138-1.104,0.276l-0.414,0.414l0.138,0.552l0.414,0.552c0.276,0.553,0.138,0.138,0.414,1.795l0.138,0.138
		l0.552,0.276l0.552,0.69l0.138,0.69l0.276,0.414l0.828,0.69l0.552,0.69l0.414,1.657l0.69,0.552c0.138,0,0.966,0,0.966,0
		c0.414-0.138,0,0.138,1.795-0.966l0.69-0.138c0.138,0,0,0,2.071,0.414c0.552,0.276,0-0.138,2.761,1.795l0.276,0.138
		c0.138,0.138,2.485,0.414,2.623,0.414l0.689-0.14l0.966-1.104l0.138-0.552l-0.276-0.414L634.263,658.954z"/>
	<path class="st1" d="M662.565,664.202h-0.138l-2.347,0.69c-0.552,0.138-0.138,0.138-2.623-0.414l-0.69-0.69
		c-0.138-0.552-0.138-0.414-0.276-0.552l-0.276-0.138l-0.276,0.138l-0.966,0.552l-0.552-0.138c-0.276,0-0.414-0.138-0.552-0.138
		c-4.142-0.414-3.59-0.414-3.866-0.414c-2.485-0.69-2.209-0.69-2.347-0.69l-0.276,0.138c-0.276,0.414-0.414,0.828-0.69,1.242
		l-0.966,0.69l-0.276,0.552l-0.138,0.69l0.138,0.552l0.414,0.276l2.623,0.138h0.138c3.589-0.552,3.037-0.552,3.313-0.552
		c0.552,0.138,0-0.139,2.899,1.242c0.966,0.414,1.933,0.828,2.899,1.104c0.69-0.138,1.381-0.414,2.622,0.001
		c0.276-0.138-0.138,0.138,2.899-2.209l0.276-0.414l0.138-0.552l-0.276-0.69C662.841,664.202,662.979,664.34,662.565,664.202z"/>
	<path class="st1" d="M657.873,672.21l-0.276-0.138l-2.623-0.69c-0.276,0,0-0.138-2.209,0.552l-0.552,0.69v0.276l0.552,0.69
		l0.69,0.138l0.552,0.276l0.69,0.69l0.414,0.966l-0.276,1.242l0.138,0.414l0.414,0.69l0.552,0.276l2.625-0.688l0.552-0.276
		l1.104-1.933l-0.138-0.69L657.873,672.21z"/>
	<path class="st1" d="M668.915,684.082l0.138-0.276l-0.276-0.69l-0.414-0.276l-0.276-0.138l-0.414,0.138l-1.519,1.104
		c-0.414,0.276-0.828,0.414-1.242,0.414l-0.276,0.138l-0.552,0.414l-0.138,0.69v0.138l0.552,0.414h0.138l1.381-0.276
		c0.138,0,0.276,0,0.414,0s1.933,0.276,2.071,0.276l0.689-0.276l0.276-0.414v-0.276l-0.138-0.138L668.915,684.082z"/>
	<path class="st1" d="M684.93,680.769l0.414-0.276l0.966-1.657v-0.552l-0.69-1.657l-0.414-0.414l-2.623-0.966l-0.552-0.414
		l-0.69-0.69l-0.276-0.276l-0.966-0.414l-0.552-0.414l-1.519-1.795l-0.552-0.276h-0.138c-0.828,0.138-1.657,0.276-2.485,0.414
		c-2.761,1.104-2.209,0.966-2.761,1.104c-0.138,0-0.69,0-0.828,0l-0.828-0.552l-1.104-1.657c-0.552-0.691-1.519-1.243-2.209-1.933
		l-0.414-0.138c-0.553,0-1.105,0.276-1.657,0.414l-0.414,0.276l-0.966,1.933v0.69l2.485,3.866l0.276,0.276
		c2.347,1.104,1.933,0.828,2.347,0.966h0.276c0.414-0.276,0.69-0.414,1.104-0.414l0.69,0.414l0.414,0.414l0.414,0.69l0.414,2.485
		c0,0.691,0,1.243-0.138,1.933l0.552,0.69c3.037,0.69,2.623,0.69,2.899,0.69s-0.138,0.138,3.451-1.38
		c1.104-0.138,2.347-0.276,3.451-0.276l0.414-0.138l0.69-0.552C683.964,680.907,683.688,681.045,684.93,680.769z"/>
	<path class="st1" d="M720.413,716.527l-2.623-1.381l-0.552-0.69l-0.138-0.414l-0.138-0.276l-0.69-0.69l-0.414-0.69l-0.276-1.657
		l-0.69-0.552c-0.276,0-1.381,0.138-1.657,0.138l-0.828-0.414l-0.138-0.966c0.138-0.966,0.138-1.933,0-2.899l-0.138-0.552
		l-4.004-3.728c-0.276-0.138,0.276,0.138-4.97-2.347l-3.866-1.933c-0.276,0,0,0-1.933,0l-0.828-0.552l-0.69-0.966l-0.276-0.276
		l-1.519-0.552l-0.552-0.414l-1.242-1.519l-0.552-0.276c-0.553,0.138-0.829,0.138-1.243,0c-0.553-0.276-0.967-0.414-1.519-0.552
		l-0.552,0.276l-0.828,0.966l-0.138,0.414v2.209l0.138,0.414l1.933,2.347l0.276,0.69v1.657l-0.276,0.69l-2.209,3.175l-0.828,0.552
		h-0.69l-0.552,0.276l-2.485,3.451v0.69l0.69,0.828l0.276,0.69v0.138l0.138,0.414l1.242,1.381l0.276,0.828l-0.138,1.795l0.276,0.552
		l0.828,0.69l0.414,0.69l0.276,1.242c0,0.276-0.139-0.138,1.242,3.037v0.69c-0.829,2.347-1.381,4.97-1.657,7.455l0.138,0.552
		l1.104,1.657l0.552,0.276c0.553,0,1.105,0.138,1.657,0.276l3.313,1.795l0.552,0.69l0.276,0.552l0.552,0.414h0.004v0.416
		l0.552-0.276l2.485-3.037l0.138-0.414v-1.381l0.552-0.828l7.731-5.246l0.552-0.138l3.313-0.276l0.276-0.138l3.313-2.209l0.69-0.276
		c0.414,0,0.966,0.138,1.242,0.138l0.414-0.138l4.832-4.556l0.138-0.69l-0.276-0.828L720.413,716.527z"/>
</g>
<polygon id="Illinois_1_" class="st2" points="175.396,21.892 175.157,21.178 174.682,20.702 174.682,20.702 173.492,18.558 
	173.016,17.844 173.016,16.178 173.016,15.464 173.492,14.035 173.728,13.796 173.728,13.32 173.728,12.845 173.016,11.416 
	173.016,10.94 85.386,19.512 85.863,20.226 87.29,20.463 88.719,21.892 89.673,22.845 91.338,25.226 91.102,26.655 91.102,26.655 
	91.102,26.655 91.338,27.132 91.816,27.369 92.53,28.084 93.482,28.322 94.435,28.559 94.672,28.798 95.625,29.037 98.007,29.988 
	99.198,31.18 100.863,33.085 101.102,34.514 101.102,34.989 101.578,36.18 102.056,37.847 101.817,39.513 101.817,39.991 
	101.817,42.132 101.817,42.371 101.817,42.61 101.817,43.8 101.341,45.229 101.341,45.944 98.72,48.324 98.483,48.563 
	97.769,49.277 97.769,49.992 97.53,51.896 97.054,53.325 97.054,54.515 97.293,55.469 94.911,57.849 94.435,58.088 94.196,58.324 
	93.721,58.563 93.482,59.039 93.006,59.753 90.387,60.944 89.673,60.944 88.719,60.707 88.719,60.944 88.482,61.182 86.339,63.087 
	85.386,63.565 83.242,64.04 83.005,64.04 81.815,64.279 79.672,64.04 78.718,65.23 78.48,65.23 76.099,65.945 75.624,65.706 
	75.146,65.706 74.432,66.184 73.956,67.374 73.956,68.327 73.48,70.469 73.241,70.707 73.005,71.661 73.48,71.898 73.956,72.375 
	74.432,73.09 74.432,73.327 74.909,73.327 76.814,74.517 77.289,74.994 78.718,76.66 79.194,78.328 79.194,78.565 79.433,80.708 
	79.194,80.947 79.194,82.137 79.194,82.376 79.433,84.042 79.194,85.471 77.767,87.375 77.528,87.375 76.814,88.09 76.814,88.09 
	76.338,88.804 75.624,90.472 75.624,90.472 75.624,92.377 75.624,93.091 75.146,94.045 75.385,94.996 73.717,97.615 73.48,97.854 
	72.527,99.044 69.669,99.758 69.669,99.758 67.764,99.997 67.764,99.997 67.528,100.234 67.289,100.473 66.335,102.141 
	66.813,102.616 67.289,104.76 67.05,105.95 67.05,106.189 67.764,108.093 65.86,110.474 64.908,111.188 64.431,111.903 
	64.194,112.856 63.955,113.807 63.716,116.426 63.716,118.333 63.955,119.047 64.194,120.713 64.431,121.428 64.908,122.142 
	65.145,123.571 65.86,124.761 66.813,125.951 67.289,126.666 67.528,129.999 67.289,130.238 67.289,130.238 67.289,130.477 
	68.957,131.191 69.908,132.143 70.384,134.762 70.384,135.24 70.384,135.24 71.098,135.952 71.576,136.191 73.241,137.144 
	73.717,137.859 74.909,138.334 75.385,139.049 75.624,139.049 77.528,140.715 77.767,141.192 77.767,141.192 79.194,141.668 
	81.101,143.336 81.338,143.572 81.815,144.526 82.291,145.477 83.481,146.192 85.863,147.145 86.339,147.621 87.529,148.574 
	87.768,148.574 89.673,149.764 91.102,150.478 92.292,151.669 94.672,153.812 94.672,154.288 95.386,156.431 95.386,157.384 
	95.625,157.86 96.101,158.336 97.293,160.955 96.579,162.623 96.579,162.623 96.579,162.861 97.054,163.576 97.53,165.717 
	97.769,165.956 98.244,166.671 99.673,167.624 99.673,167.861 99.912,167.624 100.627,166.671 100.627,166.195 101.817,164.052 
	104.675,163.098 105.15,163.098 107.294,164.052 107.531,164.29 108.008,164.527 108.959,164.766 109.674,164.766 110.388,164.766 
	111.579,165.003 114.437,165.956 117.056,167.624 118.248,170.243 116.58,173.099 116.104,173.338 115.627,174.052 115.39,174.767 
	116.341,176.671 116.58,177.149 116.104,180.719 115.151,182.148 114.437,182.863 114.2,183.339 113.961,183.816 113.961,184.531 
	113.722,186.435 113.722,186.672 113.246,188.34 112.056,189.769 112.056,190.245 111.579,190.72 111.342,191.674 111.103,191.912 
	111.103,192.627 111.342,193.578 111.579,194.293 112.293,195.483 112.771,195.96 113.246,196.436 115.151,197.389 116.104,198.341 
	116.819,199.055 117.056,199.531 117.294,199.531 118.96,199.77 121.104,201.674 121.104,201.674 121.342,201.674 123.723,202.864 
	123.723,203.103 124.676,203.818 125.866,203.579 128.01,204.532 128.248,205.961 129.2,205.722 129.914,205.722 132.296,206.676 
	133.487,207.627 133.725,207.866 134.677,208.105 135.154,208.341 136.82,209.056 138.488,210.96 138.725,211.438 140.154,211.914 
	141.107,212.867 141.344,212.867 141.344,212.867 141.583,213.104 143.965,214.057 144.677,216.438 144.441,216.438 
	144.677,216.676 145.392,217.391 145.87,217.866 146.584,219.534 145.155,220.963 145.155,221.2 145.392,221.439 146.584,223.343 
	147.535,223.819 148.489,225.487 148.964,225.963 149.44,228.582 149.44,228.82 149.203,229.535 146.584,231.678 146.584,231.678 
	148.013,232.63 148.964,235.012 149.44,235.726 149.679,236.441 150.632,237.392 151.583,238.584 152.061,238.821 152.298,239.06 
	154.203,238.821 154.441,238.821 156.109,239.06 156.822,238.346 158.014,236.917 158.251,236.441 158.49,235.251 159.918,233.344 
	160.394,232.869 162.538,231.44 165.157,230.488 166.824,230.725 167.539,231.201 168.015,231.201 169.68,231.44 172.063,232.869 
	172.301,232.869 173.728,233.344 173.967,233.344 175.635,233.583 176.586,233.583 176.825,233.822 178.73,234.536 179.92,235.488 
	180.398,235.726 181.349,235.963 181.349,235.963 181.349,235.963 181.826,234.536 181.826,234.536 181.588,233.344 
	181.349,232.869 180.873,232.63 179.683,231.201 179.683,231.201 178.254,228.82 178.254,228.106 178.254,227.63 178.491,225.963 
	178.491,225.248 178.73,224.297 180.159,222.153 183.968,220.724 187.54,218.344 188.016,218.344 189.445,218.105 189.921,217.866 
	191.588,217.391 192.064,217.391 191.113,216.915 189.921,215.008 189.208,213.582 188.494,210.96 189.684,208.819 189.921,208.341 
	192.303,206.2 192.303,206.2 191.35,204.057 190.874,202.389 191.35,200.723 191.35,198.816 192.064,197.865 190.874,196.436 
	191.113,194.768 192.064,193.578 191.588,192.864 193.017,190.245 193.256,190.006 193.017,189.769 191.588,187.625 
	192.542,185.958 192.542,185.958 192.542,185.482 193.732,183.102 195.161,182.863 195.875,182.387 196.112,182.148 
	196.351,180.958 198.256,179.054 198.494,178.576 198.731,178.339 198.97,177.625 198.97,177.386 198.97,177.149 198.494,175.481 
	200.399,173.814 201.113,173.338 201.589,171.433 201.828,170.243 201.828,170.004 202.304,167.861 202.304,167.861 
	202.779,165.956 204.686,165.242 205.4,164.766 205.4,164.29 205.4,164.052 205.4,162.623 204.923,162.384 204.208,160.479 
	204.208,160.479 203.494,160.004 202.779,158.336 203.494,156.194 203.733,156.194 203.733,155.955 202.067,155.241 
	201.352,152.622 201.352,151.907 200.638,151.669 199.446,150.478 199.209,150.003 198.256,148.098 198.256,146.43 198.97,145.477 
	199.209,145.24 199.684,144.526 198.97,144.05 198.494,141.668 198.256,140.478 198.97,139.049 198.97,139.049 200.399,137.381 
	187.065,41.181 186.35,39.752 186.35,39.752 185.875,39.513 184.207,37.37 183.253,34.989 183.017,34.989 182.778,33.322 
	182.302,32.607 182.063,31.893 181.112,29.988 180.634,29.274 180.634,28.798 179.92,27.132 179.92,27.132 178.73,26.179 
	178.491,25.94 177.54,24.274 177.064,24.035 176.111,23.084 "/>
</svg>
