<?xml version="1.0" encoding="utf-8"?>
<!-- Generator: Adobe Illustrator 23.0.1, SVG Export Plug-In . SVG Version: 6.00 Build 0)  -->
<svg version="1.1" id="Layer_1" xmlns="http://www.w3.org/2000/svg" xmlns:xlink="http://www.w3.org/1999/xlink" x="0px" y="0px"
	 viewBox="0 0 500 250" style="enable-background:new 0 0 500 250;" xml:space="preserve">
<style type="text/css">
	.st0{opacity:0.75;fill:#FF767D;enable-background:new    ;}
</style>
<polygon class="st0" points="198.401,146.627 175.884,17 98.221,27.105 97.068,27.972 96.779,28.261 95.336,29.415 94.18,29.994 
	93.026,31.437 92.447,31.724 89.272,33.456 88.695,33.746 86.386,34.322 85.23,35.189 81.765,36.632 79.456,36.921 78.59,36.921 
	77.437,37.211 74.548,36.632 74.261,36.632 72.816,36.344 71.95,36.055 88.119,149.226 86.097,152.691 85.52,152.978 85.23,153.268 
	85.23,153.844 86.097,154.71 87.539,156.732 86.673,159.618 85.807,160.485 85.52,160.774 85.23,161.351 85.807,162.217 
	86.097,162.507 86.386,162.794 88.695,164.816 88.695,165.105 88.985,167.415 90.715,168.281 91.871,170.3 91.871,171.746 
	91.294,174.055 92.16,176.074 92.16,176.364 92.447,176.941 93.893,179.539 93.603,179.829 93.603,182.425 93.603,183.004 
	93.314,185.024 92.16,185.89 91.871,186.18 89.851,187.046 89.562,187.333 89.851,187.333 89.562,188.199 89.562,188.489 
	88.985,190.798 88.695,192.241 88.985,193.397 86.673,195.996 86.097,196.862 86.097,197.151 85.807,198.305 85.23,200.903 
	83.787,202.636 82.632,203.213 82.632,203.789 82.344,206.101 80.035,208.121 79.456,208.121 78.303,208.697 78.013,209.563 
	77.724,209.853 78.013,209.853 80.322,212.452 78.303,215.917 77.724,216.204 78.013,217.07 76.857,219.958 77.437,220.825 
	77.724,223.134 77.437,224 80.899,221.978 81.765,221.978 84.077,223.421 84.654,223.71 86.097,222.844 88.119,222.844 
	89.562,221.978 90.428,220.535 93.026,217.936 93.603,217.936 94.469,218.226 95.623,219.092 95.912,219.379 96.489,220.245 
	96.779,220.245 96.779,220.535 97.068,220.245 97.645,219.958 99.088,218.803 101.11,218.226 103.996,219.379 104.285,219.379 
	105.438,219.958 107.461,220.535 108.616,221.112 109.193,221.978 110.346,221.978 111.213,222.267 112.079,222.267 
	112.658,222.267 114.678,223.421 114.678,222.844 114.967,222.267 114.967,221.691 116.41,218.513 116.7,218.226 118.432,217.07 
	120.741,216.204 122.184,214.761 124.206,212.739 127.669,213.028 130.844,216.783 133.156,215.917 134.022,216.204 
	135.465,215.338 136.331,215.338 136.042,212.162 136.042,211.875 138.064,208.697 137.774,206.101 140.95,203.789 141.816,204.079 
	142.972,203.502 143.548,202.346 145.857,200.614 147.879,201.48 148.167,201.77 148.456,202.059 149.322,202.636 150.478,205.522 
	150.478,206.967 150.478,207.544 151.055,207.544 151.632,207.831 152.787,208.121 153.074,208.41 154.807,207.544 155.673,207.544 
	158.561,208.41 158.849,208.41 160.871,207.831 161.158,207.544 161.158,207.254 161.158,205.811 161.158,204.656 160.871,203.789 
	160.871,200.327 161.737,198.305 162.89,197.151 163.18,196.285 164.046,193.973 165.202,192.82 166.066,192.531 166.355,192.241 
	167.221,191.954 168.954,192.531 168.954,192.241 170.11,191.954 170.397,190.221 170.397,188.199 170.397,187.333 170.973,185.024 
	172.706,183.581 174.728,182.715 175.018,182.715 176.171,182.138 176.171,181.849 178.193,178.963 178.193,178.673 
	177.614,177.807 176.461,174.632 175.594,173.476 175.305,172.033 175.884,170.3 176.171,170.013 177.327,167.991 177.904,167.702 
	178.77,167.415 181.368,167.415 182.811,166.838 185.41,166.259 188.585,167.125 189.452,167.991 191.184,166.548 194.936,163.373 
	197.245,162.794 198.401,162.794 198.978,162.217 200.71,161.351 201,160.485 199.557,159.618 197.825,157.599 198.978,154.71 
	198.112,153.557 197.825,153.268 195.803,150.092 198.401,147.204 "/>
</svg>
