<?xml version="1.0" encoding="utf-8"?>
<!-- Generator: Adobe Illustrator 23.0.1, SVG Export Plug-In . SVG Version: 6.00 Build 0)  -->
<svg version="1.1" id="Layer_1" xmlns="http://www.w3.org/2000/svg" xmlns:xlink="http://www.w3.org/1999/xlink" x="0px" y="0px"
	 viewBox="0 0 500 250" style="enable-background:new 0 0 500 250;" xml:space="preserve">
<style type="text/css">
	.st0{opacity:0.75;fill:#FF767D;enable-background:new    ;}
</style>
<polygon class="st0" points="68.807,58.091 67.403,58.372 66.842,58.372 66.281,58.651 66.842,59.493 68.526,61.74 68.526,64.264 
	68.526,65.106 68.526,65.669 67.684,67.913 68.244,67.913 70.21,69.316 70.489,69.597 71.052,71 71.052,71.281 71.331,72.123 
	71.331,72.403 72.173,74.647 71.894,76.894 71.331,78.576 70.489,79.981 70.771,81.102 69.928,82.786 69.928,84.188 70.771,83.628 
	68.807,86.714 67.684,90.082 66.842,90.924 66.281,93.169 66,94.292 67.123,95.413 67.684,95.976 70.21,99.063 71.331,101.026 
	71.331,101.589 71.613,102.149 72.173,103.833 74.139,104.394 75.26,105.236 76.102,108.322 75.26,110.567 75.541,111.13 
	75.26,112.251 75.823,113.093 76.383,114.216 76.944,115.058 78.349,116.743 78.909,118.424 78.067,120.39 78.067,121.232 
	78.909,121.792 80.593,122.634 81.714,124.037 81.435,126.002 81.714,126.284 82.838,127.405 84.801,128.807 85.643,129.089 
	86.485,132.736 86.766,133.299 86.485,134.701 86.766,135.543 87.89,136.664 87.89,137.227 89.292,138.348 89.853,139.753 
	89.571,141.435 89.292,141.716 89.292,142.84 89.011,145.645 89.011,146.208 88.729,148.731 89.571,150.136 92.66,151.257 
	93.781,153.783 95.747,154.907 96.589,157.431 96.307,158.836 96.307,159.115 96.307,159.678 96.307,159.957 96.026,161.359 
	97.149,161.922 97.991,164.727 97.149,166.13 97.431,167.535 99.675,170.621 99.112,172.024 99.394,172.305 99.394,172.584 
	99.675,173.989 99.394,175.671 100.236,177.636 100.796,179.039 101.078,180.444 100.796,181.283 102.48,183.249 101.359,186.335 
	101.078,186.335 101.078,186.617 101.078,187.738 101.359,189.143 100.236,191.667 100.796,192.79 100.796,193.071 103.604,194.755 
	103.885,195.316 105.288,197 195.929,192.229 263.84,185.493 264.119,185.493 264.4,185.493 266.926,187.177 268.047,187.459 
	268.329,188.58 269.171,188.58 271.134,190.545 271.697,191.387 271.976,191.667 272.818,192.229 273.099,192.508 274.784,193.632 
	275.625,194.755 275.905,195.595 276.747,195.877 277.028,193.071 277.309,192.79 277.028,192.508 275.344,190.825 277.028,187.459 
	277.309,186.896 278.712,184.372 281.799,183.249 282.08,183.249 285.167,182.688 286.288,181.283 286.009,180.162 286.569,178.197 
	286.569,177.918 286.569,177.355 286.569,177.076 286.851,173.989 287.972,173.147 288.535,172.024 290.216,169.779 
	291.058,169.219 291.34,169.219 291.34,168.377 291.058,166.693 291.34,165.851 291.34,165.009 291.34,163.606 291.058,162.201 
	290.779,161.359 289.937,161.08 289.656,160.238 287.411,159.396 286.288,158.273 285.727,157.712 284.885,156.589 283.764,154.065 
	284.604,151.257 284.885,150.136 284.885,149.294 285.167,147.61 285.446,147.047 286.569,144.242 287.972,143.682 290.779,142.558 
	292.182,142.84 292.463,142.84 292.742,142.558 296.11,140.874 296.671,140.874 299.478,140.874 300.039,140.874 300.32,140.874 
	302.565,140.032 302.846,139.472 304.249,137.788 305.651,137.227 308.177,137.227 308.459,136.664 310.141,135.543 
	310.422,134.983 311.825,133.859 311.825,133.299 311.825,132.175 312.666,130.212 312.948,129.089 313.229,129.089 
	312.948,127.405 314.911,124.037 317.158,122.634 317.158,122.074 317.719,120.39 317.719,119.266 318,118.424 317.437,116.18 
	318,114.777 318,114.496 316.877,111.69 316.877,110.567 316.877,110.006 316.316,109.446 314.911,108.322 311.825,107.48 
	311.545,107.48 309.58,106.638 308.459,106.359 306.493,104.394 306.212,104.112 304.809,101.307 305.37,99.905 303.407,98.221 
	302.846,97.658 300.599,96.818 299.757,95.976 299.478,95.976 298.636,95.695 295.55,93.169 295.55,90.643 295.268,89.801 
	294.147,88.959 293.866,88.68 293.024,86.996 293.024,86.714 292.742,86.714 292.182,86.714 291.621,86.714 290.216,86.435 
	288.535,86.154 287.972,85.872 287.411,85.872 286.009,85.593 285.446,85.593 285.167,85.593 282.922,85.03 282.08,83.909 
	281.799,83.628 281.517,83.628 279.554,82.786 277.87,80.26 277.309,78.857 277.028,78.297 275.905,76.331 275.625,75.489 
	274.784,74.368 273.941,72.123 273.941,71.281 273.381,70.439 272.818,69.035 272.818,68.195 271.976,67.071 271.976,65.106 
	271.976,63.985 271.697,62.301 273.099,60.056 273.941,57.249 275.062,56.407 274.502,55.004 274.502,54.723 274.221,54.444 
	273.381,54.162 272.818,53.881 272.257,53.881 270.292,53.32 268.61,50.794 269.452,49.392 269.731,49.11 267.768,46.866 
	159.167,54.444 "/>
</svg>
