<?xml version="1.0" encoding="utf-8"?>
<!-- Generator: Adobe Illustrator 23.0.1, SVG Export Plug-In . SVG Version: 6.00 Build 0)  -->
<svg version="1.1" id="Layer_1" xmlns="http://www.w3.org/2000/svg" xmlns:xlink="http://www.w3.org/1999/xlink" x="0px" y="0px"
	 viewBox="0 0 500 250" style="enable-background:new 0 0 500 250;" xml:space="preserve">
<style type="text/css">
	.st0{opacity:0.75;fill:#FF767D;enable-background:new    ;}
</style>
<polygon class="st0" points="311.139,68.942 311.139,68.7 312.599,66.025 313.814,64.807 314.786,62.133 315.03,61.891 
	315.03,61.647 315.516,60.187 315.03,59.458 313.327,60.187 312.111,60.431 309.68,59.943 308.465,58.972 305.788,57.027 
	303.842,55.809 302.383,54.594 178.355,58.242 149.901,58.242 68.431,57.512 66,183 334,178.38 330.593,120.012 328.648,90.101 
	327.918,89.857 327.677,89.127 326.703,89.613 325.487,89.613 323.298,88.156 323.054,87.912 322.083,87.668 320.38,85.237 
	320.38,84.993 320.138,84.749 318.434,83.534 317.219,81.345 316.975,80.615 316.975,80.129 316.245,79.157 315.03,77.94 
	313.814,77.454 312.355,75.753 312.111,75.265 311.625,74.779 309.68,71.86 310.166,69.43 "/>
</svg>
