<?xml version="1.0" encoding="utf-8"?>
<!-- Generator: Adobe Illustrator 23.0.1, SVG Export Plug-In . SVG Version: 6.00 Build 0)  -->
<svg version="1.1" id="Layer_1" xmlns="http://www.w3.org/2000/svg" xmlns:xlink="http://www.w3.org/1999/xlink" x="0px" y="0px"
	 viewBox="0 0 500 250" style="enable-background:new 0 0 500 250;" xml:space="preserve">
<style type="text/css">
	.st0{opacity:0.75;fill:#FF767D;enable-background:new    ;}
</style>
<polygon class="st0" points="100.161,161.535 98.228,165.079 95.33,166.369 94.04,166.046 93.397,166.046 90.817,165.725 
	88.563,164.112 88.24,163.469 86.952,163.469 85.662,163.146 85.019,163.146 84.052,163.146 81.475,162.179 81.152,161.858 
	78.575,160.892 76.964,159.925 75.997,159.925 75.031,159.602 73.741,159.281 72.774,159.281 71.807,159.602 70.197,160.568 
	69.553,161.212 68.907,161.858 68.586,163.792 66.653,166.046 65.686,167.336 65.686,167.656 65.686,167.979 65.686,168.946 
	68.907,170.557 69.23,171.523 70.197,173.457 69.874,174.747 69.553,175.714 69.553,177.968 68.263,180.224 70.52,183.122 
	67.94,186.669 68.907,190.533 68.263,192.467 67.62,192.79 67.62,193.433 66.33,196.011 66.009,196.657 74.707,195.367 
	119.171,190.856 119.171,190.533 118.851,188.923 118.528,188.6 118.204,187.312 117.561,186.022 116.594,185.056 116.273,181.835 
	116.594,180.224 128.195,179.901 131.739,181.512 143.015,180.224 143.661,179.901 161.704,177.324 182.004,174.424 
	190.381,173.134 192.312,173.457 194.892,172.49 231.945,169.913 232.912,169.59 244.19,167.979 256.112,165.725 278.342,163.792 
	328.93,157.024 330.22,156.058 331.507,155.091 333.117,153.804 337.308,150.903 340.208,150.58 340.528,149.937 342.785,149.937 
	343.429,149.29 343.752,148.97 347.296,147.036 347.939,147.036 350.517,145.103 350.84,145.103 352.13,144.459 353.094,143.813 
	353.417,142.849 353.74,141.559 354.061,141.236 354.707,139.302 356.317,137.371 359.538,136.404 360.184,136.404 360.828,136.404 
	361.795,136.081 362.118,135.758 363.728,134.791 364.372,134.471 364.695,134.148 364.695,133.181 364.372,129.314 
	365.662,128.347 365.982,128.347 368.239,126.416 369.206,125.77 369.526,125.126 369.849,124.483 369.206,122.549 369.849,120.292 
	373.716,116.425 377.904,113.528 385.961,108.371 386.282,108.371 397.237,95.161 396.916,94.838 394.66,94.515 392.406,92.905 
	392.083,91.618 391.116,90.971 390.793,90.971 388.539,90.328 388.215,90.328 386.282,90.004 384.028,88.394 383.061,87.107 
	382.415,86.14 381.128,83.56 380.484,83.24 378.55,81.95 378.227,81.95 376.937,80.339 376.294,79.373 375.65,78.083 
	375.006,77.762 372.427,76.795 370.816,73.572 371.46,72.928 370.493,72.605 369.206,70.995 368.883,70.671 368.562,70.028 
	367.272,68.741 366.305,68.094 364.695,66.807 363.085,65.84 361.472,63.584 361.472,63.263 361.472,62.617 362.118,61.006 
	363.085,60.363 362.118,58.106 363.728,56.173 363.405,55.529 363.405,55.206 363.405,54.239 362.118,53.595 361.472,51.662 
	361.151,51.018 360.828,48.441 360.505,47.474 360.505,47.151 359.218,46.831 358.894,46.507 356.961,44.897 355.994,43.93 
	355.674,43.93 354.061,43.93 351.483,43.93 348.906,42.964 348.583,42.64 347.296,41.03 346.652,39.096 346.329,37.806 
	344.395,35.552 344.395,35.229 343.752,35.552 342.139,36.196 341.495,36.842 340.528,37.806 338.595,39.096 338.595,40.386 
	336.018,43.284 335.697,43.607 331.83,44.251 331.507,44.574 328.93,45.864 325.063,44.251 324.742,43.607 324.419,43.284 
	323.775,42.964 323.452,42.964 322.809,42.964 322.162,42.964 319.585,42.964 319.265,42.64 317.651,42.32 316.685,42.32 
	315.718,42.64 314.751,43.284 312.497,46.507 310.24,47.151 308.307,46.831 307.02,46.507 306.053,46.507 304.763,45.864 
	302.509,43.607 299.609,41.353 299.285,41.03 298.965,41.03 298.642,41.03 295.741,40.386 295.098,40.386 294.131,41.03 
	293.487,41.353 288.01,41.674 286.72,41.03 286.076,41.03 285.433,41.03 284.466,41.03 281.886,40.386 279.309,36.842 
	279.309,35.876 278.988,34.909 278.022,33.619 277.375,32.975 275.121,30.398 275.121,30.075 275.121,29.431 274.155,28.785 
	272.865,28.785 272.221,29.108 269.644,28.141 269.321,27.818 268.677,26.531 265.133,27.175 263.2,28.785 259.009,27.818 
	257.399,27.498 256.112,26.531 255.788,26.531 254.178,28.141 253.855,28.465 252.888,29.108 253.211,30.075 253.532,30.398 
	255.145,32.009 256.432,34.586 256.112,35.552 258.042,37.163 258.042,41.674 258.042,42.32 258.042,43.607 255.145,46.831 
	253.211,46.831 252.888,46.831 250.955,47.797 248.701,48.118 248.054,48.441 245.157,51.018 241.61,53.595 239.679,54.239 
	239.033,54.239 236.779,53.919 236.132,53.595 235.812,53.275 234.845,51.985 234.522,51.985 231.945,53.275 230.978,53.275 
	230.011,53.275 230.655,55.206 230.655,55.852 230.655,56.496 230.978,57.462 231.301,58.106 232.268,60.683 232.268,61.973 
	230.978,64.874 230.334,65.194 230.011,66.161 229.691,67.451 226.467,69.384 226.467,69.707 224.534,70.351 224.213,70.351 
	223.567,70.671 223.567,72.928 223.567,75.185 222.923,76.472 222.6,77.762 220.346,80.016 219.7,80.339 218.089,81.95 
	215.835,82.593 215.189,82.273 213.902,84.85 213.579,85.173 213.256,86.784 213.256,88.394 213.579,90.004 213.256,90.971 
	213.256,92.905 213.256,93.548 212.612,96.449 210.035,97.739 209.712,98.062 208.424,98.382 208.101,99.993 207.458,101.283 
	206.814,101.606 206.491,101.606 205.847,101.606 202.3,99.349 201.657,98.705 201.013,99.026 197.469,99.026 196.823,98.705 
	195.213,98.062 194.569,97.739 193.925,97.739 191.345,95.805 190.702,93.872 190.381,93.872 190.058,93.872 189.735,93.872 
	188.768,94.838 187.158,98.062 185.224,99.026 185.224,99.349 185.224,99.672 185.547,100.959 186.191,103.539 185.224,105.47 
	182.647,106.76 182.324,107.404 182.647,107.727 182.004,109.017 182.004,109.337 181.68,109.337 181.68,109.66 181.037,110.304 
	178.136,111.594 174.592,110.627 173.946,109.66 173.946,109.337 173.626,109.337 170.725,108.05 168.471,104.827 167.825,105.47 
	166.215,106.76 163.314,108.05 162.671,108.371 161.704,109.017 162.027,109.66 161.381,111.271 161.381,111.594 161.381,112.238 
	161.06,114.171 160.093,115.458 159.77,116.105 155.903,118.359 155.26,118.359 154.936,118.038 152.682,115.782 152.359,115.138 
	152.359,114.815 151.716,114.815 149.138,114.171 148.815,113.848 146.882,113.528 146.882,113.204 145.915,112.561 
	145.592,112.238 144.628,111.914 144.305,111.594 143.661,111.594 142.694,111.271 141.081,110.627 139.794,111.271 
	138.827,111.914 135.604,113.528 135.604,114.494 133.993,116.748 129.806,118.682 126.262,116.425 125.939,115.138 
	124.972,115.458 122.718,116.425 120.461,116.425 120.461,116.748 120.461,119.972 119.494,120.939 117.884,122.869 114.66,123.193 
	114.017,124.159 113.373,124.803 111.116,126.416 110.473,127.38 109.829,128.347 111.44,131.247 111.44,131.57 112.083,131.894 
	112.727,132.537 114.34,133.504 115.95,136.404 115.307,138.982 113.373,139.948 112.727,140.269 109.183,141.236 108.216,141.236 
	106.283,141.882 103.385,142.849 103.062,143.492 102.739,143.813 101.772,145.426 99.195,146.713 97.261,145.746 96.941,145.746 
	96.618,147.68 96.618,148.326 95.974,149.937 95.974,150.903 95.974,151.224 97.261,152.514 97.907,152.837 98.551,153.48 
	100.161,156.381 101.128,158.958 100.161,161.212 "/>
</svg>
