<?xml version="1.0" encoding="utf-8"?>
<!-- Generator: Adobe Illustrator 23.0.1, SVG Export Plug-In . SVG Version: 6.00 Build 0)  -->
<svg version="1.1" id="Layer_1" xmlns="http://www.w3.org/2000/svg" xmlns:xlink="http://www.w3.org/1999/xlink" x="0px" y="0px"
	 viewBox="0 0 500 250" style="enable-background:new 0 0 500 250;" xml:space="preserve">
<style type="text/css">
	.st0{opacity:0.75;fill:#FF767D;enable-background:new    ;}
</style>
<path class="st0" d="M318.406,210.004l-2.676-1.784l-0.298-1.486l-0.298-0.298l-1.19-1.19l-0.594-0.594l-0.298-0.298l-4.161-0.594
	l-0.594-0.594l-4.459-0.594l-0.298-0.298c-0.892,0-1.486,0-2.676,0.298c-0.594,0-2.082-0.298-2.377-0.298l-3.567-1.19l-0.892-0.892
	l-3.567-1.486l-0.892-0.594h-0.298h-1.486c-0.892-0.298-1.486-0.594-2.676-0.892l-0.892-0.298l-0.298-1.19l0.892-2.676
	c0-0.298,0-0.298,0-0.594l-0.892-1.486v-1.19l0.892-1.784c0-0.298,0-0.594-0.298-1.19l0.594-0.892l-0.594-2.378l3.863-2.676
	c1.19-0.298,0.594,0,2.377-0.298l1.19,0.298c0.298,0,0.298,0,0.594,0c1.19,0.298,2.676,0.298,3.863,0.594l0.298-0.594l0.892-1.486
	l0.298-0.298l-0.298-0.892l0.892-2.378l-1.486-2.676c-0.298,0-0.594-0.298-0.892-0.298l-1.486-1.19l-0.594-1.19l-1.486,1.19v1.486
	c0,1.19,0,0.892-0.298,2.378l-0.892,2.378l-1.486,1.486c-1.19,0.298-2.676,0.594-3.863,0.892l-2.676-0.892
	c-1.19-0.892-0.892-0.594-2.082-1.19l-1.19-0.892c-0.298,0-0.892,0-1.19,0l-3.269-1.19c-0.892-1.19-2.377-2.676-3.863-3.567
	c1.19-1.486,2.971-3.269,4.459-4.755l2.082-0.892c0.892,0,1.486,0,2.377,0l0.594-0.594l0.892-0.594l1.19-1.784l0.594-0.298
	l1.19-1.486l0.298-0.298c-0.892-1.19-1.486-2.378-2.377-3.567v-0.298L282.434,155c-0.298-0.298-0.298-0.594-0.594-0.892
	l-2.082-2.971l-0.594-1.784l-0.594-0.594c-0.298-0.298-0.892-0.594-1.19-0.594l-2.676-1.784l-0.298-0.298l-0.594-0.594l-1.19-1.486
	l-0.892-3.269v-0.298l-1.486-2.971v-2.676l0.298-0.298v-3.269l0.892-1.486c0-0.594,0.298-0.892,0.298-1.486l0.298-0.594l0.594-2.971
	v-1.486l-90.66,8.621v-1.486h-0.298l0.298-0.298v-0.892l1.486-2.676l0.298-0.298l-1.486-0.892v-5.945l-2.974-3.269l0.892-2.676
	l5.053-0.298c-0.892-1.19-1.784-2.676-2.971-3.567v-3.863l0.892-0.892c0.298,0,0.298,0,1.19-0.594c0,0-0.298-1.486-0.594-1.784
	l0.892-2.676l0.298-0.298l-1.784-3.269l3.567-3.269l2.377,0.594l-0.298-2.676l1.19-2.676v-2.378V85.45l1.784-4.161l3.567-1.19
	c0.298-0.298,1.486-0.892,1.784-1.19l-0.298-1.19l1.19-3.269l0.594-0.594l-1.19-3.567l0.298-0.594l-0.892-4.459l2.377-3.269
	l1.19-0.298l0.298-0.298l2.377-0.594l1.784-1.19v-0.298l0.298-1.486l-1.19-2.378v-0.298l-0.298-0.594l-4.755-2.971l-0.892-3.269
	c0-0.594,0.298-0.892,0.298-1.486l-1.19-0.892l-1.19-3.567l1.486-3.567l-2.971-3.567v-2.971c0-0.594,0.298-1.19,0.298-1.486
	l-3.567-3.269V26L62.183,34.322l3.567,49.639l8.322,8.322l3.269,5.351l0.298,8.027l1.19,0.892l5.351,6.539l1.784,6.243l0.298,0.298
	l2.676,2.971l0.594,0.892l3.269,4.755l0.298,1.784l0.892,1.784l-0.298,4.459l0.892,2.378l-1.486,2.971l0.298,3.567l-2.377,4.161
	v1.486l-0.298,0.594l-1.486,2.676l-1.19,0.892l0.298,0.298l-2.377,3.863l1.19,3.269l-0.892,5.053l-0.594,0.594l-0.298,1.486
	l2.676,3.269v3.863l0.594,0.892l0.594,2.971l-0.298,2.676l-1.486,4.161l-2.676,2.971l-1.19,4.161l-3.567,3.863l0.892,1.19
	l1.19,0.892c2.676-1.19,0.594-0.594,10.404-2.971c3.567,0,7.132-0.594,10.404-1.19h2.971l1.486-0.594
	c1.784-0.298,4.161-0.594,6.539-0.298l3.269,0.594h0.892c0.594,0.298,1.486,0.594,2.377,0.594l3.269,1.19h0.892
	c1.19,0.594,2.974,1.19,4.161,1.486c10.404,3.567,5.945,1.486,14.267,4.459h0.594l1.784-0.298l5.351,0.594l1.784-0.298
	c1.784,0.594,4.161,0.892,6.539,0.594l1.19-0.892c1.468-4.442,2.36-4.74,3.547-5.334h0.298l-1.784-5.053l0.892-1.19
	c1.486-0.892,2.971-2.378,3.863-3.863c0.594-0.298,1.19-0.594,2.377-0.594l0.892-0.594c1.784-0.594,3.863-1.486,5.945-2.676
	l3.269,0.892l1.784,2.378v1.486l1.784-0.594c1.486,0,3.567,0,5.053,0l4.459,2.378c0,1.486,0,1.19,0,2.676l4.161,2.971v0.892
	l0.298,1.19l2.676-0.298l1.784,1.19h0.892l3.567,0.892l0.298,0.594l1.784,0.298l1.784,1.486l2.377,0.892l0.892,2.676l0.298,3.567
	c-0.892,0.892-1.784,1.486-3.269,2.378l-0.594,0.892c0.892,0.594,2.377,0.892,3.567,1.19c0.892,0,2.377,0,3.269,0
	c0.892,0.594,1.784,0.892,2.971,1.19c1.784,0.298,3.863,0.298,5.945-0.298l2.971,1.486c0.594,0.298,1.486,0.892,2.082,1.784
	c0.298,0.298,0.892,0.594,1.19,0.892l0.298-0.298l1.19-1.19l2.676-1.19c0.594,0,1.19,0,2.082,0v-0.594l0.594-2.378l2.377-1.486
	l0.298-1.486l2.971-2.676c0.298,0,0.594,0,0.892,0l2.082-0.594h0.594l2.377,0.594c0.892,0.594,0.594,0.298,1.486,1.19l0.298-0.298
	l-0.594-0.298h0.892c0.594-0.298,1.19-0.892,2.082-1.19h0.892l2.377,0.594l1.486,1.486h1.19c0.594,1.486,0.892,3.269,0.892,4.755
	l2.676,0.892c0,0,0.892-0.892,2.971-2.971l-0.594-0.594l-0.594-3.269c0.892-0.594,2.082-1.19,2.971-2.378
	c-0.298-1.486-0.594-3.269-0.594-4.755c0-1.19,0-0.892-0.298-2.676l0.594-0.892l3.269-1.784h0.594l2.082,0.594l0.594,0.298
	c1.19-0.892,2.676-1.784,3.863-2.676h0.298l1.486,0.298l2.082,1.19l0.298,1.784l0.892,1.486l0.298,2.378l-0.298,0.892
	c1.19,0,2.377,0,3.567,0l0.298,0.298c0.892,0.298,2.377,0.594,3.269,0.594l0.892,0.594l2.082,0.594h0.594
	c0.892,0,2.676,0.298,3.863,0.594l0.298,0.298l2.971,1.486l0.892,0.892c0.594,0.594,1.19,1.486,2.082,1.784
	c0.594,0.594,0.892,1.19,1.19,1.784l2.676,1.19l0.594-1.19l2.377-0.892l1.19,0.298l2.676,1.784l1.19-0.892l2.377-0.594l0.298-1.19
	l-0.594-0.594L318.406,210.004L318.406,210.004z"/>
</svg>
