<?xml version="1.0" encoding="utf-8"?>
<!-- Generator: Adobe Illustrator 23.0.1, SVG Export Plug-In . SVG Version: 6.00 Build 0)  -->
<svg version="1.1" id="Layer_1" xmlns="http://www.w3.org/2000/svg" xmlns:xlink="http://www.w3.org/1999/xlink" x="0px" y="0px"
	 viewBox="0 0 500 250" style="enable-background:new 0 0 500 250;" xml:space="preserve">
<style type="text/css">
	.st0{opacity:0.75;fill:#FF767D;enable-background:new    ;}
</style>
<polygon class="st0" points="208.278,113.418 208.278,113.12 207.387,111.043 207.387,110.745 207.092,110.745 205.903,110.152 
	204.121,109.261 202.934,107.479 201.746,106.883 200.261,105.399 199.073,103.915 199.073,103.617 197.29,102.133 195.806,102.431 
	195.511,102.431 195.213,102.726 192.54,105.104 191.354,105.399 188.383,103.915 185.71,102.726 184.226,101.54 183.632,100.947 
	182.741,100.056 180.661,97.678 180.959,95.303 180.959,93.521 180.959,93.225 180.661,92.927 180.068,92.036 178.88,91.443 
	178.286,90.85 176.209,87.286 175.318,85.504 172.645,85.504 172.347,85.504 170.863,85.802 168.19,84.315 167.299,83.722 
	166.11,84.02 164.924,84.02 164.33,84.02 163.735,84.02 161.657,83.129 160.468,80.754 159.577,78.971 159.577,78.674 
	159.282,78.376 158.391,76.298 158.687,74.814 157.5,73.032 157.5,70.061 157.202,69.17 156.609,67.984 156.013,67.686 
	135.82,15.719 133.743,15.124 132.852,14.828 131.961,14.233 131.07,13.639 128.695,11.857 128.102,11.264 126.913,10.671 
	126.32,10.671 124.24,10.075 122.756,9.482 122.458,9.482 121.567,9.184 118.896,7.7 118.598,7.405 117.409,7.405 116.518,7.107 
	116.223,7.107 115.627,7.405 115.332,7.405 115.627,9.184 115.034,11.264 112.361,13.046 111.768,13.344 109.393,13.344 
	108.8,13.639 107.908,14.233 106.72,16.61 103.751,17.797 102.86,18.392 101.969,18.688 99.592,20.768 98.998,21.659 97.812,22.55 
	94.841,23.441 93.059,22.55 92.761,22.55 90.091,21.954 89.2,21.954 86.229,20.172 85.933,19.579 84.745,16.906 84.447,15.421 
	84.151,13.639 82.072,13.046 81.18,13.046 80.885,13.344 66.631,56.699 66.631,56.996 66.334,57.59 66.631,59.669 66.631,60.263 
	66.927,61.747 68.411,66.497 68.709,67.093 69.007,69.468 69.007,70.359 69.007,72.141 67.225,73.923 66.927,75.11 66.631,75.407 
	65.74,76.892 65.145,80.456 64.849,80.754 64.849,84.315 65.145,84.315 66.631,86.097 66.927,89.068 66.631,89.959 67.225,91.443 
	67.225,93.225 67.52,94.116 70.193,97.383 70.193,97.678 70.491,98.569 69.898,101.242 68.709,103.322 66.631,105.399 
	66.631,105.995 68.709,108.963 67.225,111.338 64.849,114.011 64.551,114.309 63.067,116.091 61.583,117.576 61.285,118.169 
	60.987,118.467 60.692,119.06 60.097,120.249 60.097,120.842 59.801,122.919 59.801,123.217 62.176,124.406 62.769,124.999 
	65.145,128.265 63.661,131.236 60.097,131.531 58.91,131.531 58.91,131.829 58.91,132.422 59.801,133.907 58.91,136.58 
	58.91,137.175 59.205,139.846 55.939,141.628 55.048,141.333 52.971,139.846 52.375,139.551 51.782,138.362 51.487,137.769 
	51.487,137.471 50.891,137.769 50,138.362 82.667,220.916 84.447,222.996 84.447,223.589 85.042,225.073 85.042,225.669 
	85.042,226.262 85.933,228.044 85.933,228.637 85.636,231.012 86.229,231.606 88.607,232.201 89.793,233.388 90.091,233.686 
	91.575,234.279 92.466,235.17 94.248,236.061 96.03,238.734 95.732,239.327 95.732,239.625 96.03,241.109 96.325,241.407 
	97.514,241.702 98.405,242 98.998,240.814 99.296,239.625 99.296,238.734 99.592,236.359 99.889,236.359 98.405,234.279 
	98.405,233.388 98.405,232.794 98.405,232.201 98.998,228.637 100.483,226.557 102.86,225.964 103.454,223.589 103.751,222.698 
	104.047,222.698 103.156,221.807 102.86,220.916 102.86,217.948 103.751,215.868 105.829,214.383 106.72,214.086 107.908,213.195 
	107.611,212.601 105.531,210.819 104.64,206.96 105.236,206.364 105.236,206.069 104.938,204.585 106.126,201.614 107.313,200.425 
	108.502,199.537 108.8,199.537 109.393,198.646 110.579,197.159 110.579,196.863 112.957,195.081 115.925,198.348 116.223,198.646 
	116.518,198.348 117.114,198.05 119.489,197.159 122.162,198.646 122.756,199.239 122.756,198.941 123.646,197.755 123.646,197.159 
	122.756,195.972 123.944,193.299 125.131,193.299 126.615,191.815 127.21,190.924 127.506,190.626 128.102,190.329 128.397,190.329 
	130.772,188.251 131.07,187.658 130.772,185.876 130.772,185.28 132.852,182.905 134.041,182.61 134.634,182.312 135.227,182.312 
	137.602,181.421 139.384,182.014 139.682,182.014 140.275,180.232 142.058,178.155 142.355,178.155 142.651,176.67 141.76,175.779 
	141.76,173.7 140.869,171.622 141.76,169.84 141.76,168.949 141.76,168.356 141.464,166.869 141.76,165.385 141.76,163.603 
	142.651,162.119 142.651,161.526 142.355,160.93 141.76,160.635 139.98,158.259 142.355,154.695 144.433,152.913 144.731,152.913 
	145.324,152.913 147.106,151.429 149.186,150.538 151.561,152.913 151.856,154.991 151.561,155.586 152.154,156.773 
	155.718,157.071 156.609,157.368 156.904,157.664 157.5,157.664 157.795,157.664 157.795,155.882 156.013,153.507 157.202,151.725 
	158.391,151.131 159.282,149.942 159.282,149.647 159.577,149.349 159.577,149.051 164.33,147.865 165.815,147.865 165.815,146.974 
	166.408,145.785 167.001,144.599 169.674,143.708 172.049,142.817 174.129,141.926 177.395,144.599 177.395,144.894 
	177.989,145.785 177.989,145.49 178.88,144.301 180.661,143.112 181.553,141.926 181.257,141.926 181.851,140.737 181.257,138.955 
	181.257,136.284 185.117,134.502 186.601,134.205 188.085,134.205 190.165,133.313 190.758,133.313 190.758,133.016 190.758,132.72 
	190.463,131.531 191.354,129.156 192.54,127.967 195.213,126.483 197.29,127.672 197.29,127.374 196.995,123.81 199.073,121.733 
	201.152,120.842 204.121,123.217 204.419,123.217 204.419,122.919 205.012,122.031 205.31,121.435 205.608,119.951 205.903,119.358 
	205.903,119.06 206.794,117.576 207.387,115.2 208.576,114.605 208.576,114.309 208.874,114.309 "/>
</svg>
