<?xml version="1.0" encoding="utf-8"?>
<!-- Generator: Adobe Illustrator 23.0.1, SVG Export Plug-In . SVG Version: 6.00 Build 0)  -->
<svg version="1.1" id="Layer_1" xmlns="http://www.w3.org/2000/svg" xmlns:xlink="http://www.w3.org/1999/xlink" x="0px" y="0px"
	 viewBox="0 0 500 250" style="enable-background:new 0 0 500 250;" xml:space="preserve">
<style type="text/css">
	.st0{opacity:0.75;fill:#FF767D;enable-background:new    ;}
</style>
<g>
	<polygon class="st0" points="112.357,38.67 114.827,41.736 114.693,42.339 114.763,44.872 115.227,45.608 119.035,48.343 
		120.837,48.743 125.306,48.475 129.983,50.14 132.516,50.075 132.916,48.272 135.652,44.464 141.191,39.393 143.591,39.925 
		145.793,38.522 111.157,38.404 	"/>
	<polygon class="st0" points="106.121,38.064 106.817,38.068 106.214,37.935 	"/>
	<polygon class="st0" points="50.901,79.872 51.638,79.404 53.37,77.27 55.572,75.867 59.843,73.664 60.446,73.798 60.579,73.196 
		63.176,69.989 66.85,67.654 67.581,67.184 70.652,64.715 74.188,62.976 74.321,62.378 75.323,60.709 78.922,55.834 85.169,55.377 
		90.606,57.167 91.203,57.3 91.337,56.697 94.408,54.228 96.408,50.889 98.546,46.949 100.615,46.149 102.481,43.412 
		103.478,41.742 106.121,38.064 50.816,37.626 	"/>
	<polygon class="st0" points="386.391,175.72 386.119,171.245 369.85,37.165 197.319,39.237 178.499,38.845 179.433,40.311 
		180.233,42.379 181.572,42.044 186.174,41.174 187.379,41.441 193.048,41.44 197.058,46.112 198.995,51.582 198.126,52.649 
		198.461,53.988 199.059,54.12 204.536,57.853 204.206,62.194 205.94,65.729 206.408,66.465 207.012,72.273 208.814,72.673 
		210.884,71.867 213.955,75.072 219.294,73.733 224.968,79.406 226.504,81.006 231.976,84.743 232.312,86.077 233.049,91.281 
		231.049,94.62 229.311,96.758 232.986,100.091 232.852,100.694 235.988,100.757 237.188,101.023 239.123,100.826 241.662,100.756 
		244.531,102.025 247.87,104.025 249.539,105.027 251.341,105.427 253.88,111.031 255.08,111.298 259.885,112.363 261.555,113.361 
		266.961,108.892 284.252,124.701 273.311,134.248 272.645,137.251 272.98,138.589 273.177,140.525 273.045,141.122 
		272.714,145.463 268.912,148.402 265.841,150.871 266.641,152.94 266.312,157.276 262.509,160.215 259.971,160.284 259.24,160.754 
		255.769,165.025 255.034,165.489 254.036,167.159 253.167,168.231 253.834,170.897 254.169,172.236 254.106,175.371 
		254.703,175.504 255.174,176.235 255.908,175.771 257.978,174.966 259.908,174.767 261.647,172.63 262.244,172.762 
		262.377,172.165 267.384,169.493 272.722,168.154 274.525,168.554 275.459,170.02 278.397,173.827 279.202,175.897 
		280.067,180.498 282.206,182.231 285.411,184.834 293.954,186.102 296.893,189.904 296.962,192.443 299.026,191.636 
		305.303,191.769 307.105,192.169 308.305,192.435 309.51,192.703 311.307,193.101 316.918,196.237 318.454,197.837 
		320.791,201.505 322.593,201.905 327.531,202.373 328.133,202.507 324.859,197.366 323.659,191.426 324.058,189.624 
		323.588,188.893 323.519,180.68 321.049,177.614 319.043,175.278 317.977,174.41 313.972,169.739 311.901,164.87 311.896,159.196 
		312.029,158.593 310.962,157.729 310.893,155.191 310.093,153.122 310.023,150.588 310.29,149.384 308.956,144.046 
		306.347,135.903 309.552,132.831 310.421,131.765 311.418,130.095 310.484,128.629 311.818,122.619 312.35,120.219 314.084,118.08 
		314.286,114.342 317.751,110.07 317.281,109.339 316.417,104.733 316.215,102.796 315.548,100.125 315.078,99.394 314.475,99.26 
		313.878,99.128 309.468,96.258 308.268,95.992 305.265,89.652 309.733,83.711 316.943,85.31 317.54,85.443 317.807,84.243 
		319.476,79.566 322.211,75.764 323.08,74.697 324.013,70.49 328.279,68.286 332.486,69.219 334.555,68.419 336.491,68.216 
		337.691,68.482 338.827,66.211 343.962,62.941 344.095,62.338 341.556,56.734 345.693,49.46 350.568,47.385 353.836,46.851 
		359.175,45.512 364.918,53.724 363.052,56.46 362.386,59.463 362.984,59.595 364.589,63.734 361.721,68.139 361.587,68.742 
		362.387,70.81 362.59,72.747 360.853,74.879 354.784,76.683 352.982,76.283 351.776,76.016 351.179,75.884 348.843,77.889 
		347.707,80.16 343.106,86.699 342.707,88.502 342.307,90.304 340.905,93.776 340.174,94.245 340.041,94.843 342.776,96.714 
		344.579,97.114 351.517,99.912 350.92,105.453 350.521,107.256 349.652,108.322 350.323,110.994 348.521,116.268 346.923,117.799 
		347.323,121.671 347.658,123.009 348.726,129.547 346.53,136.624 343.122,137.759 344.995,140.693 344.861,141.296 
		345.928,142.164 346.53,142.298 347.133,142.431 351.405,145.897 352.674,148.702 351.075,155.912 349.609,156.846 
		345.204,159.651 344.602,159.518 345.07,160.254 345.807,165.459 340.268,170.53 340.604,171.864 342.604,174.199 342.939,175.538 
		343.276,176.871 346.476,179.472 348.481,181.808 347.612,182.875 349.618,185.21 351.42,185.61 355.425,184.608 355.691,183.407 
		357.291,181.871 358.027,181.402 358.159,180.805 362.495,175.461 366.233,175.663 370.505,179.129 370.842,180.462 
		372.377,182.067 372.645,186.536 373.247,186.67 373.845,186.802 377.05,189.404 381.924,193.009 382.991,193.872 382.729,200.752 
		386.4,204.084 384.464,209.961 385.867,212.163 386.672,214.233 385.671,215.897 382.199,220.173 381.469,220.638 381.335,221.241 
		382.669,220.904 384.135,219.971 389.345,219.235 392.481,219.299 394.284,219.698 394.881,219.831 396.752,217.096 
		397.616,216.028 399.552,215.826 430.518,212.612 432.987,210.009 433.121,209.407 433.387,208.207 434.656,205.333 
		435.455,201.733 437.257,196.459 439.32,189.984 439.922,184.444 440.056,183.841 441.922,181.105 443.058,178.834 443.19,178.236 
		444.587,174.764 	"/>
</g>
</svg>
