<?xml version="1.0" encoding="utf-8"?>
<!-- Generator: Adobe Illustrator 23.0.1, SVG Export Plug-In . SVG Version: 6.00 Build 0)  -->
<svg version="1.1" id="Layer_1" xmlns="http://www.w3.org/2000/svg" xmlns:xlink="http://www.w3.org/1999/xlink" x="0px" y="0px"
	 viewBox="0 0 500 250" style="enable-background:new 0 0 500 250;" xml:space="preserve">
<style type="text/css">
	.st0{opacity:0.75;fill:#FF767D;enable-background:new    ;}
</style>
<path class="st0" d="M375.013,193.544l-1.471-0.345l-8.447-0.428l-3.509-1.602l-0.739-0.173l-0.764-0.179l-6.286-3.026l-1.865-1.99
	l-4.462-4.157l-0.829-6.41l0.518-2.21l0.173-0.739l-0.566-0.912l-0.566-0.912l-0.566-0.912l-0.739-0.173l-7.929-2.638l-4.98-1.947
	l-6.376-9.263l7.053-6.894l0.912-0.566l-0.394-1.645l-0.739-0.173l-4.29-4.89l-2.819-4.545l-2.819-4.545l-2.431-2.902l-2.037-1.257
	l-1.471-0.345l-3.682-0.863l-0.912,0.566l-7.149,0.656l-6.976-0.083l-4.682-6.541l-0.953-2.555l-0.565-0.912l-0.311-8.62
	l1.989-1.865l0.083-6.976l0.691-2.949l5.236-5.768l8.185-5.076l-1.692-2.728l4.283-8.323l3.294-0.78l6.022-2.472l1.645-0.394
	l0.739,0.173l-3.164-3.073l-2.037-1.257l-4.682-6.541l0.345-1.471l-1.126-1.816l-2.086-4.373l-0.953-2.555l-1.92-5.081l-1.471-0.345
	l-2.776-1.43l-4.2,1.347l-0.912,0.566l-2.555,0.953l-0.345,1.471l-3.42,4.641l-9.532,0.876l-0.912,0.566l0.739,0.173l-0.124,3.855
	l-8.185,5.076l-9.263,6.376l-117.795,1.917l-83.873-0.237l-16.959,82.285l30.281,0.104c38.341-1.111,31.365-1.194,38.169-0.378
	l1.084-1.298l3.682,0.863l0.739,0.173c4.027-0.608,9.532-0.876,13.779,0.899l0.739,0.173l4.2-1.347
	c43.84-1.381,26.771-1.492,78.714-0.973l3.122-0.047l0.565,0.912l47.653-4.371l0.09,6.237l1.091,11.914l3.337,2.335l0.829,6.41
	l0.78,3.294l0.047,3.122l3.337,2.335l4.641,3.42l0.566,0.912l1.865,1.99l4.814,2.681l0.565,0.912l1.298,1.084l1.298,1.084l5.2,4.33
	l-0.643,6.065l0.566,0.912l0.608,4.027l0.566,0.912l0.566,0.912l0.394,1.645l1.645-0.394l0.912-0.566l3.64-2.258l1.899-8.102
	l2.681-4.814l9.311-3.26l0.739,0.173l1.084-1.298l3.467-1.519l2.681-4.814l0.691-2.949l7.84-3.605l2.776,1.43l0.739,0.173
	l3.682,0.863l6.547,8.53l-0.345,1.471l-0.124,3.855l0.829,6.41l0.566,0.912l1.645-0.394l6.41-0.829l0.739,0.173l-0.345,1.471
	l7.792-6.721l0.739,0.173l4.545-2.818l6.41-0.829l1.645-0.394l-2.776-1.43L375.013,193.544L375.013,193.544z"/>
</svg>
