<?xml version="1.0" encoding="utf-8"?>
<!-- Generator: Adobe Illustrator 23.0.1, SVG Export Plug-In . SVG Version: 6.00 Build 0)  -->
<svg version="1.1" id="Layer_1" xmlns="http://www.w3.org/2000/svg" xmlns:xlink="http://www.w3.org/1999/xlink" x="0px" y="0px"
	 viewBox="0 0 500 250" style="enable-background:new 0 0 500 250;" xml:space="preserve">
<style type="text/css">
	.st0{opacity:0.75;enable-background:new    ;}
	.st1{fill:#FF767D;}
</style>
<g class="st0">
	<polygon class="st1" points="168.259,58.344 168.744,58.344 171.659,56.887 172.144,56.4 174.33,55.915 176.273,56.4 176.517,56.4 
		176.76,56.4 177.731,55.429 177.731,55.186 177.731,54.701 178.946,52.271 179.432,52.029 179.673,51.786 182.103,49.843 
		183.561,49.843 185.26,49.358 185.747,49.358 185.988,49.358 187.446,49.114 188.418,49.358 190.117,49.599 190.604,49.843 
		190.846,49.843 192.06,50.087 192.791,50.328 193.032,50.328 194.246,50.087 195.219,50.087 197.161,50.572 197.646,50.572 
		198.375,50.572 201.29,52.514 201.534,53 202.262,53.243 202.991,53.487 205.419,55.186 206.391,53 206.633,52.514 206.633,51.3 
		207.849,48.871 209.791,47.413 211.734,48.385 211.978,48.385 213.92,48.385 215.378,49.114 215.619,49.599 217.321,50.087 
		219.02,51.057 219.263,51.057 219.507,50.572 221.693,49.843 222.178,49.843 223.392,49.599 224.121,49.358 225.335,48.871 
		227.521,48.142 228.006,48.142 228.735,48.629 229.222,48.629 229.707,48.629 228.978,48.385 228.493,47.413 228.006,47.172 
		227.521,46.684 225.822,44.256 225.093,43.528 223.877,44.742 222.907,44.985 221.449,44.985 220.964,43.771 220.964,43.528 
		219.507,41.1 220.477,39.399 220.964,38.914 222.178,37.941 222.907,37.7 223.392,37.7 222.663,36.484 221.935,35.27 
		221.449,34.056 220.964,31.626 219.748,31.141 216.592,31.141 216.348,31.141 215.134,32.113 214.891,32.113 214.406,33.812 
		213.435,34.785 212.219,34.541 211.978,35.27 210.277,35.755 209.063,35.27 208.578,34.785 206.876,33.812 206.633,33.571 
		206.391,33.812 205.177,34.298 202.504,35.755 200.076,35.514 199.833,35.514 199.104,35.755 197.405,35.27 196.676,35.514 
		195.219,35.514 193.032,34.298 191.575,32.599 192.06,30.656 192.06,30.169 191.575,28.47 191.333,27.256 191.333,25.798 
		191.09,24.826 191.09,24.097 189.388,24.097 188.418,24.097 187.446,24.584 186.717,25.069 186.232,25.313 184.774,26.283 
		184.289,26.527 182.588,27.497 181.859,27.741 180.646,28.955 177.974,29.684 177.245,29.684 176.76,29.684 175.059,29.684 
		174.33,29.927 172.631,30.169 171.903,30.412 170.93,30.169 169.96,31.626 168.259,30.412 166.072,30.412 164.615,31.141 
		163.158,31.626 162.672,31.626 162.187,31.626 160.001,32.842 158.787,32.599 158.543,32.842 156.844,34.056 155.143,35.755 
		153.201,36.971 152.957,37.213 151.258,38.67 150.286,38.67 150.044,38.914 149.801,39.155 148.828,40.613 148.587,41.1 
		147.614,42.07 145.672,43.043 145.186,43.043 144.458,42.799 141.299,44.013 140.57,43.771 140.329,44.742 138.628,45.47 
		137.657,45.229 137.414,45.229 136.929,45.229 135.471,44.256 135.471,44.013 132.556,43.043 131.827,42.07 131.584,42.314 
		129.641,43.528 127.699,43.771 126.97,44.013 125.512,44.742 124.783,44.985 121.383,44.742 120.169,44.013 119.684,43.771 
		118.227,42.799 117.498,40.613 117.74,40.371 115.312,39.155 115.068,38.914 114.583,38.427 113.854,37.456 112.64,36.242 
		111.912,35.755 110.939,34.298 110.698,33.327 109.969,32.842 109.482,32.355 108.753,32.113 108.024,32.113 105.597,30.897 
		105.353,30.656 104.383,30.169 104.139,30.169 103.169,30.169 101.468,29.442 101.224,29.442 100.982,29.198 100.01,29.442 
		99.525,29.927 96.366,29.927 96.125,29.684 95.152,30.412 92.966,30.412 91.509,30.169 89.81,31.141 89.566,31.385 89.081,32.599 
		88.596,32.842 87.38,34.298 85.437,36.484 84.708,36.484 82.766,35.514 82.522,34.785 82.037,33.812 81.552,32.599 81.552,32.355 
		81.552,29.684 81.552,29.198 82.037,27.497 82.522,25.798 83.251,25.069 83.494,24.826 83.494,24.584 84.223,24.097 84.223,23.856 
		84.223,22.883 84.223,22.64 85.437,20.455 85.924,19.968 86.895,17.782 87.138,17.54 87.867,15.111 90.053,14.14 90.295,13.897 
		90.538,13.653 91.509,12.683 91.996,11.469 93.695,9.768 94.182,9.524 94.667,9.283 95.152,9.039 95.396,8.795 95.881,5.883 
		94.667,5.883 93.695,6.124 91.752,6.611 90.782,7.096 90.295,7.096 90.053,7.34 88.837,8.554 87.38,9.283 86.895,9.524 
		84.708,10.74 84.467,10.982 83.494,11.954 83.009,12.683 82.766,13.897 81.552,15.111 81.308,15.354 80.579,16.083 78.88,17.782 
		76.938,18.998 75.965,19.239 74.751,20.455 74.023,21.669 72.809,22.64 72.08,22.883 71.351,23.856 70.864,24.341 70.623,25.069 
		70.379,25.313 70.135,27.497 68.193,29.198 67.708,29.442 66.006,29.684 65.278,29.684 65.036,29.684 63.822,30.169 63.335,30.412 
		62.606,31.141 59.693,34.298 58.477,34.785 57.992,35.514 56.535,36.242 56.05,36.484 54.836,37.213 54.592,37.213 53.135,37.7 
		52.649,37.7 50.22,37.941 49.978,37.941 48.52,38.914 46.091,38.914 45.362,38.914 45.12,38.914 43.663,39.399 43.178,39.399 
		42.934,39.642 41.72,40.613 41.477,40.856 40.019,42.799 39.778,43.043 38.562,44.256 35.405,46.443 34.191,46.928 33.462,47.413 
		32.005,48.142 31.276,48.385 29.819,49.114 28.117,49.599 28.117,49.843 29.819,50.328 31.52,51.542 32.734,52.758 33.462,53.728 
		33.947,54.701 34.433,55.915 34.92,56.158 35.649,57.616 41.477,58.344 52.406,59.8 68.921,62.473 77.179,65.873 77.423,65.873 
		78.393,65.873 79.122,65.873 79.609,65.873 80.094,65.873 80.823,65.873 82.281,66.115 83.009,66.602 85.437,65.63 85.681,65.386 
		86.166,65.386 87.623,65.386 89.081,65.873 89.81,66.115 90.538,66.602 92.481,66.115 93.695,67.087 93.695,67.331 94.182,67.331 
		94.667,66.844 95.881,66.844 96.125,66.844 97.095,67.087 98.067,67.087 99.04,67.087 100.254,67.087 100.495,67.572 
		101.468,68.058 102.44,69.03 102.681,70.002 102.925,70.244 104.139,72.186 103.654,73.159 104.139,73.159 107.298,73.888 
		107.298,74.131 108.753,74.131 108.997,74.131 109.24,74.131 110.939,74.616 111.426,75.102 112.64,76.315 112.64,76.559 
		113.854,77.288 114.583,79.23 114.339,80.203 115.312,81.417 114.827,83.359 114.827,83.847 114.583,84.575 114.827,85.06 
		115.312,87.003 114.827,87.732 114.583,89.431 113.854,89.918 113.854,90.403 114.339,90.403 115.312,89.674 116.526,88.946 
		119.197,89.674 120.411,90.888 120.898,92.104 120.411,94.047 120.169,95.017 120.169,95.261 119.684,96.718 118.955,97.689 
		118.712,98.905 119.684,99.146 119.926,99.146 120.655,97.689 120.655,97.447 122.112,95.505 122.356,94.532 123.57,92.833 
		123.813,92.346 125.027,90.403 125.269,89.431 125.269,89.189 125.512,88.704 126.485,87.247 126.241,86.518 127.213,84.575 
		127.213,84.332 127.455,83.359 127.699,81.902 128.671,79.959 128.671,79.718 129.885,77.288 130.614,76.559 132.313,74.616 
		132.8,74.373 133.041,73.888 133.041,73.644 132.8,72.186 132.8,70.731 133.285,68.545 135.713,67.087 136.441,67.331 
		139.113,69.274 139.6,71.46 139.842,72.186 140.085,71.945 141.055,70.002 141.055,69.759 141.786,68.786 141.786,68.301 
		141.299,67.572 142.757,65.386 146.4,65.145 147.371,64.172 147.614,63.929 148.099,63.444 150.044,62.23 150.529,62.23 
		151.987,63.444 152.472,63.929 153.444,66.602 152.957,68.301 152.716,68.545 153.201,68.545 155.387,66.602 155.872,64.901 
		155.629,64.657 155.629,64.416 155.872,63.444 156.357,61.744 158.787,59.8 159.029,59.8 160.486,58.344 162.431,58.586 
		162.916,58.344 165.344,57.857 168.015,58.101 	"/>
	<polygon class="st1" points="304.271,177.354 304.513,176.14 304.513,175.896 304.028,174.195 304.271,172.981 304.028,172.74 
		304.028,171.282 304.028,171.039 304.028,169.096 304.513,167.639 304.271,166.425 304.271,165.938 303.784,165.452 
		303.543,164.724 302.57,163.266 302.085,162.296 301.113,160.838 300.871,160.11 300.627,159.381 300.384,158.652 298.685,154.523 
		298.685,154.038 297.471,150.638 296.984,148.937 296.013,146.265 293.583,141.408 292.613,137.764 292.37,137.279 292.37,136.794 
		290.669,132.906 289.455,130.964 289.211,130.478 287.997,129.506 287.027,128.292 284.597,126.835 284.112,126.835 
		282.898,126.593 281.682,125.864 281.197,125.864 280.955,125.864 280.468,126.593 279.983,127.078 279.254,127.563 
		277.068,129.506 275.854,129.75 273.911,130.722 272.939,130.964 272.454,130.964 272.454,131.449 272.21,131.936 270.996,133.635 
		270.753,135.092 270.753,135.336 269.539,136.794 269.295,137.035 269.054,137.764 269.054,138.251 268.566,139.465 
		268.566,139.95 268.081,141.651 266.139,143.594 265.654,143.835 265.166,144.323 264.925,145.051 264.196,146.75 263.711,147.238 
		261.766,149.665 258.853,149.665 257.396,148.937 256.908,148.693 256.423,148.693 255.453,148.452 254.724,148.452 
		253.996,148.452 251.809,147.479 250.352,146.75 249.623,145.537 249.379,145.537 248.894,144.564 247.68,141.408 248.651,140.679 
		248.651,140.435 248.894,139.95 248.409,137.522 248.409,136.794 248.651,134.607 248.894,134.364 249.379,132.665 
		251.566,130.478 253.508,129.993 254.724,129.75 255.209,128.049 256.667,127.078 257.152,126.835 257.881,125.136 
		257.881,124.892 257.881,124.648 257.152,121.492 257.152,120.763 257.881,118.577 259.095,117.119 259.582,116.878 
		260.309,116.391 261.525,116.149 261.766,115.662 262.253,114.933 263.224,114.206 263.224,113.963 263.224,112.99 263.224,112.02 
		262.982,111.533 262.982,111.291 262.739,109.105 262.739,107.404 262.739,106.434 262.739,105.947 262.01,103.762 
		262.253,102.061 262.739,100.604 262.739,100.362 262.739,99.875 262.739,99.633 261.766,97.689 261.766,97.204 261.525,96.718 
		261.281,95.017 260.067,93.56 259.095,93.318 257.152,92.346 256.908,92.104 255.209,89.918 254.724,88.217 254.724,87.488 
		254.237,87.247 254.237,84.332 255.938,83.359 258.366,82.631 258.125,82.631 256.667,81.173 256.423,80.932 255.209,79.718 
		254.237,78.745 253.752,76.803 252.294,75.589 252.051,75.102 251.566,75.102 250.352,75.345 249.867,75.345 246.708,74.86 
		246.223,74.373 245.494,73.888 244.765,73.644 242.823,74.131 242.338,74.131 240.151,73.403 239.664,73.159 237.722,71.701 
		237.236,71.46 236.264,71.46 235.294,71.46 234.809,71.701 233.107,72.186 230.436,71.216 229.222,70.244 228.735,68.786 
		227.277,67.572 227.036,67.087 226.792,67.087 226.549,67.087 224.606,66.602 223.636,66.115 222.907,66.602 222.42,67.087 
		221.693,67.087 220.721,67.087 220.236,67.331 218.778,67.572 218.535,67.572 216.592,66.602 216.107,66.115 216.107,66.602 
		214.406,65.63 213.92,65.145 211.734,64.416 211.249,64.416 211.005,64.172 209.548,63.687 207.12,65.145 205.419,65.386 
		205.177,65.386 204.449,66.844 203.72,67.816 202.262,69.759 201.534,70.487 200.561,71.945 200.805,72.915 201.29,73.403 
		202.019,74.131 202.019,74.616 202.748,75.589 204.449,75.345 205.419,75.345 208.334,77.288 208.334,79.23 206.633,80.932 
		204.934,81.66 203.961,81.902 201.775,82.631 200.561,82.631 200.076,82.631 199.591,82.631 198.375,83.359 197.646,83.603 
		195.704,85.546 195.462,85.546 195.219,86.031 194.733,86.518 194.49,87.003 194.49,88.217 194.49,88.704 195.219,89.918 
		195.704,91.132 195.704,92.104 195.947,92.59 196.432,94.289 196.191,95.261 196.191,95.99 196.432,96.962 196.432,97.447 
		196.432,99.146 196.432,99.39 195.947,102.061 195.704,102.546 195.704,102.79 195.462,103.762 194.733,105.22 194.005,106.675 
		193.517,109.105 191.575,110.563 188.903,109.834 187.933,110.075 185.988,109.105 185.988,108.862 185.018,106.919 
		184.774,106.434 184.289,104.491 184.531,103.762 184.531,103.034 184.531,102.546 185.018,100.847 185.747,100.119 
		185.26,100.119 184.531,98.418 184.531,96.962 184.046,97.447 184.046,97.689 183.561,99.146 183.561,99.39 183.317,101.332 
		181.131,103.275 180.646,103.275 178.946,103.762 177.731,103.519 177.731,104.004 176.273,105.947 175.303,106.19 
		175.303,108.133 175.303,108.62 175.059,110.563 175.059,111.291 172.631,113.963 171.659,114.206 170.445,114.692 
		170.201,114.933 170.689,115.42 171.415,117.119 172.144,120.52 171.903,121.735 171.903,122.221 171.659,123.435 171.903,123.678 
		172.144,124.648 172.144,125.136 172.388,126.593 171.659,129.021 171.659,129.75 171.415,130.235 171.174,131.449 
		170.689,132.177 170.445,133.879 170.201,134.364 169.96,134.851 168.988,137.035 168.988,137.279 168.744,138.251 
		167.286,140.679 166.801,141.408 165.831,142.136 166.072,142.38 167.53,144.079 168.502,146.265 168.988,147.723 168.988,147.966 
		169.231,148.693 169.96,149.909 170.445,152.337 170.201,153.551 170.201,154.523 168.502,157.194 168.259,157.68 167.53,158.408 
		167.774,159.866 168.015,160.838 168.744,161.567 169.231,162.296 170.445,164.482 171.174,165.452 171.903,168.124 
		172.144,168.611 172.388,168.853 173.117,169.825 173.36,170.31 174.574,172.011 174.574,172.496 174.818,172.74 176.273,174.682 
		176.76,175.168 178.218,177.11 178.703,178.083 180.16,180.51 181.131,182.453 181.374,182.453 181.859,184.639 182.832,187.069 
		183.317,189.741 183.804,192.168 184.289,194.355 184.289,194.598 184.774,195.569 185.018,197.755 185.018,198.727 
		184.774,199.941 184.774,200.426 184.774,201.642 184.774,203.585 184.774,205.284 184.774,206.5 184.774,208.684 184.531,209.9 
		184.531,210.629 184.289,213.3 184.046,213.785 183.804,215.243 183.804,215.728 183.317,217.429 183.075,217.914 182.103,218.887 
		181.859,220.829 180.889,222.043 180.646,222.528 180.16,223.257 178.946,225.2 178.946,225.687 178.218,227.386 177.974,228.115 
		177.731,229.816 177.489,230.301 177.489,230.545 177.489,231.515 177.002,233.216 176.76,233.458 175.544,235.402 
		175.303,235.644 174.089,237.586 280.712,223.744 280.712,223.257 280.468,222.043 281.197,220.586 281.44,219.857 281.44,219.372 
		282.169,217.914 283.383,216.7 283.627,216.213 284.112,214.999 285.569,213.542 286.54,212.571 287.268,211.599 287.268,211.358 
		287.027,210.142 287.027,209.9 288.484,206.985 288.484,206.741 288.241,206.5 287.756,205.284 287.512,203.826 287.512,203.1 
		287.512,202.127 287.756,200.426 288.241,197.998 289.942,196.541 292.37,194.84 293.098,194.598 293.342,194.355 293.827,193.626 
		294.069,193.384 294.556,192.168 294.312,191.44 293.827,189.984 293.827,187.798 293.827,187.554 295.041,185.127 
		294.556,183.426 296.742,180.998 296.984,180.998 296.984,180.754 297.712,179.782 300.871,178.324 302.329,178.811 
		303.543,179.297 304.513,180.025 305,178.811 	"/>
</g>
</svg>
