<?xml version="1.0" encoding="utf-8"?>
<!-- Generator: Adobe Illustrator 23.0.1, SVG Export Plug-In . SVG Version: 6.00 Build 0)  -->
<svg version="1.1" id="Layer_1" xmlns="http://www.w3.org/2000/svg" xmlns:xlink="http://www.w3.org/1999/xlink" x="0px" y="0px"
	 viewBox="0 0 500 250" style="enable-background:new 0 0 500 250;" xml:space="preserve">
<style type="text/css">
	.st0{opacity:0.75;fill:#FF767D;enable-background:new    ;}
</style>
<polygon class="st0" points="53.28,32.157 53.492,32.58 53.915,33.426 54.337,35.329 54.549,35.751 54.971,36.808 54.971,37.02 
	55.183,37.864 56.028,38.711 56.028,38.923 56.452,41.248 56.028,42.727 56.028,43.151 55.393,43.785 55.183,44.629 54.971,45.686 
	54.971,45.898 55.605,47.801 56.028,48.645 56.028,49.492 56.028,50.126 55.605,50.972 55.393,51.607 56.24,52.874 56.452,53.72 
	56.452,55.623 56.24,56.679 56.24,56.891 56.24,57.314 56.028,58.794 55.605,59.004 56.452,60.061 56.452,60.273 57.086,61.542 
	57.72,62.81 58.353,65.135 58.777,66.192 58.987,66.616 59.621,68.517 59.621,68.941 59.621,69.363 59.833,69.575 60.045,69.998 
	60.68,71.266 60.68,71.476 60.89,72.111 61.948,73.169 62.159,73.591 62.581,75.282 62.793,75.705 62.793,75.917 63.005,76.129 
	63.215,76.551 63.639,78.454 63.849,78.664 64.484,79.933 64.484,82.047 64.274,82.47 64.696,84.373 64.696,84.795 64.696,85.219 
	64.696,86.063 64.696,86.276 65.33,87.544 65.33,88.813 65.33,89.023 65.542,89.657 65.542,91.348 65.33,91.772 65.33,91.982 
	65.33,92.406 65.33,94.097 65.33,94.308 65.964,95.788 65.964,96.633 66.175,97.479 66.175,99.382 66.387,100.226 65.964,101.285 
	65.964,101.495 66.809,102.553 67.233,103.188 67.233,103.398 67.443,103.82 67.867,106.357 67.867,106.992 67.443,108.682 
	67.233,109.529 67.867,111.009 68.078,112.066 67.655,113.123 67.443,114.603 67.443,115.025 67.655,115.448 68.502,116.928 
	68.924,118.619 68.924,118.829 69.136,120.098 69.136,120.522 69.558,120.732 69.558,121.367 69.768,121.579 69.98,122.001 
	70.192,122.213 70.403,122.635 71.037,123.904 71.249,124.326 72.305,124.96 73.152,126.229 73.362,126.651 73.574,128.132 
	73.362,128.766 73.362,129.4 73.362,129.611 73.786,131.303 73.786,131.513 73.786,132.148 74.208,133.628 74.631,134.051 
	75.055,135.742 74.208,137.644 73.996,137.644 74.42,139.125 74.42,139.335 74.631,139.759 74.631,141.026 75.055,142.295 
	75.055,143.141 75.055,143.563 75.055,144.41 74.208,146.312 73.574,146.947 72.73,148.003 71.461,149.694 71.249,149.906 
	71.037,149.906 69.98,150.751 68.924,151.385 68.078,152.231 67.233,152.866 67.233,153.076 67.443,153.076 68.078,154.344 
	68.29,154.557 68.712,154.979 70.192,157.094 70.192,157.304 70.403,157.516 71.037,158.785 71.249,158.995 72.94,158.995 
	74.42,159.841 74.631,159.841 76.534,160.687 77.38,161.532 77.802,161.744 78.859,164.281 81.608,228.968 147.774,226.431 
	229.163,220.724 229.163,220.512 229.373,220.09 229.373,219.666 228.739,218.822 228.529,217.765 228.105,217.341 227.683,215.862 
	227.683,215.438 228.105,214.169 228.105,213.325 228.529,212.268 228.317,211.844 227.26,210.153 226.626,209.097 226.414,208.885 
	226.204,208.251 225.357,207.828 224.511,207.406 223.032,205.503 222.82,205.291 221.129,205.081 220.707,205.081 220.073,205.081 
	217.958,204.023 216.479,202.756 216.267,202.756 214.999,202.332 214.154,201.063 213.942,201.063 212.463,200.641 
	211.617,200.007 210.982,199.795 210.136,199.372 208.657,197.893 208.235,196.201 207.177,195.144 207.177,194.088 
	207.177,193.876 206.966,193.876 206.332,193.453 204.217,191.975 202.739,191.762 201.68,191.55 199.145,190.706 198.298,190.494 
	196.608,189.648 195.973,188.379 195.551,187.957 194.917,187.322 193.648,187.112 193.014,187.112 191.111,187.112 190.054,186.9 
	189.842,186.9 187.939,185.632 185.826,184.363 185.826,183.729 185.614,183.729 184.346,182.672 183.923,182.46 182.655,181.616 
	182.445,181.404 181.176,180.769 180.118,178.656 180.33,177.388 180.33,177.176 180.752,176.331 180.752,176.119 180.964,174.85 
	180.964,174.638 180.752,173.582 180.964,172.313 180.752,171.891 180.542,169.778 180.33,169.566 179.907,168.931 179.485,167.241 
	180.542,165.55 180.118,164.281 179.907,162.59 179.907,161.744 179.695,161.322 179.907,160.263 179.907,159.841 181.176,157.304 
	181.598,157.304 181.598,157.094 182.233,154.979 182.655,154.557 182.655,154.344 182.655,153.71 182.445,153.5 182.021,153.076 
	180.542,151.385 180.542,150.751 180.33,150.751 179.695,150.963 179.273,150.963 178.005,150.963 175.467,148.638 175.045,147.157 
	175.257,145.466 175.257,145.044 175.679,144.198 175.679,143.353 177.582,141.66 177.792,141.45 177.792,141.238 178.217,139.97 
	178.851,138.279 179.485,136.376 180.118,135.954 180.752,135.107 182.867,133.839 183.289,133.416 183.711,133.204 
	183.923,132.994 185.404,131.513 186.461,131.513 187.729,130.035 189.208,129.611 190.054,128.978 190.477,128.554 
	188.998,107.204 189.42,106.357 190.477,106.357 191.111,106.357 191.111,106.147 192.167,104.244 192.802,104.032 192.802,103.82 
	193.648,102.976 193.86,102.341 194.917,100.65 195.551,100.226 196.608,99.382 196.82,98.96 197.454,98.536 198.721,97.479 
	199.355,97.057 201.47,95.366 202.314,95.154 202.526,94.942 202.739,94.52 204.007,93.039 205.486,92.194 205.908,91.772 
	207.177,90.292 208.445,88.813 209.08,88.601 209.502,88.389 209.714,87.966 210.77,86.91 211.829,86.063 212.039,85.851 
	212.885,84.795 213.096,84.373 213.73,83.738 215.211,82.047 215.633,81.835 216.479,79.933 217.113,79.722 217.748,78.03 
	218.382,77.607 220.073,75.917 220.073,75.705 221.129,74.436 221.976,73.591 222.82,72.957 223.455,72.535 224.723,71.054 
	225.357,70.632 229.373,67.46 230.22,66.616 230.854,66.192 232.123,65.558 233.179,65.135 234.658,64.289 236.773,63.022 
	238.042,62.598 239.732,61.754 240.155,61.754 240.579,61.542 242.058,60.695 243.748,60.061 244.595,59.851 245.863,59.639 
	246.286,59.639 246.286,59.428 248.401,58.37 249.457,57.736 251.57,56.257 252.205,56.257 252.839,56.045 253.051,55.833 
	253.685,54.988 254.319,54.354 255.588,53.72 254.954,53.508 254.742,53.298 254.319,53.508 253.685,53.932 253.051,54.776 
	251.36,55.2 250.091,54.988 249.245,54.354 248.611,54.142 247.132,53.298 246.498,52.029 246.074,51.607 245.651,51.395 
	245.441,51.183 245.017,50.972 244.595,50.972 244.172,50.972 242.27,51.607 241.423,51.395 241.213,51.607 239.732,52.029 
	239.098,52.451 236.985,52.239 235.504,52.239 235.082,52.451 232.545,52.451 231.911,52.239 230.432,52.874 229.585,53.086 
	229.373,53.086 228.951,53.298 226.414,53.298 225.57,52.029 224.723,50.548 224.511,50.338 223.455,49.07 223.244,48.857 
	223.244,48.645 222.61,49.07 221.976,49.28 221.552,49.492 220.707,50.126 220.707,50.338 219.227,50.972 218.804,51.395 
	218.592,51.607 217.748,52.451 217.536,52.874 216.689,53.086 216.479,53.298 215.845,54.354 215.633,54.354 214.576,54.988 
	214.154,55.2 212.463,55.833 211.829,55.833 210.982,56.257 210.77,56.467 209.502,56.891 209.08,56.891 207.811,56.257 
	206.332,57.102 205.698,57.102 203.795,55.623 203.583,55.623 202.526,55.2 201.892,54.988 200.201,53.298 199.567,52.239 
	198.088,51.817 197.664,51.817 197.242,51.817 195.551,50.972 194.493,50.972 193.014,50.126 191.533,48.857 191.111,47.801 
	190.689,47.379 190.266,47.589 188.786,46.955 187.517,47.589 186.673,47.589 186.673,48.013 187.517,49.492 185.614,51.607 
	185.404,51.607 185.192,52.029 184.558,52.874 183.501,52.874 181.176,50.972 180.752,50.126 180.542,49.28 180.33,49.28 
	180.118,49.07 179.061,47.801 178.217,45.686 178.217,44.842 178.005,44.629 176.736,45.264 175.045,45.264 173.989,45.052 
	172.298,43.785 171.663,41.458 170.395,40.826 170.183,40.613 168.492,39.979 167.646,39.767 166.801,39.345 165.32,38.711 
	163.63,38.711 162.995,38.923 161.727,38.923 159.19,38.711 158.979,38.499 157.923,38.711 157.076,38.923 155.808,39.979 
	154.751,40.401 153.483,42.516 152.636,42.727 152.426,42.939 150.945,43.361 149.255,43.573 147.986,43.995 147.564,43.995 
	145.027,43.995 144.604,43.995 142.067,43.151 141.645,41.248 141.645,40.826 141.645,40.401 141.433,40.401 139.742,40.191 
	139.318,40.191 137.417,39.979 136.148,39.979 134.88,40.191 134.245,40.191 133.611,40.191 132.977,39.979 130.652,39.767 
	129.383,38.076 127.692,38.076 126.001,38.923 125.367,38.923 124.311,38.499 123.042,38.288 122.618,38.076 120.717,37.442 
	120.083,36.808 119.448,36.173 118.814,35.751 117.333,34.06 116.911,32.369 117.333,31.311 117.545,30.255 117.545,30.042 
	117.545,29.41 116.699,27.507 115.43,25.816 115.642,23.913 115.43,23.489 115.008,22.223 114.586,21.164 113.74,19.051 
	113.74,18.629 113.74,17.782 112.895,16.092 111.837,15.457 110.992,14.823 109.724,15.245 109.089,15.457 108.667,15.668 
	107.821,15.88 108.455,26.449 108.455,28.352 106.552,28.352 52.646,30.467 52.858,31.735 "/>
</svg>
