<?xml version="1.0" encoding="utf-8"?>
<!-- Generator: Adobe Illustrator 23.0.1, SVG Export Plug-In . SVG Version: 6.00 Build 0)  -->
<svg version="1.1" id="Layer_1" xmlns="http://www.w3.org/2000/svg" xmlns:xlink="http://www.w3.org/1999/xlink" x="0px" y="0px"
	 viewBox="0 0 500 250" style="enable-background:new 0 0 500 250;" xml:space="preserve">
<style type="text/css">
	.st0{opacity:0.75;fill:#FF767D;enable-background:new    ;}
</style>
<polygon class="st0" points="151.826,12.551 151.03,12.288 149.97,10.696 148.378,9.104 68.528,17.327 68.528,19.449 66.406,22.103 
	66.14,22.367 65.61,23.695 62.426,25.021 60.305,25.817 60.834,29.531 60.834,29.794 60.568,32.448 60.305,32.715 57.917,35.632 
	57.917,38.816 57.387,39.61 56.855,40.142 57.121,40.938 57.121,45.448 54.733,47.04 54.203,50.221 51.019,50.754 49.163,52.346 
	47.835,52.875 47.571,53.139 47.571,53.671 49.163,56.059 47.835,59.241 47.039,59.507 47.305,59.773 46.775,61.895 46.243,63.751 
	44.121,65.343 44.121,65.609 43.325,67.465 41.733,68.261 40.937,70.385 40.408,71.178 40.144,71.444 40.408,71.444 43.857,74.628 
	41.733,77.546 41.999,80.464 38.552,83.118 38.02,84.974 36.694,86.566 36.694,86.832 38.816,88.158 39.878,88.158 40.144,88.158 
	41.733,88.954 42.265,91.871 40.674,94.789 40.408,95.055 39.878,95.851 39.348,96.115 43.325,96.911 44.121,98.769 42.529,101.953 
	42.265,101.687 40.937,107.259 40.674,107.259 41.47,109.115 41.47,109.91 42.529,111.236 43.857,112.828 43.857,113.094 
	44.653,115.216 42.529,119.196 41.203,119.992 41.203,120.256 41.203,121.584 43.591,121.848 45.713,124.236 45.447,125.562 
	48.367,127.95 47.571,131.663 47.835,131.663 49.693,135.113 51.285,137.235 50.753,139.091 54.203,140.949 53.937,143.337 
	52.877,145.193 51.815,145.723 51.285,147.051 50.489,148.906 51.019,151.028 50.223,152.62 48.631,154.478 48.101,154.742 
	48.101,155.274 47.835,155.804 46.243,159.518 44.387,160.314 44.121,160.314 44.121,163.498 41.733,164.824 41.733,165.09 
	41.733,167.478 39.348,169.333 38.816,169.333 38.02,169.333 38.286,170.129 36.96,172.251 35.898,172.783 36.428,173.313 
	36.694,174.373 36.694,174.639 36.428,177.293 36.428,178.087 34.838,181.271 34.306,181.537 32.184,183.129 32.45,184.189 
	34.838,187.902 33.51,190.29 32.98,190.556 33.246,191.882 31.388,195.066 30.328,195.596 29.796,199.31 29.532,199.842 29,200.106 
	31.918,203.556 31.918,203.82 110.442,196.392 110.708,197.984 110.708,201.168 110.708,201.432 109.912,204.616 109.912,204.882 
	109.382,207.003 109.382,207.533 108.586,209.125 108.32,209.657 108.586,210.451 107.79,212.839 107.79,213.635 109.382,216.289 
	109.382,217.349 110.176,217.881 111.238,219.207 111.768,219.471 114.156,221.063 116.277,224.513 116.544,224.777 116.81,225.572 
	117.074,226.105 117.34,226.368 117.869,227.164 118.136,227.43 119.198,230.614 119.728,231.674 120.257,232.47 121.053,233 
	121.319,233 121.583,233 122.115,233 123.707,232.47 123.971,232.206 125.829,229.286 126.359,229.286 126.625,229.022 
	127.155,228.493 126.359,227.164 127.155,224.777 128.481,223.98 130.339,223.187 132.727,224.513 133.257,225.043 133.521,225.309 
	135.379,224.777 136.441,224.513 138.033,223.717 138.562,223.187 140.95,222.125 141.48,222.125 142.542,221.859 145.46,220.799 
	147.052,220.799 148.112,220.799 148.642,221.063 150.5,220.267 151.296,220.267 153.684,221.063 155.01,221.595 155.539,222.125 
	156.336,221.859 158.723,220.799 158.99,220.799 160.581,221.063 162.437,221.329 163.499,221.329 164.029,221.329 165.885,221.595 
	167.477,220.533 155.01,152.62 "/>
</svg>
