<?xml version="1.0" encoding="utf-8"?>
<!-- Generator: Adobe Illustrator 23.0.1, SVG Export Plug-In . SVG Version: 6.00 Build 0)  -->
<svg version="1.1" id="Layer_1" xmlns="http://www.w3.org/2000/svg" xmlns:xlink="http://www.w3.org/1999/xlink" x="0px" y="0px"
	 viewBox="0 0 500 250" style="enable-background:new 0 0 500 250;" xml:space="preserve">
<style type="text/css">
	.st0{opacity:0.75;fill:#FF767D;enable-background:new    ;}
</style>
<polygon class="st0" points="263.517,180.704 263.274,180.946 261.581,180.461 261.338,180.22 260.128,180.704 259.645,180.704 
	256.256,179.494 255.53,179.251 253.835,177.315 253.352,176.106 253.109,175.62 252.625,174.894 251.173,173.201 250.93,172.958 
	249.478,170.055 248.268,169.329 247.058,166.665 248.268,164.003 249.963,162.793 249.963,162.31 249.72,161.583 249.478,161.341 
	248.994,161.1 247.542,159.162 246.816,158.436 246.332,157.71 245.606,155.29 246.089,153.112 245.363,151.419 245.363,151.176 
	243.67,150.692 242.944,149.723 240.039,148.756 239.556,147.545 239.556,147.304 239.072,146.578 238.346,146.335 237.62,146.092 
	236.893,145.852 236.651,145.852 235.198,144.883 234.472,144.399 232.536,145.609 231.084,145.609 230.357,144.883 
	229.148,144.156 228.664,143.43 227.455,141.737 226.729,141.251 226.486,141.011 225.033,140.042 223.338,139.316 223.097,139.075 
	221.645,138.106 219.466,137.137 218.983,136.896 218.014,136.17 217.047,134.96 216.804,134.718 214.868,133.749 214.142,132.782 
	213.659,132.539 212.447,130.846 212.206,130.12 211.964,129.393 211.237,126.972 211.48,125.279 211.721,124.553 211.964,123.584 
	212.206,123.343 213.173,121.405 213.659,120.922 213.899,120.679 214.142,119.712 214.142,119.229 214.385,116.807 
	215.109,115.114 215.835,114.145 216.804,113.176 217.047,112.209 216.804,111.966 216.562,111.24 215.352,108.578 216.562,105.916 
	216.562,105.673 217.773,104.221 218.257,103.98 217.047,103.011 214.868,102.285 214.385,102.285 214.142,102.285 211.237,102.044 
	210.754,101.801 210.028,101.559 208.818,100.832 207.606,103.011 206.88,104.221 203.977,105.432 200.83,104.221 200.589,103.98 
	199.377,102.768 198.894,102.528 197.684,100.349 197.441,99.139 196.474,97.93 196.474,95.266 196.958,94.299 196.715,94.299 
	195.505,91.877 195.263,89.941 195.263,89.701 195.022,89.458 193.812,88.248 192.601,87.279 191.391,86.31 189.455,85.343 
	188.003,84.134 187.034,83.648 186.55,83.407 183.162,81.472 182.193,80.019 181.469,79.293 180.983,78.807 180.742,78.567 
	179.29,77.598 177.838,76.145 177.595,75.905 176.385,74.936 174.449,73.726 173.964,73.24 172.997,72.516 172.513,72.273 
	172.028,71.79 170.335,70.338 170.092,67.916 169.849,67.19 167.673,66.223 167.673,65.98 166.461,62.835 167.187,61.382 
	165.735,60.173 165.008,58.478 164.525,56.782 164.525,56.058 163.799,54.606 163.315,52.184 163.315,51.458 163.315,48.796 
	163.315,47.103 163.558,45.891 163.558,45.65 164.042,43.472 163.558,42.746 162.106,41.777 161.863,41.293 161.62,40.81 
	159.927,39.598 159.444,39.115 157.991,37.179 157.748,37.179 155.57,35.483 154.844,35 97.483,40.324 22.453,44.439 21.243,46.617 
	21,46.617 22.453,47.827 22.453,49.279 22.453,49.522 23.179,51.458 23.179,51.701 23.421,52.427 25.841,53.88 26.084,54.606 
	27.05,54.846 28.503,55.573 29.472,57.751 29.229,58.72 29.472,58.72 30.924,60.413 31.165,60.656 32.377,63.318 32.134,63.802 
	33.344,64.528 34.313,65.254 38.427,67.916 38.911,68.642 39.637,69.126 39.88,68.642 39.88,69.126 40.12,69.369 41.573,70.578 
	44.235,68.642 44.961,68.642 45.687,68.642 47.623,69.611 48.592,71.305 49.802,72.273 50.771,74.693 51.497,75.905 51.254,78.567 
	47.866,80.019 45.447,82.196 45.204,82.196 45.204,82.438 45.447,84.617 43.751,86.07 44.235,86.07 45.447,88.005 45.447,88.248 
	48.109,89.701 48.109,89.941 48.349,89.941 49.561,90.184 51.497,91.636 51.497,93.33 51.011,94.539 51.011,95.025 51.011,95.266 
	51.254,95.266 53.676,96.718 53.916,97.93 55.369,98.654 55.611,99.139 55.611,99.38 57.305,98.654 58.757,99.38 59,99.623 
	59.967,99.38 61.662,100.349 62.145,100.832 62.145,103.011 64.324,139.316 68.438,213.136 228.664,201.034 231.084,201.519 
	232.053,202.729 233.02,204.665 233.262,204.907 234.472,205.148 235.684,206.601 236.41,208.536 235.924,209.748 236.167,210.474 
	234.472,213.863 234.231,214.346 232.053,216.767 232.053,217.008 230.843,217.734 229.148,220.639 228.664,221.123 
	227.695,221.606 227.695,222.332 227.455,222.818 247.542,220.639 247.542,220.397 247.542,219.43 248.027,217.492 249.72,216.041 
	248.754,215.315 245.849,212.41 248.268,209.989 248.754,209.748 248.268,208.296 248.994,206.601 251.656,205.634 251.173,202.003 
	248.994,199.34 249.478,196.436 252.142,195.226 255.53,195.709 256.497,193.531 259.159,192.564 261.821,193.773 262.307,194.257 
	262.307,193.773 263.274,192.078 261.581,189.175 262.548,187.238 261.821,185.544 263.517,182.882 264,182.399 263.759,181.673 
	264,180.704 "/>
</svg>
