<?xml version="1.0" encoding="utf-8"?>
<!-- Generator: Adobe Illustrator 23.0.1, SVG Export Plug-In . SVG Version: 6.00 Build 0)  -->
<svg version="1.1" id="Layer_1" xmlns="http://www.w3.org/2000/svg" xmlns:xlink="http://www.w3.org/1999/xlink" x="0px" y="0px"
	 viewBox="0 0 500 250" style="enable-background:new 0 0 500 250;" xml:space="preserve">
<style type="text/css">
	.st0{opacity:0.75;fill:#FF767D;enable-background:new    ;}
</style>
<polygon class="st0" points="21.162,79.102 22.906,81.179 26.056,86.158 27.259,89.072 26.755,93.307 27.208,94.076 27.43,97.259 
	27.672,97.842 29.333,98.725 30.68,100.83 31.107,101.202 31.944,101.741 32.555,101.899 35.679,103.681 36.827,105.8 
	37.28,106.567 38.558,107.678 39.424,108.617 39.636,108.803 41.733,113.054 43.408,114.137 44.288,115.276 44.853,117.636 
	44.725,118.644 44.739,118.844 48.528,121.577 50.972,122.207 52.574,125.095 54.194,125.381 55.374,125.098 57.747,124.733 
	59.395,125.416 59.174,130.831 57.106,135.575 56.75,136.2 56.449,137.62 55.066,140.717 53.762,147.807 55.234,151.703 
	55.443,154.687 52.541,156.09 51.946,156.132 51.006,156.998 51.247,157.581 50.998,162.597 51.026,162.995 52.289,163.906 
	54.872,166.524 58.116,164.299 58.102,164.099 60.165,162.155 61.502,161.262 65.797,159.762 67.939,161.812 69.628,163.094 
	70.009,165.666 70.657,169.221 70.954,170.599 71.149,173.384 73.191,176.841 74.208,179.969 74.635,180.34 76.722,181.593 
	76.749,181.99 77.883,183.912 78.449,186.272 76.839,188.983 76.853,189.183 77.732,190.321 79.408,191.404 79.592,191.191 
	82.605,191.379 85.827,194.553 87.47,198.038 87.253,200.652 88.115,204.392 88.568,205.159 88.582,205.359 89.434,206.098 
	91.099,204.184 93.417,203.02 93.603,202.808 98.447,203.469 100.707,204.31 100.905,204.297 102.511,204.385 103.381,202.524 
	104.348,202.057 107.503,201.435 108.953,202.134 111.581,202.55 112.164,202.309 116.329,201.819 119.424,203.202 120.393,202.734 
	123.973,202.484 125.353,202.187 129.396,197.104 132.765,196.67 134.426,197.553 135.603,200.069 136.765,202.388 137.829,203.313 
	138.521,187.468 149.561,188.096 167.17,188.263 327.138,188.273 326.332,156.734 323.63,52.345 222.34,53.631 24.099,43.902 
	20,76.783 "/>
</svg>
