<?xml version="1.0" encoding="utf-8"?>
<!-- Generator: Adobe Illustrator 23.0.1, SVG Export Plug-In . SVG Version: 6.00 Build 0)  -->
<svg version="1.1" id="Layer_1" xmlns="http://www.w3.org/2000/svg" xmlns:xlink="http://www.w3.org/1999/xlink" x="0px" y="0px"
	 viewBox="0 0 500 250" style="enable-background:new 0 0 500 250;" xml:space="preserve">
<style type="text/css">
	.st0{opacity:0.75;fill:#FF767D;enable-background:new    ;}
</style>
<polygon class="st0" points="24,143.348 92.684,145.579 94.668,145.579 93.924,188.973 176.991,189.717 206.002,189.469 
	327.503,186.245 327.751,185.006 327.751,184.758 328,184.014 327.751,183.518 326.512,182.277 326.017,181.783 325.024,179.301 
	324.775,179.301 321.799,177.072 321.057,177.072 320.56,177.072 319.321,177.072 318.577,176.079 318.577,173.598 319.321,173.104 
	319.321,172.857 318.825,172.359 318.328,170.376 317.089,169.137 316.593,167.897 315.601,167.4 313.866,164.673 314.113,162.689 
	313.617,161.945 311.139,159.714 311.139,159.466 310.89,159.219 309.153,157.482 309.402,155.993 311.139,154.01 310.89,153.266 
	310.89,153.02 310.395,152.275 310.89,150.044 310.89,149.794 310.641,147.811 310.89,147.316 309.897,146.324 309.897,145.828 
	309.897,144.836 308.907,143.596 309.402,141.365 309.402,140.868 309.153,140.62 308.907,139.133 307.17,136.654 307.419,135.165 
	307.419,133.431 307.419,133.182 306.675,132.189 305.435,130.951 306.675,128.471 306.675,128.223 306.675,127.975 306.675,127.23 
	304.691,126.487 303.947,125.495 302.211,124.503 301.964,124.503 300.723,123.015 300.476,121.281 299.237,119.297 
	300.227,117.561 299.237,115.576 299.483,114.833 299.237,114.338 299.237,113.84 299.237,113.344 300.476,111.856 299.237,109.874 
	299.237,109.379 298.739,108.881 297.749,107.642 297.995,105.41 297.749,104.665 296.507,103.18 295.268,102.436 294.277,101.938 
	294.029,101.691 293.285,101.691 293.78,101.195 293.036,99.706 293.285,98.715 293.285,98.466 292.789,98.221 291.797,96.979 
	290.558,95.245 290.558,94.749 290.558,92.269 290.806,92.02 290.062,91.275 289.814,91.03 289.318,89.54 288.077,88.053 
	287.83,86.07 288.077,85.575 286.838,83.589 284.605,82.599 284.605,82.35 282.871,82.844 279.895,80.616 279.646,79.622 
	279.4,79.374 278.16,78.135 277.912,77.639 277.663,77.144 276.919,75.902 273.945,73.92 272.704,73.424 272.208,73.175 
	272.208,73.424 268.488,72.185 267,71.688 264.522,71.688 262.538,70.2 262.29,70.2 259.811,69.209 259.314,67.969 258.074,67.721 
	256.091,67.721 255.347,67.721 253.364,68.714 251.627,68.714 251.38,67.969 251.132,68.215 248.404,68.215 247.909,67.969 
	247.66,68.215 245.677,69.209 244.436,68.96 242.701,68.714 242.452,68.714 240.964,68.714 240.22,68.215 239.974,68.714 
	239.974,69.703 238.734,71.191 235.014,72.432 232.287,72.185 231.294,71.688 230.055,70.943 228.567,69.456 228.318,69.456 
	228.318,69.209 227.823,69.209 226.83,69.209 224.847,67.721 224.352,67.721 221.625,66.728 221.376,66.481 220.136,65.984 
	219.641,65.738 219.392,65.738 218.897,65.738 216.914,64.497 215.672,63.009 215.672,62.762 151.452,63.009 119.215,62.762 
	28.215,60.283 "/>
</svg>
