<?xml version="1.0" encoding="utf-8"?>
<!-- Generator: Adobe Illustrator 23.0.1, SVG Export Plug-In . SVG Version: 6.00 Build 0)  -->
<svg version="1.1" id="Layer_1" xmlns="http://www.w3.org/2000/svg" xmlns:xlink="http://www.w3.org/1999/xlink" x="0px" y="0px"
	 viewBox="0 0 500 250" style="enable-background:new 0 0 500 250;" xml:space="preserve">
<style type="text/css">
	.st0{opacity:0.75;fill:#FF767D;enable-background:new    ;}
</style>
<polygon class="st0" points="51.1,20.099 47.872,110.893 184.982,227.909 186.705,226.683 186.743,225.963 185.843,221.327 
	185.743,220.812 185.406,219.986 184.894,219.194 184.061,214.901 184.072,213.117 183.328,211.123 182.928,209.062 
	182.739,206.248 183.159,204.741 182.549,203.433 182.039,202.641 181.606,200.409 181.439,199.55 183.31,196.336 184.135,195.997 
	184.445,195.76 186.439,195.015 189.015,194.515 190.146,194.831 190.661,194.731 194.428,195.782 196.236,197.747 197.055,198.302 
	198.053,197.929 198.401,196.971 198.96,195.259 199.342,194.473 200,193.276 194.559,16.492 122.191,19.133 "/>
</svg>
