<?xml version="1.0" encoding="utf-8"?>
<!-- Generator: Adobe Illustrator 23.0.1, SVG Export Plug-In . SVG Version: 6.00 Build 0)  -->
<svg version="1.1" id="Layer_1" xmlns="http://www.w3.org/2000/svg" xmlns:xlink="http://www.w3.org/1999/xlink" x="0px" y="0px"
	 viewBox="0 0 500 250" style="enable-background:new 0 0 500 250;" xml:space="preserve">
<style type="text/css">
	.st0{opacity:0.75;fill:#FF767D;enable-background:new    ;}
</style>
<polygon class="st0" points="84.852,31.047 83.063,33.233 83.751,34.546 83.437,35.544 85.305,38.329 84.548,42.483 83.075,43.666 
	82.107,45.009 80.005,48.188 80.191,49.348 79.719,50.847 79.249,52.341 77.15,55.526 78.517,58.154 79.205,59.467 78.891,60.465 
	80.916,62.749 81.255,63.407 81.472,66.219 81.811,66.876 82.21,70.842 80.269,73.526 79.64,75.526 79.484,76.023 79.356,78.18 
	77.254,81.36 74.629,82.732 70.56,86.944 67.775,88.811 63.648,89.706 61.737,94.047 59.265,94.916 55.638,95.973 52.484,95.527 
	51.987,95.37 50.832,95.557 49.175,95.587 48.518,95.926 48.36,96.427 46.733,98.113 46.945,100.924 47.345,104.89 47.714,107.204 
	47.556,107.705 47.743,108.86 47.955,111.671 48.168,114.482 47.067,117.98 46.256,118.822 45.126,120.664 43.682,123.504 
	43.27,128.312 42.799,129.811 40.854,132.493 39.227,134.179 38.441,136.676 38.47,138.333 37.999,139.832 38.024,141.487 
	36.241,143.67 34.801,146.511 33.514,148.85 29.887,149.907 28.788,153.401 28.001,155.902 27.845,156.399 27.215,158.399 
	25.457,162.237 24.331,164.081 23.703,166.076 23.546,166.577 23.571,168.233 23.316,172.544 23.371,175.855 22.615,180.008 
	22.797,181.163 22.699,184.977 22.41,187.63 22.252,188.131 22.126,190.284 20.341,192.471 20.524,193.625 20.736,196.436 
	20.107,198.436 19.635,199.935 19.479,200.432 20.536,204.059 20.064,205.557 19.647,210.368 19.991,211.027 18.763,216.679 
	14.847,220.389 14.691,220.885 13.906,223.382 12.466,226.224 11.994,227.722 12.834,228.537 13.518,229.849 14.859,230.822 
	16.388,232.95 17.573,234.419 18.758,235.889 97.008,240.195 98.633,238.513 99.292,238.17 102.231,235.8 102.048,234.645 
	103.989,231.962 107.93,229.907 112.898,229.823 113.395,229.979 113.709,228.981 113.866,228.48 119.119,225.742 119.777,225.403 
	120.277,225.56 122.092,225.03 126.033,222.975 130.028,224.232 130.656,222.237 130.814,221.735 132.254,218.894 133.54,216.555 
	134.827,214.216 133.298,212.088 130.772,209.646 130.433,208.988 128.246,207.204 127.036,204.079 127.636,200.423 
	128.078,197.267 126.396,195.642 125.712,194.33 123.186,191.888 121.501,190.256 118.974,187.819 117.45,185.692 115.523,179.593 
	116.309,177.097 117.281,175.755 117.439,175.254 117.355,170.286 117.511,169.789 117.669,169.288 117.825,168.791 
	117.295,166.977 116.612,165.661 116.242,163.352 104.755,13.156 104.098,13.495 98.785,12.925 97.286,12.453 93.762,9.697 
	92.608,9.88 90.823,12.067 90.038,14.564 89.435,18.215 89.277,18.716 88.492,21.212 85.578,25.237 84.61,26.58 85.107,26.736 "/>
</svg>
