<?xml version="1.0" encoding="utf-8"?>
<!-- Generator: Adobe Illustrator 23.0.1, SVG Export Plug-In . SVG Version: 6.00 Build 0)  -->
<svg version="1.1" id="Layer_1" xmlns="http://www.w3.org/2000/svg" xmlns:xlink="http://www.w3.org/1999/xlink" x="0px" y="0px"
	 viewBox="0 0 500 250" style="enable-background:new 0 0 500 250;" xml:space="preserve">
<style type="text/css">
	.st0{opacity:0.75;fill:#FF767D;enable-background:new    ;}
</style>
<path class="st0" d="M142.695,124.723c-1.15-3.456-1.15-5.757-1.15-5.757c-1.15-9.79-1.15-20.158-1.15-29.949l0.578-2.306
	c-0.578-1.15-1.15-5.184-1.728-6.334l-6.334,0.578l-1.728-1.15c-1.728,0-1.728,0-2.306,0c-2.306,1.15-4.606,1.728-6.912,1.728h-1.15
	l-5.762-1.728l-2.325,2.874l0.578-6.912c1.728-1.728,4.034-2.878,6.334-3.456l1.728-2.306c0.578-1.15,1.15-2.878,1.728-4.606
	l-1.728-2.878c0-0.578,0-5.757-0.578-6.912l1.728-1.728l0.578-8.64l1.15-4.606c0.578-2.878,1.15-6.334,1.15-9.213v-5.184
	L56.863,8.962l-2.306,1.728l-0.578,0.578l-1.728,3.456v0.578l-0.578,2.306c0.578,2.306,0,4.606-0.578,6.912v0.578v2.878
	c-2.878,4.606-2.306,2.878-5.184,6.334v0.578l-1.728,4.606c0,0.578,0,1.15,0,1.728l-0.578,1.15L39,47.555
	c0.578,0.578,5.184,5.184,5.757,5.757l0.578,0.578l2.306,4.606l-1.728,3.456c0,0,0,1.15,0,1.728v0.578l-1.728,4.606l-2.306,2.878
	l0.578,2.306v1.728l1.15,4.606v0.578l0.578,1.15l7.485,1.15l2.878,2.878l1.15,1.15c1.15,2.306,2.306,5.757,2.306,8.062
	c0.578,0.578,0,0,0.578,0.578h4.606l5.184,2.878l0.578,0.578l2.306,3.456c0,0,1.15,0,1.728,0.578l6.334,3.456l1.15,1.15l0.578,0.578
	h0.578l4.606,1.728h0.578c2.306,1.728,4.034,2.878,6.334,4.606l2.306,3.456L93.14,123l-2.306,1.728l-0.578,1.15l-4.034,1.728v0.578
	l-2.878,3.456c-1.15,1.15-2.878,2.306-5.184,3.456l-1.15,1.15l-4.606,4.606l-4.034,5.184l-1.15,1.15l1.15,2.878v2.306l-5.184,5.184
	l-1.15,1.15c-1.728,1.15-4.606,1.728-6.334,2.878l-4.606,1.728c-1.15,1.15-2.306,2.306-2.878,3.456
	c-0.578,1.15-1.15,1.728-1.728,2.878v1.728v1.15c-1.15,3.456-0.578,2.306-1.728,7.485l-0.578,0.578
	c-0.578,1.15-0.578,2.306-1.15,3.456l0.578,0.578l4.034,5.757l-0.578,1.15l0.578,1.15v2.878c0.578,0.578,2.306,1.15,4.034,1.15
	c1.728,0.578,4.034,1.728,5.762,2.878l1.15,0.578l4.606,2.306l6.34,1.729l1.15,1.15l4.606,0.578l2.878,2.306l4.034,0.578
	l2.306,1.728l0.578,0.578l1.728-0.578h1.15l2.306-1.15l6.334,0.578h1.728h6.912l5.184,3.456l1.15,2.878v4.606l-0.578,1.15
	c0,0.578,0,1.728,0,2.306c-0.578,2.306-1.15,4.606-1.728,6.912c0,1.15,0,0.578,0,1.728l1.15-1.15l2.306-2.878v-0.578v-2.878
	l1.728-5.184l0.578-1.728l0.578-1.15v-2.306l0.578-2.878l1.15-5.757l0.578-0.578v-0.578c0.578-0.578,1.728-3.456,2.306-4.606
	s1.15-2.878,2.306-4.606l0.578-0.578l1.728-5.184c2.306-1.728,5.184-3.456,6.912-6.334l0.578-0.578
	c2.306-3.456,2.306-4.606,5.184-8.64v-0.578l-0.578-4.606l2.306-3.456c0.578-1.15,1.15-2.878,1.728-4.606v-0.578l0.578-5.757
	l1.15-1.728l1.15-4.606l0.578-2.306v-1.15l0.578-1.728v-1.728v-2.306v-2.878c-0.578-1.15-1.728-5.184-1.728-5.184
	C143.272,129.33,142.695,126.451,142.695,124.723z"/>
</svg>
