<?xml version="1.0" encoding="utf-8"?>
<!-- Generator: Adobe Illustrator 23.0.1, SVG Export Plug-In . SVG Version: 6.00 Build 0)  -->
<svg version="1.1" id="Layer_1" xmlns="http://www.w3.org/2000/svg" xmlns:xlink="http://www.w3.org/1999/xlink" x="0px" y="0px"
	 viewBox="0 0 500 250" style="enable-background:new 0 0 500 250;" xml:space="preserve">
<style type="text/css">
	.st0{opacity:0.75;fill:#FF767D;enable-background:new    ;}
</style>
<polygon class="st0" points="152.07,187 173.823,187 279.214,185.189 278.957,184.671 278.697,181.823 279.474,180.269 
	278.697,178.196 278.437,177.419 278.18,175.348 278.18,175.09 278.18,174.83 277.66,172.759 277.92,171.982 277.92,170.946 
	277.92,170.688 277.92,170.428 277.66,170.169 275.849,168.615 275.072,167.32 275.072,167.063 274.555,166.286 273.258,164.472 
	272.741,163.178 272.483,161.364 272.224,160.33 272.224,158.776 271.964,158.516 270.41,155.668 270.152,153.08 270.41,152.82 
	270.929,151.266 270.929,150.749 269.633,147.901 270.41,146.347 270.929,145.57 271.187,143.756 270.929,143.239 270.929,142.979 
	270.41,142.202 270.152,141.944 269.633,141.425 269.633,141.167 268.856,139.614 268.856,137.023 268.856,135.211 269.116,134.952 
	268.856,134.175 268.598,131.586 268.339,131.586 268.081,130.809 268.081,129.255 268.081,128.738 267.822,126.924 
	268.081,125.113 268.081,124.853 268.081,124.594 267.822,123.817 267.822,122.005 267.562,121.745 266.785,120.451 
	266.785,119.414 266.785,118.64 266.785,118.38 266.785,117.343 266.785,117.086 266.527,114.755 266.527,114.235 266.785,113.461 
	266.527,112.684 266.008,110.61 265.75,110.093 265.231,109.316 265.231,108.799 264.454,106.728 264.454,106.468 264.196,105.951 
	264.196,105.431 262.383,103.36 262.125,102.066 261.606,101.029 261.089,98.7 261.089,98.441 260.829,98.181 259.535,96.369 
	259.535,95.333 259.535,94.816 259.017,93.002 258.24,91.45 257.723,90.413 256.686,89.119 256.169,86.011 256.427,84.717 
	256.686,82.903 256.686,82.386 256.946,81.349 256.686,80.315 256.427,79.796 255.65,76.69 256.169,75.913 256.169,75.136 
	256.169,74.876 256.169,74.099 256.169,73.839 255.909,72.805 255.65,72.288 255.65,71.768 255.132,69.437 255.392,68.143 
	255.909,67.366 256.427,65.812 256.427,65.295 256.686,64.261 256.946,64.001 256.686,63.741 256.169,62.964 255.392,61.153 
	255.132,60.116 255.132,59.858 254.873,59.339 254.355,57.268 254.355,57.008 254.096,56.491 253.061,54.679 252.802,54.42 
	252.544,52.866 252.284,52.606 252.284,51.571 162.688,52.866 32.696,50.535 27,184.152 "/>
</svg>
