<?xml version="1.0" encoding="utf-8"?>
<!-- Generator: Adobe Illustrator 23.0.1, SVG Export Plug-In . SVG Version: 6.00 Build 0)  -->
<svg version="1.1" id="Layer_1" xmlns="http://www.w3.org/2000/svg" xmlns:xlink="http://www.w3.org/1999/xlink" x="0px" y="0px"
	 viewBox="0 0 500 250" style="enable-background:new 0 0 500 250;" xml:space="preserve">
<style type="text/css">
	.st0{opacity:0.75;fill:#FF767D;enable-background:new    ;}
</style>
<polygon class="st0" points="352.222,79.879 351.993,79.584 351.498,77.123 351.3,76.566 350.674,75.157 350.215,74.568 
	349.557,73.42 348.9,72.271 348.209,71.389 347.454,71.028 346.93,70.963 346.208,72.473 345.522,73.72 343.227,75.036 
	342.67,75.234 340.897,74.48 339.057,72.121 338.859,71.564 336.727,71.565 335.939,71.468 333.479,71.963 332.659,72.129 
	332.365,72.36 331.807,72.556 330.332,73.708 329.154,74.627 326.955,75.154 325.216,74.139 325.017,73.583 323.641,73.945 
	323.084,74.143 322.492,74.602 321.64,75.029 319.443,75.557 317.509,76.117 315.345,76.384 312.259,75.468 311.272,72.682 
	311.304,72.419 311.728,71.139 312.153,69.86 313.66,68.447 316.71,67.492 318.712,68.537 320.026,68.7 320.943,67.748 
	321.828,67.058 322.776,65.843 324.809,64.496 326.45,64.164 327.27,64 327.531,64.033 329.236,63.177 331.107,63.143 
	332.581,61.991 333.697,61.597 334.254,61.398 335.074,61.235 335.106,60.971 335.825,59.461 338.383,58.178 340.483,58.438 
	340.713,58.734 342.058,58.633 342.582,58.698 343.665,58.567 342.581,56.566 342.646,56.042 341.923,55.42 341.233,54.535 
	341.067,53.715 340.806,53.682 339.784,51.157 339.817,50.894 338.537,50.47 337.553,49.814 335.877,48.275 334.594,45.717 
	334.627,45.456 235.531,55.851 113.239,62.041 112.552,63.291 112.783,63.584 113.012,63.88 112.918,66.799 112.557,67.554 
	112.492,68.079 112.101,69.097 112.362,69.13 112.757,70.243 113.024,72.41 112.663,73.165 112.4,73.132 109.122,73.792 
	108.071,73.662 107.316,73.303 106.791,73.238 106.169,73.961 105.611,74.157 104.956,75.143 104.302,76.127 103.974,76.621 
	103.32,77.605 103.19,78.655 102.24,79.87 102.207,80.133 101.782,81.413 101.423,82.168 99.358,83.777 98.473,84.467 
	93.715,84.146 93.223,83.817 91.647,83.623 89.975,84.215 89.385,84.677 88.5,85.367 86.599,85.664 86.041,85.86 85.714,86.355 
	84.732,87.832 84.667,88.357 83.978,89.603 82.504,90.753 81.915,91.215 80.734,92.133 78.208,93.155 77.684,93.09 76.405,92.665 
	75.158,91.978 74.006,90.501 73.579,89.649 72.17,90.274 71.252,91.228 71.187,91.752 70.468,93.262 68.107,95.102 67.582,95.037 
	67.321,95.005 66.535,97.039 65.913,97.762 64.635,99.47 63.916,100.981 61.885,102.329 61.065,102.492 60.538,102.427 
	59.226,102.265 58.439,102.168 58.176,102.135 56.473,102.991 55.946,102.926 55.913,103.189 54.407,104.602 53.03,104.964 
	52.015,106.703 50.508,108.116 48.573,108.676 48.277,108.907 47.687,109.366 45.097,110.913 44.804,111.141 43.327,112.293 
	41.592,113.41 40.278,113.248 37.097,113.119 35.751,113.22 33.882,113.256 31.978,113.553 31.454,113.488 30.569,114.178 
	30.273,114.409 29.619,115.393 27.718,115.692 27.422,115.921 27.39,116.184 26.407,117.662 24.178,118.451 23.586,118.912 
	23.26,119.404 23.424,120.224 22.64,122.259 22.871,122.555 23.233,123.931 23.135,124.719 21.007,126.855 20.089,127.806 
	19.237,128.235 18.941,128.463 16.481,128.959 16.22,128.926 13.037,128.8 12.48,128.996 12.063,136.674 58.94,134.743 
	70.646,130.596 72.549,130.299 73.663,129.902 75.204,128.229 76.548,128.128 78.156,128.059 78.482,127.567 78.778,127.337 
	81.566,126.35 81.86,126.121 82.156,125.89 84.616,125.395 85.27,124.409 89.273,124.372 90.061,124.469 91.733,123.876 
	92.257,123.941 145.074,123.545 144.88,125.12 145.57,126.005 147.405,124.101 156.505,134.555 156.703,135.112 156.312,138.262 
	200.368,135.45 200.859,135.776 251.63,175.638 251.892,175.67 253.236,175.569 254.68,174.683 256.877,174.155 258.876,173.068 
	259.435,172.872 262.713,172.211 263.207,172.539 264.027,172.373 265.928,172.076 267.305,171.714 270.194,172.072 
	271.441,172.758 272.753,172.921 273.541,173.018 273.8,170.918 274.653,170.489 274.815,169.177 275.371,166.847 275.762,165.831 
	276.252,164.025 276.581,163.533 276.645,163.009 277.199,160.678 277.527,160.186 278.279,158.413 278.311,158.15 279.03,156.639 
	280.276,155.196 281.913,152.733 282.273,151.977 284.633,150.138 284.697,149.613 285.68,148.136 286.598,147.182 288.368,145.802 
	289.809,144.915 290.399,144.454 291.579,143.535 292.168,143.076 293.086,142.122 295.676,140.576 296.233,140.38 297.742,138.967 
	298.068,138.475 298.92,138.046 300.986,136.437 301.576,135.976 302.985,135.352 304.986,134.266 306.919,133.705 307.478,133.509 
	307.772,133.278 308.855,133.145 311.641,132.158 313.053,131.533 313.61,131.337 316.594,130.906 317.151,130.708 318.53,130.346 
	320.956,130.111 321.515,129.916 323.384,129.879 324.926,130.338 325.157,130.631 325.681,130.696 326.501,130.532 328.503,131.58 
	328.734,131.873 329.125,130.857 330.075,129.64 330.108,129.379 330.436,128.887 331.451,127.146 331.747,126.916 331.024,126.294 
	331.215,122.587 332.068,122.16 332.755,120.91 333.838,120.779 334.164,120.287 334.196,120.024 331.605,119.436 330.358,118.75 
	329.603,118.389 327.93,118.982 326.29,119.313 325.994,119.542 323.601,119.513 321.271,118.958 320.318,118.04 319.691,114.499 
	321.133,113.61 322.05,112.659 322.083,112.396 323.261,111.475 323.294,111.213 323.589,110.983 323.816,109.147 324.633,106.849 
	324.962,106.355 325.387,105.075 325.419,104.814 325.221,104.255 324.99,103.961 324.203,103.864 323.383,104.028 323.122,103.995 
	319.773,103.049 319.544,102.753 318.393,101.279 318.587,99.703 319.276,98.457 321.834,97.174 322.095,97.206 322.589,97.535 
	323.146,97.336 325.31,97.072 326.885,97.266 326.853,97.527 329.74,97.884 330.2,98.476 331.02,98.31 331.546,98.375 
	331.807,98.408 333.743,97.847 334.498,98.208 335.055,98.01 336.989,97.449 338.467,98.432 338.73,98.464 339.026,98.233 
	340.204,97.315 340.5,97.084 340.763,97.116 340.662,95.772 342.758,93.9 342.888,92.849 344.166,91.142 344.657,89.337 
	345.868,88.154 346.785,87.201 347.999,86.019 350.228,85.23 351.279,85.36 352.227,84.143 351.865,82.766 352.584,81.256 "/>
</svg>
