<?xml version="1.0" encoding="utf-8"?>
<!-- Generator: Adobe Illustrator 23.0.1, SVG Export Plug-In . SVG Version: 6.00 Build 0)  -->
<svg version="1.1" id="Layer_1" xmlns="http://www.w3.org/2000/svg" xmlns:xlink="http://www.w3.org/1999/xlink" x="0px" y="0px"
	 viewBox="0 0 500 250" style="enable-background:new 0 0 500 250;" xml:space="preserve">
<style type="text/css">
	.st0{opacity:0.75;fill:#FF767D;enable-background:new    ;}
</style>
<polygon class="st0" points="92.822,61.195 92.524,61.162 91.667,60.768 91.337,61.033 89.852,60.872 87.868,59.754 86.481,58.701 
	84.529,57.285 84.266,56.958 84.001,56.626 81.92,56.4 80.765,55.972 80.467,55.94 80.172,55.908 78.188,54.79 77.922,54.462 
	75.049,53.247 74.521,52.59 73.925,52.524 72.408,52.658 68.842,52.271 67.156,51.184 14.126,52.323 22.566,184.613 23.753,184.742 
	26.032,185.893 26.298,186.223 27.423,186.946 29.436,187.766 32.506,187.198 34.152,185.875 36.295,185.508 37.981,186.592 
	39.602,188.271 40.101,189.229 42.74,189.818 44.329,191.792 44.595,192.123 45.95,193.474 46.382,195.023 46.349,195.321 
	47.409,196.638 47.643,197.263 48.998,198.615 49.268,201.651 49.534,201.979 49.832,202.012 50.127,202.044 51.317,202.173 
	53.628,203.028 53.894,203.355 54.189,203.388 55.443,202.924 56.993,202.493 59.466,201.86 61.745,203.01 62.011,203.338 
	62.309,203.371 64.653,203.927 66.537,205.937 66.803,206.264 67.662,206.66 68.223,207.021 69.812,208.999 70.11,209.032 
	70.077,209.327 71.297,209.161 73.934,207.041 75.516,206.311 77.033,206.178 79.474,205.842 81.49,206.663 80.703,208.381 
	81.786,206.695 82.35,207.055 83.241,207.153 83.867,206.922 84.46,206.986 87.864,208.86 89.252,209.913 89.582,209.646 
	92.882,209.708 93.213,209.442 93.508,209.474 93.277,208.849 96.308,205.872 97.229,205.671 97.326,204.779 100.525,203.021 
	100.823,203.055 101.779,202.558 103.328,202.127 103.689,201.564 108.178,201.753 109.141,203.961 109.339,204.883 
	109.411,206.997 110.238,207.688 110.805,210.757 110.773,211.053 111.6,211.746 111.895,211.778 112.226,211.512 114.602,211.771 
	117.477,212.986 118.567,214.007 118.832,214.337 119.329,215.294 121.345,216.114 122.604,218.354 122.837,218.982 
	123.463,218.749 125.342,218.051 125.641,218.084 126.892,217.62 129.696,216.721 129.994,216.754 130.587,216.819 130.71,212.924 
	130.775,212.329 131.694,209.424 132.022,209.158 132.682,208.63 135.451,208.029 134.987,206.775 134.653,204.334 134.685,204.039 
	134.419,203.708 134.452,203.41 132.27,201.368 132.496,199.291 134.473,197.702 134.769,197.734 135.462,196.907 135.854,196.048 
	135.688,194.829 136.572,192.22 137.393,190.202 138.51,188.222 139.765,187.756 139.797,187.46 141.275,184.915 143.09,184.811 
	143.686,184.876 145.404,185.666 145.965,186.026 146.559,186.09 147.152,186.156 148.309,186.583 148.806,187.539 149.866,188.855 
	150.131,189.186 151.415,188.424 151.48,187.83 150.358,187.108 150.092,186.777 149.097,184.865 150.312,181.992 151.896,181.263 
	151.663,180.633 151.134,179.976 152.116,176.475 152.871,175.055 153.529,174.526 153.626,173.635 155.405,171.123 
	156.954,170.691 158.77,170.587 159.719,167.383 160.049,167.118 161.366,166.061 162.717,164.702 164.068,163.347 167.664,163.438 
	169.615,164.854 169.878,165.184 170.506,164.951 173.638,163.789 173.936,163.822 174.331,162.963 175.744,161.011 
	177.294,160.579 177.987,159.753 178.347,159.192 178.412,158.598 180.454,156.413 181.837,154.76 182.527,153.936 183.218,153.109 
	184.932,151.189 185.227,151.222 187.107,150.525 187.14,150.227 187.038,148.415 187.463,147.257 186.701,145.971 187.355,142.736 
	187.718,142.174 188.045,141.909 188.041,139.202 188.401,138.641 188.002,136.794 188.79,135.075 189.448,134.547 189.512,133.952 
	190.238,132.829 190.4,131.344 190.432,131.046 190.529,130.154 189.929,127.385 190.652,126.26 190.684,125.963 190.58,124.146 
	191.007,122.993 191.37,122.431 191.892,120.382 193.139,117.213 193.172,116.914 193.8,116.684 194.257,115.229 194.62,114.667 
	194.452,113.445 194.188,113.118 192.895,111.174 192.992,110.282 193.089,109.39 193.251,107.906 193.581,107.639 193.613,107.344 
	193.117,106.388 192.651,105.134 192.42,104.508 191.593,103.815 189.804,100.917 190.561,99.494 191.284,98.372 192.273,97.577 
	195.076,96.679 195.372,96.712 196,96.481 188.398,31.019 186.816,31.749 184.936,32.445 183.354,33.175 180.22,34.336 
	179.264,34.835 178.606,35.364 177.024,36.095 173.922,36.959 172.107,37.062 170.227,37.758 169.504,38.883 165.352,41.138 
	164.331,42.227 163.045,42.988 162.747,42.957 160.869,43.653 160.209,44.182 157.606,46.004 156.319,46.766 155.597,47.889 
	154.576,48.981 153.587,49.775 152.599,50.569 151.25,51.925 151.153,52.816 148.878,54.373 146.541,56.523 145.88,57.051 
	144.924,57.55 144.596,57.813 142.651,59.106 139.65,59.078 139.352,59.046 136.548,59.944 135.095,59.486 132.421,59.194 
	130.968,58.736 130.638,59 129.089,59.431 126.911,60.097 126.253,60.627 124.998,61.091 124.373,61.324 123.384,62.119 
	123.352,62.414 120.846,63.345 120.253,63.28 118.373,63.977 116.823,64.41 116.493,64.675 114.879,65.701 114.581,65.668 
	112.306,67.225 108.445,66.803 107.089,65.455 106.791,65.423 104.778,64.601 104.479,64.567 102.826,63.187 101.173,61.803 
	100.942,61.177 100.676,60.847 100.083,60.782 98.429,59.401 98.099,59.664 97.801,59.632 96.646,59.208 95.032,60.232 "/>
</svg>
