<?xml version="1.0" encoding="utf-8"?>
<!-- Generator: Adobe Illustrator 23.0.1, SVG Export Plug-In . SVG Version: 6.00 Build 0)  -->
<svg version="1.1" id="Layer_1" xmlns="http://www.w3.org/2000/svg" xmlns:xlink="http://www.w3.org/1999/xlink" x="0px" y="0px"
	 viewBox="0 0 500 250" style="enable-background:new 0 0 500 250;" xml:space="preserve">
<style type="text/css">
	.st0{opacity:0.75;fill:#FF767D;enable-background:new    ;}
</style>
<polygon class="st0" points="130.609,164.404 133.631,167.194 134.561,167.194 138.744,165.799 141.07,166.263 141.303,166.496 
	146.417,164.868 149.905,167.658 152.462,173.47 156.414,173.934 156.645,173.934 156.878,173.703 158.04,173.47 159.202,173.703 
	163.154,175.793 166.177,176.491 167.106,176.957 168.036,176.724 171.755,175.793 176.871,179.281 177.568,178.817 
	184.077,176.491 186.865,176.957 192.212,180.676 192.679,182.071 192.91,182.304 193.607,182.304 198.026,185.79 198.257,187.418 
	199.187,187.882 199.652,187.651 203.371,184.164 211.043,185.092 216.621,187.882 218.483,186.954 220.109,186.256 
	226.851,189.511 227.084,189.277 228.944,187.185 231.732,183.002 233.593,182.304 235.219,183.466 236.614,185.326 
	236.847,186.256 240.566,187.418 240.799,185.559 245.449,184.861 247.773,187.651 250.796,189.511 254.281,190.906 254.748,191.37 
	259.164,189.742 262.883,186.487 266.604,185.79 267.997,185.326 273.112,185.559 277.993,183.697 280.319,182.769 290.315,184.164 
	292.175,183.466 292.872,183.002 294.498,180.676 297.288,180.443 298.45,180.909 303.797,183.931 304.262,183.931 307.285,185.559 
	307.749,185.79 309.144,187.651 309.842,188.116 311.004,187.882 314.955,189.511 315.189,189.742 316.119,190.208 321,190.672 
	318.907,125.813 318.443,120.466 309.377,78.159 308.447,58.63 18.327,62.351 17.396,78.623 123.17,80.018 123.17,158.593 "/>
</svg>
