<?xml version="1.0" encoding="utf-8"?>
<!-- Generator: Adobe Illustrator 23.0.1, SVG Export Plug-In . SVG Version: 6.00 Build 0)  -->
<svg version="1.1" id="Layer_1" xmlns="http://www.w3.org/2000/svg" xmlns:xlink="http://www.w3.org/1999/xlink" x="0px" y="0px"
	 viewBox="0 0 500 250" style="enable-background:new 0 0 500 250;" xml:space="preserve">
<style type="text/css">
	.st0{opacity:0.75;fill:#FF767D;enable-background:new    ;}
</style>
<polygon class="st0" points="29.914,227.263 181.424,214.384 287.005,201 277.832,119.156 280.104,110.812 278.333,108.646 
	280.539,104.408 278.102,102.724 271.542,101.794 269.014,100.685 269.315,97.32 268.001,92.285 269.058,87.865 269.816,86.808 
	272.155,79.533 274.438,75.544 276.018,74.502 278.811,69.534 278.825,68.712 278.163,64.018 279.847,61.579 280.029,60.431 
	281.219,58.15 281.726,57.173 281.688,54.459 282.643,51.434 282.684,48.969 284.38,45.711 284.565,44.562 288,35.578 
	285.029,31.338 284.219,30.503 280.125,29.614 275.654,26.664 271.691,22.737 203.504,31.148 201.418,33.169 197.517,35.487 
	195.454,35.866 191.921,35.889 182.855,37.384 181.837,39.34 178.355,41.255 175.302,41.944 175.224,41.696 169.85,43.662 
	169.107,43.897 159.569,49.082 148.628,49.807 147.65,49.297 147.309,49.949 140.683,53.128 138.101,55.304 133.665,55.067 
	132.922,55.301 125.618,54.606 123.65,54.409 123.246,53.992 118.968,54.249 115.852,53.87 106.46,55.195 105.965,55.351 
	104.7,57.385 101.711,59.144 95.998,61.762 87.259,63.426 82.902,63.437 78.9,61.973 75.379,61.176 73.75,60.328 71.43,56.428 
	71.796,54.131 69.48,45.053 68.919,44.141 66.586,41.06 60.565,37.511 59.665,37.248 58.424,37.639 55.764,39.568 52.307,39.84 
	49.451,38.561 47.536,35.077 47.457,34.829 44.3,36.914 41.901,37.944 40.648,39.156 39.097,38.554 37.858,38.945 37.1,40.001 
	34.87,40.704 35.468,44.33 35.349,46.546 35.818,48.034 33.914,48.907 34.038,56.223 35.459,59.863 35.235,63.474 34.984,68.732 
	34.801,69.878 34.916,72.838 33.824,89.257 33.928,93.04 33.193,97.63 31.902,101.307 32.709,102.141 32.371,102.795 32.758,109.21 
	32.456,112.575 32.442,113.397 32.259,114.543 32.465,116.931 32.425,119.396 31.576,121.025 31.536,123.491 31.197,124.142 
	31.469,127.599 30.377,144.018 30.128,144.096 30.363,144.84 28.492,153.602 27.381,161.309 26.087,164.987 26.556,166.474 
	24.9,167.267 22.797,170.109 22.38,170.514 22.533,176.188 21.566,180.034 21.343,183.645 18,192.056 19.184,194.953 
	23.523,200.941 23.822,202.755 23.352,206.444 22.724,209.638 22.811,214.243 25.142,222.5 25.596,224.807 26.079,225.473 "/>
</svg>
