<?xml version="1.0" encoding="utf-8"?>
<!-- Generator: Adobe Illustrator 23.0.1, SVG Export Plug-In . SVG Version: 6.00 Build 0)  -->
<svg version="1.1" id="Layer_1" xmlns="http://www.w3.org/2000/svg" xmlns:xlink="http://www.w3.org/1999/xlink" x="0px" y="0px"
	 viewBox="0 0 500 250" style="enable-background:new 0 0 500 250;" xml:space="preserve">
<style type="text/css">
	.st0{opacity:0.75;fill:#FF767D;enable-background:new    ;}
</style>
<path class="st0" d="M75.298,185.81l81.791,2.342l94.206,0.505l9.85-6.668l7.977,0.918l0.885,0.57l0.806-0.501l3.71-1.183
	l0.323,0.08l2.5-0.434c0.725-0.172,1.534-0.672,2.663-1.094l-0.241-0.411l0.328-2.718l2.098-1.581l0.806-0.501l1.778-1.66
	c0.405-0.251,0.323,0.08,0.725-0.172c0.806-0.501,1.615-1.001,2.098-1.581l2.744-1.422l1.048-0.093l0.405-0.251l0.806-0.501
	l0.486-0.58l3.955-2.174c-0.804-0.898-2.093-1.216-2.977-1.786c-0.803-0.898-1.93-1.876-2.571-3.434l-0.241-0.411
	c-0.562-0.49-0.643-0.159-1.528-0.728l-2.253-1.956c-0.16-0.739-0.318-1.478-0.478-2.217l-3.783-1.285l-2.168-2.286
	c-0.16-0.739-0.478-2.217-0.556-3.288c0.163-0.66,0.163-0.66,0.245-0.991l0.003-1.399l-0.241-0.411l-0.405,0.251l-2.5,0.434
	l-2.174-0.888l-1.523-3.526l-0.16-0.739l-0.241-0.411c0.084-1.73-0.078-1.07-0.071-3.867l0.082-0.331
	c-0.079-1.07-0.236-1.809,0.09-3.128l-0.478-2.217l1.455-1.74l0.405-0.251l2.017-1.253l0.405-0.251l0.082-0.331l1.056-2.89
	c-3.692-5.81-2.649-4.504-4.093-6.96l6.457-4.007c0.969-1.16,1.699-2.731,2.348-3.97c3.312-2.333,0.405-0.251,3.474-2.992
	l0.163-0.66l0.649-1.239l0.082-0.331l0.003-1.399c0.649-1.239,1.376-2.811,2.025-4.05l0.806-0.501
	c0.888-0.832,1.618-2.4,3.151-3.072c-0.643-0.159-1.289-0.318-2.256-0.557c-0.323-0.08-0.323-0.08-0.643-0.159
	c-2.093-1.216-1.207-0.649-4.185-2.433l-0.241-0.411l-1.371,0.013l-2.814-2.446c-0.722-1.229-1.284-1.716-2.248-3.354
	c-0.241-0.411-0.562-0.49-0.803-0.898c-0.48-0.818-0.48-0.818-1.843-3.605l0.974-2.558c-0.241-0.411-0.078-1.07-0.318-1.478
	l-0.803-0.898l0.328-2.718l0.081-0.328l-1.365-1.388l-0.155-2.137l-0.323-0.08l-0.241-0.411c0,0-0.966-0.239-1.289-0.318
	c-0.323-0.08-2.418,0.103-2.739,0.024l-2.093-1.216c-1.202-2.048-1.927-3.275-2.568-4.832l-1.447-1.057
	c-0.722-1.229-0.722-1.229-0.641-1.558l-89.532-0.051L61.126,57.706l-3.062-0.056L58.259,43l-0.405,0.251L56,43.845l-3.387,1.263
	l-0.806,0.501l-2.017,1.253l-0.405,0.251l-2.581,0.762l-0.323-0.08l-0.643-0.159l-2.022,2.651l-1.534,0.672l-1.534,0.672
	l-0.806,0.501l-3.387,1.263l-0.405,0.251l-1.048,0.093l-0.725,0.172l-3.55,1.923l-0.806,0.501l-0.725,0.172L28,183.583
	L75.298,185.81z"/>
</svg>
