<?xml version="1.0" encoding="utf-8"?>
<!-- Generator: Adobe Illustrator 23.0.1, SVG Export Plug-In . SVG Version: 6.00 Build 0)  -->
<svg version="1.1" id="Layer_1" xmlns="http://www.w3.org/2000/svg" xmlns:xlink="http://www.w3.org/1999/xlink" x="0px" y="0px"
	 viewBox="0 0 500 250" style="enable-background:new 0 0 500 250;" xml:space="preserve">
<style type="text/css">
	.st0{opacity:0.75;fill:#FF767D;enable-background:new    ;}
</style>
<path class="st0" d="M329.762,118.796c-2.812-1.627-4.265-4.652-3.013-7.242c1.031-2.136,0.577-3.811-0.853-5.394
	c-0.829-0.92-0.896-1.761-0.32-2.835c0.865-1.607,1.615-3.278,2.413-4.916c-0.087-0.067-0.189-0.142-0.276-0.209
	c-1.264,0.664-2.48,1.805-3.787,1.903c-4.229,0.343-8.518,0.486-12.147-2.437c-0.32-0.265-0.841-0.423-1.264-0.411
	c-3.677,0.166-5.769-2.713-8.317-4.529c-0.885-0.632-1.497-1.196-2.571-1.086c-2.326,0.233-4.672,0.024-6.37-1.663
	c-1.817-1.805-3.933-2.535-6.334-2.835c-0.565-0.067-1.196-0.178-1.651-0.486c-1.971-1.362-4.099-1.35-6.334-1.007
	c-2.756,0.423-5.592,0.233-7.973-1.129c-2.535-1.461-4.64-1.173-6.966,0.197c-2.97,1.749-8.439,0.964-10.931-1.394
	c-0.375-0.356-0.964-0.608-1.485-0.687c-2.579-0.375-5.173-0.651-7.752-1.031c-1.062-0.154-2.049-0.454-2.523,0.987
	c-0.134,0.387-0.731,0.81-1.173,0.877c-1.951,0.288-3.933,0.596-5.627-0.94c-0.32-0.288-1.019-0.367-1.485-0.276
	c-3.933,0.766-7.72,0.644-11.318-1.394c-0.541-0.312-1.339-0.356-1.994-0.265c-3.357,0.466-6.666,0.841-9.876-0.798
	c-0.664-0.343-1.572-0.265-2.369-0.276c-3.542-0.043-7.033-0.079-10.556-0.94c-1.895-0.466-4.529-0.209-6.101,0.821
	c-3.4,2.235-6.702,2.302-10.465,1.584c-5.094-0.975-9.924-3.72-15.373-2.535c-0.32,0.067-0.699-0.032-1.031-0.122
	c-4.719-1.173-9.371-0.375-13.987,0.577c-1.196,0.245-2.413,0.885-3.388,1.651c-1.828,1.418-3.799,1.706-5.912,1.141
	c-3.191-0.841-6.303-2.093-9.525-2.67c-3.056-0.541-6.224-0.466-9.347-0.608c-1.441-0.067-2.879-0.099-4.32-0.012
	c-1.848,0.111-3.72,0.651-5.548,0.497c-6.235-0.541-12.471-1.118-18.493-3.136c-6.99-2.338-14.141-3.033-21.04,0.233
	c-1.595,0.754-2.978,2.504-3.775,4.131c-0.454,0.908,0.3,2.591,0.821,3.787c1.73,3.965,0.975,6.832-2.591,9.114
	c-0.442,0.288-0.877,0.588-1.339,0.829c-3.578,1.817-6.689,4.683-11.03,4.849c-0.853,0.032-1.682,0.675-2.591,1.062
	c1.185,2.614,2.294,5.094,3.455,7.542c0.343,0.719,0.841,1.362,1.307,2.014c1.461,2.026,3.83,2.516,5.904,3.511
	c0.588,0.288,1.35,0.675,1.572,1.209c1.031,2.516,1.836,5.106,2.835,7.629c0.411,1.031,0.841,2.283,1.67,2.867
	c3.653,2.614,3.08,7.088-0.596,9.016c-1.386,0.731-1.959,1.67-1.805,3.301c0.43,4.861,0.099,9.636-2.093,14.122
	c-0.664,1.35-1.173,2.792-1.872,4.119c-0.588,1.129-0.43,1.817,0.766,2.338c1.327,0.588,2.634,1.216,3.886,1.951
	c1.209,0.707,1.406,1.848,0.363,2.737c-1.706,1.449-3.479,2.946-5.461,3.933c-1.584,0.786-2.227,1.663-1.872,3.278
	c0.099,0.466,0.51,1.074,0.896,1.196c0.565,0.166,1.627,0.154,1.817-0.166c0.987-1.749,2.283-1.374,3.72-0.829
	c1.196,0.454,2.425,0.786,3.645,1.185c3.909,1.295,7.851,1.449,11.519-0.51c3.866-2.069,7.949-2.626,12.139-2.247
	c1.982,0.178,4.541,0.711,5.69,2.061c2.357,2.756,5.781,3.554,8.715,6.192c0.675-1.615,1.319-2.867,1.73-4.186
	c0.375-1.252,0.975-1.54,2.18-1.118c1.141,0.399,2.338,0.652,3.523,0.885c5.548,1.106,10.101-1.252,14.441-4.253
	c0.276-0.189,0.43-0.632,0.51-0.995c0.798-3.653,2.914-4.64,6.014-2.579c1.35,0.896,2.67,1.031,4.217,1.086
	c1.971,0.067,4.364,0.067,5.793,1.141c2.835,2.136,5.382,2.646,8.36,0.731c0.099-0.067,0.221-0.087,0.312-0.154
	c1.449-0.92,2.824-0.774,4.198,0.209c2.405,1.718,5.118,2.16,7.941,1.505c3.432-0.798,6.812-1.915,10.267-2.591
	c2.46-0.478,5.094-0.932,7.487-0.497c1.982,0.356,3.708,2.081,5.604,3.088c2.745,1.473,5.525,2.891,8.34,4.241
	c0.399,0.201,1.141,0.122,1.505-0.134c1.473-1.031,2.812-2.227,4.273-3.254c2.413-1.694,7.211-1.252,9.004,0.896
	c2.413,2.891,5.382,4.143,9.146,4.008c2.602-0.087,5.228,0.245,7.819,0.541c1.24,0.142,2.413,0.841,3.653,0.964
	c3.045,0.3,5.86-0.754,8.518-2.081c3.799-1.895,7.562-3.534,11.961-2.148c0.533,0.166,1.331-0.356,1.959-0.644
	c1.185-0.533,2.294-1.374,3.523-1.639c1.264-0.276,2.67,0.142,3.977-0.012c2.867-0.332,5.738-0.742,8.562-1.295
	c3.455-0.687,6.879-1.54,10.323-2.35c0.265-0.067,0.521-0.257,0.762-0.411c2.192-1.362,4.308-2.859,6.591-4.044
	c0.995-0.521,1.362-0.92,1.216-2.038c-0.32-2.67,0.221-5.063,3.033-6.125c2.203-0.829,3.542-2.117,3.763-4.561
	c0.079-0.81,0.707-1.572,1.153-2.326c2.646-4.419,5.315-8.826,7.997-13.221c0.3-0.486,0.632-1.129,1.098-1.307
	c3.621-1.374,7.187-3.258,10.943-3.755c3.025-0.399,5.015-0.699,5.58-4.063c0.257-1.516,1.098-1.615,2.437-0.644
	c0.964,0.707,1.939,1.406,2.859,2.061c2.271-1.793,2.448-2.215,1.228-4.498C331.481,119.858,330.572,119.262,329.762,118.796z"/>
</svg>
