<?xml version="1.0" encoding="utf-8"?>
<!-- Generator: Adobe Illustrator 23.0.1, SVG Export Plug-In . SVG Version: 6.00 Build 0)  -->
<svg version="1.1" id="Layer_1" xmlns="http://www.w3.org/2000/svg" xmlns:xlink="http://www.w3.org/1999/xlink" x="0px" y="0px"
	 viewBox="0 0 500 250" style="enable-background:new 0 0 500 250;" xml:space="preserve">
<style type="text/css">
	.st0{opacity:0.75;fill:#FF767D;enable-background:new    ;}
</style>
<polygon class="st0" points="269.405,102.625 269.77,101.524 269.77,101.157 271.605,98.222 272.707,96.754 273.07,96.389 
	273.806,94.921 274.172,94.553 276.005,91.618 277.105,90.886 277.474,90.518 278.574,89.052 279.306,88.317 281.876,85.75 
	282.241,85.382 282.977,85.015 287.379,82.081 214.013,38.064 149.083,50.168 148.719,40.63 140.65,33.661 136.612,37.696 
	135.146,37.696 131.845,35.494 131.112,31.092 65.45,39.897 62.148,41.363 59.579,41.73 58.846,42.831 55.912,43.932 55.179,43.932 
	54.443,43.932 51.509,45.032 51.144,45.032 49.676,46.501 48.575,47.599 46.006,47.966 45.641,48.334 45.273,49.067 43.808,50.536 
	41.971,51.268 39.405,53.102 37.204,52.737 23.631,59.706 23.631,60.071 23.631,60.806 21.798,65.209 21.062,65.574 19.961,67.042 
	18.863,67.775 18.128,68.508 17.763,68.876 15.562,72.543 15.194,74.011 15.194,74.379 14.093,77.313 15.926,78.414 16.294,78.779 
	17.395,79.514 19.961,80.615 21.43,80.615 25.099,82.081 29.499,85.382 29.867,85.75 30.235,86.115 30.6,86.115 32.068,86.851 
	32.801,87.216 35.735,86.483 37.571,85.75 39.037,85.75 41.606,86.483 43.44,87.952 44.54,89.785 45.273,90.518 46.374,92.719 
	46.742,93.087 48.207,93.82 50.408,97.122 51.877,97.854 53.71,101.157 54.078,102.625 54.443,103.358 55.179,105.191 
	55.912,105.924 58.846,107.025 60.314,109.226 61.047,109.959 61.415,110.694 62.88,111.427 64.349,112.896 64.714,113.996 
	65.45,115.097 66.915,116.563 69.116,116.93 71.686,119.132 73.151,119.865 73.519,120.232 74.988,120.232 75.352,120.232 
	77.188,120.597 77.922,120.965 80.123,122.066 82.324,123.531 82.688,124.267 84.158,125 84.522,125 86.724,125.733 88.56,126.468 
	88.56,128.67 88.925,129.403 89.293,129.767 89.658,130.135 89.658,130.503 90.759,131.236 92.595,134.17 93.696,134.538 
	96.63,134.906 100.665,136.003 102.866,138.205 105.067,139.673 106.168,140.774 108.001,141.142 110.567,142.975 111.668,145.541 
	110.935,147.743 110.935,148.111 111.303,148.475 111.303,149.211 113.137,149.944 114.237,150.312 116.803,152.878 
	117.904,154.347 119.373,154.347 119.74,154.347 121.206,154.715 121.938,156.548 123.039,159.482 124.507,159.85 124.876,160.215 
	127.076,160.951 129.275,161.315 132.577,162.048 134.046,162.784 134.779,163.517 137.348,164.249 138.081,164.617 
	139.548,166.086 141.014,168.284 141.014,169.385 141.382,171.586 142.848,172.687 143.949,174.52 144.316,175.256 146.15,175.989 
	147.983,178.923 147.983,180.023 148.719,180.756 148.719,181.857 148.719,182.593 149.083,184.794 149.083,185.527 
	150.919,188.093 150.919,188.461 150.919,189.561 151.285,190.662 153.122,191.395 153.487,191.763 154.587,191.763 
	155.688,191.395 158.99,193.231 159.723,193.596 162.656,195.429 163.392,196.165 164.125,196.898 165.594,199.832 165.594,200.933 
	167.427,202.033 168.16,203.502 168.16,203.867 169.992,204.603 171.829,207.169 172.561,208.637 172.195,212.304 174.396,215.606 
	174.027,217.075 174.027,217.807 174.396,218.175 176.596,218.54 179.167,217.075 182.1,218.175 183.201,218.908 185.402,217.075 
	188.701,214.505 189.069,214.505 190.169,214.137 191.634,211.571 191.634,211.203 193.103,207.537 194.204,205.335 
	194.936,204.967 196.773,203.867 197.875,203.502 200.44,201.665 200.809,201.301 203.742,199.099 204.474,198.367 204.842,198.367 
	204.842,197.631 204.842,196.53 202.273,195.429 201.54,194.697 200.809,192.131 200.809,188.829 203.742,186.259 205.207,185.895 
	205.944,185.895 208.145,186.627 211.447,185.527 211.811,185.159 214.013,183.325 216.215,181.124 218.047,180.391 218.78,180.023 
	220.616,180.756 218.78,179.291 221.349,177.089 223.182,176.721 223.918,176.357 225.753,175.621 226.484,175.256 228.686,172.687 
	229.418,172.322 230.155,171.586 231.253,169.753 231.253,168.284 230.888,167.919 230.888,166.451 234.922,163.149 235.29,163.149 
	236.755,161.315 238.957,159.85 239.689,158.749 241.526,156.18 244.092,153.614 242.991,151.777 244.092,148.111 244.461,147.743 
	244.824,147.01 244.824,145.909 247.763,142.975 248.495,142.607 251.061,141.875 254.362,142.607 256.932,142.243 257.297,142.243 
	257.297,141.142 258.397,137.472 258.766,137.104 261.335,135.271 261.699,134.906 262.435,133.437 264.268,130.868 
	263.901,129.403 263.534,126.833 263.534,125.368 263.168,125 263.168,122.066 263.168,121.333 263.168,120.232 263.534,116.93 
	263.534,116.198 263.901,114.729 264.268,114.361 264.268,112.896 265.001,110.327 266.835,108.125 267.202,107.393 267.57,106.66 
	269.77,107.025 267.935,106.292 269.036,104.091 "/>
</svg>
