<?xml version="1.0" encoding="utf-8"?>
<!-- Generator: Adobe Illustrator 23.0.1, SVG Export Plug-In . SVG Version: 6.00 Build 0)  -->
<svg version="1.1" id="Layer_1" xmlns="http://www.w3.org/2000/svg" xmlns:xlink="http://www.w3.org/1999/xlink" x="0px" y="0px"
	 viewBox="0 0 500 250" style="enable-background:new 0 0 500 250;" xml:space="preserve">
<style type="text/css">
	.st0{opacity:0.75;fill:#FF767D;enable-background:new    ;}
</style>
<polygon class="st0" points="388.716,104.049 389.403,103.865 390.33,101.798 390.692,101.573 392.961,99.406 393.32,99.178 
	395.453,98.085 396.796,97.983 397.844,97.571 399.909,97.015 400.562,97.099 400.958,96.604 403.675,96.131 404.984,96.298 
	405.672,96.112 406.977,96.278 409.492,97.417 410.179,97.233 410.865,97.047 411.297,96.283 412.188,94.488 412.222,94.219 
	413.511,91.926 414.336,90.667 415.849,89.223 416.604,88.5 418.084,87.325 418.443,87.097 421.266,85.819 422.641,85.449 
	422.674,85.179 423.792,84.232 423.93,83.156 424.393,82.123 424.721,82.165 423.619,80.389 424.578,78.055 416.958,77.903 
	413.451,79.366 329.055,79.532 325.977,80.232 273.286,79.25 270.31,79.145 250.524,77.989 238.843,78.412 238.191,78.329 
	226.218,78.442 225.238,78.317 187.665,75.986 186.255,76.625 184.587,76.686 182.333,76.125 182.04,75.816 174.419,75.665 
	153.484,75.726 134.253,75.459 132.91,75.562 121.659,75.221 118.165,73.957 117.581,73.336 113.331,72.794 113.297,73.064 
	114.072,74.8 114.038,75.069 113.969,75.606 114.144,79.448 111.221,81.532 44.8,78.802 41.585,80.577 39.917,80.636 40.419,84.52 
	38.905,85.965 39.939,88.279 36.984,90.633 35.572,91.272 37.158,94.475 32.79,97.465 32.687,98.271 31.364,100.832 31.329,101.099 
	33.449,102.735 33.229,107.073 31.784,107.981 32.112,108.023 30.426,110.81 27.057,111.199 23.445,113.467 22.688,114.189 
	23.857,115.431 23.088,118.879 20.99,119.704 21.662,122.244 17.33,124.967 16.055,124.534 15.781,126.681 13.153,129.074 
	12.26,130.872 11.83,131.636 11.263,133.473 11.85,134.093 12.643,138.287 13.815,139.529 13.473,142.213 8.982,143.553 
	8.329,143.469 7.177,144.688 7.143,144.956 102.965,148.973 102.738,148.125 105.749,147.964 238.041,152.535 300.487,152.573 
	301.39,142.865 301.458,142.329 303.331,140.656 306.841,139.192 309.386,140.064 310.005,140.414 310.987,140.539 311.349,140.313 
	312.036,140.127 313.841,138.993 313.188,138.91 313.135,136.721 313.633,135.418 313.768,134.345 314.627,132.817 315.057,132.053 
	316.175,131.104 316.862,130.919 319.719,129.372 320.867,128.154 323,127.062 324.672,127.001 325.065,126.506 325.461,126.011 
	327.56,125.186 329.914,124.941 330.242,124.983 333.906,124.902 336.367,123.851 337.02,123.935 338.912,124.721 341.234,124.745 
	343.076,123.342 344.812,122.744 346.255,121.836 347.406,120.619 350.451,120.188 350.813,119.962 351.74,117.895 354.166,117.114 
	354.49,117.156 356.296,116.022 358.395,115.196 358.757,114.969 361.576,113.69 364.19,114.023 365.172,114.148 365.5,114.19 
	365.534,113.923 366.685,112.704 367.081,112.209 367.51,111.445 367.286,110.598 367.266,108.139 368.349,107.46 372.185,106.037 
	372.804,106.39 372.838,106.121 374.747,104.181 375.073,104.223 377.24,102.861 377.602,102.633 379.372,101.769 383.5,100.657 
	385.359,101.713 387.667,104.463 387.633,104.73 "/>
</svg>
