<?xml version="1.0" encoding="utf-8"?>
<!-- Generator: Adobe Illustrator 23.0.1, SVG Export Plug-In . SVG Version: 6.00 Build 0)  -->
<svg version="1.1" id="Layer_1" xmlns="http://www.w3.org/2000/svg" xmlns:xlink="http://www.w3.org/1999/xlink" x="0px" y="0px"
	 viewBox="0 0 500 250" style="enable-background:new 0 0 500 250;" xml:space="preserve">
<style type="text/css">
	.st0{opacity:0.75;fill:#FF767D;enable-background:new    ;}
</style>
<polygon class="st0" points="255.624,171.264 260.146,167.54 264.135,164.348 269.323,159.693 270.253,159.826 274.51,157.964 
	275.707,157.431 275.84,157.166 279.963,155.837 281.16,155.837 280.76,155.17 280.494,152.91 284.219,147.724 284.617,146.127 
	284.485,145.728 284.485,145.596 284.219,143.335 283.953,142.936 282.889,140.409 283.687,138.945 283.953,138.679 
	283.687,137.749 284.086,134.69 285.415,132.429 285.814,130.567 286.347,129.636 286.347,129.237 286.613,124.98 286.08,122.853 
	284.751,120.991 284.485,120.326 283.154,117.4 282.356,116.469 279.431,111.283 279.431,109.952 279.032,108.357 277.834,106.76 
	277.435,106.362 274.244,103.568 271.716,67.792 268.659,67.792 267.993,67.792 267.328,68.325 266.53,68.325 264.933,68.058 
	264.003,67.393 261.476,65.931 260.944,65.797 259.215,65.665 257.62,64.998 256.688,64.202 256.555,64.202 254.028,63.669 
	252.3,61.941 251.901,61.807 250.171,61.143 248.974,60.212 248.176,59.945 247.245,61.143 246.714,61.674 246.581,61.674 
	245.516,61.807 241.394,61.807 239.664,61.143 239,61.408 237.537,61.941 235.808,62.872 233.281,62.472 229.557,63.271 
	229.158,63.404 226.232,65.398 222.908,66.064 221.975,65.132 218.917,63.803 217.588,63.536 216.257,63.935 214.262,63.536 
	211.734,62.338 210.405,63.669 210.14,64.202 208.011,66.861 205.484,64.866 205.085,63.669 204.288,63.404 204.154,63.536 
	203.622,64.068 200.697,64.334 199.765,62.605 196.972,61.143 196.707,60.876 193.781,63.669 190.456,63.536 189.259,61.275 
	189.259,61.143 186.333,58.882 185.934,58.216 182.342,57.285 180.88,58.882 176.623,57.285 176.224,57.285 174.629,57.951 
	172.768,57.552 169.309,56.222 168.91,56.222 165.319,56.088 163.457,54.492 162.926,52.764 162.659,52.232 161.994,51.433 
	161.329,51.301 159.601,52.232 157.738,51.566 157.339,51.566 154.547,52.232 152.684,51.301 149.093,47.843 146.7,47.444 
	146.567,2.357 87.382,1.56 83.26,106.76 7.452,103.436 7.185,103.967 7.053,104.765 7.053,105.031 7.318,105.564 7.452,105.829 
	8.915,106.893 9.047,106.76 11.707,108.489 14.634,113.544 14.899,114.474 17.294,115.805 19.687,117.002 19.954,117.134 
	20.75,118.197 21.417,118.864 22.614,119.927 22.879,120.458 23.544,121.524 23.81,121.789 25.938,122.853 27.003,123.785 
	27.534,124.184 28.199,125.646 28.066,126.045 29.663,127.375 31.39,128.705 31.79,129.503 32.987,130.168 35.647,131.365 
	36.445,132.163 37.11,132.429 38.44,133.758 40.435,135.62 40.701,135.754 42.296,137.616 42.829,141.339 46.021,145.728 
	46.287,147.324 45.755,149.984 46.021,150.783 46.287,152.777 46.818,153.177 47.217,154.24 47.484,154.506 48.149,155.304 
	49.079,158.23 49.478,158.763 50.544,159.693 51.607,160.49 52.006,161.024 52.537,161.289 53.601,161.423 56.528,164.747 
	58.123,165.678 58.789,166.21 59.188,166.477 60.251,166.875 64.109,167.407 65.173,169.004 66.237,169.801 67.566,170.333 
	68.364,170.466 68.897,170.2 70.758,171.664 71.557,172.461 72.886,173.657 73.285,173.525 74.217,172.993 75.015,174.324 
	75.28,174.589 75.414,174.589 75.812,174.057 76.609,174.855 77.675,174.988 77.94,174.324 79.537,172.328 79.802,172.195 
	80.201,171.796 81.797,170.333 82.329,169.934 82.861,168.604 83.127,167.274 83.791,166.477 84.058,166.21 84.324,164.747 
	84.589,163.817 84.723,163.684 84.857,163.284 87.249,159.826 89.777,157.698 91.905,156.9 94.565,156.767 95.096,155.704 
	96.028,154.905 98.555,154.905 99.22,155.304 100.816,156.103 101.613,156.635 102.545,156.767 103.742,156.501 105.47,156.501 
	106.136,156.501 110.79,157.565 111.322,157.565 112.519,157.166 114.78,157.166 116.909,157.964 117.308,158.23 118.637,160.225 
	119.835,161.157 121.163,161.821 121.43,163.284 122.893,164.481 123.823,164.614 125.819,166.21 126.218,166.875 126.351,167.008 
	128.346,168.205 129.409,169.136 130.208,169.801 131.405,170.998 131.671,172.062 132.469,172.86 134.198,175.121 134.597,177.781 
	136.326,179.776 137.656,183.633 137.922,183.766 138.986,184.962 139.518,185.229 139.917,186.825 141.247,188.819 
	141.247,190.416 142.178,191.479 142.443,192.942 144.04,194.538 144.439,194.804 144.704,194.804 146.301,195.337 146.966,196.268 
	147.099,196.4 147.365,196.932 148.562,198.927 150.423,200.79 151.621,203.582 152.02,204.115 152.152,204.115 154.014,205.577 
	154.413,206.242 155.078,206.508 158.27,207.705 159.069,208.369 160.398,212.626 160.132,214.621 159.867,215.152 159.867,215.286 
	160.132,215.551 161.729,219.409 161.729,219.542 161.329,221.404 161.329,221.537 162.26,222.069 162.393,222.335 162.792,223.399 
	163.457,223.665 164.254,224.862 165.053,225.261 165.586,226.325 165.586,226.59 165.718,226.724 166.382,227.921 166.382,228.053 
	167.049,228.719 167.181,229.916 167.181,230.315 167.314,230.448 167.847,231.91 167.979,232.576 167.979,232.709 169.042,233.241 
	169.441,234.305 169.574,235.236 170.639,235.369 170.772,235.502 170.906,235.502 172.234,235.768 172.501,235.9 173.167,236.167 
	174.23,236.167 174.496,236.167 175.029,236.167 176.491,237.097 177.555,237.896 178.485,238.827 178.619,238.827 178.884,238.959 
	179.816,238.693 182.077,239.226 183.141,239.226 184.204,239.625 184.603,240.289 185.268,240.689 185.401,240.821 
	186.333,240.955 186.998,241.752 188.594,242.683 189.259,242.816 190.189,242.816 190.456,242.949 190.588,242.949 
	191.254,242.816 191.387,242.816 192.318,242.949 193.648,242.683 194.445,242.816 194.711,242.816 195.11,242.949 195.377,242.949 
	195.509,242.816 196.175,242.683 196.972,242.816 196.972,242.949 197.371,242.949 198.835,242.949 199.632,243.481 
	200.563,243.481 202.425,244.013 203.09,244.412 203.888,245.21 204.021,245.476 205.484,246.275 205.75,246.807 206.017,246.807 
	207.081,247.072 207.213,246.939 208.011,246.009 209.341,245.609 210.14,245.21 210.405,245.21 210.272,244.279 210.405,243.88 
	209.741,243.481 208.942,242.285 208.942,242.151 208.278,240.821 208.41,240.556 208.144,239.625 207.612,239.226 207.347,238.56 
	206.548,237.496 206.548,236.299 205.75,235.502 205.75,235.236 205.219,234.437 205.085,234.171 205.351,233.639 205.618,233.507 
	205.618,232.443 204.952,230.713 204.952,230.182 204.288,228.586 204.288,228.187 203.489,227.123 203.489,226.989 
	202.559,226.458 202.16,225.128 202.425,224.064 202.425,223.798 202.16,222.733 202.16,222.468 202.425,221.537 203.756,221.005 
	203.489,219.808 204.82,218.744 204.82,218.478 204.82,218.345 204.952,217.68 203.622,217.946 202.958,217.812 202.691,217.812 
	201.893,217.812 200.164,216.483 200.164,215.551 201.361,214.755 201.495,214.488 202.16,213.957 202.425,213.689 202.691,213.424 
	203.622,212.891 205.351,212.891 205.75,213.158 206.017,212.095 206.017,211.961 206.414,211.029 206.681,210.365 206.814,209.567 
	207.48,208.369 207.612,207.572 208.278,206.508 208.011,206.242 206.548,205.977 206.414,205.842 206.282,205.71 205.351,204.38 
	205.351,204.115 205.351,203.317 205.618,202.518 205.883,202.119 206.414,201.72 207.48,200.922 208.543,200.523 208.942,200.523 
	210.272,201.056 210.671,201.321 210.671,201.189 211.07,200.79 211.734,199.725 212.401,198.927 212.401,198.661 213.331,197.73 
	213.198,196.534 213.331,196.135 213.73,194.804 214.661,194.405 215.061,194.405 215.725,194.671 215.991,194.671 218.518,192.81 
	218.518,192.677 218.119,191.479 218.385,190.948 218.385,190.282 218.651,188.952 219.183,188.42 220.647,188.021 221.045,187.889 
	222.109,188.554 222.508,189.218 222.641,189.484 223.307,189.484 223.838,189.086 225.301,188.42 225.7,187.756 226.099,187.622 
	225.7,187.357 224.502,187.357 224.502,186.426 224.104,186.027 223.838,185.894 222.374,185.229 222.374,185.096 222.109,184.564 
	222.109,184.031 221.843,183.499 221.178,182.701 221.975,181.238 222.241,181.106 223.307,180.44 224.769,181.238 224.901,181.505 
	225.434,182.436 226.099,182.569 227.03,183.633 227.961,182.835 229.025,182.569 229.69,181.637 232.35,180.839 233.548,181.77 
	233.548,182.701 233.813,182.701 234.344,182.436 234.478,182.701 234.611,182.569 234.478,182.436 234.743,182.304 
	235.142,182.037 238.468,182.436 239,182.436 240.994,181.505 243.122,180.175 243.521,179.909 244.719,179.11 247.91,177.116 
	249.773,176.45 252.699,173.657 255.225,171.796 "/>
</svg>
