<?xml version="1.0" encoding="utf-8"?>
<!-- Generator: Adobe Illustrator 23.0.1, SVG Export Plug-In . SVG Version: 6.00 Build 0)  -->
<svg version="1.1" id="Layer_1" xmlns="http://www.w3.org/2000/svg" xmlns:xlink="http://www.w3.org/1999/xlink" x="0px" y="0px"
	 viewBox="0 0 500 250" style="enable-background:new 0 0 500 250;" xml:space="preserve">
<style type="text/css">
	.st0{opacity:0.75;fill:#FF767D;enable-background:new    ;}
</style>
<polygon class="st0" points="224.991,185.061 341.273,172.008 340.792,171.062 340.636,169.857 339.57,168.842 338.536,167.536 
	336.23,161.927 335.746,160.981 334.749,159.382 334.627,157.883 334.368,157.558 334.043,157.815 330.395,158.574 329.483,158.765 
	328.346,158.334 327.727,158.559 325.422,157.991 324.286,157.561 323.476,156.873 323.117,157.424 322.686,158.56 320.828,159.232 
	320.76,159.816 320.469,159.782 317.337,161.194 315.479,161.866 312.433,160.027 312.089,157.91 311.57,157.257 309.627,156.139 
	309.146,155.193 308.887,154.865 305.963,154.523 304.051,153.114 302.673,149.691 299.784,149.055 298.941,148.658 
	296.513,146.597 296.822,143.964 299.661,142.517 299.695,142.224 302.531,140.777 304.546,141.311 305.458,141.12 307.625,142.859 
	308.728,143.58 309.469,144.852 309.554,146.641 309.519,146.935 309.813,146.969 310.328,147.622 312.859,148.808 313.702,149.204 
	315.904,150.647 316.938,151.956 317.266,151.697 319.845,149.925 319.723,148.428 319.758,148.135 318.071,147.345 317.78,147.311 
	316.868,147.499 316.575,147.465 313.888,145.075 310.671,144.698 309.415,142.771 310.704,139.364 311.944,138.917 
	313.474,138.504 313.215,138.176 312.666,137.814 310.41,134.288 311.527,132.345 313.195,130.761 316.378,131.429 316.896,132.085 
	318.908,132.616 318.942,132.325 318.754,131.413 317.461,129.779 313.866,127.578 313.419,126.339 311.989,125.874 310.37,124.499 
	310.114,124.172 308.618,124.294 307.997,124.516 306.759,124.966 306.173,124.897 304.005,123.161 302.714,121.525 
	302.199,120.872 301.527,119.014 301.008,118.361 300.717,118.327 297.603,117.072 297.344,116.744 294.592,114.94 294.333,114.612 
	293.558,113.631 292.456,112.91 291.681,111.929 291.405,109.228 293.916,108.04 296.843,108.383 298.133,110.017 298.427,110.051 
	298.717,110.085 301.281,110.98 301.541,111.306 303.227,112.098 306.239,114.228 306.464,114.849 307.461,116.448 308.235,117.429 
	309.181,116.948 309.766,117.016 312.296,118.202 312.846,118.562 313.673,116.584 313.257,115.051 313.07,114.139 313.138,113.555 
	312.826,111.147 314.89,108.72 314.924,108.429 314.958,108.135 315.061,107.258 314.77,107.224 313.633,106.793 313.34,106.759 
	312.462,106.656 308.989,105.954 307.077,104.542 305.099,103.718 304.806,103.684 302.86,102.566 300.795,99.952 299.402,99.194 
	298.043,98.145 297.784,97.82 295.994,97.905 293.914,97.958 292.227,97.168 291.609,97.39 287.77,97.238 286.893,97.135 
	284.949,96.017 282.195,94.212 281.488,92.648 281.266,92.027 281.007,91.701 280.713,91.667 278.286,89.603 277.839,88.364 
	277.221,88.588 276.927,88.554 275.035,89.517 274.416,89.742 272.233,90.673 271.905,90.929 270.081,91.31 269.788,91.276 
	267.295,89.796 267.036,89.469 266.295,88.197 264.971,86.855 264.074,84.378 263.815,84.05 263.798,81.677 264.295,79.955 
	265.156,77.685 265.225,77.1 265.687,75.673 266.083,74.829 266.461,71.612 270.399,70.887 271.551,68.65 273.581,66.516 
	273.615,66.223 273.599,63.849 273.477,62.353 273.252,61.732 273.286,61.441 272.771,60.786 272.477,60.751 271.084,59.996 
	269.534,58.035 269.278,57.707 268.072,57.863 265.733,57.589 263.787,56.471 263.115,54.613 262.015,53.892 261.428,53.823 
	260.879,53.461 259.676,53.617 259.382,53.583 257.524,54.255 256.062,54.083 254.738,52.741 253.635,52.019 253.376,51.692 
	251.14,50.54 250.02,47.444 250.329,44.812 251.569,44.365 250.725,43.968 248.814,42.56 247.902,42.748 244.753,41.786 
	244.46,41.752 241.935,50.648 241.264,53.83 218.652,39.318 218.223,40.455 218.377,41.658 217.553,43.638 216.178,45.256 
	216.144,45.547 216.882,46.82 216.092,48.507 216.608,49.16 216.832,49.781 215.543,53.186 214.788,54.582 213.154,55.873 
	211.743,57.782 211.159,57.713 211.4,60.708 210.454,61.189 209.732,62.292 207.478,63.807 207.153,64.064 206.497,64.582 
	205.448,65.941 202.903,67.422 202.285,67.644 201.495,69.331 200.24,72.445 196.936,75.319 196.352,75.251 192.532,72.431 
	192.463,73.018 191.705,74.411 190.846,76.682 191.293,77.921 189.713,81.293 188.801,81.483 188.767,81.776 188.63,82.945 
	188.561,83.532 188.492,84.116 187.959,86.128 187.599,86.68 187.272,86.937 186.998,89.276 186.635,89.829 186.276,90.379 
	185.518,91.772 185.193,92.031 184.831,92.581 183.884,93.065 182.148,95.233 180.359,95.318 178.053,94.753 176.005,94.513 
	175.42,94.444 174.577,94.048 173.993,93.98 173.409,93.911 169.688,90.213 168.657,88.905 167.005,87.822 166.833,89.286 
	166.403,90.42 166.852,91.66 166.681,93.122 166.216,94.55 165.494,95.652 165.46,95.946 165.289,97.408 162.966,99.507 
	162.931,99.8 162.572,100.35 162.538,100.644 162.882,102.758 161.471,104.67 161.111,105.22 159.185,106.476 158.461,107.578 
	158.136,107.835 157.964,109.299 157.93,109.59 157.861,110.177 157.724,111.346 156.863,113.616 156.828,113.91 156.691,115.081 
	156.657,115.372 156.263,116.215 154.131,119.227 152.032,121.947 151.345,122.756 149.678,124.34 148.37,125.371 148.335,125.665 
	147.408,128.52 147.527,130.019 147.425,130.894 146.478,131.378 146.153,131.634 145.654,133.355 145.292,133.908 145.844,134.267 
	147.497,135.351 147.12,138.568 145.777,139.895 145.415,140.445 145.056,140.995 144.969,144.246 137.196,149.86 134.72,150.754 
	133.101,149.38 132.617,148.434 131.999,148.656 130.004,150.499 122.762,154.096 122.177,154.027 120.475,155.905 120.182,155.87 
	119.786,156.713 118.221,157.42 116.827,156.664 117.895,157.679 114.798,158.798 113.629,158.661 113.336,158.626 111.444,159.589 
	110.273,159.452 109.947,159.711 108.055,160.676 106.196,161.348 105.869,161.605 103.067,162.758 102.808,162.433 101.19,161.056 
	100.64,160.697 98.694,159.579 97.851,159.182 97.594,158.855 96.905,159.664 95.012,160.629 93.672,161.954 92.295,163.572 
	91.383,163.762 88.838,165.241 88.254,165.172 86.137,165.519 85.552,165.45 81.198,164.643 80.717,163.696 80.458,163.371 
	78.874,161.701 78.583,161.667 77.053,162.082 74.005,160.24 72.646,159.191 72.389,158.866 71.837,158.504 70.546,156.871 
	69.065,154.325 68.911,153.12 68.653,152.793 67.225,152.33 54.566,164.189 53.981,164.121 47.099,167.167 43.282,169.389 
	40.375,171.42 40.599,172.041 41.149,172.4 41.303,173.605 38.914,176.289 37.246,177.873 36.007,178.323 35.026,179.097 
	35.182,180.3 35.011,181.762 34.942,182.349 33.172,184.808 31.02,185.445 30.692,185.704 29.128,186.411 26.651,187.307 
	25.808,186.911 25.223,186.843 24.397,188.82 24.362,189.113 24.259,189.991 20.665,192.831 20.081,192.762 18.841,193.209 
	18.223,193.434 17.02,193.591 16.33,194.4 13.269,195.225 12.941,195.484 12.289,196 73.349,193.672 74.364,192.604 74.723,192.054 
	75.635,191.863 90.362,192.7 "/>
</svg>
