<?xml version="1.0" encoding="utf-8"?>
<!-- Generator: Adobe Illustrator 23.0.1, SVG Export Plug-In . SVG Version: 6.00 Build 0)  -->
<svg version="1.1" id="Layer_1" xmlns="http://www.w3.org/2000/svg" xmlns:xlink="http://www.w3.org/1999/xlink" x="0px" y="0px"
	 viewBox="0 0 500 250" style="enable-background:new 0 0 500 250;" xml:space="preserve">
<style type="text/css">
	.st0{opacity:0.75;fill:#FF767D;enable-background:new    ;}
</style>
<polygon class="st0" points="45.725,132.732 45.314,133.684 45.132,140.733 41.529,143.432 40.164,143.972 39.674,146.106 
	40.729,147.085 43.429,150.687 48.6,148.579 53.103,149.226 56.24,150.411 62.029,151.699 63.029,155.61 63.415,156.123 
	64.932,156.432 65.782,156.278 68.741,154.867 73.14,154.943 75.43,156.282 79.159,159.114 80.214,160.093 84.456,165.753 
	85.404,169.38 85.431,171.13 85.534,171.697 86.249,182.09 86.3,182.372 87.022,183.118 88.693,184.278 91.445,184.946 
	95.869,186.775 97.568,186.467 101.091,188.166 102.273,188.245 102.557,188.193 114.597,183.671 126.999,181.128 135.898,181.852 
	141.585,182.574 141.918,182.807 143.153,183.167 145.595,185.355 148.375,184.558 148.324,184.276 154.47,184.329 161.907,181.812 
	162.654,181.091 167.851,180.734 170.755,182.252 176.237,181.842 180.48,181.072 186.965,178.144 186.914,177.86 189.126,177.166 
	201.011,175.009 201.809,174.574 209.298,172.339 220.59,171.751 222.57,171.392 231.165,167.202 231.603,167.999 303.813,168.054 
	302.502,165.66 302.451,165.379 303.738,162.807 304.15,161.856 303.431,157.894 302.12,155.5 301.401,154.754 300.528,149.943 
	303.176,21.137 99.898,18.844 99.614,18.895 99.278,21.878 100.743,25.121 101.747,25.816 106.584,26.692 106.687,27.258 
	106.94,31.888 107.401,40.868 106.062,46.371 107.552,48.148 110.506,56.38 110.968,58.928 111.611,60.856 115.493,67.752 
	111.812,71.635 108.21,77.551 107.77,83.184 107.306,83.854 108.797,88.844 107.586,90.234 107.356,90.569 108.253,93.912 
	109.256,97.822 106.012,102.503 97.678,104.892 98.319,103.608 97.754,103.71 96.905,103.864 96.727,98.05 97.833,96.095 
	97.552,96.146 98.066,95.76 99.302,92.907 95.649,92.106 98.173,86.679 96.886,86.035 98.2,85.213 96.861,84.286 98.355,82.847 
	97.454,82.717 97.584,81.817 97.636,78.885 96.735,78.755 90.973,76.002 90.665,74.303 92.929,73.893 92.569,71.911 94.216,71.321 
	94.165,71.037 93.24,69.158 92.34,69.03 92.443,66.38 91.389,65.401 82.927,65.475 83.852,64.14 81.178,62.284 80.791,61.771 
	79.353,60.277 74.696,61.999 71.145,61.766 68.316,62.279 68.111,61.149 67.492,60.968 58.901,58.727 49.718,58.053 44.78,56.611 
	40.33,53.035 34.44,51.179 30.479,48.682 28.756,47.241 27.702,46.262 27.651,45.98 27.367,46.032 26.879,48.165 24.277,54.777 
	24.712,58.79 24.43,58.841 25.071,63.987 25.225,64.836 25.919,67.048 29.751,70.446 30.47,71.192 31.216,73.688 33.143,76.26 
	34.577,93.833 35.76,97.124 36.093,97.356 38.716,102.143 39.252,109.937 43.522,110.917 44.834,113.31 45.785,113.721 
	46.349,120.049 43.288,120.898 42.258,121.668 40.2,123.212 40.096,125.862 40.429,126.092 41.048,126.273 43.593,125.811 
	45.602,123.986 49.818,127.897 48.068,131.139 "/>
</svg>
