<?xml version="1.0" encoding="utf-8"?>
<!-- Generator: Adobe Illustrator 23.0.1, SVG Export Plug-In . SVG Version: 6.00 Build 0)  -->
<svg version="1.1" id="Layer_1" xmlns="http://www.w3.org/2000/svg" xmlns:xlink="http://www.w3.org/1999/xlink" x="0px" y="0px"
	 viewBox="0 0 500 250" style="enable-background:new 0 0 500 250;" xml:space="preserve">
<style type="text/css">
	.st0{opacity:0.75;fill:#FF767D;enable-background:new    ;}
</style>
<polygon class="st0" points="33.347,132.287 31.171,131.901 28.378,142.611 22.191,144.654 21.319,144.499 18.481,145.337 
	17.1,145.542 14.111,147.253 13.239,147.098 12.73,147.458 13.926,150.809 13.542,152.981 13.465,153.413 13.388,153.849 
	12.109,158.552 11.724,160.724 10.826,163.254 11.031,164.636 11.463,164.712 11.821,165.225 14.476,167.936 14.758,168.881 
	15.754,170.852 16.468,171.874 16.827,172.387 18.054,173.054 20.991,176.71 20.451,179.753 21.601,180.853 24.337,183.132 
	24.743,185.89 25.38,187.347 26.53,188.45 28.548,189.703 28.83,190.648 30.694,192.773 30.745,195.022 31.459,196.044 
	32.172,197.07 32.813,198.528 34.04,199.191 35.699,199.935 39.457,201.496 39.816,202.009 41.321,203.62 42.394,205.156 
	43.466,206.69 43.902,206.768 45.206,206.999 46.356,208.098 46.788,208.174 51.726,208.154 52.158,208.231 53.385,208.894 
	55.838,210.228 56.553,211.25 56.886,214.444 55.552,216.897 56.47,219.304 57.467,221.271 57.671,222.652 57.95,223.597 
	58.667,224.623 59.099,224.7 61.758,227.411 63.575,227.283 66.46,228.694 69.987,231.559 69.551,231.482 71.06,233.094 
	72.21,234.193 73.946,234.501 74.382,234.578 76.708,234.095 78.756,232.663 79.931,231.081 82.412,229.726 85.328,228.448 
	86.507,226.867 88.116,225.358 90.24,223.494 90.753,223.135 92.057,223.366 95.58,226.234 97.166,227.411 97.957,228 
	100.77,229.84 101.129,230.353 102.074,230.071 104.476,229.156 105.934,228.515 110.667,227.114 111.535,227.267 113.938,226.348 
	116.623,226.375 117.059,226.452 117.927,226.606 119.898,225.61 119.363,221.035 119.441,220.599 119.595,219.731 125.144,216.234 
	126.012,216.388 128.543,217.283 130.92,219.049 131.275,219.561 136.239,216.856 139.741,214.786 142.811,212.641 147.466,211.671 
	148.334,211.825 150.993,214.54 156.107,210.962 155.624,208.637 157.031,205.747 159.588,203.96 159.233,203.447 158.006,202.784 
	156.677,197.619 158.52,194.806 158.473,192.558 161.03,190.771 162.514,187.445 163.617,186.295 163.694,185.863 163.489,184.482 
	167.966,179.447 169.501,178.377 171.626,176.51 173.392,174.133 175.949,172.346 176.689,170.687 176.766,170.251 177.741,167.285 
	177.818,166.852 178.917,165.702 178.869,163.454 178.947,163.018 179.101,162.15 179.409,160.41 179.563,159.542 181.482,156.297 
	182.505,155.579 183.095,154.789 185.139,153.356 186.242,152.207 186.114,150.394 186.191,149.958 187.675,146.636 
	188.264,145.845 189.954,143.9 191.052,142.754 191.207,141.882 192.613,138.996 193.563,138.715 192.643,136.312 193.106,133.704 
	193.923,131.609 193.799,129.792 194.539,128.133 196.972,124.529 197.485,124.171 199.298,124.043 200.602,124.274 
	202.342,124.582 203.568,125.249 210.34,130.034 212.127,132.591 213.555,134.638 214.349,135.228 215.653,135.459 216.085,135.536 
	218.693,135.998 221.224,136.892 221.301,136.46 222.913,134.951 224.448,133.879 225.115,132.652 225.346,131.348 226.83,128.026 
	227.292,125.418 227.523,124.114 228.652,120.28 230.264,118.775 230.213,116.526 232.646,112.922 232.877,111.618 234.716,108.805 
	234.793,108.373 235.46,107.146 236.05,106.352 237.38,103.902 239.659,101.166 242.826,103.522 247.067,107.409 248.474,104.523 
	249.141,103.296 251.062,100.048 251.648,99.256 253.182,98.183 257.124,96.192 257.633,95.836 259.168,94.764 259.245,94.328 
	260.344,93.178 262.238,92.618 262.623,90.446 265.209,85.974 265.719,85.615 267.177,84.978 268.279,83.829 270.401,81.961 
	270.913,81.606 271.144,80.302 270.862,79.357 271.123,75.368 271.787,74.141 271.381,71.38 271.97,70.589 272.634,69.361 
	273.887,67.34 274.554,66.113 274.939,63.941 274.302,62.483 274.995,58.572 280.776,53.771 311.743,76.292 314.511,68.264 
	313.592,65.861 313.977,63.689 313.853,61.872 313.417,61.795 310.557,57.703 310.711,56.835 308.129,53.688 306.111,52.435 
	305.32,51.846 303.812,50.233 303.61,48.853 302.661,49.134 302.229,49.058 299.545,49.028 298.677,48.874 295.505,46.521 
	293.359,43.451 292.927,43.375 290.397,42.477 289.529,42.323 288.426,43.472 286.583,46.285 285.048,47.358 281.776,48.123 
	279.682,47.302 279.246,47.225 278.301,47.507 277.044,49.525 276.89,50.393 276.428,53 273.871,54.787 268.63,56.548 
	267.761,56.394 264.132,56.647 261.242,55.239 260.806,55.162 256.385,54.828 251.836,52.677 250.61,52.01 250.02,52.801 
	248.997,53.519 246.719,56.251 244.443,58.987 243.854,59.777 242.956,62.308 238.663,63.787 236.641,62.534 234.546,61.713 
	233.678,61.559 232.579,62.709 231.835,64.372 229.201,66.595 227.666,67.668 224.084,70.168 223.497,70.963 221.141,74.131 
	218.226,75.405 217.204,76.123 214.647,77.91 213.467,79.491 211.855,81 211.778,81.436 206.459,83.629 205.283,85.215 
	205.155,83.398 202.933,80.764 202.578,80.251 201.145,42.799 135.033,44.079 132.506,0.158 131.408,1.304 131.331,1.74 
	130.818,2.099 128.821,5.779 128.667,6.647 128.436,7.951 127.923,8.306 128.256,11.504 128.024,12.808 127.358,14.035 
	127.177,17.588 127.1,18.024 126.869,19.328 127.198,22.522 125.51,24.462 125.202,26.202 125.124,26.638 123.949,28.22 
	124.304,28.733 122.742,32.491 122.357,34.663 120.515,37.472 121.793,40.388 121.407,42.563 120.074,45.013 119.303,49.36 
	119.072,50.664 117.973,51.814 114.702,52.58 112.809,53.139 111.632,54.725 111.12,55.08 110.021,56.23 109.508,56.589 
	106.207,60.039 105.698,60.394 104.518,61.979 104.876,62.492 101.14,65.861 98.814,66.348 98.737,66.78 97.997,68.443 
	92.242,70.563 91.806,70.486 90.784,71.2 90.272,71.555 84.953,73.751 83.217,73.444 80.558,70.732 79.844,69.707 79.331,70.066 
	76.774,71.853 76.697,72.288 76.62,72.724 76.543,73.157 75.414,76.991 75.029,79.163 72.703,79.65 69.151,79.466 68.279,79.312 
	68.124,80.183 65.772,83.351 65.029,85.01 65.562,89.589 64.742,91.684 63.488,93.702 63.432,99.071 63.791,99.584 64.073,100.53 
	64.248,104.595 60.31,106.587 59.006,106.356 57.24,108.733 55.193,110.16 51.486,110.848 50.618,110.694 49.468,109.595 
	48.241,108.928 46.685,105.068 47.583,102.537 47.66,102.105 44.693,101.13 44.257,101.053 42.722,102.125 41.546,103.708 
	41.392,104.579 40.649,106.238 40.468,109.791 38.112,112.963 37.526,113.754 36.504,114.468 37.701,117.82 37.983,118.765 
	37.598,120.937 38.081,123.266 38.286,124.644 38.641,125.156 39.282,126.614 36.772,130.654 "/>
</svg>
